<?xml version="1.0" encoding="utf-8" standalone="no"?>
<!DOCTYPE svg PUBLIC "-//W3C//DTD SVG 1.1//EN"
  "http://www.w3.org/Graphics/SVG/1.1/DTD/svg11.dtd">
<!-- Created with matplotlib (https://matplotlib.org/) -->
<svg height="345.6pt" version="1.1" viewBox="0 0 460.8 345.6" width="460.8pt" xmlns="http://www.w3.org/2000/svg" xmlns:xlink="http://www.w3.org/1999/xlink">
 <defs>
  <style type="text/css">
*{stroke-linecap:butt;stroke-linejoin:round;}
  </style>
 </defs>
 <g id="figure_1">
  <g id="patch_1">
   <path d="M 0 345.6 
L 460.8 345.6 
L 460.8 0 
L 0 0 
z
" style="fill:#ffffff;"/>
  </g>
  <g id="axes_1">
   <g id="patch_2">
    <path d="M 0 293.76 
L 460.8 293.76 
L 460.8 3.456 
L 0 3.456 
z
" style="fill:#ffffff;"/>
   </g>
   <g id="matplotlib.axis_1">
    <g id="xtick_1">
     <g id="line2d_1">
      <path clip-path="url(#p736b325f77)" d="M 105.975724 293.76 
L 105.975724 3.456 
" style="fill:none;stroke:#b0b0b0;stroke-linecap:square;stroke-width:0.8;"/>
     </g>
     <g id="line2d_2">
      <defs>
       <path d="M 0 0 
L 0 3.5 
" id="m4a530d196b" style="stroke:#000000;stroke-width:0.8;"/>
      </defs>
      <g>
       <use style="stroke:#000000;stroke-width:0.8;" x="105.975724" xlink:href="#m4a530d196b" y="293.76"/>
      </g>
     </g>
     <g id="text_1">
      <!-- -4 -->
      <defs>
       <path d="M 4.890625 31.390625 
L 31.203125 31.390625 
L 31.203125 23.390625 
L 4.890625 23.390625 
z
" id="DejaVuSans-45"/>
       <path d="M 37.796875 64.3125 
L 12.890625 25.390625 
L 37.796875 25.390625 
z
M 35.203125 72.90625 
L 47.609375 72.90625 
L 47.609375 25.390625 
L 58.015625 25.390625 
L 58.015625 17.1875 
L 47.609375 17.1875 
L 47.609375 0 
L 37.796875 0 
L 37.796875 17.1875 
L 4.890625 17.1875 
L 4.890625 26.703125 
z
" id="DejaVuSans-52"/>
      </defs>
      <g transform="translate(96.005412 315.956875)scale(0.2 -0.2)">
       <use xlink:href="#DejaVuSans-45"/>
       <use x="36.083984" xlink:href="#DejaVuSans-52"/>
      </g>
     </g>
    </g>
    <g id="xtick_2">
     <g id="line2d_3">
      <path clip-path="url(#p736b325f77)" d="M 212.066063 293.76 
L 212.066063 3.456 
" style="fill:none;stroke:#b0b0b0;stroke-linecap:square;stroke-width:0.8;"/>
     </g>
     <g id="line2d_4">
      <g>
       <use style="stroke:#000000;stroke-width:0.8;" x="212.066063" xlink:href="#m4a530d196b" y="293.76"/>
      </g>
     </g>
     <g id="text_2">
      <!-- 0 -->
      <defs>
       <path d="M 31.78125 66.40625 
Q 24.171875 66.40625 20.328125 58.90625 
Q 16.5 51.421875 16.5 36.375 
Q 16.5 21.390625 20.328125 13.890625 
Q 24.171875 6.390625 31.78125 6.390625 
Q 39.453125 6.390625 43.28125 13.890625 
Q 47.125 21.390625 47.125 36.375 
Q 47.125 51.421875 43.28125 58.90625 
Q 39.453125 66.40625 31.78125 66.40625 
z
M 31.78125 74.21875 
Q 44.046875 74.21875 50.515625 64.515625 
Q 56.984375 54.828125 56.984375 36.375 
Q 56.984375 17.96875 50.515625 8.265625 
Q 44.046875 -1.421875 31.78125 -1.421875 
Q 19.53125 -1.421875 13.0625 8.265625 
Q 6.59375 17.96875 6.59375 36.375 
Q 6.59375 54.828125 13.0625 64.515625 
Q 19.53125 74.21875 31.78125 74.21875 
z
" id="DejaVuSans-48"/>
      </defs>
      <g transform="translate(205.703563 315.956875)scale(0.2 -0.2)">
       <use xlink:href="#DejaVuSans-48"/>
      </g>
     </g>
    </g>
    <g id="xtick_3">
     <g id="line2d_5">
      <path clip-path="url(#p736b325f77)" d="M 318.156401 293.76 
L 318.156401 3.456 
" style="fill:none;stroke:#b0b0b0;stroke-linecap:square;stroke-width:0.8;"/>
     </g>
     <g id="line2d_6">
      <g>
       <use style="stroke:#000000;stroke-width:0.8;" x="318.156401" xlink:href="#m4a530d196b" y="293.76"/>
      </g>
     </g>
     <g id="text_3">
      <!-- 4 -->
      <g transform="translate(311.793901 315.956875)scale(0.2 -0.2)">
       <use xlink:href="#DejaVuSans-52"/>
      </g>
     </g>
    </g>
    <g id="xtick_4">
     <g id="line2d_7">
      <path clip-path="url(#p736b325f77)" d="M 424.246739 293.76 
L 424.246739 3.456 
" style="fill:none;stroke:#b0b0b0;stroke-linecap:square;stroke-width:0.8;"/>
     </g>
     <g id="line2d_8">
      <g>
       <use style="stroke:#000000;stroke-width:0.8;" x="424.246739" xlink:href="#m4a530d196b" y="293.76"/>
      </g>
     </g>
     <g id="text_4">
      <!-- 8 -->
      <defs>
       <path d="M 31.78125 34.625 
Q 24.75 34.625 20.71875 30.859375 
Q 16.703125 27.09375 16.703125 20.515625 
Q 16.703125 13.921875 20.71875 10.15625 
Q 24.75 6.390625 31.78125 6.390625 
Q 38.8125 6.390625 42.859375 10.171875 
Q 46.921875 13.96875 46.921875 20.515625 
Q 46.921875 27.09375 42.890625 30.859375 
Q 38.875 34.625 31.78125 34.625 
z
M 21.921875 38.8125 
Q 15.578125 40.375 12.03125 44.71875 
Q 8.5 49.078125 8.5 55.328125 
Q 8.5 64.0625 14.71875 69.140625 
Q 20.953125 74.21875 31.78125 74.21875 
Q 42.671875 74.21875 48.875 69.140625 
Q 55.078125 64.0625 55.078125 55.328125 
Q 55.078125 49.078125 51.53125 44.71875 
Q 48 40.375 41.703125 38.8125 
Q 48.828125 37.15625 52.796875 32.3125 
Q 56.78125 27.484375 56.78125 20.515625 
Q 56.78125 9.90625 50.3125 4.234375 
Q 43.84375 -1.421875 31.78125 -1.421875 
Q 19.734375 -1.421875 13.25 4.234375 
Q 6.78125 9.90625 6.78125 20.515625 
Q 6.78125 27.484375 10.78125 32.3125 
Q 14.796875 37.15625 21.921875 38.8125 
z
M 18.3125 54.390625 
Q 18.3125 48.734375 21.84375 45.5625 
Q 25.390625 42.390625 31.78125 42.390625 
Q 38.140625 42.390625 41.71875 45.5625 
Q 45.3125 48.734375 45.3125 54.390625 
Q 45.3125 60.0625 41.71875 63.234375 
Q 38.140625 66.40625 31.78125 66.40625 
Q 25.390625 66.40625 21.84375 63.234375 
Q 18.3125 60.0625 18.3125 54.390625 
z
" id="DejaVuSans-56"/>
      </defs>
      <g transform="translate(417.884239 315.956875)scale(0.2 -0.2)">
       <use xlink:href="#DejaVuSans-56"/>
      </g>
     </g>
    </g>
    <g id="text_5">
     <!-- log10 of Df -->
     <defs>
      <path d="M 9.421875 75.984375 
L 18.40625 75.984375 
L 18.40625 0 
L 9.421875 0 
z
" id="DejaVuSans-108"/>
      <path d="M 30.609375 48.390625 
Q 23.390625 48.390625 19.1875 42.75 
Q 14.984375 37.109375 14.984375 27.296875 
Q 14.984375 17.484375 19.15625 11.84375 
Q 23.34375 6.203125 30.609375 6.203125 
Q 37.796875 6.203125 41.984375 11.859375 
Q 46.1875 17.53125 46.1875 27.296875 
Q 46.1875 37.015625 41.984375 42.703125 
Q 37.796875 48.390625 30.609375 48.390625 
z
M 30.609375 56 
Q 42.328125 56 49.015625 48.375 
Q 55.71875 40.765625 55.71875 27.296875 
Q 55.71875 13.875 49.015625 6.21875 
Q 42.328125 -1.421875 30.609375 -1.421875 
Q 18.84375 -1.421875 12.171875 6.21875 
Q 5.515625 13.875 5.515625 27.296875 
Q 5.515625 40.765625 12.171875 48.375 
Q 18.84375 56 30.609375 56 
z
" id="DejaVuSans-111"/>
      <path d="M 45.40625 27.984375 
Q 45.40625 37.75 41.375 43.109375 
Q 37.359375 48.484375 30.078125 48.484375 
Q 22.859375 48.484375 18.828125 43.109375 
Q 14.796875 37.75 14.796875 27.984375 
Q 14.796875 18.265625 18.828125 12.890625 
Q 22.859375 7.515625 30.078125 7.515625 
Q 37.359375 7.515625 41.375 12.890625 
Q 45.40625 18.265625 45.40625 27.984375 
z
M 54.390625 6.78125 
Q 54.390625 -7.171875 48.1875 -13.984375 
Q 42 -20.796875 29.203125 -20.796875 
Q 24.46875 -20.796875 20.265625 -20.09375 
Q 16.0625 -19.390625 12.109375 -17.921875 
L 12.109375 -9.1875 
Q 16.0625 -11.328125 19.921875 -12.34375 
Q 23.78125 -13.375 27.78125 -13.375 
Q 36.625 -13.375 41.015625 -8.765625 
Q 45.40625 -4.15625 45.40625 5.171875 
L 45.40625 9.625 
Q 42.625 4.78125 38.28125 2.390625 
Q 33.9375 0 27.875 0 
Q 17.828125 0 11.671875 7.65625 
Q 5.515625 15.328125 5.515625 27.984375 
Q 5.515625 40.671875 11.671875 48.328125 
Q 17.828125 56 27.875 56 
Q 33.9375 56 38.28125 53.609375 
Q 42.625 51.21875 45.40625 46.390625 
L 45.40625 54.6875 
L 54.390625 54.6875 
z
" id="DejaVuSans-103"/>
      <path d="M 12.40625 8.296875 
L 28.515625 8.296875 
L 28.515625 63.921875 
L 10.984375 60.40625 
L 10.984375 69.390625 
L 28.421875 72.90625 
L 38.28125 72.90625 
L 38.28125 8.296875 
L 54.390625 8.296875 
L 54.390625 0 
L 12.40625 0 
z
" id="DejaVuSans-49"/>
      <path id="DejaVuSans-32"/>
      <path d="M 37.109375 75.984375 
L 37.109375 68.5 
L 28.515625 68.5 
Q 23.6875 68.5 21.796875 66.546875 
Q 19.921875 64.59375 19.921875 59.515625 
L 19.921875 54.6875 
L 34.71875 54.6875 
L 34.71875 47.703125 
L 19.921875 47.703125 
L 19.921875 0 
L 10.890625 0 
L 10.890625 47.703125 
L 2.296875 47.703125 
L 2.296875 54.6875 
L 10.890625 54.6875 
L 10.890625 58.5 
Q 10.890625 67.625 15.140625 71.796875 
Q 19.390625 75.984375 28.609375 75.984375 
z
" id="DejaVuSans-102"/>
      <path d="M 19.671875 64.796875 
L 19.671875 8.109375 
L 31.59375 8.109375 
Q 46.6875 8.109375 53.6875 14.9375 
Q 60.6875 21.78125 60.6875 36.53125 
Q 60.6875 51.171875 53.6875 57.984375 
Q 46.6875 64.796875 31.59375 64.796875 
z
M 9.8125 72.90625 
L 30.078125 72.90625 
Q 51.265625 72.90625 61.171875 64.09375 
Q 71.09375 55.28125 71.09375 36.53125 
Q 71.09375 17.671875 61.125 8.828125 
Q 51.171875 0 30.078125 0 
L 9.8125 0 
z
" id="DejaVuSans-68"/>
     </defs>
     <g transform="translate(175.214063 339.313125)scale(0.2 -0.2)">
      <use xlink:href="#DejaVuSans-108"/>
      <use x="27.783203" xlink:href="#DejaVuSans-111"/>
      <use x="88.964844" xlink:href="#DejaVuSans-103"/>
      <use x="152.441406" xlink:href="#DejaVuSans-49"/>
      <use x="216.064453" xlink:href="#DejaVuSans-48"/>
      <use x="279.6875" xlink:href="#DejaVuSans-32"/>
      <use x="311.474609" xlink:href="#DejaVuSans-111"/>
      <use x="372.65625" xlink:href="#DejaVuSans-102"/>
      <use x="407.861328" xlink:href="#DejaVuSans-32"/>
      <use x="439.648438" xlink:href="#DejaVuSans-68"/>
      <use x="516.650391" xlink:href="#DejaVuSans-102"/>
     </g>
    </g>
   </g>
   <g id="matplotlib.axis_2">
    <g id="ytick_1">
     <g id="line2d_9">
      <path clip-path="url(#p736b325f77)" d="M 0 293.76 
L 460.8 293.76 
" style="fill:none;stroke:#b0b0b0;stroke-linecap:square;stroke-width:0.8;"/>
     </g>
     <g id="line2d_10">
      <defs>
       <path d="M 0 0 
L -3.5 0 
" id="m7404752e16" style="stroke:#000000;stroke-width:0.8;"/>
      </defs>
      <g>
       <use style="stroke:#000000;stroke-width:0.8;" x="0" xlink:href="#m7404752e16" y="293.76"/>
      </g>
     </g>
    </g>
    <g id="ytick_2">
     <g id="line2d_11">
      <path clip-path="url(#p736b325f77)" d="M 0 236.274059 
L 460.8 236.274059 
" style="fill:none;stroke:#b0b0b0;stroke-linecap:square;stroke-width:0.8;"/>
     </g>
     <g id="line2d_12">
      <g>
       <use style="stroke:#000000;stroke-width:0.8;" x="0" xlink:href="#m7404752e16" y="236.274059"/>
      </g>
     </g>
    </g>
    <g id="ytick_3">
     <g id="line2d_13">
      <path clip-path="url(#p736b325f77)" d="M 0 178.788119 
L 460.8 178.788119 
" style="fill:none;stroke:#b0b0b0;stroke-linecap:square;stroke-width:0.8;"/>
     </g>
     <g id="line2d_14">
      <g>
       <use style="stroke:#000000;stroke-width:0.8;" x="0" xlink:href="#m7404752e16" y="178.788119"/>
      </g>
     </g>
    </g>
    <g id="ytick_4">
     <g id="line2d_15">
      <path clip-path="url(#p736b325f77)" d="M 0 121.302178 
L 460.8 121.302178 
" style="fill:none;stroke:#b0b0b0;stroke-linecap:square;stroke-width:0.8;"/>
     </g>
     <g id="line2d_16">
      <g>
       <use style="stroke:#000000;stroke-width:0.8;" x="0" xlink:href="#m7404752e16" y="121.302178"/>
      </g>
     </g>
    </g>
    <g id="ytick_5">
     <g id="line2d_17">
      <path clip-path="url(#p736b325f77)" d="M 0 63.816238 
L 460.8 63.816238 
" style="fill:none;stroke:#b0b0b0;stroke-linecap:square;stroke-width:0.8;"/>
     </g>
     <g id="line2d_18">
      <g>
       <use style="stroke:#000000;stroke-width:0.8;" x="0" xlink:href="#m7404752e16" y="63.816238"/>
      </g>
     </g>
    </g>
    <g id="ytick_6">
     <g id="line2d_19">
      <path clip-path="url(#p736b325f77)" d="M 0 6.330297 
L 460.8 6.330297 
" style="fill:none;stroke:#b0b0b0;stroke-linecap:square;stroke-width:0.8;"/>
     </g>
     <g id="line2d_20">
      <g>
       <use style="stroke:#000000;stroke-width:0.8;" x="0" xlink:href="#m7404752e16" y="6.330297"/>
      </g>
     </g>
    </g>
   </g>
   <g id="line2d_21">
    <path clip-path="url(#p736b325f77)" d="M 223.125952 293.76 
L 223.125952 292.961584 
L 227.321876 292.961584 
L 227.321876 292.163168 
L 228.067767 292.163168 
L 228.067767 291.364752 
L 228.405407 291.364752 
L 228.405407 290.566337 
L 231.397166 290.566337 
L 231.397166 289.767921 
L 232.45895 289.767921 
L 232.523573 288.171089 
L 232.961138 288.171089 
L 232.961138 287.372673 
L 233.9008 287.372673 
L 234.00694 285.775842 
L 234.09289 285.775842 
L 234.09289 284.977426 
L 234.423973 284.977426 
L 234.423973 284.17901 
L 234.652273 284.17901 
L 234.747732 282.582178 
L 235.016247 282.582178 
L 235.047713 280.985347 
L 235.29049 280.985347 
L 235.29049 280.186931 
L 235.519848 280.186931 
L 235.519848 279.388515 
L 235.864536 279.388515 
L 235.945935 277.791683 
L 236.939844 277.791683 
L 236.939844 276.993267 
L 237.268848 276.993267 
L 237.297976 275.396436 
L 237.771371 275.396436 
L 237.771371 274.59802 
L 238.178116 274.59802 
L 238.263399 273.001188 
L 238.308216 273.001188 
L 238.308216 272.202772 
L 238.457013 272.202772 
L 238.457013 271.404356 
L 238.667637 271.404356 
L 238.739956 269.009109 
L 238.89245 269.009109 
L 238.897851 267.412277 
L 239.456191 267.412277 
L 239.456191 266.613861 
L 239.887815 266.613861 
L 239.887815 265.815446 
L 240.40915 265.815446 
L 240.500708 262.621782 
L 240.636975 262.621782 
L 240.636975 261.823366 
L 240.790497 261.823366 
L 240.824444 260.226535 
L 241.094401 260.226535 
L 241.177217 258.629703 
L 241.301623 258.629703 
L 241.301623 257.831287 
L 242.090816 257.831287 
L 242.090816 257.032871 
L 242.267879 257.032871 
L 242.267879 256.234455 
L 242.461921 256.234455 
L 242.548712 254.637624 
L 242.641158 254.637624 
L 242.645272 253.040792 
L 242.785469 253.040792 
L 242.852309 251.44396 
L 242.953541 251.44396 
L 242.953541 250.645545 
L 243.082584 250.645545 
L 243.082584 249.847129 
L 243.447187 249.847129 
L 243.447187 249.048713 
L 243.656704 249.048713 
L 243.656704 248.250297 
L 244.03924 248.250297 
L 244.09954 245.056634 
L 244.20669 245.056634 
L 244.20669 244.258218 
L 244.752078 244.258218 
L 244.801572 242.661386 
L 244.960801 242.661386 
L 244.960801 241.86297 
L 245.197072 241.86297 
L 245.197072 241.064554 
L 245.311784 241.064554 
L 245.311784 240.266139 
L 245.684514 240.266139 
L 245.684514 239.467723 
L 246.671077 239.467723 
L 246.772552 237.072475 
L 246.87059 237.072475 
L 246.87059 236.274059 
L 247.566084 236.274059 
L 247.623537 234.677228 
L 247.707848 234.677228 
L 247.707848 233.878812 
L 247.828678 233.878812 
L 247.828678 233.080396 
L 248.030148 233.080396 
L 248.030148 232.28198 
L 248.309347 232.28198 
L 248.32807 230.685149 
L 248.552676 230.685149 
L 248.624641 229.088317 
L 249.012428 229.088317 
L 249.017553 227.491485 
L 249.240205 227.491485 
L 249.328885 225.894653 
L 249.584931 225.894653 
L 249.584931 225.096238 
L 250.012077 225.096238 
L 250.012077 224.297822 
L 250.170545 224.297822 
L 250.170545 223.499406 
L 250.462318 223.499406 
L 250.462318 222.70099 
L 250.897665 222.70099 
L 250.897665 221.902574 
L 251.819653 221.902574 
L 251.927595 220.305743 
L 252.141243 220.305743 
L 252.249359 218.708911 
L 252.486934 218.708911 
L 252.530827 217.112079 
L 252.601376 217.112079 
L 252.692046 213.918416 
L 252.856489 213.918416 
L 252.907408 212.321584 
L 253.032482 212.321584 
L 253.047055 210.724752 
L 253.17642 210.724752 
L 253.194571 209.127921 
L 253.417531 209.127921 
L 253.513946 206.732673 
L 253.597071 206.732673 
L 253.597071 205.934257 
L 253.895346 205.934257 
L 253.992467 204.337426 
L 254.172613 204.337426 
L 254.232332 202.740594 
L 254.433736 202.740594 
L 254.433736 201.942178 
L 254.572981 201.942178 
L 254.590566 199.546931 
L 254.706429 199.546931 
L 254.706429 198.748515 
L 254.904881 198.748515 
L 254.904881 197.950099 
L 255.307164 197.950099 
L 255.307164 197.151683 
L 255.677247 197.151683 
L 255.769183 194.756436 
L 255.892644 194.756436 
L 255.892644 193.95802 
L 256.021952 193.95802 
L 256.084649 192.361188 
L 256.142663 192.361188 
L 256.142663 191.562772 
L 256.285032 191.562772 
L 256.285032 190.764356 
L 256.686048 190.764356 
L 256.792203 187.570693 
L 257.277289 187.570693 
L 257.325244 185.175446 
L 257.701117 185.175446 
L 257.724394 183.578614 
L 257.946669 183.578614 
L 258.014586 181.981782 
L 258.078755 181.981782 
L 258.078755 181.183366 
L 258.485153 181.183366 
L 258.490225 179.586535 
L 258.626835 179.586535 
L 258.691686 177.989703 
L 258.877109 177.989703 
L 258.887336 176.392871 
L 259.010121 176.392871 
L 259.010121 175.594455 
L 259.269892 175.594455 
L 259.269892 174.79604 
L 259.481228 174.79604 
L 259.579497 171.602376 
L 259.682032 171.602376 
L 259.682032 170.80396 
L 259.862689 170.80396 
L 259.862689 170.005545 
L 260.546865 170.005545 
L 260.655436 167.610297 
L 260.91656 167.610297 
L 260.936524 166.013465 
L 261.041416 166.013465 
L 261.041416 165.21505 
L 261.182168 165.21505 
L 261.182168 164.416634 
L 261.777617 164.416634 
L 261.777617 163.618218 
L 261.90722 163.618218 
L 261.90722 162.819802 
L 262.037137 162.819802 
L 262.037137 162.021386 
L 262.500809 162.021386 
L 262.513809 160.424554 
L 262.783778 160.424554 
L 262.783778 159.626139 
L 262.949847 159.626139 
L 262.949847 158.827723 
L 263.125737 158.827723 
L 263.172118 157.230891 
L 263.32007 157.230891 
L 263.355685 155.634059 
L 263.593665 155.634059 
L 263.593665 154.835644 
L 263.760748 154.835644 
L 263.760748 154.037228 
L 264.012319 154.037228 
L 264.012319 153.238812 
L 264.355452 153.238812 
L 264.357916 151.64198 
L 264.605872 151.64198 
L 264.605872 150.843564 
L 264.779914 150.843564 
L 264.779914 150.045149 
L 265.313899 150.045149 
L 265.313899 149.246733 
L 265.767803 149.246733 
L 265.858929 146.851485 
L 266.10291 146.851485 
L 266.10291 146.053069 
L 266.393329 146.053069 
L 266.486366 144.456238 
L 266.526495 144.456238 
L 266.526495 143.657822 
L 266.984251 143.657822 
L 267.020949 142.06099 
L 267.1085 142.06099 
L 267.1085 141.262574 
L 267.460035 141.262574 
L 267.46708 139.665743 
L 267.580637 139.665743 
L 267.635417 137.270495 
L 267.841253 137.270495 
L 267.853853 135.673663 
L 267.96333 135.673663 
L 267.96333 134.875248 
L 268.278883 134.875248 
L 268.386402 132.48 
L 268.831941 132.48 
L 268.831941 131.681584 
L 268.959941 131.681584 
L 268.959941 130.883168 
L 269.522032 130.883168 
L 269.522032 130.084752 
L 269.728458 130.084752 
L 269.728458 129.286337 
L 270.349182 129.286337 
L 270.349182 128.487921 
L 270.617386 128.487921 
L 270.617386 127.689505 
L 271.891487 127.689505 
L 271.891487 126.891089 
L 272.52667 126.891089 
L 272.52667 126.092673 
L 272.670291 126.092673 
L 272.670291 125.294257 
L 272.947555 125.294257 
L 272.947555 124.495842 
L 273.067194 124.495842 
L 273.067194 123.697426 
L 273.670033 123.697426 
L 273.721178 122.100594 
L 273.79193 122.100594 
L 273.848419 120.503762 
L 274.074196 120.503762 
L 274.074196 119.705347 
L 275.743523 119.705347 
L 275.743523 118.906931 
L 275.908193 118.906931 
L 275.908193 118.108515 
L 276.424894 118.108515 
L 276.424894 117.310099 
L 276.57216 117.310099 
L 276.664404 115.713267 
L 276.771976 115.713267 
L 276.771976 114.914851 
L 277.103025 114.914851 
L 277.103025 114.116436 
L 277.961837 114.116436 
L 277.961837 113.31802 
L 279.397177 113.31802 
L 279.397177 112.519604 
L 280.935632 112.519604 
L 280.935632 111.721188 
L 281.322856 111.721188 
L 281.415707 110.124356 
L 282.027485 110.124356 
L 282.130694 108.527525 
L 283.113103 108.527525 
L 283.113103 107.729109 
L 284.904949 107.729109 
L 284.904949 106.930693 
L 285.793954 106.930693 
L 285.793954 106.132277 
L 286.479578 106.132277 
L 286.56429 104.535446 
L 286.708785 104.535446 
L 286.748712 102.938614 
L 286.887302 102.938614 
L 286.887302 102.140198 
L 287.54216 102.140198 
L 287.54216 101.341782 
L 288.048533 101.341782 
L 288.075415 99.74495 
L 289.481558 99.74495 
L 289.481558 98.946535 
L 290.1657 98.946535 
L 290.1657 98.148119 
L 290.405493 98.148119 
L 290.405493 97.349703 
L 290.78411 97.349703 
L 290.78411 96.551287 
L 291.017777 96.551287 
L 291.017777 95.752871 
L 291.135604 95.752871 
L 291.135604 94.954455 
L 291.584456 94.954455 
L 291.584456 94.15604 
L 292.002151 94.15604 
L 292.060483 92.559208 
L 292.733754 92.559208 
L 292.733754 91.760792 
L 293.060868 91.760792 
L 293.060868 90.962376 
L 294.294059 90.962376 
L 294.294059 90.16396 
L 295.367468 90.16396 
L 295.367468 89.365545 
L 295.802161 89.365545 
L 295.802161 88.567129 
L 296.514302 88.567129 
L 296.514302 87.768713 
L 297.829489 87.768713 
L 297.829489 86.970297 
L 299.124034 86.970297 
L 299.124034 86.171881 
L 299.861468 86.171881 
L 299.861468 85.373465 
L 301.834562 85.373465 
L 301.834562 84.57505 
L 304.314772 84.57505 
L 304.314772 83.776634 
L 305.325301 83.776634 
L 305.325301 82.978218 
L 307.024602 82.978218 
L 307.024602 82.179802 
L 308.704226 82.179802 
L 308.704226 81.381386 
L 310.445978 81.381386 
L 310.445978 80.58297 
L 310.618464 80.58297 
L 310.618464 79.784554 
L 310.889131 79.784554 
L 310.889131 78.986139 
L 311.120618 78.986139 
L 311.120618 78.187723 
L 313.472209 78.187723 
L 313.472209 77.389307 
L 313.755482 77.389307 
L 313.755482 76.590891 
L 314.388929 76.590891 
L 314.388929 75.792475 
L 314.739819 75.792475 
L 314.739819 74.994059 
L 315.20355 74.994059 
L 315.288578 73.397228 
L 315.619211 73.397228 
L 315.619211 72.598812 
L 317.296616 72.598812 
L 317.296616 71.800396 
L 318.062135 71.800396 
L 318.062135 71.00198 
L 318.511189 71.00198 
L 318.511189 70.203564 
L 319.611178 70.203564 
L 319.611178 69.405149 
L 320.792069 69.405149 
L 320.792069 68.606733 
L 321.29187 68.606733 
L 321.29187 67.808317 
L 321.488517 67.808317 
L 321.488517 67.009901 
L 321.873023 67.009901 
L 321.873023 66.211485 
L 322.77314 66.211485 
L 322.77314 65.413069 
L 323.421678 65.413069 
L 323.492439 63.816238 
L 323.803299 63.816238 
L 323.803299 63.017822 
L 324.053557 63.017822 
L 324.053557 62.219406 
L 324.273965 62.219406 
L 324.273965 61.42099 
L 324.414347 61.42099 
L 324.414347 60.622574 
L 325.934303 60.622574 
L 325.934303 59.824158 
L 326.302572 59.824158 
L 326.302572 59.025743 
L 327.194297 59.025743 
L 327.194297 58.227327 
L 330.115882 58.227327 
L 330.115882 57.428911 
L 331.44414 57.428911 
L 331.44414 56.630495 
L 331.782742 56.630495 
L 331.882216 55.033663 
L 332.810415 55.033663 
L 332.810415 54.235248 
L 333.041774 54.235248 
L 333.041774 53.436832 
L 333.397527 53.436832 
L 333.397527 52.638416 
L 337.36571 52.638416 
L 337.36571 51.84 
L 339.571427 51.84 
L 339.571427 51.041584 
L 340.115312 51.041584 
L 340.115312 50.243168 
L 341.011646 50.243168 
L 341.0143 48.646337 
L 342.558113 48.646337 
L 342.656167 47.049505 
L 345.597722 47.049505 
L 345.597722 46.251089 
L 345.939526 46.251089 
L 345.939526 45.452673 
L 346.480839 45.452673 
L 346.480839 44.654257 
L 346.877751 44.654257 
L 346.962753 42.25901 
L 349.240208 42.25901 
L 349.240208 41.460594 
L 350.676571 41.460594 
L 350.676571 40.662178 
L 354.258261 40.662178 
L 354.258261 39.863762 
L 354.824846 39.863762 
L 354.824846 39.065347 
L 358.11941 39.065347 
L 358.11941 38.266931 
L 358.332481 38.266931 
L 358.332481 37.468515 
L 358.780757 37.468515 
L 358.780757 36.670099 
L 360.875469 36.670099 
L 360.875469 35.871683 
L 361.477766 35.871683 
L 361.477766 35.073267 
L 362.52683 35.073267 
L 362.609393 33.476436 
L 362.6989 33.476436 
L 362.6989 32.67802 
L 363.298358 32.67802 
L 363.298358 31.879604 
L 363.832282 31.879604 
L 363.832282 31.081188 
L 364.953843 31.081188 
L 364.995627 29.484356 
L 365.819365 29.484356 
L 365.819365 28.685941 
L 366.816165 28.685941 
L 366.861937 26.290693 
L 367.129383 26.290693 
L 367.129383 25.492277 
L 369.066388 25.492277 
L 369.066388 24.693861 
L 369.92722 24.693861 
L 369.92722 23.895446 
L 372.396 23.895446 
L 372.396 23.09703 
L 379.229987 23.09703 
L 379.229987 22.298614 
L 380.642956 22.298614 
L 380.642956 21.500198 
L 381.840785 21.500198 
L 381.840785 20.701782 
L 382.442847 20.701782 
L 382.442847 19.903366 
L 384.09019 19.903366 
L 384.09019 19.10495 
L 384.243833 19.10495 
L 384.243833 18.306535 
L 384.898554 18.306535 
L 384.898554 17.508119 
L 387.144572 17.508119 
L 387.144572 16.709703 
L 394.775175 16.709703 
L 394.775175 15.911287 
L 395.29743 15.911287 
L 395.29743 15.112871 
L 400.144704 15.112871 
L 400.18457 13.51604 
L 403.897292 13.51604 
L 403.897292 12.717624 
L 404.360783 12.717624 
L 404.360783 11.919208 
L 405.143532 11.919208 
L 405.143532 11.120792 
L 405.330884 11.120792 
L 405.330884 10.322376 
L 407.687193 10.322376 
L 407.687193 9.52396 
L 409.578165 9.52396 
L 409.578165 8.725545 
L 412.246217 8.725545 
L 412.264128 7.128713 
L 413.630053 7.128713 
L 413.630053 6.330297 
L 413.630053 6.330297 
L 460.8 6.330297 
L 460.8 6.330297 
" style="fill:none;stroke:#ff0000;stroke-linecap:square;stroke-width:3;"/>
   </g>
   <g id="line2d_22">
    <path clip-path="url(#p736b325f77)" d="M 228.067767 293.76 
L 228.067767 292.961584 
L 232.523573 292.961584 
L 232.523573 292.163168 
L 232.961138 292.163168 
L 232.961138 291.364752 
L 233.9008 291.364752 
L 233.9008 290.566337 
L 234.423973 290.566337 
L 234.423973 289.767921 
L 234.747732 289.767921 
L 234.747732 288.969505 
L 235.047713 288.969505 
L 235.047713 288.171089 
L 235.864536 288.171089 
L 235.864536 287.372673 
L 237.057289 287.372673 
L 237.057289 286.574257 
L 237.383655 286.574257 
L 237.383655 285.775842 
L 237.771371 285.775842 
L 237.771371 284.977426 
L 238.410616 284.977426 
L 238.410616 284.17901 
L 238.579031 284.17901 
L 238.579031 283.380594 
L 239.956786 283.380594 
L 239.956786 282.582178 
L 240.41389 282.582178 
L 240.41389 281.783762 
L 241.083001 281.783762 
L 241.083001 280.985347 
L 241.333874 280.985347 
L 241.333874 280.186931 
L 242.115104 280.186931 
L 242.115104 279.388515 
L 242.461921 279.388515 
L 242.461921 278.590099 
L 242.852309 278.590099 
L 242.861383 276.993267 
L 243.182188 276.993267 
L 243.182188 276.194851 
L 243.592957 276.194851 
L 243.656704 274.59802 
L 243.799432 274.59802 
L 243.799432 273.799604 
L 244.03924 273.799604 
L 244.03924 273.001188 
L 245.218333 273.001188 
L 245.218333 272.202772 
L 245.375649 272.202772 
L 245.380542 270.605941 
L 245.659101 270.605941 
L 245.659101 269.807525 
L 246.11498 269.807525 
L 246.11498 269.009109 
L 246.859191 269.009109 
L 246.859191 268.210693 
L 247.402688 268.210693 
L 247.402688 267.412277 
L 247.758258 267.412277 
L 247.758258 266.613861 
L 247.958493 266.613861 
L 247.958684 265.01703 
L 248.101456 265.01703 
L 248.163363 262.621782 
L 248.280087 262.621782 
L 248.32807 261.02495 
L 248.456197 261.02495 
L 248.456197 260.226535 
L 248.703621 260.226535 
L 248.703621 259.428119 
L 249.297599 259.428119 
L 249.297599 258.629703 
L 249.501409 258.629703 
L 249.501409 257.831287 
L 249.802466 257.831287 
L 249.802466 257.032871 
L 250.170545 257.032871 
L 250.170545 256.234455 
L 250.428573 256.234455 
L 250.428573 255.43604 
L 250.701123 255.43604 
L 250.701123 254.637624 
L 250.863479 254.637624 
L 250.863479 253.839208 
L 251.086205 253.839208 
L 251.086205 253.040792 
L 251.208062 253.040792 
L 251.293717 251.44396 
L 251.446102 251.44396 
L 251.446102 250.645545 
L 252.132545 250.645545 
L 252.132545 249.847129 
L 252.249359 249.847129 
L 252.249359 249.048713 
L 252.530827 249.048713 
L 252.530827 248.250297 
L 252.788808 248.250297 
L 252.788808 247.451881 
L 252.921865 247.451881 
L 252.940213 245.85505 
L 253.17642 245.85505 
L 253.17642 245.056634 
L 253.513946 245.056634 
L 253.599811 243.459802 
L 253.633477 243.459802 
L 253.633477 242.661386 
L 253.895346 242.661386 
L 253.895346 241.86297 
L 254.027758 241.86297 
L 254.027758 241.064554 
L 254.572981 241.064554 
L 254.572981 240.266139 
L 254.706429 240.266139 
L 254.706429 239.467723 
L 254.928549 239.467723 
L 254.928549 238.669307 
L 255.492948 238.669307 
L 255.492948 237.870891 
L 255.677247 237.870891 
L 255.677247 237.072475 
L 256.68067 237.072475 
L 256.778918 234.677228 
L 257.181247 234.677228 
L 257.181247 233.878812 
L 257.370437 233.878812 
L 257.451962 232.28198 
L 257.601505 232.28198 
L 257.601505 231.483564 
L 257.721919 231.483564 
L 257.799833 229.088317 
L 257.956354 229.088317 
L 258.014586 227.491485 
L 258.431799 227.491485 
L 258.491525 225.894653 
L 258.623265 225.894653 
L 258.623265 225.096238 
L 259.029369 225.096238 
L 259.070201 222.70099 
L 259.269892 222.70099 
L 259.269892 221.902574 
L 259.417041 221.902574 
L 259.505226 220.305743 
L 259.558891 220.305743 
L 259.558891 219.507327 
L 259.950385 219.507327 
L 260.034625 217.910495 
L 260.286119 217.910495 
L 260.38781 213.918416 
L 260.401132 213.918416 
L 260.456502 210.724752 
L 260.558185 210.724752 
L 260.655436 209.127921 
L 260.795616 209.127921 
L 260.890793 207.531089 
L 261.013019 207.531089 
L 261.041416 205.934257 
L 261.142235 205.934257 
L 261.239478 204.337426 
L 261.304911 204.337426 
L 261.305569 202.740594 
L 261.525601 202.740594 
L 261.525601 201.942178 
L 261.840219 201.942178 
L 261.874025 200.345347 
L 261.955333 200.345347 
L 261.955333 199.546931 
L 262.345521 199.546931 
L 262.429258 197.950099 
L 262.500809 197.950099 
L 262.500809 197.151683 
L 262.622717 197.151683 
L 262.622717 196.353267 
L 262.748831 196.353267 
L 262.748831 195.554851 
L 262.991441 195.554851 
L 263.069767 193.95802 
L 263.108206 193.95802 
L 263.108206 193.159604 
L 263.346845 193.159604 
L 263.442518 190.764356 
L 263.57992 190.764356 
L 263.57992 189.965941 
L 263.914922 189.965941 
L 264.005124 187.570693 
L 264.079497 187.570693 
L 264.079497 186.772277 
L 264.325197 186.772277 
L 264.358839 185.175446 
L 264.822828 185.175446 
L 264.858848 183.578614 
L 265.120934 183.578614 
L 265.140763 181.981782 
L 265.419698 181.981782 
L 265.419698 181.183366 
L 265.661225 181.183366 
L 265.661225 180.38495 
L 265.873955 180.38495 
L 265.980713 178.788119 
L 266.183134 178.788119 
L 266.183134 177.989703 
L 266.407046 177.989703 
L 266.407046 177.191287 
L 266.996844 177.191287 
L 266.996844 176.392871 
L 267.1085 176.392871 
L 267.1085 175.594455 
L 267.678183 175.594455 
L 267.720434 173.997624 
L 268.18633 173.997624 
L 268.217822 172.400792 
L 268.41229 172.400792 
L 268.41229 171.602376 
L 268.548942 171.602376 
L 268.548942 170.80396 
L 268.762339 170.80396 
L 268.831941 168.408713 
L 268.93671 168.408713 
L 269.006276 166.811881 
L 269.234901 166.811881 
L 269.275237 165.21505 
L 269.463228 165.21505 
L 269.463228 164.416634 
L 269.617373 164.416634 
L 269.728458 162.819802 
L 269.787244 162.819802 
L 269.787244 162.021386 
L 270.099586 162.021386 
L 270.099586 161.22297 
L 270.27441 161.22297 
L 270.349182 159.626139 
L 270.411804 159.626139 
L 270.517468 158.029307 
L 270.541434 158.029307 
L 270.541947 156.432475 
L 271.359862 156.432475 
L 271.359862 155.634059 
L 271.840365 155.634059 
L 271.840365 154.835644 
L 272.161522 154.835644 
L 272.161522 154.037228 
L 272.432524 154.037228 
L 272.432524 153.238812 
L 272.626277 153.238812 
L 272.626277 152.440396 
L 272.90434 152.440396 
L 272.90434 151.64198 
L 273.698918 151.64198 
L 273.79193 149.246733 
L 275.450171 149.246733 
L 275.450171 148.448317 
L 275.581795 148.448317 
L 275.599783 146.851485 
L 276.02946 146.851485 
L 276.02946 146.053069 
L 276.19721 146.053069 
L 276.19721 145.254653 
L 276.464663 145.254653 
L 276.464663 144.456238 
L 276.583351 144.456238 
L 276.583351 143.657822 
L 276.82859 143.657822 
L 276.82859 142.859406 
L 277.696816 142.859406 
L 277.696816 142.06099 
L 277.848003 142.06099 
L 277.848003 141.262574 
L 277.961837 141.262574 
L 277.961837 140.464158 
L 278.464622 140.464158 
L 278.464622 139.665743 
L 278.671013 139.665743 
L 278.671013 138.867327 
L 278.972578 138.867327 
L 278.972578 138.068911 
L 279.311766 138.068911 
L 279.343449 136.472079 
L 279.738644 136.472079 
L 279.738644 135.673663 
L 280.032786 135.673663 
L 280.032786 134.875248 
L 280.716921 134.875248 
L 280.716921 134.076832 
L 280.912556 134.076832 
L 280.950216 131.681584 
L 281.536845 131.681584 
L 281.536845 130.883168 
L 281.918598 130.883168 
L 281.918598 130.084752 
L 282.32543 130.084752 
L 282.32543 129.286337 
L 282.783486 129.286337 
L 282.783486 128.487921 
L 282.954247 128.487921 
L 282.954247 127.689505 
L 283.085964 127.689505 
L 283.085964 126.891089 
L 283.622023 126.891089 
L 283.709517 125.294257 
L 283.885497 125.294257 
L 283.94311 123.697426 
L 284.056605 123.697426 
L 284.056605 122.89901 
L 284.171309 122.89901 
L 284.171309 122.100594 
L 286.033799 122.100594 
L 286.033799 121.302178 
L 286.485626 121.302178 
L 286.485626 120.503762 
L 286.910461 120.503762 
L 286.910461 119.705347 
L 289.263308 119.705347 
L 289.344206 118.108515 
L 289.481558 118.108515 
L 289.481558 117.310099 
L 290.565417 117.310099 
L 290.565417 116.511683 
L 290.834763 116.511683 
L 290.834763 115.713267 
L 291.017777 115.713267 
L 291.017777 114.914851 
L 291.152619 114.914851 
L 291.152619 114.116436 
L 291.584041 114.116436 
L 291.658008 111.721188 
L 291.851635 111.721188 
L 291.851635 110.922772 
L 292.723428 110.922772 
L 292.723428 110.124356 
L 293.960027 110.124356 
L 293.960027 109.325941 
L 295.564852 109.325941 
L 295.675769 106.930693 
L 296.461563 106.930693 
L 296.461563 106.132277 
L 296.825554 106.132277 
L 296.825554 105.333861 
L 297.126124 105.333861 
L 297.126124 104.535446 
L 298.052618 104.535446 
L 298.052618 103.73703 
L 298.402318 103.73703 
L 298.402318 102.938614 
L 298.526085 102.938614 
L 298.526085 102.140198 
L 298.742654 102.140198 
L 298.742654 101.341782 
L 300.555633 101.341782 
L 300.555633 100.543366 
L 303.021422 100.543366 
L 303.021422 99.74495 
L 307.024602 99.74495 
L 307.024602 98.946535 
L 307.965937 98.946535 
L 307.965937 98.148119 
L 308.704226 98.148119 
L 308.704226 97.349703 
L 310.889131 97.349703 
L 310.889131 96.551287 
L 313.755482 96.551287 
L 313.755482 95.752871 
L 314.807029 95.752871 
L 314.807029 94.954455 
L 317.611301 94.954455 
L 317.611301 94.15604 
L 318.186175 94.15604 
L 318.186175 93.357624 
L 320.729453 93.357624 
L 320.729453 92.559208 
L 321.573625 92.559208 
L 321.573625 91.760792 
L 323.492439 91.760792 
L 323.492439 90.962376 
L 323.949705 90.962376 
L 323.949705 90.16396 
L 324.414347 90.16396 
L 324.414347 89.365545 
L 324.715212 89.365545 
L 324.715212 88.567129 
L 324.885168 88.567129 
L 324.885168 87.768713 
L 325.792456 87.768713 
L 325.792456 86.970297 
L 326.677299 86.970297 
L 326.677299 86.171881 
L 326.994 86.171881 
L 326.994 85.373465 
L 327.203837 85.373465 
L 327.203837 84.57505 
L 327.570637 84.57505 
L 327.570637 83.776634 
L 328.953352 83.776634 
L 329.056784 82.179802 
L 329.349416 82.179802 
L 329.349416 81.381386 
L 329.726591 81.381386 
L 329.726591 80.58297 
L 331.105943 80.58297 
L 331.105943 79.784554 
L 331.263041 79.784554 
L 331.263041 78.986139 
L 331.519636 78.986139 
L 331.519636 78.187723 
L 332.099447 78.187723 
L 332.099447 77.389307 
L 332.312593 77.389307 
L 332.377241 75.792475 
L 332.70906 75.792475 
L 332.70906 74.994059 
L 333.397527 74.994059 
L 333.422048 73.397228 
L 334.016616 73.397228 
L 334.016616 72.598812 
L 334.72904 72.598812 
L 334.737387 71.00198 
L 335.454845 71.00198 
L 335.454845 70.203564 
L 335.790541 70.203564 
L 335.790541 69.405149 
L 335.909991 69.405149 
L 335.969383 67.808317 
L 336.527958 67.808317 
L 336.527958 67.009901 
L 336.680577 67.009901 
L 336.680577 66.211485 
L 337.691802 66.211485 
L 337.691802 65.413069 
L 339.085189 65.413069 
L 339.085189 64.614653 
L 339.571427 64.614653 
L 339.571427 63.816238 
L 340.115312 63.816238 
L 340.115312 63.017822 
L 340.343213 63.017822 
L 340.343213 62.219406 
L 340.892921 62.219406 
L 340.892921 61.42099 
L 342.078015 61.42099 
L 342.078015 60.622574 
L 342.376661 60.622574 
L 342.376661 59.824158 
L 342.558113 59.824158 
L 342.558113 59.025743 
L 343.700505 59.025743 
L 343.700505 58.227327 
L 346.051199 58.227327 
L 346.051199 57.428911 
L 346.480839 57.428911 
L 346.480839 56.630495 
L 346.733638 56.630495 
L 346.733638 55.832079 
L 349.240208 55.832079 
L 349.240208 55.033663 
L 350.246371 55.033663 
L 350.246371 54.235248 
L 352.489418 54.235248 
L 352.489418 53.436832 
L 354.638728 53.436832 
L 354.638728 52.638416 
L 354.869625 52.638416 
L 354.869625 51.84 
L 355.363878 51.84 
L 355.363878 51.041584 
L 356.048858 51.041584 
L 356.048858 50.243168 
L 358.332481 50.243168 
L 358.332481 49.444752 
L 359.578414 49.444752 
L 359.578414 48.646337 
L 361.477766 48.646337 
L 361.477766 47.847921 
L 361.750933 47.847921 
L 361.750933 47.049505 
L 364.952632 47.049505 
L 364.952632 46.251089 
L 366.297695 46.251089 
L 366.297695 45.452673 
L 366.999748 45.452673 
L 366.999748 44.654257 
L 367.624491 44.654257 
L 367.624491 43.855842 
L 369.92722 43.855842 
L 369.92722 43.057426 
L 373.217857 43.057426 
L 373.217857 42.25901 
L 376.048807 42.25901 
L 376.048807 41.460594 
L 376.876228 41.460594 
L 376.876228 40.662178 
L 378.228676 40.662178 
L 378.228676 39.863762 
L 378.423989 39.863762 
L 378.423989 39.065347 
L 379.229987 39.065347 
L 379.229987 38.266931 
L 381.048699 38.266931 
L 381.048699 37.468515 
L 382.442847 37.468515 
L 382.442847 36.670099 
L 382.847222 36.670099 
L 382.847222 35.871683 
L 383.560856 35.871683 
L 383.560856 35.073267 
L 383.863399 35.073267 
L 383.863399 34.274851 
L 384.243833 34.274851 
L 384.243833 33.476436 
L 384.461748 33.476436 
L 384.461748 32.67802 
L 385.501852 32.67802 
L 385.501852 31.879604 
L 387.57199 31.879604 
L 387.57199 31.081188 
L 389.287145 31.081188 
L 389.337846 29.484356 
L 389.508285 29.484356 
L 389.508285 28.685941 
L 389.7212 28.685941 
L 389.7212 27.887525 
L 390.722161 27.887525 
L 390.722161 27.089109 
L 395.07198 27.089109 
L 395.07198 26.290693 
L 395.20559 26.290693 
L 395.20559 25.492277 
L 399.823611 25.492277 
L 399.823611 24.693861 
L 400.369317 24.693861 
L 400.407425 23.09703 
L 402.405637 23.09703 
L 402.405637 22.298614 
L 403.380406 22.298614 
L 403.380406 21.500198 
L 404.128358 21.500198 
L 404.128358 20.701782 
L 406.56253 20.701782 
L 406.56253 19.903366 
L 407.15356 19.903366 
L 407.15356 19.10495 
L 407.940662 19.10495 
L 407.940662 18.306535 
L 409.099791 18.306535 
L 409.099791 17.508119 
L 410.357674 17.508119 
L 410.357674 16.709703 
L 410.66029 16.709703 
L 410.66029 15.911287 
L 410.974544 15.911287 
L 410.974544 15.112871 
L 411.533393 15.112871 
L 411.533393 14.314455 
L 413.061927 14.314455 
L 413.061927 13.51604 
L 414.518225 13.51604 
L 414.518225 12.717624 
L 415.883595 12.717624 
L 415.883595 11.919208 
L 417.974413 11.919208 
L 417.974413 11.120792 
L 425.033192 11.120792 
L 425.033192 10.322376 
L 430.124736 10.322376 
L 430.124736 9.52396 
L 430.64086 9.52396 
L 430.64086 8.725545 
L 433.057838 8.725545 
L 433.057838 7.927129 
L 434.725662 7.927129 
L 434.725662 7.128713 
L 449.482188 7.128713 
L 449.482188 6.330297 
L 449.482188 6.330297 
L 460.8 6.330297 
L 460.8 6.330297 
" style="fill:none;stroke:#00bfbf;stroke-linecap:square;stroke-width:1.5;"/>
   </g>
   <g id="line2d_23">
    <path clip-path="url(#p736b325f77)" d="M 228.067767 293.76 
L 228.067767 292.961584 
L 228.405407 292.961584 
L 228.405407 292.163168 
L 232.523573 292.163168 
L 232.523573 291.364752 
L 232.961138 291.364752 
L 232.961138 290.566337 
L 233.9008 290.566337 
L 233.9008 289.767921 
L 234.09289 289.767921 
L 234.09289 288.969505 
L 234.423973 288.969505 
L 234.423973 288.171089 
L 234.747732 288.171089 
L 234.747732 287.372673 
L 235.016247 287.372673 
L 235.047713 285.775842 
L 235.29049 285.775842 
L 235.29049 284.977426 
L 235.519848 284.977426 
L 235.519848 284.17901 
L 235.864536 284.17901 
L 235.864536 283.380594 
L 236.550495 283.380594 
L 236.550495 282.582178 
L 237.057289 282.582178 
L 237.057289 281.783762 
L 237.297976 281.783762 
L 237.297976 280.985347 
L 237.771371 280.985347 
L 237.771371 280.186931 
L 238.178116 280.186931 
L 238.263399 278.590099 
L 238.579031 278.590099 
L 238.667637 276.993267 
L 238.897851 276.993267 
L 238.897851 276.194851 
L 239.235386 276.194851 
L 239.235386 275.396436 
L 239.530972 275.396436 
L 239.530972 274.59802 
L 239.887815 274.59802 
L 239.887815 273.799604 
L 240.41389 273.799604 
L 240.480032 272.202772 
L 240.636975 272.202772 
L 240.636975 271.404356 
L 240.824444 271.404356 
L 240.824444 270.605941 
L 241.083001 270.605941 
L 241.083001 269.807525 
L 241.301623 269.807525 
L 241.301623 269.009109 
L 241.839724 269.009109 
L 241.839724 268.210693 
L 242.090816 268.210693 
L 242.090816 267.412277 
L 242.267879 267.412277 
L 242.267879 266.613861 
L 242.461921 266.613861 
L 242.548712 265.01703 
L 242.785469 265.01703 
L 242.852309 263.420198 
L 242.953541 263.420198 
L 242.953541 262.621782 
L 243.447187 262.621782 
L 243.447187 261.823366 
L 243.656704 261.823366 
L 243.656704 261.02495 
L 244.007875 261.02495 
L 244.09954 257.032871 
L 244.752078 257.032871 
L 244.752078 256.234455 
L 245.118638 256.234455 
L 245.197072 254.637624 
L 245.375649 254.637624 
L 245.380542 253.040792 
L 245.534688 253.040792 
L 245.534688 252.242376 
L 245.684514 252.242376 
L 245.684514 251.44396 
L 246.528958 251.44396 
L 246.584831 249.847129 
L 246.772552 249.847129 
L 246.772552 249.048713 
L 247.402688 249.048713 
L 247.402688 248.250297 
L 247.566084 248.250297 
L 247.623537 246.653465 
L 247.797609 246.653465 
L 247.797609 245.85505 
L 247.958493 245.85505 
L 247.958684 244.258218 
L 248.32807 244.258218 
L 248.344879 242.661386 
L 248.456197 242.661386 
L 248.456197 241.86297 
L 248.624641 241.86297 
L 248.624641 241.064554 
L 248.798828 241.064554 
L 248.798828 240.266139 
L 249.012428 240.266139 
L 249.04624 238.669307 
L 249.328885 238.669307 
L 249.328885 237.870891 
L 250.012077 237.870891 
L 250.012077 237.072475 
L 250.170545 237.072475 
L 250.170545 236.274059 
L 250.428573 236.274059 
L 250.428573 235.475644 
L 250.701123 235.475644 
L 250.701123 234.677228 
L 251.208062 234.677228 
L 251.208062 233.878812 
L 251.446102 233.878812 
L 251.446102 233.080396 
L 251.819653 233.080396 
L 251.819653 232.28198 
L 252.249359 232.28198 
L 252.249359 231.483564 
L 252.530827 231.483564 
L 252.601376 229.886733 
L 252.736872 229.886733 
L 252.836186 228.289901 
L 252.856489 228.289901 
L 252.907408 226.693069 
L 253.032482 226.693069 
L 253.032482 225.894653 
L 253.17642 225.894653 
L 253.194571 224.297822 
L 253.365662 224.297822 
L 253.365662 223.499406 
L 253.513946 223.499406 
L 253.599811 221.104158 
L 253.895346 221.104158 
L 253.895346 220.305743 
L 254.172613 220.305743 
L 254.172613 219.507327 
L 254.295728 219.507327 
L 254.295728 218.708911 
L 254.433736 218.708911 
L 254.433736 217.910495 
L 254.572981 217.910495 
L 254.572981 217.112079 
L 254.706429 217.112079 
L 254.706429 216.313663 
L 255.307164 216.313663 
L 255.307164 215.515248 
L 255.677247 215.515248 
L 255.769183 213.918416 
L 255.839852 213.918416 
L 255.892644 212.321584 
L 256.142663 212.321584 
L 256.142663 211.523168 
L 256.285032 211.523168 
L 256.384776 209.926337 
L 256.42741 209.926337 
L 256.42741 209.127921 
L 256.558473 209.127921 
L 256.558473 208.329505 
L 256.682704 208.329505 
L 256.778918 205.135842 
L 257.290003 205.135842 
L 257.325244 203.53901 
L 257.40905 203.53901 
L 257.451104 201.942178 
L 257.701117 201.942178 
L 257.701117 201.143762 
L 257.946669 201.143762 
L 258.014586 199.546931 
L 258.32008 199.546931 
L 258.320228 197.950099 
L 258.431799 197.950099 
L 258.490225 195.554851 
L 258.995158 195.554851 
L 259.049892 191.562772 
L 259.269892 191.562772 
L 259.269892 190.764356 
L 259.481228 190.764356 
L 259.558891 187.570693 
L 259.862689 187.570693 
L 259.950385 184.37703 
L 260.057281 184.37703 
L 260.096469 182.780198 
L 260.286119 182.780198 
L 260.38781 179.586535 
L 260.414606 179.586535 
L 260.414606 178.788119 
L 260.628255 178.788119 
L 260.655436 177.191287 
L 260.91656 177.191287 
L 260.936524 175.594455 
L 261.041416 175.594455 
L 261.041416 174.79604 
L 261.182168 174.79604 
L 261.182168 173.997624 
L 261.76335 173.997624 
L 261.874025 171.602376 
L 261.90722 171.602376 
L 261.90722 170.80396 
L 262.039587 170.80396 
L 262.039587 170.005545 
L 262.264023 170.005545 
L 262.270948 168.408713 
L 262.500809 168.408713 
L 262.605699 166.013465 
L 262.841187 166.013465 
L 262.949847 164.416634 
L 263.018152 164.416634 
L 263.018152 163.618218 
L 263.172118 163.618218 
L 263.172118 162.819802 
L 263.355685 162.819802 
L 263.355685 162.021386 
L 263.760748 162.021386 
L 263.760748 161.22297 
L 264.012319 161.22297 
L 264.012319 160.424554 
L 264.325197 160.424554 
L 264.357916 158.029307 
L 264.605872 158.029307 
L 264.605872 157.230891 
L 264.779914 157.230891 
L 264.781952 155.634059 
L 265.313899 155.634059 
L 265.313899 154.835644 
L 265.78779 154.835644 
L 265.78779 154.037228 
L 266.10291 154.037228 
L 266.10291 153.238812 
L 266.393329 153.238812 
L 266.486366 150.843564 
L 266.695656 150.843564 
L 266.695656 150.045149 
L 266.984251 150.045149 
L 267.020949 148.448317 
L 267.1085 148.448317 
L 267.1085 147.649901 
L 267.586461 147.649901 
L 267.586461 146.851485 
L 267.841253 146.851485 
L 267.853853 145.254653 
L 268.217822 145.254653 
L 268.312477 142.859406 
L 268.386402 142.859406 
L 268.386402 142.06099 
L 268.831941 142.06099 
L 268.831941 141.262574 
L 268.959941 141.262574 
L 269.035964 139.665743 
L 269.40471 139.665743 
L 269.40471 138.867327 
L 269.522032 138.867327 
L 269.522032 138.068911 
L 269.728458 138.068911 
L 269.728458 137.270495 
L 269.995281 137.270495 
L 269.995281 136.472079 
L 270.349182 136.472079 
L 270.349182 135.673663 
L 271.089329 135.673663 
L 271.089329 134.875248 
L 271.324777 134.875248 
L 271.324777 134.076832 
L 271.891487 134.076832 
L 271.891487 133.278416 
L 272.670291 133.278416 
L 272.670291 132.48 
L 273.698918 132.48 
L 273.79193 130.084752 
L 273.848419 130.084752 
L 273.848419 129.286337 
L 274.134032 129.286337 
L 274.134032 128.487921 
L 274.576425 128.487921 
L 274.576425 127.689505 
L 275.908193 127.689505 
L 275.908193 126.891089 
L 276.03686 126.891089 
L 276.03686 126.092673 
L 276.254097 126.092673 
L 276.254097 125.294257 
L 276.433252 125.294257 
L 276.464663 123.697426 
L 276.57216 123.697426 
L 276.57216 122.89901 
L 277.961837 122.89901 
L 278.005206 121.302178 
L 278.144163 121.302178 
L 278.144163 120.503762 
L 278.270559 120.503762 
L 278.270559 119.705347 
L 279.035628 119.705347 
L 279.139724 118.108515 
L 280.841429 118.108515 
L 280.935632 116.511683 
L 281.114997 116.511683 
L 281.114997 115.713267 
L 282.066057 115.713267 
L 282.130694 114.116436 
L 283.113103 114.116436 
L 283.113103 113.31802 
L 283.660702 113.31802 
L 283.660702 112.519604 
L 284.171309 112.519604 
L 284.171309 111.721188 
L 284.904949 111.721188 
L 284.904949 110.922772 
L 286.210365 110.922772 
L 286.210365 110.124356 
L 286.479578 110.124356 
L 286.56429 108.527525 
L 286.708785 108.527525 
L 286.708785 107.729109 
L 287.54216 107.729109 
L 287.54216 106.930693 
L 287.676691 106.930693 
L 287.676691 106.132277 
L 289.089416 106.132277 
L 289.089416 105.333861 
L 289.481558 105.333861 
L 289.481558 104.535446 
L 291.017777 104.535446 
L 291.041317 102.938614 
L 291.135604 102.938614 
L 291.135604 102.140198 
L 291.584456 102.140198 
L 291.584456 101.341782 
L 292.002151 101.341782 
L 292.060483 99.74495 
L 292.666676 99.74495 
L 292.733754 98.148119 
L 293.060868 98.148119 
L 293.060868 97.349703 
L 294.294059 97.349703 
L 294.294059 96.551287 
L 294.58229 96.551287 
L 294.58229 95.752871 
L 294.988961 95.752871 
L 294.988961 94.954455 
L 295.564852 94.954455 
L 295.564852 94.15604 
L 295.802161 94.15604 
L 295.802161 93.357624 
L 299.124034 93.357624 
L 299.124034 92.559208 
L 303.871769 92.559208 
L 303.871769 91.760792 
L 304.314772 91.760792 
L 304.314772 90.962376 
L 305.325301 90.962376 
L 305.325301 90.16396 
L 307.000525 90.16396 
L 307.024602 88.567129 
L 308.704226 88.567129 
L 308.704226 87.768713 
L 310.618464 87.768713 
L 310.618464 86.970297 
L 310.736832 86.970297 
L 310.736832 86.171881 
L 310.889131 86.171881 
L 310.889131 85.373465 
L 311.120618 85.373465 
L 311.120618 84.57505 
L 313.472209 84.57505 
L 313.472209 83.776634 
L 313.755482 83.776634 
L 313.755482 82.978218 
L 314.388929 82.978218 
L 314.388929 82.179802 
L 315.288578 82.179802 
L 315.288578 81.381386 
L 315.619211 81.381386 
L 315.619211 80.58297 
L 317.611301 80.58297 
L 317.611301 79.784554 
L 318.511189 79.784554 
L 318.511189 78.986139 
L 320.210649 78.986139 
L 320.210649 78.187723 
L 320.792069 78.187723 
L 320.792069 77.389307 
L 321.573625 77.389307 
L 321.573625 76.590891 
L 321.873023 76.590891 
L 321.873023 75.792475 
L 323.492439 75.792475 
L 323.524408 74.195644 
L 323.803299 74.195644 
L 323.803299 73.397228 
L 324.237328 73.397228 
L 324.237328 72.598812 
L 324.414347 72.598812 
L 324.414347 71.800396 
L 324.568105 71.800396 
L 324.568105 71.00198 
L 324.715212 71.00198 
L 324.798735 69.405149 
L 325.792456 69.405149 
L 325.792456 68.606733 
L 325.934303 68.606733 
L 325.934303 67.808317 
L 326.574498 67.808317 
L 326.574498 67.009901 
L 327.35254 67.009901 
L 327.35254 66.211485 
L 329.056784 66.211485 
L 329.056784 65.413069 
L 329.726591 65.413069 
L 329.726591 64.614653 
L 330.084816 64.614653 
L 330.115882 63.017822 
L 331.105943 63.017822 
L 331.105943 62.219406 
L 331.44414 62.219406 
L 331.44414 61.42099 
L 331.882216 61.42099 
L 331.944738 59.025743 
L 332.377241 59.025743 
L 332.377241 58.227327 
L 332.630444 58.227327 
L 332.70906 56.630495 
L 332.810415 56.630495 
L 332.810415 55.832079 
L 333.397527 55.832079 
L 333.397527 55.033663 
L 339.571427 55.033663 
L 339.571427 54.235248 
L 340.115312 54.235248 
L 340.115312 53.436832 
L 342.558113 53.436832 
L 342.558113 52.638416 
L 344.467878 52.638416 
L 344.467878 51.84 
L 346.276242 51.84 
L 346.276242 51.041584 
L 346.480839 51.041584 
L 346.480839 50.243168 
L 346.733638 50.243168 
L 346.733638 49.444752 
L 346.877751 49.444752 
L 346.962753 47.049505 
L 349.240208 47.049505 
L 349.240208 46.251089 
L 352.235251 46.251089 
L 352.235251 45.452673 
L 352.489418 45.452673 
L 352.489418 44.654257 
L 353.583871 44.654257 
L 353.583871 43.855842 
L 354.824846 43.855842 
L 354.824846 43.057426 
L 356.145423 43.057426 
L 356.145423 42.25901 
L 358.052252 42.25901 
L 358.11941 40.662178 
L 358.332481 40.662178 
L 358.332481 39.863762 
L 358.780757 39.863762 
L 358.780757 39.065347 
L 360.875469 39.065347 
L 360.875469 38.266931 
L 361.477766 38.266931 
L 361.477766 37.468515 
L 362.609393 37.468515 
L 362.609393 36.670099 
L 362.894706 36.670099 
L 362.894706 35.871683 
L 363.423884 35.871683 
L 363.423884 35.073267 
L 363.832282 35.073267 
L 363.832282 34.274851 
L 365.819365 34.274851 
L 365.819365 33.476436 
L 366.816165 33.476436 
L 366.816165 32.67802 
L 367.631909 32.67802 
L 367.631909 31.879604 
L 369.066388 31.879604 
L 369.066388 31.081188 
L 369.92722 31.081188 
L 369.92722 30.282772 
L 371.666949 30.282772 
L 371.666949 29.484356 
L 376.048807 29.484356 
L 376.048807 28.685941 
L 376.876228 28.685941 
L 376.876228 27.887525 
L 377.390575 27.887525 
L 377.390575 27.089109 
L 379.229987 27.089109 
L 379.229987 26.290693 
L 380.591801 26.290693 
L 380.642956 24.693861 
L 381.955067 24.693861 
L 381.955067 23.895446 
L 382.442847 23.895446 
L 382.442847 23.09703 
L 382.908831 23.09703 
L 382.908831 22.298614 
L 384.243833 22.298614 
L 384.243833 21.500198 
L 384.461748 21.500198 
L 384.461748 20.701782 
L 387.144572 20.701782 
L 387.144572 19.903366 
L 388.670169 19.903366 
L 388.670169 19.10495 
L 390.692184 19.10495 
L 390.692184 18.306535 
L 391.187421 18.306535 
L 391.187421 17.508119 
L 395.29743 17.508119 
L 395.29743 16.709703 
L 403.380406 16.709703 
L 403.380406 15.911287 
L 404.360783 15.911287 
L 404.360783 15.112871 
L 405.143532 15.112871 
L 405.143532 14.314455 
L 407.109427 14.314455 
L 407.15356 12.717624 
L 407.687193 12.717624 
L 407.687193 11.919208 
L 409.578165 11.919208 
L 409.578165 11.120792 
L 410.66029 11.120792 
L 410.66029 10.322376 
L 410.974544 10.322376 
L 410.974544 9.52396 
L 412.246217 9.52396 
L 412.264128 7.927129 
L 419.055295 7.927129 
L 419.055295 7.128713 
L 425.293387 7.128713 
L 425.293387 6.330297 
L 425.293387 6.330297 
L 460.8 6.330297 
L 460.8 6.330297 
" style="fill:none;stroke:#bf00bf;stroke-linecap:square;stroke-width:1.5;"/>
   </g>
   <g id="patch_3">
    <path d="M 0 293.76 
L 0 3.456 
" style="fill:none;stroke:#000000;stroke-linecap:square;stroke-linejoin:miter;stroke-width:0.8;"/>
   </g>
   <g id="patch_4">
    <path d="M 460.8 293.76 
L 460.8 3.456 
" style="fill:none;stroke:#000000;stroke-linecap:square;stroke-linejoin:miter;stroke-width:0.8;"/>
   </g>
   <g id="patch_5">
    <path d="M 0 293.76 
L 460.8 293.76 
" style="fill:none;stroke:#000000;stroke-linecap:square;stroke-linejoin:miter;stroke-width:0.8;"/>
   </g>
   <g id="patch_6">
    <path d="M 0 3.456 
L 460.8 3.456 
" style="fill:none;stroke:#000000;stroke-linecap:square;stroke-linejoin:miter;stroke-width:0.8;"/>
   </g>
   <g id="text_6">
    <!-- {f1-f24}, 5-D -->
    <defs>
     <path d="M 51.125 -9.28125 
L 51.125 -16.3125 
L 48.09375 -16.3125 
Q 35.9375 -16.3125 31.8125 -12.6875 
Q 27.6875 -9.078125 27.6875 1.703125 
L 27.6875 13.375 
Q 27.6875 20.75 25.046875 23.578125 
Q 22.40625 26.421875 15.484375 26.421875 
L 12.5 26.421875 
L 12.5 33.40625 
L 15.484375 33.40625 
Q 22.46875 33.40625 25.078125 36.203125 
Q 27.6875 39.015625 27.6875 46.296875 
L 27.6875 58.015625 
Q 27.6875 68.796875 31.8125 72.390625 
Q 35.9375 75.984375 48.09375 75.984375 
L 51.125 75.984375 
L 51.125 69 
L 47.796875 69 
Q 40.921875 69 38.8125 66.84375 
Q 36.71875 64.703125 36.71875 57.8125 
L 36.71875 45.703125 
Q 36.71875 38.03125 34.5 34.5625 
Q 32.28125 31.109375 26.90625 29.890625 
Q 32.328125 28.5625 34.515625 25.09375 
Q 36.71875 21.625 36.71875 14.015625 
L 36.71875 1.90625 
Q 36.71875 -4.984375 38.8125 -7.125 
Q 40.921875 -9.28125 47.796875 -9.28125 
z
" id="DejaVuSans-123"/>
     <path d="M 19.1875 8.296875 
L 53.609375 8.296875 
L 53.609375 0 
L 7.328125 0 
L 7.328125 8.296875 
Q 12.9375 14.109375 22.625 23.890625 
Q 32.328125 33.6875 34.8125 36.53125 
Q 39.546875 41.84375 41.421875 45.53125 
Q 43.3125 49.21875 43.3125 52.78125 
Q 43.3125 58.59375 39.234375 62.25 
Q 35.15625 65.921875 28.609375 65.921875 
Q 23.96875 65.921875 18.8125 64.3125 
Q 13.671875 62.703125 7.8125 59.421875 
L 7.8125 69.390625 
Q 13.765625 71.78125 18.9375 73 
Q 24.125 74.21875 28.421875 74.21875 
Q 39.75 74.21875 46.484375 68.546875 
Q 53.21875 62.890625 53.21875 53.421875 
Q 53.21875 48.921875 51.53125 44.890625 
Q 49.859375 40.875 45.40625 35.40625 
Q 44.1875 33.984375 37.640625 27.21875 
Q 31.109375 20.453125 19.1875 8.296875 
z
" id="DejaVuSans-50"/>
     <path d="M 12.5 -9.28125 
L 15.921875 -9.28125 
Q 22.75 -9.28125 24.828125 -7.171875 
Q 26.90625 -5.078125 26.90625 1.90625 
L 26.90625 14.015625 
Q 26.90625 21.625 29.09375 25.09375 
Q 31.296875 28.5625 36.71875 29.890625 
Q 31.296875 31.109375 29.09375 34.5625 
Q 26.90625 38.03125 26.90625 45.703125 
L 26.90625 57.8125 
Q 26.90625 64.75 24.828125 66.875 
Q 22.75 69 15.921875 69 
L 12.5 69 
L 12.5 75.984375 
L 15.578125 75.984375 
Q 27.734375 75.984375 31.8125 72.390625 
Q 35.890625 68.796875 35.890625 58.015625 
L 35.890625 46.296875 
Q 35.890625 39.015625 38.515625 36.203125 
Q 41.15625 33.40625 48.09375 33.40625 
L 51.125 33.40625 
L 51.125 26.421875 
L 48.09375 26.421875 
Q 41.15625 26.421875 38.515625 23.578125 
Q 35.890625 20.75 35.890625 13.375 
L 35.890625 1.703125 
Q 35.890625 -9.078125 31.8125 -12.6875 
Q 27.734375 -16.3125 15.578125 -16.3125 
L 12.5 -16.3125 
z
" id="DejaVuSans-125"/>
     <path d="M 11.71875 12.40625 
L 22.015625 12.40625 
L 22.015625 4 
L 14.015625 -11.625 
L 7.71875 -11.625 
L 11.71875 4 
z
" id="DejaVuSans-44"/>
     <path d="M 10.796875 72.90625 
L 49.515625 72.90625 
L 49.515625 64.59375 
L 19.828125 64.59375 
L 19.828125 46.734375 
Q 21.96875 47.46875 24.109375 47.828125 
Q 26.265625 48.1875 28.421875 48.1875 
Q 40.625 48.1875 47.75 41.5 
Q 54.890625 34.8125 54.890625 23.390625 
Q 54.890625 11.625 47.5625 5.09375 
Q 40.234375 -1.421875 26.90625 -1.421875 
Q 22.3125 -1.421875 17.546875 -0.640625 
Q 12.796875 0.140625 7.71875 1.703125 
L 7.71875 11.625 
Q 12.109375 9.234375 16.796875 8.0625 
Q 21.484375 6.890625 26.703125 6.890625 
Q 35.15625 6.890625 40.078125 11.328125 
Q 45.015625 15.765625 45.015625 23.390625 
Q 45.015625 31 40.078125 35.4375 
Q 35.15625 39.890625 26.703125 39.890625 
Q 22.75 39.890625 18.8125 39.015625 
Q 14.890625 38.140625 10.796875 36.28125 
z
" id="DejaVuSans-53"/>
    </defs>
    <g transform="translate(318.609 287.95392)scale(0.2 -0.2)">
     <use xlink:href="#DejaVuSans-123"/>
     <use x="63.623047" xlink:href="#DejaVuSans-102"/>
     <use x="98.828125" xlink:href="#DejaVuSans-49"/>
     <use x="162.451172" xlink:href="#DejaVuSans-45"/>
     <use x="198.535156" xlink:href="#DejaVuSans-102"/>
     <use x="233.740234" xlink:href="#DejaVuSans-50"/>
     <use x="297.363281" xlink:href="#DejaVuSans-52"/>
     <use x="360.986328" xlink:href="#DejaVuSans-125"/>
     <use x="424.609375" xlink:href="#DejaVuSans-44"/>
     <use x="456.396484" xlink:href="#DejaVuSans-32"/>
     <use x="488.183594" xlink:href="#DejaVuSans-53"/>
     <use x="551.806641" xlink:href="#DejaVuSans-45"/>
     <use x="587.890625" xlink:href="#DejaVuSans-68"/>
    </g>
   </g>
   <g id="text_7">
    <!-- v2.4 -->
    <defs>
     <path d="M 2.984375 54.6875 
L 12.5 54.6875 
L 29.59375 8.796875 
L 46.6875 54.6875 
L 56.203125 54.6875 
L 35.6875 0 
L 23.484375 0 
z
" id="DejaVuSans-118"/>
     <path d="M 10.6875 12.40625 
L 21 12.40625 
L 21 0 
L 10.6875 0 
z
" id="DejaVuSans-46"/>
    </defs>
    <g style="fill:#808080;" transform="translate(219.489063 288.777272)scale(0.1 -0.1)">
     <use xlink:href="#DejaVuSans-118"/>
     <use x="59.179688" xlink:href="#DejaVuSans-50"/>
     <use x="122.802734" xlink:href="#DejaVuSans-46"/>
     <use x="154.589844" xlink:href="#DejaVuSans-52"/>
    </g>
   </g>
  </g>
 </g>
 <defs>
  <clipPath id="p736b325f77">
   <rect height="290.304" width="460.8" x="0" y="3.456"/>
  </clipPath>
 </defs>
</svg>
