<?xml version="1.0" encoding="utf-8" standalone="no"?>
<!DOCTYPE svg PUBLIC "-//W3C//DTD SVG 1.1//EN"
  "http://www.w3.org/Graphics/SVG/1.1/DTD/svg11.dtd">
<!-- Created with matplotlib (https://matplotlib.org/) -->
<svg height="345.6pt" version="1.1" viewBox="0 0 460.8 345.6" width="460.8pt" xmlns="http://www.w3.org/2000/svg" xmlns:xlink="http://www.w3.org/1999/xlink">
 <defs>
  <style type="text/css">
*{stroke-linecap:butt;stroke-linejoin:round;}
  </style>
 </defs>
 <g id="figure_1">
  <g id="patch_1">
   <path d="M 0 345.6 
L 460.8 345.6 
L 460.8 0 
L 0 0 
z
" style="fill:#ffffff;"/>
  </g>
  <g id="axes_1">
   <g id="patch_2">
    <path d="M 0 293.76 
L 460.8 293.76 
L 460.8 3.456 
L 0 3.456 
z
" style="fill:#ffffff;"/>
   </g>
   <g id="matplotlib.axis_1">
    <g id="xtick_1">
     <g id="line2d_1">
      <path clip-path="url(#pa74a093e67)" d="M 105.457899 293.76 
L 105.457899 3.456 
" style="fill:none;stroke:#b0b0b0;stroke-linecap:square;stroke-width:0.8;"/>
     </g>
     <g id="line2d_2">
      <defs>
       <path d="M 0 0 
L 0 3.5 
" id="me6d50c85b1" style="stroke:#000000;stroke-width:0.8;"/>
      </defs>
      <g>
       <use style="stroke:#000000;stroke-width:0.8;" x="105.457899" xlink:href="#me6d50c85b1" y="293.76"/>
      </g>
     </g>
     <g id="text_1">
      <!-- -4 -->
      <defs>
       <path d="M 4.890625 31.390625 
L 31.203125 31.390625 
L 31.203125 23.390625 
L 4.890625 23.390625 
z
" id="DejaVuSans-45"/>
       <path d="M 37.796875 64.3125 
L 12.890625 25.390625 
L 37.796875 25.390625 
z
M 35.203125 72.90625 
L 47.609375 72.90625 
L 47.609375 25.390625 
L 58.015625 25.390625 
L 58.015625 17.1875 
L 47.609375 17.1875 
L 47.609375 0 
L 37.796875 0 
L 37.796875 17.1875 
L 4.890625 17.1875 
L 4.890625 26.703125 
z
" id="DejaVuSans-52"/>
      </defs>
      <g transform="translate(95.487587 315.956875)scale(0.2 -0.2)">
       <use xlink:href="#DejaVuSans-45"/>
       <use x="36.083984" xlink:href="#DejaVuSans-52"/>
      </g>
     </g>
    </g>
    <g id="xtick_2">
     <g id="line2d_3">
      <path clip-path="url(#pa74a093e67)" d="M 211.029853 293.76 
L 211.029853 3.456 
" style="fill:none;stroke:#b0b0b0;stroke-linecap:square;stroke-width:0.8;"/>
     </g>
     <g id="line2d_4">
      <g>
       <use style="stroke:#000000;stroke-width:0.8;" x="211.029853" xlink:href="#me6d50c85b1" y="293.76"/>
      </g>
     </g>
     <g id="text_2">
      <!-- 0 -->
      <defs>
       <path d="M 31.78125 66.40625 
Q 24.171875 66.40625 20.328125 58.90625 
Q 16.5 51.421875 16.5 36.375 
Q 16.5 21.390625 20.328125 13.890625 
Q 24.171875 6.390625 31.78125 6.390625 
Q 39.453125 6.390625 43.28125 13.890625 
Q 47.125 21.390625 47.125 36.375 
Q 47.125 51.421875 43.28125 58.90625 
Q 39.453125 66.40625 31.78125 66.40625 
z
M 31.78125 74.21875 
Q 44.046875 74.21875 50.515625 64.515625 
Q 56.984375 54.828125 56.984375 36.375 
Q 56.984375 17.96875 50.515625 8.265625 
Q 44.046875 -1.421875 31.78125 -1.421875 
Q 19.53125 -1.421875 13.0625 8.265625 
Q 6.59375 17.96875 6.59375 36.375 
Q 6.59375 54.828125 13.0625 64.515625 
Q 19.53125 74.21875 31.78125 74.21875 
z
" id="DejaVuSans-48"/>
      </defs>
      <g transform="translate(204.667353 315.956875)scale(0.2 -0.2)">
       <use xlink:href="#DejaVuSans-48"/>
      </g>
     </g>
    </g>
    <g id="xtick_3">
     <g id="line2d_5">
      <path clip-path="url(#pa74a093e67)" d="M 316.601806 293.76 
L 316.601806 3.456 
" style="fill:none;stroke:#b0b0b0;stroke-linecap:square;stroke-width:0.8;"/>
     </g>
     <g id="line2d_6">
      <g>
       <use style="stroke:#000000;stroke-width:0.8;" x="316.601806" xlink:href="#me6d50c85b1" y="293.76"/>
      </g>
     </g>
     <g id="text_3">
      <!-- 4 -->
      <g transform="translate(310.239306 315.956875)scale(0.2 -0.2)">
       <use xlink:href="#DejaVuSans-52"/>
      </g>
     </g>
    </g>
    <g id="xtick_4">
     <g id="line2d_7">
      <path clip-path="url(#pa74a093e67)" d="M 422.17376 293.76 
L 422.17376 3.456 
" style="fill:none;stroke:#b0b0b0;stroke-linecap:square;stroke-width:0.8;"/>
     </g>
     <g id="line2d_8">
      <g>
       <use style="stroke:#000000;stroke-width:0.8;" x="422.17376" xlink:href="#me6d50c85b1" y="293.76"/>
      </g>
     </g>
     <g id="text_4">
      <!-- 8 -->
      <defs>
       <path d="M 31.78125 34.625 
Q 24.75 34.625 20.71875 30.859375 
Q 16.703125 27.09375 16.703125 20.515625 
Q 16.703125 13.921875 20.71875 10.15625 
Q 24.75 6.390625 31.78125 6.390625 
Q 38.8125 6.390625 42.859375 10.171875 
Q 46.921875 13.96875 46.921875 20.515625 
Q 46.921875 27.09375 42.890625 30.859375 
Q 38.875 34.625 31.78125 34.625 
z
M 21.921875 38.8125 
Q 15.578125 40.375 12.03125 44.71875 
Q 8.5 49.078125 8.5 55.328125 
Q 8.5 64.0625 14.71875 69.140625 
Q 20.953125 74.21875 31.78125 74.21875 
Q 42.671875 74.21875 48.875 69.140625 
Q 55.078125 64.0625 55.078125 55.328125 
Q 55.078125 49.078125 51.53125 44.71875 
Q 48 40.375 41.703125 38.8125 
Q 48.828125 37.15625 52.796875 32.3125 
Q 56.78125 27.484375 56.78125 20.515625 
Q 56.78125 9.90625 50.3125 4.234375 
Q 43.84375 -1.421875 31.78125 -1.421875 
Q 19.734375 -1.421875 13.25 4.234375 
Q 6.78125 9.90625 6.78125 20.515625 
Q 6.78125 27.484375 10.78125 32.3125 
Q 14.796875 37.15625 21.921875 38.8125 
z
M 18.3125 54.390625 
Q 18.3125 48.734375 21.84375 45.5625 
Q 25.390625 42.390625 31.78125 42.390625 
Q 38.140625 42.390625 41.71875 45.5625 
Q 45.3125 48.734375 45.3125 54.390625 
Q 45.3125 60.0625 41.71875 63.234375 
Q 38.140625 66.40625 31.78125 66.40625 
Q 25.390625 66.40625 21.84375 63.234375 
Q 18.3125 60.0625 18.3125 54.390625 
z
" id="DejaVuSans-56"/>
      </defs>
      <g transform="translate(415.81126 315.956875)scale(0.2 -0.2)">
       <use xlink:href="#DejaVuSans-56"/>
      </g>
     </g>
    </g>
    <g id="text_5">
     <!-- log10 of Df -->
     <defs>
      <path d="M 9.421875 75.984375 
L 18.40625 75.984375 
L 18.40625 0 
L 9.421875 0 
z
" id="DejaVuSans-108"/>
      <path d="M 30.609375 48.390625 
Q 23.390625 48.390625 19.1875 42.75 
Q 14.984375 37.109375 14.984375 27.296875 
Q 14.984375 17.484375 19.15625 11.84375 
Q 23.34375 6.203125 30.609375 6.203125 
Q 37.796875 6.203125 41.984375 11.859375 
Q 46.1875 17.53125 46.1875 27.296875 
Q 46.1875 37.015625 41.984375 42.703125 
Q 37.796875 48.390625 30.609375 48.390625 
z
M 30.609375 56 
Q 42.328125 56 49.015625 48.375 
Q 55.71875 40.765625 55.71875 27.296875 
Q 55.71875 13.875 49.015625 6.21875 
Q 42.328125 -1.421875 30.609375 -1.421875 
Q 18.84375 -1.421875 12.171875 6.21875 
Q 5.515625 13.875 5.515625 27.296875 
Q 5.515625 40.765625 12.171875 48.375 
Q 18.84375 56 30.609375 56 
z
" id="DejaVuSans-111"/>
      <path d="M 45.40625 27.984375 
Q 45.40625 37.75 41.375 43.109375 
Q 37.359375 48.484375 30.078125 48.484375 
Q 22.859375 48.484375 18.828125 43.109375 
Q 14.796875 37.75 14.796875 27.984375 
Q 14.796875 18.265625 18.828125 12.890625 
Q 22.859375 7.515625 30.078125 7.515625 
Q 37.359375 7.515625 41.375 12.890625 
Q 45.40625 18.265625 45.40625 27.984375 
z
M 54.390625 6.78125 
Q 54.390625 -7.171875 48.1875 -13.984375 
Q 42 -20.796875 29.203125 -20.796875 
Q 24.46875 -20.796875 20.265625 -20.09375 
Q 16.0625 -19.390625 12.109375 -17.921875 
L 12.109375 -9.1875 
Q 16.0625 -11.328125 19.921875 -12.34375 
Q 23.78125 -13.375 27.78125 -13.375 
Q 36.625 -13.375 41.015625 -8.765625 
Q 45.40625 -4.15625 45.40625 5.171875 
L 45.40625 9.625 
Q 42.625 4.78125 38.28125 2.390625 
Q 33.9375 0 27.875 0 
Q 17.828125 0 11.671875 7.65625 
Q 5.515625 15.328125 5.515625 27.984375 
Q 5.515625 40.671875 11.671875 48.328125 
Q 17.828125 56 27.875 56 
Q 33.9375 56 38.28125 53.609375 
Q 42.625 51.21875 45.40625 46.390625 
L 45.40625 54.6875 
L 54.390625 54.6875 
z
" id="DejaVuSans-103"/>
      <path d="M 12.40625 8.296875 
L 28.515625 8.296875 
L 28.515625 63.921875 
L 10.984375 60.40625 
L 10.984375 69.390625 
L 28.421875 72.90625 
L 38.28125 72.90625 
L 38.28125 8.296875 
L 54.390625 8.296875 
L 54.390625 0 
L 12.40625 0 
z
" id="DejaVuSans-49"/>
      <path id="DejaVuSans-32"/>
      <path d="M 37.109375 75.984375 
L 37.109375 68.5 
L 28.515625 68.5 
Q 23.6875 68.5 21.796875 66.546875 
Q 19.921875 64.59375 19.921875 59.515625 
L 19.921875 54.6875 
L 34.71875 54.6875 
L 34.71875 47.703125 
L 19.921875 47.703125 
L 19.921875 0 
L 10.890625 0 
L 10.890625 47.703125 
L 2.296875 47.703125 
L 2.296875 54.6875 
L 10.890625 54.6875 
L 10.890625 58.5 
Q 10.890625 67.625 15.140625 71.796875 
Q 19.390625 75.984375 28.609375 75.984375 
z
" id="DejaVuSans-102"/>
      <path d="M 19.671875 64.796875 
L 19.671875 8.109375 
L 31.59375 8.109375 
Q 46.6875 8.109375 53.6875 14.9375 
Q 60.6875 21.78125 60.6875 36.53125 
Q 60.6875 51.171875 53.6875 57.984375 
Q 46.6875 64.796875 31.59375 64.796875 
z
M 9.8125 72.90625 
L 30.078125 72.90625 
Q 51.265625 72.90625 61.171875 64.09375 
Q 71.09375 55.28125 71.09375 36.53125 
Q 71.09375 17.671875 61.125 8.828125 
Q 51.171875 0 30.078125 0 
L 9.8125 0 
z
" id="DejaVuSans-68"/>
     </defs>
     <g transform="translate(175.214063 339.313125)scale(0.2 -0.2)">
      <use xlink:href="#DejaVuSans-108"/>
      <use x="27.783203" xlink:href="#DejaVuSans-111"/>
      <use x="88.964844" xlink:href="#DejaVuSans-103"/>
      <use x="152.441406" xlink:href="#DejaVuSans-49"/>
      <use x="216.064453" xlink:href="#DejaVuSans-48"/>
      <use x="279.6875" xlink:href="#DejaVuSans-32"/>
      <use x="311.474609" xlink:href="#DejaVuSans-111"/>
      <use x="372.65625" xlink:href="#DejaVuSans-102"/>
      <use x="407.861328" xlink:href="#DejaVuSans-32"/>
      <use x="439.648438" xlink:href="#DejaVuSans-68"/>
      <use x="516.650391" xlink:href="#DejaVuSans-102"/>
     </g>
    </g>
   </g>
   <g id="matplotlib.axis_2">
    <g id="ytick_1">
     <g id="line2d_9">
      <path clip-path="url(#pa74a093e67)" d="M 0 293.76 
L 460.8 293.76 
" style="fill:none;stroke:#b0b0b0;stroke-linecap:square;stroke-width:0.8;"/>
     </g>
     <g id="line2d_10">
      <defs>
       <path d="M 0 0 
L -3.5 0 
" id="m80c53ebaa8" style="stroke:#000000;stroke-width:0.8;"/>
      </defs>
      <g>
       <use style="stroke:#000000;stroke-width:0.8;" x="0" xlink:href="#m80c53ebaa8" y="293.76"/>
      </g>
     </g>
    </g>
    <g id="ytick_2">
     <g id="line2d_11">
      <path clip-path="url(#pa74a093e67)" d="M 0 236.274059 
L 460.8 236.274059 
" style="fill:none;stroke:#b0b0b0;stroke-linecap:square;stroke-width:0.8;"/>
     </g>
     <g id="line2d_12">
      <g>
       <use style="stroke:#000000;stroke-width:0.8;" x="0" xlink:href="#m80c53ebaa8" y="236.274059"/>
      </g>
     </g>
    </g>
    <g id="ytick_3">
     <g id="line2d_13">
      <path clip-path="url(#pa74a093e67)" d="M 0 178.788119 
L 460.8 178.788119 
" style="fill:none;stroke:#b0b0b0;stroke-linecap:square;stroke-width:0.8;"/>
     </g>
     <g id="line2d_14">
      <g>
       <use style="stroke:#000000;stroke-width:0.8;" x="0" xlink:href="#m80c53ebaa8" y="178.788119"/>
      </g>
     </g>
    </g>
    <g id="ytick_4">
     <g id="line2d_15">
      <path clip-path="url(#pa74a093e67)" d="M 0 121.302178 
L 460.8 121.302178 
" style="fill:none;stroke:#b0b0b0;stroke-linecap:square;stroke-width:0.8;"/>
     </g>
     <g id="line2d_16">
      <g>
       <use style="stroke:#000000;stroke-width:0.8;" x="0" xlink:href="#m80c53ebaa8" y="121.302178"/>
      </g>
     </g>
    </g>
    <g id="ytick_5">
     <g id="line2d_17">
      <path clip-path="url(#pa74a093e67)" d="M 0 63.816238 
L 460.8 63.816238 
" style="fill:none;stroke:#b0b0b0;stroke-linecap:square;stroke-width:0.8;"/>
     </g>
     <g id="line2d_18">
      <g>
       <use style="stroke:#000000;stroke-width:0.8;" x="0" xlink:href="#m80c53ebaa8" y="63.816238"/>
      </g>
     </g>
    </g>
    <g id="ytick_6">
     <g id="line2d_19">
      <path clip-path="url(#pa74a093e67)" d="M 0 6.330297 
L 460.8 6.330297 
" style="fill:none;stroke:#b0b0b0;stroke-linecap:square;stroke-width:0.8;"/>
     </g>
     <g id="line2d_20">
      <g>
       <use style="stroke:#000000;stroke-width:0.8;" x="0" xlink:href="#m80c53ebaa8" y="6.330297"/>
      </g>
     </g>
    </g>
   </g>
   <g id="line2d_21">
    <path clip-path="url(#pa74a093e67)" d="M 230.001933 293.76 
L 230.001933 289.927604 
L 230.838473 289.927604 
L 230.838473 286.095208 
L 231.030462 286.095208 
L 231.10407 278.430416 
L 231.182326 278.430416 
L 231.182326 274.59802 
L 232.647325 274.59802 
L 232.647325 270.765624 
L 233.091532 270.765624 
L 233.091532 266.933228 
L 233.642415 266.933228 
L 233.642415 263.100832 
L 234.044132 263.100832 
L 234.044132 259.268436 
L 234.205363 259.268436 
L 234.213684 251.603644 
L 234.417914 251.603644 
L 234.417914 247.771248 
L 234.657304 247.771248 
L 234.657304 243.938851 
L 234.778303 243.938851 
L 234.803529 236.274059 
L 259.461251 236.274059 
L 259.461251 232.441663 
L 259.718 232.441663 
L 259.718 228.609267 
L 260.164487 228.609267 
L 260.164487 224.776871 
L 260.365298 224.776871 
L 260.46914 217.112079 
L 260.634105 217.112079 
L 260.637899 209.447287 
L 260.789465 209.447287 
L 260.826611 201.782495 
L 261.079854 201.782495 
L 261.173735 190.285307 
L 261.341468 190.285307 
L 261.416314 174.955723 
L 261.457021 174.955723 
L 261.545289 148.12895 
L 261.666011 148.12895 
L 261.770926 140.464158 
L 261.780374 140.464158 
L 261.875589 125.134574 
L 261.9207 125.134574 
L 261.9207 121.302178 
L 280.55314 121.302178 
L 280.58402 113.637386 
L 281.009495 113.637386 
L 281.009495 109.80499 
L 281.137152 109.80499 
L 281.137152 105.972594 
L 281.465638 105.972594 
L 281.465638 102.140198 
L 281.83305 102.140198 
L 281.83305 98.307802 
L 282.846372 98.307802 
L 282.846372 94.475406 
L 283.103142 94.475406 
L 283.103142 90.64301 
L 283.430455 90.64301 
L 283.430455 86.810614 
L 283.572908 86.810614 
L 283.680968 79.145822 
L 284.346653 79.145822 
L 284.35998 71.48103 
L 284.529056 71.48103 
L 284.529056 67.648634 
L 285.140024 67.648634 
L 285.140024 63.816238 
L 327.502338 63.816238 
L 327.502338 59.983842 
L 327.895343 59.983842 
L 327.895343 56.151446 
L 329.645352 56.151446 
L 329.645352 52.31905 
L 330.039699 52.31905 
L 330.039699 48.486653 
L 332.538169 48.486653 
L 332.538169 44.654257 
L 332.861175 44.654257 
L 332.926646 36.989465 
L 335.10233 36.989465 
L 335.10233 33.157069 
L 335.650014 33.157069 
L 335.650014 29.324673 
L 335.763603 29.324673 
L 335.763603 25.492277 
L 338.547455 25.492277 
L 338.547455 21.659881 
L 338.683643 21.659881 
L 338.683643 17.827485 
L 339.51029 17.827485 
L 339.51029 13.995089 
L 340.695094 13.995089 
L 340.695094 10.162693 
L 341.117282 10.162693 
L 341.117282 6.330297 
L 341.117282 6.330297 
L 460.8 6.330297 
L 460.8 6.330297 
" style="fill:none;stroke:#ff0000;stroke-linecap:square;stroke-width:3;"/>
   </g>
   <g id="line2d_22">
    <path clip-path="url(#pa74a093e67)" d="M 231.10407 293.76 
L 231.10407 289.927604 
L 233.642415 289.927604 
L 233.642415 286.095208 
L 233.756078 286.095208 
L 233.756078 282.262812 
L 234.034521 282.262812 
L 234.034521 278.430416 
L 234.213684 278.430416 
L 234.213684 274.59802 
L 234.481414 274.59802 
L 234.481414 270.765624 
L 234.778303 270.765624 
L 234.803529 263.100832 
L 235.28304 263.100832 
L 235.28304 259.268436 
L 235.799131 259.268436 
L 235.799131 255.43604 
L 236.036605 255.43604 
L 236.036605 251.603644 
L 236.787283 251.603644 
L 236.787283 247.771248 
L 237.207146 247.771248 
L 237.207146 243.938851 
L 237.46218 243.938851 
L 237.46218 240.106455 
L 238.338704 240.106455 
L 238.338704 236.274059 
L 259.461251 236.274059 
L 259.461251 232.441663 
L 260.826611 232.441663 
L 260.826611 228.609267 
L 261.197891 228.609267 
L 261.197891 224.776871 
L 261.348664 224.776871 
L 261.443596 209.447287 
L 261.487103 209.447287 
L 261.579936 194.117703 
L 261.608482 194.117703 
L 261.695146 182.620515 
L 261.72105 182.620515 
L 261.819386 159.626139 
L 261.840054 159.626139 
L 261.9207 148.12895 
L 261.958912 148.12895 
L 262.058727 125.134574 
L 262.092836 125.134574 
L 262.092836 121.302178 
L 281.035337 121.302178 
L 281.035337 117.469782 
L 281.895322 117.469782 
L 281.895322 113.637386 
L 282.641945 113.637386 
L 282.641945 109.80499 
L 283.921016 109.80499 
L 283.973961 102.140198 
L 284.166645 102.140198 
L 284.166645 98.307802 
L 284.529056 98.307802 
L 284.529056 94.475406 
L 284.864053 94.475406 
L 284.864053 90.64301 
L 285.147388 90.64301 
L 285.250234 82.978218 
L 285.560063 82.978218 
L 285.560063 79.145822 
L 285.965735 79.145822 
L 285.986 71.48103 
L 286.086563 71.48103 
L 286.086563 67.648634 
L 286.258492 67.648634 
L 286.258492 63.816238 
L 327.895343 63.816238 
L 327.895343 59.983842 
L 330.039699 59.983842 
L 330.039699 56.151446 
L 332.926646 56.151446 
L 332.926646 52.31905 
L 335.10233 52.31905 
L 335.10233 48.486653 
L 336.112947 48.486653 
L 336.112947 44.654257 
L 337.447119 44.654257 
L 337.447119 40.821861 
L 339.596718 40.821861 
L 339.596718 36.989465 
L 339.744401 36.989465 
L 339.744401 33.157069 
L 340.610792 33.157069 
L 340.610792 29.324673 
L 341.749716 29.324673 
L 341.749716 25.492277 
L 343.326472 25.492277 
L 343.326472 21.659881 
L 343.48188 21.659881 
L 343.48188 17.827485 
L 344.28624 17.827485 
L 344.28624 13.995089 
L 344.798342 13.995089 
L 344.798342 10.162693 
L 345.6549 10.162693 
L 345.6549 6.330297 
L 345.6549 6.330297 
L 460.8 6.330297 
L 460.8 6.330297 
" style="fill:none;stroke:#00bfbf;stroke-linecap:square;stroke-width:1.5;"/>
   </g>
   <g id="line2d_23">
    <path clip-path="url(#pa74a093e67)" d="M 230.001933 293.76 
L 230.001933 289.927604 
L 230.838473 289.927604 
L 230.838473 286.095208 
L 231.030462 286.095208 
L 231.10407 278.430416 
L 231.182326 278.430416 
L 231.182326 274.59802 
L 232.647325 274.59802 
L 232.647325 270.765624 
L 233.642415 270.765624 
L 233.642415 266.933228 
L 234.213684 266.933228 
L 234.213684 263.100832 
L 234.417914 263.100832 
L 234.417914 259.268436 
L 234.664451 259.268436 
L 234.664451 255.43604 
L 234.778303 255.43604 
L 234.803529 247.771248 
L 235.170034 247.771248 
L 235.170034 243.938851 
L 236.036605 243.938851 
L 236.036605 240.106455 
L 237.248275 240.106455 
L 237.248275 236.274059 
L 259.461251 236.274059 
L 259.461251 232.441663 
L 259.718 232.441663 
L 259.718 228.609267 
L 260.634105 228.609267 
L 260.634105 224.776871 
L 260.789465 224.776871 
L 260.826611 217.112079 
L 261.079854 217.112079 
L 261.079854 213.279683 
L 261.197891 213.279683 
L 261.197891 209.447287 
L 261.348664 209.447287 
L 261.457021 186.452911 
L 261.487103 186.452911 
L 261.568281 171.123327 
L 261.608482 171.123327 
L 261.702094 159.626139 
L 261.780374 159.626139 
L 261.875589 140.464158 
L 261.9207 140.464158 
L 261.991087 125.134574 
L 262.042003 125.134574 
L 262.042003 121.302178 
L 281.035337 121.302178 
L 281.137152 113.637386 
L 281.895322 113.637386 
L 281.895322 109.80499 
L 282.641945 109.80499 
L 282.641945 105.972594 
L 283.103142 105.972594 
L 283.103142 102.140198 
L 283.843311 102.140198 
L 283.931789 94.475406 
L 283.973961 94.475406 
L 283.973961 90.64301 
L 284.166645 90.64301 
L 284.166645 86.810614 
L 284.35998 86.810614 
L 284.35998 82.978218 
L 284.510428 82.978218 
L 284.529056 75.313426 
L 284.864053 75.313426 
L 284.864053 71.48103 
L 285.140024 71.48103 
L 285.140024 67.648634 
L 285.95153 67.648634 
L 285.95153 63.816238 
L 327.895343 63.816238 
L 327.895343 59.983842 
L 330.039699 59.983842 
L 330.039699 56.151446 
L 331.677741 56.151446 
L 331.677741 52.31905 
L 332.538169 52.31905 
L 332.538169 48.486653 
L 332.926646 48.486653 
L 332.926646 44.654257 
L 333.92184 44.654257 
L 333.92184 40.821861 
L 335.10233 40.821861 
L 335.16708 33.157069 
L 335.650014 33.157069 
L 335.650014 29.324673 
L 337.447119 29.324673 
L 337.447119 25.492277 
L 339.744401 25.492277 
L 339.744401 21.659881 
L 340.065424 21.659881 
L 340.065424 17.827485 
L 341.117282 17.827485 
L 341.117282 13.995089 
L 342.41187 13.995089 
L 342.41187 10.162693 
L 342.632835 10.162693 
L 342.632835 6.330297 
L 342.632835 6.330297 
L 460.8 6.330297 
L 460.8 6.330297 
" style="fill:none;stroke:#bf00bf;stroke-linecap:square;stroke-width:1.5;"/>
   </g>
   <g id="patch_3">
    <path d="M 0 293.76 
L 0 3.456 
" style="fill:none;stroke:#000000;stroke-linecap:square;stroke-linejoin:miter;stroke-width:0.8;"/>
   </g>
   <g id="patch_4">
    <path d="M 460.8 293.76 
L 460.8 3.456 
" style="fill:none;stroke:#000000;stroke-linecap:square;stroke-linejoin:miter;stroke-width:0.8;"/>
   </g>
   <g id="patch_5">
    <path d="M -0 293.76 
L 460.8 293.76 
" style="fill:none;stroke:#000000;stroke-linecap:square;stroke-linejoin:miter;stroke-width:0.8;"/>
   </g>
   <g id="patch_6">
    <path d="M -0 3.456 
L 460.8 3.456 
" style="fill:none;stroke:#000000;stroke-linecap:square;stroke-linejoin:miter;stroke-width:0.8;"/>
   </g>
   <g id="text_6">
    <!-- {f20-f24}, 20-D -->
    <defs>
     <path d="M 51.125 -9.28125 
L 51.125 -16.3125 
L 48.09375 -16.3125 
Q 35.9375 -16.3125 31.8125 -12.6875 
Q 27.6875 -9.078125 27.6875 1.703125 
L 27.6875 13.375 
Q 27.6875 20.75 25.046875 23.578125 
Q 22.40625 26.421875 15.484375 26.421875 
L 12.5 26.421875 
L 12.5 33.40625 
L 15.484375 33.40625 
Q 22.46875 33.40625 25.078125 36.203125 
Q 27.6875 39.015625 27.6875 46.296875 
L 27.6875 58.015625 
Q 27.6875 68.796875 31.8125 72.390625 
Q 35.9375 75.984375 48.09375 75.984375 
L 51.125 75.984375 
L 51.125 69 
L 47.796875 69 
Q 40.921875 69 38.8125 66.84375 
Q 36.71875 64.703125 36.71875 57.8125 
L 36.71875 45.703125 
Q 36.71875 38.03125 34.5 34.5625 
Q 32.28125 31.109375 26.90625 29.890625 
Q 32.328125 28.5625 34.515625 25.09375 
Q 36.71875 21.625 36.71875 14.015625 
L 36.71875 1.90625 
Q 36.71875 -4.984375 38.8125 -7.125 
Q 40.921875 -9.28125 47.796875 -9.28125 
z
" id="DejaVuSans-123"/>
     <path d="M 19.1875 8.296875 
L 53.609375 8.296875 
L 53.609375 0 
L 7.328125 0 
L 7.328125 8.296875 
Q 12.9375 14.109375 22.625 23.890625 
Q 32.328125 33.6875 34.8125 36.53125 
Q 39.546875 41.84375 41.421875 45.53125 
Q 43.3125 49.21875 43.3125 52.78125 
Q 43.3125 58.59375 39.234375 62.25 
Q 35.15625 65.921875 28.609375 65.921875 
Q 23.96875 65.921875 18.8125 64.3125 
Q 13.671875 62.703125 7.8125 59.421875 
L 7.8125 69.390625 
Q 13.765625 71.78125 18.9375 73 
Q 24.125 74.21875 28.421875 74.21875 
Q 39.75 74.21875 46.484375 68.546875 
Q 53.21875 62.890625 53.21875 53.421875 
Q 53.21875 48.921875 51.53125 44.890625 
Q 49.859375 40.875 45.40625 35.40625 
Q 44.1875 33.984375 37.640625 27.21875 
Q 31.109375 20.453125 19.1875 8.296875 
z
" id="DejaVuSans-50"/>
     <path d="M 12.5 -9.28125 
L 15.921875 -9.28125 
Q 22.75 -9.28125 24.828125 -7.171875 
Q 26.90625 -5.078125 26.90625 1.90625 
L 26.90625 14.015625 
Q 26.90625 21.625 29.09375 25.09375 
Q 31.296875 28.5625 36.71875 29.890625 
Q 31.296875 31.109375 29.09375 34.5625 
Q 26.90625 38.03125 26.90625 45.703125 
L 26.90625 57.8125 
Q 26.90625 64.75 24.828125 66.875 
Q 22.75 69 15.921875 69 
L 12.5 69 
L 12.5 75.984375 
L 15.578125 75.984375 
Q 27.734375 75.984375 31.8125 72.390625 
Q 35.890625 68.796875 35.890625 58.015625 
L 35.890625 46.296875 
Q 35.890625 39.015625 38.515625 36.203125 
Q 41.15625 33.40625 48.09375 33.40625 
L 51.125 33.40625 
L 51.125 26.421875 
L 48.09375 26.421875 
Q 41.15625 26.421875 38.515625 23.578125 
Q 35.890625 20.75 35.890625 13.375 
L 35.890625 1.703125 
Q 35.890625 -9.078125 31.8125 -12.6875 
Q 27.734375 -16.3125 15.578125 -16.3125 
L 12.5 -16.3125 
z
" id="DejaVuSans-125"/>
     <path d="M 11.71875 12.40625 
L 22.015625 12.40625 
L 22.015625 4 
L 14.015625 -11.625 
L 7.71875 -11.625 
L 11.71875 4 
z
" id="DejaVuSans-44"/>
    </defs>
    <g transform="translate(293.159 287.95392)scale(0.2 -0.2)">
     <use xlink:href="#DejaVuSans-123"/>
     <use x="63.623047" xlink:href="#DejaVuSans-102"/>
     <use x="98.828125" xlink:href="#DejaVuSans-50"/>
     <use x="162.451172" xlink:href="#DejaVuSans-48"/>
     <use x="226.074219" xlink:href="#DejaVuSans-45"/>
     <use x="262.158203" xlink:href="#DejaVuSans-102"/>
     <use x="297.363281" xlink:href="#DejaVuSans-50"/>
     <use x="360.986328" xlink:href="#DejaVuSans-52"/>
     <use x="424.609375" xlink:href="#DejaVuSans-125"/>
     <use x="488.232422" xlink:href="#DejaVuSans-44"/>
     <use x="520.019531" xlink:href="#DejaVuSans-32"/>
     <use x="551.806641" xlink:href="#DejaVuSans-50"/>
     <use x="615.429688" xlink:href="#DejaVuSans-48"/>
     <use x="679.052734" xlink:href="#DejaVuSans-45"/>
     <use x="715.136719" xlink:href="#DejaVuSans-68"/>
    </g>
   </g>
   <g id="text_7">
    <!-- v2.4 -->
    <defs>
     <path d="M 2.984375 54.6875 
L 12.5 54.6875 
L 29.59375 8.796875 
L 46.6875 54.6875 
L 56.203125 54.6875 
L 35.6875 0 
L 23.484375 0 
z
" id="DejaVuSans-118"/>
     <path d="M 10.6875 12.40625 
L 21 12.40625 
L 21 0 
L 10.6875 0 
z
" id="DejaVuSans-46"/>
    </defs>
    <g style="fill:#808080;" transform="translate(219.489063 288.777272)scale(0.1 -0.1)">
     <use xlink:href="#DejaVuSans-118"/>
     <use x="59.179688" xlink:href="#DejaVuSans-50"/>
     <use x="122.802734" xlink:href="#DejaVuSans-46"/>
     <use x="154.589844" xlink:href="#DejaVuSans-52"/>
    </g>
   </g>
  </g>
 </g>
 <defs>
  <clipPath id="pa74a093e67">
   <rect height="290.304" width="460.8" x="0" y="3.456"/>
  </clipPath>
 </defs>
</svg>
