<?xml version="1.0" encoding="utf-8" standalone="no"?>
<!DOCTYPE svg PUBLIC "-//W3C//DTD SVG 1.1//EN"
  "http://www.w3.org/Graphics/SVG/1.1/DTD/svg11.dtd">
<!-- Created with matplotlib (https://matplotlib.org/) -->
<svg height="345.6pt" version="1.1" viewBox="0 0 460.8 345.6" width="460.8pt" xmlns="http://www.w3.org/2000/svg" xmlns:xlink="http://www.w3.org/1999/xlink">
 <defs>
  <style type="text/css">
*{stroke-linecap:butt;stroke-linejoin:round;}
  </style>
 </defs>
 <g id="figure_1">
  <g id="patch_1">
   <path d="M 0 345.6 
L 460.8 345.6 
L 460.8 0 
L 0 0 
z
" style="fill:#ffffff;"/>
  </g>
  <g id="axes_1">
   <g id="patch_2">
    <path d="M 0 293.76 
L 460.8 293.76 
L 460.8 3.456 
L 0 3.456 
z
" style="fill:#ffffff;"/>
   </g>
   <g id="matplotlib.axis_1">
    <g id="xtick_1">
     <g id="line2d_1">
      <path clip-path="url(#p8bae6c3cd6)" d="M 105.457899 293.76 
L 105.457899 3.456 
" style="fill:none;stroke:#b0b0b0;stroke-linecap:square;stroke-width:0.8;"/>
     </g>
     <g id="line2d_2">
      <defs>
       <path d="M 0 0 
L 0 3.5 
" id="m0d8a0d4390" style="stroke:#000000;stroke-width:0.8;"/>
      </defs>
      <g>
       <use style="stroke:#000000;stroke-width:0.8;" x="105.457899" xlink:href="#m0d8a0d4390" y="293.76"/>
      </g>
     </g>
     <g id="text_1">
      <!-- -4 -->
      <defs>
       <path d="M 4.890625 31.390625 
L 31.203125 31.390625 
L 31.203125 23.390625 
L 4.890625 23.390625 
z
" id="DejaVuSans-45"/>
       <path d="M 37.796875 64.3125 
L 12.890625 25.390625 
L 37.796875 25.390625 
z
M 35.203125 72.90625 
L 47.609375 72.90625 
L 47.609375 25.390625 
L 58.015625 25.390625 
L 58.015625 17.1875 
L 47.609375 17.1875 
L 47.609375 0 
L 37.796875 0 
L 37.796875 17.1875 
L 4.890625 17.1875 
L 4.890625 26.703125 
z
" id="DejaVuSans-52"/>
      </defs>
      <g transform="translate(95.487587 315.956875)scale(0.2 -0.2)">
       <use xlink:href="#DejaVuSans-45"/>
       <use x="36.083984" xlink:href="#DejaVuSans-52"/>
      </g>
     </g>
    </g>
    <g id="xtick_2">
     <g id="line2d_3">
      <path clip-path="url(#p8bae6c3cd6)" d="M 211.029853 293.76 
L 211.029853 3.456 
" style="fill:none;stroke:#b0b0b0;stroke-linecap:square;stroke-width:0.8;"/>
     </g>
     <g id="line2d_4">
      <g>
       <use style="stroke:#000000;stroke-width:0.8;" x="211.029853" xlink:href="#m0d8a0d4390" y="293.76"/>
      </g>
     </g>
     <g id="text_2">
      <!-- 0 -->
      <defs>
       <path d="M 31.78125 66.40625 
Q 24.171875 66.40625 20.328125 58.90625 
Q 16.5 51.421875 16.5 36.375 
Q 16.5 21.390625 20.328125 13.890625 
Q 24.171875 6.390625 31.78125 6.390625 
Q 39.453125 6.390625 43.28125 13.890625 
Q 47.125 21.390625 47.125 36.375 
Q 47.125 51.421875 43.28125 58.90625 
Q 39.453125 66.40625 31.78125 66.40625 
z
M 31.78125 74.21875 
Q 44.046875 74.21875 50.515625 64.515625 
Q 56.984375 54.828125 56.984375 36.375 
Q 56.984375 17.96875 50.515625 8.265625 
Q 44.046875 -1.421875 31.78125 -1.421875 
Q 19.53125 -1.421875 13.0625 8.265625 
Q 6.59375 17.96875 6.59375 36.375 
Q 6.59375 54.828125 13.0625 64.515625 
Q 19.53125 74.21875 31.78125 74.21875 
z
" id="DejaVuSans-48"/>
      </defs>
      <g transform="translate(204.667353 315.956875)scale(0.2 -0.2)">
       <use xlink:href="#DejaVuSans-48"/>
      </g>
     </g>
    </g>
    <g id="xtick_3">
     <g id="line2d_5">
      <path clip-path="url(#p8bae6c3cd6)" d="M 316.601806 293.76 
L 316.601806 3.456 
" style="fill:none;stroke:#b0b0b0;stroke-linecap:square;stroke-width:0.8;"/>
     </g>
     <g id="line2d_6">
      <g>
       <use style="stroke:#000000;stroke-width:0.8;" x="316.601806" xlink:href="#m0d8a0d4390" y="293.76"/>
      </g>
     </g>
     <g id="text_3">
      <!-- 4 -->
      <g transform="translate(310.239306 315.956875)scale(0.2 -0.2)">
       <use xlink:href="#DejaVuSans-52"/>
      </g>
     </g>
    </g>
    <g id="xtick_4">
     <g id="line2d_7">
      <path clip-path="url(#p8bae6c3cd6)" d="M 422.17376 293.76 
L 422.17376 3.456 
" style="fill:none;stroke:#b0b0b0;stroke-linecap:square;stroke-width:0.8;"/>
     </g>
     <g id="line2d_8">
      <g>
       <use style="stroke:#000000;stroke-width:0.8;" x="422.17376" xlink:href="#m0d8a0d4390" y="293.76"/>
      </g>
     </g>
     <g id="text_4">
      <!-- 8 -->
      <defs>
       <path d="M 31.78125 34.625 
Q 24.75 34.625 20.71875 30.859375 
Q 16.703125 27.09375 16.703125 20.515625 
Q 16.703125 13.921875 20.71875 10.15625 
Q 24.75 6.390625 31.78125 6.390625 
Q 38.8125 6.390625 42.859375 10.171875 
Q 46.921875 13.96875 46.921875 20.515625 
Q 46.921875 27.09375 42.890625 30.859375 
Q 38.875 34.625 31.78125 34.625 
z
M 21.921875 38.8125 
Q 15.578125 40.375 12.03125 44.71875 
Q 8.5 49.078125 8.5 55.328125 
Q 8.5 64.0625 14.71875 69.140625 
Q 20.953125 74.21875 31.78125 74.21875 
Q 42.671875 74.21875 48.875 69.140625 
Q 55.078125 64.0625 55.078125 55.328125 
Q 55.078125 49.078125 51.53125 44.71875 
Q 48 40.375 41.703125 38.8125 
Q 48.828125 37.15625 52.796875 32.3125 
Q 56.78125 27.484375 56.78125 20.515625 
Q 56.78125 9.90625 50.3125 4.234375 
Q 43.84375 -1.421875 31.78125 -1.421875 
Q 19.734375 -1.421875 13.25 4.234375 
Q 6.78125 9.90625 6.78125 20.515625 
Q 6.78125 27.484375 10.78125 32.3125 
Q 14.796875 37.15625 21.921875 38.8125 
z
M 18.3125 54.390625 
Q 18.3125 48.734375 21.84375 45.5625 
Q 25.390625 42.390625 31.78125 42.390625 
Q 38.140625 42.390625 41.71875 45.5625 
Q 45.3125 48.734375 45.3125 54.390625 
Q 45.3125 60.0625 41.71875 63.234375 
Q 38.140625 66.40625 31.78125 66.40625 
Q 25.390625 66.40625 21.84375 63.234375 
Q 18.3125 60.0625 18.3125 54.390625 
z
" id="DejaVuSans-56"/>
      </defs>
      <g transform="translate(415.81126 315.956875)scale(0.2 -0.2)">
       <use xlink:href="#DejaVuSans-56"/>
      </g>
     </g>
    </g>
    <g id="text_5">
     <!-- log10 of Df -->
     <defs>
      <path d="M 9.421875 75.984375 
L 18.40625 75.984375 
L 18.40625 0 
L 9.421875 0 
z
" id="DejaVuSans-108"/>
      <path d="M 30.609375 48.390625 
Q 23.390625 48.390625 19.1875 42.75 
Q 14.984375 37.109375 14.984375 27.296875 
Q 14.984375 17.484375 19.15625 11.84375 
Q 23.34375 6.203125 30.609375 6.203125 
Q 37.796875 6.203125 41.984375 11.859375 
Q 46.1875 17.53125 46.1875 27.296875 
Q 46.1875 37.015625 41.984375 42.703125 
Q 37.796875 48.390625 30.609375 48.390625 
z
M 30.609375 56 
Q 42.328125 56 49.015625 48.375 
Q 55.71875 40.765625 55.71875 27.296875 
Q 55.71875 13.875 49.015625 6.21875 
Q 42.328125 -1.421875 30.609375 -1.421875 
Q 18.84375 -1.421875 12.171875 6.21875 
Q 5.515625 13.875 5.515625 27.296875 
Q 5.515625 40.765625 12.171875 48.375 
Q 18.84375 56 30.609375 56 
z
" id="DejaVuSans-111"/>
      <path d="M 45.40625 27.984375 
Q 45.40625 37.75 41.375 43.109375 
Q 37.359375 48.484375 30.078125 48.484375 
Q 22.859375 48.484375 18.828125 43.109375 
Q 14.796875 37.75 14.796875 27.984375 
Q 14.796875 18.265625 18.828125 12.890625 
Q 22.859375 7.515625 30.078125 7.515625 
Q 37.359375 7.515625 41.375 12.890625 
Q 45.40625 18.265625 45.40625 27.984375 
z
M 54.390625 6.78125 
Q 54.390625 -7.171875 48.1875 -13.984375 
Q 42 -20.796875 29.203125 -20.796875 
Q 24.46875 -20.796875 20.265625 -20.09375 
Q 16.0625 -19.390625 12.109375 -17.921875 
L 12.109375 -9.1875 
Q 16.0625 -11.328125 19.921875 -12.34375 
Q 23.78125 -13.375 27.78125 -13.375 
Q 36.625 -13.375 41.015625 -8.765625 
Q 45.40625 -4.15625 45.40625 5.171875 
L 45.40625 9.625 
Q 42.625 4.78125 38.28125 2.390625 
Q 33.9375 0 27.875 0 
Q 17.828125 0 11.671875 7.65625 
Q 5.515625 15.328125 5.515625 27.984375 
Q 5.515625 40.671875 11.671875 48.328125 
Q 17.828125 56 27.875 56 
Q 33.9375 56 38.28125 53.609375 
Q 42.625 51.21875 45.40625 46.390625 
L 45.40625 54.6875 
L 54.390625 54.6875 
z
" id="DejaVuSans-103"/>
      <path d="M 12.40625 8.296875 
L 28.515625 8.296875 
L 28.515625 63.921875 
L 10.984375 60.40625 
L 10.984375 69.390625 
L 28.421875 72.90625 
L 38.28125 72.90625 
L 38.28125 8.296875 
L 54.390625 8.296875 
L 54.390625 0 
L 12.40625 0 
z
" id="DejaVuSans-49"/>
      <path id="DejaVuSans-32"/>
      <path d="M 37.109375 75.984375 
L 37.109375 68.5 
L 28.515625 68.5 
Q 23.6875 68.5 21.796875 66.546875 
Q 19.921875 64.59375 19.921875 59.515625 
L 19.921875 54.6875 
L 34.71875 54.6875 
L 34.71875 47.703125 
L 19.921875 47.703125 
L 19.921875 0 
L 10.890625 0 
L 10.890625 47.703125 
L 2.296875 47.703125 
L 2.296875 54.6875 
L 10.890625 54.6875 
L 10.890625 58.5 
Q 10.890625 67.625 15.140625 71.796875 
Q 19.390625 75.984375 28.609375 75.984375 
z
" id="DejaVuSans-102"/>
      <path d="M 19.671875 64.796875 
L 19.671875 8.109375 
L 31.59375 8.109375 
Q 46.6875 8.109375 53.6875 14.9375 
Q 60.6875 21.78125 60.6875 36.53125 
Q 60.6875 51.171875 53.6875 57.984375 
Q 46.6875 64.796875 31.59375 64.796875 
z
M 9.8125 72.90625 
L 30.078125 72.90625 
Q 51.265625 72.90625 61.171875 64.09375 
Q 71.09375 55.28125 71.09375 36.53125 
Q 71.09375 17.671875 61.125 8.828125 
Q 51.171875 0 30.078125 0 
L 9.8125 0 
z
" id="DejaVuSans-68"/>
     </defs>
     <g transform="translate(175.214063 339.313125)scale(0.2 -0.2)">
      <use xlink:href="#DejaVuSans-108"/>
      <use x="27.783203" xlink:href="#DejaVuSans-111"/>
      <use x="88.964844" xlink:href="#DejaVuSans-103"/>
      <use x="152.441406" xlink:href="#DejaVuSans-49"/>
      <use x="216.064453" xlink:href="#DejaVuSans-48"/>
      <use x="279.6875" xlink:href="#DejaVuSans-32"/>
      <use x="311.474609" xlink:href="#DejaVuSans-111"/>
      <use x="372.65625" xlink:href="#DejaVuSans-102"/>
      <use x="407.861328" xlink:href="#DejaVuSans-32"/>
      <use x="439.648438" xlink:href="#DejaVuSans-68"/>
      <use x="516.650391" xlink:href="#DejaVuSans-102"/>
     </g>
    </g>
   </g>
   <g id="matplotlib.axis_2">
    <g id="ytick_1">
     <g id="line2d_9">
      <path clip-path="url(#p8bae6c3cd6)" d="M 0 293.76 
L 460.8 293.76 
" style="fill:none;stroke:#b0b0b0;stroke-linecap:square;stroke-width:0.8;"/>
     </g>
     <g id="line2d_10">
      <defs>
       <path d="M 0 0 
L -3.5 0 
" id="m35e6a95799" style="stroke:#000000;stroke-width:0.8;"/>
      </defs>
      <g>
       <use style="stroke:#000000;stroke-width:0.8;" x="0" xlink:href="#m35e6a95799" y="293.76"/>
      </g>
     </g>
    </g>
    <g id="ytick_2">
     <g id="line2d_11">
      <path clip-path="url(#p8bae6c3cd6)" d="M 0 236.274059 
L 460.8 236.274059 
" style="fill:none;stroke:#b0b0b0;stroke-linecap:square;stroke-width:0.8;"/>
     </g>
     <g id="line2d_12">
      <g>
       <use style="stroke:#000000;stroke-width:0.8;" x="0" xlink:href="#m35e6a95799" y="236.274059"/>
      </g>
     </g>
    </g>
    <g id="ytick_3">
     <g id="line2d_13">
      <path clip-path="url(#p8bae6c3cd6)" d="M 0 178.788119 
L 460.8 178.788119 
" style="fill:none;stroke:#b0b0b0;stroke-linecap:square;stroke-width:0.8;"/>
     </g>
     <g id="line2d_14">
      <g>
       <use style="stroke:#000000;stroke-width:0.8;" x="0" xlink:href="#m35e6a95799" y="178.788119"/>
      </g>
     </g>
    </g>
    <g id="ytick_4">
     <g id="line2d_15">
      <path clip-path="url(#p8bae6c3cd6)" d="M 0 121.302178 
L 460.8 121.302178 
" style="fill:none;stroke:#b0b0b0;stroke-linecap:square;stroke-width:0.8;"/>
     </g>
     <g id="line2d_16">
      <g>
       <use style="stroke:#000000;stroke-width:0.8;" x="0" xlink:href="#m35e6a95799" y="121.302178"/>
      </g>
     </g>
    </g>
    <g id="ytick_5">
     <g id="line2d_17">
      <path clip-path="url(#p8bae6c3cd6)" d="M 0 63.816238 
L 460.8 63.816238 
" style="fill:none;stroke:#b0b0b0;stroke-linecap:square;stroke-width:0.8;"/>
     </g>
     <g id="line2d_18">
      <g>
       <use style="stroke:#000000;stroke-width:0.8;" x="0" xlink:href="#m35e6a95799" y="63.816238"/>
      </g>
     </g>
    </g>
    <g id="ytick_6">
     <g id="line2d_19">
      <path clip-path="url(#p8bae6c3cd6)" d="M 0 6.330297 
L 460.8 6.330297 
" style="fill:none;stroke:#b0b0b0;stroke-linecap:square;stroke-width:0.8;"/>
     </g>
     <g id="line2d_20">
      <g>
       <use style="stroke:#000000;stroke-width:0.8;" x="0" xlink:href="#m35e6a95799" y="6.330297"/>
      </g>
     </g>
    </g>
   </g>
   <g id="line2d_21">
    <path clip-path="url(#p8bae6c3cd6)" d="M 249.741751 293.76 
L 249.741751 289.927604 
L 250.173818 289.927604 
L 250.180578 282.262812 
L 252.257694 282.262812 
L 252.257694 278.430416 
L 252.395865 278.430416 
L 252.395865 274.59802 
L 253.840579 274.59802 
L 253.840579 270.765624 
L 254.330702 270.765624 
L 254.330702 266.933228 
L 256.267289 266.933228 
L 256.267289 263.100832 
L 256.570607 263.100832 
L 256.570607 259.268436 
L 256.789029 259.268436 
L 256.789029 255.43604 
L 257.038106 255.43604 
L 257.038106 251.603644 
L 257.450719 251.603644 
L 257.450719 247.771248 
L 258.801561 247.771248 
L 258.801561 243.938851 
L 259.706092 243.938851 
L 259.706092 240.106455 
L 266.076076 240.106455 
L 266.076076 236.274059 
L 273.056398 236.274059 
L 273.056398 232.441663 
L 279.659003 232.441663 
L 279.681965 224.776871 
L 290.562079 224.776871 
L 290.562079 220.944475 
L 294.321917 220.944475 
L 294.321917 217.112079 
L 297.353161 217.112079 
L 297.353161 213.279683 
L 298.023958 213.279683 
L 298.084965 205.614891 
L 298.230134 205.614891 
L 298.230134 201.782495 
L 298.506179 201.782495 
L 298.506179 197.950099 
L 299.152819 197.950099 
L 299.205225 190.285307 
L 299.367216 190.285307 
L 299.367216 186.452911 
L 299.717805 186.452911 
L 299.717805 182.620515 
L 299.967034 182.620515 
L 299.967034 178.788119 
L 300.528566 178.788119 
L 300.528566 174.955723 
L 300.798115 174.955723 
L 300.798115 171.123327 
L 301.055018 171.123327 
L 301.055018 167.290931 
L 301.231312 167.290931 
L 301.28755 159.626139 
L 306.076122 159.626139 
L 306.076122 155.793743 
L 308.440474 155.793743 
L 308.440474 151.961347 
L 309.851135 151.961347 
L 309.851135 148.12895 
L 310.247462 148.12895 
L 310.247462 144.296554 
L 312.247235 144.296554 
L 312.247235 140.464158 
L 330.021743 140.464158 
L 330.021743 136.631762 
L 333.158961 136.631762 
L 333.158961 132.799366 
L 334.797505 132.799366 
L 334.797505 128.96697 
L 344.458439 128.96697 
L 344.458439 125.134574 
L 352.094352 125.134574 
L 352.094352 121.302178 
L 369.981885 121.302178 
L 369.981885 117.469782 
L 372.860087 117.469782 
L 372.860087 113.637386 
L 376.17983 113.637386 
L 376.17983 109.80499 
L 377.249984 109.80499 
L 377.249984 105.972594 
L 381.651873 105.972594 
L 381.690622 98.307802 
L 381.773027 98.307802 
L 381.773027 94.475406 
L 382.512312 94.475406 
L 382.559892 86.810614 
L 382.652578 86.810614 
L 382.652578 82.978218 
L 383.524307 82.978218 
L 383.524307 79.145822 
L 383.973308 79.145822 
L 383.973308 75.313426 
L 384.270576 75.313426 
L 384.270576 71.48103 
L 390.327271 71.48103 
L 390.327271 67.648634 
L 391.500456 67.648634 
L 391.500456 63.816238 
L 426.088871 63.816238 
L 426.088871 59.983842 
L 427.173192 59.983842 
L 427.173192 56.151446 
L 428.813326 56.151446 
L 428.813326 52.31905 
L 429.904799 52.31905 
L 429.904799 48.486653 
L 430.891507 48.486653 
L 430.891507 44.654257 
L 431.195466 44.654257 
L 431.195466 40.821861 
L 432.836583 40.821861 
L 432.836583 36.989465 
L 434.392956 36.989465 
L 434.392956 33.157069 
L 434.68802 33.157069 
L 434.78107 25.492277 
L 435.02789 25.492277 
L 435.02789 21.659881 
L 435.47963 21.659881 
L 435.47963 17.827485 
L 437.31212 17.827485 
L 437.31212 13.995089 
L 437.788244 13.995089 
L 437.788244 10.162693 
L 438.116856 10.162693 
L 438.116856 6.330297 
L 438.116856 6.330297 
L 460.8 6.330297 
L 460.8 6.330297 
" style="fill:none;stroke:#ff0000;stroke-linecap:square;stroke-width:3;"/>
   </g>
   <g id="line2d_22">
    <path clip-path="url(#p8bae6c3cd6)" d="M 256.072728 293.76 
L 256.072728 289.927604 
L 256.789029 289.927604 
L 256.789029 286.095208 
L 257.038106 286.095208 
L 257.038106 282.262812 
L 257.564096 282.262812 
L 257.564096 278.430416 
L 257.978088 278.430416 
L 257.978088 274.59802 
L 258.953745 274.59802 
L 258.953745 270.765624 
L 259.166427 270.765624 
L 259.166427 266.933228 
L 259.948275 266.933228 
L 260.028467 259.268436 
L 260.885133 259.268436 
L 260.885133 255.43604 
L 261.046434 255.43604 
L 261.046434 251.603644 
L 261.392274 251.603644 
L 261.392274 247.771248 
L 261.887659 247.771248 
L 261.887659 243.938851 
L 264.055397 243.938851 
L 264.055397 240.106455 
L 266.076076 240.106455 
L 266.076076 236.274059 
L 287.210951 236.274059 
L 287.210951 232.441663 
L 294.321917 232.441663 
L 294.321917 228.609267 
L 299.205225 228.609267 
L 299.253261 220.944475 
L 299.717805 220.944475 
L 299.717805 217.112079 
L 300.338371 217.112079 
L 300.436992 209.447287 
L 300.798115 209.447287 
L 300.815594 201.782495 
L 300.956093 201.782495 
L 301.055018 194.117703 
L 301.172764 194.117703 
L 301.172764 190.285307 
L 301.4259 190.285307 
L 301.4259 186.452911 
L 302.200512 186.452911 
L 302.200512 182.620515 
L 302.493224 182.620515 
L 302.507306 174.955723 
L 304.066988 174.955723 
L 304.066988 171.123327 
L 312.247235 171.123327 
L 312.247235 167.290931 
L 319.979914 167.290931 
L 319.979914 163.458535 
L 326.879778 163.458535 
L 326.879778 159.626139 
L 332.667016 159.626139 
L 332.667016 155.793743 
L 334.797505 155.793743 
L 334.797505 151.961347 
L 342.783778 151.961347 
L 342.783778 148.12895 
L 344.561196 148.12895 
L 344.561196 144.296554 
L 350.035421 144.296554 
L 350.035421 140.464158 
L 358.841312 140.464158 
L 358.841312 136.631762 
L 360.055542 136.631762 
L 360.055542 132.799366 
L 364.328434 132.799366 
L 364.328434 128.96697 
L 372.510372 128.96697 
L 372.510372 125.134574 
L 374.672373 125.134574 
L 374.672373 121.302178 
L 376.417929 121.302178 
L 376.417929 117.469782 
L 381.773027 117.469782 
L 381.773027 113.637386 
L 382.512312 113.637386 
L 382.559892 105.972594 
L 383.524307 105.972594 
L 383.524307 102.140198 
L 387.963796 102.140198 
L 387.963796 98.307802 
L 388.830908 98.307802 
L 388.830908 94.475406 
L 390.251308 94.475406 
L 390.251308 90.64301 
L 391.500456 90.64301 
L 391.500456 86.810614 
L 391.772666 86.810614 
L 391.772666 82.978218 
L 392.399845 82.978218 
L 392.399845 79.145822 
L 393.369933 79.145822 
L 393.435833 71.48103 
L 393.559623 71.48103 
L 393.559623 67.648634 
L 397.015596 67.648634 
L 397.015596 63.816238 
L 426.088871 63.816238 
L 426.088871 59.983842 
L 428.813326 59.983842 
L 428.813326 56.151446 
L 431.195466 56.151446 
L 431.195466 52.31905 
L 431.646095 52.31905 
L 431.646095 48.486653 
L 435.47963 48.486653 
L 435.581 40.821861 
L 435.89602 40.821861 
L 435.89602 36.989465 
L 438.116856 36.989465 
L 438.116856 33.157069 
L 439.57415 33.157069 
L 439.587745 25.492277 
L 440.795078 25.492277 
L 440.795078 21.659881 
L 443.501089 21.659881 
L 443.501089 17.827485 
L 446.264682 17.827485 
L 446.264682 13.995089 
L 446.603105 13.995089 
L 446.603105 10.162693 
L 449.809616 10.162693 
L 449.809616 6.330297 
L 449.809616 6.330297 
L 460.8 6.330297 
L 460.8 6.330297 
" style="fill:none;stroke:#00bfbf;stroke-linecap:square;stroke-width:1.5;"/>
   </g>
   <g id="line2d_23">
    <path clip-path="url(#p8bae6c3cd6)" d="M 250.173818 293.76 
L 250.173818 289.927604 
L 252.257694 289.927604 
L 252.257694 286.095208 
L 254.142015 286.095208 
L 254.142015 282.262812 
L 254.330702 282.262812 
L 254.330702 278.430416 
L 256.267289 278.430416 
L 256.267289 274.59802 
L 256.789029 274.59802 
L 256.789029 270.765624 
L 257.038106 270.765624 
L 257.038106 266.933228 
L 257.450719 266.933228 
L 257.450719 263.100832 
L 257.978088 263.100832 
L 257.978088 259.268436 
L 258.373149 259.268436 
L 258.373149 255.43604 
L 258.549426 255.43604 
L 258.549426 251.603644 
L 259.166427 251.603644 
L 259.166427 247.771248 
L 260.885133 247.771248 
L 260.885133 243.938851 
L 261.96655 243.938851 
L 261.96655 240.106455 
L 266.076076 240.106455 
L 266.076076 236.274059 
L 286.182747 236.274059 
L 286.182747 232.441663 
L 290.562079 232.441663 
L 290.562079 228.609267 
L 294.321917 228.609267 
L 294.321917 224.776871 
L 298.230134 224.776871 
L 298.230134 220.944475 
L 298.757121 220.944475 
L 298.78864 213.279683 
L 299.205225 213.279683 
L 299.205225 209.447287 
L 299.367216 209.447287 
L 299.367216 205.614891 
L 299.717805 205.614891 
L 299.717805 201.782495 
L 299.967034 201.782495 
L 299.967034 197.950099 
L 300.468392 197.950099 
L 300.468392 194.117703 
L 300.679587 194.117703 
L 300.679587 190.285307 
L 300.798115 190.285307 
L 300.798115 186.452911 
L 300.956093 186.452911 
L 301.055018 178.788119 
L 301.4259 178.788119 
L 301.4259 174.955723 
L 301.676758 174.955723 
L 301.676758 171.123327 
L 302.200512 171.123327 
L 302.200512 167.290931 
L 306.076122 167.290931 
L 306.076122 163.458535 
L 310.247462 163.458535 
L 310.247462 159.626139 
L 312.247235 159.626139 
L 312.247235 155.793743 
L 326.879778 155.793743 
L 326.879778 151.961347 
L 332.667016 151.961347 
L 332.667016 148.12895 
L 334.797505 148.12895 
L 334.797505 144.296554 
L 334.986938 144.296554 
L 334.986938 140.464158 
L 342.783778 140.464158 
L 342.783778 136.631762 
L 344.561196 136.631762 
L 344.561196 132.799366 
L 353.165314 132.799366 
L 353.165314 128.96697 
L 358.841312 128.96697 
L 358.841312 125.134574 
L 372.510372 125.134574 
L 372.593742 117.469782 
L 376.17983 117.469782 
L 376.17983 113.637386 
L 377.249984 113.637386 
L 377.249984 109.80499 
L 381.773027 109.80499 
L 381.773027 105.972594 
L 382.179462 105.972594 
L 382.179462 102.140198 
L 382.512312 102.140198 
L 382.559892 94.475406 
L 383.524307 94.475406 
L 383.524307 90.64301 
L 384.270576 90.64301 
L 384.270576 86.810614 
L 387.412643 86.810614 
L 387.412643 82.978218 
L 390.305529 82.978218 
L 390.305529 79.145822 
L 390.472079 79.145822 
L 390.472079 75.313426 
L 391.500456 75.313426 
L 391.500456 71.48103 
L 392.399845 71.48103 
L 392.399845 67.648634 
L 393.018074 67.648634 
L 393.018074 63.816238 
L 426.088871 63.816238 
L 426.088871 59.983842 
L 428.813326 59.983842 
L 428.813326 56.151446 
L 431.195466 56.151446 
L 431.195466 52.31905 
L 431.646095 52.31905 
L 431.646095 48.486653 
L 434.392956 48.486653 
L 434.392956 44.654257 
L 434.78107 44.654257 
L 434.78107 40.821861 
L 435.382836 40.821861 
L 435.47963 33.157069 
L 435.620339 33.157069 
L 435.620339 29.324673 
L 436.94857 29.324673 
L 436.94857 25.492277 
L 437.392247 25.492277 
L 437.392247 21.659881 
L 437.788244 21.659881 
L 437.788244 17.827485 
L 438.116856 17.827485 
L 438.116856 13.995089 
L 438.911064 13.995089 
L 438.911064 10.162693 
L 439.57415 10.162693 
L 439.57415 6.330297 
L 439.57415 6.330297 
L 460.8 6.330297 
L 460.8 6.330297 
" style="fill:none;stroke:#bf00bf;stroke-linecap:square;stroke-width:1.5;"/>
   </g>
   <g id="patch_3">
    <path d="M 0 293.76 
L 0 3.456 
" style="fill:none;stroke:#000000;stroke-linecap:square;stroke-linejoin:miter;stroke-width:0.8;"/>
   </g>
   <g id="patch_4">
    <path d="M 460.8 293.76 
L 460.8 3.456 
" style="fill:none;stroke:#000000;stroke-linecap:square;stroke-linejoin:miter;stroke-width:0.8;"/>
   </g>
   <g id="patch_5">
    <path d="M -0 293.76 
L 460.8 293.76 
" style="fill:none;stroke:#000000;stroke-linecap:square;stroke-linejoin:miter;stroke-width:0.8;"/>
   </g>
   <g id="patch_6">
    <path d="M -0 3.456 
L 460.8 3.456 
" style="fill:none;stroke:#000000;stroke-linecap:square;stroke-linejoin:miter;stroke-width:0.8;"/>
   </g>
   <g id="text_6">
    <!-- {f10-f14}, 20-D -->
    <defs>
     <path d="M 51.125 -9.28125 
L 51.125 -16.3125 
L 48.09375 -16.3125 
Q 35.9375 -16.3125 31.8125 -12.6875 
Q 27.6875 -9.078125 27.6875 1.703125 
L 27.6875 13.375 
Q 27.6875 20.75 25.046875 23.578125 
Q 22.40625 26.421875 15.484375 26.421875 
L 12.5 26.421875 
L 12.5 33.40625 
L 15.484375 33.40625 
Q 22.46875 33.40625 25.078125 36.203125 
Q 27.6875 39.015625 27.6875 46.296875 
L 27.6875 58.015625 
Q 27.6875 68.796875 31.8125 72.390625 
Q 35.9375 75.984375 48.09375 75.984375 
L 51.125 75.984375 
L 51.125 69 
L 47.796875 69 
Q 40.921875 69 38.8125 66.84375 
Q 36.71875 64.703125 36.71875 57.8125 
L 36.71875 45.703125 
Q 36.71875 38.03125 34.5 34.5625 
Q 32.28125 31.109375 26.90625 29.890625 
Q 32.328125 28.5625 34.515625 25.09375 
Q 36.71875 21.625 36.71875 14.015625 
L 36.71875 1.90625 
Q 36.71875 -4.984375 38.8125 -7.125 
Q 40.921875 -9.28125 47.796875 -9.28125 
z
" id="DejaVuSans-123"/>
     <path d="M 12.5 -9.28125 
L 15.921875 -9.28125 
Q 22.75 -9.28125 24.828125 -7.171875 
Q 26.90625 -5.078125 26.90625 1.90625 
L 26.90625 14.015625 
Q 26.90625 21.625 29.09375 25.09375 
Q 31.296875 28.5625 36.71875 29.890625 
Q 31.296875 31.109375 29.09375 34.5625 
Q 26.90625 38.03125 26.90625 45.703125 
L 26.90625 57.8125 
Q 26.90625 64.75 24.828125 66.875 
Q 22.75 69 15.921875 69 
L 12.5 69 
L 12.5 75.984375 
L 15.578125 75.984375 
Q 27.734375 75.984375 31.8125 72.390625 
Q 35.890625 68.796875 35.890625 58.015625 
L 35.890625 46.296875 
Q 35.890625 39.015625 38.515625 36.203125 
Q 41.15625 33.40625 48.09375 33.40625 
L 51.125 33.40625 
L 51.125 26.421875 
L 48.09375 26.421875 
Q 41.15625 26.421875 38.515625 23.578125 
Q 35.890625 20.75 35.890625 13.375 
L 35.890625 1.703125 
Q 35.890625 -9.078125 31.8125 -12.6875 
Q 27.734375 -16.3125 15.578125 -16.3125 
L 12.5 -16.3125 
z
" id="DejaVuSans-125"/>
     <path d="M 11.71875 12.40625 
L 22.015625 12.40625 
L 22.015625 4 
L 14.015625 -11.625 
L 7.71875 -11.625 
L 11.71875 4 
z
" id="DejaVuSans-44"/>
     <path d="M 19.1875 8.296875 
L 53.609375 8.296875 
L 53.609375 0 
L 7.328125 0 
L 7.328125 8.296875 
Q 12.9375 14.109375 22.625 23.890625 
Q 32.328125 33.6875 34.8125 36.53125 
Q 39.546875 41.84375 41.421875 45.53125 
Q 43.3125 49.21875 43.3125 52.78125 
Q 43.3125 58.59375 39.234375 62.25 
Q 35.15625 65.921875 28.609375 65.921875 
Q 23.96875 65.921875 18.8125 64.3125 
Q 13.671875 62.703125 7.8125 59.421875 
L 7.8125 69.390625 
Q 13.765625 71.78125 18.9375 73 
Q 24.125 74.21875 28.421875 74.21875 
Q 39.75 74.21875 46.484375 68.546875 
Q 53.21875 62.890625 53.21875 53.421875 
Q 53.21875 48.921875 51.53125 44.890625 
Q 49.859375 40.875 45.40625 35.40625 
Q 44.1875 33.984375 37.640625 27.21875 
Q 31.109375 20.453125 19.1875 8.296875 
z
" id="DejaVuSans-50"/>
    </defs>
    <g transform="translate(293.159 287.95392)scale(0.2 -0.2)">
     <use xlink:href="#DejaVuSans-123"/>
     <use x="63.623047" xlink:href="#DejaVuSans-102"/>
     <use x="98.828125" xlink:href="#DejaVuSans-49"/>
     <use x="162.451172" xlink:href="#DejaVuSans-48"/>
     <use x="226.074219" xlink:href="#DejaVuSans-45"/>
     <use x="262.158203" xlink:href="#DejaVuSans-102"/>
     <use x="297.363281" xlink:href="#DejaVuSans-49"/>
     <use x="360.986328" xlink:href="#DejaVuSans-52"/>
     <use x="424.609375" xlink:href="#DejaVuSans-125"/>
     <use x="488.232422" xlink:href="#DejaVuSans-44"/>
     <use x="520.019531" xlink:href="#DejaVuSans-32"/>
     <use x="551.806641" xlink:href="#DejaVuSans-50"/>
     <use x="615.429688" xlink:href="#DejaVuSans-48"/>
     <use x="679.052734" xlink:href="#DejaVuSans-45"/>
     <use x="715.136719" xlink:href="#DejaVuSans-68"/>
    </g>
   </g>
   <g id="text_7">
    <!-- v2.4 -->
    <defs>
     <path d="M 2.984375 54.6875 
L 12.5 54.6875 
L 29.59375 8.796875 
L 46.6875 54.6875 
L 56.203125 54.6875 
L 35.6875 0 
L 23.484375 0 
z
" id="DejaVuSans-118"/>
     <path d="M 10.6875 12.40625 
L 21 12.40625 
L 21 0 
L 10.6875 0 
z
" id="DejaVuSans-46"/>
    </defs>
    <g style="fill:#808080;" transform="translate(219.489063 288.777272)scale(0.1 -0.1)">
     <use xlink:href="#DejaVuSans-118"/>
     <use x="59.179688" xlink:href="#DejaVuSans-50"/>
     <use x="122.802734" xlink:href="#DejaVuSans-46"/>
     <use x="154.589844" xlink:href="#DejaVuSans-52"/>
    </g>
   </g>
  </g>
 </g>
 <defs>
  <clipPath id="p8bae6c3cd6">
   <rect height="290.304" width="460.8" x="0" y="3.456"/>
  </clipPath>
 </defs>
</svg>
