<?xml version="1.0" encoding="utf-8" standalone="no"?>
<!DOCTYPE svg PUBLIC "-//W3C//DTD SVG 1.1//EN"
  "http://www.w3.org/Graphics/SVG/1.1/DTD/svg11.dtd">
<!-- Created with matplotlib (https://matplotlib.org/) -->
<svg height="345.6pt" version="1.1" viewBox="0 0 460.8 345.6" width="460.8pt" xmlns="http://www.w3.org/2000/svg" xmlns:xlink="http://www.w3.org/1999/xlink">
 <defs>
  <style type="text/css">
*{stroke-linecap:butt;stroke-linejoin:round;}
  </style>
 </defs>
 <g id="figure_1">
  <g id="patch_1">
   <path d="M 0 345.6 
L 460.8 345.6 
L 460.8 0 
L 0 0 
z
" style="fill:#ffffff;"/>
  </g>
  <g id="axes_1">
   <g id="patch_2">
    <path d="M 0 293.76 
L 460.8 293.76 
L 460.8 3.456 
L 0 3.456 
z
" style="fill:#ffffff;"/>
   </g>
   <g id="matplotlib.axis_1">
    <g id="xtick_1">
     <g id="line2d_1">
      <path clip-path="url(#p6764b8b786)" d="M 105.975724 293.76 
L 105.975724 3.456 
" style="fill:none;stroke:#b0b0b0;stroke-linecap:square;stroke-width:0.8;"/>
     </g>
     <g id="line2d_2">
      <defs>
       <path d="M 0 0 
L 0 3.5 
" id="mbff64893c0" style="stroke:#000000;stroke-width:0.8;"/>
      </defs>
      <g>
       <use style="stroke:#000000;stroke-width:0.8;" x="105.975724" xlink:href="#mbff64893c0" y="293.76"/>
      </g>
     </g>
     <g id="text_1">
      <!-- -4 -->
      <defs>
       <path d="M 4.890625 31.390625 
L 31.203125 31.390625 
L 31.203125 23.390625 
L 4.890625 23.390625 
z
" id="DejaVuSans-45"/>
       <path d="M 37.796875 64.3125 
L 12.890625 25.390625 
L 37.796875 25.390625 
z
M 35.203125 72.90625 
L 47.609375 72.90625 
L 47.609375 25.390625 
L 58.015625 25.390625 
L 58.015625 17.1875 
L 47.609375 17.1875 
L 47.609375 0 
L 37.796875 0 
L 37.796875 17.1875 
L 4.890625 17.1875 
L 4.890625 26.703125 
z
" id="DejaVuSans-52"/>
      </defs>
      <g transform="translate(96.005412 315.956875)scale(0.2 -0.2)">
       <use xlink:href="#DejaVuSans-45"/>
       <use x="36.083984" xlink:href="#DejaVuSans-52"/>
      </g>
     </g>
    </g>
    <g id="xtick_2">
     <g id="line2d_3">
      <path clip-path="url(#p6764b8b786)" d="M 212.066063 293.76 
L 212.066063 3.456 
" style="fill:none;stroke:#b0b0b0;stroke-linecap:square;stroke-width:0.8;"/>
     </g>
     <g id="line2d_4">
      <g>
       <use style="stroke:#000000;stroke-width:0.8;" x="212.066063" xlink:href="#mbff64893c0" y="293.76"/>
      </g>
     </g>
     <g id="text_2">
      <!-- 0 -->
      <defs>
       <path d="M 31.78125 66.40625 
Q 24.171875 66.40625 20.328125 58.90625 
Q 16.5 51.421875 16.5 36.375 
Q 16.5 21.390625 20.328125 13.890625 
Q 24.171875 6.390625 31.78125 6.390625 
Q 39.453125 6.390625 43.28125 13.890625 
Q 47.125 21.390625 47.125 36.375 
Q 47.125 51.421875 43.28125 58.90625 
Q 39.453125 66.40625 31.78125 66.40625 
z
M 31.78125 74.21875 
Q 44.046875 74.21875 50.515625 64.515625 
Q 56.984375 54.828125 56.984375 36.375 
Q 56.984375 17.96875 50.515625 8.265625 
Q 44.046875 -1.421875 31.78125 -1.421875 
Q 19.53125 -1.421875 13.0625 8.265625 
Q 6.59375 17.96875 6.59375 36.375 
Q 6.59375 54.828125 13.0625 64.515625 
Q 19.53125 74.21875 31.78125 74.21875 
z
" id="DejaVuSans-48"/>
      </defs>
      <g transform="translate(205.703563 315.956875)scale(0.2 -0.2)">
       <use xlink:href="#DejaVuSans-48"/>
      </g>
     </g>
    </g>
    <g id="xtick_3">
     <g id="line2d_5">
      <path clip-path="url(#p6764b8b786)" d="M 318.156401 293.76 
L 318.156401 3.456 
" style="fill:none;stroke:#b0b0b0;stroke-linecap:square;stroke-width:0.8;"/>
     </g>
     <g id="line2d_6">
      <g>
       <use style="stroke:#000000;stroke-width:0.8;" x="318.156401" xlink:href="#mbff64893c0" y="293.76"/>
      </g>
     </g>
     <g id="text_3">
      <!-- 4 -->
      <g transform="translate(311.793901 315.956875)scale(0.2 -0.2)">
       <use xlink:href="#DejaVuSans-52"/>
      </g>
     </g>
    </g>
    <g id="xtick_4">
     <g id="line2d_7">
      <path clip-path="url(#p6764b8b786)" d="M 424.246739 293.76 
L 424.246739 3.456 
" style="fill:none;stroke:#b0b0b0;stroke-linecap:square;stroke-width:0.8;"/>
     </g>
     <g id="line2d_8">
      <g>
       <use style="stroke:#000000;stroke-width:0.8;" x="424.246739" xlink:href="#mbff64893c0" y="293.76"/>
      </g>
     </g>
     <g id="text_4">
      <!-- 8 -->
      <defs>
       <path d="M 31.78125 34.625 
Q 24.75 34.625 20.71875 30.859375 
Q 16.703125 27.09375 16.703125 20.515625 
Q 16.703125 13.921875 20.71875 10.15625 
Q 24.75 6.390625 31.78125 6.390625 
Q 38.8125 6.390625 42.859375 10.171875 
Q 46.921875 13.96875 46.921875 20.515625 
Q 46.921875 27.09375 42.890625 30.859375 
Q 38.875 34.625 31.78125 34.625 
z
M 21.921875 38.8125 
Q 15.578125 40.375 12.03125 44.71875 
Q 8.5 49.078125 8.5 55.328125 
Q 8.5 64.0625 14.71875 69.140625 
Q 20.953125 74.21875 31.78125 74.21875 
Q 42.671875 74.21875 48.875 69.140625 
Q 55.078125 64.0625 55.078125 55.328125 
Q 55.078125 49.078125 51.53125 44.71875 
Q 48 40.375 41.703125 38.8125 
Q 48.828125 37.15625 52.796875 32.3125 
Q 56.78125 27.484375 56.78125 20.515625 
Q 56.78125 9.90625 50.3125 4.234375 
Q 43.84375 -1.421875 31.78125 -1.421875 
Q 19.734375 -1.421875 13.25 4.234375 
Q 6.78125 9.90625 6.78125 20.515625 
Q 6.78125 27.484375 10.78125 32.3125 
Q 14.796875 37.15625 21.921875 38.8125 
z
M 18.3125 54.390625 
Q 18.3125 48.734375 21.84375 45.5625 
Q 25.390625 42.390625 31.78125 42.390625 
Q 38.140625 42.390625 41.71875 45.5625 
Q 45.3125 48.734375 45.3125 54.390625 
Q 45.3125 60.0625 41.71875 63.234375 
Q 38.140625 66.40625 31.78125 66.40625 
Q 25.390625 66.40625 21.84375 63.234375 
Q 18.3125 60.0625 18.3125 54.390625 
z
" id="DejaVuSans-56"/>
      </defs>
      <g transform="translate(417.884239 315.956875)scale(0.2 -0.2)">
       <use xlink:href="#DejaVuSans-56"/>
      </g>
     </g>
    </g>
    <g id="text_5">
     <!-- log10 of Df -->
     <defs>
      <path d="M 9.421875 75.984375 
L 18.40625 75.984375 
L 18.40625 0 
L 9.421875 0 
z
" id="DejaVuSans-108"/>
      <path d="M 30.609375 48.390625 
Q 23.390625 48.390625 19.1875 42.75 
Q 14.984375 37.109375 14.984375 27.296875 
Q 14.984375 17.484375 19.15625 11.84375 
Q 23.34375 6.203125 30.609375 6.203125 
Q 37.796875 6.203125 41.984375 11.859375 
Q 46.1875 17.53125 46.1875 27.296875 
Q 46.1875 37.015625 41.984375 42.703125 
Q 37.796875 48.390625 30.609375 48.390625 
z
M 30.609375 56 
Q 42.328125 56 49.015625 48.375 
Q 55.71875 40.765625 55.71875 27.296875 
Q 55.71875 13.875 49.015625 6.21875 
Q 42.328125 -1.421875 30.609375 -1.421875 
Q 18.84375 -1.421875 12.171875 6.21875 
Q 5.515625 13.875 5.515625 27.296875 
Q 5.515625 40.765625 12.171875 48.375 
Q 18.84375 56 30.609375 56 
z
" id="DejaVuSans-111"/>
      <path d="M 45.40625 27.984375 
Q 45.40625 37.75 41.375 43.109375 
Q 37.359375 48.484375 30.078125 48.484375 
Q 22.859375 48.484375 18.828125 43.109375 
Q 14.796875 37.75 14.796875 27.984375 
Q 14.796875 18.265625 18.828125 12.890625 
Q 22.859375 7.515625 30.078125 7.515625 
Q 37.359375 7.515625 41.375 12.890625 
Q 45.40625 18.265625 45.40625 27.984375 
z
M 54.390625 6.78125 
Q 54.390625 -7.171875 48.1875 -13.984375 
Q 42 -20.796875 29.203125 -20.796875 
Q 24.46875 -20.796875 20.265625 -20.09375 
Q 16.0625 -19.390625 12.109375 -17.921875 
L 12.109375 -9.1875 
Q 16.0625 -11.328125 19.921875 -12.34375 
Q 23.78125 -13.375 27.78125 -13.375 
Q 36.625 -13.375 41.015625 -8.765625 
Q 45.40625 -4.15625 45.40625 5.171875 
L 45.40625 9.625 
Q 42.625 4.78125 38.28125 2.390625 
Q 33.9375 0 27.875 0 
Q 17.828125 0 11.671875 7.65625 
Q 5.515625 15.328125 5.515625 27.984375 
Q 5.515625 40.671875 11.671875 48.328125 
Q 17.828125 56 27.875 56 
Q 33.9375 56 38.28125 53.609375 
Q 42.625 51.21875 45.40625 46.390625 
L 45.40625 54.6875 
L 54.390625 54.6875 
z
" id="DejaVuSans-103"/>
      <path d="M 12.40625 8.296875 
L 28.515625 8.296875 
L 28.515625 63.921875 
L 10.984375 60.40625 
L 10.984375 69.390625 
L 28.421875 72.90625 
L 38.28125 72.90625 
L 38.28125 8.296875 
L 54.390625 8.296875 
L 54.390625 0 
L 12.40625 0 
z
" id="DejaVuSans-49"/>
      <path id="DejaVuSans-32"/>
      <path d="M 37.109375 75.984375 
L 37.109375 68.5 
L 28.515625 68.5 
Q 23.6875 68.5 21.796875 66.546875 
Q 19.921875 64.59375 19.921875 59.515625 
L 19.921875 54.6875 
L 34.71875 54.6875 
L 34.71875 47.703125 
L 19.921875 47.703125 
L 19.921875 0 
L 10.890625 0 
L 10.890625 47.703125 
L 2.296875 47.703125 
L 2.296875 54.6875 
L 10.890625 54.6875 
L 10.890625 58.5 
Q 10.890625 67.625 15.140625 71.796875 
Q 19.390625 75.984375 28.609375 75.984375 
z
" id="DejaVuSans-102"/>
      <path d="M 19.671875 64.796875 
L 19.671875 8.109375 
L 31.59375 8.109375 
Q 46.6875 8.109375 53.6875 14.9375 
Q 60.6875 21.78125 60.6875 36.53125 
Q 60.6875 51.171875 53.6875 57.984375 
Q 46.6875 64.796875 31.59375 64.796875 
z
M 9.8125 72.90625 
L 30.078125 72.90625 
Q 51.265625 72.90625 61.171875 64.09375 
Q 71.09375 55.28125 71.09375 36.53125 
Q 71.09375 17.671875 61.125 8.828125 
Q 51.171875 0 30.078125 0 
L 9.8125 0 
z
" id="DejaVuSans-68"/>
     </defs>
     <g transform="translate(175.214063 339.313125)scale(0.2 -0.2)">
      <use xlink:href="#DejaVuSans-108"/>
      <use x="27.783203" xlink:href="#DejaVuSans-111"/>
      <use x="88.964844" xlink:href="#DejaVuSans-103"/>
      <use x="152.441406" xlink:href="#DejaVuSans-49"/>
      <use x="216.064453" xlink:href="#DejaVuSans-48"/>
      <use x="279.6875" xlink:href="#DejaVuSans-32"/>
      <use x="311.474609" xlink:href="#DejaVuSans-111"/>
      <use x="372.65625" xlink:href="#DejaVuSans-102"/>
      <use x="407.861328" xlink:href="#DejaVuSans-32"/>
      <use x="439.648438" xlink:href="#DejaVuSans-68"/>
      <use x="516.650391" xlink:href="#DejaVuSans-102"/>
     </g>
    </g>
   </g>
   <g id="matplotlib.axis_2">
    <g id="ytick_1">
     <g id="line2d_9">
      <path clip-path="url(#p6764b8b786)" d="M 0 293.76 
L 460.8 293.76 
" style="fill:none;stroke:#b0b0b0;stroke-linecap:square;stroke-width:0.8;"/>
     </g>
     <g id="line2d_10">
      <defs>
       <path d="M 0 0 
L -3.5 0 
" id="m0895b0944f" style="stroke:#000000;stroke-width:0.8;"/>
      </defs>
      <g>
       <use style="stroke:#000000;stroke-width:0.8;" x="0" xlink:href="#m0895b0944f" y="293.76"/>
      </g>
     </g>
    </g>
    <g id="ytick_2">
     <g id="line2d_11">
      <path clip-path="url(#p6764b8b786)" d="M 0 236.274059 
L 460.8 236.274059 
" style="fill:none;stroke:#b0b0b0;stroke-linecap:square;stroke-width:0.8;"/>
     </g>
     <g id="line2d_12">
      <g>
       <use style="stroke:#000000;stroke-width:0.8;" x="0" xlink:href="#m0895b0944f" y="236.274059"/>
      </g>
     </g>
    </g>
    <g id="ytick_3">
     <g id="line2d_13">
      <path clip-path="url(#p6764b8b786)" d="M 0 178.788119 
L 460.8 178.788119 
" style="fill:none;stroke:#b0b0b0;stroke-linecap:square;stroke-width:0.8;"/>
     </g>
     <g id="line2d_14">
      <g>
       <use style="stroke:#000000;stroke-width:0.8;" x="0" xlink:href="#m0895b0944f" y="178.788119"/>
      </g>
     </g>
    </g>
    <g id="ytick_4">
     <g id="line2d_15">
      <path clip-path="url(#p6764b8b786)" d="M 0 121.302178 
L 460.8 121.302178 
" style="fill:none;stroke:#b0b0b0;stroke-linecap:square;stroke-width:0.8;"/>
     </g>
     <g id="line2d_16">
      <g>
       <use style="stroke:#000000;stroke-width:0.8;" x="0" xlink:href="#m0895b0944f" y="121.302178"/>
      </g>
     </g>
    </g>
    <g id="ytick_5">
     <g id="line2d_17">
      <path clip-path="url(#p6764b8b786)" d="M 0 63.816238 
L 460.8 63.816238 
" style="fill:none;stroke:#b0b0b0;stroke-linecap:square;stroke-width:0.8;"/>
     </g>
     <g id="line2d_18">
      <g>
       <use style="stroke:#000000;stroke-width:0.8;" x="0" xlink:href="#m0895b0944f" y="63.816238"/>
      </g>
     </g>
    </g>
    <g id="ytick_6">
     <g id="line2d_19">
      <path clip-path="url(#p6764b8b786)" d="M 0 6.330297 
L 460.8 6.330297 
" style="fill:none;stroke:#b0b0b0;stroke-linecap:square;stroke-width:0.8;"/>
     </g>
     <g id="line2d_20">
      <g>
       <use style="stroke:#000000;stroke-width:0.8;" x="0" xlink:href="#m0895b0944f" y="6.330297"/>
      </g>
     </g>
    </g>
   </g>
   <g id="line2d_21">
    <path clip-path="url(#p6764b8b786)" d="M 243.447187 293.76 
L 243.447187 288.969505 
L 245.684514 288.969505 
L 245.684514 284.17901 
L 252.141243 284.17901 
L 252.141243 279.388515 
L 254.904881 279.388515 
L 254.904881 274.59802 
L 258.877109 274.59802 
L 258.877109 269.807525 
L 259.862689 269.807525 
L 259.862689 265.01703 
L 261.90722 265.01703 
L 261.90722 260.226535 
L 263.32007 260.226535 
L 263.32007 255.43604 
L 265.767803 255.43604 
L 265.767803 250.645545 
L 266.526495 250.645545 
L 266.526495 245.85505 
L 267.020949 245.85505 
L 267.020949 241.064554 
L 267.460035 241.064554 
L 267.460035 236.274059 
L 267.46708 236.274059 
L 267.46708 231.483564 
L 267.853853 231.483564 
L 267.853853 226.693069 
L 273.848419 226.693069 
L 273.848419 221.902574 
L 275.743523 221.902574 
L 275.743523 217.112079 
L 276.57216 217.112079 
L 276.57216 212.321584 
L 277.103025 212.321584 
L 277.103025 207.531089 
L 279.397177 207.531089 
L 279.397177 202.740594 
L 286.708785 202.740594 
L 286.708785 197.950099 
L 288.048533 197.950099 
L 288.048533 193.159604 
L 290.1657 193.159604 
L 290.1657 188.369109 
L 290.405493 188.369109 
L 290.405493 183.578614 
L 292.733754 183.578614 
L 292.733754 178.788119 
L 295.367468 178.788119 
L 295.367468 173.997624 
L 299.124034 173.997624 
L 299.124034 169.207129 
L 304.314772 169.207129 
L 304.314772 164.416634 
L 305.325301 164.416634 
L 305.325301 159.626139 
L 307.024602 159.626139 
L 307.024602 154.835644 
L 308.704226 154.835644 
L 308.704226 150.045149 
L 310.445978 150.045149 
L 310.445978 145.254653 
L 310.618464 145.254653 
L 310.618464 140.464158 
L 313.755482 140.464158 
L 313.755482 135.673663 
L 314.388929 135.673663 
L 314.388929 130.883168 
L 314.739819 130.883168 
L 314.739819 126.092673 
L 315.20355 126.092673 
L 315.20355 121.302178 
L 315.288578 121.302178 
L 315.288578 116.511683 
L 318.062135 116.511683 
L 318.062135 111.721188 
L 318.511189 111.721188 
L 318.511189 106.930693 
L 320.792069 106.930693 
L 320.792069 102.140198 
L 321.29187 102.140198 
L 321.29187 97.349703 
L 321.488517 97.349703 
L 321.488517 92.559208 
L 321.873023 92.559208 
L 321.873023 87.768713 
L 322.77314 87.768713 
L 322.77314 82.978218 
L 323.421678 82.978218 
L 323.421678 78.187723 
L 323.492439 78.187723 
L 323.492439 73.397228 
L 324.053557 73.397228 
L 324.053557 68.606733 
L 324.273965 68.606733 
L 324.273965 63.816238 
L 324.414347 63.816238 
L 324.414347 59.025743 
L 325.934303 59.025743 
L 325.934303 54.235248 
L 326.302572 54.235248 
L 326.302572 49.444752 
L 331.44414 49.444752 
L 331.44414 44.654257 
L 331.882216 44.654257 
L 331.882216 39.863762 
L 333.397527 39.863762 
L 333.397527 35.073267 
L 341.0143 35.073267 
L 341.0143 30.282772 
L 342.656167 30.282772 
L 342.656167 25.492277 
L 345.597722 25.492277 
L 345.597722 20.701782 
L 345.939526 20.701782 
L 345.939526 15.911287 
L 346.918182 15.911287 
L 346.918182 11.120792 
L 349.240208 11.120792 
L 349.240208 6.330297 
L 349.240208 6.330297 
L 349.240208 6.330297 
L 460.8 6.330297 
" style="fill:none;stroke:#ff0000;stroke-linecap:square;stroke-width:3;"/>
   </g>
   <g id="line2d_22">
    <path clip-path="url(#p6764b8b786)" d="M 266.407046 293.76 
L 266.407046 288.969505 
L 267.720434 288.969505 
L 267.720434 284.17901 
L 268.767776 284.17901 
L 268.767776 279.388515 
L 270.411804 279.388515 
L 270.411804 274.59802 
L 273.698918 274.59802 
L 273.698918 269.807525 
L 275.450171 269.807525 
L 275.450171 265.01703 
L 276.82859 265.01703 
L 276.82859 260.226535 
L 279.343449 260.226535 
L 279.343449 255.43604 
L 280.939797 255.43604 
L 280.939797 250.645545 
L 281.918598 250.645545 
L 281.918598 245.85505 
L 283.085964 245.85505 
L 283.085964 241.064554 
L 283.709517 241.064554 
L 283.709517 236.274059 
L 286.485626 236.274059 
L 286.485626 231.483564 
L 286.910461 231.483564 
L 286.910461 226.693069 
L 289.263308 226.693069 
L 289.263308 221.902574 
L 290.565417 221.902574 
L 290.565417 217.112079 
L 307.024602 217.112079 
L 307.024602 212.321584 
L 308.704226 212.321584 
L 308.704226 207.531089 
L 313.755482 207.531089 
L 313.755482 202.740594 
L 317.611301 202.740594 
L 317.611301 197.950099 
L 318.186175 197.950099 
L 318.186175 193.159604 
L 320.729453 193.159604 
L 320.729453 188.369109 
L 321.573625 188.369109 
L 321.573625 183.578614 
L 323.492439 183.578614 
L 323.492439 178.788119 
L 323.949705 178.788119 
L 323.949705 173.997624 
L 324.414347 173.997624 
L 324.414347 169.207129 
L 324.715212 169.207129 
L 324.715212 164.416634 
L 324.885168 164.416634 
L 324.885168 159.626139 
L 325.792456 159.626139 
L 325.792456 154.835644 
L 326.677299 154.835644 
L 326.677299 150.045149 
L 326.994 150.045149 
L 326.994 145.254653 
L 327.570637 145.254653 
L 327.570637 140.464158 
L 329.056784 140.464158 
L 329.056784 135.673663 
L 329.726591 135.673663 
L 329.726591 130.883168 
L 331.519636 130.883168 
L 331.519636 126.092673 
L 332.099447 126.092673 
L 332.099447 121.302178 
L 332.312593 121.302178 
L 332.312593 116.511683 
L 332.70906 116.511683 
L 332.70906 111.721188 
L 333.397527 111.721188 
L 333.397527 106.930693 
L 333.422048 106.930693 
L 333.422048 102.140198 
L 334.016616 102.140198 
L 334.016616 97.349703 
L 334.737387 97.349703 
L 334.737387 92.559208 
L 335.454845 92.559208 
L 335.454845 87.768713 
L 335.790541 87.768713 
L 335.790541 82.978218 
L 335.909991 82.978218 
L 335.909991 78.187723 
L 335.969383 78.187723 
L 335.969383 73.397228 
L 336.680577 73.397228 
L 336.680577 68.606733 
L 337.691802 68.606733 
L 337.691802 63.816238 
L 340.343213 63.816238 
L 340.343213 59.025743 
L 340.892921 59.025743 
L 340.892921 54.235248 
L 342.376661 54.235248 
L 342.376661 49.444752 
L 346.051199 49.444752 
L 346.051199 44.654257 
L 346.733638 44.654257 
L 346.733638 39.863762 
L 349.240208 39.863762 
L 349.240208 35.073267 
L 350.246371 35.073267 
L 350.246371 30.282772 
L 354.869625 30.282772 
L 354.869625 25.492277 
L 355.363878 25.492277 
L 355.363878 20.701782 
L 356.048858 20.701782 
L 356.048858 15.911287 
L 361.750933 15.911287 
L 361.750933 11.120792 
L 364.952632 11.120792 
L 364.952632 6.330297 
L 364.952632 6.330297 
L 364.952632 6.330297 
L 460.8 6.330297 
" style="fill:none;stroke:#00bfbf;stroke-linecap:square;stroke-width:1.5;"/>
   </g>
   <g id="line2d_23">
    <path clip-path="url(#p6764b8b786)" d="M 243.447187 293.76 
L 243.447187 288.969505 
L 245.684514 288.969505 
L 245.684514 284.17901 
L 256.384776 284.17901 
L 256.384776 279.388515 
L 259.862689 279.388515 
L 259.862689 274.59802 
L 261.90722 274.59802 
L 261.90722 269.807525 
L 262.270948 269.807525 
L 262.270948 265.01703 
L 266.407046 265.01703 
L 266.407046 260.226535 
L 267.020949 260.226535 
L 267.020949 255.43604 
L 267.853853 255.43604 
L 267.853853 250.645545 
L 271.324777 250.645545 
L 271.324777 245.85505 
L 273.698918 245.85505 
L 273.698918 241.064554 
L 273.848419 241.064554 
L 273.848419 236.274059 
L 276.254097 236.274059 
L 276.254097 231.483564 
L 276.57216 231.483564 
L 276.57216 226.693069 
L 279.139724 226.693069 
L 279.139724 221.902574 
L 280.841429 221.902574 
L 280.841429 217.112079 
L 286.210365 217.112079 
L 286.210365 212.321584 
L 286.708785 212.321584 
L 286.708785 207.531089 
L 292.733754 207.531089 
L 292.733754 202.740594 
L 299.124034 202.740594 
L 299.124034 197.950099 
L 303.871769 197.950099 
L 303.871769 193.159604 
L 304.314772 193.159604 
L 304.314772 188.369109 
L 305.325301 188.369109 
L 305.325301 183.578614 
L 307.024602 183.578614 
L 307.024602 178.788119 
L 308.704226 178.788119 
L 308.704226 173.997624 
L 310.618464 173.997624 
L 310.618464 169.207129 
L 310.736832 169.207129 
L 310.736832 164.416634 
L 313.755482 164.416634 
L 313.755482 159.626139 
L 314.388929 159.626139 
L 314.388929 154.835644 
L 315.288578 154.835644 
L 315.288578 150.045149 
L 317.611301 150.045149 
L 317.611301 145.254653 
L 318.511189 145.254653 
L 318.511189 140.464158 
L 320.210649 140.464158 
L 320.210649 135.673663 
L 320.792069 135.673663 
L 320.792069 130.883168 
L 321.573625 130.883168 
L 321.573625 126.092673 
L 321.873023 126.092673 
L 321.873023 121.302178 
L 323.492439 121.302178 
L 323.492439 116.511683 
L 323.524408 116.511683 
L 323.524408 111.721188 
L 324.237328 111.721188 
L 324.237328 106.930693 
L 324.414347 106.930693 
L 324.414347 102.140198 
L 324.715212 102.140198 
L 324.715212 97.349703 
L 324.798735 97.349703 
L 324.798735 92.559208 
L 325.792456 92.559208 
L 325.792456 87.768713 
L 325.934303 87.768713 
L 325.934303 82.978218 
L 326.574498 82.978218 
L 326.574498 78.187723 
L 327.35254 78.187723 
L 327.35254 73.397228 
L 329.056784 73.397228 
L 329.056784 68.606733 
L 329.726591 68.606733 
L 329.726591 63.816238 
L 330.084816 63.816238 
L 330.084816 59.025743 
L 331.44414 59.025743 
L 331.44414 54.235248 
L 331.882216 54.235248 
L 331.882216 49.444752 
L 331.895994 49.444752 
L 331.895994 44.654257 
L 332.70906 44.654257 
L 332.70906 39.863762 
L 333.397527 39.863762 
L 333.397527 35.073267 
L 346.276242 35.073267 
L 346.276242 30.282772 
L 346.733638 30.282772 
L 346.733638 25.492277 
L 346.918182 25.492277 
L 346.918182 20.701782 
L 349.240208 20.701782 
L 349.240208 15.911287 
L 352.235251 15.911287 
L 352.235251 11.120792 
L 363.423884 11.120792 
L 363.423884 6.330297 
L 363.423884 6.330297 
L 363.423884 6.330297 
L 460.8 6.330297 
" style="fill:none;stroke:#bf00bf;stroke-linecap:square;stroke-width:1.5;"/>
   </g>
   <g id="patch_3">
    <path d="M 0 293.76 
L 0 3.456 
" style="fill:none;stroke:#000000;stroke-linecap:square;stroke-linejoin:miter;stroke-width:0.8;"/>
   </g>
   <g id="patch_4">
    <path d="M 460.8 293.76 
L 460.8 3.456 
" style="fill:none;stroke:#000000;stroke-linecap:square;stroke-linejoin:miter;stroke-width:0.8;"/>
   </g>
   <g id="patch_5">
    <path d="M 0 293.76 
L 460.8 293.76 
" style="fill:none;stroke:#000000;stroke-linecap:square;stroke-linejoin:miter;stroke-width:0.8;"/>
   </g>
   <g id="patch_6">
    <path d="M 0 3.456 
L 460.8 3.456 
" style="fill:none;stroke:#000000;stroke-linecap:square;stroke-linejoin:miter;stroke-width:0.8;"/>
   </g>
   <g id="text_6">
    <!-- {f6-f9}, 5-D -->
    <defs>
     <path d="M 51.125 -9.28125 
L 51.125 -16.3125 
L 48.09375 -16.3125 
Q 35.9375 -16.3125 31.8125 -12.6875 
Q 27.6875 -9.078125 27.6875 1.703125 
L 27.6875 13.375 
Q 27.6875 20.75 25.046875 23.578125 
Q 22.40625 26.421875 15.484375 26.421875 
L 12.5 26.421875 
L 12.5 33.40625 
L 15.484375 33.40625 
Q 22.46875 33.40625 25.078125 36.203125 
Q 27.6875 39.015625 27.6875 46.296875 
L 27.6875 58.015625 
Q 27.6875 68.796875 31.8125 72.390625 
Q 35.9375 75.984375 48.09375 75.984375 
L 51.125 75.984375 
L 51.125 69 
L 47.796875 69 
Q 40.921875 69 38.8125 66.84375 
Q 36.71875 64.703125 36.71875 57.8125 
L 36.71875 45.703125 
Q 36.71875 38.03125 34.5 34.5625 
Q 32.28125 31.109375 26.90625 29.890625 
Q 32.328125 28.5625 34.515625 25.09375 
Q 36.71875 21.625 36.71875 14.015625 
L 36.71875 1.90625 
Q 36.71875 -4.984375 38.8125 -7.125 
Q 40.921875 -9.28125 47.796875 -9.28125 
z
" id="DejaVuSans-123"/>
     <path d="M 33.015625 40.375 
Q 26.375 40.375 22.484375 35.828125 
Q 18.609375 31.296875 18.609375 23.390625 
Q 18.609375 15.53125 22.484375 10.953125 
Q 26.375 6.390625 33.015625 6.390625 
Q 39.65625 6.390625 43.53125 10.953125 
Q 47.40625 15.53125 47.40625 23.390625 
Q 47.40625 31.296875 43.53125 35.828125 
Q 39.65625 40.375 33.015625 40.375 
z
M 52.59375 71.296875 
L 52.59375 62.3125 
Q 48.875 64.0625 45.09375 64.984375 
Q 41.3125 65.921875 37.59375 65.921875 
Q 27.828125 65.921875 22.671875 59.328125 
Q 17.53125 52.734375 16.796875 39.40625 
Q 19.671875 43.65625 24.015625 45.921875 
Q 28.375 48.1875 33.59375 48.1875 
Q 44.578125 48.1875 50.953125 41.515625 
Q 57.328125 34.859375 57.328125 23.390625 
Q 57.328125 12.15625 50.6875 5.359375 
Q 44.046875 -1.421875 33.015625 -1.421875 
Q 20.359375 -1.421875 13.671875 8.265625 
Q 6.984375 17.96875 6.984375 36.375 
Q 6.984375 53.65625 15.1875 63.9375 
Q 23.390625 74.21875 37.203125 74.21875 
Q 40.921875 74.21875 44.703125 73.484375 
Q 48.484375 72.75 52.59375 71.296875 
z
" id="DejaVuSans-54"/>
     <path d="M 10.984375 1.515625 
L 10.984375 10.5 
Q 14.703125 8.734375 18.5 7.8125 
Q 22.3125 6.890625 25.984375 6.890625 
Q 35.75 6.890625 40.890625 13.453125 
Q 46.046875 20.015625 46.78125 33.40625 
Q 43.953125 29.203125 39.59375 26.953125 
Q 35.25 24.703125 29.984375 24.703125 
Q 19.046875 24.703125 12.671875 31.3125 
Q 6.296875 37.9375 6.296875 49.421875 
Q 6.296875 60.640625 12.9375 67.421875 
Q 19.578125 74.21875 30.609375 74.21875 
Q 43.265625 74.21875 49.921875 64.515625 
Q 56.59375 54.828125 56.59375 36.375 
Q 56.59375 19.140625 48.40625 8.859375 
Q 40.234375 -1.421875 26.421875 -1.421875 
Q 22.703125 -1.421875 18.890625 -0.6875 
Q 15.09375 0.046875 10.984375 1.515625 
z
M 30.609375 32.421875 
Q 37.25 32.421875 41.125 36.953125 
Q 45.015625 41.5 45.015625 49.421875 
Q 45.015625 57.28125 41.125 61.84375 
Q 37.25 66.40625 30.609375 66.40625 
Q 23.96875 66.40625 20.09375 61.84375 
Q 16.21875 57.28125 16.21875 49.421875 
Q 16.21875 41.5 20.09375 36.953125 
Q 23.96875 32.421875 30.609375 32.421875 
z
" id="DejaVuSans-57"/>
     <path d="M 12.5 -9.28125 
L 15.921875 -9.28125 
Q 22.75 -9.28125 24.828125 -7.171875 
Q 26.90625 -5.078125 26.90625 1.90625 
L 26.90625 14.015625 
Q 26.90625 21.625 29.09375 25.09375 
Q 31.296875 28.5625 36.71875 29.890625 
Q 31.296875 31.109375 29.09375 34.5625 
Q 26.90625 38.03125 26.90625 45.703125 
L 26.90625 57.8125 
Q 26.90625 64.75 24.828125 66.875 
Q 22.75 69 15.921875 69 
L 12.5 69 
L 12.5 75.984375 
L 15.578125 75.984375 
Q 27.734375 75.984375 31.8125 72.390625 
Q 35.890625 68.796875 35.890625 58.015625 
L 35.890625 46.296875 
Q 35.890625 39.015625 38.515625 36.203125 
Q 41.15625 33.40625 48.09375 33.40625 
L 51.125 33.40625 
L 51.125 26.421875 
L 48.09375 26.421875 
Q 41.15625 26.421875 38.515625 23.578125 
Q 35.890625 20.75 35.890625 13.375 
L 35.890625 1.703125 
Q 35.890625 -9.078125 31.8125 -12.6875 
Q 27.734375 -16.3125 15.578125 -16.3125 
L 12.5 -16.3125 
z
" id="DejaVuSans-125"/>
     <path d="M 11.71875 12.40625 
L 22.015625 12.40625 
L 22.015625 4 
L 14.015625 -11.625 
L 7.71875 -11.625 
L 11.71875 4 
z
" id="DejaVuSans-44"/>
     <path d="M 10.796875 72.90625 
L 49.515625 72.90625 
L 49.515625 64.59375 
L 19.828125 64.59375 
L 19.828125 46.734375 
Q 21.96875 47.46875 24.109375 47.828125 
Q 26.265625 48.1875 28.421875 48.1875 
Q 40.625 48.1875 47.75 41.5 
Q 54.890625 34.8125 54.890625 23.390625 
Q 54.890625 11.625 47.5625 5.09375 
Q 40.234375 -1.421875 26.90625 -1.421875 
Q 22.3125 -1.421875 17.546875 -0.640625 
Q 12.796875 0.140625 7.71875 1.703125 
L 7.71875 11.625 
Q 12.109375 9.234375 16.796875 8.0625 
Q 21.484375 6.890625 26.703125 6.890625 
Q 35.15625 6.890625 40.078125 11.328125 
Q 45.015625 15.765625 45.015625 23.390625 
Q 45.015625 31 40.078125 35.4375 
Q 35.15625 39.890625 26.703125 39.890625 
Q 22.75 39.890625 18.8125 39.015625 
Q 14.890625 38.140625 10.796875 36.28125 
z
" id="DejaVuSans-53"/>
    </defs>
    <g transform="translate(331.334 287.95392)scale(0.2 -0.2)">
     <use xlink:href="#DejaVuSans-123"/>
     <use x="63.623047" xlink:href="#DejaVuSans-102"/>
     <use x="98.828125" xlink:href="#DejaVuSans-54"/>
     <use x="162.451172" xlink:href="#DejaVuSans-45"/>
     <use x="198.535156" xlink:href="#DejaVuSans-102"/>
     <use x="233.740234" xlink:href="#DejaVuSans-57"/>
     <use x="297.363281" xlink:href="#DejaVuSans-125"/>
     <use x="360.986328" xlink:href="#DejaVuSans-44"/>
     <use x="392.773438" xlink:href="#DejaVuSans-32"/>
     <use x="424.560547" xlink:href="#DejaVuSans-53"/>
     <use x="488.183594" xlink:href="#DejaVuSans-45"/>
     <use x="524.267578" xlink:href="#DejaVuSans-68"/>
    </g>
   </g>
   <g id="text_7">
    <!-- v2.4 -->
    <defs>
     <path d="M 2.984375 54.6875 
L 12.5 54.6875 
L 29.59375 8.796875 
L 46.6875 54.6875 
L 56.203125 54.6875 
L 35.6875 0 
L 23.484375 0 
z
" id="DejaVuSans-118"/>
     <path d="M 19.1875 8.296875 
L 53.609375 8.296875 
L 53.609375 0 
L 7.328125 0 
L 7.328125 8.296875 
Q 12.9375 14.109375 22.625 23.890625 
Q 32.328125 33.6875 34.8125 36.53125 
Q 39.546875 41.84375 41.421875 45.53125 
Q 43.3125 49.21875 43.3125 52.78125 
Q 43.3125 58.59375 39.234375 62.25 
Q 35.15625 65.921875 28.609375 65.921875 
Q 23.96875 65.921875 18.8125 64.3125 
Q 13.671875 62.703125 7.8125 59.421875 
L 7.8125 69.390625 
Q 13.765625 71.78125 18.9375 73 
Q 24.125 74.21875 28.421875 74.21875 
Q 39.75 74.21875 46.484375 68.546875 
Q 53.21875 62.890625 53.21875 53.421875 
Q 53.21875 48.921875 51.53125 44.890625 
Q 49.859375 40.875 45.40625 35.40625 
Q 44.1875 33.984375 37.640625 27.21875 
Q 31.109375 20.453125 19.1875 8.296875 
z
" id="DejaVuSans-50"/>
     <path d="M 10.6875 12.40625 
L 21 12.40625 
L 21 0 
L 10.6875 0 
z
" id="DejaVuSans-46"/>
    </defs>
    <g style="fill:#808080;" transform="translate(219.489063 288.777272)scale(0.1 -0.1)">
     <use xlink:href="#DejaVuSans-118"/>
     <use x="59.179688" xlink:href="#DejaVuSans-50"/>
     <use x="122.802734" xlink:href="#DejaVuSans-46"/>
     <use x="154.589844" xlink:href="#DejaVuSans-52"/>
    </g>
   </g>
  </g>
 </g>
 <defs>
  <clipPath id="p6764b8b786">
   <rect height="290.304" width="460.8" x="0" y="3.456"/>
  </clipPath>
 </defs>
</svg>
