<?xml version="1.0" encoding="utf-8" standalone="no"?>
<!DOCTYPE svg PUBLIC "-//W3C//DTD SVG 1.1//EN"
  "http://www.w3.org/Graphics/SVG/1.1/DTD/svg11.dtd">
<!-- Created with matplotlib (https://matplotlib.org/) -->
<svg height="345.6pt" version="1.1" viewBox="0 0 460.8 345.6" width="460.8pt" xmlns="http://www.w3.org/2000/svg" xmlns:xlink="http://www.w3.org/1999/xlink">
 <defs>
  <style type="text/css">
*{stroke-linecap:butt;stroke-linejoin:round;}
  </style>
 </defs>
 <g id="figure_1">
  <g id="patch_1">
   <path d="M 0 345.6 
L 460.8 345.6 
L 460.8 0 
L 0 0 
z
" style="fill:#ffffff;"/>
  </g>
  <g id="axes_1">
   <g id="patch_2">
    <path d="M 0 293.76 
L 460.8 293.76 
L 460.8 3.456 
L 0 3.456 
z
" style="fill:#ffffff;"/>
   </g>
   <g id="matplotlib.axis_1">
    <g id="xtick_1">
     <g id="line2d_1">
      <path clip-path="url(#pf822ab8ecc)" d="M 104.470891 293.76 
L 104.470891 3.456 
" style="fill:none;stroke:#b0b0b0;stroke-linecap:square;stroke-width:0.8;"/>
     </g>
     <g id="line2d_2">
      <defs>
       <path d="M 0 0 
L 0 3.5 
" id="md4d4993739" style="stroke:#000000;stroke-width:0.8;"/>
      </defs>
      <g>
       <use style="stroke:#000000;stroke-width:0.8;" x="104.470891" xlink:href="#md4d4993739" y="293.76"/>
      </g>
     </g>
     <g id="text_1">
      <!-- -4 -->
      <defs>
       <path d="M 4.890625 31.390625 
L 31.203125 31.390625 
L 31.203125 23.390625 
L 4.890625 23.390625 
z
" id="DejaVuSans-45"/>
       <path d="M 37.796875 64.3125 
L 12.890625 25.390625 
L 37.796875 25.390625 
z
M 35.203125 72.90625 
L 47.609375 72.90625 
L 47.609375 25.390625 
L 58.015625 25.390625 
L 58.015625 17.1875 
L 47.609375 17.1875 
L 47.609375 0 
L 37.796875 0 
L 37.796875 17.1875 
L 4.890625 17.1875 
L 4.890625 26.703125 
z
" id="DejaVuSans-52"/>
      </defs>
      <g transform="translate(94.500579 315.956875)scale(0.2 -0.2)">
       <use xlink:href="#DejaVuSans-45"/>
       <use x="36.083984" xlink:href="#DejaVuSans-52"/>
      </g>
     </g>
    </g>
    <g id="xtick_2">
     <g id="line2d_3">
      <path clip-path="url(#pf822ab8ecc)" d="M 209.054769 293.76 
L 209.054769 3.456 
" style="fill:none;stroke:#b0b0b0;stroke-linecap:square;stroke-width:0.8;"/>
     </g>
     <g id="line2d_4">
      <g>
       <use style="stroke:#000000;stroke-width:0.8;" x="209.054769" xlink:href="#md4d4993739" y="293.76"/>
      </g>
     </g>
     <g id="text_2">
      <!-- 0 -->
      <defs>
       <path d="M 31.78125 66.40625 
Q 24.171875 66.40625 20.328125 58.90625 
Q 16.5 51.421875 16.5 36.375 
Q 16.5 21.390625 20.328125 13.890625 
Q 24.171875 6.390625 31.78125 6.390625 
Q 39.453125 6.390625 43.28125 13.890625 
Q 47.125 21.390625 47.125 36.375 
Q 47.125 51.421875 43.28125 58.90625 
Q 39.453125 66.40625 31.78125 66.40625 
z
M 31.78125 74.21875 
Q 44.046875 74.21875 50.515625 64.515625 
Q 56.984375 54.828125 56.984375 36.375 
Q 56.984375 17.96875 50.515625 8.265625 
Q 44.046875 -1.421875 31.78125 -1.421875 
Q 19.53125 -1.421875 13.0625 8.265625 
Q 6.59375 17.96875 6.59375 36.375 
Q 6.59375 54.828125 13.0625 64.515625 
Q 19.53125 74.21875 31.78125 74.21875 
z
" id="DejaVuSans-48"/>
      </defs>
      <g transform="translate(202.692269 315.956875)scale(0.2 -0.2)">
       <use xlink:href="#DejaVuSans-48"/>
      </g>
     </g>
    </g>
    <g id="xtick_3">
     <g id="line2d_5">
      <path clip-path="url(#pf822ab8ecc)" d="M 313.638647 293.76 
L 313.638647 3.456 
" style="fill:none;stroke:#b0b0b0;stroke-linecap:square;stroke-width:0.8;"/>
     </g>
     <g id="line2d_6">
      <g>
       <use style="stroke:#000000;stroke-width:0.8;" x="313.638647" xlink:href="#md4d4993739" y="293.76"/>
      </g>
     </g>
     <g id="text_3">
      <!-- 4 -->
      <g transform="translate(307.276147 315.956875)scale(0.2 -0.2)">
       <use xlink:href="#DejaVuSans-52"/>
      </g>
     </g>
    </g>
    <g id="xtick_4">
     <g id="line2d_7">
      <path clip-path="url(#pf822ab8ecc)" d="M 418.222525 293.76 
L 418.222525 3.456 
" style="fill:none;stroke:#b0b0b0;stroke-linecap:square;stroke-width:0.8;"/>
     </g>
     <g id="line2d_8">
      <g>
       <use style="stroke:#000000;stroke-width:0.8;" x="418.222525" xlink:href="#md4d4993739" y="293.76"/>
      </g>
     </g>
     <g id="text_4">
      <!-- 8 -->
      <defs>
       <path d="M 31.78125 34.625 
Q 24.75 34.625 20.71875 30.859375 
Q 16.703125 27.09375 16.703125 20.515625 
Q 16.703125 13.921875 20.71875 10.15625 
Q 24.75 6.390625 31.78125 6.390625 
Q 38.8125 6.390625 42.859375 10.171875 
Q 46.921875 13.96875 46.921875 20.515625 
Q 46.921875 27.09375 42.890625 30.859375 
Q 38.875 34.625 31.78125 34.625 
z
M 21.921875 38.8125 
Q 15.578125 40.375 12.03125 44.71875 
Q 8.5 49.078125 8.5 55.328125 
Q 8.5 64.0625 14.71875 69.140625 
Q 20.953125 74.21875 31.78125 74.21875 
Q 42.671875 74.21875 48.875 69.140625 
Q 55.078125 64.0625 55.078125 55.328125 
Q 55.078125 49.078125 51.53125 44.71875 
Q 48 40.375 41.703125 38.8125 
Q 48.828125 37.15625 52.796875 32.3125 
Q 56.78125 27.484375 56.78125 20.515625 
Q 56.78125 9.90625 50.3125 4.234375 
Q 43.84375 -1.421875 31.78125 -1.421875 
Q 19.734375 -1.421875 13.25 4.234375 
Q 6.78125 9.90625 6.78125 20.515625 
Q 6.78125 27.484375 10.78125 32.3125 
Q 14.796875 37.15625 21.921875 38.8125 
z
M 18.3125 54.390625 
Q 18.3125 48.734375 21.84375 45.5625 
Q 25.390625 42.390625 31.78125 42.390625 
Q 38.140625 42.390625 41.71875 45.5625 
Q 45.3125 48.734375 45.3125 54.390625 
Q 45.3125 60.0625 41.71875 63.234375 
Q 38.140625 66.40625 31.78125 66.40625 
Q 25.390625 66.40625 21.84375 63.234375 
Q 18.3125 60.0625 18.3125 54.390625 
z
" id="DejaVuSans-56"/>
      </defs>
      <g transform="translate(411.860025 315.956875)scale(0.2 -0.2)">
       <use xlink:href="#DejaVuSans-56"/>
      </g>
     </g>
    </g>
    <g id="text_5">
     <!-- log10 of Df -->
     <defs>
      <path d="M 9.421875 75.984375 
L 18.40625 75.984375 
L 18.40625 0 
L 9.421875 0 
z
" id="DejaVuSans-108"/>
      <path d="M 30.609375 48.390625 
Q 23.390625 48.390625 19.1875 42.75 
Q 14.984375 37.109375 14.984375 27.296875 
Q 14.984375 17.484375 19.15625 11.84375 
Q 23.34375 6.203125 30.609375 6.203125 
Q 37.796875 6.203125 41.984375 11.859375 
Q 46.1875 17.53125 46.1875 27.296875 
Q 46.1875 37.015625 41.984375 42.703125 
Q 37.796875 48.390625 30.609375 48.390625 
z
M 30.609375 56 
Q 42.328125 56 49.015625 48.375 
Q 55.71875 40.765625 55.71875 27.296875 
Q 55.71875 13.875 49.015625 6.21875 
Q 42.328125 -1.421875 30.609375 -1.421875 
Q 18.84375 -1.421875 12.171875 6.21875 
Q 5.515625 13.875 5.515625 27.296875 
Q 5.515625 40.765625 12.171875 48.375 
Q 18.84375 56 30.609375 56 
z
" id="DejaVuSans-111"/>
      <path d="M 45.40625 27.984375 
Q 45.40625 37.75 41.375 43.109375 
Q 37.359375 48.484375 30.078125 48.484375 
Q 22.859375 48.484375 18.828125 43.109375 
Q 14.796875 37.75 14.796875 27.984375 
Q 14.796875 18.265625 18.828125 12.890625 
Q 22.859375 7.515625 30.078125 7.515625 
Q 37.359375 7.515625 41.375 12.890625 
Q 45.40625 18.265625 45.40625 27.984375 
z
M 54.390625 6.78125 
Q 54.390625 -7.171875 48.1875 -13.984375 
Q 42 -20.796875 29.203125 -20.796875 
Q 24.46875 -20.796875 20.265625 -20.09375 
Q 16.0625 -19.390625 12.109375 -17.921875 
L 12.109375 -9.1875 
Q 16.0625 -11.328125 19.921875 -12.34375 
Q 23.78125 -13.375 27.78125 -13.375 
Q 36.625 -13.375 41.015625 -8.765625 
Q 45.40625 -4.15625 45.40625 5.171875 
L 45.40625 9.625 
Q 42.625 4.78125 38.28125 2.390625 
Q 33.9375 0 27.875 0 
Q 17.828125 0 11.671875 7.65625 
Q 5.515625 15.328125 5.515625 27.984375 
Q 5.515625 40.671875 11.671875 48.328125 
Q 17.828125 56 27.875 56 
Q 33.9375 56 38.28125 53.609375 
Q 42.625 51.21875 45.40625 46.390625 
L 45.40625 54.6875 
L 54.390625 54.6875 
z
" id="DejaVuSans-103"/>
      <path d="M 12.40625 8.296875 
L 28.515625 8.296875 
L 28.515625 63.921875 
L 10.984375 60.40625 
L 10.984375 69.390625 
L 28.421875 72.90625 
L 38.28125 72.90625 
L 38.28125 8.296875 
L 54.390625 8.296875 
L 54.390625 0 
L 12.40625 0 
z
" id="DejaVuSans-49"/>
      <path id="DejaVuSans-32"/>
      <path d="M 37.109375 75.984375 
L 37.109375 68.5 
L 28.515625 68.5 
Q 23.6875 68.5 21.796875 66.546875 
Q 19.921875 64.59375 19.921875 59.515625 
L 19.921875 54.6875 
L 34.71875 54.6875 
L 34.71875 47.703125 
L 19.921875 47.703125 
L 19.921875 0 
L 10.890625 0 
L 10.890625 47.703125 
L 2.296875 47.703125 
L 2.296875 54.6875 
L 10.890625 54.6875 
L 10.890625 58.5 
Q 10.890625 67.625 15.140625 71.796875 
Q 19.390625 75.984375 28.609375 75.984375 
z
" id="DejaVuSans-102"/>
      <path d="M 19.671875 64.796875 
L 19.671875 8.109375 
L 31.59375 8.109375 
Q 46.6875 8.109375 53.6875 14.9375 
Q 60.6875 21.78125 60.6875 36.53125 
Q 60.6875 51.171875 53.6875 57.984375 
Q 46.6875 64.796875 31.59375 64.796875 
z
M 9.8125 72.90625 
L 30.078125 72.90625 
Q 51.265625 72.90625 61.171875 64.09375 
Q 71.09375 55.28125 71.09375 36.53125 
Q 71.09375 17.671875 61.125 8.828125 
Q 51.171875 0 30.078125 0 
L 9.8125 0 
z
" id="DejaVuSans-68"/>
     </defs>
     <g transform="translate(175.214063 339.313125)scale(0.2 -0.2)">
      <use xlink:href="#DejaVuSans-108"/>
      <use x="27.783203" xlink:href="#DejaVuSans-111"/>
      <use x="88.964844" xlink:href="#DejaVuSans-103"/>
      <use x="152.441406" xlink:href="#DejaVuSans-49"/>
      <use x="216.064453" xlink:href="#DejaVuSans-48"/>
      <use x="279.6875" xlink:href="#DejaVuSans-32"/>
      <use x="311.474609" xlink:href="#DejaVuSans-111"/>
      <use x="372.65625" xlink:href="#DejaVuSans-102"/>
      <use x="407.861328" xlink:href="#DejaVuSans-32"/>
      <use x="439.648438" xlink:href="#DejaVuSans-68"/>
      <use x="516.650391" xlink:href="#DejaVuSans-102"/>
     </g>
    </g>
   </g>
   <g id="matplotlib.axis_2">
    <g id="ytick_1">
     <g id="line2d_9">
      <path clip-path="url(#pf822ab8ecc)" d="M 0 293.76 
L 460.8 293.76 
" style="fill:none;stroke:#b0b0b0;stroke-linecap:square;stroke-width:0.8;"/>
     </g>
     <g id="line2d_10">
      <defs>
       <path d="M 0 0 
L -3.5 0 
" id="m7ed63b521d" style="stroke:#000000;stroke-width:0.8;"/>
      </defs>
      <g>
       <use style="stroke:#000000;stroke-width:0.8;" x="0" xlink:href="#m7ed63b521d" y="293.76"/>
      </g>
     </g>
    </g>
    <g id="ytick_2">
     <g id="line2d_11">
      <path clip-path="url(#pf822ab8ecc)" d="M 0 236.274059 
L 460.8 236.274059 
" style="fill:none;stroke:#b0b0b0;stroke-linecap:square;stroke-width:0.8;"/>
     </g>
     <g id="line2d_12">
      <g>
       <use style="stroke:#000000;stroke-width:0.8;" x="0" xlink:href="#m7ed63b521d" y="236.274059"/>
      </g>
     </g>
    </g>
    <g id="ytick_3">
     <g id="line2d_13">
      <path clip-path="url(#pf822ab8ecc)" d="M 0 178.788119 
L 460.8 178.788119 
" style="fill:none;stroke:#b0b0b0;stroke-linecap:square;stroke-width:0.8;"/>
     </g>
     <g id="line2d_14">
      <g>
       <use style="stroke:#000000;stroke-width:0.8;" x="0" xlink:href="#m7ed63b521d" y="178.788119"/>
      </g>
     </g>
    </g>
    <g id="ytick_4">
     <g id="line2d_15">
      <path clip-path="url(#pf822ab8ecc)" d="M 0 121.302178 
L 460.8 121.302178 
" style="fill:none;stroke:#b0b0b0;stroke-linecap:square;stroke-width:0.8;"/>
     </g>
     <g id="line2d_16">
      <g>
       <use style="stroke:#000000;stroke-width:0.8;" x="0" xlink:href="#m7ed63b521d" y="121.302178"/>
      </g>
     </g>
    </g>
    <g id="ytick_5">
     <g id="line2d_17">
      <path clip-path="url(#pf822ab8ecc)" d="M 0 63.816238 
L 460.8 63.816238 
" style="fill:none;stroke:#b0b0b0;stroke-linecap:square;stroke-width:0.8;"/>
     </g>
     <g id="line2d_18">
      <g>
       <use style="stroke:#000000;stroke-width:0.8;" x="0" xlink:href="#m7ed63b521d" y="63.816238"/>
      </g>
     </g>
    </g>
    <g id="ytick_6">
     <g id="line2d_19">
      <path clip-path="url(#pf822ab8ecc)" d="M 0 6.330297 
L 460.8 6.330297 
" style="fill:none;stroke:#b0b0b0;stroke-linecap:square;stroke-width:0.8;"/>
     </g>
     <g id="line2d_20">
      <g>
       <use style="stroke:#000000;stroke-width:0.8;" x="0" xlink:href="#m7ed63b521d" y="6.330297"/>
      </g>
     </g>
    </g>
   </g>
   <g id="line2d_21">
    <path clip-path="url(#pf822ab8ecc)" d="M 202.953096 293.76 
L 202.953096 289.927604 
L 214.263181 289.927604 
L 214.263181 286.095208 
L 215.313771 286.095208 
L 215.313771 282.262812 
L 216.788351 282.262812 
L 216.800234 274.59802 
L 217.177629 274.59802 
L 217.268327 266.933228 
L 217.291793 266.933228 
L 217.291793 263.100832 
L 217.408797 263.100832 
L 217.408797 259.268436 
L 217.603442 259.268436 
L 217.603442 255.43604 
L 217.90993 255.43604 
L 217.90993 251.603644 
L 218.430479 251.603644 
L 218.430479 247.771248 
L 218.624737 247.771248 
L 218.624737 243.938851 
L 219.61643 243.938851 
L 219.709985 236.274059 
L 219.977219 236.274059 
L 219.977219 232.441663 
L 220.353268 232.441663 
L 220.353268 228.609267 
L 220.85506 228.609267 
L 220.95337 220.944475 
L 221.141953 220.944475 
L 221.141953 217.112079 
L 221.778223 217.112079 
L 221.778223 213.279683 
L 222.256907 213.279683 
L 222.256907 209.447287 
L 222.564756 209.447287 
L 222.564756 205.614891 
L 223.091487 205.614891 
L 223.091487 201.782495 
L 223.345846 201.782495 
L 223.441353 194.117703 
L 223.503374 194.117703 
L 223.596886 186.452911 
L 224.398409 186.452911 
L 224.398409 182.620515 
L 225.198804 182.620515 
L 225.198804 178.788119 
L 226.69628 178.788119 
L 226.77127 171.123327 
L 227.163704 171.123327 
L 227.163704 167.290931 
L 227.874494 167.290931 
L 227.874494 163.458535 
L 228.124668 163.458535 
L 228.124668 159.626139 
L 228.448106 159.626139 
L 228.448106 155.793743 
L 229.039692 155.793743 
L 229.039692 151.961347 
L 229.796055 151.961347 
L 229.796055 148.12895 
L 230.46601 148.12895 
L 230.46601 144.296554 
L 230.785226 144.296554 
L 230.785226 140.464158 
L 231.46318 140.464158 
L 231.46318 136.631762 
L 233.73473 136.631762 
L 233.73473 132.799366 
L 233.943264 132.799366 
L 233.943264 128.96697 
L 234.399691 128.96697 
L 234.399691 125.134574 
L 234.818107 125.134574 
L 234.818107 121.302178 
L 235.723002 121.302178 
L 235.81318 113.637386 
L 236.526705 113.637386 
L 236.526705 109.80499 
L 236.867944 109.80499 
L 236.922431 102.140198 
L 237.211494 102.140198 
L 237.211494 98.307802 
L 238.320822 98.307802 
L 238.333236 90.64301 
L 240.192274 90.64301 
L 240.192274 86.810614 
L 240.604616 86.810614 
L 240.656309 79.145822 
L 240.887547 79.145822 
L 240.887547 75.313426 
L 242.303954 75.313426 
L 242.303954 71.48103 
L 243.107356 71.48103 
L 243.107356 67.648634 
L 243.970539 67.648634 
L 243.970539 63.816238 
L 244.150711 63.816238 
L 244.150711 59.983842 
L 246.180391 59.983842 
L 246.180391 56.151446 
L 246.728266 56.151446 
L 246.734362 48.486653 
L 246.861431 48.486653 
L 246.861431 44.654257 
L 247.111673 44.654257 
L 247.111673 40.821861 
L 248.719003 40.821861 
L 248.719003 36.989465 
L 249.756056 36.989465 
L 249.756056 33.157069 
L 250.1912 33.157069 
L 250.1912 29.324673 
L 250.666611 29.324673 
L 250.666611 25.492277 
L 252.126639 25.492277 
L 252.126639 21.659881 
L 253.610991 21.659881 
L 253.610991 17.827485 
L 254.678815 17.827485 
L 254.678815 13.995089 
L 255.106202 13.995089 
L 255.106202 10.162693 
L 256.962572 10.162693 
L 256.962572 6.330297 
L 256.962572 6.330297 
L 460.8 6.330297 
L 460.8 6.330297 
" style="fill:none;stroke:#ff0000;stroke-linecap:square;stroke-width:3;"/>
   </g>
   <g id="line2d_22">
    <path clip-path="url(#pf822ab8ecc)" d="M 230.81739 293.76 
L 230.81739 289.927604 
L 231.865984 289.927604 
L 231.865984 286.095208 
L 232.8238 286.095208 
L 232.8238 282.262812 
L 235.856511 282.262812 
L 235.856511 278.430416 
L 236.124766 278.430416 
L 236.124766 274.59802 
L 237.559471 274.59802 
L 237.559471 270.765624 
L 238.085638 270.765624 
L 238.085638 266.933228 
L 238.235565 266.933228 
L 238.235565 263.100832 
L 238.563354 263.100832 
L 238.634952 255.43604 
L 240.254441 255.43604 
L 240.254441 251.603644 
L 240.582838 251.603644 
L 240.582838 247.771248 
L 241.330859 247.771248 
L 241.439944 236.274059 
L 242.639312 236.274059 
L 242.639312 232.441663 
L 242.779448 232.441663 
L 242.779448 228.609267 
L 243.757002 228.609267 
L 243.757002 224.776871 
L 244.163382 224.776871 
L 244.196231 217.112079 
L 244.676515 217.112079 
L 244.676515 213.279683 
L 245.028221 213.279683 
L 245.028221 209.447287 
L 246.001754 209.447287 
L 246.001754 205.614891 
L 247.421296 205.614891 
L 247.468282 197.950099 
L 247.565438 197.950099 
L 247.565438 194.117703 
L 248.338464 194.117703 
L 248.358827 186.452911 
L 248.758367 186.452911 
L 248.758367 182.620515 
L 248.950388 182.620515 
L 248.950388 178.788119 
L 249.60449 178.788119 
L 249.60449 174.955723 
L 251.202124 174.955723 
L 251.202124 171.123327 
L 252.078554 171.123327 
L 252.078554 167.290931 
L 252.215333 167.290931 
L 252.215333 163.458535 
L 253.531565 163.458535 
L 253.631252 155.793743 
L 255.108393 155.793743 
L 255.108393 151.961347 
L 255.456984 151.961347 
L 255.456984 148.12895 
L 255.989793 148.12895 
L 255.989793 144.296554 
L 256.246985 144.296554 
L 256.319454 132.799366 
L 256.792763 132.799366 
L 256.792763 128.96697 
L 257.281049 128.96697 
L 257.281049 125.134574 
L 257.686031 125.134574 
L 257.686031 121.302178 
L 258.149806 121.302178 
L 258.209488 113.637386 
L 259.214249 113.637386 
L 259.214249 109.80499 
L 260.339072 109.80499 
L 260.419562 98.307802 
L 260.594202 98.307802 
L 260.594202 94.475406 
L 260.846434 94.475406 
L 260.898766 86.810614 
L 261.703394 86.810614 
L 261.703394 82.978218 
L 261.956685 82.978218 
L 261.964841 75.313426 
L 262.878839 75.313426 
L 262.970806 67.648634 
L 265.124513 67.648634 
L 265.124513 63.816238 
L 265.488541 63.816238 
L 265.488541 59.983842 
L 265.834746 59.983842 
L 265.834746 56.151446 
L 266.856102 56.151446 
L 266.856102 52.31905 
L 267.55164 52.31905 
L 267.55164 48.486653 
L 268.159185 48.486653 
L 268.159185 44.654257 
L 268.421729 44.654257 
L 268.421729 40.821861 
L 268.582716 40.821861 
L 268.582716 36.989465 
L 268.998278 36.989465 
L 268.998278 33.157069 
L 269.176085 33.157069 
L 269.176085 29.324673 
L 274.134893 29.324673 
L 274.134893 25.492277 
L 274.628374 25.492277 
L 274.628374 21.659881 
L 277.810901 21.659881 
L 277.810901 17.827485 
L 278.542741 17.827485 
L 278.542741 13.995089 
L 280.296897 13.995089 
L 280.403479 6.330297 
L 280.403479 6.330297 
L 460.8 6.330297 
L 460.8 6.330297 
" style="fill:none;stroke:#00bfbf;stroke-linecap:square;stroke-width:1.5;"/>
   </g>
   <g id="line2d_23">
    <path clip-path="url(#pf822ab8ecc)" d="M 230.81739 293.76 
L 230.81739 289.927604 
L 231.636152 289.927604 
L 231.636152 286.095208 
L 231.865984 286.095208 
L 231.865984 282.262812 
L 232.8238 282.262812 
L 232.8238 278.430416 
L 234.372721 278.430416 
L 234.456439 270.765624 
L 235.856511 270.765624 
L 235.856511 266.933228 
L 237.127875 266.933228 
L 237.127875 263.100832 
L 237.245135 263.100832 
L 237.245135 259.268436 
L 237.472745 259.268436 
L 237.559471 251.603644 
L 238.108316 251.603644 
L 238.108316 247.771248 
L 238.563354 247.771248 
L 238.634952 240.106455 
L 238.886025 240.106455 
L 238.886025 236.274059 
L 239.936805 236.274059 
L 239.944401 228.609267 
L 240.101247 228.609267 
L 240.101247 224.776871 
L 240.254441 224.776871 
L 240.254441 220.944475 
L 240.526847 220.944475 
L 240.582838 213.279683 
L 240.718568 213.279683 
L 240.718568 209.447287 
L 241.118411 209.447287 
L 241.118411 205.614891 
L 241.439944 205.614891 
L 241.439944 201.782495 
L 241.560001 201.782495 
L 241.560001 197.950099 
L 242.221348 197.950099 
L 242.221348 194.117703 
L 244.054475 194.117703 
L 244.163382 182.620515 
L 244.196231 182.620515 
L 244.196231 178.788119 
L 244.816304 178.788119 
L 244.816304 174.955723 
L 245.229354 174.955723 
L 245.229354 171.123327 
L 246.001754 171.123327 
L 246.001754 167.290931 
L 246.161698 167.290931 
L 246.161698 163.458535 
L 246.531572 163.458535 
L 246.531572 159.626139 
L 246.88596 159.626139 
L 246.88596 155.793743 
L 247.204499 155.793743 
L 247.204499 151.961347 
L 247.920258 151.961347 
L 247.920258 148.12895 
L 248.338464 148.12895 
L 248.338464 144.296554 
L 248.758367 144.296554 
L 248.758367 140.464158 
L 249.563241 140.464158 
L 249.638815 132.799366 
L 249.676988 132.799366 
L 249.676988 128.96697 
L 249.970971 128.96697 
L 249.970971 125.134574 
L 250.322836 125.134574 
L 250.322836 121.302178 
L 251.305675 121.302178 
L 251.386989 109.80499 
L 253.060441 109.80499 
L 253.060441 105.972594 
L 253.670822 105.972594 
L 253.670822 102.140198 
L 253.879221 102.140198 
L 253.879221 98.307802 
L 255.084436 98.307802 
L 255.084436 94.475406 
L 255.299029 94.475406 
L 255.299029 90.64301 
L 255.882916 90.64301 
L 255.909231 82.978218 
L 256.131292 82.978218 
L 256.131292 79.145822 
L 256.700025 79.145822 
L 256.700025 75.313426 
L 257.437573 75.313426 
L 257.437573 71.48103 
L 258.209488 71.48103 
L 258.209488 67.648634 
L 259.214249 67.648634 
L 259.214249 63.816238 
L 259.703558 63.816238 
L 259.703558 59.983842 
L 259.956851 59.983842 
L 259.956851 56.151446 
L 260.339072 56.151446 
L 260.339072 52.31905 
L 260.594202 52.31905 
L 260.594202 48.486653 
L 261.827357 48.486653 
L 261.827357 44.654257 
L 263.433587 44.654257 
L 263.433587 40.821861 
L 263.813292 40.821861 
L 263.813292 36.989465 
L 264.95737 36.989465 
L 265.009906 29.324673 
L 266.856102 29.324673 
L 266.856102 25.492277 
L 268.159185 25.492277 
L 268.159185 21.659881 
L 268.421729 21.659881 
L 268.421729 17.827485 
L 270.622949 17.827485 
L 270.622949 13.995089 
L 271.003606 13.995089 
L 271.003606 10.162693 
L 273.806679 10.162693 
L 273.806679 6.330297 
L 273.806679 6.330297 
L 460.8 6.330297 
L 460.8 6.330297 
" style="fill:none;stroke:#bf00bf;stroke-linecap:square;stroke-width:1.5;"/>
   </g>
   <g id="line2d_24">
    <path clip-path="url(#pf822ab8ecc)" d="M 224.624616 293.76 
L 224.624616 289.927604 
L 225.198804 289.927604 
L 225.198804 286.095208 
L 230.81739 286.095208 
L 230.81739 282.262812 
L 231.636152 282.262812 
L 231.636152 278.430416 
L 231.865984 278.430416 
L 231.969894 270.765624 
L 232.245409 270.765624 
L 232.314119 263.100832 
L 232.8238 263.100832 
L 232.8238 259.268436 
L 233.107843 259.268436 
L 233.107843 255.43604 
L 234.012753 255.43604 
L 234.012753 251.603644 
L 234.372721 251.603644 
L 234.456439 243.938851 
L 234.59973 243.938851 
L 234.661482 236.274059 
L 235.09789 236.274059 
L 235.115632 228.609267 
L 235.723002 228.609267 
L 235.72904 220.944475 
L 235.856511 220.944475 
L 235.856511 217.112079 
L 236.955176 217.112079 
L 236.994623 209.447287 
L 237.127875 209.447287 
L 237.127875 205.614891 
L 237.258258 205.614891 
L 237.258258 201.782495 
L 237.472745 201.782495 
L 237.472745 197.950099 
L 237.673468 197.950099 
L 237.673468 194.117703 
L 238.108316 194.117703 
L 238.108316 190.285307 
L 238.895666 190.285307 
L 238.895666 186.452911 
L 239.667583 186.452911 
L 239.667583 182.620515 
L 240.718568 182.620515 
L 240.718568 178.788119 
L 240.901179 178.788119 
L 240.945903 171.123327 
L 241.121208 171.123327 
L 241.121208 167.290931 
L 241.439944 167.290931 
L 241.439944 163.458535 
L 242.221348 163.458535 
L 242.221348 159.626139 
L 243.395535 159.626139 
L 243.423422 151.961347 
L 244.163382 151.961347 
L 244.196231 144.296554 
L 245.229354 144.296554 
L 245.229354 140.464158 
L 246.161698 140.464158 
L 246.161698 136.631762 
L 246.88596 136.631762 
L 246.88596 132.799366 
L 247.204499 132.799366 
L 247.204499 128.96697 
L 247.591093 128.96697 
L 247.591093 125.134574 
L 247.920258 125.134574 
L 247.920258 121.302178 
L 248.653025 121.302178 
L 248.653025 117.469782 
L 248.991007 117.469782 
L 249.080253 109.80499 
L 249.563241 109.80499 
L 249.563241 105.972594 
L 249.676988 105.972594 
L 249.676988 102.140198 
L 249.970971 102.140198 
L 249.970971 98.307802 
L 250.433854 98.307802 
L 250.433854 94.475406 
L 251.305675 94.475406 
L 251.392795 86.810614 
L 252.338813 86.810614 
L 252.338813 82.978218 
L 252.490456 82.978218 
L 252.502933 75.313426 
L 252.86392 75.313426 
L 252.86392 71.48103 
L 253.060441 71.48103 
L 253.060441 67.648634 
L 253.879221 67.648634 
L 253.879221 63.816238 
L 255.769965 63.816238 
L 255.769965 59.983842 
L 257.425423 59.983842 
L 257.437573 52.31905 
L 258.8344 52.31905 
L 258.8344 48.486653 
L 259.703558 48.486653 
L 259.703558 44.654257 
L 259.956851 44.654257 
L 259.956851 40.821861 
L 260.594202 40.821861 
L 260.594202 36.989465 
L 261.249749 36.989465 
L 261.249749 33.157069 
L 261.827357 33.157069 
L 261.827357 29.324673 
L 262.215165 29.324673 
L 262.215165 25.492277 
L 262.614053 25.492277 
L 262.614053 21.659881 
L 263.433587 21.659881 
L 263.433587 17.827485 
L 264.95737 17.827485 
L 264.95737 13.995089 
L 269.162921 13.995089 
L 269.162921 10.162693 
L 273.293122 10.162693 
L 273.293122 6.330297 
L 273.293122 6.330297 
L 460.8 6.330297 
L 460.8 6.330297 
" style="fill:none;stroke:#000000;stroke-linecap:square;stroke-width:1.5;"/>
   </g>
   <g id="line2d_25">
    <path clip-path="url(#pf822ab8ecc)" d="M 223.75991 293.76 
L 223.799696 286.095208 
L 224.39448 286.095208 
L 224.39448 282.262812 
L 224.624616 282.262812 
L 224.624616 278.430416 
L 225.198804 278.430416 
L 225.198804 274.59802 
L 226.528527 274.59802 
L 226.528527 270.765624 
L 228.448106 270.765624 
L 228.448106 266.933228 
L 228.581269 266.933228 
L 228.581269 263.100832 
L 228.751044 263.100832 
L 228.751044 259.268436 
L 229.039692 259.268436 
L 229.039692 255.43604 
L 229.792722 255.43604 
L 229.870596 247.771248 
L 229.988949 247.771248 
L 229.988949 243.938851 
L 230.650025 243.938851 
L 230.650025 240.106455 
L 230.789298 240.106455 
L 230.789298 236.274059 
L 230.906641 236.274059 
L 230.906641 232.441663 
L 231.357158 232.441663 
L 231.357158 228.609267 
L 231.636152 228.609267 
L 231.636152 224.776871 
L 231.865984 224.776871 
L 231.865984 220.944475 
L 232.245409 220.944475 
L 232.278285 209.447287 
L 232.752787 209.447287 
L 232.8238 201.782495 
L 234.053748 201.782495 
L 234.053748 197.950099 
L 234.234448 197.950099 
L 234.234448 194.117703 
L 234.59973 194.117703 
L 234.59973 190.285307 
L 234.833704 190.285307 
L 234.833704 186.452911 
L 235.060697 186.452911 
L 235.060697 182.620515 
L 235.723002 182.620515 
L 235.831932 174.955723 
L 236.557829 174.955723 
L 236.557829 171.123327 
L 237.127875 171.123327 
L 237.127875 167.290931 
L 238.320822 167.290931 
L 238.320822 163.458535 
L 239.073152 163.458535 
L 239.073152 159.626139 
L 241.144371 159.626139 
L 241.144371 155.793743 
L 241.439944 155.793743 
L 241.439944 151.961347 
L 242.221348 151.961347 
L 242.221348 148.12895 
L 242.483677 148.12895 
L 242.483677 144.296554 
L 242.916578 144.296554 
L 242.931592 136.631762 
L 243.395535 136.631762 
L 243.423422 128.96697 
L 243.521517 128.96697 
L 243.61728 121.302178 
L 243.94866 121.302178 
L 243.94866 117.469782 
L 244.163382 117.469782 
L 244.163382 113.637386 
L 244.293911 113.637386 
L 244.293911 109.80499 
L 244.717082 109.80499 
L 244.717082 105.972594 
L 245.063061 105.972594 
L 245.063061 102.140198 
L 245.899844 102.140198 
L 245.899844 98.307802 
L 246.191104 98.307802 
L 246.191104 94.475406 
L 246.452071 94.475406 
L 246.452071 90.64301 
L 246.88596 90.64301 
L 246.88596 86.810614 
L 247.112359 86.810614 
L 247.204499 79.145822 
L 247.591093 79.145822 
L 247.591093 75.313426 
L 249.662349 75.313426 
L 249.662349 71.48103 
L 251.392795 71.48103 
L 251.392795 67.648634 
L 252.243058 67.648634 
L 252.243058 63.816238 
L 253.879221 63.816238 
L 253.879221 59.983842 
L 255.091241 59.983842 
L 255.091241 56.151446 
L 256.0914 56.151446 
L 256.0914 52.31905 
L 257.374881 52.31905 
L 257.437573 40.821861 
L 259.397701 40.821861 
L 259.397701 36.989465 
L 259.540636 36.989465 
L 259.540636 33.157069 
L 260.661836 33.157069 
L 260.661836 29.324673 
L 261.236173 29.324673 
L 261.249749 21.659881 
L 261.705213 21.659881 
L 261.705213 17.827485 
L 261.827357 17.827485 
L 261.827357 13.995089 
L 262.219163 13.995089 
L 262.219163 10.162693 
L 263.923693 10.162693 
L 263.923693 6.330297 
L 263.923693 6.330297 
L 460.8 6.330297 
L 460.8 6.330297 
" style="fill:none;stroke:#00bfbf;stroke-linecap:square;stroke-width:1.5;"/>
   </g>
   <g id="line2d_26">
    <path clip-path="url(#pf822ab8ecc)" d="M 202.953096 293.76 
L 202.953096 289.927604 
L 214.263181 289.927604 
L 214.263181 286.095208 
L 215.313771 286.095208 
L 215.313771 282.262812 
L 216.788351 282.262812 
L 216.800234 274.59802 
L 217.177629 274.59802 
L 217.268327 266.933228 
L 217.291793 266.933228 
L 217.291793 263.100832 
L 217.408797 263.100832 
L 217.408797 259.268436 
L 217.603442 259.268436 
L 217.603442 255.43604 
L 218.624737 255.43604 
L 218.624737 251.603644 
L 219.61643 251.603644 
L 219.709985 243.938851 
L 219.977219 243.938851 
L 219.977219 240.106455 
L 220.353268 240.106455 
L 220.353268 236.274059 
L 220.85506 236.274059 
L 220.85506 232.441663 
L 221.07326 232.441663 
L 221.152691 220.944475 
L 221.35932 220.944475 
L 221.35932 217.112079 
L 221.778223 217.112079 
L 221.778223 213.279683 
L 222.309614 213.279683 
L 222.309614 209.447287 
L 222.564756 209.447287 
L 222.564756 205.614891 
L 223.098537 205.614891 
L 223.098537 201.782495 
L 223.379933 201.782495 
L 223.441353 194.117703 
L 223.596886 194.117703 
L 223.596886 190.285307 
L 224.398409 190.285307 
L 224.398409 186.452911 
L 224.909501 186.452911 
L 224.909501 182.620515 
L 225.198804 182.620515 
L 225.198804 178.788119 
L 226.69628 178.788119 
L 226.77127 171.123327 
L 227.163704 171.123327 
L 227.163704 167.290931 
L 227.874494 167.290931 
L 227.874494 163.458535 
L 228.124668 163.458535 
L 228.124668 159.626139 
L 228.448106 159.626139 
L 228.448106 155.793743 
L 229.039692 155.793743 
L 229.039692 151.961347 
L 229.999805 151.961347 
L 229.999805 148.12895 
L 230.46601 148.12895 
L 230.46601 144.296554 
L 230.785226 144.296554 
L 230.785226 140.464158 
L 233.710913 140.464158 
L 233.710913 136.631762 
L 234.367571 136.631762 
L 234.452227 128.96697 
L 235.339587 128.96697 
L 235.339587 125.134574 
L 235.723002 125.134574 
L 235.81318 117.469782 
L 236.526705 117.469782 
L 236.526705 113.637386 
L 236.867944 113.637386 
L 236.93854 102.140198 
L 237.211494 102.140198 
L 237.211494 98.307802 
L 238.320822 98.307802 
L 238.333236 90.64301 
L 240.656309 90.64301 
L 240.720594 82.978218 
L 243.107356 82.978218 
L 243.150464 75.313426 
L 243.771062 75.313426 
L 243.771062 71.48103 
L 243.970539 71.48103 
L 243.970539 67.648634 
L 244.423743 67.648634 
L 244.423743 63.816238 
L 245.668239 63.816238 
L 245.668239 59.983842 
L 246.180391 59.983842 
L 246.180391 56.151446 
L 246.734362 56.151446 
L 246.735388 48.486653 
L 246.861431 48.486653 
L 246.861431 44.654257 
L 247.928518 44.654257 
L 247.928518 40.821861 
L 248.719003 40.821861 
L 248.719003 36.989465 
L 249.756056 36.989465 
L 249.756056 33.157069 
L 250.1912 33.157069 
L 250.1912 29.324673 
L 253.612087 29.324673 
L 253.612087 25.492277 
L 253.837634 25.492277 
L 253.837634 21.659881 
L 254.678815 21.659881 
L 254.678815 17.827485 
L 255.106202 17.827485 
L 255.106202 13.995089 
L 255.701424 13.995089 
L 255.701424 10.162693 
L 256.962572 10.162693 
L 256.962572 6.330297 
L 256.962572 6.330297 
L 460.8 6.330297 
L 460.8 6.330297 
" style="fill:none;stroke:#bf00bf;stroke-linecap:square;stroke-width:1.5;"/>
   </g>
   <g id="patch_3">
    <path d="M 0 293.76 
L 0 3.456 
" style="fill:none;stroke:#000000;stroke-linecap:square;stroke-linejoin:miter;stroke-width:0.8;"/>
   </g>
   <g id="patch_4">
    <path d="M 460.8 293.76 
L 460.8 3.456 
" style="fill:none;stroke:#000000;stroke-linecap:square;stroke-linejoin:miter;stroke-width:0.8;"/>
   </g>
   <g id="patch_5">
    <path d="M 0 293.76 
L 460.8 293.76 
" style="fill:none;stroke:#000000;stroke-linecap:square;stroke-linejoin:miter;stroke-width:0.8;"/>
   </g>
   <g id="patch_6">
    <path d="M 0 3.456 
L 460.8 3.456 
" style="fill:none;stroke:#000000;stroke-linecap:square;stroke-linejoin:miter;stroke-width:0.8;"/>
   </g>
   <g id="text_6">
    <!-- {f15-f19}, 5-D -->
    <defs>
     <path d="M 51.125 -9.28125 
L 51.125 -16.3125 
L 48.09375 -16.3125 
Q 35.9375 -16.3125 31.8125 -12.6875 
Q 27.6875 -9.078125 27.6875 1.703125 
L 27.6875 13.375 
Q 27.6875 20.75 25.046875 23.578125 
Q 22.40625 26.421875 15.484375 26.421875 
L 12.5 26.421875 
L 12.5 33.40625 
L 15.484375 33.40625 
Q 22.46875 33.40625 25.078125 36.203125 
Q 27.6875 39.015625 27.6875 46.296875 
L 27.6875 58.015625 
Q 27.6875 68.796875 31.8125 72.390625 
Q 35.9375 75.984375 48.09375 75.984375 
L 51.125 75.984375 
L 51.125 69 
L 47.796875 69 
Q 40.921875 69 38.8125 66.84375 
Q 36.71875 64.703125 36.71875 57.8125 
L 36.71875 45.703125 
Q 36.71875 38.03125 34.5 34.5625 
Q 32.28125 31.109375 26.90625 29.890625 
Q 32.328125 28.5625 34.515625 25.09375 
Q 36.71875 21.625 36.71875 14.015625 
L 36.71875 1.90625 
Q 36.71875 -4.984375 38.8125 -7.125 
Q 40.921875 -9.28125 47.796875 -9.28125 
z
" id="DejaVuSans-123"/>
     <path d="M 10.796875 72.90625 
L 49.515625 72.90625 
L 49.515625 64.59375 
L 19.828125 64.59375 
L 19.828125 46.734375 
Q 21.96875 47.46875 24.109375 47.828125 
Q 26.265625 48.1875 28.421875 48.1875 
Q 40.625 48.1875 47.75 41.5 
Q 54.890625 34.8125 54.890625 23.390625 
Q 54.890625 11.625 47.5625 5.09375 
Q 40.234375 -1.421875 26.90625 -1.421875 
Q 22.3125 -1.421875 17.546875 -0.640625 
Q 12.796875 0.140625 7.71875 1.703125 
L 7.71875 11.625 
Q 12.109375 9.234375 16.796875 8.0625 
Q 21.484375 6.890625 26.703125 6.890625 
Q 35.15625 6.890625 40.078125 11.328125 
Q 45.015625 15.765625 45.015625 23.390625 
Q 45.015625 31 40.078125 35.4375 
Q 35.15625 39.890625 26.703125 39.890625 
Q 22.75 39.890625 18.8125 39.015625 
Q 14.890625 38.140625 10.796875 36.28125 
z
" id="DejaVuSans-53"/>
     <path d="M 10.984375 1.515625 
L 10.984375 10.5 
Q 14.703125 8.734375 18.5 7.8125 
Q 22.3125 6.890625 25.984375 6.890625 
Q 35.75 6.890625 40.890625 13.453125 
Q 46.046875 20.015625 46.78125 33.40625 
Q 43.953125 29.203125 39.59375 26.953125 
Q 35.25 24.703125 29.984375 24.703125 
Q 19.046875 24.703125 12.671875 31.3125 
Q 6.296875 37.9375 6.296875 49.421875 
Q 6.296875 60.640625 12.9375 67.421875 
Q 19.578125 74.21875 30.609375 74.21875 
Q 43.265625 74.21875 49.921875 64.515625 
Q 56.59375 54.828125 56.59375 36.375 
Q 56.59375 19.140625 48.40625 8.859375 
Q 40.234375 -1.421875 26.421875 -1.421875 
Q 22.703125 -1.421875 18.890625 -0.6875 
Q 15.09375 0.046875 10.984375 1.515625 
z
M 30.609375 32.421875 
Q 37.25 32.421875 41.125 36.953125 
Q 45.015625 41.5 45.015625 49.421875 
Q 45.015625 57.28125 41.125 61.84375 
Q 37.25 66.40625 30.609375 66.40625 
Q 23.96875 66.40625 20.09375 61.84375 
Q 16.21875 57.28125 16.21875 49.421875 
Q 16.21875 41.5 20.09375 36.953125 
Q 23.96875 32.421875 30.609375 32.421875 
z
" id="DejaVuSans-57"/>
     <path d="M 12.5 -9.28125 
L 15.921875 -9.28125 
Q 22.75 -9.28125 24.828125 -7.171875 
Q 26.90625 -5.078125 26.90625 1.90625 
L 26.90625 14.015625 
Q 26.90625 21.625 29.09375 25.09375 
Q 31.296875 28.5625 36.71875 29.890625 
Q 31.296875 31.109375 29.09375 34.5625 
Q 26.90625 38.03125 26.90625 45.703125 
L 26.90625 57.8125 
Q 26.90625 64.75 24.828125 66.875 
Q 22.75 69 15.921875 69 
L 12.5 69 
L 12.5 75.984375 
L 15.578125 75.984375 
Q 27.734375 75.984375 31.8125 72.390625 
Q 35.890625 68.796875 35.890625 58.015625 
L 35.890625 46.296875 
Q 35.890625 39.015625 38.515625 36.203125 
Q 41.15625 33.40625 48.09375 33.40625 
L 51.125 33.40625 
L 51.125 26.421875 
L 48.09375 26.421875 
Q 41.15625 26.421875 38.515625 23.578125 
Q 35.890625 20.75 35.890625 13.375 
L 35.890625 1.703125 
Q 35.890625 -9.078125 31.8125 -12.6875 
Q 27.734375 -16.3125 15.578125 -16.3125 
L 12.5 -16.3125 
z
" id="DejaVuSans-125"/>
     <path d="M 11.71875 12.40625 
L 22.015625 12.40625 
L 22.015625 4 
L 14.015625 -11.625 
L 7.71875 -11.625 
L 11.71875 4 
z
" id="DejaVuSans-44"/>
    </defs>
    <g transform="translate(305.884 287.95392)scale(0.2 -0.2)">
     <use xlink:href="#DejaVuSans-123"/>
     <use x="63.623047" xlink:href="#DejaVuSans-102"/>
     <use x="98.828125" xlink:href="#DejaVuSans-49"/>
     <use x="162.451172" xlink:href="#DejaVuSans-53"/>
     <use x="226.074219" xlink:href="#DejaVuSans-45"/>
     <use x="262.158203" xlink:href="#DejaVuSans-102"/>
     <use x="297.363281" xlink:href="#DejaVuSans-49"/>
     <use x="360.986328" xlink:href="#DejaVuSans-57"/>
     <use x="424.609375" xlink:href="#DejaVuSans-125"/>
     <use x="488.232422" xlink:href="#DejaVuSans-44"/>
     <use x="520.019531" xlink:href="#DejaVuSans-32"/>
     <use x="551.806641" xlink:href="#DejaVuSans-53"/>
     <use x="615.429688" xlink:href="#DejaVuSans-45"/>
     <use x="651.513672" xlink:href="#DejaVuSans-68"/>
    </g>
   </g>
   <g id="text_7">
    <!-- v2.4 -->
    <defs>
     <path d="M 2.984375 54.6875 
L 12.5 54.6875 
L 29.59375 8.796875 
L 46.6875 54.6875 
L 56.203125 54.6875 
L 35.6875 0 
L 23.484375 0 
z
" id="DejaVuSans-118"/>
     <path d="M 19.1875 8.296875 
L 53.609375 8.296875 
L 53.609375 0 
L 7.328125 0 
L 7.328125 8.296875 
Q 12.9375 14.109375 22.625 23.890625 
Q 32.328125 33.6875 34.8125 36.53125 
Q 39.546875 41.84375 41.421875 45.53125 
Q 43.3125 49.21875 43.3125 52.78125 
Q 43.3125 58.59375 39.234375 62.25 
Q 35.15625 65.921875 28.609375 65.921875 
Q 23.96875 65.921875 18.8125 64.3125 
Q 13.671875 62.703125 7.8125 59.421875 
L 7.8125 69.390625 
Q 13.765625 71.78125 18.9375 73 
Q 24.125 74.21875 28.421875 74.21875 
Q 39.75 74.21875 46.484375 68.546875 
Q 53.21875 62.890625 53.21875 53.421875 
Q 53.21875 48.921875 51.53125 44.890625 
Q 49.859375 40.875 45.40625 35.40625 
Q 44.1875 33.984375 37.640625 27.21875 
Q 31.109375 20.453125 19.1875 8.296875 
z
" id="DejaVuSans-50"/>
     <path d="M 10.6875 12.40625 
L 21 12.40625 
L 21 0 
L 10.6875 0 
z
" id="DejaVuSans-46"/>
    </defs>
    <g style="fill:#808080;" transform="translate(219.489063 288.777272)scale(0.1 -0.1)">
     <use xlink:href="#DejaVuSans-118"/>
     <use x="59.179688" xlink:href="#DejaVuSans-50"/>
     <use x="122.802734" xlink:href="#DejaVuSans-46"/>
     <use x="154.589844" xlink:href="#DejaVuSans-52"/>
    </g>
   </g>
  </g>
 </g>
 <defs>
  <clipPath id="pf822ab8ecc">
   <rect height="290.304" width="460.8" x="0" y="3.456"/>
  </clipPath>
 </defs>
</svg>
