<?xml version="1.0" encoding="utf-8" standalone="no"?>
<!DOCTYPE svg PUBLIC "-//W3C//DTD SVG 1.1//EN"
  "http://www.w3.org/Graphics/SVG/1.1/DTD/svg11.dtd">
<!-- Created with matplotlib (https://matplotlib.org/) -->
<svg height="345.6pt" version="1.1" viewBox="0 0 460.8 345.6" width="460.8pt" xmlns="http://www.w3.org/2000/svg" xmlns:xlink="http://www.w3.org/1999/xlink">
 <defs>
  <style type="text/css">
*{stroke-linecap:butt;stroke-linejoin:round;}
  </style>
 </defs>
 <g id="figure_1">
  <g id="patch_1">
   <path d="M 0 345.6 
L 460.8 345.6 
L 460.8 0 
L 0 0 
z
" style="fill:#ffffff;"/>
  </g>
  <g id="axes_1">
   <g id="patch_2">
    <path d="M 0 293.76 
L 460.8 293.76 
L 460.8 3.456 
L 0 3.456 
z
" style="fill:#ffffff;"/>
   </g>
   <g id="matplotlib.axis_1">
    <g id="xtick_1">
     <g id="line2d_1">
      <path clip-path="url(#pf39c3e362c)" d="M 104.689986 293.76 
L 104.689986 3.456 
" style="fill:none;stroke:#b0b0b0;stroke-linecap:square;stroke-width:0.8;"/>
     </g>
     <g id="line2d_2">
      <defs>
       <path d="M 0 0 
L 0 3.5 
" id="mb6717e4ac8" style="stroke:#000000;stroke-width:0.8;"/>
      </defs>
      <g>
       <use style="stroke:#000000;stroke-width:0.8;" x="104.689986" xlink:href="#mb6717e4ac8" y="293.76"/>
      </g>
     </g>
     <g id="text_1">
      <!-- -4 -->
      <defs>
       <path d="M 4.890625 31.390625 
L 31.203125 31.390625 
L 31.203125 23.390625 
L 4.890625 23.390625 
z
" id="DejaVuSans-45"/>
       <path d="M 37.796875 64.3125 
L 12.890625 25.390625 
L 37.796875 25.390625 
z
M 35.203125 72.90625 
L 47.609375 72.90625 
L 47.609375 25.390625 
L 58.015625 25.390625 
L 58.015625 17.1875 
L 47.609375 17.1875 
L 47.609375 0 
L 37.796875 0 
L 37.796875 17.1875 
L 4.890625 17.1875 
L 4.890625 26.703125 
z
" id="DejaVuSans-52"/>
      </defs>
      <g transform="translate(94.719674 315.956875)scale(0.2 -0.2)">
       <use xlink:href="#DejaVuSans-45"/>
       <use x="36.083984" xlink:href="#DejaVuSans-52"/>
      </g>
     </g>
    </g>
    <g id="xtick_2">
     <g id="line2d_3">
      <path clip-path="url(#pf39c3e362c)" d="M 209.493196 293.76 
L 209.493196 3.456 
" style="fill:none;stroke:#b0b0b0;stroke-linecap:square;stroke-width:0.8;"/>
     </g>
     <g id="line2d_4">
      <g>
       <use style="stroke:#000000;stroke-width:0.8;" x="209.493196" xlink:href="#mb6717e4ac8" y="293.76"/>
      </g>
     </g>
     <g id="text_2">
      <!-- 0 -->
      <defs>
       <path d="M 31.78125 66.40625 
Q 24.171875 66.40625 20.328125 58.90625 
Q 16.5 51.421875 16.5 36.375 
Q 16.5 21.390625 20.328125 13.890625 
Q 24.171875 6.390625 31.78125 6.390625 
Q 39.453125 6.390625 43.28125 13.890625 
Q 47.125 21.390625 47.125 36.375 
Q 47.125 51.421875 43.28125 58.90625 
Q 39.453125 66.40625 31.78125 66.40625 
z
M 31.78125 74.21875 
Q 44.046875 74.21875 50.515625 64.515625 
Q 56.984375 54.828125 56.984375 36.375 
Q 56.984375 17.96875 50.515625 8.265625 
Q 44.046875 -1.421875 31.78125 -1.421875 
Q 19.53125 -1.421875 13.0625 8.265625 
Q 6.59375 17.96875 6.59375 36.375 
Q 6.59375 54.828125 13.0625 64.515625 
Q 19.53125 74.21875 31.78125 74.21875 
z
" id="DejaVuSans-48"/>
      </defs>
      <g transform="translate(203.130696 315.956875)scale(0.2 -0.2)">
       <use xlink:href="#DejaVuSans-48"/>
      </g>
     </g>
    </g>
    <g id="xtick_3">
     <g id="line2d_5">
      <path clip-path="url(#pf39c3e362c)" d="M 314.296406 293.76 
L 314.296406 3.456 
" style="fill:none;stroke:#b0b0b0;stroke-linecap:square;stroke-width:0.8;"/>
     </g>
     <g id="line2d_6">
      <g>
       <use style="stroke:#000000;stroke-width:0.8;" x="314.296406" xlink:href="#mb6717e4ac8" y="293.76"/>
      </g>
     </g>
     <g id="text_3">
      <!-- 4 -->
      <g transform="translate(307.933906 315.956875)scale(0.2 -0.2)">
       <use xlink:href="#DejaVuSans-52"/>
      </g>
     </g>
    </g>
    <g id="xtick_4">
     <g id="line2d_7">
      <path clip-path="url(#pf39c3e362c)" d="M 419.099615 293.76 
L 419.099615 3.456 
" style="fill:none;stroke:#b0b0b0;stroke-linecap:square;stroke-width:0.8;"/>
     </g>
     <g id="line2d_8">
      <g>
       <use style="stroke:#000000;stroke-width:0.8;" x="419.099615" xlink:href="#mb6717e4ac8" y="293.76"/>
      </g>
     </g>
     <g id="text_4">
      <!-- 8 -->
      <defs>
       <path d="M 31.78125 34.625 
Q 24.75 34.625 20.71875 30.859375 
Q 16.703125 27.09375 16.703125 20.515625 
Q 16.703125 13.921875 20.71875 10.15625 
Q 24.75 6.390625 31.78125 6.390625 
Q 38.8125 6.390625 42.859375 10.171875 
Q 46.921875 13.96875 46.921875 20.515625 
Q 46.921875 27.09375 42.890625 30.859375 
Q 38.875 34.625 31.78125 34.625 
z
M 21.921875 38.8125 
Q 15.578125 40.375 12.03125 44.71875 
Q 8.5 49.078125 8.5 55.328125 
Q 8.5 64.0625 14.71875 69.140625 
Q 20.953125 74.21875 31.78125 74.21875 
Q 42.671875 74.21875 48.875 69.140625 
Q 55.078125 64.0625 55.078125 55.328125 
Q 55.078125 49.078125 51.53125 44.71875 
Q 48 40.375 41.703125 38.8125 
Q 48.828125 37.15625 52.796875 32.3125 
Q 56.78125 27.484375 56.78125 20.515625 
Q 56.78125 9.90625 50.3125 4.234375 
Q 43.84375 -1.421875 31.78125 -1.421875 
Q 19.734375 -1.421875 13.25 4.234375 
Q 6.78125 9.90625 6.78125 20.515625 
Q 6.78125 27.484375 10.78125 32.3125 
Q 14.796875 37.15625 21.921875 38.8125 
z
M 18.3125 54.390625 
Q 18.3125 48.734375 21.84375 45.5625 
Q 25.390625 42.390625 31.78125 42.390625 
Q 38.140625 42.390625 41.71875 45.5625 
Q 45.3125 48.734375 45.3125 54.390625 
Q 45.3125 60.0625 41.71875 63.234375 
Q 38.140625 66.40625 31.78125 66.40625 
Q 25.390625 66.40625 21.84375 63.234375 
Q 18.3125 60.0625 18.3125 54.390625 
z
" id="DejaVuSans-56"/>
      </defs>
      <g transform="translate(412.737115 315.956875)scale(0.2 -0.2)">
       <use xlink:href="#DejaVuSans-56"/>
      </g>
     </g>
    </g>
    <g id="text_5">
     <!-- log10 of Df -->
     <defs>
      <path d="M 9.421875 75.984375 
L 18.40625 75.984375 
L 18.40625 0 
L 9.421875 0 
z
" id="DejaVuSans-108"/>
      <path d="M 30.609375 48.390625 
Q 23.390625 48.390625 19.1875 42.75 
Q 14.984375 37.109375 14.984375 27.296875 
Q 14.984375 17.484375 19.15625 11.84375 
Q 23.34375 6.203125 30.609375 6.203125 
Q 37.796875 6.203125 41.984375 11.859375 
Q 46.1875 17.53125 46.1875 27.296875 
Q 46.1875 37.015625 41.984375 42.703125 
Q 37.796875 48.390625 30.609375 48.390625 
z
M 30.609375 56 
Q 42.328125 56 49.015625 48.375 
Q 55.71875 40.765625 55.71875 27.296875 
Q 55.71875 13.875 49.015625 6.21875 
Q 42.328125 -1.421875 30.609375 -1.421875 
Q 18.84375 -1.421875 12.171875 6.21875 
Q 5.515625 13.875 5.515625 27.296875 
Q 5.515625 40.765625 12.171875 48.375 
Q 18.84375 56 30.609375 56 
z
" id="DejaVuSans-111"/>
      <path d="M 45.40625 27.984375 
Q 45.40625 37.75 41.375 43.109375 
Q 37.359375 48.484375 30.078125 48.484375 
Q 22.859375 48.484375 18.828125 43.109375 
Q 14.796875 37.75 14.796875 27.984375 
Q 14.796875 18.265625 18.828125 12.890625 
Q 22.859375 7.515625 30.078125 7.515625 
Q 37.359375 7.515625 41.375 12.890625 
Q 45.40625 18.265625 45.40625 27.984375 
z
M 54.390625 6.78125 
Q 54.390625 -7.171875 48.1875 -13.984375 
Q 42 -20.796875 29.203125 -20.796875 
Q 24.46875 -20.796875 20.265625 -20.09375 
Q 16.0625 -19.390625 12.109375 -17.921875 
L 12.109375 -9.1875 
Q 16.0625 -11.328125 19.921875 -12.34375 
Q 23.78125 -13.375 27.78125 -13.375 
Q 36.625 -13.375 41.015625 -8.765625 
Q 45.40625 -4.15625 45.40625 5.171875 
L 45.40625 9.625 
Q 42.625 4.78125 38.28125 2.390625 
Q 33.9375 0 27.875 0 
Q 17.828125 0 11.671875 7.65625 
Q 5.515625 15.328125 5.515625 27.984375 
Q 5.515625 40.671875 11.671875 48.328125 
Q 17.828125 56 27.875 56 
Q 33.9375 56 38.28125 53.609375 
Q 42.625 51.21875 45.40625 46.390625 
L 45.40625 54.6875 
L 54.390625 54.6875 
z
" id="DejaVuSans-103"/>
      <path d="M 12.40625 8.296875 
L 28.515625 8.296875 
L 28.515625 63.921875 
L 10.984375 60.40625 
L 10.984375 69.390625 
L 28.421875 72.90625 
L 38.28125 72.90625 
L 38.28125 8.296875 
L 54.390625 8.296875 
L 54.390625 0 
L 12.40625 0 
z
" id="DejaVuSans-49"/>
      <path id="DejaVuSans-32"/>
      <path d="M 37.109375 75.984375 
L 37.109375 68.5 
L 28.515625 68.5 
Q 23.6875 68.5 21.796875 66.546875 
Q 19.921875 64.59375 19.921875 59.515625 
L 19.921875 54.6875 
L 34.71875 54.6875 
L 34.71875 47.703125 
L 19.921875 47.703125 
L 19.921875 0 
L 10.890625 0 
L 10.890625 47.703125 
L 2.296875 47.703125 
L 2.296875 54.6875 
L 10.890625 54.6875 
L 10.890625 58.5 
Q 10.890625 67.625 15.140625 71.796875 
Q 19.390625 75.984375 28.609375 75.984375 
z
" id="DejaVuSans-102"/>
      <path d="M 19.671875 64.796875 
L 19.671875 8.109375 
L 31.59375 8.109375 
Q 46.6875 8.109375 53.6875 14.9375 
Q 60.6875 21.78125 60.6875 36.53125 
Q 60.6875 51.171875 53.6875 57.984375 
Q 46.6875 64.796875 31.59375 64.796875 
z
M 9.8125 72.90625 
L 30.078125 72.90625 
Q 51.265625 72.90625 61.171875 64.09375 
Q 71.09375 55.28125 71.09375 36.53125 
Q 71.09375 17.671875 61.125 8.828125 
Q 51.171875 0 30.078125 0 
L 9.8125 0 
z
" id="DejaVuSans-68"/>
     </defs>
     <g transform="translate(175.214063 339.313125)scale(0.2 -0.2)">
      <use xlink:href="#DejaVuSans-108"/>
      <use x="27.783203" xlink:href="#DejaVuSans-111"/>
      <use x="88.964844" xlink:href="#DejaVuSans-103"/>
      <use x="152.441406" xlink:href="#DejaVuSans-49"/>
      <use x="216.064453" xlink:href="#DejaVuSans-48"/>
      <use x="279.6875" xlink:href="#DejaVuSans-32"/>
      <use x="311.474609" xlink:href="#DejaVuSans-111"/>
      <use x="372.65625" xlink:href="#DejaVuSans-102"/>
      <use x="407.861328" xlink:href="#DejaVuSans-32"/>
      <use x="439.648438" xlink:href="#DejaVuSans-68"/>
      <use x="516.650391" xlink:href="#DejaVuSans-102"/>
     </g>
    </g>
   </g>
   <g id="matplotlib.axis_2">
    <g id="ytick_1">
     <g id="line2d_9">
      <path clip-path="url(#pf39c3e362c)" d="M 0 293.76 
L 460.8 293.76 
" style="fill:none;stroke:#b0b0b0;stroke-linecap:square;stroke-width:0.8;"/>
     </g>
     <g id="line2d_10">
      <defs>
       <path d="M 0 0 
L -3.5 0 
" id="m6e7446f7ad" style="stroke:#000000;stroke-width:0.8;"/>
      </defs>
      <g>
       <use style="stroke:#000000;stroke-width:0.8;" x="0" xlink:href="#m6e7446f7ad" y="293.76"/>
      </g>
     </g>
    </g>
    <g id="ytick_2">
     <g id="line2d_11">
      <path clip-path="url(#pf39c3e362c)" d="M 0 236.274059 
L 460.8 236.274059 
" style="fill:none;stroke:#b0b0b0;stroke-linecap:square;stroke-width:0.8;"/>
     </g>
     <g id="line2d_12">
      <g>
       <use style="stroke:#000000;stroke-width:0.8;" x="0" xlink:href="#m6e7446f7ad" y="236.274059"/>
      </g>
     </g>
    </g>
    <g id="ytick_3">
     <g id="line2d_13">
      <path clip-path="url(#pf39c3e362c)" d="M 0 178.788119 
L 460.8 178.788119 
" style="fill:none;stroke:#b0b0b0;stroke-linecap:square;stroke-width:0.8;"/>
     </g>
     <g id="line2d_14">
      <g>
       <use style="stroke:#000000;stroke-width:0.8;" x="0" xlink:href="#m6e7446f7ad" y="178.788119"/>
      </g>
     </g>
    </g>
    <g id="ytick_4">
     <g id="line2d_15">
      <path clip-path="url(#pf39c3e362c)" d="M 0 121.302178 
L 460.8 121.302178 
" style="fill:none;stroke:#b0b0b0;stroke-linecap:square;stroke-width:0.8;"/>
     </g>
     <g id="line2d_16">
      <g>
       <use style="stroke:#000000;stroke-width:0.8;" x="0" xlink:href="#m6e7446f7ad" y="121.302178"/>
      </g>
     </g>
    </g>
    <g id="ytick_5">
     <g id="line2d_17">
      <path clip-path="url(#pf39c3e362c)" d="M 0 63.816238 
L 460.8 63.816238 
" style="fill:none;stroke:#b0b0b0;stroke-linecap:square;stroke-width:0.8;"/>
     </g>
     <g id="line2d_18">
      <g>
       <use style="stroke:#000000;stroke-width:0.8;" x="0" xlink:href="#m6e7446f7ad" y="63.816238"/>
      </g>
     </g>
    </g>
    <g id="ytick_6">
     <g id="line2d_19">
      <path clip-path="url(#pf39c3e362c)" d="M 0 6.330297 
L 460.8 6.330297 
" style="fill:none;stroke:#b0b0b0;stroke-linecap:square;stroke-width:0.8;"/>
     </g>
     <g id="line2d_20">
      <g>
       <use style="stroke:#000000;stroke-width:0.8;" x="0" xlink:href="#m6e7446f7ad" y="6.330297"/>
      </g>
     </g>
    </g>
   </g>
   <g id="line2d_21">
    <path clip-path="url(#pf39c3e362c)" d="M 251.111877 293.76 
L 251.111877 289.927604 
L 252.574112 289.927604 
L 252.574112 286.095208 
L 253.145407 286.095208 
L 253.213425 278.430416 
L 253.490598 278.430416 
L 253.490598 274.59802 
L 254.306616 274.59802 
L 254.335994 266.933228 
L 254.588767 266.933228 
L 254.588767 263.100832 
L 255.252159 263.100832 
L 255.252159 259.268436 
L 255.702219 259.268436 
L 255.702219 255.43604 
L 257.658934 255.43604 
L 257.658934 251.603644 
L 258.810149 251.603644 
L 258.810149 247.771248 
L 259.712791 247.771248 
L 259.712791 243.938851 
L 259.996227 243.938851 
L 259.996227 240.106455 
L 260.768292 240.106455 
L 260.768292 236.274059 
L 269.860055 236.274059 
L 269.905747 228.609267 
L 270.641052 228.609267 
L 270.641052 224.776871 
L 271.064223 224.776871 
L 271.064223 220.944475 
L 271.362374 220.944475 
L 271.362374 217.112079 
L 271.666077 217.112079 
L 271.724044 209.447287 
L 271.864303 209.447287 
L 271.927129 201.782495 
L 272.26488 201.782495 
L 272.369692 190.285307 
L 272.439832 190.285307 
L 272.501067 182.620515 
L 272.554815 182.620515 
L 272.554815 178.788119 
L 272.935298 178.788119 
L 272.935298 174.955723 
L 273.334616 174.955723 
L 273.334616 171.123327 
L 274.740621 171.123327 
L 274.740621 167.290931 
L 275.037603 167.290931 
L 275.123147 155.793743 
L 275.402713 155.793743 
L 275.402713 151.961347 
L 275.661979 151.961347 
L 275.762024 140.464158 
L 276.149905 140.464158 
L 276.149905 136.631762 
L 276.807049 136.631762 
L 276.807049 132.799366 
L 277.086161 132.799366 
L 277.086161 128.96697 
L 277.254848 128.96697 
L 277.254848 125.134574 
L 277.913541 125.134574 
L 277.981479 113.637386 
L 278.921675 113.637386 
L 278.921675 109.80499 
L 279.324188 109.80499 
L 279.324188 105.972594 
L 279.584833 105.972594 
L 279.584833 102.140198 
L 279.763124 102.140198 
L 279.854655 94.475406 
L 279.882262 94.475406 
L 279.882262 90.64301 
L 280.054399 90.64301 
L 280.096157 82.978218 
L 280.168668 82.978218 
L 280.225102 71.48103 
L 281.198052 71.48103 
L 281.198052 67.648634 
L 282.597103 67.648634 
L 282.597103 63.816238 
L 355.436883 63.816238 
L 355.436883 59.983842 
L 357.147778 59.983842 
L 357.147778 56.151446 
L 357.394915 56.151446 
L 357.394915 52.31905 
L 357.524845 52.31905 
L 357.524845 48.486653 
L 358.688342 48.486653 
L 358.688342 44.654257 
L 359.785469 44.654257 
L 359.785469 40.821861 
L 360.654761 40.821861 
L 360.654761 36.989465 
L 362.760445 36.989465 
L 362.760445 33.157069 
L 367.939273 33.157069 
L 367.939273 29.324673 
L 368.183043 29.324673 
L 368.183043 25.492277 
L 370.99786 25.492277 
L 370.99786 21.659881 
L 372.070414 21.659881 
L 372.070414 17.827485 
L 375.228271 17.827485 
L 375.228271 13.995089 
L 375.626995 13.995089 
L 375.626995 10.162693 
L 376.204174 10.162693 
L 376.204174 6.330297 
L 376.204174 6.330297 
L 460.8 6.330297 
L 460.8 6.330297 
" style="fill:none;stroke:#ff0000;stroke-linecap:square;stroke-width:3;"/>
   </g>
   <g id="line2d_22">
    <path clip-path="url(#pf39c3e362c)" d="M 258.011699 293.76 
L 258.011699 289.927604 
L 264.394865 289.927604 
L 264.394865 286.095208 
L 267.734025 286.095208 
L 267.753323 278.430416 
L 268.041672 278.430416 
L 268.041672 274.59802 
L 268.50937 274.59802 
L 268.50937 270.765624 
L 268.693558 270.765624 
L 268.803103 263.100832 
L 268.988223 263.100832 
L 268.988223 259.268436 
L 269.16664 259.268436 
L 269.16664 255.43604 
L 269.892124 255.43604 
L 269.892124 251.603644 
L 270.204749 251.603644 
L 270.204749 247.771248 
L 271.156687 247.771248 
L 271.16806 240.106455 
L 271.887246 240.106455 
L 271.887246 236.274059 
L 272.121571 236.274059 
L 272.121571 232.441663 
L 272.596832 232.441663 
L 272.596832 228.609267 
L 273.485092 228.609267 
L 273.485092 224.776871 
L 273.817948 224.776871 
L 273.923295 213.279683 
L 274.036707 213.279683 
L 274.036707 209.447287 
L 274.407751 209.447287 
L 274.446799 201.782495 
L 274.586232 201.782495 
L 274.586232 197.950099 
L 274.969496 197.950099 
L 274.969496 194.117703 
L 275.402878 194.117703 
L 275.402878 190.285307 
L 275.773181 190.285307 
L 275.819106 182.620515 
L 276.273299 182.620515 
L 276.273299 178.788119 
L 286.587044 178.788119 
L 286.587044 174.955723 
L 287.05821 174.955723 
L 287.05821 171.123327 
L 287.174813 171.123327 
L 287.174813 167.290931 
L 287.449666 167.290931 
L 287.449666 163.458535 
L 287.639306 163.458535 
L 287.639306 159.626139 
L 287.853788 159.626139 
L 287.853788 155.793743 
L 288.419516 155.793743 
L 288.419516 151.961347 
L 288.825113 151.961347 
L 288.825113 148.12895 
L 289.084994 148.12895 
L 289.086562 140.464158 
L 289.578744 140.464158 
L 289.578744 136.631762 
L 289.836575 136.631762 
L 289.836575 132.799366 
L 290.484815 132.799366 
L 290.484815 128.96697 
L 290.962514 128.96697 
L 291.028035 121.302178 
L 291.258587 121.302178 
L 291.258587 117.469782 
L 291.705298 117.469782 
L 291.734706 109.80499 
L 292.168269 109.80499 
L 292.168269 105.972594 
L 292.324085 105.972594 
L 292.324085 102.140198 
L 292.559341 102.140198 
L 292.559341 98.307802 
L 292.695383 98.307802 
L 292.695383 94.475406 
L 292.877775 94.475406 
L 292.960789 86.810614 
L 293.656626 86.810614 
L 293.656626 82.978218 
L 293.922865 82.978218 
L 293.922865 79.145822 
L 294.045544 79.145822 
L 294.045544 75.313426 
L 294.501351 75.313426 
L 294.501351 71.48103 
L 298.694807 71.48103 
L 298.694807 67.648634 
L 301.419678 67.648634 
L 301.419678 63.816238 
L 371.208034 63.816238 
L 371.208034 59.983842 
L 376.687439 59.983842 
L 376.687439 56.151446 
L 378.229151 56.151446 
L 378.229151 52.31905 
L 384.318114 52.31905 
L 384.318114 48.486653 
L 385.799178 48.486653 
L 385.850722 40.821861 
L 386.642609 40.821861 
L 386.642609 36.989465 
L 387.41228 36.989465 
L 387.41228 33.157069 
L 387.841166 33.157069 
L 387.841166 29.324673 
L 388.11597 29.324673 
L 388.11597 25.492277 
L 389.372311 25.492277 
L 389.372311 21.659881 
L 392.190023 21.659881 
L 392.190023 17.827485 
L 394.361168 17.827485 
L 394.361168 13.995089 
L 396.685479 13.995089 
L 396.685479 10.162693 
L 398.45673 10.162693 
L 398.45673 6.330297 
L 398.45673 6.330297 
L 460.8 6.330297 
L 460.8 6.330297 
" style="fill:none;stroke:#00bfbf;stroke-linecap:square;stroke-width:1.5;"/>
   </g>
   <g id="line2d_23">
    <path clip-path="url(#pf39c3e362c)" d="M 258.011699 293.76 
L 258.011699 289.927604 
L 261.580795 289.927604 
L 261.580795 286.095208 
L 263.75331 286.095208 
L 263.75331 282.262812 
L 263.962093 282.262812 
L 263.962093 278.430416 
L 264.198673 278.430416 
L 264.198673 274.59802 
L 264.394865 274.59802 
L 264.394865 270.765624 
L 265.402638 270.765624 
L 265.402638 266.933228 
L 267.234192 266.933228 
L 267.234192 263.100832 
L 267.564185 263.100832 
L 267.564185 259.268436 
L 267.713495 259.268436 
L 267.713495 255.43604 
L 267.985447 255.43604 
L 267.985447 251.603644 
L 268.337462 251.603644 
L 268.337462 247.771248 
L 268.618874 247.771248 
L 268.693558 240.106455 
L 270.810349 240.106455 
L 270.810349 236.274059 
L 271.156687 236.274059 
L 271.156687 232.441663 
L 271.688716 232.441663 
L 271.688716 228.609267 
L 273.471485 228.609267 
L 273.485092 220.944475 
L 273.801714 220.944475 
L 273.870978 205.614891 
L 273.923295 205.614891 
L 273.923295 201.782495 
L 274.036707 201.782495 
L 274.132715 194.117703 
L 274.210665 194.117703 
L 274.210665 190.285307 
L 274.407751 190.285307 
L 274.460674 182.620515 
L 274.676082 182.620515 
L 274.676082 178.788119 
L 282.350358 178.788119 
L 282.350358 174.955723 
L 284.648192 174.955723 
L 284.648192 171.123327 
L 285.237978 171.123327 
L 285.237978 167.290931 
L 286.093093 167.290931 
L 286.093093 163.458535 
L 286.22522 163.458535 
L 286.22522 159.626139 
L 286.372693 159.626139 
L 286.372693 155.793743 
L 286.587044 155.793743 
L 286.607921 148.12895 
L 286.97796 148.12895 
L 286.97796 144.296554 
L 287.174813 144.296554 
L 287.174813 140.464158 
L 287.432679 140.464158 
L 287.432679 136.631762 
L 287.639306 136.631762 
L 287.639306 132.799366 
L 287.853788 132.799366 
L 287.853788 128.96697 
L 288.129538 128.96697 
L 288.129538 125.134574 
L 288.444106 125.134574 
L 288.444106 121.302178 
L 288.63265 121.302178 
L 288.63265 117.469782 
L 288.825113 117.469782 
L 288.825113 113.637386 
L 289.084994 113.637386 
L 289.084994 109.80499 
L 289.409965 109.80499 
L 289.409965 105.972594 
L 289.675078 105.972594 
L 289.675078 102.140198 
L 289.823318 102.140198 
L 289.836575 94.475406 
L 290.309736 94.475406 
L 290.309736 90.64301 
L 290.484815 90.64301 
L 290.484815 86.810614 
L 291.621676 86.810614 
L 291.621676 82.978218 
L 291.734706 82.978218 
L 291.734706 79.145822 
L 292.168269 79.145822 
L 292.168269 75.313426 
L 292.324085 75.313426 
L 292.324085 71.48103 
L 292.695383 71.48103 
L 292.695383 67.648634 
L 292.960789 67.648634 
L 292.960789 63.816238 
L 371.208034 63.816238 
L 371.208034 59.983842 
L 375.828858 59.983842 
L 375.828858 56.151446 
L 376.687439 56.151446 
L 376.687439 52.31905 
L 377.471533 52.31905 
L 377.471533 48.486653 
L 378.229151 48.486653 
L 378.229151 44.654257 
L 379.946074 44.654257 
L 379.946074 40.821861 
L 383.389295 40.821861 
L 383.389295 36.989465 
L 384.001469 36.989465 
L 384.001469 33.157069 
L 384.318114 33.157069 
L 384.318114 29.324673 
L 384.619914 29.324673 
L 384.619914 25.492277 
L 385.640984 25.492277 
L 385.640984 21.659881 
L 385.80507 21.659881 
L 385.850722 13.995089 
L 386.750609 13.995089 
L 386.750609 10.162693 
L 389.372311 10.162693 
L 389.372311 6.330297 
L 389.372311 6.330297 
L 460.8 6.330297 
L 460.8 6.330297 
" style="fill:none;stroke:#bf00bf;stroke-linecap:square;stroke-width:1.5;"/>
   </g>
   <g id="line2d_24">
    <path clip-path="url(#pf39c3e362c)" d="M 258.011699 293.76 
L 258.011699 289.927604 
L 260.064475 289.927604 
L 260.064475 286.095208 
L 260.777977 286.095208 
L 260.777977 282.262812 
L 263.038921 282.262812 
L 263.038921 278.430416 
L 263.672003 278.430416 
L 263.75331 270.765624 
L 263.929653 270.765624 
L 263.976468 263.100832 
L 264.176626 263.100832 
L 264.198673 255.43604 
L 264.364843 255.43604 
L 264.364843 251.603644 
L 265.350023 251.603644 
L 265.350023 247.771248 
L 266.506787 247.771248 
L 266.506787 243.938851 
L 268.337462 243.938851 
L 268.337462 240.106455 
L 268.71548 240.106455 
L 268.71548 236.274059 
L 270.810349 236.274059 
L 270.810349 232.441663 
L 271.156687 232.441663 
L 271.156687 228.609267 
L 271.714312 228.609267 
L 271.714312 224.776871 
L 272.495127 224.776871 
L 272.495127 220.944475 
L 272.805766 220.944475 
L 272.869398 213.279683 
L 273.025841 213.279683 
L 273.025841 209.447287 
L 273.263215 209.447287 
L 273.263215 205.614891 
L 273.471485 205.614891 
L 273.485235 194.117703 
L 273.694287 194.117703 
L 273.801714 186.452911 
L 273.870978 186.452911 
L 273.870978 182.620515 
L 274.132715 182.620515 
L 274.132715 178.788119 
L 278.775558 178.788119 
L 278.775558 174.955723 
L 281.556652 174.955723 
L 281.556652 171.123327 
L 281.859377 171.123327 
L 281.859377 167.290931 
L 282.350358 167.290931 
L 282.350358 163.458535 
L 283.311596 163.458535 
L 283.311596 159.626139 
L 283.657864 159.626139 
L 283.657864 155.793743 
L 283.959876 155.793743 
L 283.959876 151.961347 
L 284.084365 151.961347 
L 284.108891 144.296554 
L 284.461757 144.296554 
L 284.461757 140.464158 
L 284.735644 140.464158 
L 284.81819 132.799366 
L 285.448619 132.799366 
L 285.532969 117.469782 
L 285.989389 117.469782 
L 285.989389 113.637386 
L 286.455994 113.637386 
L 286.512569 105.972594 
L 286.574452 105.972594 
L 286.607921 98.307802 
L 286.850813 98.307802 
L 286.850813 94.475406 
L 287.092857 94.475406 
L 287.107984 86.810614 
L 288.367548 86.810614 
L 288.367548 82.978218 
L 288.762723 82.978218 
L 288.774921 75.313426 
L 289.744392 75.313426 
L 289.832115 63.816238 
L 369.49403 63.816238 
L 369.49403 59.983842 
L 371.057831 59.983842 
L 371.165188 52.31905 
L 375.828858 52.31905 
L 375.828858 48.486653 
L 376.051386 48.486653 
L 376.051386 44.654257 
L 377.471533 44.654257 
L 377.471533 40.821861 
L 378.848861 40.821861 
L 378.848861 36.989465 
L 379.015485 36.989465 
L 379.015485 33.157069 
L 379.848312 33.157069 
L 379.84982 25.492277 
L 380.250518 25.492277 
L 380.250518 21.659881 
L 380.437009 21.659881 
L 380.437009 17.827485 
L 382.111349 17.827485 
L 382.111349 13.995089 
L 383.389295 13.995089 
L 383.389295 10.162693 
L 384.458146 10.162693 
L 384.458146 6.330297 
L 384.458146 6.330297 
L 460.8 6.330297 
L 460.8 6.330297 
" style="fill:none;stroke:#000000;stroke-linecap:square;stroke-width:1.5;"/>
   </g>
   <g id="line2d_25">
    <path clip-path="url(#pf39c3e362c)" d="M 255.081513 293.76 
L 255.192384 286.095208 
L 257.335119 286.095208 
L 257.335119 282.262812 
L 258.11208 282.262812 
L 258.11208 278.430416 
L 258.309059 278.430416 
L 258.309059 274.59802 
L 258.892047 274.59802 
L 258.892047 270.765624 
L 260.348368 270.765624 
L 260.400728 263.100832 
L 260.589872 263.100832 
L 260.589872 259.268436 
L 261.121558 259.268436 
L 261.121558 255.43604 
L 261.746221 255.43604 
L 261.746221 251.603644 
L 262.234656 251.603644 
L 262.234656 247.771248 
L 262.989601 247.771248 
L 262.989601 243.938851 
L 263.565395 243.938851 
L 263.565395 240.106455 
L 266.613336 240.106455 
L 266.613336 236.274059 
L 270.810349 236.274059 
L 270.810349 232.441663 
L 271.156687 232.441663 
L 271.156687 228.609267 
L 271.714312 228.609267 
L 271.714312 224.776871 
L 272.495127 224.776871 
L 272.495127 220.944475 
L 272.716851 220.944475 
L 272.766493 213.279683 
L 272.869398 213.279683 
L 272.869398 209.447287 
L 273.263215 209.447287 
L 273.263215 205.614891 
L 273.471485 205.614891 
L 273.485235 194.117703 
L 273.668491 194.117703 
L 273.694287 186.452911 
L 273.801714 186.452911 
L 273.801714 182.620515 
L 274.132715 182.620515 
L 274.132715 178.788119 
L 277.536034 178.788119 
L 277.536034 174.955723 
L 278.077919 174.955723 
L 278.077919 171.123327 
L 279.076566 171.123327 
L 279.076566 167.290931 
L 279.448045 167.290931 
L 279.448045 163.458535 
L 279.944486 163.458535 
L 280.052978 155.793743 
L 280.208926 155.793743 
L 280.208926 151.961347 
L 280.652463 151.961347 
L 280.652463 148.12895 
L 281.32365 148.12895 
L 281.32365 144.296554 
L 281.659312 144.296554 
L 281.659312 140.464158 
L 282.141858 140.464158 
L 282.141858 136.631762 
L 282.307747 136.631762 
L 282.409023 125.134574 
L 282.74303 125.134574 
L 282.83298 117.469782 
L 282.863465 117.469782 
L 282.863465 113.637386 
L 283.149462 113.637386 
L 283.149462 109.80499 
L 283.363414 109.80499 
L 283.363414 105.972594 
L 283.699017 105.972594 
L 283.699017 102.140198 
L 284.093369 102.140198 
L 284.093369 98.307802 
L 284.311384 98.307802 
L 284.311384 94.475406 
L 284.463139 94.475406 
L 284.463139 90.64301 
L 284.797146 90.64301 
L 284.797146 86.810614 
L 285.002867 86.810614 
L 285.002867 82.978218 
L 285.234334 82.978218 
L 285.234334 79.145822 
L 285.623027 79.145822 
L 285.623027 75.313426 
L 286.003928 75.313426 
L 286.003928 71.48103 
L 286.369628 71.48103 
L 286.369628 67.648634 
L 286.828248 67.648634 
L 286.828248 63.816238 
L 361.360437 63.816238 
L 361.360437 59.983842 
L 366.240688 59.983842 
L 366.240688 56.151446 
L 369.541534 56.151446 
L 369.541534 52.31905 
L 370.269476 52.31905 
L 370.269476 48.486653 
L 371.057831 48.486653 
L 371.165188 40.821861 
L 372.604631 40.821861 
L 372.604631 36.989465 
L 372.880825 36.989465 
L 372.880825 33.157069 
L 373.445253 33.157069 
L 373.445253 29.324673 
L 374.655099 29.324673 
L 374.655099 25.492277 
L 375.3725 25.492277 
L 375.3725 21.659881 
L 376.040398 21.659881 
L 376.040398 17.827485 
L 379.403086 17.827485 
L 379.403086 13.995089 
L 380.436937 13.995089 
L 380.436937 10.162693 
L 382.852609 10.162693 
L 382.852609 6.330297 
L 382.852609 6.330297 
L 460.8 6.330297 
L 460.8 6.330297 
" style="fill:none;stroke:#00bfbf;stroke-linecap:square;stroke-width:1.5;"/>
   </g>
   <g id="line2d_26">
    <path clip-path="url(#pf39c3e362c)" d="M 251.111877 293.76 
L 251.111877 289.927604 
L 252.576177 289.927604 
L 252.576177 286.095208 
L 253.145407 286.095208 
L 253.213425 278.430416 
L 253.490598 278.430416 
L 253.490598 274.59802 
L 254.355356 274.59802 
L 254.355356 270.765624 
L 254.533989 270.765624 
L 254.588767 263.100832 
L 255.252159 263.100832 
L 255.252159 259.268436 
L 255.702219 259.268436 
L 255.702219 255.43604 
L 257.699669 255.43604 
L 257.699669 251.603644 
L 259.121106 251.603644 
L 259.121106 247.771248 
L 259.712791 247.771248 
L 259.712791 243.938851 
L 259.996227 243.938851 
L 259.996227 240.106455 
L 260.768292 240.106455 
L 260.768292 236.274059 
L 269.868715 236.274059 
L 269.905747 228.609267 
L 270.641052 228.609267 
L 270.641052 224.776871 
L 271.176943 224.776871 
L 271.176943 220.944475 
L 271.382063 220.944475 
L 271.382063 217.112079 
L 271.666077 217.112079 
L 271.724044 209.447287 
L 271.864303 209.447287 
L 271.927129 201.782495 
L 272.294345 201.782495 
L 272.369692 194.117703 
L 272.484154 194.117703 
L 272.569242 178.788119 
L 272.935298 178.788119 
L 272.935298 174.955723 
L 273.344511 174.955723 
L 273.344511 171.123327 
L 274.740621 171.123327 
L 274.740621 167.290931 
L 275.037603 167.290931 
L 275.123147 159.626139 
L 275.641281 159.626139 
L 275.728162 148.12895 
L 275.832017 148.12895 
L 275.907272 140.464158 
L 276.21602 140.464158 
L 276.21602 136.631762 
L 276.807049 136.631762 
L 276.807049 132.799366 
L 277.086161 132.799366 
L 277.086161 128.96697 
L 277.254848 128.96697 
L 277.254848 125.134574 
L 277.977867 125.134574 
L 277.981479 117.469782 
L 278.468685 117.469782 
L 278.468685 113.637386 
L 278.921675 113.637386 
L 278.921675 109.80499 
L 279.384298 109.80499 
L 279.384298 105.972594 
L 279.584833 105.972594 
L 279.584833 102.140198 
L 279.869356 102.140198 
L 279.930194 90.64301 
L 280.054399 90.64301 
L 280.054399 86.810614 
L 280.168668 86.810614 
L 280.225102 71.48103 
L 281.231529 71.48103 
L 281.231529 67.648634 
L 282.923793 67.648634 
L 282.923793 63.816238 
L 355.437132 63.816238 
L 355.437132 59.983842 
L 357.394915 59.983842 
L 357.413766 52.31905 
L 357.649311 52.31905 
L 357.649311 48.486653 
L 358.712926 48.486653 
L 358.712926 44.654257 
L 359.785469 44.654257 
L 359.785469 40.821861 
L 360.703193 40.821861 
L 360.703193 36.989465 
L 362.760445 36.989465 
L 362.760445 33.157069 
L 367.941081 33.157069 
L 367.941081 29.324673 
L 368.183043 29.324673 
L 368.183043 25.492277 
L 370.99786 25.492277 
L 370.99786 21.659881 
L 372.185553 21.659881 
L 372.185553 17.827485 
L 375.228271 17.827485 
L 375.228271 13.995089 
L 375.626995 13.995089 
L 375.626995 10.162693 
L 376.20559 10.162693 
L 376.20559 6.330297 
L 376.20559 6.330297 
L 460.8 6.330297 
L 460.8 6.330297 
" style="fill:none;stroke:#bf00bf;stroke-linecap:square;stroke-width:1.5;"/>
   </g>
   <g id="patch_3">
    <path d="M 0 293.76 
L 0 3.456 
" style="fill:none;stroke:#000000;stroke-linecap:square;stroke-linejoin:miter;stroke-width:0.8;"/>
   </g>
   <g id="patch_4">
    <path d="M 460.8 293.76 
L 460.8 3.456 
" style="fill:none;stroke:#000000;stroke-linecap:square;stroke-linejoin:miter;stroke-width:0.8;"/>
   </g>
   <g id="patch_5">
    <path d="M -0 293.76 
L 460.8 293.76 
" style="fill:none;stroke:#000000;stroke-linecap:square;stroke-linejoin:miter;stroke-width:0.8;"/>
   </g>
   <g id="patch_6">
    <path d="M -0 3.456 
L 460.8 3.456 
" style="fill:none;stroke:#000000;stroke-linecap:square;stroke-linejoin:miter;stroke-width:0.8;"/>
   </g>
   <g id="text_6">
    <!-- {f1-f5}, 20-D -->
    <defs>
     <path d="M 51.125 -9.28125 
L 51.125 -16.3125 
L 48.09375 -16.3125 
Q 35.9375 -16.3125 31.8125 -12.6875 
Q 27.6875 -9.078125 27.6875 1.703125 
L 27.6875 13.375 
Q 27.6875 20.75 25.046875 23.578125 
Q 22.40625 26.421875 15.484375 26.421875 
L 12.5 26.421875 
L 12.5 33.40625 
L 15.484375 33.40625 
Q 22.46875 33.40625 25.078125 36.203125 
Q 27.6875 39.015625 27.6875 46.296875 
L 27.6875 58.015625 
Q 27.6875 68.796875 31.8125 72.390625 
Q 35.9375 75.984375 48.09375 75.984375 
L 51.125 75.984375 
L 51.125 69 
L 47.796875 69 
Q 40.921875 69 38.8125 66.84375 
Q 36.71875 64.703125 36.71875 57.8125 
L 36.71875 45.703125 
Q 36.71875 38.03125 34.5 34.5625 
Q 32.28125 31.109375 26.90625 29.890625 
Q 32.328125 28.5625 34.515625 25.09375 
Q 36.71875 21.625 36.71875 14.015625 
L 36.71875 1.90625 
Q 36.71875 -4.984375 38.8125 -7.125 
Q 40.921875 -9.28125 47.796875 -9.28125 
z
" id="DejaVuSans-123"/>
     <path d="M 10.796875 72.90625 
L 49.515625 72.90625 
L 49.515625 64.59375 
L 19.828125 64.59375 
L 19.828125 46.734375 
Q 21.96875 47.46875 24.109375 47.828125 
Q 26.265625 48.1875 28.421875 48.1875 
Q 40.625 48.1875 47.75 41.5 
Q 54.890625 34.8125 54.890625 23.390625 
Q 54.890625 11.625 47.5625 5.09375 
Q 40.234375 -1.421875 26.90625 -1.421875 
Q 22.3125 -1.421875 17.546875 -0.640625 
Q 12.796875 0.140625 7.71875 1.703125 
L 7.71875 11.625 
Q 12.109375 9.234375 16.796875 8.0625 
Q 21.484375 6.890625 26.703125 6.890625 
Q 35.15625 6.890625 40.078125 11.328125 
Q 45.015625 15.765625 45.015625 23.390625 
Q 45.015625 31 40.078125 35.4375 
Q 35.15625 39.890625 26.703125 39.890625 
Q 22.75 39.890625 18.8125 39.015625 
Q 14.890625 38.140625 10.796875 36.28125 
z
" id="DejaVuSans-53"/>
     <path d="M 12.5 -9.28125 
L 15.921875 -9.28125 
Q 22.75 -9.28125 24.828125 -7.171875 
Q 26.90625 -5.078125 26.90625 1.90625 
L 26.90625 14.015625 
Q 26.90625 21.625 29.09375 25.09375 
Q 31.296875 28.5625 36.71875 29.890625 
Q 31.296875 31.109375 29.09375 34.5625 
Q 26.90625 38.03125 26.90625 45.703125 
L 26.90625 57.8125 
Q 26.90625 64.75 24.828125 66.875 
Q 22.75 69 15.921875 69 
L 12.5 69 
L 12.5 75.984375 
L 15.578125 75.984375 
Q 27.734375 75.984375 31.8125 72.390625 
Q 35.890625 68.796875 35.890625 58.015625 
L 35.890625 46.296875 
Q 35.890625 39.015625 38.515625 36.203125 
Q 41.15625 33.40625 48.09375 33.40625 
L 51.125 33.40625 
L 51.125 26.421875 
L 48.09375 26.421875 
Q 41.15625 26.421875 38.515625 23.578125 
Q 35.890625 20.75 35.890625 13.375 
L 35.890625 1.703125 
Q 35.890625 -9.078125 31.8125 -12.6875 
Q 27.734375 -16.3125 15.578125 -16.3125 
L 12.5 -16.3125 
z
" id="DejaVuSans-125"/>
     <path d="M 11.71875 12.40625 
L 22.015625 12.40625 
L 22.015625 4 
L 14.015625 -11.625 
L 7.71875 -11.625 
L 11.71875 4 
z
" id="DejaVuSans-44"/>
     <path d="M 19.1875 8.296875 
L 53.609375 8.296875 
L 53.609375 0 
L 7.328125 0 
L 7.328125 8.296875 
Q 12.9375 14.109375 22.625 23.890625 
Q 32.328125 33.6875 34.8125 36.53125 
Q 39.546875 41.84375 41.421875 45.53125 
Q 43.3125 49.21875 43.3125 52.78125 
Q 43.3125 58.59375 39.234375 62.25 
Q 35.15625 65.921875 28.609375 65.921875 
Q 23.96875 65.921875 18.8125 64.3125 
Q 13.671875 62.703125 7.8125 59.421875 
L 7.8125 69.390625 
Q 13.765625 71.78125 18.9375 73 
Q 24.125 74.21875 28.421875 74.21875 
Q 39.75 74.21875 46.484375 68.546875 
Q 53.21875 62.890625 53.21875 53.421875 
Q 53.21875 48.921875 51.53125 44.890625 
Q 49.859375 40.875 45.40625 35.40625 
Q 44.1875 33.984375 37.640625 27.21875 
Q 31.109375 20.453125 19.1875 8.296875 
z
" id="DejaVuSans-50"/>
    </defs>
    <g transform="translate(318.609 287.95392)scale(0.2 -0.2)">
     <use xlink:href="#DejaVuSans-123"/>
     <use x="63.623047" xlink:href="#DejaVuSans-102"/>
     <use x="98.828125" xlink:href="#DejaVuSans-49"/>
     <use x="162.451172" xlink:href="#DejaVuSans-45"/>
     <use x="198.535156" xlink:href="#DejaVuSans-102"/>
     <use x="233.740234" xlink:href="#DejaVuSans-53"/>
     <use x="297.363281" xlink:href="#DejaVuSans-125"/>
     <use x="360.986328" xlink:href="#DejaVuSans-44"/>
     <use x="392.773438" xlink:href="#DejaVuSans-32"/>
     <use x="424.560547" xlink:href="#DejaVuSans-50"/>
     <use x="488.183594" xlink:href="#DejaVuSans-48"/>
     <use x="551.806641" xlink:href="#DejaVuSans-45"/>
     <use x="587.890625" xlink:href="#DejaVuSans-68"/>
    </g>
   </g>
   <g id="text_7">
    <!-- v2.4 -->
    <defs>
     <path d="M 2.984375 54.6875 
L 12.5 54.6875 
L 29.59375 8.796875 
L 46.6875 54.6875 
L 56.203125 54.6875 
L 35.6875 0 
L 23.484375 0 
z
" id="DejaVuSans-118"/>
     <path d="M 10.6875 12.40625 
L 21 12.40625 
L 21 0 
L 10.6875 0 
z
" id="DejaVuSans-46"/>
    </defs>
    <g style="fill:#808080;" transform="translate(219.489063 288.777272)scale(0.1 -0.1)">
     <use xlink:href="#DejaVuSans-118"/>
     <use x="59.179688" xlink:href="#DejaVuSans-50"/>
     <use x="122.802734" xlink:href="#DejaVuSans-46"/>
     <use x="154.589844" xlink:href="#DejaVuSans-52"/>
    </g>
   </g>
  </g>
 </g>
 <defs>
  <clipPath id="pf39c3e362c">
   <rect height="290.304" width="460.8" x="0" y="3.456"/>
  </clipPath>
 </defs>
</svg>
