<?xml version="1.0" encoding="utf-8" standalone="no"?>
<!DOCTYPE svg PUBLIC "-//W3C//DTD SVG 1.1//EN"
  "http://www.w3.org/Graphics/SVG/1.1/DTD/svg11.dtd">
<!-- Created with matplotlib (https://matplotlib.org/) -->
<svg height="345.6pt" version="1.1" viewBox="0 0 460.8 345.6" width="460.8pt" xmlns="http://www.w3.org/2000/svg" xmlns:xlink="http://www.w3.org/1999/xlink">
 <defs>
  <style type="text/css">
*{stroke-linecap:butt;stroke-linejoin:round;}
  </style>
 </defs>
 <g id="figure_1">
  <g id="patch_1">
   <path d="M 0 345.6 
L 460.8 345.6 
L 460.8 0 
L 0 0 
z
" style="fill:#ffffff;"/>
  </g>
  <g id="axes_1">
   <g id="patch_2">
    <path d="M 0 293.76 
L 460.8 293.76 
L 460.8 3.456 
L 0 3.456 
z
" style="fill:#ffffff;"/>
   </g>
   <g id="matplotlib.axis_1">
    <g id="xtick_1">
     <g id="line2d_1">
      <path clip-path="url(#p06dbc7225b)" d="M 104.689986 293.76 
L 104.689986 3.456 
" style="fill:none;stroke:#b0b0b0;stroke-linecap:square;stroke-width:0.8;"/>
     </g>
     <g id="line2d_2">
      <defs>
       <path d="M 0 0 
L 0 3.5 
" id="me8c321c3c3" style="stroke:#000000;stroke-width:0.8;"/>
      </defs>
      <g>
       <use style="stroke:#000000;stroke-width:0.8;" x="104.689986" xlink:href="#me8c321c3c3" y="293.76"/>
      </g>
     </g>
     <g id="text_1">
      <!-- -4 -->
      <defs>
       <path d="M 4.890625 31.390625 
L 31.203125 31.390625 
L 31.203125 23.390625 
L 4.890625 23.390625 
z
" id="DejaVuSans-45"/>
       <path d="M 37.796875 64.3125 
L 12.890625 25.390625 
L 37.796875 25.390625 
z
M 35.203125 72.90625 
L 47.609375 72.90625 
L 47.609375 25.390625 
L 58.015625 25.390625 
L 58.015625 17.1875 
L 47.609375 17.1875 
L 47.609375 0 
L 37.796875 0 
L 37.796875 17.1875 
L 4.890625 17.1875 
L 4.890625 26.703125 
z
" id="DejaVuSans-52"/>
      </defs>
      <g transform="translate(94.719674 315.956875)scale(0.2 -0.2)">
       <use xlink:href="#DejaVuSans-45"/>
       <use x="36.083984" xlink:href="#DejaVuSans-52"/>
      </g>
     </g>
    </g>
    <g id="xtick_2">
     <g id="line2d_3">
      <path clip-path="url(#p06dbc7225b)" d="M 209.493196 293.76 
L 209.493196 3.456 
" style="fill:none;stroke:#b0b0b0;stroke-linecap:square;stroke-width:0.8;"/>
     </g>
     <g id="line2d_4">
      <g>
       <use style="stroke:#000000;stroke-width:0.8;" x="209.493196" xlink:href="#me8c321c3c3" y="293.76"/>
      </g>
     </g>
     <g id="text_2">
      <!-- 0 -->
      <defs>
       <path d="M 31.78125 66.40625 
Q 24.171875 66.40625 20.328125 58.90625 
Q 16.5 51.421875 16.5 36.375 
Q 16.5 21.390625 20.328125 13.890625 
Q 24.171875 6.390625 31.78125 6.390625 
Q 39.453125 6.390625 43.28125 13.890625 
Q 47.125 21.390625 47.125 36.375 
Q 47.125 51.421875 43.28125 58.90625 
Q 39.453125 66.40625 31.78125 66.40625 
z
M 31.78125 74.21875 
Q 44.046875 74.21875 50.515625 64.515625 
Q 56.984375 54.828125 56.984375 36.375 
Q 56.984375 17.96875 50.515625 8.265625 
Q 44.046875 -1.421875 31.78125 -1.421875 
Q 19.53125 -1.421875 13.0625 8.265625 
Q 6.59375 17.96875 6.59375 36.375 
Q 6.59375 54.828125 13.0625 64.515625 
Q 19.53125 74.21875 31.78125 74.21875 
z
" id="DejaVuSans-48"/>
      </defs>
      <g transform="translate(203.130696 315.956875)scale(0.2 -0.2)">
       <use xlink:href="#DejaVuSans-48"/>
      </g>
     </g>
    </g>
    <g id="xtick_3">
     <g id="line2d_5">
      <path clip-path="url(#p06dbc7225b)" d="M 314.296406 293.76 
L 314.296406 3.456 
" style="fill:none;stroke:#b0b0b0;stroke-linecap:square;stroke-width:0.8;"/>
     </g>
     <g id="line2d_6">
      <g>
       <use style="stroke:#000000;stroke-width:0.8;" x="314.296406" xlink:href="#me8c321c3c3" y="293.76"/>
      </g>
     </g>
     <g id="text_3">
      <!-- 4 -->
      <g transform="translate(307.933906 315.956875)scale(0.2 -0.2)">
       <use xlink:href="#DejaVuSans-52"/>
      </g>
     </g>
    </g>
    <g id="xtick_4">
     <g id="line2d_7">
      <path clip-path="url(#p06dbc7225b)" d="M 419.099615 293.76 
L 419.099615 3.456 
" style="fill:none;stroke:#b0b0b0;stroke-linecap:square;stroke-width:0.8;"/>
     </g>
     <g id="line2d_8">
      <g>
       <use style="stroke:#000000;stroke-width:0.8;" x="419.099615" xlink:href="#me8c321c3c3" y="293.76"/>
      </g>
     </g>
     <g id="text_4">
      <!-- 8 -->
      <defs>
       <path d="M 31.78125 34.625 
Q 24.75 34.625 20.71875 30.859375 
Q 16.703125 27.09375 16.703125 20.515625 
Q 16.703125 13.921875 20.71875 10.15625 
Q 24.75 6.390625 31.78125 6.390625 
Q 38.8125 6.390625 42.859375 10.171875 
Q 46.921875 13.96875 46.921875 20.515625 
Q 46.921875 27.09375 42.890625 30.859375 
Q 38.875 34.625 31.78125 34.625 
z
M 21.921875 38.8125 
Q 15.578125 40.375 12.03125 44.71875 
Q 8.5 49.078125 8.5 55.328125 
Q 8.5 64.0625 14.71875 69.140625 
Q 20.953125 74.21875 31.78125 74.21875 
Q 42.671875 74.21875 48.875 69.140625 
Q 55.078125 64.0625 55.078125 55.328125 
Q 55.078125 49.078125 51.53125 44.71875 
Q 48 40.375 41.703125 38.8125 
Q 48.828125 37.15625 52.796875 32.3125 
Q 56.78125 27.484375 56.78125 20.515625 
Q 56.78125 9.90625 50.3125 4.234375 
Q 43.84375 -1.421875 31.78125 -1.421875 
Q 19.734375 -1.421875 13.25 4.234375 
Q 6.78125 9.90625 6.78125 20.515625 
Q 6.78125 27.484375 10.78125 32.3125 
Q 14.796875 37.15625 21.921875 38.8125 
z
M 18.3125 54.390625 
Q 18.3125 48.734375 21.84375 45.5625 
Q 25.390625 42.390625 31.78125 42.390625 
Q 38.140625 42.390625 41.71875 45.5625 
Q 45.3125 48.734375 45.3125 54.390625 
Q 45.3125 60.0625 41.71875 63.234375 
Q 38.140625 66.40625 31.78125 66.40625 
Q 25.390625 66.40625 21.84375 63.234375 
Q 18.3125 60.0625 18.3125 54.390625 
z
" id="DejaVuSans-56"/>
      </defs>
      <g transform="translate(412.737115 315.956875)scale(0.2 -0.2)">
       <use xlink:href="#DejaVuSans-56"/>
      </g>
     </g>
    </g>
    <g id="text_5">
     <!-- log10 of Df -->
     <defs>
      <path d="M 9.421875 75.984375 
L 18.40625 75.984375 
L 18.40625 0 
L 9.421875 0 
z
" id="DejaVuSans-108"/>
      <path d="M 30.609375 48.390625 
Q 23.390625 48.390625 19.1875 42.75 
Q 14.984375 37.109375 14.984375 27.296875 
Q 14.984375 17.484375 19.15625 11.84375 
Q 23.34375 6.203125 30.609375 6.203125 
Q 37.796875 6.203125 41.984375 11.859375 
Q 46.1875 17.53125 46.1875 27.296875 
Q 46.1875 37.015625 41.984375 42.703125 
Q 37.796875 48.390625 30.609375 48.390625 
z
M 30.609375 56 
Q 42.328125 56 49.015625 48.375 
Q 55.71875 40.765625 55.71875 27.296875 
Q 55.71875 13.875 49.015625 6.21875 
Q 42.328125 -1.421875 30.609375 -1.421875 
Q 18.84375 -1.421875 12.171875 6.21875 
Q 5.515625 13.875 5.515625 27.296875 
Q 5.515625 40.765625 12.171875 48.375 
Q 18.84375 56 30.609375 56 
z
" id="DejaVuSans-111"/>
      <path d="M 45.40625 27.984375 
Q 45.40625 37.75 41.375 43.109375 
Q 37.359375 48.484375 30.078125 48.484375 
Q 22.859375 48.484375 18.828125 43.109375 
Q 14.796875 37.75 14.796875 27.984375 
Q 14.796875 18.265625 18.828125 12.890625 
Q 22.859375 7.515625 30.078125 7.515625 
Q 37.359375 7.515625 41.375 12.890625 
Q 45.40625 18.265625 45.40625 27.984375 
z
M 54.390625 6.78125 
Q 54.390625 -7.171875 48.1875 -13.984375 
Q 42 -20.796875 29.203125 -20.796875 
Q 24.46875 -20.796875 20.265625 -20.09375 
Q 16.0625 -19.390625 12.109375 -17.921875 
L 12.109375 -9.1875 
Q 16.0625 -11.328125 19.921875 -12.34375 
Q 23.78125 -13.375 27.78125 -13.375 
Q 36.625 -13.375 41.015625 -8.765625 
Q 45.40625 -4.15625 45.40625 5.171875 
L 45.40625 9.625 
Q 42.625 4.78125 38.28125 2.390625 
Q 33.9375 0 27.875 0 
Q 17.828125 0 11.671875 7.65625 
Q 5.515625 15.328125 5.515625 27.984375 
Q 5.515625 40.671875 11.671875 48.328125 
Q 17.828125 56 27.875 56 
Q 33.9375 56 38.28125 53.609375 
Q 42.625 51.21875 45.40625 46.390625 
L 45.40625 54.6875 
L 54.390625 54.6875 
z
" id="DejaVuSans-103"/>
      <path d="M 12.40625 8.296875 
L 28.515625 8.296875 
L 28.515625 63.921875 
L 10.984375 60.40625 
L 10.984375 69.390625 
L 28.421875 72.90625 
L 38.28125 72.90625 
L 38.28125 8.296875 
L 54.390625 8.296875 
L 54.390625 0 
L 12.40625 0 
z
" id="DejaVuSans-49"/>
      <path id="DejaVuSans-32"/>
      <path d="M 37.109375 75.984375 
L 37.109375 68.5 
L 28.515625 68.5 
Q 23.6875 68.5 21.796875 66.546875 
Q 19.921875 64.59375 19.921875 59.515625 
L 19.921875 54.6875 
L 34.71875 54.6875 
L 34.71875 47.703125 
L 19.921875 47.703125 
L 19.921875 0 
L 10.890625 0 
L 10.890625 47.703125 
L 2.296875 47.703125 
L 2.296875 54.6875 
L 10.890625 54.6875 
L 10.890625 58.5 
Q 10.890625 67.625 15.140625 71.796875 
Q 19.390625 75.984375 28.609375 75.984375 
z
" id="DejaVuSans-102"/>
      <path d="M 19.671875 64.796875 
L 19.671875 8.109375 
L 31.59375 8.109375 
Q 46.6875 8.109375 53.6875 14.9375 
Q 60.6875 21.78125 60.6875 36.53125 
Q 60.6875 51.171875 53.6875 57.984375 
Q 46.6875 64.796875 31.59375 64.796875 
z
M 9.8125 72.90625 
L 30.078125 72.90625 
Q 51.265625 72.90625 61.171875 64.09375 
Q 71.09375 55.28125 71.09375 36.53125 
Q 71.09375 17.671875 61.125 8.828125 
Q 51.171875 0 30.078125 0 
L 9.8125 0 
z
" id="DejaVuSans-68"/>
     </defs>
     <g transform="translate(175.214063 339.313125)scale(0.2 -0.2)">
      <use xlink:href="#DejaVuSans-108"/>
      <use x="27.783203" xlink:href="#DejaVuSans-111"/>
      <use x="88.964844" xlink:href="#DejaVuSans-103"/>
      <use x="152.441406" xlink:href="#DejaVuSans-49"/>
      <use x="216.064453" xlink:href="#DejaVuSans-48"/>
      <use x="279.6875" xlink:href="#DejaVuSans-32"/>
      <use x="311.474609" xlink:href="#DejaVuSans-111"/>
      <use x="372.65625" xlink:href="#DejaVuSans-102"/>
      <use x="407.861328" xlink:href="#DejaVuSans-32"/>
      <use x="439.648438" xlink:href="#DejaVuSans-68"/>
      <use x="516.650391" xlink:href="#DejaVuSans-102"/>
     </g>
    </g>
   </g>
   <g id="matplotlib.axis_2">
    <g id="ytick_1">
     <g id="line2d_9">
      <path clip-path="url(#p06dbc7225b)" d="M 0 293.76 
L 460.8 293.76 
" style="fill:none;stroke:#b0b0b0;stroke-linecap:square;stroke-width:0.8;"/>
     </g>
     <g id="line2d_10">
      <defs>
       <path d="M 0 0 
L -3.5 0 
" id="m7a9a89f350" style="stroke:#000000;stroke-width:0.8;"/>
      </defs>
      <g>
       <use style="stroke:#000000;stroke-width:0.8;" x="0" xlink:href="#m7a9a89f350" y="293.76"/>
      </g>
     </g>
    </g>
    <g id="ytick_2">
     <g id="line2d_11">
      <path clip-path="url(#p06dbc7225b)" d="M 0 236.274059 
L 460.8 236.274059 
" style="fill:none;stroke:#b0b0b0;stroke-linecap:square;stroke-width:0.8;"/>
     </g>
     <g id="line2d_12">
      <g>
       <use style="stroke:#000000;stroke-width:0.8;" x="0" xlink:href="#m7a9a89f350" y="236.274059"/>
      </g>
     </g>
    </g>
    <g id="ytick_3">
     <g id="line2d_13">
      <path clip-path="url(#p06dbc7225b)" d="M 0 178.788119 
L 460.8 178.788119 
" style="fill:none;stroke:#b0b0b0;stroke-linecap:square;stroke-width:0.8;"/>
     </g>
     <g id="line2d_14">
      <g>
       <use style="stroke:#000000;stroke-width:0.8;" x="0" xlink:href="#m7a9a89f350" y="178.788119"/>
      </g>
     </g>
    </g>
    <g id="ytick_4">
     <g id="line2d_15">
      <path clip-path="url(#p06dbc7225b)" d="M 0 121.302178 
L 460.8 121.302178 
" style="fill:none;stroke:#b0b0b0;stroke-linecap:square;stroke-width:0.8;"/>
     </g>
     <g id="line2d_16">
      <g>
       <use style="stroke:#000000;stroke-width:0.8;" x="0" xlink:href="#m7a9a89f350" y="121.302178"/>
      </g>
     </g>
    </g>
    <g id="ytick_5">
     <g id="line2d_17">
      <path clip-path="url(#p06dbc7225b)" d="M 0 63.816238 
L 460.8 63.816238 
" style="fill:none;stroke:#b0b0b0;stroke-linecap:square;stroke-width:0.8;"/>
     </g>
     <g id="line2d_18">
      <g>
       <use style="stroke:#000000;stroke-width:0.8;" x="0" xlink:href="#m7a9a89f350" y="63.816238"/>
      </g>
     </g>
    </g>
    <g id="ytick_6">
     <g id="line2d_19">
      <path clip-path="url(#p06dbc7225b)" d="M 0 6.330297 
L 460.8 6.330297 
" style="fill:none;stroke:#b0b0b0;stroke-linecap:square;stroke-width:0.8;"/>
     </g>
     <g id="line2d_20">
      <g>
       <use style="stroke:#000000;stroke-width:0.8;" x="0" xlink:href="#m7a9a89f350" y="6.330297"/>
      </g>
     </g>
    </g>
   </g>
   <g id="line2d_21">
    <path clip-path="url(#p06dbc7225b)" d="M 234.502585 293.76 
L 234.502585 289.927604 
L 236.173011 289.927604 
L 236.173011 286.095208 
L 237.860901 286.095208 
L 237.905094 278.430416 
L 238.211721 278.430416 
L 238.211721 274.59802 
L 239.196862 274.59802 
L 239.196862 270.765624 
L 240.437683 270.765624 
L 240.437683 266.933228 
L 240.783187 266.933228 
L 240.783187 263.100832 
L 241.264254 263.100832 
L 241.264254 259.268436 
L 241.902329 259.268436 
L 241.902329 255.43604 
L 242.321471 255.43604 
L 242.321471 251.603644 
L 244.282272 251.603644 
L 244.282272 247.771248 
L 245.226288 247.771248 
L 245.226288 243.938851 
L 246.285609 243.938851 
L 246.285609 240.106455 
L 246.860347 240.106455 
L 246.860347 236.274059 
L 258.396808 236.274059 
L 258.396808 232.441663 
L 264.140632 232.441663 
L 264.140632 228.609267 
L 265.099569 228.609267 
L 265.099569 224.776871 
L 267.452567 224.776871 
L 267.527987 217.112079 
L 268.01472 217.112079 
L 268.11029 209.447287 
L 268.647477 209.447287 
L 268.647477 205.614891 
L 269.853296 205.614891 
L 269.853296 201.782495 
L 270.514647 201.782495 
L 270.514647 197.950099 
L 270.700732 197.950099 
L 270.700732 194.117703 
L 271.14339 194.117703 
L 271.14339 190.285307 
L 271.368026 190.285307 
L 271.368026 186.452911 
L 273.361245 186.452911 
L 273.361245 182.620515 
L 274.307219 182.620515 
L 274.307219 178.788119 
L 288.116367 178.788119 
L 288.116367 174.955723 
L 289.202521 174.955723 
L 289.202521 171.123327 
L 289.938975 171.123327 
L 289.938975 167.290931 
L 290.50008 167.290931 
L 290.50008 163.458535 
L 291.112866 163.458535 
L 291.112866 159.626139 
L 291.68948 159.626139 
L 291.68948 155.793743 
L 291.941895 155.793743 
L 291.941895 151.961347 
L 292.29989 151.961347 
L 292.29989 148.12895 
L 292.437221 148.12895 
L 292.468816 140.464158 
L 292.582215 140.464158 
L 292.582215 136.631762 
L 292.899093 136.631762 
L 292.899093 132.799366 
L 293.195755 132.799366 
L 293.195755 128.96697 
L 293.679751 128.96697 
L 293.679751 125.134574 
L 294.390907 125.134574 
L 294.390907 121.302178 
L 342.169846 121.302178 
L 342.169846 117.469782 
L 345.73417 117.469782 
L 345.73417 113.637386 
L 351.787345 113.637386 
L 351.787345 109.80499 
L 351.988952 109.80499 
L 351.988952 105.972594 
L 352.589804 105.972594 
L 352.589804 102.140198 
L 358.012464 102.140198 
L 358.012464 98.307802 
L 359.237835 98.307802 
L 359.237835 94.475406 
L 359.55706 94.475406 
L 359.55706 90.64301 
L 359.716472 90.64301 
L 359.716472 86.810614 
L 360.154655 86.810614 
L 360.154655 82.978218 
L 362.62804 82.978218 
L 362.62804 79.145822 
L 364.59938 79.145822 
L 364.59938 75.313426 
L 369.93841 75.313426 
L 369.93841 71.48103 
L 371.958754 71.48103 
L 371.958754 67.648634 
L 373.63465 67.648634 
L 373.63465 63.816238 
L 403.711587 63.816238 
L 403.711587 59.983842 
L 408.307021 59.983842 
L 408.307021 56.151446 
L 410.765634 56.151446 
L 410.765634 52.31905 
L 411.364212 52.31905 
L 411.364212 48.486653 
L 413.877563 48.486653 
L 413.877563 44.654257 
L 414.419812 44.654257 
L 414.419812 40.821861 
L 415.542639 40.821861 
L 415.60734 33.157069 
L 416.160422 33.157069 
L 416.160422 29.324673 
L 416.445054 29.324673 
L 416.445054 25.492277 
L 418.642611 25.492277 
L 418.642611 21.659881 
L 418.945324 21.659881 
L 418.945324 17.827485 
L 419.361393 17.827485 
L 419.361393 13.995089 
L 419.702565 13.995089 
L 419.702565 10.162693 
L 419.976117 10.162693 
L 419.976117 6.330297 
L 419.976117 6.330297 
L 460.8 6.330297 
L 460.8 6.330297 
" style="fill:none;stroke:#ff0000;stroke-linecap:square;stroke-width:3;"/>
   </g>
   <g id="line2d_22">
    <path clip-path="url(#p06dbc7225b)" d="M 247.763632 293.76 
L 247.763632 289.927604 
L 249.168577 289.927604 
L 249.168577 286.095208 
L 251.190484 286.095208 
L 251.190484 282.262812 
L 251.934478 282.262812 
L 251.934478 278.430416 
L 253.51122 278.430416 
L 253.51122 274.59802 
L 254.062759 274.59802 
L 254.062759 270.765624 
L 256.342654 270.765624 
L 256.381995 259.268436 
L 258.630896 259.268436 
L 258.630896 255.43604 
L 259.535104 255.43604 
L 259.535104 251.603644 
L 259.681807 251.603644 
L 259.681807 247.771248 
L 259.841062 247.771248 
L 259.841062 243.938851 
L 260.543844 243.938851 
L 260.543844 240.106455 
L 262.342281 240.106455 
L 262.342281 236.274059 
L 295.788608 236.274059 
L 295.891349 228.609267 
L 296.828625 228.609267 
L 296.828625 224.776871 
L 297.435635 224.776871 
L 297.435635 220.944475 
L 297.558942 220.944475 
L 297.669081 205.614891 
L 297.689547 205.614891 
L 297.689547 201.782495 
L 298.126413 201.782495 
L 298.126413 197.950099 
L 298.352047 197.950099 
L 298.352047 194.117703 
L 298.593719 194.117703 
L 298.593719 190.285307 
L 298.989676 190.285307 
L 298.989676 186.452911 
L 300.086573 186.452911 
L 300.086573 182.620515 
L 300.957206 182.620515 
L 300.957206 178.788119 
L 308.047835 178.788119 
L 308.096872 171.123327 
L 324.847386 171.123327 
L 324.847386 167.290931 
L 327.426516 167.290931 
L 327.426516 163.458535 
L 328.179325 163.458535 
L 328.179325 159.626139 
L 329.285038 159.626139 
L 329.285038 155.793743 
L 330.105726 155.793743 
L 330.105726 151.961347 
L 338.526208 151.961347 
L 338.526208 148.12895 
L 340.047309 148.12895 
L 340.047309 144.296554 
L 344.013102 144.296554 
L 344.013102 140.464158 
L 351.26399 140.464158 
L 351.26399 136.631762 
L 356.187472 136.631762 
L 356.187472 132.799366 
L 363.299028 132.799366 
L 363.299028 128.96697 
L 376.833791 128.96697 
L 376.833791 125.134574 
L 378.051275 125.134574 
L 378.051275 121.302178 
L 378.758325 121.302178 
L 378.758325 117.469782 
L 379.692663 117.469782 
L 379.692663 113.637386 
L 380.044576 113.637386 
L 380.044576 109.80499 
L 380.23238 109.80499 
L 380.23238 105.972594 
L 381.917243 105.972594 
L 381.917243 102.140198 
L 383.979587 102.140198 
L 384.022249 94.475406 
L 385.117471 94.475406 
L 385.117471 90.64301 
L 385.824421 90.64301 
L 385.855754 82.978218 
L 386.074244 82.978218 
L 386.074244 79.145822 
L 387.201489 79.145822 
L 387.201489 75.313426 
L 387.524641 75.313426 
L 387.524641 71.48103 
L 392.080004 71.48103 
L 392.080004 67.648634 
L 392.699122 67.648634 
L 392.699122 63.816238 
L 423.225263 63.816238 
L 423.225263 59.983842 
L 427.754393 59.983842 
L 427.754393 56.151446 
L 430.103099 56.151446 
L 430.103099 52.31905 
L 430.383144 52.31905 
L 430.383144 48.486653 
L 430.952323 48.486653 
L 430.952323 44.654257 
L 432.088538 44.654257 
L 432.088538 40.821861 
L 433.424751 40.821861 
L 433.424751 36.989465 
L 434.914217 36.989465 
L 434.914217 33.157069 
L 436.055398 33.157069 
L 436.154765 25.492277 
L 436.38898 25.492277 
L 436.38898 21.659881 
L 439.229662 21.659881 
L 439.229662 17.827485 
L 445.122987 17.827485 
L 445.122987 13.995089 
L 448.690865 13.995089 
L 448.690865 10.162693 
L 449.168061 10.162693 
L 449.168061 6.330297 
L 449.168061 6.330297 
L 460.8 6.330297 
L 460.8 6.330297 
" style="fill:none;stroke:#00bfbf;stroke-linecap:square;stroke-width:1.5;"/>
   </g>
   <g id="line2d_23">
    <path clip-path="url(#p06dbc7225b)" d="M 247.763632 293.76 
L 247.763632 289.927604 
L 249.168577 289.927604 
L 249.168577 286.095208 
L 251.190484 286.095208 
L 251.190484 282.262812 
L 251.651939 282.262812 
L 251.651939 278.430416 
L 251.934478 278.430416 
L 251.934478 274.59802 
L 253.51122 274.59802 
L 253.51122 270.765624 
L 253.709638 270.765624 
L 253.709638 266.933228 
L 254.195504 266.933228 
L 254.195504 263.100832 
L 255.068953 263.100832 
L 255.068953 259.268436 
L 256.342654 259.268436 
L 256.381995 251.603644 
L 257.574772 251.603644 
L 257.574772 247.771248 
L 258.630896 247.771248 
L 258.630896 243.938851 
L 258.755195 243.938851 
L 258.755195 240.106455 
L 260.201084 240.106455 
L 260.201084 236.274059 
L 295.51573 236.274059 
L 295.51573 232.441663 
L 295.788608 232.441663 
L 295.891349 224.776871 
L 296.087625 224.776871 
L 296.087625 220.944475 
L 296.732563 220.944475 
L 296.828625 213.279683 
L 297.11416 213.279683 
L 297.11416 209.447287 
L 297.435635 209.447287 
L 297.435635 205.614891 
L 297.643339 205.614891 
L 297.689547 194.117703 
L 298.126413 194.117703 
L 298.126413 190.285307 
L 298.352047 190.285307 
L 298.352047 186.452911 
L 298.494474 186.452911 
L 298.593719 178.788119 
L 302.70874 178.788119 
L 302.70874 174.955723 
L 304.013452 174.955723 
L 304.013452 171.123327 
L 308.047835 171.123327 
L 308.096872 163.458535 
L 309.645443 163.458535 
L 309.645443 159.626139 
L 313.793842 159.626139 
L 313.793842 155.793743 
L 318.753139 155.793743 
L 318.753139 151.961347 
L 324.847386 151.961347 
L 324.847386 148.12895 
L 327.394577 148.12895 
L 327.394577 144.296554 
L 328.179325 144.296554 
L 328.179325 140.464158 
L 337.702878 140.464158 
L 337.702878 136.631762 
L 338.940669 136.631762 
L 338.940669 132.799366 
L 340.047309 132.799366 
L 340.047309 128.96697 
L 344.013102 128.96697 
L 344.013102 125.134574 
L 355.894468 125.134574 
L 355.894468 121.302178 
L 373.670863 121.302178 
L 373.670863 117.469782 
L 374.577569 117.469782 
L 374.577569 113.637386 
L 377.37211 113.637386 
L 377.37211 109.80499 
L 378.051275 109.80499 
L 378.051275 105.972594 
L 379.692663 105.972594 
L 379.692663 102.140198 
L 380.044576 102.140198 
L 380.068018 94.475406 
L 380.23238 94.475406 
L 380.23238 90.64301 
L 381.078266 90.64301 
L 381.078266 86.810614 
L 381.366607 86.810614 
L 381.366607 82.978218 
L 381.917243 82.978218 
L 381.970247 75.313426 
L 382.66392 75.313426 
L 382.66392 71.48103 
L 383.979587 71.48103 
L 383.979587 67.648634 
L 390.791468 67.648634 
L 390.791468 63.816238 
L 423.225263 63.816238 
L 423.237546 56.151446 
L 426.997614 56.151446 
L 427.012768 48.486653 
L 427.754393 48.486653 
L 427.754393 44.654257 
L 429.464107 44.654257 
L 429.464107 40.821861 
L 429.700208 40.821861 
L 429.700208 36.989465 
L 430.025481 36.989465 
L 430.103099 29.324673 
L 430.383144 29.324673 
L 430.383144 25.492277 
L 431.130627 25.492277 
L 431.130627 21.659881 
L 433.588182 21.659881 
L 433.588182 17.827485 
L 436.055398 17.827485 
L 436.154765 10.162693 
L 439.391687 10.162693 
L 439.391687 6.330297 
L 439.391687 6.330297 
L 460.8 6.330297 
L 460.8 6.330297 
" style="fill:none;stroke:#bf00bf;stroke-linecap:square;stroke-width:1.5;"/>
   </g>
   <g id="line2d_24">
    <path clip-path="url(#p06dbc7225b)" d="M 245.290508 293.76 
L 245.290508 289.927604 
L 245.807638 289.927604 
L 245.807638 286.095208 
L 246.264445 286.095208 
L 246.264445 282.262812 
L 247.763632 282.262812 
L 247.868883 274.59802 
L 248.517344 274.59802 
L 248.517344 270.765624 
L 249.168577 270.765624 
L 249.168577 266.933228 
L 249.59742 266.933228 
L 249.59742 263.100832 
L 250.219611 263.100832 
L 250.219611 259.268436 
L 251.693344 259.268436 
L 251.693344 255.43604 
L 251.934478 255.43604 
L 251.934478 251.603644 
L 253.414809 251.603644 
L 253.414809 247.771248 
L 254.74503 247.771248 
L 254.74503 243.938851 
L 255.017117 243.938851 
L 255.017117 240.106455 
L 255.537727 240.106455 
L 255.537727 236.274059 
L 275.317753 236.274059 
L 275.379196 228.609267 
L 277.607302 228.609267 
L 277.607302 224.776871 
L 281.45802 224.776871 
L 281.45802 220.944475 
L 283.263815 220.944475 
L 283.263815 217.112079 
L 285.77983 217.112079 
L 285.77983 213.279683 
L 291.303763 213.279683 
L 291.303763 209.447287 
L 293.274611 209.447287 
L 293.274611 205.614891 
L 293.954983 205.614891 
L 294.020145 197.950099 
L 294.549504 197.950099 
L 294.549504 194.117703 
L 295.120612 194.117703 
L 295.120612 190.285307 
L 295.68351 190.285307 
L 295.789362 182.620515 
L 295.891349 182.620515 
L 295.891349 178.788119 
L 296.087625 178.788119 
L 296.087625 174.955723 
L 296.253296 174.955723 
L 296.253296 171.123327 
L 296.768959 171.123327 
L 296.768959 167.290931 
L 297.208427 167.290931 
L 297.208427 163.458535 
L 297.646455 163.458535 
L 297.669081 155.793743 
L 298.13595 155.793743 
L 298.13595 151.961347 
L 302.565844 151.961347 
L 302.565844 148.12895 
L 302.70874 148.12895 
L 302.70874 144.296554 
L 308.047835 144.296554 
L 308.096872 136.631762 
L 318.753139 136.631762 
L 318.753139 132.799366 
L 319.573686 132.799366 
L 319.573686 128.96697 
L 326.342624 128.96697 
L 326.342624 125.134574 
L 327.65269 125.134574 
L 327.65269 121.302178 
L 362.423025 121.302178 
L 362.423025 117.469782 
L 367.862505 117.469782 
L 367.862505 113.637386 
L 373.452935 113.637386 
L 373.452935 109.80499 
L 373.670863 109.80499 
L 373.670863 105.972594 
L 374.49426 105.972594 
L 374.577569 98.307802 
L 375.006492 98.307802 
L 375.006492 94.475406 
L 376.253106 94.475406 
L 376.253106 90.64301 
L 376.872555 90.64301 
L 376.872555 86.810614 
L 377.37211 86.810614 
L 377.37211 82.978218 
L 377.750634 82.978218 
L 377.750634 79.145822 
L 379.692663 79.145822 
L 379.692663 75.313426 
L 380.044576 75.313426 
L 380.044576 71.48103 
L 380.23238 71.48103 
L 380.23238 67.648634 
L 383.979587 67.648634 
L 383.979587 63.816238 
L 419.057032 63.816238 
L 419.057032 59.983842 
L 419.721543 59.983842 
L 419.721543 56.151446 
L 421.60665 56.151446 
L 421.676584 48.486653 
L 421.978353 48.486653 
L 421.978353 44.654257 
L 423.237546 44.654257 
L 423.237546 40.821861 
L 424.50841 40.821861 
L 424.50841 36.989465 
L 426.129416 36.989465 
L 426.129416 33.157069 
L 428.42757 33.157069 
L 428.489699 25.492277 
L 428.760554 25.492277 
L 428.79695 17.827485 
L 429.257784 17.827485 
L 429.257784 13.995089 
L 431.260423 13.995089 
L 431.260423 10.162693 
L 432.726873 10.162693 
L 432.726873 6.330297 
L 432.726873 6.330297 
L 460.8 6.330297 
L 460.8 6.330297 
" style="fill:none;stroke:#000000;stroke-linecap:square;stroke-width:1.5;"/>
   </g>
   <g id="line2d_25">
    <path clip-path="url(#p06dbc7225b)" d="M 240.94637 293.76 
L 240.94637 289.927604 
L 241.93093 289.927604 
L 241.93093 286.095208 
L 242.562592 286.095208 
L 242.562592 282.262812 
L 243.408572 282.262812 
L 243.408572 278.430416 
L 244.086695 278.430416 
L 244.086695 274.59802 
L 244.253288 274.59802 
L 244.253288 270.765624 
L 244.41832 270.765624 
L 244.41832 266.933228 
L 244.944833 266.933228 
L 244.966152 259.268436 
L 245.271537 259.268436 
L 245.271537 255.43604 
L 250.191774 255.43604 
L 250.219611 247.771248 
L 250.432035 247.771248 
L 250.432035 243.938851 
L 250.60179 243.938851 
L 250.60179 240.106455 
L 251.591423 240.106455 
L 251.591423 236.274059 
L 265.441797 236.274059 
L 265.441797 232.441663 
L 268.796229 232.441663 
L 268.796229 228.609267 
L 269.903495 228.609267 
L 269.903495 224.776871 
L 271.413972 224.776871 
L 271.413972 220.944475 
L 273.905509 220.944475 
L 273.905509 217.112079 
L 274.934959 217.112079 
L 274.934959 213.279683 
L 275.225724 213.279683 
L 275.225724 209.447287 
L 275.379196 209.447287 
L 275.379196 205.614891 
L 277.607302 205.614891 
L 277.607302 201.782495 
L 281.45802 201.782495 
L 281.45802 197.950099 
L 289.217822 197.950099 
L 289.217822 194.117703 
L 291.91924 194.117703 
L 291.91924 190.285307 
L 292.137215 190.285307 
L 292.137215 186.452911 
L 292.606106 186.452911 
L 292.606106 182.620515 
L 292.787857 182.620515 
L 292.787857 178.788119 
L 293.373572 178.788119 
L 293.373572 174.955723 
L 294.122007 174.955723 
L 294.226815 163.458535 
L 294.664979 163.458535 
L 294.664979 159.626139 
L 294.86951 159.626139 
L 294.86951 155.793743 
L 295.056574 155.793743 
L 295.056574 151.961347 
L 295.625947 151.961347 
L 295.625947 148.12895 
L 295.915752 148.12895 
L 295.915752 144.296554 
L 296.38147 144.296554 
L 296.38147 140.464158 
L 296.636569 140.464158 
L 296.636569 136.631762 
L 299.197887 136.631762 
L 299.197887 132.799366 
L 302.565844 132.799366 
L 302.565844 128.96697 
L 303.145515 128.96697 
L 303.145515 125.134574 
L 309.686419 125.134574 
L 309.686419 121.302178 
L 356.461054 121.302178 
L 356.461054 117.469782 
L 363.816519 117.469782 
L 363.816519 113.637386 
L 364.465583 113.637386 
L 364.465583 109.80499 
L 367.862505 109.80499 
L 367.862505 105.972594 
L 368.920022 105.972594 
L 368.922589 98.307802 
L 371.021463 98.307802 
L 371.111564 90.64301 
L 372.148431 90.64301 
L 372.148431 86.810614 
L 372.298674 86.810614 
L 372.298674 82.978218 
L 372.507994 82.978218 
L 372.507994 79.145822 
L 375.006492 79.145822 
L 375.006492 75.313426 
L 376.253106 75.313426 
L 376.253106 71.48103 
L 380.23238 71.48103 
L 380.23238 67.648634 
L 382.796945 67.648634 
L 382.796945 63.816238 
L 413.745897 63.816238 
L 413.745897 59.983842 
L 416.312402 59.983842 
L 416.312402 56.151446 
L 416.988544 56.151446 
L 416.988544 52.31905 
L 417.499937 52.31905 
L 417.499937 48.486653 
L 417.632603 48.486653 
L 417.632603 44.654257 
L 420.414987 44.654257 
L 420.414987 40.821861 
L 421.38709 40.821861 
L 421.38709 36.989465 
L 422.129273 36.989465 
L 422.129273 33.157069 
L 423.705072 33.157069 
L 423.705072 29.324673 
L 424.333184 29.324673 
L 424.333184 25.492277 
L 425.569546 25.492277 
L 425.569546 21.659881 
L 425.780593 21.659881 
L 425.780593 17.827485 
L 426.299832 17.827485 
L 426.299832 13.995089 
L 427.318025 13.995089 
L 427.318025 10.162693 
L 430.579933 10.162693 
L 430.579933 6.330297 
L 430.579933 6.330297 
L 460.8 6.330297 
L 460.8 6.330297 
" style="fill:none;stroke:#00bfbf;stroke-linecap:square;stroke-width:1.5;"/>
   </g>
   <g id="line2d_26">
    <path clip-path="url(#p06dbc7225b)" d="M 234.502585 293.76 
L 234.502585 289.927604 
L 236.173011 289.927604 
L 236.173011 286.095208 
L 237.860901 286.095208 
L 237.916236 278.430416 
L 238.211721 278.430416 
L 238.211721 274.59802 
L 239.196862 274.59802 
L 239.196862 270.765624 
L 240.511042 270.765624 
L 240.511042 266.933228 
L 240.785812 266.933228 
L 240.785812 263.100832 
L 241.264254 263.100832 
L 241.264254 259.268436 
L 241.9148 259.268436 
L 241.9148 255.43604 
L 242.5364 255.43604 
L 242.5364 251.603644 
L 244.282272 251.603644 
L 244.282272 247.771248 
L 245.226288 247.771248 
L 245.226288 243.938851 
L 246.285609 243.938851 
L 246.285609 240.106455 
L 246.868902 240.106455 
L 246.868902 236.274059 
L 258.396808 236.274059 
L 258.396808 232.441663 
L 264.173252 232.441663 
L 264.173252 228.609267 
L 265.099569 228.609267 
L 265.099569 224.776871 
L 267.452567 224.776871 
L 267.527987 217.112079 
L 268.01472 217.112079 
L 268.11029 209.447287 
L 268.647477 209.447287 
L 268.647477 205.614891 
L 269.853296 205.614891 
L 269.853296 201.782495 
L 270.514647 201.782495 
L 270.514647 197.950099 
L 270.700732 197.950099 
L 270.700732 194.117703 
L 271.14339 194.117703 
L 271.14339 190.285307 
L 271.368026 190.285307 
L 271.368026 186.452911 
L 273.361245 186.452911 
L 273.361245 182.620515 
L 274.307219 182.620515 
L 274.307219 178.788119 
L 288.121313 178.788119 
L 288.121313 174.955723 
L 289.253432 174.955723 
L 289.253432 171.123327 
L 289.938975 171.123327 
L 289.938975 167.290931 
L 290.50008 167.290931 
L 290.50008 163.458535 
L 291.112866 163.458535 
L 291.112866 159.626139 
L 291.68948 159.626139 
L 291.68948 155.793743 
L 291.943453 155.793743 
L 291.943453 151.961347 
L 292.29989 151.961347 
L 292.29989 148.12895 
L 292.446889 148.12895 
L 292.536255 140.464158 
L 292.582215 140.464158 
L 292.582215 136.631762 
L 292.899093 136.631762 
L 292.899093 132.799366 
L 293.2131 132.799366 
L 293.2131 128.96697 
L 293.906367 128.96697 
L 293.906367 125.134574 
L 294.390907 125.134574 
L 294.390907 121.302178 
L 342.595485 121.302178 
L 342.595485 117.469782 
L 345.840168 117.469782 
L 345.840168 113.637386 
L 351.988952 113.637386 
L 351.988952 109.80499 
L 352.589804 109.80499 
L 352.610009 102.140198 
L 358.012464 102.140198 
L 358.012464 98.307802 
L 359.237835 98.307802 
L 359.237835 94.475406 
L 359.753163 94.475406 
L 359.753163 90.64301 
L 359.882989 90.64301 
L 359.882989 86.810614 
L 360.19637 86.810614 
L 360.19637 82.978218 
L 362.62804 82.978218 
L 362.62804 79.145822 
L 364.59938 79.145822 
L 364.59938 75.313426 
L 369.941525 75.313426 
L 369.941525 71.48103 
L 371.958754 71.48103 
L 371.958754 67.648634 
L 373.661247 67.648634 
L 373.661247 63.816238 
L 403.711587 63.816238 
L 403.711587 59.983842 
L 408.307021 59.983842 
L 408.307021 56.151446 
L 410.770349 56.151446 
L 410.770349 52.31905 
L 411.364212 52.31905 
L 411.364212 48.486653 
L 413.877563 48.486653 
L 413.877563 44.654257 
L 414.419812 44.654257 
L 414.419812 40.821861 
L 415.542639 40.821861 
L 415.60734 33.157069 
L 416.160422 33.157069 
L 416.160422 29.324673 
L 416.445054 29.324673 
L 416.445054 25.492277 
L 418.642611 25.492277 
L 418.642611 21.659881 
L 418.963474 21.659881 
L 418.963474 17.827485 
L 419.969465 17.827485 
L 419.976117 10.162693 
L 420.144158 10.162693 
L 420.144158 6.330297 
L 420.144158 6.330297 
L 460.8 6.330297 
L 460.8 6.330297 
" style="fill:none;stroke:#bf00bf;stroke-linecap:square;stroke-width:1.5;"/>
   </g>
   <g id="patch_3">
    <path d="M 0 293.76 
L 0 3.456 
" style="fill:none;stroke:#000000;stroke-linecap:square;stroke-linejoin:miter;stroke-width:0.8;"/>
   </g>
   <g id="patch_4">
    <path d="M 460.8 293.76 
L 460.8 3.456 
" style="fill:none;stroke:#000000;stroke-linecap:square;stroke-linejoin:miter;stroke-width:0.8;"/>
   </g>
   <g id="patch_5">
    <path d="M -0 293.76 
L 460.8 293.76 
" style="fill:none;stroke:#000000;stroke-linecap:square;stroke-linejoin:miter;stroke-width:0.8;"/>
   </g>
   <g id="patch_6">
    <path d="M -0 3.456 
L 460.8 3.456 
" style="fill:none;stroke:#000000;stroke-linecap:square;stroke-linejoin:miter;stroke-width:0.8;"/>
   </g>
   <g id="text_6">
    <!-- {f10-f14}, 20-D -->
    <defs>
     <path d="M 51.125 -9.28125 
L 51.125 -16.3125 
L 48.09375 -16.3125 
Q 35.9375 -16.3125 31.8125 -12.6875 
Q 27.6875 -9.078125 27.6875 1.703125 
L 27.6875 13.375 
Q 27.6875 20.75 25.046875 23.578125 
Q 22.40625 26.421875 15.484375 26.421875 
L 12.5 26.421875 
L 12.5 33.40625 
L 15.484375 33.40625 
Q 22.46875 33.40625 25.078125 36.203125 
Q 27.6875 39.015625 27.6875 46.296875 
L 27.6875 58.015625 
Q 27.6875 68.796875 31.8125 72.390625 
Q 35.9375 75.984375 48.09375 75.984375 
L 51.125 75.984375 
L 51.125 69 
L 47.796875 69 
Q 40.921875 69 38.8125 66.84375 
Q 36.71875 64.703125 36.71875 57.8125 
L 36.71875 45.703125 
Q 36.71875 38.03125 34.5 34.5625 
Q 32.28125 31.109375 26.90625 29.890625 
Q 32.328125 28.5625 34.515625 25.09375 
Q 36.71875 21.625 36.71875 14.015625 
L 36.71875 1.90625 
Q 36.71875 -4.984375 38.8125 -7.125 
Q 40.921875 -9.28125 47.796875 -9.28125 
z
" id="DejaVuSans-123"/>
     <path d="M 12.5 -9.28125 
L 15.921875 -9.28125 
Q 22.75 -9.28125 24.828125 -7.171875 
Q 26.90625 -5.078125 26.90625 1.90625 
L 26.90625 14.015625 
Q 26.90625 21.625 29.09375 25.09375 
Q 31.296875 28.5625 36.71875 29.890625 
Q 31.296875 31.109375 29.09375 34.5625 
Q 26.90625 38.03125 26.90625 45.703125 
L 26.90625 57.8125 
Q 26.90625 64.75 24.828125 66.875 
Q 22.75 69 15.921875 69 
L 12.5 69 
L 12.5 75.984375 
L 15.578125 75.984375 
Q 27.734375 75.984375 31.8125 72.390625 
Q 35.890625 68.796875 35.890625 58.015625 
L 35.890625 46.296875 
Q 35.890625 39.015625 38.515625 36.203125 
Q 41.15625 33.40625 48.09375 33.40625 
L 51.125 33.40625 
L 51.125 26.421875 
L 48.09375 26.421875 
Q 41.15625 26.421875 38.515625 23.578125 
Q 35.890625 20.75 35.890625 13.375 
L 35.890625 1.703125 
Q 35.890625 -9.078125 31.8125 -12.6875 
Q 27.734375 -16.3125 15.578125 -16.3125 
L 12.5 -16.3125 
z
" id="DejaVuSans-125"/>
     <path d="M 11.71875 12.40625 
L 22.015625 12.40625 
L 22.015625 4 
L 14.015625 -11.625 
L 7.71875 -11.625 
L 11.71875 4 
z
" id="DejaVuSans-44"/>
     <path d="M 19.1875 8.296875 
L 53.609375 8.296875 
L 53.609375 0 
L 7.328125 0 
L 7.328125 8.296875 
Q 12.9375 14.109375 22.625 23.890625 
Q 32.328125 33.6875 34.8125 36.53125 
Q 39.546875 41.84375 41.421875 45.53125 
Q 43.3125 49.21875 43.3125 52.78125 
Q 43.3125 58.59375 39.234375 62.25 
Q 35.15625 65.921875 28.609375 65.921875 
Q 23.96875 65.921875 18.8125 64.3125 
Q 13.671875 62.703125 7.8125 59.421875 
L 7.8125 69.390625 
Q 13.765625 71.78125 18.9375 73 
Q 24.125 74.21875 28.421875 74.21875 
Q 39.75 74.21875 46.484375 68.546875 
Q 53.21875 62.890625 53.21875 53.421875 
Q 53.21875 48.921875 51.53125 44.890625 
Q 49.859375 40.875 45.40625 35.40625 
Q 44.1875 33.984375 37.640625 27.21875 
Q 31.109375 20.453125 19.1875 8.296875 
z
" id="DejaVuSans-50"/>
    </defs>
    <g transform="translate(293.159 287.95392)scale(0.2 -0.2)">
     <use xlink:href="#DejaVuSans-123"/>
     <use x="63.623047" xlink:href="#DejaVuSans-102"/>
     <use x="98.828125" xlink:href="#DejaVuSans-49"/>
     <use x="162.451172" xlink:href="#DejaVuSans-48"/>
     <use x="226.074219" xlink:href="#DejaVuSans-45"/>
     <use x="262.158203" xlink:href="#DejaVuSans-102"/>
     <use x="297.363281" xlink:href="#DejaVuSans-49"/>
     <use x="360.986328" xlink:href="#DejaVuSans-52"/>
     <use x="424.609375" xlink:href="#DejaVuSans-125"/>
     <use x="488.232422" xlink:href="#DejaVuSans-44"/>
     <use x="520.019531" xlink:href="#DejaVuSans-32"/>
     <use x="551.806641" xlink:href="#DejaVuSans-50"/>
     <use x="615.429688" xlink:href="#DejaVuSans-48"/>
     <use x="679.052734" xlink:href="#DejaVuSans-45"/>
     <use x="715.136719" xlink:href="#DejaVuSans-68"/>
    </g>
   </g>
   <g id="text_7">
    <!-- v2.4 -->
    <defs>
     <path d="M 2.984375 54.6875 
L 12.5 54.6875 
L 29.59375 8.796875 
L 46.6875 54.6875 
L 56.203125 54.6875 
L 35.6875 0 
L 23.484375 0 
z
" id="DejaVuSans-118"/>
     <path d="M 10.6875 12.40625 
L 21 12.40625 
L 21 0 
L 10.6875 0 
z
" id="DejaVuSans-46"/>
    </defs>
    <g style="fill:#808080;" transform="translate(219.489063 288.777272)scale(0.1 -0.1)">
     <use xlink:href="#DejaVuSans-118"/>
     <use x="59.179688" xlink:href="#DejaVuSans-50"/>
     <use x="122.802734" xlink:href="#DejaVuSans-46"/>
     <use x="154.589844" xlink:href="#DejaVuSans-52"/>
    </g>
   </g>
  </g>
 </g>
 <defs>
  <clipPath id="p06dbc7225b">
   <rect height="290.304" width="460.8" x="0" y="3.456"/>
  </clipPath>
 </defs>
</svg>
