<?xml version="1.0" encoding="utf-8" standalone="no"?>
<!DOCTYPE svg PUBLIC "-//W3C//DTD SVG 1.1//EN"
  "http://www.w3.org/Graphics/SVG/1.1/DTD/svg11.dtd">
<!-- Created with matplotlib (https://matplotlib.org/) -->
<svg height="345.6pt" version="1.1" viewBox="0 0 460.8 345.6" width="460.8pt" xmlns="http://www.w3.org/2000/svg" xmlns:xlink="http://www.w3.org/1999/xlink">
 <defs>
  <style type="text/css">
*{stroke-linecap:butt;stroke-linejoin:round;}
  </style>
 </defs>
 <g id="figure_1">
  <g id="patch_1">
   <path d="M 0 345.6 
L 460.8 345.6 
L 460.8 0 
L 0 0 
z
" style="fill:#ffffff;"/>
  </g>
  <g id="axes_1">
   <g id="patch_2">
    <path d="M 0 293.76 
L 460.8 293.76 
L 460.8 3.456 
L 0 3.456 
z
" style="fill:#ffffff;"/>
   </g>
   <g id="matplotlib.axis_1">
    <g id="xtick_1">
     <g id="line2d_1">
      <path clip-path="url(#p3d42875ce0)" d="M 104.470891 293.76 
L 104.470891 3.456 
" style="fill:none;stroke:#b0b0b0;stroke-linecap:square;stroke-width:0.8;"/>
     </g>
     <g id="line2d_2">
      <defs>
       <path d="M 0 0 
L 0 3.5 
" id="m997a9d5e4d" style="stroke:#000000;stroke-width:0.8;"/>
      </defs>
      <g>
       <use style="stroke:#000000;stroke-width:0.8;" x="104.470891" xlink:href="#m997a9d5e4d" y="293.76"/>
      </g>
     </g>
     <g id="text_1">
      <!-- -4 -->
      <defs>
       <path d="M 4.890625 31.390625 
L 31.203125 31.390625 
L 31.203125 23.390625 
L 4.890625 23.390625 
z
" id="DejaVuSans-45"/>
       <path d="M 37.796875 64.3125 
L 12.890625 25.390625 
L 37.796875 25.390625 
z
M 35.203125 72.90625 
L 47.609375 72.90625 
L 47.609375 25.390625 
L 58.015625 25.390625 
L 58.015625 17.1875 
L 47.609375 17.1875 
L 47.609375 0 
L 37.796875 0 
L 37.796875 17.1875 
L 4.890625 17.1875 
L 4.890625 26.703125 
z
" id="DejaVuSans-52"/>
      </defs>
      <g transform="translate(94.500579 315.956875)scale(0.2 -0.2)">
       <use xlink:href="#DejaVuSans-45"/>
       <use x="36.083984" xlink:href="#DejaVuSans-52"/>
      </g>
     </g>
    </g>
    <g id="xtick_2">
     <g id="line2d_3">
      <path clip-path="url(#p3d42875ce0)" d="M 209.054769 293.76 
L 209.054769 3.456 
" style="fill:none;stroke:#b0b0b0;stroke-linecap:square;stroke-width:0.8;"/>
     </g>
     <g id="line2d_4">
      <g>
       <use style="stroke:#000000;stroke-width:0.8;" x="209.054769" xlink:href="#m997a9d5e4d" y="293.76"/>
      </g>
     </g>
     <g id="text_2">
      <!-- 0 -->
      <defs>
       <path d="M 31.78125 66.40625 
Q 24.171875 66.40625 20.328125 58.90625 
Q 16.5 51.421875 16.5 36.375 
Q 16.5 21.390625 20.328125 13.890625 
Q 24.171875 6.390625 31.78125 6.390625 
Q 39.453125 6.390625 43.28125 13.890625 
Q 47.125 21.390625 47.125 36.375 
Q 47.125 51.421875 43.28125 58.90625 
Q 39.453125 66.40625 31.78125 66.40625 
z
M 31.78125 74.21875 
Q 44.046875 74.21875 50.515625 64.515625 
Q 56.984375 54.828125 56.984375 36.375 
Q 56.984375 17.96875 50.515625 8.265625 
Q 44.046875 -1.421875 31.78125 -1.421875 
Q 19.53125 -1.421875 13.0625 8.265625 
Q 6.59375 17.96875 6.59375 36.375 
Q 6.59375 54.828125 13.0625 64.515625 
Q 19.53125 74.21875 31.78125 74.21875 
z
" id="DejaVuSans-48"/>
      </defs>
      <g transform="translate(202.692269 315.956875)scale(0.2 -0.2)">
       <use xlink:href="#DejaVuSans-48"/>
      </g>
     </g>
    </g>
    <g id="xtick_3">
     <g id="line2d_5">
      <path clip-path="url(#p3d42875ce0)" d="M 313.638647 293.76 
L 313.638647 3.456 
" style="fill:none;stroke:#b0b0b0;stroke-linecap:square;stroke-width:0.8;"/>
     </g>
     <g id="line2d_6">
      <g>
       <use style="stroke:#000000;stroke-width:0.8;" x="313.638647" xlink:href="#m997a9d5e4d" y="293.76"/>
      </g>
     </g>
     <g id="text_3">
      <!-- 4 -->
      <g transform="translate(307.276147 315.956875)scale(0.2 -0.2)">
       <use xlink:href="#DejaVuSans-52"/>
      </g>
     </g>
    </g>
    <g id="xtick_4">
     <g id="line2d_7">
      <path clip-path="url(#p3d42875ce0)" d="M 418.222525 293.76 
L 418.222525 3.456 
" style="fill:none;stroke:#b0b0b0;stroke-linecap:square;stroke-width:0.8;"/>
     </g>
     <g id="line2d_8">
      <g>
       <use style="stroke:#000000;stroke-width:0.8;" x="418.222525" xlink:href="#m997a9d5e4d" y="293.76"/>
      </g>
     </g>
     <g id="text_4">
      <!-- 8 -->
      <defs>
       <path d="M 31.78125 34.625 
Q 24.75 34.625 20.71875 30.859375 
Q 16.703125 27.09375 16.703125 20.515625 
Q 16.703125 13.921875 20.71875 10.15625 
Q 24.75 6.390625 31.78125 6.390625 
Q 38.8125 6.390625 42.859375 10.171875 
Q 46.921875 13.96875 46.921875 20.515625 
Q 46.921875 27.09375 42.890625 30.859375 
Q 38.875 34.625 31.78125 34.625 
z
M 21.921875 38.8125 
Q 15.578125 40.375 12.03125 44.71875 
Q 8.5 49.078125 8.5 55.328125 
Q 8.5 64.0625 14.71875 69.140625 
Q 20.953125 74.21875 31.78125 74.21875 
Q 42.671875 74.21875 48.875 69.140625 
Q 55.078125 64.0625 55.078125 55.328125 
Q 55.078125 49.078125 51.53125 44.71875 
Q 48 40.375 41.703125 38.8125 
Q 48.828125 37.15625 52.796875 32.3125 
Q 56.78125 27.484375 56.78125 20.515625 
Q 56.78125 9.90625 50.3125 4.234375 
Q 43.84375 -1.421875 31.78125 -1.421875 
Q 19.734375 -1.421875 13.25 4.234375 
Q 6.78125 9.90625 6.78125 20.515625 
Q 6.78125 27.484375 10.78125 32.3125 
Q 14.796875 37.15625 21.921875 38.8125 
z
M 18.3125 54.390625 
Q 18.3125 48.734375 21.84375 45.5625 
Q 25.390625 42.390625 31.78125 42.390625 
Q 38.140625 42.390625 41.71875 45.5625 
Q 45.3125 48.734375 45.3125 54.390625 
Q 45.3125 60.0625 41.71875 63.234375 
Q 38.140625 66.40625 31.78125 66.40625 
Q 25.390625 66.40625 21.84375 63.234375 
Q 18.3125 60.0625 18.3125 54.390625 
z
" id="DejaVuSans-56"/>
      </defs>
      <g transform="translate(411.860025 315.956875)scale(0.2 -0.2)">
       <use xlink:href="#DejaVuSans-56"/>
      </g>
     </g>
    </g>
    <g id="text_5">
     <!-- log10 of Df -->
     <defs>
      <path d="M 9.421875 75.984375 
L 18.40625 75.984375 
L 18.40625 0 
L 9.421875 0 
z
" id="DejaVuSans-108"/>
      <path d="M 30.609375 48.390625 
Q 23.390625 48.390625 19.1875 42.75 
Q 14.984375 37.109375 14.984375 27.296875 
Q 14.984375 17.484375 19.15625 11.84375 
Q 23.34375 6.203125 30.609375 6.203125 
Q 37.796875 6.203125 41.984375 11.859375 
Q 46.1875 17.53125 46.1875 27.296875 
Q 46.1875 37.015625 41.984375 42.703125 
Q 37.796875 48.390625 30.609375 48.390625 
z
M 30.609375 56 
Q 42.328125 56 49.015625 48.375 
Q 55.71875 40.765625 55.71875 27.296875 
Q 55.71875 13.875 49.015625 6.21875 
Q 42.328125 -1.421875 30.609375 -1.421875 
Q 18.84375 -1.421875 12.171875 6.21875 
Q 5.515625 13.875 5.515625 27.296875 
Q 5.515625 40.765625 12.171875 48.375 
Q 18.84375 56 30.609375 56 
z
" id="DejaVuSans-111"/>
      <path d="M 45.40625 27.984375 
Q 45.40625 37.75 41.375 43.109375 
Q 37.359375 48.484375 30.078125 48.484375 
Q 22.859375 48.484375 18.828125 43.109375 
Q 14.796875 37.75 14.796875 27.984375 
Q 14.796875 18.265625 18.828125 12.890625 
Q 22.859375 7.515625 30.078125 7.515625 
Q 37.359375 7.515625 41.375 12.890625 
Q 45.40625 18.265625 45.40625 27.984375 
z
M 54.390625 6.78125 
Q 54.390625 -7.171875 48.1875 -13.984375 
Q 42 -20.796875 29.203125 -20.796875 
Q 24.46875 -20.796875 20.265625 -20.09375 
Q 16.0625 -19.390625 12.109375 -17.921875 
L 12.109375 -9.1875 
Q 16.0625 -11.328125 19.921875 -12.34375 
Q 23.78125 -13.375 27.78125 -13.375 
Q 36.625 -13.375 41.015625 -8.765625 
Q 45.40625 -4.15625 45.40625 5.171875 
L 45.40625 9.625 
Q 42.625 4.78125 38.28125 2.390625 
Q 33.9375 0 27.875 0 
Q 17.828125 0 11.671875 7.65625 
Q 5.515625 15.328125 5.515625 27.984375 
Q 5.515625 40.671875 11.671875 48.328125 
Q 17.828125 56 27.875 56 
Q 33.9375 56 38.28125 53.609375 
Q 42.625 51.21875 45.40625 46.390625 
L 45.40625 54.6875 
L 54.390625 54.6875 
z
" id="DejaVuSans-103"/>
      <path d="M 12.40625 8.296875 
L 28.515625 8.296875 
L 28.515625 63.921875 
L 10.984375 60.40625 
L 10.984375 69.390625 
L 28.421875 72.90625 
L 38.28125 72.90625 
L 38.28125 8.296875 
L 54.390625 8.296875 
L 54.390625 0 
L 12.40625 0 
z
" id="DejaVuSans-49"/>
      <path id="DejaVuSans-32"/>
      <path d="M 37.109375 75.984375 
L 37.109375 68.5 
L 28.515625 68.5 
Q 23.6875 68.5 21.796875 66.546875 
Q 19.921875 64.59375 19.921875 59.515625 
L 19.921875 54.6875 
L 34.71875 54.6875 
L 34.71875 47.703125 
L 19.921875 47.703125 
L 19.921875 0 
L 10.890625 0 
L 10.890625 47.703125 
L 2.296875 47.703125 
L 2.296875 54.6875 
L 10.890625 54.6875 
L 10.890625 58.5 
Q 10.890625 67.625 15.140625 71.796875 
Q 19.390625 75.984375 28.609375 75.984375 
z
" id="DejaVuSans-102"/>
      <path d="M 19.671875 64.796875 
L 19.671875 8.109375 
L 31.59375 8.109375 
Q 46.6875 8.109375 53.6875 14.9375 
Q 60.6875 21.78125 60.6875 36.53125 
Q 60.6875 51.171875 53.6875 57.984375 
Q 46.6875 64.796875 31.59375 64.796875 
z
M 9.8125 72.90625 
L 30.078125 72.90625 
Q 51.265625 72.90625 61.171875 64.09375 
Q 71.09375 55.28125 71.09375 36.53125 
Q 71.09375 17.671875 61.125 8.828125 
Q 51.171875 0 30.078125 0 
L 9.8125 0 
z
" id="DejaVuSans-68"/>
     </defs>
     <g transform="translate(175.214063 339.313125)scale(0.2 -0.2)">
      <use xlink:href="#DejaVuSans-108"/>
      <use x="27.783203" xlink:href="#DejaVuSans-111"/>
      <use x="88.964844" xlink:href="#DejaVuSans-103"/>
      <use x="152.441406" xlink:href="#DejaVuSans-49"/>
      <use x="216.064453" xlink:href="#DejaVuSans-48"/>
      <use x="279.6875" xlink:href="#DejaVuSans-32"/>
      <use x="311.474609" xlink:href="#DejaVuSans-111"/>
      <use x="372.65625" xlink:href="#DejaVuSans-102"/>
      <use x="407.861328" xlink:href="#DejaVuSans-32"/>
      <use x="439.648438" xlink:href="#DejaVuSans-68"/>
      <use x="516.650391" xlink:href="#DejaVuSans-102"/>
     </g>
    </g>
   </g>
   <g id="matplotlib.axis_2">
    <g id="ytick_1">
     <g id="line2d_9">
      <path clip-path="url(#p3d42875ce0)" d="M 0 293.76 
L 460.8 293.76 
" style="fill:none;stroke:#b0b0b0;stroke-linecap:square;stroke-width:0.8;"/>
     </g>
     <g id="line2d_10">
      <defs>
       <path d="M 0 0 
L -3.5 0 
" id="mb94b7f23e9" style="stroke:#000000;stroke-width:0.8;"/>
      </defs>
      <g>
       <use style="stroke:#000000;stroke-width:0.8;" x="0" xlink:href="#mb94b7f23e9" y="293.76"/>
      </g>
     </g>
    </g>
    <g id="ytick_2">
     <g id="line2d_11">
      <path clip-path="url(#p3d42875ce0)" d="M 0 236.274059 
L 460.8 236.274059 
" style="fill:none;stroke:#b0b0b0;stroke-linecap:square;stroke-width:0.8;"/>
     </g>
     <g id="line2d_12">
      <g>
       <use style="stroke:#000000;stroke-width:0.8;" x="0" xlink:href="#mb94b7f23e9" y="236.274059"/>
      </g>
     </g>
    </g>
    <g id="ytick_3">
     <g id="line2d_13">
      <path clip-path="url(#p3d42875ce0)" d="M 0 178.788119 
L 460.8 178.788119 
" style="fill:none;stroke:#b0b0b0;stroke-linecap:square;stroke-width:0.8;"/>
     </g>
     <g id="line2d_14">
      <g>
       <use style="stroke:#000000;stroke-width:0.8;" x="0" xlink:href="#mb94b7f23e9" y="178.788119"/>
      </g>
     </g>
    </g>
    <g id="ytick_4">
     <g id="line2d_15">
      <path clip-path="url(#p3d42875ce0)" d="M 0 121.302178 
L 460.8 121.302178 
" style="fill:none;stroke:#b0b0b0;stroke-linecap:square;stroke-width:0.8;"/>
     </g>
     <g id="line2d_16">
      <g>
       <use style="stroke:#000000;stroke-width:0.8;" x="0" xlink:href="#mb94b7f23e9" y="121.302178"/>
      </g>
     </g>
    </g>
    <g id="ytick_5">
     <g id="line2d_17">
      <path clip-path="url(#p3d42875ce0)" d="M 0 63.816238 
L 460.8 63.816238 
" style="fill:none;stroke:#b0b0b0;stroke-linecap:square;stroke-width:0.8;"/>
     </g>
     <g id="line2d_18">
      <g>
       <use style="stroke:#000000;stroke-width:0.8;" x="0" xlink:href="#mb94b7f23e9" y="63.816238"/>
      </g>
     </g>
    </g>
    <g id="ytick_6">
     <g id="line2d_19">
      <path clip-path="url(#p3d42875ce0)" d="M 0 6.330297 
L 460.8 6.330297 
" style="fill:none;stroke:#b0b0b0;stroke-linecap:square;stroke-width:0.8;"/>
     </g>
     <g id="line2d_20">
      <g>
       <use style="stroke:#000000;stroke-width:0.8;" x="0" xlink:href="#mb94b7f23e9" y="6.330297"/>
      </g>
     </g>
    </g>
   </g>
   <g id="line2d_21">
    <path clip-path="url(#p3d42875ce0)" d="M 189.108025 293.76 
L 189.108025 289.927604 
L 193.399268 289.927604 
L 193.399268 286.095208 
L 197.89351 286.095208 
L 197.89351 282.262812 
L 206.835965 282.262812 
L 206.835965 278.430416 
L 207.132435 278.430416 
L 207.132435 274.59802 
L 213.003392 274.59802 
L 213.003392 270.765624 
L 215.442828 270.765624 
L 215.442828 266.933228 
L 225.860213 266.933228 
L 225.860213 263.100832 
L 226.390871 263.100832 
L 226.390871 259.268436 
L 226.675362 259.268436 
L 226.675362 255.43604 
L 226.952936 255.43604 
L 226.952936 251.603644 
L 227.406568 251.603644 
L 227.406568 247.771248 
L 229.826292 247.771248 
L 229.826292 243.938851 
L 230.893996 243.938851 
L 230.893996 240.106455 
L 237.197739 240.106455 
L 237.197739 236.274059 
L 240.929251 236.274059 
L 240.929251 232.441663 
L 241.524622 232.441663 
L 241.524622 228.609267 
L 242.567955 228.609267 
L 242.567955 224.776871 
L 244.027022 224.776871 
L 244.027022 220.944475 
L 244.625044 220.944475 
L 244.625044 217.112079 
L 246.015236 217.112079 
L 246.015236 213.279683 
L 246.148468 213.279683 
L 246.148468 209.447287 
L 246.355228 209.447287 
L 246.355228 205.614891 
L 246.544562 205.614891 
L 246.544562 201.782495 
L 247.231167 201.782495 
L 247.231167 197.950099 
L 247.402208 197.950099 
L 247.402208 194.117703 
L 247.599185 194.117703 
L 247.599185 190.285307 
L 248.187719 190.285307 
L 248.187719 186.452911 
L 248.533801 186.452911 
L 248.533801 182.620515 
L 248.80171 182.620515 
L 248.857982 174.955723 
L 248.963967 174.955723 
L 249.055038 167.290931 
L 249.168827 167.290931 
L 249.266259 159.626139 
L 249.648178 159.626139 
L 249.648178 155.793743 
L 249.780895 155.793743 
L 249.852609 148.12895 
L 249.923356 148.12895 
L 249.923356 144.296554 
L 250.097261 144.296554 
L 250.097261 140.464158 
L 250.235564 140.464158 
L 250.235564 136.631762 
L 250.378182 136.631762 
L 250.378182 132.799366 
L 251.15043 132.799366 
L 251.208295 125.134574 
L 251.330329 125.134574 
L 251.330329 121.302178 
L 251.560544 121.302178 
L 251.560544 117.469782 
L 251.794356 117.469782 
L 251.794356 113.637386 
L 252.093847 113.637386 
L 252.093847 109.80499 
L 252.233825 109.80499 
L 252.233825 105.972594 
L 252.557941 105.972594 
L 252.557941 102.140198 
L 252.748021 102.140198 
L 252.748021 98.307802 
L 253.333864 98.307802 
L 253.352157 90.64301 
L 254.202611 90.64301 
L 254.202611 86.810614 
L 254.390719 86.810614 
L 254.390719 82.978218 
L 256.633315 82.978218 
L 256.633315 79.145822 
L 257.328208 79.145822 
L 257.431717 71.48103 
L 260.390025 71.48103 
L 260.390025 67.648634 
L 260.774752 67.648634 
L 260.774752 63.816238 
L 273.820952 63.816238 
L 273.820952 59.983842 
L 289.913644 59.983842 
L 289.913644 56.151446 
L 291.388429 56.151446 
L 291.388429 52.31905 
L 294.374835 52.31905 
L 294.374835 48.486653 
L 307.504381 48.486653 
L 307.504381 44.654257 
L 308.67212 44.654257 
L 308.67212 40.821861 
L 309.156144 40.821861 
L 309.156144 36.989465 
L 309.714714 36.989465 
L 309.714714 33.157069 
L 309.894142 33.157069 
L 309.894142 29.324673 
L 311.011416 29.324673 
L 311.011416 25.492277 
L 313.856166 25.492277 
L 313.856166 21.659881 
L 315.229902 21.659881 
L 315.229902 17.827485 
L 317.625316 17.827485 
L 317.625316 13.995089 
L 321.517148 13.995089 
L 321.517148 10.162693 
L 326.196218 10.162693 
L 326.196218 6.330297 
L 326.196218 6.330297 
L 460.8 6.330297 
L 460.8 6.330297 
" style="fill:none;stroke:#ff0000;stroke-linecap:square;stroke-width:3;"/>
   </g>
   <g id="line2d_22">
    <path clip-path="url(#p3d42875ce0)" d="M 245.034703 293.76 
L 245.034703 289.927604 
L 245.982899 289.927604 
L 245.982899 286.095208 
L 248.533801 286.095208 
L 248.533801 282.262812 
L 249.307634 282.262812 
L 249.307634 278.430416 
L 249.783334 278.430416 
L 249.783334 274.59802 
L 249.979445 274.59802 
L 249.979445 270.765624 
L 251.633023 270.765624 
L 251.633023 266.933228 
L 252.48938 266.933228 
L 252.48938 263.100832 
L 253.159239 263.100832 
L 253.159239 259.268436 
L 253.747972 259.268436 
L 253.747972 255.43604 
L 254.318441 255.43604 
L 254.421706 247.771248 
L 255.141979 247.771248 
L 255.141979 243.938851 
L 255.421949 243.938851 
L 255.421949 240.106455 
L 255.590122 240.106455 
L 255.590122 236.274059 
L 256.03021 236.274059 
L 256.03021 232.441663 
L 256.273735 232.441663 
L 256.273735 228.609267 
L 256.533807 228.609267 
L 256.620284 220.944475 
L 257.586959 220.944475 
L 257.586959 217.112079 
L 257.802964 217.112079 
L 257.802964 213.279683 
L 258.226049 213.279683 
L 258.226049 209.447287 
L 259.288388 209.447287 
L 259.350989 201.782495 
L 259.499996 201.782495 
L 259.604738 194.117703 
L 260.197474 194.117703 
L 260.197474 190.285307 
L 260.572895 190.285307 
L 260.572895 186.452911 
L 261.705216 186.452911 
L 261.705216 182.620515 
L 261.936398 182.620515 
L 262.020025 174.955723 
L 262.71469 174.955723 
L 262.71469 171.123327 
L 263.011727 171.123327 
L 263.011727 167.290931 
L 264.598995 167.290931 
L 264.598995 163.458535 
L 264.780662 163.458535 
L 264.780662 159.626139 
L 267.194209 159.626139 
L 267.194209 155.793743 
L 267.708535 155.793743 
L 267.708535 151.961347 
L 268.346419 151.961347 
L 268.346419 148.12895 
L 269.864341 148.12895 
L 269.864341 144.296554 
L 272.5295 144.296554 
L 272.62985 136.631762 
L 272.97021 136.631762 
L 272.973704 128.96697 
L 273.240693 128.96697 
L 273.260544 121.302178 
L 273.402721 121.302178 
L 273.402721 117.469782 
L 273.740986 117.469782 
L 273.740986 113.637386 
L 275.275996 113.637386 
L 275.275996 109.80499 
L 276.412197 109.80499 
L 276.412197 105.972594 
L 277.708315 105.972594 
L 277.708315 102.140198 
L 278.553416 102.140198 
L 278.553416 98.307802 
L 279.738919 98.307802 
L 279.738919 94.475406 
L 279.867433 94.475406 
L 279.867433 90.64301 
L 285.561152 90.64301 
L 285.561152 86.810614 
L 286.132881 86.810614 
L 286.132881 82.978218 
L 287.731008 82.978218 
L 287.731008 79.145822 
L 288.162406 79.145822 
L 288.162406 75.313426 
L 296.802287 75.313426 
L 296.900256 67.648634 
L 314.335541 67.648634 
L 314.335541 63.816238 
L 357.109461 63.816238 
L 357.109461 59.983842 
L 363.177781 59.983842 
L 363.177781 56.151446 
L 365.240671 56.151446 
L 365.240671 52.31905 
L 368.20627 52.31905 
L 368.20627 48.486653 
L 368.932585 48.486653 
L 368.932585 44.654257 
L 370.578821 44.654257 
L 370.578821 40.821861 
L 371.183716 40.821861 
L 371.183716 36.989465 
L 373.150102 36.989465 
L 373.150102 33.157069 
L 378.824539 33.157069 
L 378.824539 29.324673 
L 381.305079 29.324673 
L 381.305079 25.492277 
L 384.978957 25.492277 
L 384.978957 21.659881 
L 387.967823 21.659881 
L 387.967823 17.827485 
L 390.761878 17.827485 
L 390.761878 13.995089 
L 390.893939 13.995089 
L 390.893939 10.162693 
L 394.464412 10.162693 
L 394.464412 6.330297 
L 394.464412 6.330297 
L 460.8 6.330297 
L 460.8 6.330297 
" style="fill:none;stroke:#00bfbf;stroke-linecap:square;stroke-width:1.5;"/>
   </g>
   <g id="line2d_23">
    <path clip-path="url(#p3d42875ce0)" d="M 234.128188 293.76 
L 234.128188 289.927604 
L 235.424523 289.927604 
L 235.424523 286.095208 
L 242.208742 286.095208 
L 242.208742 282.262812 
L 242.809001 282.262812 
L 242.809001 278.430416 
L 245.034703 278.430416 
L 245.034703 274.59802 
L 247.087161 274.59802 
L 247.087161 270.765624 
L 247.948521 270.765624 
L 247.948521 266.933228 
L 248.087071 266.933228 
L 248.087071 263.100832 
L 248.366431 263.100832 
L 248.366431 259.268436 
L 248.533801 259.268436 
L 248.533801 255.43604 
L 249.307634 255.43604 
L 249.307634 251.603644 
L 249.783334 251.603644 
L 249.783334 247.771248 
L 252.48938 247.771248 
L 252.557941 240.106455 
L 252.642814 240.106455 
L 252.642814 236.274059 
L 253.747972 236.274059 
L 253.747972 232.441663 
L 254.187591 232.441663 
L 254.187591 228.609267 
L 254.421706 228.609267 
L 254.495129 220.944475 
L 254.800397 220.944475 
L 254.800397 217.112079 
L 255.172478 217.112079 
L 255.172478 213.279683 
L 255.454254 213.279683 
L 255.454254 209.447287 
L 256.273735 209.447287 
L 256.273735 205.614891 
L 256.533807 205.614891 
L 256.620284 194.117703 
L 256.825205 194.117703 
L 256.825205 190.285307 
L 257.047808 190.285307 
L 257.047808 186.452911 
L 257.586959 186.452911 
L 257.586959 182.620515 
L 257.802964 182.620515 
L 257.802964 178.788119 
L 258.183061 178.788119 
L 258.226049 171.123327 
L 258.439729 171.123327 
L 258.439729 167.290931 
L 259.146004 167.290931 
L 259.146004 163.458535 
L 260.462314 163.458535 
L 260.462314 159.626139 
L 262.46217 159.626139 
L 262.46217 155.793743 
L 262.71469 155.793743 
L 262.71469 151.961347 
L 263.07006 151.961347 
L 263.07006 148.12895 
L 263.811544 148.12895 
L 263.811544 144.296554 
L 264.23747 144.296554 
L 264.23747 140.464158 
L 264.780662 140.464158 
L 264.780662 136.631762 
L 265.375252 136.631762 
L 265.390467 128.96697 
L 266.028513 128.96697 
L 266.028513 125.134574 
L 266.406476 125.134574 
L 266.497466 117.469782 
L 267.194209 117.469782 
L 267.194209 113.637386 
L 268.462574 113.637386 
L 268.462574 109.80499 
L 268.648888 109.80499 
L 268.648888 105.972594 
L 269.063537 105.972594 
L 269.063537 102.140198 
L 269.864341 102.140198 
L 269.864341 98.307802 
L 270.352795 98.307802 
L 270.452414 90.64301 
L 270.509056 90.64301 
L 270.509056 86.810614 
L 272.62985 86.810614 
L 272.62985 82.978218 
L 274.464436 82.978218 
L 274.464436 79.145822 
L 276.872821 79.145822 
L 276.872821 75.313426 
L 277.507126 75.313426 
L 277.507126 71.48103 
L 280.903705 71.48103 
L 280.903705 67.648634 
L 288.162406 67.648634 
L 288.162406 63.816238 
L 325.837409 63.816238 
L 325.837409 59.983842 
L 328.120612 59.983842 
L 328.120612 56.151446 
L 334.39067 56.151446 
L 334.39067 52.31905 
L 343.082211 52.31905 
L 343.082211 48.486653 
L 344.991187 48.486653 
L 344.991187 44.654257 
L 353.46849 44.654257 
L 353.46849 40.821861 
L 354.779956 40.821861 
L 354.779956 36.989465 
L 357.109461 36.989465 
L 357.109461 33.157069 
L 360.431231 33.157069 
L 360.431231 29.324673 
L 364.773227 29.324673 
L 364.773227 25.492277 
L 366.534307 25.492277 
L 366.534307 21.659881 
L 367.365102 21.659881 
L 367.365102 17.827485 
L 368.687475 17.827485 
L 368.687475 13.995089 
L 370.578821 13.995089 
L 370.578821 10.162693 
L 390.761878 10.162693 
L 390.761878 6.330297 
L 390.761878 6.330297 
L 460.8 6.330297 
L 460.8 6.330297 
" style="fill:none;stroke:#bf00bf;stroke-linecap:square;stroke-width:1.5;"/>
   </g>
   <g id="line2d_24">
    <path clip-path="url(#p3d42875ce0)" d="M 225.517913 293.76 
L 225.517913 289.927604 
L 232.658762 289.927604 
L 232.696132 282.262812 
L 233.265487 282.262812 
L 233.265487 278.430416 
L 234.128188 278.430416 
L 234.128188 274.59802 
L 236.967354 274.59802 
L 236.967354 270.765624 
L 238.767475 270.765624 
L 238.767475 266.933228 
L 239.078749 266.933228 
L 239.078749 263.100832 
L 239.789454 263.100832 
L 239.789454 259.268436 
L 240.833631 259.268436 
L 240.833631 255.43604 
L 242.809001 255.43604 
L 242.809001 251.603644 
L 243.697199 251.603644 
L 243.697199 247.771248 
L 247.77906 247.771248 
L 247.77906 243.938851 
L 248.252798 243.938851 
L 248.252798 240.106455 
L 248.468409 240.106455 
L 248.533801 232.441663 
L 249.964893 232.441663 
L 249.964893 228.609267 
L 250.235564 228.609267 
L 250.235564 224.776871 
L 252.370176 224.776871 
L 252.370176 220.944475 
L 252.557941 220.944475 
L 252.642814 213.279683 
L 253.333864 213.279683 
L 253.333864 209.447287 
L 253.592219 209.447287 
L 253.592219 205.614891 
L 253.747972 205.614891 
L 253.747972 201.782495 
L 254.421706 201.782495 
L 254.421706 197.950099 
L 254.690006 197.950099 
L 254.690006 194.117703 
L 254.832258 194.117703 
L 254.832258 190.285307 
L 255.172478 190.285307 
L 255.172478 186.452911 
L 256.18757 186.452911 
L 256.273735 178.788119 
L 256.533807 178.788119 
L 256.533807 174.955723 
L 256.954613 174.955723 
L 257.047808 167.290931 
L 258.53061 167.290931 
L 258.590193 159.626139 
L 259.146004 159.626139 
L 259.146004 155.793743 
L 259.857156 155.793743 
L 259.857156 151.961347 
L 260.261394 151.961347 
L 260.261394 148.12895 
L 260.462314 148.12895 
L 260.462314 144.296554 
L 260.860401 144.296554 
L 260.860401 140.464158 
L 262.46217 140.464158 
L 262.46217 136.631762 
L 262.71469 136.631762 
L 262.71469 132.799366 
L 263.07006 132.799366 
L 263.07006 128.96697 
L 263.415957 128.96697 
L 263.415957 125.134574 
L 263.811544 125.134574 
L 263.811544 121.302178 
L 264.780662 121.302178 
L 264.780662 117.469782 
L 264.949934 117.469782 
L 265.05003 109.80499 
L 265.249067 109.80499 
L 265.249067 105.972594 
L 265.375252 105.972594 
L 265.390467 98.307802 
L 266.028513 98.307802 
L 266.028513 94.475406 
L 266.406476 94.475406 
L 266.406476 90.64301 
L 267.118262 90.64301 
L 267.118262 86.810614 
L 268.110485 86.810614 
L 268.110485 82.978218 
L 269.285206 82.978218 
L 269.285206 79.145822 
L 270.352795 79.145822 
L 270.352795 75.313426 
L 272.232119 75.313426 
L 272.232119 71.48103 
L 272.62985 71.48103 
L 272.62985 67.648634 
L 274.464436 67.648634 
L 274.464436 63.816238 
L 325.837409 63.816238 
L 325.837409 59.983842 
L 328.120612 59.983842 
L 328.120612 56.151446 
L 334.39067 56.151446 
L 334.39067 52.31905 
L 343.082211 52.31905 
L 343.082211 48.486653 
L 343.861217 48.486653 
L 343.861217 44.654257 
L 344.991187 44.654257 
L 344.991187 40.821861 
L 346.921007 40.821861 
L 346.921007 36.989465 
L 349.410605 36.989465 
L 349.410605 33.157069 
L 350.81175 33.157069 
L 350.81175 29.324673 
L 353.46849 29.324673 
L 353.46849 25.492277 
L 354.303584 25.492277 
L 354.303584 21.659881 
L 354.779956 21.659881 
L 354.779956 17.827485 
L 357.109461 17.827485 
L 357.109461 13.995089 
L 364.773227 13.995089 
L 364.773227 10.162693 
L 366.464617 10.162693 
L 366.464617 6.330297 
L 366.464617 6.330297 
L 460.8 6.330297 
L 460.8 6.330297 
" style="fill:none;stroke:#000000;stroke-linecap:square;stroke-width:1.5;"/>
   </g>
   <g id="line2d_25">
    <path clip-path="url(#p3d42875ce0)" d="M 225.517913 293.76 
L 225.517913 289.927604 
L 228.151235 289.927604 
L 228.151235 286.095208 
L 232.34233 286.095208 
L 232.34233 282.262812 
L 232.658762 282.262812 
L 232.696132 274.59802 
L 232.945446 274.59802 
L 232.945446 270.765624 
L 233.347633 270.765624 
L 233.347633 266.933228 
L 234.128188 266.933228 
L 234.128188 263.100832 
L 235.737528 263.100832 
L 235.737528 259.268436 
L 236.967354 259.268436 
L 236.967354 255.43604 
L 238.842793 255.43604 
L 238.842793 251.603644 
L 239.078749 251.603644 
L 239.078749 247.771248 
L 239.205581 247.771248 
L 239.205581 243.938851 
L 240.319079 243.938851 
L 240.319079 240.106455 
L 241.254779 240.106455 
L 241.254779 236.274059 
L 244.027022 236.274059 
L 244.027022 232.441663 
L 246.544562 232.441663 
L 246.544562 228.609267 
L 247.231167 228.609267 
L 247.231167 224.776871 
L 247.402208 224.776871 
L 247.402208 220.944475 
L 248.533801 220.944475 
L 248.533801 217.112079 
L 248.80171 217.112079 
L 248.80171 213.279683 
L 250.235564 213.279683 
L 250.235564 209.447287 
L 250.434992 209.447287 
L 250.434992 205.614891 
L 251.017821 205.614891 
L 251.053476 194.117703 
L 251.15043 194.117703 
L 251.15043 190.285307 
L 251.330329 190.285307 
L 251.330329 186.452911 
L 252.557941 186.452911 
L 252.642814 178.788119 
L 253.333864 178.788119 
L 253.333864 174.955723 
L 254.421706 174.955723 
L 254.48525 167.290931 
L 255.509132 167.290931 
L 255.509132 163.458535 
L 256.533807 163.458535 
L 256.533807 159.626139 
L 256.69386 159.626139 
L 256.69386 155.793743 
L 257.240607 155.793743 
L 257.240607 151.961347 
L 257.645535 151.961347 
L 257.66882 144.296554 
L 258.53061 144.296554 
L 258.53061 140.464158 
L 258.796492 140.464158 
L 258.865577 132.799366 
L 258.97404 132.799366 
L 258.97404 128.96697 
L 259.146004 128.96697 
L 259.146004 125.134574 
L 259.312207 125.134574 
L 259.379423 117.469782 
L 259.736989 117.469782 
L 259.746974 109.80499 
L 260.537538 109.80499 
L 260.537538 105.972594 
L 260.94116 105.972594 
L 260.94116 102.140198 
L 261.506879 102.140198 
L 261.506879 98.307802 
L 262.835434 98.307802 
L 262.835434 94.475406 
L 263.466869 94.475406 
L 263.466869 90.64301 
L 263.811544 90.64301 
L 263.811544 86.810614 
L 264.442863 86.810614 
L 264.442863 82.978218 
L 264.785166 82.978218 
L 264.785166 79.145822 
L 265.375252 79.145822 
L 265.460986 71.48103 
L 266.406476 71.48103 
L 266.406476 67.648634 
L 270.263758 67.648634 
L 270.263758 63.816238 
L 312.773705 63.816238 
L 312.773705 59.983842 
L 321.041142 59.983842 
L 321.041142 56.151446 
L 324.512082 56.151446 
L 324.512082 52.31905 
L 325.230438 52.31905 
L 325.230438 48.486653 
L 325.837409 48.486653 
L 325.837409 44.654257 
L 326.196877 44.654257 
L 326.196877 40.821861 
L 328.120612 40.821861 
L 328.120612 36.989465 
L 331.329322 36.989465 
L 331.329322 33.157069 
L 331.719381 33.157069 
L 331.719381 29.324673 
L 334.39067 29.324673 
L 334.39067 25.492277 
L 336.204752 25.492277 
L 336.204752 21.659881 
L 341.371424 21.659881 
L 341.371424 17.827485 
L 342.604447 17.827485 
L 342.604447 13.995089 
L 348.449554 13.995089 
L 348.449554 10.162693 
L 349.410605 10.162693 
L 349.410605 6.330297 
L 349.410605 6.330297 
L 460.8 6.330297 
L 460.8 6.330297 
" style="fill:none;stroke:#00bfbf;stroke-linecap:square;stroke-width:1.5;"/>
   </g>
   <g id="line2d_26">
    <path clip-path="url(#p3d42875ce0)" d="M 189.108025 293.76 
L 189.108025 289.927604 
L 193.399268 289.927604 
L 193.399268 286.095208 
L 197.89351 286.095208 
L 197.89351 282.262812 
L 206.84835 282.262812 
L 206.84835 278.430416 
L 207.132435 278.430416 
L 207.132435 274.59802 
L 213.003392 274.59802 
L 213.003392 270.765624 
L 215.442828 270.765624 
L 215.442828 266.933228 
L 226.409784 266.933228 
L 226.409784 263.100832 
L 226.944614 263.100832 
L 226.952936 255.43604 
L 227.406568 255.43604 
L 227.406568 251.603644 
L 227.751366 251.603644 
L 227.751366 247.771248 
L 229.826292 247.771248 
L 229.826292 243.938851 
L 230.893996 243.938851 
L 230.893996 240.106455 
L 237.370229 240.106455 
L 237.370229 236.274059 
L 240.929251 236.274059 
L 240.929251 232.441663 
L 241.524622 232.441663 
L 241.524622 228.609267 
L 242.567955 228.609267 
L 242.567955 224.776871 
L 244.027022 224.776871 
L 244.027022 220.944475 
L 244.625044 220.944475 
L 244.625044 217.112079 
L 246.015236 217.112079 
L 246.015236 213.279683 
L 246.243326 213.279683 
L 246.243326 209.447287 
L 246.355228 209.447287 
L 246.355228 205.614891 
L 246.544562 205.614891 
L 246.544562 201.782495 
L 247.231167 201.782495 
L 247.231167 197.950099 
L 247.402208 197.950099 
L 247.402208 194.117703 
L 247.755509 194.117703 
L 247.755509 190.285307 
L 248.187719 190.285307 
L 248.187719 186.452911 
L 248.533801 186.452911 
L 248.533801 182.620515 
L 248.80171 182.620515 
L 248.857982 174.955723 
L 249.055038 174.955723 
L 249.055038 171.123327 
L 249.168827 171.123327 
L 249.266259 163.458535 
L 249.852609 163.458535 
L 249.923356 151.961347 
L 250.097261 151.961347 
L 250.097261 148.12895 
L 250.235564 148.12895 
L 250.235564 144.296554 
L 250.378182 144.296554 
L 250.378182 140.464158 
L 251.15043 140.464158 
L 251.208295 132.799366 
L 251.330329 132.799366 
L 251.373578 125.134574 
L 251.560544 125.134574 
L 251.560544 121.302178 
L 251.794356 121.302178 
L 251.794356 117.469782 
L 252.200439 117.469782 
L 252.233825 109.80499 
L 252.557941 109.80499 
L 252.557941 105.972594 
L 252.883553 105.972594 
L 252.893774 98.307802 
L 253.333864 98.307802 
L 253.352157 90.64301 
L 254.202611 90.64301 
L 254.202611 86.810614 
L 254.97804 86.810614 
L 254.97804 82.978218 
L 256.633315 82.978218 
L 256.633315 79.145822 
L 257.431717 79.145822 
L 257.431717 75.313426 
L 257.707045 75.313426 
L 257.707045 71.48103 
L 261.015801 71.48103 
L 261.015801 67.648634 
L 261.559513 67.648634 
L 261.559513 63.816238 
L 273.820952 63.816238 
L 273.820952 59.983842 
L 289.913644 59.983842 
L 289.913644 56.151446 
L 291.388429 56.151446 
L 291.388429 52.31905 
L 294.374835 52.31905 
L 294.374835 48.486653 
L 307.540519 48.486653 
L 307.540519 44.654257 
L 308.67212 44.654257 
L 308.67212 40.821861 
L 309.156144 40.821861 
L 309.156144 36.989465 
L 309.714714 36.989465 
L 309.714714 33.157069 
L 309.894142 33.157069 
L 309.894142 29.324673 
L 311.011416 29.324673 
L 311.011416 25.492277 
L 313.856166 25.492277 
L 313.856166 21.659881 
L 315.229902 21.659881 
L 315.229902 17.827485 
L 317.625316 17.827485 
L 317.625316 13.995089 
L 325.921211 13.995089 
L 325.921211 10.162693 
L 326.196259 10.162693 
L 326.196259 6.330297 
L 326.196259 6.330297 
L 460.8 6.330297 
L 460.8 6.330297 
" style="fill:none;stroke:#bf00bf;stroke-linecap:square;stroke-width:1.5;"/>
   </g>
   <g id="patch_3">
    <path d="M 0 293.76 
L 0 3.456 
" style="fill:none;stroke:#000000;stroke-linecap:square;stroke-linejoin:miter;stroke-width:0.8;"/>
   </g>
   <g id="patch_4">
    <path d="M 460.8 293.76 
L 460.8 3.456 
" style="fill:none;stroke:#000000;stroke-linecap:square;stroke-linejoin:miter;stroke-width:0.8;"/>
   </g>
   <g id="patch_5">
    <path d="M 0 293.76 
L 460.8 293.76 
" style="fill:none;stroke:#000000;stroke-linecap:square;stroke-linejoin:miter;stroke-width:0.8;"/>
   </g>
   <g id="patch_6">
    <path d="M 0 3.456 
L 460.8 3.456 
" style="fill:none;stroke:#000000;stroke-linecap:square;stroke-linejoin:miter;stroke-width:0.8;"/>
   </g>
   <g id="text_6">
    <!-- {f1-f5}, 5-D -->
    <defs>
     <path d="M 51.125 -9.28125 
L 51.125 -16.3125 
L 48.09375 -16.3125 
Q 35.9375 -16.3125 31.8125 -12.6875 
Q 27.6875 -9.078125 27.6875 1.703125 
L 27.6875 13.375 
Q 27.6875 20.75 25.046875 23.578125 
Q 22.40625 26.421875 15.484375 26.421875 
L 12.5 26.421875 
L 12.5 33.40625 
L 15.484375 33.40625 
Q 22.46875 33.40625 25.078125 36.203125 
Q 27.6875 39.015625 27.6875 46.296875 
L 27.6875 58.015625 
Q 27.6875 68.796875 31.8125 72.390625 
Q 35.9375 75.984375 48.09375 75.984375 
L 51.125 75.984375 
L 51.125 69 
L 47.796875 69 
Q 40.921875 69 38.8125 66.84375 
Q 36.71875 64.703125 36.71875 57.8125 
L 36.71875 45.703125 
Q 36.71875 38.03125 34.5 34.5625 
Q 32.28125 31.109375 26.90625 29.890625 
Q 32.328125 28.5625 34.515625 25.09375 
Q 36.71875 21.625 36.71875 14.015625 
L 36.71875 1.90625 
Q 36.71875 -4.984375 38.8125 -7.125 
Q 40.921875 -9.28125 47.796875 -9.28125 
z
" id="DejaVuSans-123"/>
     <path d="M 10.796875 72.90625 
L 49.515625 72.90625 
L 49.515625 64.59375 
L 19.828125 64.59375 
L 19.828125 46.734375 
Q 21.96875 47.46875 24.109375 47.828125 
Q 26.265625 48.1875 28.421875 48.1875 
Q 40.625 48.1875 47.75 41.5 
Q 54.890625 34.8125 54.890625 23.390625 
Q 54.890625 11.625 47.5625 5.09375 
Q 40.234375 -1.421875 26.90625 -1.421875 
Q 22.3125 -1.421875 17.546875 -0.640625 
Q 12.796875 0.140625 7.71875 1.703125 
L 7.71875 11.625 
Q 12.109375 9.234375 16.796875 8.0625 
Q 21.484375 6.890625 26.703125 6.890625 
Q 35.15625 6.890625 40.078125 11.328125 
Q 45.015625 15.765625 45.015625 23.390625 
Q 45.015625 31 40.078125 35.4375 
Q 35.15625 39.890625 26.703125 39.890625 
Q 22.75 39.890625 18.8125 39.015625 
Q 14.890625 38.140625 10.796875 36.28125 
z
" id="DejaVuSans-53"/>
     <path d="M 12.5 -9.28125 
L 15.921875 -9.28125 
Q 22.75 -9.28125 24.828125 -7.171875 
Q 26.90625 -5.078125 26.90625 1.90625 
L 26.90625 14.015625 
Q 26.90625 21.625 29.09375 25.09375 
Q 31.296875 28.5625 36.71875 29.890625 
Q 31.296875 31.109375 29.09375 34.5625 
Q 26.90625 38.03125 26.90625 45.703125 
L 26.90625 57.8125 
Q 26.90625 64.75 24.828125 66.875 
Q 22.75 69 15.921875 69 
L 12.5 69 
L 12.5 75.984375 
L 15.578125 75.984375 
Q 27.734375 75.984375 31.8125 72.390625 
Q 35.890625 68.796875 35.890625 58.015625 
L 35.890625 46.296875 
Q 35.890625 39.015625 38.515625 36.203125 
Q 41.15625 33.40625 48.09375 33.40625 
L 51.125 33.40625 
L 51.125 26.421875 
L 48.09375 26.421875 
Q 41.15625 26.421875 38.515625 23.578125 
Q 35.890625 20.75 35.890625 13.375 
L 35.890625 1.703125 
Q 35.890625 -9.078125 31.8125 -12.6875 
Q 27.734375 -16.3125 15.578125 -16.3125 
L 12.5 -16.3125 
z
" id="DejaVuSans-125"/>
     <path d="M 11.71875 12.40625 
L 22.015625 12.40625 
L 22.015625 4 
L 14.015625 -11.625 
L 7.71875 -11.625 
L 11.71875 4 
z
" id="DejaVuSans-44"/>
    </defs>
    <g transform="translate(331.334 287.95392)scale(0.2 -0.2)">
     <use xlink:href="#DejaVuSans-123"/>
     <use x="63.623047" xlink:href="#DejaVuSans-102"/>
     <use x="98.828125" xlink:href="#DejaVuSans-49"/>
     <use x="162.451172" xlink:href="#DejaVuSans-45"/>
     <use x="198.535156" xlink:href="#DejaVuSans-102"/>
     <use x="233.740234" xlink:href="#DejaVuSans-53"/>
     <use x="297.363281" xlink:href="#DejaVuSans-125"/>
     <use x="360.986328" xlink:href="#DejaVuSans-44"/>
     <use x="392.773438" xlink:href="#DejaVuSans-32"/>
     <use x="424.560547" xlink:href="#DejaVuSans-53"/>
     <use x="488.183594" xlink:href="#DejaVuSans-45"/>
     <use x="524.267578" xlink:href="#DejaVuSans-68"/>
    </g>
   </g>
   <g id="text_7">
    <!-- v2.4 -->
    <defs>
     <path d="M 2.984375 54.6875 
L 12.5 54.6875 
L 29.59375 8.796875 
L 46.6875 54.6875 
L 56.203125 54.6875 
L 35.6875 0 
L 23.484375 0 
z
" id="DejaVuSans-118"/>
     <path d="M 19.1875 8.296875 
L 53.609375 8.296875 
L 53.609375 0 
L 7.328125 0 
L 7.328125 8.296875 
Q 12.9375 14.109375 22.625 23.890625 
Q 32.328125 33.6875 34.8125 36.53125 
Q 39.546875 41.84375 41.421875 45.53125 
Q 43.3125 49.21875 43.3125 52.78125 
Q 43.3125 58.59375 39.234375 62.25 
Q 35.15625 65.921875 28.609375 65.921875 
Q 23.96875 65.921875 18.8125 64.3125 
Q 13.671875 62.703125 7.8125 59.421875 
L 7.8125 69.390625 
Q 13.765625 71.78125 18.9375 73 
Q 24.125 74.21875 28.421875 74.21875 
Q 39.75 74.21875 46.484375 68.546875 
Q 53.21875 62.890625 53.21875 53.421875 
Q 53.21875 48.921875 51.53125 44.890625 
Q 49.859375 40.875 45.40625 35.40625 
Q 44.1875 33.984375 37.640625 27.21875 
Q 31.109375 20.453125 19.1875 8.296875 
z
" id="DejaVuSans-50"/>
     <path d="M 10.6875 12.40625 
L 21 12.40625 
L 21 0 
L 10.6875 0 
z
" id="DejaVuSans-46"/>
    </defs>
    <g style="fill:#808080;" transform="translate(219.489063 288.777272)scale(0.1 -0.1)">
     <use xlink:href="#DejaVuSans-118"/>
     <use x="59.179688" xlink:href="#DejaVuSans-50"/>
     <use x="122.802734" xlink:href="#DejaVuSans-46"/>
     <use x="154.589844" xlink:href="#DejaVuSans-52"/>
    </g>
   </g>
  </g>
 </g>
 <defs>
  <clipPath id="p3d42875ce0">
   <rect height="290.304" width="460.8" x="0" y="3.456"/>
  </clipPath>
 </defs>
</svg>
