<?xml version="1.0" encoding="utf-8" standalone="no"?>
<!DOCTYPE svg PUBLIC "-//W3C//DTD SVG 1.1//EN"
  "http://www.w3.org/Graphics/SVG/1.1/DTD/svg11.dtd">
<!-- Created with matplotlib (https://matplotlib.org/) -->
<svg height="345.6pt" version="1.1" viewBox="0 0 460.8 345.6" width="460.8pt" xmlns="http://www.w3.org/2000/svg" xmlns:xlink="http://www.w3.org/1999/xlink">
 <defs>
  <style type="text/css">
*{stroke-linecap:butt;stroke-linejoin:round;}
  </style>
 </defs>
 <g id="figure_1">
  <g id="patch_1">
   <path d="M 0 345.6 
L 460.8 345.6 
L 460.8 0 
L 0 0 
z
" style="fill:#ffffff;"/>
  </g>
  <g id="axes_1">
   <g id="patch_2">
    <path d="M 0 293.76 
L 460.8 293.76 
L 460.8 3.456 
L 0 3.456 
z
" style="fill:#ffffff;"/>
   </g>
   <g id="matplotlib.axis_1">
    <g id="xtick_1">
     <g id="line2d_1">
      <path clip-path="url(#p28036830ad)" d="M 104.470891 293.76 
L 104.470891 3.456 
" style="fill:none;stroke:#b0b0b0;stroke-linecap:square;stroke-width:0.8;"/>
     </g>
     <g id="line2d_2">
      <defs>
       <path d="M 0 0 
L 0 3.5 
" id="m79438460ee" style="stroke:#000000;stroke-width:0.8;"/>
      </defs>
      <g>
       <use style="stroke:#000000;stroke-width:0.8;" x="104.470891" xlink:href="#m79438460ee" y="293.76"/>
      </g>
     </g>
     <g id="text_1">
      <!-- -4 -->
      <defs>
       <path d="M 4.890625 31.390625 
L 31.203125 31.390625 
L 31.203125 23.390625 
L 4.890625 23.390625 
z
" id="DejaVuSans-45"/>
       <path d="M 37.796875 64.3125 
L 12.890625 25.390625 
L 37.796875 25.390625 
z
M 35.203125 72.90625 
L 47.609375 72.90625 
L 47.609375 25.390625 
L 58.015625 25.390625 
L 58.015625 17.1875 
L 47.609375 17.1875 
L 47.609375 0 
L 37.796875 0 
L 37.796875 17.1875 
L 4.890625 17.1875 
L 4.890625 26.703125 
z
" id="DejaVuSans-52"/>
      </defs>
      <g transform="translate(94.500579 315.956875)scale(0.2 -0.2)">
       <use xlink:href="#DejaVuSans-45"/>
       <use x="36.083984" xlink:href="#DejaVuSans-52"/>
      </g>
     </g>
    </g>
    <g id="xtick_2">
     <g id="line2d_3">
      <path clip-path="url(#p28036830ad)" d="M 209.054769 293.76 
L 209.054769 3.456 
" style="fill:none;stroke:#b0b0b0;stroke-linecap:square;stroke-width:0.8;"/>
     </g>
     <g id="line2d_4">
      <g>
       <use style="stroke:#000000;stroke-width:0.8;" x="209.054769" xlink:href="#m79438460ee" y="293.76"/>
      </g>
     </g>
     <g id="text_2">
      <!-- 0 -->
      <defs>
       <path d="M 31.78125 66.40625 
Q 24.171875 66.40625 20.328125 58.90625 
Q 16.5 51.421875 16.5 36.375 
Q 16.5 21.390625 20.328125 13.890625 
Q 24.171875 6.390625 31.78125 6.390625 
Q 39.453125 6.390625 43.28125 13.890625 
Q 47.125 21.390625 47.125 36.375 
Q 47.125 51.421875 43.28125 58.90625 
Q 39.453125 66.40625 31.78125 66.40625 
z
M 31.78125 74.21875 
Q 44.046875 74.21875 50.515625 64.515625 
Q 56.984375 54.828125 56.984375 36.375 
Q 56.984375 17.96875 50.515625 8.265625 
Q 44.046875 -1.421875 31.78125 -1.421875 
Q 19.53125 -1.421875 13.0625 8.265625 
Q 6.59375 17.96875 6.59375 36.375 
Q 6.59375 54.828125 13.0625 64.515625 
Q 19.53125 74.21875 31.78125 74.21875 
z
" id="DejaVuSans-48"/>
      </defs>
      <g transform="translate(202.692269 315.956875)scale(0.2 -0.2)">
       <use xlink:href="#DejaVuSans-48"/>
      </g>
     </g>
    </g>
    <g id="xtick_3">
     <g id="line2d_5">
      <path clip-path="url(#p28036830ad)" d="M 313.638647 293.76 
L 313.638647 3.456 
" style="fill:none;stroke:#b0b0b0;stroke-linecap:square;stroke-width:0.8;"/>
     </g>
     <g id="line2d_6">
      <g>
       <use style="stroke:#000000;stroke-width:0.8;" x="313.638647" xlink:href="#m79438460ee" y="293.76"/>
      </g>
     </g>
     <g id="text_3">
      <!-- 4 -->
      <g transform="translate(307.276147 315.956875)scale(0.2 -0.2)">
       <use xlink:href="#DejaVuSans-52"/>
      </g>
     </g>
    </g>
    <g id="xtick_4">
     <g id="line2d_7">
      <path clip-path="url(#p28036830ad)" d="M 418.222525 293.76 
L 418.222525 3.456 
" style="fill:none;stroke:#b0b0b0;stroke-linecap:square;stroke-width:0.8;"/>
     </g>
     <g id="line2d_8">
      <g>
       <use style="stroke:#000000;stroke-width:0.8;" x="418.222525" xlink:href="#m79438460ee" y="293.76"/>
      </g>
     </g>
     <g id="text_4">
      <!-- 8 -->
      <defs>
       <path d="M 31.78125 34.625 
Q 24.75 34.625 20.71875 30.859375 
Q 16.703125 27.09375 16.703125 20.515625 
Q 16.703125 13.921875 20.71875 10.15625 
Q 24.75 6.390625 31.78125 6.390625 
Q 38.8125 6.390625 42.859375 10.171875 
Q 46.921875 13.96875 46.921875 20.515625 
Q 46.921875 27.09375 42.890625 30.859375 
Q 38.875 34.625 31.78125 34.625 
z
M 21.921875 38.8125 
Q 15.578125 40.375 12.03125 44.71875 
Q 8.5 49.078125 8.5 55.328125 
Q 8.5 64.0625 14.71875 69.140625 
Q 20.953125 74.21875 31.78125 74.21875 
Q 42.671875 74.21875 48.875 69.140625 
Q 55.078125 64.0625 55.078125 55.328125 
Q 55.078125 49.078125 51.53125 44.71875 
Q 48 40.375 41.703125 38.8125 
Q 48.828125 37.15625 52.796875 32.3125 
Q 56.78125 27.484375 56.78125 20.515625 
Q 56.78125 9.90625 50.3125 4.234375 
Q 43.84375 -1.421875 31.78125 -1.421875 
Q 19.734375 -1.421875 13.25 4.234375 
Q 6.78125 9.90625 6.78125 20.515625 
Q 6.78125 27.484375 10.78125 32.3125 
Q 14.796875 37.15625 21.921875 38.8125 
z
M 18.3125 54.390625 
Q 18.3125 48.734375 21.84375 45.5625 
Q 25.390625 42.390625 31.78125 42.390625 
Q 38.140625 42.390625 41.71875 45.5625 
Q 45.3125 48.734375 45.3125 54.390625 
Q 45.3125 60.0625 41.71875 63.234375 
Q 38.140625 66.40625 31.78125 66.40625 
Q 25.390625 66.40625 21.84375 63.234375 
Q 18.3125 60.0625 18.3125 54.390625 
z
" id="DejaVuSans-56"/>
      </defs>
      <g transform="translate(411.860025 315.956875)scale(0.2 -0.2)">
       <use xlink:href="#DejaVuSans-56"/>
      </g>
     </g>
    </g>
    <g id="text_5">
     <!-- log10 of Df -->
     <defs>
      <path d="M 9.421875 75.984375 
L 18.40625 75.984375 
L 18.40625 0 
L 9.421875 0 
z
" id="DejaVuSans-108"/>
      <path d="M 30.609375 48.390625 
Q 23.390625 48.390625 19.1875 42.75 
Q 14.984375 37.109375 14.984375 27.296875 
Q 14.984375 17.484375 19.15625 11.84375 
Q 23.34375 6.203125 30.609375 6.203125 
Q 37.796875 6.203125 41.984375 11.859375 
Q 46.1875 17.53125 46.1875 27.296875 
Q 46.1875 37.015625 41.984375 42.703125 
Q 37.796875 48.390625 30.609375 48.390625 
z
M 30.609375 56 
Q 42.328125 56 49.015625 48.375 
Q 55.71875 40.765625 55.71875 27.296875 
Q 55.71875 13.875 49.015625 6.21875 
Q 42.328125 -1.421875 30.609375 -1.421875 
Q 18.84375 -1.421875 12.171875 6.21875 
Q 5.515625 13.875 5.515625 27.296875 
Q 5.515625 40.765625 12.171875 48.375 
Q 18.84375 56 30.609375 56 
z
" id="DejaVuSans-111"/>
      <path d="M 45.40625 27.984375 
Q 45.40625 37.75 41.375 43.109375 
Q 37.359375 48.484375 30.078125 48.484375 
Q 22.859375 48.484375 18.828125 43.109375 
Q 14.796875 37.75 14.796875 27.984375 
Q 14.796875 18.265625 18.828125 12.890625 
Q 22.859375 7.515625 30.078125 7.515625 
Q 37.359375 7.515625 41.375 12.890625 
Q 45.40625 18.265625 45.40625 27.984375 
z
M 54.390625 6.78125 
Q 54.390625 -7.171875 48.1875 -13.984375 
Q 42 -20.796875 29.203125 -20.796875 
Q 24.46875 -20.796875 20.265625 -20.09375 
Q 16.0625 -19.390625 12.109375 -17.921875 
L 12.109375 -9.1875 
Q 16.0625 -11.328125 19.921875 -12.34375 
Q 23.78125 -13.375 27.78125 -13.375 
Q 36.625 -13.375 41.015625 -8.765625 
Q 45.40625 -4.15625 45.40625 5.171875 
L 45.40625 9.625 
Q 42.625 4.78125 38.28125 2.390625 
Q 33.9375 0 27.875 0 
Q 17.828125 0 11.671875 7.65625 
Q 5.515625 15.328125 5.515625 27.984375 
Q 5.515625 40.671875 11.671875 48.328125 
Q 17.828125 56 27.875 56 
Q 33.9375 56 38.28125 53.609375 
Q 42.625 51.21875 45.40625 46.390625 
L 45.40625 54.6875 
L 54.390625 54.6875 
z
" id="DejaVuSans-103"/>
      <path d="M 12.40625 8.296875 
L 28.515625 8.296875 
L 28.515625 63.921875 
L 10.984375 60.40625 
L 10.984375 69.390625 
L 28.421875 72.90625 
L 38.28125 72.90625 
L 38.28125 8.296875 
L 54.390625 8.296875 
L 54.390625 0 
L 12.40625 0 
z
" id="DejaVuSans-49"/>
      <path id="DejaVuSans-32"/>
      <path d="M 37.109375 75.984375 
L 37.109375 68.5 
L 28.515625 68.5 
Q 23.6875 68.5 21.796875 66.546875 
Q 19.921875 64.59375 19.921875 59.515625 
L 19.921875 54.6875 
L 34.71875 54.6875 
L 34.71875 47.703125 
L 19.921875 47.703125 
L 19.921875 0 
L 10.890625 0 
L 10.890625 47.703125 
L 2.296875 47.703125 
L 2.296875 54.6875 
L 10.890625 54.6875 
L 10.890625 58.5 
Q 10.890625 67.625 15.140625 71.796875 
Q 19.390625 75.984375 28.609375 75.984375 
z
" id="DejaVuSans-102"/>
      <path d="M 19.671875 64.796875 
L 19.671875 8.109375 
L 31.59375 8.109375 
Q 46.6875 8.109375 53.6875 14.9375 
Q 60.6875 21.78125 60.6875 36.53125 
Q 60.6875 51.171875 53.6875 57.984375 
Q 46.6875 64.796875 31.59375 64.796875 
z
M 9.8125 72.90625 
L 30.078125 72.90625 
Q 51.265625 72.90625 61.171875 64.09375 
Q 71.09375 55.28125 71.09375 36.53125 
Q 71.09375 17.671875 61.125 8.828125 
Q 51.171875 0 30.078125 0 
L 9.8125 0 
z
" id="DejaVuSans-68"/>
     </defs>
     <g transform="translate(175.214063 339.313125)scale(0.2 -0.2)">
      <use xlink:href="#DejaVuSans-108"/>
      <use x="27.783203" xlink:href="#DejaVuSans-111"/>
      <use x="88.964844" xlink:href="#DejaVuSans-103"/>
      <use x="152.441406" xlink:href="#DejaVuSans-49"/>
      <use x="216.064453" xlink:href="#DejaVuSans-48"/>
      <use x="279.6875" xlink:href="#DejaVuSans-32"/>
      <use x="311.474609" xlink:href="#DejaVuSans-111"/>
      <use x="372.65625" xlink:href="#DejaVuSans-102"/>
      <use x="407.861328" xlink:href="#DejaVuSans-32"/>
      <use x="439.648438" xlink:href="#DejaVuSans-68"/>
      <use x="516.650391" xlink:href="#DejaVuSans-102"/>
     </g>
    </g>
   </g>
   <g id="matplotlib.axis_2">
    <g id="ytick_1">
     <g id="line2d_9">
      <path clip-path="url(#p28036830ad)" d="M 0 293.76 
L 460.8 293.76 
" style="fill:none;stroke:#b0b0b0;stroke-linecap:square;stroke-width:0.8;"/>
     </g>
     <g id="line2d_10">
      <defs>
       <path d="M 0 0 
L -3.5 0 
" id="m8e4987b0fb" style="stroke:#000000;stroke-width:0.8;"/>
      </defs>
      <g>
       <use style="stroke:#000000;stroke-width:0.8;" x="0" xlink:href="#m8e4987b0fb" y="293.76"/>
      </g>
     </g>
    </g>
    <g id="ytick_2">
     <g id="line2d_11">
      <path clip-path="url(#p28036830ad)" d="M 0 236.274059 
L 460.8 236.274059 
" style="fill:none;stroke:#b0b0b0;stroke-linecap:square;stroke-width:0.8;"/>
     </g>
     <g id="line2d_12">
      <g>
       <use style="stroke:#000000;stroke-width:0.8;" x="0" xlink:href="#m8e4987b0fb" y="236.274059"/>
      </g>
     </g>
    </g>
    <g id="ytick_3">
     <g id="line2d_13">
      <path clip-path="url(#p28036830ad)" d="M 0 178.788119 
L 460.8 178.788119 
" style="fill:none;stroke:#b0b0b0;stroke-linecap:square;stroke-width:0.8;"/>
     </g>
     <g id="line2d_14">
      <g>
       <use style="stroke:#000000;stroke-width:0.8;" x="0" xlink:href="#m8e4987b0fb" y="178.788119"/>
      </g>
     </g>
    </g>
    <g id="ytick_4">
     <g id="line2d_15">
      <path clip-path="url(#p28036830ad)" d="M 0 121.302178 
L 460.8 121.302178 
" style="fill:none;stroke:#b0b0b0;stroke-linecap:square;stroke-width:0.8;"/>
     </g>
     <g id="line2d_16">
      <g>
       <use style="stroke:#000000;stroke-width:0.8;" x="0" xlink:href="#m8e4987b0fb" y="121.302178"/>
      </g>
     </g>
    </g>
    <g id="ytick_5">
     <g id="line2d_17">
      <path clip-path="url(#p28036830ad)" d="M 0 63.816238 
L 460.8 63.816238 
" style="fill:none;stroke:#b0b0b0;stroke-linecap:square;stroke-width:0.8;"/>
     </g>
     <g id="line2d_18">
      <g>
       <use style="stroke:#000000;stroke-width:0.8;" x="0" xlink:href="#m8e4987b0fb" y="63.816238"/>
      </g>
     </g>
    </g>
    <g id="ytick_6">
     <g id="line2d_19">
      <path clip-path="url(#p28036830ad)" d="M 0 6.330297 
L 460.8 6.330297 
" style="fill:none;stroke:#b0b0b0;stroke-linecap:square;stroke-width:0.8;"/>
     </g>
     <g id="line2d_20">
      <g>
       <use style="stroke:#000000;stroke-width:0.8;" x="0" xlink:href="#m8e4987b0fb" y="6.330297"/>
      </g>
     </g>
    </g>
   </g>
   <g id="line2d_21">
    <path clip-path="url(#p28036830ad)" d="M 200.363774 293.76 
L 200.363774 289.927604 
L 201.5696 289.927604 
L 201.5696 286.095208 
L 208.835807 286.095208 
L 208.835807 282.262812 
L 209.962452 282.262812 
L 209.962452 278.430416 
L 212.509424 278.430416 
L 212.509424 274.59802 
L 213.296909 274.59802 
L 213.296909 270.765624 
L 214.931971 270.765624 
L 214.931971 266.933228 
L 216.531588 266.933228 
L 216.531588 263.100832 
L 217.257937 263.100832 
L 217.257937 259.268436 
L 217.706189 259.268436 
L 217.706189 255.43604 
L 220.358241 255.43604 
L 220.358241 251.603644 
L 221.500688 251.603644 
L 221.500688 247.771248 
L 222.247475 247.771248 
L 222.247475 243.938851 
L 223.504114 243.938851 
L 223.504114 240.106455 
L 227.96839 240.106455 
L 227.96839 236.274059 
L 238.799513 236.274059 
L 238.799513 232.441663 
L 240.87466 232.441663 
L 240.87466 228.609267 
L 245.354018 228.609267 
L 245.354018 224.776871 
L 246.92693 224.776871 
L 246.92693 220.944475 
L 248.585029 220.944475 
L 248.585029 217.112079 
L 250.164059 217.112079 
L 250.212726 209.447287 
L 254.248838 209.447287 
L 254.248838 205.614891 
L 255.96584 205.614891 
L 255.96584 201.782495 
L 256.31258 201.782495 
L 256.31258 197.950099 
L 258.594973 197.950099 
L 258.594973 194.117703 
L 260.011899 194.117703 
L 260.012207 186.452911 
L 260.579593 186.452911 
L 260.579593 182.620515 
L 262.550796 182.620515 
L 262.550796 178.788119 
L 264.071605 178.788119 
L 264.071605 174.955723 
L 264.839166 174.955723 
L 264.839166 171.123327 
L 266.709324 171.123327 
L 266.709324 167.290931 
L 271.494734 167.290931 
L 271.494734 163.458535 
L 272.087124 163.458535 
L 272.087124 159.626139 
L 273.681383 159.626139 
L 273.681383 155.793743 
L 273.832845 155.793743 
L 273.832845 151.961347 
L 274.053829 151.961347 
L 274.053829 148.12895 
L 275.62344 148.12895 
L 275.62344 144.296554 
L 275.800331 144.296554 
L 275.907767 136.631762 
L 276.676911 136.631762 
L 276.676911 132.799366 
L 281.185463 132.799366 
L 281.185463 128.96697 
L 281.96999 128.96697 
L 281.96999 125.134574 
L 284.205384 125.134574 
L 284.205384 121.302178 
L 286.280341 121.302178 
L 286.280341 117.469782 
L 296.789176 117.469782 
L 296.789176 113.637386 
L 303.709459 113.637386 
L 303.709459 109.80499 
L 304.300683 109.80499 
L 304.300683 105.972594 
L 304.496317 105.972594 
L 304.496317 102.140198 
L 309.203164 102.140198 
L 309.203164 98.307802 
L 313.203831 98.307802 
L 313.203831 94.475406 
L 314.312514 94.475406 
L 314.312514 90.64301 
L 319.681698 90.64301 
L 319.681698 86.810614 
L 323.623306 86.810614 
L 323.623306 82.978218 
L 323.947341 82.978218 
L 323.947341 79.145822 
L 325.611493 79.145822 
L 325.611493 75.313426 
L 331.586976 75.313426 
L 331.586976 71.48103 
L 334.357635 71.48103 
L 334.357635 67.648634 
L 340.591769 67.648634 
L 340.591769 63.816238 
L 342.504724 63.816238 
L 342.504724 59.983842 
L 347.819622 59.983842 
L 347.819622 56.151446 
L 350.231074 56.151446 
L 350.231074 52.31905 
L 356.187287 52.31905 
L 356.187287 48.486653 
L 357.167539 48.486653 
L 357.167539 44.654257 
L 362.774382 44.654257 
L 362.774382 40.821861 
L 365.531187 40.821861 
L 365.531187 36.989465 
L 370.932882 36.989465 
L 370.932882 33.157069 
L 373.889395 33.157069 
L 373.889395 29.324673 
L 374.617813 29.324673 
L 374.617813 25.492277 
L 375.422297 25.492277 
L 375.422297 21.659881 
L 379.745977 21.659881 
L 379.745977 17.827485 
L 381.504877 17.827485 
L 381.504877 13.995089 
L 390.022062 13.995089 
L 390.022062 10.162693 
L 393.964117 10.162693 
L 393.964117 6.330297 
L 393.964117 6.330297 
L 460.8 6.330297 
L 460.8 6.330297 
" style="fill:none;stroke:#ff0000;stroke-linecap:square;stroke-width:3;"/>
   </g>
   <g id="line2d_22">
    <path clip-path="url(#p28036830ad)" d="M 236.561426 293.76 
L 236.561426 289.927604 
L 236.73403 289.927604 
L 236.73403 286.095208 
L 237.10246 286.095208 
L 237.10246 282.262812 
L 241.00237 282.262812 
L 241.00237 278.430416 
L 243.396792 278.430416 
L 243.396792 274.59802 
L 243.809672 274.59802 
L 243.809672 270.765624 
L 246.954519 270.765624 
L 246.954519 266.933228 
L 249.283131 266.933228 
L 249.283131 263.100832 
L 249.773223 263.100832 
L 249.773223 259.268436 
L 250.803984 259.268436 
L 250.896113 251.603644 
L 255.043114 251.603644 
L 255.043114 247.771248 
L 258.106266 247.771248 
L 258.106266 243.938851 
L 261.919944 243.938851 
L 261.919944 240.106455 
L 263.710489 240.106455 
L 263.710489 236.274059 
L 278.698806 236.274059 
L 278.698806 232.441663 
L 281.239788 232.441663 
L 281.239788 228.609267 
L 285.428771 228.609267 
L 285.428771 224.776871 
L 286.366605 224.776871 
L 286.366605 220.944475 
L 286.809802 220.944475 
L 286.809802 217.112079 
L 287.463293 217.112079 
L 287.463293 213.279683 
L 287.951561 213.279683 
L 287.951561 209.447287 
L 288.605069 209.447287 
L 288.605069 205.614891 
L 288.729398 205.614891 
L 288.729398 201.782495 
L 290.512509 201.782495 
L 290.512509 197.950099 
L 290.864199 197.950099 
L 290.864199 194.117703 
L 293.122765 194.117703 
L 293.122765 190.285307 
L 294.036293 190.285307 
L 294.036293 186.452911 
L 296.394103 186.452911 
L 296.394103 182.620515 
L 299.325354 182.620515 
L 299.325354 178.788119 
L 332.439158 178.788119 
L 332.439158 174.955723 
L 335.206156 174.955723 
L 335.21345 167.290931 
L 344.494619 167.290931 
L 344.494619 163.458535 
L 345.397142 163.458535 
L 345.397142 159.626139 
L 351.984933 159.626139 
L 351.984933 155.793743 
L 354.851246 155.793743 
L 354.851246 151.961347 
L 358.525309 151.961347 
L 358.525309 148.12895 
L 360.945759 148.12895 
L 360.945759 144.296554 
L 361.469689 144.296554 
L 361.549236 136.631762 
L 362.311645 136.631762 
L 362.311645 132.799366 
L 367.094284 132.799366 
L 367.094284 128.96697 
L 367.492045 128.96697 
L 367.504682 121.302178 
L 369.251279 121.302178 
L 369.251279 117.469782 
L 373.964791 117.469782 
L 373.964791 113.637386 
L 375.534724 113.637386 
L 375.534724 109.80499 
L 378.002153 109.80499 
L 378.002153 105.972594 
L 379.900767 105.972594 
L 379.900767 102.140198 
L 383.651438 102.140198 
L 383.651438 98.307802 
L 386.500917 98.307802 
L 386.500917 94.475406 
L 387.370613 94.475406 
L 387.370613 90.64301 
L 388.635624 90.64301 
L 388.635624 86.810614 
L 390.181703 86.810614 
L 390.181703 82.978218 
L 390.898042 82.978218 
L 390.898042 79.145822 
L 395.115315 79.145822 
L 395.115315 75.313426 
L 395.260546 75.313426 
L 395.260546 71.48103 
L 395.768408 71.48103 
L 395.768408 67.648634 
L 398.737176 67.648634 
L 398.737176 63.816238 
L 400.602628 63.816238 
L 400.602628 59.983842 
L 402.320951 59.983842 
L 402.320951 56.151446 
L 404.534533 56.151446 
L 404.534533 52.31905 
L 405.171001 52.31905 
L 405.171001 48.486653 
L 406.091965 48.486653 
L 406.18605 40.821861 
L 406.982128 40.821861 
L 406.982128 36.989465 
L 412.60074 36.989465 
L 412.60074 33.157069 
L 413.374875 33.157069 
L 413.374875 29.324673 
L 417.055168 29.324673 
L 417.055168 25.492277 
L 417.599242 25.492277 
L 417.599242 21.659881 
L 422.075674 21.659881 
L 422.075674 17.827485 
L 428.863629 17.827485 
L 428.863629 13.995089 
L 439.507638 13.995089 
L 439.507638 10.162693 
L 447.12002 10.162693 
L 447.12002 6.330297 
L 447.12002 6.330297 
L 460.8 6.330297 
L 460.8 6.330297 
" style="fill:none;stroke:#00bfbf;stroke-linecap:square;stroke-width:1.5;"/>
   </g>
   <g id="line2d_23">
    <path clip-path="url(#p28036830ad)" d="M 222.870815 293.76 
L 222.870815 289.927604 
L 223.59495 289.927604 
L 223.59495 286.095208 
L 231.198793 286.095208 
L 231.198793 282.262812 
L 232.726018 282.262812 
L 232.726018 278.430416 
L 234.367559 278.430416 
L 234.367559 274.59802 
L 235.051554 274.59802 
L 235.051554 270.765624 
L 236.801561 270.765624 
L 236.801561 266.933228 
L 241.690713 266.933228 
L 241.690713 263.100832 
L 243.396792 263.100832 
L 243.396792 259.268436 
L 243.520617 259.268436 
L 243.614883 251.603644 
L 243.809672 251.603644 
L 243.809672 247.771248 
L 247.719825 247.771248 
L 247.719825 243.938851 
L 250.803984 243.938851 
L 250.803984 240.106455 
L 257.494216 240.106455 
L 257.494216 236.274059 
L 275.896568 236.274059 
L 275.896568 232.441663 
L 278.698806 232.441663 
L 278.698806 228.609267 
L 281.239788 228.609267 
L 281.239788 224.776871 
L 282.456644 224.776871 
L 282.53469 217.112079 
L 282.982082 217.112079 
L 282.982082 213.279683 
L 284.25154 213.279683 
L 284.25154 209.447287 
L 285.305452 209.447287 
L 285.305452 205.614891 
L 285.430464 205.614891 
L 285.430464 201.782495 
L 286.044199 201.782495 
L 286.044199 197.950099 
L 286.366605 197.950099 
L 286.444653 190.285307 
L 286.502726 190.285307 
L 286.502726 186.452911 
L 286.777016 186.452911 
L 286.777016 182.620515 
L 288.479483 182.620515 
L 288.479483 178.788119 
L 295.77874 178.788119 
L 295.77874 174.955723 
L 303.779838 174.955723 
L 303.779838 171.123327 
L 305.874182 171.123327 
L 305.874182 167.290931 
L 318.944652 167.290931 
L 318.944652 163.458535 
L 324.369755 163.458535 
L 324.369755 159.626139 
L 332.439158 159.626139 
L 332.439158 155.793743 
L 335.21345 155.793743 
L 335.21345 151.961347 
L 339.155704 151.961347 
L 339.155704 148.12895 
L 342.769173 148.12895 
L 342.769173 144.296554 
L 344.494619 144.296554 
L 344.494619 140.464158 
L 344.965254 140.464158 
L 344.965254 136.631762 
L 345.397142 136.631762 
L 345.397142 132.799366 
L 347.77159 132.799366 
L 347.77159 128.96697 
L 349.329732 128.96697 
L 349.329732 125.134574 
L 350.110452 125.134574 
L 350.110452 121.302178 
L 351.984933 121.302178 
L 351.984933 117.469782 
L 354.851246 117.469782 
L 354.851246 113.637386 
L 355.25315 113.637386 
L 355.25315 109.80499 
L 356.406513 109.80499 
L 356.406513 105.972594 
L 357.66454 105.972594 
L 357.696195 98.307802 
L 363.31011 98.307802 
L 363.31011 94.475406 
L 367.094284 94.475406 
L 367.094284 90.64301 
L 367.492045 90.64301 
L 367.492045 86.810614 
L 368.814314 86.810614 
L 368.814314 82.978218 
L 370.248397 82.978218 
L 370.248397 79.145822 
L 372.375018 79.145822 
L 372.375018 75.313426 
L 373.964791 75.313426 
L 373.964791 71.48103 
L 382.041841 71.48103 
L 382.041841 67.648634 
L 386.774397 67.648634 
L 386.774397 63.816238 
L 390.181703 63.816238 
L 390.181703 59.983842 
L 394.226233 59.983842 
L 394.226233 56.151446 
L 398.266705 56.151446 
L 398.340757 48.486653 
L 399.322038 48.486653 
L 399.322038 44.654257 
L 399.548322 44.654257 
L 399.548322 40.821861 
L 401.33881 40.821861 
L 401.33881 36.989465 
L 401.720535 36.989465 
L 401.720535 33.157069 
L 405.035839 33.157069 
L 405.035839 29.324673 
L 405.420529 29.324673 
L 405.420529 25.492277 
L 405.71328 25.492277 
L 405.71328 21.659881 
L 406.982128 21.659881 
L 406.982128 17.827485 
L 412.18498 17.827485 
L 412.18498 13.995089 
L 413.374875 13.995089 
L 413.374875 10.162693 
L 415.209585 10.162693 
L 415.209585 6.330297 
L 415.209585 6.330297 
L 460.8 6.330297 
L 460.8 6.330297 
" style="fill:none;stroke:#bf00bf;stroke-linecap:square;stroke-width:1.5;"/>
   </g>
   <g id="line2d_24">
    <path clip-path="url(#p28036830ad)" d="M 222.870815 293.76 
L 222.870815 289.927604 
L 223.59495 289.927604 
L 223.59495 286.095208 
L 223.727358 286.095208 
L 223.727358 282.262812 
L 228.552058 282.262812 
L 228.552058 278.430416 
L 229.984282 278.430416 
L 229.984282 274.59802 
L 231.198793 274.59802 
L 231.198793 270.765624 
L 232.570943 270.765624 
L 232.570943 266.933228 
L 232.726018 266.933228 
L 232.726018 263.100832 
L 233.983809 263.100832 
L 233.983809 259.268436 
L 235.051554 259.268436 
L 235.051554 255.43604 
L 235.536218 255.43604 
L 235.536218 251.603644 
L 236.355378 251.603644 
L 236.355378 247.771248 
L 239.300148 247.771248 
L 239.300148 243.938851 
L 243.131105 243.938851 
L 243.131105 240.106455 
L 243.520617 240.106455 
L 243.520617 236.274059 
L 265.616711 236.274059 
L 265.616711 232.441663 
L 271.957548 232.441663 
L 271.957548 228.609267 
L 273.262411 228.609267 
L 273.262411 224.776871 
L 275.896568 224.776871 
L 275.896568 220.944475 
L 278.698806 220.944475 
L 278.698806 217.112079 
L 278.901073 217.112079 
L 278.901073 213.279683 
L 279.069242 213.279683 
L 279.069242 209.447287 
L 279.921512 209.447287 
L 279.921512 205.614891 
L 280.739897 205.614891 
L 280.739897 201.782495 
L 281.012681 201.782495 
L 281.012681 197.950099 
L 281.239788 197.950099 
L 281.239788 194.117703 
L 282.53469 194.117703 
L 282.53469 190.285307 
L 283.530991 190.285307 
L 283.530991 186.452911 
L 285.316607 186.452911 
L 285.316607 182.620515 
L 286.366605 182.620515 
L 286.444653 174.955723 
L 286.502726 174.955723 
L 286.502726 171.123327 
L 288.479483 171.123327 
L 288.479483 167.290931 
L 299.129002 167.290931 
L 299.129002 163.458535 
L 303.779838 163.458535 
L 303.779838 159.626139 
L 305.874182 159.626139 
L 305.874182 155.793743 
L 315.215553 155.793743 
L 315.215553 151.961347 
L 318.944652 151.961347 
L 318.944652 148.12895 
L 319.805534 148.12895 
L 319.805534 144.296554 
L 320.466794 144.296554 
L 320.466794 140.464158 
L 324.369755 140.464158 
L 324.369755 136.631762 
L 332.133495 136.631762 
L 332.133495 132.799366 
L 339.155704 132.799366 
L 339.155704 128.96697 
L 339.999668 128.96697 
L 339.999668 125.134574 
L 342.504724 125.134574 
L 342.504724 121.302178 
L 344.494619 121.302178 
L 344.604676 113.637386 
L 344.965254 113.637386 
L 344.965254 109.80499 
L 347.111281 109.80499 
L 347.111281 105.972594 
L 347.77159 105.972594 
L 347.77159 102.140198 
L 349.329732 102.140198 
L 349.329732 98.307802 
L 351.041302 98.307802 
L 351.041302 94.475406 
L 352.008029 94.475406 
L 352.008029 90.64301 
L 354.851246 90.64301 
L 354.851246 86.810614 
L 355.25315 86.810614 
L 355.25315 82.978218 
L 356.406513 82.978218 
L 356.406513 79.145822 
L 356.955842 79.145822 
L 356.955842 75.313426 
L 360.607284 75.313426 
L 360.607284 71.48103 
L 361.042961 71.48103 
L 361.042961 67.648634 
L 370.248397 67.648634 
L 370.248397 63.816238 
L 385.828516 63.816238 
L 385.828516 59.983842 
L 388.393641 59.983842 
L 388.393641 56.151446 
L 390.181703 56.151446 
L 390.181703 52.31905 
L 390.79017 52.31905 
L 390.79017 48.486653 
L 392.940363 48.486653 
L 392.940363 44.654257 
L 394.226233 44.654257 
L 394.226233 40.821861 
L 395.355417 40.821861 
L 395.355417 36.989465 
L 398.266705 36.989465 
L 398.340757 29.324673 
L 400.610159 29.324673 
L 400.610159 25.492277 
L 401.33881 25.492277 
L 401.33881 21.659881 
L 402.099604 21.659881 
L 402.099604 17.827485 
L 403.122263 17.827485 
L 403.122263 13.995089 
L 404.11997 13.995089 
L 404.11997 10.162693 
L 405.035839 10.162693 
L 405.035839 6.330297 
L 405.035839 6.330297 
L 460.8 6.330297 
L 460.8 6.330297 
" style="fill:none;stroke:#000000;stroke-linecap:square;stroke-width:1.5;"/>
   </g>
   <g id="line2d_25">
    <path clip-path="url(#p28036830ad)" d="M 216.431437 293.76 
L 216.431437 289.927604 
L 222.446133 289.927604 
L 222.446133 286.095208 
L 222.870815 286.095208 
L 222.870815 282.262812 
L 223.544849 282.262812 
L 223.585696 274.59802 
L 223.727358 274.59802 
L 223.727358 270.765624 
L 224.27899 270.765624 
L 224.27899 266.933228 
L 224.480314 266.933228 
L 224.480314 263.100832 
L 225.558262 263.100832 
L 225.558262 259.268436 
L 227.105317 259.268436 
L 227.105317 255.43604 
L 227.718034 255.43604 
L 227.718034 251.603644 
L 230.81018 251.603644 
L 230.81018 247.771248 
L 231.878325 247.771248 
L 231.878325 243.938851 
L 233.983809 243.938851 
L 233.983809 240.106455 
L 235.536218 240.106455 
L 235.536218 236.274059 
L 265.616711 236.274059 
L 265.616711 232.441663 
L 271.627776 232.441663 
L 271.627776 228.609267 
L 271.957548 228.609267 
L 271.957548 224.776871 
L 272.151447 224.776871 
L 272.151447 220.944475 
L 273.262411 220.944475 
L 273.262411 217.112079 
L 273.816853 217.112079 
L 273.816853 213.279683 
L 274.801918 213.279683 
L 274.801918 209.447287 
L 277.834262 209.447287 
L 277.834262 205.614891 
L 277.989699 205.614891 
L 277.989699 201.782495 
L 278.222938 201.782495 
L 278.286045 194.117703 
L 278.523499 194.117703 
L 278.523499 190.285307 
L 279.069242 190.285307 
L 279.069242 186.452911 
L 279.921512 186.452911 
L 279.921512 182.620515 
L 280.611175 182.620515 
L 280.611175 178.788119 
L 281.239788 178.788119 
L 281.239788 174.955723 
L 282.707389 174.955723 
L 282.707389 171.123327 
L 283.107493 171.123327 
L 283.107493 167.290931 
L 283.530991 167.290931 
L 283.530991 163.458535 
L 288.479483 163.458535 
L 288.479483 159.626139 
L 290.793836 159.626139 
L 290.793836 155.793743 
L 294.581109 155.793743 
L 294.581109 151.961347 
L 302.000842 151.961347 
L 302.000842 148.12895 
L 303.779838 148.12895 
L 303.779838 144.296554 
L 313.203831 144.296554 
L 313.203831 140.464158 
L 314.645643 140.464158 
L 314.645643 136.631762 
L 315.215553 136.631762 
L 315.215553 132.799366 
L 318.944652 132.799366 
L 318.944652 128.96697 
L 319.579334 128.96697 
L 319.579334 125.134574 
L 319.805534 125.134574 
L 319.805534 121.302178 
L 325.122847 121.302178 
L 325.122847 117.469782 
L 329.910791 117.469782 
L 329.910791 113.637386 
L 331.892852 113.637386 
L 331.892852 109.80499 
L 332.133495 109.80499 
L 332.133495 105.972594 
L 333.059927 105.972594 
L 333.059927 102.140198 
L 333.935241 102.140198 
L 333.935241 98.307802 
L 341.160968 98.307802 
L 341.160968 94.475406 
L 342.504724 94.475406 
L 342.512843 86.810614 
L 343.826606 86.810614 
L 343.826606 82.978218 
L 344.604676 82.978218 
L 344.604676 79.145822 
L 344.965254 79.145822 
L 344.965254 75.313426 
L 347.191201 75.313426 
L 347.191201 71.48103 
L 348.911326 71.48103 
L 348.911326 67.648634 
L 355.25315 67.648634 
L 355.25315 63.816238 
L 375.377877 63.816238 
L 375.377877 59.983842 
L 377.957936 59.983842 
L 377.957936 56.151446 
L 380.944603 56.151446 
L 380.944603 52.31905 
L 381.423461 52.31905 
L 381.423461 48.486653 
L 382.418691 48.486653 
L 382.418691 44.654257 
L 385.312902 44.654257 
L 385.312902 40.821861 
L 385.828516 40.821861 
L 385.828516 36.989465 
L 388.393641 36.989465 
L 388.393641 33.157069 
L 389.237651 33.157069 
L 389.237651 29.324673 
L 390.034728 29.324673 
L 390.034728 25.492277 
L 390.583305 25.492277 
L 390.583305 21.659881 
L 392.202181 21.659881 
L 392.202181 17.827485 
L 395.355417 17.827485 
L 395.355417 13.995089 
L 398.340757 13.995089 
L 398.340757 10.162693 
L 399.96338 10.162693 
L 399.96338 6.330297 
L 399.96338 6.330297 
L 460.8 6.330297 
L 460.8 6.330297 
" style="fill:none;stroke:#00bfbf;stroke-linecap:square;stroke-width:1.5;"/>
   </g>
   <g id="line2d_26">
    <path clip-path="url(#p28036830ad)" d="M 200.383348 293.76 
L 200.383348 289.927604 
L 201.57955 289.927604 
L 201.57955 286.095208 
L 208.835807 286.095208 
L 208.835807 282.262812 
L 212.868034 282.262812 
L 212.868034 278.430416 
L 213.296909 278.430416 
L 213.296909 274.59802 
L 213.622521 274.59802 
L 213.622521 270.765624 
L 214.967637 270.765624 
L 214.967637 266.933228 
L 216.531588 266.933228 
L 216.531588 263.100832 
L 217.257937 263.100832 
L 217.257937 259.268436 
L 218.503312 259.268436 
L 218.503312 255.43604 
L 221.054286 255.43604 
L 221.054286 251.603644 
L 221.500688 251.603644 
L 221.500688 247.771248 
L 222.247475 247.771248 
L 222.247475 243.938851 
L 223.515338 243.938851 
L 223.515338 240.106455 
L 228.023191 240.106455 
L 228.023191 236.274059 
L 238.799513 236.274059 
L 238.799513 232.441663 
L 240.87466 232.441663 
L 240.87466 228.609267 
L 245.354018 228.609267 
L 245.354018 224.776871 
L 246.92693 224.776871 
L 246.92693 220.944475 
L 248.585029 220.944475 
L 248.585029 217.112079 
L 250.212726 217.112079 
L 250.320322 209.447287 
L 254.248838 209.447287 
L 254.248838 205.614891 
L 256.31258 205.614891 
L 256.31258 201.782495 
L 258.594973 201.782495 
L 258.594973 197.950099 
L 260.012207 197.950099 
L 260.012207 194.117703 
L 260.579593 194.117703 
L 260.579593 190.285307 
L 262.550796 190.285307 
L 262.550796 186.452911 
L 265.131151 186.452911 
L 265.131151 182.620515 
L 265.457024 182.620515 
L 265.457024 178.788119 
L 266.529327 178.788119 
L 266.529327 174.955723 
L 266.71773 174.955723 
L 266.71773 171.123327 
L 271.494734 171.123327 
L 271.494734 167.290931 
L 272.087124 167.290931 
L 272.087124 163.458535 
L 273.681383 163.458535 
L 273.681383 159.626139 
L 273.865641 159.626139 
L 273.865641 155.793743 
L 274.053829 155.793743 
L 274.053829 151.961347 
L 275.800331 151.961347 
L 275.907767 140.464158 
L 276.397803 140.464158 
L 276.397803 136.631762 
L 276.676911 136.631762 
L 276.676911 132.799366 
L 281.185463 132.799366 
L 281.185463 128.96697 
L 282.026184 128.96697 
L 282.026184 125.134574 
L 284.205384 125.134574 
L 284.205384 121.302178 
L 286.280341 121.302178 
L 286.280341 117.469782 
L 296.789176 117.469782 
L 296.789176 113.637386 
L 304.300683 113.637386 
L 304.300683 109.80499 
L 304.496317 109.80499 
L 304.496317 105.972594 
L 309.281087 105.972594 
L 309.281087 102.140198 
L 310.457507 102.140198 
L 310.457507 98.307802 
L 313.203831 98.307802 
L 313.203831 94.475406 
L 314.312514 94.475406 
L 314.312514 90.64301 
L 319.681698 90.64301 
L 319.681698 86.810614 
L 323.623306 86.810614 
L 323.623306 82.978218 
L 324.505828 82.978218 
L 324.505828 79.145822 
L 325.611493 79.145822 
L 325.611493 75.313426 
L 331.586976 75.313426 
L 331.586976 71.48103 
L 334.357635 71.48103 
L 334.357635 67.648634 
L 340.591769 67.648634 
L 340.591769 63.816238 
L 342.504724 63.816238 
L 342.504724 59.983842 
L 349.053917 59.983842 
L 349.053917 56.151446 
L 350.231074 56.151446 
L 350.231074 52.31905 
L 356.187287 52.31905 
L 356.187287 48.486653 
L 357.167539 48.486653 
L 357.167539 44.654257 
L 362.774382 44.654257 
L 362.774382 40.821861 
L 365.531187 40.821861 
L 365.531187 36.989465 
L 370.932882 36.989465 
L 370.932882 33.157069 
L 374.896412 33.157069 
L 374.896412 29.324673 
L 375.105129 29.324673 
L 375.105129 25.492277 
L 375.422297 25.492277 
L 375.422297 21.659881 
L 379.776638 21.659881 
L 379.776638 17.827485 
L 381.504877 17.827485 
L 381.504877 13.995089 
L 390.60906 13.995089 
L 390.60906 10.162693 
L 393.964117 10.162693 
L 393.964117 6.330297 
L 393.964117 6.330297 
L 460.8 6.330297 
L 460.8 6.330297 
" style="fill:none;stroke:#bf00bf;stroke-linecap:square;stroke-width:1.5;"/>
   </g>
   <g id="patch_3">
    <path d="M 0 293.76 
L 0 3.456 
" style="fill:none;stroke:#000000;stroke-linecap:square;stroke-linejoin:miter;stroke-width:0.8;"/>
   </g>
   <g id="patch_4">
    <path d="M 460.8 293.76 
L 460.8 3.456 
" style="fill:none;stroke:#000000;stroke-linecap:square;stroke-linejoin:miter;stroke-width:0.8;"/>
   </g>
   <g id="patch_5">
    <path d="M 0 293.76 
L 460.8 293.76 
" style="fill:none;stroke:#000000;stroke-linecap:square;stroke-linejoin:miter;stroke-width:0.8;"/>
   </g>
   <g id="patch_6">
    <path d="M 0 3.456 
L 460.8 3.456 
" style="fill:none;stroke:#000000;stroke-linecap:square;stroke-linejoin:miter;stroke-width:0.8;"/>
   </g>
   <g id="text_6">
    <!-- {f10-f14}, 5-D -->
    <defs>
     <path d="M 51.125 -9.28125 
L 51.125 -16.3125 
L 48.09375 -16.3125 
Q 35.9375 -16.3125 31.8125 -12.6875 
Q 27.6875 -9.078125 27.6875 1.703125 
L 27.6875 13.375 
Q 27.6875 20.75 25.046875 23.578125 
Q 22.40625 26.421875 15.484375 26.421875 
L 12.5 26.421875 
L 12.5 33.40625 
L 15.484375 33.40625 
Q 22.46875 33.40625 25.078125 36.203125 
Q 27.6875 39.015625 27.6875 46.296875 
L 27.6875 58.015625 
Q 27.6875 68.796875 31.8125 72.390625 
Q 35.9375 75.984375 48.09375 75.984375 
L 51.125 75.984375 
L 51.125 69 
L 47.796875 69 
Q 40.921875 69 38.8125 66.84375 
Q 36.71875 64.703125 36.71875 57.8125 
L 36.71875 45.703125 
Q 36.71875 38.03125 34.5 34.5625 
Q 32.28125 31.109375 26.90625 29.890625 
Q 32.328125 28.5625 34.515625 25.09375 
Q 36.71875 21.625 36.71875 14.015625 
L 36.71875 1.90625 
Q 36.71875 -4.984375 38.8125 -7.125 
Q 40.921875 -9.28125 47.796875 -9.28125 
z
" id="DejaVuSans-123"/>
     <path d="M 12.5 -9.28125 
L 15.921875 -9.28125 
Q 22.75 -9.28125 24.828125 -7.171875 
Q 26.90625 -5.078125 26.90625 1.90625 
L 26.90625 14.015625 
Q 26.90625 21.625 29.09375 25.09375 
Q 31.296875 28.5625 36.71875 29.890625 
Q 31.296875 31.109375 29.09375 34.5625 
Q 26.90625 38.03125 26.90625 45.703125 
L 26.90625 57.8125 
Q 26.90625 64.75 24.828125 66.875 
Q 22.75 69 15.921875 69 
L 12.5 69 
L 12.5 75.984375 
L 15.578125 75.984375 
Q 27.734375 75.984375 31.8125 72.390625 
Q 35.890625 68.796875 35.890625 58.015625 
L 35.890625 46.296875 
Q 35.890625 39.015625 38.515625 36.203125 
Q 41.15625 33.40625 48.09375 33.40625 
L 51.125 33.40625 
L 51.125 26.421875 
L 48.09375 26.421875 
Q 41.15625 26.421875 38.515625 23.578125 
Q 35.890625 20.75 35.890625 13.375 
L 35.890625 1.703125 
Q 35.890625 -9.078125 31.8125 -12.6875 
Q 27.734375 -16.3125 15.578125 -16.3125 
L 12.5 -16.3125 
z
" id="DejaVuSans-125"/>
     <path d="M 11.71875 12.40625 
L 22.015625 12.40625 
L 22.015625 4 
L 14.015625 -11.625 
L 7.71875 -11.625 
L 11.71875 4 
z
" id="DejaVuSans-44"/>
     <path d="M 10.796875 72.90625 
L 49.515625 72.90625 
L 49.515625 64.59375 
L 19.828125 64.59375 
L 19.828125 46.734375 
Q 21.96875 47.46875 24.109375 47.828125 
Q 26.265625 48.1875 28.421875 48.1875 
Q 40.625 48.1875 47.75 41.5 
Q 54.890625 34.8125 54.890625 23.390625 
Q 54.890625 11.625 47.5625 5.09375 
Q 40.234375 -1.421875 26.90625 -1.421875 
Q 22.3125 -1.421875 17.546875 -0.640625 
Q 12.796875 0.140625 7.71875 1.703125 
L 7.71875 11.625 
Q 12.109375 9.234375 16.796875 8.0625 
Q 21.484375 6.890625 26.703125 6.890625 
Q 35.15625 6.890625 40.078125 11.328125 
Q 45.015625 15.765625 45.015625 23.390625 
Q 45.015625 31 40.078125 35.4375 
Q 35.15625 39.890625 26.703125 39.890625 
Q 22.75 39.890625 18.8125 39.015625 
Q 14.890625 38.140625 10.796875 36.28125 
z
" id="DejaVuSans-53"/>
    </defs>
    <g transform="translate(305.884 287.95392)scale(0.2 -0.2)">
     <use xlink:href="#DejaVuSans-123"/>
     <use x="63.623047" xlink:href="#DejaVuSans-102"/>
     <use x="98.828125" xlink:href="#DejaVuSans-49"/>
     <use x="162.451172" xlink:href="#DejaVuSans-48"/>
     <use x="226.074219" xlink:href="#DejaVuSans-45"/>
     <use x="262.158203" xlink:href="#DejaVuSans-102"/>
     <use x="297.363281" xlink:href="#DejaVuSans-49"/>
     <use x="360.986328" xlink:href="#DejaVuSans-52"/>
     <use x="424.609375" xlink:href="#DejaVuSans-125"/>
     <use x="488.232422" xlink:href="#DejaVuSans-44"/>
     <use x="520.019531" xlink:href="#DejaVuSans-32"/>
     <use x="551.806641" xlink:href="#DejaVuSans-53"/>
     <use x="615.429688" xlink:href="#DejaVuSans-45"/>
     <use x="651.513672" xlink:href="#DejaVuSans-68"/>
    </g>
   </g>
   <g id="text_7">
    <!-- v2.4 -->
    <defs>
     <path d="M 2.984375 54.6875 
L 12.5 54.6875 
L 29.59375 8.796875 
L 46.6875 54.6875 
L 56.203125 54.6875 
L 35.6875 0 
L 23.484375 0 
z
" id="DejaVuSans-118"/>
     <path d="M 19.1875 8.296875 
L 53.609375 8.296875 
L 53.609375 0 
L 7.328125 0 
L 7.328125 8.296875 
Q 12.9375 14.109375 22.625 23.890625 
Q 32.328125 33.6875 34.8125 36.53125 
Q 39.546875 41.84375 41.421875 45.53125 
Q 43.3125 49.21875 43.3125 52.78125 
Q 43.3125 58.59375 39.234375 62.25 
Q 35.15625 65.921875 28.609375 65.921875 
Q 23.96875 65.921875 18.8125 64.3125 
Q 13.671875 62.703125 7.8125 59.421875 
L 7.8125 69.390625 
Q 13.765625 71.78125 18.9375 73 
Q 24.125 74.21875 28.421875 74.21875 
Q 39.75 74.21875 46.484375 68.546875 
Q 53.21875 62.890625 53.21875 53.421875 
Q 53.21875 48.921875 51.53125 44.890625 
Q 49.859375 40.875 45.40625 35.40625 
Q 44.1875 33.984375 37.640625 27.21875 
Q 31.109375 20.453125 19.1875 8.296875 
z
" id="DejaVuSans-50"/>
     <path d="M 10.6875 12.40625 
L 21 12.40625 
L 21 0 
L 10.6875 0 
z
" id="DejaVuSans-46"/>
    </defs>
    <g style="fill:#808080;" transform="translate(219.489063 288.777272)scale(0.1 -0.1)">
     <use xlink:href="#DejaVuSans-118"/>
     <use x="59.179688" xlink:href="#DejaVuSans-50"/>
     <use x="122.802734" xlink:href="#DejaVuSans-46"/>
     <use x="154.589844" xlink:href="#DejaVuSans-52"/>
    </g>
   </g>
  </g>
 </g>
 <defs>
  <clipPath id="p28036830ad">
   <rect height="290.304" width="460.8" x="0" y="3.456"/>
  </clipPath>
 </defs>
</svg>
