<?xml version="1.0" encoding="utf-8" standalone="no"?>
<!DOCTYPE svg PUBLIC "-//W3C//DTD SVG 1.1//EN"
  "http://www.w3.org/Graphics/SVG/1.1/DTD/svg11.dtd">
<!-- Created with matplotlib (https://matplotlib.org/) -->
<svg height="345.6pt" version="1.1" viewBox="0 0 460.8 345.6" width="460.8pt" xmlns="http://www.w3.org/2000/svg" xmlns:xlink="http://www.w3.org/1999/xlink">
 <defs>
  <style type="text/css">
*{stroke-linecap:butt;stroke-linejoin:round;}
  </style>
 </defs>
 <g id="figure_1">
  <g id="patch_1">
   <path d="M 0 345.6 
L 460.8 345.6 
L 460.8 0 
L 0 0 
z
" style="fill:#ffffff;"/>
  </g>
  <g id="axes_1">
   <g id="patch_2">
    <path d="M 0 293.76 
L 460.8 293.76 
L 460.8 3.456 
L 0 3.456 
z
" style="fill:#ffffff;"/>
   </g>
   <g id="matplotlib.axis_1">
    <g id="xtick_1">
     <g id="line2d_1">
      <path clip-path="url(#p4a7d80d91a)" d="M 104.689986 293.76 
L 104.689986 3.456 
" style="fill:none;stroke:#b0b0b0;stroke-linecap:square;stroke-width:0.8;"/>
     </g>
     <g id="line2d_2">
      <defs>
       <path d="M 0 0 
L 0 3.5 
" id="m9a489ad0b8" style="stroke:#000000;stroke-width:0.8;"/>
      </defs>
      <g>
       <use style="stroke:#000000;stroke-width:0.8;" x="104.689986" xlink:href="#m9a489ad0b8" y="293.76"/>
      </g>
     </g>
     <g id="text_1">
      <!-- -4 -->
      <defs>
       <path d="M 4.890625 31.390625 
L 31.203125 31.390625 
L 31.203125 23.390625 
L 4.890625 23.390625 
z
" id="DejaVuSans-45"/>
       <path d="M 37.796875 64.3125 
L 12.890625 25.390625 
L 37.796875 25.390625 
z
M 35.203125 72.90625 
L 47.609375 72.90625 
L 47.609375 25.390625 
L 58.015625 25.390625 
L 58.015625 17.1875 
L 47.609375 17.1875 
L 47.609375 0 
L 37.796875 0 
L 37.796875 17.1875 
L 4.890625 17.1875 
L 4.890625 26.703125 
z
" id="DejaVuSans-52"/>
      </defs>
      <g transform="translate(94.719674 315.956875)scale(0.2 -0.2)">
       <use xlink:href="#DejaVuSans-45"/>
       <use x="36.083984" xlink:href="#DejaVuSans-52"/>
      </g>
     </g>
    </g>
    <g id="xtick_2">
     <g id="line2d_3">
      <path clip-path="url(#p4a7d80d91a)" d="M 209.493196 293.76 
L 209.493196 3.456 
" style="fill:none;stroke:#b0b0b0;stroke-linecap:square;stroke-width:0.8;"/>
     </g>
     <g id="line2d_4">
      <g>
       <use style="stroke:#000000;stroke-width:0.8;" x="209.493196" xlink:href="#m9a489ad0b8" y="293.76"/>
      </g>
     </g>
     <g id="text_2">
      <!-- 0 -->
      <defs>
       <path d="M 31.78125 66.40625 
Q 24.171875 66.40625 20.328125 58.90625 
Q 16.5 51.421875 16.5 36.375 
Q 16.5 21.390625 20.328125 13.890625 
Q 24.171875 6.390625 31.78125 6.390625 
Q 39.453125 6.390625 43.28125 13.890625 
Q 47.125 21.390625 47.125 36.375 
Q 47.125 51.421875 43.28125 58.90625 
Q 39.453125 66.40625 31.78125 66.40625 
z
M 31.78125 74.21875 
Q 44.046875 74.21875 50.515625 64.515625 
Q 56.984375 54.828125 56.984375 36.375 
Q 56.984375 17.96875 50.515625 8.265625 
Q 44.046875 -1.421875 31.78125 -1.421875 
Q 19.53125 -1.421875 13.0625 8.265625 
Q 6.59375 17.96875 6.59375 36.375 
Q 6.59375 54.828125 13.0625 64.515625 
Q 19.53125 74.21875 31.78125 74.21875 
z
" id="DejaVuSans-48"/>
      </defs>
      <g transform="translate(203.130696 315.956875)scale(0.2 -0.2)">
       <use xlink:href="#DejaVuSans-48"/>
      </g>
     </g>
    </g>
    <g id="xtick_3">
     <g id="line2d_5">
      <path clip-path="url(#p4a7d80d91a)" d="M 314.296406 293.76 
L 314.296406 3.456 
" style="fill:none;stroke:#b0b0b0;stroke-linecap:square;stroke-width:0.8;"/>
     </g>
     <g id="line2d_6">
      <g>
       <use style="stroke:#000000;stroke-width:0.8;" x="314.296406" xlink:href="#m9a489ad0b8" y="293.76"/>
      </g>
     </g>
     <g id="text_3">
      <!-- 4 -->
      <g transform="translate(307.933906 315.956875)scale(0.2 -0.2)">
       <use xlink:href="#DejaVuSans-52"/>
      </g>
     </g>
    </g>
    <g id="xtick_4">
     <g id="line2d_7">
      <path clip-path="url(#p4a7d80d91a)" d="M 419.099615 293.76 
L 419.099615 3.456 
" style="fill:none;stroke:#b0b0b0;stroke-linecap:square;stroke-width:0.8;"/>
     </g>
     <g id="line2d_8">
      <g>
       <use style="stroke:#000000;stroke-width:0.8;" x="419.099615" xlink:href="#m9a489ad0b8" y="293.76"/>
      </g>
     </g>
     <g id="text_4">
      <!-- 8 -->
      <defs>
       <path d="M 31.78125 34.625 
Q 24.75 34.625 20.71875 30.859375 
Q 16.703125 27.09375 16.703125 20.515625 
Q 16.703125 13.921875 20.71875 10.15625 
Q 24.75 6.390625 31.78125 6.390625 
Q 38.8125 6.390625 42.859375 10.171875 
Q 46.921875 13.96875 46.921875 20.515625 
Q 46.921875 27.09375 42.890625 30.859375 
Q 38.875 34.625 31.78125 34.625 
z
M 21.921875 38.8125 
Q 15.578125 40.375 12.03125 44.71875 
Q 8.5 49.078125 8.5 55.328125 
Q 8.5 64.0625 14.71875 69.140625 
Q 20.953125 74.21875 31.78125 74.21875 
Q 42.671875 74.21875 48.875 69.140625 
Q 55.078125 64.0625 55.078125 55.328125 
Q 55.078125 49.078125 51.53125 44.71875 
Q 48 40.375 41.703125 38.8125 
Q 48.828125 37.15625 52.796875 32.3125 
Q 56.78125 27.484375 56.78125 20.515625 
Q 56.78125 9.90625 50.3125 4.234375 
Q 43.84375 -1.421875 31.78125 -1.421875 
Q 19.734375 -1.421875 13.25 4.234375 
Q 6.78125 9.90625 6.78125 20.515625 
Q 6.78125 27.484375 10.78125 32.3125 
Q 14.796875 37.15625 21.921875 38.8125 
z
M 18.3125 54.390625 
Q 18.3125 48.734375 21.84375 45.5625 
Q 25.390625 42.390625 31.78125 42.390625 
Q 38.140625 42.390625 41.71875 45.5625 
Q 45.3125 48.734375 45.3125 54.390625 
Q 45.3125 60.0625 41.71875 63.234375 
Q 38.140625 66.40625 31.78125 66.40625 
Q 25.390625 66.40625 21.84375 63.234375 
Q 18.3125 60.0625 18.3125 54.390625 
z
" id="DejaVuSans-56"/>
      </defs>
      <g transform="translate(412.737115 315.956875)scale(0.2 -0.2)">
       <use xlink:href="#DejaVuSans-56"/>
      </g>
     </g>
    </g>
    <g id="text_5">
     <!-- log10 of Df -->
     <defs>
      <path d="M 9.421875 75.984375 
L 18.40625 75.984375 
L 18.40625 0 
L 9.421875 0 
z
" id="DejaVuSans-108"/>
      <path d="M 30.609375 48.390625 
Q 23.390625 48.390625 19.1875 42.75 
Q 14.984375 37.109375 14.984375 27.296875 
Q 14.984375 17.484375 19.15625 11.84375 
Q 23.34375 6.203125 30.609375 6.203125 
Q 37.796875 6.203125 41.984375 11.859375 
Q 46.1875 17.53125 46.1875 27.296875 
Q 46.1875 37.015625 41.984375 42.703125 
Q 37.796875 48.390625 30.609375 48.390625 
z
M 30.609375 56 
Q 42.328125 56 49.015625 48.375 
Q 55.71875 40.765625 55.71875 27.296875 
Q 55.71875 13.875 49.015625 6.21875 
Q 42.328125 -1.421875 30.609375 -1.421875 
Q 18.84375 -1.421875 12.171875 6.21875 
Q 5.515625 13.875 5.515625 27.296875 
Q 5.515625 40.765625 12.171875 48.375 
Q 18.84375 56 30.609375 56 
z
" id="DejaVuSans-111"/>
      <path d="M 45.40625 27.984375 
Q 45.40625 37.75 41.375 43.109375 
Q 37.359375 48.484375 30.078125 48.484375 
Q 22.859375 48.484375 18.828125 43.109375 
Q 14.796875 37.75 14.796875 27.984375 
Q 14.796875 18.265625 18.828125 12.890625 
Q 22.859375 7.515625 30.078125 7.515625 
Q 37.359375 7.515625 41.375 12.890625 
Q 45.40625 18.265625 45.40625 27.984375 
z
M 54.390625 6.78125 
Q 54.390625 -7.171875 48.1875 -13.984375 
Q 42 -20.796875 29.203125 -20.796875 
Q 24.46875 -20.796875 20.265625 -20.09375 
Q 16.0625 -19.390625 12.109375 -17.921875 
L 12.109375 -9.1875 
Q 16.0625 -11.328125 19.921875 -12.34375 
Q 23.78125 -13.375 27.78125 -13.375 
Q 36.625 -13.375 41.015625 -8.765625 
Q 45.40625 -4.15625 45.40625 5.171875 
L 45.40625 9.625 
Q 42.625 4.78125 38.28125 2.390625 
Q 33.9375 0 27.875 0 
Q 17.828125 0 11.671875 7.65625 
Q 5.515625 15.328125 5.515625 27.984375 
Q 5.515625 40.671875 11.671875 48.328125 
Q 17.828125 56 27.875 56 
Q 33.9375 56 38.28125 53.609375 
Q 42.625 51.21875 45.40625 46.390625 
L 45.40625 54.6875 
L 54.390625 54.6875 
z
" id="DejaVuSans-103"/>
      <path d="M 12.40625 8.296875 
L 28.515625 8.296875 
L 28.515625 63.921875 
L 10.984375 60.40625 
L 10.984375 69.390625 
L 28.421875 72.90625 
L 38.28125 72.90625 
L 38.28125 8.296875 
L 54.390625 8.296875 
L 54.390625 0 
L 12.40625 0 
z
" id="DejaVuSans-49"/>
      <path id="DejaVuSans-32"/>
      <path d="M 37.109375 75.984375 
L 37.109375 68.5 
L 28.515625 68.5 
Q 23.6875 68.5 21.796875 66.546875 
Q 19.921875 64.59375 19.921875 59.515625 
L 19.921875 54.6875 
L 34.71875 54.6875 
L 34.71875 47.703125 
L 19.921875 47.703125 
L 19.921875 0 
L 10.890625 0 
L 10.890625 47.703125 
L 2.296875 47.703125 
L 2.296875 54.6875 
L 10.890625 54.6875 
L 10.890625 58.5 
Q 10.890625 67.625 15.140625 71.796875 
Q 19.390625 75.984375 28.609375 75.984375 
z
" id="DejaVuSans-102"/>
      <path d="M 19.671875 64.796875 
L 19.671875 8.109375 
L 31.59375 8.109375 
Q 46.6875 8.109375 53.6875 14.9375 
Q 60.6875 21.78125 60.6875 36.53125 
Q 60.6875 51.171875 53.6875 57.984375 
Q 46.6875 64.796875 31.59375 64.796875 
z
M 9.8125 72.90625 
L 30.078125 72.90625 
Q 51.265625 72.90625 61.171875 64.09375 
Q 71.09375 55.28125 71.09375 36.53125 
Q 71.09375 17.671875 61.125 8.828125 
Q 51.171875 0 30.078125 0 
L 9.8125 0 
z
" id="DejaVuSans-68"/>
     </defs>
     <g transform="translate(175.214063 339.313125)scale(0.2 -0.2)">
      <use xlink:href="#DejaVuSans-108"/>
      <use x="27.783203" xlink:href="#DejaVuSans-111"/>
      <use x="88.964844" xlink:href="#DejaVuSans-103"/>
      <use x="152.441406" xlink:href="#DejaVuSans-49"/>
      <use x="216.064453" xlink:href="#DejaVuSans-48"/>
      <use x="279.6875" xlink:href="#DejaVuSans-32"/>
      <use x="311.474609" xlink:href="#DejaVuSans-111"/>
      <use x="372.65625" xlink:href="#DejaVuSans-102"/>
      <use x="407.861328" xlink:href="#DejaVuSans-32"/>
      <use x="439.648438" xlink:href="#DejaVuSans-68"/>
      <use x="516.650391" xlink:href="#DejaVuSans-102"/>
     </g>
    </g>
   </g>
   <g id="matplotlib.axis_2">
    <g id="ytick_1">
     <g id="line2d_9">
      <path clip-path="url(#p4a7d80d91a)" d="M 0 293.76 
L 460.8 293.76 
" style="fill:none;stroke:#b0b0b0;stroke-linecap:square;stroke-width:0.8;"/>
     </g>
     <g id="line2d_10">
      <defs>
       <path d="M 0 0 
L -3.5 0 
" id="m506766b6a2" style="stroke:#000000;stroke-width:0.8;"/>
      </defs>
      <g>
       <use style="stroke:#000000;stroke-width:0.8;" x="0" xlink:href="#m506766b6a2" y="293.76"/>
      </g>
     </g>
    </g>
    <g id="ytick_2">
     <g id="line2d_11">
      <path clip-path="url(#p4a7d80d91a)" d="M 0 236.274059 
L 460.8 236.274059 
" style="fill:none;stroke:#b0b0b0;stroke-linecap:square;stroke-width:0.8;"/>
     </g>
     <g id="line2d_12">
      <g>
       <use style="stroke:#000000;stroke-width:0.8;" x="0" xlink:href="#m506766b6a2" y="236.274059"/>
      </g>
     </g>
    </g>
    <g id="ytick_3">
     <g id="line2d_13">
      <path clip-path="url(#p4a7d80d91a)" d="M 0 178.788119 
L 460.8 178.788119 
" style="fill:none;stroke:#b0b0b0;stroke-linecap:square;stroke-width:0.8;"/>
     </g>
     <g id="line2d_14">
      <g>
       <use style="stroke:#000000;stroke-width:0.8;" x="0" xlink:href="#m506766b6a2" y="178.788119"/>
      </g>
     </g>
    </g>
    <g id="ytick_4">
     <g id="line2d_15">
      <path clip-path="url(#p4a7d80d91a)" d="M 0 121.302178 
L 460.8 121.302178 
" style="fill:none;stroke:#b0b0b0;stroke-linecap:square;stroke-width:0.8;"/>
     </g>
     <g id="line2d_16">
      <g>
       <use style="stroke:#000000;stroke-width:0.8;" x="0" xlink:href="#m506766b6a2" y="121.302178"/>
      </g>
     </g>
    </g>
    <g id="ytick_5">
     <g id="line2d_17">
      <path clip-path="url(#p4a7d80d91a)" d="M 0 63.816238 
L 460.8 63.816238 
" style="fill:none;stroke:#b0b0b0;stroke-linecap:square;stroke-width:0.8;"/>
     </g>
     <g id="line2d_18">
      <g>
       <use style="stroke:#000000;stroke-width:0.8;" x="0" xlink:href="#m506766b6a2" y="63.816238"/>
      </g>
     </g>
    </g>
    <g id="ytick_6">
     <g id="line2d_19">
      <path clip-path="url(#p4a7d80d91a)" d="M 0 6.330297 
L 460.8 6.330297 
" style="fill:none;stroke:#b0b0b0;stroke-linecap:square;stroke-width:0.8;"/>
     </g>
     <g id="line2d_20">
      <g>
       <use style="stroke:#000000;stroke-width:0.8;" x="0" xlink:href="#m506766b6a2" y="6.330297"/>
      </g>
     </g>
    </g>
   </g>
   <g id="line2d_21">
    <path clip-path="url(#p4a7d80d91a)" d="M 258.597827 293.76 
L 258.597827 288.969505 
L 261.286415 288.969505 
L 261.286415 284.17901 
L 263.611759 284.17901 
L 263.611759 279.388515 
L 266.605686 279.388515 
L 266.605686 274.59802 
L 268.83218 274.59802 
L 268.83218 269.807525 
L 269.560885 269.807525 
L 269.560885 265.01703 
L 270.338916 265.01703 
L 270.338916 260.226535 
L 270.998643 260.226535 
L 270.998643 255.43604 
L 273.046245 255.43604 
L 273.046245 250.645545 
L 275.988696 250.645545 
L 275.988696 245.85505 
L 276.092367 245.85505 
L 276.092367 241.064554 
L 277.609953 241.064554 
L 277.609953 236.274059 
L 280.610295 236.274059 
L 280.610295 231.483564 
L 281.111319 231.483564 
L 281.111319 226.693069 
L 283.067863 226.693069 
L 283.067863 221.902574 
L 283.07683 221.902574 
L 283.07683 217.112079 
L 283.130242 217.112079 
L 283.130242 212.321584 
L 283.234207 212.321584 
L 283.234207 207.531089 
L 286.135676 207.531089 
L 286.135676 202.740594 
L 287.668343 202.740594 
L 287.668343 197.950099 
L 289.302335 197.950099 
L 289.302335 193.159604 
L 289.872677 193.159604 
L 289.872677 188.369109 
L 290.229429 188.369109 
L 290.229429 183.578614 
L 290.824514 183.578614 
L 290.824514 178.788119 
L 291.812924 178.788119 
L 291.812924 173.997624 
L 295.381616 173.997624 
L 295.381616 169.207129 
L 297.61137 169.207129 
L 297.61137 164.416634 
L 298.238423 164.416634 
L 298.238423 159.626139 
L 301.388883 159.626139 
L 301.388883 154.835644 
L 303.066001 154.835644 
L 303.066001 150.045149 
L 310.705693 150.045149 
L 310.705693 145.254653 
L 311.877428 145.254653 
L 311.877428 140.464158 
L 313.902354 140.464158 
L 313.902354 135.673663 
L 315.515511 135.673663 
L 315.515511 130.883168 
L 316.279944 130.883168 
L 316.279944 126.092673 
L 317.12532 126.092673 
L 317.12532 121.302178 
L 320.307728 121.302178 
L 320.307728 116.511683 
L 322.266138 116.511683 
L 322.266138 111.721188 
L 322.276612 111.721188 
L 322.276612 106.930693 
L 322.45127 106.930693 
L 322.45127 102.140198 
L 322.699839 102.140198 
L 322.699839 97.349703 
L 324.678821 97.349703 
L 324.678821 92.559208 
L 325.946224 92.559208 
L 325.946224 87.768713 
L 326.658126 87.768713 
L 326.658126 82.978218 
L 328.072989 82.978218 
L 328.072989 78.187723 
L 330.812148 78.187723 
L 330.812148 73.397228 
L 332.564372 73.397228 
L 332.564372 68.606733 
L 335.555463 68.606733 
L 335.555463 63.816238 
L 336.83003 63.816238 
L 336.83003 59.025743 
L 337.180703 59.025743 
L 337.180703 54.235248 
L 338.930639 54.235248 
L 338.930639 49.444752 
L 341.172757 49.444752 
L 341.172757 44.654257 
L 342.259829 44.654257 
L 342.259829 39.863762 
L 345.35815 39.863762 
L 345.35815 35.073267 
L 345.67109 35.073267 
L 345.67109 30.282772 
L 350.440239 30.282772 
L 350.440239 25.492277 
L 354.85429 25.492277 
L 354.85429 20.701782 
L 354.855869 20.701782 
L 354.855869 15.911287 
L 355.868878 15.911287 
L 355.868878 11.120792 
L 360.48355 11.120792 
L 360.48355 6.330297 
L 360.48355 6.330297 
L 360.48355 6.330297 
L 460.8 6.330297 
" style="fill:none;stroke:#ff0000;stroke-linecap:square;stroke-width:3;"/>
   </g>
   <g id="line2d_22">
    <path clip-path="url(#p4a7d80d91a)" d="M 281.664752 293.76 
L 281.664752 288.969505 
L 284.751193 288.969505 
L 284.751193 284.17901 
L 285.098396 284.17901 
L 285.098396 279.388515 
L 286.400146 279.388515 
L 286.400146 274.59802 
L 286.695427 274.59802 
L 286.695427 269.807525 
L 287.915418 269.807525 
L 287.915418 265.01703 
L 287.993458 265.01703 
L 287.993458 260.226535 
L 288.885553 260.226535 
L 288.885553 255.43604 
L 289.502944 255.43604 
L 289.502944 250.645545 
L 290.943804 250.645545 
L 290.943804 245.85505 
L 291.297312 245.85505 
L 291.297312 241.064554 
L 291.823045 241.064554 
L 291.823045 236.274059 
L 292.161536 236.274059 
L 292.161536 231.483564 
L 292.318342 231.483564 
L 292.318342 226.693069 
L 295.285406 226.693069 
L 295.285406 221.902574 
L 335.704741 221.902574 
L 335.704741 217.112079 
L 341.417646 217.112079 
L 341.417646 212.321584 
L 343.136748 212.321584 
L 343.136748 207.531089 
L 344.3513 207.531089 
L 344.3513 202.740594 
L 345.027885 202.740594 
L 345.027885 197.950099 
L 345.400546 197.950099 
L 345.400546 193.159604 
L 345.675065 193.159604 
L 345.675065 188.369109 
L 346.119207 188.369109 
L 346.119207 183.578614 
L 346.217281 183.578614 
L 346.217281 178.788119 
L 346.298865 178.788119 
L 346.298865 173.997624 
L 346.341569 173.997624 
L 346.341569 169.207129 
L 346.463355 169.207129 
L 346.463355 164.416634 
L 347.640795 164.416634 
L 347.640795 159.626139 
L 347.860273 159.626139 
L 347.860273 154.835644 
L 348.639522 154.835644 
L 348.639522 150.045149 
L 348.864299 150.045149 
L 348.864299 145.254653 
L 349.323665 145.254653 
L 349.323665 140.464158 
L 349.800396 140.464158 
L 349.800396 135.673663 
L 349.94604 135.673663 
L 349.94604 130.883168 
L 350.562963 130.883168 
L 350.562963 126.092673 
L 351.025079 126.092673 
L 351.025079 121.302178 
L 351.746399 121.302178 
L 351.746399 116.511683 
L 351.86904 116.511683 
L 351.86904 111.721188 
L 351.99276 111.721188 
L 351.99276 106.930693 
L 352.331032 106.930693 
L 352.331032 102.140198 
L 352.449313 102.140198 
L 352.449313 97.349703 
L 353.432447 97.349703 
L 353.432447 92.559208 
L 353.615771 92.559208 
L 353.615771 87.768713 
L 354.31587 87.768713 
L 354.31587 82.978218 
L 356.447489 82.978218 
L 356.447489 78.187723 
L 356.593022 78.187723 
L 356.593022 73.397228 
L 356.593524 73.397228 
L 356.593524 68.606733 
L 357.30662 68.606733 
L 357.30662 63.816238 
L 357.89334 63.816238 
L 357.89334 59.025743 
L 358.527397 59.025743 
L 358.527397 54.235248 
L 359.174935 54.235248 
L 359.174935 49.444752 
L 359.651409 49.444752 
L 359.651409 44.654257 
L 359.81787 44.654257 
L 359.81787 39.863762 
L 360.453706 39.863762 
L 360.453706 35.073267 
L 360.70023 35.073267 
L 360.70023 30.282772 
L 361.220218 30.282772 
L 361.220218 25.492277 
L 366.962345 25.492277 
L 366.962345 20.701782 
L 367.865278 20.701782 
L 367.865278 15.911287 
L 368.537133 15.911287 
L 368.537133 11.120792 
L 368.812351 11.120792 
L 368.812351 6.330297 
L 368.812351 6.330297 
L 368.812351 6.330297 
L 460.8 6.330297 
" style="fill:none;stroke:#00bfbf;stroke-linecap:square;stroke-width:1.5;"/>
   </g>
   <g id="line2d_23">
    <path clip-path="url(#p4a7d80d91a)" d="M 281.664752 293.76 
L 281.664752 288.969505 
L 281.887277 288.969505 
L 281.887277 284.17901 
L 284.249898 284.17901 
L 284.249898 279.388515 
L 285.098396 279.388515 
L 285.098396 274.59802 
L 285.392702 274.59802 
L 285.392702 269.807525 
L 286.400146 269.807525 
L 286.400146 265.01703 
L 286.695427 265.01703 
L 286.695427 260.226535 
L 287.499826 260.226535 
L 287.499826 255.43604 
L 287.859414 255.43604 
L 287.859414 250.645545 
L 287.915418 250.645545 
L 287.915418 245.85505 
L 287.993458 245.85505 
L 287.993458 241.064554 
L 290.255285 241.064554 
L 290.255285 236.274059 
L 290.843088 236.274059 
L 290.843088 231.483564 
L 291.823045 231.483564 
L 291.823045 226.693069 
L 295.285406 226.693069 
L 295.285406 221.902574 
L 335.704741 221.902574 
L 335.704741 217.112079 
L 337.992135 217.112079 
L 337.992135 212.321584 
L 338.595529 212.321584 
L 338.595529 207.531089 
L 340.018243 207.531089 
L 340.018243 202.740594 
L 340.451162 202.740594 
L 340.451162 197.950099 
L 341.417646 197.950099 
L 341.417646 193.159604 
L 341.515762 193.159604 
L 341.515762 188.369109 
L 343.136748 188.369109 
L 343.136748 183.578614 
L 343.541442 183.578614 
L 343.541442 178.788119 
L 344.607381 178.788119 
L 344.607381 173.997624 
L 344.795352 173.997624 
L 344.795352 169.207129 
L 345.027885 169.207129 
L 345.027885 164.416634 
L 345.400546 164.416634 
L 345.400546 159.626139 
L 346.298865 159.626139 
L 346.298865 154.835644 
L 346.463355 154.835644 
L 346.463355 150.045149 
L 346.514071 150.045149 
L 346.514071 145.254653 
L 347.112698 145.254653 
L 347.112698 140.464158 
L 347.326812 140.464158 
L 347.326812 135.673663 
L 347.536534 135.673663 
L 347.536534 130.883168 
L 347.914659 130.883168 
L 347.914659 126.092673 
L 348.864299 126.092673 
L 348.864299 121.302178 
L 349.323665 121.302178 
L 349.323665 116.511683 
L 349.508048 116.511683 
L 349.508048 111.721188 
L 349.711027 111.721188 
L 349.711027 106.930693 
L 350.098133 106.930693 
L 350.098133 102.140198 
L 350.462384 102.140198 
L 350.462384 97.349703 
L 351.025079 97.349703 
L 351.025079 92.559208 
L 351.597685 92.559208 
L 351.597685 87.768713 
L 351.86904 87.768713 
L 351.86904 82.978218 
L 351.99276 82.978218 
L 351.99276 78.187723 
L 352.401613 78.187723 
L 352.401613 73.397228 
L 353.462387 73.397228 
L 353.462387 68.606733 
L 356.065732 68.606733 
L 356.065732 63.816238 
L 356.593022 63.816238 
L 356.593022 59.025743 
L 356.614554 59.025743 
L 356.614554 54.235248 
L 356.676295 54.235248 
L 356.676295 49.444752 
L 357.827678 49.444752 
L 357.827678 44.654257 
L 357.89334 44.654257 
L 357.89334 39.863762 
L 359.174935 39.863762 
L 359.174935 35.073267 
L 359.651409 35.073267 
L 359.651409 30.282772 
L 360.695003 30.282772 
L 360.695003 25.492277 
L 361.168146 25.492277 
L 361.168146 20.701782 
L 363.531117 20.701782 
L 363.531117 15.911287 
L 364.512078 15.911287 
L 364.512078 11.120792 
L 367.476067 11.120792 
L 367.476067 6.330297 
L 367.476067 6.330297 
L 367.476067 6.330297 
L 460.8 6.330297 
" style="fill:none;stroke:#bf00bf;stroke-linecap:square;stroke-width:1.5;"/>
   </g>
   <g id="line2d_24">
    <path clip-path="url(#p4a7d80d91a)" d="M 269.976327 293.76 
L 269.976327 288.969505 
L 276.373139 288.969505 
L 276.373139 284.17901 
L 278.416194 284.17901 
L 278.416194 279.388515 
L 279.908965 279.388515 
L 279.908965 274.59802 
L 280.129714 274.59802 
L 280.129714 269.807525 
L 280.356707 269.807525 
L 280.356707 265.01703 
L 281.085558 265.01703 
L 281.085558 260.226535 
L 281.887277 260.226535 
L 281.887277 255.43604 
L 284.249898 255.43604 
L 284.249898 250.645545 
L 284.656281 250.645545 
L 284.656281 245.85505 
L 286.695427 245.85505 
L 286.695427 241.064554 
L 289.613475 241.064554 
L 289.613475 236.274059 
L 290.089391 236.274059 
L 290.089391 231.483564 
L 290.233643 231.483564 
L 290.233643 226.693069 
L 290.255285 226.693069 
L 290.255285 221.902574 
L 323.10716 221.902574 
L 323.10716 217.112079 
L 327.120165 217.112079 
L 327.120165 212.321584 
L 328.973848 212.321584 
L 328.973848 207.531089 
L 329.424356 207.531089 
L 329.424356 202.740594 
L 330.322264 202.740594 
L 330.322264 197.950099 
L 330.356537 197.950099 
L 330.356537 193.159604 
L 331.804999 193.159604 
L 331.804999 188.369109 
L 332.416192 188.369109 
L 332.416192 183.578614 
L 332.46512 183.578614 
L 332.46512 178.788119 
L 333.095186 178.788119 
L 333.095186 173.997624 
L 334.288208 173.997624 
L 334.288208 169.207129 
L 336.332377 169.207129 
L 336.332377 164.416634 
L 336.394333 164.416634 
L 336.394333 159.626139 
L 336.679115 159.626139 
L 336.679115 154.835644 
L 336.803745 154.835644 
L 336.803745 150.045149 
L 337.108469 150.045149 
L 337.108469 145.254653 
L 337.832294 145.254653 
L 337.832294 140.464158 
L 337.992135 140.464158 
L 337.992135 135.673663 
L 338.834995 135.673663 
L 338.834995 130.883168 
L 339.497722 130.883168 
L 339.497722 126.092673 
L 340.229284 126.092673 
L 340.229284 121.302178 
L 340.654333 121.302178 
L 340.654333 116.511683 
L 342.883952 116.511683 
L 342.883952 111.721188 
L 343.596216 111.721188 
L 343.596216 106.930693 
L 343.621025 106.930693 
L 343.621025 102.140198 
L 345.335976 102.140198 
L 345.335976 97.349703 
L 346.053844 97.349703 
L 346.053844 92.559208 
L 346.408609 92.559208 
L 346.408609 87.768713 
L 346.45574 87.768713 
L 346.45574 82.978218 
L 346.476778 82.978218 
L 346.476778 78.187723 
L 347.315252 78.187723 
L 347.315252 73.397228 
L 347.642582 73.397228 
L 347.642582 68.606733 
L 348.950758 68.606733 
L 348.950758 63.816238 
L 349.383169 63.816238 
L 349.383169 59.025743 
L 349.962042 59.025743 
L 349.962042 54.235248 
L 351.86904 54.235248 
L 351.86904 49.444752 
L 352.594125 49.444752 
L 352.594125 44.654257 
L 353.463485 44.654257 
L 353.463485 39.863762 
L 353.599875 39.863762 
L 353.599875 35.073267 
L 354.947395 35.073267 
L 354.947395 30.282772 
L 359.174935 30.282772 
L 359.174935 25.492277 
L 360.125525 25.492277 
L 360.125525 20.701782 
L 360.714538 20.701782 
L 360.714538 15.911287 
L 360.819924 15.911287 
L 360.819924 11.120792 
L 364.512078 11.120792 
L 364.512078 6.330297 
L 364.512078 6.330297 
L 364.512078 6.330297 
L 460.8 6.330297 
" style="fill:none;stroke:#000000;stroke-linecap:square;stroke-width:1.5;"/>
   </g>
   <g id="line2d_25">
    <path clip-path="url(#p4a7d80d91a)" d="M 265.72473 293.76 
L 265.72473 288.969505 
L 268.095304 288.969505 
L 268.095304 284.17901 
L 269.686024 284.17901 
L 269.686024 279.388515 
L 270.12904 279.388515 
L 270.12904 274.59802 
L 271.641513 274.59802 
L 271.641513 269.807525 
L 275.192618 269.807525 
L 275.192618 265.01703 
L 276.533803 265.01703 
L 276.533803 260.226535 
L 276.804273 260.226535 
L 276.804273 255.43604 
L 280.259311 255.43604 
L 280.259311 250.645545 
L 280.498511 250.645545 
L 280.498511 245.85505 
L 283.493937 245.85505 
L 283.493937 241.064554 
L 286.675925 241.064554 
L 286.675925 236.274059 
L 287.153779 236.274059 
L 287.153779 231.483564 
L 288.904675 231.483564 
L 288.904675 226.693069 
L 288.944152 226.693069 
L 288.944152 221.902574 
L 310.050062 221.902574 
L 310.050062 217.112079 
L 310.868585 217.112079 
L 310.868585 212.321584 
L 312.362866 212.321584 
L 312.362866 207.531089 
L 315.746196 207.531089 
L 315.746196 202.740594 
L 318.165557 202.740594 
L 318.165557 197.950099 
L 318.389293 197.950099 
L 318.389293 193.159604 
L 318.602381 193.159604 
L 318.602381 188.369109 
L 318.877814 188.369109 
L 318.877814 183.578614 
L 319.01845 183.578614 
L 319.01845 178.788119 
L 319.823828 178.788119 
L 319.823828 173.997624 
L 319.911274 173.997624 
L 319.911274 169.207129 
L 320.850806 169.207129 
L 320.850806 164.416634 
L 321.250872 164.416634 
L 321.250872 159.626139 
L 322.2293 159.626139 
L 322.2293 154.835644 
L 322.87958 154.835644 
L 322.87958 150.045149 
L 326.798948 150.045149 
L 326.798948 145.254653 
L 327.366267 145.254653 
L 327.366267 140.464158 
L 327.808331 140.464158 
L 327.808331 135.673663 
L 329.799229 135.673663 
L 329.799229 130.883168 
L 329.999146 130.883168 
L 329.999146 126.092673 
L 332.135321 126.092673 
L 332.135321 121.302178 
L 332.264754 121.302178 
L 332.264754 116.511683 
L 332.874884 116.511683 
L 332.874884 111.721188 
L 334.286554 111.721188 
L 334.286554 106.930693 
L 334.307718 106.930693 
L 334.307718 102.140198 
L 335.451934 102.140198 
L 335.451934 97.349703 
L 337.877199 97.349703 
L 337.877199 92.559208 
L 338.468862 92.559208 
L 338.468862 87.768713 
L 338.976146 87.768713 
L 338.976146 82.978218 
L 341.730233 82.978218 
L 341.730233 78.187723 
L 342.211664 78.187723 
L 342.211664 73.397228 
L 342.275743 73.397228 
L 342.275743 68.606733 
L 342.957221 68.606733 
L 342.957221 63.816238 
L 345.23758 63.816238 
L 345.23758 59.025743 
L 345.433757 59.025743 
L 345.433757 54.235248 
L 345.64927 54.235248 
L 345.64927 49.444752 
L 347.516994 49.444752 
L 347.516994 44.654257 
L 350.103959 44.654257 
L 350.103959 39.863762 
L 350.391588 39.863762 
L 350.391588 35.073267 
L 352.63457 35.073267 
L 352.63457 30.282772 
L 353.614853 30.282772 
L 353.614853 25.492277 
L 359.978944 25.492277 
L 359.978944 20.701782 
L 359.98615 20.701782 
L 359.98615 15.911287 
L 360.523111 15.911287 
L 360.523111 11.120792 
L 363.394056 11.120792 
L 363.394056 6.330297 
L 363.394056 6.330297 
L 363.394056 6.330297 
L 460.8 6.330297 
" style="fill:none;stroke:#00bfbf;stroke-linecap:square;stroke-width:1.5;"/>
   </g>
   <g id="line2d_26">
    <path clip-path="url(#p4a7d80d91a)" d="M 259.009992 293.76 
L 259.009992 288.969505 
L 261.286415 288.969505 
L 261.286415 284.17901 
L 263.866155 284.17901 
L 263.866155 279.388515 
L 266.605686 279.388515 
L 266.605686 274.59802 
L 268.83218 274.59802 
L 268.83218 269.807525 
L 269.560885 269.807525 
L 269.560885 265.01703 
L 270.338916 265.01703 
L 270.338916 260.226535 
L 270.998643 260.226535 
L 270.998643 255.43604 
L 273.046245 255.43604 
L 273.046245 250.645545 
L 276.092367 250.645545 
L 276.092367 245.85505 
L 277.561585 245.85505 
L 277.561585 241.064554 
L 277.609953 241.064554 
L 277.609953 236.274059 
L 280.610295 236.274059 
L 280.610295 231.483564 
L 281.111319 231.483564 
L 281.111319 226.693069 
L 283.067863 226.693069 
L 283.067863 221.902574 
L 283.07683 221.902574 
L 283.07683 217.112079 
L 283.130242 217.112079 
L 283.130242 212.321584 
L 283.565322 212.321584 
L 283.565322 207.531089 
L 287.017455 207.531089 
L 287.017455 202.740594 
L 288.028896 202.740594 
L 288.028896 197.950099 
L 289.32386 197.950099 
L 289.32386 193.159604 
L 290.229429 193.159604 
L 290.229429 188.369109 
L 290.294153 188.369109 
L 290.294153 183.578614 
L 291.045758 183.578614 
L 291.045758 178.788119 
L 292.379905 178.788119 
L 292.379905 173.997624 
L 296.09923 173.997624 
L 296.09923 169.207129 
L 297.641043 169.207129 
L 297.641043 164.416634 
L 298.238423 164.416634 
L 298.238423 159.626139 
L 301.620531 159.626139 
L 301.620531 154.835644 
L 303.066001 154.835644 
L 303.066001 150.045149 
L 310.705693 150.045149 
L 310.705693 145.254653 
L 311.877428 145.254653 
L 311.877428 140.464158 
L 314.246204 140.464158 
L 314.246204 135.673663 
L 315.515511 135.673663 
L 315.515511 130.883168 
L 316.279944 130.883168 
L 316.279944 126.092673 
L 317.464002 126.092673 
L 317.464002 121.302178 
L 320.307728 121.302178 
L 320.307728 116.511683 
L 322.266138 116.511683 
L 322.266138 111.721188 
L 322.301326 111.721188 
L 322.301326 106.930693 
L 322.45127 106.930693 
L 322.45127 102.140198 
L 322.699839 102.140198 
L 322.699839 97.349703 
L 324.678821 97.349703 
L 324.678821 92.559208 
L 326.644235 92.559208 
L 326.644235 87.768713 
L 326.664026 87.768713 
L 326.664026 82.978218 
L 328.097169 82.978218 
L 328.097169 78.187723 
L 330.868603 78.187723 
L 330.868603 73.397228 
L 332.62815 73.397228 
L 332.62815 68.606733 
L 335.555463 68.606733 
L 335.555463 63.816238 
L 336.83003 63.816238 
L 336.83003 59.025743 
L 337.180703 59.025743 
L 337.180703 54.235248 
L 339.16054 54.235248 
L 339.16054 49.444752 
L 341.176986 49.444752 
L 341.176986 44.654257 
L 342.259829 44.654257 
L 342.259829 39.863762 
L 345.67109 39.863762 
L 345.67109 35.073267 
L 345.676418 35.073267 
L 345.676418 30.282772 
L 350.441811 30.282772 
L 350.441811 25.492277 
L 354.85429 25.492277 
L 354.85429 20.701782 
L 354.86858 20.701782 
L 354.86858 15.911287 
L 355.868878 15.911287 
L 355.868878 11.120792 
L 360.48355 11.120792 
L 360.48355 6.330297 
L 360.48355 6.330297 
L 360.48355 6.330297 
L 460.8 6.330297 
" style="fill:none;stroke:#bf00bf;stroke-linecap:square;stroke-width:1.5;"/>
   </g>
   <g id="patch_3">
    <path d="M 0 293.76 
L 0 3.456 
" style="fill:none;stroke:#000000;stroke-linecap:square;stroke-linejoin:miter;stroke-width:0.8;"/>
   </g>
   <g id="patch_4">
    <path d="M 460.8 293.76 
L 460.8 3.456 
" style="fill:none;stroke:#000000;stroke-linecap:square;stroke-linejoin:miter;stroke-width:0.8;"/>
   </g>
   <g id="patch_5">
    <path d="M -0 293.76 
L 460.8 293.76 
" style="fill:none;stroke:#000000;stroke-linecap:square;stroke-linejoin:miter;stroke-width:0.8;"/>
   </g>
   <g id="patch_6">
    <path d="M -0 3.456 
L 460.8 3.456 
" style="fill:none;stroke:#000000;stroke-linecap:square;stroke-linejoin:miter;stroke-width:0.8;"/>
   </g>
   <g id="text_6">
    <!-- {f6-f9}, 20-D -->
    <defs>
     <path d="M 51.125 -9.28125 
L 51.125 -16.3125 
L 48.09375 -16.3125 
Q 35.9375 -16.3125 31.8125 -12.6875 
Q 27.6875 -9.078125 27.6875 1.703125 
L 27.6875 13.375 
Q 27.6875 20.75 25.046875 23.578125 
Q 22.40625 26.421875 15.484375 26.421875 
L 12.5 26.421875 
L 12.5 33.40625 
L 15.484375 33.40625 
Q 22.46875 33.40625 25.078125 36.203125 
Q 27.6875 39.015625 27.6875 46.296875 
L 27.6875 58.015625 
Q 27.6875 68.796875 31.8125 72.390625 
Q 35.9375 75.984375 48.09375 75.984375 
L 51.125 75.984375 
L 51.125 69 
L 47.796875 69 
Q 40.921875 69 38.8125 66.84375 
Q 36.71875 64.703125 36.71875 57.8125 
L 36.71875 45.703125 
Q 36.71875 38.03125 34.5 34.5625 
Q 32.28125 31.109375 26.90625 29.890625 
Q 32.328125 28.5625 34.515625 25.09375 
Q 36.71875 21.625 36.71875 14.015625 
L 36.71875 1.90625 
Q 36.71875 -4.984375 38.8125 -7.125 
Q 40.921875 -9.28125 47.796875 -9.28125 
z
" id="DejaVuSans-123"/>
     <path d="M 33.015625 40.375 
Q 26.375 40.375 22.484375 35.828125 
Q 18.609375 31.296875 18.609375 23.390625 
Q 18.609375 15.53125 22.484375 10.953125 
Q 26.375 6.390625 33.015625 6.390625 
Q 39.65625 6.390625 43.53125 10.953125 
Q 47.40625 15.53125 47.40625 23.390625 
Q 47.40625 31.296875 43.53125 35.828125 
Q 39.65625 40.375 33.015625 40.375 
z
M 52.59375 71.296875 
L 52.59375 62.3125 
Q 48.875 64.0625 45.09375 64.984375 
Q 41.3125 65.921875 37.59375 65.921875 
Q 27.828125 65.921875 22.671875 59.328125 
Q 17.53125 52.734375 16.796875 39.40625 
Q 19.671875 43.65625 24.015625 45.921875 
Q 28.375 48.1875 33.59375 48.1875 
Q 44.578125 48.1875 50.953125 41.515625 
Q 57.328125 34.859375 57.328125 23.390625 
Q 57.328125 12.15625 50.6875 5.359375 
Q 44.046875 -1.421875 33.015625 -1.421875 
Q 20.359375 -1.421875 13.671875 8.265625 
Q 6.984375 17.96875 6.984375 36.375 
Q 6.984375 53.65625 15.1875 63.9375 
Q 23.390625 74.21875 37.203125 74.21875 
Q 40.921875 74.21875 44.703125 73.484375 
Q 48.484375 72.75 52.59375 71.296875 
z
" id="DejaVuSans-54"/>
     <path d="M 10.984375 1.515625 
L 10.984375 10.5 
Q 14.703125 8.734375 18.5 7.8125 
Q 22.3125 6.890625 25.984375 6.890625 
Q 35.75 6.890625 40.890625 13.453125 
Q 46.046875 20.015625 46.78125 33.40625 
Q 43.953125 29.203125 39.59375 26.953125 
Q 35.25 24.703125 29.984375 24.703125 
Q 19.046875 24.703125 12.671875 31.3125 
Q 6.296875 37.9375 6.296875 49.421875 
Q 6.296875 60.640625 12.9375 67.421875 
Q 19.578125 74.21875 30.609375 74.21875 
Q 43.265625 74.21875 49.921875 64.515625 
Q 56.59375 54.828125 56.59375 36.375 
Q 56.59375 19.140625 48.40625 8.859375 
Q 40.234375 -1.421875 26.421875 -1.421875 
Q 22.703125 -1.421875 18.890625 -0.6875 
Q 15.09375 0.046875 10.984375 1.515625 
z
M 30.609375 32.421875 
Q 37.25 32.421875 41.125 36.953125 
Q 45.015625 41.5 45.015625 49.421875 
Q 45.015625 57.28125 41.125 61.84375 
Q 37.25 66.40625 30.609375 66.40625 
Q 23.96875 66.40625 20.09375 61.84375 
Q 16.21875 57.28125 16.21875 49.421875 
Q 16.21875 41.5 20.09375 36.953125 
Q 23.96875 32.421875 30.609375 32.421875 
z
" id="DejaVuSans-57"/>
     <path d="M 12.5 -9.28125 
L 15.921875 -9.28125 
Q 22.75 -9.28125 24.828125 -7.171875 
Q 26.90625 -5.078125 26.90625 1.90625 
L 26.90625 14.015625 
Q 26.90625 21.625 29.09375 25.09375 
Q 31.296875 28.5625 36.71875 29.890625 
Q 31.296875 31.109375 29.09375 34.5625 
Q 26.90625 38.03125 26.90625 45.703125 
L 26.90625 57.8125 
Q 26.90625 64.75 24.828125 66.875 
Q 22.75 69 15.921875 69 
L 12.5 69 
L 12.5 75.984375 
L 15.578125 75.984375 
Q 27.734375 75.984375 31.8125 72.390625 
Q 35.890625 68.796875 35.890625 58.015625 
L 35.890625 46.296875 
Q 35.890625 39.015625 38.515625 36.203125 
Q 41.15625 33.40625 48.09375 33.40625 
L 51.125 33.40625 
L 51.125 26.421875 
L 48.09375 26.421875 
Q 41.15625 26.421875 38.515625 23.578125 
Q 35.890625 20.75 35.890625 13.375 
L 35.890625 1.703125 
Q 35.890625 -9.078125 31.8125 -12.6875 
Q 27.734375 -16.3125 15.578125 -16.3125 
L 12.5 -16.3125 
z
" id="DejaVuSans-125"/>
     <path d="M 11.71875 12.40625 
L 22.015625 12.40625 
L 22.015625 4 
L 14.015625 -11.625 
L 7.71875 -11.625 
L 11.71875 4 
z
" id="DejaVuSans-44"/>
     <path d="M 19.1875 8.296875 
L 53.609375 8.296875 
L 53.609375 0 
L 7.328125 0 
L 7.328125 8.296875 
Q 12.9375 14.109375 22.625 23.890625 
Q 32.328125 33.6875 34.8125 36.53125 
Q 39.546875 41.84375 41.421875 45.53125 
Q 43.3125 49.21875 43.3125 52.78125 
Q 43.3125 58.59375 39.234375 62.25 
Q 35.15625 65.921875 28.609375 65.921875 
Q 23.96875 65.921875 18.8125 64.3125 
Q 13.671875 62.703125 7.8125 59.421875 
L 7.8125 69.390625 
Q 13.765625 71.78125 18.9375 73 
Q 24.125 74.21875 28.421875 74.21875 
Q 39.75 74.21875 46.484375 68.546875 
Q 53.21875 62.890625 53.21875 53.421875 
Q 53.21875 48.921875 51.53125 44.890625 
Q 49.859375 40.875 45.40625 35.40625 
Q 44.1875 33.984375 37.640625 27.21875 
Q 31.109375 20.453125 19.1875 8.296875 
z
" id="DejaVuSans-50"/>
    </defs>
    <g transform="translate(318.609 287.95392)scale(0.2 -0.2)">
     <use xlink:href="#DejaVuSans-123"/>
     <use x="63.623047" xlink:href="#DejaVuSans-102"/>
     <use x="98.828125" xlink:href="#DejaVuSans-54"/>
     <use x="162.451172" xlink:href="#DejaVuSans-45"/>
     <use x="198.535156" xlink:href="#DejaVuSans-102"/>
     <use x="233.740234" xlink:href="#DejaVuSans-57"/>
     <use x="297.363281" xlink:href="#DejaVuSans-125"/>
     <use x="360.986328" xlink:href="#DejaVuSans-44"/>
     <use x="392.773438" xlink:href="#DejaVuSans-32"/>
     <use x="424.560547" xlink:href="#DejaVuSans-50"/>
     <use x="488.183594" xlink:href="#DejaVuSans-48"/>
     <use x="551.806641" xlink:href="#DejaVuSans-45"/>
     <use x="587.890625" xlink:href="#DejaVuSans-68"/>
    </g>
   </g>
   <g id="text_7">
    <!-- v2.4 -->
    <defs>
     <path d="M 2.984375 54.6875 
L 12.5 54.6875 
L 29.59375 8.796875 
L 46.6875 54.6875 
L 56.203125 54.6875 
L 35.6875 0 
L 23.484375 0 
z
" id="DejaVuSans-118"/>
     <path d="M 10.6875 12.40625 
L 21 12.40625 
L 21 0 
L 10.6875 0 
z
" id="DejaVuSans-46"/>
    </defs>
    <g style="fill:#808080;" transform="translate(219.489063 288.777272)scale(0.1 -0.1)">
     <use xlink:href="#DejaVuSans-118"/>
     <use x="59.179688" xlink:href="#DejaVuSans-50"/>
     <use x="122.802734" xlink:href="#DejaVuSans-46"/>
     <use x="154.589844" xlink:href="#DejaVuSans-52"/>
    </g>
   </g>
  </g>
 </g>
 <defs>
  <clipPath id="p4a7d80d91a">
   <rect height="290.304" width="460.8" x="0" y="3.456"/>
  </clipPath>
 </defs>
</svg>
