<?xml version="1.0" encoding="utf-8" standalone="no"?>
<!DOCTYPE svg PUBLIC "-//W3C//DTD SVG 1.1//EN"
  "http://www.w3.org/Graphics/SVG/1.1/DTD/svg11.dtd">
<!-- Created with matplotlib (https://matplotlib.org/) -->
<svg height="345.6pt" version="1.1" viewBox="0 0 460.8 345.6" width="460.8pt" xmlns="http://www.w3.org/2000/svg" xmlns:xlink="http://www.w3.org/1999/xlink">
 <defs>
  <style type="text/css">
*{stroke-linecap:butt;stroke-linejoin:round;}
  </style>
 </defs>
 <g id="figure_1">
  <g id="patch_1">
   <path d="M 0 345.6 
L 460.8 345.6 
L 460.8 0 
L 0 0 
z
" style="fill:#ffffff;"/>
  </g>
  <g id="axes_1">
   <g id="patch_2">
    <path d="M 0 293.76 
L 460.8 293.76 
L 460.8 3.456 
L 0 3.456 
z
" style="fill:#ffffff;"/>
   </g>
   <g id="matplotlib.axis_1">
    <g id="xtick_1">
     <g id="line2d_1">
      <path clip-path="url(#pf2dfa695bf)" d="M 104.470891 293.76 
L 104.470891 3.456 
" style="fill:none;stroke:#b0b0b0;stroke-linecap:square;stroke-width:0.8;"/>
     </g>
     <g id="line2d_2">
      <defs>
       <path d="M 0 0 
L 0 3.5 
" id="m70cc139330" style="stroke:#000000;stroke-width:0.8;"/>
      </defs>
      <g>
       <use style="stroke:#000000;stroke-width:0.8;" x="104.470891" xlink:href="#m70cc139330" y="293.76"/>
      </g>
     </g>
     <g id="text_1">
      <!-- -4 -->
      <defs>
       <path d="M 4.890625 31.390625 
L 31.203125 31.390625 
L 31.203125 23.390625 
L 4.890625 23.390625 
z
" id="DejaVuSans-45"/>
       <path d="M 37.796875 64.3125 
L 12.890625 25.390625 
L 37.796875 25.390625 
z
M 35.203125 72.90625 
L 47.609375 72.90625 
L 47.609375 25.390625 
L 58.015625 25.390625 
L 58.015625 17.1875 
L 47.609375 17.1875 
L 47.609375 0 
L 37.796875 0 
L 37.796875 17.1875 
L 4.890625 17.1875 
L 4.890625 26.703125 
z
" id="DejaVuSans-52"/>
      </defs>
      <g transform="translate(94.500579 315.956875)scale(0.2 -0.2)">
       <use xlink:href="#DejaVuSans-45"/>
       <use x="36.083984" xlink:href="#DejaVuSans-52"/>
      </g>
     </g>
    </g>
    <g id="xtick_2">
     <g id="line2d_3">
      <path clip-path="url(#pf2dfa695bf)" d="M 209.054769 293.76 
L 209.054769 3.456 
" style="fill:none;stroke:#b0b0b0;stroke-linecap:square;stroke-width:0.8;"/>
     </g>
     <g id="line2d_4">
      <g>
       <use style="stroke:#000000;stroke-width:0.8;" x="209.054769" xlink:href="#m70cc139330" y="293.76"/>
      </g>
     </g>
     <g id="text_2">
      <!-- 0 -->
      <defs>
       <path d="M 31.78125 66.40625 
Q 24.171875 66.40625 20.328125 58.90625 
Q 16.5 51.421875 16.5 36.375 
Q 16.5 21.390625 20.328125 13.890625 
Q 24.171875 6.390625 31.78125 6.390625 
Q 39.453125 6.390625 43.28125 13.890625 
Q 47.125 21.390625 47.125 36.375 
Q 47.125 51.421875 43.28125 58.90625 
Q 39.453125 66.40625 31.78125 66.40625 
z
M 31.78125 74.21875 
Q 44.046875 74.21875 50.515625 64.515625 
Q 56.984375 54.828125 56.984375 36.375 
Q 56.984375 17.96875 50.515625 8.265625 
Q 44.046875 -1.421875 31.78125 -1.421875 
Q 19.53125 -1.421875 13.0625 8.265625 
Q 6.59375 17.96875 6.59375 36.375 
Q 6.59375 54.828125 13.0625 64.515625 
Q 19.53125 74.21875 31.78125 74.21875 
z
" id="DejaVuSans-48"/>
      </defs>
      <g transform="translate(202.692269 315.956875)scale(0.2 -0.2)">
       <use xlink:href="#DejaVuSans-48"/>
      </g>
     </g>
    </g>
    <g id="xtick_3">
     <g id="line2d_5">
      <path clip-path="url(#pf2dfa695bf)" d="M 313.638647 293.76 
L 313.638647 3.456 
" style="fill:none;stroke:#b0b0b0;stroke-linecap:square;stroke-width:0.8;"/>
     </g>
     <g id="line2d_6">
      <g>
       <use style="stroke:#000000;stroke-width:0.8;" x="313.638647" xlink:href="#m70cc139330" y="293.76"/>
      </g>
     </g>
     <g id="text_3">
      <!-- 4 -->
      <g transform="translate(307.276147 315.956875)scale(0.2 -0.2)">
       <use xlink:href="#DejaVuSans-52"/>
      </g>
     </g>
    </g>
    <g id="xtick_4">
     <g id="line2d_7">
      <path clip-path="url(#pf2dfa695bf)" d="M 418.222525 293.76 
L 418.222525 3.456 
" style="fill:none;stroke:#b0b0b0;stroke-linecap:square;stroke-width:0.8;"/>
     </g>
     <g id="line2d_8">
      <g>
       <use style="stroke:#000000;stroke-width:0.8;" x="418.222525" xlink:href="#m70cc139330" y="293.76"/>
      </g>
     </g>
     <g id="text_4">
      <!-- 8 -->
      <defs>
       <path d="M 31.78125 34.625 
Q 24.75 34.625 20.71875 30.859375 
Q 16.703125 27.09375 16.703125 20.515625 
Q 16.703125 13.921875 20.71875 10.15625 
Q 24.75 6.390625 31.78125 6.390625 
Q 38.8125 6.390625 42.859375 10.171875 
Q 46.921875 13.96875 46.921875 20.515625 
Q 46.921875 27.09375 42.890625 30.859375 
Q 38.875 34.625 31.78125 34.625 
z
M 21.921875 38.8125 
Q 15.578125 40.375 12.03125 44.71875 
Q 8.5 49.078125 8.5 55.328125 
Q 8.5 64.0625 14.71875 69.140625 
Q 20.953125 74.21875 31.78125 74.21875 
Q 42.671875 74.21875 48.875 69.140625 
Q 55.078125 64.0625 55.078125 55.328125 
Q 55.078125 49.078125 51.53125 44.71875 
Q 48 40.375 41.703125 38.8125 
Q 48.828125 37.15625 52.796875 32.3125 
Q 56.78125 27.484375 56.78125 20.515625 
Q 56.78125 9.90625 50.3125 4.234375 
Q 43.84375 -1.421875 31.78125 -1.421875 
Q 19.734375 -1.421875 13.25 4.234375 
Q 6.78125 9.90625 6.78125 20.515625 
Q 6.78125 27.484375 10.78125 32.3125 
Q 14.796875 37.15625 21.921875 38.8125 
z
M 18.3125 54.390625 
Q 18.3125 48.734375 21.84375 45.5625 
Q 25.390625 42.390625 31.78125 42.390625 
Q 38.140625 42.390625 41.71875 45.5625 
Q 45.3125 48.734375 45.3125 54.390625 
Q 45.3125 60.0625 41.71875 63.234375 
Q 38.140625 66.40625 31.78125 66.40625 
Q 25.390625 66.40625 21.84375 63.234375 
Q 18.3125 60.0625 18.3125 54.390625 
z
" id="DejaVuSans-56"/>
      </defs>
      <g transform="translate(411.860025 315.956875)scale(0.2 -0.2)">
       <use xlink:href="#DejaVuSans-56"/>
      </g>
     </g>
    </g>
    <g id="text_5">
     <!-- log10 of Df -->
     <defs>
      <path d="M 9.421875 75.984375 
L 18.40625 75.984375 
L 18.40625 0 
L 9.421875 0 
z
" id="DejaVuSans-108"/>
      <path d="M 30.609375 48.390625 
Q 23.390625 48.390625 19.1875 42.75 
Q 14.984375 37.109375 14.984375 27.296875 
Q 14.984375 17.484375 19.15625 11.84375 
Q 23.34375 6.203125 30.609375 6.203125 
Q 37.796875 6.203125 41.984375 11.859375 
Q 46.1875 17.53125 46.1875 27.296875 
Q 46.1875 37.015625 41.984375 42.703125 
Q 37.796875 48.390625 30.609375 48.390625 
z
M 30.609375 56 
Q 42.328125 56 49.015625 48.375 
Q 55.71875 40.765625 55.71875 27.296875 
Q 55.71875 13.875 49.015625 6.21875 
Q 42.328125 -1.421875 30.609375 -1.421875 
Q 18.84375 -1.421875 12.171875 6.21875 
Q 5.515625 13.875 5.515625 27.296875 
Q 5.515625 40.765625 12.171875 48.375 
Q 18.84375 56 30.609375 56 
z
" id="DejaVuSans-111"/>
      <path d="M 45.40625 27.984375 
Q 45.40625 37.75 41.375 43.109375 
Q 37.359375 48.484375 30.078125 48.484375 
Q 22.859375 48.484375 18.828125 43.109375 
Q 14.796875 37.75 14.796875 27.984375 
Q 14.796875 18.265625 18.828125 12.890625 
Q 22.859375 7.515625 30.078125 7.515625 
Q 37.359375 7.515625 41.375 12.890625 
Q 45.40625 18.265625 45.40625 27.984375 
z
M 54.390625 6.78125 
Q 54.390625 -7.171875 48.1875 -13.984375 
Q 42 -20.796875 29.203125 -20.796875 
Q 24.46875 -20.796875 20.265625 -20.09375 
Q 16.0625 -19.390625 12.109375 -17.921875 
L 12.109375 -9.1875 
Q 16.0625 -11.328125 19.921875 -12.34375 
Q 23.78125 -13.375 27.78125 -13.375 
Q 36.625 -13.375 41.015625 -8.765625 
Q 45.40625 -4.15625 45.40625 5.171875 
L 45.40625 9.625 
Q 42.625 4.78125 38.28125 2.390625 
Q 33.9375 0 27.875 0 
Q 17.828125 0 11.671875 7.65625 
Q 5.515625 15.328125 5.515625 27.984375 
Q 5.515625 40.671875 11.671875 48.328125 
Q 17.828125 56 27.875 56 
Q 33.9375 56 38.28125 53.609375 
Q 42.625 51.21875 45.40625 46.390625 
L 45.40625 54.6875 
L 54.390625 54.6875 
z
" id="DejaVuSans-103"/>
      <path d="M 12.40625 8.296875 
L 28.515625 8.296875 
L 28.515625 63.921875 
L 10.984375 60.40625 
L 10.984375 69.390625 
L 28.421875 72.90625 
L 38.28125 72.90625 
L 38.28125 8.296875 
L 54.390625 8.296875 
L 54.390625 0 
L 12.40625 0 
z
" id="DejaVuSans-49"/>
      <path id="DejaVuSans-32"/>
      <path d="M 37.109375 75.984375 
L 37.109375 68.5 
L 28.515625 68.5 
Q 23.6875 68.5 21.796875 66.546875 
Q 19.921875 64.59375 19.921875 59.515625 
L 19.921875 54.6875 
L 34.71875 54.6875 
L 34.71875 47.703125 
L 19.921875 47.703125 
L 19.921875 0 
L 10.890625 0 
L 10.890625 47.703125 
L 2.296875 47.703125 
L 2.296875 54.6875 
L 10.890625 54.6875 
L 10.890625 58.5 
Q 10.890625 67.625 15.140625 71.796875 
Q 19.390625 75.984375 28.609375 75.984375 
z
" id="DejaVuSans-102"/>
      <path d="M 19.671875 64.796875 
L 19.671875 8.109375 
L 31.59375 8.109375 
Q 46.6875 8.109375 53.6875 14.9375 
Q 60.6875 21.78125 60.6875 36.53125 
Q 60.6875 51.171875 53.6875 57.984375 
Q 46.6875 64.796875 31.59375 64.796875 
z
M 9.8125 72.90625 
L 30.078125 72.90625 
Q 51.265625 72.90625 61.171875 64.09375 
Q 71.09375 55.28125 71.09375 36.53125 
Q 71.09375 17.671875 61.125 8.828125 
Q 51.171875 0 30.078125 0 
L 9.8125 0 
z
" id="DejaVuSans-68"/>
     </defs>
     <g transform="translate(175.214063 339.313125)scale(0.2 -0.2)">
      <use xlink:href="#DejaVuSans-108"/>
      <use x="27.783203" xlink:href="#DejaVuSans-111"/>
      <use x="88.964844" xlink:href="#DejaVuSans-103"/>
      <use x="152.441406" xlink:href="#DejaVuSans-49"/>
      <use x="216.064453" xlink:href="#DejaVuSans-48"/>
      <use x="279.6875" xlink:href="#DejaVuSans-32"/>
      <use x="311.474609" xlink:href="#DejaVuSans-111"/>
      <use x="372.65625" xlink:href="#DejaVuSans-102"/>
      <use x="407.861328" xlink:href="#DejaVuSans-32"/>
      <use x="439.648438" xlink:href="#DejaVuSans-68"/>
      <use x="516.650391" xlink:href="#DejaVuSans-102"/>
     </g>
    </g>
   </g>
   <g id="matplotlib.axis_2">
    <g id="ytick_1">
     <g id="line2d_9">
      <path clip-path="url(#pf2dfa695bf)" d="M 0 293.76 
L 460.8 293.76 
" style="fill:none;stroke:#b0b0b0;stroke-linecap:square;stroke-width:0.8;"/>
     </g>
     <g id="line2d_10">
      <defs>
       <path d="M 0 0 
L -3.5 0 
" id="m6acf1aa992" style="stroke:#000000;stroke-width:0.8;"/>
      </defs>
      <g>
       <use style="stroke:#000000;stroke-width:0.8;" x="0" xlink:href="#m6acf1aa992" y="293.76"/>
      </g>
     </g>
    </g>
    <g id="ytick_2">
     <g id="line2d_11">
      <path clip-path="url(#pf2dfa695bf)" d="M 0 236.274059 
L 460.8 236.274059 
" style="fill:none;stroke:#b0b0b0;stroke-linecap:square;stroke-width:0.8;"/>
     </g>
     <g id="line2d_12">
      <g>
       <use style="stroke:#000000;stroke-width:0.8;" x="0" xlink:href="#m6acf1aa992" y="236.274059"/>
      </g>
     </g>
    </g>
    <g id="ytick_3">
     <g id="line2d_13">
      <path clip-path="url(#pf2dfa695bf)" d="M 0 178.788119 
L 460.8 178.788119 
" style="fill:none;stroke:#b0b0b0;stroke-linecap:square;stroke-width:0.8;"/>
     </g>
     <g id="line2d_14">
      <g>
       <use style="stroke:#000000;stroke-width:0.8;" x="0" xlink:href="#m6acf1aa992" y="178.788119"/>
      </g>
     </g>
    </g>
    <g id="ytick_4">
     <g id="line2d_15">
      <path clip-path="url(#pf2dfa695bf)" d="M 0 121.302178 
L 460.8 121.302178 
" style="fill:none;stroke:#b0b0b0;stroke-linecap:square;stroke-width:0.8;"/>
     </g>
     <g id="line2d_16">
      <g>
       <use style="stroke:#000000;stroke-width:0.8;" x="0" xlink:href="#m6acf1aa992" y="121.302178"/>
      </g>
     </g>
    </g>
    <g id="ytick_5">
     <g id="line2d_17">
      <path clip-path="url(#pf2dfa695bf)" d="M 0 63.816238 
L 460.8 63.816238 
" style="fill:none;stroke:#b0b0b0;stroke-linecap:square;stroke-width:0.8;"/>
     </g>
     <g id="line2d_18">
      <g>
       <use style="stroke:#000000;stroke-width:0.8;" x="0" xlink:href="#m6acf1aa992" y="63.816238"/>
      </g>
     </g>
    </g>
    <g id="ytick_6">
     <g id="line2d_19">
      <path clip-path="url(#pf2dfa695bf)" d="M 0 6.330297 
L 460.8 6.330297 
" style="fill:none;stroke:#b0b0b0;stroke-linecap:square;stroke-width:0.8;"/>
     </g>
     <g id="line2d_20">
      <g>
       <use style="stroke:#000000;stroke-width:0.8;" x="0" xlink:href="#m6acf1aa992" y="6.330297"/>
      </g>
     </g>
    </g>
   </g>
   <g id="line2d_21">
    <path clip-path="url(#pf2dfa695bf)" d="M 173.520414 293.76 
L 173.520414 289.927604 
L 206.303687 289.927604 
L 206.303687 286.095208 
L 211.666682 286.095208 
L 211.666682 282.262812 
L 214.806166 282.262812 
L 214.806166 278.430416 
L 216.370407 278.430416 
L 216.46142 270.765624 
L 216.988243 270.765624 
L 216.988243 266.933228 
L 217.205159 266.933228 
L 217.205159 263.100832 
L 217.575144 263.100832 
L 217.575144 259.268436 
L 218.101687 259.268436 
L 218.101687 255.43604 
L 218.476063 255.43604 
L 218.476063 251.603644 
L 219.360594 251.603644 
L 219.360594 247.771248 
L 219.525894 247.771248 
L 219.525894 243.938851 
L 219.742577 243.938851 
L 219.742577 240.106455 
L 219.882961 240.106455 
L 219.899797 232.441663 
L 220.298527 232.441663 
L 220.298527 228.609267 
L 220.883711 228.609267 
L 220.883711 224.776871 
L 221.206153 224.776871 
L 221.206153 220.944475 
L 221.649253 220.944475 
L 221.758825 209.447287 
L 222.063533 209.447287 
L 222.109951 201.782495 
L 222.831672 201.782495 
L 222.860251 194.117703 
L 222.963494 194.117703 
L 222.963494 190.285307 
L 223.324682 190.285307 
L 223.324682 186.452911 
L 223.586271 186.452911 
L 223.586271 182.620515 
L 223.961295 182.620515 
L 223.961295 178.788119 
L 224.506962 178.788119 
L 224.506962 174.955723 
L 224.626335 174.955723 
L 224.626335 171.123327 
L 225.468354 171.123327 
L 225.468354 167.290931 
L 226.127307 167.290931 
L 226.127307 163.458535 
L 226.30008 163.458535 
L 226.30008 159.626139 
L 227.041563 159.626139 
L 227.041563 155.793743 
L 228.011686 155.793743 
L 228.011686 151.961347 
L 229.919793 151.961347 
L 229.919793 148.12895 
L 230.913089 148.12895 
L 230.977358 140.464158 
L 231.362946 140.464158 
L 231.457283 125.134574 
L 232.748553 125.134574 
L 232.748553 121.302178 
L 234.652023 121.302178 
L 234.652023 117.469782 
L 234.790465 117.469782 
L 234.872791 109.80499 
L 236.020096 109.80499 
L 236.021426 102.140198 
L 236.452779 102.140198 
L 236.452779 98.307802 
L 236.881495 98.307802 
L 236.881495 94.475406 
L 238.265462 94.475406 
L 238.265462 90.64301 
L 238.388849 90.64301 
L 238.388849 86.810614 
L 238.501687 86.810614 
L 238.536192 79.145822 
L 238.653824 79.145822 
L 238.653824 75.313426 
L 238.770915 75.313426 
L 238.770915 71.48103 
L 239.09626 71.48103 
L 239.09626 67.648634 
L 241.938727 67.648634 
L 241.938727 63.816238 
L 244.722657 63.816238 
L 244.722657 59.983842 
L 245.576583 59.983842 
L 245.576583 56.151446 
L 247.209131 56.151446 
L 247.209131 52.31905 
L 247.576672 52.31905 
L 247.608727 44.654257 
L 248.014034 44.654257 
L 248.063173 36.989465 
L 248.521093 36.989465 
L 248.521093 33.157069 
L 248.648416 33.157069 
L 248.756952 25.492277 
L 249.009243 25.492277 
L 249.009243 21.659881 
L 251.303979 21.659881 
L 251.303979 17.827485 
L 252.804307 17.827485 
L 252.804307 13.995089 
L 253.661828 13.995089 
L 253.661828 10.162693 
L 257.351131 10.162693 
L 257.351131 6.330297 
L 257.351131 6.330297 
L 460.8 6.330297 
L 460.8 6.330297 
" style="fill:none;stroke:#ff0000;stroke-linecap:square;stroke-width:3;"/>
   </g>
   <g id="line2d_22">
    <path clip-path="url(#pf2dfa695bf)" d="M 230.976358 293.76 
L 230.976358 289.927604 
L 236.372045 289.927604 
L 236.429725 282.262812 
L 237.409773 282.262812 
L 237.409773 278.430416 
L 238.308424 278.430416 
L 238.308424 274.59802 
L 240.538054 274.59802 
L 240.538054 270.765624 
L 240.738295 270.765624 
L 240.738295 266.933228 
L 241.720415 266.933228 
L 241.726537 259.268436 
L 242.988844 259.268436 
L 242.988844 255.43604 
L 243.424021 255.43604 
L 243.451108 247.771248 
L 244.177036 247.771248 
L 244.177036 243.938851 
L 244.492684 243.938851 
L 244.492684 240.106455 
L 244.941909 240.106455 
L 244.941909 236.274059 
L 245.475163 236.274059 
L 245.48056 228.609267 
L 245.723947 228.609267 
L 245.723947 224.776871 
L 246.591282 224.776871 
L 246.591282 220.944475 
L 247.95744 220.944475 
L 247.95744 217.112079 
L 249.083075 217.112079 
L 249.083075 213.279683 
L 251.215251 213.279683 
L 251.215251 209.447287 
L 253.593182 209.447287 
L 253.593182 205.614891 
L 254.080034 205.614891 
L 254.091382 197.950099 
L 254.817025 197.950099 
L 254.817025 194.117703 
L 255.092436 194.117703 
L 255.092436 190.285307 
L 255.892417 190.285307 
L 255.892417 186.452911 
L 256.146503 186.452911 
L 256.244928 178.788119 
L 256.294563 178.788119 
L 256.294563 174.955723 
L 256.488371 174.955723 
L 256.488371 171.123327 
L 257.104998 171.123327 
L 257.161268 163.458535 
L 257.419963 163.458535 
L 257.427341 155.793743 
L 257.647179 155.793743 
L 257.647942 148.12895 
L 258.08544 148.12895 
L 258.163361 128.96697 
L 258.451805 128.96697 
L 258.451805 125.134574 
L 258.707627 125.134574 
L 258.707627 121.302178 
L 259.071902 121.302178 
L 259.14001 113.637386 
L 259.513984 113.637386 
L 259.513984 109.80499 
L 260.14804 109.80499 
L 260.199843 102.140198 
L 261.380727 102.140198 
L 261.380727 98.307802 
L 262.019352 98.307802 
L 262.019352 94.475406 
L 262.845521 94.475406 
L 262.845521 90.64301 
L 263.421734 90.64301 
L 263.421734 86.810614 
L 264.997625 86.810614 
L 264.997625 82.978218 
L 265.423752 82.978218 
L 265.423752 79.145822 
L 266.567574 79.145822 
L 266.573901 71.48103 
L 267.611482 71.48103 
L 267.611482 67.648634 
L 267.786027 67.648634 
L 267.786027 63.816238 
L 268.197277 63.816238 
L 268.197277 59.983842 
L 306.248528 59.983842 
L 306.248528 56.151446 
L 307.097799 56.151446 
L 307.097799 52.31905 
L 312.658703 52.31905 
L 312.658703 48.486653 
L 315.901427 48.486653 
L 315.901427 44.654257 
L 317.215921 44.654257 
L 317.215921 40.821861 
L 325.969456 40.821861 
L 325.969456 36.989465 
L 327.784941 36.989465 
L 327.784941 33.157069 
L 328.852077 33.157069 
L 328.852077 29.324673 
L 330.668422 29.324673 
L 330.668422 25.492277 
L 331.086309 25.492277 
L 331.086309 21.659881 
L 332.142064 21.659881 
L 332.189706 13.995089 
L 332.274718 13.995089 
L 332.274718 10.162693 
L 334.018618 10.162693 
L 334.018618 6.330297 
L 334.018618 6.330297 
L 460.8 6.330297 
L 460.8 6.330297 
" style="fill:none;stroke:#00bfbf;stroke-linecap:square;stroke-width:1.5;"/>
   </g>
   <g id="line2d_23">
    <path clip-path="url(#pf2dfa695bf)" d="M 225.280971 293.76 
L 225.280971 289.927604 
L 225.69332 289.927604 
L 225.69332 286.095208 
L 228.755664 286.095208 
L 228.755664 282.262812 
L 229.713028 282.262812 
L 229.713028 278.430416 
L 230.704868 278.430416 
L 230.704868 274.59802 
L 232.698828 274.59802 
L 232.698828 270.765624 
L 233.750346 270.765624 
L 233.750346 266.933228 
L 234.32713 266.933228 
L 234.32713 263.100832 
L 235.639268 263.100832 
L 235.639268 259.268436 
L 237.073566 259.268436 
L 237.073566 255.43604 
L 237.409773 255.43604 
L 237.409773 251.603644 
L 238.671545 251.603644 
L 238.671545 247.771248 
L 239.232183 247.771248 
L 239.332913 240.106455 
L 240.274333 240.106455 
L 240.274333 236.274059 
L 241.902456 236.274059 
L 241.902456 232.441663 
L 243.361918 232.441663 
L 243.424021 224.776871 
L 244.941909 224.776871 
L 244.941909 220.944475 
L 245.475163 220.944475 
L 245.475163 217.112079 
L 245.723947 217.112079 
L 245.723947 213.279683 
L 248.663365 213.279683 
L 248.663365 209.447287 
L 249.083075 209.447287 
L 249.083075 205.614891 
L 251.215251 205.614891 
L 251.215251 201.782495 
L 251.634608 201.782495 
L 251.634608 197.950099 
L 252.511121 197.950099 
L 252.511121 194.117703 
L 252.828733 194.117703 
L 252.828733 190.285307 
L 253.593182 190.285307 
L 253.593182 186.452911 
L 254.080034 186.452911 
L 254.091382 178.788119 
L 254.817025 178.788119 
L 254.817025 174.955723 
L 255.210823 174.955723 
L 255.210823 171.123327 
L 255.458523 171.123327 
L 255.555411 163.458535 
L 255.680084 163.458535 
L 255.726571 155.793743 
L 255.843649 155.793743 
L 255.843649 151.961347 
L 256.049748 151.961347 
L 256.049748 148.12895 
L 256.331381 148.12895 
L 256.427875 136.631762 
L 256.832584 136.631762 
L 256.832584 132.799366 
L 256.951445 132.799366 
L 256.951445 128.96697 
L 257.104998 128.96697 
L 257.161268 121.302178 
L 257.230331 121.302178 
L 257.32402 113.637386 
L 257.354465 113.637386 
L 257.419963 105.972594 
L 257.647179 105.972594 
L 257.647179 102.140198 
L 257.988304 102.140198 
L 257.988304 98.307802 
L 258.163361 98.307802 
L 258.163361 94.475406 
L 258.786965 94.475406 
L 258.809616 86.810614 
L 259.071902 86.810614 
L 259.071902 82.978218 
L 261.380727 82.978218 
L 261.380727 79.145822 
L 262.019352 79.145822 
L 262.019352 75.313426 
L 262.942604 75.313426 
L 262.962708 67.648634 
L 263.453389 67.648634 
L 263.453389 63.816238 
L 263.792365 63.816238 
L 263.792365 59.983842 
L 266.121041 59.983842 
L 266.121041 56.151446 
L 296.664197 56.151446 
L 296.664197 52.31905 
L 300.890176 52.31905 
L 300.890176 48.486653 
L 306.090937 48.486653 
L 306.090937 44.654257 
L 306.248528 44.654257 
L 306.248528 40.821861 
L 307.097799 40.821861 
L 307.097799 36.989465 
L 311.162762 36.989465 
L 311.253586 29.324673 
L 311.675166 29.324673 
L 311.675166 25.492277 
L 312.881196 25.492277 
L 312.881196 21.659881 
L 315.901427 21.659881 
L 315.901427 17.827485 
L 317.215921 17.827485 
L 317.215921 13.995089 
L 317.66903 13.995089 
L 317.66903 10.162693 
L 324.322958 10.162693 
L 324.322958 6.330297 
L 324.322958 6.330297 
L 460.8 6.330297 
L 460.8 6.330297 
" style="fill:none;stroke:#bf00bf;stroke-linecap:square;stroke-width:1.5;"/>
   </g>
   <g id="line2d_24">
    <path clip-path="url(#pf2dfa695bf)" d="M 221.695236 293.76 
L 221.695236 289.927604 
L 222.677016 289.927604 
L 222.677016 286.095208 
L 224.142299 286.095208 
L 224.142299 282.262812 
L 225.280971 282.262812 
L 225.280971 278.430416 
L 225.69332 278.430416 
L 225.69332 274.59802 
L 228.011129 274.59802 
L 228.011129 270.765624 
L 228.611381 270.765624 
L 228.611381 266.933228 
L 229.095661 266.933228 
L 229.095661 263.100832 
L 229.713028 263.100832 
L 229.713028 259.268436 
L 230.666351 259.268436 
L 230.71618 247.771248 
L 230.956355 247.771248 
L 230.956355 243.938851 
L 233.750346 243.938851 
L 233.750346 240.106455 
L 234.443419 240.106455 
L 234.447665 232.441663 
L 235.639268 232.441663 
L 235.639268 228.609267 
L 236.562406 228.609267 
L 236.562406 224.776871 
L 237.016474 224.776871 
L 237.016474 220.944475 
L 239.299633 220.944475 
L 239.299633 217.112079 
L 240.735625 217.112079 
L 240.735625 213.279683 
L 243.361918 213.279683 
L 243.361918 209.447287 
L 243.893982 209.447287 
L 243.893982 205.614891 
L 244.160106 205.614891 
L 244.160106 201.782495 
L 244.385354 201.782495 
L 244.385354 197.950099 
L 244.755104 197.950099 
L 244.755104 194.117703 
L 244.941909 194.117703 
L 244.941909 190.285307 
L 245.096841 190.285307 
L 245.096841 186.452911 
L 245.444964 186.452911 
L 245.475163 178.788119 
L 245.723947 178.788119 
L 245.723947 174.955723 
L 248.204563 174.955723 
L 248.204563 171.123327 
L 248.663365 171.123327 
L 248.663365 167.290931 
L 249.083075 167.290931 
L 249.083075 163.458535 
L 251.043999 163.458535 
L 251.154144 151.961347 
L 251.215251 151.961347 
L 251.215251 148.12895 
L 251.634608 148.12895 
L 251.634608 144.296554 
L 252.511121 144.296554 
L 252.511121 140.464158 
L 252.828733 140.464158 
L 252.828733 136.631762 
L 253.282386 136.631762 
L 253.282386 132.799366 
L 253.994445 132.799366 
L 253.994445 128.96697 
L 255.225345 128.96697 
L 255.225345 125.134574 
L 255.524729 125.134574 
L 255.524729 121.302178 
L 255.680084 121.302178 
L 255.76889 113.637386 
L 255.818448 113.637386 
L 255.843649 105.972594 
L 255.950477 105.972594 
L 255.950477 102.140198 
L 256.29169 102.140198 
L 256.331381 94.475406 
L 256.70827 94.475406 
L 256.70827 90.64301 
L 256.951445 90.64301 
L 256.951445 86.810614 
L 257.32402 86.810614 
L 257.32402 82.978218 
L 257.647179 82.978218 
L 257.647179 79.145822 
L 257.893834 79.145822 
L 257.893834 75.313426 
L 258.710316 75.313426 
L 258.710316 71.48103 
L 259.071902 71.48103 
L 259.078566 63.816238 
L 259.544502 63.816238 
L 259.544502 59.983842 
L 260.655238 59.983842 
L 260.655238 56.151446 
L 266.121041 56.151446 
L 266.121041 52.31905 
L 285.590178 52.31905 
L 285.590178 48.486653 
L 300.190226 48.486653 
L 300.190226 44.654257 
L 300.890176 44.654257 
L 300.890176 40.821861 
L 301.655288 40.821861 
L 301.655288 36.989465 
L 304.696331 36.989465 
L 304.696331 33.157069 
L 304.882573 33.157069 
L 304.882573 29.324673 
L 307.112294 29.324673 
L 307.112294 25.492277 
L 309.918324 25.492277 
L 309.918324 21.659881 
L 310.178393 21.659881 
L 310.178393 17.827485 
L 311.253586 17.827485 
L 311.253586 13.995089 
L 312.445249 13.995089 
L 312.445249 10.162693 
L 320.092473 10.162693 
L 320.092473 6.330297 
L 320.092473 6.330297 
L 460.8 6.330297 
L 460.8 6.330297 
" style="fill:none;stroke:#000000;stroke-linecap:square;stroke-width:1.5;"/>
   </g>
   <g id="line2d_25">
    <path clip-path="url(#pf2dfa695bf)" d="M 218.358486 293.76 
L 218.358486 289.927604 
L 218.79995 289.927604 
L 218.79995 286.095208 
L 219.525894 286.095208 
L 219.525894 282.262812 
L 220.738247 282.262812 
L 220.738247 278.430416 
L 221.695236 278.430416 
L 221.695236 274.59802 
L 222.677016 274.59802 
L 222.677016 270.765624 
L 222.963494 270.765624 
L 222.963494 266.933228 
L 223.961295 266.933228 
L 223.961295 263.100832 
L 224.676016 263.100832 
L 224.676016 259.268436 
L 225.441521 259.268436 
L 225.441521 255.43604 
L 225.69332 255.43604 
L 225.69332 251.603644 
L 226.462652 251.603644 
L 226.462652 247.771248 
L 226.940938 247.771248 
L 227.032977 240.106455 
L 227.755843 240.106455 
L 227.755843 236.274059 
L 228.011129 236.274059 
L 228.07983 228.609267 
L 228.880446 228.609267 
L 228.880446 224.776871 
L 230.956355 224.776871 
L 230.956355 220.944475 
L 231.362946 220.944475 
L 231.362946 217.112079 
L 233.010698 217.112079 
L 233.010698 213.279683 
L 233.952275 213.279683 
L 233.952275 209.447287 
L 234.443419 209.447287 
L 234.443419 205.614891 
L 234.675009 205.614891 
L 234.675009 201.782495 
L 234.903337 201.782495 
L 234.903337 197.950099 
L 236.562406 197.950099 
L 236.562406 194.117703 
L 237.143035 194.117703 
L 237.143035 190.285307 
L 237.384085 190.285307 
L 237.384085 186.452911 
L 239.057877 186.452911 
L 239.057877 182.620515 
L 239.299633 182.620515 
L 239.299633 178.788119 
L 241.120776 178.788119 
L 241.120776 174.955723 
L 242.776641 174.955723 
L 242.776641 171.123327 
L 243.024365 171.123327 
L 243.101873 163.458535 
L 243.459862 163.458535 
L 243.459862 159.626139 
L 244.034571 159.626139 
L 244.034596 151.961347 
L 244.160106 151.961347 
L 244.160106 148.12895 
L 244.385354 148.12895 
L 244.385354 144.296554 
L 244.941909 144.296554 
L 244.941909 140.464158 
L 245.096841 140.464158 
L 245.096841 136.631762 
L 246.344139 136.631762 
L 246.344139 132.799366 
L 247.44255 132.799366 
L 247.44255 128.96697 
L 247.661721 128.96697 
L 247.661721 125.134574 
L 248.663365 125.134574 
L 248.663365 121.302178 
L 250.747469 121.302178 
L 250.747469 117.469782 
L 251.041851 117.469782 
L 251.084543 109.80499 
L 253.228425 109.80499 
L 253.228425 105.972594 
L 253.348634 105.972594 
L 253.348634 102.140198 
L 253.955636 102.140198 
L 253.955636 98.307802 
L 254.353837 98.307802 
L 254.353837 94.475406 
L 254.736386 94.475406 
L 254.736386 90.64301 
L 255.680084 90.64301 
L 255.784637 75.313426 
L 255.818448 75.313426 
L 255.843649 67.648634 
L 255.950477 67.648634 
L 255.950477 63.816238 
L 256.331381 63.816238 
L 256.331381 59.983842 
L 256.70827 59.983842 
L 256.70827 56.151446 
L 259.071902 56.151446 
L 259.071902 52.31905 
L 264.616477 52.31905 
L 264.616477 48.486653 
L 277.641298 48.486653 
L 277.641298 44.654257 
L 281.709966 44.654257 
L 281.709966 40.821861 
L 282.420649 40.821861 
L 282.420649 36.989465 
L 285.590178 36.989465 
L 285.590178 33.157069 
L 295.69327 33.157069 
L 295.69327 29.324673 
L 297.208653 29.324673 
L 297.208653 25.492277 
L 297.70781 25.492277 
L 297.70781 21.659881 
L 298.091861 21.659881 
L 298.091861 17.827485 
L 300.890176 17.827485 
L 300.890176 13.995089 
L 303.47202 13.995089 
L 303.47202 10.162693 
L 306.401987 10.162693 
L 306.401987 6.330297 
L 306.401987 6.330297 
L 460.8 6.330297 
L 460.8 6.330297 
" style="fill:none;stroke:#00bfbf;stroke-linecap:square;stroke-width:1.5;"/>
   </g>
   <g id="line2d_26">
    <path clip-path="url(#pf2dfa695bf)" d="M 173.520414 293.76 
L 173.520414 289.927604 
L 206.303687 289.927604 
L 206.303687 286.095208 
L 211.666682 286.095208 
L 211.666682 282.262812 
L 214.806166 282.262812 
L 214.806166 278.430416 
L 216.46142 278.430416 
L 216.528868 270.765624 
L 217.071679 270.765624 
L 217.071679 266.933228 
L 217.205159 266.933228 
L 217.205159 263.100832 
L 217.575144 263.100832 
L 217.575144 259.268436 
L 218.101687 259.268436 
L 218.101687 255.43604 
L 219.13409 255.43604 
L 219.13409 251.603644 
L 219.360594 251.603644 
L 219.360594 247.771248 
L 219.525894 247.771248 
L 219.525894 243.938851 
L 219.882961 243.938851 
L 219.899797 236.274059 
L 220.04928 236.274059 
L 220.04928 232.441663 
L 220.298527 232.441663 
L 220.298527 228.609267 
L 220.883711 228.609267 
L 220.883711 224.776871 
L 221.206153 224.776871 
L 221.206153 220.944475 
L 221.649253 220.944475 
L 221.758825 209.447287 
L 222.063533 209.447287 
L 222.109951 201.782495 
L 222.860251 201.782495 
L 222.963494 194.117703 
L 222.987602 194.117703 
L 222.987602 190.285307 
L 223.324682 190.285307 
L 223.324682 186.452911 
L 223.961295 186.452911 
L 224.059965 178.788119 
L 224.506962 178.788119 
L 224.506962 174.955723 
L 224.626335 174.955723 
L 224.626335 171.123327 
L 226.127307 171.123327 
L 226.127307 167.290931 
L 226.30008 167.290931 
L 226.30008 163.458535 
L 227.041563 163.458535 
L 227.041563 159.626139 
L 228.011686 159.626139 
L 228.011686 155.793743 
L 228.455044 155.793743 
L 228.455044 151.961347 
L 229.919793 151.961347 
L 229.919793 148.12895 
L 231.362946 148.12895 
L 231.457283 132.799366 
L 231.563449 132.799366 
L 231.563449 128.96697 
L 232.349039 128.96697 
L 232.349039 125.134574 
L 232.794274 125.134574 
L 232.794274 121.302178 
L 234.652023 121.302178 
L 234.652023 117.469782 
L 234.790465 117.469782 
L 234.790465 113.637386 
L 235.795228 113.637386 
L 235.795228 109.80499 
L 236.021426 109.80499 
L 236.021426 105.972594 
L 236.246125 105.972594 
L 236.246125 102.140198 
L 236.452779 102.140198 
L 236.452779 98.307802 
L 236.881495 98.307802 
L 236.881495 94.475406 
L 238.388849 94.475406 
L 238.388849 90.64301 
L 238.501687 90.64301 
L 238.536192 82.978218 
L 238.653824 82.978218 
L 238.653824 79.145822 
L 238.770915 79.145822 
L 238.797706 71.48103 
L 239.09626 71.48103 
L 239.09626 67.648634 
L 243.764476 67.648634 
L 243.764476 63.816238 
L 244.722657 63.816238 
L 244.722657 59.983842 
L 245.576583 59.983842 
L 245.576583 56.151446 
L 247.209131 56.151446 
L 247.209131 52.31905 
L 247.608727 52.31905 
L 247.608727 48.486653 
L 248.063173 48.486653 
L 248.064905 40.821861 
L 248.521093 40.821861 
L 248.521093 36.989465 
L 248.756952 36.989465 
L 248.825453 29.324673 
L 249.009243 29.324673 
L 249.009243 25.492277 
L 249.185574 25.492277 
L 249.185574 21.659881 
L 251.303979 21.659881 
L 251.303979 17.827485 
L 252.804307 17.827485 
L 252.804307 13.995089 
L 253.661828 13.995089 
L 253.661828 10.162693 
L 257.351131 10.162693 
L 257.351131 6.330297 
L 257.351131 6.330297 
L 460.8 6.330297 
L 460.8 6.330297 
" style="fill:none;stroke:#bf00bf;stroke-linecap:square;stroke-width:1.5;"/>
   </g>
   <g id="patch_3">
    <path d="M 0 293.76 
L 0 3.456 
" style="fill:none;stroke:#000000;stroke-linecap:square;stroke-linejoin:miter;stroke-width:0.8;"/>
   </g>
   <g id="patch_4">
    <path d="M 460.8 293.76 
L 460.8 3.456 
" style="fill:none;stroke:#000000;stroke-linecap:square;stroke-linejoin:miter;stroke-width:0.8;"/>
   </g>
   <g id="patch_5">
    <path d="M 0 293.76 
L 460.8 293.76 
" style="fill:none;stroke:#000000;stroke-linecap:square;stroke-linejoin:miter;stroke-width:0.8;"/>
   </g>
   <g id="patch_6">
    <path d="M 0 3.456 
L 460.8 3.456 
" style="fill:none;stroke:#000000;stroke-linecap:square;stroke-linejoin:miter;stroke-width:0.8;"/>
   </g>
   <g id="text_6">
    <!-- {f20-f24}, 5-D -->
    <defs>
     <path d="M 51.125 -9.28125 
L 51.125 -16.3125 
L 48.09375 -16.3125 
Q 35.9375 -16.3125 31.8125 -12.6875 
Q 27.6875 -9.078125 27.6875 1.703125 
L 27.6875 13.375 
Q 27.6875 20.75 25.046875 23.578125 
Q 22.40625 26.421875 15.484375 26.421875 
L 12.5 26.421875 
L 12.5 33.40625 
L 15.484375 33.40625 
Q 22.46875 33.40625 25.078125 36.203125 
Q 27.6875 39.015625 27.6875 46.296875 
L 27.6875 58.015625 
Q 27.6875 68.796875 31.8125 72.390625 
Q 35.9375 75.984375 48.09375 75.984375 
L 51.125 75.984375 
L 51.125 69 
L 47.796875 69 
Q 40.921875 69 38.8125 66.84375 
Q 36.71875 64.703125 36.71875 57.8125 
L 36.71875 45.703125 
Q 36.71875 38.03125 34.5 34.5625 
Q 32.28125 31.109375 26.90625 29.890625 
Q 32.328125 28.5625 34.515625 25.09375 
Q 36.71875 21.625 36.71875 14.015625 
L 36.71875 1.90625 
Q 36.71875 -4.984375 38.8125 -7.125 
Q 40.921875 -9.28125 47.796875 -9.28125 
z
" id="DejaVuSans-123"/>
     <path d="M 19.1875 8.296875 
L 53.609375 8.296875 
L 53.609375 0 
L 7.328125 0 
L 7.328125 8.296875 
Q 12.9375 14.109375 22.625 23.890625 
Q 32.328125 33.6875 34.8125 36.53125 
Q 39.546875 41.84375 41.421875 45.53125 
Q 43.3125 49.21875 43.3125 52.78125 
Q 43.3125 58.59375 39.234375 62.25 
Q 35.15625 65.921875 28.609375 65.921875 
Q 23.96875 65.921875 18.8125 64.3125 
Q 13.671875 62.703125 7.8125 59.421875 
L 7.8125 69.390625 
Q 13.765625 71.78125 18.9375 73 
Q 24.125 74.21875 28.421875 74.21875 
Q 39.75 74.21875 46.484375 68.546875 
Q 53.21875 62.890625 53.21875 53.421875 
Q 53.21875 48.921875 51.53125 44.890625 
Q 49.859375 40.875 45.40625 35.40625 
Q 44.1875 33.984375 37.640625 27.21875 
Q 31.109375 20.453125 19.1875 8.296875 
z
" id="DejaVuSans-50"/>
     <path d="M 12.5 -9.28125 
L 15.921875 -9.28125 
Q 22.75 -9.28125 24.828125 -7.171875 
Q 26.90625 -5.078125 26.90625 1.90625 
L 26.90625 14.015625 
Q 26.90625 21.625 29.09375 25.09375 
Q 31.296875 28.5625 36.71875 29.890625 
Q 31.296875 31.109375 29.09375 34.5625 
Q 26.90625 38.03125 26.90625 45.703125 
L 26.90625 57.8125 
Q 26.90625 64.75 24.828125 66.875 
Q 22.75 69 15.921875 69 
L 12.5 69 
L 12.5 75.984375 
L 15.578125 75.984375 
Q 27.734375 75.984375 31.8125 72.390625 
Q 35.890625 68.796875 35.890625 58.015625 
L 35.890625 46.296875 
Q 35.890625 39.015625 38.515625 36.203125 
Q 41.15625 33.40625 48.09375 33.40625 
L 51.125 33.40625 
L 51.125 26.421875 
L 48.09375 26.421875 
Q 41.15625 26.421875 38.515625 23.578125 
Q 35.890625 20.75 35.890625 13.375 
L 35.890625 1.703125 
Q 35.890625 -9.078125 31.8125 -12.6875 
Q 27.734375 -16.3125 15.578125 -16.3125 
L 12.5 -16.3125 
z
" id="DejaVuSans-125"/>
     <path d="M 11.71875 12.40625 
L 22.015625 12.40625 
L 22.015625 4 
L 14.015625 -11.625 
L 7.71875 -11.625 
L 11.71875 4 
z
" id="DejaVuSans-44"/>
     <path d="M 10.796875 72.90625 
L 49.515625 72.90625 
L 49.515625 64.59375 
L 19.828125 64.59375 
L 19.828125 46.734375 
Q 21.96875 47.46875 24.109375 47.828125 
Q 26.265625 48.1875 28.421875 48.1875 
Q 40.625 48.1875 47.75 41.5 
Q 54.890625 34.8125 54.890625 23.390625 
Q 54.890625 11.625 47.5625 5.09375 
Q 40.234375 -1.421875 26.90625 -1.421875 
Q 22.3125 -1.421875 17.546875 -0.640625 
Q 12.796875 0.140625 7.71875 1.703125 
L 7.71875 11.625 
Q 12.109375 9.234375 16.796875 8.0625 
Q 21.484375 6.890625 26.703125 6.890625 
Q 35.15625 6.890625 40.078125 11.328125 
Q 45.015625 15.765625 45.015625 23.390625 
Q 45.015625 31 40.078125 35.4375 
Q 35.15625 39.890625 26.703125 39.890625 
Q 22.75 39.890625 18.8125 39.015625 
Q 14.890625 38.140625 10.796875 36.28125 
z
" id="DejaVuSans-53"/>
    </defs>
    <g transform="translate(305.884 287.95392)scale(0.2 -0.2)">
     <use xlink:href="#DejaVuSans-123"/>
     <use x="63.623047" xlink:href="#DejaVuSans-102"/>
     <use x="98.828125" xlink:href="#DejaVuSans-50"/>
     <use x="162.451172" xlink:href="#DejaVuSans-48"/>
     <use x="226.074219" xlink:href="#DejaVuSans-45"/>
     <use x="262.158203" xlink:href="#DejaVuSans-102"/>
     <use x="297.363281" xlink:href="#DejaVuSans-50"/>
     <use x="360.986328" xlink:href="#DejaVuSans-52"/>
     <use x="424.609375" xlink:href="#DejaVuSans-125"/>
     <use x="488.232422" xlink:href="#DejaVuSans-44"/>
     <use x="520.019531" xlink:href="#DejaVuSans-32"/>
     <use x="551.806641" xlink:href="#DejaVuSans-53"/>
     <use x="615.429688" xlink:href="#DejaVuSans-45"/>
     <use x="651.513672" xlink:href="#DejaVuSans-68"/>
    </g>
   </g>
   <g id="text_7">
    <!-- v2.4 -->
    <defs>
     <path d="M 2.984375 54.6875 
L 12.5 54.6875 
L 29.59375 8.796875 
L 46.6875 54.6875 
L 56.203125 54.6875 
L 35.6875 0 
L 23.484375 0 
z
" id="DejaVuSans-118"/>
     <path d="M 10.6875 12.40625 
L 21 12.40625 
L 21 0 
L 10.6875 0 
z
" id="DejaVuSans-46"/>
    </defs>
    <g style="fill:#808080;" transform="translate(219.489063 288.777272)scale(0.1 -0.1)">
     <use xlink:href="#DejaVuSans-118"/>
     <use x="59.179688" xlink:href="#DejaVuSans-50"/>
     <use x="122.802734" xlink:href="#DejaVuSans-46"/>
     <use x="154.589844" xlink:href="#DejaVuSans-52"/>
    </g>
   </g>
  </g>
 </g>
 <defs>
  <clipPath id="pf2dfa695bf">
   <rect height="290.304" width="460.8" x="0" y="3.456"/>
  </clipPath>
 </defs>
</svg>
