<?xml version="1.0" encoding="utf-8" standalone="no"?>
<!DOCTYPE svg PUBLIC "-//W3C//DTD SVG 1.1//EN"
  "http://www.w3.org/Graphics/SVG/1.1/DTD/svg11.dtd">
<!-- Created with matplotlib (https://matplotlib.org/) -->
<svg height="345.6pt" version="1.1" viewBox="0 0 460.8 345.6" width="460.8pt" xmlns="http://www.w3.org/2000/svg" xmlns:xlink="http://www.w3.org/1999/xlink">
 <defs>
  <style type="text/css">
*{stroke-linecap:butt;stroke-linejoin:round;}
  </style>
 </defs>
 <g id="figure_1">
  <g id="patch_1">
   <path d="M 0 345.6 
L 460.8 345.6 
L 460.8 0 
L 0 0 
z
" style="fill:#ffffff;"/>
  </g>
  <g id="axes_1">
   <g id="patch_2">
    <path d="M 62.208 293.76 
L 460.8 293.76 
L 460.8 3.456 
L 62.208 3.456 
z
" style="fill:#ffffff;"/>
   </g>
   <g id="line2d_1">
    <path clip-path="url(#p807258b067)" d="M 415.401896 293.76 
L 415.401896 292.163168 
L 415.926964 292.163168 
L 415.926964 289.767921 
L 416.188283 289.767921 
L 416.188283 288.171089 
L 416.967445 288.171089 
L 416.967445 287.372673 
L 419.262873 287.372673 
L 419.262873 285.775842 
L 420.759349 285.775842 
L 420.759349 284.977426 
L 421.497799 284.977426 
L 421.497799 284.17901 
L 424.151727 284.17901 
L 424.151727 283.380594 
L 427.184722 283.380594 
L 427.184722 282.582178 
L 429.668999 282.582178 
L 429.668999 281.783762 
L 433.795715 281.783762 
L 433.795715 280.985347 
L 441.684899 280.985347 
L 441.684899 280.186931 
L 444.159544 280.186931 
L 444.159544 279.388515 
L 447.109342 279.388515 
L 447.109342 278.590099 
L 447.470955 278.590099 
L 447.470955 277.791683 
L 448.189587 277.791683 
L 448.189587 276.993267 
L 448.546633 276.993267 
L 448.546633 276.194851 
L 450.483954 276.194851 
L 450.483954 275.396436 
L 451.004722 275.396436 
L 451.004722 273.799604 
L 451.350132 273.799604 
L 451.350132 273.001188 
L 452.207553 273.001188 
L 452.207553 272.202772 
L 452.378001 272.202772 
L 452.378001 271.404356 
L 453.39356 271.404356 
L 453.39356 269.807525 
L 454.563208 269.807525 
L 454.563208 269.009109 
L 455.059589 269.009109 
L 455.059589 267.412277 
L 456.206634 267.412277 
L 456.206634 266.613861 
L 457.97836 266.613861 
L 457.97836 265.815446 
L 461.8 265.815446 
L 461.8 265.815446 
" style="fill:none;stroke:#f5deb3;stroke-linecap:square;stroke-width:1.5;"/>
   </g>
   <g id="line2d_2">
    <path clip-path="url(#p807258b067)" d="M 339.783185 293.76 
L 339.783185 291.364752 
L 339.783185 291.364752 
L 339.783185 288.969505 
L 340.423174 288.969505 
L 340.423174 286.574257 
L 340.423174 286.574257 
L 340.423174 284.17901 
L 340.423174 284.17901 
L 340.423174 281.783762 
L 461.8 281.783762 
" style="fill:none;stroke:#f5deb3;stroke-linecap:square;stroke-width:1.5;"/>
   </g>
   <g id="line2d_3">
    <path clip-path="url(#p807258b067)" d="M 187.845312 293.76 
L 187.845312 278.590099 
L 191.614739 278.590099 
L 191.614739 276.194851 
L 195.223715 276.194851 
L 195.223715 274.59802 
L 198.685344 274.59802 
L 198.685344 272.202772 
L 202.011188 272.202772 
L 202.011188 271.404356 
L 205.211497 271.404356 
L 205.211497 270.605941 
L 219.61862 270.605941 
L 219.61862 269.807525 
L 285.995157 269.807525 
L 285.995157 269.009109 
L 288.383995 269.009109 
L 288.383995 268.210693 
L 310.08667 268.210693 
L 310.08667 267.412277 
L 310.993611 267.412277 
L 310.993611 266.613861 
L 350.056004 266.613861 
L 350.056004 265.815446 
L 360.233279 265.815446 
L 360.233279 265.01703 
L 391.182375 265.01703 
L 391.182375 264.218614 
L 391.532058 264.218614 
L 391.532058 263.420198 
L 393.259168 263.420198 
L 393.259168 262.621782 
L 397.591646 262.621782 
L 397.591646 261.823366 
L 400.466434 261.823366 
L 400.466434 261.02495 
L 403.550343 261.02495 
L 403.550343 260.226535 
L 407.108829 260.226535 
L 407.108829 259.428119 
L 409.117678 259.428119 
L 409.117678 258.629703 
L 409.683001 258.629703 
L 409.683001 257.831287 
L 410.24458 257.831287 
L 410.24458 257.032871 
L 412.454428 257.032871 
L 412.454428 256.234455 
L 413.8069 256.234455 
L 413.8069 255.43604 
L 416.967445 255.43604 
L 416.967445 254.637624 
L 419.764638 254.637624 
L 419.764638 253.040792 
L 426.72511 253.040792 
L 426.72511 252.242376 
L 427.184722 252.242376 
L 427.184722 251.44396 
L 429.446139 251.44396 
L 429.446139 250.645545 
L 432.729058 250.645545 
L 432.729058 249.847129 
L 436.096176 249.847129 
L 436.096176 249.048713 
L 440.321869 249.048713 
L 440.321869 248.250297 
L 443.594848 248.250297 
L 443.594848 247.451881 
L 445.462724 247.451881 
L 445.462724 246.653465 
L 446.015157 246.653465 
L 446.015157 245.85505 
L 446.381456 245.85505 
L 446.381456 244.258218 
L 447.470955 244.258218 
L 447.470955 243.459802 
L 448.546633 243.459802 
L 448.546633 242.661386 
L 450.657899 242.661386 
L 450.657899 241.86297 
L 461.8 241.86297 
L 461.8 241.86297 
" style="fill:none;stroke:#f5deb3;stroke-linecap:square;stroke-width:1.5;"/>
   </g>
   <g id="line2d_4">
    <path clip-path="url(#p807258b067)" d="M 136.446122 293.76 
L 136.446122 292.961584 
L 170.82881 292.961584 
L 170.82881 292.163168 
L 191.614739 292.163168 
L 191.614739 291.364752 
L 195.223715 291.364752 
L 195.223715 290.566337 
L 205.211497 290.566337 
L 205.211497 289.767921 
L 214.145873 289.767921 
L 214.145873 288.969505 
L 219.61862 288.969505 
L 219.61862 288.171089 
L 222.227999 288.171089 
L 222.227999 285.775842 
L 229.606403 285.775842 
L 229.606403 284.977426 
L 236.393875 284.977426 
L 236.393875 284.17901 
L 238.540778 284.17901 
L 238.540778 283.380594 
L 244.673436 283.380594 
L 244.673436 282.582178 
L 257.462937 282.582178 
L 257.462937 281.783762 
L 413.8069 281.783762 
L 413.8069 280.985347 
L 415.664836 280.985347 
L 415.664836 280.186931 
L 429.891275 280.186931 
L 429.891275 279.388515 
L 434.639485 279.388515 
L 434.639485 278.590099 
L 437.528265 278.590099 
L 437.528265 277.791683 
L 438.536579 277.791683 
L 438.536579 276.993267 
L 438.736811 276.993267 
L 438.736811 276.194851 
L 439.334685 276.194851 
L 439.334685 275.396436 
L 439.730938 275.396436 
L 439.730938 274.59802 
L 440.908709 274.59802 
L 440.908709 273.799604 
L 441.297692 273.799604 
L 441.297692 273.001188 
L 442.070346 273.001188 
L 442.070346 272.202772 
L 443.971729 272.202772 
L 443.971729 271.404356 
L 448.189587 271.404356 
L 448.189587 270.605941 
L 448.546633 270.605941 
L 448.546633 269.807525 
L 449.959968 269.807525 
L 449.959968 269.009109 
L 454.563208 269.009109 
L 454.563208 268.210693 
L 459.713824 268.210693 
L 459.713824 267.412277 
L 459.869847 267.412277 
L 459.869847 266.613861 
L 461.8 266.613861 
L 461.8 266.613861 
" style="fill:none;stroke:#f5deb3;stroke-linecap:square;stroke-width:1.5;"/>
   </g>
   <g id="line2d_5">
    <path clip-path="url(#p807258b067)" d="M 439.928373 293.76 
L 439.928373 292.961584 
L 459.086848 292.961584 
L 459.086848 292.163168 
L 461.8 292.163168 
" style="fill:none;stroke:#f5deb3;stroke-linecap:square;stroke-width:1.5;"/>
   </g>
   <g id="line2d_6"/>
   <g id="line2d_7">
    <path clip-path="url(#p807258b067)" d="M 333.794947 293.76 
L 333.794947 292.961584 
L 336.508719 292.961584 
L 336.508719 292.163168 
L 342.935895 292.163168 
L 342.935895 291.364752 
L 345.975581 291.364752 
L 345.975581 290.566337 
L 347.748429 290.566337 
L 347.748429 289.767921 
L 351.746388 289.767921 
L 351.746388 288.171089 
L 352.854876 288.171089 
L 352.854876 287.372673 
L 353.403733 287.372673 
L 353.403733 286.574257 
L 354.490904 286.574257 
L 354.490904 285.775842 
L 357.671207 285.775842 
L 357.671207 284.977426 
L 359.72702 284.977426 
L 359.72702 284.17901 
L 360.233279 284.17901 
L 360.233279 283.380594 
L 361.734171 283.380594 
L 361.734171 282.582178 
L 367.485401 282.582178 
L 367.485401 281.783762 
L 461.8 281.783762 
L 461.8 281.783762 
" style="fill:none;stroke:#f5deb3;stroke-linecap:square;stroke-width:1.5;"/>
   </g>
   <g id="line2d_8">
    <path clip-path="url(#p807258b067)" d="M 0 0 
" style="fill:none;stroke:#f5deb3;stroke-linecap:square;stroke-width:1.5;"/>
   </g>
   <g id="line2d_9">
    <path clip-path="url(#p807258b067)" d="M 227.217565 293.76 
L 227.217565 292.961584 
L 236.393875 292.961584 
L 236.393875 292.163168 
L 242.678094 292.163168 
L 242.678094 291.364752 
L 252.216018 291.364752 
L 252.216018 290.566337 
L 254.001308 290.566337 
L 254.001308 289.767921 
L 274.32512 289.767921 
L 274.32512 288.969505 
L 279.710939 288.969505 
L 279.710939 288.171089 
L 291.845625 288.171089 
L 291.845625 286.574257 
L 297.318371 286.574257 
L 297.318371 284.977426 
L 302.459227 284.977426 
L 302.459227 284.17901 
L 303.451029 284.17901 
L 303.451029 283.380594 
L 304.431365 283.380594 
L 304.431365 282.582178 
L 305.400497 282.582178 
L 305.400497 281.783762 
L 429.891275 281.783762 
L 429.891275 280.985347 
L 446.927955 280.985347 
L 446.927955 280.186931 
L 457.177616 280.186931 
L 457.177616 279.388515 
L 461.8 279.388515 
L 461.8 279.388515 
" style="fill:none;stroke:#f5deb3;stroke-linecap:square;stroke-width:1.5;"/>
   </g>
   <g id="line2d_10">
    <path clip-path="url(#p807258b067)" d="M 317.084299 293.76 
L 317.084299 292.961584 
L 332.404782 292.961584 
L 332.404782 292.163168 
L 333.102713 292.163168 
L 333.102713 289.767921 
L 335.838374 289.767921 
L 335.838374 288.969505 
L 337.833717 288.969505 
L 337.833717 288.171089 
L 346.570658 288.171089 
L 346.570658 287.372673 
L 347.748429 287.372673 
L 347.748429 286.574257 
L 359.217721 286.574257 
L 359.217721 285.775842 
L 365.136272 285.775842 
L 365.136272 284.977426 
L 379.155438 284.977426 
L 379.155438 284.17901 
L 379.55828 284.17901 
L 379.55828 283.380594 
L 393.600408 283.380594 
L 393.600408 282.582178 
L 395.286312 282.582178 
L 395.286312 281.783762 
L 461.8 281.783762 
L 461.8 281.783762 
" style="fill:none;stroke:#f5deb3;stroke-linecap:square;stroke-width:1.5;"/>
   </g>
   <g id="line2d_11">
    <path clip-path="url(#p807258b067)" d="M 155.368281 293.76 
L 155.368281 292.961584 
L 179.763186 292.961584 
L 179.763186 292.163168 
L 183.900501 292.163168 
L 183.900501 289.767921 
L 187.845312 289.767921 
L 187.845312 288.171089 
L 191.614739 288.171089 
L 191.614739 286.574257 
L 205.211497 286.574257 
L 205.211497 284.977426 
L 222.227999 284.977426 
L 222.227999 283.380594 
L 231.929785 283.380594 
L 231.929785 282.582178 
L 234.191202 282.582178 
L 234.191202 281.783762 
L 417.225582 281.783762 
L 417.225582 280.985347 
L 423.913864 280.985347 
L 423.913864 279.388515 
L 424.625461 279.388515 
L 424.625461 278.590099 
L 426.262994 278.590099 
L 426.262994 277.791683 
L 427.641855 277.791683 
L 427.641855 276.993267 
L 427.869502 276.993267 
L 427.869502 276.194851 
L 429.446139 276.194851 
L 429.446139 275.396436 
L 429.891275 275.396436 
L 429.891275 274.59802 
L 432.729058 274.59802 
L 432.729058 273.799604 
L 434.007446 273.799604 
L 434.007446 272.202772 
L 435.682526 272.202772 
L 435.682526 271.404356 
L 436.096176 271.404356 
L 436.096176 270.605941 
L 439.730938 270.605941 
L 439.730938 269.807525 
L 440.321869 269.807525 
L 440.321869 269.009109 
L 461.8 269.009109 
L 461.8 269.009109 
" style="fill:none;stroke:#f5deb3;stroke-linecap:square;stroke-width:1.5;"/>
   </g>
   <g id="line2d_12">
    <path clip-path="url(#p807258b067)" d="M 143.233595 293.76 
L 143.233595 281.783762 
L 175.41361 281.783762 
L 175.41361 280.186931 
L 198.685344 280.186931 
L 198.685344 279.388515 
L 216.926389 279.388515 
L 216.926389 273.001188 
L 231.929785 273.001188 
L 231.929785 270.605941 
L 244.673436 270.605941 
L 244.673436 269.807525 
L 404.454062 269.807525 
L 404.454062 269.009109 
L 414.608148 269.009109 
L 414.608148 268.210693 
L 417.739512 268.210693 
L 417.739512 267.412277 
L 419.262873 267.412277 
L 419.262873 265.815446 
L 425.096563 265.815446 
L 425.096563 265.01703 
L 427.869502 265.01703 
L 427.869502 263.420198 
L 429.222692 263.420198 
L 429.222692 262.621782 
L 433.157332 262.621782 
L 433.157332 261.823366 
L 434.429328 261.823366 
L 434.429328 261.02495 
L 436.917472 261.02495 
L 436.917472 259.428119 
L 448.368298 259.428119 
L 448.368298 258.629703 
L 449.432724 258.629703 
L 449.432724 257.032871 
L 450.483954 257.032871 
L 450.483954 256.234455 
L 454.563208 256.234455 
L 454.563208 253.839208 
L 455.553081 253.839208 
L 455.553081 253.040792 
L 456.531532 253.040792 
L 456.531532 252.242376 
L 457.498821 252.242376 
L 457.498821 251.44396 
L 458.455202 251.44396 
L 458.455202 250.645545 
L 459.400916 250.645545 
L 459.400916 249.847129 
L 460.336199 249.847129 
L 460.336199 249.048713 
L 461.8 249.048713 
L 461.8 249.048713 
" style="fill:none;stroke:#f5deb3;stroke-linecap:square;stroke-width:1.5;"/>
   </g>
   <g id="line2d_13">
    <path clip-path="url(#p807258b067)" d="M 420.014412 293.76 
L 420.014412 291.364752 
L 427.184722 291.364752 
L 427.184722 288.969505 
L 427.869502 288.969505 
L 427.869502 286.574257 
L 443.026367 286.574257 
L 443.026367 284.17901 
L 452.548108 284.17901 
L 452.548108 281.783762 
L 461.8 281.783762 
L 461.8 281.783762 
" style="fill:none;stroke:#f5deb3;stroke-linecap:square;stroke-width:1.5;"/>
   </g>
   <g id="line2d_14">
    <path clip-path="url(#p807258b067)" d="M 227.217565 293.76 
L 227.217565 292.163168 
L 229.606403 292.163168 
L 229.606403 291.364752 
L 234.191202 291.364752 
L 234.191202 290.566337 
L 240.634666 290.566337 
L 240.634666 288.171089 
L 246.622905 288.171089 
L 246.622905 287.372673 
L 250.392331 287.372673 
L 250.392331 281.783762 
L 353.949061 281.783762 
L 353.949061 280.985347 
L 359.72702 280.985347 
L 359.72702 280.186931 
L 364.658534 280.186931 
L 364.658534 279.388515 
L 367.485401 279.388515 
L 367.485401 277.791683 
L 369.318945 277.791683 
L 369.318945 276.993267 
L 370.221062 276.993267 
L 370.221062 276.194851 
L 371.113682 276.194851 
L 371.113682 275.396436 
L 374.593068 275.396436 
L 374.593068 274.59802 
L 376.280649 274.59802 
L 376.280649 273.799604 
L 377.524654 273.799604 
L 377.524654 273.001188 
L 379.959218 273.001188 
L 379.959218 272.202772 
L 381.15078 272.202772 
L 381.15078 271.404356 
L 383.867658 271.404356 
L 383.867658 269.807525 
L 397.266125 269.807525 
L 397.266125 269.009109 
L 401.40344 269.009109 
L 401.40344 268.210693 
L 461.8 268.210693 
L 461.8 268.210693 
" style="fill:none;stroke:#f5deb3;stroke-linecap:square;stroke-width:1.5;"/>
   </g>
   <g id="line2d_15">
    <path clip-path="url(#p807258b067)" d="M 0 0 
" style="fill:none;stroke:#f5deb3;stroke-linecap:square;stroke-width:1.5;"/>
   </g>
   <g id="line2d_16">
    <path clip-path="url(#p807258b067)" d="M 455.553081 293.76 
L 455.553081 292.961584 
L 461.8 292.961584 
L 461.8 292.961584 
" style="fill:none;stroke:#f5deb3;stroke-linecap:square;stroke-width:1.5;"/>
   </g>
   <g id="line2d_17">
    <path clip-path="url(#p807258b067)" d="M 333.102713 293.76 
L 333.102713 292.961584 
L 342.314661 292.961584 
L 342.314661 292.163168 
L 362.228622 292.163168 
L 362.228622 291.364752 
L 379.959218 291.364752 
L 379.959218 290.566337 
L 382.713924 290.566337 
L 382.713924 289.767921 
L 406.526022 289.767921 
L 406.526022 288.969505 
L 413.8069 288.969505 
L 413.8069 288.171089 
L 414.074824 288.171089 
L 414.074824 287.372673 
L 419.010872 287.372673 
L 419.010872 286.574257 
L 442.070346 286.574257 
L 442.070346 285.775842 
L 460.025582 285.775842 
L 460.025582 284.977426 
L 461.107798 284.977426 
L 461.107798 284.17901 
L 461.8 284.17901 
L 461.8 284.17901 
" style="fill:none;stroke:#f5deb3;stroke-linecap:square;stroke-width:1.5;"/>
   </g>
   <g id="line2d_18">
    <path clip-path="url(#p807258b067)" d="M 136.446122 293.76 
L 136.446122 281.783762 
L 143.233595 281.783762 
L 143.233595 277.791683 
L 149.517813 277.791683 
L 149.517813 276.993267 
L 155.368281 276.993267 
L 155.368281 276.194851 
L 160.841027 276.194851 
L 160.841027 274.59802 
L 165.981882 274.59802 
L 165.981882 271.404356 
L 170.82881 271.404356 
L 170.82881 270.605941 
L 183.900501 270.605941 
L 183.900501 269.807525 
L 399.200767 269.807525 
L 399.200767 269.009109 
L 411.907342 269.009109 
L 411.907342 268.210693 
L 413.8069 268.210693 
L 413.8069 267.412277 
L 414.074824 267.412277 
L 414.074824 266.613861 
L 416.967445 266.613861 
L 416.967445 265.815446 
L 421.252363 265.815446 
L 421.252363 265.01703 
L 425.798345 265.01703 
L 425.798345 264.218614 
L 426.72511 264.218614 
L 426.72511 263.420198 
L 427.869502 263.420198 
L 427.869502 262.621782 
L 429.891275 262.621782 
L 429.891275 261.823366 
L 432.082563 261.823366 
L 432.082563 261.02495 
L 434.007446 261.02495 
L 434.007446 260.226535 
L 436.507818 260.226535 
L 436.507818 259.428119 
L 436.917472 259.428119 
L 436.917472 258.629703 
L 439.334685 258.629703 
L 439.334685 257.831287 
L 441.103424 257.831287 
L 441.103424 257.032871 
L 442.262414 257.032871 
L 442.262414 256.234455 
L 442.645251 256.234455 
L 442.645251 255.43604 
L 446.381456 255.43604 
L 446.381456 253.839208 
L 448.546633 253.839208 
L 448.546633 253.040792 
L 450.657899 253.040792 
L 450.657899 252.242376 
L 454.894451 252.242376 
L 454.894451 251.44396 
L 456.043717 251.44396 
L 456.043717 250.645545 
L 458.455202 250.645545 
L 458.455202 249.847129 
L 459.557514 249.847129 
L 459.557514 249.048713 
L 460.336199 249.048713 
L 460.336199 248.250297 
L 461.8 248.250297 
L 461.8 248.250297 
" style="fill:none;stroke:#f5deb3;stroke-linecap:square;stroke-width:1.5;"/>
   </g>
   <g id="line2d_19">
    <path clip-path="url(#p807258b067)" d="M 0 0 
" style="fill:none;stroke:#f5deb3;stroke-linecap:square;stroke-width:1.5;"/>
   </g>
   <g id="line2d_20">
    <path clip-path="url(#p807258b067)" d="M 155.368281 293.76 
L 155.368281 292.961584 
L 165.981882 292.961584 
L 165.981882 292.163168 
L 170.82881 292.163168 
L 170.82881 290.566337 
L 183.900501 290.566337 
L 183.900501 289.767921 
L 191.614739 289.767921 
L 191.614739 288.969505 
L 195.223715 288.969505 
L 195.223715 288.171089 
L 202.011188 288.171089 
L 202.011188 287.372673 
L 205.211497 287.372673 
L 205.211497 285.775842 
L 208.295406 285.775842 
L 208.295406 284.977426 
L 214.145873 284.977426 
L 214.145873 284.17901 
L 219.61862 284.17901 
L 219.61862 283.380594 
L 222.227999 283.380594 
L 222.227999 282.582178 
L 229.606403 282.582178 
L 229.606403 281.783762 
L 371.556493 281.783762 
L 371.556493 280.985347 
L 379.155438 280.985347 
L 379.155438 280.186931 
L 379.55828 280.186931 
L 379.55828 279.388515 
L 380.75545 279.388515 
L 380.75545 278.590099 
L 382.325831 278.590099 
L 382.325831 277.791683 
L 384.248774 277.791683 
L 384.248774 276.993267 
L 385.756336 276.993267 
L 385.756336 276.194851 
L 386.869676 276.194851 
L 386.869676 275.396436 
L 389.053439 275.396436 
L 389.053439 273.799604 
L 390.124588 273.799604 
L 390.124588 273.001188 
L 390.831243 273.001188 
L 390.831243 272.202772 
L 394.615967 272.202772 
L 394.615967 271.404356 
L 396.611309 271.404356 
L 396.611309 270.605941 
L 397.915922 270.605941 
L 397.915922 269.807525 
L 400.151784 269.807525 
L 400.151784 269.009109 
L 402.636889 269.009109 
L 402.636889 268.210693 
L 404.753174 268.210693 
L 404.753174 267.412277 
L 405.051234 267.412277 
L 405.051234 266.613861 
L 430.554628 266.613861 
L 430.554628 265.815446 
L 439.334685 265.815446 
L 439.334685 265.01703 
L 443.026367 265.01703 
L 443.026367 264.218614 
L 448.724593 264.218614 
L 448.724593 263.420198 
L 452.378001 263.420198 
L 452.378001 262.621782 
L 456.369239 262.621782 
L 456.369239 261.823366 
L 459.557514 261.823366 
L 459.557514 261.02495 
L 459.713824 261.02495 
L 459.713824 260.226535 
L 461.414482 260.226535 
L 461.414482 259.428119 
L 461.8 259.428119 
L 461.8 259.428119 
" style="fill:none;stroke:#f5deb3;stroke-linecap:square;stroke-width:1.5;"/>
   </g>
   <g id="line2d_21">
    <path clip-path="url(#p807258b067)" d="M 0 0 
" style="fill:none;stroke:#f5deb3;stroke-linecap:square;stroke-width:1.5;"/>
   </g>
   <g id="line2d_22">
    <path clip-path="url(#p807258b067)" d="M 170.82881 293.76 
L 170.82881 292.163168 
L 183.900501 292.163168 
L 183.900501 291.364752 
L 187.845312 291.364752 
L 187.845312 290.566337 
L 198.685344 290.566337 
L 198.685344 288.171089 
L 208.295406 288.171089 
L 208.295406 287.372673 
L 229.606403 287.372673 
L 229.606403 286.574257 
L 240.634666 286.574257 
L 240.634666 285.775842 
L 242.678094 285.775842 
L 242.678094 284.977426 
L 252.216018 284.977426 
L 252.216018 284.17901 
L 255.749785 284.17901 
L 255.749785 283.380594 
L 324.322656 283.380594 
L 324.322656 282.582178 
L 338.488532 282.582178 
L 338.488532 281.783762 
L 357.671207 281.783762 
L 357.671207 280.985347 
L 370.668547 280.985347 
L 370.668547 280.186931 
L 377.9353 280.186931 
L 377.9353 279.388515 
L 379.55828 279.388515 
L 379.55828 278.590099 
L 380.75545 278.590099 
L 380.75545 277.791683 
L 383.100249 277.791683 
L 383.100249 276.993267 
L 385.005905 276.993267 
L 385.005905 276.194851 
L 386.500184 276.194851 
L 386.500184 275.396436 
L 386.869676 275.396436 
L 386.869676 274.59802 
L 387.603863 274.59802 
L 387.603863 273.001188 
L 387.968587 273.001188 
L 387.968587 272.202772 
L 389.76904 272.202772 
L 389.76904 271.404356 
L 391.532058 271.404356 
L 391.532058 270.605941 
L 392.227129 270.605941 
L 392.227129 269.807525 
L 394.615967 269.807525 
L 394.615967 269.009109 
L 394.951802 269.009109 
L 394.951802 268.210693 
L 397.591646 268.210693 
L 397.591646 267.412277 
L 402.636889 267.412277 
L 402.636889 266.613861 
L 402.942468 266.613861 
L 402.942468 265.815446 
L 409.683001 265.815446 
L 409.683001 265.01703 
L 432.29861 265.01703 
L 432.29861 264.218614 
L 437.933031 264.218614 
L 437.933031 263.420198 
L 438.335873 263.420198 
L 438.335873 262.621782 
L 440.125349 262.621782 
L 440.125349 261.823366 
L 444.346943 261.823366 
L 444.346943 261.02495 
L 446.74618 261.02495 
L 446.74618 260.226535 
L 453.225142 260.226535 
L 453.225142 259.428119 
L 454.230666 259.428119 
L 454.230666 258.629703 
L 455.553081 258.629703 
L 455.553081 257.831287 
L 455.880487 257.831287 
L 455.880487 257.032871 
L 456.206634 257.032871 
L 456.206634 256.234455 
L 456.693515 256.234455 
L 456.693515 255.43604 
L 456.855189 255.43604 
L 456.855189 254.637624 
L 457.658969 254.637624 
L 457.658969 253.839208 
L 457.818815 253.839208 
L 457.818815 252.242376 
L 458.771613 252.242376 
L 458.771613 251.44396 
L 459.713824 251.44396 
L 459.713824 250.645545 
L 461.567409 250.645545 
L 461.567409 249.847129 
L 461.8 249.847129 
L 461.8 249.847129 
" style="fill:none;stroke:#f5deb3;stroke-linecap:square;stroke-width:1.5;"/>
   </g>
   <g id="line2d_23">
    <path clip-path="url(#p807258b067)" d="M 298.371778 293.76 
L 298.371778 292.961584 
L 328.82627 292.961584 
L 328.82627 292.163168 
L 332.404782 292.163168 
L 332.404782 291.364752 
L 334.481575 291.364752 
L 334.481575 290.566337 
L 345.376298 290.566337 
L 345.376298 288.969505 
L 354.490904 288.969505 
L 354.490904 288.171089 
L 355.029307 288.171089 
L 355.029307 287.372673 
L 357.149371 287.372673 
L 357.149371 286.574257 
L 357.671207 286.574257 
L 357.671207 285.775842 
L 358.189852 285.775842 
L 358.189852 284.977426 
L 372.435238 284.977426 
L 372.435238 284.17901 
L 381.935954 284.17901 
L 381.935954 283.380594 
L 388.331749 283.380594 
L 388.331749 282.582178 
L 403.852654 282.582178 
L 403.852654 281.783762 
L 461.8 281.783762 
L 461.8 281.783762 
" style="fill:none;stroke:#f5deb3;stroke-linecap:square;stroke-width:1.5;"/>
   </g>
   <g id="line2d_24">
    <path clip-path="url(#p807258b067)" d="M 376.280649 293.76 
L 376.280649 292.163168 
L 376.697349 292.163168 
L 376.697349 291.364752 
L 392.916549 291.364752 
L 392.916549 289.767921 
L 393.259168 289.767921 
L 393.259168 288.969505 
L 408.262563 288.969505 
L 408.262563 287.372673 
L 408.54856 287.372673 
L 408.54856 286.574257 
L 408.833596 286.574257 
L 408.833596 285.775842 
L 421.252363 285.775842 
L 421.252363 284.17901 
L 421.497799 284.17901 
L 421.497799 283.380594 
L 421.742527 283.380594 
L 421.742527 282.582178 
L 442.454049 282.582178 
L 442.454049 281.783762 
L 461.8 281.783762 
L 461.8 281.783762 
" style="fill:none;stroke:#f5deb3;stroke-linecap:square;stroke-width:1.5;"/>
   </g>
   <g id="line2d_25">
    <path clip-path="url(#p807258b067)" d="M 318.747061 293.76 
L 318.747061 292.961584 
L 333.102713 292.961584 
L 333.102713 292.163168 
L 336.508719 292.163168 
L 336.508719 291.364752 
L 344.77275 291.364752 
L 344.77275 290.566337 
L 346.570658 290.566337 
L 346.570658 289.767921 
L 357.149371 289.767921 
L 357.149371 288.969505 
L 357.671207 288.969505 
L 357.671207 288.171089 
L 358.705344 288.171089 
L 358.705344 286.574257 
L 360.233279 286.574257 
L 360.233279 285.775842 
L 363.694909 285.775842 
L 363.694909 284.977426 
L 365.611332 284.977426 
L 365.611332 284.17901 
L 384.628184 284.17901 
L 384.628184 283.380594 
L 385.756336 283.380594 
L 385.756336 282.582178 
L 387.237564 282.582178 
L 387.237564 281.783762 
L 461.8 281.783762 
L 461.8 281.783762 
" style="fill:none;stroke:#f5deb3;stroke-linecap:square;stroke-width:1.5;"/>
   </g>
   <g id="line2d_26">
    <path clip-path="url(#p807258b067)" d="M 0 0 
" style="fill:none;stroke:#f5deb3;stroke-linecap:square;stroke-width:1.5;"/>
   </g>
   <g id="line2d_27">
    <path clip-path="url(#p807258b067)" d="M 350.056004 293.76 
L 350.056004 292.961584 
L 368.407129 292.961584 
L 368.407129 292.163168 
L 369.318945 292.163168 
L 369.318945 291.364752 
L 372.435238 291.364752 
L 372.435238 290.566337 
L 381.935954 290.566337 
L 381.935954 288.969505 
L 383.100249 288.969505 
L 383.100249 288.171089 
L 389.053439 288.171089 
L 389.053439 287.372673 
L 403.852654 287.372673 
L 403.852654 286.574257 
L 408.262563 286.574257 
L 408.262563 285.775842 
L 415.138138 285.775842 
L 415.138138 284.977426 
L 419.262873 284.977426 
L 419.262873 284.17901 
L 421.742527 284.17901 
L 421.742527 283.380594 
L 436.302247 283.380594 
L 436.302247 282.582178 
L 436.712892 282.582178 
L 436.712892 281.783762 
L 456.693515 281.783762 
L 456.693515 280.985347 
L 458.771613 280.985347 
L 458.771613 280.186931 
L 461.8 280.186931 
L 461.8 280.186931 
" style="fill:none;stroke:#f5deb3;stroke-linecap:square;stroke-width:1.5;"/>
   </g>
   <g id="line2d_28">
    <path clip-path="url(#p807258b067)" d="M 248.528561 293.76 
L 248.528561 292.961584 
L 281.005592 292.961584 
L 281.005592 292.163168 
L 303.451029 292.163168 
L 303.451029 290.566337 
L 305.400497 290.566337 
L 305.400497 289.767921 
L 314.527378 289.767921 
L 314.527378 288.969505 
L 321.977857 288.969505 
L 321.977857 287.372673 
L 322.766683 287.372673 
L 322.766683 286.574257 
L 337.173806 286.574257 
L 337.173806 285.775842 
L 337.833717 285.775842 
L 337.833717 284.17901 
L 350.623217 284.17901 
L 350.623217 283.380594 
L 369.771203 283.380594 
L 369.771203 282.582178 
L 380.358269 282.582178 
L 380.358269 281.783762 
L 457.177616 281.783762 
L 457.177616 280.985347 
L 460.336199 280.985347 
L 460.336199 280.186931 
L 461.8 280.186931 
L 461.8 280.186931 
" style="fill:none;stroke:#f5deb3;stroke-linecap:square;stroke-width:1.5;"/>
   </g>
   <g id="line2d_29">
    <path clip-path="url(#p807258b067)" d="M 120.985593 293.76 
L 120.985593 281.783762 
L 160.841027 281.783762 
L 160.841027 279.388515 
L 165.981882 279.388515 
L 165.981882 274.59802 
L 263.98909 274.59802 
L 263.98909 272.202772 
L 265.545063 272.202772 
L 265.545063 269.807525 
L 385.381951 269.807525 
L 385.381951 267.412277 
L 417.739512 267.412277 
L 417.739512 265.01703 
L 420.759349 265.01703 
L 420.759349 262.621782 
L 421.497799 262.621782 
L 421.497799 260.226535 
L 426.262994 260.226535 
L 426.262994 257.831287 
L 434.007446 257.831287 
L 434.007446 255.43604 
L 434.639485 255.43604 
L 434.639485 253.040792 
L 437.933031 253.040792 
L 437.933031 250.645545 
L 459.869847 250.645545 
L 459.869847 248.250297 
L 461.8 248.250297 
L 461.8 248.250297 
" style="fill:none;stroke:#f5deb3;stroke-linecap:square;stroke-width:1.5;"/>
   </g>
   <g id="line2d_30">
    <path clip-path="url(#p807258b067)" d="M 240.634666 293.76 
L 240.634666 292.961584 
L 248.528561 292.961584 
L 248.528561 292.163168 
L 285.995157 292.163168 
L 285.995157 291.364752 
L 287.197988 291.364752 
L 287.197988 290.566337 
L 294.077283 290.566337 
L 294.077283 289.767921 
L 298.371778 289.767921 
L 298.371778 288.969505 
L 300.440128 288.969505 
L 300.440128 288.171089 
L 300.440128 288.171089 
L 300.440128 287.372673 
L 301.455687 287.372673 
L 301.455687 286.574257 
L 301.455687 286.574257 
L 301.455687 285.775842 
L 301.455687 285.775842 
L 301.455687 284.977426 
L 305.400497 284.977426 
L 305.400497 284.17901 
L 306.358679 284.17901 
L 306.358679 283.380594 
L 307.306154 283.380594 
L 307.306154 282.582178 
L 307.306154 282.582178 
L 307.306154 281.783762 
L 307.306154 281.783762 
L 307.306154 280.985347 
L 308.243159 280.985347 
L 308.243159 280.186931 
L 309.169924 280.186931 
L 309.169924 279.388515 
L 309.169924 279.388515 
L 309.169924 278.590099 
L 310.08667 278.590099 
L 310.08667 277.791683 
L 311.890954 277.791683 
L 311.890954 276.993267 
L 312.7789 276.993267 
L 312.7789 276.194851 
L 313.657646 276.194851 
L 313.657646 275.396436 
L 317.919756 275.396436 
L 317.919756 274.59802 
L 319.566373 274.59802 
L 319.566373 273.799604 
L 321.181625 273.799604 
L 321.181625 273.001188 
L 321.181625 273.001188 
L 321.181625 272.202772 
L 322.766683 272.202772 
L 322.766683 271.404356 
L 323.548238 271.404356 
L 323.548238 270.605941 
L 330.991447 270.605941 
L 330.991447 269.807525 
L 345.975581 269.807525 
L 345.975581 269.009109 
L 345.975581 269.009109 
L 345.975581 268.210693 
L 345.975581 268.210693 
L 345.975581 267.412277 
L 345.975581 267.412277 
L 345.975581 266.613861 
L 345.975581 266.613861 
L 345.975581 265.815446 
L 345.975581 265.815446 
L 345.975581 265.01703 
L 345.975581 265.01703 
L 345.975581 264.218614 
L 345.975581 264.218614 
L 345.975581 263.420198 
L 345.975581 263.420198 
L 345.975581 262.621782 
L 345.975581 262.621782 
L 345.975581 261.823366 
L 345.975581 261.823366 
L 345.975581 261.02495 
L 345.975581 261.02495 
L 345.975581 260.226535 
L 345.975581 260.226535 
L 345.975581 259.428119 
L 345.975581 259.428119 
L 345.975581 258.629703 
L 345.975581 258.629703 
L 345.975581 257.831287 
L 461.8 257.831287 
" style="fill:none;stroke:#f5deb3;stroke-linecap:square;stroke-width:1.5;"/>
   </g>
   <g id="matplotlib.axis_1">
    <g id="xtick_1">
     <g id="line2d_31">
      <path clip-path="url(#p807258b067)" d="M 62.208 293.76 
L 62.208 3.456 
" style="fill:none;stroke:#b0b0b0;stroke-linecap:square;stroke-width:0.8;"/>
     </g>
     <g id="line2d_32">
      <defs>
       <path d="M 0 0 
L 0 3.5 
" id="mcfe17426e8" style="stroke:#000000;stroke-width:0.8;"/>
      </defs>
      <g>
       <use style="stroke:#000000;stroke-width:0.8;" x="62.208" xlink:href="#mcfe17426e8" y="293.76"/>
      </g>
     </g>
     <g id="text_1">
      <!-- 0 -->
      <defs>
       <path d="M 31.78125 66.40625 
Q 24.171875 66.40625 20.328125 58.90625 
Q 16.5 51.421875 16.5 36.375 
Q 16.5 21.390625 20.328125 13.890625 
Q 24.171875 6.390625 31.78125 6.390625 
Q 39.453125 6.390625 43.28125 13.890625 
Q 47.125 21.390625 47.125 36.375 
Q 47.125 51.421875 43.28125 58.90625 
Q 39.453125 66.40625 31.78125 66.40625 
z
M 31.78125 74.21875 
Q 44.046875 74.21875 50.515625 64.515625 
Q 56.984375 54.828125 56.984375 36.375 
Q 56.984375 17.96875 50.515625 8.265625 
Q 44.046875 -1.421875 31.78125 -1.421875 
Q 19.53125 -1.421875 13.0625 8.265625 
Q 6.59375 17.96875 6.59375 36.375 
Q 6.59375 54.828125 13.0625 64.515625 
Q 19.53125 74.21875 31.78125 74.21875 
z
" id="DejaVuSans-48"/>
      </defs>
      <g transform="translate(55.8455 315.956875)scale(0.2 -0.2)">
       <use xlink:href="#DejaVuSans-48"/>
      </g>
     </g>
    </g>
    <g id="xtick_2">
     <g id="line2d_33">
      <path clip-path="url(#p807258b067)" d="M 452.717874 293.76 
L 452.717874 3.456 
" style="fill:none;stroke:#b0b0b0;stroke-linecap:square;stroke-width:0.8;"/>
     </g>
     <g id="line2d_34">
      <g>
       <use style="stroke:#000000;stroke-width:0.8;" x="452.717874" xlink:href="#mcfe17426e8" y="293.76"/>
      </g>
     </g>
     <g id="text_2">
      <!-- 2 -->
      <defs>
       <path d="M 19.1875 8.296875 
L 53.609375 8.296875 
L 53.609375 0 
L 7.328125 0 
L 7.328125 8.296875 
Q 12.9375 14.109375 22.625 23.890625 
Q 32.328125 33.6875 34.8125 36.53125 
Q 39.546875 41.84375 41.421875 45.53125 
Q 43.3125 49.21875 43.3125 52.78125 
Q 43.3125 58.59375 39.234375 62.25 
Q 35.15625 65.921875 28.609375 65.921875 
Q 23.96875 65.921875 18.8125 64.3125 
Q 13.671875 62.703125 7.8125 59.421875 
L 7.8125 69.390625 
Q 13.765625 71.78125 18.9375 73 
Q 24.125 74.21875 28.421875 74.21875 
Q 39.75 74.21875 46.484375 68.546875 
Q 53.21875 62.890625 53.21875 53.421875 
Q 53.21875 48.921875 51.53125 44.890625 
Q 49.859375 40.875 45.40625 35.40625 
Q 44.1875 33.984375 37.640625 27.21875 
Q 31.109375 20.453125 19.1875 8.296875 
z
" id="DejaVuSans-50"/>
      </defs>
      <g transform="translate(446.355374 315.956875)scale(0.2 -0.2)">
       <use xlink:href="#DejaVuSans-50"/>
      </g>
     </g>
    </g>
    <g id="xtick_3">
     <g id="line2d_35">
      <path clip-path="url(#p807258b067)" d="M 120.985593 293.76 
L 120.985593 3.456 
" style="fill:none;stroke:#b0b0b0;stroke-linecap:square;stroke-width:0.8;"/>
     </g>
     <g id="line2d_36">
      <defs>
       <path d="M 0 0 
L 0 2 
" id="m133b5c7e59" style="stroke:#000000;stroke-width:0.6;"/>
      </defs>
      <g>
       <use style="stroke:#000000;stroke-width:0.6;" x="120.985593" xlink:href="#m133b5c7e59" y="293.76"/>
      </g>
     </g>
    </g>
    <g id="xtick_4">
     <g id="line2d_37">
      <path clip-path="url(#p807258b067)" d="M 155.368281 293.76 
L 155.368281 3.456 
" style="fill:none;stroke:#b0b0b0;stroke-linecap:square;stroke-width:0.8;"/>
     </g>
     <g id="line2d_38">
      <g>
       <use style="stroke:#000000;stroke-width:0.6;" x="155.368281" xlink:href="#m133b5c7e59" y="293.76"/>
      </g>
     </g>
    </g>
    <g id="xtick_5">
     <g id="line2d_39">
      <path clip-path="url(#p807258b067)" d="M 179.763186 293.76 
L 179.763186 3.456 
" style="fill:none;stroke:#b0b0b0;stroke-linecap:square;stroke-width:0.8;"/>
     </g>
     <g id="line2d_40">
      <g>
       <use style="stroke:#000000;stroke-width:0.6;" x="179.763186" xlink:href="#m133b5c7e59" y="293.76"/>
      </g>
     </g>
    </g>
    <g id="xtick_6">
     <g id="line2d_41">
      <path clip-path="url(#p807258b067)" d="M 198.685344 293.76 
L 198.685344 3.456 
" style="fill:none;stroke:#b0b0b0;stroke-linecap:square;stroke-width:0.8;"/>
     </g>
     <g id="line2d_42">
      <g>
       <use style="stroke:#000000;stroke-width:0.6;" x="198.685344" xlink:href="#m133b5c7e59" y="293.76"/>
      </g>
     </g>
    </g>
    <g id="xtick_7">
     <g id="line2d_43">
      <path clip-path="url(#p807258b067)" d="M 214.145873 293.76 
L 214.145873 3.456 
" style="fill:none;stroke:#b0b0b0;stroke-linecap:square;stroke-width:0.8;"/>
     </g>
     <g id="line2d_44">
      <g>
       <use style="stroke:#000000;stroke-width:0.6;" x="214.145873" xlink:href="#m133b5c7e59" y="293.76"/>
      </g>
     </g>
    </g>
    <g id="xtick_8">
     <g id="line2d_45">
      <path clip-path="url(#p807258b067)" d="M 227.217565 293.76 
L 227.217565 3.456 
" style="fill:none;stroke:#b0b0b0;stroke-linecap:square;stroke-width:0.8;"/>
     </g>
     <g id="line2d_46">
      <g>
       <use style="stroke:#000000;stroke-width:0.6;" x="227.217565" xlink:href="#m133b5c7e59" y="293.76"/>
      </g>
     </g>
    </g>
    <g id="xtick_9">
     <g id="line2d_47">
      <path clip-path="url(#p807258b067)" d="M 238.540778 293.76 
L 238.540778 3.456 
" style="fill:none;stroke:#b0b0b0;stroke-linecap:square;stroke-width:0.8;"/>
     </g>
     <g id="line2d_48">
      <g>
       <use style="stroke:#000000;stroke-width:0.6;" x="238.540778" xlink:href="#m133b5c7e59" y="293.76"/>
      </g>
     </g>
    </g>
    <g id="xtick_10">
     <g id="line2d_49">
      <path clip-path="url(#p807258b067)" d="M 248.528561 293.76 
L 248.528561 3.456 
" style="fill:none;stroke:#b0b0b0;stroke-linecap:square;stroke-width:0.8;"/>
     </g>
     <g id="line2d_50">
      <g>
       <use style="stroke:#000000;stroke-width:0.6;" x="248.528561" xlink:href="#m133b5c7e59" y="293.76"/>
      </g>
     </g>
    </g>
    <g id="xtick_11">
     <g id="line2d_51">
      <path clip-path="url(#p807258b067)" d="M 316.24053 293.76 
L 316.24053 3.456 
" style="fill:none;stroke:#b0b0b0;stroke-linecap:square;stroke-width:0.8;"/>
     </g>
     <g id="line2d_52">
      <g>
       <use style="stroke:#000000;stroke-width:0.6;" x="316.24053" xlink:href="#m133b5c7e59" y="293.76"/>
      </g>
     </g>
    </g>
    <g id="xtick_12">
     <g id="line2d_53">
      <path clip-path="url(#p807258b067)" d="M 350.623217 293.76 
L 350.623217 3.456 
" style="fill:none;stroke:#b0b0b0;stroke-linecap:square;stroke-width:0.8;"/>
     </g>
     <g id="line2d_54">
      <g>
       <use style="stroke:#000000;stroke-width:0.6;" x="350.623217" xlink:href="#m133b5c7e59" y="293.76"/>
      </g>
     </g>
    </g>
    <g id="xtick_13">
     <g id="line2d_55">
      <path clip-path="url(#p807258b067)" d="M 375.018123 293.76 
L 375.018123 3.456 
" style="fill:none;stroke:#b0b0b0;stroke-linecap:square;stroke-width:0.8;"/>
     </g>
     <g id="line2d_56">
      <g>
       <use style="stroke:#000000;stroke-width:0.6;" x="375.018123" xlink:href="#m133b5c7e59" y="293.76"/>
      </g>
     </g>
    </g>
    <g id="xtick_14">
     <g id="line2d_57">
      <path clip-path="url(#p807258b067)" d="M 393.940281 293.76 
L 393.940281 3.456 
" style="fill:none;stroke:#b0b0b0;stroke-linecap:square;stroke-width:0.8;"/>
     </g>
     <g id="line2d_58">
      <g>
       <use style="stroke:#000000;stroke-width:0.6;" x="393.940281" xlink:href="#m133b5c7e59" y="293.76"/>
      </g>
     </g>
    </g>
    <g id="xtick_15">
     <g id="line2d_59">
      <path clip-path="url(#p807258b067)" d="M 409.40081 293.76 
L 409.40081 3.456 
" style="fill:none;stroke:#b0b0b0;stroke-linecap:square;stroke-width:0.8;"/>
     </g>
     <g id="line2d_60">
      <g>
       <use style="stroke:#000000;stroke-width:0.6;" x="409.40081" xlink:href="#m133b5c7e59" y="293.76"/>
      </g>
     </g>
    </g>
    <g id="xtick_16">
     <g id="line2d_61">
      <path clip-path="url(#p807258b067)" d="M 422.472501 293.76 
L 422.472501 3.456 
" style="fill:none;stroke:#b0b0b0;stroke-linecap:square;stroke-width:0.8;"/>
     </g>
     <g id="line2d_62">
      <g>
       <use style="stroke:#000000;stroke-width:0.6;" x="422.472501" xlink:href="#m133b5c7e59" y="293.76"/>
      </g>
     </g>
    </g>
    <g id="xtick_17">
     <g id="line2d_63">
      <path clip-path="url(#p807258b067)" d="M 433.795715 293.76 
L 433.795715 3.456 
" style="fill:none;stroke:#b0b0b0;stroke-linecap:square;stroke-width:0.8;"/>
     </g>
     <g id="line2d_64">
      <g>
       <use style="stroke:#000000;stroke-width:0.6;" x="433.795715" xlink:href="#m133b5c7e59" y="293.76"/>
      </g>
     </g>
    </g>
    <g id="xtick_18">
     <g id="line2d_65">
      <path clip-path="url(#p807258b067)" d="M 443.783498 293.76 
L 443.783498 3.456 
" style="fill:none;stroke:#b0b0b0;stroke-linecap:square;stroke-width:0.8;"/>
     </g>
     <g id="line2d_66">
      <g>
       <use style="stroke:#000000;stroke-width:0.6;" x="443.783498" xlink:href="#m133b5c7e59" y="293.76"/>
      </g>
     </g>
    </g>
    <g id="text_3">
     <!-- log10 of FEvals / DIM -->
     <defs>
      <path d="M 9.421875 75.984375 
L 18.40625 75.984375 
L 18.40625 0 
L 9.421875 0 
z
" id="DejaVuSans-108"/>
      <path d="M 30.609375 48.390625 
Q 23.390625 48.390625 19.1875 42.75 
Q 14.984375 37.109375 14.984375 27.296875 
Q 14.984375 17.484375 19.15625 11.84375 
Q 23.34375 6.203125 30.609375 6.203125 
Q 37.796875 6.203125 41.984375 11.859375 
Q 46.1875 17.53125 46.1875 27.296875 
Q 46.1875 37.015625 41.984375 42.703125 
Q 37.796875 48.390625 30.609375 48.390625 
z
M 30.609375 56 
Q 42.328125 56 49.015625 48.375 
Q 55.71875 40.765625 55.71875 27.296875 
Q 55.71875 13.875 49.015625 6.21875 
Q 42.328125 -1.421875 30.609375 -1.421875 
Q 18.84375 -1.421875 12.171875 6.21875 
Q 5.515625 13.875 5.515625 27.296875 
Q 5.515625 40.765625 12.171875 48.375 
Q 18.84375 56 30.609375 56 
z
" id="DejaVuSans-111"/>
      <path d="M 45.40625 27.984375 
Q 45.40625 37.75 41.375 43.109375 
Q 37.359375 48.484375 30.078125 48.484375 
Q 22.859375 48.484375 18.828125 43.109375 
Q 14.796875 37.75 14.796875 27.984375 
Q 14.796875 18.265625 18.828125 12.890625 
Q 22.859375 7.515625 30.078125 7.515625 
Q 37.359375 7.515625 41.375 12.890625 
Q 45.40625 18.265625 45.40625 27.984375 
z
M 54.390625 6.78125 
Q 54.390625 -7.171875 48.1875 -13.984375 
Q 42 -20.796875 29.203125 -20.796875 
Q 24.46875 -20.796875 20.265625 -20.09375 
Q 16.0625 -19.390625 12.109375 -17.921875 
L 12.109375 -9.1875 
Q 16.0625 -11.328125 19.921875 -12.34375 
Q 23.78125 -13.375 27.78125 -13.375 
Q 36.625 -13.375 41.015625 -8.765625 
Q 45.40625 -4.15625 45.40625 5.171875 
L 45.40625 9.625 
Q 42.625 4.78125 38.28125 2.390625 
Q 33.9375 0 27.875 0 
Q 17.828125 0 11.671875 7.65625 
Q 5.515625 15.328125 5.515625 27.984375 
Q 5.515625 40.671875 11.671875 48.328125 
Q 17.828125 56 27.875 56 
Q 33.9375 56 38.28125 53.609375 
Q 42.625 51.21875 45.40625 46.390625 
L 45.40625 54.6875 
L 54.390625 54.6875 
z
" id="DejaVuSans-103"/>
      <path d="M 12.40625 8.296875 
L 28.515625 8.296875 
L 28.515625 63.921875 
L 10.984375 60.40625 
L 10.984375 69.390625 
L 28.421875 72.90625 
L 38.28125 72.90625 
L 38.28125 8.296875 
L 54.390625 8.296875 
L 54.390625 0 
L 12.40625 0 
z
" id="DejaVuSans-49"/>
      <path id="DejaVuSans-32"/>
      <path d="M 37.109375 75.984375 
L 37.109375 68.5 
L 28.515625 68.5 
Q 23.6875 68.5 21.796875 66.546875 
Q 19.921875 64.59375 19.921875 59.515625 
L 19.921875 54.6875 
L 34.71875 54.6875 
L 34.71875 47.703125 
L 19.921875 47.703125 
L 19.921875 0 
L 10.890625 0 
L 10.890625 47.703125 
L 2.296875 47.703125 
L 2.296875 54.6875 
L 10.890625 54.6875 
L 10.890625 58.5 
Q 10.890625 67.625 15.140625 71.796875 
Q 19.390625 75.984375 28.609375 75.984375 
z
" id="DejaVuSans-102"/>
      <path d="M 9.8125 72.90625 
L 51.703125 72.90625 
L 51.703125 64.59375 
L 19.671875 64.59375 
L 19.671875 43.109375 
L 48.578125 43.109375 
L 48.578125 34.8125 
L 19.671875 34.8125 
L 19.671875 0 
L 9.8125 0 
z
" id="DejaVuSans-70"/>
      <path d="M 9.8125 72.90625 
L 55.90625 72.90625 
L 55.90625 64.59375 
L 19.671875 64.59375 
L 19.671875 43.015625 
L 54.390625 43.015625 
L 54.390625 34.71875 
L 19.671875 34.71875 
L 19.671875 8.296875 
L 56.78125 8.296875 
L 56.78125 0 
L 9.8125 0 
z
" id="DejaVuSans-69"/>
      <path d="M 2.984375 54.6875 
L 12.5 54.6875 
L 29.59375 8.796875 
L 46.6875 54.6875 
L 56.203125 54.6875 
L 35.6875 0 
L 23.484375 0 
z
" id="DejaVuSans-118"/>
      <path d="M 34.28125 27.484375 
Q 23.390625 27.484375 19.1875 25 
Q 14.984375 22.515625 14.984375 16.5 
Q 14.984375 11.71875 18.140625 8.90625 
Q 21.296875 6.109375 26.703125 6.109375 
Q 34.1875 6.109375 38.703125 11.40625 
Q 43.21875 16.703125 43.21875 25.484375 
L 43.21875 27.484375 
z
M 52.203125 31.203125 
L 52.203125 0 
L 43.21875 0 
L 43.21875 8.296875 
Q 40.140625 3.328125 35.546875 0.953125 
Q 30.953125 -1.421875 24.3125 -1.421875 
Q 15.921875 -1.421875 10.953125 3.296875 
Q 6 8.015625 6 15.921875 
Q 6 25.140625 12.171875 29.828125 
Q 18.359375 34.515625 30.609375 34.515625 
L 43.21875 34.515625 
L 43.21875 35.40625 
Q 43.21875 41.609375 39.140625 45 
Q 35.0625 48.390625 27.6875 48.390625 
Q 23 48.390625 18.546875 47.265625 
Q 14.109375 46.140625 10.015625 43.890625 
L 10.015625 52.203125 
Q 14.9375 54.109375 19.578125 55.046875 
Q 24.21875 56 28.609375 56 
Q 40.484375 56 46.34375 49.84375 
Q 52.203125 43.703125 52.203125 31.203125 
z
" id="DejaVuSans-97"/>
      <path d="M 44.28125 53.078125 
L 44.28125 44.578125 
Q 40.484375 46.53125 36.375 47.5 
Q 32.28125 48.484375 27.875 48.484375 
Q 21.1875 48.484375 17.84375 46.4375 
Q 14.5 44.390625 14.5 40.28125 
Q 14.5 37.15625 16.890625 35.375 
Q 19.28125 33.59375 26.515625 31.984375 
L 29.59375 31.296875 
Q 39.15625 29.25 43.1875 25.515625 
Q 47.21875 21.78125 47.21875 15.09375 
Q 47.21875 7.46875 41.1875 3.015625 
Q 35.15625 -1.421875 24.609375 -1.421875 
Q 20.21875 -1.421875 15.453125 -0.5625 
Q 10.6875 0.296875 5.421875 2 
L 5.421875 11.28125 
Q 10.40625 8.6875 15.234375 7.390625 
Q 20.0625 6.109375 24.8125 6.109375 
Q 31.15625 6.109375 34.5625 8.28125 
Q 37.984375 10.453125 37.984375 14.40625 
Q 37.984375 18.0625 35.515625 20.015625 
Q 33.0625 21.96875 24.703125 23.78125 
L 21.578125 24.515625 
Q 13.234375 26.265625 9.515625 29.90625 
Q 5.8125 33.546875 5.8125 39.890625 
Q 5.8125 47.609375 11.28125 51.796875 
Q 16.75 56 26.8125 56 
Q 31.78125 56 36.171875 55.265625 
Q 40.578125 54.546875 44.28125 53.078125 
z
" id="DejaVuSans-115"/>
      <path d="M 25.390625 72.90625 
L 33.6875 72.90625 
L 8.296875 -9.28125 
L 0 -9.28125 
z
" id="DejaVuSans-47"/>
      <path d="M 19.671875 64.796875 
L 19.671875 8.109375 
L 31.59375 8.109375 
Q 46.6875 8.109375 53.6875 14.9375 
Q 60.6875 21.78125 60.6875 36.53125 
Q 60.6875 51.171875 53.6875 57.984375 
Q 46.6875 64.796875 31.59375 64.796875 
z
M 9.8125 72.90625 
L 30.078125 72.90625 
Q 51.265625 72.90625 61.171875 64.09375 
Q 71.09375 55.28125 71.09375 36.53125 
Q 71.09375 17.671875 61.125 8.828125 
Q 51.171875 0 30.078125 0 
L 9.8125 0 
z
" id="DejaVuSans-68"/>
      <path d="M 9.8125 72.90625 
L 19.671875 72.90625 
L 19.671875 0 
L 9.8125 0 
z
" id="DejaVuSans-73"/>
      <path d="M 9.8125 72.90625 
L 24.515625 72.90625 
L 43.109375 23.296875 
L 61.8125 72.90625 
L 76.515625 72.90625 
L 76.515625 0 
L 66.890625 0 
L 66.890625 64.015625 
L 48.09375 14.015625 
L 38.1875 14.015625 
L 19.390625 64.015625 
L 19.390625 0 
L 9.8125 0 
z
" id="DejaVuSans-77"/>
     </defs>
     <g transform="translate(156.430563 339.313125)scale(0.2 -0.2)">
      <use xlink:href="#DejaVuSans-108"/>
      <use x="27.783203" xlink:href="#DejaVuSans-111"/>
      <use x="88.964844" xlink:href="#DejaVuSans-103"/>
      <use x="152.441406" xlink:href="#DejaVuSans-49"/>
      <use x="216.064453" xlink:href="#DejaVuSans-48"/>
      <use x="279.6875" xlink:href="#DejaVuSans-32"/>
      <use x="311.474609" xlink:href="#DejaVuSans-111"/>
      <use x="372.65625" xlink:href="#DejaVuSans-102"/>
      <use x="407.861328" xlink:href="#DejaVuSans-32"/>
      <use x="439.648438" xlink:href="#DejaVuSans-70"/>
      <use x="497.167969" xlink:href="#DejaVuSans-69"/>
      <use x="560.351562" xlink:href="#DejaVuSans-118"/>
      <use x="619.53125" xlink:href="#DejaVuSans-97"/>
      <use x="680.810547" xlink:href="#DejaVuSans-108"/>
      <use x="708.59375" xlink:href="#DejaVuSans-115"/>
      <use x="760.693359" xlink:href="#DejaVuSans-32"/>
      <use x="792.480469" xlink:href="#DejaVuSans-47"/>
      <use x="826.171875" xlink:href="#DejaVuSans-32"/>
      <use x="857.958984" xlink:href="#DejaVuSans-68"/>
      <use x="934.960938" xlink:href="#DejaVuSans-73"/>
      <use x="964.453125" xlink:href="#DejaVuSans-77"/>
     </g>
    </g>
   </g>
   <g id="matplotlib.axis_2">
    <g id="ytick_1">
     <g id="line2d_67">
      <path clip-path="url(#p807258b067)" d="M 62.208 293.76 
L 460.8 293.76 
" style="fill:none;stroke:#b0b0b0;stroke-linecap:square;stroke-width:0.8;"/>
     </g>
     <g id="line2d_68">
      <defs>
       <path d="M 0 0 
L -3.5 0 
" id="ma3f3b12fda" style="stroke:#000000;stroke-width:0.8;"/>
      </defs>
      <g>
       <use style="stroke:#000000;stroke-width:0.8;" x="62.208" xlink:href="#ma3f3b12fda" y="293.76"/>
      </g>
     </g>
     <g id="text_4">
      <!-- 0.0 -->
      <defs>
       <path d="M 10.6875 12.40625 
L 21 12.40625 
L 21 0 
L 10.6875 0 
z
" id="DejaVuSans-46"/>
      </defs>
      <g transform="translate(29.763 299.83875)scale(0.16 -0.16)">
       <use xlink:href="#DejaVuSans-48"/>
       <use x="63.623047" xlink:href="#DejaVuSans-46"/>
       <use x="95.410156" xlink:href="#DejaVuSans-48"/>
      </g>
     </g>
    </g>
    <g id="ytick_2">
     <g id="line2d_69">
      <path clip-path="url(#p807258b067)" d="M 62.208 236.274059 
L 460.8 236.274059 
" style="fill:none;stroke:#b0b0b0;stroke-linecap:square;stroke-width:0.8;"/>
     </g>
     <g id="line2d_70">
      <g>
       <use style="stroke:#000000;stroke-width:0.8;" x="62.208" xlink:href="#ma3f3b12fda" y="236.274059"/>
      </g>
     </g>
     <g id="text_5">
      <!-- 0.2 -->
      <g transform="translate(29.763 242.352809)scale(0.16 -0.16)">
       <use xlink:href="#DejaVuSans-48"/>
       <use x="63.623047" xlink:href="#DejaVuSans-46"/>
       <use x="95.410156" xlink:href="#DejaVuSans-50"/>
      </g>
     </g>
    </g>
    <g id="ytick_3">
     <g id="line2d_71">
      <path clip-path="url(#p807258b067)" d="M 62.208 178.788119 
L 460.8 178.788119 
" style="fill:none;stroke:#b0b0b0;stroke-linecap:square;stroke-width:0.8;"/>
     </g>
     <g id="line2d_72">
      <g>
       <use style="stroke:#000000;stroke-width:0.8;" x="62.208" xlink:href="#ma3f3b12fda" y="178.788119"/>
      </g>
     </g>
     <g id="text_6">
      <!-- 0.4 -->
      <defs>
       <path d="M 37.796875 64.3125 
L 12.890625 25.390625 
L 37.796875 25.390625 
z
M 35.203125 72.90625 
L 47.609375 72.90625 
L 47.609375 25.390625 
L 58.015625 25.390625 
L 58.015625 17.1875 
L 47.609375 17.1875 
L 47.609375 0 
L 37.796875 0 
L 37.796875 17.1875 
L 4.890625 17.1875 
L 4.890625 26.703125 
z
" id="DejaVuSans-52"/>
      </defs>
      <g transform="translate(29.763 184.866869)scale(0.16 -0.16)">
       <use xlink:href="#DejaVuSans-48"/>
       <use x="63.623047" xlink:href="#DejaVuSans-46"/>
       <use x="95.410156" xlink:href="#DejaVuSans-52"/>
      </g>
     </g>
    </g>
    <g id="ytick_4">
     <g id="line2d_73">
      <path clip-path="url(#p807258b067)" d="M 62.208 121.302178 
L 460.8 121.302178 
" style="fill:none;stroke:#b0b0b0;stroke-linecap:square;stroke-width:0.8;"/>
     </g>
     <g id="line2d_74">
      <g>
       <use style="stroke:#000000;stroke-width:0.8;" x="62.208" xlink:href="#ma3f3b12fda" y="121.302178"/>
      </g>
     </g>
     <g id="text_7">
      <!-- 0.6 -->
      <defs>
       <path d="M 33.015625 40.375 
Q 26.375 40.375 22.484375 35.828125 
Q 18.609375 31.296875 18.609375 23.390625 
Q 18.609375 15.53125 22.484375 10.953125 
Q 26.375 6.390625 33.015625 6.390625 
Q 39.65625 6.390625 43.53125 10.953125 
Q 47.40625 15.53125 47.40625 23.390625 
Q 47.40625 31.296875 43.53125 35.828125 
Q 39.65625 40.375 33.015625 40.375 
z
M 52.59375 71.296875 
L 52.59375 62.3125 
Q 48.875 64.0625 45.09375 64.984375 
Q 41.3125 65.921875 37.59375 65.921875 
Q 27.828125 65.921875 22.671875 59.328125 
Q 17.53125 52.734375 16.796875 39.40625 
Q 19.671875 43.65625 24.015625 45.921875 
Q 28.375 48.1875 33.59375 48.1875 
Q 44.578125 48.1875 50.953125 41.515625 
Q 57.328125 34.859375 57.328125 23.390625 
Q 57.328125 12.15625 50.6875 5.359375 
Q 44.046875 -1.421875 33.015625 -1.421875 
Q 20.359375 -1.421875 13.671875 8.265625 
Q 6.984375 17.96875 6.984375 36.375 
Q 6.984375 53.65625 15.1875 63.9375 
Q 23.390625 74.21875 37.203125 74.21875 
Q 40.921875 74.21875 44.703125 73.484375 
Q 48.484375 72.75 52.59375 71.296875 
z
" id="DejaVuSans-54"/>
      </defs>
      <g transform="translate(29.763 127.380928)scale(0.16 -0.16)">
       <use xlink:href="#DejaVuSans-48"/>
       <use x="63.623047" xlink:href="#DejaVuSans-46"/>
       <use x="95.410156" xlink:href="#DejaVuSans-54"/>
      </g>
     </g>
    </g>
    <g id="ytick_5">
     <g id="line2d_75">
      <path clip-path="url(#p807258b067)" d="M 62.208 63.816238 
L 460.8 63.816238 
" style="fill:none;stroke:#b0b0b0;stroke-linecap:square;stroke-width:0.8;"/>
     </g>
     <g id="line2d_76">
      <g>
       <use style="stroke:#000000;stroke-width:0.8;" x="62.208" xlink:href="#ma3f3b12fda" y="63.816238"/>
      </g>
     </g>
     <g id="text_8">
      <!-- 0.8 -->
      <defs>
       <path d="M 31.78125 34.625 
Q 24.75 34.625 20.71875 30.859375 
Q 16.703125 27.09375 16.703125 20.515625 
Q 16.703125 13.921875 20.71875 10.15625 
Q 24.75 6.390625 31.78125 6.390625 
Q 38.8125 6.390625 42.859375 10.171875 
Q 46.921875 13.96875 46.921875 20.515625 
Q 46.921875 27.09375 42.890625 30.859375 
Q 38.875 34.625 31.78125 34.625 
z
M 21.921875 38.8125 
Q 15.578125 40.375 12.03125 44.71875 
Q 8.5 49.078125 8.5 55.328125 
Q 8.5 64.0625 14.71875 69.140625 
Q 20.953125 74.21875 31.78125 74.21875 
Q 42.671875 74.21875 48.875 69.140625 
Q 55.078125 64.0625 55.078125 55.328125 
Q 55.078125 49.078125 51.53125 44.71875 
Q 48 40.375 41.703125 38.8125 
Q 48.828125 37.15625 52.796875 32.3125 
Q 56.78125 27.484375 56.78125 20.515625 
Q 56.78125 9.90625 50.3125 4.234375 
Q 43.84375 -1.421875 31.78125 -1.421875 
Q 19.734375 -1.421875 13.25 4.234375 
Q 6.78125 9.90625 6.78125 20.515625 
Q 6.78125 27.484375 10.78125 32.3125 
Q 14.796875 37.15625 21.921875 38.8125 
z
M 18.3125 54.390625 
Q 18.3125 48.734375 21.84375 45.5625 
Q 25.390625 42.390625 31.78125 42.390625 
Q 38.140625 42.390625 41.71875 45.5625 
Q 45.3125 48.734375 45.3125 54.390625 
Q 45.3125 60.0625 41.71875 63.234375 
Q 38.140625 66.40625 31.78125 66.40625 
Q 25.390625 66.40625 21.84375 63.234375 
Q 18.3125 60.0625 18.3125 54.390625 
z
" id="DejaVuSans-56"/>
      </defs>
      <g transform="translate(29.763 69.894988)scale(0.16 -0.16)">
       <use xlink:href="#DejaVuSans-48"/>
       <use x="63.623047" xlink:href="#DejaVuSans-46"/>
       <use x="95.410156" xlink:href="#DejaVuSans-56"/>
      </g>
     </g>
    </g>
    <g id="ytick_6">
     <g id="line2d_77">
      <path clip-path="url(#p807258b067)" d="M 62.208 6.330297 
L 460.8 6.330297 
" style="fill:none;stroke:#b0b0b0;stroke-linecap:square;stroke-width:0.8;"/>
     </g>
     <g id="line2d_78">
      <g>
       <use style="stroke:#000000;stroke-width:0.8;" x="62.208" xlink:href="#ma3f3b12fda" y="6.330297"/>
      </g>
     </g>
     <g id="text_9">
      <!-- 1.0 -->
      <g transform="translate(29.763 12.409047)scale(0.16 -0.16)">
       <use xlink:href="#DejaVuSans-49"/>
       <use x="63.623047" xlink:href="#DejaVuSans-46"/>
       <use x="95.410156" xlink:href="#DejaVuSans-48"/>
      </g>
     </g>
    </g>
    <g id="text_10">
     <!-- proportion of trials -->
     <defs>
      <path d="M 18.109375 8.203125 
L 18.109375 -20.796875 
L 9.078125 -20.796875 
L 9.078125 54.6875 
L 18.109375 54.6875 
L 18.109375 46.390625 
Q 20.953125 51.265625 25.265625 53.625 
Q 29.59375 56 35.59375 56 
Q 45.5625 56 51.78125 48.09375 
Q 58.015625 40.1875 58.015625 27.296875 
Q 58.015625 14.40625 51.78125 6.484375 
Q 45.5625 -1.421875 35.59375 -1.421875 
Q 29.59375 -1.421875 25.265625 0.953125 
Q 20.953125 3.328125 18.109375 8.203125 
z
M 48.6875 27.296875 
Q 48.6875 37.203125 44.609375 42.84375 
Q 40.53125 48.484375 33.40625 48.484375 
Q 26.265625 48.484375 22.1875 42.84375 
Q 18.109375 37.203125 18.109375 27.296875 
Q 18.109375 17.390625 22.1875 11.75 
Q 26.265625 6.109375 33.40625 6.109375 
Q 40.53125 6.109375 44.609375 11.75 
Q 48.6875 17.390625 48.6875 27.296875 
z
" id="DejaVuSans-112"/>
      <path d="M 41.109375 46.296875 
Q 39.59375 47.171875 37.8125 47.578125 
Q 36.03125 48 33.890625 48 
Q 26.265625 48 22.1875 43.046875 
Q 18.109375 38.09375 18.109375 28.8125 
L 18.109375 0 
L 9.078125 0 
L 9.078125 54.6875 
L 18.109375 54.6875 
L 18.109375 46.1875 
Q 20.953125 51.171875 25.484375 53.578125 
Q 30.03125 56 36.53125 56 
Q 37.453125 56 38.578125 55.875 
Q 39.703125 55.765625 41.0625 55.515625 
z
" id="DejaVuSans-114"/>
      <path d="M 18.3125 70.21875 
L 18.3125 54.6875 
L 36.8125 54.6875 
L 36.8125 47.703125 
L 18.3125 47.703125 
L 18.3125 18.015625 
Q 18.3125 11.328125 20.140625 9.421875 
Q 21.96875 7.515625 27.59375 7.515625 
L 36.8125 7.515625 
L 36.8125 0 
L 27.59375 0 
Q 17.1875 0 13.234375 3.875 
Q 9.28125 7.765625 9.28125 18.015625 
L 9.28125 47.703125 
L 2.6875 47.703125 
L 2.6875 54.6875 
L 9.28125 54.6875 
L 9.28125 70.21875 
z
" id="DejaVuSans-116"/>
      <path d="M 9.421875 54.6875 
L 18.40625 54.6875 
L 18.40625 0 
L 9.421875 0 
z
M 9.421875 75.984375 
L 18.40625 75.984375 
L 18.40625 64.59375 
L 9.421875 64.59375 
z
" id="DejaVuSans-105"/>
      <path d="M 54.890625 33.015625 
L 54.890625 0 
L 45.90625 0 
L 45.90625 32.71875 
Q 45.90625 40.484375 42.875 44.328125 
Q 39.84375 48.1875 33.796875 48.1875 
Q 26.515625 48.1875 22.3125 43.546875 
Q 18.109375 38.921875 18.109375 30.90625 
L 18.109375 0 
L 9.078125 0 
L 9.078125 54.6875 
L 18.109375 54.6875 
L 18.109375 46.1875 
Q 21.34375 51.125 25.703125 53.5625 
Q 30.078125 56 35.796875 56 
Q 45.21875 56 50.046875 50.171875 
Q 54.890625 44.34375 54.890625 33.015625 
z
" id="DejaVuSans-110"/>
     </defs>
     <g transform="translate(21.603625 241.836125)rotate(-90)scale(0.2 -0.2)">
      <use xlink:href="#DejaVuSans-112"/>
      <use x="63.476562" xlink:href="#DejaVuSans-114"/>
      <use x="104.558594" xlink:href="#DejaVuSans-111"/>
      <use x="165.740234" xlink:href="#DejaVuSans-112"/>
      <use x="229.216797" xlink:href="#DejaVuSans-111"/>
      <use x="290.398438" xlink:href="#DejaVuSans-114"/>
      <use x="331.511719" xlink:href="#DejaVuSans-116"/>
      <use x="370.720703" xlink:href="#DejaVuSans-105"/>
      <use x="398.503906" xlink:href="#DejaVuSans-111"/>
      <use x="459.685547" xlink:href="#DejaVuSans-110"/>
      <use x="523.064453" xlink:href="#DejaVuSans-32"/>
      <use x="554.851562" xlink:href="#DejaVuSans-111"/>
      <use x="616.033203" xlink:href="#DejaVuSans-102"/>
      <use x="651.238281" xlink:href="#DejaVuSans-32"/>
      <use x="683.025391" xlink:href="#DejaVuSans-116"/>
      <use x="722.234375" xlink:href="#DejaVuSans-114"/>
      <use x="763.347656" xlink:href="#DejaVuSans-105"/>
      <use x="791.130859" xlink:href="#DejaVuSans-97"/>
      <use x="852.410156" xlink:href="#DejaVuSans-108"/>
      <use x="880.193359" xlink:href="#DejaVuSans-115"/>
     </g>
    </g>
   </g>
   <g id="line2d_79">
    <path clip-path="url(#p807258b067)" d="M -1 290.566337 
L 18.890936 290.566337 
L 18.890936 284.977426 
L 43.285842 284.977426 
L 43.285842 280.186931 
L 62.208 280.186931 
L 62.208 279.388515 
L 77.668529 279.388515 
L 77.668529 276.993267 
L 90.74022 276.993267 
L 90.74022 276.194851 
L 102.063434 276.194851 
L 102.063434 272.202772 
L 112.051217 272.202772 
L 112.051217 270.605941 
L 120.985593 270.605941 
L 120.985593 269.009109 
L 129.067719 269.009109 
L 129.067719 263.420198 
L 136.446122 263.420198 
L 136.446122 260.226535 
L 143.233595 260.226535 
L 143.233595 258.629703 
L 149.517813 258.629703 
L 149.517813 257.831287 
L 155.368281 257.831287 
L 155.368281 255.43604 
L 160.841027 255.43604 
L 160.841027 254.637624 
L 165.981882 254.637624 
L 165.981882 253.040792 
L 170.82881 253.040792 
L 170.82881 251.44396 
L 175.41361 251.44396 
L 175.41361 250.645545 
L 183.900501 250.645545 
L 183.900501 249.847129 
L 191.614739 249.847129 
L 191.614739 246.653465 
L 195.223715 246.653465 
L 195.223715 245.85505 
L 198.685344 245.85505 
L 198.685344 244.258218 
L 202.011188 244.258218 
L 202.011188 243.459802 
L 205.211497 243.459802 
L 205.211497 242.661386 
L 216.926389 242.661386 
L 216.926389 241.86297 
L 222.227999 241.86297 
L 222.227999 241.064554 
L 224.759475 241.064554 
L 224.759475 240.266139 
L 227.217565 240.266139 
L 227.217565 238.669307 
L 229.606403 238.669307 
L 229.606403 237.870891 
L 231.929785 237.870891 
L 231.929785 236.274059 
L 236.393875 236.274059 
L 236.393875 234.677228 
L 242.678094 234.677228 
L 242.678094 233.878812 
L 246.622905 233.878812 
L 246.622905 233.080396 
L 260.788781 233.080396 
L 260.788781 229.088317 
L 263.98909 229.088317 
L 263.98909 228.289901 
L 265.545063 228.289901 
L 265.545063 226.693069 
L 268.57389 226.693069 
L 268.57389 225.096238 
L 270.048678 225.096238 
L 270.048678 221.902574 
L 277.060781 221.902574 
L 277.060781 221.104158 
L 317.919756 221.104158 
L 317.919756 220.305743 
L 318.747061 220.305743 
L 318.747061 218.708911 
L 319.566373 218.708911 
L 319.566373 217.112079 
L 321.181625 217.112079 
L 321.181625 216.313663 
L 322.766683 216.313663 
L 322.766683 215.515248 
L 325.090065 215.515248 
L 325.090065 214.716832 
L 351.746388 214.716832 
L 351.746388 213.12 
L 353.403733 213.12 
L 353.403733 211.523168 
L 353.949061 211.523168 
L 353.949061 210.724752 
L 354.490904 210.724752 
L 354.490904 209.926337 
L 376.697349 209.926337 
L 376.697349 208.329505 
L 377.9353 208.329505 
L 377.9353 207.531089 
L 378.343966 207.531089 
L 378.343966 205.135842 
L 378.750673 205.135842 
L 378.750673 201.942178 
L 394.951802 201.942178 
L 394.951802 201.143762 
L 395.286312 201.143762 
L 395.286312 200.345347 
L 395.619507 200.345347 
L 395.619507 198.748515 
L 396.281996 198.748515 
L 396.281996 197.950099 
L 409.964255 197.950099 
L 409.964255 197.151683 
L 410.24458 197.151683 
L 410.24458 195.554851 
L 410.523981 195.554851 
L 410.523981 194.756436 
L 423.436127 194.756436 
L 423.436127 193.95802 
L 425.798345 193.95802 
L 425.798345 193.159604 
L 434.21865 193.159604 
L 434.21865 192.361188 
L 436.507818 192.361188 
L 436.507818 191.562772 
L 445.831412 191.562772 
L 445.831412 190.764356 
L 453.225142 190.764356 
L 453.225142 189.965941 
L 454.563208 189.965941 
L 454.563208 189.167525 
L 455.059589 189.167525 
L 455.059589 188.369109 
L 455.059589 188.369109 
L 460.8 188.369109 
L 460.8 188.369109 
" style="fill:none;stroke:#000000;stroke-linecap:square;stroke-width:1.5;"/>
   </g>
   <g id="line2d_80">
    <path clip-path="url(#p807258b067)" style="fill:none;stroke:#000000;stroke-linecap:square;stroke-width:1.5;"/>
   </g>
   <g id="line2d_81">
    <path clip-path="url(#p807258b067)" d="M 378.750673 293.76 
L 378.750673 292.961584 
L 378.750673 292.961584 
L 378.750673 292.961584 
L 460.8 292.961584 
" style="fill:none;stroke:#00bfbf;stroke-linecap:square;stroke-width:1.5;"/>
   </g>
   <g id="line2d_82">
    <path clip-path="url(#p807258b067)" style="fill:none;stroke:#00bfbf;stroke-linecap:square;stroke-width:1.5;"/>
   </g>
   <g id="line2d_83"/>
   <g id="line2d_84"/>
   <g id="line2d_85">
    <path clip-path="url(#p807258b067)" d="M 460.8 293.76 
L 460.8 3.456 
" style="fill:none;stroke:#000000;stroke-linecap:square;stroke-width:1.5;"/>
   </g>
   <g id="patch_3">
    <path d="M 62.208 293.76 
L 62.208 3.456 
" style="fill:none;stroke:#000000;stroke-linecap:square;stroke-linejoin:miter;stroke-width:0.8;"/>
   </g>
   <g id="patch_4">
    <path d="M 460.8 293.76 
L 460.8 3.456 
" style="fill:none;stroke:#000000;stroke-linecap:square;stroke-linejoin:miter;stroke-width:0.8;"/>
   </g>
   <g id="patch_5">
    <path d="M 62.208 293.76 
L 460.8 293.76 
" style="fill:none;stroke:#000000;stroke-linecap:square;stroke-linejoin:miter;stroke-width:0.8;"/>
   </g>
   <g id="patch_6">
    <path d="M 62.208 3.456 
L 460.8 3.456 
" style="fill:none;stroke:#000000;stroke-linecap:square;stroke-linejoin:miter;stroke-width:0.8;"/>
   </g>
   <g id="text_11">
    <!-- {f1-f24}, 5-D -->
    <defs>
     <path d="M 51.125 -9.28125 
L 51.125 -16.3125 
L 48.09375 -16.3125 
Q 35.9375 -16.3125 31.8125 -12.6875 
Q 27.6875 -9.078125 27.6875 1.703125 
L 27.6875 13.375 
Q 27.6875 20.75 25.046875 23.578125 
Q 22.40625 26.421875 15.484375 26.421875 
L 12.5 26.421875 
L 12.5 33.40625 
L 15.484375 33.40625 
Q 22.46875 33.40625 25.078125 36.203125 
Q 27.6875 39.015625 27.6875 46.296875 
L 27.6875 58.015625 
Q 27.6875 68.796875 31.8125 72.390625 
Q 35.9375 75.984375 48.09375 75.984375 
L 51.125 75.984375 
L 51.125 69 
L 47.796875 69 
Q 40.921875 69 38.8125 66.84375 
Q 36.71875 64.703125 36.71875 57.8125 
L 36.71875 45.703125 
Q 36.71875 38.03125 34.5 34.5625 
Q 32.28125 31.109375 26.90625 29.890625 
Q 32.328125 28.5625 34.515625 25.09375 
Q 36.71875 21.625 36.71875 14.015625 
L 36.71875 1.90625 
Q 36.71875 -4.984375 38.8125 -7.125 
Q 40.921875 -9.28125 47.796875 -9.28125 
z
" id="DejaVuSans-123"/>
     <path d="M 4.890625 31.390625 
L 31.203125 31.390625 
L 31.203125 23.390625 
L 4.890625 23.390625 
z
" id="DejaVuSans-45"/>
     <path d="M 12.5 -9.28125 
L 15.921875 -9.28125 
Q 22.75 -9.28125 24.828125 -7.171875 
Q 26.90625 -5.078125 26.90625 1.90625 
L 26.90625 14.015625 
Q 26.90625 21.625 29.09375 25.09375 
Q 31.296875 28.5625 36.71875 29.890625 
Q 31.296875 31.109375 29.09375 34.5625 
Q 26.90625 38.03125 26.90625 45.703125 
L 26.90625 57.8125 
Q 26.90625 64.75 24.828125 66.875 
Q 22.75 69 15.921875 69 
L 12.5 69 
L 12.5 75.984375 
L 15.578125 75.984375 
Q 27.734375 75.984375 31.8125 72.390625 
Q 35.890625 68.796875 35.890625 58.015625 
L 35.890625 46.296875 
Q 35.890625 39.015625 38.515625 36.203125 
Q 41.15625 33.40625 48.09375 33.40625 
L 51.125 33.40625 
L 51.125 26.421875 
L 48.09375 26.421875 
Q 41.15625 26.421875 38.515625 23.578125 
Q 35.890625 20.75 35.890625 13.375 
L 35.890625 1.703125 
Q 35.890625 -9.078125 31.8125 -12.6875 
Q 27.734375 -16.3125 15.578125 -16.3125 
L 12.5 -16.3125 
z
" id="DejaVuSans-125"/>
     <path d="M 11.71875 12.40625 
L 22.015625 12.40625 
L 22.015625 4 
L 14.015625 -11.625 
L 7.71875 -11.625 
L 11.71875 4 
z
" id="DejaVuSans-44"/>
     <path d="M 10.796875 72.90625 
L 49.515625 72.90625 
L 49.515625 64.59375 
L 19.828125 64.59375 
L 19.828125 46.734375 
Q 21.96875 47.46875 24.109375 47.828125 
Q 26.265625 48.1875 28.421875 48.1875 
Q 40.625 48.1875 47.75 41.5 
Q 54.890625 34.8125 54.890625 23.390625 
Q 54.890625 11.625 47.5625 5.09375 
Q 40.234375 -1.421875 26.90625 -1.421875 
Q 22.3125 -1.421875 17.546875 -0.640625 
Q 12.796875 0.140625 7.71875 1.703125 
L 7.71875 11.625 
Q 12.109375 9.234375 16.796875 8.0625 
Q 21.484375 6.890625 26.703125 6.890625 
Q 35.15625 6.890625 40.078125 11.328125 
Q 45.015625 15.765625 45.015625 23.390625 
Q 45.015625 31 40.078125 35.4375 
Q 35.15625 39.890625 26.703125 39.890625 
Q 22.75 39.890625 18.8125 39.015625 
Q 14.890625 38.140625 10.796875 36.28125 
z
" id="DejaVuSans-53"/>
    </defs>
    <g transform="translate(195.0165 24.458955)scale(0.2 -0.2)">
     <use xlink:href="#DejaVuSans-123"/>
     <use x="63.623047" xlink:href="#DejaVuSans-102"/>
     <use x="98.828125" xlink:href="#DejaVuSans-49"/>
     <use x="162.451172" xlink:href="#DejaVuSans-45"/>
     <use x="198.535156" xlink:href="#DejaVuSans-102"/>
     <use x="233.740234" xlink:href="#DejaVuSans-50"/>
     <use x="297.363281" xlink:href="#DejaVuSans-52"/>
     <use x="360.986328" xlink:href="#DejaVuSans-125"/>
     <use x="424.609375" xlink:href="#DejaVuSans-44"/>
     <use x="456.396484" xlink:href="#DejaVuSans-32"/>
     <use x="488.183594" xlink:href="#DejaVuSans-53"/>
     <use x="551.806641" xlink:href="#DejaVuSans-45"/>
     <use x="587.890625" xlink:href="#DejaVuSans-68"/>
    </g>
   </g>
   <g id="text_12">
    <!-- absolute targets -->
    <defs>
     <path d="M 48.6875 27.296875 
Q 48.6875 37.203125 44.609375 42.84375 
Q 40.53125 48.484375 33.40625 48.484375 
Q 26.265625 48.484375 22.1875 42.84375 
Q 18.109375 37.203125 18.109375 27.296875 
Q 18.109375 17.390625 22.1875 11.75 
Q 26.265625 6.109375 33.40625 6.109375 
Q 40.53125 6.109375 44.609375 11.75 
Q 48.6875 17.390625 48.6875 27.296875 
z
M 18.109375 46.390625 
Q 20.953125 51.265625 25.265625 53.625 
Q 29.59375 56 35.59375 56 
Q 45.5625 56 51.78125 48.09375 
Q 58.015625 40.1875 58.015625 27.296875 
Q 58.015625 14.40625 51.78125 6.484375 
Q 45.5625 -1.421875 35.59375 -1.421875 
Q 29.59375 -1.421875 25.265625 0.953125 
Q 20.953125 3.328125 18.109375 8.203125 
L 18.109375 0 
L 9.078125 0 
L 9.078125 75.984375 
L 18.109375 75.984375 
z
" id="DejaVuSans-98"/>
     <path d="M 8.5 21.578125 
L 8.5 54.6875 
L 17.484375 54.6875 
L 17.484375 21.921875 
Q 17.484375 14.15625 20.5 10.265625 
Q 23.53125 6.390625 29.59375 6.390625 
Q 36.859375 6.390625 41.078125 11.03125 
Q 45.3125 15.671875 45.3125 23.6875 
L 45.3125 54.6875 
L 54.296875 54.6875 
L 54.296875 0 
L 45.3125 0 
L 45.3125 8.40625 
Q 42.046875 3.421875 37.71875 1 
Q 33.40625 -1.421875 27.6875 -1.421875 
Q 18.265625 -1.421875 13.375 4.4375 
Q 8.5 10.296875 8.5 21.578125 
z
M 31.109375 56 
z
" id="DejaVuSans-117"/>
     <path d="M 56.203125 29.59375 
L 56.203125 25.203125 
L 14.890625 25.203125 
Q 15.484375 15.921875 20.484375 11.0625 
Q 25.484375 6.203125 34.421875 6.203125 
Q 39.59375 6.203125 44.453125 7.46875 
Q 49.3125 8.734375 54.109375 11.28125 
L 54.109375 2.78125 
Q 49.265625 0.734375 44.1875 -0.34375 
Q 39.109375 -1.421875 33.890625 -1.421875 
Q 20.796875 -1.421875 13.15625 6.1875 
Q 5.515625 13.8125 5.515625 26.8125 
Q 5.515625 40.234375 12.765625 48.109375 
Q 20.015625 56 32.328125 56 
Q 43.359375 56 49.78125 48.890625 
Q 56.203125 41.796875 56.203125 29.59375 
z
M 47.21875 32.234375 
Q 47.125 39.59375 43.09375 43.984375 
Q 39.0625 48.390625 32.421875 48.390625 
Q 24.90625 48.390625 20.390625 44.140625 
Q 15.875 39.890625 15.1875 32.171875 
z
" id="DejaVuSans-101"/>
    </defs>
    <g transform="translate(62.208 609.174178)scale(0.14 -0.14)">
     <use xlink:href="#DejaVuSans-97"/>
     <use x="61.279297" xlink:href="#DejaVuSans-98"/>
     <use x="124.755859" xlink:href="#DejaVuSans-115"/>
     <use x="176.855469" xlink:href="#DejaVuSans-111"/>
     <use x="238.037109" xlink:href="#DejaVuSans-108"/>
     <use x="265.820312" xlink:href="#DejaVuSans-117"/>
     <use x="329.199219" xlink:href="#DejaVuSans-116"/>
     <use x="368.408203" xlink:href="#DejaVuSans-101"/>
     <use x="429.931641" xlink:href="#DejaVuSans-32"/>
     <use x="461.71875" xlink:href="#DejaVuSans-116"/>
     <use x="500.927734" xlink:href="#DejaVuSans-97"/>
     <use x="562.207031" xlink:href="#DejaVuSans-114"/>
     <use x="603.304688" xlink:href="#DejaVuSans-103"/>
     <use x="666.78125" xlink:href="#DejaVuSans-101"/>
     <use x="728.304688" xlink:href="#DejaVuSans-116"/>
     <use x="767.513672" xlink:href="#DejaVuSans-115"/>
    </g>
   </g>
   <g id="text_13">
    <!-- v2.4 -->
    <g style="fill:#808080;" transform="translate(250.593063 288.777272)scale(0.1 -0.1)">
     <use xlink:href="#DejaVuSans-118"/>
     <use x="59.179688" xlink:href="#DejaVuSans-50"/>
     <use x="122.802734" xlink:href="#DejaVuSans-46"/>
     <use x="154.589844" xlink:href="#DejaVuSans-52"/>
    </g>
   </g>
   <g id="legend_1">
    <g id="patch_7">
     <path d="M 299.34375 136.881 
L 446.8 136.881 
Q 450.8 136.881 450.8 132.881 
L 450.8 17.456 
Q 450.8 13.456 446.8 13.456 
L 299.34375 13.456 
Q 295.34375 13.456 295.34375 17.456 
L 295.34375 132.881 
Q 295.34375 136.881 299.34375 136.881 
z
" style="fill:#ffffff;opacity:0.2;stroke:#cccccc;stroke-linejoin:miter;"/>
    </g>
    <g id="line2d_86">
     <path d="M 303.34375 29.652875 
L 343.34375 29.652875 
" style="fill:none;stroke:#000000;stroke-linecap:square;stroke-width:1.5;"/>
    </g>
    <g id="line2d_87"/>
    <g id="text_14">
     <!-- 1: 11/24 -->
     <defs>
      <path d="M 11.71875 12.40625 
L 22.015625 12.40625 
L 22.015625 0 
L 11.71875 0 
z
M 11.71875 51.703125 
L 22.015625 51.703125 
L 22.015625 39.3125 
L 11.71875 39.3125 
z
" id="DejaVuSans-58"/>
     </defs>
     <g transform="translate(359.34375 36.652875)scale(0.2 -0.2)">
      <use xlink:href="#DejaVuSans-49"/>
      <use x="63.623047" xlink:href="#DejaVuSans-58"/>
      <use x="97.314453" xlink:href="#DejaVuSans-32"/>
      <use x="129.101562" xlink:href="#DejaVuSans-49"/>
      <use x="192.724609" xlink:href="#DejaVuSans-49"/>
      <use x="256.347656" xlink:href="#DejaVuSans-47"/>
      <use x="290.039062" xlink:href="#DejaVuSans-50"/>
      <use x="353.662109" xlink:href="#DejaVuSans-52"/>
     </g>
    </g>
    <g id="line2d_88">
     <path d="M 303.34375 59.009125 
L 343.34375 59.009125 
" style="fill:none;stroke:#00bfbf;stroke-linecap:square;stroke-width:1.5;"/>
    </g>
    <g id="line2d_89"/>
    <g id="text_15">
     <!-- -1: 1/24 -->
     <g transform="translate(359.34375 66.009125)scale(0.2 -0.2)">
      <use xlink:href="#DejaVuSans-45"/>
      <use x="36.083984" xlink:href="#DejaVuSans-49"/>
      <use x="99.707031" xlink:href="#DejaVuSans-58"/>
      <use x="133.398438" xlink:href="#DejaVuSans-32"/>
      <use x="165.185547" xlink:href="#DejaVuSans-49"/>
      <use x="228.808594" xlink:href="#DejaVuSans-47"/>
      <use x="262.5" xlink:href="#DejaVuSans-50"/>
      <use x="326.123047" xlink:href="#DejaVuSans-52"/>
     </g>
    </g>
    <g id="line2d_90">
     <path d="M 303.34375 88.365375 
L 343.34375 88.365375 
" style="fill:none;stroke:#bf00bf;stroke-linecap:square;stroke-width:1.5;"/>
    </g>
    <g id="line2d_91"/>
    <g id="text_16">
     <!-- -4: 0/24 -->
     <g transform="translate(359.34375 95.365375)scale(0.2 -0.2)">
      <use xlink:href="#DejaVuSans-45"/>
      <use x="36.083984" xlink:href="#DejaVuSans-52"/>
      <use x="99.707031" xlink:href="#DejaVuSans-58"/>
      <use x="133.398438" xlink:href="#DejaVuSans-32"/>
      <use x="165.185547" xlink:href="#DejaVuSans-48"/>
      <use x="228.808594" xlink:href="#DejaVuSans-47"/>
      <use x="262.5" xlink:href="#DejaVuSans-50"/>
      <use x="326.123047" xlink:href="#DejaVuSans-52"/>
     </g>
    </g>
    <g id="line2d_92">
     <path d="M 303.34375 117.721625 
L 343.34375 117.721625 
" style="fill:none;stroke:#ff0000;stroke-linecap:square;stroke-width:3;"/>
    </g>
    <g id="line2d_93"/>
    <g id="text_17">
     <!-- -8: 0/24 -->
     <g transform="translate(359.34375 124.721625)scale(0.2 -0.2)">
      <use xlink:href="#DejaVuSans-45"/>
      <use x="36.083984" xlink:href="#DejaVuSans-56"/>
      <use x="99.707031" xlink:href="#DejaVuSans-58"/>
      <use x="133.398438" xlink:href="#DejaVuSans-32"/>
      <use x="165.185547" xlink:href="#DejaVuSans-48"/>
      <use x="228.808594" xlink:href="#DejaVuSans-47"/>
      <use x="262.5" xlink:href="#DejaVuSans-50"/>
      <use x="326.123047" xlink:href="#DejaVuSans-52"/>
     </g>
    </g>
   </g>
  </g>
 </g>
 <defs>
  <clipPath id="p807258b067">
   <rect height="290.304" width="398.592" x="62.208" y="3.456"/>
  </clipPath>
 </defs>
</svg>
