<?xml version="1.0" encoding="utf-8" standalone="no"?>
<!DOCTYPE svg PUBLIC "-//W3C//DTD SVG 1.1//EN"
  "http://www.w3.org/Graphics/SVG/1.1/DTD/svg11.dtd">
<svg height="345.6pt" version="1.1" viewBox="0 0 460.8 345.6" width="460.8pt" xmlns="http://www.w3.org/2000/svg" xmlns:xlink="http://www.w3.org/1999/xlink">
 <metadata>
  <rdf:RDF xmlns:cc="http://creativecommons.org/ns#" xmlns:dc="http://purl.org/dc/elements/1.1/" xmlns:rdf="http://www.w3.org/1999/02/22-rdf-syntax-ns#">
   <cc:Work>
    <dc:type rdf:resource="http://purl.org/dc/dcmitype/StillImage"/>
    <dc:date>2021-07-27T16:03:31.210325</dc:date>
    <dc:format>image/svg+xml</dc:format>
    <dc:creator>
     <cc:Agent>
      <dc:title>Matplotlib v3.4.2, https://matplotlib.org/</dc:title>
     </cc:Agent>
    </dc:creator>
   </cc:Work>
  </rdf:RDF>
 </metadata>
 <defs>
  <style type="text/css">*{stroke-linecap:butt;stroke-linejoin:round;}</style>
 </defs>
 <g id="figure_1">
  <g id="patch_1">
   <path d="M 0 345.6 
L 460.8 345.6 
L 460.8 0 
L 0 0 
z
" style="fill:#ffffff;"/>
  </g>
  <g id="axes_1">
   <g id="patch_2">
    <path d="M 22.78 315.44 
L 453.192 315.44 
L 453.192 27.72 
L 22.78 27.72 
z
" style="fill:#ffffff;"/>
   </g>
   <g id="line2d_1">
    <path clip-path="url(#p8d7156ef01)" d="M 36.868282 116.260221 
L 91.085051 70.590422 
L 159.390103 8.718603 
L 201.192586 -1 
M 303.623326 -1 
L 344.758461 8.439645 
L 385.718101 -1 
" style="fill:none;stroke:#f5deb3;stroke-linecap:square;stroke-width:10;"/>
    <defs>
     <path d="M -0 17.67767 
L 10.606602 0 
L 0 -17.67767 
L -10.606602 -0 
z
" id="m9db7794f5a" style="stroke:#000000;stroke-linejoin:miter;"/>
    </defs>
    <g clip-path="url(#p8d7156ef01)">
     <use style="fill:#f5deb3;stroke:#000000;stroke-linejoin:miter;" x="36.868282" xlink:href="#m9db7794f5a" y="116.260221"/>
     <use style="fill:#f5deb3;stroke:#000000;stroke-linejoin:miter;" x="91.085051" xlink:href="#m9db7794f5a" y="70.590422"/>
     <use style="fill:#f5deb3;stroke:#000000;stroke-linejoin:miter;" x="159.390103" xlink:href="#m9db7794f5a" y="8.718603"/>
     <use style="fill:#f5deb3;stroke:#000000;stroke-linejoin:miter;" x="201.192586" xlink:href="#m9db7794f5a" y="-1"/>
     <use style="fill:#f5deb3;stroke:#000000;stroke-linejoin:miter;" x="303.623326" xlink:href="#m9db7794f5a" y="-1"/>
     <use style="fill:#f5deb3;stroke:#000000;stroke-linejoin:miter;" x="344.758461" xlink:href="#m9db7794f5a" y="8.439645"/>
     <use style="fill:#f5deb3;stroke:#000000;stroke-linejoin:miter;" x="385.718101" xlink:href="#m9db7794f5a" y="-1"/>
    </g>
   </g>
   <g id="line2d_2">
    <defs>
     <path d="M -15 0 
L 15 0 
M 0 15 
L 0 -15 
" id="m5f881c86d0" style="stroke:#000000;stroke-width:5;"/>
    </defs>
    <g clip-path="url(#p8d7156ef01)">
     <use style="stroke:#000000;stroke-width:5;" x="252.074282" xlink:href="#m5f881c86d0" y="154.730229"/>
    </g>
   </g>
   <g id="line2d_3">
    <defs>
     <path d="M -15 0 
L 15 0 
M 0 15 
L 0 -15 
" id="m11e5322db4" style="stroke:#ff0000;stroke-width:5;"/>
    </defs>
    <g clip-path="url(#p8d7156ef01)">
     <use style="fill:#ff0000;stroke:#ff0000;stroke-width:5;" x="36.868282" xlink:href="#m11e5322db4" y="146.913842"/>
    </g>
   </g>
   <g id="line2d_4">
    <g clip-path="url(#p8d7156ef01)">
     <use style="fill:#ff0000;stroke:#ff0000;stroke-width:5;" x="91.085051" xlink:href="#m11e5322db4" y="148.186883"/>
    </g>
   </g>
   <g id="line2d_5">
    <defs>
     <path d="M -15 0 
L 15 0 
M 0 15 
L 0 -15 
" id="m9716073032" style="stroke:#0000ff;stroke-width:5;"/>
    </defs>
    <g clip-path="url(#p8d7156ef01)">
     <use style="fill:#0000ff;stroke:#0000ff;stroke-width:5;" x="159.390103" xlink:href="#m9716073032" y="159.309572"/>
    </g>
   </g>
   <g id="matplotlib.axis_1">
    <g id="xtick_1">
     <g id="line2d_6">
      <defs>
       <path d="M 0 0 
L 0 3.5 
" id="m442ab11991" style="stroke:#000000;stroke-width:0.8;"/>
      </defs>
      <g>
       <use style="stroke:#000000;stroke-width:0.8;" x="36.868282" xlink:href="#m442ab11991" y="315.44"/>
      </g>
     </g>
     <g id="text_1">
      <!-- 2 -->
      <g transform="translate(30.505782 337.636875)scale(0.2 -0.2)">
       <defs>
        <path d="M 1228 531 
L 3431 531 
L 3431 0 
L 469 0 
L 469 531 
Q 828 903 1448 1529 
Q 2069 2156 2228 2338 
Q 2531 2678 2651 2914 
Q 2772 3150 2772 3378 
Q 2772 3750 2511 3984 
Q 2250 4219 1831 4219 
Q 1534 4219 1204 4116 
Q 875 4013 500 3803 
L 500 4441 
Q 881 4594 1212 4672 
Q 1544 4750 1819 4750 
Q 2544 4750 2975 4387 
Q 3406 4025 3406 3419 
Q 3406 3131 3298 2873 
Q 3191 2616 2906 2266 
Q 2828 2175 2409 1742 
Q 1991 1309 1228 531 
z
" id="DejaVuSans-32" transform="scale(0.015625)"/>
       </defs>
       <use xlink:href="#DejaVuSans-32"/>
      </g>
     </g>
    </g>
    <g id="xtick_2">
     <g id="line2d_7">
      <g>
       <use style="stroke:#000000;stroke-width:0.8;" x="91.085051" xlink:href="#m442ab11991" y="315.44"/>
      </g>
     </g>
     <g id="text_2">
      <!-- 3 -->
      <g transform="translate(84.722551 337.636875)scale(0.2 -0.2)">
       <defs>
        <path d="M 2597 2516 
Q 3050 2419 3304 2112 
Q 3559 1806 3559 1356 
Q 3559 666 3084 287 
Q 2609 -91 1734 -91 
Q 1441 -91 1130 -33 
Q 819 25 488 141 
L 488 750 
Q 750 597 1062 519 
Q 1375 441 1716 441 
Q 2309 441 2620 675 
Q 2931 909 2931 1356 
Q 2931 1769 2642 2001 
Q 2353 2234 1838 2234 
L 1294 2234 
L 1294 2753 
L 1863 2753 
Q 2328 2753 2575 2939 
Q 2822 3125 2822 3475 
Q 2822 3834 2567 4026 
Q 2313 4219 1838 4219 
Q 1578 4219 1281 4162 
Q 984 4106 628 3988 
L 628 4550 
Q 988 4650 1302 4700 
Q 1616 4750 1894 4750 
Q 2613 4750 3031 4423 
Q 3450 4097 3450 3541 
Q 3450 3153 3228 2886 
Q 3006 2619 2597 2516 
z
" id="DejaVuSans-33" transform="scale(0.015625)"/>
       </defs>
       <use xlink:href="#DejaVuSans-33"/>
      </g>
     </g>
    </g>
    <g id="xtick_3">
     <g id="line2d_8">
      <g>
       <use style="stroke:#000000;stroke-width:0.8;" x="159.390103" xlink:href="#m442ab11991" y="315.44"/>
      </g>
     </g>
     <g id="text_3">
      <!-- 5 -->
      <g transform="translate(153.027603 337.636875)scale(0.2 -0.2)">
       <defs>
        <path d="M 691 4666 
L 3169 4666 
L 3169 4134 
L 1269 4134 
L 1269 2991 
Q 1406 3038 1543 3061 
Q 1681 3084 1819 3084 
Q 2600 3084 3056 2656 
Q 3513 2228 3513 1497 
Q 3513 744 3044 326 
Q 2575 -91 1722 -91 
Q 1428 -91 1123 -41 
Q 819 9 494 109 
L 494 744 
Q 775 591 1075 516 
Q 1375 441 1709 441 
Q 2250 441 2565 725 
Q 2881 1009 2881 1497 
Q 2881 1984 2565 2268 
Q 2250 2553 1709 2553 
Q 1456 2553 1204 2497 
Q 953 2441 691 2322 
L 691 4666 
z
" id="DejaVuSans-35" transform="scale(0.015625)"/>
       </defs>
       <use xlink:href="#DejaVuSans-35"/>
      </g>
     </g>
    </g>
    <g id="xtick_4">
     <g id="line2d_9">
      <g>
       <use style="stroke:#000000;stroke-width:0.8;" x="252.074282" xlink:href="#m442ab11991" y="315.44"/>
      </g>
     </g>
     <g id="text_4">
      <!-- 10 -->
      <g transform="translate(239.349282 337.636875)scale(0.2 -0.2)">
       <defs>
        <path d="M 794 531 
L 1825 531 
L 1825 4091 
L 703 3866 
L 703 4441 
L 1819 4666 
L 2450 4666 
L 2450 531 
L 3481 531 
L 3481 0 
L 794 0 
L 794 531 
z
" id="DejaVuSans-31" transform="scale(0.015625)"/>
        <path d="M 2034 4250 
Q 1547 4250 1301 3770 
Q 1056 3291 1056 2328 
Q 1056 1369 1301 889 
Q 1547 409 2034 409 
Q 2525 409 2770 889 
Q 3016 1369 3016 2328 
Q 3016 3291 2770 3770 
Q 2525 4250 2034 4250 
z
M 2034 4750 
Q 2819 4750 3233 4129 
Q 3647 3509 3647 2328 
Q 3647 1150 3233 529 
Q 2819 -91 2034 -91 
Q 1250 -91 836 529 
Q 422 1150 422 2328 
Q 422 3509 836 4129 
Q 1250 4750 2034 4750 
z
" id="DejaVuSans-30" transform="scale(0.015625)"/>
       </defs>
       <use xlink:href="#DejaVuSans-31"/>
       <use x="63.623047" xlink:href="#DejaVuSans-30"/>
      </g>
     </g>
    </g>
    <g id="xtick_5">
     <g id="line2d_10">
      <g>
       <use style="stroke:#000000;stroke-width:0.8;" x="344.758461" xlink:href="#m442ab11991" y="315.44"/>
      </g>
     </g>
     <g id="text_5">
      <!-- 20 -->
      <g transform="translate(332.033461 337.636875)scale(0.2 -0.2)">
       <use xlink:href="#DejaVuSans-32"/>
       <use x="63.623047" xlink:href="#DejaVuSans-30"/>
      </g>
     </g>
    </g>
    <g id="xtick_6">
     <g id="line2d_11">
      <g>
       <use style="stroke:#000000;stroke-width:0.8;" x="437.442641" xlink:href="#m442ab11991" y="315.44"/>
      </g>
     </g>
     <g id="text_6">
      <!-- 40 -->
      <g transform="translate(424.717641 337.636875)scale(0.2 -0.2)">
       <defs>
        <path d="M 2419 4116 
L 825 1625 
L 2419 1625 
L 2419 4116 
z
M 2253 4666 
L 3047 4666 
L 3047 1625 
L 3713 1625 
L 3713 1100 
L 3047 1100 
L 3047 0 
L 2419 0 
L 2419 1100 
L 313 1100 
L 313 1709 
L 2253 4666 
z
" id="DejaVuSans-34" transform="scale(0.015625)"/>
       </defs>
       <use xlink:href="#DejaVuSans-34"/>
       <use x="63.623047" xlink:href="#DejaVuSans-30"/>
      </g>
     </g>
    </g>
    <g id="xtick_7">
     <g id="line2d_12">
      <defs>
       <path d="M 0 0 
L 0 2 
" id="me87f7779b0" style="stroke:#000000;stroke-width:0.6;"/>
      </defs>
      <g>
       <use style="stroke:#000000;stroke-width:0.6;" x="129.552461" xlink:href="#me87f7779b0" y="315.44"/>
      </g>
     </g>
    </g>
    <g id="xtick_8">
     <g id="line2d_13">
      <g>
       <use style="stroke:#000000;stroke-width:0.6;" x="183.769231" xlink:href="#me87f7779b0" y="315.44"/>
      </g>
     </g>
    </g>
    <g id="xtick_9">
     <g id="line2d_14">
      <g>
       <use style="stroke:#000000;stroke-width:0.6;" x="204.38149" xlink:href="#me87f7779b0" y="315.44"/>
      </g>
     </g>
    </g>
    <g id="xtick_10">
     <g id="line2d_15">
      <g>
       <use style="stroke:#000000;stroke-width:0.6;" x="222.236641" xlink:href="#me87f7779b0" y="315.44"/>
      </g>
     </g>
    </g>
    <g id="xtick_11">
     <g id="line2d_16">
      <g>
       <use style="stroke:#000000;stroke-width:0.6;" x="237.986" xlink:href="#me87f7779b0" y="315.44"/>
      </g>
     </g>
    </g>
    <g id="xtick_12">
     <g id="line2d_17">
      <g>
       <use style="stroke:#000000;stroke-width:0.6;" x="398.975231" xlink:href="#me87f7779b0" y="315.44"/>
      </g>
     </g>
    </g>
   </g>
   <g id="matplotlib.axis_2">
    <g id="ytick_1">
     <g id="line2d_18">
      <path clip-path="url(#p8d7156ef01)" d="M 22.78 306.15871 
L 453.192 306.15871 
" style="fill:none;stroke:#b0b0b0;stroke-linecap:square;stroke-width:0.8;"/>
     </g>
     <g id="line2d_19">
      <defs>
       <path d="M 0 0 
L -3.5 0 
" id="m1c7e39999d" style="stroke:#000000;stroke-width:0.8;"/>
      </defs>
      <g>
       <use style="stroke:#000000;stroke-width:0.8;" x="22.78" xlink:href="#m1c7e39999d" y="306.15871"/>
      </g>
     </g>
     <g id="text_7">
      <!-- 0 -->
      <g transform="translate(3.055 313.757148)scale(0.2 -0.2)">
       <use xlink:href="#DejaVuSans-30"/>
      </g>
     </g>
    </g>
    <g id="ytick_2">
     <g id="line2d_20">
      <path clip-path="url(#p8d7156ef01)" d="M 22.78 259.752262 
L 453.192 259.752262 
" style="fill:none;stroke:#b0b0b0;stroke-linecap:square;stroke-width:0.8;"/>
     </g>
     <g id="line2d_21">
      <g>
       <use style="stroke:#000000;stroke-width:0.8;" x="22.78" xlink:href="#m1c7e39999d" y="259.752262"/>
      </g>
     </g>
     <g id="text_8">
      <!-- 1 -->
      <g transform="translate(3.055 267.350699)scale(0.2 -0.2)">
       <use xlink:href="#DejaVuSans-31"/>
      </g>
     </g>
    </g>
    <g id="ytick_3">
     <g id="line2d_22">
      <path clip-path="url(#p8d7156ef01)" d="M 22.78 213.345814 
L 453.192 213.345814 
" style="fill:none;stroke:#b0b0b0;stroke-linecap:square;stroke-width:0.8;"/>
     </g>
     <g id="line2d_23">
      <g>
       <use style="stroke:#000000;stroke-width:0.8;" x="22.78" xlink:href="#m1c7e39999d" y="213.345814"/>
      </g>
     </g>
     <g id="text_9">
      <!-- 2 -->
      <g transform="translate(3.055 220.944251)scale(0.2 -0.2)">
       <use xlink:href="#DejaVuSans-32"/>
      </g>
     </g>
    </g>
    <g id="ytick_4">
     <g id="line2d_24">
      <path clip-path="url(#p8d7156ef01)" d="M 22.78 166.939365 
L 453.192 166.939365 
" style="fill:none;stroke:#b0b0b0;stroke-linecap:square;stroke-width:0.8;"/>
     </g>
     <g id="line2d_25">
      <g>
       <use style="stroke:#000000;stroke-width:0.8;" x="22.78" xlink:href="#m1c7e39999d" y="166.939365"/>
      </g>
     </g>
     <g id="text_10">
      <!-- 3 -->
      <g transform="translate(3.055 174.537803)scale(0.2 -0.2)">
       <use xlink:href="#DejaVuSans-33"/>
      </g>
     </g>
    </g>
    <g id="ytick_5">
     <g id="line2d_26">
      <path clip-path="url(#p8d7156ef01)" d="M 22.78 120.532917 
L 453.192 120.532917 
" style="fill:none;stroke:#b0b0b0;stroke-linecap:square;stroke-width:0.8;"/>
     </g>
     <g id="line2d_27">
      <g>
       <use style="stroke:#000000;stroke-width:0.8;" x="22.78" xlink:href="#m1c7e39999d" y="120.532917"/>
      </g>
     </g>
     <g id="text_11">
      <!-- 4 -->
      <g transform="translate(3.055 128.131354)scale(0.2 -0.2)">
       <use xlink:href="#DejaVuSans-34"/>
      </g>
     </g>
    </g>
    <g id="ytick_6">
     <g id="line2d_28">
      <path clip-path="url(#p8d7156ef01)" d="M 22.78 74.126469 
L 453.192 74.126469 
" style="fill:none;stroke:#b0b0b0;stroke-linecap:square;stroke-width:0.8;"/>
     </g>
     <g id="line2d_29">
      <g>
       <use style="stroke:#000000;stroke-width:0.8;" x="22.78" xlink:href="#m1c7e39999d" y="74.126469"/>
      </g>
     </g>
     <g id="text_12">
      <!-- 5 -->
      <g transform="translate(3.055 81.724906)scale(0.2 -0.2)">
       <use xlink:href="#DejaVuSans-35"/>
      </g>
     </g>
    </g>
    <g id="ytick_7">
     <g id="line2d_30">
      <path clip-path="url(#p8d7156ef01)" d="M 22.78 27.72002 
L 453.192 27.72002 
" style="fill:none;stroke:#b0b0b0;stroke-linecap:square;stroke-width:0.8;"/>
     </g>
     <g id="line2d_31">
      <g>
       <use style="stroke:#000000;stroke-width:0.8;" x="22.78" xlink:href="#m1c7e39999d" y="27.72002"/>
      </g>
     </g>
     <g id="text_13">
      <!-- 6 -->
      <g transform="translate(3.055 35.318458)scale(0.2 -0.2)">
       <defs>
        <path d="M 2113 2584 
Q 1688 2584 1439 2293 
Q 1191 2003 1191 1497 
Q 1191 994 1439 701 
Q 1688 409 2113 409 
Q 2538 409 2786 701 
Q 3034 994 3034 1497 
Q 3034 2003 2786 2293 
Q 2538 2584 2113 2584 
z
M 3366 4563 
L 3366 3988 
Q 3128 4100 2886 4159 
Q 2644 4219 2406 4219 
Q 1781 4219 1451 3797 
Q 1122 3375 1075 2522 
Q 1259 2794 1537 2939 
Q 1816 3084 2150 3084 
Q 2853 3084 3261 2657 
Q 3669 2231 3669 1497 
Q 3669 778 3244 343 
Q 2819 -91 2113 -91 
Q 1303 -91 875 529 
Q 447 1150 447 2328 
Q 447 3434 972 4092 
Q 1497 4750 2381 4750 
Q 2619 4750 2861 4703 
Q 3103 4656 3366 4563 
z
" id="DejaVuSans-36" transform="scale(0.015625)"/>
       </defs>
       <use xlink:href="#DejaVuSans-36"/>
      </g>
     </g>
    </g>
   </g>
   <g id="line2d_32">
    <path clip-path="url(#p8d7156ef01)" d="M 33.682182 297.98694 
L 35.912452 260.78603 
L 33.682182 252.970979 
L 40.054382 252.970979 
L 37.824112 260.78603 
L 40.054382 297.98694 
L 33.682182 297.98694 
" style="fill:none;stroke:#000000;stroke-linecap:square;"/>
   </g>
   <g id="line2d_33">
    <path clip-path="url(#p8d7156ef01)" d="M 33.682182 297.98694 
L 40.054382 297.98694 
L 40.054382 252.970979 
L 33.682182 252.970979 
L 33.682182 297.98694 
" style="fill:none;"/>
    <defs>
     <path d="M 0 3 
C 0.795609 3 1.55874 2.683901 2.12132 2.12132 
C 2.683901 1.55874 3 0.795609 3 0 
C 3 -0.795609 2.683901 -1.55874 2.12132 -2.12132 
C 1.55874 -2.683901 0.795609 -3 0 -3 
C -0.795609 -3 -1.55874 -2.683901 -2.12132 -2.12132 
C -2.683901 -1.55874 -3 -0.795609 -3 0 
C -3 0.795609 -2.683901 1.55874 -2.12132 2.12132 
C -1.55874 2.683901 -0.795609 3 0 3 
z
" id="mdaa281ce20" style="stroke:#000000;stroke-width:2;"/>
    </defs>
    <g clip-path="url(#p8d7156ef01)">
     <use style="stroke:#000000;stroke-width:2;" x="33.682182" xlink:href="#mdaa281ce20" y="297.98694"/>
     <use style="stroke:#000000;stroke-width:2;" x="40.054382" xlink:href="#mdaa281ce20" y="297.98694"/>
     <use style="stroke:#000000;stroke-width:2;" x="40.054382" xlink:href="#mdaa281ce20" y="252.970979"/>
     <use style="stroke:#000000;stroke-width:2;" x="33.682182" xlink:href="#mdaa281ce20" y="252.970979"/>
     <use style="stroke:#000000;stroke-width:2;" x="33.682182" xlink:href="#mdaa281ce20" y="297.98694"/>
    </g>
   </g>
   <g id="line2d_34">
    <path clip-path="url(#p8d7156ef01)" d="M 33.682182 260.78603 
L 40.054382 260.78603 
" style="fill:none;stroke:#000000;stroke-linecap:square;stroke-width:2;"/>
   </g>
   <g id="line2d_35">
    <path clip-path="url(#p8d7156ef01)" d="M 87.898951 227.586075 
L 90.129221 215.320517 
L 87.898951 212.684965 
L 94.271152 212.684965 
L 92.040881 215.320517 
L 94.271152 227.586075 
L 87.898951 227.586075 
" style="fill:none;stroke:#000000;stroke-linecap:square;"/>
   </g>
   <g id="line2d_36">
    <path clip-path="url(#p8d7156ef01)" d="M 87.898951 227.586075 
L 94.271152 227.586075 
L 94.271152 212.684965 
L 87.898951 212.684965 
L 87.898951 227.586075 
" style="fill:none;"/>
    <g clip-path="url(#p8d7156ef01)">
     <use style="stroke:#000000;stroke-width:2;" x="87.898951" xlink:href="#mdaa281ce20" y="227.586075"/>
     <use style="stroke:#000000;stroke-width:2;" x="94.271152" xlink:href="#mdaa281ce20" y="227.586075"/>
     <use style="stroke:#000000;stroke-width:2;" x="94.271152" xlink:href="#mdaa281ce20" y="212.684965"/>
     <use style="stroke:#000000;stroke-width:2;" x="87.898951" xlink:href="#mdaa281ce20" y="212.684965"/>
     <use style="stroke:#000000;stroke-width:2;" x="87.898951" xlink:href="#mdaa281ce20" y="227.586075"/>
    </g>
   </g>
   <g id="line2d_37">
    <path clip-path="url(#p8d7156ef01)" d="M 87.898951 215.320517 
L 94.271152 215.320517 
" style="fill:none;stroke:#000000;stroke-linecap:square;stroke-width:2;"/>
   </g>
   <g id="line2d_38">
    <path clip-path="url(#p8d7156ef01)" d="M 156.204002 178.988211 
L 158.434273 170.884959 
L 156.204002 163.569446 
L 162.576203 163.569446 
L 160.345933 170.884959 
L 162.576203 178.988211 
L 156.204002 178.988211 
" style="fill:none;stroke:#000000;stroke-linecap:square;"/>
   </g>
   <g id="line2d_39">
    <path clip-path="url(#p8d7156ef01)" d="M 156.204002 178.988211 
L 162.576203 178.988211 
L 162.576203 163.569446 
L 156.204002 163.569446 
L 156.204002 178.988211 
" style="fill:none;"/>
    <g clip-path="url(#p8d7156ef01)">
     <use style="stroke:#000000;stroke-width:2;" x="156.204002" xlink:href="#mdaa281ce20" y="178.988211"/>
     <use style="stroke:#000000;stroke-width:2;" x="162.576203" xlink:href="#mdaa281ce20" y="178.988211"/>
     <use style="stroke:#000000;stroke-width:2;" x="162.576203" xlink:href="#mdaa281ce20" y="163.569446"/>
     <use style="stroke:#000000;stroke-width:2;" x="156.204002" xlink:href="#mdaa281ce20" y="163.569446"/>
     <use style="stroke:#000000;stroke-width:2;" x="156.204002" xlink:href="#mdaa281ce20" y="178.988211"/>
    </g>
   </g>
   <g id="line2d_40">
    <path clip-path="url(#p8d7156ef01)" d="M 156.204002 170.884959 
L 162.576203 170.884959 
" style="fill:none;stroke:#000000;stroke-linecap:square;stroke-width:2;"/>
   </g>
   <g id="line2d_41">
    <path clip-path="url(#p8d7156ef01)" d="M 248.888182 128.184136 
L 251.118452 118.480724 
L 248.888182 108.405543 
L 255.260382 108.405543 
L 253.030112 118.480724 
L 255.260382 128.184136 
L 248.888182 128.184136 
" style="fill:none;stroke:#000000;stroke-linecap:square;"/>
   </g>
   <g id="line2d_42">
    <path clip-path="url(#p8d7156ef01)" d="M 248.888182 128.184136 
L 255.260382 128.184136 
L 255.260382 108.405543 
L 248.888182 108.405543 
L 248.888182 128.184136 
" style="fill:none;"/>
    <g clip-path="url(#p8d7156ef01)">
     <use style="stroke:#000000;stroke-width:2;" x="248.888182" xlink:href="#mdaa281ce20" y="128.184136"/>
     <use style="stroke:#000000;stroke-width:2;" x="255.260382" xlink:href="#mdaa281ce20" y="128.184136"/>
     <use style="stroke:#000000;stroke-width:2;" x="255.260382" xlink:href="#mdaa281ce20" y="108.405543"/>
     <use style="stroke:#000000;stroke-width:2;" x="248.888182" xlink:href="#mdaa281ce20" y="108.405543"/>
     <use style="stroke:#000000;stroke-width:2;" x="248.888182" xlink:href="#mdaa281ce20" y="128.184136"/>
    </g>
   </g>
   <g id="line2d_43">
    <path clip-path="url(#p8d7156ef01)" d="M 248.888182 118.480724 
L 255.260382 118.480724 
" style="fill:none;stroke:#000000;stroke-linecap:square;stroke-width:2;"/>
   </g>
   <g id="line2d_44">
    <path clip-path="url(#p8d7156ef01)" d="M 36.868282 249.864216 
L 91.085051 217.548513 
" style="fill:none;stroke:#000000;stroke-linecap:square;stroke-width:4;"/>
   </g>
   <g id="line2d_45">
    <path clip-path="url(#p8d7156ef01)" d="M 91.085051 217.548513 
L 159.390103 169.343325 
" style="fill:none;stroke:#000000;stroke-linecap:square;stroke-width:4;"/>
   </g>
   <g id="line2d_46">
    <path clip-path="url(#p8d7156ef01)" d="M 159.390103 169.343325 
L 252.074282 107.320728 
" style="fill:none;stroke:#000000;stroke-linecap:square;stroke-width:4;"/>
   </g>
   <g id="line2d_47">
    <path clip-path="url(#p8d7156ef01)" d="M 36.868282 249.864216 
L 91.085051 217.548513 
L 159.390103 169.343325 
L 252.074282 107.320728 
" style="fill:none;"/>
    <defs>
     <path d="M 0 10 
C 2.652031 10 5.195799 8.946337 7.071068 7.071068 
C 8.946337 5.195799 10 2.652031 10 0 
C 10 -2.652031 8.946337 -5.195799 7.071068 -7.071068 
C 5.195799 -8.946337 2.652031 -10 0 -10 
C -2.652031 -10 -5.195799 -8.946337 -7.071068 -7.071068 
C -8.946337 -5.195799 -10 -2.652031 -10 0 
C -10 2.652031 -8.946337 5.195799 -7.071068 7.071068 
C -5.195799 8.946337 -2.652031 10 0 10 
z
" id="m314a132f97" style="stroke:#000000;stroke-width:2;"/>
    </defs>
    <g clip-path="url(#p8d7156ef01)">
     <use style="stroke:#000000;stroke-width:2;" x="36.868282" xlink:href="#m314a132f97" y="249.864216"/>
     <use style="stroke:#000000;stroke-width:2;" x="91.085051" xlink:href="#m314a132f97" y="217.548513"/>
     <use style="stroke:#000000;stroke-width:2;" x="159.390103" xlink:href="#m314a132f97" y="169.343325"/>
     <use style="stroke:#000000;stroke-width:2;" x="252.074282" xlink:href="#m314a132f97" y="107.320728"/>
    </g>
   </g>
   <g id="line2d_48">
    <path clip-path="url(#p8d7156ef01)" d="M 32.620148 181.440036 
L 35.593842 131.849526 
L 32.620148 111.014509 
L 41.116416 111.014509 
L 38.142722 131.849526 
L 41.116416 181.440036 
L 32.620148 181.440036 
" style="fill:none;stroke:#0000ff;stroke-linecap:square;"/>
   </g>
   <g id="line2d_49">
    <path clip-path="url(#p8d7156ef01)" d="M 32.620148 181.440036 
L 41.116416 181.440036 
L 41.116416 111.014509 
L 32.620148 111.014509 
L 32.620148 181.440036 
" style="fill:none;"/>
    <defs>
     <path d="M 0 1.5 
C 0.397805 1.5 0.77937 1.341951 1.06066 1.06066 
C 1.341951 0.77937 1.5 0.397805 1.5 0 
C 1.5 -0.397805 1.341951 -0.77937 1.06066 -1.06066 
C 0.77937 -1.341951 0.397805 -1.5 0 -1.5 
C -0.397805 -1.5 -0.77937 -1.341951 -1.06066 -1.06066 
C -1.341951 -0.77937 -1.5 -0.397805 -1.5 0 
C -1.5 0.397805 -1.341951 0.77937 -1.06066 1.06066 
C -0.77937 1.341951 -0.397805 1.5 0 1.5 
z
" id="mae10f82321" style="stroke:#0000ff;"/>
    </defs>
    <g clip-path="url(#p8d7156ef01)">
     <use style="fill:#0000ff;stroke:#0000ff;" x="32.620148" xlink:href="#mae10f82321" y="181.440036"/>
     <use style="fill:#0000ff;stroke:#0000ff;" x="41.116416" xlink:href="#mae10f82321" y="181.440036"/>
     <use style="fill:#0000ff;stroke:#0000ff;" x="41.116416" xlink:href="#mae10f82321" y="111.014509"/>
     <use style="fill:#0000ff;stroke:#0000ff;" x="32.620148" xlink:href="#mae10f82321" y="111.014509"/>
     <use style="fill:#0000ff;stroke:#0000ff;" x="32.620148" xlink:href="#mae10f82321" y="181.440036"/>
    </g>
   </g>
   <g id="line2d_50">
    <path clip-path="url(#p8d7156ef01)" d="M 32.620148 131.849526 
L 41.116416 131.849526 
" style="fill:none;stroke:#0000ff;stroke-linecap:square;stroke-width:2;"/>
   </g>
   <g id="line2d_51">
    <path clip-path="url(#p8d7156ef01)" d="M 86.836918 158.311491 
L 89.810611 140.457077 
L 86.836918 118.702007 
L 95.333185 118.702007 
L 92.359491 140.457077 
L 95.333185 158.311491 
L 86.836918 158.311491 
" style="fill:none;stroke:#0000ff;stroke-linecap:square;"/>
   </g>
   <g id="line2d_52">
    <path clip-path="url(#p8d7156ef01)" d="M 86.836918 158.311491 
L 95.333185 158.311491 
L 95.333185 118.702007 
L 86.836918 118.702007 
L 86.836918 158.311491 
" style="fill:none;"/>
    <g clip-path="url(#p8d7156ef01)">
     <use style="fill:#0000ff;stroke:#0000ff;" x="86.836918" xlink:href="#mae10f82321" y="158.311491"/>
     <use style="fill:#0000ff;stroke:#0000ff;" x="95.333185" xlink:href="#mae10f82321" y="158.311491"/>
     <use style="fill:#0000ff;stroke:#0000ff;" x="95.333185" xlink:href="#mae10f82321" y="118.702007"/>
     <use style="fill:#0000ff;stroke:#0000ff;" x="86.836918" xlink:href="#mae10f82321" y="118.702007"/>
     <use style="fill:#0000ff;stroke:#0000ff;" x="86.836918" xlink:href="#mae10f82321" y="158.311491"/>
    </g>
   </g>
   <g id="line2d_53">
    <path clip-path="url(#p8d7156ef01)" d="M 86.836918 140.457077 
L 95.333185 140.457077 
" style="fill:none;stroke:#0000ff;stroke-linecap:square;stroke-width:2;"/>
   </g>
   <g id="line2d_54">
    <path clip-path="url(#p8d7156ef01)" d="M 155.141969 134.095644 
L 158.115662 114.516862 
L 155.141969 105.235407 
L 163.638236 105.235407 
L 160.664543 114.516862 
L 163.638236 134.095644 
L 155.141969 134.095644 
" style="fill:none;stroke:#0000ff;stroke-linecap:square;"/>
   </g>
   <g id="line2d_55">
    <path clip-path="url(#p8d7156ef01)" d="M 155.141969 134.095644 
L 163.638236 134.095644 
L 163.638236 105.235407 
L 155.141969 105.235407 
L 155.141969 134.095644 
" style="fill:none;"/>
    <g clip-path="url(#p8d7156ef01)">
     <use style="fill:#0000ff;stroke:#0000ff;" x="155.141969" xlink:href="#mae10f82321" y="134.095644"/>
     <use style="fill:#0000ff;stroke:#0000ff;" x="163.638236" xlink:href="#mae10f82321" y="134.095644"/>
     <use style="fill:#0000ff;stroke:#0000ff;" x="163.638236" xlink:href="#mae10f82321" y="105.235407"/>
     <use style="fill:#0000ff;stroke:#0000ff;" x="155.141969" xlink:href="#mae10f82321" y="105.235407"/>
     <use style="fill:#0000ff;stroke:#0000ff;" x="155.141969" xlink:href="#mae10f82321" y="134.095644"/>
    </g>
   </g>
   <g id="line2d_56">
    <path clip-path="url(#p8d7156ef01)" d="M 155.141969 114.516862 
L 163.638236 114.516862 
" style="fill:none;stroke:#0000ff;stroke-linecap:square;stroke-width:2;"/>
   </g>
   <g id="line2d_57">
    <path clip-path="url(#p8d7156ef01)" d="M 36.868282 122.002556 
L 91.085051 124.753279 
" style="fill:none;stroke:#0000ff;stroke-linecap:square;stroke-width:4;"/>
   </g>
   <g id="line2d_58">
    <path clip-path="url(#p8d7156ef01)" d="M 91.085051 124.753279 
L 159.390103 103.746237 
" style="fill:none;stroke:#0000ff;stroke-linecap:square;stroke-width:4;"/>
   </g>
   <g id="line2d_59">
    <path clip-path="url(#p8d7156ef01)" d="M 36.868282 122.002556 
L 91.085051 124.753279 
L 159.390103 103.746237 
" style="fill:none;"/>
    <defs>
     <path d="M 0 5 
C 1.326016 5 2.597899 4.473168 3.535534 3.535534 
C 4.473168 2.597899 5 1.326016 5 0 
C 5 -1.326016 4.473168 -2.597899 3.535534 -3.535534 
C 2.597899 -4.473168 1.326016 -5 0 -5 
C -1.326016 -5 -2.597899 -4.473168 -3.535534 -3.535534 
C -4.473168 -2.597899 -5 -1.326016 -5 0 
C -5 1.326016 -4.473168 2.597899 -3.535534 3.535534 
C -2.597899 4.473168 -1.326016 5 0 5 
z
" id="m238ff78933" style="stroke:#0000ff;"/>
    </defs>
    <g clip-path="url(#p8d7156ef01)">
     <use style="fill:#0000ff;stroke:#0000ff;" x="36.868282" xlink:href="#m238ff78933" y="122.002556"/>
     <use style="fill:#0000ff;stroke:#0000ff;" x="91.085051" xlink:href="#m238ff78933" y="124.753279"/>
     <use style="fill:#0000ff;stroke:#0000ff;" x="159.390103" xlink:href="#m238ff78933" y="103.746237"/>
    </g>
   </g>
   <g id="line2d_60">
    <path clip-path="url(#p8d7156ef01)" d="M 31.558115 106.118193 
L 35.275232 95.693875 
L 31.558115 85.755564 
L 42.178449 85.755564 
L 38.461332 95.693875 
L 42.178449 106.118193 
L 31.558115 106.118193 
" style="fill:none;stroke:#00bfbf;stroke-linecap:square;"/>
   </g>
   <g id="line2d_61">
    <path clip-path="url(#p8d7156ef01)" d="M 31.558115 106.118193 
L 42.178449 106.118193 
L 42.178449 85.755564 
L 31.558115 85.755564 
L 31.558115 106.118193 
" style="fill:none;"/>
    <defs>
     <path d="M -0 3 
L 3 -3 
L -3 -3 
z
" id="mdcdf4a8e79" style="stroke:#00bfbf;stroke-linejoin:miter;stroke-width:2;"/>
    </defs>
    <g clip-path="url(#p8d7156ef01)">
     <use style="fill:#00bfbf;stroke:#00bfbf;stroke-linejoin:miter;stroke-width:2;" x="31.558115" xlink:href="#mdcdf4a8e79" y="106.118193"/>
     <use style="fill:#00bfbf;stroke:#00bfbf;stroke-linejoin:miter;stroke-width:2;" x="42.178449" xlink:href="#mdcdf4a8e79" y="106.118193"/>
     <use style="fill:#00bfbf;stroke:#00bfbf;stroke-linejoin:miter;stroke-width:2;" x="42.178449" xlink:href="#mdcdf4a8e79" y="85.755564"/>
     <use style="fill:#00bfbf;stroke:#00bfbf;stroke-linejoin:miter;stroke-width:2;" x="31.558115" xlink:href="#mdcdf4a8e79" y="85.755564"/>
     <use style="fill:#00bfbf;stroke:#00bfbf;stroke-linejoin:miter;stroke-width:2;" x="31.558115" xlink:href="#mdcdf4a8e79" y="106.118193"/>
    </g>
   </g>
   <g id="line2d_62">
    <path clip-path="url(#p8d7156ef01)" d="M 31.558115 95.693875 
L 42.178449 95.693875 
" style="fill:none;stroke:#00bfbf;stroke-linecap:square;stroke-width:2;"/>
   </g>
   <g id="line2d_63">
    <path clip-path="url(#p8d7156ef01)" d="M 85.774884 133.967015 
L 89.492001 117.948817 
L 85.774884 101.692138 
L 96.395219 101.692138 
L 92.678101 117.948817 
L 96.395219 133.967015 
L 85.774884 133.967015 
" style="fill:none;stroke:#00bfbf;stroke-linecap:square;"/>
   </g>
   <g id="line2d_64">
    <path clip-path="url(#p8d7156ef01)" d="M 85.774884 133.967015 
L 96.395219 133.967015 
L 96.395219 101.692138 
L 85.774884 101.692138 
L 85.774884 133.967015 
" style="fill:none;"/>
    <g clip-path="url(#p8d7156ef01)">
     <use style="fill:#00bfbf;stroke:#00bfbf;stroke-linejoin:miter;stroke-width:2;" x="85.774884" xlink:href="#mdcdf4a8e79" y="133.967015"/>
     <use style="fill:#00bfbf;stroke:#00bfbf;stroke-linejoin:miter;stroke-width:2;" x="96.395219" xlink:href="#mdcdf4a8e79" y="133.967015"/>
     <use style="fill:#00bfbf;stroke:#00bfbf;stroke-linejoin:miter;stroke-width:2;" x="96.395219" xlink:href="#mdcdf4a8e79" y="101.692138"/>
     <use style="fill:#00bfbf;stroke:#00bfbf;stroke-linejoin:miter;stroke-width:2;" x="85.774884" xlink:href="#mdcdf4a8e79" y="101.692138"/>
     <use style="fill:#00bfbf;stroke:#00bfbf;stroke-linejoin:miter;stroke-width:2;" x="85.774884" xlink:href="#mdcdf4a8e79" y="133.967015"/>
    </g>
   </g>
   <g id="line2d_65">
    <path clip-path="url(#p8d7156ef01)" d="M 85.774884 117.948817 
L 96.395219 117.948817 
" style="fill:none;stroke:#00bfbf;stroke-linecap:square;stroke-width:2;"/>
   </g>
   <g id="line2d_66">
    <path clip-path="url(#p8d7156ef01)" d="M 36.868282 91.053106 
L 91.085051 102.263604 
" style="fill:none;stroke:#00bfbf;stroke-linecap:square;stroke-width:4;"/>
   </g>
   <g id="line2d_67">
    <path clip-path="url(#p8d7156ef01)" d="M 36.868282 91.053106 
L 91.085051 102.263604 
" style="fill:none;"/>
    <defs>
     <path d="M -0 10 
L 10 -10 
L -10 -10 
z
" id="md1c83bcd71" style="stroke:#000000;stroke-linejoin:miter;stroke-width:2;"/>
    </defs>
    <g clip-path="url(#p8d7156ef01)">
     <use style="fill:#00bfbf;stroke:#000000;stroke-linejoin:miter;stroke-width:2;" x="36.868282" xlink:href="#md1c83bcd71" y="91.053106"/>
     <use style="fill:#00bfbf;stroke:#000000;stroke-linejoin:miter;stroke-width:2;" x="91.085051" xlink:href="#md1c83bcd71" y="102.263604"/>
    </g>
   </g>
   <g id="line2d_68">
    <path clip-path="url(#p8d7156ef01)" d="M 30.496081 93.127235 
L 34.956622 78.895225 
L 30.496081 68.515112 
L 43.240483 68.515112 
L 38.779942 78.895225 
L 43.240483 93.127235 
L 30.496081 93.127235 
" style="fill:none;stroke:#008000;stroke-linecap:square;"/>
   </g>
   <g id="line2d_69">
    <path clip-path="url(#p8d7156ef01)" d="M 30.496081 93.127235 
L 43.240483 93.127235 
L 43.240483 68.515112 
L 30.496081 68.515112 
L 30.496081 93.127235 
" style="fill:none;"/>
    <defs>
     <path d="M 0 1.5 
C 0.397805 1.5 0.77937 1.341951 1.06066 1.06066 
C 1.341951 0.77937 1.5 0.397805 1.5 0 
C 1.5 -0.397805 1.341951 -0.77937 1.06066 -1.06066 
C 0.77937 -1.341951 0.397805 -1.5 0 -1.5 
C -0.397805 -1.5 -0.77937 -1.341951 -1.06066 -1.06066 
C -1.341951 -0.77937 -1.5 -0.397805 -1.5 0 
C -1.5 0.397805 -1.341951 0.77937 -1.06066 1.06066 
C -0.77937 1.341951 -0.397805 1.5 0 1.5 
z
" id="mf098782291" style="stroke:#008000;"/>
    </defs>
    <g clip-path="url(#p8d7156ef01)">
     <use style="fill:#008000;stroke:#008000;" x="30.496081" xlink:href="#mf098782291" y="93.127235"/>
     <use style="fill:#008000;stroke:#008000;" x="43.240483" xlink:href="#mf098782291" y="93.127235"/>
     <use style="fill:#008000;stroke:#008000;" x="43.240483" xlink:href="#mf098782291" y="68.515112"/>
     <use style="fill:#008000;stroke:#008000;" x="30.496081" xlink:href="#mf098782291" y="68.515112"/>
     <use style="fill:#008000;stroke:#008000;" x="30.496081" xlink:href="#mf098782291" y="93.127235"/>
    </g>
   </g>
   <g id="line2d_70">
    <path clip-path="url(#p8d7156ef01)" d="M 30.496081 78.895225 
L 43.240483 78.895225 
" style="fill:none;stroke:#008000;stroke-linecap:square;stroke-width:2;"/>
   </g>
   <g id="line2d_71">
    <path clip-path="url(#p8d7156ef01)" d="M 84.712851 124.252633 
L 89.173391 97.623794 
L 84.712851 89.251401 
L 97.457252 89.251401 
L 92.996711 97.623794 
L 97.457252 124.252633 
L 84.712851 124.252633 
" style="fill:none;stroke:#008000;stroke-linecap:square;"/>
   </g>
   <g id="line2d_72">
    <path clip-path="url(#p8d7156ef01)" d="M 84.712851 124.252633 
L 97.457252 124.252633 
L 97.457252 89.251401 
L 84.712851 89.251401 
L 84.712851 124.252633 
" style="fill:none;"/>
    <g clip-path="url(#p8d7156ef01)">
     <use style="fill:#008000;stroke:#008000;" x="84.712851" xlink:href="#mf098782291" y="124.252633"/>
     <use style="fill:#008000;stroke:#008000;" x="97.457252" xlink:href="#mf098782291" y="124.252633"/>
     <use style="fill:#008000;stroke:#008000;" x="97.457252" xlink:href="#mf098782291" y="89.251401"/>
     <use style="fill:#008000;stroke:#008000;" x="84.712851" xlink:href="#mf098782291" y="89.251401"/>
     <use style="fill:#008000;stroke:#008000;" x="84.712851" xlink:href="#mf098782291" y="124.252633"/>
    </g>
   </g>
   <g id="line2d_73">
    <path clip-path="url(#p8d7156ef01)" d="M 84.712851 97.623794 
L 97.457252 97.623794 
" style="fill:none;stroke:#008000;stroke-linecap:square;stroke-width:2;"/>
   </g>
   <g id="line2d_74">
    <path clip-path="url(#p8d7156ef01)" d="M 36.868282 76.667477 
L 91.085051 87.770471 
" style="fill:none;stroke:#008000;stroke-linecap:square;stroke-width:4;"/>
   </g>
   <g id="line2d_75">
    <path clip-path="url(#p8d7156ef01)" d="M 36.868282 76.667477 
L 91.085051 87.770471 
" style="fill:none;"/>
    <defs>
     <path d="M 0 5 
C 1.326016 5 2.597899 4.473168 3.535534 3.535534 
C 4.473168 2.597899 5 1.326016 5 0 
C 5 -1.326016 4.473168 -2.597899 3.535534 -3.535534 
C 2.597899 -4.473168 1.326016 -5 0 -5 
C -1.326016 -5 -2.597899 -4.473168 -3.535534 -3.535534 
C -4.473168 -2.597899 -5 -1.326016 -5 0 
C -5 1.326016 -4.473168 2.597899 -3.535534 3.535534 
C -2.597899 4.473168 -1.326016 5 0 5 
z
" id="m0e6e8161d0" style="stroke:#008000;"/>
    </defs>
    <g clip-path="url(#p8d7156ef01)">
     <use style="fill:#008000;stroke:#008000;" x="36.868282" xlink:href="#m0e6e8161d0" y="76.667477"/>
     <use style="fill:#008000;stroke:#008000;" x="91.085051" xlink:href="#m0e6e8161d0" y="87.770471"/>
    </g>
   </g>
   <g id="line2d_76">
    <path clip-path="url(#p8d7156ef01)" d="M 29.434048 119.621704 
L 34.638012 76.665649 
L 29.434048 64.007872 
L 44.302516 64.007872 
L 39.098552 76.665649 
L 44.302516 119.621704 
L 29.434048 119.621704 
" style="fill:none;stroke:#bfbf00;stroke-linecap:square;"/>
   </g>
   <g id="line2d_77">
    <path clip-path="url(#p8d7156ef01)" d="M 29.434048 119.621704 
L 44.302516 119.621704 
L 44.302516 64.007872 
L 29.434048 64.007872 
L 29.434048 119.621704 
" style="fill:none;"/>
    <defs>
     <path d="M 0 -3 
L -3 3 
L 3 3 
z
" id="mb17af8c451" style="stroke:#bfbf00;stroke-linejoin:miter;stroke-width:2;"/>
    </defs>
    <g clip-path="url(#p8d7156ef01)">
     <use style="fill:#bfbf00;stroke:#bfbf00;stroke-linejoin:miter;stroke-width:2;" x="29.434048" xlink:href="#mb17af8c451" y="119.621704"/>
     <use style="fill:#bfbf00;stroke:#bfbf00;stroke-linejoin:miter;stroke-width:2;" x="44.302516" xlink:href="#mb17af8c451" y="119.621704"/>
     <use style="fill:#bfbf00;stroke:#bfbf00;stroke-linejoin:miter;stroke-width:2;" x="44.302516" xlink:href="#mb17af8c451" y="64.007872"/>
     <use style="fill:#bfbf00;stroke:#bfbf00;stroke-linejoin:miter;stroke-width:2;" x="29.434048" xlink:href="#mb17af8c451" y="64.007872"/>
     <use style="fill:#bfbf00;stroke:#bfbf00;stroke-linejoin:miter;stroke-width:2;" x="29.434048" xlink:href="#mb17af8c451" y="119.621704"/>
    </g>
   </g>
   <g id="line2d_78">
    <path clip-path="url(#p8d7156ef01)" d="M 29.434048 76.665649 
L 44.302516 76.665649 
" style="fill:none;stroke:#bfbf00;stroke-linecap:square;stroke-width:2;"/>
   </g>
   <g id="line2d_79">
    <path clip-path="url(#p8d7156ef01)" d="M 83.650817 124.031656 
L 88.854781 101.064963 
L 83.650817 87.367982 
L 98.519285 87.367982 
L 93.315322 101.064963 
L 98.519285 124.031656 
L 83.650817 124.031656 
" style="fill:none;stroke:#bfbf00;stroke-linecap:square;"/>
   </g>
   <g id="line2d_80">
    <path clip-path="url(#p8d7156ef01)" d="M 83.650817 124.031656 
L 98.519285 124.031656 
L 98.519285 87.367982 
L 83.650817 87.367982 
L 83.650817 124.031656 
" style="fill:none;"/>
    <g clip-path="url(#p8d7156ef01)">
     <use style="fill:#bfbf00;stroke:#bfbf00;stroke-linejoin:miter;stroke-width:2;" x="83.650817" xlink:href="#mb17af8c451" y="124.031656"/>
     <use style="fill:#bfbf00;stroke:#bfbf00;stroke-linejoin:miter;stroke-width:2;" x="98.519285" xlink:href="#mb17af8c451" y="124.031656"/>
     <use style="fill:#bfbf00;stroke:#bfbf00;stroke-linejoin:miter;stroke-width:2;" x="98.519285" xlink:href="#mb17af8c451" y="87.367982"/>
     <use style="fill:#bfbf00;stroke:#bfbf00;stroke-linejoin:miter;stroke-width:2;" x="83.650817" xlink:href="#mb17af8c451" y="87.367982"/>
     <use style="fill:#bfbf00;stroke:#bfbf00;stroke-linejoin:miter;stroke-width:2;" x="83.650817" xlink:href="#mb17af8c451" y="124.031656"/>
    </g>
   </g>
   <g id="line2d_81">
    <path clip-path="url(#p8d7156ef01)" d="M 83.650817 101.064963 
L 98.519285 101.064963 
" style="fill:none;stroke:#bfbf00;stroke-linecap:square;stroke-width:2;"/>
   </g>
   <g id="line2d_82">
    <path clip-path="url(#p8d7156ef01)" d="M 36.868282 76.654222 
L 91.085051 87.734147 
" style="fill:none;stroke:#bfbf00;stroke-linecap:square;stroke-width:4;"/>
   </g>
   <g id="line2d_83">
    <path clip-path="url(#p8d7156ef01)" d="M 36.868282 76.654222 
L 91.085051 87.734147 
" style="fill:none;"/>
    <defs>
     <path d="M 0 -10 
L -10 10 
L 10 10 
z
" id="m6782f9064a" style="stroke:#000000;stroke-linejoin:miter;stroke-width:2;"/>
    </defs>
    <g clip-path="url(#p8d7156ef01)">
     <use style="fill:#bfbf00;stroke:#000000;stroke-linejoin:miter;stroke-width:2;" x="36.868282" xlink:href="#m6782f9064a" y="76.654222"/>
     <use style="fill:#bfbf00;stroke:#000000;stroke-linejoin:miter;stroke-width:2;" x="91.085051" xlink:href="#m6782f9064a" y="87.734147"/>
    </g>
   </g>
   <g id="line2d_84">
    <path clip-path="url(#p8d7156ef01)" d="M 28.372014 106.361647 
L 34.319402 88.887045 
L 28.372014 81.751191 
L 45.364549 81.751191 
L 39.417162 88.887045 
L 45.364549 106.361647 
L 28.372014 106.361647 
" style="fill:none;stroke:#bf00bf;stroke-linecap:square;"/>
   </g>
   <g id="line2d_85">
    <path clip-path="url(#p8d7156ef01)" d="M 28.372014 106.361647 
L 45.364549 106.361647 
L 45.364549 81.751191 
L 28.372014 81.751191 
L 28.372014 106.361647 
" style="fill:none;"/>
    <defs>
     <path d="M 0 1.5 
C 0.397805 1.5 0.77937 1.341951 1.06066 1.06066 
C 1.341951 0.77937 1.5 0.397805 1.5 0 
C 1.5 -0.397805 1.341951 -0.77937 1.06066 -1.06066 
C 0.77937 -1.341951 0.397805 -1.5 0 -1.5 
C -0.397805 -1.5 -0.77937 -1.341951 -1.06066 -1.06066 
C -1.341951 -0.77937 -1.5 -0.397805 -1.5 0 
C -1.5 0.397805 -1.341951 0.77937 -1.06066 1.06066 
C -0.77937 1.341951 -0.397805 1.5 0 1.5 
z
" id="mc546a989b6" style="stroke:#bf00bf;"/>
    </defs>
    <g clip-path="url(#p8d7156ef01)">
     <use style="fill:#bf00bf;stroke:#bf00bf;" x="28.372014" xlink:href="#mc546a989b6" y="106.361647"/>
     <use style="fill:#bf00bf;stroke:#bf00bf;" x="45.364549" xlink:href="#mc546a989b6" y="106.361647"/>
     <use style="fill:#bf00bf;stroke:#bf00bf;" x="45.364549" xlink:href="#mc546a989b6" y="81.751191"/>
     <use style="fill:#bf00bf;stroke:#bf00bf;" x="28.372014" xlink:href="#mc546a989b6" y="81.751191"/>
     <use style="fill:#bf00bf;stroke:#bf00bf;" x="28.372014" xlink:href="#mc546a989b6" y="106.361647"/>
    </g>
   </g>
   <g id="line2d_86">
    <path clip-path="url(#p8d7156ef01)" d="M 28.372014 88.887045 
L 45.364549 88.887045 
" style="fill:none;stroke:#bf00bf;stroke-linecap:square;stroke-width:2;"/>
   </g>
   <g id="line2d_87">
    <path clip-path="url(#p8d7156ef01)" d="M 82.588784 128.092332 
L 88.536171 83.219142 
L 82.588784 76.801015 
L 99.581319 76.801015 
L 93.633932 83.219142 
L 99.581319 128.092332 
L 82.588784 128.092332 
" style="fill:none;stroke:#bf00bf;stroke-linecap:square;"/>
   </g>
   <g id="line2d_88">
    <path clip-path="url(#p8d7156ef01)" d="M 82.588784 128.092332 
L 99.581319 128.092332 
L 99.581319 76.801015 
L 82.588784 76.801015 
L 82.588784 128.092332 
" style="fill:none;"/>
    <g clip-path="url(#p8d7156ef01)">
     <use style="fill:#bf00bf;stroke:#bf00bf;" x="82.588784" xlink:href="#mc546a989b6" y="128.092332"/>
     <use style="fill:#bf00bf;stroke:#bf00bf;" x="99.581319" xlink:href="#mc546a989b6" y="128.092332"/>
     <use style="fill:#bf00bf;stroke:#bf00bf;" x="99.581319" xlink:href="#mc546a989b6" y="76.801015"/>
     <use style="fill:#bf00bf;stroke:#bf00bf;" x="82.588784" xlink:href="#mc546a989b6" y="76.801015"/>
     <use style="fill:#bf00bf;stroke:#bf00bf;" x="82.588784" xlink:href="#mc546a989b6" y="128.092332"/>
    </g>
   </g>
   <g id="line2d_89">
    <path clip-path="url(#p8d7156ef01)" d="M 82.588784 83.219142 
L 99.581319 83.219142 
" style="fill:none;stroke:#bf00bf;stroke-linecap:square;stroke-width:2;"/>
   </g>
   <g id="line2d_90">
    <path clip-path="url(#p8d7156ef01)" d="M 36.868282 76.588415 
L 91.085051 87.681692 
" style="fill:none;stroke:#bf00bf;stroke-linecap:square;stroke-width:4;"/>
   </g>
   <g id="line2d_91">
    <path clip-path="url(#p8d7156ef01)" d="M 36.868282 76.588415 
L 91.085051 87.681692 
" style="fill:none;"/>
    <defs>
     <path d="M 0 5 
C 1.326016 5 2.597899 4.473168 3.535534 3.535534 
C 4.473168 2.597899 5 1.326016 5 0 
C 5 -1.326016 4.473168 -2.597899 3.535534 -3.535534 
C 2.597899 -4.473168 1.326016 -5 0 -5 
C -1.326016 -5 -2.597899 -4.473168 -3.535534 -3.535534 
C -4.473168 -2.597899 -5 -1.326016 -5 0 
C -5 1.326016 -4.473168 2.597899 -3.535534 3.535534 
C -2.597899 4.473168 -1.326016 5 0 5 
z
" id="me4d4ff083b" style="stroke:#bf00bf;"/>
    </defs>
    <g clip-path="url(#p8d7156ef01)">
     <use style="fill:#bf00bf;stroke:#bf00bf;" x="36.868282" xlink:href="#me4d4ff083b" y="76.588415"/>
     <use style="fill:#bf00bf;stroke:#bf00bf;" x="91.085051" xlink:href="#me4d4ff083b" y="87.681692"/>
    </g>
   </g>
   <g id="line2d_92">
    <path clip-path="url(#p8d7156ef01)" d="M 27.309981 102.472278 
L 34.000792 75.507744 
L 27.309981 66.826333 
L 46.426583 66.826333 
L 39.735772 75.507744 
L 46.426583 102.472278 
L 27.309981 102.472278 
" style="fill:none;stroke:#ff0000;stroke-linecap:square;"/>
   </g>
   <g id="line2d_93">
    <path clip-path="url(#p8d7156ef01)" d="M 27.309981 102.472278 
L 46.426583 102.472278 
L 46.426583 66.826333 
L 27.309981 66.826333 
L 27.309981 102.472278 
" style="fill:none;"/>
    <defs>
     <path d="M 0 3 
C 0.795609 3 1.55874 2.683901 2.12132 2.12132 
C 2.683901 1.55874 3 0.795609 3 0 
C 3 -0.795609 2.683901 -1.55874 2.12132 -2.12132 
C 1.55874 -2.683901 0.795609 -3 0 -3 
C -0.795609 -3 -1.55874 -2.683901 -2.12132 -2.12132 
C -2.683901 -1.55874 -3 -0.795609 -3 0 
C -3 0.795609 -2.683901 1.55874 -2.12132 2.12132 
C -1.55874 2.683901 -0.795609 3 0 3 
z
" id="m6da46bf8ab" style="stroke:#ff0000;stroke-width:2;"/>
    </defs>
    <g clip-path="url(#p8d7156ef01)">
     <use style="fill:#ff0000;stroke:#ff0000;stroke-width:2;" x="27.309981" xlink:href="#m6da46bf8ab" y="102.472278"/>
     <use style="fill:#ff0000;stroke:#ff0000;stroke-width:2;" x="46.426583" xlink:href="#m6da46bf8ab" y="102.472278"/>
     <use style="fill:#ff0000;stroke:#ff0000;stroke-width:2;" x="46.426583" xlink:href="#m6da46bf8ab" y="66.826333"/>
     <use style="fill:#ff0000;stroke:#ff0000;stroke-width:2;" x="27.309981" xlink:href="#m6da46bf8ab" y="66.826333"/>
     <use style="fill:#ff0000;stroke:#ff0000;stroke-width:2;" x="27.309981" xlink:href="#m6da46bf8ab" y="102.472278"/>
    </g>
   </g>
   <g id="line2d_94">
    <path clip-path="url(#p8d7156ef01)" d="M 27.309981 75.507744 
L 46.426583 75.507744 
" style="fill:none;stroke:#ff0000;stroke-linecap:square;stroke-width:2;"/>
   </g>
   <g id="line2d_95">
    <path clip-path="url(#p8d7156ef01)" d="M 81.52675 130.820293 
L 88.217561 116.275172 
L 81.52675 85.000152 
L 100.643352 85.000152 
L 93.952542 116.275172 
L 100.643352 130.820293 
L 81.52675 130.820293 
" style="fill:none;stroke:#ff0000;stroke-linecap:square;"/>
   </g>
   <g id="line2d_96">
    <path clip-path="url(#p8d7156ef01)" d="M 81.52675 130.820293 
L 100.643352 130.820293 
L 100.643352 85.000152 
L 81.52675 85.000152 
L 81.52675 130.820293 
" style="fill:none;"/>
    <g clip-path="url(#p8d7156ef01)">
     <use style="fill:#ff0000;stroke:#ff0000;stroke-width:2;" x="81.52675" xlink:href="#m6da46bf8ab" y="130.820293"/>
     <use style="fill:#ff0000;stroke:#ff0000;stroke-width:2;" x="100.643352" xlink:href="#m6da46bf8ab" y="130.820293"/>
     <use style="fill:#ff0000;stroke:#ff0000;stroke-width:2;" x="100.643352" xlink:href="#m6da46bf8ab" y="85.000152"/>
     <use style="fill:#ff0000;stroke:#ff0000;stroke-width:2;" x="81.52675" xlink:href="#m6da46bf8ab" y="85.000152"/>
     <use style="fill:#ff0000;stroke:#ff0000;stroke-width:2;" x="81.52675" xlink:href="#m6da46bf8ab" y="130.820293"/>
    </g>
   </g>
   <g id="line2d_97">
    <path clip-path="url(#p8d7156ef01)" d="M 81.52675 116.275172 
L 100.643352 116.275172 
" style="fill:none;stroke:#ff0000;stroke-linecap:square;stroke-width:2;"/>
   </g>
   <g id="line2d_98">
    <path clip-path="url(#p8d7156ef01)" d="M 36.868282 76.531564 
L 91.085051 87.617299 
" style="fill:none;stroke:#ff0000;stroke-linecap:square;stroke-width:4;"/>
   </g>
   <g id="line2d_99">
    <path clip-path="url(#p8d7156ef01)" d="M 36.868282 76.531564 
L 91.085051 87.617299 
" style="fill:none;"/>
    <defs>
     <path d="M 0 10 
C 2.652031 10 5.195799 8.946337 7.071068 7.071068 
C 8.946337 5.195799 10 2.652031 10 0 
C 10 -2.652031 8.946337 -5.195799 7.071068 -7.071068 
C 5.195799 -8.946337 2.652031 -10 0 -10 
C -2.652031 -10 -5.195799 -8.946337 -7.071068 -7.071068 
C -8.946337 -5.195799 -10 -2.652031 -10 0 
C -10 2.652031 -8.946337 5.195799 -7.071068 7.071068 
C -5.195799 8.946337 -2.652031 10 0 10 
z
" id="m07440999cd" style="stroke:#000000;stroke-width:2;"/>
    </defs>
    <g clip-path="url(#p8d7156ef01)">
     <use style="fill:#ff0000;stroke:#000000;stroke-width:2;" x="36.868282" xlink:href="#m07440999cd" y="76.531564"/>
     <use style="fill:#ff0000;stroke:#000000;stroke-width:2;" x="91.085051" xlink:href="#m07440999cd" y="87.617299"/>
    </g>
   </g>
   <g id="line2d_100"/>
   <g id="line2d_101"/>
   <g id="line2d_102"/>
   <g id="line2d_103"/>
   <g id="line2d_104"/>
   <g id="line2d_105"/>
   <g id="line2d_106"/>
   <g id="line2d_107">
    <defs>
     <path d="M -10 10 
L 10 -10 
M -10 -10 
L 10 10 
" id="m4785aec429" style="stroke:#ff0000;"/>
    </defs>
    <g clip-path="url(#p8d7156ef01)">
     <use style="fill:#ff0000;stroke:#ff0000;" x="36.868282" xlink:href="#m4785aec429" y="121.250949"/>
     <use style="fill:#ff0000;stroke:#ff0000;" x="91.085051" xlink:href="#m4785aec429" y="134.63746"/>
     <use style="fill:#ff0000;stroke:#ff0000;" x="159.390103" xlink:href="#m4785aec429" y="135.664111"/>
     <use style="fill:#ff0000;stroke:#ff0000;" x="252.074282" xlink:href="#m4785aec429" y="130.96294"/>
     <use style="fill:#ff0000;stroke:#ff0000;" x="344.758461" xlink:href="#m4785aec429" y="127.392955"/>
    </g>
   </g>
   <g id="line2d_108">
    <path clip-path="url(#p8d7156ef01)" d="M 76.444975 346.6 
L 461.8 288.517738 
" style="fill:none;stroke:#000000;stroke-dasharray:0.5,0.825;stroke-dashoffset:0;stroke-width:0.5;"/>
   </g>
   <g id="line2d_109">
    <path clip-path="url(#p8d7156ef01)" d="M -1 265.459922 
L 461.8 195.704841 
" style="fill:none;stroke:#000000;stroke-dasharray:0.5,0.825;stroke-dashoffset:0;stroke-width:0.5;"/>
   </g>
   <g id="line2d_110">
    <path clip-path="url(#p8d7156ef01)" d="M -1 172.647025 
L 461.8 102.891945 
" style="fill:none;stroke:#000000;stroke-dasharray:0.5,0.825;stroke-dashoffset:0;stroke-width:0.5;"/>
   </g>
   <g id="line2d_111">
    <path clip-path="url(#p8d7156ef01)" d="M -1 79.834129 
L 461.8 10.079048 
" style="fill:none;stroke:#000000;stroke-dasharray:0.5,0.825;stroke-dashoffset:0;stroke-width:0.5;"/>
   </g>
   <g id="line2d_112">
    <path clip-path="url(#p8d7156ef01)" style="fill:none;stroke:#000000;stroke-dasharray:0.5,0.825;stroke-dashoffset:0;stroke-width:0.5;"/>
   </g>
   <g id="patch_3">
    <path d="M 22.78 315.44 
L 22.78 27.72 
" style="fill:none;stroke:#000000;stroke-linecap:square;stroke-linejoin:miter;stroke-width:0.8;"/>
   </g>
   <g id="patch_4">
    <path d="M 453.192 315.44 
L 453.192 27.72 
" style="fill:none;stroke:#000000;stroke-linecap:square;stroke-linejoin:miter;stroke-width:0.8;"/>
   </g>
   <g id="patch_5">
    <path d="M 22.78 315.44 
L 453.192 315.44 
" style="fill:none;stroke:#000000;stroke-linecap:square;stroke-linejoin:miter;stroke-width:0.8;"/>
   </g>
   <g id="patch_6">
    <path d="M 22.78 27.72 
L 453.192 27.72 
" style="fill:none;stroke:#000000;stroke-linecap:square;stroke-linejoin:miter;stroke-width:0.8;"/>
   </g>
   <g id="text_14">
    <!-- 3 -->
    <g transform="translate(246.666157 95.613489)scale(0.17 -0.17)">
     <use xlink:href="#DejaVuSans-33"/>
    </g>
   </g>
   <g id="text_15">
    <!-- 1 -->
    <g transform="translate(31.460157 64.824325)scale(0.17 -0.17)">
     <use xlink:href="#DejaVuSans-31"/>
    </g>
   </g>
   <g id="text_16">
    <!-- 1 -->
    <g transform="translate(85.676926 75.91006)scale(0.17 -0.17)">
     <use xlink:href="#DejaVuSans-31"/>
    </g>
   </g>
   <g id="text_17">
    <!-- 2 -->
    <g transform="translate(153.981978 92.038999)scale(0.17 -0.17)">
     <use xlink:href="#DejaVuSans-32"/>
    </g>
   </g>
   <g id="text_18">
    <!-- 15 instances -->
    <g transform="translate(22.78 296.8515)scale(0.14 -0.14)">
     <defs>
      <path id="DejaVuSans-20" transform="scale(0.015625)"/>
      <path d="M 603 3500 
L 1178 3500 
L 1178 0 
L 603 0 
L 603 3500 
z
M 603 4863 
L 1178 4863 
L 1178 4134 
L 603 4134 
L 603 4863 
z
" id="DejaVuSans-69" transform="scale(0.015625)"/>
      <path d="M 3513 2113 
L 3513 0 
L 2938 0 
L 2938 2094 
Q 2938 2591 2744 2837 
Q 2550 3084 2163 3084 
Q 1697 3084 1428 2787 
Q 1159 2491 1159 1978 
L 1159 0 
L 581 0 
L 581 3500 
L 1159 3500 
L 1159 2956 
Q 1366 3272 1645 3428 
Q 1925 3584 2291 3584 
Q 2894 3584 3203 3211 
Q 3513 2838 3513 2113 
z
" id="DejaVuSans-6e" transform="scale(0.015625)"/>
      <path d="M 2834 3397 
L 2834 2853 
Q 2591 2978 2328 3040 
Q 2066 3103 1784 3103 
Q 1356 3103 1142 2972 
Q 928 2841 928 2578 
Q 928 2378 1081 2264 
Q 1234 2150 1697 2047 
L 1894 2003 
Q 2506 1872 2764 1633 
Q 3022 1394 3022 966 
Q 3022 478 2636 193 
Q 2250 -91 1575 -91 
Q 1294 -91 989 -36 
Q 684 19 347 128 
L 347 722 
Q 666 556 975 473 
Q 1284 391 1588 391 
Q 1994 391 2212 530 
Q 2431 669 2431 922 
Q 2431 1156 2273 1281 
Q 2116 1406 1581 1522 
L 1381 1569 
Q 847 1681 609 1914 
Q 372 2147 372 2553 
Q 372 3047 722 3315 
Q 1072 3584 1716 3584 
Q 2034 3584 2315 3537 
Q 2597 3491 2834 3397 
z
" id="DejaVuSans-73" transform="scale(0.015625)"/>
      <path d="M 1172 4494 
L 1172 3500 
L 2356 3500 
L 2356 3053 
L 1172 3053 
L 1172 1153 
Q 1172 725 1289 603 
Q 1406 481 1766 481 
L 2356 481 
L 2356 0 
L 1766 0 
Q 1100 0 847 248 
Q 594 497 594 1153 
L 594 3053 
L 172 3053 
L 172 3500 
L 594 3500 
L 594 4494 
L 1172 4494 
z
" id="DejaVuSans-74" transform="scale(0.015625)"/>
      <path d="M 2194 1759 
Q 1497 1759 1228 1600 
Q 959 1441 959 1056 
Q 959 750 1161 570 
Q 1363 391 1709 391 
Q 2188 391 2477 730 
Q 2766 1069 2766 1631 
L 2766 1759 
L 2194 1759 
z
M 3341 1997 
L 3341 0 
L 2766 0 
L 2766 531 
Q 2569 213 2275 61 
Q 1981 -91 1556 -91 
Q 1019 -91 701 211 
Q 384 513 384 1019 
Q 384 1609 779 1909 
Q 1175 2209 1959 2209 
L 2766 2209 
L 2766 2266 
Q 2766 2663 2505 2880 
Q 2244 3097 1772 3097 
Q 1472 3097 1187 3025 
Q 903 2953 641 2809 
L 641 3341 
Q 956 3463 1253 3523 
Q 1550 3584 1831 3584 
Q 2591 3584 2966 3190 
Q 3341 2797 3341 1997 
z
" id="DejaVuSans-61" transform="scale(0.015625)"/>
      <path d="M 3122 3366 
L 3122 2828 
Q 2878 2963 2633 3030 
Q 2388 3097 2138 3097 
Q 1578 3097 1268 2742 
Q 959 2388 959 1747 
Q 959 1106 1268 751 
Q 1578 397 2138 397 
Q 2388 397 2633 464 
Q 2878 531 3122 666 
L 3122 134 
Q 2881 22 2623 -34 
Q 2366 -91 2075 -91 
Q 1284 -91 818 406 
Q 353 903 353 1747 
Q 353 2603 823 3093 
Q 1294 3584 2113 3584 
Q 2378 3584 2631 3529 
Q 2884 3475 3122 3366 
z
" id="DejaVuSans-63" transform="scale(0.015625)"/>
      <path d="M 3597 1894 
L 3597 1613 
L 953 1613 
Q 991 1019 1311 708 
Q 1631 397 2203 397 
Q 2534 397 2845 478 
Q 3156 559 3463 722 
L 3463 178 
Q 3153 47 2828 -22 
Q 2503 -91 2169 -91 
Q 1331 -91 842 396 
Q 353 884 353 1716 
Q 353 2575 817 3079 
Q 1281 3584 2069 3584 
Q 2775 3584 3186 3129 
Q 3597 2675 3597 1894 
z
M 3022 2063 
Q 3016 2534 2758 2815 
Q 2500 3097 2075 3097 
Q 1594 3097 1305 2825 
Q 1016 2553 972 2059 
L 3022 2063 
z
" id="DejaVuSans-65" transform="scale(0.015625)"/>
     </defs>
     <use xlink:href="#DejaVuSans-31"/>
     <use x="63.623047" xlink:href="#DejaVuSans-35"/>
     <use x="127.246094" xlink:href="#DejaVuSans-20"/>
     <use x="159.033203" xlink:href="#DejaVuSans-69"/>
     <use x="186.816406" xlink:href="#DejaVuSans-6e"/>
     <use x="250.195312" xlink:href="#DejaVuSans-73"/>
     <use x="302.294922" xlink:href="#DejaVuSans-74"/>
     <use x="341.503906" xlink:href="#DejaVuSans-61"/>
     <use x="402.783203" xlink:href="#DejaVuSans-6e"/>
     <use x="466.162109" xlink:href="#DejaVuSans-63"/>
     <use x="521.142578" xlink:href="#DejaVuSans-65"/>
     <use x="582.666016" xlink:href="#DejaVuSans-73"/>
    </g>
    <!-- absolute targets -->
    <g transform="translate(22.78 312.528437)scale(0.14 -0.14)">
     <defs>
      <path d="M 3116 1747 
Q 3116 2381 2855 2742 
Q 2594 3103 2138 3103 
Q 1681 3103 1420 2742 
Q 1159 2381 1159 1747 
Q 1159 1113 1420 752 
Q 1681 391 2138 391 
Q 2594 391 2855 752 
Q 3116 1113 3116 1747 
z
M 1159 2969 
Q 1341 3281 1617 3432 
Q 1894 3584 2278 3584 
Q 2916 3584 3314 3078 
Q 3713 2572 3713 1747 
Q 3713 922 3314 415 
Q 2916 -91 2278 -91 
Q 1894 -91 1617 61 
Q 1341 213 1159 525 
L 1159 0 
L 581 0 
L 581 4863 
L 1159 4863 
L 1159 2969 
z
" id="DejaVuSans-62" transform="scale(0.015625)"/>
      <path d="M 1959 3097 
Q 1497 3097 1228 2736 
Q 959 2375 959 1747 
Q 959 1119 1226 758 
Q 1494 397 1959 397 
Q 2419 397 2687 759 
Q 2956 1122 2956 1747 
Q 2956 2369 2687 2733 
Q 2419 3097 1959 3097 
z
M 1959 3584 
Q 2709 3584 3137 3096 
Q 3566 2609 3566 1747 
Q 3566 888 3137 398 
Q 2709 -91 1959 -91 
Q 1206 -91 779 398 
Q 353 888 353 1747 
Q 353 2609 779 3096 
Q 1206 3584 1959 3584 
z
" id="DejaVuSans-6f" transform="scale(0.015625)"/>
      <path d="M 603 4863 
L 1178 4863 
L 1178 0 
L 603 0 
L 603 4863 
z
" id="DejaVuSans-6c" transform="scale(0.015625)"/>
      <path d="M 544 1381 
L 544 3500 
L 1119 3500 
L 1119 1403 
Q 1119 906 1312 657 
Q 1506 409 1894 409 
Q 2359 409 2629 706 
Q 2900 1003 2900 1516 
L 2900 3500 
L 3475 3500 
L 3475 0 
L 2900 0 
L 2900 538 
Q 2691 219 2414 64 
Q 2138 -91 1772 -91 
Q 1169 -91 856 284 
Q 544 659 544 1381 
z
M 1991 3584 
L 1991 3584 
z
" id="DejaVuSans-75" transform="scale(0.015625)"/>
      <path d="M 2631 2963 
Q 2534 3019 2420 3045 
Q 2306 3072 2169 3072 
Q 1681 3072 1420 2755 
Q 1159 2438 1159 1844 
L 1159 0 
L 581 0 
L 581 3500 
L 1159 3500 
L 1159 2956 
Q 1341 3275 1631 3429 
Q 1922 3584 2338 3584 
Q 2397 3584 2469 3576 
Q 2541 3569 2628 3553 
L 2631 2963 
z
" id="DejaVuSans-72" transform="scale(0.015625)"/>
      <path d="M 2906 1791 
Q 2906 2416 2648 2759 
Q 2391 3103 1925 3103 
Q 1463 3103 1205 2759 
Q 947 2416 947 1791 
Q 947 1169 1205 825 
Q 1463 481 1925 481 
Q 2391 481 2648 825 
Q 2906 1169 2906 1791 
z
M 3481 434 
Q 3481 -459 3084 -895 
Q 2688 -1331 1869 -1331 
Q 1566 -1331 1297 -1286 
Q 1028 -1241 775 -1147 
L 775 -588 
Q 1028 -725 1275 -790 
Q 1522 -856 1778 -856 
Q 2344 -856 2625 -561 
Q 2906 -266 2906 331 
L 2906 616 
Q 2728 306 2450 153 
Q 2172 0 1784 0 
Q 1141 0 747 490 
Q 353 981 353 1791 
Q 353 2603 747 3093 
Q 1141 3584 1784 3584 
Q 2172 3584 2450 3431 
Q 2728 3278 2906 2969 
L 2906 3500 
L 3481 3500 
L 3481 434 
z
" id="DejaVuSans-67" transform="scale(0.015625)"/>
     </defs>
     <use xlink:href="#DejaVuSans-61"/>
     <use x="61.279297" xlink:href="#DejaVuSans-62"/>
     <use x="124.755859" xlink:href="#DejaVuSans-73"/>
     <use x="176.855469" xlink:href="#DejaVuSans-6f"/>
     <use x="238.037109" xlink:href="#DejaVuSans-6c"/>
     <use x="265.820312" xlink:href="#DejaVuSans-75"/>
     <use x="329.199219" xlink:href="#DejaVuSans-74"/>
     <use x="368.408203" xlink:href="#DejaVuSans-65"/>
     <use x="429.931641" xlink:href="#DejaVuSans-20"/>
     <use x="461.71875" xlink:href="#DejaVuSans-74"/>
     <use x="500.927734" xlink:href="#DejaVuSans-61"/>
     <use x="562.207031" xlink:href="#DejaVuSans-72"/>
     <use x="601.570312" xlink:href="#DejaVuSans-67"/>
     <use x="665.046875" xlink:href="#DejaVuSans-65"/>
     <use x="726.570312" xlink:href="#DejaVuSans-74"/>
     <use x="765.779297" xlink:href="#DejaVuSans-73"/>
    </g>
   </g>
   <g id="text_19">
    <!-- v2.4 -->
    <g style="fill:#808080;" transform="translate(227.075063 310.483113)scale(0.1 -0.1)">
     <defs>
      <path d="M 191 3500 
L 800 3500 
L 1894 563 
L 2988 3500 
L 3597 3500 
L 2284 0 
L 1503 0 
L 191 3500 
z
" id="DejaVuSans-76" transform="scale(0.015625)"/>
      <path d="M 684 794 
L 1344 794 
L 1344 0 
L 684 0 
L 684 794 
z
" id="DejaVuSans-2e" transform="scale(0.015625)"/>
     </defs>
     <use xlink:href="#DejaVuSans-76"/>
     <use x="59.179688" xlink:href="#DejaVuSans-32"/>
     <use x="122.802734" xlink:href="#DejaVuSans-2e"/>
     <use x="154.589844" xlink:href="#DejaVuSans-34"/>
    </g>
   </g>
   <g id="text_20">
    <!-- 24 Lunacek bi-Rastrigin -->
    <g transform="translate(96.635375 21.72)scale(0.24 -0.24)">
     <defs>
      <path d="M 628 4666 
L 1259 4666 
L 1259 531 
L 3531 531 
L 3531 0 
L 628 0 
L 628 4666 
z
" id="DejaVuSans-4c" transform="scale(0.015625)"/>
      <path d="M 581 4863 
L 1159 4863 
L 1159 1991 
L 2875 3500 
L 3609 3500 
L 1753 1863 
L 3688 0 
L 2938 0 
L 1159 1709 
L 1159 0 
L 581 0 
L 581 4863 
z
" id="DejaVuSans-6b" transform="scale(0.015625)"/>
      <path d="M 313 2009 
L 1997 2009 
L 1997 1497 
L 313 1497 
L 313 2009 
z
" id="DejaVuSans-2d" transform="scale(0.015625)"/>
      <path d="M 2841 2188 
Q 3044 2119 3236 1894 
Q 3428 1669 3622 1275 
L 4263 0 
L 3584 0 
L 2988 1197 
Q 2756 1666 2539 1819 
Q 2322 1972 1947 1972 
L 1259 1972 
L 1259 0 
L 628 0 
L 628 4666 
L 2053 4666 
Q 2853 4666 3247 4331 
Q 3641 3997 3641 3322 
Q 3641 2881 3436 2590 
Q 3231 2300 2841 2188 
z
M 1259 4147 
L 1259 2491 
L 2053 2491 
Q 2509 2491 2742 2702 
Q 2975 2913 2975 3322 
Q 2975 3731 2742 3939 
Q 2509 4147 2053 4147 
L 1259 4147 
z
" id="DejaVuSans-52" transform="scale(0.015625)"/>
     </defs>
     <use xlink:href="#DejaVuSans-32"/>
     <use x="63.623047" xlink:href="#DejaVuSans-34"/>
     <use x="127.246094" xlink:href="#DejaVuSans-20"/>
     <use x="159.033203" xlink:href="#DejaVuSans-4c"/>
     <use x="212.996094" xlink:href="#DejaVuSans-75"/>
     <use x="276.375" xlink:href="#DejaVuSans-6e"/>
     <use x="339.753906" xlink:href="#DejaVuSans-61"/>
     <use x="401.033203" xlink:href="#DejaVuSans-63"/>
     <use x="456.013672" xlink:href="#DejaVuSans-65"/>
     <use x="517.537109" xlink:href="#DejaVuSans-6b"/>
     <use x="575.447266" xlink:href="#DejaVuSans-20"/>
     <use x="607.234375" xlink:href="#DejaVuSans-62"/>
     <use x="670.710938" xlink:href="#DejaVuSans-69"/>
     <use x="698.494141" xlink:href="#DejaVuSans-2d"/>
     <use x="734.578125" xlink:href="#DejaVuSans-52"/>
     <use x="801.810547" xlink:href="#DejaVuSans-61"/>
     <use x="863.089844" xlink:href="#DejaVuSans-73"/>
     <use x="915.189453" xlink:href="#DejaVuSans-74"/>
     <use x="954.398438" xlink:href="#DejaVuSans-72"/>
     <use x="995.511719" xlink:href="#DejaVuSans-69"/>
     <use x="1023.294922" xlink:href="#DejaVuSans-67"/>
     <use x="1086.771484" xlink:href="#DejaVuSans-69"/>
     <use x="1114.554688" xlink:href="#DejaVuSans-6e"/>
    </g>
   </g>
   <g id="legend_1">
    <g id="patch_7">
     <path d="M 374.8395 204.915 
L 441.992 204.915 
Q 445.192 204.915 445.192 201.715 
L 445.192 38.92 
Q 445.192 35.72 441.992 35.72 
L 374.8395 35.72 
Q 371.6395 35.72 371.6395 38.92 
L 371.6395 201.715 
Q 371.6395 204.915 374.8395 204.915 
z
" style="fill:#ffffff;opacity:0.2;stroke:#cccccc;stroke-linejoin:miter;"/>
    </g>
    <g id="line2d_113">
     <path d="M 378.0395 48.6775 
L 410.0395 48.6775 
" style="fill:none;stroke:#ff0000;stroke-linecap:square;stroke-width:4;"/>
    </g>
    <g id="line2d_114">
     <defs>
      <path d="M 0 5 
C 1.326016 5 2.597899 4.473168 3.535534 3.535534 
C 4.473168 2.597899 5 1.326016 5 0 
C 5 -1.326016 4.473168 -2.597899 3.535534 -3.535534 
C 2.597899 -4.473168 1.326016 -5 0 -5 
C -1.326016 -5 -2.597899 -4.473168 -3.535534 -3.535534 
C -4.473168 -2.597899 -5 -1.326016 -5 0 
C -5 1.326016 -4.473168 2.597899 -3.535534 3.535534 
C -2.597899 4.473168 -1.326016 5 0 5 
z
" id="m273e06c1bc" style="stroke:#000000;stroke-width:2;"/>
     </defs>
     <g>
      <use style="fill:#ff0000;stroke:#000000;stroke-width:2;" x="394.0395" xlink:href="#m273e06c1bc" y="48.6775"/>
     </g>
    </g>
    <g id="text_21">
     <!-- -8 -->
     <g transform="translate(422.8395 54.2775)scale(0.16 -0.16)">
      <defs>
       <path d="M 2034 2216 
Q 1584 2216 1326 1975 
Q 1069 1734 1069 1313 
Q 1069 891 1326 650 
Q 1584 409 2034 409 
Q 2484 409 2743 651 
Q 3003 894 3003 1313 
Q 3003 1734 2745 1975 
Q 2488 2216 2034 2216 
z
M 1403 2484 
Q 997 2584 770 2862 
Q 544 3141 544 3541 
Q 544 4100 942 4425 
Q 1341 4750 2034 4750 
Q 2731 4750 3128 4425 
Q 3525 4100 3525 3541 
Q 3525 3141 3298 2862 
Q 3072 2584 2669 2484 
Q 3125 2378 3379 2068 
Q 3634 1759 3634 1313 
Q 3634 634 3220 271 
Q 2806 -91 2034 -91 
Q 1263 -91 848 271 
Q 434 634 434 1313 
Q 434 1759 690 2068 
Q 947 2378 1403 2484 
z
M 1172 3481 
Q 1172 3119 1398 2916 
Q 1625 2713 2034 2713 
Q 2441 2713 2670 2916 
Q 2900 3119 2900 3481 
Q 2900 3844 2670 4047 
Q 2441 4250 2034 4250 
Q 1625 4250 1398 4047 
Q 1172 3844 1172 3481 
z
" id="DejaVuSans-38" transform="scale(0.015625)"/>
      </defs>
      <use xlink:href="#DejaVuSans-2d"/>
      <use x="36.083984" xlink:href="#DejaVuSans-38"/>
     </g>
    </g>
    <g id="line2d_115">
     <path d="M 378.0395 72.1625 
L 410.0395 72.1625 
" style="fill:none;stroke:#bf00bf;stroke-linecap:square;stroke-width:4;"/>
    </g>
    <g id="line2d_116">
     <defs>
      <path d="M 0 2.5 
C 0.663008 2.5 1.29895 2.236584 1.767767 1.767767 
C 2.236584 1.29895 2.5 0.663008 2.5 0 
C 2.5 -0.663008 2.236584 -1.29895 1.767767 -1.767767 
C 1.29895 -2.236584 0.663008 -2.5 0 -2.5 
C -0.663008 -2.5 -1.29895 -2.236584 -1.767767 -1.767767 
C -2.236584 -1.29895 -2.5 -0.663008 -2.5 0 
C -2.5 0.663008 -2.236584 1.29895 -1.767767 1.767767 
C -1.29895 2.236584 -0.663008 2.5 0 2.5 
z
" id="m0bd3e09029" style="stroke:#bf00bf;"/>
     </defs>
     <g>
      <use style="fill:#bf00bf;stroke:#bf00bf;" x="394.0395" xlink:href="#m0bd3e09029" y="72.1625"/>
     </g>
    </g>
    <g id="text_22">
     <!-- -5 -->
     <g transform="translate(422.8395 77.7625)scale(0.16 -0.16)">
      <use xlink:href="#DejaVuSans-2d"/>
      <use x="36.083984" xlink:href="#DejaVuSans-35"/>
     </g>
    </g>
    <g id="line2d_117">
     <path d="M 378.0395 95.6475 
L 410.0395 95.6475 
" style="fill:none;stroke:#bfbf00;stroke-linecap:square;stroke-width:4;"/>
    </g>
    <g id="line2d_118">
     <defs>
      <path d="M 0 -5 
L -5 5 
L 5 5 
z
" id="mcf895d41a1" style="stroke:#000000;stroke-linejoin:miter;stroke-width:2;"/>
     </defs>
     <g>
      <use style="fill:#bfbf00;stroke:#000000;stroke-linejoin:miter;stroke-width:2;" x="394.0395" xlink:href="#mcf895d41a1" y="95.6475"/>
     </g>
    </g>
    <g id="text_23">
     <!-- -3 -->
     <g transform="translate(422.8395 101.2475)scale(0.16 -0.16)">
      <use xlink:href="#DejaVuSans-2d"/>
      <use x="36.083984" xlink:href="#DejaVuSans-33"/>
     </g>
    </g>
    <g id="line2d_119">
     <path d="M 378.0395 119.1325 
L 410.0395 119.1325 
" style="fill:none;stroke:#008000;stroke-linecap:square;stroke-width:4;"/>
    </g>
    <g id="line2d_120">
     <defs>
      <path d="M 0 2.5 
C 0.663008 2.5 1.29895 2.236584 1.767767 1.767767 
C 2.236584 1.29895 2.5 0.663008 2.5 0 
C 2.5 -0.663008 2.236584 -1.29895 1.767767 -1.767767 
C 1.29895 -2.236584 0.663008 -2.5 0 -2.5 
C -0.663008 -2.5 -1.29895 -2.236584 -1.767767 -1.767767 
C -2.236584 -1.29895 -2.5 -0.663008 -2.5 0 
C -2.5 0.663008 -2.236584 1.29895 -1.767767 1.767767 
C -1.29895 2.236584 -0.663008 2.5 0 2.5 
z
" id="m063ecab0bb" style="stroke:#008000;"/>
     </defs>
     <g>
      <use style="fill:#008000;stroke:#008000;" x="394.0395" xlink:href="#m063ecab0bb" y="119.1325"/>
     </g>
    </g>
    <g id="text_24">
     <!-- -2 -->
     <g transform="translate(422.8395 124.7325)scale(0.16 -0.16)">
      <use xlink:href="#DejaVuSans-2d"/>
      <use x="36.083984" xlink:href="#DejaVuSans-32"/>
     </g>
    </g>
    <g id="line2d_121">
     <path d="M 378.0395 142.6175 
L 410.0395 142.6175 
" style="fill:none;stroke:#00bfbf;stroke-linecap:square;stroke-width:4;"/>
    </g>
    <g id="line2d_122">
     <defs>
      <path d="M -0 5 
L 5 -5 
L -5 -5 
z
" id="md8ecb6d31d" style="stroke:#000000;stroke-linejoin:miter;stroke-width:2;"/>
     </defs>
     <g>
      <use style="fill:#00bfbf;stroke:#000000;stroke-linejoin:miter;stroke-width:2;" x="394.0395" xlink:href="#md8ecb6d31d" y="142.6175"/>
     </g>
    </g>
    <g id="text_25">
     <!-- -1 -->
     <g transform="translate(422.8395 148.2175)scale(0.16 -0.16)">
      <use xlink:href="#DejaVuSans-2d"/>
      <use x="36.083984" xlink:href="#DejaVuSans-31"/>
     </g>
    </g>
    <g id="line2d_123">
     <path d="M 378.0395 166.1025 
L 410.0395 166.1025 
" style="fill:none;stroke:#0000ff;stroke-linecap:square;stroke-width:4;"/>
    </g>
    <g id="line2d_124">
     <defs>
      <path d="M 0 2.5 
C 0.663008 2.5 1.29895 2.236584 1.767767 1.767767 
C 2.236584 1.29895 2.5 0.663008 2.5 0 
C 2.5 -0.663008 2.236584 -1.29895 1.767767 -1.767767 
C 1.29895 -2.236584 0.663008 -2.5 0 -2.5 
C -0.663008 -2.5 -1.29895 -2.236584 -1.767767 -1.767767 
C -2.236584 -1.29895 -2.5 -0.663008 -2.5 0 
C -2.5 0.663008 -2.236584 1.29895 -1.767767 1.767767 
C -1.29895 2.236584 -0.663008 2.5 0 2.5 
z
" id="m0872004bd6" style="stroke:#0000ff;"/>
     </defs>
     <g>
      <use style="fill:#0000ff;stroke:#0000ff;" x="394.0395" xlink:href="#m0872004bd6" y="166.1025"/>
     </g>
    </g>
    <g id="text_26">
     <!-- 0 -->
     <g transform="translate(422.8395 171.7025)scale(0.16 -0.16)">
      <use xlink:href="#DejaVuSans-30"/>
     </g>
    </g>
    <g id="line2d_125">
     <path d="M 378.0395 189.5875 
L 410.0395 189.5875 
" style="fill:none;stroke:#000000;stroke-linecap:square;stroke-width:4;"/>
    </g>
    <g id="line2d_126">
     <defs>
      <path d="M 0 5 
C 1.326016 5 2.597899 4.473168 3.535534 3.535534 
C 4.473168 2.597899 5 1.326016 5 0 
C 5 -1.326016 4.473168 -2.597899 3.535534 -3.535534 
C 2.597899 -4.473168 1.326016 -5 0 -5 
C -1.326016 -5 -2.597899 -4.473168 -3.535534 -3.535534 
C -4.473168 -2.597899 -5 -1.326016 -5 0 
C -5 1.326016 -4.473168 2.597899 -3.535534 3.535534 
C -2.597899 4.473168 -1.326016 5 0 5 
z
" id="mb252ea4742" style="stroke:#000000;stroke-width:2;"/>
     </defs>
     <g>
      <use style="stroke:#000000;stroke-width:2;" x="394.0395" xlink:href="#mb252ea4742" y="189.5875"/>
     </g>
    </g>
    <g id="text_27">
     <!-- 1 -->
     <g transform="translate(422.8395 195.1875)scale(0.16 -0.16)">
      <use xlink:href="#DejaVuSans-31"/>
     </g>
    </g>
   </g>
  </g>
 </g>
 <defs>
  <clipPath id="p8d7156ef01">
   <rect height="287.72" width="430.412" x="22.78" y="27.72"/>
  </clipPath>
 </defs>
</svg>
