<?xml version="1.0" encoding="utf-8" standalone="no"?>
<!DOCTYPE svg PUBLIC "-//W3C//DTD SVG 1.1//EN"
  "http://www.w3.org/Graphics/SVG/1.1/DTD/svg11.dtd">
<svg height="345.6pt" version="1.1" viewBox="0 0 460.8 345.6" width="460.8pt" xmlns="http://www.w3.org/2000/svg" xmlns:xlink="http://www.w3.org/1999/xlink">
 <metadata>
  <rdf:RDF xmlns:cc="http://creativecommons.org/ns#" xmlns:dc="http://purl.org/dc/elements/1.1/" xmlns:rdf="http://www.w3.org/1999/02/22-rdf-syntax-ns#">
   <cc:Work>
    <dc:type rdf:resource="http://purl.org/dc/dcmitype/StillImage"/>
    <dc:date>2021-07-27T16:03:36.003042</dc:date>
    <dc:format>image/svg+xml</dc:format>
    <dc:creator>
     <cc:Agent>
      <dc:title>Matplotlib v3.4.2, https://matplotlib.org/</dc:title>
     </cc:Agent>
    </dc:creator>
   </cc:Work>
  </rdf:RDF>
 </metadata>
 <defs>
  <style type="text/css">*{stroke-linecap:butt;stroke-linejoin:round;}</style>
 </defs>
 <g id="figure_1">
  <g id="patch_1">
   <path d="M 0 345.6 
L 460.8 345.6 
L 460.8 0 
L 0 0 
z
" style="fill:#ffffff;"/>
  </g>
  <g id="axes_1">
   <g id="patch_2">
    <path d="M 0 293.76 
L 460.8 293.76 
L 460.8 3.456 
L 0 3.456 
z
" style="fill:#ffffff;"/>
   </g>
   <g id="matplotlib.axis_1">
    <g id="xtick_1">
     <g id="line2d_1">
      <path clip-path="url(#p7b9cc96f2c)" d="M 104.754935 293.76 
L 104.754935 3.456 
" style="fill:none;stroke:#b0b0b0;stroke-linecap:square;stroke-width:0.8;"/>
     </g>
     <g id="line2d_2">
      <defs>
       <path d="M 0 0 
L 0 3.5 
" id="mef0d1afa8a" style="stroke:#000000;stroke-width:0.8;"/>
      </defs>
      <g>
       <use style="stroke:#000000;stroke-width:0.8;" x="104.754935" xlink:href="#mef0d1afa8a" y="293.76"/>
      </g>
     </g>
     <g id="text_1">
      <!-- -4 -->
      <g transform="translate(94.784622 315.956875)scale(0.2 -0.2)">
       <defs>
        <path d="M 313 2009 
L 1997 2009 
L 1997 1497 
L 313 1497 
L 313 2009 
z
" id="DejaVuSans-2d" transform="scale(0.015625)"/>
        <path d="M 2419 4116 
L 825 1625 
L 2419 1625 
L 2419 4116 
z
M 2253 4666 
L 3047 4666 
L 3047 1625 
L 3713 1625 
L 3713 1100 
L 3047 1100 
L 3047 0 
L 2419 0 
L 2419 1100 
L 313 1100 
L 313 1709 
L 2253 4666 
z
" id="DejaVuSans-34" transform="scale(0.015625)"/>
       </defs>
       <use xlink:href="#DejaVuSans-2d"/>
       <use x="36.083984" xlink:href="#DejaVuSans-34"/>
      </g>
     </g>
    </g>
    <g id="xtick_2">
     <g id="line2d_3">
      <path clip-path="url(#p7b9cc96f2c)" d="M 209.623163 293.76 
L 209.623163 3.456 
" style="fill:none;stroke:#b0b0b0;stroke-linecap:square;stroke-width:0.8;"/>
     </g>
     <g id="line2d_4">
      <g>
       <use style="stroke:#000000;stroke-width:0.8;" x="209.623163" xlink:href="#mef0d1afa8a" y="293.76"/>
      </g>
     </g>
     <g id="text_2">
      <!-- 0 -->
      <g transform="translate(203.260663 315.956875)scale(0.2 -0.2)">
       <defs>
        <path d="M 2034 4250 
Q 1547 4250 1301 3770 
Q 1056 3291 1056 2328 
Q 1056 1369 1301 889 
Q 1547 409 2034 409 
Q 2525 409 2770 889 
Q 3016 1369 3016 2328 
Q 3016 3291 2770 3770 
Q 2525 4250 2034 4250 
z
M 2034 4750 
Q 2819 4750 3233 4129 
Q 3647 3509 3647 2328 
Q 3647 1150 3233 529 
Q 2819 -91 2034 -91 
Q 1250 -91 836 529 
Q 422 1150 422 2328 
Q 422 3509 836 4129 
Q 1250 4750 2034 4750 
z
" id="DejaVuSans-30" transform="scale(0.015625)"/>
       </defs>
       <use xlink:href="#DejaVuSans-30"/>
      </g>
     </g>
    </g>
    <g id="xtick_3">
     <g id="line2d_5">
      <path clip-path="url(#p7b9cc96f2c)" d="M 314.491391 293.76 
L 314.491391 3.456 
" style="fill:none;stroke:#b0b0b0;stroke-linecap:square;stroke-width:0.8;"/>
     </g>
     <g id="line2d_6">
      <g>
       <use style="stroke:#000000;stroke-width:0.8;" x="314.491391" xlink:href="#mef0d1afa8a" y="293.76"/>
      </g>
     </g>
     <g id="text_3">
      <!-- 4 -->
      <g transform="translate(308.128891 315.956875)scale(0.2 -0.2)">
       <use xlink:href="#DejaVuSans-34"/>
      </g>
     </g>
    </g>
    <g id="xtick_4">
     <g id="line2d_7">
      <path clip-path="url(#p7b9cc96f2c)" d="M 419.359619 293.76 
L 419.359619 3.456 
" style="fill:none;stroke:#b0b0b0;stroke-linecap:square;stroke-width:0.8;"/>
     </g>
     <g id="line2d_8">
      <g>
       <use style="stroke:#000000;stroke-width:0.8;" x="419.359619" xlink:href="#mef0d1afa8a" y="293.76"/>
      </g>
     </g>
     <g id="text_4">
      <!-- 8 -->
      <g transform="translate(412.997119 315.956875)scale(0.2 -0.2)">
       <defs>
        <path d="M 2034 2216 
Q 1584 2216 1326 1975 
Q 1069 1734 1069 1313 
Q 1069 891 1326 650 
Q 1584 409 2034 409 
Q 2484 409 2743 651 
Q 3003 894 3003 1313 
Q 3003 1734 2745 1975 
Q 2488 2216 2034 2216 
z
M 1403 2484 
Q 997 2584 770 2862 
Q 544 3141 544 3541 
Q 544 4100 942 4425 
Q 1341 4750 2034 4750 
Q 2731 4750 3128 4425 
Q 3525 4100 3525 3541 
Q 3525 3141 3298 2862 
Q 3072 2584 2669 2484 
Q 3125 2378 3379 2068 
Q 3634 1759 3634 1313 
Q 3634 634 3220 271 
Q 2806 -91 2034 -91 
Q 1263 -91 848 271 
Q 434 634 434 1313 
Q 434 1759 690 2068 
Q 947 2378 1403 2484 
z
M 1172 3481 
Q 1172 3119 1398 2916 
Q 1625 2713 2034 2713 
Q 2441 2713 2670 2916 
Q 2900 3119 2900 3481 
Q 2900 3844 2670 4047 
Q 2441 4250 2034 4250 
Q 1625 4250 1398 4047 
Q 1172 3844 1172 3481 
z
" id="DejaVuSans-38" transform="scale(0.015625)"/>
       </defs>
       <use xlink:href="#DejaVuSans-38"/>
      </g>
     </g>
    </g>
    <g id="text_5">
     <!-- log10 of Df -->
     <g transform="translate(175.214063 339.313125)scale(0.2 -0.2)">
      <defs>
       <path d="M 603 4863 
L 1178 4863 
L 1178 0 
L 603 0 
L 603 4863 
z
" id="DejaVuSans-6c" transform="scale(0.015625)"/>
       <path d="M 1959 3097 
Q 1497 3097 1228 2736 
Q 959 2375 959 1747 
Q 959 1119 1226 758 
Q 1494 397 1959 397 
Q 2419 397 2687 759 
Q 2956 1122 2956 1747 
Q 2956 2369 2687 2733 
Q 2419 3097 1959 3097 
z
M 1959 3584 
Q 2709 3584 3137 3096 
Q 3566 2609 3566 1747 
Q 3566 888 3137 398 
Q 2709 -91 1959 -91 
Q 1206 -91 779 398 
Q 353 888 353 1747 
Q 353 2609 779 3096 
Q 1206 3584 1959 3584 
z
" id="DejaVuSans-6f" transform="scale(0.015625)"/>
       <path d="M 2906 1791 
Q 2906 2416 2648 2759 
Q 2391 3103 1925 3103 
Q 1463 3103 1205 2759 
Q 947 2416 947 1791 
Q 947 1169 1205 825 
Q 1463 481 1925 481 
Q 2391 481 2648 825 
Q 2906 1169 2906 1791 
z
M 3481 434 
Q 3481 -459 3084 -895 
Q 2688 -1331 1869 -1331 
Q 1566 -1331 1297 -1286 
Q 1028 -1241 775 -1147 
L 775 -588 
Q 1028 -725 1275 -790 
Q 1522 -856 1778 -856 
Q 2344 -856 2625 -561 
Q 2906 -266 2906 331 
L 2906 616 
Q 2728 306 2450 153 
Q 2172 0 1784 0 
Q 1141 0 747 490 
Q 353 981 353 1791 
Q 353 2603 747 3093 
Q 1141 3584 1784 3584 
Q 2172 3584 2450 3431 
Q 2728 3278 2906 2969 
L 2906 3500 
L 3481 3500 
L 3481 434 
z
" id="DejaVuSans-67" transform="scale(0.015625)"/>
       <path d="M 794 531 
L 1825 531 
L 1825 4091 
L 703 3866 
L 703 4441 
L 1819 4666 
L 2450 4666 
L 2450 531 
L 3481 531 
L 3481 0 
L 794 0 
L 794 531 
z
" id="DejaVuSans-31" transform="scale(0.015625)"/>
       <path id="DejaVuSans-20" transform="scale(0.015625)"/>
       <path d="M 2375 4863 
L 2375 4384 
L 1825 4384 
Q 1516 4384 1395 4259 
Q 1275 4134 1275 3809 
L 1275 3500 
L 2222 3500 
L 2222 3053 
L 1275 3053 
L 1275 0 
L 697 0 
L 697 3053 
L 147 3053 
L 147 3500 
L 697 3500 
L 697 3744 
Q 697 4328 969 4595 
Q 1241 4863 1831 4863 
L 2375 4863 
z
" id="DejaVuSans-66" transform="scale(0.015625)"/>
       <path d="M 1259 4147 
L 1259 519 
L 2022 519 
Q 2988 519 3436 956 
Q 3884 1394 3884 2338 
Q 3884 3275 3436 3711 
Q 2988 4147 2022 4147 
L 1259 4147 
z
M 628 4666 
L 1925 4666 
Q 3281 4666 3915 4102 
Q 4550 3538 4550 2338 
Q 4550 1131 3912 565 
Q 3275 0 1925 0 
L 628 0 
L 628 4666 
z
" id="DejaVuSans-44" transform="scale(0.015625)"/>
      </defs>
      <use xlink:href="#DejaVuSans-6c"/>
      <use x="27.783203" xlink:href="#DejaVuSans-6f"/>
      <use x="88.964844" xlink:href="#DejaVuSans-67"/>
      <use x="152.441406" xlink:href="#DejaVuSans-31"/>
      <use x="216.064453" xlink:href="#DejaVuSans-30"/>
      <use x="279.6875" xlink:href="#DejaVuSans-20"/>
      <use x="311.474609" xlink:href="#DejaVuSans-6f"/>
      <use x="372.65625" xlink:href="#DejaVuSans-66"/>
      <use x="407.861328" xlink:href="#DejaVuSans-20"/>
      <use x="439.648438" xlink:href="#DejaVuSans-44"/>
      <use x="516.650391" xlink:href="#DejaVuSans-66"/>
     </g>
    </g>
   </g>
   <g id="matplotlib.axis_2">
    <g id="ytick_1">
     <g id="line2d_9">
      <path clip-path="url(#p7b9cc96f2c)" d="M 0 293.76 
L 460.8 293.76 
" style="fill:none;stroke:#b0b0b0;stroke-linecap:square;stroke-width:0.8;"/>
     </g>
     <g id="line2d_10">
      <defs>
       <path d="M 0 0 
L -3.5 0 
" id="mdb75f14c76" style="stroke:#000000;stroke-width:0.8;"/>
      </defs>
      <g>
       <use style="stroke:#000000;stroke-width:0.8;" x="0" xlink:href="#mdb75f14c76" y="293.76"/>
      </g>
     </g>
    </g>
    <g id="ytick_2">
     <g id="line2d_11">
      <path clip-path="url(#p7b9cc96f2c)" d="M 0 236.274059 
L 460.8 236.274059 
" style="fill:none;stroke:#b0b0b0;stroke-linecap:square;stroke-width:0.8;"/>
     </g>
     <g id="line2d_12">
      <g>
       <use style="stroke:#000000;stroke-width:0.8;" x="0" xlink:href="#mdb75f14c76" y="236.274059"/>
      </g>
     </g>
    </g>
    <g id="ytick_3">
     <g id="line2d_13">
      <path clip-path="url(#p7b9cc96f2c)" d="M 0 178.788119 
L 460.8 178.788119 
" style="fill:none;stroke:#b0b0b0;stroke-linecap:square;stroke-width:0.8;"/>
     </g>
     <g id="line2d_14">
      <g>
       <use style="stroke:#000000;stroke-width:0.8;" x="0" xlink:href="#mdb75f14c76" y="178.788119"/>
      </g>
     </g>
    </g>
    <g id="ytick_4">
     <g id="line2d_15">
      <path clip-path="url(#p7b9cc96f2c)" d="M 0 121.302178 
L 460.8 121.302178 
" style="fill:none;stroke:#b0b0b0;stroke-linecap:square;stroke-width:0.8;"/>
     </g>
     <g id="line2d_16">
      <g>
       <use style="stroke:#000000;stroke-width:0.8;" x="0" xlink:href="#mdb75f14c76" y="121.302178"/>
      </g>
     </g>
    </g>
    <g id="ytick_5">
     <g id="line2d_17">
      <path clip-path="url(#p7b9cc96f2c)" d="M 0 63.816238 
L 460.8 63.816238 
" style="fill:none;stroke:#b0b0b0;stroke-linecap:square;stroke-width:0.8;"/>
     </g>
     <g id="line2d_18">
      <g>
       <use style="stroke:#000000;stroke-width:0.8;" x="0" xlink:href="#mdb75f14c76" y="63.816238"/>
      </g>
     </g>
    </g>
    <g id="ytick_6">
     <g id="line2d_19">
      <path clip-path="url(#p7b9cc96f2c)" d="M 0 6.330297 
L 460.8 6.330297 
" style="fill:none;stroke:#b0b0b0;stroke-linecap:square;stroke-width:0.8;"/>
     </g>
     <g id="line2d_20">
      <g>
       <use style="stroke:#000000;stroke-width:0.8;" x="0" xlink:href="#mdb75f14c76" y="6.330297"/>
      </g>
     </g>
    </g>
   </g>
   <g id="line2d_21">
    <path clip-path="url(#p7b9cc96f2c)" d="M -1 266.933228 
L -0.113294 266.933228 
L -0.113294 217.112079 
L 174.58517 217.112079 
L 174.58517 213.279683 
L 188.969095 213.279683 
L 188.969095 209.447287 
L 193.224978 209.447287 
L 193.224978 201.782495 
L 200.126536 201.782495 
L 200.126536 194.117703 
L 201.117098 194.117703 
L 201.117098 186.452911 
L 201.736495 186.452911 
L 201.736495 174.955723 
L 202.1453 174.955723 
L 202.1453 171.123327 
L 202.297273 171.123327 
L 202.297273 167.290931 
L 203.662725 167.290931 
L 203.662725 163.458535 
L 203.919361 163.458535 
L 203.919361 159.626139 
L 204.782879 159.626139 
L 204.782879 155.793743 
L 205.082984 155.793743 
L 205.082984 148.12895 
L 205.428861 148.12895 
L 205.428861 132.799366 
L 207.48914 132.799366 
L 207.48914 125.134574 
L 208.371471 125.134574 
L 208.371471 121.302178 
L 208.524707 121.302178 
L 208.524707 117.469782 
L 210.35052 117.469782 
L 210.35052 113.637386 
L 212.12056 113.637386 
L 212.12056 90.64301 
L 213.305649 90.64301 
L 213.30698 82.978218 
L 217.256167 82.978218 
L 217.256167 71.48103 
L 221.153149 71.48103 
L 221.153149 67.648634 
L 222.758764 67.648634 
L 222.758764 63.816238 
L 224.978977 63.816238 
L 224.978977 59.983842 
L 228.098942 59.983842 
L 228.098942 56.151446 
L 228.30464 56.151446 
L 228.313676 48.486653 
L 228.540527 48.486653 
L 228.540527 44.654257 
L 228.73612 44.654257 
L 228.830526 29.324673 
L 228.897651 29.324673 
L 228.897651 25.492277 
L 229.103252 25.492277 
L 229.115034 17.827485 
L 230.477787 17.827485 
L 230.477787 13.995089 
L 231.310412 13.995089 
L 231.310412 10.162693 
L 232.212611 10.162693 
L 232.212611 6.330297 
L 232.212611 6.330297 
L 460.8 6.330297 
L 460.8 6.330297 
" style="fill:none;stroke:#ff0000;stroke-linecap:square;stroke-width:3;"/>
   </g>
   <g id="line2d_22">
    <path clip-path="url(#p7b9cc96f2c)" d="M 222.135574 293.76 
L 222.135574 289.927604 
L 223.417762 289.927604 
L 223.417762 286.095208 
L 226.534946 286.095208 
L 226.534946 282.262812 
L 230.075586 282.262812 
L 230.075586 278.430416 
L 231.339295 278.430416 
L 231.339295 274.59802 
L 232.122629 274.59802 
L 232.22218 266.933228 
L 232.318526 266.933228 
L 232.318526 263.100832 
L 232.639634 263.100832 
L 232.639634 259.268436 
L 233.550885 259.268436 
L 233.550885 255.43604 
L 237.89151 255.43604 
L 237.89151 251.603644 
L 238.172749 251.603644 
L 238.172749 247.771248 
L 238.693996 247.771248 
L 238.796028 240.106455 
L 240.251184 240.106455 
L 240.251184 236.274059 
L 240.528849 236.274059 
L 240.528849 232.441663 
L 241.187236 232.441663 
L 241.187236 228.609267 
L 243.237288 228.609267 
L 243.237288 224.776871 
L 243.857985 224.776871 
L 243.857985 220.944475 
L 244.548628 220.944475 
L 244.548628 217.112079 
L 245.017289 217.112079 
L 245.017289 213.279683 
L 247.040229 213.279683 
L 247.040229 209.447287 
L 249.11903 209.447287 
L 249.11903 205.614891 
L 249.475521 205.614891 
L 249.475521 201.782495 
L 250.237266 201.782495 
L 250.237266 197.950099 
L 252.002462 197.950099 
L 252.002462 194.117703 
L 252.11383 194.117703 
L 252.11383 190.285307 
L 252.421162 190.285307 
L 252.516586 182.620515 
L 252.59578 182.620515 
L 252.59578 178.788119 
L 253.542506 178.788119 
L 253.542506 174.955723 
L 254.178529 174.955723 
L 254.178529 171.123327 
L 254.497892 171.123327 
L 254.497892 167.290931 
L 255.281064 167.290931 
L 255.281064 163.458535 
L 255.594449 163.458535 
L 255.594449 159.626139 
L 255.941422 159.626139 
L 256.044457 144.296554 
L 256.164678 144.296554 
L 256.209666 136.631762 
L 256.294625 136.631762 
L 256.309107 128.96697 
L 256.536467 128.96697 
L 256.536467 125.134574 
L 256.982807 125.134574 
L 257.009616 117.469782 
L 257.345772 117.469782 
L 257.429694 109.80499 
L 257.474629 109.80499 
L 257.474629 105.972594 
L 257.830279 105.972594 
L 257.830279 102.140198 
L 258.053008 102.140198 
L 258.08272 94.475406 
L 258.363708 94.475406 
L 258.473053 82.978218 
L 259.234785 82.978218 
L 259.234785 79.145822 
L 259.459673 79.145822 
L 259.459673 75.313426 
L 259.62837 75.313426 
L 259.62837 71.48103 
L 260.112234 71.48103 
L 260.112234 67.648634 
L 261.027838 67.648634 
L 261.027838 63.816238 
L 261.343199 63.816238 
L 261.343199 59.983842 
L 261.501472 59.983842 
L 261.501472 56.151446 
L 261.897839 56.151446 
L 261.897839 52.31905 
L 262.642568 52.31905 
L 262.642568 48.486653 
L 268.161365 48.486653 
L 268.161365 44.654257 
L 298.107108 44.654257 
L 298.107108 40.821861 
L 300.534032 40.821861 
L 300.534032 36.989465 
L 302.159476 36.989465 
L 302.159476 33.157069 
L 303.735639 33.157069 
L 303.735639 29.324673 
L 305.853293 29.324673 
L 305.853293 25.492277 
L 310.658642 25.492277 
L 310.658642 21.659881 
L 313.456191 21.659881 
L 313.456191 17.827485 
L 320.532008 17.827485 
L 320.532008 13.995089 
L 323.174925 13.995089 
L 323.174925 10.162693 
L 330.608443 10.162693 
L 330.608443 6.330297 
L 330.608443 6.330297 
L 460.8 6.330297 
L 460.8 6.330297 
" style="fill:none;stroke:#00bfbf;stroke-linecap:square;stroke-width:1.5;"/>
   </g>
   <g id="line2d_23">
    <path clip-path="url(#p7b9cc96f2c)" d="M 220.153852 293.76 
L 220.153852 289.927604 
L 222.135574 289.927604 
L 222.135574 286.095208 
L 223.417762 286.095208 
L 223.417762 282.262812 
L 226.534946 282.262812 
L 226.534946 278.430416 
L 226.990466 278.430416 
L 226.990466 274.59802 
L 227.598967 274.59802 
L 227.598967 270.765624 
L 227.90598 270.765624 
L 227.90598 266.933228 
L 228.371326 266.933228 
L 228.371326 263.100832 
L 228.485195 263.100832 
L 228.485195 259.268436 
L 230.054586 259.268436 
L 230.075586 251.603644 
L 232.122629 251.603644 
L 232.22218 243.938851 
L 232.318526 243.938851 
L 232.318526 240.106455 
L 232.639634 240.106455 
L 232.639634 236.274059 
L 233.550885 236.274059 
L 233.550885 232.441663 
L 235.196259 232.441663 
L 235.196259 228.609267 
L 235.619708 228.609267 
L 235.619708 224.776871 
L 236.668796 224.776871 
L 236.668796 220.944475 
L 236.94127 220.944475 
L 236.94127 217.112079 
L 237.191753 217.112079 
L 237.191753 213.279683 
L 237.89151 213.279683 
L 237.89151 209.447287 
L 238.533623 209.447287 
L 238.533623 205.614891 
L 238.796028 205.614891 
L 238.796028 201.782495 
L 240.251184 201.782495 
L 240.251184 197.950099 
L 244.394218 197.950099 
L 244.49889 186.452911 
L 246.522379 186.452911 
L 246.522379 182.620515 
L 246.811883 182.620515 
L 246.811883 178.788119 
L 247.040229 178.788119 
L 247.040229 174.955723 
L 248.996568 174.955723 
L 249.045171 167.290931 
L 249.513449 167.290931 
L 249.513449 163.458535 
L 250.237266 163.458535 
L 250.241546 155.793743 
L 251.571981 155.793743 
L 251.571981 151.961347 
L 251.690461 151.961347 
L 251.690461 148.12895 
L 251.95772 148.12895 
L 252.002462 140.464158 
L 252.25493 140.464158 
L 252.25493 136.631762 
L 252.419459 136.631762 
L 252.516586 128.96697 
L 253.542506 128.96697 
L 253.632516 121.302178 
L 254.178529 121.302178 
L 254.178529 117.469782 
L 254.497892 117.469782 
L 254.497892 113.637386 
L 255.005956 113.637386 
L 255.10639 105.972594 
L 255.952538 105.972594 
L 256.035005 98.307802 
L 256.14459 98.307802 
L 256.172478 90.64301 
L 256.536467 90.64301 
L 256.536467 86.810614 
L 256.926313 86.810614 
L 257.009616 75.313426 
L 257.159304 75.313426 
L 257.159304 71.48103 
L 257.30355 71.48103 
L 257.376962 63.816238 
L 257.429694 63.816238 
L 257.429694 59.983842 
L 258.08272 59.983842 
L 258.08272 56.151446 
L 258.440048 56.151446 
L 258.440048 52.31905 
L 258.989896 52.31905 
L 258.989896 48.486653 
L 261.501472 48.486653 
L 261.501472 44.654257 
L 267.199903 44.654257 
L 267.199903 40.821861 
L 267.463352 40.821861 
L 267.463352 36.989465 
L 268.161365 36.989465 
L 268.161365 33.157069 
L 282.06832 33.157069 
L 282.06832 29.324673 
L 294.210991 29.324673 
L 294.210991 25.492277 
L 298.107108 25.492277 
L 298.107108 21.659881 
L 300.534032 21.659881 
L 300.534032 17.827485 
L 302.159476 17.827485 
L 302.159476 13.995089 
L 306.897339 13.995089 
L 306.897339 10.162693 
L 310.658642 10.162693 
L 310.658642 6.330297 
L 310.658642 6.330297 
L 460.8 6.330297 
L 460.8 6.330297 
" style="fill:none;stroke:#bf00bf;stroke-linecap:square;stroke-width:1.5;"/>
   </g>
   <g id="line2d_24">
    <path clip-path="url(#p7b9cc96f2c)" d="M 220.153852 293.76 
L 220.153852 289.927604 
L 222.135574 289.927604 
L 222.135574 286.095208 
L 223.272838 286.095208 
L 223.272838 282.262812 
L 223.417762 282.262812 
L 223.417762 278.430416 
L 223.724167 278.430416 
L 223.724167 274.59802 
L 224.880429 274.59802 
L 224.880429 270.765624 
L 225.984719 270.765624 
L 225.984719 266.933228 
L 226.534946 266.933228 
L 226.534946 263.100832 
L 226.990466 263.100832 
L 227.03283 255.43604 
L 227.49193 255.43604 
L 227.598967 247.771248 
L 227.90598 247.771248 
L 227.90598 243.938851 
L 228.371326 243.938851 
L 228.371326 240.106455 
L 228.485195 240.106455 
L 228.500565 232.441663 
L 229.241676 232.441663 
L 229.241676 228.609267 
L 230.054586 228.609267 
L 230.075586 220.944475 
L 230.750472 220.944475 
L 230.750472 217.112079 
L 231.355223 217.112079 
L 231.355223 213.279683 
L 232.122629 213.279683 
L 232.213538 205.614891 
L 232.318526 205.614891 
L 232.318526 201.782495 
L 232.639634 201.782495 
L 232.639634 197.950099 
L 233.56006 197.950099 
L 233.56006 194.117703 
L 234.798656 194.117703 
L 234.798656 190.285307 
L 235.196259 190.285307 
L 235.196259 186.452911 
L 235.350889 186.452911 
L 235.350889 182.620515 
L 235.619708 182.620515 
L 235.619708 178.788119 
L 236.607237 178.788119 
L 236.607237 174.955723 
L 236.94127 174.955723 
L 236.94127 171.123327 
L 238.30553 171.123327 
L 238.30553 167.290931 
L 238.533623 167.290931 
L 238.533623 163.458535 
L 240.251184 163.458535 
L 240.251184 159.626139 
L 243.378276 159.626139 
L 243.378276 155.793743 
L 244.261751 155.793743 
L 244.310418 148.12895 
L 244.391803 148.12895 
L 244.422087 136.631762 
L 245.15109 136.631762 
L 245.15109 132.799366 
L 246.522379 132.799366 
L 246.522379 128.96697 
L 246.811883 128.96697 
L 246.811883 125.134574 
L 248.996568 125.134574 
L 249.045171 117.469782 
L 249.108697 117.469782 
L 249.108697 113.637386 
L 249.434888 113.637386 
L 249.513449 105.972594 
L 250.237266 105.972594 
L 250.344959 98.307802 
L 250.839585 98.307802 
L 250.839585 94.475406 
L 251.238579 94.475406 
L 251.238579 90.64301 
L 251.690461 90.64301 
L 251.690461 86.810614 
L 251.911863 86.810614 
L 251.950114 79.145822 
L 252.294892 79.145822 
L 252.294892 75.313426 
L 252.419459 75.313426 
L 252.419459 71.48103 
L 252.565802 71.48103 
L 252.565802 67.648634 
L 253.050691 67.648634 
L 253.050691 63.816238 
L 253.18155 63.816238 
L 253.18155 59.983842 
L 254.032759 59.983842 
L 254.051964 52.31905 
L 255.429786 52.31905 
L 255.429786 48.486653 
L 255.643215 48.486653 
L 255.643215 44.654257 
L 255.952538 44.654257 
L 255.952538 40.821861 
L 256.14459 40.821861 
L 256.14459 36.989465 
L 256.982807 36.989465 
L 256.982807 33.157069 
L 257.376962 33.157069 
L 257.376962 29.324673 
L 257.679975 29.324673 
L 257.679975 25.492277 
L 267.199903 25.492277 
L 267.199903 21.659881 
L 279.704444 21.659881 
L 279.704444 17.827485 
L 288.214446 17.827485 
L 288.214446 13.995089 
L 294.191985 13.995089 
L 294.210991 6.330297 
L 294.210991 6.330297 
L 460.8 6.330297 
L 460.8 6.330297 
" style="fill:none;stroke:#000000;stroke-linecap:square;stroke-width:1.5;"/>
   </g>
   <g id="line2d_25">
    <path clip-path="url(#p7b9cc96f2c)" d="M 219.683849 293.76 
L 219.683849 289.927604 
L 220.153852 289.927604 
L 220.153852 286.095208 
L 220.488411 286.095208 
L 220.488411 282.262812 
L 221.010509 282.262812 
L 221.010509 278.430416 
L 222.135574 278.430416 
L 222.135574 274.59802 
L 223.272838 274.59802 
L 223.272838 270.765624 
L 223.417762 270.765624 
L 223.417762 266.933228 
L 223.724167 266.933228 
L 223.724167 263.100832 
L 224.482746 263.100832 
L 224.482746 259.268436 
L 224.726054 259.268436 
L 224.726054 255.43604 
L 225.000215 255.43604 
L 225.041855 247.771248 
L 225.663561 247.771248 
L 225.663561 243.938851 
L 225.984719 243.938851 
L 225.984719 240.106455 
L 226.422371 240.106455 
L 226.422371 236.274059 
L 226.534946 236.274059 
L 226.534946 232.441663 
L 226.68853 232.441663 
L 226.68853 228.609267 
L 226.990466 228.609267 
L 227.03283 220.944475 
L 227.294501 220.944475 
L 227.355789 213.279683 
L 227.49193 213.279683 
L 227.598967 205.614891 
L 228.285168 205.614891 
L 228.371326 197.950099 
L 228.485195 197.950099 
L 228.500565 190.285307 
L 230.054586 190.285307 
L 230.075586 182.620515 
L 230.295595 182.620515 
L 230.295595 178.788119 
L 232.213538 178.788119 
L 232.213538 174.955723 
L 232.800602 174.955723 
L 232.800602 171.123327 
L 233.053337 171.123327 
L 233.053337 167.290931 
L 233.274897 167.290931 
L 233.274897 163.458535 
L 233.56006 163.458535 
L 233.56006 159.626139 
L 234.798656 159.626139 
L 234.798656 155.793743 
L 235.196259 155.793743 
L 235.196259 151.961347 
L 236.607237 151.961347 
L 236.607237 148.12895 
L 236.94127 148.12895 
L 236.94127 144.296554 
L 237.752825 144.296554 
L 237.752825 140.464158 
L 239.150239 140.464158 
L 239.150239 136.631762 
L 240.089323 136.631762 
L 240.089323 132.799366 
L 240.220717 132.799366 
L 240.251184 125.134574 
L 242.495447 125.134574 
L 242.495447 121.302178 
L 243.047725 121.302178 
L 243.047725 117.469782 
L 243.305788 117.469782 
L 243.305788 113.637386 
L 244.261751 113.637386 
L 244.310418 105.972594 
L 244.391803 105.972594 
L 244.394218 98.307802 
L 245.001137 98.307802 
L 245.001137 94.475406 
L 246.817124 94.475406 
L 246.817124 90.64301 
L 248.810298 90.64301 
L 248.810298 86.810614 
L 248.996568 86.810614 
L 248.996568 82.978218 
L 249.108697 82.978218 
L 249.108697 79.145822 
L 249.440086 79.145822 
L 249.513449 71.48103 
L 249.837592 71.48103 
L 249.837592 67.648634 
L 250.237266 67.648634 
L 250.237266 63.816238 
L 251.184909 63.816238 
L 251.184909 59.983842 
L 251.573961 59.983842 
L 251.573961 56.151446 
L 251.690461 56.151446 
L 251.772955 48.486653 
L 251.950114 48.486653 
L 251.950114 44.654257 
L 252.294892 44.654257 
L 252.294892 40.821861 
L 252.419459 40.821861 
L 252.419459 36.989465 
L 252.543642 36.989465 
L 252.565802 29.324673 
L 253.18155 29.324673 
L 253.18155 25.492277 
L 253.391994 25.492277 
L 253.391994 21.659881 
L 255.310929 21.659881 
L 255.326204 13.995089 
L 269.299864 13.995089 
L 269.299864 10.162693 
L 270.113333 10.162693 
L 270.113333 6.330297 
L 270.113333 6.330297 
L 460.8 6.330297 
L 460.8 6.330297 
" style="fill:none;stroke:#00bfbf;stroke-linecap:square;stroke-width:1.5;"/>
   </g>
   <g id="line2d_26">
    <path clip-path="url(#p7b9cc96f2c)" d="M 185.140875 293.76 
L 185.197696 286.095208 
L 190.564446 286.095208 
L 190.564446 282.262812 
L 200.623089 282.262812 
L 200.623089 278.430416 
L 200.906976 278.430416 
L 200.906976 274.59802 
L 201.717257 274.59802 
L 201.792835 266.933228 
L 203.140871 266.933228 
L 203.140871 263.100832 
L 203.919361 263.100832 
L 203.919361 259.268436 
L 210.056958 259.268436 
L 210.056958 255.43604 
L 213.543726 255.43604 
L 213.543726 251.603644 
L 214.250612 251.603644 
L 214.250612 247.771248 
L 215.094243 247.771248 
L 215.094243 243.938851 
L 216.004762 243.938851 
L 216.004762 240.106455 
L 216.796748 240.106455 
L 216.796748 236.274059 
L 217.205453 236.274059 
L 217.239549 228.609267 
L 217.346563 228.609267 
L 217.401656 220.944475 
L 218.019465 220.944475 
L 218.019465 217.112079 
L 218.165892 217.112079 
L 218.234209 209.447287 
L 218.315863 209.447287 
L 218.315863 205.614891 
L 218.471435 205.614891 
L 218.545273 197.950099 
L 218.7454 197.950099 
L 218.7454 194.117703 
L 218.877308 194.117703 
L 218.955763 186.452911 
L 219.268162 186.452911 
L 219.356142 171.123327 
L 219.585793 171.123327 
L 219.683849 159.626139 
L 219.884905 159.626139 
L 219.934489 151.961347 
L 220.106307 151.961347 
L 220.106307 148.12895 
L 220.309277 148.12895 
L 220.309277 144.296554 
L 220.579942 144.296554 
L 220.579942 140.464158 
L 220.749049 140.464158 
L 220.749049 136.631762 
L 221.010509 136.631762 
L 221.010509 132.799366 
L 221.153149 132.799366 
L 221.153149 128.96697 
L 221.383211 128.96697 
L 221.486864 121.302178 
L 221.895981 121.302178 
L 221.895981 117.469782 
L 222.02676 117.469782 
L 222.02676 113.637386 
L 222.207916 113.637386 
L 222.207916 109.80499 
L 222.339945 109.80499 
L 222.339945 105.972594 
L 222.753218 105.972594 
L 222.753218 102.140198 
L 223.616492 102.140198 
L 223.616492 98.307802 
L 224.930645 98.307802 
L 224.930645 94.475406 
L 227.33405 94.475406 
L 227.33405 90.64301 
L 228.837328 90.64301 
L 228.837328 86.810614 
L 229.771248 86.810614 
L 229.771248 82.978218 
L 230.649461 82.978218 
L 230.649461 79.145822 
L 231.007002 79.145822 
L 231.007002 75.313426 
L 232.036736 75.313426 
L 232.036736 71.48103 
L 232.544904 71.48103 
L 232.544904 67.648634 
L 234.509925 67.648634 
L 234.509925 63.816238 
L 240.870739 63.816238 
L 240.870739 59.983842 
L 241.619898 59.983842 
L 241.619898 56.151446 
L 241.922659 56.151446 
L 241.922659 52.31905 
L 242.292126 52.31905 
L 242.292126 48.486653 
L 244.51596 48.486653 
L 244.51596 44.654257 
L 245.390271 44.654257 
L 245.412382 36.989465 
L 245.719144 36.989465 
L 245.719144 33.157069 
L 246.764412 33.157069 
L 246.764412 29.324673 
L 247.210496 29.324673 
L 247.210496 25.492277 
L 247.4851 25.492277 
L 247.54078 17.827485 
L 247.640181 17.827485 
L 247.640181 13.995089 
L 248.432894 13.995089 
L 248.432894 10.162693 
L 248.984007 10.162693 
L 248.984007 6.330297 
L 248.984007 6.330297 
L 460.8 6.330297 
L 460.8 6.330297 
" style="fill:none;stroke:#bf00bf;stroke-linecap:square;stroke-width:1.5;"/>
   </g>
   <g id="line2d_27">
    <path clip-path="url(#p7b9cc96f2c)" d="M -0.113294 293.76 
L -0.113294 247.771248 
L 184.34414 247.771248 
L 184.34414 243.938851 
L 193.54985 243.938851 
L 193.54985 240.106455 
L 196.207172 240.106455 
L 196.207172 236.274059 
L 201.650183 236.274059 
L 201.713928 228.609267 
L 203.919361 228.609267 
L 203.919361 224.776871 
L 205.124677 224.776871 
L 205.124677 220.944475 
L 205.428861 220.944475 
L 205.428861 205.614891 
L 206.279611 205.614891 
L 206.279611 201.782495 
L 206.469551 201.782495 
L 206.469551 197.950099 
L 207.027786 197.950099 
L 207.027786 194.117703 
L 207.48917 194.117703 
L 207.48917 190.285307 
L 208.190459 190.285307 
L 208.190459 186.452911 
L 209.360289 186.452911 
L 209.360289 182.620515 
L 209.852703 182.620515 
L 209.852703 178.788119 
L 210.216463 178.788119 
L 210.216463 174.955723 
L 210.836628 174.955723 
L 210.836628 171.123327 
L 211.319872 171.123327 
L 211.319872 167.290931 
L 211.445148 167.290931 
L 211.458515 159.626139 
L 211.679788 159.626139 
L 211.770545 151.961347 
L 212.12056 151.961347 
L 212.12056 128.96697 
L 212.25274 128.96697 
L 212.290543 121.302178 
L 213.274983 121.302178 
L 213.314335 109.80499 
L 213.607367 109.80499 
L 213.607367 105.972594 
L 214.250612 105.972594 
L 214.250612 102.140198 
L 214.417022 102.140198 
L 214.417022 98.307802 
L 216.235201 98.307802 
L 216.235201 94.475406 
L 216.717178 94.475406 
L 216.717178 90.64301 
L 217.256167 90.64301 
L 217.256171 79.145822 
L 220.495481 79.145822 
L 220.495481 75.313426 
L 221.153149 75.313426 
L 221.153149 71.48103 
L 222.758764 71.48103 
L 222.758764 67.648634 
L 224.978977 67.648634 
L 224.978977 63.816238 
L 230.817427 63.816238 
L 230.817427 59.983842 
L 232.212611 59.983842 
L 232.212611 56.151446 
L 233.429563 56.151446 
L 233.429563 52.31905 
L 233.586478 52.31905 
L 233.586478 48.486653 
L 233.992621 48.486653 
L 233.992621 44.654257 
L 234.724298 44.654257 
L 234.724298 40.821861 
L 235.045279 40.821861 
L 235.137972 33.157069 
L 235.244579 33.157069 
L 235.244579 29.324673 
L 235.510228 29.324673 
L 235.510228 25.492277 
L 236.109155 25.492277 
L 236.150586 17.827485 
L 236.802663 17.827485 
L 236.811179 10.162693 
L 239.817893 10.162693 
L 239.817893 6.330297 
L 239.817893 6.330297 
L 460.8 6.330297 
L 460.8 6.330297 
" style="fill:none;stroke:#000000;stroke-linecap:square;stroke-width:1.5;"/>
   </g>
   <g id="line2d_28">
    <path clip-path="url(#p7b9cc96f2c)" d="M -1 266.933228 
L -0.113294 266.933228 
L -0.113294 217.112079 
L 174.58517 217.112079 
L 174.58517 213.279683 
L 188.969095 213.279683 
L 188.969095 209.447287 
L 193.224978 209.447287 
L 193.224978 201.782495 
L 200.126536 201.782495 
L 200.126536 194.117703 
L 201.117098 194.117703 
L 201.117098 186.452911 
L 201.736495 186.452911 
L 201.736495 174.955723 
L 202.1453 174.955723 
L 202.1453 171.123327 
L 202.297273 171.123327 
L 202.297273 167.290931 
L 203.662725 167.290931 
L 203.662725 163.458535 
L 203.919361 163.458535 
L 203.919361 159.626139 
L 204.782879 159.626139 
L 204.782879 155.793743 
L 205.082984 155.793743 
L 205.082984 148.12895 
L 205.428861 148.12895 
L 205.428861 132.799366 
L 207.48914 132.799366 
L 207.48914 125.134574 
L 208.371471 125.134574 
L 208.371471 121.302178 
L 208.524707 121.302178 
L 208.524707 117.469782 
L 210.35052 117.469782 
L 210.35052 113.637386 
L 212.12056 113.637386 
L 212.12056 90.64301 
L 213.305649 90.64301 
L 213.30698 82.978218 
L 217.256167 82.978218 
L 217.256167 71.48103 
L 221.153149 71.48103 
L 221.153149 67.648634 
L 222.758764 67.648634 
L 222.758764 63.816238 
L 224.978977 63.816238 
L 224.978977 59.983842 
L 228.098942 59.983842 
L 228.098942 56.151446 
L 228.30464 56.151446 
L 228.313676 48.486653 
L 228.540527 48.486653 
L 228.540527 44.654257 
L 228.73612 44.654257 
L 228.830526 29.324673 
L 228.897651 29.324673 
L 228.897651 25.492277 
L 229.103252 25.492277 
L 229.115034 17.827485 
L 230.477787 17.827485 
L 230.477787 13.995089 
L 231.310412 13.995089 
L 231.310412 10.162693 
L 232.212611 10.162693 
L 232.212611 6.330297 
L 232.212611 6.330297 
L 460.8 6.330297 
L 460.8 6.330297 
" style="fill:none;stroke:#00bfbf;stroke-linecap:square;stroke-width:1.5;"/>
   </g>
   <g id="patch_3">
    <path d="M 0 293.76 
L 0 3.456 
" style="fill:none;stroke:#000000;stroke-linecap:square;stroke-linejoin:miter;stroke-width:0.8;"/>
   </g>
   <g id="patch_4">
    <path d="M 460.8 293.76 
L 460.8 3.456 
" style="fill:none;stroke:#000000;stroke-linecap:square;stroke-linejoin:miter;stroke-width:0.8;"/>
   </g>
   <g id="patch_5">
    <path d="M 0 293.76 
L 460.8 293.76 
" style="fill:none;stroke:#000000;stroke-linecap:square;stroke-linejoin:miter;stroke-width:0.8;"/>
   </g>
   <g id="patch_6">
    <path d="M 0 3.456 
L 460.8 3.456 
" style="fill:none;stroke:#000000;stroke-linecap:square;stroke-linejoin:miter;stroke-width:0.8;"/>
   </g>
   <g id="text_6">
    <!-- {f20-f24}, 5-D -->
    <g transform="translate(305.884 287.95392)scale(0.2 -0.2)">
     <defs>
      <path d="M 3272 -594 
L 3272 -1044 
L 3078 -1044 
Q 2300 -1044 2036 -812 
Q 1772 -581 1772 109 
L 1772 856 
Q 1772 1328 1603 1509 
Q 1434 1691 991 1691 
L 800 1691 
L 800 2138 
L 991 2138 
Q 1438 2138 1605 2317 
Q 1772 2497 1772 2963 
L 1772 3713 
Q 1772 4403 2036 4633 
Q 2300 4863 3078 4863 
L 3272 4863 
L 3272 4416 
L 3059 4416 
Q 2619 4416 2484 4278 
Q 2350 4141 2350 3700 
L 2350 2925 
Q 2350 2434 2208 2212 
Q 2066 1991 1722 1913 
Q 2069 1828 2209 1606 
Q 2350 1384 2350 897 
L 2350 122 
Q 2350 -319 2484 -456 
Q 2619 -594 3059 -594 
L 3272 -594 
z
" id="DejaVuSans-7b" transform="scale(0.015625)"/>
      <path d="M 1228 531 
L 3431 531 
L 3431 0 
L 469 0 
L 469 531 
Q 828 903 1448 1529 
Q 2069 2156 2228 2338 
Q 2531 2678 2651 2914 
Q 2772 3150 2772 3378 
Q 2772 3750 2511 3984 
Q 2250 4219 1831 4219 
Q 1534 4219 1204 4116 
Q 875 4013 500 3803 
L 500 4441 
Q 881 4594 1212 4672 
Q 1544 4750 1819 4750 
Q 2544 4750 2975 4387 
Q 3406 4025 3406 3419 
Q 3406 3131 3298 2873 
Q 3191 2616 2906 2266 
Q 2828 2175 2409 1742 
Q 1991 1309 1228 531 
z
" id="DejaVuSans-32" transform="scale(0.015625)"/>
      <path d="M 800 -594 
L 1019 -594 
Q 1456 -594 1589 -459 
Q 1722 -325 1722 122 
L 1722 897 
Q 1722 1384 1862 1606 
Q 2003 1828 2350 1913 
Q 2003 1991 1862 2212 
Q 1722 2434 1722 2925 
L 1722 3700 
Q 1722 4144 1589 4280 
Q 1456 4416 1019 4416 
L 800 4416 
L 800 4863 
L 997 4863 
Q 1775 4863 2036 4633 
Q 2297 4403 2297 3713 
L 2297 2963 
Q 2297 2497 2465 2317 
Q 2634 2138 3078 2138 
L 3272 2138 
L 3272 1691 
L 3078 1691 
Q 2634 1691 2465 1509 
Q 2297 1328 2297 856 
L 2297 109 
Q 2297 -581 2036 -812 
Q 1775 -1044 997 -1044 
L 800 -1044 
L 800 -594 
z
" id="DejaVuSans-7d" transform="scale(0.015625)"/>
      <path d="M 750 794 
L 1409 794 
L 1409 256 
L 897 -744 
L 494 -744 
L 750 256 
L 750 794 
z
" id="DejaVuSans-2c" transform="scale(0.015625)"/>
      <path d="M 691 4666 
L 3169 4666 
L 3169 4134 
L 1269 4134 
L 1269 2991 
Q 1406 3038 1543 3061 
Q 1681 3084 1819 3084 
Q 2600 3084 3056 2656 
Q 3513 2228 3513 1497 
Q 3513 744 3044 326 
Q 2575 -91 1722 -91 
Q 1428 -91 1123 -41 
Q 819 9 494 109 
L 494 744 
Q 775 591 1075 516 
Q 1375 441 1709 441 
Q 2250 441 2565 725 
Q 2881 1009 2881 1497 
Q 2881 1984 2565 2268 
Q 2250 2553 1709 2553 
Q 1456 2553 1204 2497 
Q 953 2441 691 2322 
L 691 4666 
z
" id="DejaVuSans-35" transform="scale(0.015625)"/>
     </defs>
     <use xlink:href="#DejaVuSans-7b"/>
     <use x="63.623047" xlink:href="#DejaVuSans-66"/>
     <use x="98.828125" xlink:href="#DejaVuSans-32"/>
     <use x="162.451172" xlink:href="#DejaVuSans-30"/>
     <use x="226.074219" xlink:href="#DejaVuSans-2d"/>
     <use x="262.158203" xlink:href="#DejaVuSans-66"/>
     <use x="297.363281" xlink:href="#DejaVuSans-32"/>
     <use x="360.986328" xlink:href="#DejaVuSans-34"/>
     <use x="424.609375" xlink:href="#DejaVuSans-7d"/>
     <use x="488.232422" xlink:href="#DejaVuSans-2c"/>
     <use x="520.019531" xlink:href="#DejaVuSans-20"/>
     <use x="551.806641" xlink:href="#DejaVuSans-35"/>
     <use x="615.429688" xlink:href="#DejaVuSans-2d"/>
     <use x="651.513672" xlink:href="#DejaVuSans-44"/>
    </g>
   </g>
   <g id="text_7">
    <!-- v2.4 -->
    <g style="fill:#808080;" transform="translate(219.489063 288.777272)scale(0.1 -0.1)">
     <defs>
      <path d="M 191 3500 
L 800 3500 
L 1894 563 
L 2988 3500 
L 3597 3500 
L 2284 0 
L 1503 0 
L 191 3500 
z
" id="DejaVuSans-76" transform="scale(0.015625)"/>
      <path d="M 684 794 
L 1344 794 
L 1344 0 
L 684 0 
L 684 794 
z
" id="DejaVuSans-2e" transform="scale(0.015625)"/>
     </defs>
     <use xlink:href="#DejaVuSans-76"/>
     <use x="59.179688" xlink:href="#DejaVuSans-32"/>
     <use x="122.802734" xlink:href="#DejaVuSans-2e"/>
     <use x="154.589844" xlink:href="#DejaVuSans-34"/>
    </g>
   </g>
  </g>
 </g>
 <defs>
  <clipPath id="p7b9cc96f2c">
   <rect height="290.304" width="460.8" x="0" y="3.456"/>
  </clipPath>
 </defs>
</svg>
