<?xml version="1.0" encoding="utf-8" standalone="no"?>
<!DOCTYPE svg PUBLIC "-//W3C//DTD SVG 1.1//EN"
  "http://www.w3.org/Graphics/SVG/1.1/DTD/svg11.dtd">
<svg height="345.6pt" version="1.1" viewBox="0 0 460.8 345.6" width="460.8pt" xmlns="http://www.w3.org/2000/svg" xmlns:xlink="http://www.w3.org/1999/xlink">
 <metadata>
  <rdf:RDF xmlns:cc="http://creativecommons.org/ns#" xmlns:dc="http://purl.org/dc/elements/1.1/" xmlns:rdf="http://www.w3.org/1999/02/22-rdf-syntax-ns#">
   <cc:Work>
    <dc:type rdf:resource="http://purl.org/dc/dcmitype/StillImage"/>
    <dc:date>2021-07-27T16:03:34.263776</dc:date>
    <dc:format>image/svg+xml</dc:format>
    <dc:creator>
     <cc:Agent>
      <dc:title>Matplotlib v3.4.2, https://matplotlib.org/</dc:title>
     </cc:Agent>
    </dc:creator>
   </cc:Work>
  </rdf:RDF>
 </metadata>
 <defs>
  <style type="text/css">*{stroke-linecap:butt;stroke-linejoin:round;}</style>
 </defs>
 <g id="figure_1">
  <g id="patch_1">
   <path d="M 0 345.6 
L 460.8 345.6 
L 460.8 0 
L 0 0 
z
" style="fill:#ffffff;"/>
  </g>
  <g id="axes_1">
   <g id="patch_2">
    <path d="M 0 293.76 
L 460.8 293.76 
L 460.8 3.456 
L 0 3.456 
z
" style="fill:#ffffff;"/>
   </g>
   <g id="matplotlib.axis_1">
    <g id="xtick_1">
     <g id="line2d_1">
      <path clip-path="url(#p92d3f6a8fe)" d="M 104.754935 293.76 
L 104.754935 3.456 
" style="fill:none;stroke:#b0b0b0;stroke-linecap:square;stroke-width:0.8;"/>
     </g>
     <g id="line2d_2">
      <defs>
       <path d="M 0 0 
L 0 3.5 
" id="mb0457579a8" style="stroke:#000000;stroke-width:0.8;"/>
      </defs>
      <g>
       <use style="stroke:#000000;stroke-width:0.8;" x="104.754935" xlink:href="#mb0457579a8" y="293.76"/>
      </g>
     </g>
     <g id="text_1">
      <!-- -4 -->
      <g transform="translate(94.784622 315.956875)scale(0.2 -0.2)">
       <defs>
        <path d="M 313 2009 
L 1997 2009 
L 1997 1497 
L 313 1497 
L 313 2009 
z
" id="DejaVuSans-2d" transform="scale(0.015625)"/>
        <path d="M 2419 4116 
L 825 1625 
L 2419 1625 
L 2419 4116 
z
M 2253 4666 
L 3047 4666 
L 3047 1625 
L 3713 1625 
L 3713 1100 
L 3047 1100 
L 3047 0 
L 2419 0 
L 2419 1100 
L 313 1100 
L 313 1709 
L 2253 4666 
z
" id="DejaVuSans-34" transform="scale(0.015625)"/>
       </defs>
       <use xlink:href="#DejaVuSans-2d"/>
       <use x="36.083984" xlink:href="#DejaVuSans-34"/>
      </g>
     </g>
    </g>
    <g id="xtick_2">
     <g id="line2d_3">
      <path clip-path="url(#p92d3f6a8fe)" d="M 209.623163 293.76 
L 209.623163 3.456 
" style="fill:none;stroke:#b0b0b0;stroke-linecap:square;stroke-width:0.8;"/>
     </g>
     <g id="line2d_4">
      <g>
       <use style="stroke:#000000;stroke-width:0.8;" x="209.623163" xlink:href="#mb0457579a8" y="293.76"/>
      </g>
     </g>
     <g id="text_2">
      <!-- 0 -->
      <g transform="translate(203.260663 315.956875)scale(0.2 -0.2)">
       <defs>
        <path d="M 2034 4250 
Q 1547 4250 1301 3770 
Q 1056 3291 1056 2328 
Q 1056 1369 1301 889 
Q 1547 409 2034 409 
Q 2525 409 2770 889 
Q 3016 1369 3016 2328 
Q 3016 3291 2770 3770 
Q 2525 4250 2034 4250 
z
M 2034 4750 
Q 2819 4750 3233 4129 
Q 3647 3509 3647 2328 
Q 3647 1150 3233 529 
Q 2819 -91 2034 -91 
Q 1250 -91 836 529 
Q 422 1150 422 2328 
Q 422 3509 836 4129 
Q 1250 4750 2034 4750 
z
" id="DejaVuSans-30" transform="scale(0.015625)"/>
       </defs>
       <use xlink:href="#DejaVuSans-30"/>
      </g>
     </g>
    </g>
    <g id="xtick_3">
     <g id="line2d_5">
      <path clip-path="url(#p92d3f6a8fe)" d="M 314.491391 293.76 
L 314.491391 3.456 
" style="fill:none;stroke:#b0b0b0;stroke-linecap:square;stroke-width:0.8;"/>
     </g>
     <g id="line2d_6">
      <g>
       <use style="stroke:#000000;stroke-width:0.8;" x="314.491391" xlink:href="#mb0457579a8" y="293.76"/>
      </g>
     </g>
     <g id="text_3">
      <!-- 4 -->
      <g transform="translate(308.128891 315.956875)scale(0.2 -0.2)">
       <use xlink:href="#DejaVuSans-34"/>
      </g>
     </g>
    </g>
    <g id="xtick_4">
     <g id="line2d_7">
      <path clip-path="url(#p92d3f6a8fe)" d="M 419.359619 293.76 
L 419.359619 3.456 
" style="fill:none;stroke:#b0b0b0;stroke-linecap:square;stroke-width:0.8;"/>
     </g>
     <g id="line2d_8">
      <g>
       <use style="stroke:#000000;stroke-width:0.8;" x="419.359619" xlink:href="#mb0457579a8" y="293.76"/>
      </g>
     </g>
     <g id="text_4">
      <!-- 8 -->
      <g transform="translate(412.997119 315.956875)scale(0.2 -0.2)">
       <defs>
        <path d="M 2034 2216 
Q 1584 2216 1326 1975 
Q 1069 1734 1069 1313 
Q 1069 891 1326 650 
Q 1584 409 2034 409 
Q 2484 409 2743 651 
Q 3003 894 3003 1313 
Q 3003 1734 2745 1975 
Q 2488 2216 2034 2216 
z
M 1403 2484 
Q 997 2584 770 2862 
Q 544 3141 544 3541 
Q 544 4100 942 4425 
Q 1341 4750 2034 4750 
Q 2731 4750 3128 4425 
Q 3525 4100 3525 3541 
Q 3525 3141 3298 2862 
Q 3072 2584 2669 2484 
Q 3125 2378 3379 2068 
Q 3634 1759 3634 1313 
Q 3634 634 3220 271 
Q 2806 -91 2034 -91 
Q 1263 -91 848 271 
Q 434 634 434 1313 
Q 434 1759 690 2068 
Q 947 2378 1403 2484 
z
M 1172 3481 
Q 1172 3119 1398 2916 
Q 1625 2713 2034 2713 
Q 2441 2713 2670 2916 
Q 2900 3119 2900 3481 
Q 2900 3844 2670 4047 
Q 2441 4250 2034 4250 
Q 1625 4250 1398 4047 
Q 1172 3844 1172 3481 
z
" id="DejaVuSans-38" transform="scale(0.015625)"/>
       </defs>
       <use xlink:href="#DejaVuSans-38"/>
      </g>
     </g>
    </g>
    <g id="text_5">
     <!-- log10 of Df -->
     <g transform="translate(175.214063 339.313125)scale(0.2 -0.2)">
      <defs>
       <path d="M 603 4863 
L 1178 4863 
L 1178 0 
L 603 0 
L 603 4863 
z
" id="DejaVuSans-6c" transform="scale(0.015625)"/>
       <path d="M 1959 3097 
Q 1497 3097 1228 2736 
Q 959 2375 959 1747 
Q 959 1119 1226 758 
Q 1494 397 1959 397 
Q 2419 397 2687 759 
Q 2956 1122 2956 1747 
Q 2956 2369 2687 2733 
Q 2419 3097 1959 3097 
z
M 1959 3584 
Q 2709 3584 3137 3096 
Q 3566 2609 3566 1747 
Q 3566 888 3137 398 
Q 2709 -91 1959 -91 
Q 1206 -91 779 398 
Q 353 888 353 1747 
Q 353 2609 779 3096 
Q 1206 3584 1959 3584 
z
" id="DejaVuSans-6f" transform="scale(0.015625)"/>
       <path d="M 2906 1791 
Q 2906 2416 2648 2759 
Q 2391 3103 1925 3103 
Q 1463 3103 1205 2759 
Q 947 2416 947 1791 
Q 947 1169 1205 825 
Q 1463 481 1925 481 
Q 2391 481 2648 825 
Q 2906 1169 2906 1791 
z
M 3481 434 
Q 3481 -459 3084 -895 
Q 2688 -1331 1869 -1331 
Q 1566 -1331 1297 -1286 
Q 1028 -1241 775 -1147 
L 775 -588 
Q 1028 -725 1275 -790 
Q 1522 -856 1778 -856 
Q 2344 -856 2625 -561 
Q 2906 -266 2906 331 
L 2906 616 
Q 2728 306 2450 153 
Q 2172 0 1784 0 
Q 1141 0 747 490 
Q 353 981 353 1791 
Q 353 2603 747 3093 
Q 1141 3584 1784 3584 
Q 2172 3584 2450 3431 
Q 2728 3278 2906 2969 
L 2906 3500 
L 3481 3500 
L 3481 434 
z
" id="DejaVuSans-67" transform="scale(0.015625)"/>
       <path d="M 794 531 
L 1825 531 
L 1825 4091 
L 703 3866 
L 703 4441 
L 1819 4666 
L 2450 4666 
L 2450 531 
L 3481 531 
L 3481 0 
L 794 0 
L 794 531 
z
" id="DejaVuSans-31" transform="scale(0.015625)"/>
       <path id="DejaVuSans-20" transform="scale(0.015625)"/>
       <path d="M 2375 4863 
L 2375 4384 
L 1825 4384 
Q 1516 4384 1395 4259 
Q 1275 4134 1275 3809 
L 1275 3500 
L 2222 3500 
L 2222 3053 
L 1275 3053 
L 1275 0 
L 697 0 
L 697 3053 
L 147 3053 
L 147 3500 
L 697 3500 
L 697 3744 
Q 697 4328 969 4595 
Q 1241 4863 1831 4863 
L 2375 4863 
z
" id="DejaVuSans-66" transform="scale(0.015625)"/>
       <path d="M 1259 4147 
L 1259 519 
L 2022 519 
Q 2988 519 3436 956 
Q 3884 1394 3884 2338 
Q 3884 3275 3436 3711 
Q 2988 4147 2022 4147 
L 1259 4147 
z
M 628 4666 
L 1925 4666 
Q 3281 4666 3915 4102 
Q 4550 3538 4550 2338 
Q 4550 1131 3912 565 
Q 3275 0 1925 0 
L 628 0 
L 628 4666 
z
" id="DejaVuSans-44" transform="scale(0.015625)"/>
      </defs>
      <use xlink:href="#DejaVuSans-6c"/>
      <use x="27.783203" xlink:href="#DejaVuSans-6f"/>
      <use x="88.964844" xlink:href="#DejaVuSans-67"/>
      <use x="152.441406" xlink:href="#DejaVuSans-31"/>
      <use x="216.064453" xlink:href="#DejaVuSans-30"/>
      <use x="279.6875" xlink:href="#DejaVuSans-20"/>
      <use x="311.474609" xlink:href="#DejaVuSans-6f"/>
      <use x="372.65625" xlink:href="#DejaVuSans-66"/>
      <use x="407.861328" xlink:href="#DejaVuSans-20"/>
      <use x="439.648438" xlink:href="#DejaVuSans-44"/>
      <use x="516.650391" xlink:href="#DejaVuSans-66"/>
     </g>
    </g>
   </g>
   <g id="matplotlib.axis_2">
    <g id="ytick_1">
     <g id="line2d_9">
      <path clip-path="url(#p92d3f6a8fe)" d="M 0 293.76 
L 460.8 293.76 
" style="fill:none;stroke:#b0b0b0;stroke-linecap:square;stroke-width:0.8;"/>
     </g>
     <g id="line2d_10">
      <defs>
       <path d="M 0 0 
L -3.5 0 
" id="m1f14ffed60" style="stroke:#000000;stroke-width:0.8;"/>
      </defs>
      <g>
       <use style="stroke:#000000;stroke-width:0.8;" x="0" xlink:href="#m1f14ffed60" y="293.76"/>
      </g>
     </g>
    </g>
    <g id="ytick_2">
     <g id="line2d_11">
      <path clip-path="url(#p92d3f6a8fe)" d="M 0 236.274059 
L 460.8 236.274059 
" style="fill:none;stroke:#b0b0b0;stroke-linecap:square;stroke-width:0.8;"/>
     </g>
     <g id="line2d_12">
      <g>
       <use style="stroke:#000000;stroke-width:0.8;" x="0" xlink:href="#m1f14ffed60" y="236.274059"/>
      </g>
     </g>
    </g>
    <g id="ytick_3">
     <g id="line2d_13">
      <path clip-path="url(#p92d3f6a8fe)" d="M 0 178.788119 
L 460.8 178.788119 
" style="fill:none;stroke:#b0b0b0;stroke-linecap:square;stroke-width:0.8;"/>
     </g>
     <g id="line2d_14">
      <g>
       <use style="stroke:#000000;stroke-width:0.8;" x="0" xlink:href="#m1f14ffed60" y="178.788119"/>
      </g>
     </g>
    </g>
    <g id="ytick_4">
     <g id="line2d_15">
      <path clip-path="url(#p92d3f6a8fe)" d="M 0 121.302178 
L 460.8 121.302178 
" style="fill:none;stroke:#b0b0b0;stroke-linecap:square;stroke-width:0.8;"/>
     </g>
     <g id="line2d_16">
      <g>
       <use style="stroke:#000000;stroke-width:0.8;" x="0" xlink:href="#m1f14ffed60" y="121.302178"/>
      </g>
     </g>
    </g>
    <g id="ytick_5">
     <g id="line2d_17">
      <path clip-path="url(#p92d3f6a8fe)" d="M 0 63.816238 
L 460.8 63.816238 
" style="fill:none;stroke:#b0b0b0;stroke-linecap:square;stroke-width:0.8;"/>
     </g>
     <g id="line2d_18">
      <g>
       <use style="stroke:#000000;stroke-width:0.8;" x="0" xlink:href="#m1f14ffed60" y="63.816238"/>
      </g>
     </g>
    </g>
    <g id="ytick_6">
     <g id="line2d_19">
      <path clip-path="url(#p92d3f6a8fe)" d="M 0 6.330297 
L 460.8 6.330297 
" style="fill:none;stroke:#b0b0b0;stroke-linecap:square;stroke-width:0.8;"/>
     </g>
     <g id="line2d_20">
      <g>
       <use style="stroke:#000000;stroke-width:0.8;" x="0" xlink:href="#m1f14ffed60" y="6.330297"/>
      </g>
     </g>
    </g>
   </g>
   <g id="line2d_21">
    <path clip-path="url(#p92d3f6a8fe)" d="M -1 121.302178 
L -0.113294 121.302178 
L -0.113294 6.330297 
L -0.113294 6.330297 
L 460.8 6.330297 
L 460.8 6.330297 
" style="fill:none;stroke:#ff0000;stroke-linecap:square;stroke-width:3;"/>
   </g>
   <g id="line2d_22">
    <path clip-path="url(#p92d3f6a8fe)" d="M 231.24469 293.76 
L 231.24469 289.927604 
L 231.46396 289.927604 
L 231.46396 286.095208 
L 232.662814 286.095208 
L 232.662814 282.262812 
L 236.262814 282.262812 
L 236.262814 278.430416 
L 236.78885 278.430416 
L 236.78885 274.59802 
L 239.473831 274.59802 
L 239.473831 270.765624 
L 241.086229 270.765624 
L 241.086229 266.933228 
L 241.687597 266.933228 
L 241.687597 263.100832 
L 245.605665 263.100832 
L 245.605665 259.268436 
L 246.695041 259.268436 
L 246.695041 255.43604 
L 248.207092 255.43604 
L 248.207092 251.603644 
L 251.480239 251.603644 
L 251.480239 247.771248 
L 253.171343 247.771248 
L 253.171343 243.938851 
L 253.794545 243.938851 
L 253.794545 240.106455 
L 270.86207 240.106455 
L 270.86207 236.274059 
L 277.741648 236.274059 
L 277.741648 232.441663 
L 281.875297 232.441663 
L 281.875297 228.609267 
L 283.90399 228.609267 
L 283.90399 224.776871 
L 284.979709 224.776871 
L 284.979709 220.944475 
L 285.227798 220.944475 
L 285.257447 213.279683 
L 287.973566 213.279683 
L 287.973566 209.447287 
L 288.977395 209.447287 
L 288.977395 205.614891 
L 289.665335 205.614891 
L 289.665335 201.782495 
L 291.301073 201.782495 
L 291.380398 194.117703 
L 291.682046 194.117703 
L 291.682046 190.285307 
L 292.430083 190.285307 
L 292.430083 186.452911 
L 295.761992 186.452911 
L 295.761992 182.620515 
L 297.300005 182.620515 
L 297.300005 178.788119 
L 297.411898 178.788119 
L 297.411898 174.955723 
L 316.599238 174.955723 
L 316.599238 171.123327 
L 341.572743 171.123327 
L 341.572743 167.290931 
L 342.701039 167.290931 
L 342.701039 163.458535 
L 346.899686 163.458535 
L 346.899686 159.626139 
L 351.297531 159.626139 
L 351.297531 155.793743 
L 355.303755 155.793743 
L 355.303755 151.961347 
L 358.343547 151.961347 
L 358.343547 148.12895 
L 360.515494 148.12895 
L 360.515494 144.296554 
L 361.435703 144.296554 
L 361.435703 140.464158 
L 362.591922 140.464158 
L 362.591922 136.631762 
L 367.745214 136.631762 
L 367.745214 132.799366 
L 371.966893 132.799366 
L 371.966893 128.96697 
L 374.863393 128.96697 
L 374.916025 121.302178 
L 375.066736 121.302178 
L 375.066736 117.469782 
L 375.533763 117.469782 
L 375.533763 113.637386 
L 376.646937 113.637386 
L 376.646937 109.80499 
L 379.457859 109.80499 
L 379.457859 105.972594 
L 379.668319 105.972594 
L 379.712135 98.307802 
L 383.131139 98.307802 
L 383.131139 94.475406 
L 383.434399 94.475406 
L 383.434399 90.64301 
L 386.50556 90.64301 
L 386.50556 86.810614 
L 387.755222 86.810614 
L 387.755222 82.978218 
L 390.334381 82.978218 
L 390.334381 79.145822 
L 390.490777 79.145822 
L 390.490777 75.313426 
L 392.453428 75.313426 
L 392.453428 71.48103 
L 392.571528 71.48103 
L 392.571528 67.648634 
L 396.90426 67.648634 
L 396.931589 59.983842 
L 399.214122 59.983842 
L 399.214122 56.151446 
L 400.378703 56.151446 
L 400.378703 52.31905 
L 402.91863 52.31905 
L 402.91863 48.486653 
L 405.140355 48.486653 
L 405.140355 44.654257 
L 405.619895 44.654257 
L 405.619895 40.821861 
L 406.363196 40.821861 
L 406.363196 36.989465 
L 416.865271 36.989465 
L 416.865271 33.157069 
L 418.628374 33.157069 
L 418.628374 29.324673 
L 420.462169 29.324673 
L 420.462169 25.492277 
L 421.133949 25.492277 
L 421.133949 21.659881 
L 421.92328 21.659881 
L 421.92328 17.827485 
L 423.453665 17.827485 
L 423.453665 13.995089 
L 428.037648 13.995089 
L 428.037648 10.162693 
L 429.67262 10.162693 
L 429.67262 6.330297 
L 429.67262 6.330297 
L 460.8 6.330297 
L 460.8 6.330297 
" style="fill:none;stroke:#00bfbf;stroke-linecap:square;stroke-width:1.5;"/>
   </g>
   <g id="line2d_23">
    <path clip-path="url(#p92d3f6a8fe)" d="M 220.284634 293.76 
L 220.284634 289.927604 
L 228.795127 289.927604 
L 228.795127 286.095208 
L 229.039208 286.095208 
L 229.14521 278.430416 
L 231.24469 278.430416 
L 231.24469 274.59802 
L 232.662814 274.59802 
L 232.662814 270.765624 
L 233.48828 270.765624 
L 233.48828 266.933228 
L 235.331926 266.933228 
L 235.331926 263.100832 
L 236.262814 263.100832 
L 236.262814 259.268436 
L 239.775426 259.268436 
L 239.775426 255.43604 
L 241.687597 255.43604 
L 241.687597 251.603644 
L 246.695041 251.603644 
L 246.695041 247.771248 
L 246.940154 247.771248 
L 246.940154 243.938851 
L 250.949866 243.938851 
L 250.949866 240.106455 
L 251.480239 240.106455 
L 251.480239 236.274059 
L 274.564038 236.274059 
L 274.564038 232.441663 
L 276.330417 232.441663 
L 276.330417 228.609267 
L 277.582741 228.609267 
L 277.582741 224.776871 
L 277.741648 224.776871 
L 277.741648 220.944475 
L 278.373559 220.944475 
L 278.373559 217.112079 
L 279.091021 217.112079 
L 279.091021 213.279683 
L 279.93966 213.279683 
L 279.93966 209.447287 
L 281.876897 209.447287 
L 281.876897 205.614891 
L 287.973566 205.614891 
L 287.973566 201.782495 
L 288.236521 201.782495 
L 288.236521 197.950099 
L 288.977395 197.950099 
L 288.977395 194.117703 
L 289.524938 194.117703 
L 289.524938 190.285307 
L 290.445901 190.285307 
L 290.445901 186.452911 
L 295.097641 186.452911 
L 295.097641 182.620515 
L 296.447606 182.620515 
L 296.447606 178.788119 
L 296.957274 178.788119 
L 296.957274 174.955723 
L 308.365004 174.955723 
L 308.365004 171.123327 
L 318.968056 171.123327 
L 318.968056 167.290931 
L 326.943179 167.290931 
L 326.943179 163.458535 
L 335.187109 163.458535 
L 335.187109 159.626139 
L 341.540009 159.626139 
L 341.540009 155.793743 
L 342.701039 155.793743 
L 342.701039 151.961347 
L 346.899686 151.961347 
L 346.899686 148.12895 
L 350.934505 148.12895 
L 350.934505 144.296554 
L 351.297531 144.296554 
L 351.306656 136.631762 
L 355.303755 136.631762 
L 355.303755 132.799366 
L 356.10087 132.799366 
L 356.10087 128.96697 
L 357.287202 128.96697 
L 357.287202 125.134574 
L 359.574533 125.134574 
L 359.574533 121.302178 
L 360.061112 121.302178 
L 360.061112 117.469782 
L 360.515494 117.469782 
L 360.520164 109.80499 
L 361.435703 109.80499 
L 361.435703 105.972594 
L 367.745214 105.972594 
L 367.745214 102.140198 
L 371.856287 102.140198 
L 371.856287 98.307802 
L 372.945098 98.307802 
L 372.945098 94.475406 
L 373.224293 94.475406 
L 373.224293 90.64301 
L 374.184806 90.64301 
L 374.184806 86.810614 
L 379.712135 86.810614 
L 379.712135 82.978218 
L 379.967653 82.978218 
L 379.967653 79.145822 
L 380.194704 79.145822 
L 380.194704 75.313426 
L 380.962141 75.313426 
L 380.962141 71.48103 
L 382.269466 71.48103 
L 382.269466 67.648634 
L 383.131139 67.648634 
L 383.131139 63.816238 
L 386.681152 63.816238 
L 386.681152 59.983842 
L 386.982926 59.983842 
L 386.982926 56.151446 
L 387.755222 56.151446 
L 387.755222 52.31905 
L 389.742768 52.31905 
L 389.742768 48.486653 
L 392.418118 48.486653 
L 392.453428 40.821861 
L 396.296154 40.821861 
L 396.296154 36.989465 
L 401.030762 36.989465 
L 401.030762 33.157069 
L 405.619895 33.157069 
L 405.619895 29.324673 
L 407.310166 29.324673 
L 407.310166 25.492277 
L 407.94483 25.492277 
L 407.94483 21.659881 
L 411.527962 21.659881 
L 411.527962 17.827485 
L 414.48581 17.827485 
L 414.48581 13.995089 
L 414.839294 13.995089 
L 414.839294 10.162693 
L 422.21597 10.162693 
L 422.21597 6.330297 
L 422.21597 6.330297 
L 460.8 6.330297 
L 460.8 6.330297 
" style="fill:none;stroke:#bf00bf;stroke-linecap:square;stroke-width:1.5;"/>
   </g>
   <g id="line2d_24">
    <path clip-path="url(#p92d3f6a8fe)" d="M 220.015408 293.76 
L 220.015408 289.927604 
L 220.284634 289.927604 
L 220.284634 286.095208 
L 221.353524 286.095208 
L 221.353524 282.262812 
L 226.027111 282.262812 
L 226.027111 278.430416 
L 226.354796 278.430416 
L 226.354796 274.59802 
L 228.241696 274.59802 
L 228.241696 270.765624 
L 229.14521 270.765624 
L 229.14521 266.933228 
L 229.760828 266.933228 
L 229.760828 263.100832 
L 232.52814 263.100832 
L 232.52814 259.268436 
L 232.851287 259.268436 
L 232.851287 255.43604 
L 235.331926 255.43604 
L 235.331926 251.603644 
L 236.262814 251.603644 
L 236.262814 247.771248 
L 236.636147 247.771248 
L 236.636147 243.938851 
L 245.810005 243.938851 
L 245.810005 240.106455 
L 250.949866 240.106455 
L 250.949866 236.274059 
L 274.564038 236.274059 
L 274.564038 232.441663 
L 275.577434 232.441663 
L 275.619419 224.776871 
L 275.708948 224.776871 
L 275.708948 220.944475 
L 277.582741 220.944475 
L 277.582741 217.112079 
L 277.741648 217.112079 
L 277.741648 213.279683 
L 278.373559 213.279683 
L 278.373559 209.447287 
L 278.722132 209.447287 
L 278.722132 205.614891 
L 279.091021 205.614891 
L 279.091021 201.782495 
L 281.876897 201.782495 
L 281.876897 197.950099 
L 283.866986 197.950099 
L 283.866986 194.117703 
L 284.011828 194.117703 
L 284.011828 190.285307 
L 286.034541 190.285307 
L 286.034541 186.452911 
L 286.230626 186.452911 
L 286.230626 182.620515 
L 286.810236 182.620515 
L 286.810236 178.788119 
L 287.745574 178.788119 
L 287.745574 174.955723 
L 288.62717 174.955723 
L 288.62717 171.123327 
L 290.074402 171.123327 
L 290.074402 167.290931 
L 308.365004 167.290931 
L 308.365004 163.458535 
L 318.63884 163.458535 
L 318.63884 159.626139 
L 318.892901 159.626139 
L 318.892901 155.793743 
L 320.834885 155.793743 
L 320.834885 151.961347 
L 324.879633 151.961347 
L 324.879633 148.12895 
L 325.961988 148.12895 
L 325.961988 144.296554 
L 326.463571 144.296554 
L 326.463571 140.464158 
L 328.335856 140.464158 
L 328.335856 136.631762 
L 329.831434 136.631762 
L 329.831434 132.799366 
L 331.504154 132.799366 
L 331.504154 128.96697 
L 334.768538 128.96697 
L 334.768538 125.134574 
L 336.879972 125.134574 
L 336.879972 121.302178 
L 340.678642 121.302178 
L 340.678642 117.469782 
L 342.522984 117.469782 
L 342.522984 113.637386 
L 342.701039 113.637386 
L 342.80492 105.972594 
L 346.119624 105.972594 
L 346.119624 102.140198 
L 346.516255 102.140198 
L 346.516255 98.307802 
L 354.014473 98.307802 
L 354.014473 94.475406 
L 356.806888 94.475406 
L 356.806888 90.64301 
L 360.515494 90.64301 
L 360.515494 86.810614 
L 361.435703 86.810614 
L 361.435703 82.978218 
L 363.738577 82.978218 
L 363.738577 79.145822 
L 364.981634 79.145822 
L 364.981634 75.313426 
L 367.745214 75.313426 
L 367.745214 71.48103 
L 367.970811 71.48103 
L 367.970811 67.648634 
L 371.75728 67.648634 
L 371.75728 63.816238 
L 373.224293 63.816238 
L 373.224293 59.983842 
L 378.916108 59.983842 
L 378.916108 56.151446 
L 381.544445 56.151446 
L 381.544445 52.31905 
L 383.131139 52.31905 
L 383.131139 48.486653 
L 386.326331 48.486653 
L 386.326331 44.654257 
L 392.453428 44.654257 
L 392.453428 40.821861 
L 396.296154 40.821861 
L 396.296154 36.989465 
L 397.861259 36.989465 
L 397.861259 33.157069 
L 399.871406 33.157069 
L 399.871406 29.324673 
L 402.179561 29.324673 
L 402.179561 25.492277 
L 402.341289 25.492277 
L 402.341289 21.659881 
L 405.619895 21.659881 
L 405.619895 17.827485 
L 407.310166 17.827485 
L 407.310166 13.995089 
L 408.212834 13.995089 
L 408.212834 10.162693 
L 411.427246 10.162693 
L 411.427246 6.330297 
L 411.427246 6.330297 
L 460.8 6.330297 
L 460.8 6.330297 
" style="fill:none;stroke:#000000;stroke-linecap:square;stroke-width:1.5;"/>
   </g>
   <g id="line2d_25">
    <path clip-path="url(#p92d3f6a8fe)" d="M 214.084441 293.76 
L 214.084441 289.927604 
L 215.947731 289.927604 
L 215.947731 286.095208 
L 217.882545 286.095208 
L 217.956757 278.430416 
L 220.015408 278.430416 
L 220.015408 274.59802 
L 220.284634 274.59802 
L 220.284634 270.765624 
L 221.132219 270.765624 
L 221.132219 266.933228 
L 221.353524 266.933228 
L 221.353524 263.100832 
L 223.671346 263.100832 
L 223.724617 255.43604 
L 226.027111 255.43604 
L 226.027111 251.603644 
L 232.52814 251.603644 
L 232.52814 247.771248 
L 232.70545 247.771248 
L 232.70545 243.938851 
L 235.331926 243.938851 
L 235.331926 240.106455 
L 236.262814 240.106455 
L 236.262814 236.274059 
L 246.187031 236.274059 
L 246.187031 232.441663 
L 252.938817 232.441663 
L 252.938817 228.609267 
L 254.221091 228.609267 
L 254.221091 224.776871 
L 262.480488 224.776871 
L 262.480488 220.944475 
L 273.928215 220.944475 
L 273.928215 217.112079 
L 274.105868 217.112079 
L 274.105868 213.279683 
L 274.417352 213.279683 
L 274.417352 209.447287 
L 274.564038 209.447287 
L 274.564038 205.614891 
L 275.577434 205.614891 
L 275.577434 201.782495 
L 275.708948 201.782495 
L 275.708948 197.950099 
L 276.264513 197.950099 
L 276.264513 194.117703 
L 276.684641 194.117703 
L 276.684641 190.285307 
L 277.524556 190.285307 
L 277.582741 182.620515 
L 278.722132 182.620515 
L 278.722132 178.788119 
L 282.968399 178.788119 
L 282.968399 174.955723 
L 283.866986 174.955723 
L 283.866986 171.123327 
L 284.011828 171.123327 
L 284.011828 167.290931 
L 286.810236 167.290931 
L 286.86423 159.626139 
L 288.158035 159.626139 
L 288.158035 155.793743 
L 290.074402 155.793743 
L 290.074402 151.961347 
L 301.990997 151.961347 
L 301.990997 148.12895 
L 302.647838 148.12895 
L 302.647838 144.296554 
L 308.365004 144.296554 
L 308.365004 140.464158 
L 311.652717 140.464158 
L 311.652717 136.631762 
L 316.694602 136.631762 
L 316.694602 132.799366 
L 319.302092 132.799366 
L 319.302092 128.96697 
L 320.834885 128.96697 
L 320.834885 125.134574 
L 323.792937 125.134574 
L 323.792937 121.302178 
L 330.964849 121.302178 
L 330.964849 117.469782 
L 336.5396 117.469782 
L 336.5396 113.637386 
L 336.879972 113.637386 
L 336.879972 109.80499 
L 339.868701 109.80499 
L 339.868701 105.972594 
L 340.678642 105.972594 
L 340.678642 102.140198 
L 341.920043 102.140198 
L 341.927511 94.475406 
L 350.418185 94.475406 
L 350.481731 86.810614 
L 351.077562 86.810614 
L 351.077562 82.978218 
L 353.102214 82.978218 
L 353.102214 79.145822 
L 354.014473 79.145822 
L 354.014473 75.313426 
L 354.610497 75.313426 
L 354.610497 71.48103 
L 360.599101 71.48103 
L 360.599101 67.648634 
L 364.981634 67.648634 
L 364.981634 63.816238 
L 370.105293 63.816238 
L 370.105293 59.983842 
L 371.75728 59.983842 
L 371.75728 56.151446 
L 374.427176 56.151446 
L 374.427176 52.31905 
L 375.438211 52.31905 
L 375.438211 48.486653 
L 381.544445 48.486653 
L 381.544445 44.654257 
L 386.812698 44.654257 
L 386.812698 40.821861 
L 390.120135 40.821861 
L 390.120135 36.989465 
L 392.453428 36.989465 
L 392.453428 33.157069 
L 393.57774 33.157069 
L 393.57774 29.324673 
L 393.952917 29.324673 
L 393.952917 25.492277 
L 396.296154 25.492277 
L 396.296154 21.659881 
L 397.60994 21.659881 
L 397.60994 17.827485 
L 399.206685 17.827485 
L 399.206685 13.995089 
L 402.179561 13.995089 
L 402.179561 10.162693 
L 405.751859 10.162693 
L 405.751859 6.330297 
L 405.751859 6.330297 
L 460.8 6.330297 
L 460.8 6.330297 
" style="fill:none;stroke:#00bfbf;stroke-linecap:square;stroke-width:1.5;"/>
   </g>
   <g id="line2d_26">
    <path clip-path="url(#p92d3f6a8fe)" d="M 193.55204 293.76 
L 193.55204 289.927604 
L 195.384847 289.927604 
L 195.39555 282.262812 
L 199.272023 282.262812 
L 199.272023 278.430416 
L 199.696213 278.430416 
L 199.696213 274.59802 
L 201.067811 274.59802 
L 201.067811 270.765624 
L 201.876698 270.765624 
L 201.876698 266.933228 
L 202.161354 266.933228 
L 202.232063 259.268436 
L 202.35117 259.268436 
L 202.35117 255.43604 
L 204.011845 255.43604 
L 204.011845 251.603644 
L 204.431768 251.603644 
L 204.531066 243.938851 
L 210.507949 243.938851 
L 210.507949 240.106455 
L 213.074058 240.106455 
L 213.074058 236.274059 
L 235.813252 236.274059 
L 235.813252 232.441663 
L 239.642958 232.441663 
L 239.642958 228.609267 
L 240.97473 228.609267 
L 240.97473 224.776871 
L 242.815344 224.776871 
L 242.815344 220.944475 
L 245.754269 220.944475 
L 245.754269 217.112079 
L 246.06929 217.112079 
L 246.06929 213.279683 
L 246.996332 213.279683 
L 246.996332 209.447287 
L 247.858624 209.447287 
L 247.858624 205.614891 
L 248.257782 205.614891 
L 248.257782 201.782495 
L 248.593491 201.782495 
L 248.593491 197.950099 
L 249.828781 197.950099 
L 249.885545 190.285307 
L 252.405972 190.285307 
L 252.405972 186.452911 
L 252.731477 186.452911 
L 252.731477 182.620515 
L 254.605773 182.620515 
L 254.605773 178.788119 
L 256.417053 178.788119 
L 256.417053 174.955723 
L 257.798685 174.955723 
L 257.798685 171.123327 
L 260.062433 171.123327 
L 260.062433 167.290931 
L 260.884225 167.290931 
L 260.884225 163.458535 
L 261.485697 163.458535 
L 261.485697 159.626139 
L 261.928769 159.626139 
L 261.928769 155.793743 
L 262.057947 155.793743 
L 262.057947 151.961347 
L 263.694731 151.961347 
L 263.694731 148.12895 
L 264.546096 148.12895 
L 264.546096 144.296554 
L 265.440602 144.296554 
L 265.440602 140.464158 
L 266.65469 140.464158 
L 266.65469 136.631762 
L 267.254365 136.631762 
L 267.254365 132.799366 
L 268.044811 132.799366 
L 268.044811 128.96697 
L 270.199409 128.96697 
L 270.199409 125.134574 
L 270.535642 125.134574 
L 270.535642 121.302178 
L 284.119932 121.302178 
L 284.119932 117.469782 
L 291.414153 117.469782 
L 291.414153 113.637386 
L 295.285593 113.637386 
L 295.285593 109.80499 
L 297.051141 109.80499 
L 297.051141 105.972594 
L 299.061428 105.972594 
L 299.061428 102.140198 
L 299.42321 102.140198 
L 299.42321 98.307802 
L 302.924391 98.307802 
L 302.924391 94.475406 
L 306.548409 94.475406 
L 306.548409 90.64301 
L 309.821082 90.64301 
L 309.916497 82.978218 
L 310.95742 82.978218 
L 310.95742 79.145822 
L 317.49443 79.145822 
L 317.49443 75.313426 
L 324.33154 75.313426 
L 324.33154 71.48103 
L 330.743122 71.48103 
L 330.743122 67.648634 
L 331.961486 67.648634 
L 331.961486 63.816238 
L 335.064414 63.816238 
L 335.064414 59.983842 
L 342.924025 59.983842 
L 342.924025 56.151446 
L 345.27305 56.151446 
L 345.27305 52.31905 
L 345.856513 52.31905 
L 345.856513 48.486653 
L 346.898332 48.486653 
L 346.898332 44.654257 
L 348.267032 44.654257 
L 348.267032 40.821861 
L 353.218664 40.821861 
L 353.218664 36.989465 
L 358.823359 36.989465 
L 358.823359 33.157069 
L 360.751301 33.157069 
L 360.751301 29.324673 
L 361.160487 29.324673 
L 361.160487 25.492277 
L 361.659695 25.492277 
L 361.659695 21.659881 
L 362.837682 21.659881 
L 362.837682 17.827485 
L 363.688218 17.827485 
L 363.688218 13.995089 
L 365.593408 13.995089 
L 365.593408 10.162693 
L 369.150591 10.162693 
L 369.150591 6.330297 
L 369.150591 6.330297 
L 460.8 6.330297 
L 460.8 6.330297 
" style="fill:none;stroke:#bf00bf;stroke-linecap:square;stroke-width:1.5;"/>
   </g>
   <g id="line2d_27">
    <path clip-path="url(#p92d3f6a8fe)" d="M -1 140.464158 
L 1.713081 140.464158 
L 1.713081 136.631762 
L 1.937107 136.631762 
L 1.937107 132.799366 
L 10.036627 132.799366 
L 10.036627 128.96697 
L 13.626969 128.96697 
L 13.626969 125.134574 
L 17.760552 125.134574 
L 17.760552 121.302178 
L 61.924209 121.302178 
L 61.924209 117.469782 
L 66.524557 117.469782 
L 66.524557 113.637386 
L 70.566493 113.637386 
L 70.566493 109.80499 
L 72.810076 109.80499 
L 72.810076 105.972594 
L 75.739579 105.972594 
L 75.739579 102.140198 
L 76.055376 102.140198 
L 76.055376 98.307802 
L 79.879419 98.307802 
L 79.879419 94.475406 
L 80.106043 94.475406 
L 80.106043 90.64301 
L 80.2324 90.64301 
L 80.2324 86.810614 
L 80.914361 86.810614 
L 80.914361 82.978218 
L 82.257164 82.978218 
L 82.257164 79.145822 
L 82.440133 79.145822 
L 82.440133 75.313426 
L 83.399403 75.313426 
L 83.399403 71.48103 
L 84.472731 71.48103 
L 84.472731 67.648634 
L 85.96821 67.648634 
L 85.96821 63.816238 
L 86.290248 63.816238 
L 86.290248 59.983842 
L 89.288753 59.983842 
L 89.288753 56.151446 
L 90.333371 56.151446 
L 90.333371 52.31905 
L 93.321095 52.31905 
L 93.321095 48.486653 
L 95.292867 48.486653 
L 95.292867 44.654257 
L 95.610725 44.654257 
L 95.610725 40.821861 
L 96.161475 40.821861 
L 96.161475 36.989465 
L 100.299584 36.989465 
L 100.299584 33.157069 
L 112.746392 33.157069 
L 112.746392 29.324673 
L 139.048302 29.324673 
L 139.048302 25.492277 
L 151.367758 25.492277 
L 151.367758 21.659881 
L 156.117739 21.659881 
L 156.117739 17.827485 
L 156.291032 17.827485 
L 156.291032 13.995089 
L 178.823557 13.995089 
L 178.823557 10.162693 
L 199.275188 10.162693 
L 199.275188 6.330297 
L 199.275188 6.330297 
L 460.8 6.330297 
L 460.8 6.330297 
" style="fill:none;stroke:#000000;stroke-linecap:square;stroke-width:1.5;"/>
   </g>
   <g id="patch_3">
    <path d="M 0 293.76 
L 0 3.456 
" style="fill:none;stroke:#000000;stroke-linecap:square;stroke-linejoin:miter;stroke-width:0.8;"/>
   </g>
   <g id="patch_4">
    <path d="M 460.8 293.76 
L 460.8 3.456 
" style="fill:none;stroke:#000000;stroke-linecap:square;stroke-linejoin:miter;stroke-width:0.8;"/>
   </g>
   <g id="patch_5">
    <path d="M 0 293.76 
L 460.8 293.76 
" style="fill:none;stroke:#000000;stroke-linecap:square;stroke-linejoin:miter;stroke-width:0.8;"/>
   </g>
   <g id="patch_6">
    <path d="M 0 3.456 
L 460.8 3.456 
" style="fill:none;stroke:#000000;stroke-linecap:square;stroke-linejoin:miter;stroke-width:0.8;"/>
   </g>
   <g id="text_6">
    <!-- {f10-f14}, 5-D -->
    <g transform="translate(305.884 287.95392)scale(0.2 -0.2)">
     <defs>
      <path d="M 3272 -594 
L 3272 -1044 
L 3078 -1044 
Q 2300 -1044 2036 -812 
Q 1772 -581 1772 109 
L 1772 856 
Q 1772 1328 1603 1509 
Q 1434 1691 991 1691 
L 800 1691 
L 800 2138 
L 991 2138 
Q 1438 2138 1605 2317 
Q 1772 2497 1772 2963 
L 1772 3713 
Q 1772 4403 2036 4633 
Q 2300 4863 3078 4863 
L 3272 4863 
L 3272 4416 
L 3059 4416 
Q 2619 4416 2484 4278 
Q 2350 4141 2350 3700 
L 2350 2925 
Q 2350 2434 2208 2212 
Q 2066 1991 1722 1913 
Q 2069 1828 2209 1606 
Q 2350 1384 2350 897 
L 2350 122 
Q 2350 -319 2484 -456 
Q 2619 -594 3059 -594 
L 3272 -594 
z
" id="DejaVuSans-7b" transform="scale(0.015625)"/>
      <path d="M 800 -594 
L 1019 -594 
Q 1456 -594 1589 -459 
Q 1722 -325 1722 122 
L 1722 897 
Q 1722 1384 1862 1606 
Q 2003 1828 2350 1913 
Q 2003 1991 1862 2212 
Q 1722 2434 1722 2925 
L 1722 3700 
Q 1722 4144 1589 4280 
Q 1456 4416 1019 4416 
L 800 4416 
L 800 4863 
L 997 4863 
Q 1775 4863 2036 4633 
Q 2297 4403 2297 3713 
L 2297 2963 
Q 2297 2497 2465 2317 
Q 2634 2138 3078 2138 
L 3272 2138 
L 3272 1691 
L 3078 1691 
Q 2634 1691 2465 1509 
Q 2297 1328 2297 856 
L 2297 109 
Q 2297 -581 2036 -812 
Q 1775 -1044 997 -1044 
L 800 -1044 
L 800 -594 
z
" id="DejaVuSans-7d" transform="scale(0.015625)"/>
      <path d="M 750 794 
L 1409 794 
L 1409 256 
L 897 -744 
L 494 -744 
L 750 256 
L 750 794 
z
" id="DejaVuSans-2c" transform="scale(0.015625)"/>
      <path d="M 691 4666 
L 3169 4666 
L 3169 4134 
L 1269 4134 
L 1269 2991 
Q 1406 3038 1543 3061 
Q 1681 3084 1819 3084 
Q 2600 3084 3056 2656 
Q 3513 2228 3513 1497 
Q 3513 744 3044 326 
Q 2575 -91 1722 -91 
Q 1428 -91 1123 -41 
Q 819 9 494 109 
L 494 744 
Q 775 591 1075 516 
Q 1375 441 1709 441 
Q 2250 441 2565 725 
Q 2881 1009 2881 1497 
Q 2881 1984 2565 2268 
Q 2250 2553 1709 2553 
Q 1456 2553 1204 2497 
Q 953 2441 691 2322 
L 691 4666 
z
" id="DejaVuSans-35" transform="scale(0.015625)"/>
     </defs>
     <use xlink:href="#DejaVuSans-7b"/>
     <use x="63.623047" xlink:href="#DejaVuSans-66"/>
     <use x="98.828125" xlink:href="#DejaVuSans-31"/>
     <use x="162.451172" xlink:href="#DejaVuSans-30"/>
     <use x="226.074219" xlink:href="#DejaVuSans-2d"/>
     <use x="262.158203" xlink:href="#DejaVuSans-66"/>
     <use x="297.363281" xlink:href="#DejaVuSans-31"/>
     <use x="360.986328" xlink:href="#DejaVuSans-34"/>
     <use x="424.609375" xlink:href="#DejaVuSans-7d"/>
     <use x="488.232422" xlink:href="#DejaVuSans-2c"/>
     <use x="520.019531" xlink:href="#DejaVuSans-20"/>
     <use x="551.806641" xlink:href="#DejaVuSans-35"/>
     <use x="615.429688" xlink:href="#DejaVuSans-2d"/>
     <use x="651.513672" xlink:href="#DejaVuSans-44"/>
    </g>
   </g>
   <g id="text_7">
    <!-- v2.4 -->
    <g style="fill:#808080;" transform="translate(219.489063 288.777272)scale(0.1 -0.1)">
     <defs>
      <path d="M 191 3500 
L 800 3500 
L 1894 563 
L 2988 3500 
L 3597 3500 
L 2284 0 
L 1503 0 
L 191 3500 
z
" id="DejaVuSans-76" transform="scale(0.015625)"/>
      <path d="M 1228 531 
L 3431 531 
L 3431 0 
L 469 0 
L 469 531 
Q 828 903 1448 1529 
Q 2069 2156 2228 2338 
Q 2531 2678 2651 2914 
Q 2772 3150 2772 3378 
Q 2772 3750 2511 3984 
Q 2250 4219 1831 4219 
Q 1534 4219 1204 4116 
Q 875 4013 500 3803 
L 500 4441 
Q 881 4594 1212 4672 
Q 1544 4750 1819 4750 
Q 2544 4750 2975 4387 
Q 3406 4025 3406 3419 
Q 3406 3131 3298 2873 
Q 3191 2616 2906 2266 
Q 2828 2175 2409 1742 
Q 1991 1309 1228 531 
z
" id="DejaVuSans-32" transform="scale(0.015625)"/>
      <path d="M 684 794 
L 1344 794 
L 1344 0 
L 684 0 
L 684 794 
z
" id="DejaVuSans-2e" transform="scale(0.015625)"/>
     </defs>
     <use xlink:href="#DejaVuSans-76"/>
     <use x="59.179688" xlink:href="#DejaVuSans-32"/>
     <use x="122.802734" xlink:href="#DejaVuSans-2e"/>
     <use x="154.589844" xlink:href="#DejaVuSans-34"/>
    </g>
   </g>
  </g>
 </g>
 <defs>
  <clipPath id="p92d3f6a8fe">
   <rect height="290.304" width="460.8" x="0" y="3.456"/>
  </clipPath>
 </defs>
</svg>
