<?xml version="1.0" encoding="utf-8" standalone="no"?>
<!DOCTYPE svg PUBLIC "-//W3C//DTD SVG 1.1//EN"
  "http://www.w3.org/Graphics/SVG/1.1/DTD/svg11.dtd">
<svg height="345.6pt" version="1.1" viewBox="0 0 460.8 345.6" width="460.8pt" xmlns="http://www.w3.org/2000/svg" xmlns:xlink="http://www.w3.org/1999/xlink">
 <metadata>
  <rdf:RDF xmlns:cc="http://creativecommons.org/ns#" xmlns:dc="http://purl.org/dc/elements/1.1/" xmlns:rdf="http://www.w3.org/1999/02/22-rdf-syntax-ns#">
   <cc:Work>
    <dc:type rdf:resource="http://purl.org/dc/dcmitype/StillImage"/>
    <dc:date>2021-07-27T16:03:35.116683</dc:date>
    <dc:format>image/svg+xml</dc:format>
    <dc:creator>
     <cc:Agent>
      <dc:title>Matplotlib v3.4.2, https://matplotlib.org/</dc:title>
     </cc:Agent>
    </dc:creator>
   </cc:Work>
  </rdf:RDF>
 </metadata>
 <defs>
  <style type="text/css">*{stroke-linecap:butt;stroke-linejoin:round;}</style>
 </defs>
 <g id="figure_1">
  <g id="patch_1">
   <path d="M 0 345.6 
L 460.8 345.6 
L 460.8 0 
L 0 0 
z
" style="fill:#ffffff;"/>
  </g>
  <g id="axes_1">
   <g id="patch_2">
    <path d="M 0 293.76 
L 460.8 293.76 
L 460.8 3.456 
L 0 3.456 
z
" style="fill:#ffffff;"/>
   </g>
   <g id="matplotlib.axis_1">
    <g id="xtick_1">
     <g id="line2d_1">
      <path clip-path="url(#p4e89cc77cd)" d="M 104.754935 293.76 
L 104.754935 3.456 
" style="fill:none;stroke:#b0b0b0;stroke-linecap:square;stroke-width:0.8;"/>
     </g>
     <g id="line2d_2">
      <defs>
       <path d="M 0 0 
L 0 3.5 
" id="m7df491c582" style="stroke:#000000;stroke-width:0.8;"/>
      </defs>
      <g>
       <use style="stroke:#000000;stroke-width:0.8;" x="104.754935" xlink:href="#m7df491c582" y="293.76"/>
      </g>
     </g>
     <g id="text_1">
      <!-- -4 -->
      <g transform="translate(94.784622 315.956875)scale(0.2 -0.2)">
       <defs>
        <path d="M 313 2009 
L 1997 2009 
L 1997 1497 
L 313 1497 
L 313 2009 
z
" id="DejaVuSans-2d" transform="scale(0.015625)"/>
        <path d="M 2419 4116 
L 825 1625 
L 2419 1625 
L 2419 4116 
z
M 2253 4666 
L 3047 4666 
L 3047 1625 
L 3713 1625 
L 3713 1100 
L 3047 1100 
L 3047 0 
L 2419 0 
L 2419 1100 
L 313 1100 
L 313 1709 
L 2253 4666 
z
" id="DejaVuSans-34" transform="scale(0.015625)"/>
       </defs>
       <use xlink:href="#DejaVuSans-2d"/>
       <use x="36.083984" xlink:href="#DejaVuSans-34"/>
      </g>
     </g>
    </g>
    <g id="xtick_2">
     <g id="line2d_3">
      <path clip-path="url(#p4e89cc77cd)" d="M 209.623163 293.76 
L 209.623163 3.456 
" style="fill:none;stroke:#b0b0b0;stroke-linecap:square;stroke-width:0.8;"/>
     </g>
     <g id="line2d_4">
      <g>
       <use style="stroke:#000000;stroke-width:0.8;" x="209.623163" xlink:href="#m7df491c582" y="293.76"/>
      </g>
     </g>
     <g id="text_2">
      <!-- 0 -->
      <g transform="translate(203.260663 315.956875)scale(0.2 -0.2)">
       <defs>
        <path d="M 2034 4250 
Q 1547 4250 1301 3770 
Q 1056 3291 1056 2328 
Q 1056 1369 1301 889 
Q 1547 409 2034 409 
Q 2525 409 2770 889 
Q 3016 1369 3016 2328 
Q 3016 3291 2770 3770 
Q 2525 4250 2034 4250 
z
M 2034 4750 
Q 2819 4750 3233 4129 
Q 3647 3509 3647 2328 
Q 3647 1150 3233 529 
Q 2819 -91 2034 -91 
Q 1250 -91 836 529 
Q 422 1150 422 2328 
Q 422 3509 836 4129 
Q 1250 4750 2034 4750 
z
" id="DejaVuSans-30" transform="scale(0.015625)"/>
       </defs>
       <use xlink:href="#DejaVuSans-30"/>
      </g>
     </g>
    </g>
    <g id="xtick_3">
     <g id="line2d_5">
      <path clip-path="url(#p4e89cc77cd)" d="M 314.491391 293.76 
L 314.491391 3.456 
" style="fill:none;stroke:#b0b0b0;stroke-linecap:square;stroke-width:0.8;"/>
     </g>
     <g id="line2d_6">
      <g>
       <use style="stroke:#000000;stroke-width:0.8;" x="314.491391" xlink:href="#m7df491c582" y="293.76"/>
      </g>
     </g>
     <g id="text_3">
      <!-- 4 -->
      <g transform="translate(308.128891 315.956875)scale(0.2 -0.2)">
       <use xlink:href="#DejaVuSans-34"/>
      </g>
     </g>
    </g>
    <g id="xtick_4">
     <g id="line2d_7">
      <path clip-path="url(#p4e89cc77cd)" d="M 419.359619 293.76 
L 419.359619 3.456 
" style="fill:none;stroke:#b0b0b0;stroke-linecap:square;stroke-width:0.8;"/>
     </g>
     <g id="line2d_8">
      <g>
       <use style="stroke:#000000;stroke-width:0.8;" x="419.359619" xlink:href="#m7df491c582" y="293.76"/>
      </g>
     </g>
     <g id="text_4">
      <!-- 8 -->
      <g transform="translate(412.997119 315.956875)scale(0.2 -0.2)">
       <defs>
        <path d="M 2034 2216 
Q 1584 2216 1326 1975 
Q 1069 1734 1069 1313 
Q 1069 891 1326 650 
Q 1584 409 2034 409 
Q 2484 409 2743 651 
Q 3003 894 3003 1313 
Q 3003 1734 2745 1975 
Q 2488 2216 2034 2216 
z
M 1403 2484 
Q 997 2584 770 2862 
Q 544 3141 544 3541 
Q 544 4100 942 4425 
Q 1341 4750 2034 4750 
Q 2731 4750 3128 4425 
Q 3525 4100 3525 3541 
Q 3525 3141 3298 2862 
Q 3072 2584 2669 2484 
Q 3125 2378 3379 2068 
Q 3634 1759 3634 1313 
Q 3634 634 3220 271 
Q 2806 -91 2034 -91 
Q 1263 -91 848 271 
Q 434 634 434 1313 
Q 434 1759 690 2068 
Q 947 2378 1403 2484 
z
M 1172 3481 
Q 1172 3119 1398 2916 
Q 1625 2713 2034 2713 
Q 2441 2713 2670 2916 
Q 2900 3119 2900 3481 
Q 2900 3844 2670 4047 
Q 2441 4250 2034 4250 
Q 1625 4250 1398 4047 
Q 1172 3844 1172 3481 
z
" id="DejaVuSans-38" transform="scale(0.015625)"/>
       </defs>
       <use xlink:href="#DejaVuSans-38"/>
      </g>
     </g>
    </g>
    <g id="text_5">
     <!-- log10 of Df -->
     <g transform="translate(175.214063 339.313125)scale(0.2 -0.2)">
      <defs>
       <path d="M 603 4863 
L 1178 4863 
L 1178 0 
L 603 0 
L 603 4863 
z
" id="DejaVuSans-6c" transform="scale(0.015625)"/>
       <path d="M 1959 3097 
Q 1497 3097 1228 2736 
Q 959 2375 959 1747 
Q 959 1119 1226 758 
Q 1494 397 1959 397 
Q 2419 397 2687 759 
Q 2956 1122 2956 1747 
Q 2956 2369 2687 2733 
Q 2419 3097 1959 3097 
z
M 1959 3584 
Q 2709 3584 3137 3096 
Q 3566 2609 3566 1747 
Q 3566 888 3137 398 
Q 2709 -91 1959 -91 
Q 1206 -91 779 398 
Q 353 888 353 1747 
Q 353 2609 779 3096 
Q 1206 3584 1959 3584 
z
" id="DejaVuSans-6f" transform="scale(0.015625)"/>
       <path d="M 2906 1791 
Q 2906 2416 2648 2759 
Q 2391 3103 1925 3103 
Q 1463 3103 1205 2759 
Q 947 2416 947 1791 
Q 947 1169 1205 825 
Q 1463 481 1925 481 
Q 2391 481 2648 825 
Q 2906 1169 2906 1791 
z
M 3481 434 
Q 3481 -459 3084 -895 
Q 2688 -1331 1869 -1331 
Q 1566 -1331 1297 -1286 
Q 1028 -1241 775 -1147 
L 775 -588 
Q 1028 -725 1275 -790 
Q 1522 -856 1778 -856 
Q 2344 -856 2625 -561 
Q 2906 -266 2906 331 
L 2906 616 
Q 2728 306 2450 153 
Q 2172 0 1784 0 
Q 1141 0 747 490 
Q 353 981 353 1791 
Q 353 2603 747 3093 
Q 1141 3584 1784 3584 
Q 2172 3584 2450 3431 
Q 2728 3278 2906 2969 
L 2906 3500 
L 3481 3500 
L 3481 434 
z
" id="DejaVuSans-67" transform="scale(0.015625)"/>
       <path d="M 794 531 
L 1825 531 
L 1825 4091 
L 703 3866 
L 703 4441 
L 1819 4666 
L 2450 4666 
L 2450 531 
L 3481 531 
L 3481 0 
L 794 0 
L 794 531 
z
" id="DejaVuSans-31" transform="scale(0.015625)"/>
       <path id="DejaVuSans-20" transform="scale(0.015625)"/>
       <path d="M 2375 4863 
L 2375 4384 
L 1825 4384 
Q 1516 4384 1395 4259 
Q 1275 4134 1275 3809 
L 1275 3500 
L 2222 3500 
L 2222 3053 
L 1275 3053 
L 1275 0 
L 697 0 
L 697 3053 
L 147 3053 
L 147 3500 
L 697 3500 
L 697 3744 
Q 697 4328 969 4595 
Q 1241 4863 1831 4863 
L 2375 4863 
z
" id="DejaVuSans-66" transform="scale(0.015625)"/>
       <path d="M 1259 4147 
L 1259 519 
L 2022 519 
Q 2988 519 3436 956 
Q 3884 1394 3884 2338 
Q 3884 3275 3436 3711 
Q 2988 4147 2022 4147 
L 1259 4147 
z
M 628 4666 
L 1925 4666 
Q 3281 4666 3915 4102 
Q 4550 3538 4550 2338 
Q 4550 1131 3912 565 
Q 3275 0 1925 0 
L 628 0 
L 628 4666 
z
" id="DejaVuSans-44" transform="scale(0.015625)"/>
      </defs>
      <use xlink:href="#DejaVuSans-6c"/>
      <use x="27.783203" xlink:href="#DejaVuSans-6f"/>
      <use x="88.964844" xlink:href="#DejaVuSans-67"/>
      <use x="152.441406" xlink:href="#DejaVuSans-31"/>
      <use x="216.064453" xlink:href="#DejaVuSans-30"/>
      <use x="279.6875" xlink:href="#DejaVuSans-20"/>
      <use x="311.474609" xlink:href="#DejaVuSans-6f"/>
      <use x="372.65625" xlink:href="#DejaVuSans-66"/>
      <use x="407.861328" xlink:href="#DejaVuSans-20"/>
      <use x="439.648438" xlink:href="#DejaVuSans-44"/>
      <use x="516.650391" xlink:href="#DejaVuSans-66"/>
     </g>
    </g>
   </g>
   <g id="matplotlib.axis_2">
    <g id="ytick_1">
     <g id="line2d_9">
      <path clip-path="url(#p4e89cc77cd)" d="M 0 293.76 
L 460.8 293.76 
" style="fill:none;stroke:#b0b0b0;stroke-linecap:square;stroke-width:0.8;"/>
     </g>
     <g id="line2d_10">
      <defs>
       <path d="M 0 0 
L -3.5 0 
" id="m3f90561836" style="stroke:#000000;stroke-width:0.8;"/>
      </defs>
      <g>
       <use style="stroke:#000000;stroke-width:0.8;" x="0" xlink:href="#m3f90561836" y="293.76"/>
      </g>
     </g>
    </g>
    <g id="ytick_2">
     <g id="line2d_11">
      <path clip-path="url(#p4e89cc77cd)" d="M 0 236.274059 
L 460.8 236.274059 
" style="fill:none;stroke:#b0b0b0;stroke-linecap:square;stroke-width:0.8;"/>
     </g>
     <g id="line2d_12">
      <g>
       <use style="stroke:#000000;stroke-width:0.8;" x="0" xlink:href="#m3f90561836" y="236.274059"/>
      </g>
     </g>
    </g>
    <g id="ytick_3">
     <g id="line2d_13">
      <path clip-path="url(#p4e89cc77cd)" d="M 0 178.788119 
L 460.8 178.788119 
" style="fill:none;stroke:#b0b0b0;stroke-linecap:square;stroke-width:0.8;"/>
     </g>
     <g id="line2d_14">
      <g>
       <use style="stroke:#000000;stroke-width:0.8;" x="0" xlink:href="#m3f90561836" y="178.788119"/>
      </g>
     </g>
    </g>
    <g id="ytick_4">
     <g id="line2d_15">
      <path clip-path="url(#p4e89cc77cd)" d="M 0 121.302178 
L 460.8 121.302178 
" style="fill:none;stroke:#b0b0b0;stroke-linecap:square;stroke-width:0.8;"/>
     </g>
     <g id="line2d_16">
      <g>
       <use style="stroke:#000000;stroke-width:0.8;" x="0" xlink:href="#m3f90561836" y="121.302178"/>
      </g>
     </g>
    </g>
    <g id="ytick_5">
     <g id="line2d_17">
      <path clip-path="url(#p4e89cc77cd)" d="M 0 63.816238 
L 460.8 63.816238 
" style="fill:none;stroke:#b0b0b0;stroke-linecap:square;stroke-width:0.8;"/>
     </g>
     <g id="line2d_18">
      <g>
       <use style="stroke:#000000;stroke-width:0.8;" x="0" xlink:href="#m3f90561836" y="63.816238"/>
      </g>
     </g>
    </g>
    <g id="ytick_6">
     <g id="line2d_19">
      <path clip-path="url(#p4e89cc77cd)" d="M 0 6.330297 
L 460.8 6.330297 
" style="fill:none;stroke:#b0b0b0;stroke-linecap:square;stroke-width:0.8;"/>
     </g>
     <g id="line2d_20">
      <g>
       <use style="stroke:#000000;stroke-width:0.8;" x="0" xlink:href="#m3f90561836" y="6.330297"/>
      </g>
     </g>
    </g>
   </g>
   <g id="line2d_21">
    <path clip-path="url(#p4e89cc77cd)" d="M -1 150.045149 
L -0.113294 150.045149 
L -0.113294 145.254653 
L -0.113294 145.254653 
L -0.113294 140.464158 
L -0.113294 140.464158 
L -0.113294 135.673663 
L -0.113294 135.673663 
L -0.113294 130.883168 
L -0.113294 130.883168 
L -0.113294 126.092673 
L -0.113294 126.092673 
L -0.113294 121.302178 
L -0.113294 121.302178 
L -0.113294 116.511683 
L -0.113294 116.511683 
L -0.113294 111.721188 
L -0.113294 111.721188 
L -0.113294 106.930693 
L -0.113294 106.930693 
L -0.113294 102.140198 
L -0.113294 102.140198 
L -0.113294 97.349703 
L -0.113294 97.349703 
L -0.113294 92.559208 
L -0.113294 92.559208 
L -0.113294 87.768713 
L -0.113294 87.768713 
L -0.113294 82.978218 
L -0.113294 82.978218 
L -0.113294 78.187723 
L -0.113294 78.187723 
L -0.113294 73.397228 
L -0.113294 73.397228 
L -0.113294 68.606733 
L -0.113294 68.606733 
L -0.113294 63.816238 
L -0.113294 63.816238 
L -0.113294 59.025743 
L -0.113294 59.025743 
L -0.113294 54.235248 
L -0.113294 54.235248 
L -0.113294 49.444752 
L -0.113294 49.444752 
L -0.113294 44.654257 
L -0.113294 44.654257 
L -0.113294 39.863762 
L -0.113294 39.863762 
L -0.113294 35.073267 
L -0.113294 35.073267 
L -0.113294 30.282772 
L -0.113294 30.282772 
L -0.113294 25.492277 
L -0.113294 25.492277 
L -0.113294 20.701782 
L -0.113294 20.701782 
L -0.113294 15.911287 
L -0.113294 15.911287 
L -0.113294 11.120792 
L -0.113294 11.120792 
L -0.113294 6.330297 
L -0.113294 6.330297 
L -0.113294 6.330297 
L 460.8 6.330297 
" style="fill:none;stroke:#ff0000;stroke-linecap:square;stroke-width:3;"/>
   </g>
   <g id="line2d_22">
    <path clip-path="url(#p4e89cc77cd)" d="M 248.785421 293.76 
L 248.785421 288.969505 
L 256.487983 288.969505 
L 256.487983 284.17901 
L 258.001344 284.17901 
L 258.001344 279.388515 
L 261.087975 279.388515 
L 261.087975 274.59802 
L 263.434523 274.59802 
L 263.434523 269.807525 
L 269.156326 269.807525 
L 269.156326 265.01703 
L 270.287379 265.01703 
L 270.287379 260.226535 
L 270.570191 260.226535 
L 270.570191 255.43604 
L 271.774608 255.43604 
L 271.774608 250.645545 
L 276.002612 250.645545 
L 276.002612 245.85505 
L 276.051724 245.85505 
L 276.051724 241.064554 
L 276.730232 241.064554 
L 276.730232 236.274059 
L 279.561573 236.274059 
L 279.561573 231.483564 
L 280.126018 231.483564 
L 280.126018 226.693069 
L 281.17541 226.693069 
L 281.17541 221.902574 
L 281.903935 221.902574 
L 281.903935 217.112079 
L 282.020951 217.112079 
L 282.020951 212.321584 
L 282.262483 212.321584 
L 282.262483 207.531089 
L 284.639079 207.531089 
L 284.639079 202.740594 
L 286.760058 202.740594 
L 286.760058 197.950099 
L 290.269006 197.950099 
L 290.269006 193.159604 
L 291.067979 193.159604 
L 291.067979 188.369109 
L 296.630776 188.369109 
L 296.630776 183.578614 
L 296.808579 183.578614 
L 296.808579 178.788119 
L 298.940568 178.788119 
L 298.940568 173.997624 
L 302.346414 173.997624 
L 302.346414 169.207129 
L 303.839309 169.207129 
L 303.839309 164.416634 
L 305.567672 164.416634 
L 305.567672 159.626139 
L 306.464677 159.626139 
L 306.464677 154.835644 
L 306.636979 154.835644 
L 306.636979 150.045149 
L 310.212956 150.045149 
L 310.212956 145.254653 
L 311.131115 145.254653 
L 311.131115 140.464158 
L 311.402918 140.464158 
L 311.402918 135.673663 
L 311.720006 135.673663 
L 311.720006 130.883168 
L 312.646689 130.883168 
L 312.646689 126.092673 
L 312.816323 126.092673 
L 312.816323 121.302178 
L 314.087936 121.302178 
L 314.087936 116.511683 
L 314.276676 116.511683 
L 314.276676 111.721188 
L 315.610189 111.721188 
L 315.610189 106.930693 
L 317.789331 106.930693 
L 317.789331 102.140198 
L 319.221642 102.140198 
L 319.221642 97.349703 
L 322.164401 97.349703 
L 322.164401 92.559208 
L 325.074791 92.559208 
L 325.074791 87.768713 
L 326.357229 87.768713 
L 326.357229 82.978218 
L 327.97282 82.978218 
L 327.97282 78.187723 
L 328.274738 78.187723 
L 328.274738 73.397228 
L 332.057304 73.397228 
L 332.057304 68.606733 
L 333.331008 68.606733 
L 333.331008 63.816238 
L 335.812897 63.816238 
L 335.812897 59.025743 
L 338.563509 59.025743 
L 338.563509 54.235248 
L 343.056713 54.235248 
L 343.056713 49.444752 
L 344.047172 49.444752 
L 344.047172 44.654257 
L 344.44604 44.654257 
L 344.44604 39.863762 
L 351.348527 39.863762 
L 351.348527 35.073267 
L 352.347695 35.073267 
L 352.347695 30.282772 
L 353.592781 30.282772 
L 353.592781 25.492277 
L 353.863711 25.492277 
L 353.863711 20.701782 
L 354.90031 20.701782 
L 354.90031 15.911287 
L 360.574781 15.911287 
L 360.574781 11.120792 
L 365.553452 11.120792 
L 365.553452 6.330297 
L 365.553452 6.330297 
L 365.553452 6.330297 
L 460.8 6.330297 
" style="fill:none;stroke:#00bfbf;stroke-linecap:square;stroke-width:1.5;"/>
   </g>
   <g id="line2d_23">
    <path clip-path="url(#p4e89cc77cd)" d="M 248.785421 293.76 
L 248.785421 288.969505 
L 250.682291 288.969505 
L 250.682291 284.17901 
L 255.074896 284.17901 
L 255.074896 279.388515 
L 256.824399 279.388515 
L 256.824399 274.59802 
L 257.967692 274.59802 
L 257.967692 269.807525 
L 258.831206 269.807525 
L 258.831206 265.01703 
L 259.970013 265.01703 
L 259.970013 260.226535 
L 260.866841 260.226535 
L 260.866841 255.43604 
L 263.539995 255.43604 
L 263.539995 250.645545 
L 266.620592 250.645545 
L 266.620592 245.85505 
L 266.875707 245.85505 
L 266.875707 241.064554 
L 272.05877 241.064554 
L 272.05877 236.274059 
L 273.165901 236.274059 
L 273.165901 231.483564 
L 273.973333 231.483564 
L 273.973333 226.693069 
L 276.002612 226.693069 
L 276.002612 221.902574 
L 276.051724 221.902574 
L 276.051724 217.112079 
L 276.525597 217.112079 
L 276.525597 212.321584 
L 277.492017 212.321584 
L 277.492017 207.531089 
L 278.048791 207.531089 
L 278.048791 202.740594 
L 279.083835 202.740594 
L 279.083835 197.950099 
L 279.561573 197.950099 
L 279.561573 193.159604 
L 281.17541 193.159604 
L 281.17541 188.369109 
L 281.432579 188.369109 
L 281.432579 183.578614 
L 282.020951 183.578614 
L 282.020951 178.788119 
L 286.609279 178.788119 
L 286.609279 173.997624 
L 290.269006 173.997624 
L 290.269006 169.207129 
L 291.067979 169.207129 
L 291.067979 164.416634 
L 293.483411 164.416634 
L 293.483411 159.626139 
L 294.418603 159.626139 
L 294.418603 154.835644 
L 296.630776 154.835644 
L 296.630776 150.045149 
L 296.638385 150.045149 
L 296.638385 145.254653 
L 296.808579 145.254653 
L 296.808579 140.464158 
L 297.553665 140.464158 
L 297.553665 135.673663 
L 299.884748 135.673663 
L 299.884748 130.883168 
L 300.600369 130.883168 
L 300.600369 126.092673 
L 301.506719 126.092673 
L 301.506719 121.302178 
L 301.942165 121.302178 
L 301.942165 116.511683 
L 302.694436 116.511683 
L 302.694436 111.721188 
L 305.551277 111.721188 
L 305.551277 106.930693 
L 306.464677 106.930693 
L 306.464677 102.140198 
L 306.636979 102.140198 
L 306.636979 97.349703 
L 308.423819 97.349703 
L 308.423819 92.559208 
L 308.932478 92.559208 
L 308.932478 87.768713 
L 310.304051 87.768713 
L 310.304051 82.978218 
L 312.256978 82.978218 
L 312.256978 78.187723 
L 312.816323 78.187723 
L 312.816323 73.397228 
L 315.610189 73.397228 
L 315.610189 68.606733 
L 316.10832 68.606733 
L 316.10832 63.816238 
L 319.221642 63.816238 
L 319.221642 59.025743 
L 327.97282 59.025743 
L 327.97282 54.235248 
L 335.56539 54.235248 
L 335.56539 49.444752 
L 339.584907 49.444752 
L 339.584907 44.654257 
L 342.558594 44.654257 
L 342.558594 39.863762 
L 343.056713 39.863762 
L 343.056713 35.073267 
L 343.611942 35.073267 
L 343.611942 30.282772 
L 346.640083 30.282772 
L 346.640083 25.492277 
L 352.347695 25.492277 
L 352.347695 20.701782 
L 353.718777 20.701782 
L 353.718777 15.911287 
L 354.440761 15.911287 
L 354.440761 11.120792 
L 361.34768 11.120792 
L 361.34768 6.330297 
L 361.34768 6.330297 
L 361.34768 6.330297 
L 460.8 6.330297 
" style="fill:none;stroke:#bf00bf;stroke-linecap:square;stroke-width:1.5;"/>
   </g>
   <g id="line2d_24">
    <path clip-path="url(#p4e89cc77cd)" d="M 238.741533 293.76 
L 238.741533 288.969505 
L 239.159471 288.969505 
L 239.159471 284.17901 
L 246.236176 284.17901 
L 246.236176 279.388515 
L 248.785421 279.388515 
L 248.785421 274.59802 
L 250.363144 274.59802 
L 250.363144 269.807525 
L 250.682291 269.807525 
L 250.682291 265.01703 
L 251.311031 265.01703 
L 251.311031 260.226535 
L 252.408205 260.226535 
L 252.408205 255.43604 
L 253.078052 255.43604 
L 253.078052 250.645545 
L 256.154403 250.645545 
L 256.154403 245.85505 
L 256.780623 245.85505 
L 256.780623 241.064554 
L 260.656895 241.064554 
L 260.656895 236.274059 
L 263.394175 236.274059 
L 263.394175 231.483564 
L 263.465364 231.483564 
L 263.465364 226.693069 
L 263.539995 226.693069 
L 263.539995 221.902574 
L 263.660958 221.902574 
L 263.660958 217.112079 
L 263.984034 217.112079 
L 263.984034 212.321584 
L 265.221422 212.321584 
L 265.221422 207.531089 
L 266.609047 207.531089 
L 266.609047 202.740594 
L 266.875707 202.740594 
L 266.875707 197.950099 
L 268.630857 197.950099 
L 268.630857 193.159604 
L 270.895405 193.159604 
L 270.895405 188.369109 
L 271.255898 188.369109 
L 271.255898 183.578614 
L 273.865844 183.578614 
L 273.865844 178.788119 
L 276.525597 178.788119 
L 276.525597 173.997624 
L 277.45712 173.997624 
L 277.45712 169.207129 
L 278.350279 169.207129 
L 278.350279 164.416634 
L 279.561573 164.416634 
L 279.561573 159.626139 
L 280.215067 159.626139 
L 280.215067 154.835644 
L 282.586118 154.835644 
L 282.586118 150.045149 
L 282.673651 150.045149 
L 282.673651 145.254653 
L 283.562999 145.254653 
L 283.562999 140.464158 
L 284.672124 140.464158 
L 284.672124 135.673663 
L 287.603057 135.673663 
L 287.603057 130.883168 
L 288.510353 130.883168 
L 288.510353 126.092673 
L 289.140127 126.092673 
L 289.140127 121.302178 
L 291.067979 121.302178 
L 291.067979 116.511683 
L 291.223725 116.511683 
L 291.223725 111.721188 
L 292.492296 111.721188 
L 292.492296 106.930693 
L 294.26993 106.930693 
L 294.26993 102.140198 
L 294.418603 102.140198 
L 294.418603 97.349703 
L 296.638385 97.349703 
L 296.638385 92.559208 
L 297.57438 92.559208 
L 297.57438 87.768713 
L 298.635494 87.768713 
L 298.635494 82.978218 
L 299.884748 82.978218 
L 299.884748 78.187723 
L 301.942165 78.187723 
L 301.942165 73.397228 
L 302.10266 73.397228 
L 302.10266 68.606733 
L 306.636979 68.606733 
L 306.636979 63.816238 
L 308.423819 63.816238 
L 308.423819 59.025743 
L 310.304051 59.025743 
L 310.304051 54.235248 
L 316.10832 54.235248 
L 316.10832 49.444752 
L 334.014756 49.444752 
L 334.014756 44.654257 
L 334.60453 44.654257 
L 334.60453 39.863762 
L 335.238828 39.863762 
L 335.238828 35.073267 
L 335.458377 35.073267 
L 335.458377 30.282772 
L 339.584907 30.282772 
L 339.584907 25.492277 
L 341.988693 25.492277 
L 341.988693 20.701782 
L 342.558594 20.701782 
L 342.558594 15.911287 
L 352.268634 15.911287 
L 352.268634 11.120792 
L 356.34867 11.120792 
L 356.34867 6.330297 
L 356.34867 6.330297 
L 356.34867 6.330297 
L 460.8 6.330297 
" style="fill:none;stroke:#000000;stroke-linecap:square;stroke-width:1.5;"/>
   </g>
   <g id="line2d_25">
    <path clip-path="url(#p4e89cc77cd)" d="M 229.838595 293.76 
L 229.838595 288.969505 
L 235.528187 288.969505 
L 235.528187 284.17901 
L 239.159471 284.17901 
L 239.159471 279.388515 
L 239.368403 279.388515 
L 239.368403 274.59802 
L 239.383597 274.59802 
L 239.383597 269.807525 
L 239.405043 269.807525 
L 239.405043 265.01703 
L 240.719946 265.01703 
L 240.719946 260.226535 
L 247.396743 260.226535 
L 247.396743 255.43604 
L 251.311031 255.43604 
L 251.311031 250.645545 
L 252.408205 250.645545 
L 252.408205 245.85505 
L 254.125073 245.85505 
L 254.125073 241.064554 
L 254.55433 241.064554 
L 254.55433 236.274059 
L 255.057539 236.274059 
L 255.057539 231.483564 
L 257.820139 231.483564 
L 257.820139 226.693069 
L 258.172125 226.693069 
L 258.172125 221.902574 
L 260.508174 221.902574 
L 260.508174 217.112079 
L 261.318943 217.112079 
L 261.318943 212.321584 
L 263.465364 212.321584 
L 263.465364 207.531089 
L 263.603691 207.531089 
L 263.603691 202.740594 
L 263.984034 202.740594 
L 263.984034 197.950099 
L 264.636424 197.950099 
L 264.636424 193.159604 
L 265.221422 193.159604 
L 265.221422 188.369109 
L 265.802323 188.369109 
L 265.802323 183.578614 
L 266.609047 183.578614 
L 266.609047 178.788119 
L 267.11976 178.788119 
L 267.11976 173.997624 
L 268.630857 173.997624 
L 268.630857 169.207129 
L 268.764678 169.207129 
L 268.764678 164.416634 
L 270.895405 164.416634 
L 270.895405 159.626139 
L 271.255898 159.626139 
L 271.255898 154.835644 
L 273.111398 154.835644 
L 273.111398 150.045149 
L 273.865844 150.045149 
L 273.865844 145.254653 
L 274.563028 145.254653 
L 274.563028 140.464158 
L 276.525597 140.464158 
L 276.525597 135.673663 
L 277.327673 135.673663 
L 277.327673 130.883168 
L 278.842607 130.883168 
L 278.842607 126.092673 
L 279.229461 126.092673 
L 279.229461 121.302178 
L 282.508572 121.302178 
L 282.508572 116.511683 
L 282.673651 116.511683 
L 282.673651 111.721188 
L 283.291628 111.721188 
L 283.291628 106.930693 
L 283.483808 106.930693 
L 283.483808 102.140198 
L 283.562999 102.140198 
L 283.562999 97.349703 
L 284.481571 97.349703 
L 284.481571 92.559208 
L 286.106621 92.559208 
L 286.106621 87.768713 
L 286.308861 87.768713 
L 286.308861 82.978218 
L 286.486813 82.978218 
L 286.486813 78.187723 
L 287.603057 78.187723 
L 287.603057 73.397228 
L 289.140127 73.397228 
L 289.140127 68.606733 
L 294.418603 68.606733 
L 294.418603 63.816238 
L 298.635494 63.816238 
L 298.635494 59.025743 
L 306.636979 59.025743 
L 306.636979 54.235248 
L 308.793708 54.235248 
L 308.793708 49.444752 
L 315.684522 49.444752 
L 315.684522 44.654257 
L 329.203438 44.654257 
L 329.203438 39.863762 
L 329.810677 39.863762 
L 329.810677 35.073267 
L 334.014756 35.073267 
L 334.014756 30.282772 
L 335.458377 30.282772 
L 335.458377 25.492277 
L 340.154379 25.492277 
L 340.154379 20.701782 
L 341.212913 20.701782 
L 341.212913 15.911287 
L 341.988693 15.911287 
L 341.988693 11.120792 
L 348.783642 11.120792 
L 348.783642 6.330297 
L 348.783642 6.330297 
L 348.783642 6.330297 
L 460.8 6.330297 
" style="fill:none;stroke:#00bfbf;stroke-linecap:square;stroke-width:1.5;"/>
   </g>
   <g id="line2d_26">
    <path clip-path="url(#p4e89cc77cd)" d="M 203.423057 293.76 
L 203.423057 288.969505 
L 206.038863 288.969505 
L 206.038863 284.17901 
L 207.961599 284.17901 
L 207.961599 279.388515 
L 212.922621 279.388515 
L 212.922621 274.59802 
L 215.736089 274.59802 
L 215.736089 269.807525 
L 215.930954 269.807525 
L 215.930954 265.01703 
L 216.485552 265.01703 
L 216.485552 260.226535 
L 220.930156 260.226535 
L 220.930156 255.43604 
L 222.720717 255.43604 
L 222.720717 250.645545 
L 225.157332 250.645545 
L 225.157332 245.85505 
L 226.842914 245.85505 
L 226.842914 241.064554 
L 227.042466 241.064554 
L 227.042466 236.274059 
L 228.450695 236.274059 
L 228.450695 231.483564 
L 228.572155 231.483564 
L 228.572155 226.693069 
L 228.854221 226.693069 
L 228.854221 221.902574 
L 230.524019 221.902574 
L 230.524019 217.112079 
L 233.508077 217.112079 
L 233.508077 212.321584 
L 233.963684 212.321584 
L 233.963684 207.531089 
L 234.370193 207.531089 
L 234.370193 202.740594 
L 234.413868 202.740594 
L 234.413868 197.950099 
L 234.554731 197.950099 
L 234.554731 193.159604 
L 235.473829 193.159604 
L 235.473829 188.369109 
L 236.024777 188.369109 
L 236.024777 183.578614 
L 236.518267 183.578614 
L 236.518267 178.788119 
L 237.117949 178.788119 
L 237.117949 173.997624 
L 237.502481 173.997624 
L 237.502481 169.207129 
L 238.22052 169.207129 
L 238.22052 164.416634 
L 238.394253 164.416634 
L 238.394253 159.626139 
L 238.474108 159.626139 
L 238.474108 154.835644 
L 238.825102 154.835644 
L 238.825102 150.045149 
L 239.186342 150.045149 
L 239.186342 145.254653 
L 239.277197 145.254653 
L 239.277197 140.464158 
L 239.574904 140.464158 
L 239.574904 135.673663 
L 239.778398 135.673663 
L 239.778398 130.883168 
L 240.652988 130.883168 
L 240.652988 126.092673 
L 241.387169 126.092673 
L 241.387169 121.302178 
L 242.734611 121.302178 
L 242.734611 116.511683 
L 242.79155 116.511683 
L 242.79155 111.721188 
L 243.071116 111.721188 
L 243.071116 106.930693 
L 244.31635 106.930693 
L 244.31635 102.140198 
L 244.621333 102.140198 
L 244.621333 97.349703 
L 245.394092 97.349703 
L 245.394092 92.559208 
L 245.599969 92.559208 
L 245.599969 87.768713 
L 247.799674 87.768713 
L 247.799674 82.978218 
L 249.627653 82.978218 
L 249.627653 78.187723 
L 252.134881 78.187723 
L 252.134881 73.397228 
L 252.892594 73.397228 
L 252.892594 68.606733 
L 252.942811 68.606733 
L 252.942811 63.816238 
L 253.402726 63.816238 
L 253.402726 59.025743 
L 253.877015 59.025743 
L 253.877015 54.235248 
L 256.007547 54.235248 
L 256.007547 49.444752 
L 256.420486 49.444752 
L 256.420486 44.654257 
L 257.947619 44.654257 
L 257.947619 39.863762 
L 258.797921 39.863762 
L 258.797921 35.073267 
L 259.876702 35.073267 
L 259.876702 30.282772 
L 261.153842 30.282772 
L 261.153842 25.492277 
L 267.201342 25.492277 
L 267.201342 20.701782 
L 268.035945 20.701782 
L 268.035945 15.911287 
L 281.676833 15.911287 
L 281.676833 11.120792 
L 296.856048 11.120792 
L 296.856048 6.330297 
L 296.856048 6.330297 
L 296.856048 6.330297 
L 460.8 6.330297 
" style="fill:none;stroke:#bf00bf;stroke-linecap:square;stroke-width:1.5;"/>
   </g>
   <g id="line2d_27">
    <path clip-path="url(#p4e89cc77cd)" d="M -1 221.902574 
L 92.891191 221.902574 
L 92.891191 217.112079 
L 94.971841 217.112079 
L 94.971841 212.321584 
L 97.641922 212.321584 
L 97.641922 207.531089 
L 97.641969 207.531089 
L 97.641969 202.740594 
L 97.954459 202.740594 
L 97.954459 197.950099 
L 98.776548 197.950099 
L 98.776548 193.159604 
L 101.974659 193.159604 
L 101.974659 188.369109 
L 102.018493 188.369109 
L 102.018493 183.578614 
L 103.292547 183.578614 
L 103.292547 178.788119 
L 103.524671 178.788119 
L 103.524671 173.997624 
L 103.533206 173.997624 
L 103.533206 169.207129 
L 103.624291 169.207129 
L 103.624291 164.416634 
L 104.363173 164.416634 
L 104.363173 159.626139 
L 106.67063 159.626139 
L 106.67063 154.835644 
L 107.108237 154.835644 
L 107.108237 150.045149 
L 107.579568 150.045149 
L 107.579568 145.254653 
L 110.521401 145.254653 
L 110.521401 140.464158 
L 114.039898 140.464158 
L 114.039898 135.673663 
L 117.26473 135.673663 
L 117.26473 130.883168 
L 117.314415 130.883168 
L 117.314415 126.092673 
L 123.020968 126.092673 
L 123.020968 121.302178 
L 127.486565 121.302178 
L 127.486565 116.511683 
L 129.089701 116.511683 
L 129.089701 111.721188 
L 131.384467 111.721188 
L 131.384467 106.930693 
L 134.616057 106.930693 
L 134.616057 102.140198 
L 137.383026 102.140198 
L 137.383026 97.349703 
L 141.645533 97.349703 
L 141.645533 92.559208 
L 146.912178 92.559208 
L 146.912178 87.768713 
L 149.241311 87.768713 
L 149.241311 82.978218 
L 152.582015 82.978218 
L 152.582015 78.187723 
L 153.480833 78.187723 
L 153.480833 73.397228 
L 153.811792 73.397228 
L 153.811792 68.606733 
L 154.639865 68.606733 
L 154.639865 63.816238 
L 157.128276 63.816238 
L 157.128276 59.025743 
L 161.475864 59.025743 
L 161.475864 54.235248 
L 161.8653 54.235248 
L 161.8653 49.444752 
L 162.268233 49.444752 
L 162.268233 44.654257 
L 163.783565 44.654257 
L 163.783565 39.863762 
L 165.335335 39.863762 
L 165.335335 35.073267 
L 166.638167 35.073267 
L 166.638167 30.282772 
L 170.416001 30.282772 
L 170.416001 25.492277 
L 170.918558 25.492277 
L 170.918558 20.701782 
L 177.505907 20.701782 
L 177.505907 15.911287 
L 182.943523 15.911287 
L 182.943523 11.120792 
L 188.932363 11.120792 
L 188.932363 6.330297 
L 188.932363 6.330297 
L 188.932363 6.330297 
L 460.8 6.330297 
" style="fill:none;stroke:#000000;stroke-linecap:square;stroke-width:1.5;"/>
   </g>
   <g id="patch_3">
    <path d="M 0 293.76 
L 0 3.456 
" style="fill:none;stroke:#000000;stroke-linecap:square;stroke-linejoin:miter;stroke-width:0.8;"/>
   </g>
   <g id="patch_4">
    <path d="M 460.8 293.76 
L 460.8 3.456 
" style="fill:none;stroke:#000000;stroke-linecap:square;stroke-linejoin:miter;stroke-width:0.8;"/>
   </g>
   <g id="patch_5">
    <path d="M 0 293.76 
L 460.8 293.76 
" style="fill:none;stroke:#000000;stroke-linecap:square;stroke-linejoin:miter;stroke-width:0.8;"/>
   </g>
   <g id="patch_6">
    <path d="M 0 3.456 
L 460.8 3.456 
" style="fill:none;stroke:#000000;stroke-linecap:square;stroke-linejoin:miter;stroke-width:0.8;"/>
   </g>
   <g id="text_6">
    <!-- {f6-f9}, 5-D -->
    <g transform="translate(331.334 287.95392)scale(0.2 -0.2)">
     <defs>
      <path d="M 3272 -594 
L 3272 -1044 
L 3078 -1044 
Q 2300 -1044 2036 -812 
Q 1772 -581 1772 109 
L 1772 856 
Q 1772 1328 1603 1509 
Q 1434 1691 991 1691 
L 800 1691 
L 800 2138 
L 991 2138 
Q 1438 2138 1605 2317 
Q 1772 2497 1772 2963 
L 1772 3713 
Q 1772 4403 2036 4633 
Q 2300 4863 3078 4863 
L 3272 4863 
L 3272 4416 
L 3059 4416 
Q 2619 4416 2484 4278 
Q 2350 4141 2350 3700 
L 2350 2925 
Q 2350 2434 2208 2212 
Q 2066 1991 1722 1913 
Q 2069 1828 2209 1606 
Q 2350 1384 2350 897 
L 2350 122 
Q 2350 -319 2484 -456 
Q 2619 -594 3059 -594 
L 3272 -594 
z
" id="DejaVuSans-7b" transform="scale(0.015625)"/>
      <path d="M 2113 2584 
Q 1688 2584 1439 2293 
Q 1191 2003 1191 1497 
Q 1191 994 1439 701 
Q 1688 409 2113 409 
Q 2538 409 2786 701 
Q 3034 994 3034 1497 
Q 3034 2003 2786 2293 
Q 2538 2584 2113 2584 
z
M 3366 4563 
L 3366 3988 
Q 3128 4100 2886 4159 
Q 2644 4219 2406 4219 
Q 1781 4219 1451 3797 
Q 1122 3375 1075 2522 
Q 1259 2794 1537 2939 
Q 1816 3084 2150 3084 
Q 2853 3084 3261 2657 
Q 3669 2231 3669 1497 
Q 3669 778 3244 343 
Q 2819 -91 2113 -91 
Q 1303 -91 875 529 
Q 447 1150 447 2328 
Q 447 3434 972 4092 
Q 1497 4750 2381 4750 
Q 2619 4750 2861 4703 
Q 3103 4656 3366 4563 
z
" id="DejaVuSans-36" transform="scale(0.015625)"/>
      <path d="M 703 97 
L 703 672 
Q 941 559 1184 500 
Q 1428 441 1663 441 
Q 2288 441 2617 861 
Q 2947 1281 2994 2138 
Q 2813 1869 2534 1725 
Q 2256 1581 1919 1581 
Q 1219 1581 811 2004 
Q 403 2428 403 3163 
Q 403 3881 828 4315 
Q 1253 4750 1959 4750 
Q 2769 4750 3195 4129 
Q 3622 3509 3622 2328 
Q 3622 1225 3098 567 
Q 2575 -91 1691 -91 
Q 1453 -91 1209 -44 
Q 966 3 703 97 
z
M 1959 2075 
Q 2384 2075 2632 2365 
Q 2881 2656 2881 3163 
Q 2881 3666 2632 3958 
Q 2384 4250 1959 4250 
Q 1534 4250 1286 3958 
Q 1038 3666 1038 3163 
Q 1038 2656 1286 2365 
Q 1534 2075 1959 2075 
z
" id="DejaVuSans-39" transform="scale(0.015625)"/>
      <path d="M 800 -594 
L 1019 -594 
Q 1456 -594 1589 -459 
Q 1722 -325 1722 122 
L 1722 897 
Q 1722 1384 1862 1606 
Q 2003 1828 2350 1913 
Q 2003 1991 1862 2212 
Q 1722 2434 1722 2925 
L 1722 3700 
Q 1722 4144 1589 4280 
Q 1456 4416 1019 4416 
L 800 4416 
L 800 4863 
L 997 4863 
Q 1775 4863 2036 4633 
Q 2297 4403 2297 3713 
L 2297 2963 
Q 2297 2497 2465 2317 
Q 2634 2138 3078 2138 
L 3272 2138 
L 3272 1691 
L 3078 1691 
Q 2634 1691 2465 1509 
Q 2297 1328 2297 856 
L 2297 109 
Q 2297 -581 2036 -812 
Q 1775 -1044 997 -1044 
L 800 -1044 
L 800 -594 
z
" id="DejaVuSans-7d" transform="scale(0.015625)"/>
      <path d="M 750 794 
L 1409 794 
L 1409 256 
L 897 -744 
L 494 -744 
L 750 256 
L 750 794 
z
" id="DejaVuSans-2c" transform="scale(0.015625)"/>
      <path d="M 691 4666 
L 3169 4666 
L 3169 4134 
L 1269 4134 
L 1269 2991 
Q 1406 3038 1543 3061 
Q 1681 3084 1819 3084 
Q 2600 3084 3056 2656 
Q 3513 2228 3513 1497 
Q 3513 744 3044 326 
Q 2575 -91 1722 -91 
Q 1428 -91 1123 -41 
Q 819 9 494 109 
L 494 744 
Q 775 591 1075 516 
Q 1375 441 1709 441 
Q 2250 441 2565 725 
Q 2881 1009 2881 1497 
Q 2881 1984 2565 2268 
Q 2250 2553 1709 2553 
Q 1456 2553 1204 2497 
Q 953 2441 691 2322 
L 691 4666 
z
" id="DejaVuSans-35" transform="scale(0.015625)"/>
     </defs>
     <use xlink:href="#DejaVuSans-7b"/>
     <use x="63.623047" xlink:href="#DejaVuSans-66"/>
     <use x="98.828125" xlink:href="#DejaVuSans-36"/>
     <use x="162.451172" xlink:href="#DejaVuSans-2d"/>
     <use x="198.535156" xlink:href="#DejaVuSans-66"/>
     <use x="233.740234" xlink:href="#DejaVuSans-39"/>
     <use x="297.363281" xlink:href="#DejaVuSans-7d"/>
     <use x="360.986328" xlink:href="#DejaVuSans-2c"/>
     <use x="392.773438" xlink:href="#DejaVuSans-20"/>
     <use x="424.560547" xlink:href="#DejaVuSans-35"/>
     <use x="488.183594" xlink:href="#DejaVuSans-2d"/>
     <use x="524.267578" xlink:href="#DejaVuSans-44"/>
    </g>
   </g>
   <g id="text_7">
    <!-- v2.4 -->
    <g style="fill:#808080;" transform="translate(219.489063 288.777272)scale(0.1 -0.1)">
     <defs>
      <path d="M 191 3500 
L 800 3500 
L 1894 563 
L 2988 3500 
L 3597 3500 
L 2284 0 
L 1503 0 
L 191 3500 
z
" id="DejaVuSans-76" transform="scale(0.015625)"/>
      <path d="M 1228 531 
L 3431 531 
L 3431 0 
L 469 0 
L 469 531 
Q 828 903 1448 1529 
Q 2069 2156 2228 2338 
Q 2531 2678 2651 2914 
Q 2772 3150 2772 3378 
Q 2772 3750 2511 3984 
Q 2250 4219 1831 4219 
Q 1534 4219 1204 4116 
Q 875 4013 500 3803 
L 500 4441 
Q 881 4594 1212 4672 
Q 1544 4750 1819 4750 
Q 2544 4750 2975 4387 
Q 3406 4025 3406 3419 
Q 3406 3131 3298 2873 
Q 3191 2616 2906 2266 
Q 2828 2175 2409 1742 
Q 1991 1309 1228 531 
z
" id="DejaVuSans-32" transform="scale(0.015625)"/>
      <path d="M 684 794 
L 1344 794 
L 1344 0 
L 684 0 
L 684 794 
z
" id="DejaVuSans-2e" transform="scale(0.015625)"/>
     </defs>
     <use xlink:href="#DejaVuSans-76"/>
     <use x="59.179688" xlink:href="#DejaVuSans-32"/>
     <use x="122.802734" xlink:href="#DejaVuSans-2e"/>
     <use x="154.589844" xlink:href="#DejaVuSans-34"/>
    </g>
   </g>
  </g>
 </g>
 <defs>
  <clipPath id="p4e89cc77cd">
   <rect height="290.304" width="460.8" x="0" y="3.456"/>
  </clipPath>
 </defs>
</svg>
