<?xml version="1.0" encoding="utf-8" standalone="no"?>
<!DOCTYPE svg PUBLIC "-//W3C//DTD SVG 1.1//EN"
  "http://www.w3.org/Graphics/SVG/1.1/DTD/svg11.dtd">
<svg height="345.6pt" version="1.1" viewBox="0 0 460.8 345.6" width="460.8pt" xmlns="http://www.w3.org/2000/svg" xmlns:xlink="http://www.w3.org/1999/xlink">
 <metadata>
  <rdf:RDF xmlns:cc="http://creativecommons.org/ns#" xmlns:dc="http://purl.org/dc/elements/1.1/" xmlns:rdf="http://www.w3.org/1999/02/22-rdf-syntax-ns#">
   <cc:Work>
    <dc:type rdf:resource="http://purl.org/dc/dcmitype/StillImage"/>
    <dc:date>2021-07-27T16:03:33.499291</dc:date>
    <dc:format>image/svg+xml</dc:format>
    <dc:creator>
     <cc:Agent>
      <dc:title>Matplotlib v3.4.2, https://matplotlib.org/</dc:title>
     </cc:Agent>
    </dc:creator>
   </cc:Work>
  </rdf:RDF>
 </metadata>
 <defs>
  <style type="text/css">*{stroke-linecap:butt;stroke-linejoin:round;}</style>
 </defs>
 <g id="figure_1">
  <g id="patch_1">
   <path d="M 0 345.6 
L 460.8 345.6 
L 460.8 0 
L 0 0 
z
" style="fill:#ffffff;"/>
  </g>
  <g id="axes_1">
   <g id="patch_2">
    <path d="M 0 293.76 
L 460.8 293.76 
L 460.8 3.456 
L 0 3.456 
z
" style="fill:#ffffff;"/>
   </g>
   <g id="matplotlib.axis_1">
    <g id="xtick_1">
     <g id="line2d_1">
      <path clip-path="url(#p2c797571ac)" d="M 104.754935 293.76 
L 104.754935 3.456 
" style="fill:none;stroke:#b0b0b0;stroke-linecap:square;stroke-width:0.8;"/>
     </g>
     <g id="line2d_2">
      <defs>
       <path d="M 0 0 
L 0 3.5 
" id="mc9a762a4d6" style="stroke:#000000;stroke-width:0.8;"/>
      </defs>
      <g>
       <use style="stroke:#000000;stroke-width:0.8;" x="104.754935" xlink:href="#mc9a762a4d6" y="293.76"/>
      </g>
     </g>
     <g id="text_1">
      <!-- -4 -->
      <g transform="translate(94.784622 315.956875)scale(0.2 -0.2)">
       <defs>
        <path d="M 313 2009 
L 1997 2009 
L 1997 1497 
L 313 1497 
L 313 2009 
z
" id="DejaVuSans-2d" transform="scale(0.015625)"/>
        <path d="M 2419 4116 
L 825 1625 
L 2419 1625 
L 2419 4116 
z
M 2253 4666 
L 3047 4666 
L 3047 1625 
L 3713 1625 
L 3713 1100 
L 3047 1100 
L 3047 0 
L 2419 0 
L 2419 1100 
L 313 1100 
L 313 1709 
L 2253 4666 
z
" id="DejaVuSans-34" transform="scale(0.015625)"/>
       </defs>
       <use xlink:href="#DejaVuSans-2d"/>
       <use x="36.083984" xlink:href="#DejaVuSans-34"/>
      </g>
     </g>
    </g>
    <g id="xtick_2">
     <g id="line2d_3">
      <path clip-path="url(#p2c797571ac)" d="M 209.623163 293.76 
L 209.623163 3.456 
" style="fill:none;stroke:#b0b0b0;stroke-linecap:square;stroke-width:0.8;"/>
     </g>
     <g id="line2d_4">
      <g>
       <use style="stroke:#000000;stroke-width:0.8;" x="209.623163" xlink:href="#mc9a762a4d6" y="293.76"/>
      </g>
     </g>
     <g id="text_2">
      <!-- 0 -->
      <g transform="translate(203.260663 315.956875)scale(0.2 -0.2)">
       <defs>
        <path d="M 2034 4250 
Q 1547 4250 1301 3770 
Q 1056 3291 1056 2328 
Q 1056 1369 1301 889 
Q 1547 409 2034 409 
Q 2525 409 2770 889 
Q 3016 1369 3016 2328 
Q 3016 3291 2770 3770 
Q 2525 4250 2034 4250 
z
M 2034 4750 
Q 2819 4750 3233 4129 
Q 3647 3509 3647 2328 
Q 3647 1150 3233 529 
Q 2819 -91 2034 -91 
Q 1250 -91 836 529 
Q 422 1150 422 2328 
Q 422 3509 836 4129 
Q 1250 4750 2034 4750 
z
" id="DejaVuSans-30" transform="scale(0.015625)"/>
       </defs>
       <use xlink:href="#DejaVuSans-30"/>
      </g>
     </g>
    </g>
    <g id="xtick_3">
     <g id="line2d_5">
      <path clip-path="url(#p2c797571ac)" d="M 314.491391 293.76 
L 314.491391 3.456 
" style="fill:none;stroke:#b0b0b0;stroke-linecap:square;stroke-width:0.8;"/>
     </g>
     <g id="line2d_6">
      <g>
       <use style="stroke:#000000;stroke-width:0.8;" x="314.491391" xlink:href="#mc9a762a4d6" y="293.76"/>
      </g>
     </g>
     <g id="text_3">
      <!-- 4 -->
      <g transform="translate(308.128891 315.956875)scale(0.2 -0.2)">
       <use xlink:href="#DejaVuSans-34"/>
      </g>
     </g>
    </g>
    <g id="xtick_4">
     <g id="line2d_7">
      <path clip-path="url(#p2c797571ac)" d="M 419.359619 293.76 
L 419.359619 3.456 
" style="fill:none;stroke:#b0b0b0;stroke-linecap:square;stroke-width:0.8;"/>
     </g>
     <g id="line2d_8">
      <g>
       <use style="stroke:#000000;stroke-width:0.8;" x="419.359619" xlink:href="#mc9a762a4d6" y="293.76"/>
      </g>
     </g>
     <g id="text_4">
      <!-- 8 -->
      <g transform="translate(412.997119 315.956875)scale(0.2 -0.2)">
       <defs>
        <path d="M 2034 2216 
Q 1584 2216 1326 1975 
Q 1069 1734 1069 1313 
Q 1069 891 1326 650 
Q 1584 409 2034 409 
Q 2484 409 2743 651 
Q 3003 894 3003 1313 
Q 3003 1734 2745 1975 
Q 2488 2216 2034 2216 
z
M 1403 2484 
Q 997 2584 770 2862 
Q 544 3141 544 3541 
Q 544 4100 942 4425 
Q 1341 4750 2034 4750 
Q 2731 4750 3128 4425 
Q 3525 4100 3525 3541 
Q 3525 3141 3298 2862 
Q 3072 2584 2669 2484 
Q 3125 2378 3379 2068 
Q 3634 1759 3634 1313 
Q 3634 634 3220 271 
Q 2806 -91 2034 -91 
Q 1263 -91 848 271 
Q 434 634 434 1313 
Q 434 1759 690 2068 
Q 947 2378 1403 2484 
z
M 1172 3481 
Q 1172 3119 1398 2916 
Q 1625 2713 2034 2713 
Q 2441 2713 2670 2916 
Q 2900 3119 2900 3481 
Q 2900 3844 2670 4047 
Q 2441 4250 2034 4250 
Q 1625 4250 1398 4047 
Q 1172 3844 1172 3481 
z
" id="DejaVuSans-38" transform="scale(0.015625)"/>
       </defs>
       <use xlink:href="#DejaVuSans-38"/>
      </g>
     </g>
    </g>
    <g id="text_5">
     <!-- log10 of Df -->
     <g transform="translate(175.214063 339.313125)scale(0.2 -0.2)">
      <defs>
       <path d="M 603 4863 
L 1178 4863 
L 1178 0 
L 603 0 
L 603 4863 
z
" id="DejaVuSans-6c" transform="scale(0.015625)"/>
       <path d="M 1959 3097 
Q 1497 3097 1228 2736 
Q 959 2375 959 1747 
Q 959 1119 1226 758 
Q 1494 397 1959 397 
Q 2419 397 2687 759 
Q 2956 1122 2956 1747 
Q 2956 2369 2687 2733 
Q 2419 3097 1959 3097 
z
M 1959 3584 
Q 2709 3584 3137 3096 
Q 3566 2609 3566 1747 
Q 3566 888 3137 398 
Q 2709 -91 1959 -91 
Q 1206 -91 779 398 
Q 353 888 353 1747 
Q 353 2609 779 3096 
Q 1206 3584 1959 3584 
z
" id="DejaVuSans-6f" transform="scale(0.015625)"/>
       <path d="M 2906 1791 
Q 2906 2416 2648 2759 
Q 2391 3103 1925 3103 
Q 1463 3103 1205 2759 
Q 947 2416 947 1791 
Q 947 1169 1205 825 
Q 1463 481 1925 481 
Q 2391 481 2648 825 
Q 2906 1169 2906 1791 
z
M 3481 434 
Q 3481 -459 3084 -895 
Q 2688 -1331 1869 -1331 
Q 1566 -1331 1297 -1286 
Q 1028 -1241 775 -1147 
L 775 -588 
Q 1028 -725 1275 -790 
Q 1522 -856 1778 -856 
Q 2344 -856 2625 -561 
Q 2906 -266 2906 331 
L 2906 616 
Q 2728 306 2450 153 
Q 2172 0 1784 0 
Q 1141 0 747 490 
Q 353 981 353 1791 
Q 353 2603 747 3093 
Q 1141 3584 1784 3584 
Q 2172 3584 2450 3431 
Q 2728 3278 2906 2969 
L 2906 3500 
L 3481 3500 
L 3481 434 
z
" id="DejaVuSans-67" transform="scale(0.015625)"/>
       <path d="M 794 531 
L 1825 531 
L 1825 4091 
L 703 3866 
L 703 4441 
L 1819 4666 
L 2450 4666 
L 2450 531 
L 3481 531 
L 3481 0 
L 794 0 
L 794 531 
z
" id="DejaVuSans-31" transform="scale(0.015625)"/>
       <path id="DejaVuSans-20" transform="scale(0.015625)"/>
       <path d="M 2375 4863 
L 2375 4384 
L 1825 4384 
Q 1516 4384 1395 4259 
Q 1275 4134 1275 3809 
L 1275 3500 
L 2222 3500 
L 2222 3053 
L 1275 3053 
L 1275 0 
L 697 0 
L 697 3053 
L 147 3053 
L 147 3500 
L 697 3500 
L 697 3744 
Q 697 4328 969 4595 
Q 1241 4863 1831 4863 
L 2375 4863 
z
" id="DejaVuSans-66" transform="scale(0.015625)"/>
       <path d="M 1259 4147 
L 1259 519 
L 2022 519 
Q 2988 519 3436 956 
Q 3884 1394 3884 2338 
Q 3884 3275 3436 3711 
Q 2988 4147 2022 4147 
L 1259 4147 
z
M 628 4666 
L 1925 4666 
Q 3281 4666 3915 4102 
Q 4550 3538 4550 2338 
Q 4550 1131 3912 565 
Q 3275 0 1925 0 
L 628 0 
L 628 4666 
z
" id="DejaVuSans-44" transform="scale(0.015625)"/>
      </defs>
      <use xlink:href="#DejaVuSans-6c"/>
      <use x="27.783203" xlink:href="#DejaVuSans-6f"/>
      <use x="88.964844" xlink:href="#DejaVuSans-67"/>
      <use x="152.441406" xlink:href="#DejaVuSans-31"/>
      <use x="216.064453" xlink:href="#DejaVuSans-30"/>
      <use x="279.6875" xlink:href="#DejaVuSans-20"/>
      <use x="311.474609" xlink:href="#DejaVuSans-6f"/>
      <use x="372.65625" xlink:href="#DejaVuSans-66"/>
      <use x="407.861328" xlink:href="#DejaVuSans-20"/>
      <use x="439.648438" xlink:href="#DejaVuSans-44"/>
      <use x="516.650391" xlink:href="#DejaVuSans-66"/>
     </g>
    </g>
   </g>
   <g id="matplotlib.axis_2">
    <g id="ytick_1">
     <g id="line2d_9">
      <path clip-path="url(#p2c797571ac)" d="M 0 293.76 
L 460.8 293.76 
" style="fill:none;stroke:#b0b0b0;stroke-linecap:square;stroke-width:0.8;"/>
     </g>
     <g id="line2d_10">
      <defs>
       <path d="M 0 0 
L -3.5 0 
" id="m50876317f7" style="stroke:#000000;stroke-width:0.8;"/>
      </defs>
      <g>
       <use style="stroke:#000000;stroke-width:0.8;" x="0" xlink:href="#m50876317f7" y="293.76"/>
      </g>
     </g>
    </g>
    <g id="ytick_2">
     <g id="line2d_11">
      <path clip-path="url(#p2c797571ac)" d="M 0 236.274059 
L 460.8 236.274059 
" style="fill:none;stroke:#b0b0b0;stroke-linecap:square;stroke-width:0.8;"/>
     </g>
     <g id="line2d_12">
      <g>
       <use style="stroke:#000000;stroke-width:0.8;" x="0" xlink:href="#m50876317f7" y="236.274059"/>
      </g>
     </g>
    </g>
    <g id="ytick_3">
     <g id="line2d_13">
      <path clip-path="url(#p2c797571ac)" d="M 0 178.788119 
L 460.8 178.788119 
" style="fill:none;stroke:#b0b0b0;stroke-linecap:square;stroke-width:0.8;"/>
     </g>
     <g id="line2d_14">
      <g>
       <use style="stroke:#000000;stroke-width:0.8;" x="0" xlink:href="#m50876317f7" y="178.788119"/>
      </g>
     </g>
    </g>
    <g id="ytick_4">
     <g id="line2d_15">
      <path clip-path="url(#p2c797571ac)" d="M 0 121.302178 
L 460.8 121.302178 
" style="fill:none;stroke:#b0b0b0;stroke-linecap:square;stroke-width:0.8;"/>
     </g>
     <g id="line2d_16">
      <g>
       <use style="stroke:#000000;stroke-width:0.8;" x="0" xlink:href="#m50876317f7" y="121.302178"/>
      </g>
     </g>
    </g>
    <g id="ytick_5">
     <g id="line2d_17">
      <path clip-path="url(#p2c797571ac)" d="M 0 63.816238 
L 460.8 63.816238 
" style="fill:none;stroke:#b0b0b0;stroke-linecap:square;stroke-width:0.8;"/>
     </g>
     <g id="line2d_18">
      <g>
       <use style="stroke:#000000;stroke-width:0.8;" x="0" xlink:href="#m50876317f7" y="63.816238"/>
      </g>
     </g>
    </g>
    <g id="ytick_6">
     <g id="line2d_19">
      <path clip-path="url(#p2c797571ac)" d="M 0 6.330297 
L 460.8 6.330297 
" style="fill:none;stroke:#b0b0b0;stroke-linecap:square;stroke-width:0.8;"/>
     </g>
     <g id="line2d_20">
      <g>
       <use style="stroke:#000000;stroke-width:0.8;" x="0" xlink:href="#m50876317f7" y="6.330297"/>
      </g>
     </g>
    </g>
   </g>
   <g id="line2d_21">
    <path clip-path="url(#p2c797571ac)" d="M -1 192.361188 
L -0.113294 192.361188 
L -0.113294 93.357624 
L 158.458557 93.357624 
L 158.458557 92.559208 
L 167.729558 92.559208 
L 167.729558 91.760792 
L 168.702418 91.760792 
L 168.702445 90.16396 
L 173.147199 90.16396 
L 173.147199 89.365545 
L 173.848724 89.365545 
L 173.849494 87.768713 
L 174.58517 87.768713 
L 174.58517 86.970297 
L 183.430216 86.970297 
L 183.430216 86.171881 
L 185.993568 86.171881 
L 185.993568 85.373465 
L 188.969095 85.373465 
L 188.969095 84.57505 
L 189.378534 84.57505 
L 189.378534 83.776634 
L 190.453324 83.776634 
L 190.453324 82.978218 
L 191.170642 82.978218 
L 191.170642 82.179802 
L 193.224978 82.179802 
L 193.224978 80.58297 
L 194.614883 80.58297 
L 194.614883 79.784554 
L 196.411062 79.784554 
L 196.411062 78.986139 
L 200.126536 78.986139 
L 200.126536 77.389307 
L 201.117098 77.389307 
L 201.117098 75.792475 
L 201.736495 75.792475 
L 201.736495 73.397228 
L 202.1453 73.397228 
L 202.1453 72.598812 
L 202.297273 72.598812 
L 202.297273 71.800396 
L 203.662725 71.800396 
L 203.662725 71.00198 
L 203.919361 71.00198 
L 203.919361 70.203564 
L 204.782879 70.203564 
L 204.782879 69.405149 
L 205.082984 69.405149 
L 205.082984 67.808317 
L 205.428861 67.808317 
L 205.428861 64.614653 
L 205.744252 64.614653 
L 205.744252 63.816238 
L 207.48914 63.816238 
L 207.48914 62.219406 
L 208.371471 62.219406 
L 208.371471 61.42099 
L 208.524707 61.42099 
L 208.524707 60.622574 
L 209.348508 60.622574 
L 209.348508 59.824158 
L 209.565622 59.824158 
L 209.565622 52.638416 
L 210.35052 52.638416 
L 210.35052 51.84 
L 212.12056 51.84 
L 212.12056 47.049505 
L 213.305649 47.049505 
L 213.30698 45.452673 
L 217.256167 45.452673 
L 217.256167 43.057426 
L 217.457742 43.057426 
L 217.457742 35.073267 
L 221.153149 35.073267 
L 221.153149 34.274851 
L 222.074337 34.274851 
L 222.074337 27.887525 
L 222.758764 27.887525 
L 222.758764 27.089109 
L 224.978977 27.089109 
L 224.978977 26.290693 
L 225.349863 26.290693 
L 225.349863 21.500198 
L 225.535413 21.500198 
L 225.535413 20.701782 
L 228.098942 20.701782 
L 228.098942 19.903366 
L 228.30464 19.903366 
L 228.313676 18.306535 
L 228.540527 18.306535 
L 228.540527 17.508119 
L 228.73612 17.508119 
L 228.830526 14.314455 
L 228.897651 14.314455 
L 228.897651 13.51604 
L 229.103252 13.51604 
L 229.115034 11.919208 
L 229.966448 11.919208 
L 229.966448 11.120792 
L 230.477787 11.120792 
L 230.477787 10.322376 
L 231.310412 10.322376 
L 231.310412 9.52396 
L 231.721597 9.52396 
L 231.721597 7.927129 
L 232.212611 7.927129 
L 232.212611 7.128713 
L 234.583039 7.128713 
L 234.583039 6.330297 
L 234.583039 6.330297 
L 460.8 6.330297 
L 460.8 6.330297 
" style="fill:none;stroke:#ff0000;stroke-linecap:square;stroke-width:3;"/>
   </g>
   <g id="line2d_22">
    <path clip-path="url(#p2c797571ac)" d="M 222.135574 293.76 
L 222.135574 292.961584 
L 223.417762 292.961584 
L 223.417762 292.163168 
L 226.534946 292.163168 
L 226.534946 291.364752 
L 227.299667 291.364752 
L 227.299667 290.566337 
L 227.614867 290.566337 
L 227.614867 289.767921 
L 230.075586 289.767921 
L 230.078344 288.171089 
L 231.24469 288.171089 
L 231.339295 286.574257 
L 231.46396 286.574257 
L 231.46396 285.775842 
L 231.800901 285.775842 
L 231.800901 284.977426 
L 231.986671 284.977426 
L 231.986671 284.17901 
L 232.122629 284.17901 
L 232.22218 282.582178 
L 232.318526 282.582178 
L 232.388197 280.985347 
L 232.639634 280.985347 
L 232.662814 279.388515 
L 232.972684 279.388515 
L 233.026529 277.791683 
L 233.550885 277.791683 
L 233.550885 276.993267 
L 234.075328 276.993267 
L 234.075328 276.194851 
L 234.950064 276.194851 
L 234.950064 275.396436 
L 235.467285 275.396436 
L 235.467285 274.59802 
L 235.828286 274.59802 
L 235.918641 273.001188 
L 236.048618 273.001188 
L 236.048618 272.202772 
L 236.262814 272.202772 
L 236.262814 271.404356 
L 236.374532 271.404356 
L 236.374532 270.605941 
L 236.78885 270.605941 
L 236.837379 269.009109 
L 237.142806 269.009109 
L 237.224218 266.613861 
L 237.857458 266.613861 
L 237.89151 264.218614 
L 238.172749 264.218614 
L 238.172749 263.420198 
L 238.367656 263.420198 
L 238.428278 261.823366 
L 238.693996 261.823366 
L 238.796028 259.428119 
L 238.82781 259.428119 
L 238.82781 258.629703 
L 239.373241 258.629703 
L 239.473831 257.032871 
L 239.568082 257.032871 
L 239.568082 256.234455 
L 240.251184 256.234455 
L 240.251184 255.43604 
L 240.528849 255.43604 
L 240.528849 254.637624 
L 241.086229 254.637624 
L 241.187236 253.040792 
L 241.687597 253.040792 
L 241.687597 252.242376 
L 242.462708 252.242376 
L 242.462708 251.44396 
L 243.093915 251.44396 
L 243.093915 250.645545 
L 243.237288 250.645545 
L 243.237288 249.847129 
L 243.359368 249.847129 
L 243.359368 249.048713 
L 243.606901 249.048713 
L 243.703355 247.451881 
L 243.857985 247.451881 
L 243.857985 246.653465 
L 244.289339 246.653465 
L 244.289339 245.85505 
L 244.548628 245.85505 
L 244.548628 245.056634 
L 245.017289 245.056634 
L 245.017289 244.258218 
L 245.591786 244.258218 
L 245.605665 242.661386 
L 246.695041 242.661386 
L 246.771337 240.266139 
L 247.040229 240.266139 
L 247.040229 239.467723 
L 247.37274 239.467723 
L 247.37274 238.669307 
L 248.207092 238.669307 
L 248.238724 237.072475 
L 248.699752 237.072475 
L 248.790845 234.677228 
L 248.946667 234.677228 
L 248.946667 233.878812 
L 249.11903 233.878812 
L 249.11903 233.080396 
L 249.45634 233.080396 
L 249.475521 231.483564 
L 250.237266 231.483564 
L 250.237266 230.685149 
L 250.785039 230.685149 
L 250.785039 229.886733 
L 250.936904 229.886733 
L 250.936904 229.088317 
L 251.480239 229.088317 
L 251.480239 228.289901 
L 251.968314 228.289901 
L 252.002462 226.693069 
L 252.11383 226.693069 
L 252.11383 225.894653 
L 252.421162 225.894653 
L 252.527092 223.499406 
L 252.59578 223.499406 
L 252.59578 222.70099 
L 253.171343 222.70099 
L 253.241874 220.305743 
L 253.529687 220.305743 
L 253.542506 218.708911 
L 253.794545 218.708911 
L 253.823515 217.112079 
L 254.097886 217.112079 
L 254.178529 215.515248 
L 254.254102 215.515248 
L 254.254102 214.716832 
L 254.497892 214.716832 
L 254.569502 213.12 
L 254.751465 213.12 
L 254.751465 212.321584 
L 255.177504 212.321584 
L 255.281064 210.724752 
L 255.594449 210.724752 
L 255.679259 209.127921 
L 255.798067 209.127921 
L 255.830099 207.531089 
L 255.941422 207.531089 
L 256.044457 204.337426 
L 256.164678 204.337426 
L 256.220602 201.942178 
L 256.294625 201.942178 
L 256.309107 200.345347 
L 256.487983 200.345347 
L 256.536467 198.748515 
L 256.779269 198.748515 
L 256.779269 197.950099 
L 256.982807 197.950099 
L 257.009616 196.353267 
L 257.111873 196.353267 
L 257.20858 194.756436 
L 257.345772 194.756436 
L 257.429694 193.159604 
L 257.474629 193.159604 
L 257.474629 192.361188 
L 257.647884 192.361188 
L 257.647884 191.562772 
L 257.830279 191.562772 
L 257.867825 189.167525 
L 258.001344 189.167525 
L 258.08272 186.772277 
L 258.317043 186.772277 
L 258.426146 184.37703 
L 258.473053 184.37703 
L 258.473053 183.578614 
L 258.738063 183.578614 
L 258.767646 181.981782 
L 258.96831 181.981782 
L 258.96831 181.183366 
L 259.220294 181.183366 
L 259.234785 179.586535 
L 259.39597 179.586535 
L 259.459673 177.989703 
L 259.563157 177.989703 
L 259.62837 175.594455 
L 259.900466 175.594455 
L 259.900466 174.79604 
L 260.112234 174.79604 
L 260.112234 173.997624 
L 260.339681 173.997624 
L 260.377821 172.400792 
L 260.585599 172.400792 
L 260.585599 171.602376 
L 260.784378 171.602376 
L 260.871683 170.005545 
L 260.974423 170.005545 
L 261.027838 168.408713 
L 261.087975 168.408713 
L 261.087975 167.610297 
L 261.343199 167.610297 
L 261.343199 166.811881 
L 261.501472 166.811881 
L 261.526248 165.21505 
L 261.887693 165.21505 
L 261.897839 163.618218 
L 262.400291 163.618218 
L 262.400291 162.819802 
L 262.554847 162.819802 
L 262.649741 159.626139 
L 262.851226 159.626139 
L 262.934703 157.230891 
L 262.990192 157.230891 
L 262.999337 155.634059 
L 263.433034 155.634059 
L 263.502173 152.440396 
L 263.553031 152.440396 
L 263.61028 150.843564 
L 263.753788 150.843564 
L 263.753788 150.045149 
L 264.298205 150.045149 
L 264.384805 148.448317 
L 264.484357 148.448317 
L 264.54323 146.851485 
L 264.814667 146.851485 
L 264.814667 146.053069 
L 264.938749 146.053069 
L 264.938749 145.254653 
L 265.224033 145.254653 
L 265.224033 144.456238 
L 265.336585 144.456238 
L 265.377551 142.859406 
L 266.07956 142.859406 
L 266.07956 142.06099 
L 266.277932 142.06099 
L 266.277932 141.262574 
L 267.27344 141.262574 
L 267.353467 139.665743 
L 267.396225 139.665743 
L 267.488856 138.068911 
L 267.643452 138.068911 
L 267.643452 137.270495 
L 268.089607 137.270495 
L 268.161365 135.673663 
L 268.704927 135.673663 
L 268.731639 134.076832 
L 268.897279 134.076832 
L 268.897279 133.278416 
L 269.156326 133.278416 
L 269.156326 132.48 
L 269.629183 132.48 
L 269.629183 131.681584 
L 270.287379 131.681584 
L 270.287379 130.883168 
L 270.441323 130.883168 
L 270.441323 130.084752 
L 270.570191 130.084752 
L 270.570191 129.286337 
L 270.7875 129.286337 
L 270.86207 127.689505 
L 271.349285 127.689505 
L 271.349285 126.891089 
L 271.774608 126.891089 
L 271.774608 126.092673 
L 271.981834 126.092673 
L 271.981834 125.294257 
L 272.104519 125.294257 
L 272.104519 124.495842 
L 272.315161 124.495842 
L 272.34364 122.89901 
L 272.67224 122.89901 
L 272.67224 122.100594 
L 272.924674 122.100594 
L 272.924674 121.302178 
L 274.205659 121.302178 
L 274.205659 120.503762 
L 276.002612 120.503762 
L 276.051724 118.906931 
L 276.730232 118.906931 
L 276.730232 118.108515 
L 277.596093 118.108515 
L 277.643307 116.511683 
L 277.741648 116.511683 
L 277.741648 115.713267 
L 278.268813 115.713267 
L 278.275184 114.116436 
L 279.561573 114.116436 
L 279.561573 113.31802 
L 280.126018 113.31802 
L 280.126018 112.519604 
L 281.17541 112.519604 
L 281.17541 111.721188 
L 281.432168 111.721188 
L 281.432168 110.922772 
L 281.875297 110.922772 
L 281.903935 109.325941 
L 282.020951 109.325941 
L 282.020951 108.527525 
L 282.245456 108.527525 
L 282.262483 106.930693 
L 282.604594 106.930693 
L 282.604594 106.132277 
L 283.90399 106.132277 
L 283.90399 105.333861 
L 284.639079 105.333861 
L 284.639079 104.535446 
L 284.979709 104.535446 
L 284.979709 103.73703 
L 285.227798 103.73703 
L 285.257447 102.140198 
L 286.760058 102.140198 
L 286.760058 101.341782 
L 287.973566 101.341782 
L 287.973566 100.543366 
L 288.977395 100.543366 
L 288.977395 99.74495 
L 289.665335 99.74495 
L 289.665335 98.946535 
L 290.269006 98.946535 
L 290.269006 98.148119 
L 291.067979 98.148119 
L 291.067979 97.349703 
L 291.301073 97.349703 
L 291.380398 95.752871 
L 291.682046 95.752871 
L 291.682046 94.954455 
L 292.430083 94.954455 
L 292.430083 94.15604 
L 295.761992 94.15604 
L 295.761992 93.357624 
L 296.630776 93.357624 
L 296.630776 92.559208 
L 296.808579 92.559208 
L 296.808579 91.760792 
L 297.300005 91.760792 
L 297.300005 90.962376 
L 297.411898 90.962376 
L 297.411898 90.16396 
L 298.107108 90.16396 
L 298.107108 89.365545 
L 298.940568 89.365545 
L 298.940568 88.567129 
L 300.534032 88.567129 
L 300.534032 87.768713 
L 302.159476 87.768713 
L 302.159476 86.970297 
L 302.346414 86.970297 
L 302.346414 86.171881 
L 303.735639 86.171881 
L 303.839309 84.57505 
L 305.567672 84.57505 
L 305.567672 83.776634 
L 305.853293 83.776634 
L 305.853293 82.978218 
L 306.464677 82.978218 
L 306.464677 82.179802 
L 306.636979 82.179802 
L 306.636979 81.381386 
L 310.212956 81.381386 
L 310.212956 80.58297 
L 310.658642 80.58297 
L 310.658642 79.784554 
L 311.131115 79.784554 
L 311.131115 78.986139 
L 311.402918 78.986139 
L 311.402918 78.187723 
L 311.720006 78.187723 
L 311.720006 77.389307 
L 312.646689 77.389307 
L 312.646689 76.590891 
L 312.816323 76.590891 
L 312.816323 75.792475 
L 313.456191 75.792475 
L 313.456191 74.994059 
L 314.087936 74.994059 
L 314.087936 74.195644 
L 314.276676 74.195644 
L 314.276676 73.397228 
L 315.610189 73.397228 
L 315.610189 72.598812 
L 316.599238 72.598812 
L 316.599238 71.800396 
L 317.789331 71.800396 
L 317.789331 71.00198 
L 319.221642 71.00198 
L 319.221642 70.203564 
L 320.532008 70.203564 
L 320.532008 69.405149 
L 322.164401 69.405149 
L 322.164401 68.606733 
L 323.174925 68.606733 
L 323.174925 67.808317 
L 325.074791 67.808317 
L 325.074791 67.009901 
L 326.357229 67.009901 
L 326.357229 66.211485 
L 327.97282 66.211485 
L 327.97282 65.413069 
L 328.274738 65.413069 
L 328.274738 64.614653 
L 330.608443 64.614653 
L 330.608443 63.816238 
L 332.057304 63.816238 
L 332.057304 63.017822 
L 333.331008 63.017822 
L 333.331008 62.219406 
L 335.812897 62.219406 
L 335.812897 61.42099 
L 338.563509 61.42099 
L 338.563509 60.622574 
L 341.572743 60.622574 
L 341.572743 59.824158 
L 342.701039 59.824158 
L 342.701039 59.025743 
L 343.056713 59.025743 
L 343.056713 58.227327 
L 344.047172 58.227327 
L 344.047172 57.428911 
L 344.44604 57.428911 
L 344.516106 55.832079 
L 346.899686 55.832079 
L 346.899686 55.033663 
L 347.565835 55.033663 
L 347.565835 54.235248 
L 351.297531 54.235248 
L 351.348527 52.638416 
L 352.347695 52.638416 
L 352.347695 51.84 
L 353.592781 51.84 
L 353.592781 51.041584 
L 353.863711 51.041584 
L 353.863711 50.243168 
L 354.90031 50.243168 
L 354.90031 49.444752 
L 355.082696 49.444752 
L 355.082696 48.646337 
L 355.303755 48.646337 
L 355.303755 47.847921 
L 355.606775 47.847921 
L 355.606775 47.049505 
L 358.343547 47.049505 
L 358.343547 46.251089 
L 359.498016 46.251089 
L 359.498016 45.452673 
L 360.515494 45.452673 
L 360.574781 43.855842 
L 361.139484 43.855842 
L 361.139484 43.057426 
L 361.305608 43.057426 
L 361.305608 42.25901 
L 361.435703 42.25901 
L 361.435703 41.460594 
L 361.92529 41.460594 
L 361.92529 40.662178 
L 362.591922 40.662178 
L 362.591922 39.863762 
L 365.553452 39.863762 
L 365.553452 39.065347 
L 367.745214 39.065347 
L 367.745214 38.266931 
L 370.88824 38.266931 
L 370.88824 37.468515 
L 371.966893 37.468515 
L 371.966893 36.670099 
L 374.863393 36.670099 
L 374.916025 35.073267 
L 375.066736 35.073267 
L 375.066736 34.274851 
L 375.533763 34.274851 
L 375.533763 33.476436 
L 375.717694 33.476436 
L 375.717694 32.67802 
L 376.646937 32.67802 
L 376.646937 31.879604 
L 377.10059 31.879604 
L 377.10059 31.081188 
L 379.457859 31.081188 
L 379.457859 30.282772 
L 379.668319 30.282772 
L 379.712135 28.685941 
L 381.031933 28.685941 
L 381.031933 27.887525 
L 383.131139 27.887525 
L 383.131139 27.089109 
L 383.434399 27.089109 
L 383.434399 26.290693 
L 384.778057 26.290693 
L 384.778057 25.492277 
L 386.50556 25.492277 
L 386.50556 24.693861 
L 387.755222 24.693861 
L 387.755222 23.895446 
L 390.334381 23.895446 
L 390.334381 23.09703 
L 390.490777 23.09703 
L 390.490777 22.298614 
L 391.315323 22.298614 
L 391.315323 21.500198 
L 392.453428 21.500198 
L 392.453428 20.701782 
L 392.571528 20.701782 
L 392.571528 19.903366 
L 396.631526 19.903366 
L 396.631526 19.10495 
L 396.90426 19.10495 
L 396.931589 17.508119 
L 399.214122 17.508119 
L 399.214122 16.709703 
L 400.378703 16.709703 
L 400.378703 15.911287 
L 402.91863 15.911287 
L 402.91863 15.112871 
L 405.140355 15.112871 
L 405.140355 14.314455 
L 405.619895 14.314455 
L 405.619895 13.51604 
L 406.363196 13.51604 
L 406.363196 12.717624 
L 416.865271 12.717624 
L 416.865271 11.919208 
L 418.628374 11.919208 
L 418.628374 11.120792 
L 420.462169 11.120792 
L 420.462169 10.322376 
L 421.133949 10.322376 
L 421.133949 9.52396 
L 421.92328 9.52396 
L 421.92328 8.725545 
L 423.453665 8.725545 
L 423.453665 7.927129 
L 428.037648 7.927129 
L 428.037648 7.128713 
L 429.67262 7.128713 
L 429.67262 6.330297 
L 429.67262 6.330297 
L 460.8 6.330297 
L 460.8 6.330297 
" style="fill:none;stroke:#00bfbf;stroke-linecap:square;stroke-width:1.5;"/>
   </g>
   <g id="line2d_23">
    <path clip-path="url(#p2c797571ac)" d="M 216.232393 293.76 
L 216.232393 292.961584 
L 220.153852 292.961584 
L 220.153852 292.163168 
L 220.284634 292.163168 
L 220.284634 291.364752 
L 220.645617 291.364752 
L 220.645617 290.566337 
L 222.135574 290.566337 
L 222.135574 289.767921 
L 222.891486 289.767921 
L 222.891486 288.969505 
L 223.195868 288.969505 
L 223.195868 288.171089 
L 223.417762 288.171089 
L 223.417762 287.372673 
L 224.565796 287.372673 
L 224.565796 286.574257 
L 226.534946 286.574257 
L 226.534946 285.775842 
L 226.990466 285.775842 
L 226.990466 284.977426 
L 227.299667 284.977426 
L 227.299667 284.17901 
L 227.598967 284.17901 
L 227.614867 282.582178 
L 227.90598 282.582178 
L 227.90598 281.783762 
L 228.371326 281.783762 
L 228.371326 280.985347 
L 228.485195 280.985347 
L 228.485195 280.186931 
L 228.795127 280.186931 
L 228.795127 279.388515 
L 229.039208 279.388515 
L 229.14521 277.791683 
L 230.054586 277.791683 
L 230.078344 275.396436 
L 230.215954 275.396436 
L 230.215954 274.59802 
L 231.24469 274.59802 
L 231.24469 273.799604 
L 231.986671 273.799604 
L 231.986671 273.001188 
L 232.122629 273.001188 
L 232.22218 271.404356 
L 232.284872 271.404356 
L 232.388197 269.009109 
L 232.457857 269.009109 
L 232.457857 268.210693 
L 232.639634 268.210693 
L 232.662814 266.613861 
L 232.972684 266.613861 
L 232.972684 265.815446 
L 233.242439 265.815446 
L 233.255217 263.420198 
L 233.48828 263.420198 
L 233.550885 261.823366 
L 233.599987 261.823366 
L 233.599987 261.02495 
L 233.832592 261.02495 
L 233.832592 260.226535 
L 234.075328 260.226535 
L 234.116721 258.629703 
L 234.302962 258.629703 
L 234.302962 257.831287 
L 234.884135 257.831287 
L 234.950064 256.234455 
L 235.013308 256.234455 
L 235.013308 255.43604 
L 235.196259 255.43604 
L 235.196259 254.637624 
L 235.331926 254.637624 
L 235.331926 253.839208 
L 235.467285 253.839208 
L 235.467285 253.040792 
L 235.619708 253.040792 
L 235.619708 252.242376 
L 235.764123 252.242376 
L 235.764123 251.44396 
L 236.262814 251.44396 
L 236.262814 250.645545 
L 236.536135 250.645545 
L 236.536135 249.847129 
L 236.668796 249.847129 
L 236.668796 249.048713 
L 236.837379 249.048713 
L 236.94127 247.451881 
L 237.191753 247.451881 
L 237.191753 246.653465 
L 237.839983 246.653465 
L 237.89151 243.459802 
L 238.533623 243.459802 
L 238.533623 242.661386 
L 238.796028 242.661386 
L 238.796028 241.86297 
L 239.775426 241.86297 
L 239.776718 240.266139 
L 240.034155 240.266139 
L 240.098335 238.669307 
L 240.251184 238.669307 
L 240.251184 237.870891 
L 241.687597 237.870891 
L 241.687597 237.072475 
L 242.518147 237.072475 
L 242.518147 236.274059 
L 243.093915 236.274059 
L 243.093915 235.475644 
L 243.880705 235.475644 
L 243.880705 234.677228 
L 244.394218 234.677228 
L 244.49889 232.28198 
L 245.591786 232.28198 
L 245.591786 231.483564 
L 245.896062 231.483564 
L 245.896062 230.685149 
L 246.28159 230.685149 
L 246.28159 229.886733 
L 246.522379 229.886733 
L 246.628387 228.289901 
L 246.695041 228.289901 
L 246.771337 225.894653 
L 246.811883 225.894653 
L 246.811883 225.096238 
L 246.940154 225.096238 
L 247.040229 222.70099 
L 247.37274 222.70099 
L 247.37274 221.902574 
L 247.969188 221.902574 
L 247.969188 221.104158 
L 248.147732 221.104158 
L 248.238724 219.507327 
L 248.261823 219.507327 
L 248.261823 218.708911 
L 248.497334 218.708911 
L 248.533248 217.112079 
L 248.785421 217.112079 
L 248.790845 215.515248 
L 248.996568 215.515248 
L 249.045171 213.918416 
L 249.270615 213.918416 
L 249.270615 213.12 
L 249.513449 213.12 
L 249.513449 212.321584 
L 250.237266 212.321584 
L 250.241546 210.724752 
L 250.58488 210.724752 
L 250.682291 209.127921 
L 250.936904 209.127921 
L 250.949866 207.531089 
L 251.289268 207.531089 
L 251.289268 206.732673 
L 251.480239 206.732673 
L 251.571981 205.135842 
L 251.609462 205.135842 
L 251.690461 203.53901 
L 251.734404 203.53901 
L 251.734404 202.740594 
L 251.95772 202.740594 
L 252.002462 201.143762 
L 252.25493 201.143762 
L 252.25493 200.345347 
L 252.419459 200.345347 
L 252.527092 197.950099 
L 252.837397 197.950099 
L 252.860818 196.353267 
L 253.241874 196.353267 
L 253.241874 195.554851 
L 253.439958 195.554851 
L 253.542506 193.159604 
L 253.632516 193.159604 
L 253.632516 192.361188 
L 253.801926 192.361188 
L 253.801926 191.562772 
L 253.93647 191.562772 
L 253.93647 190.764356 
L 254.097886 190.764356 
L 254.194124 188.369109 
L 254.254102 188.369109 
L 254.254102 187.570693 
L 254.497892 187.570693 
L 254.497892 186.772277 
L 254.751465 186.772277 
L 254.751465 185.973861 
L 255.005956 185.973861 
L 255.10639 183.578614 
L 255.540607 183.578614 
L 255.540607 182.780198 
L 255.679259 182.780198 
L 255.679259 181.981782 
L 255.798067 181.981782 
L 255.798067 181.183366 
L 255.952538 181.183366 
L 256.035005 179.586535 
L 256.14459 179.586535 
L 256.172478 177.989703 
L 256.471547 177.989703 
L 256.575088 174.79604 
L 256.746312 174.79604 
L 256.856708 171.602376 
L 256.918298 171.602376 
L 257.009616 168.408713 
L 257.159304 168.408713 
L 257.248563 166.811881 
L 257.30355 166.811881 
L 257.376962 165.21505 
L 257.414966 165.21505 
L 257.429694 163.618218 
L 257.867825 163.618218 
L 257.967692 162.021386 
L 258.08272 162.021386 
L 258.08272 161.22297 
L 258.30999 161.22297 
L 258.30999 160.424554 
L 258.440048 160.424554 
L 258.520641 158.827723 
L 258.828973 158.827723 
L 258.831206 157.230891 
L 258.989896 157.230891 
L 258.989896 156.432475 
L 259.724974 156.432475 
L 259.795974 154.835644 
L 259.900466 154.835644 
L 260.009396 151.64198 
L 260.053145 151.64198 
L 260.053145 150.843564 
L 260.339681 150.843564 
L 260.354538 149.246733 
L 260.482655 149.246733 
L 260.482655 148.448317 
L 260.674554 148.448317 
L 260.784378 146.851485 
L 260.866841 146.851485 
L 260.974423 145.254653 
L 261.021743 145.254653 
L 261.021743 144.456238 
L 261.154452 144.456238 
L 261.232577 142.859406 
L 261.300847 142.859406 
L 261.368899 141.262574 
L 261.459263 141.262574 
L 261.501472 139.665743 
L 261.619291 139.665743 
L 261.619291 138.867327 
L 262.586191 138.867327 
L 262.586191 138.068911 
L 262.851226 138.068911 
L 262.851226 137.270495 
L 262.990192 137.270495 
L 262.995589 135.673663 
L 263.433034 135.673663 
L 263.539995 134.076832 
L 264.204016 134.076832 
L 264.284941 130.883168 
L 264.51898 130.883168 
L 264.51898 130.084752 
L 264.823617 130.084752 
L 264.823617 129.286337 
L 265.377551 129.286337 
L 265.377551 128.487921 
L 265.636744 128.487921 
L 265.636744 127.689505 
L 265.764205 127.689505 
L 265.768868 126.092673 
L 265.99892 126.092673 
L 265.99892 125.294257 
L 266.277932 125.294257 
L 266.299175 123.697426 
L 266.620592 123.697426 
L 266.620592 122.89901 
L 266.875707 122.89901 
L 266.875707 122.100594 
L 267.063931 122.100594 
L 267.063931 121.302178 
L 267.199903 121.302178 
L 267.27344 119.705347 
L 267.353467 119.705347 
L 267.463352 118.108515 
L 268.089607 118.108515 
L 268.161365 116.511683 
L 268.401648 116.511683 
L 268.401648 115.713267 
L 268.704927 115.713267 
L 268.704927 114.914851 
L 269.196418 114.914851 
L 269.196418 114.116436 
L 269.91037 114.116436 
L 269.91037 113.31802 
L 270.441323 113.31802 
L 270.441323 112.519604 
L 272.05877 112.519604 
L 272.05877 111.721188 
L 273.165901 111.721188 
L 273.165901 110.922772 
L 273.973333 110.922772 
L 273.973333 110.124356 
L 274.205659 110.124356 
L 274.205659 109.325941 
L 274.33277 109.325941 
L 274.33277 108.527525 
L 274.564038 108.527525 
L 274.564038 107.729109 
L 276.002612 107.729109 
L 276.051724 106.132277 
L 276.330417 106.132277 
L 276.330417 105.333861 
L 276.525597 105.333861 
L 276.525597 104.535446 
L 277.492017 104.535446 
L 277.582741 102.938614 
L 277.741648 102.938614 
L 277.741648 102.140198 
L 278.048791 102.140198 
L 278.048791 101.341782 
L 278.373559 101.341782 
L 278.373559 100.543366 
L 279.083835 100.543366 
L 279.091021 98.946535 
L 279.561573 98.946535 
L 279.561573 98.148119 
L 279.93966 98.148119 
L 279.93966 97.349703 
L 281.17541 97.349703 
L 281.17541 96.551287 
L 281.432579 96.551287 
L 281.432579 95.752871 
L 281.876897 95.752871 
L 281.876897 94.954455 
L 282.020951 94.954455 
L 282.06832 93.357624 
L 286.609279 93.357624 
L 286.609279 92.559208 
L 287.973566 92.559208 
L 287.973566 91.760792 
L 288.236521 91.760792 
L 288.236521 90.962376 
L 288.977395 90.962376 
L 288.977395 90.16396 
L 289.524938 90.16396 
L 289.524938 89.365545 
L 290.269006 89.365545 
L 290.269006 88.567129 
L 290.445901 88.567129 
L 290.445901 87.768713 
L 291.067979 87.768713 
L 291.067979 86.970297 
L 293.483411 86.970297 
L 293.483411 86.171881 
L 294.210991 86.171881 
L 294.210991 85.373465 
L 294.418603 85.373465 
L 294.418603 84.57505 
L 295.097641 84.57505 
L 295.097641 83.776634 
L 296.447606 83.776634 
L 296.447606 82.978218 
L 296.630776 82.978218 
L 296.638385 81.381386 
L 296.808579 81.381386 
L 296.808579 80.58297 
L 296.957274 80.58297 
L 296.957274 79.784554 
L 297.553665 79.784554 
L 297.553665 78.986139 
L 298.107108 78.986139 
L 298.107108 78.187723 
L 299.884748 78.187723 
L 299.884748 77.389307 
L 300.534032 77.389307 
L 300.600369 75.792475 
L 301.506719 75.792475 
L 301.506719 74.994059 
L 301.942165 74.994059 
L 301.942165 74.195644 
L 302.159476 74.195644 
L 302.159476 73.397228 
L 302.694436 73.397228 
L 302.694436 72.598812 
L 303.888577 72.598812 
L 303.888577 71.800396 
L 305.551277 71.800396 
L 305.551277 71.00198 
L 306.464677 71.00198 
L 306.464677 70.203564 
L 306.636979 70.203564 
L 306.636979 69.405149 
L 306.897339 69.405149 
L 306.897339 68.606733 
L 308.365004 68.606733 
L 308.423819 67.009901 
L 308.932478 67.009901 
L 308.932478 66.211485 
L 310.304051 66.211485 
L 310.304051 65.413069 
L 310.658642 65.413069 
L 310.658642 64.614653 
L 312.256978 64.614653 
L 312.256978 63.816238 
L 312.415596 63.816238 
L 312.415596 63.017822 
L 312.816323 63.017822 
L 312.816323 62.219406 
L 315.610189 62.219406 
L 315.610189 61.42099 
L 316.10832 61.42099 
L 316.10832 60.622574 
L 318.968056 60.622574 
L 318.968056 59.824158 
L 319.221642 59.824158 
L 319.221642 59.025743 
L 326.943179 59.025743 
L 326.943179 58.227327 
L 327.97282 58.227327 
L 327.97282 57.428911 
L 328.286447 57.428911 
L 328.286447 56.630495 
L 328.41589 56.630495 
L 328.41589 55.832079 
L 335.187109 55.832079 
L 335.187109 55.033663 
L 335.56539 55.033663 
L 335.56539 54.235248 
L 339.584907 54.235248 
L 339.584907 53.436832 
L 341.540009 53.436832 
L 341.540009 52.638416 
L 342.558594 52.638416 
L 342.558594 51.84 
L 342.701039 51.84 
L 342.701039 51.041584 
L 343.056713 51.041584 
L 343.056713 50.243168 
L 343.611942 50.243168 
L 343.611942 49.444752 
L 343.894894 49.444752 
L 343.979087 47.847921 
L 346.640083 47.847921 
L 346.679661 46.251089 
L 346.899686 46.251089 
L 346.899686 45.452673 
L 349.579043 45.452673 
L 349.579043 44.654257 
L 350.934505 44.654257 
L 350.934505 43.855842 
L 351.297531 43.855842 
L 351.306656 42.25901 
L 352.347695 42.25901 
L 352.347695 41.460594 
L 353.718777 41.460594 
L 353.718777 40.662178 
L 354.440761 40.662178 
L 354.440761 39.863762 
L 355.303755 39.863762 
L 355.303755 39.065347 
L 355.606775 39.065347 
L 355.606775 38.266931 
L 356.10087 38.266931 
L 356.10087 37.468515 
L 357.287202 37.468515 
L 357.287202 36.670099 
L 359.574533 36.670099 
L 359.574533 35.871683 
L 360.061112 35.871683 
L 360.061112 35.073267 
L 360.279077 35.073267 
L 360.279077 34.274851 
L 360.515494 34.274851 
L 360.520164 32.67802 
L 361.129459 32.67802 
L 361.129459 31.879604 
L 361.305608 31.879604 
L 361.34768 30.282772 
L 361.435703 30.282772 
L 361.435703 29.484356 
L 367.745214 29.484356 
L 367.745214 28.685941 
L 370.88824 28.685941 
L 370.88824 27.887525 
L 371.856287 27.887525 
L 371.856287 27.089109 
L 372.09624 27.089109 
L 372.09624 26.290693 
L 372.945098 26.290693 
L 372.945098 25.492277 
L 373.224293 25.492277 
L 373.224293 24.693861 
L 374.184806 24.693861 
L 374.184806 23.895446 
L 377.98778 23.895446 
L 377.98778 23.09703 
L 379.712135 23.09703 
L 379.712135 22.298614 
L 379.967653 22.298614 
L 379.967653 21.500198 
L 380.194704 21.500198 
L 380.194704 20.701782 
L 380.962141 20.701782 
L 380.962141 19.903366 
L 382.269466 19.903366 
L 382.269466 19.10495 
L 383.131139 19.10495 
L 383.131139 18.306535 
L 386.681152 18.306535 
L 386.681152 17.508119 
L 386.982926 17.508119 
L 386.982926 16.709703 
L 387.755222 16.709703 
L 387.755222 15.911287 
L 389.742768 15.911287 
L 389.742768 15.112871 
L 392.418118 15.112871 
L 392.453428 13.51604 
L 396.296154 13.51604 
L 396.296154 12.717624 
L 401.030762 12.717624 
L 401.030762 11.919208 
L 405.619895 11.919208 
L 405.619895 11.120792 
L 407.310166 11.120792 
L 407.310166 10.322376 
L 407.94483 10.322376 
L 407.94483 9.52396 
L 411.527962 9.52396 
L 411.527962 8.725545 
L 414.48581 8.725545 
L 414.48581 7.927129 
L 414.839294 7.927129 
L 414.839294 7.128713 
L 422.21597 7.128713 
L 422.21597 6.330297 
L 422.21597 6.330297 
L 460.8 6.330297 
L 460.8 6.330297 
" style="fill:none;stroke:#bf00bf;stroke-linecap:square;stroke-width:1.5;"/>
   </g>
   <g id="line2d_24">
    <path clip-path="url(#p2c797571ac)" d="M 216.232393 293.76 
L 216.232393 292.961584 
L 220.015408 292.961584 
L 220.015408 292.163168 
L 220.153852 292.163168 
L 220.153852 291.364752 
L 220.284634 291.364752 
L 220.284634 290.566337 
L 220.645617 290.566337 
L 220.645617 289.767921 
L 221.124728 289.767921 
L 221.124728 288.969505 
L 221.353524 288.969505 
L 221.353524 288.171089 
L 222.135574 288.171089 
L 222.135574 287.372673 
L 222.891486 287.372673 
L 222.891486 286.574257 
L 223.195868 286.574257 
L 223.272838 284.977426 
L 223.417762 284.977426 
L 223.417762 284.17901 
L 223.724167 284.17901 
L 223.724167 283.380594 
L 224.565796 283.380594 
L 224.565796 282.582178 
L 224.880429 282.582178 
L 224.880429 281.783762 
L 225.110679 281.783762 
L 225.110679 280.985347 
L 225.248637 280.985347 
L 225.248637 280.186931 
L 225.45261 280.186931 
L 225.45261 279.388515 
L 225.984719 279.388515 
L 226.027111 277.791683 
L 226.354796 277.791683 
L 226.354796 276.993267 
L 226.534946 276.993267 
L 226.534946 276.194851 
L 226.857326 276.194851 
L 226.908366 274.59802 
L 226.990466 274.59802 
L 227.03283 273.001188 
L 227.299667 273.001188 
L 227.299667 272.202772 
L 227.49193 272.202772 
L 227.598967 270.605941 
L 227.614867 270.605941 
L 227.614867 269.807525 
L 227.90598 269.807525 
L 227.90598 269.009109 
L 228.241696 269.009109 
L 228.254428 267.412277 
L 228.371326 267.412277 
L 228.371326 266.613861 
L 228.485195 266.613861 
L 228.500565 265.01703 
L 229.14521 265.01703 
L 229.241676 263.420198 
L 229.760828 263.420198 
L 229.760828 262.621782 
L 230.054586 262.621782 
L 230.078344 260.226535 
L 230.462485 260.226535 
L 230.55728 258.629703 
L 230.62926 258.629703 
L 230.62926 257.831287 
L 230.750472 257.831287 
L 230.750472 257.032871 
L 230.909318 257.032871 
L 230.909318 256.234455 
L 231.355223 256.234455 
L 231.355223 255.43604 
L 231.810238 255.43604 
L 231.810238 254.637624 
L 231.986671 254.637624 
L 231.986671 253.839208 
L 232.122629 253.839208 
L 232.213538 251.44396 
L 232.284872 251.44396 
L 232.388197 249.048713 
L 232.52814 249.048713 
L 232.52814 248.250297 
L 232.639634 248.250297 
L 232.639634 247.451881 
L 232.851287 247.451881 
L 232.851287 246.653465 
L 232.972684 246.653465 
L 232.972684 245.85505 
L 233.252073 245.85505 
L 233.263537 243.459802 
L 233.56006 243.459802 
L 233.599987 241.86297 
L 234.075328 241.86297 
L 234.116721 240.266139 
L 234.235649 240.266139 
L 234.235649 239.467723 
L 234.798656 239.467723 
L 234.798656 238.669307 
L 235.196259 238.669307 
L 235.196259 237.870891 
L 235.331926 237.870891 
L 235.350889 236.274059 
L 235.467285 236.274059 
L 235.467285 235.475644 
L 235.619708 235.475644 
L 235.619708 234.677228 
L 236.262814 234.677228 
L 236.262814 233.878812 
L 236.402234 233.878812 
L 236.402234 233.080396 
L 236.607237 233.080396 
L 236.636147 231.483564 
L 236.94127 231.483564 
L 236.94127 230.685149 
L 237.31275 230.685149 
L 237.31275 229.886733 
L 237.525059 229.886733 
L 237.525059 229.088317 
L 237.859045 229.088317 
L 237.859045 228.289901 
L 238.30553 228.289901 
L 238.30553 227.491485 
L 238.533623 227.491485 
L 238.533623 226.693069 
L 238.741533 226.693069 
L 238.741533 225.894653 
L 238.900417 225.894653 
L 238.900417 225.096238 
L 239.037569 225.096238 
L 239.037569 224.297822 
L 239.159471 224.297822 
L 239.159471 223.499406 
L 240.251184 223.499406 
L 240.28991 221.902574 
L 241.059839 221.902574 
L 241.059839 221.104158 
L 241.334527 221.104158 
L 241.334527 220.305743 
L 241.979104 220.305743 
L 241.979104 219.507327 
L 242.944279 219.507327 
L 242.944279 218.708911 
L 243.093915 218.708911 
L 243.093915 217.910495 
L 243.378276 217.910495 
L 243.378276 217.112079 
L 243.947541 217.112079 
L 243.947541 216.313663 
L 244.261751 216.313663 
L 244.310418 214.716832 
L 244.391803 214.716832 
L 244.422087 212.321584 
L 244.761819 212.321584 
L 244.761819 211.523168 
L 245.15109 211.523168 
L 245.15109 210.724752 
L 245.595685 210.724752 
L 245.595685 209.926337 
L 245.810005 209.926337 
L 245.810005 209.127921 
L 245.934284 209.127921 
L 246.031681 207.531089 
L 246.236176 207.531089 
L 246.236176 206.732673 
L 246.522379 206.732673 
L 246.628387 205.135842 
L 246.720718 205.135842 
L 246.811883 202.740594 
L 246.833884 202.740594 
L 246.833884 201.942178 
L 247.036679 201.942178 
L 247.036679 201.143762 
L 247.275104 201.143762 
L 247.37274 199.546931 
L 248.147732 199.546931 
L 248.147732 198.748515 
L 248.326359 198.748515 
L 248.326359 197.950099 
L 248.785421 197.950099 
L 248.785421 197.151683 
L 248.996568 197.151683 
L 249.045171 195.554851 
L 249.108697 195.554851 
L 249.108697 194.756436 
L 249.270615 194.756436 
L 249.270615 193.95802 
L 249.434888 193.95802 
L 249.513449 191.562772 
L 250.237266 191.562772 
L 250.344959 189.167525 
L 250.363144 189.167525 
L 250.363144 188.369109 
L 250.58488 188.369109 
L 250.682291 185.973861 
L 250.839585 185.973861 
L 250.949866 184.37703 
L 251.238579 184.37703 
L 251.311031 181.981782 
L 251.609462 181.981782 
L 251.690461 180.38495 
L 251.911863 180.38495 
L 251.950114 178.788119 
L 252.294892 178.788119 
L 252.294892 177.989703 
L 252.408205 177.989703 
L 252.434691 174.79604 
L 252.527092 174.79604 
L 252.565802 173.199208 
L 252.860818 173.199208 
L 252.860818 172.400792 
L 253.050691 172.400792 
L 253.078052 170.80396 
L 253.18155 170.80396 
L 253.241874 169.207129 
L 253.439958 169.207129 
L 253.439958 168.408713 
L 254.032759 168.408713 
L 254.051964 166.811881 
L 254.194124 166.811881 
L 254.254102 165.21505 
L 254.751465 165.21505 
L 254.751465 164.416634 
L 255.429786 164.416634 
L 255.486371 162.819802 
L 255.643215 162.819802 
L 255.679259 161.22297 
L 255.798067 161.22297 
L 255.798067 160.424554 
L 255.952538 160.424554 
L 256.041938 158.827723 
L 256.14459 158.827723 
L 256.154403 157.230891 
L 256.403583 157.230891 
L 256.403583 156.432475 
L 256.542662 156.432475 
L 256.542662 155.634059 
L 256.746312 155.634059 
L 256.780623 153.238812 
L 256.982807 153.238812 
L 256.982807 152.440396 
L 257.248563 152.440396 
L 257.248563 151.64198 
L 257.376962 151.64198 
L 257.450502 149.246733 
L 257.679975 149.246733 
L 257.709028 147.649901 
L 257.867825 147.649901 
L 257.867825 146.851485 
L 258.30999 146.851485 
L 258.358024 145.254653 
L 258.520641 145.254653 
L 258.520641 144.456238 
L 258.828973 144.456238 
L 258.936256 142.06099 
L 259.650315 142.06099 
L 259.650315 141.262574 
L 259.795974 141.262574 
L 259.795974 140.464158 
L 260.009396 140.464158 
L 260.009396 139.665743 
L 260.15958 139.665743 
L 260.15958 138.867327 
L 260.305844 138.867327 
L 260.339681 137.270495 
L 260.482655 137.270495 
L 260.482655 136.472079 
L 260.596747 136.472079 
L 260.656895 134.875248 
L 260.784378 134.875248 
L 260.86383 133.278416 
L 260.974423 133.278416 
L 260.985185 131.681584 
L 261.154452 131.681584 
L 261.258969 129.286337 
L 261.300847 129.286337 
L 261.300847 128.487921 
L 261.7766 128.487921 
L 261.7766 127.689505 
L 262.143778 127.689505 
L 262.143778 126.891089 
L 262.586191 126.891089 
L 262.589662 125.294257 
L 262.851226 125.294257 
L 262.851226 124.495842 
L 262.990192 124.495842 
L 262.990192 123.697426 
L 263.161849 123.697426 
L 263.161849 122.89901 
L 263.394175 122.89901 
L 263.465364 121.302178 
L 263.539995 121.302178 
L 263.539995 120.503762 
L 263.660958 120.503762 
L 263.660958 119.705347 
L 263.984034 119.705347 
L 263.984034 118.906931 
L 264.198602 118.906931 
L 264.26064 116.511683 
L 264.351142 116.511683 
L 264.453757 114.116436 
L 264.51898 114.116436 
L 264.51898 113.31802 
L 264.823617 113.31802 
L 264.823617 112.519604 
L 264.992252 112.519604 
L 264.992252 111.721188 
L 265.221422 111.721188 
L 265.221422 110.922772 
L 265.377551 110.922772 
L 265.446065 109.325941 
L 265.511955 109.325941 
L 265.511955 108.527525 
L 265.768868 108.527525 
L 265.768868 107.729109 
L 266.205761 107.729109 
L 266.205761 106.930693 
L 266.609047 106.930693 
L 266.636801 105.333861 
L 266.875707 105.333861 
L 266.875707 104.535446 
L 267.199903 104.535446 
L 267.27344 102.938614 
L 268.630857 102.938614 
L 268.704927 101.341782 
L 269.783309 101.341782 
L 269.783309 100.543366 
L 270.895405 100.543366 
L 270.895405 99.74495 
L 271.255898 99.74495 
L 271.255898 98.946535 
L 273.865844 98.946535 
L 273.865844 98.148119 
L 274.564038 98.148119 
L 274.564038 97.349703 
L 275.577434 97.349703 
L 275.619419 95.752871 
L 275.708948 95.752871 
L 275.708948 94.954455 
L 276.525597 94.954455 
L 276.525597 94.15604 
L 277.45712 94.15604 
L 277.45712 93.357624 
L 277.582741 93.357624 
L 277.582741 92.559208 
L 277.741648 92.559208 
L 277.741648 91.760792 
L 278.350279 91.760792 
L 278.373559 90.16396 
L 278.722132 90.16396 
L 278.722132 89.365545 
L 279.091021 89.365545 
L 279.091021 88.567129 
L 279.561573 88.567129 
L 279.561573 87.768713 
L 279.704444 87.768713 
L 279.704444 86.970297 
L 280.215067 86.970297 
L 280.215067 86.171881 
L 281.876897 86.171881 
L 281.876897 85.373465 
L 282.586118 85.373465 
L 282.673651 83.776634 
L 283.562999 83.776634 
L 283.562999 82.978218 
L 283.866986 82.978218 
L 283.866986 82.179802 
L 284.011828 82.179802 
L 284.011828 81.381386 
L 284.672124 81.381386 
L 284.672124 80.58297 
L 286.034541 80.58297 
L 286.034541 79.784554 
L 286.230626 79.784554 
L 286.230626 78.986139 
L 286.810236 78.986139 
L 286.810236 78.187723 
L 287.603057 78.187723 
L 287.603057 77.389307 
L 287.745574 77.389307 
L 287.745574 76.590891 
L 288.214446 76.590891 
L 288.214446 75.792475 
L 288.510353 75.792475 
L 288.510353 74.994059 
L 288.62717 74.994059 
L 288.62717 74.195644 
L 289.140127 74.195644 
L 289.140127 73.397228 
L 290.074402 73.397228 
L 290.074402 72.598812 
L 291.067979 72.598812 
L 291.067979 71.800396 
L 291.223725 71.800396 
L 291.223725 71.00198 
L 292.492296 71.00198 
L 292.492296 70.203564 
L 294.191985 70.203564 
L 294.26993 67.808317 
L 294.418603 67.808317 
L 294.418603 67.009901 
L 296.638385 67.009901 
L 296.638385 66.211485 
L 297.57438 66.211485 
L 297.57438 65.413069 
L 298.635494 65.413069 
L 298.635494 64.614653 
L 299.884748 64.614653 
L 299.884748 63.816238 
L 301.942165 63.816238 
L 301.942165 63.017822 
L 302.10266 63.017822 
L 302.10266 62.219406 
L 303.888577 62.219406 
L 303.888577 61.42099 
L 306.636979 61.42099 
L 306.636979 60.622574 
L 308.365004 60.622574 
L 308.423819 59.025743 
L 310.304051 59.025743 
L 310.304051 58.227327 
L 312.415596 58.227327 
L 312.415596 57.428911 
L 316.10832 57.428911 
L 316.10832 56.630495 
L 318.63884 56.630495 
L 318.63884 55.832079 
L 318.892901 55.832079 
L 318.892901 55.033663 
L 320.834885 55.033663 
L 320.834885 54.235248 
L 324.879633 54.235248 
L 324.879633 53.436832 
L 325.961988 53.436832 
L 325.961988 52.638416 
L 326.463571 52.638416 
L 326.463571 51.84 
L 328.286447 51.84 
L 328.335856 50.243168 
L 328.41589 50.243168 
L 328.41589 49.444752 
L 329.831434 49.444752 
L 329.831434 48.646337 
L 331.504154 48.646337 
L 331.504154 47.847921 
L 334.014756 47.847921 
L 334.014756 47.049505 
L 334.60453 47.049505 
L 334.60453 46.251089 
L 334.768538 46.251089 
L 334.768538 45.452673 
L 335.238828 45.452673 
L 335.238828 44.654257 
L 335.382096 44.654257 
L 335.458377 43.057426 
L 336.879972 43.057426 
L 336.879972 42.25901 
L 339.298821 42.25901 
L 339.298821 41.460594 
L 339.584907 41.460594 
L 339.584907 40.662178 
L 339.761128 40.662178 
L 339.761128 39.863762 
L 340.678642 39.863762 
L 340.678642 39.065347 
L 341.988693 39.065347 
L 341.988693 38.266931 
L 342.522984 38.266931 
L 342.558594 36.670099 
L 342.701039 36.670099 
L 342.80492 35.073267 
L 343.480104 35.073267 
L 343.480104 34.274851 
L 343.979087 34.274851 
L 343.979087 33.476436 
L 346.119624 33.476436 
L 346.119624 32.67802 
L 346.516255 32.67802 
L 346.516255 31.879604 
L 346.679661 31.879604 
L 346.679661 31.081188 
L 349.579043 31.081188 
L 349.579043 30.282772 
L 352.268634 30.282772 
L 352.268634 29.484356 
L 354.014473 29.484356 
L 354.014473 28.685941 
L 355.606775 28.685941 
L 355.606775 27.887525 
L 356.34867 27.887525 
L 356.34867 27.089109 
L 356.806888 27.089109 
L 356.806888 26.290693 
L 357.564631 26.290693 
L 357.564631 25.492277 
L 357.702508 25.492277 
L 357.702508 24.693861 
L 360.515494 24.693861 
L 360.515494 23.895446 
L 361.435703 23.895446 
L 361.435703 23.09703 
L 363.738577 23.09703 
L 363.738577 22.298614 
L 364.981634 22.298614 
L 364.981634 21.500198 
L 367.745214 21.500198 
L 367.745214 20.701782 
L 367.970811 20.701782 
L 367.970811 19.903366 
L 369.447679 19.903366 
L 369.447679 19.10495 
L 371.75728 19.10495 
L 371.75728 18.306535 
L 373.224293 18.306535 
L 373.224293 17.508119 
L 378.916108 17.508119 
L 378.916108 16.709703 
L 381.544445 16.709703 
L 381.544445 15.911287 
L 383.131139 15.911287 
L 383.131139 15.112871 
L 386.326331 15.112871 
L 386.326331 14.314455 
L 392.453428 14.314455 
L 392.453428 13.51604 
L 396.296154 13.51604 
L 396.296154 12.717624 
L 397.861259 12.717624 
L 397.861259 11.919208 
L 399.871406 11.919208 
L 399.871406 11.120792 
L 402.179561 11.120792 
L 402.179561 10.322376 
L 402.341289 10.322376 
L 402.341289 9.52396 
L 405.619895 9.52396 
L 405.619895 8.725545 
L 407.310166 8.725545 
L 407.310166 7.927129 
L 408.212834 7.927129 
L 408.212834 7.128713 
L 411.427246 7.128713 
L 411.427246 6.330297 
L 411.427246 6.330297 
L 460.8 6.330297 
L 460.8 6.330297 
" style="fill:none;stroke:#000000;stroke-linecap:square;stroke-width:1.5;"/>
   </g>
   <g id="line2d_25">
    <path clip-path="url(#p2c797571ac)" d="M 213.402909 293.76 
L 213.402909 292.961584 
L 214.084441 292.961584 
L 214.084441 292.163168 
L 215.947731 292.163168 
L 215.947731 291.364752 
L 216.232393 291.364752 
L 216.232393 290.566337 
L 217.882545 290.566337 
L 217.956757 288.969505 
L 219.683849 288.969505 
L 219.683849 288.171089 
L 219.878823 288.171089 
L 219.878823 287.372673 
L 220.015408 287.372673 
L 220.015408 286.574257 
L 220.153852 286.574257 
L 220.153852 285.775842 
L 220.284634 285.775842 
L 220.284634 284.977426 
L 220.488411 284.977426 
L 220.488411 284.17901 
L 220.645617 284.17901 
L 220.645617 283.380594 
L 221.010509 283.380594 
L 221.010509 282.582178 
L 221.132219 282.582178 
L 221.132219 281.783762 
L 221.353524 281.783762 
L 221.353524 280.985347 
L 221.621139 280.985347 
L 221.621139 280.186931 
L 222.135574 280.186931 
L 222.135574 279.388515 
L 222.891486 279.388515 
L 222.891486 278.590099 
L 223.195868 278.590099 
L 223.272838 276.993267 
L 223.37246 276.993267 
L 223.417762 275.396436 
L 223.671346 275.396436 
L 223.775429 270.605941 
L 224.38673 270.605941 
L 224.482746 269.009109 
L 224.565796 269.009109 
L 224.565796 268.210693 
L 224.726054 268.210693 
L 224.726054 267.412277 
L 225.000215 267.412277 
L 225.110679 264.218614 
L 225.173153 264.218614 
L 225.173153 263.420198 
L 225.45261 263.420198 
L 225.45261 262.621782 
L 225.663561 262.621782 
L 225.663561 261.823366 
L 225.984719 261.823366 
L 226.027111 260.226535 
L 226.422371 260.226535 
L 226.422371 259.428119 
L 226.534946 259.428119 
L 226.534946 258.629703 
L 226.68853 258.629703 
L 226.68853 257.831287 
L 226.857326 257.831287 
L 226.908366 256.234455 
L 226.990466 256.234455 
L 227.085488 253.839208 
L 227.249292 253.839208 
L 227.355789 250.645545 
L 227.49193 250.645545 
L 227.598967 248.250297 
L 227.614867 248.250297 
L 227.614867 247.451881 
L 227.920275 247.451881 
L 227.920275 246.653465 
L 228.059625 246.653465 
L 228.059625 245.85505 
L 228.254428 245.85505 
L 228.285168 244.258218 
L 228.371326 244.258218 
L 228.371326 243.459802 
L 228.485195 243.459802 
L 228.500565 241.86297 
L 228.731862 241.86297 
L 228.740235 240.266139 
L 228.898605 240.266139 
L 228.898605 239.467723 
L 229.838595 239.467723 
L 229.923889 237.870891 
L 230.054586 237.870891 
L 230.075586 236.274059 
L 230.295595 236.274059 
L 230.295595 235.475644 
L 230.909318 235.475644 
L 230.909318 234.677228 
L 231.736625 234.677228 
L 231.736625 233.878812 
L 231.986671 233.878812 
L 231.986671 233.080396 
L 232.213538 233.080396 
L 232.213538 232.28198 
L 232.366472 232.28198 
L 232.366472 231.483564 
L 232.52814 231.483564 
L 232.52814 230.685149 
L 232.70545 230.685149 
L 232.800602 228.289901 
L 233.053337 228.289901 
L 233.053337 227.491485 
L 233.274897 227.491485 
L 233.274897 226.693069 
L 233.56006 226.693069 
L 233.56006 225.894653 
L 234.798656 225.894653 
L 234.798656 225.096238 
L 235.196259 225.096238 
L 235.196259 224.297822 
L 235.331926 224.297822 
L 235.331926 223.499406 
L 235.467285 223.499406 
L 235.528187 221.902574 
L 235.944604 221.902574 
L 235.944604 221.104158 
L 236.262814 221.104158 
L 236.262814 220.305743 
L 236.483004 220.305743 
L 236.483004 219.507327 
L 236.607237 219.507327 
L 236.607237 218.708911 
L 236.772755 218.708911 
L 236.772755 217.910495 
L 236.94127 217.910495 
L 236.94127 217.112079 
L 237.31275 217.112079 
L 237.31275 216.313663 
L 237.517359 216.313663 
L 237.517359 215.515248 
L 237.752825 215.515248 
L 237.752825 214.716832 
L 237.917423 214.716832 
L 237.917423 213.918416 
L 238.409315 213.918416 
L 238.409315 213.12 
L 238.985322 213.12 
L 239.037569 211.523168 
L 239.150239 211.523168 
L 239.159471 209.926337 
L 239.368403 209.926337 
L 239.405043 207.531089 
L 240.089323 207.531089 
L 240.10173 205.934257 
L 240.220717 205.934257 
L 240.28991 202.740594 
L 240.719946 202.740594 
L 240.813285 201.143762 
L 241.03294 201.143762 
L 241.059839 199.546931 
L 241.582854 199.546931 
L 241.582854 198.748515 
L 241.93515 198.748515 
L 241.979104 197.151683 
L 242.495447 197.151683 
L 242.561042 195.554851 
L 243.029502 195.554851 
L 243.047725 193.95802 
L 243.305788 193.95802 
L 243.305788 193.159604 
L 243.639663 193.159604 
L 243.744449 191.562772 
L 244.261751 191.562772 
L 244.310418 189.965941 
L 244.391803 189.965941 
L 244.394218 188.369109 
L 244.584369 188.369109 
L 244.584369 187.570693 
L 244.761819 187.570693 
L 244.828178 185.973861 
L 244.907051 185.973861 
L 245.001137 184.37703 
L 245.595685 184.37703 
L 245.595685 183.578614 
L 246.031681 183.578614 
L 246.031681 182.780198 
L 246.187031 182.780198 
L 246.283153 181.183366 
L 246.720718 181.183366 
L 246.817124 179.586535 
L 247.349188 179.586535 
L 247.396743 177.191287 
L 248.013372 177.191287 
L 248.013372 176.392871 
L 248.810298 176.392871 
L 248.810298 175.594455 
L 248.996568 175.594455 
L 248.996568 174.79604 
L 249.108697 174.79604 
L 249.197988 173.199208 
L 249.440086 173.199208 
L 249.513449 171.602376 
L 249.837592 171.602376 
L 249.837592 170.80396 
L 249.956934 170.80396 
L 249.956934 170.005545 
L 250.237266 170.005545 
L 250.237266 169.207129 
L 250.645997 169.207129 
L 250.645997 168.408713 
L 251.184909 168.408713 
L 251.224558 166.811881 
L 251.311031 166.811881 
L 251.311031 166.013465 
L 251.573961 166.013465 
L 251.609462 164.416634 
L 251.690461 164.416634 
L 251.772955 162.819802 
L 251.950114 162.819802 
L 252.039026 161.22297 
L 252.294892 161.22297 
L 252.294892 160.424554 
L 252.408205 160.424554 
L 252.419459 158.827723 
L 252.543642 158.827723 
L 252.565802 157.230891 
L 252.938817 157.230891 
L 252.938817 156.432475 
L 253.18155 156.432475 
L 253.258794 154.037228 
L 253.391994 154.037228 
L 253.391994 153.238812 
L 253.669123 153.238812 
L 253.669123 152.440396 
L 254.113032 152.440396 
L 254.221091 150.045149 
L 254.544317 150.045149 
L 254.55433 148.448317 
L 254.781977 148.448317 
L 254.781977 147.649901 
L 254.964848 147.649901 
L 255.063594 145.254653 
L 255.310929 145.254653 
L 255.338044 142.859406 
L 255.486371 142.859406 
L 255.486371 142.06099 
L 255.798067 142.06099 
L 255.845796 139.665743 
L 256.346165 139.665743 
L 256.346165 138.867327 
L 256.542662 138.867327 
L 256.542662 138.068911 
L 256.746312 138.068911 
L 256.787202 135.673663 
L 256.95172 135.673663 
L 256.95172 134.875248 
L 257.184581 134.875248 
L 257.248563 133.278416 
L 257.433228 133.278416 
L 257.450502 131.681584 
L 257.820139 131.681584 
L 257.820139 130.883168 
L 258.080505 130.883168 
L 258.172125 129.286337 
L 258.248325 129.286337 
L 258.30999 127.689505 
L 258.530601 127.689505 
L 258.530601 126.891089 
L 258.936256 126.891089 
L 258.989492 124.495842 
L 259.116764 124.495842 
L 259.202658 122.100594 
L 259.340783 122.100594 
L 259.340783 121.302178 
L 259.961903 121.302178 
L 260.009396 119.705347 
L 260.305844 119.705347 
L 260.326693 118.108515 
L 260.458946 118.108515 
L 260.508174 115.713267 
L 260.627611 115.713267 
L 260.627611 114.914851 
L 260.73919 114.914851 
L 260.73919 114.116436 
L 260.86383 114.116436 
L 260.86383 113.31802 
L 261.232577 113.31802 
L 261.318943 110.922772 
L 261.7766 110.922772 
L 261.7766 110.124356 
L 262.480488 110.124356 
L 262.480488 109.325941 
L 262.966912 109.325941 
L 262.966912 108.527525 
L 263.161849 108.527525 
L 263.250024 106.930693 
L 263.465364 106.930693 
L 263.465364 106.132277 
L 263.603691 106.132277 
L 263.603691 105.333861 
L 263.746065 105.333861 
L 263.746065 104.535446 
L 263.960648 104.535446 
L 264.023036 101.341782 
L 264.26064 101.341782 
L 264.26064 100.543366 
L 264.636424 100.543366 
L 264.727325 98.946535 
L 264.908504 98.946535 
L 264.992252 97.349703 
L 265.167984 97.349703 
L 265.221422 95.752871 
L 265.802323 95.752871 
L 265.802323 94.954455 
L 266.018709 94.954455 
L 266.018709 94.15604 
L 266.609047 94.15604 
L 266.609047 93.357624 
L 267.11976 93.357624 
L 267.11976 92.559208 
L 268.630857 92.559208 
L 268.630857 91.760792 
L 268.764678 91.760792 
L 268.764678 90.962376 
L 269.299864 90.962376 
L 269.299864 90.16396 
L 270.113333 90.16396 
L 270.113333 89.365545 
L 270.895405 89.365545 
L 270.895405 88.567129 
L 271.255898 88.567129 
L 271.255898 87.768713 
L 273.111398 87.768713 
L 273.111398 86.970297 
L 273.865844 86.970297 
L 273.928215 85.373465 
L 274.105868 85.373465 
L 274.105868 84.57505 
L 274.417352 84.57505 
L 274.417352 83.776634 
L 274.563028 83.776634 
L 274.564038 82.179802 
L 275.577434 82.179802 
L 275.577434 81.381386 
L 275.708948 81.381386 
L 275.708948 80.58297 
L 276.264513 80.58297 
L 276.264513 79.784554 
L 276.525597 79.784554 
L 276.525597 78.986139 
L 276.684641 78.986139 
L 276.684641 78.187723 
L 277.327673 78.187723 
L 277.327673 77.389307 
L 277.524556 77.389307 
L 277.582741 75.792475 
L 278.722132 75.792475 
L 278.722132 74.994059 
L 278.842607 74.994059 
L 278.842607 74.195644 
L 279.229461 74.195644 
L 279.229461 73.397228 
L 282.508572 73.397228 
L 282.508572 72.598812 
L 282.673651 72.598812 
L 282.673651 71.800396 
L 282.968399 71.800396 
L 282.968399 71.00198 
L 283.291628 71.00198 
L 283.291628 70.203564 
L 283.483808 70.203564 
L 283.562999 68.606733 
L 283.866986 68.606733 
L 283.866986 67.808317 
L 284.011828 67.808317 
L 284.011828 67.009901 
L 284.481571 67.009901 
L 284.481571 66.211485 
L 286.106621 66.211485 
L 286.106621 65.413069 
L 286.308861 65.413069 
L 286.308861 64.614653 
L 286.486813 64.614653 
L 286.486813 63.816238 
L 286.810236 63.816238 
L 286.86423 62.219406 
L 287.603057 62.219406 
L 287.603057 61.42099 
L 288.158035 61.42099 
L 288.158035 60.622574 
L 289.140127 60.622574 
L 289.140127 59.824158 
L 290.074402 59.824158 
L 290.074402 59.025743 
L 294.418603 59.025743 
L 294.418603 58.227327 
L 298.635494 58.227327 
L 298.635494 57.428911 
L 301.990997 57.428911 
L 301.990997 56.630495 
L 302.647838 56.630495 
L 302.647838 55.832079 
L 303.888577 55.832079 
L 303.888577 55.033663 
L 306.636979 55.033663 
L 306.636979 54.235248 
L 308.365004 54.235248 
L 308.365004 53.436832 
L 308.793708 53.436832 
L 308.793708 52.638416 
L 311.652717 52.638416 
L 311.652717 51.84 
L 312.415596 51.84 
L 312.415596 51.041584 
L 315.684522 51.041584 
L 315.684522 50.243168 
L 316.694602 50.243168 
L 316.694602 49.444752 
L 318.90888 49.444752 
L 318.90888 48.646337 
L 319.302092 48.646337 
L 319.302092 47.847921 
L 320.834885 47.847921 
L 320.834885 47.049505 
L 323.792937 47.049505 
L 323.792937 46.251089 
L 324.051939 46.251089 
L 324.051939 45.452673 
L 328.41589 45.452673 
L 328.41589 44.654257 
L 329.203438 44.654257 
L 329.203438 43.855842 
L 329.810677 43.855842 
L 329.810677 43.057426 
L 330.964849 43.057426 
L 330.964849 42.25901 
L 331.843231 42.25901 
L 331.843231 41.460594 
L 334.014756 41.460594 
L 334.014756 40.662178 
L 335.458377 40.662178 
L 335.458377 39.863762 
L 336.5396 39.863762 
L 336.5396 39.065347 
L 336.879972 39.065347 
L 336.879972 38.266931 
L 337.339979 38.266931 
L 337.339979 37.468515 
L 338.808563 37.468515 
L 338.808563 36.670099 
L 338.97 36.670099 
L 338.97 35.871683 
L 339.298821 35.871683 
L 339.298821 35.073267 
L 339.761128 35.073267 
L 339.868701 33.476436 
L 340.154379 33.476436 
L 340.154379 32.67802 
L 340.678642 32.67802 
L 340.678642 31.879604 
L 341.212913 31.879604 
L 341.212913 31.081188 
L 341.920043 31.081188 
L 341.988693 28.685941 
L 343.503843 28.685941 
L 343.503843 27.887525 
L 344.644548 27.887525 
L 344.644548 27.089109 
L 348.678061 27.089109 
L 348.783642 25.492277 
L 350.418185 25.492277 
L 350.481731 23.895446 
L 351.077562 23.895446 
L 351.077562 23.09703 
L 353.102214 23.09703 
L 353.102214 22.298614 
L 354.014473 22.298614 
L 354.014473 21.500198 
L 354.288836 21.500198 
L 354.288836 20.701782 
L 354.610497 20.701782 
L 354.610497 19.903366 
L 360.599101 19.903366 
L 360.599101 19.10495 
L 364.981634 19.10495 
L 364.981634 18.306535 
L 370.105293 18.306535 
L 370.105293 17.508119 
L 371.75728 17.508119 
L 371.75728 16.709703 
L 374.427176 16.709703 
L 374.427176 15.911287 
L 375.438211 15.911287 
L 375.438211 15.112871 
L 381.544445 15.112871 
L 381.544445 14.314455 
L 386.812698 14.314455 
L 386.812698 13.51604 
L 390.120135 13.51604 
L 390.120135 12.717624 
L 392.453428 12.717624 
L 392.453428 11.919208 
L 393.57774 11.919208 
L 393.57774 11.120792 
L 393.952917 11.120792 
L 393.952917 10.322376 
L 396.296154 10.322376 
L 396.296154 9.52396 
L 397.60994 9.52396 
L 397.60994 8.725545 
L 399.206685 8.725545 
L 399.206685 7.927129 
L 402.179561 7.927129 
L 402.179561 7.128713 
L 405.751859 7.128713 
L 405.751859 6.330297 
L 405.751859 6.330297 
L 460.8 6.330297 
L 460.8 6.330297 
" style="fill:none;stroke:#00bfbf;stroke-linecap:square;stroke-width:1.5;"/>
   </g>
   <g id="line2d_26">
    <path clip-path="url(#p2c797571ac)" d="M 185.140875 293.76 
L 185.197696 292.163168 
L 190.564446 292.163168 
L 190.564446 291.364752 
L 193.55204 291.364752 
L 193.55204 290.566337 
L 195.384847 290.566337 
L 195.39555 288.969505 
L 196.599699 288.969505 
L 196.599699 288.171089 
L 199.057502 288.171089 
L 199.057502 287.372673 
L 199.272023 287.372673 
L 199.272023 286.574257 
L 199.696213 286.574257 
L 199.696213 285.775842 
L 200.191857 285.775842 
L 200.191857 284.977426 
L 200.623089 284.977426 
L 200.623089 284.17901 
L 200.906976 284.17901 
L 200.906976 283.380594 
L 201.067811 283.380594 
L 201.067811 282.582178 
L 201.717257 282.582178 
L 201.792835 280.985347 
L 201.876698 280.985347 
L 201.876698 280.186931 
L 202.161354 280.186931 
L 202.232063 278.590099 
L 202.35117 278.590099 
L 202.35117 277.791683 
L 203.079176 277.791683 
L 203.140871 276.194851 
L 203.423057 276.194851 
L 203.423057 275.396436 
L 203.702555 275.396436 
L 203.702555 274.59802 
L 203.864857 274.59802 
L 203.919361 273.001188 
L 204.011845 273.001188 
L 204.011845 272.202772 
L 204.170201 272.202772 
L 204.170201 271.404356 
L 204.37142 271.404356 
L 204.431768 269.807525 
L 204.531066 269.807525 
L 204.531066 269.009109 
L 206.038863 269.009109 
L 206.038863 268.210693 
L 206.785061 268.210693 
L 206.841474 266.613861 
L 206.900894 266.613861 
L 206.900894 265.815446 
L 207.532444 265.815446 
L 207.532444 265.01703 
L 207.961599 265.01703 
L 207.961599 264.218614 
L 209.363993 264.218614 
L 209.363993 263.420198 
L 210.056958 263.420198 
L 210.077211 261.823366 
L 210.37968 261.823366 
L 210.37968 261.02495 
L 210.507949 261.02495 
L 210.507949 260.226535 
L 211.082694 260.226535 
L 211.082694 259.428119 
L 211.311038 259.428119 
L 211.311038 258.629703 
L 211.569791 258.629703 
L 211.569791 257.831287 
L 211.831374 257.831287 
L 211.831374 257.032871 
L 212.633388 257.032871 
L 212.727238 255.43604 
L 212.867286 255.43604 
L 212.922621 253.839208 
L 213.074058 253.839208 
L 213.074058 253.040792 
L 213.297722 253.040792 
L 213.402909 251.44396 
L 213.543726 251.44396 
L 213.543726 250.645545 
L 214.250612 250.645545 
L 214.26574 249.048713 
L 214.392272 249.048713 
L 214.392272 248.250297 
L 214.646949 248.250297 
L 214.718722 246.653465 
L 214.843522 246.653465 
L 214.843522 245.85505 
L 215.020372 245.85505 
L 215.094243 244.258218 
L 215.223208 244.258218 
L 215.317269 242.661386 
L 215.405944 242.661386 
L 215.501649 241.064554 
L 215.662871 241.064554 
L 215.736089 239.467723 
L 215.801022 239.467723 
L 215.801022 238.669307 
L 215.930954 238.669307 
L 216.004762 236.274059 
L 216.278456 236.274059 
L 216.278456 235.475644 
L 216.485552 235.475644 
L 216.521701 233.878812 
L 216.796748 233.878812 
L 216.796748 233.080396 
L 217.205453 233.080396 
L 217.244811 230.685149 
L 217.346563 230.685149 
L 217.429411 228.289901 
L 218.019465 228.289901 
L 218.019465 227.491485 
L 218.138521 227.491485 
L 218.234209 224.297822 
L 218.315863 224.297822 
L 218.315863 223.499406 
L 218.471435 223.499406 
L 218.545273 221.902574 
L 218.7454 221.902574 
L 218.7454 221.104158 
L 218.877308 221.104158 
L 218.955763 217.910495 
L 219.268162 217.910495 
L 219.356142 214.716832 
L 219.585793 214.716832 
L 219.683849 212.321584 
L 219.761429 212.321584 
L 219.761429 211.523168 
L 219.884905 211.523168 
L 219.934489 209.926337 
L 220.106307 209.926337 
L 220.106307 209.127921 
L 220.309277 209.127921 
L 220.309277 208.329505 
L 220.579942 208.329505 
L 220.579942 207.531089 
L 220.749049 207.531089 
L 220.749049 206.732673 
L 220.930156 206.732673 
L 221.010509 205.135842 
L 221.153149 205.135842 
L 221.153149 204.337426 
L 221.383211 204.337426 
L 221.486864 202.740594 
L 221.895981 202.740594 
L 221.895981 201.942178 
L 222.02676 201.942178 
L 222.02676 201.143762 
L 222.207916 201.143762 
L 222.207916 200.345347 
L 222.339945 200.345347 
L 222.339945 199.546931 
L 222.720717 199.546931 
L 222.753218 197.950099 
L 223.616492 197.950099 
L 223.616492 197.151683 
L 224.846197 197.151683 
L 224.930645 194.756436 
L 225.157332 194.756436 
L 225.157332 193.95802 
L 225.433535 193.95802 
L 225.433535 193.159604 
L 225.779871 193.159604 
L 225.779871 192.361188 
L 226.102607 192.361188 
L 226.11467 190.764356 
L 226.842914 190.764356 
L 226.908366 189.167525 
L 227.042466 189.167525 
L 227.042466 188.369109 
L 227.33405 188.369109 
L 227.33405 187.570693 
L 227.495225 187.570693 
L 227.582048 185.175446 
L 227.616768 185.175446 
L 227.616768 184.37703 
L 227.828381 184.37703 
L 227.828381 183.578614 
L 228.021437 183.578614 
L 228.122698 181.981782 
L 228.392822 181.981782 
L 228.450695 180.38495 
L 228.572155 180.38495 
L 228.572155 179.586535 
L 228.837328 179.586535 
L 228.854221 177.989703 
L 229.550159 177.989703 
L 229.550159 177.191287 
L 229.771248 177.191287 
L 229.771248 176.392871 
L 229.929586 176.392871 
L 229.929586 175.594455 
L 230.381016 175.594455 
L 230.444808 173.997624 
L 230.524019 173.997624 
L 230.524019 173.199208 
L 230.649461 173.199208 
L 230.717787 171.602376 
L 231.007002 171.602376 
L 231.007002 170.80396 
L 231.414056 170.80396 
L 231.414056 170.005545 
L 232.036736 170.005545 
L 232.036736 169.207129 
L 232.544904 169.207129 
L 232.544904 168.408713 
L 232.800491 168.408713 
L 232.800491 167.610297 
L 233.094977 167.610297 
L 233.094977 166.811881 
L 233.508077 166.811881 
L 233.508077 166.013465 
L 233.832159 166.013465 
L 233.832159 165.21505 
L 233.963684 165.21505 
L 233.963684 164.416634 
L 234.355662 164.416634 
L 234.413868 162.021386 
L 234.509925 162.021386 
L 234.554731 160.424554 
L 234.736659 160.424554 
L 234.736659 159.626139 
L 235.473829 159.626139 
L 235.473829 158.827723 
L 235.813252 158.827723 
L 235.910453 157.230891 
L 236.024777 157.230891 
L 236.024777 156.432475 
L 236.518267 156.432475 
L 236.518267 155.634059 
L 237.117949 155.634059 
L 237.174496 154.037228 
L 237.502481 154.037228 
L 237.502481 153.238812 
L 238.057362 153.238812 
L 238.057362 152.440396 
L 238.22052 152.440396 
L 238.290872 150.843564 
L 238.394253 150.843564 
L 238.474108 149.246733 
L 238.825102 149.246733 
L 238.825102 148.448317 
L 239.068106 148.448317 
L 239.068106 147.649901 
L 239.186342 147.649901 
L 239.277197 145.254653 
L 239.574904 145.254653 
L 239.642958 143.657822 
L 239.778398 143.657822 
L 239.778398 142.859406 
L 240.508362 142.859406 
L 240.551988 141.262574 
L 240.652988 141.262574 
L 240.652988 140.464158 
L 240.870739 140.464158 
L 240.97473 138.867327 
L 241.387169 138.867327 
L 241.387169 138.068911 
L 241.619898 138.068911 
L 241.699803 136.472079 
L 241.769911 136.472079 
L 241.769911 135.673663 
L 241.922659 135.673663 
L 241.922659 134.875248 
L 242.254493 134.875248 
L 242.292126 133.278416 
L 242.411377 133.278416 
L 242.411377 132.48 
L 242.603275 132.48 
L 242.603275 131.681584 
L 242.734611 131.681584 
L 242.815344 129.286337 
L 242.95774 129.286337 
L 243.037519 127.689505 
L 243.071116 127.689505 
L 243.165016 125.294257 
L 243.490978 125.294257 
L 243.490978 124.495842 
L 243.766621 124.495842 
L 243.766621 123.697426 
L 244.118707 123.697426 
L 244.118707 122.89901 
L 244.31635 122.89901 
L 244.31635 122.100594 
L 244.51596 122.100594 
L 244.621333 118.906931 
L 245.390271 118.906931 
L 245.412382 116.511683 
L 245.599969 116.511683 
L 245.599969 115.713267 
L 245.719144 115.713267 
L 245.825651 113.31802 
L 245.917171 113.31802 
L 245.917171 112.519604 
L 246.06929 112.519604 
L 246.06929 111.721188 
L 246.302007 111.721188 
L 246.302007 110.922772 
L 246.421455 110.922772 
L 246.483566 109.325941 
L 246.764412 109.325941 
L 246.764412 108.527525 
L 246.930641 108.527525 
L 247.005207 106.132277 
L 247.168716 106.132277 
L 247.216915 103.73703 
L 247.4851 103.73703 
L 247.54078 102.140198 
L 247.640181 102.140198 
L 247.640181 101.341782 
L 247.763806 101.341782 
L 247.858624 98.946535 
L 247.989856 98.946535 
L 248.014225 97.349703 
L 248.208089 97.349703 
L 248.257782 94.954455 
L 248.432894 94.954455 
L 248.432894 94.15604 
L 248.593491 94.15604 
L 248.593491 93.357624 
L 248.761876 93.357624 
L 248.784368 91.760792 
L 248.873931 91.760792 
L 248.984007 90.16396 
L 249.00451 90.16396 
L 249.067406 88.567129 
L 249.199678 88.567129 
L 249.199678 87.768713 
L 249.40371 87.768713 
L 249.453204 86.171881 
L 249.627653 86.171881 
L 249.627653 85.373465 
L 249.828781 85.373465 
L 249.885545 83.776634 
L 249.970805 83.776634 
L 249.970805 82.978218 
L 250.116968 82.978218 
L 250.150453 79.784554 
L 250.322804 79.784554 
L 250.407084 76.590891 
L 250.567831 76.590891 
L 250.567831 75.792475 
L 250.887638 75.792475 
L 250.887638 74.994059 
L 251.061855 74.994059 
L 251.061855 74.195644 
L 251.354396 74.195644 
L 251.354396 73.397228 
L 251.717369 73.397228 
L 251.801639 71.800396 
L 252.12753 71.800396 
L 252.134881 70.203564 
L 252.293815 70.203564 
L 252.293815 69.405149 
L 252.405972 69.405149 
L 252.412375 67.808317 
L 252.731477 67.808317 
L 252.731477 67.009901 
L 252.892594 67.009901 
L 252.942811 64.614653 
L 253.402726 64.614653 
L 253.402726 63.816238 
L 253.877015 63.816238 
L 253.877015 63.017822 
L 254.605773 63.017822 
L 254.605773 62.219406 
L 256.007547 62.219406 
L 256.007547 61.42099 
L 256.417053 61.42099 
L 256.420486 59.824158 
L 257.798685 59.824158 
L 257.798685 59.025743 
L 257.947619 59.025743 
L 257.947619 58.227327 
L 258.797921 58.227327 
L 258.797921 57.428911 
L 259.876702 57.428911 
L 259.876702 56.630495 
L 260.062433 56.630495 
L 260.062433 55.832079 
L 260.884225 55.832079 
L 260.884225 55.033663 
L 261.153842 55.033663 
L 261.153842 54.235248 
L 261.485697 54.235248 
L 261.485697 53.436832 
L 261.928769 53.436832 
L 261.928769 52.638416 
L 262.057947 52.638416 
L 262.057947 51.84 
L 263.694731 51.84 
L 263.694731 51.041584 
L 264.546096 51.041584 
L 264.546096 50.243168 
L 265.440602 50.243168 
L 265.440602 49.444752 
L 266.65469 49.444752 
L 266.65469 48.646337 
L 267.201342 48.646337 
L 267.254365 47.049505 
L 268.035945 47.049505 
L 268.044811 45.452673 
L 270.199409 45.452673 
L 270.199409 44.654257 
L 270.535642 44.654257 
L 270.535642 43.855842 
L 281.676833 43.855842 
L 281.676833 43.057426 
L 283.552358 43.057426 
L 283.552358 42.25901 
L 284.119932 42.25901 
L 284.119932 41.460594 
L 289.160182 41.460594 
L 289.160182 40.662178 
L 289.581758 40.662178 
L 289.581758 39.863762 
L 291.328851 39.863762 
L 291.414153 38.266931 
L 292.141129 38.266931 
L 292.141129 37.468515 
L 292.397082 37.468515 
L 292.397082 36.670099 
L 295.285593 36.670099 
L 295.285593 35.871683 
L 296.856048 35.871683 
L 296.856048 35.073267 
L 297.051141 35.073267 
L 297.051141 34.274851 
L 297.229848 34.274851 
L 297.229848 33.476436 
L 298.792353 33.476436 
L 298.792353 32.67802 
L 299.061428 32.67802 
L 299.061428 31.879604 
L 299.42321 31.879604 
L 299.42321 31.081188 
L 301.113717 31.081188 
L 301.113717 30.282772 
L 302.924391 30.282772 
L 302.924391 29.484356 
L 306.548409 29.484356 
L 306.548409 28.685941 
L 308.808724 28.685941 
L 308.869587 27.089109 
L 309.821082 27.089109 
L 309.916497 25.492277 
L 310.95742 25.492277 
L 310.95742 24.693861 
L 311.362081 24.693861 
L 311.362081 23.895446 
L 312.803549 23.895446 
L 312.803549 23.09703 
L 313.830855 23.09703 
L 313.830855 22.298614 
L 316.866877 22.298614 
L 316.866877 21.500198 
L 317.49443 21.500198 
L 317.49443 20.701782 
L 324.33154 20.701782 
L 324.33154 19.903366 
L 330.743122 19.903366 
L 330.743122 19.10495 
L 331.961486 19.10495 
L 331.961486 18.306535 
L 335.064414 18.306535 
L 335.064414 17.508119 
L 342.924025 17.508119 
L 342.924025 16.709703 
L 345.27305 16.709703 
L 345.27305 15.911287 
L 345.856513 15.911287 
L 345.856513 15.112871 
L 346.898332 15.112871 
L 346.898332 14.314455 
L 348.267032 14.314455 
L 348.267032 13.51604 
L 353.218664 13.51604 
L 353.218664 12.717624 
L 358.823359 12.717624 
L 358.823359 11.919208 
L 360.751301 11.919208 
L 360.751301 11.120792 
L 361.160487 11.120792 
L 361.160487 10.322376 
L 361.659695 10.322376 
L 361.659695 9.52396 
L 362.837682 9.52396 
L 362.837682 8.725545 
L 363.688218 8.725545 
L 363.688218 7.927129 
L 365.593408 7.927129 
L 365.593408 7.128713 
L 369.150591 7.128713 
L 369.150591 6.330297 
L 369.150591 6.330297 
L 460.8 6.330297 
L 460.8 6.330297 
" style="fill:none;stroke:#bf00bf;stroke-linecap:square;stroke-width:1.5;"/>
   </g>
   <g id="line2d_27">
    <path clip-path="url(#p2c797571ac)" d="M -1 231.483564 
L -0.531262 231.483564 
L -0.531262 230.685149 
L -0.113294 230.685149 
L -0.113294 221.104158 
L 0.979897 221.104158 
L 0.979897 220.305743 
L 1.713081 220.305743 
L 1.713081 219.507327 
L 1.937107 219.507327 
L 1.937107 218.708911 
L 5.255099 218.708911 
L 5.255099 217.910495 
L 5.386985 217.910495 
L 5.386985 217.112079 
L 5.82978 217.112079 
L 5.82978 216.313663 
L 5.974878 216.313663 
L 5.974878 215.515248 
L 8.899574 215.515248 
L 8.899574 214.716832 
L 9.179572 214.716832 
L 9.179572 213.918416 
L 10.036627 213.918416 
L 10.036627 213.12 
L 13.626969 213.12 
L 13.626969 212.321584 
L 17.760552 212.321584 
L 17.760552 211.523168 
L 61.924209 211.523168 
L 61.924209 210.724752 
L 66.524557 210.724752 
L 66.524557 209.926337 
L 66.812203 209.926337 
L 66.812203 209.127921 
L 70.566493 209.127921 
L 70.566493 208.329505 
L 72.810076 208.329505 
L 72.810076 207.531089 
L 74.686002 207.531089 
L 74.686002 206.732673 
L 75.739579 206.732673 
L 75.739579 205.934257 
L 76.055376 205.934257 
L 76.055376 205.135842 
L 77.136527 205.135842 
L 77.136527 204.337426 
L 78.338547 204.337426 
L 78.338547 203.53901 
L 79.879419 203.53901 
L 79.879419 202.740594 
L 80.106043 202.740594 
L 80.106043 201.942178 
L 80.2324 201.942178 
L 80.2324 201.143762 
L 80.914361 201.143762 
L 80.914361 200.345347 
L 81.720135 200.345347 
L 81.720135 199.546931 
L 82.257164 199.546931 
L 82.257164 198.748515 
L 82.440133 198.748515 
L 82.440133 197.950099 
L 82.745166 197.950099 
L 82.745166 197.151683 
L 82.863656 197.151683 
L 82.863656 196.353267 
L 83.399403 196.353267 
L 83.483289 194.756436 
L 84.472731 194.756436 
L 84.472731 193.95802 
L 85.852922 193.95802 
L 85.868861 192.361188 
L 85.96821 192.361188 
L 85.96821 191.562772 
L 86.290248 191.562772 
L 86.290248 190.764356 
L 88.784832 190.764356 
L 88.784832 189.965941 
L 89.181337 189.965941 
L 89.288753 188.369109 
L 90.320308 188.369109 
L 90.333371 186.772277 
L 90.720949 186.772277 
L 90.720949 185.973861 
L 90.967535 185.973861 
L 90.967535 185.175446 
L 91.545592 185.175446 
L 91.545592 184.37703 
L 91.739159 184.37703 
L 91.739159 183.578614 
L 92.891191 183.578614 
L 92.891191 182.780198 
L 93.321095 182.780198 
L 93.321095 181.981782 
L 94.971841 181.981782 
L 94.971841 181.183366 
L 95.292867 181.183366 
L 95.328269 179.586535 
L 95.610725 179.586535 
L 95.610725 178.788119 
L 96.161475 178.788119 
L 96.161475 177.989703 
L 96.833044 177.989703 
L 96.833044 177.191287 
L 97.641922 177.191287 
L 97.641969 175.594455 
L 97.954459 175.594455 
L 97.954459 174.79604 
L 98.776548 174.79604 
L 98.776548 173.997624 
L 100.299584 173.997624 
L 100.299584 173.199208 
L 100.682327 173.199208 
L 100.682327 172.400792 
L 100.931712 172.400792 
L 100.931712 171.602376 
L 101.520446 171.602376 
L 101.520446 170.80396 
L 101.736043 170.80396 
L 101.736043 170.005545 
L 101.926427 170.005545 
L 102.018493 167.610297 
L 103.292547 167.610297 
L 103.292547 166.811881 
L 103.524671 166.811881 
L 103.624291 164.416634 
L 104.363173 164.416634 
L 104.363173 163.618218 
L 104.559046 163.618218 
L 104.559046 162.819802 
L 104.771225 162.819802 
L 104.771225 162.021386 
L 106.67063 162.021386 
L 106.67063 161.22297 
L 107.038951 161.22297 
L 107.108237 159.626139 
L 107.232471 159.626139 
L 107.232471 158.827723 
L 107.380759 158.827723 
L 107.380759 158.029307 
L 107.579568 158.029307 
L 107.579568 157.230891 
L 108.12464 157.230891 
L 108.12464 156.432475 
L 109.308733 156.432475 
L 109.308733 155.634059 
L 110.521401 155.634059 
L 110.521401 154.835644 
L 111.594137 154.835644 
L 111.594137 154.037228 
L 112.746392 154.037228 
L 112.746392 153.238812 
L 112.860128 153.238812 
L 112.860128 152.440396 
L 113.943104 152.440396 
L 114.039898 150.843564 
L 114.712868 150.843564 
L 114.712868 150.045149 
L 115.977703 150.045149 
L 116.072976 148.448317 
L 117.26473 148.448317 
L 117.314415 146.851485 
L 117.418583 146.851485 
L 117.418583 146.053069 
L 119.207623 146.053069 
L 119.207623 145.254653 
L 123.020968 145.254653 
L 123.020968 144.456238 
L 125.469477 144.456238 
L 125.469477 143.657822 
L 127.486565 143.657822 
L 127.486565 142.859406 
L 129.089701 142.859406 
L 129.089701 142.06099 
L 131.384467 142.06099 
L 131.384467 141.262574 
L 134.616057 141.262574 
L 134.616057 140.464158 
L 137.383026 140.464158 
L 137.383026 139.665743 
L 139.048302 139.665743 
L 139.048302 138.867327 
L 141.645533 138.867327 
L 141.645533 138.068911 
L 144.010632 138.068911 
L 144.010632 137.270495 
L 146.723664 137.270495 
L 146.795174 135.673663 
L 146.912178 135.673663 
L 146.912178 134.875248 
L 147.075296 134.875248 
L 147.075296 134.076832 
L 148.303124 134.076832 
L 148.303124 133.278416 
L 148.449932 133.278416 
L 148.449932 132.48 
L 149.241311 132.48 
L 149.313447 130.883168 
L 149.377502 130.883168 
L 149.377502 130.084752 
L 149.551482 130.084752 
L 149.551482 129.286337 
L 150.463055 129.286337 
L 150.463055 128.487921 
L 151.367758 128.487921 
L 151.417521 126.891089 
L 151.723839 126.891089 
L 151.723839 126.092673 
L 151.931779 126.092673 
L 151.931779 125.294257 
L 152.186155 125.294257 
L 152.186155 124.495842 
L 152.582015 124.495842 
L 152.582015 123.697426 
L 153.441802 123.697426 
L 153.480833 122.100594 
L 153.811792 122.100594 
L 153.811792 121.302178 
L 154.08567 121.302178 
L 154.08567 120.503762 
L 154.639865 120.503762 
L 154.639865 119.705347 
L 156.117739 119.705347 
L 156.117739 118.906931 
L 156.291032 118.906931 
L 156.291032 118.108515 
L 157.017418 118.108515 
L 157.128276 116.511683 
L 161.475864 116.511683 
L 161.475864 115.713267 
L 161.8653 115.713267 
L 161.8653 114.914851 
L 162.268233 114.914851 
L 162.268233 114.116436 
L 163.783565 114.116436 
L 163.783565 113.31802 
L 165.335335 113.31802 
L 165.335335 112.519604 
L 166.249721 112.519604 
L 166.249721 111.721188 
L 166.638167 111.721188 
L 166.638167 110.922772 
L 169.989948 110.922772 
L 169.989948 110.124356 
L 170.416001 110.124356 
L 170.416001 109.325941 
L 170.918558 109.325941 
L 170.918558 108.527525 
L 177.505907 108.527525 
L 177.505907 107.729109 
L 178.823557 107.729109 
L 178.823557 106.930693 
L 180.985784 106.930693 
L 180.985784 106.132277 
L 181.856544 106.132277 
L 181.856544 105.333861 
L 182.943523 105.333861 
L 182.943523 104.535446 
L 184.34414 104.535446 
L 184.39015 102.938614 
L 185.427644 102.938614 
L 185.427644 102.140198 
L 188.031215 102.140198 
L 188.031215 101.341782 
L 188.932363 101.341782 
L 188.932363 100.543366 
L 190.157313 100.543366 
L 190.157313 99.74495 
L 190.704142 99.74495 
L 190.704142 98.946535 
L 191.080639 98.946535 
L 191.080639 98.148119 
L 191.33726 98.148119 
L 191.33726 97.349703 
L 193.54985 97.349703 
L 193.54985 96.551287 
L 193.942545 96.551287 
L 193.942545 95.752871 
L 194.614883 95.752871 
L 194.614883 94.954455 
L 195.104243 94.954455 
L 195.104243 94.15604 
L 195.623399 94.15604 
L 195.623399 93.357624 
L 196.207172 93.357624 
L 196.207172 92.559208 
L 199.2542 92.559208 
L 199.275188 90.962376 
L 201.650183 90.962376 
L 201.713928 88.567129 
L 203.919361 88.567129 
L 203.919361 87.768713 
L 204.962209 87.768713 
L 204.962209 86.970297 
L 205.124677 86.970297 
L 205.124677 86.171881 
L 205.428861 86.171881 
L 205.428861 82.978218 
L 205.744252 82.978218 
L 205.744252 82.179802 
L 206.279611 82.179802 
L 206.283121 80.58297 
L 206.469551 80.58297 
L 206.469551 79.784554 
L 207.027786 79.784554 
L 207.027786 78.986139 
L 207.163793 78.986139 
L 207.163793 78.187723 
L 207.48917 78.187723 
L 207.48917 77.389307 
L 208.190459 77.389307 
L 208.190459 76.590891 
L 209.348508 76.590891 
L 209.360289 74.994059 
L 209.565622 74.994059 
L 209.568959 70.203564 
L 209.852703 70.203564 
L 209.852703 69.405149 
L 210.216463 69.405149 
L 210.216463 68.606733 
L 210.450753 68.606733 
L 210.450753 67.808317 
L 210.836628 67.808317 
L 210.836628 67.009901 
L 211.319872 67.009901 
L 211.319872 66.211485 
L 211.445148 66.211485 
L 211.493755 63.816238 
L 211.679788 63.816238 
L 211.770545 62.219406 
L 212.12056 62.219406 
L 212.12056 57.428911 
L 212.25274 57.428911 
L 212.290543 55.832079 
L 212.980482 55.832079 
L 212.980482 55.033663 
L 213.274983 55.033663 
L 213.314335 52.638416 
L 213.607367 52.638416 
L 213.607367 51.84 
L 214.246135 51.84 
L 214.250612 50.243168 
L 214.417022 50.243168 
L 214.417022 49.444752 
L 216.235201 49.444752 
L 216.235201 48.646337 
L 216.717178 48.646337 
L 216.717178 47.847921 
L 217.256167 47.847921 
L 217.256171 45.452673 
L 217.457745 45.452673 
L 217.481741 39.863762 
L 218.467148 39.863762 
L 218.467148 39.065347 
L 219.878805 39.065347 
L 219.878805 38.266931 
L 220.495481 38.266931 
L 220.495481 37.468515 
L 221.153149 37.468515 
L 221.153149 36.670099 
L 221.389641 36.670099 
L 221.389641 35.871683 
L 222.074377 35.871683 
L 222.141149 32.67802 
L 222.443569 32.67802 
L 222.443569 31.879604 
L 222.63641 31.879604 
L 222.63641 31.081188 
L 222.758764 31.081188 
L 222.758764 30.282772 
L 223.050893 30.282772 
L 223.050893 29.484356 
L 224.961402 29.484356 
L 224.978977 27.887525 
L 225.349864 27.887525 
L 225.360341 23.09703 
L 225.535413 23.09703 
L 225.535413 22.298614 
L 226.041796 22.298614 
L 226.041796 21.500198 
L 229.966449 21.500198 
L 229.966449 20.701782 
L 230.817427 20.701782 
L 230.817427 19.903366 
L 231.721601 19.903366 
L 231.721629 18.306535 
L 232.212611 18.306535 
L 232.212611 17.508119 
L 233.429563 17.508119 
L 233.429563 16.709703 
L 233.586478 16.709703 
L 233.586478 15.911287 
L 233.992621 15.911287 
L 233.992621 15.112871 
L 234.58475 15.112871 
L 234.58475 14.314455 
L 234.724298 14.314455 
L 234.724298 13.51604 
L 235.045279 13.51604 
L 235.137972 11.919208 
L 235.244579 11.919208 
L 235.244579 11.120792 
L 235.510228 11.120792 
L 235.510228 10.322376 
L 236.109155 10.322376 
L 236.150586 8.725545 
L 236.802663 8.725545 
L 236.811179 7.128713 
L 239.817893 7.128713 
L 239.817893 6.330297 
L 239.817893 6.330297 
L 460.8 6.330297 
L 460.8 6.330297 
" style="fill:none;stroke:#000000;stroke-linecap:square;stroke-width:1.5;"/>
   </g>
   <g id="line2d_28">
    <path clip-path="url(#p2c797571ac)" d="M -1 192.361188 
L -0.113294 192.361188 
L -0.113294 93.357624 
L 158.458557 93.357624 
L 158.458557 92.559208 
L 167.729558 92.559208 
L 167.729558 91.760792 
L 168.702445 91.760792 
L 168.702447 90.16396 
L 173.147199 90.16396 
L 173.147199 89.365545 
L 173.848724 89.365545 
L 173.85171 87.768713 
L 174.58517 87.768713 
L 174.58517 86.970297 
L 183.430216 86.970297 
L 183.430216 86.171881 
L 186.012232 86.171881 
L 186.012232 85.373465 
L 188.969095 85.373465 
L 188.969095 84.57505 
L 189.39231 84.57505 
L 189.39231 83.776634 
L 190.510658 83.776634 
L 190.510658 82.978218 
L 191.170642 82.978218 
L 191.170642 82.179802 
L 193.224978 82.179802 
L 193.224978 80.58297 
L 194.614883 80.58297 
L 194.614883 79.784554 
L 196.411062 79.784554 
L 196.411062 78.986139 
L 200.126536 78.986139 
L 200.126536 77.389307 
L 201.117098 77.389307 
L 201.117098 75.792475 
L 201.736495 75.792475 
L 201.736495 73.397228 
L 202.1453 73.397228 
L 202.1453 72.598812 
L 202.297273 72.598812 
L 202.297273 71.800396 
L 203.662725 71.800396 
L 203.662725 71.00198 
L 203.919361 71.00198 
L 203.919361 70.203564 
L 204.782879 70.203564 
L 204.782879 69.405149 
L 205.082984 69.405149 
L 205.082984 67.808317 
L 205.428861 67.808317 
L 205.428861 64.614653 
L 205.744252 64.614653 
L 205.744252 63.816238 
L 207.48914 63.816238 
L 207.48914 62.219406 
L 208.371471 62.219406 
L 208.371471 61.42099 
L 208.524707 61.42099 
L 208.524707 60.622574 
L 209.348508 60.622574 
L 209.348508 59.824158 
L 209.565622 59.824158 
L 209.565622 52.638416 
L 210.35052 52.638416 
L 210.35052 51.84 
L 212.12056 51.84 
L 212.12056 47.049505 
L 213.305649 47.049505 
L 213.30698 45.452673 
L 217.256167 45.452673 
L 217.256167 43.057426 
L 217.457742 43.057426 
L 217.457742 35.073267 
L 221.153149 35.073267 
L 221.153149 34.274851 
L 222.074337 34.274851 
L 222.074337 27.887525 
L 222.758764 27.887525 
L 222.758764 27.089109 
L 224.978977 27.089109 
L 224.978977 26.290693 
L 225.349863 26.290693 
L 225.349863 21.500198 
L 225.535413 21.500198 
L 225.535413 20.701782 
L 228.098942 20.701782 
L 228.098942 19.903366 
L 228.30464 19.903366 
L 228.313676 18.306535 
L 228.540527 18.306535 
L 228.540527 17.508119 
L 228.73612 17.508119 
L 228.830526 14.314455 
L 228.897651 14.314455 
L 228.897651 13.51604 
L 229.103252 13.51604 
L 229.115034 11.919208 
L 229.966448 11.919208 
L 229.966448 11.120792 
L 230.477787 11.120792 
L 230.477787 10.322376 
L 231.310412 10.322376 
L 231.310412 9.52396 
L 231.721597 9.52396 
L 231.721597 7.927129 
L 232.212611 7.927129 
L 232.212611 7.128713 
L 234.583039 7.128713 
L 234.583039 6.330297 
L 234.583039 6.330297 
L 460.8 6.330297 
L 460.8 6.330297 
" style="fill:none;stroke:#00bfbf;stroke-linecap:square;stroke-width:1.5;"/>
   </g>
   <g id="patch_3">
    <path d="M 0 293.76 
L 0 3.456 
" style="fill:none;stroke:#000000;stroke-linecap:square;stroke-linejoin:miter;stroke-width:0.8;"/>
   </g>
   <g id="patch_4">
    <path d="M 460.8 293.76 
L 460.8 3.456 
" style="fill:none;stroke:#000000;stroke-linecap:square;stroke-linejoin:miter;stroke-width:0.8;"/>
   </g>
   <g id="patch_5">
    <path d="M 0 293.76 
L 460.8 293.76 
" style="fill:none;stroke:#000000;stroke-linecap:square;stroke-linejoin:miter;stroke-width:0.8;"/>
   </g>
   <g id="patch_6">
    <path d="M 0 3.456 
L 460.8 3.456 
" style="fill:none;stroke:#000000;stroke-linecap:square;stroke-linejoin:miter;stroke-width:0.8;"/>
   </g>
   <g id="text_6">
    <!-- {f1-f24}, 5-D -->
    <g transform="translate(318.609 287.95392)scale(0.2 -0.2)">
     <defs>
      <path d="M 3272 -594 
L 3272 -1044 
L 3078 -1044 
Q 2300 -1044 2036 -812 
Q 1772 -581 1772 109 
L 1772 856 
Q 1772 1328 1603 1509 
Q 1434 1691 991 1691 
L 800 1691 
L 800 2138 
L 991 2138 
Q 1438 2138 1605 2317 
Q 1772 2497 1772 2963 
L 1772 3713 
Q 1772 4403 2036 4633 
Q 2300 4863 3078 4863 
L 3272 4863 
L 3272 4416 
L 3059 4416 
Q 2619 4416 2484 4278 
Q 2350 4141 2350 3700 
L 2350 2925 
Q 2350 2434 2208 2212 
Q 2066 1991 1722 1913 
Q 2069 1828 2209 1606 
Q 2350 1384 2350 897 
L 2350 122 
Q 2350 -319 2484 -456 
Q 2619 -594 3059 -594 
L 3272 -594 
z
" id="DejaVuSans-7b" transform="scale(0.015625)"/>
      <path d="M 1228 531 
L 3431 531 
L 3431 0 
L 469 0 
L 469 531 
Q 828 903 1448 1529 
Q 2069 2156 2228 2338 
Q 2531 2678 2651 2914 
Q 2772 3150 2772 3378 
Q 2772 3750 2511 3984 
Q 2250 4219 1831 4219 
Q 1534 4219 1204 4116 
Q 875 4013 500 3803 
L 500 4441 
Q 881 4594 1212 4672 
Q 1544 4750 1819 4750 
Q 2544 4750 2975 4387 
Q 3406 4025 3406 3419 
Q 3406 3131 3298 2873 
Q 3191 2616 2906 2266 
Q 2828 2175 2409 1742 
Q 1991 1309 1228 531 
z
" id="DejaVuSans-32" transform="scale(0.015625)"/>
      <path d="M 800 -594 
L 1019 -594 
Q 1456 -594 1589 -459 
Q 1722 -325 1722 122 
L 1722 897 
Q 1722 1384 1862 1606 
Q 2003 1828 2350 1913 
Q 2003 1991 1862 2212 
Q 1722 2434 1722 2925 
L 1722 3700 
Q 1722 4144 1589 4280 
Q 1456 4416 1019 4416 
L 800 4416 
L 800 4863 
L 997 4863 
Q 1775 4863 2036 4633 
Q 2297 4403 2297 3713 
L 2297 2963 
Q 2297 2497 2465 2317 
Q 2634 2138 3078 2138 
L 3272 2138 
L 3272 1691 
L 3078 1691 
Q 2634 1691 2465 1509 
Q 2297 1328 2297 856 
L 2297 109 
Q 2297 -581 2036 -812 
Q 1775 -1044 997 -1044 
L 800 -1044 
L 800 -594 
z
" id="DejaVuSans-7d" transform="scale(0.015625)"/>
      <path d="M 750 794 
L 1409 794 
L 1409 256 
L 897 -744 
L 494 -744 
L 750 256 
L 750 794 
z
" id="DejaVuSans-2c" transform="scale(0.015625)"/>
      <path d="M 691 4666 
L 3169 4666 
L 3169 4134 
L 1269 4134 
L 1269 2991 
Q 1406 3038 1543 3061 
Q 1681 3084 1819 3084 
Q 2600 3084 3056 2656 
Q 3513 2228 3513 1497 
Q 3513 744 3044 326 
Q 2575 -91 1722 -91 
Q 1428 -91 1123 -41 
Q 819 9 494 109 
L 494 744 
Q 775 591 1075 516 
Q 1375 441 1709 441 
Q 2250 441 2565 725 
Q 2881 1009 2881 1497 
Q 2881 1984 2565 2268 
Q 2250 2553 1709 2553 
Q 1456 2553 1204 2497 
Q 953 2441 691 2322 
L 691 4666 
z
" id="DejaVuSans-35" transform="scale(0.015625)"/>
     </defs>
     <use xlink:href="#DejaVuSans-7b"/>
     <use x="63.623047" xlink:href="#DejaVuSans-66"/>
     <use x="98.828125" xlink:href="#DejaVuSans-31"/>
     <use x="162.451172" xlink:href="#DejaVuSans-2d"/>
     <use x="198.535156" xlink:href="#DejaVuSans-66"/>
     <use x="233.740234" xlink:href="#DejaVuSans-32"/>
     <use x="297.363281" xlink:href="#DejaVuSans-34"/>
     <use x="360.986328" xlink:href="#DejaVuSans-7d"/>
     <use x="424.609375" xlink:href="#DejaVuSans-2c"/>
     <use x="456.396484" xlink:href="#DejaVuSans-20"/>
     <use x="488.183594" xlink:href="#DejaVuSans-35"/>
     <use x="551.806641" xlink:href="#DejaVuSans-2d"/>
     <use x="587.890625" xlink:href="#DejaVuSans-44"/>
    </g>
   </g>
   <g id="text_7">
    <!-- v2.4 -->
    <g style="fill:#808080;" transform="translate(219.489063 288.777272)scale(0.1 -0.1)">
     <defs>
      <path d="M 191 3500 
L 800 3500 
L 1894 563 
L 2988 3500 
L 3597 3500 
L 2284 0 
L 1503 0 
L 191 3500 
z
" id="DejaVuSans-76" transform="scale(0.015625)"/>
      <path d="M 684 794 
L 1344 794 
L 1344 0 
L 684 0 
L 684 794 
z
" id="DejaVuSans-2e" transform="scale(0.015625)"/>
     </defs>
     <use xlink:href="#DejaVuSans-76"/>
     <use x="59.179688" xlink:href="#DejaVuSans-32"/>
     <use x="122.802734" xlink:href="#DejaVuSans-2e"/>
     <use x="154.589844" xlink:href="#DejaVuSans-34"/>
    </g>
   </g>
  </g>
 </g>
 <defs>
  <clipPath id="p2c797571ac">
   <rect height="290.304" width="460.8" x="0" y="3.456"/>
  </clipPath>
 </defs>
</svg>
