<?xml version="1.0" encoding="utf-8" standalone="no"?>
<!DOCTYPE svg PUBLIC "-//W3C//DTD SVG 1.1//EN"
  "http://www.w3.org/Graphics/SVG/1.1/DTD/svg11.dtd">
<svg height="345.6pt" version="1.1" viewBox="0 0 460.8 345.6" width="460.8pt" xmlns="http://www.w3.org/2000/svg" xmlns:xlink="http://www.w3.org/1999/xlink">
 <metadata>
  <rdf:RDF xmlns:cc="http://creativecommons.org/ns#" xmlns:dc="http://purl.org/dc/elements/1.1/" xmlns:rdf="http://www.w3.org/1999/02/22-rdf-syntax-ns#">
   <cc:Work>
    <dc:type rdf:resource="http://purl.org/dc/dcmitype/StillImage"/>
    <dc:date>2021-07-27T16:03:36.637305</dc:date>
    <dc:format>image/svg+xml</dc:format>
    <dc:creator>
     <cc:Agent>
      <dc:title>Matplotlib v3.4.2, https://matplotlib.org/</dc:title>
     </cc:Agent>
    </dc:creator>
   </cc:Work>
  </rdf:RDF>
 </metadata>
 <defs>
  <style type="text/css">*{stroke-linecap:butt;stroke-linejoin:round;}</style>
 </defs>
 <g id="figure_1">
  <g id="patch_1">
   <path d="M 0 345.6 
L 460.8 345.6 
L 460.8 0 
L 0 0 
z
" style="fill:#ffffff;"/>
  </g>
  <g id="axes_1">
   <g id="patch_2">
    <path d="M 0 293.76 
L 460.8 293.76 
L 460.8 3.456 
L 0 3.456 
z
" style="fill:#ffffff;"/>
   </g>
   <g id="matplotlib.axis_1">
    <g id="xtick_1">
     <g id="line2d_1">
      <path clip-path="url(#p0a818c19d8)" d="M 104.754935 293.76 
L 104.754935 3.456 
" style="fill:none;stroke:#b0b0b0;stroke-linecap:square;stroke-width:0.8;"/>
     </g>
     <g id="line2d_2">
      <defs>
       <path d="M 0 0 
L 0 3.5 
" id="mb31b2b9c31" style="stroke:#000000;stroke-width:0.8;"/>
      </defs>
      <g>
       <use style="stroke:#000000;stroke-width:0.8;" x="104.754935" xlink:href="#mb31b2b9c31" y="293.76"/>
      </g>
     </g>
     <g id="text_1">
      <!-- -4 -->
      <g transform="translate(94.784622 315.956875)scale(0.2 -0.2)">
       <defs>
        <path d="M 313 2009 
L 1997 2009 
L 1997 1497 
L 313 1497 
L 313 2009 
z
" id="DejaVuSans-2d" transform="scale(0.015625)"/>
        <path d="M 2419 4116 
L 825 1625 
L 2419 1625 
L 2419 4116 
z
M 2253 4666 
L 3047 4666 
L 3047 1625 
L 3713 1625 
L 3713 1100 
L 3047 1100 
L 3047 0 
L 2419 0 
L 2419 1100 
L 313 1100 
L 313 1709 
L 2253 4666 
z
" id="DejaVuSans-34" transform="scale(0.015625)"/>
       </defs>
       <use xlink:href="#DejaVuSans-2d"/>
       <use x="36.083984" xlink:href="#DejaVuSans-34"/>
      </g>
     </g>
    </g>
    <g id="xtick_2">
     <g id="line2d_3">
      <path clip-path="url(#p0a818c19d8)" d="M 209.623163 293.76 
L 209.623163 3.456 
" style="fill:none;stroke:#b0b0b0;stroke-linecap:square;stroke-width:0.8;"/>
     </g>
     <g id="line2d_4">
      <g>
       <use style="stroke:#000000;stroke-width:0.8;" x="209.623163" xlink:href="#mb31b2b9c31" y="293.76"/>
      </g>
     </g>
     <g id="text_2">
      <!-- 0 -->
      <g transform="translate(203.260663 315.956875)scale(0.2 -0.2)">
       <defs>
        <path d="M 2034 4250 
Q 1547 4250 1301 3770 
Q 1056 3291 1056 2328 
Q 1056 1369 1301 889 
Q 1547 409 2034 409 
Q 2525 409 2770 889 
Q 3016 1369 3016 2328 
Q 3016 3291 2770 3770 
Q 2525 4250 2034 4250 
z
M 2034 4750 
Q 2819 4750 3233 4129 
Q 3647 3509 3647 2328 
Q 3647 1150 3233 529 
Q 2819 -91 2034 -91 
Q 1250 -91 836 529 
Q 422 1150 422 2328 
Q 422 3509 836 4129 
Q 1250 4750 2034 4750 
z
" id="DejaVuSans-30" transform="scale(0.015625)"/>
       </defs>
       <use xlink:href="#DejaVuSans-30"/>
      </g>
     </g>
    </g>
    <g id="xtick_3">
     <g id="line2d_5">
      <path clip-path="url(#p0a818c19d8)" d="M 314.491391 293.76 
L 314.491391 3.456 
" style="fill:none;stroke:#b0b0b0;stroke-linecap:square;stroke-width:0.8;"/>
     </g>
     <g id="line2d_6">
      <g>
       <use style="stroke:#000000;stroke-width:0.8;" x="314.491391" xlink:href="#mb31b2b9c31" y="293.76"/>
      </g>
     </g>
     <g id="text_3">
      <!-- 4 -->
      <g transform="translate(308.128891 315.956875)scale(0.2 -0.2)">
       <use xlink:href="#DejaVuSans-34"/>
      </g>
     </g>
    </g>
    <g id="xtick_4">
     <g id="line2d_7">
      <path clip-path="url(#p0a818c19d8)" d="M 419.359619 293.76 
L 419.359619 3.456 
" style="fill:none;stroke:#b0b0b0;stroke-linecap:square;stroke-width:0.8;"/>
     </g>
     <g id="line2d_8">
      <g>
       <use style="stroke:#000000;stroke-width:0.8;" x="419.359619" xlink:href="#mb31b2b9c31" y="293.76"/>
      </g>
     </g>
     <g id="text_4">
      <!-- 8 -->
      <g transform="translate(412.997119 315.956875)scale(0.2 -0.2)">
       <defs>
        <path d="M 2034 2216 
Q 1584 2216 1326 1975 
Q 1069 1734 1069 1313 
Q 1069 891 1326 650 
Q 1584 409 2034 409 
Q 2484 409 2743 651 
Q 3003 894 3003 1313 
Q 3003 1734 2745 1975 
Q 2488 2216 2034 2216 
z
M 1403 2484 
Q 997 2584 770 2862 
Q 544 3141 544 3541 
Q 544 4100 942 4425 
Q 1341 4750 2034 4750 
Q 2731 4750 3128 4425 
Q 3525 4100 3525 3541 
Q 3525 3141 3298 2862 
Q 3072 2584 2669 2484 
Q 3125 2378 3379 2068 
Q 3634 1759 3634 1313 
Q 3634 634 3220 271 
Q 2806 -91 2034 -91 
Q 1263 -91 848 271 
Q 434 634 434 1313 
Q 434 1759 690 2068 
Q 947 2378 1403 2484 
z
M 1172 3481 
Q 1172 3119 1398 2916 
Q 1625 2713 2034 2713 
Q 2441 2713 2670 2916 
Q 2900 3119 2900 3481 
Q 2900 3844 2670 4047 
Q 2441 4250 2034 4250 
Q 1625 4250 1398 4047 
Q 1172 3844 1172 3481 
z
" id="DejaVuSans-38" transform="scale(0.015625)"/>
       </defs>
       <use xlink:href="#DejaVuSans-38"/>
      </g>
     </g>
    </g>
    <g id="text_5">
     <!-- log10 of Df -->
     <g transform="translate(175.214063 339.313125)scale(0.2 -0.2)">
      <defs>
       <path d="M 603 4863 
L 1178 4863 
L 1178 0 
L 603 0 
L 603 4863 
z
" id="DejaVuSans-6c" transform="scale(0.015625)"/>
       <path d="M 1959 3097 
Q 1497 3097 1228 2736 
Q 959 2375 959 1747 
Q 959 1119 1226 758 
Q 1494 397 1959 397 
Q 2419 397 2687 759 
Q 2956 1122 2956 1747 
Q 2956 2369 2687 2733 
Q 2419 3097 1959 3097 
z
M 1959 3584 
Q 2709 3584 3137 3096 
Q 3566 2609 3566 1747 
Q 3566 888 3137 398 
Q 2709 -91 1959 -91 
Q 1206 -91 779 398 
Q 353 888 353 1747 
Q 353 2609 779 3096 
Q 1206 3584 1959 3584 
z
" id="DejaVuSans-6f" transform="scale(0.015625)"/>
       <path d="M 2906 1791 
Q 2906 2416 2648 2759 
Q 2391 3103 1925 3103 
Q 1463 3103 1205 2759 
Q 947 2416 947 1791 
Q 947 1169 1205 825 
Q 1463 481 1925 481 
Q 2391 481 2648 825 
Q 2906 1169 2906 1791 
z
M 3481 434 
Q 3481 -459 3084 -895 
Q 2688 -1331 1869 -1331 
Q 1566 -1331 1297 -1286 
Q 1028 -1241 775 -1147 
L 775 -588 
Q 1028 -725 1275 -790 
Q 1522 -856 1778 -856 
Q 2344 -856 2625 -561 
Q 2906 -266 2906 331 
L 2906 616 
Q 2728 306 2450 153 
Q 2172 0 1784 0 
Q 1141 0 747 490 
Q 353 981 353 1791 
Q 353 2603 747 3093 
Q 1141 3584 1784 3584 
Q 2172 3584 2450 3431 
Q 2728 3278 2906 2969 
L 2906 3500 
L 3481 3500 
L 3481 434 
z
" id="DejaVuSans-67" transform="scale(0.015625)"/>
       <path d="M 794 531 
L 1825 531 
L 1825 4091 
L 703 3866 
L 703 4441 
L 1819 4666 
L 2450 4666 
L 2450 531 
L 3481 531 
L 3481 0 
L 794 0 
L 794 531 
z
" id="DejaVuSans-31" transform="scale(0.015625)"/>
       <path id="DejaVuSans-20" transform="scale(0.015625)"/>
       <path d="M 2375 4863 
L 2375 4384 
L 1825 4384 
Q 1516 4384 1395 4259 
Q 1275 4134 1275 3809 
L 1275 3500 
L 2222 3500 
L 2222 3053 
L 1275 3053 
L 1275 0 
L 697 0 
L 697 3053 
L 147 3053 
L 147 3500 
L 697 3500 
L 697 3744 
Q 697 4328 969 4595 
Q 1241 4863 1831 4863 
L 2375 4863 
z
" id="DejaVuSans-66" transform="scale(0.015625)"/>
       <path d="M 1259 4147 
L 1259 519 
L 2022 519 
Q 2988 519 3436 956 
Q 3884 1394 3884 2338 
Q 3884 3275 3436 3711 
Q 2988 4147 2022 4147 
L 1259 4147 
z
M 628 4666 
L 1925 4666 
Q 3281 4666 3915 4102 
Q 4550 3538 4550 2338 
Q 4550 1131 3912 565 
Q 3275 0 1925 0 
L 628 0 
L 628 4666 
z
" id="DejaVuSans-44" transform="scale(0.015625)"/>
      </defs>
      <use xlink:href="#DejaVuSans-6c"/>
      <use x="27.783203" xlink:href="#DejaVuSans-6f"/>
      <use x="88.964844" xlink:href="#DejaVuSans-67"/>
      <use x="152.441406" xlink:href="#DejaVuSans-31"/>
      <use x="216.064453" xlink:href="#DejaVuSans-30"/>
      <use x="279.6875" xlink:href="#DejaVuSans-20"/>
      <use x="311.474609" xlink:href="#DejaVuSans-6f"/>
      <use x="372.65625" xlink:href="#DejaVuSans-66"/>
      <use x="407.861328" xlink:href="#DejaVuSans-20"/>
      <use x="439.648438" xlink:href="#DejaVuSans-44"/>
      <use x="516.650391" xlink:href="#DejaVuSans-66"/>
     </g>
    </g>
   </g>
   <g id="matplotlib.axis_2">
    <g id="ytick_1">
     <g id="line2d_9">
      <path clip-path="url(#p0a818c19d8)" d="M 0 293.76 
L 460.8 293.76 
" style="fill:none;stroke:#b0b0b0;stroke-linecap:square;stroke-width:0.8;"/>
     </g>
     <g id="line2d_10">
      <defs>
       <path d="M 0 0 
L -3.5 0 
" id="mf1a4ea607e" style="stroke:#000000;stroke-width:0.8;"/>
      </defs>
      <g>
       <use style="stroke:#000000;stroke-width:0.8;" x="0" xlink:href="#mf1a4ea607e" y="293.76"/>
      </g>
     </g>
    </g>
    <g id="ytick_2">
     <g id="line2d_11">
      <path clip-path="url(#p0a818c19d8)" d="M 0 236.274059 
L 460.8 236.274059 
" style="fill:none;stroke:#b0b0b0;stroke-linecap:square;stroke-width:0.8;"/>
     </g>
     <g id="line2d_12">
      <g>
       <use style="stroke:#000000;stroke-width:0.8;" x="0" xlink:href="#mf1a4ea607e" y="236.274059"/>
      </g>
     </g>
    </g>
    <g id="ytick_3">
     <g id="line2d_13">
      <path clip-path="url(#p0a818c19d8)" d="M 0 178.788119 
L 460.8 178.788119 
" style="fill:none;stroke:#b0b0b0;stroke-linecap:square;stroke-width:0.8;"/>
     </g>
     <g id="line2d_14">
      <g>
       <use style="stroke:#000000;stroke-width:0.8;" x="0" xlink:href="#mf1a4ea607e" y="178.788119"/>
      </g>
     </g>
    </g>
    <g id="ytick_4">
     <g id="line2d_15">
      <path clip-path="url(#p0a818c19d8)" d="M 0 121.302178 
L 460.8 121.302178 
" style="fill:none;stroke:#b0b0b0;stroke-linecap:square;stroke-width:0.8;"/>
     </g>
     <g id="line2d_16">
      <g>
       <use style="stroke:#000000;stroke-width:0.8;" x="0" xlink:href="#mf1a4ea607e" y="121.302178"/>
      </g>
     </g>
    </g>
    <g id="ytick_5">
     <g id="line2d_17">
      <path clip-path="url(#p0a818c19d8)" d="M 0 63.816238 
L 460.8 63.816238 
" style="fill:none;stroke:#b0b0b0;stroke-linecap:square;stroke-width:0.8;"/>
     </g>
     <g id="line2d_18">
      <g>
       <use style="stroke:#000000;stroke-width:0.8;" x="0" xlink:href="#mf1a4ea607e" y="63.816238"/>
      </g>
     </g>
    </g>
    <g id="ytick_6">
     <g id="line2d_19">
      <path clip-path="url(#p0a818c19d8)" d="M 0 6.330297 
L 460.8 6.330297 
" style="fill:none;stroke:#b0b0b0;stroke-linecap:square;stroke-width:0.8;"/>
     </g>
     <g id="line2d_20">
      <g>
       <use style="stroke:#000000;stroke-width:0.8;" x="0" xlink:href="#mf1a4ea607e" y="6.330297"/>
      </g>
     </g>
    </g>
   </g>
   <g id="line2d_21">
    <path clip-path="url(#p0a818c19d8)" d="M -1 178.788119 
L -0.113294 178.788119 
L -0.113294 98.307802 
L 158.458557 98.307802 
L 158.458557 94.475406 
L 167.729558 94.475406 
L 167.729558 90.64301 
L 168.702418 90.64301 
L 168.702445 82.978218 
L 173.147199 82.978218 
L 173.147199 79.145822 
L 173.848724 79.145822 
L 173.849494 71.48103 
L 183.430216 71.48103 
L 183.430216 67.648634 
L 185.993568 67.648634 
L 185.993568 63.816238 
L 189.378534 63.816238 
L 189.378534 59.983842 
L 190.453324 59.983842 
L 190.453324 56.151446 
L 191.170642 56.151446 
L 191.170642 52.31905 
L 194.614883 52.31905 
L 194.614883 48.486653 
L 196.411062 48.486653 
L 196.411062 44.654257 
L 205.744252 44.654257 
L 205.744252 40.821861 
L 209.565622 40.821861 
L 209.565622 17.827485 
L 217.457742 17.827485 
L 217.457742 10.162693 
L 222.074337 10.162693 
L 222.074337 6.330297 
L 222.074337 6.330297 
L 460.8 6.330297 
L 460.8 6.330297 
" style="fill:none;stroke:#ff0000;stroke-linecap:square;stroke-width:3;"/>
   </g>
   <g id="line2d_22">
    <path clip-path="url(#p0a818c19d8)" d="M 227.299667 293.76 
L 227.299667 289.927604 
L 227.614867 289.927604 
L 227.614867 286.095208 
L 230.078344 286.095208 
L 230.078344 282.262812 
L 231.800901 282.262812 
L 231.800901 278.430416 
L 231.986671 278.430416 
L 231.986671 274.59802 
L 232.388197 274.59802 
L 232.388197 270.765624 
L 232.972684 270.765624 
L 233.026529 263.100832 
L 234.950064 263.100832 
L 234.950064 259.268436 
L 235.467285 259.268436 
L 235.467285 255.43604 
L 235.828286 255.43604 
L 235.918641 247.771248 
L 236.048618 247.771248 
L 236.048618 243.938851 
L 236.374532 243.938851 
L 236.374532 240.106455 
L 236.837379 240.106455 
L 236.837379 236.274059 
L 237.142806 236.274059 
L 237.224218 224.776871 
L 237.857458 224.776871 
L 237.859045 217.112079 
L 238.367656 217.112079 
L 238.428278 209.447287 
L 238.780636 209.447287 
L 238.82781 201.782495 
L 239.373241 201.782495 
L 239.373241 197.950099 
L 239.568082 197.950099 
L 239.568082 194.117703 
L 242.462708 194.117703 
L 242.462708 190.285307 
L 243.359368 190.285307 
L 243.359368 186.452911 
L 243.606901 186.452911 
L 243.703355 178.788119 
L 244.289339 178.788119 
L 244.289339 174.955723 
L 247.37274 174.955723 
L 247.37274 171.123327 
L 248.238724 171.123327 
L 248.238724 167.290931 
L 249.45634 167.290931 
L 249.45634 163.458535 
L 250.936904 163.458535 
L 250.936904 159.626139 
L 251.968314 159.626139 
L 251.968314 155.793743 
L 252.527092 155.793743 
L 252.527092 151.961347 
L 253.184921 151.961347 
L 253.184921 148.12895 
L 253.823515 148.12895 
L 253.823515 144.296554 
L 254.097886 144.296554 
L 254.097886 140.464158 
L 254.569502 140.464158 
L 254.569502 136.631762 
L 254.751465 136.631762 
L 254.751465 132.799366 
L 255.679259 132.799366 
L 255.679259 128.96697 
L 255.830099 128.96697 
L 255.830099 125.134574 
L 256.779269 125.134574 
L 256.779269 121.302178 
L 257.111873 121.302178 
L 257.20858 113.637386 
L 257.647884 113.637386 
L 257.647884 109.80499 
L 257.861492 109.80499 
L 257.861492 105.972594 
L 258.317043 105.972594 
L 258.317043 102.140198 
L 258.738063 102.140198 
L 258.738063 98.307802 
L 258.96831 98.307802 
L 258.96831 94.475406 
L 259.220294 94.475406 
L 259.220294 90.64301 
L 259.39597 90.64301 
L 259.39597 86.810614 
L 259.563157 86.810614 
L 259.569661 79.145822 
L 260.784378 79.145822 
L 260.784378 75.313426 
L 262.554847 75.313426 
L 262.649741 63.816238 
L 262.868497 63.816238 
L 262.934703 56.151446 
L 262.990192 56.151446 
L 262.999337 48.486653 
L 263.753788 48.486653 
L 263.753788 44.654257 
L 264.54323 44.654257 
L 264.54323 40.821861 
L 265.336585 40.821861 
L 265.336585 36.989465 
L 266.07956 36.989465 
L 266.07956 33.157069 
L 267.27344 33.157069 
L 267.27344 29.324673 
L 269.629183 29.324673 
L 269.629183 25.492277 
L 270.7875 25.492277 
L 270.7875 21.659881 
L 272.315161 21.659881 
L 272.315161 17.827485 
L 272.67224 17.827485 
L 272.67224 13.995089 
L 277.643307 13.995089 
L 277.643307 10.162693 
L 278.275184 10.162693 
L 278.275184 6.330297 
L 278.275184 6.330297 
L 460.8 6.330297 
L 460.8 6.330297 
" style="fill:none;stroke:#00bfbf;stroke-linecap:square;stroke-width:1.5;"/>
   </g>
   <g id="line2d_23">
    <path clip-path="url(#p0a818c19d8)" d="M 216.232393 293.76 
L 216.232393 289.927604 
L 220.645617 289.927604 
L 220.645617 286.095208 
L 222.891486 286.095208 
L 222.891486 282.262812 
L 223.195868 282.262812 
L 223.195868 278.430416 
L 224.565796 278.430416 
L 224.565796 274.59802 
L 227.299667 274.59802 
L 227.299667 270.765624 
L 227.614867 270.765624 
L 227.614867 266.933228 
L 230.078344 266.933228 
L 230.078344 263.100832 
L 230.215954 263.100832 
L 230.215954 259.268436 
L 231.986671 259.268436 
L 231.986671 255.43604 
L 232.284872 255.43604 
L 232.388197 247.771248 
L 232.457857 247.771248 
L 232.457857 243.938851 
L 232.972684 243.938851 
L 232.972684 240.106455 
L 233.242439 240.106455 
L 233.255217 228.609267 
L 233.599987 228.609267 
L 233.599987 224.776871 
L 233.832592 224.776871 
L 233.832592 220.944475 
L 234.116721 220.944475 
L 234.116721 217.112079 
L 234.302962 217.112079 
L 234.302962 213.279683 
L 234.884135 213.279683 
L 234.950064 205.614891 
L 235.013308 205.614891 
L 235.013308 201.782495 
L 235.467285 201.782495 
L 235.467285 197.950099 
L 235.764123 197.950099 
L 235.764123 194.117703 
L 236.837379 194.117703 
L 236.837379 190.285307 
L 237.839983 190.285307 
L 237.859045 178.788119 
L 239.776718 178.788119 
L 239.776718 174.955723 
L 240.034155 174.955723 
L 240.098335 167.290931 
L 246.720718 167.290931 
L 246.720718 163.458535 
L 247.036679 163.458535 
L 247.036679 159.626139 
L 247.37274 159.626139 
L 247.37274 155.793743 
L 247.969188 155.793743 
L 247.969188 151.961347 
L 248.238724 151.961347 
L 248.261823 144.296554 
L 248.497334 144.296554 
L 248.533248 136.631762 
L 249.270615 136.631762 
L 249.270615 132.799366 
L 250.58488 132.799366 
L 250.58488 128.96697 
L 250.936904 128.96697 
L 250.936904 125.134574 
L 251.289268 125.134574 
L 251.289268 121.302178 
L 251.609462 121.302178 
L 251.609462 117.469782 
L 252.527092 117.469782 
L 252.527092 113.637386 
L 252.860818 113.637386 
L 252.860818 109.80499 
L 253.439958 109.80499 
L 253.520599 102.140198 
L 253.801926 102.140198 
L 253.801926 98.307802 
L 253.93647 98.307802 
L 253.93647 94.475406 
L 254.097886 94.475406 
L 254.194124 86.810614 
L 254.751465 86.810614 
L 254.751465 82.978218 
L 255.540607 82.978218 
L 255.540607 79.145822 
L 255.679259 79.145822 
L 255.679259 75.313426 
L 256.471547 75.313426 
L 256.575088 63.816238 
L 256.779269 63.816238 
L 256.856708 56.151446 
L 256.918298 56.151446 
L 256.918298 52.31905 
L 257.414966 52.31905 
L 257.414966 48.486653 
L 259.724974 48.486653 
L 259.724974 44.654257 
L 260.482655 44.654257 
L 260.482655 40.821861 
L 260.784378 40.821861 
L 260.784378 36.989465 
L 261.154452 36.989465 
L 261.154452 33.157069 
L 262.990192 33.157069 
L 262.990192 29.324673 
L 264.204437 29.324673 
L 264.284941 21.659881 
L 265.764205 21.659881 
L 265.764205 17.827485 
L 267.27344 17.827485 
L 267.27344 13.995089 
L 269.91037 13.995089 
L 269.91037 10.162693 
L 274.33277 10.162693 
L 274.33277 6.330297 
L 274.33277 6.330297 
L 460.8 6.330297 
L 460.8 6.330297 
" style="fill:none;stroke:#bf00bf;stroke-linecap:square;stroke-width:1.5;"/>
   </g>
   <g id="line2d_24">
    <path clip-path="url(#p0a818c19d8)" d="M 216.232393 293.76 
L 216.232393 289.927604 
L 220.645617 289.927604 
L 220.645617 286.095208 
L 221.124728 286.095208 
L 221.124728 282.262812 
L 222.891486 282.262812 
L 222.891486 278.430416 
L 223.195868 278.430416 
L 223.195868 274.59802 
L 224.565796 274.59802 
L 224.565796 270.765624 
L 225.110679 270.765624 
L 225.110679 266.933228 
L 225.45261 266.933228 
L 225.45261 263.100832 
L 226.857326 263.100832 
L 226.908366 255.43604 
L 227.299667 255.43604 
L 227.299667 251.603644 
L 227.614867 251.603644 
L 227.614867 247.771248 
L 228.254428 247.771248 
L 228.254428 243.938851 
L 230.078344 243.938851 
L 230.078344 240.106455 
L 230.462485 240.106455 
L 230.55728 232.441663 
L 230.62926 232.441663 
L 230.62926 228.609267 
L 231.810238 228.609267 
L 231.810238 224.776871 
L 231.986671 224.776871 
L 231.986671 220.944475 
L 232.196991 220.944475 
L 232.284872 213.279683 
L 232.388197 213.279683 
L 232.388197 209.447287 
L 232.972684 209.447287 
L 232.972684 205.614891 
L 233.252073 205.614891 
L 233.255217 197.950099 
L 233.599987 197.950099 
L 233.599987 194.117703 
L 234.116721 194.117703 
L 234.116721 190.285307 
L 234.235649 190.285307 
L 234.235649 186.452911 
L 235.467285 186.452911 
L 235.467285 182.620515 
L 236.402234 182.620515 
L 236.402234 178.788119 
L 237.31275 178.788119 
L 237.31275 174.955723 
L 237.525059 174.955723 
L 237.525059 171.123327 
L 237.859045 171.123327 
L 237.859045 167.290931 
L 239.037569 167.290931 
L 239.037569 163.458535 
L 241.059839 163.458535 
L 241.059839 159.626139 
L 242.944279 159.626139 
L 242.944279 155.793743 
L 243.947541 155.793743 
L 243.947541 151.961347 
L 244.761819 151.961347 
L 244.761819 148.12895 
L 245.595685 148.12895 
L 245.595685 144.296554 
L 245.934284 144.296554 
L 246.031681 136.631762 
L 246.720718 136.631762 
L 246.720718 132.799366 
L 246.833884 132.799366 
L 246.833884 128.96697 
L 247.036679 128.96697 
L 247.036679 125.134574 
L 247.275104 125.134574 
L 247.37274 117.469782 
L 248.326359 117.469782 
L 248.326359 113.637386 
L 249.270615 113.637386 
L 249.270615 109.80499 
L 250.344093 109.80499 
L 250.344093 105.972594 
L 250.58488 105.972594 
L 250.58488 102.140198 
L 251.289268 102.140198 
L 251.289268 98.307802 
L 251.609462 98.307802 
L 251.609462 94.475406 
L 252.411333 94.475406 
L 252.434691 86.810614 
L 252.527092 86.810614 
L 252.527092 82.978218 
L 252.860818 82.978218 
L 252.860818 79.145822 
L 253.439958 79.145822 
L 253.439958 75.313426 
L 254.194124 75.313426 
L 254.194124 71.48103 
L 254.751465 71.48103 
L 254.751465 67.648634 
L 255.486371 67.648634 
L 255.486371 63.816238 
L 255.679259 63.816238 
L 255.679259 59.983842 
L 256.041938 59.983842 
L 256.041938 56.151446 
L 256.542662 56.151446 
L 256.542662 52.31905 
L 256.779269 52.31905 
L 256.779269 48.486653 
L 257.414966 48.486653 
L 257.414966 44.654257 
L 260.482655 44.654257 
L 260.482655 40.821861 
L 260.596747 40.821861 
L 260.596747 36.989465 
L 260.784378 36.989465 
L 260.784378 33.157069 
L 261.154452 33.157069 
L 261.258969 25.492277 
L 262.990192 25.492277 
L 262.990192 21.659881 
L 264.198602 21.659881 
L 264.198602 17.827485 
L 266.205761 17.827485 
L 266.205761 13.995089 
L 267.27344 13.995089 
L 267.27344 10.162693 
L 269.783309 10.162693 
L 269.783309 6.330297 
L 269.783309 6.330297 
L 460.8 6.330297 
L 460.8 6.330297 
" style="fill:none;stroke:#000000;stroke-linecap:square;stroke-width:1.5;"/>
   </g>
   <g id="line2d_25">
    <path clip-path="url(#p0a818c19d8)" d="M 213.402909 293.76 
L 213.402909 289.927604 
L 216.232393 289.927604 
L 216.232393 286.095208 
L 219.878823 286.095208 
L 219.878823 282.262812 
L 220.645617 282.262812 
L 220.645617 278.430416 
L 222.891486 278.430416 
L 222.891486 274.59802 
L 223.195868 274.59802 
L 223.195868 270.765624 
L 223.37246 270.765624 
L 223.37246 266.933228 
L 223.729375 266.933228 
L 223.775429 255.43604 
L 224.38673 255.43604 
L 224.38673 251.603644 
L 224.565796 251.603644 
L 224.565796 247.771248 
L 225.093854 247.771248 
L 225.110679 240.106455 
L 225.45261 240.106455 
L 225.45261 236.274059 
L 226.857326 236.274059 
L 226.908366 228.609267 
L 227.085488 228.609267 
L 227.085488 224.776871 
L 227.249292 224.776871 
L 227.249292 220.944475 
L 227.563523 220.944475 
L 227.614867 213.279683 
L 227.920275 213.279683 
L 227.920275 209.447287 
L 228.059625 209.447287 
L 228.059625 205.614891 
L 228.254428 205.614891 
L 228.254428 201.782495 
L 228.731862 201.782495 
L 228.740235 194.117703 
L 228.898605 194.117703 
L 228.898605 190.285307 
L 229.923889 190.285307 
L 229.923889 186.452911 
L 231.736625 186.452911 
L 231.736625 182.620515 
L 231.986671 182.620515 
L 231.986671 178.788119 
L 232.366472 178.788119 
L 232.366472 174.955723 
L 235.467285 174.955723 
L 235.467285 171.123327 
L 236.483004 171.123327 
L 236.483004 167.290931 
L 236.772755 167.290931 
L 236.772755 163.458535 
L 237.31275 163.458535 
L 237.31275 159.626139 
L 237.917423 159.626139 
L 237.917423 155.793743 
L 238.409315 155.793743 
L 238.409315 151.961347 
L 238.985322 151.961347 
L 239.037569 144.296554 
L 240.260118 144.296554 
L 240.260118 140.464158 
L 240.813285 140.464158 
L 240.813285 136.631762 
L 241.03294 136.631762 
L 241.059839 128.96697 
L 241.582854 128.96697 
L 241.582854 125.134574 
L 241.93515 125.134574 
L 241.93515 121.302178 
L 242.561042 121.302178 
L 242.561042 117.469782 
L 243.639663 117.469782 
L 243.744449 109.80499 
L 244.761819 109.80499 
L 244.761819 105.972594 
L 245.595685 105.972594 
L 245.595685 102.140198 
L 246.031681 102.140198 
L 246.031681 98.307802 
L 246.283153 98.307802 
L 246.283153 94.475406 
L 246.720718 94.475406 
L 246.720718 90.64301 
L 247.349188 90.64301 
L 247.349306 82.978218 
L 248.013372 82.978218 
L 248.013372 79.145822 
L 249.197988 79.145822 
L 249.197988 75.313426 
L 249.956934 75.313426 
L 249.956934 71.48103 
L 250.645997 71.48103 
L 250.645997 67.648634 
L 251.609462 67.648634 
L 251.609462 63.816238 
L 252.039026 63.816238 
L 252.039026 59.983842 
L 253.258794 59.983842 
L 253.258794 56.151446 
L 253.669123 56.151446 
L 253.669123 52.31905 
L 254.781977 52.31905 
L 254.781977 48.486653 
L 255.486371 48.486653 
L 255.486371 44.654257 
L 256.542662 44.654257 
L 256.542662 40.821861 
L 256.779269 40.821861 
L 256.779269 36.989465 
L 256.95172 36.989465 
L 256.95172 33.157069 
L 258.080505 33.157069 
L 258.080505 29.324673 
L 258.985257 29.324673 
L 258.985257 25.492277 
L 260.458946 25.492277 
L 260.482655 17.827485 
L 261.258969 17.827485 
L 261.258969 13.995089 
L 265.167984 13.995089 
L 265.167984 10.162693 
L 266.018709 10.162693 
L 266.018709 6.330297 
L 266.018709 6.330297 
L 460.8 6.330297 
L 460.8 6.330297 
" style="fill:none;stroke:#00bfbf;stroke-linecap:square;stroke-width:1.5;"/>
   </g>
   <g id="line2d_26">
    <path clip-path="url(#p0a818c19d8)" d="M 200.191857 293.76 
L 200.191857 289.927604 
L 203.702555 289.927604 
L 203.702555 286.095208 
L 204.170201 286.095208 
L 204.170201 282.262812 
L 210.077211 282.262812 
L 210.077211 278.430416 
L 211.311038 278.430416 
L 211.311038 274.59802 
L 211.569791 274.59802 
L 211.569791 270.765624 
L 211.831374 270.765624 
L 211.831374 266.933228 
L 212.633388 266.933228 
L 212.727238 259.268436 
L 212.867286 259.268436 
L 212.867286 255.43604 
L 213.297722 255.43604 
L 213.402909 247.771248 
L 214.26574 247.771248 
L 214.26574 243.938851 
L 214.392272 243.938851 
L 214.392272 240.106455 
L 214.646949 240.106455 
L 214.718722 232.441663 
L 214.843522 232.441663 
L 214.843522 228.609267 
L 215.020372 228.609267 
L 215.020372 224.776871 
L 215.223208 224.776871 
L 215.317269 217.112079 
L 215.405944 217.112079 
L 215.501649 209.447287 
L 215.662871 209.447287 
L 215.662871 205.614891 
L 215.801022 205.614891 
L 215.801022 201.782495 
L 216.521701 201.782495 
L 216.521701 197.950099 
L 217.244811 197.950099 
L 217.244811 194.117703 
L 217.429411 194.117703 
L 217.429411 190.285307 
L 218.138521 190.285307 
L 218.207247 182.620515 
L 218.938958 182.620515 
L 218.938958 178.788119 
L 219.761429 178.788119 
L 219.761429 174.955723 
L 224.846197 174.955723 
L 224.904624 167.290931 
L 225.433535 167.290931 
L 225.433535 163.458535 
L 225.779871 163.458535 
L 225.779871 159.626139 
L 226.102607 159.626139 
L 226.11467 151.961347 
L 226.908366 151.961347 
L 226.908366 148.12895 
L 227.495225 148.12895 
L 227.582048 136.631762 
L 227.616768 136.631762 
L 227.616768 132.799366 
L 227.828381 132.799366 
L 227.828381 128.96697 
L 228.021437 128.96697 
L 228.122698 121.302178 
L 228.392822 121.302178 
L 228.392822 117.469782 
L 229.550159 117.469782 
L 229.550159 113.637386 
L 229.929586 113.637386 
L 229.929586 109.80499 
L 230.381016 109.80499 
L 230.444808 102.140198 
L 230.717787 102.140198 
L 230.717787 98.307802 
L 231.414056 98.307802 
L 231.414056 94.475406 
L 232.800491 94.475406 
L 232.800491 90.64301 
L 233.094977 90.64301 
L 233.094977 86.810614 
L 233.832159 86.810614 
L 233.832159 82.978218 
L 234.355662 82.978218 
L 234.355662 79.145822 
L 234.736659 79.145822 
L 234.736659 75.313426 
L 235.910453 75.313426 
L 235.910453 71.48103 
L 238.057362 71.48103 
L 238.057362 67.648634 
L 238.290872 67.648634 
L 238.290872 63.816238 
L 242.254493 63.816238 
L 242.254493 59.983842 
L 243.037519 59.983842 
L 243.037519 56.151446 
L 243.490978 56.151446 
L 243.490978 52.31905 
L 244.118707 52.31905 
L 244.118707 48.486653 
L 245.825651 48.486653 
L 245.825651 44.654257 
L 246.302007 44.654257 
L 246.302007 40.821861 
L 246.421455 40.821861 
L 246.483566 33.157069 
L 246.930641 33.157069 
L 246.930641 29.324673 
L 247.216915 29.324673 
L 247.216915 25.492277 
L 247.763806 25.492277 
L 247.763806 21.659881 
L 248.761876 21.659881 
L 248.761876 17.827485 
L 249.199678 17.827485 
L 249.199678 13.995089 
L 250.116968 13.995089 
L 250.116968 10.162693 
L 250.375596 10.162693 
L 250.375596 6.330297 
L 250.375596 6.330297 
L 460.8 6.330297 
L 460.8 6.330297 
" style="fill:none;stroke:#bf00bf;stroke-linecap:square;stroke-width:1.5;"/>
   </g>
   <g id="line2d_27">
    <path clip-path="url(#p0a818c19d8)" d="M 5.974878 293.76 
L 5.974878 289.927604 
L 66.812203 289.927604 
L 66.812203 286.095208 
L 74.686002 286.095208 
L 74.686002 282.262812 
L 77.136527 282.262812 
L 77.136527 278.430416 
L 78.338547 278.430416 
L 78.338547 274.59802 
L 81.720135 274.59802 
L 81.720135 270.765624 
L 82.745166 270.765624 
L 82.745166 266.933228 
L 82.863656 266.933228 
L 82.863656 263.100832 
L 83.483289 263.100832 
L 83.483289 259.268436 
L 85.852922 259.268436 
L 85.868861 251.603644 
L 88.784832 251.603644 
L 88.784832 247.771248 
L 89.181337 247.771248 
L 89.181337 243.938851 
L 90.320308 243.938851 
L 90.320308 240.106455 
L 90.720949 240.106455 
L 90.720949 236.274059 
L 90.967535 236.274059 
L 90.967535 232.441663 
L 91.545592 232.441663 
L 91.545592 228.609267 
L 91.739159 228.609267 
L 91.739159 224.776871 
L 95.328269 224.776871 
L 95.328269 220.944475 
L 96.833044 220.944475 
L 96.833044 217.112079 
L 100.682327 217.112079 
L 100.682327 213.279683 
L 100.931712 213.279683 
L 100.931712 209.447287 
L 101.520446 209.447287 
L 101.520446 205.614891 
L 101.736043 205.614891 
L 101.736043 201.782495 
L 101.926427 201.782495 
L 101.926427 197.950099 
L 104.559046 197.950099 
L 104.559046 194.117703 
L 104.771225 194.117703 
L 104.771225 190.285307 
L 107.038951 190.285307 
L 107.038951 186.452911 
L 107.232471 186.452911 
L 107.232471 182.620515 
L 107.380759 182.620515 
L 107.380759 178.788119 
L 108.12464 178.788119 
L 108.12464 174.955723 
L 109.308733 174.955723 
L 109.308733 171.123327 
L 111.594137 171.123327 
L 111.594137 167.290931 
L 112.860128 167.290931 
L 112.860128 163.458535 
L 113.943104 163.458535 
L 113.943104 159.626139 
L 114.712868 159.626139 
L 114.712868 155.793743 
L 115.977703 155.793743 
L 116.072976 148.12895 
L 117.418583 148.12895 
L 117.418583 144.296554 
L 119.207623 144.296554 
L 119.207623 140.464158 
L 125.469477 140.464158 
L 125.469477 136.631762 
L 146.795174 136.631762 
L 146.795174 132.799366 
L 157.017418 132.799366 
L 157.017418 128.96697 
L 166.249721 128.96697 
L 166.249721 125.134574 
L 169.989948 125.134574 
L 169.989948 121.302178 
L 180.985784 121.302178 
L 180.985784 117.469782 
L 181.856544 117.469782 
L 181.856544 113.637386 
L 184.39015 113.637386 
L 184.39015 109.80499 
L 185.427644 109.80499 
L 185.427644 105.972594 
L 188.031215 105.972594 
L 188.031215 102.140198 
L 190.157313 102.140198 
L 190.157313 98.307802 
L 190.704142 98.307802 
L 190.704142 94.475406 
L 191.080639 94.475406 
L 191.080639 90.64301 
L 191.33726 90.64301 
L 191.33726 86.810614 
L 193.942545 86.810614 
L 193.942545 82.978218 
L 194.614883 82.978218 
L 194.614883 79.145822 
L 195.104243 79.145822 
L 195.104243 75.313426 
L 195.623399 75.313426 
L 195.623399 71.48103 
L 199.2542 71.48103 
L 199.2542 67.648634 
L 201.689744 67.648634 
L 201.689744 63.816238 
L 204.962209 63.816238 
L 204.962209 59.983842 
L 205.744252 59.983842 
L 205.744252 56.151446 
L 206.283121 56.151446 
L 206.283121 52.31905 
L 207.163793 52.31905 
L 207.163793 48.486653 
L 209.565622 48.486653 
L 209.568959 29.324673 
L 211.493755 29.324673 
L 211.493755 25.492277 
L 214.246135 25.492277 
L 214.246135 21.659881 
L 217.457745 21.659881 
L 217.457856 13.995089 
L 221.389641 13.995089 
L 221.389641 10.162693 
L 222.443569 10.162693 
L 222.443569 6.330297 
L 222.443569 6.330297 
L 460.8 6.330297 
L 460.8 6.330297 
" style="fill:none;stroke:#000000;stroke-linecap:square;stroke-width:1.5;"/>
   </g>
   <g id="line2d_28">
    <path clip-path="url(#p0a818c19d8)" d="M -1 178.788119 
L -0.113294 178.788119 
L -0.113294 98.307802 
L 158.458557 98.307802 
L 158.458557 94.475406 
L 167.729558 94.475406 
L 167.729558 90.64301 
L 168.702445 90.64301 
L 168.702447 82.978218 
L 173.147199 82.978218 
L 173.147199 79.145822 
L 173.848724 79.145822 
L 173.85171 71.48103 
L 183.430216 71.48103 
L 183.430216 67.648634 
L 186.012232 67.648634 
L 186.012232 63.816238 
L 189.39231 63.816238 
L 189.39231 59.983842 
L 190.510658 59.983842 
L 190.510658 56.151446 
L 191.170642 56.151446 
L 191.170642 52.31905 
L 194.614883 52.31905 
L 194.614883 48.486653 
L 196.411062 48.486653 
L 196.411062 44.654257 
L 205.744252 44.654257 
L 205.744252 40.821861 
L 209.565622 40.821861 
L 209.565622 17.827485 
L 217.457742 17.827485 
L 217.457742 10.162693 
L 222.074337 10.162693 
L 222.074337 6.330297 
L 222.074337 6.330297 
L 460.8 6.330297 
L 460.8 6.330297 
" style="fill:none;stroke:#00bfbf;stroke-linecap:square;stroke-width:1.5;"/>
   </g>
   <g id="patch_3">
    <path d="M 0 293.76 
L 0 3.456 
" style="fill:none;stroke:#000000;stroke-linecap:square;stroke-linejoin:miter;stroke-width:0.8;"/>
   </g>
   <g id="patch_4">
    <path d="M 460.8 293.76 
L 460.8 3.456 
" style="fill:none;stroke:#000000;stroke-linecap:square;stroke-linejoin:miter;stroke-width:0.8;"/>
   </g>
   <g id="patch_5">
    <path d="M 0 293.76 
L 460.8 293.76 
" style="fill:none;stroke:#000000;stroke-linecap:square;stroke-linejoin:miter;stroke-width:0.8;"/>
   </g>
   <g id="patch_6">
    <path d="M 0 3.456 
L 460.8 3.456 
" style="fill:none;stroke:#000000;stroke-linecap:square;stroke-linejoin:miter;stroke-width:0.8;"/>
   </g>
   <g id="text_6">
    <!-- {f15-f19}, 5-D -->
    <g transform="translate(305.884 287.95392)scale(0.2 -0.2)">
     <defs>
      <path d="M 3272 -594 
L 3272 -1044 
L 3078 -1044 
Q 2300 -1044 2036 -812 
Q 1772 -581 1772 109 
L 1772 856 
Q 1772 1328 1603 1509 
Q 1434 1691 991 1691 
L 800 1691 
L 800 2138 
L 991 2138 
Q 1438 2138 1605 2317 
Q 1772 2497 1772 2963 
L 1772 3713 
Q 1772 4403 2036 4633 
Q 2300 4863 3078 4863 
L 3272 4863 
L 3272 4416 
L 3059 4416 
Q 2619 4416 2484 4278 
Q 2350 4141 2350 3700 
L 2350 2925 
Q 2350 2434 2208 2212 
Q 2066 1991 1722 1913 
Q 2069 1828 2209 1606 
Q 2350 1384 2350 897 
L 2350 122 
Q 2350 -319 2484 -456 
Q 2619 -594 3059 -594 
L 3272 -594 
z
" id="DejaVuSans-7b" transform="scale(0.015625)"/>
      <path d="M 691 4666 
L 3169 4666 
L 3169 4134 
L 1269 4134 
L 1269 2991 
Q 1406 3038 1543 3061 
Q 1681 3084 1819 3084 
Q 2600 3084 3056 2656 
Q 3513 2228 3513 1497 
Q 3513 744 3044 326 
Q 2575 -91 1722 -91 
Q 1428 -91 1123 -41 
Q 819 9 494 109 
L 494 744 
Q 775 591 1075 516 
Q 1375 441 1709 441 
Q 2250 441 2565 725 
Q 2881 1009 2881 1497 
Q 2881 1984 2565 2268 
Q 2250 2553 1709 2553 
Q 1456 2553 1204 2497 
Q 953 2441 691 2322 
L 691 4666 
z
" id="DejaVuSans-35" transform="scale(0.015625)"/>
      <path d="M 703 97 
L 703 672 
Q 941 559 1184 500 
Q 1428 441 1663 441 
Q 2288 441 2617 861 
Q 2947 1281 2994 2138 
Q 2813 1869 2534 1725 
Q 2256 1581 1919 1581 
Q 1219 1581 811 2004 
Q 403 2428 403 3163 
Q 403 3881 828 4315 
Q 1253 4750 1959 4750 
Q 2769 4750 3195 4129 
Q 3622 3509 3622 2328 
Q 3622 1225 3098 567 
Q 2575 -91 1691 -91 
Q 1453 -91 1209 -44 
Q 966 3 703 97 
z
M 1959 2075 
Q 2384 2075 2632 2365 
Q 2881 2656 2881 3163 
Q 2881 3666 2632 3958 
Q 2384 4250 1959 4250 
Q 1534 4250 1286 3958 
Q 1038 3666 1038 3163 
Q 1038 2656 1286 2365 
Q 1534 2075 1959 2075 
z
" id="DejaVuSans-39" transform="scale(0.015625)"/>
      <path d="M 800 -594 
L 1019 -594 
Q 1456 -594 1589 -459 
Q 1722 -325 1722 122 
L 1722 897 
Q 1722 1384 1862 1606 
Q 2003 1828 2350 1913 
Q 2003 1991 1862 2212 
Q 1722 2434 1722 2925 
L 1722 3700 
Q 1722 4144 1589 4280 
Q 1456 4416 1019 4416 
L 800 4416 
L 800 4863 
L 997 4863 
Q 1775 4863 2036 4633 
Q 2297 4403 2297 3713 
L 2297 2963 
Q 2297 2497 2465 2317 
Q 2634 2138 3078 2138 
L 3272 2138 
L 3272 1691 
L 3078 1691 
Q 2634 1691 2465 1509 
Q 2297 1328 2297 856 
L 2297 109 
Q 2297 -581 2036 -812 
Q 1775 -1044 997 -1044 
L 800 -1044 
L 800 -594 
z
" id="DejaVuSans-7d" transform="scale(0.015625)"/>
      <path d="M 750 794 
L 1409 794 
L 1409 256 
L 897 -744 
L 494 -744 
L 750 256 
L 750 794 
z
" id="DejaVuSans-2c" transform="scale(0.015625)"/>
     </defs>
     <use xlink:href="#DejaVuSans-7b"/>
     <use x="63.623047" xlink:href="#DejaVuSans-66"/>
     <use x="98.828125" xlink:href="#DejaVuSans-31"/>
     <use x="162.451172" xlink:href="#DejaVuSans-35"/>
     <use x="226.074219" xlink:href="#DejaVuSans-2d"/>
     <use x="262.158203" xlink:href="#DejaVuSans-66"/>
     <use x="297.363281" xlink:href="#DejaVuSans-31"/>
     <use x="360.986328" xlink:href="#DejaVuSans-39"/>
     <use x="424.609375" xlink:href="#DejaVuSans-7d"/>
     <use x="488.232422" xlink:href="#DejaVuSans-2c"/>
     <use x="520.019531" xlink:href="#DejaVuSans-20"/>
     <use x="551.806641" xlink:href="#DejaVuSans-35"/>
     <use x="615.429688" xlink:href="#DejaVuSans-2d"/>
     <use x="651.513672" xlink:href="#DejaVuSans-44"/>
    </g>
   </g>
   <g id="text_7">
    <!-- v2.4 -->
    <g style="fill:#808080;" transform="translate(219.489063 288.777272)scale(0.1 -0.1)">
     <defs>
      <path d="M 191 3500 
L 800 3500 
L 1894 563 
L 2988 3500 
L 3597 3500 
L 2284 0 
L 1503 0 
L 191 3500 
z
" id="DejaVuSans-76" transform="scale(0.015625)"/>
      <path d="M 1228 531 
L 3431 531 
L 3431 0 
L 469 0 
L 469 531 
Q 828 903 1448 1529 
Q 2069 2156 2228 2338 
Q 2531 2678 2651 2914 
Q 2772 3150 2772 3378 
Q 2772 3750 2511 3984 
Q 2250 4219 1831 4219 
Q 1534 4219 1204 4116 
Q 875 4013 500 3803 
L 500 4441 
Q 881 4594 1212 4672 
Q 1544 4750 1819 4750 
Q 2544 4750 2975 4387 
Q 3406 4025 3406 3419 
Q 3406 3131 3298 2873 
Q 3191 2616 2906 2266 
Q 2828 2175 2409 1742 
Q 1991 1309 1228 531 
z
" id="DejaVuSans-32" transform="scale(0.015625)"/>
      <path d="M 684 794 
L 1344 794 
L 1344 0 
L 684 0 
L 684 794 
z
" id="DejaVuSans-2e" transform="scale(0.015625)"/>
     </defs>
     <use xlink:href="#DejaVuSans-76"/>
     <use x="59.179688" xlink:href="#DejaVuSans-32"/>
     <use x="122.802734" xlink:href="#DejaVuSans-2e"/>
     <use x="154.589844" xlink:href="#DejaVuSans-34"/>
    </g>
   </g>
  </g>
 </g>
 <defs>
  <clipPath id="p0a818c19d8">
   <rect height="290.304" width="460.8" x="0" y="3.456"/>
  </clipPath>
 </defs>
</svg>
