<?xml version="1.0" encoding="utf-8" standalone="no"?>
<!DOCTYPE svg PUBLIC "-//W3C//DTD SVG 1.1//EN"
  "http://www.w3.org/Graphics/SVG/1.1/DTD/svg11.dtd">
<svg height="345.6pt" version="1.1" viewBox="0 0 460.8 345.6" width="460.8pt" xmlns="http://www.w3.org/2000/svg" xmlns:xlink="http://www.w3.org/1999/xlink">
 <metadata>
  <rdf:RDF xmlns:cc="http://creativecommons.org/ns#" xmlns:dc="http://purl.org/dc/elements/1.1/" xmlns:rdf="http://www.w3.org/1999/02/22-rdf-syntax-ns#">
   <cc:Work>
    <dc:type rdf:resource="http://purl.org/dc/dcmitype/StillImage"/>
    <dc:date>2021-07-27T16:03:41.943783</dc:date>
    <dc:format>image/svg+xml</dc:format>
    <dc:creator>
     <cc:Agent>
      <dc:title>Matplotlib v3.4.2, https://matplotlib.org/</dc:title>
     </cc:Agent>
    </dc:creator>
   </cc:Work>
  </rdf:RDF>
 </metadata>
 <defs>
  <style type="text/css">*{stroke-linecap:butt;stroke-linejoin:round;}</style>
 </defs>
 <g id="figure_1">
  <g id="patch_1">
   <path d="M 0 345.6 
L 460.8 345.6 
L 460.8 0 
L 0 0 
z
" style="fill:#ffffff;"/>
  </g>
  <g id="axes_1">
   <g id="patch_2">
    <path d="M 0 293.76 
L 460.8 293.76 
L 460.8 3.456 
L 0 3.456 
z
" style="fill:#ffffff;"/>
   </g>
   <g id="matplotlib.axis_1">
    <g id="xtick_1">
     <g id="line2d_1">
      <path clip-path="url(#pe4555c4253)" d="M 102.609626 293.76 
L 102.609626 3.456 
" style="fill:none;stroke:#b0b0b0;stroke-linecap:square;stroke-width:0.8;"/>
     </g>
     <g id="line2d_2">
      <defs>
       <path d="M 0 0 
L 0 3.5 
" id="m22cd52bf47" style="stroke:#000000;stroke-width:0.8;"/>
      </defs>
      <g>
       <use style="stroke:#000000;stroke-width:0.8;" x="102.609626" xlink:href="#m22cd52bf47" y="293.76"/>
      </g>
     </g>
     <g id="text_1">
      <!-- -4 -->
      <g transform="translate(92.639313 315.956875)scale(0.2 -0.2)">
       <defs>
        <path d="M 313 2009 
L 1997 2009 
L 1997 1497 
L 313 1497 
L 313 2009 
z
" id="DejaVuSans-2d" transform="scale(0.015625)"/>
        <path d="M 2419 4116 
L 825 1625 
L 2419 1625 
L 2419 4116 
z
M 2253 4666 
L 3047 4666 
L 3047 1625 
L 3713 1625 
L 3713 1100 
L 3047 1100 
L 3047 0 
L 2419 0 
L 2419 1100 
L 313 1100 
L 313 1709 
L 2253 4666 
z
" id="DejaVuSans-34" transform="scale(0.015625)"/>
       </defs>
       <use xlink:href="#DejaVuSans-2d"/>
       <use x="36.083984" xlink:href="#DejaVuSans-34"/>
      </g>
     </g>
    </g>
    <g id="xtick_2">
     <g id="line2d_3">
      <path clip-path="url(#pe4555c4253)" d="M 205.330225 293.76 
L 205.330225 3.456 
" style="fill:none;stroke:#b0b0b0;stroke-linecap:square;stroke-width:0.8;"/>
     </g>
     <g id="line2d_4">
      <g>
       <use style="stroke:#000000;stroke-width:0.8;" x="205.330225" xlink:href="#m22cd52bf47" y="293.76"/>
      </g>
     </g>
     <g id="text_2">
      <!-- 0 -->
      <g transform="translate(198.967725 315.956875)scale(0.2 -0.2)">
       <defs>
        <path d="M 2034 4250 
Q 1547 4250 1301 3770 
Q 1056 3291 1056 2328 
Q 1056 1369 1301 889 
Q 1547 409 2034 409 
Q 2525 409 2770 889 
Q 3016 1369 3016 2328 
Q 3016 3291 2770 3770 
Q 2525 4250 2034 4250 
z
M 2034 4750 
Q 2819 4750 3233 4129 
Q 3647 3509 3647 2328 
Q 3647 1150 3233 529 
Q 2819 -91 2034 -91 
Q 1250 -91 836 529 
Q 422 1150 422 2328 
Q 422 3509 836 4129 
Q 1250 4750 2034 4750 
z
" id="DejaVuSans-30" transform="scale(0.015625)"/>
       </defs>
       <use xlink:href="#DejaVuSans-30"/>
      </g>
     </g>
    </g>
    <g id="xtick_3">
     <g id="line2d_5">
      <path clip-path="url(#pe4555c4253)" d="M 308.050825 293.76 
L 308.050825 3.456 
" style="fill:none;stroke:#b0b0b0;stroke-linecap:square;stroke-width:0.8;"/>
     </g>
     <g id="line2d_6">
      <g>
       <use style="stroke:#000000;stroke-width:0.8;" x="308.050825" xlink:href="#m22cd52bf47" y="293.76"/>
      </g>
     </g>
     <g id="text_3">
      <!-- 4 -->
      <g transform="translate(301.688325 315.956875)scale(0.2 -0.2)">
       <use xlink:href="#DejaVuSans-34"/>
      </g>
     </g>
    </g>
    <g id="xtick_4">
     <g id="line2d_7">
      <path clip-path="url(#pe4555c4253)" d="M 410.771424 293.76 
L 410.771424 3.456 
" style="fill:none;stroke:#b0b0b0;stroke-linecap:square;stroke-width:0.8;"/>
     </g>
     <g id="line2d_8">
      <g>
       <use style="stroke:#000000;stroke-width:0.8;" x="410.771424" xlink:href="#m22cd52bf47" y="293.76"/>
      </g>
     </g>
     <g id="text_4">
      <!-- 8 -->
      <g transform="translate(404.408924 315.956875)scale(0.2 -0.2)">
       <defs>
        <path d="M 2034 2216 
Q 1584 2216 1326 1975 
Q 1069 1734 1069 1313 
Q 1069 891 1326 650 
Q 1584 409 2034 409 
Q 2484 409 2743 651 
Q 3003 894 3003 1313 
Q 3003 1734 2745 1975 
Q 2488 2216 2034 2216 
z
M 1403 2484 
Q 997 2584 770 2862 
Q 544 3141 544 3541 
Q 544 4100 942 4425 
Q 1341 4750 2034 4750 
Q 2731 4750 3128 4425 
Q 3525 4100 3525 3541 
Q 3525 3141 3298 2862 
Q 3072 2584 2669 2484 
Q 3125 2378 3379 2068 
Q 3634 1759 3634 1313 
Q 3634 634 3220 271 
Q 2806 -91 2034 -91 
Q 1263 -91 848 271 
Q 434 634 434 1313 
Q 434 1759 690 2068 
Q 947 2378 1403 2484 
z
M 1172 3481 
Q 1172 3119 1398 2916 
Q 1625 2713 2034 2713 
Q 2441 2713 2670 2916 
Q 2900 3119 2900 3481 
Q 2900 3844 2670 4047 
Q 2441 4250 2034 4250 
Q 1625 4250 1398 4047 
Q 1172 3844 1172 3481 
z
" id="DejaVuSans-38" transform="scale(0.015625)"/>
       </defs>
       <use xlink:href="#DejaVuSans-38"/>
      </g>
     </g>
    </g>
    <g id="text_5">
     <!-- log10 of Df -->
     <g transform="translate(175.214063 339.313125)scale(0.2 -0.2)">
      <defs>
       <path d="M 603 4863 
L 1178 4863 
L 1178 0 
L 603 0 
L 603 4863 
z
" id="DejaVuSans-6c" transform="scale(0.015625)"/>
       <path d="M 1959 3097 
Q 1497 3097 1228 2736 
Q 959 2375 959 1747 
Q 959 1119 1226 758 
Q 1494 397 1959 397 
Q 2419 397 2687 759 
Q 2956 1122 2956 1747 
Q 2956 2369 2687 2733 
Q 2419 3097 1959 3097 
z
M 1959 3584 
Q 2709 3584 3137 3096 
Q 3566 2609 3566 1747 
Q 3566 888 3137 398 
Q 2709 -91 1959 -91 
Q 1206 -91 779 398 
Q 353 888 353 1747 
Q 353 2609 779 3096 
Q 1206 3584 1959 3584 
z
" id="DejaVuSans-6f" transform="scale(0.015625)"/>
       <path d="M 2906 1791 
Q 2906 2416 2648 2759 
Q 2391 3103 1925 3103 
Q 1463 3103 1205 2759 
Q 947 2416 947 1791 
Q 947 1169 1205 825 
Q 1463 481 1925 481 
Q 2391 481 2648 825 
Q 2906 1169 2906 1791 
z
M 3481 434 
Q 3481 -459 3084 -895 
Q 2688 -1331 1869 -1331 
Q 1566 -1331 1297 -1286 
Q 1028 -1241 775 -1147 
L 775 -588 
Q 1028 -725 1275 -790 
Q 1522 -856 1778 -856 
Q 2344 -856 2625 -561 
Q 2906 -266 2906 331 
L 2906 616 
Q 2728 306 2450 153 
Q 2172 0 1784 0 
Q 1141 0 747 490 
Q 353 981 353 1791 
Q 353 2603 747 3093 
Q 1141 3584 1784 3584 
Q 2172 3584 2450 3431 
Q 2728 3278 2906 2969 
L 2906 3500 
L 3481 3500 
L 3481 434 
z
" id="DejaVuSans-67" transform="scale(0.015625)"/>
       <path d="M 794 531 
L 1825 531 
L 1825 4091 
L 703 3866 
L 703 4441 
L 1819 4666 
L 2450 4666 
L 2450 531 
L 3481 531 
L 3481 0 
L 794 0 
L 794 531 
z
" id="DejaVuSans-31" transform="scale(0.015625)"/>
       <path id="DejaVuSans-20" transform="scale(0.015625)"/>
       <path d="M 2375 4863 
L 2375 4384 
L 1825 4384 
Q 1516 4384 1395 4259 
Q 1275 4134 1275 3809 
L 1275 3500 
L 2222 3500 
L 2222 3053 
L 1275 3053 
L 1275 0 
L 697 0 
L 697 3053 
L 147 3053 
L 147 3500 
L 697 3500 
L 697 3744 
Q 697 4328 969 4595 
Q 1241 4863 1831 4863 
L 2375 4863 
z
" id="DejaVuSans-66" transform="scale(0.015625)"/>
       <path d="M 1259 4147 
L 1259 519 
L 2022 519 
Q 2988 519 3436 956 
Q 3884 1394 3884 2338 
Q 3884 3275 3436 3711 
Q 2988 4147 2022 4147 
L 1259 4147 
z
M 628 4666 
L 1925 4666 
Q 3281 4666 3915 4102 
Q 4550 3538 4550 2338 
Q 4550 1131 3912 565 
Q 3275 0 1925 0 
L 628 0 
L 628 4666 
z
" id="DejaVuSans-44" transform="scale(0.015625)"/>
      </defs>
      <use xlink:href="#DejaVuSans-6c"/>
      <use x="27.783203" xlink:href="#DejaVuSans-6f"/>
      <use x="88.964844" xlink:href="#DejaVuSans-67"/>
      <use x="152.441406" xlink:href="#DejaVuSans-31"/>
      <use x="216.064453" xlink:href="#DejaVuSans-30"/>
      <use x="279.6875" xlink:href="#DejaVuSans-20"/>
      <use x="311.474609" xlink:href="#DejaVuSans-6f"/>
      <use x="372.65625" xlink:href="#DejaVuSans-66"/>
      <use x="407.861328" xlink:href="#DejaVuSans-20"/>
      <use x="439.648438" xlink:href="#DejaVuSans-44"/>
      <use x="516.650391" xlink:href="#DejaVuSans-66"/>
     </g>
    </g>
   </g>
   <g id="matplotlib.axis_2">
    <g id="ytick_1">
     <g id="line2d_9">
      <path clip-path="url(#pe4555c4253)" d="M 0 293.76 
L 460.8 293.76 
" style="fill:none;stroke:#b0b0b0;stroke-linecap:square;stroke-width:0.8;"/>
     </g>
     <g id="line2d_10">
      <defs>
       <path d="M 0 0 
L -3.5 0 
" id="md0502d441b" style="stroke:#000000;stroke-width:0.8;"/>
      </defs>
      <g>
       <use style="stroke:#000000;stroke-width:0.8;" x="0" xlink:href="#md0502d441b" y="293.76"/>
      </g>
     </g>
    </g>
    <g id="ytick_2">
     <g id="line2d_11">
      <path clip-path="url(#pe4555c4253)" d="M 0 236.274059 
L 460.8 236.274059 
" style="fill:none;stroke:#b0b0b0;stroke-linecap:square;stroke-width:0.8;"/>
     </g>
     <g id="line2d_12">
      <g>
       <use style="stroke:#000000;stroke-width:0.8;" x="0" xlink:href="#md0502d441b" y="236.274059"/>
      </g>
     </g>
    </g>
    <g id="ytick_3">
     <g id="line2d_13">
      <path clip-path="url(#pe4555c4253)" d="M 0 178.788119 
L 460.8 178.788119 
" style="fill:none;stroke:#b0b0b0;stroke-linecap:square;stroke-width:0.8;"/>
     </g>
     <g id="line2d_14">
      <g>
       <use style="stroke:#000000;stroke-width:0.8;" x="0" xlink:href="#md0502d441b" y="178.788119"/>
      </g>
     </g>
    </g>
    <g id="ytick_4">
     <g id="line2d_15">
      <path clip-path="url(#pe4555c4253)" d="M 0 121.302178 
L 460.8 121.302178 
" style="fill:none;stroke:#b0b0b0;stroke-linecap:square;stroke-width:0.8;"/>
     </g>
     <g id="line2d_16">
      <g>
       <use style="stroke:#000000;stroke-width:0.8;" x="0" xlink:href="#md0502d441b" y="121.302178"/>
      </g>
     </g>
    </g>
    <g id="ytick_5">
     <g id="line2d_17">
      <path clip-path="url(#pe4555c4253)" d="M 0 63.816238 
L 460.8 63.816238 
" style="fill:none;stroke:#b0b0b0;stroke-linecap:square;stroke-width:0.8;"/>
     </g>
     <g id="line2d_18">
      <g>
       <use style="stroke:#000000;stroke-width:0.8;" x="0" xlink:href="#md0502d441b" y="63.816238"/>
      </g>
     </g>
    </g>
    <g id="ytick_6">
     <g id="line2d_19">
      <path clip-path="url(#pe4555c4253)" d="M 0 6.330297 
L 460.8 6.330297 
" style="fill:none;stroke:#b0b0b0;stroke-linecap:square;stroke-width:0.8;"/>
     </g>
     <g id="line2d_20">
      <g>
       <use style="stroke:#000000;stroke-width:0.8;" x="0" xlink:href="#md0502d441b" y="6.330297"/>
      </g>
     </g>
    </g>
   </g>
   <g id="line2d_21">
    <path clip-path="url(#pe4555c4253)" d="M -1 121.302178 
L 220.734854 121.302178 
L 220.734854 117.469782 
L 223.223517 117.469782 
L 223.223517 105.972594 
L 225.256904 105.972594 
L 225.256904 94.475406 
L 226.976107 94.475406 
L 226.976107 86.810614 
L 230.954007 86.810614 
L 230.954007 82.978218 
L 232.016978 82.978218 
L 232.016983 63.816238 
L 233.880095 63.816238 
L 233.880095 52.31905 
L 234.706603 52.31905 
L 234.706603 48.486653 
L 236.195844 48.486653 
L 236.195844 40.821861 
L 237.509443 40.821861 
L 237.509446 33.157069 
L 238.112441 33.157069 
L 238.112444 25.492277 
L 238.684505 25.492277 
L 238.684505 21.659881 
L 239.228647 21.659881 
L 239.228647 17.827485 
L 239.747471 17.827485 
L 239.747471 13.995089 
L 240.71789 13.995089 
L 240.71789 10.162693 
L 241.610584 10.162693 
L 241.610584 6.330297 
L 241.610584 6.330297 
L 460.8 6.330297 
L 460.8 6.330297 
" style="fill:none;stroke:#ff0000;stroke-linecap:square;stroke-width:3;"/>
   </g>
   <g id="line2d_22">
    <path clip-path="url(#pe4555c4253)" d="M 251.147048 293.76 
L 251.147048 289.927604 
L 251.561822 289.927604 
L 251.561822 286.095208 
L 253.905116 286.095208 
L 253.905116 282.262812 
L 254.660365 282.262812 
L 254.660365 278.430416 
L 255.848848 278.430416 
L 255.848848 274.59802 
L 256.036966 274.59802 
L 256.036966 270.765624 
L 256.662855 270.765624 
L 256.672832 263.100832 
L 257.099565 263.100832 
L 257.099565 259.268436 
L 258.195037 259.268436 
L 258.195037 255.43604 
L 259.687171 255.43604 
L 259.687171 251.603644 
L 259.856386 251.603644 
L 259.856386 247.771248 
L 259.988971 247.771248 
L 259.988971 243.938851 
L 260.380175 243.938851 
L 260.380175 240.106455 
L 261.25257 240.106455 
L 261.25257 236.274059 
L 268.763312 236.274059 
L 268.763312 232.441663 
L 268.970301 232.441663 
L 269.012863 224.776871 
L 269.38567 224.776871 
L 269.38567 220.944475 
L 269.741948 220.944475 
L 269.741948 217.112079 
L 269.87461 217.112079 
L 269.87461 213.279683 
L 270.662386 213.279683 
L 270.697644 201.782495 
L 270.804589 201.782495 
L 270.888057 190.285307 
L 271.093034 190.285307 
L 271.135812 182.620515 
L 271.894307 182.620515 
L 271.894307 178.788119 
L 274.665659 178.788119 
L 274.665659 174.955723 
L 276.153397 174.955723 
L 276.153397 171.123327 
L 276.315206 171.123327 
L 276.335778 163.458535 
L 276.727031 163.458535 
L 276.727031 159.626139 
L 276.917621 159.626139 
L 276.917621 155.793743 
L 277.127351 155.793743 
L 277.127351 151.961347 
L 277.255611 151.961347 
L 277.255611 148.12895 
L 277.794296 148.12895 
L 277.849394 136.631762 
L 278.12756 136.631762 
L 278.184731 121.302178 
L 278.597136 121.302178 
L 278.597136 117.469782 
L 279.003401 117.469782 
L 279.020417 109.80499 
L 279.366803 109.80499 
L 279.366803 105.972594 
L 279.617986 105.972594 
L 279.617986 102.140198 
L 279.950629 102.140198 
L 280.056586 94.475406 
L 280.270721 94.475406 
L 280.270721 90.64301 
L 280.428504 90.64301 
L 280.428504 86.810614 
L 280.694158 86.810614 
L 280.694158 82.978218 
L 280.818294 82.978218 
L 280.818294 79.145822 
L 281.203229 79.145822 
L 281.278222 71.48103 
L 281.379292 71.48103 
L 281.379292 67.648634 
L 283.494579 67.648634 
L 283.494579 63.816238 
L 365.452874 63.816238 
L 365.452874 59.983842 
L 372.975214 59.983842 
L 372.975214 56.151446 
L 373.745089 56.151446 
L 373.844431 48.486653 
L 373.903019 48.486653 
L 373.903019 44.654257 
L 374.284801 44.654257 
L 374.284801 40.821861 
L 375.730006 40.821861 
L 375.730006 36.989465 
L 376.982233 36.989465 
L 376.982233 33.157069 
L 377.708038 33.157069 
L 377.708038 29.324673 
L 379.17606 29.324673 
L 379.17606 25.492277 
L 379.561326 25.492277 
L 379.561326 21.659881 
L 380.839856 21.659881 
L 380.839856 17.827485 
L 382.225773 17.827485 
L 382.225773 13.995089 
L 383.115422 13.995089 
L 383.115422 10.162693 
L 383.282023 10.162693 
L 383.282023 6.330297 
L 383.282023 6.330297 
L 460.8 6.330297 
L 460.8 6.330297 
" style="fill:none;stroke:#00bfbf;stroke-linecap:square;stroke-width:1.5;"/>
   </g>
   <g id="line2d_23">
    <path clip-path="url(#pe4555c4253)" d="M 249.9212 293.76 
L 249.9212 289.927604 
L 251.147048 289.927604 
L 251.147048 286.095208 
L 253.861676 286.095208 
L 253.905116 278.430416 
L 254.660365 278.430416 
L 254.660365 274.59802 
L 255.848848 274.59802 
L 255.848848 270.765624 
L 256.036966 270.765624 
L 256.036966 266.933228 
L 256.662855 266.933228 
L 256.672832 259.268436 
L 258.195037 259.268436 
L 258.195037 255.43604 
L 258.584793 255.43604 
L 258.584793 251.603644 
L 259.060766 251.603644 
L 259.060766 247.771248 
L 259.299249 247.771248 
L 259.299249 243.938851 
L 259.988971 243.938851 
L 259.988971 240.106455 
L 261.25257 240.106455 
L 261.25257 236.274059 
L 268.763312 236.274059 
L 268.763312 232.441663 
L 268.970301 232.441663 
L 269.012863 224.776871 
L 269.38567 224.776871 
L 269.478663 217.112079 
L 269.741948 217.112079 
L 269.741948 213.279683 
L 269.87461 213.279683 
L 269.87461 209.447287 
L 270.188137 209.447287 
L 270.285056 201.782495 
L 270.335482 201.782495 
L 270.335482 197.950099 
L 270.530187 197.950099 
L 270.530187 194.117703 
L 270.662386 194.117703 
L 270.666401 186.452911 
L 270.888057 186.452911 
L 270.888057 182.620515 
L 271.135812 182.620515 
L 271.135812 178.788119 
L 274.665659 178.788119 
L 274.665659 174.955723 
L 275.182049 174.955723 
L 275.26895 167.290931 
L 275.294235 167.290931 
L 275.393863 159.626139 
L 276.153397 159.626139 
L 276.209567 151.961347 
L 276.315206 151.961347 
L 276.315206 148.12895 
L 276.51661 148.12895 
L 276.51661 144.296554 
L 276.651097 144.296554 
L 276.715922 136.631762 
L 276.917621 136.631762 
L 276.917621 132.799366 
L 277.127351 132.799366 
L 277.127351 128.96697 
L 277.362919 128.96697 
L 277.362919 125.134574 
L 277.606508 125.134574 
L 277.658856 117.469782 
L 277.829512 117.469782 
L 277.829512 113.637386 
L 278.107442 113.637386 
L 278.184731 98.307802 
L 278.369481 98.307802 
L 278.369481 94.475406 
L 278.597136 94.475406 
L 278.597136 90.64301 
L 278.772448 90.64301 
L 278.844585 82.978218 
L 279.76652 82.978218 
L 279.76652 79.145822 
L 280.056586 79.145822 
L 280.101304 71.48103 
L 280.428504 71.48103 
L 280.428504 67.648634 
L 280.747027 67.648634 
L 280.747027 63.816238 
L 362.173335 63.816238 
L 362.173335 59.983842 
L 365.452874 59.983842 
L 365.452874 56.151446 
L 366.041791 56.151446 
L 366.041791 52.31905 
L 366.600183 52.31905 
L 366.600183 48.486653 
L 368.514067 48.486653 
L 368.514067 44.654257 
L 371.689389 44.654257 
L 371.689389 40.821861 
L 373.745089 40.821861 
L 373.844431 33.157069 
L 373.903019 33.157069 
L 373.903019 29.324673 
L 374.284801 29.324673 
L 374.284801 25.492277 
L 375.178217 25.492277 
L 375.178217 21.659881 
L 375.730006 21.659881 
L 375.730006 17.827485 
L 377.859497 17.827485 
L 377.960279 10.162693 
L 380.839856 10.162693 
L 380.839856 6.330297 
L 380.839856 6.330297 
L 460.8 6.330297 
L 460.8 6.330297 
" style="fill:none;stroke:#bf00bf;stroke-linecap:square;stroke-width:1.5;"/>
   </g>
   <g id="line2d_24">
    <path clip-path="url(#pe4555c4253)" d="M 249.876184 293.76 
L 249.9212 286.095208 
L 250.467866 286.095208 
L 250.467866 282.262812 
L 251.147048 282.262812 
L 251.147048 278.430416 
L 253.187196 278.430416 
L 253.187196 274.59802 
L 253.861676 274.59802 
L 253.861676 270.765624 
L 254.660365 270.765624 
L 254.660365 266.933228 
L 255.074604 266.933228 
L 255.074604 263.100832 
L 255.848848 263.100832 
L 255.848848 259.268436 
L 256.57156 259.268436 
L 256.573679 251.603644 
L 258.257602 251.603644 
L 258.257602 247.771248 
L 258.77459 247.771248 
L 258.77459 243.938851 
L 259.060423 243.938851 
L 259.060423 240.106455 
L 259.229319 240.106455 
L 259.229319 236.274059 
L 268.68702 236.274059 
L 268.763312 228.609267 
L 268.970301 228.609267 
L 269.012863 220.944475 
L 269.38567 220.944475 
L 269.478663 209.447287 
L 269.67245 209.447287 
L 269.741948 201.782495 
L 269.786118 201.782495 
L 269.87461 194.117703 
L 269.990606 194.117703 
L 270.022027 186.452911 
L 270.188137 186.452911 
L 270.285056 178.788119 
L 274.321878 178.788119 
L 274.321878 174.955723 
L 274.665659 174.955723 
L 274.665659 171.123327 
L 274.793504 171.123327 
L 274.83707 163.458535 
L 275.26895 163.458535 
L 275.323659 151.961347 
L 275.393863 151.961347 
L 275.393863 148.12895 
L 275.507505 148.12895 
L 275.507505 144.296554 
L 276.03752 144.296554 
L 276.03752 140.464158 
L 276.153397 140.464158 
L 276.209567 132.799366 
L 276.345723 132.799366 
L 276.345723 128.96697 
L 276.481596 128.96697 
L 276.51661 121.302178 
L 276.651097 121.302178 
L 276.651097 117.469782 
L 276.810494 117.469782 
L 276.885321 109.80499 
L 277.113438 109.80499 
L 277.127351 102.140198 
L 277.441669 102.140198 
L 277.464501 94.475406 
L 277.581033 94.475406 
L 277.658856 86.810614 
L 277.829512 86.810614 
L 277.829512 82.978218 
L 278.025576 82.978218 
L 278.025576 79.145822 
L 278.711607 79.145822 
L 278.711607 75.313426 
L 278.844585 75.313426 
L 278.844585 71.48103 
L 280.005085 71.48103 
L 280.101304 63.816238 
L 362.173335 63.816238 
L 362.173335 59.983842 
L 365.322428 59.983842 
L 365.322428 56.151446 
L 365.452874 56.151446 
L 365.452874 52.31905 
L 365.819363 52.31905 
L 365.819363 48.486653 
L 366.041791 48.486653 
L 366.041791 44.654257 
L 366.600183 44.654257 
L 366.600183 40.821861 
L 368.514067 40.821861 
L 368.514067 36.989465 
L 371.689389 36.989465 
L 371.718183 29.324673 
L 372.861652 29.324673 
L 372.861652 25.492277 
L 373.844431 25.492277 
L 373.844431 21.659881 
L 375.178217 21.659881 
L 375.178217 17.827485 
L 377.234981 17.827485 
L 377.234981 13.995089 
L 377.960279 13.995089 
L 377.960279 10.162693 
L 380.205336 10.162693 
L 380.205336 6.330297 
L 380.205336 6.330297 
L 460.8 6.330297 
L 460.8 6.330297 
" style="fill:none;stroke:#000000;stroke-linecap:square;stroke-width:1.5;"/>
   </g>
   <g id="line2d_25">
    <path clip-path="url(#pe4555c4253)" d="M 245.932727 293.76 
L 245.932727 289.927604 
L 246.8218 289.927604 
L 246.8218 286.095208 
L 247.236385 286.095208 
L 247.236385 282.262812 
L 247.506968 282.262812 
L 247.506968 278.430416 
L 247.998036 278.430416 
L 247.998036 274.59802 
L 249.677339 274.59802 
L 249.731274 266.933228 
L 250.89223 266.933228 
L 250.89223 263.100832 
L 252.48585 263.100832 
L 252.48585 259.268436 
L 253.474085 259.268436 
L 253.474085 255.43604 
L 254.332273 255.43604 
L 254.417451 247.771248 
L 254.581116 247.771248 
L 254.581116 243.938851 
L 254.707298 243.938851 
L 254.707298 240.106455 
L 256.351787 240.106455 
L 256.351787 236.274059 
L 265.406629 236.274059 
L 265.406629 232.441663 
L 266.287931 232.441663 
L 266.351172 220.944475 
L 266.425389 220.944475 
L 266.425389 217.112079 
L 266.542488 217.112079 
L 266.567799 209.447287 
L 266.738986 209.447287 
L 266.738986 205.614891 
L 267.078383 205.614891 
L 267.110602 197.950099 
L 267.32902 197.950099 
L 267.32902 194.117703 
L 267.51646 194.117703 
L 267.577291 186.452911 
L 267.720951 186.452911 
L 267.720951 182.620515 
L 268.012848 182.620515 
L 268.012848 178.788119 
L 271.282214 178.788119 
L 271.282214 174.955723 
L 271.818561 174.955723 
L 271.906813 167.290931 
L 271.993755 167.290931 
L 271.993755 163.458535 
L 272.583957 163.458535 
L 272.583957 159.626139 
L 273.246337 159.626139 
L 273.274174 148.12895 
L 273.3881 148.12895 
L 273.490626 136.631762 
L 273.548151 136.631762 
L 273.548151 132.799366 
L 274.251361 132.799366 
L 274.271843 125.134574 
L 274.407997 125.134574 
L 274.454097 117.469782 
L 274.793504 117.469782 
L 274.897394 109.80499 
L 275.064013 109.80499 
L 275.174853 102.140198 
L 275.316559 102.140198 
L 275.387184 86.810614 
L 275.492832 86.810614 
L 275.492832 82.978218 
L 275.620907 82.978218 
L 275.620907 79.145822 
L 276.079596 79.145822 
L 276.185428 71.48103 
L 276.674307 71.48103 
L 276.674307 67.648634 
L 277.192578 67.648634 
L 277.192578 63.816238 
L 353.008043 63.816238 
L 353.008043 59.983842 
L 353.948947 59.983842 
L 353.948947 56.151446 
L 355.412952 56.151446 
L 355.412952 52.31905 
L 360.001993 52.31905 
L 360.001993 48.486653 
L 360.50909 48.486653 
L 360.50909 44.654257 
L 361.722117 44.654257 
L 361.722117 40.821861 
L 361.838788 40.821861 
L 361.838788 36.989465 
L 362.173335 36.989465 
L 362.173335 33.157069 
L 362.510812 33.157069 
L 362.510812 29.324673 
L 363.039771 29.324673 
L 363.06005 21.659881 
L 364.170696 21.659881 
L 364.170696 17.827485 
L 366.489679 17.827485 
L 366.489679 13.995089 
L 367.040111 13.995089 
L 367.040111 10.162693 
L 368.514067 10.162693 
L 368.514067 6.330297 
L 368.514067 6.330297 
L 460.8 6.330297 
L 460.8 6.330297 
" style="fill:none;stroke:#00bfbf;stroke-linecap:square;stroke-width:1.5;"/>
   </g>
   <g id="line2d_26">
    <path clip-path="url(#pe4555c4253)" d="M 215.367083 293.76 
L 215.367083 289.927604 
L 217.746606 289.927604 
L 217.746606 286.095208 
L 218.341991 286.095208 
L 218.341991 282.262812 
L 219.111572 282.262812 
L 219.111572 278.430416 
L 220.956283 278.430416 
L 220.998331 270.765624 
L 221.435906 270.765624 
L 221.435906 266.933228 
L 222.502128 266.933228 
L 222.595247 255.43604 
L 223.479246 255.43604 
L 223.479246 251.603644 
L 223.844208 251.603644 
L 223.844208 247.771248 
L 224.439247 247.771248 
L 224.439247 243.938851 
L 225.738301 243.938851 
L 225.738301 240.106455 
L 226.725409 240.106455 
L 226.725409 236.274059 
L 256.296381 236.274059 
L 256.296381 232.441663 
L 256.479391 232.441663 
L 256.479391 228.609267 
L 256.701895 228.609267 
L 256.701895 224.776871 
L 257.123779 224.776871 
L 257.123779 220.944475 
L 257.249737 220.944475 
L 257.249737 217.112079 
L 257.468675 217.112079 
L 257.468675 213.279683 
L 257.587446 213.279683 
L 257.642377 205.614891 
L 257.789237 205.614891 
L 257.856224 197.950099 
L 257.927333 197.950099 
L 257.951232 186.452911 
L 258.207127 186.452911 
L 258.207127 182.620515 
L 258.616859 182.620515 
L 258.616859 178.788119 
L 261.542708 178.788119 
L 261.542708 174.955723 
L 261.900895 174.955723 
L 261.920686 167.290931 
L 262.051169 167.290931 
L 262.051169 163.458535 
L 262.243374 163.458535 
L 262.243374 159.626139 
L 262.735363 159.626139 
L 262.735363 155.793743 
L 263.136045 155.793743 
L 263.240246 148.12895 
L 263.546664 148.12895 
L 263.546664 144.296554 
L 263.870549 144.296554 
L 263.976773 136.631762 
L 264.202742 136.631762 
L 264.243433 128.96697 
L 264.613769 128.96697 
L 264.613769 125.134574 
L 264.843743 125.134574 
L 264.904959 117.469782 
L 265.084256 117.469782 
L 265.084256 113.637386 
L 265.380249 113.637386 
L 265.452118 105.972594 
L 265.539899 105.972594 
L 265.570863 98.307802 
L 266.079101 98.307802 
L 266.091782 90.64301 
L 266.200321 90.64301 
L 266.200321 86.810614 
L 266.827887 86.810614 
L 266.869839 79.145822 
L 267.046795 79.145822 
L 267.046795 75.313426 
L 267.25507 75.313426 
L 267.25507 71.48103 
L 267.519637 71.48103 
L 267.519637 67.648634 
L 267.991872 67.648634 
L 267.991872 63.816238 
L 323.363549 63.816238 
L 323.363549 59.983842 
L 327.386208 59.983842 
L 327.386208 56.151446 
L 327.668207 56.151446 
L 327.668207 52.31905 
L 329.962812 52.31905 
L 329.962812 48.486653 
L 333.232297 48.486653 
L 333.232297 44.654257 
L 333.484719 44.654257 
L 333.484719 40.821861 
L 333.890245 40.821861 
L 333.890245 36.989465 
L 334.226902 36.989465 
L 334.226902 33.157069 
L 335.221897 33.157069 
L 335.310828 25.492277 
L 336.457759 25.492277 
L 336.553835 17.827485 
L 340.225921 17.827485 
L 340.225921 13.995089 
L 341.230505 13.995089 
L 341.230505 10.162693 
L 341.899468 10.162693 
L 341.899468 6.330297 
L 341.899468 6.330297 
L 460.8 6.330297 
L 460.8 6.330297 
" style="fill:none;stroke:#bf00bf;stroke-linecap:square;stroke-width:1.5;"/>
   </g>
   <g id="line2d_27">
    <path clip-path="url(#pe4555c4253)" d="M -1 236.274059 
L 159.707685 236.274059 
L 159.707685 232.441663 
L 162.305246 232.441663 
L 162.305246 228.609267 
L 163.176986 228.609267 
L 163.176986 224.776871 
L 165.933575 224.776871 
L 165.962269 217.112079 
L 166.567231 217.112079 
L 166.658652 209.447287 
L 167.176978 209.447287 
L 167.270683 201.782495 
L 168.023071 201.782495 
L 168.049652 194.117703 
L 168.272713 194.117703 
L 168.350858 186.452911 
L 168.868983 186.452911 
L 168.868983 182.620515 
L 169.293957 182.620515 
L 169.293957 178.788119 
L 191.458791 178.788119 
L 191.482596 171.123327 
L 198.831822 171.123327 
L 198.831822 167.290931 
L 202.898173 167.290931 
L 202.898173 163.458535 
L 204.606326 163.458535 
L 204.606326 159.626139 
L 205.447588 159.626139 
L 205.447588 155.793743 
L 207.790912 155.793743 
L 207.790912 151.961347 
L 208.282344 151.961347 
L 208.282344 148.12895 
L 208.420232 148.12895 
L 208.420232 144.296554 
L 210.94021 144.296554 
L 210.94021 140.464158 
L 213.154084 140.464158 
L 213.154084 136.631762 
L 214.373219 136.631762 
L 214.373219 132.799366 
L 215.925249 132.799366 
L 215.925249 128.96697 
L 220.734855 128.96697 
L 220.734855 125.134574 
L 221.282578 125.134574 
L 221.282578 121.302178 
L 223.2236 121.302178 
L 223.225294 109.80499 
L 224.721839 109.80499 
L 224.721839 105.972594 
L 225.256958 105.972594 
L 225.258782 94.475406 
L 226.976283 94.475406 
L 226.992101 86.810614 
L 230.954025 86.810614 
L 230.954025 82.978218 
L 232.016985 82.978218 
L 232.017686 63.816238 
L 233.880097 63.816238 
L 233.881509 52.31905 
L 234.706604 52.31905 
L 234.706604 48.486653 
L 236.195864 48.486653 
L 236.195948 40.821861 
L 237.509466 40.821861 
L 237.544141 33.157069 
L 238.112444 33.157069 
L 238.120011 25.492277 
L 238.684517 25.492277 
L 238.684517 21.659881 
L 239.22865 21.659881 
L 239.22865 17.827485 
L 239.747485 17.827485 
L 239.747485 13.995089 
L 240.717891 13.995089 
L 240.717891 10.162693 
L 241.610599 10.162693 
L 241.610599 6.330297 
L 241.610599 6.330297 
L 460.8 6.330297 
L 460.8 6.330297 
" style="fill:none;stroke:#000000;stroke-linecap:square;stroke-width:1.5;"/>
   </g>
   <g id="patch_3">
    <path d="M 0 293.76 
L 0 3.456 
" style="fill:none;stroke:#000000;stroke-linecap:square;stroke-linejoin:miter;stroke-width:0.8;"/>
   </g>
   <g id="patch_4">
    <path d="M 460.8 293.76 
L 460.8 3.456 
" style="fill:none;stroke:#000000;stroke-linecap:square;stroke-linejoin:miter;stroke-width:0.8;"/>
   </g>
   <g id="patch_5">
    <path d="M 0 293.76 
L 460.8 293.76 
" style="fill:none;stroke:#000000;stroke-linecap:square;stroke-linejoin:miter;stroke-width:0.8;"/>
   </g>
   <g id="patch_6">
    <path d="M 0 3.456 
L 460.8 3.456 
" style="fill:none;stroke:#000000;stroke-linecap:square;stroke-linejoin:miter;stroke-width:0.8;"/>
   </g>
   <g id="text_6">
    <!-- {f1-f5}, 20-D -->
    <g transform="translate(318.609 287.95392)scale(0.2 -0.2)">
     <defs>
      <path d="M 3272 -594 
L 3272 -1044 
L 3078 -1044 
Q 2300 -1044 2036 -812 
Q 1772 -581 1772 109 
L 1772 856 
Q 1772 1328 1603 1509 
Q 1434 1691 991 1691 
L 800 1691 
L 800 2138 
L 991 2138 
Q 1438 2138 1605 2317 
Q 1772 2497 1772 2963 
L 1772 3713 
Q 1772 4403 2036 4633 
Q 2300 4863 3078 4863 
L 3272 4863 
L 3272 4416 
L 3059 4416 
Q 2619 4416 2484 4278 
Q 2350 4141 2350 3700 
L 2350 2925 
Q 2350 2434 2208 2212 
Q 2066 1991 1722 1913 
Q 2069 1828 2209 1606 
Q 2350 1384 2350 897 
L 2350 122 
Q 2350 -319 2484 -456 
Q 2619 -594 3059 -594 
L 3272 -594 
z
" id="DejaVuSans-7b" transform="scale(0.015625)"/>
      <path d="M 691 4666 
L 3169 4666 
L 3169 4134 
L 1269 4134 
L 1269 2991 
Q 1406 3038 1543 3061 
Q 1681 3084 1819 3084 
Q 2600 3084 3056 2656 
Q 3513 2228 3513 1497 
Q 3513 744 3044 326 
Q 2575 -91 1722 -91 
Q 1428 -91 1123 -41 
Q 819 9 494 109 
L 494 744 
Q 775 591 1075 516 
Q 1375 441 1709 441 
Q 2250 441 2565 725 
Q 2881 1009 2881 1497 
Q 2881 1984 2565 2268 
Q 2250 2553 1709 2553 
Q 1456 2553 1204 2497 
Q 953 2441 691 2322 
L 691 4666 
z
" id="DejaVuSans-35" transform="scale(0.015625)"/>
      <path d="M 800 -594 
L 1019 -594 
Q 1456 -594 1589 -459 
Q 1722 -325 1722 122 
L 1722 897 
Q 1722 1384 1862 1606 
Q 2003 1828 2350 1913 
Q 2003 1991 1862 2212 
Q 1722 2434 1722 2925 
L 1722 3700 
Q 1722 4144 1589 4280 
Q 1456 4416 1019 4416 
L 800 4416 
L 800 4863 
L 997 4863 
Q 1775 4863 2036 4633 
Q 2297 4403 2297 3713 
L 2297 2963 
Q 2297 2497 2465 2317 
Q 2634 2138 3078 2138 
L 3272 2138 
L 3272 1691 
L 3078 1691 
Q 2634 1691 2465 1509 
Q 2297 1328 2297 856 
L 2297 109 
Q 2297 -581 2036 -812 
Q 1775 -1044 997 -1044 
L 800 -1044 
L 800 -594 
z
" id="DejaVuSans-7d" transform="scale(0.015625)"/>
      <path d="M 750 794 
L 1409 794 
L 1409 256 
L 897 -744 
L 494 -744 
L 750 256 
L 750 794 
z
" id="DejaVuSans-2c" transform="scale(0.015625)"/>
      <path d="M 1228 531 
L 3431 531 
L 3431 0 
L 469 0 
L 469 531 
Q 828 903 1448 1529 
Q 2069 2156 2228 2338 
Q 2531 2678 2651 2914 
Q 2772 3150 2772 3378 
Q 2772 3750 2511 3984 
Q 2250 4219 1831 4219 
Q 1534 4219 1204 4116 
Q 875 4013 500 3803 
L 500 4441 
Q 881 4594 1212 4672 
Q 1544 4750 1819 4750 
Q 2544 4750 2975 4387 
Q 3406 4025 3406 3419 
Q 3406 3131 3298 2873 
Q 3191 2616 2906 2266 
Q 2828 2175 2409 1742 
Q 1991 1309 1228 531 
z
" id="DejaVuSans-32" transform="scale(0.015625)"/>
     </defs>
     <use xlink:href="#DejaVuSans-7b"/>
     <use x="63.623047" xlink:href="#DejaVuSans-66"/>
     <use x="98.828125" xlink:href="#DejaVuSans-31"/>
     <use x="162.451172" xlink:href="#DejaVuSans-2d"/>
     <use x="198.535156" xlink:href="#DejaVuSans-66"/>
     <use x="233.740234" xlink:href="#DejaVuSans-35"/>
     <use x="297.363281" xlink:href="#DejaVuSans-7d"/>
     <use x="360.986328" xlink:href="#DejaVuSans-2c"/>
     <use x="392.773438" xlink:href="#DejaVuSans-20"/>
     <use x="424.560547" xlink:href="#DejaVuSans-32"/>
     <use x="488.183594" xlink:href="#DejaVuSans-30"/>
     <use x="551.806641" xlink:href="#DejaVuSans-2d"/>
     <use x="587.890625" xlink:href="#DejaVuSans-44"/>
    </g>
   </g>
   <g id="text_7">
    <!-- v2.4 -->
    <g style="fill:#808080;" transform="translate(219.489063 288.777272)scale(0.1 -0.1)">
     <defs>
      <path d="M 191 3500 
L 800 3500 
L 1894 563 
L 2988 3500 
L 3597 3500 
L 2284 0 
L 1503 0 
L 191 3500 
z
" id="DejaVuSans-76" transform="scale(0.015625)"/>
      <path d="M 684 794 
L 1344 794 
L 1344 0 
L 684 0 
L 684 794 
z
" id="DejaVuSans-2e" transform="scale(0.015625)"/>
     </defs>
     <use xlink:href="#DejaVuSans-76"/>
     <use x="59.179688" xlink:href="#DejaVuSans-32"/>
     <use x="122.802734" xlink:href="#DejaVuSans-2e"/>
     <use x="154.589844" xlink:href="#DejaVuSans-34"/>
    </g>
   </g>
  </g>
 </g>
 <defs>
  <clipPath id="pe4555c4253">
   <rect height="290.304" width="460.8" x="0" y="3.456"/>
  </clipPath>
 </defs>
</svg>
