<?xml version="1.0" encoding="utf-8" standalone="no"?>
<!DOCTYPE svg PUBLIC "-//W3C//DTD SVG 1.1//EN"
  "http://www.w3.org/Graphics/SVG/1.1/DTD/svg11.dtd">
<svg height="345.6pt" version="1.1" viewBox="0 0 460.8 345.6" width="460.8pt" xmlns="http://www.w3.org/2000/svg" xmlns:xlink="http://www.w3.org/1999/xlink">
 <metadata>
  <rdf:RDF xmlns:cc="http://creativecommons.org/ns#" xmlns:dc="http://purl.org/dc/elements/1.1/" xmlns:rdf="http://www.w3.org/1999/02/22-rdf-syntax-ns#">
   <cc:Work>
    <dc:type rdf:resource="http://purl.org/dc/dcmitype/StillImage"/>
    <dc:date>2021-07-27T16:03:38.340932</dc:date>
    <dc:format>image/svg+xml</dc:format>
    <dc:creator>
     <cc:Agent>
      <dc:title>Matplotlib v3.4.2, https://matplotlib.org/</dc:title>
     </cc:Agent>
    </dc:creator>
   </cc:Work>
  </rdf:RDF>
 </metadata>
 <defs>
  <style type="text/css">*{stroke-linecap:butt;stroke-linejoin:round;}</style>
 </defs>
 <g id="figure_1">
  <g id="patch_1">
   <path d="M 0 345.6 
L 460.8 345.6 
L 460.8 0 
L 0 0 
z
" style="fill:#ffffff;"/>
  </g>
  <g id="axes_1">
   <g id="patch_2">
    <path d="M 0 293.76 
L 460.8 293.76 
L 460.8 3.456 
L 0 3.456 
z
" style="fill:#ffffff;"/>
   </g>
   <g id="matplotlib.axis_1">
    <g id="xtick_1">
     <g id="line2d_1">
      <path clip-path="url(#p28616372fb)" d="M 102.609626 293.76 
L 102.609626 3.456 
" style="fill:none;stroke:#b0b0b0;stroke-linecap:square;stroke-width:0.8;"/>
     </g>
     <g id="line2d_2">
      <defs>
       <path d="M 0 0 
L 0 3.5 
" id="m37a73c85b7" style="stroke:#000000;stroke-width:0.8;"/>
      </defs>
      <g>
       <use style="stroke:#000000;stroke-width:0.8;" x="102.609626" xlink:href="#m37a73c85b7" y="293.76"/>
      </g>
     </g>
     <g id="text_1">
      <!-- -4 -->
      <g transform="translate(92.639313 315.956875)scale(0.2 -0.2)">
       <defs>
        <path d="M 313 2009 
L 1997 2009 
L 1997 1497 
L 313 1497 
L 313 2009 
z
" id="DejaVuSans-2d" transform="scale(0.015625)"/>
        <path d="M 2419 4116 
L 825 1625 
L 2419 1625 
L 2419 4116 
z
M 2253 4666 
L 3047 4666 
L 3047 1625 
L 3713 1625 
L 3713 1100 
L 3047 1100 
L 3047 0 
L 2419 0 
L 2419 1100 
L 313 1100 
L 313 1709 
L 2253 4666 
z
" id="DejaVuSans-34" transform="scale(0.015625)"/>
       </defs>
       <use xlink:href="#DejaVuSans-2d"/>
       <use x="36.083984" xlink:href="#DejaVuSans-34"/>
      </g>
     </g>
    </g>
    <g id="xtick_2">
     <g id="line2d_3">
      <path clip-path="url(#p28616372fb)" d="M 205.330225 293.76 
L 205.330225 3.456 
" style="fill:none;stroke:#b0b0b0;stroke-linecap:square;stroke-width:0.8;"/>
     </g>
     <g id="line2d_4">
      <g>
       <use style="stroke:#000000;stroke-width:0.8;" x="205.330225" xlink:href="#m37a73c85b7" y="293.76"/>
      </g>
     </g>
     <g id="text_2">
      <!-- 0 -->
      <g transform="translate(198.967725 315.956875)scale(0.2 -0.2)">
       <defs>
        <path d="M 2034 4250 
Q 1547 4250 1301 3770 
Q 1056 3291 1056 2328 
Q 1056 1369 1301 889 
Q 1547 409 2034 409 
Q 2525 409 2770 889 
Q 3016 1369 3016 2328 
Q 3016 3291 2770 3770 
Q 2525 4250 2034 4250 
z
M 2034 4750 
Q 2819 4750 3233 4129 
Q 3647 3509 3647 2328 
Q 3647 1150 3233 529 
Q 2819 -91 2034 -91 
Q 1250 -91 836 529 
Q 422 1150 422 2328 
Q 422 3509 836 4129 
Q 1250 4750 2034 4750 
z
" id="DejaVuSans-30" transform="scale(0.015625)"/>
       </defs>
       <use xlink:href="#DejaVuSans-30"/>
      </g>
     </g>
    </g>
    <g id="xtick_3">
     <g id="line2d_5">
      <path clip-path="url(#p28616372fb)" d="M 308.050825 293.76 
L 308.050825 3.456 
" style="fill:none;stroke:#b0b0b0;stroke-linecap:square;stroke-width:0.8;"/>
     </g>
     <g id="line2d_6">
      <g>
       <use style="stroke:#000000;stroke-width:0.8;" x="308.050825" xlink:href="#m37a73c85b7" y="293.76"/>
      </g>
     </g>
     <g id="text_3">
      <!-- 4 -->
      <g transform="translate(301.688325 315.956875)scale(0.2 -0.2)">
       <use xlink:href="#DejaVuSans-34"/>
      </g>
     </g>
    </g>
    <g id="xtick_4">
     <g id="line2d_7">
      <path clip-path="url(#p28616372fb)" d="M 410.771424 293.76 
L 410.771424 3.456 
" style="fill:none;stroke:#b0b0b0;stroke-linecap:square;stroke-width:0.8;"/>
     </g>
     <g id="line2d_8">
      <g>
       <use style="stroke:#000000;stroke-width:0.8;" x="410.771424" xlink:href="#m37a73c85b7" y="293.76"/>
      </g>
     </g>
     <g id="text_4">
      <!-- 8 -->
      <g transform="translate(404.408924 315.956875)scale(0.2 -0.2)">
       <defs>
        <path d="M 2034 2216 
Q 1584 2216 1326 1975 
Q 1069 1734 1069 1313 
Q 1069 891 1326 650 
Q 1584 409 2034 409 
Q 2484 409 2743 651 
Q 3003 894 3003 1313 
Q 3003 1734 2745 1975 
Q 2488 2216 2034 2216 
z
M 1403 2484 
Q 997 2584 770 2862 
Q 544 3141 544 3541 
Q 544 4100 942 4425 
Q 1341 4750 2034 4750 
Q 2731 4750 3128 4425 
Q 3525 4100 3525 3541 
Q 3525 3141 3298 2862 
Q 3072 2584 2669 2484 
Q 3125 2378 3379 2068 
Q 3634 1759 3634 1313 
Q 3634 634 3220 271 
Q 2806 -91 2034 -91 
Q 1263 -91 848 271 
Q 434 634 434 1313 
Q 434 1759 690 2068 
Q 947 2378 1403 2484 
z
M 1172 3481 
Q 1172 3119 1398 2916 
Q 1625 2713 2034 2713 
Q 2441 2713 2670 2916 
Q 2900 3119 2900 3481 
Q 2900 3844 2670 4047 
Q 2441 4250 2034 4250 
Q 1625 4250 1398 4047 
Q 1172 3844 1172 3481 
z
" id="DejaVuSans-38" transform="scale(0.015625)"/>
       </defs>
       <use xlink:href="#DejaVuSans-38"/>
      </g>
     </g>
    </g>
    <g id="text_5">
     <!-- log10 of Df -->
     <g transform="translate(175.214063 339.313125)scale(0.2 -0.2)">
      <defs>
       <path d="M 603 4863 
L 1178 4863 
L 1178 0 
L 603 0 
L 603 4863 
z
" id="DejaVuSans-6c" transform="scale(0.015625)"/>
       <path d="M 1959 3097 
Q 1497 3097 1228 2736 
Q 959 2375 959 1747 
Q 959 1119 1226 758 
Q 1494 397 1959 397 
Q 2419 397 2687 759 
Q 2956 1122 2956 1747 
Q 2956 2369 2687 2733 
Q 2419 3097 1959 3097 
z
M 1959 3584 
Q 2709 3584 3137 3096 
Q 3566 2609 3566 1747 
Q 3566 888 3137 398 
Q 2709 -91 1959 -91 
Q 1206 -91 779 398 
Q 353 888 353 1747 
Q 353 2609 779 3096 
Q 1206 3584 1959 3584 
z
" id="DejaVuSans-6f" transform="scale(0.015625)"/>
       <path d="M 2906 1791 
Q 2906 2416 2648 2759 
Q 2391 3103 1925 3103 
Q 1463 3103 1205 2759 
Q 947 2416 947 1791 
Q 947 1169 1205 825 
Q 1463 481 1925 481 
Q 2391 481 2648 825 
Q 2906 1169 2906 1791 
z
M 3481 434 
Q 3481 -459 3084 -895 
Q 2688 -1331 1869 -1331 
Q 1566 -1331 1297 -1286 
Q 1028 -1241 775 -1147 
L 775 -588 
Q 1028 -725 1275 -790 
Q 1522 -856 1778 -856 
Q 2344 -856 2625 -561 
Q 2906 -266 2906 331 
L 2906 616 
Q 2728 306 2450 153 
Q 2172 0 1784 0 
Q 1141 0 747 490 
Q 353 981 353 1791 
Q 353 2603 747 3093 
Q 1141 3584 1784 3584 
Q 2172 3584 2450 3431 
Q 2728 3278 2906 2969 
L 2906 3500 
L 3481 3500 
L 3481 434 
z
" id="DejaVuSans-67" transform="scale(0.015625)"/>
       <path d="M 794 531 
L 1825 531 
L 1825 4091 
L 703 3866 
L 703 4441 
L 1819 4666 
L 2450 4666 
L 2450 531 
L 3481 531 
L 3481 0 
L 794 0 
L 794 531 
z
" id="DejaVuSans-31" transform="scale(0.015625)"/>
       <path id="DejaVuSans-20" transform="scale(0.015625)"/>
       <path d="M 2375 4863 
L 2375 4384 
L 1825 4384 
Q 1516 4384 1395 4259 
Q 1275 4134 1275 3809 
L 1275 3500 
L 2222 3500 
L 2222 3053 
L 1275 3053 
L 1275 0 
L 697 0 
L 697 3053 
L 147 3053 
L 147 3500 
L 697 3500 
L 697 3744 
Q 697 4328 969 4595 
Q 1241 4863 1831 4863 
L 2375 4863 
z
" id="DejaVuSans-66" transform="scale(0.015625)"/>
       <path d="M 1259 4147 
L 1259 519 
L 2022 519 
Q 2988 519 3436 956 
Q 3884 1394 3884 2338 
Q 3884 3275 3436 3711 
Q 2988 4147 2022 4147 
L 1259 4147 
z
M 628 4666 
L 1925 4666 
Q 3281 4666 3915 4102 
Q 4550 3538 4550 2338 
Q 4550 1131 3912 565 
Q 3275 0 1925 0 
L 628 0 
L 628 4666 
z
" id="DejaVuSans-44" transform="scale(0.015625)"/>
      </defs>
      <use xlink:href="#DejaVuSans-6c"/>
      <use x="27.783203" xlink:href="#DejaVuSans-6f"/>
      <use x="88.964844" xlink:href="#DejaVuSans-67"/>
      <use x="152.441406" xlink:href="#DejaVuSans-31"/>
      <use x="216.064453" xlink:href="#DejaVuSans-30"/>
      <use x="279.6875" xlink:href="#DejaVuSans-20"/>
      <use x="311.474609" xlink:href="#DejaVuSans-6f"/>
      <use x="372.65625" xlink:href="#DejaVuSans-66"/>
      <use x="407.861328" xlink:href="#DejaVuSans-20"/>
      <use x="439.648438" xlink:href="#DejaVuSans-44"/>
      <use x="516.650391" xlink:href="#DejaVuSans-66"/>
     </g>
    </g>
   </g>
   <g id="matplotlib.axis_2">
    <g id="ytick_1">
     <g id="line2d_9">
      <path clip-path="url(#p28616372fb)" d="M 0 293.76 
L 460.8 293.76 
" style="fill:none;stroke:#b0b0b0;stroke-linecap:square;stroke-width:0.8;"/>
     </g>
     <g id="line2d_10">
      <defs>
       <path d="M 0 0 
L -3.5 0 
" id="m085e480211" style="stroke:#000000;stroke-width:0.8;"/>
      </defs>
      <g>
       <use style="stroke:#000000;stroke-width:0.8;" x="0" xlink:href="#m085e480211" y="293.76"/>
      </g>
     </g>
    </g>
    <g id="ytick_2">
     <g id="line2d_11">
      <path clip-path="url(#p28616372fb)" d="M 0 236.274059 
L 460.8 236.274059 
" style="fill:none;stroke:#b0b0b0;stroke-linecap:square;stroke-width:0.8;"/>
     </g>
     <g id="line2d_12">
      <g>
       <use style="stroke:#000000;stroke-width:0.8;" x="0" xlink:href="#m085e480211" y="236.274059"/>
      </g>
     </g>
    </g>
    <g id="ytick_3">
     <g id="line2d_13">
      <path clip-path="url(#p28616372fb)" d="M 0 178.788119 
L 460.8 178.788119 
" style="fill:none;stroke:#b0b0b0;stroke-linecap:square;stroke-width:0.8;"/>
     </g>
     <g id="line2d_14">
      <g>
       <use style="stroke:#000000;stroke-width:0.8;" x="0" xlink:href="#m085e480211" y="178.788119"/>
      </g>
     </g>
    </g>
    <g id="ytick_4">
     <g id="line2d_15">
      <path clip-path="url(#p28616372fb)" d="M 0 121.302178 
L 460.8 121.302178 
" style="fill:none;stroke:#b0b0b0;stroke-linecap:square;stroke-width:0.8;"/>
     </g>
     <g id="line2d_16">
      <g>
       <use style="stroke:#000000;stroke-width:0.8;" x="0" xlink:href="#m085e480211" y="121.302178"/>
      </g>
     </g>
    </g>
    <g id="ytick_5">
     <g id="line2d_17">
      <path clip-path="url(#p28616372fb)" d="M 0 63.816238 
L 460.8 63.816238 
" style="fill:none;stroke:#b0b0b0;stroke-linecap:square;stroke-width:0.8;"/>
     </g>
     <g id="line2d_18">
      <g>
       <use style="stroke:#000000;stroke-width:0.8;" x="0" xlink:href="#m085e480211" y="63.816238"/>
      </g>
     </g>
    </g>
    <g id="ytick_6">
     <g id="line2d_19">
      <path clip-path="url(#p28616372fb)" d="M 0 6.330297 
L 460.8 6.330297 
" style="fill:none;stroke:#b0b0b0;stroke-linecap:square;stroke-width:0.8;"/>
     </g>
     <g id="line2d_20">
      <g>
       <use style="stroke:#000000;stroke-width:0.8;" x="0" xlink:href="#m085e480211" y="6.330297"/>
      </g>
     </g>
    </g>
   </g>
   <g id="line2d_21">
    <path clip-path="url(#p28616372fb)" d="M -1 137.270495 
L -0.110974 137.270495 
L -0.110974 130.084752 
L 23.045902 130.084752 
L 23.045902 129.286337 
L 38.504604 129.286337 
L 38.504604 128.487921 
L 46.383279 128.487921 
L 46.383279 127.689505 
L 85.156546 127.689505 
L 85.169619 126.092673 
L 99.618907 126.092673 
L 99.618907 125.294257 
L 101.489258 125.294257 
L 101.489258 124.495842 
L 107.936072 124.495842 
L 107.936072 123.697426 
L 110.280516 123.697426 
L 110.280516 122.89901 
L 113.704502 122.89901 
L 113.775647 121.302178 
L 119.10184 121.302178 
L 119.10184 120.503762 
L 123.957249 120.503762 
L 123.957249 119.705347 
L 144.344589 119.705347 
L 144.344589 117.310099 
L 144.728291 117.310099 
L 144.728291 116.511683 
L 151.158746 116.511683 
L 151.158746 115.713267 
L 156.164627 115.713267 
L 156.164627 114.914851 
L 158.621193 114.914851 
L 158.621193 114.116436 
L 163.510791 114.116436 
L 163.510791 113.31802 
L 165.277624 113.31802 
L 165.277624 112.519604 
L 166.453887 112.519604 
L 166.453887 111.721188 
L 169.004325 111.721188 
L 169.004325 110.922772 
L 170.59968 110.922772 
L 170.59968 110.124356 
L 171.034972 110.124356 
L 171.034972 109.325941 
L 171.512773 109.325941 
L 171.512773 108.527525 
L 171.94194 108.527525 
L 171.94194 107.729109 
L 172.857036 107.729109 
L 172.857036 106.930693 
L 173.340317 106.930693 
L 173.340317 106.132277 
L 173.591435 106.132277 
L 173.591435 105.333861 
L 174.021216 105.333861 
L 174.021216 104.535446 
L 174.207533 104.535446 
L 174.207533 103.73703 
L 177.423639 103.73703 
L 177.423639 102.938614 
L 177.681499 102.938614 
L 177.69602 101.341782 
L 177.972427 101.341782 
L 177.972427 100.543366 
L 178.453865 100.543366 
L 178.5605 98.148119 
L 178.700355 98.148119 
L 178.712303 96.551287 
L 179.129304 96.551287 
L 179.133992 94.954455 
L 179.504822 94.954455 
L 179.504822 94.15604 
L 180.753377 94.15604 
L 180.753377 93.357624 
L 187.388223 93.357624 
L 187.388223 92.559208 
L 188.818588 92.559208 
L 188.818588 91.760792 
L 191.656121 91.760792 
L 191.656121 90.962376 
L 192.111152 90.962376 
L 192.111152 90.16396 
L 201.22182 90.16396 
L 201.22182 87.768713 
L 202.954787 87.768713 
L 202.954787 86.970297 
L 203.524279 86.970297 
L 203.524279 86.171881 
L 203.961234 86.171881 
L 203.961234 85.373465 
L 205.273863 85.373465 
L 205.273863 84.57505 
L 208.110815 84.57505 
L 208.110815 83.776634 
L 208.937074 83.776634 
L 208.937074 82.978218 
L 209.405475 82.978218 
L 209.405475 82.179802 
L 209.854146 82.179802 
L 209.854146 81.381386 
L 210.634081 81.381386 
L 210.634081 80.58297 
L 210.769757 80.58297 
L 210.769757 79.784554 
L 211.036479 79.784554 
L 211.036479 78.986139 
L 211.426185 78.986139 
L 211.49016 77.389307 
L 211.739895 77.389307 
L 211.801603 75.792475 
L 212.165536 75.792475 
L 212.165536 74.994059 
L 212.401868 74.994059 
L 212.460087 73.397228 
L 212.806911 73.397228 
L 212.806911 69.405149 
L 213.004358 69.405149 
L 213.004358 68.606733 
L 213.301572 68.606733 
L 213.352476 66.211485 
L 213.703396 66.211485 
L 213.703396 64.614653 
L 217.526408 64.614653 
L 217.526408 63.816238 
L 220.734854 63.816238 
L 220.734854 61.42099 
L 222.622313 61.42099 
L 222.622313 59.025743 
L 223.223517 59.025743 
L 223.223517 53.436832 
L 223.418948 53.436832 
L 223.418948 52.638416 
L 225.256904 52.638416 
L 225.256904 47.049505 
L 226.976107 47.049505 
L 227.050138 43.855842 
L 228.465349 43.855842 
L 228.465349 43.057426 
L 229.511889 43.057426 
L 229.511889 38.266931 
L 230.954007 38.266931 
L 230.954007 37.468515 
L 232.016978 37.468515 
L 232.047449 32.67802 
L 233.880095 32.67802 
L 233.880095 30.282772 
L 234.706603 30.282772 
L 234.706603 29.484356 
L 236.195844 29.484356 
L 236.195844 27.887525 
L 237.509443 27.887525 
L 237.509446 26.290693 
L 238.112441 26.290693 
L 238.112444 24.693861 
L 238.684505 24.693861 
L 238.684505 23.895446 
L 239.228647 23.895446 
L 239.228647 23.09703 
L 239.747471 23.09703 
L 239.822908 21.500198 
L 240.00405 21.500198 
L 240.00405 20.701782 
L 240.289662 20.701782 
L 240.289662 19.903366 
L 240.536722 19.903366 
L 240.594006 17.508119 
L 240.71581 17.508119 
L 240.739688 12.717624 
L 240.867148 12.717624 
L 240.936217 11.120792 
L 241.000225 11.120792 
L 241.014417 8.725545 
L 241.287626 8.725545 
L 241.287626 7.927129 
L 241.610584 7.927129 
L 241.610584 7.128713 
L 242.208698 7.128713 
L 242.208698 6.330297 
L 242.208698 6.330297 
L 460.8 6.330297 
L 460.8 6.330297 
" style="fill:none;stroke:#ff0000;stroke-linecap:square;stroke-width:3;"/>
   </g>
   <g id="line2d_22">
    <path clip-path="url(#p28616372fb)" d="M 223.254743 293.76 
L 223.254743 292.961584 
L 224.819609 292.961584 
L 224.819609 292.163168 
L 225.023533 292.163168 
L 225.023533 291.364752 
L 226.971233 291.364752 
L 226.971233 290.566337 
L 227.178084 290.566337 
L 227.178084 289.767921 
L 227.971071 289.767921 
L 227.971071 288.969505 
L 228.963169 288.969505 
L 228.963169 288.171089 
L 229.602538 288.171089 
L 229.602538 287.372673 
L 229.784154 287.372673 
L 229.784154 286.574257 
L 229.910531 286.574257 
L 229.910531 285.775842 
L 230.24227 285.775842 
L 230.24227 284.977426 
L 230.697123 284.977426 
L 230.697123 284.17901 
L 230.917531 284.17901 
L 230.929742 282.582178 
L 231.081877 282.582178 
L 231.081877 281.783762 
L 231.361613 281.783762 
L 231.443962 280.186931 
L 231.494552 280.186931 
L 231.506292 278.590099 
L 232.060933 278.590099 
L 232.060933 277.791683 
L 232.247203 277.791683 
L 232.247203 276.993267 
L 232.444388 276.993267 
L 232.444388 276.194851 
L 232.709546 276.194851 
L 232.747785 274.59802 
L 232.830659 274.59802 
L 232.834679 273.001188 
L 233.089843 273.001188 
L 233.129796 271.404356 
L 233.234234 271.404356 
L 233.234234 270.605941 
L 233.541666 270.605941 
L 233.62193 269.009109 
L 233.723008 269.009109 
L 233.822838 267.412277 
L 233.936417 267.412277 
L 233.94871 265.815446 
L 234.176528 265.815446 
L 234.18148 264.218614 
L 234.706171 264.218614 
L 234.706171 263.420198 
L 234.918266 263.420198 
L 234.918266 262.621782 
L 240.066778 262.621782 
L 240.066778 261.823366 
L 240.521514 261.823366 
L 240.521514 261.02495 
L 240.946715 261.02495 
L 240.946715 260.226535 
L 241.607489 260.226535 
L 241.607489 259.428119 
L 242.477822 259.428119 
L 242.585895 257.831287 
L 243.212578 257.831287 
L 243.247613 256.234455 
L 244.026541 256.234455 
L 244.026541 255.43604 
L 244.24397 255.43604 
L 244.24397 254.637624 
L 244.48769 254.637624 
L 244.48769 253.839208 
L 244.888273 253.839208 
L 244.888273 253.040792 
L 245.321507 253.040792 
L 245.321507 252.242376 
L 245.60405 252.242376 
L 245.60405 251.44396 
L 245.731182 251.44396 
L 245.731182 250.645545 
L 245.934485 250.645545 
L 245.934485 249.847129 
L 246.066352 249.847129 
L 246.066352 249.048713 
L 246.383762 249.048713 
L 246.383762 248.250297 
L 247.175374 248.250297 
L 247.263226 245.85505 
L 247.458592 245.85505 
L 247.458592 245.056634 
L 247.593571 245.056634 
L 247.601357 243.459802 
L 248.066915 243.459802 
L 248.066915 242.661386 
L 248.733393 242.661386 
L 248.733393 241.86297 
L 249.068399 241.86297 
L 249.146908 240.266139 
L 249.482506 240.266139 
L 249.568145 238.669307 
L 249.626734 238.669307 
L 249.691146 237.072475 
L 249.752081 237.072475 
L 249.752081 236.274059 
L 249.972195 236.274059 
L 250.030271 234.677228 
L 250.23585 234.677228 
L 250.30366 233.080396 
L 250.524358 233.080396 
L 250.567006 230.685149 
L 250.684473 230.685149 
L 250.684473 229.886733 
L 250.847286 229.886733 
L 250.847286 229.088317 
L 251.147048 229.088317 
L 251.147048 228.289901 
L 251.476886 228.289901 
L 251.561822 226.693069 
L 251.835736 226.693069 
L 251.835736 225.894653 
L 252.557699 225.894653 
L 252.557699 225.096238 
L 252.904449 225.096238 
L 253.00189 222.70099 
L 253.036464 222.70099 
L 253.036464 221.902574 
L 253.280349 221.902574 
L 253.313457 220.305743 
L 253.445622 220.305743 
L 253.445622 219.507327 
L 253.586654 219.507327 
L 253.692788 217.112079 
L 253.738331 217.112079 
L 253.808368 211.523168 
L 253.863801 211.523168 
L 253.962265 208.329505 
L 254.049611 208.329505 
L 254.120945 205.135842 
L 254.271323 205.135842 
L 254.381492 201.942178 
L 254.418186 201.942178 
L 254.418186 201.143762 
L 254.607701 201.143762 
L 254.675693 197.950099 
L 254.731376 197.950099 
L 254.731376 197.151683 
L 255.848848 197.151683 
L 255.848848 196.353267 
L 256.036966 196.353267 
L 256.036966 195.554851 
L 256.632951 195.554851 
L 256.672832 193.159604 
L 257.099565 193.159604 
L 257.099565 192.361188 
L 258.195037 192.361188 
L 258.195037 191.562772 
L 259.687171 191.562772 
L 259.687171 190.764356 
L 259.856386 190.764356 
L 259.856386 189.965941 
L 259.988971 189.965941 
L 259.988971 189.167525 
L 260.380175 189.167525 
L 260.380175 188.369109 
L 261.25257 188.369109 
L 261.25257 187.570693 
L 262.410008 187.570693 
L 262.410008 186.772277 
L 263.53006 186.772277 
L 263.53006 185.973861 
L 263.748444 185.973861 
L 263.748444 185.175446 
L 264.265574 185.175446 
L 264.265574 184.37703 
L 265.43131 184.37703 
L 265.43131 183.578614 
L 267.53479 183.578614 
L 267.53479 182.780198 
L 268.763312 182.780198 
L 268.763312 181.981782 
L 268.970301 181.981782 
L 269.012863 180.38495 
L 269.38567 180.38495 
L 269.38567 179.586535 
L 269.694795 179.586535 
L 269.741948 177.989703 
L 269.87461 177.989703 
L 269.87461 177.191287 
L 270.059413 177.191287 
L 270.059413 176.392871 
L 270.312129 176.392871 
L 270.312129 175.594455 
L 270.551517 175.594455 
L 270.662386 173.997624 
L 270.666401 173.997624 
L 270.697644 172.400792 
L 270.804589 172.400792 
L 270.888057 170.005545 
L 271.01465 170.005545 
L 271.093034 168.408713 
L 271.133976 168.408713 
L 271.135812 166.811881 
L 271.627679 166.811881 
L 271.627679 166.013465 
L 271.738872 166.013465 
L 271.800896 163.618218 
L 271.894307 163.618218 
L 271.894307 162.819802 
L 272.022812 162.819802 
L 272.067538 161.22297 
L 272.274419 161.22297 
L 272.274419 160.424554 
L 272.683349 160.424554 
L 272.683349 159.626139 
L 273.61085 159.626139 
L 273.61085 158.827723 
L 274.41302 158.827723 
L 274.503514 157.230891 
L 274.665659 157.230891 
L 274.665659 156.432475 
L 275.672667 156.432475 
L 275.672667 155.634059 
L 276.034583 155.634059 
L 276.034583 154.835644 
L 276.153397 154.835644 
L 276.201822 153.238812 
L 276.315206 153.238812 
L 276.335778 151.64198 
L 276.615956 151.64198 
L 276.727031 150.045149 
L 276.747644 150.045149 
L 276.747644 149.246733 
L 276.917621 149.246733 
L 276.917621 148.448317 
L 277.127351 148.448317 
L 277.179669 146.851485 
L 277.255611 146.851485 
L 277.255611 146.053069 
L 277.794296 146.053069 
L 277.849394 143.657822 
L 278.12756 143.657822 
L 278.184731 140.464158 
L 278.244891 140.464158 
L 278.244891 139.665743 
L 278.597136 139.665743 
L 278.621435 138.068911 
L 278.989555 138.068911 
L 279.084414 134.875248 
L 279.149267 134.875248 
L 279.149267 134.076832 
L 279.366803 134.076832 
L 279.366803 133.278416 
L 279.537523 133.278416 
L 279.617986 131.681584 
L 279.707287 131.681584 
L 279.707287 130.883168 
L 279.929437 130.883168 
L 279.950629 129.286337 
L 280.056586 129.286337 
L 280.056586 128.487921 
L 280.270721 128.487921 
L 280.374446 126.891089 
L 280.428504 126.891089 
L 280.428504 126.092673 
L 280.581079 126.092673 
L 280.670074 124.495842 
L 280.694158 124.495842 
L 280.778635 122.89901 
L 280.818294 122.89901 
L 280.818294 122.100594 
L 281.203229 122.100594 
L 281.292346 119.705347 
L 281.379292 119.705347 
L 281.379292 118.906931 
L 281.749582 118.906931 
L 281.749582 118.108515 
L 282.006956 118.108515 
L 282.06698 116.511683 
L 282.571258 116.511683 
L 282.571258 115.713267 
L 283.494579 115.713267 
L 283.494579 114.914851 
L 285.514472 114.914851 
L 285.607544 113.31802 
L 288.00335 113.31802 
L 288.00335 112.519604 
L 289.093186 112.519604 
L 289.093186 111.721188 
L 289.53442 111.721188 
L 289.53442 110.922772 
L 289.660677 110.922772 
L 289.72778 109.325941 
L 289.945111 109.325941 
L 289.989924 107.729109 
L 290.104734 107.729109 
L 290.104734 106.930693 
L 290.35641 106.930693 
L 290.446303 104.535446 
L 290.703368 104.535446 
L 290.703368 103.73703 
L 290.941631 103.73703 
L 291.051298 102.140198 
L 291.190879 102.140198 
L 291.190879 101.341782 
L 291.805842 101.341782 
L 291.805842 100.543366 
L 292.614183 100.543366 
L 292.614183 99.74495 
L 293.543959 99.74495 
L 293.543959 98.946535 
L 302.071655 98.946535 
L 302.071655 98.148119 
L 302.353556 98.148119 
L 302.353556 97.349703 
L 303.770796 97.349703 
L 303.770796 96.551287 
L 304.094017 96.551287 
L 304.094017 95.752871 
L 307.668386 95.752871 
L 307.668386 94.954455 
L 307.790288 94.954455 
L 307.790288 94.15604 
L 309.908134 94.15604 
L 309.908134 93.357624 
L 310.051246 93.357624 
L 310.051246 92.559208 
L 310.386937 92.559208 
L 310.386937 91.760792 
L 310.653303 91.760792 
L 310.653303 90.962376 
L 311.339151 90.962376 
L 311.339151 90.16396 
L 312.76263 90.16396 
L 312.763403 88.567129 
L 314.072812 88.567129 
L 314.115889 86.970297 
L 314.430855 86.970297 
L 314.430855 86.171881 
L 314.741854 86.171881 
L 314.810978 84.57505 
L 315.132039 84.57505 
L 315.132039 83.776634 
L 315.794276 83.776634 
L 315.794276 82.978218 
L 315.947475 82.978218 
L 316.008384 81.381386 
L 316.691292 81.381386 
L 316.691292 80.58297 
L 318.236115 80.58297 
L 318.24755 78.986139 
L 318.553552 78.986139 
L 318.553552 78.187723 
L 318.99339 78.187723 
L 318.99339 77.389307 
L 320.894287 77.389307 
L 320.894287 76.590891 
L 321.154671 76.590891 
L 321.154671 75.792475 
L 322.344455 75.792475 
L 322.344455 74.994059 
L 322.601036 74.994059 
L 322.708903 73.397228 
L 323.288728 73.397228 
L 323.288728 72.598812 
L 323.58329 72.598812 
L 323.684326 71.00198 
L 324.282412 71.00198 
L 324.282412 70.203564 
L 325.11505 70.203564 
L 325.11505 69.405149 
L 325.233741 69.405149 
L 325.233741 68.606733 
L 325.661109 68.606733 
L 325.746549 67.009901 
L 325.976921 67.009901 
L 325.976921 66.211485 
L 327.773835 66.211485 
L 327.773835 65.413069 
L 329.464515 65.413069 
L 329.464515 64.614653 
L 330.23998 64.614653 
L 330.23998 63.816238 
L 332.02232 63.816238 
L 332.02232 63.017822 
L 333.239766 63.017822 
L 333.239766 62.219406 
L 333.770377 62.219406 
L 333.770377 61.42099 
L 334.300671 61.42099 
L 334.300671 60.622574 
L 335.209005 60.622574 
L 335.209005 59.824158 
L 335.473658 59.824158 
L 335.473658 59.025743 
L 336.468222 59.025743 
L 336.468222 58.227327 
L 336.704882 58.227327 
L 336.739418 56.630495 
L 338.019965 56.630495 
L 338.019965 55.832079 
L 339.071556 55.832079 
L 339.071556 55.033663 
L 341.35802 55.033663 
L 341.35802 54.235248 
L 341.52479 54.235248 
L 341.52479 53.436832 
L 342.390033 53.436832 
L 342.390033 52.638416 
L 343.105858 52.638416 
L 343.105858 51.84 
L 346.219286 51.84 
L 346.317682 50.243168 
L 346.581007 50.243168 
L 346.581007 49.444752 
L 348.243046 49.444752 
L 348.243046 48.646337 
L 352.627475 48.646337 
L 352.627475 47.847921 
L 353.482077 47.847921 
L 353.591888 45.452673 
L 353.609007 45.452673 
L 353.609007 44.654257 
L 353.891488 44.654257 
L 353.891488 43.855842 
L 354.442614 43.855842 
L 354.442614 43.057426 
L 356.776111 43.057426 
L 356.776111 42.25901 
L 360.394692 42.25901 
L 360.394692 41.460594 
L 365.408771 41.460594 
L 365.452874 39.863762 
L 365.553461 39.863762 
L 365.553461 39.065347 
L 367.8534 39.065347 
L 367.8534 38.266931 
L 370.746322 38.266931 
L 370.746322 37.468515 
L 371.403919 37.468515 
L 371.403919 36.670099 
L 371.630294 36.670099 
L 371.630294 35.871683 
L 372.975214 35.871683 
L 373.029885 34.274851 
L 373.745089 34.274851 
L 373.844431 32.67802 
L 373.903019 32.67802 
L 373.903019 31.879604 
L 374.148722 31.879604 
L 374.148722 31.081188 
L 374.284801 31.081188 
L 374.308416 29.484356 
L 374.417223 29.484356 
L 374.417223 28.685941 
L 375.730006 28.685941 
L 375.730006 27.887525 
L 376.605132 27.887525 
L 376.605132 27.089109 
L 376.982233 27.089109 
L 376.982233 26.290693 
L 377.708038 26.290693 
L 377.708038 25.492277 
L 379.17606 25.492277 
L 379.17606 24.693861 
L 379.561326 24.693861 
L 379.577008 23.09703 
L 380.839856 23.09703 
L 380.839856 22.298614 
L 381.528884 22.298614 
L 381.528884 21.500198 
L 382.225773 21.500198 
L 382.225773 20.701782 
L 382.721425 20.701782 
L 382.721425 19.903366 
L 383.115422 19.903366 
L 383.115422 19.10495 
L 383.282023 19.10495 
L 383.282023 18.306535 
L 406.485677 18.306535 
L 406.485677 17.508119 
L 410.559675 17.508119 
L 410.559675 16.709703 
L 411.071935 16.709703 
L 411.071935 15.911287 
L 415.871064 15.911287 
L 415.871064 15.112871 
L 416.255271 15.112871 
L 416.255271 14.314455 
L 418.800062 14.314455 
L 418.800062 13.51604 
L 419.302387 13.51604 
L 419.302387 12.717624 
L 419.517005 12.717624 
L 419.586379 11.120792 
L 419.779408 11.120792 
L 419.779408 10.322376 
L 424.282154 10.322376 
L 424.282154 9.52396 
L 424.538812 9.52396 
L 424.538812 8.725545 
L 424.937149 8.725545 
L 424.937149 7.927129 
L 429.526713 7.927129 
L 429.526713 7.128713 
L 429.860712 7.128713 
L 429.860712 6.330297 
L 429.860712 6.330297 
L 460.8 6.330297 
L 460.8 6.330297 
" style="fill:none;stroke:#00bfbf;stroke-linecap:square;stroke-width:1.5;"/>
   </g>
   <g id="line2d_23">
    <path clip-path="url(#p28616372fb)" d="M 222.874449 293.76 
L 222.874449 292.961584 
L 223.254743 292.961584 
L 223.254743 292.163168 
L 223.66883 292.163168 
L 223.66883 291.364752 
L 224.819609 291.364752 
L 224.819609 290.566337 
L 225.678322 290.566337 
L 225.678322 289.767921 
L 225.928273 289.767921 
L 225.928273 288.969505 
L 226.971233 288.969505 
L 226.971233 288.171089 
L 227.178084 288.171089 
L 227.185683 286.574257 
L 227.490081 286.574257 
L 227.490081 285.775842 
L 227.603573 285.775842 
L 227.603573 284.977426 
L 227.971071 284.977426 
L 227.971071 284.17901 
L 228.397683 284.17901 
L 228.397683 283.380594 
L 229.38537 283.380594 
L 229.389585 281.783762 
L 229.682695 281.783762 
L 229.784154 280.186931 
L 230.011398 280.186931 
L 230.011398 279.388515 
L 230.697123 279.388515 
L 230.697123 278.590099 
L 230.884949 278.590099 
L 230.946544 276.194851 
L 231.081877 276.194851 
L 231.180577 274.59802 
L 231.43294 274.59802 
L 231.51537 272.202772 
L 231.993 272.202772 
L 232.060933 270.605941 
L 232.247203 270.605941 
L 232.247203 269.807525 
L 232.373361 269.807525 
L 232.444388 268.210693 
L 232.709546 268.210693 
L 232.709546 267.412277 
L 232.831398 267.412277 
L 232.895723 265.815446 
L 233.615747 265.815446 
L 233.615747 265.01703 
L 233.778648 265.01703 
L 233.778648 264.218614 
L 233.94871 264.218614 
L 233.94871 263.420198 
L 234.176528 263.420198 
L 234.176528 262.621782 
L 235.946802 262.621782 
L 235.946802 261.823366 
L 236.458784 261.823366 
L 236.458784 261.02495 
L 238.408351 261.02495 
L 238.408351 260.226535 
L 239.83185 260.226535 
L 239.83185 259.428119 
L 240.521514 259.428119 
L 240.521514 258.629703 
L 240.781363 258.629703 
L 240.781363 257.831287 
L 241.065676 257.831287 
L 241.065676 257.032871 
L 241.607489 257.032871 
L 241.674924 255.43604 
L 242.477822 255.43604 
L 242.582913 253.839208 
L 243.247613 253.839208 
L 243.247613 253.040792 
L 243.738407 253.040792 
L 243.738407 252.242376 
L 244.026541 252.242376 
L 244.026541 251.44396 
L 244.24397 251.44396 
L 244.24397 250.645545 
L 244.48769 250.645545 
L 244.502281 249.048713 
L 245.03709 249.048713 
L 245.03709 248.250297 
L 245.321507 248.250297 
L 245.321507 247.451881 
L 245.60405 247.451881 
L 245.60405 246.653465 
L 245.731182 246.653465 
L 245.731182 245.85505 
L 245.934485 245.85505 
L 245.948659 244.258218 
L 246.053541 244.258218 
L 246.066352 242.661386 
L 246.783257 242.661386 
L 246.783257 241.86297 
L 247.138951 241.86297 
L 247.238062 239.467723 
L 247.263226 239.467723 
L 247.263226 238.669307 
L 247.454263 238.669307 
L 247.458592 237.072475 
L 247.593571 237.072475 
L 247.612817 235.475644 
L 247.918298 235.475644 
L 248.01309 233.080396 
L 248.733393 233.080396 
L 248.733393 232.28198 
L 248.859357 232.28198 
L 248.859357 231.483564 
L 249.068399 231.483564 
L 249.146908 229.886733 
L 249.626734 229.886733 
L 249.626734 229.088317 
L 249.9212 229.088317 
L 249.9212 228.289901 
L 250.043495 228.289901 
L 250.043495 227.491485 
L 250.449563 227.491485 
L 250.478189 225.894653 
L 251.147048 225.894653 
L 251.147048 225.096238 
L 251.26597 225.096238 
L 251.26597 224.297822 
L 252.847783 224.297822 
L 252.949739 222.70099 
L 253.00189 222.70099 
L 253.11129 220.305743 
L 253.210055 220.305743 
L 253.313457 215.515248 
L 253.445622 215.515248 
L 253.538747 213.918416 
L 253.586654 213.918416 
L 253.692788 211.523168 
L 253.740735 211.523168 
L 253.800126 207.531089 
L 253.861676 207.531089 
L 253.962265 204.337426 
L 254.10745 204.337426 
L 254.212266 200.345347 
L 254.233521 200.345347 
L 254.297339 197.950099 
L 254.354909 197.950099 
L 254.354909 197.151683 
L 254.660365 197.151683 
L 254.660365 196.353267 
L 255.606754 196.353267 
L 255.606754 195.554851 
L 255.848848 195.554851 
L 255.848848 194.756436 
L 256.036966 194.756436 
L 256.036966 193.95802 
L 256.662855 193.95802 
L 256.672832 192.361188 
L 256.941538 192.361188 
L 256.941538 191.562772 
L 258.195037 191.562772 
L 258.195037 190.764356 
L 258.584793 190.764356 
L 258.584793 189.965941 
L 259.060766 189.965941 
L 259.060766 189.167525 
L 259.299249 189.167525 
L 259.299249 188.369109 
L 259.988971 188.369109 
L 259.988971 187.570693 
L 260.216149 187.570693 
L 260.216149 186.772277 
L 261.25257 186.772277 
L 261.25257 185.973861 
L 263.53006 185.973861 
L 263.53006 185.175446 
L 264.265574 185.175446 
L 264.265574 184.37703 
L 265.43131 184.37703 
L 265.43131 183.578614 
L 267.53479 183.578614 
L 267.53479 182.780198 
L 268.525115 182.780198 
L 268.525115 181.981782 
L 268.763312 181.981782 
L 268.845448 180.38495 
L 268.970301 180.38495 
L 269.012863 178.788119 
L 269.38567 178.788119 
L 269.478663 176.392871 
L 269.661608 176.392871 
L 269.741948 173.997624 
L 269.87461 173.997624 
L 269.87461 173.199208 
L 270.059413 173.199208 
L 270.059413 172.400792 
L 270.188137 172.400792 
L 270.285056 170.80396 
L 270.309493 170.80396 
L 270.335482 169.207129 
L 270.530187 169.207129 
L 270.588454 167.610297 
L 270.662386 167.610297 
L 270.736769 164.416634 
L 270.815983 164.416634 
L 270.913826 162.021386 
L 271.01465 162.021386 
L 271.01465 161.22297 
L 271.135812 161.22297 
L 271.200273 159.626139 
L 271.468832 159.626139 
L 271.468832 158.827723 
L 271.638903 158.827723 
L 271.638903 158.029307 
L 272.841081 158.029307 
L 272.841081 157.230891 
L 273.61085 157.230891 
L 273.61085 156.432475 
L 274.41302 156.432475 
L 274.503514 154.835644 
L 274.665659 154.835644 
L 274.665659 154.037228 
L 275.092556 154.037228 
L 275.182049 152.440396 
L 275.26895 152.440396 
L 275.294235 150.843564 
L 275.393863 150.843564 
L 275.393863 150.045149 
L 275.51276 150.045149 
L 275.51276 149.246733 
L 275.891947 149.246733 
L 275.950733 147.649901 
L 276.034583 147.649901 
L 276.034583 146.851485 
L 276.153397 146.851485 
L 276.251516 144.456238 
L 276.315206 144.456238 
L 276.315206 143.657822 
L 276.51661 143.657822 
L 276.615956 142.06099 
L 276.651097 142.06099 
L 276.753892 139.665743 
L 276.891345 139.665743 
L 276.917621 138.068911 
L 277.020856 138.068911 
L 277.127351 136.472079 
L 277.362919 136.472079 
L 277.362919 135.673663 
L 277.606508 135.673663 
L 277.658856 134.076832 
L 277.829512 134.076832 
L 277.829512 133.278416 
L 278.107442 133.278416 
L 278.184731 129.286337 
L 278.369481 129.286337 
L 278.369481 128.487921 
L 278.597136 128.487921 
L 278.621435 126.891089 
L 278.772448 126.891089 
L 278.844585 125.294257 
L 279.084414 125.294257 
L 279.184154 123.697426 
L 279.417188 123.697426 
L 279.458143 122.100594 
L 279.537523 122.100594 
L 279.606209 120.503762 
L 279.657514 120.503762 
L 279.76652 118.108515 
L 280.056586 118.108515 
L 280.101304 116.511683 
L 280.428504 116.511683 
L 280.428504 115.713267 
L 280.747027 115.713267 
L 280.778635 114.116436 
L 281.715992 114.116436 
L 281.715992 113.31802 
L 282.186119 113.31802 
L 282.186119 112.519604 
L 285.514472 112.519604 
L 285.514472 111.721188 
L 286.202554 111.721188 
L 286.202554 110.922772 
L 286.858183 110.922772 
L 286.858183 110.124356 
L 287.374485 110.124356 
L 287.374485 109.325941 
L 287.896206 109.325941 
L 287.896206 108.527525 
L 288.290061 108.527525 
L 288.290061 107.729109 
L 288.989886 107.729109 
L 289.093186 106.132277 
L 289.500526 106.132277 
L 289.500526 105.333861 
L 289.640472 105.333861 
L 289.650322 103.73703 
L 289.831713 103.73703 
L 289.831713 102.938614 
L 289.989924 102.938614 
L 289.989924 102.140198 
L 290.446303 102.140198 
L 290.446303 101.341782 
L 290.703368 101.341782 
L 290.703368 100.543366 
L 291.190879 100.543366 
L 291.190879 99.74495 
L 291.805842 99.74495 
L 291.805842 98.946535 
L 292.550977 98.946535 
L 292.550977 98.148119 
L 292.891952 98.148119 
L 292.891952 97.349703 
L 294.775551 97.349703 
L 294.775551 96.551287 
L 301.508 96.551287 
L 301.508 95.752871 
L 302.071655 95.752871 
L 302.071655 94.954455 
L 302.353556 94.954455 
L 302.353556 94.15604 
L 303.428892 94.15604 
L 303.428892 93.357624 
L 303.543679 93.357624 
L 303.543679 92.559208 
L 303.770796 92.559208 
L 303.770796 91.760792 
L 304.094017 91.760792 
L 304.094017 90.962376 
L 304.533341 90.962376 
L 304.533341 90.16396 
L 306.209457 90.16396 
L 306.209457 89.365545 
L 306.365694 89.365545 
L 306.365694 88.567129 
L 307.668386 88.567129 
L 307.668386 87.768713 
L 307.790288 87.768713 
L 307.790288 86.970297 
L 308.770753 86.970297 
L 308.770753 86.171881 
L 309.331739 86.171881 
L 309.331739 85.373465 
L 309.908134 85.373465 
L 309.908134 84.57505 
L 310.386937 84.57505 
L 310.386937 83.776634 
L 310.653303 83.776634 
L 310.653303 82.978218 
L 311.19482 82.978218 
L 311.19482 82.179802 
L 311.842588 82.179802 
L 311.842588 81.381386 
L 312.496109 81.381386 
L 312.606032 79.784554 
L 312.711483 79.784554 
L 312.76263 78.187723 
L 314.072812 78.187723 
L 314.115889 76.590891 
L 314.430855 76.590891 
L 314.430855 75.792475 
L 314.741854 75.792475 
L 314.741854 74.994059 
L 315.794276 74.994059 
L 315.882953 73.397228 
L 315.947475 73.397228 
L 315.947475 72.598812 
L 316.691292 72.598812 
L 316.726873 71.00198 
L 317.219829 71.00198 
L 317.219829 70.203564 
L 318.214869 70.203564 
L 318.214869 69.405149 
L 318.553552 69.405149 
L 318.553552 68.606733 
L 319.536932 68.606733 
L 319.536932 67.808317 
L 320.296673 67.808317 
L 320.296673 67.009901 
L 320.894287 67.009901 
L 320.965877 65.413069 
L 322.137207 65.413069 
L 322.137207 64.614653 
L 322.433837 64.614653 
L 322.433837 63.816238 
L 324.987776 63.816238 
L 324.987776 63.017822 
L 325.661109 63.017822 
L 325.661109 62.219406 
L 329.238688 62.219406 
L 329.238688 61.42099 
L 329.464515 61.42099 
L 329.464515 60.622574 
L 330.182329 60.622574 
L 330.23998 59.025743 
L 330.827566 59.025743 
L 330.827566 58.227327 
L 331.551767 58.227327 
L 331.551767 57.428911 
L 333.770377 57.428911 
L 333.770552 55.832079 
L 335.57646 55.832079 
L 335.57646 55.033663 
L 336.537883 55.033663 
L 336.537883 54.235248 
L 336.704882 54.235248 
L 336.739418 52.638416 
L 341.52479 52.638416 
L 341.52479 51.84 
L 342.179481 51.84 
L 342.179481 51.041584 
L 343.105858 51.041584 
L 343.105858 50.243168 
L 346.210218 50.243168 
L 346.299375 48.646337 
L 346.848543 48.646337 
L 346.848543 47.847921 
L 347.853627 47.847921 
L 347.853627 47.049505 
L 351.551177 47.049505 
L 351.551177 46.251089 
L 352.627475 46.251089 
L 352.647791 44.654257 
L 353.221527 44.654257 
L 353.221527 43.855842 
L 353.591888 43.855842 
L 353.591888 43.057426 
L 353.891488 43.057426 
L 353.891488 42.25901 
L 354.442614 42.25901 
L 354.442614 41.460594 
L 362.173335 41.460594 
L 362.173335 40.662178 
L 362.419696 40.662178 
L 362.419696 39.863762 
L 365.408771 39.863762 
L 365.452874 38.266931 
L 365.553461 38.266931 
L 365.553461 37.468515 
L 365.688522 37.468515 
L 365.688522 36.670099 
L 366.041791 36.670099 
L 366.041791 35.871683 
L 366.352836 35.871683 
L 366.352836 35.073267 
L 366.600183 35.073267 
L 366.600183 34.274851 
L 367.8534 34.274851 
L 367.8534 33.476436 
L 368.514067 33.476436 
L 368.514067 32.67802 
L 370.050704 32.67802 
L 370.050704 31.879604 
L 371.255806 31.879604 
L 371.255806 31.081188 
L 371.403919 31.081188 
L 371.403919 30.282772 
L 371.630294 30.282772 
L 371.689389 28.685941 
L 373.029885 28.685941 
L 373.029885 27.887525 
L 373.745089 27.887525 
L 373.844431 26.290693 
L 373.903019 26.290693 
L 373.903019 25.492277 
L 374.284801 25.492277 
L 374.308416 23.895446 
L 374.704339 23.895446 
L 374.704339 23.09703 
L 375.178217 23.09703 
L 375.178217 22.298614 
L 375.730006 22.298614 
L 375.730006 21.500198 
L 377.859497 21.500198 
L 377.960279 19.903366 
L 378.602517 19.903366 
L 378.602517 19.10495 
L 380.839856 19.10495 
L 380.839856 18.306535 
L 400.731195 18.306535 
L 400.731195 17.508119 
L 409.770676 17.508119 
L 409.770676 16.709703 
L 410.559675 16.709703 
L 410.559675 15.911287 
L 410.69943 15.911287 
L 410.69943 15.112871 
L 411.071935 15.112871 
L 411.071935 14.314455 
L 414.724223 14.314455 
L 414.724223 13.51604 
L 415.834646 13.51604 
L 415.834646 12.717624 
L 416.735905 12.717624 
L 416.735905 11.919208 
L 417.931238 11.919208 
L 417.931238 11.120792 
L 418.526917 11.120792 
L 418.526917 10.322376 
L 419.302387 10.322376 
L 419.302387 9.52396 
L 419.435043 9.52396 
L 419.517005 7.927129 
L 427.415886 7.927129 
L 427.415886 7.128713 
L 428.57592 7.128713 
L 428.57592 6.330297 
L 428.57592 6.330297 
L 460.8 6.330297 
L 460.8 6.330297 
" style="fill:none;stroke:#bf00bf;stroke-linecap:square;stroke-width:1.5;"/>
   </g>
   <g id="line2d_24">
    <path clip-path="url(#p28616372fb)" d="M 221.951503 293.76 
L 221.951503 292.961584 
L 222.577234 292.961584 
L 222.661284 291.364752 
L 222.874449 291.364752 
L 222.874449 290.566337 
L 223.254743 290.566337 
L 223.254743 289.767921 
L 223.470093 289.767921 
L 223.470093 288.969505 
L 223.66883 288.969505 
L 223.66883 288.171089 
L 224.661704 288.171089 
L 224.661704 287.372673 
L 224.819609 287.372673 
L 224.819609 286.574257 
L 225.457417 286.574257 
L 225.457417 285.775842 
L 225.678322 285.775842 
L 225.678322 284.977426 
L 225.928273 284.977426 
L 225.928273 284.17901 
L 227.111502 284.17901 
L 227.185683 282.582178 
L 227.563773 282.582178 
L 227.563773 281.783762 
L 228.397683 281.783762 
L 228.472303 280.186931 
L 229.161528 280.186931 
L 229.161528 279.388515 
L 229.342323 279.388515 
L 229.389585 277.791683 
L 229.784154 277.791683 
L 229.877802 275.396436 
L 229.983745 275.396436 
L 230.084099 273.799604 
L 230.104596 273.799604 
L 230.104596 273.001188 
L 230.27248 273.001188 
L 230.27248 272.202772 
L 230.697123 272.202772 
L 230.758617 270.605941 
L 230.860178 270.605941 
L 230.860178 269.807525 
L 230.990124 269.807525 
L 230.990124 269.009109 
L 231.108092 269.009109 
L 231.180577 267.412277 
L 231.51537 267.412277 
L 231.51537 266.613861 
L 231.993 266.613861 
L 232.076145 265.01703 
L 232.204643 265.01703 
L 232.248445 262.621782 
L 233.615747 262.621782 
L 233.615747 261.823366 
L 235.091615 261.823366 
L 235.091615 261.02495 
L 235.946802 261.02495 
L 235.946802 260.226535 
L 236.458784 260.226535 
L 236.458784 259.428119 
L 237.716655 259.428119 
L 237.716655 258.629703 
L 238.254799 258.629703 
L 238.254799 257.831287 
L 238.408351 257.831287 
L 238.408351 257.032871 
L 238.898688 257.032871 
L 238.898688 256.234455 
L 239.049184 256.234455 
L 239.049184 255.43604 
L 240.781363 255.43604 
L 240.781363 254.637624 
L 241.674924 254.637624 
L 241.758953 253.040792 
L 241.811552 253.040792 
L 241.811552 252.242376 
L 242.07976 252.242376 
L 242.07976 251.44396 
L 242.341232 251.44396 
L 242.341232 250.645545 
L 242.477822 250.645545 
L 242.477822 249.847129 
L 242.933667 249.847129 
L 242.933667 249.048713 
L 243.133949 249.048713 
L 243.133949 248.250297 
L 243.247613 248.250297 
L 243.247613 247.451881 
L 243.738407 247.451881 
L 243.836039 245.85505 
L 244.112856 245.85505 
L 244.112856 245.056634 
L 244.24397 245.056634 
L 244.24397 244.258218 
L 244.554595 244.258218 
L 244.554595 243.459802 
L 245.133565 243.459802 
L 245.133565 242.661386 
L 245.321507 242.661386 
L 245.345805 241.064554 
L 245.596294 241.064554 
L 245.60405 239.467723 
L 245.731182 239.467723 
L 245.810628 237.870891 
L 245.948659 237.870891 
L 246.054626 236.274059 
L 246.265614 236.274059 
L 246.375742 234.677228 
L 246.560942 234.677228 
L 246.560942 233.878812 
L 247.040299 233.878812 
L 247.138951 232.28198 
L 247.184583 232.28198 
L 247.238062 230.685149 
L 247.389285 230.685149 
L 247.458592 229.088317 
L 247.918298 229.088317 
L 247.918298 228.289901 
L 248.058551 228.289901 
L 248.058551 227.491485 
L 249.479531 227.491485 
L 249.479531 226.693069 
L 249.626734 226.693069 
L 249.631908 225.096238 
L 249.876184 225.096238 
L 249.9212 223.499406 
L 250.293819 223.499406 
L 250.293819 222.70099 
L 250.467866 222.70099 
L 250.467866 221.902574 
L 251.147048 221.902574 
L 251.147048 221.104158 
L 252.313283 221.104158 
L 252.345101 219.507327 
L 252.463679 219.507327 
L 252.463679 218.708911 
L 252.691951 218.708911 
L 252.691951 217.910495 
L 252.810883 217.910495 
L 252.810883 217.112079 
L 252.945806 217.112079 
L 253.036464 213.918416 
L 253.08929 213.918416 
L 253.187196 212.321584 
L 253.280349 212.321584 
L 253.378728 206.732673 
L 253.46988 206.732673 
L 253.529727 205.135842 
L 253.637154 205.135842 
L 253.690024 202.740594 
L 253.762852 202.740594 
L 253.861676 199.546931 
L 253.896376 199.546931 
L 253.962265 197.950099 
L 254.026443 197.950099 
L 254.113866 196.353267 
L 254.261046 196.353267 
L 254.268367 194.756436 
L 254.660365 194.756436 
L 254.660365 193.95802 
L 254.959145 193.95802 
L 254.959145 193.159604 
L 255.074604 193.159604 
L 255.074604 192.361188 
L 255.848848 192.361188 
L 255.848848 191.562772 
L 256.57156 191.562772 
L 256.573679 189.965941 
L 256.920681 189.965941 
L 256.920681 189.167525 
L 258.257602 189.167525 
L 258.257602 188.369109 
L 258.77459 188.369109 
L 258.77459 187.570693 
L 259.060423 187.570693 
L 259.060423 186.772277 
L 259.229319 186.772277 
L 259.229319 185.973861 
L 263.53006 185.973861 
L 263.53006 185.175446 
L 264.265574 185.175446 
L 264.265574 184.37703 
L 265.43131 184.37703 
L 265.43131 183.578614 
L 267.53479 183.578614 
L 267.53479 182.780198 
L 267.926709 182.780198 
L 267.926709 181.981782 
L 268.525115 181.981782 
L 268.525115 181.183366 
L 268.68702 181.183366 
L 268.763312 178.788119 
L 268.845448 178.788119 
L 268.845448 177.989703 
L 268.970301 177.989703 
L 269.080651 174.79604 
L 269.332141 174.79604 
L 269.405859 172.400792 
L 269.473499 172.400792 
L 269.519458 169.207129 
L 269.67245 169.207129 
L 269.741948 166.811881 
L 269.786118 166.811881 
L 269.87461 162.819802 
L 269.92073 162.819802 
L 270.022027 160.424554 
L 270.188137 160.424554 
L 270.285056 158.827723 
L 270.309493 158.827723 
L 270.309493 158.029307 
L 270.506194 158.029307 
L 270.506194 157.230891 
L 271.01465 157.230891 
L 271.01465 156.432475 
L 271.638903 156.432475 
L 271.638903 155.634059 
L 272.841081 155.634059 
L 272.930067 154.037228 
L 272.975054 154.037228 
L 272.975054 153.238812 
L 273.61085 153.238812 
L 273.61085 152.440396 
L 274.271796 152.440396 
L 274.341974 150.045149 
L 274.41302 150.045149 
L 274.41302 149.246733 
L 274.665659 149.246733 
L 274.757633 147.649901 
L 274.793504 147.649901 
L 274.83707 146.053069 
L 275.26895 146.053069 
L 275.323659 143.657822 
L 275.393863 143.657822 
L 275.393863 142.859406 
L 275.507505 142.859406 
L 275.51276 141.262574 
L 275.792893 141.262574 
L 275.891947 138.867327 
L 275.950733 138.867327 
L 276.03752 136.472079 
L 276.153397 136.472079 
L 276.251516 134.076832 
L 276.345723 134.076832 
L 276.345723 133.278416 
L 276.481596 133.278416 
L 276.51661 131.681584 
L 276.651097 131.681584 
L 276.753892 130.084752 
L 276.810494 130.084752 
L 276.885321 127.689505 
L 277.097122 127.689505 
L 277.127351 125.294257 
L 277.441669 125.294257 
L 277.464501 123.697426 
L 277.581033 123.697426 
L 277.658856 122.100594 
L 277.829512 122.100594 
L 277.901218 120.503762 
L 278.025576 120.503762 
L 278.025576 119.705347 
L 278.201745 119.705347 
L 278.201745 118.906931 
L 278.343565 118.906931 
L 278.343565 118.108515 
L 278.621435 118.108515 
L 278.711607 115.713267 
L 278.844585 115.713267 
L 278.844585 114.914851 
L 279.417188 114.914851 
L 279.417188 114.116436 
L 279.537523 114.116436 
L 279.537523 113.31802 
L 280.005085 113.31802 
L 280.101304 111.721188 
L 285.514472 111.721188 
L 285.514472 110.922772 
L 286.021392 110.922772 
L 286.021392 110.124356 
L 286.202554 110.124356 
L 286.202554 109.325941 
L 286.858183 109.325941 
L 286.858183 108.527525 
L 287.374485 108.527525 
L 287.374485 107.729109 
L 287.755196 107.729109 
L 287.755196 106.930693 
L 287.896206 106.930693 
L 287.896206 106.132277 
L 288.130083 106.132277 
L 288.130083 105.333861 
L 288.265694 105.333861 
L 288.265694 104.535446 
L 288.416244 104.535446 
L 288.497055 102.938614 
L 288.890933 102.938614 
L 288.989886 101.341782 
L 289.093186 101.341782 
L 289.093186 100.543366 
L 289.40856 100.543366 
L 289.40856 99.74495 
L 289.652556 99.74495 
L 289.652556 98.946535 
L 290.459183 98.946535 
L 290.459183 98.148119 
L 291.121793 98.148119 
L 291.190879 96.551287 
L 294.165506 96.551287 
L 294.165506 95.752871 
L 294.775551 95.752871 
L 294.775551 94.954455 
L 296.653255 94.954455 
L 296.653255 94.15604 
L 297.963556 94.15604 
L 297.963556 93.357624 
L 298.349068 93.357624 
L 298.349068 92.559208 
L 298.923747 92.559208 
L 298.923747 91.760792 
L 299.144655 91.760792 
L 299.144655 90.962376 
L 301.508 90.962376 
L 301.508 90.16396 
L 302.353556 90.16396 
L 302.353556 89.365545 
L 303.428892 89.365545 
L 303.428892 88.567129 
L 303.543679 88.567129 
L 303.543679 87.768713 
L 303.770796 87.768713 
L 303.770796 86.970297 
L 304.007543 86.970297 
L 304.007543 86.171881 
L 305.382412 86.171881 
L 305.382412 85.373465 
L 305.694269 85.373465 
L 305.694269 84.57505 
L 306.209457 84.57505 
L 306.209457 83.776634 
L 306.365694 83.776634 
L 306.365694 82.978218 
L 306.56965 82.978218 
L 306.56965 82.179802 
L 307.238961 82.179802 
L 307.238961 81.381386 
L 307.589367 81.381386 
L 307.668386 79.784554 
L 307.790288 79.784554 
L 307.790288 78.986139 
L 307.902125 78.986139 
L 307.902125 78.187723 
L 308.06973 78.187723 
L 308.06973 77.389307 
L 308.770753 77.389307 
L 308.770753 76.590891 
L 309.331739 76.590891 
L 309.331739 75.792475 
L 310.732856 75.792475 
L 310.732856 74.994059 
L 311.086822 74.994059 
L 311.090753 73.397228 
L 311.842588 73.397228 
L 311.842588 72.598812 
L 312.606032 72.598812 
L 312.606032 71.800396 
L 313.685341 71.800396 
L 313.685341 71.00198 
L 314.172501 71.00198 
L 314.172501 70.203564 
L 314.741854 70.203564 
L 314.84976 68.606733 
L 315.287885 68.606733 
L 315.287885 67.808317 
L 315.947475 67.808317 
L 315.947475 67.009901 
L 316.403615 67.009901 
L 316.403615 66.211485 
L 316.547195 66.211485 
L 316.547195 65.413069 
L 316.691292 65.413069 
L 316.691292 64.614653 
L 320.073897 64.614653 
L 320.073897 63.816238 
L 320.894287 63.816238 
L 320.894287 63.017822 
L 322.01636 63.017822 
L 322.01636 62.219406 
L 322.433837 62.219406 
L 322.433837 61.42099 
L 322.696442 61.42099 
L 322.804928 59.824158 
L 324.422112 59.824158 
L 324.422112 59.025743 
L 324.745217 59.025743 
L 324.745217 58.227327 
L 324.987776 58.227327 
L 324.987776 57.428911 
L 326.591105 57.428911 
L 326.591105 56.630495 
L 327.150059 56.630495 
L 327.150059 55.832079 
L 327.613918 55.832079 
L 327.613918 55.033663 
L 328.37162 55.033663 
L 328.403859 53.436832 
L 334.809476 53.436832 
L 334.809476 52.638416 
L 335.15857 52.638416 
L 335.15857 51.84 
L 340.6569 51.84 
L 340.6569 51.041584 
L 341.52479 51.041584 
L 341.52479 50.243168 
L 343.105858 50.243168 
L 343.105858 49.444752 
L 343.975493 49.444752 
L 344.051202 47.847921 
L 346.805613 47.847921 
L 346.805613 47.049505 
L 346.945744 47.049505 
L 346.945744 46.251089 
L 347.853627 46.251089 
L 347.853627 45.452673 
L 350.342595 45.452673 
L 350.342595 44.654257 
L 350.883405 44.654257 
L 350.883405 43.855842 
L 352.647791 43.855842 
L 352.647791 43.057426 
L 353.891488 43.057426 
L 353.891488 42.25901 
L 354.442614 42.25901 
L 354.442614 41.460594 
L 358.013401 41.460594 
L 358.013401 40.662178 
L 362.173335 40.662178 
L 362.173335 39.863762 
L 362.419696 39.863762 
L 362.419696 39.065347 
L 363.06243 39.065347 
L 363.06243 38.266931 
L 365.322428 38.266931 
L 365.352036 36.670099 
L 365.452874 36.670099 
L 365.553461 35.073267 
L 365.688522 35.073267 
L 365.688522 34.274851 
L 365.819363 34.274851 
L 365.819363 33.476436 
L 366.041791 33.476436 
L 366.041791 32.67802 
L 366.352836 32.67802 
L 366.352836 31.879604 
L 366.600183 31.879604 
L 366.600183 31.081188 
L 367.867856 31.081188 
L 367.867856 30.282772 
L 368.514067 30.282772 
L 368.514067 29.484356 
L 371.255806 29.484356 
L 371.255806 28.685941 
L 371.403919 28.685941 
L 371.403919 27.887525 
L 371.689389 27.887525 
L 371.718183 26.290693 
L 372.037594 26.290693 
L 372.037594 25.492277 
L 372.861652 25.492277 
L 372.861652 24.693861 
L 373.844431 24.693861 
L 373.855368 23.09703 
L 374.308416 23.09703 
L 374.308416 22.298614 
L 374.704339 22.298614 
L 374.704339 21.500198 
L 375.178217 21.500198 
L 375.178217 20.701782 
L 377.234981 20.701782 
L 377.234981 19.903366 
L 377.960279 19.903366 
L 377.960279 19.10495 
L 380.205336 19.10495 
L 380.205336 18.306535 
L 400.731195 18.306535 
L 400.731195 17.508119 
L 408.405517 17.508119 
L 408.405517 16.709703 
L 409.68975 16.709703 
L 409.68975 15.911287 
L 410.178733 15.911287 
L 410.178733 15.112871 
L 411.071935 15.112871 
L 411.071935 14.314455 
L 412.488442 14.314455 
L 412.488442 13.51604 
L 413.475302 13.51604 
L 413.475302 12.717624 
L 414.209096 12.717624 
L 414.262406 11.120792 
L 414.724223 11.120792 
L 414.724223 10.322376 
L 416.463136 10.322376 
L 416.463136 9.52396 
L 417.432477 9.52396 
L 417.432477 8.725545 
L 417.931238 8.725545 
L 417.931238 7.927129 
L 418.631599 7.927129 
L 418.631599 7.128713 
L 427.415886 7.128713 
L 427.415886 6.330297 
L 427.415886 6.330297 
L 460.8 6.330297 
L 460.8 6.330297 
" style="fill:none;stroke:#000000;stroke-linecap:square;stroke-width:1.5;"/>
   </g>
   <g id="line2d_25">
    <path clip-path="url(#p28616372fb)" d="M 215.852052 293.76 
L 215.852052 292.961584 
L 220.558706 292.961584 
L 220.593016 291.364752 
L 221.14369 291.364752 
L 221.14369 290.566337 
L 221.951503 290.566337 
L 221.951503 289.767921 
L 222.507964 289.767921 
L 222.577234 288.171089 
L 222.69192 288.171089 
L 222.784948 286.574257 
L 223.254743 286.574257 
L 223.254743 285.775842 
L 223.470093 285.775842 
L 223.470093 284.977426 
L 223.892581 284.977426 
L 223.892581 284.17901 
L 224.061482 284.17901 
L 224.061482 283.380594 
L 224.661704 283.380594 
L 224.70855 281.783762 
L 226.009629 281.783762 
L 226.009629 280.985347 
L 226.263701 280.985347 
L 226.263701 280.186931 
L 227.071357 280.186931 
L 227.071357 279.388515 
L 227.395837 279.388515 
L 227.395837 278.590099 
L 228.1883 278.590099 
L 228.227691 276.993267 
L 228.397683 276.993267 
L 228.472303 275.396436 
L 228.688146 275.396436 
L 228.795868 273.799604 
L 228.803 273.799604 
L 228.80807 272.202772 
L 228.915937 272.202772 
L 228.966474 269.807525 
L 229.100144 269.807525 
L 229.181281 267.412277 
L 229.250059 267.412277 
L 229.250059 266.613861 
L 229.620342 266.613861 
L 229.620342 265.815446 
L 229.835935 265.815446 
L 229.835935 265.01703 
L 230.262345 265.01703 
L 230.307472 263.420198 
L 230.543531 263.420198 
L 230.606077 261.823366 
L 231.369534 261.823366 
L 231.369534 261.02495 
L 232.026032 261.02495 
L 232.076145 259.428119 
L 232.149275 259.428119 
L 232.149275 258.629703 
L 232.499046 258.629703 
L 232.499046 257.831287 
L 233.479334 257.831287 
L 233.479334 257.032871 
L 234.08546 257.032871 
L 234.08546 256.234455 
L 234.929686 256.234455 
L 234.929686 255.43604 
L 235.091615 255.43604 
L 235.097068 253.839208 
L 236.258463 253.839208 
L 236.258463 253.040792 
L 236.458784 253.040792 
L 236.458784 252.242376 
L 237.232971 252.242376 
L 237.232971 251.44396 
L 237.542925 251.44396 
L 237.542925 250.645545 
L 238.876417 250.645545 
L 238.876417 249.847129 
L 239.212965 249.847129 
L 239.212965 249.048713 
L 239.326121 249.048713 
L 239.326121 248.250297 
L 240.294665 248.250297 
L 240.294665 247.451881 
L 241.647727 247.451881 
L 241.647727 246.653465 
L 241.944853 246.653465 
L 241.944853 245.85505 
L 242.07976 245.85505 
L 242.07976 245.056634 
L 242.407156 245.056634 
L 242.407156 244.258218 
L 242.790841 244.258218 
L 242.790841 243.459802 
L 242.933667 243.459802 
L 243.016674 241.86297 
L 243.675515 241.86297 
L 243.738407 240.266139 
L 243.836039 240.266139 
L 243.836039 239.467723 
L 244.21843 239.467723 
L 244.260349 237.072475 
L 244.543744 237.072475 
L 244.64056 234.677228 
L 244.775051 234.677228 
L 244.881328 233.080396 
L 244.91312 233.080396 
L 244.934381 231.483564 
L 245.116367 231.483564 
L 245.180325 229.886733 
L 245.548099 229.886733 
L 245.548099 229.088317 
L 245.690817 229.088317 
L 245.731182 227.491485 
L 245.893988 227.491485 
L 245.932727 225.894653 
L 246.054626 225.894653 
L 246.054626 225.096238 
L 246.8218 225.096238 
L 246.8218 224.297822 
L 247.184583 224.297822 
L 247.270713 221.902574 
L 247.506968 221.902574 
L 247.506968 221.104158 
L 247.998036 221.104158 
L 247.998036 220.305743 
L 248.376451 220.305743 
L 248.376451 219.507327 
L 249.130527 219.507327 
L 249.130527 218.708911 
L 249.677339 218.708911 
L 249.731274 217.112079 
L 249.885197 217.112079 
L 249.885197 216.313663 
L 250.89223 216.313663 
L 250.89223 215.515248 
L 251.548312 215.515248 
L 251.649164 213.918416 
L 251.865051 213.918416 
L 251.865051 213.12 
L 252.111766 213.12 
L 252.111766 212.321584 
L 252.313283 212.321584 
L 252.412873 210.724752 
L 252.43507 210.724752 
L 252.526875 206.732673 
L 252.691951 206.732673 
L 252.794914 205.135842 
L 252.813573 205.135842 
L 252.919768 201.942178 
L 252.953785 201.942178 
L 252.998454 198.748515 
L 253.090943 198.748515 
L 253.090943 197.950099 
L 253.245914 197.950099 
L 253.336869 196.353267 
L 253.394791 196.353267 
L 253.474085 194.756436 
L 253.629066 194.756436 
L 253.691978 191.562772 
L 253.840232 191.562772 
L 253.929132 189.965941 
L 254.332273 189.965941 
L 254.417451 188.369109 
L 254.581116 188.369109 
L 254.581116 187.570693 
L 254.707298 187.570693 
L 254.707298 186.772277 
L 256.351787 186.772277 
L 256.351787 185.973861 
L 257.650897 185.973861 
L 257.650897 185.175446 
L 262.087609 185.175446 
L 262.194708 183.578614 
L 263.100571 183.578614 
L 263.100571 182.780198 
L 263.53006 182.780198 
L 263.53006 181.981782 
L 264.26281 181.981782 
L 264.340052 179.586535 
L 264.577412 179.586535 
L 264.577412 178.788119 
L 265.406629 178.788119 
L 265.43131 177.191287 
L 265.59124 177.191287 
L 265.59124 176.392871 
L 266.287931 176.392871 
L 266.351172 173.997624 
L 266.425389 173.997624 
L 266.425389 173.199208 
L 266.542488 173.199208 
L 266.632416 170.80396 
L 266.738986 170.80396 
L 266.738986 170.005545 
L 267.078383 170.005545 
L 267.110602 168.408713 
L 267.197854 168.408713 
L 267.230627 166.811881 
L 267.32902 166.811881 
L 267.32902 166.013465 
L 267.51646 166.013465 
L 267.577291 163.618218 
L 267.650156 163.618218 
L 267.720951 162.021386 
L 267.783824 162.021386 
L 267.873723 159.626139 
L 267.926709 159.626139 
L 268.012848 158.029307 
L 268.039816 158.029307 
L 268.039816 157.230891 
L 268.195075 157.230891 
L 268.242819 155.634059 
L 268.37422 155.634059 
L 268.37422 154.835644 
L 268.580175 154.835644 
L 268.649158 151.64198 
L 268.763246 151.64198 
L 268.763246 150.843564 
L 268.947308 150.843564 
L 269.050664 148.448317 
L 269.504308 148.448317 
L 269.584186 146.851485 
L 270.094817 146.851485 
L 270.094817 146.053069 
L 270.504808 146.053069 
L 270.600442 143.657822 
L 271.282214 143.657822 
L 271.282214 142.859406 
L 271.7604 142.859406 
L 271.83614 139.665743 
L 271.906813 139.665743 
L 271.993755 138.068911 
L 272.209988 138.068911 
L 272.209988 137.270495 
L 272.583957 137.270495 
L 272.583957 136.472079 
L 272.747318 136.472079 
L 272.747318 135.673663 
L 273.024523 135.673663 
L 273.024523 134.875248 
L 273.192802 134.875248 
L 273.274174 131.681584 
L 273.3881 131.681584 
L 273.490626 129.286337 
L 273.548151 129.286337 
L 273.602259 127.689505 
L 274.251361 127.689505 
L 274.277074 125.294257 
L 274.407997 125.294257 
L 274.454097 123.697426 
L 274.601495 123.697426 
L 274.601495 122.89901 
L 274.793504 122.89901 
L 274.897394 120.503762 
L 274.932884 120.503762 
L 274.992768 118.906931 
L 275.064013 118.906931 
L 275.174853 116.511683 
L 275.316559 116.511683 
L 275.387184 113.31802 
L 275.492832 113.31802 
L 275.549274 110.922772 
L 275.620907 110.922772 
L 275.620907 110.124356 
L 276.079596 110.124356 
L 276.185428 108.527525 
L 276.437974 108.527525 
L 276.437974 107.729109 
L 276.674307 107.729109 
L 276.674307 106.930693 
L 276.859023 106.930693 
L 276.859023 106.132277 
L 277.192578 106.132277 
L 277.192578 105.333861 
L 277.629097 105.333861 
L 277.629097 104.535446 
L 280.780387 104.535446 
L 280.780387 103.73703 
L 283.753556 103.73703 
L 283.753556 102.938614 
L 284.947002 102.938614 
L 284.947002 102.140198 
L 285.766288 102.140198 
L 285.766288 101.341782 
L 286.15423 101.341782 
L 286.238767 98.148119 
L 286.271227 98.148119 
L 286.380815 96.551287 
L 286.568665 96.551287 
L 286.582611 94.954455 
L 286.830592 94.954455 
L 286.830592 94.15604 
L 286.985303 94.15604 
L 286.985303 93.357624 
L 287.363154 93.357624 
L 287.428903 91.760792 
L 288.820756 91.760792 
L 288.820756 90.962376 
L 289.239303 90.962376 
L 289.239303 90.16396 
L 290.818584 90.16396 
L 290.818584 89.365545 
L 291.002471 89.365545 
L 291.002471 88.567129 
L 294.116695 88.567129 
L 294.116695 87.768713 
L 294.572463 87.768713 
L 294.572463 86.970297 
L 295.16076 86.970297 
L 295.215873 85.373465 
L 296.182906 85.373465 
L 296.268637 83.776634 
L 297.212795 83.776634 
L 297.212795 82.978218 
L 297.963556 82.978218 
L 297.963556 82.179802 
L 298.156444 82.179802 
L 298.159989 80.58297 
L 298.533186 80.58297 
L 298.633338 78.187723 
L 298.810173 78.187723 
L 298.904913 76.590891 
L 300.016305 76.590891 
L 300.100123 74.994059 
L 300.502599 74.994059 
L 300.502599 74.195644 
L 301.177427 74.195644 
L 301.177427 73.397228 
L 301.685305 73.397228 
L 301.685305 72.598812 
L 302.497728 72.598812 
L 302.497728 71.800396 
L 302.871947 71.800396 
L 302.871947 71.00198 
L 303.205004 71.00198 
L 303.205004 70.203564 
L 303.428892 70.203564 
L 303.428892 69.405149 
L 303.908407 69.405149 
L 303.908407 68.606733 
L 304.743099 68.606733 
L 304.743099 67.808317 
L 305.382412 67.808317 
L 305.382412 67.009901 
L 306.3073 67.009901 
L 306.3073 66.211485 
L 309.377765 66.211485 
L 309.377765 65.413069 
L 314.859851 65.413069 
L 314.864643 63.816238 
L 314.98152 63.816238 
L 314.98152 63.017822 
L 315.153893 63.017822 
L 315.153893 62.219406 
L 315.385373 62.219406 
L 315.385373 61.42099 
L 315.627001 61.42099 
L 315.627001 60.622574 
L 317.295199 60.622574 
L 317.295199 59.824158 
L 320.738358 59.824158 
L 320.738358 59.025743 
L 321.878122 59.025743 
L 321.878122 58.227327 
L 322.341631 58.227327 
L 322.341631 57.428911 
L 322.669607 57.428911 
L 322.696442 55.832079 
L 322.946878 55.832079 
L 322.946878 55.033663 
L 323.156995 55.033663 
L 323.156995 54.235248 
L 323.537534 54.235248 
L 323.537534 53.436832 
L 324.987776 53.436832 
L 324.987776 52.638416 
L 325.143108 52.638416 
L 325.143108 51.84 
L 330.25461 51.84 
L 330.25461 51.041584 
L 332.732147 51.041584 
L 332.737853 49.444752 
L 333.071188 49.444752 
L 333.071188 48.646337 
L 335.569124 48.646337 
L 335.569124 47.847921 
L 337.829014 47.847921 
L 337.829014 47.049505 
L 345.840585 47.049505 
L 345.840585 46.251089 
L 346.698658 46.251089 
L 346.698658 45.452673 
L 346.945744 45.452673 
L 346.945744 44.654257 
L 347.160833 44.654257 
L 347.160833 43.855842 
L 347.543095 43.855842 
L 347.550503 42.25901 
L 348.278195 42.25901 
L 348.278195 41.460594 
L 348.389395 41.460594 
L 348.389395 40.662178 
L 353.008043 40.662178 
L 353.008043 39.863762 
L 353.948947 39.863762 
L 353.948947 39.065347 
L 354.442614 39.065347 
L 354.442614 38.266931 
L 354.669264 38.266931 
L 354.669264 37.468515 
L 354.987145 37.468515 
L 354.987145 36.670099 
L 355.412952 36.670099 
L 355.412952 35.871683 
L 356.706742 35.871683 
L 356.706742 35.073267 
L 357.633311 35.073267 
L 357.633311 34.274851 
L 358.924609 34.274851 
L 358.924609 33.476436 
L 359.288406 33.476436 
L 359.288406 32.67802 
L 360.001993 32.67802 
L 360.001993 31.879604 
L 360.50909 31.879604 
L 360.50909 31.081188 
L 361.634399 31.081188 
L 361.722117 29.484356 
L 361.838788 29.484356 
L 361.838788 28.685941 
L 362.173335 28.685941 
L 362.173335 27.887525 
L 362.510812 27.887525 
L 362.510812 27.089109 
L 363.013949 27.089109 
L 363.06005 24.693861 
L 364.170696 24.693861 
L 364.170696 23.895446 
L 364.851623 23.895446 
L 364.851623 23.09703 
L 365.407591 23.09703 
L 365.407591 22.298614 
L 365.688522 22.298614 
L 365.688522 21.500198 
L 365.856018 21.500198 
L 365.856018 20.701782 
L 366.489679 20.701782 
L 366.489679 19.903366 
L 367.040111 19.903366 
L 367.040111 19.10495 
L 368.514067 19.10495 
L 368.514067 18.306535 
L 400.000871 18.306535 
L 400.000871 17.508119 
L 401.187109 17.508119 
L 401.187109 16.709703 
L 404.570942 16.709703 
L 404.570942 15.911287 
L 407.755127 15.911287 
L 407.755127 15.112871 
L 408.001179 15.112871 
L 408.010463 13.51604 
L 408.405517 13.51604 
L 408.405517 12.717624 
L 408.625317 12.717624 
L 408.625317 11.919208 
L 409.214241 11.919208 
L 409.3194 10.322376 
L 409.347313 10.322376 
L 409.347313 9.52396 
L 410.733426 9.52396 
L 410.733426 8.725545 
L 412.373586 8.725545 
L 412.373586 7.927129 
L 415.370347 7.927129 
L 415.370347 7.128713 
L 415.559591 7.128713 
L 415.559591 6.330297 
L 415.559591 6.330297 
L 460.8 6.330297 
L 460.8 6.330297 
" style="fill:none;stroke:#00bfbf;stroke-linecap:square;stroke-width:1.5;"/>
   </g>
   <g id="line2d_26">
    <path clip-path="url(#p28616372fb)" d="M 210.551668 293.76 
L 210.551668 292.961584 
L 212.472849 292.961584 
L 212.472849 292.163168 
L 212.633164 292.163168 
L 212.633164 291.364752 
L 212.764106 291.364752 
L 212.764106 290.566337 
L 213.508341 290.566337 
L 213.556714 288.969505 
L 213.771754 288.969505 
L 213.771754 288.171089 
L 214.274783 288.171089 
L 214.274783 287.372673 
L 214.677905 287.372673 
L 214.677905 286.574257 
L 214.961424 286.574257 
L 214.961424 285.775842 
L 215.175442 285.775842 
L 215.175442 284.977426 
L 215.297307 284.977426 
L 215.367083 282.582178 
L 215.411183 282.582178 
L 215.411183 281.783762 
L 215.722101 281.783762 
L 215.800768 280.186931 
L 215.852052 280.186931 
L 215.852052 279.388515 
L 216.035801 279.388515 
L 216.035801 278.590099 
L 216.258311 278.590099 
L 216.258311 277.791683 
L 217.469185 277.791683 
L 217.542044 275.396436 
L 217.746606 275.396436 
L 217.746606 274.59802 
L 217.922717 274.59802 
L 217.975914 273.001188 
L 218.147652 273.001188 
L 218.255143 269.807525 
L 218.307746 269.807525 
L 218.396072 265.01703 
L 218.422577 265.01703 
L 218.444987 263.420198 
L 218.662994 263.420198 
L 218.764375 259.428119 
L 218.805787 259.428119 
L 218.851995 257.831287 
L 219.046407 257.831287 
L 219.146367 255.43604 
L 219.232874 255.43604 
L 219.325864 252.242376 
L 219.483323 252.242376 
L 219.502114 250.645545 
L 219.639312 250.645545 
L 219.639312 249.847129 
L 220.044061 249.847129 
L 220.061321 248.250297 
L 220.223821 248.250297 
L 220.292686 245.056634 
L 220.337608 245.056634 
L 220.337608 244.258218 
L 220.5826 244.258218 
L 220.5826 243.459802 
L 220.956283 243.459802 
L 220.998331 241.86297 
L 221.236078 241.86297 
L 221.236078 241.064554 
L 221.435906 241.064554 
L 221.435906 240.266139 
L 221.695729 240.266139 
L 221.774441 238.669307 
L 221.831529 238.669307 
L 221.831529 237.870891 
L 222.07307 237.870891 
L 222.07307 237.072475 
L 222.435213 237.072475 
L 222.517665 234.677228 
L 222.548799 234.677228 
L 222.595247 233.080396 
L 222.710861 233.080396 
L 222.710861 232.28198 
L 222.830366 232.28198 
L 222.830366 231.483564 
L 223.076268 231.483564 
L 223.076268 230.685149 
L 223.20025 230.685149 
L 223.272428 229.088317 
L 223.479246 229.088317 
L 223.479246 228.289901 
L 223.697804 228.289901 
L 223.794138 225.894653 
L 223.844208 225.894653 
L 223.844208 225.096238 
L 224.372083 225.096238 
L 224.439247 223.499406 
L 224.777555 223.499406 
L 224.789446 221.902574 
L 225.12444 221.902574 
L 225.12444 221.104158 
L 225.471308 221.104158 
L 225.471308 220.305743 
L 225.738301 220.305743 
L 225.738301 219.507327 
L 226.2059 219.507327 
L 226.2059 218.708911 
L 226.725409 218.708911 
L 226.725409 217.910495 
L 227.607422 217.910495 
L 227.64949 216.313663 
L 228.679444 216.313663 
L 228.679444 215.515248 
L 228.940109 215.515248 
L 228.940109 214.716832 
L 229.072861 214.716832 
L 229.072861 213.918416 
L 229.785651 213.918416 
L 229.890939 212.321584 
L 229.898189 212.321584 
L 229.898189 211.523168 
L 230.365321 211.523168 
L 230.365321 210.724752 
L 231.084335 210.724752 
L 231.084335 209.926337 
L 231.197553 209.926337 
L 231.197553 209.127921 
L 231.340703 209.127921 
L 231.340703 208.329505 
L 231.546541 208.329505 
L 231.546541 207.531089 
L 231.747522 207.531089 
L 231.747522 206.732673 
L 232.578935 206.732673 
L 232.600085 205.135842 
L 232.964618 205.135842 
L 232.997056 203.53901 
L 233.154858 203.53901 
L 233.154858 202.740594 
L 233.389184 202.740594 
L 233.409316 201.143762 
L 233.86824 201.143762 
L 233.978871 199.546931 
L 234.05699 199.546931 
L 234.05699 198.748515 
L 234.551472 198.748515 
L 234.616194 197.151683 
L 234.72196 197.151683 
L 234.796632 195.554851 
L 235.30026 195.554851 
L 235.30026 194.756436 
L 235.564556 194.756436 
L 235.564556 193.95802 
L 236.070601 193.95802 
L 236.070601 193.159604 
L 236.805448 193.159604 
L 236.805448 192.361188 
L 237.151034 192.361188 
L 237.151034 191.562772 
L 238.219201 191.562772 
L 238.219201 190.764356 
L 238.680431 190.764356 
L 238.687706 189.167525 
L 239.65444 189.167525 
L 239.65444 188.369109 
L 239.955914 188.369109 
L 239.955914 187.570693 
L 240.800494 187.570693 
L 240.800494 186.772277 
L 241.108692 186.772277 
L 241.14612 185.175446 
L 241.317889 185.175446 
L 241.317889 184.37703 
L 241.490652 184.37703 
L 241.490652 183.578614 
L 241.662325 183.578614 
L 241.662325 182.780198 
L 241.801671 182.780198 
L 241.867864 180.38495 
L 241.990217 180.38495 
L 242.07976 178.788119 
L 242.239675 178.788119 
L 242.240082 177.191287 
L 242.393144 177.191287 
L 242.393144 176.392871 
L 242.792177 176.392871 
L 242.902721 174.79604 
L 243.057435 174.79604 
L 243.105591 173.199208 
L 243.224224 173.199208 
L 243.224224 172.400792 
L 243.365621 172.400792 
L 243.397414 170.80396 
L 243.495333 170.80396 
L 243.495333 170.005545 
L 244.200874 170.005545 
L 244.200874 169.207129 
L 244.917497 169.207129 
L 244.917497 168.408713 
L 245.569941 168.408713 
L 245.569941 167.610297 
L 246.926853 167.610297 
L 246.926853 166.811881 
L 247.07654 166.811881 
L 247.07654 166.013465 
L 247.274166 166.013465 
L 247.331798 164.416634 
L 247.618743 164.416634 
L 247.638038 162.819802 
L 249.446232 162.819802 
L 249.446232 162.021386 
L 251.938346 162.021386 
L 251.938346 161.22297 
L 252.507183 161.22297 
L 252.507183 160.424554 
L 253.963721 160.424554 
L 253.963721 159.626139 
L 254.104814 159.626139 
L 254.104814 158.827723 
L 255.736553 158.827723 
L 255.765304 157.230891 
L 255.980872 157.230891 
L 255.980872 156.432475 
L 256.115018 156.432475 
L 256.115018 155.634059 
L 256.296381 155.634059 
L 256.393193 154.037228 
L 256.479391 154.037228 
L 256.556429 152.440396 
L 256.701895 152.440396 
L 256.701895 151.64198 
L 257.123779 151.64198 
L 257.123779 150.843564 
L 257.249737 150.843564 
L 257.354532 148.448317 
L 257.468675 148.448317 
L 257.468675 147.649901 
L 257.587446 147.649901 
L 257.650897 145.254653 
L 257.752699 145.254653 
L 257.856224 142.06099 
L 257.927333 142.06099 
L 257.951232 139.665743 
L 258.091452 139.665743 
L 258.173426 138.068911 
L 258.207127 138.068911 
L 258.207127 137.270495 
L 258.611799 137.270495 
L 258.616859 135.673663 
L 258.860486 135.673663 
L 258.860486 134.875248 
L 259.138862 134.875248 
L 259.246075 133.278416 
L 259.269286 133.278416 
L 259.269286 132.48 
L 259.438945 132.48 
L 259.513267 130.084752 
L 259.70307 130.084752 
L 259.74433 128.487921 
L 260.33369 128.487921 
L 260.371122 126.891089 
L 260.738082 126.891089 
L 260.782329 124.495842 
L 260.898159 124.495842 
L 260.898159 123.697426 
L 261.212136 123.697426 
L 261.212136 122.89901 
L 261.40921 122.89901 
L 261.43042 121.302178 
L 261.542708 121.302178 
L 261.542708 120.503762 
L 261.809039 120.503762 
L 261.900895 118.108515 
L 261.920686 118.108515 
L 261.920686 117.310099 
L 262.051169 117.310099 
L 262.066466 115.713267 
L 262.175082 115.713267 
L 262.243374 114.116436 
L 262.313167 114.116436 
L 262.38238 112.519604 
L 262.443036 112.519604 
L 262.509114 110.922772 
L 262.61267 110.922772 
L 262.676103 109.325941 
L 262.735363 109.325941 
L 262.74436 107.729109 
L 262.874464 107.729109 
L 262.954745 104.535446 
L 263.036998 104.535446 
L 263.136045 102.938614 
L 263.208949 102.938614 
L 263.290021 99.74495 
L 263.336556 99.74495 
L 263.425161 98.148119 
L 263.546664 98.148119 
L 263.582571 96.551287 
L 263.668194 96.551287 
L 263.77417 93.357624 
L 263.864214 93.357624 
L 263.870549 91.760792 
L 263.976773 91.760792 
L 263.976773 90.962376 
L 264.202742 90.962376 
L 264.276588 87.768713 
L 264.425481 87.768713 
L 264.425481 86.970297 
L 264.613769 86.970297 
L 264.613769 86.171881 
L 264.843743 86.171881 
L 264.904959 84.57505 
L 264.973973 84.57505 
L 265.084256 82.978218 
L 265.217633 82.978218 
L 265.217633 82.179802 
L 265.380249 82.179802 
L 265.452118 79.784554 
L 265.539899 79.784554 
L 265.576252 77.389307 
L 266.079101 77.389307 
L 266.091782 75.792475 
L 266.200321 75.792475 
L 266.200321 74.994059 
L 266.827887 74.994059 
L 266.869839 73.397228 
L 267.046795 73.397228 
L 267.046795 72.598812 
L 267.25507 72.598812 
L 267.25507 71.800396 
L 267.519637 71.800396 
L 267.519637 71.00198 
L 267.991872 71.00198 
L 267.991872 70.203564 
L 269.457087 70.203564 
L 269.457087 69.405149 
L 269.632043 69.405149 
L 269.632043 68.606733 
L 270.97769 68.606733 
L 270.97769 67.808317 
L 271.133442 67.808317 
L 271.133442 67.009901 
L 271.698772 67.009901 
L 271.698772 66.211485 
L 271.982034 66.211485 
L 272.079109 64.614653 
L 272.249846 64.614653 
L 272.249846 63.816238 
L 273.225928 63.816238 
L 273.225928 63.017822 
L 274.038243 63.017822 
L 274.117662 61.42099 
L 274.289993 61.42099 
L 274.289993 60.622574 
L 274.638353 60.622574 
L 274.718845 59.025743 
L 274.83585 59.025743 
L 274.83585 58.227327 
L 275.310796 58.227327 
L 275.354743 56.630495 
L 275.5043 56.630495 
L 275.5043 55.832079 
L 276.148808 55.832079 
L 276.192176 54.235248 
L 276.286033 54.235248 
L 276.286033 53.436832 
L 276.462548 53.436832 
L 276.462548 52.638416 
L 276.683957 52.638416 
L 276.683957 51.84 
L 277.643371 51.84 
L 277.643371 51.041584 
L 278.099343 51.041584 
L 278.099343 50.243168 
L 278.287808 50.243168 
L 278.314413 48.646337 
L 278.495671 48.646337 
L 278.495671 47.847921 
L 278.807996 47.847921 
L 278.807996 47.049505 
L 279.886735 47.049505 
L 279.886735 46.251089 
L 284.075484 46.251089 
L 284.075484 45.452673 
L 296.576496 45.452673 
L 296.576496 44.654257 
L 297.137605 44.654257 
L 297.137605 43.855842 
L 299.811841 43.855842 
L 299.811841 43.057426 
L 303.746481 43.057426 
L 303.746481 42.25901 
L 322.053528 42.25901 
L 322.053528 41.460594 
L 323.363549 41.460594 
L 323.363549 40.662178 
L 324.451923 40.662178 
L 324.451923 39.863762 
L 325.45191 39.863762 
L 325.45191 39.065347 
L 327.386208 39.065347 
L 327.386208 38.266931 
L 327.521681 38.266931 
L 327.521681 37.468515 
L 327.668207 37.468515 
L 327.668207 36.670099 
L 329.962812 36.670099 
L 329.962812 35.871683 
L 331.195351 35.871683 
L 331.195351 35.073267 
L 332.051209 35.073267 
L 332.051209 34.274851 
L 332.863358 34.274851 
L 332.863358 33.476436 
L 333.232297 33.476436 
L 333.232297 32.67802 
L 333.484719 32.67802 
L 333.505082 31.081188 
L 333.627598 31.081188 
L 333.627598 30.282772 
L 333.890245 30.282772 
L 333.890245 29.484356 
L 334.226902 29.484356 
L 334.226902 28.685941 
L 335.221897 28.685941 
L 335.310828 27.089109 
L 335.704062 27.089109 
L 335.704062 26.290693 
L 336.457759 26.290693 
L 336.553835 24.693861 
L 336.605763 24.693861 
L 336.605763 23.895446 
L 337.207744 23.895446 
L 337.207744 23.09703 
L 339.37221 23.09703 
L 339.37221 22.298614 
L 340.225921 22.298614 
L 340.225921 21.500198 
L 341.230505 21.500198 
L 341.230505 20.701782 
L 341.899468 20.701782 
L 341.899468 19.903366 
L 342.234294 19.903366 
L 342.34365 18.306535 
L 368.23181 18.306535 
L 368.23181 17.508119 
L 373.326272 17.508119 
L 373.326272 16.709703 
L 375.682 16.709703 
L 375.682 15.911287 
L 376.01949 15.911287 
L 376.01949 15.112871 
L 377.065653 15.112871 
L 377.065653 14.314455 
L 377.999764 14.314455 
L 377.999764 13.51604 
L 379.832413 13.51604 
L 379.865833 11.919208 
L 380.405539 11.919208 
L 380.405539 11.120792 
L 380.535064 11.120792 
L 380.612631 9.52396 
L 382.140719 9.52396 
L 382.140719 8.725545 
L 383.775937 8.725545 
L 383.775937 7.927129 
L 384.067498 7.927129 
L 384.067498 7.128713 
L 384.198588 7.128713 
L 384.198588 6.330297 
L 384.198588 6.330297 
L 460.8 6.330297 
L 460.8 6.330297 
" style="fill:none;stroke:#bf00bf;stroke-linecap:square;stroke-width:1.5;"/>
   </g>
   <g id="line2d_27">
    <path clip-path="url(#p28616372fb)" d="M -1 270.605941 
L 52.943513 270.605941 
L 52.943513 269.807525 
L 56.13815 269.807525 
L 56.13815 269.009109 
L 56.911592 269.009109 
L 56.911592 268.210693 
L 57.878626 268.210693 
L 57.878626 267.412277 
L 60.255297 267.412277 
L 60.255297 266.613861 
L 61.766169 266.613861 
L 61.766169 265.815446 
L 61.967283 265.815446 
L 61.967283 265.01703 
L 62.10571 265.01703 
L 62.10571 264.218614 
L 62.479284 264.218614 
L 62.479284 263.420198 
L 63.225012 263.420198 
L 63.225012 262.621782 
L 63.795193 262.621782 
L 63.795193 261.823366 
L 65.308847 261.823366 
L 65.38627 260.226535 
L 65.557824 260.226535 
L 65.557824 259.428119 
L 65.760883 259.428119 
L 65.760883 258.629703 
L 66.037747 258.629703 
L 66.037747 257.831287 
L 66.622591 257.831287 
L 66.622591 257.032871 
L 67.410087 257.032871 
L 67.410087 256.234455 
L 68.071804 256.234455 
L 68.071804 255.43604 
L 70.173039 255.43604 
L 70.173039 254.637624 
L 70.702859 254.637624 
L 70.702859 253.839208 
L 71.907177 253.839208 
L 71.907177 253.040792 
L 75.362109 253.040792 
L 75.362109 252.242376 
L 78.155085 252.242376 
L 78.155085 251.44396 
L 82.540521 251.44396 
L 82.540521 250.645545 
L 83.917603 250.645545 
L 83.917603 249.847129 
L 84.146893 249.847129 
L 84.146893 249.048713 
L 87.121271 249.048713 
L 87.121271 248.250297 
L 87.396949 248.250297 
L 87.396949 247.451881 
L 87.702967 247.451881 
L 87.702967 246.653465 
L 87.867778 246.653465 
L 87.867778 245.85505 
L 88.594686 245.85505 
L 88.594686 245.056634 
L 89.520447 245.056634 
L 89.520447 244.258218 
L 90.327852 244.258218 
L 90.327852 243.459802 
L 91.183579 243.459802 
L 91.294034 241.86297 
L 91.476213 241.86297 
L 91.476213 241.064554 
L 92.218498 241.064554 
L 92.218498 240.266139 
L 92.710264 240.266139 
L 92.710264 239.467723 
L 96.613272 239.467723 
L 96.613272 238.669307 
L 96.905433 238.669307 
L 96.905433 237.870891 
L 98.188907 237.870891 
L 98.188907 237.072475 
L 98.890713 237.072475 
L 98.890713 236.274059 
L 99.801233 236.274059 
L 99.801233 235.475644 
L 100.463976 235.475644 
L 100.463976 234.677228 
L 100.658503 234.677228 
L 100.658503 233.878812 
L 102.299843 233.878812 
L 102.299843 233.080396 
L 103.167835 233.080396 
L 103.167835 232.28198 
L 104.34726 232.28198 
L 104.34726 231.483564 
L 112.049695 231.483564 
L 112.049695 230.685149 
L 112.57823 230.685149 
L 112.57823 229.886733 
L 116.598354 229.886733 
L 116.598354 229.088317 
L 117.122062 229.088317 
L 117.122062 228.289901 
L 117.365498 228.289901 
L 117.365498 227.491485 
L 117.89191 227.491485 
L 117.89191 226.693069 
L 120.563836 226.693069 
L 120.563836 225.894653 
L 120.887332 225.894653 
L 120.887332 225.096238 
L 124.563495 225.096238 
L 124.563495 224.297822 
L 125.667091 224.297822 
L 125.667091 223.499406 
L 126.687174 223.499406 
L 126.687174 222.70099 
L 127.475338 222.70099 
L 127.475338 221.902574 
L 128.521224 221.902574 
L 128.521224 221.104158 
L 130.292337 221.104158 
L 130.292337 220.305743 
L 131.719973 220.305743 
L 131.719973 219.507327 
L 132.313232 219.507327 
L 132.313232 218.708911 
L 133.286951 218.708911 
L 133.286951 217.910495 
L 135.531277 217.910495 
L 135.531277 217.112079 
L 138.422607 217.112079 
L 138.422607 216.313663 
L 138.588479 216.313663 
L 138.588479 215.515248 
L 139.529688 215.515248 
L 139.529688 214.716832 
L 140.763408 214.716832 
L 140.763408 213.918416 
L 141.537325 213.918416 
L 141.579046 212.321584 
L 144.032521 212.321584 
L 144.032521 211.523168 
L 145.101084 211.523168 
L 145.101084 210.724752 
L 145.353223 210.724752 
L 145.446464 209.127921 
L 145.544554 209.127921 
L 145.544554 208.329505 
L 146.027962 208.329505 
L 146.027962 207.531089 
L 146.449434 207.531089 
L 146.449434 206.732673 
L 146.597049 206.732673 
L 146.597049 205.934257 
L 147.382101 205.934257 
L 147.382101 205.135842 
L 147.62868 205.135842 
L 147.62868 204.337426 
L 147.899769 204.337426 
L 147.899769 203.53901 
L 148.819174 203.53901 
L 148.819174 202.740594 
L 152.142271 202.740594 
L 152.142271 201.942178 
L 152.322431 201.942178 
L 152.322431 201.143762 
L 153.151991 201.143762 
L 153.151991 200.345347 
L 157.145657 200.345347 
L 157.145657 199.546931 
L 157.495289 199.546931 
L 157.495289 198.748515 
L 158.517259 198.748515 
L 158.517259 197.950099 
L 159.707685 197.950099 
L 159.707685 197.151683 
L 161.305342 197.151683 
L 161.305342 196.353267 
L 161.714895 196.353267 
L 161.745052 194.756436 
L 162.305246 194.756436 
L 162.305246 193.95802 
L 163.176986 193.95802 
L 163.259587 191.562772 
L 165.933575 191.562772 
L 166.035884 189.167525 
L 166.567231 189.167525 
L 166.658652 187.570693 
L 166.871368 187.570693 
L 166.871368 186.772277 
L 167.176978 186.772277 
L 167.270683 185.175446 
L 167.626308 185.175446 
L 167.626308 184.37703 
L 168.023071 184.37703 
L 168.049652 182.780198 
L 168.272713 182.780198 
L 168.350858 181.183366 
L 168.868983 181.183366 
L 168.868983 180.38495 
L 169.293957 180.38495 
L 169.293957 179.586535 
L 169.662315 179.586535 
L 169.662315 178.788119 
L 170.75293 178.788119 
L 170.75293 177.989703 
L 171.079214 177.989703 
L 171.079214 177.191287 
L 171.452398 177.191287 
L 171.452398 176.392871 
L 173.061745 176.392871 
L 173.061745 175.594455 
L 174.886896 175.594455 
L 174.886896 174.79604 
L 176.015943 174.79604 
L 176.015943 173.997624 
L 176.556925 173.997624 
L 176.556925 173.199208 
L 176.844392 173.199208 
L 176.844392 172.400792 
L 177.417584 172.400792 
L 177.417584 171.602376 
L 178.89097 171.602376 
L 178.89097 170.80396 
L 179.441888 170.80396 
L 179.441888 170.005545 
L 180.814798 170.005545 
L 180.814798 169.207129 
L 185.144993 169.207129 
L 185.144993 168.408713 
L 186.018208 168.408713 
L 186.018208 167.610297 
L 186.351365 167.610297 
L 186.351365 166.811881 
L 186.849897 166.811881 
L 186.849897 166.013465 
L 190.020995 166.013465 
L 190.020995 165.21505 
L 190.981081 165.21505 
L 190.981081 164.416634 
L 191.458791 164.416634 
L 191.482596 162.819802 
L 191.686131 162.819802 
L 191.686131 162.021386 
L 192.111152 162.021386 
L 192.198499 160.424554 
L 198.831822 160.424554 
L 198.831822 159.626139 
L 201.22182 159.626139 
L 201.22182 157.230891 
L 202.345739 157.230891 
L 202.345739 156.432475 
L 202.898173 156.432475 
L 202.954787 154.835644 
L 203.153746 154.835644 
L 203.153746 154.037228 
L 203.524279 154.037228 
L 203.524279 153.238812 
L 203.723403 153.238812 
L 203.756844 151.64198 
L 203.893403 151.64198 
L 203.961234 149.246733 
L 204.606326 149.246733 
L 204.606326 148.448317 
L 205.273868 148.448317 
L 205.273868 147.649901 
L 205.447588 147.649901 
L 205.447588 146.851485 
L 205.951956 146.851485 
L 205.951956 146.053069 
L 206.750178 146.053069 
L 206.750178 145.254653 
L 207.790912 145.254653 
L 207.790912 144.456238 
L 208.044397 144.456238 
L 208.044397 143.657822 
L 208.282344 143.657822 
L 208.282344 142.859406 
L 208.420232 142.859406 
L 208.420232 142.06099 
L 209.178585 142.06099 
L 209.178585 141.262574 
L 209.321939 141.262574 
L 209.405482 139.665743 
L 209.876777 139.665743 
L 209.876777 138.867327 
L 210.634368 138.867327 
L 210.634368 138.068911 
L 210.94021 138.068911 
L 211.036537 136.472079 
L 211.427484 136.472079 
L 211.517768 134.875248 
L 211.739895 134.875248 
L 211.801603 133.278416 
L 212.002532 133.278416 
L 212.002532 132.48 
L 212.165685 132.48 
L 212.165685 131.681584 
L 212.479445 131.681584 
L 212.479445 130.883168 
L 212.806911 130.883168 
L 212.806911 126.891089 
L 213.006276 126.891089 
L 213.023826 125.294257 
L 213.154084 125.294257 
L 213.154084 124.495842 
L 213.301572 124.495842 
L 213.352484 122.100594 
L 213.474709 122.100594 
L 213.538535 120.503762 
L 213.703396 120.503762 
L 213.710177 118.108515 
L 213.887608 118.108515 
L 213.964844 115.713267 
L 214.023152 115.713267 
L 214.114951 113.31802 
L 214.179838 113.31802 
L 214.2337 111.721188 
L 214.373219 111.721188 
L 214.373219 110.922772 
L 215.053534 110.922772 
L 215.098645 109.325941 
L 215.271183 109.325941 
L 215.271183 108.527525 
L 215.541244 108.527525 
L 215.541244 107.729109 
L 215.852052 107.729109 
L 215.925249 105.333861 
L 216.237162 105.333861 
L 216.328557 103.73703 
L 216.423438 103.73703 
L 216.46301 102.140198 
L 216.892352 102.140198 
L 216.926121 100.543366 
L 217.28817 100.543366 
L 217.375926 98.946535 
L 217.526594 98.946535 
L 217.60664 97.349703 
L 218.159578 97.349703 
L 218.159578 96.551287 
L 218.812909 96.551287 
L 218.812909 95.752871 
L 218.939932 95.752871 
L 218.939932 94.954455 
L 219.113123 94.954455 
L 219.113123 94.15604 
L 219.556344 94.15604 
L 219.556344 93.357624 
L 219.715456 93.357624 
L 219.715456 92.559208 
L 219.947809 92.559208 
L 219.947809 91.760792 
L 220.734855 91.760792 
L 220.734855 90.962376 
L 221.282578 90.962376 
L 221.282578 90.16396 
L 221.652849 90.16396 
L 221.652849 89.365545 
L 222.622313 89.365545 
L 222.622313 86.970297 
L 223.223533 86.970297 
L 223.246397 80.58297 
L 223.418948 80.58297 
L 223.418948 79.784554 
L 224.721839 79.784554 
L 224.721839 78.986139 
L 225.256907 78.986139 
L 225.348729 73.397228 
L 226.233108 73.397228 
L 226.233108 72.598812 
L 226.976283 72.598812 
L 227.050138 69.405149 
L 228.465499 69.405149 
L 228.465499 68.606733 
L 229.511889 68.606733 
L 229.511889 63.816238 
L 230.954025 63.816238 
L 230.954025 63.017822 
L 231.303181 63.017822 
L 231.303181 62.219406 
L 231.605827 62.219406 
L 231.605827 61.42099 
L 231.799043 61.42099 
L 231.892297 59.025743 
L 231.913965 59.025743 
L 232.017686 54.235248 
L 232.047449 54.235248 
L 232.047449 53.436832 
L 232.163953 53.436832 
L 232.210695 51.041584 
L 232.334569 51.041584 
L 232.445294 48.646337 
L 232.529173 48.646337 
L 232.585838 44.654257 
L 232.648982 44.654257 
L 232.732422 42.25901 
L 232.766389 42.25901 
L 232.876763 39.863762 
L 232.942824 39.863762 
L 233.026309 35.871683 
L 233.137647 35.871683 
L 233.142914 34.274851 
L 233.38181 34.274851 
L 233.38181 33.476436 
L 233.880097 33.476436 
L 233.881509 31.081188 
L 234.706604 31.081188 
L 234.706604 30.282772 
L 236.195864 30.282772 
L 236.195948 28.685941 
L 237.509466 28.685941 
L 237.544141 27.089109 
L 238.112444 27.089109 
L 238.120011 25.492277 
L 238.684517 25.492277 
L 238.684517 24.693861 
L 239.22865 24.693861 
L 239.22865 23.895446 
L 239.747485 23.895446 
L 239.747485 23.09703 
L 240.717891 23.09703 
L 240.732629 19.903366 
L 241.610599 19.903366 
L 241.610599 19.10495 
L 254.480436 19.10495 
L 254.480436 18.306535 
L 256.28915 18.306535 
L 256.28915 17.508119 
L 256.403251 17.508119 
L 256.403251 16.709703 
L 256.858467 16.709703 
L 256.858467 15.911287 
L 257.041157 15.911287 
L 257.108765 14.314455 
L 257.349184 14.314455 
L 257.440661 12.717624 
L 257.555234 12.717624 
L 257.636589 10.322376 
L 258.177523 10.322376 
L 258.177523 9.52396 
L 258.321559 9.52396 
L 258.410167 6.330297 
L 258.410167 6.330297 
L 460.8 6.330297 
L 460.8 6.330297 
" style="fill:none;stroke:#000000;stroke-linecap:square;stroke-width:1.5;"/>
   </g>
   <g id="line2d_28">
    <path clip-path="url(#p28616372fb)" d="M -1 137.270495 
L -0.110974 137.270495 
L -0.110974 130.084752 
L 23.045902 130.084752 
L 23.045902 129.286337 
L 38.504604 129.286337 
L 38.504604 128.487921 
L 46.383279 128.487921 
L 46.383279 127.689505 
L 85.156546 127.689505 
L 85.169619 126.092673 
L 99.618907 126.092673 
L 99.618907 125.294257 
L 101.489258 125.294257 
L 101.489258 124.495842 
L 107.936072 124.495842 
L 107.936072 123.697426 
L 110.280516 123.697426 
L 110.280516 122.89901 
L 113.704502 122.89901 
L 113.775647 121.302178 
L 119.10184 121.302178 
L 119.10184 120.503762 
L 123.957249 120.503762 
L 123.957249 119.705347 
L 144.344589 119.705347 
L 144.344589 117.310099 
L 144.728291 117.310099 
L 144.728291 116.511683 
L 151.158746 116.511683 
L 151.158746 115.713267 
L 156.164627 115.713267 
L 156.164627 114.914851 
L 158.621193 114.914851 
L 158.621193 114.116436 
L 165.277624 114.116436 
L 165.277624 113.31802 
L 166.453887 113.31802 
L 166.453887 112.519604 
L 169.004325 112.519604 
L 169.004325 111.721188 
L 170.59968 111.721188 
L 170.59968 110.922772 
L 171.034972 110.922772 
L 171.034972 110.124356 
L 171.512773 110.124356 
L 171.512773 109.325941 
L 171.94194 109.325941 
L 171.94194 108.527525 
L 172.857036 108.527525 
L 172.857036 107.729109 
L 173.340317 107.729109 
L 173.340317 106.930693 
L 173.591435 106.930693 
L 173.591435 106.132277 
L 174.021216 106.132277 
L 174.021216 105.333861 
L 174.207533 105.333861 
L 174.207533 104.535446 
L 177.538334 104.535446 
L 177.538334 103.73703 
L 177.681499 103.73703 
L 177.69602 102.140198 
L 177.972427 102.140198 
L 177.972427 101.341782 
L 178.453865 101.341782 
L 178.5605 98.946535 
L 178.700355 98.946535 
L 178.700355 98.148119 
L 179.129304 98.148119 
L 179.133992 96.551287 
L 179.504822 96.551287 
L 179.504822 95.752871 
L 180.753377 95.752871 
L 180.753377 94.954455 
L 188.818588 94.954455 
L 188.818588 94.15604 
L 191.656121 94.15604 
L 191.656121 93.357624 
L 192.111152 93.357624 
L 192.111152 92.559208 
L 197.270695 92.559208 
L 197.270695 91.760792 
L 201.22182 91.760792 
L 201.22182 89.365545 
L 202.954787 89.365545 
L 202.954787 88.567129 
L 203.524279 88.567129 
L 203.524279 87.768713 
L 203.961234 87.768713 
L 203.961234 86.970297 
L 205.273863 86.970297 
L 205.273863 86.171881 
L 208.110815 86.171881 
L 208.110815 85.373465 
L 208.937074 85.373465 
L 208.937074 84.57505 
L 209.405475 84.57505 
L 209.405475 83.776634 
L 209.854146 83.776634 
L 209.854146 82.978218 
L 210.634081 82.978218 
L 210.634081 82.179802 
L 210.769757 82.179802 
L 210.769757 81.381386 
L 211.036479 81.381386 
L 211.036479 80.58297 
L 211.426185 80.58297 
L 211.49016 78.986139 
L 211.739895 78.986139 
L 211.801603 77.389307 
L 212.165536 77.389307 
L 212.165536 76.590891 
L 212.401868 76.590891 
L 212.460087 74.994059 
L 212.590488 74.994059 
L 212.590488 74.195644 
L 212.806911 74.195644 
L 212.806911 70.203564 
L 213.004358 70.203564 
L 213.004358 69.405149 
L 213.301572 69.405149 
L 213.352476 67.009901 
L 213.703396 67.009901 
L 213.703396 65.413069 
L 214.039522 65.413069 
L 214.039522 64.614653 
L 217.526408 64.614653 
L 217.526408 63.816238 
L 220.734854 63.816238 
L 220.734854 61.42099 
L 222.622313 61.42099 
L 222.622313 59.025743 
L 223.223517 59.025743 
L 223.223517 53.436832 
L 223.418948 53.436832 
L 223.418948 52.638416 
L 225.256904 52.638416 
L 225.256904 47.049505 
L 226.976107 47.049505 
L 227.050138 43.855842 
L 228.465349 43.855842 
L 228.465349 43.057426 
L 229.511889 43.057426 
L 229.511889 38.266931 
L 230.954007 38.266931 
L 230.954007 37.468515 
L 232.016978 37.468515 
L 232.047449 32.67802 
L 233.880095 32.67802 
L 233.880095 30.282772 
L 234.706603 30.282772 
L 234.706603 29.484356 
L 236.195844 29.484356 
L 236.195844 27.887525 
L 237.509443 27.887525 
L 237.509446 26.290693 
L 238.112441 26.290693 
L 238.112444 24.693861 
L 238.684505 24.693861 
L 238.684505 23.895446 
L 239.228647 23.895446 
L 239.228647 23.09703 
L 239.747471 23.09703 
L 239.822908 21.500198 
L 240.00405 21.500198 
L 240.00405 20.701782 
L 240.289662 20.701782 
L 240.289662 19.903366 
L 240.536722 19.903366 
L 240.594006 17.508119 
L 240.71581 17.508119 
L 240.739688 12.717624 
L 240.867148 12.717624 
L 240.936217 11.120792 
L 241.000225 11.120792 
L 241.014417 8.725545 
L 241.287626 8.725545 
L 241.287626 7.927129 
L 241.610584 7.927129 
L 241.610584 7.128713 
L 242.208698 7.128713 
L 242.208698 6.330297 
L 242.208698 6.330297 
L 460.8 6.330297 
L 460.8 6.330297 
" style="fill:none;stroke:#00bfbf;stroke-linecap:square;stroke-width:1.5;"/>
   </g>
   <g id="patch_3">
    <path d="M 0 293.76 
L 0 3.456 
" style="fill:none;stroke:#000000;stroke-linecap:square;stroke-linejoin:miter;stroke-width:0.8;"/>
   </g>
   <g id="patch_4">
    <path d="M 460.8 293.76 
L 460.8 3.456 
" style="fill:none;stroke:#000000;stroke-linecap:square;stroke-linejoin:miter;stroke-width:0.8;"/>
   </g>
   <g id="patch_5">
    <path d="M 0 293.76 
L 460.8 293.76 
" style="fill:none;stroke:#000000;stroke-linecap:square;stroke-linejoin:miter;stroke-width:0.8;"/>
   </g>
   <g id="patch_6">
    <path d="M 0 3.456 
L 460.8 3.456 
" style="fill:none;stroke:#000000;stroke-linecap:square;stroke-linejoin:miter;stroke-width:0.8;"/>
   </g>
   <g id="text_6">
    <!-- {f1-f24}, 20-D -->
    <g transform="translate(305.884 287.95392)scale(0.2 -0.2)">
     <defs>
      <path d="M 3272 -594 
L 3272 -1044 
L 3078 -1044 
Q 2300 -1044 2036 -812 
Q 1772 -581 1772 109 
L 1772 856 
Q 1772 1328 1603 1509 
Q 1434 1691 991 1691 
L 800 1691 
L 800 2138 
L 991 2138 
Q 1438 2138 1605 2317 
Q 1772 2497 1772 2963 
L 1772 3713 
Q 1772 4403 2036 4633 
Q 2300 4863 3078 4863 
L 3272 4863 
L 3272 4416 
L 3059 4416 
Q 2619 4416 2484 4278 
Q 2350 4141 2350 3700 
L 2350 2925 
Q 2350 2434 2208 2212 
Q 2066 1991 1722 1913 
Q 2069 1828 2209 1606 
Q 2350 1384 2350 897 
L 2350 122 
Q 2350 -319 2484 -456 
Q 2619 -594 3059 -594 
L 3272 -594 
z
" id="DejaVuSans-7b" transform="scale(0.015625)"/>
      <path d="M 1228 531 
L 3431 531 
L 3431 0 
L 469 0 
L 469 531 
Q 828 903 1448 1529 
Q 2069 2156 2228 2338 
Q 2531 2678 2651 2914 
Q 2772 3150 2772 3378 
Q 2772 3750 2511 3984 
Q 2250 4219 1831 4219 
Q 1534 4219 1204 4116 
Q 875 4013 500 3803 
L 500 4441 
Q 881 4594 1212 4672 
Q 1544 4750 1819 4750 
Q 2544 4750 2975 4387 
Q 3406 4025 3406 3419 
Q 3406 3131 3298 2873 
Q 3191 2616 2906 2266 
Q 2828 2175 2409 1742 
Q 1991 1309 1228 531 
z
" id="DejaVuSans-32" transform="scale(0.015625)"/>
      <path d="M 800 -594 
L 1019 -594 
Q 1456 -594 1589 -459 
Q 1722 -325 1722 122 
L 1722 897 
Q 1722 1384 1862 1606 
Q 2003 1828 2350 1913 
Q 2003 1991 1862 2212 
Q 1722 2434 1722 2925 
L 1722 3700 
Q 1722 4144 1589 4280 
Q 1456 4416 1019 4416 
L 800 4416 
L 800 4863 
L 997 4863 
Q 1775 4863 2036 4633 
Q 2297 4403 2297 3713 
L 2297 2963 
Q 2297 2497 2465 2317 
Q 2634 2138 3078 2138 
L 3272 2138 
L 3272 1691 
L 3078 1691 
Q 2634 1691 2465 1509 
Q 2297 1328 2297 856 
L 2297 109 
Q 2297 -581 2036 -812 
Q 1775 -1044 997 -1044 
L 800 -1044 
L 800 -594 
z
" id="DejaVuSans-7d" transform="scale(0.015625)"/>
      <path d="M 750 794 
L 1409 794 
L 1409 256 
L 897 -744 
L 494 -744 
L 750 256 
L 750 794 
z
" id="DejaVuSans-2c" transform="scale(0.015625)"/>
     </defs>
     <use xlink:href="#DejaVuSans-7b"/>
     <use x="63.623047" xlink:href="#DejaVuSans-66"/>
     <use x="98.828125" xlink:href="#DejaVuSans-31"/>
     <use x="162.451172" xlink:href="#DejaVuSans-2d"/>
     <use x="198.535156" xlink:href="#DejaVuSans-66"/>
     <use x="233.740234" xlink:href="#DejaVuSans-32"/>
     <use x="297.363281" xlink:href="#DejaVuSans-34"/>
     <use x="360.986328" xlink:href="#DejaVuSans-7d"/>
     <use x="424.609375" xlink:href="#DejaVuSans-2c"/>
     <use x="456.396484" xlink:href="#DejaVuSans-20"/>
     <use x="488.183594" xlink:href="#DejaVuSans-32"/>
     <use x="551.806641" xlink:href="#DejaVuSans-30"/>
     <use x="615.429688" xlink:href="#DejaVuSans-2d"/>
     <use x="651.513672" xlink:href="#DejaVuSans-44"/>
    </g>
   </g>
   <g id="text_7">
    <!-- v2.4 -->
    <g style="fill:#808080;" transform="translate(219.489063 288.777272)scale(0.1 -0.1)">
     <defs>
      <path d="M 191 3500 
L 800 3500 
L 1894 563 
L 2988 3500 
L 3597 3500 
L 2284 0 
L 1503 0 
L 191 3500 
z
" id="DejaVuSans-76" transform="scale(0.015625)"/>
      <path d="M 684 794 
L 1344 794 
L 1344 0 
L 684 0 
L 684 794 
z
" id="DejaVuSans-2e" transform="scale(0.015625)"/>
     </defs>
     <use xlink:href="#DejaVuSans-76"/>
     <use x="59.179688" xlink:href="#DejaVuSans-32"/>
     <use x="122.802734" xlink:href="#DejaVuSans-2e"/>
     <use x="154.589844" xlink:href="#DejaVuSans-34"/>
    </g>
   </g>
  </g>
 </g>
 <defs>
  <clipPath id="p28616372fb">
   <rect height="290.304" width="460.8" x="0" y="3.456"/>
  </clipPath>
 </defs>
</svg>
