<?xml version="1.0" encoding="utf-8" standalone="no"?>
<!DOCTYPE svg PUBLIC "-//W3C//DTD SVG 1.1//EN"
  "http://www.w3.org/Graphics/SVG/1.1/DTD/svg11.dtd">
<svg height="345.6pt" version="1.1" viewBox="0 0 460.8 345.6" width="460.8pt" xmlns="http://www.w3.org/2000/svg" xmlns:xlink="http://www.w3.org/1999/xlink">
 <metadata>
  <rdf:RDF xmlns:cc="http://creativecommons.org/ns#" xmlns:dc="http://purl.org/dc/elements/1.1/" xmlns:rdf="http://www.w3.org/1999/02/22-rdf-syntax-ns#">
   <cc:Work>
    <dc:type rdf:resource="http://purl.org/dc/dcmitype/StillImage"/>
    <dc:date>2021-07-27T16:03:37.561332</dc:date>
    <dc:format>image/svg+xml</dc:format>
    <dc:creator>
     <cc:Agent>
      <dc:title>Matplotlib v3.4.2, https://matplotlib.org/</dc:title>
     </cc:Agent>
    </dc:creator>
   </cc:Work>
  </rdf:RDF>
 </metadata>
 <defs>
  <style type="text/css">*{stroke-linecap:butt;stroke-linejoin:round;}</style>
 </defs>
 <g id="figure_1">
  <g id="patch_1">
   <path d="M 0 345.6 
L 460.8 345.6 
L 460.8 0 
L 0 0 
z
" style="fill:#ffffff;"/>
  </g>
  <g id="axes_1">
   <g id="patch_2">
    <path d="M 0 293.76 
L 460.8 293.76 
L 460.8 3.456 
L 0 3.456 
z
" style="fill:#ffffff;"/>
   </g>
   <g id="matplotlib.axis_1">
    <g id="xtick_1">
     <g id="line2d_1">
      <path clip-path="url(#pd7824f0ff1)" d="M 104.754935 293.76 
L 104.754935 3.456 
" style="fill:none;stroke:#b0b0b0;stroke-linecap:square;stroke-width:0.8;"/>
     </g>
     <g id="line2d_2">
      <defs>
       <path d="M 0 0 
L 0 3.5 
" id="me8c3c047b4" style="stroke:#000000;stroke-width:0.8;"/>
      </defs>
      <g>
       <use style="stroke:#000000;stroke-width:0.8;" x="104.754935" xlink:href="#me8c3c047b4" y="293.76"/>
      </g>
     </g>
     <g id="text_1">
      <!-- -4 -->
      <g transform="translate(94.784622 315.956875)scale(0.2 -0.2)">
       <defs>
        <path d="M 313 2009 
L 1997 2009 
L 1997 1497 
L 313 1497 
L 313 2009 
z
" id="DejaVuSans-2d" transform="scale(0.015625)"/>
        <path d="M 2419 4116 
L 825 1625 
L 2419 1625 
L 2419 4116 
z
M 2253 4666 
L 3047 4666 
L 3047 1625 
L 3713 1625 
L 3713 1100 
L 3047 1100 
L 3047 0 
L 2419 0 
L 2419 1100 
L 313 1100 
L 313 1709 
L 2253 4666 
z
" id="DejaVuSans-34" transform="scale(0.015625)"/>
       </defs>
       <use xlink:href="#DejaVuSans-2d"/>
       <use x="36.083984" xlink:href="#DejaVuSans-34"/>
      </g>
     </g>
    </g>
    <g id="xtick_2">
     <g id="line2d_3">
      <path clip-path="url(#pd7824f0ff1)" d="M 209.623163 293.76 
L 209.623163 3.456 
" style="fill:none;stroke:#b0b0b0;stroke-linecap:square;stroke-width:0.8;"/>
     </g>
     <g id="line2d_4">
      <g>
       <use style="stroke:#000000;stroke-width:0.8;" x="209.623163" xlink:href="#me8c3c047b4" y="293.76"/>
      </g>
     </g>
     <g id="text_2">
      <!-- 0 -->
      <g transform="translate(203.260663 315.956875)scale(0.2 -0.2)">
       <defs>
        <path d="M 2034 4250 
Q 1547 4250 1301 3770 
Q 1056 3291 1056 2328 
Q 1056 1369 1301 889 
Q 1547 409 2034 409 
Q 2525 409 2770 889 
Q 3016 1369 3016 2328 
Q 3016 3291 2770 3770 
Q 2525 4250 2034 4250 
z
M 2034 4750 
Q 2819 4750 3233 4129 
Q 3647 3509 3647 2328 
Q 3647 1150 3233 529 
Q 2819 -91 2034 -91 
Q 1250 -91 836 529 
Q 422 1150 422 2328 
Q 422 3509 836 4129 
Q 1250 4750 2034 4750 
z
" id="DejaVuSans-30" transform="scale(0.015625)"/>
       </defs>
       <use xlink:href="#DejaVuSans-30"/>
      </g>
     </g>
    </g>
    <g id="xtick_3">
     <g id="line2d_5">
      <path clip-path="url(#pd7824f0ff1)" d="M 314.491391 293.76 
L 314.491391 3.456 
" style="fill:none;stroke:#b0b0b0;stroke-linecap:square;stroke-width:0.8;"/>
     </g>
     <g id="line2d_6">
      <g>
       <use style="stroke:#000000;stroke-width:0.8;" x="314.491391" xlink:href="#me8c3c047b4" y="293.76"/>
      </g>
     </g>
     <g id="text_3">
      <!-- 4 -->
      <g transform="translate(308.128891 315.956875)scale(0.2 -0.2)">
       <use xlink:href="#DejaVuSans-34"/>
      </g>
     </g>
    </g>
    <g id="xtick_4">
     <g id="line2d_7">
      <path clip-path="url(#pd7824f0ff1)" d="M 419.359619 293.76 
L 419.359619 3.456 
" style="fill:none;stroke:#b0b0b0;stroke-linecap:square;stroke-width:0.8;"/>
     </g>
     <g id="line2d_8">
      <g>
       <use style="stroke:#000000;stroke-width:0.8;" x="419.359619" xlink:href="#me8c3c047b4" y="293.76"/>
      </g>
     </g>
     <g id="text_4">
      <!-- 8 -->
      <g transform="translate(412.997119 315.956875)scale(0.2 -0.2)">
       <defs>
        <path d="M 2034 2216 
Q 1584 2216 1326 1975 
Q 1069 1734 1069 1313 
Q 1069 891 1326 650 
Q 1584 409 2034 409 
Q 2484 409 2743 651 
Q 3003 894 3003 1313 
Q 3003 1734 2745 1975 
Q 2488 2216 2034 2216 
z
M 1403 2484 
Q 997 2584 770 2862 
Q 544 3141 544 3541 
Q 544 4100 942 4425 
Q 1341 4750 2034 4750 
Q 2731 4750 3128 4425 
Q 3525 4100 3525 3541 
Q 3525 3141 3298 2862 
Q 3072 2584 2669 2484 
Q 3125 2378 3379 2068 
Q 3634 1759 3634 1313 
Q 3634 634 3220 271 
Q 2806 -91 2034 -91 
Q 1263 -91 848 271 
Q 434 634 434 1313 
Q 434 1759 690 2068 
Q 947 2378 1403 2484 
z
M 1172 3481 
Q 1172 3119 1398 2916 
Q 1625 2713 2034 2713 
Q 2441 2713 2670 2916 
Q 2900 3119 2900 3481 
Q 2900 3844 2670 4047 
Q 2441 4250 2034 4250 
Q 1625 4250 1398 4047 
Q 1172 3844 1172 3481 
z
" id="DejaVuSans-38" transform="scale(0.015625)"/>
       </defs>
       <use xlink:href="#DejaVuSans-38"/>
      </g>
     </g>
    </g>
    <g id="text_5">
     <!-- log10 of Df -->
     <g transform="translate(175.214063 339.313125)scale(0.2 -0.2)">
      <defs>
       <path d="M 603 4863 
L 1178 4863 
L 1178 0 
L 603 0 
L 603 4863 
z
" id="DejaVuSans-6c" transform="scale(0.015625)"/>
       <path d="M 1959 3097 
Q 1497 3097 1228 2736 
Q 959 2375 959 1747 
Q 959 1119 1226 758 
Q 1494 397 1959 397 
Q 2419 397 2687 759 
Q 2956 1122 2956 1747 
Q 2956 2369 2687 2733 
Q 2419 3097 1959 3097 
z
M 1959 3584 
Q 2709 3584 3137 3096 
Q 3566 2609 3566 1747 
Q 3566 888 3137 398 
Q 2709 -91 1959 -91 
Q 1206 -91 779 398 
Q 353 888 353 1747 
Q 353 2609 779 3096 
Q 1206 3584 1959 3584 
z
" id="DejaVuSans-6f" transform="scale(0.015625)"/>
       <path d="M 2906 1791 
Q 2906 2416 2648 2759 
Q 2391 3103 1925 3103 
Q 1463 3103 1205 2759 
Q 947 2416 947 1791 
Q 947 1169 1205 825 
Q 1463 481 1925 481 
Q 2391 481 2648 825 
Q 2906 1169 2906 1791 
z
M 3481 434 
Q 3481 -459 3084 -895 
Q 2688 -1331 1869 -1331 
Q 1566 -1331 1297 -1286 
Q 1028 -1241 775 -1147 
L 775 -588 
Q 1028 -725 1275 -790 
Q 1522 -856 1778 -856 
Q 2344 -856 2625 -561 
Q 2906 -266 2906 331 
L 2906 616 
Q 2728 306 2450 153 
Q 2172 0 1784 0 
Q 1141 0 747 490 
Q 353 981 353 1791 
Q 353 2603 747 3093 
Q 1141 3584 1784 3584 
Q 2172 3584 2450 3431 
Q 2728 3278 2906 2969 
L 2906 3500 
L 3481 3500 
L 3481 434 
z
" id="DejaVuSans-67" transform="scale(0.015625)"/>
       <path d="M 794 531 
L 1825 531 
L 1825 4091 
L 703 3866 
L 703 4441 
L 1819 4666 
L 2450 4666 
L 2450 531 
L 3481 531 
L 3481 0 
L 794 0 
L 794 531 
z
" id="DejaVuSans-31" transform="scale(0.015625)"/>
       <path id="DejaVuSans-20" transform="scale(0.015625)"/>
       <path d="M 2375 4863 
L 2375 4384 
L 1825 4384 
Q 1516 4384 1395 4259 
Q 1275 4134 1275 3809 
L 1275 3500 
L 2222 3500 
L 2222 3053 
L 1275 3053 
L 1275 0 
L 697 0 
L 697 3053 
L 147 3053 
L 147 3500 
L 697 3500 
L 697 3744 
Q 697 4328 969 4595 
Q 1241 4863 1831 4863 
L 2375 4863 
z
" id="DejaVuSans-66" transform="scale(0.015625)"/>
       <path d="M 1259 4147 
L 1259 519 
L 2022 519 
Q 2988 519 3436 956 
Q 3884 1394 3884 2338 
Q 3884 3275 3436 3711 
Q 2988 4147 2022 4147 
L 1259 4147 
z
M 628 4666 
L 1925 4666 
Q 3281 4666 3915 4102 
Q 4550 3538 4550 2338 
Q 4550 1131 3912 565 
Q 3275 0 1925 0 
L 628 0 
L 628 4666 
z
" id="DejaVuSans-44" transform="scale(0.015625)"/>
      </defs>
      <use xlink:href="#DejaVuSans-6c"/>
      <use x="27.783203" xlink:href="#DejaVuSans-6f"/>
      <use x="88.964844" xlink:href="#DejaVuSans-67"/>
      <use x="152.441406" xlink:href="#DejaVuSans-31"/>
      <use x="216.064453" xlink:href="#DejaVuSans-30"/>
      <use x="279.6875" xlink:href="#DejaVuSans-20"/>
      <use x="311.474609" xlink:href="#DejaVuSans-6f"/>
      <use x="372.65625" xlink:href="#DejaVuSans-66"/>
      <use x="407.861328" xlink:href="#DejaVuSans-20"/>
      <use x="439.648438" xlink:href="#DejaVuSans-44"/>
      <use x="516.650391" xlink:href="#DejaVuSans-66"/>
     </g>
    </g>
   </g>
   <g id="matplotlib.axis_2">
    <g id="ytick_1">
     <g id="line2d_9">
      <path clip-path="url(#pd7824f0ff1)" d="M 0 293.76 
L 460.8 293.76 
" style="fill:none;stroke:#b0b0b0;stroke-linecap:square;stroke-width:0.8;"/>
     </g>
     <g id="line2d_10">
      <defs>
       <path d="M 0 0 
L -3.5 0 
" id="m43b4d53807" style="stroke:#000000;stroke-width:0.8;"/>
      </defs>
      <g>
       <use style="stroke:#000000;stroke-width:0.8;" x="0" xlink:href="#m43b4d53807" y="293.76"/>
      </g>
     </g>
    </g>
    <g id="ytick_2">
     <g id="line2d_11">
      <path clip-path="url(#pd7824f0ff1)" d="M 0 236.274059 
L 460.8 236.274059 
" style="fill:none;stroke:#b0b0b0;stroke-linecap:square;stroke-width:0.8;"/>
     </g>
     <g id="line2d_12">
      <g>
       <use style="stroke:#000000;stroke-width:0.8;" x="0" xlink:href="#m43b4d53807" y="236.274059"/>
      </g>
     </g>
    </g>
    <g id="ytick_3">
     <g id="line2d_13">
      <path clip-path="url(#pd7824f0ff1)" d="M 0 178.788119 
L 460.8 178.788119 
" style="fill:none;stroke:#b0b0b0;stroke-linecap:square;stroke-width:0.8;"/>
     </g>
     <g id="line2d_14">
      <g>
       <use style="stroke:#000000;stroke-width:0.8;" x="0" xlink:href="#m43b4d53807" y="178.788119"/>
      </g>
     </g>
    </g>
    <g id="ytick_4">
     <g id="line2d_15">
      <path clip-path="url(#pd7824f0ff1)" d="M 0 121.302178 
L 460.8 121.302178 
" style="fill:none;stroke:#b0b0b0;stroke-linecap:square;stroke-width:0.8;"/>
     </g>
     <g id="line2d_16">
      <g>
       <use style="stroke:#000000;stroke-width:0.8;" x="0" xlink:href="#m43b4d53807" y="121.302178"/>
      </g>
     </g>
    </g>
    <g id="ytick_5">
     <g id="line2d_17">
      <path clip-path="url(#pd7824f0ff1)" d="M 0 63.816238 
L 460.8 63.816238 
" style="fill:none;stroke:#b0b0b0;stroke-linecap:square;stroke-width:0.8;"/>
     </g>
     <g id="line2d_18">
      <g>
       <use style="stroke:#000000;stroke-width:0.8;" x="0" xlink:href="#m43b4d53807" y="63.816238"/>
      </g>
     </g>
    </g>
    <g id="ytick_6">
     <g id="line2d_19">
      <path clip-path="url(#pd7824f0ff1)" d="M 0 6.330297 
L 460.8 6.330297 
" style="fill:none;stroke:#b0b0b0;stroke-linecap:square;stroke-width:0.8;"/>
     </g>
     <g id="line2d_20">
      <g>
       <use style="stroke:#000000;stroke-width:0.8;" x="0" xlink:href="#m43b4d53807" y="6.330297"/>
      </g>
     </g>
    </g>
   </g>
   <g id="line2d_21">
    <path clip-path="url(#pd7824f0ff1)" d="M -1 236.274059 
L -0.113294 236.274059 
L -0.113294 121.302178 
L 209.348508 121.302178 
L 209.348508 117.469782 
L 209.565622 117.469782 
L 209.565622 105.972594 
L 217.457742 105.972594 
L 217.457742 75.313426 
L 222.074337 75.313426 
L 222.074337 48.486653 
L 225.349863 48.486653 
L 225.349863 25.492277 
L 225.535413 25.492277 
L 225.535413 21.659881 
L 229.966448 21.659881 
L 229.966448 17.827485 
L 231.721597 17.827485 
L 231.721597 10.162693 
L 234.583039 10.162693 
L 234.583039 6.330297 
L 234.583039 6.330297 
L 460.8 6.330297 
L 460.8 6.330297 
" style="fill:none;stroke:#ff0000;stroke-linecap:square;stroke-width:3;"/>
   </g>
   <g id="line2d_22">
    <path clip-path="url(#pd7824f0ff1)" d="M 234.075328 293.76 
L 234.075328 289.927604 
L 243.093915 289.927604 
L 243.093915 286.095208 
L 245.591786 286.095208 
L 245.591786 282.262812 
L 246.770779 282.262812 
L 246.771337 274.59802 
L 248.699752 274.59802 
L 248.790845 266.933228 
L 248.946667 266.933228 
L 248.946667 263.100832 
L 250.785039 263.100832 
L 250.785039 259.268436 
L 253.241874 259.268436 
L 253.241874 255.43604 
L 253.529687 255.43604 
L 253.529687 251.603644 
L 254.254102 251.603644 
L 254.254102 247.771248 
L 255.177504 247.771248 
L 255.177504 243.938851 
L 255.798067 243.938851 
L 255.798067 240.106455 
L 256.220602 240.106455 
L 256.220602 236.274059 
L 257.867825 236.274059 
L 257.867825 232.441663 
L 258.767646 232.441663 
L 258.767646 228.609267 
L 259.900466 228.609267 
L 259.900466 224.776871 
L 260.339681 224.776871 
L 260.377821 217.112079 
L 260.585599 217.112079 
L 260.585599 213.279683 
L 260.871683 213.279683 
L 260.974423 205.614891 
L 261.526248 205.614891 
L 261.526248 201.782495 
L 261.887693 201.782495 
L 261.887693 197.950099 
L 262.400291 197.950099 
L 262.400291 194.117703 
L 262.851226 194.117703 
L 262.851226 190.285307 
L 263.433034 190.285307 
L 263.502173 178.788119 
L 263.553031 178.788119 
L 263.61028 171.123327 
L 264.298205 171.123327 
L 264.384805 163.458535 
L 264.484357 163.458535 
L 264.484357 159.626139 
L 264.814667 159.626139 
L 264.814667 155.793743 
L 264.938749 155.793743 
L 264.938749 151.961347 
L 265.224033 151.961347 
L 265.224033 148.12895 
L 265.377551 148.12895 
L 265.377551 144.296554 
L 266.277932 144.296554 
L 266.277932 140.464158 
L 267.353467 140.464158 
L 267.396225 132.799366 
L 267.488856 132.799366 
L 267.488856 128.96697 
L 267.643452 128.96697 
L 267.643452 125.134574 
L 268.089607 125.134574 
L 268.089607 121.302178 
L 268.704927 121.302178 
L 268.731639 113.637386 
L 268.897279 113.637386 
L 268.897279 109.80499 
L 270.441323 109.80499 
L 270.441323 105.972594 
L 271.349285 105.972594 
L 271.349285 102.140198 
L 271.981834 102.140198 
L 271.981834 98.307802 
L 272.104519 98.307802 
L 272.104519 94.475406 
L 272.34364 94.475406 
L 272.34364 90.64301 
L 272.924674 90.64301 
L 272.924674 86.810614 
L 274.205659 86.810614 
L 274.205659 82.978218 
L 277.596093 82.978218 
L 277.596093 79.145822 
L 278.268813 79.145822 
L 278.268813 75.313426 
L 281.432168 75.313426 
L 281.432168 71.48103 
L 282.245456 71.48103 
L 282.245456 67.648634 
L 282.604594 67.648634 
L 282.604594 63.816238 
L 344.516106 63.816238 
L 344.516106 59.983842 
L 347.565835 59.983842 
L 347.565835 56.151446 
L 355.082696 56.151446 
L 355.082696 52.31905 
L 355.606775 52.31905 
L 355.606775 48.486653 
L 359.498016 48.486653 
L 359.498016 44.654257 
L 361.139484 44.654257 
L 361.139484 40.821861 
L 361.305608 40.821861 
L 361.305608 36.989465 
L 361.92529 36.989465 
L 361.92529 33.157069 
L 370.88824 33.157069 
L 370.88824 29.324673 
L 375.717694 29.324673 
L 375.717694 25.492277 
L 377.10059 25.492277 
L 377.10059 21.659881 
L 381.031933 21.659881 
L 381.031933 17.827485 
L 384.778057 17.827485 
L 384.778057 13.995089 
L 391.315323 13.995089 
L 391.315323 10.162693 
L 396.631526 10.162693 
L 396.631526 6.330297 
L 396.631526 6.330297 
L 460.8 6.330297 
L 460.8 6.330297 
" style="fill:none;stroke:#00bfbf;stroke-linecap:square;stroke-width:1.5;"/>
   </g>
   <g id="line2d_23">
    <path clip-path="url(#pd7824f0ff1)" d="M 234.075328 293.76 
L 234.075328 289.927604 
L 236.536135 289.927604 
L 236.536135 286.095208 
L 242.518147 286.095208 
L 242.518147 282.262812 
L 243.093915 282.262812 
L 243.093915 278.430416 
L 243.880705 278.430416 
L 243.880705 274.59802 
L 245.591786 274.59802 
L 245.591786 270.765624 
L 245.896062 270.765624 
L 245.896062 266.933228 
L 246.28159 266.933228 
L 246.28159 263.100832 
L 246.628387 263.100832 
L 246.628387 259.268436 
L 246.771337 259.268436 
L 246.771337 255.43604 
L 248.147732 255.43604 
L 248.147732 251.603644 
L 248.790845 251.603644 
L 248.790845 247.771248 
L 251.734404 247.771248 
L 251.734404 243.938851 
L 252.837397 243.938851 
L 252.837397 240.106455 
L 253.241874 240.106455 
L 253.241874 236.274059 
L 254.254102 236.274059 
L 254.254102 232.441663 
L 255.798067 232.441663 
L 255.798067 228.609267 
L 256.746312 228.609267 
L 256.746312 224.776871 
L 257.248563 224.776871 
L 257.248563 220.944475 
L 257.867825 220.944475 
L 257.867825 217.112079 
L 258.30999 217.112079 
L 258.30999 213.279683 
L 258.520641 213.279683 
L 258.520641 209.447287 
L 258.828973 209.447287 
L 258.828973 205.614891 
L 259.795974 205.614891 
L 259.900466 197.950099 
L 260.000658 197.950099 
L 260.053145 186.452911 
L 260.339681 186.452911 
L 260.354538 178.788119 
L 260.674554 178.788119 
L 260.674554 174.955723 
L 260.974423 174.955723 
L 261.021743 167.290931 
L 261.232577 167.290931 
L 261.300847 159.626139 
L 261.368899 159.626139 
L 261.459263 151.961347 
L 261.619291 151.961347 
L 261.619291 148.12895 
L 262.586191 148.12895 
L 262.586191 144.296554 
L 262.851226 144.296554 
L 262.851226 140.464158 
L 262.995589 140.464158 
L 262.995589 136.631762 
L 263.433034 136.631762 
L 263.433034 132.799366 
L 264.204016 132.799366 
L 264.26064 125.134574 
L 264.51898 125.134574 
L 264.51898 121.302178 
L 264.823617 121.302178 
L 264.823617 117.469782 
L 265.377551 117.469782 
L 265.377551 113.637386 
L 265.636744 113.637386 
L 265.636744 109.80499 
L 265.768868 109.80499 
L 265.768868 105.972594 
L 265.99892 105.972594 
L 265.99892 102.140198 
L 266.277932 102.140198 
L 266.299175 94.475406 
L 267.063931 94.475406 
L 267.063931 90.64301 
L 267.353467 90.64301 
L 267.353467 86.810614 
L 268.089607 86.810614 
L 268.089607 82.978218 
L 268.401648 82.978218 
L 268.401648 79.145822 
L 268.704927 79.145822 
L 268.704927 75.313426 
L 269.196418 75.313426 
L 269.196418 71.48103 
L 270.441323 71.48103 
L 270.441323 67.648634 
L 274.205659 67.648634 
L 274.205659 63.816238 
L 303.888577 63.816238 
L 303.888577 59.983842 
L 312.415596 59.983842 
L 312.415596 56.151446 
L 328.286447 56.151446 
L 328.286447 52.31905 
L 328.41589 52.31905 
L 328.41589 48.486653 
L 343.894894 48.486653 
L 343.979087 40.821861 
L 346.679661 40.821861 
L 346.679661 36.989465 
L 349.579043 36.989465 
L 349.579043 33.157069 
L 355.606775 33.157069 
L 355.606775 29.324673 
L 360.279077 29.324673 
L 360.279077 25.492277 
L 361.129459 25.492277 
L 361.129459 21.659881 
L 361.305608 21.659881 
L 361.305608 17.827485 
L 370.88824 17.827485 
L 370.88824 13.995089 
L 372.09624 13.995089 
L 372.09624 10.162693 
L 377.98778 10.162693 
L 377.98778 6.330297 
L 377.98778 6.330297 
L 460.8 6.330297 
L 460.8 6.330297 
" style="fill:none;stroke:#bf00bf;stroke-linecap:square;stroke-width:1.5;"/>
   </g>
   <g id="line2d_24">
    <path clip-path="url(#pd7824f0ff1)" d="M 225.248637 293.76 
L 225.248637 289.927604 
L 230.909318 289.927604 
L 230.909318 286.095208 
L 233.263537 286.095208 
L 233.263537 282.262812 
L 234.075328 282.262812 
L 234.075328 278.430416 
L 238.900417 278.430416 
L 238.900417 274.59802 
L 240.28991 274.59802 
L 240.28991 270.765624 
L 241.334527 270.765624 
L 241.334527 266.933228 
L 241.979104 266.933228 
L 241.979104 263.100832 
L 243.093915 263.100832 
L 243.093915 259.268436 
L 246.628387 259.268436 
L 246.628387 255.43604 
L 246.771337 255.43604 
L 246.771337 251.603644 
L 248.147732 251.603644 
L 248.147732 247.771248 
L 249.494936 247.771248 
L 249.494936 243.938851 
L 250.643719 243.938851 
L 250.643719 240.106455 
L 253.241874 240.106455 
L 253.241874 236.274059 
L 254.254102 236.274059 
L 254.254102 232.441663 
L 255.798067 232.441663 
L 255.798067 228.609267 
L 256.403583 228.609267 
L 256.403583 224.776871 
L 256.746312 224.776871 
L 256.746312 220.944475 
L 257.248563 220.944475 
L 257.248563 217.112079 
L 257.450502 217.112079 
L 257.450502 213.279683 
L 257.709028 213.279683 
L 257.709028 209.447287 
L 257.867825 209.447287 
L 257.867825 205.614891 
L 258.30999 205.614891 
L 258.358024 197.950099 
L 258.520641 197.950099 
L 258.520641 194.117703 
L 258.828973 194.117703 
L 258.936256 182.620515 
L 259.650315 182.620515 
L 259.650315 178.788119 
L 259.795974 178.788119 
L 259.795974 174.955723 
L 260.009396 174.955723 
L 260.009396 171.123327 
L 260.15958 171.123327 
L 260.15958 167.290931 
L 260.305844 167.290931 
L 260.339681 159.626139 
L 260.86383 159.626139 
L 260.974423 151.961347 
L 260.985185 151.961347 
L 260.985185 148.12895 
L 261.232577 148.12895 
L 261.300847 140.464158 
L 261.7766 140.464158 
L 261.7766 136.631762 
L 262.143778 136.631762 
L 262.143778 132.799366 
L 262.586191 132.799366 
L 262.589662 125.134574 
L 262.851226 125.134574 
L 262.851226 121.302178 
L 263.161849 121.302178 
L 263.161849 117.469782 
L 264.204016 117.469782 
L 264.26064 109.80499 
L 264.351142 109.80499 
L 264.453757 98.307802 
L 264.51898 98.307802 
L 264.51898 94.475406 
L 264.823617 94.475406 
L 264.823617 90.64301 
L 264.992252 90.64301 
L 264.992252 86.810614 
L 265.377551 86.810614 
L 265.446065 79.145822 
L 265.511955 79.145822 
L 265.511955 75.313426 
L 265.768868 75.313426 
L 265.768868 71.48103 
L 266.636801 71.48103 
L 266.636801 67.648634 
L 268.704927 67.648634 
L 268.704927 63.816238 
L 303.888577 63.816238 
L 303.888577 59.983842 
L 312.415596 59.983842 
L 312.415596 56.151446 
L 328.286447 56.151446 
L 328.286447 52.31905 
L 328.41589 52.31905 
L 328.41589 48.486653 
L 335.382096 48.486653 
L 335.382096 44.654257 
L 339.298821 44.654257 
L 339.298821 40.821861 
L 339.761128 40.821861 
L 339.761128 36.989465 
L 343.480104 36.989465 
L 343.480104 33.157069 
L 343.979087 33.157069 
L 343.979087 29.324673 
L 346.679661 29.324673 
L 346.679661 25.492277 
L 349.579043 25.492277 
L 349.579043 21.659881 
L 355.606775 21.659881 
L 355.606775 17.827485 
L 357.564631 17.827485 
L 357.564631 13.995089 
L 357.702508 13.995089 
L 357.702508 10.162693 
L 369.447679 10.162693 
L 369.447679 6.330297 
L 369.447679 6.330297 
L 460.8 6.330297 
L 460.8 6.330297 
" style="fill:none;stroke:#000000;stroke-linecap:square;stroke-width:1.5;"/>
   </g>
   <g id="line2d_25">
    <path clip-path="url(#pd7824f0ff1)" d="M 221.621139 293.76 
L 221.621139 289.927604 
L 225.173153 289.927604 
L 225.173153 286.095208 
L 227.294057 286.095208 
L 227.294057 282.262812 
L 230.909318 282.262812 
L 230.909318 278.430416 
L 232.755574 278.430416 
L 232.755574 274.59802 
L 235.944604 274.59802 
L 235.944604 270.765624 
L 237.517359 270.765624 
L 237.517359 266.933228 
L 240.10173 266.933228 
L 240.10173 263.100832 
L 240.28991 263.100832 
L 240.28991 259.268436 
L 241.979104 259.268436 
L 241.979104 255.43604 
L 243.029502 255.43604 
L 243.029502 251.603644 
L 244.584369 251.603644 
L 244.584369 247.771248 
L 244.828178 247.771248 
L 244.907051 240.106455 
L 251.224558 240.106455 
L 251.224558 236.274059 
L 253.241874 236.274059 
L 253.241874 232.441663 
L 254.113032 232.441663 
L 254.113032 228.609267 
L 254.544317 228.609267 
L 254.544317 224.776871 
L 254.964848 224.776871 
L 255.063594 217.112079 
L 255.338044 217.112079 
L 255.338044 213.279683 
L 255.798067 213.279683 
L 255.845796 201.782495 
L 256.346165 201.782495 
L 256.346165 197.950099 
L 256.746312 197.950099 
L 256.787202 190.285307 
L 257.184581 190.285307 
L 257.248563 182.620515 
L 257.433228 182.620515 
L 257.450502 174.955723 
L 258.248325 174.955723 
L 258.30999 167.290931 
L 258.530601 167.290931 
L 258.530601 163.458535 
L 258.936256 163.458535 
L 258.989492 155.793743 
L 259.116764 155.793743 
L 259.202658 144.296554 
L 259.340783 144.296554 
L 259.340783 140.464158 
L 259.961903 140.464158 
L 260.009396 132.799366 
L 260.305844 132.799366 
L 260.326693 125.134574 
L 260.627611 125.134574 
L 260.627611 121.302178 
L 260.73919 121.302178 
L 260.73919 117.469782 
L 260.86383 117.469782 
L 260.86383 113.637386 
L 261.232577 113.637386 
L 261.232577 109.80499 
L 261.7766 109.80499 
L 261.7766 105.972594 
L 262.966912 105.972594 
L 262.966912 102.140198 
L 263.161849 102.140198 
L 263.250024 94.475406 
L 263.746065 94.475406 
L 263.746065 90.64301 
L 263.960648 90.64301 
L 264.023036 79.145822 
L 264.26064 79.145822 
L 264.26064 75.313426 
L 264.727325 75.313426 
L 264.727325 71.48103 
L 264.908504 71.48103 
L 264.992252 63.816238 
L 303.888577 63.816238 
L 303.888577 59.983842 
L 312.415596 59.983842 
L 312.415596 56.151446 
L 318.90888 56.151446 
L 318.90888 52.31905 
L 324.051939 52.31905 
L 324.051939 48.486653 
L 328.41589 48.486653 
L 328.41589 44.654257 
L 331.843231 44.654257 
L 331.843231 40.821861 
L 337.339979 40.821861 
L 337.339979 36.989465 
L 338.808563 36.989465 
L 338.808563 33.157069 
L 338.97 33.157069 
L 338.97 29.324673 
L 339.298821 29.324673 
L 339.298821 25.492277 
L 339.761128 25.492277 
L 339.761128 21.659881 
L 343.503843 21.659881 
L 343.503843 17.827485 
L 344.644548 17.827485 
L 344.644548 13.995089 
L 348.678061 13.995089 
L 348.678061 10.162693 
L 354.288836 10.162693 
L 354.288836 6.330297 
L 354.288836 6.330297 
L 460.8 6.330297 
L 460.8 6.330297 
" style="fill:none;stroke:#00bfbf;stroke-linecap:square;stroke-width:1.5;"/>
   </g>
   <g id="line2d_26">
    <path clip-path="url(#pd7824f0ff1)" d="M 196.599699 293.76 
L 196.599699 289.927604 
L 199.057502 289.927604 
L 199.057502 286.095208 
L 203.079176 286.095208 
L 203.079176 282.262812 
L 203.864857 282.262812 
L 203.864857 278.430416 
L 204.37142 278.430416 
L 204.37142 274.59802 
L 206.785061 274.59802 
L 206.841474 266.933228 
L 206.900894 266.933228 
L 206.900894 263.100832 
L 207.532444 263.100832 
L 207.532444 259.268436 
L 209.363993 259.268436 
L 209.363993 255.43604 
L 210.37968 255.43604 
L 210.37968 251.603644 
L 211.082694 251.603644 
L 211.082694 247.771248 
L 215.9492 247.771248 
L 215.9492 243.938851 
L 216.278456 243.938851 
L 216.278456 240.106455 
L 218.922745 240.106455 
L 218.922745 236.274059 
L 237.174496 236.274059 
L 237.174496 232.441663 
L 239.068106 232.441663 
L 239.068106 228.609267 
L 239.250853 228.609267 
L 239.250853 224.776871 
L 240.508362 224.776871 
L 240.551988 217.112079 
L 241.699803 217.112079 
L 241.769911 209.447287 
L 242.411377 209.447287 
L 242.411377 205.614891 
L 242.603275 205.614891 
L 242.603275 201.782495 
L 242.95774 201.782495 
L 242.95774 197.950099 
L 243.107807 197.950099 
L 243.165016 190.285307 
L 243.766621 190.285307 
L 243.766621 186.452911 
L 244.588033 186.452911 
L 244.60972 178.788119 
L 245.917171 178.788119 
L 245.917171 174.955723 
L 247.005207 174.955723 
L 247.005207 171.123327 
L 247.168716 171.123327 
L 247.168716 167.290931 
L 247.989856 167.290931 
L 248.014225 159.626139 
L 248.208089 159.626139 
L 248.246687 151.961347 
L 248.784368 151.961347 
L 248.873931 144.296554 
L 249.00451 144.296554 
L 249.067406 136.631762 
L 249.40371 136.631762 
L 249.453204 128.96697 
L 249.970805 128.96697 
L 249.970805 125.134574 
L 250.145984 125.134574 
L 250.150453 113.637386 
L 250.322804 113.637386 
L 250.407084 102.140198 
L 250.567831 102.140198 
L 250.567831 98.307802 
L 250.887638 98.307802 
L 250.887638 94.475406 
L 251.061855 94.475406 
L 251.061855 90.64301 
L 251.354396 90.64301 
L 251.354396 86.810614 
L 251.717369 86.810614 
L 251.801639 79.145822 
L 252.12753 79.145822 
L 252.12753 75.313426 
L 252.293815 75.313426 
L 252.293815 71.48103 
L 252.412375 71.48103 
L 252.412375 67.648634 
L 252.901084 67.648634 
L 252.901084 63.816238 
L 283.552358 63.816238 
L 283.552358 59.983842 
L 289.160182 59.983842 
L 289.160182 56.151446 
L 289.581758 56.151446 
L 289.581758 52.31905 
L 291.328851 52.31905 
L 291.328851 48.486653 
L 292.141129 48.486653 
L 292.141129 44.654257 
L 292.397082 44.654257 
L 292.397082 40.821861 
L 297.229848 40.821861 
L 297.229848 36.989465 
L 298.792353 36.989465 
L 298.792353 33.157069 
L 301.113717 33.157069 
L 301.113717 29.324673 
L 308.808724 29.324673 
L 308.869587 21.659881 
L 311.362081 21.659881 
L 311.362081 17.827485 
L 312.803549 17.827485 
L 312.803549 13.995089 
L 313.830855 13.995089 
L 313.830855 10.162693 
L 316.866877 10.162693 
L 316.866877 6.330297 
L 316.866877 6.330297 
L 460.8 6.330297 
L 460.8 6.330297 
" style="fill:none;stroke:#bf00bf;stroke-linecap:square;stroke-width:1.5;"/>
   </g>
   <g id="line2d_27">
    <path clip-path="url(#pd7824f0ff1)" d="M -1 205.614891 
L -0.531262 205.614891 
L -0.531262 201.782495 
L 0.979897 201.782495 
L 0.979897 197.950099 
L 5.255099 197.950099 
L 5.255099 194.117703 
L 5.386985 194.117703 
L 5.386985 190.285307 
L 5.82978 190.285307 
L 5.82978 186.452911 
L 8.899574 186.452911 
L 8.899574 182.620515 
L 9.179572 182.620515 
L 9.179572 178.788119 
L 144.010632 178.788119 
L 144.010632 174.955723 
L 146.723664 174.955723 
L 146.723664 171.123327 
L 147.075296 171.123327 
L 147.075296 167.290931 
L 148.303124 167.290931 
L 148.303124 163.458535 
L 148.449932 163.458535 
L 148.449932 159.626139 
L 149.313447 159.626139 
L 149.377502 151.961347 
L 149.551482 151.961347 
L 149.551482 148.12895 
L 150.463055 148.12895 
L 150.463055 144.296554 
L 151.417521 144.296554 
L 151.417521 140.464158 
L 151.723839 140.464158 
L 151.723839 136.631762 
L 151.931779 136.631762 
L 151.931779 132.799366 
L 152.186155 132.799366 
L 152.186155 128.96697 
L 153.441802 128.96697 
L 153.441802 125.134574 
L 154.08567 125.134574 
L 154.08567 121.302178 
L 209.348508 121.302178 
L 209.348508 117.469782 
L 209.566117 117.469782 
L 209.566117 113.637386 
L 210.450753 113.637386 
L 210.450753 109.80499 
L 212.980482 109.80499 
L 212.980482 105.972594 
L 217.457902 105.972594 
L 217.481741 86.810614 
L 218.467148 86.810614 
L 218.467148 82.978218 
L 219.878805 82.978218 
L 219.878805 79.145822 
L 222.074377 79.145822 
L 222.141149 63.816238 
L 222.63641 63.816238 
L 222.63641 59.983842 
L 223.050893 59.983842 
L 223.050893 56.151446 
L 224.961402 56.151446 
L 224.961402 52.31905 
L 225.349864 52.31905 
L 225.360341 29.324673 
L 225.535413 29.324673 
L 225.535413 25.492277 
L 226.041796 25.492277 
L 226.041796 21.659881 
L 229.966449 21.659881 
L 229.966449 17.827485 
L 231.721601 17.827485 
L 231.721629 10.162693 
L 234.58475 10.162693 
L 234.58475 6.330297 
L 234.58475 6.330297 
L 460.8 6.330297 
L 460.8 6.330297 
" style="fill:none;stroke:#000000;stroke-linecap:square;stroke-width:1.5;"/>
   </g>
   <g id="patch_3">
    <path d="M 0 293.76 
L 0 3.456 
" style="fill:none;stroke:#000000;stroke-linecap:square;stroke-linejoin:miter;stroke-width:0.8;"/>
   </g>
   <g id="patch_4">
    <path d="M 460.8 293.76 
L 460.8 3.456 
" style="fill:none;stroke:#000000;stroke-linecap:square;stroke-linejoin:miter;stroke-width:0.8;"/>
   </g>
   <g id="patch_5">
    <path d="M 0 293.76 
L 460.8 293.76 
" style="fill:none;stroke:#000000;stroke-linecap:square;stroke-linejoin:miter;stroke-width:0.8;"/>
   </g>
   <g id="patch_6">
    <path d="M 0 3.456 
L 460.8 3.456 
" style="fill:none;stroke:#000000;stroke-linecap:square;stroke-linejoin:miter;stroke-width:0.8;"/>
   </g>
   <g id="text_6">
    <!-- {f1-f5}, 5-D -->
    <g transform="translate(331.334 287.95392)scale(0.2 -0.2)">
     <defs>
      <path d="M 3272 -594 
L 3272 -1044 
L 3078 -1044 
Q 2300 -1044 2036 -812 
Q 1772 -581 1772 109 
L 1772 856 
Q 1772 1328 1603 1509 
Q 1434 1691 991 1691 
L 800 1691 
L 800 2138 
L 991 2138 
Q 1438 2138 1605 2317 
Q 1772 2497 1772 2963 
L 1772 3713 
Q 1772 4403 2036 4633 
Q 2300 4863 3078 4863 
L 3272 4863 
L 3272 4416 
L 3059 4416 
Q 2619 4416 2484 4278 
Q 2350 4141 2350 3700 
L 2350 2925 
Q 2350 2434 2208 2212 
Q 2066 1991 1722 1913 
Q 2069 1828 2209 1606 
Q 2350 1384 2350 897 
L 2350 122 
Q 2350 -319 2484 -456 
Q 2619 -594 3059 -594 
L 3272 -594 
z
" id="DejaVuSans-7b" transform="scale(0.015625)"/>
      <path d="M 691 4666 
L 3169 4666 
L 3169 4134 
L 1269 4134 
L 1269 2991 
Q 1406 3038 1543 3061 
Q 1681 3084 1819 3084 
Q 2600 3084 3056 2656 
Q 3513 2228 3513 1497 
Q 3513 744 3044 326 
Q 2575 -91 1722 -91 
Q 1428 -91 1123 -41 
Q 819 9 494 109 
L 494 744 
Q 775 591 1075 516 
Q 1375 441 1709 441 
Q 2250 441 2565 725 
Q 2881 1009 2881 1497 
Q 2881 1984 2565 2268 
Q 2250 2553 1709 2553 
Q 1456 2553 1204 2497 
Q 953 2441 691 2322 
L 691 4666 
z
" id="DejaVuSans-35" transform="scale(0.015625)"/>
      <path d="M 800 -594 
L 1019 -594 
Q 1456 -594 1589 -459 
Q 1722 -325 1722 122 
L 1722 897 
Q 1722 1384 1862 1606 
Q 2003 1828 2350 1913 
Q 2003 1991 1862 2212 
Q 1722 2434 1722 2925 
L 1722 3700 
Q 1722 4144 1589 4280 
Q 1456 4416 1019 4416 
L 800 4416 
L 800 4863 
L 997 4863 
Q 1775 4863 2036 4633 
Q 2297 4403 2297 3713 
L 2297 2963 
Q 2297 2497 2465 2317 
Q 2634 2138 3078 2138 
L 3272 2138 
L 3272 1691 
L 3078 1691 
Q 2634 1691 2465 1509 
Q 2297 1328 2297 856 
L 2297 109 
Q 2297 -581 2036 -812 
Q 1775 -1044 997 -1044 
L 800 -1044 
L 800 -594 
z
" id="DejaVuSans-7d" transform="scale(0.015625)"/>
      <path d="M 750 794 
L 1409 794 
L 1409 256 
L 897 -744 
L 494 -744 
L 750 256 
L 750 794 
z
" id="DejaVuSans-2c" transform="scale(0.015625)"/>
     </defs>
     <use xlink:href="#DejaVuSans-7b"/>
     <use x="63.623047" xlink:href="#DejaVuSans-66"/>
     <use x="98.828125" xlink:href="#DejaVuSans-31"/>
     <use x="162.451172" xlink:href="#DejaVuSans-2d"/>
     <use x="198.535156" xlink:href="#DejaVuSans-66"/>
     <use x="233.740234" xlink:href="#DejaVuSans-35"/>
     <use x="297.363281" xlink:href="#DejaVuSans-7d"/>
     <use x="360.986328" xlink:href="#DejaVuSans-2c"/>
     <use x="392.773438" xlink:href="#DejaVuSans-20"/>
     <use x="424.560547" xlink:href="#DejaVuSans-35"/>
     <use x="488.183594" xlink:href="#DejaVuSans-2d"/>
     <use x="524.267578" xlink:href="#DejaVuSans-44"/>
    </g>
   </g>
   <g id="text_7">
    <!-- v2.4 -->
    <g style="fill:#808080;" transform="translate(219.489063 288.777272)scale(0.1 -0.1)">
     <defs>
      <path d="M 191 3500 
L 800 3500 
L 1894 563 
L 2988 3500 
L 3597 3500 
L 2284 0 
L 1503 0 
L 191 3500 
z
" id="DejaVuSans-76" transform="scale(0.015625)"/>
      <path d="M 1228 531 
L 3431 531 
L 3431 0 
L 469 0 
L 469 531 
Q 828 903 1448 1529 
Q 2069 2156 2228 2338 
Q 2531 2678 2651 2914 
Q 2772 3150 2772 3378 
Q 2772 3750 2511 3984 
Q 2250 4219 1831 4219 
Q 1534 4219 1204 4116 
Q 875 4013 500 3803 
L 500 4441 
Q 881 4594 1212 4672 
Q 1544 4750 1819 4750 
Q 2544 4750 2975 4387 
Q 3406 4025 3406 3419 
Q 3406 3131 3298 2873 
Q 3191 2616 2906 2266 
Q 2828 2175 2409 1742 
Q 1991 1309 1228 531 
z
" id="DejaVuSans-32" transform="scale(0.015625)"/>
      <path d="M 684 794 
L 1344 794 
L 1344 0 
L 684 0 
L 684 794 
z
" id="DejaVuSans-2e" transform="scale(0.015625)"/>
     </defs>
     <use xlink:href="#DejaVuSans-76"/>
     <use x="59.179688" xlink:href="#DejaVuSans-32"/>
     <use x="122.802734" xlink:href="#DejaVuSans-2e"/>
     <use x="154.589844" xlink:href="#DejaVuSans-34"/>
    </g>
   </g>
  </g>
 </g>
 <defs>
  <clipPath id="pd7824f0ff1">
   <rect height="290.304" width="460.8" x="0" y="3.456"/>
  </clipPath>
 </defs>
</svg>
