<?xml version="1.0" encoding="utf-8" standalone="no"?>
<!DOCTYPE svg PUBLIC "-//W3C//DTD SVG 1.1//EN"
  "http://www.w3.org/Graphics/SVG/1.1/DTD/svg11.dtd">
<svg height="345.6pt" version="1.1" viewBox="0 0 460.8 345.6" width="460.8pt" xmlns="http://www.w3.org/2000/svg" xmlns:xlink="http://www.w3.org/1999/xlink">
 <metadata>
  <rdf:RDF xmlns:cc="http://creativecommons.org/ns#" xmlns:dc="http://purl.org/dc/elements/1.1/" xmlns:rdf="http://www.w3.org/1999/02/22-rdf-syntax-ns#">
   <cc:Work>
    <dc:type rdf:resource="http://purl.org/dc/dcmitype/StillImage"/>
    <dc:date>2021-07-27T16:03:39.647802</dc:date>
    <dc:format>image/svg+xml</dc:format>
    <dc:creator>
     <cc:Agent>
      <dc:title>Matplotlib v3.4.2, https://matplotlib.org/</dc:title>
     </cc:Agent>
    </dc:creator>
   </cc:Work>
  </rdf:RDF>
 </metadata>
 <defs>
  <style type="text/css">*{stroke-linecap:butt;stroke-linejoin:round;}</style>
 </defs>
 <g id="figure_1">
  <g id="patch_1">
   <path d="M 0 345.6 
L 460.8 345.6 
L 460.8 0 
L 0 0 
z
" style="fill:#ffffff;"/>
  </g>
  <g id="axes_1">
   <g id="patch_2">
    <path d="M 0 293.76 
L 460.8 293.76 
L 460.8 3.456 
L 0 3.456 
z
" style="fill:#ffffff;"/>
   </g>
   <g id="matplotlib.axis_1">
    <g id="xtick_1">
     <g id="line2d_1">
      <path clip-path="url(#pd0c95f7ac1)" d="M 102.609626 293.76 
L 102.609626 3.456 
" style="fill:none;stroke:#b0b0b0;stroke-linecap:square;stroke-width:0.8;"/>
     </g>
     <g id="line2d_2">
      <defs>
       <path d="M 0 0 
L 0 3.5 
" id="me3461f3b6a" style="stroke:#000000;stroke-width:0.8;"/>
      </defs>
      <g>
       <use style="stroke:#000000;stroke-width:0.8;" x="102.609626" xlink:href="#me3461f3b6a" y="293.76"/>
      </g>
     </g>
     <g id="text_1">
      <!-- -4 -->
      <g transform="translate(92.639313 315.956875)scale(0.2 -0.2)">
       <defs>
        <path d="M 313 2009 
L 1997 2009 
L 1997 1497 
L 313 1497 
L 313 2009 
z
" id="DejaVuSans-2d" transform="scale(0.015625)"/>
        <path d="M 2419 4116 
L 825 1625 
L 2419 1625 
L 2419 4116 
z
M 2253 4666 
L 3047 4666 
L 3047 1625 
L 3713 1625 
L 3713 1100 
L 3047 1100 
L 3047 0 
L 2419 0 
L 2419 1100 
L 313 1100 
L 313 1709 
L 2253 4666 
z
" id="DejaVuSans-34" transform="scale(0.015625)"/>
       </defs>
       <use xlink:href="#DejaVuSans-2d"/>
       <use x="36.083984" xlink:href="#DejaVuSans-34"/>
      </g>
     </g>
    </g>
    <g id="xtick_2">
     <g id="line2d_3">
      <path clip-path="url(#pd0c95f7ac1)" d="M 205.330225 293.76 
L 205.330225 3.456 
" style="fill:none;stroke:#b0b0b0;stroke-linecap:square;stroke-width:0.8;"/>
     </g>
     <g id="line2d_4">
      <g>
       <use style="stroke:#000000;stroke-width:0.8;" x="205.330225" xlink:href="#me3461f3b6a" y="293.76"/>
      </g>
     </g>
     <g id="text_2">
      <!-- 0 -->
      <g transform="translate(198.967725 315.956875)scale(0.2 -0.2)">
       <defs>
        <path d="M 2034 4250 
Q 1547 4250 1301 3770 
Q 1056 3291 1056 2328 
Q 1056 1369 1301 889 
Q 1547 409 2034 409 
Q 2525 409 2770 889 
Q 3016 1369 3016 2328 
Q 3016 3291 2770 3770 
Q 2525 4250 2034 4250 
z
M 2034 4750 
Q 2819 4750 3233 4129 
Q 3647 3509 3647 2328 
Q 3647 1150 3233 529 
Q 2819 -91 2034 -91 
Q 1250 -91 836 529 
Q 422 1150 422 2328 
Q 422 3509 836 4129 
Q 1250 4750 2034 4750 
z
" id="DejaVuSans-30" transform="scale(0.015625)"/>
       </defs>
       <use xlink:href="#DejaVuSans-30"/>
      </g>
     </g>
    </g>
    <g id="xtick_3">
     <g id="line2d_5">
      <path clip-path="url(#pd0c95f7ac1)" d="M 308.050825 293.76 
L 308.050825 3.456 
" style="fill:none;stroke:#b0b0b0;stroke-linecap:square;stroke-width:0.8;"/>
     </g>
     <g id="line2d_6">
      <g>
       <use style="stroke:#000000;stroke-width:0.8;" x="308.050825" xlink:href="#me3461f3b6a" y="293.76"/>
      </g>
     </g>
     <g id="text_3">
      <!-- 4 -->
      <g transform="translate(301.688325 315.956875)scale(0.2 -0.2)">
       <use xlink:href="#DejaVuSans-34"/>
      </g>
     </g>
    </g>
    <g id="xtick_4">
     <g id="line2d_7">
      <path clip-path="url(#pd0c95f7ac1)" d="M 410.771424 293.76 
L 410.771424 3.456 
" style="fill:none;stroke:#b0b0b0;stroke-linecap:square;stroke-width:0.8;"/>
     </g>
     <g id="line2d_8">
      <g>
       <use style="stroke:#000000;stroke-width:0.8;" x="410.771424" xlink:href="#me3461f3b6a" y="293.76"/>
      </g>
     </g>
     <g id="text_4">
      <!-- 8 -->
      <g transform="translate(404.408924 315.956875)scale(0.2 -0.2)">
       <defs>
        <path d="M 2034 2216 
Q 1584 2216 1326 1975 
Q 1069 1734 1069 1313 
Q 1069 891 1326 650 
Q 1584 409 2034 409 
Q 2484 409 2743 651 
Q 3003 894 3003 1313 
Q 3003 1734 2745 1975 
Q 2488 2216 2034 2216 
z
M 1403 2484 
Q 997 2584 770 2862 
Q 544 3141 544 3541 
Q 544 4100 942 4425 
Q 1341 4750 2034 4750 
Q 2731 4750 3128 4425 
Q 3525 4100 3525 3541 
Q 3525 3141 3298 2862 
Q 3072 2584 2669 2484 
Q 3125 2378 3379 2068 
Q 3634 1759 3634 1313 
Q 3634 634 3220 271 
Q 2806 -91 2034 -91 
Q 1263 -91 848 271 
Q 434 634 434 1313 
Q 434 1759 690 2068 
Q 947 2378 1403 2484 
z
M 1172 3481 
Q 1172 3119 1398 2916 
Q 1625 2713 2034 2713 
Q 2441 2713 2670 2916 
Q 2900 3119 2900 3481 
Q 2900 3844 2670 4047 
Q 2441 4250 2034 4250 
Q 1625 4250 1398 4047 
Q 1172 3844 1172 3481 
z
" id="DejaVuSans-38" transform="scale(0.015625)"/>
       </defs>
       <use xlink:href="#DejaVuSans-38"/>
      </g>
     </g>
    </g>
    <g id="text_5">
     <!-- log10 of Df -->
     <g transform="translate(175.214063 339.313125)scale(0.2 -0.2)">
      <defs>
       <path d="M 603 4863 
L 1178 4863 
L 1178 0 
L 603 0 
L 603 4863 
z
" id="DejaVuSans-6c" transform="scale(0.015625)"/>
       <path d="M 1959 3097 
Q 1497 3097 1228 2736 
Q 959 2375 959 1747 
Q 959 1119 1226 758 
Q 1494 397 1959 397 
Q 2419 397 2687 759 
Q 2956 1122 2956 1747 
Q 2956 2369 2687 2733 
Q 2419 3097 1959 3097 
z
M 1959 3584 
Q 2709 3584 3137 3096 
Q 3566 2609 3566 1747 
Q 3566 888 3137 398 
Q 2709 -91 1959 -91 
Q 1206 -91 779 398 
Q 353 888 353 1747 
Q 353 2609 779 3096 
Q 1206 3584 1959 3584 
z
" id="DejaVuSans-6f" transform="scale(0.015625)"/>
       <path d="M 2906 1791 
Q 2906 2416 2648 2759 
Q 2391 3103 1925 3103 
Q 1463 3103 1205 2759 
Q 947 2416 947 1791 
Q 947 1169 1205 825 
Q 1463 481 1925 481 
Q 2391 481 2648 825 
Q 2906 1169 2906 1791 
z
M 3481 434 
Q 3481 -459 3084 -895 
Q 2688 -1331 1869 -1331 
Q 1566 -1331 1297 -1286 
Q 1028 -1241 775 -1147 
L 775 -588 
Q 1028 -725 1275 -790 
Q 1522 -856 1778 -856 
Q 2344 -856 2625 -561 
Q 2906 -266 2906 331 
L 2906 616 
Q 2728 306 2450 153 
Q 2172 0 1784 0 
Q 1141 0 747 490 
Q 353 981 353 1791 
Q 353 2603 747 3093 
Q 1141 3584 1784 3584 
Q 2172 3584 2450 3431 
Q 2728 3278 2906 2969 
L 2906 3500 
L 3481 3500 
L 3481 434 
z
" id="DejaVuSans-67" transform="scale(0.015625)"/>
       <path d="M 794 531 
L 1825 531 
L 1825 4091 
L 703 3866 
L 703 4441 
L 1819 4666 
L 2450 4666 
L 2450 531 
L 3481 531 
L 3481 0 
L 794 0 
L 794 531 
z
" id="DejaVuSans-31" transform="scale(0.015625)"/>
       <path id="DejaVuSans-20" transform="scale(0.015625)"/>
       <path d="M 2375 4863 
L 2375 4384 
L 1825 4384 
Q 1516 4384 1395 4259 
Q 1275 4134 1275 3809 
L 1275 3500 
L 2222 3500 
L 2222 3053 
L 1275 3053 
L 1275 0 
L 697 0 
L 697 3053 
L 147 3053 
L 147 3500 
L 697 3500 
L 697 3744 
Q 697 4328 969 4595 
Q 1241 4863 1831 4863 
L 2375 4863 
z
" id="DejaVuSans-66" transform="scale(0.015625)"/>
       <path d="M 1259 4147 
L 1259 519 
L 2022 519 
Q 2988 519 3436 956 
Q 3884 1394 3884 2338 
Q 3884 3275 3436 3711 
Q 2988 4147 2022 4147 
L 1259 4147 
z
M 628 4666 
L 1925 4666 
Q 3281 4666 3915 4102 
Q 4550 3538 4550 2338 
Q 4550 1131 3912 565 
Q 3275 0 1925 0 
L 628 0 
L 628 4666 
z
" id="DejaVuSans-44" transform="scale(0.015625)"/>
      </defs>
      <use xlink:href="#DejaVuSans-6c"/>
      <use x="27.783203" xlink:href="#DejaVuSans-6f"/>
      <use x="88.964844" xlink:href="#DejaVuSans-67"/>
      <use x="152.441406" xlink:href="#DejaVuSans-31"/>
      <use x="216.064453" xlink:href="#DejaVuSans-30"/>
      <use x="279.6875" xlink:href="#DejaVuSans-20"/>
      <use x="311.474609" xlink:href="#DejaVuSans-6f"/>
      <use x="372.65625" xlink:href="#DejaVuSans-66"/>
      <use x="407.861328" xlink:href="#DejaVuSans-20"/>
      <use x="439.648438" xlink:href="#DejaVuSans-44"/>
      <use x="516.650391" xlink:href="#DejaVuSans-66"/>
     </g>
    </g>
   </g>
   <g id="matplotlib.axis_2">
    <g id="ytick_1">
     <g id="line2d_9">
      <path clip-path="url(#pd0c95f7ac1)" d="M 0 293.76 
L 460.8 293.76 
" style="fill:none;stroke:#b0b0b0;stroke-linecap:square;stroke-width:0.8;"/>
     </g>
     <g id="line2d_10">
      <defs>
       <path d="M 0 0 
L -3.5 0 
" id="mfd3477a48d" style="stroke:#000000;stroke-width:0.8;"/>
      </defs>
      <g>
       <use style="stroke:#000000;stroke-width:0.8;" x="0" xlink:href="#mfd3477a48d" y="293.76"/>
      </g>
     </g>
    </g>
    <g id="ytick_2">
     <g id="line2d_11">
      <path clip-path="url(#pd0c95f7ac1)" d="M 0 236.274059 
L 460.8 236.274059 
" style="fill:none;stroke:#b0b0b0;stroke-linecap:square;stroke-width:0.8;"/>
     </g>
     <g id="line2d_12">
      <g>
       <use style="stroke:#000000;stroke-width:0.8;" x="0" xlink:href="#mfd3477a48d" y="236.274059"/>
      </g>
     </g>
    </g>
    <g id="ytick_3">
     <g id="line2d_13">
      <path clip-path="url(#pd0c95f7ac1)" d="M 0 178.788119 
L 460.8 178.788119 
" style="fill:none;stroke:#b0b0b0;stroke-linecap:square;stroke-width:0.8;"/>
     </g>
     <g id="line2d_14">
      <g>
       <use style="stroke:#000000;stroke-width:0.8;" x="0" xlink:href="#mfd3477a48d" y="178.788119"/>
      </g>
     </g>
    </g>
    <g id="ytick_4">
     <g id="line2d_15">
      <path clip-path="url(#pd0c95f7ac1)" d="M 0 121.302178 
L 460.8 121.302178 
" style="fill:none;stroke:#b0b0b0;stroke-linecap:square;stroke-width:0.8;"/>
     </g>
     <g id="line2d_16">
      <g>
       <use style="stroke:#000000;stroke-width:0.8;" x="0" xlink:href="#mfd3477a48d" y="121.302178"/>
      </g>
     </g>
    </g>
    <g id="ytick_5">
     <g id="line2d_17">
      <path clip-path="url(#pd0c95f7ac1)" d="M 0 63.816238 
L 460.8 63.816238 
" style="fill:none;stroke:#b0b0b0;stroke-linecap:square;stroke-width:0.8;"/>
     </g>
     <g id="line2d_18">
      <g>
       <use style="stroke:#000000;stroke-width:0.8;" x="0" xlink:href="#mfd3477a48d" y="63.816238"/>
      </g>
     </g>
    </g>
    <g id="ytick_6">
     <g id="line2d_19">
      <path clip-path="url(#pd0c95f7ac1)" d="M 0 6.330297 
L 460.8 6.330297 
" style="fill:none;stroke:#b0b0b0;stroke-linecap:square;stroke-width:0.8;"/>
     </g>
     <g id="line2d_20">
      <g>
       <use style="stroke:#000000;stroke-width:0.8;" x="0" xlink:href="#mfd3477a48d" y="6.330297"/>
      </g>
     </g>
    </g>
   </g>
   <g id="line2d_21">
    <path clip-path="url(#pd0c95f7ac1)" d="M -1 25.492277 
L 192.111152 25.492277 
L 192.111152 20.701782 
L 202.954787 20.701782 
L 202.954787 15.911287 
L 203.524279 15.911287 
L 203.524279 11.120792 
L 203.961234 11.120792 
L 203.961234 6.330297 
L 203.961234 6.330297 
L 203.961234 6.330297 
L 460.8 6.330297 
" style="fill:none;stroke:#ff0000;stroke-linecap:square;stroke-width:3;"/>
   </g>
   <g id="line2d_22">
    <path clip-path="url(#pd0c95f7ac1)" d="M 274.41302 293.76 
L 274.41302 288.969505 
L 274.503514 288.969505 
L 274.503514 284.17901 
L 276.201822 284.17901 
L 276.201822 279.388515 
L 276.615956 279.388515 
L 276.615956 274.59802 
L 279.149267 274.59802 
L 279.149267 269.807525 
L 279.537523 269.807525 
L 279.537523 265.01703 
L 279.929437 265.01703 
L 279.929437 260.226535 
L 280.581079 260.226535 
L 280.581079 255.43604 
L 280.778635 255.43604 
L 280.778635 250.645545 
L 282.06698 250.645545 
L 282.06698 245.85505 
L 282.571258 245.85505 
L 282.571258 241.064554 
L 285.514472 241.064554 
L 285.514472 236.274059 
L 285.607544 236.274059 
L 285.607544 231.483564 
L 288.00335 231.483564 
L 288.00335 226.693069 
L 289.989924 226.693069 
L 289.989924 221.902574 
L 302.353556 221.902574 
L 302.353556 217.112079 
L 303.770796 217.112079 
L 303.770796 212.321584 
L 304.094017 212.321584 
L 304.094017 207.531089 
L 307.668386 207.531089 
L 307.668386 202.740594 
L 309.908134 202.740594 
L 309.908134 197.950099 
L 310.051246 197.950099 
L 310.051246 193.159604 
L 310.386937 193.159604 
L 310.386937 188.369109 
L 311.339151 188.369109 
L 311.339151 183.578614 
L 314.115889 183.578614 
L 314.115889 178.788119 
L 314.430855 178.788119 
L 314.430855 173.997624 
L 314.810978 173.997624 
L 314.810978 169.207129 
L 315.132039 169.207129 
L 315.132039 164.416634 
L 315.947475 164.416634 
L 315.947475 159.626139 
L 318.24755 159.626139 
L 318.24755 154.835644 
L 320.894287 154.835644 
L 320.894287 150.045149 
L 321.154671 150.045149 
L 321.154671 145.254653 
L 322.708903 145.254653 
L 322.708903 140.464158 
L 325.233741 140.464158 
L 325.233741 135.673663 
L 325.661109 135.673663 
L 325.661109 130.883168 
L 325.746549 130.883168 
L 325.746549 126.092673 
L 329.464515 126.092673 
L 329.464515 121.302178 
L 330.23998 121.302178 
L 330.23998 116.511683 
L 332.02232 116.511683 
L 332.02232 111.721188 
L 333.770377 111.721188 
L 333.770377 106.930693 
L 334.300671 106.930693 
L 334.300671 102.140198 
L 335.209005 102.140198 
L 335.209005 97.349703 
L 335.473658 97.349703 
L 335.473658 92.559208 
L 336.468222 92.559208 
L 336.468222 87.768713 
L 336.704882 87.768713 
L 336.704882 82.978218 
L 336.739418 82.978218 
L 336.739418 78.187723 
L 338.019965 78.187723 
L 338.019965 73.397228 
L 339.071556 73.397228 
L 339.071556 68.606733 
L 341.35802 68.606733 
L 341.35802 63.816238 
L 341.52479 63.816238 
L 341.52479 59.025743 
L 343.105858 59.025743 
L 343.105858 54.235248 
L 346.219286 54.235248 
L 346.219286 49.444752 
L 346.317682 49.444752 
L 346.317682 44.654257 
L 346.581007 44.654257 
L 346.581007 39.863762 
L 348.243046 39.863762 
L 348.243046 35.073267 
L 352.627475 35.073267 
L 352.627475 30.282772 
L 353.482077 30.282772 
L 353.482077 25.492277 
L 353.505686 25.492277 
L 353.505686 20.701782 
L 353.591888 20.701782 
L 353.591888 15.911287 
L 353.609007 15.911287 
L 353.609007 11.120792 
L 353.891488 11.120792 
L 353.891488 6.330297 
L 353.891488 6.330297 
L 353.891488 6.330297 
L 460.8 6.330297 
" style="fill:none;stroke:#00bfbf;stroke-linecap:square;stroke-width:1.5;"/>
   </g>
   <g id="line2d_23">
    <path clip-path="url(#pd0c95f7ac1)" d="M 270.309493 293.76 
L 270.309493 288.969505 
L 271.638903 288.969505 
L 271.638903 284.17901 
L 274.41302 284.17901 
L 274.41302 279.388515 
L 274.503514 279.388515 
L 274.503514 274.59802 
L 276.615956 274.59802 
L 276.615956 269.807525 
L 276.891345 269.807525 
L 276.891345 265.01703 
L 279.417188 265.01703 
L 279.417188 260.226535 
L 279.537523 260.226535 
L 279.537523 255.43604 
L 279.657514 255.43604 
L 279.657514 250.645545 
L 279.757606 250.645545 
L 279.757606 245.85505 
L 280.778635 245.85505 
L 280.778635 241.064554 
L 281.715992 241.064554 
L 281.715992 236.274059 
L 285.514472 236.274059 
L 285.514472 231.483564 
L 286.202554 231.483564 
L 286.202554 226.693069 
L 289.989924 226.693069 
L 289.989924 221.902574 
L 301.508 221.902574 
L 301.508 217.112079 
L 302.353556 217.112079 
L 302.353556 212.321584 
L 303.543679 212.321584 
L 303.543679 207.531089 
L 303.770796 207.531089 
L 303.770796 202.740594 
L 304.094017 202.740594 
L 304.094017 197.950099 
L 306.365694 197.950099 
L 306.365694 193.159604 
L 307.668386 193.159604 
L 307.668386 188.369109 
L 308.770753 188.369109 
L 308.770753 183.578614 
L 309.908134 183.578614 
L 309.908134 178.788119 
L 310.386937 178.788119 
L 310.386937 173.997624 
L 311.19482 173.997624 
L 311.19482 169.207129 
L 312.496109 169.207129 
L 312.496109 164.416634 
L 314.115889 164.416634 
L 314.115889 159.626139 
L 314.430855 159.626139 
L 314.430855 154.835644 
L 315.947475 154.835644 
L 315.947475 150.045149 
L 317.219829 150.045149 
L 317.219829 145.254653 
L 320.296673 145.254653 
L 320.296673 140.464158 
L 320.894287 140.464158 
L 320.894287 135.673663 
L 322.433837 135.673663 
L 322.433837 130.883168 
L 324.987776 130.883168 
L 324.987776 126.092673 
L 325.661109 126.092673 
L 325.661109 121.302178 
L 329.238688 121.302178 
L 329.238688 116.511683 
L 329.464515 116.511683 
L 329.464515 111.721188 
L 330.182329 111.721188 
L 330.182329 106.930693 
L 330.23998 106.930693 
L 330.23998 102.140198 
L 330.827566 102.140198 
L 330.827566 97.349703 
L 331.551767 97.349703 
L 331.551767 92.559208 
L 333.770377 92.559208 
L 333.770377 87.768713 
L 333.770552 87.768713 
L 333.770552 82.978218 
L 335.57646 82.978218 
L 335.57646 78.187723 
L 336.537883 78.187723 
L 336.537883 73.397228 
L 336.704882 73.397228 
L 336.704882 68.606733 
L 336.739418 68.606733 
L 336.739418 63.816238 
L 341.52479 63.816238 
L 341.52479 59.025743 
L 342.179481 59.025743 
L 342.179481 54.235248 
L 343.105858 54.235248 
L 343.105858 49.444752 
L 346.210218 49.444752 
L 346.210218 44.654257 
L 346.299375 44.654257 
L 346.299375 39.863762 
L 346.848543 39.863762 
L 346.848543 35.073267 
L 347.853627 35.073267 
L 347.853627 30.282772 
L 352.627475 30.282772 
L 352.627475 25.492277 
L 352.647791 25.492277 
L 352.647791 20.701782 
L 353.221527 20.701782 
L 353.221527 15.911287 
L 353.591888 15.911287 
L 353.591888 11.120792 
L 353.891488 11.120792 
L 353.891488 6.330297 
L 353.891488 6.330297 
L 353.891488 6.330297 
L 460.8 6.330297 
" style="fill:none;stroke:#bf00bf;stroke-linecap:square;stroke-width:1.5;"/>
   </g>
   <g id="line2d_24">
    <path clip-path="url(#pd0c95f7ac1)" d="M 267.926709 293.76 
L 267.926709 288.969505 
L 269.519458 288.969505 
L 269.519458 284.17901 
L 269.92073 284.17901 
L 269.92073 279.388515 
L 270.309493 279.388515 
L 270.309493 274.59802 
L 271.638903 274.59802 
L 271.638903 269.807525 
L 274.271796 269.807525 
L 274.271796 265.01703 
L 274.41302 265.01703 
L 274.41302 260.226535 
L 275.792893 260.226535 
L 275.792893 255.43604 
L 277.901218 255.43604 
L 277.901218 250.645545 
L 278.343565 250.645545 
L 278.343565 245.85505 
L 279.417188 245.85505 
L 279.417188 241.064554 
L 279.537523 241.064554 
L 279.537523 236.274059 
L 285.514472 236.274059 
L 285.514472 231.483564 
L 286.021392 231.483564 
L 286.021392 226.693069 
L 286.202554 226.693069 
L 286.202554 221.902574 
L 297.963556 221.902574 
L 297.963556 217.112079 
L 299.144655 217.112079 
L 299.144655 212.321584 
L 301.508 212.321584 
L 301.508 207.531089 
L 302.353556 207.531089 
L 302.353556 202.740594 
L 303.543679 202.740594 
L 303.543679 197.950099 
L 303.770796 197.950099 
L 303.770796 193.159604 
L 304.007543 193.159604 
L 304.007543 188.369109 
L 305.694269 188.369109 
L 305.694269 183.578614 
L 306.365694 183.578614 
L 306.365694 178.788119 
L 307.589367 178.788119 
L 307.589367 173.997624 
L 307.668386 173.997624 
L 307.668386 169.207129 
L 308.06973 169.207129 
L 308.06973 164.416634 
L 308.770753 164.416634 
L 308.770753 159.626139 
L 311.086822 159.626139 
L 311.086822 154.835644 
L 311.090753 154.835644 
L 311.090753 150.045149 
L 315.947475 150.045149 
L 315.947475 145.254653 
L 316.547195 145.254653 
L 316.547195 140.464158 
L 320.073897 140.464158 
L 320.073897 135.673663 
L 320.894287 135.673663 
L 320.894287 130.883168 
L 322.01636 130.883168 
L 322.01636 126.092673 
L 322.433837 126.092673 
L 322.433837 121.302178 
L 322.696442 121.302178 
L 322.696442 116.511683 
L 322.804928 116.511683 
L 322.804928 111.721188 
L 324.422112 111.721188 
L 324.422112 106.930693 
L 324.745217 106.930693 
L 324.745217 102.140198 
L 324.987776 102.140198 
L 324.987776 97.349703 
L 326.591105 97.349703 
L 326.591105 92.559208 
L 327.150059 92.559208 
L 327.150059 87.768713 
L 327.613918 87.768713 
L 327.613918 82.978218 
L 328.37162 82.978218 
L 328.37162 78.187723 
L 328.403859 78.187723 
L 328.403859 73.397228 
L 334.809476 73.397228 
L 334.809476 68.606733 
L 335.15857 68.606733 
L 335.15857 63.816238 
L 340.6569 63.816238 
L 340.6569 59.025743 
L 341.52479 59.025743 
L 341.52479 54.235248 
L 343.105858 54.235248 
L 343.105858 49.444752 
L 343.975493 49.444752 
L 343.975493 44.654257 
L 344.051202 44.654257 
L 344.051202 39.863762 
L 346.805613 39.863762 
L 346.805613 35.073267 
L 346.945744 35.073267 
L 346.945744 30.282772 
L 347.853627 30.282772 
L 347.853627 25.492277 
L 350.342595 25.492277 
L 350.342595 20.701782 
L 350.883405 20.701782 
L 350.883405 15.911287 
L 352.647791 15.911287 
L 352.647791 11.120792 
L 353.891488 11.120792 
L 353.891488 6.330297 
L 353.891488 6.330297 
L 353.891488 6.330297 
L 460.8 6.330297 
" style="fill:none;stroke:#000000;stroke-linecap:square;stroke-width:1.5;"/>
   </g>
   <g id="line2d_25">
    <path clip-path="url(#pd0c95f7ac1)" d="M 264.340052 293.76 
L 264.340052 288.969505 
L 264.577412 288.969505 
L 264.577412 284.17901 
L 265.59124 284.17901 
L 265.59124 279.388515 
L 267.197854 279.388515 
L 267.197854 274.59802 
L 267.230627 274.59802 
L 267.230627 269.807525 
L 267.650156 269.807525 
L 267.650156 265.01703 
L 267.811978 265.01703 
L 267.811978 260.226535 
L 267.926709 260.226535 
L 267.926709 255.43604 
L 268.641512 255.43604 
L 268.641512 250.645545 
L 272.747318 250.645545 
L 272.747318 245.85505 
L 274.809462 245.85505 
L 274.809462 241.064554 
L 274.932884 241.064554 
L 274.932884 236.274059 
L 275.549274 236.274059 
L 275.549274 231.483564 
L 277.629097 231.483564 
L 277.629097 226.693069 
L 280.780387 226.693069 
L 280.780387 221.902574 
L 290.818584 221.902574 
L 290.818584 217.112079 
L 291.002471 217.112079 
L 291.002471 212.321584 
L 294.116695 212.321584 
L 294.116695 207.531089 
L 294.572463 207.531089 
L 294.572463 202.740594 
L 295.16076 202.740594 
L 295.16076 197.950099 
L 295.215873 197.950099 
L 295.215873 193.159604 
L 296.268637 193.159604 
L 296.268637 188.369109 
L 297.963556 188.369109 
L 297.963556 183.578614 
L 298.562894 183.578614 
L 298.562894 178.788119 
L 298.633338 178.788119 
L 298.633338 173.997624 
L 298.904913 173.997624 
L 298.904913 169.207129 
L 300.016305 169.207129 
L 300.016305 164.416634 
L 300.100123 164.416634 
L 300.100123 159.626139 
L 300.502599 159.626139 
L 300.502599 154.835644 
L 301.177427 154.835644 
L 301.177427 150.045149 
L 301.685305 150.045149 
L 301.685305 145.254653 
L 314.859851 145.254653 
L 314.859851 140.464158 
L 314.864643 140.464158 
L 314.864643 135.673663 
L 314.98152 135.673663 
L 314.98152 130.883168 
L 315.153893 130.883168 
L 315.153893 126.092673 
L 315.385373 126.092673 
L 315.385373 121.302178 
L 315.627001 121.302178 
L 315.627001 116.511683 
L 317.295199 116.511683 
L 317.295199 111.721188 
L 320.738358 111.721188 
L 320.738358 106.930693 
L 321.878122 106.930693 
L 321.878122 102.140198 
L 322.341631 102.140198 
L 322.341631 97.349703 
L 322.669607 97.349703 
L 322.669607 92.559208 
L 322.696442 92.559208 
L 322.696442 87.768713 
L 322.946878 87.768713 
L 322.946878 82.978218 
L 323.156995 82.978218 
L 323.156995 78.187723 
L 323.537534 78.187723 
L 323.537534 73.397228 
L 324.987776 73.397228 
L 324.987776 68.606733 
L 325.143108 68.606733 
L 325.143108 63.816238 
L 330.25461 63.816238 
L 330.25461 59.025743 
L 332.732147 59.025743 
L 332.732147 54.235248 
L 332.737853 54.235248 
L 332.737853 49.444752 
L 333.071188 49.444752 
L 333.071188 44.654257 
L 335.569124 44.654257 
L 335.569124 39.863762 
L 337.829014 39.863762 
L 337.829014 35.073267 
L 345.840585 35.073267 
L 345.840585 30.282772 
L 346.698658 30.282772 
L 346.698658 25.492277 
L 346.945744 25.492277 
L 346.945744 20.701782 
L 347.543095 20.701782 
L 347.543095 15.911287 
L 347.550503 15.911287 
L 347.550503 11.120792 
L 348.389395 11.120792 
L 348.389395 6.330297 
L 348.389395 6.330297 
L 348.389395 6.330297 
L 460.8 6.330297 
" style="fill:none;stroke:#00bfbf;stroke-linecap:square;stroke-width:1.5;"/>
   </g>
   <g id="line2d_26">
    <path clip-path="url(#pd0c95f7ac1)" d="M 237.151034 293.76 
L 237.151034 288.969505 
L 241.801671 288.969505 
L 241.801671 284.17901 
L 241.867864 284.17901 
L 241.867864 279.388515 
L 242.792177 279.388515 
L 242.792177 274.59802 
L 243.224224 274.59802 
L 243.224224 269.807525 
L 244.200874 269.807525 
L 244.200874 265.01703 
L 244.917497 265.01703 
L 244.917497 260.226535 
L 245.569941 260.226535 
L 245.569941 255.43604 
L 246.926853 255.43604 
L 246.926853 250.645545 
L 247.07654 250.645545 
L 247.07654 245.85505 
L 247.274166 245.85505 
L 247.274166 241.064554 
L 247.331798 241.064554 
L 247.331798 236.274059 
L 247.618743 236.274059 
L 247.618743 231.483564 
L 247.638038 231.483564 
L 247.638038 226.693069 
L 249.446232 226.693069 
L 249.446232 221.902574 
L 253.963721 221.902574 
L 253.963721 217.112079 
L 254.104814 217.112079 
L 254.104814 212.321584 
L 256.115018 212.321584 
L 256.115018 207.531089 
L 256.556429 207.531089 
L 256.556429 202.740594 
L 257.348599 202.740594 
L 257.348599 197.950099 
L 257.752699 197.950099 
L 257.752699 193.159604 
L 258.091452 193.159604 
L 258.091452 188.369109 
L 258.860486 188.369109 
L 258.860486 183.578614 
L 259.138862 183.578614 
L 259.138862 178.788119 
L 259.269286 178.788119 
L 259.269286 173.997624 
L 259.438945 173.997624 
L 259.438945 169.207129 
L 259.456204 169.207129 
L 259.456204 164.416634 
L 259.513267 164.416634 
L 259.513267 159.626139 
L 259.70307 159.626139 
L 259.70307 154.835644 
L 260.33369 154.835644 
L 260.33369 150.045149 
L 260.738082 150.045149 
L 260.738082 145.254653 
L 260.898159 145.254653 
L 260.898159 140.464158 
L 261.212136 140.464158 
L 261.212136 135.673663 
L 262.919253 135.673663 
L 262.919253 130.883168 
L 263.668194 130.883168 
L 263.668194 126.092673 
L 264.425481 126.092673 
L 264.425481 121.302178 
L 264.973973 121.302178 
L 264.973973 116.511683 
L 265.217633 116.511683 
L 265.217633 111.721188 
L 265.410977 111.721188 
L 265.410977 106.930693 
L 265.576252 106.930693 
L 265.576252 102.140198 
L 269.457087 102.140198 
L 269.457087 97.349703 
L 274.038243 97.349703 
L 274.038243 92.559208 
L 274.638353 92.559208 
L 274.638353 87.768713 
L 274.718845 87.768713 
L 274.718845 82.978218 
L 275.310796 82.978218 
L 275.310796 78.187723 
L 276.148808 78.187723 
L 276.148808 73.397228 
L 276.192176 73.397228 
L 276.192176 68.606733 
L 276.462548 68.606733 
L 276.462548 63.816238 
L 277.643371 63.816238 
L 277.643371 59.025743 
L 278.099343 59.025743 
L 278.099343 54.235248 
L 278.287808 54.235248 
L 278.287808 49.444752 
L 278.314413 49.444752 
L 278.314413 44.654257 
L 278.495671 44.654257 
L 278.495671 39.863762 
L 278.807996 39.863762 
L 278.807996 35.073267 
L 279.886735 35.073267 
L 279.886735 30.282772 
L 284.075484 30.282772 
L 284.075484 25.492277 
L 296.576496 25.492277 
L 296.576496 20.701782 
L 297.137605 20.701782 
L 297.137605 15.911287 
L 299.811841 15.911287 
L 299.811841 11.120792 
L 303.746481 11.120792 
L 303.746481 6.330297 
L 303.746481 6.330297 
L 303.746481 6.330297 
L 460.8 6.330297 
" style="fill:none;stroke:#bf00bf;stroke-linecap:square;stroke-width:1.5;"/>
   </g>
   <g id="line2d_27">
    <path clip-path="url(#pd0c95f7ac1)" d="M -1 241.064554 
L 128.521224 241.064554 
L 128.521224 236.274059 
L 133.286951 236.274059 
L 133.286951 231.483564 
L 135.531277 231.483564 
L 135.531277 226.693069 
L 138.422607 226.693069 
L 138.422607 221.902574 
L 138.588479 221.902574 
L 138.588479 217.112079 
L 141.537325 217.112079 
L 141.537325 212.321584 
L 141.579046 212.321584 
L 141.579046 207.531089 
L 145.446464 207.531089 
L 145.446464 202.740594 
L 146.597049 202.740594 
L 146.597049 197.950099 
L 148.819174 197.950099 
L 148.819174 193.159604 
L 152.142271 193.159604 
L 152.142271 188.369109 
L 152.322431 188.369109 
L 152.322431 183.578614 
L 153.151991 183.578614 
L 153.151991 178.788119 
L 157.495289 178.788119 
L 157.495289 173.997624 
L 161.745052 173.997624 
L 161.745052 169.207129 
L 192.111152 169.207129 
L 192.111152 164.416634 
L 202.954787 164.416634 
L 202.954787 159.626139 
L 203.524279 159.626139 
L 203.524279 154.835644 
L 203.961234 154.835644 
L 203.961234 150.045149 
L 231.303181 150.045149 
L 231.303181 145.254653 
L 231.605827 145.254653 
L 231.605827 140.464158 
L 231.838975 140.464158 
L 231.838975 135.673663 
L 231.892297 135.673663 
L 231.892297 130.883168 
L 231.913965 130.883168 
L 231.913965 126.092673 
L 232.163953 126.092673 
L 232.163953 121.302178 
L 232.171549 121.302178 
L 232.171549 116.511683 
L 232.210695 116.511683 
L 232.210695 111.721188 
L 232.334569 111.721188 
L 232.334569 106.930693 
L 232.336601 106.930693 
L 232.336601 102.140198 
L 232.445294 102.140198 
L 232.445294 97.349703 
L 232.529173 97.349703 
L 232.529173 92.559208 
L 232.534035 92.559208 
L 232.534035 87.768713 
L 232.546069 87.768713 
L 232.546069 82.978218 
L 232.574971 82.978218 
L 232.574971 78.187723 
L 232.585838 78.187723 
L 232.585838 73.397228 
L 232.648982 73.397228 
L 232.648982 68.606733 
L 232.697096 68.606733 
L 232.697096 63.816238 
L 232.732422 63.816238 
L 232.732422 59.025743 
L 232.766389 59.025743 
L 232.766389 54.235248 
L 232.813501 54.235248 
L 232.813501 49.444752 
L 232.876763 49.444752 
L 232.876763 44.654257 
L 232.942824 44.654257 
L 232.942824 39.863762 
L 232.984601 39.863762 
L 232.984601 35.073267 
L 232.993649 35.073267 
L 232.993649 30.282772 
L 233.022512 30.282772 
L 233.022512 25.492277 
L 233.026309 25.492277 
L 233.026309 20.701782 
L 233.137647 20.701782 
L 233.137647 15.911287 
L 233.142914 15.911287 
L 233.142914 11.120792 
L 233.38181 11.120792 
L 233.38181 6.330297 
L 233.38181 6.330297 
L 233.38181 6.330297 
L 460.8 6.330297 
" style="fill:none;stroke:#000000;stroke-linecap:square;stroke-width:1.5;"/>
   </g>
   <g id="patch_3">
    <path d="M 0 293.76 
L 0 3.456 
" style="fill:none;stroke:#000000;stroke-linecap:square;stroke-linejoin:miter;stroke-width:0.8;"/>
   </g>
   <g id="patch_4">
    <path d="M 460.8 293.76 
L 460.8 3.456 
" style="fill:none;stroke:#000000;stroke-linecap:square;stroke-linejoin:miter;stroke-width:0.8;"/>
   </g>
   <g id="patch_5">
    <path d="M 0 293.76 
L 460.8 293.76 
" style="fill:none;stroke:#000000;stroke-linecap:square;stroke-linejoin:miter;stroke-width:0.8;"/>
   </g>
   <g id="patch_6">
    <path d="M 0 3.456 
L 460.8 3.456 
" style="fill:none;stroke:#000000;stroke-linecap:square;stroke-linejoin:miter;stroke-width:0.8;"/>
   </g>
   <g id="text_6">
    <!-- {f6-f9}, 20-D -->
    <g transform="translate(318.609 287.95392)scale(0.2 -0.2)">
     <defs>
      <path d="M 3272 -594 
L 3272 -1044 
L 3078 -1044 
Q 2300 -1044 2036 -812 
Q 1772 -581 1772 109 
L 1772 856 
Q 1772 1328 1603 1509 
Q 1434 1691 991 1691 
L 800 1691 
L 800 2138 
L 991 2138 
Q 1438 2138 1605 2317 
Q 1772 2497 1772 2963 
L 1772 3713 
Q 1772 4403 2036 4633 
Q 2300 4863 3078 4863 
L 3272 4863 
L 3272 4416 
L 3059 4416 
Q 2619 4416 2484 4278 
Q 2350 4141 2350 3700 
L 2350 2925 
Q 2350 2434 2208 2212 
Q 2066 1991 1722 1913 
Q 2069 1828 2209 1606 
Q 2350 1384 2350 897 
L 2350 122 
Q 2350 -319 2484 -456 
Q 2619 -594 3059 -594 
L 3272 -594 
z
" id="DejaVuSans-7b" transform="scale(0.015625)"/>
      <path d="M 2113 2584 
Q 1688 2584 1439 2293 
Q 1191 2003 1191 1497 
Q 1191 994 1439 701 
Q 1688 409 2113 409 
Q 2538 409 2786 701 
Q 3034 994 3034 1497 
Q 3034 2003 2786 2293 
Q 2538 2584 2113 2584 
z
M 3366 4563 
L 3366 3988 
Q 3128 4100 2886 4159 
Q 2644 4219 2406 4219 
Q 1781 4219 1451 3797 
Q 1122 3375 1075 2522 
Q 1259 2794 1537 2939 
Q 1816 3084 2150 3084 
Q 2853 3084 3261 2657 
Q 3669 2231 3669 1497 
Q 3669 778 3244 343 
Q 2819 -91 2113 -91 
Q 1303 -91 875 529 
Q 447 1150 447 2328 
Q 447 3434 972 4092 
Q 1497 4750 2381 4750 
Q 2619 4750 2861 4703 
Q 3103 4656 3366 4563 
z
" id="DejaVuSans-36" transform="scale(0.015625)"/>
      <path d="M 703 97 
L 703 672 
Q 941 559 1184 500 
Q 1428 441 1663 441 
Q 2288 441 2617 861 
Q 2947 1281 2994 2138 
Q 2813 1869 2534 1725 
Q 2256 1581 1919 1581 
Q 1219 1581 811 2004 
Q 403 2428 403 3163 
Q 403 3881 828 4315 
Q 1253 4750 1959 4750 
Q 2769 4750 3195 4129 
Q 3622 3509 3622 2328 
Q 3622 1225 3098 567 
Q 2575 -91 1691 -91 
Q 1453 -91 1209 -44 
Q 966 3 703 97 
z
M 1959 2075 
Q 2384 2075 2632 2365 
Q 2881 2656 2881 3163 
Q 2881 3666 2632 3958 
Q 2384 4250 1959 4250 
Q 1534 4250 1286 3958 
Q 1038 3666 1038 3163 
Q 1038 2656 1286 2365 
Q 1534 2075 1959 2075 
z
" id="DejaVuSans-39" transform="scale(0.015625)"/>
      <path d="M 800 -594 
L 1019 -594 
Q 1456 -594 1589 -459 
Q 1722 -325 1722 122 
L 1722 897 
Q 1722 1384 1862 1606 
Q 2003 1828 2350 1913 
Q 2003 1991 1862 2212 
Q 1722 2434 1722 2925 
L 1722 3700 
Q 1722 4144 1589 4280 
Q 1456 4416 1019 4416 
L 800 4416 
L 800 4863 
L 997 4863 
Q 1775 4863 2036 4633 
Q 2297 4403 2297 3713 
L 2297 2963 
Q 2297 2497 2465 2317 
Q 2634 2138 3078 2138 
L 3272 2138 
L 3272 1691 
L 3078 1691 
Q 2634 1691 2465 1509 
Q 2297 1328 2297 856 
L 2297 109 
Q 2297 -581 2036 -812 
Q 1775 -1044 997 -1044 
L 800 -1044 
L 800 -594 
z
" id="DejaVuSans-7d" transform="scale(0.015625)"/>
      <path d="M 750 794 
L 1409 794 
L 1409 256 
L 897 -744 
L 494 -744 
L 750 256 
L 750 794 
z
" id="DejaVuSans-2c" transform="scale(0.015625)"/>
      <path d="M 1228 531 
L 3431 531 
L 3431 0 
L 469 0 
L 469 531 
Q 828 903 1448 1529 
Q 2069 2156 2228 2338 
Q 2531 2678 2651 2914 
Q 2772 3150 2772 3378 
Q 2772 3750 2511 3984 
Q 2250 4219 1831 4219 
Q 1534 4219 1204 4116 
Q 875 4013 500 3803 
L 500 4441 
Q 881 4594 1212 4672 
Q 1544 4750 1819 4750 
Q 2544 4750 2975 4387 
Q 3406 4025 3406 3419 
Q 3406 3131 3298 2873 
Q 3191 2616 2906 2266 
Q 2828 2175 2409 1742 
Q 1991 1309 1228 531 
z
" id="DejaVuSans-32" transform="scale(0.015625)"/>
     </defs>
     <use xlink:href="#DejaVuSans-7b"/>
     <use x="63.623047" xlink:href="#DejaVuSans-66"/>
     <use x="98.828125" xlink:href="#DejaVuSans-36"/>
     <use x="162.451172" xlink:href="#DejaVuSans-2d"/>
     <use x="198.535156" xlink:href="#DejaVuSans-66"/>
     <use x="233.740234" xlink:href="#DejaVuSans-39"/>
     <use x="297.363281" xlink:href="#DejaVuSans-7d"/>
     <use x="360.986328" xlink:href="#DejaVuSans-2c"/>
     <use x="392.773438" xlink:href="#DejaVuSans-20"/>
     <use x="424.560547" xlink:href="#DejaVuSans-32"/>
     <use x="488.183594" xlink:href="#DejaVuSans-30"/>
     <use x="551.806641" xlink:href="#DejaVuSans-2d"/>
     <use x="587.890625" xlink:href="#DejaVuSans-44"/>
    </g>
   </g>
   <g id="text_7">
    <!-- v2.4 -->
    <g style="fill:#808080;" transform="translate(219.489063 288.777272)scale(0.1 -0.1)">
     <defs>
      <path d="M 191 3500 
L 800 3500 
L 1894 563 
L 2988 3500 
L 3597 3500 
L 2284 0 
L 1503 0 
L 191 3500 
z
" id="DejaVuSans-76" transform="scale(0.015625)"/>
      <path d="M 684 794 
L 1344 794 
L 1344 0 
L 684 0 
L 684 794 
z
" id="DejaVuSans-2e" transform="scale(0.015625)"/>
     </defs>
     <use xlink:href="#DejaVuSans-76"/>
     <use x="59.179688" xlink:href="#DejaVuSans-32"/>
     <use x="122.802734" xlink:href="#DejaVuSans-2e"/>
     <use x="154.589844" xlink:href="#DejaVuSans-34"/>
    </g>
   </g>
  </g>
 </g>
 <defs>
  <clipPath id="pd0c95f7ac1">
   <rect height="290.304" width="460.8" x="0" y="3.456"/>
  </clipPath>
 </defs>
</svg>
