<?xml version="1.0" encoding="utf-8" standalone="no"?>
<!DOCTYPE svg PUBLIC "-//W3C//DTD SVG 1.1//EN"
  "http://www.w3.org/Graphics/SVG/1.1/DTD/svg11.dtd">
<svg height="345.6pt" version="1.1" viewBox="0 0 460.8 345.6" width="460.8pt" xmlns="http://www.w3.org/2000/svg" xmlns:xlink="http://www.w3.org/1999/xlink">
 <metadata>
  <rdf:RDF xmlns:cc="http://creativecommons.org/ns#" xmlns:dc="http://purl.org/dc/elements/1.1/" xmlns:rdf="http://www.w3.org/1999/02/22-rdf-syntax-ns#">
   <cc:Work>
    <dc:type rdf:resource="http://purl.org/dc/dcmitype/StillImage"/>
    <dc:date>2021-07-27T16:03:38.941970</dc:date>
    <dc:format>image/svg+xml</dc:format>
    <dc:creator>
     <cc:Agent>
      <dc:title>Matplotlib v3.4.2, https://matplotlib.org/</dc:title>
     </cc:Agent>
    </dc:creator>
   </cc:Work>
  </rdf:RDF>
 </metadata>
 <defs>
  <style type="text/css">*{stroke-linecap:butt;stroke-linejoin:round;}</style>
 </defs>
 <g id="figure_1">
  <g id="patch_1">
   <path d="M 0 345.6 
L 460.8 345.6 
L 460.8 0 
L 0 0 
z
" style="fill:#ffffff;"/>
  </g>
  <g id="axes_1">
   <g id="patch_2">
    <path d="M 0 293.76 
L 460.8 293.76 
L 460.8 3.456 
L 0 3.456 
z
" style="fill:#ffffff;"/>
   </g>
   <g id="matplotlib.axis_1">
    <g id="xtick_1">
     <g id="line2d_1">
      <path clip-path="url(#pe74d277059)" d="M 102.609626 293.76 
L 102.609626 3.456 
" style="fill:none;stroke:#b0b0b0;stroke-linecap:square;stroke-width:0.8;"/>
     </g>
     <g id="line2d_2">
      <defs>
       <path d="M 0 0 
L 0 3.5 
" id="m45a7f091db" style="stroke:#000000;stroke-width:0.8;"/>
      </defs>
      <g>
       <use style="stroke:#000000;stroke-width:0.8;" x="102.609626" xlink:href="#m45a7f091db" y="293.76"/>
      </g>
     </g>
     <g id="text_1">
      <!-- -4 -->
      <g transform="translate(92.639313 315.956875)scale(0.2 -0.2)">
       <defs>
        <path d="M 313 2009 
L 1997 2009 
L 1997 1497 
L 313 1497 
L 313 2009 
z
" id="DejaVuSans-2d" transform="scale(0.015625)"/>
        <path d="M 2419 4116 
L 825 1625 
L 2419 1625 
L 2419 4116 
z
M 2253 4666 
L 3047 4666 
L 3047 1625 
L 3713 1625 
L 3713 1100 
L 3047 1100 
L 3047 0 
L 2419 0 
L 2419 1100 
L 313 1100 
L 313 1709 
L 2253 4666 
z
" id="DejaVuSans-34" transform="scale(0.015625)"/>
       </defs>
       <use xlink:href="#DejaVuSans-2d"/>
       <use x="36.083984" xlink:href="#DejaVuSans-34"/>
      </g>
     </g>
    </g>
    <g id="xtick_2">
     <g id="line2d_3">
      <path clip-path="url(#pe74d277059)" d="M 205.330225 293.76 
L 205.330225 3.456 
" style="fill:none;stroke:#b0b0b0;stroke-linecap:square;stroke-width:0.8;"/>
     </g>
     <g id="line2d_4">
      <g>
       <use style="stroke:#000000;stroke-width:0.8;" x="205.330225" xlink:href="#m45a7f091db" y="293.76"/>
      </g>
     </g>
     <g id="text_2">
      <!-- 0 -->
      <g transform="translate(198.967725 315.956875)scale(0.2 -0.2)">
       <defs>
        <path d="M 2034 4250 
Q 1547 4250 1301 3770 
Q 1056 3291 1056 2328 
Q 1056 1369 1301 889 
Q 1547 409 2034 409 
Q 2525 409 2770 889 
Q 3016 1369 3016 2328 
Q 3016 3291 2770 3770 
Q 2525 4250 2034 4250 
z
M 2034 4750 
Q 2819 4750 3233 4129 
Q 3647 3509 3647 2328 
Q 3647 1150 3233 529 
Q 2819 -91 2034 -91 
Q 1250 -91 836 529 
Q 422 1150 422 2328 
Q 422 3509 836 4129 
Q 1250 4750 2034 4750 
z
" id="DejaVuSans-30" transform="scale(0.015625)"/>
       </defs>
       <use xlink:href="#DejaVuSans-30"/>
      </g>
     </g>
    </g>
    <g id="xtick_3">
     <g id="line2d_5">
      <path clip-path="url(#pe74d277059)" d="M 308.050825 293.76 
L 308.050825 3.456 
" style="fill:none;stroke:#b0b0b0;stroke-linecap:square;stroke-width:0.8;"/>
     </g>
     <g id="line2d_6">
      <g>
       <use style="stroke:#000000;stroke-width:0.8;" x="308.050825" xlink:href="#m45a7f091db" y="293.76"/>
      </g>
     </g>
     <g id="text_3">
      <!-- 4 -->
      <g transform="translate(301.688325 315.956875)scale(0.2 -0.2)">
       <use xlink:href="#DejaVuSans-34"/>
      </g>
     </g>
    </g>
    <g id="xtick_4">
     <g id="line2d_7">
      <path clip-path="url(#pe74d277059)" d="M 410.771424 293.76 
L 410.771424 3.456 
" style="fill:none;stroke:#b0b0b0;stroke-linecap:square;stroke-width:0.8;"/>
     </g>
     <g id="line2d_8">
      <g>
       <use style="stroke:#000000;stroke-width:0.8;" x="410.771424" xlink:href="#m45a7f091db" y="293.76"/>
      </g>
     </g>
     <g id="text_4">
      <!-- 8 -->
      <g transform="translate(404.408924 315.956875)scale(0.2 -0.2)">
       <defs>
        <path d="M 2034 2216 
Q 1584 2216 1326 1975 
Q 1069 1734 1069 1313 
Q 1069 891 1326 650 
Q 1584 409 2034 409 
Q 2484 409 2743 651 
Q 3003 894 3003 1313 
Q 3003 1734 2745 1975 
Q 2488 2216 2034 2216 
z
M 1403 2484 
Q 997 2584 770 2862 
Q 544 3141 544 3541 
Q 544 4100 942 4425 
Q 1341 4750 2034 4750 
Q 2731 4750 3128 4425 
Q 3525 4100 3525 3541 
Q 3525 3141 3298 2862 
Q 3072 2584 2669 2484 
Q 3125 2378 3379 2068 
Q 3634 1759 3634 1313 
Q 3634 634 3220 271 
Q 2806 -91 2034 -91 
Q 1263 -91 848 271 
Q 434 634 434 1313 
Q 434 1759 690 2068 
Q 947 2378 1403 2484 
z
M 1172 3481 
Q 1172 3119 1398 2916 
Q 1625 2713 2034 2713 
Q 2441 2713 2670 2916 
Q 2900 3119 2900 3481 
Q 2900 3844 2670 4047 
Q 2441 4250 2034 4250 
Q 1625 4250 1398 4047 
Q 1172 3844 1172 3481 
z
" id="DejaVuSans-38" transform="scale(0.015625)"/>
       </defs>
       <use xlink:href="#DejaVuSans-38"/>
      </g>
     </g>
    </g>
    <g id="text_5">
     <!-- log10 of Df -->
     <g transform="translate(175.214063 339.313125)scale(0.2 -0.2)">
      <defs>
       <path d="M 603 4863 
L 1178 4863 
L 1178 0 
L 603 0 
L 603 4863 
z
" id="DejaVuSans-6c" transform="scale(0.015625)"/>
       <path d="M 1959 3097 
Q 1497 3097 1228 2736 
Q 959 2375 959 1747 
Q 959 1119 1226 758 
Q 1494 397 1959 397 
Q 2419 397 2687 759 
Q 2956 1122 2956 1747 
Q 2956 2369 2687 2733 
Q 2419 3097 1959 3097 
z
M 1959 3584 
Q 2709 3584 3137 3096 
Q 3566 2609 3566 1747 
Q 3566 888 3137 398 
Q 2709 -91 1959 -91 
Q 1206 -91 779 398 
Q 353 888 353 1747 
Q 353 2609 779 3096 
Q 1206 3584 1959 3584 
z
" id="DejaVuSans-6f" transform="scale(0.015625)"/>
       <path d="M 2906 1791 
Q 2906 2416 2648 2759 
Q 2391 3103 1925 3103 
Q 1463 3103 1205 2759 
Q 947 2416 947 1791 
Q 947 1169 1205 825 
Q 1463 481 1925 481 
Q 2391 481 2648 825 
Q 2906 1169 2906 1791 
z
M 3481 434 
Q 3481 -459 3084 -895 
Q 2688 -1331 1869 -1331 
Q 1566 -1331 1297 -1286 
Q 1028 -1241 775 -1147 
L 775 -588 
Q 1028 -725 1275 -790 
Q 1522 -856 1778 -856 
Q 2344 -856 2625 -561 
Q 2906 -266 2906 331 
L 2906 616 
Q 2728 306 2450 153 
Q 2172 0 1784 0 
Q 1141 0 747 490 
Q 353 981 353 1791 
Q 353 2603 747 3093 
Q 1141 3584 1784 3584 
Q 2172 3584 2450 3431 
Q 2728 3278 2906 2969 
L 2906 3500 
L 3481 3500 
L 3481 434 
z
" id="DejaVuSans-67" transform="scale(0.015625)"/>
       <path d="M 794 531 
L 1825 531 
L 1825 4091 
L 703 3866 
L 703 4441 
L 1819 4666 
L 2450 4666 
L 2450 531 
L 3481 531 
L 3481 0 
L 794 0 
L 794 531 
z
" id="DejaVuSans-31" transform="scale(0.015625)"/>
       <path id="DejaVuSans-20" transform="scale(0.015625)"/>
       <path d="M 2375 4863 
L 2375 4384 
L 1825 4384 
Q 1516 4384 1395 4259 
Q 1275 4134 1275 3809 
L 1275 3500 
L 2222 3500 
L 2222 3053 
L 1275 3053 
L 1275 0 
L 697 0 
L 697 3053 
L 147 3053 
L 147 3500 
L 697 3500 
L 697 3744 
Q 697 4328 969 4595 
Q 1241 4863 1831 4863 
L 2375 4863 
z
" id="DejaVuSans-66" transform="scale(0.015625)"/>
       <path d="M 1259 4147 
L 1259 519 
L 2022 519 
Q 2988 519 3436 956 
Q 3884 1394 3884 2338 
Q 3884 3275 3436 3711 
Q 2988 4147 2022 4147 
L 1259 4147 
z
M 628 4666 
L 1925 4666 
Q 3281 4666 3915 4102 
Q 4550 3538 4550 2338 
Q 4550 1131 3912 565 
Q 3275 0 1925 0 
L 628 0 
L 628 4666 
z
" id="DejaVuSans-44" transform="scale(0.015625)"/>
      </defs>
      <use xlink:href="#DejaVuSans-6c"/>
      <use x="27.783203" xlink:href="#DejaVuSans-6f"/>
      <use x="88.964844" xlink:href="#DejaVuSans-67"/>
      <use x="152.441406" xlink:href="#DejaVuSans-31"/>
      <use x="216.064453" xlink:href="#DejaVuSans-30"/>
      <use x="279.6875" xlink:href="#DejaVuSans-20"/>
      <use x="311.474609" xlink:href="#DejaVuSans-6f"/>
      <use x="372.65625" xlink:href="#DejaVuSans-66"/>
      <use x="407.861328" xlink:href="#DejaVuSans-20"/>
      <use x="439.648438" xlink:href="#DejaVuSans-44"/>
      <use x="516.650391" xlink:href="#DejaVuSans-66"/>
     </g>
    </g>
   </g>
   <g id="matplotlib.axis_2">
    <g id="ytick_1">
     <g id="line2d_9">
      <path clip-path="url(#pe74d277059)" d="M 0 293.76 
L 460.8 293.76 
" style="fill:none;stroke:#b0b0b0;stroke-linecap:square;stroke-width:0.8;"/>
     </g>
     <g id="line2d_10">
      <defs>
       <path d="M 0 0 
L -3.5 0 
" id="m0646a70e07" style="stroke:#000000;stroke-width:0.8;"/>
      </defs>
      <g>
       <use style="stroke:#000000;stroke-width:0.8;" x="0" xlink:href="#m0646a70e07" y="293.76"/>
      </g>
     </g>
    </g>
    <g id="ytick_2">
     <g id="line2d_11">
      <path clip-path="url(#pe74d277059)" d="M 0 236.274059 
L 460.8 236.274059 
" style="fill:none;stroke:#b0b0b0;stroke-linecap:square;stroke-width:0.8;"/>
     </g>
     <g id="line2d_12">
      <g>
       <use style="stroke:#000000;stroke-width:0.8;" x="0" xlink:href="#m0646a70e07" y="236.274059"/>
      </g>
     </g>
    </g>
    <g id="ytick_3">
     <g id="line2d_13">
      <path clip-path="url(#pe74d277059)" d="M 0 178.788119 
L 460.8 178.788119 
" style="fill:none;stroke:#b0b0b0;stroke-linecap:square;stroke-width:0.8;"/>
     </g>
     <g id="line2d_14">
      <g>
       <use style="stroke:#000000;stroke-width:0.8;" x="0" xlink:href="#m0646a70e07" y="178.788119"/>
      </g>
     </g>
    </g>
    <g id="ytick_4">
     <g id="line2d_15">
      <path clip-path="url(#pe74d277059)" d="M 0 121.302178 
L 460.8 121.302178 
" style="fill:none;stroke:#b0b0b0;stroke-linecap:square;stroke-width:0.8;"/>
     </g>
     <g id="line2d_16">
      <g>
       <use style="stroke:#000000;stroke-width:0.8;" x="0" xlink:href="#m0646a70e07" y="121.302178"/>
      </g>
     </g>
    </g>
    <g id="ytick_5">
     <g id="line2d_17">
      <path clip-path="url(#pe74d277059)" d="M 0 63.816238 
L 460.8 63.816238 
" style="fill:none;stroke:#b0b0b0;stroke-linecap:square;stroke-width:0.8;"/>
     </g>
     <g id="line2d_18">
      <g>
       <use style="stroke:#000000;stroke-width:0.8;" x="0" xlink:href="#m0646a70e07" y="63.816238"/>
      </g>
     </g>
    </g>
    <g id="ytick_6">
     <g id="line2d_19">
      <path clip-path="url(#pe74d277059)" d="M 0 6.330297 
L 460.8 6.330297 
" style="fill:none;stroke:#b0b0b0;stroke-linecap:square;stroke-width:0.8;"/>
     </g>
     <g id="line2d_20">
      <g>
       <use style="stroke:#000000;stroke-width:0.8;" x="0" xlink:href="#m0646a70e07" y="6.330297"/>
      </g>
     </g>
    </g>
   </g>
   <g id="line2d_21">
    <path clip-path="url(#pe74d277059)" d="M -1 6.330297 
L 460.8 6.330297 
L 460.8 6.330297 
" style="fill:none;stroke:#ff0000;stroke-linecap:square;stroke-width:3;"/>
   </g>
   <g id="line2d_22">
    <path clip-path="url(#pe74d277059)" d="M 240.066778 293.76 
L 240.066778 289.927604 
L 242.477822 289.927604 
L 242.477822 286.095208 
L 243.247613 286.095208 
L 243.247613 282.262812 
L 244.026541 282.262812 
L 244.026541 278.430416 
L 244.48769 278.430416 
L 244.48769 274.59802 
L 244.888273 274.59802 
L 244.888273 270.765624 
L 245.60405 270.765624 
L 245.60405 266.933228 
L 246.383762 266.933228 
L 246.383762 263.100832 
L 247.175374 263.100832 
L 247.175374 259.268436 
L 247.601357 259.268436 
L 247.601357 255.43604 
L 248.066915 255.43604 
L 248.066915 251.603644 
L 248.733393 251.603644 
L 248.733393 247.771248 
L 250.030271 247.771248 
L 250.030271 243.938851 
L 250.536554 243.938851 
L 250.536554 240.106455 
L 252.904449 240.106455 
L 252.904449 236.274059 
L 263.53006 236.274059 
L 263.53006 232.441663 
L 264.265574 232.441663 
L 264.265574 228.609267 
L 265.43131 228.609267 
L 265.43131 224.776871 
L 289.093186 224.776871 
L 289.093186 220.944475 
L 289.53442 220.944475 
L 289.53442 217.112079 
L 289.660677 217.112079 
L 289.72778 209.447287 
L 289.945111 209.447287 
L 289.945111 205.614891 
L 290.104734 205.614891 
L 290.104734 201.782495 
L 290.35641 201.782495 
L 290.446303 190.285307 
L 290.703368 190.285307 
L 290.703368 186.452911 
L 290.941631 186.452911 
L 291.051298 178.788119 
L 291.190879 178.788119 
L 291.190879 174.955723 
L 291.805842 174.955723 
L 291.805842 171.123327 
L 292.614183 171.123327 
L 292.614183 167.290931 
L 293.543959 167.290931 
L 293.543959 163.458535 
L 302.071655 163.458535 
L 302.071655 159.626139 
L 314.072812 159.626139 
L 314.072812 155.793743 
L 314.741854 155.793743 
L 314.741854 151.961347 
L 318.99339 151.961347 
L 318.99339 148.12895 
L 323.684326 148.12895 
L 323.684326 144.296554 
L 325.11505 144.296554 
L 325.11505 140.464158 
L 327.773835 140.464158 
L 327.773835 136.631762 
L 333.239766 136.631762 
L 333.239766 132.799366 
L 342.390033 132.799366 
L 342.390033 128.96697 
L 354.442614 128.96697 
L 354.442614 125.134574 
L 356.776111 125.134574 
L 356.776111 121.302178 
L 360.394692 121.302178 
L 360.394692 117.469782 
L 365.408771 117.469782 
L 365.408771 113.637386 
L 365.553461 113.637386 
L 365.553461 109.80499 
L 367.8534 109.80499 
L 367.8534 105.972594 
L 370.746322 105.972594 
L 370.746322 102.140198 
L 371.403919 102.140198 
L 371.403919 98.307802 
L 371.630294 98.307802 
L 371.630294 94.475406 
L 373.029885 94.475406 
L 373.029885 90.64301 
L 374.148722 90.64301 
L 374.148722 86.810614 
L 374.308416 86.810614 
L 374.417223 79.145822 
L 376.605132 79.145822 
L 376.605132 75.313426 
L 379.577008 75.313426 
L 379.577008 71.48103 
L 381.528884 71.48103 
L 381.528884 67.648634 
L 382.721425 67.648634 
L 382.721425 63.816238 
L 406.485677 63.816238 
L 406.485677 59.983842 
L 410.559675 59.983842 
L 410.559675 56.151446 
L 411.071935 56.151446 
L 411.071935 52.31905 
L 415.871064 52.31905 
L 415.871064 48.486653 
L 416.255271 48.486653 
L 416.255271 44.654257 
L 418.800062 44.654257 
L 418.800062 40.821861 
L 419.302387 40.821861 
L 419.302387 36.989465 
L 419.517005 36.989465 
L 419.586379 29.324673 
L 419.779408 29.324673 
L 419.779408 25.492277 
L 424.282154 25.492277 
L 424.282154 21.659881 
L 424.538812 21.659881 
L 424.538812 17.827485 
L 424.937149 17.827485 
L 424.937149 13.995089 
L 429.526713 13.995089 
L 429.526713 10.162693 
L 429.860712 10.162693 
L 429.860712 6.330297 
L 429.860712 6.330297 
L 460.8 6.330297 
L 460.8 6.330297 
" style="fill:none;stroke:#00bfbf;stroke-linecap:square;stroke-width:1.5;"/>
   </g>
   <g id="line2d_23">
    <path clip-path="url(#pe74d277059)" d="M 236.458784 293.76 
L 236.458784 289.927604 
L 238.408351 289.927604 
L 238.408351 286.095208 
L 241.065676 286.095208 
L 241.065676 282.262812 
L 241.674924 282.262812 
L 241.674924 278.430416 
L 242.477822 278.430416 
L 242.477822 274.59802 
L 243.247613 274.59802 
L 243.247613 270.765624 
L 244.026541 270.765624 
L 244.026541 266.933228 
L 244.48769 266.933228 
L 244.502281 259.268436 
L 245.03709 259.268436 
L 245.03709 255.43604 
L 245.60405 255.43604 
L 245.60405 251.603644 
L 247.138951 251.603644 
L 247.138951 247.771248 
L 247.454263 247.771248 
L 247.454263 243.938851 
L 248.01309 243.938851 
L 248.01309 240.106455 
L 248.733393 240.106455 
L 248.733393 236.274059 
L 263.53006 236.274059 
L 263.53006 232.441663 
L 264.265574 232.441663 
L 264.265574 228.609267 
L 265.43131 228.609267 
L 265.43131 224.776871 
L 276.251516 224.776871 
L 276.251516 220.944475 
L 282.186119 220.944475 
L 282.186119 217.112079 
L 286.858183 217.112079 
L 286.858183 213.279683 
L 287.374485 213.279683 
L 287.374485 209.447287 
L 287.896206 209.447287 
L 287.896206 205.614891 
L 288.290061 205.614891 
L 288.290061 201.782495 
L 288.989886 201.782495 
L 289.093186 194.117703 
L 289.500526 194.117703 
L 289.500526 190.285307 
L 289.640472 190.285307 
L 289.650322 182.620515 
L 289.831713 182.620515 
L 289.831713 178.788119 
L 290.446303 178.788119 
L 290.446303 174.955723 
L 290.703368 174.955723 
L 290.703368 171.123327 
L 291.190879 171.123327 
L 291.190879 167.290931 
L 291.805842 167.290931 
L 291.805842 163.458535 
L 292.550977 163.458535 
L 292.550977 159.626139 
L 292.891952 159.626139 
L 292.891952 155.793743 
L 294.775551 155.793743 
L 294.775551 151.961347 
L 302.071655 151.961347 
L 302.071655 148.12895 
L 304.533341 148.12895 
L 304.533341 144.296554 
L 306.209457 144.296554 
L 306.209457 140.464158 
L 314.072812 140.464158 
L 314.072812 136.631762 
L 314.741854 136.631762 
L 314.741854 132.799366 
L 316.726873 132.799366 
L 316.726873 128.96697 
L 322.137207 128.96697 
L 322.137207 125.134574 
L 351.551177 125.134574 
L 351.551177 121.302178 
L 354.442614 121.302178 
L 354.442614 117.469782 
L 362.419696 117.469782 
L 362.419696 113.637386 
L 365.408771 113.637386 
L 365.408771 109.80499 
L 365.553461 109.80499 
L 365.553461 105.972594 
L 365.688522 105.972594 
L 365.688522 102.140198 
L 366.352836 102.140198 
L 366.352836 98.307802 
L 367.8534 98.307802 
L 367.8534 94.475406 
L 370.050704 94.475406 
L 370.050704 90.64301 
L 371.255806 90.64301 
L 371.255806 86.810614 
L 371.403919 86.810614 
L 371.403919 82.978218 
L 371.630294 82.978218 
L 371.630294 79.145822 
L 373.029885 79.145822 
L 373.029885 75.313426 
L 374.308416 75.313426 
L 374.308416 71.48103 
L 374.704339 71.48103 
L 374.704339 67.648634 
L 378.602517 67.648634 
L 378.602517 63.816238 
L 400.731195 63.816238 
L 400.731195 59.983842 
L 409.770676 59.983842 
L 409.770676 56.151446 
L 410.559675 56.151446 
L 410.559675 52.31905 
L 410.69943 52.31905 
L 410.69943 48.486653 
L 411.071935 48.486653 
L 411.071935 44.654257 
L 414.724223 44.654257 
L 414.724223 40.821861 
L 415.834646 40.821861 
L 415.834646 36.989465 
L 416.735905 36.989465 
L 416.735905 33.157069 
L 417.931238 33.157069 
L 417.931238 29.324673 
L 418.526917 29.324673 
L 418.526917 25.492277 
L 419.302387 25.492277 
L 419.302387 21.659881 
L 419.435043 21.659881 
L 419.517005 13.995089 
L 427.415886 13.995089 
L 427.415886 10.162693 
L 428.57592 10.162693 
L 428.57592 6.330297 
L 428.57592 6.330297 
L 460.8 6.330297 
L 460.8 6.330297 
" style="fill:none;stroke:#bf00bf;stroke-linecap:square;stroke-width:1.5;"/>
   </g>
   <g id="line2d_24">
    <path clip-path="url(#pe74d277059)" d="M 235.091615 293.76 
L 235.091615 289.927604 
L 236.458784 289.927604 
L 236.458784 286.095208 
L 238.408351 286.095208 
L 238.408351 282.262812 
L 238.898688 282.262812 
L 238.898688 278.430416 
L 241.674924 278.430416 
L 241.758953 270.765624 
L 241.811552 270.765624 
L 241.811552 266.933228 
L 242.341232 266.933228 
L 242.341232 263.100832 
L 242.477822 263.100832 
L 242.477822 259.268436 
L 243.133949 259.268436 
L 243.133949 255.43604 
L 243.247613 255.43604 
L 243.247613 251.603644 
L 244.112856 251.603644 
L 244.112856 247.771248 
L 245.60405 247.771248 
L 245.60405 243.938851 
L 245.810628 243.938851 
L 245.810628 240.106455 
L 247.138951 240.106455 
L 247.138951 236.274059 
L 263.53006 236.274059 
L 263.53006 232.441663 
L 264.265574 232.441663 
L 264.265574 228.609267 
L 265.43131 228.609267 
L 265.43131 224.776871 
L 272.930067 224.776871 
L 272.930067 220.944475 
L 276.251516 220.944475 
L 276.251516 217.112079 
L 277.097122 217.112079 
L 277.097122 213.279683 
L 286.858183 213.279683 
L 286.858183 209.447287 
L 287.374485 209.447287 
L 287.374485 205.614891 
L 287.755196 205.614891 
L 287.755196 201.782495 
L 287.896206 201.782495 
L 287.896206 197.950099 
L 288.130083 197.950099 
L 288.130083 194.117703 
L 288.265694 194.117703 
L 288.265694 190.285307 
L 288.416244 190.285307 
L 288.497055 182.620515 
L 288.890933 182.620515 
L 288.989886 174.955723 
L 289.093186 174.955723 
L 289.093186 171.123327 
L 289.40856 171.123327 
L 289.40856 167.290931 
L 289.652556 167.290931 
L 289.652556 163.458535 
L 290.459183 163.458535 
L 290.459183 159.626139 
L 291.121793 159.626139 
L 291.190879 151.961347 
L 294.165506 151.961347 
L 294.165506 148.12895 
L 294.775551 148.12895 
L 294.775551 144.296554 
L 296.653255 144.296554 
L 296.653255 140.464158 
L 298.349068 140.464158 
L 298.349068 136.631762 
L 298.923747 136.631762 
L 298.923747 132.799366 
L 306.209457 132.799366 
L 306.209457 128.96697 
L 314.741854 128.96697 
L 314.741854 125.134574 
L 316.403615 125.134574 
L 316.403615 121.302178 
L 354.442614 121.302178 
L 354.442614 117.469782 
L 358.013401 117.469782 
L 358.013401 113.637386 
L 362.419696 113.637386 
L 362.419696 109.80499 
L 363.06243 109.80499 
L 363.06243 105.972594 
L 365.352036 105.972594 
L 365.352036 102.140198 
L 365.553461 102.140198 
L 365.553461 98.307802 
L 365.688522 98.307802 
L 365.688522 94.475406 
L 366.352836 94.475406 
L 366.352836 90.64301 
L 367.867856 90.64301 
L 367.867856 86.810614 
L 371.255806 86.810614 
L 371.255806 82.978218 
L 371.403919 82.978218 
L 371.403919 79.145822 
L 372.037594 79.145822 
L 372.037594 75.313426 
L 373.855368 75.313426 
L 373.855368 71.48103 
L 374.308416 71.48103 
L 374.308416 67.648634 
L 374.704339 67.648634 
L 374.704339 63.816238 
L 400.731195 63.816238 
L 400.731195 59.983842 
L 408.405517 59.983842 
L 408.405517 56.151446 
L 409.68975 56.151446 
L 409.68975 52.31905 
L 410.178733 52.31905 
L 410.178733 48.486653 
L 411.071935 48.486653 
L 411.071935 44.654257 
L 412.488442 44.654257 
L 412.488442 40.821861 
L 413.475302 40.821861 
L 413.475302 36.989465 
L 414.209096 36.989465 
L 414.262406 29.324673 
L 414.724223 29.324673 
L 414.724223 25.492277 
L 416.463136 25.492277 
L 416.463136 21.659881 
L 417.432477 21.659881 
L 417.432477 17.827485 
L 417.931238 17.827485 
L 417.931238 13.995089 
L 418.631599 13.995089 
L 418.631599 10.162693 
L 427.415886 10.162693 
L 427.415886 6.330297 
L 427.415886 6.330297 
L 460.8 6.330297 
L 460.8 6.330297 
" style="fill:none;stroke:#000000;stroke-linecap:square;stroke-width:1.5;"/>
   </g>
   <g id="line2d_25">
    <path clip-path="url(#pe74d277059)" d="M 232.026032 293.76 
L 232.026032 289.927604 
L 233.479334 289.927604 
L 233.479334 286.095208 
L 234.929686 286.095208 
L 234.929686 282.262812 
L 235.091615 282.262812 
L 235.097068 274.59802 
L 236.258463 274.59802 
L 236.258463 270.765624 
L 236.458784 270.765624 
L 236.458784 266.933228 
L 237.232971 266.933228 
L 237.232971 263.100832 
L 237.542925 263.100832 
L 237.542925 259.268436 
L 238.876417 259.268436 
L 238.876417 255.43604 
L 239.212965 255.43604 
L 239.212965 251.603644 
L 239.326121 251.603644 
L 239.326121 247.771248 
L 240.294665 247.771248 
L 240.294665 243.938851 
L 241.944853 243.938851 
L 241.944853 240.106455 
L 242.407156 240.106455 
L 242.407156 236.274059 
L 257.650897 236.274059 
L 257.650897 232.441663 
L 262.087609 232.441663 
L 262.194708 224.776871 
L 263.100571 224.776871 
L 263.100571 220.944475 
L 263.53006 220.944475 
L 263.53006 217.112079 
L 264.26281 217.112079 
L 264.265574 209.447287 
L 265.43131 209.447287 
L 265.43131 205.614891 
L 268.37422 205.614891 
L 268.37422 201.782495 
L 270.565077 201.782495 
L 270.565077 197.950099 
L 274.601495 197.950099 
L 274.601495 194.117703 
L 275.116651 194.117703 
L 275.116651 190.285307 
L 276.437974 190.285307 
L 276.437974 186.452911 
L 283.753556 186.452911 
L 283.753556 182.620515 
L 284.947002 182.620515 
L 284.947002 178.788119 
L 285.766288 178.788119 
L 285.766288 174.955723 
L 286.15423 174.955723 
L 286.238767 159.626139 
L 286.271227 159.626139 
L 286.380815 151.961347 
L 286.568665 151.961347 
L 286.582611 144.296554 
L 286.830592 144.296554 
L 286.830592 140.464158 
L 286.985303 140.464158 
L 286.985303 136.631762 
L 287.363154 136.631762 
L 287.428903 128.96697 
L 288.820756 128.96697 
L 288.820756 125.134574 
L 289.239303 125.134574 
L 289.239303 121.302178 
L 347.160833 121.302178 
L 347.160833 117.469782 
L 348.278195 117.469782 
L 348.278195 113.637386 
L 354.442614 113.637386 
L 354.442614 109.80499 
L 354.669264 109.80499 
L 354.669264 105.972594 
L 354.987145 105.972594 
L 354.987145 102.140198 
L 356.706742 102.140198 
L 356.706742 98.307802 
L 357.633311 98.307802 
L 357.633311 94.475406 
L 358.924609 94.475406 
L 358.924609 90.64301 
L 359.288406 90.64301 
L 359.288406 86.810614 
L 361.634399 86.810614 
L 361.634399 82.978218 
L 363.013949 82.978218 
L 363.013949 79.145822 
L 364.851623 79.145822 
L 364.851623 75.313426 
L 365.407591 75.313426 
L 365.407591 71.48103 
L 365.688522 71.48103 
L 365.688522 67.648634 
L 365.856018 67.648634 
L 365.856018 63.816238 
L 400.000871 63.816238 
L 400.000871 59.983842 
L 401.187109 59.983842 
L 401.187109 56.151446 
L 404.570942 56.151446 
L 404.570942 52.31905 
L 407.755127 52.31905 
L 407.755127 48.486653 
L 408.001179 48.486653 
L 408.010463 40.821861 
L 408.405517 40.821861 
L 408.405517 36.989465 
L 408.625317 36.989465 
L 408.625317 33.157069 
L 409.214241 33.157069 
L 409.3194 25.492277 
L 409.347313 25.492277 
L 409.347313 21.659881 
L 410.733426 21.659881 
L 410.733426 17.827485 
L 412.373586 17.827485 
L 412.373586 13.995089 
L 415.370347 13.995089 
L 415.370347 10.162693 
L 415.559591 10.162693 
L 415.559591 6.330297 
L 415.559591 6.330297 
L 460.8 6.330297 
L 460.8 6.330297 
" style="fill:none;stroke:#00bfbf;stroke-linecap:square;stroke-width:1.5;"/>
   </g>
   <g id="line2d_26">
    <path clip-path="url(#pe74d277059)" d="M 210.551668 293.76 
L 210.551668 289.927604 
L 212.472849 289.927604 
L 212.472849 286.095208 
L 212.764106 286.095208 
L 212.764106 282.262812 
L 213.556714 282.262812 
L 213.556714 278.430416 
L 213.771754 278.430416 
L 213.771754 274.59802 
L 214.274783 274.59802 
L 214.274783 270.765624 
L 214.677905 270.765624 
L 214.677905 266.933228 
L 215.800768 266.933228 
L 215.800768 263.100832 
L 218.307746 263.100832 
L 218.396072 255.43604 
L 219.26031 255.43604 
L 219.26031 251.603644 
L 221.236078 251.603644 
L 221.236078 247.771248 
L 221.695729 247.771248 
L 221.774441 240.106455 
L 225.12444 240.106455 
L 225.12444 236.274059 
L 251.938346 236.274059 
L 251.938346 232.441663 
L 252.507183 232.441663 
L 252.507183 228.609267 
L 255.736553 228.609267 
L 255.765304 220.944475 
L 255.980872 220.944475 
L 255.980872 217.112079 
L 256.393193 217.112079 
L 256.393193 213.279683 
L 257.354532 213.279683 
L 257.354532 209.447287 
L 257.650897 209.447287 
L 257.650897 205.614891 
L 257.829168 205.614891 
L 257.829168 201.782495 
L 258.173426 201.782495 
L 258.173426 197.950099 
L 258.611799 197.950099 
L 258.611799 194.117703 
L 259.246075 194.117703 
L 259.246075 190.285307 
L 259.74433 190.285307 
L 259.74433 186.452911 
L 260.371122 186.452911 
L 260.371122 182.620515 
L 261.82722 182.620515 
L 261.82722 178.788119 
L 269.632043 178.788119 
L 269.632043 174.955723 
L 270.97769 174.955723 
L 270.97769 171.123327 
L 271.133442 171.123327 
L 271.133442 167.290931 
L 271.698772 167.290931 
L 271.698772 163.458535 
L 271.982034 163.458535 
L 272.079109 155.793743 
L 272.249846 155.793743 
L 272.249846 151.961347 
L 273.225928 151.961347 
L 273.225928 148.12895 
L 274.117662 148.12895 
L 274.117662 144.296554 
L 274.289993 144.296554 
L 274.289993 140.464158 
L 274.83585 140.464158 
L 274.83585 136.631762 
L 275.354743 136.631762 
L 275.354743 132.799366 
L 275.5043 132.799366 
L 275.5043 128.96697 
L 276.286033 128.96697 
L 276.286033 125.134574 
L 276.683957 125.134574 
L 276.683957 121.302178 
L 322.053528 121.302178 
L 322.053528 117.469782 
L 324.451923 117.469782 
L 324.451923 113.637386 
L 325.45191 113.637386 
L 325.45191 109.80499 
L 327.521681 109.80499 
L 327.521681 105.972594 
L 331.195351 105.972594 
L 331.195351 102.140198 
L 332.051209 102.140198 
L 332.051209 98.307802 
L 332.863358 98.307802 
L 332.863358 94.475406 
L 333.505082 94.475406 
L 333.505082 90.64301 
L 333.627598 90.64301 
L 333.627598 86.810614 
L 335.704062 86.810614 
L 335.704062 82.978218 
L 336.605763 82.978218 
L 336.605763 79.145822 
L 337.207744 79.145822 
L 337.207744 75.313426 
L 339.37221 75.313426 
L 339.37221 71.48103 
L 342.234294 71.48103 
L 342.34365 63.816238 
L 368.23181 63.816238 
L 368.23181 59.983842 
L 373.326272 59.983842 
L 373.326272 56.151446 
L 375.682 56.151446 
L 375.682 52.31905 
L 376.01949 52.31905 
L 376.01949 48.486653 
L 377.065653 48.486653 
L 377.065653 44.654257 
L 377.999764 44.654257 
L 377.999764 40.821861 
L 379.832413 40.821861 
L 379.865833 33.157069 
L 380.405539 33.157069 
L 380.405539 29.324673 
L 380.535064 29.324673 
L 380.612631 21.659881 
L 382.140719 21.659881 
L 382.140719 17.827485 
L 383.775937 17.827485 
L 383.775937 13.995089 
L 384.067498 13.995089 
L 384.067498 10.162693 
L 384.198588 10.162693 
L 384.198588 6.330297 
L 384.198588 6.330297 
L 460.8 6.330297 
L 460.8 6.330297 
" style="fill:none;stroke:#bf00bf;stroke-linecap:square;stroke-width:1.5;"/>
   </g>
   <g id="line2d_27">
    <path clip-path="url(#pe74d277059)" d="M 52.943513 293.76 
L 52.943513 289.927604 
L 56.13815 289.927604 
L 56.13815 286.095208 
L 56.911592 286.095208 
L 56.911592 282.262812 
L 60.255297 282.262812 
L 60.255297 278.430416 
L 61.766169 278.430416 
L 61.766169 274.59802 
L 61.967283 274.59802 
L 61.967283 270.765624 
L 62.10571 270.765624 
L 62.10571 266.933228 
L 62.479284 266.933228 
L 62.479284 263.100832 
L 63.225012 263.100832 
L 63.225012 259.268436 
L 63.795193 259.268436 
L 63.795193 255.43604 
L 65.308847 255.43604 
L 65.38627 247.771248 
L 65.557824 247.771248 
L 65.557824 243.938851 
L 65.760883 243.938851 
L 65.760883 240.106455 
L 66.037747 240.106455 
L 66.037747 236.274059 
L 66.622591 236.274059 
L 66.622591 232.441663 
L 67.410087 232.441663 
L 67.410087 228.609267 
L 68.071804 228.609267 
L 68.071804 224.776871 
L 70.173039 224.776871 
L 70.173039 220.944475 
L 70.702859 220.944475 
L 70.702859 217.112079 
L 71.907177 217.112079 
L 71.907177 213.279683 
L 75.362109 213.279683 
L 75.362109 209.447287 
L 78.155085 209.447287 
L 78.155085 205.614891 
L 82.540521 205.614891 
L 82.540521 201.782495 
L 83.917603 201.782495 
L 83.917603 197.950099 
L 88.594686 197.950099 
L 88.594686 194.117703 
L 89.520447 194.117703 
L 89.520447 190.285307 
L 90.327852 190.285307 
L 90.327852 186.452911 
L 91.183579 186.452911 
L 91.183579 182.620515 
L 92.710264 182.620515 
L 92.710264 178.788119 
L 132.313232 178.788119 
L 132.313232 174.955723 
L 139.529688 174.955723 
L 139.529688 171.123327 
L 144.032521 171.123327 
L 144.032521 167.290931 
L 145.101084 167.290931 
L 145.101084 163.458535 
L 145.544554 163.458535 
L 145.544554 159.626139 
L 146.027962 159.626139 
L 146.027962 155.793743 
L 146.449434 155.793743 
L 146.449434 151.961347 
L 161.305342 151.961347 
L 161.305342 148.12895 
L 163.21055 148.12895 
L 163.259587 140.464158 
L 166.871368 140.464158 
L 166.871368 136.631762 
L 167.626308 136.631762 
L 167.626308 132.799366 
L 169.662315 132.799366 
L 169.662315 128.96697 
L 170.75293 128.96697 
L 170.75293 125.134574 
L 171.079214 125.134574 
L 171.079214 121.302178 
L 171.452398 121.302178 
L 171.452398 117.469782 
L 173.061745 117.469782 
L 173.061745 113.637386 
L 174.886896 113.637386 
L 174.886896 109.80499 
L 176.015943 109.80499 
L 176.015943 105.972594 
L 176.556925 105.972594 
L 176.556925 102.140198 
L 176.844392 102.140198 
L 176.844392 98.307802 
L 177.417584 98.307802 
L 177.417584 94.475406 
L 178.89097 94.475406 
L 178.89097 90.64301 
L 179.441888 90.64301 
L 179.441888 86.810614 
L 180.814798 86.810614 
L 180.814798 82.978218 
L 185.144993 82.978218 
L 185.144993 79.145822 
L 186.018208 79.145822 
L 186.018208 75.313426 
L 186.351365 75.313426 
L 186.351365 71.48103 
L 186.849897 71.48103 
L 186.849897 67.648634 
L 190.020995 67.648634 
L 190.020995 63.816238 
L 190.981081 63.816238 
L 190.981081 59.983842 
L 191.686131 59.983842 
L 191.686131 56.151446 
L 192.198499 56.151446 
L 192.198499 52.31905 
L 203.153746 52.31905 
L 203.153746 48.486653 
L 203.893403 48.486653 
L 203.893403 44.654257 
L 205.951956 44.654257 
L 205.951956 40.821861 
L 206.750178 40.821861 
L 206.750178 36.989465 
L 209.178585 36.989465 
L 209.178585 33.157069 
L 209.321939 33.157069 
L 209.321939 29.324673 
L 212.002532 29.324673 
L 212.002532 25.492277 
L 213.023826 25.492277 
L 213.023826 21.659881 
L 213.538535 21.659881 
L 213.538535 17.827485 
L 214.114951 17.827485 
L 214.179838 10.162693 
L 231.799043 10.162693 
L 231.799043 6.330297 
L 231.799043 6.330297 
L 460.8 6.330297 
L 460.8 6.330297 
" style="fill:none;stroke:#000000;stroke-linecap:square;stroke-width:1.5;"/>
   </g>
   <g id="patch_3">
    <path d="M 0 293.76 
L 0 3.456 
" style="fill:none;stroke:#000000;stroke-linecap:square;stroke-linejoin:miter;stroke-width:0.8;"/>
   </g>
   <g id="patch_4">
    <path d="M 460.8 293.76 
L 460.8 3.456 
" style="fill:none;stroke:#000000;stroke-linecap:square;stroke-linejoin:miter;stroke-width:0.8;"/>
   </g>
   <g id="patch_5">
    <path d="M 0 293.76 
L 460.8 293.76 
" style="fill:none;stroke:#000000;stroke-linecap:square;stroke-linejoin:miter;stroke-width:0.8;"/>
   </g>
   <g id="patch_6">
    <path d="M 0 3.456 
L 460.8 3.456 
" style="fill:none;stroke:#000000;stroke-linecap:square;stroke-linejoin:miter;stroke-width:0.8;"/>
   </g>
   <g id="text_6">
    <!-- {f10-f14}, 20-D -->
    <g transform="translate(293.159 287.95392)scale(0.2 -0.2)">
     <defs>
      <path d="M 3272 -594 
L 3272 -1044 
L 3078 -1044 
Q 2300 -1044 2036 -812 
Q 1772 -581 1772 109 
L 1772 856 
Q 1772 1328 1603 1509 
Q 1434 1691 991 1691 
L 800 1691 
L 800 2138 
L 991 2138 
Q 1438 2138 1605 2317 
Q 1772 2497 1772 2963 
L 1772 3713 
Q 1772 4403 2036 4633 
Q 2300 4863 3078 4863 
L 3272 4863 
L 3272 4416 
L 3059 4416 
Q 2619 4416 2484 4278 
Q 2350 4141 2350 3700 
L 2350 2925 
Q 2350 2434 2208 2212 
Q 2066 1991 1722 1913 
Q 2069 1828 2209 1606 
Q 2350 1384 2350 897 
L 2350 122 
Q 2350 -319 2484 -456 
Q 2619 -594 3059 -594 
L 3272 -594 
z
" id="DejaVuSans-7b" transform="scale(0.015625)"/>
      <path d="M 800 -594 
L 1019 -594 
Q 1456 -594 1589 -459 
Q 1722 -325 1722 122 
L 1722 897 
Q 1722 1384 1862 1606 
Q 2003 1828 2350 1913 
Q 2003 1991 1862 2212 
Q 1722 2434 1722 2925 
L 1722 3700 
Q 1722 4144 1589 4280 
Q 1456 4416 1019 4416 
L 800 4416 
L 800 4863 
L 997 4863 
Q 1775 4863 2036 4633 
Q 2297 4403 2297 3713 
L 2297 2963 
Q 2297 2497 2465 2317 
Q 2634 2138 3078 2138 
L 3272 2138 
L 3272 1691 
L 3078 1691 
Q 2634 1691 2465 1509 
Q 2297 1328 2297 856 
L 2297 109 
Q 2297 -581 2036 -812 
Q 1775 -1044 997 -1044 
L 800 -1044 
L 800 -594 
z
" id="DejaVuSans-7d" transform="scale(0.015625)"/>
      <path d="M 750 794 
L 1409 794 
L 1409 256 
L 897 -744 
L 494 -744 
L 750 256 
L 750 794 
z
" id="DejaVuSans-2c" transform="scale(0.015625)"/>
      <path d="M 1228 531 
L 3431 531 
L 3431 0 
L 469 0 
L 469 531 
Q 828 903 1448 1529 
Q 2069 2156 2228 2338 
Q 2531 2678 2651 2914 
Q 2772 3150 2772 3378 
Q 2772 3750 2511 3984 
Q 2250 4219 1831 4219 
Q 1534 4219 1204 4116 
Q 875 4013 500 3803 
L 500 4441 
Q 881 4594 1212 4672 
Q 1544 4750 1819 4750 
Q 2544 4750 2975 4387 
Q 3406 4025 3406 3419 
Q 3406 3131 3298 2873 
Q 3191 2616 2906 2266 
Q 2828 2175 2409 1742 
Q 1991 1309 1228 531 
z
" id="DejaVuSans-32" transform="scale(0.015625)"/>
     </defs>
     <use xlink:href="#DejaVuSans-7b"/>
     <use x="63.623047" xlink:href="#DejaVuSans-66"/>
     <use x="98.828125" xlink:href="#DejaVuSans-31"/>
     <use x="162.451172" xlink:href="#DejaVuSans-30"/>
     <use x="226.074219" xlink:href="#DejaVuSans-2d"/>
     <use x="262.158203" xlink:href="#DejaVuSans-66"/>
     <use x="297.363281" xlink:href="#DejaVuSans-31"/>
     <use x="360.986328" xlink:href="#DejaVuSans-34"/>
     <use x="424.609375" xlink:href="#DejaVuSans-7d"/>
     <use x="488.232422" xlink:href="#DejaVuSans-2c"/>
     <use x="520.019531" xlink:href="#DejaVuSans-20"/>
     <use x="551.806641" xlink:href="#DejaVuSans-32"/>
     <use x="615.429688" xlink:href="#DejaVuSans-30"/>
     <use x="679.052734" xlink:href="#DejaVuSans-2d"/>
     <use x="715.136719" xlink:href="#DejaVuSans-44"/>
    </g>
   </g>
   <g id="text_7">
    <!-- v2.4 -->
    <g style="fill:#808080;" transform="translate(219.489063 288.777272)scale(0.1 -0.1)">
     <defs>
      <path d="M 191 3500 
L 800 3500 
L 1894 563 
L 2988 3500 
L 3597 3500 
L 2284 0 
L 1503 0 
L 191 3500 
z
" id="DejaVuSans-76" transform="scale(0.015625)"/>
      <path d="M 684 794 
L 1344 794 
L 1344 0 
L 684 0 
L 684 794 
z
" id="DejaVuSans-2e" transform="scale(0.015625)"/>
     </defs>
     <use xlink:href="#DejaVuSans-76"/>
     <use x="59.179688" xlink:href="#DejaVuSans-32"/>
     <use x="122.802734" xlink:href="#DejaVuSans-2e"/>
     <use x="154.589844" xlink:href="#DejaVuSans-34"/>
    </g>
   </g>
  </g>
 </g>
 <defs>
  <clipPath id="pe74d277059">
   <rect height="290.304" width="460.8" x="0" y="3.456"/>
  </clipPath>
 </defs>
</svg>
