<?xml version="1.0" encoding="utf-8" standalone="no"?>
<!DOCTYPE svg PUBLIC "-//W3C//DTD SVG 1.1//EN"
  "http://www.w3.org/Graphics/SVG/1.1/DTD/svg11.dtd">
<svg height="345.6pt" version="1.1" viewBox="0 0 460.8 345.6" width="460.8pt" xmlns="http://www.w3.org/2000/svg" xmlns:xlink="http://www.w3.org/1999/xlink">
 <metadata>
  <rdf:RDF xmlns:cc="http://creativecommons.org/ns#" xmlns:dc="http://purl.org/dc/elements/1.1/" xmlns:rdf="http://www.w3.org/1999/02/22-rdf-syntax-ns#">
   <cc:Work>
    <dc:type rdf:resource="http://purl.org/dc/dcmitype/StillImage"/>
    <dc:date>2021-07-27T16:03:40.461451</dc:date>
    <dc:format>image/svg+xml</dc:format>
    <dc:creator>
     <cc:Agent>
      <dc:title>Matplotlib v3.4.2, https://matplotlib.org/</dc:title>
     </cc:Agent>
    </dc:creator>
   </cc:Work>
  </rdf:RDF>
 </metadata>
 <defs>
  <style type="text/css">*{stroke-linecap:butt;stroke-linejoin:round;}</style>
 </defs>
 <g id="figure_1">
  <g id="patch_1">
   <path d="M 0 345.6 
L 460.8 345.6 
L 460.8 0 
L 0 0 
z
" style="fill:#ffffff;"/>
  </g>
  <g id="axes_1">
   <g id="patch_2">
    <path d="M 0 293.76 
L 460.8 293.76 
L 460.8 3.456 
L 0 3.456 
z
" style="fill:#ffffff;"/>
   </g>
   <g id="matplotlib.axis_1">
    <g id="xtick_1">
     <g id="line2d_1">
      <path clip-path="url(#p6d5a23a0c1)" d="M 102.609626 293.76 
L 102.609626 3.456 
" style="fill:none;stroke:#b0b0b0;stroke-linecap:square;stroke-width:0.8;"/>
     </g>
     <g id="line2d_2">
      <defs>
       <path d="M 0 0 
L 0 3.5 
" id="ma9cda059c7" style="stroke:#000000;stroke-width:0.8;"/>
      </defs>
      <g>
       <use style="stroke:#000000;stroke-width:0.8;" x="102.609626" xlink:href="#ma9cda059c7" y="293.76"/>
      </g>
     </g>
     <g id="text_1">
      <!-- -4 -->
      <g transform="translate(92.639313 315.956875)scale(0.2 -0.2)">
       <defs>
        <path d="M 313 2009 
L 1997 2009 
L 1997 1497 
L 313 1497 
L 313 2009 
z
" id="DejaVuSans-2d" transform="scale(0.015625)"/>
        <path d="M 2419 4116 
L 825 1625 
L 2419 1625 
L 2419 4116 
z
M 2253 4666 
L 3047 4666 
L 3047 1625 
L 3713 1625 
L 3713 1100 
L 3047 1100 
L 3047 0 
L 2419 0 
L 2419 1100 
L 313 1100 
L 313 1709 
L 2253 4666 
z
" id="DejaVuSans-34" transform="scale(0.015625)"/>
       </defs>
       <use xlink:href="#DejaVuSans-2d"/>
       <use x="36.083984" xlink:href="#DejaVuSans-34"/>
      </g>
     </g>
    </g>
    <g id="xtick_2">
     <g id="line2d_3">
      <path clip-path="url(#p6d5a23a0c1)" d="M 205.330225 293.76 
L 205.330225 3.456 
" style="fill:none;stroke:#b0b0b0;stroke-linecap:square;stroke-width:0.8;"/>
     </g>
     <g id="line2d_4">
      <g>
       <use style="stroke:#000000;stroke-width:0.8;" x="205.330225" xlink:href="#ma9cda059c7" y="293.76"/>
      </g>
     </g>
     <g id="text_2">
      <!-- 0 -->
      <g transform="translate(198.967725 315.956875)scale(0.2 -0.2)">
       <defs>
        <path d="M 2034 4250 
Q 1547 4250 1301 3770 
Q 1056 3291 1056 2328 
Q 1056 1369 1301 889 
Q 1547 409 2034 409 
Q 2525 409 2770 889 
Q 3016 1369 3016 2328 
Q 3016 3291 2770 3770 
Q 2525 4250 2034 4250 
z
M 2034 4750 
Q 2819 4750 3233 4129 
Q 3647 3509 3647 2328 
Q 3647 1150 3233 529 
Q 2819 -91 2034 -91 
Q 1250 -91 836 529 
Q 422 1150 422 2328 
Q 422 3509 836 4129 
Q 1250 4750 2034 4750 
z
" id="DejaVuSans-30" transform="scale(0.015625)"/>
       </defs>
       <use xlink:href="#DejaVuSans-30"/>
      </g>
     </g>
    </g>
    <g id="xtick_3">
     <g id="line2d_5">
      <path clip-path="url(#p6d5a23a0c1)" d="M 308.050825 293.76 
L 308.050825 3.456 
" style="fill:none;stroke:#b0b0b0;stroke-linecap:square;stroke-width:0.8;"/>
     </g>
     <g id="line2d_6">
      <g>
       <use style="stroke:#000000;stroke-width:0.8;" x="308.050825" xlink:href="#ma9cda059c7" y="293.76"/>
      </g>
     </g>
     <g id="text_3">
      <!-- 4 -->
      <g transform="translate(301.688325 315.956875)scale(0.2 -0.2)">
       <use xlink:href="#DejaVuSans-34"/>
      </g>
     </g>
    </g>
    <g id="xtick_4">
     <g id="line2d_7">
      <path clip-path="url(#p6d5a23a0c1)" d="M 410.771424 293.76 
L 410.771424 3.456 
" style="fill:none;stroke:#b0b0b0;stroke-linecap:square;stroke-width:0.8;"/>
     </g>
     <g id="line2d_8">
      <g>
       <use style="stroke:#000000;stroke-width:0.8;" x="410.771424" xlink:href="#ma9cda059c7" y="293.76"/>
      </g>
     </g>
     <g id="text_4">
      <!-- 8 -->
      <g transform="translate(404.408924 315.956875)scale(0.2 -0.2)">
       <defs>
        <path d="M 2034 2216 
Q 1584 2216 1326 1975 
Q 1069 1734 1069 1313 
Q 1069 891 1326 650 
Q 1584 409 2034 409 
Q 2484 409 2743 651 
Q 3003 894 3003 1313 
Q 3003 1734 2745 1975 
Q 2488 2216 2034 2216 
z
M 1403 2484 
Q 997 2584 770 2862 
Q 544 3141 544 3541 
Q 544 4100 942 4425 
Q 1341 4750 2034 4750 
Q 2731 4750 3128 4425 
Q 3525 4100 3525 3541 
Q 3525 3141 3298 2862 
Q 3072 2584 2669 2484 
Q 3125 2378 3379 2068 
Q 3634 1759 3634 1313 
Q 3634 634 3220 271 
Q 2806 -91 2034 -91 
Q 1263 -91 848 271 
Q 434 634 434 1313 
Q 434 1759 690 2068 
Q 947 2378 1403 2484 
z
M 1172 3481 
Q 1172 3119 1398 2916 
Q 1625 2713 2034 2713 
Q 2441 2713 2670 2916 
Q 2900 3119 2900 3481 
Q 2900 3844 2670 4047 
Q 2441 4250 2034 4250 
Q 1625 4250 1398 4047 
Q 1172 3844 1172 3481 
z
" id="DejaVuSans-38" transform="scale(0.015625)"/>
       </defs>
       <use xlink:href="#DejaVuSans-38"/>
      </g>
     </g>
    </g>
    <g id="text_5">
     <!-- log10 of Df -->
     <g transform="translate(175.214063 339.313125)scale(0.2 -0.2)">
      <defs>
       <path d="M 603 4863 
L 1178 4863 
L 1178 0 
L 603 0 
L 603 4863 
z
" id="DejaVuSans-6c" transform="scale(0.015625)"/>
       <path d="M 1959 3097 
Q 1497 3097 1228 2736 
Q 959 2375 959 1747 
Q 959 1119 1226 758 
Q 1494 397 1959 397 
Q 2419 397 2687 759 
Q 2956 1122 2956 1747 
Q 2956 2369 2687 2733 
Q 2419 3097 1959 3097 
z
M 1959 3584 
Q 2709 3584 3137 3096 
Q 3566 2609 3566 1747 
Q 3566 888 3137 398 
Q 2709 -91 1959 -91 
Q 1206 -91 779 398 
Q 353 888 353 1747 
Q 353 2609 779 3096 
Q 1206 3584 1959 3584 
z
" id="DejaVuSans-6f" transform="scale(0.015625)"/>
       <path d="M 2906 1791 
Q 2906 2416 2648 2759 
Q 2391 3103 1925 3103 
Q 1463 3103 1205 2759 
Q 947 2416 947 1791 
Q 947 1169 1205 825 
Q 1463 481 1925 481 
Q 2391 481 2648 825 
Q 2906 1169 2906 1791 
z
M 3481 434 
Q 3481 -459 3084 -895 
Q 2688 -1331 1869 -1331 
Q 1566 -1331 1297 -1286 
Q 1028 -1241 775 -1147 
L 775 -588 
Q 1028 -725 1275 -790 
Q 1522 -856 1778 -856 
Q 2344 -856 2625 -561 
Q 2906 -266 2906 331 
L 2906 616 
Q 2728 306 2450 153 
Q 2172 0 1784 0 
Q 1141 0 747 490 
Q 353 981 353 1791 
Q 353 2603 747 3093 
Q 1141 3584 1784 3584 
Q 2172 3584 2450 3431 
Q 2728 3278 2906 2969 
L 2906 3500 
L 3481 3500 
L 3481 434 
z
" id="DejaVuSans-67" transform="scale(0.015625)"/>
       <path d="M 794 531 
L 1825 531 
L 1825 4091 
L 703 3866 
L 703 4441 
L 1819 4666 
L 2450 4666 
L 2450 531 
L 3481 531 
L 3481 0 
L 794 0 
L 794 531 
z
" id="DejaVuSans-31" transform="scale(0.015625)"/>
       <path id="DejaVuSans-20" transform="scale(0.015625)"/>
       <path d="M 2375 4863 
L 2375 4384 
L 1825 4384 
Q 1516 4384 1395 4259 
Q 1275 4134 1275 3809 
L 1275 3500 
L 2222 3500 
L 2222 3053 
L 1275 3053 
L 1275 0 
L 697 0 
L 697 3053 
L 147 3053 
L 147 3500 
L 697 3500 
L 697 3744 
Q 697 4328 969 4595 
Q 1241 4863 1831 4863 
L 2375 4863 
z
" id="DejaVuSans-66" transform="scale(0.015625)"/>
       <path d="M 1259 4147 
L 1259 519 
L 2022 519 
Q 2988 519 3436 956 
Q 3884 1394 3884 2338 
Q 3884 3275 3436 3711 
Q 2988 4147 2022 4147 
L 1259 4147 
z
M 628 4666 
L 1925 4666 
Q 3281 4666 3915 4102 
Q 4550 3538 4550 2338 
Q 4550 1131 3912 565 
Q 3275 0 1925 0 
L 628 0 
L 628 4666 
z
" id="DejaVuSans-44" transform="scale(0.015625)"/>
      </defs>
      <use xlink:href="#DejaVuSans-6c"/>
      <use x="27.783203" xlink:href="#DejaVuSans-6f"/>
      <use x="88.964844" xlink:href="#DejaVuSans-67"/>
      <use x="152.441406" xlink:href="#DejaVuSans-31"/>
      <use x="216.064453" xlink:href="#DejaVuSans-30"/>
      <use x="279.6875" xlink:href="#DejaVuSans-20"/>
      <use x="311.474609" xlink:href="#DejaVuSans-6f"/>
      <use x="372.65625" xlink:href="#DejaVuSans-66"/>
      <use x="407.861328" xlink:href="#DejaVuSans-20"/>
      <use x="439.648438" xlink:href="#DejaVuSans-44"/>
      <use x="516.650391" xlink:href="#DejaVuSans-66"/>
     </g>
    </g>
   </g>
   <g id="matplotlib.axis_2">
    <g id="ytick_1">
     <g id="line2d_9">
      <path clip-path="url(#p6d5a23a0c1)" d="M 0 293.76 
L 460.8 293.76 
" style="fill:none;stroke:#b0b0b0;stroke-linecap:square;stroke-width:0.8;"/>
     </g>
     <g id="line2d_10">
      <defs>
       <path d="M 0 0 
L -3.5 0 
" id="m03c1a7ef91" style="stroke:#000000;stroke-width:0.8;"/>
      </defs>
      <g>
       <use style="stroke:#000000;stroke-width:0.8;" x="0" xlink:href="#m03c1a7ef91" y="293.76"/>
      </g>
     </g>
    </g>
    <g id="ytick_2">
     <g id="line2d_11">
      <path clip-path="url(#p6d5a23a0c1)" d="M 0 236.274059 
L 460.8 236.274059 
" style="fill:none;stroke:#b0b0b0;stroke-linecap:square;stroke-width:0.8;"/>
     </g>
     <g id="line2d_12">
      <g>
       <use style="stroke:#000000;stroke-width:0.8;" x="0" xlink:href="#m03c1a7ef91" y="236.274059"/>
      </g>
     </g>
    </g>
    <g id="ytick_3">
     <g id="line2d_13">
      <path clip-path="url(#p6d5a23a0c1)" d="M 0 178.788119 
L 460.8 178.788119 
" style="fill:none;stroke:#b0b0b0;stroke-linecap:square;stroke-width:0.8;"/>
     </g>
     <g id="line2d_14">
      <g>
       <use style="stroke:#000000;stroke-width:0.8;" x="0" xlink:href="#m03c1a7ef91" y="178.788119"/>
      </g>
     </g>
    </g>
    <g id="ytick_4">
     <g id="line2d_15">
      <path clip-path="url(#p6d5a23a0c1)" d="M 0 121.302178 
L 460.8 121.302178 
" style="fill:none;stroke:#b0b0b0;stroke-linecap:square;stroke-width:0.8;"/>
     </g>
     <g id="line2d_16">
      <g>
       <use style="stroke:#000000;stroke-width:0.8;" x="0" xlink:href="#m03c1a7ef91" y="121.302178"/>
      </g>
     </g>
    </g>
    <g id="ytick_5">
     <g id="line2d_17">
      <path clip-path="url(#p6d5a23a0c1)" d="M 0 63.816238 
L 460.8 63.816238 
" style="fill:none;stroke:#b0b0b0;stroke-linecap:square;stroke-width:0.8;"/>
     </g>
     <g id="line2d_18">
      <g>
       <use style="stroke:#000000;stroke-width:0.8;" x="0" xlink:href="#m03c1a7ef91" y="63.816238"/>
      </g>
     </g>
    </g>
    <g id="ytick_6">
     <g id="line2d_19">
      <path clip-path="url(#p6d5a23a0c1)" d="M 0 6.330297 
L 460.8 6.330297 
" style="fill:none;stroke:#b0b0b0;stroke-linecap:square;stroke-width:0.8;"/>
     </g>
     <g id="line2d_20">
      <g>
       <use style="stroke:#000000;stroke-width:0.8;" x="0" xlink:href="#m03c1a7ef91" y="6.330297"/>
      </g>
     </g>
    </g>
   </g>
   <g id="line2d_21">
    <path clip-path="url(#p6d5a23a0c1)" d="M -1 282.262812 
L 158.621193 282.262812 
L 158.621193 278.430416 
L 163.510791 278.430416 
L 163.510791 274.59802 
L 166.453887 274.59802 
L 166.453887 270.765624 
L 170.59968 270.765624 
L 170.59968 266.933228 
L 171.512773 266.933228 
L 171.512773 263.100832 
L 171.94194 263.100832 
L 171.94194 259.268436 
L 172.857036 259.268436 
L 172.857036 255.43604 
L 174.021216 255.43604 
L 174.021216 251.603644 
L 177.681499 251.603644 
L 177.69602 243.938851 
L 178.453865 243.938851 
L 178.453865 240.106455 
L 178.700355 240.106455 
L 178.712303 232.441663 
L 180.753377 232.441663 
L 180.753377 228.609267 
L 187.388223 228.609267 
L 187.388223 224.776871 
L 201.22182 224.776871 
L 201.22182 213.279683 
L 208.110815 213.279683 
L 208.110815 209.447287 
L 208.937074 209.447287 
L 208.937074 205.614891 
L 209.405475 205.614891 
L 209.405475 201.782495 
L 209.854146 201.782495 
L 209.854146 197.950099 
L 210.634081 197.950099 
L 210.634081 194.117703 
L 210.769757 194.117703 
L 210.769757 190.285307 
L 211.036479 190.285307 
L 211.036479 186.452911 
L 211.426185 186.452911 
L 211.49016 178.788119 
L 211.739895 178.788119 
L 211.801603 171.123327 
L 212.165536 171.123327 
L 212.165536 167.290931 
L 212.401868 167.290931 
L 212.460087 159.626139 
L 212.806911 159.626139 
L 212.806911 140.464158 
L 213.301572 140.464158 
L 213.352476 128.96697 
L 213.703396 128.96697 
L 213.703396 121.302178 
L 222.622313 121.302178 
L 222.622313 109.80499 
L 223.418948 109.80499 
L 223.418948 105.972594 
L 227.050138 105.972594 
L 227.050138 102.140198 
L 229.511889 102.140198 
L 229.511889 79.145822 
L 232.047449 79.145822 
L 232.047449 75.313426 
L 239.822908 75.313426 
L 239.822908 71.48103 
L 240.00405 71.48103 
L 240.00405 67.648634 
L 240.289662 67.648634 
L 240.289662 63.816238 
L 240.536722 63.816238 
L 240.594006 52.31905 
L 240.71581 52.31905 
L 240.739688 33.157069 
L 240.867148 33.157069 
L 240.936217 25.492277 
L 241.000225 25.492277 
L 241.014417 13.995089 
L 241.287626 13.995089 
L 241.287626 10.162693 
L 242.208698 10.162693 
L 242.208698 6.330297 
L 242.208698 6.330297 
L 460.8 6.330297 
L 460.8 6.330297 
" style="fill:none;stroke:#ff0000;stroke-linecap:square;stroke-width:3;"/>
   </g>
   <g id="line2d_22">
    <path clip-path="url(#p6d5a23a0c1)" d="M 223.254743 293.76 
L 223.254743 289.927604 
L 224.819609 289.927604 
L 224.819609 286.095208 
L 225.023533 286.095208 
L 225.023533 282.262812 
L 226.971233 282.262812 
L 226.971233 278.430416 
L 227.178084 278.430416 
L 227.178084 274.59802 
L 227.971071 274.59802 
L 227.971071 270.765624 
L 228.963169 270.765624 
L 228.963169 266.933228 
L 229.602538 266.933228 
L 229.602538 263.100832 
L 229.910531 263.100832 
L 229.910531 259.268436 
L 230.24227 259.268436 
L 230.24227 255.43604 
L 230.917531 255.43604 
L 230.917531 251.603644 
L 231.361613 251.603644 
L 231.443962 243.938851 
L 231.506292 243.938851 
L 231.506292 240.106455 
L 232.834679 240.106455 
L 232.834679 236.274059 
L 252.949739 236.274059 
L 253.036464 224.776871 
L 253.313457 224.776871 
L 253.313457 220.944475 
L 253.445622 220.944475 
L 253.445622 217.112079 
L 253.586654 217.112079 
L 253.692788 205.614891 
L 253.738331 205.614891 
L 253.808368 182.620515 
L 253.863801 182.620515 
L 253.962265 171.123327 
L 254.049611 171.123327 
L 254.120945 155.793743 
L 254.271323 155.793743 
L 254.381492 140.464158 
L 254.418186 140.464158 
L 254.418186 136.631762 
L 254.607701 136.631762 
L 254.675693 125.134574 
L 254.731376 125.134574 
L 254.731376 121.302178 
L 267.53479 121.302178 
L 267.53479 117.469782 
L 269.694795 117.469782 
L 269.694795 113.637386 
L 270.059413 113.637386 
L 270.059413 109.80499 
L 270.312129 109.80499 
L 270.312129 105.972594 
L 270.551517 105.972594 
L 270.551517 102.140198 
L 271.01465 102.140198 
L 271.01465 98.307802 
L 271.133976 98.307802 
L 271.133976 94.475406 
L 271.627679 94.475406 
L 271.627679 90.64301 
L 271.738872 90.64301 
L 271.800896 79.145822 
L 272.022812 79.145822 
L 272.067538 71.48103 
L 272.274419 71.48103 
L 272.274419 67.648634 
L 272.683349 67.648634 
L 272.683349 63.816238 
L 307.790288 63.816238 
L 307.790288 59.983842 
L 310.653303 59.983842 
L 310.653303 56.151446 
L 312.76263 56.151446 
L 312.763403 48.486653 
L 315.794276 48.486653 
L 315.794276 44.654257 
L 316.008384 44.654257 
L 316.008384 40.821861 
L 316.691292 40.821861 
L 316.691292 36.989465 
L 318.236115 36.989465 
L 318.236115 33.157069 
L 318.553552 33.157069 
L 318.553552 29.324673 
L 322.344455 29.324673 
L 322.344455 25.492277 
L 322.601036 25.492277 
L 322.601036 21.659881 
L 323.288728 21.659881 
L 323.288728 17.827485 
L 323.58329 17.827485 
L 323.58329 13.995089 
L 324.282412 13.995089 
L 324.282412 10.162693 
L 325.976921 10.162693 
L 325.976921 6.330297 
L 325.976921 6.330297 
L 460.8 6.330297 
L 460.8 6.330297 
" style="fill:none;stroke:#00bfbf;stroke-linecap:square;stroke-width:1.5;"/>
   </g>
   <g id="line2d_23">
    <path clip-path="url(#p6d5a23a0c1)" d="M 222.874449 293.76 
L 222.874449 289.927604 
L 223.254743 289.927604 
L 223.254743 286.095208 
L 223.66883 286.095208 
L 223.66883 282.262812 
L 224.819609 282.262812 
L 224.819609 278.430416 
L 225.678322 278.430416 
L 225.678322 274.59802 
L 225.928273 274.59802 
L 225.928273 270.765624 
L 226.971233 270.765624 
L 226.971233 266.933228 
L 227.178084 266.933228 
L 227.185683 259.268436 
L 227.490081 259.268436 
L 227.490081 255.43604 
L 227.603573 255.43604 
L 227.603573 251.603644 
L 227.971071 251.603644 
L 227.971071 247.771248 
L 229.38537 247.771248 
L 229.38537 243.938851 
L 229.682695 243.938851 
L 229.682695 240.106455 
L 230.884949 240.106455 
L 230.884949 236.274059 
L 252.847783 236.274059 
L 252.949739 228.609267 
L 253.00189 228.609267 
L 253.11129 217.112079 
L 253.210055 217.112079 
L 253.313457 197.950099 
L 253.445622 197.950099 
L 253.538747 190.285307 
L 253.586654 190.285307 
L 253.692788 178.788119 
L 253.740735 178.788119 
L 253.800126 163.458535 
L 253.896376 163.458535 
L 253.962265 155.793743 
L 254.10745 155.793743 
L 254.212266 136.631762 
L 254.233521 136.631762 
L 254.297339 125.134574 
L 254.354909 125.134574 
L 254.354909 121.302178 
L 267.53479 121.302178 
L 267.53479 117.469782 
L 268.525115 117.469782 
L 268.525115 113.637386 
L 268.845448 113.637386 
L 268.845448 109.80499 
L 269.473499 109.80499 
L 269.473499 105.972594 
L 269.661608 105.972594 
L 269.694795 98.307802 
L 270.059413 98.307802 
L 270.059413 94.475406 
L 270.588454 94.475406 
L 270.679378 86.810614 
L 270.736769 86.810614 
L 270.815983 79.145822 
L 270.913826 79.145822 
L 271.01465 71.48103 
L 271.200273 71.48103 
L 271.200273 67.648634 
L 271.468832 67.648634 
L 271.468832 63.816238 
L 303.428892 63.816238 
L 303.428892 59.983842 
L 307.790288 59.983842 
L 307.790288 56.151446 
L 309.331739 56.151446 
L 309.331739 52.31905 
L 310.653303 52.31905 
L 310.653303 48.486653 
L 311.842588 48.486653 
L 311.842588 44.654257 
L 312.606032 44.654257 
L 312.711483 36.989465 
L 312.76263 36.989465 
L 312.76263 33.157069 
L 315.794276 33.157069 
L 315.882953 25.492277 
L 316.691292 25.492277 
L 316.691292 21.659881 
L 318.214869 21.659881 
L 318.214869 17.827485 
L 318.553552 17.827485 
L 318.553552 13.995089 
L 319.536932 13.995089 
L 319.536932 10.162693 
L 320.965877 10.162693 
L 320.965877 6.330297 
L 320.965877 6.330297 
L 460.8 6.330297 
L 460.8 6.330297 
" style="fill:none;stroke:#bf00bf;stroke-linecap:square;stroke-width:1.5;"/>
   </g>
   <g id="line2d_24">
    <path clip-path="url(#p6d5a23a0c1)" d="M 221.951503 293.76 
L 221.951503 289.927604 
L 222.577234 289.927604 
L 222.661284 282.262812 
L 222.874449 282.262812 
L 222.874449 278.430416 
L 223.254743 278.430416 
L 223.254743 274.59802 
L 223.470093 274.59802 
L 223.470093 270.765624 
L 223.66883 270.765624 
L 223.66883 266.933228 
L 224.661704 266.933228 
L 224.661704 263.100832 
L 224.819609 263.100832 
L 224.819609 259.268436 
L 225.457417 259.268436 
L 225.457417 255.43604 
L 225.678322 255.43604 
L 225.678322 251.603644 
L 225.928273 251.603644 
L 225.928273 247.771248 
L 227.111502 247.771248 
L 227.185683 240.106455 
L 227.563773 240.106455 
L 227.563773 236.274059 
L 252.313283 236.274059 
L 252.345101 228.609267 
L 252.463679 228.609267 
L 252.463679 224.776871 
L 252.691951 224.776871 
L 252.691951 220.944475 
L 252.810883 220.944475 
L 252.810883 217.112079 
L 252.945806 217.112079 
L 253.036464 201.782495 
L 253.08929 201.782495 
L 253.08929 197.950099 
L 253.28666 197.950099 
L 253.378728 174.955723 
L 253.46988 174.955723 
L 253.529727 167.290931 
L 253.637154 167.290931 
L 253.690024 155.793743 
L 253.762852 155.793743 
L 253.83055 144.296554 
L 253.896376 144.296554 
L 253.962265 136.631762 
L 254.026443 136.631762 
L 254.113866 128.96697 
L 254.261046 128.96697 
L 254.268367 121.302178 
L 267.53479 121.302178 
L 267.53479 117.469782 
L 268.525115 117.469782 
L 268.525115 113.637386 
L 268.763246 113.637386 
L 268.845448 105.972594 
L 269.028582 105.972594 
L 269.080651 98.307802 
L 269.332141 98.307802 
L 269.332141 94.475406 
L 269.473499 94.475406 
L 269.483564 86.810614 
L 269.694795 86.810614 
L 269.694795 82.978218 
L 269.83096 82.978218 
L 269.860875 71.48103 
L 270.506194 71.48103 
L 270.506194 67.648634 
L 271.01465 67.648634 
L 271.01465 63.816238 
L 303.428892 63.816238 
L 303.428892 59.983842 
L 305.382412 59.983842 
L 305.382412 56.151446 
L 306.56965 56.151446 
L 306.56965 52.31905 
L 307.238961 52.31905 
L 307.238961 48.486653 
L 307.790288 48.486653 
L 307.790288 44.654257 
L 307.902125 44.654257 
L 307.902125 40.821861 
L 309.331739 40.821861 
L 309.331739 36.989465 
L 310.732856 36.989465 
L 310.732856 33.157069 
L 311.842588 33.157069 
L 311.842588 29.324673 
L 312.606032 29.324673 
L 312.606032 25.492277 
L 313.685341 25.492277 
L 313.685341 21.659881 
L 314.172501 21.659881 
L 314.172501 17.827485 
L 314.84976 17.827485 
L 314.84976 13.995089 
L 315.287885 13.995089 
L 315.287885 10.162693 
L 316.691292 10.162693 
L 316.691292 6.330297 
L 316.691292 6.330297 
L 460.8 6.330297 
L 460.8 6.330297 
" style="fill:none;stroke:#000000;stroke-linecap:square;stroke-width:1.5;"/>
   </g>
   <g id="line2d_25">
    <path clip-path="url(#p6d5a23a0c1)" d="M 215.852052 293.76 
L 215.852052 289.927604 
L 220.558706 289.927604 
L 220.593016 282.262812 
L 221.14369 282.262812 
L 221.14369 278.430416 
L 221.951503 278.430416 
L 221.951503 274.59802 
L 222.507964 274.59802 
L 222.577234 266.933228 
L 222.69192 266.933228 
L 222.784948 259.268436 
L 223.254743 259.268436 
L 223.254743 255.43604 
L 223.470093 255.43604 
L 223.470093 251.603644 
L 223.892581 251.603644 
L 223.892581 247.771248 
L 224.061482 247.771248 
L 224.061482 243.938851 
L 224.661704 243.938851 
L 224.70855 236.274059 
L 249.885197 236.274059 
L 249.885197 232.441663 
L 251.548312 232.441663 
L 251.649164 224.776871 
L 251.865051 224.776871 
L 251.865051 220.944475 
L 252.313283 220.944475 
L 252.412873 213.279683 
L 252.43507 213.279683 
L 252.526875 197.950099 
L 252.691951 197.950099 
L 252.794914 190.285307 
L 252.813573 190.285307 
L 252.919768 174.955723 
L 252.953785 174.955723 
L 252.998454 159.626139 
L 253.090943 159.626139 
L 253.090943 155.793743 
L 253.245914 155.793743 
L 253.336869 148.12895 
L 253.394791 148.12895 
L 253.394791 144.296554 
L 253.629066 144.296554 
L 253.691978 128.96697 
L 253.840232 128.96697 
L 253.929132 121.302178 
L 266.632416 121.302178 
L 266.632416 117.469782 
L 267.53479 117.469782 
L 267.53479 113.637386 
L 267.783824 113.637386 
L 267.873723 105.972594 
L 268.039816 105.972594 
L 268.039816 102.140198 
L 268.195075 102.140198 
L 268.242819 94.475406 
L 268.580175 94.475406 
L 268.649158 82.978218 
L 268.763246 82.978218 
L 268.763246 79.145822 
L 268.947308 79.145822 
L 269.050664 67.648634 
L 269.584186 67.648634 
L 269.584186 63.816238 
L 296.182906 63.816238 
L 296.182906 59.983842 
L 297.212795 59.983842 
L 297.212795 56.151446 
L 298.156444 56.151446 
L 298.159989 48.486653 
L 298.533186 48.486653 
L 298.533186 44.654257 
L 298.810173 44.654257 
L 298.810173 40.821861 
L 302.497728 40.821861 
L 302.497728 36.989465 
L 302.871947 36.989465 
L 302.871947 33.157069 
L 303.205004 33.157069 
L 303.205004 29.324673 
L 303.428892 29.324673 
L 303.428892 25.492277 
L 303.908407 25.492277 
L 303.908407 21.659881 
L 304.743099 21.659881 
L 304.743099 17.827485 
L 305.382412 17.827485 
L 305.382412 13.995089 
L 306.3073 13.995089 
L 306.3073 10.162693 
L 309.377765 10.162693 
L 309.377765 6.330297 
L 309.377765 6.330297 
L 460.8 6.330297 
L 460.8 6.330297 
" style="fill:none;stroke:#00bfbf;stroke-linecap:square;stroke-width:1.5;"/>
   </g>
   <g id="line2d_26">
    <path clip-path="url(#p6d5a23a0c1)" d="M 213.508341 293.76 
L 213.508341 289.927604 
L 215.722101 289.927604 
L 215.722101 286.095208 
L 215.852052 286.095208 
L 215.852052 282.262812 
L 216.258311 282.262812 
L 216.258311 278.430416 
L 217.469185 278.430416 
L 217.538117 270.765624 
L 217.975914 270.765624 
L 217.975914 266.933228 
L 218.149222 266.933228 
L 218.255143 259.268436 
L 218.348393 259.268436 
L 218.365778 251.603644 
L 218.662994 251.603644 
L 218.764375 232.441663 
L 218.805787 232.441663 
L 218.851995 224.776871 
L 219.046407 224.776871 
L 219.146367 217.112079 
L 219.232874 217.112079 
L 219.325864 205.614891 
L 219.483323 205.614891 
L 219.502114 197.950099 
L 219.639312 197.950099 
L 219.639312 194.117703 
L 220.044061 194.117703 
L 220.061321 186.452911 
L 220.223821 186.452911 
L 220.292686 171.123327 
L 220.337608 171.123327 
L 220.337608 167.290931 
L 224.777555 167.290931 
L 224.777555 163.458535 
L 226.2059 163.458535 
L 226.2059 159.626139 
L 227.607422 159.626139 
L 227.607422 155.793743 
L 228.679444 155.793743 
L 228.679444 151.961347 
L 228.940109 151.961347 
L 228.940109 148.12895 
L 229.072861 148.12895 
L 229.072861 144.296554 
L 229.890939 144.296554 
L 229.898189 136.631762 
L 231.340703 136.631762 
L 231.340703 132.799366 
L 231.747522 132.799366 
L 231.747522 128.96697 
L 232.964618 128.96697 
L 232.964618 125.134574 
L 233.409316 125.134574 
L 233.409316 121.302178 
L 234.551472 121.302178 
L 234.616194 113.637386 
L 234.796632 113.637386 
L 234.796632 109.80499 
L 235.30026 109.80499 
L 235.30026 105.972594 
L 235.564556 105.972594 
L 235.564556 102.140198 
L 236.070601 102.140198 
L 236.070601 98.307802 
L 236.805448 98.307802 
L 236.805448 94.475406 
L 238.680431 94.475406 
L 238.687706 86.810614 
L 241.990217 86.810614 
L 241.990217 82.978218 
L 242.240082 82.978218 
L 242.240082 79.145822 
L 243.057435 79.145822 
L 243.057435 75.313426 
L 243.365621 75.313426 
L 243.397414 67.648634 
L 243.495333 67.648634 
L 243.495333 63.816238 
L 260.746154 63.816238 
L 260.746154 59.983842 
L 261.43042 59.983842 
L 261.43042 56.151446 
L 261.809039 56.151446 
L 261.809039 52.31905 
L 262.066466 52.31905 
L 262.175082 44.654257 
L 262.443036 44.654257 
L 262.443036 40.821861 
L 262.61267 40.821861 
L 262.61267 36.989465 
L 262.874464 36.989465 
L 262.890255 29.324673 
L 263.036998 29.324673 
L 263.036998 25.492277 
L 263.336556 25.492277 
L 263.425161 17.827485 
L 263.582571 17.827485 
L 263.582571 13.995089 
L 263.77417 13.995089 
L 263.77417 10.162693 
L 264.263692 10.162693 
L 264.263692 6.330297 
L 264.263692 6.330297 
L 460.8 6.330297 
L 460.8 6.330297 
" style="fill:none;stroke:#bf00bf;stroke-linecap:square;stroke-width:1.5;"/>
   </g>
   <g id="line2d_27">
    <path clip-path="url(#p6d5a23a0c1)" d="M -1 282.262812 
L 201.22182 282.262812 
L 201.22182 270.765624 
L 208.044397 270.765624 
L 208.044397 266.933228 
L 209.405482 266.933228 
L 209.405482 263.100832 
L 209.876777 263.100832 
L 209.876777 259.268436 
L 210.634368 259.268436 
L 210.634368 255.43604 
L 211.036537 255.43604 
L 211.036537 251.603644 
L 211.427484 251.603644 
L 211.517768 243.938851 
L 211.739895 243.938851 
L 211.801603 236.274059 
L 212.165685 236.274059 
L 212.165685 232.441663 
L 212.479445 232.441663 
L 212.479445 228.609267 
L 212.806911 228.609267 
L 212.806911 209.447287 
L 213.301572 209.447287 
L 213.352484 197.950099 
L 213.474709 197.950099 
L 213.474709 194.117703 
L 213.703396 194.117703 
L 213.710177 182.620515 
L 213.887608 182.620515 
L 213.964844 171.123327 
L 214.023152 171.123327 
L 214.089437 163.458535 
L 214.2337 163.458535 
L 214.2337 159.626139 
L 215.053534 159.626139 
L 215.098645 151.961347 
L 215.271183 151.961347 
L 215.271183 148.12895 
L 215.541244 148.12895 
L 215.541244 144.296554 
L 215.852052 144.296554 
L 215.901568 136.631762 
L 216.237162 136.631762 
L 216.237162 132.799366 
L 216.46301 132.799366 
L 216.46301 128.96697 
L 216.926121 128.96697 
L 216.926121 125.134574 
L 217.28817 125.134574 
L 217.28817 121.302178 
L 222.622313 121.302178 
L 222.622313 109.80499 
L 223.418948 109.80499 
L 223.418948 105.972594 
L 227.050138 105.972594 
L 227.050138 102.140198 
L 229.511889 102.140198 
L 229.511889 79.145822 
L 232.047449 79.145822 
L 232.047449 75.313426 
L 240.732629 75.313426 
L 240.732629 63.816238 
L 256.28915 63.816238 
L 256.28915 59.983842 
L 256.403251 59.983842 
L 256.403251 56.151446 
L 256.858467 56.151446 
L 256.858467 52.31905 
L 257.041157 52.31905 
L 257.108765 44.654257 
L 257.349184 44.654257 
L 257.440661 36.989465 
L 257.555234 36.989465 
L 257.636589 25.492277 
L 258.177523 25.492277 
L 258.177523 21.659881 
L 258.321559 21.659881 
L 258.410167 6.330297 
L 258.410167 6.330297 
L 460.8 6.330297 
L 460.8 6.330297 
" style="fill:none;stroke:#000000;stroke-linecap:square;stroke-width:1.5;"/>
   </g>
   <g id="line2d_28">
    <path clip-path="url(#p6d5a23a0c1)" d="M -1 282.262812 
L 158.621193 282.262812 
L 158.621193 278.430416 
L 166.453887 278.430416 
L 166.453887 274.59802 
L 170.59968 274.59802 
L 170.59968 270.765624 
L 171.512773 270.765624 
L 171.512773 266.933228 
L 171.94194 266.933228 
L 171.94194 263.100832 
L 172.857036 263.100832 
L 172.857036 259.268436 
L 174.021216 259.268436 
L 174.021216 255.43604 
L 177.681499 255.43604 
L 177.69602 247.771248 
L 178.453865 247.771248 
L 178.453865 243.938851 
L 178.700355 243.938851 
L 178.700355 240.106455 
L 180.753377 240.106455 
L 180.753377 236.274059 
L 197.270695 236.274059 
L 197.270695 232.441663 
L 201.22182 232.441663 
L 201.22182 220.944475 
L 208.110815 220.944475 
L 208.110815 217.112079 
L 208.937074 217.112079 
L 208.937074 213.279683 
L 209.405475 213.279683 
L 209.405475 209.447287 
L 209.854146 209.447287 
L 209.854146 205.614891 
L 210.634081 205.614891 
L 210.634081 201.782495 
L 210.769757 201.782495 
L 210.769757 197.950099 
L 211.036479 197.950099 
L 211.036479 194.117703 
L 211.426185 194.117703 
L 211.49016 186.452911 
L 211.739895 186.452911 
L 211.801603 178.788119 
L 212.165536 178.788119 
L 212.165536 174.955723 
L 212.401868 174.955723 
L 212.460087 167.290931 
L 212.590488 167.290931 
L 212.590488 163.458535 
L 212.806911 163.458535 
L 212.806911 144.296554 
L 213.301572 144.296554 
L 213.352476 132.799366 
L 213.703396 132.799366 
L 213.703396 125.134574 
L 214.039522 125.134574 
L 214.039522 121.302178 
L 222.622313 121.302178 
L 222.622313 109.80499 
L 223.418948 109.80499 
L 223.418948 105.972594 
L 227.050138 105.972594 
L 227.050138 102.140198 
L 229.511889 102.140198 
L 229.511889 79.145822 
L 232.047449 79.145822 
L 232.047449 75.313426 
L 239.822908 75.313426 
L 239.822908 71.48103 
L 240.00405 71.48103 
L 240.00405 67.648634 
L 240.289662 67.648634 
L 240.289662 63.816238 
L 240.536722 63.816238 
L 240.594006 52.31905 
L 240.71581 52.31905 
L 240.739688 33.157069 
L 240.867148 33.157069 
L 240.936217 25.492277 
L 241.000225 25.492277 
L 241.014417 13.995089 
L 241.287626 13.995089 
L 241.287626 10.162693 
L 242.208698 10.162693 
L 242.208698 6.330297 
L 242.208698 6.330297 
L 460.8 6.330297 
L 460.8 6.330297 
" style="fill:none;stroke:#00bfbf;stroke-linecap:square;stroke-width:1.5;"/>
   </g>
   <g id="patch_3">
    <path d="M 0 293.76 
L 0 3.456 
" style="fill:none;stroke:#000000;stroke-linecap:square;stroke-linejoin:miter;stroke-width:0.8;"/>
   </g>
   <g id="patch_4">
    <path d="M 460.8 293.76 
L 460.8 3.456 
" style="fill:none;stroke:#000000;stroke-linecap:square;stroke-linejoin:miter;stroke-width:0.8;"/>
   </g>
   <g id="patch_5">
    <path d="M 0 293.76 
L 460.8 293.76 
" style="fill:none;stroke:#000000;stroke-linecap:square;stroke-linejoin:miter;stroke-width:0.8;"/>
   </g>
   <g id="patch_6">
    <path d="M 0 3.456 
L 460.8 3.456 
" style="fill:none;stroke:#000000;stroke-linecap:square;stroke-linejoin:miter;stroke-width:0.8;"/>
   </g>
   <g id="text_6">
    <!-- {f20-f24}, 20-D -->
    <g transform="translate(293.159 287.95392)scale(0.2 -0.2)">
     <defs>
      <path d="M 3272 -594 
L 3272 -1044 
L 3078 -1044 
Q 2300 -1044 2036 -812 
Q 1772 -581 1772 109 
L 1772 856 
Q 1772 1328 1603 1509 
Q 1434 1691 991 1691 
L 800 1691 
L 800 2138 
L 991 2138 
Q 1438 2138 1605 2317 
Q 1772 2497 1772 2963 
L 1772 3713 
Q 1772 4403 2036 4633 
Q 2300 4863 3078 4863 
L 3272 4863 
L 3272 4416 
L 3059 4416 
Q 2619 4416 2484 4278 
Q 2350 4141 2350 3700 
L 2350 2925 
Q 2350 2434 2208 2212 
Q 2066 1991 1722 1913 
Q 2069 1828 2209 1606 
Q 2350 1384 2350 897 
L 2350 122 
Q 2350 -319 2484 -456 
Q 2619 -594 3059 -594 
L 3272 -594 
z
" id="DejaVuSans-7b" transform="scale(0.015625)"/>
      <path d="M 1228 531 
L 3431 531 
L 3431 0 
L 469 0 
L 469 531 
Q 828 903 1448 1529 
Q 2069 2156 2228 2338 
Q 2531 2678 2651 2914 
Q 2772 3150 2772 3378 
Q 2772 3750 2511 3984 
Q 2250 4219 1831 4219 
Q 1534 4219 1204 4116 
Q 875 4013 500 3803 
L 500 4441 
Q 881 4594 1212 4672 
Q 1544 4750 1819 4750 
Q 2544 4750 2975 4387 
Q 3406 4025 3406 3419 
Q 3406 3131 3298 2873 
Q 3191 2616 2906 2266 
Q 2828 2175 2409 1742 
Q 1991 1309 1228 531 
z
" id="DejaVuSans-32" transform="scale(0.015625)"/>
      <path d="M 800 -594 
L 1019 -594 
Q 1456 -594 1589 -459 
Q 1722 -325 1722 122 
L 1722 897 
Q 1722 1384 1862 1606 
Q 2003 1828 2350 1913 
Q 2003 1991 1862 2212 
Q 1722 2434 1722 2925 
L 1722 3700 
Q 1722 4144 1589 4280 
Q 1456 4416 1019 4416 
L 800 4416 
L 800 4863 
L 997 4863 
Q 1775 4863 2036 4633 
Q 2297 4403 2297 3713 
L 2297 2963 
Q 2297 2497 2465 2317 
Q 2634 2138 3078 2138 
L 3272 2138 
L 3272 1691 
L 3078 1691 
Q 2634 1691 2465 1509 
Q 2297 1328 2297 856 
L 2297 109 
Q 2297 -581 2036 -812 
Q 1775 -1044 997 -1044 
L 800 -1044 
L 800 -594 
z
" id="DejaVuSans-7d" transform="scale(0.015625)"/>
      <path d="M 750 794 
L 1409 794 
L 1409 256 
L 897 -744 
L 494 -744 
L 750 256 
L 750 794 
z
" id="DejaVuSans-2c" transform="scale(0.015625)"/>
     </defs>
     <use xlink:href="#DejaVuSans-7b"/>
     <use x="63.623047" xlink:href="#DejaVuSans-66"/>
     <use x="98.828125" xlink:href="#DejaVuSans-32"/>
     <use x="162.451172" xlink:href="#DejaVuSans-30"/>
     <use x="226.074219" xlink:href="#DejaVuSans-2d"/>
     <use x="262.158203" xlink:href="#DejaVuSans-66"/>
     <use x="297.363281" xlink:href="#DejaVuSans-32"/>
     <use x="360.986328" xlink:href="#DejaVuSans-34"/>
     <use x="424.609375" xlink:href="#DejaVuSans-7d"/>
     <use x="488.232422" xlink:href="#DejaVuSans-2c"/>
     <use x="520.019531" xlink:href="#DejaVuSans-20"/>
     <use x="551.806641" xlink:href="#DejaVuSans-32"/>
     <use x="615.429688" xlink:href="#DejaVuSans-30"/>
     <use x="679.052734" xlink:href="#DejaVuSans-2d"/>
     <use x="715.136719" xlink:href="#DejaVuSans-44"/>
    </g>
   </g>
   <g id="text_7">
    <!-- v2.4 -->
    <g style="fill:#808080;" transform="translate(219.489063 288.777272)scale(0.1 -0.1)">
     <defs>
      <path d="M 191 3500 
L 800 3500 
L 1894 563 
L 2988 3500 
L 3597 3500 
L 2284 0 
L 1503 0 
L 191 3500 
z
" id="DejaVuSans-76" transform="scale(0.015625)"/>
      <path d="M 684 794 
L 1344 794 
L 1344 0 
L 684 0 
L 684 794 
z
" id="DejaVuSans-2e" transform="scale(0.015625)"/>
     </defs>
     <use xlink:href="#DejaVuSans-76"/>
     <use x="59.179688" xlink:href="#DejaVuSans-32"/>
     <use x="122.802734" xlink:href="#DejaVuSans-2e"/>
     <use x="154.589844" xlink:href="#DejaVuSans-34"/>
    </g>
   </g>
  </g>
 </g>
 <defs>
  <clipPath id="p6d5a23a0c1">
   <rect height="290.304" width="460.8" x="0" y="3.456"/>
  </clipPath>
 </defs>
</svg>
