<?xml version="1.0" encoding="utf-8" standalone="no"?>
<!DOCTYPE svg PUBLIC "-//W3C//DTD SVG 1.1//EN"
  "http://www.w3.org/Graphics/SVG/1.1/DTD/svg11.dtd">
<svg height="345.6pt" version="1.1" viewBox="0 0 460.8 345.6" width="460.8pt" xmlns="http://www.w3.org/2000/svg" xmlns:xlink="http://www.w3.org/1999/xlink">
 <metadata>
  <rdf:RDF xmlns:cc="http://creativecommons.org/ns#" xmlns:dc="http://purl.org/dc/elements/1.1/" xmlns:rdf="http://www.w3.org/1999/02/22-rdf-syntax-ns#">
   <cc:Work>
    <dc:type rdf:resource="http://purl.org/dc/dcmitype/StillImage"/>
    <dc:date>2021-07-27T16:03:39.115458</dc:date>
    <dc:format>image/svg+xml</dc:format>
    <dc:creator>
     <cc:Agent>
      <dc:title>Matplotlib v3.4.2, https://matplotlib.org/</dc:title>
     </cc:Agent>
    </dc:creator>
   </cc:Work>
  </rdf:RDF>
 </metadata>
 <defs>
  <style type="text/css">*{stroke-linecap:butt;stroke-linejoin:round;}</style>
 </defs>
 <g id="figure_1">
  <g id="patch_1">
   <path d="M 0 345.6 
L 460.8 345.6 
L 460.8 0 
L 0 0 
z
" style="fill:#ffffff;"/>
  </g>
  <g id="axes_1">
   <g id="patch_2">
    <path d="M 62.208 293.76 
L 460.8 293.76 
L 460.8 3.456 
L 62.208 3.456 
z
" style="fill:#ffffff;"/>
   </g>
   <g id="line2d_1">
    <path clip-path="url(#p581acb493b)" d="M 270.039386 293.76 
L 270.039386 288.969505 
L 273.166287 288.969505 
L 273.166287 284.17901 
L 274.350964 284.17901 
L 274.350964 279.388515 
L 274.350964 279.388515 
L 274.350964 274.59802 
L 274.930256 274.59802 
L 274.930256 269.807525 
L 275.121483 269.807525 
L 275.121483 265.01703 
L 275.31179 265.01703 
L 275.31179 260.226535 
L 276.249828 260.226535 
L 276.249828 255.43604 
L 276.802154 255.43604 
L 276.802154 250.645545 
L 276.984562 250.645545 
L 276.984562 245.85505 
L 276.984562 245.85505 
L 276.984562 241.064554 
L 277.166133 241.064554 
L 277.166133 236.274059 
L 277.166133 236.274059 
L 277.166133 231.483564 
L 277.705897 231.483564 
L 277.705897 226.693069 
L 277.705897 226.693069 
L 277.705897 221.902574 
L 278.937417 221.902574 
L 278.937417 217.112079 
L 279.282351 217.112079 
L 279.282351 212.321584 
L 279.453695 212.321584 
L 279.453695 207.531089 
L 279.624301 207.531089 
L 279.624301 202.740594 
L 279.794175 202.740594 
L 279.794175 197.950099 
L 280.29946 197.950099 
L 280.29946 193.159604 
L 280.29946 193.159604 
L 280.29946 188.369109 
L 280.466464 188.369109 
L 280.466464 183.578614 
L 283.357889 183.578614 
L 283.357889 178.788119 
L 284.877362 178.788119 
L 284.877362 173.997624 
L 285.174375 173.997624 
L 285.174375 169.207129 
L 303.261482 169.207129 
L 303.261482 164.416634 
L 306.521562 164.416634 
L 306.521562 159.626139 
L 310.043727 159.626139 
L 310.043727 154.835644 
L 317.843477 154.835644 
L 317.843477 150.045149 
L 317.843477 150.045149 
L 317.843477 150.045149 
L 460.8 150.045149 
" style="fill:none;stroke:#f5deb3;stroke-linecap:square;stroke-width:1.5;"/>
   </g>
   <g id="line2d_2"/>
   <g id="line2d_3">
    <path clip-path="url(#p581acb493b)" d="M 270.674692 293.76 
L 270.674692 288.969505 
L 277.321104 288.969505 
L 277.321104 284.17901 
L 280.545743 284.17901 
L 280.545743 279.388515 
L 285.699271 279.388515 
L 285.699271 274.59802 
L 286.320087 274.59802 
L 286.320087 269.807525 
L 286.640459 269.807525 
L 286.640459 265.01703 
L 286.667605 265.01703 
L 286.667605 260.226535 
L 286.776004 260.226535 
L 286.776004 255.43604 
L 287.672369 255.43604 
L 287.672369 250.645545 
L 288.315293 250.645545 
L 288.315293 245.85505 
L 288.497082 245.85505 
L 288.497082 241.064554 
L 288.826066 241.064554 
L 288.826066 236.274059 
L 289.0311 236.274059 
L 289.0311 231.483564 
L 289.082192 231.483564 
L 289.082192 226.693069 
L 289.114092 226.693069 
L 289.114092 221.902574 
L 289.145965 221.902574 
L 289.145965 217.112079 
L 289.247789 217.112079 
L 289.247789 212.321584 
L 290.976369 212.321584 
L 290.976369 207.531089 
L 291.586128 207.531089 
L 291.586128 202.740594 
L 292.168924 202.740594 
L 292.168924 197.950099 
L 292.661718 197.950099 
L 292.661718 193.159604 
L 293.646324 193.159604 
L 293.646324 188.369109 
L 294.093054 188.369109 
L 294.093054 183.578614 
L 301.262993 183.578614 
L 301.262993 178.788119 
L 301.997267 178.788119 
L 301.997267 173.997624 
L 302.441394 173.997624 
L 302.441394 169.207129 
L 303.127468 169.207129 
L 303.127468 164.416634 
L 303.194532 164.416634 
L 303.194532 159.626139 
L 303.221325 159.626139 
L 303.221325 154.835644 
L 304.577229 154.835644 
L 304.577229 150.045149 
L 304.710727 150.045149 
L 304.710727 145.254653 
L 305.733481 145.254653 
L 305.733481 140.464158 
L 306.348702 140.464158 
L 306.348702 135.673663 
L 306.459913 135.673663 
L 306.459913 130.883168 
L 307.197474 130.883168 
L 307.197474 126.092673 
L 307.73877 126.092673 
L 307.73877 121.302178 
L 308.950543 121.302178 
L 308.950543 116.511683 
L 311.329966 116.511683 
L 311.329966 111.721188 
L 313.253483 111.721188 
L 313.253483 106.930693 
L 320.286459 106.930693 
L 320.286459 102.140198 
L 323.111809 102.140198 
L 323.111809 97.349703 
L 323.303032 97.349703 
L 323.303032 92.559208 
L 324.371248 92.559208 
L 324.371248 87.768713 
L 324.689021 87.768713 
L 324.689021 82.978218 
L 325.15838 82.978218 
L 325.15838 78.187723 
L 325.15838 78.187723 
L 325.15838 78.187723 
L 460.8 78.187723 
" style="fill:none;stroke:#f5deb3;stroke-linecap:square;stroke-width:1.5;"/>
   </g>
   <g id="line2d_4">
    <path clip-path="url(#p581acb493b)" d="M 321.132755 293.76 
L 321.132755 288.969505 
L 325.786588 288.969505 
L 325.786588 284.17901 
L 328.593878 284.17901 
L 328.593878 279.388515 
L 329.084402 279.388515 
L 329.084402 274.59802 
L 332.316986 274.59802 
L 332.316986 269.807525 
L 332.336235 269.807525 
L 332.336235 265.01703 
L 333.990323 265.01703 
L 333.990323 260.226535 
L 334.701601 260.226535 
L 334.701601 255.43604 
L 334.71771 255.43604 
L 334.71771 250.645545 
L 335.144222 250.645545 
L 335.144222 245.85505 
L 335.701915 245.85505 
L 335.701915 241.064554 
L 336.088841 241.064554 
L 336.088841 236.274059 
L 337.246302 236.274059 
L 337.246302 231.483564 
L 337.65588 231.483564 
L 337.65588 226.693069 
L 337.834908 226.693069 
L 337.834908 221.902574 
L 340.093161 221.902574 
L 340.093161 217.112079 
L 341.372715 217.112079 
L 341.372715 212.321584 
L 341.91179 212.321584 
L 341.91179 207.531089 
L 342.267688 207.531089 
L 342.267688 202.740594 
L 345.317447 202.740594 
L 345.317447 197.950099 
L 353.677287 197.950099 
L 353.677287 193.159604 
L 356.545053 193.159604 
L 356.545053 188.369109 
L 360.037127 188.369109 
L 360.037127 183.578614 
L 362.36897 183.578614 
L 362.36897 178.788119 
L 363.79391 178.788119 
L 363.79391 173.997624 
L 366.863646 173.997624 
L 366.863646 169.207129 
L 370.079486 169.207129 
L 370.079486 164.416634 
L 374.553635 164.416634 
L 374.553635 159.626139 
L 375.178124 159.626139 
L 375.178124 154.835644 
L 376.93364 154.835644 
L 376.93364 150.045149 
L 376.93364 150.045149 
L 376.93364 150.045149 
L 460.8 150.045149 
" style="fill:none;stroke:#f5deb3;stroke-linecap:square;stroke-width:1.5;"/>
   </g>
   <g id="line2d_5"/>
   <g id="line2d_6"/>
   <g id="line2d_7">
    <path clip-path="url(#p581acb493b)" d="M 305.967394 293.76 
L 305.967394 288.969505 
L 306.406406 288.969505 
L 306.406406 284.17901 
L 308.249177 284.17901 
L 308.249177 279.388515 
L 308.815137 279.388515 
L 308.815137 274.59802 
L 309.131647 274.59802 
L 309.131647 269.807525 
L 309.403668 269.807525 
L 309.403668 265.01703 
L 310.096287 265.01703 
L 310.096287 260.226535 
L 310.428801 260.226535 
L 310.428801 255.43604 
L 310.72163 255.43604 
L 310.72163 250.645545 
L 311.75318 250.645545 
L 311.75318 245.85505 
L 311.810705 245.85505 
L 311.810705 241.064554 
L 312.66369 241.064554 
L 312.66369 236.274059 
L 314.079622 236.274059 
L 314.079622 231.483564 
L 314.235365 231.483564 
L 314.235365 226.693069 
L 316.090224 226.693069 
L 316.090224 221.902574 
L 336.541289 221.902574 
L 336.541289 217.112079 
L 338.413049 217.112079 
L 338.413049 212.321584 
L 338.919549 212.321584 
L 338.919549 207.531089 
L 339.925854 207.531089 
L 339.925854 202.740594 
L 340.043923 202.740594 
L 340.043923 197.950099 
L 340.686209 197.950099 
L 340.686209 193.159604 
L 340.88997 193.159604 
L 340.88997 188.369109 
L 342.549458 188.369109 
L 342.549458 183.578614 
L 342.929145 183.578614 
L 342.929145 178.788119 
L 343.83155 178.788119 
L 343.83155 173.997624 
L 343.916201 173.997624 
L 343.916201 169.207129 
L 344.014998 169.207129 
L 344.014998 164.416634 
L 344.070661 164.416634 
L 344.070661 159.626139 
L 345.563075 159.626139 
L 345.563075 154.835644 
L 346.316471 154.835644 
L 346.316471 150.045149 
L 346.551513 150.045149 
L 346.551513 145.254653 
L 347.778636 145.254653 
L 347.778636 140.464158 
L 347.946138 140.464158 
L 347.946138 135.673663 
L 348.470033 135.673663 
L 348.470033 130.883168 
L 348.60489 130.883168 
L 348.60489 126.092673 
L 349.057192 126.092673 
L 349.057192 121.302178 
L 349.667505 121.302178 
L 349.667505 116.511683 
L 350.500211 116.511683 
L 350.500211 111.721188 
L 350.706349 111.721188 
L 350.706349 106.930693 
L 351.735628 106.930693 
L 351.735628 102.140198 
L 352.079777 102.140198 
L 352.079777 97.349703 
L 352.334648 97.349703 
L 352.334648 92.559208 
L 352.941243 92.559208 
L 352.941243 87.768713 
L 380.430876 87.768713 
L 380.430876 82.978218 
L 406.22588 82.978218 
L 406.22588 78.187723 
L 461.8 78.187723 
" style="fill:none;stroke:#f5deb3;stroke-linecap:square;stroke-width:1.5;"/>
   </g>
   <g id="line2d_8">
    <path clip-path="url(#p581acb493b)" d="M 434.302147 293.76 
L 434.302147 288.969505 
L 434.372216 288.969505 
L 434.372216 284.17901 
L 434.426466 284.17901 
L 434.426466 279.388515 
L 434.889334 279.388515 
L 434.889334 274.59802 
L 434.904207 274.59802 
L 434.904207 269.807525 
L 434.935692 269.807525 
L 434.935692 265.01703 
L 435.002096 265.01703 
L 435.002096 260.226535 
L 435.00417 260.226535 
L 435.00417 255.43604 
L 435.022825 255.43604 
L 435.022825 250.645545 
L 435.118037 250.645545 
L 435.118037 245.85505 
L 435.170004 245.85505 
L 435.170004 241.064554 
L 435.639057 241.064554 
L 435.639057 236.274059 
L 435.640626 236.274059 
L 435.640626 231.483564 
L 435.828818 231.483564 
L 435.828818 226.693069 
L 436.977339 226.693069 
L 436.977339 221.902574 
L 436.977339 221.902574 
L 436.977339 221.902574 
L 460.8 221.902574 
" style="fill:none;stroke:#f5deb3;stroke-linecap:square;stroke-width:1.5;"/>
   </g>
   <g id="line2d_9">
    <path clip-path="url(#p581acb493b)" d="M 304.984919 293.76 
L 304.984919 288.969505 
L 307.310353 288.969505 
L 307.310353 284.17901 
L 307.451001 284.17901 
L 307.451001 279.388515 
L 309.3081 279.388515 
L 309.3081 274.59802 
L 309.582715 274.59802 
L 309.582715 269.807525 
L 309.662453 269.807525 
L 309.662453 265.01703 
L 309.942161 265.01703 
L 309.942161 260.226535 
L 310.339409 260.226535 
L 310.339409 255.43604 
L 311.048949 255.43604 
L 311.048949 250.645545 
L 311.195181 250.645545 
L 311.195181 245.85505 
L 311.533095 245.85505 
L 311.533095 241.064554 
L 313.145953 241.064554 
L 313.145953 236.274059 
L 313.546834 236.274059 
L 313.546834 231.483564 
L 314.545025 231.483564 
L 314.545025 226.693069 
L 316.783774 226.693069 
L 316.783774 221.902574 
L 317.695145 221.902574 
L 317.695145 217.112079 
L 332.947286 217.112079 
L 332.947286 212.321584 
L 333.169831 212.321584 
L 333.169831 207.531089 
L 333.69806 207.531089 
L 333.69806 202.740594 
L 333.702191 202.740594 
L 333.702191 197.950099 
L 334.310965 197.950099 
L 334.310965 193.159604 
L 334.402391 193.159604 
L 334.402391 188.369109 
L 335.48531 188.369109 
L 335.48531 183.578614 
L 335.880215 183.578614 
L 335.880215 178.788119 
L 335.960286 178.788119 
L 335.960286 173.997624 
L 336.038248 173.997624 
L 336.038248 169.207129 
L 336.083006 169.207129 
L 336.083006 164.416634 
L 336.230545 164.416634 
L 336.230545 159.626139 
L 336.481646 159.626139 
L 336.481646 154.835644 
L 337.036115 154.835644 
L 337.036115 150.045149 
L 337.161225 150.045149 
L 337.161225 145.254653 
L 337.732439 145.254653 
L 337.732439 140.464158 
L 338.197926 140.464158 
L 338.197926 135.673663 
L 338.670753 135.673663 
L 338.670753 130.883168 
L 338.703531 130.883168 
L 338.703531 126.092673 
L 339.101971 126.092673 
L 339.101971 121.302178 
L 339.637132 121.302178 
L 339.637132 116.511683 
L 340.803759 116.511683 
L 340.803759 111.721188 
L 341.328452 111.721188 
L 341.328452 106.930693 
L 342.27933 106.930693 
L 342.27933 102.140198 
L 342.821035 102.140198 
L 342.821035 97.349703 
L 344.723205 97.349703 
L 344.723205 92.559208 
L 345.5202 92.559208 
L 345.5202 87.768713 
L 345.556953 87.768713 
L 345.556953 82.978218 
L 352.456971 82.978218 
L 352.456971 78.187723 
L 354.45248 78.187723 
L 354.45248 73.397228 
L 355.857397 73.397228 
L 355.857397 68.606733 
L 356.086774 68.606733 
L 356.086774 63.816238 
L 356.387063 63.816238 
L 356.387063 59.025743 
L 356.621498 59.025743 
L 356.621498 54.235248 
L 358.102333 54.235248 
L 358.102333 49.444752 
L 358.694201 49.444752 
L 358.694201 44.654257 
L 359.775156 44.654257 
L 359.775156 39.863762 
L 360.607217 39.863762 
L 360.607217 35.073267 
L 361.88066 35.073267 
L 361.88066 30.282772 
L 363.035744 30.282772 
L 363.035744 25.492277 
L 363.298556 25.492277 
L 363.298556 20.701782 
L 364.054626 20.701782 
L 364.054626 15.911287 
L 364.1657 15.911287 
L 364.1657 11.120792 
L 371.149305 11.120792 
L 371.149305 6.330297 
L 371.149305 6.330297 
L 371.149305 6.330297 
L 460.8 6.330297 
" style="fill:none;stroke:#f5deb3;stroke-linecap:square;stroke-width:1.5;"/>
   </g>
   <g id="line2d_10">
    <path clip-path="url(#p581acb493b)" style="fill:none;stroke:#f5deb3;stroke-linecap:square;stroke-width:1.5;"/>
   </g>
   <g id="line2d_11">
    <path clip-path="url(#p581acb493b)" d="M 315.798971 293.76 
L 315.798971 288.969505 
L 318.953581 288.969505 
L 318.953581 284.17901 
L 323.415716 284.17901 
L 323.415716 279.388515 
L 330.092854 279.388515 
L 330.092854 274.59802 
L 331.054151 274.59802 
L 331.054151 269.807525 
L 331.554539 269.807525 
L 331.554539 265.01703 
L 334.93054 265.01703 
L 334.93054 260.226535 
L 334.982569 260.226535 
L 334.982569 255.43604 
L 335.540558 255.43604 
L 335.540558 250.645545 
L 346.55002 250.645545 
L 346.55002 245.85505 
L 347.110274 245.85505 
L 347.110274 241.064554 
L 350.039611 241.064554 
L 350.039611 236.274059 
L 351.848067 236.274059 
L 351.848067 231.483564 
L 365.336743 231.483564 
L 365.336743 226.693069 
L 450.616679 226.693069 
L 450.616679 221.902574 
L 461.8 221.902574 
" style="fill:none;stroke:#f5deb3;stroke-linecap:square;stroke-width:1.5;"/>
   </g>
   <g id="line2d_12">
    <path clip-path="url(#p581acb493b)" d="M 273.108979 293.76 
L 273.108979 288.969505 
L 278.011058 288.969505 
L 278.011058 284.17901 
L 278.187987 284.17901 
L 278.187987 279.388515 
L 279.745714 279.388515 
L 279.745714 274.59802 
L 280.083699 274.59802 
L 280.083699 269.807525 
L 280.751126 269.807525 
L 280.751126 265.01703 
L 281.244408 265.01703 
L 281.244408 260.226535 
L 281.244408 260.226535 
L 281.244408 255.43604 
L 281.569878 255.43604 
L 281.569878 250.645545 
L 281.569878 250.645545 
L 281.569878 245.85505 
L 281.731614 245.85505 
L 281.731614 241.064554 
L 281.892691 241.064554 
L 281.892691 236.274059 
L 282.053115 236.274059 
L 282.053115 231.483564 
L 282.21289 231.483564 
L 282.21289 226.693069 
L 282.21289 226.693069 
L 282.21289 221.902574 
L 282.688381 221.902574 
L 282.688381 217.112079 
L 282.688381 217.112079 
L 282.688381 212.321584 
L 282.688381 212.321584 
L 282.688381 207.531089 
L 283.158224 207.531089 
L 283.158224 202.740594 
L 283.158224 202.740594 
L 283.158224 197.950099 
L 283.158224 197.950099 
L 283.158224 193.159604 
L 283.622551 193.159604 
L 283.622551 188.369109 
L 283.776123 188.369109 
L 283.776123 183.578614 
L 286.443089 183.578614 
L 286.443089 178.788119 
L 291.037162 178.788119 
L 291.037162 173.997624 
L 307.913603 173.997624 
L 307.913603 169.207129 
L 310.725323 169.207129 
L 310.725323 164.416634 
L 311.111164 164.416634 
L 311.111164 159.626139 
L 311.569259 159.626139 
L 311.569259 154.835644 
L 321.339412 154.835644 
L 321.339412 150.045149 
L 321.339412 150.045149 
L 321.339412 150.045149 
L 460.8 150.045149 
" style="fill:none;stroke:#f5deb3;stroke-linecap:square;stroke-width:1.5;"/>
   </g>
   <g id="line2d_13"/>
   <g id="line2d_14"/>
   <g id="line2d_15"/>
   <g id="line2d_16">
    <path clip-path="url(#p581acb493b)" d="M 417.424292 293.76 
L 417.424292 288.969505 
L 418.300292 288.969505 
L 418.300292 284.17901 
L 424.254617 284.17901 
L 424.254617 279.388515 
L 444.421601 279.388515 
L 444.421601 274.59802 
L 444.512498 274.59802 
L 444.512498 269.807525 
L 444.876746 269.807525 
L 444.876746 265.01703 
L 459.087932 265.01703 
L 459.087932 260.226535 
L 461.8 260.226535 
" style="fill:none;stroke:#f5deb3;stroke-linecap:square;stroke-width:1.5;"/>
   </g>
   <g id="line2d_17">
    <path clip-path="url(#p581acb493b)" d="M 419.675766 293.76 
L 419.675766 288.969505 
L 422.259785 288.969505 
L 422.259785 284.17901 
L 424.250641 284.17901 
L 424.250641 279.388515 
L 424.475222 279.388515 
L 424.475222 274.59802 
L 428.483224 274.59802 
L 428.483224 269.807525 
L 429.3896 269.807525 
L 429.3896 265.01703 
L 429.448743 265.01703 
L 429.448743 260.226535 
L 434.398945 260.226535 
L 434.398945 255.43604 
L 435.110562 255.43604 
L 435.110562 250.645545 
L 435.189851 250.645545 
L 435.189851 245.85505 
L 437.026466 245.85505 
L 437.026466 241.064554 
L 439.135417 241.064554 
L 439.135417 236.274059 
L 439.480004 236.274059 
L 439.480004 231.483564 
L 446.923397 231.483564 
L 446.923397 226.693069 
L 452.484208 226.693069 
L 452.484208 221.902574 
L 461.8 221.902574 
" style="fill:none;stroke:#f5deb3;stroke-linecap:square;stroke-width:1.5;"/>
   </g>
   <g id="line2d_18">
    <path clip-path="url(#p581acb493b)" d="M 248.904985 293.76 
L 248.904985 288.969505 
L 257.885578 288.969505 
L 257.885578 284.17901 
L 258.039777 284.17901 
L 258.039777 279.388515 
L 258.636853 279.388515 
L 258.636853 274.59802 
L 258.85674 274.59802 
L 258.85674 269.807525 
L 261.49408 269.807525 
L 261.49408 265.01703 
L 261.583724 265.01703 
L 261.583724 260.226535 
L 261.673165 260.226535 
L 261.673165 255.43604 
L 261.724184 255.43604 
L 261.724184 250.645545 
L 262.142594 250.645545 
L 262.142594 245.85505 
L 262.45665 245.85505 
L 262.45665 241.064554 
L 262.581578 241.064554 
L 262.581578 236.274059 
L 262.61898 236.274059 
L 262.61898 231.483564 
L 262.805458 231.483564 
L 262.805458 226.693069 
L 263.114316 226.693069 
L 263.114316 221.902574 
L 263.261715 221.902574 
L 263.261715 217.112079 
L 264.35004 217.112079 
L 264.35004 212.321584 
L 264.682612 212.321584 
L 264.682612 207.531089 
L 264.70626 207.531089 
L 264.70626 202.740594 
L 264.76532 202.740594 
L 264.76532 197.950099 
L 265.617693 197.950099 
L 265.617693 193.159604 
L 267.775614 193.159604 
L 267.775614 188.369109 
L 268.048125 188.369109 
L 268.048125 183.578614 
L 272.936555 183.578614 
L 272.936555 178.788119 
L 286.884107 178.788119 
L 286.884107 173.997624 
L 291.291478 173.997624 
L 291.291478 169.207129 
L 292.998432 169.207129 
L 292.998432 164.416634 
L 293.980434 164.416634 
L 293.980434 159.626139 
L 295.615323 159.626139 
L 295.615323 154.835644 
L 295.976188 154.835644 
L 295.976188 150.045149 
L 296.672386 150.045149 
L 296.672386 145.254653 
L 297.091596 145.254653 
L 297.091596 140.464158 
L 298.059594 140.464158 
L 298.059594 135.673663 
L 299.825272 135.673663 
L 299.825272 130.883168 
L 304.182723 130.883168 
L 304.182723 126.092673 
L 305.959064 126.092673 
L 305.959064 121.302178 
L 308.589724 121.302178 
L 308.589724 116.511683 
L 309.023855 116.511683 
L 309.023855 111.721188 
L 312.306965 111.721188 
L 312.306965 106.930693 
L 312.632033 106.930693 
L 312.632033 102.140198 
L 314.393864 102.140198 
L 314.393864 97.349703 
L 320.684609 97.349703 
L 320.684609 92.559208 
L 332.164809 92.559208 
L 332.164809 87.768713 
L 334.145863 87.768713 
L 334.145863 82.978218 
L 340.927844 82.978218 
L 340.927844 78.187723 
L 340.927844 78.187723 
L 340.927844 78.187723 
L 460.8 78.187723 
" style="fill:none;stroke:#f5deb3;stroke-linecap:square;stroke-width:1.5;"/>
   </g>
   <g id="line2d_19"/>
   <g id="line2d_20">
    <path clip-path="url(#p581acb493b)" d="M 329.047243 293.76 
L 329.047243 288.969505 
L 332.92412 288.969505 
L 332.92412 284.17901 
L 337.149868 284.17901 
L 337.149868 279.388515 
L 341.224411 279.388515 
L 341.224411 274.59802 
L 343.154244 274.59802 
L 343.154244 269.807525 
L 344.629298 269.807525 
L 344.629298 265.01703 
L 346.509697 265.01703 
L 346.509697 260.226535 
L 347.349437 260.226535 
L 347.349437 255.43604 
L 348.682755 255.43604 
L 348.682755 250.645545 
L 349.050187 250.645545 
L 349.050187 245.85505 
L 349.265395 245.85505 
L 349.265395 241.064554 
L 352.399075 241.064554 
L 352.399075 236.274059 
L 352.451828 236.274059 
L 352.451828 231.483564 
L 354.024792 231.483564 
L 354.024792 226.693069 
L 354.573309 226.693069 
L 354.573309 221.902574 
L 355.567307 221.902574 
L 355.567307 217.112079 
L 357.541062 217.112079 
L 357.541062 212.321584 
L 357.684381 212.321584 
L 357.684381 207.531089 
L 359.843479 207.531089 
L 359.843479 202.740594 
L 362.825615 202.740594 
L 362.825615 197.950099 
L 368.129308 197.950099 
L 368.129308 193.159604 
L 370.463788 193.159604 
L 370.463788 188.369109 
L 381.615891 188.369109 
L 381.615891 183.578614 
L 391.246463 183.578614 
L 391.246463 178.788119 
L 394.584224 178.788119 
L 394.584224 173.997624 
L 394.636922 173.997624 
L 394.636922 169.207129 
L 396.237122 169.207129 
L 396.237122 164.416634 
L 399.801027 164.416634 
L 399.801027 159.626139 
L 429.480481 159.626139 
L 429.480481 154.835644 
L 430.265784 154.835644 
L 430.265784 150.045149 
L 430.265784 150.045149 
L 430.265784 150.045149 
L 460.8 150.045149 
" style="fill:none;stroke:#f5deb3;stroke-linecap:square;stroke-width:1.5;"/>
   </g>
   <g id="line2d_21"/>
   <g id="line2d_22">
    <path clip-path="url(#p581acb493b)" d="M 333.449382 293.76 
L 333.449382 288.969505 
L 333.687729 288.969505 
L 333.687729 284.17901 
L 334.984568 284.17901 
L 334.984568 279.388515 
L 335.862617 279.388515 
L 335.862617 274.59802 
L 336.249918 274.59802 
L 336.249918 269.807525 
L 336.335042 269.807525 
L 336.335042 265.01703 
L 336.775144 265.01703 
L 336.775144 260.226535 
L 337.15744 260.226535 
L 337.15744 255.43604 
L 337.700713 255.43604 
L 337.700713 250.645545 
L 338.094546 250.645545 
L 338.094546 245.85505 
L 338.964782 245.85505 
L 338.964782 241.064554 
L 339.851661 241.064554 
L 339.851661 236.274059 
L 339.945263 236.274059 
L 339.945263 231.483564 
L 341.166301 231.483564 
L 341.166301 226.693069 
L 341.455999 226.693069 
L 341.455999 221.902574 
L 342.012367 221.902574 
L 342.012367 217.112079 
L 342.040818 217.112079 
L 342.040818 212.321584 
L 342.289306 212.321584 
L 342.289306 207.531089 
L 343.105418 207.531089 
L 343.105418 202.740594 
L 343.95288 202.740594 
L 343.95288 197.950099 
L 344.341496 197.950099 
L 344.341496 193.159604 
L 344.760705 193.159604 
L 344.760705 188.369109 
L 345.432775 188.369109 
L 345.432775 183.578614 
L 347.027772 183.578614 
L 347.027772 178.788119 
L 348.131582 178.788119 
L 348.131582 173.997624 
L 349.036172 173.997624 
L 349.036172 169.207129 
L 349.040377 169.207129 
L 349.040377 164.416634 
L 352.157577 164.416634 
L 352.157577 159.626139 
L 353.122434 159.626139 
L 353.122434 154.835644 
L 354.304296 154.835644 
L 354.304296 150.045149 
L 368.709779 150.045149 
L 368.709779 145.254653 
L 371.625679 145.254653 
L 371.625679 140.464158 
L 372.477945 140.464158 
L 372.477945 135.673663 
L 373.028956 135.673663 
L 373.028956 130.883168 
L 374.641043 130.883168 
L 374.641043 126.092673 
L 375.428493 126.092673 
L 375.428493 121.302178 
L 376.025967 121.302178 
L 376.025967 116.511683 
L 388.975149 116.511683 
L 388.975149 111.721188 
L 391.2749 111.721188 
L 391.2749 106.930693 
L 396.541525 106.930693 
L 396.541525 102.140198 
L 400.862096 102.140198 
L 400.862096 97.349703 
L 409.06573 97.349703 
L 409.06573 92.559208 
L 415.149802 92.559208 
L 415.149802 87.768713 
L 422.781529 87.768713 
L 422.781529 82.978218 
L 422.781529 82.978218 
L 422.781529 82.978218 
L 460.8 82.978218 
" style="fill:none;stroke:#f5deb3;stroke-linecap:square;stroke-width:1.5;"/>
   </g>
   <g id="line2d_23">
    <path clip-path="url(#p581acb493b)" style="fill:none;stroke:#f5deb3;stroke-linecap:square;stroke-width:1.5;"/>
   </g>
   <g id="line2d_24">
    <path clip-path="url(#p581acb493b)" d="M 315.312019 293.76 
L 315.312019 288.969505 
L 324.161478 288.969505 
L 324.161478 284.17901 
L 325.720929 284.17901 
L 325.720929 279.388515 
L 327.599015 279.388515 
L 327.599015 274.59802 
L 327.635152 274.59802 
L 327.635152 269.807525 
L 328.379414 269.807525 
L 328.379414 265.01703 
L 329.128485 265.01703 
L 329.128485 260.226535 
L 332.589863 260.226535 
L 332.589863 255.43604 
L 333.434828 255.43604 
L 333.434828 250.645545 
L 333.735227 250.645545 
L 333.735227 245.85505 
L 334.759965 245.85505 
L 334.759965 241.064554 
L 335.190003 241.064554 
L 335.190003 236.274059 
L 335.205915 236.274059 
L 335.205915 231.483564 
L 337.036115 231.483564 
L 337.036115 226.693069 
L 337.204732 226.693069 
L 337.204732 221.902574 
L 393.668365 221.902574 
L 393.668365 217.112079 
L 393.892223 217.112079 
L 393.892223 212.321584 
L 394.319226 212.321584 
L 394.319226 207.531089 
L 395.715621 207.531089 
L 395.715621 202.740594 
L 395.74102 202.740594 
L 395.74102 197.950099 
L 396.105578 197.950099 
L 396.105578 193.159604 
L 396.597157 193.159604 
L 396.597157 188.369109 
L 396.79209 188.369109 
L 396.79209 183.578614 
L 396.925551 183.578614 
L 396.925551 178.788119 
L 396.989403 178.788119 
L 396.989403 173.997624 
L 397.599329 173.997624 
L 397.599329 169.207129 
L 397.898762 169.207129 
L 397.898762 164.416634 
L 397.90406 164.416634 
L 397.90406 159.626139 
L 397.998478 159.626139 
L 397.998478 154.835644 
L 398.107674 154.835644 
L 398.107674 150.045149 
L 398.114159 150.045149 
L 398.114159 145.254653 
L 398.305002 145.254653 
L 398.305002 140.464158 
L 398.363848 140.464158 
L 398.363848 135.673663 
L 398.591152 135.673663 
L 398.591152 130.883168 
L 398.741833 130.883168 
L 398.741833 126.092673 
L 398.776524 126.092673 
L 398.776524 121.302178 
L 398.87644 121.302178 
L 398.87644 116.511683 
L 399.310972 116.511683 
L 399.310972 111.721188 
L 399.527438 111.721188 
L 399.527438 106.930693 
L 400.334545 106.930693 
L 400.334545 102.140198 
L 400.87495 102.140198 
L 400.87495 97.349703 
L 401.263861 97.349703 
L 401.263861 92.559208 
L 401.786629 92.559208 
L 401.786629 87.768713 
L 403.63502 87.768713 
L 403.63502 82.978218 
L 404.975521 82.978218 
L 404.975521 78.187723 
L 410.261522 78.187723 
L 410.261522 73.397228 
L 412.635266 73.397228 
L 412.635266 68.606733 
L 413.348938 68.606733 
L 413.348938 63.816238 
L 413.588107 63.816238 
L 413.588107 59.025743 
L 414.035871 59.025743 
L 414.035871 54.235248 
L 414.198943 54.235248 
L 414.198943 49.444752 
L 415.260303 49.444752 
L 415.260303 44.654257 
L 416.359651 44.654257 
L 416.359651 39.863762 
L 416.420165 39.863762 
L 416.420165 35.073267 
L 416.865669 35.073267 
L 416.865669 30.282772 
L 417.154733 30.282772 
L 417.154733 25.492277 
L 417.784567 25.492277 
L 417.784567 20.701782 
L 418.342845 20.701782 
L 418.342845 15.911287 
L 418.823547 15.911287 
L 418.823547 11.120792 
L 419.699961 11.120792 
L 419.699961 6.330297 
L 419.699961 6.330297 
L 419.699961 6.330297 
L 460.8 6.330297 
" style="fill:none;stroke:#f5deb3;stroke-linecap:square;stroke-width:1.5;"/>
   </g>
   <g id="line2d_25">
    <path clip-path="url(#p581acb493b)" d="M 440.421639 293.76 
L 440.421639 288.969505 
L 440.977744 288.969505 
L 440.977744 284.17901 
L 441.155473 284.17901 
L 441.155473 279.388515 
L 441.157111 279.388515 
L 441.157111 274.59802 
L 442.01043 274.59802 
L 442.01043 269.807525 
L 442.302852 269.807525 
L 442.302852 265.01703 
L 442.460476 265.01703 
L 442.460476 260.226535 
L 442.7517 260.226535 
L 442.7517 255.43604 
L 443.233609 255.43604 
L 443.233609 250.645545 
L 443.453707 250.645545 
L 443.453707 245.85505 
L 443.641704 245.85505 
L 443.641704 241.064554 
L 444.019483 241.064554 
L 444.019483 236.274059 
L 444.298482 236.274059 
L 444.298482 231.483564 
L 444.837835 231.483564 
L 444.837835 226.693069 
L 446.065828 226.693069 
L 446.065828 221.902574 
L 446.065828 221.902574 
L 446.065828 221.902574 
L 460.8 221.902574 
" style="fill:none;stroke:#f5deb3;stroke-linecap:square;stroke-width:1.5;"/>
   </g>
   <g id="line2d_26">
    <path clip-path="url(#p581acb493b)" d="M 348.231848 293.76 
L 348.231848 288.969505 
L 352.113509 288.969505 
L 352.113509 284.17901 
L 353.434712 284.17901 
L 353.434712 279.388515 
L 354.515992 279.388515 
L 354.515992 274.59802 
L 354.907022 274.59802 
L 354.907022 269.807525 
L 355.775913 269.807525 
L 355.775913 265.01703 
L 355.97284 265.01703 
L 355.97284 260.226535 
L 357.256273 260.226535 
L 357.256273 255.43604 
L 359.108191 255.43604 
L 359.108191 250.645545 
L 359.471622 250.645545 
L 359.471622 245.85505 
L 361.156827 245.85505 
L 361.156827 241.064554 
L 362.398977 241.064554 
L 362.398977 236.274059 
L 364.079549 236.274059 
L 364.079549 231.483564 
L 364.287904 231.483564 
L 364.287904 226.693069 
L 365.987665 226.693069 
L 365.987665 221.902574 
L 366.004098 221.902574 
L 366.004098 217.112079 
L 367.095185 217.112079 
L 367.095185 212.321584 
L 367.854142 212.321584 
L 367.854142 207.531089 
L 368.801733 207.531089 
L 368.801733 202.740594 
L 372.152681 202.740594 
L 372.152681 197.950099 
L 372.906489 197.950099 
L 372.906489 193.159604 
L 373.466722 193.159604 
L 373.466722 188.369109 
L 373.513555 188.369109 
L 373.513555 183.578614 
L 374.290987 183.578614 
L 374.290987 178.788119 
L 374.368635 178.788119 
L 374.368635 173.997624 
L 375.090446 173.997624 
L 375.090446 169.207129 
L 375.133222 169.207129 
L 375.133222 164.416634 
L 375.647257 164.416634 
L 375.647257 159.626139 
L 375.869797 159.626139 
L 375.869797 154.835644 
L 376.457187 154.835644 
L 376.457187 150.045149 
L 377.659487 150.045149 
L 377.659487 145.254653 
L 377.691425 145.254653 
L 377.691425 140.464158 
L 377.755223 140.464158 
L 377.755223 135.673663 
L 377.789794 135.673663 
L 377.789794 130.883168 
L 377.923049 130.883168 
L 377.923049 126.092673 
L 378.582673 126.092673 
L 378.582673 121.302178 
L 378.992296 121.302178 
L 378.992296 116.511683 
L 379.817059 116.511683 
L 379.817059 111.721188 
L 383.382955 111.721188 
L 383.382955 106.930693 
L 418.792803 106.930693 
L 418.792803 102.140198 
L 429.591092 102.140198 
L 429.591092 97.349703 
L 430.278726 97.349703 
L 430.278726 92.559208 
L 430.805743 92.559208 
L 430.805743 87.768713 
L 434.355683 87.768713 
L 434.355683 82.978218 
L 438.926261 82.978218 
L 438.926261 78.187723 
L 461.8 78.187723 
" style="fill:none;stroke:#f5deb3;stroke-linecap:square;stroke-width:1.5;"/>
   </g>
   <g id="line2d_27">
    <path clip-path="url(#p581acb493b)" d="M 309.742031 293.76 
L 309.742031 288.969505 
L 311.99351 288.969505 
L 311.99351 284.17901 
L 314.228607 284.17901 
L 314.228607 279.388515 
L 314.403959 279.388515 
L 314.403959 274.59802 
L 316.032145 274.59802 
L 316.032145 269.807525 
L 316.462482 269.807525 
L 316.462482 265.01703 
L 318.214947 265.01703 
L 318.214947 260.226535 
L 318.643461 260.226535 
L 318.643461 255.43604 
L 318.706887 255.43604 
L 318.706887 250.645545 
L 318.755144 250.645545 
L 318.755144 245.85505 
L 319.359369 245.85505 
L 319.359369 241.064554 
L 320.993432 241.064554 
L 320.993432 236.274059 
L 321.285729 236.274059 
L 321.285729 231.483564 
L 321.791409 231.483564 
L 321.791409 226.693069 
L 321.796991 226.693069 
L 321.796991 221.902574 
L 322.066801 221.902574 
L 322.066801 217.112079 
L 322.174765 217.112079 
L 322.174765 212.321584 
L 322.603697 212.321584 
L 322.603697 207.531089 
L 322.726568 207.531089 
L 322.726568 202.740594 
L 322.95491 202.740594 
L 322.95491 197.950099 
L 322.99284 197.950099 
L 322.99284 193.159604 
L 323.071292 193.159604 
L 323.071292 188.369109 
L 323.477289 188.369109 
L 323.477289 183.578614 
L 323.589478 183.578614 
L 323.589478 178.788119 
L 324.016613 178.788119 
L 324.016613 173.997624 
L 325.258237 173.997624 
L 325.258237 169.207129 
L 325.680469 169.207129 
L 325.680469 164.416634 
L 325.779017 164.416634 
L 325.779017 159.626139 
L 325.982914 159.626139 
L 325.982914 154.835644 
L 326.400005 154.835644 
L 326.400005 150.045149 
L 328.001877 150.045149 
L 328.001877 145.254653 
L 328.809524 145.254653 
L 328.809524 140.464158 
L 328.930892 140.464158 
L 328.930892 135.673663 
L 329.715407 135.673663 
L 329.715407 130.883168 
L 329.977274 130.883168 
L 329.977274 126.092673 
L 332.911478 126.092673 
L 332.911478 121.302178 
L 332.980958 121.302178 
L 332.980958 116.511683 
L 333.484707 116.511683 
L 333.484707 111.721188 
L 353.593679 111.721188 
L 353.593679 106.930693 
L 354.530634 106.930693 
L 354.530634 102.140198 
L 365.299593 102.140198 
L 365.299593 97.349703 
L 366.154419 97.349703 
L 366.154419 92.559208 
L 370.785391 92.559208 
L 370.785391 87.768713 
L 373.06104 87.768713 
L 373.06104 82.978218 
L 378.684815 82.978218 
L 378.684815 78.187723 
L 378.684815 78.187723 
L 378.684815 78.187723 
L 460.8 78.187723 
" style="fill:none;stroke:#f5deb3;stroke-linecap:square;stroke-width:1.5;"/>
   </g>
   <g id="line2d_28">
    <path clip-path="url(#p581acb493b)" d="M 291.932084 293.76 
L 291.932084 288.969505 
L 294.031152 288.969505 
L 294.031152 284.17901 
L 295.004637 284.17901 
L 295.004637 279.388515 
L 295.501536 279.388515 
L 295.501536 274.59802 
L 297.624867 274.59802 
L 297.624867 269.807525 
L 297.83004 269.807525 
L 297.83004 265.01703 
L 298.211893 265.01703 
L 298.211893 260.226535 
L 298.575037 260.226535 
L 298.575037 255.43604 
L 349.375341 255.43604 
L 349.375341 250.645545 
L 349.435057 250.645545 
L 349.435057 245.85505 
L 349.623334 245.85505 
L 349.623334 241.064554 
L 349.744685 241.064554 
L 349.744685 236.274059 
L 350.121525 236.274059 
L 350.121525 231.483564 
L 360.542299 231.483564 
L 360.542299 226.693069 
L 362.224615 226.693069 
L 362.224615 221.902574 
L 362.502828 221.902574 
L 362.502828 217.112079 
L 362.586509 217.112079 
L 362.586509 212.321584 
L 362.712691 212.321584 
L 362.712691 207.531089 
L 363.13892 207.531089 
L 363.13892 202.740594 
L 363.751418 202.740594 
L 363.751418 197.950099 
L 364.258342 197.950099 
L 364.258342 193.159604 
L 364.4743 193.159604 
L 364.4743 188.369109 
L 365.02734 188.369109 
L 365.02734 183.578614 
L 365.480368 183.578614 
L 365.480368 178.788119 
L 365.562602 178.788119 
L 365.562602 173.997624 
L 365.597661 173.997624 
L 365.597661 169.207129 
L 366.198042 169.207129 
L 366.198042 164.416634 
L 366.488538 164.416634 
L 366.488538 159.626139 
L 366.528191 159.626139 
L 366.528191 154.835644 
L 366.698068 154.835644 
L 366.698068 150.045149 
L 367.48132 150.045149 
L 367.48132 145.254653 
L 367.765194 145.254653 
L 367.765194 140.464158 
L 367.882877 140.464158 
L 367.882877 135.673663 
L 367.950712 135.673663 
L 367.950712 130.883168 
L 367.977639 130.883168 
L 367.977639 126.092673 
L 368.800032 126.092673 
L 368.800032 121.302178 
L 369.161527 121.302178 
L 369.161527 116.511683 
L 369.219633 116.511683 
L 369.219633 111.721188 
L 369.280175 111.721188 
L 369.280175 106.930693 
L 369.378357 106.930693 
L 369.378357 102.140198 
L 369.487164 102.140198 
L 369.487164 97.349703 
L 369.937606 97.349703 
L 369.937606 92.559208 
L 371.498782 92.559208 
L 371.498782 87.768713 
L 372.932545 87.768713 
L 372.932545 82.978218 
L 373.086995 82.978218 
L 373.086995 78.187723 
L 375.001118 78.187723 
L 375.001118 73.397228 
L 375.08174 73.397228 
L 375.08174 68.606733 
L 375.344973 68.606733 
L 375.344973 63.816238 
L 375.958606 63.816238 
L 375.958606 59.025743 
L 377.043577 59.025743 
L 377.043577 54.235248 
L 377.629565 54.235248 
L 377.629565 49.444752 
L 378.643724 49.444752 
L 378.643724 44.654257 
L 378.98638 44.654257 
L 378.98638 39.863762 
L 379.960988 39.863762 
L 379.960988 35.073267 
L 381.156842 35.073267 
L 381.156842 30.282772 
L 383.984801 30.282772 
L 383.984801 25.492277 
L 385.361947 25.492277 
L 385.361947 20.701782 
L 385.773829 20.701782 
L 385.773829 15.911287 
L 405.216042 15.911287 
L 405.216042 11.120792 
L 406.664194 11.120792 
L 406.664194 6.330297 
L 406.664194 6.330297 
L 406.664194 6.330297 
L 460.8 6.330297 
" style="fill:none;stroke:#f5deb3;stroke-linecap:square;stroke-width:1.5;"/>
   </g>
   <g id="line2d_29">
    <path clip-path="url(#p581acb493b)" d="M 255.212909 293.76 
L 255.212909 288.969505 
L 255.212909 288.969505 
L 255.212909 284.17901 
L 255.212909 284.17901 
L 255.212909 279.388515 
L 266.655146 279.388515 
L 266.655146 274.59802 
L 266.655146 274.59802 
L 266.655146 269.807525 
L 266.655146 269.807525 
L 266.655146 265.01703 
L 285.216624 265.01703 
L 285.216624 260.226535 
L 285.216624 260.226535 
L 285.216624 255.43604 
L 285.216624 255.43604 
L 285.216624 250.645545 
L 285.886541 250.645545 
L 285.886541 245.85505 
L 285.886541 245.85505 
L 285.886541 241.064554 
L 285.886541 241.064554 
L 285.886541 236.274059 
L 297.870947 236.274059 
L 297.870947 231.483564 
L 297.870947 231.483564 
L 297.870947 226.693069 
L 297.870947 226.693069 
L 297.870947 221.902574 
L 299.439109 221.902574 
L 299.439109 217.112079 
L 299.439109 217.112079 
L 299.439109 212.321584 
L 299.439109 212.321584 
L 299.439109 207.531089 
L 299.771728 207.531089 
L 299.771728 202.740594 
L 299.771728 202.740594 
L 299.771728 197.950099 
L 299.771728 197.950099 
L 299.771728 193.159604 
L 300.881208 193.159604 
L 300.881208 188.369109 
L 300.881208 188.369109 
L 300.881208 183.578614 
L 300.881208 183.578614 
L 300.881208 178.788119 
L 300.938002 178.788119 
L 300.938002 173.997624 
L 300.938002 173.997624 
L 300.938002 169.207129 
L 300.938002 169.207129 
L 300.938002 164.416634 
L 321.359172 164.416634 
L 321.359172 159.626139 
L 321.359172 159.626139 
L 321.359172 154.835644 
L 321.359172 154.835644 
L 321.359172 150.045149 
L 321.359172 150.045149 
L 321.359172 150.045149 
L 460.8 150.045149 
" style="fill:none;stroke:#f5deb3;stroke-linecap:square;stroke-width:1.5;"/>
   </g>
   <g id="line2d_30"/>
   <g id="matplotlib.axis_1">
    <g id="xtick_1">
     <g id="line2d_31">
      <path clip-path="url(#p581acb493b)" d="M 153.280017 293.76 
L 153.280017 3.456 
" style="fill:none;stroke:#b0b0b0;stroke-linecap:square;stroke-width:0.8;"/>
     </g>
     <g id="line2d_32">
      <defs>
       <path d="M 0 0 
L 0 3.5 
" id="mdf755bdd34" style="stroke:#000000;stroke-width:0.8;"/>
      </defs>
      <g>
       <use style="stroke:#000000;stroke-width:0.8;" x="153.280017" xlink:href="#mdf755bdd34" y="293.76"/>
      </g>
     </g>
     <g id="text_1">
      <!-- 1 -->
      <g transform="translate(146.917517 315.956875)scale(0.2 -0.2)">
       <defs>
        <path d="M 794 531 
L 1825 531 
L 1825 4091 
L 703 3866 
L 703 4441 
L 1819 4666 
L 2450 4666 
L 2450 531 
L 3481 531 
L 3481 0 
L 794 0 
L 794 531 
z
" id="DejaVuSans-31" transform="scale(0.015625)"/>
       </defs>
       <use xlink:href="#DejaVuSans-31"/>
      </g>
     </g>
    </g>
    <g id="xtick_2">
     <g id="line2d_33">
      <path clip-path="url(#p581acb493b)" d="M 335.424051 293.76 
L 335.424051 3.456 
" style="fill:none;stroke:#b0b0b0;stroke-linecap:square;stroke-width:0.8;"/>
     </g>
     <g id="line2d_34">
      <g>
       <use style="stroke:#000000;stroke-width:0.8;" x="335.424051" xlink:href="#mdf755bdd34" y="293.76"/>
      </g>
     </g>
     <g id="text_2">
      <!-- 3 -->
      <g transform="translate(329.061551 315.956875)scale(0.2 -0.2)">
       <defs>
        <path d="M 2597 2516 
Q 3050 2419 3304 2112 
Q 3559 1806 3559 1356 
Q 3559 666 3084 287 
Q 2609 -91 1734 -91 
Q 1441 -91 1130 -33 
Q 819 25 488 141 
L 488 750 
Q 750 597 1062 519 
Q 1375 441 1716 441 
Q 2309 441 2620 675 
Q 2931 909 2931 1356 
Q 2931 1769 2642 2001 
Q 2353 2234 1838 2234 
L 1294 2234 
L 1294 2753 
L 1863 2753 
Q 2328 2753 2575 2939 
Q 2822 3125 2822 3475 
Q 2822 3834 2567 4026 
Q 2313 4219 1838 4219 
Q 1578 4219 1281 4162 
Q 984 4106 628 3988 
L 628 4550 
Q 988 4650 1302 4700 
Q 1616 4750 1894 4750 
Q 2613 4750 3031 4423 
Q 3450 4097 3450 3541 
Q 3450 3153 3228 2886 
Q 3006 2619 2597 2516 
z
" id="DejaVuSans-33" transform="scale(0.015625)"/>
       </defs>
       <use xlink:href="#DejaVuSans-33"/>
      </g>
     </g>
    </g>
    <g id="xtick_3">
     <g id="line2d_35">
      <path clip-path="url(#p581acb493b)" d="M 89.623409 293.76 
L 89.623409 3.456 
" style="fill:none;stroke:#b0b0b0;stroke-linecap:square;stroke-width:0.8;"/>
     </g>
     <g id="line2d_36">
      <defs>
       <path d="M 0 0 
L 0 2 
" id="m095416f43b" style="stroke:#000000;stroke-width:0.6;"/>
      </defs>
      <g>
       <use style="stroke:#000000;stroke-width:0.6;" x="89.623409" xlink:href="#m095416f43b" y="293.76"/>
      </g>
     </g>
    </g>
    <g id="xtick_4">
     <g id="line2d_37">
      <path clip-path="url(#p581acb493b)" d="M 105.660395 293.76 
L 105.660395 3.456 
" style="fill:none;stroke:#b0b0b0;stroke-linecap:square;stroke-width:0.8;"/>
     </g>
     <g id="line2d_38">
      <g>
       <use style="stroke:#000000;stroke-width:0.6;" x="105.660395" xlink:href="#m095416f43b" y="293.76"/>
      </g>
     </g>
    </g>
    <g id="xtick_5">
     <g id="line2d_39">
      <path clip-path="url(#p581acb493b)" d="M 117.038818 293.76 
L 117.038818 3.456 
" style="fill:none;stroke:#b0b0b0;stroke-linecap:square;stroke-width:0.8;"/>
     </g>
     <g id="line2d_40">
      <g>
       <use style="stroke:#000000;stroke-width:0.6;" x="117.038818" xlink:href="#m095416f43b" y="293.76"/>
      </g>
     </g>
    </g>
    <g id="xtick_6">
     <g id="line2d_41">
      <path clip-path="url(#p581acb493b)" d="M 125.864608 293.76 
L 125.864608 3.456 
" style="fill:none;stroke:#b0b0b0;stroke-linecap:square;stroke-width:0.8;"/>
     </g>
     <g id="line2d_42">
      <g>
       <use style="stroke:#000000;stroke-width:0.6;" x="125.864608" xlink:href="#m095416f43b" y="293.76"/>
      </g>
     </g>
    </g>
    <g id="xtick_7">
     <g id="line2d_43">
      <path clip-path="url(#p581acb493b)" d="M 133.075804 293.76 
L 133.075804 3.456 
" style="fill:none;stroke:#b0b0b0;stroke-linecap:square;stroke-width:0.8;"/>
     </g>
     <g id="line2d_44">
      <g>
       <use style="stroke:#000000;stroke-width:0.6;" x="133.075804" xlink:href="#m095416f43b" y="293.76"/>
      </g>
     </g>
    </g>
    <g id="xtick_8">
     <g id="line2d_45">
      <path clip-path="url(#p581acb493b)" d="M 139.172783 293.76 
L 139.172783 3.456 
" style="fill:none;stroke:#b0b0b0;stroke-linecap:square;stroke-width:0.8;"/>
     </g>
     <g id="line2d_46">
      <g>
       <use style="stroke:#000000;stroke-width:0.6;" x="139.172783" xlink:href="#m095416f43b" y="293.76"/>
      </g>
     </g>
    </g>
    <g id="xtick_9">
     <g id="line2d_47">
      <path clip-path="url(#p581acb493b)" d="M 144.454227 293.76 
L 144.454227 3.456 
" style="fill:none;stroke:#b0b0b0;stroke-linecap:square;stroke-width:0.8;"/>
     </g>
     <g id="line2d_48">
      <g>
       <use style="stroke:#000000;stroke-width:0.6;" x="144.454227" xlink:href="#m095416f43b" y="293.76"/>
      </g>
     </g>
    </g>
    <g id="xtick_10">
     <g id="line2d_49">
      <path clip-path="url(#p581acb493b)" d="M 149.11279 293.76 
L 149.11279 3.456 
" style="fill:none;stroke:#b0b0b0;stroke-linecap:square;stroke-width:0.8;"/>
     </g>
     <g id="line2d_50">
      <g>
       <use style="stroke:#000000;stroke-width:0.6;" x="149.11279" xlink:href="#m095416f43b" y="293.76"/>
      </g>
     </g>
    </g>
    <g id="xtick_11">
     <g id="line2d_51">
      <path clip-path="url(#p581acb493b)" d="M 180.695426 293.76 
L 180.695426 3.456 
" style="fill:none;stroke:#b0b0b0;stroke-linecap:square;stroke-width:0.8;"/>
     </g>
     <g id="line2d_52">
      <g>
       <use style="stroke:#000000;stroke-width:0.6;" x="180.695426" xlink:href="#m095416f43b" y="293.76"/>
      </g>
     </g>
    </g>
    <g id="xtick_12">
     <g id="line2d_53">
      <path clip-path="url(#p581acb493b)" d="M 196.732412 293.76 
L 196.732412 3.456 
" style="fill:none;stroke:#b0b0b0;stroke-linecap:square;stroke-width:0.8;"/>
     </g>
     <g id="line2d_54">
      <g>
       <use style="stroke:#000000;stroke-width:0.6;" x="196.732412" xlink:href="#m095416f43b" y="293.76"/>
      </g>
     </g>
    </g>
    <g id="xtick_13">
     <g id="line2d_55">
      <path clip-path="url(#p581acb493b)" d="M 208.110835 293.76 
L 208.110835 3.456 
" style="fill:none;stroke:#b0b0b0;stroke-linecap:square;stroke-width:0.8;"/>
     </g>
     <g id="line2d_56">
      <g>
       <use style="stroke:#000000;stroke-width:0.6;" x="208.110835" xlink:href="#m095416f43b" y="293.76"/>
      </g>
     </g>
    </g>
    <g id="xtick_14">
     <g id="line2d_57">
      <path clip-path="url(#p581acb493b)" d="M 216.936625 293.76 
L 216.936625 3.456 
" style="fill:none;stroke:#b0b0b0;stroke-linecap:square;stroke-width:0.8;"/>
     </g>
     <g id="line2d_58">
      <g>
       <use style="stroke:#000000;stroke-width:0.6;" x="216.936625" xlink:href="#m095416f43b" y="293.76"/>
      </g>
     </g>
    </g>
    <g id="xtick_15">
     <g id="line2d_59">
      <path clip-path="url(#p581acb493b)" d="M 224.147821 293.76 
L 224.147821 3.456 
" style="fill:none;stroke:#b0b0b0;stroke-linecap:square;stroke-width:0.8;"/>
     </g>
     <g id="line2d_60">
      <g>
       <use style="stroke:#000000;stroke-width:0.6;" x="224.147821" xlink:href="#m095416f43b" y="293.76"/>
      </g>
     </g>
    </g>
    <g id="xtick_16">
     <g id="line2d_61">
      <path clip-path="url(#p581acb493b)" d="M 230.2448 293.76 
L 230.2448 3.456 
" style="fill:none;stroke:#b0b0b0;stroke-linecap:square;stroke-width:0.8;"/>
     </g>
     <g id="line2d_62">
      <g>
       <use style="stroke:#000000;stroke-width:0.6;" x="230.2448" xlink:href="#m095416f43b" y="293.76"/>
      </g>
     </g>
    </g>
    <g id="xtick_17">
     <g id="line2d_63">
      <path clip-path="url(#p581acb493b)" d="M 235.526244 293.76 
L 235.526244 3.456 
" style="fill:none;stroke:#b0b0b0;stroke-linecap:square;stroke-width:0.8;"/>
     </g>
     <g id="line2d_64">
      <g>
       <use style="stroke:#000000;stroke-width:0.6;" x="235.526244" xlink:href="#m095416f43b" y="293.76"/>
      </g>
     </g>
    </g>
    <g id="xtick_18">
     <g id="line2d_65">
      <path clip-path="url(#p581acb493b)" d="M 240.184807 293.76 
L 240.184807 3.456 
" style="fill:none;stroke:#b0b0b0;stroke-linecap:square;stroke-width:0.8;"/>
     </g>
     <g id="line2d_66">
      <g>
       <use style="stroke:#000000;stroke-width:0.6;" x="240.184807" xlink:href="#m095416f43b" y="293.76"/>
      </g>
     </g>
    </g>
    <g id="xtick_19">
     <g id="line2d_67">
      <path clip-path="url(#p581acb493b)" d="M 271.767443 293.76 
L 271.767443 3.456 
" style="fill:none;stroke:#b0b0b0;stroke-linecap:square;stroke-width:0.8;"/>
     </g>
     <g id="line2d_68">
      <g>
       <use style="stroke:#000000;stroke-width:0.6;" x="271.767443" xlink:href="#m095416f43b" y="293.76"/>
      </g>
     </g>
    </g>
    <g id="xtick_20">
     <g id="line2d_69">
      <path clip-path="url(#p581acb493b)" d="M 287.804429 293.76 
L 287.804429 3.456 
" style="fill:none;stroke:#b0b0b0;stroke-linecap:square;stroke-width:0.8;"/>
     </g>
     <g id="line2d_70">
      <g>
       <use style="stroke:#000000;stroke-width:0.6;" x="287.804429" xlink:href="#m095416f43b" y="293.76"/>
      </g>
     </g>
    </g>
    <g id="xtick_21">
     <g id="line2d_71">
      <path clip-path="url(#p581acb493b)" d="M 299.182852 293.76 
L 299.182852 3.456 
" style="fill:none;stroke:#b0b0b0;stroke-linecap:square;stroke-width:0.8;"/>
     </g>
     <g id="line2d_72">
      <g>
       <use style="stroke:#000000;stroke-width:0.6;" x="299.182852" xlink:href="#m095416f43b" y="293.76"/>
      </g>
     </g>
    </g>
    <g id="xtick_22">
     <g id="line2d_73">
      <path clip-path="url(#p581acb493b)" d="M 308.008642 293.76 
L 308.008642 3.456 
" style="fill:none;stroke:#b0b0b0;stroke-linecap:square;stroke-width:0.8;"/>
     </g>
     <g id="line2d_74">
      <g>
       <use style="stroke:#000000;stroke-width:0.6;" x="308.008642" xlink:href="#m095416f43b" y="293.76"/>
      </g>
     </g>
    </g>
    <g id="xtick_23">
     <g id="line2d_75">
      <path clip-path="url(#p581acb493b)" d="M 315.219838 293.76 
L 315.219838 3.456 
" style="fill:none;stroke:#b0b0b0;stroke-linecap:square;stroke-width:0.8;"/>
     </g>
     <g id="line2d_76">
      <g>
       <use style="stroke:#000000;stroke-width:0.6;" x="315.219838" xlink:href="#m095416f43b" y="293.76"/>
      </g>
     </g>
    </g>
    <g id="xtick_24">
     <g id="line2d_77">
      <path clip-path="url(#p581acb493b)" d="M 321.316817 293.76 
L 321.316817 3.456 
" style="fill:none;stroke:#b0b0b0;stroke-linecap:square;stroke-width:0.8;"/>
     </g>
     <g id="line2d_78">
      <g>
       <use style="stroke:#000000;stroke-width:0.6;" x="321.316817" xlink:href="#m095416f43b" y="293.76"/>
      </g>
     </g>
    </g>
    <g id="xtick_25">
     <g id="line2d_79">
      <path clip-path="url(#p581acb493b)" d="M 326.598261 293.76 
L 326.598261 3.456 
" style="fill:none;stroke:#b0b0b0;stroke-linecap:square;stroke-width:0.8;"/>
     </g>
     <g id="line2d_80">
      <g>
       <use style="stroke:#000000;stroke-width:0.6;" x="326.598261" xlink:href="#m095416f43b" y="293.76"/>
      </g>
     </g>
    </g>
    <g id="xtick_26">
     <g id="line2d_81">
      <path clip-path="url(#p581acb493b)" d="M 331.256824 293.76 
L 331.256824 3.456 
" style="fill:none;stroke:#b0b0b0;stroke-linecap:square;stroke-width:0.8;"/>
     </g>
     <g id="line2d_82">
      <g>
       <use style="stroke:#000000;stroke-width:0.6;" x="331.256824" xlink:href="#m095416f43b" y="293.76"/>
      </g>
     </g>
    </g>
    <g id="xtick_27">
     <g id="line2d_83">
      <path clip-path="url(#p581acb493b)" d="M 362.83946 293.76 
L 362.83946 3.456 
" style="fill:none;stroke:#b0b0b0;stroke-linecap:square;stroke-width:0.8;"/>
     </g>
     <g id="line2d_84">
      <g>
       <use style="stroke:#000000;stroke-width:0.6;" x="362.83946" xlink:href="#m095416f43b" y="293.76"/>
      </g>
     </g>
    </g>
    <g id="xtick_28">
     <g id="line2d_85">
      <path clip-path="url(#p581acb493b)" d="M 378.876446 293.76 
L 378.876446 3.456 
" style="fill:none;stroke:#b0b0b0;stroke-linecap:square;stroke-width:0.8;"/>
     </g>
     <g id="line2d_86">
      <g>
       <use style="stroke:#000000;stroke-width:0.6;" x="378.876446" xlink:href="#m095416f43b" y="293.76"/>
      </g>
     </g>
    </g>
    <g id="xtick_29">
     <g id="line2d_87">
      <path clip-path="url(#p581acb493b)" d="M 390.254869 293.76 
L 390.254869 3.456 
" style="fill:none;stroke:#b0b0b0;stroke-linecap:square;stroke-width:0.8;"/>
     </g>
     <g id="line2d_88">
      <g>
       <use style="stroke:#000000;stroke-width:0.6;" x="390.254869" xlink:href="#m095416f43b" y="293.76"/>
      </g>
     </g>
    </g>
    <g id="xtick_30">
     <g id="line2d_89">
      <path clip-path="url(#p581acb493b)" d="M 399.08066 293.76 
L 399.08066 3.456 
" style="fill:none;stroke:#b0b0b0;stroke-linecap:square;stroke-width:0.8;"/>
     </g>
     <g id="line2d_90">
      <g>
       <use style="stroke:#000000;stroke-width:0.6;" x="399.08066" xlink:href="#m095416f43b" y="293.76"/>
      </g>
     </g>
    </g>
    <g id="xtick_31">
     <g id="line2d_91">
      <path clip-path="url(#p581acb493b)" d="M 406.291855 293.76 
L 406.291855 3.456 
" style="fill:none;stroke:#b0b0b0;stroke-linecap:square;stroke-width:0.8;"/>
     </g>
     <g id="line2d_92">
      <g>
       <use style="stroke:#000000;stroke-width:0.6;" x="406.291855" xlink:href="#m095416f43b" y="293.76"/>
      </g>
     </g>
    </g>
    <g id="xtick_32">
     <g id="line2d_93">
      <path clip-path="url(#p581acb493b)" d="M 412.388835 293.76 
L 412.388835 3.456 
" style="fill:none;stroke:#b0b0b0;stroke-linecap:square;stroke-width:0.8;"/>
     </g>
     <g id="line2d_94">
      <g>
       <use style="stroke:#000000;stroke-width:0.6;" x="412.388835" xlink:href="#m095416f43b" y="293.76"/>
      </g>
     </g>
    </g>
    <g id="xtick_33">
     <g id="line2d_95">
      <path clip-path="url(#p581acb493b)" d="M 417.670278 293.76 
L 417.670278 3.456 
" style="fill:none;stroke:#b0b0b0;stroke-linecap:square;stroke-width:0.8;"/>
     </g>
     <g id="line2d_96">
      <g>
       <use style="stroke:#000000;stroke-width:0.6;" x="417.670278" xlink:href="#m095416f43b" y="293.76"/>
      </g>
     </g>
    </g>
    <g id="xtick_34">
     <g id="line2d_97">
      <path clip-path="url(#p581acb493b)" d="M 422.328842 293.76 
L 422.328842 3.456 
" style="fill:none;stroke:#b0b0b0;stroke-linecap:square;stroke-width:0.8;"/>
     </g>
     <g id="line2d_98">
      <g>
       <use style="stroke:#000000;stroke-width:0.6;" x="422.328842" xlink:href="#m095416f43b" y="293.76"/>
      </g>
     </g>
    </g>
    <g id="xtick_35">
     <g id="line2d_99">
      <path clip-path="url(#p581acb493b)" d="M 453.911477 293.76 
L 453.911477 3.456 
" style="fill:none;stroke:#b0b0b0;stroke-linecap:square;stroke-width:0.8;"/>
     </g>
     <g id="line2d_100">
      <g>
       <use style="stroke:#000000;stroke-width:0.6;" x="453.911477" xlink:href="#m095416f43b" y="293.76"/>
      </g>
     </g>
    </g>
    <g id="text_3">
     <!-- log10 of FEvals / DIM -->
     <g transform="translate(156.430563 339.313125)scale(0.2 -0.2)">
      <defs>
       <path d="M 603 4863 
L 1178 4863 
L 1178 0 
L 603 0 
L 603 4863 
z
" id="DejaVuSans-6c" transform="scale(0.015625)"/>
       <path d="M 1959 3097 
Q 1497 3097 1228 2736 
Q 959 2375 959 1747 
Q 959 1119 1226 758 
Q 1494 397 1959 397 
Q 2419 397 2687 759 
Q 2956 1122 2956 1747 
Q 2956 2369 2687 2733 
Q 2419 3097 1959 3097 
z
M 1959 3584 
Q 2709 3584 3137 3096 
Q 3566 2609 3566 1747 
Q 3566 888 3137 398 
Q 2709 -91 1959 -91 
Q 1206 -91 779 398 
Q 353 888 353 1747 
Q 353 2609 779 3096 
Q 1206 3584 1959 3584 
z
" id="DejaVuSans-6f" transform="scale(0.015625)"/>
       <path d="M 2906 1791 
Q 2906 2416 2648 2759 
Q 2391 3103 1925 3103 
Q 1463 3103 1205 2759 
Q 947 2416 947 1791 
Q 947 1169 1205 825 
Q 1463 481 1925 481 
Q 2391 481 2648 825 
Q 2906 1169 2906 1791 
z
M 3481 434 
Q 3481 -459 3084 -895 
Q 2688 -1331 1869 -1331 
Q 1566 -1331 1297 -1286 
Q 1028 -1241 775 -1147 
L 775 -588 
Q 1028 -725 1275 -790 
Q 1522 -856 1778 -856 
Q 2344 -856 2625 -561 
Q 2906 -266 2906 331 
L 2906 616 
Q 2728 306 2450 153 
Q 2172 0 1784 0 
Q 1141 0 747 490 
Q 353 981 353 1791 
Q 353 2603 747 3093 
Q 1141 3584 1784 3584 
Q 2172 3584 2450 3431 
Q 2728 3278 2906 2969 
L 2906 3500 
L 3481 3500 
L 3481 434 
z
" id="DejaVuSans-67" transform="scale(0.015625)"/>
       <path d="M 2034 4250 
Q 1547 4250 1301 3770 
Q 1056 3291 1056 2328 
Q 1056 1369 1301 889 
Q 1547 409 2034 409 
Q 2525 409 2770 889 
Q 3016 1369 3016 2328 
Q 3016 3291 2770 3770 
Q 2525 4250 2034 4250 
z
M 2034 4750 
Q 2819 4750 3233 4129 
Q 3647 3509 3647 2328 
Q 3647 1150 3233 529 
Q 2819 -91 2034 -91 
Q 1250 -91 836 529 
Q 422 1150 422 2328 
Q 422 3509 836 4129 
Q 1250 4750 2034 4750 
z
" id="DejaVuSans-30" transform="scale(0.015625)"/>
       <path id="DejaVuSans-20" transform="scale(0.015625)"/>
       <path d="M 2375 4863 
L 2375 4384 
L 1825 4384 
Q 1516 4384 1395 4259 
Q 1275 4134 1275 3809 
L 1275 3500 
L 2222 3500 
L 2222 3053 
L 1275 3053 
L 1275 0 
L 697 0 
L 697 3053 
L 147 3053 
L 147 3500 
L 697 3500 
L 697 3744 
Q 697 4328 969 4595 
Q 1241 4863 1831 4863 
L 2375 4863 
z
" id="DejaVuSans-66" transform="scale(0.015625)"/>
       <path d="M 628 4666 
L 3309 4666 
L 3309 4134 
L 1259 4134 
L 1259 2759 
L 3109 2759 
L 3109 2228 
L 1259 2228 
L 1259 0 
L 628 0 
L 628 4666 
z
" id="DejaVuSans-46" transform="scale(0.015625)"/>
       <path d="M 628 4666 
L 3578 4666 
L 3578 4134 
L 1259 4134 
L 1259 2753 
L 3481 2753 
L 3481 2222 
L 1259 2222 
L 1259 531 
L 3634 531 
L 3634 0 
L 628 0 
L 628 4666 
z
" id="DejaVuSans-45" transform="scale(0.015625)"/>
       <path d="M 191 3500 
L 800 3500 
L 1894 563 
L 2988 3500 
L 3597 3500 
L 2284 0 
L 1503 0 
L 191 3500 
z
" id="DejaVuSans-76" transform="scale(0.015625)"/>
       <path d="M 2194 1759 
Q 1497 1759 1228 1600 
Q 959 1441 959 1056 
Q 959 750 1161 570 
Q 1363 391 1709 391 
Q 2188 391 2477 730 
Q 2766 1069 2766 1631 
L 2766 1759 
L 2194 1759 
z
M 3341 1997 
L 3341 0 
L 2766 0 
L 2766 531 
Q 2569 213 2275 61 
Q 1981 -91 1556 -91 
Q 1019 -91 701 211 
Q 384 513 384 1019 
Q 384 1609 779 1909 
Q 1175 2209 1959 2209 
L 2766 2209 
L 2766 2266 
Q 2766 2663 2505 2880 
Q 2244 3097 1772 3097 
Q 1472 3097 1187 3025 
Q 903 2953 641 2809 
L 641 3341 
Q 956 3463 1253 3523 
Q 1550 3584 1831 3584 
Q 2591 3584 2966 3190 
Q 3341 2797 3341 1997 
z
" id="DejaVuSans-61" transform="scale(0.015625)"/>
       <path d="M 2834 3397 
L 2834 2853 
Q 2591 2978 2328 3040 
Q 2066 3103 1784 3103 
Q 1356 3103 1142 2972 
Q 928 2841 928 2578 
Q 928 2378 1081 2264 
Q 1234 2150 1697 2047 
L 1894 2003 
Q 2506 1872 2764 1633 
Q 3022 1394 3022 966 
Q 3022 478 2636 193 
Q 2250 -91 1575 -91 
Q 1294 -91 989 -36 
Q 684 19 347 128 
L 347 722 
Q 666 556 975 473 
Q 1284 391 1588 391 
Q 1994 391 2212 530 
Q 2431 669 2431 922 
Q 2431 1156 2273 1281 
Q 2116 1406 1581 1522 
L 1381 1569 
Q 847 1681 609 1914 
Q 372 2147 372 2553 
Q 372 3047 722 3315 
Q 1072 3584 1716 3584 
Q 2034 3584 2315 3537 
Q 2597 3491 2834 3397 
z
" id="DejaVuSans-73" transform="scale(0.015625)"/>
       <path d="M 1625 4666 
L 2156 4666 
L 531 -594 
L 0 -594 
L 1625 4666 
z
" id="DejaVuSans-2f" transform="scale(0.015625)"/>
       <path d="M 1259 4147 
L 1259 519 
L 2022 519 
Q 2988 519 3436 956 
Q 3884 1394 3884 2338 
Q 3884 3275 3436 3711 
Q 2988 4147 2022 4147 
L 1259 4147 
z
M 628 4666 
L 1925 4666 
Q 3281 4666 3915 4102 
Q 4550 3538 4550 2338 
Q 4550 1131 3912 565 
Q 3275 0 1925 0 
L 628 0 
L 628 4666 
z
" id="DejaVuSans-44" transform="scale(0.015625)"/>
       <path d="M 628 4666 
L 1259 4666 
L 1259 0 
L 628 0 
L 628 4666 
z
" id="DejaVuSans-49" transform="scale(0.015625)"/>
       <path d="M 628 4666 
L 1569 4666 
L 2759 1491 
L 3956 4666 
L 4897 4666 
L 4897 0 
L 4281 0 
L 4281 4097 
L 3078 897 
L 2444 897 
L 1241 4097 
L 1241 0 
L 628 0 
L 628 4666 
z
" id="DejaVuSans-4d" transform="scale(0.015625)"/>
      </defs>
      <use xlink:href="#DejaVuSans-6c"/>
      <use x="27.783203" xlink:href="#DejaVuSans-6f"/>
      <use x="88.964844" xlink:href="#DejaVuSans-67"/>
      <use x="152.441406" xlink:href="#DejaVuSans-31"/>
      <use x="216.064453" xlink:href="#DejaVuSans-30"/>
      <use x="279.6875" xlink:href="#DejaVuSans-20"/>
      <use x="311.474609" xlink:href="#DejaVuSans-6f"/>
      <use x="372.65625" xlink:href="#DejaVuSans-66"/>
      <use x="407.861328" xlink:href="#DejaVuSans-20"/>
      <use x="439.648438" xlink:href="#DejaVuSans-46"/>
      <use x="497.167969" xlink:href="#DejaVuSans-45"/>
      <use x="560.351562" xlink:href="#DejaVuSans-76"/>
      <use x="619.53125" xlink:href="#DejaVuSans-61"/>
      <use x="680.810547" xlink:href="#DejaVuSans-6c"/>
      <use x="708.59375" xlink:href="#DejaVuSans-73"/>
      <use x="760.693359" xlink:href="#DejaVuSans-20"/>
      <use x="792.480469" xlink:href="#DejaVuSans-2f"/>
      <use x="826.171875" xlink:href="#DejaVuSans-20"/>
      <use x="857.958984" xlink:href="#DejaVuSans-44"/>
      <use x="934.960938" xlink:href="#DejaVuSans-49"/>
      <use x="964.453125" xlink:href="#DejaVuSans-4d"/>
     </g>
    </g>
   </g>
   <g id="matplotlib.axis_2">
    <g id="ytick_1">
     <g id="line2d_101">
      <path clip-path="url(#p581acb493b)" d="M 62.208 293.76 
L 460.8 293.76 
" style="fill:none;stroke:#b0b0b0;stroke-linecap:square;stroke-width:0.8;"/>
     </g>
     <g id="line2d_102">
      <defs>
       <path d="M 0 0 
L -3.5 0 
" id="m1c681090cd" style="stroke:#000000;stroke-width:0.8;"/>
      </defs>
      <g>
       <use style="stroke:#000000;stroke-width:0.8;" x="62.208" xlink:href="#m1c681090cd" y="293.76"/>
      </g>
     </g>
     <g id="text_4">
      <!-- 0.0 -->
      <g transform="translate(29.763 299.83875)scale(0.16 -0.16)">
       <defs>
        <path d="M 684 794 
L 1344 794 
L 1344 0 
L 684 0 
L 684 794 
z
" id="DejaVuSans-2e" transform="scale(0.015625)"/>
       </defs>
       <use xlink:href="#DejaVuSans-30"/>
       <use x="63.623047" xlink:href="#DejaVuSans-2e"/>
       <use x="95.410156" xlink:href="#DejaVuSans-30"/>
      </g>
     </g>
    </g>
    <g id="ytick_2">
     <g id="line2d_103">
      <path clip-path="url(#p581acb493b)" d="M 62.208 236.274059 
L 460.8 236.274059 
" style="fill:none;stroke:#b0b0b0;stroke-linecap:square;stroke-width:0.8;"/>
     </g>
     <g id="line2d_104">
      <g>
       <use style="stroke:#000000;stroke-width:0.8;" x="62.208" xlink:href="#m1c681090cd" y="236.274059"/>
      </g>
     </g>
     <g id="text_5">
      <!-- 0.2 -->
      <g transform="translate(29.763 242.352809)scale(0.16 -0.16)">
       <defs>
        <path d="M 1228 531 
L 3431 531 
L 3431 0 
L 469 0 
L 469 531 
Q 828 903 1448 1529 
Q 2069 2156 2228 2338 
Q 2531 2678 2651 2914 
Q 2772 3150 2772 3378 
Q 2772 3750 2511 3984 
Q 2250 4219 1831 4219 
Q 1534 4219 1204 4116 
Q 875 4013 500 3803 
L 500 4441 
Q 881 4594 1212 4672 
Q 1544 4750 1819 4750 
Q 2544 4750 2975 4387 
Q 3406 4025 3406 3419 
Q 3406 3131 3298 2873 
Q 3191 2616 2906 2266 
Q 2828 2175 2409 1742 
Q 1991 1309 1228 531 
z
" id="DejaVuSans-32" transform="scale(0.015625)"/>
       </defs>
       <use xlink:href="#DejaVuSans-30"/>
       <use x="63.623047" xlink:href="#DejaVuSans-2e"/>
       <use x="95.410156" xlink:href="#DejaVuSans-32"/>
      </g>
     </g>
    </g>
    <g id="ytick_3">
     <g id="line2d_105">
      <path clip-path="url(#p581acb493b)" d="M 62.208 178.788119 
L 460.8 178.788119 
" style="fill:none;stroke:#b0b0b0;stroke-linecap:square;stroke-width:0.8;"/>
     </g>
     <g id="line2d_106">
      <g>
       <use style="stroke:#000000;stroke-width:0.8;" x="62.208" xlink:href="#m1c681090cd" y="178.788119"/>
      </g>
     </g>
     <g id="text_6">
      <!-- 0.4 -->
      <g transform="translate(29.763 184.866869)scale(0.16 -0.16)">
       <defs>
        <path d="M 2419 4116 
L 825 1625 
L 2419 1625 
L 2419 4116 
z
M 2253 4666 
L 3047 4666 
L 3047 1625 
L 3713 1625 
L 3713 1100 
L 3047 1100 
L 3047 0 
L 2419 0 
L 2419 1100 
L 313 1100 
L 313 1709 
L 2253 4666 
z
" id="DejaVuSans-34" transform="scale(0.015625)"/>
       </defs>
       <use xlink:href="#DejaVuSans-30"/>
       <use x="63.623047" xlink:href="#DejaVuSans-2e"/>
       <use x="95.410156" xlink:href="#DejaVuSans-34"/>
      </g>
     </g>
    </g>
    <g id="ytick_4">
     <g id="line2d_107">
      <path clip-path="url(#p581acb493b)" d="M 62.208 121.302178 
L 460.8 121.302178 
" style="fill:none;stroke:#b0b0b0;stroke-linecap:square;stroke-width:0.8;"/>
     </g>
     <g id="line2d_108">
      <g>
       <use style="stroke:#000000;stroke-width:0.8;" x="62.208" xlink:href="#m1c681090cd" y="121.302178"/>
      </g>
     </g>
     <g id="text_7">
      <!-- 0.6 -->
      <g transform="translate(29.763 127.380928)scale(0.16 -0.16)">
       <defs>
        <path d="M 2113 2584 
Q 1688 2584 1439 2293 
Q 1191 2003 1191 1497 
Q 1191 994 1439 701 
Q 1688 409 2113 409 
Q 2538 409 2786 701 
Q 3034 994 3034 1497 
Q 3034 2003 2786 2293 
Q 2538 2584 2113 2584 
z
M 3366 4563 
L 3366 3988 
Q 3128 4100 2886 4159 
Q 2644 4219 2406 4219 
Q 1781 4219 1451 3797 
Q 1122 3375 1075 2522 
Q 1259 2794 1537 2939 
Q 1816 3084 2150 3084 
Q 2853 3084 3261 2657 
Q 3669 2231 3669 1497 
Q 3669 778 3244 343 
Q 2819 -91 2113 -91 
Q 1303 -91 875 529 
Q 447 1150 447 2328 
Q 447 3434 972 4092 
Q 1497 4750 2381 4750 
Q 2619 4750 2861 4703 
Q 3103 4656 3366 4563 
z
" id="DejaVuSans-36" transform="scale(0.015625)"/>
       </defs>
       <use xlink:href="#DejaVuSans-30"/>
       <use x="63.623047" xlink:href="#DejaVuSans-2e"/>
       <use x="95.410156" xlink:href="#DejaVuSans-36"/>
      </g>
     </g>
    </g>
    <g id="ytick_5">
     <g id="line2d_109">
      <path clip-path="url(#p581acb493b)" d="M 62.208 63.816238 
L 460.8 63.816238 
" style="fill:none;stroke:#b0b0b0;stroke-linecap:square;stroke-width:0.8;"/>
     </g>
     <g id="line2d_110">
      <g>
       <use style="stroke:#000000;stroke-width:0.8;" x="62.208" xlink:href="#m1c681090cd" y="63.816238"/>
      </g>
     </g>
     <g id="text_8">
      <!-- 0.8 -->
      <g transform="translate(29.763 69.894988)scale(0.16 -0.16)">
       <defs>
        <path d="M 2034 2216 
Q 1584 2216 1326 1975 
Q 1069 1734 1069 1313 
Q 1069 891 1326 650 
Q 1584 409 2034 409 
Q 2484 409 2743 651 
Q 3003 894 3003 1313 
Q 3003 1734 2745 1975 
Q 2488 2216 2034 2216 
z
M 1403 2484 
Q 997 2584 770 2862 
Q 544 3141 544 3541 
Q 544 4100 942 4425 
Q 1341 4750 2034 4750 
Q 2731 4750 3128 4425 
Q 3525 4100 3525 3541 
Q 3525 3141 3298 2862 
Q 3072 2584 2669 2484 
Q 3125 2378 3379 2068 
Q 3634 1759 3634 1313 
Q 3634 634 3220 271 
Q 2806 -91 2034 -91 
Q 1263 -91 848 271 
Q 434 634 434 1313 
Q 434 1759 690 2068 
Q 947 2378 1403 2484 
z
M 1172 3481 
Q 1172 3119 1398 2916 
Q 1625 2713 2034 2713 
Q 2441 2713 2670 2916 
Q 2900 3119 2900 3481 
Q 2900 3844 2670 4047 
Q 2441 4250 2034 4250 
Q 1625 4250 1398 4047 
Q 1172 3844 1172 3481 
z
" id="DejaVuSans-38" transform="scale(0.015625)"/>
       </defs>
       <use xlink:href="#DejaVuSans-30"/>
       <use x="63.623047" xlink:href="#DejaVuSans-2e"/>
       <use x="95.410156" xlink:href="#DejaVuSans-38"/>
      </g>
     </g>
    </g>
    <g id="ytick_6">
     <g id="line2d_111">
      <path clip-path="url(#p581acb493b)" d="M 62.208 6.330297 
L 460.8 6.330297 
" style="fill:none;stroke:#b0b0b0;stroke-linecap:square;stroke-width:0.8;"/>
     </g>
     <g id="line2d_112">
      <g>
       <use style="stroke:#000000;stroke-width:0.8;" x="62.208" xlink:href="#m1c681090cd" y="6.330297"/>
      </g>
     </g>
     <g id="text_9">
      <!-- 1.0 -->
      <g transform="translate(29.763 12.409047)scale(0.16 -0.16)">
       <use xlink:href="#DejaVuSans-31"/>
       <use x="63.623047" xlink:href="#DejaVuSans-2e"/>
       <use x="95.410156" xlink:href="#DejaVuSans-30"/>
      </g>
     </g>
    </g>
    <g id="text_10">
     <!-- proportion of trials -->
     <g transform="translate(21.603625 241.61425)rotate(-90)scale(0.2 -0.2)">
      <defs>
       <path d="M 1159 525 
L 1159 -1331 
L 581 -1331 
L 581 3500 
L 1159 3500 
L 1159 2969 
Q 1341 3281 1617 3432 
Q 1894 3584 2278 3584 
Q 2916 3584 3314 3078 
Q 3713 2572 3713 1747 
Q 3713 922 3314 415 
Q 2916 -91 2278 -91 
Q 1894 -91 1617 61 
Q 1341 213 1159 525 
z
M 3116 1747 
Q 3116 2381 2855 2742 
Q 2594 3103 2138 3103 
Q 1681 3103 1420 2742 
Q 1159 2381 1159 1747 
Q 1159 1113 1420 752 
Q 1681 391 2138 391 
Q 2594 391 2855 752 
Q 3116 1113 3116 1747 
z
" id="DejaVuSans-70" transform="scale(0.015625)"/>
       <path d="M 2631 2963 
Q 2534 3019 2420 3045 
Q 2306 3072 2169 3072 
Q 1681 3072 1420 2755 
Q 1159 2438 1159 1844 
L 1159 0 
L 581 0 
L 581 3500 
L 1159 3500 
L 1159 2956 
Q 1341 3275 1631 3429 
Q 1922 3584 2338 3584 
Q 2397 3584 2469 3576 
Q 2541 3569 2628 3553 
L 2631 2963 
z
" id="DejaVuSans-72" transform="scale(0.015625)"/>
       <path d="M 1172 4494 
L 1172 3500 
L 2356 3500 
L 2356 3053 
L 1172 3053 
L 1172 1153 
Q 1172 725 1289 603 
Q 1406 481 1766 481 
L 2356 481 
L 2356 0 
L 1766 0 
Q 1100 0 847 248 
Q 594 497 594 1153 
L 594 3053 
L 172 3053 
L 172 3500 
L 594 3500 
L 594 4494 
L 1172 4494 
z
" id="DejaVuSans-74" transform="scale(0.015625)"/>
       <path d="M 603 3500 
L 1178 3500 
L 1178 0 
L 603 0 
L 603 3500 
z
M 603 4863 
L 1178 4863 
L 1178 4134 
L 603 4134 
L 603 4863 
z
" id="DejaVuSans-69" transform="scale(0.015625)"/>
       <path d="M 3513 2113 
L 3513 0 
L 2938 0 
L 2938 2094 
Q 2938 2591 2744 2837 
Q 2550 3084 2163 3084 
Q 1697 3084 1428 2787 
Q 1159 2491 1159 1978 
L 1159 0 
L 581 0 
L 581 3500 
L 1159 3500 
L 1159 2956 
Q 1366 3272 1645 3428 
Q 1925 3584 2291 3584 
Q 2894 3584 3203 3211 
Q 3513 2838 3513 2113 
z
" id="DejaVuSans-6e" transform="scale(0.015625)"/>
      </defs>
      <use xlink:href="#DejaVuSans-70"/>
      <use x="63.476562" xlink:href="#DejaVuSans-72"/>
      <use x="102.339844" xlink:href="#DejaVuSans-6f"/>
      <use x="163.521484" xlink:href="#DejaVuSans-70"/>
      <use x="226.998047" xlink:href="#DejaVuSans-6f"/>
      <use x="288.179688" xlink:href="#DejaVuSans-72"/>
      <use x="329.292969" xlink:href="#DejaVuSans-74"/>
      <use x="368.501953" xlink:href="#DejaVuSans-69"/>
      <use x="396.285156" xlink:href="#DejaVuSans-6f"/>
      <use x="457.466797" xlink:href="#DejaVuSans-6e"/>
      <use x="520.845703" xlink:href="#DejaVuSans-20"/>
      <use x="552.632812" xlink:href="#DejaVuSans-6f"/>
      <use x="613.814453" xlink:href="#DejaVuSans-66"/>
      <use x="649.019531" xlink:href="#DejaVuSans-20"/>
      <use x="680.806641" xlink:href="#DejaVuSans-74"/>
      <use x="720.015625" xlink:href="#DejaVuSans-72"/>
      <use x="761.128906" xlink:href="#DejaVuSans-69"/>
      <use x="788.912109" xlink:href="#DejaVuSans-61"/>
      <use x="850.191406" xlink:href="#DejaVuSans-6c"/>
      <use x="877.974609" xlink:href="#DejaVuSans-73"/>
     </g>
    </g>
   </g>
   <g id="line2d_113">
    <path clip-path="url(#p581acb493b)" d="M 254.729085 293.76 
L 254.729085 288.969505 
L 258.221241 288.969505 
L 258.221241 284.17901 
L 260.520641 284.17901 
L 260.520641 279.388515 
L 261.711435 279.388515 
L 261.711435 274.59802 
L 262.531654 274.59802 
L 262.531654 269.807525 
L 263.761224 269.807525 
L 263.761224 265.01703 
L 263.797527 265.01703 
L 263.797527 260.226535 
L 263.845879 260.226535 
L 263.845879 255.43604 
L 264.824291 255.43604 
L 264.824291 250.645545 
L 265.478832 250.645545 
L 265.478832 245.85505 
L 266.406816 245.85505 
L 266.406816 241.064554 
L 266.711368 241.064554 
L 266.711368 236.274059 
L 268.512496 236.274059 
L 268.512496 231.483564 
L 270.121936 231.483564 
L 270.121936 226.693069 
L 270.317307 226.693069 
L 270.317307 221.902574 
L 285.125027 221.902574 
L 285.125027 217.112079 
L 289.075809 217.112079 
L 289.075809 212.321584 
L 289.349351 212.321584 
L 289.349351 207.531089 
L 290.424984 207.531089 
L 290.424984 202.740594 
L 290.529725 202.740594 
L 290.529725 197.950099 
L 291.212936 197.950099 
L 291.212936 193.159604 
L 291.825042 193.159604 
L 291.825042 188.369109 
L 293.935296 188.369109 
L 293.935296 183.578614 
L 294.126777 183.578614 
L 294.126777 178.788119 
L 294.373208 178.788119 
L 294.373208 173.997624 
L 295.201959 173.997624 
L 295.201959 169.207129 
L 295.56118 169.207129 
L 295.56118 164.416634 
L 295.577431 164.416634 
L 295.577431 159.626139 
L 295.766533 159.626139 
L 295.766533 154.835644 
L 298.085018 154.835644 
L 298.085018 150.045149 
L 336.866775 150.045149 
L 336.866775 145.254653 
L 337.981627 145.254653 
L 337.981627 140.464158 
L 338.194239 140.464158 
L 338.194239 135.673663 
L 339.053287 135.673663 
L 339.053287 130.883168 
L 339.299696 130.883168 
L 339.299696 126.092673 
L 339.867571 126.092673 
L 339.867571 121.302178 
L 339.931148 121.302178 
L 339.931148 116.511683 
L 340.075583 116.511683 
L 340.075583 111.721188 
L 340.080857 111.721188 
L 340.080857 106.930693 
L 340.165149 106.930693 
L 340.165149 102.140198 
L 340.240508 102.140198 
L 340.240508 97.349703 
L 340.287753 97.349703 
L 340.287753 92.559208 
L 340.289501 92.559208 
L 340.289501 87.768713 
L 340.329701 87.768713 
L 340.329701 82.978218 
L 340.603021 82.978218 
L 340.603021 78.187723 
L 340.812388 78.187723 
L 340.812388 73.397228 
L 341.365909 73.397228 
L 341.365909 68.606733 
L 341.374416 68.606733 
L 341.374416 63.816238 
L 341.479762 63.816238 
L 341.479762 59.025743 
L 341.51877 59.025743 
L 341.51877 54.235248 
L 341.591596 54.235248 
L 341.591596 49.444752 
L 341.616969 49.444752 
L 341.616969 44.654257 
L 341.916824 44.654257 
L 341.916824 39.863762 
L 342.019063 39.863762 
L 342.019063 35.073267 
L 342.280993 35.073267 
L 342.280993 30.282772 
L 342.324203 30.282772 
L 342.324203 25.492277 
L 342.35409 25.492277 
L 342.35409 20.701782 
L 342.480031 20.701782 
L 342.480031 15.911287 
L 342.582476 15.911287 
L 342.582476 11.120792 
L 343.96563 11.120792 
L 343.96563 6.330297 
L 343.96563 6.330297 
L 343.96563 6.330297 
L 460.8 6.330297 
" style="fill:none;stroke:#000000;stroke-linecap:square;stroke-width:1.5;"/>
   </g>
   <g id="line2d_114">
    <path clip-path="url(#p581acb493b)" style="fill:none;stroke:#000000;stroke-linecap:square;stroke-width:1.5;"/>
   </g>
   <g id="line2d_115">
    <path clip-path="url(#p581acb493b)" d="M 294.278178 293.76 
L 294.278178 288.969505 
L 297.055092 288.969505 
L 297.055092 284.17901 
L 297.707064 284.17901 
L 297.707064 279.388515 
L 299.227323 279.388515 
L 299.227323 274.59802 
L 300.260659 274.59802 
L 300.260659 269.807525 
L 300.395141 269.807525 
L 300.395141 265.01703 
L 301.548096 265.01703 
L 301.548096 260.226535 
L 306.966684 260.226535 
L 306.966684 255.43604 
L 306.991041 255.43604 
L 306.991041 250.645545 
L 307.185361 250.645545 
L 307.185361 245.85505 
L 308.830635 245.85505 
L 308.830635 241.064554 
L 317.237386 241.064554 
L 317.237386 236.274059 
L 320.355991 236.274059 
L 320.355991 231.483564 
L 321.101521 231.483564 
L 321.101521 226.693069 
L 321.1668 226.693069 
L 321.1668 221.902574 
L 322.149877 221.902574 
L 322.149877 217.112079 
L 323.146891 217.112079 
L 323.146891 212.321584 
L 324.169365 212.321584 
L 324.169365 207.531089 
L 324.48615 207.531089 
L 324.48615 202.740594 
L 324.836618 202.740594 
L 324.836618 197.950099 
L 325.879838 197.950099 
L 325.879838 193.159604 
L 326.035605 193.159604 
L 326.035605 188.369109 
L 327.016285 188.369109 
L 327.016285 183.578614 
L 327.057845 183.578614 
L 327.057845 178.788119 
L 327.135959 178.788119 
L 327.135959 173.997624 
L 327.345126 173.997624 
L 327.345126 169.207129 
L 367.167042 169.207129 
L 367.167042 164.416634 
L 367.865464 164.416634 
L 367.865464 159.626139 
L 367.915069 159.626139 
L 367.915069 154.835644 
L 367.945498 154.835644 
L 367.945498 150.045149 
L 367.974166 150.045149 
L 367.974166 145.254653 
L 368.043578 145.254653 
L 368.043578 140.464158 
L 368.379371 140.464158 
L 368.379371 135.673663 
L 368.790676 135.673663 
L 368.790676 130.883168 
L 368.807686 130.883168 
L 368.807686 126.092673 
L 368.884988 126.092673 
L 368.884988 121.302178 
L 368.951975 121.302178 
L 368.951975 116.511683 
L 369.012927 116.511683 
L 369.012927 111.721188 
L 369.023077 111.721188 
L 369.023077 106.930693 
L 369.067873 106.930693 
L 369.067873 102.140198 
L 369.072941 102.140198 
L 369.072941 97.349703 
L 369.183432 97.349703 
L 369.183432 92.559208 
L 369.259164 92.559208 
L 369.259164 87.768713 
L 369.274293 87.768713 
L 369.274293 82.978218 
L 369.395954 82.978218 
L 369.395954 78.187723 
L 369.486328 78.187723 
L 369.486328 73.397228 
L 369.503877 73.397228 
L 369.503877 68.606733 
L 369.608173 68.606733 
L 369.608173 63.816238 
L 369.718844 63.816238 
L 369.718844 59.025743 
L 369.768669 59.025743 
L 369.768669 54.235248 
L 369.8118 54.235248 
L 369.8118 49.444752 
L 369.954956 49.444752 
L 369.954956 44.654257 
L 370.080309 44.654257 
L 370.080309 39.863762 
L 370.092658 39.863762 
L 370.092658 35.073267 
L 370.317554 35.073267 
L 370.317554 30.282772 
L 371.076308 30.282772 
L 371.076308 25.492277 
L 371.076308 25.492277 
L 371.076308 25.492277 
L 460.8 25.492277 
" style="fill:none;stroke:#00bfbf;stroke-linecap:square;stroke-width:1.5;"/>
   </g>
   <g id="line2d_116">
    <path clip-path="url(#p581acb493b)" style="fill:none;stroke:#00bfbf;stroke-linecap:square;stroke-width:1.5;"/>
   </g>
   <g id="line2d_117">
    <path clip-path="url(#p581acb493b)" d="M 303.448343 293.76 
L 303.448343 288.969505 
L 305.733481 288.969505 
L 305.733481 284.17901 
L 306.121188 284.17901 
L 306.121188 279.388515 
L 306.750874 279.388515 
L 306.750874 274.59802 
L 307.003214 274.59802 
L 307.003214 269.807525 
L 309.93086 269.807525 
L 309.93086 265.01703 
L 311.085558 265.01703 
L 311.085558 260.226535 
L 311.319055 260.226535 
L 311.319055 255.43604 
L 313.831197 255.43604 
L 313.831197 250.645545 
L 315.163766 250.645545 
L 315.163766 245.85505 
L 317.030126 245.85505 
L 317.030126 241.064554 
L 342.475067 241.064554 
L 342.475067 236.274059 
L 343.465309 236.274059 
L 343.465309 231.483564 
L 344.11196 231.483564 
L 344.11196 226.693069 
L 344.406159 226.693069 
L 344.406159 221.902574 
L 344.857417 221.902574 
L 344.857417 217.112079 
L 345.059436 217.112079 
L 345.059436 212.321584 
L 345.079581 212.321584 
L 345.079581 207.531089 
L 346.323978 207.531089 
L 346.323978 202.740594 
L 346.694548 202.740594 
L 346.694548 197.950099 
L 346.78665 197.950099 
L 346.78665 193.159604 
L 346.844476 193.159604 
L 346.844476 188.369109 
L 347.447326 188.369109 
L 347.447326 183.578614 
L 347.94902 183.578614 
L 347.94902 178.788119 
L 349.468348 178.788119 
L 349.468348 173.997624 
L 350.15288 173.997624 
L 350.15288 169.207129 
L 372.014139 169.207129 
L 372.014139 164.416634 
L 372.40969 164.416634 
L 372.40969 159.626139 
L 372.811316 159.626139 
L 372.811316 154.835644 
L 372.815926 154.835644 
L 372.815926 150.045149 
L 372.916454 150.045149 
L 372.916454 145.254653 
L 373.082416 145.254653 
L 373.082416 140.464158 
L 373.107593 140.464158 
L 373.107593 135.673663 
L 373.151044 135.673663 
L 373.151044 130.883168 
L 373.487124 130.883168 
L 373.487124 126.092673 
L 373.524877 126.092673 
L 373.524877 121.302178 
L 373.56561 121.302178 
L 373.56561 116.511683 
L 373.573149 116.511683 
L 373.573149 111.721188 
L 373.590482 111.721188 
L 373.590482 106.930693 
L 373.661244 106.930693 
L 373.661244 102.140198 
L 373.693572 102.140198 
L 373.693572 97.349703 
L 373.71611 97.349703 
L 373.71611 92.559208 
L 373.750644 92.559208 
L 373.750644 87.768713 
L 373.849575 87.768713 
L 373.849575 82.978218 
L 373.88848 82.978218 
L 373.88848 78.187723 
L 373.889228 78.187723 
L 373.889228 73.397228 
L 374.00422 73.397228 
L 374.00422 68.606733 
L 374.122596 68.606733 
L 374.122596 63.816238 
L 374.176827 63.816238 
L 374.176827 59.025743 
L 374.216894 59.025743 
L 374.216894 54.235248 
L 374.258403 54.235248 
L 374.258403 49.444752 
L 374.350161 49.444752 
L 374.350161 44.654257 
L 374.361246 44.654257 
L 374.361246 39.863762 
L 374.512435 39.863762 
L 374.512435 35.073267 
L 374.578629 35.073267 
L 374.578629 30.282772 
L 375.2916 30.282772 
L 375.2916 25.492277 
L 375.2916 25.492277 
L 375.2916 25.492277 
L 460.8 25.492277 
" style="fill:none;stroke:#bf00bf;stroke-linecap:square;stroke-width:1.5;"/>
   </g>
   <g id="line2d_118">
    <path clip-path="url(#p581acb493b)" style="fill:none;stroke:#bf00bf;stroke-linecap:square;stroke-width:1.5;"/>
   </g>
   <g id="line2d_119">
    <path clip-path="url(#p581acb493b)" d="M 306.021498 293.76 
L 306.021498 288.969505 
L 307.555159 288.969505 
L 307.555159 284.17901 
L 308.62868 284.17901 
L 308.62868 279.388515 
L 308.973709 279.388515 
L 308.973709 274.59802 
L 309.499007 274.59802 
L 309.499007 269.807525 
L 312.804083 269.807525 
L 312.804083 265.01703 
L 314.645479 265.01703 
L 314.645479 260.226535 
L 314.779022 260.226535 
L 314.779022 255.43604 
L 317.180969 255.43604 
L 317.180969 250.645545 
L 317.855813 250.645545 
L 317.855813 245.85505 
L 319.545943 245.85505 
L 319.545943 241.064554 
L 361.331841 241.064554 
L 361.331841 236.274059 
L 361.94342 236.274059 
L 361.94342 231.483564 
L 362.01214 231.483564 
L 362.01214 226.693069 
L 362.785039 226.693069 
L 362.785039 221.902574 
L 363.088839 221.902574 
L 363.088839 217.112079 
L 363.646923 217.112079 
L 363.646923 212.321584 
L 363.93843 212.321584 
L 363.93843 207.531089 
L 364.09392 207.531089 
L 364.09392 202.740594 
L 364.382163 202.740594 
L 364.382163 197.950099 
L 365.211223 197.950099 
L 365.211223 193.159604 
L 365.49424 193.159604 
L 365.49424 188.369109 
L 365.566294 188.369109 
L 365.566294 183.578614 
L 365.629925 183.578614 
L 365.629925 178.788119 
L 365.868778 178.788119 
L 365.868778 173.997624 
L 366.351248 173.997624 
L 366.351248 169.207129 
L 375.437842 169.207129 
L 375.437842 164.416634 
L 376.375111 164.416634 
L 376.375111 159.626139 
L 376.476804 159.626139 
L 376.476804 154.835644 
L 376.66059 154.835644 
L 376.66059 150.045149 
L 376.872663 150.045149 
L 376.872663 145.254653 
L 376.911477 145.254653 
L 376.911477 140.464158 
L 376.937102 140.464158 
L 376.937102 135.673663 
L 377.138747 135.673663 
L 377.138747 130.883168 
L 377.310575 130.883168 
L 377.310575 126.092673 
L 377.333886 126.092673 
L 377.333886 121.302178 
L 377.336628 121.302178 
L 377.336628 116.511683 
L 377.346907 116.511683 
L 377.346907 111.721188 
L 377.346907 111.721188 
L 377.346907 106.930693 
L 377.395526 106.930693 
L 377.395526 102.140198 
L 377.470733 102.140198 
L 377.470733 97.349703 
L 377.473465 97.349703 
L 377.473465 92.559208 
L 377.478929 92.559208 
L 377.478929 87.768713 
L 377.538297 87.768713 
L 377.538297 82.978218 
L 377.6214 82.978218 
L 377.6214 78.187723 
L 377.6955 78.187723 
L 377.6955 73.397228 
L 377.73148 73.397228 
L 377.73148 68.606733 
L 377.801988 68.606733 
L 377.801988 63.816238 
L 377.958148 63.816238 
L 377.958148 59.025743 
L 377.97164 59.025743 
L 377.97164 54.235248 
L 378.105629 54.235248 
L 378.105629 49.444752 
L 378.219064 49.444752 
L 378.219064 44.654257 
L 378.259258 44.654257 
L 378.259258 39.863762 
L 378.332174 39.863762 
L 378.332174 35.073267 
L 378.662287 35.073267 
L 378.662287 30.282772 
L 378.680178 30.282772 
L 378.680178 25.492277 
L 378.680178 25.492277 
L 378.680178 25.492277 
L 460.8 25.492277 
" style="fill:none;stroke:#ff0000;stroke-linecap:square;stroke-width:3;"/>
   </g>
   <g id="line2d_120">
    <path clip-path="url(#p581acb493b)" style="fill:none;stroke:#ff0000;stroke-linecap:square;stroke-width:3;"/>
   </g>
   <g id="line2d_121">
    <path clip-path="url(#p581acb493b)" d="M 378.680178 293.76 
L 378.680178 3.456 
" style="fill:none;stroke:#000000;stroke-linecap:square;stroke-width:1.5;"/>
   </g>
   <g id="patch_3">
    <path d="M 62.208 293.76 
L 62.208 3.456 
" style="fill:none;stroke:#000000;stroke-linecap:square;stroke-linejoin:miter;stroke-width:0.8;"/>
   </g>
   <g id="patch_4">
    <path d="M 460.8 293.76 
L 460.8 3.456 
" style="fill:none;stroke:#000000;stroke-linecap:square;stroke-linejoin:miter;stroke-width:0.8;"/>
   </g>
   <g id="patch_5">
    <path d="M 62.208 293.76 
L 460.8 293.76 
" style="fill:none;stroke:#000000;stroke-linecap:square;stroke-linejoin:miter;stroke-width:0.8;"/>
   </g>
   <g id="patch_6">
    <path d="M 62.208 3.456 
L 460.8 3.456 
" style="fill:none;stroke:#000000;stroke-linecap:square;stroke-linejoin:miter;stroke-width:0.8;"/>
   </g>
   <g id="text_11">
    <!-- {f6-f9}, 20-D -->
    <g transform="translate(195.0165 24.458955)scale(0.2 -0.2)">
     <defs>
      <path d="M 3272 -594 
L 3272 -1044 
L 3078 -1044 
Q 2300 -1044 2036 -812 
Q 1772 -581 1772 109 
L 1772 856 
Q 1772 1328 1603 1509 
Q 1434 1691 991 1691 
L 800 1691 
L 800 2138 
L 991 2138 
Q 1438 2138 1605 2317 
Q 1772 2497 1772 2963 
L 1772 3713 
Q 1772 4403 2036 4633 
Q 2300 4863 3078 4863 
L 3272 4863 
L 3272 4416 
L 3059 4416 
Q 2619 4416 2484 4278 
Q 2350 4141 2350 3700 
L 2350 2925 
Q 2350 2434 2208 2212 
Q 2066 1991 1722 1913 
Q 2069 1828 2209 1606 
Q 2350 1384 2350 897 
L 2350 122 
Q 2350 -319 2484 -456 
Q 2619 -594 3059 -594 
L 3272 -594 
z
" id="DejaVuSans-7b" transform="scale(0.015625)"/>
      <path d="M 313 2009 
L 1997 2009 
L 1997 1497 
L 313 1497 
L 313 2009 
z
" id="DejaVuSans-2d" transform="scale(0.015625)"/>
      <path d="M 703 97 
L 703 672 
Q 941 559 1184 500 
Q 1428 441 1663 441 
Q 2288 441 2617 861 
Q 2947 1281 2994 2138 
Q 2813 1869 2534 1725 
Q 2256 1581 1919 1581 
Q 1219 1581 811 2004 
Q 403 2428 403 3163 
Q 403 3881 828 4315 
Q 1253 4750 1959 4750 
Q 2769 4750 3195 4129 
Q 3622 3509 3622 2328 
Q 3622 1225 3098 567 
Q 2575 -91 1691 -91 
Q 1453 -91 1209 -44 
Q 966 3 703 97 
z
M 1959 2075 
Q 2384 2075 2632 2365 
Q 2881 2656 2881 3163 
Q 2881 3666 2632 3958 
Q 2384 4250 1959 4250 
Q 1534 4250 1286 3958 
Q 1038 3666 1038 3163 
Q 1038 2656 1286 2365 
Q 1534 2075 1959 2075 
z
" id="DejaVuSans-39" transform="scale(0.015625)"/>
      <path d="M 800 -594 
L 1019 -594 
Q 1456 -594 1589 -459 
Q 1722 -325 1722 122 
L 1722 897 
Q 1722 1384 1862 1606 
Q 2003 1828 2350 1913 
Q 2003 1991 1862 2212 
Q 1722 2434 1722 2925 
L 1722 3700 
Q 1722 4144 1589 4280 
Q 1456 4416 1019 4416 
L 800 4416 
L 800 4863 
L 997 4863 
Q 1775 4863 2036 4633 
Q 2297 4403 2297 3713 
L 2297 2963 
Q 2297 2497 2465 2317 
Q 2634 2138 3078 2138 
L 3272 2138 
L 3272 1691 
L 3078 1691 
Q 2634 1691 2465 1509 
Q 2297 1328 2297 856 
L 2297 109 
Q 2297 -581 2036 -812 
Q 1775 -1044 997 -1044 
L 800 -1044 
L 800 -594 
z
" id="DejaVuSans-7d" transform="scale(0.015625)"/>
      <path d="M 750 794 
L 1409 794 
L 1409 256 
L 897 -744 
L 494 -744 
L 750 256 
L 750 794 
z
" id="DejaVuSans-2c" transform="scale(0.015625)"/>
     </defs>
     <use xlink:href="#DejaVuSans-7b"/>
     <use x="63.623047" xlink:href="#DejaVuSans-66"/>
     <use x="98.828125" xlink:href="#DejaVuSans-36"/>
     <use x="162.451172" xlink:href="#DejaVuSans-2d"/>
     <use x="198.535156" xlink:href="#DejaVuSans-66"/>
     <use x="233.740234" xlink:href="#DejaVuSans-39"/>
     <use x="297.363281" xlink:href="#DejaVuSans-7d"/>
     <use x="360.986328" xlink:href="#DejaVuSans-2c"/>
     <use x="392.773438" xlink:href="#DejaVuSans-20"/>
     <use x="424.560547" xlink:href="#DejaVuSans-32"/>
     <use x="488.183594" xlink:href="#DejaVuSans-30"/>
     <use x="551.806641" xlink:href="#DejaVuSans-2d"/>
     <use x="587.890625" xlink:href="#DejaVuSans-44"/>
    </g>
   </g>
   <g id="text_12">
    <!-- absolute targets -->
    <g transform="translate(62.208 609.932673)scale(0.14 -0.14)">
     <defs>
      <path d="M 3116 1747 
Q 3116 2381 2855 2742 
Q 2594 3103 2138 3103 
Q 1681 3103 1420 2742 
Q 1159 2381 1159 1747 
Q 1159 1113 1420 752 
Q 1681 391 2138 391 
Q 2594 391 2855 752 
Q 3116 1113 3116 1747 
z
M 1159 2969 
Q 1341 3281 1617 3432 
Q 1894 3584 2278 3584 
Q 2916 3584 3314 3078 
Q 3713 2572 3713 1747 
Q 3713 922 3314 415 
Q 2916 -91 2278 -91 
Q 1894 -91 1617 61 
Q 1341 213 1159 525 
L 1159 0 
L 581 0 
L 581 4863 
L 1159 4863 
L 1159 2969 
z
" id="DejaVuSans-62" transform="scale(0.015625)"/>
      <path d="M 544 1381 
L 544 3500 
L 1119 3500 
L 1119 1403 
Q 1119 906 1312 657 
Q 1506 409 1894 409 
Q 2359 409 2629 706 
Q 2900 1003 2900 1516 
L 2900 3500 
L 3475 3500 
L 3475 0 
L 2900 0 
L 2900 538 
Q 2691 219 2414 64 
Q 2138 -91 1772 -91 
Q 1169 -91 856 284 
Q 544 659 544 1381 
z
M 1991 3584 
L 1991 3584 
z
" id="DejaVuSans-75" transform="scale(0.015625)"/>
      <path d="M 3597 1894 
L 3597 1613 
L 953 1613 
Q 991 1019 1311 708 
Q 1631 397 2203 397 
Q 2534 397 2845 478 
Q 3156 559 3463 722 
L 3463 178 
Q 3153 47 2828 -22 
Q 2503 -91 2169 -91 
Q 1331 -91 842 396 
Q 353 884 353 1716 
Q 353 2575 817 3079 
Q 1281 3584 2069 3584 
Q 2775 3584 3186 3129 
Q 3597 2675 3597 1894 
z
M 3022 2063 
Q 3016 2534 2758 2815 
Q 2500 3097 2075 3097 
Q 1594 3097 1305 2825 
Q 1016 2553 972 2059 
L 3022 2063 
z
" id="DejaVuSans-65" transform="scale(0.015625)"/>
     </defs>
     <use xlink:href="#DejaVuSans-61"/>
     <use x="61.279297" xlink:href="#DejaVuSans-62"/>
     <use x="124.755859" xlink:href="#DejaVuSans-73"/>
     <use x="176.855469" xlink:href="#DejaVuSans-6f"/>
     <use x="238.037109" xlink:href="#DejaVuSans-6c"/>
     <use x="265.820312" xlink:href="#DejaVuSans-75"/>
     <use x="329.199219" xlink:href="#DejaVuSans-74"/>
     <use x="368.408203" xlink:href="#DejaVuSans-65"/>
     <use x="429.931641" xlink:href="#DejaVuSans-20"/>
     <use x="461.71875" xlink:href="#DejaVuSans-74"/>
     <use x="500.927734" xlink:href="#DejaVuSans-61"/>
     <use x="562.207031" xlink:href="#DejaVuSans-72"/>
     <use x="601.570312" xlink:href="#DejaVuSans-67"/>
     <use x="665.046875" xlink:href="#DejaVuSans-65"/>
     <use x="726.570312" xlink:href="#DejaVuSans-74"/>
     <use x="765.779297" xlink:href="#DejaVuSans-73"/>
    </g>
   </g>
   <g id="text_13">
    <!-- v2.4 -->
    <g style="fill:#808080;" transform="translate(250.593063 288.777272)scale(0.1 -0.1)">
     <use xlink:href="#DejaVuSans-76"/>
     <use x="59.179688" xlink:href="#DejaVuSans-32"/>
     <use x="122.802734" xlink:href="#DejaVuSans-2e"/>
     <use x="154.589844" xlink:href="#DejaVuSans-34"/>
    </g>
   </g>
   <g id="legend_1">
    <g id="patch_7">
     <path d="M 76.208 136.881 
L 205.429875 136.881 
Q 209.429875 136.881 209.429875 132.881 
L 209.429875 17.456 
Q 209.429875 13.456 205.429875 13.456 
L 76.208 13.456 
Q 72.208 13.456 72.208 17.456 
L 72.208 132.881 
Q 72.208 136.881 76.208 136.881 
z
" style="fill:#ffffff;opacity:0.2;stroke:#cccccc;stroke-linejoin:miter;"/>
    </g>
    <g id="line2d_122">
     <path d="M 80.208 29.652875 
L 120.208 29.652875 
" style="fill:none;stroke:#000000;stroke-linecap:square;stroke-width:1.5;"/>
    </g>
    <g id="line2d_123"/>
    <g id="text_14">
     <!-- 1: 4/4 -->
     <g transform="translate(136.208 36.652875)scale(0.2 -0.2)">
      <defs>
       <path d="M 750 794 
L 1409 794 
L 1409 0 
L 750 0 
L 750 794 
z
M 750 3309 
L 1409 3309 
L 1409 2516 
L 750 2516 
L 750 3309 
z
" id="DejaVuSans-3a" transform="scale(0.015625)"/>
      </defs>
      <use xlink:href="#DejaVuSans-31"/>
      <use x="63.623047" xlink:href="#DejaVuSans-3a"/>
      <use x="97.314453" xlink:href="#DejaVuSans-20"/>
      <use x="129.101562" xlink:href="#DejaVuSans-34"/>
      <use x="192.724609" xlink:href="#DejaVuSans-2f"/>
      <use x="226.416016" xlink:href="#DejaVuSans-34"/>
     </g>
    </g>
    <g id="line2d_124">
     <path d="M 80.208 59.009125 
L 120.208 59.009125 
" style="fill:none;stroke:#00bfbf;stroke-linecap:square;stroke-width:1.5;"/>
    </g>
    <g id="line2d_125"/>
    <g id="text_15">
     <!-- -1: 4/4 -->
     <g transform="translate(136.208 66.009125)scale(0.2 -0.2)">
      <use xlink:href="#DejaVuSans-2d"/>
      <use x="36.083984" xlink:href="#DejaVuSans-31"/>
      <use x="99.707031" xlink:href="#DejaVuSans-3a"/>
      <use x="133.398438" xlink:href="#DejaVuSans-20"/>
      <use x="165.185547" xlink:href="#DejaVuSans-34"/>
      <use x="228.808594" xlink:href="#DejaVuSans-2f"/>
      <use x="262.5" xlink:href="#DejaVuSans-34"/>
     </g>
    </g>
    <g id="line2d_126">
     <path d="M 80.208 88.365375 
L 120.208 88.365375 
" style="fill:none;stroke:#bf00bf;stroke-linecap:square;stroke-width:1.5;"/>
    </g>
    <g id="line2d_127"/>
    <g id="text_16">
     <!-- -4: 4/4 -->
     <g transform="translate(136.208 95.365375)scale(0.2 -0.2)">
      <use xlink:href="#DejaVuSans-2d"/>
      <use x="36.083984" xlink:href="#DejaVuSans-34"/>
      <use x="99.707031" xlink:href="#DejaVuSans-3a"/>
      <use x="133.398438" xlink:href="#DejaVuSans-20"/>
      <use x="165.185547" xlink:href="#DejaVuSans-34"/>
      <use x="228.808594" xlink:href="#DejaVuSans-2f"/>
      <use x="262.5" xlink:href="#DejaVuSans-34"/>
     </g>
    </g>
    <g id="line2d_128">
     <path d="M 80.208 117.721625 
L 120.208 117.721625 
" style="fill:none;stroke:#ff0000;stroke-linecap:square;stroke-width:3;"/>
    </g>
    <g id="line2d_129"/>
    <g id="text_17">
     <!-- -8: 4/4 -->
     <g transform="translate(136.208 124.721625)scale(0.2 -0.2)">
      <use xlink:href="#DejaVuSans-2d"/>
      <use x="36.083984" xlink:href="#DejaVuSans-38"/>
      <use x="99.707031" xlink:href="#DejaVuSans-3a"/>
      <use x="133.398438" xlink:href="#DejaVuSans-20"/>
      <use x="165.185547" xlink:href="#DejaVuSans-34"/>
      <use x="228.808594" xlink:href="#DejaVuSans-2f"/>
      <use x="262.5" xlink:href="#DejaVuSans-34"/>
     </g>
    </g>
   </g>
  </g>
 </g>
 <defs>
  <clipPath id="p581acb493b">
   <rect height="290.304" width="398.592" x="62.208" y="3.456"/>
  </clipPath>
 </defs>
</svg>
