<?xml version="1.0" encoding="utf-8" standalone="no"?>
<!DOCTYPE svg PUBLIC "-//W3C//DTD SVG 1.1//EN"
  "http://www.w3.org/Graphics/SVG/1.1/DTD/svg11.dtd">
<svg height="345.6pt" version="1.1" viewBox="0 0 460.8 345.6" width="460.8pt" xmlns="http://www.w3.org/2000/svg" xmlns:xlink="http://www.w3.org/1999/xlink">
 <metadata>
  <rdf:RDF xmlns:cc="http://creativecommons.org/ns#" xmlns:dc="http://purl.org/dc/elements/1.1/" xmlns:rdf="http://www.w3.org/1999/02/22-rdf-syntax-ns#">
   <cc:Work>
    <dc:type rdf:resource="http://purl.org/dc/dcmitype/StillImage"/>
    <dc:date>2021-07-27T16:03:36.171597</dc:date>
    <dc:format>image/svg+xml</dc:format>
    <dc:creator>
     <cc:Agent>
      <dc:title>Matplotlib v3.4.2, https://matplotlib.org/</dc:title>
     </cc:Agent>
    </dc:creator>
   </cc:Work>
  </rdf:RDF>
 </metadata>
 <defs>
  <style type="text/css">*{stroke-linecap:butt;stroke-linejoin:round;}</style>
 </defs>
 <g id="figure_1">
  <g id="patch_1">
   <path d="M 0 345.6 
L 460.8 345.6 
L 460.8 0 
L 0 0 
z
" style="fill:#ffffff;"/>
  </g>
  <g id="axes_1">
   <g id="patch_2">
    <path d="M 62.208 293.76 
L 460.8 293.76 
L 460.8 3.456 
L 62.208 3.456 
z
" style="fill:#ffffff;"/>
   </g>
   <g id="line2d_1"/>
   <g id="line2d_2">
    <path clip-path="url(#p77b40c3623)" style="fill:none;stroke:#f5deb3;stroke-linecap:square;stroke-width:1.5;"/>
   </g>
   <g id="line2d_3"/>
   <g id="line2d_4"/>
   <g id="line2d_5"/>
   <g id="line2d_6"/>
   <g id="line2d_7">
    <path clip-path="url(#p77b40c3623)" d="M 429.391881 293.76 
L 429.391881 289.927604 
L 461.224101 289.927604 
L 461.224101 286.095208 
L 461.8 286.095208 
L 461.8 286.095208 
" style="fill:none;stroke:#f5deb3;stroke-linecap:square;stroke-width:1.5;"/>
   </g>
   <g id="line2d_8">
    <path clip-path="url(#p77b40c3623)" d="M 452.76191 293.76 
L 452.76191 289.927604 
L 454.591361 289.927604 
L 454.591361 286.095208 
L 455.153452 286.095208 
L 455.153452 282.262812 
L 455.387657 282.262812 
L 455.387657 278.430416 
L 456.05867 278.430416 
L 456.05867 274.59802 
L 456.078514 274.59802 
L 456.078514 270.765624 
L 461.8 270.765624 
" style="fill:none;stroke:#f5deb3;stroke-linecap:square;stroke-width:1.5;"/>
   </g>
   <g id="line2d_9">
    <path clip-path="url(#p77b40c3623)" d="M 298.983989 293.76 
L 298.983989 289.927604 
L 349.571361 289.927604 
L 349.571361 286.095208 
L 350.338982 286.095208 
L 350.338982 282.262812 
L 351.286715 282.262812 
L 351.286715 278.430416 
L 355.312973 278.430416 
L 355.312973 274.59802 
L 360.745279 274.59802 
L 360.745279 270.765624 
L 361.375244 270.765624 
L 361.375244 266.933228 
L 361.588239 266.933228 
L 361.588239 263.100832 
L 362.741059 263.100832 
L 362.755827 255.43604 
L 363.094097 255.43604 
L 363.094097 251.603644 
L 363.51682 251.603644 
L 363.51682 247.771248 
L 373.113085 247.771248 
L 373.113085 243.938851 
L 379.723773 243.938851 
L 379.723773 240.106455 
L 380.747665 240.106455 
L 380.747665 236.274059 
L 381.940962 236.274059 
L 381.940962 232.441663 
L 382.904338 232.441663 
L 382.904338 228.609267 
L 384.383169 228.609267 
L 384.454227 220.944475 
L 390.512299 220.944475 
L 390.512299 217.112079 
L 391.879798 217.112079 
L 391.879798 213.279683 
L 392.998292 213.279683 
L 392.998292 209.447287 
L 393.320268 209.447287 
L 393.320268 205.614891 
L 393.675586 205.614891 
L 393.675586 201.782495 
L 393.843241 201.782495 
L 393.949911 194.117703 
L 394.095263 194.117703 
L 394.095263 190.285307 
L 394.409088 190.285307 
L 394.409088 186.452911 
L 395.723611 186.452911 
L 395.723611 182.620515 
L 395.852861 182.620515 
L 395.852861 178.788119 
L 396.083176 178.788119 
L 396.083176 174.955723 
L 396.656911 174.955723 
L 396.656911 171.123327 
L 397.501652 171.123327 
L 397.501652 167.290931 
L 398.7477 167.290931 
L 398.80161 159.626139 
L 399.387031 159.626139 
L 399.387031 155.793743 
L 400.643693 155.793743 
L 400.643693 151.961347 
L 400.755843 151.961347 
L 400.755843 148.12895 
L 405.746356 148.12895 
L 405.746356 144.296554 
L 413.005253 144.296554 
L 413.005253 140.464158 
L 413.351305 140.464158 
L 413.400833 132.799366 
L 414.849677 132.799366 
L 414.849677 128.96697 
L 419.962972 128.96697 
L 419.962972 125.134574 
L 422.284668 125.134574 
L 422.284668 121.302178 
L 423.645503 121.302178 
L 423.645503 117.469782 
L 426.522124 117.469782 
L 426.522124 113.637386 
L 427.116634 113.637386 
L 427.116634 109.80499 
L 428.387533 109.80499 
L 428.387533 105.972594 
L 429.354758 105.972594 
L 429.354758 102.140198 
L 429.587786 102.140198 
L 429.587786 98.307802 
L 435.647478 98.307802 
L 435.647478 94.475406 
L 437.783862 94.475406 
L 437.819402 86.810614 
L 438.447843 86.810614 
L 438.447843 82.978218 
L 438.906674 82.978218 
L 438.906674 79.145822 
L 439.094251 79.145822 
L 439.094251 75.313426 
L 441.838532 75.313426 
L 441.838532 71.48103 
L 444.743709 71.48103 
L 444.743709 67.648634 
L 444.992114 67.648634 
L 444.992114 63.816238 
L 448.654742 63.816238 
L 448.654742 59.983842 
L 451.639266 59.983842 
L 451.639266 56.151446 
L 455.118802 56.151446 
L 455.118802 52.31905 
L 455.877164 52.31905 
L 455.877164 48.486653 
L 461.8 48.486653 
L 461.8 48.486653 
" style="fill:none;stroke:#f5deb3;stroke-linecap:square;stroke-width:1.5;"/>
   </g>
   <g id="line2d_10"/>
   <g id="line2d_11">
    <path clip-path="url(#p77b40c3623)" style="fill:none;stroke:#f5deb3;stroke-linecap:square;stroke-width:1.5;"/>
   </g>
   <g id="line2d_12"/>
   <g id="line2d_13"/>
   <g id="line2d_14"/>
   <g id="line2d_15"/>
   <g id="line2d_16"/>
   <g id="line2d_17">
    <path clip-path="url(#p77b40c3623)" d="M 444.481913 293.76 
L 444.481913 289.927604 
L 447.366192 289.927604 
L 447.366192 286.095208 
L 448.629152 286.095208 
L 448.629152 282.262812 
L 450.341798 282.262812 
L 450.341798 278.430416 
L 453.664586 278.430416 
L 453.664586 274.59802 
L 453.818276 274.59802 
L 453.818276 270.765624 
L 455.406136 270.765624 
L 455.406136 266.933228 
L 455.84476 266.933228 
L 455.84476 263.100832 
L 456.017298 263.100832 
L 456.017298 259.268436 
L 460.063328 259.268436 
L 460.063328 255.43604 
L 460.65472 255.43604 
L 460.65472 251.603644 
L 461.8 251.603644 
" style="fill:none;stroke:#f5deb3;stroke-linecap:square;stroke-width:1.5;"/>
   </g>
   <g id="line2d_18"/>
   <g id="line2d_19">
    <path clip-path="url(#p77b40c3623)" d="M 0 0 
" style="fill:none;stroke:#f5deb3;stroke-linecap:square;stroke-width:1.5;"/>
   </g>
   <g id="line2d_20">
    <path clip-path="url(#p77b40c3623)" d="M 446.30031 293.76 
L 446.30031 289.927604 
L 446.30031 289.927604 
L 446.30031 289.927604 
L 460.8 289.927604 
" style="fill:none;stroke:#f5deb3;stroke-linecap:square;stroke-width:1.5;"/>
   </g>
   <g id="line2d_21"/>
   <g id="line2d_22">
    <path clip-path="url(#p77b40c3623)" style="fill:none;stroke:#f5deb3;stroke-linecap:square;stroke-width:1.5;"/>
   </g>
   <g id="line2d_23">
    <path clip-path="url(#p77b40c3623)" style="fill:none;stroke:#f5deb3;stroke-linecap:square;stroke-width:1.5;"/>
   </g>
   <g id="line2d_24">
    <path clip-path="url(#p77b40c3623)" d="M 336.212778 293.76 
L 336.212778 289.927604 
L 339.964915 289.927604 
L 339.964915 286.095208 
L 342.258742 286.095208 
L 342.258742 282.262812 
L 347.846961 282.262812 
L 347.846961 278.430416 
L 351.460288 278.430416 
L 351.460288 274.59802 
L 418.367171 274.59802 
L 418.367171 270.765624 
L 420.520629 270.765624 
L 420.520629 266.933228 
L 421.020308 266.933228 
L 421.020308 263.100832 
L 421.196819 263.100832 
L 421.196819 259.268436 
L 422.883248 259.268436 
L 422.883248 255.43604 
L 423.25626 255.43604 
L 423.365037 247.771248 
L 425.120043 247.771248 
L 425.120043 243.938851 
L 425.528268 243.938851 
L 425.626338 236.274059 
L 425.847015 236.274059 
L 425.847015 232.441663 
L 426.255026 232.441663 
L 426.255026 228.609267 
L 429.18575 228.609267 
L 429.18575 224.776871 
L 431.847653 224.776871 
L 431.847653 220.944475 
L 432.506628 220.944475 
L 432.506628 217.112079 
L 432.754534 217.112079 
L 432.754534 213.279683 
L 433.730588 213.279683 
L 433.730588 209.447287 
L 433.939546 209.447287 
L 433.939546 205.614891 
L 434.223475 205.614891 
L 434.329635 197.950099 
L 434.830655 197.950099 
L 434.830655 194.117703 
L 434.974666 194.117703 
L 434.974666 190.285307 
L 435.531169 190.285307 
L 435.531169 186.452911 
L 435.991863 186.452911 
L 435.991863 182.620515 
L 436.12673 182.620515 
L 436.12673 178.788119 
L 436.439769 178.788119 
L 436.439769 174.955723 
L 436.75703 174.955723 
L 436.802532 167.290931 
L 438.597599 167.290931 
L 438.620017 159.626139 
L 439.245438 159.626139 
L 439.245438 155.793743 
L 440.119836 155.793743 
L 440.119836 151.961347 
L 441.442997 151.961347 
L 441.442997 148.12895 
L 441.788857 148.12895 
L 441.788857 144.296554 
L 445.372125 144.296554 
L 445.372125 140.464158 
L 447.633085 140.464158 
L 447.633085 136.631762 
L 453.230222 136.631762 
L 453.230222 132.799366 
L 460.750394 132.799366 
L 460.750394 128.96697 
L 460.946999 128.96697 
L 460.946999 125.134574 
L 461.8 125.134574 
L 461.8 125.134574 
" style="fill:none;stroke:#f5deb3;stroke-linecap:square;stroke-width:1.5;"/>
   </g>
   <g id="line2d_25">
    <path clip-path="url(#p77b40c3623)" style="fill:none;stroke:#f5deb3;stroke-linecap:square;stroke-width:1.5;"/>
   </g>
   <g id="line2d_26">
    <path clip-path="url(#p77b40c3623)" d="M 402.8296 293.76 
L 402.8296 289.927604 
L 406.151018 289.927604 
L 406.151018 286.095208 
L 415.183288 286.095208 
L 415.183288 282.262812 
L 416.584189 282.262812 
L 416.584189 278.430416 
L 418.079844 278.430416 
L 418.079844 274.59802 
L 419.968759 274.59802 
L 419.968759 270.765624 
L 423.136463 270.765624 
L 423.136463 266.933228 
L 431.658954 266.933228 
L 431.658954 263.100832 
L 435.922943 263.100832 
L 435.922943 259.268436 
L 447.011807 259.268436 
L 447.011807 255.43604 
L 449.388306 255.43604 
L 449.388306 251.603644 
L 461.417808 251.603644 
L 461.417808 247.771248 
L 461.8 247.771248 
" style="fill:none;stroke:#f5deb3;stroke-linecap:square;stroke-width:1.5;"/>
   </g>
   <g id="line2d_27"/>
   <g id="line2d_28">
    <path clip-path="url(#p77b40c3623)" d="M 325.203401 293.76 
L 325.203401 289.927604 
L 340.62767 289.927604 
L 340.62767 286.095208 
L 389.958233 286.095208 
L 389.958233 282.262812 
L 404.702394 282.262812 
L 404.702394 278.430416 
L 408.930926 278.430416 
L 408.930926 274.59802 
L 411.429959 274.59802 
L 411.429959 270.765624 
L 431.587058 270.765624 
L 431.587058 266.933228 
L 432.483627 266.933228 
L 432.483627 263.100832 
L 434.65747 263.100832 
L 434.65747 259.268436 
L 435.575324 259.268436 
L 435.575324 255.43604 
L 436.794735 255.43604 
L 436.794735 251.603644 
L 439.274875 251.603644 
L 439.274875 247.771248 
L 440.463441 247.771248 
L 440.463441 243.938851 
L 441.693967 243.938851 
L 441.693967 240.106455 
L 442.42105 240.106455 
L 442.42105 236.274059 
L 449.16431 236.274059 
L 449.16431 232.441663 
L 449.421176 232.441663 
L 449.421176 228.609267 
L 450.078067 228.609267 
L 450.173122 220.944475 
L 450.548414 220.944475 
L 450.548414 217.112079 
L 459.557426 217.112079 
L 459.557426 213.279683 
L 461.793205 213.279683 
L 461.793205 209.447287 
L 461.8 209.447287 
" style="fill:none;stroke:#f5deb3;stroke-linecap:square;stroke-width:1.5;"/>
   </g>
   <g id="line2d_29"/>
   <g id="line2d_30"/>
   <g id="matplotlib.axis_1">
    <g id="xtick_1">
     <g id="line2d_31">
      <path clip-path="url(#p77b40c3623)" d="M 62.208 293.76 
L 62.208 3.456 
" style="fill:none;stroke:#b0b0b0;stroke-linecap:square;stroke-width:0.8;"/>
     </g>
     <g id="line2d_32">
      <defs>
       <path d="M 0 0 
L 0 3.5 
" id="m80057f9e62" style="stroke:#000000;stroke-width:0.8;"/>
      </defs>
      <g>
       <use style="stroke:#000000;stroke-width:0.8;" x="62.208" xlink:href="#m80057f9e62" y="293.76"/>
      </g>
     </g>
     <g id="text_1">
      <!-- 0 -->
      <g transform="translate(55.8455 315.956875)scale(0.2 -0.2)">
       <defs>
        <path d="M 2034 4250 
Q 1547 4250 1301 3770 
Q 1056 3291 1056 2328 
Q 1056 1369 1301 889 
Q 1547 409 2034 409 
Q 2525 409 2770 889 
Q 3016 1369 3016 2328 
Q 3016 3291 2770 3770 
Q 2525 4250 2034 4250 
z
M 2034 4750 
Q 2819 4750 3233 4129 
Q 3647 3509 3647 2328 
Q 3647 1150 3233 529 
Q 2819 -91 2034 -91 
Q 1250 -91 836 529 
Q 422 1150 422 2328 
Q 422 3509 836 4129 
Q 1250 4750 2034 4750 
z
" id="DejaVuSans-30" transform="scale(0.015625)"/>
       </defs>
       <use xlink:href="#DejaVuSans-30"/>
      </g>
     </g>
    </g>
    <g id="xtick_2">
     <g id="line2d_33">
      <path clip-path="url(#p77b40c3623)" d="M 258.488519 293.76 
L 258.488519 3.456 
" style="fill:none;stroke:#b0b0b0;stroke-linecap:square;stroke-width:0.8;"/>
     </g>
     <g id="line2d_34">
      <g>
       <use style="stroke:#000000;stroke-width:0.8;" x="258.488519" xlink:href="#m80057f9e62" y="293.76"/>
      </g>
     </g>
     <g id="text_2">
      <!-- 2 -->
      <g transform="translate(252.126019 315.956875)scale(0.2 -0.2)">
       <defs>
        <path d="M 1228 531 
L 3431 531 
L 3431 0 
L 469 0 
L 469 531 
Q 828 903 1448 1529 
Q 2069 2156 2228 2338 
Q 2531 2678 2651 2914 
Q 2772 3150 2772 3378 
Q 2772 3750 2511 3984 
Q 2250 4219 1831 4219 
Q 1534 4219 1204 4116 
Q 875 4013 500 3803 
L 500 4441 
Q 881 4594 1212 4672 
Q 1544 4750 1819 4750 
Q 2544 4750 2975 4387 
Q 3406 4025 3406 3419 
Q 3406 3131 3298 2873 
Q 3191 2616 2906 2266 
Q 2828 2175 2409 1742 
Q 1991 1309 1228 531 
z
" id="DejaVuSans-32" transform="scale(0.015625)"/>
       </defs>
       <use xlink:href="#DejaVuSans-32"/>
      </g>
     </g>
    </g>
    <g id="xtick_3">
     <g id="line2d_35">
      <path clip-path="url(#p77b40c3623)" d="M 454.769038 293.76 
L 454.769038 3.456 
" style="fill:none;stroke:#b0b0b0;stroke-linecap:square;stroke-width:0.8;"/>
     </g>
     <g id="line2d_36">
      <g>
       <use style="stroke:#000000;stroke-width:0.8;" x="454.769038" xlink:href="#m80057f9e62" y="293.76"/>
      </g>
     </g>
     <g id="text_3">
      <!-- 4 -->
      <g transform="translate(448.406538 315.956875)scale(0.2 -0.2)">
       <defs>
        <path d="M 2419 4116 
L 825 1625 
L 2419 1625 
L 2419 4116 
z
M 2253 4666 
L 3047 4666 
L 3047 1625 
L 3713 1625 
L 3713 1100 
L 3047 1100 
L 3047 0 
L 2419 0 
L 2419 1100 
L 313 1100 
L 313 1709 
L 2253 4666 
z
" id="DejaVuSans-34" transform="scale(0.015625)"/>
       </defs>
       <use xlink:href="#DejaVuSans-34"/>
      </g>
     </g>
    </g>
    <g id="xtick_4">
     <g id="line2d_37">
      <path clip-path="url(#p77b40c3623)" d="M 91.751162 293.76 
L 91.751162 3.456 
" style="fill:none;stroke:#b0b0b0;stroke-linecap:square;stroke-width:0.8;"/>
     </g>
     <g id="line2d_38">
      <defs>
       <path d="M 0 0 
L 0 2 
" id="ma429852b41" style="stroke:#000000;stroke-width:0.6;"/>
      </defs>
      <g>
       <use style="stroke:#000000;stroke-width:0.6;" x="91.751162" xlink:href="#ma429852b41" y="293.76"/>
      </g>
     </g>
    </g>
    <g id="xtick_5">
     <g id="line2d_39">
      <path clip-path="url(#p77b40c3623)" d="M 109.032804 293.76 
L 109.032804 3.456 
" style="fill:none;stroke:#b0b0b0;stroke-linecap:square;stroke-width:0.8;"/>
     </g>
     <g id="line2d_40">
      <g>
       <use style="stroke:#000000;stroke-width:0.6;" x="109.032804" xlink:href="#ma429852b41" y="293.76"/>
      </g>
     </g>
    </g>
    <g id="xtick_6">
     <g id="line2d_41">
      <path clip-path="url(#p77b40c3623)" d="M 121.294324 293.76 
L 121.294324 3.456 
" style="fill:none;stroke:#b0b0b0;stroke-linecap:square;stroke-width:0.8;"/>
     </g>
     <g id="line2d_42">
      <g>
       <use style="stroke:#000000;stroke-width:0.6;" x="121.294324" xlink:href="#ma429852b41" y="293.76"/>
      </g>
     </g>
    </g>
    <g id="xtick_7">
     <g id="line2d_43">
      <path clip-path="url(#p77b40c3623)" d="M 130.805098 293.76 
L 130.805098 3.456 
" style="fill:none;stroke:#b0b0b0;stroke-linecap:square;stroke-width:0.8;"/>
     </g>
     <g id="line2d_44">
      <g>
       <use style="stroke:#000000;stroke-width:0.6;" x="130.805098" xlink:href="#ma429852b41" y="293.76"/>
      </g>
     </g>
    </g>
    <g id="xtick_8">
     <g id="line2d_45">
      <path clip-path="url(#p77b40c3623)" d="M 138.575966 293.76 
L 138.575966 3.456 
" style="fill:none;stroke:#b0b0b0;stroke-linecap:square;stroke-width:0.8;"/>
     </g>
     <g id="line2d_46">
      <g>
       <use style="stroke:#000000;stroke-width:0.6;" x="138.575966" xlink:href="#ma429852b41" y="293.76"/>
      </g>
     </g>
    </g>
    <g id="xtick_9">
     <g id="line2d_47">
      <path clip-path="url(#p77b40c3623)" d="M 145.146141 293.76 
L 145.146141 3.456 
" style="fill:none;stroke:#b0b0b0;stroke-linecap:square;stroke-width:0.8;"/>
     </g>
     <g id="line2d_48">
      <g>
       <use style="stroke:#000000;stroke-width:0.6;" x="145.146141" xlink:href="#ma429852b41" y="293.76"/>
      </g>
     </g>
    </g>
    <g id="xtick_10">
     <g id="line2d_49">
      <path clip-path="url(#p77b40c3623)" d="M 150.837486 293.76 
L 150.837486 3.456 
" style="fill:none;stroke:#b0b0b0;stroke-linecap:square;stroke-width:0.8;"/>
     </g>
     <g id="line2d_50">
      <g>
       <use style="stroke:#000000;stroke-width:0.6;" x="150.837486" xlink:href="#ma429852b41" y="293.76"/>
      </g>
     </g>
    </g>
    <g id="xtick_11">
     <g id="line2d_51">
      <path clip-path="url(#p77b40c3623)" d="M 155.857607 293.76 
L 155.857607 3.456 
" style="fill:none;stroke:#b0b0b0;stroke-linecap:square;stroke-width:0.8;"/>
     </g>
     <g id="line2d_52">
      <g>
       <use style="stroke:#000000;stroke-width:0.6;" x="155.857607" xlink:href="#ma429852b41" y="293.76"/>
      </g>
     </g>
    </g>
    <g id="xtick_12">
     <g id="line2d_53">
      <path clip-path="url(#p77b40c3623)" d="M 189.891421 293.76 
L 189.891421 3.456 
" style="fill:none;stroke:#b0b0b0;stroke-linecap:square;stroke-width:0.8;"/>
     </g>
     <g id="line2d_54">
      <g>
       <use style="stroke:#000000;stroke-width:0.6;" x="189.891421" xlink:href="#ma429852b41" y="293.76"/>
      </g>
     </g>
    </g>
    <g id="xtick_13">
     <g id="line2d_55">
      <path clip-path="url(#p77b40c3623)" d="M 207.173063 293.76 
L 207.173063 3.456 
" style="fill:none;stroke:#b0b0b0;stroke-linecap:square;stroke-width:0.8;"/>
     </g>
     <g id="line2d_56">
      <g>
       <use style="stroke:#000000;stroke-width:0.6;" x="207.173063" xlink:href="#ma429852b41" y="293.76"/>
      </g>
     </g>
    </g>
    <g id="xtick_14">
     <g id="line2d_57">
      <path clip-path="url(#p77b40c3623)" d="M 219.434583 293.76 
L 219.434583 3.456 
" style="fill:none;stroke:#b0b0b0;stroke-linecap:square;stroke-width:0.8;"/>
     </g>
     <g id="line2d_58">
      <g>
       <use style="stroke:#000000;stroke-width:0.6;" x="219.434583" xlink:href="#ma429852b41" y="293.76"/>
      </g>
     </g>
    </g>
    <g id="xtick_15">
     <g id="line2d_59">
      <path clip-path="url(#p77b40c3623)" d="M 228.945357 293.76 
L 228.945357 3.456 
" style="fill:none;stroke:#b0b0b0;stroke-linecap:square;stroke-width:0.8;"/>
     </g>
     <g id="line2d_60">
      <g>
       <use style="stroke:#000000;stroke-width:0.6;" x="228.945357" xlink:href="#ma429852b41" y="293.76"/>
      </g>
     </g>
    </g>
    <g id="xtick_16">
     <g id="line2d_61">
      <path clip-path="url(#p77b40c3623)" d="M 236.716225 293.76 
L 236.716225 3.456 
" style="fill:none;stroke:#b0b0b0;stroke-linecap:square;stroke-width:0.8;"/>
     </g>
     <g id="line2d_62">
      <g>
       <use style="stroke:#000000;stroke-width:0.6;" x="236.716225" xlink:href="#ma429852b41" y="293.76"/>
      </g>
     </g>
    </g>
    <g id="xtick_17">
     <g id="line2d_63">
      <path clip-path="url(#p77b40c3623)" d="M 243.2864 293.76 
L 243.2864 3.456 
" style="fill:none;stroke:#b0b0b0;stroke-linecap:square;stroke-width:0.8;"/>
     </g>
     <g id="line2d_64">
      <g>
       <use style="stroke:#000000;stroke-width:0.6;" x="243.2864" xlink:href="#ma429852b41" y="293.76"/>
      </g>
     </g>
    </g>
    <g id="xtick_18">
     <g id="line2d_65">
      <path clip-path="url(#p77b40c3623)" d="M 248.977745 293.76 
L 248.977745 3.456 
" style="fill:none;stroke:#b0b0b0;stroke-linecap:square;stroke-width:0.8;"/>
     </g>
     <g id="line2d_66">
      <g>
       <use style="stroke:#000000;stroke-width:0.6;" x="248.977745" xlink:href="#ma429852b41" y="293.76"/>
      </g>
     </g>
    </g>
    <g id="xtick_19">
     <g id="line2d_67">
      <path clip-path="url(#p77b40c3623)" d="M 253.997867 293.76 
L 253.997867 3.456 
" style="fill:none;stroke:#b0b0b0;stroke-linecap:square;stroke-width:0.8;"/>
     </g>
     <g id="line2d_68">
      <g>
       <use style="stroke:#000000;stroke-width:0.6;" x="253.997867" xlink:href="#ma429852b41" y="293.76"/>
      </g>
     </g>
    </g>
    <g id="xtick_20">
     <g id="line2d_69">
      <path clip-path="url(#p77b40c3623)" d="M 288.031681 293.76 
L 288.031681 3.456 
" style="fill:none;stroke:#b0b0b0;stroke-linecap:square;stroke-width:0.8;"/>
     </g>
     <g id="line2d_70">
      <g>
       <use style="stroke:#000000;stroke-width:0.6;" x="288.031681" xlink:href="#ma429852b41" y="293.76"/>
      </g>
     </g>
    </g>
    <g id="xtick_21">
     <g id="line2d_71">
      <path clip-path="url(#p77b40c3623)" d="M 305.313323 293.76 
L 305.313323 3.456 
" style="fill:none;stroke:#b0b0b0;stroke-linecap:square;stroke-width:0.8;"/>
     </g>
     <g id="line2d_72">
      <g>
       <use style="stroke:#000000;stroke-width:0.6;" x="305.313323" xlink:href="#ma429852b41" y="293.76"/>
      </g>
     </g>
    </g>
    <g id="xtick_22">
     <g id="line2d_73">
      <path clip-path="url(#p77b40c3623)" d="M 317.574843 293.76 
L 317.574843 3.456 
" style="fill:none;stroke:#b0b0b0;stroke-linecap:square;stroke-width:0.8;"/>
     </g>
     <g id="line2d_74">
      <g>
       <use style="stroke:#000000;stroke-width:0.6;" x="317.574843" xlink:href="#ma429852b41" y="293.76"/>
      </g>
     </g>
    </g>
    <g id="xtick_23">
     <g id="line2d_75">
      <path clip-path="url(#p77b40c3623)" d="M 327.085616 293.76 
L 327.085616 3.456 
" style="fill:none;stroke:#b0b0b0;stroke-linecap:square;stroke-width:0.8;"/>
     </g>
     <g id="line2d_76">
      <g>
       <use style="stroke:#000000;stroke-width:0.6;" x="327.085616" xlink:href="#ma429852b41" y="293.76"/>
      </g>
     </g>
    </g>
    <g id="xtick_24">
     <g id="line2d_77">
      <path clip-path="url(#p77b40c3623)" d="M 334.856484 293.76 
L 334.856484 3.456 
" style="fill:none;stroke:#b0b0b0;stroke-linecap:square;stroke-width:0.8;"/>
     </g>
     <g id="line2d_78">
      <g>
       <use style="stroke:#000000;stroke-width:0.6;" x="334.856484" xlink:href="#ma429852b41" y="293.76"/>
      </g>
     </g>
    </g>
    <g id="xtick_25">
     <g id="line2d_79">
      <path clip-path="url(#p77b40c3623)" d="M 341.42666 293.76 
L 341.42666 3.456 
" style="fill:none;stroke:#b0b0b0;stroke-linecap:square;stroke-width:0.8;"/>
     </g>
     <g id="line2d_80">
      <g>
       <use style="stroke:#000000;stroke-width:0.6;" x="341.42666" xlink:href="#ma429852b41" y="293.76"/>
      </g>
     </g>
    </g>
    <g id="xtick_26">
     <g id="line2d_81">
      <path clip-path="url(#p77b40c3623)" d="M 347.118005 293.76 
L 347.118005 3.456 
" style="fill:none;stroke:#b0b0b0;stroke-linecap:square;stroke-width:0.8;"/>
     </g>
     <g id="line2d_82">
      <g>
       <use style="stroke:#000000;stroke-width:0.6;" x="347.118005" xlink:href="#ma429852b41" y="293.76"/>
      </g>
     </g>
    </g>
    <g id="xtick_27">
     <g id="line2d_83">
      <path clip-path="url(#p77b40c3623)" d="M 352.138126 293.76 
L 352.138126 3.456 
" style="fill:none;stroke:#b0b0b0;stroke-linecap:square;stroke-width:0.8;"/>
     </g>
     <g id="line2d_84">
      <g>
       <use style="stroke:#000000;stroke-width:0.6;" x="352.138126" xlink:href="#ma429852b41" y="293.76"/>
      </g>
     </g>
    </g>
    <g id="xtick_28">
     <g id="line2d_85">
      <path clip-path="url(#p77b40c3623)" d="M 386.17194 293.76 
L 386.17194 3.456 
" style="fill:none;stroke:#b0b0b0;stroke-linecap:square;stroke-width:0.8;"/>
     </g>
     <g id="line2d_86">
      <g>
       <use style="stroke:#000000;stroke-width:0.6;" x="386.17194" xlink:href="#ma429852b41" y="293.76"/>
      </g>
     </g>
    </g>
    <g id="xtick_29">
     <g id="line2d_87">
      <path clip-path="url(#p77b40c3623)" d="M 403.453582 293.76 
L 403.453582 3.456 
" style="fill:none;stroke:#b0b0b0;stroke-linecap:square;stroke-width:0.8;"/>
     </g>
     <g id="line2d_88">
      <g>
       <use style="stroke:#000000;stroke-width:0.6;" x="403.453582" xlink:href="#ma429852b41" y="293.76"/>
      </g>
     </g>
    </g>
    <g id="xtick_30">
     <g id="line2d_89">
      <path clip-path="url(#p77b40c3623)" d="M 415.715102 293.76 
L 415.715102 3.456 
" style="fill:none;stroke:#b0b0b0;stroke-linecap:square;stroke-width:0.8;"/>
     </g>
     <g id="line2d_90">
      <g>
       <use style="stroke:#000000;stroke-width:0.6;" x="415.715102" xlink:href="#ma429852b41" y="293.76"/>
      </g>
     </g>
    </g>
    <g id="xtick_31">
     <g id="line2d_91">
      <path clip-path="url(#p77b40c3623)" d="M 425.225876 293.76 
L 425.225876 3.456 
" style="fill:none;stroke:#b0b0b0;stroke-linecap:square;stroke-width:0.8;"/>
     </g>
     <g id="line2d_92">
      <g>
       <use style="stroke:#000000;stroke-width:0.6;" x="425.225876" xlink:href="#ma429852b41" y="293.76"/>
      </g>
     </g>
    </g>
    <g id="xtick_32">
     <g id="line2d_93">
      <path clip-path="url(#p77b40c3623)" d="M 432.996744 293.76 
L 432.996744 3.456 
" style="fill:none;stroke:#b0b0b0;stroke-linecap:square;stroke-width:0.8;"/>
     </g>
     <g id="line2d_94">
      <g>
       <use style="stroke:#000000;stroke-width:0.6;" x="432.996744" xlink:href="#ma429852b41" y="293.76"/>
      </g>
     </g>
    </g>
    <g id="xtick_33">
     <g id="line2d_95">
      <path clip-path="url(#p77b40c3623)" d="M 439.566919 293.76 
L 439.566919 3.456 
" style="fill:none;stroke:#b0b0b0;stroke-linecap:square;stroke-width:0.8;"/>
     </g>
     <g id="line2d_96">
      <g>
       <use style="stroke:#000000;stroke-width:0.6;" x="439.566919" xlink:href="#ma429852b41" y="293.76"/>
      </g>
     </g>
    </g>
    <g id="xtick_34">
     <g id="line2d_97">
      <path clip-path="url(#p77b40c3623)" d="M 445.258264 293.76 
L 445.258264 3.456 
" style="fill:none;stroke:#b0b0b0;stroke-linecap:square;stroke-width:0.8;"/>
     </g>
     <g id="line2d_98">
      <g>
       <use style="stroke:#000000;stroke-width:0.6;" x="445.258264" xlink:href="#ma429852b41" y="293.76"/>
      </g>
     </g>
    </g>
    <g id="xtick_35">
     <g id="line2d_99">
      <path clip-path="url(#p77b40c3623)" d="M 450.278386 293.76 
L 450.278386 3.456 
" style="fill:none;stroke:#b0b0b0;stroke-linecap:square;stroke-width:0.8;"/>
     </g>
     <g id="line2d_100">
      <g>
       <use style="stroke:#000000;stroke-width:0.6;" x="450.278386" xlink:href="#ma429852b41" y="293.76"/>
      </g>
     </g>
    </g>
    <g id="text_4">
     <!-- log10 of FEvals / DIM -->
     <g transform="translate(156.430563 339.313125)scale(0.2 -0.2)">
      <defs>
       <path d="M 603 4863 
L 1178 4863 
L 1178 0 
L 603 0 
L 603 4863 
z
" id="DejaVuSans-6c" transform="scale(0.015625)"/>
       <path d="M 1959 3097 
Q 1497 3097 1228 2736 
Q 959 2375 959 1747 
Q 959 1119 1226 758 
Q 1494 397 1959 397 
Q 2419 397 2687 759 
Q 2956 1122 2956 1747 
Q 2956 2369 2687 2733 
Q 2419 3097 1959 3097 
z
M 1959 3584 
Q 2709 3584 3137 3096 
Q 3566 2609 3566 1747 
Q 3566 888 3137 398 
Q 2709 -91 1959 -91 
Q 1206 -91 779 398 
Q 353 888 353 1747 
Q 353 2609 779 3096 
Q 1206 3584 1959 3584 
z
" id="DejaVuSans-6f" transform="scale(0.015625)"/>
       <path d="M 2906 1791 
Q 2906 2416 2648 2759 
Q 2391 3103 1925 3103 
Q 1463 3103 1205 2759 
Q 947 2416 947 1791 
Q 947 1169 1205 825 
Q 1463 481 1925 481 
Q 2391 481 2648 825 
Q 2906 1169 2906 1791 
z
M 3481 434 
Q 3481 -459 3084 -895 
Q 2688 -1331 1869 -1331 
Q 1566 -1331 1297 -1286 
Q 1028 -1241 775 -1147 
L 775 -588 
Q 1028 -725 1275 -790 
Q 1522 -856 1778 -856 
Q 2344 -856 2625 -561 
Q 2906 -266 2906 331 
L 2906 616 
Q 2728 306 2450 153 
Q 2172 0 1784 0 
Q 1141 0 747 490 
Q 353 981 353 1791 
Q 353 2603 747 3093 
Q 1141 3584 1784 3584 
Q 2172 3584 2450 3431 
Q 2728 3278 2906 2969 
L 2906 3500 
L 3481 3500 
L 3481 434 
z
" id="DejaVuSans-67" transform="scale(0.015625)"/>
       <path d="M 794 531 
L 1825 531 
L 1825 4091 
L 703 3866 
L 703 4441 
L 1819 4666 
L 2450 4666 
L 2450 531 
L 3481 531 
L 3481 0 
L 794 0 
L 794 531 
z
" id="DejaVuSans-31" transform="scale(0.015625)"/>
       <path id="DejaVuSans-20" transform="scale(0.015625)"/>
       <path d="M 2375 4863 
L 2375 4384 
L 1825 4384 
Q 1516 4384 1395 4259 
Q 1275 4134 1275 3809 
L 1275 3500 
L 2222 3500 
L 2222 3053 
L 1275 3053 
L 1275 0 
L 697 0 
L 697 3053 
L 147 3053 
L 147 3500 
L 697 3500 
L 697 3744 
Q 697 4328 969 4595 
Q 1241 4863 1831 4863 
L 2375 4863 
z
" id="DejaVuSans-66" transform="scale(0.015625)"/>
       <path d="M 628 4666 
L 3309 4666 
L 3309 4134 
L 1259 4134 
L 1259 2759 
L 3109 2759 
L 3109 2228 
L 1259 2228 
L 1259 0 
L 628 0 
L 628 4666 
z
" id="DejaVuSans-46" transform="scale(0.015625)"/>
       <path d="M 628 4666 
L 3578 4666 
L 3578 4134 
L 1259 4134 
L 1259 2753 
L 3481 2753 
L 3481 2222 
L 1259 2222 
L 1259 531 
L 3634 531 
L 3634 0 
L 628 0 
L 628 4666 
z
" id="DejaVuSans-45" transform="scale(0.015625)"/>
       <path d="M 191 3500 
L 800 3500 
L 1894 563 
L 2988 3500 
L 3597 3500 
L 2284 0 
L 1503 0 
L 191 3500 
z
" id="DejaVuSans-76" transform="scale(0.015625)"/>
       <path d="M 2194 1759 
Q 1497 1759 1228 1600 
Q 959 1441 959 1056 
Q 959 750 1161 570 
Q 1363 391 1709 391 
Q 2188 391 2477 730 
Q 2766 1069 2766 1631 
L 2766 1759 
L 2194 1759 
z
M 3341 1997 
L 3341 0 
L 2766 0 
L 2766 531 
Q 2569 213 2275 61 
Q 1981 -91 1556 -91 
Q 1019 -91 701 211 
Q 384 513 384 1019 
Q 384 1609 779 1909 
Q 1175 2209 1959 2209 
L 2766 2209 
L 2766 2266 
Q 2766 2663 2505 2880 
Q 2244 3097 1772 3097 
Q 1472 3097 1187 3025 
Q 903 2953 641 2809 
L 641 3341 
Q 956 3463 1253 3523 
Q 1550 3584 1831 3584 
Q 2591 3584 2966 3190 
Q 3341 2797 3341 1997 
z
" id="DejaVuSans-61" transform="scale(0.015625)"/>
       <path d="M 2834 3397 
L 2834 2853 
Q 2591 2978 2328 3040 
Q 2066 3103 1784 3103 
Q 1356 3103 1142 2972 
Q 928 2841 928 2578 
Q 928 2378 1081 2264 
Q 1234 2150 1697 2047 
L 1894 2003 
Q 2506 1872 2764 1633 
Q 3022 1394 3022 966 
Q 3022 478 2636 193 
Q 2250 -91 1575 -91 
Q 1294 -91 989 -36 
Q 684 19 347 128 
L 347 722 
Q 666 556 975 473 
Q 1284 391 1588 391 
Q 1994 391 2212 530 
Q 2431 669 2431 922 
Q 2431 1156 2273 1281 
Q 2116 1406 1581 1522 
L 1381 1569 
Q 847 1681 609 1914 
Q 372 2147 372 2553 
Q 372 3047 722 3315 
Q 1072 3584 1716 3584 
Q 2034 3584 2315 3537 
Q 2597 3491 2834 3397 
z
" id="DejaVuSans-73" transform="scale(0.015625)"/>
       <path d="M 1625 4666 
L 2156 4666 
L 531 -594 
L 0 -594 
L 1625 4666 
z
" id="DejaVuSans-2f" transform="scale(0.015625)"/>
       <path d="M 1259 4147 
L 1259 519 
L 2022 519 
Q 2988 519 3436 956 
Q 3884 1394 3884 2338 
Q 3884 3275 3436 3711 
Q 2988 4147 2022 4147 
L 1259 4147 
z
M 628 4666 
L 1925 4666 
Q 3281 4666 3915 4102 
Q 4550 3538 4550 2338 
Q 4550 1131 3912 565 
Q 3275 0 1925 0 
L 628 0 
L 628 4666 
z
" id="DejaVuSans-44" transform="scale(0.015625)"/>
       <path d="M 628 4666 
L 1259 4666 
L 1259 0 
L 628 0 
L 628 4666 
z
" id="DejaVuSans-49" transform="scale(0.015625)"/>
       <path d="M 628 4666 
L 1569 4666 
L 2759 1491 
L 3956 4666 
L 4897 4666 
L 4897 0 
L 4281 0 
L 4281 4097 
L 3078 897 
L 2444 897 
L 1241 4097 
L 1241 0 
L 628 0 
L 628 4666 
z
" id="DejaVuSans-4d" transform="scale(0.015625)"/>
      </defs>
      <use xlink:href="#DejaVuSans-6c"/>
      <use x="27.783203" xlink:href="#DejaVuSans-6f"/>
      <use x="88.964844" xlink:href="#DejaVuSans-67"/>
      <use x="152.441406" xlink:href="#DejaVuSans-31"/>
      <use x="216.064453" xlink:href="#DejaVuSans-30"/>
      <use x="279.6875" xlink:href="#DejaVuSans-20"/>
      <use x="311.474609" xlink:href="#DejaVuSans-6f"/>
      <use x="372.65625" xlink:href="#DejaVuSans-66"/>
      <use x="407.861328" xlink:href="#DejaVuSans-20"/>
      <use x="439.648438" xlink:href="#DejaVuSans-46"/>
      <use x="497.167969" xlink:href="#DejaVuSans-45"/>
      <use x="560.351562" xlink:href="#DejaVuSans-76"/>
      <use x="619.53125" xlink:href="#DejaVuSans-61"/>
      <use x="680.810547" xlink:href="#DejaVuSans-6c"/>
      <use x="708.59375" xlink:href="#DejaVuSans-73"/>
      <use x="760.693359" xlink:href="#DejaVuSans-20"/>
      <use x="792.480469" xlink:href="#DejaVuSans-2f"/>
      <use x="826.171875" xlink:href="#DejaVuSans-20"/>
      <use x="857.958984" xlink:href="#DejaVuSans-44"/>
      <use x="934.960938" xlink:href="#DejaVuSans-49"/>
      <use x="964.453125" xlink:href="#DejaVuSans-4d"/>
     </g>
    </g>
   </g>
   <g id="matplotlib.axis_2">
    <g id="ytick_1">
     <g id="line2d_101">
      <path clip-path="url(#p77b40c3623)" d="M 62.208 293.76 
L 460.8 293.76 
" style="fill:none;stroke:#b0b0b0;stroke-linecap:square;stroke-width:0.8;"/>
     </g>
     <g id="line2d_102">
      <defs>
       <path d="M 0 0 
L -3.5 0 
" id="mfefe16af11" style="stroke:#000000;stroke-width:0.8;"/>
      </defs>
      <g>
       <use style="stroke:#000000;stroke-width:0.8;" x="62.208" xlink:href="#mfefe16af11" y="293.76"/>
      </g>
     </g>
     <g id="text_5">
      <!-- 0.0 -->
      <g transform="translate(29.763 299.83875)scale(0.16 -0.16)">
       <defs>
        <path d="M 684 794 
L 1344 794 
L 1344 0 
L 684 0 
L 684 794 
z
" id="DejaVuSans-2e" transform="scale(0.015625)"/>
       </defs>
       <use xlink:href="#DejaVuSans-30"/>
       <use x="63.623047" xlink:href="#DejaVuSans-2e"/>
       <use x="95.410156" xlink:href="#DejaVuSans-30"/>
      </g>
     </g>
    </g>
    <g id="ytick_2">
     <g id="line2d_103">
      <path clip-path="url(#p77b40c3623)" d="M 62.208 236.274059 
L 460.8 236.274059 
" style="fill:none;stroke:#b0b0b0;stroke-linecap:square;stroke-width:0.8;"/>
     </g>
     <g id="line2d_104">
      <g>
       <use style="stroke:#000000;stroke-width:0.8;" x="62.208" xlink:href="#mfefe16af11" y="236.274059"/>
      </g>
     </g>
     <g id="text_6">
      <!-- 0.2 -->
      <g transform="translate(29.763 242.352809)scale(0.16 -0.16)">
       <use xlink:href="#DejaVuSans-30"/>
       <use x="63.623047" xlink:href="#DejaVuSans-2e"/>
       <use x="95.410156" xlink:href="#DejaVuSans-32"/>
      </g>
     </g>
    </g>
    <g id="ytick_3">
     <g id="line2d_105">
      <path clip-path="url(#p77b40c3623)" d="M 62.208 178.788119 
L 460.8 178.788119 
" style="fill:none;stroke:#b0b0b0;stroke-linecap:square;stroke-width:0.8;"/>
     </g>
     <g id="line2d_106">
      <g>
       <use style="stroke:#000000;stroke-width:0.8;" x="62.208" xlink:href="#mfefe16af11" y="178.788119"/>
      </g>
     </g>
     <g id="text_7">
      <!-- 0.4 -->
      <g transform="translate(29.763 184.866869)scale(0.16 -0.16)">
       <use xlink:href="#DejaVuSans-30"/>
       <use x="63.623047" xlink:href="#DejaVuSans-2e"/>
       <use x="95.410156" xlink:href="#DejaVuSans-34"/>
      </g>
     </g>
    </g>
    <g id="ytick_4">
     <g id="line2d_107">
      <path clip-path="url(#p77b40c3623)" d="M 62.208 121.302178 
L 460.8 121.302178 
" style="fill:none;stroke:#b0b0b0;stroke-linecap:square;stroke-width:0.8;"/>
     </g>
     <g id="line2d_108">
      <g>
       <use style="stroke:#000000;stroke-width:0.8;" x="62.208" xlink:href="#mfefe16af11" y="121.302178"/>
      </g>
     </g>
     <g id="text_8">
      <!-- 0.6 -->
      <g transform="translate(29.763 127.380928)scale(0.16 -0.16)">
       <defs>
        <path d="M 2113 2584 
Q 1688 2584 1439 2293 
Q 1191 2003 1191 1497 
Q 1191 994 1439 701 
Q 1688 409 2113 409 
Q 2538 409 2786 701 
Q 3034 994 3034 1497 
Q 3034 2003 2786 2293 
Q 2538 2584 2113 2584 
z
M 3366 4563 
L 3366 3988 
Q 3128 4100 2886 4159 
Q 2644 4219 2406 4219 
Q 1781 4219 1451 3797 
Q 1122 3375 1075 2522 
Q 1259 2794 1537 2939 
Q 1816 3084 2150 3084 
Q 2853 3084 3261 2657 
Q 3669 2231 3669 1497 
Q 3669 778 3244 343 
Q 2819 -91 2113 -91 
Q 1303 -91 875 529 
Q 447 1150 447 2328 
Q 447 3434 972 4092 
Q 1497 4750 2381 4750 
Q 2619 4750 2861 4703 
Q 3103 4656 3366 4563 
z
" id="DejaVuSans-36" transform="scale(0.015625)"/>
       </defs>
       <use xlink:href="#DejaVuSans-30"/>
       <use x="63.623047" xlink:href="#DejaVuSans-2e"/>
       <use x="95.410156" xlink:href="#DejaVuSans-36"/>
      </g>
     </g>
    </g>
    <g id="ytick_5">
     <g id="line2d_109">
      <path clip-path="url(#p77b40c3623)" d="M 62.208 63.816238 
L 460.8 63.816238 
" style="fill:none;stroke:#b0b0b0;stroke-linecap:square;stroke-width:0.8;"/>
     </g>
     <g id="line2d_110">
      <g>
       <use style="stroke:#000000;stroke-width:0.8;" x="62.208" xlink:href="#mfefe16af11" y="63.816238"/>
      </g>
     </g>
     <g id="text_9">
      <!-- 0.8 -->
      <g transform="translate(29.763 69.894988)scale(0.16 -0.16)">
       <defs>
        <path d="M 2034 2216 
Q 1584 2216 1326 1975 
Q 1069 1734 1069 1313 
Q 1069 891 1326 650 
Q 1584 409 2034 409 
Q 2484 409 2743 651 
Q 3003 894 3003 1313 
Q 3003 1734 2745 1975 
Q 2488 2216 2034 2216 
z
M 1403 2484 
Q 997 2584 770 2862 
Q 544 3141 544 3541 
Q 544 4100 942 4425 
Q 1341 4750 2034 4750 
Q 2731 4750 3128 4425 
Q 3525 4100 3525 3541 
Q 3525 3141 3298 2862 
Q 3072 2584 2669 2484 
Q 3125 2378 3379 2068 
Q 3634 1759 3634 1313 
Q 3634 634 3220 271 
Q 2806 -91 2034 -91 
Q 1263 -91 848 271 
Q 434 634 434 1313 
Q 434 1759 690 2068 
Q 947 2378 1403 2484 
z
M 1172 3481 
Q 1172 3119 1398 2916 
Q 1625 2713 2034 2713 
Q 2441 2713 2670 2916 
Q 2900 3119 2900 3481 
Q 2900 3844 2670 4047 
Q 2441 4250 2034 4250 
Q 1625 4250 1398 4047 
Q 1172 3844 1172 3481 
z
" id="DejaVuSans-38" transform="scale(0.015625)"/>
       </defs>
       <use xlink:href="#DejaVuSans-30"/>
       <use x="63.623047" xlink:href="#DejaVuSans-2e"/>
       <use x="95.410156" xlink:href="#DejaVuSans-38"/>
      </g>
     </g>
    </g>
    <g id="ytick_6">
     <g id="line2d_111">
      <path clip-path="url(#p77b40c3623)" d="M 62.208 6.330297 
L 460.8 6.330297 
" style="fill:none;stroke:#b0b0b0;stroke-linecap:square;stroke-width:0.8;"/>
     </g>
     <g id="line2d_112">
      <g>
       <use style="stroke:#000000;stroke-width:0.8;" x="62.208" xlink:href="#mfefe16af11" y="6.330297"/>
      </g>
     </g>
     <g id="text_10">
      <!-- 1.0 -->
      <g transform="translate(29.763 12.409047)scale(0.16 -0.16)">
       <use xlink:href="#DejaVuSans-31"/>
       <use x="63.623047" xlink:href="#DejaVuSans-2e"/>
       <use x="95.410156" xlink:href="#DejaVuSans-30"/>
      </g>
     </g>
    </g>
    <g id="text_11">
     <!-- proportion of trials -->
     <g transform="translate(21.603625 241.61425)rotate(-90)scale(0.2 -0.2)">
      <defs>
       <path d="M 1159 525 
L 1159 -1331 
L 581 -1331 
L 581 3500 
L 1159 3500 
L 1159 2969 
Q 1341 3281 1617 3432 
Q 1894 3584 2278 3584 
Q 2916 3584 3314 3078 
Q 3713 2572 3713 1747 
Q 3713 922 3314 415 
Q 2916 -91 2278 -91 
Q 1894 -91 1617 61 
Q 1341 213 1159 525 
z
M 3116 1747 
Q 3116 2381 2855 2742 
Q 2594 3103 2138 3103 
Q 1681 3103 1420 2742 
Q 1159 2381 1159 1747 
Q 1159 1113 1420 752 
Q 1681 391 2138 391 
Q 2594 391 2855 752 
Q 3116 1113 3116 1747 
z
" id="DejaVuSans-70" transform="scale(0.015625)"/>
       <path d="M 2631 2963 
Q 2534 3019 2420 3045 
Q 2306 3072 2169 3072 
Q 1681 3072 1420 2755 
Q 1159 2438 1159 1844 
L 1159 0 
L 581 0 
L 581 3500 
L 1159 3500 
L 1159 2956 
Q 1341 3275 1631 3429 
Q 1922 3584 2338 3584 
Q 2397 3584 2469 3576 
Q 2541 3569 2628 3553 
L 2631 2963 
z
" id="DejaVuSans-72" transform="scale(0.015625)"/>
       <path d="M 1172 4494 
L 1172 3500 
L 2356 3500 
L 2356 3053 
L 1172 3053 
L 1172 1153 
Q 1172 725 1289 603 
Q 1406 481 1766 481 
L 2356 481 
L 2356 0 
L 1766 0 
Q 1100 0 847 248 
Q 594 497 594 1153 
L 594 3053 
L 172 3053 
L 172 3500 
L 594 3500 
L 594 4494 
L 1172 4494 
z
" id="DejaVuSans-74" transform="scale(0.015625)"/>
       <path d="M 603 3500 
L 1178 3500 
L 1178 0 
L 603 0 
L 603 3500 
z
M 603 4863 
L 1178 4863 
L 1178 4134 
L 603 4134 
L 603 4863 
z
" id="DejaVuSans-69" transform="scale(0.015625)"/>
       <path d="M 3513 2113 
L 3513 0 
L 2938 0 
L 2938 2094 
Q 2938 2591 2744 2837 
Q 2550 3084 2163 3084 
Q 1697 3084 1428 2787 
Q 1159 2491 1159 1978 
L 1159 0 
L 581 0 
L 581 3500 
L 1159 3500 
L 1159 2956 
Q 1366 3272 1645 3428 
Q 1925 3584 2291 3584 
Q 2894 3584 3203 3211 
Q 3513 2838 3513 2113 
z
" id="DejaVuSans-6e" transform="scale(0.015625)"/>
      </defs>
      <use xlink:href="#DejaVuSans-70"/>
      <use x="63.476562" xlink:href="#DejaVuSans-72"/>
      <use x="102.339844" xlink:href="#DejaVuSans-6f"/>
      <use x="163.521484" xlink:href="#DejaVuSans-70"/>
      <use x="226.998047" xlink:href="#DejaVuSans-6f"/>
      <use x="288.179688" xlink:href="#DejaVuSans-72"/>
      <use x="329.292969" xlink:href="#DejaVuSans-74"/>
      <use x="368.501953" xlink:href="#DejaVuSans-69"/>
      <use x="396.285156" xlink:href="#DejaVuSans-6f"/>
      <use x="457.466797" xlink:href="#DejaVuSans-6e"/>
      <use x="520.845703" xlink:href="#DejaVuSans-20"/>
      <use x="552.632812" xlink:href="#DejaVuSans-6f"/>
      <use x="613.814453" xlink:href="#DejaVuSans-66"/>
      <use x="649.019531" xlink:href="#DejaVuSans-20"/>
      <use x="680.806641" xlink:href="#DejaVuSans-74"/>
      <use x="720.015625" xlink:href="#DejaVuSans-72"/>
      <use x="761.128906" xlink:href="#DejaVuSans-69"/>
      <use x="788.912109" xlink:href="#DejaVuSans-61"/>
      <use x="850.191406" xlink:href="#DejaVuSans-6c"/>
      <use x="877.974609" xlink:href="#DejaVuSans-73"/>
     </g>
    </g>
   </g>
   <g id="line2d_113">
    <path clip-path="url(#p77b40c3623)" d="M -1 263.100832 
L 23.154064 263.100832 
L 23.154064 251.603644 
L 40.435706 251.603644 
L 40.435706 224.776871 
L 52.697226 224.776871 
L 52.697226 205.614891 
L 62.208 205.614891 
L 62.208 197.950099 
L 69.978868 197.950099 
L 69.978868 194.117703 
L 82.240388 194.117703 
L 82.240388 190.285307 
L 102.933592 190.285307 
L 102.933592 186.452911 
L 109.032804 186.452911 
L 109.032804 182.620515 
L 111.78355 182.620515 
L 111.78355 178.788119 
L 114.367479 178.788119 
L 114.367479 174.955723 
L 143.910641 174.955723 
L 143.910641 171.123327 
L 165.932916 171.123327 
L 165.932916 163.458535 
L 175.889995 163.458535 
L 175.889995 159.626139 
L 183.463082 159.626139 
L 183.463082 155.793743 
L 192.775153 155.793743 
L 192.775153 151.961347 
L 196.94594 151.961347 
L 196.94594 148.12895 
L 207.173063 148.12895 
L 207.173063 144.296554 
L 212.003333 144.296554 
L 212.003333 140.464158 
L 213.253328 140.464158 
L 213.253328 136.631762 
L 215.648439 136.631762 
L 215.648439 132.799366 
L 216.111724 132.799366 
L 216.111724 128.96697 
L 219.22094 128.96697 
L 219.22094 125.134574 
L 222.517018 125.134574 
L 222.517018 121.302178 
L 231.26774 121.302178 
L 231.26774 117.469782 
L 236.999427 117.469782 
L 236.999427 113.637386 
L 239.466971 113.637386 
L 239.466971 109.80499 
L 239.996441 109.80499 
L 239.996441 105.972594 
L 242.176074 105.972594 
L 242.176074 102.140198 
L 242.300882 102.140198 
L 242.300882 98.307802 
L 242.919496 98.307802 
L 242.919496 94.475406 
L 243.2864 94.475406 
L 243.2864 90.64301 
L 249.084167 90.64301 
L 249.084167 86.810614 
L 249.821768 86.810614 
L 249.821768 82.978218 
L 252.943056 82.978218 
L 252.943056 79.145822 
L 253.617313 79.145822 
L 253.617313 75.313426 
L 262.628232 75.313426 
L 262.628232 71.48103 
L 265.543038 71.48103 
L 265.543038 67.648634 
L 275.883668 67.648634 
L 275.883668 63.816238 
L 280.853379 63.816238 
L 280.853379 59.983842 
L 284.385052 59.983842 
L 284.385052 56.151446 
L 289.703337 56.151446 
L 289.703337 52.31905 
L 290.474977 52.31905 
L 290.474977 48.486653 
L 290.955227 48.486653 
L 290.955227 44.654257 
L 297.268799 44.654257 
L 297.268799 40.821861 
L 297.882072 40.821861 
L 297.882072 36.989465 
L 306.324163 36.989465 
L 306.324163 33.157069 
L 310.421754 33.157069 
L 310.421754 29.324673 
L 314.481751 29.324673 
L 314.481751 25.492277 
L 315.523014 25.492277 
L 315.523014 21.659881 
L 316.517604 21.659881 
L 316.517604 17.827485 
L 317.510862 17.827485 
L 317.510862 13.995089 
L 325.840086 13.995089 
L 325.840086 10.162693 
L 326.794798 10.162693 
L 326.794798 6.330297 
L 326.794798 6.330297 
L 460.8 6.330297 
L 460.8 6.330297 
" style="fill:none;stroke:#000000;stroke-linecap:square;stroke-width:1.5;"/>
   </g>
   <g id="line2d_114">
    <path clip-path="url(#p77b40c3623)" style="fill:none;stroke:#000000;stroke-linecap:square;stroke-width:1.5;"/>
   </g>
   <g id="line2d_115">
    <path clip-path="url(#p77b40c3623)" d="M 293.765626 293.76 
L 293.765626 289.927604 
L 296.156258 289.927604 
L 296.156258 286.095208 
L 302.00582 286.095208 
L 302.00582 282.262812 
L 304.568068 282.262812 
L 304.568068 278.430416 
L 305.540035 278.430416 
L 305.540035 274.59802 
L 306.213024 274.59802 
L 306.213024 270.765624 
L 306.435013 270.765624 
L 306.435013 266.933228 
L 308.090699 266.933228 
L 308.090699 263.100832 
L 308.408971 263.100832 
L 308.408971 259.268436 
L 310.597825 259.268436 
L 310.597825 255.43604 
L 312.053645 255.43604 
L 312.053645 251.603644 
L 312.102134 251.603644 
L 312.102134 247.771248 
L 313.555154 247.771248 
L 313.555154 243.938851 
L 313.695434 243.938851 
L 313.695434 240.106455 
L 314.136634 240.106455 
L 314.136634 236.274059 
L 314.435897 236.274059 
L 314.435897 232.441663 
L 315.208792 232.441663 
L 315.208792 228.609267 
L 315.990046 228.609267 
L 315.990046 224.776871 
L 317.850988 224.776871 
L 317.850988 220.944475 
L 318.104312 220.944475 
L 318.104312 217.112079 
L 318.689613 217.112079 
L 318.689613 213.279683 
L 319.735473 213.279683 
L 319.735473 209.447287 
L 319.83664 209.447287 
L 319.83664 205.614891 
L 320.178824 205.614891 
L 320.178824 201.782495 
L 322.21441 201.782495 
L 322.21441 197.950099 
L 322.38608 197.950099 
L 322.38608 194.117703 
L 322.670669 194.117703 
L 322.670669 190.285307 
L 324.120656 190.285307 
L 324.120656 186.452911 
L 326.050219 186.452911 
L 326.050219 182.620515 
L 326.571062 182.620515 
L 326.571062 178.788119 
L 333.440924 178.788119 
L 333.440924 174.955723 
L 337.111545 174.955723 
L 337.111545 171.123327 
L 337.687072 171.123327 
L 337.687072 167.290931 
L 340.776308 167.290931 
L 340.776308 163.458535 
L 341.072037 163.458535 
L 341.072037 159.626139 
L 341.438836 159.626139 
L 341.438836 155.793743 
L 342.258742 155.793743 
L 342.258742 151.961347 
L 342.83993 151.961347 
L 342.83993 148.12895 
L 343.028002 148.12895 
L 343.028002 144.296554 
L 343.039729 144.296554 
L 343.039729 140.464158 
L 344.013454 140.464158 
L 344.013454 136.631762 
L 345.676734 136.631762 
L 345.676734 132.799366 
L 346.354673 132.799366 
L 346.354673 128.96697 
L 347.594822 128.96697 
L 347.594822 125.134574 
L 348.201623 125.134574 
L 348.201623 121.302178 
L 351.257717 121.302178 
L 351.257717 117.469782 
L 354.496371 117.469782 
L 354.496371 113.637386 
L 358.341397 113.637386 
L 358.341397 109.80499 
L 359.240778 109.80499 
L 359.240778 105.972594 
L 359.623898 105.972594 
L 359.623898 102.140198 
L 362.310532 102.140198 
L 362.310532 98.307802 
L 363.697743 98.307802 
L 363.697743 94.475406 
L 365.166993 94.475406 
L 365.166993 90.64301 
L 368.558693 90.64301 
L 368.558693 86.810614 
L 372.483109 86.810614 
L 372.483109 82.978218 
L 376.735689 82.978218 
L 376.735689 79.145822 
L 382.37182 79.145822 
L 382.37182 75.313426 
L 382.650485 75.313426 
L 382.650485 71.48103 
L 382.650485 71.48103 
L 382.650485 71.48103 
L 460.8 71.48103 
" style="fill:none;stroke:#00bfbf;stroke-linecap:square;stroke-width:1.5;"/>
   </g>
   <g id="line2d_116">
    <path clip-path="url(#p77b40c3623)" style="fill:none;stroke:#00bfbf;stroke-linecap:square;stroke-width:1.5;"/>
   </g>
   <g id="line2d_117">
    <path clip-path="url(#p77b40c3623)" d="M 345.43356 293.76 
L 345.43356 289.927604 
L 347.993356 289.927604 
L 347.993356 286.095208 
L 348.326096 286.095208 
L 348.326096 282.262812 
L 348.532748 282.262812 
L 348.532748 278.430416 
L 348.994082 278.430416 
L 348.994082 274.59802 
L 349.991777 274.59802 
L 349.991777 270.765624 
L 351.460288 270.765624 
L 351.460288 266.933228 
L 351.498764 266.933228 
L 351.498764 263.100832 
L 351.652321 263.100832 
L 351.652321 259.268436 
L 351.6619 259.268436 
L 351.6619 255.43604 
L 352.014819 255.43604 
L 352.014819 251.603644 
L 352.505924 251.603644 
L 352.505924 247.771248 
L 352.702661 247.771248 
L 352.702661 243.938851 
L 352.768039 243.938851 
L 352.768039 240.106455 
L 353.241362 240.106455 
L 353.241362 236.274059 
L 353.361176 236.274059 
L 353.361176 232.441663 
L 354.045915 232.441663 
L 354.045915 228.609267 
L 354.109266 228.609267 
L 354.109266 224.776871 
L 354.968714 224.776871 
L 354.968714 220.944475 
L 355.00415 220.944475 
L 355.00415 217.112079 
L 355.400799 217.112079 
L 355.400799 213.279683 
L 355.915319 213.279683 
L 355.915319 209.447287 
L 355.958638 209.447287 
L 355.958638 205.614891 
L 356.252047 205.614891 
L 356.252047 201.782495 
L 356.295025 201.782495 
L 356.295025 197.950099 
L 356.475063 197.950099 
L 356.475063 194.117703 
L 356.739451 194.117703 
L 356.739451 190.285307 
L 356.959938 190.285307 
L 356.959938 186.452911 
L 356.976852 186.452911 
L 356.976852 182.620515 
L 357.019106 182.620515 
L 357.019106 178.788119 
L 357.497866 178.788119 
L 357.497866 174.955723 
L 357.822367 174.955723 
L 357.822367 171.123327 
L 357.88035 171.123327 
L 357.88035 167.290931 
L 357.896902 167.290931 
L 357.896902 163.458535 
L 357.913448 163.458535 
L 357.913448 159.626139 
L 358.748874 159.626139 
L 358.748874 155.793743 
L 358.926938 155.793743 
L 358.926938 151.961347 
L 358.967303 151.961347 
L 358.967303 148.12895 
L 359.120344 148.12895 
L 359.120344 144.296554 
L 360.976835 144.296554 
L 360.976835 140.464158 
L 361.686769 140.464158 
L 361.686769 136.631762 
L 363.320556 136.631762 
L 363.320556 132.799366 
L 364.157436 132.799366 
L 364.157436 128.96697 
L 366.132732 128.96697 
L 366.132732 125.134574 
L 367.942151 125.134574 
L 367.942151 121.302178 
L 370.300918 121.302178 
L 370.300918 117.469782 
L 372.471354 117.469782 
L 372.471354 113.637386 
L 373.037746 113.637386 
L 373.037746 109.80499 
L 374.998886 109.80499 
L 374.998886 105.972594 
L 385.449811 105.972594 
L 385.449811 102.140198 
L 401.54463 102.140198 
L 401.54463 98.307802 
L 401.54463 98.307802 
L 401.54463 98.307802 
L 460.8 98.307802 
" style="fill:none;stroke:#bf00bf;stroke-linecap:square;stroke-width:1.5;"/>
   </g>
   <g id="line2d_118">
    <path clip-path="url(#p77b40c3623)" style="fill:none;stroke:#bf00bf;stroke-linecap:square;stroke-width:1.5;"/>
   </g>
   <g id="line2d_119">
    <path clip-path="url(#p77b40c3623)" d="M 358.111497 293.76 
L 358.111497 289.927604 
L 364.612224 289.927604 
L 364.612224 286.095208 
L 364.858899 286.095208 
L 364.858899 282.262812 
L 365.201863 282.262812 
L 365.201863 278.430416 
L 365.299348 278.430416 
L 365.299348 274.59802 
L 366.091789 274.59802 
L 366.091789 270.765624 
L 367.216937 270.765624 
L 367.216937 266.933228 
L 367.843982 266.933228 
L 367.843982 263.100832 
L 368.558693 263.100832 
L 368.558693 259.268436 
L 368.80924 259.268436 
L 368.80924 255.43604 
L 368.822049 255.43604 
L 368.822049 251.603644 
L 370.811217 251.603644 
L 370.811217 247.771248 
L 373.464833 247.771248 
L 373.464833 243.938851 
L 374.040927 243.938851 
L 374.040927 240.106455 
L 374.373889 240.106455 
L 374.373889 236.274059 
L 374.469347 236.274059 
L 374.469347 232.441663 
L 375.434284 232.441663 
L 375.434284 228.609267 
L 375.810963 228.609267 
L 375.810963 224.776871 
L 375.865279 224.776871 
L 375.865279 220.944475 
L 376.222039 220.944475 
L 376.222039 217.112079 
L 376.383221 217.112079 
L 376.383221 213.279683 
L 376.703767 213.279683 
L 376.703767 209.447287 
L 376.947897 209.447287 
L 376.947897 205.614891 
L 377.531298 205.614891 
L 377.531298 201.782495 
L 377.546955 201.782495 
L 377.546955 197.950099 
L 377.838174 197.950099 
L 377.838174 194.117703 
L 377.869258 194.117703 
L 377.869258 190.285307 
L 378.337945 190.285307 
L 378.337945 186.452911 
L 378.394252 186.452911 
L 378.394252 182.620515 
L 378.700078 182.620515 
L 378.700078 178.788119 
L 378.852172 178.788119 
L 378.852172 174.955723 
L 379.094399 174.955723 
L 379.094399 171.123327 
L 379.539918 171.123327 
L 379.539918 167.290931 
L 380.275518 167.290931 
L 380.275518 163.458535 
L 380.708923 163.458535 
L 380.708923 159.626139 
L 380.858855 159.626139 
L 380.858855 155.793743 
L 380.878162 155.793743 
L 380.878162 151.961347 
L 380.907108 151.961347 
L 380.907108 148.12895 
L 381.190693 148.12895 
L 381.190693 144.296554 
L 381.319843 144.296554 
L 381.319843 140.464158 
L 381.500949 140.464158 
L 381.500949 136.631762 
L 381.676552 136.631762 
L 381.676552 132.799366 
L 381.686024 132.799366 
L 381.686024 128.96697 
L 381.766447 128.96697 
L 381.766447 125.134574 
L 381.865584 125.134574 
L 381.865584 121.302178 
L 381.969195 121.302178 
L 381.969195 117.469782 
L 382.576353 117.469782 
L 382.576353 113.637386 
L 382.58099 113.637386 
L 382.58099 109.80499 
L 382.742971 109.80499 
L 382.742971 105.972594 
L 390.849717 105.972594 
L 390.849717 102.140198 
L 405.462687 102.140198 
L 405.462687 98.307802 
L 405.462687 98.307802 
L 405.462687 98.307802 
L 460.8 98.307802 
" style="fill:none;stroke:#ff0000;stroke-linecap:square;stroke-width:3;"/>
   </g>
   <g id="line2d_120">
    <path clip-path="url(#p77b40c3623)" style="fill:none;stroke:#ff0000;stroke-linecap:square;stroke-width:3;"/>
   </g>
   <g id="line2d_121">
    <path clip-path="url(#p77b40c3623)" d="M 460.8 293.76 
L 460.8 3.456 
" style="fill:none;stroke:#000000;stroke-linecap:square;stroke-width:1.5;"/>
   </g>
   <g id="patch_3">
    <path d="M 62.208 293.76 
L 62.208 3.456 
" style="fill:none;stroke:#000000;stroke-linecap:square;stroke-linejoin:miter;stroke-width:0.8;"/>
   </g>
   <g id="patch_4">
    <path d="M 460.8 293.76 
L 460.8 3.456 
" style="fill:none;stroke:#000000;stroke-linecap:square;stroke-linejoin:miter;stroke-width:0.8;"/>
   </g>
   <g id="patch_5">
    <path d="M 62.208 293.76 
L 460.8 293.76 
" style="fill:none;stroke:#000000;stroke-linecap:square;stroke-linejoin:miter;stroke-width:0.8;"/>
   </g>
   <g id="patch_6">
    <path d="M 62.208 3.456 
L 460.8 3.456 
" style="fill:none;stroke:#000000;stroke-linecap:square;stroke-linejoin:miter;stroke-width:0.8;"/>
   </g>
   <g id="text_12">
    <!-- {f15-f19}, 5-D -->
    <g transform="translate(188.654 24.458955)scale(0.2 -0.2)">
     <defs>
      <path d="M 3272 -594 
L 3272 -1044 
L 3078 -1044 
Q 2300 -1044 2036 -812 
Q 1772 -581 1772 109 
L 1772 856 
Q 1772 1328 1603 1509 
Q 1434 1691 991 1691 
L 800 1691 
L 800 2138 
L 991 2138 
Q 1438 2138 1605 2317 
Q 1772 2497 1772 2963 
L 1772 3713 
Q 1772 4403 2036 4633 
Q 2300 4863 3078 4863 
L 3272 4863 
L 3272 4416 
L 3059 4416 
Q 2619 4416 2484 4278 
Q 2350 4141 2350 3700 
L 2350 2925 
Q 2350 2434 2208 2212 
Q 2066 1991 1722 1913 
Q 2069 1828 2209 1606 
Q 2350 1384 2350 897 
L 2350 122 
Q 2350 -319 2484 -456 
Q 2619 -594 3059 -594 
L 3272 -594 
z
" id="DejaVuSans-7b" transform="scale(0.015625)"/>
      <path d="M 691 4666 
L 3169 4666 
L 3169 4134 
L 1269 4134 
L 1269 2991 
Q 1406 3038 1543 3061 
Q 1681 3084 1819 3084 
Q 2600 3084 3056 2656 
Q 3513 2228 3513 1497 
Q 3513 744 3044 326 
Q 2575 -91 1722 -91 
Q 1428 -91 1123 -41 
Q 819 9 494 109 
L 494 744 
Q 775 591 1075 516 
Q 1375 441 1709 441 
Q 2250 441 2565 725 
Q 2881 1009 2881 1497 
Q 2881 1984 2565 2268 
Q 2250 2553 1709 2553 
Q 1456 2553 1204 2497 
Q 953 2441 691 2322 
L 691 4666 
z
" id="DejaVuSans-35" transform="scale(0.015625)"/>
      <path d="M 313 2009 
L 1997 2009 
L 1997 1497 
L 313 1497 
L 313 2009 
z
" id="DejaVuSans-2d" transform="scale(0.015625)"/>
      <path d="M 703 97 
L 703 672 
Q 941 559 1184 500 
Q 1428 441 1663 441 
Q 2288 441 2617 861 
Q 2947 1281 2994 2138 
Q 2813 1869 2534 1725 
Q 2256 1581 1919 1581 
Q 1219 1581 811 2004 
Q 403 2428 403 3163 
Q 403 3881 828 4315 
Q 1253 4750 1959 4750 
Q 2769 4750 3195 4129 
Q 3622 3509 3622 2328 
Q 3622 1225 3098 567 
Q 2575 -91 1691 -91 
Q 1453 -91 1209 -44 
Q 966 3 703 97 
z
M 1959 2075 
Q 2384 2075 2632 2365 
Q 2881 2656 2881 3163 
Q 2881 3666 2632 3958 
Q 2384 4250 1959 4250 
Q 1534 4250 1286 3958 
Q 1038 3666 1038 3163 
Q 1038 2656 1286 2365 
Q 1534 2075 1959 2075 
z
" id="DejaVuSans-39" transform="scale(0.015625)"/>
      <path d="M 800 -594 
L 1019 -594 
Q 1456 -594 1589 -459 
Q 1722 -325 1722 122 
L 1722 897 
Q 1722 1384 1862 1606 
Q 2003 1828 2350 1913 
Q 2003 1991 1862 2212 
Q 1722 2434 1722 2925 
L 1722 3700 
Q 1722 4144 1589 4280 
Q 1456 4416 1019 4416 
L 800 4416 
L 800 4863 
L 997 4863 
Q 1775 4863 2036 4633 
Q 2297 4403 2297 3713 
L 2297 2963 
Q 2297 2497 2465 2317 
Q 2634 2138 3078 2138 
L 3272 2138 
L 3272 1691 
L 3078 1691 
Q 2634 1691 2465 1509 
Q 2297 1328 2297 856 
L 2297 109 
Q 2297 -581 2036 -812 
Q 1775 -1044 997 -1044 
L 800 -1044 
L 800 -594 
z
" id="DejaVuSans-7d" transform="scale(0.015625)"/>
      <path d="M 750 794 
L 1409 794 
L 1409 256 
L 897 -744 
L 494 -744 
L 750 256 
L 750 794 
z
" id="DejaVuSans-2c" transform="scale(0.015625)"/>
     </defs>
     <use xlink:href="#DejaVuSans-7b"/>
     <use x="63.623047" xlink:href="#DejaVuSans-66"/>
     <use x="98.828125" xlink:href="#DejaVuSans-31"/>
     <use x="162.451172" xlink:href="#DejaVuSans-35"/>
     <use x="226.074219" xlink:href="#DejaVuSans-2d"/>
     <use x="262.158203" xlink:href="#DejaVuSans-66"/>
     <use x="297.363281" xlink:href="#DejaVuSans-31"/>
     <use x="360.986328" xlink:href="#DejaVuSans-39"/>
     <use x="424.609375" xlink:href="#DejaVuSans-7d"/>
     <use x="488.232422" xlink:href="#DejaVuSans-2c"/>
     <use x="520.019531" xlink:href="#DejaVuSans-20"/>
     <use x="551.806641" xlink:href="#DejaVuSans-35"/>
     <use x="615.429688" xlink:href="#DejaVuSans-2d"/>
     <use x="651.513672" xlink:href="#DejaVuSans-44"/>
    </g>
   </g>
   <g id="text_13">
    <!-- absolute targets -->
    <g transform="translate(62.208 609.932673)scale(0.14 -0.14)">
     <defs>
      <path d="M 3116 1747 
Q 3116 2381 2855 2742 
Q 2594 3103 2138 3103 
Q 1681 3103 1420 2742 
Q 1159 2381 1159 1747 
Q 1159 1113 1420 752 
Q 1681 391 2138 391 
Q 2594 391 2855 752 
Q 3116 1113 3116 1747 
z
M 1159 2969 
Q 1341 3281 1617 3432 
Q 1894 3584 2278 3584 
Q 2916 3584 3314 3078 
Q 3713 2572 3713 1747 
Q 3713 922 3314 415 
Q 2916 -91 2278 -91 
Q 1894 -91 1617 61 
Q 1341 213 1159 525 
L 1159 0 
L 581 0 
L 581 4863 
L 1159 4863 
L 1159 2969 
z
" id="DejaVuSans-62" transform="scale(0.015625)"/>
      <path d="M 544 1381 
L 544 3500 
L 1119 3500 
L 1119 1403 
Q 1119 906 1312 657 
Q 1506 409 1894 409 
Q 2359 409 2629 706 
Q 2900 1003 2900 1516 
L 2900 3500 
L 3475 3500 
L 3475 0 
L 2900 0 
L 2900 538 
Q 2691 219 2414 64 
Q 2138 -91 1772 -91 
Q 1169 -91 856 284 
Q 544 659 544 1381 
z
M 1991 3584 
L 1991 3584 
z
" id="DejaVuSans-75" transform="scale(0.015625)"/>
      <path d="M 3597 1894 
L 3597 1613 
L 953 1613 
Q 991 1019 1311 708 
Q 1631 397 2203 397 
Q 2534 397 2845 478 
Q 3156 559 3463 722 
L 3463 178 
Q 3153 47 2828 -22 
Q 2503 -91 2169 -91 
Q 1331 -91 842 396 
Q 353 884 353 1716 
Q 353 2575 817 3079 
Q 1281 3584 2069 3584 
Q 2775 3584 3186 3129 
Q 3597 2675 3597 1894 
z
M 3022 2063 
Q 3016 2534 2758 2815 
Q 2500 3097 2075 3097 
Q 1594 3097 1305 2825 
Q 1016 2553 972 2059 
L 3022 2063 
z
" id="DejaVuSans-65" transform="scale(0.015625)"/>
     </defs>
     <use xlink:href="#DejaVuSans-61"/>
     <use x="61.279297" xlink:href="#DejaVuSans-62"/>
     <use x="124.755859" xlink:href="#DejaVuSans-73"/>
     <use x="176.855469" xlink:href="#DejaVuSans-6f"/>
     <use x="238.037109" xlink:href="#DejaVuSans-6c"/>
     <use x="265.820312" xlink:href="#DejaVuSans-75"/>
     <use x="329.199219" xlink:href="#DejaVuSans-74"/>
     <use x="368.408203" xlink:href="#DejaVuSans-65"/>
     <use x="429.931641" xlink:href="#DejaVuSans-20"/>
     <use x="461.71875" xlink:href="#DejaVuSans-74"/>
     <use x="500.927734" xlink:href="#DejaVuSans-61"/>
     <use x="562.207031" xlink:href="#DejaVuSans-72"/>
     <use x="601.570312" xlink:href="#DejaVuSans-67"/>
     <use x="665.046875" xlink:href="#DejaVuSans-65"/>
     <use x="726.570312" xlink:href="#DejaVuSans-74"/>
     <use x="765.779297" xlink:href="#DejaVuSans-73"/>
    </g>
   </g>
   <g id="text_14">
    <!-- v2.4 -->
    <g style="fill:#808080;" transform="translate(250.593063 288.777272)scale(0.1 -0.1)">
     <use xlink:href="#DejaVuSans-76"/>
     <use x="59.179688" xlink:href="#DejaVuSans-32"/>
     <use x="122.802734" xlink:href="#DejaVuSans-2e"/>
     <use x="154.589844" xlink:href="#DejaVuSans-34"/>
    </g>
   </g>
   <g id="legend_1">
    <g id="patch_7">
     <path d="M 76.208 136.881 
L 205.429875 136.881 
Q 209.429875 136.881 209.429875 132.881 
L 209.429875 17.456 
Q 209.429875 13.456 205.429875 13.456 
L 76.208 13.456 
Q 72.208 13.456 72.208 17.456 
L 72.208 132.881 
Q 72.208 136.881 76.208 136.881 
z
" style="fill:#ffffff;opacity:0.2;stroke:#cccccc;stroke-linejoin:miter;"/>
    </g>
    <g id="line2d_122">
     <path d="M 80.208 29.652875 
L 120.208 29.652875 
" style="fill:none;stroke:#000000;stroke-linecap:square;stroke-width:1.5;"/>
    </g>
    <g id="line2d_123"/>
    <g id="text_15">
     <!-- 1: 5/5 -->
     <g transform="translate(136.208 36.652875)scale(0.2 -0.2)">
      <defs>
       <path d="M 750 794 
L 1409 794 
L 1409 0 
L 750 0 
L 750 794 
z
M 750 3309 
L 1409 3309 
L 1409 2516 
L 750 2516 
L 750 3309 
z
" id="DejaVuSans-3a" transform="scale(0.015625)"/>
      </defs>
      <use xlink:href="#DejaVuSans-31"/>
      <use x="63.623047" xlink:href="#DejaVuSans-3a"/>
      <use x="97.314453" xlink:href="#DejaVuSans-20"/>
      <use x="129.101562" xlink:href="#DejaVuSans-35"/>
      <use x="192.724609" xlink:href="#DejaVuSans-2f"/>
      <use x="226.416016" xlink:href="#DejaVuSans-35"/>
     </g>
    </g>
    <g id="line2d_124">
     <path d="M 80.208 59.009125 
L 120.208 59.009125 
" style="fill:none;stroke:#00bfbf;stroke-linecap:square;stroke-width:1.5;"/>
    </g>
    <g id="line2d_125"/>
    <g id="text_16">
     <!-- -1: 5/5 -->
     <g transform="translate(136.208 66.009125)scale(0.2 -0.2)">
      <use xlink:href="#DejaVuSans-2d"/>
      <use x="36.083984" xlink:href="#DejaVuSans-31"/>
      <use x="99.707031" xlink:href="#DejaVuSans-3a"/>
      <use x="133.398438" xlink:href="#DejaVuSans-20"/>
      <use x="165.185547" xlink:href="#DejaVuSans-35"/>
      <use x="228.808594" xlink:href="#DejaVuSans-2f"/>
      <use x="262.5" xlink:href="#DejaVuSans-35"/>
     </g>
    </g>
    <g id="line2d_126">
     <path d="M 80.208 88.365375 
L 120.208 88.365375 
" style="fill:none;stroke:#bf00bf;stroke-linecap:square;stroke-width:1.5;"/>
    </g>
    <g id="line2d_127"/>
    <g id="text_17">
     <!-- -4: 5/5 -->
     <g transform="translate(136.208 95.365375)scale(0.2 -0.2)">
      <use xlink:href="#DejaVuSans-2d"/>
      <use x="36.083984" xlink:href="#DejaVuSans-34"/>
      <use x="99.707031" xlink:href="#DejaVuSans-3a"/>
      <use x="133.398438" xlink:href="#DejaVuSans-20"/>
      <use x="165.185547" xlink:href="#DejaVuSans-35"/>
      <use x="228.808594" xlink:href="#DejaVuSans-2f"/>
      <use x="262.5" xlink:href="#DejaVuSans-35"/>
     </g>
    </g>
    <g id="line2d_128">
     <path d="M 80.208 117.721625 
L 120.208 117.721625 
" style="fill:none;stroke:#ff0000;stroke-linecap:square;stroke-width:3;"/>
    </g>
    <g id="line2d_129"/>
    <g id="text_18">
     <!-- -8: 5/5 -->
     <g transform="translate(136.208 124.721625)scale(0.2 -0.2)">
      <use xlink:href="#DejaVuSans-2d"/>
      <use x="36.083984" xlink:href="#DejaVuSans-38"/>
      <use x="99.707031" xlink:href="#DejaVuSans-3a"/>
      <use x="133.398438" xlink:href="#DejaVuSans-20"/>
      <use x="165.185547" xlink:href="#DejaVuSans-35"/>
      <use x="228.808594" xlink:href="#DejaVuSans-2f"/>
      <use x="262.5" xlink:href="#DejaVuSans-35"/>
     </g>
    </g>
   </g>
  </g>
 </g>
 <defs>
  <clipPath id="p77b40c3623">
   <rect height="290.304" width="398.592" x="62.208" y="3.456"/>
  </clipPath>
 </defs>
</svg>
