<?xml version="1.0" encoding="utf-8" standalone="no"?>
<!DOCTYPE svg PUBLIC "-//W3C//DTD SVG 1.1//EN"
  "http://www.w3.org/Graphics/SVG/1.1/DTD/svg11.dtd">
<svg height="345.6pt" version="1.1" viewBox="0 0 460.8 345.6" width="460.8pt" xmlns="http://www.w3.org/2000/svg" xmlns:xlink="http://www.w3.org/1999/xlink">
 <metadata>
  <rdf:RDF xmlns:cc="http://creativecommons.org/ns#" xmlns:dc="http://purl.org/dc/elements/1.1/" xmlns:rdf="http://www.w3.org/1999/02/22-rdf-syntax-ns#">
   <cc:Work>
    <dc:type rdf:resource="http://purl.org/dc/dcmitype/StillImage"/>
    <dc:date>2021-07-27T16:03:35.338543</dc:date>
    <dc:format>image/svg+xml</dc:format>
    <dc:creator>
     <cc:Agent>
      <dc:title>Matplotlib v3.4.2, https://matplotlib.org/</dc:title>
     </cc:Agent>
    </dc:creator>
   </cc:Work>
  </rdf:RDF>
 </metadata>
 <defs>
  <style type="text/css">*{stroke-linecap:butt;stroke-linejoin:round;}</style>
 </defs>
 <g id="figure_1">
  <g id="patch_1">
   <path d="M 0 345.6 
L 460.8 345.6 
L 460.8 0 
L 0 0 
z
" style="fill:#ffffff;"/>
  </g>
  <g id="axes_1">
   <g id="patch_2">
    <path d="M 62.208 293.76 
L 460.8 293.76 
L 460.8 3.456 
L 62.208 3.456 
z
" style="fill:#ffffff;"/>
   </g>
   <g id="line2d_1">
    <path clip-path="url(#p1ac9647ed4)" d="M 248.977745 293.76 
L 248.977745 289.927604 
L 252.943056 289.927604 
L 252.943056 286.095208 
L 254.186877 286.095208 
L 254.186877 282.262812 
L 255.669523 282.262812 
L 255.669523 278.430416 
L 255.851279 278.430416 
L 255.851279 274.59802 
L 256.212483 274.59802 
L 256.212483 270.765624 
L 261.132577 270.765624 
L 261.132577 266.933228 
L 263.318788 266.933228 
L 263.318788 263.100832 
L 266.259387 263.100832 
L 266.259387 259.268436 
L 270.57921 259.268436 
L 270.57921 255.43604 
L 271.781686 255.43604 
L 271.781686 251.603644 
L 279.050377 251.603644 
L 279.050377 247.771248 
L 287.387511 247.771248 
L 287.387511 243.938851 
L 293.240813 243.938851 
L 293.240813 240.106455 
L 294.099625 240.106455 
L 294.099625 236.274059 
L 294.905215 236.274059 
L 294.905215 232.441663 
L 295.731453 232.441663 
L 295.731453 228.609267 
L 296.050453 228.609267 
L 296.050453 224.776871 
L 299.148488 224.776871 
L 299.148488 220.944475 
L 300.154454 220.944475 
L 300.154454 217.112079 
L 314.755847 217.112079 
L 314.755847 213.279683 
L 315.85713 213.279683 
L 315.85713 209.447287 
L 317.211009 209.447287 
L 317.211009 205.614891 
L 320.078467 205.614891 
L 320.078467 201.782495 
L 330.350044 201.782495 
L 330.350044 197.950099 
L 334.913276 197.950099 
L 334.913276 194.117703 
L 338.398989 194.117703 
L 338.398989 190.285307 
L 351.189979 190.285307 
L 351.189979 186.452911 
L 351.189979 186.452911 
L 351.189979 186.452911 
L 460.8 186.452911 
" style="fill:none;stroke:#f5deb3;stroke-linecap:square;stroke-width:1.5;"/>
   </g>
   <g id="line2d_2">
    <path clip-path="url(#p1ac9647ed4)" d="M 332.234356 293.76 
L 332.234356 282.262812 
L 352.232736 282.262812 
L 352.232736 270.765624 
L 367.16371 270.765624 
L 367.16371 259.268436 
L 415.005976 259.268436 
L 415.005976 247.771248 
L 449.741776 247.771248 
L 449.741776 236.274059 
L 449.741776 236.274059 
L 449.741776 236.274059 
L 460.8 236.274059 
" style="fill:none;stroke:#f5deb3;stroke-linecap:square;stroke-width:1.5;"/>
   </g>
   <g id="line2d_3">
    <path clip-path="url(#p1ac9647ed4)" d="M 206.887967 293.76 
L 206.887967 289.927604 
L 212.003333 289.927604 
L 212.003333 286.095208 
L 252.257961 286.095208 
L 252.257961 282.262812 
L 253.903046 282.262812 
L 253.903046 278.430416 
L 256.391943 278.430416 
L 256.391943 274.59802 
L 263.622147 274.59802 
L 263.622147 270.765624 
L 267.999293 270.765624 
L 267.999293 266.933228 
L 271.781686 266.933228 
L 271.781686 263.100832 
L 274.967035 263.100832 
L 274.967035 259.268436 
L 275.485064 259.268436 
L 275.485064 255.43604 
L 280.294897 255.43604 
L 280.294897 251.603644 
L 282.679954 251.603644 
L 282.679954 247.771248 
L 289.703337 247.771248 
L 289.703337 243.938851 
L 291.743812 243.938851 
L 291.743812 240.106455 
L 299.214111 240.106455 
L 299.214111 236.274059 
L 308.14391 236.274059 
L 308.14391 232.441663 
L 317.76621 232.441663 
L 317.76621 228.609267 
L 329.665534 228.609267 
L 329.665534 224.776871 
L 330.381615 224.776871 
L 330.381615 220.944475 
L 332.640353 220.944475 
L 332.640353 217.112079 
L 336.881851 217.112079 
L 336.881851 213.279683 
L 341.536118 213.279683 
L 341.536118 209.447287 
L 342.520665 209.447287 
L 342.520665 205.614891 
L 356.993758 205.614891 
L 356.993758 201.782495 
L 360.722054 201.782495 
L 360.722054 197.950099 
L 393.46778 197.950099 
L 393.46778 194.117703 
L 396.069663 194.117703 
L 396.069663 190.285307 
L 396.696884 190.285307 
L 396.696884 186.452911 
L 408.255935 186.452911 
L 408.255935 182.620515 
L 426.321542 182.620515 
L 426.321542 178.788119 
L 426.321542 178.788119 
L 426.321542 178.788119 
L 460.8 178.788119 
" style="fill:none;stroke:#f5deb3;stroke-linecap:square;stroke-width:1.5;"/>
   </g>
   <g id="line2d_4">
    <path clip-path="url(#p1ac9647ed4)" d="M 239.864689 293.76 
L 239.864689 289.927604 
L 262.004867 289.927604 
L 262.004867 286.095208 
L 262.083288 286.095208 
L 262.083288 282.262812 
L 265.107377 282.262812 
L 265.107377 278.430416 
L 298.818852 278.430416 
L 298.818852 274.59802 
L 300.058134 274.59802 
L 300.058134 270.765624 
L 304.654727 270.765624 
L 304.654727 266.933228 
L 304.942324 266.933228 
L 304.942324 263.100832 
L 309.220341 263.100832 
L 309.220341 259.268436 
L 321.306502 259.268436 
L 321.306502 255.43604 
L 322.89698 255.43604 
L 322.89698 251.603644 
L 326.25932 251.603644 
L 326.25932 247.771248 
L 326.380824 247.771248 
L 326.380824 243.938851 
L 330.664713 243.938851 
L 330.664713 240.106455 
L 331.472144 240.106455 
L 331.472144 236.274059 
L 333.057341 236.274059 
L 333.057341 232.441663 
L 338.294267 232.441663 
L 338.294267 228.609267 
L 354.630585 228.609267 
L 354.630585 224.776871 
L 366.05764 224.776871 
L 366.05764 220.944475 
L 366.553524 220.944475 
L 366.553524 217.112079 
L 372.347736 217.112079 
L 372.347736 213.279683 
L 374.283851 213.279683 
L 374.283851 209.447287 
L 385.18019 209.447287 
L 385.18019 205.614891 
L 388.775922 205.614891 
L 388.775922 201.782495 
L 392.936514 201.782495 
L 392.936514 197.950099 
L 397.048365 197.950099 
L 397.048365 194.117703 
L 410.635535 194.117703 
L 410.635535 190.285307 
L 415.895861 190.285307 
L 415.895861 186.452911 
L 433.013789 186.452911 
L 433.013789 182.620515 
L 433.993708 182.620515 
L 433.993708 178.788119 
L 435.87782 178.788119 
L 435.87782 174.955723 
L 439.33124 174.955723 
L 439.33124 171.123327 
L 446.003977 171.123327 
L 446.003977 167.290931 
L 446.003977 167.290931 
L 446.003977 167.290931 
L 460.8 167.290931 
" style="fill:none;stroke:#f5deb3;stroke-linecap:square;stroke-width:1.5;"/>
   </g>
   <g id="line2d_5">
    <path clip-path="url(#p1ac9647ed4)" d="M 359.376861 293.76 
L 359.376861 289.927604 
L 359.376861 289.927604 
L 359.376861 289.927604 
L 460.8 289.927604 
" style="fill:none;stroke:#f5deb3;stroke-linecap:square;stroke-width:1.5;"/>
   </g>
   <g id="line2d_6"/>
   <g id="line2d_7">
    <path clip-path="url(#p1ac9647ed4)" d="M 265.687274 293.76 
L 265.687274 289.927604 
L 273.132921 289.927604 
L 273.132921 286.095208 
L 275.313086 286.095208 
L 275.313086 282.262812 
L 279.83245 282.262812 
L 279.83245 278.430416 
L 289.250129 278.430416 
L 289.250129 274.59802 
L 350.702979 274.59802 
L 350.702979 270.765624 
L 366.472404 270.765624 
L 366.472404 266.933228 
L 370.362725 266.933228 
L 370.362725 263.100832 
L 371.297356 263.100832 
L 371.297356 259.268436 
L 375.989943 259.268436 
L 375.989943 255.43604 
L 387.786182 255.43604 
L 387.786182 251.603644 
L 390.446807 251.603644 
L 390.446807 247.771248 
L 391.823842 247.771248 
L 391.823842 243.938851 
L 392.069501 243.938851 
L 392.069501 240.106455 
L 393.700598 240.106455 
L 393.700598 236.274059 
L 395.699759 236.274059 
L 395.699759 232.441663 
L 400.955166 232.441663 
L 400.955166 228.609267 
L 402.301572 228.609267 
L 402.301572 224.776871 
L 403.700074 224.776871 
L 403.700074 220.944475 
L 410.621127 220.944475 
L 410.621127 217.112079 
L 412.364587 217.112079 
L 412.364587 213.279683 
L 414.086046 213.279683 
L 414.086046 209.447287 
L 418.864886 209.447287 
L 418.864886 205.614891 
L 422.814747 205.614891 
L 422.814747 201.782495 
L 426.912283 201.782495 
L 426.912283 197.950099 
L 439.78919 197.950099 
L 439.78919 194.117703 
L 439.941557 194.117703 
L 439.941557 190.285307 
L 445.687639 190.285307 
L 445.687639 186.452911 
L 461.8 186.452911 
" style="fill:none;stroke:#f5deb3;stroke-linecap:square;stroke-width:1.5;"/>
   </g>
   <g id="line2d_8">
    <path clip-path="url(#p1ac9647ed4)" d="M 408.169533 293.76 
L 408.169533 289.927604 
L 415.610551 289.927604 
L 415.610551 286.095208 
L 418.68439 286.095208 
L 418.68439 282.262812 
L 421.352069 282.262812 
L 421.352069 278.430416 
L 422.033677 278.430416 
L 422.033677 274.59802 
L 423.066575 274.59802 
L 423.066575 270.765624 
L 427.60634 270.765624 
L 427.60634 266.933228 
L 454.1612 266.933228 
L 454.1612 263.100832 
L 454.363917 263.100832 
L 454.363917 259.268436 
L 454.385426 259.268436 
L 454.385426 255.43604 
L 455.422089 255.43604 
L 455.422089 251.603644 
L 456.349616 251.603644 
L 456.349616 247.771248 
L 457.11321 247.771248 
L 457.11321 243.938851 
L 461.8 243.938851 
" style="fill:none;stroke:#f5deb3;stroke-linecap:square;stroke-width:1.5;"/>
   </g>
   <g id="line2d_9">
    <path clip-path="url(#p1ac9647ed4)" d="M 255.578354 293.76 
L 255.578354 289.927604 
L 260.730102 289.927604 
L 260.730102 286.095208 
L 274.501219 286.095208 
L 274.501219 282.262812 
L 275.599332 282.262812 
L 275.599332 278.430416 
L 317.146479 278.430416 
L 317.146479 274.59802 
L 322.176167 274.59802 
L 322.176167 270.765624 
L 327.255763 270.765624 
L 327.255763 266.933228 
L 331.147905 266.933228 
L 331.147905 263.100832 
L 337.673775 263.100832 
L 337.673775 259.268436 
L 353.837096 259.268436 
L 353.837096 255.43604 
L 355.277792 255.43604 
L 355.277792 251.603644 
L 355.312973 251.603644 
L 355.312973 247.771248 
L 367.798092 247.771248 
L 367.798092 243.938851 
L 371.073206 243.938851 
L 371.073206 240.106455 
L 382.826036 240.106455 
L 382.826036 236.274059 
L 387.522728 236.274059 
L 387.522728 232.441663 
L 390.338718 232.441663 
L 390.338718 228.609267 
L 392.054653 228.609267 
L 392.054653 224.776871 
L 396.516707 224.776871 
L 396.516707 220.944475 
L 399.283751 220.944475 
L 399.283751 217.112079 
L 403.030959 217.112079 
L 403.030959 213.279683 
L 403.033828 213.279683 
L 403.033828 209.447287 
L 406.212319 209.447287 
L 406.212319 205.614891 
L 412.112558 205.614891 
L 412.112558 201.782495 
L 414.984302 201.782495 
L 414.984302 197.950099 
L 417.910156 197.950099 
L 417.910156 194.117703 
L 421.766408 194.117703 
L 421.766408 190.285307 
L 431.069959 190.285307 
L 431.069959 186.452911 
L 432.690188 186.452911 
L 432.690188 182.620515 
L 434.27452 182.620515 
L 434.27452 178.788119 
L 443.097842 178.788119 
L 443.097842 174.955723 
L 445.282764 174.955723 
L 445.282764 171.123327 
L 450.869084 171.123327 
L 450.869084 167.290931 
L 461.8 167.290931 
" style="fill:none;stroke:#f5deb3;stroke-linecap:square;stroke-width:1.5;"/>
   </g>
   <g id="line2d_10">
    <path clip-path="url(#p1ac9647ed4)" d="M 389.782376 293.76 
L 389.782376 289.927604 
L 408.273702 289.927604 
L 408.273702 286.095208 
L 413.337787 286.095208 
L 413.337787 282.262812 
L 417.278016 282.262812 
L 417.278016 278.430416 
L 429.747545 278.430416 
L 429.747545 274.59802 
L 432.403027 274.59802 
L 432.403027 270.765624 
L 433.817082 270.765624 
L 433.817082 266.933228 
L 434.882337 266.933228 
L 434.882337 263.100832 
L 438.801418 263.100832 
L 438.801418 259.268436 
L 461.8 259.268436 
" style="fill:none;stroke:#f5deb3;stroke-linecap:square;stroke-width:1.5;"/>
   </g>
   <g id="line2d_11">
    <path clip-path="url(#p1ac9647ed4)" d="M 328.757273 293.76 
L 328.757273 289.927604 
L 364.640488 289.927604 
L 364.640488 286.095208 
L 380.829877 286.095208 
L 380.829877 282.262812 
L 388.50643 282.262812 
L 388.50643 278.430416 
L 392.191802 278.430416 
L 392.191802 274.59802 
L 396.056145 274.59802 
L 396.056145 270.765624 
L 397.511453 270.765624 
L 397.511453 266.933228 
L 398.902902 266.933228 
L 398.902902 263.100832 
L 409.713317 263.100832 
L 409.713317 259.268436 
L 411.596942 259.268436 
L 411.596942 255.43604 
L 411.662615 255.43604 
L 411.662615 251.603644 
L 414.280445 251.603644 
L 414.280445 247.771248 
L 421.365137 247.771248 
L 421.365137 243.938851 
L 421.856914 243.938851 
L 421.856914 240.106455 
L 425.217351 240.106455 
L 425.217351 236.274059 
L 425.996292 236.274059 
L 425.996292 232.441663 
L 426.619586 232.441663 
L 426.619586 228.609267 
L 427.118265 228.609267 
L 427.118265 224.776871 
L 428.036251 224.776871 
L 428.036251 220.944475 
L 433.120168 220.944475 
L 433.120168 217.112079 
L 446.205582 217.112079 
L 446.205582 213.279683 
L 446.934018 213.279683 
L 446.934018 209.447287 
L 449.27597 209.447287 
L 449.27597 205.614891 
L 453.952301 205.614891 
L 453.952301 201.782495 
L 455.4523 201.782495 
L 455.4523 197.950099 
L 457.623282 197.950099 
L 457.623282 194.117703 
L 461.8 194.117703 
" style="fill:none;stroke:#f5deb3;stroke-linecap:square;stroke-width:1.5;"/>
   </g>
   <g id="line2d_12">
    <path clip-path="url(#p1ac9647ed4)" d="M 259.416032 293.76 
L 259.416032 289.927604 
L 263.24261 289.927604 
L 263.24261 286.095208 
L 265.034332 286.095208 
L 265.034332 282.262812 
L 280.65114 282.262812 
L 280.65114 278.430416 
L 280.95414 278.430416 
L 280.95414 274.59802 
L 297.303102 274.59802 
L 297.303102 270.765624 
L 299.508168 270.765624 
L 299.508168 266.933228 
L 301.043101 266.933228 
L 301.043101 263.100832 
L 301.975102 263.100832 
L 301.975102 259.268436 
L 307.338689 259.268436 
L 307.338689 255.43604 
L 314.778609 255.43604 
L 314.778609 251.603644 
L 317.038713 251.603644 
L 317.038713 247.771248 
L 318.689613 247.771248 
L 318.689613 243.938851 
L 320.756283 243.938851 
L 320.756283 240.106455 
L 320.874786 240.106455 
L 320.874786 236.274059 
L 321.11081 236.274059 
L 321.11081 232.441663 
L 323.178189 232.441663 
L 323.178189 228.609267 
L 327.946351 228.609267 
L 327.946351 224.776871 
L 337.030618 224.776871 
L 337.030618 220.944475 
L 346.376364 220.944475 
L 346.376364 217.112079 
L 356.053785 217.112079 
L 356.053785 213.279683 
L 360.992228 213.279683 
L 360.992228 209.447287 
L 365.166993 209.447287 
L 365.166993 205.614891 
L 368.000944 205.614891 
L 368.000944 201.782495 
L 381.486679 201.782495 
L 381.486679 197.950099 
L 387.344801 197.950099 
L 387.344801 194.117703 
L 393.967664 194.117703 
L 393.967664 190.285307 
L 394.727593 190.285307 
L 394.727593 186.452911 
L 408.149177 186.452911 
L 408.149177 182.620515 
L 408.695391 182.620515 
L 408.695391 178.788119 
L 408.695391 178.788119 
L 408.695391 178.788119 
L 460.8 178.788119 
" style="fill:none;stroke:#f5deb3;stroke-linecap:square;stroke-width:1.5;"/>
   </g>
   <g id="line2d_13">
    <path clip-path="url(#p1ac9647ed4)" d="M 328.937215 293.76 
L 328.937215 289.927604 
L 343.679795 289.927604 
L 343.679795 286.095208 
L 349.268505 286.095208 
L 349.268505 282.262812 
L 350.536123 282.262812 
L 350.536123 278.430416 
L 356.303616 278.430416 
L 356.303616 274.59802 
L 360.946034 274.59802 
L 360.946034 270.765624 
L 364.767444 270.765624 
L 364.767444 266.933228 
L 365.069204 266.933228 
L 365.069204 263.100832 
L 365.069204 263.100832 
L 365.069204 259.268436 
L 367.77841 259.268436 
L 367.77841 255.43604 
L 383.257211 255.43604 
L 383.257211 251.603644 
L 383.257211 251.603644 
L 383.257211 251.603644 
L 460.8 251.603644 
" style="fill:none;stroke:#f5deb3;stroke-linecap:square;stroke-width:1.5;"/>
   </g>
   <g id="line2d_14">
    <path clip-path="url(#p1ac9647ed4)" d="M 220.694432 293.76 
L 220.694432 289.927604 
L 232.696537 289.927604 
L 232.696537 286.095208 
L 296.472107 286.095208 
L 296.472107 282.262812 
L 337.165412 282.262812 
L 337.165412 278.430416 
L 347.118005 278.430416 
L 347.118005 274.59802 
L 352.138126 274.59802 
L 352.138126 270.765624 
L 353.480655 270.765624 
L 353.480655 266.933228 
L 361.595827 266.933228 
L 361.595827 263.100832 
L 362.570853 263.100832 
L 362.570853 259.268436 
L 367.850534 259.268436 
L 367.850534 255.43604 
L 370.798993 255.43604 
L 370.798993 251.603644 
L 371.387893 251.603644 
L 371.387893 247.771248 
L 371.718227 247.771248 
L 371.718227 243.938851 
L 373.904737 243.938851 
L 373.904737 240.106455 
L 377.164318 240.106455 
L 377.164318 236.274059 
L 381.381887 236.274059 
L 381.381887 232.441663 
L 385.454146 232.441663 
L 385.454146 228.609267 
L 405.942467 228.609267 
L 405.942467 224.776871 
L 406.546588 224.776871 
L 406.546588 220.944475 
L 408.057457 220.944475 
L 408.057457 217.112079 
L 409.028268 217.112079 
L 409.028268 213.279683 
L 420.689736 213.279683 
L 420.689736 209.447287 
L 424.638785 209.447287 
L 424.638785 205.614891 
L 429.512307 205.614891 
L 429.512307 201.782495 
L 432.289063 201.782495 
L 432.289063 197.950099 
L 435.986566 197.950099 
L 435.986566 194.117703 
L 447.338802 194.117703 
L 447.338802 190.285307 
L 447.338802 190.285307 
L 447.338802 190.285307 
L 460.8 190.285307 
" style="fill:none;stroke:#f5deb3;stroke-linecap:square;stroke-width:1.5;"/>
   </g>
   <g id="line2d_15">
    <path clip-path="url(#p1ac9647ed4)" style="fill:none;stroke:#f5deb3;stroke-linecap:square;stroke-width:1.5;"/>
   </g>
   <g id="line2d_16">
    <path clip-path="url(#p1ac9647ed4)" d="M 335.294649 293.76 
L 335.294649 289.927604 
L 422.167601 289.927604 
L 422.167601 286.095208 
L 450.2547 286.095208 
L 450.2547 282.262812 
L 451.217945 282.262812 
L 451.217945 278.430416 
L 459.88755 278.430416 
L 459.88755 274.59802 
L 461.8 274.59802 
" style="fill:none;stroke:#f5deb3;stroke-linecap:square;stroke-width:1.5;"/>
   </g>
   <g id="line2d_17">
    <path clip-path="url(#p1ac9647ed4)" d="M 345.466802 293.76 
L 345.466802 289.927604 
L 348.014228 289.927604 
L 348.014228 286.095208 
L 368.248292 286.095208 
L 368.248292 282.262812 
L 445.494161 282.262812 
L 445.494161 278.430416 
L 461.8 278.430416 
" style="fill:none;stroke:#f5deb3;stroke-linecap:square;stroke-width:1.5;"/>
   </g>
   <g id="line2d_18">
    <path clip-path="url(#p1ac9647ed4)" d="M 231.589415 293.76 
L 231.589415 289.927604 
L 251.761777 289.927604 
L 251.761777 286.095208 
L 260.160175 286.095208 
L 260.160175 282.262812 
L 261.926302 282.262812 
L 261.926302 278.430416 
L 262.317689 278.430416 
L 262.317689 274.59802 
L 275.313086 274.59802 
L 275.313086 270.765624 
L 283.303581 270.765624 
L 283.303581 266.933228 
L 284.846831 266.933228 
L 284.846831 263.100832 
L 287.946352 263.100832 
L 287.946352 259.268436 
L 292.287266 259.268436 
L 292.287266 255.43604 
L 301.511649 255.43604 
L 301.511649 251.603644 
L 302.463959 251.603644 
L 302.463959 247.771248 
L 304.277925 247.771248 
L 304.277925 243.938851 
L 304.913651 243.938851 
L 304.913651 240.106455 
L 317.382612 240.106455 
L 317.382612 236.274059 
L 319.266985 236.274059 
L 319.266985 232.441663 
L 319.715211 232.441663 
L 319.715211 228.609267 
L 320.238925 228.609267 
L 320.238925 224.776871 
L 321.306502 224.776871 
L 321.306502 220.944475 
L 333.762821 220.944475 
L 333.762821 217.112079 
L 334.542773 217.112079 
L 334.542773 213.279683 
L 340.702054 213.279683 
L 340.702054 209.447287 
L 343.910184 209.447287 
L 343.910184 205.614891 
L 351.025023 205.614891 
L 351.025023 201.782495 
L 361.996034 201.782495 
L 361.996034 197.950099 
L 366.064472 197.950099 
L 366.064472 194.117703 
L 369.564751 194.117703 
L 369.564751 190.285307 
L 374.474955 190.285307 
L 374.474955 186.452911 
L 391.864883 186.452911 
L 391.864883 182.620515 
L 398.677834 182.620515 
L 398.677834 178.788119 
L 398.677834 178.788119 
L 398.677834 178.788119 
L 460.8 178.788119 
" style="fill:none;stroke:#f5deb3;stroke-linecap:square;stroke-width:1.5;"/>
   </g>
   <g id="line2d_19">
    <path clip-path="url(#p1ac9647ed4)" d="M 387.745125 293.76 
L 387.745125 289.553712 
L 391.633039 289.553712 
L 391.633039 285.347423 
L 395.354115 285.347423 
L 395.354115 281.141135 
L 399.967604 281.141135 
L 399.967604 276.934847 
L 401.096542 276.934847 
L 401.096542 272.728558 
L 401.449433 272.728558 
L 401.449433 268.52227 
L 404.922577 268.52227 
L 404.922577 264.315982 
L 405.084236 264.315982 
L 405.084236 260.109693 
L 405.872723 260.109693 
L 405.872723 255.903405 
L 407.624225 255.903405 
L 407.624225 251.697117 
L 409.828468 251.697117 
L 409.828468 247.490828 
L 410.58028 247.490828 
L 410.58028 243.28454 
L 410.764982 243.28454 
L 410.764982 239.078252 
L 411.222082 239.078252 
L 411.222082 234.871963 
L 413.484002 234.871963 
L 413.484002 230.665675 
L 420.905371 230.665675 
L 420.905371 226.459387 
L 422.532375 226.459387 
L 422.532375 222.253098 
L 428.580221 222.253098 
L 428.580221 218.04681 
L 432.921379 218.04681 
L 432.921379 213.840522 
L 434.278656 213.840522 
L 434.278656 209.634233 
L 435.092501 209.634233 
L 435.092501 205.427945 
L 435.493669 205.427945 
L 435.496349 197.015368 
L 438.401562 197.015368 
L 438.482833 188.602792 
L 440.022357 188.602792 
L 440.022357 184.396503 
L 443.293558 184.396503 
L 443.293558 180.190215 
L 446.641042 180.190215 
L 446.641042 175.983927 
L 448.033311 175.983927 
L 448.033311 171.777638 
L 448.213635 171.777638 
L 448.213635 167.57135 
L 458.49523 167.57135 
L 458.49523 163.365062 
L 460.302069 163.365062 
L 460.336493 154.952485 
L 461.741847 154.952485 
L 461.741847 150.746197 
L 461.8 150.746197 
" style="fill:none;stroke:#f5deb3;stroke-linecap:square;stroke-width:1.5;"/>
   </g>
   <g id="line2d_20">
    <path clip-path="url(#p1ac9647ed4)" d="M 226.489102 293.76 
L 226.489102 289.927604 
L 226.489102 289.927604 
L 226.489102 286.095208 
L 230.943619 286.095208 
L 230.943619 282.262812 
L 233.316501 282.262812 
L 233.316501 278.430416 
L 247.348689 278.430416 
L 247.348689 274.59802 
L 266.823922 274.59802 
L 266.823922 270.765624 
L 271.719236 270.765624 
L 271.719236 266.933228 
L 279.207944 266.933228 
L 279.207944 263.100832 
L 288.413561 263.100832 
L 288.413561 259.268436 
L 298.918011 259.268436 
L 298.918011 255.43604 
L 300.346445 255.43604 
L 300.346445 251.603644 
L 302.554999 251.603644 
L 302.554999 247.771248 
L 304.277925 247.771248 
L 304.277925 243.938851 
L 307.930667 243.938851 
L 307.930667 240.106455 
L 308.037422 240.106455 
L 308.037422 236.274059 
L 315.231314 236.274059 
L 315.231314 232.441663 
L 318.627286 232.441663 
L 318.627286 228.609267 
L 319.389697 228.609267 
L 319.389697 224.776871 
L 320.158772 224.776871 
L 320.158772 220.944475 
L 321.247889 220.944475 
L 321.247889 217.112079 
L 324.665466 217.112079 
L 324.665466 213.279683 
L 328.658801 213.279683 
L 328.658801 209.447287 
L 335.378938 209.447287 
L 335.378938 205.614891 
L 335.39297 205.614891 
L 335.39297 201.782495 
L 337.125018 201.782495 
L 337.125018 197.950099 
L 348.912431 197.950099 
L 348.912431 194.117703 
L 350.140926 194.117703 
L 350.140926 190.285307 
L 351.776681 190.285307 
L 351.776681 186.452911 
L 372.793427 186.452911 
L 372.793427 182.620515 
L 374.626106 182.620515 
L 374.626106 178.788119 
L 461.8 178.788119 
" style="fill:none;stroke:#f5deb3;stroke-linecap:square;stroke-width:1.5;"/>
   </g>
   <g id="line2d_21">
    <path clip-path="url(#p1ac9647ed4)" d="M 412.357671 293.76 
L 412.357671 289.927604 
L 434.690252 289.927604 
L 434.690252 286.095208 
L 442.182355 286.095208 
L 442.182355 282.262812 
L 442.182355 282.262812 
L 442.182355 282.262812 
L 460.8 282.262812 
" style="fill:none;stroke:#f5deb3;stroke-linecap:square;stroke-width:1.5;"/>
   </g>
   <g id="line2d_22">
    <path clip-path="url(#p1ac9647ed4)" d="M 210.715568 293.76 
L 210.715568 289.927604 
L 217.248372 289.927604 
L 217.248372 286.095208 
L 225.760507 286.095208 
L 225.760507 282.262812 
L 226.848782 282.262812 
L 226.848782 278.430416 
L 233.316501 278.430416 
L 233.316501 274.59802 
L 236.858061 274.59802 
L 236.858061 270.765624 
L 290.434711 270.765624 
L 290.434711 266.933228 
L 317.211009 266.933228 
L 317.211009 263.100832 
L 319.389697 263.100832 
L 319.389697 259.268436 
L 323.420412 259.268436 
L 323.420412 255.43604 
L 325.96279 255.43604 
L 325.96279 251.603644 
L 333.98091 251.603644 
L 333.98091 247.771248 
L 337.633861 247.771248 
L 337.633861 243.938851 
L 345.874669 243.938851 
L 345.874669 240.106455 
L 350.555787 240.106455 
L 350.555787 236.274059 
L 355.567171 236.274059 
L 355.567171 232.441663 
L 376.661166 232.441663 
L 376.661166 228.609267 
L 377.279996 228.609267 
L 377.279996 224.776871 
L 380.825045 224.776871 
L 380.825045 220.944475 
L 382.217773 220.944475 
L 382.217773 217.112079 
L 385.609906 217.112079 
L 385.609906 213.279683 
L 395.535842 213.279683 
L 395.535842 209.447287 
L 406.31075 209.447287 
L 406.31075 205.614891 
L 413.231748 205.614891 
L 413.231748 201.782495 
L 414.132517 201.782495 
L 414.132517 197.950099 
L 414.925728 197.950099 
L 414.925728 194.117703 
L 429.683099 194.117703 
L 429.683099 190.285307 
L 440.863403 190.285307 
L 440.863403 186.452911 
L 447.911334 186.452911 
L 447.911334 182.620515 
L 458.704824 182.620515 
L 458.704824 178.788119 
L 461.8 178.788119 
" style="fill:none;stroke:#f5deb3;stroke-linecap:square;stroke-width:1.5;"/>
   </g>
   <g id="line2d_23">
    <path clip-path="url(#p1ac9647ed4)" d="M 337.806553 293.76 
L 337.806553 289.927604 
L 344.492099 289.927604 
L 344.492099 286.095208 
L 347.552654 286.095208 
L 347.552654 282.262812 
L 348.377853 282.262812 
L 348.377853 278.430416 
L 349.941944 278.430416 
L 349.941944 274.59802 
L 353.06564 274.59802 
L 353.06564 270.765624 
L 369.115597 270.765624 
L 369.115597 266.933228 
L 373.234506 266.933228 
L 373.234506 263.100832 
L 373.470575 263.100832 
L 373.470575 259.268436 
L 375.214385 259.268436 
L 375.214385 255.43604 
L 383.101757 255.43604 
L 383.101757 251.603644 
L 386.099422 251.603644 
L 386.099422 247.771248 
L 392.816334 247.771248 
L 392.816334 243.938851 
L 399.555497 243.938851 
L 399.555497 240.106455 
L 402.330755 240.106455 
L 402.330755 236.274059 
L 407.590716 236.274059 
L 407.590716 232.441663 
L 421.753463 232.441663 
L 421.753463 228.609267 
L 421.792287 228.609267 
L 421.792287 224.776871 
L 424.714772 224.776871 
L 424.714772 220.944475 
L 429.880731 220.944475 
L 429.880731 217.112079 
L 447.642154 217.112079 
L 447.642154 213.279683 
L 447.642154 213.279683 
L 447.642154 213.279683 
L 460.8 213.279683 
" style="fill:none;stroke:#f5deb3;stroke-linecap:square;stroke-width:1.5;"/>
   </g>
   <g id="line2d_24">
    <path clip-path="url(#p1ac9647ed4)" d="M 292.441274 293.76 
L 292.441274 289.927604 
L 293.87725 289.927604 
L 293.87725 286.095208 
L 300.664519 286.095208 
L 300.664519 282.262812 
L 301.821177 282.262812 
L 301.821177 278.430416 
L 308.303145 278.430416 
L 308.303145 274.59802 
L 309.272161 274.59802 
L 309.272161 270.765624 
L 318.999892 270.765624 
L 318.999892 266.933228 
L 344.480765 266.933228 
L 344.480765 263.100832 
L 372.594615 263.100832 
L 372.594615 259.268436 
L 373.573803 259.268436 
L 373.573803 255.43604 
L 375.026575 255.43604 
L 375.026575 251.603644 
L 376.468936 251.603644 
L 376.468936 247.771248 
L 378.394252 247.771248 
L 378.394252 243.938851 
L 379.300217 243.938851 
L 379.300217 240.106455 
L 379.544898 240.106455 
L 379.544898 236.274059 
L 382.357838 236.274059 
L 382.357838 232.441663 
L 391.745379 232.441663 
L 391.745379 228.609267 
L 392.516231 228.609267 
L 392.516231 224.776871 
L 393.693453 224.776871 
L 393.693453 220.944475 
L 403.894559 220.944475 
L 403.894559 217.112079 
L 409.74765 217.112079 
L 409.74765 213.279683 
L 410.93697 213.279683 
L 410.93697 209.447287 
L 412.304605 209.447287 
L 412.304605 205.614891 
L 412.493493 205.614891 
L 412.493493 201.782495 
L 415.222112 201.782495 
L 415.222112 197.950099 
L 422.143782 197.950099 
L 422.143782 194.117703 
L 423.968056 194.117703 
L 423.968056 190.285307 
L 424.650883 190.285307 
L 424.650883 186.452911 
L 430.93597 186.452911 
L 430.93597 182.620515 
L 434.889133 182.620515 
L 434.889133 178.788119 
L 436.764834 178.788119 
L 436.764834 174.955723 
L 441.425513 174.955723 
L 441.425513 171.123327 
L 443.125857 171.123327 
L 443.125857 167.290931 
L 447.907329 167.290931 
L 447.907329 163.458535 
L 454.466202 163.458535 
L 454.466202 159.626139 
L 456.012331 159.626139 
L 456.012331 155.793743 
L 461.672306 155.793743 
L 461.672306 151.961347 
L 461.8 151.961347 
" style="fill:none;stroke:#f5deb3;stroke-linecap:square;stroke-width:1.5;"/>
   </g>
   <g id="line2d_25">
    <path clip-path="url(#p1ac9647ed4)" d="M 433.415218 293.76 
L 433.415218 289.927604 
L 436.319035 289.927604 
L 436.319035 286.095208 
L 440.595594 286.095208 
L 440.595594 282.262812 
L 441.711341 282.262812 
L 441.711341 278.430416 
L 441.746067 278.430416 
L 441.746067 274.59802 
L 442.653885 274.59802 
L 442.653885 270.765624 
L 442.825706 270.765624 
L 442.825706 266.933228 
L 443.481714 266.933228 
L 443.481714 263.100832 
L 444.688671 263.100832 
L 444.688671 259.268436 
L 445.958929 259.268436 
L 445.958929 255.43604 
L 446.446672 255.43604 
L 446.446672 251.603644 
L 446.51294 251.603644 
L 446.51294 247.771248 
L 446.573939 247.771248 
L 446.573939 243.938851 
L 446.645168 243.938851 
L 446.645168 240.106455 
L 447.060863 240.106455 
L 447.060863 236.274059 
L 447.632077 236.274059 
L 447.632077 232.441663 
L 447.909332 232.441663 
L 447.909332 228.609267 
L 448.575955 228.609267 
L 448.575955 224.776871 
L 449.746572 224.776871 
L 449.746572 220.944475 
L 450.17692 220.944475 
L 450.17692 217.112079 
L 451.494072 217.112079 
L 451.494072 213.279683 
L 451.601637 213.279683 
L 451.601637 209.447287 
L 453.613816 209.447287 
L 453.613816 205.614891 
L 453.828734 205.614891 
L 453.828734 201.782495 
L 461.8 201.782495 
" style="fill:none;stroke:#f5deb3;stroke-linecap:square;stroke-width:1.5;"/>
   </g>
   <g id="line2d_26">
    <path clip-path="url(#p1ac9647ed4)" d="M 309.220341 293.76 
L 309.220341 289.927604 
L 310.773172 289.927604 
L 310.773172 286.095208 
L 311.146504 286.095208 
L 311.146504 282.262812 
L 311.639246 282.262812 
L 311.639246 278.430416 
L 311.834759 278.430416 
L 311.834759 274.59802 
L 312.941881 274.59802 
L 312.941881 270.765624 
L 313.742092 270.765624 
L 313.742092 266.933228 
L 314.020971 266.933228 
L 314.020971 263.100832 
L 317.446785 263.100832 
L 317.446785 259.268436 
L 327.560327 259.268436 
L 327.560327 255.43604 
L 328.543629 255.43604 
L 328.543629 251.603644 
L 329.745695 251.603644 
L 329.745695 247.771248 
L 330.191834 247.771248 
L 330.191834 243.938851 
L 333.367426 243.938851 
L 333.367426 240.106455 
L 341.790432 240.106455 
L 341.790432 236.274059 
L 342.579969 236.274059 
L 342.579969 232.441663 
L 342.603667 232.441663 
L 342.603667 228.609267 
L 343.20357 228.609267 
L 343.20357 224.776871 
L 345.054994 224.776871 
L 345.054994 220.944475 
L 345.333678 220.944475 
L 345.333678 217.112079 
L 346.322117 217.112079 
L 346.322117 213.279683 
L 358.275838 213.279683 
L 358.275838 209.447287 
L 361.168843 209.447287 
L 361.168843 205.614891 
L 361.275991 205.614891 
L 361.275991 201.782495 
L 362.288145 201.782495 
L 362.288145 197.950099 
L 363.978458 197.950099 
L 363.978458 194.117703 
L 369.740589 194.117703 
L 369.740589 190.285307 
L 369.959371 190.285307 
L 369.959371 186.452911 
L 373.499274 186.452911 
L 373.499274 182.620515 
L 374.592563 182.620515 
L 374.592563 178.788119 
L 385.267351 178.788119 
L 385.267351 174.955723 
L 386.55382 174.955723 
L 386.55382 171.123327 
L 390.803862 171.123327 
L 390.803862 167.290931 
L 393.747009 167.290931 
L 393.747009 163.458535 
L 414.063899 163.458535 
L 414.063899 159.626139 
L 416.444058 159.626139 
L 416.444058 155.793743 
L 444.798676 155.793743 
L 444.798676 151.961347 
L 445.18361 151.961347 
L 445.18361 148.12895 
L 461.8 148.12895 
" style="fill:none;stroke:#f5deb3;stroke-linecap:square;stroke-width:1.5;"/>
   </g>
   <g id="line2d_27">
    <path clip-path="url(#p1ac9647ed4)" d="M 250.443995 293.76 
L 250.443995 289.927604 
L 260.48678 289.927604 
L 260.48678 286.095208 
L 298.851931 286.095208 
L 298.851931 282.262812 
L 312.98937 282.262812 
L 312.98937 278.430416 
L 339.54699 278.430416 
L 339.54699 274.59802 
L 356.423701 274.59802 
L 356.423701 270.765624 
L 362.101125 270.765624 
L 362.101125 266.933228 
L 363.16728 266.933228 
L 363.16728 263.100832 
L 363.610996 263.100832 
L 363.610996 259.268436 
L 372.857551 259.268436 
L 372.857551 255.43604 
L 375.762019 255.43604 
L 375.762019 251.603644 
L 375.7729 251.603644 
L 375.7729 247.771248 
L 378.998682 247.771248 
L 378.998682 243.938851 
L 382.423045 243.938851 
L 382.423045 240.106455 
L 385.162736 240.106455 
L 385.162736 236.274059 
L 388.162067 236.274059 
L 388.162067 232.441663 
L 388.287981 232.441663 
L 388.287981 228.609267 
L 389.981626 228.609267 
L 389.981626 224.776871 
L 393.800498 224.776871 
L 393.800498 220.944475 
L 398.588746 220.944475 
L 398.588746 217.112079 
L 404.205577 217.112079 
L 404.205577 213.279683 
L 407.96554 213.279683 
L 407.96554 209.447287 
L 408.400395 209.447287 
L 408.400395 205.614891 
L 421.642344 205.614891 
L 421.642344 201.782495 
L 422.125451 201.782495 
L 422.125451 197.950099 
L 423.389963 197.950099 
L 423.389963 194.117703 
L 426.411175 194.117703 
L 426.411175 190.285307 
L 429.073742 190.285307 
L 429.073742 186.452911 
L 430.247513 186.452911 
L 430.247513 182.620515 
L 435.606071 182.620515 
L 435.606071 178.788119 
L 461.8 178.788119 
" style="fill:none;stroke:#f5deb3;stroke-linecap:square;stroke-width:1.5;"/>
   </g>
   <g id="line2d_28">
    <path clip-path="url(#p1ac9647ed4)" d="M 267.862684 293.76 
L 267.862684 289.927604 
L 268.541389 289.927604 
L 268.541389 286.095208 
L 277.441817 286.095208 
L 277.441817 282.262812 
L 287.603318 282.262812 
L 287.603318 278.430416 
L 308.197054 278.430416 
L 308.197054 274.59802 
L 333.893808 274.59802 
L 333.893808 270.765624 
L 349.197528 270.765624 
L 349.197528 266.933228 
L 374.035261 266.933228 
L 374.035261 263.100832 
L 376.533109 263.100832 
L 376.533109 259.268436 
L 378.720389 259.268436 
L 378.720389 255.43604 
L 378.755909 255.43604 
L 378.755909 251.603644 
L 380.718612 251.603644 
L 380.718612 247.771248 
L 381.123572 247.771248 
L 381.123572 243.938851 
L 383.832914 243.938851 
L 383.832914 240.106455 
L 389.294005 240.106455 
L 389.294005 236.274059 
L 390.780916 236.274059 
L 390.780916 232.441663 
L 409.33877 232.441663 
L 409.33877 228.609267 
L 410.621127 228.609267 
L 410.621127 224.776871 
L 411.262319 224.776871 
L 411.262319 220.944475 
L 411.6251 220.944475 
L 411.6251 217.112079 
L 412.350753 217.112079 
L 412.350753 213.279683 
L 413.490739 213.279683 
L 413.490739 209.447287 
L 414.640383 209.447287 
L 414.640383 205.614891 
L 415.18113 205.614891 
L 415.18113 201.782495 
L 415.881004 201.782495 
L 415.881004 197.950099 
L 420.907258 197.950099 
L 420.907258 194.117703 
L 421.001487 194.117703 
L 421.001487 190.285307 
L 425.6989 190.285307 
L 425.6989 186.452911 
L 426.872936 186.452911 
L 426.872936 182.620515 
L 427.023572 182.620515 
L 427.023572 178.788119 
L 430.841927 178.788119 
L 430.841927 174.955723 
L 431.147183 174.955723 
L 431.147183 171.123327 
L 444.578381 171.123327 
L 444.578381 167.290931 
L 448.962581 167.290931 
L 448.962581 163.458535 
L 452.676939 163.458535 
L 452.676939 159.626139 
L 454.722981 159.626139 
L 454.722981 155.793743 
L 455.536942 155.793743 
L 455.536942 151.961347 
L 458.354404 151.961347 
L 458.354404 148.12895 
L 461.8 148.12895 
" style="fill:none;stroke:#f5deb3;stroke-linecap:square;stroke-width:1.5;"/>
   </g>
   <g id="line2d_29">
    <path clip-path="url(#p1ac9647ed4)" d="M 263.54651 293.76 
L 263.54651 289.927604 
L 263.54651 289.927604 
L 263.54651 286.095208 
L 263.54651 286.095208 
L 263.54651 282.262812 
L 293.428989 282.262812 
L 293.428989 278.430416 
L 293.428989 278.430416 
L 293.428989 274.59802 
L 293.428989 274.59802 
L 293.428989 270.765624 
L 299.703085 270.765624 
L 299.703085 266.933228 
L 299.703085 266.933228 
L 299.703085 263.100832 
L 299.703085 263.100832 
L 299.703085 259.268436 
L 337.084586 259.268436 
L 337.084586 255.43604 
L 337.084586 255.43604 
L 337.084586 251.603644 
L 337.084586 251.603644 
L 337.084586 247.771248 
L 377.640778 247.771248 
L 377.640778 243.938851 
L 377.640778 243.938851 
L 377.640778 240.106455 
L 377.640778 240.106455 
L 377.640778 236.274059 
L 393.85392 236.274059 
L 393.85392 232.441663 
L 393.85392 232.441663 
L 393.85392 228.609267 
L 393.85392 228.609267 
L 393.85392 224.776871 
L 402.336589 224.776871 
L 402.336589 220.944475 
L 402.336589 220.944475 
L 402.336589 217.112079 
L 402.336589 217.112079 
L 402.336589 213.279683 
L 405.045932 213.279683 
L 405.045932 209.447287 
L 405.942467 209.447287 
L 405.942467 205.614891 
L 417.558538 205.614891 
L 417.558538 201.782495 
L 418.722139 201.782495 
L 418.722139 197.950099 
L 418.999264 197.950099 
L 418.999264 194.117703 
L 427.852305 194.117703 
L 427.852305 190.285307 
L 431.023855 190.285307 
L 431.023855 186.452911 
L 435.081679 186.452911 
L 435.081679 182.620515 
L 451.009902 182.620515 
L 451.009902 178.788119 
L 451.009902 178.788119 
L 451.009902 178.788119 
L 460.8 178.788119 
" style="fill:none;stroke:#f5deb3;stroke-linecap:square;stroke-width:1.5;"/>
   </g>
   <g id="line2d_30">
    <path clip-path="url(#p1ac9647ed4)" d="M 368.235309 293.76 
L 368.235309 289.927604 
L 370.896693 289.927604 
L 370.896693 286.095208 
L 415.810893 286.095208 
L 415.810893 282.262812 
L 428.262294 282.262812 
L 428.262294 278.430416 
L 445.755097 278.430416 
L 445.755097 274.59802 
L 451.855222 274.59802 
L 451.855222 270.765624 
L 453.179817 270.765624 
L 453.179817 266.933228 
L 453.524385 266.933228 
L 453.524385 263.100832 
L 453.875767 263.100832 
L 453.875767 259.268436 
L 454.243265 259.268436 
L 454.243265 255.43604 
L 454.243265 255.43604 
L 454.243265 255.43604 
L 460.8 255.43604 
" style="fill:none;stroke:#f5deb3;stroke-linecap:square;stroke-width:1.5;"/>
   </g>
   <g id="matplotlib.axis_1">
    <g id="xtick_1">
     <g id="line2d_31">
      <path clip-path="url(#p1ac9647ed4)" d="M 62.208 293.76 
L 62.208 3.456 
" style="fill:none;stroke:#b0b0b0;stroke-linecap:square;stroke-width:0.8;"/>
     </g>
     <g id="line2d_32">
      <defs>
       <path d="M 0 0 
L 0 3.5 
" id="m9b0fc1a88b" style="stroke:#000000;stroke-width:0.8;"/>
      </defs>
      <g>
       <use style="stroke:#000000;stroke-width:0.8;" x="62.208" xlink:href="#m9b0fc1a88b" y="293.76"/>
      </g>
     </g>
     <g id="text_1">
      <!-- 0 -->
      <g transform="translate(55.8455 315.956875)scale(0.2 -0.2)">
       <defs>
        <path d="M 2034 4250 
Q 1547 4250 1301 3770 
Q 1056 3291 1056 2328 
Q 1056 1369 1301 889 
Q 1547 409 2034 409 
Q 2525 409 2770 889 
Q 3016 1369 3016 2328 
Q 3016 3291 2770 3770 
Q 2525 4250 2034 4250 
z
M 2034 4750 
Q 2819 4750 3233 4129 
Q 3647 3509 3647 2328 
Q 3647 1150 3233 529 
Q 2819 -91 2034 -91 
Q 1250 -91 836 529 
Q 422 1150 422 2328 
Q 422 3509 836 4129 
Q 1250 4750 2034 4750 
z
" id="DejaVuSans-30" transform="scale(0.015625)"/>
       </defs>
       <use xlink:href="#DejaVuSans-30"/>
      </g>
     </g>
    </g>
    <g id="xtick_2">
     <g id="line2d_33">
      <path clip-path="url(#p1ac9647ed4)" d="M 258.488519 293.76 
L 258.488519 3.456 
" style="fill:none;stroke:#b0b0b0;stroke-linecap:square;stroke-width:0.8;"/>
     </g>
     <g id="line2d_34">
      <g>
       <use style="stroke:#000000;stroke-width:0.8;" x="258.488519" xlink:href="#m9b0fc1a88b" y="293.76"/>
      </g>
     </g>
     <g id="text_2">
      <!-- 2 -->
      <g transform="translate(252.126019 315.956875)scale(0.2 -0.2)">
       <defs>
        <path d="M 1228 531 
L 3431 531 
L 3431 0 
L 469 0 
L 469 531 
Q 828 903 1448 1529 
Q 2069 2156 2228 2338 
Q 2531 2678 2651 2914 
Q 2772 3150 2772 3378 
Q 2772 3750 2511 3984 
Q 2250 4219 1831 4219 
Q 1534 4219 1204 4116 
Q 875 4013 500 3803 
L 500 4441 
Q 881 4594 1212 4672 
Q 1544 4750 1819 4750 
Q 2544 4750 2975 4387 
Q 3406 4025 3406 3419 
Q 3406 3131 3298 2873 
Q 3191 2616 2906 2266 
Q 2828 2175 2409 1742 
Q 1991 1309 1228 531 
z
" id="DejaVuSans-32" transform="scale(0.015625)"/>
       </defs>
       <use xlink:href="#DejaVuSans-32"/>
      </g>
     </g>
    </g>
    <g id="xtick_3">
     <g id="line2d_35">
      <path clip-path="url(#p1ac9647ed4)" d="M 454.769038 293.76 
L 454.769038 3.456 
" style="fill:none;stroke:#b0b0b0;stroke-linecap:square;stroke-width:0.8;"/>
     </g>
     <g id="line2d_36">
      <g>
       <use style="stroke:#000000;stroke-width:0.8;" x="454.769038" xlink:href="#m9b0fc1a88b" y="293.76"/>
      </g>
     </g>
     <g id="text_3">
      <!-- 4 -->
      <g transform="translate(448.406538 315.956875)scale(0.2 -0.2)">
       <defs>
        <path d="M 2419 4116 
L 825 1625 
L 2419 1625 
L 2419 4116 
z
M 2253 4666 
L 3047 4666 
L 3047 1625 
L 3713 1625 
L 3713 1100 
L 3047 1100 
L 3047 0 
L 2419 0 
L 2419 1100 
L 313 1100 
L 313 1709 
L 2253 4666 
z
" id="DejaVuSans-34" transform="scale(0.015625)"/>
       </defs>
       <use xlink:href="#DejaVuSans-34"/>
      </g>
     </g>
    </g>
    <g id="xtick_4">
     <g id="line2d_37">
      <path clip-path="url(#p1ac9647ed4)" d="M 91.751162 293.76 
L 91.751162 3.456 
" style="fill:none;stroke:#b0b0b0;stroke-linecap:square;stroke-width:0.8;"/>
     </g>
     <g id="line2d_38">
      <defs>
       <path d="M 0 0 
L 0 2 
" id="m85ff0d4c9f" style="stroke:#000000;stroke-width:0.6;"/>
      </defs>
      <g>
       <use style="stroke:#000000;stroke-width:0.6;" x="91.751162" xlink:href="#m85ff0d4c9f" y="293.76"/>
      </g>
     </g>
    </g>
    <g id="xtick_5">
     <g id="line2d_39">
      <path clip-path="url(#p1ac9647ed4)" d="M 109.032804 293.76 
L 109.032804 3.456 
" style="fill:none;stroke:#b0b0b0;stroke-linecap:square;stroke-width:0.8;"/>
     </g>
     <g id="line2d_40">
      <g>
       <use style="stroke:#000000;stroke-width:0.6;" x="109.032804" xlink:href="#m85ff0d4c9f" y="293.76"/>
      </g>
     </g>
    </g>
    <g id="xtick_6">
     <g id="line2d_41">
      <path clip-path="url(#p1ac9647ed4)" d="M 121.294324 293.76 
L 121.294324 3.456 
" style="fill:none;stroke:#b0b0b0;stroke-linecap:square;stroke-width:0.8;"/>
     </g>
     <g id="line2d_42">
      <g>
       <use style="stroke:#000000;stroke-width:0.6;" x="121.294324" xlink:href="#m85ff0d4c9f" y="293.76"/>
      </g>
     </g>
    </g>
    <g id="xtick_7">
     <g id="line2d_43">
      <path clip-path="url(#p1ac9647ed4)" d="M 130.805098 293.76 
L 130.805098 3.456 
" style="fill:none;stroke:#b0b0b0;stroke-linecap:square;stroke-width:0.8;"/>
     </g>
     <g id="line2d_44">
      <g>
       <use style="stroke:#000000;stroke-width:0.6;" x="130.805098" xlink:href="#m85ff0d4c9f" y="293.76"/>
      </g>
     </g>
    </g>
    <g id="xtick_8">
     <g id="line2d_45">
      <path clip-path="url(#p1ac9647ed4)" d="M 138.575966 293.76 
L 138.575966 3.456 
" style="fill:none;stroke:#b0b0b0;stroke-linecap:square;stroke-width:0.8;"/>
     </g>
     <g id="line2d_46">
      <g>
       <use style="stroke:#000000;stroke-width:0.6;" x="138.575966" xlink:href="#m85ff0d4c9f" y="293.76"/>
      </g>
     </g>
    </g>
    <g id="xtick_9">
     <g id="line2d_47">
      <path clip-path="url(#p1ac9647ed4)" d="M 145.146141 293.76 
L 145.146141 3.456 
" style="fill:none;stroke:#b0b0b0;stroke-linecap:square;stroke-width:0.8;"/>
     </g>
     <g id="line2d_48">
      <g>
       <use style="stroke:#000000;stroke-width:0.6;" x="145.146141" xlink:href="#m85ff0d4c9f" y="293.76"/>
      </g>
     </g>
    </g>
    <g id="xtick_10">
     <g id="line2d_49">
      <path clip-path="url(#p1ac9647ed4)" d="M 150.837486 293.76 
L 150.837486 3.456 
" style="fill:none;stroke:#b0b0b0;stroke-linecap:square;stroke-width:0.8;"/>
     </g>
     <g id="line2d_50">
      <g>
       <use style="stroke:#000000;stroke-width:0.6;" x="150.837486" xlink:href="#m85ff0d4c9f" y="293.76"/>
      </g>
     </g>
    </g>
    <g id="xtick_11">
     <g id="line2d_51">
      <path clip-path="url(#p1ac9647ed4)" d="M 155.857607 293.76 
L 155.857607 3.456 
" style="fill:none;stroke:#b0b0b0;stroke-linecap:square;stroke-width:0.8;"/>
     </g>
     <g id="line2d_52">
      <g>
       <use style="stroke:#000000;stroke-width:0.6;" x="155.857607" xlink:href="#m85ff0d4c9f" y="293.76"/>
      </g>
     </g>
    </g>
    <g id="xtick_12">
     <g id="line2d_53">
      <path clip-path="url(#p1ac9647ed4)" d="M 189.891421 293.76 
L 189.891421 3.456 
" style="fill:none;stroke:#b0b0b0;stroke-linecap:square;stroke-width:0.8;"/>
     </g>
     <g id="line2d_54">
      <g>
       <use style="stroke:#000000;stroke-width:0.6;" x="189.891421" xlink:href="#m85ff0d4c9f" y="293.76"/>
      </g>
     </g>
    </g>
    <g id="xtick_13">
     <g id="line2d_55">
      <path clip-path="url(#p1ac9647ed4)" d="M 207.173063 293.76 
L 207.173063 3.456 
" style="fill:none;stroke:#b0b0b0;stroke-linecap:square;stroke-width:0.8;"/>
     </g>
     <g id="line2d_56">
      <g>
       <use style="stroke:#000000;stroke-width:0.6;" x="207.173063" xlink:href="#m85ff0d4c9f" y="293.76"/>
      </g>
     </g>
    </g>
    <g id="xtick_14">
     <g id="line2d_57">
      <path clip-path="url(#p1ac9647ed4)" d="M 219.434583 293.76 
L 219.434583 3.456 
" style="fill:none;stroke:#b0b0b0;stroke-linecap:square;stroke-width:0.8;"/>
     </g>
     <g id="line2d_58">
      <g>
       <use style="stroke:#000000;stroke-width:0.6;" x="219.434583" xlink:href="#m85ff0d4c9f" y="293.76"/>
      </g>
     </g>
    </g>
    <g id="xtick_15">
     <g id="line2d_59">
      <path clip-path="url(#p1ac9647ed4)" d="M 228.945357 293.76 
L 228.945357 3.456 
" style="fill:none;stroke:#b0b0b0;stroke-linecap:square;stroke-width:0.8;"/>
     </g>
     <g id="line2d_60">
      <g>
       <use style="stroke:#000000;stroke-width:0.6;" x="228.945357" xlink:href="#m85ff0d4c9f" y="293.76"/>
      </g>
     </g>
    </g>
    <g id="xtick_16">
     <g id="line2d_61">
      <path clip-path="url(#p1ac9647ed4)" d="M 236.716225 293.76 
L 236.716225 3.456 
" style="fill:none;stroke:#b0b0b0;stroke-linecap:square;stroke-width:0.8;"/>
     </g>
     <g id="line2d_62">
      <g>
       <use style="stroke:#000000;stroke-width:0.6;" x="236.716225" xlink:href="#m85ff0d4c9f" y="293.76"/>
      </g>
     </g>
    </g>
    <g id="xtick_17">
     <g id="line2d_63">
      <path clip-path="url(#p1ac9647ed4)" d="M 243.2864 293.76 
L 243.2864 3.456 
" style="fill:none;stroke:#b0b0b0;stroke-linecap:square;stroke-width:0.8;"/>
     </g>
     <g id="line2d_64">
      <g>
       <use style="stroke:#000000;stroke-width:0.6;" x="243.2864" xlink:href="#m85ff0d4c9f" y="293.76"/>
      </g>
     </g>
    </g>
    <g id="xtick_18">
     <g id="line2d_65">
      <path clip-path="url(#p1ac9647ed4)" d="M 248.977745 293.76 
L 248.977745 3.456 
" style="fill:none;stroke:#b0b0b0;stroke-linecap:square;stroke-width:0.8;"/>
     </g>
     <g id="line2d_66">
      <g>
       <use style="stroke:#000000;stroke-width:0.6;" x="248.977745" xlink:href="#m85ff0d4c9f" y="293.76"/>
      </g>
     </g>
    </g>
    <g id="xtick_19">
     <g id="line2d_67">
      <path clip-path="url(#p1ac9647ed4)" d="M 253.997867 293.76 
L 253.997867 3.456 
" style="fill:none;stroke:#b0b0b0;stroke-linecap:square;stroke-width:0.8;"/>
     </g>
     <g id="line2d_68">
      <g>
       <use style="stroke:#000000;stroke-width:0.6;" x="253.997867" xlink:href="#m85ff0d4c9f" y="293.76"/>
      </g>
     </g>
    </g>
    <g id="xtick_20">
     <g id="line2d_69">
      <path clip-path="url(#p1ac9647ed4)" d="M 288.031681 293.76 
L 288.031681 3.456 
" style="fill:none;stroke:#b0b0b0;stroke-linecap:square;stroke-width:0.8;"/>
     </g>
     <g id="line2d_70">
      <g>
       <use style="stroke:#000000;stroke-width:0.6;" x="288.031681" xlink:href="#m85ff0d4c9f" y="293.76"/>
      </g>
     </g>
    </g>
    <g id="xtick_21">
     <g id="line2d_71">
      <path clip-path="url(#p1ac9647ed4)" d="M 305.313323 293.76 
L 305.313323 3.456 
" style="fill:none;stroke:#b0b0b0;stroke-linecap:square;stroke-width:0.8;"/>
     </g>
     <g id="line2d_72">
      <g>
       <use style="stroke:#000000;stroke-width:0.6;" x="305.313323" xlink:href="#m85ff0d4c9f" y="293.76"/>
      </g>
     </g>
    </g>
    <g id="xtick_22">
     <g id="line2d_73">
      <path clip-path="url(#p1ac9647ed4)" d="M 317.574843 293.76 
L 317.574843 3.456 
" style="fill:none;stroke:#b0b0b0;stroke-linecap:square;stroke-width:0.8;"/>
     </g>
     <g id="line2d_74">
      <g>
       <use style="stroke:#000000;stroke-width:0.6;" x="317.574843" xlink:href="#m85ff0d4c9f" y="293.76"/>
      </g>
     </g>
    </g>
    <g id="xtick_23">
     <g id="line2d_75">
      <path clip-path="url(#p1ac9647ed4)" d="M 327.085616 293.76 
L 327.085616 3.456 
" style="fill:none;stroke:#b0b0b0;stroke-linecap:square;stroke-width:0.8;"/>
     </g>
     <g id="line2d_76">
      <g>
       <use style="stroke:#000000;stroke-width:0.6;" x="327.085616" xlink:href="#m85ff0d4c9f" y="293.76"/>
      </g>
     </g>
    </g>
    <g id="xtick_24">
     <g id="line2d_77">
      <path clip-path="url(#p1ac9647ed4)" d="M 334.856484 293.76 
L 334.856484 3.456 
" style="fill:none;stroke:#b0b0b0;stroke-linecap:square;stroke-width:0.8;"/>
     </g>
     <g id="line2d_78">
      <g>
       <use style="stroke:#000000;stroke-width:0.6;" x="334.856484" xlink:href="#m85ff0d4c9f" y="293.76"/>
      </g>
     </g>
    </g>
    <g id="xtick_25">
     <g id="line2d_79">
      <path clip-path="url(#p1ac9647ed4)" d="M 341.42666 293.76 
L 341.42666 3.456 
" style="fill:none;stroke:#b0b0b0;stroke-linecap:square;stroke-width:0.8;"/>
     </g>
     <g id="line2d_80">
      <g>
       <use style="stroke:#000000;stroke-width:0.6;" x="341.42666" xlink:href="#m85ff0d4c9f" y="293.76"/>
      </g>
     </g>
    </g>
    <g id="xtick_26">
     <g id="line2d_81">
      <path clip-path="url(#p1ac9647ed4)" d="M 347.118005 293.76 
L 347.118005 3.456 
" style="fill:none;stroke:#b0b0b0;stroke-linecap:square;stroke-width:0.8;"/>
     </g>
     <g id="line2d_82">
      <g>
       <use style="stroke:#000000;stroke-width:0.6;" x="347.118005" xlink:href="#m85ff0d4c9f" y="293.76"/>
      </g>
     </g>
    </g>
    <g id="xtick_27">
     <g id="line2d_83">
      <path clip-path="url(#p1ac9647ed4)" d="M 352.138126 293.76 
L 352.138126 3.456 
" style="fill:none;stroke:#b0b0b0;stroke-linecap:square;stroke-width:0.8;"/>
     </g>
     <g id="line2d_84">
      <g>
       <use style="stroke:#000000;stroke-width:0.6;" x="352.138126" xlink:href="#m85ff0d4c9f" y="293.76"/>
      </g>
     </g>
    </g>
    <g id="xtick_28">
     <g id="line2d_85">
      <path clip-path="url(#p1ac9647ed4)" d="M 386.17194 293.76 
L 386.17194 3.456 
" style="fill:none;stroke:#b0b0b0;stroke-linecap:square;stroke-width:0.8;"/>
     </g>
     <g id="line2d_86">
      <g>
       <use style="stroke:#000000;stroke-width:0.6;" x="386.17194" xlink:href="#m85ff0d4c9f" y="293.76"/>
      </g>
     </g>
    </g>
    <g id="xtick_29">
     <g id="line2d_87">
      <path clip-path="url(#p1ac9647ed4)" d="M 403.453582 293.76 
L 403.453582 3.456 
" style="fill:none;stroke:#b0b0b0;stroke-linecap:square;stroke-width:0.8;"/>
     </g>
     <g id="line2d_88">
      <g>
       <use style="stroke:#000000;stroke-width:0.6;" x="403.453582" xlink:href="#m85ff0d4c9f" y="293.76"/>
      </g>
     </g>
    </g>
    <g id="xtick_30">
     <g id="line2d_89">
      <path clip-path="url(#p1ac9647ed4)" d="M 415.715102 293.76 
L 415.715102 3.456 
" style="fill:none;stroke:#b0b0b0;stroke-linecap:square;stroke-width:0.8;"/>
     </g>
     <g id="line2d_90">
      <g>
       <use style="stroke:#000000;stroke-width:0.6;" x="415.715102" xlink:href="#m85ff0d4c9f" y="293.76"/>
      </g>
     </g>
    </g>
    <g id="xtick_31">
     <g id="line2d_91">
      <path clip-path="url(#p1ac9647ed4)" d="M 425.225876 293.76 
L 425.225876 3.456 
" style="fill:none;stroke:#b0b0b0;stroke-linecap:square;stroke-width:0.8;"/>
     </g>
     <g id="line2d_92">
      <g>
       <use style="stroke:#000000;stroke-width:0.6;" x="425.225876" xlink:href="#m85ff0d4c9f" y="293.76"/>
      </g>
     </g>
    </g>
    <g id="xtick_32">
     <g id="line2d_93">
      <path clip-path="url(#p1ac9647ed4)" d="M 432.996744 293.76 
L 432.996744 3.456 
" style="fill:none;stroke:#b0b0b0;stroke-linecap:square;stroke-width:0.8;"/>
     </g>
     <g id="line2d_94">
      <g>
       <use style="stroke:#000000;stroke-width:0.6;" x="432.996744" xlink:href="#m85ff0d4c9f" y="293.76"/>
      </g>
     </g>
    </g>
    <g id="xtick_33">
     <g id="line2d_95">
      <path clip-path="url(#p1ac9647ed4)" d="M 439.566919 293.76 
L 439.566919 3.456 
" style="fill:none;stroke:#b0b0b0;stroke-linecap:square;stroke-width:0.8;"/>
     </g>
     <g id="line2d_96">
      <g>
       <use style="stroke:#000000;stroke-width:0.6;" x="439.566919" xlink:href="#m85ff0d4c9f" y="293.76"/>
      </g>
     </g>
    </g>
    <g id="xtick_34">
     <g id="line2d_97">
      <path clip-path="url(#p1ac9647ed4)" d="M 445.258264 293.76 
L 445.258264 3.456 
" style="fill:none;stroke:#b0b0b0;stroke-linecap:square;stroke-width:0.8;"/>
     </g>
     <g id="line2d_98">
      <g>
       <use style="stroke:#000000;stroke-width:0.6;" x="445.258264" xlink:href="#m85ff0d4c9f" y="293.76"/>
      </g>
     </g>
    </g>
    <g id="xtick_35">
     <g id="line2d_99">
      <path clip-path="url(#p1ac9647ed4)" d="M 450.278386 293.76 
L 450.278386 3.456 
" style="fill:none;stroke:#b0b0b0;stroke-linecap:square;stroke-width:0.8;"/>
     </g>
     <g id="line2d_100">
      <g>
       <use style="stroke:#000000;stroke-width:0.6;" x="450.278386" xlink:href="#m85ff0d4c9f" y="293.76"/>
      </g>
     </g>
    </g>
    <g id="text_4">
     <!-- log10 of FEvals / DIM -->
     <g transform="translate(156.430563 339.313125)scale(0.2 -0.2)">
      <defs>
       <path d="M 603 4863 
L 1178 4863 
L 1178 0 
L 603 0 
L 603 4863 
z
" id="DejaVuSans-6c" transform="scale(0.015625)"/>
       <path d="M 1959 3097 
Q 1497 3097 1228 2736 
Q 959 2375 959 1747 
Q 959 1119 1226 758 
Q 1494 397 1959 397 
Q 2419 397 2687 759 
Q 2956 1122 2956 1747 
Q 2956 2369 2687 2733 
Q 2419 3097 1959 3097 
z
M 1959 3584 
Q 2709 3584 3137 3096 
Q 3566 2609 3566 1747 
Q 3566 888 3137 398 
Q 2709 -91 1959 -91 
Q 1206 -91 779 398 
Q 353 888 353 1747 
Q 353 2609 779 3096 
Q 1206 3584 1959 3584 
z
" id="DejaVuSans-6f" transform="scale(0.015625)"/>
       <path d="M 2906 1791 
Q 2906 2416 2648 2759 
Q 2391 3103 1925 3103 
Q 1463 3103 1205 2759 
Q 947 2416 947 1791 
Q 947 1169 1205 825 
Q 1463 481 1925 481 
Q 2391 481 2648 825 
Q 2906 1169 2906 1791 
z
M 3481 434 
Q 3481 -459 3084 -895 
Q 2688 -1331 1869 -1331 
Q 1566 -1331 1297 -1286 
Q 1028 -1241 775 -1147 
L 775 -588 
Q 1028 -725 1275 -790 
Q 1522 -856 1778 -856 
Q 2344 -856 2625 -561 
Q 2906 -266 2906 331 
L 2906 616 
Q 2728 306 2450 153 
Q 2172 0 1784 0 
Q 1141 0 747 490 
Q 353 981 353 1791 
Q 353 2603 747 3093 
Q 1141 3584 1784 3584 
Q 2172 3584 2450 3431 
Q 2728 3278 2906 2969 
L 2906 3500 
L 3481 3500 
L 3481 434 
z
" id="DejaVuSans-67" transform="scale(0.015625)"/>
       <path d="M 794 531 
L 1825 531 
L 1825 4091 
L 703 3866 
L 703 4441 
L 1819 4666 
L 2450 4666 
L 2450 531 
L 3481 531 
L 3481 0 
L 794 0 
L 794 531 
z
" id="DejaVuSans-31" transform="scale(0.015625)"/>
       <path id="DejaVuSans-20" transform="scale(0.015625)"/>
       <path d="M 2375 4863 
L 2375 4384 
L 1825 4384 
Q 1516 4384 1395 4259 
Q 1275 4134 1275 3809 
L 1275 3500 
L 2222 3500 
L 2222 3053 
L 1275 3053 
L 1275 0 
L 697 0 
L 697 3053 
L 147 3053 
L 147 3500 
L 697 3500 
L 697 3744 
Q 697 4328 969 4595 
Q 1241 4863 1831 4863 
L 2375 4863 
z
" id="DejaVuSans-66" transform="scale(0.015625)"/>
       <path d="M 628 4666 
L 3309 4666 
L 3309 4134 
L 1259 4134 
L 1259 2759 
L 3109 2759 
L 3109 2228 
L 1259 2228 
L 1259 0 
L 628 0 
L 628 4666 
z
" id="DejaVuSans-46" transform="scale(0.015625)"/>
       <path d="M 628 4666 
L 3578 4666 
L 3578 4134 
L 1259 4134 
L 1259 2753 
L 3481 2753 
L 3481 2222 
L 1259 2222 
L 1259 531 
L 3634 531 
L 3634 0 
L 628 0 
L 628 4666 
z
" id="DejaVuSans-45" transform="scale(0.015625)"/>
       <path d="M 191 3500 
L 800 3500 
L 1894 563 
L 2988 3500 
L 3597 3500 
L 2284 0 
L 1503 0 
L 191 3500 
z
" id="DejaVuSans-76" transform="scale(0.015625)"/>
       <path d="M 2194 1759 
Q 1497 1759 1228 1600 
Q 959 1441 959 1056 
Q 959 750 1161 570 
Q 1363 391 1709 391 
Q 2188 391 2477 730 
Q 2766 1069 2766 1631 
L 2766 1759 
L 2194 1759 
z
M 3341 1997 
L 3341 0 
L 2766 0 
L 2766 531 
Q 2569 213 2275 61 
Q 1981 -91 1556 -91 
Q 1019 -91 701 211 
Q 384 513 384 1019 
Q 384 1609 779 1909 
Q 1175 2209 1959 2209 
L 2766 2209 
L 2766 2266 
Q 2766 2663 2505 2880 
Q 2244 3097 1772 3097 
Q 1472 3097 1187 3025 
Q 903 2953 641 2809 
L 641 3341 
Q 956 3463 1253 3523 
Q 1550 3584 1831 3584 
Q 2591 3584 2966 3190 
Q 3341 2797 3341 1997 
z
" id="DejaVuSans-61" transform="scale(0.015625)"/>
       <path d="M 2834 3397 
L 2834 2853 
Q 2591 2978 2328 3040 
Q 2066 3103 1784 3103 
Q 1356 3103 1142 2972 
Q 928 2841 928 2578 
Q 928 2378 1081 2264 
Q 1234 2150 1697 2047 
L 1894 2003 
Q 2506 1872 2764 1633 
Q 3022 1394 3022 966 
Q 3022 478 2636 193 
Q 2250 -91 1575 -91 
Q 1294 -91 989 -36 
Q 684 19 347 128 
L 347 722 
Q 666 556 975 473 
Q 1284 391 1588 391 
Q 1994 391 2212 530 
Q 2431 669 2431 922 
Q 2431 1156 2273 1281 
Q 2116 1406 1581 1522 
L 1381 1569 
Q 847 1681 609 1914 
Q 372 2147 372 2553 
Q 372 3047 722 3315 
Q 1072 3584 1716 3584 
Q 2034 3584 2315 3537 
Q 2597 3491 2834 3397 
z
" id="DejaVuSans-73" transform="scale(0.015625)"/>
       <path d="M 1625 4666 
L 2156 4666 
L 531 -594 
L 0 -594 
L 1625 4666 
z
" id="DejaVuSans-2f" transform="scale(0.015625)"/>
       <path d="M 1259 4147 
L 1259 519 
L 2022 519 
Q 2988 519 3436 956 
Q 3884 1394 3884 2338 
Q 3884 3275 3436 3711 
Q 2988 4147 2022 4147 
L 1259 4147 
z
M 628 4666 
L 1925 4666 
Q 3281 4666 3915 4102 
Q 4550 3538 4550 2338 
Q 4550 1131 3912 565 
Q 3275 0 1925 0 
L 628 0 
L 628 4666 
z
" id="DejaVuSans-44" transform="scale(0.015625)"/>
       <path d="M 628 4666 
L 1259 4666 
L 1259 0 
L 628 0 
L 628 4666 
z
" id="DejaVuSans-49" transform="scale(0.015625)"/>
       <path d="M 628 4666 
L 1569 4666 
L 2759 1491 
L 3956 4666 
L 4897 4666 
L 4897 0 
L 4281 0 
L 4281 4097 
L 3078 897 
L 2444 897 
L 1241 4097 
L 1241 0 
L 628 0 
L 628 4666 
z
" id="DejaVuSans-4d" transform="scale(0.015625)"/>
      </defs>
      <use xlink:href="#DejaVuSans-6c"/>
      <use x="27.783203" xlink:href="#DejaVuSans-6f"/>
      <use x="88.964844" xlink:href="#DejaVuSans-67"/>
      <use x="152.441406" xlink:href="#DejaVuSans-31"/>
      <use x="216.064453" xlink:href="#DejaVuSans-30"/>
      <use x="279.6875" xlink:href="#DejaVuSans-20"/>
      <use x="311.474609" xlink:href="#DejaVuSans-6f"/>
      <use x="372.65625" xlink:href="#DejaVuSans-66"/>
      <use x="407.861328" xlink:href="#DejaVuSans-20"/>
      <use x="439.648438" xlink:href="#DejaVuSans-46"/>
      <use x="497.167969" xlink:href="#DejaVuSans-45"/>
      <use x="560.351562" xlink:href="#DejaVuSans-76"/>
      <use x="619.53125" xlink:href="#DejaVuSans-61"/>
      <use x="680.810547" xlink:href="#DejaVuSans-6c"/>
      <use x="708.59375" xlink:href="#DejaVuSans-73"/>
      <use x="760.693359" xlink:href="#DejaVuSans-20"/>
      <use x="792.480469" xlink:href="#DejaVuSans-2f"/>
      <use x="826.171875" xlink:href="#DejaVuSans-20"/>
      <use x="857.958984" xlink:href="#DejaVuSans-44"/>
      <use x="934.960938" xlink:href="#DejaVuSans-49"/>
      <use x="964.453125" xlink:href="#DejaVuSans-4d"/>
     </g>
    </g>
   </g>
   <g id="matplotlib.axis_2">
    <g id="ytick_1">
     <g id="line2d_101">
      <path clip-path="url(#p1ac9647ed4)" d="M 62.208 293.76 
L 460.8 293.76 
" style="fill:none;stroke:#b0b0b0;stroke-linecap:square;stroke-width:0.8;"/>
     </g>
     <g id="line2d_102">
      <defs>
       <path d="M 0 0 
L -3.5 0 
" id="m37a8087f2c" style="stroke:#000000;stroke-width:0.8;"/>
      </defs>
      <g>
       <use style="stroke:#000000;stroke-width:0.8;" x="62.208" xlink:href="#m37a8087f2c" y="293.76"/>
      </g>
     </g>
     <g id="text_5">
      <!-- 0.0 -->
      <g transform="translate(29.763 299.83875)scale(0.16 -0.16)">
       <defs>
        <path d="M 684 794 
L 1344 794 
L 1344 0 
L 684 0 
L 684 794 
z
" id="DejaVuSans-2e" transform="scale(0.015625)"/>
       </defs>
       <use xlink:href="#DejaVuSans-30"/>
       <use x="63.623047" xlink:href="#DejaVuSans-2e"/>
       <use x="95.410156" xlink:href="#DejaVuSans-30"/>
      </g>
     </g>
    </g>
    <g id="ytick_2">
     <g id="line2d_103">
      <path clip-path="url(#p1ac9647ed4)" d="M 62.208 236.274059 
L 460.8 236.274059 
" style="fill:none;stroke:#b0b0b0;stroke-linecap:square;stroke-width:0.8;"/>
     </g>
     <g id="line2d_104">
      <g>
       <use style="stroke:#000000;stroke-width:0.8;" x="62.208" xlink:href="#m37a8087f2c" y="236.274059"/>
      </g>
     </g>
     <g id="text_6">
      <!-- 0.2 -->
      <g transform="translate(29.763 242.352809)scale(0.16 -0.16)">
       <use xlink:href="#DejaVuSans-30"/>
       <use x="63.623047" xlink:href="#DejaVuSans-2e"/>
       <use x="95.410156" xlink:href="#DejaVuSans-32"/>
      </g>
     </g>
    </g>
    <g id="ytick_3">
     <g id="line2d_105">
      <path clip-path="url(#p1ac9647ed4)" d="M 62.208 178.788119 
L 460.8 178.788119 
" style="fill:none;stroke:#b0b0b0;stroke-linecap:square;stroke-width:0.8;"/>
     </g>
     <g id="line2d_106">
      <g>
       <use style="stroke:#000000;stroke-width:0.8;" x="62.208" xlink:href="#m37a8087f2c" y="178.788119"/>
      </g>
     </g>
     <g id="text_7">
      <!-- 0.4 -->
      <g transform="translate(29.763 184.866869)scale(0.16 -0.16)">
       <use xlink:href="#DejaVuSans-30"/>
       <use x="63.623047" xlink:href="#DejaVuSans-2e"/>
       <use x="95.410156" xlink:href="#DejaVuSans-34"/>
      </g>
     </g>
    </g>
    <g id="ytick_4">
     <g id="line2d_107">
      <path clip-path="url(#p1ac9647ed4)" d="M 62.208 121.302178 
L 460.8 121.302178 
" style="fill:none;stroke:#b0b0b0;stroke-linecap:square;stroke-width:0.8;"/>
     </g>
     <g id="line2d_108">
      <g>
       <use style="stroke:#000000;stroke-width:0.8;" x="62.208" xlink:href="#m37a8087f2c" y="121.302178"/>
      </g>
     </g>
     <g id="text_8">
      <!-- 0.6 -->
      <g transform="translate(29.763 127.380928)scale(0.16 -0.16)">
       <defs>
        <path d="M 2113 2584 
Q 1688 2584 1439 2293 
Q 1191 2003 1191 1497 
Q 1191 994 1439 701 
Q 1688 409 2113 409 
Q 2538 409 2786 701 
Q 3034 994 3034 1497 
Q 3034 2003 2786 2293 
Q 2538 2584 2113 2584 
z
M 3366 4563 
L 3366 3988 
Q 3128 4100 2886 4159 
Q 2644 4219 2406 4219 
Q 1781 4219 1451 3797 
Q 1122 3375 1075 2522 
Q 1259 2794 1537 2939 
Q 1816 3084 2150 3084 
Q 2853 3084 3261 2657 
Q 3669 2231 3669 1497 
Q 3669 778 3244 343 
Q 2819 -91 2113 -91 
Q 1303 -91 875 529 
Q 447 1150 447 2328 
Q 447 3434 972 4092 
Q 1497 4750 2381 4750 
Q 2619 4750 2861 4703 
Q 3103 4656 3366 4563 
z
" id="DejaVuSans-36" transform="scale(0.015625)"/>
       </defs>
       <use xlink:href="#DejaVuSans-30"/>
       <use x="63.623047" xlink:href="#DejaVuSans-2e"/>
       <use x="95.410156" xlink:href="#DejaVuSans-36"/>
      </g>
     </g>
    </g>
    <g id="ytick_5">
     <g id="line2d_109">
      <path clip-path="url(#p1ac9647ed4)" d="M 62.208 63.816238 
L 460.8 63.816238 
" style="fill:none;stroke:#b0b0b0;stroke-linecap:square;stroke-width:0.8;"/>
     </g>
     <g id="line2d_110">
      <g>
       <use style="stroke:#000000;stroke-width:0.8;" x="62.208" xlink:href="#m37a8087f2c" y="63.816238"/>
      </g>
     </g>
     <g id="text_9">
      <!-- 0.8 -->
      <g transform="translate(29.763 69.894988)scale(0.16 -0.16)">
       <defs>
        <path d="M 2034 2216 
Q 1584 2216 1326 1975 
Q 1069 1734 1069 1313 
Q 1069 891 1326 650 
Q 1584 409 2034 409 
Q 2484 409 2743 651 
Q 3003 894 3003 1313 
Q 3003 1734 2745 1975 
Q 2488 2216 2034 2216 
z
M 1403 2484 
Q 997 2584 770 2862 
Q 544 3141 544 3541 
Q 544 4100 942 4425 
Q 1341 4750 2034 4750 
Q 2731 4750 3128 4425 
Q 3525 4100 3525 3541 
Q 3525 3141 3298 2862 
Q 3072 2584 2669 2484 
Q 3125 2378 3379 2068 
Q 3634 1759 3634 1313 
Q 3634 634 3220 271 
Q 2806 -91 2034 -91 
Q 1263 -91 848 271 
Q 434 634 434 1313 
Q 434 1759 690 2068 
Q 947 2378 1403 2484 
z
M 1172 3481 
Q 1172 3119 1398 2916 
Q 1625 2713 2034 2713 
Q 2441 2713 2670 2916 
Q 2900 3119 2900 3481 
Q 2900 3844 2670 4047 
Q 2441 4250 2034 4250 
Q 1625 4250 1398 4047 
Q 1172 3844 1172 3481 
z
" id="DejaVuSans-38" transform="scale(0.015625)"/>
       </defs>
       <use xlink:href="#DejaVuSans-30"/>
       <use x="63.623047" xlink:href="#DejaVuSans-2e"/>
       <use x="95.410156" xlink:href="#DejaVuSans-38"/>
      </g>
     </g>
    </g>
    <g id="ytick_6">
     <g id="line2d_111">
      <path clip-path="url(#p1ac9647ed4)" d="M 62.208 6.330297 
L 460.8 6.330297 
" style="fill:none;stroke:#b0b0b0;stroke-linecap:square;stroke-width:0.8;"/>
     </g>
     <g id="line2d_112">
      <g>
       <use style="stroke:#000000;stroke-width:0.8;" x="62.208" xlink:href="#m37a8087f2c" y="6.330297"/>
      </g>
     </g>
     <g id="text_10">
      <!-- 1.0 -->
      <g transform="translate(29.763 12.409047)scale(0.16 -0.16)">
       <use xlink:href="#DejaVuSans-31"/>
       <use x="63.623047" xlink:href="#DejaVuSans-2e"/>
       <use x="95.410156" xlink:href="#DejaVuSans-30"/>
      </g>
     </g>
    </g>
    <g id="text_11">
     <!-- proportion of trials -->
     <g transform="translate(21.603625 241.61425)rotate(-90)scale(0.2 -0.2)">
      <defs>
       <path d="M 1159 525 
L 1159 -1331 
L 581 -1331 
L 581 3500 
L 1159 3500 
L 1159 2969 
Q 1341 3281 1617 3432 
Q 1894 3584 2278 3584 
Q 2916 3584 3314 3078 
Q 3713 2572 3713 1747 
Q 3713 922 3314 415 
Q 2916 -91 2278 -91 
Q 1894 -91 1617 61 
Q 1341 213 1159 525 
z
M 3116 1747 
Q 3116 2381 2855 2742 
Q 2594 3103 2138 3103 
Q 1681 3103 1420 2742 
Q 1159 2381 1159 1747 
Q 1159 1113 1420 752 
Q 1681 391 2138 391 
Q 2594 391 2855 752 
Q 3116 1113 3116 1747 
z
" id="DejaVuSans-70" transform="scale(0.015625)"/>
       <path d="M 2631 2963 
Q 2534 3019 2420 3045 
Q 2306 3072 2169 3072 
Q 1681 3072 1420 2755 
Q 1159 2438 1159 1844 
L 1159 0 
L 581 0 
L 581 3500 
L 1159 3500 
L 1159 2956 
Q 1341 3275 1631 3429 
Q 1922 3584 2338 3584 
Q 2397 3584 2469 3576 
Q 2541 3569 2628 3553 
L 2631 2963 
z
" id="DejaVuSans-72" transform="scale(0.015625)"/>
       <path d="M 1172 4494 
L 1172 3500 
L 2356 3500 
L 2356 3053 
L 1172 3053 
L 1172 1153 
Q 1172 725 1289 603 
Q 1406 481 1766 481 
L 2356 481 
L 2356 0 
L 1766 0 
Q 1100 0 847 248 
Q 594 497 594 1153 
L 594 3053 
L 172 3053 
L 172 3500 
L 594 3500 
L 594 4494 
L 1172 4494 
z
" id="DejaVuSans-74" transform="scale(0.015625)"/>
       <path d="M 603 3500 
L 1178 3500 
L 1178 0 
L 603 0 
L 603 3500 
z
M 603 4863 
L 1178 4863 
L 1178 4134 
L 603 4134 
L 603 4863 
z
" id="DejaVuSans-69" transform="scale(0.015625)"/>
       <path d="M 3513 2113 
L 3513 0 
L 2938 0 
L 2938 2094 
Q 2938 2591 2744 2837 
Q 2550 3084 2163 3084 
Q 1697 3084 1428 2787 
Q 1159 2491 1159 1978 
L 1159 0 
L 581 0 
L 581 3500 
L 1159 3500 
L 1159 2956 
Q 1366 3272 1645 3428 
Q 1925 3584 2291 3584 
Q 2894 3584 3203 3211 
Q 3513 2838 3513 2113 
z
" id="DejaVuSans-6e" transform="scale(0.015625)"/>
      </defs>
      <use xlink:href="#DejaVuSans-70"/>
      <use x="63.476562" xlink:href="#DejaVuSans-72"/>
      <use x="102.339844" xlink:href="#DejaVuSans-6f"/>
      <use x="163.521484" xlink:href="#DejaVuSans-70"/>
      <use x="226.998047" xlink:href="#DejaVuSans-6f"/>
      <use x="288.179688" xlink:href="#DejaVuSans-72"/>
      <use x="329.292969" xlink:href="#DejaVuSans-74"/>
      <use x="368.501953" xlink:href="#DejaVuSans-69"/>
      <use x="396.285156" xlink:href="#DejaVuSans-6f"/>
      <use x="457.466797" xlink:href="#DejaVuSans-6e"/>
      <use x="520.845703" xlink:href="#DejaVuSans-20"/>
      <use x="552.632812" xlink:href="#DejaVuSans-6f"/>
      <use x="613.814453" xlink:href="#DejaVuSans-66"/>
      <use x="649.019531" xlink:href="#DejaVuSans-20"/>
      <use x="680.806641" xlink:href="#DejaVuSans-74"/>
      <use x="720.015625" xlink:href="#DejaVuSans-72"/>
      <use x="761.128906" xlink:href="#DejaVuSans-69"/>
      <use x="788.912109" xlink:href="#DejaVuSans-61"/>
      <use x="850.191406" xlink:href="#DejaVuSans-6c"/>
      <use x="877.974609" xlink:href="#DejaVuSans-73"/>
     </g>
    </g>
   </g>
   <g id="line2d_113">
    <path clip-path="url(#p1ac9647ed4)" d="M -1 278.430416 
L 23.154064 278.430416 
L 23.154064 255.43604 
L 40.435706 255.43604 
L 40.435706 247.771248 
L 52.697226 247.771248 
L 52.697226 240.106455 
L 62.208 240.106455 
L 62.208 236.274059 
L 69.978868 236.274059 
L 69.978868 224.776871 
L 82.240388 224.776871 
L 82.240388 220.944475 
L 87.26051 220.944475 
L 87.26051 213.279683 
L 91.751162 213.279683 
L 91.751162 209.447287 
L 95.813451 209.447287 
L 95.813451 205.614891 
L 99.52203 205.614891 
L 99.52203 201.782495 
L 102.933592 201.782495 
L 102.933592 190.285307 
L 106.092205 190.285307 
L 106.092205 182.620515 
L 109.032804 182.620515 
L 109.032804 178.788119 
L 111.78355 178.788119 
L 111.78355 174.955723 
L 114.367479 174.955723 
L 114.367479 171.123327 
L 116.803672 171.123327 
L 116.803672 163.458535 
L 129.065192 163.458535 
L 129.065192 159.626139 
L 142.638254 159.626139 
L 142.638254 155.793743 
L 143.910641 155.793743 
L 143.910641 151.961347 
L 168.823636 151.961347 
L 168.823636 148.12895 
L 170.198651 148.12895 
L 170.198651 144.296554 
L 178.194436 144.296554 
L 178.194436 140.464158 
L 179.844517 140.464158 
L 179.844517 132.799366 
L 190.735444 132.799366 
L 190.735444 128.96697 
L 191.15127 128.96697 
L 191.15127 125.134574 
L 191.563078 125.134574 
L 191.563078 121.302178 
L 194.721691 121.302178 
L 194.721691 117.469782 
L 196.217345 117.469782 
L 196.217345 113.637386 
L 199.741813 113.637386 
L 199.741813 109.80499 
L 202.046253 109.80499 
L 202.046253 105.972594 
L 207.737598 105.972594 
L 207.737598 102.140198 
L 213.986098 102.140198 
L 213.986098 98.307802 
L 217.694677 98.307802 
L 217.694677 94.475406 
L 218.136358 94.475406 
L 218.136358 90.64301 
L 224.264853 90.64301 
L 224.264853 82.978218 
L 226.126361 82.978218 
L 226.126361 79.145822 
L 229.115504 79.145822 
L 229.115504 75.313426 
L 230.122364 75.313426 
L 230.122364 71.48103 
L 231.105987 71.48103 
L 231.105987 67.648634 
L 239.996441 67.648634 
L 239.996441 63.816238 
L 303.157011 63.816238 
L 303.157011 59.983842 
L 305.511762 59.983842 
L 305.511762 56.151446 
L 329.585221 56.151446 
L 329.585221 52.31905 
L 331.147905 52.31905 
L 331.147905 48.486653 
L 335.435038 48.486653 
L 335.435038 44.654257 
L 338.398989 44.654257 
L 338.398989 40.821861 
L 342.63919 40.821861 
L 342.63919 36.989465 
L 351.160915 36.989465 
L 351.160915 33.157069 
L 352.449546 33.157069 
L 352.449546 29.324673 
L 353.269041 29.324673 
L 353.269041 25.492277 
L 356.934556 25.492277 
L 356.934556 21.659881 
L 363.755476 21.659881 
L 363.755476 17.827485 
L 372.465476 17.827485 
L 372.465476 13.995089 
L 375.181302 13.995089 
L 375.181302 10.162693 
L 380.993825 10.162693 
L 380.993825 6.330297 
L 380.993825 6.330297 
L 460.8 6.330297 
L 460.8 6.330297 
" style="fill:none;stroke:#000000;stroke-linecap:square;stroke-width:1.5;"/>
   </g>
   <g id="line2d_114">
    <path clip-path="url(#p1ac9647ed4)" style="fill:none;stroke:#000000;stroke-linecap:square;stroke-width:1.5;"/>
   </g>
   <g id="line2d_115">
    <path clip-path="url(#p1ac9647ed4)" d="M 267.794216 293.76 
L 267.794216 289.927604 
L 270.643351 289.927604 
L 270.643351 286.095208 
L 278.467596 286.095208 
L 278.467596 282.262812 
L 278.520907 282.262812 
L 278.520907 278.430416 
L 281.104836 278.430416 
L 281.104836 274.59802 
L 283.777161 274.59802 
L 283.777161 270.765624 
L 284.245537 270.765624 
L 284.245537 266.933228 
L 290.995005 266.933228 
L 290.995005 263.100832 
L 293.051803 263.100832 
L 293.051803 259.268436 
L 295.90897 259.268436 
L 295.90897 255.43604 
L 305.199513 255.43604 
L 305.199513 251.603644 
L 311.467434 251.603644 
L 311.467434 247.771248 
L 359.408817 247.771248 
L 359.408817 243.938851 
L 399.7264 243.938851 
L 399.7264 240.106455 
L 407.019614 240.106455 
L 407.019614 236.274059 
L 408.32189 236.274059 
L 408.32189 232.441663 
L 408.559492 232.441663 
L 408.559492 228.609267 
L 410.421324 228.609267 
L 410.421324 224.776871 
L 411.688388 224.776871 
L 411.688388 220.944475 
L 418.063712 220.944475 
L 418.063712 217.112079 
L 434.709363 217.112079 
L 434.709363 213.279683 
L 434.709363 213.279683 
L 434.709363 213.279683 
L 460.8 213.279683 
" style="fill:none;stroke:#00bfbf;stroke-linecap:square;stroke-width:1.5;"/>
   </g>
   <g id="line2d_116">
    <path clip-path="url(#p1ac9647ed4)" style="fill:none;stroke:#00bfbf;stroke-linecap:square;stroke-width:1.5;"/>
   </g>
   <g id="line2d_117">
    <path clip-path="url(#p1ac9647ed4)" d="M 299.246884 293.76 
L 299.246884 289.927604 
L 299.508168 289.927604 
L 299.508168 286.095208 
L 300.75948 286.095208 
L 300.75948 282.262812 
L 300.917281 282.262812 
L 300.917281 278.430416 
L 305.313323 278.430416 
L 305.313323 274.59802 
L 306.902935 274.59802 
L 306.902935 270.765624 
L 311.270224 270.765624 
L 311.270224 266.933228 
L 315.478267 266.933228 
L 315.478267 263.100832 
L 315.478267 263.100832 
L 315.478267 259.268436 
L 315.790516 259.268436 
L 315.790516 255.43604 
L 319.164455 255.43604 
L 319.164455 251.603644 
L 331.395168 251.603644 
L 331.395168 247.771248 
L 368.78361 247.771248 
L 368.78361 243.938851 
L 405.993362 243.938851 
L 405.993362 240.106455 
L 414.001827 240.106455 
L 414.001827 236.274059 
L 414.004045 236.274059 
L 414.004045 232.441663 
L 414.869246 232.441663 
L 414.869246 228.609267 
L 416.10543 228.609267 
L 416.10543 224.776871 
L 417.197821 224.776871 
L 417.197821 220.944475 
L 423.134673 220.944475 
L 423.134673 217.112079 
L 423.134673 217.112079 
L 423.134673 217.112079 
L 460.8 217.112079 
" style="fill:none;stroke:#bf00bf;stroke-linecap:square;stroke-width:1.5;"/>
   </g>
   <g id="line2d_118">
    <path clip-path="url(#p1ac9647ed4)" style="fill:none;stroke:#bf00bf;stroke-linecap:square;stroke-width:1.5;"/>
   </g>
   <g id="line2d_119">
    <path clip-path="url(#p1ac9647ed4)" d="M 317.638727 293.76 
L 317.638727 289.927604 
L 317.74499 289.927604 
L 317.74499 286.095208 
L 319.715211 286.095208 
L 319.715211 282.262812 
L 319.775969 282.262812 
L 319.775969 278.430416 
L 321.15002 278.430416 
L 321.15002 274.59802 
L 321.462412 274.59802 
L 321.462412 270.765624 
L 327.102662 270.765624 
L 327.102662 266.933228 
L 327.289712 266.933228 
L 327.289712 263.100832 
L 328.855517 263.100832 
L 328.855517 259.268436 
L 329.16514 259.268436 
L 329.16514 255.43604 
L 330.064841 255.43604 
L 330.064841 251.603644 
L 341.451008 251.603644 
L 341.451008 247.771248 
L 377.043046 247.771248 
L 377.043046 243.938851 
L 413.315247 243.938851 
L 413.315247 240.106455 
L 420.02658 240.106455 
L 420.02658 236.274059 
L 420.471099 236.274059 
L 420.471099 232.441663 
L 420.587212 232.441663 
L 420.587212 228.609267 
L 421.421096 228.609267 
L 421.421096 224.776871 
L 423.132882 224.776871 
L 423.132882 220.944475 
L 428.061781 220.944475 
L 428.061781 217.112079 
L 428.061781 217.112079 
L 428.061781 217.112079 
L 460.8 217.112079 
" style="fill:none;stroke:#ff0000;stroke-linecap:square;stroke-width:3;"/>
   </g>
   <g id="line2d_120">
    <path clip-path="url(#p1ac9647ed4)" style="fill:none;stroke:#ff0000;stroke-linecap:square;stroke-width:3;"/>
   </g>
   <g id="line2d_121">
    <path clip-path="url(#p1ac9647ed4)" d="M 455.024004 293.76 
L 455.024004 3.456 
" style="fill:none;stroke:#000000;stroke-linecap:square;stroke-width:1.5;"/>
   </g>
   <g id="patch_3">
    <path d="M 62.208 293.76 
L 62.208 3.456 
" style="fill:none;stroke:#000000;stroke-linecap:square;stroke-linejoin:miter;stroke-width:0.8;"/>
   </g>
   <g id="patch_4">
    <path d="M 460.8 293.76 
L 460.8 3.456 
" style="fill:none;stroke:#000000;stroke-linecap:square;stroke-linejoin:miter;stroke-width:0.8;"/>
   </g>
   <g id="patch_5">
    <path d="M 62.208 293.76 
L 460.8 293.76 
" style="fill:none;stroke:#000000;stroke-linecap:square;stroke-linejoin:miter;stroke-width:0.8;"/>
   </g>
   <g id="patch_6">
    <path d="M 62.208 3.456 
L 460.8 3.456 
" style="fill:none;stroke:#000000;stroke-linecap:square;stroke-linejoin:miter;stroke-width:0.8;"/>
   </g>
   <g id="text_12">
    <!-- {f20-f24}, 5-D -->
    <g transform="translate(188.654 24.458955)scale(0.2 -0.2)">
     <defs>
      <path d="M 3272 -594 
L 3272 -1044 
L 3078 -1044 
Q 2300 -1044 2036 -812 
Q 1772 -581 1772 109 
L 1772 856 
Q 1772 1328 1603 1509 
Q 1434 1691 991 1691 
L 800 1691 
L 800 2138 
L 991 2138 
Q 1438 2138 1605 2317 
Q 1772 2497 1772 2963 
L 1772 3713 
Q 1772 4403 2036 4633 
Q 2300 4863 3078 4863 
L 3272 4863 
L 3272 4416 
L 3059 4416 
Q 2619 4416 2484 4278 
Q 2350 4141 2350 3700 
L 2350 2925 
Q 2350 2434 2208 2212 
Q 2066 1991 1722 1913 
Q 2069 1828 2209 1606 
Q 2350 1384 2350 897 
L 2350 122 
Q 2350 -319 2484 -456 
Q 2619 -594 3059 -594 
L 3272 -594 
z
" id="DejaVuSans-7b" transform="scale(0.015625)"/>
      <path d="M 313 2009 
L 1997 2009 
L 1997 1497 
L 313 1497 
L 313 2009 
z
" id="DejaVuSans-2d" transform="scale(0.015625)"/>
      <path d="M 800 -594 
L 1019 -594 
Q 1456 -594 1589 -459 
Q 1722 -325 1722 122 
L 1722 897 
Q 1722 1384 1862 1606 
Q 2003 1828 2350 1913 
Q 2003 1991 1862 2212 
Q 1722 2434 1722 2925 
L 1722 3700 
Q 1722 4144 1589 4280 
Q 1456 4416 1019 4416 
L 800 4416 
L 800 4863 
L 997 4863 
Q 1775 4863 2036 4633 
Q 2297 4403 2297 3713 
L 2297 2963 
Q 2297 2497 2465 2317 
Q 2634 2138 3078 2138 
L 3272 2138 
L 3272 1691 
L 3078 1691 
Q 2634 1691 2465 1509 
Q 2297 1328 2297 856 
L 2297 109 
Q 2297 -581 2036 -812 
Q 1775 -1044 997 -1044 
L 800 -1044 
L 800 -594 
z
" id="DejaVuSans-7d" transform="scale(0.015625)"/>
      <path d="M 750 794 
L 1409 794 
L 1409 256 
L 897 -744 
L 494 -744 
L 750 256 
L 750 794 
z
" id="DejaVuSans-2c" transform="scale(0.015625)"/>
      <path d="M 691 4666 
L 3169 4666 
L 3169 4134 
L 1269 4134 
L 1269 2991 
Q 1406 3038 1543 3061 
Q 1681 3084 1819 3084 
Q 2600 3084 3056 2656 
Q 3513 2228 3513 1497 
Q 3513 744 3044 326 
Q 2575 -91 1722 -91 
Q 1428 -91 1123 -41 
Q 819 9 494 109 
L 494 744 
Q 775 591 1075 516 
Q 1375 441 1709 441 
Q 2250 441 2565 725 
Q 2881 1009 2881 1497 
Q 2881 1984 2565 2268 
Q 2250 2553 1709 2553 
Q 1456 2553 1204 2497 
Q 953 2441 691 2322 
L 691 4666 
z
" id="DejaVuSans-35" transform="scale(0.015625)"/>
     </defs>
     <use xlink:href="#DejaVuSans-7b"/>
     <use x="63.623047" xlink:href="#DejaVuSans-66"/>
     <use x="98.828125" xlink:href="#DejaVuSans-32"/>
     <use x="162.451172" xlink:href="#DejaVuSans-30"/>
     <use x="226.074219" xlink:href="#DejaVuSans-2d"/>
     <use x="262.158203" xlink:href="#DejaVuSans-66"/>
     <use x="297.363281" xlink:href="#DejaVuSans-32"/>
     <use x="360.986328" xlink:href="#DejaVuSans-34"/>
     <use x="424.609375" xlink:href="#DejaVuSans-7d"/>
     <use x="488.232422" xlink:href="#DejaVuSans-2c"/>
     <use x="520.019531" xlink:href="#DejaVuSans-20"/>
     <use x="551.806641" xlink:href="#DejaVuSans-35"/>
     <use x="615.429688" xlink:href="#DejaVuSans-2d"/>
     <use x="651.513672" xlink:href="#DejaVuSans-44"/>
    </g>
   </g>
   <g id="text_13">
    <!-- absolute targets -->
    <g transform="translate(62.208 609.932673)scale(0.14 -0.14)">
     <defs>
      <path d="M 3116 1747 
Q 3116 2381 2855 2742 
Q 2594 3103 2138 3103 
Q 1681 3103 1420 2742 
Q 1159 2381 1159 1747 
Q 1159 1113 1420 752 
Q 1681 391 2138 391 
Q 2594 391 2855 752 
Q 3116 1113 3116 1747 
z
M 1159 2969 
Q 1341 3281 1617 3432 
Q 1894 3584 2278 3584 
Q 2916 3584 3314 3078 
Q 3713 2572 3713 1747 
Q 3713 922 3314 415 
Q 2916 -91 2278 -91 
Q 1894 -91 1617 61 
Q 1341 213 1159 525 
L 1159 0 
L 581 0 
L 581 4863 
L 1159 4863 
L 1159 2969 
z
" id="DejaVuSans-62" transform="scale(0.015625)"/>
      <path d="M 544 1381 
L 544 3500 
L 1119 3500 
L 1119 1403 
Q 1119 906 1312 657 
Q 1506 409 1894 409 
Q 2359 409 2629 706 
Q 2900 1003 2900 1516 
L 2900 3500 
L 3475 3500 
L 3475 0 
L 2900 0 
L 2900 538 
Q 2691 219 2414 64 
Q 2138 -91 1772 -91 
Q 1169 -91 856 284 
Q 544 659 544 1381 
z
M 1991 3584 
L 1991 3584 
z
" id="DejaVuSans-75" transform="scale(0.015625)"/>
      <path d="M 3597 1894 
L 3597 1613 
L 953 1613 
Q 991 1019 1311 708 
Q 1631 397 2203 397 
Q 2534 397 2845 478 
Q 3156 559 3463 722 
L 3463 178 
Q 3153 47 2828 -22 
Q 2503 -91 2169 -91 
Q 1331 -91 842 396 
Q 353 884 353 1716 
Q 353 2575 817 3079 
Q 1281 3584 2069 3584 
Q 2775 3584 3186 3129 
Q 3597 2675 3597 1894 
z
M 3022 2063 
Q 3016 2534 2758 2815 
Q 2500 3097 2075 3097 
Q 1594 3097 1305 2825 
Q 1016 2553 972 2059 
L 3022 2063 
z
" id="DejaVuSans-65" transform="scale(0.015625)"/>
     </defs>
     <use xlink:href="#DejaVuSans-61"/>
     <use x="61.279297" xlink:href="#DejaVuSans-62"/>
     <use x="124.755859" xlink:href="#DejaVuSans-73"/>
     <use x="176.855469" xlink:href="#DejaVuSans-6f"/>
     <use x="238.037109" xlink:href="#DejaVuSans-6c"/>
     <use x="265.820312" xlink:href="#DejaVuSans-75"/>
     <use x="329.199219" xlink:href="#DejaVuSans-74"/>
     <use x="368.408203" xlink:href="#DejaVuSans-65"/>
     <use x="429.931641" xlink:href="#DejaVuSans-20"/>
     <use x="461.71875" xlink:href="#DejaVuSans-74"/>
     <use x="500.927734" xlink:href="#DejaVuSans-61"/>
     <use x="562.207031" xlink:href="#DejaVuSans-72"/>
     <use x="601.570312" xlink:href="#DejaVuSans-67"/>
     <use x="665.046875" xlink:href="#DejaVuSans-65"/>
     <use x="726.570312" xlink:href="#DejaVuSans-74"/>
     <use x="765.779297" xlink:href="#DejaVuSans-73"/>
    </g>
   </g>
   <g id="text_14">
    <!-- v2.4 -->
    <g style="fill:#808080;" transform="translate(250.593063 288.777272)scale(0.1 -0.1)">
     <use xlink:href="#DejaVuSans-76"/>
     <use x="59.179688" xlink:href="#DejaVuSans-32"/>
     <use x="122.802734" xlink:href="#DejaVuSans-2e"/>
     <use x="154.589844" xlink:href="#DejaVuSans-34"/>
    </g>
   </g>
   <g id="legend_1">
    <g id="patch_7">
     <path d="M 76.208 136.881 
L 205.429875 136.881 
Q 209.429875 136.881 209.429875 132.881 
L 209.429875 17.456 
Q 209.429875 13.456 205.429875 13.456 
L 76.208 13.456 
Q 72.208 13.456 72.208 17.456 
L 72.208 132.881 
Q 72.208 136.881 76.208 136.881 
z
" style="fill:#ffffff;opacity:0.2;stroke:#cccccc;stroke-linejoin:miter;"/>
    </g>
    <g id="line2d_122">
     <path d="M 80.208 29.652875 
L 120.208 29.652875 
" style="fill:none;stroke:#000000;stroke-linecap:square;stroke-width:1.5;"/>
    </g>
    <g id="line2d_123"/>
    <g id="text_15">
     <!-- 1: 5/5 -->
     <g transform="translate(136.208 36.652875)scale(0.2 -0.2)">
      <defs>
       <path d="M 750 794 
L 1409 794 
L 1409 0 
L 750 0 
L 750 794 
z
M 750 3309 
L 1409 3309 
L 1409 2516 
L 750 2516 
L 750 3309 
z
" id="DejaVuSans-3a" transform="scale(0.015625)"/>
      </defs>
      <use xlink:href="#DejaVuSans-31"/>
      <use x="63.623047" xlink:href="#DejaVuSans-3a"/>
      <use x="97.314453" xlink:href="#DejaVuSans-20"/>
      <use x="129.101562" xlink:href="#DejaVuSans-35"/>
      <use x="192.724609" xlink:href="#DejaVuSans-2f"/>
      <use x="226.416016" xlink:href="#DejaVuSans-35"/>
     </g>
    </g>
    <g id="line2d_124">
     <path d="M 80.208 59.009125 
L 120.208 59.009125 
" style="fill:none;stroke:#00bfbf;stroke-linecap:square;stroke-width:1.5;"/>
    </g>
    <g id="line2d_125"/>
    <g id="text_16">
     <!-- -1: 4/5 -->
     <g transform="translate(136.208 66.009125)scale(0.2 -0.2)">
      <use xlink:href="#DejaVuSans-2d"/>
      <use x="36.083984" xlink:href="#DejaVuSans-31"/>
      <use x="99.707031" xlink:href="#DejaVuSans-3a"/>
      <use x="133.398438" xlink:href="#DejaVuSans-20"/>
      <use x="165.185547" xlink:href="#DejaVuSans-34"/>
      <use x="228.808594" xlink:href="#DejaVuSans-2f"/>
      <use x="262.5" xlink:href="#DejaVuSans-35"/>
     </g>
    </g>
    <g id="line2d_126">
     <path d="M 80.208 88.365375 
L 120.208 88.365375 
" style="fill:none;stroke:#bf00bf;stroke-linecap:square;stroke-width:1.5;"/>
    </g>
    <g id="line2d_127"/>
    <g id="text_17">
     <!-- -4: 4/5 -->
     <g transform="translate(136.208 95.365375)scale(0.2 -0.2)">
      <use xlink:href="#DejaVuSans-2d"/>
      <use x="36.083984" xlink:href="#DejaVuSans-34"/>
      <use x="99.707031" xlink:href="#DejaVuSans-3a"/>
      <use x="133.398438" xlink:href="#DejaVuSans-20"/>
      <use x="165.185547" xlink:href="#DejaVuSans-34"/>
      <use x="228.808594" xlink:href="#DejaVuSans-2f"/>
      <use x="262.5" xlink:href="#DejaVuSans-35"/>
     </g>
    </g>
    <g id="line2d_128">
     <path d="M 80.208 117.721625 
L 120.208 117.721625 
" style="fill:none;stroke:#ff0000;stroke-linecap:square;stroke-width:3;"/>
    </g>
    <g id="line2d_129"/>
    <g id="text_18">
     <!-- -8: 4/5 -->
     <g transform="translate(136.208 124.721625)scale(0.2 -0.2)">
      <use xlink:href="#DejaVuSans-2d"/>
      <use x="36.083984" xlink:href="#DejaVuSans-38"/>
      <use x="99.707031" xlink:href="#DejaVuSans-3a"/>
      <use x="133.398438" xlink:href="#DejaVuSans-20"/>
      <use x="165.185547" xlink:href="#DejaVuSans-34"/>
      <use x="228.808594" xlink:href="#DejaVuSans-2f"/>
      <use x="262.5" xlink:href="#DejaVuSans-35"/>
     </g>
    </g>
   </g>
  </g>
 </g>
 <defs>
  <clipPath id="p1ac9647ed4">
   <rect height="290.304" width="398.592" x="62.208" y="3.456"/>
  </clipPath>
 </defs>
</svg>
