<?xml version="1.0" encoding="utf-8" standalone="no"?>
<!DOCTYPE svg PUBLIC "-//W3C//DTD SVG 1.1//EN"
  "http://www.w3.org/Graphics/SVG/1.1/DTD/svg11.dtd">
<svg height="345.6pt" version="1.1" viewBox="0 0 460.8 345.6" width="460.8pt" xmlns="http://www.w3.org/2000/svg" xmlns:xlink="http://www.w3.org/1999/xlink">
 <metadata>
  <rdf:RDF xmlns:cc="http://creativecommons.org/ns#" xmlns:dc="http://purl.org/dc/elements/1.1/" xmlns:rdf="http://www.w3.org/1999/02/22-rdf-syntax-ns#">
   <cc:Work>
    <dc:type rdf:resource="http://purl.org/dc/dcmitype/StillImage"/>
    <dc:date>2021-07-27T16:03:39.859061</dc:date>
    <dc:format>image/svg+xml</dc:format>
    <dc:creator>
     <cc:Agent>
      <dc:title>Matplotlib v3.4.2, https://matplotlib.org/</dc:title>
     </cc:Agent>
    </dc:creator>
   </cc:Work>
  </rdf:RDF>
 </metadata>
 <defs>
  <style type="text/css">*{stroke-linecap:butt;stroke-linejoin:round;}</style>
 </defs>
 <g id="figure_1">
  <g id="patch_1">
   <path d="M 0 345.6 
L 460.8 345.6 
L 460.8 0 
L 0 0 
z
" style="fill:#ffffff;"/>
  </g>
  <g id="axes_1">
   <g id="patch_2">
    <path d="M 62.208 293.76 
L 460.8 293.76 
L 460.8 3.456 
L 62.208 3.456 
z
" style="fill:#ffffff;"/>
   </g>
   <g id="line2d_1"/>
   <g id="line2d_2"/>
   <g id="line2d_3">
    <path clip-path="url(#p8ad4b0b4c2)" d="M 243.310075 293.76 
L 243.310075 289.927604 
L 283.746917 289.927604 
L 283.746917 286.095208 
L 301.61789 286.095208 
L 301.61789 282.262812 
L 331.074024 282.262812 
L 331.074024 278.430416 
L 337.055096 278.430416 
L 337.055096 274.59802 
L 337.451621 274.59802 
L 337.451621 270.765624 
L 339.929384 270.765624 
L 339.929384 266.933228 
L 348.81689 266.933228 
L 348.81689 263.100832 
L 360.595707 263.100832 
L 360.595707 259.268436 
L 368.824688 259.268436 
L 368.824688 255.43604 
L 369.840804 255.43604 
L 369.840804 251.603644 
L 374.862735 251.603644 
L 374.862735 247.771248 
L 388.760602 247.771248 
L 388.760602 243.938851 
L 422.03374 243.938851 
L 422.03374 240.106455 
L 424.056762 240.106455 
L 424.056762 236.274059 
L 425.158601 236.274059 
L 425.158601 232.441663 
L 425.158601 232.441663 
L 425.158601 232.441663 
L 460.8 232.441663 
" style="fill:none;stroke:#f5deb3;stroke-linecap:square;stroke-width:1.5;"/>
   </g>
   <g id="line2d_4">
    <path clip-path="url(#p8ad4b0b4c2)" d="M 277.50114 293.76 
L 277.50114 289.927604 
L 287.440197 289.927604 
L 287.440197 286.095208 
L 292.754891 286.095208 
L 292.754891 282.262812 
L 312.926519 282.262812 
L 312.926519 278.430416 
L 316.433725 278.430416 
L 316.433725 274.59802 
L 361.427257 274.59802 
L 361.427257 270.765624 
L 364.322206 270.765624 
L 364.322206 266.933228 
L 368.231248 266.933228 
L 368.231248 263.100832 
L 374.077223 263.100832 
L 374.077223 259.268436 
L 376.140572 259.268436 
L 376.140572 255.43604 
L 382.066634 255.43604 
L 382.066634 251.603644 
L 384.850624 251.603644 
L 384.850624 247.771248 
L 386.356996 247.771248 
L 386.356996 243.938851 
L 390.26525 243.938851 
L 390.26525 240.106455 
L 394.615674 240.106455 
L 394.615674 236.274059 
L 394.789308 236.274059 
L 394.789308 232.441663 
L 396.149901 232.441663 
L 396.149901 228.609267 
L 399.049797 228.609267 
L 399.049797 224.776871 
L 401.871861 224.776871 
L 401.871861 220.944475 
L 402.04728 220.944475 
L 402.04728 217.112079 
L 404.664555 217.112079 
L 404.664555 213.279683 
L 404.973817 213.279683 
L 404.973817 209.447287 
L 410.927267 209.447287 
L 410.927267 205.614891 
L 414.676163 205.614891 
L 414.676163 201.782495 
L 415.176403 201.782495 
L 415.176403 197.950099 
L 418.175773 197.950099 
L 418.175773 194.117703 
L 418.175773 194.117703 
L 418.175773 194.117703 
L 460.8 194.117703 
" style="fill:none;stroke:#f5deb3;stroke-linecap:square;stroke-width:1.5;"/>
   </g>
   <g id="line2d_5"/>
   <g id="line2d_6"/>
   <g id="line2d_7">
    <path clip-path="url(#p8ad4b0b4c2)" d="M 248.834419 293.76 
L 248.834419 289.927604 
L 322.622835 289.927604 
L 322.622835 286.095208 
L 323.645453 286.095208 
L 323.645453 282.262812 
L 363.794876 282.262812 
L 363.794876 278.430416 
L 366.190775 278.430416 
L 366.190775 274.59802 
L 396.774904 274.59802 
L 396.774904 270.765624 
L 403.161965 270.765624 
L 403.161965 266.933228 
L 408.156261 266.933228 
L 408.156261 263.100832 
L 411.701183 263.100832 
L 411.701183 259.268436 
L 434.918754 259.268436 
L 434.918754 255.43604 
L 455.039576 255.43604 
L 455.039576 251.603644 
L 461.124733 251.603644 
L 461.124733 247.771248 
L 461.8 247.771248 
" style="fill:none;stroke:#f5deb3;stroke-linecap:square;stroke-width:1.5;"/>
   </g>
   <g id="line2d_8"/>
   <g id="line2d_9">
    <path clip-path="url(#p8ad4b0b4c2)" d="M 248.657452 293.76 
L 248.657452 289.927604 
L 249.931465 289.927604 
L 249.931465 286.095208 
L 299.355515 286.095208 
L 299.355515 282.262812 
L 331.613378 282.262812 
L 331.613378 278.430416 
L 356.118429 278.430416 
L 356.118429 274.59802 
L 359.268685 274.59802 
L 359.268685 270.765624 
L 398.220207 270.765624 
L 398.220207 266.933228 
L 416.016009 266.933228 
L 416.016009 263.100832 
L 433.185541 263.100832 
L 433.185541 259.268436 
L 436.963226 259.268436 
L 436.963226 255.43604 
L 437.548079 255.43604 
L 437.548079 251.603644 
L 437.781286 251.603644 
L 437.781286 247.771248 
L 452.69462 247.771248 
L 452.69462 243.938851 
L 452.988321 243.938851 
L 452.988321 240.106455 
L 453.936387 240.106455 
L 453.936387 236.274059 
L 454.656887 236.274059 
L 454.656887 232.441663 
L 456.651045 232.441663 
L 456.651045 228.609267 
L 461.8 228.609267 
" style="fill:none;stroke:#f5deb3;stroke-linecap:square;stroke-width:1.5;"/>
   </g>
   <g id="line2d_10">
    <path clip-path="url(#p8ad4b0b4c2)" d="M 447.41692 293.76 
L 447.41692 289.927604 
L 461.8 289.927604 
" style="fill:none;stroke:#f5deb3;stroke-linecap:square;stroke-width:1.5;"/>
   </g>
   <g id="line2d_11">
    <path clip-path="url(#p8ad4b0b4c2)" d="M 276.932532 293.76 
L 276.932532 289.927604 
L 299.781468 289.927604 
L 299.781468 286.095208 
L 321.997439 286.095208 
L 321.997439 282.262812 
L 323.370145 282.262812 
L 323.370145 278.430416 
L 332.980958 278.430416 
L 332.980958 274.59802 
L 348.198932 274.59802 
L 348.198932 270.765624 
L 358.989571 270.765624 
L 358.989571 266.933228 
L 373.01749 266.933228 
L 373.01749 263.100832 
L 373.271997 263.100832 
L 373.271997 259.268436 
L 383.036158 259.268436 
L 383.036158 255.43604 
L 383.591222 255.43604 
L 383.591222 251.603644 
L 384.197999 251.603644 
L 384.197999 247.771248 
L 391.066207 247.771248 
L 391.066207 243.938851 
L 402.172209 243.938851 
L 402.172209 240.106455 
L 405.640504 240.106455 
L 405.640504 236.274059 
L 407.098995 236.274059 
L 407.098995 232.441663 
L 409.495115 232.441663 
L 409.495115 228.609267 
L 418.47435 228.609267 
L 418.47435 224.776871 
L 419.579307 224.776871 
L 419.579307 220.944475 
L 421.177994 220.944475 
L 421.177994 217.112079 
L 428.686381 217.112079 
L 428.686381 213.279683 
L 432.917453 213.279683 
L 432.917453 209.447287 
L 434.941922 209.447287 
L 434.941922 205.614891 
L 438.797945 205.614891 
L 438.797945 201.782495 
L 443.786301 201.782495 
L 443.786301 197.950099 
L 461.8 197.950099 
" style="fill:none;stroke:#f5deb3;stroke-linecap:square;stroke-width:1.5;"/>
   </g>
   <g id="line2d_12">
    <path clip-path="url(#p8ad4b0b4c2)" d="M 291.164525 293.76 
L 291.164525 289.927604 
L 379.384056 289.927604 
L 379.384056 286.095208 
L 379.384056 286.095208 
L 379.384056 286.095208 
L 460.8 286.095208 
" style="fill:none;stroke:#f5deb3;stroke-linecap:square;stroke-width:1.5;"/>
   </g>
   <g id="line2d_13"/>
   <g id="line2d_14">
    <path clip-path="url(#p8ad4b0b4c2)" d="M 227.100128 293.76 
L 227.100128 289.927604 
L 259.737669 289.927604 
L 259.737669 286.095208 
L 290.220867 286.095208 
L 290.220867 282.262812 
L 305.942398 282.262812 
L 305.942398 278.430416 
L 315.196759 278.430416 
L 315.196759 274.59802 
L 318.589015 274.59802 
L 318.589015 270.765624 
L 323.383554 270.765624 
L 323.383554 266.933228 
L 336.360158 266.933228 
L 336.360158 263.100832 
L 345.679216 263.100832 
L 345.679216 259.268436 
L 357.615608 259.268436 
L 357.615608 255.43604 
L 368.814488 255.43604 
L 368.814488 251.603644 
L 384.977946 251.603644 
L 384.977946 247.771248 
L 392.698274 247.771248 
L 392.698274 243.938851 
L 408.956496 243.938851 
L 408.956496 240.106455 
L 410.843337 240.106455 
L 410.843337 236.274059 
L 411.80167 236.274059 
L 411.80167 232.441663 
L 414.882006 232.441663 
L 414.882006 228.609267 
L 416.016009 228.609267 
L 416.016009 224.776871 
L 417.020267 224.776871 
L 417.020267 220.944475 
L 420.607211 220.944475 
L 420.607211 217.112079 
L 424.886418 217.112079 
L 424.886418 213.279683 
L 425.479279 213.279683 
L 425.479279 209.447287 
L 425.479279 209.447287 
L 425.479279 209.447287 
L 460.8 209.447287 
" style="fill:none;stroke:#f5deb3;stroke-linecap:square;stroke-width:1.5;"/>
   </g>
   <g id="line2d_15"/>
   <g id="line2d_16">
    <path clip-path="url(#p8ad4b0b4c2)" d="M 340.615164 293.76 
L 340.615164 289.927604 
L 377.056694 289.927604 
L 377.056694 286.095208 
L 386.559442 286.095208 
L 386.559442 282.262812 
L 388.802168 282.262812 
L 388.802168 278.430416 
L 398.544673 278.430416 
L 398.544673 274.59802 
L 424.535533 274.59802 
L 424.535533 270.765624 
L 451.04711 270.765624 
L 451.04711 266.933228 
L 451.15391 266.933228 
L 451.15391 263.100832 
L 459.842697 263.100832 
L 459.842697 259.268436 
L 461.8 259.268436 
" style="fill:none;stroke:#f5deb3;stroke-linecap:square;stroke-width:1.5;"/>
   </g>
   <g id="line2d_17"/>
   <g id="line2d_18">
    <path clip-path="url(#p8ad4b0b4c2)" d="M 217.990369 293.76 
L 217.990369 289.927604 
L 270.85724 289.927604 
L 270.85724 286.095208 
L 279.640511 286.095208 
L 279.640511 282.262812 
L 285.068555 282.262812 
L 285.068555 278.430416 
L 288.497082 278.430416 
L 288.497082 274.59802 
L 293.935296 274.59802 
L 293.935296 270.765624 
L 294.47358 270.765624 
L 294.47358 266.933228 
L 304.356617 266.933228 
L 304.356617 263.100832 
L 308.776364 263.100832 
L 308.776364 259.268436 
L 319.294008 259.268436 
L 319.294008 255.43604 
L 324.852123 255.43604 
L 324.852123 251.603644 
L 326.650139 251.603644 
L 326.650139 247.771248 
L 337.003825 247.771248 
L 337.003825 243.938851 
L 338.25872 243.938851 
L 338.25872 240.106455 
L 339.28535 240.106455 
L 339.28535 236.274059 
L 342.161087 236.274059 
L 342.161087 232.441663 
L 343.19976 232.441663 
L 343.19976 228.609267 
L 361.044203 228.609267 
L 361.044203 224.776871 
L 375.313968 224.776871 
L 375.313968 220.944475 
L 376.270339 220.944475 
L 376.270339 217.112079 
L 386.222548 217.112079 
L 386.222548 213.279683 
L 387.373914 213.279683 
L 387.373914 209.447287 
L 387.373914 209.447287 
L 387.373914 209.447287 
L 460.8 209.447287 
" style="fill:none;stroke:#f5deb3;stroke-linecap:square;stroke-width:1.5;"/>
   </g>
   <g id="line2d_19">
    <path clip-path="url(#p8ad4b0b4c2)" d="M 400.051901 293.76 
L 400.051901 289.927604 
L 404.994598 289.927604 
L 404.994598 286.095208 
L 408.349161 286.095208 
L 408.349161 282.262812 
L 413.371266 282.262812 
L 413.371266 278.430416 
L 413.457155 278.430416 
L 413.457155 274.59802 
L 413.743204 274.59802 
L 413.743204 270.765624 
L 415.341666 270.765624 
L 415.341666 266.933228 
L 416.033532 266.933228 
L 416.033532 263.100832 
L 416.741858 263.100832 
L 416.741858 259.268436 
L 416.830839 259.268436 
L 416.830839 255.43604 
L 424.589319 255.43604 
L 424.589319 251.603644 
L 434.274539 251.603644 
L 434.274539 247.771248 
L 442.338906 247.771248 
L 442.338906 243.938851 
L 446.629103 243.938851 
L 446.629103 240.106455 
L 461.8 240.106455 
" style="fill:none;stroke:#f5deb3;stroke-linecap:square;stroke-width:1.5;"/>
   </g>
   <g id="line2d_20">
    <path clip-path="url(#p8ad4b0b4c2)" d="M 257.461953 293.76 
L 257.461953 289.927604 
L 264.038699 289.927604 
L 264.038699 286.095208 
L 308.18229 286.095208 
L 308.18229 282.262812 
L 315.662315 282.262812 
L 315.662315 278.430416 
L 322.565393 278.430416 
L 322.565393 274.59802 
L 325.475003 274.59802 
L 325.475003 270.765624 
L 327.697712 270.765624 
L 327.697712 266.933228 
L 327.992332 266.933228 
L 327.992332 263.100832 
L 342.267688 263.100832 
L 342.267688 259.268436 
L 356.315994 259.268436 
L 356.315994 255.43604 
L 359.54047 255.43604 
L 359.54047 251.603644 
L 362.03031 251.603644 
L 362.03031 247.771248 
L 362.205529 247.771248 
L 362.205529 243.938851 
L 362.836494 243.938851 
L 362.836494 240.106455 
L 364.395474 240.106455 
L 364.395474 236.274059 
L 372.102642 236.274059 
L 372.102642 232.441663 
L 372.325762 232.441663 
L 372.325762 228.609267 
L 373.490145 228.609267 
L 373.490145 224.776871 
L 374.859087 224.776871 
L 374.859087 220.944475 
L 379.930832 220.944475 
L 379.930832 217.112079 
L 383.253336 217.112079 
L 383.253336 213.279683 
L 389.194633 213.279683 
L 389.194633 209.447287 
L 407.382489 209.447287 
L 407.382489 205.614891 
L 422.520643 205.614891 
L 422.520643 201.782495 
L 440.345634 201.782495 
L 440.345634 197.950099 
L 440.886998 197.950099 
L 440.886998 194.117703 
L 447.239169 194.117703 
L 447.239169 190.285307 
L 450.503243 190.285307 
L 450.503243 186.452911 
L 450.503243 186.452911 
L 450.503243 186.452911 
L 460.8 186.452911 
" style="fill:none;stroke:#f5deb3;stroke-linecap:square;stroke-width:1.5;"/>
   </g>
   <g id="line2d_21">
    <path clip-path="url(#p8ad4b0b4c2)" d="M 421.352928 293.76 
L 421.352928 289.927604 
L 421.352928 289.927604 
L 421.352928 289.927604 
L 460.8 289.927604 
" style="fill:none;stroke:#f5deb3;stroke-linecap:square;stroke-width:1.5;"/>
   </g>
   <g id="line2d_22">
    <path clip-path="url(#p8ad4b0b4c2)" d="M 359.868003 293.76 
L 359.868003 289.927604 
L 387.343592 289.927604 
L 387.343592 286.095208 
L 397.62683 286.095208 
L 397.62683 282.262812 
L 400.131707 282.262812 
L 400.131707 278.430416 
L 403.180512 278.430416 
L 403.180512 274.59802 
L 409.470791 274.59802 
L 409.470791 270.765624 
L 420.176147 270.765624 
L 420.176147 266.933228 
L 420.422715 266.933228 
L 420.422715 263.100832 
L 423.380232 263.100832 
L 423.380232 259.268436 
L 423.380232 259.268436 
L 423.380232 259.268436 
L 460.8 259.268436 
" style="fill:none;stroke:#f5deb3;stroke-linecap:square;stroke-width:1.5;"/>
   </g>
   <g id="line2d_23">
    <path clip-path="url(#p8ad4b0b4c2)" d="M 336.920129 293.76 
L 336.920129 289.927604 
L 336.920129 289.927604 
L 336.920129 289.927604 
L 460.8 289.927604 
" style="fill:none;stroke:#f5deb3;stroke-linecap:square;stroke-width:1.5;"/>
   </g>
   <g id="line2d_24">
    <path clip-path="url(#p8ad4b0b4c2)" d="M 402.005427 293.76 
L 402.005427 289.927604 
L 409.083855 289.927604 
L 409.083855 286.095208 
L 412.101891 286.095208 
L 412.101891 282.262812 
L 453.94202 282.262812 
L 453.94202 278.430416 
L 453.980534 278.430416 
L 453.980534 274.59802 
L 455.297434 274.59802 
L 455.297434 270.765624 
L 455.444479 270.765624 
L 455.444479 266.933228 
L 455.6601 266.933228 
L 455.6601 263.100832 
L 460.124513 263.100832 
L 460.124513 259.268436 
L 461.8 259.268436 
" style="fill:none;stroke:#f5deb3;stroke-linecap:square;stroke-width:1.5;"/>
   </g>
   <g id="line2d_25">
    <path clip-path="url(#p8ad4b0b4c2)" d="M 405.983136 293.76 
L 405.983136 289.927604 
L 406.447122 289.927604 
L 406.447122 286.095208 
L 407.628931 286.095208 
L 407.628931 282.262812 
L 407.628931 282.262812 
L 407.628931 282.262812 
L 460.8 282.262812 
" style="fill:none;stroke:#f5deb3;stroke-linecap:square;stroke-width:1.5;"/>
   </g>
   <g id="line2d_26">
    <path clip-path="url(#p8ad4b0b4c2)" d="M 317.023829 293.76 
L 317.023829 290.530453 
L 395.201114 290.530453 
L 395.201114 287.300906 
L 423.294765 287.300906 
L 423.294765 284.071358 
L 425.679853 284.071358 
L 425.679853 280.841811 
L 454.970324 280.841811 
L 454.970324 277.612264 
L 461.119047 277.612264 
L 461.119047 274.382717 
L 461.119047 274.382717 
" style="fill:none;stroke:#f5deb3;stroke-linecap:square;stroke-width:1.5;"/>
   </g>
   <g id="line2d_27">
    <path clip-path="url(#p8ad4b0b4c2)" d="M 242.156391 293.76 
L 242.156391 289.927604 
L 287.949188 289.927604 
L 287.949188 286.095208 
L 291.375888 286.095208 
L 291.375888 282.262812 
L 295.771923 282.262812 
L 295.771923 278.430416 
L 311.939832 278.430416 
L 311.939832 274.59802 
L 319.016512 274.59802 
L 319.016512 270.765624 
L 333.906159 270.765624 
L 333.906159 266.933228 
L 334.812219 266.933228 
L 334.812219 263.100832 
L 345.908963 263.100832 
L 345.908963 259.268436 
L 363.678881 259.268436 
L 363.678881 255.43604 
L 376.404594 255.43604 
L 376.404594 251.603644 
L 382.501472 251.603644 
L 382.501472 247.771248 
L 383.70399 247.771248 
L 383.70399 243.938851 
L 398.174099 243.938851 
L 398.174099 240.106455 
L 402.429975 240.106455 
L 402.429975 236.274059 
L 409.694919 236.274059 
L 409.694919 232.441663 
L 413.659029 232.441663 
L 413.659029 228.609267 
L 413.98055 228.609267 
L 413.98055 224.776871 
L 418.775498 224.776871 
L 418.775498 220.944475 
L 429.545713 220.944475 
L 429.545713 217.112079 
L 443.816561 217.112079 
L 443.816561 213.279683 
L 450.946522 213.279683 
L 450.946522 209.447287 
L 453.342903 209.447287 
L 453.342903 205.614891 
L 461.8 205.614891 
" style="fill:none;stroke:#f5deb3;stroke-linecap:square;stroke-width:1.5;"/>
   </g>
   <g id="line2d_28">
    <path clip-path="url(#p8ad4b0b4c2)" d="M 398.006201 293.76 
L 398.006201 289.927604 
L 398.206461 289.927604 
L 398.206461 286.095208 
L 400.792086 286.095208 
L 400.792086 282.262812 
L 442.999904 282.262812 
L 442.999904 278.430416 
L 443.537215 278.430416 
L 443.537215 274.59802 
L 461.8 274.59802 
" style="fill:none;stroke:#f5deb3;stroke-linecap:square;stroke-width:1.5;"/>
   </g>
   <g id="line2d_29">
    <path clip-path="url(#p8ad4b0b4c2)" d="M 361.131024 293.76 
L 361.131024 289.927604 
L 386.283817 289.927604 
L 386.283817 286.095208 
L 386.283817 286.095208 
L 386.283817 286.095208 
L 460.8 286.095208 
" style="fill:none;stroke:#f5deb3;stroke-linecap:square;stroke-width:1.5;"/>
   </g>
   <g id="line2d_30">
    <path clip-path="url(#p8ad4b0b4c2)" d="M 303.797444 293.76 
L 303.797444 289.927604 
L 330.650124 289.927604 
L 330.650124 286.095208 
L 357.587387 286.095208 
L 357.587387 282.262812 
L 365.00488 282.262812 
L 365.00488 278.430416 
L 389.116858 278.430416 
L 389.116858 274.59802 
L 397.085196 274.59802 
L 397.085196 270.765624 
L 409.277796 270.765624 
L 409.277796 266.933228 
L 423.707531 266.933228 
L 423.707531 263.100832 
L 424.701019 263.100832 
L 424.701019 259.268436 
L 425.656428 259.268436 
L 425.656428 255.43604 
L 425.656428 255.43604 
L 425.656428 255.43604 
L 460.8 255.43604 
" style="fill:none;stroke:#f5deb3;stroke-linecap:square;stroke-width:1.5;"/>
   </g>
   <g id="matplotlib.axis_1">
    <g id="xtick_1">
     <g id="line2d_31">
      <path clip-path="url(#p8ad4b0b4c2)" d="M 62.208 293.76 
L 62.208 3.456 
" style="fill:none;stroke:#b0b0b0;stroke-linecap:square;stroke-width:0.8;"/>
     </g>
     <g id="line2d_32">
      <defs>
       <path d="M 0 0 
L 0 3.5 
" id="m9fb93c073a" style="stroke:#000000;stroke-width:0.8;"/>
      </defs>
      <g>
       <use style="stroke:#000000;stroke-width:0.8;" x="62.208" xlink:href="#m9fb93c073a" y="293.76"/>
      </g>
     </g>
     <g id="text_1">
      <!-- 0 -->
      <g transform="translate(55.8455 315.956875)scale(0.2 -0.2)">
       <defs>
        <path d="M 2034 4250 
Q 1547 4250 1301 3770 
Q 1056 3291 1056 2328 
Q 1056 1369 1301 889 
Q 1547 409 2034 409 
Q 2525 409 2770 889 
Q 3016 1369 3016 2328 
Q 3016 3291 2770 3770 
Q 2525 4250 2034 4250 
z
M 2034 4750 
Q 2819 4750 3233 4129 
Q 3647 3509 3647 2328 
Q 3647 1150 3233 529 
Q 2819 -91 2034 -91 
Q 1250 -91 836 529 
Q 422 1150 422 2328 
Q 422 3509 836 4129 
Q 1250 4750 2034 4750 
z
" id="DejaVuSans-30" transform="scale(0.015625)"/>
       </defs>
       <use xlink:href="#DejaVuSans-30"/>
      </g>
     </g>
    </g>
    <g id="xtick_2">
     <g id="line2d_33">
      <path clip-path="url(#p8ad4b0b4c2)" d="M 244.352034 293.76 
L 244.352034 3.456 
" style="fill:none;stroke:#b0b0b0;stroke-linecap:square;stroke-width:0.8;"/>
     </g>
     <g id="line2d_34">
      <g>
       <use style="stroke:#000000;stroke-width:0.8;" x="244.352034" xlink:href="#m9fb93c073a" y="293.76"/>
      </g>
     </g>
     <g id="text_2">
      <!-- 2 -->
      <g transform="translate(237.989534 315.956875)scale(0.2 -0.2)">
       <defs>
        <path d="M 1228 531 
L 3431 531 
L 3431 0 
L 469 0 
L 469 531 
Q 828 903 1448 1529 
Q 2069 2156 2228 2338 
Q 2531 2678 2651 2914 
Q 2772 3150 2772 3378 
Q 2772 3750 2511 3984 
Q 2250 4219 1831 4219 
Q 1534 4219 1204 4116 
Q 875 4013 500 3803 
L 500 4441 
Q 881 4594 1212 4672 
Q 1544 4750 1819 4750 
Q 2544 4750 2975 4387 
Q 3406 4025 3406 3419 
Q 3406 3131 3298 2873 
Q 3191 2616 2906 2266 
Q 2828 2175 2409 1742 
Q 1991 1309 1228 531 
z
" id="DejaVuSans-32" transform="scale(0.015625)"/>
       </defs>
       <use xlink:href="#DejaVuSans-32"/>
      </g>
     </g>
    </g>
    <g id="xtick_3">
     <g id="line2d_35">
      <path clip-path="url(#p8ad4b0b4c2)" d="M 426.496069 293.76 
L 426.496069 3.456 
" style="fill:none;stroke:#b0b0b0;stroke-linecap:square;stroke-width:0.8;"/>
     </g>
     <g id="line2d_36">
      <g>
       <use style="stroke:#000000;stroke-width:0.8;" x="426.496069" xlink:href="#m9fb93c073a" y="293.76"/>
      </g>
     </g>
     <g id="text_3">
      <!-- 4 -->
      <g transform="translate(420.133569 315.956875)scale(0.2 -0.2)">
       <defs>
        <path d="M 2419 4116 
L 825 1625 
L 2419 1625 
L 2419 4116 
z
M 2253 4666 
L 3047 4666 
L 3047 1625 
L 3713 1625 
L 3713 1100 
L 3047 1100 
L 3047 0 
L 2419 0 
L 2419 1100 
L 313 1100 
L 313 1709 
L 2253 4666 
z
" id="DejaVuSans-34" transform="scale(0.015625)"/>
       </defs>
       <use xlink:href="#DejaVuSans-34"/>
      </g>
     </g>
    </g>
    <g id="xtick_4">
     <g id="line2d_37">
      <path clip-path="url(#p8ad4b0b4c2)" d="M 89.623409 293.76 
L 89.623409 3.456 
" style="fill:none;stroke:#b0b0b0;stroke-linecap:square;stroke-width:0.8;"/>
     </g>
     <g id="line2d_38">
      <defs>
       <path d="M 0 0 
L 0 2 
" id="m5b0376e2fa" style="stroke:#000000;stroke-width:0.6;"/>
      </defs>
      <g>
       <use style="stroke:#000000;stroke-width:0.6;" x="89.623409" xlink:href="#m5b0376e2fa" y="293.76"/>
      </g>
     </g>
    </g>
    <g id="xtick_5">
     <g id="line2d_39">
      <path clip-path="url(#p8ad4b0b4c2)" d="M 105.660395 293.76 
L 105.660395 3.456 
" style="fill:none;stroke:#b0b0b0;stroke-linecap:square;stroke-width:0.8;"/>
     </g>
     <g id="line2d_40">
      <g>
       <use style="stroke:#000000;stroke-width:0.6;" x="105.660395" xlink:href="#m5b0376e2fa" y="293.76"/>
      </g>
     </g>
    </g>
    <g id="xtick_6">
     <g id="line2d_41">
      <path clip-path="url(#p8ad4b0b4c2)" d="M 117.038818 293.76 
L 117.038818 3.456 
" style="fill:none;stroke:#b0b0b0;stroke-linecap:square;stroke-width:0.8;"/>
     </g>
     <g id="line2d_42">
      <g>
       <use style="stroke:#000000;stroke-width:0.6;" x="117.038818" xlink:href="#m5b0376e2fa" y="293.76"/>
      </g>
     </g>
    </g>
    <g id="xtick_7">
     <g id="line2d_43">
      <path clip-path="url(#p8ad4b0b4c2)" d="M 125.864608 293.76 
L 125.864608 3.456 
" style="fill:none;stroke:#b0b0b0;stroke-linecap:square;stroke-width:0.8;"/>
     </g>
     <g id="line2d_44">
      <g>
       <use style="stroke:#000000;stroke-width:0.6;" x="125.864608" xlink:href="#m5b0376e2fa" y="293.76"/>
      </g>
     </g>
    </g>
    <g id="xtick_8">
     <g id="line2d_45">
      <path clip-path="url(#p8ad4b0b4c2)" d="M 133.075804 293.76 
L 133.075804 3.456 
" style="fill:none;stroke:#b0b0b0;stroke-linecap:square;stroke-width:0.8;"/>
     </g>
     <g id="line2d_46">
      <g>
       <use style="stroke:#000000;stroke-width:0.6;" x="133.075804" xlink:href="#m5b0376e2fa" y="293.76"/>
      </g>
     </g>
    </g>
    <g id="xtick_9">
     <g id="line2d_47">
      <path clip-path="url(#p8ad4b0b4c2)" d="M 139.172783 293.76 
L 139.172783 3.456 
" style="fill:none;stroke:#b0b0b0;stroke-linecap:square;stroke-width:0.8;"/>
     </g>
     <g id="line2d_48">
      <g>
       <use style="stroke:#000000;stroke-width:0.6;" x="139.172783" xlink:href="#m5b0376e2fa" y="293.76"/>
      </g>
     </g>
    </g>
    <g id="xtick_10">
     <g id="line2d_49">
      <path clip-path="url(#p8ad4b0b4c2)" d="M 144.454227 293.76 
L 144.454227 3.456 
" style="fill:none;stroke:#b0b0b0;stroke-linecap:square;stroke-width:0.8;"/>
     </g>
     <g id="line2d_50">
      <g>
       <use style="stroke:#000000;stroke-width:0.6;" x="144.454227" xlink:href="#m5b0376e2fa" y="293.76"/>
      </g>
     </g>
    </g>
    <g id="xtick_11">
     <g id="line2d_51">
      <path clip-path="url(#p8ad4b0b4c2)" d="M 149.11279 293.76 
L 149.11279 3.456 
" style="fill:none;stroke:#b0b0b0;stroke-linecap:square;stroke-width:0.8;"/>
     </g>
     <g id="line2d_52">
      <g>
       <use style="stroke:#000000;stroke-width:0.6;" x="149.11279" xlink:href="#m5b0376e2fa" y="293.76"/>
      </g>
     </g>
    </g>
    <g id="xtick_12">
     <g id="line2d_53">
      <path clip-path="url(#p8ad4b0b4c2)" d="M 180.695426 293.76 
L 180.695426 3.456 
" style="fill:none;stroke:#b0b0b0;stroke-linecap:square;stroke-width:0.8;"/>
     </g>
     <g id="line2d_54">
      <g>
       <use style="stroke:#000000;stroke-width:0.6;" x="180.695426" xlink:href="#m5b0376e2fa" y="293.76"/>
      </g>
     </g>
    </g>
    <g id="xtick_13">
     <g id="line2d_55">
      <path clip-path="url(#p8ad4b0b4c2)" d="M 196.732412 293.76 
L 196.732412 3.456 
" style="fill:none;stroke:#b0b0b0;stroke-linecap:square;stroke-width:0.8;"/>
     </g>
     <g id="line2d_56">
      <g>
       <use style="stroke:#000000;stroke-width:0.6;" x="196.732412" xlink:href="#m5b0376e2fa" y="293.76"/>
      </g>
     </g>
    </g>
    <g id="xtick_14">
     <g id="line2d_57">
      <path clip-path="url(#p8ad4b0b4c2)" d="M 208.110835 293.76 
L 208.110835 3.456 
" style="fill:none;stroke:#b0b0b0;stroke-linecap:square;stroke-width:0.8;"/>
     </g>
     <g id="line2d_58">
      <g>
       <use style="stroke:#000000;stroke-width:0.6;" x="208.110835" xlink:href="#m5b0376e2fa" y="293.76"/>
      </g>
     </g>
    </g>
    <g id="xtick_15">
     <g id="line2d_59">
      <path clip-path="url(#p8ad4b0b4c2)" d="M 216.936625 293.76 
L 216.936625 3.456 
" style="fill:none;stroke:#b0b0b0;stroke-linecap:square;stroke-width:0.8;"/>
     </g>
     <g id="line2d_60">
      <g>
       <use style="stroke:#000000;stroke-width:0.6;" x="216.936625" xlink:href="#m5b0376e2fa" y="293.76"/>
      </g>
     </g>
    </g>
    <g id="xtick_16">
     <g id="line2d_61">
      <path clip-path="url(#p8ad4b0b4c2)" d="M 224.147821 293.76 
L 224.147821 3.456 
" style="fill:none;stroke:#b0b0b0;stroke-linecap:square;stroke-width:0.8;"/>
     </g>
     <g id="line2d_62">
      <g>
       <use style="stroke:#000000;stroke-width:0.6;" x="224.147821" xlink:href="#m5b0376e2fa" y="293.76"/>
      </g>
     </g>
    </g>
    <g id="xtick_17">
     <g id="line2d_63">
      <path clip-path="url(#p8ad4b0b4c2)" d="M 230.2448 293.76 
L 230.2448 3.456 
" style="fill:none;stroke:#b0b0b0;stroke-linecap:square;stroke-width:0.8;"/>
     </g>
     <g id="line2d_64">
      <g>
       <use style="stroke:#000000;stroke-width:0.6;" x="230.2448" xlink:href="#m5b0376e2fa" y="293.76"/>
      </g>
     </g>
    </g>
    <g id="xtick_18">
     <g id="line2d_65">
      <path clip-path="url(#p8ad4b0b4c2)" d="M 235.526244 293.76 
L 235.526244 3.456 
" style="fill:none;stroke:#b0b0b0;stroke-linecap:square;stroke-width:0.8;"/>
     </g>
     <g id="line2d_66">
      <g>
       <use style="stroke:#000000;stroke-width:0.6;" x="235.526244" xlink:href="#m5b0376e2fa" y="293.76"/>
      </g>
     </g>
    </g>
    <g id="xtick_19">
     <g id="line2d_67">
      <path clip-path="url(#p8ad4b0b4c2)" d="M 240.184807 293.76 
L 240.184807 3.456 
" style="fill:none;stroke:#b0b0b0;stroke-linecap:square;stroke-width:0.8;"/>
     </g>
     <g id="line2d_68">
      <g>
       <use style="stroke:#000000;stroke-width:0.6;" x="240.184807" xlink:href="#m5b0376e2fa" y="293.76"/>
      </g>
     </g>
    </g>
    <g id="xtick_20">
     <g id="line2d_69">
      <path clip-path="url(#p8ad4b0b4c2)" d="M 271.767443 293.76 
L 271.767443 3.456 
" style="fill:none;stroke:#b0b0b0;stroke-linecap:square;stroke-width:0.8;"/>
     </g>
     <g id="line2d_70">
      <g>
       <use style="stroke:#000000;stroke-width:0.6;" x="271.767443" xlink:href="#m5b0376e2fa" y="293.76"/>
      </g>
     </g>
    </g>
    <g id="xtick_21">
     <g id="line2d_71">
      <path clip-path="url(#p8ad4b0b4c2)" d="M 287.804429 293.76 
L 287.804429 3.456 
" style="fill:none;stroke:#b0b0b0;stroke-linecap:square;stroke-width:0.8;"/>
     </g>
     <g id="line2d_72">
      <g>
       <use style="stroke:#000000;stroke-width:0.6;" x="287.804429" xlink:href="#m5b0376e2fa" y="293.76"/>
      </g>
     </g>
    </g>
    <g id="xtick_22">
     <g id="line2d_73">
      <path clip-path="url(#p8ad4b0b4c2)" d="M 299.182852 293.76 
L 299.182852 3.456 
" style="fill:none;stroke:#b0b0b0;stroke-linecap:square;stroke-width:0.8;"/>
     </g>
     <g id="line2d_74">
      <g>
       <use style="stroke:#000000;stroke-width:0.6;" x="299.182852" xlink:href="#m5b0376e2fa" y="293.76"/>
      </g>
     </g>
    </g>
    <g id="xtick_23">
     <g id="line2d_75">
      <path clip-path="url(#p8ad4b0b4c2)" d="M 308.008642 293.76 
L 308.008642 3.456 
" style="fill:none;stroke:#b0b0b0;stroke-linecap:square;stroke-width:0.8;"/>
     </g>
     <g id="line2d_76">
      <g>
       <use style="stroke:#000000;stroke-width:0.6;" x="308.008642" xlink:href="#m5b0376e2fa" y="293.76"/>
      </g>
     </g>
    </g>
    <g id="xtick_24">
     <g id="line2d_77">
      <path clip-path="url(#p8ad4b0b4c2)" d="M 315.219838 293.76 
L 315.219838 3.456 
" style="fill:none;stroke:#b0b0b0;stroke-linecap:square;stroke-width:0.8;"/>
     </g>
     <g id="line2d_78">
      <g>
       <use style="stroke:#000000;stroke-width:0.6;" x="315.219838" xlink:href="#m5b0376e2fa" y="293.76"/>
      </g>
     </g>
    </g>
    <g id="xtick_25">
     <g id="line2d_79">
      <path clip-path="url(#p8ad4b0b4c2)" d="M 321.316817 293.76 
L 321.316817 3.456 
" style="fill:none;stroke:#b0b0b0;stroke-linecap:square;stroke-width:0.8;"/>
     </g>
     <g id="line2d_80">
      <g>
       <use style="stroke:#000000;stroke-width:0.6;" x="321.316817" xlink:href="#m5b0376e2fa" y="293.76"/>
      </g>
     </g>
    </g>
    <g id="xtick_26">
     <g id="line2d_81">
      <path clip-path="url(#p8ad4b0b4c2)" d="M 326.598261 293.76 
L 326.598261 3.456 
" style="fill:none;stroke:#b0b0b0;stroke-linecap:square;stroke-width:0.8;"/>
     </g>
     <g id="line2d_82">
      <g>
       <use style="stroke:#000000;stroke-width:0.6;" x="326.598261" xlink:href="#m5b0376e2fa" y="293.76"/>
      </g>
     </g>
    </g>
    <g id="xtick_27">
     <g id="line2d_83">
      <path clip-path="url(#p8ad4b0b4c2)" d="M 331.256824 293.76 
L 331.256824 3.456 
" style="fill:none;stroke:#b0b0b0;stroke-linecap:square;stroke-width:0.8;"/>
     </g>
     <g id="line2d_84">
      <g>
       <use style="stroke:#000000;stroke-width:0.6;" x="331.256824" xlink:href="#m5b0376e2fa" y="293.76"/>
      </g>
     </g>
    </g>
    <g id="xtick_28">
     <g id="line2d_85">
      <path clip-path="url(#p8ad4b0b4c2)" d="M 362.83946 293.76 
L 362.83946 3.456 
" style="fill:none;stroke:#b0b0b0;stroke-linecap:square;stroke-width:0.8;"/>
     </g>
     <g id="line2d_86">
      <g>
       <use style="stroke:#000000;stroke-width:0.6;" x="362.83946" xlink:href="#m5b0376e2fa" y="293.76"/>
      </g>
     </g>
    </g>
    <g id="xtick_29">
     <g id="line2d_87">
      <path clip-path="url(#p8ad4b0b4c2)" d="M 378.876446 293.76 
L 378.876446 3.456 
" style="fill:none;stroke:#b0b0b0;stroke-linecap:square;stroke-width:0.8;"/>
     </g>
     <g id="line2d_88">
      <g>
       <use style="stroke:#000000;stroke-width:0.6;" x="378.876446" xlink:href="#m5b0376e2fa" y="293.76"/>
      </g>
     </g>
    </g>
    <g id="xtick_30">
     <g id="line2d_89">
      <path clip-path="url(#p8ad4b0b4c2)" d="M 390.254869 293.76 
L 390.254869 3.456 
" style="fill:none;stroke:#b0b0b0;stroke-linecap:square;stroke-width:0.8;"/>
     </g>
     <g id="line2d_90">
      <g>
       <use style="stroke:#000000;stroke-width:0.6;" x="390.254869" xlink:href="#m5b0376e2fa" y="293.76"/>
      </g>
     </g>
    </g>
    <g id="xtick_31">
     <g id="line2d_91">
      <path clip-path="url(#p8ad4b0b4c2)" d="M 399.08066 293.76 
L 399.08066 3.456 
" style="fill:none;stroke:#b0b0b0;stroke-linecap:square;stroke-width:0.8;"/>
     </g>
     <g id="line2d_92">
      <g>
       <use style="stroke:#000000;stroke-width:0.6;" x="399.08066" xlink:href="#m5b0376e2fa" y="293.76"/>
      </g>
     </g>
    </g>
    <g id="xtick_32">
     <g id="line2d_93">
      <path clip-path="url(#p8ad4b0b4c2)" d="M 406.291855 293.76 
L 406.291855 3.456 
" style="fill:none;stroke:#b0b0b0;stroke-linecap:square;stroke-width:0.8;"/>
     </g>
     <g id="line2d_94">
      <g>
       <use style="stroke:#000000;stroke-width:0.6;" x="406.291855" xlink:href="#m5b0376e2fa" y="293.76"/>
      </g>
     </g>
    </g>
    <g id="xtick_33">
     <g id="line2d_95">
      <path clip-path="url(#p8ad4b0b4c2)" d="M 412.388835 293.76 
L 412.388835 3.456 
" style="fill:none;stroke:#b0b0b0;stroke-linecap:square;stroke-width:0.8;"/>
     </g>
     <g id="line2d_96">
      <g>
       <use style="stroke:#000000;stroke-width:0.6;" x="412.388835" xlink:href="#m5b0376e2fa" y="293.76"/>
      </g>
     </g>
    </g>
    <g id="xtick_34">
     <g id="line2d_97">
      <path clip-path="url(#p8ad4b0b4c2)" d="M 417.670278 293.76 
L 417.670278 3.456 
" style="fill:none;stroke:#b0b0b0;stroke-linecap:square;stroke-width:0.8;"/>
     </g>
     <g id="line2d_98">
      <g>
       <use style="stroke:#000000;stroke-width:0.6;" x="417.670278" xlink:href="#m5b0376e2fa" y="293.76"/>
      </g>
     </g>
    </g>
    <g id="xtick_35">
     <g id="line2d_99">
      <path clip-path="url(#p8ad4b0b4c2)" d="M 422.328842 293.76 
L 422.328842 3.456 
" style="fill:none;stroke:#b0b0b0;stroke-linecap:square;stroke-width:0.8;"/>
     </g>
     <g id="line2d_100">
      <g>
       <use style="stroke:#000000;stroke-width:0.6;" x="422.328842" xlink:href="#m5b0376e2fa" y="293.76"/>
      </g>
     </g>
    </g>
    <g id="xtick_36">
     <g id="line2d_101">
      <path clip-path="url(#p8ad4b0b4c2)" d="M 453.911477 293.76 
L 453.911477 3.456 
" style="fill:none;stroke:#b0b0b0;stroke-linecap:square;stroke-width:0.8;"/>
     </g>
     <g id="line2d_102">
      <g>
       <use style="stroke:#000000;stroke-width:0.6;" x="453.911477" xlink:href="#m5b0376e2fa" y="293.76"/>
      </g>
     </g>
    </g>
    <g id="text_4">
     <!-- log10 of FEvals / DIM -->
     <g transform="translate(156.430563 339.313125)scale(0.2 -0.2)">
      <defs>
       <path d="M 603 4863 
L 1178 4863 
L 1178 0 
L 603 0 
L 603 4863 
z
" id="DejaVuSans-6c" transform="scale(0.015625)"/>
       <path d="M 1959 3097 
Q 1497 3097 1228 2736 
Q 959 2375 959 1747 
Q 959 1119 1226 758 
Q 1494 397 1959 397 
Q 2419 397 2687 759 
Q 2956 1122 2956 1747 
Q 2956 2369 2687 2733 
Q 2419 3097 1959 3097 
z
M 1959 3584 
Q 2709 3584 3137 3096 
Q 3566 2609 3566 1747 
Q 3566 888 3137 398 
Q 2709 -91 1959 -91 
Q 1206 -91 779 398 
Q 353 888 353 1747 
Q 353 2609 779 3096 
Q 1206 3584 1959 3584 
z
" id="DejaVuSans-6f" transform="scale(0.015625)"/>
       <path d="M 2906 1791 
Q 2906 2416 2648 2759 
Q 2391 3103 1925 3103 
Q 1463 3103 1205 2759 
Q 947 2416 947 1791 
Q 947 1169 1205 825 
Q 1463 481 1925 481 
Q 2391 481 2648 825 
Q 2906 1169 2906 1791 
z
M 3481 434 
Q 3481 -459 3084 -895 
Q 2688 -1331 1869 -1331 
Q 1566 -1331 1297 -1286 
Q 1028 -1241 775 -1147 
L 775 -588 
Q 1028 -725 1275 -790 
Q 1522 -856 1778 -856 
Q 2344 -856 2625 -561 
Q 2906 -266 2906 331 
L 2906 616 
Q 2728 306 2450 153 
Q 2172 0 1784 0 
Q 1141 0 747 490 
Q 353 981 353 1791 
Q 353 2603 747 3093 
Q 1141 3584 1784 3584 
Q 2172 3584 2450 3431 
Q 2728 3278 2906 2969 
L 2906 3500 
L 3481 3500 
L 3481 434 
z
" id="DejaVuSans-67" transform="scale(0.015625)"/>
       <path d="M 794 531 
L 1825 531 
L 1825 4091 
L 703 3866 
L 703 4441 
L 1819 4666 
L 2450 4666 
L 2450 531 
L 3481 531 
L 3481 0 
L 794 0 
L 794 531 
z
" id="DejaVuSans-31" transform="scale(0.015625)"/>
       <path id="DejaVuSans-20" transform="scale(0.015625)"/>
       <path d="M 2375 4863 
L 2375 4384 
L 1825 4384 
Q 1516 4384 1395 4259 
Q 1275 4134 1275 3809 
L 1275 3500 
L 2222 3500 
L 2222 3053 
L 1275 3053 
L 1275 0 
L 697 0 
L 697 3053 
L 147 3053 
L 147 3500 
L 697 3500 
L 697 3744 
Q 697 4328 969 4595 
Q 1241 4863 1831 4863 
L 2375 4863 
z
" id="DejaVuSans-66" transform="scale(0.015625)"/>
       <path d="M 628 4666 
L 3309 4666 
L 3309 4134 
L 1259 4134 
L 1259 2759 
L 3109 2759 
L 3109 2228 
L 1259 2228 
L 1259 0 
L 628 0 
L 628 4666 
z
" id="DejaVuSans-46" transform="scale(0.015625)"/>
       <path d="M 628 4666 
L 3578 4666 
L 3578 4134 
L 1259 4134 
L 1259 2753 
L 3481 2753 
L 3481 2222 
L 1259 2222 
L 1259 531 
L 3634 531 
L 3634 0 
L 628 0 
L 628 4666 
z
" id="DejaVuSans-45" transform="scale(0.015625)"/>
       <path d="M 191 3500 
L 800 3500 
L 1894 563 
L 2988 3500 
L 3597 3500 
L 2284 0 
L 1503 0 
L 191 3500 
z
" id="DejaVuSans-76" transform="scale(0.015625)"/>
       <path d="M 2194 1759 
Q 1497 1759 1228 1600 
Q 959 1441 959 1056 
Q 959 750 1161 570 
Q 1363 391 1709 391 
Q 2188 391 2477 730 
Q 2766 1069 2766 1631 
L 2766 1759 
L 2194 1759 
z
M 3341 1997 
L 3341 0 
L 2766 0 
L 2766 531 
Q 2569 213 2275 61 
Q 1981 -91 1556 -91 
Q 1019 -91 701 211 
Q 384 513 384 1019 
Q 384 1609 779 1909 
Q 1175 2209 1959 2209 
L 2766 2209 
L 2766 2266 
Q 2766 2663 2505 2880 
Q 2244 3097 1772 3097 
Q 1472 3097 1187 3025 
Q 903 2953 641 2809 
L 641 3341 
Q 956 3463 1253 3523 
Q 1550 3584 1831 3584 
Q 2591 3584 2966 3190 
Q 3341 2797 3341 1997 
z
" id="DejaVuSans-61" transform="scale(0.015625)"/>
       <path d="M 2834 3397 
L 2834 2853 
Q 2591 2978 2328 3040 
Q 2066 3103 1784 3103 
Q 1356 3103 1142 2972 
Q 928 2841 928 2578 
Q 928 2378 1081 2264 
Q 1234 2150 1697 2047 
L 1894 2003 
Q 2506 1872 2764 1633 
Q 3022 1394 3022 966 
Q 3022 478 2636 193 
Q 2250 -91 1575 -91 
Q 1294 -91 989 -36 
Q 684 19 347 128 
L 347 722 
Q 666 556 975 473 
Q 1284 391 1588 391 
Q 1994 391 2212 530 
Q 2431 669 2431 922 
Q 2431 1156 2273 1281 
Q 2116 1406 1581 1522 
L 1381 1569 
Q 847 1681 609 1914 
Q 372 2147 372 2553 
Q 372 3047 722 3315 
Q 1072 3584 1716 3584 
Q 2034 3584 2315 3537 
Q 2597 3491 2834 3397 
z
" id="DejaVuSans-73" transform="scale(0.015625)"/>
       <path d="M 1625 4666 
L 2156 4666 
L 531 -594 
L 0 -594 
L 1625 4666 
z
" id="DejaVuSans-2f" transform="scale(0.015625)"/>
       <path d="M 1259 4147 
L 1259 519 
L 2022 519 
Q 2988 519 3436 956 
Q 3884 1394 3884 2338 
Q 3884 3275 3436 3711 
Q 2988 4147 2022 4147 
L 1259 4147 
z
M 628 4666 
L 1925 4666 
Q 3281 4666 3915 4102 
Q 4550 3538 4550 2338 
Q 4550 1131 3912 565 
Q 3275 0 1925 0 
L 628 0 
L 628 4666 
z
" id="DejaVuSans-44" transform="scale(0.015625)"/>
       <path d="M 628 4666 
L 1259 4666 
L 1259 0 
L 628 0 
L 628 4666 
z
" id="DejaVuSans-49" transform="scale(0.015625)"/>
       <path d="M 628 4666 
L 1569 4666 
L 2759 1491 
L 3956 4666 
L 4897 4666 
L 4897 0 
L 4281 0 
L 4281 4097 
L 3078 897 
L 2444 897 
L 1241 4097 
L 1241 0 
L 628 0 
L 628 4666 
z
" id="DejaVuSans-4d" transform="scale(0.015625)"/>
      </defs>
      <use xlink:href="#DejaVuSans-6c"/>
      <use x="27.783203" xlink:href="#DejaVuSans-6f"/>
      <use x="88.964844" xlink:href="#DejaVuSans-67"/>
      <use x="152.441406" xlink:href="#DejaVuSans-31"/>
      <use x="216.064453" xlink:href="#DejaVuSans-30"/>
      <use x="279.6875" xlink:href="#DejaVuSans-20"/>
      <use x="311.474609" xlink:href="#DejaVuSans-6f"/>
      <use x="372.65625" xlink:href="#DejaVuSans-66"/>
      <use x="407.861328" xlink:href="#DejaVuSans-20"/>
      <use x="439.648438" xlink:href="#DejaVuSans-46"/>
      <use x="497.167969" xlink:href="#DejaVuSans-45"/>
      <use x="560.351562" xlink:href="#DejaVuSans-76"/>
      <use x="619.53125" xlink:href="#DejaVuSans-61"/>
      <use x="680.810547" xlink:href="#DejaVuSans-6c"/>
      <use x="708.59375" xlink:href="#DejaVuSans-73"/>
      <use x="760.693359" xlink:href="#DejaVuSans-20"/>
      <use x="792.480469" xlink:href="#DejaVuSans-2f"/>
      <use x="826.171875" xlink:href="#DejaVuSans-20"/>
      <use x="857.958984" xlink:href="#DejaVuSans-44"/>
      <use x="934.960938" xlink:href="#DejaVuSans-49"/>
      <use x="964.453125" xlink:href="#DejaVuSans-4d"/>
     </g>
    </g>
   </g>
   <g id="matplotlib.axis_2">
    <g id="ytick_1">
     <g id="line2d_103">
      <path clip-path="url(#p8ad4b0b4c2)" d="M 62.208 293.76 
L 460.8 293.76 
" style="fill:none;stroke:#b0b0b0;stroke-linecap:square;stroke-width:0.8;"/>
     </g>
     <g id="line2d_104">
      <defs>
       <path d="M 0 0 
L -3.5 0 
" id="m4e8511d3f9" style="stroke:#000000;stroke-width:0.8;"/>
      </defs>
      <g>
       <use style="stroke:#000000;stroke-width:0.8;" x="62.208" xlink:href="#m4e8511d3f9" y="293.76"/>
      </g>
     </g>
     <g id="text_5">
      <!-- 0.0 -->
      <g transform="translate(29.763 299.83875)scale(0.16 -0.16)">
       <defs>
        <path d="M 684 794 
L 1344 794 
L 1344 0 
L 684 0 
L 684 794 
z
" id="DejaVuSans-2e" transform="scale(0.015625)"/>
       </defs>
       <use xlink:href="#DejaVuSans-30"/>
       <use x="63.623047" xlink:href="#DejaVuSans-2e"/>
       <use x="95.410156" xlink:href="#DejaVuSans-30"/>
      </g>
     </g>
    </g>
    <g id="ytick_2">
     <g id="line2d_105">
      <path clip-path="url(#p8ad4b0b4c2)" d="M 62.208 236.274059 
L 460.8 236.274059 
" style="fill:none;stroke:#b0b0b0;stroke-linecap:square;stroke-width:0.8;"/>
     </g>
     <g id="line2d_106">
      <g>
       <use style="stroke:#000000;stroke-width:0.8;" x="62.208" xlink:href="#m4e8511d3f9" y="236.274059"/>
      </g>
     </g>
     <g id="text_6">
      <!-- 0.2 -->
      <g transform="translate(29.763 242.352809)scale(0.16 -0.16)">
       <use xlink:href="#DejaVuSans-30"/>
       <use x="63.623047" xlink:href="#DejaVuSans-2e"/>
       <use x="95.410156" xlink:href="#DejaVuSans-32"/>
      </g>
     </g>
    </g>
    <g id="ytick_3">
     <g id="line2d_107">
      <path clip-path="url(#p8ad4b0b4c2)" d="M 62.208 178.788119 
L 460.8 178.788119 
" style="fill:none;stroke:#b0b0b0;stroke-linecap:square;stroke-width:0.8;"/>
     </g>
     <g id="line2d_108">
      <g>
       <use style="stroke:#000000;stroke-width:0.8;" x="62.208" xlink:href="#m4e8511d3f9" y="178.788119"/>
      </g>
     </g>
     <g id="text_7">
      <!-- 0.4 -->
      <g transform="translate(29.763 184.866869)scale(0.16 -0.16)">
       <use xlink:href="#DejaVuSans-30"/>
       <use x="63.623047" xlink:href="#DejaVuSans-2e"/>
       <use x="95.410156" xlink:href="#DejaVuSans-34"/>
      </g>
     </g>
    </g>
    <g id="ytick_4">
     <g id="line2d_109">
      <path clip-path="url(#p8ad4b0b4c2)" d="M 62.208 121.302178 
L 460.8 121.302178 
" style="fill:none;stroke:#b0b0b0;stroke-linecap:square;stroke-width:0.8;"/>
     </g>
     <g id="line2d_110">
      <g>
       <use style="stroke:#000000;stroke-width:0.8;" x="62.208" xlink:href="#m4e8511d3f9" y="121.302178"/>
      </g>
     </g>
     <g id="text_8">
      <!-- 0.6 -->
      <g transform="translate(29.763 127.380928)scale(0.16 -0.16)">
       <defs>
        <path d="M 2113 2584 
Q 1688 2584 1439 2293 
Q 1191 2003 1191 1497 
Q 1191 994 1439 701 
Q 1688 409 2113 409 
Q 2538 409 2786 701 
Q 3034 994 3034 1497 
Q 3034 2003 2786 2293 
Q 2538 2584 2113 2584 
z
M 3366 4563 
L 3366 3988 
Q 3128 4100 2886 4159 
Q 2644 4219 2406 4219 
Q 1781 4219 1451 3797 
Q 1122 3375 1075 2522 
Q 1259 2794 1537 2939 
Q 1816 3084 2150 3084 
Q 2853 3084 3261 2657 
Q 3669 2231 3669 1497 
Q 3669 778 3244 343 
Q 2819 -91 2113 -91 
Q 1303 -91 875 529 
Q 447 1150 447 2328 
Q 447 3434 972 4092 
Q 1497 4750 2381 4750 
Q 2619 4750 2861 4703 
Q 3103 4656 3366 4563 
z
" id="DejaVuSans-36" transform="scale(0.015625)"/>
       </defs>
       <use xlink:href="#DejaVuSans-30"/>
       <use x="63.623047" xlink:href="#DejaVuSans-2e"/>
       <use x="95.410156" xlink:href="#DejaVuSans-36"/>
      </g>
     </g>
    </g>
    <g id="ytick_5">
     <g id="line2d_111">
      <path clip-path="url(#p8ad4b0b4c2)" d="M 62.208 63.816238 
L 460.8 63.816238 
" style="fill:none;stroke:#b0b0b0;stroke-linecap:square;stroke-width:0.8;"/>
     </g>
     <g id="line2d_112">
      <g>
       <use style="stroke:#000000;stroke-width:0.8;" x="62.208" xlink:href="#m4e8511d3f9" y="63.816238"/>
      </g>
     </g>
     <g id="text_9">
      <!-- 0.8 -->
      <g transform="translate(29.763 69.894988)scale(0.16 -0.16)">
       <defs>
        <path d="M 2034 2216 
Q 1584 2216 1326 1975 
Q 1069 1734 1069 1313 
Q 1069 891 1326 650 
Q 1584 409 2034 409 
Q 2484 409 2743 651 
Q 3003 894 3003 1313 
Q 3003 1734 2745 1975 
Q 2488 2216 2034 2216 
z
M 1403 2484 
Q 997 2584 770 2862 
Q 544 3141 544 3541 
Q 544 4100 942 4425 
Q 1341 4750 2034 4750 
Q 2731 4750 3128 4425 
Q 3525 4100 3525 3541 
Q 3525 3141 3298 2862 
Q 3072 2584 2669 2484 
Q 3125 2378 3379 2068 
Q 3634 1759 3634 1313 
Q 3634 634 3220 271 
Q 2806 -91 2034 -91 
Q 1263 -91 848 271 
Q 434 634 434 1313 
Q 434 1759 690 2068 
Q 947 2378 1403 2484 
z
M 1172 3481 
Q 1172 3119 1398 2916 
Q 1625 2713 2034 2713 
Q 2441 2713 2670 2916 
Q 2900 3119 2900 3481 
Q 2900 3844 2670 4047 
Q 2441 4250 2034 4250 
Q 1625 4250 1398 4047 
Q 1172 3844 1172 3481 
z
" id="DejaVuSans-38" transform="scale(0.015625)"/>
       </defs>
       <use xlink:href="#DejaVuSans-30"/>
       <use x="63.623047" xlink:href="#DejaVuSans-2e"/>
       <use x="95.410156" xlink:href="#DejaVuSans-38"/>
      </g>
     </g>
    </g>
    <g id="ytick_6">
     <g id="line2d_113">
      <path clip-path="url(#p8ad4b0b4c2)" d="M 62.208 6.330297 
L 460.8 6.330297 
" style="fill:none;stroke:#b0b0b0;stroke-linecap:square;stroke-width:0.8;"/>
     </g>
     <g id="line2d_114">
      <g>
       <use style="stroke:#000000;stroke-width:0.8;" x="62.208" xlink:href="#m4e8511d3f9" y="6.330297"/>
      </g>
     </g>
     <g id="text_10">
      <!-- 1.0 -->
      <g transform="translate(29.763 12.409047)scale(0.16 -0.16)">
       <use xlink:href="#DejaVuSans-31"/>
       <use x="63.623047" xlink:href="#DejaVuSans-2e"/>
       <use x="95.410156" xlink:href="#DejaVuSans-30"/>
      </g>
     </g>
    </g>
    <g id="text_11">
     <!-- proportion of trials -->
     <g transform="translate(21.603625 241.61425)rotate(-90)scale(0.2 -0.2)">
      <defs>
       <path d="M 1159 525 
L 1159 -1331 
L 581 -1331 
L 581 3500 
L 1159 3500 
L 1159 2969 
Q 1341 3281 1617 3432 
Q 1894 3584 2278 3584 
Q 2916 3584 3314 3078 
Q 3713 2572 3713 1747 
Q 3713 922 3314 415 
Q 2916 -91 2278 -91 
Q 1894 -91 1617 61 
Q 1341 213 1159 525 
z
M 3116 1747 
Q 3116 2381 2855 2742 
Q 2594 3103 2138 3103 
Q 1681 3103 1420 2742 
Q 1159 2381 1159 1747 
Q 1159 1113 1420 752 
Q 1681 391 2138 391 
Q 2594 391 2855 752 
Q 3116 1113 3116 1747 
z
" id="DejaVuSans-70" transform="scale(0.015625)"/>
       <path d="M 2631 2963 
Q 2534 3019 2420 3045 
Q 2306 3072 2169 3072 
Q 1681 3072 1420 2755 
Q 1159 2438 1159 1844 
L 1159 0 
L 581 0 
L 581 3500 
L 1159 3500 
L 1159 2956 
Q 1341 3275 1631 3429 
Q 1922 3584 2338 3584 
Q 2397 3584 2469 3576 
Q 2541 3569 2628 3553 
L 2631 2963 
z
" id="DejaVuSans-72" transform="scale(0.015625)"/>
       <path d="M 1172 4494 
L 1172 3500 
L 2356 3500 
L 2356 3053 
L 1172 3053 
L 1172 1153 
Q 1172 725 1289 603 
Q 1406 481 1766 481 
L 2356 481 
L 2356 0 
L 1766 0 
Q 1100 0 847 248 
Q 594 497 594 1153 
L 594 3053 
L 172 3053 
L 172 3500 
L 594 3500 
L 594 4494 
L 1172 4494 
z
" id="DejaVuSans-74" transform="scale(0.015625)"/>
       <path d="M 603 3500 
L 1178 3500 
L 1178 0 
L 603 0 
L 603 3500 
z
M 603 4863 
L 1178 4863 
L 1178 4134 
L 603 4134 
L 603 4863 
z
" id="DejaVuSans-69" transform="scale(0.015625)"/>
       <path d="M 3513 2113 
L 3513 0 
L 2938 0 
L 2938 2094 
Q 2938 2591 2744 2837 
Q 2550 3084 2163 3084 
Q 1697 3084 1428 2787 
Q 1159 2491 1159 1978 
L 1159 0 
L 581 0 
L 581 3500 
L 1159 3500 
L 1159 2956 
Q 1366 3272 1645 3428 
Q 1925 3584 2291 3584 
Q 2894 3584 3203 3211 
Q 3513 2838 3513 2113 
z
" id="DejaVuSans-6e" transform="scale(0.015625)"/>
      </defs>
      <use xlink:href="#DejaVuSans-70"/>
      <use x="63.476562" xlink:href="#DejaVuSans-72"/>
      <use x="102.339844" xlink:href="#DejaVuSans-6f"/>
      <use x="163.521484" xlink:href="#DejaVuSans-70"/>
      <use x="226.998047" xlink:href="#DejaVuSans-6f"/>
      <use x="288.179688" xlink:href="#DejaVuSans-72"/>
      <use x="329.292969" xlink:href="#DejaVuSans-74"/>
      <use x="368.501953" xlink:href="#DejaVuSans-69"/>
      <use x="396.285156" xlink:href="#DejaVuSans-6f"/>
      <use x="457.466797" xlink:href="#DejaVuSans-6e"/>
      <use x="520.845703" xlink:href="#DejaVuSans-20"/>
      <use x="552.632812" xlink:href="#DejaVuSans-6f"/>
      <use x="613.814453" xlink:href="#DejaVuSans-66"/>
      <use x="649.019531" xlink:href="#DejaVuSans-20"/>
      <use x="680.806641" xlink:href="#DejaVuSans-74"/>
      <use x="720.015625" xlink:href="#DejaVuSans-72"/>
      <use x="761.128906" xlink:href="#DejaVuSans-69"/>
      <use x="788.912109" xlink:href="#DejaVuSans-61"/>
      <use x="850.191406" xlink:href="#DejaVuSans-6c"/>
      <use x="877.974609" xlink:href="#DejaVuSans-73"/>
     </g>
    </g>
   </g>
   <g id="line2d_115">
    <path clip-path="url(#p8ad4b0b4c2)" d="M -1 270.765624 
L 14.588378 270.765624 
L 14.588378 266.933228 
L 14.588378 266.933228 
L 14.588378 263.100832 
L 25.966801 263.100832 
L 25.966801 259.268436 
L 25.966801 259.268436 
L 25.966801 255.43604 
L 25.966801 255.43604 
L 25.966801 251.603644 
L 38.562306 251.603644 
L 38.562306 247.771248 
L 42.003787 247.771248 
L 42.003787 243.938851 
L 60.179244 243.938851 
L 60.179244 240.106455 
L 64.137752 240.106455 
L 64.137752 236.274059 
L 219.278577 236.274059 
L 219.278577 232.441663 
L 220.598324 232.441663 
L 220.598324 228.609267 
L 222.533227 228.609267 
L 222.533227 224.776871 
L 224.345089 224.776871 
L 224.345089 220.944475 
L 226.296699 220.944475 
L 226.296699 217.112079 
L 226.669541 217.112079 
L 226.669541 213.279683 
L 226.669541 213.279683 
L 226.669541 209.447287 
L 226.854653 209.447287 
L 226.854653 205.614891 
L 227.917536 205.614891 
L 227.917536 201.782495 
L 228.216044 201.782495 
L 228.216044 197.950099 
L 228.923403 197.950099 
L 228.923403 194.117703 
L 229.618332 194.117703 
L 229.618332 190.285307 
L 229.761585 190.285307 
L 229.761585 186.452911 
L 230.638357 186.452911 
L 230.638357 182.620515 
L 230.750086 182.620515 
L 230.750086 178.788119 
L 231.331541 178.788119 
L 231.331541 174.955723 
L 231.632735 174.955723 
L 231.632735 171.123327 
L 232.389218 171.123327 
L 232.389218 167.290931 
L 233.157759 167.290931 
L 233.157759 163.458535 
L 238.455602 163.458535 
L 238.455602 159.626139 
L 238.912065 159.626139 
L 238.912065 155.793743 
L 240.272603 155.793743 
L 240.272603 151.961347 
L 240.338323 151.961347 
L 240.338323 148.12895 
L 242.36489 148.12895 
L 242.36489 144.296554 
L 242.447983 144.296554 
L 242.447983 140.464158 
L 244.074196 140.464158 
L 244.074196 136.631762 
L 246.281786 136.631762 
L 246.281786 132.799366 
L 246.861383 132.799366 
L 246.861383 128.96697 
L 247.833047 128.96697 
L 247.833047 125.134574 
L 248.657452 125.134574 
L 248.657452 121.302178 
L 250.426406 121.302178 
L 250.426406 117.469782 
L 250.443363 117.469782 
L 250.443363 113.637386 
L 250.931978 113.637386 
L 250.931978 109.80499 
L 251.480744 109.80499 
L 251.480744 105.972594 
L 252.330305 105.972594 
L 252.330305 102.140198 
L 259.414684 102.140198 
L 259.414684 98.307802 
L 259.495678 98.307802 
L 259.495678 94.475406 
L 260.717255 94.475406 
L 260.717255 90.64301 
L 263.003405 90.64301 
L 263.003405 86.810614 
L 265.962726 86.810614 
L 265.962726 82.978218 
L 271.339957 82.978218 
L 271.339957 79.145822 
L 271.339957 79.145822 
L 271.339957 79.145822 
L 460.8 79.145822 
" style="fill:none;stroke:#000000;stroke-linecap:square;stroke-width:1.5;"/>
   </g>
   <g id="line2d_116">
    <path clip-path="url(#p8ad4b0b4c2)" style="fill:none;stroke:#000000;stroke-linecap:square;stroke-width:1.5;"/>
   </g>
   <g id="line2d_117">
    <path clip-path="url(#p8ad4b0b4c2)" d="M 267.731837 293.76 
L 267.731837 289.927604 
L 268.03726 289.927604 
L 268.03726 286.095208 
L 268.555417 286.095208 
L 268.555417 282.262812 
L 374.282103 282.262812 
L 374.282103 278.430416 
L 390.799394 278.430416 
L 390.799394 274.59802 
L 396.92764 274.59802 
L 396.92764 270.765624 
L 396.933904 270.765624 
L 396.933904 266.933228 
L 398.248896 266.933228 
L 398.248896 263.100832 
L 405.316167 263.100832 
L 405.316167 259.268436 
L 407.001994 259.268436 
L 407.001994 255.43604 
L 408.805535 255.43604 
L 408.805535 251.603644 
L 409.517298 251.603644 
L 409.517298 247.771248 
L 409.577706 247.771248 
L 409.577706 243.938851 
L 413.761218 243.938851 
L 413.761218 240.106455 
L 436.965047 240.106455 
L 436.965047 236.274059 
L 439.871002 236.274059 
L 439.871002 232.441663 
L 439.871002 232.441663 
L 439.871002 232.441663 
L 460.8 232.441663 
" style="fill:none;stroke:#00bfbf;stroke-linecap:square;stroke-width:1.5;"/>
   </g>
   <g id="line2d_118">
    <path clip-path="url(#p8ad4b0b4c2)" style="fill:none;stroke:#00bfbf;stroke-linecap:square;stroke-width:1.5;"/>
   </g>
   <g id="line2d_119">
    <path clip-path="url(#p8ad4b0b4c2)" d="M 285.308009 293.76 
L 285.308009 289.927604 
L 286.484005 289.927604 
L 286.484005 286.095208 
L 290.560478 286.095208 
L 290.560478 282.262812 
L 290.560478 282.262812 
L 290.560478 282.262812 
L 460.8 282.262812 
" style="fill:none;stroke:#bf00bf;stroke-linecap:square;stroke-width:1.5;"/>
   </g>
   <g id="line2d_120">
    <path clip-path="url(#p8ad4b0b4c2)" style="fill:none;stroke:#bf00bf;stroke-linecap:square;stroke-width:1.5;"/>
   </g>
   <g id="line2d_121">
    <path clip-path="url(#p8ad4b0b4c2)" d="M 300.299129 293.76 
L 300.299129 289.927604 
L 300.848041 289.927604 
L 300.848041 286.095208 
L 302.840044 286.095208 
L 302.840044 282.262812 
L 302.840044 282.262812 
L 302.840044 282.262812 
L 460.8 282.262812 
" style="fill:none;stroke:#ff0000;stroke-linecap:square;stroke-width:3;"/>
   </g>
   <g id="line2d_122">
    <path clip-path="url(#p8ad4b0b4c2)" style="fill:none;stroke:#ff0000;stroke-linecap:square;stroke-width:3;"/>
   </g>
   <g id="line2d_123">
    <path clip-path="url(#p8ad4b0b4c2)" d="M 460.8 293.76 
L 460.8 3.456 
" style="fill:none;stroke:#000000;stroke-linecap:square;stroke-width:1.5;"/>
   </g>
   <g id="patch_3">
    <path d="M 62.208 293.76 
L 62.208 3.456 
" style="fill:none;stroke:#000000;stroke-linecap:square;stroke-linejoin:miter;stroke-width:0.8;"/>
   </g>
   <g id="patch_4">
    <path d="M 460.8 293.76 
L 460.8 3.456 
" style="fill:none;stroke:#000000;stroke-linecap:square;stroke-linejoin:miter;stroke-width:0.8;"/>
   </g>
   <g id="patch_5">
    <path d="M 62.208 293.76 
L 460.8 293.76 
" style="fill:none;stroke:#000000;stroke-linecap:square;stroke-linejoin:miter;stroke-width:0.8;"/>
   </g>
   <g id="patch_6">
    <path d="M 62.208 3.456 
L 460.8 3.456 
" style="fill:none;stroke:#000000;stroke-linecap:square;stroke-linejoin:miter;stroke-width:0.8;"/>
   </g>
   <g id="text_12">
    <!-- {f20-f24}, 20-D -->
    <g transform="translate(182.2915 24.458955)scale(0.2 -0.2)">
     <defs>
      <path d="M 3272 -594 
L 3272 -1044 
L 3078 -1044 
Q 2300 -1044 2036 -812 
Q 1772 -581 1772 109 
L 1772 856 
Q 1772 1328 1603 1509 
Q 1434 1691 991 1691 
L 800 1691 
L 800 2138 
L 991 2138 
Q 1438 2138 1605 2317 
Q 1772 2497 1772 2963 
L 1772 3713 
Q 1772 4403 2036 4633 
Q 2300 4863 3078 4863 
L 3272 4863 
L 3272 4416 
L 3059 4416 
Q 2619 4416 2484 4278 
Q 2350 4141 2350 3700 
L 2350 2925 
Q 2350 2434 2208 2212 
Q 2066 1991 1722 1913 
Q 2069 1828 2209 1606 
Q 2350 1384 2350 897 
L 2350 122 
Q 2350 -319 2484 -456 
Q 2619 -594 3059 -594 
L 3272 -594 
z
" id="DejaVuSans-7b" transform="scale(0.015625)"/>
      <path d="M 313 2009 
L 1997 2009 
L 1997 1497 
L 313 1497 
L 313 2009 
z
" id="DejaVuSans-2d" transform="scale(0.015625)"/>
      <path d="M 800 -594 
L 1019 -594 
Q 1456 -594 1589 -459 
Q 1722 -325 1722 122 
L 1722 897 
Q 1722 1384 1862 1606 
Q 2003 1828 2350 1913 
Q 2003 1991 1862 2212 
Q 1722 2434 1722 2925 
L 1722 3700 
Q 1722 4144 1589 4280 
Q 1456 4416 1019 4416 
L 800 4416 
L 800 4863 
L 997 4863 
Q 1775 4863 2036 4633 
Q 2297 4403 2297 3713 
L 2297 2963 
Q 2297 2497 2465 2317 
Q 2634 2138 3078 2138 
L 3272 2138 
L 3272 1691 
L 3078 1691 
Q 2634 1691 2465 1509 
Q 2297 1328 2297 856 
L 2297 109 
Q 2297 -581 2036 -812 
Q 1775 -1044 997 -1044 
L 800 -1044 
L 800 -594 
z
" id="DejaVuSans-7d" transform="scale(0.015625)"/>
      <path d="M 750 794 
L 1409 794 
L 1409 256 
L 897 -744 
L 494 -744 
L 750 256 
L 750 794 
z
" id="DejaVuSans-2c" transform="scale(0.015625)"/>
     </defs>
     <use xlink:href="#DejaVuSans-7b"/>
     <use x="63.623047" xlink:href="#DejaVuSans-66"/>
     <use x="98.828125" xlink:href="#DejaVuSans-32"/>
     <use x="162.451172" xlink:href="#DejaVuSans-30"/>
     <use x="226.074219" xlink:href="#DejaVuSans-2d"/>
     <use x="262.158203" xlink:href="#DejaVuSans-66"/>
     <use x="297.363281" xlink:href="#DejaVuSans-32"/>
     <use x="360.986328" xlink:href="#DejaVuSans-34"/>
     <use x="424.609375" xlink:href="#DejaVuSans-7d"/>
     <use x="488.232422" xlink:href="#DejaVuSans-2c"/>
     <use x="520.019531" xlink:href="#DejaVuSans-20"/>
     <use x="551.806641" xlink:href="#DejaVuSans-32"/>
     <use x="615.429688" xlink:href="#DejaVuSans-30"/>
     <use x="679.052734" xlink:href="#DejaVuSans-2d"/>
     <use x="715.136719" xlink:href="#DejaVuSans-44"/>
    </g>
   </g>
   <g id="text_13">
    <!-- absolute targets -->
    <g transform="translate(62.208 606.291897)scale(0.14 -0.14)">
     <defs>
      <path d="M 3116 1747 
Q 3116 2381 2855 2742 
Q 2594 3103 2138 3103 
Q 1681 3103 1420 2742 
Q 1159 2381 1159 1747 
Q 1159 1113 1420 752 
Q 1681 391 2138 391 
Q 2594 391 2855 752 
Q 3116 1113 3116 1747 
z
M 1159 2969 
Q 1341 3281 1617 3432 
Q 1894 3584 2278 3584 
Q 2916 3584 3314 3078 
Q 3713 2572 3713 1747 
Q 3713 922 3314 415 
Q 2916 -91 2278 -91 
Q 1894 -91 1617 61 
Q 1341 213 1159 525 
L 1159 0 
L 581 0 
L 581 4863 
L 1159 4863 
L 1159 2969 
z
" id="DejaVuSans-62" transform="scale(0.015625)"/>
      <path d="M 544 1381 
L 544 3500 
L 1119 3500 
L 1119 1403 
Q 1119 906 1312 657 
Q 1506 409 1894 409 
Q 2359 409 2629 706 
Q 2900 1003 2900 1516 
L 2900 3500 
L 3475 3500 
L 3475 0 
L 2900 0 
L 2900 538 
Q 2691 219 2414 64 
Q 2138 -91 1772 -91 
Q 1169 -91 856 284 
Q 544 659 544 1381 
z
M 1991 3584 
L 1991 3584 
z
" id="DejaVuSans-75" transform="scale(0.015625)"/>
      <path d="M 3597 1894 
L 3597 1613 
L 953 1613 
Q 991 1019 1311 708 
Q 1631 397 2203 397 
Q 2534 397 2845 478 
Q 3156 559 3463 722 
L 3463 178 
Q 3153 47 2828 -22 
Q 2503 -91 2169 -91 
Q 1331 -91 842 396 
Q 353 884 353 1716 
Q 353 2575 817 3079 
Q 1281 3584 2069 3584 
Q 2775 3584 3186 3129 
Q 3597 2675 3597 1894 
z
M 3022 2063 
Q 3016 2534 2758 2815 
Q 2500 3097 2075 3097 
Q 1594 3097 1305 2825 
Q 1016 2553 972 2059 
L 3022 2063 
z
" id="DejaVuSans-65" transform="scale(0.015625)"/>
     </defs>
     <use xlink:href="#DejaVuSans-61"/>
     <use x="61.279297" xlink:href="#DejaVuSans-62"/>
     <use x="124.755859" xlink:href="#DejaVuSans-73"/>
     <use x="176.855469" xlink:href="#DejaVuSans-6f"/>
     <use x="238.037109" xlink:href="#DejaVuSans-6c"/>
     <use x="265.820312" xlink:href="#DejaVuSans-75"/>
     <use x="329.199219" xlink:href="#DejaVuSans-74"/>
     <use x="368.408203" xlink:href="#DejaVuSans-65"/>
     <use x="429.931641" xlink:href="#DejaVuSans-20"/>
     <use x="461.71875" xlink:href="#DejaVuSans-74"/>
     <use x="500.927734" xlink:href="#DejaVuSans-61"/>
     <use x="562.207031" xlink:href="#DejaVuSans-72"/>
     <use x="601.570312" xlink:href="#DejaVuSans-67"/>
     <use x="665.046875" xlink:href="#DejaVuSans-65"/>
     <use x="726.570312" xlink:href="#DejaVuSans-74"/>
     <use x="765.779297" xlink:href="#DejaVuSans-73"/>
    </g>
   </g>
   <g id="text_14">
    <!-- v2.4 -->
    <g style="fill:#808080;" transform="translate(250.593063 288.777272)scale(0.1 -0.1)">
     <use xlink:href="#DejaVuSans-76"/>
     <use x="59.179688" xlink:href="#DejaVuSans-32"/>
     <use x="122.802734" xlink:href="#DejaVuSans-2e"/>
     <use x="154.589844" xlink:href="#DejaVuSans-34"/>
    </g>
   </g>
   <g id="legend_1">
    <g id="patch_7">
     <path d="M 76.208 136.881 
L 205.429875 136.881 
Q 209.429875 136.881 209.429875 132.881 
L 209.429875 17.456 
Q 209.429875 13.456 205.429875 13.456 
L 76.208 13.456 
Q 72.208 13.456 72.208 17.456 
L 72.208 132.881 
Q 72.208 136.881 76.208 136.881 
z
" style="fill:#ffffff;opacity:0.2;stroke:#cccccc;stroke-linejoin:miter;"/>
    </g>
    <g id="line2d_124">
     <path d="M 80.208 29.652875 
L 120.208 29.652875 
" style="fill:none;stroke:#000000;stroke-linecap:square;stroke-width:1.5;"/>
    </g>
    <g id="line2d_125"/>
    <g id="text_15">
     <!-- 1: 4/5 -->
     <g transform="translate(136.208 36.652875)scale(0.2 -0.2)">
      <defs>
       <path d="M 750 794 
L 1409 794 
L 1409 0 
L 750 0 
L 750 794 
z
M 750 3309 
L 1409 3309 
L 1409 2516 
L 750 2516 
L 750 3309 
z
" id="DejaVuSans-3a" transform="scale(0.015625)"/>
       <path d="M 691 4666 
L 3169 4666 
L 3169 4134 
L 1269 4134 
L 1269 2991 
Q 1406 3038 1543 3061 
Q 1681 3084 1819 3084 
Q 2600 3084 3056 2656 
Q 3513 2228 3513 1497 
Q 3513 744 3044 326 
Q 2575 -91 1722 -91 
Q 1428 -91 1123 -41 
Q 819 9 494 109 
L 494 744 
Q 775 591 1075 516 
Q 1375 441 1709 441 
Q 2250 441 2565 725 
Q 2881 1009 2881 1497 
Q 2881 1984 2565 2268 
Q 2250 2553 1709 2553 
Q 1456 2553 1204 2497 
Q 953 2441 691 2322 
L 691 4666 
z
" id="DejaVuSans-35" transform="scale(0.015625)"/>
      </defs>
      <use xlink:href="#DejaVuSans-31"/>
      <use x="63.623047" xlink:href="#DejaVuSans-3a"/>
      <use x="97.314453" xlink:href="#DejaVuSans-20"/>
      <use x="129.101562" xlink:href="#DejaVuSans-34"/>
      <use x="192.724609" xlink:href="#DejaVuSans-2f"/>
      <use x="226.416016" xlink:href="#DejaVuSans-35"/>
     </g>
    </g>
    <g id="line2d_126">
     <path d="M 80.208 59.009125 
L 120.208 59.009125 
" style="fill:none;stroke:#00bfbf;stroke-linecap:square;stroke-width:1.5;"/>
    </g>
    <g id="line2d_127"/>
    <g id="text_16">
     <!-- -1: 2/5 -->
     <g transform="translate(136.208 66.009125)scale(0.2 -0.2)">
      <use xlink:href="#DejaVuSans-2d"/>
      <use x="36.083984" xlink:href="#DejaVuSans-31"/>
      <use x="99.707031" xlink:href="#DejaVuSans-3a"/>
      <use x="133.398438" xlink:href="#DejaVuSans-20"/>
      <use x="165.185547" xlink:href="#DejaVuSans-32"/>
      <use x="228.808594" xlink:href="#DejaVuSans-2f"/>
      <use x="262.5" xlink:href="#DejaVuSans-35"/>
     </g>
    </g>
    <g id="line2d_128">
     <path d="M 80.208 88.365375 
L 120.208 88.365375 
" style="fill:none;stroke:#bf00bf;stroke-linecap:square;stroke-width:1.5;"/>
    </g>
    <g id="line2d_129"/>
    <g id="text_17">
     <!-- -4: 1/5 -->
     <g transform="translate(136.208 95.365375)scale(0.2 -0.2)">
      <use xlink:href="#DejaVuSans-2d"/>
      <use x="36.083984" xlink:href="#DejaVuSans-34"/>
      <use x="99.707031" xlink:href="#DejaVuSans-3a"/>
      <use x="133.398438" xlink:href="#DejaVuSans-20"/>
      <use x="165.185547" xlink:href="#DejaVuSans-31"/>
      <use x="228.808594" xlink:href="#DejaVuSans-2f"/>
      <use x="262.5" xlink:href="#DejaVuSans-35"/>
     </g>
    </g>
    <g id="line2d_130">
     <path d="M 80.208 117.721625 
L 120.208 117.721625 
" style="fill:none;stroke:#ff0000;stroke-linecap:square;stroke-width:3;"/>
    </g>
    <g id="line2d_131"/>
    <g id="text_18">
     <!-- -8: 1/5 -->
     <g transform="translate(136.208 124.721625)scale(0.2 -0.2)">
      <use xlink:href="#DejaVuSans-2d"/>
      <use x="36.083984" xlink:href="#DejaVuSans-38"/>
      <use x="99.707031" xlink:href="#DejaVuSans-3a"/>
      <use x="133.398438" xlink:href="#DejaVuSans-20"/>
      <use x="165.185547" xlink:href="#DejaVuSans-31"/>
      <use x="228.808594" xlink:href="#DejaVuSans-2f"/>
      <use x="262.5" xlink:href="#DejaVuSans-35"/>
     </g>
    </g>
   </g>
  </g>
 </g>
 <defs>
  <clipPath id="p8ad4b0b4c2">
   <rect height="290.304" width="398.592" x="62.208" y="3.456"/>
  </clipPath>
 </defs>
</svg>
