<?xml version="1.0" encoding="utf-8" standalone="no"?>
<!DOCTYPE svg PUBLIC "-//W3C//DTD SVG 1.1//EN"
  "http://www.w3.org/Graphics/SVG/1.1/DTD/svg11.dtd">
<svg height="345.6pt" version="1.1" viewBox="0 0 460.8 345.6" width="460.8pt" xmlns="http://www.w3.org/2000/svg" xmlns:xlink="http://www.w3.org/1999/xlink">
 <metadata>
  <rdf:RDF xmlns:cc="http://creativecommons.org/ns#" xmlns:dc="http://purl.org/dc/elements/1.1/" xmlns:rdf="http://www.w3.org/1999/02/22-rdf-syntax-ns#">
   <cc:Work>
    <dc:type rdf:resource="http://purl.org/dc/dcmitype/StillImage"/>
    <dc:date>2021-07-27T16:20:13.304197</dc:date>
    <dc:format>image/svg+xml</dc:format>
    <dc:creator>
     <cc:Agent>
      <dc:title>Matplotlib v3.4.2, https://matplotlib.org/</dc:title>
     </cc:Agent>
    </dc:creator>
   </cc:Work>
  </rdf:RDF>
 </metadata>
 <defs>
  <style type="text/css">*{stroke-linecap:butt;stroke-linejoin:round;}</style>
 </defs>
 <g id="figure_1">
  <g id="patch_1">
   <path d="M 0 345.6 
L 460.8 345.6 
L 460.8 0 
L 0 0 
z
" style="fill:#ffffff;"/>
  </g>
  <g id="axes_1">
   <g id="patch_2">
    <path d="M 0 293.76 
L 460.8 293.76 
L 460.8 3.456 
L 0 3.456 
z
" style="fill:#ffffff;"/>
   </g>
   <g id="matplotlib.axis_1">
    <g id="xtick_1">
     <g id="line2d_1">
      <path clip-path="url(#p4285404336)" d="M 108.880304 293.76 
L 108.880304 3.456 
" style="fill:none;stroke:#b0b0b0;stroke-linecap:square;stroke-width:0.8;"/>
     </g>
     <g id="line2d_2">
      <defs>
       <path d="M 0 0 
L 0 3.5 
" id="mffdc43287a" style="stroke:#000000;stroke-width:0.8;"/>
      </defs>
      <g>
       <use style="stroke:#000000;stroke-width:0.8;" x="108.880304" xlink:href="#mffdc43287a" y="293.76"/>
      </g>
     </g>
     <g id="text_1">
      <!-- -4 -->
      <g transform="translate(98.909991 315.956875)scale(0.2 -0.2)">
       <defs>
        <path d="M 313 2009 
L 1997 2009 
L 1997 1497 
L 313 1497 
L 313 2009 
z
" id="DejaVuSans-2d" transform="scale(0.015625)"/>
        <path d="M 2419 4116 
L 825 1625 
L 2419 1625 
L 2419 4116 
z
M 2253 4666 
L 3047 4666 
L 3047 1625 
L 3713 1625 
L 3713 1100 
L 3047 1100 
L 3047 0 
L 2419 0 
L 2419 1100 
L 313 1100 
L 313 1709 
L 2253 4666 
z
" id="DejaVuSans-34" transform="scale(0.015625)"/>
       </defs>
       <use xlink:href="#DejaVuSans-2d"/>
       <use x="36.083984" xlink:href="#DejaVuSans-34"/>
      </g>
     </g>
    </g>
    <g id="xtick_2">
     <g id="line2d_3">
      <path clip-path="url(#p4285404336)" d="M 217.878363 293.76 
L 217.878363 3.456 
" style="fill:none;stroke:#b0b0b0;stroke-linecap:square;stroke-width:0.8;"/>
     </g>
     <g id="line2d_4">
      <g>
       <use style="stroke:#000000;stroke-width:0.8;" x="217.878363" xlink:href="#mffdc43287a" y="293.76"/>
      </g>
     </g>
     <g id="text_2">
      <!-- 0 -->
      <g transform="translate(211.515863 315.956875)scale(0.2 -0.2)">
       <defs>
        <path d="M 2034 4250 
Q 1547 4250 1301 3770 
Q 1056 3291 1056 2328 
Q 1056 1369 1301 889 
Q 1547 409 2034 409 
Q 2525 409 2770 889 
Q 3016 1369 3016 2328 
Q 3016 3291 2770 3770 
Q 2525 4250 2034 4250 
z
M 2034 4750 
Q 2819 4750 3233 4129 
Q 3647 3509 3647 2328 
Q 3647 1150 3233 529 
Q 2819 -91 2034 -91 
Q 1250 -91 836 529 
Q 422 1150 422 2328 
Q 422 3509 836 4129 
Q 1250 4750 2034 4750 
z
" id="DejaVuSans-30" transform="scale(0.015625)"/>
       </defs>
       <use xlink:href="#DejaVuSans-30"/>
      </g>
     </g>
    </g>
    <g id="xtick_3">
     <g id="line2d_5">
      <path clip-path="url(#p4285404336)" d="M 326.876422 293.76 
L 326.876422 3.456 
" style="fill:none;stroke:#b0b0b0;stroke-linecap:square;stroke-width:0.8;"/>
     </g>
     <g id="line2d_6">
      <g>
       <use style="stroke:#000000;stroke-width:0.8;" x="326.876422" xlink:href="#mffdc43287a" y="293.76"/>
      </g>
     </g>
     <g id="text_3">
      <!-- 4 -->
      <g transform="translate(320.513922 315.956875)scale(0.2 -0.2)">
       <use xlink:href="#DejaVuSans-34"/>
      </g>
     </g>
    </g>
    <g id="xtick_4">
     <g id="line2d_7">
      <path clip-path="url(#p4285404336)" d="M 435.874482 293.76 
L 435.874482 3.456 
" style="fill:none;stroke:#b0b0b0;stroke-linecap:square;stroke-width:0.8;"/>
     </g>
     <g id="line2d_8">
      <g>
       <use style="stroke:#000000;stroke-width:0.8;" x="435.874482" xlink:href="#mffdc43287a" y="293.76"/>
      </g>
     </g>
     <g id="text_4">
      <!-- 8 -->
      <g transform="translate(429.511982 315.956875)scale(0.2 -0.2)">
       <defs>
        <path d="M 2034 2216 
Q 1584 2216 1326 1975 
Q 1069 1734 1069 1313 
Q 1069 891 1326 650 
Q 1584 409 2034 409 
Q 2484 409 2743 651 
Q 3003 894 3003 1313 
Q 3003 1734 2745 1975 
Q 2488 2216 2034 2216 
z
M 1403 2484 
Q 997 2584 770 2862 
Q 544 3141 544 3541 
Q 544 4100 942 4425 
Q 1341 4750 2034 4750 
Q 2731 4750 3128 4425 
Q 3525 4100 3525 3541 
Q 3525 3141 3298 2862 
Q 3072 2584 2669 2484 
Q 3125 2378 3379 2068 
Q 3634 1759 3634 1313 
Q 3634 634 3220 271 
Q 2806 -91 2034 -91 
Q 1263 -91 848 271 
Q 434 634 434 1313 
Q 434 1759 690 2068 
Q 947 2378 1403 2484 
z
M 1172 3481 
Q 1172 3119 1398 2916 
Q 1625 2713 2034 2713 
Q 2441 2713 2670 2916 
Q 2900 3119 2900 3481 
Q 2900 3844 2670 4047 
Q 2441 4250 2034 4250 
Q 1625 4250 1398 4047 
Q 1172 3844 1172 3481 
z
" id="DejaVuSans-38" transform="scale(0.015625)"/>
       </defs>
       <use xlink:href="#DejaVuSans-38"/>
      </g>
     </g>
    </g>
    <g id="text_5">
     <!-- log10 of Df -->
     <g transform="translate(175.214063 339.313125)scale(0.2 -0.2)">
      <defs>
       <path d="M 603 4863 
L 1178 4863 
L 1178 0 
L 603 0 
L 603 4863 
z
" id="DejaVuSans-6c" transform="scale(0.015625)"/>
       <path d="M 1959 3097 
Q 1497 3097 1228 2736 
Q 959 2375 959 1747 
Q 959 1119 1226 758 
Q 1494 397 1959 397 
Q 2419 397 2687 759 
Q 2956 1122 2956 1747 
Q 2956 2369 2687 2733 
Q 2419 3097 1959 3097 
z
M 1959 3584 
Q 2709 3584 3137 3096 
Q 3566 2609 3566 1747 
Q 3566 888 3137 398 
Q 2709 -91 1959 -91 
Q 1206 -91 779 398 
Q 353 888 353 1747 
Q 353 2609 779 3096 
Q 1206 3584 1959 3584 
z
" id="DejaVuSans-6f" transform="scale(0.015625)"/>
       <path d="M 2906 1791 
Q 2906 2416 2648 2759 
Q 2391 3103 1925 3103 
Q 1463 3103 1205 2759 
Q 947 2416 947 1791 
Q 947 1169 1205 825 
Q 1463 481 1925 481 
Q 2391 481 2648 825 
Q 2906 1169 2906 1791 
z
M 3481 434 
Q 3481 -459 3084 -895 
Q 2688 -1331 1869 -1331 
Q 1566 -1331 1297 -1286 
Q 1028 -1241 775 -1147 
L 775 -588 
Q 1028 -725 1275 -790 
Q 1522 -856 1778 -856 
Q 2344 -856 2625 -561 
Q 2906 -266 2906 331 
L 2906 616 
Q 2728 306 2450 153 
Q 2172 0 1784 0 
Q 1141 0 747 490 
Q 353 981 353 1791 
Q 353 2603 747 3093 
Q 1141 3584 1784 3584 
Q 2172 3584 2450 3431 
Q 2728 3278 2906 2969 
L 2906 3500 
L 3481 3500 
L 3481 434 
z
" id="DejaVuSans-67" transform="scale(0.015625)"/>
       <path d="M 794 531 
L 1825 531 
L 1825 4091 
L 703 3866 
L 703 4441 
L 1819 4666 
L 2450 4666 
L 2450 531 
L 3481 531 
L 3481 0 
L 794 0 
L 794 531 
z
" id="DejaVuSans-31" transform="scale(0.015625)"/>
       <path id="DejaVuSans-20" transform="scale(0.015625)"/>
       <path d="M 2375 4863 
L 2375 4384 
L 1825 4384 
Q 1516 4384 1395 4259 
Q 1275 4134 1275 3809 
L 1275 3500 
L 2222 3500 
L 2222 3053 
L 1275 3053 
L 1275 0 
L 697 0 
L 697 3053 
L 147 3053 
L 147 3500 
L 697 3500 
L 697 3744 
Q 697 4328 969 4595 
Q 1241 4863 1831 4863 
L 2375 4863 
z
" id="DejaVuSans-66" transform="scale(0.015625)"/>
       <path d="M 1259 4147 
L 1259 519 
L 2022 519 
Q 2988 519 3436 956 
Q 3884 1394 3884 2338 
Q 3884 3275 3436 3711 
Q 2988 4147 2022 4147 
L 1259 4147 
z
M 628 4666 
L 1925 4666 
Q 3281 4666 3915 4102 
Q 4550 3538 4550 2338 
Q 4550 1131 3912 565 
Q 3275 0 1925 0 
L 628 0 
L 628 4666 
z
" id="DejaVuSans-44" transform="scale(0.015625)"/>
      </defs>
      <use xlink:href="#DejaVuSans-6c"/>
      <use x="27.783203" xlink:href="#DejaVuSans-6f"/>
      <use x="88.964844" xlink:href="#DejaVuSans-67"/>
      <use x="152.441406" xlink:href="#DejaVuSans-31"/>
      <use x="216.064453" xlink:href="#DejaVuSans-30"/>
      <use x="279.6875" xlink:href="#DejaVuSans-20"/>
      <use x="311.474609" xlink:href="#DejaVuSans-6f"/>
      <use x="372.65625" xlink:href="#DejaVuSans-66"/>
      <use x="407.861328" xlink:href="#DejaVuSans-20"/>
      <use x="439.648438" xlink:href="#DejaVuSans-44"/>
      <use x="516.650391" xlink:href="#DejaVuSans-66"/>
     </g>
    </g>
   </g>
   <g id="matplotlib.axis_2">
    <g id="ytick_1">
     <g id="line2d_9">
      <path clip-path="url(#p4285404336)" d="M 0 293.76 
L 460.8 293.76 
" style="fill:none;stroke:#b0b0b0;stroke-linecap:square;stroke-width:0.8;"/>
     </g>
     <g id="line2d_10">
      <defs>
       <path d="M 0 0 
L -3.5 0 
" id="mb56e25956d" style="stroke:#000000;stroke-width:0.8;"/>
      </defs>
      <g>
       <use style="stroke:#000000;stroke-width:0.8;" x="0" xlink:href="#mb56e25956d" y="293.76"/>
      </g>
     </g>
    </g>
    <g id="ytick_2">
     <g id="line2d_11">
      <path clip-path="url(#p4285404336)" d="M 0 236.274059 
L 460.8 236.274059 
" style="fill:none;stroke:#b0b0b0;stroke-linecap:square;stroke-width:0.8;"/>
     </g>
     <g id="line2d_12">
      <g>
       <use style="stroke:#000000;stroke-width:0.8;" x="0" xlink:href="#mb56e25956d" y="236.274059"/>
      </g>
     </g>
    </g>
    <g id="ytick_3">
     <g id="line2d_13">
      <path clip-path="url(#p4285404336)" d="M 0 178.788119 
L 460.8 178.788119 
" style="fill:none;stroke:#b0b0b0;stroke-linecap:square;stroke-width:0.8;"/>
     </g>
     <g id="line2d_14">
      <g>
       <use style="stroke:#000000;stroke-width:0.8;" x="0" xlink:href="#mb56e25956d" y="178.788119"/>
      </g>
     </g>
    </g>
    <g id="ytick_4">
     <g id="line2d_15">
      <path clip-path="url(#p4285404336)" d="M 0 121.302178 
L 460.8 121.302178 
" style="fill:none;stroke:#b0b0b0;stroke-linecap:square;stroke-width:0.8;"/>
     </g>
     <g id="line2d_16">
      <g>
       <use style="stroke:#000000;stroke-width:0.8;" x="0" xlink:href="#mb56e25956d" y="121.302178"/>
      </g>
     </g>
    </g>
    <g id="ytick_5">
     <g id="line2d_17">
      <path clip-path="url(#p4285404336)" d="M 0 63.816238 
L 460.8 63.816238 
" style="fill:none;stroke:#b0b0b0;stroke-linecap:square;stroke-width:0.8;"/>
     </g>
     <g id="line2d_18">
      <g>
       <use style="stroke:#000000;stroke-width:0.8;" x="0" xlink:href="#mb56e25956d" y="63.816238"/>
      </g>
     </g>
    </g>
    <g id="ytick_6">
     <g id="line2d_19">
      <path clip-path="url(#p4285404336)" d="M 0 6.330297 
L 460.8 6.330297 
" style="fill:none;stroke:#b0b0b0;stroke-linecap:square;stroke-width:0.8;"/>
     </g>
     <g id="line2d_20">
      <g>
       <use style="stroke:#000000;stroke-width:0.8;" x="0" xlink:href="#mb56e25956d" y="6.330297"/>
      </g>
     </g>
    </g>
   </g>
   <g id="line2d_21">
    <path clip-path="url(#p4285404336)" d="M 216.84278 293.76 
L 216.84278 289.927604 
L 230.049332 289.927604 
L 230.049332 286.095208 
L 241.547983 286.095208 
L 241.547983 282.262812 
L 247.638808 282.262812 
L 247.638808 278.430416 
L 247.818609 278.430416 
L 247.818609 274.59802 
L 247.953512 274.59802 
L 247.953512 270.765624 
L 248.554482 270.765624 
L 248.554482 266.933228 
L 250.022106 266.933228 
L 250.022106 263.100832 
L 251.439816 263.100832 
L 251.439816 259.268436 
L 253.794004 259.268436 
L 253.794004 255.43604 
L 256.528077 255.43604 
L 256.528077 251.603644 
L 256.723461 251.603644 
L 256.723461 247.771248 
L 256.92602 247.771248 
L 256.92602 243.938851 
L 257.499445 243.938851 
L 257.499445 240.106455 
L 259.991844 240.106455 
L 260.037029 232.441663 
L 261.456387 232.441663 
L 261.522655 220.944475 
L 262.995071 220.944475 
L 262.995071 217.112079 
L 263.295575 217.112079 
L 263.295575 213.279683 
L 264.34573 213.279683 
L 264.34573 209.447287 
L 264.936601 209.447287 
L 264.960392 201.782495 
L 265.672739 201.782495 
L 265.672739 197.950099 
L 265.878428 197.950099 
L 265.88974 190.285307 
L 266.361333 190.285307 
L 266.361333 186.452911 
L 267.880052 186.452911 
L 267.880052 182.620515 
L 268.944549 182.620515 
L 268.963573 174.955723 
L 269.186612 174.955723 
L 269.186612 171.123327 
L 270.469627 171.123327 
L 270.548787 163.458535 
L 271.593178 163.458535 
L 271.66887 155.793743 
L 272.641549 155.793743 
L 272.641549 151.961347 
L 274.176314 151.961347 
L 274.266077 140.464158 
L 274.355279 140.464158 
L 274.355279 136.631762 
L 274.499194 136.631762 
L 274.549931 128.96697 
L 274.670713 128.96697 
L 274.718377 121.302178 
L 275.092796 121.302178 
L 275.114952 113.637386 
L 275.707537 113.637386 
L 275.707537 109.80499 
L 275.849988 109.80499 
L 275.849988 105.972594 
L 276.159269 105.972594 
L 276.159269 102.140198 
L 276.682049 102.140198 
L 276.682049 98.307802 
L 276.875129 98.307802 
L 276.875129 94.475406 
L 278.827741 94.475406 
L 278.827741 90.64301 
L 279.352604 90.64301 
L 279.352604 86.810614 
L 279.767687 86.810614 
L 279.767687 82.978218 
L 280.367656 82.978218 
L 280.367656 79.145822 
L 280.678097 79.145822 
L 280.770187 71.48103 
L 283.016647 71.48103 
L 283.016647 67.648634 
L 283.464579 67.648634 
L 283.464579 63.816238 
L 330.686577 63.816238 
L 330.686577 59.983842 
L 346.027457 59.983842 
L 346.027457 56.151446 
L 347.723607 56.151446 
L 347.723607 52.31905 
L 349.612068 52.31905 
L 349.612068 48.486653 
L 355.038021 48.486653 
L 355.038021 44.654257 
L 363.552802 44.654257 
L 363.552802 40.821861 
L 370.770084 40.821861 
L 370.770084 36.989465 
L 375.868298 36.989465 
L 375.868298 33.157069 
L 377.863924 33.157069 
L 377.863924 29.324673 
L 378.377754 29.324673 
L 378.377754 25.492277 
L 379.354356 25.492277 
L 379.354356 21.659881 
L 382.474598 21.659881 
L 382.474598 17.827485 
L 389.691775 17.827485 
L 389.691775 13.995089 
L 390.390811 13.995089 
L 390.390811 10.162693 
L 391.831022 10.162693 
L 391.831022 6.330297 
L 391.831022 6.330297 
L 460.8 6.330297 
L 460.8 6.330297 
" style="fill:none;stroke:#ff0000;stroke-linecap:square;stroke-width:3;"/>
   </g>
   <g id="line2d_22">
    <path clip-path="url(#p4285404336)" d="M 247.818609 293.76 
L 247.818609 289.927604 
L 248.071444 289.927604 
L 248.071444 286.095208 
L 248.554482 286.095208 
L 248.554482 282.262812 
L 251.119208 282.262812 
L 251.119208 278.430416 
L 253.111342 278.430416 
L 253.111342 274.59802 
L 254.402224 274.59802 
L 254.402224 270.765624 
L 254.920346 270.765624 
L 254.920346 266.933228 
L 256.92602 266.933228 
L 256.92602 263.100832 
L 259.688355 263.100832 
L 259.688355 259.268436 
L 260.299058 259.268436 
L 260.299058 255.43604 
L 260.98166 255.43604 
L 260.98166 251.603644 
L 261.852577 251.603644 
L 261.852577 247.771248 
L 262.876428 247.771248 
L 262.876428 243.938851 
L 265.085716 243.938851 
L 265.085716 240.106455 
L 265.408119 240.106455 
L 265.408119 236.274059 
L 267.880052 236.274059 
L 267.880052 232.441663 
L 270.873997 232.441663 
L 270.873997 228.609267 
L 271.593178 228.609267 
L 271.66887 217.112079 
L 271.795121 217.112079 
L 271.795121 213.279683 
L 272.296918 213.279683 
L 272.389215 205.614891 
L 272.666235 205.614891 
L 272.666235 201.782495 
L 273.251505 201.782495 
L 273.268417 163.458535 
L 274.355279 163.458535 
L 274.355279 159.626139 
L 274.499194 159.626139 
L 274.549931 151.961347 
L 274.670713 151.961347 
L 274.670713 148.12895 
L 275.092796 148.12895 
L 275.114952 136.631762 
L 275.214087 136.631762 
L 275.262713 128.96697 
L 275.707537 128.96697 
L 275.707537 125.134574 
L 276.875129 125.134574 
L 276.875129 121.302178 
L 278.827741 121.302178 
L 278.827741 117.469782 
L 279.767687 117.469782 
L 279.767687 113.637386 
L 280.090064 113.637386 
L 280.090064 109.80499 
L 280.367656 109.80499 
L 280.367656 105.972594 
L 280.678097 105.972594 
L 280.678097 102.140198 
L 281.450079 102.140198 
L 281.551323 94.475406 
L 282.635063 94.475406 
L 282.635063 90.64301 
L 283.016647 90.64301 
L 283.016647 86.810614 
L 283.232568 86.810614 
L 283.232568 82.978218 
L 283.505144 82.978218 
L 283.505144 79.145822 
L 284.132683 79.145822 
L 284.132683 75.313426 
L 289.520958 75.313426 
L 289.520958 71.48103 
L 289.644271 71.48103 
L 289.644271 67.648634 
L 290.218712 67.648634 
L 290.218712 63.816238 
L 330.686577 63.816238 
L 330.686577 59.983842 
L 355.038021 59.983842 
L 355.038021 56.151446 
L 369.258141 56.151446 
L 369.258141 52.31905 
L 389.524201 52.31905 
L 389.524201 48.486653 
L 389.98907 48.486653 
L 389.98907 44.654257 
L 391.052891 44.654257 
L 391.052891 40.821861 
L 396.777286 40.821861 
L 396.777286 36.989465 
L 397.171047 36.989465 
L 397.171047 33.157069 
L 400.619594 33.157069 
L 400.619594 29.324673 
L 402.608469 29.324673 
L 402.608469 25.492277 
L 406.444018 25.492277 
L 406.444018 21.659881 
L 406.921161 21.659881 
L 406.921161 17.827485 
L 410.241977 17.827485 
L 410.241977 13.995089 
L 411.072516 13.995089 
L 411.072516 10.162693 
L 411.771594 10.162693 
L 411.771594 6.330297 
L 411.771594 6.330297 
L 460.8 6.330297 
L 460.8 6.330297 
" style="fill:none;stroke:#00bfbf;stroke-linecap:square;stroke-width:1.5;"/>
   </g>
   <g id="line2d_23">
    <path clip-path="url(#p4285404336)" d="M 241.547983 293.76 
L 241.547983 289.927604 
L 247.818609 289.927604 
L 247.818609 286.095208 
L 247.953512 286.095208 
L 247.953512 282.262812 
L 248.071444 282.262812 
L 248.071444 278.430416 
L 248.554482 278.430416 
L 248.554482 274.59802 
L 253.111342 274.59802 
L 253.111342 270.765624 
L 253.794004 270.765624 
L 253.794004 266.933228 
L 254.920346 266.933228 
L 254.920346 263.100832 
L 255.577423 263.100832 
L 255.577423 259.268436 
L 256.92602 259.268436 
L 256.92602 255.43604 
L 257.499445 255.43604 
L 257.499445 251.603644 
L 259.688355 251.603644 
L 259.688355 247.771248 
L 260.037029 247.771248 
L 260.037029 243.938851 
L 261.456387 243.938851 
L 261.522655 232.441663 
L 262.876428 232.441663 
L 262.876428 228.609267 
L 264.823876 228.609267 
L 264.823876 224.776871 
L 265.085716 224.776871 
L 265.085716 220.944475 
L 265.88974 220.944475 
L 265.88974 217.112079 
L 266.361333 217.112079 
L 266.361333 213.279683 
L 267.858334 213.279683 
L 267.880052 205.614891 
L 268.247718 205.614891 
L 268.247718 201.782495 
L 268.944549 201.782495 
L 268.944549 197.950099 
L 269.186612 197.950099 
L 269.186612 194.117703 
L 269.730341 194.117703 
L 269.730341 190.285307 
L 270.408133 190.285307 
L 270.469627 182.620515 
L 270.548787 182.620515 
L 270.548787 178.788119 
L 270.779349 178.788119 
L 270.779349 174.955723 
L 271.593178 174.955723 
L 271.66887 163.458535 
L 271.795121 163.458535 
L 271.795121 159.626139 
L 272.641549 159.626139 
L 272.666235 151.961347 
L 274.176314 151.961347 
L 274.266077 140.464158 
L 274.355279 140.464158 
L 274.355279 136.631762 
L 274.499194 136.631762 
L 274.549931 128.96697 
L 274.670713 128.96697 
L 274.718377 121.302178 
L 275.092796 121.302178 
L 275.114952 113.637386 
L 275.707537 113.637386 
L 275.707537 109.80499 
L 276.159269 109.80499 
L 276.159269 105.972594 
L 276.682049 105.972594 
L 276.682049 102.140198 
L 276.875129 102.140198 
L 276.875129 98.307802 
L 278.827741 98.307802 
L 278.827741 94.475406 
L 279.352604 94.475406 
L 279.352604 90.64301 
L 279.767687 90.64301 
L 279.767687 86.810614 
L 280.367656 86.810614 
L 280.367656 82.978218 
L 280.678097 82.978218 
L 280.678097 79.145822 
L 282.589402 79.145822 
L 282.635063 71.48103 
L 283.016647 71.48103 
L 283.016647 67.648634 
L 283.464579 67.648634 
L 283.464579 63.816238 
L 330.686577 63.816238 
L 330.686577 59.983842 
L 346.027457 59.983842 
L 346.027457 56.151446 
L 347.723607 56.151446 
L 347.723607 52.31905 
L 355.038021 52.31905 
L 355.038021 48.486653 
L 363.552802 48.486653 
L 363.552802 44.654257 
L 370.770084 44.654257 
L 370.770084 40.821861 
L 385.097584 40.821861 
L 385.097584 36.989465 
L 389.524201 36.989465 
L 389.524201 33.157069 
L 389.691775 33.157069 
L 389.691775 29.324673 
L 390.390811 29.324673 
L 390.390811 25.492277 
L 391.831022 25.492277 
L 391.831022 21.659881 
L 392.3334 21.659881 
L 392.3334 17.827485 
L 393.079458 17.827485 
L 393.079458 13.995089 
L 402.757835 13.995089 
L 402.757835 10.162693 
L 406.444018 10.162693 
L 406.444018 6.330297 
L 406.444018 6.330297 
L 460.8 6.330297 
L 460.8 6.330297 
" style="fill:none;stroke:#bf00bf;stroke-linecap:square;stroke-width:1.5;"/>
   </g>
   <g id="patch_3">
    <path d="M 0 293.76 
L 0 3.456 
" style="fill:none;stroke:#000000;stroke-linecap:square;stroke-linejoin:miter;stroke-width:0.8;"/>
   </g>
   <g id="patch_4">
    <path d="M 460.8 293.76 
L 460.8 3.456 
" style="fill:none;stroke:#000000;stroke-linecap:square;stroke-linejoin:miter;stroke-width:0.8;"/>
   </g>
   <g id="patch_5">
    <path d="M 0 293.76 
L 460.8 293.76 
" style="fill:none;stroke:#000000;stroke-linecap:square;stroke-linejoin:miter;stroke-width:0.8;"/>
   </g>
   <g id="patch_6">
    <path d="M 0 3.456 
L 460.8 3.456 
" style="fill:none;stroke:#000000;stroke-linecap:square;stroke-linejoin:miter;stroke-width:0.8;"/>
   </g>
   <g id="text_6">
    <!-- {f1-f5}, 5-D -->
    <g transform="translate(331.334 287.95392)scale(0.2 -0.2)">
     <defs>
      <path d="M 3272 -594 
L 3272 -1044 
L 3078 -1044 
Q 2300 -1044 2036 -812 
Q 1772 -581 1772 109 
L 1772 856 
Q 1772 1328 1603 1509 
Q 1434 1691 991 1691 
L 800 1691 
L 800 2138 
L 991 2138 
Q 1438 2138 1605 2317 
Q 1772 2497 1772 2963 
L 1772 3713 
Q 1772 4403 2036 4633 
Q 2300 4863 3078 4863 
L 3272 4863 
L 3272 4416 
L 3059 4416 
Q 2619 4416 2484 4278 
Q 2350 4141 2350 3700 
L 2350 2925 
Q 2350 2434 2208 2212 
Q 2066 1991 1722 1913 
Q 2069 1828 2209 1606 
Q 2350 1384 2350 897 
L 2350 122 
Q 2350 -319 2484 -456 
Q 2619 -594 3059 -594 
L 3272 -594 
z
" id="DejaVuSans-7b" transform="scale(0.015625)"/>
      <path d="M 691 4666 
L 3169 4666 
L 3169 4134 
L 1269 4134 
L 1269 2991 
Q 1406 3038 1543 3061 
Q 1681 3084 1819 3084 
Q 2600 3084 3056 2656 
Q 3513 2228 3513 1497 
Q 3513 744 3044 326 
Q 2575 -91 1722 -91 
Q 1428 -91 1123 -41 
Q 819 9 494 109 
L 494 744 
Q 775 591 1075 516 
Q 1375 441 1709 441 
Q 2250 441 2565 725 
Q 2881 1009 2881 1497 
Q 2881 1984 2565 2268 
Q 2250 2553 1709 2553 
Q 1456 2553 1204 2497 
Q 953 2441 691 2322 
L 691 4666 
z
" id="DejaVuSans-35" transform="scale(0.015625)"/>
      <path d="M 800 -594 
L 1019 -594 
Q 1456 -594 1589 -459 
Q 1722 -325 1722 122 
L 1722 897 
Q 1722 1384 1862 1606 
Q 2003 1828 2350 1913 
Q 2003 1991 1862 2212 
Q 1722 2434 1722 2925 
L 1722 3700 
Q 1722 4144 1589 4280 
Q 1456 4416 1019 4416 
L 800 4416 
L 800 4863 
L 997 4863 
Q 1775 4863 2036 4633 
Q 2297 4403 2297 3713 
L 2297 2963 
Q 2297 2497 2465 2317 
Q 2634 2138 3078 2138 
L 3272 2138 
L 3272 1691 
L 3078 1691 
Q 2634 1691 2465 1509 
Q 2297 1328 2297 856 
L 2297 109 
Q 2297 -581 2036 -812 
Q 1775 -1044 997 -1044 
L 800 -1044 
L 800 -594 
z
" id="DejaVuSans-7d" transform="scale(0.015625)"/>
      <path d="M 750 794 
L 1409 794 
L 1409 256 
L 897 -744 
L 494 -744 
L 750 256 
L 750 794 
z
" id="DejaVuSans-2c" transform="scale(0.015625)"/>
     </defs>
     <use xlink:href="#DejaVuSans-7b"/>
     <use x="63.623047" xlink:href="#DejaVuSans-66"/>
     <use x="98.828125" xlink:href="#DejaVuSans-31"/>
     <use x="162.451172" xlink:href="#DejaVuSans-2d"/>
     <use x="198.535156" xlink:href="#DejaVuSans-66"/>
     <use x="233.740234" xlink:href="#DejaVuSans-35"/>
     <use x="297.363281" xlink:href="#DejaVuSans-7d"/>
     <use x="360.986328" xlink:href="#DejaVuSans-2c"/>
     <use x="392.773438" xlink:href="#DejaVuSans-20"/>
     <use x="424.560547" xlink:href="#DejaVuSans-35"/>
     <use x="488.183594" xlink:href="#DejaVuSans-2d"/>
     <use x="524.267578" xlink:href="#DejaVuSans-44"/>
    </g>
   </g>
   <g id="text_7">
    <!-- v2.4 -->
    <g style="fill:#808080;" transform="translate(219.489063 288.777272)scale(0.1 -0.1)">
     <defs>
      <path d="M 191 3500 
L 800 3500 
L 1894 563 
L 2988 3500 
L 3597 3500 
L 2284 0 
L 1503 0 
L 191 3500 
z
" id="DejaVuSans-76" transform="scale(0.015625)"/>
      <path d="M 1228 531 
L 3431 531 
L 3431 0 
L 469 0 
L 469 531 
Q 828 903 1448 1529 
Q 2069 2156 2228 2338 
Q 2531 2678 2651 2914 
Q 2772 3150 2772 3378 
Q 2772 3750 2511 3984 
Q 2250 4219 1831 4219 
Q 1534 4219 1204 4116 
Q 875 4013 500 3803 
L 500 4441 
Q 881 4594 1212 4672 
Q 1544 4750 1819 4750 
Q 2544 4750 2975 4387 
Q 3406 4025 3406 3419 
Q 3406 3131 3298 2873 
Q 3191 2616 2906 2266 
Q 2828 2175 2409 1742 
Q 1991 1309 1228 531 
z
" id="DejaVuSans-32" transform="scale(0.015625)"/>
      <path d="M 684 794 
L 1344 794 
L 1344 0 
L 684 0 
L 684 794 
z
" id="DejaVuSans-2e" transform="scale(0.015625)"/>
     </defs>
     <use xlink:href="#DejaVuSans-76"/>
     <use x="59.179688" xlink:href="#DejaVuSans-32"/>
     <use x="122.802734" xlink:href="#DejaVuSans-2e"/>
     <use x="154.589844" xlink:href="#DejaVuSans-34"/>
    </g>
   </g>
  </g>
 </g>
 <defs>
  <clipPath id="p4285404336">
   <rect height="290.304" width="460.8" x="0" y="3.456"/>
  </clipPath>
 </defs>
</svg>
