<?xml version="1.0" encoding="utf-8" standalone="no"?>
<!DOCTYPE svg PUBLIC "-//W3C//DTD SVG 1.1//EN"
  "http://www.w3.org/Graphics/SVG/1.1/DTD/svg11.dtd">
<svg height="345.6pt" version="1.1" viewBox="0 0 460.8 345.6" width="460.8pt" xmlns="http://www.w3.org/2000/svg" xmlns:xlink="http://www.w3.org/1999/xlink">
 <metadata>
  <rdf:RDF xmlns:cc="http://creativecommons.org/ns#" xmlns:dc="http://purl.org/dc/elements/1.1/" xmlns:rdf="http://www.w3.org/1999/02/22-rdf-syntax-ns#">
   <cc:Work>
    <dc:type rdf:resource="http://purl.org/dc/dcmitype/StillImage"/>
    <dc:date>2021-07-27T16:20:10.289396</dc:date>
    <dc:format>image/svg+xml</dc:format>
    <dc:creator>
     <cc:Agent>
      <dc:title>Matplotlib v3.4.2, https://matplotlib.org/</dc:title>
     </cc:Agent>
    </dc:creator>
   </cc:Work>
  </rdf:RDF>
 </metadata>
 <defs>
  <style type="text/css">*{stroke-linecap:butt;stroke-linejoin:round;}</style>
 </defs>
 <g id="figure_1">
  <g id="patch_1">
   <path d="M 0 345.6 
L 460.8 345.6 
L 460.8 0 
L 0 0 
z
" style="fill:#ffffff;"/>
  </g>
  <g id="axes_1">
   <g id="patch_2">
    <path d="M 0 293.76 
L 460.8 293.76 
L 460.8 3.456 
L 0 3.456 
z
" style="fill:#ffffff;"/>
   </g>
   <g id="matplotlib.axis_1">
    <g id="xtick_1">
     <g id="line2d_1">
      <path clip-path="url(#p5a3ec6152e)" d="M 108.880304 293.76 
L 108.880304 3.456 
" style="fill:none;stroke:#b0b0b0;stroke-linecap:square;stroke-width:0.8;"/>
     </g>
     <g id="line2d_2">
      <defs>
       <path d="M 0 0 
L 0 3.5 
" id="ma0594ebd30" style="stroke:#000000;stroke-width:0.8;"/>
      </defs>
      <g>
       <use style="stroke:#000000;stroke-width:0.8;" x="108.880304" xlink:href="#ma0594ebd30" y="293.76"/>
      </g>
     </g>
     <g id="text_1">
      <!-- -4 -->
      <g transform="translate(98.909991 315.956875)scale(0.2 -0.2)">
       <defs>
        <path d="M 313 2009 
L 1997 2009 
L 1997 1497 
L 313 1497 
L 313 2009 
z
" id="DejaVuSans-2d" transform="scale(0.015625)"/>
        <path d="M 2419 4116 
L 825 1625 
L 2419 1625 
L 2419 4116 
z
M 2253 4666 
L 3047 4666 
L 3047 1625 
L 3713 1625 
L 3713 1100 
L 3047 1100 
L 3047 0 
L 2419 0 
L 2419 1100 
L 313 1100 
L 313 1709 
L 2253 4666 
z
" id="DejaVuSans-34" transform="scale(0.015625)"/>
       </defs>
       <use xlink:href="#DejaVuSans-2d"/>
       <use x="36.083984" xlink:href="#DejaVuSans-34"/>
      </g>
     </g>
    </g>
    <g id="xtick_2">
     <g id="line2d_3">
      <path clip-path="url(#p5a3ec6152e)" d="M 217.878363 293.76 
L 217.878363 3.456 
" style="fill:none;stroke:#b0b0b0;stroke-linecap:square;stroke-width:0.8;"/>
     </g>
     <g id="line2d_4">
      <g>
       <use style="stroke:#000000;stroke-width:0.8;" x="217.878363" xlink:href="#ma0594ebd30" y="293.76"/>
      </g>
     </g>
     <g id="text_2">
      <!-- 0 -->
      <g transform="translate(211.515863 315.956875)scale(0.2 -0.2)">
       <defs>
        <path d="M 2034 4250 
Q 1547 4250 1301 3770 
Q 1056 3291 1056 2328 
Q 1056 1369 1301 889 
Q 1547 409 2034 409 
Q 2525 409 2770 889 
Q 3016 1369 3016 2328 
Q 3016 3291 2770 3770 
Q 2525 4250 2034 4250 
z
M 2034 4750 
Q 2819 4750 3233 4129 
Q 3647 3509 3647 2328 
Q 3647 1150 3233 529 
Q 2819 -91 2034 -91 
Q 1250 -91 836 529 
Q 422 1150 422 2328 
Q 422 3509 836 4129 
Q 1250 4750 2034 4750 
z
" id="DejaVuSans-30" transform="scale(0.015625)"/>
       </defs>
       <use xlink:href="#DejaVuSans-30"/>
      </g>
     </g>
    </g>
    <g id="xtick_3">
     <g id="line2d_5">
      <path clip-path="url(#p5a3ec6152e)" d="M 326.876422 293.76 
L 326.876422 3.456 
" style="fill:none;stroke:#b0b0b0;stroke-linecap:square;stroke-width:0.8;"/>
     </g>
     <g id="line2d_6">
      <g>
       <use style="stroke:#000000;stroke-width:0.8;" x="326.876422" xlink:href="#ma0594ebd30" y="293.76"/>
      </g>
     </g>
     <g id="text_3">
      <!-- 4 -->
      <g transform="translate(320.513922 315.956875)scale(0.2 -0.2)">
       <use xlink:href="#DejaVuSans-34"/>
      </g>
     </g>
    </g>
    <g id="xtick_4">
     <g id="line2d_7">
      <path clip-path="url(#p5a3ec6152e)" d="M 435.874482 293.76 
L 435.874482 3.456 
" style="fill:none;stroke:#b0b0b0;stroke-linecap:square;stroke-width:0.8;"/>
     </g>
     <g id="line2d_8">
      <g>
       <use style="stroke:#000000;stroke-width:0.8;" x="435.874482" xlink:href="#ma0594ebd30" y="293.76"/>
      </g>
     </g>
     <g id="text_4">
      <!-- 8 -->
      <g transform="translate(429.511982 315.956875)scale(0.2 -0.2)">
       <defs>
        <path d="M 2034 2216 
Q 1584 2216 1326 1975 
Q 1069 1734 1069 1313 
Q 1069 891 1326 650 
Q 1584 409 2034 409 
Q 2484 409 2743 651 
Q 3003 894 3003 1313 
Q 3003 1734 2745 1975 
Q 2488 2216 2034 2216 
z
M 1403 2484 
Q 997 2584 770 2862 
Q 544 3141 544 3541 
Q 544 4100 942 4425 
Q 1341 4750 2034 4750 
Q 2731 4750 3128 4425 
Q 3525 4100 3525 3541 
Q 3525 3141 3298 2862 
Q 3072 2584 2669 2484 
Q 3125 2378 3379 2068 
Q 3634 1759 3634 1313 
Q 3634 634 3220 271 
Q 2806 -91 2034 -91 
Q 1263 -91 848 271 
Q 434 634 434 1313 
Q 434 1759 690 2068 
Q 947 2378 1403 2484 
z
M 1172 3481 
Q 1172 3119 1398 2916 
Q 1625 2713 2034 2713 
Q 2441 2713 2670 2916 
Q 2900 3119 2900 3481 
Q 2900 3844 2670 4047 
Q 2441 4250 2034 4250 
Q 1625 4250 1398 4047 
Q 1172 3844 1172 3481 
z
" id="DejaVuSans-38" transform="scale(0.015625)"/>
       </defs>
       <use xlink:href="#DejaVuSans-38"/>
      </g>
     </g>
    </g>
    <g id="text_5">
     <!-- log10 of Df -->
     <g transform="translate(175.214063 339.313125)scale(0.2 -0.2)">
      <defs>
       <path d="M 603 4863 
L 1178 4863 
L 1178 0 
L 603 0 
L 603 4863 
z
" id="DejaVuSans-6c" transform="scale(0.015625)"/>
       <path d="M 1959 3097 
Q 1497 3097 1228 2736 
Q 959 2375 959 1747 
Q 959 1119 1226 758 
Q 1494 397 1959 397 
Q 2419 397 2687 759 
Q 2956 1122 2956 1747 
Q 2956 2369 2687 2733 
Q 2419 3097 1959 3097 
z
M 1959 3584 
Q 2709 3584 3137 3096 
Q 3566 2609 3566 1747 
Q 3566 888 3137 398 
Q 2709 -91 1959 -91 
Q 1206 -91 779 398 
Q 353 888 353 1747 
Q 353 2609 779 3096 
Q 1206 3584 1959 3584 
z
" id="DejaVuSans-6f" transform="scale(0.015625)"/>
       <path d="M 2906 1791 
Q 2906 2416 2648 2759 
Q 2391 3103 1925 3103 
Q 1463 3103 1205 2759 
Q 947 2416 947 1791 
Q 947 1169 1205 825 
Q 1463 481 1925 481 
Q 2391 481 2648 825 
Q 2906 1169 2906 1791 
z
M 3481 434 
Q 3481 -459 3084 -895 
Q 2688 -1331 1869 -1331 
Q 1566 -1331 1297 -1286 
Q 1028 -1241 775 -1147 
L 775 -588 
Q 1028 -725 1275 -790 
Q 1522 -856 1778 -856 
Q 2344 -856 2625 -561 
Q 2906 -266 2906 331 
L 2906 616 
Q 2728 306 2450 153 
Q 2172 0 1784 0 
Q 1141 0 747 490 
Q 353 981 353 1791 
Q 353 2603 747 3093 
Q 1141 3584 1784 3584 
Q 2172 3584 2450 3431 
Q 2728 3278 2906 2969 
L 2906 3500 
L 3481 3500 
L 3481 434 
z
" id="DejaVuSans-67" transform="scale(0.015625)"/>
       <path d="M 794 531 
L 1825 531 
L 1825 4091 
L 703 3866 
L 703 4441 
L 1819 4666 
L 2450 4666 
L 2450 531 
L 3481 531 
L 3481 0 
L 794 0 
L 794 531 
z
" id="DejaVuSans-31" transform="scale(0.015625)"/>
       <path id="DejaVuSans-20" transform="scale(0.015625)"/>
       <path d="M 2375 4863 
L 2375 4384 
L 1825 4384 
Q 1516 4384 1395 4259 
Q 1275 4134 1275 3809 
L 1275 3500 
L 2222 3500 
L 2222 3053 
L 1275 3053 
L 1275 0 
L 697 0 
L 697 3053 
L 147 3053 
L 147 3500 
L 697 3500 
L 697 3744 
Q 697 4328 969 4595 
Q 1241 4863 1831 4863 
L 2375 4863 
z
" id="DejaVuSans-66" transform="scale(0.015625)"/>
       <path d="M 1259 4147 
L 1259 519 
L 2022 519 
Q 2988 519 3436 956 
Q 3884 1394 3884 2338 
Q 3884 3275 3436 3711 
Q 2988 4147 2022 4147 
L 1259 4147 
z
M 628 4666 
L 1925 4666 
Q 3281 4666 3915 4102 
Q 4550 3538 4550 2338 
Q 4550 1131 3912 565 
Q 3275 0 1925 0 
L 628 0 
L 628 4666 
z
" id="DejaVuSans-44" transform="scale(0.015625)"/>
      </defs>
      <use xlink:href="#DejaVuSans-6c"/>
      <use x="27.783203" xlink:href="#DejaVuSans-6f"/>
      <use x="88.964844" xlink:href="#DejaVuSans-67"/>
      <use x="152.441406" xlink:href="#DejaVuSans-31"/>
      <use x="216.064453" xlink:href="#DejaVuSans-30"/>
      <use x="279.6875" xlink:href="#DejaVuSans-20"/>
      <use x="311.474609" xlink:href="#DejaVuSans-6f"/>
      <use x="372.65625" xlink:href="#DejaVuSans-66"/>
      <use x="407.861328" xlink:href="#DejaVuSans-20"/>
      <use x="439.648438" xlink:href="#DejaVuSans-44"/>
      <use x="516.650391" xlink:href="#DejaVuSans-66"/>
     </g>
    </g>
   </g>
   <g id="matplotlib.axis_2">
    <g id="ytick_1">
     <g id="line2d_9">
      <path clip-path="url(#p5a3ec6152e)" d="M 0 293.76 
L 460.8 293.76 
" style="fill:none;stroke:#b0b0b0;stroke-linecap:square;stroke-width:0.8;"/>
     </g>
     <g id="line2d_10">
      <defs>
       <path d="M 0 0 
L -3.5 0 
" id="m463507ef26" style="stroke:#000000;stroke-width:0.8;"/>
      </defs>
      <g>
       <use style="stroke:#000000;stroke-width:0.8;" x="0" xlink:href="#m463507ef26" y="293.76"/>
      </g>
     </g>
    </g>
    <g id="ytick_2">
     <g id="line2d_11">
      <path clip-path="url(#p5a3ec6152e)" d="M 0 236.274059 
L 460.8 236.274059 
" style="fill:none;stroke:#b0b0b0;stroke-linecap:square;stroke-width:0.8;"/>
     </g>
     <g id="line2d_12">
      <g>
       <use style="stroke:#000000;stroke-width:0.8;" x="0" xlink:href="#m463507ef26" y="236.274059"/>
      </g>
     </g>
    </g>
    <g id="ytick_3">
     <g id="line2d_13">
      <path clip-path="url(#p5a3ec6152e)" d="M 0 178.788119 
L 460.8 178.788119 
" style="fill:none;stroke:#b0b0b0;stroke-linecap:square;stroke-width:0.8;"/>
     </g>
     <g id="line2d_14">
      <g>
       <use style="stroke:#000000;stroke-width:0.8;" x="0" xlink:href="#m463507ef26" y="178.788119"/>
      </g>
     </g>
    </g>
    <g id="ytick_4">
     <g id="line2d_15">
      <path clip-path="url(#p5a3ec6152e)" d="M 0 121.302178 
L 460.8 121.302178 
" style="fill:none;stroke:#b0b0b0;stroke-linecap:square;stroke-width:0.8;"/>
     </g>
     <g id="line2d_16">
      <g>
       <use style="stroke:#000000;stroke-width:0.8;" x="0" xlink:href="#m463507ef26" y="121.302178"/>
      </g>
     </g>
    </g>
    <g id="ytick_5">
     <g id="line2d_17">
      <path clip-path="url(#p5a3ec6152e)" d="M 0 63.816238 
L 460.8 63.816238 
" style="fill:none;stroke:#b0b0b0;stroke-linecap:square;stroke-width:0.8;"/>
     </g>
     <g id="line2d_18">
      <g>
       <use style="stroke:#000000;stroke-width:0.8;" x="0" xlink:href="#m463507ef26" y="63.816238"/>
      </g>
     </g>
    </g>
    <g id="ytick_6">
     <g id="line2d_19">
      <path clip-path="url(#p5a3ec6152e)" d="M 0 6.330297 
L 460.8 6.330297 
" style="fill:none;stroke:#b0b0b0;stroke-linecap:square;stroke-width:0.8;"/>
     </g>
     <g id="line2d_20">
      <g>
       <use style="stroke:#000000;stroke-width:0.8;" x="0" xlink:href="#m463507ef26" y="6.330297"/>
      </g>
     </g>
    </g>
   </g>
   <g id="line2d_21">
    <path clip-path="url(#p5a3ec6152e)" d="M 201.490199 293.76 
L 201.490199 281.783762 
L 216.84278 281.783762 
L 216.84278 280.985347 
L 224.645652 280.985347 
L 224.645652 280.186931 
L 229.767064 280.186931 
L 229.767064 279.388515 
L 229.94693 279.388515 
L 230.049332 277.791683 
L 231.762845 277.791683 
L 231.762845 276.993267 
L 235.452242 276.993267 
L 235.452242 276.194851 
L 235.806245 276.194851 
L 235.806245 275.396436 
L 235.984057 275.396436 
L 235.984057 274.59802 
L 236.910681 274.59802 
L 236.910681 273.799604 
L 237.681028 273.799604 
L 237.681028 273.001188 
L 237.846872 273.001188 
L 237.846872 272.202772 
L 238.661583 272.202772 
L 238.661583 271.404356 
L 239.494025 271.404356 
L 239.494025 270.605941 
L 240.213052 270.605941 
L 240.314621 269.009109 
L 240.418383 269.009109 
L 240.477988 267.412277 
L 240.631746 267.412277 
L 240.631746 266.613861 
L 241.547983 266.613861 
L 241.547983 265.815446 
L 241.808393 265.815446 
L 241.808393 265.01703 
L 242.072683 265.01703 
L 242.072683 264.218614 
L 242.3963 264.218614 
L 242.464906 262.621782 
L 242.649242 262.621782 
L 242.739401 259.428119 
L 242.87874 259.428119 
L 242.87874 258.629703 
L 243.221545 258.629703 
L 243.221545 257.831287 
L 243.355568 257.831287 
L 243.355568 257.032871 
L 243.997722 257.032871 
L 244.09362 255.43604 
L 244.23482 255.43604 
L 244.284684 253.839208 
L 244.451515 253.839208 
L 244.451515 253.040792 
L 244.925053 253.040792 
L 244.925053 252.242376 
L 245.490738 252.242376 
L 245.490738 251.44396 
L 245.831788 251.44396 
L 245.831788 250.645545 
L 246.161251 250.645545 
L 246.161251 249.847129 
L 246.338384 249.847129 
L 246.338384 249.048713 
L 246.543633 249.048713 
L 246.543633 248.250297 
L 247.091494 248.250297 
L 247.091494 247.451881 
L 247.291165 247.451881 
L 247.291165 246.653465 
L 247.638808 246.653465 
L 247.638808 245.85505 
L 247.818609 245.85505 
L 247.818609 245.056634 
L 247.953512 245.056634 
L 247.953512 244.258218 
L 248.294328 244.258218 
L 248.294328 243.459802 
L 248.554482 243.459802 
L 248.554482 242.661386 
L 249.150322 242.661386 
L 249.24071 241.064554 
L 249.31793 241.064554 
L 249.31793 240.266139 
L 249.583708 240.266139 
L 249.583708 239.467723 
L 249.929406 239.467723 
L 250.022106 237.072475 
L 251.439816 237.072475 
L 251.439816 236.274059 
L 251.976537 236.274059 
L 251.976537 235.475644 
L 252.967065 235.475644 
L 252.967065 234.677228 
L 253.242294 234.677228 
L 253.242294 233.878812 
L 253.442914 233.878812 
L 253.442914 233.080396 
L 253.623635 233.080396 
L 253.655572 231.483564 
L 253.794004 231.483564 
L 253.794004 230.685149 
L 254.069215 230.685149 
L 254.163201 229.088317 
L 255.478484 229.088317 
L 255.534447 227.491485 
L 256.121644 227.491485 
L 256.176592 225.096238 
L 256.323714 225.096238 
L 256.323714 224.297822 
L 256.4357 224.297822 
L 256.528077 211.523168 
L 256.723461 211.523168 
L 256.723461 210.724752 
L 256.838441 210.724752 
L 256.92602 209.127921 
L 257.391954 209.127921 
L 257.499445 206.732673 
L 257.72303 206.732673 
L 257.753434 205.135842 
L 257.955246 205.135842 
L 257.955246 204.337426 
L 258.153133 204.337426 
L 258.153133 203.53901 
L 258.546981 203.53901 
L 258.561374 201.942178 
L 258.778452 201.942178 
L 258.788064 200.345347 
L 259.066912 200.345347 
L 259.144123 198.748515 
L 259.566485 198.748515 
L 259.661417 196.353267 
L 259.884107 196.353267 
L 259.991844 194.756436 
L 260.037029 194.756436 
L 260.074766 193.159604 
L 260.374221 193.159604 
L 260.374221 192.361188 
L 260.657712 192.361188 
L 260.657712 191.562772 
L 260.859225 191.562772 
L 260.957352 189.965941 
L 261.107058 189.965941 
L 261.107058 189.167525 
L 261.377157 189.167525 
L 261.456387 186.772277 
L 261.52029 186.772277 
L 261.596656 183.578614 
L 262.863401 183.578614 
L 262.863401 182.780198 
L 262.995071 182.780198 
L 263.080653 181.183366 
L 263.176795 181.183366 
L 263.275825 179.586535 
L 263.295575 179.586535 
L 263.387311 177.989703 
L 263.782269 177.989703 
L 263.782269 177.191287 
L 263.931163 177.191287 
L 264.030292 175.594455 
L 264.34573 175.594455 
L 264.34573 174.79604 
L 264.65562 174.79604 
L 264.65562 173.997624 
L 264.89201 173.997624 
L 264.960392 170.80396 
L 265.096988 170.80396 
L 265.096988 170.005545 
L 265.265171 170.005545 
L 265.265171 169.207129 
L 265.467939 169.207129 
L 265.545117 167.610297 
L 265.650043 167.610297 
L 265.693795 165.21505 
L 265.878428 165.21505 
L 265.88974 163.618218 
L 266.063944 163.618218 
L 266.135822 162.021386 
L 266.24487 162.021386 
L 266.24487 161.22297 
L 266.361333 161.22297 
L 266.416508 158.827723 
L 266.618958 158.827723 
L 266.618958 158.029307 
L 266.763592 158.029307 
L 266.825292 156.432475 
L 267.017953 156.432475 
L 267.126322 153.238812 
L 267.138498 153.238812 
L 267.138498 152.440396 
L 267.715131 152.440396 
L 267.776572 150.843564 
L 267.880052 150.843564 
L 267.983976 148.448317 
L 268.034713 148.448317 
L 268.064296 146.053069 
L 268.639532 146.053069 
L 268.639532 145.254653 
L 268.944549 145.254653 
L 269.048991 142.859406 
L 269.186612 142.859406 
L 269.282782 141.262574 
L 269.469931 141.262574 
L 269.469931 140.464158 
L 270.278048 140.464158 
L 270.368568 138.867327 
L 270.469627 138.867327 
L 270.548787 137.270495 
L 271.251497 137.270495 
L 271.251497 136.472079 
L 271.593178 136.472079 
L 271.66887 134.875248 
L 271.852206 134.875248 
L 271.93143 133.278416 
L 272.641549 133.278416 
L 272.641549 132.48 
L 272.819764 132.48 
L 272.819764 131.681584 
L 273.622516 131.681584 
L 273.622516 130.883168 
L 274.176314 130.883168 
L 274.266077 128.487921 
L 274.316525 128.487921 
L 274.355279 126.891089 
L 274.499194 126.891089 
L 274.582403 124.495842 
L 274.645173 124.495842 
L 274.718377 122.100594 
L 275.092796 122.100594 
L 275.114952 120.503762 
L 275.57287 120.503762 
L 275.670107 118.108515 
L 275.707537 118.108515 
L 275.707537 117.310099 
L 275.849988 117.310099 
L 275.849988 116.511683 
L 276.159269 116.511683 
L 276.159269 115.713267 
L 276.647142 115.713267 
L 276.682049 114.116436 
L 276.875129 114.116436 
L 276.875129 113.31802 
L 277.75155 113.31802 
L 277.822153 111.721188 
L 278.827741 111.721188 
L 278.827741 110.922772 
L 279.019751 110.922772 
L 279.019751 110.124356 
L 279.352604 110.124356 
L 279.352604 109.325941 
L 279.767687 109.325941 
L 279.767687 108.527525 
L 280.154616 108.527525 
L 280.154616 107.729109 
L 280.367656 107.729109 
L 280.367656 106.930693 
L 280.648919 106.930693 
L 280.678097 105.333861 
L 280.770187 105.333861 
L 280.770187 104.535446 
L 281.44804 104.535446 
L 281.450298 102.938614 
L 282.237575 102.938614 
L 282.237575 102.140198 
L 283.016647 102.140198 
L 283.016647 101.341782 
L 283.464579 101.341782 
L 283.464579 100.543366 
L 284.591649 100.543366 
L 284.591649 99.74495 
L 286.174573 99.74495 
L 286.174573 98.946535 
L 287.910316 98.946535 
L 287.910316 98.148119 
L 288.213142 98.148119 
L 288.213142 97.349703 
L 289.646406 97.349703 
L 289.646406 96.551287 
L 291.478719 96.551287 
L 291.478719 95.752871 
L 291.6294 95.752871 
L 291.630488 94.15604 
L 292.541133 94.15604 
L 292.541133 93.357624 
L 293.775641 93.357624 
L 293.775641 92.559208 
L 294.233819 92.559208 
L 294.233819 91.760792 
L 294.487549 91.760792 
L 294.487549 90.962376 
L 296.896756 90.962376 
L 296.896756 90.16396 
L 297.069362 90.16396 
L 297.069362 89.365545 
L 297.351413 89.365545 
L 297.384696 87.768713 
L 298.38652 87.768713 
L 298.38652 86.970297 
L 299.944626 86.970297 
L 299.944626 86.171881 
L 301.499641 86.171881 
L 301.550574 84.57505 
L 302.975591 84.57505 
L 302.975591 83.776634 
L 309.251062 83.776634 
L 309.251062 82.978218 
L 312.127464 82.978218 
L 312.127464 82.179802 
L 312.940105 82.179802 
L 312.940105 81.381386 
L 313.267986 81.381386 
L 313.267986 80.58297 
L 314.071994 80.58297 
L 314.071994 79.784554 
L 314.517502 79.784554 
L 314.517502 78.986139 
L 315.77555 78.986139 
L 315.77555 78.187723 
L 316.27794 78.187723 
L 316.27794 77.389307 
L 316.60733 77.389307 
L 316.60733 76.590891 
L 317.274514 76.590891 
L 317.319509 74.994059 
L 317.407573 74.994059 
L 317.407573 74.195644 
L 317.599532 74.195644 
L 317.599532 73.397228 
L 317.711818 73.397228 
L 317.711818 72.598812 
L 321.752955 72.598812 
L 321.752955 71.800396 
L 321.945904 71.800396 
L 321.945904 65.413069 
L 325.724944 65.413069 
L 325.724944 64.614653 
L 326.700797 64.614653 
L 326.700797 63.816238 
L 328.499287 63.816238 
L 328.499287 63.017822 
L 328.789598 63.017822 
L 328.789598 62.219406 
L 330.249972 62.219406 
L 330.249972 61.42099 
L 330.686577 61.42099 
L 330.686577 60.622574 
L 331.436418 60.622574 
L 331.436418 59.824158 
L 331.794812 59.824158 
L 331.794812 59.025743 
L 332.14578 59.025743 
L 332.14578 58.227327 
L 334.000226 58.227327 
L 334.000226 57.428911 
L 336.438845 57.428911 
L 336.438845 56.630495 
L 336.680857 56.630495 
L 336.680857 55.832079 
L 339.548967 55.832079 
L 339.548967 55.033663 
L 341.324962 55.033663 
L 341.324962 54.235248 
L 341.715515 54.235248 
L 341.715515 53.436832 
L 342.616037 53.436832 
L 342.616037 52.638416 
L 344.932496 52.638416 
L 344.932496 51.84 
L 345.410567 51.84 
L 345.410567 51.041584 
L 346.027457 51.041584 
L 346.027457 50.243168 
L 347.142156 50.243168 
L 347.142156 49.444752 
L 347.723607 49.444752 
L 347.723607 48.646337 
L 347.938033 48.646337 
L 347.938033 47.847921 
L 348.075248 47.847921 
L 348.075248 47.049505 
L 348.249492 47.049505 
L 348.249492 46.251089 
L 348.716031 46.251089 
L 348.716031 45.452673 
L 349.349848 45.452673 
L 349.349848 44.654257 
L 349.612068 44.654257 
L 349.612068 43.855842 
L 354.597253 43.855842 
L 354.597253 43.057426 
L 354.995224 43.057426 
L 355.038021 41.460594 
L 356.369323 41.460594 
L 356.369323 40.662178 
L 356.920923 40.662178 
L 356.920923 39.863762 
L 357.462589 39.863762 
L 357.462589 39.065347 
L 359.408722 39.065347 
L 359.408722 38.266931 
L 359.943223 38.266931 
L 359.943223 37.468515 
L 363.552802 37.468515 
L 363.552802 36.670099 
L 364.843619 36.670099 
L 364.843619 35.871683 
L 366.784099 35.871683 
L 366.881721 34.274851 
L 370.261315 34.274851 
L 370.261315 33.476436 
L 370.770084 33.476436 
L 370.770084 32.67802 
L 371.058182 32.67802 
L 371.058182 31.879604 
L 372.169197 31.879604 
L 372.169197 31.081188 
L 374.502569 31.081188 
L 374.502569 30.282772 
L 375.868298 30.282772 
L 375.868298 29.484356 
L 377.863924 29.484356 
L 377.863924 28.685941 
L 378.12232 28.685941 
L 378.12232 27.887525 
L 378.377754 27.887525 
L 378.377754 27.089109 
L 379.354356 27.089109 
L 379.354356 26.290693 
L 379.887035 26.290693 
L 379.887035 25.492277 
L 380.742612 25.492277 
L 380.742612 24.693861 
L 382.474598 24.693861 
L 382.474598 23.895446 
L 385.834321 23.895446 
L 385.834321 23.09703 
L 387.265345 23.09703 
L 387.265345 22.298614 
L 388.444705 22.298614 
L 388.444705 21.500198 
L 389.691775 21.500198 
L 389.691775 20.701782 
L 390.07329 20.701782 
L 390.07329 19.903366 
L 390.390811 19.903366 
L 390.390811 19.10495 
L 391.831022 19.10495 
L 391.831022 18.306535 
L 396.961566 18.306535 
L 396.961566 17.508119 
L 402.413991 17.508119 
L 402.413991 16.709703 
L 402.734132 16.709703 
L 402.734132 15.911287 
L 404.899134 15.911287 
L 404.899134 15.112871 
L 406.448794 15.112871 
L 406.448794 14.314455 
L 408.410177 14.314455 
L 408.410177 13.51604 
L 411.129994 13.51604 
L 411.129994 12.717624 
L 411.658408 12.717624 
L 411.658408 11.919208 
L 411.886405 11.919208 
L 411.886405 11.120792 
L 414.336831 11.120792 
L 414.336831 10.322376 
L 417.683234 10.322376 
L 417.683234 9.52396 
L 419.356734 9.52396 
L 419.356734 8.725545 
L 425.017538 8.725545 
L 425.017538 7.927129 
L 429.79407 7.927129 
L 429.79407 7.128713 
L 436.495229 7.128713 
L 436.495229 6.330297 
L 436.495229 6.330297 
L 460.8 6.330297 
L 460.8 6.330297 
" style="fill:none;stroke:#ff0000;stroke-linecap:square;stroke-width:3;"/>
   </g>
   <g id="line2d_22">
    <path clip-path="url(#p5a3ec6152e)" d="M 201.490199 293.76 
L 201.490199 281.783762 
L 231.762845 281.783762 
L 231.762845 280.985347 
L 235.452242 280.985347 
L 235.452242 280.186931 
L 238.332196 280.186931 
L 238.332196 279.388515 
L 238.507854 279.388515 
L 238.507854 278.590099 
L 238.661583 278.590099 
L 238.661583 277.791683 
L 239.494025 277.791683 
L 239.494025 276.993267 
L 240.314621 276.993267 
L 240.418383 275.396436 
L 241.808393 275.396436 
L 241.808393 274.59802 
L 242.729059 274.59802 
L 242.729059 273.799604 
L 243.997722 273.799604 
L 243.997722 273.001188 
L 244.451515 273.001188 
L 244.451515 272.202772 
L 244.742555 272.202772 
L 244.742555 271.404356 
L 245.495526 271.404356 
L 245.495526 270.605941 
L 245.842916 270.605941 
L 245.842916 269.807525 
L 245.98836 269.807525 
L 245.98836 269.009109 
L 246.745095 269.009109 
L 246.787893 267.412277 
L 247.105056 267.412277 
L 247.105056 266.613861 
L 247.568779 266.613861 
L 247.568779 265.815446 
L 247.818609 265.815446 
L 247.818609 265.01703 
L 248.071444 265.01703 
L 248.106218 263.420198 
L 248.294328 263.420198 
L 248.337133 261.823366 
L 248.554482 261.823366 
L 248.554482 261.02495 
L 248.885743 261.02495 
L 248.885743 260.226535 
L 249.061939 260.226535 
L 249.150322 258.629703 
L 249.445896 258.629703 
L 249.445896 257.831287 
L 249.931732 257.831287 
L 249.931732 257.032871 
L 250.386335 257.032871 
L 250.386335 256.234455 
L 250.9187 256.234455 
L 251.019573 254.637624 
L 251.119208 254.637624 
L 251.119208 253.839208 
L 251.329996 253.839208 
L 251.329996 253.040792 
L 251.976537 253.040792 
L 251.976537 252.242376 
L 252.617995 252.242376 
L 252.628626 250.645545 
L 253.111342 250.645545 
L 253.111342 249.847129 
L 253.369709 249.847129 
L 253.442914 248.250297 
L 253.864121 248.250297 
L 253.864121 247.451881 
L 254.402224 247.451881 
L 254.402224 246.653465 
L 254.597475 246.653465 
L 254.597475 245.85505 
L 254.920346 245.85505 
L 254.958617 244.258218 
L 255.635945 244.258218 
L 255.635945 243.459802 
L 255.966923 243.459802 
L 255.966923 242.661386 
L 256.323714 242.661386 
L 256.323714 241.86297 
L 256.4357 241.86297 
L 256.477663 229.088317 
L 256.744402 229.088317 
L 256.838441 227.491485 
L 256.92602 227.491485 
L 256.92602 226.693069 
L 257.161525 226.693069 
L 257.161525 225.894653 
L 257.908496 225.894653 
L 257.908496 225.096238 
L 258.561374 225.096238 
L 258.561374 224.297822 
L 258.778452 224.297822 
L 258.801636 221.902574 
L 259.144123 221.902574 
L 259.144123 221.104158 
L 259.650235 221.104158 
L 259.751271 218.708911 
L 259.798536 218.708911 
L 259.798536 217.910495 
L 260.247264 217.910495 
L 260.299058 216.313663 
L 260.414697 216.313663 
L 260.414697 215.515248 
L 260.98166 215.515248 
L 260.98166 214.716832 
L 261.377157 214.716832 
L 261.377157 213.918416 
L 261.565335 213.918416 
L 261.596656 211.523168 
L 261.852577 211.523168 
L 261.852577 210.724752 
L 262.316114 210.724752 
L 262.316114 209.926337 
L 262.712601 209.926337 
L 262.776237 207.531089 
L 262.876428 207.531089 
L 262.876428 206.732673 
L 263.080653 206.732673 
L 263.080653 205.934257 
L 263.341026 205.934257 
L 263.387311 204.337426 
L 263.782269 204.337426 
L 263.782269 203.53901 
L 263.945199 203.53901 
L 263.945199 202.740594 
L 264.103878 202.740594 
L 264.103878 201.942178 
L 265.085716 201.942178 
L 265.096988 200.345347 
L 265.408119 200.345347 
L 265.467939 198.748515 
L 265.629048 198.748515 
L 265.693795 197.151683 
L 265.744144 197.151683 
L 265.744144 196.353267 
L 266.063944 196.353267 
L 266.063944 195.554851 
L 266.24487 195.554851 
L 266.297455 193.159604 
L 266.618958 193.159604 
L 266.652828 191.562772 
L 266.806503 191.562772 
L 266.825292 189.965941 
L 267.032257 189.965941 
L 267.032257 189.167525 
L 267.147422 189.167525 
L 267.22517 187.570693 
L 267.493139 187.570693 
L 267.493139 186.772277 
L 267.793947 186.772277 
L 267.897118 184.37703 
L 267.927907 184.37703 
L 267.983976 181.183366 
L 268.048779 181.183366 
L 268.093437 178.788119 
L 268.195432 178.788119 
L 268.195432 177.989703 
L 268.478642 177.989703 
L 268.478642 177.191287 
L 268.617163 177.191287 
L 268.652899 174.79604 
L 268.769586 174.79604 
L 268.769586 173.997624 
L 268.94445 173.997624 
L 268.989947 172.400792 
L 269.136147 172.400792 
L 269.164848 170.80396 
L 269.282782 170.80396 
L 269.282782 170.005545 
L 269.469931 170.005545 
L 269.469931 169.207129 
L 269.670442 169.207129 
L 269.670442 168.408713 
L 269.820912 168.408713 
L 269.820912 167.610297 
L 270.278048 167.610297 
L 270.278048 166.811881 
L 270.697931 166.811881 
L 270.697931 166.013465 
L 270.873997 166.013465 
L 270.929488 164.416634 
L 271.380584 164.416634 
L 271.419118 162.021386 
L 271.593178 162.021386 
L 271.66887 159.626139 
L 271.757987 159.626139 
L 271.850461 156.432475 
L 271.93143 156.432475 
L 271.93143 155.634059 
L 272.282029 155.634059 
L 272.389215 153.238812 
L 272.440525 153.238812 
L 272.440525 152.440396 
L 272.666235 152.440396 
L 272.741053 150.843564 
L 272.819764 150.843564 
L 272.819764 150.045149 
L 273.251505 150.045149 
L 273.268417 142.06099 
L 273.622516 142.06099 
L 273.622516 141.262574 
L 274.316525 141.262574 
L 274.355279 139.665743 
L 274.499194 139.665743 
L 274.604151 137.270495 
L 274.670713 137.270495 
L 274.670713 136.472079 
L 275.092796 136.472079 
L 275.114952 134.076832 
L 275.214087 134.076832 
L 275.262713 132.48 
L 275.647751 132.48 
L 275.707537 130.084752 
L 275.7906 130.084752 
L 275.7906 129.286337 
L 276.53901 129.286337 
L 276.647142 127.689505 
L 276.875129 127.689505 
L 276.875129 126.891089 
L 277.18885 126.891089 
L 277.18885 126.092673 
L 277.574757 126.092673 
L 277.574757 125.294257 
L 277.75155 125.294257 
L 277.75155 124.495842 
L 278.553864 124.495842 
L 278.553864 123.697426 
L 278.73798 123.697426 
L 278.827741 122.100594 
L 279.019751 122.100594 
L 279.019751 121.302178 
L 279.601387 121.302178 
L 279.601387 120.503762 
L 279.767687 120.503762 
L 279.767687 119.705347 
L 280.013384 119.705347 
L 280.090064 118.108515 
L 280.367656 118.108515 
L 280.367656 117.310099 
L 280.648919 117.310099 
L 280.678097 115.713267 
L 281.44804 115.713267 
L 281.551323 112.519604 
L 282.635063 112.519604 
L 282.635063 111.721188 
L 283.016647 111.721188 
L 283.016647 110.922772 
L 283.232568 110.922772 
L 283.276694 109.325941 
L 283.505144 109.325941 
L 283.505144 108.527525 
L 284.132683 108.527525 
L 284.132683 107.729109 
L 284.302263 107.729109 
L 284.302263 106.930693 
L 284.591649 106.930693 
L 284.591649 106.132277 
L 286.174573 106.132277 
L 286.174573 105.333861 
L 287.910316 105.333861 
L 287.910316 104.535446 
L 288.213142 104.535446 
L 288.279462 102.938614 
L 289.31744 102.938614 
L 289.31744 102.140198 
L 289.520958 102.140198 
L 289.520958 101.341782 
L 289.644271 101.341782 
L 289.644271 100.543366 
L 290.218712 100.543366 
L 290.218712 99.74495 
L 290.551281 99.74495 
L 290.551281 98.946535 
L 291.630488 98.946535 
L 291.630488 98.148119 
L 292.541133 98.148119 
L 292.541133 97.349703 
L 296.756076 97.349703 
L 296.756076 96.551287 
L 297.351413 96.551287 
L 297.384696 94.954455 
L 299.454214 94.954455 
L 299.454214 94.15604 
L 299.944626 94.15604 
L 299.944626 93.357624 
L 300.183058 93.357624 
L 300.192099 91.760792 
L 301.453152 91.760792 
L 301.453152 90.962376 
L 302.431653 90.962376 
L 302.431653 90.16396 
L 302.975591 90.16396 
L 302.975591 89.365545 
L 304.243722 89.365545 
L 304.243722 88.567129 
L 305.606729 88.567129 
L 305.606729 87.768713 
L 310.826019 87.768713 
L 310.826019 86.970297 
L 315.77555 86.970297 
L 315.77555 86.171881 
L 316.60733 86.171881 
L 316.60733 85.373465 
L 317.274514 85.373465 
L 317.274514 84.57505 
L 318.833192 84.57505 
L 318.833192 83.776634 
L 319.015553 83.776634 
L 319.015553 82.978218 
L 321.110409 82.978218 
L 321.110409 82.179802 
L 321.945904 82.179802 
L 321.945904 70.203564 
L 323.585182 70.203564 
L 323.585182 69.405149 
L 328.499287 69.405149 
L 328.499287 68.606733 
L 329.736017 68.606733 
L 329.736017 67.808317 
L 330.686577 67.808317 
L 330.686577 67.009901 
L 331.262117 67.009901 
L 331.262117 66.211485 
L 332.193795 66.211485 
L 332.193795 65.413069 
L 333.533359 65.413069 
L 333.533359 64.614653 
L 333.892523 64.614653 
L 334.000226 63.017822 
L 336.680857 63.017822 
L 336.680857 62.219406 
L 337.345635 62.219406 
L 337.345635 61.42099 
L 339.548967 61.42099 
L 339.548967 60.622574 
L 341.324962 60.622574 
L 341.324962 59.824158 
L 343.730352 59.824158 
L 343.730352 59.025743 
L 345.410567 59.025743 
L 345.410567 58.227327 
L 345.586729 58.227327 
L 345.586729 57.428911 
L 349.333626 57.428911 
L 349.349848 55.832079 
L 351.380426 55.832079 
L 351.380426 55.033663 
L 353.840562 55.033663 
L 353.840562 54.235248 
L 355.038021 54.235248 
L 355.038021 53.436832 
L 356.920923 53.436832 
L 356.920923 52.638416 
L 357.462589 52.638416 
L 357.462589 51.84 
L 358.417656 51.84 
L 358.417656 51.041584 
L 359.796164 51.041584 
L 359.796164 50.243168 
L 361.720222 50.243168 
L 361.720222 49.444752 
L 365.090805 49.444752 
L 365.090805 48.646337 
L 366.881721 48.646337 
L 366.881721 47.847921 
L 367.950459 47.847921 
L 367.950459 47.049505 
L 368.264662 47.049505 
L 368.264662 46.251089 
L 369.258141 46.251089 
L 369.258141 45.452673 
L 372.014417 45.452673 
L 372.014417 44.654257 
L 374.775652 44.654257 
L 374.775652 43.855842 
L 374.901705 43.855842 
L 374.901705 43.057426 
L 375.601458 43.057426 
L 375.601458 42.25901 
L 383.926046 42.25901 
L 383.926046 41.460594 
L 384.048494 41.460594 
L 384.048494 40.662178 
L 385.834321 40.662178 
L 385.834321 39.863762 
L 387.835952 39.863762 
L 387.93348 38.266931 
L 389.194529 38.266931 
L 389.194529 37.468515 
L 389.524201 37.468515 
L 389.524201 36.670099 
L 389.98907 36.670099 
L 389.98907 35.871683 
L 391.052891 35.871683 
L 391.052891 35.073267 
L 391.258591 35.073267 
L 391.258591 34.274851 
L 391.498461 34.274851 
L 391.498461 33.476436 
L 394.644182 33.476436 
L 394.644182 32.67802 
L 396.605876 32.67802 
L 396.605876 31.879604 
L 396.777286 31.879604 
L 396.777286 31.081188 
L 397.171047 31.081188 
L 397.171047 30.282772 
L 397.589551 30.282772 
L 397.676339 28.685941 
L 400.619594 28.685941 
L 400.619594 27.887525 
L 402.413991 27.887525 
L 402.413991 27.089109 
L 402.608469 27.089109 
L 402.652295 25.492277 
L 404.718099 25.492277 
L 404.718099 24.693861 
L 404.899134 24.693861 
L 404.899134 23.895446 
L 405.167784 23.895446 
L 405.167784 23.09703 
L 406.444018 23.09703 
L 406.444018 22.298614 
L 406.921161 22.298614 
L 406.921161 21.500198 
L 407.436231 21.500198 
L 407.436231 20.701782 
L 408.809931 20.701782 
L 408.809931 19.903366 
L 410.241977 19.903366 
L 410.241977 19.10495 
L 411.072516 19.10495 
L 411.072516 18.306535 
L 411.771594 18.306535 
L 411.771594 17.508119 
L 414.336831 17.508119 
L 414.336831 16.709703 
L 414.9225 16.709703 
L 414.9225 15.911287 
L 416.250631 15.911287 
L 416.250631 15.112871 
L 417.53564 15.112871 
L 417.53564 14.314455 
L 417.683234 14.314455 
L 417.683234 13.51604 
L 419.410684 13.51604 
L 419.410684 12.717624 
L 423.435935 12.717624 
L 423.435935 11.919208 
L 425.017538 11.919208 
L 425.017538 11.120792 
L 429.310535 11.120792 
L 429.310535 10.322376 
L 429.79407 10.322376 
L 429.79407 9.52396 
L 430.425772 9.52396 
L 430.425772 8.725545 
L 430.731805 8.725545 
L 430.731805 7.927129 
L 440.851114 7.927129 
L 440.851114 7.128713 
L 448.451914 7.128713 
L 448.451914 6.330297 
L 448.451914 6.330297 
L 460.8 6.330297 
L 460.8 6.330297 
" style="fill:none;stroke:#00bfbf;stroke-linecap:square;stroke-width:1.5;"/>
   </g>
   <g id="line2d_23">
    <path clip-path="url(#p5a3ec6152e)" d="M 201.490199 293.76 
L 201.490199 281.783762 
L 231.762845 281.783762 
L 231.762845 280.985347 
L 235.452242 280.985347 
L 235.452242 280.186931 
L 235.806245 280.186931 
L 235.806245 279.388515 
L 235.984057 279.388515 
L 235.984057 278.590099 
L 237.681028 278.590099 
L 237.681028 277.791683 
L 238.216697 277.791683 
L 238.216697 276.993267 
L 238.507854 276.993267 
L 238.507854 276.194851 
L 238.661583 276.194851 
L 238.661583 275.396436 
L 239.494025 275.396436 
L 239.494025 274.59802 
L 240.213052 274.59802 
L 240.314621 273.001188 
L 240.418383 273.001188 
L 240.418383 272.202772 
L 241.547983 272.202772 
L 241.547983 271.404356 
L 241.808393 271.404356 
L 241.808393 270.605941 
L 242.464906 270.605941 
L 242.464906 269.807525 
L 242.649242 269.807525 
L 242.739401 266.613861 
L 243.997722 266.613861 
L 243.997722 265.815446 
L 244.23482 265.815446 
L 244.23482 265.01703 
L 244.451515 265.01703 
L 244.451515 264.218614 
L 245.490738 264.218614 
L 245.495526 262.621782 
L 245.98836 262.621782 
L 245.98836 261.823366 
L 246.614374 261.823366 
L 246.680624 260.226535 
L 246.745095 260.226535 
L 246.787893 258.629703 
L 247.091494 258.629703 
L 247.105056 257.032871 
L 247.818609 257.032871 
L 247.818609 256.234455 
L 247.953512 256.234455 
L 247.960578 254.637624 
L 248.071444 254.637624 
L 248.106218 253.040792 
L 248.294328 253.040792 
L 248.337133 251.44396 
L 248.554482 251.44396 
L 248.554482 250.645545 
L 249.061939 250.645545 
L 249.150322 249.048713 
L 249.24071 249.048713 
L 249.31793 247.451881 
L 249.445896 247.451881 
L 249.445896 246.653465 
L 249.929406 246.653465 
L 249.931732 245.056634 
L 251.976537 245.056634 
L 251.976537 244.258218 
L 252.628626 244.258218 
L 252.628626 243.459802 
L 252.967065 243.459802 
L 252.967065 242.661386 
L 253.111342 242.661386 
L 253.111342 241.86297 
L 253.442914 241.86297 
L 253.442914 241.064554 
L 253.623635 241.064554 
L 253.655572 239.467723 
L 253.794004 239.467723 
L 253.794004 238.669307 
L 254.163201 238.669307 
L 254.163201 237.870891 
L 254.597475 237.870891 
L 254.597475 237.072475 
L 254.920346 237.072475 
L 254.958617 235.475644 
L 255.457744 235.475644 
L 255.534447 233.080396 
L 255.577423 233.080396 
L 255.577423 232.28198 
L 256.129484 232.28198 
L 256.176592 230.685149 
L 256.323714 230.685149 
L 256.323714 229.886733 
L 256.4357 229.886733 
L 256.4357 217.910495 
L 256.744402 217.910495 
L 256.838441 216.313663 
L 256.92602 216.313663 
L 256.92602 215.515248 
L 257.161525 215.515248 
L 257.161525 214.716832 
L 257.391954 214.716832 
L 257.499445 212.321584 
L 258.546981 212.321584 
L 258.561374 210.724752 
L 258.778452 210.724752 
L 258.788064 209.127921 
L 259.066912 209.127921 
L 259.144123 207.531089 
L 259.430915 207.531089 
L 259.430915 206.732673 
L 259.615862 206.732673 
L 259.688355 204.337426 
L 259.751271 204.337426 
L 259.751271 203.53901 
L 260.037029 203.53901 
L 260.074766 201.942178 
L 260.374221 201.942178 
L 260.414697 200.345347 
L 260.657712 200.345347 
L 260.657712 199.546931 
L 260.859225 199.546931 
L 260.957352 197.950099 
L 261.377157 197.950099 
L 261.456387 195.554851 
L 261.52029 195.554851 
L 261.607409 191.562772 
L 262.712601 191.562772 
L 262.745692 189.965941 
L 262.863401 189.965941 
L 262.876428 188.369109 
L 263.080653 188.369109 
L 263.176795 186.772277 
L 263.387311 186.772277 
L 263.387311 185.973861 
L 263.782269 185.973861 
L 263.887018 184.37703 
L 263.945199 184.37703 
L 264.030292 182.780198 
L 264.823876 182.780198 
L 264.823876 181.981782 
L 265.085716 181.981782 
L 265.096988 180.38495 
L 265.265171 180.38495 
L 265.265171 179.586535 
L 265.467939 179.586535 
L 265.530284 177.989703 
L 265.629048 177.989703 
L 265.693795 176.392871 
L 265.88974 176.392871 
L 265.88974 175.594455 
L 266.063944 175.594455 
L 266.063944 174.79604 
L 266.24487 174.79604 
L 266.24487 173.997624 
L 266.361333 173.997624 
L 266.416508 172.400792 
L 266.618958 172.400792 
L 266.645248 170.80396 
L 266.825292 170.80396 
L 266.825292 170.005545 
L 267.112341 170.005545 
L 267.126322 168.408713 
L 267.22517 168.408713 
L 267.333931 166.811881 
L 267.338036 166.811881 
L 267.338036 166.013465 
L 267.493139 166.013465 
L 267.493139 165.21505 
L 267.709782 165.21505 
L 267.793947 163.618218 
L 267.858334 163.618218 
L 267.960533 161.22297 
L 267.983976 161.22297 
L 268.064296 158.029307 
L 268.247718 158.029307 
L 268.247718 157.230891 
L 268.589131 157.230891 
L 268.65201 154.835644 
L 268.734143 154.835644 
L 268.734143 154.037228 
L 268.944549 154.037228 
L 268.944549 153.238812 
L 269.186612 153.238812 
L 269.282782 151.64198 
L 269.469931 151.64198 
L 269.469931 150.843564 
L 269.670442 150.843564 
L 269.730341 149.246733 
L 269.820912 149.246733 
L 269.820912 148.448317 
L 270.278048 148.448317 
L 270.278048 147.649901 
L 270.408133 147.649901 
L 270.469627 146.053069 
L 270.548787 146.053069 
L 270.605409 144.456238 
L 270.697931 144.456238 
L 270.779349 142.06099 
L 271.251497 142.06099 
L 271.251497 141.262574 
L 271.593178 141.262574 
L 271.66887 138.867327 
L 271.795121 138.867327 
L 271.795121 138.068911 
L 271.93143 138.068911 
L 271.93143 137.270495 
L 272.641549 137.270495 
L 272.666235 135.673663 
L 272.819764 135.673663 
L 272.819764 134.875248 
L 273.622516 134.875248 
L 273.622516 134.076832 
L 274.176314 134.076832 
L 274.266077 131.681584 
L 274.316525 131.681584 
L 274.355279 130.084752 
L 274.499194 130.084752 
L 274.582403 127.689505 
L 274.645173 127.689505 
L 274.718377 125.294257 
L 275.092796 125.294257 
L 275.114952 123.697426 
L 275.57287 123.697426 
L 275.670107 121.302178 
L 275.707537 121.302178 
L 275.707537 120.503762 
L 276.159269 120.503762 
L 276.159269 119.705347 
L 276.647142 119.705347 
L 276.682049 118.108515 
L 276.875129 118.108515 
L 276.931285 116.511683 
L 277.574757 116.511683 
L 277.574757 115.713267 
L 277.75155 115.713267 
L 277.75155 114.914851 
L 278.827741 114.914851 
L 278.827741 114.116436 
L 279.019751 114.116436 
L 279.019751 113.31802 
L 279.352604 113.31802 
L 279.352604 112.519604 
L 279.767687 112.519604 
L 279.767687 111.721188 
L 280.367656 111.721188 
L 280.367656 110.922772 
L 280.648919 110.922772 
L 280.678097 109.325941 
L 281.44804 109.325941 
L 281.450298 107.729109 
L 282.237575 107.729109 
L 282.237575 106.930693 
L 282.589402 106.930693 
L 282.635063 105.333861 
L 283.016647 105.333861 
L 283.016647 104.535446 
L 283.464579 104.535446 
L 283.480644 102.938614 
L 284.591649 102.938614 
L 284.591649 102.140198 
L 286.174573 102.140198 
L 286.174573 101.341782 
L 286.93101 101.341782 
L 286.93101 100.543366 
L 287.910316 100.543366 
L 287.910316 99.74495 
L 288.213142 99.74495 
L 288.213142 98.946535 
L 289.646406 98.946535 
L 289.646406 98.148119 
L 290.551281 98.148119 
L 290.551281 97.349703 
L 291.630488 97.349703 
L 291.630488 96.551287 
L 292.541133 96.551287 
L 292.541133 95.752871 
L 293.775641 95.752871 
L 293.775641 94.954455 
L 294.487549 94.954455 
L 294.571574 93.357624 
L 296.521151 93.357624 
L 296.521151 92.559208 
L 296.896756 92.559208 
L 296.896756 91.760792 
L 297.351413 91.760792 
L 297.384696 90.16396 
L 298.38652 90.16396 
L 298.38652 89.365545 
L 299.944626 89.365545 
L 299.944626 88.567129 
L 301.517785 88.567129 
L 301.550574 86.970297 
L 302.975591 86.970297 
L 302.975591 86.171881 
L 303.933164 86.171881 
L 303.933164 85.373465 
L 310.826019 85.373465 
L 310.826019 84.57505 
L 312.127464 84.57505 
L 312.127464 83.776634 
L 314.517502 83.776634 
L 314.517502 82.978218 
L 315.77555 82.978218 
L 315.77555 82.179802 
L 316.27794 82.179802 
L 316.27794 81.381386 
L 316.60733 81.381386 
L 316.60733 80.58297 
L 317.274514 80.58297 
L 317.274514 79.784554 
L 317.711818 79.784554 
L 317.711818 78.986139 
L 318.833192 78.986139 
L 318.833192 78.187723 
L 319.015553 78.187723 
L 319.015553 77.389307 
L 321.945904 77.389307 
L 321.945904 68.606733 
L 323.585182 68.606733 
L 323.585182 67.808317 
L 325.724944 67.808317 
L 325.724944 67.009901 
L 328.499287 67.009901 
L 328.499287 66.211485 
L 329.736017 66.211485 
L 329.736017 65.413069 
L 330.249972 65.413069 
L 330.249972 64.614653 
L 330.686577 64.614653 
L 330.686577 63.816238 
L 331.262117 63.816238 
L 331.262117 63.017822 
L 332.14578 63.017822 
L 332.14578 62.219406 
L 334.000226 62.219406 
L 334.000226 61.42099 
L 335.572812 61.42099 
L 335.572812 60.622574 
L 336.680857 60.622574 
L 336.680857 59.824158 
L 339.548967 59.824158 
L 339.548967 59.025743 
L 341.324962 59.025743 
L 341.324962 58.227327 
L 342.616037 58.227327 
L 342.616037 57.428911 
L 343.730352 57.428911 
L 343.730352 56.630495 
L 345.410567 56.630495 
L 345.410567 55.832079 
L 345.586729 55.832079 
L 345.586729 55.033663 
L 346.027457 55.033663 
L 346.027457 54.235248 
L 347.142156 54.235248 
L 347.142156 53.436832 
L 347.297846 53.436832 
L 347.297846 52.638416 
L 347.723607 52.638416 
L 347.723607 51.84 
L 348.075248 51.84 
L 348.075248 51.041584 
L 348.249492 51.041584 
L 348.249492 50.243168 
L 348.716031 50.243168 
L 348.716031 49.444752 
L 349.349848 49.444752 
L 349.349848 48.646337 
L 353.840562 48.646337 
L 353.840562 47.847921 
L 354.995224 47.847921 
L 355.038021 46.251089 
L 356.369323 46.251089 
L 356.369323 45.452673 
L 356.920923 45.452673 
L 356.920923 44.654257 
L 357.462589 44.654257 
L 357.462589 43.855842 
L 359.913603 43.855842 
L 359.913603 43.057426 
L 361.720222 43.057426 
L 361.720222 42.25901 
L 363.552802 42.25901 
L 363.552802 41.460594 
L 364.843619 41.460594 
L 364.843619 40.662178 
L 365.090805 40.662178 
L 365.090805 39.863762 
L 365.691636 39.863762 
L 365.691636 39.065347 
L 366.784099 39.065347 
L 366.881721 37.468515 
L 370.261315 37.468515 
L 370.261315 36.670099 
L 370.770084 36.670099 
L 370.770084 35.871683 
L 371.058182 35.871683 
L 371.058182 35.073267 
L 372.014417 35.073267 
L 372.014417 34.274851 
L 372.169197 34.274851 
L 372.169197 33.476436 
L 374.502569 33.476436 
L 374.502569 32.67802 
L 380.742612 32.67802 
L 380.742612 31.879604 
L 385.097584 31.879604 
L 385.097584 31.081188 
L 385.834321 31.081188 
L 385.834321 30.282772 
L 386.835739 30.282772 
L 386.835739 29.484356 
L 387.265345 29.484356 
L 387.265345 28.685941 
L 388.444705 28.685941 
L 388.444705 27.887525 
L 389.524201 27.887525 
L 389.524201 27.089109 
L 389.691775 27.089109 
L 389.691775 26.290693 
L 390.07329 26.290693 
L 390.07329 25.492277 
L 390.390811 25.492277 
L 390.390811 24.693861 
L 391.831022 24.693861 
L 391.831022 23.895446 
L 392.3334 23.895446 
L 392.3334 23.09703 
L 393.079458 23.09703 
L 393.079458 22.298614 
L 394.057798 22.298614 
L 394.057798 21.500198 
L 397.676339 21.500198 
L 397.676339 20.701782 
L 402.413991 20.701782 
L 402.413991 19.903366 
L 402.757835 19.903366 
L 402.757835 19.10495 
L 404.226642 19.10495 
L 404.226642 18.306535 
L 404.899134 18.306535 
L 404.899134 17.508119 
L 406.444018 17.508119 
L 406.448794 15.911287 
L 408.809931 15.911287 
L 408.809931 15.112871 
L 411.658408 15.112871 
L 411.658408 14.314455 
L 413.389096 14.314455 
L 413.389096 13.51604 
L 414.336831 13.51604 
L 414.336831 12.717624 
L 417.53564 12.717624 
L 417.53564 11.919208 
L 417.683234 11.919208 
L 417.683234 11.120792 
L 425.017538 11.120792 
L 425.017538 10.322376 
L 429.310535 10.322376 
L 429.310535 9.52396 
L 429.79407 9.52396 
L 429.79407 8.725545 
L 430.731805 8.725545 
L 430.731805 7.927129 
L 433.374327 7.927129 
L 433.374327 7.128713 
L 436.495229 7.128713 
L 436.495229 6.330297 
L 436.495229 6.330297 
L 460.8 6.330297 
L 460.8 6.330297 
" style="fill:none;stroke:#bf00bf;stroke-linecap:square;stroke-width:1.5;"/>
   </g>
   <g id="patch_3">
    <path d="M 0 293.76 
L 0 3.456 
" style="fill:none;stroke:#000000;stroke-linecap:square;stroke-linejoin:miter;stroke-width:0.8;"/>
   </g>
   <g id="patch_4">
    <path d="M 460.8 293.76 
L 460.8 3.456 
" style="fill:none;stroke:#000000;stroke-linecap:square;stroke-linejoin:miter;stroke-width:0.8;"/>
   </g>
   <g id="patch_5">
    <path d="M 0 293.76 
L 460.8 293.76 
" style="fill:none;stroke:#000000;stroke-linecap:square;stroke-linejoin:miter;stroke-width:0.8;"/>
   </g>
   <g id="patch_6">
    <path d="M 0 3.456 
L 460.8 3.456 
" style="fill:none;stroke:#000000;stroke-linecap:square;stroke-linejoin:miter;stroke-width:0.8;"/>
   </g>
   <g id="text_6">
    <!-- {f1-f24}, 5-D -->
    <g transform="translate(318.609 287.95392)scale(0.2 -0.2)">
     <defs>
      <path d="M 3272 -594 
L 3272 -1044 
L 3078 -1044 
Q 2300 -1044 2036 -812 
Q 1772 -581 1772 109 
L 1772 856 
Q 1772 1328 1603 1509 
Q 1434 1691 991 1691 
L 800 1691 
L 800 2138 
L 991 2138 
Q 1438 2138 1605 2317 
Q 1772 2497 1772 2963 
L 1772 3713 
Q 1772 4403 2036 4633 
Q 2300 4863 3078 4863 
L 3272 4863 
L 3272 4416 
L 3059 4416 
Q 2619 4416 2484 4278 
Q 2350 4141 2350 3700 
L 2350 2925 
Q 2350 2434 2208 2212 
Q 2066 1991 1722 1913 
Q 2069 1828 2209 1606 
Q 2350 1384 2350 897 
L 2350 122 
Q 2350 -319 2484 -456 
Q 2619 -594 3059 -594 
L 3272 -594 
z
" id="DejaVuSans-7b" transform="scale(0.015625)"/>
      <path d="M 1228 531 
L 3431 531 
L 3431 0 
L 469 0 
L 469 531 
Q 828 903 1448 1529 
Q 2069 2156 2228 2338 
Q 2531 2678 2651 2914 
Q 2772 3150 2772 3378 
Q 2772 3750 2511 3984 
Q 2250 4219 1831 4219 
Q 1534 4219 1204 4116 
Q 875 4013 500 3803 
L 500 4441 
Q 881 4594 1212 4672 
Q 1544 4750 1819 4750 
Q 2544 4750 2975 4387 
Q 3406 4025 3406 3419 
Q 3406 3131 3298 2873 
Q 3191 2616 2906 2266 
Q 2828 2175 2409 1742 
Q 1991 1309 1228 531 
z
" id="DejaVuSans-32" transform="scale(0.015625)"/>
      <path d="M 800 -594 
L 1019 -594 
Q 1456 -594 1589 -459 
Q 1722 -325 1722 122 
L 1722 897 
Q 1722 1384 1862 1606 
Q 2003 1828 2350 1913 
Q 2003 1991 1862 2212 
Q 1722 2434 1722 2925 
L 1722 3700 
Q 1722 4144 1589 4280 
Q 1456 4416 1019 4416 
L 800 4416 
L 800 4863 
L 997 4863 
Q 1775 4863 2036 4633 
Q 2297 4403 2297 3713 
L 2297 2963 
Q 2297 2497 2465 2317 
Q 2634 2138 3078 2138 
L 3272 2138 
L 3272 1691 
L 3078 1691 
Q 2634 1691 2465 1509 
Q 2297 1328 2297 856 
L 2297 109 
Q 2297 -581 2036 -812 
Q 1775 -1044 997 -1044 
L 800 -1044 
L 800 -594 
z
" id="DejaVuSans-7d" transform="scale(0.015625)"/>
      <path d="M 750 794 
L 1409 794 
L 1409 256 
L 897 -744 
L 494 -744 
L 750 256 
L 750 794 
z
" id="DejaVuSans-2c" transform="scale(0.015625)"/>
      <path d="M 691 4666 
L 3169 4666 
L 3169 4134 
L 1269 4134 
L 1269 2991 
Q 1406 3038 1543 3061 
Q 1681 3084 1819 3084 
Q 2600 3084 3056 2656 
Q 3513 2228 3513 1497 
Q 3513 744 3044 326 
Q 2575 -91 1722 -91 
Q 1428 -91 1123 -41 
Q 819 9 494 109 
L 494 744 
Q 775 591 1075 516 
Q 1375 441 1709 441 
Q 2250 441 2565 725 
Q 2881 1009 2881 1497 
Q 2881 1984 2565 2268 
Q 2250 2553 1709 2553 
Q 1456 2553 1204 2497 
Q 953 2441 691 2322 
L 691 4666 
z
" id="DejaVuSans-35" transform="scale(0.015625)"/>
     </defs>
     <use xlink:href="#DejaVuSans-7b"/>
     <use x="63.623047" xlink:href="#DejaVuSans-66"/>
     <use x="98.828125" xlink:href="#DejaVuSans-31"/>
     <use x="162.451172" xlink:href="#DejaVuSans-2d"/>
     <use x="198.535156" xlink:href="#DejaVuSans-66"/>
     <use x="233.740234" xlink:href="#DejaVuSans-32"/>
     <use x="297.363281" xlink:href="#DejaVuSans-34"/>
     <use x="360.986328" xlink:href="#DejaVuSans-7d"/>
     <use x="424.609375" xlink:href="#DejaVuSans-2c"/>
     <use x="456.396484" xlink:href="#DejaVuSans-20"/>
     <use x="488.183594" xlink:href="#DejaVuSans-35"/>
     <use x="551.806641" xlink:href="#DejaVuSans-2d"/>
     <use x="587.890625" xlink:href="#DejaVuSans-44"/>
    </g>
   </g>
   <g id="text_7">
    <!-- v2.4 -->
    <g style="fill:#808080;" transform="translate(219.489063 288.777272)scale(0.1 -0.1)">
     <defs>
      <path d="M 191 3500 
L 800 3500 
L 1894 563 
L 2988 3500 
L 3597 3500 
L 2284 0 
L 1503 0 
L 191 3500 
z
" id="DejaVuSans-76" transform="scale(0.015625)"/>
      <path d="M 684 794 
L 1344 794 
L 1344 0 
L 684 0 
L 684 794 
z
" id="DejaVuSans-2e" transform="scale(0.015625)"/>
     </defs>
     <use xlink:href="#DejaVuSans-76"/>
     <use x="59.179688" xlink:href="#DejaVuSans-32"/>
     <use x="122.802734" xlink:href="#DejaVuSans-2e"/>
     <use x="154.589844" xlink:href="#DejaVuSans-34"/>
    </g>
   </g>
  </g>
 </g>
 <defs>
  <clipPath id="p5a3ec6152e">
   <rect height="290.304" width="460.8" x="0" y="3.456"/>
  </clipPath>
 </defs>
</svg>
