<?xml version="1.0" encoding="utf-8" standalone="no"?>
<!DOCTYPE svg PUBLIC "-//W3C//DTD SVG 1.1//EN"
  "http://www.w3.org/Graphics/SVG/1.1/DTD/svg11.dtd">
<svg height="345.6pt" version="1.1" viewBox="0 0 460.8 345.6" width="460.8pt" xmlns="http://www.w3.org/2000/svg" xmlns:xlink="http://www.w3.org/1999/xlink">
 <metadata>
  <rdf:RDF xmlns:cc="http://creativecommons.org/ns#" xmlns:dc="http://purl.org/dc/elements/1.1/" xmlns:rdf="http://www.w3.org/1999/02/22-rdf-syntax-ns#">
   <cc:Work>
    <dc:type rdf:resource="http://purl.org/dc/dcmitype/StillImage"/>
    <dc:date>2021-07-27T16:20:14.498834</dc:date>
    <dc:format>image/svg+xml</dc:format>
    <dc:creator>
     <cc:Agent>
      <dc:title>Matplotlib v3.4.2, https://matplotlib.org/</dc:title>
     </cc:Agent>
    </dc:creator>
   </cc:Work>
  </rdf:RDF>
 </metadata>
 <defs>
  <style type="text/css">*{stroke-linecap:butt;stroke-linejoin:round;}</style>
 </defs>
 <g id="figure_1">
  <g id="patch_1">
   <path d="M 0 345.6 
L 460.8 345.6 
L 460.8 0 
L 0 0 
z
" style="fill:#ffffff;"/>
  </g>
  <g id="axes_1">
   <g id="patch_2">
    <path d="M 0 293.76 
L 460.8 293.76 
L 460.8 3.456 
L 0 3.456 
z
" style="fill:#ffffff;"/>
   </g>
   <g id="matplotlib.axis_1">
    <g id="xtick_1">
     <g id="line2d_1">
      <path clip-path="url(#p194f396b20)" d="M 106.735217 293.76 
L 106.735217 3.456 
" style="fill:none;stroke:#b0b0b0;stroke-linecap:square;stroke-width:0.8;"/>
     </g>
     <g id="line2d_2">
      <defs>
       <path d="M 0 0 
L 0 3.5 
" id="meeacf990f1" style="stroke:#000000;stroke-width:0.8;"/>
      </defs>
      <g>
       <use style="stroke:#000000;stroke-width:0.8;" x="106.735217" xlink:href="#meeacf990f1" y="293.76"/>
      </g>
     </g>
     <g id="text_1">
      <!-- -4 -->
      <g transform="translate(96.764904 315.956875)scale(0.2 -0.2)">
       <defs>
        <path d="M 313 2009 
L 1997 2009 
L 1997 1497 
L 313 1497 
L 313 2009 
z
" id="DejaVuSans-2d" transform="scale(0.015625)"/>
        <path d="M 2419 4116 
L 825 1625 
L 2419 1625 
L 2419 4116 
z
M 2253 4666 
L 3047 4666 
L 3047 1625 
L 3713 1625 
L 3713 1100 
L 3047 1100 
L 3047 0 
L 2419 0 
L 2419 1100 
L 313 1100 
L 313 1709 
L 2253 4666 
z
" id="DejaVuSans-34" transform="scale(0.015625)"/>
       </defs>
       <use xlink:href="#DejaVuSans-2d"/>
       <use x="36.083984" xlink:href="#DejaVuSans-34"/>
      </g>
     </g>
    </g>
    <g id="xtick_2">
     <g id="line2d_3">
      <path clip-path="url(#p194f396b20)" d="M 213.585869 293.76 
L 213.585869 3.456 
" style="fill:none;stroke:#b0b0b0;stroke-linecap:square;stroke-width:0.8;"/>
     </g>
     <g id="line2d_4">
      <g>
       <use style="stroke:#000000;stroke-width:0.8;" x="213.585869" xlink:href="#meeacf990f1" y="293.76"/>
      </g>
     </g>
     <g id="text_2">
      <!-- 0 -->
      <g transform="translate(207.223369 315.956875)scale(0.2 -0.2)">
       <defs>
        <path d="M 2034 4250 
Q 1547 4250 1301 3770 
Q 1056 3291 1056 2328 
Q 1056 1369 1301 889 
Q 1547 409 2034 409 
Q 2525 409 2770 889 
Q 3016 1369 3016 2328 
Q 3016 3291 2770 3770 
Q 2525 4250 2034 4250 
z
M 2034 4750 
Q 2819 4750 3233 4129 
Q 3647 3509 3647 2328 
Q 3647 1150 3233 529 
Q 2819 -91 2034 -91 
Q 1250 -91 836 529 
Q 422 1150 422 2328 
Q 422 3509 836 4129 
Q 1250 4750 2034 4750 
z
" id="DejaVuSans-30" transform="scale(0.015625)"/>
       </defs>
       <use xlink:href="#DejaVuSans-30"/>
      </g>
     </g>
    </g>
    <g id="xtick_3">
     <g id="line2d_5">
      <path clip-path="url(#p194f396b20)" d="M 320.436521 293.76 
L 320.436521 3.456 
" style="fill:none;stroke:#b0b0b0;stroke-linecap:square;stroke-width:0.8;"/>
     </g>
     <g id="line2d_6">
      <g>
       <use style="stroke:#000000;stroke-width:0.8;" x="320.436521" xlink:href="#meeacf990f1" y="293.76"/>
      </g>
     </g>
     <g id="text_3">
      <!-- 4 -->
      <g transform="translate(314.074021 315.956875)scale(0.2 -0.2)">
       <use xlink:href="#DejaVuSans-34"/>
      </g>
     </g>
    </g>
    <g id="xtick_4">
     <g id="line2d_7">
      <path clip-path="url(#p194f396b20)" d="M 427.287174 293.76 
L 427.287174 3.456 
" style="fill:none;stroke:#b0b0b0;stroke-linecap:square;stroke-width:0.8;"/>
     </g>
     <g id="line2d_8">
      <g>
       <use style="stroke:#000000;stroke-width:0.8;" x="427.287174" xlink:href="#meeacf990f1" y="293.76"/>
      </g>
     </g>
     <g id="text_4">
      <!-- 8 -->
      <g transform="translate(420.924674 315.956875)scale(0.2 -0.2)">
       <defs>
        <path d="M 2034 2216 
Q 1584 2216 1326 1975 
Q 1069 1734 1069 1313 
Q 1069 891 1326 650 
Q 1584 409 2034 409 
Q 2484 409 2743 651 
Q 3003 894 3003 1313 
Q 3003 1734 2745 1975 
Q 2488 2216 2034 2216 
z
M 1403 2484 
Q 997 2584 770 2862 
Q 544 3141 544 3541 
Q 544 4100 942 4425 
Q 1341 4750 2034 4750 
Q 2731 4750 3128 4425 
Q 3525 4100 3525 3541 
Q 3525 3141 3298 2862 
Q 3072 2584 2669 2484 
Q 3125 2378 3379 2068 
Q 3634 1759 3634 1313 
Q 3634 634 3220 271 
Q 2806 -91 2034 -91 
Q 1263 -91 848 271 
Q 434 634 434 1313 
Q 434 1759 690 2068 
Q 947 2378 1403 2484 
z
M 1172 3481 
Q 1172 3119 1398 2916 
Q 1625 2713 2034 2713 
Q 2441 2713 2670 2916 
Q 2900 3119 2900 3481 
Q 2900 3844 2670 4047 
Q 2441 4250 2034 4250 
Q 1625 4250 1398 4047 
Q 1172 3844 1172 3481 
z
" id="DejaVuSans-38" transform="scale(0.015625)"/>
       </defs>
       <use xlink:href="#DejaVuSans-38"/>
      </g>
     </g>
    </g>
    <g id="text_5">
     <!-- log10 of Df -->
     <g transform="translate(175.214063 339.313125)scale(0.2 -0.2)">
      <defs>
       <path d="M 603 4863 
L 1178 4863 
L 1178 0 
L 603 0 
L 603 4863 
z
" id="DejaVuSans-6c" transform="scale(0.015625)"/>
       <path d="M 1959 3097 
Q 1497 3097 1228 2736 
Q 959 2375 959 1747 
Q 959 1119 1226 758 
Q 1494 397 1959 397 
Q 2419 397 2687 759 
Q 2956 1122 2956 1747 
Q 2956 2369 2687 2733 
Q 2419 3097 1959 3097 
z
M 1959 3584 
Q 2709 3584 3137 3096 
Q 3566 2609 3566 1747 
Q 3566 888 3137 398 
Q 2709 -91 1959 -91 
Q 1206 -91 779 398 
Q 353 888 353 1747 
Q 353 2609 779 3096 
Q 1206 3584 1959 3584 
z
" id="DejaVuSans-6f" transform="scale(0.015625)"/>
       <path d="M 2906 1791 
Q 2906 2416 2648 2759 
Q 2391 3103 1925 3103 
Q 1463 3103 1205 2759 
Q 947 2416 947 1791 
Q 947 1169 1205 825 
Q 1463 481 1925 481 
Q 2391 481 2648 825 
Q 2906 1169 2906 1791 
z
M 3481 434 
Q 3481 -459 3084 -895 
Q 2688 -1331 1869 -1331 
Q 1566 -1331 1297 -1286 
Q 1028 -1241 775 -1147 
L 775 -588 
Q 1028 -725 1275 -790 
Q 1522 -856 1778 -856 
Q 2344 -856 2625 -561 
Q 2906 -266 2906 331 
L 2906 616 
Q 2728 306 2450 153 
Q 2172 0 1784 0 
Q 1141 0 747 490 
Q 353 981 353 1791 
Q 353 2603 747 3093 
Q 1141 3584 1784 3584 
Q 2172 3584 2450 3431 
Q 2728 3278 2906 2969 
L 2906 3500 
L 3481 3500 
L 3481 434 
z
" id="DejaVuSans-67" transform="scale(0.015625)"/>
       <path d="M 794 531 
L 1825 531 
L 1825 4091 
L 703 3866 
L 703 4441 
L 1819 4666 
L 2450 4666 
L 2450 531 
L 3481 531 
L 3481 0 
L 794 0 
L 794 531 
z
" id="DejaVuSans-31" transform="scale(0.015625)"/>
       <path id="DejaVuSans-20" transform="scale(0.015625)"/>
       <path d="M 2375 4863 
L 2375 4384 
L 1825 4384 
Q 1516 4384 1395 4259 
Q 1275 4134 1275 3809 
L 1275 3500 
L 2222 3500 
L 2222 3053 
L 1275 3053 
L 1275 0 
L 697 0 
L 697 3053 
L 147 3053 
L 147 3500 
L 697 3500 
L 697 3744 
Q 697 4328 969 4595 
Q 1241 4863 1831 4863 
L 2375 4863 
z
" id="DejaVuSans-66" transform="scale(0.015625)"/>
       <path d="M 1259 4147 
L 1259 519 
L 2022 519 
Q 2988 519 3436 956 
Q 3884 1394 3884 2338 
Q 3884 3275 3436 3711 
Q 2988 4147 2022 4147 
L 1259 4147 
z
M 628 4666 
L 1925 4666 
Q 3281 4666 3915 4102 
Q 4550 3538 4550 2338 
Q 4550 1131 3912 565 
Q 3275 0 1925 0 
L 628 0 
L 628 4666 
z
" id="DejaVuSans-44" transform="scale(0.015625)"/>
      </defs>
      <use xlink:href="#DejaVuSans-6c"/>
      <use x="27.783203" xlink:href="#DejaVuSans-6f"/>
      <use x="88.964844" xlink:href="#DejaVuSans-67"/>
      <use x="152.441406" xlink:href="#DejaVuSans-31"/>
      <use x="216.064453" xlink:href="#DejaVuSans-30"/>
      <use x="279.6875" xlink:href="#DejaVuSans-20"/>
      <use x="311.474609" xlink:href="#DejaVuSans-6f"/>
      <use x="372.65625" xlink:href="#DejaVuSans-66"/>
      <use x="407.861328" xlink:href="#DejaVuSans-20"/>
      <use x="439.648438" xlink:href="#DejaVuSans-44"/>
      <use x="516.650391" xlink:href="#DejaVuSans-66"/>
     </g>
    </g>
   </g>
   <g id="matplotlib.axis_2">
    <g id="ytick_1">
     <g id="line2d_9">
      <path clip-path="url(#p194f396b20)" d="M 0 293.76 
L 460.8 293.76 
" style="fill:none;stroke:#b0b0b0;stroke-linecap:square;stroke-width:0.8;"/>
     </g>
     <g id="line2d_10">
      <defs>
       <path d="M 0 0 
L -3.5 0 
" id="m8035edf6f6" style="stroke:#000000;stroke-width:0.8;"/>
      </defs>
      <g>
       <use style="stroke:#000000;stroke-width:0.8;" x="0" xlink:href="#m8035edf6f6" y="293.76"/>
      </g>
     </g>
    </g>
    <g id="ytick_2">
     <g id="line2d_11">
      <path clip-path="url(#p194f396b20)" d="M 0 236.274059 
L 460.8 236.274059 
" style="fill:none;stroke:#b0b0b0;stroke-linecap:square;stroke-width:0.8;"/>
     </g>
     <g id="line2d_12">
      <g>
       <use style="stroke:#000000;stroke-width:0.8;" x="0" xlink:href="#m8035edf6f6" y="236.274059"/>
      </g>
     </g>
    </g>
    <g id="ytick_3">
     <g id="line2d_13">
      <path clip-path="url(#p194f396b20)" d="M 0 178.788119 
L 460.8 178.788119 
" style="fill:none;stroke:#b0b0b0;stroke-linecap:square;stroke-width:0.8;"/>
     </g>
     <g id="line2d_14">
      <g>
       <use style="stroke:#000000;stroke-width:0.8;" x="0" xlink:href="#m8035edf6f6" y="178.788119"/>
      </g>
     </g>
    </g>
    <g id="ytick_4">
     <g id="line2d_15">
      <path clip-path="url(#p194f396b20)" d="M 0 121.302178 
L 460.8 121.302178 
" style="fill:none;stroke:#b0b0b0;stroke-linecap:square;stroke-width:0.8;"/>
     </g>
     <g id="line2d_16">
      <g>
       <use style="stroke:#000000;stroke-width:0.8;" x="0" xlink:href="#m8035edf6f6" y="121.302178"/>
      </g>
     </g>
    </g>
    <g id="ytick_5">
     <g id="line2d_17">
      <path clip-path="url(#p194f396b20)" d="M 0 63.816238 
L 460.8 63.816238 
" style="fill:none;stroke:#b0b0b0;stroke-linecap:square;stroke-width:0.8;"/>
     </g>
     <g id="line2d_18">
      <g>
       <use style="stroke:#000000;stroke-width:0.8;" x="0" xlink:href="#m8035edf6f6" y="63.816238"/>
      </g>
     </g>
    </g>
    <g id="ytick_6">
     <g id="line2d_19">
      <path clip-path="url(#p194f396b20)" d="M 0 6.330297 
L 460.8 6.330297 
" style="fill:none;stroke:#b0b0b0;stroke-linecap:square;stroke-width:0.8;"/>
     </g>
     <g id="line2d_20">
      <g>
       <use style="stroke:#000000;stroke-width:0.8;" x="0" xlink:href="#m8035edf6f6" y="6.330297"/>
      </g>
     </g>
    </g>
   </g>
   <g id="line2d_21">
    <path clip-path="url(#p194f396b20)" d="M 246.397968 293.76 
L 246.397968 289.927604 
L 250.55525 289.927604 
L 250.55525 286.095208 
L 254.320447 286.095208 
L 254.320447 282.262812 
L 255.081239 282.262812 
L 255.081239 278.430416 
L 255.414832 278.430416 
L 255.414832 274.59802 
L 256.168601 274.59802 
L 256.168601 270.765624 
L 256.577206 270.765624 
L 256.577206 266.933228 
L 257.882402 266.933228 
L 257.882402 263.100832 
L 258.459351 263.100832 
L 258.459351 259.268436 
L 259.155089 259.268436 
L 259.155089 255.43604 
L 259.319549 255.43604 
L 259.319549 251.603644 
L 259.592219 251.603644 
L 259.592219 247.771248 
L 259.961736 247.771248 
L 259.961736 243.938851 
L 260.799171 243.938851 
L 260.799171 240.106455 
L 263.882561 240.106455 
L 263.882561 236.274059 
L 285.591074 236.274059 
L 285.591074 232.441663 
L 285.805548 232.441663 
L 285.805548 228.609267 
L 298.221027 228.609267 
L 298.221027 224.776871 
L 300.226613 224.776871 
L 300.226613 220.944475 
L 300.373838 220.944475 
L 300.396373 213.279683 
L 301.160394 213.279683 
L 301.160394 209.447287 
L 301.329513 209.447287 
L 301.329513 205.614891 
L 301.484852 205.614891 
L 301.484852 201.782495 
L 301.750535 201.782495 
L 301.750535 197.950099 
L 301.872899 197.950099 
L 301.968599 190.285307 
L 302.153338 190.285307 
L 302.153338 186.452911 
L 302.563624 186.452911 
L 302.563624 182.620515 
L 302.874429 182.620515 
L 302.916015 174.955723 
L 304.117839 174.955723 
L 304.117839 171.123327 
L 305.07204 171.123327 
L 305.07204 167.290931 
L 306.831435 167.290931 
L 306.831435 163.458535 
L 308.120914 163.458535 
L 308.120914 159.626139 
L 309.465814 159.626139 
L 309.465814 155.793743 
L 310.148594 155.793743 
L 310.148594 151.961347 
L 313.754448 151.961347 
L 313.754448 148.12895 
L 318.426224 148.12895 
L 318.426224 144.296554 
L 322.334493 144.296554 
L 322.334493 140.464158 
L 325.953669 140.464158 
L 325.953669 136.631762 
L 326.094251 136.631762 
L 326.094251 132.799366 
L 329.166712 132.799366 
L 329.166712 128.96697 
L 334.721471 128.96697 
L 334.721471 125.134574 
L 336.700796 125.134574 
L 336.700796 121.302178 
L 374.856112 121.302178 
L 374.856112 117.469782 
L 378.388279 117.469782 
L 378.388279 113.637386 
L 379.2101 113.637386 
L 379.2101 109.80499 
L 380.958008 109.80499 
L 380.958008 105.972594 
L 381.662832 105.972594 
L 381.662832 102.140198 
L 382.360502 102.140198 
L 382.360502 98.307802 
L 383.320731 98.307802 
L 383.320731 94.475406 
L 383.575073 94.475406 
L 383.575073 90.64301 
L 385.143323 90.64301 
L 385.143323 86.810614 
L 385.855171 86.810614 
L 385.855171 82.978218 
L 386.269552 82.978218 
L 386.269552 79.145822 
L 387.357775 79.145822 
L 387.357775 75.313426 
L 389.582672 75.313426 
L 389.582672 71.48103 
L 391.140712 71.48103 
L 391.140712 67.648634 
L 401.304567 67.648634 
L 401.304567 63.816238 
L 426.196315 63.816238 
L 426.196315 59.983842 
L 426.775185 59.983842 
L 426.775185 56.151446 
L 432.949247 56.151446 
L 432.949247 52.31905 
L 433.186179 52.31905 
L 433.186179 48.486653 
L 433.955433 48.486653 
L 433.955433 44.654257 
L 434.144722 44.654257 
L 434.144722 40.821861 
L 434.926528 40.821861 
L 434.926528 36.989465 
L 435.571789 36.989465 
L 435.571789 33.157069 
L 435.757107 33.157069 
L 435.757107 29.324673 
L 436.262492 29.324673 
L 436.262492 25.492277 
L 437.27233 25.492277 
L 437.27233 21.659881 
L 437.717435 21.659881 
L 437.717435 17.827485 
L 438.231982 17.827485 
L 438.231982 13.995089 
L 443.061791 13.995089 
L 443.061791 10.162693 
L 444.452335 10.162693 
L 444.452335 6.330297 
L 444.452335 6.330297 
L 460.8 6.330297 
L 460.8 6.330297 
" style="fill:none;stroke:#ff0000;stroke-linecap:square;stroke-width:3;"/>
   </g>
   <g id="line2d_22">
    <path clip-path="url(#p194f396b20)" d="M 246.397968 293.76 
L 246.397968 289.927604 
L 250.55525 289.927604 
L 250.55525 286.095208 
L 254.320447 286.095208 
L 254.320447 282.262812 
L 255.081239 282.262812 
L 255.081239 278.430416 
L 255.414832 278.430416 
L 255.414832 274.59802 
L 256.168601 274.59802 
L 256.168601 270.765624 
L 258.459351 270.765624 
L 258.459351 266.933228 
L 259.155089 266.933228 
L 259.155089 263.100832 
L 259.319549 263.100832 
L 259.419303 255.43604 
L 259.59671 255.43604 
L 259.59671 251.603644 
L 259.961736 251.603644 
L 259.961736 247.771248 
L 260.799171 247.771248 
L 260.799171 243.938851 
L 265.037348 243.938851 
L 265.037348 240.106455 
L 265.434243 240.106455 
L 265.434243 236.274059 
L 285.805548 236.274059 
L 285.805548 232.441663 
L 298.221027 232.441663 
L 298.221027 228.609267 
L 300.226613 228.609267 
L 300.226613 224.776871 
L 300.373838 224.776871 
L 300.373838 220.944475 
L 301.329513 220.944475 
L 301.329513 217.112079 
L 301.872899 217.112079 
L 301.968599 209.447287 
L 302.153338 209.447287 
L 302.153338 205.614891 
L 302.874429 205.614891 
L 302.916614 194.117703 
L 303.321765 194.117703 
L 303.321765 190.285307 
L 303.879451 190.285307 
L 303.879451 186.452911 
L 304.117839 186.452911 
L 304.158828 178.788119 
L 305.07204 178.788119 
L 305.07204 174.955723 
L 308.120914 174.955723 
L 308.120914 171.123327 
L 309.437658 171.123327 
L 309.437658 167.290931 
L 323.889977 167.290931 
L 323.889977 163.458535 
L 329.166712 163.458535 
L 329.166712 159.626139 
L 336.700796 159.626139 
L 336.700796 155.793743 
L 341.420726 155.793743 
L 341.420726 151.961347 
L 341.628944 151.961347 
L 341.628944 148.12895 
L 343.019151 148.12895 
L 343.019151 144.296554 
L 346.473 144.296554 
L 346.473 140.464158 
L 355.114322 140.464158 
L 355.114322 136.631762 
L 359.141874 136.631762 
L 359.141874 132.799366 
L 367.308329 132.799366 
L 367.308329 128.96697 
L 370.583267 128.96697 
L 370.583267 125.134574 
L 378.388279 125.134574 
L 378.388279 121.302178 
L 379.2101 121.302178 
L 379.2101 117.469782 
L 379.411644 117.469782 
L 379.411644 113.637386 
L 381.51473 113.637386 
L 381.51473 109.80499 
L 382.901489 109.80499 
L 382.901489 105.972594 
L 383.575073 105.972594 
L 383.575073 102.140198 
L 385.855171 102.140198 
L 385.855171 98.307802 
L 386.410431 98.307802 
L 386.410431 94.475406 
L 387.553995 94.475406 
L 387.553995 90.64301 
L 391.969475 90.64301 
L 391.969475 86.810614 
L 392.501295 86.810614 
L 392.501295 82.978218 
L 395.269822 82.978218 
L 395.269822 79.145822 
L 396.208544 79.145822 
L 396.208544 75.313426 
L 397.080487 75.313426 
L 397.080487 71.48103 
L 399.497161 71.48103 
L 399.497161 67.648634 
L 401.304567 67.648634 
L 401.304567 63.816238 
L 426.196315 63.816238 
L 426.196315 59.983842 
L 426.775185 59.983842 
L 426.775185 56.151446 
L 432.949247 56.151446 
L 432.949247 52.31905 
L 433.186179 52.31905 
L 433.186179 48.486653 
L 433.955433 48.486653 
L 433.955433 44.654257 
L 434.144722 44.654257 
L 434.144722 40.821861 
L 435.571789 40.821861 
L 435.571789 36.989465 
L 435.757107 36.989465 
L 435.757107 33.157069 
L 436.262492 33.157069 
L 436.262492 29.324673 
L 439.474409 29.324673 
L 439.474409 25.492277 
L 441.383898 25.492277 
L 441.383898 21.659881 
L 442.80179 21.659881 
L 442.80179 17.827485 
L 445.398806 17.827485 
L 445.398806 13.995089 
L 447.329942 13.995089 
L 447.329942 10.162693 
L 448.262884 10.162693 
L 448.262884 6.330297 
L 448.262884 6.330297 
L 460.8 6.330297 
L 460.8 6.330297 
" style="fill:none;stroke:#00bfbf;stroke-linecap:square;stroke-width:1.5;"/>
   </g>
   <g id="line2d_23">
    <path clip-path="url(#p194f396b20)" d="M 246.397968 293.76 
L 246.397968 289.927604 
L 250.55525 289.927604 
L 250.55525 286.095208 
L 254.320447 286.095208 
L 254.320447 282.262812 
L 255.081239 282.262812 
L 255.081239 278.430416 
L 255.414832 278.430416 
L 255.414832 274.59802 
L 256.168601 274.59802 
L 256.168601 270.765624 
L 258.459351 270.765624 
L 258.459351 266.933228 
L 259.155089 266.933228 
L 259.155089 263.100832 
L 259.319549 263.100832 
L 259.419303 255.43604 
L 259.59671 255.43604 
L 259.59671 251.603644 
L 259.961736 251.603644 
L 259.961736 247.771248 
L 260.799171 247.771248 
L 260.799171 243.938851 
L 263.882561 243.938851 
L 263.882561 240.106455 
L 265.037348 240.106455 
L 265.037348 236.274059 
L 285.591074 236.274059 
L 285.591074 232.441663 
L 285.805548 232.441663 
L 285.805548 228.609267 
L 298.221027 228.609267 
L 298.221027 224.776871 
L 300.226613 224.776871 
L 300.226613 220.944475 
L 300.373838 220.944475 
L 300.396373 213.279683 
L 301.329513 213.279683 
L 301.329513 209.447287 
L 301.484852 209.447287 
L 301.484852 205.614891 
L 301.872899 205.614891 
L 301.968599 197.950099 
L 302.153338 197.950099 
L 302.153338 194.117703 
L 302.563624 194.117703 
L 302.563624 190.285307 
L 302.874429 190.285307 
L 302.916015 182.620515 
L 303.420106 182.620515 
L 303.420106 178.788119 
L 303.879451 178.788119 
L 303.879451 174.955723 
L 304.117839 174.955723 
L 304.117839 171.123327 
L 305.07204 171.123327 
L 305.07204 167.290931 
L 308.120914 167.290931 
L 308.120914 163.458535 
L 317.059255 163.458535 
L 317.059255 159.626139 
L 318.426224 159.626139 
L 318.426224 155.793743 
L 322.334493 155.793743 
L 322.334493 151.961347 
L 323.889977 151.961347 
L 323.889977 148.12895 
L 326.094251 148.12895 
L 326.094251 144.296554 
L 329.166712 144.296554 
L 329.166712 140.464158 
L 334.721471 140.464158 
L 334.721471 136.631762 
L 336.700796 136.631762 
L 336.700796 132.799366 
L 337.697941 132.799366 
L 337.697941 128.96697 
L 346.473 128.96697 
L 346.473 125.134574 
L 346.923609 125.134574 
L 346.923609 121.302178 
L 374.856112 121.302178 
L 374.856112 117.469782 
L 378.388279 117.469782 
L 378.388279 113.637386 
L 379.2101 113.637386 
L 379.2101 109.80499 
L 382.901489 109.80499 
L 382.901489 105.972594 
L 383.320731 105.972594 
L 383.320731 102.140198 
L 383.575073 102.140198 
L 383.575073 98.307802 
L 385.143323 98.307802 
L 385.143323 94.475406 
L 385.855171 94.475406 
L 385.855171 90.64301 
L 386.410431 90.64301 
L 386.410431 86.810614 
L 386.819388 86.810614 
L 386.819388 82.978218 
L 387.553995 82.978218 
L 387.553995 79.145822 
L 391.140712 79.145822 
L 391.140712 75.313426 
L 392.944446 75.313426 
L 392.944446 71.48103 
L 394.300758 71.48103 
L 394.300758 67.648634 
L 401.304567 67.648634 
L 401.304567 63.816238 
L 426.196315 63.816238 
L 426.196315 59.983842 
L 426.775185 59.983842 
L 426.775185 56.151446 
L 432.949247 56.151446 
L 432.949247 52.31905 
L 433.186179 52.31905 
L 433.186179 48.486653 
L 433.955433 48.486653 
L 433.955433 44.654257 
L 434.144722 44.654257 
L 434.144722 40.821861 
L 434.926528 40.821861 
L 434.926528 36.989465 
L 435.571789 36.989465 
L 435.571789 33.157069 
L 435.757107 33.157069 
L 435.757107 29.324673 
L 436.262492 29.324673 
L 436.262492 25.492277 
L 439.474409 25.492277 
L 439.474409 21.659881 
L 441.383898 21.659881 
L 441.383898 17.827485 
L 443.558135 17.827485 
L 443.558135 13.995089 
L 444.144829 13.995089 
L 444.144829 10.162693 
L 444.452335 10.162693 
L 444.452335 6.330297 
L 444.452335 6.330297 
L 460.8 6.330297 
L 460.8 6.330297 
" style="fill:none;stroke:#bf00bf;stroke-linecap:square;stroke-width:1.5;"/>
   </g>
   <g id="patch_3">
    <path d="M 0 293.76 
L 0 3.456 
" style="fill:none;stroke:#000000;stroke-linecap:square;stroke-linejoin:miter;stroke-width:0.8;"/>
   </g>
   <g id="patch_4">
    <path d="M 460.8 293.76 
L 460.8 3.456 
" style="fill:none;stroke:#000000;stroke-linecap:square;stroke-linejoin:miter;stroke-width:0.8;"/>
   </g>
   <g id="patch_5">
    <path d="M 0 293.76 
L 460.8 293.76 
" style="fill:none;stroke:#000000;stroke-linecap:square;stroke-linejoin:miter;stroke-width:0.8;"/>
   </g>
   <g id="patch_6">
    <path d="M 0 3.456 
L 460.8 3.456 
" style="fill:none;stroke:#000000;stroke-linecap:square;stroke-linejoin:miter;stroke-width:0.8;"/>
   </g>
   <g id="text_6">
    <!-- {f10-f14}, 20-D -->
    <g transform="translate(293.159 287.95392)scale(0.2 -0.2)">
     <defs>
      <path d="M 3272 -594 
L 3272 -1044 
L 3078 -1044 
Q 2300 -1044 2036 -812 
Q 1772 -581 1772 109 
L 1772 856 
Q 1772 1328 1603 1509 
Q 1434 1691 991 1691 
L 800 1691 
L 800 2138 
L 991 2138 
Q 1438 2138 1605 2317 
Q 1772 2497 1772 2963 
L 1772 3713 
Q 1772 4403 2036 4633 
Q 2300 4863 3078 4863 
L 3272 4863 
L 3272 4416 
L 3059 4416 
Q 2619 4416 2484 4278 
Q 2350 4141 2350 3700 
L 2350 2925 
Q 2350 2434 2208 2212 
Q 2066 1991 1722 1913 
Q 2069 1828 2209 1606 
Q 2350 1384 2350 897 
L 2350 122 
Q 2350 -319 2484 -456 
Q 2619 -594 3059 -594 
L 3272 -594 
z
" id="DejaVuSans-7b" transform="scale(0.015625)"/>
      <path d="M 800 -594 
L 1019 -594 
Q 1456 -594 1589 -459 
Q 1722 -325 1722 122 
L 1722 897 
Q 1722 1384 1862 1606 
Q 2003 1828 2350 1913 
Q 2003 1991 1862 2212 
Q 1722 2434 1722 2925 
L 1722 3700 
Q 1722 4144 1589 4280 
Q 1456 4416 1019 4416 
L 800 4416 
L 800 4863 
L 997 4863 
Q 1775 4863 2036 4633 
Q 2297 4403 2297 3713 
L 2297 2963 
Q 2297 2497 2465 2317 
Q 2634 2138 3078 2138 
L 3272 2138 
L 3272 1691 
L 3078 1691 
Q 2634 1691 2465 1509 
Q 2297 1328 2297 856 
L 2297 109 
Q 2297 -581 2036 -812 
Q 1775 -1044 997 -1044 
L 800 -1044 
L 800 -594 
z
" id="DejaVuSans-7d" transform="scale(0.015625)"/>
      <path d="M 750 794 
L 1409 794 
L 1409 256 
L 897 -744 
L 494 -744 
L 750 256 
L 750 794 
z
" id="DejaVuSans-2c" transform="scale(0.015625)"/>
      <path d="M 1228 531 
L 3431 531 
L 3431 0 
L 469 0 
L 469 531 
Q 828 903 1448 1529 
Q 2069 2156 2228 2338 
Q 2531 2678 2651 2914 
Q 2772 3150 2772 3378 
Q 2772 3750 2511 3984 
Q 2250 4219 1831 4219 
Q 1534 4219 1204 4116 
Q 875 4013 500 3803 
L 500 4441 
Q 881 4594 1212 4672 
Q 1544 4750 1819 4750 
Q 2544 4750 2975 4387 
Q 3406 4025 3406 3419 
Q 3406 3131 3298 2873 
Q 3191 2616 2906 2266 
Q 2828 2175 2409 1742 
Q 1991 1309 1228 531 
z
" id="DejaVuSans-32" transform="scale(0.015625)"/>
     </defs>
     <use xlink:href="#DejaVuSans-7b"/>
     <use x="63.623047" xlink:href="#DejaVuSans-66"/>
     <use x="98.828125" xlink:href="#DejaVuSans-31"/>
     <use x="162.451172" xlink:href="#DejaVuSans-30"/>
     <use x="226.074219" xlink:href="#DejaVuSans-2d"/>
     <use x="262.158203" xlink:href="#DejaVuSans-66"/>
     <use x="297.363281" xlink:href="#DejaVuSans-31"/>
     <use x="360.986328" xlink:href="#DejaVuSans-34"/>
     <use x="424.609375" xlink:href="#DejaVuSans-7d"/>
     <use x="488.232422" xlink:href="#DejaVuSans-2c"/>
     <use x="520.019531" xlink:href="#DejaVuSans-20"/>
     <use x="551.806641" xlink:href="#DejaVuSans-32"/>
     <use x="615.429688" xlink:href="#DejaVuSans-30"/>
     <use x="679.052734" xlink:href="#DejaVuSans-2d"/>
     <use x="715.136719" xlink:href="#DejaVuSans-44"/>
    </g>
   </g>
   <g id="text_7">
    <!-- v2.4 -->
    <g style="fill:#808080;" transform="translate(219.489063 288.777272)scale(0.1 -0.1)">
     <defs>
      <path d="M 191 3500 
L 800 3500 
L 1894 563 
L 2988 3500 
L 3597 3500 
L 2284 0 
L 1503 0 
L 191 3500 
z
" id="DejaVuSans-76" transform="scale(0.015625)"/>
      <path d="M 684 794 
L 1344 794 
L 1344 0 
L 684 0 
L 684 794 
z
" id="DejaVuSans-2e" transform="scale(0.015625)"/>
     </defs>
     <use xlink:href="#DejaVuSans-76"/>
     <use x="59.179688" xlink:href="#DejaVuSans-32"/>
     <use x="122.802734" xlink:href="#DejaVuSans-2e"/>
     <use x="154.589844" xlink:href="#DejaVuSans-34"/>
    </g>
   </g>
  </g>
 </g>
 <defs>
  <clipPath id="p194f396b20">
   <rect height="290.304" width="460.8" x="0" y="3.456"/>
  </clipPath>
 </defs>
</svg>
