<?xml version="1.0" encoding="utf-8" standalone="no"?>
<!DOCTYPE svg PUBLIC "-//W3C//DTD SVG 1.1//EN"
  "http://www.w3.org/Graphics/SVG/1.1/DTD/svg11.dtd">
<!-- Created with matplotlib (https://matplotlib.org/) -->
<svg height="345.6pt" version="1.1" viewBox="0 0 460.8 345.6" width="460.8pt" xmlns="http://www.w3.org/2000/svg" xmlns:xlink="http://www.w3.org/1999/xlink">
 <defs>
  <style type="text/css">
*{stroke-linecap:butt;stroke-linejoin:round;}
  </style>
 </defs>
 <g id="figure_1">
  <g id="patch_1">
   <path d="M 0 345.6 
L 460.8 345.6 
L 460.8 0 
L 0 0 
z
" style="fill:#ffffff;"/>
  </g>
  <g id="axes_1">
   <g id="patch_2">
    <path d="M 0 293.76 
L 460.8 293.76 
L 460.8 3.456 
L 0 3.456 
z
" style="fill:#ffffff;"/>
   </g>
   <g id="matplotlib.axis_1">
    <g id="xtick_1">
     <g id="line2d_1">
      <path clip-path="url(#p96a6130a50)" d="M 93.092666 293.76 
L 93.092666 3.456 
" style="fill:none;stroke:#b0b0b0;stroke-linecap:square;stroke-width:0.8;"/>
     </g>
     <g id="line2d_2">
      <defs>
       <path d="M 0 0 
L 0 3.5 
" id="m1d2fdbd95b" style="stroke:#000000;stroke-width:0.8;"/>
      </defs>
      <g>
       <use style="stroke:#000000;stroke-width:0.8;" x="93.092666" xlink:href="#m1d2fdbd95b" y="293.76"/>
      </g>
     </g>
     <g id="text_1">
      <!-- -4 -->
      <defs>
       <path d="M 4.890625 31.390625 
L 31.203125 31.390625 
L 31.203125 23.390625 
L 4.890625 23.390625 
z
" id="DejaVuSans-45"/>
       <path d="M 37.796875 64.3125 
L 12.890625 25.390625 
L 37.796875 25.390625 
z
M 35.203125 72.90625 
L 47.609375 72.90625 
L 47.609375 25.390625 
L 58.015625 25.390625 
L 58.015625 17.1875 
L 47.609375 17.1875 
L 47.609375 0 
L 37.796875 0 
L 37.796875 17.1875 
L 4.890625 17.1875 
L 4.890625 26.703125 
z
" id="DejaVuSans-52"/>
      </defs>
      <g transform="translate(83.122353 315.956875)scale(0.2 -0.2)">
       <use xlink:href="#DejaVuSans-45"/>
       <use x="36.083984" xlink:href="#DejaVuSans-52"/>
      </g>
     </g>
    </g>
    <g id="xtick_2">
     <g id="line2d_3">
      <path clip-path="url(#p96a6130a50)" d="M 186.286013 293.76 
L 186.286013 3.456 
" style="fill:none;stroke:#b0b0b0;stroke-linecap:square;stroke-width:0.8;"/>
     </g>
     <g id="line2d_4">
      <g>
       <use style="stroke:#000000;stroke-width:0.8;" x="186.286013" xlink:href="#m1d2fdbd95b" y="293.76"/>
      </g>
     </g>
     <g id="text_2">
      <!-- 0 -->
      <defs>
       <path d="M 31.78125 66.40625 
Q 24.171875 66.40625 20.328125 58.90625 
Q 16.5 51.421875 16.5 36.375 
Q 16.5 21.390625 20.328125 13.890625 
Q 24.171875 6.390625 31.78125 6.390625 
Q 39.453125 6.390625 43.28125 13.890625 
Q 47.125 21.390625 47.125 36.375 
Q 47.125 51.421875 43.28125 58.90625 
Q 39.453125 66.40625 31.78125 66.40625 
z
M 31.78125 74.21875 
Q 44.046875 74.21875 50.515625 64.515625 
Q 56.984375 54.828125 56.984375 36.375 
Q 56.984375 17.96875 50.515625 8.265625 
Q 44.046875 -1.421875 31.78125 -1.421875 
Q 19.53125 -1.421875 13.0625 8.265625 
Q 6.59375 17.96875 6.59375 36.375 
Q 6.59375 54.828125 13.0625 64.515625 
Q 19.53125 74.21875 31.78125 74.21875 
z
" id="DejaVuSans-48"/>
      </defs>
      <g transform="translate(179.923513 315.956875)scale(0.2 -0.2)">
       <use xlink:href="#DejaVuSans-48"/>
      </g>
     </g>
    </g>
    <g id="xtick_3">
     <g id="line2d_5">
      <path clip-path="url(#p96a6130a50)" d="M 279.479359 293.76 
L 279.479359 3.456 
" style="fill:none;stroke:#b0b0b0;stroke-linecap:square;stroke-width:0.8;"/>
     </g>
     <g id="line2d_6">
      <g>
       <use style="stroke:#000000;stroke-width:0.8;" x="279.479359" xlink:href="#m1d2fdbd95b" y="293.76"/>
      </g>
     </g>
     <g id="text_3">
      <!-- 4 -->
      <g transform="translate(273.116859 315.956875)scale(0.2 -0.2)">
       <use xlink:href="#DejaVuSans-52"/>
      </g>
     </g>
    </g>
    <g id="xtick_4">
     <g id="line2d_7">
      <path clip-path="url(#p96a6130a50)" d="M 372.672706 293.76 
L 372.672706 3.456 
" style="fill:none;stroke:#b0b0b0;stroke-linecap:square;stroke-width:0.8;"/>
     </g>
     <g id="line2d_8">
      <g>
       <use style="stroke:#000000;stroke-width:0.8;" x="372.672706" xlink:href="#m1d2fdbd95b" y="293.76"/>
      </g>
     </g>
     <g id="text_4">
      <!-- 8 -->
      <defs>
       <path d="M 31.78125 34.625 
Q 24.75 34.625 20.71875 30.859375 
Q 16.703125 27.09375 16.703125 20.515625 
Q 16.703125 13.921875 20.71875 10.15625 
Q 24.75 6.390625 31.78125 6.390625 
Q 38.8125 6.390625 42.859375 10.171875 
Q 46.921875 13.96875 46.921875 20.515625 
Q 46.921875 27.09375 42.890625 30.859375 
Q 38.875 34.625 31.78125 34.625 
z
M 21.921875 38.8125 
Q 15.578125 40.375 12.03125 44.71875 
Q 8.5 49.078125 8.5 55.328125 
Q 8.5 64.0625 14.71875 69.140625 
Q 20.953125 74.21875 31.78125 74.21875 
Q 42.671875 74.21875 48.875 69.140625 
Q 55.078125 64.0625 55.078125 55.328125 
Q 55.078125 49.078125 51.53125 44.71875 
Q 48 40.375 41.703125 38.8125 
Q 48.828125 37.15625 52.796875 32.3125 
Q 56.78125 27.484375 56.78125 20.515625 
Q 56.78125 9.90625 50.3125 4.234375 
Q 43.84375 -1.421875 31.78125 -1.421875 
Q 19.734375 -1.421875 13.25 4.234375 
Q 6.78125 9.90625 6.78125 20.515625 
Q 6.78125 27.484375 10.78125 32.3125 
Q 14.796875 37.15625 21.921875 38.8125 
z
M 18.3125 54.390625 
Q 18.3125 48.734375 21.84375 45.5625 
Q 25.390625 42.390625 31.78125 42.390625 
Q 38.140625 42.390625 41.71875 45.5625 
Q 45.3125 48.734375 45.3125 54.390625 
Q 45.3125 60.0625 41.71875 63.234375 
Q 38.140625 66.40625 31.78125 66.40625 
Q 25.390625 66.40625 21.84375 63.234375 
Q 18.3125 60.0625 18.3125 54.390625 
z
" id="DejaVuSans-56"/>
      </defs>
      <g transform="translate(366.310206 315.956875)scale(0.2 -0.2)">
       <use xlink:href="#DejaVuSans-56"/>
      </g>
     </g>
    </g>
    <g id="text_5">
     <!-- log10 of Df -->
     <defs>
      <path d="M 9.421875 75.984375 
L 18.40625 75.984375 
L 18.40625 0 
L 9.421875 0 
z
" id="DejaVuSans-108"/>
      <path d="M 30.609375 48.390625 
Q 23.390625 48.390625 19.1875 42.75 
Q 14.984375 37.109375 14.984375 27.296875 
Q 14.984375 17.484375 19.15625 11.84375 
Q 23.34375 6.203125 30.609375 6.203125 
Q 37.796875 6.203125 41.984375 11.859375 
Q 46.1875 17.53125 46.1875 27.296875 
Q 46.1875 37.015625 41.984375 42.703125 
Q 37.796875 48.390625 30.609375 48.390625 
z
M 30.609375 56 
Q 42.328125 56 49.015625 48.375 
Q 55.71875 40.765625 55.71875 27.296875 
Q 55.71875 13.875 49.015625 6.21875 
Q 42.328125 -1.421875 30.609375 -1.421875 
Q 18.84375 -1.421875 12.171875 6.21875 
Q 5.515625 13.875 5.515625 27.296875 
Q 5.515625 40.765625 12.171875 48.375 
Q 18.84375 56 30.609375 56 
z
" id="DejaVuSans-111"/>
      <path d="M 45.40625 27.984375 
Q 45.40625 37.75 41.375 43.109375 
Q 37.359375 48.484375 30.078125 48.484375 
Q 22.859375 48.484375 18.828125 43.109375 
Q 14.796875 37.75 14.796875 27.984375 
Q 14.796875 18.265625 18.828125 12.890625 
Q 22.859375 7.515625 30.078125 7.515625 
Q 37.359375 7.515625 41.375 12.890625 
Q 45.40625 18.265625 45.40625 27.984375 
z
M 54.390625 6.78125 
Q 54.390625 -7.171875 48.1875 -13.984375 
Q 42 -20.796875 29.203125 -20.796875 
Q 24.46875 -20.796875 20.265625 -20.09375 
Q 16.0625 -19.390625 12.109375 -17.921875 
L 12.109375 -9.1875 
Q 16.0625 -11.328125 19.921875 -12.34375 
Q 23.78125 -13.375 27.78125 -13.375 
Q 36.625 -13.375 41.015625 -8.765625 
Q 45.40625 -4.15625 45.40625 5.171875 
L 45.40625 9.625 
Q 42.625 4.78125 38.28125 2.390625 
Q 33.9375 0 27.875 0 
Q 17.828125 0 11.671875 7.65625 
Q 5.515625 15.328125 5.515625 27.984375 
Q 5.515625 40.671875 11.671875 48.328125 
Q 17.828125 56 27.875 56 
Q 33.9375 56 38.28125 53.609375 
Q 42.625 51.21875 45.40625 46.390625 
L 45.40625 54.6875 
L 54.390625 54.6875 
z
" id="DejaVuSans-103"/>
      <path d="M 12.40625 8.296875 
L 28.515625 8.296875 
L 28.515625 63.921875 
L 10.984375 60.40625 
L 10.984375 69.390625 
L 28.421875 72.90625 
L 38.28125 72.90625 
L 38.28125 8.296875 
L 54.390625 8.296875 
L 54.390625 0 
L 12.40625 0 
z
" id="DejaVuSans-49"/>
      <path id="DejaVuSans-32"/>
      <path d="M 37.109375 75.984375 
L 37.109375 68.5 
L 28.515625 68.5 
Q 23.6875 68.5 21.796875 66.546875 
Q 19.921875 64.59375 19.921875 59.515625 
L 19.921875 54.6875 
L 34.71875 54.6875 
L 34.71875 47.703125 
L 19.921875 47.703125 
L 19.921875 0 
L 10.890625 0 
L 10.890625 47.703125 
L 2.296875 47.703125 
L 2.296875 54.6875 
L 10.890625 54.6875 
L 10.890625 58.5 
Q 10.890625 67.625 15.140625 71.796875 
Q 19.390625 75.984375 28.609375 75.984375 
z
" id="DejaVuSans-102"/>
      <path d="M 19.671875 64.796875 
L 19.671875 8.109375 
L 31.59375 8.109375 
Q 46.6875 8.109375 53.6875 14.9375 
Q 60.6875 21.78125 60.6875 36.53125 
Q 60.6875 51.171875 53.6875 57.984375 
Q 46.6875 64.796875 31.59375 64.796875 
z
M 9.8125 72.90625 
L 30.078125 72.90625 
Q 51.265625 72.90625 61.171875 64.09375 
Q 71.09375 55.28125 71.09375 36.53125 
Q 71.09375 17.671875 61.125 8.828125 
Q 51.171875 0 30.078125 0 
L 9.8125 0 
z
" id="DejaVuSans-68"/>
     </defs>
     <g transform="translate(175.214063 339.313125)scale(0.2 -0.2)">
      <use xlink:href="#DejaVuSans-108"/>
      <use x="27.783203" xlink:href="#DejaVuSans-111"/>
      <use x="88.964844" xlink:href="#DejaVuSans-103"/>
      <use x="152.441406" xlink:href="#DejaVuSans-49"/>
      <use x="216.064453" xlink:href="#DejaVuSans-48"/>
      <use x="279.6875" xlink:href="#DejaVuSans-32"/>
      <use x="311.474609" xlink:href="#DejaVuSans-111"/>
      <use x="372.65625" xlink:href="#DejaVuSans-102"/>
      <use x="407.861328" xlink:href="#DejaVuSans-32"/>
      <use x="439.648438" xlink:href="#DejaVuSans-68"/>
      <use x="516.650391" xlink:href="#DejaVuSans-102"/>
     </g>
    </g>
   </g>
   <g id="matplotlib.axis_2">
    <g id="ytick_1">
     <g id="line2d_9">
      <path clip-path="url(#p96a6130a50)" d="M 0 293.76 
L 460.8 293.76 
" style="fill:none;stroke:#b0b0b0;stroke-linecap:square;stroke-width:0.8;"/>
     </g>
     <g id="line2d_10">
      <defs>
       <path d="M 0 0 
L -3.5 0 
" id="m779e98b2f2" style="stroke:#000000;stroke-width:0.8;"/>
      </defs>
      <g>
       <use style="stroke:#000000;stroke-width:0.8;" x="0" xlink:href="#m779e98b2f2" y="293.76"/>
      </g>
     </g>
    </g>
    <g id="ytick_2">
     <g id="line2d_11">
      <path clip-path="url(#p96a6130a50)" d="M 0 236.274059 
L 460.8 236.274059 
" style="fill:none;stroke:#b0b0b0;stroke-linecap:square;stroke-width:0.8;"/>
     </g>
     <g id="line2d_12">
      <g>
       <use style="stroke:#000000;stroke-width:0.8;" x="0" xlink:href="#m779e98b2f2" y="236.274059"/>
      </g>
     </g>
    </g>
    <g id="ytick_3">
     <g id="line2d_13">
      <path clip-path="url(#p96a6130a50)" d="M 0 178.788119 
L 460.8 178.788119 
" style="fill:none;stroke:#b0b0b0;stroke-linecap:square;stroke-width:0.8;"/>
     </g>
     <g id="line2d_14">
      <g>
       <use style="stroke:#000000;stroke-width:0.8;" x="0" xlink:href="#m779e98b2f2" y="178.788119"/>
      </g>
     </g>
    </g>
    <g id="ytick_4">
     <g id="line2d_15">
      <path clip-path="url(#p96a6130a50)" d="M 0 121.302178 
L 460.8 121.302178 
" style="fill:none;stroke:#b0b0b0;stroke-linecap:square;stroke-width:0.8;"/>
     </g>
     <g id="line2d_16">
      <g>
       <use style="stroke:#000000;stroke-width:0.8;" x="0" xlink:href="#m779e98b2f2" y="121.302178"/>
      </g>
     </g>
    </g>
    <g id="ytick_5">
     <g id="line2d_17">
      <path clip-path="url(#p96a6130a50)" d="M 0 63.816238 
L 460.8 63.816238 
" style="fill:none;stroke:#b0b0b0;stroke-linecap:square;stroke-width:0.8;"/>
     </g>
     <g id="line2d_18">
      <g>
       <use style="stroke:#000000;stroke-width:0.8;" x="0" xlink:href="#m779e98b2f2" y="63.816238"/>
      </g>
     </g>
    </g>
    <g id="ytick_6">
     <g id="line2d_19">
      <path clip-path="url(#p96a6130a50)" d="M 0 6.330297 
L 460.8 6.330297 
" style="fill:none;stroke:#b0b0b0;stroke-linecap:square;stroke-width:0.8;"/>
     </g>
     <g id="line2d_20">
      <g>
       <use style="stroke:#000000;stroke-width:0.8;" x="0" xlink:href="#m779e98b2f2" y="6.330297"/>
      </g>
     </g>
    </g>
   </g>
   <g id="line2d_21">
    <path clip-path="url(#p96a6130a50)" d="M 186.804853 293.76 
L 186.804853 293.237401 
L 198.218091 293.237401 
L 198.218091 292.714801 
L 206.237582 292.714801 
L 206.237582 292.192202 
L 206.363143 292.192202 
L 206.388184 291.147003 
L 206.846998 291.147003 
L 206.846998 290.624403 
L 207.340539 290.624403 
L 207.340539 290.101804 
L 209.056662 290.101804 
L 209.056662 289.579204 
L 209.522433 289.579204 
L 209.522433 289.056605 
L 209.954669 289.056605 
L 209.954669 288.534005 
L 210.442424 288.534005 
L 210.442424 288.011406 
L 212.204848 288.011406 
L 212.204848 287.488806 
L 212.528964 287.488806 
L 212.528964 286.966207 
L 212.917954 286.966207 
L 212.917954 286.443608 
L 213.521148 286.443608 
L 213.521148 285.921008 
L 213.968968 285.921008 
L 213.968968 285.398409 
L 215.062809 285.398409 
L 215.077765 284.35321 
L 215.408723 284.35321 
L 215.408723 283.83061 
L 215.590953 283.83061 
L 215.617155 282.785411 
L 215.735626 282.785411 
L 215.735626 282.262812 
L 215.986881 282.262812 
L 215.986881 281.740212 
L 217.219973 281.740212 
L 217.26404 280.695014 
L 218.14894 280.695014 
L 218.184082 279.649815 
L 218.403991 279.649815 
L 218.5034 278.604616 
L 218.731651 278.604616 
L 218.731651 278.082016 
L 219.874566 278.082016 
L 219.874566 277.559417 
L 220.183353 277.559417 
L 220.183353 277.036817 
L 220.571502 277.036817 
L 220.671831 275.991618 
L 221.01468 275.991618 
L 221.01468 275.469019 
L 221.493431 275.469019 
L 221.493431 274.946419 
L 221.637444 274.946419 
L 221.637444 274.42382 
L 221.812316 274.42382 
L 221.812316 273.901221 
L 222.128988 273.901221 
L 222.128988 273.378621 
L 222.257277 273.378621 
L 222.257277 272.856022 
L 222.377543 272.856022 
L 222.377543 272.333422 
L 222.553167 272.333422 
L 222.553167 271.810823 
L 222.957 271.810823 
L 222.957 271.288223 
L 223.760857 271.288223 
L 223.760857 270.765624 
L 224.243836 270.765624 
L 224.243836 270.243024 
L 224.643057 270.243024 
L 224.643057 269.720425 
L 224.897278 269.720425 
L 224.897278 269.197825 
L 225.450673 269.197825 
L 225.450673 268.675226 
L 225.922959 268.675226 
L 225.922959 268.152626 
L 226.187848 268.152626 
L 226.187848 267.630027 
L 226.320008 267.630027 
L 226.320008 267.107428 
L 226.843348 267.107428 
L 226.843348 266.584828 
L 227.060177 266.584828 
L 227.060177 266.062229 
L 227.440377 266.062229 
L 227.45668 265.01703 
L 227.871554 265.01703 
L 227.871554 264.49443 
L 228.066207 264.49443 
L 228.120243 263.449231 
L 228.317412 263.449231 
L 228.401358 261.881433 
L 228.483143 261.881433 
L 228.483143 261.358833 
L 228.606805 261.358833 
L 228.60708 260.313635 
L 228.887445 260.313635 
L 228.980243 259.268436 
L 229.145188 259.268436 
L 229.145188 258.745836 
L 229.323294 258.745836 
L 229.323294 258.223237 
L 229.467218 258.223237 
L 229.53145 256.655438 
L 229.618122 256.655438 
L 229.618122 256.132839 
L 229.749813 256.132839 
L 229.749813 255.610239 
L 229.895042 255.610239 
L 229.895042 255.08764 
L 230.13433 255.08764 
L 230.203272 253.519842 
L 230.310615 253.519842 
L 230.310615 252.997242 
L 230.641598 252.997242 
L 230.727233 251.429444 
L 231.18303 251.429444 
L 231.244256 249.861645 
L 231.531364 249.861645 
L 231.531364 249.339046 
L 231.697942 249.339046 
L 231.697942 248.816446 
L 231.858486 248.816446 
L 231.858486 248.293847 
L 231.984717 248.293847 
L 231.984717 247.771248 
L 232.135233 247.771248 
L 232.214756 246.726049 
L 232.389938 246.726049 
L 232.461672 245.68085 
L 232.560235 245.68085 
L 232.579603 244.635651 
L 232.68208 244.635651 
L 232.739329 243.067852 
L 232.973817 243.067852 
L 233.043283 242.022653 
L 233.12604 242.022653 
L 233.12604 241.500054 
L 233.265082 241.500054 
L 233.375378 238.887057 
L 233.388982 238.887057 
L 233.49118 237.841858 
L 233.527099 237.841858 
L 233.635437 235.75146 
L 233.728932 235.75146 
L 233.796179 233.661062 
L 233.888912 233.661062 
L 233.888912 233.138463 
L 234.205711 233.138463 
L 234.288088 232.093264 
L 234.517194 232.093264 
L 234.613774 230.525465 
L 234.628691 230.525465 
L 234.628691 230.002866 
L 234.808199 230.002866 
L 234.885039 228.435068 
L 234.97286 228.435068 
L 235.015339 226.867269 
L 235.117488 226.867269 
L 235.13623 225.299471 
L 235.247021 225.299471 
L 235.247021 224.776871 
L 235.517095 224.776871 
L 235.626943 223.731672 
L 235.73331 223.731672 
L 235.843972 222.163874 
L 236.356572 222.163874 
L 236.425633 221.118675 
L 236.623721 221.118675 
L 236.720014 220.073476 
L 236.903356 220.073476 
L 236.903356 219.550877 
L 237.261219 219.550877 
L 237.294569 218.505678 
L 237.749837 218.505678 
L 237.790944 217.460479 
L 237.938328 217.460479 
L 237.947792 216.41528 
L 238.115812 216.41528 
L 238.188625 214.324882 
L 238.239517 214.324882 
L 238.287147 212.757084 
L 238.521815 212.757084 
L 238.605651 211.711885 
L 238.71904 211.711885 
L 238.71904 211.189285 
L 238.839447 211.189285 
L 238.948592 209.098887 
L 239.073477 209.098887 
L 239.073477 208.576288 
L 239.18999 208.576288 
L 239.217452 207.00849 
L 239.303939 207.00849 
L 239.343085 205.440691 
L 239.65642 205.440691 
L 239.65642 204.918092 
L 239.811475 204.918092 
L 239.811475 204.395492 
L 240.096507 204.395492 
L 240.183744 203.350293 
L 240.341719 203.350293 
L 240.356652 202.305095 
L 240.468962 202.305095 
L 240.468962 201.782495 
L 240.619525 201.782495 
L 240.718618 200.214697 
L 240.822182 200.214697 
L 240.930735 198.646898 
L 240.958909 198.646898 
L 240.974701 197.601699 
L 241.175905 197.601699 
L 241.280924 195.511302 
L 241.356563 195.511302 
L 241.391387 194.466103 
L 241.570343 194.466103 
L 241.665374 193.420904 
L 241.706204 193.420904 
L 241.706204 192.898304 
L 241.869011 192.898304 
L 241.925017 191.853105 
L 242.040663 191.853105 
L 242.115669 190.807906 
L 242.169607 190.807906 
L 242.265208 189.240108 
L 242.509564 189.240108 
L 242.509564 188.717509 
L 242.702824 188.717509 
L 242.73467 187.67231 
L 242.873692 187.67231 
L 242.873692 187.14971 
L 242.995969 187.14971 
L 243.098895 185.059312 
L 243.129745 185.059312 
L 243.129745 184.536713 
L 243.382691 184.536713 
L 243.489286 182.968914 
L 243.500043 182.968914 
L 243.606659 181.401116 
L 243.723341 181.401116 
L 243.762132 179.310718 
L 243.888061 179.310718 
L 243.992398 178.265519 
L 244.026523 178.265519 
L 244.102527 177.22032 
L 244.151988 177.22032 
L 244.237444 175.652522 
L 244.777613 175.652522 
L 244.777613 175.129923 
L 244.94354 175.129923 
L 244.94354 174.607323 
L 245.127685 174.607323 
L 245.127685 174.084724 
L 245.26473 174.084724 
L 245.353266 173.039525 
L 245.686196 173.039525 
L 245.768176 170.949127 
L 245.827306 170.949127 
L 245.925191 169.381329 
L 245.956121 169.381329 
L 246.014899 168.33613 
L 246.30006 168.33613 
L 246.30006 167.81353 
L 246.449207 167.81353 
L 246.449207 167.290931 
L 246.587014 167.290931 
L 246.613253 166.245732 
L 246.897635 166.245732 
L 246.90782 165.200533 
L 247.144862 165.200533 
L 247.20258 164.155334 
L 247.404283 164.155334 
L 247.485174 162.587536 
L 247.799805 162.587536 
L 247.879509 161.542337 
L 248.243097 161.542337 
L 248.328489 159.451939 
L 248.446858 159.451939 
L 248.475293 158.40674 
L 248.649414 158.40674 
L 248.649414 157.88414 
L 249.150335 157.88414 
L 249.209284 156.838941 
L 249.44779 156.838941 
L 249.44779 156.316342 
L 249.771646 156.316342 
L 249.771646 155.793743 
L 249.970917 155.793743 
L 250.072948 154.225944 
L 250.100223 154.225944 
L 250.138076 153.180745 
L 250.292294 153.180745 
L 250.292294 152.658146 
L 250.471234 152.658146 
L 250.574804 150.567748 
L 250.605059 150.567748 
L 250.605059 150.045149 
L 250.970511 150.045149 
L 250.970511 149.522549 
L 251.109811 149.522549 
L 251.219761 148.47735 
L 251.388138 148.47735 
L 251.389775 147.432151 
L 251.580886 147.432151 
L 251.580886 146.909552 
L 251.899742 146.909552 
L 251.899742 146.386952 
L 252.04567 146.386952 
L 252.07594 145.341753 
L 252.1997 145.341753 
L 252.307179 143.773955 
L 252.66835 143.773955 
L 252.66835 143.251356 
L 252.78772 143.251356 
L 252.838966 142.206157 
L 252.938017 142.206157 
L 252.978389 141.160958 
L 253.213861 141.160958 
L 253.256611 140.115759 
L 253.37982 140.115759 
L 253.37982 139.593159 
L 253.604033 139.593159 
L 253.652651 138.025361 
L 253.718742 138.025361 
L 253.718742 137.502761 
L 253.925179 137.502761 
L 253.986835 136.457563 
L 254.108694 136.457563 
L 254.139304 135.412364 
L 254.237681 135.412364 
L 254.237681 134.889764 
L 254.406937 134.889764 
L 254.497251 133.844565 
L 254.606103 133.844565 
L 254.606103 133.321966 
L 254.761853 133.321966 
L 254.761853 132.799366 
L 254.974124 132.799366 
L 254.987704 131.754167 
L 255.156556 131.754167 
L 255.156556 131.231568 
L 255.342145 131.231568 
L 255.444487 129.66377 
L 255.892477 129.66377 
L 255.958134 128.095971 
L 256.108976 128.095971 
L 256.108976 127.573372 
L 256.550652 127.573372 
L 256.658193 126.528173 
L 256.828548 126.528173 
L 256.828548 126.005573 
L 257.047918 126.005573 
L 257.053834 124.960374 
L 257.350038 124.960374 
L 257.350038 124.437775 
L 257.471187 124.437775 
L 257.471187 123.915176 
L 257.620085 123.915176 
L 257.710796 122.869977 
L 257.923822 122.869977 
L 257.923822 122.347377 
L 258.13098 122.347377 
L 258.226718 120.256979 
L 258.25594 120.256979 
L 258.283924 118.689181 
L 258.71631 118.689181 
L 258.726274 117.121383 
L 258.869482 117.121383 
L 258.941378 116.076184 
L 259.023765 116.076184 
L 259.068729 115.030985 
L 259.726969 115.030985 
L 259.773217 113.985786 
L 260.129977 113.985786 
L 260.129977 113.463186 
L 261.315134 113.463186 
L 261.315134 112.940587 
L 261.584529 112.940587 
L 261.584529 112.417987 
L 261.719052 112.417987 
L 261.798082 111.372788 
L 261.930181 111.372788 
L 261.955383 110.32759 
L 262.333468 110.32759 
L 262.333468 109.80499 
L 262.937132 109.80499 
L 262.953483 108.759791 
L 263.108796 108.759791 
L 263.108796 108.237192 
L 263.254698 108.237192 
L 263.254698 107.714592 
L 263.717352 107.714592 
L 263.741565 106.669393 
L 264.086784 106.669393 
L 264.086784 106.146794 
L 264.376417 106.146794 
L 264.376417 105.624194 
L 264.489248 105.624194 
L 264.489248 105.101595 
L 264.629546 105.101595 
L 264.629546 104.578995 
L 264.784661 104.578995 
L 264.784661 104.056396 
L 265.297064 104.056396 
L 265.386366 102.488598 
L 265.455403 102.488598 
L 265.455403 101.965998 
L 265.579636 101.965998 
L 265.63796 100.3982 
L 265.807607 100.3982 
L 265.807607 99.8756 
L 266.188496 99.8756 
L 266.188496 99.353001 
L 266.355918 99.353001 
L 266.390153 98.307802 
L 266.888345 98.307802 
L 266.904958 97.262603 
L 267.152435 97.262603 
L 267.216978 96.217404 
L 267.29244 96.217404 
L 267.350435 95.172205 
L 267.632823 95.172205 
L 267.693089 94.127006 
L 267.825109 94.127006 
L 267.861557 93.081807 
L 268.028713 93.081807 
L 268.028713 92.559208 
L 268.185717 92.559208 
L 268.193044 91.514009 
L 268.311437 91.514009 
L 268.311437 90.99141 
L 268.614115 90.99141 
L 268.637386 89.946211 
L 268.777186 89.946211 
L 268.814173 88.901012 
L 269.245186 88.901012 
L 269.344497 86.810614 
L 269.500606 86.810614 
L 269.500606 86.288014 
L 270.080929 86.288014 
L 270.091104 85.242815 
L 270.254914 85.242815 
L 270.254914 84.720216 
L 270.371444 84.720216 
L 270.475305 83.675017 
L 270.564161 83.675017 
L 270.564161 83.152418 
L 270.692792 83.152418 
L 270.757513 82.107219 
L 270.933938 82.107219 
L 270.974225 81.06202 
L 271.088914 81.06202 
L 271.094814 80.016821 
L 271.20071 80.016821 
L 271.20071 79.494221 
L 271.329728 79.494221 
L 271.407021 77.926423 
L 271.550411 77.926423 
L 271.613195 76.881224 
L 271.89447 76.881224 
L 271.952482 75.313426 
L 272.181663 75.313426 
L 272.181663 74.790826 
L 272.433373 74.790826 
L 272.433373 74.268227 
L 272.827465 74.268227 
L 272.827465 73.745627 
L 273.070483 73.745627 
L 273.070483 73.223028 
L 273.209961 73.223028 
L 273.209961 72.700428 
L 273.353268 72.700428 
L 273.405014 71.65523 
L 273.608096 71.65523 
L 273.614429 70.610031 
L 273.768424 70.610031 
L 273.774458 69.564832 
L 274.536964 69.564832 
L 274.553837 68.519633 
L 274.662915 68.519633 
L 274.770116 65.906635 
L 274.798664 65.906635 
L 274.798664 65.384036 
L 275.099489 65.384036 
L 275.193644 64.338837 
L 275.385241 64.338837 
L 275.385241 63.816238 
L 275.712426 63.816238 
L 275.712426 63.293638 
L 275.852497 63.293638 
L 275.852497 62.771039 
L 276.415805 62.771039 
L 276.415805 62.248439 
L 276.874399 62.248439 
L 276.874399 61.72584 
L 277.068372 61.72584 
L 277.107912 60.158041 
L 277.206487 60.158041 
L 277.206487 59.635442 
L 277.340501 59.635442 
L 277.340501 59.112842 
L 277.520794 59.112842 
L 277.520794 58.590243 
L 277.730079 58.590243 
L 277.730079 58.067644 
L 278.031122 58.067644 
L 278.038871 57.022445 
L 278.223622 57.022445 
L 278.223622 56.499845 
L 278.345616 56.499845 
L 278.443134 55.454646 
L 278.699357 55.454646 
L 278.699357 54.932047 
L 278.836983 54.932047 
L 278.836983 54.409447 
L 278.991775 54.409447 
L 278.991775 53.886848 
L 279.423971 53.886848 
L 279.460271 52.841649 
L 279.598815 52.841649 
L 279.630896 51.79645 
L 280.132523 51.79645 
L 280.132523 51.273851 
L 280.314623 51.273851 
L 280.314623 50.751251 
L 280.464724 50.751251 
L 280.464724 50.228652 
L 280.584129 50.228652 
L 280.584129 49.706052 
L 280.952615 49.706052 
L 280.952615 49.183453 
L 281.940273 49.183453 
L 281.940273 48.660853 
L 282.216056 48.660853 
L 282.216056 48.138254 
L 282.359293 48.138254 
L 282.420163 47.093055 
L 282.756102 47.093055 
L 282.756102 46.570455 
L 283.293483 46.570455 
L 283.293483 46.047856 
L 284.090189 46.047856 
L 284.090189 45.525257 
L 284.307171 45.525257 
L 284.307171 45.002657 
L 284.877708 45.002657 
L 284.892894 43.957458 
L 285.45939 43.957458 
L 285.45939 43.434859 
L 285.784294 43.434859 
L 285.784294 42.912259 
L 286.158884 42.912259 
L 286.249936 41.86706 
L 286.360516 41.86706 
L 286.40778 40.299262 
L 286.483461 40.299262 
L 286.483461 39.776662 
L 286.718236 39.776662 
L 286.718236 39.254063 
L 287.084484 39.254063 
L 287.084484 38.731464 
L 287.348988 38.731464 
L 287.348988 38.208864 
L 287.970109 38.208864 
L 288.066688 36.641066 
L 288.254767 36.641066 
L 288.254767 36.118466 
L 288.85411 36.118466 
L 288.85411 35.595867 
L 289.233921 35.595867 
L 289.233921 35.073267 
L 290.34504 35.073267 
L 290.34504 34.550668 
L 290.693998 34.550668 
L 290.693998 34.028068 
L 291.02749 34.028068 
L 291.02749 33.505469 
L 292.623915 33.505469 
L 292.623915 32.982869 
L 292.991092 32.982869 
L 293.04777 31.937671 
L 293.405164 31.937671 
L 293.405164 31.415071 
L 294.082069 31.415071 
L 294.082069 30.892472 
L 294.246004 30.892472 
L 294.333314 29.847273 
L 295.097597 29.847273 
L 295.097597 29.324673 
L 295.47876 29.324673 
L 295.47876 28.802074 
L 295.720385 28.802074 
L 295.720385 28.279474 
L 296.213792 28.279474 
L 296.262144 27.234275 
L 296.787206 27.234275 
L 296.787206 26.711676 
L 297.005251 26.711676 
L 297.005251 26.189077 
L 297.311244 26.189077 
L 297.311244 25.666477 
L 297.859397 25.666477 
L 297.964134 24.621278 
L 298.137939 24.621278 
L 298.137939 24.098679 
L 298.979836 24.098679 
L 298.979836 23.576079 
L 299.110567 23.576079 
L 299.110567 23.05348 
L 299.442393 23.05348 
L 299.442393 22.53088 
L 300.608962 22.53088 
L 300.701007 21.485681 
L 301.258828 21.485681 
L 301.309787 20.440482 
L 301.903343 20.440482 
L 301.903343 19.917883 
L 302.118754 19.917883 
L 302.118754 19.395284 
L 302.444886 19.395284 
L 302.444886 18.872684 
L 304.23306 18.872684 
L 304.23306 18.350085 
L 304.570699 18.350085 
L 304.570699 17.827485 
L 305.643043 17.827485 
L 305.643043 17.304886 
L 306.455765 17.304886 
L 306.542303 16.259687 
L 306.715937 16.259687 
L 306.715937 15.737087 
L 307.496421 15.737087 
L 307.589899 14.691888 
L 307.635245 14.691888 
L 307.635245 14.169289 
L 307.847173 14.169289 
L 307.847173 13.646689 
L 308.158524 13.646689 
L 308.158524 13.12409 
L 311.012542 13.12409 
L 311.012542 12.601491 
L 312.392461 12.601491 
L 312.392461 12.078891 
L 312.538767 12.078891 
L 312.538767 11.556292 
L 313.627513 11.556292 
L 313.627513 11.033692 
L 313.774445 11.033692 
L 313.774445 10.511093 
L 314.67642 10.511093 
L 314.67642 9.988493 
L 315.26445 9.988493 
L 315.26445 9.465894 
L 320.336727 9.465894 
L 320.336727 8.943294 
L 322.20882 8.943294 
L 322.20882 8.420695 
L 329.129749 8.420695 
L 329.129749 7.898095 
L 330.312995 7.898095 
L 330.312995 7.375496 
L 330.852795 7.375496 
L 330.852795 6.852896 
L 331.507094 6.852896 
L 331.507094 6.330297 
L 331.507094 6.330297 
L 460.8 6.330297 
L 460.8 6.330297 
" style="fill:none;stroke:#ff0000;stroke-linecap:square;stroke-width:3;"/>
   </g>
   <g id="line2d_22">
    <path clip-path="url(#p96a6130a50)" d="M 212.204848 293.76 
L 212.204848 293.237401 
L 216.808728 293.237401 
L 216.808728 292.714801 
L 219.874566 292.714801 
L 219.874566 292.192202 
L 220.409729 292.192202 
L 220.409729 291.669602 
L 220.710529 291.669602 
L 220.710529 291.147003 
L 222.013559 291.147003 
L 222.013559 290.624403 
L 222.128988 290.624403 
L 222.128988 290.101804 
L 222.519689 290.101804 
L 222.519689 289.579204 
L 224.643057 289.579204 
L 224.643057 289.056605 
L 224.919934 289.056605 
L 224.919934 288.534005 
L 226.335005 288.534005 
L 226.335005 288.011406 
L 227.060177 288.011406 
L 227.060177 287.488806 
L 227.449302 287.488806 
L 227.449302 286.966207 
L 228.09378 286.966207 
L 228.09378 286.443608 
L 228.326176 286.443608 
L 228.326176 285.921008 
L 228.594964 285.921008 
L 228.606805 284.875809 
L 228.711875 284.875809 
L 228.711875 284.35321 
L 228.889871 284.35321 
L 228.889871 283.83061 
L 229.70049 283.83061 
L 229.70049 283.308011 
L 230.13433 283.308011 
L 230.13433 282.785411 
L 230.816718 282.785411 
L 230.816718 282.262812 
L 231.112149 282.262812 
L 231.171316 281.217613 
L 231.531364 281.217613 
L 231.531364 280.695014 
L 231.782716 280.695014 
L 231.782716 280.172414 
L 232.325211 280.172414 
L 232.325211 279.649815 
L 232.79041 279.649815 
L 232.889308 278.604616 
L 233.313605 278.604616 
L 233.373291 277.559417 
L 233.473881 277.559417 
L 233.564923 276.514218 
L 233.888912 276.514218 
L 233.888912 275.991618 
L 234.443631 275.991618 
L 234.443631 275.469019 
L 234.600058 275.469019 
L 234.600058 274.946419 
L 235.091051 274.946419 
L 235.13623 273.901221 
L 235.309573 273.901221 
L 235.309573 273.378621 
L 235.951526 273.378621 
L 235.951526 272.856022 
L 236.594953 272.856022 
L 236.594953 272.333422 
L 237.034447 272.333422 
L 237.104863 271.288223 
L 237.675426 271.288223 
L 237.675426 270.765624 
L 238.258649 270.765624 
L 238.290127 269.720425 
L 238.881457 269.720425 
L 238.881457 269.197825 
L 239.070805 269.197825 
L 239.089022 268.152626 
L 239.230521 268.152626 
L 239.230521 267.630027 
L 239.343085 267.630027 
L 239.419354 266.584828 
L 239.488705 266.584828 
L 239.488705 266.062229 
L 239.833701 266.062229 
L 239.833701 265.539629 
L 240.007654 265.539629 
L 240.007654 265.01703 
L 240.417824 265.01703 
L 240.417824 264.49443 
L 240.530791 264.49443 
L 240.530791 263.971831 
L 240.697313 263.971831 
L 240.718618 262.926632 
L 240.932924 262.926632 
L 241.024284 261.881433 
L 241.143793 261.881433 
L 241.253189 260.313635 
L 241.351041 260.313635 
L 241.3558 259.268436 
L 241.494218 259.268436 
L 241.494218 258.745836 
L 241.894275 258.745836 
L 241.993698 257.700637 
L 242.234592 257.700637 
L 242.234592 257.178038 
L 242.445784 257.178038 
L 242.510245 256.132839 
L 242.579587 256.132839 
L 242.579587 255.610239 
L 242.699835 255.610239 
L 242.699835 255.08764 
L 242.969217 255.08764 
L 242.969217 254.565041 
L 243.084994 254.565041 
L 243.145289 253.519842 
L 243.236482 253.519842 
L 243.290389 252.474643 
L 243.355113 252.474643 
L 243.458137 250.906844 
L 243.507251 250.906844 
L 243.574728 249.861645 
L 243.762132 249.861645 
L 243.762132 249.339046 
L 243.888061 249.339046 
L 243.925116 248.293847 
L 244.223434 248.293847 
L 244.306272 247.248648 
L 244.380602 247.248648 
L 244.47535 245.68085 
L 244.51143 245.68085 
L 244.568579 244.113051 
L 244.629761 244.113051 
L 244.700264 242.022653 
L 245.007155 242.022653 
L 245.102837 239.932256 
L 245.245166 239.932256 
L 245.245166 239.409656 
L 245.591539 239.409656 
L 245.591539 238.887057 
L 245.76665 238.887057 
L 245.768176 237.841858 
L 245.941653 237.841858 
L 246.011162 236.796659 
L 246.387817 236.796659 
L 246.439106 235.22886 
L 246.587014 235.22886 
L 246.6829 234.183662 
L 246.876601 234.183662 
L 246.918001 232.615863 
L 247.257906 232.615863 
L 247.257906 232.093264 
L 247.404283 232.093264 
L 247.404283 231.570664 
L 247.611477 231.570664 
L 247.722292 230.525465 
L 247.725761 230.525465 
L 247.725761 230.002866 
L 247.87717 230.002866 
L 247.879509 228.957667 
L 247.998113 228.957667 
L 247.998113 228.435068 
L 248.249107 228.435068 
L 248.272446 227.389869 
L 248.495546 227.389869 
L 248.604748 225.82207 
L 248.742383 225.82207 
L 248.742383 225.299471 
L 249.209284 225.299471 
L 249.235637 224.254272 
L 249.457317 224.254272 
L 249.551111 222.686473 
L 249.581207 222.686473 
L 249.673223 221.118675 
L 249.853434 221.118675 
L 249.886327 220.073476 
L 249.986986 220.073476 
L 249.986986 219.550877 
L 250.100223 219.550877 
L 250.20174 217.460479 
L 250.471234 217.460479 
L 250.545768 216.41528 
L 250.615229 216.41528 
L 250.633127 215.370081 
L 251.063711 215.370081 
L 251.109811 214.324882 
L 251.205088 214.324882 
L 251.231907 213.279683 
L 251.346084 213.279683 
L 251.346084 212.757084 
L 251.670357 212.757084 
L 251.681903 211.711885 
L 251.84513 211.711885 
L 251.84513 211.189285 
L 252.00043 211.189285 
L 252.007058 210.144086 
L 252.245472 210.144086 
L 252.302709 209.098887 
L 252.699574 209.098887 
L 252.699574 208.576288 
L 253.087186 208.576288 
L 253.118509 207.531089 
L 253.213861 207.531089 
L 253.213861 207.00849 
L 253.382356 207.00849 
L 253.467761 205.440691 
L 253.544328 205.440691 
L 253.646871 203.872893 
L 254.238308 203.872893 
L 254.238308 203.350293 
L 254.428068 203.350293 
L 254.535729 201.782495 
L 254.585335 201.782495 
L 254.585335 201.259896 
L 254.719522 201.259896 
L 254.719522 200.737296 
L 254.890827 200.737296 
L 254.890827 200.214697 
L 255.277213 200.214697 
L 255.364876 198.124299 
L 255.433451 198.124299 
L 255.433451 197.601699 
L 255.618506 197.601699 
L 255.690739 196.5565 
L 255.818299 196.5565 
L 255.847938 195.511302 
L 256.155471 195.511302 
L 256.171041 194.466103 
L 256.571719 194.466103 
L 256.658193 193.420904 
L 256.828548 193.420904 
L 256.828548 192.898304 
L 257.164551 192.898304 
L 257.164551 192.375705 
L 257.350038 192.375705 
L 257.433198 191.330506 
L 257.471187 191.330506 
L 257.490786 190.285307 
L 257.826603 190.285307 
L 257.826603 189.762707 
L 258.086984 189.762707 
L 258.086984 189.240108 
L 258.210483 189.240108 
L 258.283924 188.194909 
L 258.648539 188.194909 
L 258.648539 187.67231 
L 258.760986 187.67231 
L 258.773542 186.627111 
L 259.087447 186.627111 
L 259.166557 185.581912 
L 259.283794 185.581912 
L 259.333134 184.536713 
L 259.718674 184.536713 
L 259.820876 182.968914 
L 260.453962 182.968914 
L 260.453962 182.446315 
L 260.767954 182.446315 
L 260.767954 181.923716 
L 261.06385 181.923716 
L 261.06385 181.401116 
L 261.227139 181.401116 
L 261.315134 180.355917 
L 261.955383 180.355917 
L 261.955383 179.833318 
L 262.326743 179.833318 
L 262.398889 178.265519 
L 262.626896 178.265519 
L 262.626896 177.74292 
L 262.834669 177.74292 
L 262.834669 177.22032 
L 263.075809 177.22032 
L 263.163668 175.129923 
L 263.324877 175.129923 
L 263.324877 174.607323 
L 263.536539 174.607323 
L 263.643973 173.039525 
L 263.65603 173.039525 
L 263.694167 171.994326 
L 264.029075 171.994326 
L 264.029075 171.471726 
L 264.24409 171.471726 
L 264.24409 170.949127 
L 264.415865 170.949127 
L 264.424733 169.903928 
L 264.590202 169.903928 
L 264.590202 169.381329 
L 264.73921 169.381329 
L 264.73921 168.858729 
L 265.083264 168.858729 
L 265.181263 167.81353 
L 265.386366 167.81353 
L 265.386366 167.290931 
L 265.807607 167.290931 
L 265.83201 166.245732 
L 266.076444 166.245732 
L 266.076444 165.723132 
L 266.216608 165.723132 
L 266.216608 165.200533 
L 266.548181 165.200533 
L 266.548181 164.677933 
L 266.661403 164.677933 
L 266.765795 163.110135 
L 266.888345 163.110135 
L 266.888345 162.587536 
L 267.37116 162.587536 
L 267.454106 161.019737 
L 267.527517 161.019737 
L 267.527517 160.497138 
L 267.671526 160.497138 
L 267.772614 159.451939 
L 267.891192 159.451939 
L 267.964811 158.40674 
L 268.192435 158.40674 
L 268.192435 157.88414 
L 268.356647 157.88414 
L 268.356647 157.361541 
L 269.289797 157.361541 
L 269.289797 156.838941 
L 269.908982 156.838941 
L 269.908982 156.316342 
L 270.084109 156.316342 
L 270.084109 155.793743 
L 270.552131 155.793743 
L 270.552131 155.271143 
L 270.757513 155.271143 
L 270.757513 154.748544 
L 270.933938 154.748544 
L 270.933938 154.225944 
L 271.18694 154.225944 
L 271.18694 153.703345 
L 271.329728 153.703345 
L 271.329728 153.180745 
L 271.593557 153.180745 
L 271.593557 152.658146 
L 271.861329 152.658146 
L 271.89447 151.612947 
L 272.149429 151.612947 
L 272.225788 150.045149 
L 272.306076 150.045149 
L 272.306076 149.522549 
L 272.433373 149.522549 
L 272.433373 148.99995 
L 273.0856 148.99995 
L 273.0856 148.47735 
L 273.307282 148.47735 
L 273.307282 147.954751 
L 273.460721 147.954751 
L 273.460721 147.432151 
L 273.774458 147.432151 
L 273.774458 146.909552 
L 274.412913 146.909552 
L 274.444481 145.864353 
L 274.560712 145.864353 
L 274.560712 145.341753 
L 274.798664 145.341753 
L 274.847023 144.296554 
L 274.968269 144.296554 
L 275.031209 142.728756 
L 275.09731 142.728756 
L 275.09731 142.206157 
L 275.385241 142.206157 
L 275.385241 141.683557 
L 275.532879 141.683557 
L 275.532879 141.160958 
L 276.313288 141.160958 
L 276.313288 140.638358 
L 276.492987 140.638358 
L 276.554644 139.593159 
L 277.211556 139.593159 
L 277.226803 138.54796 
L 277.330754 138.54796 
L 277.330754 138.025361 
L 277.651136 138.025361 
L 277.735501 136.457563 
L 278.162698 136.457563 
L 278.178512 135.412364 
L 278.55346 135.412364 
L 278.55346 134.889764 
L 278.735317 134.889764 
L 278.798068 133.321966 
L 279.007191 133.321966 
L 279.102314 131.754167 
L 279.182791 131.754167 
L 279.187376 130.708968 
L 279.648707 130.708968 
L 279.752562 129.66377 
L 279.83373 129.66377 
L 279.83373 129.14117 
L 280.058962 129.14117 
L 280.058962 128.618571 
L 280.29801 128.618571 
L 280.29801 128.095971 
L 280.514665 128.095971 
L 280.584129 127.050772 
L 280.900113 127.050772 
L 280.962587 125.482974 
L 281.111211 125.482974 
L 281.111211 124.960374 
L 281.428623 124.960374 
L 281.498923 122.869977 
L 281.557972 122.869977 
L 281.659892 121.824778 
L 282.03654 121.824778 
L 282.135455 120.256979 
L 282.63156 120.256979 
L 282.63156 119.73438 
L 282.756102 119.73438 
L 282.756102 119.21178 
L 283.005051 119.21178 
L 283.005051 118.689181 
L 283.341199 118.689181 
L 283.40499 117.121383 
L 283.817055 117.121383 
L 283.817055 116.598783 
L 284.228689 116.598783 
L 284.316968 115.553584 
L 284.356285 115.553584 
L 284.398693 114.508385 
L 284.76942 114.508385 
L 284.879729 112.940587 
L 285.354792 112.940587 
L 285.408104 111.895388 
L 286.158884 111.895388 
L 286.158884 111.372788 
L 286.299007 111.372788 
L 286.40778 110.32759 
L 286.562169 110.32759 
L 286.653965 108.237192 
L 286.718236 108.237192 
L 286.718236 107.714592 
L 286.836564 107.714592 
L 286.910684 106.669393 
L 287.18486 106.669393 
L 287.18486 106.146794 
L 287.407729 106.146794 
L 287.407729 105.624194 
L 287.952039 105.624194 
L 287.952039 105.101595 
L 288.134532 105.101595 
L 288.190006 104.056396 
L 288.397296 104.056396 
L 288.397296 103.533797 
L 288.630418 103.533797 
L 288.630418 103.011197 
L 288.929294 103.011197 
L 288.929294 102.488598 
L 289.058022 102.488598 
L 289.058022 101.965998 
L 289.89617 101.965998 
L 289.89617 101.443399 
L 290.33697 101.443399 
L 290.410561 99.353001 
L 290.823528 99.353001 
L 290.878752 98.307802 
L 291.755225 98.307802 
L 291.755225 97.785203 
L 291.921742 97.785203 
L 292.016478 96.217404 
L 292.678419 96.217404 
L 292.678419 95.694805 
L 292.80328 95.694805 
L 292.80328 95.172205 
L 293.288254 95.172205 
L 293.288254 94.649606 
L 293.741662 94.649606 
L 293.741662 94.127006 
L 293.950499 94.127006 
L 294.03255 93.081807 
L 294.333314 93.081807 
L 294.373595 92.036608 
L 294.551415 92.036608 
L 294.551415 91.514009 
L 294.88806 91.514009 
L 294.88806 90.99141 
L 295.270149 90.99141 
L 295.270149 90.46881 
L 295.431066 90.46881 
L 295.494386 88.901012 
L 295.766552 88.901012 
L 295.766552 88.378412 
L 296.787206 88.378412 
L 296.787206 87.855813 
L 296.90637 87.855813 
L 296.90637 87.333213 
L 297.168599 87.333213 
L 297.168599 86.810614 
L 297.463809 86.810614 
L 297.463809 86.288014 
L 297.704737 86.288014 
L 297.800723 85.242815 
L 298.19537 85.242815 
L 298.27582 84.197617 
L 298.521527 84.197617 
L 298.521527 83.675017 
L 298.663963 83.675017 
L 298.760403 82.629818 
L 300.214406 82.629818 
L 300.214406 82.107219 
L 300.722721 82.107219 
L 300.725009 81.06202 
L 300.885122 81.06202 
L 300.885122 80.53942 
L 301.101519 80.53942 
L 301.101519 80.016821 
L 301.258828 80.016821 
L 301.258828 79.494221 
L 301.900492 79.494221 
L 301.900492 78.971622 
L 302.070883 78.971622 
L 302.070883 78.449023 
L 302.433095 78.449023 
L 302.433095 77.926423 
L 302.82772 77.926423 
L 302.82772 77.403824 
L 302.98186 77.403824 
L 302.98186 76.881224 
L 303.35785 76.881224 
L 303.35785 76.358625 
L 303.871135 76.358625 
L 303.871135 75.836025 
L 304.045336 75.836025 
L 304.045336 75.313426 
L 305.08354 75.313426 
L 305.08354 74.790826 
L 305.396324 74.790826 
L 305.396324 74.268227 
L 305.507626 74.268227 
L 305.551132 73.223028 
L 305.643043 73.223028 
L 305.650556 72.177829 
L 306.077104 72.177829 
L 306.077104 71.65523 
L 306.450377 71.65523 
L 306.450377 71.13263 
L 306.690871 71.13263 
L 306.690871 70.610031 
L 306.932903 70.610031 
L 306.932903 70.087431 
L 307.589899 70.087431 
L 307.589899 69.564832 
L 307.720449 69.564832 
L 307.720449 69.042232 
L 307.9891 69.042232 
L 308.057002 67.997033 
L 308.395757 67.997033 
L 308.395757 67.474434 
L 308.919366 67.474434 
L 308.919366 66.951834 
L 309.226355 66.951834 
L 309.296356 65.906635 
L 309.612538 65.906635 
L 309.612538 65.384036 
L 310.04539 65.384036 
L 310.122492 64.338837 
L 310.870793 64.338837 
L 310.973 62.248439 
L 311.012542 62.248439 
L 311.048837 61.20324 
L 311.501136 61.20324 
L 311.501136 60.680641 
L 311.677895 60.680641 
L 311.724344 59.635442 
L 312.162541 59.635442 
L 312.162541 59.112842 
L 312.538767 59.112842 
L 312.583251 58.067644 
L 312.772705 58.067644 
L 312.772705 57.545044 
L 312.955395 57.545044 
L 312.955395 57.022445 
L 313.923367 57.022445 
L 313.923367 56.499845 
L 314.172464 56.499845 
L 314.227391 54.932047 
L 314.714957 54.932047 
L 314.714957 54.409447 
L 315.076258 54.409447 
L 315.076258 53.886848 
L 315.26445 53.886848 
L 315.368363 52.841649 
L 316.486141 52.841649 
L 316.486141 52.31905 
L 317.232631 52.31905 
L 317.232631 51.79645 
L 317.452857 51.79645 
L 317.452857 51.273851 
L 317.574585 51.273851 
L 317.628471 50.228652 
L 318.640154 50.228652 
L 318.684892 49.183453 
L 319.171825 49.183453 
L 319.171825 48.660853 
L 319.843654 48.660853 
L 319.843654 48.138254 
L 320.560522 48.138254 
L 320.560522 47.615654 
L 320.877289 47.615654 
L 320.877289 47.093055 
L 321.130185 47.093055 
L 321.130185 46.570455 
L 322.20882 46.570455 
L 322.20882 46.047856 
L 322.432939 46.047856 
L 322.537181 44.480058 
L 323.026362 44.480058 
L 323.026362 43.957458 
L 323.298719 43.957458 
L 323.298719 43.434859 
L 323.445941 43.434859 
L 323.445941 42.912259 
L 323.768465 42.912259 
L 323.768465 42.38966 
L 325.115414 42.38966 
L 325.184234 41.344461 
L 325.476224 41.344461 
L 325.476224 40.821861 
L 326.653741 40.821861 
L 326.653741 40.299262 
L 328.644643 40.299262 
L 328.644643 39.776662 
L 328.765365 39.776662 
L 328.84138 38.731464 
L 329.269722 38.731464 
L 329.269722 38.208864 
L 329.772744 38.208864 
L 329.772744 37.686265 
L 330.730419 37.686265 
L 330.829469 36.641066 
L 331.01449 36.641066 
L 331.01449 36.118466 
L 331.168892 36.118466 
L 331.168892 35.595867 
L 331.294662 35.595867 
L 331.294662 35.073267 
L 331.987274 35.073267 
L 331.987274 34.550668 
L 334.015402 34.550668 
L 334.015402 34.028068 
L 334.2051 34.028068 
L 334.2051 33.505469 
L 334.805706 33.505469 
L 334.805706 32.982869 
L 335.347226 32.982869 
L 335.347226 32.46027 
L 335.8694 32.46027 
L 335.923098 31.415071 
L 336.067331 31.415071 
L 336.067331 30.892472 
L 336.408942 30.892472 
L 336.408942 30.369872 
L 336.826506 30.369872 
L 336.826506 29.847273 
L 338.230767 29.847273 
L 338.230767 29.324673 
L 338.869716 29.324673 
L 338.869716 28.802074 
L 339.522938 28.802074 
L 339.522938 28.279474 
L 340.769089 28.279474 
L 340.769089 27.756875 
L 342.179494 27.756875 
L 342.179494 27.234275 
L 343.454699 27.234275 
L 343.454699 26.711676 
L 343.990886 26.711676 
L 343.990886 26.189077 
L 344.473503 26.189077 
L 344.473503 25.666477 
L 344.68347 25.666477 
L 344.68347 25.143878 
L 344.991073 25.143878 
L 344.991073 24.621278 
L 345.265081 24.621278 
L 345.265081 24.098679 
L 345.965738 24.098679 
L 346.062923 22.53088 
L 346.26137 22.53088 
L 346.372194 21.485681 
L 346.908893 21.485681 
L 346.908893 20.963082 
L 348.581022 20.963082 
L 348.581022 20.440482 
L 352.837394 20.440482 
L 352.837394 19.917883 
L 356.220579 19.917883 
L 356.220579 19.395284 
L 359.37643 19.395284 
L 359.37643 18.872684 
L 360.112616 18.872684 
L 360.112616 18.350085 
L 361.306158 18.350085 
L 361.306158 17.827485 
L 363.735513 17.827485 
L 363.735513 17.304886 
L 364.924579 17.304886 
L 364.924579 16.782286 
L 365.049029 16.782286 
L 365.049029 16.259687 
L 366.102914 16.259687 
L 366.102914 15.737087 
L 366.929539 15.737087 
L 366.929539 15.214488 
L 370.155546 15.214488 
L 370.155546 14.691888 
L 374.839982 14.691888 
L 374.839982 14.169289 
L 376.56408 14.169289 
L 376.56408 13.646689 
L 376.776739 13.646689 
L 376.776739 13.12409 
L 379.478873 13.12409 
L 379.478873 12.601491 
L 379.864724 12.601491 
L 379.864724 12.078891 
L 381.579684 12.078891 
L 381.579684 11.556292 
L 395.17373 11.556292 
L 395.17373 11.033692 
L 400.750058 11.033692 
L 400.750058 10.511093 
L 409.371666 10.511093 
L 409.371666 9.988493 
L 413.440338 9.988493 
L 413.440338 9.465894 
L 423.251026 9.465894 
L 423.251026 8.943294 
L 427.027376 8.943294 
L 427.093071 7.898095 
L 431.364381 7.898095 
L 431.364381 7.375496 
L 443.405557 7.375496 
L 443.405557 6.852896 
L 447.752612 6.852896 
L 447.752612 6.330297 
L 447.752612 6.330297 
L 460.8 6.330297 
L 460.8 6.330297 
" style="fill:none;stroke:#00bfbf;stroke-linecap:square;stroke-width:1.5;"/>
   </g>
   <g id="line2d_23">
    <path clip-path="url(#p96a6130a50)" d="M 206.388184 293.76 
L 206.388184 293.237401 
L 208.602288 293.237401 
L 208.602288 292.714801 
L 209.522433 292.714801 
L 209.522433 292.192202 
L 209.954669 292.192202 
L 209.954669 291.669602 
L 210.442424 291.669602 
L 210.442424 291.147003 
L 212.204848 291.147003 
L 212.204848 290.624403 
L 214.420759 290.624403 
L 214.420759 290.101804 
L 214.693447 290.101804 
L 214.693447 289.579204 
L 215.077765 289.579204 
L 215.077765 289.056605 
L 215.590953 289.056605 
L 215.590953 288.534005 
L 216.122095 288.534005 
L 216.122095 288.011406 
L 216.788908 288.011406 
L 216.788908 287.488806 
L 217.291368 287.488806 
L 217.291368 286.966207 
L 218.184082 286.966207 
L 218.184082 286.443608 
L 218.403991 286.443608 
L 218.403991 285.921008 
L 218.89892 285.921008 
L 218.89892 285.398409 
L 219.575947 285.398409 
L 219.575947 284.875809 
L 219.874566 284.875809 
L 219.874566 284.35321 
L 220.641045 284.35321 
L 220.641045 283.83061 
L 221.637444 283.83061 
L 221.637444 283.308011 
L 221.768971 283.308011 
L 221.768971 282.785411 
L 222.013559 282.785411 
L 222.013559 282.262812 
L 222.128988 282.262812 
L 222.128988 281.740212 
L 222.957 281.740212 
L 222.957 281.217613 
L 223.954942 281.217613 
L 224.046597 280.172414 
L 224.283176 280.172414 
L 224.283176 279.649815 
L 224.643057 279.649815 
L 224.643057 279.127215 
L 224.897278 279.127215 
L 224.897278 278.604616 
L 225.450673 278.604616 
L 225.450673 278.082016 
L 225.745258 278.082016 
L 225.745258 277.559417 
L 226.187848 277.559417 
L 226.187848 277.036817 
L 226.320008 277.036817 
L 226.320008 276.514218 
L 227.060177 276.514218 
L 227.060177 275.991618 
L 227.440377 275.991618 
L 227.45668 274.946419 
L 228.120243 274.946419 
L 228.120243 274.42382 
L 228.606805 274.42382 
L 228.60708 273.378621 
L 228.980243 273.378621 
L 228.991498 272.333422 
L 229.323294 272.333422 
L 229.328157 271.288223 
L 229.467218 271.288223 
L 229.467218 270.765624 
L 229.618122 270.765624 
L 229.618122 270.243024 
L 229.749813 270.243024 
L 229.749813 269.720425 
L 229.895042 269.720425 
L 229.895042 269.197825 
L 230.13433 269.197825 
L 230.149565 268.152626 
L 230.727233 268.152626 
L 230.727233 267.630027 
L 230.913084 267.630027 
L 230.913084 267.107428 
L 231.171316 267.107428 
L 231.244256 266.062229 
L 231.531364 266.062229 
L 231.531364 265.539629 
L 231.697942 265.539629 
L 231.697942 265.01703 
L 231.858486 265.01703 
L 231.918416 263.971831 
L 232.135233 263.971831 
L 232.214756 262.404032 
L 232.389938 262.404032 
L 232.461672 261.358833 
L 232.579603 261.358833 
L 232.672067 260.313635 
L 232.709351 260.313635 
L 232.709351 259.791035 
L 232.973817 259.791035 
L 232.973817 259.268436 
L 233.12604 259.268436 
L 233.12604 258.745836 
L 233.265082 258.745836 
L 233.375378 256.655438 
L 233.561046 256.655438 
L 233.635437 254.565041 
L 233.730991 254.565041 
L 233.796179 252.997242 
L 233.888912 252.997242 
L 233.888912 252.474643 
L 234.205711 252.474643 
L 234.205711 251.952043 
L 234.462207 251.952043 
L 234.565325 250.906844 
L 234.600058 250.906844 
L 234.628691 249.861645 
L 234.860284 249.861645 
L 234.860284 249.339046 
L 235.117973 249.339046 
L 235.13623 248.293847 
L 235.247021 248.293847 
L 235.247021 247.771248 
L 235.378052 247.771248 
L 235.378052 247.248648 
L 235.780159 247.248648 
L 235.843972 246.203449 
L 236.402974 246.203449 
L 236.509622 243.590452 
L 236.623721 243.590452 
L 236.731122 242.022653 
L 237.034447 242.022653 
L 237.05898 240.977455 
L 237.591629 240.977455 
L 237.592956 239.932256 
L 237.790944 239.932256 
L 237.790944 239.409656 
L 237.947792 239.409656 
L 237.947792 238.887057 
L 238.179789 238.887057 
L 238.179789 238.364457 
L 238.339246 238.364457 
L 238.421037 237.319258 
L 238.521815 237.319258 
L 238.568441 236.274059 
L 238.71904 236.274059 
L 238.804207 234.706261 
L 238.839447 234.706261 
L 238.922228 232.615863 
L 239.077791 232.615863 
L 239.089022 231.570664 
L 239.18999 231.570664 
L 239.217452 230.525465 
L 239.330878 230.525465 
L 239.422937 228.435068 
L 239.522785 228.435068 
L 239.522785 227.912468 
L 239.811475 227.912468 
L 239.811475 227.389869 
L 240.058082 227.389869 
L 240.058082 226.867269 
L 240.220878 226.867269 
L 240.220878 226.34467 
L 240.356652 226.34467 
L 240.417824 225.299471 
L 240.468962 225.299471 
L 240.530791 224.254272 
L 240.663872 224.254272 
L 240.718618 223.209073 
L 240.822182 223.209073 
L 240.932924 220.596076 
L 240.974701 220.596076 
L 240.975754 219.550877 
L 241.099947 219.550877 
L 241.099947 219.028277 
L 241.25677 219.028277 
L 241.280924 217.460479 
L 241.391387 217.460479 
L 241.391387 216.937879 
L 241.570343 216.937879 
L 241.665374 215.370081 
L 241.706204 215.370081 
L 241.706204 214.847482 
L 241.869011 214.847482 
L 241.869011 214.324882 
L 241.993698 214.324882 
L 242.09994 213.279683 
L 242.106796 213.279683 
L 242.197021 211.711885 
L 242.614968 211.711885 
L 242.614968 211.189285 
L 242.73467 211.189285 
L 242.73467 210.666686 
L 243.018339 210.666686 
L 243.098895 209.098887 
L 243.129745 209.098887 
L 243.156519 208.053689 
L 243.241994 208.053689 
L 243.241994 207.531089 
L 243.355113 207.531089 
L 243.425043 205.963291 
L 243.500043 205.963291 
L 243.507251 204.918092 
L 243.733504 204.918092 
L 243.78079 203.350293 
L 243.857962 203.350293 
L 243.888061 202.305095 
L 243.992398 202.305095 
L 244.102527 201.259896 
L 244.151988 201.259896 
L 244.237444 200.214697 
L 244.346242 200.214697 
L 244.346242 199.692097 
L 244.510556 199.692097 
L 244.590126 198.646898 
L 244.630513 198.646898 
L 244.630513 198.124299 
L 244.777613 198.124299 
L 244.803042 197.0791 
L 244.94354 197.0791 
L 244.967752 196.033901 
L 245.118733 196.033901 
L 245.136823 194.466103 
L 245.353266 194.466103 
L 245.353266 193.943503 
L 245.736358 193.943503 
L 245.768176 192.375705 
L 245.873346 192.375705 
L 245.956121 190.807906 
L 246.587014 190.807906 
L 246.694444 189.762707 
L 246.808061 189.762707 
L 246.897635 188.717509 
L 246.95878 188.717509 
L 246.95878 188.194909 
L 247.180658 188.194909 
L 247.20258 187.14971 
L 247.404283 187.14971 
L 247.487591 185.581912 
L 247.611477 185.581912 
L 247.611477 185.059312 
L 247.879509 185.059312 
L 247.879509 184.536713 
L 248.07566 184.536713 
L 248.07566 184.014113 
L 248.328489 184.014113 
L 248.328489 183.491514 
L 248.444148 183.491514 
L 248.530208 182.446315 
L 248.556874 182.446315 
L 248.649414 181.401116 
L 249.064594 181.401116 
L 249.150335 180.355917 
L 249.209284 180.355917 
L 249.209284 179.833318 
L 249.44779 179.833318 
L 249.44779 179.310718 
L 249.886327 179.310718 
L 249.970917 178.265519 
L 250.072948 178.265519 
L 250.157661 176.175122 
L 250.292294 176.175122 
L 250.363715 174.084724 
L 250.471234 174.084724 
L 250.574804 172.516925 
L 250.67917 172.516925 
L 250.67917 171.994326 
L 250.816964 171.994326 
L 250.885171 170.949127 
L 250.970511 170.949127 
L 250.970511 170.426527 
L 251.085624 170.426527 
L 251.185805 168.858729 
L 251.219761 168.858729 
L 251.219761 168.33613 
L 251.388138 168.33613 
L 251.426955 167.290931 
L 251.580886 167.290931 
L 251.580886 166.768331 
L 251.770699 166.768331 
L 251.85257 165.723132 
L 251.899742 165.723132 
L 251.899742 165.200533 
L 252.04567 165.200533 
L 252.07594 164.155334 
L 252.194293 164.155334 
L 252.1997 163.110135 
L 252.35456 163.110135 
L 252.35456 162.587536 
L 252.68667 162.587536 
L 252.68667 162.064936 
L 252.988852 162.064936 
L 252.988852 161.542337 
L 253.213861 161.542337 
L 253.256611 160.497138 
L 253.467761 160.497138 
L 253.508119 159.451939 
L 253.646871 159.451939 
L 253.652651 158.40674 
L 253.925179 158.40674 
L 253.986835 157.361541 
L 254.428068 157.361541 
L 254.535729 155.271143 
L 254.606103 155.271143 
L 254.606103 154.748544 
L 255.01868 154.748544 
L 255.01868 154.225944 
L 255.342145 154.225944 
L 255.444487 152.658146 
L 255.461753 152.658146 
L 255.461753 152.135546 
L 255.892477 152.135546 
L 255.958134 150.045149 
L 256.108976 150.045149 
L 256.155471 148.99995 
L 256.399939 148.99995 
L 256.399939 148.47735 
L 256.658193 148.47735 
L 256.764543 147.432151 
L 256.828548 147.432151 
L 256.828548 146.909552 
L 257.350038 146.909552 
L 257.350038 146.386952 
L 257.471187 146.386952 
L 257.503714 145.341753 
L 257.644226 145.341753 
L 257.644226 144.819154 
L 257.826603 144.819154 
L 257.923822 143.251356 
L 258.13098 143.251356 
L 258.179406 142.206157 
L 258.283924 142.206157 
L 258.283924 141.683557 
L 258.620783 141.683557 
L 258.726274 140.115759 
L 258.810695 140.115759 
L 258.869482 138.54796 
L 259.023765 138.54796 
L 259.114163 136.980162 
L 259.322011 136.980162 
L 259.333134 135.934963 
L 259.598607 135.934963 
L 259.598607 135.412364 
L 259.8385 135.412364 
L 259.91076 134.367165 
L 260.656342 134.367165 
L 260.656342 133.844565 
L 261.06385 133.844565 
L 261.06385 133.321966 
L 261.186931 133.321966 
L 261.284183 132.276767 
L 261.308792 132.276767 
L 261.315134 131.231568 
L 261.469363 131.231568 
L 261.469363 130.708968 
L 261.764181 130.708968 
L 261.764181 130.186369 
L 261.930181 130.186369 
L 261.955383 129.14117 
L 262.149689 129.14117 
L 262.149689 128.618571 
L 262.326743 128.618571 
L 262.348746 127.573372 
L 262.852217 127.573372 
L 262.953483 125.482974 
L 263.307471 125.482974 
L 263.410282 123.915176 
L 263.451615 123.915176 
L 263.468565 122.869977 
L 263.694167 122.869977 
L 263.694167 122.347377 
L 263.851737 122.347377 
L 263.851737 121.824778 
L 264.086784 121.824778 
L 264.086784 121.302178 
L 264.489248 121.302178 
L 264.489248 120.779579 
L 264.602426 120.779579 
L 264.629546 119.73438 
L 264.900033 119.73438 
L 264.911681 118.689181 
L 265.016757 118.689181 
L 265.073847 117.643982 
L 265.152857 117.643982 
L 265.152857 117.121383 
L 265.386366 117.121383 
L 265.386366 116.598783 
L 265.579636 116.598783 
L 265.63796 115.553584 
L 265.723891 115.553584 
L 265.83201 113.985786 
L 265.903129 113.985786 
L 265.903129 113.463186 
L 266.023186 113.463186 
L 266.023186 112.940587 
L 266.188496 112.940587 
L 266.188496 112.417987 
L 266.318636 112.417987 
L 266.318636 111.895388 
L 266.692708 111.895388 
L 266.692708 111.372788 
L 266.84313 111.372788 
L 266.904958 109.80499 
L 267.152435 109.80499 
L 267.152435 109.282391 
L 267.513256 109.282391 
L 267.513256 108.759791 
L 267.632823 108.759791 
L 267.693089 107.714592 
L 267.796109 107.714592 
L 267.861557 106.669393 
L 268.185717 106.669393 
L 268.193044 105.624194 
L 268.311437 105.624194 
L 268.311437 105.101595 
L 268.5322 105.101595 
L 268.5322 104.578995 
L 268.814173 104.578995 
L 268.814173 104.056396 
L 269.273578 104.056396 
L 269.344497 101.965998 
L 269.500606 101.965998 
L 269.500606 101.443399 
L 270.080929 101.443399 
L 270.091104 100.3982 
L 270.205833 100.3982 
L 270.205833 99.8756 
L 270.475305 99.8756 
L 270.530874 98.830401 
L 270.692792 98.830401 
L 270.757513 97.785203 
L 270.933938 97.785203 
L 270.974225 96.217404 
L 271.169798 96.217404 
L 271.265199 95.172205 
L 271.324447 95.172205 
L 271.330235 93.604407 
L 271.613195 93.604407 
L 271.613195 93.081807 
L 271.89447 93.081807 
L 271.952482 92.036608 
L 272.181663 92.036608 
L 272.225788 90.99141 
L 272.433373 90.99141 
L 272.433373 90.46881 
L 273.059202 90.46881 
L 273.070483 89.423611 
L 273.209961 89.423611 
L 273.225762 88.378412 
L 273.391791 88.378412 
L 273.460721 87.333213 
L 273.614429 87.333213 
L 273.614429 86.810614 
L 273.774458 86.810614 
L 273.774458 86.288014 
L 274.062971 86.288014 
L 274.062971 85.765415 
L 274.525903 85.765415 
L 274.553837 84.720216 
L 274.662915 84.720216 
L 274.741757 83.152418 
L 274.798664 83.152418 
L 274.890204 81.584619 
L 275.099489 81.584619 
L 275.193644 80.016821 
L 275.385241 80.016821 
L 275.385241 79.494221 
L 275.531184 79.494221 
L 275.531184 78.971622 
L 276.415805 78.971622 
L 276.415805 78.449023 
L 276.746908 78.449023 
L 276.746908 77.926423 
L 277.019505 77.926423 
L 277.107912 76.358625 
L 277.206487 76.358625 
L 277.206487 75.836025 
L 277.520794 75.836025 
L 277.520794 75.313426 
L 277.730079 75.313426 
L 277.834212 74.268227 
L 278.038871 74.268227 
L 278.038871 73.745627 
L 278.174047 73.745627 
L 278.223622 72.177829 
L 278.345616 72.177829 
L 278.443134 70.610031 
L 278.495095 70.610031 
L 278.55346 69.564832 
L 278.62211 69.564832 
L 278.717662 67.997033 
L 278.735317 67.997033 
L 278.817409 66.429235 
L 279.598815 66.429235 
L 279.630896 65.384036 
L 279.812539 65.384036 
L 279.812539 64.861437 
L 280.132523 64.861437 
L 280.19548 63.816238 
L 280.464724 63.816238 
L 280.464724 63.293638 
L 280.584129 63.293638 
L 280.584129 62.771039 
L 280.900113 62.771039 
L 280.952615 61.72584 
L 281.428623 61.72584 
L 281.428623 61.20324 
L 281.561553 61.20324 
L 281.561553 60.680641 
L 281.785372 60.680641 
L 281.891746 59.635442 
L 282.756102 59.635442 
L 282.827619 58.590243 
L 283.293483 58.590243 
L 283.357592 57.545044 
L 284.090189 57.545044 
L 284.090189 57.022445 
L 284.307171 57.022445 
L 284.414436 55.454646 
L 284.877708 55.454646 
L 284.917355 53.886848 
L 285.45939 53.886848 
L 285.562179 52.841649 
L 285.784294 52.841649 
L 285.784294 52.31905 
L 286.158884 52.31905 
L 286.158884 51.79645 
L 286.279208 51.79645 
L 286.360516 50.751251 
L 286.40778 50.751251 
L 286.483461 49.706052 
L 286.718236 49.706052 
L 286.718236 49.183453 
L 287.348988 49.183453 
L 287.348988 48.660853 
L 287.970109 48.660853 
L 288.066688 47.615654 
L 288.325662 47.615654 
L 288.325662 47.093055 
L 288.85411 47.093055 
L 288.85411 46.570455 
L 289.210104 46.570455 
L 289.210104 46.047856 
L 290.34504 46.047856 
L 290.34504 45.525257 
L 290.616479 45.525257 
L 290.693998 44.480058 
L 292.623915 44.480058 
L 292.65215 43.434859 
L 292.991092 43.434859 
L 293.04777 42.38966 
L 293.881468 42.38966 
L 293.881468 41.86706 
L 294.082069 41.86706 
L 294.082069 41.344461 
L 294.246004 41.344461 
L 294.333314 39.776662 
L 294.880525 39.776662 
L 294.880525 39.254063 
L 295.431066 39.254063 
L 295.463271 37.686265 
L 295.720385 37.686265 
L 295.720385 37.163665 
L 296.255356 37.163665 
L 296.255356 36.641066 
L 296.787206 36.641066 
L 296.787206 36.118466 
L 297.005251 36.118466 
L 297.005251 35.595867 
L 298.979836 35.595867 
L 298.979836 35.073267 
L 299.110567 35.073267 
L 299.139537 34.028068 
L 299.442393 34.028068 
L 299.442393 33.505469 
L 299.580576 33.505469 
L 299.580576 32.982869 
L 300.80873 32.982869 
L 300.80873 32.46027 
L 301.258828 32.46027 
L 301.309787 31.415071 
L 301.903343 31.415071 
L 301.903343 30.892472 
L 302.118754 30.892472 
L 302.118754 30.369872 
L 302.444886 30.369872 
L 302.444886 29.847273 
L 302.579585 29.847273 
L 302.579585 29.324673 
L 303.30751 29.324673 
L 303.35785 28.279474 
L 303.643896 28.279474 
L 303.754229 27.234275 
L 303.817284 27.234275 
L 303.817284 26.711676 
L 304.23306 26.711676 
L 304.23306 26.189077 
L 304.570699 26.189077 
L 304.570699 25.666477 
L 305.533068 25.666477 
L 305.643043 24.098679 
L 306.455765 24.098679 
L 306.542303 23.05348 
L 307.589899 23.05348 
L 307.589899 22.53088 
L 307.858129 22.53088 
L 307.936637 21.485681 
L 309.182087 21.485681 
L 309.182087 20.963082 
L 310.251485 20.963082 
L 310.251485 20.440482 
L 310.49992 20.440482 
L 310.49992 19.917883 
L 311.012542 19.917883 
L 311.012542 19.395284 
L 311.620142 19.395284 
L 311.620142 18.872684 
L 312.432455 18.872684 
L 312.538767 17.827485 
L 313.594649 17.827485 
L 313.594649 17.304886 
L 314.67642 17.304886 
L 314.67642 16.782286 
L 315.26445 16.782286 
L 315.26445 16.259687 
L 315.57739 16.259687 
L 315.57739 15.737087 
L 316.655353 15.737087 
L 316.655353 15.214488 
L 317.378445 15.214488 
L 317.378445 14.691888 
L 319.303072 14.691888 
L 319.303072 14.169289 
L 319.715102 14.169289 
L 319.715102 13.646689 
L 320.336727 13.646689 
L 320.336727 13.12409 
L 321.599992 13.12409 
L 321.599992 12.601491 
L 322.20882 12.601491 
L 322.20882 12.078891 
L 323.095844 12.078891 
L 323.095844 11.556292 
L 323.445941 11.556292 
L 323.445941 11.033692 
L 328.585423 11.033692 
L 328.585423 10.511093 
L 329.787345 10.511093 
L 329.787345 9.988493 
L 331.294662 9.988493 
L 331.294662 9.465894 
L 331.61452 9.465894 
L 331.61452 8.943294 
L 334.156333 8.943294 
L 334.156333 8.420695 
L 337.426596 8.420695 
L 337.426596 7.898095 
L 345.965738 7.898095 
L 346.062923 6.852896 
L 353.184581 6.852896 
L 353.184581 6.330297 
L 353.184581 6.330297 
L 460.8 6.330297 
L 460.8 6.330297 
" style="fill:none;stroke:#bf00bf;stroke-linecap:square;stroke-width:1.5;"/>
   </g>
   <g id="patch_3">
    <path d="M 0 293.76 
L 0 3.456 
" style="fill:none;stroke:#000000;stroke-linecap:square;stroke-linejoin:miter;stroke-width:0.8;"/>
   </g>
   <g id="patch_4">
    <path d="M 460.8 293.76 
L 460.8 3.456 
" style="fill:none;stroke:#000000;stroke-linecap:square;stroke-linejoin:miter;stroke-width:0.8;"/>
   </g>
   <g id="patch_5">
    <path d="M 0 293.76 
L 460.8 293.76 
" style="fill:none;stroke:#000000;stroke-linecap:square;stroke-linejoin:miter;stroke-width:0.8;"/>
   </g>
   <g id="patch_6">
    <path d="M 0 3.456 
L 460.8 3.456 
" style="fill:none;stroke:#000000;stroke-linecap:square;stroke-linejoin:miter;stroke-width:0.8;"/>
   </g>
   <g id="text_6">
    <!-- {f1-f55}, 5-D -->
    <defs>
     <path d="M 51.125 -9.28125 
L 51.125 -16.3125 
L 48.09375 -16.3125 
Q 35.9375 -16.3125 31.8125 -12.6875 
Q 27.6875 -9.078125 27.6875 1.703125 
L 27.6875 13.375 
Q 27.6875 20.75 25.046875 23.578125 
Q 22.40625 26.421875 15.484375 26.421875 
L 12.5 26.421875 
L 12.5 33.40625 
L 15.484375 33.40625 
Q 22.46875 33.40625 25.078125 36.203125 
Q 27.6875 39.015625 27.6875 46.296875 
L 27.6875 58.015625 
Q 27.6875 68.796875 31.8125 72.390625 
Q 35.9375 75.984375 48.09375 75.984375 
L 51.125 75.984375 
L 51.125 69 
L 47.796875 69 
Q 40.921875 69 38.8125 66.84375 
Q 36.71875 64.703125 36.71875 57.8125 
L 36.71875 45.703125 
Q 36.71875 38.03125 34.5 34.5625 
Q 32.28125 31.109375 26.90625 29.890625 
Q 32.328125 28.5625 34.515625 25.09375 
Q 36.71875 21.625 36.71875 14.015625 
L 36.71875 1.90625 
Q 36.71875 -4.984375 38.8125 -7.125 
Q 40.921875 -9.28125 47.796875 -9.28125 
z
" id="DejaVuSans-123"/>
     <path d="M 10.796875 72.90625 
L 49.515625 72.90625 
L 49.515625 64.59375 
L 19.828125 64.59375 
L 19.828125 46.734375 
Q 21.96875 47.46875 24.109375 47.828125 
Q 26.265625 48.1875 28.421875 48.1875 
Q 40.625 48.1875 47.75 41.5 
Q 54.890625 34.8125 54.890625 23.390625 
Q 54.890625 11.625 47.5625 5.09375 
Q 40.234375 -1.421875 26.90625 -1.421875 
Q 22.3125 -1.421875 17.546875 -0.640625 
Q 12.796875 0.140625 7.71875 1.703125 
L 7.71875 11.625 
Q 12.109375 9.234375 16.796875 8.0625 
Q 21.484375 6.890625 26.703125 6.890625 
Q 35.15625 6.890625 40.078125 11.328125 
Q 45.015625 15.765625 45.015625 23.390625 
Q 45.015625 31 40.078125 35.4375 
Q 35.15625 39.890625 26.703125 39.890625 
Q 22.75 39.890625 18.8125 39.015625 
Q 14.890625 38.140625 10.796875 36.28125 
z
" id="DejaVuSans-53"/>
     <path d="M 12.5 -9.28125 
L 15.921875 -9.28125 
Q 22.75 -9.28125 24.828125 -7.171875 
Q 26.90625 -5.078125 26.90625 1.90625 
L 26.90625 14.015625 
Q 26.90625 21.625 29.09375 25.09375 
Q 31.296875 28.5625 36.71875 29.890625 
Q 31.296875 31.109375 29.09375 34.5625 
Q 26.90625 38.03125 26.90625 45.703125 
L 26.90625 57.8125 
Q 26.90625 64.75 24.828125 66.875 
Q 22.75 69 15.921875 69 
L 12.5 69 
L 12.5 75.984375 
L 15.578125 75.984375 
Q 27.734375 75.984375 31.8125 72.390625 
Q 35.890625 68.796875 35.890625 58.015625 
L 35.890625 46.296875 
Q 35.890625 39.015625 38.515625 36.203125 
Q 41.15625 33.40625 48.09375 33.40625 
L 51.125 33.40625 
L 51.125 26.421875 
L 48.09375 26.421875 
Q 41.15625 26.421875 38.515625 23.578125 
Q 35.890625 20.75 35.890625 13.375 
L 35.890625 1.703125 
Q 35.890625 -9.078125 31.8125 -12.6875 
Q 27.734375 -16.3125 15.578125 -16.3125 
L 12.5 -16.3125 
z
" id="DejaVuSans-125"/>
     <path d="M 11.71875 12.40625 
L 22.015625 12.40625 
L 22.015625 4 
L 14.015625 -11.625 
L 7.71875 -11.625 
L 11.71875 4 
z
" id="DejaVuSans-44"/>
    </defs>
    <g transform="translate(318.609 287.95392)scale(0.2 -0.2)">
     <use xlink:href="#DejaVuSans-123"/>
     <use x="63.623047" xlink:href="#DejaVuSans-102"/>
     <use x="98.828125" xlink:href="#DejaVuSans-49"/>
     <use x="162.451172" xlink:href="#DejaVuSans-45"/>
     <use x="198.535156" xlink:href="#DejaVuSans-102"/>
     <use x="233.740234" xlink:href="#DejaVuSans-53"/>
     <use x="297.363281" xlink:href="#DejaVuSans-53"/>
     <use x="360.986328" xlink:href="#DejaVuSans-125"/>
     <use x="424.609375" xlink:href="#DejaVuSans-44"/>
     <use x="456.396484" xlink:href="#DejaVuSans-32"/>
     <use x="488.183594" xlink:href="#DejaVuSans-53"/>
     <use x="551.806641" xlink:href="#DejaVuSans-45"/>
     <use x="587.890625" xlink:href="#DejaVuSans-68"/>
    </g>
   </g>
   <g id="text_7">
    <!-- v2.4, hv-hash=ff0e71e8cd978373 -->
    <defs>
     <path d="M 2.984375 54.6875 
L 12.5 54.6875 
L 29.59375 8.796875 
L 46.6875 54.6875 
L 56.203125 54.6875 
L 35.6875 0 
L 23.484375 0 
z
" id="DejaVuSans-118"/>
     <path d="M 19.1875 8.296875 
L 53.609375 8.296875 
L 53.609375 0 
L 7.328125 0 
L 7.328125 8.296875 
Q 12.9375 14.109375 22.625 23.890625 
Q 32.328125 33.6875 34.8125 36.53125 
Q 39.546875 41.84375 41.421875 45.53125 
Q 43.3125 49.21875 43.3125 52.78125 
Q 43.3125 58.59375 39.234375 62.25 
Q 35.15625 65.921875 28.609375 65.921875 
Q 23.96875 65.921875 18.8125 64.3125 
Q 13.671875 62.703125 7.8125 59.421875 
L 7.8125 69.390625 
Q 13.765625 71.78125 18.9375 73 
Q 24.125 74.21875 28.421875 74.21875 
Q 39.75 74.21875 46.484375 68.546875 
Q 53.21875 62.890625 53.21875 53.421875 
Q 53.21875 48.921875 51.53125 44.890625 
Q 49.859375 40.875 45.40625 35.40625 
Q 44.1875 33.984375 37.640625 27.21875 
Q 31.109375 20.453125 19.1875 8.296875 
z
" id="DejaVuSans-50"/>
     <path d="M 10.6875 12.40625 
L 21 12.40625 
L 21 0 
L 10.6875 0 
z
" id="DejaVuSans-46"/>
     <path d="M 54.890625 33.015625 
L 54.890625 0 
L 45.90625 0 
L 45.90625 32.71875 
Q 45.90625 40.484375 42.875 44.328125 
Q 39.84375 48.1875 33.796875 48.1875 
Q 26.515625 48.1875 22.3125 43.546875 
Q 18.109375 38.921875 18.109375 30.90625 
L 18.109375 0 
L 9.078125 0 
L 9.078125 75.984375 
L 18.109375 75.984375 
L 18.109375 46.1875 
Q 21.34375 51.125 25.703125 53.5625 
Q 30.078125 56 35.796875 56 
Q 45.21875 56 50.046875 50.171875 
Q 54.890625 44.34375 54.890625 33.015625 
z
" id="DejaVuSans-104"/>
     <path d="M 34.28125 27.484375 
Q 23.390625 27.484375 19.1875 25 
Q 14.984375 22.515625 14.984375 16.5 
Q 14.984375 11.71875 18.140625 8.90625 
Q 21.296875 6.109375 26.703125 6.109375 
Q 34.1875 6.109375 38.703125 11.40625 
Q 43.21875 16.703125 43.21875 25.484375 
L 43.21875 27.484375 
z
M 52.203125 31.203125 
L 52.203125 0 
L 43.21875 0 
L 43.21875 8.296875 
Q 40.140625 3.328125 35.546875 0.953125 
Q 30.953125 -1.421875 24.3125 -1.421875 
Q 15.921875 -1.421875 10.953125 3.296875 
Q 6 8.015625 6 15.921875 
Q 6 25.140625 12.171875 29.828125 
Q 18.359375 34.515625 30.609375 34.515625 
L 43.21875 34.515625 
L 43.21875 35.40625 
Q 43.21875 41.609375 39.140625 45 
Q 35.0625 48.390625 27.6875 48.390625 
Q 23 48.390625 18.546875 47.265625 
Q 14.109375 46.140625 10.015625 43.890625 
L 10.015625 52.203125 
Q 14.9375 54.109375 19.578125 55.046875 
Q 24.21875 56 28.609375 56 
Q 40.484375 56 46.34375 49.84375 
Q 52.203125 43.703125 52.203125 31.203125 
z
" id="DejaVuSans-97"/>
     <path d="M 44.28125 53.078125 
L 44.28125 44.578125 
Q 40.484375 46.53125 36.375 47.5 
Q 32.28125 48.484375 27.875 48.484375 
Q 21.1875 48.484375 17.84375 46.4375 
Q 14.5 44.390625 14.5 40.28125 
Q 14.5 37.15625 16.890625 35.375 
Q 19.28125 33.59375 26.515625 31.984375 
L 29.59375 31.296875 
Q 39.15625 29.25 43.1875 25.515625 
Q 47.21875 21.78125 47.21875 15.09375 
Q 47.21875 7.46875 41.1875 3.015625 
Q 35.15625 -1.421875 24.609375 -1.421875 
Q 20.21875 -1.421875 15.453125 -0.5625 
Q 10.6875 0.296875 5.421875 2 
L 5.421875 11.28125 
Q 10.40625 8.6875 15.234375 7.390625 
Q 20.0625 6.109375 24.8125 6.109375 
Q 31.15625 6.109375 34.5625 8.28125 
Q 37.984375 10.453125 37.984375 14.40625 
Q 37.984375 18.0625 35.515625 20.015625 
Q 33.0625 21.96875 24.703125 23.78125 
L 21.578125 24.515625 
Q 13.234375 26.265625 9.515625 29.90625 
Q 5.8125 33.546875 5.8125 39.890625 
Q 5.8125 47.609375 11.28125 51.796875 
Q 16.75 56 26.8125 56 
Q 31.78125 56 36.171875 55.265625 
Q 40.578125 54.546875 44.28125 53.078125 
z
" id="DejaVuSans-115"/>
     <path d="M 10.59375 45.40625 
L 73.1875 45.40625 
L 73.1875 37.203125 
L 10.59375 37.203125 
z
M 10.59375 25.484375 
L 73.1875 25.484375 
L 73.1875 17.1875 
L 10.59375 17.1875 
z
" id="DejaVuSans-61"/>
     <path d="M 56.203125 29.59375 
L 56.203125 25.203125 
L 14.890625 25.203125 
Q 15.484375 15.921875 20.484375 11.0625 
Q 25.484375 6.203125 34.421875 6.203125 
Q 39.59375 6.203125 44.453125 7.46875 
Q 49.3125 8.734375 54.109375 11.28125 
L 54.109375 2.78125 
Q 49.265625 0.734375 44.1875 -0.34375 
Q 39.109375 -1.421875 33.890625 -1.421875 
Q 20.796875 -1.421875 13.15625 6.1875 
Q 5.515625 13.8125 5.515625 26.8125 
Q 5.515625 40.234375 12.765625 48.109375 
Q 20.015625 56 32.328125 56 
Q 43.359375 56 49.78125 48.890625 
Q 56.203125 41.796875 56.203125 29.59375 
z
M 47.21875 32.234375 
Q 47.125 39.59375 43.09375 43.984375 
Q 39.0625 48.390625 32.421875 48.390625 
Q 24.90625 48.390625 20.390625 44.140625 
Q 15.875 39.890625 15.1875 32.171875 
z
" id="DejaVuSans-101"/>
     <path d="M 8.203125 72.90625 
L 55.078125 72.90625 
L 55.078125 68.703125 
L 28.609375 0 
L 18.3125 0 
L 43.21875 64.59375 
L 8.203125 64.59375 
z
" id="DejaVuSans-55"/>
     <path d="M 48.78125 52.59375 
L 48.78125 44.1875 
Q 44.96875 46.296875 41.140625 47.34375 
Q 37.3125 48.390625 33.40625 48.390625 
Q 24.65625 48.390625 19.8125 42.84375 
Q 14.984375 37.3125 14.984375 27.296875 
Q 14.984375 17.28125 19.8125 11.734375 
Q 24.65625 6.203125 33.40625 6.203125 
Q 37.3125 6.203125 41.140625 7.25 
Q 44.96875 8.296875 48.78125 10.40625 
L 48.78125 2.09375 
Q 45.015625 0.34375 40.984375 -0.53125 
Q 36.96875 -1.421875 32.421875 -1.421875 
Q 20.0625 -1.421875 12.78125 6.34375 
Q 5.515625 14.109375 5.515625 27.296875 
Q 5.515625 40.671875 12.859375 48.328125 
Q 20.21875 56 33.015625 56 
Q 37.15625 56 41.109375 55.140625 
Q 45.0625 54.296875 48.78125 52.59375 
z
" id="DejaVuSans-99"/>
     <path d="M 45.40625 46.390625 
L 45.40625 75.984375 
L 54.390625 75.984375 
L 54.390625 0 
L 45.40625 0 
L 45.40625 8.203125 
Q 42.578125 3.328125 38.25 0.953125 
Q 33.9375 -1.421875 27.875 -1.421875 
Q 17.96875 -1.421875 11.734375 6.484375 
Q 5.515625 14.40625 5.515625 27.296875 
Q 5.515625 40.1875 11.734375 48.09375 
Q 17.96875 56 27.875 56 
Q 33.9375 56 38.25 53.625 
Q 42.578125 51.265625 45.40625 46.390625 
z
M 14.796875 27.296875 
Q 14.796875 17.390625 18.875 11.75 
Q 22.953125 6.109375 30.078125 6.109375 
Q 37.203125 6.109375 41.296875 11.75 
Q 45.40625 17.390625 45.40625 27.296875 
Q 45.40625 37.203125 41.296875 42.84375 
Q 37.203125 48.484375 30.078125 48.484375 
Q 22.953125 48.484375 18.875 42.84375 
Q 14.796875 37.203125 14.796875 27.296875 
z
" id="DejaVuSans-100"/>
     <path d="M 10.984375 1.515625 
L 10.984375 10.5 
Q 14.703125 8.734375 18.5 7.8125 
Q 22.3125 6.890625 25.984375 6.890625 
Q 35.75 6.890625 40.890625 13.453125 
Q 46.046875 20.015625 46.78125 33.40625 
Q 43.953125 29.203125 39.59375 26.953125 
Q 35.25 24.703125 29.984375 24.703125 
Q 19.046875 24.703125 12.671875 31.3125 
Q 6.296875 37.9375 6.296875 49.421875 
Q 6.296875 60.640625 12.9375 67.421875 
Q 19.578125 74.21875 30.609375 74.21875 
Q 43.265625 74.21875 49.921875 64.515625 
Q 56.59375 54.828125 56.59375 36.375 
Q 56.59375 19.140625 48.40625 8.859375 
Q 40.234375 -1.421875 26.421875 -1.421875 
Q 22.703125 -1.421875 18.890625 -0.6875 
Q 15.09375 0.046875 10.984375 1.515625 
z
M 30.609375 32.421875 
Q 37.25 32.421875 41.125 36.953125 
Q 45.015625 41.5 45.015625 49.421875 
Q 45.015625 57.28125 41.125 61.84375 
Q 37.25 66.40625 30.609375 66.40625 
Q 23.96875 66.40625 20.09375 61.84375 
Q 16.21875 57.28125 16.21875 49.421875 
Q 16.21875 41.5 20.09375 36.953125 
Q 23.96875 32.421875 30.609375 32.421875 
z
" id="DejaVuSans-57"/>
     <path d="M 40.578125 39.3125 
Q 47.65625 37.796875 51.625 33 
Q 55.609375 28.21875 55.609375 21.1875 
Q 55.609375 10.40625 48.1875 4.484375 
Q 40.765625 -1.421875 27.09375 -1.421875 
Q 22.515625 -1.421875 17.65625 -0.515625 
Q 12.796875 0.390625 7.625 2.203125 
L 7.625 11.71875 
Q 11.71875 9.328125 16.59375 8.109375 
Q 21.484375 6.890625 26.8125 6.890625 
Q 36.078125 6.890625 40.9375 10.546875 
Q 45.796875 14.203125 45.796875 21.1875 
Q 45.796875 27.640625 41.28125 31.265625 
Q 36.765625 34.90625 28.71875 34.90625 
L 20.21875 34.90625 
L 20.21875 43.015625 
L 29.109375 43.015625 
Q 36.375 43.015625 40.234375 45.921875 
Q 44.09375 48.828125 44.09375 54.296875 
Q 44.09375 59.90625 40.109375 62.90625 
Q 36.140625 65.921875 28.71875 65.921875 
Q 24.65625 65.921875 20.015625 65.03125 
Q 15.375 64.15625 9.8125 62.3125 
L 9.8125 71.09375 
Q 15.4375 72.65625 20.34375 73.4375 
Q 25.25 74.21875 29.59375 74.21875 
Q 40.828125 74.21875 47.359375 69.109375 
Q 53.90625 64.015625 53.90625 55.328125 
Q 53.90625 49.265625 50.4375 45.09375 
Q 46.96875 40.921875 40.578125 39.3125 
z
" id="DejaVuSans-51"/>
    </defs>
    <g style="fill:#808080;" transform="translate(144.775 288.777272)scale(0.1 -0.1)">
     <use xlink:href="#DejaVuSans-118"/>
     <use x="59.179688" xlink:href="#DejaVuSans-50"/>
     <use x="122.802734" xlink:href="#DejaVuSans-46"/>
     <use x="154.589844" xlink:href="#DejaVuSans-52"/>
     <use x="218.212891" xlink:href="#DejaVuSans-44"/>
     <use x="250" xlink:href="#DejaVuSans-32"/>
     <use x="281.787109" xlink:href="#DejaVuSans-104"/>
     <use x="345.166016" xlink:href="#DejaVuSans-118"/>
     <use x="404.314453" xlink:href="#DejaVuSans-45"/>
     <use x="440.398438" xlink:href="#DejaVuSans-104"/>
     <use x="503.777344" xlink:href="#DejaVuSans-97"/>
     <use x="565.056641" xlink:href="#DejaVuSans-115"/>
     <use x="617.15625" xlink:href="#DejaVuSans-104"/>
     <use x="680.535156" xlink:href="#DejaVuSans-61"/>
     <use x="764.324219" xlink:href="#DejaVuSans-102"/>
     <use x="799.529297" xlink:href="#DejaVuSans-102"/>
     <use x="834.734375" xlink:href="#DejaVuSans-48"/>
     <use x="898.357422" xlink:href="#DejaVuSans-101"/>
     <use x="959.880859" xlink:href="#DejaVuSans-55"/>
     <use x="1023.503906" xlink:href="#DejaVuSans-49"/>
     <use x="1087.126953" xlink:href="#DejaVuSans-101"/>
     <use x="1148.650391" xlink:href="#DejaVuSans-56"/>
     <use x="1212.273438" xlink:href="#DejaVuSans-99"/>
     <use x="1267.253906" xlink:href="#DejaVuSans-100"/>
     <use x="1330.730469" xlink:href="#DejaVuSans-57"/>
     <use x="1394.353516" xlink:href="#DejaVuSans-55"/>
     <use x="1457.976562" xlink:href="#DejaVuSans-56"/>
     <use x="1521.599609" xlink:href="#DejaVuSans-51"/>
     <use x="1585.222656" xlink:href="#DejaVuSans-55"/>
     <use x="1648.845703" xlink:href="#DejaVuSans-51"/>
    </g>
   </g>
  </g>
 </g>
 <defs>
  <clipPath id="p96a6130a50">
   <rect height="290.304" width="460.8" x="0" y="3.456"/>
  </clipPath>
 </defs>
</svg>
