<?xml version="1.0" encoding="utf-8" standalone="no"?>
<!DOCTYPE svg PUBLIC "-//W3C//DTD SVG 1.1//EN"
  "http://www.w3.org/Graphics/SVG/1.1/DTD/svg11.dtd">
<!-- Created with matplotlib (https://matplotlib.org/) -->
<svg height="345.6pt" version="1.1" viewBox="0 0 460.8 345.6" width="460.8pt" xmlns="http://www.w3.org/2000/svg" xmlns:xlink="http://www.w3.org/1999/xlink">
 <defs>
  <style type="text/css">
*{stroke-linecap:butt;stroke-linejoin:round;}
  </style>
 </defs>
 <g id="figure_1">
  <g id="patch_1">
   <path d="M 0 345.6 
L 460.8 345.6 
L 460.8 0 
L 0 0 
z
" style="fill:#ffffff;"/>
  </g>
  <g id="axes_1">
   <g id="patch_2">
    <path d="M 0 293.76 
L 460.8 293.76 
L 460.8 3.456 
L 0 3.456 
z
" style="fill:#ffffff;"/>
   </g>
   <g id="matplotlib.axis_1">
    <g id="xtick_1">
     <g id="line2d_1">
      <path clip-path="url(#p292b2be3ea)" d="M 112.29104 293.76 
L 112.29104 3.456 
" style="fill:none;stroke:#b0b0b0;stroke-linecap:square;stroke-width:0.8;"/>
     </g>
     <g id="line2d_2">
      <defs>
       <path d="M 0 0 
L 0 3.5 
" id="mb911f62752" style="stroke:#000000;stroke-width:0.8;"/>
      </defs>
      <g>
       <use style="stroke:#000000;stroke-width:0.8;" x="112.29104" xlink:href="#mb911f62752" y="293.76"/>
      </g>
     </g>
     <g id="text_1">
      <!-- -4 -->
      <defs>
       <path d="M 4.890625 31.390625 
L 31.203125 31.390625 
L 31.203125 23.390625 
L 4.890625 23.390625 
z
" id="DejaVuSans-45"/>
       <path d="M 37.796875 64.3125 
L 12.890625 25.390625 
L 37.796875 25.390625 
z
M 35.203125 72.90625 
L 47.609375 72.90625 
L 47.609375 25.390625 
L 58.015625 25.390625 
L 58.015625 17.1875 
L 47.609375 17.1875 
L 47.609375 0 
L 37.796875 0 
L 37.796875 17.1875 
L 4.890625 17.1875 
L 4.890625 26.703125 
z
" id="DejaVuSans-52"/>
      </defs>
      <g transform="translate(102.320728 315.956875)scale(0.2 -0.2)">
       <use xlink:href="#DejaVuSans-45"/>
       <use x="36.083984" xlink:href="#DejaVuSans-52"/>
      </g>
     </g>
    </g>
    <g id="xtick_2">
     <g id="line2d_3">
      <path clip-path="url(#p292b2be3ea)" d="M 224.703524 293.76 
L 224.703524 3.456 
" style="fill:none;stroke:#b0b0b0;stroke-linecap:square;stroke-width:0.8;"/>
     </g>
     <g id="line2d_4">
      <g>
       <use style="stroke:#000000;stroke-width:0.8;" x="224.703524" xlink:href="#mb911f62752" y="293.76"/>
      </g>
     </g>
     <g id="text_2">
      <!-- 0 -->
      <defs>
       <path d="M 31.78125 66.40625 
Q 24.171875 66.40625 20.328125 58.90625 
Q 16.5 51.421875 16.5 36.375 
Q 16.5 21.390625 20.328125 13.890625 
Q 24.171875 6.390625 31.78125 6.390625 
Q 39.453125 6.390625 43.28125 13.890625 
Q 47.125 21.390625 47.125 36.375 
Q 47.125 51.421875 43.28125 58.90625 
Q 39.453125 66.40625 31.78125 66.40625 
z
M 31.78125 74.21875 
Q 44.046875 74.21875 50.515625 64.515625 
Q 56.984375 54.828125 56.984375 36.375 
Q 56.984375 17.96875 50.515625 8.265625 
Q 44.046875 -1.421875 31.78125 -1.421875 
Q 19.53125 -1.421875 13.0625 8.265625 
Q 6.59375 17.96875 6.59375 36.375 
Q 6.59375 54.828125 13.0625 64.515625 
Q 19.53125 74.21875 31.78125 74.21875 
z
" id="DejaVuSans-48"/>
      </defs>
      <g transform="translate(218.341024 315.956875)scale(0.2 -0.2)">
       <use xlink:href="#DejaVuSans-48"/>
      </g>
     </g>
    </g>
    <g id="xtick_3">
     <g id="line2d_5">
      <path clip-path="url(#p292b2be3ea)" d="M 337.116008 293.76 
L 337.116008 3.456 
" style="fill:none;stroke:#b0b0b0;stroke-linecap:square;stroke-width:0.8;"/>
     </g>
     <g id="line2d_6">
      <g>
       <use style="stroke:#000000;stroke-width:0.8;" x="337.116008" xlink:href="#mb911f62752" y="293.76"/>
      </g>
     </g>
     <g id="text_3">
      <!-- 4 -->
      <g transform="translate(330.753508 315.956875)scale(0.2 -0.2)">
       <use xlink:href="#DejaVuSans-52"/>
      </g>
     </g>
    </g>
    <g id="xtick_4">
     <g id="line2d_7">
      <path clip-path="url(#p292b2be3ea)" d="M 449.528492 293.76 
L 449.528492 3.456 
" style="fill:none;stroke:#b0b0b0;stroke-linecap:square;stroke-width:0.8;"/>
     </g>
     <g id="line2d_8">
      <g>
       <use style="stroke:#000000;stroke-width:0.8;" x="449.528492" xlink:href="#mb911f62752" y="293.76"/>
      </g>
     </g>
     <g id="text_4">
      <!-- 8 -->
      <defs>
       <path d="M 31.78125 34.625 
Q 24.75 34.625 20.71875 30.859375 
Q 16.703125 27.09375 16.703125 20.515625 
Q 16.703125 13.921875 20.71875 10.15625 
Q 24.75 6.390625 31.78125 6.390625 
Q 38.8125 6.390625 42.859375 10.171875 
Q 46.921875 13.96875 46.921875 20.515625 
Q 46.921875 27.09375 42.890625 30.859375 
Q 38.875 34.625 31.78125 34.625 
z
M 21.921875 38.8125 
Q 15.578125 40.375 12.03125 44.71875 
Q 8.5 49.078125 8.5 55.328125 
Q 8.5 64.0625 14.71875 69.140625 
Q 20.953125 74.21875 31.78125 74.21875 
Q 42.671875 74.21875 48.875 69.140625 
Q 55.078125 64.0625 55.078125 55.328125 
Q 55.078125 49.078125 51.53125 44.71875 
Q 48 40.375 41.703125 38.8125 
Q 48.828125 37.15625 52.796875 32.3125 
Q 56.78125 27.484375 56.78125 20.515625 
Q 56.78125 9.90625 50.3125 4.234375 
Q 43.84375 -1.421875 31.78125 -1.421875 
Q 19.734375 -1.421875 13.25 4.234375 
Q 6.78125 9.90625 6.78125 20.515625 
Q 6.78125 27.484375 10.78125 32.3125 
Q 14.796875 37.15625 21.921875 38.8125 
z
M 18.3125 54.390625 
Q 18.3125 48.734375 21.84375 45.5625 
Q 25.390625 42.390625 31.78125 42.390625 
Q 38.140625 42.390625 41.71875 45.5625 
Q 45.3125 48.734375 45.3125 54.390625 
Q 45.3125 60.0625 41.71875 63.234375 
Q 38.140625 66.40625 31.78125 66.40625 
Q 25.390625 66.40625 21.84375 63.234375 
Q 18.3125 60.0625 18.3125 54.390625 
z
" id="DejaVuSans-56"/>
      </defs>
      <g transform="translate(443.165992 315.956875)scale(0.2 -0.2)">
       <use xlink:href="#DejaVuSans-56"/>
      </g>
     </g>
    </g>
    <g id="text_5">
     <!-- log10 of Df -->
     <defs>
      <path d="M 9.421875 75.984375 
L 18.40625 75.984375 
L 18.40625 0 
L 9.421875 0 
z
" id="DejaVuSans-108"/>
      <path d="M 30.609375 48.390625 
Q 23.390625 48.390625 19.1875 42.75 
Q 14.984375 37.109375 14.984375 27.296875 
Q 14.984375 17.484375 19.15625 11.84375 
Q 23.34375 6.203125 30.609375 6.203125 
Q 37.796875 6.203125 41.984375 11.859375 
Q 46.1875 17.53125 46.1875 27.296875 
Q 46.1875 37.015625 41.984375 42.703125 
Q 37.796875 48.390625 30.609375 48.390625 
z
M 30.609375 56 
Q 42.328125 56 49.015625 48.375 
Q 55.71875 40.765625 55.71875 27.296875 
Q 55.71875 13.875 49.015625 6.21875 
Q 42.328125 -1.421875 30.609375 -1.421875 
Q 18.84375 -1.421875 12.171875 6.21875 
Q 5.515625 13.875 5.515625 27.296875 
Q 5.515625 40.765625 12.171875 48.375 
Q 18.84375 56 30.609375 56 
z
" id="DejaVuSans-111"/>
      <path d="M 45.40625 27.984375 
Q 45.40625 37.75 41.375 43.109375 
Q 37.359375 48.484375 30.078125 48.484375 
Q 22.859375 48.484375 18.828125 43.109375 
Q 14.796875 37.75 14.796875 27.984375 
Q 14.796875 18.265625 18.828125 12.890625 
Q 22.859375 7.515625 30.078125 7.515625 
Q 37.359375 7.515625 41.375 12.890625 
Q 45.40625 18.265625 45.40625 27.984375 
z
M 54.390625 6.78125 
Q 54.390625 -7.171875 48.1875 -13.984375 
Q 42 -20.796875 29.203125 -20.796875 
Q 24.46875 -20.796875 20.265625 -20.09375 
Q 16.0625 -19.390625 12.109375 -17.921875 
L 12.109375 -9.1875 
Q 16.0625 -11.328125 19.921875 -12.34375 
Q 23.78125 -13.375 27.78125 -13.375 
Q 36.625 -13.375 41.015625 -8.765625 
Q 45.40625 -4.15625 45.40625 5.171875 
L 45.40625 9.625 
Q 42.625 4.78125 38.28125 2.390625 
Q 33.9375 0 27.875 0 
Q 17.828125 0 11.671875 7.65625 
Q 5.515625 15.328125 5.515625 27.984375 
Q 5.515625 40.671875 11.671875 48.328125 
Q 17.828125 56 27.875 56 
Q 33.9375 56 38.28125 53.609375 
Q 42.625 51.21875 45.40625 46.390625 
L 45.40625 54.6875 
L 54.390625 54.6875 
z
" id="DejaVuSans-103"/>
      <path d="M 12.40625 8.296875 
L 28.515625 8.296875 
L 28.515625 63.921875 
L 10.984375 60.40625 
L 10.984375 69.390625 
L 28.421875 72.90625 
L 38.28125 72.90625 
L 38.28125 8.296875 
L 54.390625 8.296875 
L 54.390625 0 
L 12.40625 0 
z
" id="DejaVuSans-49"/>
      <path id="DejaVuSans-32"/>
      <path d="M 37.109375 75.984375 
L 37.109375 68.5 
L 28.515625 68.5 
Q 23.6875 68.5 21.796875 66.546875 
Q 19.921875 64.59375 19.921875 59.515625 
L 19.921875 54.6875 
L 34.71875 54.6875 
L 34.71875 47.703125 
L 19.921875 47.703125 
L 19.921875 0 
L 10.890625 0 
L 10.890625 47.703125 
L 2.296875 47.703125 
L 2.296875 54.6875 
L 10.890625 54.6875 
L 10.890625 58.5 
Q 10.890625 67.625 15.140625 71.796875 
Q 19.390625 75.984375 28.609375 75.984375 
z
" id="DejaVuSans-102"/>
      <path d="M 19.671875 64.796875 
L 19.671875 8.109375 
L 31.59375 8.109375 
Q 46.6875 8.109375 53.6875 14.9375 
Q 60.6875 21.78125 60.6875 36.53125 
Q 60.6875 51.171875 53.6875 57.984375 
Q 46.6875 64.796875 31.59375 64.796875 
z
M 9.8125 72.90625 
L 30.078125 72.90625 
Q 51.265625 72.90625 61.171875 64.09375 
Q 71.09375 55.28125 71.09375 36.53125 
Q 71.09375 17.671875 61.125 8.828125 
Q 51.171875 0 30.078125 0 
L 9.8125 0 
z
" id="DejaVuSans-68"/>
     </defs>
     <g transform="translate(175.214063 339.313125)scale(0.2 -0.2)">
      <use xlink:href="#DejaVuSans-108"/>
      <use x="27.783203" xlink:href="#DejaVuSans-111"/>
      <use x="88.964844" xlink:href="#DejaVuSans-103"/>
      <use x="152.441406" xlink:href="#DejaVuSans-49"/>
      <use x="216.064453" xlink:href="#DejaVuSans-48"/>
      <use x="279.6875" xlink:href="#DejaVuSans-32"/>
      <use x="311.474609" xlink:href="#DejaVuSans-111"/>
      <use x="372.65625" xlink:href="#DejaVuSans-102"/>
      <use x="407.861328" xlink:href="#DejaVuSans-32"/>
      <use x="439.648438" xlink:href="#DejaVuSans-68"/>
      <use x="516.650391" xlink:href="#DejaVuSans-102"/>
     </g>
    </g>
   </g>
   <g id="matplotlib.axis_2">
    <g id="ytick_1">
     <g id="line2d_9">
      <path clip-path="url(#p292b2be3ea)" d="M 0 293.76 
L 460.8 293.76 
" style="fill:none;stroke:#b0b0b0;stroke-linecap:square;stroke-width:0.8;"/>
     </g>
     <g id="line2d_10">
      <defs>
       <path d="M 0 0 
L -3.5 0 
" id="m2f5f61fc09" style="stroke:#000000;stroke-width:0.8;"/>
      </defs>
      <g>
       <use style="stroke:#000000;stroke-width:0.8;" x="0" xlink:href="#m2f5f61fc09" y="293.76"/>
      </g>
     </g>
    </g>
    <g id="ytick_2">
     <g id="line2d_11">
      <path clip-path="url(#p292b2be3ea)" d="M 0 236.274059 
L 460.8 236.274059 
" style="fill:none;stroke:#b0b0b0;stroke-linecap:square;stroke-width:0.8;"/>
     </g>
     <g id="line2d_12">
      <g>
       <use style="stroke:#000000;stroke-width:0.8;" x="0" xlink:href="#m2f5f61fc09" y="236.274059"/>
      </g>
     </g>
    </g>
    <g id="ytick_3">
     <g id="line2d_13">
      <path clip-path="url(#p292b2be3ea)" d="M 0 178.788119 
L 460.8 178.788119 
" style="fill:none;stroke:#b0b0b0;stroke-linecap:square;stroke-width:0.8;"/>
     </g>
     <g id="line2d_14">
      <g>
       <use style="stroke:#000000;stroke-width:0.8;" x="0" xlink:href="#m2f5f61fc09" y="178.788119"/>
      </g>
     </g>
    </g>
    <g id="ytick_4">
     <g id="line2d_15">
      <path clip-path="url(#p292b2be3ea)" d="M 0 121.302178 
L 460.8 121.302178 
" style="fill:none;stroke:#b0b0b0;stroke-linecap:square;stroke-width:0.8;"/>
     </g>
     <g id="line2d_16">
      <g>
       <use style="stroke:#000000;stroke-width:0.8;" x="0" xlink:href="#m2f5f61fc09" y="121.302178"/>
      </g>
     </g>
    </g>
    <g id="ytick_5">
     <g id="line2d_17">
      <path clip-path="url(#p292b2be3ea)" d="M 0 63.816238 
L 460.8 63.816238 
" style="fill:none;stroke:#b0b0b0;stroke-linecap:square;stroke-width:0.8;"/>
     </g>
     <g id="line2d_18">
      <g>
       <use style="stroke:#000000;stroke-width:0.8;" x="0" xlink:href="#m2f5f61fc09" y="63.816238"/>
      </g>
     </g>
    </g>
    <g id="ytick_6">
     <g id="line2d_19">
      <path clip-path="url(#p292b2be3ea)" d="M 0 6.330297 
L 460.8 6.330297 
" style="fill:none;stroke:#b0b0b0;stroke-linecap:square;stroke-width:0.8;"/>
     </g>
     <g id="line2d_20">
      <g>
       <use style="stroke:#000000;stroke-width:0.8;" x="0" xlink:href="#m2f5f61fc09" y="6.330297"/>
      </g>
     </g>
    </g>
   </g>
   <g id="line2d_21">
    <path clip-path="url(#p292b2be3ea)" d="M 257.705916 293.76 
L 257.705916 293.237401 
L 259.213617 293.237401 
L 259.213617 292.714801 
L 259.34371 292.714801 
L 259.34371 292.192202 
L 259.978951 292.192202 
L 259.978951 291.669602 
L 260.282412 291.669602 
L 260.282412 291.147003 
L 261.092717 291.147003 
L 261.185954 290.101804 
L 261.850772 290.101804 
L 261.850772 289.579204 
L 263.663852 289.579204 
L 263.663852 289.056605 
L 263.891452 289.056605 
L 263.898356 288.011406 
L 264.159079 288.011406 
L 264.159079 287.488806 
L 264.350006 287.488806 
L 264.350006 286.966207 
L 265.047981 286.966207 
L 265.047981 286.443608 
L 267.662791 286.443608 
L 267.662791 285.921008 
L 269.112179 285.921008 
L 269.112179 285.398409 
L 269.416908 285.398409 
L 269.416908 284.875809 
L 270.303078 284.875809 
L 270.303078 284.35321 
L 272.187475 284.35321 
L 272.187475 283.83061 
L 272.889603 283.83061 
L 272.889603 283.308011 
L 273.637598 283.308011 
L 273.637598 282.785411 
L 273.986814 282.785411 
L 273.986814 282.262812 
L 274.161739 282.262812 
L 274.161739 281.740212 
L 274.641704 281.740212 
L 274.641704 281.217613 
L 274.755564 281.217613 
L 274.755564 280.695014 
L 275.551428 280.695014 
L 275.551428 280.172414 
L 275.701844 280.172414 
L 275.701844 279.649815 
L 275.861704 279.649815 
L 275.861704 279.127215 
L 276.873764 279.127215 
L 276.873764 278.604616 
L 277.767369 278.604616 
L 277.767369 278.082016 
L 279.117834 278.082016 
L 279.117834 277.559417 
L 279.510139 277.559417 
L 279.510139 277.036817 
L 279.755809 277.036817 
L 279.755809 276.514218 
L 280.093062 276.514218 
L 280.093062 275.991618 
L 280.693283 275.991618 
L 280.693283 275.469019 
L 280.867063 275.469019 
L 280.966184 274.42382 
L 281.209103 274.42382 
L 281.209103 273.901221 
L 281.731596 273.901221 
L 281.731596 273.378621 
L 282.266707 273.378621 
L 282.372081 272.333422 
L 282.63588 272.333422 
L 282.63588 271.810823 
L 282.992838 271.810823 
L 282.992838 271.288223 
L 283.304459 271.288223 
L 283.304459 270.765624 
L 283.535329 270.765624 
L 283.535329 270.243024 
L 284.278338 270.243024 
L 284.278338 269.720425 
L 284.593391 269.720425 
L 284.690583 268.675226 
L 285.295863 268.675226 
L 285.295863 268.152626 
L 285.436264 268.152626 
L 285.436264 267.630027 
L 285.73354 267.630027 
L 285.838995 266.584828 
L 285.9962 266.584828 
L 285.9962 266.062229 
L 286.118718 266.062229 
L 286.157848 265.01703 
L 286.824544 265.01703 
L 286.908303 263.971831 
L 286.95509 263.971831 
L 286.95509 263.449231 
L 287.238841 263.449231 
L 287.238841 262.926632 
L 287.372133 262.926632 
L 287.400588 261.881433 
L 287.550826 261.881433 
L 287.642934 260.313635 
L 287.696575 260.313635 
L 287.696575 259.791035 
L 287.849481 259.791035 
L 287.849481 259.268436 
L 288.030053 259.268436 
L 288.065076 258.223237 
L 288.202229 258.223237 
L 288.285925 256.655438 
L 288.387596 256.655438 
L 288.387596 256.132839 
L 288.785754 256.132839 
L 288.830919 254.565041 
L 289.027933 254.565041 
L 289.091432 253.519842 
L 289.611812 253.519842 
L 289.611812 252.997242 
L 289.735322 252.997242 
L 289.825493 251.952043 
L 290.210715 251.952043 
L 290.286922 250.906844 
L 290.574603 250.906844 
L 290.574603 250.384245 
L 290.728155 250.384245 
L 290.824438 248.816446 
L 290.860601 248.816446 
L 290.860601 248.293847 
L 291.080048 248.293847 
L 291.128102 247.248648 
L 291.504103 247.248648 
L 291.504103 246.726049 
L 291.644136 246.726049 
L 291.644136 246.203449 
L 291.779581 246.203449 
L 291.813233 245.15825 
L 291.891483 245.15825 
L 291.986691 244.113051 
L 292.164046 244.113051 
L 292.164046 243.590452 
L 292.276583 243.590452 
L 292.384077 242.022653 
L 292.478604 242.022653 
L 292.519703 240.977455 
L 292.602485 240.977455 
L 292.602485 240.454855 
L 292.854873 240.454855 
L 292.854873 239.932256 
L 292.979495 239.932256 
L 292.979495 239.409656 
L 293.175084 239.409656 
L 293.25289 238.364457 
L 293.336674 238.364457 
L 293.397257 237.319258 
L 293.450653 237.319258 
L 293.450653 236.796659 
L 293.562488 236.796659 
L 293.562488 236.274059 
L 293.77999 236.274059 
L 293.779997 235.22886 
L 294.01703 235.22886 
L 294.111321 233.138463 
L 294.151873 233.138463 
L 294.151873 232.615863 
L 294.271248 232.615863 
L 294.380246 231.570664 
L 294.906597 231.570664 
L 294.906597 231.048065 
L 295.029828 231.048065 
L 295.029828 230.525465 
L 295.267711 230.525465 
L 295.297411 229.480266 
L 295.638551 229.480266 
L 295.739005 227.389869 
L 295.814201 227.389869 
L 295.814201 226.867269 
L 295.951016 226.867269 
L 296.037761 225.299471 
L 296.174911 225.299471 
L 296.272026 223.209073 
L 296.336543 223.209073 
L 296.336543 222.686473 
L 296.471704 222.686473 
L 296.577726 221.118675 
L 296.639186 221.118675 
L 296.675849 219.550877 
L 296.758249 219.550877 
L 296.758249 219.028277 
L 296.894107 219.028277 
L 296.956437 217.460479 
L 297.113801 217.460479 
L 297.12105 216.41528 
L 297.338261 216.41528 
L 297.379821 214.847482 
L 297.535186 214.847482 
L 297.535186 214.324882 
L 297.678996 214.324882 
L 297.678996 213.802283 
L 297.836903 213.802283 
L 297.917001 212.234484 
L 297.993455 212.234484 
L 298.082243 211.189285 
L 298.145577 211.189285 
L 298.145577 210.666686 
L 298.294689 210.666686 
L 298.313112 209.098887 
L 298.436866 209.098887 
L 298.511482 208.053689 
L 298.58249 208.053689 
L 298.686616 206.48589 
L 298.851593 206.48589 
L 298.95341 204.395492 
L 298.98525 204.395492 
L 299.082462 202.827694 
L 299.275464 202.827694 
L 299.367445 201.259896 
L 299.453936 201.259896 
L 299.545907 199.692097 
L 299.629616 199.692097 
L 299.650254 198.646898 
L 299.762436 198.646898 
L 299.836461 196.5565 
L 299.930106 196.5565 
L 300.003408 194.988702 
L 300.052614 194.988702 
L 300.104298 193.943503 
L 300.359068 193.943503 
L 300.439416 190.285307 
L 300.492784 190.285307 
L 300.568627 188.194909 
L 300.605082 188.194909 
L 300.65672 186.627111 
L 300.778119 186.627111 
L 300.778119 186.104511 
L 300.917521 186.104511 
L 300.943544 185.059312 
L 301.041541 185.059312 
L 301.103159 183.491514 
L 301.168012 183.491514 
L 301.246306 182.446315 
L 301.285628 182.446315 
L 301.361895 180.355917 
L 301.485604 180.355917 
L 301.557599 178.788119 
L 301.637307 178.788119 
L 301.731194 177.22032 
L 301.756908 177.22032 
L 301.811445 176.175122 
L 301.900023 176.175122 
L 301.969375 174.607323 
L 302.082446 174.607323 
L 302.166461 173.039525 
L 302.560452 173.039525 
L 302.613228 170.949127 
L 302.97883 170.949127 
L 302.97883 170.426527 
L 303.184912 170.426527 
L 303.184912 169.903928 
L 303.317804 169.903928 
L 303.353805 168.858729 
L 303.518429 168.858729 
L 303.541299 167.81353 
L 303.991639 167.81353 
L 303.991639 167.290931 
L 304.22808 167.290931 
L 304.22808 166.768331 
L 304.406065 166.768331 
L 304.45575 165.723132 
L 304.537311 165.723132 
L 304.585155 164.677933 
L 304.664309 164.677933 
L 304.679282 163.632734 
L 305.008111 163.632734 
L 305.008111 163.110135 
L 305.228197 163.110135 
L 305.294572 161.542337 
L 305.349661 161.542337 
L 305.349661 161.019737 
L 305.557201 161.019737 
L 305.557201 160.497138 
L 305.757751 160.497138 
L 305.799981 159.451939 
L 306.364826 159.451939 
L 306.385363 158.40674 
L 306.580925 158.40674 
L 306.668725 156.838941 
L 306.700647 156.838941 
L 306.710559 155.793743 
L 306.838384 155.793743 
L 306.903331 154.748544 
L 307.472827 154.748544 
L 307.506427 153.703345 
L 307.698844 153.703345 
L 307.745879 152.658146 
L 307.995328 152.658146 
L 307.995328 152.135546 
L 308.354667 152.135546 
L 308.444711 151.090347 
L 308.706492 151.090347 
L 308.771765 149.522549 
L 308.858888 149.522549 
L 308.967907 148.47735 
L 309.008515 148.47735 
L 309.008515 147.954751 
L 309.654681 147.954751 
L 309.739537 146.909552 
L 309.930748 146.909552 
L 309.930748 146.386952 
L 310.049131 146.386952 
L 310.135642 145.341753 
L 310.244296 145.341753 
L 310.244296 144.819154 
L 310.435645 144.819154 
L 310.435645 144.296554 
L 311.401824 144.296554 
L 311.401824 143.773955 
L 311.556718 143.773955 
L 311.635851 142.728756 
L 311.679293 142.728756 
L 311.679293 142.206157 
L 311.813759 142.206157 
L 311.847285 141.160958 
L 312.082276 141.160958 
L 312.082276 140.638358 
L 312.567324 140.638358 
L 312.567324 140.115759 
L 313.139043 140.115759 
L 313.139043 139.593159 
L 313.347786 139.593159 
L 313.347786 139.07056 
L 313.468192 139.07056 
L 313.468192 138.54796 
L 313.970696 138.54796 
L 313.970696 138.025361 
L 314.486789 138.025361 
L 314.486789 137.502761 
L 315.335642 137.502761 
L 315.335642 136.980162 
L 315.642967 136.980162 
L 315.749789 135.934963 
L 316.552178 135.934963 
L 316.596334 134.889764 
L 316.95533 134.889764 
L 317.015463 133.844565 
L 317.533473 133.844565 
L 317.533473 133.321966 
L 317.766268 133.321966 
L 317.766268 132.799366 
L 318.086177 132.799366 
L 318.086177 132.276767 
L 319.09092 132.276767 
L 319.09092 131.754167 
L 319.461767 131.754167 
L 319.509828 130.708968 
L 320.040087 130.708968 
L 320.040087 130.186369 
L 320.757156 130.186369 
L 320.757156 129.66377 
L 321.078211 129.66377 
L 321.078211 129.14117 
L 321.959115 129.14117 
L 321.959115 128.618571 
L 322.387455 128.618571 
L 322.387455 128.095971 
L 322.937939 128.095971 
L 322.992388 127.050772 
L 323.334912 127.050772 
L 323.334912 126.528173 
L 323.481103 126.528173 
L 323.481103 126.005573 
L 323.671615 126.005573 
L 323.671615 125.482974 
L 324.612042 125.482974 
L 324.612042 124.960374 
L 324.880327 124.960374 
L 324.880327 124.437775 
L 325.131601 124.437775 
L 325.131601 123.915176 
L 325.635573 123.915176 
L 325.635573 123.392576 
L 325.872263 123.392576 
L 325.872263 122.869977 
L 326.603724 122.869977 
L 326.669218 121.824778 
L 327.080073 121.824778 
L 327.080073 121.302178 
L 327.461599 121.302178 
L 327.461599 120.779579 
L 327.623426 120.779579 
L 327.623426 120.256979 
L 327.790232 120.256979 
L 327.790232 119.73438 
L 328.563328 119.73438 
L 328.563328 119.21178 
L 328.914447 119.21178 
L 328.914447 118.689181 
L 329.337357 118.689181 
L 329.337357 118.166581 
L 329.58097 118.166581 
L 329.58097 117.643982 
L 329.729427 117.643982 
L 329.729427 117.121383 
L 331.266479 117.121383 
L 331.266479 116.598783 
L 332.647646 116.598783 
L 332.647646 116.076184 
L 333.351299 116.076184 
L 333.351299 115.553584 
L 333.627159 115.553584 
L 333.660371 113.985786 
L 334.321331 113.985786 
L 334.321331 113.463186 
L 334.463111 113.463186 
L 334.463111 112.940587 
L 334.646645 112.940587 
L 334.757251 111.372788 
L 335.315669 111.372788 
L 335.315669 110.850189 
L 335.88585 110.850189 
L 335.88585 110.32759 
L 336.07713 110.32759 
L 336.07713 109.80499 
L 336.935929 109.80499 
L 336.935929 109.282391 
L 337.064247 109.282391 
L 337.064247 108.759791 
L 337.337602 108.759791 
L 337.337602 108.237192 
L 337.61266 108.237192 
L 337.61266 107.714592 
L 338.020314 107.714592 
L 338.020314 107.191993 
L 338.600011 107.191993 
L 338.600011 106.669393 
L 338.935152 106.669393 
L 338.946908 105.624194 
L 339.223739 105.624194 
L 339.223739 105.101595 
L 339.36664 105.101595 
L 339.396593 103.533797 
L 339.689474 103.533797 
L 339.689474 103.011197 
L 339.887209 103.011197 
L 339.887209 102.488598 
L 340.12609 102.488598 
L 340.178713 100.920799 
L 340.370954 100.920799 
L 340.370954 100.3982 
L 341.605706 100.3982 
L 341.605706 99.8756 
L 341.786877 99.8756 
L 341.786877 99.353001 
L 342.027944 99.353001 
L 342.027944 98.830401 
L 342.228582 98.830401 
L 342.280621 97.785203 
L 342.469022 97.785203 
L 342.469022 97.262603 
L 342.593557 97.262603 
L 342.593557 96.740004 
L 343.61802 96.740004 
L 343.61802 96.217404 
L 343.812821 96.217404 
L 343.812821 95.694805 
L 343.947095 95.694805 
L 344.030599 94.649606 
L 344.175074 94.649606 
L 344.175074 94.127006 
L 344.358743 94.127006 
L 344.411292 93.081807 
L 344.541962 93.081807 
L 344.58895 92.036608 
L 344.666988 92.036608 
L 344.758529 90.99141 
L 344.826675 90.99141 
L 344.896453 89.423611 
L 345.040439 89.423611 
L 345.069871 88.378412 
L 345.290262 88.378412 
L 345.290262 87.855813 
L 345.902333 87.855813 
L 345.902333 87.333213 
L 346.54437 87.333213 
L 346.610705 86.288014 
L 346.672589 86.288014 
L 346.764447 85.242815 
L 346.865837 85.242815 
L 346.865837 84.720216 
L 347.454293 84.720216 
L 347.454293 84.197617 
L 347.675689 84.197617 
L 347.744624 83.152418 
L 347.865004 83.152418 
L 347.971755 81.584619 
L 348.077465 81.584619 
L 348.186245 80.53942 
L 348.3942 80.53942 
L 348.4986 78.971622 
L 348.99544 78.971622 
L 348.99544 78.449023 
L 349.127497 78.449023 
L 349.224828 76.881224 
L 349.303616 76.881224 
L 349.303616 76.358625 
L 349.417356 76.358625 
L 349.417356 75.836025 
L 349.576663 75.836025 
L 349.623945 74.790826 
L 349.788758 74.790826 
L 349.865729 72.700428 
L 349.963119 72.700428 
L 349.963119 72.177829 
L 350.431095 72.177829 
L 350.431095 71.65523 
L 350.591023 71.65523 
L 350.591023 71.13263 
L 350.850821 71.13263 
L 350.850821 70.610031 
L 351.02296 70.610031 
L 351.02296 70.087431 
L 351.197676 70.087431 
L 351.197676 69.564832 
L 351.491966 69.564832 
L 351.571513 68.519633 
L 351.62625 68.519633 
L 351.62625 67.997033 
L 351.787545 67.997033 
L 351.844183 66.429235 
L 352.025776 66.429235 
L 352.114835 65.384036 
L 352.175569 65.384036 
L 352.175569 64.861437 
L 352.374469 64.861437 
L 352.437058 63.816238 
L 352.509783 63.816238 
L 352.610695 62.771039 
L 352.63363 62.771039 
L 352.63363 62.248439 
L 352.808067 62.248439 
L 352.854515 61.20324 
L 352.934426 61.20324 
L 353.002486 60.158041 
L 353.05282 60.158041 
L 353.05282 59.635442 
L 353.17103 59.635442 
L 353.254319 57.022445 
L 353.34221 57.022445 
L 353.425152 54.932047 
L 353.534745 54.932047 
L 353.534745 54.409447 
L 353.683994 54.409447 
L 353.683994 53.886848 
L 353.841396 53.886848 
L 353.947321 51.79645 
L 353.991076 51.79645 
L 353.991076 51.273851 
L 354.195976 51.273851 
L 354.275292 49.706052 
L 354.346591 49.706052 
L 354.351481 48.660853 
L 354.507454 48.660853 
L 354.507454 48.138254 
L 354.878376 48.138254 
L 354.878376 47.615654 
L 355.26788 47.615654 
L 355.26788 47.093055 
L 355.719756 47.093055 
L 355.757312 46.047856 
L 356.056626 46.047856 
L 356.056626 45.525257 
L 356.289195 45.525257 
L 356.289195 45.002657 
L 356.445825 45.002657 
L 356.445825 44.480058 
L 356.562431 44.480058 
L 356.562431 43.957458 
L 356.829758 43.957458 
L 356.829758 43.434859 
L 357.157011 43.434859 
L 357.157011 42.912259 
L 357.284238 42.912259 
L 357.308181 41.86706 
L 357.428737 41.86706 
L 357.497248 40.299262 
L 357.571957 40.299262 
L 357.571957 39.776662 
L 357.712303 39.776662 
L 357.73482 38.731464 
L 358.082285 38.731464 
L 358.082285 38.208864 
L 358.32234 38.208864 
L 358.32234 37.686265 
L 358.829916 37.686265 
L 358.829916 37.163665 
L 359.088819 37.163665 
L 359.135469 36.118466 
L 359.337648 36.118466 
L 359.444844 35.073267 
L 359.659392 35.073267 
L 359.724986 34.028068 
L 359.894359 34.028068 
L 359.894359 33.505469 
L 360.14246 33.505469 
L 360.206361 32.46027 
L 360.484127 32.46027 
L 360.484127 31.937671 
L 360.802446 31.937671 
L 360.808698 30.892472 
L 361.027248 30.892472 
L 361.027248 30.369872 
L 361.22955 30.369872 
L 361.231402 29.324673 
L 361.559514 29.324673 
L 361.559514 28.802074 
L 361.90771 28.802074 
L 361.90771 28.279474 
L 362.129672 28.279474 
L 362.129672 27.756875 
L 362.697826 27.756875 
L 362.697826 27.234275 
L 363.169098 27.234275 
L 363.169098 26.711676 
L 364.132653 26.711676 
L 364.132653 26.189077 
L 364.37199 26.189077 
L 364.37199 25.666477 
L 364.501254 25.666477 
L 364.501254 25.143878 
L 365.36386 25.143878 
L 365.36386 24.621278 
L 365.648426 24.621278 
L 365.648426 24.098679 
L 366.114131 24.098679 
L 366.114131 23.576079 
L 366.231656 23.576079 
L 366.231656 23.05348 
L 366.411751 23.05348 
L 366.430193 22.008281 
L 366.693222 22.008281 
L 366.693222 21.485681 
L 367.086634 21.485681 
L 367.086634 20.963082 
L 367.482371 20.963082 
L 367.571845 19.917883 
L 367.822272 19.917883 
L 367.822272 19.395284 
L 368.029922 19.395284 
L 368.040439 18.350085 
L 368.21099 18.350085 
L 368.21099 17.827485 
L 368.715116 17.827485 
L 368.715116 17.304886 
L 368.904686 17.304886 
L 368.904686 16.782286 
L 369.112338 16.782286 
L 369.112338 16.259687 
L 369.261703 16.259687 
L 369.367064 15.214488 
L 369.630892 15.214488 
L 369.630892 14.691888 
L 370.107841 14.691888 
L 370.107841 14.169289 
L 371.02487 14.169289 
L 371.02487 13.646689 
L 372.950826 13.646689 
L 372.950826 13.12409 
L 373.182197 13.12409 
L 373.182197 12.601491 
L 375.452028 12.601491 
L 375.487888 11.556292 
L 376.647739 11.556292 
L 376.647739 11.033692 
L 376.944187 11.033692 
L 376.944187 10.511093 
L 378.13692 10.511093 
L 378.13692 9.988493 
L 379.214483 9.988493 
L 379.214483 9.465894 
L 381.099814 9.465894 
L 381.099814 8.943294 
L 382.194136 8.943294 
L 382.194136 8.420695 
L 386.152877 8.420695 
L 386.152877 7.898095 
L 390.151499 7.898095 
L 390.151499 7.375496 
L 397.511803 7.375496 
L 397.511803 6.852896 
L 403.071897 6.852896 
L 403.071897 6.330297 
L 403.071897 6.330297 
L 460.8 6.330297 
L 460.8 6.330297 
" style="fill:none;stroke:#ff0000;stroke-linecap:square;stroke-width:3;"/>
   </g>
   <g id="line2d_22">
    <path clip-path="url(#p292b2be3ea)" d="M 259.34371 293.76 
L 259.34371 293.237401 
L 259.978951 293.237401 
L 259.978951 292.714801 
L 260.255479 292.714801 
L 260.255479 292.192202 
L 261.185954 292.192202 
L 261.224918 291.147003 
L 262.40145 291.147003 
L 262.40145 290.624403 
L 263.663852 290.624403 
L 263.663852 290.101804 
L 264.528252 290.101804 
L 264.587297 288.534005 
L 266.41934 288.534005 
L 266.41934 288.011406 
L 267.289697 288.011406 
L 267.289697 287.488806 
L 270.033204 287.488806 
L 270.033204 286.966207 
L 270.303078 286.966207 
L 270.303078 286.443608 
L 272.187475 286.443608 
L 272.187475 285.921008 
L 274.161739 285.921008 
L 274.161739 285.398409 
L 275.551428 285.398409 
L 275.551428 284.875809 
L 276.500346 284.875809 
L 276.500346 284.35321 
L 278.015036 284.35321 
L 278.052868 283.308011 
L 279.19087 283.308011 
L 279.19087 282.785411 
L 280.670527 282.785411 
L 280.700085 281.217613 
L 281.731596 281.217613 
L 281.731596 280.695014 
L 283.653035 280.695014 
L 283.653035 280.172414 
L 283.917331 280.172414 
L 283.917331 279.649815 
L 284.690583 279.649815 
L 284.690583 279.127215 
L 285.295863 279.127215 
L 285.295863 278.604616 
L 285.73354 278.604616 
L 285.838995 277.559417 
L 286.067938 277.559417 
L 286.067938 277.036817 
L 286.367151 277.036817 
L 286.367151 276.514218 
L 286.698702 276.514218 
L 286.698702 275.991618 
L 286.893782 275.991618 
L 286.981337 274.946419 
L 287.096876 274.946419 
L 287.16486 273.901221 
L 287.263693 273.901221 
L 287.291283 272.856022 
L 287.849481 272.856022 
L 287.849481 272.333422 
L 288.215515 272.333422 
L 288.241279 271.288223 
L 288.380022 271.288223 
L 288.406006 270.243024 
L 288.617751 270.243024 
L 288.617751 269.720425 
L 288.785754 269.720425 
L 288.785754 269.197825 
L 288.909127 269.197825 
L 288.991873 268.152626 
L 289.118822 268.152626 
L 289.118822 267.630027 
L 289.338656 267.630027 
L 289.338656 267.107428 
L 289.700756 267.107428 
L 289.700756 266.584828 
L 289.81682 266.584828 
L 289.81682 266.062229 
L 289.977394 266.062229 
L 289.977394 265.539629 
L 290.210715 265.539629 
L 290.210715 265.01703 
L 290.376045 265.01703 
L 290.470207 263.449231 
L 290.684371 263.449231 
L 290.684371 262.926632 
L 290.860601 262.926632 
L 290.860601 262.404032 
L 291.088526 262.404032 
L 291.121447 261.358833 
L 291.289655 261.358833 
L 291.396987 260.313635 
L 291.579199 260.313635 
L 291.615001 259.268436 
L 291.779581 259.268436 
L 291.779581 258.745836 
L 292.063298 258.745836 
L 292.063298 258.223237 
L 292.276583 258.223237 
L 292.276583 257.700637 
L 292.436914 257.700637 
L 292.478604 255.610239 
L 292.611688 255.610239 
L 292.699101 253.519842 
L 292.979495 253.519842 
L 293.037746 252.474643 
L 293.336674 252.474643 
L 293.432551 250.906844 
L 293.515325 250.906844 
L 293.613044 249.339046 
L 293.999989 249.339046 
L 294.01703 248.293847 
L 294.111321 248.293847 
L 294.111321 247.771248 
L 294.227817 247.771248 
L 294.227817 247.248648 
L 294.380246 247.248648 
L 294.380246 246.726049 
L 294.56494 246.726049 
L 294.630048 245.68085 
L 295.124647 245.68085 
L 295.210894 244.635651 
L 295.250195 244.635651 
L 295.297411 243.590452 
L 295.39442 243.590452 
L 295.39442 243.067852 
L 295.638551 243.067852 
L 295.638551 242.545253 
L 295.814201 242.545253 
L 295.924013 240.977455 
L 295.951016 240.977455 
L 296.014397 238.364457 
L 296.409263 238.364457 
L 296.431211 237.319258 
L 296.55241 237.319258 
L 296.554567 236.274059 
L 297.102646 236.274059 
L 297.102646 235.75146 
L 297.292505 235.75146 
L 297.292505 235.22886 
L 297.966319 235.22886 
L 298.001879 234.183662 
L 298.261738 234.183662 
L 298.30917 233.138463 
L 298.386678 233.138463 
L 298.419309 231.570664 
L 298.53822 231.570664 
L 298.641262 230.002866 
L 298.715051 230.002866 
L 298.715051 229.480266 
L 298.870764 229.480266 
L 298.920911 227.389869 
L 298.98525 227.389869 
L 299.027458 226.34467 
L 299.142995 226.34467 
L 299.142995 225.82207 
L 299.367445 225.82207 
L 299.367445 225.299471 
L 299.615781 225.299471 
L 299.626109 224.254272 
L 299.771218 224.254272 
L 299.836461 222.686473 
L 299.927949 222.686473 
L 300.003408 220.073476 
L 300.139546 220.073476 
L 300.139546 219.550877 
L 300.279028 219.550877 
L 300.354721 218.505678 
L 300.397096 218.505678 
L 300.406603 217.460479 
L 300.528206 217.460479 
L 300.628532 216.41528 
L 300.64321 216.41528 
L 300.64321 215.89268 
L 301.101077 215.89268 
L 301.122294 213.802283 
L 301.228146 213.802283 
L 301.321541 212.234484 
L 301.361895 212.234484 
L 301.361895 211.711885 
L 301.564658 211.711885 
L 301.637307 209.098887 
L 301.764557 209.098887 
L 301.811445 207.531089 
L 301.902433 207.531089 
L 301.907724 205.963291 
L 302.161517 205.963291 
L 302.197945 204.918092 
L 302.361128 204.918092 
L 302.419687 203.350293 
L 302.510826 203.350293 
L 302.613228 200.214697 
L 302.678618 200.214697 
L 302.772616 198.646898 
L 302.889749 198.646898 
L 302.97883 197.0791 
L 303.110387 197.0791 
L 303.176144 194.466103 
L 303.272797 194.466103 
L 303.28335 193.420904 
L 303.449851 193.420904 
L 303.518429 192.375705 
L 303.720148 192.375705 
L 303.741655 191.330506 
L 303.841102 191.330506 
L 303.841102 190.807906 
L 303.991639 190.807906 
L 303.991639 190.285307 
L 304.232229 190.285307 
L 304.232229 189.762707 
L 304.458651 189.762707 
L 304.529738 188.717509 
L 304.667917 188.717509 
L 304.667917 188.194909 
L 304.806543 188.194909 
L 304.902773 187.14971 
L 304.965076 187.14971 
L 305.017205 186.104511 
L 305.200911 186.104511 
L 305.296631 185.059312 
L 305.607611 185.059312 
L 305.607611 184.536713 
L 305.75215 184.536713 
L 305.799981 183.491514 
L 305.985064 183.491514 
L 305.985064 182.968914 
L 306.113092 182.968914 
L 306.182818 180.878517 
L 306.364826 180.878517 
L 306.377612 179.833318 
L 306.670037 179.833318 
L 306.670037 179.310718 
L 306.792555 179.310718 
L 306.903331 177.74292 
L 307.099466 177.74292 
L 307.106521 176.697721 
L 307.244681 176.697721 
L 307.256588 175.652522 
L 307.472827 175.652522 
L 307.472827 175.129923 
L 307.816134 175.129923 
L 307.899224 174.084724 
L 307.958142 174.084724 
L 308.065558 173.039525 
L 308.189519 173.039525 
L 308.250223 171.994326 
L 308.311701 171.994326 
L 308.336598 170.949127 
L 308.440985 170.949127 
L 308.508454 169.903928 
L 308.669835 169.903928 
L 308.669835 169.381329 
L 308.866689 169.381329 
L 308.866689 168.858729 
L 309.104021 168.858729 
L 309.104021 168.33613 
L 309.295205 168.33613 
L 309.295205 167.81353 
L 309.467607 167.81353 
L 309.467607 167.290931 
L 309.81503 167.290931 
L 309.897783 166.245732 
L 309.935728 166.245732 
L 309.935728 165.723132 
L 310.957265 165.723132 
L 310.987411 163.632734 
L 311.304002 163.632734 
L 311.304002 163.110135 
L 311.661976 163.110135 
L 311.661976 162.587536 
L 312.375134 162.587536 
L 312.375134 162.064936 
L 312.87191 162.064936 
L 312.87191 161.542337 
L 313.158229 161.542337 
L 313.158229 161.019737 
L 313.27475 161.019737 
L 313.27475 160.497138 
L 313.891891 160.497138 
L 313.891891 159.974538 
L 314.045856 159.974538 
L 314.059971 158.929339 
L 314.340613 158.929339 
L 314.340613 158.40674 
L 314.773388 158.40674 
L 314.773388 157.88414 
L 315.031916 157.88414 
L 315.031916 157.361541 
L 315.515894 157.361541 
L 315.515894 156.838941 
L 316.015832 156.838941 
L 316.015832 156.316342 
L 316.434795 156.316342 
L 316.434795 155.793743 
L 316.789098 155.793743 
L 316.789098 155.271143 
L 316.95533 155.271143 
L 316.95533 154.748544 
L 317.094067 154.748544 
L 317.094067 154.225944 
L 317.631087 154.225944 
L 317.631087 153.703345 
L 317.766268 153.703345 
L 317.766268 153.180745 
L 317.902985 153.180745 
L 317.902985 152.658146 
L 318.073587 152.658146 
L 318.117985 151.090347 
L 318.434418 151.090347 
L 318.434418 150.567748 
L 319.667935 150.567748 
L 319.667935 150.045149 
L 319.864162 150.045149 
L 319.864162 149.522549 
L 320.571016 149.522549 
L 320.571016 148.99995 
L 320.757156 148.99995 
L 320.757156 148.47735 
L 321.164924 148.47735 
L 321.164924 147.954751 
L 321.904972 147.954751 
L 321.904972 147.432151 
L 322.198375 147.432151 
L 322.220609 146.386952 
L 322.387455 146.386952 
L 322.387455 145.864353 
L 322.928847 145.864353 
L 322.928847 145.341753 
L 323.471071 145.341753 
L 323.481103 144.296554 
L 323.77475 144.296554 
L 323.838928 142.728756 
L 325.131601 142.728756 
L 325.241923 141.683557 
L 325.635573 141.683557 
L 325.635573 141.160958 
L 326.669218 141.160958 
L 326.669218 140.638358 
L 327.623426 140.638358 
L 327.623426 140.115759 
L 327.790232 140.115759 
L 327.790232 139.593159 
L 328.932587 139.593159 
L 328.932587 139.07056 
L 329.337357 139.07056 
L 329.337357 138.54796 
L 331.745418 138.54796 
L 331.745418 138.025361 
L 332.404427 138.025361 
L 332.404427 137.502761 
L 333.653784 137.502761 
L 333.660371 136.457563 
L 334.074289 136.457563 
L 334.074289 135.934963 
L 334.408574 135.934963 
L 334.408574 135.412364 
L 334.646645 135.412364 
L 334.646645 134.889764 
L 335.88585 134.889764 
L 335.88585 134.367165 
L 336.42544 134.367165 
L 336.42544 133.844565 
L 338.330993 133.844565 
L 338.330993 133.321966 
L 338.778283 133.321966 
L 338.778283 132.799366 
L 338.935152 132.799366 
L 338.935152 132.276767 
L 339.061109 132.276767 
L 339.061109 131.754167 
L 339.689474 131.754167 
L 339.689474 131.231568 
L 340.009827 131.231568 
L 340.009827 130.708968 
L 340.12609 130.708968 
L 340.12609 130.186369 
L 340.490516 130.186369 
L 340.490516 129.66377 
L 340.802695 129.66377 
L 340.802695 129.14117 
L 341.290681 129.14117 
L 341.290681 128.618571 
L 341.605706 128.618571 
L 341.605706 128.095971 
L 341.984278 128.095971 
L 341.984278 127.573372 
L 342.204181 127.573372 
L 342.204181 127.050772 
L 342.593557 127.050772 
L 342.593557 126.528173 
L 344.049421 126.528173 
L 344.049421 126.005573 
L 344.408008 126.005573 
L 344.438769 124.960374 
L 344.67537 124.960374 
L 344.67537 124.437775 
L 344.826675 124.437775 
L 344.826675 123.915176 
L 345.040439 123.915176 
L 345.040439 123.392576 
L 345.752357 123.392576 
L 345.798621 122.347377 
L 345.902333 122.347377 
L 345.902333 121.824778 
L 346.672589 121.824778 
L 346.672589 121.302178 
L 347.380224 121.302178 
L 347.380224 120.779579 
L 347.597761 120.779579 
L 347.675689 119.73438 
L 348.1329 119.73438 
L 348.1329 119.21178 
L 348.555657 119.21178 
L 348.555657 118.689181 
L 349.077788 118.689181 
L 349.077788 118.166581 
L 349.22763 118.166581 
L 349.324784 117.121383 
L 349.456373 117.121383 
L 349.456373 116.598783 
L 349.818734 116.598783 
L 349.926085 115.030985 
L 350.069632 115.030985 
L 350.069632 114.508385 
L 350.58069 114.508385 
L 350.600496 113.463186 
L 350.729741 113.463186 
L 350.826108 112.417987 
L 351.180368 112.417987 
L 351.180368 111.895388 
L 352.289836 111.895388 
L 352.289836 111.372788 
L 352.514603 111.372788 
L 352.514603 110.850189 
L 352.914401 110.850189 
L 352.914401 110.32759 
L 353.05282 110.32759 
L 353.05282 109.80499 
L 353.221365 109.80499 
L 353.265283 108.759791 
L 353.34221 108.759791 
L 353.386145 107.714592 
L 353.76716 107.714592 
L 353.76716 107.191993 
L 353.991076 107.191993 
L 353.991076 106.669393 
L 354.112853 106.669393 
L 354.124589 105.624194 
L 354.233985 105.624194 
L 354.258477 104.056396 
L 354.346591 104.056396 
L 354.346591 103.533797 
L 354.468951 103.533797 
L 354.544354 102.488598 
L 354.682428 102.488598 
L 354.682428 101.965998 
L 354.816361 101.965998 
L 354.86667 100.920799 
L 355.363506 100.920799 
L 355.363506 100.3982 
L 355.505589 100.3982 
L 355.55019 99.353001 
L 355.719756 99.353001 
L 355.719756 98.830401 
L 355.846771 98.830401 
L 355.924083 96.740004 
L 355.95911 96.740004 
L 355.95911 96.217404 
L 356.138826 96.217404 
L 356.138826 95.694805 
L 356.421795 95.694805 
L 356.445825 94.649606 
L 356.537514 94.649606 
L 356.569398 93.081807 
L 356.692318 93.081807 
L 356.692318 92.559208 
L 356.866217 92.559208 
L 356.866217 92.036608 
L 357.001802 92.036608 
L 357.001802 91.514009 
L 357.148418 91.514009 
L 357.212516 89.946211 
L 357.478493 89.946211 
L 357.478493 89.423611 
L 357.712303 89.423611 
L 357.712303 88.901012 
L 357.855243 88.901012 
L 357.886947 87.855813 
L 357.984331 87.855813 
L 358.082285 86.810614 
L 358.188028 86.810614 
L 358.200388 85.765415 
L 358.458605 85.765415 
L 358.458605 85.242815 
L 358.577885 85.242815 
L 358.659288 84.197617 
L 358.770627 84.197617 
L 358.770627 83.675017 
L 358.90328 83.675017 
L 358.951266 82.107219 
L 359.337648 82.107219 
L 359.337648 81.584619 
L 359.801321 81.584619 
L 359.801321 81.06202 
L 360.183825 81.06202 
L 360.202971 80.016821 
L 360.480623 80.016821 
L 360.582485 78.971622 
L 360.681285 78.971622 
L 360.681285 78.449023 
L 360.920858 78.449023 
L 360.920858 77.926423 
L 361.214062 77.926423 
L 361.231402 76.881224 
L 361.337073 76.881224 
L 361.337073 76.358625 
L 361.480029 76.358625 
L 361.480029 75.836025 
L 362.03966 75.836025 
L 362.129672 74.790826 
L 362.356053 74.790826 
L 362.394533 73.745627 
L 362.480409 73.745627 
L 362.480409 73.223028 
L 362.808303 73.223028 
L 362.86188 72.177829 
L 362.988511 72.177829 
L 363.018345 71.13263 
L 363.394423 71.13263 
L 363.394423 70.610031 
L 363.874934 70.610031 
L 363.888343 69.564832 
L 364.132653 69.564832 
L 364.206646 68.519633 
L 364.415996 68.519633 
L 364.415996 67.997033 
L 364.531317 67.997033 
L 364.60932 66.951834 
L 365.148235 66.951834 
L 365.240609 64.861437 
L 365.56011 64.861437 
L 365.580364 63.816238 
L 365.743329 63.816238 
L 365.743329 63.293638 
L 365.932069 63.293638 
L 365.932069 62.771039 
L 366.114131 62.771039 
L 366.114131 62.248439 
L 366.231656 62.248439 
L 366.282115 61.20324 
L 366.372441 61.20324 
L 366.372441 60.680641 
L 366.556882 60.680641 
L 366.556882 60.158041 
L 366.91145 60.158041 
L 366.91145 59.635442 
L 367.045175 59.635442 
L 367.045175 59.112842 
L 367.306978 59.112842 
L 367.322133 58.067644 
L 367.482371 58.067644 
L 367.482371 57.545044 
L 367.822272 57.545044 
L 367.824237 56.499845 
L 368.029922 56.499845 
L 368.093498 55.454646 
L 368.350471 55.454646 
L 368.451437 53.886848 
L 368.631177 53.886848 
L 368.631177 53.364248 
L 368.794995 53.364248 
L 368.904686 52.31905 
L 368.987193 52.31905 
L 368.987193 51.79645 
L 369.263663 51.79645 
L 369.30416 50.751251 
L 369.807575 50.751251 
L 369.816363 49.706052 
L 370.149178 49.706052 
L 370.19 48.660853 
L 370.584698 48.660853 
L 370.584698 48.138254 
L 370.724305 48.138254 
L 370.724305 47.615654 
L 371.00792 47.615654 
L 371.02487 46.570455 
L 371.165696 46.570455 
L 371.174762 45.525257 
L 371.475443 45.525257 
L 371.475443 45.002657 
L 371.821836 45.002657 
L 371.862801 43.957458 
L 372.049491 43.957458 
L 372.049491 43.434859 
L 372.294071 43.434859 
L 372.393731 42.38966 
L 372.522742 42.38966 
L 372.522742 41.86706 
L 372.799337 41.86706 
L 372.799337 41.344461 
L 373.989166 41.344461 
L 373.989166 40.821861 
L 374.469964 40.821861 
L 374.469964 40.299262 
L 374.609461 40.299262 
L 374.705283 38.731464 
L 375.487888 38.731464 
L 375.588755 37.686265 
L 375.692637 37.686265 
L 375.795554 36.641066 
L 375.927907 36.641066 
L 375.927907 36.118466 
L 376.377493 36.118466 
L 376.44664 35.073267 
L 376.647739 35.073267 
L 376.756428 34.028068 
L 376.888124 34.028068 
L 376.888124 33.505469 
L 377.084118 33.505469 
L 377.084118 32.982869 
L 377.421369 32.982869 
L 377.421369 32.46027 
L 377.628652 32.46027 
L 377.738422 31.415071 
L 377.895371 31.415071 
L 377.94689 30.369872 
L 378.633945 30.369872 
L 378.633945 29.847273 
L 378.782626 29.847273 
L 378.810646 28.802074 
L 379.214483 28.802074 
L 379.214483 28.279474 
L 379.566201 28.279474 
L 379.566201 27.756875 
L 380.03634 27.756875 
L 380.03634 27.234275 
L 380.470972 27.234275 
L 380.470972 26.711676 
L 380.60994 26.711676 
L 380.60994 26.189077 
L 381.413554 26.189077 
L 381.413554 25.666477 
L 382.194136 25.666477 
L 382.194136 25.143878 
L 383.114287 25.143878 
L 383.114287 24.621278 
L 384.815759 24.621278 
L 384.815759 24.098679 
L 385.068777 24.098679 
L 385.068777 23.576079 
L 385.755591 23.576079 
L 385.755591 23.05348 
L 386.03026 23.05348 
L 386.03026 22.53088 
L 387.112152 22.53088 
L 387.112152 22.008281 
L 390.131768 22.008281 
L 390.131768 21.485681 
L 390.278133 21.485681 
L 390.278133 20.963082 
L 392.570412 20.963082 
L 392.570412 20.440482 
L 393.864402 20.440482 
L 393.864402 19.917883 
L 394.032567 19.917883 
L 394.032567 19.395284 
L 394.597505 19.395284 
L 394.597505 18.872684 
L 395.099275 18.872684 
L 395.099275 18.350085 
L 395.48157 18.350085 
L 395.56688 17.304886 
L 395.867629 17.304886 
L 395.867629 16.782286 
L 396.245883 16.782286 
L 396.345282 15.737087 
L 397.552271 15.737087 
L 397.552271 15.214488 
L 398.718393 15.214488 
L 398.718393 14.691888 
L 398.878314 14.691888 
L 398.878314 14.169289 
L 399.592951 14.169289 
L 399.592951 13.646689 
L 400.27788 13.646689 
L 400.27788 13.12409 
L 402.430949 13.12409 
L 402.430949 12.601491 
L 405.12372 12.601491 
L 405.12372 12.078891 
L 407.441619 12.078891 
L 407.441619 11.556292 
L 407.828011 11.556292 
L 407.828011 11.033692 
L 408.27542 11.033692 
L 408.27542 10.511093 
L 411.580071 10.511093 
L 411.580071 9.988493 
L 412.967052 9.988493 
L 412.967052 9.465894 
L 415.192525 9.465894 
L 415.192525 8.943294 
L 418.17902 8.943294 
L 418.17902 8.420695 
L 420.852584 8.420695 
L 420.852584 7.898095 
L 421.600716 7.898095 
L 421.600716 7.375496 
L 423.873654 7.375496 
L 423.873654 6.852896 
L 451.128853 6.852896 
L 451.128853 6.330297 
L 451.128853 6.330297 
L 460.8 6.330297 
L 460.8 6.330297 
" style="fill:none;stroke:#00bfbf;stroke-linecap:square;stroke-width:1.5;"/>
   </g>
   <g id="line2d_23">
    <path clip-path="url(#p292b2be3ea)" d="M 259.213617 293.76 
L 259.213617 293.237401 
L 259.34371 293.237401 
L 259.34371 292.714801 
L 259.978951 292.714801 
L 259.978951 292.192202 
L 260.255479 292.192202 
L 260.284205 291.147003 
L 261.185954 291.147003 
L 261.185954 290.624403 
L 261.894985 290.624403 
L 261.894985 290.101804 
L 262.782533 290.101804 
L 262.782533 289.579204 
L 263.663852 289.579204 
L 263.663852 289.056605 
L 263.898356 289.056605 
L 263.898356 288.534005 
L 264.530709 288.534005 
L 264.530709 288.011406 
L 265.047981 288.011406 
L 265.047981 287.488806 
L 266.41934 287.488806 
L 266.41934 286.966207 
L 267.289697 286.966207 
L 267.289697 286.443608 
L 267.662791 286.443608 
L 267.662791 285.921008 
L 269.416908 285.921008 
L 269.416908 285.398409 
L 270.303078 285.398409 
L 270.303078 284.875809 
L 272.187475 284.875809 
L 272.187475 284.35321 
L 272.889603 284.35321 
L 272.889603 283.83061 
L 274.161739 283.83061 
L 274.161739 283.308011 
L 274.407304 283.308011 
L 274.407304 282.785411 
L 275.551428 282.785411 
L 275.551428 282.262812 
L 276.22504 282.262812 
L 276.22504 281.740212 
L 276.84693 281.740212 
L 276.873764 280.695014 
L 277.767369 280.695014 
L 277.767369 280.172414 
L 279.219297 280.172414 
L 279.219297 279.649815 
L 280.37902 279.649815 
L 280.37902 279.127215 
L 280.693283 279.127215 
L 280.693283 278.604616 
L 280.867063 278.604616 
L 280.867063 278.082016 
L 281.731596 278.082016 
L 281.813391 277.036817 
L 281.862841 277.036817 
L 281.862841 276.514218 
L 282.266707 276.514218 
L 282.266707 275.991618 
L 282.63588 275.991618 
L 282.63588 275.469019 
L 283.304459 275.469019 
L 283.304459 274.946419 
L 283.535329 274.946419 
L 283.555537 273.901221 
L 284.278338 273.901221 
L 284.278338 273.378621 
L 284.690583 273.378621 
L 284.690583 272.856022 
L 285.295863 272.856022 
L 285.295863 272.333422 
L 285.73354 272.333422 
L 285.838995 271.288223 
L 285.9962 271.288223 
L 286.067938 270.243024 
L 286.157848 270.243024 
L 286.157848 269.720425 
L 286.698702 269.720425 
L 286.698702 269.197825 
L 286.81303 269.197825 
L 286.81303 268.675226 
L 286.981337 268.675226 
L 286.981337 268.152626 
L 287.156344 268.152626 
L 287.238841 267.107428 
L 287.549199 267.107428 
L 287.642934 265.539629 
L 287.849481 265.539629 
L 287.885973 264.49443 
L 287.981222 264.49443 
L 287.981222 263.971831 
L 288.215515 263.971831 
L 288.215515 263.449231 
L 288.406006 263.449231 
L 288.406006 262.926632 
L 288.785754 262.926632 
L 288.830919 261.881433 
L 289.118822 261.881433 
L 289.118822 261.358833 
L 289.338656 261.358833 
L 289.338656 260.836234 
L 289.81682 260.836234 
L 289.81682 260.313635 
L 289.953022 260.313635 
L 290.04945 259.268436 
L 290.075146 259.268436 
L 290.085257 258.223237 
L 290.210715 258.223237 
L 290.210715 257.700637 
L 290.376045 257.700637 
L 290.470207 256.132839 
L 290.684371 256.132839 
L 290.728155 255.08764 
L 290.824438 255.08764 
L 290.860601 254.042441 
L 291.121447 254.042441 
L 291.195678 252.474643 
L 291.289655 252.474643 
L 291.396987 251.429444 
L 291.548522 251.429444 
L 291.548522 250.906844 
L 291.779581 250.906844 
L 291.813233 249.861645 
L 291.891483 249.861645 
L 291.986691 248.816446 
L 292.139315 248.816446 
L 292.139315 248.293847 
L 292.276583 248.293847 
L 292.276583 247.771248 
L 292.478604 247.771248 
L 292.519703 246.726049 
L 292.660453 246.726049 
L 292.660453 246.203449 
L 292.979495 246.203449 
L 293.037746 245.15825 
L 293.25289 245.15825 
L 293.336674 244.113051 
L 293.372459 244.113051 
L 293.372459 243.590452 
L 293.579825 243.590452 
L 293.613044 242.545253 
L 293.77999 242.545253 
L 293.779997 241.500054 
L 294.01703 241.500054 
L 294.111321 239.932256 
L 294.271248 239.932256 
L 294.380246 238.887057 
L 294.56494 238.887057 
L 294.630048 237.841858 
L 294.738968 237.841858 
L 294.738968 237.319258 
L 295.029828 237.319258 
L 295.124647 236.274059 
L 295.297411 236.274059 
L 295.297411 235.75146 
L 295.41175 235.75146 
L 295.427734 234.706261 
L 295.629336 234.706261 
L 295.640559 233.138463 
L 295.814201 233.138463 
L 295.897462 232.093264 
L 295.951016 232.093264 
L 296.037761 230.525465 
L 296.174911 230.525465 
L 296.174911 230.002866 
L 296.409263 230.002866 
L 296.409263 229.480266 
L 296.55241 229.480266 
L 296.55241 228.957667 
L 296.675849 228.957667 
L 296.758249 226.34467 
L 296.894107 226.34467 
L 296.894107 225.82207 
L 297.102646 225.82207 
L 297.102646 225.299471 
L 297.338261 225.299471 
L 297.338261 224.776871 
L 297.566776 224.776871 
L 297.566776 224.254272 
L 297.678996 224.254272 
L 297.678996 223.731672 
L 297.836903 223.731672 
L 297.917001 222.163874 
L 297.966319 222.163874 
L 297.966319 221.641275 
L 298.186838 221.641275 
L 298.261738 220.596076 
L 298.30917 220.596076 
L 298.408853 219.550877 
L 298.511482 219.550877 
L 298.53822 218.505678 
L 298.715051 218.505678 
L 298.715051 217.983078 
L 298.870764 217.983078 
L 298.95341 216.41528 
L 298.98525 216.41528 
L 299.031571 215.370081 
L 299.130401 215.370081 
L 299.13979 214.324882 
L 299.367445 214.324882 
L 299.407452 213.279683 
L 299.545907 213.279683 
L 299.646288 210.144086 
L 299.771218 210.144086 
L 299.836461 208.576288 
L 299.931833 208.576288 
L 300.003408 207.00849 
L 300.052614 207.00849 
L 300.052614 206.48589 
L 300.279028 206.48589 
L 300.359568 203.872893 
L 300.397096 203.872893 
L 300.492784 202.305095 
L 300.528206 202.305095 
L 300.55859 201.259896 
L 300.6407 201.259896 
L 300.6407 200.737296 
L 300.778119 200.737296 
L 300.778119 200.214697 
L 300.913962 200.214697 
L 300.943544 199.169498 
L 301.041541 199.169498 
L 301.108461 197.0791 
L 301.177064 197.0791 
L 301.218576 196.033901 
L 301.309551 196.033901 
L 301.406868 193.420904 
L 301.450257 193.420904 
L 301.557599 191.330506 
L 301.564658 191.330506 
L 301.637307 189.240108 
L 301.756908 189.240108 
L 301.863619 186.104511 
L 301.966757 186.104511 
L 302.07118 184.014113 
L 302.166461 184.014113 
L 302.257729 182.968914 
L 302.361128 182.968914 
L 302.361128 182.446315 
L 302.510826 182.446315 
L 302.613228 179.833318 
L 302.706743 179.833318 
L 302.706743 179.310718 
L 302.97883 179.310718 
L 302.97883 178.788119 
L 303.17291 178.788119 
L 303.272797 176.697721 
L 303.449851 176.697721 
L 303.518429 175.129923 
L 303.741655 175.129923 
L 303.741655 174.607323 
L 303.991639 174.607323 
L 303.991639 174.084724 
L 304.406065 174.084724 
L 304.406065 173.562124 
L 304.529738 173.562124 
L 304.537311 172.516925 
L 304.664309 172.516925 
L 304.679282 170.949127 
L 304.788875 170.949127 
L 304.788875 170.426527 
L 305.358632 170.426527 
L 305.467954 168.858729 
L 305.573772 168.858729 
L 305.573772 168.33613 
L 305.75215 168.33613 
L 305.799981 167.290931 
L 305.937949 167.290931 
L 305.985064 166.245732 
L 306.364826 166.245732 
L 306.364826 165.723132 
L 306.650125 165.723132 
L 306.650125 165.200533 
L 306.792555 165.200533 
L 306.903331 163.632734 
L 306.996689 163.632734 
L 306.996689 163.110135 
L 307.334031 163.110135 
L 307.334031 162.587536 
L 307.472827 162.587536 
L 307.472827 162.064936 
L 307.698844 162.064936 
L 307.698844 161.542337 
L 307.816134 161.542337 
L 307.816134 161.019737 
L 308.065558 161.019737 
L 308.121497 159.974538 
L 308.189519 159.974538 
L 308.278347 158.40674 
L 308.706492 158.40674 
L 308.721983 156.838941 
L 309.020828 156.838941 
L 309.104021 155.793743 
L 309.589597 155.793743 
L 309.589597 155.271143 
L 309.722881 155.271143 
L 309.739537 154.225944 
L 309.930748 154.225944 
L 309.930748 153.703345 
L 310.244296 153.703345 
L 310.244296 153.180745 
L 310.364252 153.180745 
L 310.435645 152.135546 
L 310.504933 152.135546 
L 310.504933 151.612947 
L 311.304002 151.612947 
L 311.304002 151.090347 
L 311.635851 151.090347 
L 311.635851 150.567748 
L 311.897421 150.567748 
L 311.897421 150.045149 
L 312.082276 150.045149 
L 312.134898 148.99995 
L 312.279227 148.99995 
L 312.279227 148.47735 
L 312.567324 148.47735 
L 312.567324 147.954751 
L 312.739108 147.954751 
L 312.739108 147.432151 
L 313.347786 147.432151 
L 313.347786 146.909552 
L 314.486789 146.909552 
L 314.486789 146.386952 
L 315.335642 146.386952 
L 315.425633 145.341753 
L 315.642967 145.341753 
L 315.642967 144.819154 
L 316.387773 144.819154 
L 316.387773 144.296554 
L 316.789098 144.296554 
L 316.789098 143.773955 
L 316.95533 143.773955 
L 316.95533 143.251356 
L 317.369872 143.251356 
L 317.369872 142.728756 
L 317.766268 142.728756 
L 317.766268 142.206157 
L 317.902985 142.206157 
L 317.94092 141.160958 
L 319.09092 141.160958 
L 319.09092 140.638358 
L 319.461767 140.638358 
L 319.461767 140.115759 
L 320.040087 140.115759 
L 320.040087 139.593159 
L 320.757156 139.593159 
L 320.757156 139.07056 
L 321.001683 139.07056 
L 321.078211 138.025361 
L 321.164924 138.025361 
L 321.164924 137.502761 
L 322.220609 137.502761 
L 322.311987 136.457563 
L 322.380268 136.457563 
L 322.387455 135.412364 
L 322.992388 135.412364 
L 322.992388 134.889764 
L 323.471071 134.889764 
L 323.481103 133.844565 
L 323.671615 133.844565 
L 323.671615 133.321966 
L 325.131601 133.321966 
L 325.241923 132.276767 
L 325.635573 132.276767 
L 325.635573 131.754167 
L 326.603724 131.754167 
L 326.669218 130.708968 
L 327.080073 130.708968 
L 327.080073 130.186369 
L 327.461599 130.186369 
L 327.461599 129.66377 
L 327.623426 129.66377 
L 327.623426 129.14117 
L 327.790232 129.14117 
L 327.790232 128.618571 
L 328.914447 128.618571 
L 328.914447 128.095971 
L 329.337357 128.095971 
L 329.337357 127.573372 
L 329.729427 127.573372 
L 329.729427 127.050772 
L 332.36657 127.050772 
L 332.36657 126.528173 
L 332.655689 126.528173 
L 332.655689 126.005573 
L 333.046646 126.005573 
L 333.046646 125.482974 
L 333.351299 125.482974 
L 333.351299 124.960374 
L 333.653784 124.960374 
L 333.660371 123.915176 
L 334.074289 123.915176 
L 334.074289 123.392576 
L 334.235604 123.392576 
L 334.321331 122.347377 
L 334.646645 122.347377 
L 334.757251 121.302178 
L 335.263934 121.302178 
L 335.263934 120.779579 
L 335.88585 120.779579 
L 335.88585 120.256979 
L 336.42544 120.256979 
L 336.42544 119.73438 
L 336.935929 119.73438 
L 336.935929 119.21178 
L 337.064247 119.21178 
L 337.064247 118.689181 
L 337.257006 118.689181 
L 337.257006 118.166581 
L 338.020314 118.166581 
L 338.020314 117.643982 
L 338.269302 117.643982 
L 338.330993 116.598783 
L 338.868045 116.598783 
L 338.935152 115.553584 
L 339.223739 115.553584 
L 339.223739 115.030985 
L 339.689474 115.030985 
L 339.689474 114.508385 
L 339.887209 114.508385 
L 339.887209 113.985786 
L 340.12609 113.985786 
L 340.178713 112.417987 
L 340.370954 112.417987 
L 340.370954 111.895388 
L 340.802695 111.895388 
L 340.842658 110.850189 
L 341.605706 110.850189 
L 341.605706 110.32759 
L 342.280621 110.32759 
L 342.280621 109.80499 
L 342.593557 109.80499 
L 342.593557 109.282391 
L 344.010554 109.282391 
L 344.049421 108.237192 
L 344.175074 108.237192 
L 344.175074 107.714592 
L 344.408008 107.714592 
L 344.411292 106.669393 
L 344.67537 106.669393 
L 344.772481 105.624194 
L 344.826675 105.624194 
L 344.826675 105.101595 
L 344.938219 105.101595 
L 345.040439 104.056396 
L 345.069871 104.056396 
L 345.069871 103.533797 
L 345.509908 103.533797 
L 345.509908 103.011197 
L 345.752357 103.011197 
L 345.752357 102.488598 
L 345.902333 102.488598 
L 345.902333 101.965998 
L 346.448975 101.965998 
L 346.448975 101.443399 
L 346.610705 101.443399 
L 346.672589 100.3982 
L 346.764447 100.3982 
L 346.764447 99.8756 
L 346.99971 99.8756 
L 346.99971 99.353001 
L 347.323141 99.353001 
L 347.323141 98.830401 
L 347.454293 98.830401 
L 347.454293 98.307802 
L 347.597761 98.307802 
L 347.675689 97.262603 
L 347.744624 97.262603 
L 347.744624 96.740004 
L 347.865004 96.740004 
L 347.865004 96.217404 
L 348.077465 96.217404 
L 348.169978 95.172205 
L 348.39539 95.172205 
L 348.39539 94.649606 
L 349.224828 94.649606 
L 349.303616 93.081807 
L 349.417356 93.081807 
L 349.456373 92.036608 
L 349.576663 92.036608 
L 349.576663 91.514009 
L 349.690294 91.514009 
L 349.788758 90.46881 
L 349.818734 90.46881 
L 349.896827 88.378412 
L 350.397647 88.378412 
L 350.397647 87.855813 
L 350.600496 87.855813 
L 350.600496 87.333213 
L 351.180368 87.333213 
L 351.180368 86.810614 
L 351.571513 86.810614 
L 351.571513 86.288014 
L 351.824212 86.288014 
L 351.882894 84.720216 
L 352.114835 84.720216 
L 352.175569 83.675017 
L 352.254521 83.675017 
L 352.254521 83.152418 
L 352.374469 83.152418 
L 352.374469 82.629818 
L 352.610695 82.629818 
L 352.64154 81.06202 
L 352.988802 81.06202 
L 353.05282 79.494221 
L 353.17103 79.494221 
L 353.224045 77.403824 
L 353.34221 77.403824 
L 353.436577 75.836025 
L 353.504575 75.836025 
L 353.504575 75.313426 
L 353.683994 75.313426 
L 353.683994 74.790826 
L 353.906816 74.790826 
L 353.991076 73.745627 
L 354.233985 73.745627 
L 354.258477 72.700428 
L 354.346591 72.700428 
L 354.346591 72.177829 
L 354.507454 72.177829 
L 354.507454 71.65523 
L 354.682428 71.65523 
L 354.682428 71.13263 
L 354.816361 71.13263 
L 354.864168 70.087431 
L 355.26788 70.087431 
L 355.363506 69.042232 
L 355.403813 69.042232 
L 355.505589 67.997033 
L 355.58031 67.997033 
L 355.58031 67.474434 
L 355.699868 67.474434 
L 355.719756 66.429235 
L 355.880748 66.429235 
L 355.95911 65.384036 
L 356.056626 65.384036 
L 356.056626 64.861437 
L 356.180895 64.861437 
L 356.180895 64.338837 
L 356.294118 64.338837 
L 356.294118 63.816238 
L 356.441468 63.816238 
L 356.480178 62.248439 
L 356.562431 62.248439 
L 356.569398 61.20324 
L 356.692318 61.20324 
L 356.748542 60.158041 
L 356.829758 60.158041 
L 356.866217 59.112842 
L 357.157011 59.112842 
L 357.157011 58.590243 
L 357.428737 58.590243 
L 357.478493 57.545044 
L 357.571957 57.545044 
L 357.571957 57.022445 
L 357.712303 57.022445 
L 357.712303 56.499845 
L 357.946212 56.499845 
L 357.946212 55.977246 
L 358.0596 55.977246 
L 358.157994 54.409447 
L 358.200388 54.409447 
L 358.222472 53.364248 
L 358.458605 53.364248 
L 358.458605 52.841649 
L 358.770627 52.841649 
L 358.829916 51.79645 
L 359.088819 51.79645 
L 359.113306 50.751251 
L 359.337648 50.751251 
L 359.337648 50.228652 
L 359.684351 50.228652 
L 359.684351 49.706052 
L 359.960992 49.706052 
L 359.960992 49.183453 
L 360.183825 49.183453 
L 360.206361 48.138254 
L 360.480623 48.138254 
L 360.546836 46.570455 
L 360.675647 46.570455 
L 360.675647 46.047856 
L 360.920858 46.047856 
L 360.954077 45.002657 
L 361.22955 45.002657 
L 361.337073 43.434859 
L 361.90771 43.434859 
L 361.90771 42.912259 
L 362.10244 42.912259 
L 362.17697 41.344461 
L 362.335839 41.344461 
L 362.373748 40.299262 
L 362.54425 40.299262 
L 362.54425 39.776662 
L 363.278265 39.776662 
L 363.278265 39.254063 
L 363.421861 39.254063 
L 363.520073 37.686265 
L 363.68991 37.686265 
L 363.68991 37.163665 
L 364.035477 37.163665 
L 364.132653 36.118466 
L 364.345109 36.118466 
L 364.37199 35.073267 
L 364.501254 35.073267 
L 364.501254 34.550668 
L 364.655357 34.550668 
L 364.655357 34.028068 
L 365.213208 34.028068 
L 365.213208 33.505469 
L 365.36386 33.505469 
L 365.36386 32.982869 
L 365.56011 32.982869 
L 365.56011 32.46027 
L 366.114131 32.46027 
L 366.114131 31.937671 
L 366.231656 31.937671 
L 366.231656 31.415071 
L 366.411751 31.415071 
L 366.411751 30.892472 
L 366.556882 30.892472 
L 366.556882 30.369872 
L 367.306978 30.369872 
L 367.306978 29.847273 
L 367.482371 29.847273 
L 367.571845 28.802074 
L 367.822272 28.802074 
L 367.824237 27.756875 
L 368.029922 27.756875 
L 368.040439 26.711676 
L 368.695622 26.711676 
L 368.715116 25.666477 
L 368.904686 25.666477 
L 368.904686 25.143878 
L 369.112338 25.143878 
L 369.147707 24.098679 
L 369.261703 24.098679 
L 369.367064 22.53088 
L 369.807575 22.53088 
L 369.885534 21.485681 
L 370.107841 21.485681 
L 370.107841 20.963082 
L 370.501705 20.963082 
L 370.584698 19.917883 
L 370.68125 19.917883 
L 370.68125 19.395284 
L 371.02487 19.395284 
L 371.073468 18.350085 
L 371.862167 18.350085 
L 371.862801 17.304886 
L 372.799337 17.304886 
L 372.799337 16.782286 
L 374.691111 16.782286 
L 374.691111 16.259687 
L 375.487888 16.259687 
L 375.588755 15.214488 
L 375.795554 15.214488 
L 375.795554 14.691888 
L 376.647739 14.691888 
L 376.647739 14.169289 
L 376.842112 14.169289 
L 376.944187 13.12409 
L 377.787917 13.12409 
L 377.787917 12.601491 
L 378.810646 12.601491 
L 378.810646 12.078891 
L 379.214483 12.078891 
L 379.214483 11.556292 
L 381.413554 11.556292 
L 381.413554 11.033692 
L 382.194136 11.033692 
L 382.194136 10.511093 
L 383.708116 10.511093 
L 383.708116 9.988493 
L 388.644639 9.988493 
L 388.644639 9.465894 
L 389.693335 9.465894 
L 389.693335 8.943294 
L 390.151499 8.943294 
L 390.151499 8.420695 
L 397.511803 8.420695 
L 397.552271 7.375496 
L 402.430949 7.375496 
L 402.430949 6.852896 
L 403.071897 6.852896 
L 403.071897 6.330297 
L 403.071897 6.330297 
L 460.8 6.330297 
L 460.8 6.330297 
" style="fill:none;stroke:#bf00bf;stroke-linecap:square;stroke-width:1.5;"/>
   </g>
   <g id="patch_3">
    <path d="M 0 293.76 
L 0 3.456 
" style="fill:none;stroke:#000000;stroke-linecap:square;stroke-linejoin:miter;stroke-width:0.8;"/>
   </g>
   <g id="patch_4">
    <path d="M 460.8 293.76 
L 460.8 3.456 
" style="fill:none;stroke:#000000;stroke-linecap:square;stroke-linejoin:miter;stroke-width:0.8;"/>
   </g>
   <g id="patch_5">
    <path d="M 0 293.76 
L 460.8 293.76 
" style="fill:none;stroke:#000000;stroke-linecap:square;stroke-linejoin:miter;stroke-width:0.8;"/>
   </g>
   <g id="patch_6">
    <path d="M 0 3.456 
L 460.8 3.456 
" style="fill:none;stroke:#000000;stroke-linecap:square;stroke-linejoin:miter;stroke-width:0.8;"/>
   </g>
   <g id="text_6">
    <!-- {f1-f55}, 20-D -->
    <defs>
     <path d="M 51.125 -9.28125 
L 51.125 -16.3125 
L 48.09375 -16.3125 
Q 35.9375 -16.3125 31.8125 -12.6875 
Q 27.6875 -9.078125 27.6875 1.703125 
L 27.6875 13.375 
Q 27.6875 20.75 25.046875 23.578125 
Q 22.40625 26.421875 15.484375 26.421875 
L 12.5 26.421875 
L 12.5 33.40625 
L 15.484375 33.40625 
Q 22.46875 33.40625 25.078125 36.203125 
Q 27.6875 39.015625 27.6875 46.296875 
L 27.6875 58.015625 
Q 27.6875 68.796875 31.8125 72.390625 
Q 35.9375 75.984375 48.09375 75.984375 
L 51.125 75.984375 
L 51.125 69 
L 47.796875 69 
Q 40.921875 69 38.8125 66.84375 
Q 36.71875 64.703125 36.71875 57.8125 
L 36.71875 45.703125 
Q 36.71875 38.03125 34.5 34.5625 
Q 32.28125 31.109375 26.90625 29.890625 
Q 32.328125 28.5625 34.515625 25.09375 
Q 36.71875 21.625 36.71875 14.015625 
L 36.71875 1.90625 
Q 36.71875 -4.984375 38.8125 -7.125 
Q 40.921875 -9.28125 47.796875 -9.28125 
z
" id="DejaVuSans-123"/>
     <path d="M 10.796875 72.90625 
L 49.515625 72.90625 
L 49.515625 64.59375 
L 19.828125 64.59375 
L 19.828125 46.734375 
Q 21.96875 47.46875 24.109375 47.828125 
Q 26.265625 48.1875 28.421875 48.1875 
Q 40.625 48.1875 47.75 41.5 
Q 54.890625 34.8125 54.890625 23.390625 
Q 54.890625 11.625 47.5625 5.09375 
Q 40.234375 -1.421875 26.90625 -1.421875 
Q 22.3125 -1.421875 17.546875 -0.640625 
Q 12.796875 0.140625 7.71875 1.703125 
L 7.71875 11.625 
Q 12.109375 9.234375 16.796875 8.0625 
Q 21.484375 6.890625 26.703125 6.890625 
Q 35.15625 6.890625 40.078125 11.328125 
Q 45.015625 15.765625 45.015625 23.390625 
Q 45.015625 31 40.078125 35.4375 
Q 35.15625 39.890625 26.703125 39.890625 
Q 22.75 39.890625 18.8125 39.015625 
Q 14.890625 38.140625 10.796875 36.28125 
z
" id="DejaVuSans-53"/>
     <path d="M 12.5 -9.28125 
L 15.921875 -9.28125 
Q 22.75 -9.28125 24.828125 -7.171875 
Q 26.90625 -5.078125 26.90625 1.90625 
L 26.90625 14.015625 
Q 26.90625 21.625 29.09375 25.09375 
Q 31.296875 28.5625 36.71875 29.890625 
Q 31.296875 31.109375 29.09375 34.5625 
Q 26.90625 38.03125 26.90625 45.703125 
L 26.90625 57.8125 
Q 26.90625 64.75 24.828125 66.875 
Q 22.75 69 15.921875 69 
L 12.5 69 
L 12.5 75.984375 
L 15.578125 75.984375 
Q 27.734375 75.984375 31.8125 72.390625 
Q 35.890625 68.796875 35.890625 58.015625 
L 35.890625 46.296875 
Q 35.890625 39.015625 38.515625 36.203125 
Q 41.15625 33.40625 48.09375 33.40625 
L 51.125 33.40625 
L 51.125 26.421875 
L 48.09375 26.421875 
Q 41.15625 26.421875 38.515625 23.578125 
Q 35.890625 20.75 35.890625 13.375 
L 35.890625 1.703125 
Q 35.890625 -9.078125 31.8125 -12.6875 
Q 27.734375 -16.3125 15.578125 -16.3125 
L 12.5 -16.3125 
z
" id="DejaVuSans-125"/>
     <path d="M 11.71875 12.40625 
L 22.015625 12.40625 
L 22.015625 4 
L 14.015625 -11.625 
L 7.71875 -11.625 
L 11.71875 4 
z
" id="DejaVuSans-44"/>
     <path d="M 19.1875 8.296875 
L 53.609375 8.296875 
L 53.609375 0 
L 7.328125 0 
L 7.328125 8.296875 
Q 12.9375 14.109375 22.625 23.890625 
Q 32.328125 33.6875 34.8125 36.53125 
Q 39.546875 41.84375 41.421875 45.53125 
Q 43.3125 49.21875 43.3125 52.78125 
Q 43.3125 58.59375 39.234375 62.25 
Q 35.15625 65.921875 28.609375 65.921875 
Q 23.96875 65.921875 18.8125 64.3125 
Q 13.671875 62.703125 7.8125 59.421875 
L 7.8125 69.390625 
Q 13.765625 71.78125 18.9375 73 
Q 24.125 74.21875 28.421875 74.21875 
Q 39.75 74.21875 46.484375 68.546875 
Q 53.21875 62.890625 53.21875 53.421875 
Q 53.21875 48.921875 51.53125 44.890625 
Q 49.859375 40.875 45.40625 35.40625 
Q 44.1875 33.984375 37.640625 27.21875 
Q 31.109375 20.453125 19.1875 8.296875 
z
" id="DejaVuSans-50"/>
    </defs>
    <g transform="translate(305.884 287.95392)scale(0.2 -0.2)">
     <use xlink:href="#DejaVuSans-123"/>
     <use x="63.623047" xlink:href="#DejaVuSans-102"/>
     <use x="98.828125" xlink:href="#DejaVuSans-49"/>
     <use x="162.451172" xlink:href="#DejaVuSans-45"/>
     <use x="198.535156" xlink:href="#DejaVuSans-102"/>
     <use x="233.740234" xlink:href="#DejaVuSans-53"/>
     <use x="297.363281" xlink:href="#DejaVuSans-53"/>
     <use x="360.986328" xlink:href="#DejaVuSans-125"/>
     <use x="424.609375" xlink:href="#DejaVuSans-44"/>
     <use x="456.396484" xlink:href="#DejaVuSans-32"/>
     <use x="488.183594" xlink:href="#DejaVuSans-50"/>
     <use x="551.806641" xlink:href="#DejaVuSans-48"/>
     <use x="615.429688" xlink:href="#DejaVuSans-45"/>
     <use x="651.513672" xlink:href="#DejaVuSans-68"/>
    </g>
   </g>
   <g id="text_7">
    <!-- v2.4, hv-hash=ff0e71e8cd978373 -->
    <defs>
     <path d="M 2.984375 54.6875 
L 12.5 54.6875 
L 29.59375 8.796875 
L 46.6875 54.6875 
L 56.203125 54.6875 
L 35.6875 0 
L 23.484375 0 
z
" id="DejaVuSans-118"/>
     <path d="M 10.6875 12.40625 
L 21 12.40625 
L 21 0 
L 10.6875 0 
z
" id="DejaVuSans-46"/>
     <path d="M 54.890625 33.015625 
L 54.890625 0 
L 45.90625 0 
L 45.90625 32.71875 
Q 45.90625 40.484375 42.875 44.328125 
Q 39.84375 48.1875 33.796875 48.1875 
Q 26.515625 48.1875 22.3125 43.546875 
Q 18.109375 38.921875 18.109375 30.90625 
L 18.109375 0 
L 9.078125 0 
L 9.078125 75.984375 
L 18.109375 75.984375 
L 18.109375 46.1875 
Q 21.34375 51.125 25.703125 53.5625 
Q 30.078125 56 35.796875 56 
Q 45.21875 56 50.046875 50.171875 
Q 54.890625 44.34375 54.890625 33.015625 
z
" id="DejaVuSans-104"/>
     <path d="M 34.28125 27.484375 
Q 23.390625 27.484375 19.1875 25 
Q 14.984375 22.515625 14.984375 16.5 
Q 14.984375 11.71875 18.140625 8.90625 
Q 21.296875 6.109375 26.703125 6.109375 
Q 34.1875 6.109375 38.703125 11.40625 
Q 43.21875 16.703125 43.21875 25.484375 
L 43.21875 27.484375 
z
M 52.203125 31.203125 
L 52.203125 0 
L 43.21875 0 
L 43.21875 8.296875 
Q 40.140625 3.328125 35.546875 0.953125 
Q 30.953125 -1.421875 24.3125 -1.421875 
Q 15.921875 -1.421875 10.953125 3.296875 
Q 6 8.015625 6 15.921875 
Q 6 25.140625 12.171875 29.828125 
Q 18.359375 34.515625 30.609375 34.515625 
L 43.21875 34.515625 
L 43.21875 35.40625 
Q 43.21875 41.609375 39.140625 45 
Q 35.0625 48.390625 27.6875 48.390625 
Q 23 48.390625 18.546875 47.265625 
Q 14.109375 46.140625 10.015625 43.890625 
L 10.015625 52.203125 
Q 14.9375 54.109375 19.578125 55.046875 
Q 24.21875 56 28.609375 56 
Q 40.484375 56 46.34375 49.84375 
Q 52.203125 43.703125 52.203125 31.203125 
z
" id="DejaVuSans-97"/>
     <path d="M 44.28125 53.078125 
L 44.28125 44.578125 
Q 40.484375 46.53125 36.375 47.5 
Q 32.28125 48.484375 27.875 48.484375 
Q 21.1875 48.484375 17.84375 46.4375 
Q 14.5 44.390625 14.5 40.28125 
Q 14.5 37.15625 16.890625 35.375 
Q 19.28125 33.59375 26.515625 31.984375 
L 29.59375 31.296875 
Q 39.15625 29.25 43.1875 25.515625 
Q 47.21875 21.78125 47.21875 15.09375 
Q 47.21875 7.46875 41.1875 3.015625 
Q 35.15625 -1.421875 24.609375 -1.421875 
Q 20.21875 -1.421875 15.453125 -0.5625 
Q 10.6875 0.296875 5.421875 2 
L 5.421875 11.28125 
Q 10.40625 8.6875 15.234375 7.390625 
Q 20.0625 6.109375 24.8125 6.109375 
Q 31.15625 6.109375 34.5625 8.28125 
Q 37.984375 10.453125 37.984375 14.40625 
Q 37.984375 18.0625 35.515625 20.015625 
Q 33.0625 21.96875 24.703125 23.78125 
L 21.578125 24.515625 
Q 13.234375 26.265625 9.515625 29.90625 
Q 5.8125 33.546875 5.8125 39.890625 
Q 5.8125 47.609375 11.28125 51.796875 
Q 16.75 56 26.8125 56 
Q 31.78125 56 36.171875 55.265625 
Q 40.578125 54.546875 44.28125 53.078125 
z
" id="DejaVuSans-115"/>
     <path d="M 10.59375 45.40625 
L 73.1875 45.40625 
L 73.1875 37.203125 
L 10.59375 37.203125 
z
M 10.59375 25.484375 
L 73.1875 25.484375 
L 73.1875 17.1875 
L 10.59375 17.1875 
z
" id="DejaVuSans-61"/>
     <path d="M 56.203125 29.59375 
L 56.203125 25.203125 
L 14.890625 25.203125 
Q 15.484375 15.921875 20.484375 11.0625 
Q 25.484375 6.203125 34.421875 6.203125 
Q 39.59375 6.203125 44.453125 7.46875 
Q 49.3125 8.734375 54.109375 11.28125 
L 54.109375 2.78125 
Q 49.265625 0.734375 44.1875 -0.34375 
Q 39.109375 -1.421875 33.890625 -1.421875 
Q 20.796875 -1.421875 13.15625 6.1875 
Q 5.515625 13.8125 5.515625 26.8125 
Q 5.515625 40.234375 12.765625 48.109375 
Q 20.015625 56 32.328125 56 
Q 43.359375 56 49.78125 48.890625 
Q 56.203125 41.796875 56.203125 29.59375 
z
M 47.21875 32.234375 
Q 47.125 39.59375 43.09375 43.984375 
Q 39.0625 48.390625 32.421875 48.390625 
Q 24.90625 48.390625 20.390625 44.140625 
Q 15.875 39.890625 15.1875 32.171875 
z
" id="DejaVuSans-101"/>
     <path d="M 8.203125 72.90625 
L 55.078125 72.90625 
L 55.078125 68.703125 
L 28.609375 0 
L 18.3125 0 
L 43.21875 64.59375 
L 8.203125 64.59375 
z
" id="DejaVuSans-55"/>
     <path d="M 48.78125 52.59375 
L 48.78125 44.1875 
Q 44.96875 46.296875 41.140625 47.34375 
Q 37.3125 48.390625 33.40625 48.390625 
Q 24.65625 48.390625 19.8125 42.84375 
Q 14.984375 37.3125 14.984375 27.296875 
Q 14.984375 17.28125 19.8125 11.734375 
Q 24.65625 6.203125 33.40625 6.203125 
Q 37.3125 6.203125 41.140625 7.25 
Q 44.96875 8.296875 48.78125 10.40625 
L 48.78125 2.09375 
Q 45.015625 0.34375 40.984375 -0.53125 
Q 36.96875 -1.421875 32.421875 -1.421875 
Q 20.0625 -1.421875 12.78125 6.34375 
Q 5.515625 14.109375 5.515625 27.296875 
Q 5.515625 40.671875 12.859375 48.328125 
Q 20.21875 56 33.015625 56 
Q 37.15625 56 41.109375 55.140625 
Q 45.0625 54.296875 48.78125 52.59375 
z
" id="DejaVuSans-99"/>
     <path d="M 45.40625 46.390625 
L 45.40625 75.984375 
L 54.390625 75.984375 
L 54.390625 0 
L 45.40625 0 
L 45.40625 8.203125 
Q 42.578125 3.328125 38.25 0.953125 
Q 33.9375 -1.421875 27.875 -1.421875 
Q 17.96875 -1.421875 11.734375 6.484375 
Q 5.515625 14.40625 5.515625 27.296875 
Q 5.515625 40.1875 11.734375 48.09375 
Q 17.96875 56 27.875 56 
Q 33.9375 56 38.25 53.625 
Q 42.578125 51.265625 45.40625 46.390625 
z
M 14.796875 27.296875 
Q 14.796875 17.390625 18.875 11.75 
Q 22.953125 6.109375 30.078125 6.109375 
Q 37.203125 6.109375 41.296875 11.75 
Q 45.40625 17.390625 45.40625 27.296875 
Q 45.40625 37.203125 41.296875 42.84375 
Q 37.203125 48.484375 30.078125 48.484375 
Q 22.953125 48.484375 18.875 42.84375 
Q 14.796875 37.203125 14.796875 27.296875 
z
" id="DejaVuSans-100"/>
     <path d="M 10.984375 1.515625 
L 10.984375 10.5 
Q 14.703125 8.734375 18.5 7.8125 
Q 22.3125 6.890625 25.984375 6.890625 
Q 35.75 6.890625 40.890625 13.453125 
Q 46.046875 20.015625 46.78125 33.40625 
Q 43.953125 29.203125 39.59375 26.953125 
Q 35.25 24.703125 29.984375 24.703125 
Q 19.046875 24.703125 12.671875 31.3125 
Q 6.296875 37.9375 6.296875 49.421875 
Q 6.296875 60.640625 12.9375 67.421875 
Q 19.578125 74.21875 30.609375 74.21875 
Q 43.265625 74.21875 49.921875 64.515625 
Q 56.59375 54.828125 56.59375 36.375 
Q 56.59375 19.140625 48.40625 8.859375 
Q 40.234375 -1.421875 26.421875 -1.421875 
Q 22.703125 -1.421875 18.890625 -0.6875 
Q 15.09375 0.046875 10.984375 1.515625 
z
M 30.609375 32.421875 
Q 37.25 32.421875 41.125 36.953125 
Q 45.015625 41.5 45.015625 49.421875 
Q 45.015625 57.28125 41.125 61.84375 
Q 37.25 66.40625 30.609375 66.40625 
Q 23.96875 66.40625 20.09375 61.84375 
Q 16.21875 57.28125 16.21875 49.421875 
Q 16.21875 41.5 20.09375 36.953125 
Q 23.96875 32.421875 30.609375 32.421875 
z
" id="DejaVuSans-57"/>
     <path d="M 40.578125 39.3125 
Q 47.65625 37.796875 51.625 33 
Q 55.609375 28.21875 55.609375 21.1875 
Q 55.609375 10.40625 48.1875 4.484375 
Q 40.765625 -1.421875 27.09375 -1.421875 
Q 22.515625 -1.421875 17.65625 -0.515625 
Q 12.796875 0.390625 7.625 2.203125 
L 7.625 11.71875 
Q 11.71875 9.328125 16.59375 8.109375 
Q 21.484375 6.890625 26.8125 6.890625 
Q 36.078125 6.890625 40.9375 10.546875 
Q 45.796875 14.203125 45.796875 21.1875 
Q 45.796875 27.640625 41.28125 31.265625 
Q 36.765625 34.90625 28.71875 34.90625 
L 20.21875 34.90625 
L 20.21875 43.015625 
L 29.109375 43.015625 
Q 36.375 43.015625 40.234375 45.921875 
Q 44.09375 48.828125 44.09375 54.296875 
Q 44.09375 59.90625 40.109375 62.90625 
Q 36.140625 65.921875 28.71875 65.921875 
Q 24.65625 65.921875 20.015625 65.03125 
Q 15.375 64.15625 9.8125 62.3125 
L 9.8125 71.09375 
Q 15.4375 72.65625 20.34375 73.4375 
Q 25.25 74.21875 29.59375 74.21875 
Q 40.828125 74.21875 47.359375 69.109375 
Q 53.90625 64.015625 53.90625 55.328125 
Q 53.90625 49.265625 50.4375 45.09375 
Q 46.96875 40.921875 40.578125 39.3125 
z
" id="DejaVuSans-51"/>
    </defs>
    <g style="fill:#808080;" transform="translate(144.775 288.777272)scale(0.1 -0.1)">
     <use xlink:href="#DejaVuSans-118"/>
     <use x="59.179688" xlink:href="#DejaVuSans-50"/>
     <use x="122.802734" xlink:href="#DejaVuSans-46"/>
     <use x="154.589844" xlink:href="#DejaVuSans-52"/>
     <use x="218.212891" xlink:href="#DejaVuSans-44"/>
     <use x="250" xlink:href="#DejaVuSans-32"/>
     <use x="281.787109" xlink:href="#DejaVuSans-104"/>
     <use x="345.166016" xlink:href="#DejaVuSans-118"/>
     <use x="404.314453" xlink:href="#DejaVuSans-45"/>
     <use x="440.398438" xlink:href="#DejaVuSans-104"/>
     <use x="503.777344" xlink:href="#DejaVuSans-97"/>
     <use x="565.056641" xlink:href="#DejaVuSans-115"/>
     <use x="617.15625" xlink:href="#DejaVuSans-104"/>
     <use x="680.535156" xlink:href="#DejaVuSans-61"/>
     <use x="764.324219" xlink:href="#DejaVuSans-102"/>
     <use x="799.529297" xlink:href="#DejaVuSans-102"/>
     <use x="834.734375" xlink:href="#DejaVuSans-48"/>
     <use x="898.357422" xlink:href="#DejaVuSans-101"/>
     <use x="959.880859" xlink:href="#DejaVuSans-55"/>
     <use x="1023.503906" xlink:href="#DejaVuSans-49"/>
     <use x="1087.126953" xlink:href="#DejaVuSans-101"/>
     <use x="1148.650391" xlink:href="#DejaVuSans-56"/>
     <use x="1212.273438" xlink:href="#DejaVuSans-99"/>
     <use x="1267.253906" xlink:href="#DejaVuSans-100"/>
     <use x="1330.730469" xlink:href="#DejaVuSans-57"/>
     <use x="1394.353516" xlink:href="#DejaVuSans-55"/>
     <use x="1457.976562" xlink:href="#DejaVuSans-56"/>
     <use x="1521.599609" xlink:href="#DejaVuSans-51"/>
     <use x="1585.222656" xlink:href="#DejaVuSans-55"/>
     <use x="1648.845703" xlink:href="#DejaVuSans-51"/>
    </g>
   </g>
  </g>
 </g>
 <defs>
  <clipPath id="p292b2be3ea">
   <rect height="290.304" width="460.8" x="0" y="3.456"/>
  </clipPath>
 </defs>
</svg>
