<?xml version="1.0" encoding="utf-8" standalone="no"?>
<!DOCTYPE svg PUBLIC "-//W3C//DTD SVG 1.1//EN"
  "http://www.w3.org/Graphics/SVG/1.1/DTD/svg11.dtd">
<svg height="345.6pt" version="1.1" viewBox="0 0 460.8 345.6" width="460.8pt" xmlns="http://www.w3.org/2000/svg" xmlns:xlink="http://www.w3.org/1999/xlink">
 <metadata>
  <rdf:RDF xmlns:cc="http://creativecommons.org/ns#" xmlns:dc="http://purl.org/dc/elements/1.1/" xmlns:rdf="http://www.w3.org/1999/02/22-rdf-syntax-ns#">
   <cc:Work>
    <dc:type rdf:resource="http://purl.org/dc/dcmitype/StillImage"/>
    <dc:date>2021-07-27T16:03:46.261853</dc:date>
    <dc:format>image/svg+xml</dc:format>
    <dc:creator>
     <cc:Agent>
      <dc:title>Matplotlib v3.4.2, https://matplotlib.org/</dc:title>
     </cc:Agent>
    </dc:creator>
   </cc:Work>
  </rdf:RDF>
 </metadata>
 <defs>
  <style type="text/css">*{stroke-linecap:butt;stroke-linejoin:round;}</style>
 </defs>
 <g id="figure_1">
  <g id="patch_1">
   <path d="M 0 345.6 
L 460.8 345.6 
L 460.8 0 
L 0 0 
z
" style="fill:#ffffff;"/>
  </g>
  <g id="axes_1">
   <g id="patch_2">
    <path d="M 57.6 298.944 
L 338.688 298.944 
L 338.688 27.648 
L 57.6 27.648 
z
" style="fill:#ffffff;"/>
   </g>
   <g id="matplotlib.axis_1">
    <g id="xtick_1">
     <g id="line2d_1">
      <path clip-path="url(#pd79eeea53e)" d="M 57.6 298.944 
L 57.6 27.648 
" style="fill:none;stroke:#b0b0b0;stroke-linecap:square;stroke-width:0.8;"/>
     </g>
     <g id="line2d_2">
      <defs>
       <path d="M 0 0 
L 0 3.5 
" id="m7ee3daa5b3" style="stroke:#000000;stroke-width:0.8;"/>
      </defs>
      <g>
       <use style="stroke:#000000;stroke-width:0.8;" x="57.6" xlink:href="#m7ee3daa5b3" y="298.944"/>
      </g>
     </g>
     <g id="text_1">
      <!-- 0 -->
      <g transform="translate(51.2375 321.140875)scale(0.2 -0.2)">
       <defs>
        <path d="M 2034 4250 
Q 1547 4250 1301 3770 
Q 1056 3291 1056 2328 
Q 1056 1369 1301 889 
Q 1547 409 2034 409 
Q 2525 409 2770 889 
Q 3016 1369 3016 2328 
Q 3016 3291 2770 3770 
Q 2525 4250 2034 4250 
z
M 2034 4750 
Q 2819 4750 3233 4129 
Q 3647 3509 3647 2328 
Q 3647 1150 3233 529 
Q 2819 -91 2034 -91 
Q 1250 -91 836 529 
Q 422 1150 422 2328 
Q 422 3509 836 4129 
Q 1250 4750 2034 4750 
z
" id="DejaVuSans-30" transform="scale(0.015625)"/>
       </defs>
       <use xlink:href="#DejaVuSans-30"/>
      </g>
     </g>
    </g>
    <g id="xtick_2">
     <g id="line2d_3">
      <path clip-path="url(#pd79eeea53e)" d="M 137.910857 298.944 
L 137.910857 27.648 
" style="fill:none;stroke:#b0b0b0;stroke-linecap:square;stroke-width:0.8;"/>
     </g>
     <g id="line2d_4">
      <g>
       <use style="stroke:#000000;stroke-width:0.8;" x="137.910857" xlink:href="#m7ee3daa5b3" y="298.944"/>
      </g>
     </g>
     <g id="text_2">
      <!-- 2 -->
      <g transform="translate(131.548357 321.140875)scale(0.2 -0.2)">
       <defs>
        <path d="M 1228 531 
L 3431 531 
L 3431 0 
L 469 0 
L 469 531 
Q 828 903 1448 1529 
Q 2069 2156 2228 2338 
Q 2531 2678 2651 2914 
Q 2772 3150 2772 3378 
Q 2772 3750 2511 3984 
Q 2250 4219 1831 4219 
Q 1534 4219 1204 4116 
Q 875 4013 500 3803 
L 500 4441 
Q 881 4594 1212 4672 
Q 1544 4750 1819 4750 
Q 2544 4750 2975 4387 
Q 3406 4025 3406 3419 
Q 3406 3131 3298 2873 
Q 3191 2616 2906 2266 
Q 2828 2175 2409 1742 
Q 1991 1309 1228 531 
z
" id="DejaVuSans-32" transform="scale(0.015625)"/>
       </defs>
       <use xlink:href="#DejaVuSans-32"/>
      </g>
     </g>
    </g>
    <g id="xtick_3">
     <g id="line2d_5">
      <path clip-path="url(#pd79eeea53e)" d="M 218.221714 298.944 
L 218.221714 27.648 
" style="fill:none;stroke:#b0b0b0;stroke-linecap:square;stroke-width:0.8;"/>
     </g>
     <g id="line2d_6">
      <g>
       <use style="stroke:#000000;stroke-width:0.8;" x="218.221714" xlink:href="#m7ee3daa5b3" y="298.944"/>
      </g>
     </g>
     <g id="text_3">
      <!-- 4 -->
      <g transform="translate(211.859214 321.140875)scale(0.2 -0.2)">
       <defs>
        <path d="M 2419 4116 
L 825 1625 
L 2419 1625 
L 2419 4116 
z
M 2253 4666 
L 3047 4666 
L 3047 1625 
L 3713 1625 
L 3713 1100 
L 3047 1100 
L 3047 0 
L 2419 0 
L 2419 1100 
L 313 1100 
L 313 1709 
L 2253 4666 
z
" id="DejaVuSans-34" transform="scale(0.015625)"/>
       </defs>
       <use xlink:href="#DejaVuSans-34"/>
      </g>
     </g>
    </g>
    <g id="xtick_4">
     <g id="line2d_7">
      <path clip-path="url(#pd79eeea53e)" d="M 298.532571 298.944 
L 298.532571 27.648 
" style="fill:none;stroke:#b0b0b0;stroke-linecap:square;stroke-width:0.8;"/>
     </g>
     <g id="line2d_8">
      <g>
       <use style="stroke:#000000;stroke-width:0.8;" x="298.532571" xlink:href="#m7ee3daa5b3" y="298.944"/>
      </g>
     </g>
     <g id="text_4">
      <!-- 6 -->
      <g transform="translate(292.170071 321.140875)scale(0.2 -0.2)">
       <defs>
        <path d="M 2113 2584 
Q 1688 2584 1439 2293 
Q 1191 2003 1191 1497 
Q 1191 994 1439 701 
Q 1688 409 2113 409 
Q 2538 409 2786 701 
Q 3034 994 3034 1497 
Q 3034 2003 2786 2293 
Q 2538 2584 2113 2584 
z
M 3366 4563 
L 3366 3988 
Q 3128 4100 2886 4159 
Q 2644 4219 2406 4219 
Q 1781 4219 1451 3797 
Q 1122 3375 1075 2522 
Q 1259 2794 1537 2939 
Q 1816 3084 2150 3084 
Q 2853 3084 3261 2657 
Q 3669 2231 3669 1497 
Q 3669 778 3244 343 
Q 2819 -91 2113 -91 
Q 1303 -91 875 529 
Q 447 1150 447 2328 
Q 447 3434 972 4092 
Q 1497 4750 2381 4750 
Q 2619 4750 2861 4703 
Q 3103 4656 3366 4563 
z
" id="DejaVuSans-36" transform="scale(0.015625)"/>
       </defs>
       <use xlink:href="#DejaVuSans-36"/>
      </g>
     </g>
    </g>
    <g id="xtick_5">
     <g id="line2d_9">
      <path clip-path="url(#pd79eeea53e)" d="M 97.755429 298.944 
L 97.755429 27.648 
" style="fill:none;stroke:#b0b0b0;stroke-linecap:square;stroke-width:0.8;"/>
     </g>
     <g id="line2d_10">
      <defs>
       <path d="M 0 0 
L 0 2 
" id="md68a34780d" style="stroke:#000000;stroke-width:0.6;"/>
      </defs>
      <g>
       <use style="stroke:#000000;stroke-width:0.6;" x="97.755429" xlink:href="#md68a34780d" y="298.944"/>
      </g>
     </g>
    </g>
    <g id="xtick_6">
     <g id="line2d_11">
      <path clip-path="url(#pd79eeea53e)" d="M 178.066286 298.944 
L 178.066286 27.648 
" style="fill:none;stroke:#b0b0b0;stroke-linecap:square;stroke-width:0.8;"/>
     </g>
     <g id="line2d_12">
      <g>
       <use style="stroke:#000000;stroke-width:0.6;" x="178.066286" xlink:href="#md68a34780d" y="298.944"/>
      </g>
     </g>
    </g>
    <g id="xtick_7">
     <g id="line2d_13">
      <path clip-path="url(#pd79eeea53e)" d="M 258.377143 298.944 
L 258.377143 27.648 
" style="fill:none;stroke:#b0b0b0;stroke-linecap:square;stroke-width:0.8;"/>
     </g>
     <g id="line2d_14">
      <g>
       <use style="stroke:#000000;stroke-width:0.6;" x="258.377143" xlink:href="#md68a34780d" y="298.944"/>
      </g>
     </g>
    </g>
    <g id="xtick_8">
     <g id="line2d_15">
      <path clip-path="url(#pd79eeea53e)" d="M 338.688 298.944 
L 338.688 27.648 
" style="fill:none;stroke:#b0b0b0;stroke-linecap:square;stroke-width:0.8;"/>
     </g>
     <g id="line2d_16">
      <g>
       <use style="stroke:#000000;stroke-width:0.6;" x="338.688" xlink:href="#md68a34780d" y="298.944"/>
      </g>
     </g>
    </g>
    <g id="text_5">
     <!-- log10(# f-evals / dimension) -->
     <g transform="translate(77.764078 342.217594)scale(0.17 -0.17)">
      <defs>
       <path d="M 603 4863 
L 1178 4863 
L 1178 0 
L 603 0 
L 603 4863 
z
" id="DejaVuSans-6c" transform="scale(0.015625)"/>
       <path d="M 1959 3097 
Q 1497 3097 1228 2736 
Q 959 2375 959 1747 
Q 959 1119 1226 758 
Q 1494 397 1959 397 
Q 2419 397 2687 759 
Q 2956 1122 2956 1747 
Q 2956 2369 2687 2733 
Q 2419 3097 1959 3097 
z
M 1959 3584 
Q 2709 3584 3137 3096 
Q 3566 2609 3566 1747 
Q 3566 888 3137 398 
Q 2709 -91 1959 -91 
Q 1206 -91 779 398 
Q 353 888 353 1747 
Q 353 2609 779 3096 
Q 1206 3584 1959 3584 
z
" id="DejaVuSans-6f" transform="scale(0.015625)"/>
       <path d="M 2906 1791 
Q 2906 2416 2648 2759 
Q 2391 3103 1925 3103 
Q 1463 3103 1205 2759 
Q 947 2416 947 1791 
Q 947 1169 1205 825 
Q 1463 481 1925 481 
Q 2391 481 2648 825 
Q 2906 1169 2906 1791 
z
M 3481 434 
Q 3481 -459 3084 -895 
Q 2688 -1331 1869 -1331 
Q 1566 -1331 1297 -1286 
Q 1028 -1241 775 -1147 
L 775 -588 
Q 1028 -725 1275 -790 
Q 1522 -856 1778 -856 
Q 2344 -856 2625 -561 
Q 2906 -266 2906 331 
L 2906 616 
Q 2728 306 2450 153 
Q 2172 0 1784 0 
Q 1141 0 747 490 
Q 353 981 353 1791 
Q 353 2603 747 3093 
Q 1141 3584 1784 3584 
Q 2172 3584 2450 3431 
Q 2728 3278 2906 2969 
L 2906 3500 
L 3481 3500 
L 3481 434 
z
" id="DejaVuSans-67" transform="scale(0.015625)"/>
       <path d="M 794 531 
L 1825 531 
L 1825 4091 
L 703 3866 
L 703 4441 
L 1819 4666 
L 2450 4666 
L 2450 531 
L 3481 531 
L 3481 0 
L 794 0 
L 794 531 
z
" id="DejaVuSans-31" transform="scale(0.015625)"/>
       <path d="M 1984 4856 
Q 1566 4138 1362 3434 
Q 1159 2731 1159 2009 
Q 1159 1288 1364 580 
Q 1569 -128 1984 -844 
L 1484 -844 
Q 1016 -109 783 600 
Q 550 1309 550 2009 
Q 550 2706 781 3412 
Q 1013 4119 1484 4856 
L 1984 4856 
z
" id="DejaVuSans-28" transform="scale(0.015625)"/>
       <path d="M 3272 2816 
L 2363 2816 
L 2100 1772 
L 3016 1772 
L 3272 2816 
z
M 2803 4594 
L 2478 3297 
L 3391 3297 
L 3719 4594 
L 4219 4594 
L 3897 3297 
L 4872 3297 
L 4872 2816 
L 3775 2816 
L 3519 1772 
L 4513 1772 
L 4513 1294 
L 3397 1294 
L 3072 0 
L 2572 0 
L 2894 1294 
L 1978 1294 
L 1656 0 
L 1153 0 
L 1478 1294 
L 494 1294 
L 494 1772 
L 1594 1772 
L 1856 2816 
L 850 2816 
L 850 3297 
L 1978 3297 
L 2297 4594 
L 2803 4594 
z
" id="DejaVuSans-23" transform="scale(0.015625)"/>
       <path id="DejaVuSans-20" transform="scale(0.015625)"/>
       <path d="M 2375 4863 
L 2375 4384 
L 1825 4384 
Q 1516 4384 1395 4259 
Q 1275 4134 1275 3809 
L 1275 3500 
L 2222 3500 
L 2222 3053 
L 1275 3053 
L 1275 0 
L 697 0 
L 697 3053 
L 147 3053 
L 147 3500 
L 697 3500 
L 697 3744 
Q 697 4328 969 4595 
Q 1241 4863 1831 4863 
L 2375 4863 
z
" id="DejaVuSans-66" transform="scale(0.015625)"/>
       <path d="M 313 2009 
L 1997 2009 
L 1997 1497 
L 313 1497 
L 313 2009 
z
" id="DejaVuSans-2d" transform="scale(0.015625)"/>
       <path d="M 3597 1894 
L 3597 1613 
L 953 1613 
Q 991 1019 1311 708 
Q 1631 397 2203 397 
Q 2534 397 2845 478 
Q 3156 559 3463 722 
L 3463 178 
Q 3153 47 2828 -22 
Q 2503 -91 2169 -91 
Q 1331 -91 842 396 
Q 353 884 353 1716 
Q 353 2575 817 3079 
Q 1281 3584 2069 3584 
Q 2775 3584 3186 3129 
Q 3597 2675 3597 1894 
z
M 3022 2063 
Q 3016 2534 2758 2815 
Q 2500 3097 2075 3097 
Q 1594 3097 1305 2825 
Q 1016 2553 972 2059 
L 3022 2063 
z
" id="DejaVuSans-65" transform="scale(0.015625)"/>
       <path d="M 191 3500 
L 800 3500 
L 1894 563 
L 2988 3500 
L 3597 3500 
L 2284 0 
L 1503 0 
L 191 3500 
z
" id="DejaVuSans-76" transform="scale(0.015625)"/>
       <path d="M 2194 1759 
Q 1497 1759 1228 1600 
Q 959 1441 959 1056 
Q 959 750 1161 570 
Q 1363 391 1709 391 
Q 2188 391 2477 730 
Q 2766 1069 2766 1631 
L 2766 1759 
L 2194 1759 
z
M 3341 1997 
L 3341 0 
L 2766 0 
L 2766 531 
Q 2569 213 2275 61 
Q 1981 -91 1556 -91 
Q 1019 -91 701 211 
Q 384 513 384 1019 
Q 384 1609 779 1909 
Q 1175 2209 1959 2209 
L 2766 2209 
L 2766 2266 
Q 2766 2663 2505 2880 
Q 2244 3097 1772 3097 
Q 1472 3097 1187 3025 
Q 903 2953 641 2809 
L 641 3341 
Q 956 3463 1253 3523 
Q 1550 3584 1831 3584 
Q 2591 3584 2966 3190 
Q 3341 2797 3341 1997 
z
" id="DejaVuSans-61" transform="scale(0.015625)"/>
       <path d="M 2834 3397 
L 2834 2853 
Q 2591 2978 2328 3040 
Q 2066 3103 1784 3103 
Q 1356 3103 1142 2972 
Q 928 2841 928 2578 
Q 928 2378 1081 2264 
Q 1234 2150 1697 2047 
L 1894 2003 
Q 2506 1872 2764 1633 
Q 3022 1394 3022 966 
Q 3022 478 2636 193 
Q 2250 -91 1575 -91 
Q 1294 -91 989 -36 
Q 684 19 347 128 
L 347 722 
Q 666 556 975 473 
Q 1284 391 1588 391 
Q 1994 391 2212 530 
Q 2431 669 2431 922 
Q 2431 1156 2273 1281 
Q 2116 1406 1581 1522 
L 1381 1569 
Q 847 1681 609 1914 
Q 372 2147 372 2553 
Q 372 3047 722 3315 
Q 1072 3584 1716 3584 
Q 2034 3584 2315 3537 
Q 2597 3491 2834 3397 
z
" id="DejaVuSans-73" transform="scale(0.015625)"/>
       <path d="M 1625 4666 
L 2156 4666 
L 531 -594 
L 0 -594 
L 1625 4666 
z
" id="DejaVuSans-2f" transform="scale(0.015625)"/>
       <path d="M 2906 2969 
L 2906 4863 
L 3481 4863 
L 3481 0 
L 2906 0 
L 2906 525 
Q 2725 213 2448 61 
Q 2172 -91 1784 -91 
Q 1150 -91 751 415 
Q 353 922 353 1747 
Q 353 2572 751 3078 
Q 1150 3584 1784 3584 
Q 2172 3584 2448 3432 
Q 2725 3281 2906 2969 
z
M 947 1747 
Q 947 1113 1208 752 
Q 1469 391 1925 391 
Q 2381 391 2643 752 
Q 2906 1113 2906 1747 
Q 2906 2381 2643 2742 
Q 2381 3103 1925 3103 
Q 1469 3103 1208 2742 
Q 947 2381 947 1747 
z
" id="DejaVuSans-64" transform="scale(0.015625)"/>
       <path d="M 603 3500 
L 1178 3500 
L 1178 0 
L 603 0 
L 603 3500 
z
M 603 4863 
L 1178 4863 
L 1178 4134 
L 603 4134 
L 603 4863 
z
" id="DejaVuSans-69" transform="scale(0.015625)"/>
       <path d="M 3328 2828 
Q 3544 3216 3844 3400 
Q 4144 3584 4550 3584 
Q 5097 3584 5394 3201 
Q 5691 2819 5691 2113 
L 5691 0 
L 5113 0 
L 5113 2094 
Q 5113 2597 4934 2840 
Q 4756 3084 4391 3084 
Q 3944 3084 3684 2787 
Q 3425 2491 3425 1978 
L 3425 0 
L 2847 0 
L 2847 2094 
Q 2847 2600 2669 2842 
Q 2491 3084 2119 3084 
Q 1678 3084 1418 2786 
Q 1159 2488 1159 1978 
L 1159 0 
L 581 0 
L 581 3500 
L 1159 3500 
L 1159 2956 
Q 1356 3278 1631 3431 
Q 1906 3584 2284 3584 
Q 2666 3584 2933 3390 
Q 3200 3197 3328 2828 
z
" id="DejaVuSans-6d" transform="scale(0.015625)"/>
       <path d="M 3513 2113 
L 3513 0 
L 2938 0 
L 2938 2094 
Q 2938 2591 2744 2837 
Q 2550 3084 2163 3084 
Q 1697 3084 1428 2787 
Q 1159 2491 1159 1978 
L 1159 0 
L 581 0 
L 581 3500 
L 1159 3500 
L 1159 2956 
Q 1366 3272 1645 3428 
Q 1925 3584 2291 3584 
Q 2894 3584 3203 3211 
Q 3513 2838 3513 2113 
z
" id="DejaVuSans-6e" transform="scale(0.015625)"/>
       <path d="M 513 4856 
L 1013 4856 
Q 1481 4119 1714 3412 
Q 1947 2706 1947 2009 
Q 1947 1309 1714 600 
Q 1481 -109 1013 -844 
L 513 -844 
Q 928 -128 1133 580 
Q 1338 1288 1338 2009 
Q 1338 2731 1133 3434 
Q 928 4138 513 4856 
z
" id="DejaVuSans-29" transform="scale(0.015625)"/>
      </defs>
      <use xlink:href="#DejaVuSans-6c"/>
      <use x="27.783203" xlink:href="#DejaVuSans-6f"/>
      <use x="88.964844" xlink:href="#DejaVuSans-67"/>
      <use x="152.441406" xlink:href="#DejaVuSans-31"/>
      <use x="216.064453" xlink:href="#DejaVuSans-30"/>
      <use x="279.6875" xlink:href="#DejaVuSans-28"/>
      <use x="318.701172" xlink:href="#DejaVuSans-23"/>
      <use x="402.490234" xlink:href="#DejaVuSans-20"/>
      <use x="434.277344" xlink:href="#DejaVuSans-66"/>
      <use x="463.982422" xlink:href="#DejaVuSans-2d"/>
      <use x="500.066406" xlink:href="#DejaVuSans-65"/>
      <use x="561.589844" xlink:href="#DejaVuSans-76"/>
      <use x="620.769531" xlink:href="#DejaVuSans-61"/>
      <use x="682.048828" xlink:href="#DejaVuSans-6c"/>
      <use x="709.832031" xlink:href="#DejaVuSans-73"/>
      <use x="761.931641" xlink:href="#DejaVuSans-20"/>
      <use x="793.71875" xlink:href="#DejaVuSans-2f"/>
      <use x="827.410156" xlink:href="#DejaVuSans-20"/>
      <use x="859.197266" xlink:href="#DejaVuSans-64"/>
      <use x="922.673828" xlink:href="#DejaVuSans-69"/>
      <use x="950.457031" xlink:href="#DejaVuSans-6d"/>
      <use x="1047.869141" xlink:href="#DejaVuSans-65"/>
      <use x="1109.392578" xlink:href="#DejaVuSans-6e"/>
      <use x="1172.771484" xlink:href="#DejaVuSans-73"/>
      <use x="1224.871094" xlink:href="#DejaVuSans-69"/>
      <use x="1252.654297" xlink:href="#DejaVuSans-6f"/>
      <use x="1313.835938" xlink:href="#DejaVuSans-6e"/>
      <use x="1377.214844" xlink:href="#DejaVuSans-29"/>
     </g>
    </g>
   </g>
   <g id="matplotlib.axis_2">
    <g id="ytick_1">
     <g id="line2d_17">
      <path clip-path="url(#pd79eeea53e)" d="M 57.6 298.944 
L 338.688 298.944 
" style="fill:none;stroke:#b0b0b0;stroke-linecap:square;stroke-width:0.8;"/>
     </g>
     <g id="line2d_18">
      <defs>
       <path d="M 0 0 
L -3.5 0 
" id="mf47c02a46e" style="stroke:#000000;stroke-width:0.8;"/>
      </defs>
      <g>
       <use style="stroke:#000000;stroke-width:0.8;" x="57.6" xlink:href="#mf47c02a46e" y="298.944"/>
      </g>
     </g>
     <g id="text_6">
      <!-- 0.0 -->
      <g transform="translate(25.155 305.02275)scale(0.16 -0.16)">
       <defs>
        <path d="M 684 794 
L 1344 794 
L 1344 0 
L 684 0 
L 684 794 
z
" id="DejaVuSans-2e" transform="scale(0.015625)"/>
       </defs>
       <use xlink:href="#DejaVuSans-30"/>
       <use x="63.623047" xlink:href="#DejaVuSans-2e"/>
       <use x="95.410156" xlink:href="#DejaVuSans-30"/>
      </g>
     </g>
    </g>
    <g id="ytick_2">
     <g id="line2d_19">
      <path clip-path="url(#pd79eeea53e)" d="M 57.6 245.22202 
L 338.688 245.22202 
" style="fill:none;stroke:#b0b0b0;stroke-linecap:square;stroke-width:0.8;"/>
     </g>
     <g id="line2d_20">
      <g>
       <use style="stroke:#000000;stroke-width:0.8;" x="57.6" xlink:href="#mf47c02a46e" y="245.22202"/>
      </g>
     </g>
     <g id="text_7">
      <!-- 0.2 -->
      <g transform="translate(25.155 251.30077)scale(0.16 -0.16)">
       <use xlink:href="#DejaVuSans-30"/>
       <use x="63.623047" xlink:href="#DejaVuSans-2e"/>
       <use x="95.410156" xlink:href="#DejaVuSans-32"/>
      </g>
     </g>
    </g>
    <g id="ytick_3">
     <g id="line2d_21">
      <path clip-path="url(#pd79eeea53e)" d="M 57.6 191.50004 
L 338.688 191.50004 
" style="fill:none;stroke:#b0b0b0;stroke-linecap:square;stroke-width:0.8;"/>
     </g>
     <g id="line2d_22">
      <g>
       <use style="stroke:#000000;stroke-width:0.8;" x="57.6" xlink:href="#mf47c02a46e" y="191.50004"/>
      </g>
     </g>
     <g id="text_8">
      <!-- 0.4 -->
      <g transform="translate(25.155 197.57879)scale(0.16 -0.16)">
       <use xlink:href="#DejaVuSans-30"/>
       <use x="63.623047" xlink:href="#DejaVuSans-2e"/>
       <use x="95.410156" xlink:href="#DejaVuSans-34"/>
      </g>
     </g>
    </g>
    <g id="ytick_4">
     <g id="line2d_23">
      <path clip-path="url(#pd79eeea53e)" d="M 57.6 137.778059 
L 338.688 137.778059 
" style="fill:none;stroke:#b0b0b0;stroke-linecap:square;stroke-width:0.8;"/>
     </g>
     <g id="line2d_24">
      <g>
       <use style="stroke:#000000;stroke-width:0.8;" x="57.6" xlink:href="#mf47c02a46e" y="137.778059"/>
      </g>
     </g>
     <g id="text_9">
      <!-- 0.6 -->
      <g transform="translate(25.155 143.856809)scale(0.16 -0.16)">
       <use xlink:href="#DejaVuSans-30"/>
       <use x="63.623047" xlink:href="#DejaVuSans-2e"/>
       <use x="95.410156" xlink:href="#DejaVuSans-36"/>
      </g>
     </g>
    </g>
    <g id="ytick_5">
     <g id="line2d_25">
      <path clip-path="url(#pd79eeea53e)" d="M 57.6 84.056079 
L 338.688 84.056079 
" style="fill:none;stroke:#b0b0b0;stroke-linecap:square;stroke-width:0.8;"/>
     </g>
     <g id="line2d_26">
      <g>
       <use style="stroke:#000000;stroke-width:0.8;" x="57.6" xlink:href="#mf47c02a46e" y="84.056079"/>
      </g>
     </g>
     <g id="text_10">
      <!-- 0.8 -->
      <g transform="translate(25.155 90.134829)scale(0.16 -0.16)">
       <defs>
        <path d="M 2034 2216 
Q 1584 2216 1326 1975 
Q 1069 1734 1069 1313 
Q 1069 891 1326 650 
Q 1584 409 2034 409 
Q 2484 409 2743 651 
Q 3003 894 3003 1313 
Q 3003 1734 2745 1975 
Q 2488 2216 2034 2216 
z
M 1403 2484 
Q 997 2584 770 2862 
Q 544 3141 544 3541 
Q 544 4100 942 4425 
Q 1341 4750 2034 4750 
Q 2731 4750 3128 4425 
Q 3525 4100 3525 3541 
Q 3525 3141 3298 2862 
Q 3072 2584 2669 2484 
Q 3125 2378 3379 2068 
Q 3634 1759 3634 1313 
Q 3634 634 3220 271 
Q 2806 -91 2034 -91 
Q 1263 -91 848 271 
Q 434 634 434 1313 
Q 434 1759 690 2068 
Q 947 2378 1403 2484 
z
M 1172 3481 
Q 1172 3119 1398 2916 
Q 1625 2713 2034 2713 
Q 2441 2713 2670 2916 
Q 2900 3119 2900 3481 
Q 2900 3844 2670 4047 
Q 2441 4250 2034 4250 
Q 1625 4250 1398 4047 
Q 1172 3844 1172 3481 
z
" id="DejaVuSans-38" transform="scale(0.015625)"/>
       </defs>
       <use xlink:href="#DejaVuSans-30"/>
       <use x="63.623047" xlink:href="#DejaVuSans-2e"/>
       <use x="95.410156" xlink:href="#DejaVuSans-38"/>
      </g>
     </g>
    </g>
    <g id="ytick_6">
     <g id="line2d_27">
      <path clip-path="url(#pd79eeea53e)" d="M 57.6 30.334099 
L 338.688 30.334099 
" style="fill:none;stroke:#b0b0b0;stroke-linecap:square;stroke-width:0.8;"/>
     </g>
     <g id="line2d_28">
      <g>
       <use style="stroke:#000000;stroke-width:0.8;" x="57.6" xlink:href="#mf47c02a46e" y="30.334099"/>
      </g>
     </g>
     <g id="text_11">
      <!-- 1.0 -->
      <g transform="translate(25.155 36.412849)scale(0.16 -0.16)">
       <use xlink:href="#DejaVuSans-31"/>
       <use x="63.623047" xlink:href="#DejaVuSans-2e"/>
       <use x="95.410156" xlink:href="#DejaVuSans-30"/>
      </g>
     </g>
    </g>
    <g id="text_12">
     <!-- Fraction of function,target pairs -->
     <g transform="translate(17.619531 297.681)rotate(-90)scale(0.17 -0.17)">
      <defs>
       <path d="M 628 4666 
L 3309 4666 
L 3309 4134 
L 1259 4134 
L 1259 2759 
L 3109 2759 
L 3109 2228 
L 1259 2228 
L 1259 0 
L 628 0 
L 628 4666 
z
" id="DejaVuSans-46" transform="scale(0.015625)"/>
       <path d="M 2631 2963 
Q 2534 3019 2420 3045 
Q 2306 3072 2169 3072 
Q 1681 3072 1420 2755 
Q 1159 2438 1159 1844 
L 1159 0 
L 581 0 
L 581 3500 
L 1159 3500 
L 1159 2956 
Q 1341 3275 1631 3429 
Q 1922 3584 2338 3584 
Q 2397 3584 2469 3576 
Q 2541 3569 2628 3553 
L 2631 2963 
z
" id="DejaVuSans-72" transform="scale(0.015625)"/>
       <path d="M 3122 3366 
L 3122 2828 
Q 2878 2963 2633 3030 
Q 2388 3097 2138 3097 
Q 1578 3097 1268 2742 
Q 959 2388 959 1747 
Q 959 1106 1268 751 
Q 1578 397 2138 397 
Q 2388 397 2633 464 
Q 2878 531 3122 666 
L 3122 134 
Q 2881 22 2623 -34 
Q 2366 -91 2075 -91 
Q 1284 -91 818 406 
Q 353 903 353 1747 
Q 353 2603 823 3093 
Q 1294 3584 2113 3584 
Q 2378 3584 2631 3529 
Q 2884 3475 3122 3366 
z
" id="DejaVuSans-63" transform="scale(0.015625)"/>
       <path d="M 1172 4494 
L 1172 3500 
L 2356 3500 
L 2356 3053 
L 1172 3053 
L 1172 1153 
Q 1172 725 1289 603 
Q 1406 481 1766 481 
L 2356 481 
L 2356 0 
L 1766 0 
Q 1100 0 847 248 
Q 594 497 594 1153 
L 594 3053 
L 172 3053 
L 172 3500 
L 594 3500 
L 594 4494 
L 1172 4494 
z
" id="DejaVuSans-74" transform="scale(0.015625)"/>
       <path d="M 544 1381 
L 544 3500 
L 1119 3500 
L 1119 1403 
Q 1119 906 1312 657 
Q 1506 409 1894 409 
Q 2359 409 2629 706 
Q 2900 1003 2900 1516 
L 2900 3500 
L 3475 3500 
L 3475 0 
L 2900 0 
L 2900 538 
Q 2691 219 2414 64 
Q 2138 -91 1772 -91 
Q 1169 -91 856 284 
Q 544 659 544 1381 
z
M 1991 3584 
L 1991 3584 
z
" id="DejaVuSans-75" transform="scale(0.015625)"/>
       <path d="M 750 794 
L 1409 794 
L 1409 256 
L 897 -744 
L 494 -744 
L 750 256 
L 750 794 
z
" id="DejaVuSans-2c" transform="scale(0.015625)"/>
       <path d="M 1159 525 
L 1159 -1331 
L 581 -1331 
L 581 3500 
L 1159 3500 
L 1159 2969 
Q 1341 3281 1617 3432 
Q 1894 3584 2278 3584 
Q 2916 3584 3314 3078 
Q 3713 2572 3713 1747 
Q 3713 922 3314 415 
Q 2916 -91 2278 -91 
Q 1894 -91 1617 61 
Q 1341 213 1159 525 
z
M 3116 1747 
Q 3116 2381 2855 2742 
Q 2594 3103 2138 3103 
Q 1681 3103 1420 2742 
Q 1159 2381 1159 1747 
Q 1159 1113 1420 752 
Q 1681 391 2138 391 
Q 2594 391 2855 752 
Q 3116 1113 3116 1747 
z
" id="DejaVuSans-70" transform="scale(0.015625)"/>
      </defs>
      <use xlink:href="#DejaVuSans-46"/>
      <use x="50.269531" xlink:href="#DejaVuSans-72"/>
      <use x="91.382812" xlink:href="#DejaVuSans-61"/>
      <use x="152.662109" xlink:href="#DejaVuSans-63"/>
      <use x="207.642578" xlink:href="#DejaVuSans-74"/>
      <use x="246.851562" xlink:href="#DejaVuSans-69"/>
      <use x="274.634766" xlink:href="#DejaVuSans-6f"/>
      <use x="335.816406" xlink:href="#DejaVuSans-6e"/>
      <use x="399.195312" xlink:href="#DejaVuSans-20"/>
      <use x="430.982422" xlink:href="#DejaVuSans-6f"/>
      <use x="492.164062" xlink:href="#DejaVuSans-66"/>
      <use x="527.369141" xlink:href="#DejaVuSans-20"/>
      <use x="559.15625" xlink:href="#DejaVuSans-66"/>
      <use x="594.361328" xlink:href="#DejaVuSans-75"/>
      <use x="657.740234" xlink:href="#DejaVuSans-6e"/>
      <use x="721.119141" xlink:href="#DejaVuSans-63"/>
      <use x="776.099609" xlink:href="#DejaVuSans-74"/>
      <use x="815.308594" xlink:href="#DejaVuSans-69"/>
      <use x="843.091797" xlink:href="#DejaVuSans-6f"/>
      <use x="904.273438" xlink:href="#DejaVuSans-6e"/>
      <use x="967.652344" xlink:href="#DejaVuSans-2c"/>
      <use x="999.439453" xlink:href="#DejaVuSans-74"/>
      <use x="1038.648438" xlink:href="#DejaVuSans-61"/>
      <use x="1099.927734" xlink:href="#DejaVuSans-72"/>
      <use x="1139.291016" xlink:href="#DejaVuSans-67"/>
      <use x="1202.767578" xlink:href="#DejaVuSans-65"/>
      <use x="1264.291016" xlink:href="#DejaVuSans-74"/>
      <use x="1303.5" xlink:href="#DejaVuSans-20"/>
      <use x="1335.287109" xlink:href="#DejaVuSans-70"/>
      <use x="1398.763672" xlink:href="#DejaVuSans-61"/>
      <use x="1460.042969" xlink:href="#DejaVuSans-69"/>
      <use x="1487.826172" xlink:href="#DejaVuSans-72"/>
      <use x="1528.939453" xlink:href="#DejaVuSans-73"/>
     </g>
    </g>
   </g>
   <g id="line2d_29">
    <defs>
     <path d="M 0 1.5 
C 0.397805 1.5 0.77937 1.341951 1.06066 1.06066 
C 1.341951 0.77937 1.5 0.397805 1.5 0 
C 1.5 -0.397805 1.341951 -0.77937 1.06066 -1.06066 
C 0.77937 -1.341951 0.397805 -1.5 0 -1.5 
C -0.397805 -1.5 -0.77937 -1.341951 -1.06066 -1.06066 
C -1.341951 -0.77937 -1.5 -0.397805 -1.5 0 
C -1.5 0.397805 -1.341951 0.77937 -1.06066 1.06066 
C -0.77937 1.341951 -0.397805 1.5 0 1.5 
z
" id="m233dd0d942" style="stroke:#00bfbf;"/>
    </defs>
    <g>
     <use style="fill:#00bfbf;stroke:#00bfbf;" x="258.018415" xlink:href="#m233dd0d942" y="230.47481"/>
     <use style="fill:#00bfbf;stroke:#00bfbf;" x="258.018415" xlink:href="#m233dd0d942" y="230.47481"/>
    </g>
   </g>
   <g id="line2d_30">
    <path d="M 45.512012 298.944 
L 45.512012 293.677139 
L 57.6 293.677139 
L 57.6 286.303534 
L 64.67102 286.303534 
L 64.67102 284.723476 
L 69.687988 284.723476 
L 69.687988 283.670104 
L 73.579452 283.670104 
L 73.579452 283.143418 
L 79.447285 283.143418 
L 79.447285 282.616732 
L 81.775977 282.616732 
L 81.775977 282.090045 
L 83.830028 282.090045 
L 83.830028 280.509987 
L 88.846997 280.509987 
L 88.846997 279.983301 
L 91.535274 279.983301 
L 91.535274 279.456615 
L 93.863965 279.456615 
L 93.863965 278.929929 
L 95.918017 278.929929 
L 95.918017 277.349871 
L 99.41757 277.349871 
L 99.41757 276.823185 
L 100.192776 276.823185 
L 100.192776 275.243126 
L 101.646892 275.243126 
L 101.646892 274.71644 
L 108.006005 274.71644 
L 108.006005 274.189754 
L 110.274038 274.189754 
L 110.274038 272.609696 
L 113.022974 272.609696 
L 113.022974 272.08301 
L 114.080224 272.08301 
L 114.080224 271.556324 
L 115.077025 271.556324 
L 115.077025 271.029638 
L 122.362027 271.029638 
L 122.362027 270.502952 
L 122.782271 270.502952 
L 122.782271 269.976266 
L 125.996395 269.976266 
L 125.996395 269.449579 
L 126.673734 269.449579 
L 126.673734 268.396207 
L 127.002787 268.396207 
L 127.002787 267.342835 
L 128.856489 267.342835 
L 128.856489 266.816149 
L 130.664567 266.816149 
L 130.664567 266.289463 
L 132.422528 266.289463 
L 132.422528 265.762777 
L 134.12805 265.762777 
L 134.12805 265.236091 
L 137.997836 265.236091 
L 137.997836 264.182719 
L 139.253002 264.182719 
L 139.253002 263.656033 
L 141.871938 263.656033 
L 141.871938 263.129347 
L 142.619936 263.129347 
L 142.619936 262.60266 
L 143.273169 262.60266 
L 143.273169 262.075974 
L 143.902815 262.075974 
L 143.902815 261.549288 
L 144.510517 261.549288 
L 144.510517 261.022602 
L 145.097753 261.022602 
L 145.097753 260.495916 
L 145.832743 260.495916 
L 145.832743 259.96923 
L 147.113265 259.96923 
L 147.113265 259.442544 
L 147.818997 259.442544 
L 147.818997 258.915858 
L 148.592055 258.915858 
L 148.592055 258.389172 
L 149.241465 258.389172 
L 149.241465 257.862486 
L 149.998846 257.862486 
L 149.998846 257.3358 
L 150.808139 257.3358 
L 150.808139 256.282427 
L 151.621307 256.282427 
L 151.621307 255.755741 
L 152.736878 255.755741 
L 152.736878 255.229055 
L 154.707925 255.229055 
L 154.707925 254.175683 
L 154.840544 254.175683 
L 154.840544 252.595625 
L 155.200129 252.595625 
L 155.200129 252.068939 
L 155.584129 252.068939 
L 155.584129 251.542253 
L 156.236431 251.542253 
L 156.236431 251.015567 
L 159.532469 251.015567 
L 159.532469 250.488881 
L 160.005512 250.488881 
L 160.005512 249.962195 
L 160.418152 249.962195 
L 160.418152 249.435508 
L 162.9377 249.435508 
L 162.9377 248.908822 
L 163.906798 248.908822 
L 163.946031 247.85545 
L 164.448194 247.85545 
L 164.448194 247.328764 
L 165.02862 247.328764 
L 165.02862 246.802078 
L 166.047915 246.802078 
L 166.047915 246.275392 
L 173.072554 246.275392 
L 173.072554 245.748706 
L 175.496772 245.748706 
L 175.496772 245.22202 
L 179.049518 245.22202 
L 179.049518 244.695334 
L 179.19724 244.695334 
L 179.19724 244.168648 
L 193.536112 244.168648 
L 193.536112 243.641962 
L 193.792786 243.641962 
L 193.792786 243.115275 
L 196.985314 243.115275 
L 196.985314 242.588589 
L 197.479213 242.588589 
L 197.479213 242.061903 
L 204.732606 242.061903 
L 204.732606 241.535217 
L 205.652807 241.535217 
L 205.652807 241.008531 
L 208.317507 241.008531 
L 208.317507 240.481845 
L 208.622557 240.481845 
L 208.622557 239.955159 
L 208.913443 239.955159 
L 208.913443 239.428473 
L 209.49544 239.428473 
L 209.49544 238.901787 
L 210.88004 238.901787 
L 210.88004 238.375101 
L 219.666898 238.375101 
L 219.666898 237.848415 
L 226.916784 237.848415 
L 226.916784 237.321729 
L 227.74423 237.321729 
L 227.74423 236.795043 
L 228.044673 236.795043 
L 228.044673 236.268356 
L 229.33607 236.268356 
L 229.33607 235.74167 
L 230.538395 235.74167 
L 230.538395 235.214984 
L 231.089004 235.214984 
L 231.089004 234.688298 
L 233.787522 234.688298 
L 233.787522 234.161612 
L 233.929803 234.161612 
L 233.929803 233.634926 
L 238.294588 233.634926 
L 238.294588 233.10824 
L 238.70348 233.10824 
L 238.70348 232.581554 
L 239.234171 232.581554 
L 239.234171 232.054868 
L 240.902773 232.054868 
L 240.902773 231.528182 
L 246.484768 231.528182 
L 246.484768 231.001496 
L 258.018415 231.001496 
L 258.018415 230.47481 
L 338.688 230.47481 
L 338.688 230.47481 
" style="fill:none;stroke:#00bfbf;stroke-linecap:square;stroke-width:1.5;"/>
   </g>
   <g id="line2d_31">
    <defs>
     <path d="M -6 0 
L 6 0 
M 0 6 
L 0 -6 
" id="m1869f40f68" style="stroke:#00bfbf;stroke-width:1.5;"/>
    </defs>
    <g>
     <use style="fill-opacity:0;stroke:#00bfbf;stroke-width:1.5;" x="127.002787" xlink:href="#m1869f40f68" y="267.342835"/>
     <use style="fill-opacity:0;stroke:#00bfbf;stroke-width:1.5;" x="159.532469" xlink:href="#m1869f40f68" y="251.015567"/>
     <use style="fill-opacity:0;stroke:#00bfbf;stroke-width:1.5;" x="229.33607" xlink:href="#m1869f40f68" y="236.268356"/>
     <use style="fill-opacity:0;stroke:#00bfbf;stroke-width:1.5;" x="258.018415" xlink:href="#m1869f40f68" y="230.47481"/>
     <use style="fill-opacity:0;stroke:#00bfbf;stroke-width:1.5;" x="258.018415" xlink:href="#m1869f40f68" y="230.47481"/>
     <use style="fill-opacity:0;stroke:#00bfbf;stroke-width:1.5;" x="338.688" xlink:href="#m1869f40f68" y="230.47481"/>
    </g>
   </g>
   <g id="line2d_32">
    <path style="fill:none;stroke:#00bfbf;stroke-linecap:square;stroke-width:1.5;"/>
    <g/>
   </g>
   <g id="line2d_33">
    <path clip-path="url(#pd79eeea53e)" d="M 192.208326 244.168648 
" style="fill:none;stroke:#00bfbf;stroke-linecap:square;stroke-width:1.5;"/>
    <defs>
     <path d="M -12 12 
L 12 -12 
M -12 -12 
L 12 12 
" id="m953d94d2f4" style="stroke:#00bfbf;"/>
    </defs>
    <g clip-path="url(#pd79eeea53e)">
     <use style="fill:#00bfbf;stroke:#00bfbf;" x="192.208326" xlink:href="#m953d94d2f4" y="244.168648"/>
    </g>
   </g>
   <g id="line2d_34">
    <defs>
     <path d="M 0 1.5 
C 0.397805 1.5 0.77937 1.341951 1.06066 1.06066 
C 1.341951 0.77937 1.5 0.397805 1.5 0 
C 1.5 -0.397805 1.341951 -0.77937 1.06066 -1.06066 
C 0.77937 -1.341951 0.397805 -1.5 0 -1.5 
C -0.397805 -1.5 -0.77937 -1.341951 -1.06066 -1.06066 
C -1.341951 -0.77937 -1.5 -0.397805 -1.5 0 
C -1.5 0.397805 -1.341951 0.77937 -1.06066 1.06066 
C -0.77937 1.341951 -0.397805 1.5 0 1.5 
z
" id="mfad6cfe2e3" style="stroke:#008000;"/>
    </defs>
    <g>
     <use style="fill:#008000;stroke:#008000;" x="256.219939" xlink:href="#mfad6cfe2e3" y="209.407366"/>
     <use style="fill:#008000;stroke:#008000;" x="256.219939" xlink:href="#mfad6cfe2e3" y="209.407366"/>
    </g>
   </g>
   <g id="line2d_35">
    <path d="M 38.440992 298.944 
L 38.440992 296.31057 
L 50.52898 296.31057 
L 50.52898 293.150453 
L 57.6 293.150453 
L 57.6 292.097081 
L 62.616969 292.097081 
L 62.616969 289.463651 
L 69.687988 289.463651 
L 69.687988 288.410278 
L 72.376266 288.410278 
L 72.376266 287.883592 
L 74.704957 287.883592 
L 74.704957 287.356906 
L 86.792945 287.356906 
L 86.792945 286.83022 
L 88.846997 286.83022 
L 88.846997 286.303534 
L 90.684409 286.303534 
L 90.684409 285.250162 
L 91.535274 285.250162 
L 91.535274 284.723476 
L 93.863965 284.723476 
L 93.863965 284.19679 
L 98.32726 284.19679 
L 98.32726 283.670104 
L 99.41757 283.670104 
L 99.41757 283.143418 
L 110.131676 283.143418 
L 110.131676 282.616732 
L 111.239304 282.616732 
L 111.239304 282.090045 
L 112.026172 282.090045 
L 112.026172 281.563359 
L 113.73488 281.563359 
L 113.73488 281.036673 
L 114.193835 281.036673 
L 114.193835 279.456615 
L 121.931406 279.456615 
L 121.931406 278.929929 
L 126.618283 278.929929 
L 126.618283 277.876557 
L 127.590383 277.876557 
L 127.590383 277.349871 
L 131.270459 277.349871 
L 131.270459 276.296499 
L 132.342714 276.296499 
L 132.342714 275.769812 
L 133.72629 275.769812 
L 133.72629 275.243126 
L 134.800918 275.243126 
L 134.800918 274.71644 
L 135.747468 274.71644 
L 135.747468 274.189754 
L 136.707671 274.189754 
L 136.707671 273.663068 
L 137.968891 273.663068 
L 137.968891 273.136382 
L 138.369812 273.136382 
L 138.369812 272.609696 
L 140.44901 272.609696 
L 140.44901 272.08301 
L 144.550287 272.08301 
L 144.550287 270.502952 
L 144.904196 270.502952 
L 144.904196 269.976266 
L 145.665858 269.976266 
L 145.665858 269.449579 
L 146.502522 269.449579 
L 146.502522 268.922893 
L 148.449693 268.922893 
L 148.449693 268.396207 
L 149.104327 268.396207 
L 149.104327 267.869521 
L 149.794191 267.869521 
L 149.794191 267.342835 
L 151.634543 267.342835 
L 151.740076 265.762777 
L 151.897188 265.762777 
L 151.897188 264.709405 
L 153.129893 264.709405 
L 153.129893 264.182719 
L 153.867041 264.182719 
L 153.867041 263.656033 
L 155.699795 263.656033 
L 155.699795 263.129347 
L 158.049435 263.129347 
L 158.049435 262.60266 
L 158.83738 262.60266 
L 158.83738 262.075974 
L 161.510643 262.075974 
L 161.510643 261.549288 
L 161.940898 261.549288 
L 161.940898 260.495916 
L 162.432178 260.495916 
L 162.432178 259.96923 
L 164.997901 259.96923 
L 164.997901 259.442544 
L 165.483031 259.442544 
L 165.483031 258.915858 
L 165.9084 258.915858 
L 165.9084 255.229055 
L 184.8875 255.229055 
L 184.8875 254.702369 
L 190.125184 254.702369 
L 190.125184 254.175683 
L 190.804686 254.175683 
L 190.804686 253.648997 
L 191.263423 253.648997 
L 191.263423 253.122311 
L 192.576451 253.122311 
L 192.576451 252.595625 
L 193.797504 252.595625 
L 193.797504 251.542253 
L 197.018679 251.542253 
L 197.018679 250.488881 
L 198.876863 250.488881 
L 198.876863 249.435508 
L 199.806949 249.435508 
L 199.806949 248.908822 
L 201.029732 248.908822 
L 201.029732 248.382136 
L 201.338564 248.382136 
L 201.338564 247.85545 
L 201.587787 247.85545 
L 201.587787 247.328764 
L 202.233541 247.328764 
L 202.233541 246.802078 
L 202.805653 246.802078 
L 202.805653 246.275392 
L 204.152332 246.275392 
L 204.152332 245.748706 
L 205.774286 245.748706 
L 205.774286 245.22202 
L 207.576769 245.22202 
L 207.576769 244.695334 
L 210.066065 244.695334 
L 210.066065 244.168648 
L 211.094799 244.168648 
L 211.094799 243.641962 
L 211.490908 243.641962 
L 211.490908 243.115275 
L 212.079447 243.115275 
L 212.079447 242.588589 
L 212.965944 242.588589 
L 212.965944 242.061903 
L 215.451669 242.061903 
L 215.451669 241.535217 
L 216.054376 241.535217 
L 216.054376 240.481845 
L 217.445503 240.481845 
L 217.445503 239.955159 
L 218.334125 239.955159 
L 218.334125 239.428473 
L 218.449259 239.428473 
L 218.449259 238.901787 
L 219.506712 238.901787 
L 219.506712 238.375101 
L 219.667969 238.375101 
L 219.667969 237.848415 
L 220.401392 237.848415 
L 220.401392 237.321729 
L 220.55462 237.321729 
L 220.55462 236.268356 
L 221.006388 236.268356 
L 221.006388 235.74167 
L 221.812032 235.74167 
L 221.812032 235.214984 
L 222.200851 235.214984 
L 222.200851 234.688298 
L 222.567149 234.688298 
L 222.567149 234.161612 
L 223.279617 234.161612 
L 223.323059 233.10824 
L 224.252383 233.10824 
L 224.252383 232.581554 
L 224.375357 232.581554 
L 224.375357 232.054868 
L 224.779118 232.054868 
L 224.779118 231.528182 
L 225.290409 231.528182 
L 225.367755 230.47481 
L 225.974479 230.47481 
L 225.974479 229.948123 
L 227.439205 229.948123 
L 227.439205 229.421437 
L 227.7112 229.421437 
L 227.7112 228.894751 
L 228.045335 228.894751 
L 228.1114 227.841379 
L 228.502622 227.841379 
L 228.502622 227.314693 
L 229.413349 227.314693 
L 229.413349 226.788007 
L 229.656434 226.788007 
L 229.656434 226.261321 
L 229.83655 226.261321 
L 229.86639 225.207949 
L 230.653337 225.207949 
L 230.653337 224.681263 
L 231.917327 224.681263 
L 231.917327 224.154577 
L 232.821199 224.154577 
L 232.821199 223.627891 
L 233.584431 223.627891 
L 233.65655 222.574518 
L 233.776089 222.574518 
L 233.776089 222.047832 
L 235.039626 222.047832 
L 235.039626 221.521146 
L 236.70793 221.521146 
L 236.70793 220.99446 
L 238.971198 220.99446 
L 238.971198 220.467774 
L 239.424264 220.467774 
L 239.424264 219.941088 
L 239.951345 219.941088 
L 239.968059 218.36103 
L 240.752023 218.36103 
L 240.752023 217.834344 
L 240.926824 217.834344 
L 240.926824 217.307658 
L 241.333155 217.307658 
L 241.333155 216.780971 
L 241.471631 216.780971 
L 241.471631 216.254285 
L 241.775475 216.254285 
L 241.775475 215.727599 
L 242.855797 215.727599 
L 242.855797 215.200913 
L 243.535999 215.200913 
L 243.535999 214.674227 
L 243.846353 214.674227 
L 243.846353 214.147541 
L 245.369407 214.147541 
L 245.369407 213.620855 
L 246.171801 213.620855 
L 246.171801 213.094169 
L 246.871558 213.094169 
L 246.871558 212.567483 
L 247.791391 212.567483 
L 247.791391 212.040797 
L 249.651253 212.040797 
L 249.651253 211.514111 
L 252.469246 211.514111 
L 252.469246 210.987425 
L 254.627378 210.987425 
L 254.627378 210.460738 
L 255.563024 210.460738 
L 255.563024 209.934052 
L 256.219939 209.934052 
L 256.219939 209.407366 
L 338.688 209.407366 
L 338.688 209.407366 
" style="fill:none;stroke:#008000;stroke-linecap:square;stroke-width:1.5;"/>
   </g>
   <g id="line2d_36">
    <defs>
     <path d="M -0 6 
L 6 -6 
L -6 -6 
z
" id="ma59de37444" style="stroke:#008000;stroke-linejoin:miter;stroke-width:1.5;"/>
    </defs>
    <g>
     <use style="fill-opacity:0;stroke:#008000;stroke-linejoin:miter;stroke-width:1.5;" x="110.131676" xlink:href="#ma59de37444" y="283.143418"/>
     <use style="fill-opacity:0;stroke:#008000;stroke-linejoin:miter;stroke-width:1.5;" x="153.867041" xlink:href="#ma59de37444" y="264.182719"/>
     <use style="fill-opacity:0;stroke:#008000;stroke-linejoin:miter;stroke-width:1.5;" x="222.200851" xlink:href="#ma59de37444" y="235.214984"/>
     <use style="fill-opacity:0;stroke:#008000;stroke-linejoin:miter;stroke-width:1.5;" x="256.219939" xlink:href="#ma59de37444" y="209.407366"/>
     <use style="fill-opacity:0;stroke:#008000;stroke-linejoin:miter;stroke-width:1.5;" x="256.219939" xlink:href="#ma59de37444" y="209.407366"/>
     <use style="fill-opacity:0;stroke:#008000;stroke-linejoin:miter;stroke-width:1.5;" x="338.688" xlink:href="#ma59de37444" y="209.407366"/>
    </g>
   </g>
   <g id="line2d_37">
    <path style="fill:none;stroke:#008000;stroke-linecap:square;stroke-width:1.5;"/>
    <g/>
   </g>
   <g id="line2d_38">
    <path clip-path="url(#pd79eeea53e)" d="M 188.316863 254.702369 
" style="fill:none;stroke:#008000;stroke-linecap:square;stroke-width:1.5;"/>
    <defs>
     <path d="M -12 12 
L 12 -12 
M -12 -12 
L 12 12 
" id="m5470527b82" style="stroke:#008000;"/>
    </defs>
    <g clip-path="url(#pd79eeea53e)">
     <use style="fill:#008000;stroke:#008000;" x="188.316863" xlink:href="#m5470527b82" y="254.702369"/>
    </g>
   </g>
   <g id="line2d_39">
    <defs>
     <path d="M 0 1.5 
C 0.397805 1.5 0.77937 1.341951 1.06066 1.06066 
C 1.341951 0.77937 1.5 0.397805 1.5 0 
C 1.5 -0.397805 1.341951 -0.77937 1.06066 -1.06066 
C 0.77937 -1.341951 0.397805 -1.5 0 -1.5 
C -0.397805 -1.5 -0.77937 -1.341951 -1.06066 -1.06066 
C -1.341951 -0.77937 -1.5 -0.397805 -1.5 0 
C -1.5 0.397805 -1.341951 0.77937 -1.06066 1.06066 
C -0.77937 1.341951 -0.397805 1.5 0 1.5 
z
" id="m5b71223994" style="stroke:#0000ff;"/>
    </defs>
    <g>
     <use style="fill:#0000ff;stroke:#0000ff;" x="260.039411" xlink:href="#m5b71223994" y="251.542253"/>
     <use style="fill:#0000ff;stroke:#0000ff;" x="260.039411" xlink:href="#m5b71223994" y="251.542253"/>
    </g>
   </g>
   <g id="line2d_40">
    <path d="M 29.53256 298.944 
L 29.53256 298.417314 
L 53.708537 298.417314 
L 53.708537 297.890628 
L 76.759008 297.890628 
L 76.759008 297.363942 
L 87.009585 297.363942 
L 87.009585 296.31057 
L 98.100772 296.31057 
L 98.100772 295.783884 
L 102.060491 295.783884 
L 102.060491 295.257197 
L 102.330873 295.257197 
L 102.330873 294.730511 
L 104.826449 294.730511 
L 104.826449 294.203825 
L 110.016944 294.203825 
L 110.016944 293.677139 
L 110.527398 293.677139 
L 110.527398 293.150453 
L 113.73488 293.150453 
L 113.73488 292.623767 
L 114.552496 292.623767 
L 114.552496 292.097081 
L 115.077025 292.097081 
L 115.077025 291.570395 
L 115.460322 291.570395 
L 115.460322 291.043709 
L 116.443076 291.043709 
L 116.443076 290.517023 
L 116.680349 290.517023 
L 116.680349 289.990337 
L 117.145424 289.990337 
L 117.145424 288.936964 
L 125.541584 288.936964 
L 125.541584 288.410278 
L 125.822869 288.410278 
L 125.822869 287.883592 
L 127.54831 287.883592 
L 127.54831 287.356906 
L 129.404667 287.356906 
L 129.404667 286.83022 
L 131.839545 286.83022 
L 131.839545 286.303534 
L 133.352844 286.303534 
L 133.352844 285.776848 
L 134.192921 285.776848 
L 134.192921 285.250162 
L 135.602085 285.250162 
L 135.602085 284.723476 
L 136.034648 284.723476 
L 136.034648 284.19679 
L 138.256201 284.19679 
L 138.256201 283.670104 
L 138.959898 283.670104 
L 138.959898 283.143418 
L 139.285267 283.143418 
L 139.285267 282.616732 
L 140.011351 282.616732 
L 140.011351 282.090045 
L 142.161336 282.090045 
L 142.161336 281.563359 
L 144.510517 281.563359 
L 144.510517 281.036673 
L 144.91198 281.036673 
L 144.91198 280.509987 
L 145.755062 280.509987 
L 145.755062 279.983301 
L 146.978997 279.983301 
L 146.978997 279.456615 
L 147.828875 279.456615 
L 147.828875 278.929929 
L 148.025265 278.929929 
L 148.025265 277.876557 
L 148.54473 277.876557 
L 148.54473 277.349871 
L 149.963932 277.349871 
L 149.963932 276.823185 
L 151.453659 276.823185 
L 151.453659 276.296499 
L 152.677155 276.296499 
L 152.677155 275.769812 
L 153.395042 275.769812 
L 153.452361 274.71644 
L 154.385464 274.71644 
L 154.385464 274.189754 
L 156.015522 274.189754 
L 156.015522 273.663068 
L 156.260804 273.663068 
L 156.260804 273.136382 
L 156.562634 273.136382 
L 156.562634 272.609696 
L 158.594062 272.609696 
L 158.594062 272.08301 
L 158.774233 272.08301 
L 158.774233 271.556324 
L 160.783709 271.556324 
L 160.811875 270.502952 
L 161.591568 270.502952 
L 161.591568 269.976266 
L 161.96433 269.976266 
L 161.96433 269.449579 
L 164.024234 269.449579 
L 164.024234 268.922893 
L 164.682688 268.922893 
L 164.682688 268.396207 
L 164.79503 268.396207 
L 164.79503 267.869521 
L 164.980675 267.869521 
L 164.98806 266.816149 
L 166.568121 266.816149 
L 166.568121 266.289463 
L 167.646779 266.289463 
L 167.646779 265.236091 
L 167.923499 265.236091 
L 167.923499 264.709405 
L 168.122027 264.709405 
L 168.122027 264.182719 
L 170.003182 264.182719 
L 170.003182 263.656033 
L 171.49381 263.656033 
L 171.49381 263.129347 
L 172.366452 263.129347 
L 172.366452 262.60266 
L 175.100268 262.60266 
L 175.100268 262.075974 
L 175.971204 262.075974 
L 175.971204 261.549288 
L 176.680278 261.549288 
L 176.680278 261.022602 
L 177.538694 261.022602 
L 177.538694 260.495916 
L 178.232904 260.495916 
L 178.232904 259.96923 
L 184.191312 259.96923 
L 184.191312 259.442544 
L 191.396017 259.442544 
L 191.396017 258.915858 
L 192.816123 258.915858 
L 192.816123 258.389172 
L 193.059929 258.389172 
L 193.059929 257.862486 
L 195.687574 257.862486 
L 195.687574 257.3358 
L 202.054657 257.3358 
L 202.054657 256.809114 
L 205.996463 256.809114 
L 205.996463 256.282427 
L 206.136516 256.282427 
L 206.136516 255.755741 
L 210.005646 255.755741 
L 210.005646 255.229055 
L 211.600361 255.229055 
L 211.600361 254.702369 
L 214.931872 254.702369 
L 214.931872 254.175683 
L 219.789747 254.175683 
L 219.789747 253.648997 
L 234.683297 253.648997 
L 234.683297 253.122311 
L 236.535577 253.122311 
L 236.535577 252.595625 
L 256.850999 252.595625 
L 256.850999 252.068939 
L 260.039411 252.068939 
L 260.039411 251.542253 
L 338.688 251.542253 
L 338.688 251.542253 
" style="fill:none;stroke:#0000ff;stroke-linecap:square;stroke-width:1.5;"/>
   </g>
   <g id="line2d_41">
    <defs>
     <path d="M 0 -6 
L -1.347084 -1.854102 
L -5.706339 -1.854102 
L -2.179628 0.708204 
L -3.526712 4.854102 
L -0 2.291796 
L 3.526712 4.854102 
L 2.179628 0.708204 
L 5.706339 -1.854102 
L 1.347084 -1.854102 
z
" id="mfc5552919c" style="stroke:#0000ff;stroke-linejoin:bevel;stroke-width:1.5;"/>
    </defs>
    <g>
     <use style="fill-opacity:0;stroke:#0000ff;stroke-linejoin:bevel;stroke-width:1.5;" x="114.552496" xlink:href="#mfc5552919c" y="292.623767"/>
     <use style="fill-opacity:0;stroke:#0000ff;stroke-linejoin:bevel;stroke-width:1.5;" x="170.003182" xlink:href="#mfc5552919c" y="264.182719"/>
     <use style="fill-opacity:0;stroke:#0000ff;stroke-linejoin:bevel;stroke-width:1.5;" x="219.789747" xlink:href="#mfc5552919c" y="254.175683"/>
     <use style="fill-opacity:0;stroke:#0000ff;stroke-linejoin:bevel;stroke-width:1.5;" x="260.039411" xlink:href="#mfc5552919c" y="252.068939"/>
     <use style="fill-opacity:0;stroke:#0000ff;stroke-linejoin:bevel;stroke-width:1.5;" x="260.039411" xlink:href="#mfc5552919c" y="251.542253"/>
     <use style="fill-opacity:0;stroke:#0000ff;stroke-linejoin:bevel;stroke-width:1.5;" x="338.688" xlink:href="#mfc5552919c" y="251.542253"/>
    </g>
   </g>
   <g id="line2d_42">
    <path style="fill:none;stroke:#0000ff;stroke-linecap:square;stroke-width:1.5;"/>
    <g/>
   </g>
   <g id="line2d_43">
    <path clip-path="url(#pd79eeea53e)" d="M 188.122008 259.442544 
" style="fill:none;stroke:#0000ff;stroke-linecap:square;stroke-width:1.5;"/>
    <defs>
     <path d="M -12 12 
L 12 -12 
M -12 -12 
L 12 12 
" id="mac34a13291" style="stroke:#0000ff;"/>
    </defs>
    <g clip-path="url(#pd79eeea53e)">
     <use style="fill:#0000ff;stroke:#0000ff;" x="188.122008" xlink:href="#mac34a13291" y="259.442544"/>
    </g>
   </g>
   <g id="line2d_44">
    <defs>
     <path d="M 0 1.5 
C 0.397805 1.5 0.77937 1.341951 1.06066 1.06066 
C 1.341951 0.77937 1.5 0.397805 1.5 0 
C 1.5 -0.397805 1.341951 -0.77937 1.06066 -1.06066 
C 0.77937 -1.341951 0.397805 -1.5 0 -1.5 
C -0.397805 -1.5 -0.77937 -1.341951 -1.06066 -1.06066 
C -1.341951 -0.77937 -1.5 -0.397805 -1.5 0 
C -1.5 0.397805 -1.341951 0.77937 -1.06066 1.06066 
C -0.77937 1.341951 -0.397805 1.5 0 1.5 
z
" id="m5c8de9bbf3" style="stroke:#000000;"/>
    </defs>
    <g>
     <use style="stroke:#000000;" x="255.247419" xlink:href="#m5c8de9bbf3" y="256.809114"/>
     <use style="stroke:#000000;" x="255.247419" xlink:href="#m5c8de9bbf3" y="256.809114"/>
    </g>
   </g>
   <g id="line2d_45">
    <path d="M 127.293718 298.944 
L 127.293718 298.417314 
L 132.133473 298.417314 
L 132.133473 297.890628 
L 132.398622 297.890628 
L 132.398622 297.363942 
L 132.847322 297.363942 
L 132.847322 296.837256 
L 134.386096 296.837256 
L 134.386096 296.31057 
L 134.61933 296.31057 
L 134.61933 295.783884 
L 135.740886 295.783884 
L 135.740886 295.257197 
L 140.663789 295.257197 
L 140.663789 294.730511 
L 140.841591 294.730511 
L 140.841591 294.203825 
L 141.278324 294.203825 
L 141.278324 293.677139 
L 143.653678 293.677139 
L 143.653678 293.150453 
L 145.932112 293.150453 
L 145.932112 292.623767 
L 146.259313 292.623767 
L 146.259313 292.097081 
L 149.610898 292.097081 
L 149.610898 291.570395 
L 150.335638 291.570395 
L 150.335638 291.043709 
L 150.766468 291.043709 
L 150.766468 290.517023 
L 150.940821 290.517023 
L 150.940821 289.990337 
L 151.186911 289.990337 
L 151.186911 289.463651 
L 151.653058 289.463651 
L 151.653058 288.936964 
L 151.779487 288.936964 
L 151.779487 288.410278 
L 154.667942 288.410278 
L 154.667942 287.883592 
L 155.666226 287.883592 
L 155.666226 287.356906 
L 162.03881 287.356906 
L 162.03881 286.83022 
L 163.2749 286.83022 
L 163.2749 286.303534 
L 163.989086 286.303534 
L 163.989086 285.776848 
L 164.109855 285.776848 
L 164.109855 285.250162 
L 164.682688 285.250162 
L 164.682688 284.723476 
L 164.8881 284.723476 
L 164.8881 284.19679 
L 165.929399 284.19679 
L 165.985272 283.143418 
L 166.378267 283.143418 
L 166.459886 282.090045 
L 167.190782 282.090045 
L 167.190782 281.563359 
L 167.630923 281.563359 
L 167.630923 281.036673 
L 168.149765 281.036673 
L 168.149765 280.509987 
L 168.382251 280.509987 
L 168.400474 279.456615 
L 168.60868 279.456615 
L 168.60868 278.929929 
L 168.973774 278.929929 
L 168.973774 278.403243 
L 169.172381 278.403243 
L 169.172381 277.876557 
L 169.936599 277.876557 
L 169.936599 277.349871 
L 170.121846 277.349871 
L 170.121846 276.823185 
L 170.607318 276.823185 
L 170.607318 276.296499 
L 170.777667 276.296499 
L 170.777667 275.769812 
L 170.954235 275.769812 
L 170.954235 275.243126 
L 171.152381 275.243126 
L 171.152381 274.71644 
L 171.422484 274.71644 
L 171.422484 274.189754 
L 171.605309 274.189754 
L 171.67086 273.136382 
L 171.721118 273.136382 
L 171.771231 272.08301 
L 172.668501 272.08301 
L 172.668501 271.556324 
L 172.888133 271.556324 
L 172.888133 271.029638 
L 173.158262 271.029638 
L 173.158262 270.502952 
L 173.551251 270.502952 
L 173.551251 269.976266 
L 173.701969 269.976266 
L 173.771266 268.922893 
L 173.992945 268.922893 
L 173.992945 268.396207 
L 174.932012 268.396207 
L 174.932012 267.869521 
L 175.336395 267.869521 
L 175.336395 267.342835 
L 175.737594 267.342835 
L 175.747557 266.289463 
L 177.042792 266.289463 
L 177.042792 265.762777 
L 182.66586 265.762777 
L 182.66586 265.236091 
L 193.043683 265.236091 
L 193.043683 264.709405 
L 193.989142 264.709405 
L 193.989142 264.182719 
L 194.141737 264.182719 
L 194.141737 263.656033 
L 194.613968 263.656033 
L 194.613968 263.129347 
L 204.963519 263.129347 
L 204.963519 262.60266 
L 210.453769 262.60266 
L 210.453769 262.075974 
L 211.137959 262.075974 
L 211.137959 261.549288 
L 211.780429 261.549288 
L 211.780429 261.022602 
L 214.486071 261.022602 
L 214.486071 260.495916 
L 225.482139 260.495916 
L 225.482139 259.96923 
L 229.544853 259.96923 
L 229.544853 259.442544 
L 234.097478 259.442544 
L 234.097478 258.915858 
L 239.159685 258.915858 
L 239.159685 258.389172 
L 244.660458 258.389172 
L 244.660458 257.862486 
L 252.680162 257.862486 
L 252.680162 257.3358 
L 255.247419 257.3358 
L 255.247419 256.809114 
L 338.688 256.809114 
L 338.688 256.809114 
" style="fill:none;stroke:#000000;stroke-linecap:square;stroke-width:1.5;"/>
   </g>
   <g id="line2d_46">
    <defs>
     <path d="M 0 6 
C 1.591219 6 3.117479 5.367802 4.242641 4.242641 
C 5.367802 3.117479 6 1.591219 6 0 
C 6 -1.591219 5.367802 -3.117479 4.242641 -4.242641 
C 3.117479 -5.367802 1.591219 -6 0 -6 
C -1.591219 -6 -3.117479 -5.367802 -4.242641 -4.242641 
C -5.367802 -3.117479 -6 -1.591219 -6 0 
C -6 1.591219 -5.367802 3.117479 -4.242641 4.242641 
C -3.117479 5.367802 -1.591219 6 0 6 
z
" id="me142fac712" style="stroke:#000000;stroke-width:1.5;"/>
    </defs>
    <g>
     <use style="fill-opacity:0;stroke:#000000;stroke-width:1.5;" x="194.613968" xlink:href="#me142fac712" y="263.656033"/>
     <use style="fill-opacity:0;stroke:#000000;stroke-width:1.5;" x="252.680162" xlink:href="#me142fac712" y="257.3358"/>
     <use style="fill-opacity:0;stroke:#000000;stroke-width:1.5;" x="255.247419" xlink:href="#me142fac712" y="256.809114"/>
     <use style="fill-opacity:0;stroke:#000000;stroke-width:1.5;" x="255.247419" xlink:href="#me142fac712" y="256.809114"/>
     <use style="fill-opacity:0;stroke:#000000;stroke-width:1.5;" x="338.688" xlink:href="#me142fac712" y="256.809114"/>
    </g>
   </g>
   <g id="line2d_47">
    <path style="fill:none;stroke:#000000;stroke-linecap:square;stroke-width:1.5;"/>
    <g/>
   </g>
   <g id="line2d_48">
    <path clip-path="url(#pd79eeea53e)" d="M 188.605122 265.236091 
" style="fill:none;stroke:#000000;stroke-linecap:square;stroke-width:1.5;"/>
    <defs>
     <path d="M -12 12 
L 12 -12 
M -12 -12 
L 12 12 
" id="m4fc5e9e8ca" style="stroke:#000000;"/>
    </defs>
    <g clip-path="url(#pd79eeea53e)">
     <use style="stroke:#000000;" x="188.605122" xlink:href="#m4fc5e9e8ca" y="265.236091"/>
    </g>
   </g>
   <g id="line2d_49">
    <defs>
     <path d="M 0 1.5 
C 0.397805 1.5 0.77937 1.341951 1.06066 1.06066 
C 1.341951 0.77937 1.5 0.397805 1.5 0 
C 1.5 -0.397805 1.341951 -0.77937 1.06066 -1.06066 
C 0.77937 -1.341951 0.397805 -1.5 0 -1.5 
C -0.397805 -1.5 -0.77937 -1.341951 -1.06066 -1.06066 
C -1.341951 -0.77937 -1.5 -0.397805 -1.5 0 
C -1.5 0.397805 -1.341951 0.77937 -1.06066 1.06066 
C -0.77937 1.341951 -0.397805 1.5 0 1.5 
z
" id="mde77b99962" style="stroke:#ff0000;"/>
    </defs>
    <g>
     <use style="fill:#ff0000;stroke:#ff0000;" x="231.5007" xlink:href="#mde77b99962" y="272.609696"/>
     <use style="fill:#ff0000;stroke:#ff0000;" x="231.5007" xlink:href="#mde77b99962" y="272.609696"/>
    </g>
   </g>
   <g id="line2d_50">
    <path d="M 159.129083 298.944 
L 159.129083 298.417314 
L 159.433763 298.417314 
L 159.433763 297.890628 
L 159.572803 297.890628 
L 159.572803 297.363942 
L 160.86807 297.363942 
L 160.86807 296.837256 
L 161.620699 296.837256 
L 161.620699 296.31057 
L 161.734513 296.31057 
L 161.734513 295.783884 
L 163.305418 295.783884 
L 163.305418 295.257197 
L 164.53934 295.257197 
L 164.53934 294.730511 
L 164.83418 294.730511 
L 164.83418 294.203825 
L 165.333476 294.203825 
L 165.333476 293.677139 
L 165.414719 293.677139 
L 165.414719 293.150453 
L 165.670408 293.150453 
L 165.670408 292.623767 
L 165.806549 292.623767 
L 165.806549 292.097081 
L 166.046178 292.097081 
L 166.046178 291.570395 
L 166.378267 291.570395 
L 166.378267 291.043709 
L 166.668984 291.043709 
L 166.668984 290.517023 
L 166.74592 290.517023 
L 166.74592 289.990337 
L 166.770935 289.990337 
L 166.770935 289.463651 
L 166.800905 289.463651 
L 166.800905 288.936964 
L 166.973064 288.936964 
L 166.973064 288.410278 
L 167.007622 288.410278 
L 167.007622 287.883592 
L 167.050313 287.883592 
L 167.050313 287.356906 
L 167.105982 287.356906 
L 167.105982 286.83022 
L 167.611878 286.83022 
L 167.611878 286.303534 
L 167.668952 286.303534 
L 167.668952 285.776848 
L 167.670535 285.776848 
L 167.670535 285.250162 
L 167.71795 285.250162 
L 167.71795 284.723476 
L 168.18668 284.723476 
L 168.18668 284.19679 
L 168.313745 284.19679 
L 168.313745 283.670104 
L 168.554604 283.670104 
L 168.554604 283.143418 
L 168.60868 283.143418 
L 168.60868 282.616732 
L 168.889856 282.616732 
L 168.889856 282.090045 
L 169.028031 282.090045 
L 169.028031 281.563359 
L 169.061673 281.563359 
L 169.061673 281.036673 
L 169.406043 281.036673 
L 169.406043 280.509987 
L 169.659223 280.509987 
L 169.659223 279.983301 
L 169.879524 279.983301 
L 169.879524 279.456615 
L 172.943197 279.456615 
L 172.943197 278.929929 
L 173.336433 278.929929 
L 173.336433 278.403243 
L 174.212929 278.403243 
L 174.212929 277.876557 
L 191.315847 277.876557 
L 191.315847 277.349871 
L 191.525461 277.349871 
L 191.525461 276.823185 
L 192.016606 276.823185 
L 192.016606 276.296499 
L 201.052696 276.296499 
L 201.052696 275.769812 
L 202.166893 275.769812 
L 202.166893 275.243126 
L 208.136858 275.243126 
L 208.136858 274.71644 
L 218.440507 274.71644 
L 218.440507 274.189754 
L 219.810138 274.189754 
L 219.810138 273.663068 
L 231.367978 273.663068 
L 231.367978 273.136382 
L 231.5007 273.136382 
L 231.5007 272.609696 
L 338.688 272.609696 
" style="fill:none;stroke:#ff0000;stroke-linecap:square;stroke-width:1.5;"/>
   </g>
   <g id="line2d_51">
    <defs>
     <path d="M -6 6 
L 6 6 
L 6 -6 
L -6 -6 
z
" id="m31d1e1e267" style="stroke:#ff0000;stroke-linejoin:miter;stroke-width:1.5;"/>
    </defs>
    <g>
     <use style="fill-opacity:0;stroke:#ff0000;stroke-linejoin:miter;stroke-width:1.5;" x="192.016606" xlink:href="#m31d1e1e267" y="276.296499"/>
     <use style="fill-opacity:0;stroke:#ff0000;stroke-linejoin:miter;stroke-width:1.5;" x="231.5007" xlink:href="#m31d1e1e267" y="272.609696"/>
     <use style="fill-opacity:0;stroke:#ff0000;stroke-linejoin:miter;stroke-width:1.5;" x="231.5007" xlink:href="#m31d1e1e267" y="272.609696"/>
     <use style="fill-opacity:0;stroke:#ff0000;stroke-linejoin:miter;stroke-width:1.5;" x="338.688" xlink:href="#m31d1e1e267" y="272.609696"/>
    </g>
   </g>
   <g id="line2d_52">
    <path style="fill:none;stroke:#ff0000;stroke-linecap:square;stroke-width:1.5;"/>
    <g/>
   </g>
   <g id="line2d_53">
    <path clip-path="url(#pd79eeea53e)" d="M 185.988171 277.876557 
" style="fill:none;stroke:#ff0000;stroke-linecap:square;stroke-width:1.5;"/>
    <defs>
     <path d="M -12 12 
L 12 -12 
M -12 -12 
L 12 12 
" id="made11ce84c" style="stroke:#ff0000;"/>
    </defs>
    <g clip-path="url(#pd79eeea53e)">
     <use style="fill:#ff0000;stroke:#ff0000;" x="185.988171" xlink:href="#made11ce84c" y="277.876557"/>
    </g>
   </g>
   <g id="line2d_54">
    <path d="M 338.688 272.609696 
L 369.60768 293.571802 
" style="fill:none;stroke:#ff0000;stroke-linecap:square;stroke-width:1.5;"/>
    <g>
     <use style="fill-opacity:0;stroke:#ff0000;stroke-linejoin:miter;stroke-width:1.5;" x="338.688" xlink:href="#m31d1e1e267" y="272.609696"/>
     <use style="fill-opacity:0;stroke:#ff0000;stroke-linejoin:miter;stroke-width:1.5;" x="369.60768" xlink:href="#m31d1e1e267" y="293.571802"/>
    </g>
   </g>
   <g id="line2d_55">
    <path d="M 338.688 256.809114 
L 369.60768 229.105426 
" style="fill:none;stroke:#000000;stroke-linecap:square;stroke-width:1.5;"/>
    <g>
     <use style="fill-opacity:0;stroke:#000000;stroke-width:1.5;" x="338.688" xlink:href="#me142fac712" y="256.809114"/>
     <use style="fill-opacity:0;stroke:#000000;stroke-width:1.5;" x="369.60768" xlink:href="#me142fac712" y="229.105426"/>
    </g>
   </g>
   <g id="line2d_56">
    <path d="M 338.688 251.542253 
L 369.60768 164.63905 
" style="fill:none;stroke:#0000ff;stroke-linecap:square;stroke-width:1.5;"/>
    <g>
     <use style="fill-opacity:0;stroke:#0000ff;stroke-linejoin:bevel;stroke-width:1.5;" x="338.688" xlink:href="#mfc5552919c" y="251.542253"/>
     <use style="fill-opacity:0;stroke:#0000ff;stroke-linejoin:bevel;stroke-width:1.5;" x="369.60768" xlink:href="#mfc5552919c" y="164.63905"/>
    </g>
   </g>
   <g id="line2d_57">
    <path d="M 338.688 230.47481 
L 369.60768 100.172673 
" style="fill:none;stroke:#00bfbf;stroke-linecap:square;stroke-width:1.5;"/>
    <g>
     <use style="fill-opacity:0;stroke:#00bfbf;stroke-width:1.5;" x="338.688" xlink:href="#m1869f40f68" y="230.47481"/>
     <use style="fill-opacity:0;stroke:#00bfbf;stroke-width:1.5;" x="369.60768" xlink:href="#m1869f40f68" y="100.172673"/>
    </g>
   </g>
   <g id="line2d_58">
    <path d="M 338.688 209.407366 
L 369.60768 35.706297 
" style="fill:none;stroke:#008000;stroke-linecap:square;stroke-width:1.5;"/>
    <g>
     <use style="fill-opacity:0;stroke:#008000;stroke-linejoin:miter;stroke-width:1.5;" x="338.688" xlink:href="#ma59de37444" y="209.407366"/>
     <use style="fill-opacity:0;stroke:#008000;stroke-linejoin:miter;stroke-width:1.5;" x="369.60768" xlink:href="#ma59de37444" y="35.706297"/>
    </g>
   </g>
   <g id="line2d_59">
    <path d="M 338.688 298.944 
L 338.688 30.334099 
" style="fill:none;stroke:#000000;stroke-linecap:square;stroke-width:1.5;"/>
   </g>
   <g id="patch_3">
    <path d="M 57.6 298.944 
L 57.6 27.648 
" style="fill:none;stroke:#000000;stroke-linecap:square;stroke-linejoin:miter;stroke-width:0.8;"/>
   </g>
   <g id="patch_4">
    <path d="M 338.688 298.944 
L 338.688 27.648 
" style="fill:none;stroke:#000000;stroke-linecap:square;stroke-linejoin:miter;stroke-width:0.8;"/>
   </g>
   <g id="patch_5">
    <path d="M 57.6 298.944 
L 338.688 298.944 
" style="fill:none;stroke:#000000;stroke-linecap:square;stroke-linejoin:miter;stroke-width:0.8;"/>
   </g>
   <g id="patch_6">
    <path d="M 57.6 27.648 
L 338.688 27.648 
" style="fill:none;stroke:#000000;stroke-linecap:square;stroke-linejoin:miter;stroke-width:0.8;"/>
   </g>
   <g id="text_13">
    <!-- 20-D -->
    <g transform="translate(375.22944 298.262739)scale(0.17 -0.17)">
     <defs>
      <path d="M 1259 4147 
L 1259 519 
L 2022 519 
Q 2988 519 3436 956 
Q 3884 1394 3884 2338 
Q 3884 3275 3436 3711 
Q 2988 4147 2022 4147 
L 1259 4147 
z
M 628 4666 
L 1925 4666 
Q 3281 4666 3915 4102 
Q 4550 3538 4550 2338 
Q 4550 1131 3912 565 
Q 3275 0 1925 0 
L 628 0 
L 628 4666 
z
" id="DejaVuSans-44" transform="scale(0.015625)"/>
     </defs>
     <use xlink:href="#DejaVuSans-32"/>
     <use x="63.623047" xlink:href="#DejaVuSans-30"/>
     <use x="127.246094" xlink:href="#DejaVuSans-2d"/>
     <use x="163.330078" xlink:href="#DejaVuSans-44"/>
    </g>
   </g>
   <g id="text_14">
    <!-- 10-D -->
    <g transform="translate(375.22944 233.796363)scale(0.17 -0.17)">
     <use xlink:href="#DejaVuSans-31"/>
     <use x="63.623047" xlink:href="#DejaVuSans-30"/>
     <use x="127.246094" xlink:href="#DejaVuSans-2d"/>
     <use x="163.330078" xlink:href="#DejaVuSans-44"/>
    </g>
   </g>
   <g id="text_15">
    <!-- 5-D -->
    <g transform="translate(375.22944 169.329987)scale(0.17 -0.17)">
     <defs>
      <path d="M 691 4666 
L 3169 4666 
L 3169 4134 
L 1269 4134 
L 1269 2991 
Q 1406 3038 1543 3061 
Q 1681 3084 1819 3084 
Q 2600 3084 3056 2656 
Q 3513 2228 3513 1497 
Q 3513 744 3044 326 
Q 2575 -91 1722 -91 
Q 1428 -91 1123 -41 
Q 819 9 494 109 
L 494 744 
Q 775 591 1075 516 
Q 1375 441 1709 441 
Q 2250 441 2565 725 
Q 2881 1009 2881 1497 
Q 2881 1984 2565 2268 
Q 2250 2553 1709 2553 
Q 1456 2553 1204 2497 
Q 953 2441 691 2322 
L 691 4666 
z
" id="DejaVuSans-35" transform="scale(0.015625)"/>
     </defs>
     <use xlink:href="#DejaVuSans-35"/>
     <use x="63.623047" xlink:href="#DejaVuSans-2d"/>
     <use x="99.707031" xlink:href="#DejaVuSans-44"/>
    </g>
   </g>
   <g id="text_16">
    <!-- 2-D -->
    <g transform="translate(375.22944 104.863611)scale(0.17 -0.17)">
     <use xlink:href="#DejaVuSans-32"/>
     <use x="63.623047" xlink:href="#DejaVuSans-2d"/>
     <use x="99.707031" xlink:href="#DejaVuSans-44"/>
    </g>
   </g>
   <g id="text_17">
    <!-- 3-D -->
    <g transform="translate(375.22944 40.397235)scale(0.17 -0.17)">
     <defs>
      <path d="M 2597 2516 
Q 3050 2419 3304 2112 
Q 3559 1806 3559 1356 
Q 3559 666 3084 287 
Q 2609 -91 1734 -91 
Q 1441 -91 1130 -33 
Q 819 25 488 141 
L 488 750 
Q 750 597 1062 519 
Q 1375 441 1716 441 
Q 2309 441 2620 675 
Q 2931 909 2931 1356 
Q 2931 1769 2642 2001 
Q 2353 2234 1838 2234 
L 1294 2234 
L 1294 2753 
L 1863 2753 
Q 2328 2753 2575 2939 
Q 2822 3125 2822 3475 
Q 2822 3834 2567 4026 
Q 2313 4219 1838 4219 
Q 1578 4219 1281 4162 
Q 984 4106 628 3988 
L 628 4550 
Q 988 4650 1302 4700 
Q 1616 4750 1894 4750 
Q 2613 4750 3031 4423 
Q 3450 4097 3450 3541 
Q 3450 3153 3228 2886 
Q 3006 2619 2597 2516 
z
" id="DejaVuSans-33" transform="scale(0.015625)"/>
     </defs>
     <use xlink:href="#DejaVuSans-33"/>
     <use x="63.623047" xlink:href="#DejaVuSans-2d"/>
     <use x="99.707031" xlink:href="#DejaVuSans-44"/>
    </g>
   </g>
   <g id="text_18">
    <!-- bbob f4 -->
    <g transform="translate(60.41088 38.111366)scale(0.102 -0.102)">
     <defs>
      <path d="M 3116 1747 
Q 3116 2381 2855 2742 
Q 2594 3103 2138 3103 
Q 1681 3103 1420 2742 
Q 1159 2381 1159 1747 
Q 1159 1113 1420 752 
Q 1681 391 2138 391 
Q 2594 391 2855 752 
Q 3116 1113 3116 1747 
z
M 1159 2969 
Q 1341 3281 1617 3432 
Q 1894 3584 2278 3584 
Q 2916 3584 3314 3078 
Q 3713 2572 3713 1747 
Q 3713 922 3314 415 
Q 2916 -91 2278 -91 
Q 1894 -91 1617 61 
Q 1341 213 1159 525 
L 1159 0 
L 581 0 
L 581 4863 
L 1159 4863 
L 1159 2969 
z
" id="DejaVuSans-62" transform="scale(0.015625)"/>
     </defs>
     <use xlink:href="#DejaVuSans-62"/>
     <use x="63.476562" xlink:href="#DejaVuSans-62"/>
     <use x="126.953125" xlink:href="#DejaVuSans-6f"/>
     <use x="188.134766" xlink:href="#DejaVuSans-62"/>
     <use x="251.611328" xlink:href="#DejaVuSans-20"/>
     <use x="283.398438" xlink:href="#DejaVuSans-66"/>
     <use x="318.603516" xlink:href="#DejaVuSans-34"/>
    </g>
    <!-- 51 targets: 100..1e-08 -->
    <g transform="translate(60.41088 49.533135)scale(0.102 -0.102)">
     <defs>
      <path d="M 750 794 
L 1409 794 
L 1409 0 
L 750 0 
L 750 794 
z
M 750 3309 
L 1409 3309 
L 1409 2516 
L 750 2516 
L 750 3309 
z
" id="DejaVuSans-3a" transform="scale(0.015625)"/>
     </defs>
     <use xlink:href="#DejaVuSans-35"/>
     <use x="63.623047" xlink:href="#DejaVuSans-31"/>
     <use x="127.246094" xlink:href="#DejaVuSans-20"/>
     <use x="159.033203" xlink:href="#DejaVuSans-74"/>
     <use x="198.242188" xlink:href="#DejaVuSans-61"/>
     <use x="259.521484" xlink:href="#DejaVuSans-72"/>
     <use x="298.884766" xlink:href="#DejaVuSans-67"/>
     <use x="362.361328" xlink:href="#DejaVuSans-65"/>
     <use x="423.884766" xlink:href="#DejaVuSans-74"/>
     <use x="463.09375" xlink:href="#DejaVuSans-73"/>
     <use x="515.193359" xlink:href="#DejaVuSans-3a"/>
     <use x="548.884766" xlink:href="#DejaVuSans-20"/>
     <use x="580.671875" xlink:href="#DejaVuSans-31"/>
     <use x="644.294922" xlink:href="#DejaVuSans-30"/>
     <use x="707.917969" xlink:href="#DejaVuSans-30"/>
     <use x="771.541016" xlink:href="#DejaVuSans-2e"/>
     <use x="803.328125" xlink:href="#DejaVuSans-2e"/>
     <use x="835.115234" xlink:href="#DejaVuSans-31"/>
     <use x="898.738281" xlink:href="#DejaVuSans-65"/>
     <use x="960.261719" xlink:href="#DejaVuSans-2d"/>
     <use x="996.345703" xlink:href="#DejaVuSans-30"/>
     <use x="1059.96875" xlink:href="#DejaVuSans-38"/>
    </g>
    <!-- 15 instances -->
    <g transform="translate(60.41088 60.954904)scale(0.102 -0.102)">
     <use xlink:href="#DejaVuSans-31"/>
     <use x="63.623047" xlink:href="#DejaVuSans-35"/>
     <use x="127.246094" xlink:href="#DejaVuSans-20"/>
     <use x="159.033203" xlink:href="#DejaVuSans-69"/>
     <use x="186.816406" xlink:href="#DejaVuSans-6e"/>
     <use x="250.195312" xlink:href="#DejaVuSans-73"/>
     <use x="302.294922" xlink:href="#DejaVuSans-74"/>
     <use x="341.503906" xlink:href="#DejaVuSans-61"/>
     <use x="402.783203" xlink:href="#DejaVuSans-6e"/>
     <use x="466.162109" xlink:href="#DejaVuSans-63"/>
     <use x="521.142578" xlink:href="#DejaVuSans-65"/>
     <use x="582.666016" xlink:href="#DejaVuSans-73"/>
    </g>
   </g>
   <g id="text_19">
    <!-- v2.4 -->
    <g style="fill:#808080;" transform="translate(187.233062 294.151352)scale(0.1 -0.1)">
     <use xlink:href="#DejaVuSans-76"/>
     <use x="59.179688" xlink:href="#DejaVuSans-32"/>
     <use x="122.802734" xlink:href="#DejaVuSans-2e"/>
     <use x="154.589844" xlink:href="#DejaVuSans-34"/>
    </g>
   </g>
   <g id="text_20">
    <!-- 4 Skew Rastrigin-Bueche separ -->
    <g transform="translate(43.269 21.648)scale(0.2 -0.2)">
     <defs>
      <path d="M 3425 4513 
L 3425 3897 
Q 3066 4069 2747 4153 
Q 2428 4238 2131 4238 
Q 1616 4238 1336 4038 
Q 1056 3838 1056 3469 
Q 1056 3159 1242 3001 
Q 1428 2844 1947 2747 
L 2328 2669 
Q 3034 2534 3370 2195 
Q 3706 1856 3706 1288 
Q 3706 609 3251 259 
Q 2797 -91 1919 -91 
Q 1588 -91 1214 -16 
Q 841 59 441 206 
L 441 856 
Q 825 641 1194 531 
Q 1563 422 1919 422 
Q 2459 422 2753 634 
Q 3047 847 3047 1241 
Q 3047 1584 2836 1778 
Q 2625 1972 2144 2069 
L 1759 2144 
Q 1053 2284 737 2584 
Q 422 2884 422 3419 
Q 422 4038 858 4394 
Q 1294 4750 2059 4750 
Q 2388 4750 2728 4690 
Q 3069 4631 3425 4513 
z
" id="DejaVuSans-53" transform="scale(0.015625)"/>
      <path d="M 581 4863 
L 1159 4863 
L 1159 1991 
L 2875 3500 
L 3609 3500 
L 1753 1863 
L 3688 0 
L 2938 0 
L 1159 1709 
L 1159 0 
L 581 0 
L 581 4863 
z
" id="DejaVuSans-6b" transform="scale(0.015625)"/>
      <path d="M 269 3500 
L 844 3500 
L 1563 769 
L 2278 3500 
L 2956 3500 
L 3675 769 
L 4391 3500 
L 4966 3500 
L 4050 0 
L 3372 0 
L 2619 2869 
L 1863 0 
L 1184 0 
L 269 3500 
z
" id="DejaVuSans-77" transform="scale(0.015625)"/>
      <path d="M 2841 2188 
Q 3044 2119 3236 1894 
Q 3428 1669 3622 1275 
L 4263 0 
L 3584 0 
L 2988 1197 
Q 2756 1666 2539 1819 
Q 2322 1972 1947 1972 
L 1259 1972 
L 1259 0 
L 628 0 
L 628 4666 
L 2053 4666 
Q 2853 4666 3247 4331 
Q 3641 3997 3641 3322 
Q 3641 2881 3436 2590 
Q 3231 2300 2841 2188 
z
M 1259 4147 
L 1259 2491 
L 2053 2491 
Q 2509 2491 2742 2702 
Q 2975 2913 2975 3322 
Q 2975 3731 2742 3939 
Q 2509 4147 2053 4147 
L 1259 4147 
z
" id="DejaVuSans-52" transform="scale(0.015625)"/>
      <path d="M 1259 2228 
L 1259 519 
L 2272 519 
Q 2781 519 3026 730 
Q 3272 941 3272 1375 
Q 3272 1813 3026 2020 
Q 2781 2228 2272 2228 
L 1259 2228 
z
M 1259 4147 
L 1259 2741 
L 2194 2741 
Q 2656 2741 2882 2914 
Q 3109 3088 3109 3444 
Q 3109 3797 2882 3972 
Q 2656 4147 2194 4147 
L 1259 4147 
z
M 628 4666 
L 2241 4666 
Q 2963 4666 3353 4366 
Q 3744 4066 3744 3513 
Q 3744 3084 3544 2831 
Q 3344 2578 2956 2516 
Q 3422 2416 3680 2098 
Q 3938 1781 3938 1306 
Q 3938 681 3513 340 
Q 3088 0 2303 0 
L 628 0 
L 628 4666 
z
" id="DejaVuSans-42" transform="scale(0.015625)"/>
      <path d="M 3513 2113 
L 3513 0 
L 2938 0 
L 2938 2094 
Q 2938 2591 2744 2837 
Q 2550 3084 2163 3084 
Q 1697 3084 1428 2787 
Q 1159 2491 1159 1978 
L 1159 0 
L 581 0 
L 581 4863 
L 1159 4863 
L 1159 2956 
Q 1366 3272 1645 3428 
Q 1925 3584 2291 3584 
Q 2894 3584 3203 3211 
Q 3513 2838 3513 2113 
z
" id="DejaVuSans-68" transform="scale(0.015625)"/>
     </defs>
     <use xlink:href="#DejaVuSans-34"/>
     <use x="63.623047" xlink:href="#DejaVuSans-20"/>
     <use x="95.410156" xlink:href="#DejaVuSans-53"/>
     <use x="158.886719" xlink:href="#DejaVuSans-6b"/>
     <use x="213.171875" xlink:href="#DejaVuSans-65"/>
     <use x="274.695312" xlink:href="#DejaVuSans-77"/>
     <use x="356.482422" xlink:href="#DejaVuSans-20"/>
     <use x="388.269531" xlink:href="#DejaVuSans-52"/>
     <use x="455.501953" xlink:href="#DejaVuSans-61"/>
     <use x="516.78125" xlink:href="#DejaVuSans-73"/>
     <use x="568.880859" xlink:href="#DejaVuSans-74"/>
     <use x="608.089844" xlink:href="#DejaVuSans-72"/>
     <use x="649.203125" xlink:href="#DejaVuSans-69"/>
     <use x="676.986328" xlink:href="#DejaVuSans-67"/>
     <use x="740.462891" xlink:href="#DejaVuSans-69"/>
     <use x="768.246094" xlink:href="#DejaVuSans-6e"/>
     <use x="831.625" xlink:href="#DejaVuSans-2d"/>
     <use x="864.083984" xlink:href="#DejaVuSans-42"/>
     <use x="932.6875" xlink:href="#DejaVuSans-75"/>
     <use x="996.066406" xlink:href="#DejaVuSans-65"/>
     <use x="1057.589844" xlink:href="#DejaVuSans-63"/>
     <use x="1112.570312" xlink:href="#DejaVuSans-68"/>
     <use x="1175.949219" xlink:href="#DejaVuSans-65"/>
     <use x="1237.472656" xlink:href="#DejaVuSans-20"/>
     <use x="1269.259766" xlink:href="#DejaVuSans-73"/>
     <use x="1321.359375" xlink:href="#DejaVuSans-65"/>
     <use x="1382.882812" xlink:href="#DejaVuSans-70"/>
     <use x="1446.359375" xlink:href="#DejaVuSans-61"/>
     <use x="1507.638672" xlink:href="#DejaVuSans-72"/>
    </g>
   </g>
  </g>
 </g>
 <defs>
  <clipPath id="pd79eeea53e">
   <rect height="271.296" width="281.088" x="57.6" y="27.648"/>
  </clipPath>
 </defs>
</svg>
