<?xml version="1.0" encoding="utf-8" standalone="no"?>
<!DOCTYPE svg PUBLIC "-//W3C//DTD SVG 1.1//EN"
  "http://www.w3.org/Graphics/SVG/1.1/DTD/svg11.dtd">
<svg height="345.6pt" version="1.1" viewBox="0 0 460.8 345.6" width="460.8pt" xmlns="http://www.w3.org/2000/svg" xmlns:xlink="http://www.w3.org/1999/xlink">
 <metadata>
  <rdf:RDF xmlns:cc="http://creativecommons.org/ns#" xmlns:dc="http://purl.org/dc/elements/1.1/" xmlns:rdf="http://www.w3.org/1999/02/22-rdf-syntax-ns#">
   <cc:Work>
    <dc:type rdf:resource="http://purl.org/dc/dcmitype/StillImage"/>
    <dc:date>2021-07-27T16:03:51.805819</dc:date>
    <dc:format>image/svg+xml</dc:format>
    <dc:creator>
     <cc:Agent>
      <dc:title>Matplotlib v3.4.2, https://matplotlib.org/</dc:title>
     </cc:Agent>
    </dc:creator>
   </cc:Work>
  </rdf:RDF>
 </metadata>
 <defs>
  <style type="text/css">*{stroke-linecap:butt;stroke-linejoin:round;}</style>
 </defs>
 <g id="figure_1">
  <g id="patch_1">
   <path d="M 0 345.6 
L 460.8 345.6 
L 460.8 0 
L 0 0 
z
" style="fill:#ffffff;"/>
  </g>
  <g id="axes_1">
   <g id="patch_2">
    <path d="M 57.6 298.944 
L 338.688 298.944 
L 338.688 27.648 
L 57.6 27.648 
z
" style="fill:#ffffff;"/>
   </g>
   <g id="matplotlib.axis_1">
    <g id="xtick_1">
     <g id="line2d_1">
      <path clip-path="url(#p79d589637d)" d="M 57.6 298.944 
L 57.6 27.648 
" style="fill:none;stroke:#b0b0b0;stroke-linecap:square;stroke-width:0.8;"/>
     </g>
     <g id="line2d_2">
      <defs>
       <path d="M 0 0 
L 0 3.5 
" id="m5e485f5698" style="stroke:#000000;stroke-width:0.8;"/>
      </defs>
      <g>
       <use style="stroke:#000000;stroke-width:0.8;" x="57.6" xlink:href="#m5e485f5698" y="298.944"/>
      </g>
     </g>
     <g id="text_1">
      <!-- 0 -->
      <g transform="translate(51.2375 321.140875)scale(0.2 -0.2)">
       <defs>
        <path d="M 2034 4250 
Q 1547 4250 1301 3770 
Q 1056 3291 1056 2328 
Q 1056 1369 1301 889 
Q 1547 409 2034 409 
Q 2525 409 2770 889 
Q 3016 1369 3016 2328 
Q 3016 3291 2770 3770 
Q 2525 4250 2034 4250 
z
M 2034 4750 
Q 2819 4750 3233 4129 
Q 3647 3509 3647 2328 
Q 3647 1150 3233 529 
Q 2819 -91 2034 -91 
Q 1250 -91 836 529 
Q 422 1150 422 2328 
Q 422 3509 836 4129 
Q 1250 4750 2034 4750 
z
" id="DejaVuSans-30" transform="scale(0.015625)"/>
       </defs>
       <use xlink:href="#DejaVuSans-30"/>
      </g>
     </g>
    </g>
    <g id="xtick_2">
     <g id="line2d_3">
      <path clip-path="url(#p79d589637d)" d="M 137.910857 298.944 
L 137.910857 27.648 
" style="fill:none;stroke:#b0b0b0;stroke-linecap:square;stroke-width:0.8;"/>
     </g>
     <g id="line2d_4">
      <g>
       <use style="stroke:#000000;stroke-width:0.8;" x="137.910857" xlink:href="#m5e485f5698" y="298.944"/>
      </g>
     </g>
     <g id="text_2">
      <!-- 2 -->
      <g transform="translate(131.548357 321.140875)scale(0.2 -0.2)">
       <defs>
        <path d="M 1228 531 
L 3431 531 
L 3431 0 
L 469 0 
L 469 531 
Q 828 903 1448 1529 
Q 2069 2156 2228 2338 
Q 2531 2678 2651 2914 
Q 2772 3150 2772 3378 
Q 2772 3750 2511 3984 
Q 2250 4219 1831 4219 
Q 1534 4219 1204 4116 
Q 875 4013 500 3803 
L 500 4441 
Q 881 4594 1212 4672 
Q 1544 4750 1819 4750 
Q 2544 4750 2975 4387 
Q 3406 4025 3406 3419 
Q 3406 3131 3298 2873 
Q 3191 2616 2906 2266 
Q 2828 2175 2409 1742 
Q 1991 1309 1228 531 
z
" id="DejaVuSans-32" transform="scale(0.015625)"/>
       </defs>
       <use xlink:href="#DejaVuSans-32"/>
      </g>
     </g>
    </g>
    <g id="xtick_3">
     <g id="line2d_5">
      <path clip-path="url(#p79d589637d)" d="M 218.221714 298.944 
L 218.221714 27.648 
" style="fill:none;stroke:#b0b0b0;stroke-linecap:square;stroke-width:0.8;"/>
     </g>
     <g id="line2d_6">
      <g>
       <use style="stroke:#000000;stroke-width:0.8;" x="218.221714" xlink:href="#m5e485f5698" y="298.944"/>
      </g>
     </g>
     <g id="text_3">
      <!-- 4 -->
      <g transform="translate(211.859214 321.140875)scale(0.2 -0.2)">
       <defs>
        <path d="M 2419 4116 
L 825 1625 
L 2419 1625 
L 2419 4116 
z
M 2253 4666 
L 3047 4666 
L 3047 1625 
L 3713 1625 
L 3713 1100 
L 3047 1100 
L 3047 0 
L 2419 0 
L 2419 1100 
L 313 1100 
L 313 1709 
L 2253 4666 
z
" id="DejaVuSans-34" transform="scale(0.015625)"/>
       </defs>
       <use xlink:href="#DejaVuSans-34"/>
      </g>
     </g>
    </g>
    <g id="xtick_4">
     <g id="line2d_7">
      <path clip-path="url(#p79d589637d)" d="M 298.532571 298.944 
L 298.532571 27.648 
" style="fill:none;stroke:#b0b0b0;stroke-linecap:square;stroke-width:0.8;"/>
     </g>
     <g id="line2d_8">
      <g>
       <use style="stroke:#000000;stroke-width:0.8;" x="298.532571" xlink:href="#m5e485f5698" y="298.944"/>
      </g>
     </g>
     <g id="text_4">
      <!-- 6 -->
      <g transform="translate(292.170071 321.140875)scale(0.2 -0.2)">
       <defs>
        <path d="M 2113 2584 
Q 1688 2584 1439 2293 
Q 1191 2003 1191 1497 
Q 1191 994 1439 701 
Q 1688 409 2113 409 
Q 2538 409 2786 701 
Q 3034 994 3034 1497 
Q 3034 2003 2786 2293 
Q 2538 2584 2113 2584 
z
M 3366 4563 
L 3366 3988 
Q 3128 4100 2886 4159 
Q 2644 4219 2406 4219 
Q 1781 4219 1451 3797 
Q 1122 3375 1075 2522 
Q 1259 2794 1537 2939 
Q 1816 3084 2150 3084 
Q 2853 3084 3261 2657 
Q 3669 2231 3669 1497 
Q 3669 778 3244 343 
Q 2819 -91 2113 -91 
Q 1303 -91 875 529 
Q 447 1150 447 2328 
Q 447 3434 972 4092 
Q 1497 4750 2381 4750 
Q 2619 4750 2861 4703 
Q 3103 4656 3366 4563 
z
" id="DejaVuSans-36" transform="scale(0.015625)"/>
       </defs>
       <use xlink:href="#DejaVuSans-36"/>
      </g>
     </g>
    </g>
    <g id="xtick_5">
     <g id="line2d_9">
      <path clip-path="url(#p79d589637d)" d="M 97.755429 298.944 
L 97.755429 27.648 
" style="fill:none;stroke:#b0b0b0;stroke-linecap:square;stroke-width:0.8;"/>
     </g>
     <g id="line2d_10">
      <defs>
       <path d="M 0 0 
L 0 2 
" id="m21ca3a3a09" style="stroke:#000000;stroke-width:0.6;"/>
      </defs>
      <g>
       <use style="stroke:#000000;stroke-width:0.6;" x="97.755429" xlink:href="#m21ca3a3a09" y="298.944"/>
      </g>
     </g>
    </g>
    <g id="xtick_6">
     <g id="line2d_11">
      <path clip-path="url(#p79d589637d)" d="M 178.066286 298.944 
L 178.066286 27.648 
" style="fill:none;stroke:#b0b0b0;stroke-linecap:square;stroke-width:0.8;"/>
     </g>
     <g id="line2d_12">
      <g>
       <use style="stroke:#000000;stroke-width:0.6;" x="178.066286" xlink:href="#m21ca3a3a09" y="298.944"/>
      </g>
     </g>
    </g>
    <g id="xtick_7">
     <g id="line2d_13">
      <path clip-path="url(#p79d589637d)" d="M 258.377143 298.944 
L 258.377143 27.648 
" style="fill:none;stroke:#b0b0b0;stroke-linecap:square;stroke-width:0.8;"/>
     </g>
     <g id="line2d_14">
      <g>
       <use style="stroke:#000000;stroke-width:0.6;" x="258.377143" xlink:href="#m21ca3a3a09" y="298.944"/>
      </g>
     </g>
    </g>
    <g id="xtick_8">
     <g id="line2d_15">
      <path clip-path="url(#p79d589637d)" d="M 338.688 298.944 
L 338.688 27.648 
" style="fill:none;stroke:#b0b0b0;stroke-linecap:square;stroke-width:0.8;"/>
     </g>
     <g id="line2d_16">
      <g>
       <use style="stroke:#000000;stroke-width:0.6;" x="338.688" xlink:href="#m21ca3a3a09" y="298.944"/>
      </g>
     </g>
    </g>
    <g id="text_5">
     <!-- log10(# f-evals / dimension) -->
     <g transform="translate(77.764078 342.217594)scale(0.17 -0.17)">
      <defs>
       <path d="M 603 4863 
L 1178 4863 
L 1178 0 
L 603 0 
L 603 4863 
z
" id="DejaVuSans-6c" transform="scale(0.015625)"/>
       <path d="M 1959 3097 
Q 1497 3097 1228 2736 
Q 959 2375 959 1747 
Q 959 1119 1226 758 
Q 1494 397 1959 397 
Q 2419 397 2687 759 
Q 2956 1122 2956 1747 
Q 2956 2369 2687 2733 
Q 2419 3097 1959 3097 
z
M 1959 3584 
Q 2709 3584 3137 3096 
Q 3566 2609 3566 1747 
Q 3566 888 3137 398 
Q 2709 -91 1959 -91 
Q 1206 -91 779 398 
Q 353 888 353 1747 
Q 353 2609 779 3096 
Q 1206 3584 1959 3584 
z
" id="DejaVuSans-6f" transform="scale(0.015625)"/>
       <path d="M 2906 1791 
Q 2906 2416 2648 2759 
Q 2391 3103 1925 3103 
Q 1463 3103 1205 2759 
Q 947 2416 947 1791 
Q 947 1169 1205 825 
Q 1463 481 1925 481 
Q 2391 481 2648 825 
Q 2906 1169 2906 1791 
z
M 3481 434 
Q 3481 -459 3084 -895 
Q 2688 -1331 1869 -1331 
Q 1566 -1331 1297 -1286 
Q 1028 -1241 775 -1147 
L 775 -588 
Q 1028 -725 1275 -790 
Q 1522 -856 1778 -856 
Q 2344 -856 2625 -561 
Q 2906 -266 2906 331 
L 2906 616 
Q 2728 306 2450 153 
Q 2172 0 1784 0 
Q 1141 0 747 490 
Q 353 981 353 1791 
Q 353 2603 747 3093 
Q 1141 3584 1784 3584 
Q 2172 3584 2450 3431 
Q 2728 3278 2906 2969 
L 2906 3500 
L 3481 3500 
L 3481 434 
z
" id="DejaVuSans-67" transform="scale(0.015625)"/>
       <path d="M 794 531 
L 1825 531 
L 1825 4091 
L 703 3866 
L 703 4441 
L 1819 4666 
L 2450 4666 
L 2450 531 
L 3481 531 
L 3481 0 
L 794 0 
L 794 531 
z
" id="DejaVuSans-31" transform="scale(0.015625)"/>
       <path d="M 1984 4856 
Q 1566 4138 1362 3434 
Q 1159 2731 1159 2009 
Q 1159 1288 1364 580 
Q 1569 -128 1984 -844 
L 1484 -844 
Q 1016 -109 783 600 
Q 550 1309 550 2009 
Q 550 2706 781 3412 
Q 1013 4119 1484 4856 
L 1984 4856 
z
" id="DejaVuSans-28" transform="scale(0.015625)"/>
       <path d="M 3272 2816 
L 2363 2816 
L 2100 1772 
L 3016 1772 
L 3272 2816 
z
M 2803 4594 
L 2478 3297 
L 3391 3297 
L 3719 4594 
L 4219 4594 
L 3897 3297 
L 4872 3297 
L 4872 2816 
L 3775 2816 
L 3519 1772 
L 4513 1772 
L 4513 1294 
L 3397 1294 
L 3072 0 
L 2572 0 
L 2894 1294 
L 1978 1294 
L 1656 0 
L 1153 0 
L 1478 1294 
L 494 1294 
L 494 1772 
L 1594 1772 
L 1856 2816 
L 850 2816 
L 850 3297 
L 1978 3297 
L 2297 4594 
L 2803 4594 
z
" id="DejaVuSans-23" transform="scale(0.015625)"/>
       <path id="DejaVuSans-20" transform="scale(0.015625)"/>
       <path d="M 2375 4863 
L 2375 4384 
L 1825 4384 
Q 1516 4384 1395 4259 
Q 1275 4134 1275 3809 
L 1275 3500 
L 2222 3500 
L 2222 3053 
L 1275 3053 
L 1275 0 
L 697 0 
L 697 3053 
L 147 3053 
L 147 3500 
L 697 3500 
L 697 3744 
Q 697 4328 969 4595 
Q 1241 4863 1831 4863 
L 2375 4863 
z
" id="DejaVuSans-66" transform="scale(0.015625)"/>
       <path d="M 313 2009 
L 1997 2009 
L 1997 1497 
L 313 1497 
L 313 2009 
z
" id="DejaVuSans-2d" transform="scale(0.015625)"/>
       <path d="M 3597 1894 
L 3597 1613 
L 953 1613 
Q 991 1019 1311 708 
Q 1631 397 2203 397 
Q 2534 397 2845 478 
Q 3156 559 3463 722 
L 3463 178 
Q 3153 47 2828 -22 
Q 2503 -91 2169 -91 
Q 1331 -91 842 396 
Q 353 884 353 1716 
Q 353 2575 817 3079 
Q 1281 3584 2069 3584 
Q 2775 3584 3186 3129 
Q 3597 2675 3597 1894 
z
M 3022 2063 
Q 3016 2534 2758 2815 
Q 2500 3097 2075 3097 
Q 1594 3097 1305 2825 
Q 1016 2553 972 2059 
L 3022 2063 
z
" id="DejaVuSans-65" transform="scale(0.015625)"/>
       <path d="M 191 3500 
L 800 3500 
L 1894 563 
L 2988 3500 
L 3597 3500 
L 2284 0 
L 1503 0 
L 191 3500 
z
" id="DejaVuSans-76" transform="scale(0.015625)"/>
       <path d="M 2194 1759 
Q 1497 1759 1228 1600 
Q 959 1441 959 1056 
Q 959 750 1161 570 
Q 1363 391 1709 391 
Q 2188 391 2477 730 
Q 2766 1069 2766 1631 
L 2766 1759 
L 2194 1759 
z
M 3341 1997 
L 3341 0 
L 2766 0 
L 2766 531 
Q 2569 213 2275 61 
Q 1981 -91 1556 -91 
Q 1019 -91 701 211 
Q 384 513 384 1019 
Q 384 1609 779 1909 
Q 1175 2209 1959 2209 
L 2766 2209 
L 2766 2266 
Q 2766 2663 2505 2880 
Q 2244 3097 1772 3097 
Q 1472 3097 1187 3025 
Q 903 2953 641 2809 
L 641 3341 
Q 956 3463 1253 3523 
Q 1550 3584 1831 3584 
Q 2591 3584 2966 3190 
Q 3341 2797 3341 1997 
z
" id="DejaVuSans-61" transform="scale(0.015625)"/>
       <path d="M 2834 3397 
L 2834 2853 
Q 2591 2978 2328 3040 
Q 2066 3103 1784 3103 
Q 1356 3103 1142 2972 
Q 928 2841 928 2578 
Q 928 2378 1081 2264 
Q 1234 2150 1697 2047 
L 1894 2003 
Q 2506 1872 2764 1633 
Q 3022 1394 3022 966 
Q 3022 478 2636 193 
Q 2250 -91 1575 -91 
Q 1294 -91 989 -36 
Q 684 19 347 128 
L 347 722 
Q 666 556 975 473 
Q 1284 391 1588 391 
Q 1994 391 2212 530 
Q 2431 669 2431 922 
Q 2431 1156 2273 1281 
Q 2116 1406 1581 1522 
L 1381 1569 
Q 847 1681 609 1914 
Q 372 2147 372 2553 
Q 372 3047 722 3315 
Q 1072 3584 1716 3584 
Q 2034 3584 2315 3537 
Q 2597 3491 2834 3397 
z
" id="DejaVuSans-73" transform="scale(0.015625)"/>
       <path d="M 1625 4666 
L 2156 4666 
L 531 -594 
L 0 -594 
L 1625 4666 
z
" id="DejaVuSans-2f" transform="scale(0.015625)"/>
       <path d="M 2906 2969 
L 2906 4863 
L 3481 4863 
L 3481 0 
L 2906 0 
L 2906 525 
Q 2725 213 2448 61 
Q 2172 -91 1784 -91 
Q 1150 -91 751 415 
Q 353 922 353 1747 
Q 353 2572 751 3078 
Q 1150 3584 1784 3584 
Q 2172 3584 2448 3432 
Q 2725 3281 2906 2969 
z
M 947 1747 
Q 947 1113 1208 752 
Q 1469 391 1925 391 
Q 2381 391 2643 752 
Q 2906 1113 2906 1747 
Q 2906 2381 2643 2742 
Q 2381 3103 1925 3103 
Q 1469 3103 1208 2742 
Q 947 2381 947 1747 
z
" id="DejaVuSans-64" transform="scale(0.015625)"/>
       <path d="M 603 3500 
L 1178 3500 
L 1178 0 
L 603 0 
L 603 3500 
z
M 603 4863 
L 1178 4863 
L 1178 4134 
L 603 4134 
L 603 4863 
z
" id="DejaVuSans-69" transform="scale(0.015625)"/>
       <path d="M 3328 2828 
Q 3544 3216 3844 3400 
Q 4144 3584 4550 3584 
Q 5097 3584 5394 3201 
Q 5691 2819 5691 2113 
L 5691 0 
L 5113 0 
L 5113 2094 
Q 5113 2597 4934 2840 
Q 4756 3084 4391 3084 
Q 3944 3084 3684 2787 
Q 3425 2491 3425 1978 
L 3425 0 
L 2847 0 
L 2847 2094 
Q 2847 2600 2669 2842 
Q 2491 3084 2119 3084 
Q 1678 3084 1418 2786 
Q 1159 2488 1159 1978 
L 1159 0 
L 581 0 
L 581 3500 
L 1159 3500 
L 1159 2956 
Q 1356 3278 1631 3431 
Q 1906 3584 2284 3584 
Q 2666 3584 2933 3390 
Q 3200 3197 3328 2828 
z
" id="DejaVuSans-6d" transform="scale(0.015625)"/>
       <path d="M 3513 2113 
L 3513 0 
L 2938 0 
L 2938 2094 
Q 2938 2591 2744 2837 
Q 2550 3084 2163 3084 
Q 1697 3084 1428 2787 
Q 1159 2491 1159 1978 
L 1159 0 
L 581 0 
L 581 3500 
L 1159 3500 
L 1159 2956 
Q 1366 3272 1645 3428 
Q 1925 3584 2291 3584 
Q 2894 3584 3203 3211 
Q 3513 2838 3513 2113 
z
" id="DejaVuSans-6e" transform="scale(0.015625)"/>
       <path d="M 513 4856 
L 1013 4856 
Q 1481 4119 1714 3412 
Q 1947 2706 1947 2009 
Q 1947 1309 1714 600 
Q 1481 -109 1013 -844 
L 513 -844 
Q 928 -128 1133 580 
Q 1338 1288 1338 2009 
Q 1338 2731 1133 3434 
Q 928 4138 513 4856 
z
" id="DejaVuSans-29" transform="scale(0.015625)"/>
      </defs>
      <use xlink:href="#DejaVuSans-6c"/>
      <use x="27.783203" xlink:href="#DejaVuSans-6f"/>
      <use x="88.964844" xlink:href="#DejaVuSans-67"/>
      <use x="152.441406" xlink:href="#DejaVuSans-31"/>
      <use x="216.064453" xlink:href="#DejaVuSans-30"/>
      <use x="279.6875" xlink:href="#DejaVuSans-28"/>
      <use x="318.701172" xlink:href="#DejaVuSans-23"/>
      <use x="402.490234" xlink:href="#DejaVuSans-20"/>
      <use x="434.277344" xlink:href="#DejaVuSans-66"/>
      <use x="463.982422" xlink:href="#DejaVuSans-2d"/>
      <use x="500.066406" xlink:href="#DejaVuSans-65"/>
      <use x="561.589844" xlink:href="#DejaVuSans-76"/>
      <use x="620.769531" xlink:href="#DejaVuSans-61"/>
      <use x="682.048828" xlink:href="#DejaVuSans-6c"/>
      <use x="709.832031" xlink:href="#DejaVuSans-73"/>
      <use x="761.931641" xlink:href="#DejaVuSans-20"/>
      <use x="793.71875" xlink:href="#DejaVuSans-2f"/>
      <use x="827.410156" xlink:href="#DejaVuSans-20"/>
      <use x="859.197266" xlink:href="#DejaVuSans-64"/>
      <use x="922.673828" xlink:href="#DejaVuSans-69"/>
      <use x="950.457031" xlink:href="#DejaVuSans-6d"/>
      <use x="1047.869141" xlink:href="#DejaVuSans-65"/>
      <use x="1109.392578" xlink:href="#DejaVuSans-6e"/>
      <use x="1172.771484" xlink:href="#DejaVuSans-73"/>
      <use x="1224.871094" xlink:href="#DejaVuSans-69"/>
      <use x="1252.654297" xlink:href="#DejaVuSans-6f"/>
      <use x="1313.835938" xlink:href="#DejaVuSans-6e"/>
      <use x="1377.214844" xlink:href="#DejaVuSans-29"/>
     </g>
    </g>
   </g>
   <g id="matplotlib.axis_2">
    <g id="ytick_1">
     <g id="line2d_17">
      <path clip-path="url(#p79d589637d)" d="M 57.6 298.944 
L 338.688 298.944 
" style="fill:none;stroke:#b0b0b0;stroke-linecap:square;stroke-width:0.8;"/>
     </g>
     <g id="line2d_18">
      <defs>
       <path d="M 0 0 
L -3.5 0 
" id="m2402e2f7bf" style="stroke:#000000;stroke-width:0.8;"/>
      </defs>
      <g>
       <use style="stroke:#000000;stroke-width:0.8;" x="57.6" xlink:href="#m2402e2f7bf" y="298.944"/>
      </g>
     </g>
     <g id="text_6">
      <!-- 0.0 -->
      <g transform="translate(25.155 305.02275)scale(0.16 -0.16)">
       <defs>
        <path d="M 684 794 
L 1344 794 
L 1344 0 
L 684 0 
L 684 794 
z
" id="DejaVuSans-2e" transform="scale(0.015625)"/>
       </defs>
       <use xlink:href="#DejaVuSans-30"/>
       <use x="63.623047" xlink:href="#DejaVuSans-2e"/>
       <use x="95.410156" xlink:href="#DejaVuSans-30"/>
      </g>
     </g>
    </g>
    <g id="ytick_2">
     <g id="line2d_19">
      <path clip-path="url(#p79d589637d)" d="M 57.6 245.22202 
L 338.688 245.22202 
" style="fill:none;stroke:#b0b0b0;stroke-linecap:square;stroke-width:0.8;"/>
     </g>
     <g id="line2d_20">
      <g>
       <use style="stroke:#000000;stroke-width:0.8;" x="57.6" xlink:href="#m2402e2f7bf" y="245.22202"/>
      </g>
     </g>
     <g id="text_7">
      <!-- 0.2 -->
      <g transform="translate(25.155 251.30077)scale(0.16 -0.16)">
       <use xlink:href="#DejaVuSans-30"/>
       <use x="63.623047" xlink:href="#DejaVuSans-2e"/>
       <use x="95.410156" xlink:href="#DejaVuSans-32"/>
      </g>
     </g>
    </g>
    <g id="ytick_3">
     <g id="line2d_21">
      <path clip-path="url(#p79d589637d)" d="M 57.6 191.50004 
L 338.688 191.50004 
" style="fill:none;stroke:#b0b0b0;stroke-linecap:square;stroke-width:0.8;"/>
     </g>
     <g id="line2d_22">
      <g>
       <use style="stroke:#000000;stroke-width:0.8;" x="57.6" xlink:href="#m2402e2f7bf" y="191.50004"/>
      </g>
     </g>
     <g id="text_8">
      <!-- 0.4 -->
      <g transform="translate(25.155 197.57879)scale(0.16 -0.16)">
       <use xlink:href="#DejaVuSans-30"/>
       <use x="63.623047" xlink:href="#DejaVuSans-2e"/>
       <use x="95.410156" xlink:href="#DejaVuSans-34"/>
      </g>
     </g>
    </g>
    <g id="ytick_4">
     <g id="line2d_23">
      <path clip-path="url(#p79d589637d)" d="M 57.6 137.778059 
L 338.688 137.778059 
" style="fill:none;stroke:#b0b0b0;stroke-linecap:square;stroke-width:0.8;"/>
     </g>
     <g id="line2d_24">
      <g>
       <use style="stroke:#000000;stroke-width:0.8;" x="57.6" xlink:href="#m2402e2f7bf" y="137.778059"/>
      </g>
     </g>
     <g id="text_9">
      <!-- 0.6 -->
      <g transform="translate(25.155 143.856809)scale(0.16 -0.16)">
       <use xlink:href="#DejaVuSans-30"/>
       <use x="63.623047" xlink:href="#DejaVuSans-2e"/>
       <use x="95.410156" xlink:href="#DejaVuSans-36"/>
      </g>
     </g>
    </g>
    <g id="ytick_5">
     <g id="line2d_25">
      <path clip-path="url(#p79d589637d)" d="M 57.6 84.056079 
L 338.688 84.056079 
" style="fill:none;stroke:#b0b0b0;stroke-linecap:square;stroke-width:0.8;"/>
     </g>
     <g id="line2d_26">
      <g>
       <use style="stroke:#000000;stroke-width:0.8;" x="57.6" xlink:href="#m2402e2f7bf" y="84.056079"/>
      </g>
     </g>
     <g id="text_10">
      <!-- 0.8 -->
      <g transform="translate(25.155 90.134829)scale(0.16 -0.16)">
       <defs>
        <path d="M 2034 2216 
Q 1584 2216 1326 1975 
Q 1069 1734 1069 1313 
Q 1069 891 1326 650 
Q 1584 409 2034 409 
Q 2484 409 2743 651 
Q 3003 894 3003 1313 
Q 3003 1734 2745 1975 
Q 2488 2216 2034 2216 
z
M 1403 2484 
Q 997 2584 770 2862 
Q 544 3141 544 3541 
Q 544 4100 942 4425 
Q 1341 4750 2034 4750 
Q 2731 4750 3128 4425 
Q 3525 4100 3525 3541 
Q 3525 3141 3298 2862 
Q 3072 2584 2669 2484 
Q 3125 2378 3379 2068 
Q 3634 1759 3634 1313 
Q 3634 634 3220 271 
Q 2806 -91 2034 -91 
Q 1263 -91 848 271 
Q 434 634 434 1313 
Q 434 1759 690 2068 
Q 947 2378 1403 2484 
z
M 1172 3481 
Q 1172 3119 1398 2916 
Q 1625 2713 2034 2713 
Q 2441 2713 2670 2916 
Q 2900 3119 2900 3481 
Q 2900 3844 2670 4047 
Q 2441 4250 2034 4250 
Q 1625 4250 1398 4047 
Q 1172 3844 1172 3481 
z
" id="DejaVuSans-38" transform="scale(0.015625)"/>
       </defs>
       <use xlink:href="#DejaVuSans-30"/>
       <use x="63.623047" xlink:href="#DejaVuSans-2e"/>
       <use x="95.410156" xlink:href="#DejaVuSans-38"/>
      </g>
     </g>
    </g>
    <g id="ytick_6">
     <g id="line2d_27">
      <path clip-path="url(#p79d589637d)" d="M 57.6 30.334099 
L 338.688 30.334099 
" style="fill:none;stroke:#b0b0b0;stroke-linecap:square;stroke-width:0.8;"/>
     </g>
     <g id="line2d_28">
      <g>
       <use style="stroke:#000000;stroke-width:0.8;" x="57.6" xlink:href="#m2402e2f7bf" y="30.334099"/>
      </g>
     </g>
     <g id="text_11">
      <!-- 1.0 -->
      <g transform="translate(25.155 36.412849)scale(0.16 -0.16)">
       <use xlink:href="#DejaVuSans-31"/>
       <use x="63.623047" xlink:href="#DejaVuSans-2e"/>
       <use x="95.410156" xlink:href="#DejaVuSans-30"/>
      </g>
     </g>
    </g>
    <g id="text_12">
     <!-- Fraction of function,target pairs -->
     <g transform="translate(17.619531 297.681)rotate(-90)scale(0.17 -0.17)">
      <defs>
       <path d="M 628 4666 
L 3309 4666 
L 3309 4134 
L 1259 4134 
L 1259 2759 
L 3109 2759 
L 3109 2228 
L 1259 2228 
L 1259 0 
L 628 0 
L 628 4666 
z
" id="DejaVuSans-46" transform="scale(0.015625)"/>
       <path d="M 2631 2963 
Q 2534 3019 2420 3045 
Q 2306 3072 2169 3072 
Q 1681 3072 1420 2755 
Q 1159 2438 1159 1844 
L 1159 0 
L 581 0 
L 581 3500 
L 1159 3500 
L 1159 2956 
Q 1341 3275 1631 3429 
Q 1922 3584 2338 3584 
Q 2397 3584 2469 3576 
Q 2541 3569 2628 3553 
L 2631 2963 
z
" id="DejaVuSans-72" transform="scale(0.015625)"/>
       <path d="M 3122 3366 
L 3122 2828 
Q 2878 2963 2633 3030 
Q 2388 3097 2138 3097 
Q 1578 3097 1268 2742 
Q 959 2388 959 1747 
Q 959 1106 1268 751 
Q 1578 397 2138 397 
Q 2388 397 2633 464 
Q 2878 531 3122 666 
L 3122 134 
Q 2881 22 2623 -34 
Q 2366 -91 2075 -91 
Q 1284 -91 818 406 
Q 353 903 353 1747 
Q 353 2603 823 3093 
Q 1294 3584 2113 3584 
Q 2378 3584 2631 3529 
Q 2884 3475 3122 3366 
z
" id="DejaVuSans-63" transform="scale(0.015625)"/>
       <path d="M 1172 4494 
L 1172 3500 
L 2356 3500 
L 2356 3053 
L 1172 3053 
L 1172 1153 
Q 1172 725 1289 603 
Q 1406 481 1766 481 
L 2356 481 
L 2356 0 
L 1766 0 
Q 1100 0 847 248 
Q 594 497 594 1153 
L 594 3053 
L 172 3053 
L 172 3500 
L 594 3500 
L 594 4494 
L 1172 4494 
z
" id="DejaVuSans-74" transform="scale(0.015625)"/>
       <path d="M 544 1381 
L 544 3500 
L 1119 3500 
L 1119 1403 
Q 1119 906 1312 657 
Q 1506 409 1894 409 
Q 2359 409 2629 706 
Q 2900 1003 2900 1516 
L 2900 3500 
L 3475 3500 
L 3475 0 
L 2900 0 
L 2900 538 
Q 2691 219 2414 64 
Q 2138 -91 1772 -91 
Q 1169 -91 856 284 
Q 544 659 544 1381 
z
M 1991 3584 
L 1991 3584 
z
" id="DejaVuSans-75" transform="scale(0.015625)"/>
       <path d="M 750 794 
L 1409 794 
L 1409 256 
L 897 -744 
L 494 -744 
L 750 256 
L 750 794 
z
" id="DejaVuSans-2c" transform="scale(0.015625)"/>
       <path d="M 1159 525 
L 1159 -1331 
L 581 -1331 
L 581 3500 
L 1159 3500 
L 1159 2969 
Q 1341 3281 1617 3432 
Q 1894 3584 2278 3584 
Q 2916 3584 3314 3078 
Q 3713 2572 3713 1747 
Q 3713 922 3314 415 
Q 2916 -91 2278 -91 
Q 1894 -91 1617 61 
Q 1341 213 1159 525 
z
M 3116 1747 
Q 3116 2381 2855 2742 
Q 2594 3103 2138 3103 
Q 1681 3103 1420 2742 
Q 1159 2381 1159 1747 
Q 1159 1113 1420 752 
Q 1681 391 2138 391 
Q 2594 391 2855 752 
Q 3116 1113 3116 1747 
z
" id="DejaVuSans-70" transform="scale(0.015625)"/>
      </defs>
      <use xlink:href="#DejaVuSans-46"/>
      <use x="50.269531" xlink:href="#DejaVuSans-72"/>
      <use x="91.382812" xlink:href="#DejaVuSans-61"/>
      <use x="152.662109" xlink:href="#DejaVuSans-63"/>
      <use x="207.642578" xlink:href="#DejaVuSans-74"/>
      <use x="246.851562" xlink:href="#DejaVuSans-69"/>
      <use x="274.634766" xlink:href="#DejaVuSans-6f"/>
      <use x="335.816406" xlink:href="#DejaVuSans-6e"/>
      <use x="399.195312" xlink:href="#DejaVuSans-20"/>
      <use x="430.982422" xlink:href="#DejaVuSans-6f"/>
      <use x="492.164062" xlink:href="#DejaVuSans-66"/>
      <use x="527.369141" xlink:href="#DejaVuSans-20"/>
      <use x="559.15625" xlink:href="#DejaVuSans-66"/>
      <use x="594.361328" xlink:href="#DejaVuSans-75"/>
      <use x="657.740234" xlink:href="#DejaVuSans-6e"/>
      <use x="721.119141" xlink:href="#DejaVuSans-63"/>
      <use x="776.099609" xlink:href="#DejaVuSans-74"/>
      <use x="815.308594" xlink:href="#DejaVuSans-69"/>
      <use x="843.091797" xlink:href="#DejaVuSans-6f"/>
      <use x="904.273438" xlink:href="#DejaVuSans-6e"/>
      <use x="967.652344" xlink:href="#DejaVuSans-2c"/>
      <use x="999.439453" xlink:href="#DejaVuSans-74"/>
      <use x="1038.648438" xlink:href="#DejaVuSans-61"/>
      <use x="1099.927734" xlink:href="#DejaVuSans-72"/>
      <use x="1139.291016" xlink:href="#DejaVuSans-67"/>
      <use x="1202.767578" xlink:href="#DejaVuSans-65"/>
      <use x="1264.291016" xlink:href="#DejaVuSans-74"/>
      <use x="1303.5" xlink:href="#DejaVuSans-20"/>
      <use x="1335.287109" xlink:href="#DejaVuSans-70"/>
      <use x="1398.763672" xlink:href="#DejaVuSans-61"/>
      <use x="1460.042969" xlink:href="#DejaVuSans-69"/>
      <use x="1487.826172" xlink:href="#DejaVuSans-72"/>
      <use x="1528.939453" xlink:href="#DejaVuSans-73"/>
     </g>
    </g>
   </g>
   <g id="line2d_29">
    <defs>
     <path d="M 0 1.5 
C 0.397805 1.5 0.77937 1.341951 1.06066 1.06066 
C 1.341951 0.77937 1.5 0.397805 1.5 0 
C 1.5 -0.397805 1.341951 -0.77937 1.06066 -1.06066 
C 0.77937 -1.341951 0.397805 -1.5 0 -1.5 
C -0.397805 -1.5 -0.77937 -1.341951 -1.06066 -1.06066 
C -1.341951 -0.77937 -1.5 -0.397805 -1.5 0 
C -1.5 0.397805 -1.341951 0.77937 -1.06066 1.06066 
C -0.77937 1.341951 -0.397805 1.5 0 1.5 
z
" id="m60ac254de8" style="stroke:#00bfbf;"/>
    </defs>
    <g>
     <use style="fill:#00bfbf;stroke:#00bfbf;" x="211.5127" xlink:href="#m60ac254de8" y="30.334099"/>
     <use style="fill:#00bfbf;stroke:#00bfbf;" x="211.5127" xlink:href="#m60ac254de8" y="30.334099"/>
    </g>
   </g>
   <g id="line2d_30">
    <path d="M 45.512012 298.944 
L 45.512012 277.876557 
L 57.6 277.876557 
L 57.6 275.243126 
L 64.67102 275.243126 
L 64.67102 272.609696 
L 69.687988 272.609696 
L 69.687988 272.08301 
L 73.579452 272.08301 
L 73.579452 271.029638 
L 76.759008 271.029638 
L 76.759008 268.922893 
L 79.447285 268.922893 
L 79.447285 266.816149 
L 81.775977 266.816149 
L 81.775977 264.709405 
L 83.830028 264.709405 
L 83.830028 264.182719 
L 88.846997 264.182719 
L 88.846997 263.656033 
L 90.242884 263.656033 
L 90.242884 263.129347 
L 91.535274 263.129347 
L 91.535274 261.022602 
L 92.73846 261.022602 
L 92.73846 260.495916 
L 93.863965 260.495916 
L 93.863965 255.755741 
L 94.921215 255.755741 
L 94.921215 254.175683 
L 96.86091 254.175683 
L 96.86091 253.648997 
L 98.606294 253.648997 
L 98.606294 253.122311 
L 100.192776 253.122311 
L 100.192776 250.488881 
L 101.646892 250.488881 
L 101.646892 249.962195 
L 102.330873 249.962195 
L 102.330873 246.275392 
L 104.23523 246.275392 
L 104.23523 245.748706 
L 108.006005 245.748706 
L 108.006005 244.695334 
L 108.483824 244.695334 
L 108.483824 241.008531 
L 110.274038 241.008531 
L 110.274038 238.375101 
L 111.104637 238.375101 
L 111.104637 235.74167 
L 111.505558 235.74167 
L 111.505558 234.161612 
L 112.655818 234.161612 
L 112.655818 233.10824 
L 113.382559 233.10824 
L 113.382559 228.894751 
L 114.080224 228.894751 
L 114.080224 227.841379 
L 116.621333 227.841379 
L 116.621333 227.314693 
L 117.486268 227.314693 
L 117.486268 224.154577 
L 121.036887 224.154577 
L 121.036887 223.627891 
L 122.573415 223.627891 
L 122.573415 223.101204 
L 125.291682 223.101204 
L 125.291682 221.521146 
L 125.470548 221.521146 
L 125.470548 216.780971 
L 125.996395 216.780971 
L 125.996395 214.147541 
L 127.325746 214.147541 
L 127.325746 212.567483 
L 131.312942 212.567483 
L 131.312942 212.040797 
L 131.814826 212.040797 
L 131.814826 202.560447 
L 133.800029 202.560447 
L 133.800029 201.507075 
L 134.450015 201.507075 
L 134.450015 200.980389 
L 136.645276 200.980389 
L 136.645276 198.873645 
L 140.499195 198.873645 
L 140.499195 197.293586 
L 141.090414 197.293586 
L 141.090414 194.13347 
L 141.307054 194.13347 
L 141.307054 188.866609 
L 142.07914 188.866609 
L 142.07914 188.339923 
L 143.716296 188.339923 
L 143.716296 187.286551 
L 146.324022 187.286551 
L 146.324022 186.759865 
L 146.538004 186.759865 
L 146.538004 186.233179 
L 148.686322 186.233179 
L 148.686322 185.706493 
L 152.699575 185.706493 
L 152.736878 184.126434 
L 154.607795 184.126434 
L 154.607795 182.546376 
L 155.741666 182.546376 
L 155.741666 179.912946 
L 157.040776 179.912946 
L 157.040776 177.806202 
L 157.809652 177.806202 
L 157.809652 176.752829 
L 158.51933 176.752829 
L 158.51933 175.699457 
L 158.67908 175.699457 
L 158.75841 174.646085 
L 159.857512 174.646085 
L 159.857512 173.066027 
L 160.37011 173.066027 
L 160.394148 168.852538 
L 161.442917 168.852538 
L 161.442917 162.532305 
L 161.734513 162.532305 
L 161.734513 162.005619 
L 162.517456 162.005619 
L 162.517456 161.478933 
L 162.833584 161.478933 
L 162.833584 160.952247 
L 163.041197 160.952247 
L 163.061823 156.738758 
L 163.307451 156.738758 
L 163.307451 156.212072 
L 163.609699 156.212072 
L 163.609699 154.632014 
L 164.19892 154.632014 
L 164.295217 153.578642 
L 164.524182 153.578642 
L 164.524182 151.998584 
L 164.693955 151.998584 
L 164.712717 149.365153 
L 165.625977 149.365153 
L 165.625977 147.785095 
L 166.099947 147.785095 
L 166.099947 147.258409 
L 166.493781 147.258409 
L 166.493781 145.151665 
L 166.695783 145.151665 
L 166.695783 144.624978 
L 167.529106 144.624978 
L 167.529106 144.098292 
L 167.813965 144.098292 
L 167.813965 141.991548 
L 168.686493 141.991548 
L 168.686493 139.884804 
L 169.201398 139.884804 
L 169.27373 129.877768 
L 169.331381 129.877768 
L 169.331381 129.351082 
L 169.743743 129.351082 
L 169.743743 126.190966 
L 170.063995 126.190966 
L 170.063995 125.137593 
L 170.674059 125.137593 
L 170.767069 121.450791 
L 170.859585 121.450791 
L 170.912232 119.870733 
L 171.069226 119.870733 
L 171.134225 117.763988 
L 171.237722 117.763988 
L 171.237722 117.237302 
L 171.519214 117.237302 
L 171.519214 116.18393 
L 171.908303 116.18393 
L 172.00732 114.077186 
L 172.044307 114.077186 
L 172.142557 110.390383 
L 172.179258 110.390383 
L 172.179258 109.863697 
L 172.325296 109.863697 
L 172.397859 101.43672 
L 172.62567 101.43672 
L 172.62567 98.803289 
L 173.564801 98.803289 
L 173.564801 98.276603 
L 173.677313 98.276603 
L 173.677313 96.169859 
L 174.185719 96.169859 
L 174.272644 93.009743 
L 174.466655 93.009743 
L 174.466655 88.269568 
L 175.727626 88.269568 
L 175.727626 87.216196 
L 176.23856 87.216196 
L 176.286908 83.529393 
L 176.363988 83.529393 
L 176.363988 80.895963 
L 177.199282 80.895963 
L 177.199282 78.789218 
L 177.426892 78.789218 
L 177.517111 76.155788 
L 178.900534 76.155788 
L 178.900534 75.102416 
L 179.074226 75.102416 
L 179.074226 74.57573 
L 179.648977 74.57573 
L 179.648977 74.049044 
L 180.143574 74.049044 
L 180.143574 72.995672 
L 180.58684 72.995672 
L 180.58684 72.468985 
L 180.707163 72.468985 
L 180.781946 68.782183 
L 181.34005 68.782183 
L 181.34005 67.728811 
L 181.491165 67.728811 
L 181.491165 66.675439 
L 185.287795 66.675439 
L 185.287795 66.148752 
L 185.419846 66.148752 
L 185.494044 64.568694 
L 185.697882 64.568694 
L 185.697882 62.988636 
L 185.916051 62.988636 
L 185.982634 58.775147 
L 186.251908 58.775147 
L 186.251908 58.248461 
L 187.009561 58.248461 
L 187.025218 56.668403 
L 188.312018 56.668403 
L 188.312018 56.141717 
L 188.586052 56.141717 
L 188.586052 55.615031 
L 189.126156 55.615031 
L 189.126156 55.088345 
L 189.319315 55.088345 
L 189.319315 54.561659 
L 189.465061 54.561659 
L 189.465061 54.034973 
L 189.970194 54.034973 
L 189.970194 53.508287 
L 190.189118 53.508287 
L 190.284581 52.454914 
L 190.555096 52.454914 
L 190.555096 51.928228 
L 190.97605 51.928228 
L 191.017592 50.874856 
L 191.260695 50.874856 
L 191.260695 50.34817 
L 191.407381 50.34817 
L 191.480264 48.768112 
L 191.580988 48.768112 
L 191.580988 48.241426 
L 191.867864 48.241426 
L 191.89945 47.188054 
L 192.107273 47.188054 
L 192.107273 46.661368 
L 192.285662 46.661368 
L 192.285662 46.134681 
L 192.693684 46.134681 
L 192.693684 45.081309 
L 192.970385 45.081309 
L 193.066571 42.974565 
L 193.743172 42.974565 
L 193.743172 42.447879 
L 193.944295 42.447879 
L 193.944295 41.921193 
L 194.201989 41.921193 
L 194.201989 41.394507 
L 194.384241 41.394507 
L 194.384241 40.867821 
L 195.098062 40.867821 
L 195.098062 40.341135 
L 195.397568 40.341135 
L 195.397568 39.814448 
L 195.815353 39.814448 
L 195.815353 39.287762 
L 196.087383 39.287762 
L 196.087383 38.761076 
L 197.231106 38.761076 
L 197.231106 38.23439 
L 197.799938 38.23439 
L 197.799938 37.707704 
L 198.128675 37.707704 
L 198.128675 37.181018 
L 198.650669 37.181018 
L 198.72017 36.127646 
L 202.713245 36.127646 
L 202.713245 35.60096 
L 203.552083 35.60096 
L 203.552083 35.074274 
L 204.490932 35.074274 
L 204.490932 34.547588 
L 205.050952 34.547588 
L 205.050952 34.020902 
L 205.306997 34.020902 
L 205.306997 33.494215 
L 206.834467 33.494215 
L 206.834467 32.967529 
L 207.055863 32.967529 
L 207.055863 32.440843 
L 209.46089 32.440843 
L 209.46089 31.914157 
L 210.01542 31.914157 
L 210.01542 31.387471 
L 210.373268 31.387471 
L 210.373268 30.860785 
L 211.5127 30.860785 
L 211.5127 30.334099 
L 338.688 30.334099 
L 338.688 30.334099 
" style="fill:none;stroke:#00bfbf;stroke-linecap:square;stroke-width:1.5;"/>
   </g>
   <g id="line2d_31">
    <defs>
     <path d="M -6 0 
L 6 0 
M 0 6 
L 0 -6 
" id="m038ae1a117" style="stroke:#00bfbf;stroke-width:1.5;"/>
    </defs>
    <g>
     <use style="fill-opacity:0;stroke:#00bfbf;stroke-width:1.5;" x="131.814826" xlink:href="#m038ae1a117" y="202.560447"/>
     <use style="fill-opacity:0;stroke:#00bfbf;stroke-width:1.5;" x="171.519214" xlink:href="#m038ae1a117" y="117.237302"/>
     <use style="fill-opacity:0;stroke:#00bfbf;stroke-width:1.5;" x="205.306997" xlink:href="#m038ae1a117" y="34.020902"/>
     <use style="fill-opacity:0;stroke:#00bfbf;stroke-width:1.5;" x="211.5127" xlink:href="#m038ae1a117" y="30.334099"/>
     <use style="fill-opacity:0;stroke:#00bfbf;stroke-width:1.5;" x="211.5127" xlink:href="#m038ae1a117" y="30.334099"/>
     <use style="fill-opacity:0;stroke:#00bfbf;stroke-width:1.5;" x="338.688" xlink:href="#m038ae1a117" y="30.334099"/>
    </g>
   </g>
   <g id="line2d_32">
    <path style="fill:none;stroke:#00bfbf;stroke-linecap:square;stroke-width:1.5;"/>
    <g/>
   </g>
   <g id="line2d_33">
    <path clip-path="url(#p79d589637d)" d="M 185.709137 62.988636 
" style="fill:none;stroke:#00bfbf;stroke-linecap:square;stroke-width:1.5;"/>
    <defs>
     <path d="M -12 12 
L 12 -12 
M -12 -12 
L 12 12 
" id="m21ef8b58bd" style="stroke:#00bfbf;"/>
    </defs>
    <g clip-path="url(#p79d589637d)">
     <use style="fill:#00bfbf;stroke:#00bfbf;" x="185.709137" xlink:href="#m21ef8b58bd" y="62.988636"/>
    </g>
   </g>
   <g id="line2d_34">
    <defs>
     <path d="M 0 1.5 
C 0.397805 1.5 0.77937 1.341951 1.06066 1.06066 
C 1.341951 0.77937 1.5 0.397805 1.5 0 
C 1.5 -0.397805 1.341951 -0.77937 1.06066 -1.06066 
C 0.77937 -1.341951 0.397805 -1.5 0 -1.5 
C -0.397805 -1.5 -0.77937 -1.341951 -1.06066 -1.06066 
C -1.341951 -0.77937 -1.5 -0.397805 -1.5 0 
C -1.5 0.397805 -1.341951 0.77937 -1.06066 1.06066 
C -0.77937 1.341951 -0.397805 1.5 0 1.5 
z
" id="m31de36a749" style="stroke:#008000;"/>
    </defs>
    <g>
     <use style="fill:#008000;stroke:#008000;" x="246.088852" xlink:href="#m31de36a749" y="30.334099"/>
     <use style="fill:#008000;stroke:#008000;" x="246.088852" xlink:href="#m31de36a749" y="30.334099"/>
    </g>
   </g>
   <g id="line2d_35">
    <path d="M 38.440992 298.944 
L 38.440992 286.303534 
L 50.52898 286.303534 
L 50.52898 282.616732 
L 57.6 282.616732 
L 57.6 278.929929 
L 66.508432 278.929929 
L 66.508432 278.403243 
L 69.687988 278.403243 
L 69.687988 277.876557 
L 72.376266 277.876557 
L 72.376266 273.136382 
L 74.704957 273.136382 
L 74.704957 271.556324 
L 78.59642 271.556324 
L 78.59642 271.029638 
L 85.66744 271.029638 
L 85.66744 269.976266 
L 87.850195 269.976266 
L 87.850195 269.449579 
L 88.846997 269.449579 
L 88.846997 267.342835 
L 98.32726 267.342835 
L 98.32726 266.816149 
L 99.938184 266.816149 
L 99.938184 265.762777 
L 100.934985 265.762777 
L 100.934985 265.236091 
L 101.877879 265.236091 
L 101.877879 264.182719 
L 103.203018 264.182719 
L 103.203018 263.129347 
L 105.951954 263.129347 
L 105.951954 262.60266 
L 110.415248 262.60266 
L 110.415248 260.495916 
L 112.779064 260.495916 
L 112.779064 258.389172 
L 113.500792 258.389172 
L 113.500792 257.862486 
L 114.418861 257.862486 
L 114.418861 256.809114 
L 116.323218 256.809114 
L 116.323218 255.755741 
L 117.297733 255.755741 
L 117.297733 251.542253 
L 117.486268 251.542253 
L 117.486268 248.908822 
L 117.857331 248.908822 
L 117.857331 248.382136 
L 118.751849 248.382136 
L 118.751849 246.802078 
L 119.43583 246.802078 
L 119.43583 246.275392 
L 120.883236 246.275392 
L 120.883236 245.748706 
L 121.340187 245.748706 
L 121.340187 245.22202 
L 122.920132 245.22202 
L 122.920132 243.641962 
L 123.985457 243.641962 
L 123.985457 243.115275 
L 124.368753 243.115275 
L 124.368753 242.061903 
L 124.989434 242.061903 
L 124.989434 241.008531 
L 126.3947 241.008531 
L 126.3947 240.481845 
L 127.590383 240.481845 
L 127.590383 238.901787 
L 129.195127 238.901787 
L 129.195127 238.375101 
L 131.77355 238.375101 
L 131.77355 237.848415 
L 132.659801 237.848415 
L 132.659801 237.321729 
L 133.800029 237.321729 
L 133.800029 236.795043 
L 134.091907 236.795043 
L 134.091907 235.74167 
L 137.077422 235.74167 
L 137.077422 233.634926 
L 138.426341 233.634926 
L 138.426341 233.10824 
L 139.466984 233.10824 
L 139.466984 231.528182 
L 140.698504 231.528182 
L 140.698504 230.47481 
L 141.426256 230.47481 
L 141.426256 229.421437 
L 147.061745 229.421437 
L 147.061745 226.788007 
L 148.513109 226.788007 
L 148.513109 224.681263 
L 151.528368 224.681263 
L 151.528368 222.047832 
L 152.662192 222.047832 
L 152.662192 219.414402 
L 154.006185 219.414402 
L 154.006185 218.887716 
L 155.081089 218.887716 
L 155.081089 216.780971 
L 159.6749 216.780971 
L 159.6749 216.254285 
L 162.403659 216.254285 
L 162.503271 214.674227 
L 163.801742 214.674227 
L 163.801742 213.620855 
L 164.985598 213.620855 
L 164.985598 212.567483 
L 165.132663 212.567483 
L 165.132663 212.040797 
L 165.826498 212.040797 
L 165.93173 206.773936 
L 167.523787 206.773936 
L 167.523787 205.193878 
L 169.292968 205.193878 
L 169.331381 203.613819 
L 173.940735 203.613819 
L 173.940735 203.087133 
L 174.928533 203.087133 
L 174.928533 202.560447 
L 175.577416 202.560447 
L 175.577416 201.507075 
L 175.77078 201.507075 
L 175.803903 196.7669 
L 177.220651 196.7669 
L 177.220651 195.713528 
L 177.402755 195.713528 
L 177.402755 194.660156 
L 178.187935 194.660156 
L 178.228297 193.080098 
L 181.704798 193.080098 
L 181.704798 192.553412 
L 182.470975 192.553412 
L 182.470975 192.026726 
L 182.60592 192.026726 
L 182.60592 191.50004 
L 183.3042 191.50004 
L 183.35149 190.446667 
L 183.479815 190.446667 
L 183.496853 189.393295 
L 183.632568 189.393295 
L 183.632568 188.866609 
L 183.746262 188.866609 
L 183.746262 187.813237 
L 183.90087 187.813237 
L 183.90087 187.286551 
L 184.049996 187.286551 
L 184.148709 185.706493 
L 185.51681 185.706493 
L 185.54712 184.653121 
L 185.906783 184.653121 
L 185.906783 184.126434 
L 186.05448 184.126434 
L 186.098547 183.073062 
L 186.259178 183.073062 
L 186.259178 182.01969 
L 186.63307 182.01969 
L 186.63307 180.966318 
L 187.130969 180.966318 
L 187.130969 180.439632 
L 187.466482 180.439632 
L 187.466482 179.38626 
L 187.739002 179.38626 
L 187.802315 177.806202 
L 187.977719 177.806202 
L 188.086048 175.699457 
L 188.274828 175.699457 
L 188.274828 175.172771 
L 188.595589 175.172771 
L 188.690678 174.119399 
L 188.910557 174.119399 
L 188.910557 173.592713 
L 189.041166 173.592713 
L 189.072119 172.539341 
L 189.523924 172.539341 
L 189.523924 172.012655 
L 189.976067 172.012655 
L 189.976067 170.959282 
L 190.116448 170.959282 
L 190.116448 170.432596 
L 190.445392 170.432596 
L 190.542309 169.379224 
L 190.807486 169.379224 
L 190.824276 168.325852 
L 191.043851 168.325852 
L 191.043851 167.799166 
L 191.24705 167.799166 
L 191.287952 166.745794 
L 191.517936 166.745794 
L 191.552844 165.692422 
L 191.643813 165.692422 
L 191.643813 165.165736 
L 191.82434 165.165736 
L 191.908652 164.112363 
L 192.169529 164.112363 
L 192.228982 163.058991 
L 192.35241 163.058991 
L 192.35241 162.532305 
L 192.644617 162.532305 
L 192.644617 161.478933 
L 193.141426 161.478933 
L 193.175678 160.425561 
L 194.472956 160.425561 
L 194.472956 159.898875 
L 194.622068 159.898875 
L 194.711823 158.845503 
L 195.046543 158.845503 
L 195.046543 158.318817 
L 195.37065 158.318817 
L 195.37065 157.79213 
L 195.599737 157.79213 
L 195.608243 156.738758 
L 195.811151 156.738758 
L 195.819554 155.685386 
L 196.036635 155.685386 
L 196.036635 155.1587 
L 196.406081 155.1587 
L 196.438545 153.578642 
L 196.523477 153.578642 
L 196.523477 153.051956 
L 196.712077 153.051956 
L 196.743977 151.998584 
L 196.831402 151.998584 
L 196.831402 151.471897 
L 197.200086 151.471897 
L 197.271737 149.891839 
L 197.393064 149.891839 
L 197.393064 149.365153 
L 197.583931 149.365153 
L 197.682362 148.311781 
L 197.789623 148.311781 
L 197.851421 147.258409 
L 198.144307 147.258409 
L 198.144307 146.731723 
L 198.394343 146.731723 
L 198.403401 145.678351 
L 198.563851 145.678351 
L 198.619393 144.098292 
L 198.761915 144.098292 
L 198.763689 143.04492 
L 199.180892 143.04492 
L 199.241412 141.991548 
L 199.676116 141.991548 
L 199.676116 141.464862 
L 200.009637 141.464862 
L 200.009637 140.938176 
L 200.299575 140.938176 
L 200.299575 140.41149 
L 200.450005 140.41149 
L 200.461276 139.358118 
L 200.610324 139.358118 
L 200.610324 138.304745 
L 200.772344 138.304745 
L 200.816558 136.724687 
L 201.980167 136.724687 
L 202.084599 135.671315 
L 202.529092 135.671315 
L 202.529092 135.144629 
L 203.022397 135.144629 
L 203.022397 134.617943 
L 203.169086 134.617943 
L 203.254317 132.511199 
L 203.542644 132.511199 
L 203.542644 131.984513 
L 203.803706 131.984513 
L 203.803706 131.457826 
L 204.149727 131.457826 
L 204.184864 130.404454 
L 204.341469 130.404454 
L 204.341469 129.877768 
L 204.536223 129.877768 
L 204.602353 127.771024 
L 204.663174 127.771024 
L 204.697294 126.717652 
L 205.161937 126.717652 
L 205.161937 126.190966 
L 205.336839 126.190966 
L 205.336839 125.66428 
L 205.648026 125.66428 
L 205.648026 125.137593 
L 205.806301 125.137593 
L 205.816959 123.557535 
L 206.018245 123.557535 
L 206.057991 122.504163 
L 206.16857 122.504163 
L 206.16857 121.977477 
L 206.289977 121.977477 
L 206.396808 120.924105 
L 206.469948 120.924105 
L 206.518918 119.870733 
L 206.583619 119.870733 
L 206.596078 118.290674 
L 206.955779 118.290674 
L 206.955779 117.763988 
L 207.134532 117.763988 
L 207.134532 117.237302 
L 207.371137 117.237302 
L 207.427361 116.18393 
L 207.720663 116.18393 
L 207.782121 115.130558 
L 207.841256 115.130558 
L 207.841256 114.603872 
L 207.9924 114.603872 
L 208.009114 113.5505 
L 208.458493 113.5505 
L 208.559949 112.497128 
L 208.638678 112.497128 
L 208.70903 111.443755 
L 208.809043 111.443755 
L 208.908486 109.337011 
L 209.203458 109.337011 
L 209.272543 108.283639 
L 209.342324 108.283639 
L 209.342324 107.756953 
L 209.602495 107.756953 
L 209.638668 105.650209 
L 209.792044 105.650209 
L 209.792044 105.123522 
L 210.196413 105.123522 
L 210.28369 104.07015 
L 210.785913 104.07015 
L 210.797484 103.016778 
L 211.659405 103.016778 
L 211.690712 101.963406 
L 211.791863 101.963406 
L 211.791863 101.43672 
L 212.025626 101.43672 
L 212.025626 100.910034 
L 212.238283 100.910034 
L 212.320015 99.856662 
L 212.643169 99.856662 
L 212.643169 99.329976 
L 212.827098 99.329976 
L 212.919522 96.696545 
L 213.072482 96.696545 
L 213.116941 95.116487 
L 213.231852 95.116487 
L 213.231852 94.589801 
L 213.680302 94.589801 
L 213.680302 94.063115 
L 213.840217 94.063115 
L 213.840217 93.536429 
L 214.100582 93.536429 
L 214.199696 92.483056 
L 214.788498 92.483056 
L 214.833738 91.429684 
L 215.24122 91.429684 
L 215.335447 90.376312 
L 215.378608 90.376312 
L 215.411421 89.32294 
L 215.533243 89.32294 
L 215.605661 87.742882 
L 215.746249 87.742882 
L 215.746249 87.216196 
L 215.949402 87.216196 
L 215.949402 86.68951 
L 216.146941 86.68951 
L 216.180955 85.109451 
L 216.535432 85.109451 
L 216.58786 84.056079 
L 216.696052 84.056079 
L 216.706201 83.002707 
L 216.971129 83.002707 
L 217.08008 81.949335 
L 217.157487 81.949335 
L 217.157487 81.422649 
L 217.335761 81.422649 
L 217.380351 79.842591 
L 217.578702 79.842591 
L 217.578702 79.315904 
L 217.818306 79.315904 
L 217.88718 77.735846 
L 217.995873 77.735846 
L 217.995873 77.20916 
L 218.229851 77.20916 
L 218.229851 76.682474 
L 218.502539 76.682474 
L 218.510545 75.629102 
L 218.624524 75.629102 
L 218.624524 75.102416 
L 218.866525 75.102416 
L 218.866525 74.57573 
L 218.980991 74.57573 
L 218.980991 74.049044 
L 219.363017 74.049044 
L 219.363017 73.522358 
L 219.638516 73.522358 
L 219.732056 71.942299 
L 219.876984 71.942299 
L 219.929771 70.888927 
L 220.034868 70.888927 
L 220.034868 70.362241 
L 220.904011 70.362241 
L 220.904011 69.835555 
L 221.174546 69.835555 
L 221.174546 69.308869 
L 221.778406 69.308869 
L 221.848426 68.255497 
L 221.944482 68.255497 
L 221.944482 67.728811 
L 222.219349 67.728811 
L 222.246138 66.675439 
L 222.384046 66.675439 
L 222.451681 65.09538 
L 223.253935 65.09538 
L 223.283531 64.042008 
L 223.385858 64.042008 
L 223.385858 63.515322 
L 223.853356 63.515322 
L 223.863034 62.46195 
L 224.059627 62.46195 
L 224.107808 61.408578 
L 224.345513 61.408578 
L 224.345513 60.881892 
L 224.552547 60.881892 
L 224.552547 60.355206 
L 225.020505 60.355206 
L 225.020505 59.82852 
L 225.307842 59.82852 
L 225.307842 59.301833 
L 225.611462 59.301833 
L 225.611462 58.775147 
L 225.811228 58.775147 
L 225.877687 57.721775 
L 226.062211 57.721775 
L 226.062211 57.195089 
L 226.790277 57.195089 
L 226.790277 56.668403 
L 227.587968 56.668403 
L 227.675066 55.615031 
L 227.959406 55.615031 
L 228.025798 54.561659 
L 228.370914 54.561659 
L 228.449023 52.9816 
L 228.541266 52.9816 
L 228.644219 51.401542 
L 228.708058 51.401542 
L 228.80148 50.34817 
L 229.22662 50.34817 
L 229.22662 49.821484 
L 229.547769 49.821484 
L 229.63983 48.768112 
L 229.77492 48.768112 
L 229.77492 48.241426 
L 230.101225 48.241426 
L 230.20446 46.661368 
L 230.435681 46.661368 
L 230.45068 45.607995 
L 230.79327 45.607995 
L 230.79327 45.081309 
L 232.100052 45.081309 
L 232.100052 44.554623 
L 232.393182 44.554623 
L 232.393182 44.027937 
L 233.118887 44.027937 
L 233.118887 43.501251 
L 233.569007 43.501251 
L 233.595268 42.447879 
L 233.833416 42.447879 
L 233.893158 41.394507 
L 234.111881 41.394507 
L 234.139438 40.341135 
L 234.360183 40.341135 
L 234.383209 39.287762 
L 235.329723 39.287762 
L 235.41083 38.23439 
L 235.614216 38.23439 
L 235.614216 37.707704 
L 236.05984 37.707704 
L 236.098674 36.654332 
L 236.223358 36.654332 
L 236.223358 36.127646 
L 237.656589 36.127646 
L 237.656589 35.60096 
L 237.79943 35.60096 
L 237.79943 35.074274 
L 238.13666 35.074274 
L 238.13666 34.547588 
L 238.503866 34.547588 
L 238.503866 34.020902 
L 238.711202 34.020902 
L 238.711202 33.494215 
L 239.03141 33.494215 
L 239.03141 32.967529 
L 240.452567 32.967529 
L 240.452567 32.440843 
L 241.322957 32.440843 
L 241.322957 31.914157 
L 242.313343 31.914157 
L 242.313343 31.387471 
L 245.325354 31.387471 
L 245.325354 30.860785 
L 246.088852 30.860785 
L 246.088852 30.334099 
L 338.688 30.334099 
L 338.688 30.334099 
" style="fill:none;stroke:#008000;stroke-linecap:square;stroke-width:1.5;"/>
   </g>
   <g id="line2d_36">
    <defs>
     <path d="M -0 6 
L 6 -6 
L -6 -6 
z
" id="m7f1fe62add" style="stroke:#008000;stroke-linejoin:miter;stroke-width:1.5;"/>
    </defs>
    <g>
     <use style="fill-opacity:0;stroke:#008000;stroke-linejoin:miter;stroke-width:1.5;" x="100.934985" xlink:href="#m7f1fe62add" y="265.236091"/>
     <use style="fill-opacity:0;stroke:#008000;stroke-linejoin:miter;stroke-width:1.5;" x="155.081089" xlink:href="#m7f1fe62add" y="218.887716"/>
     <use style="fill-opacity:0;stroke:#008000;stroke-linejoin:miter;stroke-width:1.5;" x="202.529092" xlink:href="#m7f1fe62add" y="135.671315"/>
     <use style="fill-opacity:0;stroke:#008000;stroke-linejoin:miter;stroke-width:1.5;" x="246.088852" xlink:href="#m7f1fe62add" y="30.860785"/>
     <use style="fill-opacity:0;stroke:#008000;stroke-linejoin:miter;stroke-width:1.5;" x="246.088852" xlink:href="#m7f1fe62add" y="30.334099"/>
     <use style="fill-opacity:0;stroke:#008000;stroke-linejoin:miter;stroke-width:1.5;" x="338.688" xlink:href="#m7f1fe62add" y="30.334099"/>
    </g>
   </g>
   <g id="line2d_37">
    <path style="fill:none;stroke:#008000;stroke-linecap:square;stroke-width:1.5;"/>
    <g/>
   </g>
   <g id="line2d_38">
    <path clip-path="url(#p79d589637d)" d="M 182.64173 191.50004 
" style="fill:none;stroke:#008000;stroke-linecap:square;stroke-width:1.5;"/>
    <defs>
     <path d="M -12 12 
L 12 -12 
M -12 -12 
L 12 12 
" id="m42c222a357" style="stroke:#008000;"/>
    </defs>
    <g clip-path="url(#p79d589637d)">
     <use style="fill:#008000;stroke:#008000;" x="182.64173" xlink:href="#m42c222a357" y="191.50004"/>
    </g>
   </g>
   <g id="line2d_39">
    <defs>
     <path d="M 0 1.5 
C 0.397805 1.5 0.77937 1.341951 1.06066 1.06066 
C 1.341951 0.77937 1.5 0.397805 1.5 0 
C 1.5 -0.397805 1.341951 -0.77937 1.06066 -1.06066 
C 0.77937 -1.341951 0.397805 -1.5 0 -1.5 
C -0.397805 -1.5 -0.77937 -1.341951 -1.06066 -1.06066 
C -1.341951 -0.77937 -1.5 -0.397805 -1.5 0 
C -1.5 0.397805 -1.341951 0.77937 -1.06066 1.06066 
C -0.77937 1.341951 -0.397805 1.5 0 1.5 
z
" id="m193a6737ba" style="stroke:#0000ff;"/>
    </defs>
    <g>
     <use style="fill:#0000ff;stroke:#0000ff;" x="231.506075" xlink:href="#m193a6737ba" y="30.334099"/>
     <use style="fill:#0000ff;stroke:#0000ff;" x="231.506075" xlink:href="#m193a6737ba" y="30.334099"/>
    </g>
   </g>
   <g id="line2d_40">
    <path d="M 29.53256 298.944 
L 29.53256 293.150453 
L 41.620548 293.150453 
L 41.620548 289.990337 
L 48.691568 289.990337 
L 48.691568 289.463651 
L 53.708537 289.463651 
L 53.708537 288.936964 
L 57.6 288.936964 
L 57.6 287.883592 
L 63.467834 287.883592 
L 63.467834 285.776848 
L 65.796525 285.776848 
L 65.796525 282.616732 
L 67.850577 282.616732 
L 67.850577 281.563359 
L 75.555822 281.563359 
L 75.555822 279.456615 
L 76.759008 279.456615 
L 76.759008 277.349871 
L 84.213325 277.349871 
L 84.213325 276.823185 
L 88.255778 276.823185 
L 88.255778 276.296499 
L 98.43941 276.296499 
L 98.43941 275.769812 
L 99.731799 275.769812 
L 99.731799 274.71644 
L 101.223245 274.71644 
L 101.223245 273.663068 
L 102.597126 273.663068 
L 102.597126 273.136382 
L 104.826449 273.136382 
L 104.826449 272.609696 
L 105.732589 272.609696 
L 105.732589 271.556324 
L 106.168594 271.556324 
L 106.168594 271.029638 
L 110.188761 271.029638 
L 110.188761 270.502952 
L 113.873839 270.502952 
L 113.873839 269.976266 
L 114.816733 269.976266 
L 114.816733 268.396207 
L 115.077025 268.396207 
L 115.077025 267.869521 
L 121.219499 267.869521 
L 121.219499 267.342835 
L 121.400219 267.342835 
L 121.400219 266.816149 
L 123.029641 266.816149 
L 123.029641 266.289463 
L 123.907776 266.289463 
L 123.907776 263.656033 
L 126.304457 263.656033 
L 126.304457 263.129347 
L 126.70692 263.129347 
L 126.70692 262.60266 
L 129.51791 262.60266 
L 129.51791 260.495916 
L 129.742212 260.495916 
L 129.742212 258.389172 
L 130.073348 258.389172 
L 130.073348 256.809114 
L 131.185181 256.809114 
L 131.185181 255.755741 
L 132.036046 255.755741 
L 132.036046 255.229055 
L 132.470242 255.229055 
L 132.470242 254.702369 
L 133.57787 254.702369 
L 133.57787 254.175683 
L 134.577155 254.175683 
L 134.577155 253.648997 
L 136.570107 253.648997 
L 136.570107 253.122311 
L 137.980475 253.122311 
L 138.084384 252.068939 
L 138.959898 252.068939 
L 138.959898 251.542253 
L 141.71841 251.542253 
L 141.71841 250.488881 
L 142.884173 250.488881 
L 142.884173 249.435508 
L 143.60342 249.435508 
L 143.60342 248.908822 
L 144.414696 248.908822 
L 144.414696 248.382136 
L 144.582038 248.382136 
L 144.582038 246.275392 
L 145.281568 246.275392 
L 145.281568 245.748706 
L 146.452726 245.748706 
L 146.559258 244.695334 
L 146.728368 244.695334 
L 146.728368 244.168648 
L 147.429332 244.168648 
L 147.429332 243.641962 
L 147.670154 243.641962 
L 147.670154 243.115275 
L 147.946974 243.115275 
L 147.946974 242.588589 
L 148.258051 242.588589 
L 148.315765 238.375101 
L 149.085961 238.375101 
L 149.085961 237.848415 
L 149.998846 237.848415 
L 149.998846 237.321729 
L 151.421542 237.321729 
L 151.421542 236.795043 
L 151.99078 236.795043 
L 152.00633 234.688298 
L 152.222586 234.688298 
L 152.314453 233.10824 
L 152.647216 233.10824 
L 152.647216 232.581554 
L 153.221946 232.581554 
L 153.221946 231.001496 
L 153.48095 231.001496 
L 153.48095 230.47481 
L 154.587699 230.47481 
L 154.667942 227.841379 
L 154.77436 227.841379 
L 154.77436 227.314693 
L 154.985269 227.314693 
L 154.985269 223.627891 
L 155.271165 223.627891 
L 155.34833 222.574518 
L 156.187581 222.574518 
L 156.187581 221.521146 
L 156.32159 221.521146 
L 156.32159 220.467774 
L 157.069866 220.467774 
L 157.069866 219.941088 
L 157.335239 219.941088 
L 157.335239 214.674227 
L 157.697862 214.674227 
L 157.697862 214.147541 
L 158.314856 214.147541 
L 158.401243 210.460738 
L 158.465753 210.460738 
L 158.465753 207.827308 
L 160.268789 207.827308 
L 160.268789 207.300622 
L 160.670589 207.300622 
L 160.670589 206.773936 
L 160.952025 206.773936 
L 160.952025 206.24725 
L 161.26559 206.24725 
L 161.26559 204.667192 
L 161.411222 204.667192 
L 161.411222 204.140506 
L 161.627414 204.140506 
L 161.672119 203.087133 
L 162.112973 203.087133 
L 162.199823 200.453703 
L 162.619242 200.453703 
L 162.661478 198.873645 
L 162.987455 198.873645 
L 162.987455 197.820273 
L 163.234125 197.820273 
L 163.283043 196.7669 
L 163.677486 196.7669 
L 163.677486 196.240214 
L 163.985177 196.240214 
L 163.985177 195.186842 
L 164.302897 195.186842 
L 164.302897 193.080098 
L 164.854652 193.080098 
L 164.854652 192.553412 
L 165.568939 192.553412 
L 165.568939 192.026726 
L 165.999212 192.026726 
L 165.999212 190.973354 
L 166.268843 190.973354 
L 166.268843 189.919981 
L 166.668984 189.919981 
L 166.729224 188.339923 
L 181.023534 188.339923 
L 181.023534 187.813237 
L 181.271982 187.813237 
L 181.361719 186.759865 
L 181.559813 186.759865 
L 181.588336 185.706493 
L 181.929824 185.706493 
L 181.929824 185.179807 
L 182.352263 185.179807 
L 182.461038 183.599748 
L 182.700655 183.599748 
L 182.700655 183.073062 
L 182.876247 183.073062 
L 182.929109 181.493004 
L 183.274039 181.493004 
L 183.364365 179.912946 
L 183.461906 179.912946 
L 183.513025 178.332888 
L 183.736186 178.332888 
L 183.789021 177.279515 
L 184.038443 177.279515 
L 184.09284 176.226143 
L 184.228096 176.226143 
L 184.272134 174.646085 
L 184.38903 174.646085 
L 184.442346 173.066027 
L 184.512379 173.066027 
L 184.553302 172.012655 
L 184.720804 172.012655 
L 184.806326 169.90591 
L 184.957337 169.90591 
L 185.053396 167.27248 
L 185.19534 167.27248 
L 185.19534 166.745794 
L 185.38664 166.745794 
L 185.464403 164.112363 
L 185.63924 164.112363 
L 185.65279 163.058991 
L 185.834696 163.058991 
L 185.872635 160.952247 
L 186.050067 160.952247 
L 186.122736 158.845503 
L 186.199479 158.845503 
L 186.199479 158.318817 
L 186.312877 158.318817 
L 186.377965 156.212072 
L 186.460063 156.212072 
L 186.460063 155.685386 
L 186.623108 155.685386 
L 186.710438 153.051956 
L 186.782528 153.051956 
L 186.782528 152.52527 
L 187.126129 152.52527 
L 187.200656 150.945211 
L 187.322112 150.945211 
L 187.322112 149.891839 
L 187.568587 149.891839 
L 187.568587 149.365153 
L 188.137677 149.365153 
L 188.137677 148.838467 
L 188.549762 148.838467 
L 188.549762 148.311781 
L 188.890569 148.311781 
L 188.890569 147.785095 
L 189.301926 147.785095 
L 189.301926 147.258409 
L 190.072116 147.258409 
L 190.176931 146.205037 
L 190.620588 146.205037 
L 190.620588 145.678351 
L 193.571988 145.678351 
L 193.65351 144.624978 
L 193.74743 144.624978 
L 193.811178 143.04492 
L 193.912693 143.04492 
L 193.912693 142.518234 
L 194.048527 142.518234 
L 194.091716 140.938176 
L 194.188848 140.938176 
L 194.239972 139.358118 
L 194.306071 139.358118 
L 194.365074 137.778059 
L 194.54496 137.778059 
L 194.651738 135.671315 
L 194.760545 135.671315 
L 194.864685 134.617943 
L 195.073747 134.617943 
L 195.168191 133.037885 
L 195.204781 133.037885 
L 195.29852 131.457826 
L 195.398214 131.457826 
L 195.420148 129.877768 
L 195.526842 129.877768 
L 195.530686 128.824396 
L 195.64562 128.824396 
L 195.697729 127.244338 
L 195.802743 127.244338 
L 195.802743 126.717652 
L 196.02958 126.717652 
L 196.071864 125.66428 
L 196.233826 125.66428 
L 196.233826 125.137593 
L 196.394298 125.137593 
L 196.498849 122.504163 
L 196.599162 122.504163 
L 196.599162 121.450791 
L 197.217154 121.450791 
L 197.217154 120.924105 
L 197.344635 120.924105 
L 197.382698 119.870733 
L 197.709145 119.870733 
L 197.710275 118.290674 
L 198.147983 118.290674 
L 198.20523 117.237302 
L 198.81966 117.237302 
L 198.81966 116.710616 
L 199.103814 116.710616 
L 199.103814 116.18393 
L 200.58605 116.18393 
L 200.58605 115.657244 
L 200.903396 115.657244 
L 200.984181 114.077186 
L 201.100938 114.077186 
L 201.184522 113.023814 
L 201.221543 113.023814 
L 201.31467 111.970441 
L 201.368842 111.970441 
L 201.406389 110.917069 
L 201.551235 110.917069 
L 201.644428 108.810325 
L 201.729943 108.810325 
L 201.823975 107.230267 
L 201.897059 107.230267 
L 201.910394 106.176895 
L 202.017599 106.176895 
L 202.121515 104.07015 
L 202.132048 104.07015 
L 202.132048 103.543464 
L 202.263177 103.543464 
L 202.370838 102.490092 
L 202.420969 102.490092 
L 202.530236 100.910034 
L 202.555091 100.910034 
L 202.621767 99.329976 
L 202.788197 99.329976 
L 202.788197 98.803289 
L 203.044896 98.803289 
L 203.1553 97.749917 
L 203.346228 97.749917 
L 203.424625 95.643173 
L 203.503483 95.643173 
L 203.503483 95.116487 
L 203.683433 95.116487 
L 203.683433 94.589801 
L 203.828139 94.589801 
L 203.843259 93.536429 
L 204.831353 93.536429 
L 204.855389 92.483056 
L 205.084322 92.483056 
L 205.084322 91.95637 
L 205.280279 91.95637 
L 205.280279 91.429684 
L 205.427632 91.429684 
L 205.427632 90.902998 
L 205.68433 90.902998 
L 205.789233 88.796254 
L 205.826901 88.796254 
L 205.826901 88.269568 
L 205.945062 88.269568 
L 206.015436 85.109451 
L 206.081329 85.109451 
L 206.086926 83.529393 
L 206.300344 83.529393 
L 206.345198 81.949335 
L 206.483856 81.949335 
L 206.554817 79.842591 
L 206.619385 79.842591 
L 206.619385 79.315904 
L 206.889329 79.315904 
L 206.897343 78.262532 
L 207.183424 78.262532 
L 207.248983 76.682474 
L 207.367671 76.682474 
L 207.367671 76.155788 
L 207.564135 76.155788 
L 207.671766 75.102416 
L 207.680705 75.102416 
L 207.683258 74.049044 
L 207.862958 74.049044 
L 207.862958 73.522358 
L 208.33965 73.522358 
L 208.33965 72.995672 
L 208.723868 72.995672 
L 208.723868 72.468985 
L 208.933061 72.468985 
L 208.933061 71.942299 
L 209.105099 71.942299 
L 209.215933 70.888927 
L 209.291179 70.888927 
L 209.375951 69.308869 
L 209.508092 69.308869 
L 209.529922 68.255497 
L 209.669451 68.255497 
L 209.751842 67.202125 
L 210.063652 67.202125 
L 210.063652 66.675439 
L 210.219975 66.675439 
L 210.226596 65.622066 
L 210.342059 65.622066 
L 210.422977 64.042008 
L 210.614473 64.042008 
L 210.689842 62.46195 
L 210.938922 62.46195 
L 210.956389 61.408578 
L 211.405014 61.408578 
L 211.512956 60.355206 
L 211.887082 60.355206 
L 211.887082 59.82852 
L 212.523332 59.82852 
L 212.561493 58.775147 
L 212.881348 58.775147 
L 212.925824 57.721775 
L 213.140918 57.721775 
L 213.140918 57.195089 
L 213.332167 57.195089 
L 213.332167 56.668403 
L 213.445827 56.668403 
L 213.445827 56.141717 
L 213.809399 56.141717 
L 213.809399 55.615031 
L 214.245903 55.615031 
L 214.245903 55.088345 
L 214.377274 55.088345 
L 214.377274 54.561659 
L 214.547752 54.561659 
L 214.547752 54.034973 
L 215.290392 54.034973 
L 215.391194 52.9816 
L 215.600392 52.9816 
L 215.635218 51.928228 
L 215.836328 51.928228 
L 215.932043 50.34817 
L 215.954698 50.34817 
L 215.954698 49.821484 
L 216.501334 49.821484 
L 216.501334 49.294798 
L 216.890002 49.294798 
L 216.957259 48.241426 
L 217.068656 48.241426 
L 217.068656 47.71474 
L 217.473802 47.71474 
L 217.473802 47.188054 
L 217.6675 47.188054 
L 217.6675 46.661368 
L 218.415604 46.661368 
L 218.415604 46.134681 
L 218.589953 46.134681 
L 218.589953 45.607995 
L 218.707713 45.607995 
L 218.781502 44.554623 
L 218.96295 44.554623 
L 219.046983 43.501251 
L 219.139551 43.501251 
L 219.139551 42.974565 
L 219.473848 42.974565 
L 219.473848 42.447879 
L 219.71627 42.447879 
L 219.71627 41.921193 
L 219.979036 41.921193 
L 220.012116 40.867821 
L 220.60773 40.867821 
L 220.60773 40.341135 
L 220.782368 40.341135 
L 220.782368 39.814448 
L 220.910789 39.814448 
L 220.962131 38.761076 
L 221.10048 38.761076 
L 221.10048 38.23439 
L 221.546573 38.23439 
L 221.546573 37.707704 
L 221.753167 37.707704 
L 221.753167 37.181018 
L 222.225265 37.181018 
L 222.225265 36.654332 
L 222.393018 36.654332 
L 222.481211 35.60096 
L 222.55482 35.60096 
L 222.55482 35.074274 
L 223.117496 35.074274 
L 223.173775 34.020902 
L 223.864127 34.020902 
L 223.864127 33.494215 
L 224.142533 33.494215 
L 224.142533 32.967529 
L 225.106421 32.967529 
L 225.106421 32.440843 
L 225.485359 32.440843 
L 225.485359 31.914157 
L 226.140721 31.914157 
L 226.140721 31.387471 
L 230.10146 31.387471 
L 230.10146 30.860785 
L 231.506075 30.860785 
L 231.506075 30.334099 
L 338.688 30.334099 
L 338.688 30.334099 
" style="fill:none;stroke:#0000ff;stroke-linecap:square;stroke-width:1.5;"/>
   </g>
   <g id="line2d_41">
    <defs>
     <path d="M 0 -6 
L -1.347084 -1.854102 
L -5.706339 -1.854102 
L -2.179628 0.708204 
L -3.526712 4.854102 
L -0 2.291796 
L 3.526712 4.854102 
L 2.179628 0.708204 
L 5.706339 -1.854102 
L 1.347084 -1.854102 
z
" id="mbd725e4b2f" style="stroke:#0000ff;stroke-linejoin:bevel;stroke-width:1.5;"/>
    </defs>
    <g>
     <use style="fill-opacity:0;stroke:#0000ff;stroke-linejoin:bevel;stroke-width:1.5;" x="133.57787" xlink:href="#mbd725e4b2f" y="254.702369"/>
     <use style="fill-opacity:0;stroke:#0000ff;stroke-linejoin:bevel;stroke-width:1.5;" x="194.651738" xlink:href="#mbd725e4b2f" y="135.671315"/>
     <use style="fill-opacity:0;stroke:#0000ff;stroke-linejoin:bevel;stroke-width:1.5;" x="216.501334" xlink:href="#mbd725e4b2f" y="49.821484"/>
     <use style="fill-opacity:0;stroke:#0000ff;stroke-linejoin:bevel;stroke-width:1.5;" x="231.506075" xlink:href="#mbd725e4b2f" y="30.334099"/>
     <use style="fill-opacity:0;stroke:#0000ff;stroke-linejoin:bevel;stroke-width:1.5;" x="231.506075" xlink:href="#mbd725e4b2f" y="30.334099"/>
     <use style="fill-opacity:0;stroke:#0000ff;stroke-linejoin:bevel;stroke-width:1.5;" x="338.688" xlink:href="#mbd725e4b2f" y="30.334099"/>
    </g>
   </g>
   <g id="line2d_42">
    <path style="fill:none;stroke:#0000ff;stroke-linecap:square;stroke-width:1.5;"/>
    <g/>
   </g>
   <g id="line2d_43">
    <path clip-path="url(#p79d589637d)" d="M 180.952739 188.339923 
" style="fill:none;stroke:#0000ff;stroke-linecap:square;stroke-width:1.5;"/>
    <defs>
     <path d="M -12 12 
L 12 -12 
M -12 -12 
L 12 12 
" id="me33d616465" style="stroke:#0000ff;"/>
    </defs>
    <g clip-path="url(#p79d589637d)">
     <use style="fill:#0000ff;stroke:#0000ff;" x="180.952739" xlink:href="#me33d616465" y="188.339923"/>
    </g>
   </g>
   <g id="line2d_44">
    <defs>
     <path d="M 0 1.5 
C 0.397805 1.5 0.77937 1.341951 1.06066 1.06066 
C 1.341951 0.77937 1.5 0.397805 1.5 0 
C 1.5 -0.397805 1.341951 -0.77937 1.06066 -1.06066 
C 0.77937 -1.341951 0.397805 -1.5 0 -1.5 
C -0.397805 -1.5 -0.77937 -1.341951 -1.06066 -1.06066 
C -1.341951 -0.77937 -1.5 -0.397805 -1.5 0 
C -1.5 0.397805 -1.341951 0.77937 -1.06066 1.06066 
C -0.77937 1.341951 -0.397805 1.5 0 1.5 
z
" id="m2a7497ce58" style="stroke:#000000;"/>
    </defs>
    <g>
     <use style="stroke:#000000;" x="242.203253" xlink:href="#m2a7497ce58" y="241.008531"/>
     <use style="stroke:#000000;" x="242.203253" xlink:href="#m2a7497ce58" y="241.008531"/>
    </g>
   </g>
   <g id="line2d_45">
    <path d="M 17.444571 298.944 
L 17.444571 293.677139 
L 41.620548 293.677139 
L 41.620548 293.150453 
L 62.175444 293.150453 
L 62.175444 292.623767 
L 89.972502 292.623767 
L 89.972502 292.097081 
L 93.422441 292.097081 
L 93.422441 291.570395 
L 98.771596 291.570395 
L 98.771596 291.043709 
L 98.935347 291.043709 
L 98.935347 290.517023 
L 100.040467 290.517023 
L 100.040467 289.990337 
L 101.923711 289.990337 
L 101.923711 289.463651 
L 107.414787 289.463651 
L 107.414787 288.936964 
L 107.90885 288.936964 
L 107.90885 288.410278 
L 108.102622 288.410278 
L 108.102622 287.883592 
L 108.483824 287.883592 
L 108.483824 287.356906 
L 109.401893 287.356906 
L 109.401893 286.83022 
L 112.72987 286.83022 
L 112.72987 286.303534 
L 113.022974 286.303534 
L 113.022974 285.776848 
L 117.930605 285.776848 
L 117.930605 285.250162 
L 119.65247 285.250162 
L 119.65247 284.723476 
L 120.524615 284.723476 
L 120.524615 284.19679 
L 122.018385 284.19679 
L 122.104932 283.143418 
L 123.111324 283.143418 
L 123.111324 282.616732 
L 123.233135 282.616732 
L 123.233135 282.090045 
L 125.219619 282.090045 
L 125.219619 281.563359 
L 126.740043 281.563359 
L 126.740043 281.036673 
L 127.325746 281.036673 
L 127.325746 280.509987 
L 128.138476 280.509987 
L 128.138476 279.983301 
L 128.260216 279.983301 
L 128.260216 279.456615 
L 129.347769 279.456615 
L 129.347769 278.929929 
L 130.558552 278.929929 
L 130.558552 278.403243 
L 131.590764 278.403243 
L 131.590764 277.876557 
L 131.715598 277.876557 
L 131.715598 277.349871 
L 132.254495 277.349871 
L 132.254495 276.823185 
L 132.398622 276.823185 
L 132.398622 276.296499 
L 132.870621 276.296499 
L 132.870621 275.769812 
L 132.986651 275.769812 
L 132.986651 275.243126 
L 133.533096 275.243126 
L 133.533096 274.71644 
L 134.321942 274.71644 
L 134.364738 273.663068 
L 135.582166 273.663068 
L 135.582166 273.136382 
L 135.956794 273.136382 
L 135.956794 272.609696 
L 136.112156 272.609696 
L 136.112156 272.08301 
L 137.647286 272.08301 
L 137.647286 271.029638 
L 138.136107 271.029638 
L 138.187677 269.449579 
L 138.443265 269.449579 
L 138.443265 268.922893 
L 139.730821 268.922893 
L 139.730821 268.396207 
L 139.918342 268.396207 
L 139.918342 267.869521 
L 140.088482 267.869521 
L 140.088482 267.342835 
L 141.492656 267.342835 
L 141.577657 266.289463 
L 141.816266 266.289463 
L 141.816266 265.762777 
L 142.857929 265.762777 
L 142.857929 265.236091 
L 143.451774 265.236091 
L 143.527762 264.182719 
L 143.86567 264.182719 
L 143.93988 263.129347 
L 144.087359 263.129347 
L 144.087359 262.60266 
L 144.294175 262.60266 
L 144.294175 262.075974 
L 144.414696 262.075974 
L 144.414696 261.549288 
L 144.570138 261.549288 
L 144.570138 261.022602 
L 145.976095 261.022602 
L 145.976095 260.495916 
L 146.580487 260.495916 
L 146.580487 259.96923 
L 147.266916 259.96923 
L 147.266916 259.442544 
L 148.1808 259.442544 
L 148.1808 258.389172 
L 149.113504 258.389172 
L 149.113504 257.862486 
L 150.163737 257.862486 
L 150.163737 257.3358 
L 150.369816 257.3358 
L 150.369816 256.809114 
L 151.413504 256.809114 
L 151.413504 256.282427 
L 152.481628 256.282427 
L 152.481628 255.755741 
L 183.865473 255.755741 
L 183.865473 255.229055 
L 184.100245 255.229055 
L 184.207261 253.648997 
L 184.232994 253.648997 
L 184.334333 252.595625 
L 184.727947 252.595625 
L 184.727947 252.068939 
L 185.139631 252.068939 
L 185.153575 251.015567 
L 185.269343 251.015567 
L 185.269343 250.488881 
L 195.365261 250.488881 
L 195.365261 249.962195 
L 195.64562 249.962195 
L 195.64562 249.435508 
L 201.918835 249.435508 
L 201.918835 248.908822 
L 202.086798 248.908822 
L 202.086798 248.382136 
L 206.501282 248.382136 
L 206.501282 247.85545 
L 206.731977 247.85545 
L 206.795558 246.802078 
L 207.195899 246.802078 
L 207.195899 246.275392 
L 210.341785 246.275392 
L 210.341785 245.748706 
L 213.618799 245.748706 
L 213.618799 245.22202 
L 221.954105 245.22202 
L 221.954105 244.695334 
L 223.966291 244.695334 
L 224.007766 243.641962 
L 226.823854 243.641962 
L 226.823854 243.115275 
L 228.015358 243.115275 
L 228.015358 242.588589 
L 229.351 242.588589 
L 229.351 242.061903 
L 232.052038 242.061903 
L 232.052038 241.535217 
L 242.203253 241.535217 
L 242.203253 241.008531 
L 338.688 241.008531 
L 338.688 241.008531 
" style="fill:none;stroke:#000000;stroke-linecap:square;stroke-width:1.5;"/>
   </g>
   <g id="line2d_46">
    <defs>
     <path d="M 0 6 
C 1.591219 6 3.117479 5.367802 4.242641 4.242641 
C 5.367802 3.117479 6 1.591219 6 0 
C 6 -1.591219 5.367802 -3.117479 4.242641 -4.242641 
C 3.117479 -5.367802 1.591219 -6 0 -6 
C -1.591219 -6 -3.117479 -5.367802 -4.242641 -4.242641 
C -5.367802 -3.117479 -6 -1.591219 -6 0 
C -6 1.591219 -5.367802 3.117479 -4.242641 4.242641 
C -3.117479 5.367802 -1.591219 6 0 6 
z
" id="m9dedab8fd2" style="stroke:#000000;stroke-width:1.5;"/>
    </defs>
    <g>
     <use style="fill-opacity:0;stroke:#000000;stroke-width:1.5;" x="62.175444" xlink:href="#m9dedab8fd2" y="292.623767"/>
     <use style="fill-opacity:0;stroke:#000000;stroke-width:1.5;" x="146.580487" xlink:href="#m9dedab8fd2" y="259.96923"/>
     <use style="fill-opacity:0;stroke:#000000;stroke-width:1.5;" x="195.64562" xlink:href="#m9dedab8fd2" y="249.962195"/>
     <use style="fill-opacity:0;stroke:#000000;stroke-width:1.5;" x="242.203253" xlink:href="#m9dedab8fd2" y="241.535217"/>
     <use style="fill-opacity:0;stroke:#000000;stroke-width:1.5;" x="242.203253" xlink:href="#m9dedab8fd2" y="241.008531"/>
     <use style="fill-opacity:0;stroke:#000000;stroke-width:1.5;" x="338.688" xlink:href="#m9dedab8fd2" y="241.008531"/>
    </g>
   </g>
   <g id="line2d_47">
    <path style="fill:none;stroke:#000000;stroke-linecap:square;stroke-width:1.5;"/>
    <g/>
   </g>
   <g id="line2d_48">
    <path clip-path="url(#p79d589637d)" d="M 181.817674 255.755741 
" style="fill:none;stroke:#000000;stroke-linecap:square;stroke-width:1.5;"/>
    <defs>
     <path d="M -12 12 
L 12 -12 
M -12 -12 
L 12 12 
" id="mb3665c36b1" style="stroke:#000000;"/>
    </defs>
    <g clip-path="url(#p79d589637d)">
     <use style="stroke:#000000;" x="181.817674" xlink:href="#mb3665c36b1" y="255.755741"/>
    </g>
   </g>
   <g id="line2d_49">
    <defs>
     <path d="M 0 1.5 
C 0.397805 1.5 0.77937 1.341951 1.06066 1.06066 
C 1.341951 0.77937 1.5 0.397805 1.5 0 
C 1.5 -0.397805 1.341951 -0.77937 1.06066 -1.06066 
C 0.77937 -1.341951 0.397805 -1.5 0 -1.5 
C -0.397805 -1.5 -0.77937 -1.341951 -1.06066 -1.06066 
C -1.341951 -0.77937 -1.5 -0.397805 -1.5 0 
C -1.5 0.397805 -1.341951 0.77937 -1.06066 1.06066 
C -0.77937 1.341951 -0.397805 1.5 0 1.5 
z
" id="m66a147f021" style="stroke:#ff0000;"/>
    </defs>
    <g>
     <use style="fill:#ff0000;stroke:#ff0000;" x="224.736779" xlink:href="#m66a147f021" y="241.008531"/>
     <use style="fill:#ff0000;stroke:#ff0000;" x="224.736779" xlink:href="#m66a147f021" y="241.008531"/>
    </g>
   </g>
   <g id="line2d_50">
    <path d="M 5.356583 298.944 
L 5.356583 293.677139 
L 98.935347 293.677139 
L 98.935347 293.150453 
L 109.799764 293.150453 
L 109.799764 292.623767 
L 114.882171 292.623767 
L 114.882171 292.097081 
L 118.708196 292.097081 
L 118.760566 291.043709 
L 120.069756 291.043709 
L 120.069756 290.517023 
L 121.512225 290.517023 
L 121.512225 289.990337 
L 122.040062 289.990337 
L 122.083336 288.936964 
L 122.31944 288.936964 
L 122.31944 288.410278 
L 123.45427 288.410278 
L 123.45427 287.883592 
L 124.387699 287.883592 
L 124.387699 287.356906 
L 124.946698 287.356906 
L 124.946698 286.83022 
L 125.682793 286.83022 
L 125.682793 286.303534 
L 126.52361 286.303534 
L 126.52361 285.776848 
L 127.084089 285.776848 
L 127.084089 285.250162 
L 127.245565 285.250162 
L 127.245565 284.723476 
L 127.721211 284.723476 
L 127.721211 284.19679 
L 128.184228 284.19679 
L 128.184228 283.670104 
L 129.418863 283.670104 
L 129.489668 282.616732 
L 129.78395 282.616732 
L 129.78395 282.090045 
L 130.664567 282.090045 
L 130.664567 281.036673 
L 130.991767 281.036673 
L 130.991767 280.509987 
L 131.389151 280.509987 
L 131.414481 279.456615 
L 132.169868 279.456615 
L 132.169868 278.929929 
L 132.362702 278.929929 
L 132.362702 278.403243 
L 132.80063 278.403243 
L 132.80063 277.876557 
L 133.170708 277.876557 
L 133.170708 277.349871 
L 133.476967 277.349871 
L 133.476967 276.823185 
L 133.83311 276.823185 
L 133.83311 276.296499 
L 134.12805 276.296499 
L 134.12805 275.769812 
L 134.503103 275.769812 
L 134.534878 274.71644 
L 134.797444 274.71644 
L 134.818279 273.136382 
L 136.112156 273.136382 
L 136.112156 272.609696 
L 136.475687 272.609696 
L 136.475687 272.08301 
L 137.071324 272.08301 
L 137.071324 271.556324 
L 137.814676 271.556324 
L 137.814676 271.029638 
L 138.041164 271.029638 
L 138.041164 270.502952 
L 138.636709 270.502952 
L 138.636709 269.976266 
L 139.02546 269.976266 
L 139.02546 269.449579 
L 139.445704 269.449579 
L 139.445704 268.922893 
L 139.620495 268.922893 
L 139.620495 268.396207 
L 139.957156 268.396207 
L 139.957156 267.869521 
L 140.234098 267.869521 
L 140.234098 267.342835 
L 141.982752 267.342835 
L 142.092866 266.289463 
L 142.209106 266.289463 
L 142.209106 265.762777 
L 142.432559 265.762777 
L 142.432559 265.236091 
L 142.653186 265.236091 
L 142.666468 264.182719 
L 143.896629 264.182719 
L 143.896629 263.656033 
L 144.019919 263.656033 
L 144.019919 263.129347 
L 144.504543 263.129347 
L 144.552273 262.075974 
L 145.010918 262.075974 
L 145.010918 261.549288 
L 145.126602 261.549288 
L 145.149647 260.495916 
L 145.270136 260.495916 
L 145.270136 259.96923 
L 146.13461 259.96923 
L 146.140051 258.915858 
L 147.439433 258.915858 
L 147.439433 258.389172 
L 147.605259 258.389172 
L 147.605259 257.862486 
L 147.71991 257.862486 
L 147.71991 257.3358 
L 148.94759 257.3358 
L 148.94759 256.809114 
L 179.225819 256.809114 
L 179.225819 256.282427 
L 179.376106 256.282427 
L 179.376106 255.755741 
L 179.952894 255.755741 
L 179.952894 255.229055 
L 180.150539 255.229055 
L 180.150539 254.702369 
L 180.381129 254.702369 
L 180.381129 254.175683 
L 180.534693 254.175683 
L 180.534693 253.648997 
L 180.724392 253.648997 
L 180.740855 252.595625 
L 181.274158 252.595625 
L 181.274158 252.068939 
L 181.623214 252.068939 
L 181.623214 251.542253 
L 181.891353 251.542253 
L 181.922835 250.488881 
L 182.022503 250.488881 
L 182.022503 249.962195 
L 191.430899 249.962195 
L 191.476223 248.908822 
L 191.710667 248.908822 
L 191.744528 247.85545 
L 191.971488 247.85545 
L 191.971488 247.328764 
L 192.088553 247.328764 
L 192.088553 246.802078 
L 203.214572 246.802078 
L 203.236412 245.748706 
L 203.48705 245.748706 
L 203.48705 245.22202 
L 203.990988 245.22202 
L 203.990988 244.695334 
L 206.570811 244.695334 
L 206.570811 244.168648 
L 210.358218 244.168648 
L 210.358218 243.641962 
L 215.245254 243.641962 
L 215.245254 243.115275 
L 217.206263 243.115275 
L 217.206263 242.588589 
L 222.077775 242.588589 
L 222.077775 242.061903 
L 223.541531 242.061903 
L 223.541531 241.535217 
L 224.736779 241.535217 
L 224.736779 241.008531 
L 338.688 241.008531 
L 338.688 241.008531 
" style="fill:none;stroke:#ff0000;stroke-linecap:square;stroke-width:1.5;"/>
   </g>
   <g id="line2d_51">
    <defs>
     <path d="M -6 6 
L 6 6 
L 6 -6 
L -6 -6 
z
" id="mbea004b431" style="stroke:#ff0000;stroke-linejoin:miter;stroke-width:1.5;"/>
    </defs>
    <g>
     <use style="fill-opacity:0;stroke:#ff0000;stroke-linejoin:miter;stroke-width:1.5;" x="148.94759" xlink:href="#mbea004b431" y="256.809114"/>
     <use style="fill-opacity:0;stroke:#ff0000;stroke-linejoin:miter;stroke-width:1.5;" x="224.736779" xlink:href="#mbea004b431" y="241.535217"/>
     <use style="fill-opacity:0;stroke:#ff0000;stroke-linejoin:miter;stroke-width:1.5;" x="224.736779" xlink:href="#mbea004b431" y="241.008531"/>
     <use style="fill-opacity:0;stroke:#ff0000;stroke-linejoin:miter;stroke-width:1.5;" x="224.736779" xlink:href="#mbea004b431" y="241.008531"/>
     <use style="fill-opacity:0;stroke:#ff0000;stroke-linejoin:miter;stroke-width:1.5;" x="338.688" xlink:href="#mbea004b431" y="241.008531"/>
    </g>
   </g>
   <g id="line2d_52">
    <path style="fill:none;stroke:#ff0000;stroke-linecap:square;stroke-width:1.5;"/>
    <g/>
   </g>
   <g id="line2d_53">
    <path clip-path="url(#p79d589637d)" d="M 178.066286 256.809114 
" style="fill:none;stroke:#ff0000;stroke-linecap:square;stroke-width:1.5;"/>
    <defs>
     <path d="M -12 12 
L 12 -12 
M -12 -12 
L 12 12 
" id="me9d7eb075f" style="stroke:#ff0000;"/>
    </defs>
    <g clip-path="url(#p79d589637d)">
     <use style="fill:#ff0000;stroke:#ff0000;" x="178.066286" xlink:href="#me9d7eb075f" y="256.809114"/>
    </g>
   </g>
   <g id="line2d_54">
    <path d="M 338.688 241.008531 
L 369.60768 293.571802 
" style="fill:none;stroke:#000000;stroke-linecap:square;stroke-width:1.5;"/>
    <g>
     <use style="fill-opacity:0;stroke:#000000;stroke-width:1.5;" x="338.688" xlink:href="#m9dedab8fd2" y="241.008531"/>
     <use style="fill-opacity:0;stroke:#000000;stroke-width:1.5;" x="369.60768" xlink:href="#m9dedab8fd2" y="293.571802"/>
    </g>
   </g>
   <g id="line2d_55">
    <path d="M 338.688 241.008531 
L 369.60768 229.105426 
" style="fill:none;stroke:#ff0000;stroke-linecap:square;stroke-width:1.5;"/>
    <g>
     <use style="fill-opacity:0;stroke:#ff0000;stroke-linejoin:miter;stroke-width:1.5;" x="338.688" xlink:href="#mbea004b431" y="241.008531"/>
     <use style="fill-opacity:0;stroke:#ff0000;stroke-linejoin:miter;stroke-width:1.5;" x="369.60768" xlink:href="#mbea004b431" y="229.105426"/>
    </g>
   </g>
   <g id="line2d_56">
    <path d="M 338.688 30.334099 
L 369.60768 164.63905 
" style="fill:none;stroke:#008000;stroke-linecap:square;stroke-width:1.5;"/>
    <g>
     <use style="fill-opacity:0;stroke:#008000;stroke-linejoin:miter;stroke-width:1.5;" x="338.688" xlink:href="#m7f1fe62add" y="30.334099"/>
     <use style="fill-opacity:0;stroke:#008000;stroke-linejoin:miter;stroke-width:1.5;" x="369.60768" xlink:href="#m7f1fe62add" y="164.63905"/>
    </g>
   </g>
   <g id="line2d_57">
    <path d="M 338.688 30.334099 
L 369.60768 100.172673 
" style="fill:none;stroke:#0000ff;stroke-linecap:square;stroke-width:1.5;"/>
    <g>
     <use style="fill-opacity:0;stroke:#0000ff;stroke-linejoin:bevel;stroke-width:1.5;" x="338.688" xlink:href="#mbd725e4b2f" y="30.334099"/>
     <use style="fill-opacity:0;stroke:#0000ff;stroke-linejoin:bevel;stroke-width:1.5;" x="369.60768" xlink:href="#mbd725e4b2f" y="100.172673"/>
    </g>
   </g>
   <g id="line2d_58">
    <path d="M 338.688 30.334099 
L 369.60768 35.706297 
" style="fill:none;stroke:#00bfbf;stroke-linecap:square;stroke-width:1.5;"/>
    <g>
     <use style="fill-opacity:0;stroke:#00bfbf;stroke-width:1.5;" x="338.688" xlink:href="#m038ae1a117" y="30.334099"/>
     <use style="fill-opacity:0;stroke:#00bfbf;stroke-width:1.5;" x="369.60768" xlink:href="#m038ae1a117" y="35.706297"/>
    </g>
   </g>
   <g id="line2d_59">
    <path d="M 338.688 298.944 
L 338.688 30.334099 
" style="fill:none;stroke:#000000;stroke-linecap:square;stroke-width:1.5;"/>
   </g>
   <g id="patch_3">
    <path d="M 57.6 298.944 
L 57.6 27.648 
" style="fill:none;stroke:#000000;stroke-linecap:square;stroke-linejoin:miter;stroke-width:0.8;"/>
   </g>
   <g id="patch_4">
    <path d="M 338.688 298.944 
L 338.688 27.648 
" style="fill:none;stroke:#000000;stroke-linecap:square;stroke-linejoin:miter;stroke-width:0.8;"/>
   </g>
   <g id="patch_5">
    <path d="M 57.6 298.944 
L 338.688 298.944 
" style="fill:none;stroke:#000000;stroke-linecap:square;stroke-linejoin:miter;stroke-width:0.8;"/>
   </g>
   <g id="patch_6">
    <path d="M 57.6 27.648 
L 338.688 27.648 
" style="fill:none;stroke:#000000;stroke-linecap:square;stroke-linejoin:miter;stroke-width:0.8;"/>
   </g>
   <g id="text_13">
    <!-- 10-D -->
    <g transform="translate(375.22944 298.262739)scale(0.17 -0.17)">
     <defs>
      <path d="M 1259 4147 
L 1259 519 
L 2022 519 
Q 2988 519 3436 956 
Q 3884 1394 3884 2338 
Q 3884 3275 3436 3711 
Q 2988 4147 2022 4147 
L 1259 4147 
z
M 628 4666 
L 1925 4666 
Q 3281 4666 3915 4102 
Q 4550 3538 4550 2338 
Q 4550 1131 3912 565 
Q 3275 0 1925 0 
L 628 0 
L 628 4666 
z
" id="DejaVuSans-44" transform="scale(0.015625)"/>
     </defs>
     <use xlink:href="#DejaVuSans-31"/>
     <use x="63.623047" xlink:href="#DejaVuSans-30"/>
     <use x="127.246094" xlink:href="#DejaVuSans-2d"/>
     <use x="163.330078" xlink:href="#DejaVuSans-44"/>
    </g>
   </g>
   <g id="text_14">
    <!-- 20-D -->
    <g transform="translate(375.22944 233.796363)scale(0.17 -0.17)">
     <use xlink:href="#DejaVuSans-32"/>
     <use x="63.623047" xlink:href="#DejaVuSans-30"/>
     <use x="127.246094" xlink:href="#DejaVuSans-2d"/>
     <use x="163.330078" xlink:href="#DejaVuSans-44"/>
    </g>
   </g>
   <g id="text_15">
    <!-- 3-D -->
    <g transform="translate(375.22944 169.329987)scale(0.17 -0.17)">
     <defs>
      <path d="M 2597 2516 
Q 3050 2419 3304 2112 
Q 3559 1806 3559 1356 
Q 3559 666 3084 287 
Q 2609 -91 1734 -91 
Q 1441 -91 1130 -33 
Q 819 25 488 141 
L 488 750 
Q 750 597 1062 519 
Q 1375 441 1716 441 
Q 2309 441 2620 675 
Q 2931 909 2931 1356 
Q 2931 1769 2642 2001 
Q 2353 2234 1838 2234 
L 1294 2234 
L 1294 2753 
L 1863 2753 
Q 2328 2753 2575 2939 
Q 2822 3125 2822 3475 
Q 2822 3834 2567 4026 
Q 2313 4219 1838 4219 
Q 1578 4219 1281 4162 
Q 984 4106 628 3988 
L 628 4550 
Q 988 4650 1302 4700 
Q 1616 4750 1894 4750 
Q 2613 4750 3031 4423 
Q 3450 4097 3450 3541 
Q 3450 3153 3228 2886 
Q 3006 2619 2597 2516 
z
" id="DejaVuSans-33" transform="scale(0.015625)"/>
     </defs>
     <use xlink:href="#DejaVuSans-33"/>
     <use x="63.623047" xlink:href="#DejaVuSans-2d"/>
     <use x="99.707031" xlink:href="#DejaVuSans-44"/>
    </g>
   </g>
   <g id="text_16">
    <!-- 5-D -->
    <g transform="translate(375.22944 104.863611)scale(0.17 -0.17)">
     <defs>
      <path d="M 691 4666 
L 3169 4666 
L 3169 4134 
L 1269 4134 
L 1269 2991 
Q 1406 3038 1543 3061 
Q 1681 3084 1819 3084 
Q 2600 3084 3056 2656 
Q 3513 2228 3513 1497 
Q 3513 744 3044 326 
Q 2575 -91 1722 -91 
Q 1428 -91 1123 -41 
Q 819 9 494 109 
L 494 744 
Q 775 591 1075 516 
Q 1375 441 1709 441 
Q 2250 441 2565 725 
Q 2881 1009 2881 1497 
Q 2881 1984 2565 2268 
Q 2250 2553 1709 2553 
Q 1456 2553 1204 2497 
Q 953 2441 691 2322 
L 691 4666 
z
" id="DejaVuSans-35" transform="scale(0.015625)"/>
     </defs>
     <use xlink:href="#DejaVuSans-35"/>
     <use x="63.623047" xlink:href="#DejaVuSans-2d"/>
     <use x="99.707031" xlink:href="#DejaVuSans-44"/>
    </g>
   </g>
   <g id="text_17">
    <!-- 2-D -->
    <g transform="translate(375.22944 40.397235)scale(0.17 -0.17)">
     <use xlink:href="#DejaVuSans-32"/>
     <use x="63.623047" xlink:href="#DejaVuSans-2d"/>
     <use x="99.707031" xlink:href="#DejaVuSans-44"/>
    </g>
   </g>
   <g id="text_18">
    <!-- bbob f22 -->
    <g transform="translate(60.41088 38.111366)scale(0.102 -0.102)">
     <defs>
      <path d="M 3116 1747 
Q 3116 2381 2855 2742 
Q 2594 3103 2138 3103 
Q 1681 3103 1420 2742 
Q 1159 2381 1159 1747 
Q 1159 1113 1420 752 
Q 1681 391 2138 391 
Q 2594 391 2855 752 
Q 3116 1113 3116 1747 
z
M 1159 2969 
Q 1341 3281 1617 3432 
Q 1894 3584 2278 3584 
Q 2916 3584 3314 3078 
Q 3713 2572 3713 1747 
Q 3713 922 3314 415 
Q 2916 -91 2278 -91 
Q 1894 -91 1617 61 
Q 1341 213 1159 525 
L 1159 0 
L 581 0 
L 581 4863 
L 1159 4863 
L 1159 2969 
z
" id="DejaVuSans-62" transform="scale(0.015625)"/>
     </defs>
     <use xlink:href="#DejaVuSans-62"/>
     <use x="63.476562" xlink:href="#DejaVuSans-62"/>
     <use x="126.953125" xlink:href="#DejaVuSans-6f"/>
     <use x="188.134766" xlink:href="#DejaVuSans-62"/>
     <use x="251.611328" xlink:href="#DejaVuSans-20"/>
     <use x="283.398438" xlink:href="#DejaVuSans-66"/>
     <use x="318.603516" xlink:href="#DejaVuSans-32"/>
     <use x="382.226562" xlink:href="#DejaVuSans-32"/>
    </g>
    <!-- 51 targets: 100..1e-08 -->
    <g transform="translate(60.41088 49.533135)scale(0.102 -0.102)">
     <defs>
      <path d="M 750 794 
L 1409 794 
L 1409 0 
L 750 0 
L 750 794 
z
M 750 3309 
L 1409 3309 
L 1409 2516 
L 750 2516 
L 750 3309 
z
" id="DejaVuSans-3a" transform="scale(0.015625)"/>
     </defs>
     <use xlink:href="#DejaVuSans-35"/>
     <use x="63.623047" xlink:href="#DejaVuSans-31"/>
     <use x="127.246094" xlink:href="#DejaVuSans-20"/>
     <use x="159.033203" xlink:href="#DejaVuSans-74"/>
     <use x="198.242188" xlink:href="#DejaVuSans-61"/>
     <use x="259.521484" xlink:href="#DejaVuSans-72"/>
     <use x="298.884766" xlink:href="#DejaVuSans-67"/>
     <use x="362.361328" xlink:href="#DejaVuSans-65"/>
     <use x="423.884766" xlink:href="#DejaVuSans-74"/>
     <use x="463.09375" xlink:href="#DejaVuSans-73"/>
     <use x="515.193359" xlink:href="#DejaVuSans-3a"/>
     <use x="548.884766" xlink:href="#DejaVuSans-20"/>
     <use x="580.671875" xlink:href="#DejaVuSans-31"/>
     <use x="644.294922" xlink:href="#DejaVuSans-30"/>
     <use x="707.917969" xlink:href="#DejaVuSans-30"/>
     <use x="771.541016" xlink:href="#DejaVuSans-2e"/>
     <use x="803.328125" xlink:href="#DejaVuSans-2e"/>
     <use x="835.115234" xlink:href="#DejaVuSans-31"/>
     <use x="898.738281" xlink:href="#DejaVuSans-65"/>
     <use x="960.261719" xlink:href="#DejaVuSans-2d"/>
     <use x="996.345703" xlink:href="#DejaVuSans-30"/>
     <use x="1059.96875" xlink:href="#DejaVuSans-38"/>
    </g>
    <!-- 15 instances -->
    <g transform="translate(60.41088 60.954904)scale(0.102 -0.102)">
     <use xlink:href="#DejaVuSans-31"/>
     <use x="63.623047" xlink:href="#DejaVuSans-35"/>
     <use x="127.246094" xlink:href="#DejaVuSans-20"/>
     <use x="159.033203" xlink:href="#DejaVuSans-69"/>
     <use x="186.816406" xlink:href="#DejaVuSans-6e"/>
     <use x="250.195312" xlink:href="#DejaVuSans-73"/>
     <use x="302.294922" xlink:href="#DejaVuSans-74"/>
     <use x="341.503906" xlink:href="#DejaVuSans-61"/>
     <use x="402.783203" xlink:href="#DejaVuSans-6e"/>
     <use x="466.162109" xlink:href="#DejaVuSans-63"/>
     <use x="521.142578" xlink:href="#DejaVuSans-65"/>
     <use x="582.666016" xlink:href="#DejaVuSans-73"/>
    </g>
   </g>
   <g id="text_19">
    <!-- v2.4 -->
    <g style="fill:#808080;" transform="translate(187.233062 294.151352)scale(0.1 -0.1)">
     <use xlink:href="#DejaVuSans-76"/>
     <use x="59.179688" xlink:href="#DejaVuSans-32"/>
     <use x="122.802734" xlink:href="#DejaVuSans-2e"/>
     <use x="154.589844" xlink:href="#DejaVuSans-34"/>
    </g>
   </g>
   <g id="text_20">
    <!-- 22 Gallagher 21 peaks -->
    <g transform="translate(85.019 21.648)scale(0.2 -0.2)">
     <defs>
      <path d="M 3809 666 
L 3809 1919 
L 2778 1919 
L 2778 2438 
L 4434 2438 
L 4434 434 
Q 4069 175 3628 42 
Q 3188 -91 2688 -91 
Q 1594 -91 976 548 
Q 359 1188 359 2328 
Q 359 3472 976 4111 
Q 1594 4750 2688 4750 
Q 3144 4750 3555 4637 
Q 3966 4525 4313 4306 
L 4313 3634 
Q 3963 3931 3569 4081 
Q 3175 4231 2741 4231 
Q 1884 4231 1454 3753 
Q 1025 3275 1025 2328 
Q 1025 1384 1454 906 
Q 1884 428 2741 428 
Q 3075 428 3337 486 
Q 3600 544 3809 666 
z
" id="DejaVuSans-47" transform="scale(0.015625)"/>
      <path d="M 3513 2113 
L 3513 0 
L 2938 0 
L 2938 2094 
Q 2938 2591 2744 2837 
Q 2550 3084 2163 3084 
Q 1697 3084 1428 2787 
Q 1159 2491 1159 1978 
L 1159 0 
L 581 0 
L 581 4863 
L 1159 4863 
L 1159 2956 
Q 1366 3272 1645 3428 
Q 1925 3584 2291 3584 
Q 2894 3584 3203 3211 
Q 3513 2838 3513 2113 
z
" id="DejaVuSans-68" transform="scale(0.015625)"/>
      <path d="M 581 4863 
L 1159 4863 
L 1159 1991 
L 2875 3500 
L 3609 3500 
L 1753 1863 
L 3688 0 
L 2938 0 
L 1159 1709 
L 1159 0 
L 581 0 
L 581 4863 
z
" id="DejaVuSans-6b" transform="scale(0.015625)"/>
     </defs>
     <use xlink:href="#DejaVuSans-32"/>
     <use x="63.623047" xlink:href="#DejaVuSans-32"/>
     <use x="127.246094" xlink:href="#DejaVuSans-20"/>
     <use x="159.033203" xlink:href="#DejaVuSans-47"/>
     <use x="236.523438" xlink:href="#DejaVuSans-61"/>
     <use x="297.802734" xlink:href="#DejaVuSans-6c"/>
     <use x="325.585938" xlink:href="#DejaVuSans-6c"/>
     <use x="353.369141" xlink:href="#DejaVuSans-61"/>
     <use x="414.648438" xlink:href="#DejaVuSans-67"/>
     <use x="478.125" xlink:href="#DejaVuSans-68"/>
     <use x="541.503906" xlink:href="#DejaVuSans-65"/>
     <use x="603.027344" xlink:href="#DejaVuSans-72"/>
     <use x="644.140625" xlink:href="#DejaVuSans-20"/>
     <use x="675.927734" xlink:href="#DejaVuSans-32"/>
     <use x="739.550781" xlink:href="#DejaVuSans-31"/>
     <use x="803.173828" xlink:href="#DejaVuSans-20"/>
     <use x="834.960938" xlink:href="#DejaVuSans-70"/>
     <use x="898.4375" xlink:href="#DejaVuSans-65"/>
     <use x="959.960938" xlink:href="#DejaVuSans-61"/>
     <use x="1021.240234" xlink:href="#DejaVuSans-6b"/>
     <use x="1079.150391" xlink:href="#DejaVuSans-73"/>
    </g>
   </g>
  </g>
 </g>
 <defs>
  <clipPath id="p79d589637d">
   <rect height="271.296" width="281.088" x="57.6" y="27.648"/>
  </clipPath>
 </defs>
</svg>
