<?xml version="1.0" encoding="utf-8" standalone="no"?>
<!DOCTYPE svg PUBLIC "-//W3C//DTD SVG 1.1//EN"
  "http://www.w3.org/Graphics/SVG/1.1/DTD/svg11.dtd">
<svg height="345.6pt" version="1.1" viewBox="0 0 460.8 345.6" width="460.8pt" xmlns="http://www.w3.org/2000/svg" xmlns:xlink="http://www.w3.org/1999/xlink">
 <metadata>
  <rdf:RDF xmlns:cc="http://creativecommons.org/ns#" xmlns:dc="http://purl.org/dc/elements/1.1/" xmlns:rdf="http://www.w3.org/1999/02/22-rdf-syntax-ns#">
   <cc:Work>
    <dc:type rdf:resource="http://purl.org/dc/dcmitype/StillImage"/>
    <dc:date>2021-07-27T16:03:53.249780</dc:date>
    <dc:format>image/svg+xml</dc:format>
    <dc:creator>
     <cc:Agent>
      <dc:title>Matplotlib v3.4.2, https://matplotlib.org/</dc:title>
     </cc:Agent>
    </dc:creator>
   </cc:Work>
  </rdf:RDF>
 </metadata>
 <defs>
  <style type="text/css">*{stroke-linecap:butt;stroke-linejoin:round;}</style>
 </defs>
 <g id="figure_1">
  <g id="patch_1">
   <path d="M 0 345.6 
L 460.8 345.6 
L 460.8 0 
L 0 0 
z
" style="fill:#ffffff;"/>
  </g>
  <g id="axes_1">
   <g id="patch_2">
    <path d="M 57.6 298.944 
L 338.688 298.944 
L 338.688 3.456 
L 57.6 3.456 
z
" style="fill:#ffffff;"/>
   </g>
   <g id="matplotlib.axis_1">
    <g id="xtick_1">
     <g id="line2d_1">
      <path clip-path="url(#p07c477b493)" d="M 57.6 298.944 
L 57.6 3.456 
" style="fill:none;stroke:#b0b0b0;stroke-linecap:square;stroke-width:0.8;"/>
     </g>
     <g id="line2d_2">
      <defs>
       <path d="M 0 0 
L 0 3.5 
" id="m3e6f91f28f" style="stroke:#000000;stroke-width:0.8;"/>
      </defs>
      <g>
       <use style="stroke:#000000;stroke-width:0.8;" x="57.6" xlink:href="#m3e6f91f28f" y="298.944"/>
      </g>
     </g>
     <g id="text_1">
      <!-- 0 -->
      <g transform="translate(51.2375 321.140875)scale(0.2 -0.2)">
       <defs>
        <path d="M 2034 4250 
Q 1547 4250 1301 3770 
Q 1056 3291 1056 2328 
Q 1056 1369 1301 889 
Q 1547 409 2034 409 
Q 2525 409 2770 889 
Q 3016 1369 3016 2328 
Q 3016 3291 2770 3770 
Q 2525 4250 2034 4250 
z
M 2034 4750 
Q 2819 4750 3233 4129 
Q 3647 3509 3647 2328 
Q 3647 1150 3233 529 
Q 2819 -91 2034 -91 
Q 1250 -91 836 529 
Q 422 1150 422 2328 
Q 422 3509 836 4129 
Q 1250 4750 2034 4750 
z
" id="DejaVuSans-30" transform="scale(0.015625)"/>
       </defs>
       <use xlink:href="#DejaVuSans-30"/>
      </g>
     </g>
    </g>
    <g id="xtick_2">
     <g id="line2d_3">
      <path clip-path="url(#p07c477b493)" d="M 137.910857 298.944 
L 137.910857 3.456 
" style="fill:none;stroke:#b0b0b0;stroke-linecap:square;stroke-width:0.8;"/>
     </g>
     <g id="line2d_4">
      <g>
       <use style="stroke:#000000;stroke-width:0.8;" x="137.910857" xlink:href="#m3e6f91f28f" y="298.944"/>
      </g>
     </g>
     <g id="text_2">
      <!-- 2 -->
      <g transform="translate(131.548357 321.140875)scale(0.2 -0.2)">
       <defs>
        <path d="M 1228 531 
L 3431 531 
L 3431 0 
L 469 0 
L 469 531 
Q 828 903 1448 1529 
Q 2069 2156 2228 2338 
Q 2531 2678 2651 2914 
Q 2772 3150 2772 3378 
Q 2772 3750 2511 3984 
Q 2250 4219 1831 4219 
Q 1534 4219 1204 4116 
Q 875 4013 500 3803 
L 500 4441 
Q 881 4594 1212 4672 
Q 1544 4750 1819 4750 
Q 2544 4750 2975 4387 
Q 3406 4025 3406 3419 
Q 3406 3131 3298 2873 
Q 3191 2616 2906 2266 
Q 2828 2175 2409 1742 
Q 1991 1309 1228 531 
z
" id="DejaVuSans-32" transform="scale(0.015625)"/>
       </defs>
       <use xlink:href="#DejaVuSans-32"/>
      </g>
     </g>
    </g>
    <g id="xtick_3">
     <g id="line2d_5">
      <path clip-path="url(#p07c477b493)" d="M 218.221714 298.944 
L 218.221714 3.456 
" style="fill:none;stroke:#b0b0b0;stroke-linecap:square;stroke-width:0.8;"/>
     </g>
     <g id="line2d_6">
      <g>
       <use style="stroke:#000000;stroke-width:0.8;" x="218.221714" xlink:href="#m3e6f91f28f" y="298.944"/>
      </g>
     </g>
     <g id="text_3">
      <!-- 4 -->
      <g transform="translate(211.859214 321.140875)scale(0.2 -0.2)">
       <defs>
        <path d="M 2419 4116 
L 825 1625 
L 2419 1625 
L 2419 4116 
z
M 2253 4666 
L 3047 4666 
L 3047 1625 
L 3713 1625 
L 3713 1100 
L 3047 1100 
L 3047 0 
L 2419 0 
L 2419 1100 
L 313 1100 
L 313 1709 
L 2253 4666 
z
" id="DejaVuSans-34" transform="scale(0.015625)"/>
       </defs>
       <use xlink:href="#DejaVuSans-34"/>
      </g>
     </g>
    </g>
    <g id="xtick_4">
     <g id="line2d_7">
      <path clip-path="url(#p07c477b493)" d="M 298.532571 298.944 
L 298.532571 3.456 
" style="fill:none;stroke:#b0b0b0;stroke-linecap:square;stroke-width:0.8;"/>
     </g>
     <g id="line2d_8">
      <g>
       <use style="stroke:#000000;stroke-width:0.8;" x="298.532571" xlink:href="#m3e6f91f28f" y="298.944"/>
      </g>
     </g>
     <g id="text_4">
      <!-- 6 -->
      <g transform="translate(292.170071 321.140875)scale(0.2 -0.2)">
       <defs>
        <path d="M 2113 2584 
Q 1688 2584 1439 2293 
Q 1191 2003 1191 1497 
Q 1191 994 1439 701 
Q 1688 409 2113 409 
Q 2538 409 2786 701 
Q 3034 994 3034 1497 
Q 3034 2003 2786 2293 
Q 2538 2584 2113 2584 
z
M 3366 4563 
L 3366 3988 
Q 3128 4100 2886 4159 
Q 2644 4219 2406 4219 
Q 1781 4219 1451 3797 
Q 1122 3375 1075 2522 
Q 1259 2794 1537 2939 
Q 1816 3084 2150 3084 
Q 2853 3084 3261 2657 
Q 3669 2231 3669 1497 
Q 3669 778 3244 343 
Q 2819 -91 2113 -91 
Q 1303 -91 875 529 
Q 447 1150 447 2328 
Q 447 3434 972 4092 
Q 1497 4750 2381 4750 
Q 2619 4750 2861 4703 
Q 3103 4656 3366 4563 
z
" id="DejaVuSans-36" transform="scale(0.015625)"/>
       </defs>
       <use xlink:href="#DejaVuSans-36"/>
      </g>
     </g>
    </g>
    <g id="xtick_5">
     <g id="line2d_9">
      <path clip-path="url(#p07c477b493)" d="M 97.755429 298.944 
L 97.755429 3.456 
" style="fill:none;stroke:#b0b0b0;stroke-linecap:square;stroke-width:0.8;"/>
     </g>
     <g id="line2d_10">
      <defs>
       <path d="M 0 0 
L 0 2 
" id="mfe9a3ac328" style="stroke:#000000;stroke-width:0.6;"/>
      </defs>
      <g>
       <use style="stroke:#000000;stroke-width:0.6;" x="97.755429" xlink:href="#mfe9a3ac328" y="298.944"/>
      </g>
     </g>
    </g>
    <g id="xtick_6">
     <g id="line2d_11">
      <path clip-path="url(#p07c477b493)" d="M 178.066286 298.944 
L 178.066286 3.456 
" style="fill:none;stroke:#b0b0b0;stroke-linecap:square;stroke-width:0.8;"/>
     </g>
     <g id="line2d_12">
      <g>
       <use style="stroke:#000000;stroke-width:0.6;" x="178.066286" xlink:href="#mfe9a3ac328" y="298.944"/>
      </g>
     </g>
    </g>
    <g id="xtick_7">
     <g id="line2d_13">
      <path clip-path="url(#p07c477b493)" d="M 258.377143 298.944 
L 258.377143 3.456 
" style="fill:none;stroke:#b0b0b0;stroke-linecap:square;stroke-width:0.8;"/>
     </g>
     <g id="line2d_14">
      <g>
       <use style="stroke:#000000;stroke-width:0.6;" x="258.377143" xlink:href="#mfe9a3ac328" y="298.944"/>
      </g>
     </g>
    </g>
    <g id="xtick_8">
     <g id="line2d_15">
      <path clip-path="url(#p07c477b493)" d="M 338.688 298.944 
L 338.688 3.456 
" style="fill:none;stroke:#b0b0b0;stroke-linecap:square;stroke-width:0.8;"/>
     </g>
     <g id="line2d_16">
      <g>
       <use style="stroke:#000000;stroke-width:0.6;" x="338.688" xlink:href="#mfe9a3ac328" y="298.944"/>
      </g>
     </g>
    </g>
    <g id="text_5">
     <!-- log10(# f-evals / dimension) -->
     <g transform="translate(77.764078 342.217594)scale(0.17 -0.17)">
      <defs>
       <path d="M 603 4863 
L 1178 4863 
L 1178 0 
L 603 0 
L 603 4863 
z
" id="DejaVuSans-6c" transform="scale(0.015625)"/>
       <path d="M 1959 3097 
Q 1497 3097 1228 2736 
Q 959 2375 959 1747 
Q 959 1119 1226 758 
Q 1494 397 1959 397 
Q 2419 397 2687 759 
Q 2956 1122 2956 1747 
Q 2956 2369 2687 2733 
Q 2419 3097 1959 3097 
z
M 1959 3584 
Q 2709 3584 3137 3096 
Q 3566 2609 3566 1747 
Q 3566 888 3137 398 
Q 2709 -91 1959 -91 
Q 1206 -91 779 398 
Q 353 888 353 1747 
Q 353 2609 779 3096 
Q 1206 3584 1959 3584 
z
" id="DejaVuSans-6f" transform="scale(0.015625)"/>
       <path d="M 2906 1791 
Q 2906 2416 2648 2759 
Q 2391 3103 1925 3103 
Q 1463 3103 1205 2759 
Q 947 2416 947 1791 
Q 947 1169 1205 825 
Q 1463 481 1925 481 
Q 2391 481 2648 825 
Q 2906 1169 2906 1791 
z
M 3481 434 
Q 3481 -459 3084 -895 
Q 2688 -1331 1869 -1331 
Q 1566 -1331 1297 -1286 
Q 1028 -1241 775 -1147 
L 775 -588 
Q 1028 -725 1275 -790 
Q 1522 -856 1778 -856 
Q 2344 -856 2625 -561 
Q 2906 -266 2906 331 
L 2906 616 
Q 2728 306 2450 153 
Q 2172 0 1784 0 
Q 1141 0 747 490 
Q 353 981 353 1791 
Q 353 2603 747 3093 
Q 1141 3584 1784 3584 
Q 2172 3584 2450 3431 
Q 2728 3278 2906 2969 
L 2906 3500 
L 3481 3500 
L 3481 434 
z
" id="DejaVuSans-67" transform="scale(0.015625)"/>
       <path d="M 794 531 
L 1825 531 
L 1825 4091 
L 703 3866 
L 703 4441 
L 1819 4666 
L 2450 4666 
L 2450 531 
L 3481 531 
L 3481 0 
L 794 0 
L 794 531 
z
" id="DejaVuSans-31" transform="scale(0.015625)"/>
       <path d="M 1984 4856 
Q 1566 4138 1362 3434 
Q 1159 2731 1159 2009 
Q 1159 1288 1364 580 
Q 1569 -128 1984 -844 
L 1484 -844 
Q 1016 -109 783 600 
Q 550 1309 550 2009 
Q 550 2706 781 3412 
Q 1013 4119 1484 4856 
L 1984 4856 
z
" id="DejaVuSans-28" transform="scale(0.015625)"/>
       <path d="M 3272 2816 
L 2363 2816 
L 2100 1772 
L 3016 1772 
L 3272 2816 
z
M 2803 4594 
L 2478 3297 
L 3391 3297 
L 3719 4594 
L 4219 4594 
L 3897 3297 
L 4872 3297 
L 4872 2816 
L 3775 2816 
L 3519 1772 
L 4513 1772 
L 4513 1294 
L 3397 1294 
L 3072 0 
L 2572 0 
L 2894 1294 
L 1978 1294 
L 1656 0 
L 1153 0 
L 1478 1294 
L 494 1294 
L 494 1772 
L 1594 1772 
L 1856 2816 
L 850 2816 
L 850 3297 
L 1978 3297 
L 2297 4594 
L 2803 4594 
z
" id="DejaVuSans-23" transform="scale(0.015625)"/>
       <path id="DejaVuSans-20" transform="scale(0.015625)"/>
       <path d="M 2375 4863 
L 2375 4384 
L 1825 4384 
Q 1516 4384 1395 4259 
Q 1275 4134 1275 3809 
L 1275 3500 
L 2222 3500 
L 2222 3053 
L 1275 3053 
L 1275 0 
L 697 0 
L 697 3053 
L 147 3053 
L 147 3500 
L 697 3500 
L 697 3744 
Q 697 4328 969 4595 
Q 1241 4863 1831 4863 
L 2375 4863 
z
" id="DejaVuSans-66" transform="scale(0.015625)"/>
       <path d="M 313 2009 
L 1997 2009 
L 1997 1497 
L 313 1497 
L 313 2009 
z
" id="DejaVuSans-2d" transform="scale(0.015625)"/>
       <path d="M 3597 1894 
L 3597 1613 
L 953 1613 
Q 991 1019 1311 708 
Q 1631 397 2203 397 
Q 2534 397 2845 478 
Q 3156 559 3463 722 
L 3463 178 
Q 3153 47 2828 -22 
Q 2503 -91 2169 -91 
Q 1331 -91 842 396 
Q 353 884 353 1716 
Q 353 2575 817 3079 
Q 1281 3584 2069 3584 
Q 2775 3584 3186 3129 
Q 3597 2675 3597 1894 
z
M 3022 2063 
Q 3016 2534 2758 2815 
Q 2500 3097 2075 3097 
Q 1594 3097 1305 2825 
Q 1016 2553 972 2059 
L 3022 2063 
z
" id="DejaVuSans-65" transform="scale(0.015625)"/>
       <path d="M 191 3500 
L 800 3500 
L 1894 563 
L 2988 3500 
L 3597 3500 
L 2284 0 
L 1503 0 
L 191 3500 
z
" id="DejaVuSans-76" transform="scale(0.015625)"/>
       <path d="M 2194 1759 
Q 1497 1759 1228 1600 
Q 959 1441 959 1056 
Q 959 750 1161 570 
Q 1363 391 1709 391 
Q 2188 391 2477 730 
Q 2766 1069 2766 1631 
L 2766 1759 
L 2194 1759 
z
M 3341 1997 
L 3341 0 
L 2766 0 
L 2766 531 
Q 2569 213 2275 61 
Q 1981 -91 1556 -91 
Q 1019 -91 701 211 
Q 384 513 384 1019 
Q 384 1609 779 1909 
Q 1175 2209 1959 2209 
L 2766 2209 
L 2766 2266 
Q 2766 2663 2505 2880 
Q 2244 3097 1772 3097 
Q 1472 3097 1187 3025 
Q 903 2953 641 2809 
L 641 3341 
Q 956 3463 1253 3523 
Q 1550 3584 1831 3584 
Q 2591 3584 2966 3190 
Q 3341 2797 3341 1997 
z
" id="DejaVuSans-61" transform="scale(0.015625)"/>
       <path d="M 2834 3397 
L 2834 2853 
Q 2591 2978 2328 3040 
Q 2066 3103 1784 3103 
Q 1356 3103 1142 2972 
Q 928 2841 928 2578 
Q 928 2378 1081 2264 
Q 1234 2150 1697 2047 
L 1894 2003 
Q 2506 1872 2764 1633 
Q 3022 1394 3022 966 
Q 3022 478 2636 193 
Q 2250 -91 1575 -91 
Q 1294 -91 989 -36 
Q 684 19 347 128 
L 347 722 
Q 666 556 975 473 
Q 1284 391 1588 391 
Q 1994 391 2212 530 
Q 2431 669 2431 922 
Q 2431 1156 2273 1281 
Q 2116 1406 1581 1522 
L 1381 1569 
Q 847 1681 609 1914 
Q 372 2147 372 2553 
Q 372 3047 722 3315 
Q 1072 3584 1716 3584 
Q 2034 3584 2315 3537 
Q 2597 3491 2834 3397 
z
" id="DejaVuSans-73" transform="scale(0.015625)"/>
       <path d="M 1625 4666 
L 2156 4666 
L 531 -594 
L 0 -594 
L 1625 4666 
z
" id="DejaVuSans-2f" transform="scale(0.015625)"/>
       <path d="M 2906 2969 
L 2906 4863 
L 3481 4863 
L 3481 0 
L 2906 0 
L 2906 525 
Q 2725 213 2448 61 
Q 2172 -91 1784 -91 
Q 1150 -91 751 415 
Q 353 922 353 1747 
Q 353 2572 751 3078 
Q 1150 3584 1784 3584 
Q 2172 3584 2448 3432 
Q 2725 3281 2906 2969 
z
M 947 1747 
Q 947 1113 1208 752 
Q 1469 391 1925 391 
Q 2381 391 2643 752 
Q 2906 1113 2906 1747 
Q 2906 2381 2643 2742 
Q 2381 3103 1925 3103 
Q 1469 3103 1208 2742 
Q 947 2381 947 1747 
z
" id="DejaVuSans-64" transform="scale(0.015625)"/>
       <path d="M 603 3500 
L 1178 3500 
L 1178 0 
L 603 0 
L 603 3500 
z
M 603 4863 
L 1178 4863 
L 1178 4134 
L 603 4134 
L 603 4863 
z
" id="DejaVuSans-69" transform="scale(0.015625)"/>
       <path d="M 3328 2828 
Q 3544 3216 3844 3400 
Q 4144 3584 4550 3584 
Q 5097 3584 5394 3201 
Q 5691 2819 5691 2113 
L 5691 0 
L 5113 0 
L 5113 2094 
Q 5113 2597 4934 2840 
Q 4756 3084 4391 3084 
Q 3944 3084 3684 2787 
Q 3425 2491 3425 1978 
L 3425 0 
L 2847 0 
L 2847 2094 
Q 2847 2600 2669 2842 
Q 2491 3084 2119 3084 
Q 1678 3084 1418 2786 
Q 1159 2488 1159 1978 
L 1159 0 
L 581 0 
L 581 3500 
L 1159 3500 
L 1159 2956 
Q 1356 3278 1631 3431 
Q 1906 3584 2284 3584 
Q 2666 3584 2933 3390 
Q 3200 3197 3328 2828 
z
" id="DejaVuSans-6d" transform="scale(0.015625)"/>
       <path d="M 3513 2113 
L 3513 0 
L 2938 0 
L 2938 2094 
Q 2938 2591 2744 2837 
Q 2550 3084 2163 3084 
Q 1697 3084 1428 2787 
Q 1159 2491 1159 1978 
L 1159 0 
L 581 0 
L 581 3500 
L 1159 3500 
L 1159 2956 
Q 1366 3272 1645 3428 
Q 1925 3584 2291 3584 
Q 2894 3584 3203 3211 
Q 3513 2838 3513 2113 
z
" id="DejaVuSans-6e" transform="scale(0.015625)"/>
       <path d="M 513 4856 
L 1013 4856 
Q 1481 4119 1714 3412 
Q 1947 2706 1947 2009 
Q 1947 1309 1714 600 
Q 1481 -109 1013 -844 
L 513 -844 
Q 928 -128 1133 580 
Q 1338 1288 1338 2009 
Q 1338 2731 1133 3434 
Q 928 4138 513 4856 
z
" id="DejaVuSans-29" transform="scale(0.015625)"/>
      </defs>
      <use xlink:href="#DejaVuSans-6c"/>
      <use x="27.783203" xlink:href="#DejaVuSans-6f"/>
      <use x="88.964844" xlink:href="#DejaVuSans-67"/>
      <use x="152.441406" xlink:href="#DejaVuSans-31"/>
      <use x="216.064453" xlink:href="#DejaVuSans-30"/>
      <use x="279.6875" xlink:href="#DejaVuSans-28"/>
      <use x="318.701172" xlink:href="#DejaVuSans-23"/>
      <use x="402.490234" xlink:href="#DejaVuSans-20"/>
      <use x="434.277344" xlink:href="#DejaVuSans-66"/>
      <use x="463.982422" xlink:href="#DejaVuSans-2d"/>
      <use x="500.066406" xlink:href="#DejaVuSans-65"/>
      <use x="561.589844" xlink:href="#DejaVuSans-76"/>
      <use x="620.769531" xlink:href="#DejaVuSans-61"/>
      <use x="682.048828" xlink:href="#DejaVuSans-6c"/>
      <use x="709.832031" xlink:href="#DejaVuSans-73"/>
      <use x="761.931641" xlink:href="#DejaVuSans-20"/>
      <use x="793.71875" xlink:href="#DejaVuSans-2f"/>
      <use x="827.410156" xlink:href="#DejaVuSans-20"/>
      <use x="859.197266" xlink:href="#DejaVuSans-64"/>
      <use x="922.673828" xlink:href="#DejaVuSans-69"/>
      <use x="950.457031" xlink:href="#DejaVuSans-6d"/>
      <use x="1047.869141" xlink:href="#DejaVuSans-65"/>
      <use x="1109.392578" xlink:href="#DejaVuSans-6e"/>
      <use x="1172.771484" xlink:href="#DejaVuSans-73"/>
      <use x="1224.871094" xlink:href="#DejaVuSans-69"/>
      <use x="1252.654297" xlink:href="#DejaVuSans-6f"/>
      <use x="1313.835938" xlink:href="#DejaVuSans-6e"/>
      <use x="1377.214844" xlink:href="#DejaVuSans-29"/>
     </g>
    </g>
   </g>
   <g id="matplotlib.axis_2">
    <g id="ytick_1">
     <g id="line2d_17">
      <path clip-path="url(#p07c477b493)" d="M 57.6 298.944 
L 338.688 298.944 
" style="fill:none;stroke:#b0b0b0;stroke-linecap:square;stroke-width:0.8;"/>
     </g>
     <g id="line2d_18">
      <defs>
       <path d="M 0 0 
L -3.5 0 
" id="m2191375f1d" style="stroke:#000000;stroke-width:0.8;"/>
      </defs>
      <g>
       <use style="stroke:#000000;stroke-width:0.8;" x="57.6" xlink:href="#m2191375f1d" y="298.944"/>
      </g>
     </g>
     <g id="text_6">
      <!-- 0.0 -->
      <g transform="translate(25.155 305.02275)scale(0.16 -0.16)">
       <defs>
        <path d="M 684 794 
L 1344 794 
L 1344 0 
L 684 0 
L 684 794 
z
" id="DejaVuSans-2e" transform="scale(0.015625)"/>
       </defs>
       <use xlink:href="#DejaVuSans-30"/>
       <use x="63.623047" xlink:href="#DejaVuSans-2e"/>
       <use x="95.410156" xlink:href="#DejaVuSans-30"/>
      </g>
     </g>
    </g>
    <g id="ytick_2">
     <g id="line2d_19">
      <path clip-path="url(#p07c477b493)" d="M 57.6 240.431525 
L 338.688 240.431525 
" style="fill:none;stroke:#b0b0b0;stroke-linecap:square;stroke-width:0.8;"/>
     </g>
     <g id="line2d_20">
      <g>
       <use style="stroke:#000000;stroke-width:0.8;" x="57.6" xlink:href="#m2191375f1d" y="240.431525"/>
      </g>
     </g>
     <g id="text_7">
      <!-- 0.2 -->
      <g transform="translate(25.155 246.510275)scale(0.16 -0.16)">
       <use xlink:href="#DejaVuSans-30"/>
       <use x="63.623047" xlink:href="#DejaVuSans-2e"/>
       <use x="95.410156" xlink:href="#DejaVuSans-32"/>
      </g>
     </g>
    </g>
    <g id="ytick_3">
     <g id="line2d_21">
      <path clip-path="url(#p07c477b493)" d="M 57.6 181.91905 
L 338.688 181.91905 
" style="fill:none;stroke:#b0b0b0;stroke-linecap:square;stroke-width:0.8;"/>
     </g>
     <g id="line2d_22">
      <g>
       <use style="stroke:#000000;stroke-width:0.8;" x="57.6" xlink:href="#m2191375f1d" y="181.91905"/>
      </g>
     </g>
     <g id="text_8">
      <!-- 0.4 -->
      <g transform="translate(25.155 187.9978)scale(0.16 -0.16)">
       <use xlink:href="#DejaVuSans-30"/>
       <use x="63.623047" xlink:href="#DejaVuSans-2e"/>
       <use x="95.410156" xlink:href="#DejaVuSans-34"/>
      </g>
     </g>
    </g>
    <g id="ytick_4">
     <g id="line2d_23">
      <path clip-path="url(#p07c477b493)" d="M 57.6 123.406574 
L 338.688 123.406574 
" style="fill:none;stroke:#b0b0b0;stroke-linecap:square;stroke-width:0.8;"/>
     </g>
     <g id="line2d_24">
      <g>
       <use style="stroke:#000000;stroke-width:0.8;" x="57.6" xlink:href="#m2191375f1d" y="123.406574"/>
      </g>
     </g>
     <g id="text_9">
      <!-- 0.6 -->
      <g transform="translate(25.155 129.485324)scale(0.16 -0.16)">
       <use xlink:href="#DejaVuSans-30"/>
       <use x="63.623047" xlink:href="#DejaVuSans-2e"/>
       <use x="95.410156" xlink:href="#DejaVuSans-36"/>
      </g>
     </g>
    </g>
    <g id="ytick_5">
     <g id="line2d_25">
      <path clip-path="url(#p07c477b493)" d="M 57.6 64.894099 
L 338.688 64.894099 
" style="fill:none;stroke:#b0b0b0;stroke-linecap:square;stroke-width:0.8;"/>
     </g>
     <g id="line2d_26">
      <g>
       <use style="stroke:#000000;stroke-width:0.8;" x="57.6" xlink:href="#m2191375f1d" y="64.894099"/>
      </g>
     </g>
     <g id="text_10">
      <!-- 0.8 -->
      <g transform="translate(25.155 70.972849)scale(0.16 -0.16)">
       <defs>
        <path d="M 2034 2216 
Q 1584 2216 1326 1975 
Q 1069 1734 1069 1313 
Q 1069 891 1326 650 
Q 1584 409 2034 409 
Q 2484 409 2743 651 
Q 3003 894 3003 1313 
Q 3003 1734 2745 1975 
Q 2488 2216 2034 2216 
z
M 1403 2484 
Q 997 2584 770 2862 
Q 544 3141 544 3541 
Q 544 4100 942 4425 
Q 1341 4750 2034 4750 
Q 2731 4750 3128 4425 
Q 3525 4100 3525 3541 
Q 3525 3141 3298 2862 
Q 3072 2584 2669 2484 
Q 3125 2378 3379 2068 
Q 3634 1759 3634 1313 
Q 3634 634 3220 271 
Q 2806 -91 2034 -91 
Q 1263 -91 848 271 
Q 434 634 434 1313 
Q 434 1759 690 2068 
Q 947 2378 1403 2484 
z
M 1172 3481 
Q 1172 3119 1398 2916 
Q 1625 2713 2034 2713 
Q 2441 2713 2670 2916 
Q 2900 3119 2900 3481 
Q 2900 3844 2670 4047 
Q 2441 4250 2034 4250 
Q 1625 4250 1398 4047 
Q 1172 3844 1172 3481 
z
" id="DejaVuSans-38" transform="scale(0.015625)"/>
       </defs>
       <use xlink:href="#DejaVuSans-30"/>
       <use x="63.623047" xlink:href="#DejaVuSans-2e"/>
       <use x="95.410156" xlink:href="#DejaVuSans-38"/>
      </g>
     </g>
    </g>
    <g id="ytick_6">
     <g id="line2d_27">
      <path clip-path="url(#p07c477b493)" d="M 57.6 6.381624 
L 338.688 6.381624 
" style="fill:none;stroke:#b0b0b0;stroke-linecap:square;stroke-width:0.8;"/>
     </g>
     <g id="line2d_28">
      <g>
       <use style="stroke:#000000;stroke-width:0.8;" x="57.6" xlink:href="#m2191375f1d" y="6.381624"/>
      </g>
     </g>
     <g id="text_11">
      <!-- 1.0 -->
      <g transform="translate(25.155 12.460374)scale(0.16 -0.16)">
       <use xlink:href="#DejaVuSans-31"/>
       <use x="63.623047" xlink:href="#DejaVuSans-2e"/>
       <use x="95.410156" xlink:href="#DejaVuSans-30"/>
      </g>
     </g>
    </g>
    <g id="text_12">
     <!-- Fraction of function,target pairs -->
     <g transform="translate(17.619531 285.585)rotate(-90)scale(0.17 -0.17)">
      <defs>
       <path d="M 628 4666 
L 3309 4666 
L 3309 4134 
L 1259 4134 
L 1259 2759 
L 3109 2759 
L 3109 2228 
L 1259 2228 
L 1259 0 
L 628 0 
L 628 4666 
z
" id="DejaVuSans-46" transform="scale(0.015625)"/>
       <path d="M 2631 2963 
Q 2534 3019 2420 3045 
Q 2306 3072 2169 3072 
Q 1681 3072 1420 2755 
Q 1159 2438 1159 1844 
L 1159 0 
L 581 0 
L 581 3500 
L 1159 3500 
L 1159 2956 
Q 1341 3275 1631 3429 
Q 1922 3584 2338 3584 
Q 2397 3584 2469 3576 
Q 2541 3569 2628 3553 
L 2631 2963 
z
" id="DejaVuSans-72" transform="scale(0.015625)"/>
       <path d="M 3122 3366 
L 3122 2828 
Q 2878 2963 2633 3030 
Q 2388 3097 2138 3097 
Q 1578 3097 1268 2742 
Q 959 2388 959 1747 
Q 959 1106 1268 751 
Q 1578 397 2138 397 
Q 2388 397 2633 464 
Q 2878 531 3122 666 
L 3122 134 
Q 2881 22 2623 -34 
Q 2366 -91 2075 -91 
Q 1284 -91 818 406 
Q 353 903 353 1747 
Q 353 2603 823 3093 
Q 1294 3584 2113 3584 
Q 2378 3584 2631 3529 
Q 2884 3475 3122 3366 
z
" id="DejaVuSans-63" transform="scale(0.015625)"/>
       <path d="M 1172 4494 
L 1172 3500 
L 2356 3500 
L 2356 3053 
L 1172 3053 
L 1172 1153 
Q 1172 725 1289 603 
Q 1406 481 1766 481 
L 2356 481 
L 2356 0 
L 1766 0 
Q 1100 0 847 248 
Q 594 497 594 1153 
L 594 3053 
L 172 3053 
L 172 3500 
L 594 3500 
L 594 4494 
L 1172 4494 
z
" id="DejaVuSans-74" transform="scale(0.015625)"/>
       <path d="M 544 1381 
L 544 3500 
L 1119 3500 
L 1119 1403 
Q 1119 906 1312 657 
Q 1506 409 1894 409 
Q 2359 409 2629 706 
Q 2900 1003 2900 1516 
L 2900 3500 
L 3475 3500 
L 3475 0 
L 2900 0 
L 2900 538 
Q 2691 219 2414 64 
Q 2138 -91 1772 -91 
Q 1169 -91 856 284 
Q 544 659 544 1381 
z
M 1991 3584 
L 1991 3584 
z
" id="DejaVuSans-75" transform="scale(0.015625)"/>
       <path d="M 750 794 
L 1409 794 
L 1409 256 
L 897 -744 
L 494 -744 
L 750 256 
L 750 794 
z
" id="DejaVuSans-2c" transform="scale(0.015625)"/>
       <path d="M 1159 525 
L 1159 -1331 
L 581 -1331 
L 581 3500 
L 1159 3500 
L 1159 2969 
Q 1341 3281 1617 3432 
Q 1894 3584 2278 3584 
Q 2916 3584 3314 3078 
Q 3713 2572 3713 1747 
Q 3713 922 3314 415 
Q 2916 -91 2278 -91 
Q 1894 -91 1617 61 
Q 1341 213 1159 525 
z
M 3116 1747 
Q 3116 2381 2855 2742 
Q 2594 3103 2138 3103 
Q 1681 3103 1420 2742 
Q 1159 2381 1159 1747 
Q 1159 1113 1420 752 
Q 1681 391 2138 391 
Q 2594 391 2855 752 
Q 3116 1113 3116 1747 
z
" id="DejaVuSans-70" transform="scale(0.015625)"/>
      </defs>
      <use xlink:href="#DejaVuSans-46"/>
      <use x="50.269531" xlink:href="#DejaVuSans-72"/>
      <use x="91.382812" xlink:href="#DejaVuSans-61"/>
      <use x="152.662109" xlink:href="#DejaVuSans-63"/>
      <use x="207.642578" xlink:href="#DejaVuSans-74"/>
      <use x="246.851562" xlink:href="#DejaVuSans-69"/>
      <use x="274.634766" xlink:href="#DejaVuSans-6f"/>
      <use x="335.816406" xlink:href="#DejaVuSans-6e"/>
      <use x="399.195312" xlink:href="#DejaVuSans-20"/>
      <use x="430.982422" xlink:href="#DejaVuSans-6f"/>
      <use x="492.164062" xlink:href="#DejaVuSans-66"/>
      <use x="527.369141" xlink:href="#DejaVuSans-20"/>
      <use x="559.15625" xlink:href="#DejaVuSans-66"/>
      <use x="594.361328" xlink:href="#DejaVuSans-75"/>
      <use x="657.740234" xlink:href="#DejaVuSans-6e"/>
      <use x="721.119141" xlink:href="#DejaVuSans-63"/>
      <use x="776.099609" xlink:href="#DejaVuSans-74"/>
      <use x="815.308594" xlink:href="#DejaVuSans-69"/>
      <use x="843.091797" xlink:href="#DejaVuSans-6f"/>
      <use x="904.273438" xlink:href="#DejaVuSans-6e"/>
      <use x="967.652344" xlink:href="#DejaVuSans-2c"/>
      <use x="999.439453" xlink:href="#DejaVuSans-74"/>
      <use x="1038.648438" xlink:href="#DejaVuSans-61"/>
      <use x="1099.927734" xlink:href="#DejaVuSans-72"/>
      <use x="1139.291016" xlink:href="#DejaVuSans-67"/>
      <use x="1202.767578" xlink:href="#DejaVuSans-65"/>
      <use x="1264.291016" xlink:href="#DejaVuSans-74"/>
      <use x="1303.5" xlink:href="#DejaVuSans-20"/>
      <use x="1335.287109" xlink:href="#DejaVuSans-70"/>
      <use x="1398.763672" xlink:href="#DejaVuSans-61"/>
      <use x="1460.042969" xlink:href="#DejaVuSans-69"/>
      <use x="1487.826172" xlink:href="#DejaVuSans-72"/>
      <use x="1528.939453" xlink:href="#DejaVuSans-73"/>
     </g>
    </g>
   </g>
   <g id="line2d_29">
    <defs>
     <path d="M 0 1.5 
C 0.397805 1.5 0.77937 1.341951 1.06066 1.06066 
C 1.341951 0.77937 1.5 0.397805 1.5 0 
C 1.5 -0.397805 1.341951 -0.77937 1.06066 -1.06066 
C 0.77937 -1.341951 0.397805 -1.5 0 -1.5 
C -0.397805 -1.5 -0.77937 -1.341951 -1.06066 -1.06066 
C -1.341951 -0.77937 -1.5 -0.397805 -1.5 0 
C -1.5 0.397805 -1.341951 0.77937 -1.06066 1.06066 
C -0.77937 1.341951 -0.397805 1.5 0 1.5 
z
" id="macf710dab5" style="stroke:#000080;"/>
    </defs>
    <g>
     <use style="fill:#000080;stroke:#000080;" x="216.299808" xlink:href="#macf710dab5" y="6.381624"/>
     <use style="fill:#000080;stroke:#000080;" x="216.299808" xlink:href="#macf710dab5" y="6.381624"/>
    </g>
   </g>
   <g id="line2d_30">
    <path d="M 45.512012 298.944 
L 45.512012 288.044617 
L 57.6 288.044617 
L 57.6 284.029055 
L 64.67102 284.029055 
L 64.67102 280.013493 
L 69.687988 280.013493 
L 69.687988 275.42428 
L 73.579452 275.42428 
L 73.579452 271.982369 
L 76.759008 271.982369 
L 76.759008 268.540459 
L 81.775977 268.540459 
L 81.775977 264.524897 
L 83.830028 264.524897 
L 83.830028 263.951245 
L 85.66744 263.951245 
L 85.66744 261.082987 
L 88.846997 261.082987 
L 88.846997 260.509335 
L 90.242884 260.509335 
L 90.242884 259.935683 
L 91.535274 259.935683 
L 91.535274 259.362031 
L 92.73846 259.362031 
L 92.73846 258.214728 
L 94.921215 258.214728 
L 94.921215 251.904559 
L 98.606294 251.904559 
L 98.606294 251.330907 
L 99.41757 251.330907 
L 99.41757 249.036301 
L 100.192776 249.036301 
L 100.192776 248.462649 
L 105.951954 248.462649 
L 105.951954 247.888997 
L 108.483824 247.888997 
L 108.483824 247.315345 
L 113.022974 247.315345 
L 113.022974 246.741694 
L 114.080224 246.741694 
L 114.080224 246.168042 
L 130.664567 246.168042 
L 130.664567 245.59439 
L 131.185181 245.59439 
L 131.185181 245.020738 
L 135.076644 245.020738 
L 135.076644 243.873435 
L 138.510793 243.873435 
L 138.594838 242.15248 
L 138.927025 242.15248 
L 138.927025 241.578828 
L 139.333553 241.578828 
L 139.333553 241.005176 
L 139.652088 241.005176 
L 139.652088 239.857873 
L 142.215919 239.857873 
L 142.215919 239.284221 
L 143.144465 239.284221 
L 143.144465 236.415963 
L 143.464461 236.415963 
L 143.464461 235.268659 
L 143.778691 235.268659 
L 143.778691 234.695008 
L 146.216039 234.695008 
L 146.216039 234.121356 
L 146.801841 234.121356 
L 146.801841 233.547704 
L 147.061745 233.547704 
L 147.061745 232.974052 
L 147.71991 232.974052 
L 147.71991 232.400401 
L 150.640855 232.400401 
L 150.640855 231.826749 
L 152.283884 231.826749 
L 152.283884 230.679446 
L 157.809652 230.679446 
L 157.809652 226.663884 
L 158.889829 226.663884 
L 158.889829 226.090232 
L 159.226956 226.090232 
L 159.226956 224.369277 
L 159.532469 224.369277 
L 159.532469 223.795625 
L 159.708245 223.795625 
L 159.708245 222.648321 
L 161.778945 222.648321 
L 161.778945 222.07467 
L 163.428979 222.07467 
L 163.50953 220.927366 
L 164.237502 220.927366 
L 164.237502 220.353715 
L 164.65637 220.353715 
L 164.65637 218.059108 
L 165.995728 218.059108 
L 165.995728 217.485456 
L 166.134549 217.485456 
L 166.134549 216.338153 
L 166.34073 216.338153 
L 166.34073 215.764501 
L 167.735303 215.764501 
L 167.735303 213.469894 
L 168.078792 213.469894 
L 168.078792 212.322591 
L 168.536542 212.322591 
L 168.536542 211.748939 
L 170.925369 211.748939 
L 170.925369 211.175287 
L 171.263501 211.175287 
L 171.263501 210.601635 
L 171.43014 210.601635 
L 171.43014 208.88068 
L 173.188276 208.88068 
L 173.188276 206.586073 
L 173.326137 206.586073 
L 173.326137 206.012422 
L 174.434469 206.012422 
L 174.434469 205.43877 
L 174.858804 205.43877 
L 174.858804 204.865118 
L 175.252577 204.865118 
L 175.334356 200.275904 
L 175.797284 200.275904 
L 175.797284 197.407646 
L 176.659495 197.407646 
L 176.659495 195.686691 
L 176.847522 195.686691 
L 176.847522 191.671129 
L 176.959372 191.671129 
L 176.959372 189.950174 
L 177.208443 189.950174 
L 177.290683 188.229218 
L 177.499105 188.229218 
L 177.597911 184.787308 
L 177.820411 184.787308 
L 177.820411 183.066353 
L 178.377401 183.066353 
L 178.428718 180.771746 
L 178.817212 180.771746 
L 178.817212 180.198094 
L 179.098898 180.198094 
L 179.098898 178.477139 
L 179.221739 178.477139 
L 179.221739 177.329836 
L 179.537135 177.329836 
L 179.537135 176.756184 
L 179.775924 176.756184 
L 179.791727 175.608881 
L 179.988073 175.608881 
L 179.988073 172.740622 
L 180.305371 172.740622 
L 180.366615 170.446015 
L 180.533936 170.446015 
L 180.58684 168.151408 
L 180.669651 168.151408 
L 180.699667 165.28315 
L 180.811769 165.28315 
L 180.900935 157.825677 
L 181.026478 157.825677 
L 181.026478 157.252026 
L 181.404974 157.252026 
L 181.404974 156.678374 
L 181.562667 156.678374 
L 181.562667 151.515508 
L 181.726017 151.515508 
L 181.726017 150.941857 
L 181.852798 150.941857 
L 181.852798 149.794553 
L 181.985629 149.794553 
L 182.082862 145.778991 
L 182.186441 145.778991 
L 182.296252 142.337081 
L 182.30993 142.337081 
L 182.384967 140.616126 
L 182.493539 140.616126 
L 182.587988 137.174215 
L 182.661841 137.174215 
L 182.661841 136.026912 
L 182.788672 136.026912 
L 182.88154 132.01135 
L 182.907984 132.01135 
L 182.92119 130.290395 
L 183.150701 130.290395 
L 183.189744 127.995788 
L 183.299894 127.995788 
L 183.383659 124.553878 
L 183.41577 124.553878 
L 183.505367 121.685619 
L 183.594505 121.685619 
L 183.670549 117.670057 
L 183.777712 117.670057 
L 183.859219 115.949102 
L 183.946572 115.949102 
L 184.039681 112.507192 
L 184.101478 112.507192 
L 184.199902 110.212585 
L 184.255021 110.212585 
L 184.352584 107.917978 
L 184.401161 107.917978 
L 184.509968 103.902416 
L 184.564118 103.902416 
L 184.630074 98.73955 
L 184.713659 98.73955 
L 184.802771 92.429381 
L 184.920884 92.429381 
L 184.920884 91.85573 
L 185.038202 91.85573 
L 185.148928 88.987471 
L 185.154736 88.987471 
L 185.2185 83.250954 
L 185.282031 83.250954 
L 185.374029 79.809044 
L 185.431282 79.809044 
L 185.431282 79.235392 
L 185.641499 79.235392 
L 185.726005 77.514437 
L 185.754083 77.514437 
L 185.787717 74.646178 
L 185.877092 74.646178 
L 185.943825 70.056964 
L 186.015831 70.056964 
L 186.120538 68.909661 
L 186.142502 68.909661 
L 186.246454 65.467751 
L 186.273707 65.467751 
L 186.382296 59.157582 
L 186.430941 59.157582 
L 186.452518 53.421065 
L 186.549283 53.421065 
L 186.549283 52.847413 
L 186.688115 52.847413 
L 186.688115 50.552806 
L 186.862747 50.552806 
L 186.894312 48.258199 
L 187.118866 48.258199 
L 187.118866 47.110896 
L 187.330316 47.110896 
L 187.355928 45.389941 
L 187.468177 45.389941 
L 187.539233 43.668985 
L 187.900163 43.668985 
L 187.964542 39.653423 
L 188.131803 39.653423 
L 188.131803 39.079772 
L 188.326548 39.079772 
L 188.379724 34.490558 
L 188.968208 34.490558 
L 188.968208 33.343255 
L 193.586317 33.343255 
L 193.586317 32.769603 
L 196.416233 32.769603 
L 196.416233 32.195951 
L 197.129113 32.195951 
L 197.129113 31.622299 
L 198.103819 31.622299 
L 198.103819 31.048648 
L 198.63191 31.048648 
L 198.63191 30.474996 
L 198.998061 30.474996 
L 199.094939 29.327692 
L 199.118422 29.327692 
L 199.118422 28.754041 
L 199.770984 28.754041 
L 199.770984 27.606737 
L 200.241809 27.606737 
L 200.351483 25.885782 
L 200.385463 25.885782 
L 200.484598 24.164827 
L 200.506285 24.164827 
L 200.506285 23.591175 
L 200.697874 23.591175 
L 200.783408 22.443872 
L 200.887382 22.443872 
L 200.887382 21.87022 
L 201.060862 21.87022 
L 201.135349 20.149265 
L 201.216457 20.149265 
L 201.290284 19.001962 
L 201.945463 19.001962 
L 202.049368 17.854658 
L 202.506204 17.854658 
L 202.506204 17.281006 
L 202.759863 17.281006 
L 202.829557 16.133703 
L 202.930435 16.133703 
L 202.961841 14.9864 
L 203.487253 14.9864 
L 203.487253 14.412748 
L 204.009121 14.412748 
L 204.089699 13.265444 
L 204.224472 13.265444 
L 204.224472 12.691793 
L 204.498595 12.691793 
L 204.498595 11.544489 
L 204.630256 11.544489 
L 204.738274 9.823534 
L 205.266722 9.823534 
L 205.266722 9.249882 
L 208.610457 9.249882 
L 208.610457 8.676231 
L 208.987634 8.676231 
L 208.987634 8.102579 
L 212.40299 8.102579 
L 212.416375 6.955275 
L 216.299808 6.955275 
L 216.299808 6.381624 
L 338.688 6.381624 
L 338.688 6.381624 
" style="fill:none;stroke:#000080;stroke-linecap:square;stroke-width:1.5;"/>
   </g>
   <g id="line2d_31">
    <defs>
     <path d="M 0 6 
C 1.591219 6 3.117479 5.367802 4.242641 4.242641 
C 5.367802 3.117479 6 1.591219 6 0 
C 6 -1.591219 5.367802 -3.117479 4.242641 -4.242641 
C 3.117479 -5.367802 1.591219 -6 0 -6 
C -1.591219 -6 -3.117479 -5.367802 -4.242641 -4.242641 
C -5.367802 -3.117479 -6 -1.591219 -6 0 
C -6 1.591219 -5.367802 3.117479 -4.242641 4.242641 
C -3.117479 5.367802 -1.591219 6 0 6 
z
" id="m7fa80758ba" style="stroke:#000080;stroke-width:1.5;"/>
    </defs>
    <g>
     <use style="fill-opacity:0;stroke:#000080;stroke-width:1.5;" x="83.830028" xlink:href="#m7fa80758ba" y="264.524897"/>
     <use style="fill-opacity:0;stroke:#000080;stroke-width:1.5;" x="175.252577" xlink:href="#m7fa80758ba" y="204.865118"/>
     <use style="fill-opacity:0;stroke:#000080;stroke-width:1.5;" x="184.802771" xlink:href="#m7fa80758ba" y="95.871292"/>
     <use style="fill-opacity:0;stroke:#000080;stroke-width:1.5;" x="216.299808" xlink:href="#m7fa80758ba" y="6.955275"/>
     <use style="fill-opacity:0;stroke:#000080;stroke-width:1.5;" x="216.299808" xlink:href="#m7fa80758ba" y="6.381624"/>
     <use style="fill-opacity:0;stroke:#000080;stroke-width:1.5;" x="338.688" xlink:href="#m7fa80758ba" y="6.381624"/>
    </g>
   </g>
   <g id="line2d_32">
    <path style="fill:none;stroke:#000080;stroke-linecap:square;stroke-width:1.5;"/>
    <g/>
   </g>
   <g id="line2d_33">
    <path clip-path="url(#p07c477b493)" d="M 192.591622 33.343255 
" style="fill:none;stroke:#000080;stroke-linecap:square;stroke-width:1.5;"/>
    <defs>
     <path d="M -12 12 
L 12 -12 
M -12 -12 
L 12 12 
" id="m9d1ddb012c" style="stroke:#000080;"/>
    </defs>
    <g clip-path="url(#p07c477b493)">
     <use style="fill:#000080;stroke:#000080;" x="192.591622" xlink:href="#m9d1ddb012c" y="33.343255"/>
    </g>
   </g>
   <g id="line2d_34">
    <defs>
     <path d="M 0 1.5 
C 0.397805 1.5 0.77937 1.341951 1.06066 1.06066 
C 1.341951 0.77937 1.5 0.397805 1.5 0 
C 1.5 -0.397805 1.341951 -0.77937 1.06066 -1.06066 
C 0.77937 -1.341951 0.397805 -1.5 0 -1.5 
C -0.397805 -1.5 -0.77937 -1.341951 -1.06066 -1.06066 
C -1.341951 -0.77937 -1.5 -0.397805 -1.5 0 
C -1.5 0.397805 -1.341951 0.77937 -1.06066 1.06066 
C -0.77937 1.341951 -0.397805 1.5 0 1.5 
z
" id="m1198aacc43" style="stroke:#ff00ff;"/>
    </defs>
    <g>
     <use style="fill:#ff00ff;stroke:#ff00ff;" x="208.955029" xlink:href="#m1198aacc43" y="6.381624"/>
     <use style="fill:#ff00ff;stroke:#ff00ff;" x="208.955029" xlink:href="#m1198aacc43" y="6.381624"/>
    </g>
   </g>
   <g id="line2d_35">
    <path d="M 45.512012 298.944 
L 45.512012 269.114111 
L 57.6 269.114111 
L 57.6 259.362031 
L 64.67102 259.362031 
L 64.67102 258.78838 
L 69.687988 258.78838 
L 69.687988 255.346469 
L 76.759008 255.346469 
L 76.759008 251.904559 
L 79.447285 251.904559 
L 79.447285 251.330907 
L 81.775977 251.330907 
L 81.775977 250.757256 
L 83.830028 250.757256 
L 83.830028 243.299783 
L 90.242884 243.299783 
L 90.242884 241.578828 
L 91.535274 241.578828 
L 91.535274 241.005176 
L 92.73846 241.005176 
L 92.73846 238.136918 
L 97.755429 238.136918 
L 97.755429 235.842311 
L 98.606294 235.842311 
L 98.606294 234.695008 
L 101.646892 234.695008 
L 101.646892 234.121356 
L 105.398279 234.121356 
L 105.398279 233.547704 
L 108.006005 233.547704 
L 108.006005 232.974052 
L 108.483824 232.974052 
L 108.483824 232.400401 
L 110.694282 232.400401 
L 110.694282 230.679446 
L 111.104637 230.679446 
L 111.104637 226.663884 
L 113.382559 226.663884 
L 113.382559 226.090232 
L 114.080224 226.090232 
L 114.080224 225.51658 
L 114.751048 225.51658 
L 114.751048 224.942928 
L 115.077025 224.942928 
L 115.077025 223.795625 
L 118.039942 223.795625 
L 118.039942 222.648321 
L 120.33454 222.648321 
L 120.33454 218.632759 
L 121.036887 218.632759 
L 121.036887 217.485456 
L 121.264855 217.485456 
L 121.264855 213.469894 
L 128.107907 213.469894 
L 128.107907 211.175287 
L 128.709321 211.175287 
L 128.709321 207.733377 
L 130.263646 207.733377 
L 130.263646 207.159725 
L 132.060454 207.159725 
L 132.060454 206.586073 
L 133.009765 206.586073 
L 133.009765 201.99686 
L 135.582166 201.99686 
L 135.582166 200.849556 
L 137.016339 200.849556 
L 137.016339 200.275904 
L 139.730821 200.275904 
L 139.730821 193.965736 
L 141.090414 193.965736 
L 141.090414 192.24478 
L 141.662245 192.24478 
L 141.662245 189.950174 
L 141.80232 189.950174 
L 141.80232 189.376522 
L 143.464461 189.376522 
L 143.464461 188.80287 
L 144.570138 188.80287 
L 144.570138 185.934612 
L 145.155404 185.934612 
L 145.155404 185.36096 
L 147.52003 185.36096 
L 147.52003 183.640005 
L 147.96658 183.640005 
L 147.96658 177.903487 
L 148.592055 177.903487 
L 148.592055 176.182532 
L 149.332295 176.182532 
L 149.332295 175.035229 
L 150.344189 175.035229 
L 150.429467 169.872363 
L 150.682827 169.872363 
L 150.682827 169.298712 
L 151.300575 169.298712 
L 151.300575 167.577757 
L 153.142033 167.577757 
L 153.142033 165.28315 
L 153.323128 165.28315 
L 153.323128 162.988543 
L 153.820412 162.988543 
L 153.820412 160.693936 
L 154.707925 160.693936 
L 154.77436 149.794553 
L 155.959855 149.794553 
L 155.959855 148.073598 
L 156.297301 148.073598 
L 156.297301 147.499946 
L 156.598505 147.499946 
L 156.598505 143.484384 
L 156.923929 143.484384 
L 157.011638 140.616126 
L 157.243392 140.616126 
L 157.243392 137.174215 
L 157.500487 137.174215 
L 157.500487 133.732305 
L 158.915995 133.732305 
L 158.915995 130.290395 
L 159.278248 130.290395 
L 159.278248 126.274833 
L 160.127894 126.274833 
L 160.176607 122.832923 
L 160.249422 122.832923 
L 160.249422 122.259271 
L 160.513841 122.259271 
L 160.585265 119.391012 
L 160.656397 119.391012 
L 160.727241 114.801798 
L 160.774311 114.801798 
L 160.774311 114.228147 
L 160.961329 114.228147 
L 161.030947 111.93354 
L 161.667653 111.93354 
L 161.667653 110.786236 
L 161.801118 110.786236 
L 161.801118 110.212585 
L 162.10862 110.212585 
L 162.130378 104.476068 
L 162.260361 104.476068 
L 162.281931 101.034157 
L 162.432178 101.034157 
L 162.432178 98.73955 
L 162.749842 98.73955 
L 162.749842 97.592247 
L 162.999872 97.592247 
L 162.999872 97.018595 
L 163.287113 97.018595 
L 163.388564 95.871292 
L 163.609699 95.871292 
L 163.609699 88.987471 
L 164.179597 88.987471 
L 164.19892 86.119213 
L 164.390984 86.119213 
L 164.486229 75.793482 
L 164.843488 75.793482 
L 164.843488 70.630616 
L 165.338904 70.630616 
L 165.429123 63.746796 
L 165.500963 63.746796 
L 165.500963 63.173144 
L 165.625977 63.173144 
L 165.625977 61.452189 
L 165.995728 61.452189 
L 165.995728 59.731234 
L 166.169082 59.731234 
L 166.272273 54.568368 
L 166.425924 54.568368 
L 166.425924 53.994716 
L 166.544502 53.994716 
L 166.628709 52.273761 
L 166.795913 52.273761 
L 166.795913 51.126458 
L 167.255733 51.126458 
L 167.255733 50.552806 
L 167.703739 50.552806 
L 167.782543 45.963592 
L 169.701534 45.963592 
L 169.701534 44.242637 
L 171.056197 44.242637 
L 171.056197 43.095334 
L 187.855453 43.095334 
L 187.855453 42.521682 
L 188.205087 42.521682 
L 188.205087 41.374379 
L 188.38455 41.374379 
L 188.38455 40.227075 
L 188.562185 40.227075 
L 188.562185 39.079772 
L 189.748486 39.079772 
L 189.748486 38.50612 
L 190.062477 38.50612 
L 190.062477 37.932468 
L 190.258597 37.932468 
L 190.258597 37.358817 
L 190.648581 37.358817 
L 190.648581 36.211513 
L 190.867576 36.211513 
L 190.867576 35.637861 
L 191.071449 35.637861 
L 191.158099 34.490558 
L 191.22383 34.490558 
L 191.22383 33.916906 
L 191.41955 33.916906 
L 191.423604 32.195951 
L 191.828302 32.195951 
L 191.85205 31.048648 
L 192.118963 31.048648 
L 192.118963 29.901344 
L 192.404859 29.901344 
L 192.404859 29.327692 
L 193.107106 29.327692 
L 193.173234 27.606737 
L 193.220837 27.606737 
L 193.220837 27.033086 
L 193.471348 27.033086 
L 193.471348 26.459434 
L 193.618516 26.459434 
L 193.636379 24.738479 
L 193.778625 24.738479 
L 193.785707 23.591175 
L 193.954816 23.591175 
L 193.954816 23.017524 
L 194.066652 23.017524 
L 194.066652 22.443872 
L 194.277872 22.443872 
L 194.277872 21.87022 
L 194.517144 21.87022 
L 194.517144 21.296568 
L 194.686066 21.296568 
L 194.686066 20.722917 
L 194.936418 20.722917 
L 194.972836 19.575613 
L 195.28748 19.575613 
L 195.28748 19.001962 
L 195.777496 19.001962 
L 195.777496 18.42831 
L 196.706089 18.42831 
L 196.706089 17.281006 
L 196.917405 17.281006 
L 196.917405 16.707355 
L 197.476348 16.707355 
L 197.516412 15.560051 
L 197.68991 15.560051 
L 197.68991 14.9864 
L 197.833653 14.9864 
L 197.842072 13.265444 
L 197.990135 13.265444 
L 198.078927 12.118141 
L 198.106583 12.118141 
L 198.106583 11.544489 
L 198.361696 11.544489 
L 198.361696 10.970838 
L 198.757479 10.970838 
L 198.757479 10.397186 
L 201.38213 10.397186 
L 201.38213 9.823534 
L 202.183306 9.823534 
L 202.183306 9.249882 
L 202.314052 9.249882 
L 202.314052 8.676231 
L 204.136695 8.676231 
L 204.136695 8.102579 
L 205.268554 8.102579 
L 205.268554 7.528927 
L 205.534086 7.528927 
L 205.534086 6.955275 
L 208.955029 6.955275 
L 208.955029 6.381624 
L 338.688 6.381624 
L 338.688 6.381624 
" style="fill:none;stroke:#ff00ff;stroke-linecap:square;stroke-width:1.5;"/>
   </g>
   <g id="line2d_36">
    <defs>
     <path d="M -0 8.485281 
L 5.091169 0 
L 0 -8.485281 
L -5.091169 -0 
z
" id="m41bac49179" style="stroke:#ff00ff;stroke-linejoin:miter;stroke-width:1.5;"/>
    </defs>
    <g>
     <use style="fill-opacity:0;stroke:#ff00ff;stroke-linejoin:miter;stroke-width:1.5;" x="118.039942" xlink:href="#m41bac49179" y="223.795625"/>
     <use style="fill-opacity:0;stroke:#ff00ff;stroke-linejoin:miter;stroke-width:1.5;" x="161.030947" xlink:href="#m41bac49179" y="113.654495"/>
     <use style="fill-opacity:0;stroke:#ff00ff;stroke-linejoin:miter;stroke-width:1.5;" x="205.534086" xlink:href="#m41bac49179" y="7.528927"/>
     <use style="fill-opacity:0;stroke:#ff00ff;stroke-linejoin:miter;stroke-width:1.5;" x="208.955029" xlink:href="#m41bac49179" y="6.381624"/>
     <use style="fill-opacity:0;stroke:#ff00ff;stroke-linejoin:miter;stroke-width:1.5;" x="208.955029" xlink:href="#m41bac49179" y="6.381624"/>
     <use style="fill-opacity:0;stroke:#ff00ff;stroke-linejoin:miter;stroke-width:1.5;" x="338.688" xlink:href="#m41bac49179" y="6.381624"/>
    </g>
   </g>
   <g id="line2d_37">
    <path style="fill:none;stroke:#ff00ff;stroke-linecap:square;stroke-width:1.5;"/>
    <g/>
   </g>
   <g id="line2d_38">
    <path clip-path="url(#p07c477b493)" d="M 191.816415 32.195951 
" style="fill:none;stroke:#ff00ff;stroke-linecap:square;stroke-width:1.5;"/>
    <defs>
     <path d="M -12 12 
L 12 -12 
M -12 -12 
L 12 12 
" id="m1cf613131a" style="stroke:#ff00ff;"/>
    </defs>
    <g clip-path="url(#p07c477b493)">
     <use style="fill:#ff00ff;stroke:#ff00ff;" x="191.816415" xlink:href="#m1cf613131a" y="32.195951"/>
    </g>
   </g>
   <g id="line2d_39">
    <defs>
     <path d="M 0 1.5 
C 0.397805 1.5 0.77937 1.341951 1.06066 1.06066 
C 1.341951 0.77937 1.5 0.397805 1.5 0 
C 1.5 -0.397805 1.341951 -0.77937 1.06066 -1.06066 
C 0.77937 -1.341951 0.397805 -1.5 0 -1.5 
C -0.397805 -1.5 -0.77937 -1.341951 -1.06066 -1.06066 
C -1.341951 -0.77937 -1.5 -0.397805 -1.5 0 
C -1.5 0.397805 -1.341951 0.77937 -1.06066 1.06066 
C -0.77937 1.341951 -0.397805 1.5 0 1.5 
z
" id="m3be39591da" style="stroke:#ff7500;"/>
    </defs>
    <g>
     <use style="fill:#ff7500;stroke:#ff7500;" x="212.284509" xlink:href="#m3be39591da" y="6.381624"/>
     <use style="fill:#ff7500;stroke:#ff7500;" x="212.284509" xlink:href="#m3be39591da" y="6.381624"/>
    </g>
   </g>
   <g id="line2d_40">
    <path d="M 45.512012 298.944 
L 45.512012 276.571583 
L 57.6 276.571583 
L 57.6 273.703324 
L 64.67102 273.703324 
L 64.67102 270.261414 
L 73.579452 270.261414 
L 73.579452 269.114111 
L 76.759008 269.114111 
L 76.759008 266.819504 
L 79.447285 266.819504 
L 79.447285 265.098549 
L 81.775977 265.098549 
L 81.775977 262.803942 
L 83.830028 262.803942 
L 83.830028 261.656638 
L 87.329581 261.656638 
L 87.329581 260.509335 
L 88.846997 260.509335 
L 88.846997 259.935683 
L 90.242884 259.935683 
L 90.242884 258.78838 
L 91.535274 258.78838 
L 91.535274 256.493773 
L 92.73846 256.493773 
L 92.73846 255.346469 
L 93.863965 255.346469 
L 93.863965 252.478211 
L 94.921215 252.478211 
L 94.921215 251.330907 
L 96.86091 251.330907 
L 96.86091 250.183604 
L 100.192776 250.183604 
L 100.192776 248.462649 
L 102.330873 248.462649 
L 102.330873 242.15248 
L 104.23523 242.15248 
L 104.23523 241.578828 
L 108.006005 241.578828 
L 108.006005 240.431525 
L 108.483824 240.431525 
L 108.483824 234.695008 
L 110.274038 234.695008 
L 110.274038 231.253097 
L 111.104637 231.253097 
L 111.104637 228.95849 
L 111.505558 228.95849 
L 111.505558 227.811187 
L 113.382559 227.811187 
L 113.382559 224.942928 
L 114.080224 224.942928 
L 114.080224 223.795625 
L 117.486268 223.795625 
L 117.486268 220.927366 
L 119.850084 220.927366 
L 119.850084 220.353715 
L 121.036887 220.353715 
L 121.036887 219.206411 
L 122.573415 219.206411 
L 122.573415 218.632759 
L 125.291682 218.632759 
L 125.291682 218.059108 
L 125.470548 218.059108 
L 125.470548 212.322591 
L 125.996395 212.322591 
L 125.996395 210.027984 
L 127.325746 210.027984 
L 127.325746 208.307029 
L 130.531948 208.307029 
L 130.531948 207.159725 
L 131.312942 207.159725 
L 131.312942 206.012422 
L 131.814826 206.012422 
L 131.814826 198.554949 
L 133.800029 198.554949 
L 133.800029 197.407646 
L 134.450015 197.407646 
L 134.450015 196.833994 
L 136.645276 196.833994 
L 136.645276 194.539387 
L 140.499195 194.539387 
L 140.499195 193.965736 
L 141.090414 193.965736 
L 141.090414 189.950174 
L 141.307054 189.950174 
L 141.307054 183.640005 
L 142.07914 183.640005 
L 142.07914 183.066353 
L 143.716296 183.066353 
L 143.716296 181.345398 
L 146.324022 181.345398 
L 146.324022 180.198094 
L 147.061745 180.198094 
L 147.061745 179.624443 
L 148.686322 179.624443 
L 148.686322 179.050791 
L 152.736878 179.050791 
L 152.736878 177.329836 
L 154.607795 177.329836 
L 154.607795 175.608881 
L 155.741666 175.608881 
L 155.741666 173.314274 
L 157.040776 173.314274 
L 157.040776 169.872363 
L 157.809652 169.872363 
L 157.809652 169.298712 
L 158.51933 169.298712 
L 158.51933 168.72506 
L 158.67908 168.72506 
L 158.75841 167.577757 
L 159.857512 167.577757 
L 159.857512 167.004105 
L 160.079044 167.004105 
L 160.079044 166.430453 
L 160.37011 166.430453 
L 160.394148 159.546632 
L 161.442917 159.546632 
L 161.442917 153.236464 
L 161.734513 153.236464 
L 161.734513 151.515508 
L 162.517456 151.515508 
L 162.517456 149.794553 
L 162.833584 149.794553 
L 162.833584 149.220902 
L 163.041197 149.220902 
L 163.061823 143.484384 
L 163.307451 143.484384 
L 163.348054 141.763429 
L 163.609699 141.763429 
L 163.609699 140.616126 
L 164.19892 140.616126 
L 164.295217 138.895171 
L 164.524182 138.895171 
L 164.524182 137.747867 
L 164.693955 137.747867 
L 164.712717 136.026912 
L 165.625977 136.026912 
L 165.625977 133.732305 
L 166.099947 133.732305 
L 166.099947 132.01135 
L 166.493781 132.01135 
L 166.493781 129.143091 
L 166.695783 129.143091 
L 166.695783 128.56944 
L 167.529106 128.56944 
L 167.529106 127.422136 
L 167.813965 127.422136 
L 167.813965 125.127529 
L 168.686493 125.127529 
L 168.686493 122.832923 
L 169.201398 122.832923 
L 169.27373 114.228147 
L 169.331381 114.228147 
L 169.331381 113.080843 
L 169.743743 113.080843 
L 169.743743 110.786236 
L 170.063995 110.786236 
L 170.063995 109.638933 
L 170.58055 109.638933 
L 170.674059 107.917978 
L 170.713981 107.917978 
L 170.713981 106.197023 
L 170.859585 106.197023 
L 170.912232 104.476068 
L 171.069226 104.476068 
L 171.069226 102.755112 
L 171.237722 102.755112 
L 171.237722 102.181461 
L 171.519214 102.181461 
L 171.519214 100.460506 
L 171.908303 100.460506 
L 172.00732 96.444944 
L 172.044307 96.444944 
L 172.105778 93.003033 
L 172.179258 93.003033 
L 172.179258 92.429381 
L 172.325296 92.429381 
L 172.397859 85.545561 
L 172.62567 85.545561 
L 172.62567 82.677302 
L 173.564801 82.677302 
L 173.564801 82.103651 
L 173.677313 82.103651 
L 173.677313 80.956347 
L 174.185719 80.956347 
L 174.272644 78.66174 
L 174.466655 78.66174 
L 174.466655 73.498875 
L 175.727626 73.498875 
L 175.727626 71.77792 
L 176.23856 71.77792 
L 176.277249 67.188706 
L 176.363988 67.188706 
L 176.363988 65.467751 
L 177.199282 65.467751 
L 177.199282 62.02584 
L 177.426892 62.02584 
L 177.517111 59.157582 
L 178.153265 59.157582 
L 178.153265 58.58393 
L 178.900534 58.58393 
L 178.900534 57.436627 
L 179.074226 57.436627 
L 179.074226 56.289323 
L 179.648977 56.289323 
L 179.648977 55.14202 
L 180.58684 55.14202 
L 180.58684 54.568368 
L 180.707163 54.568368 
L 180.781946 52.273761 
L 181.34005 52.273761 
L 181.34005 51.700109 
L 181.491165 51.700109 
L 181.491165 51.126458 
L 185.351075 51.126458 
L 185.351075 50.552806 
L 185.714761 50.552806 
L 185.798914 49.405503 
L 185.916051 49.405503 
L 185.916051 48.831851 
L 186.032405 48.831851 
L 186.032405 48.258199 
L 186.246454 48.258199 
L 186.26826 46.537244 
L 186.463296 46.537244 
L 186.495591 43.668985 
L 186.576068 43.668985 
L 186.592119 42.521682 
L 187.009561 42.521682 
L 187.025218 39.653423 
L 188.312018 39.653423 
L 188.312018 39.079772 
L 189.126156 39.079772 
L 189.126156 37.358817 
L 189.582589 37.358817 
L 189.641057 35.637861 
L 189.72616 35.637861 
L 189.72616 35.06421 
L 189.846385 35.06421 
L 189.846385 34.490558 
L 190.652819 34.490558 
L 190.712036 32.769603 
L 190.87176 32.769603 
L 190.97605 31.622299 
L 191.038326 31.622299 
L 191.050754 30.474996 
L 191.407381 30.474996 
L 191.451957 28.754041 
L 191.580988 28.754041 
L 191.580988 28.180389 
L 191.923102 28.180389 
L 191.923102 27.606737 
L 192.06825 27.606737 
L 192.06825 27.033086 
L 192.358815 27.033086 
L 192.381852 25.31213 
L 192.970385 25.31213 
L 192.970385 24.738479 
L 193.173234 24.738479 
L 193.173234 24.164827 
L 193.341096 24.164827 
L 193.341096 23.591175 
L 193.700533 23.591175 
L 193.782166 21.87022 
L 193.944295 21.87022 
L 193.944295 20.722917 
L 194.201989 20.722917 
L 194.201989 20.149265 
L 194.45593 20.149265 
L 194.45593 19.575613 
L 194.83004 19.575613 
L 194.83004 19.001962 
L 195.284231 19.001962 
L 195.284231 18.42831 
L 195.519792 18.42831 
L 195.519792 17.854658 
L 196.161685 17.854658 
L 196.161685 16.707355 
L 196.637082 16.707355 
L 196.637082 16.133703 
L 197.231106 16.133703 
L 197.231106 15.560051 
L 197.91207 15.560051 
L 197.91207 14.9864 
L 198.72017 14.9864 
L 198.72017 14.412748 
L 199.563793 14.412748 
L 199.563793 13.839096 
L 200.659724 13.839096 
L 200.743069 12.691793 
L 200.983713 12.691793 
L 201.004787 11.544489 
L 202.272755 11.544489 
L 202.340084 9.823534 
L 203.099355 9.823534 
L 203.099355 9.249882 
L 203.305666 9.249882 
L 203.383429 8.102579 
L 208.064883 8.102579 
L 208.156747 6.955275 
L 212.284509 6.955275 
L 212.284509 6.381624 
L 338.688 6.381624 
L 338.688 6.381624 
" style="fill:none;stroke:#ff7500;stroke-linecap:square;stroke-width:1.5;"/>
   </g>
   <g id="line2d_41">
    <defs>
     <path d="M 0 -6 
L -1.347084 -1.854102 
L -5.706339 -1.854102 
L -2.179628 0.708204 
L -3.526712 4.854102 
L -0 2.291796 
L 3.526712 4.854102 
L 2.179628 0.708204 
L 5.706339 -1.854102 
L 1.347084 -1.854102 
z
" id="m775a7686a4" style="stroke:#ff7500;stroke-linejoin:bevel;stroke-width:1.5;"/>
    </defs>
    <g>
     <use style="fill-opacity:0;stroke:#ff7500;stroke-linejoin:bevel;stroke-width:1.5;" x="92.73846" xlink:href="#m775a7686a4" y="255.346469"/>
     <use style="fill-opacity:0;stroke:#ff7500;stroke-linejoin:bevel;stroke-width:1.5;" x="136.645276" xlink:href="#m775a7686a4" y="196.833994"/>
     <use style="fill-opacity:0;stroke:#ff7500;stroke-linejoin:bevel;stroke-width:1.5;" x="189.72616" xlink:href="#m775a7686a4" y="35.06421"/>
     <use style="fill-opacity:0;stroke:#ff7500;stroke-linejoin:bevel;stroke-width:1.5;" x="212.284509" xlink:href="#m775a7686a4" y="6.955275"/>
     <use style="fill-opacity:0;stroke:#ff7500;stroke-linejoin:bevel;stroke-width:1.5;" x="212.284509" xlink:href="#m775a7686a4" y="6.381624"/>
     <use style="fill-opacity:0;stroke:#ff7500;stroke-linejoin:bevel;stroke-width:1.5;" x="338.688" xlink:href="#m775a7686a4" y="6.381624"/>
    </g>
   </g>
   <g id="line2d_42">
    <path style="fill:none;stroke:#ff7500;stroke-linecap:square;stroke-width:1.5;"/>
    <g/>
   </g>
   <g id="line2d_43">
    <path clip-path="url(#p07c477b493)" d="M 185.709137 50.552806 
" style="fill:none;stroke:#ff7500;stroke-linecap:square;stroke-width:1.5;"/>
    <defs>
     <path d="M -12 12 
L 12 -12 
M -12 -12 
L 12 12 
" id="mf22933f99e" style="stroke:#ff7500;"/>
    </defs>
    <g clip-path="url(#p07c477b493)">
     <use style="fill:#ff7500;stroke:#ff7500;" x="185.709137" xlink:href="#mf22933f99e" y="50.552806"/>
    </g>
   </g>
   <g id="line2d_44">
    <defs>
     <path d="M 0 1.5 
C 0.397805 1.5 0.77937 1.341951 1.06066 1.06066 
C 1.341951 0.77937 1.5 0.397805 1.5 0 
C 1.5 -0.397805 1.341951 -0.77937 1.06066 -1.06066 
C 0.77937 -1.341951 0.397805 -1.5 0 -1.5 
C -0.397805 -1.5 -0.77937 -1.341951 -1.06066 -1.06066 
C -1.341951 -0.77937 -1.5 -0.397805 -1.5 0 
C -1.5 0.397805 -1.341951 0.77937 -1.06066 1.06066 
C -0.77937 1.341951 -0.397805 1.5 0 1.5 
z
" id="m5ea09b8a4f" style="stroke:#6495ed;"/>
    </defs>
    <g>
     <use style="fill:#6495ed;stroke:#6495ed;" x="239.184444" xlink:href="#m5ea09b8a4f" y="6.381624"/>
     <use style="fill:#6495ed;stroke:#6495ed;" x="239.184444" xlink:href="#m5ea09b8a4f" y="6.381624"/>
    </g>
   </g>
   <g id="line2d_45">
    <path d="M 45.512012 298.944 
L 45.512012 285.176359 
L 57.6 285.176359 
L 57.6 278.292538 
L 64.67102 278.292538 
L 64.67102 275.997931 
L 69.687988 275.997931 
L 69.687988 273.703324 
L 73.579452 273.703324 
L 73.579452 273.129673 
L 79.447285 273.129673 
L 79.447285 271.982369 
L 81.775977 271.982369 
L 81.775977 269.687762 
L 83.830028 269.687762 
L 83.830028 267.966807 
L 85.66744 267.966807 
L 85.66744 267.393156 
L 88.846997 267.393156 
L 88.846997 265.6722 
L 93.863965 265.6722 
L 93.863965 262.803942 
L 97.755429 262.803942 
L 97.755429 262.23029 
L 98.606294 262.23029 
L 98.606294 261.656638 
L 100.192776 261.656638 
L 100.192776 259.935683 
L 102.330873 259.935683 
L 102.330873 259.362031 
L 104.23523 259.362031 
L 104.23523 258.78838 
L 105.398279 258.78838 
L 105.398279 258.214728 
L 107.009204 258.214728 
L 107.009204 257.067425 
L 109.401893 257.067425 
L 109.401893 256.493773 
L 114.080224 256.493773 
L 114.080224 255.920121 
L 120.093994 255.920121 
L 120.093994 254.772818 
L 121.264855 254.772818 
L 121.264855 254.199166 
L 123.790603 254.199166 
L 123.790603 253.625514 
L 124.557288 253.625514 
L 124.557288 252.478211 
L 127.325746 252.478211 
L 127.325746 251.330907 
L 129.002426 251.330907 
L 129.002426 250.757256 
L 130.127931 250.757256 
L 130.127931 249.609952 
L 130.926816 249.609952 
L 130.926816 249.036301 
L 131.185181 249.036301 
L 131.185181 246.741694 
L 134.236034 246.741694 
L 134.236034 245.59439 
L 135.878591 245.59439 
L 135.878591 243.873435 
L 137.469333 243.873435 
L 137.469333 243.299783 
L 141.80232 243.299783 
L 141.80232 242.726132 
L 143.590833 242.726132 
L 143.590833 242.15248 
L 146.749392 242.15248 
L 146.749392 239.857873 
L 156.717545 239.857873 
L 156.717545 238.71057 
L 164.333587 238.71057 
L 164.333587 238.136918 
L 165.175324 238.136918 
L 165.175324 237.563266 
L 166.306535 237.563266 
L 166.306535 236.415963 
L 172.373705 236.415963 
L 172.373705 235.842311 
L 174.890216 235.842311 
L 174.890216 235.268659 
L 176.734949 235.268659 
L 176.734949 234.695008 
L 177.996389 234.695008 
L 177.996389 234.121356 
L 178.135904 234.121356 
L 178.135904 232.974052 
L 178.783772 232.974052 
L 178.783772 231.826749 
L 183.915425 231.826749 
L 183.915425 230.679446 
L 187.740671 230.679446 
L 187.740671 230.105794 
L 191.685128 230.105794 
L 191.685128 229.532142 
L 193.253717 229.532142 
L 193.253717 228.95849 
L 194.537502 228.95849 
L 194.537502 228.384839 
L 195.436258 228.384839 
L 195.436258 227.811187 
L 196.955821 227.811187 
L 196.955821 227.237535 
L 198.326258 227.237535 
L 198.326258 225.51658 
L 199.893629 225.51658 
L 199.893629 224.942928 
L 201.377549 224.942928 
L 201.443854 223.795625 
L 202.060385 223.795625 
L 202.060385 222.648321 
L 202.413631 222.648321 
L 202.473967 221.501018 
L 202.681389 221.501018 
L 202.721731 220.353715 
L 203.051556 220.353715 
L 203.11595 218.632759 
L 203.342545 218.632759 
L 203.430328 216.911804 
L 203.501455 216.911804 
L 203.501455 216.338153 
L 203.858764 216.338153 
L 203.858764 214.617197 
L 204.032743 214.617197 
L 204.06419 213.469894 
L 204.216687 213.469894 
L 204.325355 211.175287 
L 204.37365 211.175287 
L 204.37365 210.601635 
L 204.489015 210.601635 
L 204.592195 208.307029 
L 204.708021 208.307029 
L 204.708021 207.159725 
L 204.956057 207.159725 
L 205.060228 204.291467 
L 205.30334 204.291467 
L 205.308826 203.144163 
L 205.427268 203.144163 
L 205.454488 201.423208 
L 205.566545 201.423208 
L 205.672515 197.981298 
L 205.783185 197.981298 
L 205.815183 196.260342 
L 205.928483 196.260342 
L 206.023511 194.539387 
L 206.208554 194.539387 
L 206.236315 192.24478 
L 206.331409 192.24478 
L 206.391654 190.523825 
L 206.66275 190.523825 
L 206.715118 187.655567 
L 206.829441 187.655567 
L 206.914694 183.640005 
L 206.994554 183.640005 
L 206.994554 183.066353 
L 207.108715 183.066353 
L 207.161406 180.198094 
L 207.325049 180.198094 
L 207.368971 177.903487 
L 207.5033 177.903487 
L 207.599765 175.608881 
L 207.639802 175.608881 
L 207.639802 174.461577 
L 207.837038 174.461577 
L 207.890732 173.314274 
L 207.98822 173.314274 
L 208.007025 172.16697 
L 208.134992 172.16697 
L 208.215658 169.872363 
L 208.269743 169.872363 
L 208.326736 168.72506 
L 208.495085 168.72506 
L 208.555902 167.577757 
L 208.627093 167.577757 
L 208.687452 165.28315 
L 208.746102 165.28315 
L 208.797072 164.135846 
L 208.883679 164.135846 
L 208.931278 162.988543 
L 209.020179 162.988543 
L 209.129202 159.546632 
L 209.225868 159.546632 
L 209.225868 158.399329 
L 209.345225 158.399329 
L 209.345225 157.825677 
L 209.721204 157.825677 
L 209.743904 156.678374 
L 209.869636 156.678374 
L 209.91041 154.957419 
L 210.115638 154.957419 
L 210.182132 151.515508 
L 210.285523 151.515508 
L 210.359587 148.64725 
L 210.451046 148.64725 
L 210.451046 148.073598 
L 210.602869 148.073598 
L 210.693065 145.778991 
L 210.739997 145.778991 
L 210.822825 143.484384 
L 210.856112 143.484384 
L 210.911893 141.763429 
L 210.980708 141.763429 
L 211.02819 139.468822 
L 211.135865 139.468822 
L 211.171173 135.45326 
L 211.257184 135.45326 
L 211.266282 133.158653 
L 211.39831 133.158653 
L 211.436952 130.864047 
L 211.647968 130.864047 
L 211.755685 127.422136 
L 211.794805 127.422136 
L 211.905379 126.274833 
L 211.959156 126.274833 
L 212.056283 122.259271 
L 212.156577 122.259271 
L 212.250158 120.538316 
L 212.32613 120.538316 
L 212.428535 117.670057 
L 212.502525 117.670057 
L 212.609919 113.080843 
L 212.618337 113.080843 
L 212.721436 111.93354 
L 212.812043 111.93354 
L 212.812043 110.212585 
L 212.929368 110.212585 
L 212.975371 107.917978 
L 213.092776 107.917978 
L 213.112656 106.197023 
L 213.205908 106.197023 
L 213.316002 103.902416 
L 213.337937 103.902416 
L 213.42196 100.460506 
L 213.479277 100.460506 
L 213.568317 98.165899 
L 213.620616 98.165899 
L 213.667098 97.018595 
L 213.757439 97.018595 
L 213.781077 94.723988 
L 213.909954 94.723988 
L 213.926694 93.576685 
L 214.048966 93.576685 
L 214.137356 89.561123 
L 214.250502 89.561123 
L 214.268013 87.266516 
L 214.387923 87.266516 
L 214.484342 84.971909 
L 214.529659 84.971909 
L 214.572708 82.677302 
L 214.870057 82.677302 
L 214.879565 81.529999 
L 215.058194 81.529999 
L 215.155146 78.66174 
L 215.204975 78.66174 
L 215.204975 77.514437 
L 215.322753 77.514437 
L 215.395706 74.072526 
L 215.487745 74.072526 
L 215.489784 72.925223 
L 215.65119 72.925223 
L 215.755961 70.630616 
L 215.839127 70.630616 
L 215.947746 68.909661 
L 216.116797 68.909661 
L 216.176707 67.762358 
L 216.339679 67.762358 
L 216.339679 66.615054 
L 216.464532 66.615054 
L 216.464532 66.041402 
L 216.614334 66.041402 
L 216.67542 64.320447 
L 216.799794 64.320447 
L 216.896024 63.173144 
L 216.976748 63.173144 
L 217.05244 61.452189 
L 217.091558 61.452189 
L 217.168606 59.731234 
L 217.339124 59.731234 
L 217.428782 58.010278 
L 217.622977 58.010278 
L 217.648227 55.715672 
L 217.946631 55.715672 
L 218.050847 53.994716 
L 218.273954 53.994716 
L 218.340766 52.273761 
L 218.525119 52.273761 
L 218.614012 49.979154 
L 218.648933 49.979154 
L 218.716022 47.684547 
L 218.768493 47.684547 
L 218.836808 44.816289 
L 218.921618 44.816289 
L 219.021849 40.227075 
L 219.034337 40.227075 
L 219.114881 38.50612 
L 219.171949 38.50612 
L 219.250217 37.358817 
L 219.32568 37.358817 
L 219.411409 35.637861 
L 219.491855 35.637861 
L 219.583226 32.769603 
L 219.644411 32.769603 
L 219.72939 30.474996 
L 219.808386 30.474996 
L 219.908412 28.754041 
L 219.98345 28.754041 
L 220.00944 27.606737 
L 220.152091 27.606737 
L 220.247064 25.31213 
L 226.100918 25.31213 
L 226.151902 24.164827 
L 226.262225 24.164827 
L 226.262225 23.591175 
L 226.437303 23.591175 
L 226.538266 22.443872 
L 226.71168 22.443872 
L 226.71168 21.87022 
L 226.996574 21.87022 
L 227.074951 20.149265 
L 227.121599 20.149265 
L 227.121599 19.575613 
L 227.286743 19.575613 
L 227.286743 19.001962 
L 227.477028 19.001962 
L 227.494457 17.854658 
L 228.037225 17.854658 
L 228.037225 17.281006 
L 228.222485 17.281006 
L 228.302891 15.560051 
L 228.342468 15.560051 
L 228.342468 14.9864 
L 228.772458 14.9864 
L 228.808609 13.265444 
L 228.948695 13.265444 
L 228.948695 12.691793 
L 229.139496 12.691793 
L 229.139496 12.118141 
L 229.707355 12.118141 
L 229.707355 10.970838 
L 229.86952 10.970838 
L 229.957827 9.823534 
L 230.506524 9.823534 
L 230.506524 9.249882 
L 230.656329 9.249882 
L 230.656329 8.676231 
L 231.827373 8.676231 
L 231.827373 8.102579 
L 232.346694 8.102579 
L 232.346694 7.528927 
L 237.597363 7.528927 
L 237.597363 6.955275 
L 239.184444 6.955275 
L 239.184444 6.381624 
L 338.688 6.381624 
L 338.688 6.381624 
" style="fill:none;stroke:#6495ed;stroke-linecap:square;stroke-width:1.5;"/>
   </g>
   <g id="line2d_46">
    <defs>
     <path d="M -0 6 
L 6 -6 
L -6 -6 
z
" id="mf17a578d80" style="stroke:#6495ed;stroke-linejoin:miter;stroke-width:1.5;"/>
    </defs>
    <g>
     <use style="fill-opacity:0;stroke:#6495ed;stroke-linejoin:miter;stroke-width:1.5;" x="102.330873" xlink:href="#mf17a578d80" y="259.935683"/>
     <use style="fill-opacity:0;stroke:#6495ed;stroke-linejoin:miter;stroke-width:1.5;" x="174.890216" xlink:href="#mf17a578d80" y="235.268659"/>
     <use style="fill-opacity:0;stroke:#6495ed;stroke-linejoin:miter;stroke-width:1.5;" x="211.436952" xlink:href="#mf17a578d80" y="130.864047"/>
     <use style="fill-opacity:0;stroke:#6495ed;stroke-linejoin:miter;stroke-width:1.5;" x="239.184444" xlink:href="#mf17a578d80" y="6.955275"/>
     <use style="fill-opacity:0;stroke:#6495ed;stroke-linejoin:miter;stroke-width:1.5;" x="239.184444" xlink:href="#mf17a578d80" y="6.381624"/>
     <use style="fill-opacity:0;stroke:#6495ed;stroke-linejoin:miter;stroke-width:1.5;" x="338.688" xlink:href="#mf17a578d80" y="6.381624"/>
    </g>
   </g>
   <g id="line2d_47">
    <path style="fill:none;stroke:#6495ed;stroke-linecap:square;stroke-width:1.5;"/>
    <g/>
   </g>
   <g id="line2d_48">
    <path clip-path="url(#p07c477b493)" d="M 220.275766 25.31213 
" style="fill:none;stroke:#6495ed;stroke-linecap:square;stroke-width:1.5;"/>
    <defs>
     <path d="M -12 12 
L 12 -12 
M -12 -12 
L 12 12 
" id="m5e753058ff" style="stroke:#6495ed;"/>
    </defs>
    <g clip-path="url(#p07c477b493)">
     <use style="fill:#6495ed;stroke:#6495ed;" x="220.275766" xlink:href="#m5e753058ff" y="25.31213"/>
    </g>
   </g>
   <g id="line2d_49">
    <defs>
     <path d="M 0 1.5 
C 0.397805 1.5 0.77937 1.341951 1.06066 1.06066 
C 1.341951 0.77937 1.5 0.397805 1.5 0 
C 1.5 -0.397805 1.341951 -0.77937 1.06066 -1.06066 
C 0.77937 -1.341951 0.397805 -1.5 0 -1.5 
C -0.397805 -1.5 -0.77937 -1.341951 -1.06066 -1.06066 
C -1.341951 -0.77937 -1.5 -0.397805 -1.5 0 
C -1.5 0.397805 -1.341951 0.77937 -1.06066 1.06066 
C -0.77937 1.341951 -0.397805 1.5 0 1.5 
z
" id="m531730c5e0" style="stroke:#ff0000;"/>
    </defs>
    <g>
     <use style="fill:#ff0000;stroke:#ff0000;" x="286.609906" xlink:href="#m531730c5e0" y="6.381624"/>
     <use style="fill:#ff0000;stroke:#ff0000;" x="286.609906" xlink:href="#m531730c5e0" y="6.381624"/>
    </g>
   </g>
   <g id="line2d_50">
    <path d="M 45.512012 298.944 
L 45.512012 282.881752 
L 57.6 282.881752 
L 57.6 278.292538 
L 64.67102 278.292538 
L 64.67102 273.129673 
L 83.830028 273.129673 
L 83.830028 271.408718 
L 87.329581 271.408718 
L 87.329581 270.261414 
L 88.846997 270.261414 
L 88.846997 269.687762 
L 91.535274 269.687762 
L 91.535274 269.114111 
L 93.863965 269.114111 
L 93.863965 268.540459 
L 95.918017 268.540459 
L 95.918017 266.245852 
L 100.192776 266.245852 
L 100.192776 265.6722 
L 100.934985 265.6722 
L 100.934985 265.098549 
L 103.623262 265.098549 
L 103.623262 262.803942 
L 107.009204 262.803942 
L 107.009204 262.23029 
L 109.401893 262.23029 
L 109.401893 261.656638 
L 110.274038 261.656638 
L 110.274038 261.082987 
L 122.148045 261.082987 
L 122.148045 259.935683 
L 127.165014 259.935683 
L 127.165014 259.362031 
L 128.856489 259.362031 
L 128.856489 257.641076 
L 129.574256 257.641076 
L 129.574256 256.493773 
L 133.46572 256.493773 
L 133.46572 255.346469 
L 136.738785 255.346469 
L 136.738785 254.772818 
L 137.469333 254.772818 
L 137.469333 254.199166 
L 139.172077 254.199166 
L 139.172077 253.625514 
L 142.686372 253.625514 
L 142.686372 251.904559 
L 145.832743 251.904559 
L 145.832743 250.757256 
L 147.061745 250.757256 
L 147.061745 250.183604 
L 149.332295 250.183604 
L 149.332295 249.609952 
L 150.682827 249.609952 
L 150.682827 248.462649 
L 152.091608 248.462649 
L 152.091608 247.315345 
L 152.587184 247.315345 
L 152.587184 246.741694 
L 153.069065 246.741694 
L 153.069065 246.168042 
L 157.557108 246.168042 
L 157.557108 245.59439 
L 165.518877 245.59439 
L 165.518877 244.447087 
L 167.207042 244.447087 
L 167.207042 242.726132 
L 170.324185 242.726132 
L 170.324185 242.15248 
L 172.031987 242.15248 
L 172.031987 241.578828 
L 174.207491 241.578828 
L 174.207491 240.431525 
L 174.466655 240.431525 
L 174.466655 239.857873 
L 175.232072 239.857873 
L 175.232072 239.284221 
L 176.354372 239.284221 
L 176.354372 238.71057 
L 177.864572 238.71057 
L 177.864572 238.136918 
L 178.716697 238.136918 
L 178.716697 237.563266 
L 183.254622 237.563266 
L 183.254622 236.989614 
L 191.042469 236.989614 
L 191.042469 235.842311 
L 191.264786 235.842311 
L 191.264786 234.695008 
L 191.516592 234.695008 
L 191.516592 232.974052 
L 192.366497 232.974052 
L 192.366497 232.400401 
L 193.15856 232.400401 
L 193.15856 231.253097 
L 193.337464 231.253097 
L 193.337464 230.679446 
L 193.700533 230.679446 
L 193.700533 227.811187 
L 194.442298 227.811187 
L 194.459336 225.51658 
L 195.39434 225.51658 
L 195.39434 224.942928 
L 197.268838 224.942928 
L 197.268838 224.369277 
L 201.002447 224.369277 
L 201.002447 223.795625 
L 206.395091 223.795625 
L 206.395091 223.221973 
L 207.930107 223.221973 
L 207.930107 222.648321 
L 208.052389 222.648321 
L 208.052389 222.07467 
L 208.207918 222.07467 
L 208.207918 221.501018 
L 210.99523 221.501018 
L 210.99523 220.927366 
L 211.338891 220.927366 
L 211.338891 220.353715 
L 211.655593 220.353715 
L 211.722807 219.206411 
L 212.141755 219.206411 
L 212.141755 218.632759 
L 212.555701 218.632759 
L 212.615932 217.485456 
L 212.735774 217.485456 
L 212.735774 216.911804 
L 213.207071 216.911804 
L 213.233787 215.764501 
L 213.331013 215.764501 
L 213.331013 215.190849 
L 213.446056 215.190849 
L 213.464392 214.043546 
L 213.680679 214.043546 
L 213.680679 213.469894 
L 214.132947 213.469894 
L 214.223107 211.748939 
L 214.352037 211.748939 
L 214.352037 211.175287 
L 214.933346 211.175287 
L 214.998505 210.027984 
L 215.103088 210.027984 
L 215.103088 209.454332 
L 215.349504 209.454332 
L 215.437695 208.307029 
L 215.694585 208.307029 
L 215.694585 207.159725 
L 215.808111 207.159725 
L 215.866096 206.012422 
L 216.191408 206.012422 
L 216.191408 205.43877 
L 216.602856 205.43877 
L 216.602856 204.865118 
L 217.412349 204.865118 
L 217.412349 204.291467 
L 217.613951 204.291467 
L 217.613951 203.717815 
L 218.654888 203.717815 
L 218.654888 203.144163 
L 219.010185 203.144163 
L 219.010185 202.570511 
L 219.656461 202.570511 
L 219.718991 201.423208 
L 219.878306 201.423208 
L 219.878306 200.849556 
L 220.062875 200.849556 
L 220.062875 200.275904 
L 220.313703 200.275904 
L 220.313703 199.702253 
L 220.961237 199.702253 
L 221.045243 197.981298 
L 221.767262 197.981298 
L 221.767262 197.407646 
L 221.990673 197.407646 
L 221.990673 196.833994 
L 222.114572 196.833994 
L 222.114572 196.260342 
L 222.608332 196.260342 
L 222.608332 195.686691 
L 222.940775 195.686691 
L 222.940775 195.113039 
L 223.261775 195.113039 
L 223.261775 194.539387 
L 223.391909 194.539387 
L 223.391909 193.965736 
L 223.596845 193.965736 
L 223.596845 193.392084 
L 223.997125 193.392084 
L 223.997125 192.818432 
L 224.656356 192.818432 
L 224.656356 192.24478 
L 224.822568 192.24478 
L 224.822568 191.671129 
L 225.47144 191.671129 
L 225.47144 191.097477 
L 225.696112 191.097477 
L 225.759048 189.950174 
L 225.977833 189.950174 
L 226.02862 188.80287 
L 226.233608 188.80287 
L 226.267723 187.655567 
L 226.41933 187.655567 
L 226.41933 187.081915 
L 226.635956 187.081915 
L 226.727749 185.934612 
L 226.850456 185.934612 
L 226.850456 185.36096 
L 226.988137 185.36096 
L 226.988137 184.787308 
L 227.113745 184.787308 
L 227.166034 183.640005 
L 227.347819 183.640005 
L 227.347819 183.066353 
L 227.941104 183.066353 
L 227.941104 182.492701 
L 228.289679 182.492701 
L 228.357103 181.345398 
L 228.484398 181.345398 
L 228.484398 180.771746 
L 229.283897 180.771746 
L 229.283897 180.198094 
L 229.503534 180.198094 
L 229.503534 179.624443 
L 229.639981 179.624443 
L 229.639981 179.050791 
L 229.845358 179.050791 
L 229.845358 178.477139 
L 230.484093 178.477139 
L 230.527204 176.756184 
L 230.618677 176.756184 
L 230.701574 175.608881 
L 231.240522 175.608881 
L 231.240522 175.035229 
L 231.533978 175.035229 
L 231.533978 174.461577 
L 231.938122 174.461577 
L 232.036329 173.314274 
L 232.709858 173.314274 
L 232.709858 172.740622 
L 232.857779 172.740622 
L 232.857779 171.593319 
L 233.168423 171.593319 
L 233.23417 170.446015 
L 233.450341 170.446015 
L 233.544397 169.298712 
L 233.769655 169.298712 
L 233.769655 168.72506 
L 234.034701 168.72506 
L 234.079364 167.577757 
L 234.409881 167.577757 
L 234.51742 165.856801 
L 234.585789 165.856801 
L 234.585789 165.28315 
L 235.052696 165.28315 
L 235.119002 162.988543 
L 235.253163 162.988543 
L 235.318713 161.267588 
L 235.446806 161.267588 
L 235.446806 160.693936 
L 236.302279 160.693936 
L 236.386793 158.972981 
L 236.460179 158.972981 
L 236.545154 157.825677 
L 236.671541 157.825677 
L 236.671541 157.252026 
L 236.885456 157.252026 
L 236.885456 156.678374 
L 237.242112 156.678374 
L 237.293892 155.53107 
L 237.525736 155.53107 
L 237.525736 154.957419 
L 237.783533 154.957419 
L 237.783533 154.383767 
L 238.148902 154.383767 
L 238.148902 153.810115 
L 238.29376 153.810115 
L 238.29376 153.236464 
L 238.428395 153.236464 
L 238.428395 152.662812 
L 238.588055 152.662812 
L 238.696474 150.368205 
L 238.723406 150.368205 
L 238.770706 148.64725 
L 238.883866 148.64725 
L 238.950668 145.778991 
L 239.100898 145.778991 
L 239.100898 145.20534 
L 239.474001 145.20534 
L 239.579627 144.058036 
L 239.704472 144.058036 
L 239.704472 143.484384 
L 239.82843 143.484384 
L 239.894232 142.337081 
L 240.072736 142.337081 
L 240.122481 140.616126 
L 240.248692 140.616126 
L 240.248692 140.042474 
L 240.360036 140.042474 
L 240.360036 139.468822 
L 240.68698 139.468822 
L 240.68698 138.895171 
L 241.038569 138.895171 
L 241.038569 138.321519 
L 241.179161 138.321519 
L 241.179161 137.747867 
L 241.932227 137.747867 
L 241.932227 137.174215 
L 242.156679 137.174215 
L 242.227925 136.026912 
L 242.463401 136.026912 
L 242.463401 135.45326 
L 242.91635 135.45326 
L 242.91635 134.879609 
L 243.040121 134.879609 
L 243.040121 133.732305 
L 243.408306 133.732305 
L 243.408306 133.158653 
L 243.537224 133.158653 
L 243.537224 132.585002 
L 243.880958 132.585002 
L 243.880958 132.01135 
L 244.103376 132.01135 
L 244.143853 130.864047 
L 244.413528 130.864047 
L 244.422459 129.716743 
L 244.529465 129.716743 
L 244.637352 128.56944 
L 244.947086 128.56944 
L 244.948781 127.422136 
L 245.07843 127.422136 
L 245.136096 126.274833 
L 245.574523 126.274833 
L 245.653379 125.127529 
L 245.807877 125.127529 
L 245.807877 124.553878 
L 246.29177 124.553878 
L 246.29177 123.980226 
L 246.694407 123.980226 
L 246.707011 122.832923 
L 246.87257 122.832923 
L 246.957869 121.685619 
L 246.994083 121.685619 
L 247.09262 118.243709 
L 247.122239 118.243709 
L 247.122239 117.670057 
L 247.390664 117.670057 
L 247.424194 116.522754 
L 247.666788 116.522754 
L 247.767856 114.228147 
L 247.792351 114.228147 
L 247.792351 113.654495 
L 247.919876 113.654495 
L 247.999109 112.507192 
L 248.077982 112.507192 
L 248.156658 110.212585 
L 248.35901 110.212585 
L 248.454462 108.49163 
L 248.58979 108.49163 
L 248.593305 107.344326 
L 248.729535 107.344326 
L 248.821024 105.623371 
L 248.967762 105.623371 
L 249.033744 104.476068 
L 249.155348 104.476068 
L 249.222099 103.328764 
L 249.413399 103.328764 
L 249.454463 101.607809 
L 249.588196 101.607809 
L 249.671279 100.460506 
L 249.78682 100.460506 
L 249.823029 99.313202 
L 250.012673 99.313202 
L 250.012673 98.73955 
L 250.137734 98.73955 
L 250.137734 98.165899 
L 250.312932 98.165899 
L 250.312932 97.592247 
L 250.443975 97.592247 
L 250.54305 95.871292 
L 250.921519 95.871292 
L 250.921519 95.29764 
L 251.199417 95.29764 
L 251.199417 94.723988 
L 251.471273 94.723988 
L 251.535934 93.003033 
L 251.638895 93.003033 
L 251.638895 92.429381 
L 251.792206 92.429381 
L 251.792206 91.85573 
L 251.98285 91.85573 
L 252.069824 90.134775 
L 252.157237 90.134775 
L 252.157237 89.561123 
L 252.308918 89.561123 
L 252.308918 88.987471 
L 252.587853 88.987471 
L 252.683716 86.119213 
L 252.719937 86.119213 
L 252.795996 84.971909 
L 253.351453 84.971909 
L 253.351453 84.398257 
L 253.582555 84.398257 
L 253.582555 83.824606 
L 253.871482 83.824606 
L 253.949099 80.956347 
L 254.002408 80.956347 
L 254.024022 79.809044 
L 254.213254 79.809044 
L 254.235935 78.66174 
L 254.464085 78.66174 
L 254.464085 78.088089 
L 254.817982 78.088089 
L 254.873928 76.940785 
L 254.960375 76.940785 
L 254.960375 76.367133 
L 255.378225 76.367133 
L 255.378225 75.793482 
L 255.725899 75.793482 
L 255.829843 74.072526 
L 255.880729 74.072526 
L 255.980555 72.925223 
L 256.331449 72.925223 
L 256.413519 71.77792 
L 256.801764 71.77792 
L 256.872057 70.630616 
L 256.950776 70.630616 
L 257.015476 69.483313 
L 257.069225 69.483313 
L 257.074206 68.336009 
L 257.241683 68.336009 
L 257.285367 67.188706 
L 257.368715 67.188706 
L 257.44118 66.041402 
L 257.491159 66.041402 
L 257.585123 64.894099 
L 257.70724 64.894099 
L 257.70724 64.320447 
L 257.913425 64.320447 
L 257.946347 62.02584 
L 258.159544 62.02584 
L 258.254814 59.731234 
L 258.70752 59.731234 
L 258.70752 59.157582 
L 259.16553 59.157582 
L 259.16553 58.58393 
L 259.41181 58.58393 
L 259.442679 57.436627 
L 259.656604 57.436627 
L 259.713232 56.289323 
L 259.858007 56.289323 
L 259.950116 53.421065 
L 260.050695 53.421065 
L 260.050695 52.847413 
L 260.517788 52.847413 
L 260.517788 52.273761 
L 261.027011 52.273761 
L 261.055601 51.126458 
L 261.235863 51.126458 
L 261.235863 50.552806 
L 261.360866 50.552806 
L 261.418236 49.405503 
L 261.478046 49.405503 
L 261.478046 48.831851 
L 261.894419 48.831851 
L 261.944237 47.684547 
L 262.031219 47.684547 
L 262.031219 47.110896 
L 262.196117 47.110896 
L 262.196117 46.537244 
L 262.763964 46.537244 
L 262.763964 45.963592 
L 262.956812 45.963592 
L 262.956812 45.389941 
L 263.129567 45.389941 
L 263.19253 44.242637 
L 263.597958 44.242637 
L 263.597958 43.668985 
L 263.938038 43.668985 
L 263.968881 41.94803 
L 264.195204 41.94803 
L 264.208815 40.800727 
L 264.375407 40.800727 
L 264.375407 40.227075 
L 264.651823 40.227075 
L 264.736378 38.50612 
L 265.066218 38.50612 
L 265.097325 36.785165 
L 265.285805 36.785165 
L 265.356365 35.637861 
L 265.55393 35.637861 
L 265.55393 35.06421 
L 265.929865 35.06421 
L 265.975044 33.916906 
L 266.098687 33.916906 
L 266.183492 32.769603 
L 266.253461 32.769603 
L 266.338844 31.622299 
L 266.472664 31.622299 
L 266.472664 31.048648 
L 266.807792 31.048648 
L 266.850756 29.901344 
L 266.930175 29.901344 
L 266.930175 29.327692 
L 267.123616 29.327692 
L 267.168443 28.180389 
L 267.330962 28.180389 
L 267.362243 27.033086 
L 267.971333 27.033086 
L 267.98139 25.885782 
L 268.438743 25.885782 
L 268.487107 24.738479 
L 268.681022 24.738479 
L 268.681022 24.164827 
L 268.912405 24.164827 
L 268.945258 23.017524 
L 269.657684 23.017524 
L 269.657684 22.443872 
L 269.826642 22.443872 
L 269.826642 21.87022 
L 270.360268 21.87022 
L 270.360268 21.296568 
L 271.23313 21.296568 
L 271.23313 20.722917 
L 272.144109 20.722917 
L 272.15903 19.575613 
L 272.596596 19.575613 
L 272.596596 19.001962 
L 272.83125 19.001962 
L 272.83125 18.42831 
L 273.064816 18.42831 
L 273.104622 17.281006 
L 273.278459 17.281006 
L 273.278459 16.707355 
L 273.502489 16.707355 
L 273.502489 16.133703 
L 273.720891 16.133703 
L 273.720891 15.560051 
L 274.068751 15.560051 
L 274.068751 14.9864 
L 274.276259 14.9864 
L 274.304268 13.839096 
L 275.405701 13.839096 
L 275.405701 13.265444 
L 275.591904 13.265444 
L 275.591904 12.691793 
L 277.683816 12.691793 
L 277.683816 12.118141 
L 277.915912 12.118141 
L 277.915912 11.544489 
L 279.548868 11.544489 
L 279.548868 10.970838 
L 281.062215 10.970838 
L 281.062215 10.397186 
L 281.70448 10.397186 
L 281.70448 9.823534 
L 282.614094 9.823534 
L 282.614094 9.249882 
L 283.224939 9.249882 
L 283.224939 8.676231 
L 283.365015 8.676231 
L 283.420607 7.528927 
L 285.091832 7.528927 
L 285.091832 6.955275 
L 286.609906 6.955275 
L 286.609906 6.381624 
L 338.688 6.381624 
L 338.688 6.381624 
" style="fill:none;stroke:#ff0000;stroke-linecap:square;stroke-width:1.5;"/>
   </g>
   <g id="line2d_51">
    <defs>
     <path d="M 0 -6 
L -5.196152 -3 
L -5.196152 3 
L -0 6 
L 5.196152 3 
L 5.196152 -3 
z
" id="mad44fab564" style="stroke:#ff0000;stroke-linejoin:miter;stroke-width:1.5;"/>
    </defs>
    <g>
     <use style="fill-opacity:0;stroke:#ff0000;stroke-linejoin:miter;stroke-width:1.5;" x="122.148045" xlink:href="#mad44fab564" y="261.082987"/>
     <use style="fill-opacity:0;stroke:#ff0000;stroke-linejoin:miter;stroke-width:1.5;" x="201.002447" xlink:href="#mad44fab564" y="224.369277"/>
     <use style="fill-opacity:0;stroke:#ff0000;stroke-linejoin:miter;stroke-width:1.5;" x="238.883866" xlink:href="#mad44fab564" y="148.073598"/>
     <use style="fill-opacity:0;stroke:#ff0000;stroke-linejoin:miter;stroke-width:1.5;" x="273.104622" xlink:href="#mad44fab564" y="17.281006"/>
     <use style="fill-opacity:0;stroke:#ff0000;stroke-linejoin:miter;stroke-width:1.5;" x="286.609906" xlink:href="#mad44fab564" y="6.381624"/>
     <use style="fill-opacity:0;stroke:#ff0000;stroke-linejoin:miter;stroke-width:1.5;" x="338.688" xlink:href="#mad44fab564" y="6.381624"/>
    </g>
   </g>
   <g id="line2d_52">
    <path style="fill:none;stroke:#ff0000;stroke-linecap:square;stroke-width:1.5;"/>
    <g/>
   </g>
   <g id="line2d_53">
    <path clip-path="url(#p07c477b493)" d="M 207.636603 223.221973 
" style="fill:none;stroke:#ff0000;stroke-linecap:square;stroke-width:1.5;"/>
    <defs>
     <path d="M -12 12 
L 12 -12 
M -12 -12 
L 12 12 
" id="m347271b174" style="stroke:#ff0000;"/>
    </defs>
    <g clip-path="url(#p07c477b493)">
     <use style="fill:#ff0000;stroke:#ff0000;" x="207.636603" xlink:href="#m347271b174" y="223.221973"/>
    </g>
   </g>
   <g id="line2d_54">
    <path d="M 338.688 6.381624 
L 369.60768 293.092752 
" style="fill:none;stroke:#ff0000;stroke-linecap:square;stroke-width:1.5;"/>
    <g>
     <use style="fill-opacity:0;stroke:#ff0000;stroke-linejoin:miter;stroke-width:1.5;" x="338.688" xlink:href="#mad44fab564" y="6.381624"/>
     <use style="fill-opacity:0;stroke:#ff0000;stroke-linejoin:miter;stroke-width:1.5;" x="369.60768" xlink:href="#mad44fab564" y="293.092752"/>
    </g>
   </g>
   <g id="line2d_55">
    <path d="M 338.688 6.381624 
L 369.60768 222.877782 
" style="fill:none;stroke:#6495ed;stroke-linecap:square;stroke-width:1.5;"/>
    <g>
     <use style="fill-opacity:0;stroke:#6495ed;stroke-linejoin:miter;stroke-width:1.5;" x="338.688" xlink:href="#mf17a578d80" y="6.381624"/>
     <use style="fill-opacity:0;stroke:#6495ed;stroke-linejoin:miter;stroke-width:1.5;" x="369.60768" xlink:href="#mf17a578d80" y="222.877782"/>
    </g>
   </g>
   <g id="line2d_56">
    <path d="M 338.688 6.381624 
L 369.60768 152.662812 
" style="fill:none;stroke:#000080;stroke-linecap:square;stroke-width:1.5;"/>
    <g>
     <use style="fill-opacity:0;stroke:#000080;stroke-width:1.5;" x="338.688" xlink:href="#m7fa80758ba" y="6.381624"/>
     <use style="fill-opacity:0;stroke:#000080;stroke-width:1.5;" x="369.60768" xlink:href="#m7fa80758ba" y="152.662812"/>
    </g>
   </g>
   <g id="line2d_57">
    <path d="M 338.688 6.381624 
L 369.60768 82.447842 
" style="fill:none;stroke:#ff7500;stroke-linecap:square;stroke-width:1.5;"/>
    <g>
     <use style="fill-opacity:0;stroke:#ff7500;stroke-linejoin:bevel;stroke-width:1.5;" x="338.688" xlink:href="#m775a7686a4" y="6.381624"/>
     <use style="fill-opacity:0;stroke:#ff7500;stroke-linejoin:bevel;stroke-width:1.5;" x="369.60768" xlink:href="#m775a7686a4" y="82.447842"/>
    </g>
   </g>
   <g id="line2d_58">
    <path d="M 338.688 6.381624 
L 369.60768 12.232871 
" style="fill:none;stroke:#ff00ff;stroke-linecap:square;stroke-width:1.5;"/>
    <g>
     <use style="fill-opacity:0;stroke:#ff00ff;stroke-linejoin:miter;stroke-width:1.5;" x="338.688" xlink:href="#m41bac49179" y="6.381624"/>
     <use style="fill-opacity:0;stroke:#ff00ff;stroke-linejoin:miter;stroke-width:1.5;" x="369.60768" xlink:href="#m41bac49179" y="12.232871"/>
    </g>
   </g>
   <g id="line2d_59">
    <path d="M 338.688 298.944 
L 338.688 6.381624 
" style="fill:none;stroke:#000000;stroke-linecap:square;stroke-width:1.5;"/>
   </g>
   <g id="patch_3">
    <path d="M 57.6 298.944 
L 57.6 3.456 
" style="fill:none;stroke:#000000;stroke-linecap:square;stroke-linejoin:miter;stroke-width:0.8;"/>
   </g>
   <g id="patch_4">
    <path d="M 338.688 298.944 
L 338.688 3.456 
" style="fill:none;stroke:#000000;stroke-linecap:square;stroke-linejoin:miter;stroke-width:0.8;"/>
   </g>
   <g id="patch_5">
    <path d="M 57.6 298.944 
L 338.688 298.944 
" style="fill:none;stroke:#000000;stroke-linecap:square;stroke-linejoin:miter;stroke-width:0.8;"/>
   </g>
   <g id="patch_6">
    <path d="M 57.6 3.456 
L 338.688 3.456 
" style="fill:none;stroke:#000000;stroke-linecap:square;stroke-linejoin:miter;stroke-width:0.8;"/>
   </g>
   <g id="text_13">
    <!-- f24 -->
    <g transform="translate(375.22944 297.78369)scale(0.17 -0.17)">
     <use xlink:href="#DejaVuSans-66"/>
     <use x="35.205078" xlink:href="#DejaVuSans-32"/>
     <use x="98.828125" xlink:href="#DejaVuSans-34"/>
    </g>
   </g>
   <g id="text_14">
    <!-- f23 -->
    <g transform="translate(375.22944 227.56872)scale(0.17 -0.17)">
     <defs>
      <path d="M 2597 2516 
Q 3050 2419 3304 2112 
Q 3559 1806 3559 1356 
Q 3559 666 3084 287 
Q 2609 -91 1734 -91 
Q 1441 -91 1130 -33 
Q 819 25 488 141 
L 488 750 
Q 750 597 1062 519 
Q 1375 441 1716 441 
Q 2309 441 2620 675 
Q 2931 909 2931 1356 
Q 2931 1769 2642 2001 
Q 2353 2234 1838 2234 
L 1294 2234 
L 1294 2753 
L 1863 2753 
Q 2328 2753 2575 2939 
Q 2822 3125 2822 3475 
Q 2822 3834 2567 4026 
Q 2313 4219 1838 4219 
Q 1578 4219 1281 4162 
Q 984 4106 628 3988 
L 628 4550 
Q 988 4650 1302 4700 
Q 1616 4750 1894 4750 
Q 2613 4750 3031 4423 
Q 3450 4097 3450 3541 
Q 3450 3153 3228 2886 
Q 3006 2619 2597 2516 
z
" id="DejaVuSans-33" transform="scale(0.015625)"/>
     </defs>
     <use xlink:href="#DejaVuSans-66"/>
     <use x="35.205078" xlink:href="#DejaVuSans-32"/>
     <use x="98.828125" xlink:href="#DejaVuSans-33"/>
    </g>
   </g>
   <g id="text_15">
    <!-- f20 -->
    <g transform="translate(375.22944 157.353749)scale(0.17 -0.17)">
     <use xlink:href="#DejaVuSans-66"/>
     <use x="35.205078" xlink:href="#DejaVuSans-32"/>
     <use x="98.828125" xlink:href="#DejaVuSans-30"/>
    </g>
   </g>
   <g id="text_16">
    <!-- f22 -->
    <g transform="translate(375.22944 87.138779)scale(0.17 -0.17)">
     <use xlink:href="#DejaVuSans-66"/>
     <use x="35.205078" xlink:href="#DejaVuSans-32"/>
     <use x="98.828125" xlink:href="#DejaVuSans-32"/>
    </g>
   </g>
   <g id="text_17">
    <!-- f21 -->
    <g transform="translate(375.22944 16.923809)scale(0.17 -0.17)">
     <use xlink:href="#DejaVuSans-66"/>
     <use x="35.205078" xlink:href="#DejaVuSans-32"/>
     <use x="98.828125" xlink:href="#DejaVuSans-31"/>
    </g>
   </g>
   <g id="text_18">
    <!-- bbob -->
    <g transform="translate(60.41088 14.161286)scale(0.102 -0.102)">
     <defs>
      <path d="M 3116 1747 
Q 3116 2381 2855 2742 
Q 2594 3103 2138 3103 
Q 1681 3103 1420 2742 
Q 1159 2381 1159 1747 
Q 1159 1113 1420 752 
Q 1681 391 2138 391 
Q 2594 391 2855 752 
Q 3116 1113 3116 1747 
z
M 1159 2969 
Q 1341 3281 1617 3432 
Q 1894 3584 2278 3584 
Q 2916 3584 3314 3078 
Q 3713 2572 3713 1747 
Q 3713 922 3314 415 
Q 2916 -91 2278 -91 
Q 1894 -91 1617 61 
Q 1341 213 1159 525 
L 1159 0 
L 581 0 
L 581 4863 
L 1159 4863 
L 1159 2969 
z
" id="DejaVuSans-62" transform="scale(0.015625)"/>
     </defs>
     <use xlink:href="#DejaVuSans-62"/>
     <use x="63.476562" xlink:href="#DejaVuSans-62"/>
     <use x="126.953125" xlink:href="#DejaVuSans-6f"/>
     <use x="188.134766" xlink:href="#DejaVuSans-62"/>
    </g>
    <!-- Weak structure functions, 2-D -->
    <g transform="translate(60.41088 25.583055)scale(0.102 -0.102)">
     <defs>
      <path d="M 213 4666 
L 850 4666 
L 1831 722 
L 2809 4666 
L 3519 4666 
L 4500 722 
L 5478 4666 
L 6119 4666 
L 4947 0 
L 4153 0 
L 3169 4050 
L 2175 0 
L 1381 0 
L 213 4666 
z
" id="DejaVuSans-57" transform="scale(0.015625)"/>
      <path d="M 581 4863 
L 1159 4863 
L 1159 1991 
L 2875 3500 
L 3609 3500 
L 1753 1863 
L 3688 0 
L 2938 0 
L 1159 1709 
L 1159 0 
L 581 0 
L 581 4863 
z
" id="DejaVuSans-6b" transform="scale(0.015625)"/>
      <path d="M 1259 4147 
L 1259 519 
L 2022 519 
Q 2988 519 3436 956 
Q 3884 1394 3884 2338 
Q 3884 3275 3436 3711 
Q 2988 4147 2022 4147 
L 1259 4147 
z
M 628 4666 
L 1925 4666 
Q 3281 4666 3915 4102 
Q 4550 3538 4550 2338 
Q 4550 1131 3912 565 
Q 3275 0 1925 0 
L 628 0 
L 628 4666 
z
" id="DejaVuSans-44" transform="scale(0.015625)"/>
     </defs>
     <use xlink:href="#DejaVuSans-57"/>
     <use x="93.001953" xlink:href="#DejaVuSans-65"/>
     <use x="154.525391" xlink:href="#DejaVuSans-61"/>
     <use x="215.804688" xlink:href="#DejaVuSans-6b"/>
     <use x="273.714844" xlink:href="#DejaVuSans-20"/>
     <use x="305.501953" xlink:href="#DejaVuSans-73"/>
     <use x="357.601562" xlink:href="#DejaVuSans-74"/>
     <use x="396.810547" xlink:href="#DejaVuSans-72"/>
     <use x="437.923828" xlink:href="#DejaVuSans-75"/>
     <use x="501.302734" xlink:href="#DejaVuSans-63"/>
     <use x="556.283203" xlink:href="#DejaVuSans-74"/>
     <use x="595.492188" xlink:href="#DejaVuSans-75"/>
     <use x="658.871094" xlink:href="#DejaVuSans-72"/>
     <use x="697.734375" xlink:href="#DejaVuSans-65"/>
     <use x="759.257812" xlink:href="#DejaVuSans-20"/>
     <use x="791.044922" xlink:href="#DejaVuSans-66"/>
     <use x="826.25" xlink:href="#DejaVuSans-75"/>
     <use x="889.628906" xlink:href="#DejaVuSans-6e"/>
     <use x="953.007812" xlink:href="#DejaVuSans-63"/>
     <use x="1007.988281" xlink:href="#DejaVuSans-74"/>
     <use x="1047.197266" xlink:href="#DejaVuSans-69"/>
     <use x="1074.980469" xlink:href="#DejaVuSans-6f"/>
     <use x="1136.162109" xlink:href="#DejaVuSans-6e"/>
     <use x="1199.541016" xlink:href="#DejaVuSans-73"/>
     <use x="1251.640625" xlink:href="#DejaVuSans-2c"/>
     <use x="1283.427734" xlink:href="#DejaVuSans-20"/>
     <use x="1315.214844" xlink:href="#DejaVuSans-32"/>
     <use x="1378.837891" xlink:href="#DejaVuSans-2d"/>
     <use x="1414.921875" xlink:href="#DejaVuSans-44"/>
    </g>
    <!-- 51 targets: 100..1e-08 -->
    <g transform="translate(60.41088 37.004824)scale(0.102 -0.102)">
     <defs>
      <path d="M 691 4666 
L 3169 4666 
L 3169 4134 
L 1269 4134 
L 1269 2991 
Q 1406 3038 1543 3061 
Q 1681 3084 1819 3084 
Q 2600 3084 3056 2656 
Q 3513 2228 3513 1497 
Q 3513 744 3044 326 
Q 2575 -91 1722 -91 
Q 1428 -91 1123 -41 
Q 819 9 494 109 
L 494 744 
Q 775 591 1075 516 
Q 1375 441 1709 441 
Q 2250 441 2565 725 
Q 2881 1009 2881 1497 
Q 2881 1984 2565 2268 
Q 2250 2553 1709 2553 
Q 1456 2553 1204 2497 
Q 953 2441 691 2322 
L 691 4666 
z
" id="DejaVuSans-35" transform="scale(0.015625)"/>
      <path d="M 750 794 
L 1409 794 
L 1409 0 
L 750 0 
L 750 794 
z
M 750 3309 
L 1409 3309 
L 1409 2516 
L 750 2516 
L 750 3309 
z
" id="DejaVuSans-3a" transform="scale(0.015625)"/>
     </defs>
     <use xlink:href="#DejaVuSans-35"/>
     <use x="63.623047" xlink:href="#DejaVuSans-31"/>
     <use x="127.246094" xlink:href="#DejaVuSans-20"/>
     <use x="159.033203" xlink:href="#DejaVuSans-74"/>
     <use x="198.242188" xlink:href="#DejaVuSans-61"/>
     <use x="259.521484" xlink:href="#DejaVuSans-72"/>
     <use x="298.884766" xlink:href="#DejaVuSans-67"/>
     <use x="362.361328" xlink:href="#DejaVuSans-65"/>
     <use x="423.884766" xlink:href="#DejaVuSans-74"/>
     <use x="463.09375" xlink:href="#DejaVuSans-73"/>
     <use x="515.193359" xlink:href="#DejaVuSans-3a"/>
     <use x="548.884766" xlink:href="#DejaVuSans-20"/>
     <use x="580.671875" xlink:href="#DejaVuSans-31"/>
     <use x="644.294922" xlink:href="#DejaVuSans-30"/>
     <use x="707.917969" xlink:href="#DejaVuSans-30"/>
     <use x="771.541016" xlink:href="#DejaVuSans-2e"/>
     <use x="803.328125" xlink:href="#DejaVuSans-2e"/>
     <use x="835.115234" xlink:href="#DejaVuSans-31"/>
     <use x="898.738281" xlink:href="#DejaVuSans-65"/>
     <use x="960.261719" xlink:href="#DejaVuSans-2d"/>
     <use x="996.345703" xlink:href="#DejaVuSans-30"/>
     <use x="1059.96875" xlink:href="#DejaVuSans-38"/>
    </g>
    <!-- 15 instances -->
    <g transform="translate(60.41088 48.426593)scale(0.102 -0.102)">
     <use xlink:href="#DejaVuSans-31"/>
     <use x="63.623047" xlink:href="#DejaVuSans-35"/>
     <use x="127.246094" xlink:href="#DejaVuSans-20"/>
     <use x="159.033203" xlink:href="#DejaVuSans-69"/>
     <use x="186.816406" xlink:href="#DejaVuSans-6e"/>
     <use x="250.195312" xlink:href="#DejaVuSans-73"/>
     <use x="302.294922" xlink:href="#DejaVuSans-74"/>
     <use x="341.503906" xlink:href="#DejaVuSans-61"/>
     <use x="402.783203" xlink:href="#DejaVuSans-6e"/>
     <use x="466.162109" xlink:href="#DejaVuSans-63"/>
     <use x="521.142578" xlink:href="#DejaVuSans-65"/>
     <use x="582.666016" xlink:href="#DejaVuSans-73"/>
    </g>
   </g>
   <g id="text_19">
    <!-- v2.4 -->
    <g style="fill:#808080;" transform="translate(187.233062 293.909432)scale(0.1 -0.1)">
     <use xlink:href="#DejaVuSans-76"/>
     <use x="59.179688" xlink:href="#DejaVuSans-32"/>
     <use x="122.802734" xlink:href="#DejaVuSans-2e"/>
     <use x="154.589844" xlink:href="#DejaVuSans-34"/>
    </g>
   </g>
  </g>
 </g>
 <defs>
  <clipPath id="p07c477b493">
   <rect height="295.488" width="281.088" x="57.6" y="3.456"/>
  </clipPath>
 </defs>
</svg>
