<?xml version="1.0" encoding="utf-8" standalone="no"?>
<!DOCTYPE svg PUBLIC "-//W3C//DTD SVG 1.1//EN"
  "http://www.w3.org/Graphics/SVG/1.1/DTD/svg11.dtd">
<svg height="345.6pt" version="1.1" viewBox="0 0 460.8 345.6" width="460.8pt" xmlns="http://www.w3.org/2000/svg" xmlns:xlink="http://www.w3.org/1999/xlink">
 <metadata>
  <rdf:RDF xmlns:cc="http://creativecommons.org/ns#" xmlns:dc="http://purl.org/dc/elements/1.1/" xmlns:rdf="http://www.w3.org/1999/02/22-rdf-syntax-ns#">
   <cc:Work>
    <dc:type rdf:resource="http://purl.org/dc/dcmitype/StillImage"/>
    <dc:date>2021-07-27T16:03:48.157869</dc:date>
    <dc:format>image/svg+xml</dc:format>
    <dc:creator>
     <cc:Agent>
      <dc:title>Matplotlib v3.4.2, https://matplotlib.org/</dc:title>
     </cc:Agent>
    </dc:creator>
   </cc:Work>
  </rdf:RDF>
 </metadata>
 <defs>
  <style type="text/css">*{stroke-linecap:butt;stroke-linejoin:round;}</style>
 </defs>
 <g id="figure_1">
  <g id="patch_1">
   <path d="M 0 345.6 
L 460.8 345.6 
L 460.8 0 
L 0 0 
z
" style="fill:#ffffff;"/>
  </g>
  <g id="axes_1">
   <g id="patch_2">
    <path d="M 57.6 298.944 
L 338.688 298.944 
L 338.688 27.648 
L 57.6 27.648 
z
" style="fill:#ffffff;"/>
   </g>
   <g id="matplotlib.axis_1">
    <g id="xtick_1">
     <g id="line2d_1">
      <path clip-path="url(#p89b3fec4c7)" d="M 57.6 298.944 
L 57.6 27.648 
" style="fill:none;stroke:#b0b0b0;stroke-linecap:square;stroke-width:0.8;"/>
     </g>
     <g id="line2d_2">
      <defs>
       <path d="M 0 0 
L 0 3.5 
" id="m3d7dddf047" style="stroke:#000000;stroke-width:0.8;"/>
      </defs>
      <g>
       <use style="stroke:#000000;stroke-width:0.8;" x="57.6" xlink:href="#m3d7dddf047" y="298.944"/>
      </g>
     </g>
     <g id="text_1">
      <!-- 0 -->
      <g transform="translate(51.2375 321.140875)scale(0.2 -0.2)">
       <defs>
        <path d="M 2034 4250 
Q 1547 4250 1301 3770 
Q 1056 3291 1056 2328 
Q 1056 1369 1301 889 
Q 1547 409 2034 409 
Q 2525 409 2770 889 
Q 3016 1369 3016 2328 
Q 3016 3291 2770 3770 
Q 2525 4250 2034 4250 
z
M 2034 4750 
Q 2819 4750 3233 4129 
Q 3647 3509 3647 2328 
Q 3647 1150 3233 529 
Q 2819 -91 2034 -91 
Q 1250 -91 836 529 
Q 422 1150 422 2328 
Q 422 3509 836 4129 
Q 1250 4750 2034 4750 
z
" id="DejaVuSans-30" transform="scale(0.015625)"/>
       </defs>
       <use xlink:href="#DejaVuSans-30"/>
      </g>
     </g>
    </g>
    <g id="xtick_2">
     <g id="line2d_3">
      <path clip-path="url(#p89b3fec4c7)" d="M 137.910857 298.944 
L 137.910857 27.648 
" style="fill:none;stroke:#b0b0b0;stroke-linecap:square;stroke-width:0.8;"/>
     </g>
     <g id="line2d_4">
      <g>
       <use style="stroke:#000000;stroke-width:0.8;" x="137.910857" xlink:href="#m3d7dddf047" y="298.944"/>
      </g>
     </g>
     <g id="text_2">
      <!-- 2 -->
      <g transform="translate(131.548357 321.140875)scale(0.2 -0.2)">
       <defs>
        <path d="M 1228 531 
L 3431 531 
L 3431 0 
L 469 0 
L 469 531 
Q 828 903 1448 1529 
Q 2069 2156 2228 2338 
Q 2531 2678 2651 2914 
Q 2772 3150 2772 3378 
Q 2772 3750 2511 3984 
Q 2250 4219 1831 4219 
Q 1534 4219 1204 4116 
Q 875 4013 500 3803 
L 500 4441 
Q 881 4594 1212 4672 
Q 1544 4750 1819 4750 
Q 2544 4750 2975 4387 
Q 3406 4025 3406 3419 
Q 3406 3131 3298 2873 
Q 3191 2616 2906 2266 
Q 2828 2175 2409 1742 
Q 1991 1309 1228 531 
z
" id="DejaVuSans-32" transform="scale(0.015625)"/>
       </defs>
       <use xlink:href="#DejaVuSans-32"/>
      </g>
     </g>
    </g>
    <g id="xtick_3">
     <g id="line2d_5">
      <path clip-path="url(#p89b3fec4c7)" d="M 218.221714 298.944 
L 218.221714 27.648 
" style="fill:none;stroke:#b0b0b0;stroke-linecap:square;stroke-width:0.8;"/>
     </g>
     <g id="line2d_6">
      <g>
       <use style="stroke:#000000;stroke-width:0.8;" x="218.221714" xlink:href="#m3d7dddf047" y="298.944"/>
      </g>
     </g>
     <g id="text_3">
      <!-- 4 -->
      <g transform="translate(211.859214 321.140875)scale(0.2 -0.2)">
       <defs>
        <path d="M 2419 4116 
L 825 1625 
L 2419 1625 
L 2419 4116 
z
M 2253 4666 
L 3047 4666 
L 3047 1625 
L 3713 1625 
L 3713 1100 
L 3047 1100 
L 3047 0 
L 2419 0 
L 2419 1100 
L 313 1100 
L 313 1709 
L 2253 4666 
z
" id="DejaVuSans-34" transform="scale(0.015625)"/>
       </defs>
       <use xlink:href="#DejaVuSans-34"/>
      </g>
     </g>
    </g>
    <g id="xtick_4">
     <g id="line2d_7">
      <path clip-path="url(#p89b3fec4c7)" d="M 298.532571 298.944 
L 298.532571 27.648 
" style="fill:none;stroke:#b0b0b0;stroke-linecap:square;stroke-width:0.8;"/>
     </g>
     <g id="line2d_8">
      <g>
       <use style="stroke:#000000;stroke-width:0.8;" x="298.532571" xlink:href="#m3d7dddf047" y="298.944"/>
      </g>
     </g>
     <g id="text_4">
      <!-- 6 -->
      <g transform="translate(292.170071 321.140875)scale(0.2 -0.2)">
       <defs>
        <path d="M 2113 2584 
Q 1688 2584 1439 2293 
Q 1191 2003 1191 1497 
Q 1191 994 1439 701 
Q 1688 409 2113 409 
Q 2538 409 2786 701 
Q 3034 994 3034 1497 
Q 3034 2003 2786 2293 
Q 2538 2584 2113 2584 
z
M 3366 4563 
L 3366 3988 
Q 3128 4100 2886 4159 
Q 2644 4219 2406 4219 
Q 1781 4219 1451 3797 
Q 1122 3375 1075 2522 
Q 1259 2794 1537 2939 
Q 1816 3084 2150 3084 
Q 2853 3084 3261 2657 
Q 3669 2231 3669 1497 
Q 3669 778 3244 343 
Q 2819 -91 2113 -91 
Q 1303 -91 875 529 
Q 447 1150 447 2328 
Q 447 3434 972 4092 
Q 1497 4750 2381 4750 
Q 2619 4750 2861 4703 
Q 3103 4656 3366 4563 
z
" id="DejaVuSans-36" transform="scale(0.015625)"/>
       </defs>
       <use xlink:href="#DejaVuSans-36"/>
      </g>
     </g>
    </g>
    <g id="xtick_5">
     <g id="line2d_9">
      <path clip-path="url(#p89b3fec4c7)" d="M 97.755429 298.944 
L 97.755429 27.648 
" style="fill:none;stroke:#b0b0b0;stroke-linecap:square;stroke-width:0.8;"/>
     </g>
     <g id="line2d_10">
      <defs>
       <path d="M 0 0 
L 0 2 
" id="m382f734bbf" style="stroke:#000000;stroke-width:0.6;"/>
      </defs>
      <g>
       <use style="stroke:#000000;stroke-width:0.6;" x="97.755429" xlink:href="#m382f734bbf" y="298.944"/>
      </g>
     </g>
    </g>
    <g id="xtick_6">
     <g id="line2d_11">
      <path clip-path="url(#p89b3fec4c7)" d="M 178.066286 298.944 
L 178.066286 27.648 
" style="fill:none;stroke:#b0b0b0;stroke-linecap:square;stroke-width:0.8;"/>
     </g>
     <g id="line2d_12">
      <g>
       <use style="stroke:#000000;stroke-width:0.6;" x="178.066286" xlink:href="#m382f734bbf" y="298.944"/>
      </g>
     </g>
    </g>
    <g id="xtick_7">
     <g id="line2d_13">
      <path clip-path="url(#p89b3fec4c7)" d="M 258.377143 298.944 
L 258.377143 27.648 
" style="fill:none;stroke:#b0b0b0;stroke-linecap:square;stroke-width:0.8;"/>
     </g>
     <g id="line2d_14">
      <g>
       <use style="stroke:#000000;stroke-width:0.6;" x="258.377143" xlink:href="#m382f734bbf" y="298.944"/>
      </g>
     </g>
    </g>
    <g id="xtick_8">
     <g id="line2d_15">
      <path clip-path="url(#p89b3fec4c7)" d="M 338.688 298.944 
L 338.688 27.648 
" style="fill:none;stroke:#b0b0b0;stroke-linecap:square;stroke-width:0.8;"/>
     </g>
     <g id="line2d_16">
      <g>
       <use style="stroke:#000000;stroke-width:0.6;" x="338.688" xlink:href="#m382f734bbf" y="298.944"/>
      </g>
     </g>
    </g>
    <g id="text_5">
     <!-- log10(# f-evals / dimension) -->
     <g transform="translate(77.764078 342.217594)scale(0.17 -0.17)">
      <defs>
       <path d="M 603 4863 
L 1178 4863 
L 1178 0 
L 603 0 
L 603 4863 
z
" id="DejaVuSans-6c" transform="scale(0.015625)"/>
       <path d="M 1959 3097 
Q 1497 3097 1228 2736 
Q 959 2375 959 1747 
Q 959 1119 1226 758 
Q 1494 397 1959 397 
Q 2419 397 2687 759 
Q 2956 1122 2956 1747 
Q 2956 2369 2687 2733 
Q 2419 3097 1959 3097 
z
M 1959 3584 
Q 2709 3584 3137 3096 
Q 3566 2609 3566 1747 
Q 3566 888 3137 398 
Q 2709 -91 1959 -91 
Q 1206 -91 779 398 
Q 353 888 353 1747 
Q 353 2609 779 3096 
Q 1206 3584 1959 3584 
z
" id="DejaVuSans-6f" transform="scale(0.015625)"/>
       <path d="M 2906 1791 
Q 2906 2416 2648 2759 
Q 2391 3103 1925 3103 
Q 1463 3103 1205 2759 
Q 947 2416 947 1791 
Q 947 1169 1205 825 
Q 1463 481 1925 481 
Q 2391 481 2648 825 
Q 2906 1169 2906 1791 
z
M 3481 434 
Q 3481 -459 3084 -895 
Q 2688 -1331 1869 -1331 
Q 1566 -1331 1297 -1286 
Q 1028 -1241 775 -1147 
L 775 -588 
Q 1028 -725 1275 -790 
Q 1522 -856 1778 -856 
Q 2344 -856 2625 -561 
Q 2906 -266 2906 331 
L 2906 616 
Q 2728 306 2450 153 
Q 2172 0 1784 0 
Q 1141 0 747 490 
Q 353 981 353 1791 
Q 353 2603 747 3093 
Q 1141 3584 1784 3584 
Q 2172 3584 2450 3431 
Q 2728 3278 2906 2969 
L 2906 3500 
L 3481 3500 
L 3481 434 
z
" id="DejaVuSans-67" transform="scale(0.015625)"/>
       <path d="M 794 531 
L 1825 531 
L 1825 4091 
L 703 3866 
L 703 4441 
L 1819 4666 
L 2450 4666 
L 2450 531 
L 3481 531 
L 3481 0 
L 794 0 
L 794 531 
z
" id="DejaVuSans-31" transform="scale(0.015625)"/>
       <path d="M 1984 4856 
Q 1566 4138 1362 3434 
Q 1159 2731 1159 2009 
Q 1159 1288 1364 580 
Q 1569 -128 1984 -844 
L 1484 -844 
Q 1016 -109 783 600 
Q 550 1309 550 2009 
Q 550 2706 781 3412 
Q 1013 4119 1484 4856 
L 1984 4856 
z
" id="DejaVuSans-28" transform="scale(0.015625)"/>
       <path d="M 3272 2816 
L 2363 2816 
L 2100 1772 
L 3016 1772 
L 3272 2816 
z
M 2803 4594 
L 2478 3297 
L 3391 3297 
L 3719 4594 
L 4219 4594 
L 3897 3297 
L 4872 3297 
L 4872 2816 
L 3775 2816 
L 3519 1772 
L 4513 1772 
L 4513 1294 
L 3397 1294 
L 3072 0 
L 2572 0 
L 2894 1294 
L 1978 1294 
L 1656 0 
L 1153 0 
L 1478 1294 
L 494 1294 
L 494 1772 
L 1594 1772 
L 1856 2816 
L 850 2816 
L 850 3297 
L 1978 3297 
L 2297 4594 
L 2803 4594 
z
" id="DejaVuSans-23" transform="scale(0.015625)"/>
       <path id="DejaVuSans-20" transform="scale(0.015625)"/>
       <path d="M 2375 4863 
L 2375 4384 
L 1825 4384 
Q 1516 4384 1395 4259 
Q 1275 4134 1275 3809 
L 1275 3500 
L 2222 3500 
L 2222 3053 
L 1275 3053 
L 1275 0 
L 697 0 
L 697 3053 
L 147 3053 
L 147 3500 
L 697 3500 
L 697 3744 
Q 697 4328 969 4595 
Q 1241 4863 1831 4863 
L 2375 4863 
z
" id="DejaVuSans-66" transform="scale(0.015625)"/>
       <path d="M 313 2009 
L 1997 2009 
L 1997 1497 
L 313 1497 
L 313 2009 
z
" id="DejaVuSans-2d" transform="scale(0.015625)"/>
       <path d="M 3597 1894 
L 3597 1613 
L 953 1613 
Q 991 1019 1311 708 
Q 1631 397 2203 397 
Q 2534 397 2845 478 
Q 3156 559 3463 722 
L 3463 178 
Q 3153 47 2828 -22 
Q 2503 -91 2169 -91 
Q 1331 -91 842 396 
Q 353 884 353 1716 
Q 353 2575 817 3079 
Q 1281 3584 2069 3584 
Q 2775 3584 3186 3129 
Q 3597 2675 3597 1894 
z
M 3022 2063 
Q 3016 2534 2758 2815 
Q 2500 3097 2075 3097 
Q 1594 3097 1305 2825 
Q 1016 2553 972 2059 
L 3022 2063 
z
" id="DejaVuSans-65" transform="scale(0.015625)"/>
       <path d="M 191 3500 
L 800 3500 
L 1894 563 
L 2988 3500 
L 3597 3500 
L 2284 0 
L 1503 0 
L 191 3500 
z
" id="DejaVuSans-76" transform="scale(0.015625)"/>
       <path d="M 2194 1759 
Q 1497 1759 1228 1600 
Q 959 1441 959 1056 
Q 959 750 1161 570 
Q 1363 391 1709 391 
Q 2188 391 2477 730 
Q 2766 1069 2766 1631 
L 2766 1759 
L 2194 1759 
z
M 3341 1997 
L 3341 0 
L 2766 0 
L 2766 531 
Q 2569 213 2275 61 
Q 1981 -91 1556 -91 
Q 1019 -91 701 211 
Q 384 513 384 1019 
Q 384 1609 779 1909 
Q 1175 2209 1959 2209 
L 2766 2209 
L 2766 2266 
Q 2766 2663 2505 2880 
Q 2244 3097 1772 3097 
Q 1472 3097 1187 3025 
Q 903 2953 641 2809 
L 641 3341 
Q 956 3463 1253 3523 
Q 1550 3584 1831 3584 
Q 2591 3584 2966 3190 
Q 3341 2797 3341 1997 
z
" id="DejaVuSans-61" transform="scale(0.015625)"/>
       <path d="M 2834 3397 
L 2834 2853 
Q 2591 2978 2328 3040 
Q 2066 3103 1784 3103 
Q 1356 3103 1142 2972 
Q 928 2841 928 2578 
Q 928 2378 1081 2264 
Q 1234 2150 1697 2047 
L 1894 2003 
Q 2506 1872 2764 1633 
Q 3022 1394 3022 966 
Q 3022 478 2636 193 
Q 2250 -91 1575 -91 
Q 1294 -91 989 -36 
Q 684 19 347 128 
L 347 722 
Q 666 556 975 473 
Q 1284 391 1588 391 
Q 1994 391 2212 530 
Q 2431 669 2431 922 
Q 2431 1156 2273 1281 
Q 2116 1406 1581 1522 
L 1381 1569 
Q 847 1681 609 1914 
Q 372 2147 372 2553 
Q 372 3047 722 3315 
Q 1072 3584 1716 3584 
Q 2034 3584 2315 3537 
Q 2597 3491 2834 3397 
z
" id="DejaVuSans-73" transform="scale(0.015625)"/>
       <path d="M 1625 4666 
L 2156 4666 
L 531 -594 
L 0 -594 
L 1625 4666 
z
" id="DejaVuSans-2f" transform="scale(0.015625)"/>
       <path d="M 2906 2969 
L 2906 4863 
L 3481 4863 
L 3481 0 
L 2906 0 
L 2906 525 
Q 2725 213 2448 61 
Q 2172 -91 1784 -91 
Q 1150 -91 751 415 
Q 353 922 353 1747 
Q 353 2572 751 3078 
Q 1150 3584 1784 3584 
Q 2172 3584 2448 3432 
Q 2725 3281 2906 2969 
z
M 947 1747 
Q 947 1113 1208 752 
Q 1469 391 1925 391 
Q 2381 391 2643 752 
Q 2906 1113 2906 1747 
Q 2906 2381 2643 2742 
Q 2381 3103 1925 3103 
Q 1469 3103 1208 2742 
Q 947 2381 947 1747 
z
" id="DejaVuSans-64" transform="scale(0.015625)"/>
       <path d="M 603 3500 
L 1178 3500 
L 1178 0 
L 603 0 
L 603 3500 
z
M 603 4863 
L 1178 4863 
L 1178 4134 
L 603 4134 
L 603 4863 
z
" id="DejaVuSans-69" transform="scale(0.015625)"/>
       <path d="M 3328 2828 
Q 3544 3216 3844 3400 
Q 4144 3584 4550 3584 
Q 5097 3584 5394 3201 
Q 5691 2819 5691 2113 
L 5691 0 
L 5113 0 
L 5113 2094 
Q 5113 2597 4934 2840 
Q 4756 3084 4391 3084 
Q 3944 3084 3684 2787 
Q 3425 2491 3425 1978 
L 3425 0 
L 2847 0 
L 2847 2094 
Q 2847 2600 2669 2842 
Q 2491 3084 2119 3084 
Q 1678 3084 1418 2786 
Q 1159 2488 1159 1978 
L 1159 0 
L 581 0 
L 581 3500 
L 1159 3500 
L 1159 2956 
Q 1356 3278 1631 3431 
Q 1906 3584 2284 3584 
Q 2666 3584 2933 3390 
Q 3200 3197 3328 2828 
z
" id="DejaVuSans-6d" transform="scale(0.015625)"/>
       <path d="M 3513 2113 
L 3513 0 
L 2938 0 
L 2938 2094 
Q 2938 2591 2744 2837 
Q 2550 3084 2163 3084 
Q 1697 3084 1428 2787 
Q 1159 2491 1159 1978 
L 1159 0 
L 581 0 
L 581 3500 
L 1159 3500 
L 1159 2956 
Q 1366 3272 1645 3428 
Q 1925 3584 2291 3584 
Q 2894 3584 3203 3211 
Q 3513 2838 3513 2113 
z
" id="DejaVuSans-6e" transform="scale(0.015625)"/>
       <path d="M 513 4856 
L 1013 4856 
Q 1481 4119 1714 3412 
Q 1947 2706 1947 2009 
Q 1947 1309 1714 600 
Q 1481 -109 1013 -844 
L 513 -844 
Q 928 -128 1133 580 
Q 1338 1288 1338 2009 
Q 1338 2731 1133 3434 
Q 928 4138 513 4856 
z
" id="DejaVuSans-29" transform="scale(0.015625)"/>
      </defs>
      <use xlink:href="#DejaVuSans-6c"/>
      <use x="27.783203" xlink:href="#DejaVuSans-6f"/>
      <use x="88.964844" xlink:href="#DejaVuSans-67"/>
      <use x="152.441406" xlink:href="#DejaVuSans-31"/>
      <use x="216.064453" xlink:href="#DejaVuSans-30"/>
      <use x="279.6875" xlink:href="#DejaVuSans-28"/>
      <use x="318.701172" xlink:href="#DejaVuSans-23"/>
      <use x="402.490234" xlink:href="#DejaVuSans-20"/>
      <use x="434.277344" xlink:href="#DejaVuSans-66"/>
      <use x="463.982422" xlink:href="#DejaVuSans-2d"/>
      <use x="500.066406" xlink:href="#DejaVuSans-65"/>
      <use x="561.589844" xlink:href="#DejaVuSans-76"/>
      <use x="620.769531" xlink:href="#DejaVuSans-61"/>
      <use x="682.048828" xlink:href="#DejaVuSans-6c"/>
      <use x="709.832031" xlink:href="#DejaVuSans-73"/>
      <use x="761.931641" xlink:href="#DejaVuSans-20"/>
      <use x="793.71875" xlink:href="#DejaVuSans-2f"/>
      <use x="827.410156" xlink:href="#DejaVuSans-20"/>
      <use x="859.197266" xlink:href="#DejaVuSans-64"/>
      <use x="922.673828" xlink:href="#DejaVuSans-69"/>
      <use x="950.457031" xlink:href="#DejaVuSans-6d"/>
      <use x="1047.869141" xlink:href="#DejaVuSans-65"/>
      <use x="1109.392578" xlink:href="#DejaVuSans-6e"/>
      <use x="1172.771484" xlink:href="#DejaVuSans-73"/>
      <use x="1224.871094" xlink:href="#DejaVuSans-69"/>
      <use x="1252.654297" xlink:href="#DejaVuSans-6f"/>
      <use x="1313.835938" xlink:href="#DejaVuSans-6e"/>
      <use x="1377.214844" xlink:href="#DejaVuSans-29"/>
     </g>
    </g>
   </g>
   <g id="matplotlib.axis_2">
    <g id="ytick_1">
     <g id="line2d_17">
      <path clip-path="url(#p89b3fec4c7)" d="M 57.6 298.944 
L 338.688 298.944 
" style="fill:none;stroke:#b0b0b0;stroke-linecap:square;stroke-width:0.8;"/>
     </g>
     <g id="line2d_18">
      <defs>
       <path d="M 0 0 
L -3.5 0 
" id="m5a27365c38" style="stroke:#000000;stroke-width:0.8;"/>
      </defs>
      <g>
       <use style="stroke:#000000;stroke-width:0.8;" x="57.6" xlink:href="#m5a27365c38" y="298.944"/>
      </g>
     </g>
     <g id="text_6">
      <!-- 0.0 -->
      <g transform="translate(25.155 305.02275)scale(0.16 -0.16)">
       <defs>
        <path d="M 684 794 
L 1344 794 
L 1344 0 
L 684 0 
L 684 794 
z
" id="DejaVuSans-2e" transform="scale(0.015625)"/>
       </defs>
       <use xlink:href="#DejaVuSans-30"/>
       <use x="63.623047" xlink:href="#DejaVuSans-2e"/>
       <use x="95.410156" xlink:href="#DejaVuSans-30"/>
      </g>
     </g>
    </g>
    <g id="ytick_2">
     <g id="line2d_19">
      <path clip-path="url(#p89b3fec4c7)" d="M 57.6 245.22202 
L 338.688 245.22202 
" style="fill:none;stroke:#b0b0b0;stroke-linecap:square;stroke-width:0.8;"/>
     </g>
     <g id="line2d_20">
      <g>
       <use style="stroke:#000000;stroke-width:0.8;" x="57.6" xlink:href="#m5a27365c38" y="245.22202"/>
      </g>
     </g>
     <g id="text_7">
      <!-- 0.2 -->
      <g transform="translate(25.155 251.30077)scale(0.16 -0.16)">
       <use xlink:href="#DejaVuSans-30"/>
       <use x="63.623047" xlink:href="#DejaVuSans-2e"/>
       <use x="95.410156" xlink:href="#DejaVuSans-32"/>
      </g>
     </g>
    </g>
    <g id="ytick_3">
     <g id="line2d_21">
      <path clip-path="url(#p89b3fec4c7)" d="M 57.6 191.50004 
L 338.688 191.50004 
" style="fill:none;stroke:#b0b0b0;stroke-linecap:square;stroke-width:0.8;"/>
     </g>
     <g id="line2d_22">
      <g>
       <use style="stroke:#000000;stroke-width:0.8;" x="57.6" xlink:href="#m5a27365c38" y="191.50004"/>
      </g>
     </g>
     <g id="text_8">
      <!-- 0.4 -->
      <g transform="translate(25.155 197.57879)scale(0.16 -0.16)">
       <use xlink:href="#DejaVuSans-30"/>
       <use x="63.623047" xlink:href="#DejaVuSans-2e"/>
       <use x="95.410156" xlink:href="#DejaVuSans-34"/>
      </g>
     </g>
    </g>
    <g id="ytick_4">
     <g id="line2d_23">
      <path clip-path="url(#p89b3fec4c7)" d="M 57.6 137.778059 
L 338.688 137.778059 
" style="fill:none;stroke:#b0b0b0;stroke-linecap:square;stroke-width:0.8;"/>
     </g>
     <g id="line2d_24">
      <g>
       <use style="stroke:#000000;stroke-width:0.8;" x="57.6" xlink:href="#m5a27365c38" y="137.778059"/>
      </g>
     </g>
     <g id="text_9">
      <!-- 0.6 -->
      <g transform="translate(25.155 143.856809)scale(0.16 -0.16)">
       <use xlink:href="#DejaVuSans-30"/>
       <use x="63.623047" xlink:href="#DejaVuSans-2e"/>
       <use x="95.410156" xlink:href="#DejaVuSans-36"/>
      </g>
     </g>
    </g>
    <g id="ytick_5">
     <g id="line2d_25">
      <path clip-path="url(#p89b3fec4c7)" d="M 57.6 84.056079 
L 338.688 84.056079 
" style="fill:none;stroke:#b0b0b0;stroke-linecap:square;stroke-width:0.8;"/>
     </g>
     <g id="line2d_26">
      <g>
       <use style="stroke:#000000;stroke-width:0.8;" x="57.6" xlink:href="#m5a27365c38" y="84.056079"/>
      </g>
     </g>
     <g id="text_10">
      <!-- 0.8 -->
      <g transform="translate(25.155 90.134829)scale(0.16 -0.16)">
       <defs>
        <path d="M 2034 2216 
Q 1584 2216 1326 1975 
Q 1069 1734 1069 1313 
Q 1069 891 1326 650 
Q 1584 409 2034 409 
Q 2484 409 2743 651 
Q 3003 894 3003 1313 
Q 3003 1734 2745 1975 
Q 2488 2216 2034 2216 
z
M 1403 2484 
Q 997 2584 770 2862 
Q 544 3141 544 3541 
Q 544 4100 942 4425 
Q 1341 4750 2034 4750 
Q 2731 4750 3128 4425 
Q 3525 4100 3525 3541 
Q 3525 3141 3298 2862 
Q 3072 2584 2669 2484 
Q 3125 2378 3379 2068 
Q 3634 1759 3634 1313 
Q 3634 634 3220 271 
Q 2806 -91 2034 -91 
Q 1263 -91 848 271 
Q 434 634 434 1313 
Q 434 1759 690 2068 
Q 947 2378 1403 2484 
z
M 1172 3481 
Q 1172 3119 1398 2916 
Q 1625 2713 2034 2713 
Q 2441 2713 2670 2916 
Q 2900 3119 2900 3481 
Q 2900 3844 2670 4047 
Q 2441 4250 2034 4250 
Q 1625 4250 1398 4047 
Q 1172 3844 1172 3481 
z
" id="DejaVuSans-38" transform="scale(0.015625)"/>
       </defs>
       <use xlink:href="#DejaVuSans-30"/>
       <use x="63.623047" xlink:href="#DejaVuSans-2e"/>
       <use x="95.410156" xlink:href="#DejaVuSans-38"/>
      </g>
     </g>
    </g>
    <g id="ytick_6">
     <g id="line2d_27">
      <path clip-path="url(#p89b3fec4c7)" d="M 57.6 30.334099 
L 338.688 30.334099 
" style="fill:none;stroke:#b0b0b0;stroke-linecap:square;stroke-width:0.8;"/>
     </g>
     <g id="line2d_28">
      <g>
       <use style="stroke:#000000;stroke-width:0.8;" x="57.6" xlink:href="#m5a27365c38" y="30.334099"/>
      </g>
     </g>
     <g id="text_11">
      <!-- 1.0 -->
      <g transform="translate(25.155 36.412849)scale(0.16 -0.16)">
       <use xlink:href="#DejaVuSans-31"/>
       <use x="63.623047" xlink:href="#DejaVuSans-2e"/>
       <use x="95.410156" xlink:href="#DejaVuSans-30"/>
      </g>
     </g>
    </g>
    <g id="text_12">
     <!-- Fraction of function,target pairs -->
     <g transform="translate(17.619531 297.681)rotate(-90)scale(0.17 -0.17)">
      <defs>
       <path d="M 628 4666 
L 3309 4666 
L 3309 4134 
L 1259 4134 
L 1259 2759 
L 3109 2759 
L 3109 2228 
L 1259 2228 
L 1259 0 
L 628 0 
L 628 4666 
z
" id="DejaVuSans-46" transform="scale(0.015625)"/>
       <path d="M 2631 2963 
Q 2534 3019 2420 3045 
Q 2306 3072 2169 3072 
Q 1681 3072 1420 2755 
Q 1159 2438 1159 1844 
L 1159 0 
L 581 0 
L 581 3500 
L 1159 3500 
L 1159 2956 
Q 1341 3275 1631 3429 
Q 1922 3584 2338 3584 
Q 2397 3584 2469 3576 
Q 2541 3569 2628 3553 
L 2631 2963 
z
" id="DejaVuSans-72" transform="scale(0.015625)"/>
       <path d="M 3122 3366 
L 3122 2828 
Q 2878 2963 2633 3030 
Q 2388 3097 2138 3097 
Q 1578 3097 1268 2742 
Q 959 2388 959 1747 
Q 959 1106 1268 751 
Q 1578 397 2138 397 
Q 2388 397 2633 464 
Q 2878 531 3122 666 
L 3122 134 
Q 2881 22 2623 -34 
Q 2366 -91 2075 -91 
Q 1284 -91 818 406 
Q 353 903 353 1747 
Q 353 2603 823 3093 
Q 1294 3584 2113 3584 
Q 2378 3584 2631 3529 
Q 2884 3475 3122 3366 
z
" id="DejaVuSans-63" transform="scale(0.015625)"/>
       <path d="M 1172 4494 
L 1172 3500 
L 2356 3500 
L 2356 3053 
L 1172 3053 
L 1172 1153 
Q 1172 725 1289 603 
Q 1406 481 1766 481 
L 2356 481 
L 2356 0 
L 1766 0 
Q 1100 0 847 248 
Q 594 497 594 1153 
L 594 3053 
L 172 3053 
L 172 3500 
L 594 3500 
L 594 4494 
L 1172 4494 
z
" id="DejaVuSans-74" transform="scale(0.015625)"/>
       <path d="M 544 1381 
L 544 3500 
L 1119 3500 
L 1119 1403 
Q 1119 906 1312 657 
Q 1506 409 1894 409 
Q 2359 409 2629 706 
Q 2900 1003 2900 1516 
L 2900 3500 
L 3475 3500 
L 3475 0 
L 2900 0 
L 2900 538 
Q 2691 219 2414 64 
Q 2138 -91 1772 -91 
Q 1169 -91 856 284 
Q 544 659 544 1381 
z
M 1991 3584 
L 1991 3584 
z
" id="DejaVuSans-75" transform="scale(0.015625)"/>
       <path d="M 750 794 
L 1409 794 
L 1409 256 
L 897 -744 
L 494 -744 
L 750 256 
L 750 794 
z
" id="DejaVuSans-2c" transform="scale(0.015625)"/>
       <path d="M 1159 525 
L 1159 -1331 
L 581 -1331 
L 581 3500 
L 1159 3500 
L 1159 2969 
Q 1341 3281 1617 3432 
Q 1894 3584 2278 3584 
Q 2916 3584 3314 3078 
Q 3713 2572 3713 1747 
Q 3713 922 3314 415 
Q 2916 -91 2278 -91 
Q 1894 -91 1617 61 
Q 1341 213 1159 525 
z
M 3116 1747 
Q 3116 2381 2855 2742 
Q 2594 3103 2138 3103 
Q 1681 3103 1420 2742 
Q 1159 2381 1159 1747 
Q 1159 1113 1420 752 
Q 1681 391 2138 391 
Q 2594 391 2855 752 
Q 3116 1113 3116 1747 
z
" id="DejaVuSans-70" transform="scale(0.015625)"/>
      </defs>
      <use xlink:href="#DejaVuSans-46"/>
      <use x="50.269531" xlink:href="#DejaVuSans-72"/>
      <use x="91.382812" xlink:href="#DejaVuSans-61"/>
      <use x="152.662109" xlink:href="#DejaVuSans-63"/>
      <use x="207.642578" xlink:href="#DejaVuSans-74"/>
      <use x="246.851562" xlink:href="#DejaVuSans-69"/>
      <use x="274.634766" xlink:href="#DejaVuSans-6f"/>
      <use x="335.816406" xlink:href="#DejaVuSans-6e"/>
      <use x="399.195312" xlink:href="#DejaVuSans-20"/>
      <use x="430.982422" xlink:href="#DejaVuSans-6f"/>
      <use x="492.164062" xlink:href="#DejaVuSans-66"/>
      <use x="527.369141" xlink:href="#DejaVuSans-20"/>
      <use x="559.15625" xlink:href="#DejaVuSans-66"/>
      <use x="594.361328" xlink:href="#DejaVuSans-75"/>
      <use x="657.740234" xlink:href="#DejaVuSans-6e"/>
      <use x="721.119141" xlink:href="#DejaVuSans-63"/>
      <use x="776.099609" xlink:href="#DejaVuSans-74"/>
      <use x="815.308594" xlink:href="#DejaVuSans-69"/>
      <use x="843.091797" xlink:href="#DejaVuSans-6f"/>
      <use x="904.273438" xlink:href="#DejaVuSans-6e"/>
      <use x="967.652344" xlink:href="#DejaVuSans-2c"/>
      <use x="999.439453" xlink:href="#DejaVuSans-74"/>
      <use x="1038.648438" xlink:href="#DejaVuSans-61"/>
      <use x="1099.927734" xlink:href="#DejaVuSans-72"/>
      <use x="1139.291016" xlink:href="#DejaVuSans-67"/>
      <use x="1202.767578" xlink:href="#DejaVuSans-65"/>
      <use x="1264.291016" xlink:href="#DejaVuSans-74"/>
      <use x="1303.5" xlink:href="#DejaVuSans-20"/>
      <use x="1335.287109" xlink:href="#DejaVuSans-70"/>
      <use x="1398.763672" xlink:href="#DejaVuSans-61"/>
      <use x="1460.042969" xlink:href="#DejaVuSans-69"/>
      <use x="1487.826172" xlink:href="#DejaVuSans-72"/>
      <use x="1528.939453" xlink:href="#DejaVuSans-73"/>
     </g>
    </g>
   </g>
   <g id="line2d_29">
    <defs>
     <path d="M 0 1.5 
C 0.397805 1.5 0.77937 1.341951 1.06066 1.06066 
C 1.341951 0.77937 1.5 0.397805 1.5 0 
C 1.5 -0.397805 1.341951 -0.77937 1.06066 -1.06066 
C 0.77937 -1.341951 0.397805 -1.5 0 -1.5 
C -0.397805 -1.5 -0.77937 -1.341951 -1.06066 -1.06066 
C -1.341951 -0.77937 -1.5 -0.397805 -1.5 0 
C -1.5 0.397805 -1.341951 0.77937 -1.06066 1.06066 
C -0.77937 1.341951 -0.397805 1.5 0 1.5 
z
" id="m5321d61ff8" style="stroke:#00bfbf;"/>
    </defs>
    <g>
     <use style="fill:#00bfbf;stroke:#00bfbf;" x="177.758396" xlink:href="#m5321d61ff8" y="30.334099"/>
     <use style="fill:#00bfbf;stroke:#00bfbf;" x="177.758396" xlink:href="#m5321d61ff8" y="30.334099"/>
    </g>
   </g>
   <g id="line2d_30">
    <path d="M 118.838828 298.944 
L 118.838828 297.890628 
L 124.368753 297.890628 
L 124.368753 296.837256 
L 127.954256 296.837256 
L 127.954256 293.677139 
L 128.709321 293.677139 
L 128.709321 292.623767 
L 136.073445 292.623767 
L 136.073445 291.043709 
L 136.361705 291.043709 
L 136.361705 290.517023 
L 139.009092 290.517023 
L 139.009092 289.463651 
L 139.572998 289.463651 
L 139.572998 286.83022 
L 139.8092 286.83022 
L 139.8092 286.303534 
L 141.521035 286.303534 
L 141.521035 285.776848 
L 141.871938 285.776848 
L 141.871938 283.143418 
L 142.686372 283.143418 
L 142.686372 282.616732 
L 143.208936 282.616732 
L 143.208936 281.036673 
L 144.330419 281.036673 
L 144.330419 280.509987 
L 144.570138 280.509987 
L 144.570138 277.876557 
L 145.097753 277.876557 
L 145.097753 276.823185 
L 145.609873 276.823185 
L 145.609873 276.296499 
L 145.721664 276.296499 
L 145.777292 273.663068 
L 145.943118 273.663068 
L 145.943118 271.029638 
L 146.270114 271.029638 
L 146.270114 269.976266 
L 146.958248 269.976266 
L 146.958248 269.449579 
L 147.164632 269.449579 
L 147.266916 268.396207 
L 148.112924 268.396207 
L 148.209809 263.129347 
L 149.377533 263.129347 
L 149.377533 262.60266 
L 149.60198 262.60266 
L 149.60198 262.075974 
L 149.911431 262.075974 
L 149.911431 261.549288 
L 150.640855 261.549288 
L 150.682827 259.442544 
L 150.891184 259.442544 
L 150.891184 258.915858 
L 151.056095 258.915858 
L 151.056095 258.389172 
L 151.219462 258.389172 
L 151.260066 256.809114 
L 151.421542 256.809114 
L 151.421542 256.282427 
L 151.700576 256.282427 
L 151.700576 255.755741 
L 151.897188 255.755741 
L 151.897188 255.229055 
L 152.130233 255.229055 
L 152.130233 254.702369 
L 153.715038 254.702369 
L 153.715038 254.175683 
L 154.098334 254.175683 
L 154.132765 249.962195 
L 154.473387 249.962195 
L 154.473387 249.435508 
L 154.607795 249.435508 
L 154.607795 248.908822 
L 154.807483 248.908822 
L 154.807483 248.382136 
L 154.972161 248.382136 
L 154.972161 247.85545 
L 155.167744 247.85545 
L 155.167744 245.22202 
L 155.520713 245.22202 
L 155.520713 244.695334 
L 155.710272 244.695334 
L 155.710272 243.115275 
L 155.897793 243.115275 
L 155.897793 242.588589 
L 157.185742 242.588589 
L 157.185742 242.061903 
L 157.300853 242.061903 
L 157.300853 241.535217 
L 157.613546 241.535217 
L 157.613546 240.481845 
L 157.753847 240.481845 
L 157.809652 237.321729 
L 157.976006 237.321729 
L 158.058592 235.74167 
L 158.51933 235.74167 
L 158.625992 234.161612 
L 158.705563 234.161612 
L 158.705563 233.10824 
L 158.889829 233.10824 
L 158.889829 231.528182 
L 159.020266 231.528182 
L 159.020266 231.001496 
L 159.380382 231.001496 
L 159.380382 227.314693 
L 159.608019 227.314693 
L 159.608019 225.734635 
L 159.758143 225.734635 
L 159.758143 224.681263 
L 159.882266 224.681263 
L 159.882266 222.047832 
L 160.103486 222.047832 
L 160.200913 220.99446 
L 160.537682 220.99446 
L 160.537682 219.941088 
L 160.656397 219.941088 
L 160.656397 219.414402 
L 160.797798 219.414402 
L 160.797798 218.887716 
L 161.146363 218.887716 
L 161.192316 216.254285 
L 162.021314 216.254285 
L 162.021314 215.727599 
L 162.19549 215.727599 
L 162.260361 209.934052 
L 162.324991 209.934052 
L 162.410793 205.720564 
L 162.62347 205.720564 
L 162.728843 203.087133 
L 162.854457 203.087133 
L 162.854457 201.507075 
L 163.469301 201.507075 
L 163.569701 200.453703 
L 163.709295 200.453703 
L 163.709295 199.400331 
L 163.847782 199.400331 
L 163.906798 196.7669 
L 164.102088 196.7669 
L 164.102088 195.713528 
L 164.429145 195.713528 
L 164.486229 194.660156 
L 164.599841 194.660156 
L 164.599841 190.973354 
L 164.712717 190.973354 
L 164.712717 189.919981 
L 164.973287 189.919981 
L 165.02862 188.339923 
L 165.248216 188.339923 
L 165.338904 185.706493 
L 165.838222 185.706493 
L 165.838222 183.599748 
L 166.013141 183.599748 
L 166.013141 180.439632 
L 166.134549 180.439632 
L 166.237944 178.332888 
L 166.289413 178.332888 
L 166.357802 174.646085 
L 166.510705 174.646085 
L 166.510705 170.959282 
L 166.779265 170.959282 
L 166.779265 169.90591 
L 166.91201 169.90591 
L 166.96153 167.799166 
L 167.255733 167.799166 
L 167.352708 165.692422 
L 167.576907 165.692422 
L 167.640438 163.058991 
L 167.719528 163.058991 
L 167.782543 157.79213 
L 167.93909 157.79213 
L 168.047843 156.738758 
L 168.324419 156.738758 
L 168.324419 156.212072 
L 168.641643 156.212072 
L 168.746115 148.838467 
L 169.026567 148.838467 
L 169.128764 147.785095 
L 169.172381 147.785095 
L 169.27373 144.624978 
L 169.288161 144.624978 
L 169.345764 136.724687 
L 169.460402 136.724687 
L 169.460402 132.511199 
L 169.630959 132.511199 
L 169.659223 128.29771 
L 169.883706 128.29771 
L 169.897641 126.190966 
L 170.036379 126.190966 
L 170.036379 125.137593 
L 170.228776 125.137593 
L 170.228776 124.084221 
L 170.607318 124.084221 
L 170.620687 120.924105 
L 170.753812 120.924105 
L 170.806779 117.763988 
L 170.872762 117.763988 
L 170.96472 115.657244 
L 171.003983 115.657244 
L 171.095254 112.497128 
L 171.198983 112.497128 
L 171.198983 111.443755 
L 171.607834 111.443755 
L 171.607834 108.283639 
L 171.846131 108.283639 
L 171.945501 104.07015 
L 171.970255 104.07015 
L 172.044307 98.803289 
L 172.130306 98.803289 
L 172.191475 95.116487 
L 172.349517 95.116487 
L 172.458099 92.483056 
L 172.566008 92.483056 
L 172.673253 89.849626 
L 172.720707 89.849626 
L 172.815229 86.68951 
L 173.107351 86.68951 
L 173.211329 79.315904 
L 173.280304 79.315904 
L 173.303236 76.155788 
L 173.406055 76.155788 
L 173.406055 75.102416 
L 173.530906 75.102416 
L 173.542212 73.522358 
L 173.643636 73.522358 
L 173.643636 72.995672 
L 173.900183 72.995672 
L 173.999552 71.415613 
L 174.109302 71.415613 
L 174.207491 69.835555 
L 174.250953 69.835555 
L 174.359138 64.568694 
L 174.369919 64.568694 
L 174.423728 59.82852 
L 174.509477 59.82852 
L 174.584164 56.141717 
L 174.637316 56.141717 
L 174.722024 52.454914 
L 174.84832 52.454914 
L 174.84832 51.928228 
L 175.004915 51.928228 
L 175.077514 48.241426 
L 175.160115 48.241426 
L 175.160115 47.71474 
L 175.273058 47.71474 
L 175.273058 46.134681 
L 175.405599 46.134681 
L 175.405599 45.081309 
L 175.537141 45.081309 
L 175.62763 44.027937 
L 175.77741 44.027937 
L 175.866664 42.974565 
L 175.93577 42.974565 
L 176.043814 41.394507 
L 176.354372 41.394507 
L 176.431155 38.761076 
L 176.488521 38.761076 
L 176.55521 32.440843 
L 176.772554 32.440843 
L 176.772554 31.914157 
L 177.190115 31.914157 
L 177.190115 31.387471 
L 177.758396 31.387471 
L 177.758396 30.334099 
L 338.688 30.334099 
L 338.688 30.334099 
" style="fill:none;stroke:#00bfbf;stroke-linecap:square;stroke-width:1.5;"/>
   </g>
   <g id="line2d_31">
    <defs>
     <path d="M -6 0 
L 6 0 
M 0 6 
L 0 -6 
" id="mabe7061da1" style="stroke:#00bfbf;stroke-width:1.5;"/>
    </defs>
    <g>
     <use style="fill-opacity:0;stroke:#00bfbf;stroke-width:1.5;" x="169.460402" xlink:href="#mabe7061da1" y="136.724687"/>
     <use style="fill-opacity:0;stroke:#00bfbf;stroke-width:1.5;" x="177.190115" xlink:href="#mabe7061da1" y="31.387471"/>
     <use style="fill-opacity:0;stroke:#00bfbf;stroke-width:1.5;" x="177.758396" xlink:href="#mabe7061da1" y="30.334099"/>
     <use style="fill-opacity:0;stroke:#00bfbf;stroke-width:1.5;" x="177.758396" xlink:href="#mabe7061da1" y="30.334099"/>
     <use style="fill-opacity:0;stroke:#00bfbf;stroke-width:1.5;" x="338.688" xlink:href="#mabe7061da1" y="30.334099"/>
    </g>
   </g>
   <g id="line2d_32">
    <path style="fill:none;stroke:#00bfbf;stroke-linecap:square;stroke-width:1.5;"/>
    <g/>
   </g>
   <g id="line2d_33">
    <defs>
     <path d="M 0 1.5 
C 0.397805 1.5 0.77937 1.341951 1.06066 1.06066 
C 1.341951 0.77937 1.5 0.397805 1.5 0 
C 1.5 -0.397805 1.341951 -0.77937 1.06066 -1.06066 
C 0.77937 -1.341951 0.397805 -1.5 0 -1.5 
C -0.397805 -1.5 -0.77937 -1.341951 -1.06066 -1.06066 
C -1.341951 -0.77937 -1.5 -0.397805 -1.5 0 
C -1.5 0.397805 -1.341951 0.77937 -1.06066 1.06066 
C -0.77937 1.341951 -0.397805 1.5 0 1.5 
z
" id="mb9de0b45f2" style="stroke:#008000;"/>
    </defs>
    <g>
     <use style="fill:#008000;stroke:#008000;" x="176.30621" xlink:href="#mb9de0b45f2" y="30.334099"/>
     <use style="fill:#008000;stroke:#008000;" x="176.30621" xlink:href="#mb9de0b45f2" y="30.334099"/>
    </g>
   </g>
   <g id="line2d_34">
    <path d="M 119.43583 298.944 
L 119.43583 297.890628 
L 131.690703 297.890628 
L 131.690703 297.363942 
L 136.519813 297.363942 
L 136.519813 295.783884 
L 139.253002 295.783884 
L 139.253002 294.730511 
L 142.306513 294.730511 
L 142.306513 294.203825 
L 143.611807 294.203825 
L 143.611807 293.677139 
L 144.148442 293.677139 
L 144.229555 290.517023 
L 144.708467 290.517023 
L 144.787023 289.463651 
L 145.174578 289.463651 
L 145.174578 288.936964 
L 145.327221 288.936964 
L 145.327221 288.410278 
L 145.998045 288.410278 
L 145.998045 287.883592 
L 146.179895 287.883592 
L 146.179895 287.356906 
L 146.359869 287.356906 
L 146.359869 285.250162 
L 147.402367 285.250162 
L 147.50327 284.19679 
L 148.386046 284.19679 
L 148.417899 281.563359 
L 148.576295 281.563359 
L 148.639252 280.509987 
L 149.134896 280.509987 
L 149.134896 278.929929 
L 149.527485 278.929929 
L 149.527485 278.403243 
L 149.882194 278.403243 
L 149.882194 277.876557 
L 150.229833 277.876557 
L 150.229833 276.823185 
L 150.372662 276.823185 
L 150.372662 276.296499 
L 150.654857 276.296499 
L 150.654857 275.769812 
L 151.394733 275.769812 
L 151.501723 274.189754 
L 152.283884 274.189754 
L 152.360205 273.136382 
L 152.860649 273.136382 
L 152.934492 271.556324 
L 153.008024 271.556324 
L 153.056874 268.922893 
L 153.275019 268.922893 
L 153.371104 267.869521 
L 153.514245 267.869521 
L 153.561699 266.289463 
L 153.726778 266.289463 
L 153.79705 264.709405 
L 154.144227 264.709405 
L 154.144227 264.182719 
L 154.507086 264.182719 
L 154.507086 262.075974 
L 155.146121 262.075974 
L 155.253971 257.862486 
L 155.275461 257.862486 
L 155.275461 255.229055 
L 155.446436 255.229055 
L 155.446436 254.175683 
L 156.277034 254.175683 
L 156.277034 253.648997 
L 156.418408 253.648997 
L 156.418408 252.595625 
L 156.538679 252.595625 
L 156.538679 251.015567 
L 156.737306 251.015567 
L 156.796456 248.382136 
L 156.855406 248.382136 
L 156.855406 247.85545 
L 157.069866 247.85545 
L 157.147202 246.802078 
L 157.224197 246.802078 
L 157.224197 246.275392 
L 157.491032 246.275392 
L 157.509937 245.22202 
L 157.604152 245.22202 
L 157.604152 244.695334 
L 157.79107 244.695334 
L 157.79107 243.115275 
L 158.572743 243.115275 
L 158.625992 241.535217 
L 158.942121 241.535217 
L 158.942121 241.008531 
L 159.166924 241.008531 
L 159.201253 238.901787 
L 159.303838 238.901787 
L 159.303838 237.848415 
L 159.524055 237.848415 
L 159.624763 236.268356 
L 159.708245 236.268356 
L 159.724893 233.10824 
L 160.087195 233.10824 
L 160.087195 232.054868 
L 160.265562 232.054868 
L 160.297798 230.47481 
L 160.426146 230.47481 
L 160.505887 228.894751 
L 160.585265 228.894751 
L 160.680044 224.154577 
L 160.80562 224.154577 
L 160.80562 223.627891 
L 161.222884 223.627891 
L 161.222884 223.101204 
L 161.359783 223.101204 
L 161.435376 220.467774 
L 161.764147 220.467774 
L 161.764147 219.414402 
L 161.970183 219.414402 
L 162.028606 218.36103 
L 162.159347 218.36103 
L 162.260361 213.620855 
L 162.289115 213.620855 
L 162.389382 209.407366 
L 162.403659 209.407366 
L 162.403659 208.353994 
L 162.545789 208.353994 
L 162.644595 205.193878 
L 162.672723 205.193878 
L 162.672723 204.667192 
L 162.868358 204.667192 
L 162.868358 203.613819 
L 163.496131 203.613819 
L 163.576373 198.873645 
L 163.722532 198.873645 
L 163.828065 190.446667 
L 163.854349 190.446667 
L 163.906798 188.339923 
L 164.011225 188.339923 
L 164.076176 187.286551 
L 164.435497 187.286551 
L 164.435497 186.233179 
L 164.549438 186.233179 
L 164.549438 185.706493 
L 164.66264 185.706493 
L 164.712717 184.126434 
L 164.775111 184.126434 
L 164.86209 183.073062 
L 165.047026 183.073062 
L 165.157053 180.439632 
L 165.205733 180.439632 
L 165.266391 179.38626 
L 165.435121 179.38626 
L 165.435121 177.806202 
L 165.566558 177.806202 
L 165.566558 176.752829 
L 165.849938 176.752829 
L 165.849938 176.226143 
L 166.036331 176.226143 
L 166.128786 174.646085 
L 166.151824 174.646085 
L 166.174831 173.066027 
L 166.346422 173.066027 
L 166.403246 169.90591 
L 166.550128 169.90591 
L 166.651096 166.745794 
L 166.740356 166.745794 
L 166.740356 165.692422 
L 166.96153 165.692422 
L 166.983494 164.63905 
L 167.114699 164.63905 
L 167.223287 159.372189 
L 167.277329 159.372189 
L 167.384913 155.685386 
L 167.427761 155.685386 
L 167.438457 153.578642 
L 167.545055 153.578642 
L 167.640438 148.838467 
L 167.808732 148.838467 
L 167.913096 144.624978 
L 167.923499 144.624978 
L 167.954668 143.04492 
L 168.150791 143.04492 
L 168.253135 140.938176 
L 168.263336 140.938176 
L 168.283721 138.831432 
L 168.375159 138.831432 
L 168.48627 133.037885 
L 168.496336 133.037885 
L 168.576655 129.351082 
L 168.71633 129.351082 
L 168.71633 128.824396 
L 168.86475 128.824396 
L 168.963 127.244338 
L 169.206229 127.244338 
L 169.225542 126.190966 
L 169.369709 126.190966 
L 169.474679 125.137593 
L 169.503198 125.137593 
L 169.503198 124.084221 
L 169.654516 124.084221 
L 169.739058 119.870733 
L 169.813865 119.870733 
L 169.813865 119.344047 
L 169.934746 119.344047 
L 169.99949 117.763988 
L 170.091567 117.763988 
L 170.137423 113.5505 
L 170.210544 113.5505 
L 170.28336 108.810325 
L 170.337772 108.810325 
L 170.43709 104.596836 
L 170.455087 104.596836 
L 170.562682 103.543464 
L 170.705117 103.543464 
L 170.758232 100.910034 
L 170.863978 100.910034 
L 170.863978 100.383348 
L 170.977818 100.383348 
L 171.030109 96.169859 
L 171.090919 96.169859 
L 171.134225 93.536429 
L 171.24632 93.536429 
L 171.289242 90.902998 
L 171.442893 90.902998 
L 171.54458 88.796254 
L 171.637275 88.796254 
L 171.637275 88.269568 
L 171.8212 88.269568 
L 171.928978 80.895963 
L 171.937241 80.895963 
L 172.044307 77.20916 
L 172.06072 77.20916 
L 172.06072 76.682474 
L 172.409924 76.682474 
L 172.442055 75.629102 
L 172.530112 75.629102 
L 172.593876 72.468985 
L 172.665332 72.468985 
L 172.775907 65.09538 
L 172.783779 65.09538 
L 172.885786 62.988636 
L 172.917053 62.988636 
L 172.971637 61.935264 
L 173.103489 61.935264 
L 173.103489 61.408578 
L 173.22668 61.408578 
L 173.303236 60.355206 
L 173.349008 60.355206 
L 173.455346 57.721775 
L 173.500721 57.721775 
L 173.561039 56.141717 
L 173.643636 56.141717 
L 173.673575 51.928228 
L 173.785389 51.928228 
L 173.859536 50.874856 
L 173.925999 50.874856 
L 174.014225 45.607995 
L 174.102007 45.607995 
L 174.211117 44.554623 
L 174.305129 44.554623 
L 174.40581 42.974565 
L 174.47737 42.974565 
L 174.47737 42.447879 
L 174.605444 42.447879 
L 174.605444 41.921193 
L 174.774759 41.921193 
L 174.830834 40.341135 
L 174.893703 40.341135 
L 174.900675 37.181018 
L 175.08786 37.181018 
L 175.129186 36.127646 
L 175.232072 36.127646 
L 175.232072 35.074274 
L 175.408984 35.074274 
L 175.408984 34.547588 
L 175.58412 34.547588 
L 175.58412 34.020902 
L 175.737594 34.020902 
L 175.803903 32.967529 
L 175.896315 32.967529 
L 175.896315 32.440843 
L 176.060126 32.440843 
L 176.092705 31.387471 
L 176.215951 31.387471 
L 176.30621 30.334099 
L 338.688 30.334099 
L 338.688 30.334099 
" style="fill:none;stroke:#008000;stroke-linecap:square;stroke-width:1.5;"/>
   </g>
   <g id="line2d_35">
    <defs>
     <path d="M -0 6 
L 6 -6 
L -6 -6 
z
" id="m08d43c023f" style="stroke:#008000;stroke-linejoin:miter;stroke-width:1.5;"/>
    </defs>
    <g>
     <use style="fill-opacity:0;stroke:#008000;stroke-linejoin:miter;stroke-width:1.5;" x="168.415645" xlink:href="#m08d43c023f" y="137.778059"/>
     <use style="fill-opacity:0;stroke:#008000;stroke-linejoin:miter;stroke-width:1.5;" x="176.30621" xlink:href="#m08d43c023f" y="30.860785"/>
     <use style="fill-opacity:0;stroke:#008000;stroke-linejoin:miter;stroke-width:1.5;" x="176.30621" xlink:href="#m08d43c023f" y="30.334099"/>
     <use style="fill-opacity:0;stroke:#008000;stroke-linejoin:miter;stroke-width:1.5;" x="176.30621" xlink:href="#m08d43c023f" y="30.334099"/>
     <use style="fill-opacity:0;stroke:#008000;stroke-linejoin:miter;stroke-width:1.5;" x="338.688" xlink:href="#m08d43c023f" y="30.334099"/>
    </g>
   </g>
   <g id="line2d_36">
    <path style="fill:none;stroke:#008000;stroke-linecap:square;stroke-width:1.5;"/>
    <g/>
   </g>
   <g id="line2d_37">
    <defs>
     <path d="M 0 1.5 
C 0.397805 1.5 0.77937 1.341951 1.06066 1.06066 
C 1.341951 0.77937 1.5 0.397805 1.5 0 
C 1.5 -0.397805 1.341951 -0.77937 1.06066 -1.06066 
C 0.77937 -1.341951 0.397805 -1.5 0 -1.5 
C -0.397805 -1.5 -0.77937 -1.341951 -1.06066 -1.06066 
C -1.341951 -0.77937 -1.5 -0.397805 -1.5 0 
C -1.5 0.397805 -1.341951 0.77937 -1.06066 1.06066 
C -0.77937 1.341951 -0.397805 1.5 0 1.5 
z
" id="m57d4c14d15" style="stroke:#0000ff;"/>
    </defs>
    <g>
     <use style="fill:#0000ff;stroke:#0000ff;" x="178.608839" xlink:href="#m57d4c14d15" y="30.334099"/>
     <use style="fill:#0000ff;stroke:#0000ff;" x="178.608839" xlink:href="#m57d4c14d15" y="30.334099"/>
    </g>
   </g>
   <g id="line2d_38">
    <path d="M 144.148442 298.944 
L 144.148442 298.417314 
L 149.610898 298.417314 
L 149.610898 296.837256 
L 151.453659 296.837256 
L 151.453659 296.31057 
L 151.834513 296.31057 
L 151.834513 295.257197 
L 152.344968 295.257197 
L 152.344968 294.203825 
L 152.647216 294.203825 
L 152.647216 293.677139 
L 153.076375 293.677139 
L 153.076375 293.150453 
L 153.366312 293.150453 
L 153.366312 292.623767 
L 153.566437 292.623767 
L 153.566437 292.097081 
L 154.57429 292.097081 
L 154.587699 291.043709 
L 154.694607 291.043709 
L 154.77436 289.463651 
L 154.93278 289.463651 
L 154.93278 288.410278 
L 155.180705 288.410278 
L 155.180705 287.356906 
L 155.322646 287.356906 
L 155.386785 285.776848 
L 155.590458 285.776848 
L 155.590458 284.723476 
L 156.003167 284.723476 
L 156.064855 283.143418 
L 156.150854 283.143418 
L 156.260804 280.509987 
L 156.32159 280.509987 
L 156.382164 277.876557 
L 156.670026 277.876557 
L 156.670026 276.823185 
L 157.069866 276.823185 
L 157.1279 274.189754 
L 157.208825 274.189754 
L 157.277891 272.08301 
L 157.630442 272.08301 
L 157.709073 268.922893 
L 157.77619 268.922893 
L 157.77619 268.396207 
L 158.238915 268.396207 
L 158.271501 266.289463 
L 158.358103 266.289463 
L 158.412011 265.236091 
L 158.583406 265.236091 
L 158.583406 264.709405 
L 158.732007 264.709405 
L 158.732007 264.182719 
L 158.9003 264.182719 
L 158.9003 263.129347 
L 159.466728 263.129347 
L 159.567767 261.549288 
L 159.698248 261.549288 
L 159.698248 261.022602 
L 159.837683 261.022602 
L 159.837683 260.495916 
L 160.103486 260.495916 
L 160.103486 259.96923 
L 160.384537 259.96923 
L 160.48041 258.389172 
L 160.509069 258.389172 
L 160.509069 257.862486 
L 160.764907 257.862486 
L 160.764907 257.3358 
L 160.905434 257.3358 
L 160.970627 255.755741 
L 161.228992 255.755741 
L 161.228992 255.229055 
L 161.438393 255.229055 
L 161.528659 254.175683 
L 161.564634 254.175683 
L 161.618459 252.595625 
L 161.681046 252.595625 
L 161.743409 251.542253 
L 161.796686 251.542253 
L 161.796686 251.015567 
L 161.981883 251.015567 
L 162.00818 249.435508 
L 162.277619 249.435508 
L 162.320689 247.328764 
L 162.449267 247.328764 
L 162.542958 245.748706 
L 162.602318 245.748706 
L 162.703612 243.115275 
L 162.812686 243.115275 
L 162.912768 239.955159 
L 162.979172 239.955159 
L 163.045324 236.268356 
L 163.127663 236.268356 
L 163.127663 235.214984 
L 163.266752 235.214984 
L 163.331824 233.10824 
L 163.445119 233.10824 
L 163.445119 232.581554 
L 163.7569 232.581554 
L 163.835954 231.001496 
L 163.89894 231.001496 
L 163.977355 227.841379 
L 164.109855 227.841379 
L 164.218222 225.734635 
L 164.50142 225.734635 
L 164.50142 225.207949 
L 164.6902 225.207949 
L 164.780093 222.574518 
L 164.973287 222.574518 
L 165.061737 220.99446 
L 165.09112 220.99446 
L 165.09112 220.467774 
L 165.237301 220.467774 
L 165.338904 218.36103 
L 165.504548 218.36103 
L 165.59035 216.254285 
L 165.753633 216.254285 
L 165.810071 215.200913 
L 165.894387 215.200913 
L 165.894387 214.147541 
L 166.034014 214.147541 
L 166.08262 211.514111 
L 166.220754 211.514111 
L 166.309958 209.407366 
L 166.350975 209.407366 
L 166.350975 208.88068 
L 166.500553 208.88068 
L 166.581603 207.827308 
L 166.729224 207.827308 
L 166.829163 205.193878 
L 166.902089 205.193878 
L 166.921925 202.033761 
L 167.099442 202.033761 
L 167.099442 201.507075 
L 167.333356 201.507075 
L 167.442734 197.293586 
L 167.51953 197.293586 
L 167.55143 195.713528 
L 167.678446 195.713528 
L 167.741609 193.606784 
L 167.798261 193.606784 
L 167.810825 192.553412 
L 167.991998 192.553412 
L 168.004423 189.393295 
L 168.293904 189.393295 
L 168.324419 188.339923 
L 168.433833 188.339923 
L 168.433833 186.759865 
L 168.560621 186.759865 
L 168.572648 185.706493 
L 168.722291 185.706493 
L 168.799601 184.653121 
L 168.841088 184.653121 
L 168.923766 179.38626 
L 169.163666 179.38626 
L 169.227472 178.332888 
L 169.314106 178.332888 
L 169.36588 176.752829 
L 169.480386 176.752829 
L 169.480386 176.226143 
L 169.650749 176.226143 
L 169.75779 172.012655 
L 169.780242 172.012655 
L 169.886494 168.852538 
L 170.008719 168.852538 
L 170.014255 165.692422 
L 170.16305 165.692422 
L 170.179505 164.63905 
L 170.299701 164.63905 
L 170.354063 162.005619 
L 170.413666 162.005619 
L 170.494616 160.425561 
L 170.553741 160.425561 
L 170.559106 157.79213 
L 170.719297 157.79213 
L 170.825279 156.212072 
L 170.841121 156.212072 
L 170.946367 151.471897 
L 170.988289 151.471897 
L 171.061409 148.838467 
L 171.103055 148.838467 
L 171.144602 146.731723 
L 171.242881 146.731723 
L 171.350865 145.151665 
L 171.402051 145.151665 
L 171.402051 144.098292 
L 171.529365 144.098292 
L 171.635594 141.464862 
L 171.736167 141.464862 
L 171.846131 138.831432 
L 171.876001 138.831432 
L 171.955406 134.617943 
L 171.994974 134.617943 
L 171.994974 134.091257 
L 172.108232 134.091257 
L 172.108232 133.564571 
L 172.22076 133.564571 
L 172.288901 130.93114 
L 172.347097 130.93114 
L 172.458099 127.244338 
L 172.462909 127.244338 
L 172.530112 123.557535 
L 172.758578 123.557535 
L 172.848191 121.450791 
L 172.876395 121.450791 
L 172.899863 119.344047 
L 173.012074 119.344047 
L 173.109669 115.657244 
L 173.234351 115.657244 
L 173.307818 112.497128 
L 173.367284 112.497128 
L 173.476535 109.863697 
L 173.49921 109.863697 
L 173.607642 107.230267 
L 173.643636 107.230267 
L 173.643636 106.176895 
L 173.760107 106.176895 
L 173.853616 104.596836 
L 173.889107 104.596836 
L 173.942208 103.543464 
L 174.008357 103.543464 
L 174.078642 101.963406 
L 174.205315 101.963406 
L 174.274811 95.643173 
L 174.361294 95.643173 
L 174.434469 94.063115 
L 174.50306 94.063115 
L 174.60119 91.95637 
L 174.626698 91.95637 
L 174.66913 90.376312 
L 174.753684 90.376312 
L 174.800015 89.32294 
L 174.879752 89.32294 
L 174.96746 86.162824 
L 175.02984 86.162824 
L 175.112667 83.002707 
L 175.158055 83.002707 
L 175.199215 79.842591 
L 175.358815 79.842591 
L 175.448206 75.102416 
L 175.472506 75.102416 
L 175.549233 72.995672 
L 175.717652 72.995672 
L 175.801256 70.362241 
L 175.85677 70.362241 
L 175.963336 66.675439 
L 175.986929 66.675439 
L 176.065343 64.568694 
L 176.120024 64.568694 
L 176.120024 64.042008 
L 176.232749 64.042008 
L 176.30621 61.408578 
L 176.394725 61.408578 
L 176.501879 58.775147 
L 176.517133 58.775147 
L 176.62354 56.141717 
L 176.69915 56.141717 
L 176.733067 51.928228 
L 176.950079 51.928228 
L 177.027991 49.821484 
L 177.072356 49.821484 
L 177.171768 46.661368 
L 177.226752 46.661368 
L 177.32165 42.974565 
L 177.358012 42.974565 
L 177.40517 40.341135 
L 177.502707 40.341135 
L 177.542289 38.23439 
L 177.788545 38.23439 
L 177.876917 36.127646 
L 177.908622 36.127646 
L 177.908622 35.60096 
L 178.024381 35.60096 
L 178.080232 34.020902 
L 178.146322 34.020902 
L 178.21908 32.440843 
L 178.384252 32.440843 
L 178.432134 31.387471 
L 178.591926 31.387471 
L 178.608839 30.334099 
L 338.688 30.334099 
L 338.688 30.334099 
" style="fill:none;stroke:#0000ff;stroke-linecap:square;stroke-width:1.5;"/>
   </g>
   <g id="line2d_39">
    <defs>
     <path d="M 0 -6 
L -1.347084 -1.854102 
L -5.706339 -1.854102 
L -2.179628 0.708204 
L -3.526712 4.854102 
L -0 2.291796 
L 3.526712 4.854102 
L 2.179628 0.708204 
L 5.706339 -1.854102 
L 1.347084 -1.854102 
z
" id="m8b58faa46c" style="stroke:#0000ff;stroke-linejoin:bevel;stroke-width:1.5;"/>
    </defs>
    <g>
     <use style="fill-opacity:0;stroke:#0000ff;stroke-linejoin:bevel;stroke-width:1.5;" x="173.791333" xlink:href="#m8b58faa46c" y="105.650209"/>
     <use style="fill-opacity:0;stroke:#0000ff;stroke-linejoin:bevel;stroke-width:1.5;" x="178.608839" xlink:href="#m8b58faa46c" y="30.860785"/>
     <use style="fill-opacity:0;stroke:#0000ff;stroke-linejoin:bevel;stroke-width:1.5;" x="178.608839" xlink:href="#m8b58faa46c" y="30.334099"/>
     <use style="fill-opacity:0;stroke:#0000ff;stroke-linejoin:bevel;stroke-width:1.5;" x="178.608839" xlink:href="#m8b58faa46c" y="30.334099"/>
     <use style="fill-opacity:0;stroke:#0000ff;stroke-linejoin:bevel;stroke-width:1.5;" x="338.688" xlink:href="#m8b58faa46c" y="30.334099"/>
    </g>
   </g>
   <g id="line2d_40">
    <path style="fill:none;stroke:#0000ff;stroke-linecap:square;stroke-width:1.5;"/>
    <g/>
   </g>
   <g id="line2d_41">
    <defs>
     <path d="M 0 1.5 
C 0.397805 1.5 0.77937 1.341951 1.06066 1.06066 
C 1.341951 0.77937 1.5 0.397805 1.5 0 
C 1.5 -0.397805 1.341951 -0.77937 1.06066 -1.06066 
C 0.77937 -1.341951 0.397805 -1.5 0 -1.5 
C -0.397805 -1.5 -0.77937 -1.341951 -1.06066 -1.06066 
C -1.341951 -0.77937 -1.5 -0.397805 -1.5 0 
C -1.5 0.397805 -1.341951 0.77937 -1.06066 1.06066 
C -0.77937 1.341951 -0.397805 1.5 0 1.5 
z
" id="me61df3e28e" style="stroke:#000000;"/>
    </defs>
    <g>
     <use style="stroke:#000000;" x="182.959433" xlink:href="#me61df3e28e" y="30.334099"/>
     <use style="stroke:#000000;" x="182.959433" xlink:href="#me61df3e28e" y="30.334099"/>
    </g>
   </g>
   <g id="line2d_42">
    <path d="M 159.32939 298.944 
L 159.32939 298.417314 
L 159.887213 298.417314 
L 159.887213 297.890628 
L 160.37492 297.890628 
L 160.37492 297.363942 
L 160.590016 297.363942 
L 160.675317 296.31057 
L 160.755498 296.31057 
L 160.811875 295.257197 
L 161.27016 295.257197 
L 161.334007 294.203825 
L 161.474555 294.203825 
L 161.474555 293.677139 
L 161.694428 293.677139 
L 161.694428 293.150453 
L 161.902754 293.150453 
L 162.012559 292.097081 
L 162.104265 292.097081 
L 162.104265 291.570395 
L 162.256044 291.570395 
L 162.260361 290.517023 
L 162.564181 290.517023 
L 162.564181 289.990337 
L 162.724641 289.990337 
L 162.724641 289.463651 
L 162.958448 289.463651 
L 162.958448 288.936964 
L 163.416865 288.936964 
L 163.50953 286.83022 
L 163.673506 286.83022 
L 163.780654 283.670104 
L 163.812276 283.670104 
L 163.859601 281.036673 
L 163.985177 281.036673 
L 164.035935 279.983301 
L 164.117618 279.983301 
L 164.175729 278.929929 
L 164.237502 278.929929 
L 164.237502 278.403243 
L 164.527973 278.403243 
L 164.527973 277.876557 
L 164.787563 277.876557 
L 164.787563 277.349871 
L 164.921483 277.349871 
L 164.947404 276.296499 
L 165.200871 276.296499 
L 165.284547 274.189754 
L 165.338904 274.189754 
L 165.418321 272.609696 
L 165.486619 272.609696 
L 165.486619 272.08301 
L 165.714726 272.08301 
L 165.820633 269.976266 
L 165.831189 269.976266 
L 165.831189 269.449579 
L 165.985272 269.449579 
L 165.985272 268.922893 
L 166.096483 268.922893 
L 166.169082 266.289463 
L 166.419124 266.289463 
L 166.449704 265.236091 
L 166.65557 265.236091 
L 166.759266 262.60266 
L 166.792585 262.60266 
L 166.792585 262.075974 
L 167.079807 262.075974 
L 167.184273 259.96923 
L 167.362375 259.96923 
L 167.362375 259.442544 
L 167.481174 259.442544 
L 167.538677 257.862486 
L 167.665786 257.862486 
L 167.68161 256.809114 
L 167.835927 256.809114 
L 167.945323 255.229055 
L 167.998212 255.229055 
L 168.004423 254.175683 
L 168.159001 254.175683 
L 168.217383 253.122311 
L 168.303064 253.122311 
L 168.303064 252.595625 
L 168.569642 252.595625 
L 168.641643 251.015567 
L 168.710367 251.015567 
L 168.760989 249.435508 
L 168.873615 249.435508 
L 168.95908 246.802078 
L 169.099626 246.802078 
L 169.186895 244.695334 
L 169.253507 244.695334 
L 169.256398 243.641962 
L 169.446113 243.641962 
L 169.471824 242.588589 
L 169.664871 242.588589 
L 169.771826 240.481845 
L 169.880918 240.481845 
L 169.939378 239.428473 
L 170.02532 239.428473 
L 170.072271 237.848415 
L 170.14658 237.848415 
L 170.160306 236.795043 
L 170.348634 236.795043 
L 170.451489 235.214984 
L 170.48115 235.214984 
L 170.591263 233.10824 
L 170.698023 233.10824 
L 170.801489 231.001496 
L 170.846398 231.001496 
L 170.870127 228.894751 
L 171.11605 228.894751 
L 171.211906 226.261321 
L 171.268652 226.261321 
L 171.363675 224.681263 
L 171.409716 224.681263 
L 171.501435 223.627891 
L 171.531901 223.627891 
L 171.605309 222.574518 
L 171.650717 222.574518 
L 171.683438 220.467774 
L 171.786237 220.467774 
L 171.878488 218.887716 
L 171.925672 218.887716 
L 171.925672 218.36103 
L 172.105778 218.36103 
L 172.179258 215.200913 
L 172.274322 215.200913 
L 172.351938 213.620855 
L 172.390616 213.620855 
L 172.491742 210.987425 
L 172.520528 210.987425 
L 172.630434 207.827308 
L 172.647099 207.827308 
L 172.694624 205.720564 
L 172.843486 205.720564 
L 172.946705 202.560447 
L 172.960734 202.560447 
L 173.070232 200.980389 
L 173.098079 200.980389 
L 173.197501 197.293586 
L 173.257343 197.293586 
L 173.367284 194.660156 
L 173.433372 194.660156 
L 173.521856 193.606784 
L 173.546732 193.606784 
L 173.546732 193.080098 
L 173.670583 193.080098 
L 173.751176 192.026726 
L 173.786875 192.026726 
L 173.853616 189.393295 
L 173.902397 189.393295 
L 174.001754 187.813237 
L 174.019358 187.813237 
L 174.065485 185.179807 
L 174.177002 185.179807 
L 174.287811 179.912946 
L 174.341873 179.912946 
L 174.367763 178.859574 
L 174.466655 178.859574 
L 174.562857 177.806202 
L 174.616074 177.806202 
L 174.724137 175.172771 
L 174.768439 175.172771 
L 174.84832 173.066027 
L 174.917395 173.066027 
L 174.979954 170.432596 
L 175.046437 170.432596 
L 175.046437 169.90591 
L 175.158055 169.90591 
L 175.268964 168.325852 
L 175.281243 168.325852 
L 175.379171 164.63905 
L 175.444152 164.63905 
L 175.444152 164.112363 
L 175.58546 164.112363 
L 175.663695 161.478933 
L 175.703679 161.478933 
L 175.795297 158.845503 
L 175.817135 158.845503 
L 175.918026 155.1587 
L 175.931828 155.1587 
L 176.041856 153.578642 
L 176.053603 153.578642 
L 176.155086 147.785095 
L 176.221122 147.785095 
L 176.329344 145.151665 
L 176.335123 145.151665 
L 176.335123 144.624978 
L 176.480883 144.624978 
L 176.572318 142.518234 
L 176.596999 142.518234 
L 176.676501 139.884804 
L 176.810078 139.884804 
L 176.838169 137.778059 
L 176.94078 137.778059 
L 177.039093 135.671315 
L 177.074202 135.671315 
L 177.153401 132.511199 
L 177.186447 132.511199 
L 177.296151 130.93114 
L 177.348929 130.93114 
L 177.396111 127.244338 
L 177.475668 127.244338 
L 177.553068 124.610907 
L 177.601493 124.610907 
L 177.658713 122.504163 
L 177.781456 122.504163 
L 177.802715 120.924105 
L 177.919177 120.924105 
L 177.947294 119.344047 
L 178.054074 119.344047 
L 178.130692 115.130558 
L 178.187935 115.130558 
L 178.288092 111.443755 
L 178.329368 111.443755 
L 178.432134 109.337011 
L 178.440671 109.337011 
L 178.544481 105.123522 
L 178.603767 105.123522 
L 178.620669 103.016778 
L 178.73349 103.016778 
L 178.842251 99.856662 
L 178.900534 99.856662 
L 178.971874 96.169859 
L 179.149777 96.169859 
L 179.247834 94.063115 
L 179.262495 94.063115 
L 179.356682 91.429684 
L 179.440696 91.429684 
L 179.479336 89.32294 
L 179.572362 89.32294 
L 179.666487 84.582765 
L 179.687158 84.582765 
L 179.760106 80.895963 
L 179.840628 80.895963 
L 179.936452 79.842591 
L 179.991197 79.842591 
L 180.0862 74.57573 
L 180.107931 74.57573 
L 180.189955 71.415613 
L 180.22389 71.415613 
L 180.329895 69.308869 
L 180.369672 69.308869 
L 180.464161 67.202125 
L 180.508182 67.202125 
L 180.613985 62.988636 
L 180.621518 62.988636 
L 180.710161 59.301833 
L 180.756556 59.301833 
L 180.854923 55.615031 
L 180.964558 55.615031 
L 181.004389 54.034973 
L 181.099906 54.034973 
L 181.187615 49.294798 
L 181.248749 49.294798 
L 181.35161 46.661368 
L 181.406414 46.661368 
L 181.432314 44.554623 
L 181.519801 44.554623 
L 181.566948 42.447879 
L 181.676464 42.447879 
L 181.755682 39.287762 
L 181.802196 39.287762 
L 181.838757 37.181018 
L 181.929824 37.181018 
L 182.000945 34.020902 
L 182.191948 34.020902 
L 182.191948 33.494215 
L 182.376797 33.494215 
L 182.376797 32.967529 
L 182.507063 32.967529 
L 182.507063 32.440843 
L 182.671218 32.440843 
L 182.671218 31.914157 
L 182.92515 31.914157 
L 182.959433 30.334099 
L 338.688 30.334099 
L 338.688 30.334099 
" style="fill:none;stroke:#000000;stroke-linecap:square;stroke-width:1.5;"/>
   </g>
   <g id="line2d_43">
    <defs>
     <path d="M 0 6 
C 1.591219 6 3.117479 5.367802 4.242641 4.242641 
C 5.367802 3.117479 6 1.591219 6 0 
C 6 -1.591219 5.367802 -3.117479 4.242641 -4.242641 
C 3.117479 -5.367802 1.591219 -6 0 -6 
C -1.591219 -6 -3.117479 -5.367802 -4.242641 -4.242641 
C -5.367802 -3.117479 -6 -1.591219 -6 0 
C -6 1.591219 -5.367802 3.117479 -4.242641 4.242641 
C -3.117479 5.367802 -1.591219 6 0 6 
z
" id="mc525004db9" style="stroke:#000000;stroke-width:1.5;"/>
    </defs>
    <g>
     <use style="fill-opacity:0;stroke:#000000;stroke-width:1.5;" x="179.479336" xlink:href="#mc525004db9" y="89.849626"/>
     <use style="fill-opacity:0;stroke:#000000;stroke-width:1.5;" x="182.959433" xlink:href="#mc525004db9" y="30.334099"/>
     <use style="fill-opacity:0;stroke:#000000;stroke-width:1.5;" x="182.959433" xlink:href="#mc525004db9" y="30.334099"/>
     <use style="fill-opacity:0;stroke:#000000;stroke-width:1.5;" x="338.688" xlink:href="#mc525004db9" y="30.334099"/>
    </g>
   </g>
   <g id="line2d_44">
    <path style="fill:none;stroke:#000000;stroke-linecap:square;stroke-width:1.5;"/>
    <g/>
   </g>
   <g id="line2d_45">
    <defs>
     <path d="M 0 1.5 
C 0.397805 1.5 0.77937 1.341951 1.06066 1.06066 
C 1.341951 0.77937 1.5 0.397805 1.5 0 
C 1.5 -0.397805 1.341951 -0.77937 1.06066 -1.06066 
C 0.77937 -1.341951 0.397805 -1.5 0 -1.5 
C -0.397805 -1.5 -0.77937 -1.341951 -1.06066 -1.06066 
C -1.341951 -0.77937 -1.5 -0.397805 -1.5 0 
C -1.5 0.397805 -1.341951 0.77937 -1.06066 1.06066 
C -0.77937 1.341951 -0.397805 1.5 0 1.5 
z
" id="m3868ddc485" style="stroke:#ff0000;"/>
    </defs>
    <g>
     <use style="fill:#ff0000;stroke:#ff0000;" x="187.387635" xlink:href="#m3868ddc485" y="30.334099"/>
     <use style="fill:#ff0000;stroke:#ff0000;" x="187.387635" xlink:href="#m3868ddc485" y="30.334099"/>
    </g>
   </g>
   <g id="line2d_46">
    <path d="M 166.495475 298.944 
L 166.495475 298.417314 
L 167.460363 298.417314 
L 167.460363 297.890628 
L 168.009081 297.890628 
L 168.07106 296.837256 
L 168.129736 296.837256 
L 168.16977 295.783884 
L 168.926712 295.783884 
L 168.95467 294.730511 
L 169.347201 294.730511 
L 169.347201 294.203825 
L 169.49037 294.203825 
L 169.516016 292.623767 
L 169.659223 292.623767 
L 169.659223 292.097081 
L 169.953269 292.097081 
L 169.953269 291.570395 
L 170.094321 291.570395 
L 170.161678 289.990337 
L 170.216472 289.990337 
L 170.217839 288.936964 
L 170.53495 288.936964 
L 170.565811 287.883592 
L 170.800166 287.883592 
L 170.800166 287.356906 
L 170.992214 287.356906 
L 171.022276 286.303534 
L 171.277663 286.303534 
L 171.335479 285.250162 
L 171.431416 285.250162 
L 171.483639 284.19679 
L 171.602783 284.19679 
L 171.602783 283.670104 
L 171.746192 283.670104 
L 171.746192 283.143418 
L 171.903338 283.143418 
L 171.926912 282.090045 
L 172.284043 282.090045 
L 172.284043 281.563359 
L 172.546873 281.563359 
L 172.60183 280.509987 
L 172.752666 280.509987 
L 172.752666 279.983301 
L 172.970079 279.983301 
L 172.970079 279.456615 
L 173.127039 279.456615 
L 173.144392 278.403243 
L 173.258492 278.403243 
L 173.351294 276.823185 
L 173.484475 276.823185 
L 173.591871 275.769812 
L 173.599758 275.769812 
L 173.622273 274.189754 
L 173.909038 274.189754 
L 173.966492 272.609696 
L 174.200962 272.609696 
L 174.304047 270.502952 
L 174.331074 270.502952 
L 174.430173 267.869521 
L 174.887078 267.869521 
L 174.995558 266.289463 
L 175.028802 266.289463 
L 175.13847 264.709405 
L 175.182762 264.709405 
L 175.182762 264.182719 
L 175.42793 264.182719 
L 175.534116 262.60266 
L 175.640662 262.60266 
L 175.74158 261.549288 
L 175.84786 261.549288 
L 175.903226 260.495916 
L 175.966287 260.495916 
L 176.034999 258.915858 
L 176.300422 258.915858 
L 176.300422 258.389172 
L 176.449341 258.389172 
L 176.510461 256.809114 
L 176.627328 256.809114 
L 176.736832 254.702369 
L 176.788512 254.702369 
L 176.832554 253.648997 
L 176.912855 253.648997 
L 176.971446 252.595625 
L 177.031692 252.595625 
L 177.110162 251.542253 
L 177.26879 251.542253 
L 177.282476 249.435508 
L 177.384328 249.435508 
L 177.486489 246.802078 
L 177.563841 246.802078 
L 177.674772 243.641962 
L 177.713075 243.641962 
L 177.713075 243.115275 
L 177.902461 243.115275 
L 177.995513 241.535217 
L 178.022633 241.535217 
L 178.06803 239.955159 
L 178.168008 239.955159 
L 178.257933 238.375101 
L 178.27948 238.375101 
L 178.319918 237.321729 
L 178.423593 237.321729 
L 178.507963 235.214984 
L 178.538542 235.214984 
L 178.644304 233.10824 
L 178.729293 233.10824 
L 178.83808 231.528182 
L 178.907183 231.528182 
L 178.976013 229.421437 
L 179.021474 229.421437 
L 179.13092 226.788007 
L 179.238053 226.788007 
L 179.334805 224.154577 
L 179.49541 224.154577 
L 179.581158 219.941088 
L 179.745857 219.941088 
L 179.813828 217.307658 
L 179.858733 217.307658 
L 179.96932 214.674227 
L 179.974792 214.674227 
L 180.048105 213.094169 
L 180.141252 213.094169 
L 180.216954 210.987425 
L 180.276205 210.987425 
L 180.384947 208.88068 
L 180.440587 208.88068 
L 180.540747 205.720564 
L 180.584576 205.720564 
L 180.690668 200.980389 
L 180.737115 200.980389 
L 180.761786 199.927017 
L 180.884622 199.927017 
L 180.954216 195.713528 
L 181.006599 195.713528 
L 181.110162 193.080098 
L 181.131386 193.080098 
L 181.214569 189.919981 
L 181.246569 189.919981 
L 181.327037 187.286551 
L 181.399933 187.286551 
L 181.507637 185.179807 
L 181.512647 185.179807 
L 181.607563 183.073062 
L 181.626058 183.073062 
L 181.734498 178.859574 
L 181.757093 178.859574 
L 181.845077 174.646085 
L 181.875241 174.646085 
L 181.986326 170.959282 
L 181.998857 170.959282 
L 182.09394 167.799166 
L 182.112618 167.799166 
L 182.198142 165.165736 
L 182.241433 165.165736 
L 182.348171 162.005619 
L 182.376797 162.005619 
L 182.459005 158.318817 
L 182.491509 158.318817 
L 182.587315 154.105328 
L 182.615551 154.105328 
L 182.720031 151.471897 
L 182.744719 151.471897 
L 182.840474 148.311781 
L 182.865655 148.311781 
L 182.936365 144.624978 
L 182.981154 144.624978 
L 183.075623 138.831432 
L 183.098507 138.831432 
L 183.186494 134.617943 
L 183.211181 134.617943 
L 183.308934 130.93114 
L 183.336027 130.93114 
L 183.43629 125.137593 
L 183.471502 125.137593 
L 183.555086 120.397419 
L 183.634469 120.397419 
L 183.716016 114.077186 
L 183.765768 114.077186 
L 183.846079 111.443755 
L 183.879849 111.443755 
L 183.960259 106.176895 
L 183.993809 106.176895 
L 184.089754 103.543464 
L 184.120591 103.543464 
L 184.209713 99.856662 
L 184.244011 99.856662 
L 184.304481 95.643173 
L 184.367171 95.643173 
L 184.475586 92.483056 
L 184.482227 92.483056 
L 184.590531 88.796254 
L 184.612111 88.796254 
L 184.693396 85.109451 
L 184.774305 85.109451 
L 184.867832 80.369277 
L 184.890841 80.369277 
L 184.964384 77.735846 
L 185.021825 77.735846 
L 185.12044 72.995672 
L 185.17505 72.995672 
L 185.283184 70.362241 
L 185.2901 70.362241 
L 185.373455 65.622066 
L 185.41527 65.622066 
L 185.504292 62.46195 
L 185.540116 62.46195 
L 185.633026 57.721775 
L 185.699008 57.721775 
L 185.747349 51.401542 
L 185.814578 51.401542 
L 185.914383 48.241426 
L 185.96324 48.241426 
L 186.068814 44.554623 
L 186.083136 44.554623 
L 186.164986 41.921193 
L 186.249181 41.921193 
L 186.306899 40.341135 
L 186.368218 40.341135 
L 186.465451 37.707704 
L 186.539094 37.707704 
L 186.551428 36.127646 
L 186.738037 36.127646 
L 186.841673 34.020902 
L 186.921621 34.020902 
L 187.019479 32.440843 
L 187.037734 32.440843 
L 187.127685 31.387471 
L 187.296451 31.387471 
L 187.387635 30.334099 
L 338.688 30.334099 
L 338.688 30.334099 
" style="fill:none;stroke:#ff0000;stroke-linecap:square;stroke-width:1.5;"/>
   </g>
   <g id="line2d_47">
    <defs>
     <path d="M -6 6 
L 6 6 
L 6 -6 
L -6 -6 
z
" id="me3288dc456" style="stroke:#ff0000;stroke-linejoin:miter;stroke-width:1.5;"/>
    </defs>
    <g>
     <use style="fill-opacity:0;stroke:#ff0000;stroke-linejoin:miter;stroke-width:1.5;" x="180.440587" xlink:href="#me3288dc456" y="208.88068"/>
     <use style="fill-opacity:0;stroke:#ff0000;stroke-linejoin:miter;stroke-width:1.5;" x="187.387635" xlink:href="#me3288dc456" y="30.860785"/>
     <use style="fill-opacity:0;stroke:#ff0000;stroke-linejoin:miter;stroke-width:1.5;" x="187.387635" xlink:href="#me3288dc456" y="30.334099"/>
     <use style="fill-opacity:0;stroke:#ff0000;stroke-linejoin:miter;stroke-width:1.5;" x="338.688" xlink:href="#me3288dc456" y="30.334099"/>
    </g>
   </g>
   <g id="line2d_48">
    <path style="fill:none;stroke:#ff0000;stroke-linecap:square;stroke-width:1.5;"/>
    <g/>
   </g>
   <g id="line2d_49">
    <path d="M 338.688 30.334099 
L 369.60768 293.571802 
" style="fill:none;stroke:#ff0000;stroke-linecap:square;stroke-width:1.5;"/>
    <g>
     <use style="fill-opacity:0;stroke:#ff0000;stroke-linejoin:miter;stroke-width:1.5;" x="338.688" xlink:href="#me3288dc456" y="30.334099"/>
     <use style="fill-opacity:0;stroke:#ff0000;stroke-linejoin:miter;stroke-width:1.5;" x="369.60768" xlink:href="#me3288dc456" y="293.571802"/>
    </g>
   </g>
   <g id="line2d_50">
    <path d="M 338.688 30.334099 
L 369.60768 229.105426 
" style="fill:none;stroke:#000000;stroke-linecap:square;stroke-width:1.5;"/>
    <g>
     <use style="fill-opacity:0;stroke:#000000;stroke-width:1.5;" x="338.688" xlink:href="#mc525004db9" y="30.334099"/>
     <use style="fill-opacity:0;stroke:#000000;stroke-width:1.5;" x="369.60768" xlink:href="#mc525004db9" y="229.105426"/>
    </g>
   </g>
   <g id="line2d_51">
    <path d="M 338.688 30.334099 
L 369.60768 164.63905 
" style="fill:none;stroke:#0000ff;stroke-linecap:square;stroke-width:1.5;"/>
    <g>
     <use style="fill-opacity:0;stroke:#0000ff;stroke-linejoin:bevel;stroke-width:1.5;" x="338.688" xlink:href="#m8b58faa46c" y="30.334099"/>
     <use style="fill-opacity:0;stroke:#0000ff;stroke-linejoin:bevel;stroke-width:1.5;" x="369.60768" xlink:href="#m8b58faa46c" y="164.63905"/>
    </g>
   </g>
   <g id="line2d_52">
    <path d="M 338.688 30.334099 
L 369.60768 100.172673 
" style="fill:none;stroke:#00bfbf;stroke-linecap:square;stroke-width:1.5;"/>
    <g>
     <use style="fill-opacity:0;stroke:#00bfbf;stroke-width:1.5;" x="338.688" xlink:href="#mabe7061da1" y="30.334099"/>
     <use style="fill-opacity:0;stroke:#00bfbf;stroke-width:1.5;" x="369.60768" xlink:href="#mabe7061da1" y="100.172673"/>
    </g>
   </g>
   <g id="line2d_53">
    <path d="M 338.688 30.334099 
L 369.60768 35.706297 
" style="fill:none;stroke:#008000;stroke-linecap:square;stroke-width:1.5;"/>
    <g>
     <use style="fill-opacity:0;stroke:#008000;stroke-linejoin:miter;stroke-width:1.5;" x="338.688" xlink:href="#m08d43c023f" y="30.334099"/>
     <use style="fill-opacity:0;stroke:#008000;stroke-linejoin:miter;stroke-width:1.5;" x="369.60768" xlink:href="#m08d43c023f" y="35.706297"/>
    </g>
   </g>
   <g id="line2d_54">
    <path d="M 338.688 298.944 
L 338.688 30.334099 
" style="fill:none;stroke:#000000;stroke-linecap:square;stroke-width:1.5;"/>
   </g>
   <g id="patch_3">
    <path d="M 57.6 298.944 
L 57.6 27.648 
" style="fill:none;stroke:#000000;stroke-linecap:square;stroke-linejoin:miter;stroke-width:0.8;"/>
   </g>
   <g id="patch_4">
    <path d="M 338.688 298.944 
L 338.688 27.648 
" style="fill:none;stroke:#000000;stroke-linecap:square;stroke-linejoin:miter;stroke-width:0.8;"/>
   </g>
   <g id="patch_5">
    <path d="M 57.6 298.944 
L 338.688 298.944 
" style="fill:none;stroke:#000000;stroke-linecap:square;stroke-linejoin:miter;stroke-width:0.8;"/>
   </g>
   <g id="patch_6">
    <path d="M 57.6 27.648 
L 338.688 27.648 
" style="fill:none;stroke:#000000;stroke-linecap:square;stroke-linejoin:miter;stroke-width:0.8;"/>
   </g>
   <g id="text_13">
    <!-- 20-D -->
    <g transform="translate(375.22944 298.262739)scale(0.17 -0.17)">
     <defs>
      <path d="M 1259 4147 
L 1259 519 
L 2022 519 
Q 2988 519 3436 956 
Q 3884 1394 3884 2338 
Q 3884 3275 3436 3711 
Q 2988 4147 2022 4147 
L 1259 4147 
z
M 628 4666 
L 1925 4666 
Q 3281 4666 3915 4102 
Q 4550 3538 4550 2338 
Q 4550 1131 3912 565 
Q 3275 0 1925 0 
L 628 0 
L 628 4666 
z
" id="DejaVuSans-44" transform="scale(0.015625)"/>
     </defs>
     <use xlink:href="#DejaVuSans-32"/>
     <use x="63.623047" xlink:href="#DejaVuSans-30"/>
     <use x="127.246094" xlink:href="#DejaVuSans-2d"/>
     <use x="163.330078" xlink:href="#DejaVuSans-44"/>
    </g>
   </g>
   <g id="text_14">
    <!-- 10-D -->
    <g transform="translate(375.22944 233.796363)scale(0.17 -0.17)">
     <use xlink:href="#DejaVuSans-31"/>
     <use x="63.623047" xlink:href="#DejaVuSans-30"/>
     <use x="127.246094" xlink:href="#DejaVuSans-2d"/>
     <use x="163.330078" xlink:href="#DejaVuSans-44"/>
    </g>
   </g>
   <g id="text_15">
    <!-- 5-D -->
    <g transform="translate(375.22944 169.329987)scale(0.17 -0.17)">
     <defs>
      <path d="M 691 4666 
L 3169 4666 
L 3169 4134 
L 1269 4134 
L 1269 2991 
Q 1406 3038 1543 3061 
Q 1681 3084 1819 3084 
Q 2600 3084 3056 2656 
Q 3513 2228 3513 1497 
Q 3513 744 3044 326 
Q 2575 -91 1722 -91 
Q 1428 -91 1123 -41 
Q 819 9 494 109 
L 494 744 
Q 775 591 1075 516 
Q 1375 441 1709 441 
Q 2250 441 2565 725 
Q 2881 1009 2881 1497 
Q 2881 1984 2565 2268 
Q 2250 2553 1709 2553 
Q 1456 2553 1204 2497 
Q 953 2441 691 2322 
L 691 4666 
z
" id="DejaVuSans-35" transform="scale(0.015625)"/>
     </defs>
     <use xlink:href="#DejaVuSans-35"/>
     <use x="63.623047" xlink:href="#DejaVuSans-2d"/>
     <use x="99.707031" xlink:href="#DejaVuSans-44"/>
    </g>
   </g>
   <g id="text_16">
    <!-- 2-D -->
    <g transform="translate(375.22944 104.863611)scale(0.17 -0.17)">
     <use xlink:href="#DejaVuSans-32"/>
     <use x="63.623047" xlink:href="#DejaVuSans-2d"/>
     <use x="99.707031" xlink:href="#DejaVuSans-44"/>
    </g>
   </g>
   <g id="text_17">
    <!-- 3-D -->
    <g transform="translate(375.22944 40.397235)scale(0.17 -0.17)">
     <defs>
      <path d="M 2597 2516 
Q 3050 2419 3304 2112 
Q 3559 1806 3559 1356 
Q 3559 666 3084 287 
Q 2609 -91 1734 -91 
Q 1441 -91 1130 -33 
Q 819 25 488 141 
L 488 750 
Q 750 597 1062 519 
Q 1375 441 1716 441 
Q 2309 441 2620 675 
Q 2931 909 2931 1356 
Q 2931 1769 2642 2001 
Q 2353 2234 1838 2234 
L 1294 2234 
L 1294 2753 
L 1863 2753 
Q 2328 2753 2575 2939 
Q 2822 3125 2822 3475 
Q 2822 3834 2567 4026 
Q 2313 4219 1838 4219 
Q 1578 4219 1281 4162 
Q 984 4106 628 3988 
L 628 4550 
Q 988 4650 1302 4700 
Q 1616 4750 1894 4750 
Q 2613 4750 3031 4423 
Q 3450 4097 3450 3541 
Q 3450 3153 3228 2886 
Q 3006 2619 2597 2516 
z
" id="DejaVuSans-33" transform="scale(0.015625)"/>
     </defs>
     <use xlink:href="#DejaVuSans-33"/>
     <use x="63.623047" xlink:href="#DejaVuSans-2d"/>
     <use x="99.707031" xlink:href="#DejaVuSans-44"/>
    </g>
   </g>
   <g id="text_18">
    <!-- bbob f10 -->
    <g transform="translate(60.41088 38.111366)scale(0.102 -0.102)">
     <defs>
      <path d="M 3116 1747 
Q 3116 2381 2855 2742 
Q 2594 3103 2138 3103 
Q 1681 3103 1420 2742 
Q 1159 2381 1159 1747 
Q 1159 1113 1420 752 
Q 1681 391 2138 391 
Q 2594 391 2855 752 
Q 3116 1113 3116 1747 
z
M 1159 2969 
Q 1341 3281 1617 3432 
Q 1894 3584 2278 3584 
Q 2916 3584 3314 3078 
Q 3713 2572 3713 1747 
Q 3713 922 3314 415 
Q 2916 -91 2278 -91 
Q 1894 -91 1617 61 
Q 1341 213 1159 525 
L 1159 0 
L 581 0 
L 581 4863 
L 1159 4863 
L 1159 2969 
z
" id="DejaVuSans-62" transform="scale(0.015625)"/>
     </defs>
     <use xlink:href="#DejaVuSans-62"/>
     <use x="63.476562" xlink:href="#DejaVuSans-62"/>
     <use x="126.953125" xlink:href="#DejaVuSans-6f"/>
     <use x="188.134766" xlink:href="#DejaVuSans-62"/>
     <use x="251.611328" xlink:href="#DejaVuSans-20"/>
     <use x="283.398438" xlink:href="#DejaVuSans-66"/>
     <use x="318.603516" xlink:href="#DejaVuSans-31"/>
     <use x="382.226562" xlink:href="#DejaVuSans-30"/>
    </g>
    <!-- 51 targets: 100..1e-08 -->
    <g transform="translate(60.41088 49.533135)scale(0.102 -0.102)">
     <defs>
      <path d="M 750 794 
L 1409 794 
L 1409 0 
L 750 0 
L 750 794 
z
M 750 3309 
L 1409 3309 
L 1409 2516 
L 750 2516 
L 750 3309 
z
" id="DejaVuSans-3a" transform="scale(0.015625)"/>
     </defs>
     <use xlink:href="#DejaVuSans-35"/>
     <use x="63.623047" xlink:href="#DejaVuSans-31"/>
     <use x="127.246094" xlink:href="#DejaVuSans-20"/>
     <use x="159.033203" xlink:href="#DejaVuSans-74"/>
     <use x="198.242188" xlink:href="#DejaVuSans-61"/>
     <use x="259.521484" xlink:href="#DejaVuSans-72"/>
     <use x="298.884766" xlink:href="#DejaVuSans-67"/>
     <use x="362.361328" xlink:href="#DejaVuSans-65"/>
     <use x="423.884766" xlink:href="#DejaVuSans-74"/>
     <use x="463.09375" xlink:href="#DejaVuSans-73"/>
     <use x="515.193359" xlink:href="#DejaVuSans-3a"/>
     <use x="548.884766" xlink:href="#DejaVuSans-20"/>
     <use x="580.671875" xlink:href="#DejaVuSans-31"/>
     <use x="644.294922" xlink:href="#DejaVuSans-30"/>
     <use x="707.917969" xlink:href="#DejaVuSans-30"/>
     <use x="771.541016" xlink:href="#DejaVuSans-2e"/>
     <use x="803.328125" xlink:href="#DejaVuSans-2e"/>
     <use x="835.115234" xlink:href="#DejaVuSans-31"/>
     <use x="898.738281" xlink:href="#DejaVuSans-65"/>
     <use x="960.261719" xlink:href="#DejaVuSans-2d"/>
     <use x="996.345703" xlink:href="#DejaVuSans-30"/>
     <use x="1059.96875" xlink:href="#DejaVuSans-38"/>
    </g>
    <!-- 15 instances -->
    <g transform="translate(60.41088 60.954904)scale(0.102 -0.102)">
     <use xlink:href="#DejaVuSans-31"/>
     <use x="63.623047" xlink:href="#DejaVuSans-35"/>
     <use x="127.246094" xlink:href="#DejaVuSans-20"/>
     <use x="159.033203" xlink:href="#DejaVuSans-69"/>
     <use x="186.816406" xlink:href="#DejaVuSans-6e"/>
     <use x="250.195312" xlink:href="#DejaVuSans-73"/>
     <use x="302.294922" xlink:href="#DejaVuSans-74"/>
     <use x="341.503906" xlink:href="#DejaVuSans-61"/>
     <use x="402.783203" xlink:href="#DejaVuSans-6e"/>
     <use x="466.162109" xlink:href="#DejaVuSans-63"/>
     <use x="521.142578" xlink:href="#DejaVuSans-65"/>
     <use x="582.666016" xlink:href="#DejaVuSans-73"/>
    </g>
   </g>
   <g id="text_19">
    <!-- v2.4 -->
    <g style="fill:#808080;" transform="translate(187.233062 294.151352)scale(0.1 -0.1)">
     <use xlink:href="#DejaVuSans-76"/>
     <use x="59.179688" xlink:href="#DejaVuSans-32"/>
     <use x="122.802734" xlink:href="#DejaVuSans-2e"/>
     <use x="154.589844" xlink:href="#DejaVuSans-34"/>
    </g>
   </g>
   <g id="text_20">
    <!-- 10 Ellipsoid -->
    <g transform="translate(140.784625 21.648)scale(0.2 -0.2)">
     <defs>
      <path d="M 628 4666 
L 3578 4666 
L 3578 4134 
L 1259 4134 
L 1259 2753 
L 3481 2753 
L 3481 2222 
L 1259 2222 
L 1259 531 
L 3634 531 
L 3634 0 
L 628 0 
L 628 4666 
z
" id="DejaVuSans-45" transform="scale(0.015625)"/>
     </defs>
     <use xlink:href="#DejaVuSans-31"/>
     <use x="63.623047" xlink:href="#DejaVuSans-30"/>
     <use x="127.246094" xlink:href="#DejaVuSans-20"/>
     <use x="159.033203" xlink:href="#DejaVuSans-45"/>
     <use x="222.216797" xlink:href="#DejaVuSans-6c"/>
     <use x="250" xlink:href="#DejaVuSans-6c"/>
     <use x="277.783203" xlink:href="#DejaVuSans-69"/>
     <use x="305.566406" xlink:href="#DejaVuSans-70"/>
     <use x="369.042969" xlink:href="#DejaVuSans-73"/>
     <use x="421.142578" xlink:href="#DejaVuSans-6f"/>
     <use x="482.324219" xlink:href="#DejaVuSans-69"/>
     <use x="510.107422" xlink:href="#DejaVuSans-64"/>
    </g>
   </g>
  </g>
 </g>
 <defs>
  <clipPath id="p89b3fec4c7">
   <rect height="271.296" width="281.088" x="57.6" y="27.648"/>
  </clipPath>
 </defs>
</svg>
