<?xml version="1.0" encoding="utf-8" standalone="no"?>
<!DOCTYPE svg PUBLIC "-//W3C//DTD SVG 1.1//EN"
  "http://www.w3.org/Graphics/SVG/1.1/DTD/svg11.dtd">
<svg height="345.6pt" version="1.1" viewBox="0 0 460.8 345.6" width="460.8pt" xmlns="http://www.w3.org/2000/svg" xmlns:xlink="http://www.w3.org/1999/xlink">
 <metadata>
  <rdf:RDF xmlns:cc="http://creativecommons.org/ns#" xmlns:dc="http://purl.org/dc/elements/1.1/" xmlns:rdf="http://www.w3.org/1999/02/22-rdf-syntax-ns#">
   <cc:Work>
    <dc:type rdf:resource="http://purl.org/dc/dcmitype/StillImage"/>
    <dc:date>2021-07-27T16:03:56.704743</dc:date>
    <dc:format>image/svg+xml</dc:format>
    <dc:creator>
     <cc:Agent>
      <dc:title>Matplotlib v3.4.2, https://matplotlib.org/</dc:title>
     </cc:Agent>
    </dc:creator>
   </cc:Work>
  </rdf:RDF>
 </metadata>
 <defs>
  <style type="text/css">*{stroke-linecap:butt;stroke-linejoin:round;}</style>
 </defs>
 <g id="figure_1">
  <g id="patch_1">
   <path d="M 0 345.6 
L 460.8 345.6 
L 460.8 0 
L 0 0 
z
" style="fill:#ffffff;"/>
  </g>
  <g id="axes_1">
   <g id="patch_2">
    <path d="M 57.6 298.944 
L 338.688 298.944 
L 338.688 3.456 
L 57.6 3.456 
z
" style="fill:#ffffff;"/>
   </g>
   <g id="matplotlib.axis_1">
    <g id="xtick_1">
     <g id="line2d_1">
      <path clip-path="url(#pb847b9da0c)" d="M 57.6 298.944 
L 57.6 3.456 
" style="fill:none;stroke:#b0b0b0;stroke-linecap:square;stroke-width:0.8;"/>
     </g>
     <g id="line2d_2">
      <defs>
       <path d="M 0 0 
L 0 3.5 
" id="m453173c41c" style="stroke:#000000;stroke-width:0.8;"/>
      </defs>
      <g>
       <use style="stroke:#000000;stroke-width:0.8;" x="57.6" xlink:href="#m453173c41c" y="298.944"/>
      </g>
     </g>
     <g id="text_1">
      <!-- 0 -->
      <g transform="translate(51.2375 321.140875)scale(0.2 -0.2)">
       <defs>
        <path d="M 2034 4250 
Q 1547 4250 1301 3770 
Q 1056 3291 1056 2328 
Q 1056 1369 1301 889 
Q 1547 409 2034 409 
Q 2525 409 2770 889 
Q 3016 1369 3016 2328 
Q 3016 3291 2770 3770 
Q 2525 4250 2034 4250 
z
M 2034 4750 
Q 2819 4750 3233 4129 
Q 3647 3509 3647 2328 
Q 3647 1150 3233 529 
Q 2819 -91 2034 -91 
Q 1250 -91 836 529 
Q 422 1150 422 2328 
Q 422 3509 836 4129 
Q 1250 4750 2034 4750 
z
" id="DejaVuSans-30" transform="scale(0.015625)"/>
       </defs>
       <use xlink:href="#DejaVuSans-30"/>
      </g>
     </g>
    </g>
    <g id="xtick_2">
     <g id="line2d_3">
      <path clip-path="url(#pb847b9da0c)" d="M 137.910857 298.944 
L 137.910857 3.456 
" style="fill:none;stroke:#b0b0b0;stroke-linecap:square;stroke-width:0.8;"/>
     </g>
     <g id="line2d_4">
      <g>
       <use style="stroke:#000000;stroke-width:0.8;" x="137.910857" xlink:href="#m453173c41c" y="298.944"/>
      </g>
     </g>
     <g id="text_2">
      <!-- 2 -->
      <g transform="translate(131.548357 321.140875)scale(0.2 -0.2)">
       <defs>
        <path d="M 1228 531 
L 3431 531 
L 3431 0 
L 469 0 
L 469 531 
Q 828 903 1448 1529 
Q 2069 2156 2228 2338 
Q 2531 2678 2651 2914 
Q 2772 3150 2772 3378 
Q 2772 3750 2511 3984 
Q 2250 4219 1831 4219 
Q 1534 4219 1204 4116 
Q 875 4013 500 3803 
L 500 4441 
Q 881 4594 1212 4672 
Q 1544 4750 1819 4750 
Q 2544 4750 2975 4387 
Q 3406 4025 3406 3419 
Q 3406 3131 3298 2873 
Q 3191 2616 2906 2266 
Q 2828 2175 2409 1742 
Q 1991 1309 1228 531 
z
" id="DejaVuSans-32" transform="scale(0.015625)"/>
       </defs>
       <use xlink:href="#DejaVuSans-32"/>
      </g>
     </g>
    </g>
    <g id="xtick_3">
     <g id="line2d_5">
      <path clip-path="url(#pb847b9da0c)" d="M 218.221714 298.944 
L 218.221714 3.456 
" style="fill:none;stroke:#b0b0b0;stroke-linecap:square;stroke-width:0.8;"/>
     </g>
     <g id="line2d_6">
      <g>
       <use style="stroke:#000000;stroke-width:0.8;" x="218.221714" xlink:href="#m453173c41c" y="298.944"/>
      </g>
     </g>
     <g id="text_3">
      <!-- 4 -->
      <g transform="translate(211.859214 321.140875)scale(0.2 -0.2)">
       <defs>
        <path d="M 2419 4116 
L 825 1625 
L 2419 1625 
L 2419 4116 
z
M 2253 4666 
L 3047 4666 
L 3047 1625 
L 3713 1625 
L 3713 1100 
L 3047 1100 
L 3047 0 
L 2419 0 
L 2419 1100 
L 313 1100 
L 313 1709 
L 2253 4666 
z
" id="DejaVuSans-34" transform="scale(0.015625)"/>
       </defs>
       <use xlink:href="#DejaVuSans-34"/>
      </g>
     </g>
    </g>
    <g id="xtick_4">
     <g id="line2d_7">
      <path clip-path="url(#pb847b9da0c)" d="M 298.532571 298.944 
L 298.532571 3.456 
" style="fill:none;stroke:#b0b0b0;stroke-linecap:square;stroke-width:0.8;"/>
     </g>
     <g id="line2d_8">
      <g>
       <use style="stroke:#000000;stroke-width:0.8;" x="298.532571" xlink:href="#m453173c41c" y="298.944"/>
      </g>
     </g>
     <g id="text_4">
      <!-- 6 -->
      <g transform="translate(292.170071 321.140875)scale(0.2 -0.2)">
       <defs>
        <path d="M 2113 2584 
Q 1688 2584 1439 2293 
Q 1191 2003 1191 1497 
Q 1191 994 1439 701 
Q 1688 409 2113 409 
Q 2538 409 2786 701 
Q 3034 994 3034 1497 
Q 3034 2003 2786 2293 
Q 2538 2584 2113 2584 
z
M 3366 4563 
L 3366 3988 
Q 3128 4100 2886 4159 
Q 2644 4219 2406 4219 
Q 1781 4219 1451 3797 
Q 1122 3375 1075 2522 
Q 1259 2794 1537 2939 
Q 1816 3084 2150 3084 
Q 2853 3084 3261 2657 
Q 3669 2231 3669 1497 
Q 3669 778 3244 343 
Q 2819 -91 2113 -91 
Q 1303 -91 875 529 
Q 447 1150 447 2328 
Q 447 3434 972 4092 
Q 1497 4750 2381 4750 
Q 2619 4750 2861 4703 
Q 3103 4656 3366 4563 
z
" id="DejaVuSans-36" transform="scale(0.015625)"/>
       </defs>
       <use xlink:href="#DejaVuSans-36"/>
      </g>
     </g>
    </g>
    <g id="xtick_5">
     <g id="line2d_9">
      <path clip-path="url(#pb847b9da0c)" d="M 97.755429 298.944 
L 97.755429 3.456 
" style="fill:none;stroke:#b0b0b0;stroke-linecap:square;stroke-width:0.8;"/>
     </g>
     <g id="line2d_10">
      <defs>
       <path d="M 0 0 
L 0 2 
" id="m5286a9d878" style="stroke:#000000;stroke-width:0.6;"/>
      </defs>
      <g>
       <use style="stroke:#000000;stroke-width:0.6;" x="97.755429" xlink:href="#m5286a9d878" y="298.944"/>
      </g>
     </g>
    </g>
    <g id="xtick_6">
     <g id="line2d_11">
      <path clip-path="url(#pb847b9da0c)" d="M 178.066286 298.944 
L 178.066286 3.456 
" style="fill:none;stroke:#b0b0b0;stroke-linecap:square;stroke-width:0.8;"/>
     </g>
     <g id="line2d_12">
      <g>
       <use style="stroke:#000000;stroke-width:0.6;" x="178.066286" xlink:href="#m5286a9d878" y="298.944"/>
      </g>
     </g>
    </g>
    <g id="xtick_7">
     <g id="line2d_13">
      <path clip-path="url(#pb847b9da0c)" d="M 258.377143 298.944 
L 258.377143 3.456 
" style="fill:none;stroke:#b0b0b0;stroke-linecap:square;stroke-width:0.8;"/>
     </g>
     <g id="line2d_14">
      <g>
       <use style="stroke:#000000;stroke-width:0.6;" x="258.377143" xlink:href="#m5286a9d878" y="298.944"/>
      </g>
     </g>
    </g>
    <g id="xtick_8">
     <g id="line2d_15">
      <path clip-path="url(#pb847b9da0c)" d="M 338.688 298.944 
L 338.688 3.456 
" style="fill:none;stroke:#b0b0b0;stroke-linecap:square;stroke-width:0.8;"/>
     </g>
     <g id="line2d_16">
      <g>
       <use style="stroke:#000000;stroke-width:0.6;" x="338.688" xlink:href="#m5286a9d878" y="298.944"/>
      </g>
     </g>
    </g>
    <g id="text_5">
     <!-- log10(# f-evals / dimension) -->
     <g transform="translate(77.764078 342.217594)scale(0.17 -0.17)">
      <defs>
       <path d="M 603 4863 
L 1178 4863 
L 1178 0 
L 603 0 
L 603 4863 
z
" id="DejaVuSans-6c" transform="scale(0.015625)"/>
       <path d="M 1959 3097 
Q 1497 3097 1228 2736 
Q 959 2375 959 1747 
Q 959 1119 1226 758 
Q 1494 397 1959 397 
Q 2419 397 2687 759 
Q 2956 1122 2956 1747 
Q 2956 2369 2687 2733 
Q 2419 3097 1959 3097 
z
M 1959 3584 
Q 2709 3584 3137 3096 
Q 3566 2609 3566 1747 
Q 3566 888 3137 398 
Q 2709 -91 1959 -91 
Q 1206 -91 779 398 
Q 353 888 353 1747 
Q 353 2609 779 3096 
Q 1206 3584 1959 3584 
z
" id="DejaVuSans-6f" transform="scale(0.015625)"/>
       <path d="M 2906 1791 
Q 2906 2416 2648 2759 
Q 2391 3103 1925 3103 
Q 1463 3103 1205 2759 
Q 947 2416 947 1791 
Q 947 1169 1205 825 
Q 1463 481 1925 481 
Q 2391 481 2648 825 
Q 2906 1169 2906 1791 
z
M 3481 434 
Q 3481 -459 3084 -895 
Q 2688 -1331 1869 -1331 
Q 1566 -1331 1297 -1286 
Q 1028 -1241 775 -1147 
L 775 -588 
Q 1028 -725 1275 -790 
Q 1522 -856 1778 -856 
Q 2344 -856 2625 -561 
Q 2906 -266 2906 331 
L 2906 616 
Q 2728 306 2450 153 
Q 2172 0 1784 0 
Q 1141 0 747 490 
Q 353 981 353 1791 
Q 353 2603 747 3093 
Q 1141 3584 1784 3584 
Q 2172 3584 2450 3431 
Q 2728 3278 2906 2969 
L 2906 3500 
L 3481 3500 
L 3481 434 
z
" id="DejaVuSans-67" transform="scale(0.015625)"/>
       <path d="M 794 531 
L 1825 531 
L 1825 4091 
L 703 3866 
L 703 4441 
L 1819 4666 
L 2450 4666 
L 2450 531 
L 3481 531 
L 3481 0 
L 794 0 
L 794 531 
z
" id="DejaVuSans-31" transform="scale(0.015625)"/>
       <path d="M 1984 4856 
Q 1566 4138 1362 3434 
Q 1159 2731 1159 2009 
Q 1159 1288 1364 580 
Q 1569 -128 1984 -844 
L 1484 -844 
Q 1016 -109 783 600 
Q 550 1309 550 2009 
Q 550 2706 781 3412 
Q 1013 4119 1484 4856 
L 1984 4856 
z
" id="DejaVuSans-28" transform="scale(0.015625)"/>
       <path d="M 3272 2816 
L 2363 2816 
L 2100 1772 
L 3016 1772 
L 3272 2816 
z
M 2803 4594 
L 2478 3297 
L 3391 3297 
L 3719 4594 
L 4219 4594 
L 3897 3297 
L 4872 3297 
L 4872 2816 
L 3775 2816 
L 3519 1772 
L 4513 1772 
L 4513 1294 
L 3397 1294 
L 3072 0 
L 2572 0 
L 2894 1294 
L 1978 1294 
L 1656 0 
L 1153 0 
L 1478 1294 
L 494 1294 
L 494 1772 
L 1594 1772 
L 1856 2816 
L 850 2816 
L 850 3297 
L 1978 3297 
L 2297 4594 
L 2803 4594 
z
" id="DejaVuSans-23" transform="scale(0.015625)"/>
       <path id="DejaVuSans-20" transform="scale(0.015625)"/>
       <path d="M 2375 4863 
L 2375 4384 
L 1825 4384 
Q 1516 4384 1395 4259 
Q 1275 4134 1275 3809 
L 1275 3500 
L 2222 3500 
L 2222 3053 
L 1275 3053 
L 1275 0 
L 697 0 
L 697 3053 
L 147 3053 
L 147 3500 
L 697 3500 
L 697 3744 
Q 697 4328 969 4595 
Q 1241 4863 1831 4863 
L 2375 4863 
z
" id="DejaVuSans-66" transform="scale(0.015625)"/>
       <path d="M 313 2009 
L 1997 2009 
L 1997 1497 
L 313 1497 
L 313 2009 
z
" id="DejaVuSans-2d" transform="scale(0.015625)"/>
       <path d="M 3597 1894 
L 3597 1613 
L 953 1613 
Q 991 1019 1311 708 
Q 1631 397 2203 397 
Q 2534 397 2845 478 
Q 3156 559 3463 722 
L 3463 178 
Q 3153 47 2828 -22 
Q 2503 -91 2169 -91 
Q 1331 -91 842 396 
Q 353 884 353 1716 
Q 353 2575 817 3079 
Q 1281 3584 2069 3584 
Q 2775 3584 3186 3129 
Q 3597 2675 3597 1894 
z
M 3022 2063 
Q 3016 2534 2758 2815 
Q 2500 3097 2075 3097 
Q 1594 3097 1305 2825 
Q 1016 2553 972 2059 
L 3022 2063 
z
" id="DejaVuSans-65" transform="scale(0.015625)"/>
       <path d="M 191 3500 
L 800 3500 
L 1894 563 
L 2988 3500 
L 3597 3500 
L 2284 0 
L 1503 0 
L 191 3500 
z
" id="DejaVuSans-76" transform="scale(0.015625)"/>
       <path d="M 2194 1759 
Q 1497 1759 1228 1600 
Q 959 1441 959 1056 
Q 959 750 1161 570 
Q 1363 391 1709 391 
Q 2188 391 2477 730 
Q 2766 1069 2766 1631 
L 2766 1759 
L 2194 1759 
z
M 3341 1997 
L 3341 0 
L 2766 0 
L 2766 531 
Q 2569 213 2275 61 
Q 1981 -91 1556 -91 
Q 1019 -91 701 211 
Q 384 513 384 1019 
Q 384 1609 779 1909 
Q 1175 2209 1959 2209 
L 2766 2209 
L 2766 2266 
Q 2766 2663 2505 2880 
Q 2244 3097 1772 3097 
Q 1472 3097 1187 3025 
Q 903 2953 641 2809 
L 641 3341 
Q 956 3463 1253 3523 
Q 1550 3584 1831 3584 
Q 2591 3584 2966 3190 
Q 3341 2797 3341 1997 
z
" id="DejaVuSans-61" transform="scale(0.015625)"/>
       <path d="M 2834 3397 
L 2834 2853 
Q 2591 2978 2328 3040 
Q 2066 3103 1784 3103 
Q 1356 3103 1142 2972 
Q 928 2841 928 2578 
Q 928 2378 1081 2264 
Q 1234 2150 1697 2047 
L 1894 2003 
Q 2506 1872 2764 1633 
Q 3022 1394 3022 966 
Q 3022 478 2636 193 
Q 2250 -91 1575 -91 
Q 1294 -91 989 -36 
Q 684 19 347 128 
L 347 722 
Q 666 556 975 473 
Q 1284 391 1588 391 
Q 1994 391 2212 530 
Q 2431 669 2431 922 
Q 2431 1156 2273 1281 
Q 2116 1406 1581 1522 
L 1381 1569 
Q 847 1681 609 1914 
Q 372 2147 372 2553 
Q 372 3047 722 3315 
Q 1072 3584 1716 3584 
Q 2034 3584 2315 3537 
Q 2597 3491 2834 3397 
z
" id="DejaVuSans-73" transform="scale(0.015625)"/>
       <path d="M 1625 4666 
L 2156 4666 
L 531 -594 
L 0 -594 
L 1625 4666 
z
" id="DejaVuSans-2f" transform="scale(0.015625)"/>
       <path d="M 2906 2969 
L 2906 4863 
L 3481 4863 
L 3481 0 
L 2906 0 
L 2906 525 
Q 2725 213 2448 61 
Q 2172 -91 1784 -91 
Q 1150 -91 751 415 
Q 353 922 353 1747 
Q 353 2572 751 3078 
Q 1150 3584 1784 3584 
Q 2172 3584 2448 3432 
Q 2725 3281 2906 2969 
z
M 947 1747 
Q 947 1113 1208 752 
Q 1469 391 1925 391 
Q 2381 391 2643 752 
Q 2906 1113 2906 1747 
Q 2906 2381 2643 2742 
Q 2381 3103 1925 3103 
Q 1469 3103 1208 2742 
Q 947 2381 947 1747 
z
" id="DejaVuSans-64" transform="scale(0.015625)"/>
       <path d="M 603 3500 
L 1178 3500 
L 1178 0 
L 603 0 
L 603 3500 
z
M 603 4863 
L 1178 4863 
L 1178 4134 
L 603 4134 
L 603 4863 
z
" id="DejaVuSans-69" transform="scale(0.015625)"/>
       <path d="M 3328 2828 
Q 3544 3216 3844 3400 
Q 4144 3584 4550 3584 
Q 5097 3584 5394 3201 
Q 5691 2819 5691 2113 
L 5691 0 
L 5113 0 
L 5113 2094 
Q 5113 2597 4934 2840 
Q 4756 3084 4391 3084 
Q 3944 3084 3684 2787 
Q 3425 2491 3425 1978 
L 3425 0 
L 2847 0 
L 2847 2094 
Q 2847 2600 2669 2842 
Q 2491 3084 2119 3084 
Q 1678 3084 1418 2786 
Q 1159 2488 1159 1978 
L 1159 0 
L 581 0 
L 581 3500 
L 1159 3500 
L 1159 2956 
Q 1356 3278 1631 3431 
Q 1906 3584 2284 3584 
Q 2666 3584 2933 3390 
Q 3200 3197 3328 2828 
z
" id="DejaVuSans-6d" transform="scale(0.015625)"/>
       <path d="M 3513 2113 
L 3513 0 
L 2938 0 
L 2938 2094 
Q 2938 2591 2744 2837 
Q 2550 3084 2163 3084 
Q 1697 3084 1428 2787 
Q 1159 2491 1159 1978 
L 1159 0 
L 581 0 
L 581 3500 
L 1159 3500 
L 1159 2956 
Q 1366 3272 1645 3428 
Q 1925 3584 2291 3584 
Q 2894 3584 3203 3211 
Q 3513 2838 3513 2113 
z
" id="DejaVuSans-6e" transform="scale(0.015625)"/>
       <path d="M 513 4856 
L 1013 4856 
Q 1481 4119 1714 3412 
Q 1947 2706 1947 2009 
Q 1947 1309 1714 600 
Q 1481 -109 1013 -844 
L 513 -844 
Q 928 -128 1133 580 
Q 1338 1288 1338 2009 
Q 1338 2731 1133 3434 
Q 928 4138 513 4856 
z
" id="DejaVuSans-29" transform="scale(0.015625)"/>
      </defs>
      <use xlink:href="#DejaVuSans-6c"/>
      <use x="27.783203" xlink:href="#DejaVuSans-6f"/>
      <use x="88.964844" xlink:href="#DejaVuSans-67"/>
      <use x="152.441406" xlink:href="#DejaVuSans-31"/>
      <use x="216.064453" xlink:href="#DejaVuSans-30"/>
      <use x="279.6875" xlink:href="#DejaVuSans-28"/>
      <use x="318.701172" xlink:href="#DejaVuSans-23"/>
      <use x="402.490234" xlink:href="#DejaVuSans-20"/>
      <use x="434.277344" xlink:href="#DejaVuSans-66"/>
      <use x="463.982422" xlink:href="#DejaVuSans-2d"/>
      <use x="500.066406" xlink:href="#DejaVuSans-65"/>
      <use x="561.589844" xlink:href="#DejaVuSans-76"/>
      <use x="620.769531" xlink:href="#DejaVuSans-61"/>
      <use x="682.048828" xlink:href="#DejaVuSans-6c"/>
      <use x="709.832031" xlink:href="#DejaVuSans-73"/>
      <use x="761.931641" xlink:href="#DejaVuSans-20"/>
      <use x="793.71875" xlink:href="#DejaVuSans-2f"/>
      <use x="827.410156" xlink:href="#DejaVuSans-20"/>
      <use x="859.197266" xlink:href="#DejaVuSans-64"/>
      <use x="922.673828" xlink:href="#DejaVuSans-69"/>
      <use x="950.457031" xlink:href="#DejaVuSans-6d"/>
      <use x="1047.869141" xlink:href="#DejaVuSans-65"/>
      <use x="1109.392578" xlink:href="#DejaVuSans-6e"/>
      <use x="1172.771484" xlink:href="#DejaVuSans-73"/>
      <use x="1224.871094" xlink:href="#DejaVuSans-69"/>
      <use x="1252.654297" xlink:href="#DejaVuSans-6f"/>
      <use x="1313.835938" xlink:href="#DejaVuSans-6e"/>
      <use x="1377.214844" xlink:href="#DejaVuSans-29"/>
     </g>
    </g>
   </g>
   <g id="matplotlib.axis_2">
    <g id="ytick_1">
     <g id="line2d_17">
      <path clip-path="url(#pb847b9da0c)" d="M 57.6 298.944 
L 338.688 298.944 
" style="fill:none;stroke:#b0b0b0;stroke-linecap:square;stroke-width:0.8;"/>
     </g>
     <g id="line2d_18">
      <defs>
       <path d="M 0 0 
L -3.5 0 
" id="m90ba95f484" style="stroke:#000000;stroke-width:0.8;"/>
      </defs>
      <g>
       <use style="stroke:#000000;stroke-width:0.8;" x="57.6" xlink:href="#m90ba95f484" y="298.944"/>
      </g>
     </g>
     <g id="text_6">
      <!-- 0.0 -->
      <g transform="translate(25.155 305.02275)scale(0.16 -0.16)">
       <defs>
        <path d="M 684 794 
L 1344 794 
L 1344 0 
L 684 0 
L 684 794 
z
" id="DejaVuSans-2e" transform="scale(0.015625)"/>
       </defs>
       <use xlink:href="#DejaVuSans-30"/>
       <use x="63.623047" xlink:href="#DejaVuSans-2e"/>
       <use x="95.410156" xlink:href="#DejaVuSans-30"/>
      </g>
     </g>
    </g>
    <g id="ytick_2">
     <g id="line2d_19">
      <path clip-path="url(#pb847b9da0c)" d="M 57.6 240.431525 
L 338.688 240.431525 
" style="fill:none;stroke:#b0b0b0;stroke-linecap:square;stroke-width:0.8;"/>
     </g>
     <g id="line2d_20">
      <g>
       <use style="stroke:#000000;stroke-width:0.8;" x="57.6" xlink:href="#m90ba95f484" y="240.431525"/>
      </g>
     </g>
     <g id="text_7">
      <!-- 0.2 -->
      <g transform="translate(25.155 246.510275)scale(0.16 -0.16)">
       <use xlink:href="#DejaVuSans-30"/>
       <use x="63.623047" xlink:href="#DejaVuSans-2e"/>
       <use x="95.410156" xlink:href="#DejaVuSans-32"/>
      </g>
     </g>
    </g>
    <g id="ytick_3">
     <g id="line2d_21">
      <path clip-path="url(#pb847b9da0c)" d="M 57.6 181.91905 
L 338.688 181.91905 
" style="fill:none;stroke:#b0b0b0;stroke-linecap:square;stroke-width:0.8;"/>
     </g>
     <g id="line2d_22">
      <g>
       <use style="stroke:#000000;stroke-width:0.8;" x="57.6" xlink:href="#m90ba95f484" y="181.91905"/>
      </g>
     </g>
     <g id="text_8">
      <!-- 0.4 -->
      <g transform="translate(25.155 187.9978)scale(0.16 -0.16)">
       <use xlink:href="#DejaVuSans-30"/>
       <use x="63.623047" xlink:href="#DejaVuSans-2e"/>
       <use x="95.410156" xlink:href="#DejaVuSans-34"/>
      </g>
     </g>
    </g>
    <g id="ytick_4">
     <g id="line2d_23">
      <path clip-path="url(#pb847b9da0c)" d="M 57.6 123.406574 
L 338.688 123.406574 
" style="fill:none;stroke:#b0b0b0;stroke-linecap:square;stroke-width:0.8;"/>
     </g>
     <g id="line2d_24">
      <g>
       <use style="stroke:#000000;stroke-width:0.8;" x="57.6" xlink:href="#m90ba95f484" y="123.406574"/>
      </g>
     </g>
     <g id="text_9">
      <!-- 0.6 -->
      <g transform="translate(25.155 129.485324)scale(0.16 -0.16)">
       <use xlink:href="#DejaVuSans-30"/>
       <use x="63.623047" xlink:href="#DejaVuSans-2e"/>
       <use x="95.410156" xlink:href="#DejaVuSans-36"/>
      </g>
     </g>
    </g>
    <g id="ytick_5">
     <g id="line2d_25">
      <path clip-path="url(#pb847b9da0c)" d="M 57.6 64.894099 
L 338.688 64.894099 
" style="fill:none;stroke:#b0b0b0;stroke-linecap:square;stroke-width:0.8;"/>
     </g>
     <g id="line2d_26">
      <g>
       <use style="stroke:#000000;stroke-width:0.8;" x="57.6" xlink:href="#m90ba95f484" y="64.894099"/>
      </g>
     </g>
     <g id="text_10">
      <!-- 0.8 -->
      <g transform="translate(25.155 70.972849)scale(0.16 -0.16)">
       <defs>
        <path d="M 2034 2216 
Q 1584 2216 1326 1975 
Q 1069 1734 1069 1313 
Q 1069 891 1326 650 
Q 1584 409 2034 409 
Q 2484 409 2743 651 
Q 3003 894 3003 1313 
Q 3003 1734 2745 1975 
Q 2488 2216 2034 2216 
z
M 1403 2484 
Q 997 2584 770 2862 
Q 544 3141 544 3541 
Q 544 4100 942 4425 
Q 1341 4750 2034 4750 
Q 2731 4750 3128 4425 
Q 3525 4100 3525 3541 
Q 3525 3141 3298 2862 
Q 3072 2584 2669 2484 
Q 3125 2378 3379 2068 
Q 3634 1759 3634 1313 
Q 3634 634 3220 271 
Q 2806 -91 2034 -91 
Q 1263 -91 848 271 
Q 434 634 434 1313 
Q 434 1759 690 2068 
Q 947 2378 1403 2484 
z
M 1172 3481 
Q 1172 3119 1398 2916 
Q 1625 2713 2034 2713 
Q 2441 2713 2670 2916 
Q 2900 3119 2900 3481 
Q 2900 3844 2670 4047 
Q 2441 4250 2034 4250 
Q 1625 4250 1398 4047 
Q 1172 3844 1172 3481 
z
" id="DejaVuSans-38" transform="scale(0.015625)"/>
       </defs>
       <use xlink:href="#DejaVuSans-30"/>
       <use x="63.623047" xlink:href="#DejaVuSans-2e"/>
       <use x="95.410156" xlink:href="#DejaVuSans-38"/>
      </g>
     </g>
    </g>
    <g id="ytick_6">
     <g id="line2d_27">
      <path clip-path="url(#pb847b9da0c)" d="M 57.6 6.381624 
L 338.688 6.381624 
" style="fill:none;stroke:#b0b0b0;stroke-linecap:square;stroke-width:0.8;"/>
     </g>
     <g id="line2d_28">
      <g>
       <use style="stroke:#000000;stroke-width:0.8;" x="57.6" xlink:href="#m90ba95f484" y="6.381624"/>
      </g>
     </g>
     <g id="text_11">
      <!-- 1.0 -->
      <g transform="translate(25.155 12.460374)scale(0.16 -0.16)">
       <use xlink:href="#DejaVuSans-31"/>
       <use x="63.623047" xlink:href="#DejaVuSans-2e"/>
       <use x="95.410156" xlink:href="#DejaVuSans-30"/>
      </g>
     </g>
    </g>
    <g id="text_12">
     <!-- Fraction of function,target pairs -->
     <g transform="translate(17.619531 285.585)rotate(-90)scale(0.17 -0.17)">
      <defs>
       <path d="M 628 4666 
L 3309 4666 
L 3309 4134 
L 1259 4134 
L 1259 2759 
L 3109 2759 
L 3109 2228 
L 1259 2228 
L 1259 0 
L 628 0 
L 628 4666 
z
" id="DejaVuSans-46" transform="scale(0.015625)"/>
       <path d="M 2631 2963 
Q 2534 3019 2420 3045 
Q 2306 3072 2169 3072 
Q 1681 3072 1420 2755 
Q 1159 2438 1159 1844 
L 1159 0 
L 581 0 
L 581 3500 
L 1159 3500 
L 1159 2956 
Q 1341 3275 1631 3429 
Q 1922 3584 2338 3584 
Q 2397 3584 2469 3576 
Q 2541 3569 2628 3553 
L 2631 2963 
z
" id="DejaVuSans-72" transform="scale(0.015625)"/>
       <path d="M 3122 3366 
L 3122 2828 
Q 2878 2963 2633 3030 
Q 2388 3097 2138 3097 
Q 1578 3097 1268 2742 
Q 959 2388 959 1747 
Q 959 1106 1268 751 
Q 1578 397 2138 397 
Q 2388 397 2633 464 
Q 2878 531 3122 666 
L 3122 134 
Q 2881 22 2623 -34 
Q 2366 -91 2075 -91 
Q 1284 -91 818 406 
Q 353 903 353 1747 
Q 353 2603 823 3093 
Q 1294 3584 2113 3584 
Q 2378 3584 2631 3529 
Q 2884 3475 3122 3366 
z
" id="DejaVuSans-63" transform="scale(0.015625)"/>
       <path d="M 1172 4494 
L 1172 3500 
L 2356 3500 
L 2356 3053 
L 1172 3053 
L 1172 1153 
Q 1172 725 1289 603 
Q 1406 481 1766 481 
L 2356 481 
L 2356 0 
L 1766 0 
Q 1100 0 847 248 
Q 594 497 594 1153 
L 594 3053 
L 172 3053 
L 172 3500 
L 594 3500 
L 594 4494 
L 1172 4494 
z
" id="DejaVuSans-74" transform="scale(0.015625)"/>
       <path d="M 544 1381 
L 544 3500 
L 1119 3500 
L 1119 1403 
Q 1119 906 1312 657 
Q 1506 409 1894 409 
Q 2359 409 2629 706 
Q 2900 1003 2900 1516 
L 2900 3500 
L 3475 3500 
L 3475 0 
L 2900 0 
L 2900 538 
Q 2691 219 2414 64 
Q 2138 -91 1772 -91 
Q 1169 -91 856 284 
Q 544 659 544 1381 
z
M 1991 3584 
L 1991 3584 
z
" id="DejaVuSans-75" transform="scale(0.015625)"/>
       <path d="M 750 794 
L 1409 794 
L 1409 256 
L 897 -744 
L 494 -744 
L 750 256 
L 750 794 
z
" id="DejaVuSans-2c" transform="scale(0.015625)"/>
       <path d="M 1159 525 
L 1159 -1331 
L 581 -1331 
L 581 3500 
L 1159 3500 
L 1159 2969 
Q 1341 3281 1617 3432 
Q 1894 3584 2278 3584 
Q 2916 3584 3314 3078 
Q 3713 2572 3713 1747 
Q 3713 922 3314 415 
Q 2916 -91 2278 -91 
Q 1894 -91 1617 61 
Q 1341 213 1159 525 
z
M 3116 1747 
Q 3116 2381 2855 2742 
Q 2594 3103 2138 3103 
Q 1681 3103 1420 2742 
Q 1159 2381 1159 1747 
Q 1159 1113 1420 752 
Q 1681 391 2138 391 
Q 2594 391 2855 752 
Q 3116 1113 3116 1747 
z
" id="DejaVuSans-70" transform="scale(0.015625)"/>
      </defs>
      <use xlink:href="#DejaVuSans-46"/>
      <use x="50.269531" xlink:href="#DejaVuSans-72"/>
      <use x="91.382812" xlink:href="#DejaVuSans-61"/>
      <use x="152.662109" xlink:href="#DejaVuSans-63"/>
      <use x="207.642578" xlink:href="#DejaVuSans-74"/>
      <use x="246.851562" xlink:href="#DejaVuSans-69"/>
      <use x="274.634766" xlink:href="#DejaVuSans-6f"/>
      <use x="335.816406" xlink:href="#DejaVuSans-6e"/>
      <use x="399.195312" xlink:href="#DejaVuSans-20"/>
      <use x="430.982422" xlink:href="#DejaVuSans-6f"/>
      <use x="492.164062" xlink:href="#DejaVuSans-66"/>
      <use x="527.369141" xlink:href="#DejaVuSans-20"/>
      <use x="559.15625" xlink:href="#DejaVuSans-66"/>
      <use x="594.361328" xlink:href="#DejaVuSans-75"/>
      <use x="657.740234" xlink:href="#DejaVuSans-6e"/>
      <use x="721.119141" xlink:href="#DejaVuSans-63"/>
      <use x="776.099609" xlink:href="#DejaVuSans-74"/>
      <use x="815.308594" xlink:href="#DejaVuSans-69"/>
      <use x="843.091797" xlink:href="#DejaVuSans-6f"/>
      <use x="904.273438" xlink:href="#DejaVuSans-6e"/>
      <use x="967.652344" xlink:href="#DejaVuSans-2c"/>
      <use x="999.439453" xlink:href="#DejaVuSans-74"/>
      <use x="1038.648438" xlink:href="#DejaVuSans-61"/>
      <use x="1099.927734" xlink:href="#DejaVuSans-72"/>
      <use x="1139.291016" xlink:href="#DejaVuSans-67"/>
      <use x="1202.767578" xlink:href="#DejaVuSans-65"/>
      <use x="1264.291016" xlink:href="#DejaVuSans-74"/>
      <use x="1303.5" xlink:href="#DejaVuSans-20"/>
      <use x="1335.287109" xlink:href="#DejaVuSans-70"/>
      <use x="1398.763672" xlink:href="#DejaVuSans-61"/>
      <use x="1460.042969" xlink:href="#DejaVuSans-69"/>
      <use x="1487.826172" xlink:href="#DejaVuSans-72"/>
      <use x="1528.939453" xlink:href="#DejaVuSans-73"/>
     </g>
    </g>
   </g>
   <g id="line2d_29">
    <defs>
     <path d="M 0 1.5 
C 0.397805 1.5 0.77937 1.341951 1.06066 1.06066 
C 1.341951 0.77937 1.5 0.397805 1.5 0 
C 1.5 -0.397805 1.341951 -0.77937 1.06066 -1.06066 
C 0.77937 -1.341951 0.397805 -1.5 0 -1.5 
C -0.397805 -1.5 -0.77937 -1.341951 -1.06066 -1.06066 
C -1.341951 -0.77937 -1.5 -0.397805 -1.5 0 
C -1.5 0.397805 -1.341951 0.77937 -1.06066 1.06066 
C -0.77937 1.341951 -0.397805 1.5 0 1.5 
z
" id="mb32fa822df" style="stroke:#000080;"/>
    </defs>
    <g>
     <use style="fill:#000080;stroke:#000080;" x="170.956857" xlink:href="#mb32fa822df" y="6.381624"/>
     <use style="fill:#000080;stroke:#000080;" x="170.956857" xlink:href="#mb32fa822df" y="6.381624"/>
    </g>
   </g>
   <g id="line2d_30">
    <path d="M 29.53256 298.944 
L 29.53256 283.455404 
L 41.620548 283.455404 
L 41.620548 281.734448 
L 48.691568 281.734448 
L 48.691568 279.439842 
L 53.708537 279.439842 
L 53.708537 278.86619 
L 60.779557 278.86619 
L 60.779557 278.292538 
L 63.467834 278.292538 
L 63.467834 277.718886 
L 65.796525 277.718886 
L 65.796525 277.145235 
L 69.687988 277.145235 
L 69.687988 275.42428 
L 71.35013 275.42428 
L 71.35013 274.850628 
L 75.555822 274.850628 
L 75.555822 273.703324 
L 81.775977 273.703324 
L 81.775977 272.556021 
L 87.009585 272.556021 
L 87.009585 271.982369 
L 91.029752 271.982369 
L 91.029752 270.835066 
L 92.969447 270.835066 
L 92.969447 270.261414 
L 94.714831 270.261414 
L 94.714831 269.687762 
L 95.526106 269.687762 
L 95.526106 269.114111 
L 107.009204 269.114111 
L 107.009204 267.966807 
L 110.188761 267.966807 
L 110.188761 266.819504 
L 110.358901 266.819504 
L 110.358901 266.245852 
L 110.527398 266.245852 
L 110.527398 265.6722 
L 110.694282 265.6722 
L 110.694282 265.098549 
L 111.346294 265.098549 
L 111.346294 264.524897 
L 111.663381 264.524897 
L 111.663381 263.951245 
L 112.72987 263.951245 
L 112.72987 263.377593 
L 113.022974 263.377593 
L 113.022974 262.803942 
L 114.552496 262.803942 
L 114.552496 262.23029 
L 114.685115 262.23029 
L 114.685115 261.656638 
L 115.33349 261.656638 
L 115.33349 261.082987 
L 115.460322 261.082987 
L 115.460322 258.78838 
L 116.081002 258.78838 
L 116.081002 258.214728 
L 117.486268 258.214728 
L 117.486268 257.641076 
L 117.598418 257.641076 
L 117.598418 257.067425 
L 117.930605 257.067425 
L 117.930605 256.493773 
L 118.148599 256.493773 
L 118.148599 255.920121 
L 118.363901 255.920121 
L 118.363901 255.346469 
L 120.093994 255.346469 
L 120.093994 253.051863 
L 122.276749 253.051863 
L 122.276749 252.478211 
L 122.615387 252.478211 
L 122.615387 251.330907 
L 124.139788 251.330907 
L 124.139788 250.183604 
L 126.70692 250.183604 
L 126.70692 249.609952 
L 127.48501 249.609952 
L 127.48501 249.036301 
L 128.107907 249.036301 
L 128.107907 247.888997 
L 128.290519 247.888997 
L 128.290519 247.315345 
L 129.175952 247.315345 
L 129.175952 246.741694 
L 129.51791 246.741694 
L 129.51791 246.168042 
L 129.686407 246.168042 
L 129.686407 245.59439 
L 129.963666 245.59439 
L 129.963666 245.020738 
L 131.030622 245.020738 
L 131.030622 243.873435 
L 131.540579 243.873435 
L 131.590764 242.15248 
L 132.133473 242.15248 
L 132.181982 241.005176 
L 133.975741 241.005176 
L 133.975741 239.857873 
L 134.192921 239.857873 
L 134.192921 239.284221 
L 134.828688 239.284221 
L 134.828688 238.71057 
L 135.641855 238.71057 
L 135.641855 238.136918 
L 137.48721 238.136918 
L 137.48721 237.563266 
L 138.118883 237.563266 
L 138.153314 235.842311 
L 138.728473 235.842311 
L 138.728473 234.695008 
L 138.89409 234.695008 
L 138.89409 233.547704 
L 139.058148 233.547704 
L 139.058148 232.974052 
L 139.285267 232.974052 
L 139.381706 231.253097 
L 139.477614 231.253097 
L 139.477614 230.679446 
L 139.793552 230.679446 
L 139.793552 230.105794 
L 140.073083 230.105794 
L 140.073083 228.95849 
L 141.148448 228.95849 
L 141.148448 227.811187 
L 141.292695 227.811187 
L 141.292695 227.237535 
L 141.634094 227.237535 
L 141.634094 226.663884 
L 141.746425 226.663884 
L 141.746425 226.090232 
L 142.432559 226.090232 
L 142.432559 225.51658 
L 142.566605 225.51658 
L 142.566605 224.369277 
L 142.778958 224.369277 
L 142.778958 222.648321 
L 142.962669 222.648321 
L 142.962669 221.501018 
L 143.502469 221.501018 
L 143.502469 220.927366 
L 143.653678 220.927366 
L 143.75376 218.632759 
L 144.075117 218.632759 
L 144.148442 217.485456 
L 144.221461 217.485456 
L 144.221461 216.911804 
L 144.582038 216.911804 
L 144.582038 214.617197 
L 145.976095 214.617197 
L 145.976095 214.043546 
L 146.237689 214.043546 
L 146.324022 210.027984 
L 146.431341 210.027984 
L 146.452726 208.88068 
L 146.559258 208.88068 
L 146.665144 207.159725 
L 146.895853 207.159725 
L 146.895853 206.586073 
L 147.061745 206.586073 
L 147.12355 204.291467 
L 147.185137 204.291467 
L 147.185137 203.144163 
L 147.670154 203.144163 
L 147.769524 201.423208 
L 147.96658 201.423208 
L 147.96658 200.849556 
L 148.334961 200.849556 
L 148.334961 200.275904 
L 148.639252 200.275904 
L 148.639252 199.702253 
L 148.956849 199.702253 
L 148.956849 199.128601 
L 149.377533 199.128601 
L 149.413639 197.981298 
L 149.628721 197.981298 
L 149.628721 196.833994 
L 149.876341 196.833994 
L 149.928949 194.539387 
L 150.051085 194.539387 
L 150.120495 193.392084 
L 150.172372 193.392084 
L 150.275665 192.24478 
L 150.56505 192.24478 
L 150.56505 191.671129 
L 151.015013 191.671129 
L 151.015013 191.097477 
L 151.308666 191.097477 
L 151.308666 190.523825 
L 151.453659 190.523825 
L 151.453659 189.950174 
L 151.787359 189.950174 
L 151.881541 185.934612 
L 151.944047 185.934612 
L 151.944047 185.36096 
L 152.176471 185.36096 
L 152.176471 184.787308 
L 152.405838 184.787308 
L 152.466496 181.91905 
L 152.542024 181.91905 
L 152.542024 181.345398 
L 152.826082 181.345398 
L 152.900071 179.624443 
L 153.090987 179.624443 
L 153.090987 179.050791 
L 153.279836 179.050791 
L 153.323128 176.756184 
L 153.40939 176.756184 
L 153.40939 176.182532 
L 153.523746 176.182532 
L 153.523746 175.035229 
L 153.637357 175.035229 
L 153.651507 173.887925 
L 153.820412 173.887925 
L 153.862384 172.16697 
L 154.547439 172.16697 
L 154.654594 169.298712 
L 154.787617 169.298712 
L 154.8141 167.577757 
L 155.0376 167.577757 
L 155.102793 165.856801 
L 155.437927 165.856801 
L 155.437927 165.28315 
L 155.61575 165.28315 
L 155.703987 163.562195 
L 155.94126 163.562195 
L 155.97843 161.267588 
L 156.052535 161.267588 
L 156.052535 160.120284 
L 156.175347 160.120284 
L 156.212023 158.399329 
L 156.550661 158.399329 
L 156.562634 156.678374 
L 156.693802 156.678374 
L 156.705677 155.53107 
L 156.92979 155.53107 
L 157.023299 154.383767 
L 157.093102 154.383767 
L 157.15106 151.515508 
L 157.289376 151.515508 
L 157.358125 148.64725 
L 157.415209 148.64725 
L 157.494815 144.631688 
L 158.195371 144.631688 
L 158.228039 143.484384 
L 158.336493 143.484384 
L 158.336493 142.910733 
L 158.476481 142.910733 
L 158.530025 140.616126 
L 158.625992 140.616126 
L 158.625992 140.042474 
L 158.952561 140.042474 
L 159.056614 137.747867 
L 159.17036 137.747867 
L 159.17036 136.600564 
L 159.314063 136.600564 
L 159.405822 133.732305 
L 159.597964 133.732305 
L 159.688246 132.01135 
L 159.778062 132.01135 
L 159.778062 130.864047 
L 159.956318 130.864047 
L 159.956318 130.290395 
L 160.123015 130.290395 
L 160.123015 129.716743 
L 160.297798 129.716743 
L 160.384537 126.274833 
L 160.489968 126.274833 
L 160.528149 124.553878 
L 160.613753 124.553878 
L 160.613753 122.832923 
L 160.998493 122.832923 
L 160.998493 122.259271 
L 161.164758 122.259271 
L 161.274728 118.243709 
L 161.519653 118.243709 
L 161.627414 116.522754 
L 161.654251 116.522754 
L 161.7078 114.801798 
L 162.139074 114.801798 
L 162.182487 113.080843 
L 162.277619 113.080843 
L 162.337888 109.065281 
L 162.397949 109.065281 
L 162.500433 107.917978 
L 162.534461 107.917978 
L 162.542958 106.197023 
L 162.862799 106.197023 
L 162.862799 105.623371 
L 162.995734 105.623371 
L 163.086542 102.181461 
L 163.144084 102.181461 
L 163.225959 100.460506 
L 163.291183 100.460506 
L 163.291183 99.886854 
L 163.629664 99.886854 
L 163.685444 97.592247 
L 163.764822 97.592247 
L 163.851722 94.150337 
L 163.969529 94.150337 
L 164.063205 90.708426 
L 164.171861 90.708426 
L 164.171861 90.134775 
L 164.295217 90.134775 
L 164.364222 87.840168 
L 164.516598 87.840168 
L 164.592289 84.398257 
L 164.705214 84.398257 
L 164.75018 80.956347 
L 164.899235 80.956347 
L 164.995441 78.088089 
L 165.193576 78.088089 
L 165.222738 74.072526 
L 165.367825 74.072526 
L 165.475853 71.204268 
L 165.547501 71.204268 
L 165.640207 69.483313 
L 165.746566 69.483313 
L 165.831189 67.762358 
L 166.089553 67.762358 
L 166.193215 64.320447 
L 166.20699 64.320447 
L 166.309958 61.452189 
L 166.453099 61.452189 
L 166.453099 60.304885 
L 166.628709 60.304885 
L 166.715855 58.010278 
L 166.829163 58.010278 
L 166.935137 56.862975 
L 166.981298 56.862975 
L 167.014197 53.994716 
L 167.339809 53.994716 
L 167.410635 51.700109 
L 167.474773 51.700109 
L 167.525915 49.405503 
L 167.973343 49.405503 
L 168.072606 44.242637 
L 168.13436 44.242637 
L 168.177458 41.94803 
L 168.348793 41.94803 
L 168.409578 39.079772 
L 168.488284 39.079772 
L 168.578658 35.637861 
L 168.60868 35.637861 
L 168.674545 33.916906 
L 168.722291 33.916906 
L 168.811464 32.195951 
L 168.900184 32.195951 
L 168.994323 31.048648 
L 169.023638 31.048648 
L 169.023638 30.474996 
L 169.186895 30.474996 
L 169.262177 23.017524 
L 169.302579 23.017524 
L 169.411773 21.296568 
L 169.474679 21.296568 
L 169.560096 19.001962 
L 169.73531 19.001962 
L 169.763406 16.707355 
L 169.914348 16.707355 
L 170.019789 15.560051 
L 170.069512 15.560051 
L 170.069512 14.9864 
L 170.184987 14.9864 
L 170.28336 12.691793 
L 170.299701 12.691793 
L 170.370339 8.676231 
L 170.628703 8.676231 
L 170.628703 8.102579 
L 170.846398 8.102579 
L 170.956857 6.381624 
L 338.688 6.381624 
L 338.688 6.381624 
" style="fill:none;stroke:#000080;stroke-linecap:square;stroke-width:1.5;"/>
   </g>
   <g id="line2d_31">
    <defs>
     <path d="M 0 6 
C 1.591219 6 3.117479 5.367802 4.242641 4.242641 
C 5.367802 3.117479 6 1.591219 6 0 
C 6 -1.591219 5.367802 -3.117479 4.242641 -4.242641 
C 3.117479 -5.367802 1.591219 -6 0 -6 
C -1.591219 -6 -3.117479 -5.367802 -4.242641 -4.242641 
C -5.367802 -3.117479 -6 -1.591219 -6 0 
C -6 1.591219 -5.367802 3.117479 -4.242641 4.242641 
C -3.117479 5.367802 -1.591219 6 0 6 
z
" id="mda7bbafefa" style="stroke:#000080;stroke-width:1.5;"/>
    </defs>
    <g>
     <use style="fill-opacity:0;stroke:#000080;stroke-width:1.5;" x="95.526106" xlink:href="#mda7bbafefa" y="269.114111"/>
     <use style="fill-opacity:0;stroke:#000080;stroke-width:1.5;" x="152.176471" xlink:href="#mda7bbafefa" y="184.787308"/>
     <use style="fill-opacity:0;stroke:#000080;stroke-width:1.5;" x="168.500361" xlink:href="#mda7bbafefa" y="37.932468"/>
     <use style="fill-opacity:0;stroke:#000080;stroke-width:1.5;" x="170.956857" xlink:href="#mda7bbafefa" y="6.381624"/>
     <use style="fill-opacity:0;stroke:#000080;stroke-width:1.5;" x="170.956857" xlink:href="#mda7bbafefa" y="6.381624"/>
     <use style="fill-opacity:0;stroke:#000080;stroke-width:1.5;" x="338.688" xlink:href="#mda7bbafefa" y="6.381624"/>
    </g>
   </g>
   <g id="line2d_32">
    <path style="fill:none;stroke:#000080;stroke-linecap:square;stroke-width:1.5;"/>
    <g/>
   </g>
   <g id="line2d_33">
    <defs>
     <path d="M 0 1.5 
C 0.397805 1.5 0.77937 1.341951 1.06066 1.06066 
C 1.341951 0.77937 1.5 0.397805 1.5 0 
C 1.5 -0.397805 1.341951 -0.77937 1.06066 -1.06066 
C 0.77937 -1.341951 0.397805 -1.5 0 -1.5 
C -0.397805 -1.5 -0.77937 -1.341951 -1.06066 -1.06066 
C -1.341951 -0.77937 -1.5 -0.397805 -1.5 0 
C -1.5 0.397805 -1.341951 0.77937 -1.06066 1.06066 
C -0.77937 1.341951 -0.397805 1.5 0 1.5 
z
" id="me6fec41edf" style="stroke:#ff00ff;"/>
    </defs>
    <g>
     <use style="fill:#ff00ff;stroke:#ff00ff;" x="178.483291" xlink:href="#me6fec41edf" y="6.381624"/>
     <use style="fill:#ff00ff;stroke:#ff00ff;" x="178.483291" xlink:href="#me6fec41edf" y="6.381624"/>
    </g>
   </g>
   <g id="line2d_34">
    <path d="M 149.177602 298.944 
L 149.177602 298.370348 
L 149.981398 298.370348 
L 150.051085 297.223045 
L 150.51433 297.223045 
L 150.51433 296.075741 
L 151.178764 296.075741 
L 151.178764 295.50209 
L 151.389366 295.50209 
L 151.485716 293.207483 
L 152.511852 293.207483 
L 152.511852 292.633831 
L 153.032466 292.633831 
L 153.090987 291.486528 
L 153.279836 291.486528 
L 153.279836 290.912876 
L 153.637357 290.912876 
L 153.736164 289.191921 
L 154.654594 289.191921 
L 154.654594 288.044617 
L 154.919633 288.044617 
L 154.985269 286.323662 
L 155.076745 286.323662 
L 155.141793 285.176359 
L 155.296925 285.176359 
L 155.296925 284.602707 
L 155.425155 284.602707 
L 155.501643 283.455404 
L 155.766741 283.455404 
L 155.766741 282.881752 
L 155.904009 282.881752 
L 155.966049 281.734448 
L 156.138594 281.734448 
L 156.138594 281.160797 
L 156.272978 281.160797 
L 156.272978 280.587145 
L 156.442528 280.587145 
L 156.526689 278.86619 
L 156.835778 278.86619 
L 156.835778 278.292538 
L 157.093102 278.292538 
L 157.1279 275.42428 
L 157.277891 275.42428 
L 157.277891 273.703324 
L 157.494815 273.703324 
L 157.596634 269.114111 
L 157.675417 269.114111 
L 157.675417 268.540459 
L 157.942862 268.540459 
L 158.053098 267.393156 
L 158.390468 267.393156 
L 158.390468 266.245852 
L 158.562073 266.245852 
L 158.657864 263.377593 
L 158.763686 263.377593 
L 158.868869 260.509335 
L 158.9003 260.509335 
L 158.9003 259.935683 
L 159.486982 259.935683 
L 159.486982 259.362031 
L 159.618067 259.362031 
L 159.618067 258.78838 
L 159.738201 258.78838 
L 159.807898 255.346469 
L 159.956318 255.346469 
L 159.956318 254.772818 
L 160.442124 254.772818 
L 160.518612 253.051863 
L 160.680044 253.051863 
L 160.680044 251.330907 
L 160.839995 251.330907 
L 160.839995 250.757256 
L 161.228992 250.757256 
L 161.274728 249.036301 
L 161.447441 249.036301 
L 161.447441 248.462649 
L 161.591568 248.462649 
L 161.591568 247.888997 
L 161.796686 247.888997 
L 161.858637 246.168042 
L 161.955547 246.168042 
L 161.955547 245.59439 
L 162.130378 245.59439 
L 162.147765 243.299783 
L 162.243086 243.299783 
L 162.277619 241.005176 
L 162.397949 241.005176 
L 162.474869 239.284221 
L 162.636148 239.284221 
L 162.636148 238.136918 
L 162.837761 238.136918 
L 162.887802 235.268659 
L 163.01228 235.268659 
L 163.111226 234.121356 
L 163.144084 234.121356 
L 163.185069 231.826749 
L 163.348054 231.826749 
L 163.348054 231.253097 
L 163.597709 231.253097 
L 163.597709 230.679446 
L 163.859601 230.679446 
L 163.953867 226.663884 
L 164.047627 226.663884 
L 164.133133 224.942928 
L 164.325919 224.942928 
L 164.325919 224.369277 
L 164.440577 224.369277 
L 164.493826 222.648321 
L 164.577177 222.648321 
L 164.660132 219.780063 
L 164.712717 219.780063 
L 164.809955 218.059108 
L 164.876958 218.059108 
L 164.973287 215.190849 
L 165.222738 215.190849 
L 165.331666 211.748939 
L 165.425523 211.748939 
L 165.439918 210.601635 
L 165.568939 210.601635 
L 165.668633 208.307029 
L 165.7041 208.307029 
L 165.732422 207.159725 
L 165.817113 207.159725 
L 165.817113 206.012422 
L 166.034014 206.012422 
L 166.144916 200.849556 
L 166.316801 200.849556 
L 166.337313 199.702253 
L 166.446309 199.702253 
L 166.446309 199.128601 
L 166.689087 199.128601 
L 166.795913 196.260342 
L 166.968122 196.260342 
L 167.066705 193.392084 
L 167.223287 193.392084 
L 167.333356 190.523825 
L 167.372038 190.523825 
L 167.449146 187.081915 
L 167.493969 187.081915 
L 167.545055 184.787308 
L 167.659453 184.787308 
L 167.659453 184.213656 
L 167.948439 184.213656 
L 168.054037 181.91905 
L 168.066419 181.91905 
L 168.177458 177.329836 
L 168.189752 177.329836 
L 168.257216 174.461577 
L 168.391365 174.461577 
L 168.464104 172.740622 
L 168.578658 172.740622 
L 168.68052 169.298712 
L 168.734207 169.298712 
L 168.841088 167.004105 
L 168.923766 167.004105 
L 168.976711 165.856801 
L 169.070439 165.856801 
L 169.070439 164.709498 
L 169.192698 164.709498 
L 169.250616 160.693936 
L 169.314106 160.693936 
L 169.388841 158.399329 
L 169.525979 158.399329 
L 169.525979 157.825677 
L 169.662047 157.825677 
L 169.75779 154.383767 
L 169.791457 154.383767 
L 169.880918 149.794553 
L 169.942157 149.794553 
L 169.953269 148.073598 
L 170.217839 148.073598 
L 170.326903 144.058036 
L 170.37576 144.058036 
L 170.483844 140.042474 
L 170.526891 140.042474 
L 170.591263 138.321519 
L 170.655397 138.321519 
L 170.655397 137.747867 
L 170.835842 137.747867 
L 170.893823 134.879609 
L 171.003983 134.879609 
L 171.097855 133.158653 
L 171.144602 133.158653 
L 171.242881 129.143091 
L 171.289242 129.143091 
L 171.32008 127.995788 
L 171.427588 127.995788 
L 171.534438 124.553878 
L 171.54458 124.553878 
L 171.645677 122.832923 
L 171.716099 122.832923 
L 171.716099 121.685619 
L 171.86605 121.685619 
L 171.885947 119.964664 
L 171.980146 119.964664 
L 172.078757 117.670057 
L 172.122951 117.670057 
L 172.22076 114.801798 
L 172.240256 114.801798 
L 172.347097 113.654495 
L 172.380955 113.654495 
L 172.477331 103.328764 
L 172.654236 103.328764 
L 172.739653 99.313202 
L 172.791647 99.313202 
L 172.89048 95.29764 
L 172.918615 95.29764 
L 172.956059 94.150337 
L 173.132825 94.150337 
L 173.132825 93.576685 
L 173.307818 93.576685 
L 173.403777 90.134775 
L 173.426547 90.134775 
L 173.426547 89.561123 
L 173.625648 89.561123 
L 173.733298 85.545561 
L 173.831397 85.545561 
L 173.920102 82.677302 
L 173.977519 82.677302 
L 174.069872 80.382695 
L 174.187897 80.382695 
L 174.227062 77.514437 
L 174.318106 77.514437 
L 174.404376 73.498875 
L 174.613949 73.498875 
L 174.719912 68.336009 
L 174.766332 68.336009 
L 174.83783 63.173144 
L 174.896492 63.173144 
L 175.004915 62.02584 
L 175.03399 62.02584 
L 175.129186 53.421065 
L 175.199215 53.421065 
L 175.264868 49.979154 
L 175.379171 49.979154 
L 175.379171 49.405503 
L 175.553262 49.405503 
L 175.60957 46.537244 
L 175.669698 46.537244 
L 175.77741 44.242637 
L 175.844889 44.242637 
L 175.955464 39.653423 
L 175.96727 39.653423 
L 176.022259 35.06421 
L 176.112223 35.06421 
L 176.123923 33.916906 
L 176.294632 33.916906 
L 176.402401 31.622299 
L 176.406237 31.622299 
L 176.4369 30.474996 
L 176.520945 30.474996 
L 176.615961 28.754041 
L 176.672724 28.754041 
L 176.736832 27.033086 
L 176.845652 27.033086 
L 176.879286 25.31213 
L 176.998351 25.31213 
L 177.105556 21.296568 
L 177.120292 21.296568 
L 177.127655 20.149265 
L 177.270615 20.149265 
L 177.270615 19.001962 
L 177.387048 19.001962 
L 177.401547 16.707355 
L 177.517111 16.707355 
L 177.535099 13.265444 
L 177.770817 13.265444 
L 177.788545 12.118141 
L 177.919177 12.118141 
L 178.010391 10.970838 
L 178.069773 10.970838 
L 178.14285 9.249882 
L 178.225994 9.249882 
L 178.25362 8.102579 
L 178.425302 8.102579 
L 178.483291 6.381624 
L 338.688 6.381624 
L 338.688 6.381624 
" style="fill:none;stroke:#ff00ff;stroke-linecap:square;stroke-width:1.5;"/>
   </g>
   <g id="line2d_35">
    <defs>
     <path d="M -0 8.485281 
L 5.091169 0 
L 0 -8.485281 
L -5.091169 -0 
z
" id="m6bcf0c5c0e" style="stroke:#ff00ff;stroke-linejoin:miter;stroke-width:1.5;"/>
    </defs>
    <g>
     <use style="fill-opacity:0;stroke:#ff00ff;stroke-linejoin:miter;stroke-width:1.5;" x="168.923766" xlink:href="#m6bcf0c5c0e" y="166.430453"/>
     <use style="fill-opacity:0;stroke:#ff00ff;stroke-linejoin:miter;stroke-width:1.5;" x="178.483291" xlink:href="#m6bcf0c5c0e" y="6.955275"/>
     <use style="fill-opacity:0;stroke:#ff00ff;stroke-linejoin:miter;stroke-width:1.5;" x="178.483291" xlink:href="#m6bcf0c5c0e" y="6.381624"/>
     <use style="fill-opacity:0;stroke:#ff00ff;stroke-linejoin:miter;stroke-width:1.5;" x="178.483291" xlink:href="#m6bcf0c5c0e" y="6.381624"/>
     <use style="fill-opacity:0;stroke:#ff00ff;stroke-linejoin:miter;stroke-width:1.5;" x="338.688" xlink:href="#m6bcf0c5c0e" y="6.381624"/>
    </g>
   </g>
   <g id="line2d_36">
    <path style="fill:none;stroke:#ff00ff;stroke-linecap:square;stroke-width:1.5;"/>
    <g/>
   </g>
   <g id="line2d_37">
    <defs>
     <path d="M 0 1.5 
C 0.397805 1.5 0.77937 1.341951 1.06066 1.06066 
C 1.341951 0.77937 1.5 0.397805 1.5 0 
C 1.5 -0.397805 1.341951 -0.77937 1.06066 -1.06066 
C 0.77937 -1.341951 0.397805 -1.5 0 -1.5 
C -0.397805 -1.5 -0.77937 -1.341951 -1.06066 -1.06066 
C -1.341951 -0.77937 -1.5 -0.397805 -1.5 0 
C -1.5 0.397805 -1.341951 0.77937 -1.06066 1.06066 
C -0.77937 1.341951 -0.397805 1.5 0 1.5 
z
" id="m005015932e" style="stroke:#ff7500;"/>
    </defs>
    <g>
     <use style="fill:#ff7500;stroke:#ff7500;" x="225.772061" xlink:href="#m005015932e" y="235.842311"/>
     <use style="fill:#ff7500;stroke:#ff7500;" x="225.772061" xlink:href="#m005015932e" y="235.842311"/>
    </g>
   </g>
   <g id="line2d_38">
    <path d="M 29.53256 298.944 
L 29.53256 297.796697 
L 41.620548 297.796697 
L 41.620548 297.223045 
L 53.708537 297.223045 
L 53.708537 296.649393 
L 57.6 296.649393 
L 57.6 295.50209 
L 77.884514 295.50209 
L 77.884514 294.928438 
L 79.938565 294.928438 
L 79.938565 294.354786 
L 82.626842 294.354786 
L 82.626842 293.207483 
L 87.009585 293.207483 
L 87.009585 292.633831 
L 106.593963 292.633831 
L 106.593963 292.060179 
L 111.505558 292.060179 
L 111.505558 291.486528 
L 113.453595 291.486528 
L 113.453595 290.912876 
L 115.586238 290.912876 
L 115.586238 289.765573 
L 115.958621 289.765573 
L 115.958621 289.191921 
L 116.797786 289.191921 
L 116.797786 288.618269 
L 122.44689 288.618269 
L 122.44689 288.044617 
L 125.399222 288.044617 
L 125.399222 287.470966 
L 126.904721 287.470966 
L 126.904721 286.897314 
L 129.290685 286.897314 
L 129.290685 286.323662 
L 129.630422 286.323662 
L 129.630422 285.75001 
L 130.505303 285.75001 
L 130.505303 285.176359 
L 134.450015 285.176359 
L 134.450015 284.602707 
L 134.703375 284.602707 
L 134.703375 284.029055 
L 135.641855 284.029055 
L 135.641855 283.455404 
L 136.942755 283.455404 
L 136.942755 282.881752 
L 137.664982 282.881752 
L 137.664982 282.3081 
L 138.256201 282.3081 
L 138.256201 281.160797 
L 138.927025 281.160797 
L 138.927025 280.587145 
L 139.253002 280.587145 
L 139.253002 280.013493 
L 139.381706 280.013493 
L 139.413734 278.86619 
L 139.730821 278.86619 
L 139.730821 278.292538 
L 141.435758 278.292538 
L 141.435758 277.718886 
L 143.375453 277.718886 
L 143.47714 276.571583 
L 143.653678 276.571583 
L 143.653678 275.997931 
L 144.582038 275.997931 
L 144.582038 274.850628 
L 145.954117 274.850628 
L 146.019967 272.556021 
L 146.538004 272.556021 
L 146.538004 271.982369 
L 146.77039 271.982369 
L 146.77039 271.408718 
L 149.805951 271.408718 
L 149.805951 270.835066 
L 150.965587 270.835066 
L 150.965587 270.261414 
L 151.146137 270.261414 
L 151.146137 269.687762 
L 151.834513 269.687762 
L 151.834513 269.114111 
L 152.052897 269.114111 
L 152.052897 268.540459 
L 152.973748 268.540459 
L 152.973748 267.966807 
L 154.721232 267.966807 
L 154.721232 267.393156 
L 156.847557 267.393156 
L 156.847557 266.819504 
L 157.185742 266.819504 
L 157.185742 266.245852 
L 158.086033 266.245852 
L 158.086033 263.951245 
L 159.07735 263.951245 
L 159.07735 263.377593 
L 159.252621 263.377593 
L 159.252621 262.803942 
L 159.456591 262.803942 
L 159.456591 262.23029 
L 163.266752 262.23029 
L 163.266752 261.656638 
L 164.348911 261.656638 
L 164.348911 260.509335 
L 165.526038 260.509335 
L 165.526038 259.935683 
L 165.866327 259.935683 
L 165.866327 259.362031 
L 166.179429 259.362031 
L 166.179429 258.78838 
L 166.782596 258.78838 
L 166.782596 258.214728 
L 167.589632 258.214728 
L 167.589632 257.641076 
L 167.998212 257.641076 
L 167.998212 257.067425 
L 168.403509 257.067425 
L 168.403509 256.493773 
L 169.210094 256.493773 
L 169.210094 255.920121 
L 169.388841 255.920121 
L 169.388841 255.346469 
L 169.808266 255.346469 
L 169.808266 254.772818 
L 170.740545 254.772818 
L 170.740545 254.199166 
L 170.935871 254.199166 
L 170.935871 253.625514 
L 171.345738 253.625514 
L 171.345738 253.051863 
L 171.503976 253.051863 
L 171.503976 252.478211 
L 171.655755 252.478211 
L 171.655755 251.904559 
L 172.11314 251.904559 
L 172.11314 251.330907 
L 173.417442 251.330907 
L 173.421995 250.183604 
L 173.769034 250.183604 
L 173.769034 249.609952 
L 175.605554 249.609952 
L 175.605554 249.036301 
L 175.888413 249.036301 
L 175.888413 248.462649 
L 176.520945 248.462649 
L 176.61217 247.315345 
L 177.816873 247.315345 
L 177.816873 246.741694 
L 179.785408 246.741694 
L 179.785408 246.168042 
L 180.854923 246.168042 
L 180.854923 245.59439 
L 191.317886 245.59439 
L 191.317886 245.020738 
L 194.333539 245.020738 
L 194.333539 244.447087 
L 195.683764 244.447087 
L 195.683764 243.873435 
L 196.320983 243.873435 
L 196.320983 243.299783 
L 196.83378 243.299783 
L 196.83378 242.726132 
L 197.491812 242.726132 
L 197.491812 242.15248 
L 205.906235 242.15248 
L 205.906235 241.578828 
L 208.655789 241.578828 
L 208.655789 241.005176 
L 209.595823 241.005176 
L 209.595823 240.431525 
L 209.879487 240.431525 
L 209.879487 239.857873 
L 212.108359 239.857873 
L 212.108359 239.284221 
L 213.476988 239.284221 
L 213.476988 238.71057 
L 214.855045 238.71057 
L 214.855045 238.136918 
L 215.023452 238.136918 
L 215.023452 237.563266 
L 215.644115 237.563266 
L 215.644115 236.989614 
L 221.755161 236.989614 
L 221.755161 236.415963 
L 225.772061 236.415963 
L 225.772061 235.842311 
L 338.688 235.842311 
L 338.688 235.842311 
" style="fill:none;stroke:#ff7500;stroke-linecap:square;stroke-width:1.5;"/>
   </g>
   <g id="line2d_39">
    <defs>
     <path d="M 0 -6 
L -1.347084 -1.854102 
L -5.706339 -1.854102 
L -2.179628 0.708204 
L -3.526712 4.854102 
L -0 2.291796 
L 3.526712 4.854102 
L 2.179628 0.708204 
L 5.706339 -1.854102 
L 1.347084 -1.854102 
z
" id="m9ac4f58dea" style="stroke:#ff7500;stroke-linejoin:bevel;stroke-width:1.5;"/>
    </defs>
    <g>
     <use style="fill-opacity:0;stroke:#ff7500;stroke-linejoin:bevel;stroke-width:1.5;" x="82.626842" xlink:href="#m9ac4f58dea" y="293.207483"/>
     <use style="fill-opacity:0;stroke:#ff7500;stroke-linejoin:bevel;stroke-width:1.5;" x="163.266752" xlink:href="#m9ac4f58dea" y="262.23029"/>
     <use style="fill-opacity:0;stroke:#ff7500;stroke-linejoin:bevel;stroke-width:1.5;" x="215.644115" xlink:href="#m9ac4f58dea" y="237.563266"/>
     <use style="fill-opacity:0;stroke:#ff7500;stroke-linejoin:bevel;stroke-width:1.5;" x="225.772061" xlink:href="#m9ac4f58dea" y="235.842311"/>
     <use style="fill-opacity:0;stroke:#ff7500;stroke-linejoin:bevel;stroke-width:1.5;" x="225.772061" xlink:href="#m9ac4f58dea" y="235.842311"/>
     <use style="fill-opacity:0;stroke:#ff7500;stroke-linejoin:bevel;stroke-width:1.5;" x="338.688" xlink:href="#m9ac4f58dea" y="235.842311"/>
    </g>
   </g>
   <g id="line2d_40">
    <path style="fill:none;stroke:#ff7500;stroke-linecap:square;stroke-width:1.5;"/>
    <g/>
   </g>
   <g id="line2d_41">
    <path clip-path="url(#pb847b9da0c)" d="M 189.075212 245.59439 
" style="fill:none;stroke:#ff7500;stroke-linecap:square;stroke-width:1.5;"/>
    <defs>
     <path d="M -12 12 
L 12 -12 
M -12 -12 
L 12 12 
" id="me516f1751c" style="stroke:#ff7500;"/>
    </defs>
    <g clip-path="url(#pb847b9da0c)">
     <use style="fill:#ff7500;stroke:#ff7500;" x="189.075212" xlink:href="#me516f1751c" y="245.59439"/>
    </g>
   </g>
   <g id="line2d_42">
    <defs>
     <path d="M 0 1.5 
C 0.397805 1.5 0.77937 1.341951 1.06066 1.06066 
C 1.341951 0.77937 1.5 0.397805 1.5 0 
C 1.5 -0.397805 1.341951 -0.77937 1.06066 -1.06066 
C 0.77937 -1.341951 0.397805 -1.5 0 -1.5 
C -0.397805 -1.5 -0.77937 -1.341951 -1.06066 -1.06066 
C -1.341951 -0.77937 -1.5 -0.397805 -1.5 0 
C -1.5 0.397805 -1.341951 0.77937 -1.06066 1.06066 
C -0.77937 1.341951 -0.397805 1.5 0 1.5 
z
" id="m5df0507b0b" style="stroke:#6495ed;"/>
    </defs>
    <g>
     <use style="fill:#6495ed;stroke:#6495ed;" x="252.122274" xlink:href="#m5df0507b0b" y="247.315345"/>
     <use style="fill:#6495ed;stroke:#6495ed;" x="252.122274" xlink:href="#m5df0507b0b" y="247.315345"/>
    </g>
   </g>
   <g id="line2d_43">
    <path d="M 29.53256 298.944 
L 29.53256 298.370348 
L 53.708537 298.370348 
L 53.708537 297.796697 
L 76.759008 297.796697 
L 76.759008 297.223045 
L 81.775977 297.223045 
L 81.775977 296.649393 
L 93.422441 296.649393 
L 93.422441 296.075741 
L 98.100772 296.075741 
L 98.100772 295.50209 
L 102.597126 295.50209 
L 102.597126 294.928438 
L 110.016944 294.928438 
L 110.016944 294.354786 
L 110.527398 294.354786 
L 110.527398 293.781135 
L 111.023335 293.781135 
L 111.023335 293.207483 
L 113.594805 293.207483 
L 113.594805 292.633831 
L 114.552496 292.633831 
L 114.552496 292.060179 
L 115.077025 292.060179 
L 115.077025 291.486528 
L 115.460322 291.486528 
L 115.460322 290.912876 
L 116.202531 290.912876 
L 116.202531 290.339224 
L 116.443076 290.339224 
L 116.443076 289.765573 
L 116.680349 289.765573 
L 116.680349 289.191921 
L 118.576578 289.191921 
L 118.576578 288.618269 
L 122.018385 288.618269 
L 122.018385 288.044617 
L 125.822869 288.044617 
L 125.822869 286.897314 
L 127.54831 286.897314 
L 127.54831 286.323662 
L 129.404667 286.323662 
L 129.404667 285.75001 
L 131.839545 285.75001 
L 131.839545 285.176359 
L 133.352844 285.176359 
L 133.352844 284.602707 
L 134.870259 284.602707 
L 134.870259 284.029055 
L 135.995765 284.029055 
L 136.034648 282.881752 
L 138.959898 282.881752 
L 138.959898 282.3081 
L 139.285267 282.3081 
L 139.285267 281.734448 
L 139.509467 281.734448 
L 139.509467 281.160797 
L 140.011351 281.160797 
L 140.011351 280.587145 
L 140.499195 280.587145 
L 140.499195 280.013493 
L 143.144465 280.013493 
L 143.144465 279.439842 
L 144.582038 279.439842 
L 144.582038 278.86619 
L 144.91198 278.86619 
L 144.91198 278.292538 
L 145.755062 278.292538 
L 145.755062 277.718886 
L 148.025265 277.718886 
L 148.025265 277.145235 
L 148.54473 277.145235 
L 148.54473 276.571583 
L 150.068464 276.571583 
L 150.068464 275.997931 
L 150.412445 275.997931 
L 150.412445 275.42428 
L 150.866312 275.42428 
L 150.866312 274.850628 
L 153.395042 274.850628 
L 153.452361 273.703324 
L 154.385464 273.703324 
L 154.385464 273.129673 
L 155.024532 273.129673 
L 155.024532 272.556021 
L 156.015522 272.556021 
L 156.015522 271.408718 
L 156.562634 271.408718 
L 156.562634 269.687762 
L 158.594062 269.687762 
L 158.594062 269.114111 
L 158.774233 269.114111 
L 158.774233 268.540459 
L 160.783709 268.540459 
L 160.811875 267.393156 
L 161.591568 267.393156 
L 161.591568 266.819504 
L 161.96433 266.819504 
L 161.96433 266.245852 
L 164.682688 266.245852 
L 164.682688 265.6722 
L 164.79503 265.6722 
L 164.79503 265.098549 
L 164.980675 265.098549 
L 164.98806 263.377593 
L 166.068747 263.377593 
L 166.068747 262.803942 
L 166.24138 262.803942 
L 166.24138 262.23029 
L 166.568121 262.23029 
L 166.568121 261.656638 
L 167.646779 261.656638 
L 167.646779 260.509335 
L 168.122027 260.509335 
L 168.122027 259.935683 
L 168.415645 259.935683 
L 168.415645 259.362031 
L 172.951383 259.362031 
L 172.951383 258.78838 
L 175.100268 258.78838 
L 175.100268 258.214728 
L 175.227969 258.214728 
L 175.227969 257.641076 
L 175.896315 257.641076 
L 175.896315 257.067425 
L 176.680278 257.067425 
L 176.680278 256.493773 
L 177.538694 256.493773 
L 177.538694 255.920121 
L 178.232904 255.920121 
L 178.232904 255.346469 
L 184.191312 255.346469 
L 184.191312 254.772818 
L 193.059929 254.772818 
L 193.059929 254.199166 
L 193.974439 254.199166 
L 193.974439 253.625514 
L 196.209196 253.625514 
L 196.209196 253.051863 
L 208.91939 253.051863 
L 208.91939 252.478211 
L 212.494777 252.478211 
L 212.494777 251.904559 
L 221.34421 251.904559 
L 221.34421 251.330907 
L 234.533374 251.330907 
L 234.533374 250.757256 
L 235.045918 250.757256 
L 235.045918 250.183604 
L 243.471675 250.183604 
L 243.471675 249.609952 
L 243.634886 249.609952 
L 243.634886 249.036301 
L 244.759355 249.036301 
L 244.759355 248.462649 
L 246.825215 248.462649 
L 246.825215 247.888997 
L 252.122274 247.888997 
L 252.122274 247.315345 
L 338.688 247.315345 
L 338.688 247.315345 
" style="fill:none;stroke:#6495ed;stroke-linecap:square;stroke-width:1.5;"/>
   </g>
   <g id="line2d_44">
    <defs>
     <path d="M -0 6 
L 6 -6 
L -6 -6 
z
" id="m6f05bcaea1" style="stroke:#6495ed;stroke-linejoin:miter;stroke-width:1.5;"/>
    </defs>
    <g>
     <use style="fill-opacity:0;stroke:#6495ed;stroke-linejoin:miter;stroke-width:1.5;" x="93.422441" xlink:href="#m6f05bcaea1" y="296.075741"/>
     <use style="fill-opacity:0;stroke:#6495ed;stroke-linejoin:miter;stroke-width:1.5;" x="168.122027" xlink:href="#m6f05bcaea1" y="259.935683"/>
     <use style="fill-opacity:0;stroke:#6495ed;stroke-linejoin:miter;stroke-width:1.5;" x="212.494777" xlink:href="#m6f05bcaea1" y="252.478211"/>
     <use style="fill-opacity:0;stroke:#6495ed;stroke-linejoin:miter;stroke-width:1.5;" x="252.122274" xlink:href="#m6f05bcaea1" y="247.315345"/>
     <use style="fill-opacity:0;stroke:#6495ed;stroke-linejoin:miter;stroke-width:1.5;" x="252.122274" xlink:href="#m6f05bcaea1" y="247.315345"/>
     <use style="fill-opacity:0;stroke:#6495ed;stroke-linejoin:miter;stroke-width:1.5;" x="338.688" xlink:href="#m6f05bcaea1" y="247.315345"/>
    </g>
   </g>
   <g id="line2d_45">
    <path style="fill:none;stroke:#6495ed;stroke-linecap:square;stroke-width:1.5;"/>
    <g/>
   </g>
   <g id="line2d_46">
    <path clip-path="url(#pb847b9da0c)" d="M 188.122008 254.772818 
" style="fill:none;stroke:#6495ed;stroke-linecap:square;stroke-width:1.5;"/>
    <defs>
     <path d="M -12 12 
L 12 -12 
M -12 -12 
L 12 12 
" id="mea35d5791a" style="stroke:#6495ed;"/>
    </defs>
    <g clip-path="url(#pb847b9da0c)">
     <use style="fill:#6495ed;stroke:#6495ed;" x="188.122008" xlink:href="#mea35d5791a" y="254.772818"/>
    </g>
   </g>
   <g id="line2d_47">
    <defs>
     <path d="M 0 1.5 
C 0.397805 1.5 0.77937 1.341951 1.06066 1.06066 
C 1.341951 0.77937 1.5 0.397805 1.5 0 
C 1.5 -0.397805 1.341951 -0.77937 1.06066 -1.06066 
C 0.77937 -1.341951 0.397805 -1.5 0 -1.5 
C -0.397805 -1.5 -0.77937 -1.341951 -1.06066 -1.06066 
C -1.341951 -0.77937 -1.5 -0.397805 -1.5 0 
C -1.5 0.397805 -1.341951 0.77937 -1.06066 1.06066 
C -0.77937 1.341951 -0.397805 1.5 0 1.5 
z
" id="me2c437bf0e" style="stroke:#ff0000;"/>
    </defs>
    <g>
     <use style="fill:#ff0000;stroke:#ff0000;" x="194.482483" xlink:href="#me2c437bf0e" y="6.381624"/>
     <use style="fill:#ff0000;stroke:#ff0000;" x="194.482483" xlink:href="#me2c437bf0e" y="6.381624"/>
    </g>
   </g>
   <g id="line2d_48">
    <path d="M 29.53256 298.944 
L 29.53256 296.649393 
L 41.620548 296.649393 
L 41.620548 295.50209 
L 48.691568 295.50209 
L 48.691568 293.781135 
L 53.708537 293.781135 
L 53.708537 293.207483 
L 57.6 293.207483 
L 57.6 292.633831 
L 63.467834 292.633831 
L 63.467834 292.060179 
L 82.626842 292.060179 
L 82.626842 291.486528 
L 83.438118 291.486528 
L 83.438118 290.912876 
L 88.846997 290.912876 
L 88.846997 290.339224 
L 97.043522 290.339224 
L 97.043522 289.765573 
L 107.213174 289.765573 
L 107.213174 289.191921 
L 110.016944 289.191921 
L 110.016944 288.618269 
L 110.188761 288.618269 
L 110.188761 288.044617 
L 110.859585 288.044617 
L 110.859585 287.470966 
L 111.023335 287.470966 
L 111.023335 286.897314 
L 111.185562 286.897314 
L 111.185562 286.323662 
L 111.974805 286.323662 
L 111.974805 285.176359 
L 113.73488 285.176359 
L 113.73488 284.602707 
L 114.0117 284.602707 
L 114.0117 284.029055 
L 114.284194 284.029055 
L 114.284194 283.455404 
L 115.460322 283.455404 
L 115.460322 282.881752 
L 116.081002 282.881752 
L 116.081002 282.3081 
L 117.820578 282.3081 
L 117.820578 281.734448 
L 118.363901 281.734448 
L 118.363901 281.160797 
L 118.994305 281.160797 
L 118.994305 280.587145 
L 122.44689 280.587145 
L 122.44689 280.013493 
L 125.110962 280.013493 
L 125.110962 279.439842 
L 128.471239 279.439842 
L 128.471239 278.86619 
L 129.853291 278.86619 
L 129.853291 278.292538 
L 130.344571 278.292538 
L 130.344571 277.718886 
L 132.278599 277.718886 
L 132.278599 277.145235 
L 134.577155 277.145235 
L 134.577155 276.571583 
L 134.745246 276.571583 
L 134.745246 275.997931 
L 136.227776 275.997931 
L 136.227776 274.850628 
L 137.271464 274.850628 
L 137.271464 274.276976 
L 137.629572 274.276976 
L 137.629572 273.703324 
L 138.290362 273.703324 
L 138.290362 273.129673 
L 138.861092 273.129673 
L 138.861092 272.556021 
L 139.155847 272.556021 
L 139.155847 271.982369 
L 139.445704 271.982369 
L 139.445704 271.408718 
L 140.529237 271.408718 
L 140.529237 270.835066 
L 143.553018 270.835066 
L 143.553018 270.261414 
L 145.327221 270.261414 
L 145.372754 269.114111 
L 146.129168 269.114111 
L 146.237689 266.245852 
L 146.367029 266.245852 
L 146.40993 265.098549 
L 146.559258 265.098549 
L 146.559258 264.524897 
L 147.888024 264.524897 
L 147.888024 263.951245 
L 148.315765 263.951245 
L 148.315765 263.377593 
L 149.413639 263.377593 
L 149.413639 262.803942 
L 149.593058 262.803942 
L 149.593058 262.23029 
L 150.155097 262.23029 
L 150.155097 261.656638 
L 150.361278 261.656638 
L 150.361278 261.082987 
L 150.54816 261.082987 
L 150.54816 259.935683 
L 151.178764 259.935683 
L 151.178764 259.362031 
L 151.421542 259.362031 
L 151.421542 258.78838 
L 151.676833 258.78838 
L 151.676833 258.214728 
L 152.283884 258.214728 
L 152.299175 257.067425 
L 153.090987 257.067425 
L 153.090987 256.493773 
L 153.566437 256.493773 
L 153.566437 255.920121 
L 154.385464 255.920121 
L 154.385464 255.346469 
L 154.520548 255.346469 
L 154.520548 254.772818 
L 154.840544 254.772818 
L 154.880133 253.051863 
L 155.232454 253.051863 
L 155.232454 252.478211 
L 155.641006 252.478211 
L 155.641006 251.904559 
L 156.224231 251.904559 
L 156.224231 251.330907 
L 157.139484 251.330907 
L 157.139484 250.757256 
L 157.266399 250.757256 
L 157.266399 250.183604 
L 157.517493 250.183604 
L 157.517493 249.609952 
L 158.042106 249.609952 
L 158.042106 249.036301 
L 158.497919 249.036301 
L 158.551397 247.888997 
L 159.180664 247.888997 
L 159.180664 247.315345 
L 159.708245 247.315345 
L 159.768105 246.168042 
L 160.113253 246.168042 
L 160.113253 245.59439 
L 160.307457 245.59439 
L 160.326759 244.447087 
L 160.613753 244.447087 
L 160.613753 243.873435 
L 160.755498 243.873435 
L 160.755498 243.299783 
L 160.914762 243.299783 
L 160.914762 242.726132 
L 161.044837 242.726132 
L 161.044837 242.15248 
L 161.492608 242.15248 
L 161.492608 241.578828 
L 161.858637 241.578828 
L 161.858637 240.431525 
L 162.02569 240.431525 
L 162.02569 239.857873 
L 163.053576 239.857873 
L 163.053576 239.284221 
L 163.613694 239.284221 
L 163.717238 238.136918 
L 163.741046 238.136918 
L 163.835954 236.415963 
L 163.985177 236.415963 
L 163.985177 235.842311 
L 164.302897 235.842311 
L 164.302897 234.695008 
L 164.509011 234.695008 
L 164.562052 232.974052 
L 164.712717 232.974052 
L 164.817412 231.826749 
L 164.884386 231.826749 
L 164.965896 230.105794 
L 165.032303 230.105794 
L 165.105794 228.384839 
L 165.324425 228.384839 
L 165.324425 227.811187 
L 165.597481 227.811187 
L 165.597481 227.237535 
L 166.124175 227.237535 
L 166.124175 226.090232 
L 166.255117 226.090232 
L 166.255117 225.51658 
L 166.635428 225.51658 
L 166.635428 224.942928 
L 166.809221 224.942928 
L 166.809221 224.369277 
L 167.190782 224.369277 
L 167.190782 223.795625 
L 167.481174 223.795625 
L 167.545055 222.648321 
L 167.911015 222.648321 
L 167.911015 222.07467 
L 168.078792 222.07467 
L 168.165155 219.780063 
L 168.27557 219.780063 
L 168.27557 219.206411 
L 168.602679 219.206411 
L 168.602679 218.632759 
L 168.829244 218.632759 
L 168.917874 217.485456 
L 169.181091 217.485456 
L 169.181091 216.911804 
L 169.371623 216.911804 
L 169.371623 216.338153 
L 169.897641 216.338153 
L 169.997643 215.190849 
L 170.14658 215.190849 
L 170.14658 214.043546 
L 170.348634 214.043546 
L 170.446091 211.748939 
L 170.473066 211.748939 
L 170.483844 210.601635 
L 170.650062 210.601635 
L 170.650062 210.027984 
L 170.951613 210.027984 
L 170.951613 209.454332 
L 171.201568 209.454332 
L 171.201568 208.88068 
L 171.407162 208.88068 
L 171.463278 207.159725 
L 171.559782 207.159725 
L 171.559782 206.586073 
L 171.701032 206.586073 
L 171.786237 205.43877 
L 172.157246 205.43877 
L 172.157246 204.865118 
L 172.390616 204.865118 
L 172.434028 203.717815 
L 172.539692 203.717815 
L 172.539692 203.144163 
L 172.829364 203.144163 
L 172.829364 202.570511 
L 172.956059 202.570511 
L 172.956059 201.99686 
L 173.072554 201.99686 
L 173.183662 200.275904 
L 173.339863 200.275904 
L 173.408333 197.981298 
L 173.485609 197.981298 
L 173.567059 196.260342 
L 173.840288 196.260342 
L 173.880241 195.113039 
L 173.968698 195.113039 
L 173.968698 194.539387 
L 174.139909 194.539387 
L 174.139909 193.965736 
L 174.630946 193.965736 
L 174.703001 192.24478 
L 174.778971 192.24478 
L 174.778971 191.671129 
L 174.917395 191.671129 
L 174.917395 191.097477 
L 175.02984 191.097477 
L 175.079583 189.376522 
L 175.211544 189.376522 
L 175.219758 187.655567 
L 175.419813 187.655567 
L 175.419813 187.081915 
L 175.545203 187.081915 
L 175.633646 185.36096 
L 175.77741 185.36096 
L 175.77741 184.787308 
L 176.022259 184.787308 
L 176.120024 183.640005 
L 176.604586 183.640005 
L 176.650041 182.492701 
L 176.766919 182.492701 
L 176.766919 181.91905 
L 176.916581 181.91905 
L 177.013177 178.477139 
L 177.116609 178.477139 
L 177.142371 177.329836 
L 177.383421 177.329836 
L 177.383421 176.756184 
L 177.506309 176.756184 
L 177.606866 175.035229 
L 177.735306 175.035229 
L 177.749519 173.887925 
L 177.908622 173.887925 
L 177.908622 173.314274 
L 178.080232 173.314274 
L 178.125479 172.16697 
L 178.322496 172.16697 
L 178.322496 171.593319 
L 178.469664 171.593319 
L 178.56822 169.298712 
L 178.622358 169.298712 
L 178.652737 167.004105 
L 178.75362 167.004105 
L 178.75362 166.430453 
L 178.917151 166.430453 
L 179.026426 164.709498 
L 179.15797 164.709498 
L 179.207044 163.562195 
L 179.321016 163.562195 
L 179.321016 162.988543 
L 179.492196 162.988543 
L 179.543545 161.267588 
L 179.617095 161.267588 
L 179.617095 160.693936 
L 179.823292 160.693936 
L 179.879964 159.546632 
L 180.055109 159.546632 
L 180.142026 157.825677 
L 180.283885 157.825677 
L 180.381893 156.104722 
L 180.533936 156.104722 
L 180.536964 154.957419 
L 180.666647 154.957419 
L 180.771496 152.08916 
L 180.982272 152.08916 
L 181.067636 150.368205 
L 181.248749 150.368205 
L 181.306774 149.220902 
L 181.473961 149.220902 
L 181.542676 147.499946 
L 181.631034 147.499946 
L 181.631034 146.352643 
L 181.775431 146.352643 
L 181.834542 145.20534 
L 181.943792 145.20534 
L 181.960539 144.058036 
L 182.215334 144.058036 
L 182.275715 142.337081 
L 182.349535 142.337081 
L 182.450191 138.321519 
L 182.71402 138.321519 
L 182.809943 136.026912 
L 182.847104 136.026912 
L 182.868304 134.879609 
L 183.0972 134.879609 
L 183.107652 133.158653 
L 183.227403 133.158653 
L 183.325711 130.864047 
L 183.426033 130.864047 
L 183.484928 128.56944 
L 183.675606 128.56944 
L 183.786508 127.422136 
L 183.851711 127.422136 
L 183.851711 126.848485 
L 183.968963 126.848485 
L 183.968963 126.274833 
L 184.127368 126.274833 
L 184.225646 123.980226 
L 184.245235 123.980226 
L 184.245235 123.406574 
L 184.430243 123.406574 
L 184.435085 122.259271 
L 184.577329 122.259271 
L 184.665945 120.538316 
L 184.699358 120.538316 
L 184.784985 119.391012 
L 184.818171 119.391012 
L 184.830008 117.670057 
L 184.952638 117.670057 
L 185.041709 116.522754 
L 185.169829 116.522754 
L 185.276265 113.654495 
L 185.356816 113.654495 
L 185.443852 111.359888 
L 185.480369 111.359888 
L 185.514535 109.638933 
L 185.612107 109.638933 
L 185.713637 107.344326 
L 185.850328 107.344326 
L 185.892686 106.197023 
L 185.977095 106.197023 
L 185.977095 105.623371 
L 186.13372 105.623371 
L 186.216973 102.181461 
L 186.26717 102.181461 
L 186.338942 101.034157 
L 186.419063 101.034157 
L 186.522458 99.886854 
L 186.548211 99.886854 
L 186.616701 97.592247 
L 186.693433 97.592247 
L 186.784643 94.723988 
L 186.969834 94.723988 
L 187.047114 93.003033 
L 187.088745 93.003033 
L 187.124054 91.85573 
L 187.334417 91.85573 
L 187.412143 90.134775 
L 187.528087 90.134775 
L 187.637221 87.266516 
L 187.677469 87.266516 
L 187.757687 85.545561 
L 187.843511 85.545561 
L 187.950696 84.398257 
L 187.996149 84.398257 
L 188.033608 82.103651 
L 188.176787 82.103651 
L 188.268353 80.382695 
L 188.320738 80.382695 
L 188.407697 78.66174 
L 188.576509 78.66174 
L 188.673601 76.367133 
L 188.702054 76.367133 
L 188.76449 75.21983 
L 188.918671 75.21983 
L 189.026909 72.351571 
L 189.034348 72.351571 
L 189.082631 70.630616 
L 189.173263 70.630616 
L 189.270767 68.909661 
L 189.367728 68.909661 
L 189.465968 66.041402 
L 189.58349 66.041402 
L 189.635668 64.320447 
L 189.718115 64.320447 
L 189.773458 63.173144 
L 189.835732 63.173144 
L 189.899553 60.304885 
L 190.005407 60.304885 
L 190.005407 59.731234 
L 190.136826 59.731234 
L 190.199557 56.289323 
L 190.28285 56.289323 
L 190.331254 55.14202 
L 190.458536 55.14202 
L 190.554244 52.273761 
L 190.662985 52.273761 
L 190.715413 48.831851 
L 190.794602 48.831851 
L 190.905201 47.110896 
L 191.140803 47.110896 
L 191.22629 44.816289 
L 191.254147 44.816289 
L 191.254147 44.242637 
L 191.451148 44.242637 
L 191.559281 39.079772 
L 191.57054 39.079772 
L 191.629931 37.932468 
L 191.689121 37.932468 
L 191.752884 36.211513 
L 191.81483 36.211513 
L 191.893927 33.343255 
L 191.947509 33.343255 
L 192.000926 32.195951 
L 192.091675 32.195951 
L 192.163313 29.901344 
L 192.247037 29.901344 
L 192.33036 28.754041 
L 192.465299 28.754041 
L 192.503445 26.459434 
L 192.576451 26.459434 
L 192.637057 23.591175 
L 192.712519 23.591175 
L 192.819117 20.722917 
L 192.831087 20.722917 
L 192.831087 20.149265 
L 192.997815 20.149265 
L 193.068785 16.707355 
L 193.211327 16.707355 
L 193.21718 15.560051 
L 193.341096 15.560051 
L 193.367224 13.265444 
L 193.481439 13.265444 
L 193.559081 10.970838 
L 193.616371 10.970838 
L 193.690569 9.249882 
L 193.774374 9.249882 
L 193.774374 8.676231 
L 193.914098 8.676231 
L 193.966032 7.528927 
L 194.395184 7.528927 
L 194.482483 6.381624 
L 338.688 6.381624 
L 338.688 6.381624 
" style="fill:none;stroke:#ff0000;stroke-linecap:square;stroke-width:1.5;"/>
   </g>
   <g id="line2d_49">
    <defs>
     <path d="M 0 -6 
L -5.196152 -3 
L -5.196152 3 
L -0 6 
L 5.196152 3 
L 5.196152 -3 
z
" id="m486471e7fd" style="stroke:#ff0000;stroke-linejoin:miter;stroke-width:1.5;"/>
    </defs>
    <g>
     <use style="fill-opacity:0;stroke:#ff0000;stroke-linejoin:miter;stroke-width:1.5;" x="63.467834" xlink:href="#m486471e7fd" y="292.633831"/>
     <use style="fill-opacity:0;stroke:#ff0000;stroke-linejoin:miter;stroke-width:1.5;" x="164.817412" xlink:href="#m486471e7fd" y="232.400401"/>
     <use style="fill-opacity:0;stroke:#ff0000;stroke-linejoin:miter;stroke-width:1.5;" x="189.624885" xlink:href="#m486471e7fd" y="64.894099"/>
     <use style="fill-opacity:0;stroke:#ff0000;stroke-linejoin:miter;stroke-width:1.5;" x="194.482483" xlink:href="#m486471e7fd" y="6.381624"/>
     <use style="fill-opacity:0;stroke:#ff0000;stroke-linejoin:miter;stroke-width:1.5;" x="194.482483" xlink:href="#m486471e7fd" y="6.381624"/>
     <use style="fill-opacity:0;stroke:#ff0000;stroke-linejoin:miter;stroke-width:1.5;" x="338.688" xlink:href="#m486471e7fd" y="6.381624"/>
    </g>
   </g>
   <g id="line2d_50">
    <path style="fill:none;stroke:#ff0000;stroke-linecap:square;stroke-width:1.5;"/>
    <g/>
   </g>
   <g id="line2d_51">
    <path d="M 338.688 247.315345 
L 369.60768 293.092752 
" style="fill:none;stroke:#6495ed;stroke-linecap:square;stroke-width:1.5;"/>
    <g>
     <use style="fill-opacity:0;stroke:#6495ed;stroke-linejoin:miter;stroke-width:1.5;" x="338.688" xlink:href="#m6f05bcaea1" y="247.315345"/>
     <use style="fill-opacity:0;stroke:#6495ed;stroke-linejoin:miter;stroke-width:1.5;" x="369.60768" xlink:href="#m6f05bcaea1" y="293.092752"/>
    </g>
   </g>
   <g id="line2d_52">
    <path d="M 338.688 235.842311 
L 369.60768 222.877782 
" style="fill:none;stroke:#ff7500;stroke-linecap:square;stroke-width:1.5;"/>
    <g>
     <use style="fill-opacity:0;stroke:#ff7500;stroke-linejoin:bevel;stroke-width:1.5;" x="338.688" xlink:href="#m9ac4f58dea" y="235.842311"/>
     <use style="fill-opacity:0;stroke:#ff7500;stroke-linejoin:bevel;stroke-width:1.5;" x="369.60768" xlink:href="#m9ac4f58dea" y="222.877782"/>
    </g>
   </g>
   <g id="line2d_53">
    <path d="M 338.688 6.381624 
L 369.60768 152.662812 
" style="fill:none;stroke:#ff0000;stroke-linecap:square;stroke-width:1.5;"/>
    <g>
     <use style="fill-opacity:0;stroke:#ff0000;stroke-linejoin:miter;stroke-width:1.5;" x="338.688" xlink:href="#m486471e7fd" y="6.381624"/>
     <use style="fill-opacity:0;stroke:#ff0000;stroke-linejoin:miter;stroke-width:1.5;" x="369.60768" xlink:href="#m486471e7fd" y="152.662812"/>
    </g>
   </g>
   <g id="line2d_54">
    <path d="M 338.688 6.381624 
L 369.60768 82.447842 
" style="fill:none;stroke:#ff00ff;stroke-linecap:square;stroke-width:1.5;"/>
    <g>
     <use style="fill-opacity:0;stroke:#ff00ff;stroke-linejoin:miter;stroke-width:1.5;" x="338.688" xlink:href="#m6bcf0c5c0e" y="6.381624"/>
     <use style="fill-opacity:0;stroke:#ff00ff;stroke-linejoin:miter;stroke-width:1.5;" x="369.60768" xlink:href="#m6bcf0c5c0e" y="82.447842"/>
    </g>
   </g>
   <g id="line2d_55">
    <path d="M 338.688 6.381624 
L 369.60768 12.232871 
" style="fill:none;stroke:#000080;stroke-linecap:square;stroke-width:1.5;"/>
    <g>
     <use style="fill-opacity:0;stroke:#000080;stroke-width:1.5;" x="338.688" xlink:href="#mda7bbafefa" y="6.381624"/>
     <use style="fill-opacity:0;stroke:#000080;stroke-width:1.5;" x="369.60768" xlink:href="#mda7bbafefa" y="12.232871"/>
    </g>
   </g>
   <g id="line2d_56">
    <path d="M 338.688 298.944 
L 338.688 6.381624 
" style="fill:none;stroke:#000000;stroke-linecap:square;stroke-width:1.5;"/>
   </g>
   <g id="patch_3">
    <path d="M 57.6 298.944 
L 57.6 3.456 
" style="fill:none;stroke:#000000;stroke-linecap:square;stroke-linejoin:miter;stroke-width:0.8;"/>
   </g>
   <g id="patch_4">
    <path d="M 338.688 298.944 
L 338.688 3.456 
" style="fill:none;stroke:#000000;stroke-linecap:square;stroke-linejoin:miter;stroke-width:0.8;"/>
   </g>
   <g id="patch_5">
    <path d="M 57.6 298.944 
L 338.688 298.944 
" style="fill:none;stroke:#000000;stroke-linecap:square;stroke-linejoin:miter;stroke-width:0.8;"/>
   </g>
   <g id="patch_6">
    <path d="M 57.6 3.456 
L 338.688 3.456 
" style="fill:none;stroke:#000000;stroke-linecap:square;stroke-linejoin:miter;stroke-width:0.8;"/>
   </g>
   <g id="text_13">
    <!-- f4 -->
    <g transform="translate(375.22944 297.78369)scale(0.17 -0.17)">
     <use xlink:href="#DejaVuSans-66"/>
     <use x="35.205078" xlink:href="#DejaVuSans-34"/>
    </g>
   </g>
   <g id="text_14">
    <!-- f3 -->
    <g transform="translate(375.22944 227.56872)scale(0.17 -0.17)">
     <defs>
      <path d="M 2597 2516 
Q 3050 2419 3304 2112 
Q 3559 1806 3559 1356 
Q 3559 666 3084 287 
Q 2609 -91 1734 -91 
Q 1441 -91 1130 -33 
Q 819 25 488 141 
L 488 750 
Q 750 597 1062 519 
Q 1375 441 1716 441 
Q 2309 441 2620 675 
Q 2931 909 2931 1356 
Q 2931 1769 2642 2001 
Q 2353 2234 1838 2234 
L 1294 2234 
L 1294 2753 
L 1863 2753 
Q 2328 2753 2575 2939 
Q 2822 3125 2822 3475 
Q 2822 3834 2567 4026 
Q 2313 4219 1838 4219 
Q 1578 4219 1281 4162 
Q 984 4106 628 3988 
L 628 4550 
Q 988 4650 1302 4700 
Q 1616 4750 1894 4750 
Q 2613 4750 3031 4423 
Q 3450 4097 3450 3541 
Q 3450 3153 3228 2886 
Q 3006 2619 2597 2516 
z
" id="DejaVuSans-33" transform="scale(0.015625)"/>
     </defs>
     <use xlink:href="#DejaVuSans-66"/>
     <use x="35.205078" xlink:href="#DejaVuSans-33"/>
    </g>
   </g>
   <g id="text_15">
    <!-- f5 -->
    <g transform="translate(375.22944 157.353749)scale(0.17 -0.17)">
     <defs>
      <path d="M 691 4666 
L 3169 4666 
L 3169 4134 
L 1269 4134 
L 1269 2991 
Q 1406 3038 1543 3061 
Q 1681 3084 1819 3084 
Q 2600 3084 3056 2656 
Q 3513 2228 3513 1497 
Q 3513 744 3044 326 
Q 2575 -91 1722 -91 
Q 1428 -91 1123 -41 
Q 819 9 494 109 
L 494 744 
Q 775 591 1075 516 
Q 1375 441 1709 441 
Q 2250 441 2565 725 
Q 2881 1009 2881 1497 
Q 2881 1984 2565 2268 
Q 2250 2553 1709 2553 
Q 1456 2553 1204 2497 
Q 953 2441 691 2322 
L 691 4666 
z
" id="DejaVuSans-35" transform="scale(0.015625)"/>
     </defs>
     <use xlink:href="#DejaVuSans-66"/>
     <use x="35.205078" xlink:href="#DejaVuSans-35"/>
    </g>
   </g>
   <g id="text_16">
    <!-- f2 -->
    <g transform="translate(375.22944 87.138779)scale(0.17 -0.17)">
     <use xlink:href="#DejaVuSans-66"/>
     <use x="35.205078" xlink:href="#DejaVuSans-32"/>
    </g>
   </g>
   <g id="text_17">
    <!-- f1 -->
    <g transform="translate(375.22944 16.923809)scale(0.17 -0.17)">
     <use xlink:href="#DejaVuSans-66"/>
     <use x="35.205078" xlink:href="#DejaVuSans-31"/>
    </g>
   </g>
   <g id="text_18">
    <!-- bbob -->
    <g transform="translate(60.41088 14.161286)scale(0.102 -0.102)">
     <defs>
      <path d="M 3116 1747 
Q 3116 2381 2855 2742 
Q 2594 3103 2138 3103 
Q 1681 3103 1420 2742 
Q 1159 2381 1159 1747 
Q 1159 1113 1420 752 
Q 1681 391 2138 391 
Q 2594 391 2855 752 
Q 3116 1113 3116 1747 
z
M 1159 2969 
Q 1341 3281 1617 3432 
Q 1894 3584 2278 3584 
Q 2916 3584 3314 3078 
Q 3713 2572 3713 1747 
Q 3713 922 3314 415 
Q 2916 -91 2278 -91 
Q 1894 -91 1617 61 
Q 1341 213 1159 525 
L 1159 0 
L 581 0 
L 581 4863 
L 1159 4863 
L 1159 2969 
z
" id="DejaVuSans-62" transform="scale(0.015625)"/>
     </defs>
     <use xlink:href="#DejaVuSans-62"/>
     <use x="63.476562" xlink:href="#DejaVuSans-62"/>
     <use x="126.953125" xlink:href="#DejaVuSans-6f"/>
     <use x="188.134766" xlink:href="#DejaVuSans-62"/>
    </g>
    <!-- Separable functions, 5-D -->
    <g transform="translate(60.41088 25.583055)scale(0.102 -0.102)">
     <defs>
      <path d="M 3425 4513 
L 3425 3897 
Q 3066 4069 2747 4153 
Q 2428 4238 2131 4238 
Q 1616 4238 1336 4038 
Q 1056 3838 1056 3469 
Q 1056 3159 1242 3001 
Q 1428 2844 1947 2747 
L 2328 2669 
Q 3034 2534 3370 2195 
Q 3706 1856 3706 1288 
Q 3706 609 3251 259 
Q 2797 -91 1919 -91 
Q 1588 -91 1214 -16 
Q 841 59 441 206 
L 441 856 
Q 825 641 1194 531 
Q 1563 422 1919 422 
Q 2459 422 2753 634 
Q 3047 847 3047 1241 
Q 3047 1584 2836 1778 
Q 2625 1972 2144 2069 
L 1759 2144 
Q 1053 2284 737 2584 
Q 422 2884 422 3419 
Q 422 4038 858 4394 
Q 1294 4750 2059 4750 
Q 2388 4750 2728 4690 
Q 3069 4631 3425 4513 
z
" id="DejaVuSans-53" transform="scale(0.015625)"/>
      <path d="M 1259 4147 
L 1259 519 
L 2022 519 
Q 2988 519 3436 956 
Q 3884 1394 3884 2338 
Q 3884 3275 3436 3711 
Q 2988 4147 2022 4147 
L 1259 4147 
z
M 628 4666 
L 1925 4666 
Q 3281 4666 3915 4102 
Q 4550 3538 4550 2338 
Q 4550 1131 3912 565 
Q 3275 0 1925 0 
L 628 0 
L 628 4666 
z
" id="DejaVuSans-44" transform="scale(0.015625)"/>
     </defs>
     <use xlink:href="#DejaVuSans-53"/>
     <use x="63.476562" xlink:href="#DejaVuSans-65"/>
     <use x="125" xlink:href="#DejaVuSans-70"/>
     <use x="188.476562" xlink:href="#DejaVuSans-61"/>
     <use x="249.755859" xlink:href="#DejaVuSans-72"/>
     <use x="290.869141" xlink:href="#DejaVuSans-61"/>
     <use x="352.148438" xlink:href="#DejaVuSans-62"/>
     <use x="415.625" xlink:href="#DejaVuSans-6c"/>
     <use x="443.408203" xlink:href="#DejaVuSans-65"/>
     <use x="504.931641" xlink:href="#DejaVuSans-20"/>
     <use x="536.71875" xlink:href="#DejaVuSans-66"/>
     <use x="571.923828" xlink:href="#DejaVuSans-75"/>
     <use x="635.302734" xlink:href="#DejaVuSans-6e"/>
     <use x="698.681641" xlink:href="#DejaVuSans-63"/>
     <use x="753.662109" xlink:href="#DejaVuSans-74"/>
     <use x="792.871094" xlink:href="#DejaVuSans-69"/>
     <use x="820.654297" xlink:href="#DejaVuSans-6f"/>
     <use x="881.835938" xlink:href="#DejaVuSans-6e"/>
     <use x="945.214844" xlink:href="#DejaVuSans-73"/>
     <use x="997.314453" xlink:href="#DejaVuSans-2c"/>
     <use x="1029.101562" xlink:href="#DejaVuSans-20"/>
     <use x="1060.888672" xlink:href="#DejaVuSans-35"/>
     <use x="1124.511719" xlink:href="#DejaVuSans-2d"/>
     <use x="1160.595703" xlink:href="#DejaVuSans-44"/>
    </g>
    <!-- 51 targets: 100..1e-08 -->
    <g transform="translate(60.41088 37.004824)scale(0.102 -0.102)">
     <defs>
      <path d="M 750 794 
L 1409 794 
L 1409 0 
L 750 0 
L 750 794 
z
M 750 3309 
L 1409 3309 
L 1409 2516 
L 750 2516 
L 750 3309 
z
" id="DejaVuSans-3a" transform="scale(0.015625)"/>
     </defs>
     <use xlink:href="#DejaVuSans-35"/>
     <use x="63.623047" xlink:href="#DejaVuSans-31"/>
     <use x="127.246094" xlink:href="#DejaVuSans-20"/>
     <use x="159.033203" xlink:href="#DejaVuSans-74"/>
     <use x="198.242188" xlink:href="#DejaVuSans-61"/>
     <use x="259.521484" xlink:href="#DejaVuSans-72"/>
     <use x="298.884766" xlink:href="#DejaVuSans-67"/>
     <use x="362.361328" xlink:href="#DejaVuSans-65"/>
     <use x="423.884766" xlink:href="#DejaVuSans-74"/>
     <use x="463.09375" xlink:href="#DejaVuSans-73"/>
     <use x="515.193359" xlink:href="#DejaVuSans-3a"/>
     <use x="548.884766" xlink:href="#DejaVuSans-20"/>
     <use x="580.671875" xlink:href="#DejaVuSans-31"/>
     <use x="644.294922" xlink:href="#DejaVuSans-30"/>
     <use x="707.917969" xlink:href="#DejaVuSans-30"/>
     <use x="771.541016" xlink:href="#DejaVuSans-2e"/>
     <use x="803.328125" xlink:href="#DejaVuSans-2e"/>
     <use x="835.115234" xlink:href="#DejaVuSans-31"/>
     <use x="898.738281" xlink:href="#DejaVuSans-65"/>
     <use x="960.261719" xlink:href="#DejaVuSans-2d"/>
     <use x="996.345703" xlink:href="#DejaVuSans-30"/>
     <use x="1059.96875" xlink:href="#DejaVuSans-38"/>
    </g>
    <!-- 15 instances -->
    <g transform="translate(60.41088 48.426593)scale(0.102 -0.102)">
     <use xlink:href="#DejaVuSans-31"/>
     <use x="63.623047" xlink:href="#DejaVuSans-35"/>
     <use x="127.246094" xlink:href="#DejaVuSans-20"/>
     <use x="159.033203" xlink:href="#DejaVuSans-69"/>
     <use x="186.816406" xlink:href="#DejaVuSans-6e"/>
     <use x="250.195312" xlink:href="#DejaVuSans-73"/>
     <use x="302.294922" xlink:href="#DejaVuSans-74"/>
     <use x="341.503906" xlink:href="#DejaVuSans-61"/>
     <use x="402.783203" xlink:href="#DejaVuSans-6e"/>
     <use x="466.162109" xlink:href="#DejaVuSans-63"/>
     <use x="521.142578" xlink:href="#DejaVuSans-65"/>
     <use x="582.666016" xlink:href="#DejaVuSans-73"/>
    </g>
   </g>
   <g id="text_19">
    <!-- v2.4 -->
    <g style="fill:#808080;" transform="translate(187.233062 293.909432)scale(0.1 -0.1)">
     <use xlink:href="#DejaVuSans-76"/>
     <use x="59.179688" xlink:href="#DejaVuSans-32"/>
     <use x="122.802734" xlink:href="#DejaVuSans-2e"/>
     <use x="154.589844" xlink:href="#DejaVuSans-34"/>
    </g>
   </g>
  </g>
 </g>
 <defs>
  <clipPath id="pb847b9da0c">
   <rect height="295.488" width="281.088" x="57.6" y="3.456"/>
  </clipPath>
 </defs>
</svg>
