<?xml version="1.0" encoding="utf-8" standalone="no"?>
<!DOCTYPE svg PUBLIC "-//W3C//DTD SVG 1.1//EN"
  "http://www.w3.org/Graphics/SVG/1.1/DTD/svg11.dtd">
<svg height="345.6pt" version="1.1" viewBox="0 0 460.8 345.6" width="460.8pt" xmlns="http://www.w3.org/2000/svg" xmlns:xlink="http://www.w3.org/1999/xlink">
 <metadata>
  <rdf:RDF xmlns:cc="http://creativecommons.org/ns#" xmlns:dc="http://purl.org/dc/elements/1.1/" xmlns:rdf="http://www.w3.org/1999/02/22-rdf-syntax-ns#">
   <cc:Work>
    <dc:type rdf:resource="http://purl.org/dc/dcmitype/StillImage"/>
    <dc:date>2021-07-27T16:03:52.099252</dc:date>
    <dc:format>image/svg+xml</dc:format>
    <dc:creator>
     <cc:Agent>
      <dc:title>Matplotlib v3.4.2, https://matplotlib.org/</dc:title>
     </cc:Agent>
    </dc:creator>
   </cc:Work>
  </rdf:RDF>
 </metadata>
 <defs>
  <style type="text/css">*{stroke-linecap:butt;stroke-linejoin:round;}</style>
 </defs>
 <g id="figure_1">
  <g id="patch_1">
   <path d="M 0 345.6 
L 460.8 345.6 
L 460.8 0 
L 0 0 
z
" style="fill:#ffffff;"/>
  </g>
  <g id="axes_1">
   <g id="patch_2">
    <path d="M 57.6 298.944 
L 338.688 298.944 
L 338.688 27.648 
L 57.6 27.648 
z
" style="fill:#ffffff;"/>
   </g>
   <g id="matplotlib.axis_1">
    <g id="xtick_1">
     <g id="line2d_1">
      <path clip-path="url(#paad2730f6c)" d="M 57.6 298.944 
L 57.6 27.648 
" style="fill:none;stroke:#b0b0b0;stroke-linecap:square;stroke-width:0.8;"/>
     </g>
     <g id="line2d_2">
      <defs>
       <path d="M 0 0 
L 0 3.5 
" id="m3c8e106cd6" style="stroke:#000000;stroke-width:0.8;"/>
      </defs>
      <g>
       <use style="stroke:#000000;stroke-width:0.8;" x="57.6" xlink:href="#m3c8e106cd6" y="298.944"/>
      </g>
     </g>
     <g id="text_1">
      <!-- 0 -->
      <g transform="translate(51.2375 321.140875)scale(0.2 -0.2)">
       <defs>
        <path d="M 2034 4250 
Q 1547 4250 1301 3770 
Q 1056 3291 1056 2328 
Q 1056 1369 1301 889 
Q 1547 409 2034 409 
Q 2525 409 2770 889 
Q 3016 1369 3016 2328 
Q 3016 3291 2770 3770 
Q 2525 4250 2034 4250 
z
M 2034 4750 
Q 2819 4750 3233 4129 
Q 3647 3509 3647 2328 
Q 3647 1150 3233 529 
Q 2819 -91 2034 -91 
Q 1250 -91 836 529 
Q 422 1150 422 2328 
Q 422 3509 836 4129 
Q 1250 4750 2034 4750 
z
" id="DejaVuSans-30" transform="scale(0.015625)"/>
       </defs>
       <use xlink:href="#DejaVuSans-30"/>
      </g>
     </g>
    </g>
    <g id="xtick_2">
     <g id="line2d_3">
      <path clip-path="url(#paad2730f6c)" d="M 137.910857 298.944 
L 137.910857 27.648 
" style="fill:none;stroke:#b0b0b0;stroke-linecap:square;stroke-width:0.8;"/>
     </g>
     <g id="line2d_4">
      <g>
       <use style="stroke:#000000;stroke-width:0.8;" x="137.910857" xlink:href="#m3c8e106cd6" y="298.944"/>
      </g>
     </g>
     <g id="text_2">
      <!-- 2 -->
      <g transform="translate(131.548357 321.140875)scale(0.2 -0.2)">
       <defs>
        <path d="M 1228 531 
L 3431 531 
L 3431 0 
L 469 0 
L 469 531 
Q 828 903 1448 1529 
Q 2069 2156 2228 2338 
Q 2531 2678 2651 2914 
Q 2772 3150 2772 3378 
Q 2772 3750 2511 3984 
Q 2250 4219 1831 4219 
Q 1534 4219 1204 4116 
Q 875 4013 500 3803 
L 500 4441 
Q 881 4594 1212 4672 
Q 1544 4750 1819 4750 
Q 2544 4750 2975 4387 
Q 3406 4025 3406 3419 
Q 3406 3131 3298 2873 
Q 3191 2616 2906 2266 
Q 2828 2175 2409 1742 
Q 1991 1309 1228 531 
z
" id="DejaVuSans-32" transform="scale(0.015625)"/>
       </defs>
       <use xlink:href="#DejaVuSans-32"/>
      </g>
     </g>
    </g>
    <g id="xtick_3">
     <g id="line2d_5">
      <path clip-path="url(#paad2730f6c)" d="M 218.221714 298.944 
L 218.221714 27.648 
" style="fill:none;stroke:#b0b0b0;stroke-linecap:square;stroke-width:0.8;"/>
     </g>
     <g id="line2d_6">
      <g>
       <use style="stroke:#000000;stroke-width:0.8;" x="218.221714" xlink:href="#m3c8e106cd6" y="298.944"/>
      </g>
     </g>
     <g id="text_3">
      <!-- 4 -->
      <g transform="translate(211.859214 321.140875)scale(0.2 -0.2)">
       <defs>
        <path d="M 2419 4116 
L 825 1625 
L 2419 1625 
L 2419 4116 
z
M 2253 4666 
L 3047 4666 
L 3047 1625 
L 3713 1625 
L 3713 1100 
L 3047 1100 
L 3047 0 
L 2419 0 
L 2419 1100 
L 313 1100 
L 313 1709 
L 2253 4666 
z
" id="DejaVuSans-34" transform="scale(0.015625)"/>
       </defs>
       <use xlink:href="#DejaVuSans-34"/>
      </g>
     </g>
    </g>
    <g id="xtick_4">
     <g id="line2d_7">
      <path clip-path="url(#paad2730f6c)" d="M 298.532571 298.944 
L 298.532571 27.648 
" style="fill:none;stroke:#b0b0b0;stroke-linecap:square;stroke-width:0.8;"/>
     </g>
     <g id="line2d_8">
      <g>
       <use style="stroke:#000000;stroke-width:0.8;" x="298.532571" xlink:href="#m3c8e106cd6" y="298.944"/>
      </g>
     </g>
     <g id="text_4">
      <!-- 6 -->
      <g transform="translate(292.170071 321.140875)scale(0.2 -0.2)">
       <defs>
        <path d="M 2113 2584 
Q 1688 2584 1439 2293 
Q 1191 2003 1191 1497 
Q 1191 994 1439 701 
Q 1688 409 2113 409 
Q 2538 409 2786 701 
Q 3034 994 3034 1497 
Q 3034 2003 2786 2293 
Q 2538 2584 2113 2584 
z
M 3366 4563 
L 3366 3988 
Q 3128 4100 2886 4159 
Q 2644 4219 2406 4219 
Q 1781 4219 1451 3797 
Q 1122 3375 1075 2522 
Q 1259 2794 1537 2939 
Q 1816 3084 2150 3084 
Q 2853 3084 3261 2657 
Q 3669 2231 3669 1497 
Q 3669 778 3244 343 
Q 2819 -91 2113 -91 
Q 1303 -91 875 529 
Q 447 1150 447 2328 
Q 447 3434 972 4092 
Q 1497 4750 2381 4750 
Q 2619 4750 2861 4703 
Q 3103 4656 3366 4563 
z
" id="DejaVuSans-36" transform="scale(0.015625)"/>
       </defs>
       <use xlink:href="#DejaVuSans-36"/>
      </g>
     </g>
    </g>
    <g id="xtick_5">
     <g id="line2d_9">
      <path clip-path="url(#paad2730f6c)" d="M 97.755429 298.944 
L 97.755429 27.648 
" style="fill:none;stroke:#b0b0b0;stroke-linecap:square;stroke-width:0.8;"/>
     </g>
     <g id="line2d_10">
      <defs>
       <path d="M 0 0 
L 0 2 
" id="me806fe3eff" style="stroke:#000000;stroke-width:0.6;"/>
      </defs>
      <g>
       <use style="stroke:#000000;stroke-width:0.6;" x="97.755429" xlink:href="#me806fe3eff" y="298.944"/>
      </g>
     </g>
    </g>
    <g id="xtick_6">
     <g id="line2d_11">
      <path clip-path="url(#paad2730f6c)" d="M 178.066286 298.944 
L 178.066286 27.648 
" style="fill:none;stroke:#b0b0b0;stroke-linecap:square;stroke-width:0.8;"/>
     </g>
     <g id="line2d_12">
      <g>
       <use style="stroke:#000000;stroke-width:0.6;" x="178.066286" xlink:href="#me806fe3eff" y="298.944"/>
      </g>
     </g>
    </g>
    <g id="xtick_7">
     <g id="line2d_13">
      <path clip-path="url(#paad2730f6c)" d="M 258.377143 298.944 
L 258.377143 27.648 
" style="fill:none;stroke:#b0b0b0;stroke-linecap:square;stroke-width:0.8;"/>
     </g>
     <g id="line2d_14">
      <g>
       <use style="stroke:#000000;stroke-width:0.6;" x="258.377143" xlink:href="#me806fe3eff" y="298.944"/>
      </g>
     </g>
    </g>
    <g id="xtick_8">
     <g id="line2d_15">
      <path clip-path="url(#paad2730f6c)" d="M 338.688 298.944 
L 338.688 27.648 
" style="fill:none;stroke:#b0b0b0;stroke-linecap:square;stroke-width:0.8;"/>
     </g>
     <g id="line2d_16">
      <g>
       <use style="stroke:#000000;stroke-width:0.6;" x="338.688" xlink:href="#me806fe3eff" y="298.944"/>
      </g>
     </g>
    </g>
    <g id="text_5">
     <!-- log10(# f-evals / dimension) -->
     <g transform="translate(77.764078 342.217594)scale(0.17 -0.17)">
      <defs>
       <path d="M 603 4863 
L 1178 4863 
L 1178 0 
L 603 0 
L 603 4863 
z
" id="DejaVuSans-6c" transform="scale(0.015625)"/>
       <path d="M 1959 3097 
Q 1497 3097 1228 2736 
Q 959 2375 959 1747 
Q 959 1119 1226 758 
Q 1494 397 1959 397 
Q 2419 397 2687 759 
Q 2956 1122 2956 1747 
Q 2956 2369 2687 2733 
Q 2419 3097 1959 3097 
z
M 1959 3584 
Q 2709 3584 3137 3096 
Q 3566 2609 3566 1747 
Q 3566 888 3137 398 
Q 2709 -91 1959 -91 
Q 1206 -91 779 398 
Q 353 888 353 1747 
Q 353 2609 779 3096 
Q 1206 3584 1959 3584 
z
" id="DejaVuSans-6f" transform="scale(0.015625)"/>
       <path d="M 2906 1791 
Q 2906 2416 2648 2759 
Q 2391 3103 1925 3103 
Q 1463 3103 1205 2759 
Q 947 2416 947 1791 
Q 947 1169 1205 825 
Q 1463 481 1925 481 
Q 2391 481 2648 825 
Q 2906 1169 2906 1791 
z
M 3481 434 
Q 3481 -459 3084 -895 
Q 2688 -1331 1869 -1331 
Q 1566 -1331 1297 -1286 
Q 1028 -1241 775 -1147 
L 775 -588 
Q 1028 -725 1275 -790 
Q 1522 -856 1778 -856 
Q 2344 -856 2625 -561 
Q 2906 -266 2906 331 
L 2906 616 
Q 2728 306 2450 153 
Q 2172 0 1784 0 
Q 1141 0 747 490 
Q 353 981 353 1791 
Q 353 2603 747 3093 
Q 1141 3584 1784 3584 
Q 2172 3584 2450 3431 
Q 2728 3278 2906 2969 
L 2906 3500 
L 3481 3500 
L 3481 434 
z
" id="DejaVuSans-67" transform="scale(0.015625)"/>
       <path d="M 794 531 
L 1825 531 
L 1825 4091 
L 703 3866 
L 703 4441 
L 1819 4666 
L 2450 4666 
L 2450 531 
L 3481 531 
L 3481 0 
L 794 0 
L 794 531 
z
" id="DejaVuSans-31" transform="scale(0.015625)"/>
       <path d="M 1984 4856 
Q 1566 4138 1362 3434 
Q 1159 2731 1159 2009 
Q 1159 1288 1364 580 
Q 1569 -128 1984 -844 
L 1484 -844 
Q 1016 -109 783 600 
Q 550 1309 550 2009 
Q 550 2706 781 3412 
Q 1013 4119 1484 4856 
L 1984 4856 
z
" id="DejaVuSans-28" transform="scale(0.015625)"/>
       <path d="M 3272 2816 
L 2363 2816 
L 2100 1772 
L 3016 1772 
L 3272 2816 
z
M 2803 4594 
L 2478 3297 
L 3391 3297 
L 3719 4594 
L 4219 4594 
L 3897 3297 
L 4872 3297 
L 4872 2816 
L 3775 2816 
L 3519 1772 
L 4513 1772 
L 4513 1294 
L 3397 1294 
L 3072 0 
L 2572 0 
L 2894 1294 
L 1978 1294 
L 1656 0 
L 1153 0 
L 1478 1294 
L 494 1294 
L 494 1772 
L 1594 1772 
L 1856 2816 
L 850 2816 
L 850 3297 
L 1978 3297 
L 2297 4594 
L 2803 4594 
z
" id="DejaVuSans-23" transform="scale(0.015625)"/>
       <path id="DejaVuSans-20" transform="scale(0.015625)"/>
       <path d="M 2375 4863 
L 2375 4384 
L 1825 4384 
Q 1516 4384 1395 4259 
Q 1275 4134 1275 3809 
L 1275 3500 
L 2222 3500 
L 2222 3053 
L 1275 3053 
L 1275 0 
L 697 0 
L 697 3053 
L 147 3053 
L 147 3500 
L 697 3500 
L 697 3744 
Q 697 4328 969 4595 
Q 1241 4863 1831 4863 
L 2375 4863 
z
" id="DejaVuSans-66" transform="scale(0.015625)"/>
       <path d="M 313 2009 
L 1997 2009 
L 1997 1497 
L 313 1497 
L 313 2009 
z
" id="DejaVuSans-2d" transform="scale(0.015625)"/>
       <path d="M 3597 1894 
L 3597 1613 
L 953 1613 
Q 991 1019 1311 708 
Q 1631 397 2203 397 
Q 2534 397 2845 478 
Q 3156 559 3463 722 
L 3463 178 
Q 3153 47 2828 -22 
Q 2503 -91 2169 -91 
Q 1331 -91 842 396 
Q 353 884 353 1716 
Q 353 2575 817 3079 
Q 1281 3584 2069 3584 
Q 2775 3584 3186 3129 
Q 3597 2675 3597 1894 
z
M 3022 2063 
Q 3016 2534 2758 2815 
Q 2500 3097 2075 3097 
Q 1594 3097 1305 2825 
Q 1016 2553 972 2059 
L 3022 2063 
z
" id="DejaVuSans-65" transform="scale(0.015625)"/>
       <path d="M 191 3500 
L 800 3500 
L 1894 563 
L 2988 3500 
L 3597 3500 
L 2284 0 
L 1503 0 
L 191 3500 
z
" id="DejaVuSans-76" transform="scale(0.015625)"/>
       <path d="M 2194 1759 
Q 1497 1759 1228 1600 
Q 959 1441 959 1056 
Q 959 750 1161 570 
Q 1363 391 1709 391 
Q 2188 391 2477 730 
Q 2766 1069 2766 1631 
L 2766 1759 
L 2194 1759 
z
M 3341 1997 
L 3341 0 
L 2766 0 
L 2766 531 
Q 2569 213 2275 61 
Q 1981 -91 1556 -91 
Q 1019 -91 701 211 
Q 384 513 384 1019 
Q 384 1609 779 1909 
Q 1175 2209 1959 2209 
L 2766 2209 
L 2766 2266 
Q 2766 2663 2505 2880 
Q 2244 3097 1772 3097 
Q 1472 3097 1187 3025 
Q 903 2953 641 2809 
L 641 3341 
Q 956 3463 1253 3523 
Q 1550 3584 1831 3584 
Q 2591 3584 2966 3190 
Q 3341 2797 3341 1997 
z
" id="DejaVuSans-61" transform="scale(0.015625)"/>
       <path d="M 2834 3397 
L 2834 2853 
Q 2591 2978 2328 3040 
Q 2066 3103 1784 3103 
Q 1356 3103 1142 2972 
Q 928 2841 928 2578 
Q 928 2378 1081 2264 
Q 1234 2150 1697 2047 
L 1894 2003 
Q 2506 1872 2764 1633 
Q 3022 1394 3022 966 
Q 3022 478 2636 193 
Q 2250 -91 1575 -91 
Q 1294 -91 989 -36 
Q 684 19 347 128 
L 347 722 
Q 666 556 975 473 
Q 1284 391 1588 391 
Q 1994 391 2212 530 
Q 2431 669 2431 922 
Q 2431 1156 2273 1281 
Q 2116 1406 1581 1522 
L 1381 1569 
Q 847 1681 609 1914 
Q 372 2147 372 2553 
Q 372 3047 722 3315 
Q 1072 3584 1716 3584 
Q 2034 3584 2315 3537 
Q 2597 3491 2834 3397 
z
" id="DejaVuSans-73" transform="scale(0.015625)"/>
       <path d="M 1625 4666 
L 2156 4666 
L 531 -594 
L 0 -594 
L 1625 4666 
z
" id="DejaVuSans-2f" transform="scale(0.015625)"/>
       <path d="M 2906 2969 
L 2906 4863 
L 3481 4863 
L 3481 0 
L 2906 0 
L 2906 525 
Q 2725 213 2448 61 
Q 2172 -91 1784 -91 
Q 1150 -91 751 415 
Q 353 922 353 1747 
Q 353 2572 751 3078 
Q 1150 3584 1784 3584 
Q 2172 3584 2448 3432 
Q 2725 3281 2906 2969 
z
M 947 1747 
Q 947 1113 1208 752 
Q 1469 391 1925 391 
Q 2381 391 2643 752 
Q 2906 1113 2906 1747 
Q 2906 2381 2643 2742 
Q 2381 3103 1925 3103 
Q 1469 3103 1208 2742 
Q 947 2381 947 1747 
z
" id="DejaVuSans-64" transform="scale(0.015625)"/>
       <path d="M 603 3500 
L 1178 3500 
L 1178 0 
L 603 0 
L 603 3500 
z
M 603 4863 
L 1178 4863 
L 1178 4134 
L 603 4134 
L 603 4863 
z
" id="DejaVuSans-69" transform="scale(0.015625)"/>
       <path d="M 3328 2828 
Q 3544 3216 3844 3400 
Q 4144 3584 4550 3584 
Q 5097 3584 5394 3201 
Q 5691 2819 5691 2113 
L 5691 0 
L 5113 0 
L 5113 2094 
Q 5113 2597 4934 2840 
Q 4756 3084 4391 3084 
Q 3944 3084 3684 2787 
Q 3425 2491 3425 1978 
L 3425 0 
L 2847 0 
L 2847 2094 
Q 2847 2600 2669 2842 
Q 2491 3084 2119 3084 
Q 1678 3084 1418 2786 
Q 1159 2488 1159 1978 
L 1159 0 
L 581 0 
L 581 3500 
L 1159 3500 
L 1159 2956 
Q 1356 3278 1631 3431 
Q 1906 3584 2284 3584 
Q 2666 3584 2933 3390 
Q 3200 3197 3328 2828 
z
" id="DejaVuSans-6d" transform="scale(0.015625)"/>
       <path d="M 3513 2113 
L 3513 0 
L 2938 0 
L 2938 2094 
Q 2938 2591 2744 2837 
Q 2550 3084 2163 3084 
Q 1697 3084 1428 2787 
Q 1159 2491 1159 1978 
L 1159 0 
L 581 0 
L 581 3500 
L 1159 3500 
L 1159 2956 
Q 1366 3272 1645 3428 
Q 1925 3584 2291 3584 
Q 2894 3584 3203 3211 
Q 3513 2838 3513 2113 
z
" id="DejaVuSans-6e" transform="scale(0.015625)"/>
       <path d="M 513 4856 
L 1013 4856 
Q 1481 4119 1714 3412 
Q 1947 2706 1947 2009 
Q 1947 1309 1714 600 
Q 1481 -109 1013 -844 
L 513 -844 
Q 928 -128 1133 580 
Q 1338 1288 1338 2009 
Q 1338 2731 1133 3434 
Q 928 4138 513 4856 
z
" id="DejaVuSans-29" transform="scale(0.015625)"/>
      </defs>
      <use xlink:href="#DejaVuSans-6c"/>
      <use x="27.783203" xlink:href="#DejaVuSans-6f"/>
      <use x="88.964844" xlink:href="#DejaVuSans-67"/>
      <use x="152.441406" xlink:href="#DejaVuSans-31"/>
      <use x="216.064453" xlink:href="#DejaVuSans-30"/>
      <use x="279.6875" xlink:href="#DejaVuSans-28"/>
      <use x="318.701172" xlink:href="#DejaVuSans-23"/>
      <use x="402.490234" xlink:href="#DejaVuSans-20"/>
      <use x="434.277344" xlink:href="#DejaVuSans-66"/>
      <use x="463.982422" xlink:href="#DejaVuSans-2d"/>
      <use x="500.066406" xlink:href="#DejaVuSans-65"/>
      <use x="561.589844" xlink:href="#DejaVuSans-76"/>
      <use x="620.769531" xlink:href="#DejaVuSans-61"/>
      <use x="682.048828" xlink:href="#DejaVuSans-6c"/>
      <use x="709.832031" xlink:href="#DejaVuSans-73"/>
      <use x="761.931641" xlink:href="#DejaVuSans-20"/>
      <use x="793.71875" xlink:href="#DejaVuSans-2f"/>
      <use x="827.410156" xlink:href="#DejaVuSans-20"/>
      <use x="859.197266" xlink:href="#DejaVuSans-64"/>
      <use x="922.673828" xlink:href="#DejaVuSans-69"/>
      <use x="950.457031" xlink:href="#DejaVuSans-6d"/>
      <use x="1047.869141" xlink:href="#DejaVuSans-65"/>
      <use x="1109.392578" xlink:href="#DejaVuSans-6e"/>
      <use x="1172.771484" xlink:href="#DejaVuSans-73"/>
      <use x="1224.871094" xlink:href="#DejaVuSans-69"/>
      <use x="1252.654297" xlink:href="#DejaVuSans-6f"/>
      <use x="1313.835938" xlink:href="#DejaVuSans-6e"/>
      <use x="1377.214844" xlink:href="#DejaVuSans-29"/>
     </g>
    </g>
   </g>
   <g id="matplotlib.axis_2">
    <g id="ytick_1">
     <g id="line2d_17">
      <path clip-path="url(#paad2730f6c)" d="M 57.6 298.944 
L 338.688 298.944 
" style="fill:none;stroke:#b0b0b0;stroke-linecap:square;stroke-width:0.8;"/>
     </g>
     <g id="line2d_18">
      <defs>
       <path d="M 0 0 
L -3.5 0 
" id="m45e0578071" style="stroke:#000000;stroke-width:0.8;"/>
      </defs>
      <g>
       <use style="stroke:#000000;stroke-width:0.8;" x="57.6" xlink:href="#m45e0578071" y="298.944"/>
      </g>
     </g>
     <g id="text_6">
      <!-- 0.0 -->
      <g transform="translate(25.155 305.02275)scale(0.16 -0.16)">
       <defs>
        <path d="M 684 794 
L 1344 794 
L 1344 0 
L 684 0 
L 684 794 
z
" id="DejaVuSans-2e" transform="scale(0.015625)"/>
       </defs>
       <use xlink:href="#DejaVuSans-30"/>
       <use x="63.623047" xlink:href="#DejaVuSans-2e"/>
       <use x="95.410156" xlink:href="#DejaVuSans-30"/>
      </g>
     </g>
    </g>
    <g id="ytick_2">
     <g id="line2d_19">
      <path clip-path="url(#paad2730f6c)" d="M 57.6 245.22202 
L 338.688 245.22202 
" style="fill:none;stroke:#b0b0b0;stroke-linecap:square;stroke-width:0.8;"/>
     </g>
     <g id="line2d_20">
      <g>
       <use style="stroke:#000000;stroke-width:0.8;" x="57.6" xlink:href="#m45e0578071" y="245.22202"/>
      </g>
     </g>
     <g id="text_7">
      <!-- 0.2 -->
      <g transform="translate(25.155 251.30077)scale(0.16 -0.16)">
       <use xlink:href="#DejaVuSans-30"/>
       <use x="63.623047" xlink:href="#DejaVuSans-2e"/>
       <use x="95.410156" xlink:href="#DejaVuSans-32"/>
      </g>
     </g>
    </g>
    <g id="ytick_3">
     <g id="line2d_21">
      <path clip-path="url(#paad2730f6c)" d="M 57.6 191.50004 
L 338.688 191.50004 
" style="fill:none;stroke:#b0b0b0;stroke-linecap:square;stroke-width:0.8;"/>
     </g>
     <g id="line2d_22">
      <g>
       <use style="stroke:#000000;stroke-width:0.8;" x="57.6" xlink:href="#m45e0578071" y="191.50004"/>
      </g>
     </g>
     <g id="text_8">
      <!-- 0.4 -->
      <g transform="translate(25.155 197.57879)scale(0.16 -0.16)">
       <use xlink:href="#DejaVuSans-30"/>
       <use x="63.623047" xlink:href="#DejaVuSans-2e"/>
       <use x="95.410156" xlink:href="#DejaVuSans-34"/>
      </g>
     </g>
    </g>
    <g id="ytick_4">
     <g id="line2d_23">
      <path clip-path="url(#paad2730f6c)" d="M 57.6 137.778059 
L 338.688 137.778059 
" style="fill:none;stroke:#b0b0b0;stroke-linecap:square;stroke-width:0.8;"/>
     </g>
     <g id="line2d_24">
      <g>
       <use style="stroke:#000000;stroke-width:0.8;" x="57.6" xlink:href="#m45e0578071" y="137.778059"/>
      </g>
     </g>
     <g id="text_9">
      <!-- 0.6 -->
      <g transform="translate(25.155 143.856809)scale(0.16 -0.16)">
       <use xlink:href="#DejaVuSans-30"/>
       <use x="63.623047" xlink:href="#DejaVuSans-2e"/>
       <use x="95.410156" xlink:href="#DejaVuSans-36"/>
      </g>
     </g>
    </g>
    <g id="ytick_5">
     <g id="line2d_25">
      <path clip-path="url(#paad2730f6c)" d="M 57.6 84.056079 
L 338.688 84.056079 
" style="fill:none;stroke:#b0b0b0;stroke-linecap:square;stroke-width:0.8;"/>
     </g>
     <g id="line2d_26">
      <g>
       <use style="stroke:#000000;stroke-width:0.8;" x="57.6" xlink:href="#m45e0578071" y="84.056079"/>
      </g>
     </g>
     <g id="text_10">
      <!-- 0.8 -->
      <g transform="translate(25.155 90.134829)scale(0.16 -0.16)">
       <defs>
        <path d="M 2034 2216 
Q 1584 2216 1326 1975 
Q 1069 1734 1069 1313 
Q 1069 891 1326 650 
Q 1584 409 2034 409 
Q 2484 409 2743 651 
Q 3003 894 3003 1313 
Q 3003 1734 2745 1975 
Q 2488 2216 2034 2216 
z
M 1403 2484 
Q 997 2584 770 2862 
Q 544 3141 544 3541 
Q 544 4100 942 4425 
Q 1341 4750 2034 4750 
Q 2731 4750 3128 4425 
Q 3525 4100 3525 3541 
Q 3525 3141 3298 2862 
Q 3072 2584 2669 2484 
Q 3125 2378 3379 2068 
Q 3634 1759 3634 1313 
Q 3634 634 3220 271 
Q 2806 -91 2034 -91 
Q 1263 -91 848 271 
Q 434 634 434 1313 
Q 434 1759 690 2068 
Q 947 2378 1403 2484 
z
M 1172 3481 
Q 1172 3119 1398 2916 
Q 1625 2713 2034 2713 
Q 2441 2713 2670 2916 
Q 2900 3119 2900 3481 
Q 2900 3844 2670 4047 
Q 2441 4250 2034 4250 
Q 1625 4250 1398 4047 
Q 1172 3844 1172 3481 
z
" id="DejaVuSans-38" transform="scale(0.015625)"/>
       </defs>
       <use xlink:href="#DejaVuSans-30"/>
       <use x="63.623047" xlink:href="#DejaVuSans-2e"/>
       <use x="95.410156" xlink:href="#DejaVuSans-38"/>
      </g>
     </g>
    </g>
    <g id="ytick_6">
     <g id="line2d_27">
      <path clip-path="url(#paad2730f6c)" d="M 57.6 30.334099 
L 338.688 30.334099 
" style="fill:none;stroke:#b0b0b0;stroke-linecap:square;stroke-width:0.8;"/>
     </g>
     <g id="line2d_28">
      <g>
       <use style="stroke:#000000;stroke-width:0.8;" x="57.6" xlink:href="#m45e0578071" y="30.334099"/>
      </g>
     </g>
     <g id="text_11">
      <!-- 1.0 -->
      <g transform="translate(25.155 36.412849)scale(0.16 -0.16)">
       <use xlink:href="#DejaVuSans-31"/>
       <use x="63.623047" xlink:href="#DejaVuSans-2e"/>
       <use x="95.410156" xlink:href="#DejaVuSans-30"/>
      </g>
     </g>
    </g>
    <g id="text_12">
     <!-- Fraction of function,target pairs -->
     <g transform="translate(17.619531 297.681)rotate(-90)scale(0.17 -0.17)">
      <defs>
       <path d="M 628 4666 
L 3309 4666 
L 3309 4134 
L 1259 4134 
L 1259 2759 
L 3109 2759 
L 3109 2228 
L 1259 2228 
L 1259 0 
L 628 0 
L 628 4666 
z
" id="DejaVuSans-46" transform="scale(0.015625)"/>
       <path d="M 2631 2963 
Q 2534 3019 2420 3045 
Q 2306 3072 2169 3072 
Q 1681 3072 1420 2755 
Q 1159 2438 1159 1844 
L 1159 0 
L 581 0 
L 581 3500 
L 1159 3500 
L 1159 2956 
Q 1341 3275 1631 3429 
Q 1922 3584 2338 3584 
Q 2397 3584 2469 3576 
Q 2541 3569 2628 3553 
L 2631 2963 
z
" id="DejaVuSans-72" transform="scale(0.015625)"/>
       <path d="M 3122 3366 
L 3122 2828 
Q 2878 2963 2633 3030 
Q 2388 3097 2138 3097 
Q 1578 3097 1268 2742 
Q 959 2388 959 1747 
Q 959 1106 1268 751 
Q 1578 397 2138 397 
Q 2388 397 2633 464 
Q 2878 531 3122 666 
L 3122 134 
Q 2881 22 2623 -34 
Q 2366 -91 2075 -91 
Q 1284 -91 818 406 
Q 353 903 353 1747 
Q 353 2603 823 3093 
Q 1294 3584 2113 3584 
Q 2378 3584 2631 3529 
Q 2884 3475 3122 3366 
z
" id="DejaVuSans-63" transform="scale(0.015625)"/>
       <path d="M 1172 4494 
L 1172 3500 
L 2356 3500 
L 2356 3053 
L 1172 3053 
L 1172 1153 
Q 1172 725 1289 603 
Q 1406 481 1766 481 
L 2356 481 
L 2356 0 
L 1766 0 
Q 1100 0 847 248 
Q 594 497 594 1153 
L 594 3053 
L 172 3053 
L 172 3500 
L 594 3500 
L 594 4494 
L 1172 4494 
z
" id="DejaVuSans-74" transform="scale(0.015625)"/>
       <path d="M 544 1381 
L 544 3500 
L 1119 3500 
L 1119 1403 
Q 1119 906 1312 657 
Q 1506 409 1894 409 
Q 2359 409 2629 706 
Q 2900 1003 2900 1516 
L 2900 3500 
L 3475 3500 
L 3475 0 
L 2900 0 
L 2900 538 
Q 2691 219 2414 64 
Q 2138 -91 1772 -91 
Q 1169 -91 856 284 
Q 544 659 544 1381 
z
M 1991 3584 
L 1991 3584 
z
" id="DejaVuSans-75" transform="scale(0.015625)"/>
       <path d="M 750 794 
L 1409 794 
L 1409 256 
L 897 -744 
L 494 -744 
L 750 256 
L 750 794 
z
" id="DejaVuSans-2c" transform="scale(0.015625)"/>
       <path d="M 1159 525 
L 1159 -1331 
L 581 -1331 
L 581 3500 
L 1159 3500 
L 1159 2969 
Q 1341 3281 1617 3432 
Q 1894 3584 2278 3584 
Q 2916 3584 3314 3078 
Q 3713 2572 3713 1747 
Q 3713 922 3314 415 
Q 2916 -91 2278 -91 
Q 1894 -91 1617 61 
Q 1341 213 1159 525 
z
M 3116 1747 
Q 3116 2381 2855 2742 
Q 2594 3103 2138 3103 
Q 1681 3103 1420 2742 
Q 1159 2381 1159 1747 
Q 1159 1113 1420 752 
Q 1681 391 2138 391 
Q 2594 391 2855 752 
Q 3116 1113 3116 1747 
z
" id="DejaVuSans-70" transform="scale(0.015625)"/>
      </defs>
      <use xlink:href="#DejaVuSans-46"/>
      <use x="50.269531" xlink:href="#DejaVuSans-72"/>
      <use x="91.382812" xlink:href="#DejaVuSans-61"/>
      <use x="152.662109" xlink:href="#DejaVuSans-63"/>
      <use x="207.642578" xlink:href="#DejaVuSans-74"/>
      <use x="246.851562" xlink:href="#DejaVuSans-69"/>
      <use x="274.634766" xlink:href="#DejaVuSans-6f"/>
      <use x="335.816406" xlink:href="#DejaVuSans-6e"/>
      <use x="399.195312" xlink:href="#DejaVuSans-20"/>
      <use x="430.982422" xlink:href="#DejaVuSans-6f"/>
      <use x="492.164062" xlink:href="#DejaVuSans-66"/>
      <use x="527.369141" xlink:href="#DejaVuSans-20"/>
      <use x="559.15625" xlink:href="#DejaVuSans-66"/>
      <use x="594.361328" xlink:href="#DejaVuSans-75"/>
      <use x="657.740234" xlink:href="#DejaVuSans-6e"/>
      <use x="721.119141" xlink:href="#DejaVuSans-63"/>
      <use x="776.099609" xlink:href="#DejaVuSans-74"/>
      <use x="815.308594" xlink:href="#DejaVuSans-69"/>
      <use x="843.091797" xlink:href="#DejaVuSans-6f"/>
      <use x="904.273438" xlink:href="#DejaVuSans-6e"/>
      <use x="967.652344" xlink:href="#DejaVuSans-2c"/>
      <use x="999.439453" xlink:href="#DejaVuSans-74"/>
      <use x="1038.648438" xlink:href="#DejaVuSans-61"/>
      <use x="1099.927734" xlink:href="#DejaVuSans-72"/>
      <use x="1139.291016" xlink:href="#DejaVuSans-67"/>
      <use x="1202.767578" xlink:href="#DejaVuSans-65"/>
      <use x="1264.291016" xlink:href="#DejaVuSans-74"/>
      <use x="1303.5" xlink:href="#DejaVuSans-20"/>
      <use x="1335.287109" xlink:href="#DejaVuSans-70"/>
      <use x="1398.763672" xlink:href="#DejaVuSans-61"/>
      <use x="1460.042969" xlink:href="#DejaVuSans-69"/>
      <use x="1487.826172" xlink:href="#DejaVuSans-72"/>
      <use x="1528.939453" xlink:href="#DejaVuSans-73"/>
     </g>
    </g>
   </g>
   <g id="line2d_29">
    <defs>
     <path d="M 0 1.5 
C 0.397805 1.5 0.77937 1.341951 1.06066 1.06066 
C 1.341951 0.77937 1.5 0.397805 1.5 0 
C 1.5 -0.397805 1.341951 -0.77937 1.06066 -1.06066 
C 0.77937 -1.341951 0.397805 -1.5 0 -1.5 
C -0.397805 -1.5 -0.77937 -1.341951 -1.06066 -1.06066 
C -1.341951 -0.77937 -1.5 -0.397805 -1.5 0 
C -1.5 0.397805 -1.341951 0.77937 -1.06066 1.06066 
C -0.77937 1.341951 -0.397805 1.5 0 1.5 
z
" id="m10530045e1" style="stroke:#00bfbf;"/>
    </defs>
    <g>
     <use style="fill:#00bfbf;stroke:#00bfbf;" x="238.37796" xlink:href="#m10530045e1" y="30.334099"/>
     <use style="fill:#00bfbf;stroke:#00bfbf;" x="238.37796" xlink:href="#m10530045e1" y="30.334099"/>
    </g>
   </g>
   <g id="line2d_30">
    <path d="M 45.512012 298.944 
L 45.512012 285.776848 
L 57.6 285.776848 
L 57.6 279.983301 
L 64.67102 279.983301 
L 64.67102 277.876557 
L 69.687988 277.876557 
L 69.687988 275.243126 
L 73.579452 275.243126 
L 73.579452 274.71644 
L 79.447285 274.71644 
L 79.447285 273.663068 
L 81.775977 273.663068 
L 81.775977 271.029638 
L 83.830028 271.029638 
L 83.830028 269.449579 
L 85.66744 269.449579 
L 85.66744 268.396207 
L 88.846997 268.396207 
L 88.846997 267.869521 
L 93.863965 267.869521 
L 93.863965 265.762777 
L 98.606294 265.762777 
L 98.606294 265.236091 
L 100.192776 265.236091 
L 100.192776 263.656033 
L 102.330873 263.656033 
L 102.330873 263.129347 
L 108.948899 263.129347 
L 108.948899 262.60266 
L 109.401893 262.60266 
L 109.401893 261.549288 
L 112.655818 261.549288 
L 112.655818 261.022602 
L 114.080224 261.022602 
L 114.080224 259.96923 
L 120.093994 259.96923 
L 120.093994 258.389172 
L 123.790603 258.389172 
L 123.790603 257.862486 
L 124.557288 257.862486 
L 124.557288 257.3358 
L 127.325746 257.3358 
L 127.325746 255.755741 
L 129.002426 255.755741 
L 129.002426 254.702369 
L 130.127931 254.702369 
L 130.127931 253.648997 
L 131.185181 253.648997 
L 131.185181 253.122311 
L 134.236034 253.122311 
L 134.236034 251.542253 
L 135.878591 251.542253 
L 135.878591 250.488881 
L 137.469333 250.488881 
L 137.469333 249.962195 
L 141.80232 249.962195 
L 141.80232 248.908822 
L 143.590833 248.908822 
L 143.590833 248.382136 
L 146.749392 248.382136 
L 146.749392 245.748706 
L 156.717545 245.748706 
L 156.717545 244.695334 
L 164.276 244.695334 
L 164.333587 243.641962 
L 165.175324 243.641962 
L 165.175324 243.115275 
L 166.306535 243.115275 
L 166.306535 241.008531 
L 172.373705 241.008531 
L 172.373705 240.481845 
L 174.890216 240.481845 
L 174.890216 239.955159 
L 176.734949 239.955159 
L 176.734949 239.428473 
L 177.180944 239.428473 
L 177.180944 238.901787 
L 177.996389 238.901787 
L 177.996389 237.848415 
L 178.135904 237.848415 
L 178.135904 237.321729 
L 183.915425 237.321729 
L 183.915425 236.795043 
L 187.740671 236.795043 
L 187.740671 236.268356 
L 193.253717 236.268356 
L 193.253717 235.214984 
L 194.537502 235.214984 
L 194.537502 234.688298 
L 195.436258 234.688298 
L 195.436258 233.634926 
L 195.570999 233.634926 
L 195.570999 233.10824 
L 198.326258 233.10824 
L 198.326258 232.054868 
L 201.856544 232.054868 
L 201.856544 231.001496 
L 202.060385 231.001496 
L 202.126343 229.421437 
L 202.473967 229.421437 
L 202.473967 228.894751 
L 202.681389 228.894751 
L 202.721731 227.841379 
L 202.827449 227.841379 
L 202.827449 227.314693 
L 203.051556 227.314693 
L 203.11595 225.734635 
L 203.342545 225.734635 
L 203.430328 223.627891 
L 203.501455 223.627891 
L 203.535898 222.574518 
L 203.858764 222.574518 
L 203.858764 221.521146 
L 204.032743 221.521146 
L 204.032743 220.99446 
L 204.146469 220.99446 
L 204.216687 218.887716 
L 204.325355 218.887716 
L 204.37365 217.834344 
L 204.510083 217.834344 
L 204.592195 216.780971 
L 204.708021 216.780971 
L 204.708021 216.254285 
L 204.956057 216.254285 
L 205.060228 214.674227 
L 205.30334 214.674227 
L 205.396369 212.567483 
L 205.427268 212.567483 
L 205.452674 211.514111 
L 205.611526 211.514111 
L 205.672515 209.934052 
L 205.928483 209.934052 
L 206.023511 208.88068 
L 206.208554 208.88068 
L 206.236315 207.827308 
L 206.331409 207.827308 
L 206.391654 206.24725 
L 206.455117 206.24725 
L 206.455117 205.720564 
L 206.593247 205.720564 
L 206.693176 203.613819 
L 206.715118 203.613819 
L 206.715118 203.087133 
L 206.834467 203.087133 
L 206.914694 199.927017 
L 206.994554 199.927017 
L 206.994554 199.400331 
L 207.108715 199.400331 
L 207.161406 195.713528 
L 207.325049 195.713528 
L 207.368971 193.080098 
L 207.464564 193.080098 
L 207.522636 191.50004 
L 207.599765 191.50004 
L 207.674959 188.339923 
L 207.837038 188.339923 
L 207.92696 186.759865 
L 207.98822 186.759865 
L 208.007025 185.706493 
L 208.134992 185.706493 
L 208.215658 182.01969 
L 208.269743 182.01969 
L 208.326736 180.439632 
L 208.495085 180.439632 
L 208.575622 178.859574 
L 208.627093 178.859574 
L 208.627093 178.332888 
L 208.746102 178.332888 
L 208.797072 176.752829 
L 208.874739 176.752829 
L 208.931278 175.172771 
L 209.055612 175.172771 
L 209.129202 173.066027 
L 209.192242 173.066027 
L 209.225868 170.432596 
L 209.345225 170.432596 
L 209.362624 169.379224 
L 209.743904 169.379224 
L 209.743904 168.325852 
L 209.869636 168.325852 
L 209.91041 167.27248 
L 210.115638 167.27248 
L 210.182132 165.165736 
L 210.285523 165.165736 
L 210.359587 163.058991 
L 210.451046 163.058991 
L 210.451046 162.005619 
L 210.602869 162.005619 
L 210.711853 158.845503 
L 210.739997 158.845503 
L 210.764084 157.79213 
L 210.856112 157.79213 
L 210.911893 155.1587 
L 211.018967 155.1587 
L 211.018967 154.105328 
L 211.135865 154.105328 
L 211.171173 150.945211 
L 211.257184 150.945211 
L 211.266282 148.838467 
L 211.39831 148.838467 
L 211.436952 146.731723 
L 211.647968 146.731723 
L 211.694938 144.624978 
L 211.794805 144.624978 
L 211.905379 143.571606 
L 211.959156 143.571606 
L 212.056283 139.358118 
L 212.156577 139.358118 
L 212.250158 135.144629 
L 212.318792 135.144629 
L 212.428535 131.457826 
L 212.502525 131.457826 
L 212.609919 127.244338 
L 212.618337 127.244338 
L 212.618337 126.717652 
L 212.812043 126.717652 
L 212.812043 125.137593 
L 212.929368 125.137593 
L 213.020078 123.030849 
L 213.092776 123.030849 
L 213.112656 121.977477 
L 213.223338 121.977477 
L 213.326395 120.397419 
L 213.337937 120.397419 
L 213.42196 116.710616 
L 213.479277 116.710616 
L 213.568317 114.077186 
L 213.620616 114.077186 
L 213.620616 113.5505 
L 213.757439 113.5505 
L 213.781077 111.970441 
L 213.893198 111.970441 
L 213.909954 110.917069 
L 214.023471 110.917069 
L 214.125229 107.230267 
L 214.137356 107.230267 
L 214.137356 106.176895 
L 214.250502 106.176895 
L 214.253787 104.596836 
L 214.387923 104.596836 
L 214.484342 101.963406 
L 214.529659 101.963406 
L 214.572708 98.803289 
L 214.870057 98.803289 
L 214.941768 96.169859 
L 215.058194 96.169859 
L 215.155146 93.536429 
L 215.204975 93.536429 
L 215.204975 92.483056 
L 215.32893 92.483056 
L 215.395706 90.376312 
L 215.487745 90.376312 
L 215.489784 89.32294 
L 215.65119 89.32294 
L 215.755961 86.68951 
L 215.839127 86.68951 
L 215.947746 85.109451 
L 216.116797 85.109451 
L 216.176707 84.056079 
L 216.339679 84.056079 
L 216.339679 83.529393 
L 216.464532 83.529393 
L 216.464532 83.002707 
L 216.614334 83.002707 
L 216.67542 81.422649 
L 216.896024 81.422649 
L 216.976748 79.842591 
L 217.05244 79.842591 
L 217.150071 78.262532 
L 217.168606 78.262532 
L 217.168606 77.20916 
L 217.622977 77.20916 
L 217.648227 76.155788 
L 217.946631 76.155788 
L 218.036752 73.522358 
L 218.273954 73.522358 
L 218.340766 71.415613 
L 218.584147 71.415613 
L 218.654037 68.255497 
L 218.716022 68.255497 
L 218.822493 66.148752 
L 218.835125 66.148752 
L 218.942547 63.515322 
L 218.962615 63.515322 
L 219.021849 61.935264 
L 219.114881 61.935264 
L 219.185981 58.775147 
L 219.250217 58.775147 
L 219.360022 56.668403 
L 219.411409 56.668403 
L 219.516969 54.561659 
L 219.583226 54.561659 
L 219.66449 51.928228 
L 219.80759 51.928228 
L 219.908412 49.294798 
L 219.98345 49.294798 
L 220.050317 46.661368 
L 220.099712 46.661368 
L 220.206647 45.081309 
L 220.241629 45.081309 
L 220.247064 44.027937 
L 226.365297 44.027937 
L 226.465045 42.974565 
L 226.858429 42.974565 
L 226.863742 41.921193 
L 227.007115 41.921193 
L 227.078099 40.867821 
L 227.329208 40.867821 
L 227.329208 40.341135 
L 227.699726 40.341135 
L 227.74726 38.761076 
L 228.298978 38.761076 
L 228.390717 37.707704 
L 228.594422 37.707704 
L 228.595865 36.127646 
L 228.781979 36.127646 
L 228.781979 35.60096 
L 229.269094 35.60096 
L 229.269094 35.074274 
L 229.707355 35.074274 
L 229.707355 34.020902 
L 231.825375 34.020902 
L 231.825375 33.494215 
L 232.218209 33.494215 
L 232.251394 32.440843 
L 235.548155 32.440843 
L 235.548155 31.914157 
L 237.283373 31.914157 
L 237.283373 31.387471 
L 238.254549 31.387471 
L 238.254549 30.860785 
L 238.37796 30.860785 
L 238.37796 30.334099 
L 338.688 30.334099 
L 338.688 30.334099 
" style="fill:none;stroke:#00bfbf;stroke-linecap:square;stroke-width:1.5;"/>
   </g>
   <g id="line2d_31">
    <defs>
     <path d="M -6 0 
L 6 0 
M 0 6 
L 0 -6 
" id="m35cdb5f946" style="stroke:#00bfbf;stroke-width:1.5;"/>
    </defs>
    <g>
     <use style="fill-opacity:0;stroke:#00bfbf;stroke-width:1.5;" x="165.175324" xlink:href="#m35cdb5f946" y="243.115275"/>
     <use style="fill-opacity:0;stroke:#00bfbf;stroke-width:1.5;" x="211.135865" xlink:href="#m35cdb5f946" y="154.105328"/>
     <use style="fill-opacity:0;stroke:#00bfbf;stroke-width:1.5;" x="218.652336" xlink:href="#m35cdb5f946" y="69.835555"/>
     <use style="fill-opacity:0;stroke:#00bfbf;stroke-width:1.5;" x="238.37796" xlink:href="#m35cdb5f946" y="30.334099"/>
     <use style="fill-opacity:0;stroke:#00bfbf;stroke-width:1.5;" x="238.37796" xlink:href="#m35cdb5f946" y="30.334099"/>
     <use style="fill-opacity:0;stroke:#00bfbf;stroke-width:1.5;" x="338.688" xlink:href="#m35cdb5f946" y="30.334099"/>
    </g>
   </g>
   <g id="line2d_32">
    <path style="fill:none;stroke:#00bfbf;stroke-linecap:square;stroke-width:1.5;"/>
    <g/>
   </g>
   <g id="line2d_33">
    <path clip-path="url(#paad2730f6c)" d="M 220.275766 44.027937 
" style="fill:none;stroke:#00bfbf;stroke-linecap:square;stroke-width:1.5;"/>
    <defs>
     <path d="M -12 12 
L 12 -12 
M -12 -12 
L 12 12 
" id="mbdebf78a73" style="stroke:#00bfbf;"/>
    </defs>
    <g clip-path="url(#paad2730f6c)">
     <use style="fill:#00bfbf;stroke:#00bfbf;" x="220.275766" xlink:href="#mbdebf78a73" y="44.027937"/>
    </g>
   </g>
   <g id="line2d_34">
    <defs>
     <path d="M 0 1.5 
C 0.397805 1.5 0.77937 1.341951 1.06066 1.06066 
C 1.341951 0.77937 1.5 0.397805 1.5 0 
C 1.5 -0.397805 1.341951 -0.77937 1.06066 -1.06066 
C 0.77937 -1.341951 0.397805 -1.5 0 -1.5 
C -0.397805 -1.5 -0.77937 -1.341951 -1.06066 -1.06066 
C -1.341951 -0.77937 -1.5 -0.397805 -1.5 0 
C -1.5 0.397805 -1.341951 0.77937 -1.06066 1.06066 
C -0.77937 1.341951 -0.397805 1.5 0 1.5 
z
" id="m0800ac9158" style="stroke:#008000;"/>
    </defs>
    <g>
     <use style="fill:#008000;stroke:#008000;" x="237.820983" xlink:href="#m0800ac9158" y="30.334099"/>
     <use style="fill:#008000;stroke:#008000;" x="237.820983" xlink:href="#m0800ac9158" y="30.334099"/>
    </g>
   </g>
   <g id="line2d_35">
    <path d="M 38.440992 298.944 
L 38.440992 276.823185 
L 50.52898 276.823185 
L 50.52898 273.663068 
L 57.6 273.663068 
L 57.6 272.08301 
L 62.616969 272.08301 
L 62.616969 270.502952 
L 66.508432 270.502952 
L 66.508432 268.396207 
L 69.687988 268.396207 
L 69.687988 267.342835 
L 74.704957 267.342835 
L 74.704957 266.816149 
L 76.759008 266.816149 
L 76.759008 266.289463 
L 78.59642 266.289463 
L 78.59642 265.762777 
L 80.258561 265.762777 
L 80.258561 264.709405 
L 83.171864 264.709405 
L 83.171864 264.182719 
L 84.464254 264.182719 
L 84.464254 263.656033 
L 88.846997 263.656033 
L 88.846997 262.60266 
L 91.535274 262.60266 
L 91.535274 262.075974 
L 100.443706 262.075974 
L 100.443706 261.549288 
L 100.934985 261.549288 
L 100.934985 261.022602 
L 102.772397 261.022602 
L 102.772397 260.495916 
L 106.311539 260.495916 
L 106.311539 259.442544 
L 107.680028 259.442544 
L 107.680028 258.915858 
L 118.220662 258.915858 
L 118.220662 258.389172 
L 119.602714 258.389172 
L 119.602714 257.862486 
L 120.093994 257.862486 
L 120.093994 257.3358 
L 120.728219 257.3358 
L 120.728219 256.809114 
L 124.114161 256.809114 
L 124.114161 256.282427 
L 129.002426 256.282427 
L 129.002426 255.755741 
L 132.73818 255.755741 
L 132.73818 255.229055 
L 135.943785 255.229055 
L 135.943785 254.702369 
L 137.968891 254.702369 
L 137.968891 254.175683 
L 139.036363 254.175683 
L 139.036363 253.648997 
L 140.44901 253.648997 
L 140.44901 253.122311 
L 141.568232 253.122311 
L 141.568232 252.595625 
L 144.189046 252.595625 
L 144.189046 251.542253 
L 148.193699 251.542253 
L 148.193699 251.015567 
L 149.104327 251.015567 
L 149.104327 250.488881 
L 150.570677 250.488881 
L 150.570677 249.962195 
L 154.884527 249.962195 
L 154.884527 249.435508 
L 158.285965 249.435508 
L 158.285965 248.382136 
L 162.289115 248.382136 
L 162.289115 247.85545 
L 163.006766 247.85545 
L 163.034316 246.275392 
L 163.959089 246.275392 
L 163.959089 245.748706 
L 169.682742 245.748706 
L 169.682742 244.695334 
L 174.970237 244.695334 
L 174.970237 244.168648 
L 176.066647 244.168648 
L 176.066647 243.641962 
L 177.372536 243.641962 
L 177.372536 242.588589 
L 179.738993 242.588589 
L 179.738993 242.061903 
L 180.903405 242.061903 
L 180.903405 241.535217 
L 182.461942 241.535217 
L 182.461942 241.008531 
L 184.368791 241.008531 
L 184.368791 239.428473 
L 186.421943 239.428473 
L 186.421943 238.901787 
L 189.433283 238.901787 
L 189.433283 238.375101 
L 189.831587 238.375101 
L 189.831587 237.848415 
L 193.057961 237.848415 
L 193.057961 237.321729 
L 196.579869 237.321729 
L 196.579869 236.268356 
L 198.624758 236.268356 
L 198.624758 235.74167 
L 199.595113 235.74167 
L 199.595113 235.214984 
L 199.800264 235.214984 
L 199.800264 234.688298 
L 200.047587 234.688298 
L 200.156028 233.10824 
L 200.278444 233.10824 
L 200.33852 231.528182 
L 200.411309 231.528182 
L 200.454837 230.47481 
L 200.57518 230.47481 
L 200.629463 228.894751 
L 200.729602 228.894751 
L 200.729602 228.368065 
L 201.032847 228.368065 
L 201.035962 227.314693 
L 201.20952 227.314693 
L 201.248025 224.681263 
L 201.437768 224.681263 
L 201.53187 222.574518 
L 201.62095 222.574518 
L 201.684087 220.467774 
L 201.824571 220.467774 
L 201.824571 219.941088 
L 201.937331 219.941088 
L 201.974265 217.307658 
L 202.056713 217.307658 
L 202.156308 215.727599 
L 202.415789 215.727599 
L 202.506204 214.674227 
L 202.547667 214.674227 
L 202.613233 213.620855 
L 202.670048 213.620855 
L 202.684223 212.040797 
L 202.856234 212.040797 
L 202.963932 209.407366 
L 203.007104 209.407366 
L 203.040454 208.353994 
L 203.127696 208.353994 
L 203.226869 205.720564 
L 203.246087 205.720564 
L 203.345955 203.613819 
L 203.370493 203.613819 
L 203.396356 202.560447 
L 203.489959 202.560447 
L 203.543992 200.980389 
L 203.61533 200.980389 
L 203.709104 196.240214 
L 203.775778 196.240214 
L 203.867372 193.080098 
L 203.970337 193.080098 
L 204.068771 187.286551 
L 204.081854 187.286551 
L 204.104072 185.179807 
L 204.195262 185.179807 
L 204.230308 183.073062 
L 204.309227 183.073062 
L 204.359498 179.912946 
L 204.4263 179.912946 
L 204.454486 177.806202 
L 204.560415 177.806202 
L 204.575677 176.752829 
L 204.699818 176.752829 
L 204.808035 175.172771 
L 204.831854 175.172771 
L 204.864394 172.012655 
L 204.949215 172.012655 
L 205.027432 170.432596 
L 205.062083 170.432596 
L 205.164395 168.325852 
L 205.179138 168.325852 
L 205.274662 163.058991 
L 205.307607 163.058991 
L 205.330753 162.005619 
L 205.430295 162.005619 
L 205.490714 160.425561 
L 205.542507 160.425561 
L 205.596545 158.318817 
L 205.66356 158.318817 
L 205.726748 154.632014 
L 205.811039 154.632014 
L 205.874875 153.578642 
L 205.964326 153.578642 
L 206.060327 149.891839 
L 206.152318 149.891839 
L 206.259993 145.678351 
L 206.271532 145.678351 
L 206.375036 143.04492 
L 206.416266 143.04492 
L 206.496158 140.41149 
L 206.530286 140.41149 
L 206.62549 139.358118 
L 206.717929 139.358118 
L 206.827765 136.724687 
L 206.936914 136.724687 
L 206.955779 134.617943 
L 207.166338 134.617943 
L 207.217764 133.037885 
L 207.345126 133.037885 
L 207.433837 130.93114 
L 207.476947 130.93114 
L 207.569276 129.351082 
L 207.65366 129.351082 
L 207.74188 127.244338 
L 207.814881 127.244338 
L 207.847579 125.66428 
L 207.932729 125.66428 
L 207.932729 124.610907 
L 208.138102 124.610907 
L 208.145355 121.977477 
L 208.447297 121.977477 
L 208.447297 121.450791 
L 208.755107 121.450791 
L 208.843913 119.870733 
L 208.935239 119.870733 
L 208.989608 118.817361 
L 209.089011 118.817361 
L 209.089011 118.290674 
L 209.322 118.290674 
L 209.411826 116.710616 
L 209.575793 116.710616 
L 209.575793 116.18393 
L 209.744849 116.18393 
L 209.837231 114.603872 
L 209.962761 114.603872 
L 210.071632 113.023814 
L 210.178905 113.023814 
L 210.258012 110.917069 
L 210.36506 110.917069 
L 210.469643 108.283639 
L 210.514919 108.283639 
L 210.621305 107.230267 
L 210.628495 107.230267 
L 210.737765 105.650209 
L 210.756505 105.650209 
L 210.756505 105.123522 
L 210.919847 105.123522 
L 210.985109 103.016778 
L 211.051006 103.016778 
L 211.154182 100.910034 
L 211.193368 100.910034 
L 211.30176 98.803289 
L 211.317313 98.803289 
L 211.317313 98.276603 
L 211.432663 98.276603 
L 211.432663 97.223231 
L 211.568551 97.223231 
L 211.599171 96.169859 
L 211.716055 96.169859 
L 211.794384 93.536429 
L 211.862322 93.536429 
L 211.942498 91.429684 
L 212.022308 91.429684 
L 212.0811 88.269568 
L 212.170975 88.269568 
L 212.230908 86.162824 
L 212.348532 86.162824 
L 212.363179 84.582765 
L 212.501718 84.582765 
L 212.579819 83.002707 
L 212.618337 83.002707 
L 212.680749 81.422649 
L 212.756463 81.422649 
L 212.756463 80.895963 
L 212.869816 80.895963 
L 212.971443 78.262532 
L 213.021644 78.262532 
L 213.021644 77.735846 
L 213.143407 77.735846 
L 213.217143 76.155788 
L 213.363686 76.155788 
L 213.363686 75.629102 
L 213.531082 75.629102 
L 213.594865 74.049044 
L 213.683318 74.049044 
L 213.755562 72.995672 
L 213.889472 72.995672 
L 213.966063 71.415613 
L 214.483622 71.415613 
L 214.483622 70.888927 
L 215.226041 70.888927 
L 215.226041 70.362241 
L 219.062058 70.362241 
L 219.146608 69.308869 
L 220.043249 69.308869 
L 220.149228 68.255497 
L 220.441361 68.255497 
L 220.459777 67.202125 
L 220.582058 67.202125 
L 220.582058 66.675439 
L 220.718104 66.675439 
L 220.81907 64.042008 
L 220.914973 64.042008 
L 220.914973 63.515322 
L 221.086971 63.515322 
L 221.183868 61.935264 
L 221.207886 61.935264 
L 221.307039 59.82852 
L 221.360532 59.82852 
L 221.410473 57.721775 
L 221.568561 57.721775 
L 221.621738 55.615031 
L 221.702391 55.615031 
L 221.791674 54.034973 
L 221.853147 54.034973 
L 221.881446 52.9816 
L 221.996058 52.9816 
L 222.072671 51.928228 
L 222.150342 51.928228 
L 222.160084 50.874856 
L 222.346 50.874856 
L 222.439361 49.821484 
L 222.458065 49.821484 
L 222.458065 49.294798 
L 222.852964 49.294798 
L 222.852964 48.768112 
L 222.971128 48.768112 
L 222.971128 48.241426 
L 223.31872 48.241426 
L 223.31872 47.71474 
L 223.435073 47.71474 
L 223.435073 47.188054 
L 223.765169 47.188054 
L 223.828085 46.134681 
L 223.916794 46.134681 
L 223.916794 45.607995 
L 224.02882 45.607995 
L 224.02882 45.081309 
L 224.156271 45.081309 
L 224.233862 43.501251 
L 224.359828 43.501251 
L 224.46499 41.394507 
L 224.574772 41.394507 
L 224.683867 40.341135 
L 224.855582 40.341135 
L 224.855582 39.814448 
L 224.986225 39.814448 
L 224.986225 39.287762 
L 225.1249 39.287762 
L 225.1249 38.761076 
L 225.371614 38.761076 
L 225.400139 37.707704 
L 229.296993 37.707704 
L 229.350202 36.654332 
L 229.655227 36.654332 
L 229.655227 36.127646 
L 229.817725 36.127646 
L 229.817725 35.60096 
L 230.457022 35.60096 
L 230.562189 34.020902 
L 230.974949 34.020902 
L 230.974949 33.494215 
L 231.569842 33.494215 
L 231.584167 32.440843 
L 231.866893 32.440843 
L 231.866893 31.914157 
L 232.749325 31.914157 
L 232.749325 31.387471 
L 235.289573 31.387471 
L 235.289573 30.860785 
L 237.820983 30.860785 
L 237.820983 30.334099 
L 338.688 30.334099 
L 338.688 30.334099 
" style="fill:none;stroke:#008000;stroke-linecap:square;stroke-width:1.5;"/>
   </g>
   <g id="line2d_36">
    <defs>
     <path d="M -0 6 
L 6 -6 
L -6 -6 
z
" id="m48276b6d37" style="stroke:#008000;stroke-linejoin:miter;stroke-width:1.5;"/>
    </defs>
    <g>
     <use style="fill-opacity:0;stroke:#008000;stroke-linejoin:miter;stroke-width:1.5;" x="84.464254" xlink:href="#m48276b6d37" y="263.656033"/>
     <use style="fill-opacity:0;stroke:#008000;stroke-linejoin:miter;stroke-width:1.5;" x="186.421943" xlink:href="#m48276b6d37" y="239.428473"/>
     <use style="fill-opacity:0;stroke:#008000;stroke-linejoin:miter;stroke-width:1.5;" x="207.521025" xlink:href="#m48276b6d37" y="129.877768"/>
     <use style="fill-opacity:0;stroke:#008000;stroke-linejoin:miter;stroke-width:1.5;" x="237.820983" xlink:href="#m48276b6d37" y="30.860785"/>
     <use style="fill-opacity:0;stroke:#008000;stroke-linejoin:miter;stroke-width:1.5;" x="237.820983" xlink:href="#m48276b6d37" y="30.334099"/>
     <use style="fill-opacity:0;stroke:#008000;stroke-linejoin:miter;stroke-width:1.5;" x="338.688" xlink:href="#m48276b6d37" y="30.334099"/>
    </g>
   </g>
   <g id="line2d_37">
    <path style="fill:none;stroke:#008000;stroke-linecap:square;stroke-width:1.5;"/>
    <g/>
   </g>
   <g id="line2d_38">
    <path clip-path="url(#paad2730f6c)" d="M 212.573391 84.056079 
" style="fill:none;stroke:#008000;stroke-linecap:square;stroke-width:1.5;"/>
    <defs>
     <path d="M -12 12 
L 12 -12 
M -12 -12 
L 12 12 
" id="m2960a4be14" style="stroke:#008000;"/>
    </defs>
    <g clip-path="url(#paad2730f6c)">
     <use style="fill:#008000;stroke:#008000;" x="212.573391" xlink:href="#m2960a4be14" y="84.056079"/>
    </g>
   </g>
   <g id="line2d_39">
    <defs>
     <path d="M 0 1.5 
C 0.397805 1.5 0.77937 1.341951 1.06066 1.06066 
C 1.341951 0.77937 1.5 0.397805 1.5 0 
C 1.5 -0.397805 1.341951 -0.77937 1.06066 -1.06066 
C 0.77937 -1.341951 0.397805 -1.5 0 -1.5 
C -0.397805 -1.5 -0.77937 -1.341951 -1.06066 -1.06066 
C -1.341951 -0.77937 -1.5 -0.397805 -1.5 0 
C -1.5 0.397805 -1.341951 0.77937 -1.06066 1.06066 
C -0.77937 1.341951 -0.397805 1.5 0 1.5 
z
" id="m0d7f65d4fa" style="stroke:#0000ff;"/>
    </defs>
    <g>
     <use style="fill:#0000ff;stroke:#0000ff;" x="254.29349" xlink:href="#m0d7f65d4fa" y="30.334099"/>
     <use style="fill:#0000ff;stroke:#0000ff;" x="254.29349" xlink:href="#m0d7f65d4fa" y="30.334099"/>
    </g>
   </g>
   <g id="line2d_40">
    <path d="M 29.53256 298.944 
L 29.53256 275.769812 
L 41.620548 275.769812 
L 41.620548 272.08301 
L 48.691568 272.08301 
L 48.691568 270.502952 
L 53.708537 270.502952 
L 53.708537 268.922893 
L 57.6 268.922893 
L 57.6 267.869521 
L 60.779557 267.869521 
L 60.779557 266.816149 
L 67.850577 266.816149 
L 67.850577 265.762777 
L 71.35013 265.762777 
L 71.35013 264.709405 
L 74.263433 264.709405 
L 74.263433 263.656033 
L 77.884514 263.656033 
L 77.884514 263.129347 
L 79.938565 263.129347 
L 79.938565 262.075974 
L 84.213325 262.075974 
L 84.213325 261.549288 
L 84.955534 261.549288 
L 84.955534 260.495916 
L 100.641881 260.495916 
L 100.641881 259.96923 
L 104.592361 259.96923 
L 104.592361 259.442544 
L 107.614095 259.442544 
L 107.614095 258.915858 
L 107.811151 258.915858 
L 107.811151 257.862486 
L 113.873839 257.862486 
L 113.873839 257.3358 
L 115.958621 257.3358 
L 115.958621 256.809114 
L 120.47729 256.809114 
L 120.47729 256.282427 
L 121.310093 256.282427 
L 121.310093 255.755741 
L 126.904721 255.755741 
L 126.97016 254.175683 
L 129.06046 254.175683 
L 129.06046 253.648997 
L 130.874681 253.648997 
L 130.874681 253.122311 
L 137.980475 253.122311 
L 137.980475 252.595625 
L 140.165274 252.595625 
L 140.165274 252.068939 
L 140.708409 252.068939 
L 140.708409 251.542253 
L 140.915143 251.542253 
L 140.915143 251.015567 
L 141.492656 251.015567 
L 141.492656 250.488881 
L 145.005114 250.488881 
L 145.005114 249.962195 
L 145.143889 249.962195 
L 145.143889 248.908822 
L 149.610898 248.908822 
L 149.610898 248.382136 
L 151.928441 248.382136 
L 151.928441 247.85545 
L 158.444276 247.85545 
L 158.444276 247.328764 
L 167.557803 247.328764 
L 167.557803 246.275392 
L 174.481655 246.275392 
L 174.481655 245.748706 
L 181.488299 245.748706 
L 181.488299 245.22202 
L 183.523231 245.22202 
L 183.523231 244.695334 
L 193.381723 244.695334 
L 193.381723 244.168648 
L 193.767288 244.168648 
L 193.830963 242.588589 
L 195.315391 242.588589 
L 195.376252 241.535217 
L 195.538372 241.535217 
L 195.538372 241.008531 
L 196.636481 241.008531 
L 196.636481 240.481845 
L 196.775421 240.481845 
L 196.775421 239.955159 
L 197.004163 239.955159 
L 197.004163 239.428473 
L 197.380393 239.428473 
L 197.467751 238.375101 
L 197.613897 238.375101 
L 197.613897 237.848415 
L 197.915981 237.848415 
L 197.915981 237.321729 
L 198.096079 237.321729 
L 198.096079 236.795043 
L 198.26448 236.795043 
L 198.26448 235.214984 
L 198.403039 235.214984 
L 198.403039 234.161612 
L 198.64156 234.161612 
L 198.684385 233.10824 
L 198.836629 233.10824 
L 198.907505 231.528182 
L 199.0222 231.528182 
L 199.104858 230.47481 
L 199.153849 230.47481 
L 199.264871 228.368065 
L 199.314447 228.368065 
L 199.418305 225.207949 
L 199.516451 225.207949 
L 199.516451 224.681263 
L 199.648483 224.681263 
L 199.688907 223.101204 
L 199.789562 223.101204 
L 199.789562 222.574518 
L 199.921542 222.574518 
L 199.922538 221.521146 
L 200.046598 221.521146 
L 200.122582 219.414402 
L 200.209017 219.414402 
L 200.313541 216.780971 
L 200.352455 216.780971 
L 200.352455 216.254285 
L 200.487974 216.254285 
L 200.594677 213.620855 
L 200.649219 213.620855 
L 200.753044 209.407366 
L 200.854367 209.407366 
L 200.91375 208.353994 
L 200.980432 208.353994 
L 200.997297 206.773936 
L 201.152993 206.773936 
L 201.260329 202.033761 
L 201.264941 202.033761 
L 201.317429 199.400331 
L 201.453892 199.400331 
L 201.54216 197.820273 
L 201.607391 197.820273 
L 201.667874 196.240214 
L 201.802527 196.240214 
L 201.904172 193.080098 
L 201.984002 193.080098 
L 202.080199 189.919981 
L 202.132925 189.919981 
L 202.159229 188.339923 
L 202.331845 188.339923 
L 202.398514 185.706493 
L 202.506204 185.706493 
L 202.555091 183.599748 
L 202.670332 183.599748 
L 202.780589 180.439632 
L 202.848937 180.439632 
L 202.948867 178.859574 
L 202.967278 178.859574 
L 203.059879 177.279515 
L 203.146196 177.279515 
L 203.228792 174.646085 
L 203.27734 174.646085 
L 203.349502 172.539341 
L 203.422996 172.539341 
L 203.497804 169.90591 
L 203.544802 169.90591 
L 203.632783 166.745794 
L 203.672994 166.745794 
L 203.72593 163.058991 
L 203.849622 163.058991 
L 203.913121 161.478933 
L 204.006363 161.478933 
L 204.052011 159.898875 
L 204.160926 159.898875 
L 204.26373 157.79213 
L 204.397555 157.79213 
L 204.506637 155.685386 
L 204.576948 155.685386 
L 204.576948 154.632014 
L 204.745452 154.632014 
L 204.832856 153.051956 
L 204.944486 153.051956 
L 204.989236 151.998584 
L 205.101353 151.998584 
L 205.152346 150.945211 
L 205.277349 150.945211 
L 205.278081 149.891839 
L 205.580951 149.891839 
L 205.580951 149.365153 
L 205.873695 149.365153 
L 205.873695 148.838467 
L 205.988024 148.838467 
L 206.011222 147.785095 
L 206.138608 147.785095 
L 206.138608 147.258409 
L 206.36586 147.258409 
L 206.36586 146.731723 
L 206.616672 146.731723 
L 206.649887 145.678351 
L 207.220823 145.678351 
L 207.294075 144.624978 
L 209.415294 144.624978 
L 209.415294 144.098292 
L 209.602114 144.098292 
L 209.69165 141.991548 
L 209.981606 141.991548 
L 210.014024 140.938176 
L 212.005047 140.938176 
L 212.005047 140.41149 
L 212.679791 140.41149 
L 212.679791 139.884804 
L 213.76262 139.884804 
L 213.76262 139.358118 
L 213.886938 139.358118 
L 213.886938 138.831432 
L 214.178745 138.831432 
L 214.178745 138.304745 
L 214.329815 138.304745 
L 214.374665 136.724687 
L 214.505936 136.724687 
L 214.547752 135.671315 
L 214.805477 135.671315 
L 214.834303 134.617943 
L 215.045645 134.617943 
L 215.045645 134.091257 
L 215.306477 134.091257 
L 215.306477 133.564571 
L 215.501611 133.564571 
L 215.611333 131.457826 
L 215.784262 131.457826 
L 215.785465 130.404454 
L 215.970183 130.404454 
L 216.047398 128.824396 
L 216.177295 128.824396 
L 216.177295 128.29771 
L 216.385465 128.29771 
L 216.385465 127.771024 
L 216.819083 127.771024 
L 216.819083 127.244338 
L 217.288971 127.244338 
L 217.340041 126.190966 
L 217.403761 126.190966 
L 217.416184 125.137593 
L 217.542839 125.137593 
L 217.625684 124.084221 
L 217.674339 124.084221 
L 217.674339 123.557535 
L 218.044682 123.557535 
L 218.155319 122.504163 
L 218.226597 122.504163 
L 218.2381 121.450791 
L 218.583805 121.450791 
L 218.691084 120.397419 
L 218.723987 120.397419 
L 218.723987 119.870733 
L 218.976315 119.870733 
L 219.073244 118.290674 
L 219.154766 118.290674 
L 219.205606 116.710616 
L 219.28159 116.710616 
L 219.28159 116.18393 
L 219.40261 116.18393 
L 219.44103 115.130558 
L 219.709866 115.130558 
L 219.709866 114.603872 
L 219.92471 114.603872 
L 219.999521 113.5505 
L 220.183754 113.5505 
L 220.292499 112.497128 
L 220.342295 112.497128 
L 220.447911 111.443755 
L 220.572104 111.443755 
L 220.648444 109.863697 
L 220.731097 109.863697 
L 220.731097 109.337011 
L 220.853296 109.337011 
L 220.853296 108.810325 
L 221.101663 108.810325 
L 221.116737 107.756953 
L 221.242727 107.756953 
L 221.252111 106.703581 
L 221.368396 106.703581 
L 221.382368 105.650209 
L 221.490275 105.650209 
L 221.536193 104.596836 
L 221.631972 104.596836 
L 221.642295 103.543464 
L 221.807205 103.543464 
L 221.86334 102.490092 
L 221.951993 102.490092 
L 221.96044 101.43672 
L 222.100617 101.43672 
L 222.197241 99.856662 
L 222.298303 99.856662 
L 222.316515 98.803289 
L 222.417987 98.803289 
L 222.417987 98.276603 
L 222.665195 98.276603 
L 222.665195 97.749917 
L 222.778099 97.749917 
L 222.778099 97.223231 
L 222.995637 97.223231 
L 223.018435 95.643173 
L 223.43102 95.643173 
L 223.43102 95.116487 
L 223.891614 95.116487 
L 223.967797 93.536429 
L 224.04065 93.536429 
L 224.04065 93.009743 
L 224.189661 93.009743 
L 224.23172 91.95637 
L 224.390872 91.95637 
L 224.444415 90.376312 
L 224.594629 90.376312 
L 224.691891 88.796254 
L 225.18287 88.796254 
L 225.18287 88.269568 
L 225.640357 88.269568 
L 225.640357 87.742882 
L 225.894468 87.742882 
L 225.96061 86.68951 
L 226.089037 86.68951 
L 226.089037 86.162824 
L 226.441331 86.162824 
L 226.441331 85.636137 
L 226.708786 85.636137 
L 226.708786 85.109451 
L 226.891556 85.109451 
L 226.891556 84.582765 
L 227.043222 84.582765 
L 227.043222 84.056079 
L 227.229822 84.056079 
L 227.229822 83.529393 
L 227.39529 83.529393 
L 227.471386 82.476021 
L 227.884279 82.476021 
L 227.884279 81.949335 
L 228.120564 81.949335 
L 228.124122 80.895963 
L 228.325769 80.895963 
L 228.325769 80.369277 
L 228.537083 80.369277 
L 228.537083 79.842591 
L 228.754069 79.842591 
L 228.849331 78.789218 
L 228.891945 78.789218 
L 228.969894 77.20916 
L 229.019164 77.20916 
L 229.019164 76.682474 
L 229.174894 76.682474 
L 229.174894 76.155788 
L 229.424544 76.155788 
L 229.431882 75.102416 
L 229.760888 75.102416 
L 229.835057 74.049044 
L 229.995777 74.049044 
L 230.004476 72.995672 
L 230.18755 72.995672 
L 230.194924 71.942299 
L 230.488581 71.942299 
L 230.488581 71.415613 
L 230.653679 71.415613 
L 230.653679 70.888927 
L 230.800111 70.888927 
L 230.818752 69.835555 
L 230.918398 69.835555 
L 230.969185 68.782183 
L 231.25746 68.782183 
L 231.25746 68.255497 
L 231.393194 68.255497 
L 231.41776 67.202125 
L 231.716801 67.202125 
L 231.716801 66.675439 
L 231.833207 66.675439 
L 231.921196 65.622066 
L 231.955824 65.622066 
L 231.955824 65.09538 
L 232.122123 65.09538 
L 232.122123 64.568694 
L 232.523155 64.568694 
L 232.559981 62.988636 
L 232.689178 62.988636 
L 232.689178 62.46195 
L 232.82588 62.46195 
L 232.82588 61.935264 
L 233.037746 61.935264 
L 233.037746 61.408578 
L 233.354311 61.408578 
L 233.424469 60.355206 
L 233.541644 60.355206 
L 233.634273 58.775147 
L 233.850838 58.775147 
L 233.850838 58.248461 
L 234.154506 58.248461 
L 234.154506 57.721775 
L 234.639 57.721775 
L 234.739932 56.141717 
L 234.800024 56.141717 
L 234.825752 55.088345 
L 235.154967 55.088345 
L 235.190199 54.034973 
L 235.532844 54.034973 
L 235.622062 52.9816 
L 235.80334 52.9816 
L 235.836271 51.928228 
L 236.139253 51.928228 
L 236.139253 51.401542 
L 236.257945 51.401542 
L 236.343785 49.821484 
L 236.476411 49.821484 
L 236.476411 49.294798 
L 236.734936 49.294798 
L 236.734936 48.768112 
L 237.289334 48.768112 
L 237.289334 48.241426 
L 237.713182 48.241426 
L 237.713182 47.71474 
L 237.965038 47.71474 
L 237.965038 47.188054 
L 238.473608 47.188054 
L 238.550642 46.134681 
L 238.681158 46.134681 
L 238.681158 45.607995 
L 239.105532 45.607995 
L 239.105532 45.081309 
L 239.263939 45.081309 
L 239.358339 43.501251 
L 239.420921 43.501251 
L 239.420921 42.974565 
L 239.651886 42.974565 
L 239.651886 42.447879 
L 240.243908 42.447879 
L 240.243908 41.921193 
L 240.482794 41.921193 
L 240.507009 40.867821 
L 240.667299 40.867821 
L 240.755376 39.814448 
L 240.869587 39.814448 
L 240.974446 38.761076 
L 241.10903 38.761076 
L 241.10903 38.23439 
L 241.55166 38.23439 
L 241.55166 37.707704 
L 241.668973 37.707704 
L 241.668973 37.181018 
L 242.270708 37.181018 
L 242.320877 36.127646 
L 242.67494 36.127646 
L 242.67494 35.60096 
L 243.211313 35.60096 
L 243.211313 35.074274 
L 243.449195 35.074274 
L 243.449195 34.547588 
L 243.668156 34.547588 
L 243.668156 34.020902 
L 245.185734 34.020902 
L 245.185734 33.494215 
L 247.517119 33.494215 
L 247.517119 32.967529 
L 247.687338 32.967529 
L 247.687338 32.440843 
L 248.599569 32.440843 
L 248.599569 31.914157 
L 250.842423 31.914157 
L 250.842423 31.387471 
L 251.779787 31.387471 
L 251.779787 30.860785 
L 254.29349 30.860785 
L 254.29349 30.334099 
L 338.688 30.334099 
L 338.688 30.334099 
" style="fill:none;stroke:#0000ff;stroke-linecap:square;stroke-width:1.5;"/>
   </g>
   <g id="line2d_41">
    <defs>
     <path d="M 0 -6 
L -1.347084 -1.854102 
L -5.706339 -1.854102 
L -2.179628 0.708204 
L -3.526712 4.854102 
L -0 2.291796 
L 3.526712 4.854102 
L 2.179628 0.708204 
L 5.706339 -1.854102 
L 1.347084 -1.854102 
z
" id="mcf73f3e815" style="stroke:#0000ff;stroke-linejoin:bevel;stroke-width:1.5;"/>
    </defs>
    <g>
     <use style="fill-opacity:0;stroke:#0000ff;stroke-linejoin:bevel;stroke-width:1.5;" x="107.811151" xlink:href="#mcf73f3e815" y="258.915858"/>
     <use style="fill-opacity:0;stroke:#0000ff;stroke-linejoin:bevel;stroke-width:1.5;" x="200.980432" xlink:href="#mcf73f3e815" y="207.827308"/>
     <use style="fill-opacity:0;stroke:#0000ff;stroke-linejoin:bevel;stroke-width:1.5;" x="230.194924" xlink:href="#mcf73f3e815" y="72.468985"/>
     <use style="fill-opacity:0;stroke:#0000ff;stroke-linejoin:bevel;stroke-width:1.5;" x="254.29349" xlink:href="#mcf73f3e815" y="30.334099"/>
     <use style="fill-opacity:0;stroke:#0000ff;stroke-linejoin:bevel;stroke-width:1.5;" x="254.29349" xlink:href="#mcf73f3e815" y="30.334099"/>
     <use style="fill-opacity:0;stroke:#0000ff;stroke-linejoin:bevel;stroke-width:1.5;" x="338.688" xlink:href="#mcf73f3e815" y="30.334099"/>
    </g>
   </g>
   <g id="line2d_42">
    <path style="fill:none;stroke:#0000ff;stroke-linecap:square;stroke-width:1.5;"/>
    <g/>
   </g>
   <g id="line2d_43">
    <path clip-path="url(#paad2730f6c)" d="M 211.801106 140.938176 
" style="fill:none;stroke:#0000ff;stroke-linecap:square;stroke-width:1.5;"/>
    <defs>
     <path d="M -12 12 
L 12 -12 
M -12 -12 
L 12 12 
" id="m6a1aad1860" style="stroke:#0000ff;"/>
    </defs>
    <g clip-path="url(#paad2730f6c)">
     <use style="fill:#0000ff;stroke:#0000ff;" x="211.801106" xlink:href="#m6a1aad1860" y="140.938176"/>
    </g>
   </g>
   <g id="line2d_44">
    <defs>
     <path d="M 0 1.5 
C 0.397805 1.5 0.77937 1.341951 1.06066 1.06066 
C 1.341951 0.77937 1.5 0.397805 1.5 0 
C 1.5 -0.397805 1.341951 -0.77937 1.06066 -1.06066 
C 0.77937 -1.341951 0.397805 -1.5 0 -1.5 
C -0.397805 -1.5 -0.77937 -1.341951 -1.06066 -1.06066 
C -1.341951 -0.77937 -1.5 -0.397805 -1.5 0 
C -1.5 0.397805 -1.341951 0.77937 -1.06066 1.06066 
C -0.77937 1.341951 -0.397805 1.5 0 1.5 
z
" id="m81a47e9a64" style="stroke:#000000;"/>
    </defs>
    <g>
     <use style="stroke:#000000;" x="292.632448" xlink:href="#m81a47e9a64" y="193.606784"/>
     <use style="stroke:#000000;" x="292.632448" xlink:href="#m81a47e9a64" y="193.606784"/>
    </g>
   </g>
   <g id="line2d_45">
    <path d="M 17.444571 298.944 
L 17.444571 275.243126 
L 29.53256 275.243126 
L 29.53256 269.449579 
L 36.60358 269.449579 
L 36.60358 268.922893 
L 41.620548 268.922893 
L 41.620548 267.869521 
L 45.512012 267.869521 
L 45.512012 266.816149 
L 53.708537 266.816149 
L 53.708537 265.762777 
L 60.779557 265.762777 
L 60.779557 265.236091 
L 63.467834 265.236091 
L 63.467834 264.709405 
L 64.67102 264.709405 
L 64.67102 264.182719 
L 67.850577 264.182719 
L 67.850577 263.129347 
L 69.687988 263.129347 
L 69.687988 262.60266 
L 72.125336 262.60266 
L 72.125336 262.075974 
L 73.579452 262.075974 
L 73.579452 261.549288 
L 83.438118 261.549288 
L 83.438118 261.022602 
L 86.012784 261.022602 
L 86.012784 260.495916 
L 87.643811 260.495916 
L 87.643811 259.96923 
L 97.755429 259.96923 
L 97.755429 259.442544 
L 100.493461 259.442544 
L 100.493461 258.389172 
L 102.728744 258.389172 
L 102.728744 257.862486 
L 103.245502 257.862486 
L 103.245502 256.809114 
L 110.358901 256.809114 
L 110.358901 256.282427 
L 113.095487 256.282427 
L 113.095487 255.755741 
L 117.145424 255.755741 
L 117.145424 254.175683 
L 123.394238 254.175683 
L 123.394238 253.648997 
L 135.240011 253.648997 
L 135.240011 253.122311 
L 135.898175 253.122311 
L 135.898175 252.595625 
L 136.2853 252.595625 
L 136.2853 252.068939 
L 142.593291 252.068939 
L 142.593291 251.542253 
L 146.749392 251.542253 
L 146.749392 251.015567 
L 155.373976 251.015567 
L 155.373976 250.488881 
L 173.051642 250.488881 
L 173.051642 249.962195 
L 176.29077 249.962195 
L 176.29077 249.435508 
L 183.621158 249.435508 
L 183.621158 248.908822 
L 185.111709 248.908822 
L 185.111709 248.382136 
L 187.321087 248.382136 
L 187.321087 247.85545 
L 193.349084 247.85545 
L 193.349084 247.328764 
L 195.242598 247.328764 
L 195.242598 246.802078 
L 195.858787 246.802078 
L 195.858787 246.275392 
L 196.981188 246.275392 
L 196.981188 245.748706 
L 197.483223 245.748706 
L 197.483223 245.22202 
L 197.842072 245.22202 
L 197.842072 244.695334 
L 198.030703 244.695334 
L 198.030703 244.168648 
L 198.183234 244.168648 
L 198.199184 243.115275 
L 198.739367 243.115275 
L 198.739367 242.588589 
L 199.467447 242.588589 
L 199.467447 242.061903 
L 199.723699 242.061903 
L 199.723699 241.535217 
L 202.851464 241.535217 
L 202.851464 241.008531 
L 203.392819 241.008531 
L 203.392819 240.481845 
L 203.683032 240.481845 
L 203.683032 239.955159 
L 204.300577 239.955159 
L 204.300577 239.428473 
L 206.06768 239.428473 
L 206.06768 238.901787 
L 206.312086 238.901787 
L 206.312086 238.375101 
L 206.5572 238.375101 
L 206.579993 237.321729 
L 206.769346 237.321729 
L 206.769346 236.795043 
L 206.891333 236.795043 
L 206.97562 235.74167 
L 207.152197 235.74167 
L 207.260757 234.688298 
L 207.286894 234.688298 
L 207.286894 234.161612 
L 207.58533 234.161612 
L 207.58533 233.634926 
L 207.797452 233.634926 
L 207.797452 233.10824 
L 208.323968 233.10824 
L 208.323968 232.581554 
L 208.436195 232.581554 
L 208.436195 232.054868 
L 208.666651 232.054868 
L 208.666651 231.528182 
L 208.837442 231.528182 
L 208.837442 231.001496 
L 209.657486 231.001496 
L 209.705581 229.948123 
L 209.964534 229.948123 
L 209.964534 229.421437 
L 210.173281 229.421437 
L 210.173281 228.894751 
L 210.314088 228.894751 
L 210.314088 228.368065 
L 210.505963 228.368065 
L 210.533357 227.314693 
L 210.947657 227.314693 
L 210.947657 226.788007 
L 211.154182 226.788007 
L 211.154182 226.261321 
L 212.491871 226.261321 
L 212.491871 225.734635 
L 212.630597 225.734635 
L 212.630597 225.207949 
L 212.880874 225.207949 
L 212.880874 224.681263 
L 213.926248 224.681263 
L 213.926248 224.154577 
L 214.679869 224.154577 
L 214.679869 223.627891 
L 215.625506 223.627891 
L 215.625506 223.101204 
L 216.292797 223.101204 
L 216.292797 222.574518 
L 216.749582 222.574518 
L 216.749582 222.047832 
L 217.459051 222.047832 
L 217.459051 221.521146 
L 218.964454 221.521146 
L 218.964454 220.99446 
L 222.738706 220.99446 
L 222.738706 220.467774 
L 222.961784 220.467774 
L 223.049402 219.414402 
L 224.447832 219.414402 
L 224.498037 218.36103 
L 224.62715 218.36103 
L 224.62715 217.834344 
L 227.152454 217.834344 
L 227.152454 217.307658 
L 228.413674 217.307658 
L 228.413674 216.780971 
L 228.711594 216.780971 
L 228.808704 215.727599 
L 228.942661 215.727599 
L 228.942661 215.200913 
L 229.778067 215.200913 
L 229.778067 214.674227 
L 231.511447 214.674227 
L 231.581708 213.620855 
L 237.630802 213.620855 
L 237.630802 213.094169 
L 239.912844 213.094169 
L 239.912844 212.567483 
L 240.724451 212.567483 
L 240.724451 212.040797 
L 241.340877 212.040797 
L 241.340877 211.514111 
L 241.596727 211.514111 
L 241.596727 210.987425 
L 242.783338 210.987425 
L 242.790884 209.934052 
L 243.875872 209.934052 
L 243.875872 209.407366 
L 245.292308 209.407366 
L 245.292308 208.88068 
L 246.245292 208.88068 
L 246.245292 208.353994 
L 246.39424 208.353994 
L 246.39424 207.827308 
L 249.979144 207.827308 
L 249.979144 207.300622 
L 250.832534 207.300622 
L 250.832534 206.773936 
L 253.052403 206.773936 
L 253.052403 206.24725 
L 253.792066 206.24725 
L 253.792066 205.720564 
L 254.041472 205.720564 
L 254.07275 204.667192 
L 254.174085 204.667192 
L 254.174085 204.140506 
L 254.525005 204.140506 
L 254.525005 203.613819 
L 255.329153 203.613819 
L 255.329153 203.087133 
L 255.674417 203.087133 
L 255.674417 202.560447 
L 257.64968 202.560447 
L 257.64968 202.033761 
L 258.761868 202.033761 
L 258.761868 201.507075 
L 260.20094 201.507075 
L 260.20094 200.980389 
L 262.270085 200.980389 
L 262.270085 200.453703 
L 265.280007 200.453703 
L 265.280007 199.927017 
L 267.691133 199.927017 
L 267.691133 199.400331 
L 268.969577 199.400331 
L 268.969577 198.873645 
L 269.209917 198.873645 
L 269.209917 198.346959 
L 269.367562 198.346959 
L 269.367562 197.820273 
L 269.639619 197.820273 
L 269.639619 197.293586 
L 273.277777 197.293586 
L 273.277777 196.7669 
L 275.566762 196.7669 
L 275.566762 196.240214 
L 277.202091 196.240214 
L 277.202091 195.713528 
L 277.319988 195.713528 
L 277.319988 195.186842 
L 280.161199 195.186842 
L 280.161199 194.660156 
L 283.009583 194.660156 
L 283.009583 194.13347 
L 292.632448 194.13347 
L 292.632448 193.606784 
L 338.688 193.606784 
L 338.688 193.606784 
" style="fill:none;stroke:#000000;stroke-linecap:square;stroke-width:1.5;"/>
   </g>
   <g id="line2d_46">
    <defs>
     <path d="M 0 6 
C 1.591219 6 3.117479 5.367802 4.242641 4.242641 
C 5.367802 3.117479 6 1.591219 6 0 
C 6 -1.591219 5.367802 -3.117479 4.242641 -4.242641 
C 3.117479 -5.367802 1.591219 -6 0 -6 
C -1.591219 -6 -3.117479 -5.367802 -4.242641 -4.242641 
C -5.367802 -3.117479 -6 -1.591219 -6 0 
C -6 1.591219 -5.367802 3.117479 -4.242641 4.242641 
C -3.117479 5.367802 -1.591219 6 0 6 
z
" id="m4425dca332" style="stroke:#000000;stroke-width:1.5;"/>
    </defs>
    <g>
     <use style="fill-opacity:0;stroke:#000000;stroke-width:1.5;" x="123.394238" xlink:href="#m4425dca332" y="254.175683"/>
     <use style="fill-opacity:0;stroke:#000000;stroke-width:1.5;" x="198.183234" xlink:href="#m4425dca332" y="244.168648"/>
     <use style="fill-opacity:0;stroke:#000000;stroke-width:1.5;" x="262.270085" xlink:href="#m4425dca332" y="200.453703"/>
     <use style="fill-opacity:0;stroke:#000000;stroke-width:1.5;" x="292.632448" xlink:href="#m4425dca332" y="193.606784"/>
     <use style="fill-opacity:0;stroke:#000000;stroke-width:1.5;" x="338.688" xlink:href="#m4425dca332" y="193.606784"/>
    </g>
   </g>
   <g id="line2d_47">
    <path style="fill:none;stroke:#000000;stroke-linecap:square;stroke-width:1.5;"/>
    <g/>
   </g>
   <g id="line2d_48">
    <path clip-path="url(#paad2730f6c)" d="M 217.833767 221.521146 
" style="fill:none;stroke:#000000;stroke-linecap:square;stroke-width:1.5;"/>
    <defs>
     <path d="M -12 12 
L 12 -12 
M -12 -12 
L 12 12 
" id="m3222a384d2" style="stroke:#000000;"/>
    </defs>
    <g clip-path="url(#paad2730f6c)">
     <use style="stroke:#000000;" x="217.833767" xlink:href="#m3222a384d2" y="221.521146"/>
    </g>
   </g>
   <g id="line2d_49">
    <defs>
     <path d="M 0 1.5 
C 0.397805 1.5 0.77937 1.341951 1.06066 1.06066 
C 1.341951 0.77937 1.5 0.397805 1.5 0 
C 1.5 -0.397805 1.341951 -0.77937 1.06066 -1.06066 
C 0.77937 -1.341951 0.397805 -1.5 0 -1.5 
C -0.397805 -1.5 -0.77937 -1.341951 -1.06066 -1.06066 
C -1.341951 -0.77937 -1.5 -0.397805 -1.5 0 
C -1.5 0.397805 -1.341951 0.77937 -1.06066 1.06066 
C -0.77937 1.341951 -0.397805 1.5 0 1.5 
z
" id="mf885b06133" style="stroke:#ff0000;"/>
    </defs>
    <g>
     <use style="fill:#ff0000;stroke:#ff0000;" x="280.040285" xlink:href="#mf885b06133" y="193.606784"/>
     <use style="fill:#ff0000;stroke:#ff0000;" x="280.040285" xlink:href="#mf885b06133" y="193.606784"/>
    </g>
   </g>
   <g id="line2d_50">
    <path d="M 5.356583 298.944 
L 5.356583 274.71644 
L 17.444571 274.71644 
L 17.444571 273.136382 
L 24.515591 273.136382 
L 24.515591 270.502952 
L 29.53256 270.502952 
L 29.53256 269.976266 
L 36.60358 269.976266 
L 36.60358 268.922893 
L 41.620548 268.922893 
L 41.620548 266.816149 
L 47.174153 266.816149 
L 47.174153 266.289463 
L 56.705482 266.289463 
L 56.705482 265.762777 
L 64.67102 265.762777 
L 64.67102 265.236091 
L 65.242851 265.236091 
L 65.242851 264.709405 
L 65.796525 264.709405 
L 65.796525 264.182719 
L 68.79347 264.182719 
L 68.79347 263.656033 
L 70.538854 263.656033 
L 70.538854 263.129347 
L 70.949209 263.129347 
L 70.949209 262.60266 
L 91.029752 262.60266 
L 91.029752 262.075974 
L 93.972622 262.075974 
L 93.972622 261.549288 
L 94.714831 261.549288 
L 94.714831 261.022602 
L 98.771596 261.022602 
L 98.771596 260.495916 
L 111.936179 260.495916 
L 111.936179 259.96923 
L 116.019919 259.96923 
L 116.019919 259.442544 
L 121.036887 259.442544 
L 121.036887 258.915858 
L 122.169562 258.915858 
L 122.169562 258.389172 
L 122.926996 258.389172 
L 122.926996 257.862486 
L 123.494177 257.862486 
L 123.494177 257.3358 
L 134.745246 257.3358 
L 134.745246 256.809114 
L 158.249784 256.809114 
L 158.249784 256.282427 
L 158.795307 256.282427 
L 158.795307 255.755741 
L 163.313547 255.755741 
L 163.313547 255.229055 
L 163.715253 255.229055 
L 163.715253 254.702369 
L 164.635664 254.702369 
L 164.635664 254.175683 
L 175.066125 254.175683 
L 175.066125 253.648997 
L 176.428281 253.648997 
L 176.428281 253.122311 
L 178.896378 253.122311 
L 178.896378 252.595625 
L 186.168822 252.595625 
L 186.168822 252.068939 
L 193.107474 252.068939 
L 193.107474 251.542253 
L 193.452955 251.542253 
L 193.452955 251.015567 
L 194.059683 251.015567 
L 194.059683 250.488881 
L 197.241854 250.488881 
L 197.241854 249.962195 
L 197.854972 249.962195 
L 197.854972 249.435508 
L 198.091931 249.435508 
L 198.091931 248.908822 
L 200.94947 248.908822 
L 200.94947 248.382136 
L 201.486704 248.382136 
L 201.486704 247.85545 
L 202.121515 247.85545 
L 202.121515 247.328764 
L 202.482354 247.328764 
L 202.482354 246.802078 
L 203.001748 246.802078 
L 203.041565 245.748706 
L 203.500644 245.748706 
L 203.500644 245.22202 
L 203.722726 245.22202 
L 203.773715 243.115275 
L 203.948738 243.115275 
L 203.948738 242.588589 
L 204.120456 242.588589 
L 204.230113 240.481845 
L 204.45679 240.481845 
L 204.549087 239.428473 
L 204.568747 239.428473 
L 204.598481 238.375101 
L 204.805966 238.375101 
L 204.805966 237.848415 
L 204.988491 237.848415 
L 205.095431 236.795043 
L 205.184417 236.795043 
L 205.250769 235.214984 
L 205.439976 235.214984 
L 205.439976 234.688298 
L 205.816959 234.688298 
L 205.816959 234.161612 
L 206.148891 234.161612 
L 206.148891 233.634926 
L 206.48095 233.634926 
L 206.48095 233.10824 
L 206.592737 233.10824 
L 206.592737 232.581554 
L 206.737032 232.581554 
L 206.737032 232.054868 
L 207.320977 232.054868 
L 207.384074 231.001496 
L 207.444031 231.001496 
L 207.444031 230.47481 
L 207.651636 230.47481 
L 207.651636 229.948123 
L 207.944417 229.948123 
L 207.944417 229.421437 
L 208.224323 229.421437 
L 208.224323 228.894751 
L 208.755707 228.894751 
L 208.755707 228.368065 
L 208.878166 228.368065 
L 208.883083 227.314693 
L 209.125971 227.314693 
L 209.168226 226.261321 
L 209.333907 226.261321 
L 209.338987 225.207949 
L 209.451377 225.207949 
L 209.451377 224.681263 
L 209.626397 224.681263 
L 209.626397 224.154577 
L 209.737806 224.154577 
L 209.76445 223.101204 
L 209.884832 223.101204 
L 209.899593 222.047832 
L 210.077428 222.047832 
L 210.156811 220.99446 
L 210.461798 220.99446 
L 210.461798 220.467774 
L 210.671165 220.467774 
L 210.671165 219.941088 
L 210.84174 219.941088 
L 210.84174 219.414402 
L 211.317011 219.414402 
L 211.317011 218.887716 
L 212.60667 218.887716 
L 212.60667 218.36103 
L 213.124223 218.36103 
L 213.124223 217.834344 
L 217.806195 217.834344 
L 217.806195 217.307658 
L 218.453849 217.307658 
L 218.453849 216.780971 
L 219.07449 216.780971 
L 219.07449 216.254285 
L 219.229078 216.254285 
L 219.323715 215.200913 
L 219.672837 215.200913 
L 219.672837 214.674227 
L 219.854819 214.674227 
L 219.854819 214.147541 
L 221.377421 214.147541 
L 221.377421 213.620855 
L 221.518591 213.620855 
L 221.518591 213.094169 
L 221.989549 213.094169 
L 221.989549 212.567483 
L 222.837691 212.567483 
L 222.911147 211.514111 
L 223.591718 211.514111 
L 223.591718 210.987425 
L 223.836534 210.987425 
L 223.836534 210.460738 
L 224.118983 210.460738 
L 224.118983 209.934052 
L 228.600097 209.934052 
L 228.600097 209.407366 
L 230.057857 209.407366 
L 230.057857 208.88068 
L 233.40681 208.88068 
L 233.40681 208.353994 
L 233.839019 208.353994 
L 233.839019 207.827308 
L 235.776242 207.827308 
L 235.776242 207.300622 
L 236.474146 207.300622 
L 236.474146 206.773936 
L 237.981866 206.773936 
L 237.981866 206.24725 
L 239.071958 206.24725 
L 239.071958 205.720564 
L 240.96193 205.720564 
L 240.96193 205.193878 
L 246.592113 205.193878 
L 246.592113 204.667192 
L 248.857411 204.667192 
L 248.857411 204.140506 
L 249.079575 204.140506 
L 249.079575 203.613819 
L 249.451554 203.613819 
L 249.451554 203.087133 
L 250.69896 203.087133 
L 250.69896 202.560447 
L 250.943714 202.560447 
L 250.943714 202.033761 
L 254.000222 202.033761 
L 254.000222 201.507075 
L 254.964299 201.507075 
L 254.964299 200.980389 
L 255.307507 200.980389 
L 255.307507 200.453703 
L 256.122783 200.453703 
L 256.122783 199.927017 
L 257.831252 199.927017 
L 257.831252 199.400331 
L 263.441508 199.400331 
L 263.441508 198.873645 
L 267.40467 198.873645 
L 267.40467 198.346959 
L 269.330206 198.346959 
L 269.330206 197.820273 
L 269.460213 197.820273 
L 269.460213 197.293586 
L 269.671172 197.293586 
L 269.671172 196.7669 
L 272.14104 196.7669 
L 272.14104 196.240214 
L 272.763627 196.240214 
L 272.763627 195.713528 
L 276.1467 195.713528 
L 276.1467 195.186842 
L 276.615626 195.186842 
L 276.615626 194.660156 
L 276.971898 194.660156 
L 276.971898 194.13347 
L 280.040285 194.13347 
L 280.040285 193.606784 
L 338.688 193.606784 
L 338.688 193.606784 
" style="fill:none;stroke:#ff0000;stroke-linecap:square;stroke-width:1.5;"/>
   </g>
   <g id="line2d_51">
    <defs>
     <path d="M -6 6 
L 6 6 
L 6 -6 
L -6 -6 
z
" id="me60ac699b4" style="stroke:#ff0000;stroke-linejoin:miter;stroke-width:1.5;"/>
    </defs>
    <g>
     <use style="fill-opacity:0;stroke:#ff0000;stroke-linejoin:miter;stroke-width:1.5;" x="70.949209" xlink:href="#me60ac699b4" y="263.129347"/>
     <use style="fill-opacity:0;stroke:#ff0000;stroke-linejoin:miter;stroke-width:1.5;" x="164.635664" xlink:href="#me60ac699b4" y="254.702369"/>
     <use style="fill-opacity:0;stroke:#ff0000;stroke-linejoin:miter;stroke-width:1.5;" x="240.96193" xlink:href="#me60ac699b4" y="205.720564"/>
     <use style="fill-opacity:0;stroke:#ff0000;stroke-linejoin:miter;stroke-width:1.5;" x="280.040285" xlink:href="#me60ac699b4" y="194.13347"/>
     <use style="fill-opacity:0;stroke:#ff0000;stroke-linejoin:miter;stroke-width:1.5;" x="280.040285" xlink:href="#me60ac699b4" y="193.606784"/>
     <use style="fill-opacity:0;stroke:#ff0000;stroke-linejoin:miter;stroke-width:1.5;" x="338.688" xlink:href="#me60ac699b4" y="193.606784"/>
    </g>
   </g>
   <g id="line2d_52">
    <path style="fill:none;stroke:#ff0000;stroke-linecap:square;stroke-width:1.5;"/>
    <g/>
   </g>
   <g id="line2d_53">
    <path clip-path="url(#paad2730f6c)" d="M 216.634401 217.834344 
" style="fill:none;stroke:#ff0000;stroke-linecap:square;stroke-width:1.5;"/>
    <defs>
     <path d="M -12 12 
L 12 -12 
M -12 -12 
L 12 12 
" id="m4e5421bc1f" style="stroke:#ff0000;"/>
    </defs>
    <g clip-path="url(#paad2730f6c)">
     <use style="fill:#ff0000;stroke:#ff0000;" x="216.634401" xlink:href="#m4e5421bc1f" y="217.834344"/>
    </g>
   </g>
   <g id="line2d_54">
    <path d="M 338.688 193.606784 
L 369.60768 293.571802 
" style="fill:none;stroke:#000000;stroke-linecap:square;stroke-width:1.5;"/>
    <g>
     <use style="fill-opacity:0;stroke:#000000;stroke-width:1.5;" x="338.688" xlink:href="#m4425dca332" y="193.606784"/>
     <use style="fill-opacity:0;stroke:#000000;stroke-width:1.5;" x="369.60768" xlink:href="#m4425dca332" y="293.571802"/>
    </g>
   </g>
   <g id="line2d_55">
    <path d="M 338.688 193.606784 
L 369.60768 229.105426 
" style="fill:none;stroke:#ff0000;stroke-linecap:square;stroke-width:1.5;"/>
    <g>
     <use style="fill-opacity:0;stroke:#ff0000;stroke-linejoin:miter;stroke-width:1.5;" x="338.688" xlink:href="#me60ac699b4" y="193.606784"/>
     <use style="fill-opacity:0;stroke:#ff0000;stroke-linejoin:miter;stroke-width:1.5;" x="369.60768" xlink:href="#me60ac699b4" y="229.105426"/>
    </g>
   </g>
   <g id="line2d_56">
    <path d="M 338.688 30.334099 
L 369.60768 164.63905 
" style="fill:none;stroke:#0000ff;stroke-linecap:square;stroke-width:1.5;"/>
    <g>
     <use style="fill-opacity:0;stroke:#0000ff;stroke-linejoin:bevel;stroke-width:1.5;" x="338.688" xlink:href="#mcf73f3e815" y="30.334099"/>
     <use style="fill-opacity:0;stroke:#0000ff;stroke-linejoin:bevel;stroke-width:1.5;" x="369.60768" xlink:href="#mcf73f3e815" y="164.63905"/>
    </g>
   </g>
   <g id="line2d_57">
    <path d="M 338.688 30.334099 
L 369.60768 100.172673 
" style="fill:none;stroke:#00bfbf;stroke-linecap:square;stroke-width:1.5;"/>
    <g>
     <use style="fill-opacity:0;stroke:#00bfbf;stroke-width:1.5;" x="338.688" xlink:href="#m35cdb5f946" y="30.334099"/>
     <use style="fill-opacity:0;stroke:#00bfbf;stroke-width:1.5;" x="369.60768" xlink:href="#m35cdb5f946" y="100.172673"/>
    </g>
   </g>
   <g id="line2d_58">
    <path d="M 338.688 30.334099 
L 369.60768 35.706297 
" style="fill:none;stroke:#008000;stroke-linecap:square;stroke-width:1.5;"/>
    <g>
     <use style="fill-opacity:0;stroke:#008000;stroke-linejoin:miter;stroke-width:1.5;" x="338.688" xlink:href="#m48276b6d37" y="30.334099"/>
     <use style="fill-opacity:0;stroke:#008000;stroke-linejoin:miter;stroke-width:1.5;" x="369.60768" xlink:href="#m48276b6d37" y="35.706297"/>
    </g>
   </g>
   <g id="line2d_59">
    <path d="M 338.688 298.944 
L 338.688 30.334099 
" style="fill:none;stroke:#000000;stroke-linecap:square;stroke-width:1.5;"/>
   </g>
   <g id="patch_3">
    <path d="M 57.6 298.944 
L 57.6 27.648 
" style="fill:none;stroke:#000000;stroke-linecap:square;stroke-linejoin:miter;stroke-width:0.8;"/>
   </g>
   <g id="patch_4">
    <path d="M 338.688 298.944 
L 338.688 27.648 
" style="fill:none;stroke:#000000;stroke-linecap:square;stroke-linejoin:miter;stroke-width:0.8;"/>
   </g>
   <g id="patch_5">
    <path d="M 57.6 298.944 
L 338.688 298.944 
" style="fill:none;stroke:#000000;stroke-linecap:square;stroke-linejoin:miter;stroke-width:0.8;"/>
   </g>
   <g id="patch_6">
    <path d="M 57.6 27.648 
L 338.688 27.648 
" style="fill:none;stroke:#000000;stroke-linecap:square;stroke-linejoin:miter;stroke-width:0.8;"/>
   </g>
   <g id="text_13">
    <!-- 10-D -->
    <g transform="translate(375.22944 298.262739)scale(0.17 -0.17)">
     <defs>
      <path d="M 1259 4147 
L 1259 519 
L 2022 519 
Q 2988 519 3436 956 
Q 3884 1394 3884 2338 
Q 3884 3275 3436 3711 
Q 2988 4147 2022 4147 
L 1259 4147 
z
M 628 4666 
L 1925 4666 
Q 3281 4666 3915 4102 
Q 4550 3538 4550 2338 
Q 4550 1131 3912 565 
Q 3275 0 1925 0 
L 628 0 
L 628 4666 
z
" id="DejaVuSans-44" transform="scale(0.015625)"/>
     </defs>
     <use xlink:href="#DejaVuSans-31"/>
     <use x="63.623047" xlink:href="#DejaVuSans-30"/>
     <use x="127.246094" xlink:href="#DejaVuSans-2d"/>
     <use x="163.330078" xlink:href="#DejaVuSans-44"/>
    </g>
   </g>
   <g id="text_14">
    <!-- 20-D -->
    <g transform="translate(375.22944 233.796363)scale(0.17 -0.17)">
     <use xlink:href="#DejaVuSans-32"/>
     <use x="63.623047" xlink:href="#DejaVuSans-30"/>
     <use x="127.246094" xlink:href="#DejaVuSans-2d"/>
     <use x="163.330078" xlink:href="#DejaVuSans-44"/>
    </g>
   </g>
   <g id="text_15">
    <!-- 5-D -->
    <g transform="translate(375.22944 169.329987)scale(0.17 -0.17)">
     <defs>
      <path d="M 691 4666 
L 3169 4666 
L 3169 4134 
L 1269 4134 
L 1269 2991 
Q 1406 3038 1543 3061 
Q 1681 3084 1819 3084 
Q 2600 3084 3056 2656 
Q 3513 2228 3513 1497 
Q 3513 744 3044 326 
Q 2575 -91 1722 -91 
Q 1428 -91 1123 -41 
Q 819 9 494 109 
L 494 744 
Q 775 591 1075 516 
Q 1375 441 1709 441 
Q 2250 441 2565 725 
Q 2881 1009 2881 1497 
Q 2881 1984 2565 2268 
Q 2250 2553 1709 2553 
Q 1456 2553 1204 2497 
Q 953 2441 691 2322 
L 691 4666 
z
" id="DejaVuSans-35" transform="scale(0.015625)"/>
     </defs>
     <use xlink:href="#DejaVuSans-35"/>
     <use x="63.623047" xlink:href="#DejaVuSans-2d"/>
     <use x="99.707031" xlink:href="#DejaVuSans-44"/>
    </g>
   </g>
   <g id="text_16">
    <!-- 2-D -->
    <g transform="translate(375.22944 104.863611)scale(0.17 -0.17)">
     <use xlink:href="#DejaVuSans-32"/>
     <use x="63.623047" xlink:href="#DejaVuSans-2d"/>
     <use x="99.707031" xlink:href="#DejaVuSans-44"/>
    </g>
   </g>
   <g id="text_17">
    <!-- 3-D -->
    <g transform="translate(375.22944 40.397235)scale(0.17 -0.17)">
     <defs>
      <path d="M 2597 2516 
Q 3050 2419 3304 2112 
Q 3559 1806 3559 1356 
Q 3559 666 3084 287 
Q 2609 -91 1734 -91 
Q 1441 -91 1130 -33 
Q 819 25 488 141 
L 488 750 
Q 750 597 1062 519 
Q 1375 441 1716 441 
Q 2309 441 2620 675 
Q 2931 909 2931 1356 
Q 2931 1769 2642 2001 
Q 2353 2234 1838 2234 
L 1294 2234 
L 1294 2753 
L 1863 2753 
Q 2328 2753 2575 2939 
Q 2822 3125 2822 3475 
Q 2822 3834 2567 4026 
Q 2313 4219 1838 4219 
Q 1578 4219 1281 4162 
Q 984 4106 628 3988 
L 628 4550 
Q 988 4650 1302 4700 
Q 1616 4750 1894 4750 
Q 2613 4750 3031 4423 
Q 3450 4097 3450 3541 
Q 3450 3153 3228 2886 
Q 3006 2619 2597 2516 
z
" id="DejaVuSans-33" transform="scale(0.015625)"/>
     </defs>
     <use xlink:href="#DejaVuSans-33"/>
     <use x="63.623047" xlink:href="#DejaVuSans-2d"/>
     <use x="99.707031" xlink:href="#DejaVuSans-44"/>
    </g>
   </g>
   <g id="text_18">
    <!-- bbob f23 -->
    <g transform="translate(60.41088 38.111366)scale(0.102 -0.102)">
     <defs>
      <path d="M 3116 1747 
Q 3116 2381 2855 2742 
Q 2594 3103 2138 3103 
Q 1681 3103 1420 2742 
Q 1159 2381 1159 1747 
Q 1159 1113 1420 752 
Q 1681 391 2138 391 
Q 2594 391 2855 752 
Q 3116 1113 3116 1747 
z
M 1159 2969 
Q 1341 3281 1617 3432 
Q 1894 3584 2278 3584 
Q 2916 3584 3314 3078 
Q 3713 2572 3713 1747 
Q 3713 922 3314 415 
Q 2916 -91 2278 -91 
Q 1894 -91 1617 61 
Q 1341 213 1159 525 
L 1159 0 
L 581 0 
L 581 4863 
L 1159 4863 
L 1159 2969 
z
" id="DejaVuSans-62" transform="scale(0.015625)"/>
     </defs>
     <use xlink:href="#DejaVuSans-62"/>
     <use x="63.476562" xlink:href="#DejaVuSans-62"/>
     <use x="126.953125" xlink:href="#DejaVuSans-6f"/>
     <use x="188.134766" xlink:href="#DejaVuSans-62"/>
     <use x="251.611328" xlink:href="#DejaVuSans-20"/>
     <use x="283.398438" xlink:href="#DejaVuSans-66"/>
     <use x="318.603516" xlink:href="#DejaVuSans-32"/>
     <use x="382.226562" xlink:href="#DejaVuSans-33"/>
    </g>
    <!-- 51 targets: 100..1e-08 -->
    <g transform="translate(60.41088 49.533135)scale(0.102 -0.102)">
     <defs>
      <path d="M 750 794 
L 1409 794 
L 1409 0 
L 750 0 
L 750 794 
z
M 750 3309 
L 1409 3309 
L 1409 2516 
L 750 2516 
L 750 3309 
z
" id="DejaVuSans-3a" transform="scale(0.015625)"/>
     </defs>
     <use xlink:href="#DejaVuSans-35"/>
     <use x="63.623047" xlink:href="#DejaVuSans-31"/>
     <use x="127.246094" xlink:href="#DejaVuSans-20"/>
     <use x="159.033203" xlink:href="#DejaVuSans-74"/>
     <use x="198.242188" xlink:href="#DejaVuSans-61"/>
     <use x="259.521484" xlink:href="#DejaVuSans-72"/>
     <use x="298.884766" xlink:href="#DejaVuSans-67"/>
     <use x="362.361328" xlink:href="#DejaVuSans-65"/>
     <use x="423.884766" xlink:href="#DejaVuSans-74"/>
     <use x="463.09375" xlink:href="#DejaVuSans-73"/>
     <use x="515.193359" xlink:href="#DejaVuSans-3a"/>
     <use x="548.884766" xlink:href="#DejaVuSans-20"/>
     <use x="580.671875" xlink:href="#DejaVuSans-31"/>
     <use x="644.294922" xlink:href="#DejaVuSans-30"/>
     <use x="707.917969" xlink:href="#DejaVuSans-30"/>
     <use x="771.541016" xlink:href="#DejaVuSans-2e"/>
     <use x="803.328125" xlink:href="#DejaVuSans-2e"/>
     <use x="835.115234" xlink:href="#DejaVuSans-31"/>
     <use x="898.738281" xlink:href="#DejaVuSans-65"/>
     <use x="960.261719" xlink:href="#DejaVuSans-2d"/>
     <use x="996.345703" xlink:href="#DejaVuSans-30"/>
     <use x="1059.96875" xlink:href="#DejaVuSans-38"/>
    </g>
    <!-- 15 instances -->
    <g transform="translate(60.41088 60.954904)scale(0.102 -0.102)">
     <use xlink:href="#DejaVuSans-31"/>
     <use x="63.623047" xlink:href="#DejaVuSans-35"/>
     <use x="127.246094" xlink:href="#DejaVuSans-20"/>
     <use x="159.033203" xlink:href="#DejaVuSans-69"/>
     <use x="186.816406" xlink:href="#DejaVuSans-6e"/>
     <use x="250.195312" xlink:href="#DejaVuSans-73"/>
     <use x="302.294922" xlink:href="#DejaVuSans-74"/>
     <use x="341.503906" xlink:href="#DejaVuSans-61"/>
     <use x="402.783203" xlink:href="#DejaVuSans-6e"/>
     <use x="466.162109" xlink:href="#DejaVuSans-63"/>
     <use x="521.142578" xlink:href="#DejaVuSans-65"/>
     <use x="582.666016" xlink:href="#DejaVuSans-73"/>
    </g>
   </g>
   <g id="text_19">
    <!-- v2.4 -->
    <g style="fill:#808080;" transform="translate(187.233062 294.151352)scale(0.1 -0.1)">
     <use xlink:href="#DejaVuSans-76"/>
     <use x="59.179688" xlink:href="#DejaVuSans-32"/>
     <use x="122.802734" xlink:href="#DejaVuSans-2e"/>
     <use x="154.589844" xlink:href="#DejaVuSans-34"/>
    </g>
   </g>
   <g id="text_20">
    <!-- 23 Katsuuras -->
    <g transform="translate(132.476812 21.648)scale(0.2 -0.2)">
     <defs>
      <path d="M 628 4666 
L 1259 4666 
L 1259 2694 
L 3353 4666 
L 4166 4666 
L 1850 2491 
L 4331 0 
L 3500 0 
L 1259 2247 
L 1259 0 
L 628 0 
L 628 4666 
z
" id="DejaVuSans-4b" transform="scale(0.015625)"/>
     </defs>
     <use xlink:href="#DejaVuSans-32"/>
     <use x="63.623047" xlink:href="#DejaVuSans-33"/>
     <use x="127.246094" xlink:href="#DejaVuSans-20"/>
     <use x="159.033203" xlink:href="#DejaVuSans-4b"/>
     <use x="222.859375" xlink:href="#DejaVuSans-61"/>
     <use x="284.138672" xlink:href="#DejaVuSans-74"/>
     <use x="323.347656" xlink:href="#DejaVuSans-73"/>
     <use x="375.447266" xlink:href="#DejaVuSans-75"/>
     <use x="438.826172" xlink:href="#DejaVuSans-75"/>
     <use x="502.205078" xlink:href="#DejaVuSans-72"/>
     <use x="543.318359" xlink:href="#DejaVuSans-61"/>
     <use x="604.597656" xlink:href="#DejaVuSans-73"/>
    </g>
   </g>
  </g>
 </g>
 <defs>
  <clipPath id="paad2730f6c">
   <rect height="271.296" width="281.088" x="57.6" y="27.648"/>
  </clipPath>
 </defs>
</svg>
