<?xml version="1.0" encoding="utf-8" standalone="no"?>
<!DOCTYPE svg PUBLIC "-//W3C//DTD SVG 1.1//EN"
  "http://www.w3.org/Graphics/SVG/1.1/DTD/svg11.dtd">
<svg height="345.6pt" version="1.1" viewBox="0 0 460.8 345.6" width="460.8pt" xmlns="http://www.w3.org/2000/svg" xmlns:xlink="http://www.w3.org/1999/xlink">
 <metadata>
  <rdf:RDF xmlns:cc="http://creativecommons.org/ns#" xmlns:dc="http://purl.org/dc/elements/1.1/" xmlns:rdf="http://www.w3.org/1999/02/22-rdf-syntax-ns#">
   <cc:Work>
    <dc:type rdf:resource="http://purl.org/dc/dcmitype/StillImage"/>
    <dc:date>2021-07-27T16:03:49.964450</dc:date>
    <dc:format>image/svg+xml</dc:format>
    <dc:creator>
     <cc:Agent>
      <dc:title>Matplotlib v3.4.2, https://matplotlib.org/</dc:title>
     </cc:Agent>
    </dc:creator>
   </cc:Work>
  </rdf:RDF>
 </metadata>
 <defs>
  <style type="text/css">*{stroke-linecap:butt;stroke-linejoin:round;}</style>
 </defs>
 <g id="figure_1">
  <g id="patch_1">
   <path d="M 0 345.6 
L 460.8 345.6 
L 460.8 0 
L 0 0 
z
" style="fill:#ffffff;"/>
  </g>
  <g id="axes_1">
   <g id="patch_2">
    <path d="M 57.6 298.944 
L 338.688 298.944 
L 338.688 27.648 
L 57.6 27.648 
z
" style="fill:#ffffff;"/>
   </g>
   <g id="matplotlib.axis_1">
    <g id="xtick_1">
     <g id="line2d_1">
      <path clip-path="url(#p070cb4a0f8)" d="M 57.6 298.944 
L 57.6 27.648 
" style="fill:none;stroke:#b0b0b0;stroke-linecap:square;stroke-width:0.8;"/>
     </g>
     <g id="line2d_2">
      <defs>
       <path d="M 0 0 
L 0 3.5 
" id="mb88ac44ea2" style="stroke:#000000;stroke-width:0.8;"/>
      </defs>
      <g>
       <use style="stroke:#000000;stroke-width:0.8;" x="57.6" xlink:href="#mb88ac44ea2" y="298.944"/>
      </g>
     </g>
     <g id="text_1">
      <!-- 0 -->
      <g transform="translate(51.2375 321.140875)scale(0.2 -0.2)">
       <defs>
        <path d="M 2034 4250 
Q 1547 4250 1301 3770 
Q 1056 3291 1056 2328 
Q 1056 1369 1301 889 
Q 1547 409 2034 409 
Q 2525 409 2770 889 
Q 3016 1369 3016 2328 
Q 3016 3291 2770 3770 
Q 2525 4250 2034 4250 
z
M 2034 4750 
Q 2819 4750 3233 4129 
Q 3647 3509 3647 2328 
Q 3647 1150 3233 529 
Q 2819 -91 2034 -91 
Q 1250 -91 836 529 
Q 422 1150 422 2328 
Q 422 3509 836 4129 
Q 1250 4750 2034 4750 
z
" id="DejaVuSans-30" transform="scale(0.015625)"/>
       </defs>
       <use xlink:href="#DejaVuSans-30"/>
      </g>
     </g>
    </g>
    <g id="xtick_2">
     <g id="line2d_3">
      <path clip-path="url(#p070cb4a0f8)" d="M 137.910857 298.944 
L 137.910857 27.648 
" style="fill:none;stroke:#b0b0b0;stroke-linecap:square;stroke-width:0.8;"/>
     </g>
     <g id="line2d_4">
      <g>
       <use style="stroke:#000000;stroke-width:0.8;" x="137.910857" xlink:href="#mb88ac44ea2" y="298.944"/>
      </g>
     </g>
     <g id="text_2">
      <!-- 2 -->
      <g transform="translate(131.548357 321.140875)scale(0.2 -0.2)">
       <defs>
        <path d="M 1228 531 
L 3431 531 
L 3431 0 
L 469 0 
L 469 531 
Q 828 903 1448 1529 
Q 2069 2156 2228 2338 
Q 2531 2678 2651 2914 
Q 2772 3150 2772 3378 
Q 2772 3750 2511 3984 
Q 2250 4219 1831 4219 
Q 1534 4219 1204 4116 
Q 875 4013 500 3803 
L 500 4441 
Q 881 4594 1212 4672 
Q 1544 4750 1819 4750 
Q 2544 4750 2975 4387 
Q 3406 4025 3406 3419 
Q 3406 3131 3298 2873 
Q 3191 2616 2906 2266 
Q 2828 2175 2409 1742 
Q 1991 1309 1228 531 
z
" id="DejaVuSans-32" transform="scale(0.015625)"/>
       </defs>
       <use xlink:href="#DejaVuSans-32"/>
      </g>
     </g>
    </g>
    <g id="xtick_3">
     <g id="line2d_5">
      <path clip-path="url(#p070cb4a0f8)" d="M 218.221714 298.944 
L 218.221714 27.648 
" style="fill:none;stroke:#b0b0b0;stroke-linecap:square;stroke-width:0.8;"/>
     </g>
     <g id="line2d_6">
      <g>
       <use style="stroke:#000000;stroke-width:0.8;" x="218.221714" xlink:href="#mb88ac44ea2" y="298.944"/>
      </g>
     </g>
     <g id="text_3">
      <!-- 4 -->
      <g transform="translate(211.859214 321.140875)scale(0.2 -0.2)">
       <defs>
        <path d="M 2419 4116 
L 825 1625 
L 2419 1625 
L 2419 4116 
z
M 2253 4666 
L 3047 4666 
L 3047 1625 
L 3713 1625 
L 3713 1100 
L 3047 1100 
L 3047 0 
L 2419 0 
L 2419 1100 
L 313 1100 
L 313 1709 
L 2253 4666 
z
" id="DejaVuSans-34" transform="scale(0.015625)"/>
       </defs>
       <use xlink:href="#DejaVuSans-34"/>
      </g>
     </g>
    </g>
    <g id="xtick_4">
     <g id="line2d_7">
      <path clip-path="url(#p070cb4a0f8)" d="M 298.532571 298.944 
L 298.532571 27.648 
" style="fill:none;stroke:#b0b0b0;stroke-linecap:square;stroke-width:0.8;"/>
     </g>
     <g id="line2d_8">
      <g>
       <use style="stroke:#000000;stroke-width:0.8;" x="298.532571" xlink:href="#mb88ac44ea2" y="298.944"/>
      </g>
     </g>
     <g id="text_4">
      <!-- 6 -->
      <g transform="translate(292.170071 321.140875)scale(0.2 -0.2)">
       <defs>
        <path d="M 2113 2584 
Q 1688 2584 1439 2293 
Q 1191 2003 1191 1497 
Q 1191 994 1439 701 
Q 1688 409 2113 409 
Q 2538 409 2786 701 
Q 3034 994 3034 1497 
Q 3034 2003 2786 2293 
Q 2538 2584 2113 2584 
z
M 3366 4563 
L 3366 3988 
Q 3128 4100 2886 4159 
Q 2644 4219 2406 4219 
Q 1781 4219 1451 3797 
Q 1122 3375 1075 2522 
Q 1259 2794 1537 2939 
Q 1816 3084 2150 3084 
Q 2853 3084 3261 2657 
Q 3669 2231 3669 1497 
Q 3669 778 3244 343 
Q 2819 -91 2113 -91 
Q 1303 -91 875 529 
Q 447 1150 447 2328 
Q 447 3434 972 4092 
Q 1497 4750 2381 4750 
Q 2619 4750 2861 4703 
Q 3103 4656 3366 4563 
z
" id="DejaVuSans-36" transform="scale(0.015625)"/>
       </defs>
       <use xlink:href="#DejaVuSans-36"/>
      </g>
     </g>
    </g>
    <g id="xtick_5">
     <g id="line2d_9">
      <path clip-path="url(#p070cb4a0f8)" d="M 97.755429 298.944 
L 97.755429 27.648 
" style="fill:none;stroke:#b0b0b0;stroke-linecap:square;stroke-width:0.8;"/>
     </g>
     <g id="line2d_10">
      <defs>
       <path d="M 0 0 
L 0 2 
" id="m569442d8b7" style="stroke:#000000;stroke-width:0.6;"/>
      </defs>
      <g>
       <use style="stroke:#000000;stroke-width:0.6;" x="97.755429" xlink:href="#m569442d8b7" y="298.944"/>
      </g>
     </g>
    </g>
    <g id="xtick_6">
     <g id="line2d_11">
      <path clip-path="url(#p070cb4a0f8)" d="M 178.066286 298.944 
L 178.066286 27.648 
" style="fill:none;stroke:#b0b0b0;stroke-linecap:square;stroke-width:0.8;"/>
     </g>
     <g id="line2d_12">
      <g>
       <use style="stroke:#000000;stroke-width:0.6;" x="178.066286" xlink:href="#m569442d8b7" y="298.944"/>
      </g>
     </g>
    </g>
    <g id="xtick_7">
     <g id="line2d_13">
      <path clip-path="url(#p070cb4a0f8)" d="M 258.377143 298.944 
L 258.377143 27.648 
" style="fill:none;stroke:#b0b0b0;stroke-linecap:square;stroke-width:0.8;"/>
     </g>
     <g id="line2d_14">
      <g>
       <use style="stroke:#000000;stroke-width:0.6;" x="258.377143" xlink:href="#m569442d8b7" y="298.944"/>
      </g>
     </g>
    </g>
    <g id="xtick_8">
     <g id="line2d_15">
      <path clip-path="url(#p070cb4a0f8)" d="M 338.688 298.944 
L 338.688 27.648 
" style="fill:none;stroke:#b0b0b0;stroke-linecap:square;stroke-width:0.8;"/>
     </g>
     <g id="line2d_16">
      <g>
       <use style="stroke:#000000;stroke-width:0.6;" x="338.688" xlink:href="#m569442d8b7" y="298.944"/>
      </g>
     </g>
    </g>
    <g id="text_5">
     <!-- log10(# f-evals / dimension) -->
     <g transform="translate(77.764078 342.217594)scale(0.17 -0.17)">
      <defs>
       <path d="M 603 4863 
L 1178 4863 
L 1178 0 
L 603 0 
L 603 4863 
z
" id="DejaVuSans-6c" transform="scale(0.015625)"/>
       <path d="M 1959 3097 
Q 1497 3097 1228 2736 
Q 959 2375 959 1747 
Q 959 1119 1226 758 
Q 1494 397 1959 397 
Q 2419 397 2687 759 
Q 2956 1122 2956 1747 
Q 2956 2369 2687 2733 
Q 2419 3097 1959 3097 
z
M 1959 3584 
Q 2709 3584 3137 3096 
Q 3566 2609 3566 1747 
Q 3566 888 3137 398 
Q 2709 -91 1959 -91 
Q 1206 -91 779 398 
Q 353 888 353 1747 
Q 353 2609 779 3096 
Q 1206 3584 1959 3584 
z
" id="DejaVuSans-6f" transform="scale(0.015625)"/>
       <path d="M 2906 1791 
Q 2906 2416 2648 2759 
Q 2391 3103 1925 3103 
Q 1463 3103 1205 2759 
Q 947 2416 947 1791 
Q 947 1169 1205 825 
Q 1463 481 1925 481 
Q 2391 481 2648 825 
Q 2906 1169 2906 1791 
z
M 3481 434 
Q 3481 -459 3084 -895 
Q 2688 -1331 1869 -1331 
Q 1566 -1331 1297 -1286 
Q 1028 -1241 775 -1147 
L 775 -588 
Q 1028 -725 1275 -790 
Q 1522 -856 1778 -856 
Q 2344 -856 2625 -561 
Q 2906 -266 2906 331 
L 2906 616 
Q 2728 306 2450 153 
Q 2172 0 1784 0 
Q 1141 0 747 490 
Q 353 981 353 1791 
Q 353 2603 747 3093 
Q 1141 3584 1784 3584 
Q 2172 3584 2450 3431 
Q 2728 3278 2906 2969 
L 2906 3500 
L 3481 3500 
L 3481 434 
z
" id="DejaVuSans-67" transform="scale(0.015625)"/>
       <path d="M 794 531 
L 1825 531 
L 1825 4091 
L 703 3866 
L 703 4441 
L 1819 4666 
L 2450 4666 
L 2450 531 
L 3481 531 
L 3481 0 
L 794 0 
L 794 531 
z
" id="DejaVuSans-31" transform="scale(0.015625)"/>
       <path d="M 1984 4856 
Q 1566 4138 1362 3434 
Q 1159 2731 1159 2009 
Q 1159 1288 1364 580 
Q 1569 -128 1984 -844 
L 1484 -844 
Q 1016 -109 783 600 
Q 550 1309 550 2009 
Q 550 2706 781 3412 
Q 1013 4119 1484 4856 
L 1984 4856 
z
" id="DejaVuSans-28" transform="scale(0.015625)"/>
       <path d="M 3272 2816 
L 2363 2816 
L 2100 1772 
L 3016 1772 
L 3272 2816 
z
M 2803 4594 
L 2478 3297 
L 3391 3297 
L 3719 4594 
L 4219 4594 
L 3897 3297 
L 4872 3297 
L 4872 2816 
L 3775 2816 
L 3519 1772 
L 4513 1772 
L 4513 1294 
L 3397 1294 
L 3072 0 
L 2572 0 
L 2894 1294 
L 1978 1294 
L 1656 0 
L 1153 0 
L 1478 1294 
L 494 1294 
L 494 1772 
L 1594 1772 
L 1856 2816 
L 850 2816 
L 850 3297 
L 1978 3297 
L 2297 4594 
L 2803 4594 
z
" id="DejaVuSans-23" transform="scale(0.015625)"/>
       <path id="DejaVuSans-20" transform="scale(0.015625)"/>
       <path d="M 2375 4863 
L 2375 4384 
L 1825 4384 
Q 1516 4384 1395 4259 
Q 1275 4134 1275 3809 
L 1275 3500 
L 2222 3500 
L 2222 3053 
L 1275 3053 
L 1275 0 
L 697 0 
L 697 3053 
L 147 3053 
L 147 3500 
L 697 3500 
L 697 3744 
Q 697 4328 969 4595 
Q 1241 4863 1831 4863 
L 2375 4863 
z
" id="DejaVuSans-66" transform="scale(0.015625)"/>
       <path d="M 313 2009 
L 1997 2009 
L 1997 1497 
L 313 1497 
L 313 2009 
z
" id="DejaVuSans-2d" transform="scale(0.015625)"/>
       <path d="M 3597 1894 
L 3597 1613 
L 953 1613 
Q 991 1019 1311 708 
Q 1631 397 2203 397 
Q 2534 397 2845 478 
Q 3156 559 3463 722 
L 3463 178 
Q 3153 47 2828 -22 
Q 2503 -91 2169 -91 
Q 1331 -91 842 396 
Q 353 884 353 1716 
Q 353 2575 817 3079 
Q 1281 3584 2069 3584 
Q 2775 3584 3186 3129 
Q 3597 2675 3597 1894 
z
M 3022 2063 
Q 3016 2534 2758 2815 
Q 2500 3097 2075 3097 
Q 1594 3097 1305 2825 
Q 1016 2553 972 2059 
L 3022 2063 
z
" id="DejaVuSans-65" transform="scale(0.015625)"/>
       <path d="M 191 3500 
L 800 3500 
L 1894 563 
L 2988 3500 
L 3597 3500 
L 2284 0 
L 1503 0 
L 191 3500 
z
" id="DejaVuSans-76" transform="scale(0.015625)"/>
       <path d="M 2194 1759 
Q 1497 1759 1228 1600 
Q 959 1441 959 1056 
Q 959 750 1161 570 
Q 1363 391 1709 391 
Q 2188 391 2477 730 
Q 2766 1069 2766 1631 
L 2766 1759 
L 2194 1759 
z
M 3341 1997 
L 3341 0 
L 2766 0 
L 2766 531 
Q 2569 213 2275 61 
Q 1981 -91 1556 -91 
Q 1019 -91 701 211 
Q 384 513 384 1019 
Q 384 1609 779 1909 
Q 1175 2209 1959 2209 
L 2766 2209 
L 2766 2266 
Q 2766 2663 2505 2880 
Q 2244 3097 1772 3097 
Q 1472 3097 1187 3025 
Q 903 2953 641 2809 
L 641 3341 
Q 956 3463 1253 3523 
Q 1550 3584 1831 3584 
Q 2591 3584 2966 3190 
Q 3341 2797 3341 1997 
z
" id="DejaVuSans-61" transform="scale(0.015625)"/>
       <path d="M 2834 3397 
L 2834 2853 
Q 2591 2978 2328 3040 
Q 2066 3103 1784 3103 
Q 1356 3103 1142 2972 
Q 928 2841 928 2578 
Q 928 2378 1081 2264 
Q 1234 2150 1697 2047 
L 1894 2003 
Q 2506 1872 2764 1633 
Q 3022 1394 3022 966 
Q 3022 478 2636 193 
Q 2250 -91 1575 -91 
Q 1294 -91 989 -36 
Q 684 19 347 128 
L 347 722 
Q 666 556 975 473 
Q 1284 391 1588 391 
Q 1994 391 2212 530 
Q 2431 669 2431 922 
Q 2431 1156 2273 1281 
Q 2116 1406 1581 1522 
L 1381 1569 
Q 847 1681 609 1914 
Q 372 2147 372 2553 
Q 372 3047 722 3315 
Q 1072 3584 1716 3584 
Q 2034 3584 2315 3537 
Q 2597 3491 2834 3397 
z
" id="DejaVuSans-73" transform="scale(0.015625)"/>
       <path d="M 1625 4666 
L 2156 4666 
L 531 -594 
L 0 -594 
L 1625 4666 
z
" id="DejaVuSans-2f" transform="scale(0.015625)"/>
       <path d="M 2906 2969 
L 2906 4863 
L 3481 4863 
L 3481 0 
L 2906 0 
L 2906 525 
Q 2725 213 2448 61 
Q 2172 -91 1784 -91 
Q 1150 -91 751 415 
Q 353 922 353 1747 
Q 353 2572 751 3078 
Q 1150 3584 1784 3584 
Q 2172 3584 2448 3432 
Q 2725 3281 2906 2969 
z
M 947 1747 
Q 947 1113 1208 752 
Q 1469 391 1925 391 
Q 2381 391 2643 752 
Q 2906 1113 2906 1747 
Q 2906 2381 2643 2742 
Q 2381 3103 1925 3103 
Q 1469 3103 1208 2742 
Q 947 2381 947 1747 
z
" id="DejaVuSans-64" transform="scale(0.015625)"/>
       <path d="M 603 3500 
L 1178 3500 
L 1178 0 
L 603 0 
L 603 3500 
z
M 603 4863 
L 1178 4863 
L 1178 4134 
L 603 4134 
L 603 4863 
z
" id="DejaVuSans-69" transform="scale(0.015625)"/>
       <path d="M 3328 2828 
Q 3544 3216 3844 3400 
Q 4144 3584 4550 3584 
Q 5097 3584 5394 3201 
Q 5691 2819 5691 2113 
L 5691 0 
L 5113 0 
L 5113 2094 
Q 5113 2597 4934 2840 
Q 4756 3084 4391 3084 
Q 3944 3084 3684 2787 
Q 3425 2491 3425 1978 
L 3425 0 
L 2847 0 
L 2847 2094 
Q 2847 2600 2669 2842 
Q 2491 3084 2119 3084 
Q 1678 3084 1418 2786 
Q 1159 2488 1159 1978 
L 1159 0 
L 581 0 
L 581 3500 
L 1159 3500 
L 1159 2956 
Q 1356 3278 1631 3431 
Q 1906 3584 2284 3584 
Q 2666 3584 2933 3390 
Q 3200 3197 3328 2828 
z
" id="DejaVuSans-6d" transform="scale(0.015625)"/>
       <path d="M 3513 2113 
L 3513 0 
L 2938 0 
L 2938 2094 
Q 2938 2591 2744 2837 
Q 2550 3084 2163 3084 
Q 1697 3084 1428 2787 
Q 1159 2491 1159 1978 
L 1159 0 
L 581 0 
L 581 3500 
L 1159 3500 
L 1159 2956 
Q 1366 3272 1645 3428 
Q 1925 3584 2291 3584 
Q 2894 3584 3203 3211 
Q 3513 2838 3513 2113 
z
" id="DejaVuSans-6e" transform="scale(0.015625)"/>
       <path d="M 513 4856 
L 1013 4856 
Q 1481 4119 1714 3412 
Q 1947 2706 1947 2009 
Q 1947 1309 1714 600 
Q 1481 -109 1013 -844 
L 513 -844 
Q 928 -128 1133 580 
Q 1338 1288 1338 2009 
Q 1338 2731 1133 3434 
Q 928 4138 513 4856 
z
" id="DejaVuSans-29" transform="scale(0.015625)"/>
      </defs>
      <use xlink:href="#DejaVuSans-6c"/>
      <use x="27.783203" xlink:href="#DejaVuSans-6f"/>
      <use x="88.964844" xlink:href="#DejaVuSans-67"/>
      <use x="152.441406" xlink:href="#DejaVuSans-31"/>
      <use x="216.064453" xlink:href="#DejaVuSans-30"/>
      <use x="279.6875" xlink:href="#DejaVuSans-28"/>
      <use x="318.701172" xlink:href="#DejaVuSans-23"/>
      <use x="402.490234" xlink:href="#DejaVuSans-20"/>
      <use x="434.277344" xlink:href="#DejaVuSans-66"/>
      <use x="463.982422" xlink:href="#DejaVuSans-2d"/>
      <use x="500.066406" xlink:href="#DejaVuSans-65"/>
      <use x="561.589844" xlink:href="#DejaVuSans-76"/>
      <use x="620.769531" xlink:href="#DejaVuSans-61"/>
      <use x="682.048828" xlink:href="#DejaVuSans-6c"/>
      <use x="709.832031" xlink:href="#DejaVuSans-73"/>
      <use x="761.931641" xlink:href="#DejaVuSans-20"/>
      <use x="793.71875" xlink:href="#DejaVuSans-2f"/>
      <use x="827.410156" xlink:href="#DejaVuSans-20"/>
      <use x="859.197266" xlink:href="#DejaVuSans-64"/>
      <use x="922.673828" xlink:href="#DejaVuSans-69"/>
      <use x="950.457031" xlink:href="#DejaVuSans-6d"/>
      <use x="1047.869141" xlink:href="#DejaVuSans-65"/>
      <use x="1109.392578" xlink:href="#DejaVuSans-6e"/>
      <use x="1172.771484" xlink:href="#DejaVuSans-73"/>
      <use x="1224.871094" xlink:href="#DejaVuSans-69"/>
      <use x="1252.654297" xlink:href="#DejaVuSans-6f"/>
      <use x="1313.835938" xlink:href="#DejaVuSans-6e"/>
      <use x="1377.214844" xlink:href="#DejaVuSans-29"/>
     </g>
    </g>
   </g>
   <g id="matplotlib.axis_2">
    <g id="ytick_1">
     <g id="line2d_17">
      <path clip-path="url(#p070cb4a0f8)" d="M 57.6 298.944 
L 338.688 298.944 
" style="fill:none;stroke:#b0b0b0;stroke-linecap:square;stroke-width:0.8;"/>
     </g>
     <g id="line2d_18">
      <defs>
       <path d="M 0 0 
L -3.5 0 
" id="mef989e44d6" style="stroke:#000000;stroke-width:0.8;"/>
      </defs>
      <g>
       <use style="stroke:#000000;stroke-width:0.8;" x="57.6" xlink:href="#mef989e44d6" y="298.944"/>
      </g>
     </g>
     <g id="text_6">
      <!-- 0.0 -->
      <g transform="translate(25.155 305.02275)scale(0.16 -0.16)">
       <defs>
        <path d="M 684 794 
L 1344 794 
L 1344 0 
L 684 0 
L 684 794 
z
" id="DejaVuSans-2e" transform="scale(0.015625)"/>
       </defs>
       <use xlink:href="#DejaVuSans-30"/>
       <use x="63.623047" xlink:href="#DejaVuSans-2e"/>
       <use x="95.410156" xlink:href="#DejaVuSans-30"/>
      </g>
     </g>
    </g>
    <g id="ytick_2">
     <g id="line2d_19">
      <path clip-path="url(#p070cb4a0f8)" d="M 57.6 245.22202 
L 338.688 245.22202 
" style="fill:none;stroke:#b0b0b0;stroke-linecap:square;stroke-width:0.8;"/>
     </g>
     <g id="line2d_20">
      <g>
       <use style="stroke:#000000;stroke-width:0.8;" x="57.6" xlink:href="#mef989e44d6" y="245.22202"/>
      </g>
     </g>
     <g id="text_7">
      <!-- 0.2 -->
      <g transform="translate(25.155 251.30077)scale(0.16 -0.16)">
       <use xlink:href="#DejaVuSans-30"/>
       <use x="63.623047" xlink:href="#DejaVuSans-2e"/>
       <use x="95.410156" xlink:href="#DejaVuSans-32"/>
      </g>
     </g>
    </g>
    <g id="ytick_3">
     <g id="line2d_21">
      <path clip-path="url(#p070cb4a0f8)" d="M 57.6 191.50004 
L 338.688 191.50004 
" style="fill:none;stroke:#b0b0b0;stroke-linecap:square;stroke-width:0.8;"/>
     </g>
     <g id="line2d_22">
      <g>
       <use style="stroke:#000000;stroke-width:0.8;" x="57.6" xlink:href="#mef989e44d6" y="191.50004"/>
      </g>
     </g>
     <g id="text_8">
      <!-- 0.4 -->
      <g transform="translate(25.155 197.57879)scale(0.16 -0.16)">
       <use xlink:href="#DejaVuSans-30"/>
       <use x="63.623047" xlink:href="#DejaVuSans-2e"/>
       <use x="95.410156" xlink:href="#DejaVuSans-34"/>
      </g>
     </g>
    </g>
    <g id="ytick_4">
     <g id="line2d_23">
      <path clip-path="url(#p070cb4a0f8)" d="M 57.6 137.778059 
L 338.688 137.778059 
" style="fill:none;stroke:#b0b0b0;stroke-linecap:square;stroke-width:0.8;"/>
     </g>
     <g id="line2d_24">
      <g>
       <use style="stroke:#000000;stroke-width:0.8;" x="57.6" xlink:href="#mef989e44d6" y="137.778059"/>
      </g>
     </g>
     <g id="text_9">
      <!-- 0.6 -->
      <g transform="translate(25.155 143.856809)scale(0.16 -0.16)">
       <use xlink:href="#DejaVuSans-30"/>
       <use x="63.623047" xlink:href="#DejaVuSans-2e"/>
       <use x="95.410156" xlink:href="#DejaVuSans-36"/>
      </g>
     </g>
    </g>
    <g id="ytick_5">
     <g id="line2d_25">
      <path clip-path="url(#p070cb4a0f8)" d="M 57.6 84.056079 
L 338.688 84.056079 
" style="fill:none;stroke:#b0b0b0;stroke-linecap:square;stroke-width:0.8;"/>
     </g>
     <g id="line2d_26">
      <g>
       <use style="stroke:#000000;stroke-width:0.8;" x="57.6" xlink:href="#mef989e44d6" y="84.056079"/>
      </g>
     </g>
     <g id="text_10">
      <!-- 0.8 -->
      <g transform="translate(25.155 90.134829)scale(0.16 -0.16)">
       <defs>
        <path d="M 2034 2216 
Q 1584 2216 1326 1975 
Q 1069 1734 1069 1313 
Q 1069 891 1326 650 
Q 1584 409 2034 409 
Q 2484 409 2743 651 
Q 3003 894 3003 1313 
Q 3003 1734 2745 1975 
Q 2488 2216 2034 2216 
z
M 1403 2484 
Q 997 2584 770 2862 
Q 544 3141 544 3541 
Q 544 4100 942 4425 
Q 1341 4750 2034 4750 
Q 2731 4750 3128 4425 
Q 3525 4100 3525 3541 
Q 3525 3141 3298 2862 
Q 3072 2584 2669 2484 
Q 3125 2378 3379 2068 
Q 3634 1759 3634 1313 
Q 3634 634 3220 271 
Q 2806 -91 2034 -91 
Q 1263 -91 848 271 
Q 434 634 434 1313 
Q 434 1759 690 2068 
Q 947 2378 1403 2484 
z
M 1172 3481 
Q 1172 3119 1398 2916 
Q 1625 2713 2034 2713 
Q 2441 2713 2670 2916 
Q 2900 3119 2900 3481 
Q 2900 3844 2670 4047 
Q 2441 4250 2034 4250 
Q 1625 4250 1398 4047 
Q 1172 3844 1172 3481 
z
" id="DejaVuSans-38" transform="scale(0.015625)"/>
       </defs>
       <use xlink:href="#DejaVuSans-30"/>
       <use x="63.623047" xlink:href="#DejaVuSans-2e"/>
       <use x="95.410156" xlink:href="#DejaVuSans-38"/>
      </g>
     </g>
    </g>
    <g id="ytick_6">
     <g id="line2d_27">
      <path clip-path="url(#p070cb4a0f8)" d="M 57.6 30.334099 
L 338.688 30.334099 
" style="fill:none;stroke:#b0b0b0;stroke-linecap:square;stroke-width:0.8;"/>
     </g>
     <g id="line2d_28">
      <g>
       <use style="stroke:#000000;stroke-width:0.8;" x="57.6" xlink:href="#mef989e44d6" y="30.334099"/>
      </g>
     </g>
     <g id="text_11">
      <!-- 1.0 -->
      <g transform="translate(25.155 36.412849)scale(0.16 -0.16)">
       <use xlink:href="#DejaVuSans-31"/>
       <use x="63.623047" xlink:href="#DejaVuSans-2e"/>
       <use x="95.410156" xlink:href="#DejaVuSans-30"/>
      </g>
     </g>
    </g>
    <g id="text_12">
     <!-- Fraction of function,target pairs -->
     <g transform="translate(17.619531 297.681)rotate(-90)scale(0.17 -0.17)">
      <defs>
       <path d="M 628 4666 
L 3309 4666 
L 3309 4134 
L 1259 4134 
L 1259 2759 
L 3109 2759 
L 3109 2228 
L 1259 2228 
L 1259 0 
L 628 0 
L 628 4666 
z
" id="DejaVuSans-46" transform="scale(0.015625)"/>
       <path d="M 2631 2963 
Q 2534 3019 2420 3045 
Q 2306 3072 2169 3072 
Q 1681 3072 1420 2755 
Q 1159 2438 1159 1844 
L 1159 0 
L 581 0 
L 581 3500 
L 1159 3500 
L 1159 2956 
Q 1341 3275 1631 3429 
Q 1922 3584 2338 3584 
Q 2397 3584 2469 3576 
Q 2541 3569 2628 3553 
L 2631 2963 
z
" id="DejaVuSans-72" transform="scale(0.015625)"/>
       <path d="M 3122 3366 
L 3122 2828 
Q 2878 2963 2633 3030 
Q 2388 3097 2138 3097 
Q 1578 3097 1268 2742 
Q 959 2388 959 1747 
Q 959 1106 1268 751 
Q 1578 397 2138 397 
Q 2388 397 2633 464 
Q 2878 531 3122 666 
L 3122 134 
Q 2881 22 2623 -34 
Q 2366 -91 2075 -91 
Q 1284 -91 818 406 
Q 353 903 353 1747 
Q 353 2603 823 3093 
Q 1294 3584 2113 3584 
Q 2378 3584 2631 3529 
Q 2884 3475 3122 3366 
z
" id="DejaVuSans-63" transform="scale(0.015625)"/>
       <path d="M 1172 4494 
L 1172 3500 
L 2356 3500 
L 2356 3053 
L 1172 3053 
L 1172 1153 
Q 1172 725 1289 603 
Q 1406 481 1766 481 
L 2356 481 
L 2356 0 
L 1766 0 
Q 1100 0 847 248 
Q 594 497 594 1153 
L 594 3053 
L 172 3053 
L 172 3500 
L 594 3500 
L 594 4494 
L 1172 4494 
z
" id="DejaVuSans-74" transform="scale(0.015625)"/>
       <path d="M 544 1381 
L 544 3500 
L 1119 3500 
L 1119 1403 
Q 1119 906 1312 657 
Q 1506 409 1894 409 
Q 2359 409 2629 706 
Q 2900 1003 2900 1516 
L 2900 3500 
L 3475 3500 
L 3475 0 
L 2900 0 
L 2900 538 
Q 2691 219 2414 64 
Q 2138 -91 1772 -91 
Q 1169 -91 856 284 
Q 544 659 544 1381 
z
M 1991 3584 
L 1991 3584 
z
" id="DejaVuSans-75" transform="scale(0.015625)"/>
       <path d="M 750 794 
L 1409 794 
L 1409 256 
L 897 -744 
L 494 -744 
L 750 256 
L 750 794 
z
" id="DejaVuSans-2c" transform="scale(0.015625)"/>
       <path d="M 1159 525 
L 1159 -1331 
L 581 -1331 
L 581 3500 
L 1159 3500 
L 1159 2969 
Q 1341 3281 1617 3432 
Q 1894 3584 2278 3584 
Q 2916 3584 3314 3078 
Q 3713 2572 3713 1747 
Q 3713 922 3314 415 
Q 2916 -91 2278 -91 
Q 1894 -91 1617 61 
Q 1341 213 1159 525 
z
M 3116 1747 
Q 3116 2381 2855 2742 
Q 2594 3103 2138 3103 
Q 1681 3103 1420 2742 
Q 1159 2381 1159 1747 
Q 1159 1113 1420 752 
Q 1681 391 2138 391 
Q 2594 391 2855 752 
Q 3116 1113 3116 1747 
z
" id="DejaVuSans-70" transform="scale(0.015625)"/>
      </defs>
      <use xlink:href="#DejaVuSans-46"/>
      <use x="50.269531" xlink:href="#DejaVuSans-72"/>
      <use x="91.382812" xlink:href="#DejaVuSans-61"/>
      <use x="152.662109" xlink:href="#DejaVuSans-63"/>
      <use x="207.642578" xlink:href="#DejaVuSans-74"/>
      <use x="246.851562" xlink:href="#DejaVuSans-69"/>
      <use x="274.634766" xlink:href="#DejaVuSans-6f"/>
      <use x="335.816406" xlink:href="#DejaVuSans-6e"/>
      <use x="399.195312" xlink:href="#DejaVuSans-20"/>
      <use x="430.982422" xlink:href="#DejaVuSans-6f"/>
      <use x="492.164062" xlink:href="#DejaVuSans-66"/>
      <use x="527.369141" xlink:href="#DejaVuSans-20"/>
      <use x="559.15625" xlink:href="#DejaVuSans-66"/>
      <use x="594.361328" xlink:href="#DejaVuSans-75"/>
      <use x="657.740234" xlink:href="#DejaVuSans-6e"/>
      <use x="721.119141" xlink:href="#DejaVuSans-63"/>
      <use x="776.099609" xlink:href="#DejaVuSans-74"/>
      <use x="815.308594" xlink:href="#DejaVuSans-69"/>
      <use x="843.091797" xlink:href="#DejaVuSans-6f"/>
      <use x="904.273438" xlink:href="#DejaVuSans-6e"/>
      <use x="967.652344" xlink:href="#DejaVuSans-2c"/>
      <use x="999.439453" xlink:href="#DejaVuSans-74"/>
      <use x="1038.648438" xlink:href="#DejaVuSans-61"/>
      <use x="1099.927734" xlink:href="#DejaVuSans-72"/>
      <use x="1139.291016" xlink:href="#DejaVuSans-67"/>
      <use x="1202.767578" xlink:href="#DejaVuSans-65"/>
      <use x="1264.291016" xlink:href="#DejaVuSans-74"/>
      <use x="1303.5" xlink:href="#DejaVuSans-20"/>
      <use x="1335.287109" xlink:href="#DejaVuSans-70"/>
      <use x="1398.763672" xlink:href="#DejaVuSans-61"/>
      <use x="1460.042969" xlink:href="#DejaVuSans-69"/>
      <use x="1487.826172" xlink:href="#DejaVuSans-72"/>
      <use x="1528.939453" xlink:href="#DejaVuSans-73"/>
     </g>
    </g>
   </g>
   <g id="line2d_29">
    <defs>
     <path d="M 0 1.5 
C 0.397805 1.5 0.77937 1.341951 1.06066 1.06066 
C 1.341951 0.77937 1.5 0.397805 1.5 0 
C 1.5 -0.397805 1.341951 -0.77937 1.06066 -1.06066 
C 0.77937 -1.341951 0.397805 -1.5 0 -1.5 
C -0.397805 -1.5 -0.77937 -1.341951 -1.06066 -1.06066 
C -1.341951 -0.77937 -1.5 -0.397805 -1.5 0 
C -1.5 0.397805 -1.341951 0.77937 -1.06066 1.06066 
C -0.77937 1.341951 -0.397805 1.5 0 1.5 
z
" id="ma89906caf4" style="stroke:#00bfbf;"/>
    </defs>
    <g>
     <use style="fill:#00bfbf;stroke:#00bfbf;" x="196.703095" xlink:href="#ma89906caf4" y="30.334099"/>
     <use style="fill:#00bfbf;stroke:#00bfbf;" x="196.703095" xlink:href="#ma89906caf4" y="30.334099"/>
    </g>
   </g>
   <g id="line2d_30">
    <path d="M 45.512012 298.944 
L 45.512012 285.250162 
L 57.6 285.250162 
L 57.6 282.616732 
L 64.67102 282.616732 
L 64.67102 278.929929 
L 69.687988 278.929929 
L 69.687988 277.349871 
L 73.579452 277.349871 
L 73.579452 273.136382 
L 76.759008 273.136382 
L 76.759008 272.609696 
L 79.447285 272.609696 
L 79.447285 272.08301 
L 81.775977 272.08301 
L 81.775977 271.029638 
L 83.830028 271.029638 
L 83.830028 265.762777 
L 87.329581 265.762777 
L 87.329581 263.656033 
L 88.846997 263.656033 
L 88.846997 263.129347 
L 92.73846 263.129347 
L 92.73846 262.075974 
L 94.921215 262.075974 
L 94.921215 261.549288 
L 106.48859 261.549288 
L 106.48859 261.022602 
L 108.006005 261.022602 
L 108.006005 259.96923 
L 109.843417 259.96923 
L 109.843417 259.442544 
L 110.694282 259.442544 
L 110.694282 258.915858 
L 111.104637 258.915858 
L 111.104637 258.389172 
L 113.022974 258.389172 
L 113.022974 257.3358 
L 115.077025 257.3358 
L 115.077025 256.282427 
L 117.486268 256.282427 
L 117.486268 255.755741 
L 120.093994 255.755741 
L 120.093994 254.175683 
L 120.571812 254.175683 
L 120.571812 253.648997 
L 121.264855 253.648997 
L 121.264855 253.122311 
L 123.593547 253.122311 
L 123.593547 252.595625 
L 124.368753 252.595625 
L 124.368753 249.962195 
L 124.557288 249.962195 
L 124.557288 249.435508 
L 125.822869 249.435508 
L 125.822869 247.85545 
L 126.168212 247.85545 
L 126.168212 247.328764 
L 129.290685 247.328764 
L 129.290685 246.802078 
L 129.714332 246.802078 
L 129.714332 246.275392 
L 130.398313 246.275392 
L 130.398313 245.748706 
L 130.796184 245.748706 
L 130.796184 245.22202 
L 132.060454 245.22202 
L 132.060454 244.695334 
L 132.181982 244.695334 
L 132.181982 244.168648 
L 132.659801 244.168648 
L 132.659801 243.641962 
L 134.236034 243.641962 
L 134.236034 243.115275 
L 134.450015 243.115275 
L 134.55603 238.901787 
L 136.170062 238.901787 
L 136.170062 237.321729 
L 136.456742 237.321729 
L 136.456742 235.74167 
L 137.37967 235.74167 
L 137.37967 234.688298 
L 138.510793 234.688298 
L 138.510793 233.634926 
L 140.11924 233.634926 
L 140.11924 232.581554 
L 140.64889 232.581554 
L 140.64889 232.054868 
L 147.368603 232.054868 
L 147.368603 231.528182 
L 148.306159 231.528182 
L 148.306159 231.001496 
L 149.512548 231.001496 
L 149.512548 227.841379 
L 150.808139 227.841379 
L 150.849711 225.734635 
L 151.015013 225.734635 
L 151.015013 225.207949 
L 153.323128 225.207949 
L 153.323128 224.681263 
L 153.925152 224.681263 
L 153.925152 223.101204 
L 154.405793 223.101204 
L 154.405793 221.521146 
L 156.953214 221.521146 
L 156.953214 220.467774 
L 157.725877 220.467774 
L 157.781772 217.307658 
L 158.195371 217.307658 
L 158.195371 216.780971 
L 159.046236 216.780971 
L 159.046236 216.254285 
L 161.100288 216.254285 
L 161.100288 215.727599 
L 162.410793 215.727599 
L 162.410793 215.200913 
L 162.916926 215.200913 
L 162.916926 214.674227 
L 163.246367 214.674227 
L 163.246367 214.147541 
L 163.847782 214.147541 
L 163.847782 213.094169 
L 164.004716 213.094169 
L 164.004716 212.567483 
L 164.179597 212.567483 
L 164.179597 212.040797 
L 164.86209 212.040797 
L 164.86209 211.514111 
L 165.248216 211.514111 
L 165.248216 210.987425 
L 166.289413 210.987425 
L 166.289413 210.460738 
L 166.476842 210.460738 
L 166.476842 209.407366 
L 167.417059 209.407366 
L 167.417059 207.300622 
L 168.047843 207.300622 
L 168.140524 204.667192 
L 168.171308 204.667192 
L 168.171308 204.140506 
L 168.760989 204.140506 
L 168.760989 203.087133 
L 169.488944 203.087133 
L 169.560096 197.820273 
L 170.59394 197.820273 
L 170.59394 197.293586 
L 170.727268 197.293586 
L 170.819995 194.13347 
L 171.620458 194.13347 
L 171.620458 193.080098 
L 171.895887 193.080098 
L 171.994974 192.026726 
L 172.056618 192.026726 
L 172.056618 189.393295 
L 172.240256 189.393295 
L 172.288901 187.813237 
L 172.673253 187.813237 
L 172.696997 184.126434 
L 172.897518 184.126434 
L 172.897518 183.073062 
L 173.06094 183.073062 
L 173.06094 182.546376 
L 174.261802 182.546376 
L 174.294307 180.439632 
L 174.380694 180.439632 
L 174.402224 178.332888 
L 174.816832 178.332888 
L 174.816832 177.279515 
L 175.344551 177.279515 
L 175.344551 175.699457 
L 175.516968 175.699457 
L 175.617599 171.485969 
L 175.78735 171.485969 
L 175.886437 167.799166 
L 176.014414 167.799166 
L 176.121974 162.005619 
L 176.363988 162.005619 
L 176.392805 159.898875 
L 176.67839 159.898875 
L 176.67839 158.318817 
L 177.678338 158.318817 
L 177.740637 155.685386 
L 177.802715 155.685386 
L 177.802715 154.632014 
L 178.488398 154.632014 
L 178.573302 149.365153 
L 179.472902 149.365153 
L 179.472902 148.838467 
L 179.641012 148.838467 
L 179.641012 147.785095 
L 179.768016 147.785095 
L 179.831174 146.731723 
L 180.33602 146.731723 
L 180.33602 145.151665 
L 180.45808 145.151665 
L 180.45808 144.098292 
L 180.669651 144.098292 
L 180.767015 140.41149 
L 181.419369 140.41149 
L 181.526953 137.778059 
L 181.697718 137.778059 
L 181.733085 135.671315 
L 181.81064 135.671315 
L 181.831732 133.037885 
L 181.957749 133.037885 
L 181.985629 129.351082 
L 182.075935 129.351082 
L 182.075935 128.29771 
L 182.547572 128.29771 
L 182.547572 126.717652 
L 182.688619 126.717652 
L 182.688619 125.66428 
L 182.92779 125.66428 
L 182.92779 123.557535 
L 183.046156 123.557535 
L 183.046156 118.817361 
L 183.286971 118.817361 
L 183.286971 116.710616 
L 183.790277 116.710616 
L 183.790277 115.130558 
L 183.90295 115.130558 
L 184.0087 114.077186 
L 184.04587 114.077186 
L 184.04587 112.497128 
L 184.175348 112.497128 
L 184.175348 110.917069 
L 184.600125 110.917069 
L 184.683853 109.337011 
L 184.755301 109.337011 
L 184.755301 108.810325 
L 185.079078 108.810325 
L 185.079078 108.283639 
L 185.201133 108.283639 
L 185.201133 107.756953 
L 185.333839 107.756953 
L 185.333839 107.230267 
L 186.279153 107.230267 
L 186.295479 105.123522 
L 186.946792 105.123522 
L 186.946792 103.016778 
L 187.320061 103.016778 
L 187.320061 101.963406 
L 187.483428 101.963406 
L 187.513889 96.696545 
L 187.645278 96.696545 
L 187.645278 96.169859 
L 187.850478 96.169859 
L 187.939809 93.536429 
L 188.321706 93.536429 
L 188.321706 93.009743 
L 188.495185 93.009743 
L 188.538286 91.429684 
L 188.808815 91.429684 
L 188.808815 89.849626 
L 189.204597 89.849626 
L 189.301011 87.742882 
L 189.351301 87.742882 
L 189.396894 86.162824 
L 189.474129 86.162824 
L 189.474129 83.529393 
L 189.721691 83.529393 
L 189.801954 81.949335 
L 189.859692 81.949335 
L 189.939324 80.895963 
L 190.110621 80.895963 
L 190.215205 76.682474 
L 190.223892 76.682474 
L 190.314846 73.522358 
L 190.550835 73.522358 
L 190.657055 71.942299 
L 190.728918 71.942299 
L 190.728918 70.888927 
L 190.896847 70.888927 
L 191.00514 69.835555 
L 191.054895 69.835555 
L 191.12514 63.515322 
L 191.383019 63.515322 
L 191.456004 59.82852 
L 191.752884 59.82852 
L 191.832262 58.775147 
L 191.930979 58.775147 
L 192.009552 54.034973 
L 192.254769 54.034973 
L 192.324202 47.71474 
L 192.523247 47.71474 
L 192.523247 47.188054 
L 192.795152 47.188054 
L 192.795152 45.607995 
L 192.959252 45.607995 
L 192.970385 44.027937 
L 193.406344 44.027937 
L 193.489362 41.921193 
L 193.589898 41.921193 
L 193.589898 40.867821 
L 193.767997 40.867821 
L 193.845788 39.287762 
L 194.191615 39.287762 
L 194.191615 38.23439 
L 195.28748 38.23439 
L 195.368495 36.654332 
L 195.400796 36.654332 
L 195.400796 35.60096 
L 195.786968 35.60096 
L 195.786968 35.074274 
L 196.133859 35.074274 
L 196.133859 34.020902 
L 196.309346 34.020902 
L 196.309346 33.494215 
L 196.534569 33.494215 
L 196.543638 32.440843 
L 196.67612 32.440843 
L 196.703095 30.334099 
L 338.688 30.334099 
L 338.688 30.334099 
" style="fill:none;stroke:#00bfbf;stroke-linecap:square;stroke-width:1.5;"/>
   </g>
   <g id="line2d_31">
    <defs>
     <path d="M -6 0 
L 6 0 
M 0 6 
L 0 -6 
" id="mbc257c794b" style="stroke:#00bfbf;stroke-width:1.5;"/>
    </defs>
    <g>
     <use style="fill-opacity:0;stroke:#00bfbf;stroke-width:1.5;" x="121.264855" xlink:href="#mbc257c794b" y="253.122311"/>
     <use style="fill-opacity:0;stroke:#00bfbf;stroke-width:1.5;" x="178.573302" xlink:href="#mbc257c794b" y="154.105328"/>
     <use style="fill-opacity:0;stroke:#00bfbf;stroke-width:1.5;" x="195.786968" xlink:href="#mbc257c794b" y="35.074274"/>
     <use style="fill-opacity:0;stroke:#00bfbf;stroke-width:1.5;" x="196.703095" xlink:href="#mbc257c794b" y="30.334099"/>
     <use style="fill-opacity:0;stroke:#00bfbf;stroke-width:1.5;" x="196.703095" xlink:href="#mbc257c794b" y="30.334099"/>
     <use style="fill-opacity:0;stroke:#00bfbf;stroke-width:1.5;" x="338.688" xlink:href="#mbc257c794b" y="30.334099"/>
    </g>
   </g>
   <g id="line2d_32">
    <path style="fill:none;stroke:#00bfbf;stroke-linecap:square;stroke-width:1.5;"/>
    <g/>
   </g>
   <g id="line2d_33">
    <defs>
     <path d="M 0 1.5 
C 0.397805 1.5 0.77937 1.341951 1.06066 1.06066 
C 1.341951 0.77937 1.5 0.397805 1.5 0 
C 1.5 -0.397805 1.341951 -0.77937 1.06066 -1.06066 
C 0.77937 -1.341951 0.397805 -1.5 0 -1.5 
C -0.397805 -1.5 -0.77937 -1.341951 -1.06066 -1.06066 
C -1.341951 -0.77937 -1.5 -0.397805 -1.5 0 
C -1.5 0.397805 -1.341951 0.77937 -1.06066 1.06066 
C -0.77937 1.341951 -0.397805 1.5 0 1.5 
z
" id="m8841cbcec9" style="stroke:#008000;"/>
    </defs>
    <g>
     <use style="fill:#008000;stroke:#008000;" x="191.126514" xlink:href="#m8841cbcec9" y="30.334099"/>
     <use style="fill:#008000;stroke:#008000;" x="191.126514" xlink:href="#m8841cbcec9" y="30.334099"/>
    </g>
   </g>
   <g id="line2d_34">
    <path d="M 38.440992 298.944 
L 38.440992 293.677139 
L 50.52898 293.677139 
L 50.52898 287.356906 
L 57.6 287.356906 
L 57.6 284.19679 
L 62.616969 284.19679 
L 62.616969 283.143418 
L 66.508432 283.143418 
L 66.508432 281.563359 
L 69.687988 281.563359 
L 69.687988 278.929929 
L 72.376266 278.929929 
L 72.376266 277.349871 
L 74.704957 277.349871 
L 74.704957 276.296499 
L 78.59642 276.296499 
L 78.59642 275.243126 
L 81.775977 275.243126 
L 81.775977 273.663068 
L 83.171864 273.663068 
L 83.171864 273.136382 
L 88.846997 273.136382 
L 88.846997 271.556324 
L 89.78989 271.556324 
L 89.78989 271.029638 
L 90.684409 271.029638 
L 90.684409 270.502952 
L 92.34655 270.502952 
L 92.34655 269.976266 
L 94.575872 269.976266 
L 94.575872 269.449579 
L 95.259853 269.449579 
L 95.259853 268.922893 
L 96.552242 268.922893 
L 96.552242 266.816149 
L 97.16421 266.816149 
L 97.16421 266.289463 
L 97.755429 266.289463 
L 97.755429 265.762777 
L 99.938184 265.762777 
L 99.938184 264.709405 
L 111.505558 264.709405 
L 111.505558 263.656033 
L 116.121606 263.656033 
L 116.121606 263.129347 
L 116.914437 263.129347 
L 116.914437 262.60266 
L 117.107138 262.60266 
L 117.107138 262.075974 
L 120.41399 262.075974 
L 120.41399 261.549288 
L 130.036864 261.549288 
L 130.036864 260.495916 
L 130.487516 260.495916 
L 130.487516 259.442544 
L 130.664567 259.442544 
L 130.664567 257.3358 
L 131.355321 257.3358 
L 131.355321 256.282427 
L 131.938072 256.282427 
L 131.938072 255.755741 
L 133.201197 255.755741 
L 133.201197 255.229055 
L 134.307653 255.229055 
L 134.307653 254.175683 
L 135.348078 254.175683 
L 135.348078 253.648997 
L 137.37967 253.648997 
L 137.37967 252.595625 
L 138.927025 252.595625 
L 138.927025 252.068939 
L 142.971369 252.068939 
L 142.971369 251.542253 
L 143.778691 251.542253 
L 143.778691 251.015567 
L 143.943994 251.015567 
L 143.943994 248.382136 
L 147.603592 248.382136 
L 147.603592 246.275392 
L 150.05688 246.275392 
L 150.05688 245.22202 
L 151.205907 245.22202 
L 151.205907 242.588589 
L 151.871101 242.588589 
L 151.871101 241.008531 
L 152.130233 241.008531 
L 152.207228 238.901787 
L 153.347132 238.901787 
L 153.347132 238.375101 
L 154.641235 238.375101 
L 154.641235 237.321729 
L 155.488919 237.321729 
L 155.488919 236.795043 
L 155.970177 236.795043 
L 155.970177 234.688298 
L 156.378132 234.688298 
L 156.378132 234.161612 
L 159.0116 234.161612 
L 159.0116 233.634926 
L 160.680044 233.634926 
L 160.758635 232.581554 
L 161.038665 232.581554 
L 161.038665 232.054868 
L 162.854457 232.054868 
L 162.854457 231.528182 
L 163.669525 231.528182 
L 163.669525 230.47481 
L 163.801742 230.47481 
L 163.801742 229.948123 
L 164.308016 229.948123 
L 164.308016 229.421437 
L 164.886862 229.421437 
L 164.923954 228.368065 
L 165.059286 228.368065 
L 165.132663 226.788007 
L 165.254276 226.788007 
L 165.338904 224.681263 
L 166.07106 224.681263 
L 166.117256 222.574518 
L 166.550128 222.574518 
L 166.550128 221.521146 
L 166.673454 221.521146 
L 166.673454 220.99446 
L 167.190782 220.99446 
L 167.190782 219.941088 
L 167.502494 219.941088 
L 167.502494 218.36103 
L 167.619287 218.36103 
L 167.619287 216.780971 
L 167.745812 216.780971 
L 167.76681 215.200913 
L 168.037515 215.200913 
L 168.047843 214.147541 
L 168.435853 214.147541 
L 168.435853 213.620855 
L 168.656606 213.620855 
L 168.656606 213.094169 
L 169.206229 213.094169 
L 169.27373 211.514111 
L 169.616809 211.514111 
L 169.682742 209.934052 
L 169.729685 209.934052 
L 169.729685 209.407366 
L 169.86976 209.407366 
L 169.925477 205.720564 
L 170.28336 205.720564 
L 170.28336 204.140506 
L 170.544796 204.140506 
L 170.544796 203.613819 
L 171.090919 203.613819 
L 171.18605 200.980389 
L 171.374771 200.980389 
L 171.374771 198.346959 
L 171.502282 198.346959 
L 171.56147 196.7669 
L 171.746192 196.7669 
L 171.746192 196.240214 
L 171.862732 196.240214 
L 171.895887 193.080098 
L 172.06072 193.080098 
L 172.158878 190.973354 
L 172.272701 190.973354 
L 172.329335 187.286551 
L 172.409924 187.286551 
L 172.417962 185.706493 
L 172.63361 185.706493 
L 172.736497 183.073062 
L 172.783779 183.073062 
L 172.783779 182.01969 
L 173.00275 182.01969 
L 173.033809 178.859574 
L 173.349008 178.859574 
L 173.349008 178.332888 
L 173.538444 178.332888 
L 173.636143 176.226143 
L 173.681051 176.226143 
L 173.740749 171.485969 
L 173.999552 171.485969 
L 174.094709 166.745794 
L 174.218366 166.745794 
L 174.290699 163.585677 
L 174.384284 163.585677 
L 174.448781 161.478933 
L 174.66913 161.478933 
L 174.746654 159.898875 
L 174.872772 159.898875 
L 174.872772 159.372189 
L 175.046437 159.372189 
L 175.122305 156.212072 
L 175.490035 156.212072 
L 175.564001 155.1587 
L 175.610908 155.1587 
L 175.697687 151.998584 
L 175.790662 151.998584 
L 175.876553 146.731723 
L 175.922628 146.731723 
L 175.922628 146.205037 
L 176.177125 146.205037 
L 176.254691 141.464862 
L 176.319066 141.464862 
L 176.370396 140.41149 
L 176.459861 140.41149 
L 176.567884 138.304745 
L 176.631116 138.304745 
L 176.637426 136.198001 
L 176.806955 136.198001 
L 176.912855 130.404454 
L 176.94388 130.404454 
L 176.956275 127.771024 
L 177.208443 127.771024 
L 177.208443 127.244338 
L 177.336204 127.244338 
L 177.336204 126.717652 
L 177.523109 126.717652 
L 177.606866 124.084221 
L 177.672393 124.084221 
L 177.743598 120.397419 
L 177.937926 120.397419 
L 178.037196 115.657244 
L 178.072098 115.657244 
L 178.182162 110.917069 
L 178.199477 110.917069 
L 178.285796 108.810325 
L 178.314474 108.810325 
L 178.314474 108.283639 
L 178.440102 108.283639 
L 178.440102 107.230267 
L 179.005507 107.230267 
L 179.082454 105.650209 
L 179.235335 105.650209 
L 179.267922 103.016778 
L 179.397663 103.016778 
L 179.467538 101.43672 
L 179.733711 101.43672 
L 179.781193 96.696545 
L 179.89672 96.696545 
L 179.943762 92.483056 
L 180.078951 92.483056 
L 180.078951 91.95637 
L 180.305371 91.95637 
L 180.310483 87.742882 
L 180.769504 87.742882 
L 180.873738 86.68951 
L 180.898464 86.68951 
L 180.997019 85.109451 
L 181.046089 85.109451 
L 181.046089 84.582765 
L 181.352092 84.582765 
L 181.424165 81.422649 
L 181.733085 81.422649 
L 181.794218 79.842591 
L 181.906518 79.842591 
L 181.990272 77.735846 
L 182.26658 77.735846 
L 182.32132 76.155788 
L 182.47549 76.155788 
L 182.47549 75.629102 
L 182.601439 75.629102 
L 182.695307 72.468985 
L 182.828533 72.468985 
L 182.828533 71.942299 
L 183.157214 71.942299 
L 183.261097 70.888927 
L 183.269726 70.888927 
L 183.269726 69.835555 
L 183.825827 69.835555 
L 183.825827 69.308869 
L 183.950721 69.308869 
L 184.012834 67.202125 
L 184.226462 67.202125 
L 184.226462 66.148752 
L 184.457665 66.148752 
L 184.542078 60.355206 
L 184.757282 60.355206 
L 184.761242 58.775147 
L 184.977686 58.775147 
L 184.977686 57.721775 
L 185.299317 57.721775 
L 185.299317 57.195089 
L 185.584933 57.195089 
L 185.611353 56.141717 
L 185.93272 56.141717 
L 186.006616 53.508287 
L 186.251908 53.508287 
L 186.266444 51.928228 
L 186.400328 51.928228 
L 186.400328 51.401542 
L 186.629513 51.401542 
L 186.728842 48.768112 
L 186.915323 48.768112 
L 186.915323 48.241426 
L 187.179296 48.241426 
L 187.289259 44.554623 
L 187.507125 44.554623 
L 187.507125 44.027937 
L 187.779016 44.027937 
L 187.779016 43.501251 
L 188.684355 43.501251 
L 188.684355 42.974565 
L 188.982202 42.974565 
L 189.059744 39.814448 
L 189.299485 39.814448 
L 189.372593 38.761076 
L 189.641057 38.761076 
L 189.647043 36.654332 
L 189.926077 36.654332 
L 189.926077 36.127646 
L 190.425372 36.127646 
L 190.533779 34.547588 
L 190.644343 34.547588 
L 190.644343 30.860785 
L 191.126514 30.860785 
L 191.126514 30.334099 
L 338.688 30.334099 
L 338.688 30.334099 
" style="fill:none;stroke:#008000;stroke-linecap:square;stroke-width:1.5;"/>
   </g>
   <g id="line2d_35">
    <defs>
     <path d="M -0 6 
L 6 -6 
L -6 -6 
z
" id="me3c4b2f7ca" style="stroke:#008000;stroke-linejoin:miter;stroke-width:1.5;"/>
    </defs>
    <g>
     <use style="fill-opacity:0;stroke:#008000;stroke-linejoin:miter;stroke-width:1.5;" x="152.130233" xlink:href="#me3c4b2f7ca" y="240.481845"/>
     <use style="fill-opacity:0;stroke:#008000;stroke-linejoin:miter;stroke-width:1.5;" x="174.66913" xlink:href="#me3c4b2f7ca" y="160.952247"/>
     <use style="fill-opacity:0;stroke:#008000;stroke-linejoin:miter;stroke-width:1.5;" x="191.126514" xlink:href="#me3c4b2f7ca" y="30.860785"/>
     <use style="fill-opacity:0;stroke:#008000;stroke-linejoin:miter;stroke-width:1.5;" x="191.126514" xlink:href="#me3c4b2f7ca" y="30.334099"/>
     <use style="fill-opacity:0;stroke:#008000;stroke-linejoin:miter;stroke-width:1.5;" x="191.126514" xlink:href="#me3c4b2f7ca" y="30.334099"/>
     <use style="fill-opacity:0;stroke:#008000;stroke-linejoin:miter;stroke-width:1.5;" x="338.688" xlink:href="#me3c4b2f7ca" y="30.334099"/>
    </g>
   </g>
   <g id="line2d_36">
    <path style="fill:none;stroke:#008000;stroke-linecap:square;stroke-width:1.5;"/>
    <g/>
   </g>
   <g id="line2d_37">
    <defs>
     <path d="M 0 1.5 
C 0.397805 1.5 0.77937 1.341951 1.06066 1.06066 
C 1.341951 0.77937 1.5 0.397805 1.5 0 
C 1.5 -0.397805 1.341951 -0.77937 1.06066 -1.06066 
C 0.77937 -1.341951 0.397805 -1.5 0 -1.5 
C -0.397805 -1.5 -0.77937 -1.341951 -1.06066 -1.06066 
C -1.341951 -0.77937 -1.5 -0.397805 -1.5 0 
C -1.5 0.397805 -1.341951 0.77937 -1.06066 1.06066 
C -0.77937 1.341951 -0.397805 1.5 0 1.5 
z
" id="m6971489d0e" style="stroke:#0000ff;"/>
    </defs>
    <g>
     <use style="fill:#0000ff;stroke:#0000ff;" x="213.555104" xlink:href="#m6971489d0e" y="30.334099"/>
     <use style="fill:#0000ff;stroke:#0000ff;" x="213.555104" xlink:href="#m6971489d0e" y="30.334099"/>
    </g>
   </g>
   <g id="line2d_38">
    <path d="M 29.53256 298.944 
L 29.53256 296.31057 
L 41.620548 296.31057 
L 41.620548 294.203825 
L 48.691568 294.203825 
L 48.691568 288.936964 
L 53.708537 288.936964 
L 53.708537 287.883592 
L 57.6 287.883592 
L 57.6 286.303534 
L 60.779557 286.303534 
L 60.779557 285.776848 
L 63.467834 285.776848 
L 63.467834 284.19679 
L 65.796525 284.19679 
L 65.796525 283.670104 
L 71.35013 283.670104 
L 71.35013 283.143418 
L 72.867545 283.143418 
L 72.867545 282.616732 
L 74.263433 282.616732 
L 74.263433 281.563359 
L 75.555822 281.563359 
L 75.555822 281.036673 
L 82.626842 281.036673 
L 82.626842 280.509987 
L 83.438118 280.509987 
L 83.438118 279.983301 
L 84.213325 279.983301 
L 84.213325 278.929929 
L 85.66744 278.929929 
L 85.66744 277.349871 
L 88.846997 277.349871 
L 88.846997 276.823185 
L 92.026554 276.823185 
L 92.026554 276.296499 
L 93.863965 276.296499 
L 93.863965 275.243126 
L 100.040467 275.243126 
L 100.040467 274.189754 
L 102.597126 274.189754 
L 102.597126 273.663068 
L 104.114542 273.663068 
L 104.114542 273.136382 
L 104.355088 273.136382 
L 104.355088 272.609696 
L 104.826449 272.609696 
L 104.826449 272.08301 
L 107.213174 272.08301 
L 107.213174 270.502952 
L 112.72987 270.502952 
L 112.72987 269.976266 
L 116.914437 269.976266 
L 116.914437 269.449579 
L 119.40226 269.449579 
L 119.40226 268.396207 
L 120.382253 268.396207 
L 120.382253 267.869521 
L 120.571812 267.869521 
L 120.571812 267.342835 
L 132.612604 267.342835 
L 132.612604 266.816149 
L 143.040814 266.816149 
L 143.040814 266.289463 
L 145.02832 266.289463 
L 145.02832 265.762777 
L 148.161434 265.762777 
L 148.23877 264.182719 
L 148.506778 264.182719 
L 148.506778 263.656033 
L 148.752007 263.656033 
L 148.752007 263.129347 
L 156.08947 263.129347 
L 156.08947 262.60266 
L 156.92979 262.60266 
L 156.92979 262.075974 
L 157.277891 262.075974 
L 157.277891 261.549288 
L 157.898572 261.549288 
L 157.898572 261.022602 
L 159.867418 261.022602 
L 159.867418 260.495916 
L 160.642194 260.495916 
L 160.642194 259.96923 
L 162.754039 259.96923 
L 162.754039 259.442544 
L 163.36427 259.442544 
L 163.36427 258.389172 
L 164.117618 258.389172 
L 164.117618 256.809114 
L 164.727712 256.809114 
L 164.727712 256.282427 
L 165.838222 256.282427 
L 165.838222 255.755741 
L 166.054862 255.755741 
L 166.054862 255.229055 
L 166.500553 255.229055 
L 166.541125 253.648997 
L 166.715855 253.648997 
L 166.715855 252.595625 
L 167.020769 252.595625 
L 167.020769 252.068939 
L 167.867253 252.068939 
L 167.867253 251.542253 
L 167.979563 251.542253 
L 168.084975 248.908822 
L 168.103511 248.908822 
L 168.128195 247.85545 
L 168.722291 247.85545 
L 168.77585 245.748706 
L 169.325624 245.748706 
L 169.388841 244.695334 
L 169.468969 244.695334 
L 169.514592 243.641962 
L 169.997643 243.641962 
L 170.080543 242.061903 
L 170.179505 242.061903 
L 170.179505 241.535217 
L 170.35949 241.535217 
L 170.35949 241.008531 
L 170.793552 241.008531 
L 170.893823 239.955159 
L 171.35599 239.955159 
L 171.35599 239.428473 
L 171.498894 239.428473 
L 171.580031 237.848415 
L 171.665827 237.848415 
L 171.756212 234.688298 
L 171.81621 234.688298 
L 171.880975 231.528182 
L 172.083673 231.528182 
L 172.083673 231.001496 
L 172.371288 231.001496 
L 172.472525 229.948123 
L 172.506141 229.948123 
L 172.568398 228.894751 
L 172.69225 228.894751 
L 172.69225 228.368065 
L 172.866999 228.368065 
L 172.960734 226.261321 
L 173.021392 226.261321 
L 173.091121 224.154577 
L 173.243551 224.154577 
L 173.243551 223.627891 
L 173.612145 223.627891 
L 173.670583 222.047832 
L 173.751176 222.047832 
L 173.751176 221.521146 
L 174.069872 221.521146 
L 174.069872 220.99446 
L 174.187897 220.99446 
L 174.296472 218.887716 
L 174.369919 218.887716 
L 174.434469 217.834344 
L 174.528713 217.834344 
L 174.6182 214.674227 
L 174.65217 214.674227 
L 174.719912 212.040797 
L 174.787391 212.040797 
L 174.833633 210.987425 
L 174.913216 210.987425 
L 174.913216 210.460738 
L 175.096133 210.460738 
L 175.166295 207.827308 
L 175.362888 207.827308 
L 175.362888 207.300622 
L 175.533108 207.300622 
L 175.537141 206.24725 
L 175.657689 206.24725 
L 175.657689 205.720564 
L 175.833 205.720564 
L 175.868643 203.613819 
L 175.979068 203.613819 
L 175.979068 202.560447 
L 176.155086 202.560447 
L 176.236623 201.507075 
L 176.275317 201.507075 
L 176.352448 199.400331 
L 176.547601 199.400331 
L 176.627328 197.293586 
L 176.665166 197.293586 
L 176.725536 195.186842 
L 176.920306 195.186842 
L 177.005766 192.553412 
L 177.035393 192.553412 
L 177.120292 188.339923 
L 177.182778 188.339923 
L 177.277915 185.706493 
L 177.387048 185.706493 
L 177.459425 184.653121 
L 177.563841 184.653121 
L 177.599702 183.073062 
L 177.689034 183.073062 
L 177.689034 182.546376 
L 177.823948 182.546376 
L 177.929726 179.912946 
L 177.964843 179.912946 
L 178.003391 178.859574 
L 178.111569 178.859574 
L 178.177541 177.806202 
L 178.243265 177.806202 
L 178.270865 176.752829 
L 178.432134 176.752829 
L 178.52071 171.485969 
L 178.720057 171.485969 
L 178.777076 166.219108 
L 178.920473 166.219108 
L 178.963594 164.63905 
L 179.13174 164.63905 
L 179.236422 163.058991 
L 179.29178 163.058991 
L 179.29178 162.532305 
L 179.431023 162.532305 
L 179.51789 160.952247 
L 179.543545 160.952247 
L 179.620286 159.898875 
L 179.69669 159.898875 
L 179.772761 158.318817 
L 179.845353 158.318817 
L 179.933319 155.1587 
L 179.992759 155.1587 
L 180.095517 151.471897 
L 180.188411 151.471897 
L 180.240832 149.891839 
L 180.372728 149.891839 
L 180.479353 143.571606 
L 180.576272 143.571606 
L 180.633564 140.938176 
L 180.723643 140.938176 
L 180.819217 138.831432 
L 180.854923 138.831432 
L 180.964558 134.617943 
L 181.02059 134.617943 
L 181.096975 133.037885 
L 181.132117 133.037885 
L 181.146739 131.984513 
L 181.251655 131.984513 
L 181.347276 129.877768 
L 181.370378 129.877768 
L 181.370378 128.824396 
L 181.559813 128.824396 
L 181.645244 124.084221 
L 181.823298 124.084221 
L 181.929824 121.450791 
L 181.938206 121.450791 
L 182.016247 116.710616 
L 182.10501 116.710616 
L 182.190572 114.077186 
L 182.294884 114.077186 
L 182.333158 113.023814 
L 182.425761 113.023814 
L 182.523278 108.810325 
L 182.56375 108.810325 
L 182.673896 106.703581 
L 182.695307 106.703581 
L 182.767376 105.650209 
L 182.92119 105.650209 
L 182.971284 103.543464 
L 183.050088 103.543464 
L 183.050088 103.016778 
L 183.17804 103.016778 
L 183.20144 99.329976 
L 183.341183 99.329976 
L 183.341183 98.276603 
L 183.461906 98.276603 
L 183.546172 96.169859 
L 183.723582 96.169859 
L 183.791533 94.063115 
L 183.956527 94.063115 
L 184.028534 92.483056 
L 184.110113 92.483056 
L 184.193766 90.902998 
L 184.279463 90.902998 
L 184.33555 89.32294 
L 184.505147 89.32294 
L 184.548492 86.68951 
L 184.62768 86.68951 
L 184.713659 84.582765 
L 184.758866 84.582765 
L 184.758866 84.056079 
L 184.931475 84.056079 
L 184.966732 80.369277 
L 185.086075 80.369277 
L 185.190704 77.20916 
L 185.46212 77.20916 
L 185.528183 75.629102 
L 185.582666 75.629102 
L 185.68662 73.522358 
L 185.819051 73.522358 
L 185.819051 72.995672 
L 185.93272 72.995672 
L 186.001453 70.888927 
L 186.061097 70.888927 
L 186.061097 69.835555 
L 186.199479 69.835555 
L 186.199479 69.308869 
L 186.364967 69.308869 
L 186.380131 68.255497 
L 186.5289 68.255497 
L 186.629513 66.148752 
L 186.712563 66.148752 
L 186.763474 64.568694 
L 186.948888 64.568694 
L 186.963553 62.46195 
L 187.159291 62.46195 
L 187.159291 61.408578 
L 187.477329 61.408578 
L 187.522003 60.355206 
L 187.771687 60.355206 
L 187.771687 59.82852 
L 188.069022 59.82852 
L 188.069022 57.721775 
L 197.315743 57.721775 
L 197.315743 57.195089 
L 197.746421 57.195089 
L 197.746421 56.668403 
L 197.952819 56.668403 
L 197.952819 56.141717 
L 198.145778 56.141717 
L 198.147983 55.088345 
L 198.330078 55.088345 
L 198.394343 53.508287 
L 198.938094 53.508287 
L 199.034781 51.928228 
L 199.074561 51.928228 
L 199.074561 51.401542 
L 199.232779 51.401542 
L 199.232779 50.874856 
L 199.403946 50.874856 
L 199.403946 50.34817 
L 199.568367 50.34817 
L 199.615061 49.294798 
L 199.728232 49.294798 
L 199.728232 48.768112 
L 200.193333 48.768112 
L 200.193333 48.241426 
L 200.320357 48.241426 
L 200.359256 47.188054 
L 200.602343 47.188054 
L 200.709303 46.134681 
L 200.789095 46.134681 
L 200.789095 45.607995 
L 201.262174 45.607995 
L 201.355086 43.501251 
L 201.409133 43.501251 
L 201.435637 42.447879 
L 201.562118 42.447879 
L 201.629081 41.394507 
L 201.803421 41.394507 
L 201.831119 39.814448 
L 201.927272 39.814448 
L 201.927272 39.287762 
L 202.165361 39.287762 
L 202.218704 38.23439 
L 202.343118 38.23439 
L 202.343118 37.707704 
L 202.543953 37.707704 
L 202.555947 36.654332 
L 202.960585 36.654332 
L 202.960585 36.127646 
L 203.160264 36.127646 
L 203.160264 35.60096 
L 203.520508 35.60096 
L 203.52618 34.547588 
L 207.88253 34.547588 
L 207.88253 34.020902 
L 208.255851 34.020902 
L 208.255851 33.494215 
L 208.40101 33.494215 
L 208.40101 32.967529 
L 209.008351 32.967529 
L 209.008351 32.440843 
L 209.146231 32.440843 
L 209.146231 31.914157 
L 209.60097 31.914157 
L 209.60097 31.387471 
L 209.803351 31.387471 
L 209.803351 30.860785 
L 213.555104 30.860785 
L 213.555104 30.334099 
L 338.688 30.334099 
L 338.688 30.334099 
" style="fill:none;stroke:#0000ff;stroke-linecap:square;stroke-width:1.5;"/>
   </g>
   <g id="line2d_39">
    <defs>
     <path d="M 0 -6 
L -1.347084 -1.854102 
L -5.706339 -1.854102 
L -2.179628 0.708204 
L -3.526712 4.854102 
L -0 2.291796 
L 3.526712 4.854102 
L 2.179628 0.708204 
L 5.706339 -1.854102 
L 1.347084 -1.854102 
z
" id="mff8fde6b5a" style="stroke:#0000ff;stroke-linejoin:bevel;stroke-width:1.5;"/>
    </defs>
    <g>
     <use style="fill-opacity:0;stroke:#0000ff;stroke-linejoin:bevel;stroke-width:1.5;" x="107.213174" xlink:href="#mff8fde6b5a" y="272.08301"/>
     <use style="fill-opacity:0;stroke:#0000ff;stroke-linejoin:bevel;stroke-width:1.5;" x="177.219431" xlink:href="#mff8fde6b5a" y="186.759865"/>
     <use style="fill-opacity:0;stroke:#0000ff;stroke-linejoin:bevel;stroke-width:1.5;" x="213.555104" xlink:href="#mff8fde6b5a" y="30.860785"/>
     <use style="fill-opacity:0;stroke:#0000ff;stroke-linejoin:bevel;stroke-width:1.5;" x="213.555104" xlink:href="#mff8fde6b5a" y="30.334099"/>
     <use style="fill-opacity:0;stroke:#0000ff;stroke-linejoin:bevel;stroke-width:1.5;" x="213.555104" xlink:href="#mff8fde6b5a" y="30.334099"/>
     <use style="fill-opacity:0;stroke:#0000ff;stroke-linejoin:bevel;stroke-width:1.5;" x="338.688" xlink:href="#mff8fde6b5a" y="30.334099"/>
    </g>
   </g>
   <g id="line2d_40">
    <path style="fill:none;stroke:#0000ff;stroke-linecap:square;stroke-width:1.5;"/>
    <g/>
   </g>
   <g id="line2d_41">
    <path clip-path="url(#p070cb4a0f8)" d="M 194.995972 57.721775 
" style="fill:none;stroke:#0000ff;stroke-linecap:square;stroke-width:1.5;"/>
    <defs>
     <path d="M -12 12 
L 12 -12 
M -12 -12 
L 12 12 
" id="m9539c52916" style="stroke:#0000ff;"/>
    </defs>
    <g clip-path="url(#p070cb4a0f8)">
     <use style="fill:#0000ff;stroke:#0000ff;" x="194.995972" xlink:href="#m9539c52916" y="57.721775"/>
    </g>
   </g>
   <g id="line2d_42">
    <defs>
     <path d="M 0 1.5 
C 0.397805 1.5 0.77937 1.341951 1.06066 1.06066 
C 1.341951 0.77937 1.5 0.397805 1.5 0 
C 1.5 -0.397805 1.341951 -0.77937 1.06066 -1.06066 
C 0.77937 -1.341951 0.397805 -1.5 0 -1.5 
C -0.397805 -1.5 -0.77937 -1.341951 -1.06066 -1.06066 
C -1.341951 -0.77937 -1.5 -0.397805 -1.5 0 
C -1.5 0.397805 -1.341951 0.77937 -1.06066 1.06066 
C -0.77937 1.341951 -0.397805 1.5 0 1.5 
z
" id="m1d1ed262db" style="stroke:#000000;"/>
    </defs>
    <g>
     <use style="stroke:#000000;" x="190.623984" xlink:href="#m1d1ed262db" y="30.334099"/>
     <use style="stroke:#000000;" x="190.623984" xlink:href="#m1d1ed262db" y="30.334099"/>
    </g>
   </g>
   <g id="line2d_43">
    <path d="M 17.444571 298.944 
L 17.444571 293.150453 
L 29.53256 293.150453 
L 29.53256 289.463651 
L 36.60358 289.463651 
L 36.60358 287.883592 
L 41.620548 287.883592 
L 41.620548 286.303534 
L 45.512012 286.303534 
L 45.512012 285.250162 
L 48.691568 285.250162 
L 48.691568 284.723476 
L 55.762588 284.723476 
L 55.762588 283.670104 
L 60.779557 283.670104 
L 60.779557 283.143418 
L 68.79347 283.143418 
L 68.79347 282.616732 
L 72.125336 282.616732 
L 72.125336 282.090045 
L 74.263433 282.090045 
L 74.263433 281.563359 
L 85.315119 281.563359 
L 85.315119 279.983301 
L 104.114542 279.983301 
L 104.114542 279.456615 
L 106.906317 279.456615 
L 106.906317 278.929929 
L 115.586238 278.929929 
L 115.586238 278.403243 
L 119.65247 278.403243 
L 119.65247 277.876557 
L 120.382253 277.876557 
L 120.382253 277.349871 
L 121.174025 277.349871 
L 121.174025 276.296499 
L 121.489881 276.296499 
L 121.489881 275.769812 
L 122.740699 275.769812 
L 122.740699 275.243126 
L 138.943469 275.243126 
L 138.943469 274.71644 
L 144.087359 274.71644 
L 144.087359 274.189754 
L 145.598655 274.189754 
L 145.598655 273.663068 
L 145.799493 273.663068 
L 145.799493 273.136382 
L 147.205618 273.136382 
L 147.205618 272.609696 
L 152.237931 272.609696 
L 152.237931 272.08301 
L 154.8141 272.08301 
L 154.8141 271.556324 
L 154.978716 271.556324 
L 154.978716 271.029638 
L 157.709073 271.029638 
L 157.709073 270.502952 
L 158.031107 270.502952 
L 158.031107 269.976266 
L 158.168101 269.976266 
L 158.276927 267.869521 
L 160.394148 267.869521 
L 160.394148 267.342835 
L 160.523381 267.342835 
L 160.627979 265.762777 
L 160.910098 265.762777 
L 160.910098 265.236091 
L 161.854219 265.236091 
L 161.854219 264.709405 
L 162.169475 264.709405 
L 162.169475 264.182719 
L 163.404741 264.182719 
L 163.404741 263.129347 
L 163.569701 263.129347 
L 163.653591 262.075974 
L 163.733114 262.075974 
L 163.800424 261.022602 
L 163.879282 261.022602 
L 163.879282 260.495916 
L 164.039833 260.495916 
L 164.039833 259.96923 
L 164.160252 259.96923 
L 164.245209 258.915858 
L 164.413891 258.915858 
L 164.413891 258.389172 
L 164.645079 258.389172 
L 164.645079 257.862486 
L 164.813684 257.862486 
L 164.813684 256.809114 
L 165.168018 256.809114 
L 165.197224 255.229055 
L 165.299059 255.229055 
L 165.299059 254.702369 
L 165.558223 254.702369 
L 165.618857 253.122311 
L 166.261982 253.122311 
L 166.261982 252.595625 
L 166.381675 252.595625 
L 166.381675 252.068939 
L 166.510705 252.068939 
L 166.510705 251.542253 
L 166.672336 251.542253 
L 166.672336 251.015567 
L 166.81587 251.015567 
L 166.81587 249.435508 
L 167.233027 249.435508 
L 167.265454 248.382136 
L 167.564173 248.382136 
L 167.570541 246.802078 
L 167.694258 246.802078 
L 167.801403 244.695334 
L 167.864123 244.695334 
L 167.864123 244.168648 
L 168.122027 244.168648 
L 168.122027 243.641962 
L 168.284739 243.641962 
L 168.31527 242.588589 
L 168.47922 242.588589 
L 168.47922 242.061903 
L 168.849965 242.061903 
L 168.923766 239.955159 
L 169.038277 239.955159 
L 169.049979 238.901787 
L 169.548731 238.901787 
L 169.568615 237.848415 
L 169.709984 237.848415 
L 169.791457 236.795043 
L 169.908781 236.795043 
L 169.908781 236.268356 
L 170.176764 236.268356 
L 170.195944 235.214984 
L 170.305145 235.214984 
L 170.364915 233.10824 
L 170.497308 233.10824 
L 170.601968 231.528182 
L 170.612667 231.528182 
L 170.612667 231.001496 
L 170.793552 231.001496 
L 170.793552 230.47481 
L 171.097855 230.47481 
L 171.193811 228.894751 
L 171.255771 228.894751 
L 171.255771 228.368065 
L 171.389269 228.368065 
L 171.498894 227.314693 
L 171.592674 227.314693 
L 171.690981 224.154577 
L 171.838656 224.154577 
L 171.888432 222.574518 
L 172.091045 222.574518 
L 172.198801 220.467774 
L 172.206123 220.467774 
L 172.267028 219.414402 
L 172.334989 219.414402 
L 172.402686 217.834344 
L 172.704113 217.834344 
L 172.810515 215.200913 
L 172.819942 215.200913 
L 172.845839 213.094169 
L 173.155951 213.094169 
L 173.204416 211.514111 
L 173.406055 211.514111 
L 173.453831 210.460738 
L 173.677313 210.460738 
L 173.746708 209.407366 
L 173.87137 209.407366 
L 173.970903 206.773936 
L 174.13554 206.773936 
L 174.198785 204.140506 
L 174.305129 204.140506 
L 174.404376 201.507075 
L 174.550061 201.507075 
L 174.643683 199.400331 
L 174.66913 199.400331 
L 174.719912 198.346959 
L 174.829434 198.346959 
L 174.829434 197.293586 
L 175.071303 197.293586 
L 175.071303 196.240214 
L 175.248478 196.240214 
L 175.328236 194.13347 
L 175.373067 194.13347 
L 175.429958 192.553412 
L 175.486665 192.553412 
L 175.486665 192.026726 
L 175.605554 192.026726 
L 175.703679 188.339923 
L 175.93577 188.339923 
L 176.037938 186.759865 
L 176.069255 186.759865 
L 176.114174 185.706493 
L 176.23856 185.706493 
L 176.29077 184.653121 
L 176.388966 184.653121 
L 176.494247 182.01969 
L 176.541893 182.01969 
L 176.651932 180.439632 
L 176.755642 180.439632 
L 176.845652 176.752829 
L 176.875552 176.752829 
L 176.976088 174.646085 
L 176.987223 174.646085 
L 177.068663 172.012655 
L 177.101871 172.012655 
L 177.101871 171.485969 
L 177.23407 171.485969 
L 177.23407 170.959282 
L 177.361644 170.959282 
L 177.397923 168.852538 
L 177.576401 168.852538 
L 177.644425 167.799166 
L 177.779683 167.799166 
L 177.873391 165.165736 
L 177.968351 165.165736 
L 178.076746 160.952247 
L 178.085458 160.952247 
L 178.167141 159.898875 
L 178.276035 159.898875 
L 178.324214 157.79213 
L 178.411629 157.79213 
L 178.476478 155.685386 
L 178.585156 155.685386 
L 178.689795 153.051956 
L 178.743558 153.051956 
L 178.835577 151.471897 
L 178.867253 151.471897 
L 178.961937 148.311781 
L 179.090678 148.311781 
L 179.121894 146.731723 
L 179.203777 146.731723 
L 179.264123 144.098292 
L 179.333994 144.098292 
L 179.432635 140.41149 
L 179.487375 140.41149 
L 179.487375 139.884804 
L 179.609115 139.884804 
L 179.69669 136.724687 
L 179.742689 136.724687 
L 179.783827 134.091257 
L 179.920779 134.091257 
L 179.989635 131.457826 
L 180.076879 131.457826 
L 180.183778 128.824396 
L 180.20076 128.824396 
L 180.217725 126.190966 
L 180.323767 126.190966 
L 180.323767 125.66428 
L 180.441348 125.66428 
L 180.54453 122.504163 
L 180.556629 122.504163 
L 180.606449 120.397419 
L 180.716154 120.397419 
L 180.811769 118.290674 
L 180.932036 118.290674 
L 181.041188 115.130558 
L 181.052948 115.130558 
L 181.143816 113.023814 
L 181.209473 113.023814 
L 181.30098 110.390383 
L 181.322696 110.390383 
L 181.433752 107.756953 
L 181.43519 107.756953 
L 181.496896 104.07015 
L 181.578358 104.07015 
L 181.642403 101.43672 
L 181.692053 101.43672 
L 181.757093 99.329976 
L 181.820486 99.329976 
L 181.88505 96.696545 
L 182.034313 96.696545 
L 182.139561 94.063115 
L 182.231822 94.063115 
L 182.316765 89.32294 
L 182.405376 89.32294 
L 182.505711 87.216196 
L 182.520577 87.216196 
L 182.585296 85.109451 
L 182.639047 85.109451 
L 182.732713 83.002707 
L 182.751386 83.002707 
L 182.844452 79.842591 
L 182.938344 79.842591 
L 183.02386 77.735846 
L 183.102427 77.735846 
L 183.174137 76.155788 
L 183.239074 76.155788 
L 183.336027 74.049044 
L 183.350202 74.049044 
L 183.42475 72.468985 
L 183.515577 72.468985 
L 183.567811 69.835555 
L 183.755074 69.835555 
L 183.821648 67.728811 
L 183.947817 67.728811 
L 184.03225 66.148752 
L 184.074314 66.148752 
L 184.10888 64.042008 
L 184.194994 64.042008 
L 184.250129 60.355206 
L 184.422977 60.355206 
L 184.485848 59.301833 
L 184.5521 59.301833 
L 184.636058 54.561659 
L 184.694589 54.561659 
L 184.741035 51.928228 
L 184.820539 51.928228 
L 184.847748 50.34817 
L 185.010118 50.34817 
L 185.07091 49.294798 
L 185.184908 49.294798 
L 185.26011 47.188054 
L 185.306227 47.188054 
L 185.306227 46.134681 
L 185.45413 46.134681 
L 185.45413 45.607995 
L 185.59173 45.607995 
L 185.63924 44.027937 
L 185.726005 44.027937 
L 185.754083 42.447879 
L 185.907153 42.447879 
L 185.993706 40.341135 
L 186.043446 40.341135 
L 186.106247 39.287762 
L 186.165534 39.287762 
L 186.199479 38.23439 
L 186.495591 38.23439 
L 186.514939 37.181018 
L 186.731672 37.181018 
L 186.731672 36.654332 
L 187.043988 36.654332 
L 187.043988 36.127646 
L 187.294396 36.127646 
L 187.294396 35.60096 
L 187.532141 35.60096 
L 187.544298 34.547588 
L 188.317831 34.547588 
L 188.317831 34.020902 
L 188.578418 34.020902 
L 188.578418 33.494215 
L 189.554635 33.494215 
L 189.554635 32.967529 
L 189.90663 32.967529 
L 189.90663 32.440843 
L 190.114992 32.440843 
L 190.114992 31.387471 
L 190.596801 31.387471 
L 190.623984 30.334099 
L 338.688 30.334099 
L 338.688 30.334099 
" style="fill:none;stroke:#000000;stroke-linecap:square;stroke-width:1.5;"/>
   </g>
   <g id="line2d_44">
    <defs>
     <path d="M 0 6 
C 1.591219 6 3.117479 5.367802 4.242641 4.242641 
C 5.367802 3.117479 6 1.591219 6 0 
C 6 -1.591219 5.367802 -3.117479 4.242641 -4.242641 
C 3.117479 -5.367802 1.591219 -6 0 -6 
C -1.591219 -6 -3.117479 -5.367802 -4.242641 -4.242641 
C -5.367802 -3.117479 -6 -1.591219 -6 0 
C -6 1.591219 -5.367802 3.117479 -4.242641 4.242641 
C -3.117479 5.367802 -1.591219 6 0 6 
z
" id="m0591f007f4" style="stroke:#000000;stroke-width:1.5;"/>
    </defs>
    <g>
     <use style="fill-opacity:0;stroke:#000000;stroke-width:1.5;" x="106.906317" xlink:href="#m0591f007f4" y="278.929929"/>
     <use style="fill-opacity:0;stroke:#000000;stroke-width:1.5;" x="173.195195" xlink:href="#m0591f007f4" y="212.040797"/>
     <use style="fill-opacity:0;stroke:#000000;stroke-width:1.5;" x="190.623984" xlink:href="#m0591f007f4" y="30.860785"/>
     <use style="fill-opacity:0;stroke:#000000;stroke-width:1.5;" x="190.623984" xlink:href="#m0591f007f4" y="30.334099"/>
     <use style="fill-opacity:0;stroke:#000000;stroke-width:1.5;" x="190.623984" xlink:href="#m0591f007f4" y="30.334099"/>
     <use style="fill-opacity:0;stroke:#000000;stroke-width:1.5;" x="338.688" xlink:href="#m0591f007f4" y="30.334099"/>
    </g>
   </g>
   <g id="line2d_45">
    <path style="fill:none;stroke:#000000;stroke-linecap:square;stroke-width:1.5;"/>
    <g/>
   </g>
   <g id="line2d_46">
    <defs>
     <path d="M 0 1.5 
C 0.397805 1.5 0.77937 1.341951 1.06066 1.06066 
C 1.341951 0.77937 1.5 0.397805 1.5 0 
C 1.5 -0.397805 1.341951 -0.77937 1.06066 -1.06066 
C 0.77937 -1.341951 0.397805 -1.5 0 -1.5 
C -0.397805 -1.5 -0.77937 -1.341951 -1.06066 -1.06066 
C -1.341951 -0.77937 -1.5 -0.397805 -1.5 0 
C -1.5 0.397805 -1.341951 0.77937 -1.06066 1.06066 
C -0.77937 1.341951 -0.397805 1.5 0 1.5 
z
" id="m9ee382d9a8" style="stroke:#ff0000;"/>
    </defs>
    <g>
     <use style="fill:#ff0000;stroke:#ff0000;" x="218.514576" xlink:href="#m9ee382d9a8" y="30.334099"/>
     <use style="fill:#ff0000;stroke:#ff0000;" x="218.514576" xlink:href="#m9ee382d9a8" y="30.334099"/>
    </g>
   </g>
   <g id="line2d_47">
    <path d="M 5.356583 298.944 
L 5.356583 293.150453 
L 17.444571 293.150453 
L 17.444571 289.463651 
L 24.515591 289.463651 
L 24.515591 288.936964 
L 29.53256 288.936964 
L 29.53256 288.410278 
L 33.424023 288.410278 
L 33.424023 287.883592 
L 43.6746 287.883592 
L 43.6746 287.356906 
L 54.765787 287.356906 
L 54.765787 286.83022 
L 59.262141 286.83022 
L 59.262141 286.303534 
L 60.037348 286.303534 
L 60.037348 285.776848 
L 72.500389 285.776848 
L 72.500389 285.250162 
L 76.759008 285.250162 
L 76.759008 284.723476 
L 87.798828 284.723476 
L 87.798828 284.19679 
L 91.905025 284.19679 
L 91.905025 283.670104 
L 102.060491 283.670104 
L 102.060491 283.143418 
L 122.823744 283.143418 
L 122.823744 282.616732 
L 134.577155 282.616732 
L 134.577155 282.090045 
L 136.522961 282.090045 
L 136.522961 281.563359 
L 138.170504 281.563359 
L 138.170504 281.036673 
L 141.767407 281.036673 
L 141.767407 280.509987 
L 152.877907 280.509987 
L 152.877907 279.983301 
L 155.520713 279.983301 
L 155.520713 279.456615 
L 157.380981 279.456615 
L 157.380981 278.929929 
L 157.647321 278.929929 
L 157.647321 278.403243 
L 158.484524 278.403243 
L 158.484524 277.876557 
L 159.303838 277.876557 
L 159.303838 277.349871 
L 159.565248 277.349871 
L 159.565248 276.823185 
L 160.353264 276.823185 
L 160.353264 276.296499 
L 160.530533 276.296499 
L 160.635088 275.243126 
L 160.790755 275.243126 
L 160.828284 274.189754 
L 160.977598 274.189754 
L 160.977598 273.663068 
L 161.386278 273.663068 
L 161.386278 273.136382 
L 161.602778 273.136382 
L 161.602778 272.609696 
L 161.915967 272.609696 
L 161.915967 272.08301 
L 162.286241 272.08301 
L 162.355069 270.502952 
L 162.644595 270.502952 
L 162.644595 269.976266 
L 163.072127 269.976266 
L 163.072127 269.449579 
L 163.398677 269.449579 
L 163.477355 267.342835 
L 163.81425 267.342835 
L 163.81425 266.816149 
L 164.279845 266.816149 
L 164.385253 265.762777 
L 164.518494 265.762777 
L 164.518494 265.236091 
L 165.291805 265.236091 
L 165.291805 264.709405 
L 165.434521 264.709405 
L 165.434521 263.656033 
L 165.841738 263.656033 
L 165.841738 263.129347 
L 165.993986 263.129347 
L 165.993986 262.60266 
L 166.138005 262.60266 
L 166.236226 261.022602 
L 166.544502 261.022602 
L 166.544502 260.495916 
L 166.825841 260.495916 
L 166.900435 259.442544 
L 167.056871 259.442544 
L 167.079807 258.389172 
L 167.211917 258.389172 
L 167.211917 257.862486 
L 167.368818 257.862486 
L 167.423481 256.809114 
L 167.560988 256.809114 
L 167.568949 255.755741 
L 167.760513 255.755741 
L 167.79669 254.702369 
L 168.015289 254.702369 
L 168.112771 253.648997 
L 168.126653 253.648997 
L 168.177458 252.068939 
L 168.281683 252.068939 
L 168.324419 251.015567 
L 168.863272 251.015567 
L 168.882476 249.962195 
L 169.197048 249.962195 
L 169.197048 249.435508 
L 169.331381 249.435508 
L 169.373059 247.328764 
L 169.45183 247.328764 
L 169.45183 246.802078 
L 169.570034 246.802078 
L 169.570034 246.275392 
L 169.774632 246.275392 
L 169.774632 245.748706 
L 169.947714 245.748706 
L 169.947714 245.22202 
L 170.184987 245.22202 
L 170.184987 244.695334 
L 170.333697 244.695334 
L 170.370339 243.641962 
L 170.545691 243.641962 
L 170.648728 242.061903 
L 170.696693 242.061903 
L 170.739218 239.955159 
L 170.883296 239.955159 
L 170.98698 238.901787 
L 171.011825 238.901787 
L 171.05359 237.321729 
L 171.15627 237.321729 
L 171.15627 236.795043 
L 171.339327 236.795043 
L 171.339327 236.268356 
L 171.486182 236.268356 
L 171.536974 235.214984 
L 171.701032 235.214984 
L 171.789986 233.634926 
L 171.889675 233.634926 
L 171.889675 233.10824 
L 172.033219 233.10824 
L 172.033219 232.581554 
L 172.260947 232.581554 
L 172.337411 231.528182 
L 172.497743 231.528182 
L 172.603022 228.894751 
L 172.660181 228.894751 
L 172.660181 228.368065 
L 172.859949 228.368065 
L 172.883439 227.314693 
L 173.056292 227.314693 
L 173.056292 226.788007 
L 173.169812 226.788007 
L 173.185969 225.734635 
L 173.343293 225.734635 
L 173.382118 224.681263 
L 173.524119 224.681263 
L 173.545602 223.627891 
L 173.679556 223.627891 
L 173.73218 222.574518 
L 173.808037 222.574518 
L 173.808037 222.047832 
L 174.012759 222.047832 
L 174.103831 220.467774 
L 174.160647 220.467774 
L 174.259633 219.414402 
L 174.275895 219.414402 
L 174.275895 218.887716 
L 174.410829 218.887716 
L 174.410829 218.36103 
L 174.553261 218.36103 
L 174.564989 217.307658 
L 174.670189 217.307658 
L 174.747357 215.727599 
L 174.950788 215.727599 
L 174.997638 214.674227 
L 175.095099 214.674227 
L 175.148781 213.620855 
L 175.283289 213.620855 
L 175.283289 213.094169 
L 175.406615 213.094169 
L 175.499803 210.987425 
L 175.544195 210.987425 
L 175.638658 209.407366 
L 175.6777 209.407366 
L 175.76448 206.773936 
L 175.818127 206.773936 
L 175.844889 205.193878 
L 176.011471 205.193878 
L 176.045773 204.140506 
L 176.191048 204.140506 
L 176.245337 202.033761 
L 176.356295 202.033761 
L 176.356295 201.507075 
L 176.634902 201.507075 
L 176.708578 199.927017 
L 176.778188 199.927017 
L 176.853131 198.873645 
L 177.004839 198.873645 
L 177.058504 197.820273 
L 177.262399 197.820273 
L 177.369814 195.186842 
L 177.377979 195.186842 
L 177.477472 193.606784 
L 177.498204 193.606784 
L 177.535998 192.026726 
L 177.688143 192.026726 
L 177.721082 190.446667 
L 177.911261 190.446667 
L 178.01214 188.339923 
L 178.025255 188.339923 
L 178.052329 186.759865 
L 178.148058 186.759865 
L 178.25707 185.706493 
L 178.27345 185.706493 
L 178.341389 184.126434 
L 178.502011 184.126434 
L 178.590234 182.01969 
L 178.629958 182.01969 
L 178.723416 180.439632 
L 178.796319 180.439632 
L 178.893052 178.859574 
L 178.936241 178.859574 
L 179.000825 176.226143 
L 179.102185 176.226143 
L 179.16534 173.592713 
L 179.23316 173.592713 
L 179.286902 172.539341 
L 179.389851 172.539341 
L 179.468879 170.432596 
L 179.535532 170.432596 
L 179.614701 168.852538 
L 179.730805 168.852538 
L 179.764853 167.799166 
L 179.84614 167.799166 
L 179.956806 165.692422 
L 180.049662 165.692422 
L 180.126537 163.058991 
L 180.212329 163.058991 
L 180.240063 161.478933 
L 180.337551 161.478933 
L 180.43602 158.845503 
L 180.491498 158.845503 
L 180.597401 157.265444 
L 180.639584 157.265444 
L 180.660636 156.212072 
L 180.780453 156.212072 
L 180.879428 154.632014 
L 180.892039 154.632014 
L 180.98596 151.471897 
L 181.03457 151.471897 
L 181.064699 149.891839 
L 181.248749 149.891839 
L 181.270531 148.311781 
L 181.391288 148.311781 
L 181.46607 146.205037 
L 181.580497 146.205037 
L 181.685677 143.04492 
L 181.701966 143.04492 
L 181.791636 140.41149 
L 181.898354 140.41149 
L 182.000945 138.304745 
L 182.109852 138.304745 
L 182.164396 136.198001 
L 182.253097 136.198001 
L 182.316765 135.144629 
L 182.435944 135.144629 
L 182.435944 134.617943 
L 182.61488 134.617943 
L 182.718027 131.984513 
L 182.797317 131.984513 
L 182.892784 129.351082 
L 182.944937 129.351082 
L 182.947573 128.29771 
L 183.112223 128.29771 
L 183.112223 127.771024 
L 183.327646 127.771024 
L 183.422185 125.137593 
L 183.456786 125.137593 
L 183.564631 123.030849 
L 183.633202 123.030849 
L 183.633202 122.504163 
L 183.839818 122.504163 
L 183.944082 120.397419 
L 184.031631 120.397419 
L 184.129216 119.344047 
L 184.188243 119.344047 
L 184.249517 117.763988 
L 184.320327 117.763988 
L 184.42661 115.657244 
L 184.444161 115.657244 
L 184.444161 115.130558 
L 184.661764 115.130558 
L 184.744603 114.077186 
L 184.795659 114.077186 
L 184.883765 112.497128 
L 184.910286 112.497128 
L 184.951463 110.917069 
L 185.134399 110.917069 
L 185.160543 109.863697 
L 185.258955 109.863697 
L 185.258955 109.337011 
L 185.429567 109.337011 
L 185.514535 107.230267 
L 185.573597 107.230267 
L 185.612673 105.650209 
L 185.917162 105.650209 
L 185.972663 104.596836 
L 186.042342 104.596836 
L 186.069365 103.543464 
L 186.215333 103.543464 
L 186.215333 103.016778 
L 186.4331 103.016778 
L 186.4331 102.490092 
L 186.584095 102.490092 
L 186.680135 100.383348 
L 186.697154 100.383348 
L 186.798918 99.329976 
L 187.022088 99.329976 
L 187.069503 97.749917 
L 187.15256 97.749917 
L 187.209949 96.169859 
L 187.326215 96.169859 
L 187.433559 95.116487 
L 187.482411 95.116487 
L 187.482411 94.589801 
L 187.625633 94.589801 
L 187.625633 94.063115 
L 187.765188 94.063115 
L 187.794164 93.009743 
L 188.078355 93.009743 
L 188.078355 92.483056 
L 188.430332 92.483056 
L 188.430332 91.95637 
L 188.570781 91.95637 
L 188.610362 90.902998 
L 188.904157 90.902998 
L 188.904157 90.376312 
L 195.684716 90.376312 
L 195.684716 89.849626 
L 195.991563 89.849626 
L 195.991563 89.32294 
L 196.166319 89.32294 
L 196.203033 88.269568 
L 196.76468 88.269568 
L 196.843884 86.68951 
L 196.921842 86.68951 
L 196.921842 86.162824 
L 197.035338 86.162824 
L 197.035338 85.636137 
L 197.176104 85.636137 
L 197.269708 83.529393 
L 197.315454 83.529393 
L 197.408602 82.476021 
L 197.436766 82.476021 
L 197.504402 80.895963 
L 197.697833 80.895963 
L 197.768975 78.789218 
L 197.842913 78.789218 
L 197.842913 78.262532 
L 198.005429 78.262532 
L 198.028205 77.20916 
L 198.199184 77.20916 
L 198.250508 75.629102 
L 198.313429 75.629102 
L 198.313429 75.102416 
L 198.488407 75.102416 
L 198.556133 74.049044 
L 198.611252 74.049044 
L 198.685187 72.995672 
L 198.734303 72.995672 
L 198.838749 70.362241 
L 198.934932 70.362241 
L 199.03216 68.255497 
L 199.048138 68.255497 
L 199.150726 66.148752 
L 199.159833 66.148752 
L 199.264871 64.042008 
L 199.307742 64.042008 
L 199.409332 62.46195 
L 199.423943 62.46195 
L 199.47358 61.408578 
L 199.5897 61.408578 
L 199.69799 60.355206 
L 199.757164 60.355206 
L 199.851927 59.301833 
L 199.912325 59.301833 
L 200.007986 57.721775 
L 200.030767 57.721775 
L 200.030767 57.195089 
L 200.164134 57.195089 
L 200.261846 53.508287 
L 200.330819 53.508287 
L 200.381826 52.454914 
L 200.451535 52.454914 
L 200.451535 51.928228 
L 200.65495 51.928228 
L 200.65495 51.401542 
L 200.850825 51.401542 
L 200.923862 49.821484 
L 201.001042 49.821484 
L 201.001042 49.294798 
L 201.532854 49.294798 
L 201.532854 48.768112 
L 201.64736 48.768112 
L 201.64736 48.241426 
L 201.773664 48.241426 
L 201.881487 47.188054 
L 205.735255 47.188054 
L 205.835951 46.134681 
L 205.873341 46.134681 
L 205.873341 45.607995 
L 206.066105 45.607995 
L 206.066105 45.081309 
L 206.242902 45.081309 
L 206.242902 44.554623 
L 206.420841 44.554623 
L 206.490179 43.501251 
L 206.640912 43.501251 
L 206.691487 40.867821 
L 207.00451 40.867821 
L 207.10888 39.287762 
L 207.622518 39.287762 
L 207.718009 37.707704 
L 207.829761 37.707704 
L 207.918304 36.127646 
L 208.25477 36.127646 
L 208.316276 35.074274 
L 208.422894 35.074274 
L 208.518829 33.494215 
L 209.096125 33.494215 
L 209.096125 32.967529 
L 210.866352 32.967529 
L 210.866352 32.440843 
L 211.458297 32.440843 
L 211.458297 31.914157 
L 212.362284 31.914157 
L 212.362284 31.387471 
L 212.927832 31.387471 
L 212.927832 30.860785 
L 218.514576 30.860785 
L 218.514576 30.334099 
L 338.688 30.334099 
L 338.688 30.334099 
" style="fill:none;stroke:#ff0000;stroke-linecap:square;stroke-width:1.5;"/>
   </g>
   <g id="line2d_48">
    <defs>
     <path d="M -6 6 
L 6 6 
L 6 -6 
L -6 -6 
z
" id="mb92096e9ad" style="stroke:#ff0000;stroke-linejoin:miter;stroke-width:1.5;"/>
    </defs>
    <g>
     <use style="fill-opacity:0;stroke:#ff0000;stroke-linejoin:miter;stroke-width:1.5;" x="102.060491" xlink:href="#mb92096e9ad" y="283.143418"/>
     <use style="fill-opacity:0;stroke:#ff0000;stroke-linejoin:miter;stroke-width:1.5;" x="181.626058" xlink:href="#mb92096e9ad" y="145.151665"/>
     <use style="fill-opacity:0;stroke:#ff0000;stroke-linejoin:miter;stroke-width:1.5;" x="218.514576" xlink:href="#mb92096e9ad" y="30.860785"/>
     <use style="fill-opacity:0;stroke:#ff0000;stroke-linejoin:miter;stroke-width:1.5;" x="218.514576" xlink:href="#mb92096e9ad" y="30.334099"/>
     <use style="fill-opacity:0;stroke:#ff0000;stroke-linejoin:miter;stroke-width:1.5;" x="218.514576" xlink:href="#mb92096e9ad" y="30.334099"/>
     <use style="fill-opacity:0;stroke:#ff0000;stroke-linejoin:miter;stroke-width:1.5;" x="338.688" xlink:href="#mb92096e9ad" y="30.334099"/>
    </g>
   </g>
   <g id="line2d_49">
    <path style="fill:none;stroke:#ff0000;stroke-linecap:square;stroke-width:1.5;"/>
    <g/>
   </g>
   <g id="line2d_50">
    <path clip-path="url(#p070cb4a0f8)" d="M 189.757409 90.376312 
" style="fill:none;stroke:#ff0000;stroke-linecap:square;stroke-width:1.5;"/>
    <defs>
     <path d="M -12 12 
L 12 -12 
M -12 -12 
L 12 12 
" id="maa459c8752" style="stroke:#ff0000;"/>
    </defs>
    <g clip-path="url(#p070cb4a0f8)">
     <use style="fill:#ff0000;stroke:#ff0000;" x="189.757409" xlink:href="#maa459c8752" y="90.376312"/>
    </g>
   </g>
   <g id="line2d_51">
    <path d="M 338.688 30.334099 
L 369.60768 293.571802 
" style="fill:none;stroke:#ff0000;stroke-linecap:square;stroke-width:1.5;"/>
    <g>
     <use style="fill-opacity:0;stroke:#ff0000;stroke-linejoin:miter;stroke-width:1.5;" x="338.688" xlink:href="#mb92096e9ad" y="30.334099"/>
     <use style="fill-opacity:0;stroke:#ff0000;stroke-linejoin:miter;stroke-width:1.5;" x="369.60768" xlink:href="#mb92096e9ad" y="293.571802"/>
    </g>
   </g>
   <g id="line2d_52">
    <path d="M 338.688 30.334099 
L 369.60768 229.105426 
" style="fill:none;stroke:#0000ff;stroke-linecap:square;stroke-width:1.5;"/>
    <g>
     <use style="fill-opacity:0;stroke:#0000ff;stroke-linejoin:bevel;stroke-width:1.5;" x="338.688" xlink:href="#mff8fde6b5a" y="30.334099"/>
     <use style="fill-opacity:0;stroke:#0000ff;stroke-linejoin:bevel;stroke-width:1.5;" x="369.60768" xlink:href="#mff8fde6b5a" y="229.105426"/>
    </g>
   </g>
   <g id="line2d_53">
    <path d="M 338.688 30.334099 
L 369.60768 164.63905 
" style="fill:none;stroke:#00bfbf;stroke-linecap:square;stroke-width:1.5;"/>
    <g>
     <use style="fill-opacity:0;stroke:#00bfbf;stroke-width:1.5;" x="338.688" xlink:href="#mbc257c794b" y="30.334099"/>
     <use style="fill-opacity:0;stroke:#00bfbf;stroke-width:1.5;" x="369.60768" xlink:href="#mbc257c794b" y="164.63905"/>
    </g>
   </g>
   <g id="line2d_54">
    <path d="M 338.688 30.334099 
L 369.60768 100.172673 
" style="fill:none;stroke:#008000;stroke-linecap:square;stroke-width:1.5;"/>
    <g>
     <use style="fill-opacity:0;stroke:#008000;stroke-linejoin:miter;stroke-width:1.5;" x="338.688" xlink:href="#me3c4b2f7ca" y="30.334099"/>
     <use style="fill-opacity:0;stroke:#008000;stroke-linejoin:miter;stroke-width:1.5;" x="369.60768" xlink:href="#me3c4b2f7ca" y="100.172673"/>
    </g>
   </g>
   <g id="line2d_55">
    <path d="M 338.688 30.334099 
L 369.60768 35.706297 
" style="fill:none;stroke:#000000;stroke-linecap:square;stroke-width:1.5;"/>
    <g>
     <use style="fill-opacity:0;stroke:#000000;stroke-width:1.5;" x="338.688" xlink:href="#m0591f007f4" y="30.334099"/>
     <use style="fill-opacity:0;stroke:#000000;stroke-width:1.5;" x="369.60768" xlink:href="#m0591f007f4" y="35.706297"/>
    </g>
   </g>
   <g id="line2d_56">
    <path d="M 338.688 298.944 
L 338.688 30.334099 
" style="fill:none;stroke:#000000;stroke-linecap:square;stroke-width:1.5;"/>
   </g>
   <g id="patch_3">
    <path d="M 57.6 298.944 
L 57.6 27.648 
" style="fill:none;stroke:#000000;stroke-linecap:square;stroke-linejoin:miter;stroke-width:0.8;"/>
   </g>
   <g id="patch_4">
    <path d="M 338.688 298.944 
L 338.688 27.648 
" style="fill:none;stroke:#000000;stroke-linecap:square;stroke-linejoin:miter;stroke-width:0.8;"/>
   </g>
   <g id="patch_5">
    <path d="M 57.6 298.944 
L 338.688 298.944 
" style="fill:none;stroke:#000000;stroke-linecap:square;stroke-linejoin:miter;stroke-width:0.8;"/>
   </g>
   <g id="patch_6">
    <path d="M 57.6 27.648 
L 338.688 27.648 
" style="fill:none;stroke:#000000;stroke-linecap:square;stroke-linejoin:miter;stroke-width:0.8;"/>
   </g>
   <g id="text_13">
    <!-- 20-D -->
    <g transform="translate(375.22944 298.262739)scale(0.17 -0.17)">
     <defs>
      <path d="M 1259 4147 
L 1259 519 
L 2022 519 
Q 2988 519 3436 956 
Q 3884 1394 3884 2338 
Q 3884 3275 3436 3711 
Q 2988 4147 2022 4147 
L 1259 4147 
z
M 628 4666 
L 1925 4666 
Q 3281 4666 3915 4102 
Q 4550 3538 4550 2338 
Q 4550 1131 3912 565 
Q 3275 0 1925 0 
L 628 0 
L 628 4666 
z
" id="DejaVuSans-44" transform="scale(0.015625)"/>
     </defs>
     <use xlink:href="#DejaVuSans-32"/>
     <use x="63.623047" xlink:href="#DejaVuSans-30"/>
     <use x="127.246094" xlink:href="#DejaVuSans-2d"/>
     <use x="163.330078" xlink:href="#DejaVuSans-44"/>
    </g>
   </g>
   <g id="text_14">
    <!-- 5-D -->
    <g transform="translate(375.22944 233.796363)scale(0.17 -0.17)">
     <defs>
      <path d="M 691 4666 
L 3169 4666 
L 3169 4134 
L 1269 4134 
L 1269 2991 
Q 1406 3038 1543 3061 
Q 1681 3084 1819 3084 
Q 2600 3084 3056 2656 
Q 3513 2228 3513 1497 
Q 3513 744 3044 326 
Q 2575 -91 1722 -91 
Q 1428 -91 1123 -41 
Q 819 9 494 109 
L 494 744 
Q 775 591 1075 516 
Q 1375 441 1709 441 
Q 2250 441 2565 725 
Q 2881 1009 2881 1497 
Q 2881 1984 2565 2268 
Q 2250 2553 1709 2553 
Q 1456 2553 1204 2497 
Q 953 2441 691 2322 
L 691 4666 
z
" id="DejaVuSans-35" transform="scale(0.015625)"/>
     </defs>
     <use xlink:href="#DejaVuSans-35"/>
     <use x="63.623047" xlink:href="#DejaVuSans-2d"/>
     <use x="99.707031" xlink:href="#DejaVuSans-44"/>
    </g>
   </g>
   <g id="text_15">
    <!-- 2-D -->
    <g transform="translate(375.22944 169.329987)scale(0.17 -0.17)">
     <use xlink:href="#DejaVuSans-32"/>
     <use x="63.623047" xlink:href="#DejaVuSans-2d"/>
     <use x="99.707031" xlink:href="#DejaVuSans-44"/>
    </g>
   </g>
   <g id="text_16">
    <!-- 3-D -->
    <g transform="translate(375.22944 104.863611)scale(0.17 -0.17)">
     <defs>
      <path d="M 2597 2516 
Q 3050 2419 3304 2112 
Q 3559 1806 3559 1356 
Q 3559 666 3084 287 
Q 2609 -91 1734 -91 
Q 1441 -91 1130 -33 
Q 819 25 488 141 
L 488 750 
Q 750 597 1062 519 
Q 1375 441 1716 441 
Q 2309 441 2620 675 
Q 2931 909 2931 1356 
Q 2931 1769 2642 2001 
Q 2353 2234 1838 2234 
L 1294 2234 
L 1294 2753 
L 1863 2753 
Q 2328 2753 2575 2939 
Q 2822 3125 2822 3475 
Q 2822 3834 2567 4026 
Q 2313 4219 1838 4219 
Q 1578 4219 1281 4162 
Q 984 4106 628 3988 
L 628 4550 
Q 988 4650 1302 4700 
Q 1616 4750 1894 4750 
Q 2613 4750 3031 4423 
Q 3450 4097 3450 3541 
Q 3450 3153 3228 2886 
Q 3006 2619 2597 2516 
z
" id="DejaVuSans-33" transform="scale(0.015625)"/>
     </defs>
     <use xlink:href="#DejaVuSans-33"/>
     <use x="63.623047" xlink:href="#DejaVuSans-2d"/>
     <use x="99.707031" xlink:href="#DejaVuSans-44"/>
    </g>
   </g>
   <g id="text_17">
    <!-- 10-D -->
    <g transform="translate(375.22944 40.397235)scale(0.17 -0.17)">
     <use xlink:href="#DejaVuSans-31"/>
     <use x="63.623047" xlink:href="#DejaVuSans-30"/>
     <use x="127.246094" xlink:href="#DejaVuSans-2d"/>
     <use x="163.330078" xlink:href="#DejaVuSans-44"/>
    </g>
   </g>
   <g id="text_18">
    <!-- bbob f16 -->
    <g transform="translate(60.41088 38.111366)scale(0.102 -0.102)">
     <defs>
      <path d="M 3116 1747 
Q 3116 2381 2855 2742 
Q 2594 3103 2138 3103 
Q 1681 3103 1420 2742 
Q 1159 2381 1159 1747 
Q 1159 1113 1420 752 
Q 1681 391 2138 391 
Q 2594 391 2855 752 
Q 3116 1113 3116 1747 
z
M 1159 2969 
Q 1341 3281 1617 3432 
Q 1894 3584 2278 3584 
Q 2916 3584 3314 3078 
Q 3713 2572 3713 1747 
Q 3713 922 3314 415 
Q 2916 -91 2278 -91 
Q 1894 -91 1617 61 
Q 1341 213 1159 525 
L 1159 0 
L 581 0 
L 581 4863 
L 1159 4863 
L 1159 2969 
z
" id="DejaVuSans-62" transform="scale(0.015625)"/>
     </defs>
     <use xlink:href="#DejaVuSans-62"/>
     <use x="63.476562" xlink:href="#DejaVuSans-62"/>
     <use x="126.953125" xlink:href="#DejaVuSans-6f"/>
     <use x="188.134766" xlink:href="#DejaVuSans-62"/>
     <use x="251.611328" xlink:href="#DejaVuSans-20"/>
     <use x="283.398438" xlink:href="#DejaVuSans-66"/>
     <use x="318.603516" xlink:href="#DejaVuSans-31"/>
     <use x="382.226562" xlink:href="#DejaVuSans-36"/>
    </g>
    <!-- 51 targets: 100..1e-08 -->
    <g transform="translate(60.41088 49.533135)scale(0.102 -0.102)">
     <defs>
      <path d="M 750 794 
L 1409 794 
L 1409 0 
L 750 0 
L 750 794 
z
M 750 3309 
L 1409 3309 
L 1409 2516 
L 750 2516 
L 750 3309 
z
" id="DejaVuSans-3a" transform="scale(0.015625)"/>
     </defs>
     <use xlink:href="#DejaVuSans-35"/>
     <use x="63.623047" xlink:href="#DejaVuSans-31"/>
     <use x="127.246094" xlink:href="#DejaVuSans-20"/>
     <use x="159.033203" xlink:href="#DejaVuSans-74"/>
     <use x="198.242188" xlink:href="#DejaVuSans-61"/>
     <use x="259.521484" xlink:href="#DejaVuSans-72"/>
     <use x="298.884766" xlink:href="#DejaVuSans-67"/>
     <use x="362.361328" xlink:href="#DejaVuSans-65"/>
     <use x="423.884766" xlink:href="#DejaVuSans-74"/>
     <use x="463.09375" xlink:href="#DejaVuSans-73"/>
     <use x="515.193359" xlink:href="#DejaVuSans-3a"/>
     <use x="548.884766" xlink:href="#DejaVuSans-20"/>
     <use x="580.671875" xlink:href="#DejaVuSans-31"/>
     <use x="644.294922" xlink:href="#DejaVuSans-30"/>
     <use x="707.917969" xlink:href="#DejaVuSans-30"/>
     <use x="771.541016" xlink:href="#DejaVuSans-2e"/>
     <use x="803.328125" xlink:href="#DejaVuSans-2e"/>
     <use x="835.115234" xlink:href="#DejaVuSans-31"/>
     <use x="898.738281" xlink:href="#DejaVuSans-65"/>
     <use x="960.261719" xlink:href="#DejaVuSans-2d"/>
     <use x="996.345703" xlink:href="#DejaVuSans-30"/>
     <use x="1059.96875" xlink:href="#DejaVuSans-38"/>
    </g>
    <!-- 15 instances -->
    <g transform="translate(60.41088 60.954904)scale(0.102 -0.102)">
     <use xlink:href="#DejaVuSans-31"/>
     <use x="63.623047" xlink:href="#DejaVuSans-35"/>
     <use x="127.246094" xlink:href="#DejaVuSans-20"/>
     <use x="159.033203" xlink:href="#DejaVuSans-69"/>
     <use x="186.816406" xlink:href="#DejaVuSans-6e"/>
     <use x="250.195312" xlink:href="#DejaVuSans-73"/>
     <use x="302.294922" xlink:href="#DejaVuSans-74"/>
     <use x="341.503906" xlink:href="#DejaVuSans-61"/>
     <use x="402.783203" xlink:href="#DejaVuSans-6e"/>
     <use x="466.162109" xlink:href="#DejaVuSans-63"/>
     <use x="521.142578" xlink:href="#DejaVuSans-65"/>
     <use x="582.666016" xlink:href="#DejaVuSans-73"/>
    </g>
   </g>
   <g id="text_19">
    <!-- v2.4 -->
    <g style="fill:#808080;" transform="translate(187.233062 294.151352)scale(0.1 -0.1)">
     <use xlink:href="#DejaVuSans-76"/>
     <use x="59.179688" xlink:href="#DejaVuSans-32"/>
     <use x="122.802734" xlink:href="#DejaVuSans-2e"/>
     <use x="154.589844" xlink:href="#DejaVuSans-34"/>
    </g>
   </g>
   <g id="text_20">
    <!-- 16 Weierstrass -->
    <g transform="translate(123.958062 21.648)scale(0.2 -0.2)">
     <defs>
      <path d="M 213 4666 
L 850 4666 
L 1831 722 
L 2809 4666 
L 3519 4666 
L 4500 722 
L 5478 4666 
L 6119 4666 
L 4947 0 
L 4153 0 
L 3169 4050 
L 2175 0 
L 1381 0 
L 213 4666 
z
" id="DejaVuSans-57" transform="scale(0.015625)"/>
     </defs>
     <use xlink:href="#DejaVuSans-31"/>
     <use x="63.623047" xlink:href="#DejaVuSans-36"/>
     <use x="127.246094" xlink:href="#DejaVuSans-20"/>
     <use x="159.033203" xlink:href="#DejaVuSans-57"/>
     <use x="252.035156" xlink:href="#DejaVuSans-65"/>
     <use x="313.558594" xlink:href="#DejaVuSans-69"/>
     <use x="341.341797" xlink:href="#DejaVuSans-65"/>
     <use x="402.865234" xlink:href="#DejaVuSans-72"/>
     <use x="443.978516" xlink:href="#DejaVuSans-73"/>
     <use x="496.078125" xlink:href="#DejaVuSans-74"/>
     <use x="535.287109" xlink:href="#DejaVuSans-72"/>
     <use x="576.400391" xlink:href="#DejaVuSans-61"/>
     <use x="637.679688" xlink:href="#DejaVuSans-73"/>
     <use x="689.779297" xlink:href="#DejaVuSans-73"/>
    </g>
   </g>
  </g>
 </g>
 <defs>
  <clipPath id="p070cb4a0f8">
   <rect height="271.296" width="281.088" x="57.6" y="27.648"/>
  </clipPath>
 </defs>
</svg>
