<?xml version="1.0" encoding="utf-8" standalone="no"?>
<!DOCTYPE svg PUBLIC "-//W3C//DTD SVG 1.1//EN"
  "http://www.w3.org/Graphics/SVG/1.1/DTD/svg11.dtd">
<svg height="345.6pt" version="1.1" viewBox="0 0 460.8 345.6" width="460.8pt" xmlns="http://www.w3.org/2000/svg" xmlns:xlink="http://www.w3.org/1999/xlink">
 <metadata>
  <rdf:RDF xmlns:cc="http://creativecommons.org/ns#" xmlns:dc="http://purl.org/dc/elements/1.1/" xmlns:rdf="http://www.w3.org/1999/02/22-rdf-syntax-ns#">
   <cc:Work>
    <dc:type rdf:resource="http://purl.org/dc/dcmitype/StillImage"/>
    <dc:date>2021-07-27T16:03:53.531702</dc:date>
    <dc:format>image/svg+xml</dc:format>
    <dc:creator>
     <cc:Agent>
      <dc:title>Matplotlib v3.4.2, https://matplotlib.org/</dc:title>
     </cc:Agent>
    </dc:creator>
   </cc:Work>
  </rdf:RDF>
 </metadata>
 <defs>
  <style type="text/css">*{stroke-linecap:butt;stroke-linejoin:round;}</style>
 </defs>
 <g id="figure_1">
  <g id="patch_1">
   <path d="M 0 345.6 
L 460.8 345.6 
L 460.8 0 
L 0 0 
z
" style="fill:#ffffff;"/>
  </g>
  <g id="axes_1">
   <g id="patch_2">
    <path d="M 57.6 298.944 
L 338.688 298.944 
L 338.688 3.456 
L 57.6 3.456 
z
" style="fill:#ffffff;"/>
   </g>
   <g id="matplotlib.axis_1">
    <g id="xtick_1">
     <g id="line2d_1">
      <path clip-path="url(#p4c1863364d)" d="M 57.6 298.944 
L 57.6 3.456 
" style="fill:none;stroke:#b0b0b0;stroke-linecap:square;stroke-width:0.8;"/>
     </g>
     <g id="line2d_2">
      <defs>
       <path d="M 0 0 
L 0 3.5 
" id="mbd7d16f21c" style="stroke:#000000;stroke-width:0.8;"/>
      </defs>
      <g>
       <use style="stroke:#000000;stroke-width:0.8;" x="57.6" xlink:href="#mbd7d16f21c" y="298.944"/>
      </g>
     </g>
     <g id="text_1">
      <!-- 0 -->
      <g transform="translate(51.2375 321.140875)scale(0.2 -0.2)">
       <defs>
        <path d="M 2034 4250 
Q 1547 4250 1301 3770 
Q 1056 3291 1056 2328 
Q 1056 1369 1301 889 
Q 1547 409 2034 409 
Q 2525 409 2770 889 
Q 3016 1369 3016 2328 
Q 3016 3291 2770 3770 
Q 2525 4250 2034 4250 
z
M 2034 4750 
Q 2819 4750 3233 4129 
Q 3647 3509 3647 2328 
Q 3647 1150 3233 529 
Q 2819 -91 2034 -91 
Q 1250 -91 836 529 
Q 422 1150 422 2328 
Q 422 3509 836 4129 
Q 1250 4750 2034 4750 
z
" id="DejaVuSans-30" transform="scale(0.015625)"/>
       </defs>
       <use xlink:href="#DejaVuSans-30"/>
      </g>
     </g>
    </g>
    <g id="xtick_2">
     <g id="line2d_3">
      <path clip-path="url(#p4c1863364d)" d="M 137.910857 298.944 
L 137.910857 3.456 
" style="fill:none;stroke:#b0b0b0;stroke-linecap:square;stroke-width:0.8;"/>
     </g>
     <g id="line2d_4">
      <g>
       <use style="stroke:#000000;stroke-width:0.8;" x="137.910857" xlink:href="#mbd7d16f21c" y="298.944"/>
      </g>
     </g>
     <g id="text_2">
      <!-- 2 -->
      <g transform="translate(131.548357 321.140875)scale(0.2 -0.2)">
       <defs>
        <path d="M 1228 531 
L 3431 531 
L 3431 0 
L 469 0 
L 469 531 
Q 828 903 1448 1529 
Q 2069 2156 2228 2338 
Q 2531 2678 2651 2914 
Q 2772 3150 2772 3378 
Q 2772 3750 2511 3984 
Q 2250 4219 1831 4219 
Q 1534 4219 1204 4116 
Q 875 4013 500 3803 
L 500 4441 
Q 881 4594 1212 4672 
Q 1544 4750 1819 4750 
Q 2544 4750 2975 4387 
Q 3406 4025 3406 3419 
Q 3406 3131 3298 2873 
Q 3191 2616 2906 2266 
Q 2828 2175 2409 1742 
Q 1991 1309 1228 531 
z
" id="DejaVuSans-32" transform="scale(0.015625)"/>
       </defs>
       <use xlink:href="#DejaVuSans-32"/>
      </g>
     </g>
    </g>
    <g id="xtick_3">
     <g id="line2d_5">
      <path clip-path="url(#p4c1863364d)" d="M 218.221714 298.944 
L 218.221714 3.456 
" style="fill:none;stroke:#b0b0b0;stroke-linecap:square;stroke-width:0.8;"/>
     </g>
     <g id="line2d_6">
      <g>
       <use style="stroke:#000000;stroke-width:0.8;" x="218.221714" xlink:href="#mbd7d16f21c" y="298.944"/>
      </g>
     </g>
     <g id="text_3">
      <!-- 4 -->
      <g transform="translate(211.859214 321.140875)scale(0.2 -0.2)">
       <defs>
        <path d="M 2419 4116 
L 825 1625 
L 2419 1625 
L 2419 4116 
z
M 2253 4666 
L 3047 4666 
L 3047 1625 
L 3713 1625 
L 3713 1100 
L 3047 1100 
L 3047 0 
L 2419 0 
L 2419 1100 
L 313 1100 
L 313 1709 
L 2253 4666 
z
" id="DejaVuSans-34" transform="scale(0.015625)"/>
       </defs>
       <use xlink:href="#DejaVuSans-34"/>
      </g>
     </g>
    </g>
    <g id="xtick_4">
     <g id="line2d_7">
      <path clip-path="url(#p4c1863364d)" d="M 298.532571 298.944 
L 298.532571 3.456 
" style="fill:none;stroke:#b0b0b0;stroke-linecap:square;stroke-width:0.8;"/>
     </g>
     <g id="line2d_8">
      <g>
       <use style="stroke:#000000;stroke-width:0.8;" x="298.532571" xlink:href="#mbd7d16f21c" y="298.944"/>
      </g>
     </g>
     <g id="text_4">
      <!-- 6 -->
      <g transform="translate(292.170071 321.140875)scale(0.2 -0.2)">
       <defs>
        <path d="M 2113 2584 
Q 1688 2584 1439 2293 
Q 1191 2003 1191 1497 
Q 1191 994 1439 701 
Q 1688 409 2113 409 
Q 2538 409 2786 701 
Q 3034 994 3034 1497 
Q 3034 2003 2786 2293 
Q 2538 2584 2113 2584 
z
M 3366 4563 
L 3366 3988 
Q 3128 4100 2886 4159 
Q 2644 4219 2406 4219 
Q 1781 4219 1451 3797 
Q 1122 3375 1075 2522 
Q 1259 2794 1537 2939 
Q 1816 3084 2150 3084 
Q 2853 3084 3261 2657 
Q 3669 2231 3669 1497 
Q 3669 778 3244 343 
Q 2819 -91 2113 -91 
Q 1303 -91 875 529 
Q 447 1150 447 2328 
Q 447 3434 972 4092 
Q 1497 4750 2381 4750 
Q 2619 4750 2861 4703 
Q 3103 4656 3366 4563 
z
" id="DejaVuSans-36" transform="scale(0.015625)"/>
       </defs>
       <use xlink:href="#DejaVuSans-36"/>
      </g>
     </g>
    </g>
    <g id="xtick_5">
     <g id="line2d_9">
      <path clip-path="url(#p4c1863364d)" d="M 97.755429 298.944 
L 97.755429 3.456 
" style="fill:none;stroke:#b0b0b0;stroke-linecap:square;stroke-width:0.8;"/>
     </g>
     <g id="line2d_10">
      <defs>
       <path d="M 0 0 
L 0 2 
" id="m475206f087" style="stroke:#000000;stroke-width:0.6;"/>
      </defs>
      <g>
       <use style="stroke:#000000;stroke-width:0.6;" x="97.755429" xlink:href="#m475206f087" y="298.944"/>
      </g>
     </g>
    </g>
    <g id="xtick_6">
     <g id="line2d_11">
      <path clip-path="url(#p4c1863364d)" d="M 178.066286 298.944 
L 178.066286 3.456 
" style="fill:none;stroke:#b0b0b0;stroke-linecap:square;stroke-width:0.8;"/>
     </g>
     <g id="line2d_12">
      <g>
       <use style="stroke:#000000;stroke-width:0.6;" x="178.066286" xlink:href="#m475206f087" y="298.944"/>
      </g>
     </g>
    </g>
    <g id="xtick_7">
     <g id="line2d_13">
      <path clip-path="url(#p4c1863364d)" d="M 258.377143 298.944 
L 258.377143 3.456 
" style="fill:none;stroke:#b0b0b0;stroke-linecap:square;stroke-width:0.8;"/>
     </g>
     <g id="line2d_14">
      <g>
       <use style="stroke:#000000;stroke-width:0.6;" x="258.377143" xlink:href="#m475206f087" y="298.944"/>
      </g>
     </g>
    </g>
    <g id="xtick_8">
     <g id="line2d_15">
      <path clip-path="url(#p4c1863364d)" d="M 338.688 298.944 
L 338.688 3.456 
" style="fill:none;stroke:#b0b0b0;stroke-linecap:square;stroke-width:0.8;"/>
     </g>
     <g id="line2d_16">
      <g>
       <use style="stroke:#000000;stroke-width:0.6;" x="338.688" xlink:href="#m475206f087" y="298.944"/>
      </g>
     </g>
    </g>
    <g id="text_5">
     <!-- log10(# f-evals / dimension) -->
     <g transform="translate(77.764078 342.217594)scale(0.17 -0.17)">
      <defs>
       <path d="M 603 4863 
L 1178 4863 
L 1178 0 
L 603 0 
L 603 4863 
z
" id="DejaVuSans-6c" transform="scale(0.015625)"/>
       <path d="M 1959 3097 
Q 1497 3097 1228 2736 
Q 959 2375 959 1747 
Q 959 1119 1226 758 
Q 1494 397 1959 397 
Q 2419 397 2687 759 
Q 2956 1122 2956 1747 
Q 2956 2369 2687 2733 
Q 2419 3097 1959 3097 
z
M 1959 3584 
Q 2709 3584 3137 3096 
Q 3566 2609 3566 1747 
Q 3566 888 3137 398 
Q 2709 -91 1959 -91 
Q 1206 -91 779 398 
Q 353 888 353 1747 
Q 353 2609 779 3096 
Q 1206 3584 1959 3584 
z
" id="DejaVuSans-6f" transform="scale(0.015625)"/>
       <path d="M 2906 1791 
Q 2906 2416 2648 2759 
Q 2391 3103 1925 3103 
Q 1463 3103 1205 2759 
Q 947 2416 947 1791 
Q 947 1169 1205 825 
Q 1463 481 1925 481 
Q 2391 481 2648 825 
Q 2906 1169 2906 1791 
z
M 3481 434 
Q 3481 -459 3084 -895 
Q 2688 -1331 1869 -1331 
Q 1566 -1331 1297 -1286 
Q 1028 -1241 775 -1147 
L 775 -588 
Q 1028 -725 1275 -790 
Q 1522 -856 1778 -856 
Q 2344 -856 2625 -561 
Q 2906 -266 2906 331 
L 2906 616 
Q 2728 306 2450 153 
Q 2172 0 1784 0 
Q 1141 0 747 490 
Q 353 981 353 1791 
Q 353 2603 747 3093 
Q 1141 3584 1784 3584 
Q 2172 3584 2450 3431 
Q 2728 3278 2906 2969 
L 2906 3500 
L 3481 3500 
L 3481 434 
z
" id="DejaVuSans-67" transform="scale(0.015625)"/>
       <path d="M 794 531 
L 1825 531 
L 1825 4091 
L 703 3866 
L 703 4441 
L 1819 4666 
L 2450 4666 
L 2450 531 
L 3481 531 
L 3481 0 
L 794 0 
L 794 531 
z
" id="DejaVuSans-31" transform="scale(0.015625)"/>
       <path d="M 1984 4856 
Q 1566 4138 1362 3434 
Q 1159 2731 1159 2009 
Q 1159 1288 1364 580 
Q 1569 -128 1984 -844 
L 1484 -844 
Q 1016 -109 783 600 
Q 550 1309 550 2009 
Q 550 2706 781 3412 
Q 1013 4119 1484 4856 
L 1984 4856 
z
" id="DejaVuSans-28" transform="scale(0.015625)"/>
       <path d="M 3272 2816 
L 2363 2816 
L 2100 1772 
L 3016 1772 
L 3272 2816 
z
M 2803 4594 
L 2478 3297 
L 3391 3297 
L 3719 4594 
L 4219 4594 
L 3897 3297 
L 4872 3297 
L 4872 2816 
L 3775 2816 
L 3519 1772 
L 4513 1772 
L 4513 1294 
L 3397 1294 
L 3072 0 
L 2572 0 
L 2894 1294 
L 1978 1294 
L 1656 0 
L 1153 0 
L 1478 1294 
L 494 1294 
L 494 1772 
L 1594 1772 
L 1856 2816 
L 850 2816 
L 850 3297 
L 1978 3297 
L 2297 4594 
L 2803 4594 
z
" id="DejaVuSans-23" transform="scale(0.015625)"/>
       <path id="DejaVuSans-20" transform="scale(0.015625)"/>
       <path d="M 2375 4863 
L 2375 4384 
L 1825 4384 
Q 1516 4384 1395 4259 
Q 1275 4134 1275 3809 
L 1275 3500 
L 2222 3500 
L 2222 3053 
L 1275 3053 
L 1275 0 
L 697 0 
L 697 3053 
L 147 3053 
L 147 3500 
L 697 3500 
L 697 3744 
Q 697 4328 969 4595 
Q 1241 4863 1831 4863 
L 2375 4863 
z
" id="DejaVuSans-66" transform="scale(0.015625)"/>
       <path d="M 313 2009 
L 1997 2009 
L 1997 1497 
L 313 1497 
L 313 2009 
z
" id="DejaVuSans-2d" transform="scale(0.015625)"/>
       <path d="M 3597 1894 
L 3597 1613 
L 953 1613 
Q 991 1019 1311 708 
Q 1631 397 2203 397 
Q 2534 397 2845 478 
Q 3156 559 3463 722 
L 3463 178 
Q 3153 47 2828 -22 
Q 2503 -91 2169 -91 
Q 1331 -91 842 396 
Q 353 884 353 1716 
Q 353 2575 817 3079 
Q 1281 3584 2069 3584 
Q 2775 3584 3186 3129 
Q 3597 2675 3597 1894 
z
M 3022 2063 
Q 3016 2534 2758 2815 
Q 2500 3097 2075 3097 
Q 1594 3097 1305 2825 
Q 1016 2553 972 2059 
L 3022 2063 
z
" id="DejaVuSans-65" transform="scale(0.015625)"/>
       <path d="M 191 3500 
L 800 3500 
L 1894 563 
L 2988 3500 
L 3597 3500 
L 2284 0 
L 1503 0 
L 191 3500 
z
" id="DejaVuSans-76" transform="scale(0.015625)"/>
       <path d="M 2194 1759 
Q 1497 1759 1228 1600 
Q 959 1441 959 1056 
Q 959 750 1161 570 
Q 1363 391 1709 391 
Q 2188 391 2477 730 
Q 2766 1069 2766 1631 
L 2766 1759 
L 2194 1759 
z
M 3341 1997 
L 3341 0 
L 2766 0 
L 2766 531 
Q 2569 213 2275 61 
Q 1981 -91 1556 -91 
Q 1019 -91 701 211 
Q 384 513 384 1019 
Q 384 1609 779 1909 
Q 1175 2209 1959 2209 
L 2766 2209 
L 2766 2266 
Q 2766 2663 2505 2880 
Q 2244 3097 1772 3097 
Q 1472 3097 1187 3025 
Q 903 2953 641 2809 
L 641 3341 
Q 956 3463 1253 3523 
Q 1550 3584 1831 3584 
Q 2591 3584 2966 3190 
Q 3341 2797 3341 1997 
z
" id="DejaVuSans-61" transform="scale(0.015625)"/>
       <path d="M 2834 3397 
L 2834 2853 
Q 2591 2978 2328 3040 
Q 2066 3103 1784 3103 
Q 1356 3103 1142 2972 
Q 928 2841 928 2578 
Q 928 2378 1081 2264 
Q 1234 2150 1697 2047 
L 1894 2003 
Q 2506 1872 2764 1633 
Q 3022 1394 3022 966 
Q 3022 478 2636 193 
Q 2250 -91 1575 -91 
Q 1294 -91 989 -36 
Q 684 19 347 128 
L 347 722 
Q 666 556 975 473 
Q 1284 391 1588 391 
Q 1994 391 2212 530 
Q 2431 669 2431 922 
Q 2431 1156 2273 1281 
Q 2116 1406 1581 1522 
L 1381 1569 
Q 847 1681 609 1914 
Q 372 2147 372 2553 
Q 372 3047 722 3315 
Q 1072 3584 1716 3584 
Q 2034 3584 2315 3537 
Q 2597 3491 2834 3397 
z
" id="DejaVuSans-73" transform="scale(0.015625)"/>
       <path d="M 1625 4666 
L 2156 4666 
L 531 -594 
L 0 -594 
L 1625 4666 
z
" id="DejaVuSans-2f" transform="scale(0.015625)"/>
       <path d="M 2906 2969 
L 2906 4863 
L 3481 4863 
L 3481 0 
L 2906 0 
L 2906 525 
Q 2725 213 2448 61 
Q 2172 -91 1784 -91 
Q 1150 -91 751 415 
Q 353 922 353 1747 
Q 353 2572 751 3078 
Q 1150 3584 1784 3584 
Q 2172 3584 2448 3432 
Q 2725 3281 2906 2969 
z
M 947 1747 
Q 947 1113 1208 752 
Q 1469 391 1925 391 
Q 2381 391 2643 752 
Q 2906 1113 2906 1747 
Q 2906 2381 2643 2742 
Q 2381 3103 1925 3103 
Q 1469 3103 1208 2742 
Q 947 2381 947 1747 
z
" id="DejaVuSans-64" transform="scale(0.015625)"/>
       <path d="M 603 3500 
L 1178 3500 
L 1178 0 
L 603 0 
L 603 3500 
z
M 603 4863 
L 1178 4863 
L 1178 4134 
L 603 4134 
L 603 4863 
z
" id="DejaVuSans-69" transform="scale(0.015625)"/>
       <path d="M 3328 2828 
Q 3544 3216 3844 3400 
Q 4144 3584 4550 3584 
Q 5097 3584 5394 3201 
Q 5691 2819 5691 2113 
L 5691 0 
L 5113 0 
L 5113 2094 
Q 5113 2597 4934 2840 
Q 4756 3084 4391 3084 
Q 3944 3084 3684 2787 
Q 3425 2491 3425 1978 
L 3425 0 
L 2847 0 
L 2847 2094 
Q 2847 2600 2669 2842 
Q 2491 3084 2119 3084 
Q 1678 3084 1418 2786 
Q 1159 2488 1159 1978 
L 1159 0 
L 581 0 
L 581 3500 
L 1159 3500 
L 1159 2956 
Q 1356 3278 1631 3431 
Q 1906 3584 2284 3584 
Q 2666 3584 2933 3390 
Q 3200 3197 3328 2828 
z
" id="DejaVuSans-6d" transform="scale(0.015625)"/>
       <path d="M 3513 2113 
L 3513 0 
L 2938 0 
L 2938 2094 
Q 2938 2591 2744 2837 
Q 2550 3084 2163 3084 
Q 1697 3084 1428 2787 
Q 1159 2491 1159 1978 
L 1159 0 
L 581 0 
L 581 3500 
L 1159 3500 
L 1159 2956 
Q 1366 3272 1645 3428 
Q 1925 3584 2291 3584 
Q 2894 3584 3203 3211 
Q 3513 2838 3513 2113 
z
" id="DejaVuSans-6e" transform="scale(0.015625)"/>
       <path d="M 513 4856 
L 1013 4856 
Q 1481 4119 1714 3412 
Q 1947 2706 1947 2009 
Q 1947 1309 1714 600 
Q 1481 -109 1013 -844 
L 513 -844 
Q 928 -128 1133 580 
Q 1338 1288 1338 2009 
Q 1338 2731 1133 3434 
Q 928 4138 513 4856 
z
" id="DejaVuSans-29" transform="scale(0.015625)"/>
      </defs>
      <use xlink:href="#DejaVuSans-6c"/>
      <use x="27.783203" xlink:href="#DejaVuSans-6f"/>
      <use x="88.964844" xlink:href="#DejaVuSans-67"/>
      <use x="152.441406" xlink:href="#DejaVuSans-31"/>
      <use x="216.064453" xlink:href="#DejaVuSans-30"/>
      <use x="279.6875" xlink:href="#DejaVuSans-28"/>
      <use x="318.701172" xlink:href="#DejaVuSans-23"/>
      <use x="402.490234" xlink:href="#DejaVuSans-20"/>
      <use x="434.277344" xlink:href="#DejaVuSans-66"/>
      <use x="463.982422" xlink:href="#DejaVuSans-2d"/>
      <use x="500.066406" xlink:href="#DejaVuSans-65"/>
      <use x="561.589844" xlink:href="#DejaVuSans-76"/>
      <use x="620.769531" xlink:href="#DejaVuSans-61"/>
      <use x="682.048828" xlink:href="#DejaVuSans-6c"/>
      <use x="709.832031" xlink:href="#DejaVuSans-73"/>
      <use x="761.931641" xlink:href="#DejaVuSans-20"/>
      <use x="793.71875" xlink:href="#DejaVuSans-2f"/>
      <use x="827.410156" xlink:href="#DejaVuSans-20"/>
      <use x="859.197266" xlink:href="#DejaVuSans-64"/>
      <use x="922.673828" xlink:href="#DejaVuSans-69"/>
      <use x="950.457031" xlink:href="#DejaVuSans-6d"/>
      <use x="1047.869141" xlink:href="#DejaVuSans-65"/>
      <use x="1109.392578" xlink:href="#DejaVuSans-6e"/>
      <use x="1172.771484" xlink:href="#DejaVuSans-73"/>
      <use x="1224.871094" xlink:href="#DejaVuSans-69"/>
      <use x="1252.654297" xlink:href="#DejaVuSans-6f"/>
      <use x="1313.835938" xlink:href="#DejaVuSans-6e"/>
      <use x="1377.214844" xlink:href="#DejaVuSans-29"/>
     </g>
    </g>
   </g>
   <g id="matplotlib.axis_2">
    <g id="ytick_1">
     <g id="line2d_17">
      <path clip-path="url(#p4c1863364d)" d="M 57.6 298.944 
L 338.688 298.944 
" style="fill:none;stroke:#b0b0b0;stroke-linecap:square;stroke-width:0.8;"/>
     </g>
     <g id="line2d_18">
      <defs>
       <path d="M 0 0 
L -3.5 0 
" id="ma6a79d3938" style="stroke:#000000;stroke-width:0.8;"/>
      </defs>
      <g>
       <use style="stroke:#000000;stroke-width:0.8;" x="57.6" xlink:href="#ma6a79d3938" y="298.944"/>
      </g>
     </g>
     <g id="text_6">
      <!-- 0.0 -->
      <g transform="translate(25.155 305.02275)scale(0.16 -0.16)">
       <defs>
        <path d="M 684 794 
L 1344 794 
L 1344 0 
L 684 0 
L 684 794 
z
" id="DejaVuSans-2e" transform="scale(0.015625)"/>
       </defs>
       <use xlink:href="#DejaVuSans-30"/>
       <use x="63.623047" xlink:href="#DejaVuSans-2e"/>
       <use x="95.410156" xlink:href="#DejaVuSans-30"/>
      </g>
     </g>
    </g>
    <g id="ytick_2">
     <g id="line2d_19">
      <path clip-path="url(#p4c1863364d)" d="M 57.6 240.431525 
L 338.688 240.431525 
" style="fill:none;stroke:#b0b0b0;stroke-linecap:square;stroke-width:0.8;"/>
     </g>
     <g id="line2d_20">
      <g>
       <use style="stroke:#000000;stroke-width:0.8;" x="57.6" xlink:href="#ma6a79d3938" y="240.431525"/>
      </g>
     </g>
     <g id="text_7">
      <!-- 0.2 -->
      <g transform="translate(25.155 246.510275)scale(0.16 -0.16)">
       <use xlink:href="#DejaVuSans-30"/>
       <use x="63.623047" xlink:href="#DejaVuSans-2e"/>
       <use x="95.410156" xlink:href="#DejaVuSans-32"/>
      </g>
     </g>
    </g>
    <g id="ytick_3">
     <g id="line2d_21">
      <path clip-path="url(#p4c1863364d)" d="M 57.6 181.91905 
L 338.688 181.91905 
" style="fill:none;stroke:#b0b0b0;stroke-linecap:square;stroke-width:0.8;"/>
     </g>
     <g id="line2d_22">
      <g>
       <use style="stroke:#000000;stroke-width:0.8;" x="57.6" xlink:href="#ma6a79d3938" y="181.91905"/>
      </g>
     </g>
     <g id="text_8">
      <!-- 0.4 -->
      <g transform="translate(25.155 187.9978)scale(0.16 -0.16)">
       <use xlink:href="#DejaVuSans-30"/>
       <use x="63.623047" xlink:href="#DejaVuSans-2e"/>
       <use x="95.410156" xlink:href="#DejaVuSans-34"/>
      </g>
     </g>
    </g>
    <g id="ytick_4">
     <g id="line2d_23">
      <path clip-path="url(#p4c1863364d)" d="M 57.6 123.406574 
L 338.688 123.406574 
" style="fill:none;stroke:#b0b0b0;stroke-linecap:square;stroke-width:0.8;"/>
     </g>
     <g id="line2d_24">
      <g>
       <use style="stroke:#000000;stroke-width:0.8;" x="57.6" xlink:href="#ma6a79d3938" y="123.406574"/>
      </g>
     </g>
     <g id="text_9">
      <!-- 0.6 -->
      <g transform="translate(25.155 129.485324)scale(0.16 -0.16)">
       <use xlink:href="#DejaVuSans-30"/>
       <use x="63.623047" xlink:href="#DejaVuSans-2e"/>
       <use x="95.410156" xlink:href="#DejaVuSans-36"/>
      </g>
     </g>
    </g>
    <g id="ytick_5">
     <g id="line2d_25">
      <path clip-path="url(#p4c1863364d)" d="M 57.6 64.894099 
L 338.688 64.894099 
" style="fill:none;stroke:#b0b0b0;stroke-linecap:square;stroke-width:0.8;"/>
     </g>
     <g id="line2d_26">
      <g>
       <use style="stroke:#000000;stroke-width:0.8;" x="57.6" xlink:href="#ma6a79d3938" y="64.894099"/>
      </g>
     </g>
     <g id="text_10">
      <!-- 0.8 -->
      <g transform="translate(25.155 70.972849)scale(0.16 -0.16)">
       <defs>
        <path d="M 2034 2216 
Q 1584 2216 1326 1975 
Q 1069 1734 1069 1313 
Q 1069 891 1326 650 
Q 1584 409 2034 409 
Q 2484 409 2743 651 
Q 3003 894 3003 1313 
Q 3003 1734 2745 1975 
Q 2488 2216 2034 2216 
z
M 1403 2484 
Q 997 2584 770 2862 
Q 544 3141 544 3541 
Q 544 4100 942 4425 
Q 1341 4750 2034 4750 
Q 2731 4750 3128 4425 
Q 3525 4100 3525 3541 
Q 3525 3141 3298 2862 
Q 3072 2584 2669 2484 
Q 3125 2378 3379 2068 
Q 3634 1759 3634 1313 
Q 3634 634 3220 271 
Q 2806 -91 2034 -91 
Q 1263 -91 848 271 
Q 434 634 434 1313 
Q 434 1759 690 2068 
Q 947 2378 1403 2484 
z
M 1172 3481 
Q 1172 3119 1398 2916 
Q 1625 2713 2034 2713 
Q 2441 2713 2670 2916 
Q 2900 3119 2900 3481 
Q 2900 3844 2670 4047 
Q 2441 4250 2034 4250 
Q 1625 4250 1398 4047 
Q 1172 3844 1172 3481 
z
" id="DejaVuSans-38" transform="scale(0.015625)"/>
       </defs>
       <use xlink:href="#DejaVuSans-30"/>
       <use x="63.623047" xlink:href="#DejaVuSans-2e"/>
       <use x="95.410156" xlink:href="#DejaVuSans-38"/>
      </g>
     </g>
    </g>
    <g id="ytick_6">
     <g id="line2d_27">
      <path clip-path="url(#p4c1863364d)" d="M 57.6 6.381624 
L 338.688 6.381624 
" style="fill:none;stroke:#b0b0b0;stroke-linecap:square;stroke-width:0.8;"/>
     </g>
     <g id="line2d_28">
      <g>
       <use style="stroke:#000000;stroke-width:0.8;" x="57.6" xlink:href="#ma6a79d3938" y="6.381624"/>
      </g>
     </g>
     <g id="text_11">
      <!-- 1.0 -->
      <g transform="translate(25.155 12.460374)scale(0.16 -0.16)">
       <use xlink:href="#DejaVuSans-31"/>
       <use x="63.623047" xlink:href="#DejaVuSans-2e"/>
       <use x="95.410156" xlink:href="#DejaVuSans-30"/>
      </g>
     </g>
    </g>
    <g id="text_12">
     <!-- Fraction of function,target pairs -->
     <g transform="translate(17.619531 285.585)rotate(-90)scale(0.17 -0.17)">
      <defs>
       <path d="M 628 4666 
L 3309 4666 
L 3309 4134 
L 1259 4134 
L 1259 2759 
L 3109 2759 
L 3109 2228 
L 1259 2228 
L 1259 0 
L 628 0 
L 628 4666 
z
" id="DejaVuSans-46" transform="scale(0.015625)"/>
       <path d="M 2631 2963 
Q 2534 3019 2420 3045 
Q 2306 3072 2169 3072 
Q 1681 3072 1420 2755 
Q 1159 2438 1159 1844 
L 1159 0 
L 581 0 
L 581 3500 
L 1159 3500 
L 1159 2956 
Q 1341 3275 1631 3429 
Q 1922 3584 2338 3584 
Q 2397 3584 2469 3576 
Q 2541 3569 2628 3553 
L 2631 2963 
z
" id="DejaVuSans-72" transform="scale(0.015625)"/>
       <path d="M 3122 3366 
L 3122 2828 
Q 2878 2963 2633 3030 
Q 2388 3097 2138 3097 
Q 1578 3097 1268 2742 
Q 959 2388 959 1747 
Q 959 1106 1268 751 
Q 1578 397 2138 397 
Q 2388 397 2633 464 
Q 2878 531 3122 666 
L 3122 134 
Q 2881 22 2623 -34 
Q 2366 -91 2075 -91 
Q 1284 -91 818 406 
Q 353 903 353 1747 
Q 353 2603 823 3093 
Q 1294 3584 2113 3584 
Q 2378 3584 2631 3529 
Q 2884 3475 3122 3366 
z
" id="DejaVuSans-63" transform="scale(0.015625)"/>
       <path d="M 1172 4494 
L 1172 3500 
L 2356 3500 
L 2356 3053 
L 1172 3053 
L 1172 1153 
Q 1172 725 1289 603 
Q 1406 481 1766 481 
L 2356 481 
L 2356 0 
L 1766 0 
Q 1100 0 847 248 
Q 594 497 594 1153 
L 594 3053 
L 172 3053 
L 172 3500 
L 594 3500 
L 594 4494 
L 1172 4494 
z
" id="DejaVuSans-74" transform="scale(0.015625)"/>
       <path d="M 544 1381 
L 544 3500 
L 1119 3500 
L 1119 1403 
Q 1119 906 1312 657 
Q 1506 409 1894 409 
Q 2359 409 2629 706 
Q 2900 1003 2900 1516 
L 2900 3500 
L 3475 3500 
L 3475 0 
L 2900 0 
L 2900 538 
Q 2691 219 2414 64 
Q 2138 -91 1772 -91 
Q 1169 -91 856 284 
Q 544 659 544 1381 
z
M 1991 3584 
L 1991 3584 
z
" id="DejaVuSans-75" transform="scale(0.015625)"/>
       <path d="M 750 794 
L 1409 794 
L 1409 256 
L 897 -744 
L 494 -744 
L 750 256 
L 750 794 
z
" id="DejaVuSans-2c" transform="scale(0.015625)"/>
       <path d="M 1159 525 
L 1159 -1331 
L 581 -1331 
L 581 3500 
L 1159 3500 
L 1159 2969 
Q 1341 3281 1617 3432 
Q 1894 3584 2278 3584 
Q 2916 3584 3314 3078 
Q 3713 2572 3713 1747 
Q 3713 922 3314 415 
Q 2916 -91 2278 -91 
Q 1894 -91 1617 61 
Q 1341 213 1159 525 
z
M 3116 1747 
Q 3116 2381 2855 2742 
Q 2594 3103 2138 3103 
Q 1681 3103 1420 2742 
Q 1159 2381 1159 1747 
Q 1159 1113 1420 752 
Q 1681 391 2138 391 
Q 2594 391 2855 752 
Q 3116 1113 3116 1747 
z
" id="DejaVuSans-70" transform="scale(0.015625)"/>
      </defs>
      <use xlink:href="#DejaVuSans-46"/>
      <use x="50.269531" xlink:href="#DejaVuSans-72"/>
      <use x="91.382812" xlink:href="#DejaVuSans-61"/>
      <use x="152.662109" xlink:href="#DejaVuSans-63"/>
      <use x="207.642578" xlink:href="#DejaVuSans-74"/>
      <use x="246.851562" xlink:href="#DejaVuSans-69"/>
      <use x="274.634766" xlink:href="#DejaVuSans-6f"/>
      <use x="335.816406" xlink:href="#DejaVuSans-6e"/>
      <use x="399.195312" xlink:href="#DejaVuSans-20"/>
      <use x="430.982422" xlink:href="#DejaVuSans-6f"/>
      <use x="492.164062" xlink:href="#DejaVuSans-66"/>
      <use x="527.369141" xlink:href="#DejaVuSans-20"/>
      <use x="559.15625" xlink:href="#DejaVuSans-66"/>
      <use x="594.361328" xlink:href="#DejaVuSans-75"/>
      <use x="657.740234" xlink:href="#DejaVuSans-6e"/>
      <use x="721.119141" xlink:href="#DejaVuSans-63"/>
      <use x="776.099609" xlink:href="#DejaVuSans-74"/>
      <use x="815.308594" xlink:href="#DejaVuSans-69"/>
      <use x="843.091797" xlink:href="#DejaVuSans-6f"/>
      <use x="904.273438" xlink:href="#DejaVuSans-6e"/>
      <use x="967.652344" xlink:href="#DejaVuSans-2c"/>
      <use x="999.439453" xlink:href="#DejaVuSans-74"/>
      <use x="1038.648438" xlink:href="#DejaVuSans-61"/>
      <use x="1099.927734" xlink:href="#DejaVuSans-72"/>
      <use x="1139.291016" xlink:href="#DejaVuSans-67"/>
      <use x="1202.767578" xlink:href="#DejaVuSans-65"/>
      <use x="1264.291016" xlink:href="#DejaVuSans-74"/>
      <use x="1303.5" xlink:href="#DejaVuSans-20"/>
      <use x="1335.287109" xlink:href="#DejaVuSans-70"/>
      <use x="1398.763672" xlink:href="#DejaVuSans-61"/>
      <use x="1460.042969" xlink:href="#DejaVuSans-69"/>
      <use x="1487.826172" xlink:href="#DejaVuSans-72"/>
      <use x="1528.939453" xlink:href="#DejaVuSans-73"/>
     </g>
    </g>
   </g>
   <g id="line2d_29">
    <defs>
     <path d="M 0 1.5 
C 0.397805 1.5 0.77937 1.341951 1.06066 1.06066 
C 1.341951 0.77937 1.5 0.397805 1.5 0 
C 1.5 -0.397805 1.341951 -0.77937 1.06066 -1.06066 
C 0.77937 -1.341951 0.397805 -1.5 0 -1.5 
C -0.397805 -1.5 -0.77937 -1.341951 -1.06066 -1.06066 
C -1.341951 -0.77937 -1.5 -0.397805 -1.5 0 
C -1.5 0.397805 -1.341951 0.77937 -1.06066 1.06066 
C -0.77937 1.341951 -0.397805 1.5 0 1.5 
z
" id="m7cada762c4" style="stroke:#000080;"/>
    </defs>
    <g>
     <use style="fill:#000080;stroke:#000080;" x="186.894312" xlink:href="#m7cada762c4" y="6.381624"/>
     <use style="fill:#000080;stroke:#000080;" x="186.894312" xlink:href="#m7cada762c4" y="6.381624"/>
    </g>
   </g>
   <g id="line2d_30">
    <path d="M 45.512012 298.944 
L 45.512012 293.781135 
L 57.6 293.781135 
L 57.6 286.323662 
L 64.67102 286.323662 
L 64.67102 281.734448 
L 69.687988 281.734448 
L 69.687988 280.587145 
L 73.579452 280.587145 
L 73.579452 280.013493 
L 76.759008 280.013493 
L 76.759008 278.86619 
L 79.447285 278.86619 
L 79.447285 275.997931 
L 81.775977 275.997931 
L 81.775977 275.42428 
L 83.830028 275.42428 
L 83.830028 274.276976 
L 87.329581 274.276976 
L 87.329581 273.129673 
L 90.242884 273.129673 
L 90.242884 270.835066 
L 92.73846 270.835066 
L 92.73846 270.261414 
L 95.918017 270.261414 
L 95.918017 269.687762 
L 98.606294 269.687762 
L 98.606294 268.540459 
L 99.41757 268.540459 
L 99.41757 267.966807 
L 105.951954 267.966807 
L 105.951954 267.393156 
L 107.514726 267.393156 
L 107.514726 266.819504 
L 108.006005 266.819504 
L 108.006005 265.6722 
L 109.401893 265.6722 
L 109.401893 265.098549 
L 113.022974 265.098549 
L 113.022974 264.524897 
L 115.077025 264.524897 
L 115.077025 263.951245 
L 124.557288 263.951245 
L 124.557288 263.377593 
L 126.338353 263.377593 
L 126.338353 262.803942 
L 129.714332 262.803942 
L 129.714332 261.656638 
L 130.531948 261.656638 
L 130.531948 261.082987 
L 130.664567 261.082987 
L 130.664567 260.509335 
L 130.796184 260.509335 
L 130.796184 259.935683 
L 131.690703 259.935683 
L 131.690703 259.362031 
L 133.689303 259.362031 
L 133.689303 258.78838 
L 134.019394 258.78838 
L 134.019394 257.067425 
L 135.582166 257.067425 
L 135.582166 256.493773 
L 137.37967 256.493773 
L 137.37967 255.920121 
L 138.426341 255.920121 
L 138.426341 254.772818 
L 138.84457 254.772818 
L 138.84457 254.199166 
L 139.887228 254.199166 
L 139.964909 253.051863 
L 140.64889 253.051863 
L 140.64889 252.478211 
L 142.486301 252.478211 
L 142.486301 251.904559 
L 145.212864 251.904559 
L 145.212864 250.757256 
L 147.266916 250.757256 
L 147.266916 250.183604 
L 149.241465 250.183604 
L 149.241465 249.609952 
L 150.258492 249.609952 
L 150.258492 249.036301 
L 150.38688 249.036301 
L 150.47195 246.741694 
L 150.932558 246.741694 
L 150.932558 246.168042 
L 151.056095 246.168042 
L 151.056095 245.59439 
L 152.587184 245.59439 
L 152.587184 243.873435 
L 152.736878 243.873435 
L 152.736878 243.299783 
L 152.959038 243.299783 
L 152.959038 241.578828 
L 153.750233 241.578828 
L 153.750233 240.431525 
L 154.405793 240.431525 
L 154.405793 239.857873 
L 154.972161 239.857873 
L 154.972161 239.284221 
L 156.297301 239.284221 
L 156.297301 238.71057 
L 156.747178 238.71057 
L 156.747178 238.136918 
L 157.011638 238.136918 
L 157.040776 236.415963 
L 157.893028 236.415963 
L 157.893028 235.842311 
L 158.492562 235.842311 
L 158.492562 234.121356 
L 158.994256 234.121356 
L 158.994256 232.974052 
L 160.152267 232.974052 
L 160.152267 231.826749 
L 160.938061 231.826749 
L 160.938061 230.679446 
L 161.955547 230.679446 
L 162.021314 227.237535 
L 163.061823 227.237535 
L 163.061823 226.663884 
L 163.549667 226.663884 
L 163.549667 224.942928 
L 165.120455 224.942928 
L 165.120455 224.369277 
L 166.425924 224.369277 
L 166.425924 223.795625 
L 166.578233 223.795625 
L 166.578233 223.221973 
L 167.010909 223.221973 
L 167.010909 222.648321 
L 167.576907 222.648321 
L 167.576907 222.07467 
L 167.970232 222.07467 
L 167.970232 220.927366 
L 168.202038 220.927366 
L 168.202038 220.353715 
L 168.551595 220.353715 
L 168.551595 218.632759 
L 169.244833 218.632759 
L 169.244833 217.485456 
L 169.545889 217.485456 
L 169.545889 216.338153 
L 171.069226 216.338153 
L 171.121244 212.896242 
L 171.340609 212.896242 
L 171.340609 211.175287 
L 171.569909 211.175287 
L 171.595202 210.027984 
L 171.883461 210.027984 
L 171.883461 208.88068 
L 172.276753 208.88068 
L 172.385786 207.159725 
L 172.566008 207.159725 
L 172.566008 205.43877 
L 172.791647 205.43877 
L 172.791647 204.865118 
L 173.211329 204.865118 
L 173.245851 203.144163 
L 173.383259 203.144163 
L 173.383259 202.570511 
L 173.55351 202.570511 
L 173.564801 200.849556 
L 173.844732 200.849556 
L 173.844732 200.275904 
L 174.098358 200.275904 
L 174.098358 199.128601 
L 174.240098 199.128601 
L 174.315944 195.686691 
L 174.391462 195.686691 
L 174.423728 193.392084 
L 174.562857 193.392084 
L 174.647927 188.80287 
L 174.690307 188.80287 
L 174.795808 187.081915 
L 174.869281 187.081915 
L 174.900675 184.787308 
L 175.252577 184.787308 
L 175.273058 181.345398 
L 175.385274 181.345398 
L 175.415753 180.198094 
L 175.506873 180.198094 
L 175.567356 177.329836 
L 175.667697 177.329836 
L 175.77741 175.608881 
L 175.955464 175.608881 
L 175.955464 174.461577 
L 176.23856 174.461577 
L 176.267585 167.004105 
L 176.478973 167.004105 
L 176.545699 164.135846 
L 176.621646 164.135846 
L 176.621646 162.414891 
L 176.894213 162.414891 
L 176.959372 157.825677 
L 177.180944 157.825677 
L 177.245042 152.08916 
L 177.327109 152.08916 
L 177.399735 147.499946 
L 177.696161 147.499946 
L 177.785001 145.778991 
L 177.934998 145.778991 
L 177.978871 144.058036 
L 178.127217 144.058036 
L 178.231177 138.321519 
L 178.25707 138.321519 
L 178.291535 135.45326 
L 178.368833 135.45326 
L 178.394524 133.158653 
L 178.505412 133.158653 
L 178.505412 128.56944 
L 178.74188 128.56944 
L 178.74188 127.995788 
L 178.89222 127.995788 
L 178.98346 122.259271 
L 179.049518 122.259271 
L 179.156332 114.228147 
L 179.172706 114.228147 
L 179.262495 109.638933 
L 179.286902 109.638933 
L 179.359921 107.344326 
L 179.440696 107.344326 
L 179.440696 106.770674 
L 179.585155 106.770674 
L 179.6808 104.476068 
L 179.768016 104.476068 
L 179.831174 99.313202 
L 179.886249 99.313202 
L 179.972447 97.592247 
L 180.003686 97.592247 
L 180.065997 95.871292 
L 180.159048 95.871292 
L 180.228512 93.003033 
L 180.305371 93.003033 
L 180.33602 90.708426 
L 180.511214 90.708426 
L 180.594385 78.088089 
L 180.669651 78.088089 
L 180.722145 76.367133 
L 180.848977 76.367133 
L 180.937953 74.072526 
L 180.997019 74.072526 
L 180.997019 72.925223 
L 181.216753 72.925223 
L 181.289386 70.056964 
L 181.361719 70.056964 
L 181.412173 64.320447 
L 181.47683 64.320447 
L 181.55553 60.878537 
L 181.633877 60.878537 
L 181.733085 56.289323 
L 181.782478 56.289323 
L 181.782478 55.715672 
L 181.992593 55.715672 
L 182.069005 51.700109 
L 182.330427 51.700109 
L 182.418968 45.963592 
L 182.648436 45.963592 
L 182.755385 42.521682 
L 182.855057 42.521682 
L 182.855057 37.358817 
L 183.026484 37.358817 
L 183.026484 36.785165 
L 183.364365 36.785165 
L 183.383659 34.490558 
L 183.537254 34.490558 
L 183.594505 33.343255 
L 183.959015 33.343255 
L 184.064426 28.754041 
L 184.175348 28.754041 
L 184.261135 25.885782 
L 184.395097 25.885782 
L 184.503941 24.164827 
L 184.55811 24.164827 
L 184.642039 21.87022 
L 184.701742 21.87022 
L 184.701742 21.296568 
L 185.166347 21.296568 
L 185.276265 17.854658 
L 185.44271 17.854658 
L 185.511122 16.133703 
L 185.714761 16.133703 
L 185.793317 14.412748 
L 185.832462 14.412748 
L 185.87152 13.265444 
L 186.26826 13.265444 
L 186.333515 8.676231 
L 186.613497 8.676231 
L 186.613497 8.102579 
L 186.873275 8.102579 
L 186.894312 6.381624 
L 338.688 6.381624 
L 338.688 6.381624 
" style="fill:none;stroke:#000080;stroke-linecap:square;stroke-width:1.5;"/>
   </g>
   <g id="line2d_31">
    <defs>
     <path d="M 0 6 
C 1.591219 6 3.117479 5.367802 4.242641 4.242641 
C 5.367802 3.117479 6 1.591219 6 0 
C 6 -1.591219 5.367802 -3.117479 4.242641 -4.242641 
C 3.117479 -5.367802 1.591219 -6 0 -6 
C -1.591219 -6 -3.117479 -5.367802 -4.242641 -4.242641 
C -5.367802 -3.117479 -6 -1.591219 -6 0 
C -6 1.591219 -5.367802 3.117479 -4.242641 4.242641 
C -3.117479 5.367802 -1.591219 6 0 6 
z
" id="mf4e0aa08d7" style="stroke:#000080;stroke-width:1.5;"/>
    </defs>
    <g>
     <use style="fill-opacity:0;stroke:#000080;stroke-width:1.5;" x="149.241465" xlink:href="#mf4e0aa08d7" y="250.183604"/>
     <use style="fill-opacity:0;stroke:#000080;stroke-width:1.5;" x="176.545699" xlink:href="#mf4e0aa08d7" y="164.135846"/>
     <use style="fill-opacity:0;stroke:#000080;stroke-width:1.5;" x="182.357718" xlink:href="#mf4e0aa08d7" y="47.684547"/>
     <use style="fill-opacity:0;stroke:#000080;stroke-width:1.5;" x="186.894312" xlink:href="#mf4e0aa08d7" y="6.381624"/>
     <use style="fill-opacity:0;stroke:#000080;stroke-width:1.5;" x="186.894312" xlink:href="#mf4e0aa08d7" y="6.381624"/>
     <use style="fill-opacity:0;stroke:#000080;stroke-width:1.5;" x="338.688" xlink:href="#mf4e0aa08d7" y="6.381624"/>
    </g>
   </g>
   <g id="line2d_32">
    <path style="fill:none;stroke:#000080;stroke-linecap:square;stroke-width:1.5;"/>
    <g/>
   </g>
   <g id="line2d_33">
    <defs>
     <path d="M 0 1.5 
C 0.397805 1.5 0.77937 1.341951 1.06066 1.06066 
C 1.341951 0.77937 1.5 0.397805 1.5 0 
C 1.5 -0.397805 1.341951 -0.77937 1.06066 -1.06066 
C 0.77937 -1.341951 0.397805 -1.5 0 -1.5 
C -0.397805 -1.5 -0.77937 -1.341951 -1.06066 -1.06066 
C -1.341951 -0.77937 -1.5 -0.397805 -1.5 0 
C -1.5 0.397805 -1.341951 0.77937 -1.06066 1.06066 
C -0.77937 1.341951 -0.397805 1.5 0 1.5 
z
" id="mbe21922011" style="stroke:#ff00ff;"/>
    </defs>
    <g>
     <use style="fill:#ff00ff;stroke:#ff00ff;" x="196.703095" xlink:href="#mbe21922011" y="6.381624"/>
     <use style="fill:#ff00ff;stroke:#ff00ff;" x="196.703095" xlink:href="#mbe21922011" y="6.381624"/>
    </g>
   </g>
   <g id="line2d_34">
    <path d="M 45.512012 298.944 
L 45.512012 282.3081 
L 57.6 282.3081 
L 57.6 278.86619 
L 64.67102 278.86619 
L 64.67102 275.42428 
L 69.687988 275.42428 
L 69.687988 273.129673 
L 73.579452 273.129673 
L 73.579452 270.835066 
L 79.447285 270.835066 
L 79.447285 270.261414 
L 81.775977 270.261414 
L 81.775977 268.540459 
L 83.830028 268.540459 
L 83.830028 263.377593 
L 87.329581 263.377593 
L 87.329581 261.656638 
L 88.846997 261.656638 
L 88.846997 261.082987 
L 92.73846 261.082987 
L 92.73846 259.935683 
L 94.921215 259.935683 
L 94.921215 258.78838 
L 106.48859 258.78838 
L 106.48859 257.641076 
L 108.006005 257.641076 
L 108.006005 257.067425 
L 109.843417 257.067425 
L 109.843417 256.493773 
L 111.104637 256.493773 
L 111.104637 255.920121 
L 113.022974 255.920121 
L 113.022974 254.772818 
L 115.077025 254.772818 
L 115.077025 253.051863 
L 117.486268 253.051863 
L 117.486268 252.478211 
L 120.571812 252.478211 
L 120.571812 251.904559 
L 121.264855 251.904559 
L 121.264855 250.757256 
L 123.593547 250.757256 
L 123.593547 250.183604 
L 124.368753 250.183604 
L 124.368753 247.315345 
L 124.557288 247.315345 
L 124.557288 246.741694 
L 125.822869 246.741694 
L 125.822869 246.168042 
L 126.168212 246.168042 
L 126.168212 245.59439 
L 127.002787 245.59439 
L 127.002787 245.020738 
L 129.290685 245.020738 
L 129.290685 243.299783 
L 129.714332 243.299783 
L 129.714332 242.726132 
L 130.398313 242.726132 
L 130.398313 242.15248 
L 130.796184 242.15248 
L 130.796184 241.578828 
L 132.060454 241.578828 
L 132.060454 241.005176 
L 134.236034 241.005176 
L 134.236034 240.431525 
L 134.450015 240.431525 
L 134.55603 236.415963 
L 135.878591 236.415963 
L 135.878591 235.842311 
L 136.170062 235.842311 
L 136.170062 232.974052 
L 136.456742 232.974052 
L 136.456742 232.400401 
L 137.37967 232.400401 
L 137.37967 230.679446 
L 138.510793 230.679446 
L 138.510793 229.532142 
L 140.11924 229.532142 
L 140.11924 227.811187 
L 144.923649 227.811187 
L 144.923649 227.237535 
L 148.306159 227.237535 
L 148.306159 226.090232 
L 149.512548 226.090232 
L 149.512548 221.501018 
L 150.808139 221.501018 
L 150.849711 219.780063 
L 151.015013 219.780063 
L 151.015013 219.206411 
L 152.052897 219.206411 
L 152.052897 218.632759 
L 153.323128 218.632759 
L 153.323128 218.059108 
L 153.925152 218.059108 
L 153.925152 215.764501 
L 154.405793 215.764501 
L 154.405793 214.043546 
L 156.953214 214.043546 
L 156.953214 212.322591 
L 157.725877 212.322591 
L 157.781772 209.454332 
L 158.195371 209.454332 
L 158.195371 207.733377 
L 159.046236 207.733377 
L 159.046236 207.159725 
L 161.100288 207.159725 
L 161.100288 206.012422 
L 162.916926 206.012422 
L 162.916926 204.865118 
L 163.246367 204.865118 
L 163.246367 203.717815 
L 163.847782 203.717815 
L 163.847782 201.99686 
L 164.004716 201.99686 
L 164.004716 201.423208 
L 165.248216 201.423208 
L 165.248216 200.849556 
L 166.289413 200.849556 
L 166.289413 200.275904 
L 166.476842 200.275904 
L 166.476842 199.128601 
L 167.417059 199.128601 
L 167.417059 197.981298 
L 168.047843 197.981298 
L 168.140524 193.965736 
L 168.171308 193.965736 
L 168.171308 192.818432 
L 168.760989 192.818432 
L 168.760989 192.24478 
L 169.488944 192.24478 
L 169.560096 188.80287 
L 170.59394 188.80287 
L 170.59394 188.229218 
L 170.727268 188.229218 
L 170.819995 183.640005 
L 171.620458 183.640005 
L 171.620458 182.492701 
L 171.895887 182.492701 
L 171.895887 181.91905 
L 172.056618 181.91905 
L 172.056618 179.624443 
L 172.240256 179.624443 
L 172.288901 177.903487 
L 172.696997 177.903487 
L 172.696997 175.608881 
L 172.897518 175.608881 
L 172.897518 173.314274 
L 173.06094 173.314274 
L 173.06094 172.740622 
L 174.12024 172.740622 
L 174.12024 172.16697 
L 174.261802 172.16697 
L 174.261802 171.593319 
L 174.380694 171.593319 
L 174.380694 169.872363 
L 174.816832 169.872363 
L 174.816832 168.72506 
L 175.344551 168.72506 
L 175.344551 167.004105 
L 175.516968 167.004105 
L 175.617599 163.562195 
L 175.78735 163.562195 
L 175.886437 159.546632 
L 176.014414 159.546632 
L 176.121974 153.236464 
L 176.363988 153.236464 
L 176.392805 151.515508 
L 176.67839 151.515508 
L 176.67839 149.794553 
L 177.678338 149.794553 
L 177.740637 148.073598 
L 177.802715 148.073598 
L 177.802715 147.499946 
L 178.573302 147.499946 
L 178.573302 143.484384 
L 178.966907 143.484384 
L 178.966907 142.910733 
L 179.156332 142.910733 
L 179.156332 142.337081 
L 179.472902 142.337081 
L 179.472902 140.042474 
L 179.641012 140.042474 
L 179.641012 139.468822 
L 179.768016 139.468822 
L 179.854799 137.174215 
L 180.33602 137.174215 
L 180.33602 136.026912 
L 180.45808 136.026912 
L 180.45808 134.879609 
L 180.669651 134.879609 
L 180.767015 130.290395 
L 181.419369 130.290395 
L 181.526953 127.422136 
L 181.697718 127.422136 
L 181.733085 123.406574 
L 181.81064 123.406574 
L 181.831732 121.111967 
L 181.957749 121.111967 
L 182.027367 116.522754 
L 182.075935 116.522754 
L 182.075935 115.949102 
L 182.268864 115.949102 
L 182.268864 115.37545 
L 182.547572 115.37545 
L 182.547572 113.654495 
L 182.688619 113.654495 
L 182.688619 113.080843 
L 182.92779 113.080843 
L 183.033044 109.638933 
L 183.046156 109.638933 
L 183.046156 105.049719 
L 183.286971 105.049719 
L 183.286971 103.328764 
L 183.467024 103.328764 
L 183.467024 102.755112 
L 183.790277 102.755112 
L 183.790277 100.460506 
L 183.90295 100.460506 
L 183.90295 99.886854 
L 184.04587 99.886854 
L 184.04587 98.73955 
L 184.175348 98.73955 
L 184.175348 97.592247 
L 184.600125 97.592247 
L 184.683853 96.444944 
L 185.038202 96.444944 
L 185.079078 95.29764 
L 185.201133 95.29764 
L 185.201133 94.150337 
L 185.396952 94.150337 
L 185.396952 93.576685 
L 186.279153 93.576685 
L 186.31179 89.561123 
L 186.946792 89.561123 
L 186.946792 86.692864 
L 187.320061 86.692864 
L 187.320061 85.545561 
L 187.483428 85.545561 
L 187.513889 79.809044 
L 187.850478 79.809044 
L 187.939809 75.793482 
L 187.964542 75.793482 
L 187.964542 75.21983 
L 188.166041 75.21983 
L 188.166041 74.646178 
L 188.321706 74.646178 
L 188.321706 72.925223 
L 188.495185 72.925223 
L 188.538286 69.483313 
L 188.808815 69.483313 
L 188.874624 66.615054 
L 189.052006 66.615054 
L 189.052006 66.041402 
L 189.204597 66.041402 
L 189.204597 64.894099 
L 189.351301 64.894099 
L 189.401447 62.599492 
L 189.474129 62.599492 
L 189.474129 61.452189 
L 189.744023 61.452189 
L 189.801954 60.304885 
L 189.859692 60.304885 
L 189.91282 58.58393 
L 190.110621 58.58393 
L 190.215205 53.994716 
L 190.223892 53.994716 
L 190.314846 51.126458 
L 190.550835 51.126458 
L 190.657055 49.405503 
L 190.728918 49.405503 
L 190.728918 48.258199 
L 190.896847 48.258199 
L 191.00514 45.963592 
L 191.054895 45.963592 
L 191.12514 41.374379 
L 191.383019 41.374379 
L 191.456004 37.358817 
L 191.564912 37.358817 
L 191.564912 36.785165 
L 191.752884 36.785165 
L 191.832262 34.490558 
L 191.883664 34.490558 
L 191.930979 32.195951 
L 192.009552 32.195951 
L 192.009552 28.754041 
L 192.254769 28.754041 
L 192.324202 22.443872 
L 192.523247 22.443872 
L 192.523247 21.296568 
L 192.795152 21.296568 
L 192.795152 19.001962 
L 192.970385 19.001962 
L 192.970385 18.42831 
L 193.406344 18.42831 
L 193.489362 14.9864 
L 193.589898 14.9864 
L 193.589898 13.839096 
L 193.845788 13.839096 
L 193.845788 12.691793 
L 194.191615 12.691793 
L 194.191615 12.118141 
L 195.28748 12.118141 
L 195.368495 10.397186 
L 195.786968 10.397186 
L 195.786968 9.249882 
L 196.133859 9.249882 
L 196.133859 8.676231 
L 196.67612 8.676231 
L 196.703095 6.381624 
L 338.688 6.381624 
L 338.688 6.381624 
" style="fill:none;stroke:#ff00ff;stroke-linecap:square;stroke-width:1.5;"/>
   </g>
   <g id="line2d_35">
    <defs>
     <path d="M -0 8.485281 
L 5.091169 0 
L 0 -8.485281 
L -5.091169 -0 
z
" id="m824dc3da12" style="stroke:#ff00ff;stroke-linejoin:miter;stroke-width:1.5;"/>
    </defs>
    <g>
     <use style="fill-opacity:0;stroke:#ff00ff;stroke-linejoin:miter;stroke-width:1.5;" x="121.264855" xlink:href="#m824dc3da12" y="250.757256"/>
     <use style="fill-opacity:0;stroke:#ff00ff;stroke-linejoin:miter;stroke-width:1.5;" x="176.363988" xlink:href="#m824dc3da12" y="152.08916"/>
     <use style="fill-opacity:0;stroke:#ff00ff;stroke-linejoin:miter;stroke-width:1.5;" x="196.703095" xlink:href="#m824dc3da12" y="8.102579"/>
     <use style="fill-opacity:0;stroke:#ff00ff;stroke-linejoin:miter;stroke-width:1.5;" x="196.703095" xlink:href="#m824dc3da12" y="6.381624"/>
     <use style="fill-opacity:0;stroke:#ff00ff;stroke-linejoin:miter;stroke-width:1.5;" x="196.703095" xlink:href="#m824dc3da12" y="6.381624"/>
     <use style="fill-opacity:0;stroke:#ff00ff;stroke-linejoin:miter;stroke-width:1.5;" x="338.688" xlink:href="#m824dc3da12" y="6.381624"/>
    </g>
   </g>
   <g id="line2d_36">
    <path style="fill:none;stroke:#ff00ff;stroke-linecap:square;stroke-width:1.5;"/>
    <g/>
   </g>
   <g id="line2d_37">
    <defs>
     <path d="M 0 1.5 
C 0.397805 1.5 0.77937 1.341951 1.06066 1.06066 
C 1.341951 0.77937 1.5 0.397805 1.5 0 
C 1.5 -0.397805 1.341951 -0.77937 1.06066 -1.06066 
C 0.77937 -1.341951 0.397805 -1.5 0 -1.5 
C -0.397805 -1.5 -0.77937 -1.341951 -1.06066 -1.06066 
C -1.341951 -0.77937 -1.5 -0.397805 -1.5 0 
C -1.5 0.397805 -1.341951 0.77937 -1.06066 1.06066 
C -0.77937 1.341951 -0.397805 1.5 0 1.5 
z
" id="m2b6129deda" style="stroke:#ff7500;"/>
    </defs>
    <g>
     <use style="fill:#ff7500;stroke:#ff7500;" x="190.088754" xlink:href="#m2b6129deda" y="6.381624"/>
     <use style="fill:#ff7500;stroke:#ff7500;" x="190.088754" xlink:href="#m2b6129deda" y="6.381624"/>
    </g>
   </g>
   <g id="line2d_38">
    <path d="M 45.512012 298.944 
L 45.512012 277.145235 
L 57.6 277.145235 
L 57.6 269.687762 
L 64.67102 269.687762 
L 64.67102 267.393156 
L 69.687988 267.393156 
L 69.687988 264.524897 
L 76.759008 264.524897 
L 76.759008 263.951245 
L 79.447285 263.951245 
L 79.447285 262.803942 
L 81.775977 262.803942 
L 81.775977 260.509335 
L 85.66744 260.509335 
L 85.66744 259.935683 
L 92.73846 259.935683 
L 92.73846 258.214728 
L 93.863965 258.214728 
L 93.863965 257.067425 
L 100.934985 257.067425 
L 100.934985 255.920121 
L 101.646892 255.920121 
L 101.646892 254.772818 
L 102.989037 254.772818 
L 102.989037 253.625514 
L 104.23523 253.625514 
L 104.23523 253.051863 
L 105.398279 253.051863 
L 105.398279 252.478211 
L 108.006005 252.478211 
L 108.006005 251.330907 
L 109.401893 251.330907 
L 109.401893 250.757256 
L 109.843417 250.757256 
L 109.843417 250.183604 
L 111.897469 250.183604 
L 111.897469 249.609952 
L 112.655818 249.609952 
L 112.655818 249.036301 
L 115.397021 249.036301 
L 115.397021 247.888997 
L 118.576578 247.888997 
L 118.576578 247.315345 
L 121.489881 247.315345 
L 121.489881 246.168042 
L 121.931406 246.168042 
L 121.931406 245.020738 
L 122.148045 245.020738 
L 122.148045 244.447087 
L 122.782271 244.447087 
L 122.782271 243.873435 
L 124.743806 243.873435 
L 124.743806 243.299783 
L 125.996395 243.299783 
L 125.996395 240.431525 
L 127.642832 240.431525 
L 127.642832 239.857873 
L 128.411207 239.857873 
L 128.411207 238.71057 
L 130.127931 238.71057 
L 130.127931 237.563266 
L 132.422528 237.563266 
L 132.422528 236.989614 
L 133.689303 236.989614 
L 133.689303 236.415963 
L 135.97629 236.415963 
L 135.97629 235.842311 
L 137.910857 235.842311 
L 137.910857 235.268659 
L 138.256201 235.268659 
L 138.256201 234.695008 
L 138.927025 234.695008 
L 138.927025 234.121356 
L 139.572998 234.121356 
L 139.572998 232.400401 
L 141.521035 232.400401 
L 141.521035 231.253097 
L 142.686372 231.253097 
L 142.686372 230.679446 
L 143.273169 230.679446 
L 143.273169 228.95849 
L 143.464461 228.95849 
L 143.464461 228.384839 
L 144.148442 228.384839 
L 144.148442 227.237535 
L 145.270136 227.237535 
L 145.270136 226.663884 
L 145.665858 226.663884 
L 145.665858 226.090232 
L 146.431341 226.090232 
L 146.431341 225.51658 
L 147.010073 225.51658 
L 147.010073 224.942928 
L 148.919783 224.942928 
L 148.919783 224.369277 
L 149.867558 224.369277 
L 149.911431 222.648321 
L 151.541675 222.648321 
L 151.621307 221.501018 
L 151.779487 221.501018 
L 151.779487 220.927366 
L 151.936246 220.927366 
L 151.936246 219.780063 
L 152.091608 219.780063 
L 152.091608 219.206411 
L 152.283884 219.206411 
L 152.322086 218.059108 
L 152.811246 218.059108 
L 152.811246 217.485456 
L 153.430889 217.485456 
L 153.430889 216.911804 
L 154.473387 216.911804 
L 154.473387 215.764501 
L 155.004911 215.764501 
L 155.004911 215.190849 
L 155.135299 215.190849 
L 155.135299 214.617197 
L 156.021696 214.617197 
L 156.021696 214.043546 
L 156.38821 214.043546 
L 156.38821 213.469894 
L 157.098907 213.469894 
L 157.185742 210.601635 
L 157.214591 210.601635 
L 157.272146 208.88068 
L 157.528821 208.88068 
L 157.557108 207.159725 
L 157.753847 207.159725 
L 157.753847 206.012422 
L 158.331086 206.012422 
L 158.331086 205.43877 
L 158.784773 205.43877 
L 158.784773 204.865118 
L 159.708245 204.865118 
L 159.708245 204.291467 
L 160.005512 204.291467 
L 160.005512 203.717815 
L 160.127894 203.717815 
L 160.176607 202.570511 
L 160.346039 202.570511 
L 160.346039 201.423208 
L 160.680044 201.423208 
L 160.774311 198.554949 
L 161.283861 198.554949 
L 161.374928 196.833994 
L 161.510643 196.833994 
L 161.510643 196.260342 
L 162.130378 196.260342 
L 162.130378 194.539387 
L 162.665696 194.539387 
L 162.665696 193.965736 
L 163.266752 193.965736 
L 163.266752 192.818432 
L 163.549667 192.818432 
L 163.549667 191.097477 
L 163.709295 191.097477 
L 163.788565 189.376522 
L 164.371873 189.376522 
L 164.371873 188.80287 
L 164.486229 188.80287 
L 164.524182 187.655567 
L 164.675172 187.655567 
L 164.675172 187.081915 
L 164.880672 187.081915 
L 164.880672 186.508263 
L 165.230021 186.508263 
L 165.230021 185.934612 
L 165.375047 185.934612 
L 165.375047 185.36096 
L 165.59035 185.36096 
L 165.625977 183.640005 
L 165.732422 183.640005 
L 165.732422 183.066353 
L 165.925901 183.066353 
L 165.925901 181.91905 
L 166.289413 181.91905 
L 166.374858 179.050791 
L 166.994465 179.050791 
L 167.043752 177.329836 
L 167.141909 177.329836 
L 167.141909 176.756184 
L 167.384913 176.756184 
L 167.449146 175.035229 
L 167.703739 175.035229 
L 167.703739 172.740622 
L 168.18668 172.740622 
L 168.202038 171.019667 
L 168.370092 171.019667 
L 168.370092 170.446015 
L 168.686493 170.446015 
L 168.731229 169.298712 
L 168.982583 169.298712 
L 168.982583 168.72506 
L 169.201398 168.72506 
L 169.201398 168.151408 
L 169.316986 168.151408 
L 169.345764 166.430453 
L 169.53167 166.430453 
L 169.53167 165.856801 
L 169.687442 165.856801 
L 169.687442 165.28315 
L 170.486538 165.28315 
L 170.486538 164.709498 
L 170.674059 164.709498 
L 170.700684 162.988543 
L 170.872762 162.988543 
L 170.872762 161.841239 
L 171.043158 161.841239 
L 171.043158 161.267588 
L 171.160157 161.267588 
L 171.224819 158.972981 
L 171.455636 158.972981 
L 171.506517 156.104722 
L 171.758716 156.104722 
L 171.846131 154.957419 
L 171.883461 154.957419 
L 171.957882 153.236464 
L 172.349517 153.236464 
L 172.349517 152.662812 
L 172.685129 152.662812 
L 172.732551 149.794553 
L 173.245851 149.794553 
L 173.257343 148.073598 
L 173.383259 148.073598 
L 173.383259 145.20534 
L 173.710926 145.20534 
L 173.722116 144.058036 
L 174.229235 144.058036 
L 174.229235 143.484384 
L 174.348349 143.484384 
L 174.434469 141.763429 
L 174.509477 141.763429 
L 174.541525 140.616126 
L 174.743137 140.616126 
L 174.743137 139.468822 
L 174.952873 139.468822 
L 175.015304 138.321519 
L 175.139502 138.321519 
L 175.139502 137.747867 
L 175.303734 137.747867 
L 175.375102 134.305957 
L 175.747557 134.305957 
L 175.747557 133.732305 
L 175.984964 133.732305 
L 175.984964 133.158653 
L 176.112223 133.158653 
L 176.160922 129.716743 
L 176.296562 129.716743 
L 176.373599 128.56944 
L 176.545699 128.56944 
L 176.60269 127.422136 
L 176.706692 127.422136 
L 176.781943 125.127529 
L 176.847522 125.127529 
L 176.847522 124.553878 
L 176.959372 124.553878 
L 176.959372 123.980226 
L 177.14421 123.980226 
L 177.25418 120.538316 
L 177.345294 120.538316 
L 177.426892 118.817361 
L 177.624761 118.817361 
L 177.624761 117.670057 
L 178.127217 117.670057 
L 178.231177 114.801798 
L 178.248444 114.801798 
L 178.325932 110.786236 
L 178.479885 110.786236 
L 178.522409 109.065281 
L 178.624047 109.065281 
L 178.624047 107.917978 
L 178.991731 107.917978 
L 178.991731 107.344326 
L 179.537135 107.344326 
L 179.537135 106.770674 
L 179.775924 106.770674 
L 179.775924 105.623371 
L 180.259296 105.623371 
L 180.33602 102.181461 
L 180.49605 102.181461 
L 180.579292 99.313202 
L 180.744595 99.313202 
L 180.841542 96.444944 
L 180.856409 96.444944 
L 180.856409 95.29764 
L 181.332822 95.29764 
L 181.376149 92.429381 
L 181.498329 92.429381 
L 181.541248 88.413819 
L 181.619658 88.413819 
L 181.619658 87.840168 
L 181.733085 87.840168 
L 181.824704 84.398257 
L 181.894854 84.398257 
L 181.999553 80.382695 
L 182.075935 80.382695 
L 182.075935 79.235392 
L 182.384967 79.235392 
L 182.384967 78.66174 
L 182.60816 78.66174 
L 182.715356 75.21983 
L 182.735382 75.21983 
L 182.795322 73.498875 
L 182.907984 73.498875 
L 182.96075 71.77792 
L 183.312807 71.77792 
L 183.35149 70.630616 
L 183.428598 70.630616 
L 183.537254 68.336009 
L 183.61989 68.336009 
L 183.689508 66.615054 
L 183.733666 66.615054 
L 183.815378 64.894099 
L 183.940347 64.894099 
L 183.940347 64.320447 
L 184.187629 64.320447 
L 184.187629 63.746796 
L 184.38903 63.746796 
L 184.479812 62.599492 
L 184.576129 62.599492 
L 184.683853 59.731234 
L 184.731518 59.731234 
L 184.773118 58.010278 
L 185.096566 58.010278 
L 185.154736 55.14202 
L 185.224285 55.14202 
L 185.224285 54.568368 
L 185.374029 54.568368 
L 185.482649 51.700109 
L 185.776513 51.700109 
L 185.865946 48.258199 
L 185.893799 48.258199 
L 185.960468 45.389941 
L 186.071018 45.389941 
L 186.098547 43.668985 
L 186.20276 43.668985 
L 186.306355 39.079772 
L 186.317224 39.079772 
L 186.338942 37.358817 
L 186.468683 37.358817 
L 186.560002 36.211513 
L 186.857481 36.211513 
L 186.920572 32.195951 
L 187.020001 32.195951 
L 187.087706 30.474996 
L 187.196524 30.474996 
L 187.242953 28.754041 
L 187.355928 28.754041 
L 187.437635 25.885782 
L 187.508816 25.885782 
L 187.59991 24.164827 
L 187.620088 24.164827 
L 187.700569 20.149265 
L 187.750682 20.149265 
L 187.855453 18.42831 
L 187.875338 18.42831 
L 187.934858 15.560051 
L 188.063125 15.560051 
L 188.063125 14.412748 
L 188.297475 14.412748 
L 188.336229 12.691793 
L 188.43755 12.691793 
L 188.504772 11.544489 
L 188.605122 11.544489 
L 188.605122 10.970838 
L 188.888693 10.970838 
L 188.888693 10.397186 
L 189.093754 10.397186 
L 189.144645 6.955275 
L 190.088754 6.955275 
L 190.088754 6.381624 
L 338.688 6.381624 
L 338.688 6.381624 
" style="fill:none;stroke:#ff7500;stroke-linecap:square;stroke-width:1.5;"/>
   </g>
   <g id="line2d_39">
    <defs>
     <path d="M 0 -6 
L -1.347084 -1.854102 
L -5.706339 -1.854102 
L -2.179628 0.708204 
L -3.526712 4.854102 
L -0 2.291796 
L 3.526712 4.854102 
L 2.179628 0.708204 
L 5.706339 -1.854102 
L 1.347084 -1.854102 
z
" id="mb6a9f29a2a" style="stroke:#ff7500;stroke-linejoin:bevel;stroke-width:1.5;"/>
    </defs>
    <g>
     <use style="fill-opacity:0;stroke:#ff7500;stroke-linejoin:bevel;stroke-width:1.5;" x="156.021696" xlink:href="#mb6a9f29a2a" y="214.617197"/>
     <use style="fill-opacity:0;stroke:#ff7500;stroke-linejoin:bevel;stroke-width:1.5;" x="181.498329" xlink:href="#mb6a9f29a2a" y="91.85573"/>
     <use style="fill-opacity:0;stroke:#ff7500;stroke-linejoin:bevel;stroke-width:1.5;" x="190.088754" xlink:href="#mb6a9f29a2a" y="6.955275"/>
     <use style="fill-opacity:0;stroke:#ff7500;stroke-linejoin:bevel;stroke-width:1.5;" x="190.088754" xlink:href="#mb6a9f29a2a" y="6.381624"/>
     <use style="fill-opacity:0;stroke:#ff7500;stroke-linejoin:bevel;stroke-width:1.5;" x="190.088754" xlink:href="#mb6a9f29a2a" y="6.381624"/>
     <use style="fill-opacity:0;stroke:#ff7500;stroke-linejoin:bevel;stroke-width:1.5;" x="338.688" xlink:href="#mb6a9f29a2a" y="6.381624"/>
    </g>
   </g>
   <g id="line2d_40">
    <path style="fill:none;stroke:#ff7500;stroke-linecap:square;stroke-width:1.5;"/>
    <g/>
   </g>
   <g id="line2d_41">
    <defs>
     <path d="M 0 1.5 
C 0.397805 1.5 0.77937 1.341951 1.06066 1.06066 
C 1.341951 0.77937 1.5 0.397805 1.5 0 
C 1.5 -0.397805 1.341951 -0.77937 1.06066 -1.06066 
C 0.77937 -1.341951 0.397805 -1.5 0 -1.5 
C -0.397805 -1.5 -0.77937 -1.341951 -1.06066 -1.06066 
C -1.341951 -0.77937 -1.5 -0.397805 -1.5 0 
C -1.5 0.397805 -1.341951 0.77937 -1.06066 1.06066 
C -0.77937 1.341951 -0.397805 1.5 0 1.5 
z
" id="m803b624098" style="stroke:#6495ed;"/>
    </defs>
    <g>
     <use style="fill:#6495ed;stroke:#6495ed;" x="192.621925" xlink:href="#m803b624098" y="6.381624"/>
     <use style="fill:#6495ed;stroke:#6495ed;" x="192.621925" xlink:href="#m803b624098" y="6.381624"/>
    </g>
   </g>
   <g id="line2d_42">
    <path d="M 45.512012 298.944 
L 45.512012 293.207483 
L 57.6 293.207483 
L 57.6 290.912876 
L 64.67102 290.912876 
L 64.67102 290.339224 
L 69.687988 290.339224 
L 69.687988 286.323662 
L 73.579452 286.323662 
L 73.579452 285.176359 
L 76.759008 285.176359 
L 76.759008 282.881752 
L 79.447285 282.881752 
L 79.447285 280.587145 
L 83.830028 280.587145 
L 83.830028 280.013493 
L 87.329581 280.013493 
L 87.329581 279.439842 
L 88.846997 279.439842 
L 88.846997 277.145235 
L 92.73846 277.145235 
L 92.73846 276.571583 
L 93.863965 276.571583 
L 93.863965 274.850628 
L 96.86091 274.850628 
L 96.86091 271.982369 
L 99.41757 271.982369 
L 99.41757 269.687762 
L 101.646892 269.687762 
L 101.646892 269.114111 
L 106.48859 269.114111 
L 106.48859 268.540459 
L 109.843417 268.540459 
L 109.843417 267.966807 
L 111.897469 267.966807 
L 111.897469 267.393156 
L 114.080224 267.393156 
L 114.080224 266.819504 
L 117.765302 266.819504 
L 117.765302 264.524897 
L 118.310324 264.524897 
L 118.310324 262.23029 
L 119.850084 262.23029 
L 119.850084 261.656638 
L 120.093994 261.656638 
L 120.093994 259.935683 
L 120.571812 259.935683 
L 120.571812 258.78838 
L 124.368753 258.78838 
L 124.368753 258.214728 
L 126.673734 258.214728 
L 126.673734 257.641076 
L 126.839037 257.641076 
L 126.839037 257.067425 
L 127.642832 257.067425 
L 127.642832 256.493773 
L 128.560901 256.493773 
L 128.560901 255.920121 
L 130.127931 255.920121 
L 130.127931 255.346469 
L 131.814826 255.346469 
L 131.814826 254.772818 
L 134.55603 254.772818 
L 134.55603 254.199166 
L 137.997836 254.199166 
L 137.997836 253.051863 
L 139.172077 253.051863 
L 139.253002 251.330907 
L 139.493548 251.330907 
L 139.572998 247.888997 
L 140.195896 247.888997 
L 140.195896 247.315345 
L 141.521035 247.315345 
L 141.591783 245.59439 
L 142.010346 245.59439 
L 142.010346 245.020738 
L 146.644018 245.020738 
L 146.696785 243.873435 
L 146.958248 243.873435 
L 146.958248 242.15248 
L 147.96658 242.15248 
L 147.96658 241.578828 
L 149.735275 241.578828 
L 149.779481 240.431525 
L 150.51433 240.431525 
L 150.51433 239.857873 
L 150.849711 239.857873 
L 150.849711 239.284221 
L 151.097081 239.284221 
L 151.097081 238.71057 
L 151.421542 238.71057 
L 151.421542 238.136918 
L 151.779487 238.136918 
L 151.779487 236.415963 
L 152.360205 236.415963 
L 152.360205 235.842311 
L 152.624728 235.842311 
L 152.624728 235.268659 
L 152.922207 235.268659 
L 152.922207 234.695008 
L 153.820412 234.695008 
L 153.820412 234.121356 
L 154.029268 234.121356 
L 154.098334 232.400401 
L 154.167129 232.400401 
L 154.201424 230.679446 
L 156.38821 230.679446 
L 156.38821 230.105794 
L 156.687861 230.105794 
L 156.687861 229.532142 
L 157.300853 229.532142 
L 157.300853 228.95849 
L 157.443681 228.95849 
L 157.472107 226.663884 
L 157.669802 226.663884 
L 157.669802 225.51658 
L 157.781772 225.51658 
L 157.781772 223.795625 
L 157.976006 223.795625 
L 157.976006 223.221973 
L 158.304027 223.221973 
L 158.304027 222.648321 
L 158.438903 222.648321 
L 158.438903 222.07467 
L 158.863624 222.07467 
L 158.889829 220.353715 
L 159.931669 220.353715 
L 159.931669 219.780063 
L 160.054568 219.780063 
L 160.054568 218.632759 
L 160.273627 218.632759 
L 160.273627 218.059108 
L 160.489968 218.059108 
L 160.489968 217.485456 
L 160.632719 217.485456 
L 160.727241 216.338153 
L 161.077205 216.338153 
L 161.100288 215.190849 
L 161.555647 215.190849 
L 161.555647 214.043546 
L 161.933569 214.043546 
L 161.933569 213.469894 
L 162.749842 213.469894 
L 162.791763 208.88068 
L 163.164589 208.88068 
L 163.246367 207.159725 
L 163.489428 207.159725 
L 163.489428 205.43877 
L 164.295217 205.43877 
L 164.295217 204.865118 
L 164.65637 204.865118 
L 164.65637 204.291467 
L 164.899235 204.291467 
L 164.899235 203.144163 
L 165.697012 203.144163 
L 165.7501 201.99686 
L 165.978297 201.99686 
L 166.047915 200.275904 
L 166.151824 200.275904 
L 166.151824 199.128601 
L 166.459886 199.128601 
L 166.459886 198.554949 
L 166.662278 198.554949 
L 166.662278 197.981298 
L 166.845764 197.981298 
L 166.91201 194.539387 
L 166.978005 194.539387 
L 167.06015 192.818432 
L 169.143315 192.818432 
L 169.201398 191.097477 
L 169.345764 191.097477 
L 169.345764 189.950174 
L 169.545889 189.950174 
L 169.545889 189.376522 
L 170.607318 189.376522 
L 170.607318 187.655567 
L 170.767069 187.655567 
L 170.767069 187.081915 
L 170.885928 187.081915 
L 170.885928 185.934612 
L 171.160157 185.934612 
L 171.250617 184.213656 
L 171.54458 184.213656 
L 171.54458 183.640005 
L 171.721118 183.640005 
L 171.721118 183.066353 
L 172.019658 183.066353 
L 172.019658 182.492701 
L 172.228073 182.492701 
L 172.228073 181.91905 
L 172.385786 181.91905 
L 172.397859 180.771746 
L 172.768032 180.771746 
L 172.768032 180.198094 
L 172.944366 180.198094 
L 172.944366 177.903487 
L 173.496944 177.903487 
L 173.496944 177.329836 
L 173.666095 177.329836 
L 173.666095 176.756184 
L 173.844732 176.756184 
L 173.844732 176.182532 
L 174.16392 176.182532 
L 174.272644 173.314274 
L 174.294307 173.314274 
L 174.391462 172.16697 
L 174.412979 172.16697 
L 174.520166 170.446015 
L 174.552194 170.446015 
L 174.552194 169.872363 
L 174.743137 169.872363 
L 174.774759 168.151408 
L 175.015304 168.151408 
L 175.015304 166.430453 
L 175.160115 166.430453 
L 175.160115 165.856801 
L 175.313947 165.856801 
L 175.313947 165.28315 
L 175.637655 165.28315 
L 175.697687 161.267588 
L 175.757513 161.267588 
L 175.836964 159.546632 
L 176.043814 159.546632 
L 176.131719 157.252026 
L 176.257915 157.252026 
L 176.257915 156.678374 
L 176.583714 156.678374 
L 176.60269 155.53107 
L 176.931477 155.53107 
L 177.005766 150.941857 
L 177.125814 150.941857 
L 177.153401 149.794553 
L 177.290683 149.794553 
L 177.290683 149.220902 
L 177.65157 149.220902 
L 177.740637 148.073598 
L 177.829252 148.073598 
L 177.829252 146.926295 
L 178.005141 146.926295 
L 178.005141 146.352643 
L 178.308742 146.352643 
L 178.308742 145.778991 
L 178.428718 145.778991 
L 178.428718 145.20534 
L 178.547874 145.20534 
L 178.547874 144.631688 
L 178.73349 144.631688 
L 178.73349 143.484384 
L 178.958624 143.484384 
L 178.958624 142.337081 
L 179.115327 142.337081 
L 179.115327 141.189778 
L 179.286902 141.189778 
L 179.286902 140.042474 
L 179.553156 140.042474 
L 179.553156 139.468822 
L 179.664896 139.468822 
L 179.67285 137.174215 
L 179.823292 137.174215 
L 179.823292 136.026912 
L 180.089306 136.026912 
L 180.089306 135.45326 
L 180.2977 135.45326 
L 180.328363 133.732305 
L 180.473278 133.732305 
L 180.533936 130.290395 
L 180.639584 130.290395 
L 180.737115 128.56944 
L 181.238575 128.56944 
L 181.347276 125.127529 
L 181.412173 125.127529 
L 181.412173 123.980226 
L 181.626769 123.980226 
L 181.66228 122.832923 
L 181.831732 122.832923 
L 181.831732 121.685619 
L 181.985629 121.685619 
L 181.985629 120.538316 
L 182.53408 120.538316 
L 182.62831 119.391012 
L 182.701992 119.391012 
L 182.701992 118.817361 
L 182.894767 118.817361 
L 182.993648 114.228147 
L 183.059259 114.228147 
L 183.091972 110.212585 
L 183.209233 110.212585 
L 183.209233 109.065281 
L 183.396511 109.065281 
L 183.435008 107.344326 
L 183.594505 107.344326 
L 183.594505 106.770674 
L 184.070607 106.770674 
L 184.070607 106.197023 
L 184.193766 106.197023 
L 184.193766 105.623371 
L 184.322154 105.623371 
L 184.322154 105.049719 
L 184.743413 105.049719 
L 184.755301 103.902416 
L 184.861927 103.902416 
L 184.962035 101.034157 
L 185.014801 101.034157 
L 185.125676 99.886854 
L 185.160543 99.886854 
L 185.264727 95.29764 
L 185.287795 95.29764 
L 185.379762 93.576685 
L 185.425565 93.576685 
L 185.482649 90.134775 
L 185.70351 90.134775 
L 185.726005 86.692864 
L 185.815696 86.692864 
L 185.854792 84.971909 
L 186.19182 84.971909 
L 186.19182 83.824606 
L 186.306355 83.824606 
L 186.306355 83.250954 
L 186.420143 83.250954 
L 186.420143 82.677302 
L 186.704063 82.677302 
L 186.804731 76.367133 
L 186.820572 76.367133 
L 186.925819 69.483313 
L 186.983435 69.483313 
L 187.046072 65.467751 
L 187.422344 65.467751 
L 187.427443 63.746796 
L 187.554422 63.746796 
L 187.630169 62.02584 
L 187.785676 62.02584 
L 187.850478 59.731234 
L 188.097498 59.731234 
L 188.195334 58.58393 
L 188.268353 58.58393 
L 188.341067 53.994716 
L 188.399021 53.994716 
L 188.456783 49.979154 
L 188.514354 49.979154 
L 188.595589 48.831851 
L 188.633687 48.831851 
L 188.638444 47.110896 
L 188.789967 47.110896 
L 188.865238 44.816289 
L 189.140025 44.816289 
L 189.140025 44.242637 
L 189.259756 44.242637 
L 189.351301 40.800727 
L 189.415098 40.800727 
L 189.514881 36.785165 
L 189.766327 36.785165 
L 189.846385 35.06421 
L 189.886276 35.06421 
L 189.970194 33.916906 
L 190.053709 33.916906 
L 190.162992 32.769603 
L 190.21086 32.769603 
L 190.319165 29.901344 
L 190.353682 29.901344 
L 190.38813 26.459434 
L 190.61889 26.459434 
L 190.678222 24.164827 
L 190.779466 24.164827 
L 190.855016 21.87022 
L 190.892668 21.87022 
L 190.892668 21.296568 
L 191.013442 21.296568 
L 191.046612 18.42831 
L 191.145746 18.42831 
L 191.240224 17.281006 
L 191.326041 17.281006 
L 191.415495 16.133703 
L 191.472181 16.133703 
L 191.580988 13.839096 
L 191.657151 13.839096 
L 191.657151 13.265444 
L 191.85205 13.265444 
L 191.934916 10.397186 
L 192.22382 10.397186 
L 192.22382 8.102579 
L 192.591622 8.102579 
L 192.621925 6.381624 
L 338.688 6.381624 
L 338.688 6.381624 
" style="fill:none;stroke:#6495ed;stroke-linecap:square;stroke-width:1.5;"/>
   </g>
   <g id="line2d_43">
    <defs>
     <path d="M -0 6 
L 6 -6 
L -6 -6 
z
" id="m24dbc9b945" style="stroke:#6495ed;stroke-linejoin:miter;stroke-width:1.5;"/>
    </defs>
    <g>
     <use style="fill-opacity:0;stroke:#6495ed;stroke-linejoin:miter;stroke-width:1.5;" x="147.96658" xlink:href="#m24dbc9b945" y="242.15248"/>
     <use style="fill-opacity:0;stroke:#6495ed;stroke-linejoin:miter;stroke-width:1.5;" x="188.399021" xlink:href="#m24dbc9b945" y="53.421065"/>
     <use style="fill-opacity:0;stroke:#6495ed;stroke-linejoin:miter;stroke-width:1.5;" x="192.621925" xlink:href="#m24dbc9b945" y="7.528927"/>
     <use style="fill-opacity:0;stroke:#6495ed;stroke-linejoin:miter;stroke-width:1.5;" x="192.621925" xlink:href="#m24dbc9b945" y="6.381624"/>
     <use style="fill-opacity:0;stroke:#6495ed;stroke-linejoin:miter;stroke-width:1.5;" x="192.621925" xlink:href="#m24dbc9b945" y="6.381624"/>
     <use style="fill-opacity:0;stroke:#6495ed;stroke-linejoin:miter;stroke-width:1.5;" x="338.688" xlink:href="#m24dbc9b945" y="6.381624"/>
    </g>
   </g>
   <g id="line2d_44">
    <path style="fill:none;stroke:#6495ed;stroke-linecap:square;stroke-width:1.5;"/>
    <g/>
   </g>
   <g id="line2d_45">
    <defs>
     <path d="M 0 1.5 
C 0.397805 1.5 0.77937 1.341951 1.06066 1.06066 
C 1.341951 0.77937 1.5 0.397805 1.5 0 
C 1.5 -0.397805 1.341951 -0.77937 1.06066 -1.06066 
C 0.77937 -1.341951 0.397805 -1.5 0 -1.5 
C -0.397805 -1.5 -0.77937 -1.341951 -1.06066 -1.06066 
C -1.341951 -0.77937 -1.5 -0.397805 -1.5 0 
C -1.5 0.397805 -1.341951 0.77937 -1.06066 1.06066 
C -0.77937 1.341951 -0.397805 1.5 0 1.5 
z
" id="m05f4515b5a" style="stroke:#ff0000;"/>
    </defs>
    <g>
     <use style="fill:#ff0000;stroke:#ff0000;" x="196.102889" xlink:href="#m05f4515b5a" y="6.381624"/>
     <use style="fill:#ff0000;stroke:#ff0000;" x="196.102889" xlink:href="#m05f4515b5a" y="6.381624"/>
    </g>
   </g>
   <g id="line2d_46">
    <path d="M 45.512012 298.944 
L 45.512012 259.935683 
L 57.6 259.935683 
L 57.6 255.920121 
L 64.67102 255.920121 
L 64.67102 254.199166 
L 69.687988 254.199166 
L 69.687988 250.183604 
L 73.579452 250.183604 
L 73.579452 248.462649 
L 76.759008 248.462649 
L 76.759008 243.299783 
L 79.447285 243.299783 
L 79.447285 239.284221 
L 81.775977 239.284221 
L 81.775977 237.563266 
L 83.830028 237.563266 
L 83.830028 236.989614 
L 85.66744 236.989614 
L 85.66744 235.268659 
L 87.329581 235.268659 
L 87.329581 234.695008 
L 88.846997 234.695008 
L 88.846997 231.253097 
L 91.535274 231.253097 
L 91.535274 230.105794 
L 92.73846 230.105794 
L 92.73846 229.532142 
L 95.918017 229.532142 
L 95.918017 228.95849 
L 97.755429 228.95849 
L 97.755429 227.237535 
L 99.41757 227.237535 
L 99.41757 226.090232 
L 100.192776 226.090232 
L 100.192776 225.51658 
L 101.646892 225.51658 
L 101.646892 224.369277 
L 104.23523 224.369277 
L 104.23523 223.795625 
L 106.48859 223.795625 
L 106.48859 223.221973 
L 107.009204 223.221973 
L 107.009204 222.648321 
L 109.843417 222.648321 
L 109.843417 221.501018 
L 110.694282 221.501018 
L 110.694282 220.927366 
L 111.505558 220.927366 
L 111.505558 219.780063 
L 113.382559 219.780063 
L 113.382559 218.059108 
L 115.397021 218.059108 
L 115.397021 217.485456 
L 116.323218 217.485456 
L 116.323218 216.338153 
L 118.310324 216.338153 
L 118.310324 215.190849 
L 121.712041 215.190849 
L 121.712041 214.617197 
L 122.782271 214.617197 
L 122.782271 213.469894 
L 125.110962 213.469894 
L 125.110962 212.896242 
L 125.822869 212.896242 
L 125.822869 212.322591 
L 126.338353 212.322591 
L 126.338353 211.748939 
L 126.50685 211.748939 
L 126.50685 211.175287 
L 129.147151 211.175287 
L 129.147151 209.454332 
L 133.689303 209.454332 
L 133.689303 208.88068 
L 136.170062 208.88068 
L 136.170062 208.307029 
L 139.090775 208.307029 
L 139.090775 207.159725 
L 139.730821 207.159725 
L 139.8092 204.865118 
L 139.887228 204.865118 
L 139.887228 203.717815 
L 140.042245 203.717815 
L 140.042245 201.99686 
L 140.195896 201.99686 
L 140.195896 201.423208 
L 140.348205 201.423208 
L 140.423864 199.702253 
L 140.723258 199.702253 
L 140.723258 196.260342 
L 142.147664 196.260342 
L 142.147664 195.686691 
L 143.902815 195.686691 
L 143.902815 195.113039 
L 144.390658 195.113039 
L 144.390658 194.539387 
L 146.270114 194.539387 
L 146.270114 192.818432 
L 146.854132 192.818432 
L 146.854132 188.229218 
L 150.344189 188.229218 
L 150.344189 187.081915 
L 150.808139 187.081915 
L 150.849711 185.36096 
L 150.932558 185.36096 
L 150.932558 184.787308 
L 151.421542 184.787308 
L 151.421542 184.213656 
L 151.818809 184.213656 
L 151.818809 183.066353 
L 153.287059 183.066353 
L 153.287059 182.492701 
L 154.507086 182.492701 
L 154.507086 181.345398 
L 154.77436 181.345398 
L 154.77436 180.198094 
L 155.86668 180.198094 
L 155.86668 179.050791 
L 157.415209 179.050791 
L 157.415209 178.477139 
L 158.031107 178.477139 
L 158.031107 176.756184 
L 158.51933 176.756184 
L 158.599388 175.608881 
L 158.652556 175.608881 
L 158.652556 173.887925 
L 159.201253 173.887925 
L 159.201253 173.314274 
L 159.431225 173.314274 
L 159.431225 172.740622 
L 160.103486 172.740622 
L 160.103486 170.446015 
L 161.84538 170.446015 
L 161.84538 168.151408 
L 164.880672 168.151408 
L 164.880672 165.856801 
L 165.211808 165.856801 
L 165.211808 165.28315 
L 166.030537 165.28315 
L 166.030537 162.988543 
L 166.442913 162.988543 
L 166.442913 162.414891 
L 168.521475 162.414891 
L 168.521475 158.399329 
L 168.746115 158.399329 
L 168.746115 157.252026 
L 169.085039 157.252026 
L 169.085039 156.678374 
L 169.883706 156.678374 
L 169.883706 156.104722 
L 171.569909 156.104722 
L 171.569909 154.383767 
L 171.73366 154.383767 
L 171.73366 153.236464 
L 171.957882 153.236464 
L 171.957882 151.515508 
L 172.397859 151.515508 
L 172.397859 146.352643 
L 172.589897 146.352643 
L 172.589897 141.763429 
L 173.234351 141.763429 
L 173.234351 140.616126 
L 174.402224 140.616126 
L 174.402224 138.321519 
L 174.541525 138.321519 
L 174.637316 132.01135 
L 174.83783 132.01135 
L 174.83783 130.290395 
L 175.375102 130.290395 
L 175.375102 129.716743 
L 175.577416 129.716743 
L 175.62763 126.848485 
L 175.955464 126.848485 
L 175.955464 125.701181 
L 176.315853 125.701181 
L 176.354372 118.817361 
L 176.478973 118.817361 
L 176.52666 112.507192 
L 176.60269 112.507192 
L 176.60269 111.359888 
L 177.25418 111.359888 
L 177.299796 101.607809 
L 177.731751 101.607809 
L 177.731751 101.034157 
L 178.248444 101.034157 
L 178.248444 99.313202 
L 178.45432 99.313202 
L 178.547874 96.444944 
L 178.850589 96.444944 
L 178.933752 93.003033 
L 179.107114 93.003033 
L 179.19724 91.282078 
L 179.229898 91.282078 
L 179.254351 88.987471 
L 179.585155 88.987471 
L 179.585155 88.413819 
L 179.728427 88.413819 
L 179.728427 87.840168 
L 179.894103 87.840168 
L 179.964628 78.66174 
L 180.151313 78.66174 
L 180.151313 78.088089 
L 180.579292 78.088089 
L 180.579292 76.367133 
L 180.834104 76.367133 
L 180.834104 75.21983 
L 181.440939 75.21983 
L 181.440939 74.072526 
L 182.013465 74.072526 
L 182.013465 72.925223 
L 182.241433 72.925223 
L 182.241433 71.204268 
L 182.574526 71.204268 
L 182.681928 66.615054 
L 182.888155 66.615054 
L 182.888155 65.467751 
L 183.144185 65.467751 
L 183.144185 64.894099 
L 183.428598 64.894099 
L 183.454225 62.599492 
L 183.657898 62.599492 
L 183.727364 59.731234 
L 183.97145 59.731234 
L 183.97145 58.010278 
L 184.316062 58.010278 
L 184.382961 55.14202 
L 184.509968 55.14202 
L 184.606119 52.847413 
L 184.624088 52.847413 
L 184.731518 47.110896 
L 184.856021 47.110896 
L 184.885534 44.242637 
L 185.391224 44.242637 
L 185.391224 42.521682 
L 185.759693 42.521682 
L 185.849212 41.374379 
L 185.99924 41.374379 
L 186.004772 39.653423 
L 186.153474 39.653423 
L 186.153474 39.079772 
L 186.333515 39.079772 
L 186.333515 38.50612 
L 186.719997 38.50612 
L 186.719997 37.932468 
L 186.889055 37.932468 
L 186.910072 36.211513 
L 187.278979 36.211513 
L 187.278979 33.343255 
L 187.452913 33.343255 
L 187.452913 30.474996 
L 187.875338 30.474996 
L 187.880306 29.327692 
L 188.008973 29.327692 
L 188.008973 28.180389 
L 188.490389 28.180389 
L 188.490389 27.033086 
L 188.671702 27.033086 
L 188.671702 26.459434 
L 191.891559 26.459434 
L 191.962451 21.296568 
L 192.297233 21.296568 
L 192.354972 20.149265 
L 192.500396 20.149265 
L 192.500396 18.42831 
L 192.91465 18.42831 
L 192.91465 16.133703 
L 193.118145 16.133703 
L 193.118145 15.560051 
L 193.8352 15.560051 
L 193.8352 14.9864 
L 193.989842 14.9864 
L 194.063168 12.691793 
L 195.319931 12.691793 
L 195.423371 11.544489 
L 195.522997 11.544489 
L 195.522997 10.970838 
L 195.783811 10.970838 
L 195.783811 8.676231 
L 196.102889 8.676231 
L 196.102889 6.381624 
L 338.688 6.381624 
L 338.688 6.381624 
" style="fill:none;stroke:#ff0000;stroke-linecap:square;stroke-width:1.5;"/>
   </g>
   <g id="line2d_47">
    <defs>
     <path d="M 0 -6 
L -5.196152 -3 
L -5.196152 3 
L -0 6 
L 5.196152 3 
L 5.196152 -3 
z
" id="m13451239e9" style="stroke:#ff0000;stroke-linejoin:miter;stroke-width:1.5;"/>
    </defs>
    <g>
     <use style="fill-opacity:0;stroke:#ff0000;stroke-linejoin:miter;stroke-width:1.5;" x="79.447285" xlink:href="#m13451239e9" y="243.299783"/>
     <use style="fill-opacity:0;stroke:#ff0000;stroke-linejoin:miter;stroke-width:1.5;" x="140.723258" xlink:href="#m13451239e9" y="196.260342"/>
     <use style="fill-opacity:0;stroke:#ff0000;stroke-linejoin:miter;stroke-width:1.5;" x="186.333515" xlink:href="#m13451239e9" y="39.079772"/>
     <use style="fill-opacity:0;stroke:#ff0000;stroke-linejoin:miter;stroke-width:1.5;" x="196.102889" xlink:href="#m13451239e9" y="8.676231"/>
     <use style="fill-opacity:0;stroke:#ff0000;stroke-linejoin:miter;stroke-width:1.5;" x="196.102889" xlink:href="#m13451239e9" y="6.381624"/>
     <use style="fill-opacity:0;stroke:#ff0000;stroke-linejoin:miter;stroke-width:1.5;" x="338.688" xlink:href="#m13451239e9" y="6.381624"/>
    </g>
   </g>
   <g id="line2d_48">
    <path style="fill:none;stroke:#ff0000;stroke-linecap:square;stroke-width:1.5;"/>
    <g/>
   </g>
   <g id="line2d_49">
    <path d="M 338.688 6.381624 
L 369.60768 293.092752 
" style="fill:none;stroke:#ff00ff;stroke-linecap:square;stroke-width:1.5;"/>
    <g>
     <use style="fill-opacity:0;stroke:#ff00ff;stroke-linejoin:miter;stroke-width:1.5;" x="338.688" xlink:href="#m824dc3da12" y="6.381624"/>
     <use style="fill-opacity:0;stroke:#ff00ff;stroke-linejoin:miter;stroke-width:1.5;" x="369.60768" xlink:href="#m824dc3da12" y="293.092752"/>
    </g>
   </g>
   <g id="line2d_50">
    <path d="M 338.688 6.381624 
L 369.60768 222.877782 
" style="fill:none;stroke:#ff0000;stroke-linecap:square;stroke-width:1.5;"/>
    <g>
     <use style="fill-opacity:0;stroke:#ff0000;stroke-linejoin:miter;stroke-width:1.5;" x="338.688" xlink:href="#m13451239e9" y="6.381624"/>
     <use style="fill-opacity:0;stroke:#ff0000;stroke-linejoin:miter;stroke-width:1.5;" x="369.60768" xlink:href="#m13451239e9" y="222.877782"/>
    </g>
   </g>
   <g id="line2d_51">
    <path d="M 338.688 6.381624 
L 369.60768 152.662812 
" style="fill:none;stroke:#6495ed;stroke-linecap:square;stroke-width:1.5;"/>
    <g>
     <use style="fill-opacity:0;stroke:#6495ed;stroke-linejoin:miter;stroke-width:1.5;" x="338.688" xlink:href="#m24dbc9b945" y="6.381624"/>
     <use style="fill-opacity:0;stroke:#6495ed;stroke-linejoin:miter;stroke-width:1.5;" x="369.60768" xlink:href="#m24dbc9b945" y="152.662812"/>
    </g>
   </g>
   <g id="line2d_52">
    <path d="M 338.688 6.381624 
L 369.60768 82.447842 
" style="fill:none;stroke:#ff7500;stroke-linecap:square;stroke-width:1.5;"/>
    <g>
     <use style="fill-opacity:0;stroke:#ff7500;stroke-linejoin:bevel;stroke-width:1.5;" x="338.688" xlink:href="#mb6a9f29a2a" y="6.381624"/>
     <use style="fill-opacity:0;stroke:#ff7500;stroke-linejoin:bevel;stroke-width:1.5;" x="369.60768" xlink:href="#mb6a9f29a2a" y="82.447842"/>
    </g>
   </g>
   <g id="line2d_53">
    <path d="M 338.688 6.381624 
L 369.60768 12.232871 
" style="fill:none;stroke:#000080;stroke-linecap:square;stroke-width:1.5;"/>
    <g>
     <use style="fill-opacity:0;stroke:#000080;stroke-width:1.5;" x="338.688" xlink:href="#mf4e0aa08d7" y="6.381624"/>
     <use style="fill-opacity:0;stroke:#000080;stroke-width:1.5;" x="369.60768" xlink:href="#mf4e0aa08d7" y="12.232871"/>
    </g>
   </g>
   <g id="line2d_54">
    <path d="M 338.688 298.944 
L 338.688 6.381624 
" style="fill:none;stroke:#000000;stroke-linecap:square;stroke-width:1.5;"/>
   </g>
   <g id="patch_3">
    <path d="M 57.6 298.944 
L 57.6 3.456 
" style="fill:none;stroke:#000000;stroke-linecap:square;stroke-linejoin:miter;stroke-width:0.8;"/>
   </g>
   <g id="patch_4">
    <path d="M 338.688 298.944 
L 338.688 3.456 
" style="fill:none;stroke:#000000;stroke-linecap:square;stroke-linejoin:miter;stroke-width:0.8;"/>
   </g>
   <g id="patch_5">
    <path d="M 57.6 298.944 
L 338.688 298.944 
" style="fill:none;stroke:#000000;stroke-linecap:square;stroke-linejoin:miter;stroke-width:0.8;"/>
   </g>
   <g id="patch_6">
    <path d="M 57.6 3.456 
L 338.688 3.456 
" style="fill:none;stroke:#000000;stroke-linecap:square;stroke-linejoin:miter;stroke-width:0.8;"/>
   </g>
   <g id="text_13">
    <!-- f16 -->
    <g transform="translate(375.22944 297.78369)scale(0.17 -0.17)">
     <use xlink:href="#DejaVuSans-66"/>
     <use x="35.205078" xlink:href="#DejaVuSans-31"/>
     <use x="98.828125" xlink:href="#DejaVuSans-36"/>
    </g>
   </g>
   <g id="text_14">
    <!-- f19 -->
    <g transform="translate(375.22944 227.56872)scale(0.17 -0.17)">
     <defs>
      <path d="M 703 97 
L 703 672 
Q 941 559 1184 500 
Q 1428 441 1663 441 
Q 2288 441 2617 861 
Q 2947 1281 2994 2138 
Q 2813 1869 2534 1725 
Q 2256 1581 1919 1581 
Q 1219 1581 811 2004 
Q 403 2428 403 3163 
Q 403 3881 828 4315 
Q 1253 4750 1959 4750 
Q 2769 4750 3195 4129 
Q 3622 3509 3622 2328 
Q 3622 1225 3098 567 
Q 2575 -91 1691 -91 
Q 1453 -91 1209 -44 
Q 966 3 703 97 
z
M 1959 2075 
Q 2384 2075 2632 2365 
Q 2881 2656 2881 3163 
Q 2881 3666 2632 3958 
Q 2384 4250 1959 4250 
Q 1534 4250 1286 3958 
Q 1038 3666 1038 3163 
Q 1038 2656 1286 2365 
Q 1534 2075 1959 2075 
z
" id="DejaVuSans-39" transform="scale(0.015625)"/>
     </defs>
     <use xlink:href="#DejaVuSans-66"/>
     <use x="35.205078" xlink:href="#DejaVuSans-31"/>
     <use x="98.828125" xlink:href="#DejaVuSans-39"/>
    </g>
   </g>
   <g id="text_15">
    <!-- f18 -->
    <g transform="translate(375.22944 157.353749)scale(0.17 -0.17)">
     <use xlink:href="#DejaVuSans-66"/>
     <use x="35.205078" xlink:href="#DejaVuSans-31"/>
     <use x="98.828125" xlink:href="#DejaVuSans-38"/>
    </g>
   </g>
   <g id="text_16">
    <!-- f17 -->
    <g transform="translate(375.22944 87.138779)scale(0.17 -0.17)">
     <defs>
      <path d="M 525 4666 
L 3525 4666 
L 3525 4397 
L 1831 0 
L 1172 0 
L 2766 4134 
L 525 4134 
L 525 4666 
z
" id="DejaVuSans-37" transform="scale(0.015625)"/>
     </defs>
     <use xlink:href="#DejaVuSans-66"/>
     <use x="35.205078" xlink:href="#DejaVuSans-31"/>
     <use x="98.828125" xlink:href="#DejaVuSans-37"/>
    </g>
   </g>
   <g id="text_17">
    <!-- f15 -->
    <g transform="translate(375.22944 16.923809)scale(0.17 -0.17)">
     <defs>
      <path d="M 691 4666 
L 3169 4666 
L 3169 4134 
L 1269 4134 
L 1269 2991 
Q 1406 3038 1543 3061 
Q 1681 3084 1819 3084 
Q 2600 3084 3056 2656 
Q 3513 2228 3513 1497 
Q 3513 744 3044 326 
Q 2575 -91 1722 -91 
Q 1428 -91 1123 -41 
Q 819 9 494 109 
L 494 744 
Q 775 591 1075 516 
Q 1375 441 1709 441 
Q 2250 441 2565 725 
Q 2881 1009 2881 1497 
Q 2881 1984 2565 2268 
Q 2250 2553 1709 2553 
Q 1456 2553 1204 2497 
Q 953 2441 691 2322 
L 691 4666 
z
" id="DejaVuSans-35" transform="scale(0.015625)"/>
     </defs>
     <use xlink:href="#DejaVuSans-66"/>
     <use x="35.205078" xlink:href="#DejaVuSans-31"/>
     <use x="98.828125" xlink:href="#DejaVuSans-35"/>
    </g>
   </g>
   <g id="text_18">
    <!-- bbob -->
    <g transform="translate(60.41088 14.161286)scale(0.102 -0.102)">
     <defs>
      <path d="M 3116 1747 
Q 3116 2381 2855 2742 
Q 2594 3103 2138 3103 
Q 1681 3103 1420 2742 
Q 1159 2381 1159 1747 
Q 1159 1113 1420 752 
Q 1681 391 2138 391 
Q 2594 391 2855 752 
Q 3116 1113 3116 1747 
z
M 1159 2969 
Q 1341 3281 1617 3432 
Q 1894 3584 2278 3584 
Q 2916 3584 3314 3078 
Q 3713 2572 3713 1747 
Q 3713 922 3314 415 
Q 2916 -91 2278 -91 
Q 1894 -91 1617 61 
Q 1341 213 1159 525 
L 1159 0 
L 581 0 
L 581 4863 
L 1159 4863 
L 1159 2969 
z
" id="DejaVuSans-62" transform="scale(0.015625)"/>
     </defs>
     <use xlink:href="#DejaVuSans-62"/>
     <use x="63.476562" xlink:href="#DejaVuSans-62"/>
     <use x="126.953125" xlink:href="#DejaVuSans-6f"/>
     <use x="188.134766" xlink:href="#DejaVuSans-62"/>
    </g>
    <!-- Multi-modal functions, 2-D -->
    <g transform="translate(60.41088 25.583055)scale(0.102 -0.102)">
     <defs>
      <path d="M 628 4666 
L 1569 4666 
L 2759 1491 
L 3956 4666 
L 4897 4666 
L 4897 0 
L 4281 0 
L 4281 4097 
L 3078 897 
L 2444 897 
L 1241 4097 
L 1241 0 
L 628 0 
L 628 4666 
z
" id="DejaVuSans-4d" transform="scale(0.015625)"/>
      <path d="M 1259 4147 
L 1259 519 
L 2022 519 
Q 2988 519 3436 956 
Q 3884 1394 3884 2338 
Q 3884 3275 3436 3711 
Q 2988 4147 2022 4147 
L 1259 4147 
z
M 628 4666 
L 1925 4666 
Q 3281 4666 3915 4102 
Q 4550 3538 4550 2338 
Q 4550 1131 3912 565 
Q 3275 0 1925 0 
L 628 0 
L 628 4666 
z
" id="DejaVuSans-44" transform="scale(0.015625)"/>
     </defs>
     <use xlink:href="#DejaVuSans-4d"/>
     <use x="86.279297" xlink:href="#DejaVuSans-75"/>
     <use x="149.658203" xlink:href="#DejaVuSans-6c"/>
     <use x="177.441406" xlink:href="#DejaVuSans-74"/>
     <use x="216.650391" xlink:href="#DejaVuSans-69"/>
     <use x="244.433594" xlink:href="#DejaVuSans-2d"/>
     <use x="280.517578" xlink:href="#DejaVuSans-6d"/>
     <use x="377.929688" xlink:href="#DejaVuSans-6f"/>
     <use x="439.111328" xlink:href="#DejaVuSans-64"/>
     <use x="502.587891" xlink:href="#DejaVuSans-61"/>
     <use x="563.867188" xlink:href="#DejaVuSans-6c"/>
     <use x="591.650391" xlink:href="#DejaVuSans-20"/>
     <use x="623.4375" xlink:href="#DejaVuSans-66"/>
     <use x="658.642578" xlink:href="#DejaVuSans-75"/>
     <use x="722.021484" xlink:href="#DejaVuSans-6e"/>
     <use x="785.400391" xlink:href="#DejaVuSans-63"/>
     <use x="840.380859" xlink:href="#DejaVuSans-74"/>
     <use x="879.589844" xlink:href="#DejaVuSans-69"/>
     <use x="907.373047" xlink:href="#DejaVuSans-6f"/>
     <use x="968.554688" xlink:href="#DejaVuSans-6e"/>
     <use x="1031.933594" xlink:href="#DejaVuSans-73"/>
     <use x="1084.033203" xlink:href="#DejaVuSans-2c"/>
     <use x="1115.820312" xlink:href="#DejaVuSans-20"/>
     <use x="1147.607422" xlink:href="#DejaVuSans-32"/>
     <use x="1211.230469" xlink:href="#DejaVuSans-2d"/>
     <use x="1247.314453" xlink:href="#DejaVuSans-44"/>
    </g>
    <!-- 51 targets: 100..1e-08 -->
    <g transform="translate(60.41088 37.004824)scale(0.102 -0.102)">
     <defs>
      <path d="M 750 794 
L 1409 794 
L 1409 0 
L 750 0 
L 750 794 
z
M 750 3309 
L 1409 3309 
L 1409 2516 
L 750 2516 
L 750 3309 
z
" id="DejaVuSans-3a" transform="scale(0.015625)"/>
     </defs>
     <use xlink:href="#DejaVuSans-35"/>
     <use x="63.623047" xlink:href="#DejaVuSans-31"/>
     <use x="127.246094" xlink:href="#DejaVuSans-20"/>
     <use x="159.033203" xlink:href="#DejaVuSans-74"/>
     <use x="198.242188" xlink:href="#DejaVuSans-61"/>
     <use x="259.521484" xlink:href="#DejaVuSans-72"/>
     <use x="298.884766" xlink:href="#DejaVuSans-67"/>
     <use x="362.361328" xlink:href="#DejaVuSans-65"/>
     <use x="423.884766" xlink:href="#DejaVuSans-74"/>
     <use x="463.09375" xlink:href="#DejaVuSans-73"/>
     <use x="515.193359" xlink:href="#DejaVuSans-3a"/>
     <use x="548.884766" xlink:href="#DejaVuSans-20"/>
     <use x="580.671875" xlink:href="#DejaVuSans-31"/>
     <use x="644.294922" xlink:href="#DejaVuSans-30"/>
     <use x="707.917969" xlink:href="#DejaVuSans-30"/>
     <use x="771.541016" xlink:href="#DejaVuSans-2e"/>
     <use x="803.328125" xlink:href="#DejaVuSans-2e"/>
     <use x="835.115234" xlink:href="#DejaVuSans-31"/>
     <use x="898.738281" xlink:href="#DejaVuSans-65"/>
     <use x="960.261719" xlink:href="#DejaVuSans-2d"/>
     <use x="996.345703" xlink:href="#DejaVuSans-30"/>
     <use x="1059.96875" xlink:href="#DejaVuSans-38"/>
    </g>
    <!-- 15 instances -->
    <g transform="translate(60.41088 48.426593)scale(0.102 -0.102)">
     <use xlink:href="#DejaVuSans-31"/>
     <use x="63.623047" xlink:href="#DejaVuSans-35"/>
     <use x="127.246094" xlink:href="#DejaVuSans-20"/>
     <use x="159.033203" xlink:href="#DejaVuSans-69"/>
     <use x="186.816406" xlink:href="#DejaVuSans-6e"/>
     <use x="250.195312" xlink:href="#DejaVuSans-73"/>
     <use x="302.294922" xlink:href="#DejaVuSans-74"/>
     <use x="341.503906" xlink:href="#DejaVuSans-61"/>
     <use x="402.783203" xlink:href="#DejaVuSans-6e"/>
     <use x="466.162109" xlink:href="#DejaVuSans-63"/>
     <use x="521.142578" xlink:href="#DejaVuSans-65"/>
     <use x="582.666016" xlink:href="#DejaVuSans-73"/>
    </g>
   </g>
   <g id="text_19">
    <!-- v2.4 -->
    <g style="fill:#808080;" transform="translate(187.233062 293.909432)scale(0.1 -0.1)">
     <use xlink:href="#DejaVuSans-76"/>
     <use x="59.179688" xlink:href="#DejaVuSans-32"/>
     <use x="122.802734" xlink:href="#DejaVuSans-2e"/>
     <use x="154.589844" xlink:href="#DejaVuSans-34"/>
    </g>
   </g>
  </g>
 </g>
 <defs>
  <clipPath id="p4c1863364d">
   <rect height="295.488" width="281.088" x="57.6" y="3.456"/>
  </clipPath>
 </defs>
</svg>
