<?xml version="1.0" encoding="utf-8" standalone="no"?>
<!DOCTYPE svg PUBLIC "-//W3C//DTD SVG 1.1//EN"
  "http://www.w3.org/Graphics/SVG/1.1/DTD/svg11.dtd">
<svg height="345.6pt" version="1.1" viewBox="0 0 460.8 345.6" width="460.8pt" xmlns="http://www.w3.org/2000/svg" xmlns:xlink="http://www.w3.org/1999/xlink">
 <metadata>
  <rdf:RDF xmlns:cc="http://creativecommons.org/ns#" xmlns:dc="http://purl.org/dc/elements/1.1/" xmlns:rdf="http://www.w3.org/1999/02/22-rdf-syntax-ns#">
   <cc:Work>
    <dc:type rdf:resource="http://purl.org/dc/dcmitype/StillImage"/>
    <dc:date>2021-07-27T16:03:58.449751</dc:date>
    <dc:format>image/svg+xml</dc:format>
    <dc:creator>
     <cc:Agent>
      <dc:title>Matplotlib v3.4.2, https://matplotlib.org/</dc:title>
     </cc:Agent>
    </dc:creator>
   </cc:Work>
  </rdf:RDF>
 </metadata>
 <defs>
  <style type="text/css">*{stroke-linecap:butt;stroke-linejoin:round;}</style>
 </defs>
 <g id="figure_1">
  <g id="patch_1">
   <path d="M 0 345.6 
L 460.8 345.6 
L 460.8 0 
L 0 0 
z
" style="fill:#ffffff;"/>
  </g>
  <g id="axes_1">
   <g id="patch_2">
    <path d="M 57.6 298.944 
L 338.688 298.944 
L 338.688 3.456 
L 57.6 3.456 
z
" style="fill:#ffffff;"/>
   </g>
   <g id="matplotlib.axis_1">
    <g id="xtick_1">
     <g id="line2d_1">
      <path clip-path="url(#p91f5bf2955)" d="M 57.6 298.944 
L 57.6 3.456 
" style="fill:none;stroke:#b0b0b0;stroke-linecap:square;stroke-width:0.8;"/>
     </g>
     <g id="line2d_2">
      <defs>
       <path d="M 0 0 
L 0 3.5 
" id="mca78f7b326" style="stroke:#000000;stroke-width:0.8;"/>
      </defs>
      <g>
       <use style="stroke:#000000;stroke-width:0.8;" x="57.6" xlink:href="#mca78f7b326" y="298.944"/>
      </g>
     </g>
     <g id="text_1">
      <!-- 0 -->
      <g transform="translate(51.2375 321.140875)scale(0.2 -0.2)">
       <defs>
        <path d="M 2034 4250 
Q 1547 4250 1301 3770 
Q 1056 3291 1056 2328 
Q 1056 1369 1301 889 
Q 1547 409 2034 409 
Q 2525 409 2770 889 
Q 3016 1369 3016 2328 
Q 3016 3291 2770 3770 
Q 2525 4250 2034 4250 
z
M 2034 4750 
Q 2819 4750 3233 4129 
Q 3647 3509 3647 2328 
Q 3647 1150 3233 529 
Q 2819 -91 2034 -91 
Q 1250 -91 836 529 
Q 422 1150 422 2328 
Q 422 3509 836 4129 
Q 1250 4750 2034 4750 
z
" id="DejaVuSans-30" transform="scale(0.015625)"/>
       </defs>
       <use xlink:href="#DejaVuSans-30"/>
      </g>
     </g>
    </g>
    <g id="xtick_2">
     <g id="line2d_3">
      <path clip-path="url(#p91f5bf2955)" d="M 137.910857 298.944 
L 137.910857 3.456 
" style="fill:none;stroke:#b0b0b0;stroke-linecap:square;stroke-width:0.8;"/>
     </g>
     <g id="line2d_4">
      <g>
       <use style="stroke:#000000;stroke-width:0.8;" x="137.910857" xlink:href="#mca78f7b326" y="298.944"/>
      </g>
     </g>
     <g id="text_2">
      <!-- 2 -->
      <g transform="translate(131.548357 321.140875)scale(0.2 -0.2)">
       <defs>
        <path d="M 1228 531 
L 3431 531 
L 3431 0 
L 469 0 
L 469 531 
Q 828 903 1448 1529 
Q 2069 2156 2228 2338 
Q 2531 2678 2651 2914 
Q 2772 3150 2772 3378 
Q 2772 3750 2511 3984 
Q 2250 4219 1831 4219 
Q 1534 4219 1204 4116 
Q 875 4013 500 3803 
L 500 4441 
Q 881 4594 1212 4672 
Q 1544 4750 1819 4750 
Q 2544 4750 2975 4387 
Q 3406 4025 3406 3419 
Q 3406 3131 3298 2873 
Q 3191 2616 2906 2266 
Q 2828 2175 2409 1742 
Q 1991 1309 1228 531 
z
" id="DejaVuSans-32" transform="scale(0.015625)"/>
       </defs>
       <use xlink:href="#DejaVuSans-32"/>
      </g>
     </g>
    </g>
    <g id="xtick_3">
     <g id="line2d_5">
      <path clip-path="url(#p91f5bf2955)" d="M 218.221714 298.944 
L 218.221714 3.456 
" style="fill:none;stroke:#b0b0b0;stroke-linecap:square;stroke-width:0.8;"/>
     </g>
     <g id="line2d_6">
      <g>
       <use style="stroke:#000000;stroke-width:0.8;" x="218.221714" xlink:href="#mca78f7b326" y="298.944"/>
      </g>
     </g>
     <g id="text_3">
      <!-- 4 -->
      <g transform="translate(211.859214 321.140875)scale(0.2 -0.2)">
       <defs>
        <path d="M 2419 4116 
L 825 1625 
L 2419 1625 
L 2419 4116 
z
M 2253 4666 
L 3047 4666 
L 3047 1625 
L 3713 1625 
L 3713 1100 
L 3047 1100 
L 3047 0 
L 2419 0 
L 2419 1100 
L 313 1100 
L 313 1709 
L 2253 4666 
z
" id="DejaVuSans-34" transform="scale(0.015625)"/>
       </defs>
       <use xlink:href="#DejaVuSans-34"/>
      </g>
     </g>
    </g>
    <g id="xtick_4">
     <g id="line2d_7">
      <path clip-path="url(#p91f5bf2955)" d="M 298.532571 298.944 
L 298.532571 3.456 
" style="fill:none;stroke:#b0b0b0;stroke-linecap:square;stroke-width:0.8;"/>
     </g>
     <g id="line2d_8">
      <g>
       <use style="stroke:#000000;stroke-width:0.8;" x="298.532571" xlink:href="#mca78f7b326" y="298.944"/>
      </g>
     </g>
     <g id="text_4">
      <!-- 6 -->
      <g transform="translate(292.170071 321.140875)scale(0.2 -0.2)">
       <defs>
        <path d="M 2113 2584 
Q 1688 2584 1439 2293 
Q 1191 2003 1191 1497 
Q 1191 994 1439 701 
Q 1688 409 2113 409 
Q 2538 409 2786 701 
Q 3034 994 3034 1497 
Q 3034 2003 2786 2293 
Q 2538 2584 2113 2584 
z
M 3366 4563 
L 3366 3988 
Q 3128 4100 2886 4159 
Q 2644 4219 2406 4219 
Q 1781 4219 1451 3797 
Q 1122 3375 1075 2522 
Q 1259 2794 1537 2939 
Q 1816 3084 2150 3084 
Q 2853 3084 3261 2657 
Q 3669 2231 3669 1497 
Q 3669 778 3244 343 
Q 2819 -91 2113 -91 
Q 1303 -91 875 529 
Q 447 1150 447 2328 
Q 447 3434 972 4092 
Q 1497 4750 2381 4750 
Q 2619 4750 2861 4703 
Q 3103 4656 3366 4563 
z
" id="DejaVuSans-36" transform="scale(0.015625)"/>
       </defs>
       <use xlink:href="#DejaVuSans-36"/>
      </g>
     </g>
    </g>
    <g id="xtick_5">
     <g id="line2d_9">
      <path clip-path="url(#p91f5bf2955)" d="M 97.755429 298.944 
L 97.755429 3.456 
" style="fill:none;stroke:#b0b0b0;stroke-linecap:square;stroke-width:0.8;"/>
     </g>
     <g id="line2d_10">
      <defs>
       <path d="M 0 0 
L 0 2 
" id="m1de5ec3169" style="stroke:#000000;stroke-width:0.6;"/>
      </defs>
      <g>
       <use style="stroke:#000000;stroke-width:0.6;" x="97.755429" xlink:href="#m1de5ec3169" y="298.944"/>
      </g>
     </g>
    </g>
    <g id="xtick_6">
     <g id="line2d_11">
      <path clip-path="url(#p91f5bf2955)" d="M 178.066286 298.944 
L 178.066286 3.456 
" style="fill:none;stroke:#b0b0b0;stroke-linecap:square;stroke-width:0.8;"/>
     </g>
     <g id="line2d_12">
      <g>
       <use style="stroke:#000000;stroke-width:0.6;" x="178.066286" xlink:href="#m1de5ec3169" y="298.944"/>
      </g>
     </g>
    </g>
    <g id="xtick_7">
     <g id="line2d_13">
      <path clip-path="url(#p91f5bf2955)" d="M 258.377143 298.944 
L 258.377143 3.456 
" style="fill:none;stroke:#b0b0b0;stroke-linecap:square;stroke-width:0.8;"/>
     </g>
     <g id="line2d_14">
      <g>
       <use style="stroke:#000000;stroke-width:0.6;" x="258.377143" xlink:href="#m1de5ec3169" y="298.944"/>
      </g>
     </g>
    </g>
    <g id="xtick_8">
     <g id="line2d_15">
      <path clip-path="url(#p91f5bf2955)" d="M 338.688 298.944 
L 338.688 3.456 
" style="fill:none;stroke:#b0b0b0;stroke-linecap:square;stroke-width:0.8;"/>
     </g>
     <g id="line2d_16">
      <g>
       <use style="stroke:#000000;stroke-width:0.6;" x="338.688" xlink:href="#m1de5ec3169" y="298.944"/>
      </g>
     </g>
    </g>
    <g id="text_5">
     <!-- log10(# f-evals / dimension) -->
     <g transform="translate(77.764078 342.217594)scale(0.17 -0.17)">
      <defs>
       <path d="M 603 4863 
L 1178 4863 
L 1178 0 
L 603 0 
L 603 4863 
z
" id="DejaVuSans-6c" transform="scale(0.015625)"/>
       <path d="M 1959 3097 
Q 1497 3097 1228 2736 
Q 959 2375 959 1747 
Q 959 1119 1226 758 
Q 1494 397 1959 397 
Q 2419 397 2687 759 
Q 2956 1122 2956 1747 
Q 2956 2369 2687 2733 
Q 2419 3097 1959 3097 
z
M 1959 3584 
Q 2709 3584 3137 3096 
Q 3566 2609 3566 1747 
Q 3566 888 3137 398 
Q 2709 -91 1959 -91 
Q 1206 -91 779 398 
Q 353 888 353 1747 
Q 353 2609 779 3096 
Q 1206 3584 1959 3584 
z
" id="DejaVuSans-6f" transform="scale(0.015625)"/>
       <path d="M 2906 1791 
Q 2906 2416 2648 2759 
Q 2391 3103 1925 3103 
Q 1463 3103 1205 2759 
Q 947 2416 947 1791 
Q 947 1169 1205 825 
Q 1463 481 1925 481 
Q 2391 481 2648 825 
Q 2906 1169 2906 1791 
z
M 3481 434 
Q 3481 -459 3084 -895 
Q 2688 -1331 1869 -1331 
Q 1566 -1331 1297 -1286 
Q 1028 -1241 775 -1147 
L 775 -588 
Q 1028 -725 1275 -790 
Q 1522 -856 1778 -856 
Q 2344 -856 2625 -561 
Q 2906 -266 2906 331 
L 2906 616 
Q 2728 306 2450 153 
Q 2172 0 1784 0 
Q 1141 0 747 490 
Q 353 981 353 1791 
Q 353 2603 747 3093 
Q 1141 3584 1784 3584 
Q 2172 3584 2450 3431 
Q 2728 3278 2906 2969 
L 2906 3500 
L 3481 3500 
L 3481 434 
z
" id="DejaVuSans-67" transform="scale(0.015625)"/>
       <path d="M 794 531 
L 1825 531 
L 1825 4091 
L 703 3866 
L 703 4441 
L 1819 4666 
L 2450 4666 
L 2450 531 
L 3481 531 
L 3481 0 
L 794 0 
L 794 531 
z
" id="DejaVuSans-31" transform="scale(0.015625)"/>
       <path d="M 1984 4856 
Q 1566 4138 1362 3434 
Q 1159 2731 1159 2009 
Q 1159 1288 1364 580 
Q 1569 -128 1984 -844 
L 1484 -844 
Q 1016 -109 783 600 
Q 550 1309 550 2009 
Q 550 2706 781 3412 
Q 1013 4119 1484 4856 
L 1984 4856 
z
" id="DejaVuSans-28" transform="scale(0.015625)"/>
       <path d="M 3272 2816 
L 2363 2816 
L 2100 1772 
L 3016 1772 
L 3272 2816 
z
M 2803 4594 
L 2478 3297 
L 3391 3297 
L 3719 4594 
L 4219 4594 
L 3897 3297 
L 4872 3297 
L 4872 2816 
L 3775 2816 
L 3519 1772 
L 4513 1772 
L 4513 1294 
L 3397 1294 
L 3072 0 
L 2572 0 
L 2894 1294 
L 1978 1294 
L 1656 0 
L 1153 0 
L 1478 1294 
L 494 1294 
L 494 1772 
L 1594 1772 
L 1856 2816 
L 850 2816 
L 850 3297 
L 1978 3297 
L 2297 4594 
L 2803 4594 
z
" id="DejaVuSans-23" transform="scale(0.015625)"/>
       <path id="DejaVuSans-20" transform="scale(0.015625)"/>
       <path d="M 2375 4863 
L 2375 4384 
L 1825 4384 
Q 1516 4384 1395 4259 
Q 1275 4134 1275 3809 
L 1275 3500 
L 2222 3500 
L 2222 3053 
L 1275 3053 
L 1275 0 
L 697 0 
L 697 3053 
L 147 3053 
L 147 3500 
L 697 3500 
L 697 3744 
Q 697 4328 969 4595 
Q 1241 4863 1831 4863 
L 2375 4863 
z
" id="DejaVuSans-66" transform="scale(0.015625)"/>
       <path d="M 313 2009 
L 1997 2009 
L 1997 1497 
L 313 1497 
L 313 2009 
z
" id="DejaVuSans-2d" transform="scale(0.015625)"/>
       <path d="M 3597 1894 
L 3597 1613 
L 953 1613 
Q 991 1019 1311 708 
Q 1631 397 2203 397 
Q 2534 397 2845 478 
Q 3156 559 3463 722 
L 3463 178 
Q 3153 47 2828 -22 
Q 2503 -91 2169 -91 
Q 1331 -91 842 396 
Q 353 884 353 1716 
Q 353 2575 817 3079 
Q 1281 3584 2069 3584 
Q 2775 3584 3186 3129 
Q 3597 2675 3597 1894 
z
M 3022 2063 
Q 3016 2534 2758 2815 
Q 2500 3097 2075 3097 
Q 1594 3097 1305 2825 
Q 1016 2553 972 2059 
L 3022 2063 
z
" id="DejaVuSans-65" transform="scale(0.015625)"/>
       <path d="M 191 3500 
L 800 3500 
L 1894 563 
L 2988 3500 
L 3597 3500 
L 2284 0 
L 1503 0 
L 191 3500 
z
" id="DejaVuSans-76" transform="scale(0.015625)"/>
       <path d="M 2194 1759 
Q 1497 1759 1228 1600 
Q 959 1441 959 1056 
Q 959 750 1161 570 
Q 1363 391 1709 391 
Q 2188 391 2477 730 
Q 2766 1069 2766 1631 
L 2766 1759 
L 2194 1759 
z
M 3341 1997 
L 3341 0 
L 2766 0 
L 2766 531 
Q 2569 213 2275 61 
Q 1981 -91 1556 -91 
Q 1019 -91 701 211 
Q 384 513 384 1019 
Q 384 1609 779 1909 
Q 1175 2209 1959 2209 
L 2766 2209 
L 2766 2266 
Q 2766 2663 2505 2880 
Q 2244 3097 1772 3097 
Q 1472 3097 1187 3025 
Q 903 2953 641 2809 
L 641 3341 
Q 956 3463 1253 3523 
Q 1550 3584 1831 3584 
Q 2591 3584 2966 3190 
Q 3341 2797 3341 1997 
z
" id="DejaVuSans-61" transform="scale(0.015625)"/>
       <path d="M 2834 3397 
L 2834 2853 
Q 2591 2978 2328 3040 
Q 2066 3103 1784 3103 
Q 1356 3103 1142 2972 
Q 928 2841 928 2578 
Q 928 2378 1081 2264 
Q 1234 2150 1697 2047 
L 1894 2003 
Q 2506 1872 2764 1633 
Q 3022 1394 3022 966 
Q 3022 478 2636 193 
Q 2250 -91 1575 -91 
Q 1294 -91 989 -36 
Q 684 19 347 128 
L 347 722 
Q 666 556 975 473 
Q 1284 391 1588 391 
Q 1994 391 2212 530 
Q 2431 669 2431 922 
Q 2431 1156 2273 1281 
Q 2116 1406 1581 1522 
L 1381 1569 
Q 847 1681 609 1914 
Q 372 2147 372 2553 
Q 372 3047 722 3315 
Q 1072 3584 1716 3584 
Q 2034 3584 2315 3537 
Q 2597 3491 2834 3397 
z
" id="DejaVuSans-73" transform="scale(0.015625)"/>
       <path d="M 1625 4666 
L 2156 4666 
L 531 -594 
L 0 -594 
L 1625 4666 
z
" id="DejaVuSans-2f" transform="scale(0.015625)"/>
       <path d="M 2906 2969 
L 2906 4863 
L 3481 4863 
L 3481 0 
L 2906 0 
L 2906 525 
Q 2725 213 2448 61 
Q 2172 -91 1784 -91 
Q 1150 -91 751 415 
Q 353 922 353 1747 
Q 353 2572 751 3078 
Q 1150 3584 1784 3584 
Q 2172 3584 2448 3432 
Q 2725 3281 2906 2969 
z
M 947 1747 
Q 947 1113 1208 752 
Q 1469 391 1925 391 
Q 2381 391 2643 752 
Q 2906 1113 2906 1747 
Q 2906 2381 2643 2742 
Q 2381 3103 1925 3103 
Q 1469 3103 1208 2742 
Q 947 2381 947 1747 
z
" id="DejaVuSans-64" transform="scale(0.015625)"/>
       <path d="M 603 3500 
L 1178 3500 
L 1178 0 
L 603 0 
L 603 3500 
z
M 603 4863 
L 1178 4863 
L 1178 4134 
L 603 4134 
L 603 4863 
z
" id="DejaVuSans-69" transform="scale(0.015625)"/>
       <path d="M 3328 2828 
Q 3544 3216 3844 3400 
Q 4144 3584 4550 3584 
Q 5097 3584 5394 3201 
Q 5691 2819 5691 2113 
L 5691 0 
L 5113 0 
L 5113 2094 
Q 5113 2597 4934 2840 
Q 4756 3084 4391 3084 
Q 3944 3084 3684 2787 
Q 3425 2491 3425 1978 
L 3425 0 
L 2847 0 
L 2847 2094 
Q 2847 2600 2669 2842 
Q 2491 3084 2119 3084 
Q 1678 3084 1418 2786 
Q 1159 2488 1159 1978 
L 1159 0 
L 581 0 
L 581 3500 
L 1159 3500 
L 1159 2956 
Q 1356 3278 1631 3431 
Q 1906 3584 2284 3584 
Q 2666 3584 2933 3390 
Q 3200 3197 3328 2828 
z
" id="DejaVuSans-6d" transform="scale(0.015625)"/>
       <path d="M 3513 2113 
L 3513 0 
L 2938 0 
L 2938 2094 
Q 2938 2591 2744 2837 
Q 2550 3084 2163 3084 
Q 1697 3084 1428 2787 
Q 1159 2491 1159 1978 
L 1159 0 
L 581 0 
L 581 3500 
L 1159 3500 
L 1159 2956 
Q 1366 3272 1645 3428 
Q 1925 3584 2291 3584 
Q 2894 3584 3203 3211 
Q 3513 2838 3513 2113 
z
" id="DejaVuSans-6e" transform="scale(0.015625)"/>
       <path d="M 513 4856 
L 1013 4856 
Q 1481 4119 1714 3412 
Q 1947 2706 1947 2009 
Q 1947 1309 1714 600 
Q 1481 -109 1013 -844 
L 513 -844 
Q 928 -128 1133 580 
Q 1338 1288 1338 2009 
Q 1338 2731 1133 3434 
Q 928 4138 513 4856 
z
" id="DejaVuSans-29" transform="scale(0.015625)"/>
      </defs>
      <use xlink:href="#DejaVuSans-6c"/>
      <use x="27.783203" xlink:href="#DejaVuSans-6f"/>
      <use x="88.964844" xlink:href="#DejaVuSans-67"/>
      <use x="152.441406" xlink:href="#DejaVuSans-31"/>
      <use x="216.064453" xlink:href="#DejaVuSans-30"/>
      <use x="279.6875" xlink:href="#DejaVuSans-28"/>
      <use x="318.701172" xlink:href="#DejaVuSans-23"/>
      <use x="402.490234" xlink:href="#DejaVuSans-20"/>
      <use x="434.277344" xlink:href="#DejaVuSans-66"/>
      <use x="463.982422" xlink:href="#DejaVuSans-2d"/>
      <use x="500.066406" xlink:href="#DejaVuSans-65"/>
      <use x="561.589844" xlink:href="#DejaVuSans-76"/>
      <use x="620.769531" xlink:href="#DejaVuSans-61"/>
      <use x="682.048828" xlink:href="#DejaVuSans-6c"/>
      <use x="709.832031" xlink:href="#DejaVuSans-73"/>
      <use x="761.931641" xlink:href="#DejaVuSans-20"/>
      <use x="793.71875" xlink:href="#DejaVuSans-2f"/>
      <use x="827.410156" xlink:href="#DejaVuSans-20"/>
      <use x="859.197266" xlink:href="#DejaVuSans-64"/>
      <use x="922.673828" xlink:href="#DejaVuSans-69"/>
      <use x="950.457031" xlink:href="#DejaVuSans-6d"/>
      <use x="1047.869141" xlink:href="#DejaVuSans-65"/>
      <use x="1109.392578" xlink:href="#DejaVuSans-6e"/>
      <use x="1172.771484" xlink:href="#DejaVuSans-73"/>
      <use x="1224.871094" xlink:href="#DejaVuSans-69"/>
      <use x="1252.654297" xlink:href="#DejaVuSans-6f"/>
      <use x="1313.835938" xlink:href="#DejaVuSans-6e"/>
      <use x="1377.214844" xlink:href="#DejaVuSans-29"/>
     </g>
    </g>
   </g>
   <g id="matplotlib.axis_2">
    <g id="ytick_1">
     <g id="line2d_17">
      <path clip-path="url(#p91f5bf2955)" d="M 57.6 298.944 
L 338.688 298.944 
" style="fill:none;stroke:#b0b0b0;stroke-linecap:square;stroke-width:0.8;"/>
     </g>
     <g id="line2d_18">
      <defs>
       <path d="M 0 0 
L -3.5 0 
" id="m9db990c6c9" style="stroke:#000000;stroke-width:0.8;"/>
      </defs>
      <g>
       <use style="stroke:#000000;stroke-width:0.8;" x="57.6" xlink:href="#m9db990c6c9" y="298.944"/>
      </g>
     </g>
     <g id="text_6">
      <!-- 0.0 -->
      <g transform="translate(25.155 305.02275)scale(0.16 -0.16)">
       <defs>
        <path d="M 684 794 
L 1344 794 
L 1344 0 
L 684 0 
L 684 794 
z
" id="DejaVuSans-2e" transform="scale(0.015625)"/>
       </defs>
       <use xlink:href="#DejaVuSans-30"/>
       <use x="63.623047" xlink:href="#DejaVuSans-2e"/>
       <use x="95.410156" xlink:href="#DejaVuSans-30"/>
      </g>
     </g>
    </g>
    <g id="ytick_2">
     <g id="line2d_19">
      <path clip-path="url(#p91f5bf2955)" d="M 57.6 240.431525 
L 338.688 240.431525 
" style="fill:none;stroke:#b0b0b0;stroke-linecap:square;stroke-width:0.8;"/>
     </g>
     <g id="line2d_20">
      <g>
       <use style="stroke:#000000;stroke-width:0.8;" x="57.6" xlink:href="#m9db990c6c9" y="240.431525"/>
      </g>
     </g>
     <g id="text_7">
      <!-- 0.2 -->
      <g transform="translate(25.155 246.510275)scale(0.16 -0.16)">
       <use xlink:href="#DejaVuSans-30"/>
       <use x="63.623047" xlink:href="#DejaVuSans-2e"/>
       <use x="95.410156" xlink:href="#DejaVuSans-32"/>
      </g>
     </g>
    </g>
    <g id="ytick_3">
     <g id="line2d_21">
      <path clip-path="url(#p91f5bf2955)" d="M 57.6 181.91905 
L 338.688 181.91905 
" style="fill:none;stroke:#b0b0b0;stroke-linecap:square;stroke-width:0.8;"/>
     </g>
     <g id="line2d_22">
      <g>
       <use style="stroke:#000000;stroke-width:0.8;" x="57.6" xlink:href="#m9db990c6c9" y="181.91905"/>
      </g>
     </g>
     <g id="text_8">
      <!-- 0.4 -->
      <g transform="translate(25.155 187.9978)scale(0.16 -0.16)">
       <use xlink:href="#DejaVuSans-30"/>
       <use x="63.623047" xlink:href="#DejaVuSans-2e"/>
       <use x="95.410156" xlink:href="#DejaVuSans-34"/>
      </g>
     </g>
    </g>
    <g id="ytick_4">
     <g id="line2d_23">
      <path clip-path="url(#p91f5bf2955)" d="M 57.6 123.406574 
L 338.688 123.406574 
" style="fill:none;stroke:#b0b0b0;stroke-linecap:square;stroke-width:0.8;"/>
     </g>
     <g id="line2d_24">
      <g>
       <use style="stroke:#000000;stroke-width:0.8;" x="57.6" xlink:href="#m9db990c6c9" y="123.406574"/>
      </g>
     </g>
     <g id="text_9">
      <!-- 0.6 -->
      <g transform="translate(25.155 129.485324)scale(0.16 -0.16)">
       <use xlink:href="#DejaVuSans-30"/>
       <use x="63.623047" xlink:href="#DejaVuSans-2e"/>
       <use x="95.410156" xlink:href="#DejaVuSans-36"/>
      </g>
     </g>
    </g>
    <g id="ytick_5">
     <g id="line2d_25">
      <path clip-path="url(#p91f5bf2955)" d="M 57.6 64.894099 
L 338.688 64.894099 
" style="fill:none;stroke:#b0b0b0;stroke-linecap:square;stroke-width:0.8;"/>
     </g>
     <g id="line2d_26">
      <g>
       <use style="stroke:#000000;stroke-width:0.8;" x="57.6" xlink:href="#m9db990c6c9" y="64.894099"/>
      </g>
     </g>
     <g id="text_10">
      <!-- 0.8 -->
      <g transform="translate(25.155 70.972849)scale(0.16 -0.16)">
       <defs>
        <path d="M 2034 2216 
Q 1584 2216 1326 1975 
Q 1069 1734 1069 1313 
Q 1069 891 1326 650 
Q 1584 409 2034 409 
Q 2484 409 2743 651 
Q 3003 894 3003 1313 
Q 3003 1734 2745 1975 
Q 2488 2216 2034 2216 
z
M 1403 2484 
Q 997 2584 770 2862 
Q 544 3141 544 3541 
Q 544 4100 942 4425 
Q 1341 4750 2034 4750 
Q 2731 4750 3128 4425 
Q 3525 4100 3525 3541 
Q 3525 3141 3298 2862 
Q 3072 2584 2669 2484 
Q 3125 2378 3379 2068 
Q 3634 1759 3634 1313 
Q 3634 634 3220 271 
Q 2806 -91 2034 -91 
Q 1263 -91 848 271 
Q 434 634 434 1313 
Q 434 1759 690 2068 
Q 947 2378 1403 2484 
z
M 1172 3481 
Q 1172 3119 1398 2916 
Q 1625 2713 2034 2713 
Q 2441 2713 2670 2916 
Q 2900 3119 2900 3481 
Q 2900 3844 2670 4047 
Q 2441 4250 2034 4250 
Q 1625 4250 1398 4047 
Q 1172 3844 1172 3481 
z
" id="DejaVuSans-38" transform="scale(0.015625)"/>
       </defs>
       <use xlink:href="#DejaVuSans-30"/>
       <use x="63.623047" xlink:href="#DejaVuSans-2e"/>
       <use x="95.410156" xlink:href="#DejaVuSans-38"/>
      </g>
     </g>
    </g>
    <g id="ytick_6">
     <g id="line2d_27">
      <path clip-path="url(#p91f5bf2955)" d="M 57.6 6.381624 
L 338.688 6.381624 
" style="fill:none;stroke:#b0b0b0;stroke-linecap:square;stroke-width:0.8;"/>
     </g>
     <g id="line2d_28">
      <g>
       <use style="stroke:#000000;stroke-width:0.8;" x="57.6" xlink:href="#m9db990c6c9" y="6.381624"/>
      </g>
     </g>
     <g id="text_11">
      <!-- 1.0 -->
      <g transform="translate(25.155 12.460374)scale(0.16 -0.16)">
       <use xlink:href="#DejaVuSans-31"/>
       <use x="63.623047" xlink:href="#DejaVuSans-2e"/>
       <use x="95.410156" xlink:href="#DejaVuSans-30"/>
      </g>
     </g>
    </g>
    <g id="text_12">
     <!-- Fraction of function,target pairs -->
     <g transform="translate(17.619531 285.585)rotate(-90)scale(0.17 -0.17)">
      <defs>
       <path d="M 628 4666 
L 3309 4666 
L 3309 4134 
L 1259 4134 
L 1259 2759 
L 3109 2759 
L 3109 2228 
L 1259 2228 
L 1259 0 
L 628 0 
L 628 4666 
z
" id="DejaVuSans-46" transform="scale(0.015625)"/>
       <path d="M 2631 2963 
Q 2534 3019 2420 3045 
Q 2306 3072 2169 3072 
Q 1681 3072 1420 2755 
Q 1159 2438 1159 1844 
L 1159 0 
L 581 0 
L 581 3500 
L 1159 3500 
L 1159 2956 
Q 1341 3275 1631 3429 
Q 1922 3584 2338 3584 
Q 2397 3584 2469 3576 
Q 2541 3569 2628 3553 
L 2631 2963 
z
" id="DejaVuSans-72" transform="scale(0.015625)"/>
       <path d="M 3122 3366 
L 3122 2828 
Q 2878 2963 2633 3030 
Q 2388 3097 2138 3097 
Q 1578 3097 1268 2742 
Q 959 2388 959 1747 
Q 959 1106 1268 751 
Q 1578 397 2138 397 
Q 2388 397 2633 464 
Q 2878 531 3122 666 
L 3122 134 
Q 2881 22 2623 -34 
Q 2366 -91 2075 -91 
Q 1284 -91 818 406 
Q 353 903 353 1747 
Q 353 2603 823 3093 
Q 1294 3584 2113 3584 
Q 2378 3584 2631 3529 
Q 2884 3475 3122 3366 
z
" id="DejaVuSans-63" transform="scale(0.015625)"/>
       <path d="M 1172 4494 
L 1172 3500 
L 2356 3500 
L 2356 3053 
L 1172 3053 
L 1172 1153 
Q 1172 725 1289 603 
Q 1406 481 1766 481 
L 2356 481 
L 2356 0 
L 1766 0 
Q 1100 0 847 248 
Q 594 497 594 1153 
L 594 3053 
L 172 3053 
L 172 3500 
L 594 3500 
L 594 4494 
L 1172 4494 
z
" id="DejaVuSans-74" transform="scale(0.015625)"/>
       <path d="M 544 1381 
L 544 3500 
L 1119 3500 
L 1119 1403 
Q 1119 906 1312 657 
Q 1506 409 1894 409 
Q 2359 409 2629 706 
Q 2900 1003 2900 1516 
L 2900 3500 
L 3475 3500 
L 3475 0 
L 2900 0 
L 2900 538 
Q 2691 219 2414 64 
Q 2138 -91 1772 -91 
Q 1169 -91 856 284 
Q 544 659 544 1381 
z
M 1991 3584 
L 1991 3584 
z
" id="DejaVuSans-75" transform="scale(0.015625)"/>
       <path d="M 750 794 
L 1409 794 
L 1409 256 
L 897 -744 
L 494 -744 
L 750 256 
L 750 794 
z
" id="DejaVuSans-2c" transform="scale(0.015625)"/>
       <path d="M 1159 525 
L 1159 -1331 
L 581 -1331 
L 581 3500 
L 1159 3500 
L 1159 2969 
Q 1341 3281 1617 3432 
Q 1894 3584 2278 3584 
Q 2916 3584 3314 3078 
Q 3713 2572 3713 1747 
Q 3713 922 3314 415 
Q 2916 -91 2278 -91 
Q 1894 -91 1617 61 
Q 1341 213 1159 525 
z
M 3116 1747 
Q 3116 2381 2855 2742 
Q 2594 3103 2138 3103 
Q 1681 3103 1420 2742 
Q 1159 2381 1159 1747 
Q 1159 1113 1420 752 
Q 1681 391 2138 391 
Q 2594 391 2855 752 
Q 3116 1113 3116 1747 
z
" id="DejaVuSans-70" transform="scale(0.015625)"/>
      </defs>
      <use xlink:href="#DejaVuSans-46"/>
      <use x="50.269531" xlink:href="#DejaVuSans-72"/>
      <use x="91.382812" xlink:href="#DejaVuSans-61"/>
      <use x="152.662109" xlink:href="#DejaVuSans-63"/>
      <use x="207.642578" xlink:href="#DejaVuSans-74"/>
      <use x="246.851562" xlink:href="#DejaVuSans-69"/>
      <use x="274.634766" xlink:href="#DejaVuSans-6f"/>
      <use x="335.816406" xlink:href="#DejaVuSans-6e"/>
      <use x="399.195312" xlink:href="#DejaVuSans-20"/>
      <use x="430.982422" xlink:href="#DejaVuSans-6f"/>
      <use x="492.164062" xlink:href="#DejaVuSans-66"/>
      <use x="527.369141" xlink:href="#DejaVuSans-20"/>
      <use x="559.15625" xlink:href="#DejaVuSans-66"/>
      <use x="594.361328" xlink:href="#DejaVuSans-75"/>
      <use x="657.740234" xlink:href="#DejaVuSans-6e"/>
      <use x="721.119141" xlink:href="#DejaVuSans-63"/>
      <use x="776.099609" xlink:href="#DejaVuSans-74"/>
      <use x="815.308594" xlink:href="#DejaVuSans-69"/>
      <use x="843.091797" xlink:href="#DejaVuSans-6f"/>
      <use x="904.273438" xlink:href="#DejaVuSans-6e"/>
      <use x="967.652344" xlink:href="#DejaVuSans-2c"/>
      <use x="999.439453" xlink:href="#DejaVuSans-74"/>
      <use x="1038.648438" xlink:href="#DejaVuSans-61"/>
      <use x="1099.927734" xlink:href="#DejaVuSans-72"/>
      <use x="1139.291016" xlink:href="#DejaVuSans-67"/>
      <use x="1202.767578" xlink:href="#DejaVuSans-65"/>
      <use x="1264.291016" xlink:href="#DejaVuSans-74"/>
      <use x="1303.5" xlink:href="#DejaVuSans-20"/>
      <use x="1335.287109" xlink:href="#DejaVuSans-70"/>
      <use x="1398.763672" xlink:href="#DejaVuSans-61"/>
      <use x="1460.042969" xlink:href="#DejaVuSans-69"/>
      <use x="1487.826172" xlink:href="#DejaVuSans-72"/>
      <use x="1528.939453" xlink:href="#DejaVuSans-73"/>
     </g>
    </g>
   </g>
   <g id="line2d_29">
    <defs>
     <path d="M 0 1.5 
C 0.397805 1.5 0.77937 1.341951 1.06066 1.06066 
C 1.341951 0.77937 1.5 0.397805 1.5 0 
C 1.5 -0.397805 1.341951 -0.77937 1.06066 -1.06066 
C 0.77937 -1.341951 0.397805 -1.5 0 -1.5 
C -0.397805 -1.5 -0.77937 -1.341951 -1.06066 -1.06066 
C -1.341951 -0.77937 -1.5 -0.397805 -1.5 0 
C -1.5 0.397805 -1.341951 0.77937 -1.06066 1.06066 
C -0.77937 1.341951 -0.397805 1.5 0 1.5 
z
" id="m94f49150c8" style="stroke:#000080;"/>
    </defs>
    <g>
     <use style="fill:#000080;stroke:#000080;" x="187.127685" xlink:href="#m94f49150c8" y="6.381624"/>
     <use style="fill:#000080;stroke:#000080;" x="187.127685" xlink:href="#m94f49150c8" y="6.381624"/>
    </g>
   </g>
   <g id="line2d_30">
    <path d="M 166.495475 298.944 
L 166.495475 298.370348 
L 167.460363 298.370348 
L 167.460363 297.796697 
L 167.859427 297.796697 
L 167.859427 297.223045 
L 168.009081 297.223045 
L 168.009081 296.649393 
L 168.129736 296.649393 
L 168.16977 295.50209 
L 168.5531 295.50209 
L 168.5531 294.928438 
L 168.812946 294.928438 
L 168.812946 294.354786 
L 168.926712 294.354786 
L 168.926712 293.781135 
L 169.347201 293.781135 
L 169.347201 293.207483 
L 169.49037 293.207483 
L 169.516016 291.486528 
L 169.659223 291.486528 
L 169.659223 290.912876 
L 169.858596 290.912876 
L 169.858596 290.339224 
L 169.97547 290.339224 
L 170.052954 289.191921 
L 170.094321 289.191921 
L 170.161678 288.044617 
L 170.53495 288.044617 
L 170.565811 286.897314 
L 170.860903 286.897314 
L 170.860903 286.323662 
L 170.992214 286.323662 
L 171.022276 285.176359 
L 171.431416 285.176359 
L 171.511597 283.455404 
L 171.746192 283.455404 
L 171.746192 282.881752 
L 171.903338 282.881752 
L 171.903338 282.3081 
L 172.076299 282.3081 
L 172.076299 281.734448 
L 172.284043 281.734448 
L 172.318023 280.587145 
L 172.423185 280.587145 
L 172.431619 279.439842 
L 172.546873 279.439842 
L 172.610178 277.718886 
L 172.893999 277.718886 
L 172.970079 276.571583 
L 173.205569 276.571583 
L 173.205569 275.997931 
L 173.31927 275.997931 
L 173.351294 274.850628 
L 173.484475 274.850628 
L 173.591871 273.129673 
L 173.599758 273.129673 
L 173.599758 272.556021 
L 173.909038 272.556021 
L 174.008357 271.408718 
L 174.200962 271.408718 
L 174.242269 269.687762 
L 174.35698 269.687762 
L 174.430173 267.393156 
L 174.675486 267.393156 
L 174.675486 266.819504 
L 174.887078 266.819504 
L 174.995558 264.524897 
L 175.028802 264.524897 
L 175.13847 262.803942 
L 175.180705 262.803942 
L 175.245403 261.082987 
L 175.319052 261.082987 
L 175.42793 259.935683 
L 175.452258 259.935683 
L 175.534116 258.214728 
L 175.581438 258.214728 
L 175.640662 257.067425 
L 175.976119 257.067425 
L 176.034999 255.346469 
L 176.300422 255.346469 
L 176.407196 253.625514 
L 176.476107 253.625514 
L 176.510461 251.904559 
L 176.627328 251.904559 
L 176.736832 249.036301 
L 176.832554 249.036301 
L 176.912855 247.315345 
L 176.971446 247.315345 
L 176.971446 246.741694 
L 177.204779 246.741694 
L 177.283388 243.873435 
L 177.384328 243.873435 
L 177.486489 241.005176 
L 177.512611 241.005176 
L 177.601493 238.71057 
L 177.674772 238.71057 
L 177.749519 236.415963 
L 177.819526 236.415963 
L 177.907742 234.121356 
L 177.995513 234.121356 
L 178.022633 232.974052 
L 178.168008 232.974052 
L 178.190533 231.826749 
L 178.27948 231.826749 
L 178.27948 231.253097 
L 178.423593 231.253097 
L 178.507963 228.95849 
L 178.582617 228.95849 
L 178.644304 226.090232 
L 178.719217 226.090232 
L 178.719217 225.51658 
L 178.834743 225.51658 
L 178.907183 223.795625 
L 178.946192 223.795625 
L 179.028902 221.501018 
L 179.107114 221.501018 
L 179.201326 219.206411 
L 179.238053 219.206411 
L 179.346962 216.338153 
L 179.48014 216.338153 
L 179.564362 212.322591 
L 179.755358 212.322591 
L 179.865813 209.454332 
L 179.941152 209.454332 
L 180.048884 207.159725 
L 180.052775 207.159725 
L 180.148218 205.43877 
L 180.178371 205.43877 
L 180.276205 203.144163 
L 180.300769 203.144163 
L 180.384947 201.423208 
L 180.48998 201.423208 
L 180.584576 197.407646 
L 180.642593 197.407646 
L 180.749829 193.392084 
L 180.760292 193.392084 
L 180.848977 191.671129 
L 180.890556 191.671129 
L 180.966035 188.80287 
L 181.033834 188.80287 
L 181.131386 185.934612 
L 181.159888 185.934612 
L 181.246569 180.771746 
L 181.310394 180.771746 
L 181.416491 175.608881 
L 181.432314 175.608881 
L 181.507637 172.740622 
L 181.607563 172.740622 
L 181.709751 169.298712 
L 181.726017 169.298712 
L 181.831029 164.709498 
L 181.844375 164.709498 
L 181.927727 161.267588 
L 181.970301 161.267588 
L 182.056524 157.825677 
L 182.09394 157.825677 
L 182.198142 153.810115 
L 182.237315 153.810115 
L 182.348171 147.499946 
L 182.399936 147.499946 
L 182.500302 142.910733 
L 182.51247 142.910733 
L 182.615551 138.321519 
L 182.632337 138.321519 
L 182.720031 135.45326 
L 182.802634 135.45326 
L 182.892784 130.864047 
L 182.936365 130.864047 
L 183.036979 126.274833 
L 183.051398 126.274833 
L 183.15526 121.111967 
L 183.185193 121.111967 
L 183.264981 116.522754 
L 183.308934 116.522754 
L 183.41577 111.359888 
L 183.429239 111.359888 
L 183.478536 108.49163 
L 183.541077 108.49163 
L 183.642071 104.476068 
L 183.657898 104.476068 
L 183.768283 100.460506 
L 183.846079 100.460506 
L 183.952172 94.723988 
L 183.960259 94.723988 
L 184.068753 91.282078 
L 184.081727 91.282078 
L 184.153835 87.840168 
L 184.195607 87.840168 
L 184.304481 82.103651 
L 184.35684 82.103651 
L 184.429638 77.514437 
L 184.475586 77.514437 
L 184.574928 73.498875 
L 184.590531 73.498875 
L 184.686239 68.336009 
L 184.749358 68.336009 
L 184.841837 63.746796 
L 184.86488 63.746796 
L 184.970841 59.157582 
L 184.990197 59.157582 
L 185.09948 51.700109 
L 185.111709 51.700109 
L 185.204608 48.831851 
L 185.276842 48.831851 
L 185.373455 43.095334 
L 185.403251 43.095334 
L 185.504292 39.079772 
L 185.540116 39.079772 
L 185.633026 34.490558 
L 185.699008 34.490558 
L 185.752961 28.180389 
L 185.814578 28.180389 
L 185.895469 24.164827 
L 185.96324 24.164827 
L 186.068814 20.149265 
L 186.077629 20.149265 
L 186.126032 17.281006 
L 186.265536 17.281006 
L 186.368218 14.412748 
L 186.386625 14.412748 
L 186.387708 13.265444 
L 186.551428 13.265444 
L 186.644982 10.970838 
L 186.738037 10.970838 
L 186.841673 9.823534 
L 186.921621 9.823534 
L 187.019479 7.528927 
L 187.037734 7.528927 
L 187.127685 6.381624 
L 338.688 6.381624 
L 338.688 6.381624 
" style="fill:none;stroke:#000080;stroke-linecap:square;stroke-width:1.5;"/>
   </g>
   <g id="line2d_31">
    <defs>
     <path d="M 0 6 
C 1.591219 6 3.117479 5.367802 4.242641 4.242641 
C 5.367802 3.117479 6 1.591219 6 0 
C 6 -1.591219 5.367802 -3.117479 4.242641 -4.242641 
C 3.117479 -5.367802 1.591219 -6 0 -6 
C -1.591219 -6 -3.117479 -5.367802 -4.242641 -4.242641 
C -5.367802 -3.117479 -6 -1.591219 -6 0 
C -6 1.591219 -5.367802 3.117479 -4.242641 4.242641 
C -3.117479 5.367802 -1.591219 6 0 6 
z
" id="m5f8e628221" style="stroke:#000080;stroke-width:1.5;"/>
    </defs>
    <g>
     <use style="fill-opacity:0;stroke:#000080;stroke-width:1.5;" x="178.907183" xlink:href="#m5f8e628221" y="224.369277"/>
     <use style="fill-opacity:0;stroke:#000080;stroke-width:1.5;" x="185.752961" xlink:href="#m5f8e628221" y="28.754041"/>
     <use style="fill-opacity:0;stroke:#000080;stroke-width:1.5;" x="187.127685" xlink:href="#m5f8e628221" y="6.381624"/>
     <use style="fill-opacity:0;stroke:#000080;stroke-width:1.5;" x="338.688" xlink:href="#m5f8e628221" y="6.381624"/>
    </g>
   </g>
   <g id="line2d_32">
    <path style="fill:none;stroke:#000080;stroke-linecap:square;stroke-width:1.5;"/>
    <g/>
   </g>
   <g id="line2d_33">
    <defs>
     <path d="M 0 1.5 
C 0.397805 1.5 0.77937 1.341951 1.06066 1.06066 
C 1.341951 0.77937 1.5 0.397805 1.5 0 
C 1.5 -0.397805 1.341951 -0.77937 1.06066 -1.06066 
C 0.77937 -1.341951 0.397805 -1.5 0 -1.5 
C -0.397805 -1.5 -0.77937 -1.341951 -1.06066 -1.06066 
C -1.341951 -0.77937 -1.5 -0.397805 -1.5 0 
C -1.5 0.397805 -1.341951 0.77937 -1.06066 1.06066 
C -0.77937 1.341951 -0.397805 1.5 0 1.5 
z
" id="m72880d317f" style="stroke:#ff00ff;"/>
    </defs>
    <g>
     <use style="fill:#ff00ff;stroke:#ff00ff;" x="181.829624" xlink:href="#m72880d317f" y="6.381624"/>
     <use style="fill:#ff00ff;stroke:#ff00ff;" x="181.829624" xlink:href="#m72880d317f" y="6.381624"/>
    </g>
   </g>
   <g id="line2d_34">
    <path d="M 113.489005 298.944 
L 113.489005 298.370348 
L 121.512225 298.370348 
L 121.512225 297.796697 
L 121.756135 297.796697 
L 121.756135 297.223045 
L 134.106373 297.223045 
L 134.106373 296.649393 
L 137.442482 296.649393 
L 137.442482 296.075741 
L 143.847068 296.075741 
L 143.847068 295.50209 
L 146.807077 295.50209 
L 146.807077 294.928438 
L 154.053472 294.928438 
L 154.053472 294.354786 
L 157.517493 294.354786 
L 157.517493 293.781135 
L 158.110694 293.781135 
L 158.110694 293.207483 
L 158.266075 293.207483 
L 158.266075 292.633831 
L 159.190962 292.633831 
L 159.285929 291.486528 
L 159.426147 291.486528 
L 159.426147 290.912876 
L 160.105929 290.912876 
L 160.105929 290.339224 
L 160.578136 290.339224 
L 160.578136 289.765573 
L 160.689494 289.765573 
L 160.689494 289.191921 
L 160.91243 289.191921 
L 160.928745 288.044617 
L 161.345383 288.044617 
L 161.345383 287.470966 
L 161.53316 287.470966 
L 161.569126 286.323662 
L 161.654251 286.323662 
L 161.758965 284.602707 
L 162.112973 284.602707 
L 162.112973 284.029055 
L 162.297014 284.029055 
L 162.378667 282.881752 
L 162.793857 282.881752 
L 162.793857 282.3081 
L 162.948077 282.3081 
L 162.948077 281.734448 
L 163.477355 281.734448 
L 163.513548 280.587145 
L 163.643626 280.587145 
L 163.643626 280.013493 
L 163.985177 280.013493 
L 163.985177 279.439842 
L 164.167992 279.439842 
L 164.245209 277.718886 
L 164.474827 277.718886 
L 164.5507 275.997931 
L 164.80436 275.997931 
L 164.897379 274.850628 
L 165.017568 274.850628 
L 165.124118 272.556021 
L 165.250034 272.556021 
L 165.299059 271.408718 
L 165.609954 271.408718 
L 165.647318 270.261414 
L 165.959103 270.261414 
L 165.978297 269.114111 
L 166.188046 269.114111 
L 166.188046 268.540459 
L 166.34073 268.540459 
L 166.34073 267.966807 
L 166.470061 267.966807 
L 166.579918 266.819504 
L 166.702476 266.819504 
L 166.794249 265.6722 
L 166.847423 265.6722 
L 166.910357 263.377593 
L 167.097807 263.377593 
L 167.189155 261.082987 
L 167.288118 261.082987 
L 167.288118 260.509335 
L 167.615054 260.509335 
L 167.702159 258.214728 
L 167.799832 258.214728 
L 167.871947 255.346469 
L 168.203573 255.346469 
L 168.248032 254.199166 
L 168.33204 254.199166 
L 168.33204 253.625514 
L 168.516953 253.625514 
L 168.577156 251.904559 
L 168.78476 251.904559 
L 168.848485 249.036301 
L 168.92082 249.036301 
L 169.013383 247.315345 
L 169.417501 247.315345 
L 169.471824 245.020738 
L 169.589893 245.020738 
L 169.589893 244.447087 
L 169.738121 244.447087 
L 169.771826 242.726132 
L 169.933819 242.726132 
L 169.933819 242.15248 
L 170.098453 242.15248 
L 170.169908 241.005176 
L 170.29834 241.005176 
L 170.29834 240.431525 
L 170.43664 240.431525 
L 170.545691 238.136918 
L 170.587246 238.136918 
L 170.682051 235.842311 
L 170.727268 235.842311 
L 170.818674 233.547704 
L 170.850355 233.547704 
L 170.850355 232.974052 
L 170.968651 232.974052 
L 171.022276 231.253097 
L 171.083546 231.253097 
L 171.183463 230.105794 
L 171.235142 230.105794 
L 171.235142 229.532142 
L 171.34702 229.532142 
L 171.435242 226.090232 
L 171.515405 226.090232 
L 171.535706 224.369277 
L 171.658273 224.369277 
L 171.732406 222.648321 
L 171.847377 222.648321 
L 171.939306 217.485456 
L 171.965307 217.485456 
L 172.008554 214.617197 
L 172.100868 214.617197 
L 172.100868 213.469894 
L 172.2974 213.469894 
L 172.383371 210.027984 
L 172.428005 210.027984 
L 172.46892 208.88068 
L 172.549266 208.88068 
L 172.626861 206.586073 
L 172.672065 206.586073 
L 172.733735 204.291467 
L 172.836426 204.291467 
L 172.943197 201.423208 
L 172.959565 201.423208 
L 173.046992 198.554949 
L 173.101557 198.554949 
L 173.101557 197.981298 
L 173.267679 197.981298 
L 173.34215 196.260342 
L 173.387821 196.260342 
L 173.469727 192.818432 
L 173.535429 192.818432 
L 173.643636 188.80287 
L 173.680678 188.80287 
L 173.776842 186.508263 
L 173.849174 186.508263 
L 173.934474 184.787308 
L 174.002855 184.787308 
L 174.098358 183.066353 
L 174.12024 183.066353 
L 174.174823 181.91905 
L 174.255293 181.91905 
L 174.331074 180.198094 
L 174.370997 180.198094 
L 174.452715 177.329836 
L 174.526577 177.329836 
L 174.627761 174.461577 
L 174.643683 174.461577 
L 174.754738 171.593319 
L 174.808425 171.593319 
L 174.892309 168.151408 
L 174.957042 168.151408 
L 175.065089 164.135846 
L 175.077514 164.135846 
L 175.18482 161.267588 
L 175.200242 161.267588 
L 175.292492 159.546632 
L 175.313947 159.546632 
L 175.372049 157.252026 
L 175.444152 157.252026 
L 175.467446 153.810115 
L 175.574399 153.810115 
L 175.63966 150.941857 
L 175.702681 150.941857 
L 175.808205 145.778991 
L 175.863697 145.778991 
L 175.964319 143.484384 
L 175.988894 143.484384 
L 176.074143 140.616126 
L 176.146327 140.616126 
L 176.244369 138.321519 
L 176.261784 138.321519 
L 176.336086 134.879609 
L 176.379363 134.879609 
L 176.431155 132.585002 
L 176.53523 132.585002 
L 176.639635 130.864047 
L 176.673668 130.864047 
L 176.772554 126.274833 
L 176.813826 126.274833 
L 176.904469 123.980226 
L 176.94636 123.980226 
L 177.051112 120.538316 
L 177.082507 120.538316 
L 177.187364 115.37545 
L 177.229497 115.37545 
L 177.301619 113.080843 
L 177.34802 113.080843 
L 177.456716 109.638933 
L 177.543188 109.638933 
L 177.624761 105.049719 
L 177.663175 105.049719 
L 177.757509 102.181461 
L 177.798288 102.181461 
L 177.89806 98.165899 
L 177.91478 98.165899 
L 177.986756 94.723988 
L 178.053201 94.723988 
L 178.10809 92.429381 
L 178.173209 92.429381 
L 178.275173 88.413819 
L 178.291535 88.413819 
L 178.377401 84.971909 
L 178.413339 84.971909 
L 178.524108 81.529999 
L 178.569067 81.529999 
L 178.678013 76.940785 
L 178.720897 76.940785 
L 178.828901 72.351571 
L 178.847254 72.351571 
L 178.942876 68.909661 
L 178.971046 68.909661 
L 179.056934 65.467751 
L 179.106293 65.467751 
L 179.207861 62.02584 
L 179.220107 62.02584 
L 179.250278 59.731234 
L 179.359111 59.731234 
L 179.460831 55.14202 
L 179.485767 55.14202 
L 179.585954 52.273761 
L 179.629057 52.273761 
L 179.716532 48.831851 
L 179.743481 48.831851 
L 179.792517 46.537244 
L 179.876034 46.537244 
L 179.968538 42.521682 
L 180.024741 42.521682 
L 180.135832 39.653423 
L 180.138929 39.653423 
L 180.233133 35.637861 
L 180.280045 35.637861 
L 180.39029 31.048648 
L 180.417742 31.048648 
L 180.525608 27.606737 
L 180.583066 27.606737 
L 180.655376 24.164827 
L 180.694418 24.164827 
L 180.782692 20.149265 
L 180.810279 20.149265 
L 180.899453 17.281006 
L 180.931296 17.281006 
L 181.027949 14.412748 
L 181.114555 14.412748 
L 181.193446 12.118141 
L 181.250928 12.118141 
L 181.326313 10.397186 
L 181.392729 10.397186 
L 181.481849 8.676231 
L 181.569088 8.676231 
L 181.569088 8.102579 
L 181.713996 8.102579 
L 181.762738 6.955275 
L 181.829624 6.955275 
L 181.829624 6.381624 
L 338.688 6.381624 
L 338.688 6.381624 
" style="fill:none;stroke:#ff00ff;stroke-linecap:square;stroke-width:1.5;"/>
   </g>
   <g id="line2d_35">
    <defs>
     <path d="M -0 8.485281 
L 5.091169 0 
L 0 -8.485281 
L -5.091169 -0 
z
" id="m0d8640eab4" style="stroke:#ff00ff;stroke-linejoin:miter;stroke-width:1.5;"/>
    </defs>
    <g>
     <use style="fill-opacity:0;stroke:#ff00ff;stroke-linejoin:miter;stroke-width:1.5;" x="167.871947" xlink:href="#m0d8640eab4" y="255.346469"/>
     <use style="fill-opacity:0;stroke:#ff00ff;stroke-linejoin:miter;stroke-width:1.5;" x="179.106293" xlink:href="#m0d8640eab4" y="65.467751"/>
     <use style="fill-opacity:0;stroke:#ff00ff;stroke-linejoin:miter;stroke-width:1.5;" x="181.829624" xlink:href="#m0d8640eab4" y="6.955275"/>
     <use style="fill-opacity:0;stroke:#ff00ff;stroke-linejoin:miter;stroke-width:1.5;" x="181.829624" xlink:href="#m0d8640eab4" y="6.381624"/>
     <use style="fill-opacity:0;stroke:#ff00ff;stroke-linejoin:miter;stroke-width:1.5;" x="338.688" xlink:href="#m0d8640eab4" y="6.381624"/>
    </g>
   </g>
   <g id="line2d_36">
    <path style="fill:none;stroke:#ff00ff;stroke-linecap:square;stroke-width:1.5;"/>
    <g/>
   </g>
   <g id="line2d_37">
    <defs>
     <path d="M 0 1.5 
C 0.397805 1.5 0.77937 1.341951 1.06066 1.06066 
C 1.341951 0.77937 1.5 0.397805 1.5 0 
C 1.5 -0.397805 1.341951 -0.77937 1.06066 -1.06066 
C 0.77937 -1.341951 0.397805 -1.5 0 -1.5 
C -0.397805 -1.5 -0.77937 -1.341951 -1.06066 -1.06066 
C -1.341951 -0.77937 -1.5 -0.397805 -1.5 0 
C -1.5 0.397805 -1.341951 0.77937 -1.06066 1.06066 
C -0.77937 1.341951 -0.397805 1.5 0 1.5 
z
" id="mfd8373facd" style="stroke:#ff7500;"/>
    </defs>
    <g>
     <use style="fill:#ff7500;stroke:#ff7500;" x="201.529221" xlink:href="#mfd8373facd" y="6.381624"/>
     <use style="fill:#ff7500;stroke:#ff7500;" x="201.529221" xlink:href="#mfd8373facd" y="6.381624"/>
    </g>
   </g>
   <g id="line2d_38">
    <path d="M 161.959939 298.944 
L 161.959939 298.370348 
L 162.099909 298.370348 
L 162.099909 297.796697 
L 162.329291 297.796697 
L 162.393666 296.649393 
L 162.566302 296.649393 
L 162.663587 295.50209 
L 162.760332 295.50209 
L 162.839849 293.781135 
L 162.946002 293.781135 
L 162.972958 292.633831 
L 163.084483 292.633831 
L 163.152289 290.912876 
L 163.299319 290.912876 
L 163.40272 289.191921 
L 163.455199 289.191921 
L 163.469301 287.470966 
L 163.569701 287.470966 
L 163.569701 286.897314 
L 163.735097 286.897314 
L 163.782632 285.75001 
L 163.983221 285.75001 
L 164.082658 284.029055 
L 164.100146 284.029055 
L 164.115677 282.881752 
L 164.224008 282.881752 
L 164.224008 282.3081 
L 164.356568 282.3081 
L 164.398623 281.160797 
L 164.601728 281.160797 
L 164.63378 278.86619 
L 164.82114 278.86619 
L 164.91963 276.571583 
L 164.975134 276.571583 
L 165.041506 274.276976 
L 165.09112 274.276976 
L 165.09112 273.703324 
L 165.246397 273.703324 
L 165.297246 270.835066 
L 165.393091 270.835066 
L 165.450706 269.687762 
L 165.556437 269.687762 
L 165.666858 267.393156 
L 165.748333 267.393156 
L 165.834706 265.6722 
L 165.929399 265.6722 
L 166.023581 263.377593 
L 166.044441 263.377593 
L 166.14837 262.23029 
L 166.203547 262.23029 
L 166.299688 259.935683 
L 166.332187 259.935683 
L 166.417424 257.641076 
L 166.461582 257.641076 
L 166.468366 256.493773 
L 166.695783 256.493773 
L 166.767601 254.199166 
L 166.835805 254.199166 
L 166.941739 251.904559 
L 166.991174 251.904559 
L 167.0929 249.036301 
L 167.185901 249.036301 
L 167.242762 246.741694 
L 167.322057 246.741694 
L 167.360765 245.59439 
L 167.455557 245.59439 
L 167.564173 241.578828 
L 167.656285 241.578828 
L 167.711635 238.136918 
L 167.991998 238.136918 
L 168.018392 236.415963 
L 168.145145 236.415963 
L 168.252624 232.974052 
L 168.272512 232.974052 
L 168.287795 231.826749 
L 168.580161 231.826749 
L 168.580161 231.253097 
L 168.705893 231.253097 
L 168.814429 228.95849 
L 168.934074 228.95849 
L 169.014849 227.237535 
L 169.057289 227.237535 
L 169.159307 225.51658 
L 169.191247 225.51658 
L 169.191247 224.942928 
L 169.312665 224.942928 
L 169.352951 223.795625 
L 169.430382 223.795625 
L 169.538781 222.07467 
L 169.608314 222.07467 
L 169.645097 220.927366 
L 169.816664 220.927366 
L 169.816664 220.353715 
L 170.314668 220.353715 
L 170.371694 219.206411 
L 170.478456 219.206411 
L 170.559106 217.485456 
L 170.755138 217.485456 
L 170.864857 216.338153 
L 170.975199 216.338153 
L 170.975199 215.764501 
L 171.108254 215.764501 
L 171.108254 215.190849 
L 171.242881 215.190849 
L 171.348301 214.043546 
L 171.474734 214.043546 
L 171.54458 212.896242 
L 171.633072 212.896242 
L 171.633072 212.322591 
L 172.034451 212.322591 
L 172.034451 211.748939 
L 172.175591 211.748939 
L 172.234166 210.601635 
L 172.315598 210.601635 
L 172.315598 210.027984 
L 172.516932 210.027984 
L 172.516932 209.454332 
L 172.672065 209.454332 
L 172.672065 208.88068 
L 173.229749 208.88068 
L 173.229749 208.307029 
L 173.427684 208.307029 
L 173.427684 207.733377 
L 174.334314 207.733377 
L 174.334314 207.159725 
L 175.236175 207.159725 
L 175.236175 206.586073 
L 178.387677 206.586073 
L 178.407354 205.43877 
L 178.751105 205.43877 
L 178.853923 203.717815 
L 179.046221 203.717815 
L 179.118611 201.99686 
L 179.188248 201.99686 
L 179.188248 201.423208 
L 179.419731 201.423208 
L 179.419731 200.849556 
L 179.585954 200.849556 
L 179.644198 199.702253 
L 179.84299 199.702253 
L 179.934102 197.981298 
L 180.067552 197.981298 
L 180.067552 197.407646 
L 180.278509 197.407646 
L 180.278509 196.833994 
L 180.551337 196.833994 
L 180.596647 195.686691 
L 180.872748 195.686691 
L 180.950522 194.539387 
L 181.006599 194.539387 
L 181.012491 193.392084 
L 181.357387 193.392084 
L 181.357387 192.818432 
L 181.475396 192.818432 
L 181.475396 192.24478 
L 181.62037 192.24478 
L 181.668664 191.097477 
L 181.751447 191.097477 
L 181.816267 189.950174 
L 181.982843 189.950174 
L 182.059991 188.80287 
L 182.585296 188.80287 
L 182.639718 187.655567 
L 182.905341 187.655567 
L 182.946255 186.508263 
L 183.061223 186.508263 
L 183.066461 185.36096 
L 183.356641 185.36096 
L 183.356641 184.787308 
L 183.522593 184.787308 
L 183.522593 184.213656 
L 183.676871 184.213656 
L 183.776456 181.345398 
L 184.169204 181.345398 
L 184.169204 180.771746 
L 184.327636 180.771746 
L 184.407224 179.050791 
L 184.463506 179.050791 
L 184.496103 177.903487 
L 184.646225 177.903487 
L 184.662361 176.756184 
L 184.874915 176.756184 
L 184.973188 175.035229 
L 185.008361 175.035229 
L 185.038787 173.887925 
L 185.279725 173.887925 
L 185.279725 173.314274 
L 185.407831 173.314274 
L 185.471818 172.16697 
L 185.557148 172.16697 
L 185.557148 171.593319 
L 185.676478 171.593319 
L 185.762498 169.298712 
L 185.941049 169.298712 
L 185.99758 168.151408 
L 186.455213 168.151408 
L 186.519773 166.430453 
L 186.568037 166.430453 
L 186.568037 165.856801 
L 186.760297 165.856801 
L 186.824794 164.709498 
L 186.885374 164.709498 
L 186.956746 162.414891 
L 187.030434 162.414891 
L 187.081987 161.267588 
L 187.245013 161.267588 
L 187.314931 160.120284 
L 187.441711 160.120284 
L 187.531634 157.825677 
L 187.637221 157.825677 
L 187.678474 156.678374 
L 187.810628 156.678374 
L 187.86341 155.53107 
L 187.936838 155.53107 
L 188.040008 152.08916 
L 188.220195 152.08916 
L 188.309595 150.941857 
L 188.524888 150.941857 
L 188.569826 149.220902 
L 188.689256 149.220902 
L 188.799394 146.926295 
L 188.886349 146.926295 
L 188.886349 146.352643 
L 189.070109 146.352643 
L 189.090047 145.20534 
L 189.28727 145.20534 
L 189.378671 144.058036 
L 189.405998 144.058036 
L 189.474583 141.763429 
L 189.533414 141.763429 
L 189.631625 140.042474 
L 189.660353 140.042474 
L 189.740005 138.321519 
L 189.772121 138.321519 
L 189.772121 137.747867 
L 189.917682 137.747867 
L 190.02694 134.879609 
L 190.030453 134.879609 
L 190.079999 133.732305 
L 190.144244 133.732305 
L 190.246025 132.585002 
L 190.264664 132.585002 
L 190.264664 132.01135 
L 190.421651 132.01135 
L 190.513717 130.864047 
L 190.552965 130.864047 
L 190.662985 127.995788 
L 190.695982 127.995788 
L 190.732714 126.274833 
L 190.831966 126.274833 
L 190.875525 123.980226 
L 191.005555 123.980226 
L 191.060277 122.259271 
L 191.316255 122.259271 
L 191.405352 120.538316 
L 191.44629 120.538316 
L 191.541171 118.817361 
L 191.669946 118.817361 
L 191.705881 117.670057 
L 191.791824 117.670057 
L 191.851259 116.522754 
L 191.98798 116.522754 
L 192.057308 114.801798 
L 192.116626 114.801798 
L 192.186222 112.507192 
L 192.256701 112.507192 
L 192.366881 110.786236 
L 192.467209 110.786236 
L 192.565064 109.065281 
L 192.607538 109.065281 
L 192.667658 106.770674 
L 192.784656 106.770674 
L 192.889698 105.049719 
L 192.913162 105.049719 
L 192.965933 103.902416 
L 193.07911 103.902416 
L 193.1714 101.034157 
L 193.243495 101.034157 
L 193.298918 99.886854 
L 193.363598 99.886854 
L 193.466662 97.592247 
L 193.482159 97.592247 
L 193.556929 95.29764 
L 193.763389 95.29764 
L 193.869762 93.003033 
L 193.875046 93.003033 
L 193.966733 89.561123 
L 194.015017 89.561123 
L 194.015017 88.987471 
L 194.155607 88.987471 
L 194.260655 86.692864 
L 194.27443 86.692864 
L 194.376371 84.398257 
L 194.392449 84.398257 
L 194.491665 82.103651 
L 194.5202 82.103651 
L 194.573408 80.382695 
L 194.648032 80.382695 
L 194.73676 79.235392 
L 194.762888 79.235392 
L 194.865017 77.514437 
L 194.898263 77.514437 
L 194.986391 74.646178 
L 195.035891 74.646178 
L 195.141025 71.77792 
L 195.164593 71.77792 
L 195.273507 68.336009 
L 195.283257 68.336009 
L 195.303388 67.188706 
L 195.396277 67.188706 
L 195.480966 65.467751 
L 195.527482 65.467751 
L 195.624605 63.746796 
L 195.650711 63.746796 
L 195.724359 60.878537 
L 195.775285 60.878537 
L 195.838657 57.436627 
L 195.907129 57.436627 
L 195.947833 54.568368 
L 196.02958 54.568368 
L 196.132002 50.552806 
L 196.157051 50.552806 
L 196.239055 47.684547 
L 196.28789 47.684547 
L 196.357679 45.389941 
L 196.405878 45.389941 
L 196.501879 42.521682 
L 196.540918 42.521682 
L 196.649403 40.227075 
L 196.656612 40.227075 
L 196.76289 35.637861 
L 196.778105 35.637861 
L 196.886018 33.343255 
L 196.941942 33.343255 
L 197.015051 32.195951 
L 197.058536 32.195951 
L 197.138171 29.901344 
L 197.171732 29.901344 
L 197.204354 27.606737 
L 197.339438 27.606737 
L 197.441647 25.885782 
L 197.488377 25.885782 
L 197.598257 23.591175 
L 197.734287 23.591175 
L 197.734287 23.017524 
L 197.879346 23.017524 
L 197.915423 20.722917 
L 198.082248 20.722917 
L 198.191761 19.001962 
L 198.250234 19.001962 
L 198.338806 17.854658 
L 198.519199 17.854658 
L 198.55317 16.707355 
L 198.63191 16.707355 
L 198.734836 14.9864 
L 198.845107 14.9864 
L 198.916213 13.839096 
L 199.037401 13.839096 
L 199.085536 12.691793 
L 199.159833 12.691793 
L 199.159833 12.118141 
L 199.373393 12.118141 
L 199.373393 11.544489 
L 199.5704 11.544489 
L 199.5704 10.970838 
L 199.775505 10.970838 
L 199.775505 10.397186 
L 200.347838 10.397186 
L 200.347838 9.823534 
L 200.52626 9.823534 
L 200.52626 9.249882 
L 200.775585 9.249882 
L 200.775585 8.676231 
L 200.898452 8.676231 
L 200.898452 8.102579 
L 201.188228 8.102579 
L 201.188228 7.528927 
L 201.406389 7.528927 
L 201.406389 6.955275 
L 201.529221 6.955275 
L 201.529221 6.381624 
L 338.688 6.381624 
L 338.688 6.381624 
" style="fill:none;stroke:#ff7500;stroke-linecap:square;stroke-width:1.5;"/>
   </g>
   <g id="line2d_39">
    <defs>
     <path d="M 0 -6 
L -1.347084 -1.854102 
L -5.706339 -1.854102 
L -2.179628 0.708204 
L -3.526712 4.854102 
L -0 2.291796 
L 3.526712 4.854102 
L 2.179628 0.708204 
L 5.706339 -1.854102 
L 1.347084 -1.854102 
z
" id="m81f4ded6dc" style="stroke:#ff7500;stroke-linejoin:bevel;stroke-width:1.5;"/>
    </defs>
    <g>
     <use style="fill-opacity:0;stroke:#ff7500;stroke-linejoin:bevel;stroke-width:1.5;" x="188.689256" xlink:href="#m81f4ded6dc" y="149.220902"/>
     <use style="fill-opacity:0;stroke:#ff7500;stroke-linejoin:bevel;stroke-width:1.5;" x="201.529221" xlink:href="#m81f4ded6dc" y="6.955275"/>
     <use style="fill-opacity:0;stroke:#ff7500;stroke-linejoin:bevel;stroke-width:1.5;" x="201.529221" xlink:href="#m81f4ded6dc" y="6.381624"/>
     <use style="fill-opacity:0;stroke:#ff7500;stroke-linejoin:bevel;stroke-width:1.5;" x="338.688" xlink:href="#m81f4ded6dc" y="6.381624"/>
    </g>
   </g>
   <g id="line2d_40">
    <path style="fill:none;stroke:#ff7500;stroke-linecap:square;stroke-width:1.5;"/>
    <g/>
   </g>
   <g id="line2d_41">
    <defs>
     <path d="M 0 1.5 
C 0.397805 1.5 0.77937 1.341951 1.06066 1.06066 
C 1.341951 0.77937 1.5 0.397805 1.5 0 
C 1.5 -0.397805 1.341951 -0.77937 1.06066 -1.06066 
C 0.77937 -1.341951 0.397805 -1.5 0 -1.5 
C -0.397805 -1.5 -0.77937 -1.341951 -1.06066 -1.06066 
C -1.341951 -0.77937 -1.5 -0.397805 -1.5 0 
C -1.5 0.397805 -1.341951 0.77937 -1.06066 1.06066 
C -0.77937 1.341951 -0.397805 1.5 0 1.5 
z
" id="m688faa4404" style="stroke:#6495ed;"/>
    </defs>
    <g>
     <use style="fill:#6495ed;stroke:#6495ed;" x="196.636781" xlink:href="#m688faa4404" y="6.381624"/>
     <use style="fill:#6495ed;stroke:#6495ed;" x="196.636781" xlink:href="#m688faa4404" y="6.381624"/>
    </g>
   </g>
   <g id="line2d_42">
    <path d="M 147.739772 298.944 
L 147.739772 298.370348 
L 149.561792 298.370348 
L 149.615356 296.649393 
L 149.89828 296.649393 
L 149.89828 296.075741 
L 150.059777 296.075741 
L 150.120495 294.928438 
L 150.615623 294.928438 
L 150.649257 293.781135 
L 150.845558 293.781135 
L 150.845558 293.207483 
L 151.62925 293.207483 
L 151.708484 292.060179 
L 151.767673 292.060179 
L 151.830589 290.339224 
L 151.998557 290.339224 
L 151.998557 289.765573 
L 152.122515 289.765573 
L 152.122515 289.191921 
L 152.302996 289.191921 
L 152.31827 288.044617 
L 152.859416 288.044617 
L 152.970072 286.323662 
L 154.056927 286.323662 
L 154.056927 285.75001 
L 154.293687 285.75001 
L 154.293687 285.176359 
L 154.510453 285.176359 
L 154.601099 283.455404 
L 154.771044 283.455404 
L 154.807483 282.3081 
L 155.024532 282.3081 
L 155.024532 281.734448 
L 155.271165 281.734448 
L 155.271165 281.160797 
L 155.396385 281.160797 
L 155.396385 280.587145 
L 155.55562 280.587145 
L 155.55562 280.013493 
L 155.931955 280.013493 
L 155.996986 278.292538 
L 156.107908 278.292538 
L 156.196751 276.571583 
L 156.532685 276.571583 
L 156.532685 275.997931 
L 156.847557 275.997931 
L 156.847557 275.42428 
L 157.101808 275.42428 
L 157.101808 274.850628 
L 157.252023 274.850628 
L 157.252023 274.276976 
L 157.372413 274.276976 
L 157.4579 273.129673 
L 157.647321 273.129673 
L 157.700665 271.982369 
L 157.770607 271.982369 
L 157.770607 271.408718 
L 158.24435 271.408718 
L 158.2525 270.261414 
L 158.766323 270.261414 
L 158.863624 269.114111 
L 158.949951 269.114111 
L 158.965601 267.966807 
L 159.129083 267.966807 
L 159.129083 267.393156 
L 159.244925 267.393156 
L 159.273126 266.245852 
L 159.575321 266.245852 
L 159.575321 265.6722 
L 159.698248 265.6722 
L 159.760634 263.951245 
L 159.812866 263.951245 
L 159.850079 262.803942 
L 160.169309 262.803942 
L 160.169309 262.23029 
L 160.367704 262.23029 
L 160.372515 261.082987 
L 160.532916 261.082987 
L 160.639826 259.362031 
L 160.675317 259.362031 
L 160.675317 258.78838 
L 161.035578 258.78838 
L 161.054091 257.641076 
L 161.167057 257.641076 
L 161.272444 256.493773 
L 161.29527 256.493773 
L 161.29527 255.920121 
L 161.422548 255.920121 
L 161.422548 255.346469 
L 161.53766 255.346469 
L 161.53766 254.772818 
L 161.763407 254.772818 
L 161.772287 253.625514 
L 161.896143 253.625514 
L 161.935768 252.478211 
L 162.29486 252.478211 
L 162.305627 251.330907 
L 162.483394 251.330907 
L 162.549328 250.183604 
L 162.873221 250.183604 
L 162.975029 248.462649 
L 163.238207 248.462649 
L 163.238207 247.888997 
L 163.445119 247.888997 
L 163.48138 246.741694 
L 163.587711 246.741694 
L 163.587711 246.168042 
L 163.754919 246.168042 
L 163.820172 245.020738 
L 164.063205 245.020738 
L 164.150571 243.299783 
L 164.237502 243.299783 
L 164.237502 242.726132 
L 164.415798 242.726132 
L 164.484329 241.005176 
L 164.744566 241.005176 
L 164.746437 239.857873 
L 164.90109 239.857873 
L 164.980675 237.563266 
L 165.102127 237.563266 
L 165.118623 236.415963 
L 165.231842 236.415963 
L 165.329856 235.268659 
L 165.659755 235.268659 
L 165.659755 234.695008 
L 165.859305 234.695008 
L 165.894387 233.547704 
L 166.002695 233.547704 
L 166.002695 232.974052 
L 166.177705 232.974052 
L 166.177705 232.400401 
L 166.408919 232.400401 
L 166.408919 231.826749 
L 166.719198 231.826749 
L 166.719198 231.253097 
L 166.845764 231.253097 
L 166.890507 230.105794 
L 167.033906 230.105794 
L 167.033906 229.532142 
L 167.164734 229.532142 
L 167.164734 228.95849 
L 167.476374 228.95849 
L 167.522723 227.811187 
L 167.648363 227.811187 
L 167.700579 225.51658 
L 167.779397 225.51658 
L 167.875076 224.369277 
L 168.024596 224.369277 
L 168.106598 223.221973 
L 168.34727 223.221973 
L 168.34727 222.648321 
L 168.572648 222.648321 
L 168.634157 221.501018 
L 168.923766 221.501018 
L 168.923766 220.927366 
L 169.189797 220.927366 
L 169.189797 220.353715 
L 169.309784 220.353715 
L 169.309784 219.780063 
L 169.498923 219.780063 
L 169.574291 218.632759 
L 169.64227 218.632759 
L 169.64227 218.059108 
L 169.783046 218.059108 
L 169.883706 216.338153 
L 169.968535 216.338153 
L 170.022555 215.190849 
L 170.178135 215.190849 
L 170.287446 214.043546 
L 170.482497 214.043546 
L 170.572512 212.896242 
L 170.692701 212.896242 
L 170.692701 212.322591 
L 171.253194 212.322591 
L 171.253194 211.748939 
L 171.394383 211.748939 
L 171.394383 211.175287 
L 171.757464 211.175287 
L 171.757464 210.601635 
L 171.876001 210.601635 
L 171.876001 210.027984 
L 172.001148 210.027984 
L 172.001148 209.454332 
L 172.156023 209.454332 
L 172.156023 208.88068 
L 172.270675 208.88068 
L 172.270675 208.307029 
L 172.991089 208.307029 
L 173.065586 207.159725 
L 173.202112 207.159725 
L 173.311255 206.012422 
L 173.444741 206.012422 
L 173.491278 204.865118 
L 173.558028 204.865118 
L 173.558028 204.291467 
L 173.985234 204.291467 
L 173.985234 203.717815 
L 174.406527 203.717815 
L 174.499851 202.570511 
L 174.874517 202.570511 
L 174.938273 201.423208 
L 175.141564 201.423208 
L 175.141564 200.849556 
L 175.443139 200.849556 
L 175.495761 199.702253 
L 175.744569 199.702253 
L 175.744569 199.128601 
L 175.981034 199.128601 
L 175.981034 198.554949 
L 176.211426 198.554949 
L 176.211426 197.981298 
L 176.618804 197.981298 
L 176.711405 196.260342 
L 177.376165 196.260342 
L 177.376165 195.686691 
L 177.712185 195.686691 
L 177.712185 195.113039 
L 178.10287 195.113039 
L 178.20784 193.965736 
L 178.284648 193.965736 
L 178.284648 193.392084 
L 178.462846 193.392084 
L 178.546178 192.24478 
L 178.64346 192.24478 
L 178.698207 191.097477 
L 178.802172 191.097477 
L 178.873915 189.376522 
L 179.033852 189.376522 
L 179.033852 188.80287 
L 179.272262 188.80287 
L 179.272262 188.229218 
L 179.548351 188.229218 
L 179.548351 187.655567 
L 179.785408 187.655567 
L 179.785408 187.081915 
L 179.968538 187.081915 
L 179.984168 185.934612 
L 180.134283 185.934612 
L 180.175281 184.787308 
L 180.258527 184.787308 
L 180.262372 183.640005 
L 180.373492 183.640005 
L 180.455039 182.492701 
L 180.577027 182.492701 
L 180.623777 181.345398 
L 180.808789 181.345398 
L 180.88017 180.198094 
L 180.923155 180.198094 
L 180.980058 179.050791 
L 181.040453 179.050791 
L 181.113091 177.329836 
L 181.194904 177.329836 
L 181.217481 176.182532 
L 181.580497 176.182532 
L 181.677173 173.887925 
L 181.840864 173.887925 
L 181.840864 173.314274 
L 181.961236 173.314274 
L 182.033619 171.019667 
L 182.148534 171.019667 
L 182.246237 169.298712 
L 182.378159 169.298712 
L 182.44273 167.577757 
L 182.660501 167.577757 
L 182.756051 166.430453 
L 182.847104 166.430453 
L 182.915248 164.135846 
L 182.985101 164.135846 
L 183.082818 162.414891 
L 183.11614 162.414891 
L 183.172185 161.267588 
L 183.375944 161.267588 
L 183.436931 160.120284 
L 183.563358 160.120284 
L 183.622426 158.399329 
L 183.688876 158.399329 
L 183.748151 156.678374 
L 183.815378 156.678374 
L 183.84733 154.957419 
L 183.965233 154.957419 
L 184.06319 153.236464 
L 184.132911 153.236464 
L 184.150759 150.941857 
L 184.248905 150.941857 
L 184.334941 149.220902 
L 184.374461 149.220902 
L 184.448999 147.499946 
L 184.675498 147.499946 
L 184.720209 145.778991 
L 184.794473 145.778991 
L 184.878455 144.058036 
L 184.922061 144.058036 
L 185.010703 142.337081 
L 185.05982 142.337081 
L 185.141956 140.616126 
L 185.17389 140.616126 
L 185.26992 137.747867 
L 185.396952 137.747867 
L 185.500877 134.879609 
L 185.518517 134.879609 
L 185.518517 134.305957 
L 185.659561 134.305957 
L 185.768105 133.158653 
L 185.834138 133.158653 
L 185.941604 130.290395 
L 185.953812 130.290395 
L 186.009196 128.56944 
L 186.132073 128.56944 
L 186.19182 126.848485 
L 186.303093 126.848485 
L 186.409878 125.127529 
L 186.4331 125.127529 
L 186.485909 123.406574 
L 186.640716 123.406574 
L 186.733263 120.538316 
L 186.805259 120.538316 
L 186.906396 118.817361 
L 186.978728 118.817361 
L 187.068983 116.522754 
L 187.160326 116.522754 
L 187.270237 114.228147 
L 187.381503 114.228147 
L 187.442729 112.507192 
L 187.677972 112.507192 
L 187.679479 111.359888 
L 187.89917 111.359888 
L 187.992201 107.917978 
L 188.090138 107.917978 
L 188.199724 106.770674 
L 188.274667 106.770674 
L 188.347838 105.049719 
L 188.398057 105.049719 
L 188.486072 102.755112 
L 188.563618 102.755112 
L 188.619886 101.034157 
L 188.706792 101.034157 
L 188.791381 99.313202 
L 188.818232 99.313202 
L 188.893381 97.018595 
L 188.938783 97.018595 
L 189.033419 95.871292 
L 189.078922 95.871292 
L 189.170957 93.576685 
L 189.266639 93.576685 
L 189.363623 90.708426 
L 189.415553 90.708426 
L 189.496781 88.987471 
L 189.540641 88.987471 
L 189.580786 86.692864 
L 189.660353 86.692864 
L 189.7275 84.971909 
L 189.776131 84.971909 
L 189.882291 81.529999 
L 189.906188 81.529999 
L 189.906188 80.956347 
L 190.037916 80.956347 
L 190.130715 79.235392 
L 190.171269 79.235392 
L 190.212598 76.367133 
L 190.30534 76.367133 
L 190.402319 72.925223 
L 190.424227 72.925223 
L 190.458964 71.204268 
L 190.542735 71.204268 
L 190.639679 68.909661 
L 190.675683 68.909661 
L 190.740726 66.615054 
L 190.79166 66.615054 
L 190.90186 64.894099 
L 190.910629 64.894099 
L 190.950661 63.746796 
L 191.061518 63.746796 
L 191.164683 61.452189 
L 191.22547 61.452189 
L 191.320741 59.157582 
L 191.355367 59.157582 
L 191.396017 57.436627 
L 191.468138 57.436627 
L 191.550832 56.289323 
L 191.590627 56.289323 
L 191.689121 54.568368 
L 191.703089 54.568368 
L 191.776735 52.273761 
L 191.827509 52.273761 
L 191.929798 49.979154 
L 191.980914 49.979154 
L 192.019741 47.684547 
L 192.119353 47.684547 
L 192.203287 45.389941 
L 192.312263 45.389941 
L 192.368034 43.095334 
L 192.47637 43.095334 
L 192.587072 41.374379 
L 192.713648 41.374379 
L 192.791029 39.079772 
L 192.88187 39.079772 
L 192.978915 36.211513 
L 193.042205 36.211513 
L 193.146813 33.343255 
L 193.214254 33.343255 
L 193.267217 31.622299 
L 193.337464 31.622299 
L 193.434542 29.901344 
L 193.474953 29.901344 
L 193.566611 27.606737 
L 193.58954 27.606737 
L 193.595267 26.459434 
L 193.729326 26.459434 
L 193.824253 25.31213 
L 193.857779 25.31213 
L 193.93131 24.164827 
L 193.99439 24.164827 
L 194.025496 23.017524 
L 194.145553 23.017524 
L 194.171543 21.87022 
L 194.28613 21.87022 
L 194.379109 19.001962 
L 194.426948 19.001962 
L 194.53004 16.707355 
L 194.60012 16.707355 
L 194.604174 15.560051 
L 194.71999 15.560051 
L 194.722339 14.412748 
L 195.032266 14.412748 
L 195.032266 13.839096 
L 195.165247 13.839096 
L 195.259523 12.691793 
L 195.369788 12.691793 
L 195.414989 11.544489 
L 195.609944 11.544489 
L 195.712634 10.397186 
L 195.743038 10.397186 
L 195.743038 9.823534 
L 195.870728 9.823534 
L 195.935632 8.676231 
L 196.088934 8.676231 
L 196.139118 7.528927 
L 196.274697 7.528927 
L 196.274697 6.955275 
L 196.636781 6.955275 
L 196.636781 6.381624 
L 338.688 6.381624 
L 338.688 6.381624 
" style="fill:none;stroke:#6495ed;stroke-linecap:square;stroke-width:1.5;"/>
   </g>
   <g id="line2d_43">
    <defs>
     <path d="M -0 6 
L 6 -6 
L -6 -6 
z
" id="mdb633d134c" style="stroke:#6495ed;stroke-linejoin:miter;stroke-width:1.5;"/>
    </defs>
    <g>
     <use style="fill-opacity:0;stroke:#6495ed;stroke-linejoin:miter;stroke-width:1.5;" x="187.979859" xlink:href="#mdb633d134c" y="109.638933"/>
     <use style="fill-opacity:0;stroke:#6495ed;stroke-linejoin:miter;stroke-width:1.5;" x="196.636781" xlink:href="#mdb633d134c" y="6.955275"/>
     <use style="fill-opacity:0;stroke:#6495ed;stroke-linejoin:miter;stroke-width:1.5;" x="196.636781" xlink:href="#mdb633d134c" y="6.381624"/>
     <use style="fill-opacity:0;stroke:#6495ed;stroke-linejoin:miter;stroke-width:1.5;" x="196.636781" xlink:href="#mdb633d134c" y="6.381624"/>
     <use style="fill-opacity:0;stroke:#6495ed;stroke-linejoin:miter;stroke-width:1.5;" x="338.688" xlink:href="#mdb633d134c" y="6.381624"/>
    </g>
   </g>
   <g id="line2d_44">
    <path style="fill:none;stroke:#6495ed;stroke-linecap:square;stroke-width:1.5;"/>
    <g/>
   </g>
   <g id="line2d_45">
    <defs>
     <path d="M 0 1.5 
C 0.397805 1.5 0.77937 1.341951 1.06066 1.06066 
C 1.341951 0.77937 1.5 0.397805 1.5 0 
C 1.5 -0.397805 1.341951 -0.77937 1.06066 -1.06066 
C 0.77937 -1.341951 0.397805 -1.5 0 -1.5 
C -0.397805 -1.5 -0.77937 -1.341951 -1.06066 -1.06066 
C -1.341951 -0.77937 -1.5 -0.397805 -1.5 0 
C -1.5 0.397805 -1.341951 0.77937 -1.06066 1.06066 
C -0.77937 1.341951 -0.397805 1.5 0 1.5 
z
" id="m00ae9f1ba2" style="stroke:#ff0000;"/>
    </defs>
    <g>
     <use style="fill:#ff0000;stroke:#ff0000;" x="186.132073" xlink:href="#m00ae9f1ba2" y="6.381624"/>
     <use style="fill:#ff0000;stroke:#ff0000;" x="186.132073" xlink:href="#m00ae9f1ba2" y="6.381624"/>
    </g>
   </g>
   <g id="line2d_46">
    <path d="M 5.356583 298.944 
L 5.356583 293.207483 
L 17.444571 293.207483 
L 17.444571 290.912876 
L 24.515591 290.912876 
L 24.515591 289.191921 
L 29.53256 289.191921 
L 29.53256 287.470966 
L 36.60358 287.470966 
L 36.60358 286.897314 
L 39.291857 286.897314 
L 39.291857 285.176359 
L 41.620548 285.176359 
L 41.620548 284.602707 
L 45.512012 284.602707 
L 45.512012 284.029055 
L 48.691568 284.029055 
L 48.691568 282.881752 
L 57.6 282.881752 
L 57.6 281.734448 
L 64.079801 281.734448 
L 64.079801 281.160797 
L 69.687988 281.160797 
L 69.687988 280.587145 
L 75.555822 280.587145 
L 75.555822 280.013493 
L 80.179111 280.013493 
L 80.179111 279.439842 
L 82.206598 279.439842 
L 82.206598 278.86619 
L 86.012784 278.86619 
L 86.012784 278.292538 
L 87.329581 278.292538 
L 87.329581 277.718886 
L 89.135256 277.718886 
L 89.135256 277.145235 
L 90.901048 277.145235 
L 90.901048 276.571583 
L 95.226283 276.571583 
L 95.226283 275.997931 
L 97.224242 275.997931 
L 97.224242 275.42428 
L 98.523051 275.42428 
L 98.523051 274.850628 
L 99.097574 274.850628 
L 99.097574 274.276976 
L 101.294571 274.276976 
L 101.294571 273.703324 
L 110.358901 273.703324 
L 110.358901 273.129673 
L 111.545148 273.129673 
L 111.545148 272.556021 
L 112.013345 272.556021 
L 112.013345 271.982369 
L 113.095487 271.982369 
L 113.095487 271.408718 
L 115.012316 271.408718 
L 115.012316 270.835066 
L 118.06717 270.835066 
L 118.06717 270.261414 
L 119.923616 270.261414 
L 119.923616 269.687762 
L 120.190611 269.687762 
L 120.190611 269.114111 
L 122.083336 269.114111 
L 122.083336 268.540459 
L 122.298108 268.540459 
L 122.298108 267.966807 
L 122.926996 267.966807 
L 122.926996 267.393156 
L 123.652898 267.393156 
L 123.652898 266.819504 
L 124.024168 266.819504 
L 124.024168 266.245852 
L 124.594752 266.245852 
L 124.594752 265.6722 
L 125.417081 265.6722 
L 125.417081 265.098549 
L 125.594671 265.098549 
L 125.594671 264.524897 
L 126.116845 264.524897 
L 126.116845 263.377593 
L 126.389073 263.377593 
L 126.389073 262.803942 
L 128.32077 262.803942 
L 128.32077 262.23029 
L 130.491965 262.23029 
L 130.598383 261.082987 
L 130.624887 261.082987 
L 130.624887 260.509335 
L 131.553138 260.509335 
L 131.553138 259.935683 
L 131.839545 259.935683 
L 131.839545 259.362031 
L 132.350712 259.362031 
L 132.350712 258.214728 
L 132.998212 258.214728 
L 132.998212 257.641076 
L 134.008491 257.641076 
L 134.008491 257.067425 
L 134.289776 257.067425 
L 134.354049 255.920121 
L 134.776584 255.920121 
L 134.776584 255.346469 
L 134.911732 255.346469 
L 134.911732 254.772818 
L 135.117629 254.772818 
L 135.117629 254.199166 
L 135.401861 254.199166 
L 135.401861 253.625514 
L 135.681535 253.625514 
L 135.681535 253.051863 
L 136.198943 253.051863 
L 136.198943 252.478211 
L 137.289545 252.478211 
L 137.289545 251.904559 
L 137.558536 251.904559 
L 137.558536 251.330907 
L 138.00651 251.330907 
L 138.00651 250.757256 
L 138.187677 250.757256 
L 138.187677 250.183604 
L 138.711825 250.183604 
L 138.711825 249.609952 
L 138.885846 249.609952 
L 138.885846 249.036301 
L 139.033637 249.036301 
L 139.033637 248.462649 
L 139.652088 248.462649 
L 139.652088 247.888997 
L 139.824833 247.888997 
L 139.824833 247.315345 
L 140.333034 247.315345 
L 140.333034 246.741694 
L 140.484155 246.741694 
L 140.551735 245.59439 
L 141.292695 245.59439 
L 141.292695 245.020738 
L 141.478449 245.020738 
L 141.478449 244.447087 
L 141.71841 244.447087 
L 141.788363 243.299783 
L 141.913576 243.299783 
L 142.003452 242.15248 
L 142.506412 242.15248 
L 142.506412 241.578828 
L 142.719495 241.578828 
L 142.719495 241.005176 
L 143.890442 241.005176 
L 143.995331 239.284221 
L 144.330419 239.284221 
L 144.348513 238.136918 
L 144.456682 238.136918 
L 144.456682 237.563266 
L 144.894462 237.563266 
L 144.917816 235.842311 
L 145.02832 235.842311 
L 145.02832 235.268659 
L 145.384119 235.268659 
L 145.384119 234.695008 
L 145.970603 234.695008 
L 145.970603 234.121356 
L 146.237689 234.121356 
L 146.270114 232.974052 
L 146.40993 232.974052 
L 146.40993 232.400401 
L 147.174888 232.400401 
L 147.220962 230.105794 
L 147.61026 230.105794 
L 147.690073 228.95849 
L 147.838747 228.95849 
L 147.838747 228.384839 
L 147.971478 228.384839 
L 148.044783 227.237535 
L 148.17112 227.237535 
L 148.214639 226.090232 
L 148.325365 226.090232 
L 148.411533 224.942928 
L 148.577871 224.942928 
L 148.648676 223.795625 
L 149.067574 223.795625 
L 149.067574 223.221973 
L 149.345879 223.221973 
L 149.345879 222.648321 
L 149.58413 222.648321 
L 149.58413 222.07467 
L 149.72642 222.07467 
L 149.72642 221.501018 
L 149.85877 221.501018 
L 149.85877 220.927366 
L 150.059777 220.927366 
L 150.059777 220.353715 
L 150.305678 220.353715 
L 150.305678 219.780063 
L 150.43372 219.780063 
L 150.454969 218.632759 
L 150.67444 218.632759 
L 150.774811 216.911804 
L 150.874606 216.911804 
L 150.874606 216.338153 
L 151.084795 216.338153 
L 151.113448 214.617197 
L 151.901098 214.617197 
L 151.901098 214.043546 
L 152.234096 214.043546 
L 152.234096 213.469894 
L 152.511852 213.469894 
L 152.55709 211.748939 
L 152.748054 211.748939 
L 152.748054 211.175287 
L 152.999462 211.175287 
L 152.999462 210.601635 
L 153.305103 210.601635 
L 153.305103 210.027984 
L 153.555774 210.027984 
L 153.662112 207.733377 
L 153.757264 207.733377 
L 153.85889 206.586073 
L 153.872861 206.586073 
L 153.872861 206.012422 
L 154.022346 206.012422 
L 154.112115 204.865118 
L 154.136205 204.865118 
L 154.136205 204.291467 
L 154.262987 204.291467 
L 154.262987 203.717815 
L 154.661269 203.717815 
L 154.711253 202.570511 
L 154.794242 202.570511 
L 154.880133 201.423208 
L 154.929494 201.423208 
L 154.929494 200.275904 
L 155.248594 200.275904 
L 155.248594 199.702253 
L 155.469814 199.702253 
L 155.549279 198.554949 
L 155.931955 198.554949 
L 155.931955 197.981298 
L 156.215076 197.981298 
L 156.30945 196.833994 
L 156.357959 196.833994 
L 156.357959 196.260342 
L 156.580579 196.260342 
L 156.670026 195.113039 
L 156.874032 195.113039 
L 156.918066 193.965736 
L 156.991212 193.965736 
L 156.991212 193.392084 
L 157.142378 193.392084 
L 157.142378 192.818432 
L 157.292246 192.818432 
L 157.380981 191.671129 
L 157.709073 191.671129 
L 157.709073 191.097477 
L 157.829142 191.097477 
L 157.829142 190.523825 
L 157.976006 190.523825 
L 158.083291 189.376522 
L 158.132586 189.376522 
L 158.206267 188.229218 
L 158.532698 188.229218 
L 158.556736 186.508263 
L 158.702917 186.508263 
L 158.774233 185.36096 
L 158.853132 185.36096 
L 158.853132 184.787308 
L 159.134248 184.787308 
L 159.190962 183.640005 
L 159.370195 183.640005 
L 159.39565 182.492701 
L 159.59042 182.492701 
L 159.59042 181.91905 
L 159.783038 181.91905 
L 159.783038 181.345398 
L 160.203341 181.345398 
L 160.276045 179.624443 
L 160.418152 179.624443 
L 160.418152 179.050791 
L 160.544827 179.050791 
L 160.623238 176.182532 
L 160.691855 176.182532 
L 160.736665 175.035229 
L 160.959003 175.035229 
L 161.023997 173.887925 
L 161.334007 173.887925 
L 161.334007 173.314274 
L 161.47907 173.314274 
L 161.47907 172.740622 
L 161.907159 172.740622 
L 161.907159 172.16697 
L 162.104265 172.16697 
L 162.104265 171.593319 
L 162.370089 171.593319 
L 162.453536 169.298712 
L 162.511074 169.298712 
L 162.511074 168.72506 
L 162.62981 168.72506 
L 162.62981 168.151408 
L 162.772911 168.151408 
L 162.777102 167.004105 
L 163.232084 167.004105 
L 163.232084 166.430453 
L 163.591711 166.430453 
L 163.695386 165.28315 
L 163.729146 165.28315 
L 163.729146 164.709498 
L 163.908762 164.709498 
L 163.908762 164.135846 
L 164.037884 164.135846 
L 164.055418 162.988543 
L 164.196988 162.988543 
L 164.241356 161.267588 
L 164.558269 161.267588 
L 164.558269 160.693936 
L 164.669534 160.693936 
L 164.748309 159.546632 
L 165.01941 159.546632 
L 165.118623 157.825677 
L 165.144253 157.825677 
L 165.153397 156.678374 
L 165.268207 156.678374 
L 165.360599 155.53107 
L 165.403908 155.53107 
L 165.456098 154.383767 
L 165.526038 154.383767 
L 165.526038 153.810115 
L 165.663306 153.810115 
L 165.753633 152.662812 
L 165.906649 152.662812 
L 165.906649 152.08916 
L 166.512396 152.08916 
L 166.554628 150.941857 
L 166.674012 150.941857 
L 166.674012 150.368205 
L 167.187528 150.368205 
L 167.273552 148.073598 
L 167.336582 148.073598 
L 167.437922 146.352643 
L 167.607113 146.352643 
L 167.692678 145.20534 
L 168.074153 145.20534 
L 168.101967 144.058036 
L 168.18668 144.058036 
L 168.18668 143.484384 
L 168.301538 143.484384 
L 168.301538 142.910733 
L 168.450489 142.910733 
L 168.450489 142.337081 
L 168.839608 142.337081 
L 168.910505 140.616126 
L 168.994323 140.616126 
L 168.994323 140.042474 
L 169.16076 140.042474 
L 169.16076 139.468822 
L 169.337135 139.468822 
L 169.337135 138.895171 
L 169.471824 138.895171 
L 169.533092 137.174215 
L 169.589893 137.174215 
L 169.61964 135.45326 
L 170.050192 135.45326 
L 170.077786 133.732305 
L 170.165794 133.732305 
L 170.262911 132.585002 
L 170.295617 132.585002 
L 170.295617 132.01135 
L 170.459584 132.01135 
L 170.459584 131.437698 
L 170.646059 131.437698 
L 170.683382 130.290395 
L 170.769719 130.290395 
L 170.846398 129.143091 
L 170.884612 129.143091 
L 170.884612 128.56944 
L 171.001368 128.56944 
L 171.082245 127.422136 
L 171.164043 127.422136 
L 171.164043 126.848485 
L 171.555983 126.848485 
L 171.653236 125.701181 
L 171.751203 125.701181 
L 171.751203 125.127529 
L 171.936828 125.127529 
L 172.031987 123.980226 
L 172.309534 123.980226 
L 172.309534 123.406574 
L 172.4268 123.406574 
L 172.491742 122.259271 
L 172.610178 122.259271 
L 172.631625 121.111967 
L 172.731367 121.111967 
L 172.755031 119.964664 
L 172.858773 119.964664 
L 172.881091 118.817361 
L 173.236652 118.817361 
L 173.313545 116.522754 
L 173.363858 116.522754 
L 173.43792 113.654495 
L 173.580597 113.654495 
L 173.677313 111.93354 
L 173.751176 111.93354 
L 173.845842 110.212585 
L 173.882457 110.212585 
L 173.891322 109.065281 
L 174.531917 109.065281 
L 174.63307 107.344326 
L 174.659592 107.344326 
L 174.659592 106.770674 
L 174.826284 106.770674 
L 174.936186 105.049719 
L 174.982035 105.049719 
L 175.061982 103.902416 
L 175.115766 103.902416 
L 175.115766 103.328764 
L 175.237201 103.328764 
L 175.340474 101.607809 
L 175.360852 101.607809 
L 175.433001 99.886854 
L 175.540164 99.886854 
L 175.620609 97.592247 
L 175.689695 97.592247 
L 175.756518 96.444944 
L 175.894339 96.444944 
L 175.894339 95.871292 
L 176.111248 95.871292 
L 176.180364 94.723988 
L 176.451254 94.723988 
L 176.494247 93.576685 
L 176.750001 93.576685 
L 176.839104 92.429381 
L 177.000205 92.429381 
L 177.045566 88.987471 
L 177.115688 88.987471 
L 177.18553 86.692864 
L 177.257833 86.692864 
L 177.367999 84.971909 
L 177.471158 84.971909 
L 177.527007 83.250954 
L 177.692598 83.250954 
L 177.705065 82.103651 
L 178.021759 82.103651 
L 178.045346 80.956347 
L 178.144586 80.956347 
L 178.230313 79.235392 
L 178.358547 79.235392 
L 178.358547 78.66174 
L 178.483291 78.66174 
L 178.551267 76.940785 
L 178.649364 76.940785 
L 178.649364 76.367133 
L 178.829736 76.367133 
L 178.93707 74.072526 
L 179.012391 74.072526 
L 179.012391 73.498875 
L 179.153055 73.498875 
L 179.211127 71.77792 
L 179.266565 71.77792 
L 179.329939 70.056964 
L 179.420537 70.056964 
L 179.45278 68.909661 
L 179.549953 68.909661 
L 179.65455 66.615054 
L 179.727634 66.615054 
L 179.831962 64.320447 
L 179.993539 64.320447 
L 180.053553 62.599492 
L 180.149765 62.599492 
L 180.232363 59.731234 
L 180.352089 59.731234 
L 180.392579 58.010278 
L 180.46796 58.010278 
L 180.558141 56.862975 
L 180.585331 56.862975 
L 180.639584 54.568368 
L 180.713158 54.568368 
L 180.805809 52.847413 
L 180.98596 52.847413 
L 180.98596 52.273761 
L 181.164999 52.273761 
L 181.266177 50.552806 
L 181.321973 50.552806 
L 181.428719 48.831851 
L 181.452432 48.831851 
L 181.499045 47.684547 
L 181.579784 47.684547 
L 181.68426 45.389941 
L 181.771906 45.389941 
L 181.795861 43.668985 
L 181.922835 43.668985 
L 182.025977 41.374379 
L 182.105702 41.374379 
L 182.210522 40.227075 
L 182.370667 40.227075 
L 182.402656 39.079772 
L 182.483389 39.079772 
L 182.509766 37.932468 
L 182.635692 37.932468 
L 182.731378 36.211513 
L 182.851744 36.211513 
L 182.932408 34.490558 
L 183.001534 34.490558 
L 183.11157 32.195951 
L 183.205986 32.195951 
L 183.242314 29.901344 
L 183.418336 29.901344 
L 183.513025 27.033086 
L 183.558904 27.033086 
L 183.586883 24.164827 
L 183.756962 24.164827 
L 183.838565 22.443872 
L 183.926644 22.443872 
L 183.926644 21.87022 
L 184.074314 21.87022 
L 184.165517 20.149265 
L 184.198675 20.149265 
L 184.244623 17.854658 
L 184.350152 17.854658 
L 184.393277 16.133703 
L 184.47619 16.133703 
L 184.47619 15.560051 
L 184.705318 15.560051 
L 184.778459 13.265444 
L 184.823499 13.265444 
L 184.934416 11.544489 
L 184.959686 11.544489 
L 185.049306 10.397186 
L 185.073828 10.397186 
L 185.163445 9.249882 
L 185.545795 9.249882 
L 185.60079 8.102579 
L 185.680986 8.102579 
L 185.740611 6.955275 
L 186.132073 6.955275 
L 186.132073 6.381624 
L 338.688 6.381624 
L 338.688 6.381624 
" style="fill:none;stroke:#ff0000;stroke-linecap:square;stroke-width:1.5;"/>
   </g>
   <g id="line2d_47">
    <defs>
     <path d="M 0 -6 
L -5.196152 -3 
L -5.196152 3 
L -0 6 
L 5.196152 3 
L 5.196152 -3 
z
" id="m8335a9568e" style="stroke:#ff0000;stroke-linejoin:miter;stroke-width:1.5;"/>
    </defs>
    <g>
     <use style="fill-opacity:0;stroke:#ff0000;stroke-linejoin:miter;stroke-width:1.5;" x="75.555822" xlink:href="#m8335a9568e" y="280.013493"/>
     <use style="fill-opacity:0;stroke:#ff0000;stroke-linejoin:miter;stroke-width:1.5;" x="157.292246" xlink:href="#m8335a9568e" y="192.818432"/>
     <use style="fill-opacity:0;stroke:#ff0000;stroke-linejoin:miter;stroke-width:1.5;" x="183.926644" xlink:href="#m8335a9568e" y="21.87022"/>
     <use style="fill-opacity:0;stroke:#ff0000;stroke-linejoin:miter;stroke-width:1.5;" x="186.132073" xlink:href="#m8335a9568e" y="6.381624"/>
     <use style="fill-opacity:0;stroke:#ff0000;stroke-linejoin:miter;stroke-width:1.5;" x="186.132073" xlink:href="#m8335a9568e" y="6.381624"/>
     <use style="fill-opacity:0;stroke:#ff0000;stroke-linejoin:miter;stroke-width:1.5;" x="338.688" xlink:href="#m8335a9568e" y="6.381624"/>
    </g>
   </g>
   <g id="line2d_48">
    <path style="fill:none;stroke:#ff0000;stroke-linecap:square;stroke-width:1.5;"/>
    <g/>
   </g>
   <g id="line2d_49">
    <path d="M 338.688 6.381624 
L 369.60768 293.092752 
" style="fill:none;stroke:#ff7500;stroke-linecap:square;stroke-width:1.5;"/>
    <g>
     <use style="fill-opacity:0;stroke:#ff7500;stroke-linejoin:bevel;stroke-width:1.5;" x="338.688" xlink:href="#m81f4ded6dc" y="6.381624"/>
     <use style="fill-opacity:0;stroke:#ff7500;stroke-linejoin:bevel;stroke-width:1.5;" x="369.60768" xlink:href="#m81f4ded6dc" y="293.092752"/>
    </g>
   </g>
   <g id="line2d_50">
    <path d="M 338.688 6.381624 
L 369.60768 222.877782 
" style="fill:none;stroke:#6495ed;stroke-linecap:square;stroke-width:1.5;"/>
    <g>
     <use style="fill-opacity:0;stroke:#6495ed;stroke-linejoin:miter;stroke-width:1.5;" x="338.688" xlink:href="#mdb633d134c" y="6.381624"/>
     <use style="fill-opacity:0;stroke:#6495ed;stroke-linejoin:miter;stroke-width:1.5;" x="369.60768" xlink:href="#mdb633d134c" y="222.877782"/>
    </g>
   </g>
   <g id="line2d_51">
    <path d="M 338.688 6.381624 
L 369.60768 152.662812 
" style="fill:none;stroke:#000080;stroke-linecap:square;stroke-width:1.5;"/>
    <g>
     <use style="fill-opacity:0;stroke:#000080;stroke-width:1.5;" x="338.688" xlink:href="#m5f8e628221" y="6.381624"/>
     <use style="fill-opacity:0;stroke:#000080;stroke-width:1.5;" x="369.60768" xlink:href="#m5f8e628221" y="152.662812"/>
    </g>
   </g>
   <g id="line2d_52">
    <path d="M 338.688 6.381624 
L 369.60768 82.447842 
" style="fill:none;stroke:#ff0000;stroke-linecap:square;stroke-width:1.5;"/>
    <g>
     <use style="fill-opacity:0;stroke:#ff0000;stroke-linejoin:miter;stroke-width:1.5;" x="338.688" xlink:href="#m8335a9568e" y="6.381624"/>
     <use style="fill-opacity:0;stroke:#ff0000;stroke-linejoin:miter;stroke-width:1.5;" x="369.60768" xlink:href="#m8335a9568e" y="82.447842"/>
    </g>
   </g>
   <g id="line2d_53">
    <path d="M 338.688 6.381624 
L 369.60768 12.232871 
" style="fill:none;stroke:#ff00ff;stroke-linecap:square;stroke-width:1.5;"/>
    <g>
     <use style="fill-opacity:0;stroke:#ff00ff;stroke-linejoin:miter;stroke-width:1.5;" x="338.688" xlink:href="#m0d8640eab4" y="6.381624"/>
     <use style="fill-opacity:0;stroke:#ff00ff;stroke-linejoin:miter;stroke-width:1.5;" x="369.60768" xlink:href="#m0d8640eab4" y="12.232871"/>
    </g>
   </g>
   <g id="line2d_54">
    <path d="M 338.688 298.944 
L 338.688 6.381624 
" style="fill:none;stroke:#000000;stroke-linecap:square;stroke-width:1.5;"/>
   </g>
   <g id="patch_3">
    <path d="M 57.6 298.944 
L 57.6 3.456 
" style="fill:none;stroke:#000000;stroke-linecap:square;stroke-linejoin:miter;stroke-width:0.8;"/>
   </g>
   <g id="patch_4">
    <path d="M 338.688 298.944 
L 338.688 3.456 
" style="fill:none;stroke:#000000;stroke-linecap:square;stroke-linejoin:miter;stroke-width:0.8;"/>
   </g>
   <g id="patch_5">
    <path d="M 57.6 298.944 
L 338.688 298.944 
" style="fill:none;stroke:#000000;stroke-linecap:square;stroke-linejoin:miter;stroke-width:0.8;"/>
   </g>
   <g id="patch_6">
    <path d="M 57.6 3.456 
L 338.688 3.456 
" style="fill:none;stroke:#000000;stroke-linecap:square;stroke-linejoin:miter;stroke-width:0.8;"/>
   </g>
   <g id="text_13">
    <!-- f12 -->
    <g transform="translate(375.22944 297.78369)scale(0.17 -0.17)">
     <use xlink:href="#DejaVuSans-66"/>
     <use x="35.205078" xlink:href="#DejaVuSans-31"/>
     <use x="98.828125" xlink:href="#DejaVuSans-32"/>
    </g>
   </g>
   <g id="text_14">
    <!-- f13 -->
    <g transform="translate(375.22944 227.56872)scale(0.17 -0.17)">
     <defs>
      <path d="M 2597 2516 
Q 3050 2419 3304 2112 
Q 3559 1806 3559 1356 
Q 3559 666 3084 287 
Q 2609 -91 1734 -91 
Q 1441 -91 1130 -33 
Q 819 25 488 141 
L 488 750 
Q 750 597 1062 519 
Q 1375 441 1716 441 
Q 2309 441 2620 675 
Q 2931 909 2931 1356 
Q 2931 1769 2642 2001 
Q 2353 2234 1838 2234 
L 1294 2234 
L 1294 2753 
L 1863 2753 
Q 2328 2753 2575 2939 
Q 2822 3125 2822 3475 
Q 2822 3834 2567 4026 
Q 2313 4219 1838 4219 
Q 1578 4219 1281 4162 
Q 984 4106 628 3988 
L 628 4550 
Q 988 4650 1302 4700 
Q 1616 4750 1894 4750 
Q 2613 4750 3031 4423 
Q 3450 4097 3450 3541 
Q 3450 3153 3228 2886 
Q 3006 2619 2597 2516 
z
" id="DejaVuSans-33" transform="scale(0.015625)"/>
     </defs>
     <use xlink:href="#DejaVuSans-66"/>
     <use x="35.205078" xlink:href="#DejaVuSans-31"/>
     <use x="98.828125" xlink:href="#DejaVuSans-33"/>
    </g>
   </g>
   <g id="text_15">
    <!-- f10 -->
    <g transform="translate(375.22944 157.353749)scale(0.17 -0.17)">
     <use xlink:href="#DejaVuSans-66"/>
     <use x="35.205078" xlink:href="#DejaVuSans-31"/>
     <use x="98.828125" xlink:href="#DejaVuSans-30"/>
    </g>
   </g>
   <g id="text_16">
    <!-- f14 -->
    <g transform="translate(375.22944 87.138779)scale(0.17 -0.17)">
     <use xlink:href="#DejaVuSans-66"/>
     <use x="35.205078" xlink:href="#DejaVuSans-31"/>
     <use x="98.828125" xlink:href="#DejaVuSans-34"/>
    </g>
   </g>
   <g id="text_17">
    <!-- f11 -->
    <g transform="translate(375.22944 16.923809)scale(0.17 -0.17)">
     <use xlink:href="#DejaVuSans-66"/>
     <use x="35.205078" xlink:href="#DejaVuSans-31"/>
     <use x="98.828125" xlink:href="#DejaVuSans-31"/>
    </g>
   </g>
   <g id="text_18">
    <!-- bbob -->
    <g transform="translate(60.41088 14.161286)scale(0.102 -0.102)">
     <defs>
      <path d="M 3116 1747 
Q 3116 2381 2855 2742 
Q 2594 3103 2138 3103 
Q 1681 3103 1420 2742 
Q 1159 2381 1159 1747 
Q 1159 1113 1420 752 
Q 1681 391 2138 391 
Q 2594 391 2855 752 
Q 3116 1113 3116 1747 
z
M 1159 2969 
Q 1341 3281 1617 3432 
Q 1894 3584 2278 3584 
Q 2916 3584 3314 3078 
Q 3713 2572 3713 1747 
Q 3713 922 3314 415 
Q 2916 -91 2278 -91 
Q 1894 -91 1617 61 
Q 1341 213 1159 525 
L 1159 0 
L 581 0 
L 581 4863 
L 1159 4863 
L 1159 2969 
z
" id="DejaVuSans-62" transform="scale(0.015625)"/>
     </defs>
     <use xlink:href="#DejaVuSans-62"/>
     <use x="63.476562" xlink:href="#DejaVuSans-62"/>
     <use x="126.953125" xlink:href="#DejaVuSans-6f"/>
     <use x="188.134766" xlink:href="#DejaVuSans-62"/>
    </g>
    <!-- Ill-conditioned functions, 20-D -->
    <g transform="translate(60.41088 25.583055)scale(0.102 -0.102)">
     <defs>
      <path d="M 628 4666 
L 1259 4666 
L 1259 0 
L 628 0 
L 628 4666 
z
" id="DejaVuSans-49" transform="scale(0.015625)"/>
      <path d="M 1259 4147 
L 1259 519 
L 2022 519 
Q 2988 519 3436 956 
Q 3884 1394 3884 2338 
Q 3884 3275 3436 3711 
Q 2988 4147 2022 4147 
L 1259 4147 
z
M 628 4666 
L 1925 4666 
Q 3281 4666 3915 4102 
Q 4550 3538 4550 2338 
Q 4550 1131 3912 565 
Q 3275 0 1925 0 
L 628 0 
L 628 4666 
z
" id="DejaVuSans-44" transform="scale(0.015625)"/>
     </defs>
     <use xlink:href="#DejaVuSans-49"/>
     <use x="29.492188" xlink:href="#DejaVuSans-6c"/>
     <use x="57.275391" xlink:href="#DejaVuSans-6c"/>
     <use x="85.058594" xlink:href="#DejaVuSans-2d"/>
     <use x="121.142578" xlink:href="#DejaVuSans-63"/>
     <use x="176.123047" xlink:href="#DejaVuSans-6f"/>
     <use x="237.304688" xlink:href="#DejaVuSans-6e"/>
     <use x="300.683594" xlink:href="#DejaVuSans-64"/>
     <use x="364.160156" xlink:href="#DejaVuSans-69"/>
     <use x="391.943359" xlink:href="#DejaVuSans-74"/>
     <use x="431.152344" xlink:href="#DejaVuSans-69"/>
     <use x="458.935547" xlink:href="#DejaVuSans-6f"/>
     <use x="520.117188" xlink:href="#DejaVuSans-6e"/>
     <use x="583.496094" xlink:href="#DejaVuSans-65"/>
     <use x="645.019531" xlink:href="#DejaVuSans-64"/>
     <use x="708.496094" xlink:href="#DejaVuSans-20"/>
     <use x="740.283203" xlink:href="#DejaVuSans-66"/>
     <use x="775.488281" xlink:href="#DejaVuSans-75"/>
     <use x="838.867188" xlink:href="#DejaVuSans-6e"/>
     <use x="902.246094" xlink:href="#DejaVuSans-63"/>
     <use x="957.226562" xlink:href="#DejaVuSans-74"/>
     <use x="996.435547" xlink:href="#DejaVuSans-69"/>
     <use x="1024.21875" xlink:href="#DejaVuSans-6f"/>
     <use x="1085.400391" xlink:href="#DejaVuSans-6e"/>
     <use x="1148.779297" xlink:href="#DejaVuSans-73"/>
     <use x="1200.878906" xlink:href="#DejaVuSans-2c"/>
     <use x="1232.666016" xlink:href="#DejaVuSans-20"/>
     <use x="1264.453125" xlink:href="#DejaVuSans-32"/>
     <use x="1328.076172" xlink:href="#DejaVuSans-30"/>
     <use x="1391.699219" xlink:href="#DejaVuSans-2d"/>
     <use x="1427.783203" xlink:href="#DejaVuSans-44"/>
    </g>
    <!-- 51 targets: 100..1e-08 -->
    <g transform="translate(60.41088 37.004824)scale(0.102 -0.102)">
     <defs>
      <path d="M 691 4666 
L 3169 4666 
L 3169 4134 
L 1269 4134 
L 1269 2991 
Q 1406 3038 1543 3061 
Q 1681 3084 1819 3084 
Q 2600 3084 3056 2656 
Q 3513 2228 3513 1497 
Q 3513 744 3044 326 
Q 2575 -91 1722 -91 
Q 1428 -91 1123 -41 
Q 819 9 494 109 
L 494 744 
Q 775 591 1075 516 
Q 1375 441 1709 441 
Q 2250 441 2565 725 
Q 2881 1009 2881 1497 
Q 2881 1984 2565 2268 
Q 2250 2553 1709 2553 
Q 1456 2553 1204 2497 
Q 953 2441 691 2322 
L 691 4666 
z
" id="DejaVuSans-35" transform="scale(0.015625)"/>
      <path d="M 750 794 
L 1409 794 
L 1409 0 
L 750 0 
L 750 794 
z
M 750 3309 
L 1409 3309 
L 1409 2516 
L 750 2516 
L 750 3309 
z
" id="DejaVuSans-3a" transform="scale(0.015625)"/>
     </defs>
     <use xlink:href="#DejaVuSans-35"/>
     <use x="63.623047" xlink:href="#DejaVuSans-31"/>
     <use x="127.246094" xlink:href="#DejaVuSans-20"/>
     <use x="159.033203" xlink:href="#DejaVuSans-74"/>
     <use x="198.242188" xlink:href="#DejaVuSans-61"/>
     <use x="259.521484" xlink:href="#DejaVuSans-72"/>
     <use x="298.884766" xlink:href="#DejaVuSans-67"/>
     <use x="362.361328" xlink:href="#DejaVuSans-65"/>
     <use x="423.884766" xlink:href="#DejaVuSans-74"/>
     <use x="463.09375" xlink:href="#DejaVuSans-73"/>
     <use x="515.193359" xlink:href="#DejaVuSans-3a"/>
     <use x="548.884766" xlink:href="#DejaVuSans-20"/>
     <use x="580.671875" xlink:href="#DejaVuSans-31"/>
     <use x="644.294922" xlink:href="#DejaVuSans-30"/>
     <use x="707.917969" xlink:href="#DejaVuSans-30"/>
     <use x="771.541016" xlink:href="#DejaVuSans-2e"/>
     <use x="803.328125" xlink:href="#DejaVuSans-2e"/>
     <use x="835.115234" xlink:href="#DejaVuSans-31"/>
     <use x="898.738281" xlink:href="#DejaVuSans-65"/>
     <use x="960.261719" xlink:href="#DejaVuSans-2d"/>
     <use x="996.345703" xlink:href="#DejaVuSans-30"/>
     <use x="1059.96875" xlink:href="#DejaVuSans-38"/>
    </g>
    <!-- 15 instances -->
    <g transform="translate(60.41088 48.426593)scale(0.102 -0.102)">
     <use xlink:href="#DejaVuSans-31"/>
     <use x="63.623047" xlink:href="#DejaVuSans-35"/>
     <use x="127.246094" xlink:href="#DejaVuSans-20"/>
     <use x="159.033203" xlink:href="#DejaVuSans-69"/>
     <use x="186.816406" xlink:href="#DejaVuSans-6e"/>
     <use x="250.195312" xlink:href="#DejaVuSans-73"/>
     <use x="302.294922" xlink:href="#DejaVuSans-74"/>
     <use x="341.503906" xlink:href="#DejaVuSans-61"/>
     <use x="402.783203" xlink:href="#DejaVuSans-6e"/>
     <use x="466.162109" xlink:href="#DejaVuSans-63"/>
     <use x="521.142578" xlink:href="#DejaVuSans-65"/>
     <use x="582.666016" xlink:href="#DejaVuSans-73"/>
    </g>
   </g>
   <g id="text_19">
    <!-- v2.4 -->
    <g style="fill:#808080;" transform="translate(187.233062 293.909432)scale(0.1 -0.1)">
     <use xlink:href="#DejaVuSans-76"/>
     <use x="59.179688" xlink:href="#DejaVuSans-32"/>
     <use x="122.802734" xlink:href="#DejaVuSans-2e"/>
     <use x="154.589844" xlink:href="#DejaVuSans-34"/>
    </g>
   </g>
  </g>
 </g>
 <defs>
  <clipPath id="p91f5bf2955">
   <rect height="295.488" width="281.088" x="57.6" y="3.456"/>
  </clipPath>
 </defs>
</svg>
