<?xml version="1.0" encoding="utf-8" standalone="no"?>
<!DOCTYPE svg PUBLIC "-//W3C//DTD SVG 1.1//EN"
  "http://www.w3.org/Graphics/SVG/1.1/DTD/svg11.dtd">
<svg height="345.6pt" version="1.1" viewBox="0 0 460.8 345.6" width="460.8pt" xmlns="http://www.w3.org/2000/svg" xmlns:xlink="http://www.w3.org/1999/xlink">
 <metadata>
  <rdf:RDF xmlns:cc="http://creativecommons.org/ns#" xmlns:dc="http://purl.org/dc/elements/1.1/" xmlns:rdf="http://www.w3.org/1999/02/22-rdf-syntax-ns#">
   <cc:Work>
    <dc:type rdf:resource="http://purl.org/dc/dcmitype/StillImage"/>
    <dc:date>2021-07-27T16:03:56.989821</dc:date>
    <dc:format>image/svg+xml</dc:format>
    <dc:creator>
     <cc:Agent>
      <dc:title>Matplotlib v3.4.2, https://matplotlib.org/</dc:title>
     </cc:Agent>
    </dc:creator>
   </cc:Work>
  </rdf:RDF>
 </metadata>
 <defs>
  <style type="text/css">*{stroke-linecap:butt;stroke-linejoin:round;}</style>
 </defs>
 <g id="figure_1">
  <g id="patch_1">
   <path d="M 0 345.6 
L 460.8 345.6 
L 460.8 0 
L 0 0 
z
" style="fill:#ffffff;"/>
  </g>
  <g id="axes_1">
   <g id="patch_2">
    <path d="M 57.6 298.944 
L 338.688 298.944 
L 338.688 3.456 
L 57.6 3.456 
z
" style="fill:#ffffff;"/>
   </g>
   <g id="matplotlib.axis_1">
    <g id="xtick_1">
     <g id="line2d_1">
      <path clip-path="url(#p80b9f1b321)" d="M 57.6 298.944 
L 57.6 3.456 
" style="fill:none;stroke:#b0b0b0;stroke-linecap:square;stroke-width:0.8;"/>
     </g>
     <g id="line2d_2">
      <defs>
       <path d="M 0 0 
L 0 3.5 
" id="m746b600037" style="stroke:#000000;stroke-width:0.8;"/>
      </defs>
      <g>
       <use style="stroke:#000000;stroke-width:0.8;" x="57.6" xlink:href="#m746b600037" y="298.944"/>
      </g>
     </g>
     <g id="text_1">
      <!-- 0 -->
      <g transform="translate(51.2375 321.140875)scale(0.2 -0.2)">
       <defs>
        <path d="M 2034 4250 
Q 1547 4250 1301 3770 
Q 1056 3291 1056 2328 
Q 1056 1369 1301 889 
Q 1547 409 2034 409 
Q 2525 409 2770 889 
Q 3016 1369 3016 2328 
Q 3016 3291 2770 3770 
Q 2525 4250 2034 4250 
z
M 2034 4750 
Q 2819 4750 3233 4129 
Q 3647 3509 3647 2328 
Q 3647 1150 3233 529 
Q 2819 -91 2034 -91 
Q 1250 -91 836 529 
Q 422 1150 422 2328 
Q 422 3509 836 4129 
Q 1250 4750 2034 4750 
z
" id="DejaVuSans-30" transform="scale(0.015625)"/>
       </defs>
       <use xlink:href="#DejaVuSans-30"/>
      </g>
     </g>
    </g>
    <g id="xtick_2">
     <g id="line2d_3">
      <path clip-path="url(#p80b9f1b321)" d="M 137.910857 298.944 
L 137.910857 3.456 
" style="fill:none;stroke:#b0b0b0;stroke-linecap:square;stroke-width:0.8;"/>
     </g>
     <g id="line2d_4">
      <g>
       <use style="stroke:#000000;stroke-width:0.8;" x="137.910857" xlink:href="#m746b600037" y="298.944"/>
      </g>
     </g>
     <g id="text_2">
      <!-- 2 -->
      <g transform="translate(131.548357 321.140875)scale(0.2 -0.2)">
       <defs>
        <path d="M 1228 531 
L 3431 531 
L 3431 0 
L 469 0 
L 469 531 
Q 828 903 1448 1529 
Q 2069 2156 2228 2338 
Q 2531 2678 2651 2914 
Q 2772 3150 2772 3378 
Q 2772 3750 2511 3984 
Q 2250 4219 1831 4219 
Q 1534 4219 1204 4116 
Q 875 4013 500 3803 
L 500 4441 
Q 881 4594 1212 4672 
Q 1544 4750 1819 4750 
Q 2544 4750 2975 4387 
Q 3406 4025 3406 3419 
Q 3406 3131 3298 2873 
Q 3191 2616 2906 2266 
Q 2828 2175 2409 1742 
Q 1991 1309 1228 531 
z
" id="DejaVuSans-32" transform="scale(0.015625)"/>
       </defs>
       <use xlink:href="#DejaVuSans-32"/>
      </g>
     </g>
    </g>
    <g id="xtick_3">
     <g id="line2d_5">
      <path clip-path="url(#p80b9f1b321)" d="M 218.221714 298.944 
L 218.221714 3.456 
" style="fill:none;stroke:#b0b0b0;stroke-linecap:square;stroke-width:0.8;"/>
     </g>
     <g id="line2d_6">
      <g>
       <use style="stroke:#000000;stroke-width:0.8;" x="218.221714" xlink:href="#m746b600037" y="298.944"/>
      </g>
     </g>
     <g id="text_3">
      <!-- 4 -->
      <g transform="translate(211.859214 321.140875)scale(0.2 -0.2)">
       <defs>
        <path d="M 2419 4116 
L 825 1625 
L 2419 1625 
L 2419 4116 
z
M 2253 4666 
L 3047 4666 
L 3047 1625 
L 3713 1625 
L 3713 1100 
L 3047 1100 
L 3047 0 
L 2419 0 
L 2419 1100 
L 313 1100 
L 313 1709 
L 2253 4666 
z
" id="DejaVuSans-34" transform="scale(0.015625)"/>
       </defs>
       <use xlink:href="#DejaVuSans-34"/>
      </g>
     </g>
    </g>
    <g id="xtick_4">
     <g id="line2d_7">
      <path clip-path="url(#p80b9f1b321)" d="M 298.532571 298.944 
L 298.532571 3.456 
" style="fill:none;stroke:#b0b0b0;stroke-linecap:square;stroke-width:0.8;"/>
     </g>
     <g id="line2d_8">
      <g>
       <use style="stroke:#000000;stroke-width:0.8;" x="298.532571" xlink:href="#m746b600037" y="298.944"/>
      </g>
     </g>
     <g id="text_4">
      <!-- 6 -->
      <g transform="translate(292.170071 321.140875)scale(0.2 -0.2)">
       <defs>
        <path d="M 2113 2584 
Q 1688 2584 1439 2293 
Q 1191 2003 1191 1497 
Q 1191 994 1439 701 
Q 1688 409 2113 409 
Q 2538 409 2786 701 
Q 3034 994 3034 1497 
Q 3034 2003 2786 2293 
Q 2538 2584 2113 2584 
z
M 3366 4563 
L 3366 3988 
Q 3128 4100 2886 4159 
Q 2644 4219 2406 4219 
Q 1781 4219 1451 3797 
Q 1122 3375 1075 2522 
Q 1259 2794 1537 2939 
Q 1816 3084 2150 3084 
Q 2853 3084 3261 2657 
Q 3669 2231 3669 1497 
Q 3669 778 3244 343 
Q 2819 -91 2113 -91 
Q 1303 -91 875 529 
Q 447 1150 447 2328 
Q 447 3434 972 4092 
Q 1497 4750 2381 4750 
Q 2619 4750 2861 4703 
Q 3103 4656 3366 4563 
z
" id="DejaVuSans-36" transform="scale(0.015625)"/>
       </defs>
       <use xlink:href="#DejaVuSans-36"/>
      </g>
     </g>
    </g>
    <g id="xtick_5">
     <g id="line2d_9">
      <path clip-path="url(#p80b9f1b321)" d="M 97.755429 298.944 
L 97.755429 3.456 
" style="fill:none;stroke:#b0b0b0;stroke-linecap:square;stroke-width:0.8;"/>
     </g>
     <g id="line2d_10">
      <defs>
       <path d="M 0 0 
L 0 2 
" id="md301d45d54" style="stroke:#000000;stroke-width:0.6;"/>
      </defs>
      <g>
       <use style="stroke:#000000;stroke-width:0.6;" x="97.755429" xlink:href="#md301d45d54" y="298.944"/>
      </g>
     </g>
    </g>
    <g id="xtick_6">
     <g id="line2d_11">
      <path clip-path="url(#p80b9f1b321)" d="M 178.066286 298.944 
L 178.066286 3.456 
" style="fill:none;stroke:#b0b0b0;stroke-linecap:square;stroke-width:0.8;"/>
     </g>
     <g id="line2d_12">
      <g>
       <use style="stroke:#000000;stroke-width:0.6;" x="178.066286" xlink:href="#md301d45d54" y="298.944"/>
      </g>
     </g>
    </g>
    <g id="xtick_7">
     <g id="line2d_13">
      <path clip-path="url(#p80b9f1b321)" d="M 258.377143 298.944 
L 258.377143 3.456 
" style="fill:none;stroke:#b0b0b0;stroke-linecap:square;stroke-width:0.8;"/>
     </g>
     <g id="line2d_14">
      <g>
       <use style="stroke:#000000;stroke-width:0.6;" x="258.377143" xlink:href="#md301d45d54" y="298.944"/>
      </g>
     </g>
    </g>
    <g id="xtick_8">
     <g id="line2d_15">
      <path clip-path="url(#p80b9f1b321)" d="M 338.688 298.944 
L 338.688 3.456 
" style="fill:none;stroke:#b0b0b0;stroke-linecap:square;stroke-width:0.8;"/>
     </g>
     <g id="line2d_16">
      <g>
       <use style="stroke:#000000;stroke-width:0.6;" x="338.688" xlink:href="#md301d45d54" y="298.944"/>
      </g>
     </g>
    </g>
    <g id="text_5">
     <!-- log10(# f-evals / dimension) -->
     <g transform="translate(77.764078 342.217594)scale(0.17 -0.17)">
      <defs>
       <path d="M 603 4863 
L 1178 4863 
L 1178 0 
L 603 0 
L 603 4863 
z
" id="DejaVuSans-6c" transform="scale(0.015625)"/>
       <path d="M 1959 3097 
Q 1497 3097 1228 2736 
Q 959 2375 959 1747 
Q 959 1119 1226 758 
Q 1494 397 1959 397 
Q 2419 397 2687 759 
Q 2956 1122 2956 1747 
Q 2956 2369 2687 2733 
Q 2419 3097 1959 3097 
z
M 1959 3584 
Q 2709 3584 3137 3096 
Q 3566 2609 3566 1747 
Q 3566 888 3137 398 
Q 2709 -91 1959 -91 
Q 1206 -91 779 398 
Q 353 888 353 1747 
Q 353 2609 779 3096 
Q 1206 3584 1959 3584 
z
" id="DejaVuSans-6f" transform="scale(0.015625)"/>
       <path d="M 2906 1791 
Q 2906 2416 2648 2759 
Q 2391 3103 1925 3103 
Q 1463 3103 1205 2759 
Q 947 2416 947 1791 
Q 947 1169 1205 825 
Q 1463 481 1925 481 
Q 2391 481 2648 825 
Q 2906 1169 2906 1791 
z
M 3481 434 
Q 3481 -459 3084 -895 
Q 2688 -1331 1869 -1331 
Q 1566 -1331 1297 -1286 
Q 1028 -1241 775 -1147 
L 775 -588 
Q 1028 -725 1275 -790 
Q 1522 -856 1778 -856 
Q 2344 -856 2625 -561 
Q 2906 -266 2906 331 
L 2906 616 
Q 2728 306 2450 153 
Q 2172 0 1784 0 
Q 1141 0 747 490 
Q 353 981 353 1791 
Q 353 2603 747 3093 
Q 1141 3584 1784 3584 
Q 2172 3584 2450 3431 
Q 2728 3278 2906 2969 
L 2906 3500 
L 3481 3500 
L 3481 434 
z
" id="DejaVuSans-67" transform="scale(0.015625)"/>
       <path d="M 794 531 
L 1825 531 
L 1825 4091 
L 703 3866 
L 703 4441 
L 1819 4666 
L 2450 4666 
L 2450 531 
L 3481 531 
L 3481 0 
L 794 0 
L 794 531 
z
" id="DejaVuSans-31" transform="scale(0.015625)"/>
       <path d="M 1984 4856 
Q 1566 4138 1362 3434 
Q 1159 2731 1159 2009 
Q 1159 1288 1364 580 
Q 1569 -128 1984 -844 
L 1484 -844 
Q 1016 -109 783 600 
Q 550 1309 550 2009 
Q 550 2706 781 3412 
Q 1013 4119 1484 4856 
L 1984 4856 
z
" id="DejaVuSans-28" transform="scale(0.015625)"/>
       <path d="M 3272 2816 
L 2363 2816 
L 2100 1772 
L 3016 1772 
L 3272 2816 
z
M 2803 4594 
L 2478 3297 
L 3391 3297 
L 3719 4594 
L 4219 4594 
L 3897 3297 
L 4872 3297 
L 4872 2816 
L 3775 2816 
L 3519 1772 
L 4513 1772 
L 4513 1294 
L 3397 1294 
L 3072 0 
L 2572 0 
L 2894 1294 
L 1978 1294 
L 1656 0 
L 1153 0 
L 1478 1294 
L 494 1294 
L 494 1772 
L 1594 1772 
L 1856 2816 
L 850 2816 
L 850 3297 
L 1978 3297 
L 2297 4594 
L 2803 4594 
z
" id="DejaVuSans-23" transform="scale(0.015625)"/>
       <path id="DejaVuSans-20" transform="scale(0.015625)"/>
       <path d="M 2375 4863 
L 2375 4384 
L 1825 4384 
Q 1516 4384 1395 4259 
Q 1275 4134 1275 3809 
L 1275 3500 
L 2222 3500 
L 2222 3053 
L 1275 3053 
L 1275 0 
L 697 0 
L 697 3053 
L 147 3053 
L 147 3500 
L 697 3500 
L 697 3744 
Q 697 4328 969 4595 
Q 1241 4863 1831 4863 
L 2375 4863 
z
" id="DejaVuSans-66" transform="scale(0.015625)"/>
       <path d="M 313 2009 
L 1997 2009 
L 1997 1497 
L 313 1497 
L 313 2009 
z
" id="DejaVuSans-2d" transform="scale(0.015625)"/>
       <path d="M 3597 1894 
L 3597 1613 
L 953 1613 
Q 991 1019 1311 708 
Q 1631 397 2203 397 
Q 2534 397 2845 478 
Q 3156 559 3463 722 
L 3463 178 
Q 3153 47 2828 -22 
Q 2503 -91 2169 -91 
Q 1331 -91 842 396 
Q 353 884 353 1716 
Q 353 2575 817 3079 
Q 1281 3584 2069 3584 
Q 2775 3584 3186 3129 
Q 3597 2675 3597 1894 
z
M 3022 2063 
Q 3016 2534 2758 2815 
Q 2500 3097 2075 3097 
Q 1594 3097 1305 2825 
Q 1016 2553 972 2059 
L 3022 2063 
z
" id="DejaVuSans-65" transform="scale(0.015625)"/>
       <path d="M 191 3500 
L 800 3500 
L 1894 563 
L 2988 3500 
L 3597 3500 
L 2284 0 
L 1503 0 
L 191 3500 
z
" id="DejaVuSans-76" transform="scale(0.015625)"/>
       <path d="M 2194 1759 
Q 1497 1759 1228 1600 
Q 959 1441 959 1056 
Q 959 750 1161 570 
Q 1363 391 1709 391 
Q 2188 391 2477 730 
Q 2766 1069 2766 1631 
L 2766 1759 
L 2194 1759 
z
M 3341 1997 
L 3341 0 
L 2766 0 
L 2766 531 
Q 2569 213 2275 61 
Q 1981 -91 1556 -91 
Q 1019 -91 701 211 
Q 384 513 384 1019 
Q 384 1609 779 1909 
Q 1175 2209 1959 2209 
L 2766 2209 
L 2766 2266 
Q 2766 2663 2505 2880 
Q 2244 3097 1772 3097 
Q 1472 3097 1187 3025 
Q 903 2953 641 2809 
L 641 3341 
Q 956 3463 1253 3523 
Q 1550 3584 1831 3584 
Q 2591 3584 2966 3190 
Q 3341 2797 3341 1997 
z
" id="DejaVuSans-61" transform="scale(0.015625)"/>
       <path d="M 2834 3397 
L 2834 2853 
Q 2591 2978 2328 3040 
Q 2066 3103 1784 3103 
Q 1356 3103 1142 2972 
Q 928 2841 928 2578 
Q 928 2378 1081 2264 
Q 1234 2150 1697 2047 
L 1894 2003 
Q 2506 1872 2764 1633 
Q 3022 1394 3022 966 
Q 3022 478 2636 193 
Q 2250 -91 1575 -91 
Q 1294 -91 989 -36 
Q 684 19 347 128 
L 347 722 
Q 666 556 975 473 
Q 1284 391 1588 391 
Q 1994 391 2212 530 
Q 2431 669 2431 922 
Q 2431 1156 2273 1281 
Q 2116 1406 1581 1522 
L 1381 1569 
Q 847 1681 609 1914 
Q 372 2147 372 2553 
Q 372 3047 722 3315 
Q 1072 3584 1716 3584 
Q 2034 3584 2315 3537 
Q 2597 3491 2834 3397 
z
" id="DejaVuSans-73" transform="scale(0.015625)"/>
       <path d="M 1625 4666 
L 2156 4666 
L 531 -594 
L 0 -594 
L 1625 4666 
z
" id="DejaVuSans-2f" transform="scale(0.015625)"/>
       <path d="M 2906 2969 
L 2906 4863 
L 3481 4863 
L 3481 0 
L 2906 0 
L 2906 525 
Q 2725 213 2448 61 
Q 2172 -91 1784 -91 
Q 1150 -91 751 415 
Q 353 922 353 1747 
Q 353 2572 751 3078 
Q 1150 3584 1784 3584 
Q 2172 3584 2448 3432 
Q 2725 3281 2906 2969 
z
M 947 1747 
Q 947 1113 1208 752 
Q 1469 391 1925 391 
Q 2381 391 2643 752 
Q 2906 1113 2906 1747 
Q 2906 2381 2643 2742 
Q 2381 3103 1925 3103 
Q 1469 3103 1208 2742 
Q 947 2381 947 1747 
z
" id="DejaVuSans-64" transform="scale(0.015625)"/>
       <path d="M 603 3500 
L 1178 3500 
L 1178 0 
L 603 0 
L 603 3500 
z
M 603 4863 
L 1178 4863 
L 1178 4134 
L 603 4134 
L 603 4863 
z
" id="DejaVuSans-69" transform="scale(0.015625)"/>
       <path d="M 3328 2828 
Q 3544 3216 3844 3400 
Q 4144 3584 4550 3584 
Q 5097 3584 5394 3201 
Q 5691 2819 5691 2113 
L 5691 0 
L 5113 0 
L 5113 2094 
Q 5113 2597 4934 2840 
Q 4756 3084 4391 3084 
Q 3944 3084 3684 2787 
Q 3425 2491 3425 1978 
L 3425 0 
L 2847 0 
L 2847 2094 
Q 2847 2600 2669 2842 
Q 2491 3084 2119 3084 
Q 1678 3084 1418 2786 
Q 1159 2488 1159 1978 
L 1159 0 
L 581 0 
L 581 3500 
L 1159 3500 
L 1159 2956 
Q 1356 3278 1631 3431 
Q 1906 3584 2284 3584 
Q 2666 3584 2933 3390 
Q 3200 3197 3328 2828 
z
" id="DejaVuSans-6d" transform="scale(0.015625)"/>
       <path d="M 3513 2113 
L 3513 0 
L 2938 0 
L 2938 2094 
Q 2938 2591 2744 2837 
Q 2550 3084 2163 3084 
Q 1697 3084 1428 2787 
Q 1159 2491 1159 1978 
L 1159 0 
L 581 0 
L 581 3500 
L 1159 3500 
L 1159 2956 
Q 1366 3272 1645 3428 
Q 1925 3584 2291 3584 
Q 2894 3584 3203 3211 
Q 3513 2838 3513 2113 
z
" id="DejaVuSans-6e" transform="scale(0.015625)"/>
       <path d="M 513 4856 
L 1013 4856 
Q 1481 4119 1714 3412 
Q 1947 2706 1947 2009 
Q 1947 1309 1714 600 
Q 1481 -109 1013 -844 
L 513 -844 
Q 928 -128 1133 580 
Q 1338 1288 1338 2009 
Q 1338 2731 1133 3434 
Q 928 4138 513 4856 
z
" id="DejaVuSans-29" transform="scale(0.015625)"/>
      </defs>
      <use xlink:href="#DejaVuSans-6c"/>
      <use x="27.783203" xlink:href="#DejaVuSans-6f"/>
      <use x="88.964844" xlink:href="#DejaVuSans-67"/>
      <use x="152.441406" xlink:href="#DejaVuSans-31"/>
      <use x="216.064453" xlink:href="#DejaVuSans-30"/>
      <use x="279.6875" xlink:href="#DejaVuSans-28"/>
      <use x="318.701172" xlink:href="#DejaVuSans-23"/>
      <use x="402.490234" xlink:href="#DejaVuSans-20"/>
      <use x="434.277344" xlink:href="#DejaVuSans-66"/>
      <use x="463.982422" xlink:href="#DejaVuSans-2d"/>
      <use x="500.066406" xlink:href="#DejaVuSans-65"/>
      <use x="561.589844" xlink:href="#DejaVuSans-76"/>
      <use x="620.769531" xlink:href="#DejaVuSans-61"/>
      <use x="682.048828" xlink:href="#DejaVuSans-6c"/>
      <use x="709.832031" xlink:href="#DejaVuSans-73"/>
      <use x="761.931641" xlink:href="#DejaVuSans-20"/>
      <use x="793.71875" xlink:href="#DejaVuSans-2f"/>
      <use x="827.410156" xlink:href="#DejaVuSans-20"/>
      <use x="859.197266" xlink:href="#DejaVuSans-64"/>
      <use x="922.673828" xlink:href="#DejaVuSans-69"/>
      <use x="950.457031" xlink:href="#DejaVuSans-6d"/>
      <use x="1047.869141" xlink:href="#DejaVuSans-65"/>
      <use x="1109.392578" xlink:href="#DejaVuSans-6e"/>
      <use x="1172.771484" xlink:href="#DejaVuSans-73"/>
      <use x="1224.871094" xlink:href="#DejaVuSans-69"/>
      <use x="1252.654297" xlink:href="#DejaVuSans-6f"/>
      <use x="1313.835938" xlink:href="#DejaVuSans-6e"/>
      <use x="1377.214844" xlink:href="#DejaVuSans-29"/>
     </g>
    </g>
   </g>
   <g id="matplotlib.axis_2">
    <g id="ytick_1">
     <g id="line2d_17">
      <path clip-path="url(#p80b9f1b321)" d="M 57.6 298.944 
L 338.688 298.944 
" style="fill:none;stroke:#b0b0b0;stroke-linecap:square;stroke-width:0.8;"/>
     </g>
     <g id="line2d_18">
      <defs>
       <path d="M 0 0 
L -3.5 0 
" id="mf883bd68d3" style="stroke:#000000;stroke-width:0.8;"/>
      </defs>
      <g>
       <use style="stroke:#000000;stroke-width:0.8;" x="57.6" xlink:href="#mf883bd68d3" y="298.944"/>
      </g>
     </g>
     <g id="text_6">
      <!-- 0.0 -->
      <g transform="translate(25.155 305.02275)scale(0.16 -0.16)">
       <defs>
        <path d="M 684 794 
L 1344 794 
L 1344 0 
L 684 0 
L 684 794 
z
" id="DejaVuSans-2e" transform="scale(0.015625)"/>
       </defs>
       <use xlink:href="#DejaVuSans-30"/>
       <use x="63.623047" xlink:href="#DejaVuSans-2e"/>
       <use x="95.410156" xlink:href="#DejaVuSans-30"/>
      </g>
     </g>
    </g>
    <g id="ytick_2">
     <g id="line2d_19">
      <path clip-path="url(#p80b9f1b321)" d="M 57.6 240.431525 
L 338.688 240.431525 
" style="fill:none;stroke:#b0b0b0;stroke-linecap:square;stroke-width:0.8;"/>
     </g>
     <g id="line2d_20">
      <g>
       <use style="stroke:#000000;stroke-width:0.8;" x="57.6" xlink:href="#mf883bd68d3" y="240.431525"/>
      </g>
     </g>
     <g id="text_7">
      <!-- 0.2 -->
      <g transform="translate(25.155 246.510275)scale(0.16 -0.16)">
       <use xlink:href="#DejaVuSans-30"/>
       <use x="63.623047" xlink:href="#DejaVuSans-2e"/>
       <use x="95.410156" xlink:href="#DejaVuSans-32"/>
      </g>
     </g>
    </g>
    <g id="ytick_3">
     <g id="line2d_21">
      <path clip-path="url(#p80b9f1b321)" d="M 57.6 181.91905 
L 338.688 181.91905 
" style="fill:none;stroke:#b0b0b0;stroke-linecap:square;stroke-width:0.8;"/>
     </g>
     <g id="line2d_22">
      <g>
       <use style="stroke:#000000;stroke-width:0.8;" x="57.6" xlink:href="#mf883bd68d3" y="181.91905"/>
      </g>
     </g>
     <g id="text_8">
      <!-- 0.4 -->
      <g transform="translate(25.155 187.9978)scale(0.16 -0.16)">
       <use xlink:href="#DejaVuSans-30"/>
       <use x="63.623047" xlink:href="#DejaVuSans-2e"/>
       <use x="95.410156" xlink:href="#DejaVuSans-34"/>
      </g>
     </g>
    </g>
    <g id="ytick_4">
     <g id="line2d_23">
      <path clip-path="url(#p80b9f1b321)" d="M 57.6 123.406574 
L 338.688 123.406574 
" style="fill:none;stroke:#b0b0b0;stroke-linecap:square;stroke-width:0.8;"/>
     </g>
     <g id="line2d_24">
      <g>
       <use style="stroke:#000000;stroke-width:0.8;" x="57.6" xlink:href="#mf883bd68d3" y="123.406574"/>
      </g>
     </g>
     <g id="text_9">
      <!-- 0.6 -->
      <g transform="translate(25.155 129.485324)scale(0.16 -0.16)">
       <use xlink:href="#DejaVuSans-30"/>
       <use x="63.623047" xlink:href="#DejaVuSans-2e"/>
       <use x="95.410156" xlink:href="#DejaVuSans-36"/>
      </g>
     </g>
    </g>
    <g id="ytick_5">
     <g id="line2d_25">
      <path clip-path="url(#p80b9f1b321)" d="M 57.6 64.894099 
L 338.688 64.894099 
" style="fill:none;stroke:#b0b0b0;stroke-linecap:square;stroke-width:0.8;"/>
     </g>
     <g id="line2d_26">
      <g>
       <use style="stroke:#000000;stroke-width:0.8;" x="57.6" xlink:href="#mf883bd68d3" y="64.894099"/>
      </g>
     </g>
     <g id="text_10">
      <!-- 0.8 -->
      <g transform="translate(25.155 70.972849)scale(0.16 -0.16)">
       <defs>
        <path d="M 2034 2216 
Q 1584 2216 1326 1975 
Q 1069 1734 1069 1313 
Q 1069 891 1326 650 
Q 1584 409 2034 409 
Q 2484 409 2743 651 
Q 3003 894 3003 1313 
Q 3003 1734 2745 1975 
Q 2488 2216 2034 2216 
z
M 1403 2484 
Q 997 2584 770 2862 
Q 544 3141 544 3541 
Q 544 4100 942 4425 
Q 1341 4750 2034 4750 
Q 2731 4750 3128 4425 
Q 3525 4100 3525 3541 
Q 3525 3141 3298 2862 
Q 3072 2584 2669 2484 
Q 3125 2378 3379 2068 
Q 3634 1759 3634 1313 
Q 3634 634 3220 271 
Q 2806 -91 2034 -91 
Q 1263 -91 848 271 
Q 434 634 434 1313 
Q 434 1759 690 2068 
Q 947 2378 1403 2484 
z
M 1172 3481 
Q 1172 3119 1398 2916 
Q 1625 2713 2034 2713 
Q 2441 2713 2670 2916 
Q 2900 3119 2900 3481 
Q 2900 3844 2670 4047 
Q 2441 4250 2034 4250 
Q 1625 4250 1398 4047 
Q 1172 3844 1172 3481 
z
" id="DejaVuSans-38" transform="scale(0.015625)"/>
       </defs>
       <use xlink:href="#DejaVuSans-30"/>
       <use x="63.623047" xlink:href="#DejaVuSans-2e"/>
       <use x="95.410156" xlink:href="#DejaVuSans-38"/>
      </g>
     </g>
    </g>
    <g id="ytick_6">
     <g id="line2d_27">
      <path clip-path="url(#p80b9f1b321)" d="M 57.6 6.381624 
L 338.688 6.381624 
" style="fill:none;stroke:#b0b0b0;stroke-linecap:square;stroke-width:0.8;"/>
     </g>
     <g id="line2d_28">
      <g>
       <use style="stroke:#000000;stroke-width:0.8;" x="57.6" xlink:href="#mf883bd68d3" y="6.381624"/>
      </g>
     </g>
     <g id="text_11">
      <!-- 1.0 -->
      <g transform="translate(25.155 12.460374)scale(0.16 -0.16)">
       <use xlink:href="#DejaVuSans-31"/>
       <use x="63.623047" xlink:href="#DejaVuSans-2e"/>
       <use x="95.410156" xlink:href="#DejaVuSans-30"/>
      </g>
     </g>
    </g>
    <g id="text_12">
     <!-- Fraction of function,target pairs -->
     <g transform="translate(17.619531 285.585)rotate(-90)scale(0.17 -0.17)">
      <defs>
       <path d="M 628 4666 
L 3309 4666 
L 3309 4134 
L 1259 4134 
L 1259 2759 
L 3109 2759 
L 3109 2228 
L 1259 2228 
L 1259 0 
L 628 0 
L 628 4666 
z
" id="DejaVuSans-46" transform="scale(0.015625)"/>
       <path d="M 2631 2963 
Q 2534 3019 2420 3045 
Q 2306 3072 2169 3072 
Q 1681 3072 1420 2755 
Q 1159 2438 1159 1844 
L 1159 0 
L 581 0 
L 581 3500 
L 1159 3500 
L 1159 2956 
Q 1341 3275 1631 3429 
Q 1922 3584 2338 3584 
Q 2397 3584 2469 3576 
Q 2541 3569 2628 3553 
L 2631 2963 
z
" id="DejaVuSans-72" transform="scale(0.015625)"/>
       <path d="M 3122 3366 
L 3122 2828 
Q 2878 2963 2633 3030 
Q 2388 3097 2138 3097 
Q 1578 3097 1268 2742 
Q 959 2388 959 1747 
Q 959 1106 1268 751 
Q 1578 397 2138 397 
Q 2388 397 2633 464 
Q 2878 531 3122 666 
L 3122 134 
Q 2881 22 2623 -34 
Q 2366 -91 2075 -91 
Q 1284 -91 818 406 
Q 353 903 353 1747 
Q 353 2603 823 3093 
Q 1294 3584 2113 3584 
Q 2378 3584 2631 3529 
Q 2884 3475 3122 3366 
z
" id="DejaVuSans-63" transform="scale(0.015625)"/>
       <path d="M 1172 4494 
L 1172 3500 
L 2356 3500 
L 2356 3053 
L 1172 3053 
L 1172 1153 
Q 1172 725 1289 603 
Q 1406 481 1766 481 
L 2356 481 
L 2356 0 
L 1766 0 
Q 1100 0 847 248 
Q 594 497 594 1153 
L 594 3053 
L 172 3053 
L 172 3500 
L 594 3500 
L 594 4494 
L 1172 4494 
z
" id="DejaVuSans-74" transform="scale(0.015625)"/>
       <path d="M 544 1381 
L 544 3500 
L 1119 3500 
L 1119 1403 
Q 1119 906 1312 657 
Q 1506 409 1894 409 
Q 2359 409 2629 706 
Q 2900 1003 2900 1516 
L 2900 3500 
L 3475 3500 
L 3475 0 
L 2900 0 
L 2900 538 
Q 2691 219 2414 64 
Q 2138 -91 1772 -91 
Q 1169 -91 856 284 
Q 544 659 544 1381 
z
M 1991 3584 
L 1991 3584 
z
" id="DejaVuSans-75" transform="scale(0.015625)"/>
       <path d="M 750 794 
L 1409 794 
L 1409 256 
L 897 -744 
L 494 -744 
L 750 256 
L 750 794 
z
" id="DejaVuSans-2c" transform="scale(0.015625)"/>
       <path d="M 1159 525 
L 1159 -1331 
L 581 -1331 
L 581 3500 
L 1159 3500 
L 1159 2969 
Q 1341 3281 1617 3432 
Q 1894 3584 2278 3584 
Q 2916 3584 3314 3078 
Q 3713 2572 3713 1747 
Q 3713 922 3314 415 
Q 2916 -91 2278 -91 
Q 1894 -91 1617 61 
Q 1341 213 1159 525 
z
M 3116 1747 
Q 3116 2381 2855 2742 
Q 2594 3103 2138 3103 
Q 1681 3103 1420 2742 
Q 1159 2381 1159 1747 
Q 1159 1113 1420 752 
Q 1681 391 2138 391 
Q 2594 391 2855 752 
Q 3116 1113 3116 1747 
z
" id="DejaVuSans-70" transform="scale(0.015625)"/>
      </defs>
      <use xlink:href="#DejaVuSans-46"/>
      <use x="50.269531" xlink:href="#DejaVuSans-72"/>
      <use x="91.382812" xlink:href="#DejaVuSans-61"/>
      <use x="152.662109" xlink:href="#DejaVuSans-63"/>
      <use x="207.642578" xlink:href="#DejaVuSans-74"/>
      <use x="246.851562" xlink:href="#DejaVuSans-69"/>
      <use x="274.634766" xlink:href="#DejaVuSans-6f"/>
      <use x="335.816406" xlink:href="#DejaVuSans-6e"/>
      <use x="399.195312" xlink:href="#DejaVuSans-20"/>
      <use x="430.982422" xlink:href="#DejaVuSans-6f"/>
      <use x="492.164062" xlink:href="#DejaVuSans-66"/>
      <use x="527.369141" xlink:href="#DejaVuSans-20"/>
      <use x="559.15625" xlink:href="#DejaVuSans-66"/>
      <use x="594.361328" xlink:href="#DejaVuSans-75"/>
      <use x="657.740234" xlink:href="#DejaVuSans-6e"/>
      <use x="721.119141" xlink:href="#DejaVuSans-63"/>
      <use x="776.099609" xlink:href="#DejaVuSans-74"/>
      <use x="815.308594" xlink:href="#DejaVuSans-69"/>
      <use x="843.091797" xlink:href="#DejaVuSans-6f"/>
      <use x="904.273438" xlink:href="#DejaVuSans-6e"/>
      <use x="967.652344" xlink:href="#DejaVuSans-2c"/>
      <use x="999.439453" xlink:href="#DejaVuSans-74"/>
      <use x="1038.648438" xlink:href="#DejaVuSans-61"/>
      <use x="1099.927734" xlink:href="#DejaVuSans-72"/>
      <use x="1139.291016" xlink:href="#DejaVuSans-67"/>
      <use x="1202.767578" xlink:href="#DejaVuSans-65"/>
      <use x="1264.291016" xlink:href="#DejaVuSans-74"/>
      <use x="1303.5" xlink:href="#DejaVuSans-20"/>
      <use x="1335.287109" xlink:href="#DejaVuSans-70"/>
      <use x="1398.763672" xlink:href="#DejaVuSans-61"/>
      <use x="1460.042969" xlink:href="#DejaVuSans-69"/>
      <use x="1487.826172" xlink:href="#DejaVuSans-72"/>
      <use x="1528.939453" xlink:href="#DejaVuSans-73"/>
     </g>
    </g>
   </g>
   <g id="line2d_29">
    <defs>
     <path d="M 0 1.5 
C 0.397805 1.5 0.77937 1.341951 1.06066 1.06066 
C 1.341951 0.77937 1.5 0.397805 1.5 0 
C 1.5 -0.397805 1.341951 -0.77937 1.06066 -1.06066 
C 0.77937 -1.341951 0.397805 -1.5 0 -1.5 
C -0.397805 -1.5 -0.77937 -1.341951 -1.06066 -1.06066 
C -1.341951 -0.77937 -1.5 -0.397805 -1.5 0 
C -1.5 0.397805 -1.341951 0.77937 -1.06066 1.06066 
C -0.77937 1.341951 -0.397805 1.5 0 1.5 
z
" id="m1905764653" style="stroke:#000080;"/>
    </defs>
    <g>
     <use style="fill:#000080;stroke:#000080;" x="183.148095" xlink:href="#m1905764653" y="6.381624"/>
     <use style="fill:#000080;stroke:#000080;" x="183.148095" xlink:href="#m1905764653" y="6.381624"/>
    </g>
   </g>
   <g id="line2d_30">
    <path d="M 159.3651 298.944 
L 159.3651 298.370348 
L 159.887213 298.370348 
L 159.887213 297.796697 
L 160.37492 297.796697 
L 160.37492 297.223045 
L 160.590016 297.223045 
L 160.675317 296.075741 
L 160.811875 296.075741 
L 160.825941 294.928438 
L 161.27016 294.928438 
L 161.334007 293.207483 
L 161.542158 293.207483 
L 161.542158 292.633831 
L 161.689969 292.633831 
L 161.694428 291.486528 
L 161.902754 291.486528 
L 162.012559 289.191921 
L 162.043181 289.191921 
L 162.043181 288.618269 
L 162.256044 288.618269 
L 162.324991 286.897314 
L 162.564181 286.897314 
L 162.564181 286.323662 
L 162.958448 286.323662 
L 163.045324 285.176359 
L 163.469301 285.176359 
L 163.469301 284.602707 
L 163.673506 284.602707 
L 163.780654 281.734448 
L 163.812276 281.734448 
L 163.824119 279.439842 
L 163.985177 279.439842 
L 164.035935 277.718886 
L 164.117618 277.718886 
L 164.175729 276.571583 
L 164.394804 276.571583 
L 164.394804 275.997931 
L 164.716466 275.997931 
L 164.787563 274.850628 
L 164.91407 274.850628 
L 164.947404 273.703324 
L 165.200871 273.703324 
L 165.299059 271.408718 
L 165.338904 271.408718 
L 165.418321 270.261414 
L 165.486619 270.261414 
L 165.486619 269.687762 
L 165.675732 269.687762 
L 165.725346 267.393156 
L 165.792454 267.393156 
L 165.831189 265.6722 
L 165.992243 265.6722 
L 166.047915 264.524897 
L 166.120716 264.524897 
L 166.169082 261.082987 
L 166.419124 261.082987 
L 166.449704 259.362031 
L 166.709167 259.362031 
L 166.759266 257.641076 
L 167.079807 257.641076 
L 167.184273 255.920121 
L 167.233027 255.920121 
L 167.233027 255.346469 
L 167.362375 255.346469 
L 167.362375 254.772818 
L 167.481174 254.772818 
L 167.481174 253.625514 
L 167.646779 253.625514 
L 167.665786 252.478211 
L 167.769958 252.478211 
L 167.835927 250.757256 
L 167.945323 250.757256 
L 167.960895 249.609952 
L 168.159001 249.609952 
L 168.211246 247.315345 
L 168.287795 247.315345 
L 168.29085 246.168042 
L 168.47922 246.168042 
L 168.569642 245.020738 
L 168.641643 245.020738 
L 168.749091 243.299783 
L 168.760989 243.299783 
L 168.760989 242.726132 
L 168.873615 242.726132 
L 168.95908 239.284221 
L 169.0792 239.284221 
L 169.172381 236.989614 
L 169.446113 236.989614 
L 169.471824 235.268659 
L 169.664871 235.268659 
L 169.771826 232.974052 
L 169.86976 232.974052 
L 169.939378 231.826749 
L 170.072271 231.826749 
L 170.160306 228.95849 
L 170.348634 228.95849 
L 170.424481 226.663884 
L 170.567151 226.663884 
L 170.591263 225.51658 
L 170.703344 225.51658 
L 170.801489 223.221973 
L 170.825279 223.221973 
L 170.870127 220.353715 
L 171.11605 220.353715 
L 171.121244 218.632759 
L 171.276376 218.632759 
L 171.386711 216.338153 
L 171.409716 216.338153 
L 171.501435 215.190849 
L 171.531901 215.190849 
L 171.531901 214.617197 
L 171.663309 214.617197 
L 171.766226 211.175287 
L 171.786237 211.175287 
L 171.878488 210.027984 
L 171.925672 210.027984 
L 171.925672 209.454332 
L 172.105778 209.454332 
L 172.179258 207.159725 
L 172.23782 207.159725 
L 172.293758 206.012422 
L 172.390616 206.012422 
L 172.494143 203.144163 
L 172.52532 203.144163 
L 172.630434 199.702253 
L 172.647099 199.702253 
L 172.694624 197.981298 
L 172.843486 197.981298 
L 172.946705 194.539387 
L 172.960734 194.539387 
L 173.070232 191.671129 
L 173.077198 191.671129 
L 173.179047 188.229218 
L 173.195195 188.229218 
L 173.257343 187.081915 
L 173.362717 187.081915 
L 173.433372 185.36096 
L 173.521856 185.36096 
L 173.546732 183.066353 
L 173.634644 183.066353 
L 173.670583 181.345398 
L 173.751176 181.345398 
L 173.853616 177.329836 
L 173.951042 177.329836 
L 174.052318 174.461577 
L 174.065485 174.461577 
L 174.142093 173.314274 
L 174.177002 173.314274 
L 174.287811 169.298712 
L 174.367763 169.298712 
L 174.466655 166.430453 
L 174.562857 166.430453 
L 174.65217 164.135846 
L 174.703001 164.135846 
L 174.804221 162.414891 
L 174.84832 162.414891 
L 174.959126 160.120284 
L 174.977872 160.120284 
L 174.977872 159.546632 
L 175.158055 159.546632 
L 175.203325 157.825677 
L 175.299647 157.825677 
L 175.379171 154.383767 
L 175.42793 154.383767 
L 175.535124 151.515508 
L 175.547218 151.515508 
L 175.62763 148.64725 
L 175.663695 148.64725 
L 175.769454 146.352643 
L 175.795297 146.352643 
L 175.902239 144.058036 
L 175.916053 144.058036 
L 175.931828 142.337081 
L 176.041856 142.337081 
L 176.1473 137.747867 
L 176.155086 137.747867 
L 176.234686 135.45326 
L 176.267585 135.45326 
L 176.354372 132.01135 
L 176.480883 132.01135 
L 176.545699 129.716743 
L 176.596999 129.716743 
L 176.676501 126.848485 
L 176.719885 126.848485 
L 176.810078 124.553878 
L 176.838169 124.553878 
L 176.838169 123.406574 
L 176.964946 123.406574 
L 177.074202 120.538316 
L 177.077894 120.538316 
L 177.186447 116.522754 
L 177.287036 116.522754 
L 177.396111 111.93354 
L 177.475668 111.93354 
L 177.563841 107.917978 
L 177.601493 107.917978 
L 177.664067 105.623371 
L 177.744191 105.623371 
L 177.788545 103.328764 
L 177.912141 103.328764 
L 177.968351 101.607809 
L 178.054074 101.607809 
L 178.10461 97.018595 
L 178.241539 97.018595 
L 178.329368 92.429381 
L 178.363691 92.429381 
L 178.442377 90.134775 
L 178.542784 90.134775 
L 178.620669 86.119213 
L 178.674645 86.119213 
L 178.73349 83.824606 
L 178.820553 83.824606 
L 178.91549 79.809044 
L 178.932093 79.809044 
L 179.034677 75.21983 
L 179.09561 75.21983 
L 179.15797 73.498875 
L 179.216842 73.498875 
L 179.327506 70.056964 
L 179.377724 70.056964 
L 179.479336 67.188706 
L 179.572362 67.188706 
L 179.666487 62.599492 
L 179.687158 62.599492 
L 179.749025 59.157582 
L 179.856373 59.157582 
L 179.944284 57.436627 
L 179.991197 57.436627 
L 180.069107 52.847413 
L 180.107931 52.847413 
L 180.189955 49.979154 
L 180.22389 49.979154 
L 180.329895 48.831851 
L 180.357442 48.831851 
L 180.464161 46.537244 
L 180.508182 46.537244 
L 180.613985 42.521682 
L 180.65312 42.521682 
L 180.756556 38.50612 
L 180.822195 38.50612 
L 180.923155 35.06421 
L 180.964558 35.06421 
L 181.033834 32.769603 
L 181.107232 32.769603 
L 181.20219 27.606737 
L 181.263273 27.606737 
L 181.357387 24.164827 
L 181.396332 24.164827 
L 181.432314 21.87022 
L 181.519801 21.87022 
L 181.566948 20.149265 
L 181.69347 20.149265 
L 181.802196 17.281006 
L 181.821892 17.281006 
L 181.86262 16.133703 
L 181.935412 16.133703 
L 182.014856 13.265444 
L 182.191948 13.265444 
L 182.238688 11.544489 
L 182.376797 11.544489 
L 182.376797 10.397186 
L 182.525979 10.397186 
L 182.525979 9.823534 
L 182.671218 9.823534 
L 182.671218 9.249882 
L 182.865655 9.249882 
L 182.959433 6.955275 
L 183.148095 6.955275 
L 183.148095 6.381624 
L 338.688 6.381624 
L 338.688 6.381624 
" style="fill:none;stroke:#000080;stroke-linecap:square;stroke-width:1.5;"/>
   </g>
   <g id="line2d_31">
    <defs>
     <path d="M 0 6 
C 1.591219 6 3.117479 5.367802 4.242641 4.242641 
C 5.367802 3.117479 6 1.591219 6 0 
C 6 -1.591219 5.367802 -3.117479 4.242641 -4.242641 
C 3.117479 -5.367802 1.591219 -6 0 -6 
C -1.591219 -6 -3.117479 -5.367802 -4.242641 -4.242641 
C -5.367802 -3.117479 -6 -1.591219 -6 0 
C -6 1.591219 -5.367802 3.117479 -4.242641 4.242641 
C -3.117479 5.367802 -1.591219 6 0 6 
z
" id="mb1c1d78ad3" style="stroke:#000080;stroke-width:1.5;"/>
    </defs>
    <g>
     <use style="fill-opacity:0;stroke:#000080;stroke-width:1.5;" x="180.14667" xlink:href="#mb1c1d78ad3" y="52.273761"/>
     <use style="fill-opacity:0;stroke:#000080;stroke-width:1.5;" x="183.148095" xlink:href="#mb1c1d78ad3" y="6.381624"/>
     <use style="fill-opacity:0;stroke:#000080;stroke-width:1.5;" x="183.148095" xlink:href="#mb1c1d78ad3" y="6.381624"/>
     <use style="fill-opacity:0;stroke:#000080;stroke-width:1.5;" x="338.688" xlink:href="#mb1c1d78ad3" y="6.381624"/>
    </g>
   </g>
   <g id="line2d_32">
    <path style="fill:none;stroke:#000080;stroke-linecap:square;stroke-width:1.5;"/>
    <g/>
   </g>
   <g id="line2d_33">
    <defs>
     <path d="M 0 1.5 
C 0.397805 1.5 0.77937 1.341951 1.06066 1.06066 
C 1.341951 0.77937 1.5 0.397805 1.5 0 
C 1.5 -0.397805 1.341951 -0.77937 1.06066 -1.06066 
C 0.77937 -1.341951 0.397805 -1.5 0 -1.5 
C -0.397805 -1.5 -0.77937 -1.341951 -1.06066 -1.06066 
C -1.341951 -0.77937 -1.5 -0.397805 -1.5 0 
C -1.5 0.397805 -1.341951 0.77937 -1.06066 1.06066 
C -0.77937 1.341951 -0.397805 1.5 0 1.5 
z
" id="m4613bdb1a7" style="stroke:#ff00ff;"/>
    </defs>
    <g>
     <use style="fill:#ff00ff;stroke:#ff00ff;" x="180.62453" xlink:href="#m4613bdb1a7" y="6.381624"/>
     <use style="fill:#ff00ff;stroke:#ff00ff;" x="180.62453" xlink:href="#m4613bdb1a7" y="6.381624"/>
    </g>
   </g>
   <g id="line2d_34">
    <path d="M 60.779557 298.944 
L 60.779557 297.796697 
L 92.504372 297.796697 
L 92.504372 296.649393 
L 92.73846 296.649393 
L 92.73846 296.075741 
L 99.258306 296.075741 
L 99.258306 295.50209 
L 112.58145 295.50209 
L 112.58145 294.928438 
L 114.685115 294.928438 
L 114.685115 294.354786 
L 116.38325 294.354786 
L 116.38325 293.781135 
L 123.273551 293.781135 
L 123.273551 293.207483 
L 123.712047 293.207483 
L 123.712047 292.633831 
L 126.065325 292.633831 
L 126.065325 292.060179 
L 131.004728 292.060179 
L 131.004728 291.486528 
L 131.439773 291.486528 
L 131.439773 290.912876 
L 133.009765 290.912876 
L 133.009765 290.339224 
L 133.443203 290.339224 
L 133.443203 289.765573 
L 134.04118 289.765573 
L 134.04118 289.191921 
L 134.55603 289.191921 
L 134.55603 288.044617 
L 135.056115 288.044617 
L 135.056115 287.470966 
L 136.997972 287.470966 
L 136.997972 286.897314 
L 139.887228 286.897314 
L 139.887228 286.323662 
L 144.830078 286.323662 
L 144.830078 285.75001 
L 147.226074 285.75001 
L 147.226074 285.176359 
L 149.593058 285.176359 
L 149.593058 284.602707 
L 150.111834 284.602707 
L 150.111834 284.029055 
L 150.957336 284.029055 
L 150.957336 283.455404 
L 151.653058 283.455404 
L 151.724287 281.734448 
L 153.40939 281.734448 
L 153.40939 281.160797 
L 153.616112 281.160797 
L 153.616112 280.587145 
L 153.764292 280.587145 
L 153.764292 280.013493 
L 153.932113 280.013493 
L 153.932113 279.439842 
L 154.641235 279.439842 
L 154.641235 278.86619 
L 154.800864 278.86619 
L 154.800864 278.292538 
L 155.232454 278.292538 
L 155.232454 277.718886 
L 156.040206 277.718886 
L 156.107908 275.997931 
L 156.254714 275.997931 
L 156.254714 275.42428 
L 156.49067 275.42428 
L 156.49067 274.850628 
L 156.711612 274.850628 
L 156.723476 273.703324 
L 156.953214 273.703324 
L 156.953214 273.129673 
L 157.809652 273.129673 
L 157.809652 272.556021 
L 157.94839 272.556021 
L 158.058592 271.408718 
L 158.336493 271.408718 
L 158.379686 270.261414 
L 158.668475 270.261414 
L 158.763686 268.540459 
L 158.842632 268.540459 
L 158.884591 267.393156 
L 159.190962 267.393156 
L 159.232092 265.6722 
L 159.405822 265.6722 
L 159.431225 264.524897 
L 159.743188 264.524897 
L 159.773084 263.377593 
L 160.030058 263.377593 
L 160.10837 262.23029 
L 160.891432 262.23029 
L 160.891432 261.656638 
L 161.274728 261.656638 
L 161.374928 260.509335 
L 161.542158 260.509335 
L 161.6095 259.362031 
L 161.672119 259.362031 
L 161.747855 257.641076 
L 162.099909 257.641076 
L 162.208484 255.920121 
L 162.251725 255.920121 
L 162.251725 255.346469 
L 162.483394 255.346469 
L 162.559939 254.199166 
L 162.631923 254.199166 
L 162.631923 253.625514 
L 162.854457 253.625514 
L 162.883637 252.478211 
L 163.13998 252.478211 
L 163.234125 251.330907 
L 163.323704 251.330907 
L 163.36427 248.462649 
L 163.441086 248.462649 
L 163.441086 247.888997 
L 163.553675 247.888997 
L 163.553675 247.315345 
L 163.681466 247.315345 
L 163.681466 246.741694 
L 163.989086 246.741694 
L 164.098204 245.020738 
L 164.129256 245.020738 
L 164.148635 243.873435 
L 164.310575 243.873435 
L 164.333587 242.726132 
L 164.459613 242.726132 
L 164.546914 241.578828 
L 164.622474 241.578828 
L 164.716466 239.284221 
L 164.928893 239.284221 
L 165.00282 236.415963 
L 165.193576 236.415963 
L 165.302685 233.547704 
L 165.389484 233.547704 
L 165.454301 232.400401 
L 165.608172 232.400401 
L 165.7041 230.679446 
L 165.788929 230.679446 
L 165.859305 229.532142 
L 165.985272 229.532142 
L 166.051389 227.811187 
L 166.10341 227.811187 
L 166.10341 227.237535 
L 166.244815 227.237535 
L 166.347561 225.51658 
L 166.391896 225.51658 
L 166.493781 222.648321 
L 166.558002 222.648321 
L 166.635428 219.780063 
L 166.752594 219.780063 
L 166.785926 218.632759 
L 166.964826 218.632759 
L 167.053592 217.485456 
L 167.135383 217.485456 
L 167.229781 215.764501 
L 167.291353 215.764501 
L 167.365597 212.322591 
L 167.404208 212.322591 
L 167.490771 209.454332 
L 167.583271 209.454332 
L 167.646779 208.307029 
L 167.867253 208.307029 
L 167.964008 206.586073 
L 167.982673 206.586073 
L 168.032349 204.865118 
L 168.115857 204.865118 
L 168.217383 203.717815 
L 168.318321 203.717815 
L 168.400474 200.849556 
L 168.476198 200.849556 
L 168.584667 199.128601 
L 168.60868 199.128601 
L 168.68052 195.686691 
L 168.790698 195.686691 
L 168.790698 195.113039 
L 168.911979 195.113039 
L 168.932602 193.965736 
L 169.049979 193.965736 
L 169.049979 193.392084 
L 169.169476 193.392084 
L 169.221681 190.523825 
L 169.291045 190.523825 
L 169.342888 188.80287 
L 169.468969 188.80287 
L 169.560096 185.934612 
L 169.594146 185.934612 
L 169.67616 184.213656 
L 169.726872 184.213656 
L 169.822261 181.91905 
L 169.86976 181.91905 
L 169.86976 181.345398 
L 169.994873 181.345398 
L 170.050192 179.624443 
L 170.110841 179.624443 
L 170.195944 177.329836 
L 170.239707 177.329836 
L 170.348634 176.182532 
L 170.386599 176.182532 
L 170.475761 174.461577 
L 170.567151 174.461577 
L 170.583229 172.16697 
L 170.745853 172.16697 
L 170.84376 171.019667 
L 170.88856 171.019667 
L 170.996138 168.151408 
L 171.006598 168.151408 
L 171.108254 165.28315 
L 171.121244 165.28315 
L 171.198983 163.562195 
L 171.286669 163.562195 
L 171.396939 161.267588 
L 171.503976 161.267588 
L 171.503976 160.693936 
L 171.650717 160.693936 
L 171.718608 159.546632 
L 171.831177 159.546632 
L 171.893402 155.53107 
L 172.03938 155.53107 
L 172.142557 151.515508 
L 172.159694 151.515508 
L 172.218321 149.794553 
L 172.32772 149.794553 
L 172.42198 146.926295 
L 172.482136 146.926295 
L 172.585122 144.058036 
L 172.60183 144.058036 
L 172.644719 140.616126 
L 172.834072 140.616126 
L 172.892826 138.895171 
L 172.949044 138.895171 
L 173.058616 136.600564 
L 173.091121 136.600564 
L 173.185969 133.732305 
L 173.215936 133.732305 
L 173.310109 132.01135 
L 173.383259 132.01135 
L 173.481073 129.143091 
L 173.515065 129.143091 
L 173.560286 127.422136 
L 173.661605 127.422136 
L 173.748942 124.553878 
L 173.777957 124.553878 
L 173.80915 122.832923 
L 173.902397 122.832923 
L 173.964285 119.391012 
L 174.021557 119.391012 
L 174.083025 117.670057 
L 174.235754 117.670057 
L 174.337554 114.228147 
L 174.39792 114.228147 
L 174.466655 112.507192 
L 174.558593 112.507192 
L 174.65217 109.065281 
L 174.690307 109.065281 
L 174.793704 107.344326 
L 174.810527 107.344326 
L 174.8944 103.328764 
L 174.950788 103.328764 
L 175.042289 101.607809 
L 175.14775 101.607809 
L 175.254626 99.313202 
L 175.285335 99.313202 
L 175.348628 97.592247 
L 175.403568 97.592247 
L 175.49273 95.29764 
L 175.535124 95.29764 
L 175.641664 93.003033 
L 175.69569 93.003033 
L 175.773432 90.134775 
L 175.821103 90.134775 
L 175.876553 86.692864 
L 175.984964 86.692864 
L 176.057518 84.398257 
L 176.121974 84.398257 
L 176.201725 82.677302 
L 176.254046 82.677302 
L 176.358219 78.66174 
L 176.434985 78.66174 
L 176.524755 75.793482 
L 176.551406 75.793482 
L 176.646257 74.072526 
L 176.691603 74.072526 
L 176.759402 70.630616 
L 176.817574 70.630616 
L 176.830682 68.909661 
L 176.933338 68.909661 
L 177.042792 63.746796 
L 177.050188 63.746796 
L 177.050188 63.173144 
L 177.208443 63.173144 
L 177.290683 59.157582 
L 177.359828 59.157582 
L 177.401547 55.715672 
L 177.499105 55.715672 
L 177.562046 54.568368 
L 177.726417 54.568368 
L 177.804485 49.979154 
L 177.949049 49.979154 
L 177.971858 48.258199 
L 178.078489 48.258199 
L 178.144586 45.389941 
L 178.208705 45.389941 
L 178.300141 41.94803 
L 178.415048 41.94803 
L 178.486696 39.653423 
L 178.5326 39.653423 
L 178.598693 37.932468 
L 178.654423 37.932468 
L 178.755297 32.769603 
L 178.780424 32.769603 
L 178.878909 28.754041 
L 178.923793 28.754041 
L 178.993385 25.885782 
L 179.070933 25.885782 
L 179.146499 21.87022 
L 179.211944 21.87022 
L 179.272262 19.575613 
L 179.337237 19.575613 
L 179.39066 18.42831 
L 179.463246 18.42831 
L 179.490589 15.560051 
L 179.588351 15.560051 
L 179.6808 11.544489 
L 179.718912 11.544489 
L 179.783827 10.397186 
L 179.86424 10.397186 
L 179.86424 9.823534 
L 180.016166 9.823534 
L 180.114135 8.102579 
L 180.199217 8.102579 
L 180.206931 6.955275 
L 180.62453 6.955275 
L 180.62453 6.381624 
L 338.688 6.381624 
L 338.688 6.381624 
" style="fill:none;stroke:#ff00ff;stroke-linecap:square;stroke-width:1.5;"/>
   </g>
   <g id="line2d_35">
    <defs>
     <path d="M -0 8.485281 
L 5.091169 0 
L 0 -8.485281 
L -5.091169 -0 
z
" id="mcb77a1f9a7" style="stroke:#ff00ff;stroke-linejoin:miter;stroke-width:1.5;"/>
    </defs>
    <g>
     <use style="fill-opacity:0;stroke:#ff00ff;stroke-linejoin:miter;stroke-width:1.5;" x="170.348634" xlink:href="#mcb77a1f9a7" y="176.182532"/>
     <use style="fill-opacity:0;stroke:#ff00ff;stroke-linejoin:miter;stroke-width:1.5;" x="180.62453" xlink:href="#mcb77a1f9a7" y="6.955275"/>
     <use style="fill-opacity:0;stroke:#ff00ff;stroke-linejoin:miter;stroke-width:1.5;" x="180.62453" xlink:href="#mcb77a1f9a7" y="6.381624"/>
     <use style="fill-opacity:0;stroke:#ff00ff;stroke-linejoin:miter;stroke-width:1.5;" x="180.62453" xlink:href="#mcb77a1f9a7" y="6.381624"/>
     <use style="fill-opacity:0;stroke:#ff00ff;stroke-linejoin:miter;stroke-width:1.5;" x="338.688" xlink:href="#mcb77a1f9a7" y="6.381624"/>
    </g>
   </g>
   <g id="line2d_36">
    <path style="fill:none;stroke:#ff00ff;stroke-linecap:square;stroke-width:1.5;"/>
    <g/>
   </g>
   <g id="line2d_37">
    <defs>
     <path d="M 0 1.5 
C 0.397805 1.5 0.77937 1.341951 1.06066 1.06066 
C 1.341951 0.77937 1.5 0.397805 1.5 0 
C 1.5 -0.397805 1.341951 -0.77937 1.06066 -1.06066 
C 0.77937 -1.341951 0.397805 -1.5 0 -1.5 
C -0.397805 -1.5 -0.77937 -1.341951 -1.06066 -1.06066 
C -1.341951 -0.77937 -1.5 -0.397805 -1.5 0 
C -1.5 0.397805 -1.341951 0.77937 -1.06066 1.06066 
C -0.77937 1.341951 -0.397805 1.5 0 1.5 
z
" id="me3e08239dd" style="stroke:#ff7500;"/>
    </defs>
    <g>
     <use style="fill:#ff7500;stroke:#ff7500;" x="201.067392" xlink:href="#me3e08239dd" y="6.381624"/>
     <use style="fill:#ff7500;stroke:#ff7500;" x="201.067392" xlink:href="#me3e08239dd" y="6.381624"/>
    </g>
   </g>
   <g id="line2d_38">
    <path d="M 162.238764 298.944 
L 162.238764 298.370348 
L 162.462072 298.370348 
L 162.462072 297.796697 
L 162.665696 297.796697 
L 162.733045 296.649393 
L 163.283043 296.649393 
L 163.283043 296.075741 
L 163.404741 296.075741 
L 163.469301 294.928438 
L 163.545657 294.928438 
L 163.545657 294.354786 
L 163.697374 294.354786 
L 163.709295 293.207483 
L 163.847782 293.207483 
L 163.847782 292.633831 
L 164.171861 292.633831 
L 164.218222 291.486528 
L 164.429145 291.486528 
L 164.52039 289.191921 
L 164.573397 289.191921 
L 164.630012 286.897314 
L 164.6902 286.897314 
L 164.712717 285.75001 
L 164.8881 285.75001 
L 164.8881 285.176359 
L 165.10946 285.176359 
L 165.10946 284.029055 
L 165.295432 284.029055 
L 165.331666 282.3081 
L 165.447111 282.3081 
L 165.483031 281.160797 
L 165.618857 281.160797 
L 165.693467 279.439842 
L 165.77129 279.439842 
L 165.866327 277.718886 
L 165.939889 277.718886 
L 166.013141 275.997931 
L 166.120716 275.997931 
L 166.120716 274.850628 
L 166.234507 274.850628 
L 166.333896 273.703324 
L 166.368037 273.703324 
L 166.405516 269.114111 
L 166.497167 269.114111 
L 166.497167 268.540459 
L 166.74592 268.540459 
L 166.772601 265.6722 
L 166.921925 265.6722 
L 167.030622 263.377593 
L 167.04047 263.377593 
L 167.04047 262.803942 
L 167.226535 262.803942 
L 167.258974 261.082987 
L 167.38813 261.082987 
L 167.426692 259.935683 
L 167.589632 259.935683 
L 167.694258 257.641076 
L 167.722684 257.641076 
L 167.722684 257.067425 
L 167.848464 257.067425 
L 167.957782 255.346469 
L 167.998212 255.346469 
L 168.081883 253.051863 
L 168.125111 253.051863 
L 168.174383 251.330907 
L 168.296958 251.330907 
L 168.296958 250.757256 
L 168.427772 250.757256 
L 168.521475 247.315345 
L 168.599679 247.315345 
L 168.599679 246.741694 
L 168.719311 246.741694 
L 168.719311 246.168042 
L 168.847006 246.168042 
L 168.929657 244.447087 
L 168.982583 244.447087 
L 169.070439 241.578828 
L 169.163666 241.578828 
L 169.262177 239.284221 
L 169.337135 239.284221 
L 169.360135 238.136918 
L 169.471824 238.136918 
L 169.51744 235.842311 
L 169.726872 235.842311 
L 169.743743 233.547704 
L 169.897641 233.547704 
L 169.942157 231.826749 
L 170.130094 231.826749 
L 170.234242 230.105794 
L 170.25336 230.105794 
L 170.332339 228.384839 
L 170.427184 228.384839 
L 170.510761 226.090232 
L 170.615341 226.090232 
L 170.724611 224.369277 
L 170.735235 224.369277 
L 170.735235 223.795625 
L 170.883296 223.795625 
L 170.97258 222.648321 
L 171.045766 222.648321 
L 171.045766 222.07467 
L 171.425036 222.07467 
L 171.476006 220.927366 
L 171.590146 220.927366 
L 171.701032 219.780063 
L 171.841148 219.780063 
L 171.861073 218.632759 
L 171.95293 218.632759 
L 172.054157 217.485456 
L 172.098413 217.485456 
L 172.11314 216.338153 
L 172.580345 216.338153 
L 172.580345 215.764501 
L 172.723077 215.764501 
L 172.723077 215.190849 
L 172.852895 215.190849 
L 172.951383 213.469894 
L 173.401498 213.469894 
L 173.449287 212.322591 
L 173.607642 212.322591 
L 173.607642 211.748939 
L 173.789104 211.748939 
L 173.789104 211.175287 
L 174.041339 211.175287 
L 174.041339 210.601635 
L 174.187897 210.601635 
L 174.224889 208.88068 
L 174.596935 208.88068 
L 174.654291 207.733377 
L 174.785287 207.733377 
L 174.785287 207.159725 
L 174.940359 207.159725 
L 174.940359 206.586073 
L 175.096133 206.586073 
L 175.096133 206.012422 
L 175.356778 206.012422 
L 175.46036 204.291467 
L 175.468458 204.291467 
L 175.52504 203.144163 
L 175.74158 203.144163 
L 175.74158 201.99686 
L 175.975136 201.99686 
L 176.07512 200.849556 
L 176.346675 200.849556 
L 176.444557 199.128601 
L 176.712348 199.128601 
L 176.810078 196.833994 
L 176.901672 196.833994 
L 176.93892 195.686691 
L 177.390674 195.686691 
L 177.390674 195.113039 
L 177.538694 195.113039 
L 177.633702 192.24478 
L 177.683687 192.24478 
L 177.717524 191.097477 
L 177.956071 191.097477 
L 178.020885 189.376522 
L 178.149794 189.376522 
L 178.149794 188.80287 
L 178.408209 188.80287 
L 178.408209 188.229218 
L 178.59531 188.229218 
L 178.607149 187.081915 
L 178.758649 187.081915 
L 178.758649 186.508263 
L 178.910506 186.508263 
L 178.97353 184.787308 
L 179.270634 184.787308 
L 179.322639 182.492701 
L 179.440696 182.492701 
L 179.461636 181.345398 
L 179.588351 181.345398 
L 179.588351 180.771746 
L 179.760106 180.771746 
L 179.760106 179.624443 
L 179.925483 179.624443 
L 179.925483 179.050791 
L 180.08154 179.050791 
L 180.093965 177.903487 
L 180.276205 177.903487 
L 180.276205 177.329836 
L 180.445913 177.329836 
L 180.546043 175.608881 
L 180.705664 175.608881 
L 180.705664 175.035229 
L 180.822195 175.035229 
L 180.822195 174.461577 
L 180.999967 174.461577 
L 181.019118 173.314274 
L 181.121875 173.314274 
L 181.228395 171.019667 
L 181.305325 171.019667 
L 181.305325 170.446015 
L 181.569801 170.446015 
L 181.579784 169.298712 
L 181.69347 169.298712 
L 181.76697 167.577757 
L 182.013465 167.577757 
L 182.048198 165.28315 
L 182.168531 165.28315 
L 182.168531 164.709498 
L 182.36726 164.709498 
L 182.36726 164.135846 
L 182.589333 164.135846 
L 182.644413 162.988543 
L 182.759383 162.988543 
L 182.821896 160.693936 
L 183.040913 160.693936 
L 183.10112 159.546632 
L 183.159819 159.546632 
L 183.217022 158.399329 
L 183.338605 158.399329 
L 183.404217 157.252026 
L 183.468304 157.252026 
L 183.547446 154.383767 
L 183.604663 154.383767 
L 183.699611 153.236464 
L 183.717277 153.236464 
L 183.822902 152.08916 
L 183.866724 152.08916 
L 183.892964 150.941857 
L 184.019859 150.941857 
L 184.110113 148.64725 
L 184.139683 148.64725 
L 184.188857 147.499946 
L 184.323372 147.499946 
L 184.395097 145.778991 
L 184.438716 145.778991 
L 184.443556 144.631688 
L 184.560514 144.631688 
L 184.612111 142.910733 
L 184.689818 142.910733 
L 184.708893 141.763429 
L 184.832374 141.763429 
L 184.900861 140.616126 
L 185.030015 140.616126 
L 185.130329 137.747867 
L 185.15009 137.747867 
L 185.198816 136.026912 
L 185.301621 136.026912 
L 185.411837 133.158653 
L 185.446137 133.158653 
L 185.492905 132.01135 
L 185.620025 132.01135 
L 185.63246 130.864047 
L 185.789957 130.864047 
L 185.893799 129.716743 
L 185.93272 129.716743 
L 185.934942 128.56944 
L 186.053377 128.56944 
L 186.11834 127.422136 
L 186.187442 127.422136 
L 186.295479 124.553878 
L 186.381213 124.553878 
L 186.438496 123.406574 
L 186.633782 123.406574 
L 186.742279 119.964664 
L 187.037734 119.964664 
L 187.037734 118.817361 
L 187.218206 118.817361 
L 187.223364 117.670057 
L 187.339541 117.670057 
L 187.361046 115.949102 
L 187.620088 115.949102 
L 187.700569 114.228147 
L 187.826579 114.228147 
L 187.934858 112.507192 
L 188.185575 112.507192 
L 188.289714 110.212585 
L 188.365238 110.212585 
L 188.432739 108.49163 
L 188.539243 108.49163 
L 188.624171 106.197023 
L 188.651755 106.197023 
L 188.651755 105.623371 
L 188.809757 105.623371 
L 188.809757 105.049719 
L 189.006432 105.049719 
L 189.079849 103.902416 
L 189.119681 103.902416 
L 189.188937 102.755112 
L 189.362254 102.755112 
L 189.450541 101.034157 
L 189.574478 101.034157 
L 189.656316 99.886854 
L 189.752056 99.886854 
L 189.790383 98.73955 
L 189.892474 98.73955 
L 189.979884 96.444944 
L 190.072116 96.444944 
L 190.133334 94.723988 
L 190.220418 94.723988 
L 190.232575 93.576685 
L 190.345921 93.576685 
L 190.345921 93.003033 
L 190.468815 93.003033 
L 190.577238 91.282078 
L 190.59255 91.282078 
L 190.675683 89.561123 
L 190.800485 89.561123 
L 190.864227 88.413819 
L 190.961903 88.413819 
L 191.054067 87.266516 
L 191.116065 87.266516 
L 191.22383 84.971909 
L 191.269695 84.971909 
L 191.334192 83.824606 
L 191.525461 83.824606 
L 191.622719 82.677302 
L 191.695507 82.677302 
L 191.742538 80.382695 
L 191.904183 80.382695 
L 191.940426 78.66174 
L 192.0401 78.66174 
L 192.146987 76.367133 
L 192.153208 76.367133 
L 192.153208 75.793482 
L 192.308796 75.793482 
L 192.371873 74.646178 
L 192.466063 74.646178 
L 192.466063 74.072526 
L 192.582521 74.072526 
L 192.68539 72.351571 
L 192.712519 72.351571 
L 192.724562 70.630616 
L 192.838565 70.630616 
L 192.857991 69.483313 
L 193.020024 69.483313 
L 193.129912 67.762358 
L 193.135057 67.762358 
L 193.135057 67.188706 
L 193.268311 67.188706 
L 193.341096 64.894099 
L 193.503041 64.894099 
L 193.546882 63.173144 
L 193.628522 63.173144 
L 193.702668 60.878537 
L 193.778625 60.878537 
L 193.861304 59.731234 
L 193.911287 59.731234 
L 193.911287 59.157582 
L 194.080581 59.157582 
L 194.191615 56.862975 
L 194.22824 56.862975 
L 194.257898 55.715672 
L 194.342457 55.715672 
L 194.45116 53.421065 
L 194.487244 53.421065 
L 194.593699 51.126458 
L 194.625442 51.126458 
L 194.625442 50.552806 
L 194.809354 50.552806 
L 194.882646 47.684547 
L 194.946358 47.684547 
L 194.947021 46.537244 
L 195.098062 46.537244 
L 195.200211 44.816289 
L 195.245854 44.816289 
L 195.336134 41.94803 
L 195.371081 41.94803 
L 195.435614 39.653423 
L 195.490921 39.653423 
L 195.601651 37.358817 
L 195.618232 37.358817 
L 195.691382 36.211513 
L 195.747784 36.211513 
L 195.747784 35.637861 
L 195.880149 35.637861 
L 195.962839 32.769603 
L 196.037672 32.769603 
L 196.112186 31.048648 
L 196.161067 31.048648 
L 196.2209 28.754041 
L 196.343621 28.754041 
L 196.377829 27.606737 
L 196.570215 27.606737 
L 196.628662 24.738479 
L 196.717464 24.738479 
L 196.767665 23.591175 
L 196.869414 23.591175 
L 196.975292 21.87022 
L 197.06763 21.87022 
L 197.122098 20.722917 
L 197.36829 20.722917 
L 197.46087 19.001962 
L 197.526699 19.001962 
L 197.588296 17.854658 
L 197.652512 17.854658 
L 197.744164 16.707355 
L 197.841511 16.707355 
L 197.841511 16.133703 
L 198.042356 16.133703 
L 198.131987 14.9864 
L 198.202482 14.9864 
L 198.310425 13.839096 
L 198.540506 13.839096 
L 198.616888 12.691793 
L 198.767592 12.691793 
L 198.767592 12.118141 
L 199.178813 12.118141 
L 199.178813 11.544489 
L 199.318572 11.544489 
L 199.372622 9.823534 
L 199.793576 9.823534 
L 199.793576 9.249882 
L 200.047587 9.249882 
L 200.047587 8.676231 
L 200.387403 8.676231 
L 200.387403 8.102579 
L 200.686438 8.102579 
L 200.686438 7.528927 
L 200.880784 7.528927 
L 200.880784 6.955275 
L 201.067392 6.955275 
L 201.067392 6.381624 
L 338.688 6.381624 
L 338.688 6.381624 
" style="fill:none;stroke:#ff7500;stroke-linecap:square;stroke-width:1.5;"/>
   </g>
   <g id="line2d_39">
    <defs>
     <path d="M 0 -6 
L -1.347084 -1.854102 
L -5.706339 -1.854102 
L -2.179628 0.708204 
L -3.526712 4.854102 
L -0 2.291796 
L 3.526712 4.854102 
L 2.179628 0.708204 
L 5.706339 -1.854102 
L 1.347084 -1.854102 
z
" id="m15064476a9" style="stroke:#ff7500;stroke-linejoin:bevel;stroke-width:1.5;"/>
    </defs>
    <g>
     <use style="fill-opacity:0;stroke:#ff7500;stroke-linejoin:bevel;stroke-width:1.5;" x="189.656316" xlink:href="#m15064476a9" y="99.886854"/>
     <use style="fill-opacity:0;stroke:#ff7500;stroke-linejoin:bevel;stroke-width:1.5;" x="201.067392" xlink:href="#m15064476a9" y="6.955275"/>
     <use style="fill-opacity:0;stroke:#ff7500;stroke-linejoin:bevel;stroke-width:1.5;" x="201.067392" xlink:href="#m15064476a9" y="6.381624"/>
     <use style="fill-opacity:0;stroke:#ff7500;stroke-linejoin:bevel;stroke-width:1.5;" x="338.688" xlink:href="#m15064476a9" y="6.381624"/>
    </g>
   </g>
   <g id="line2d_40">
    <path style="fill:none;stroke:#ff7500;stroke-linecap:square;stroke-width:1.5;"/>
    <g/>
   </g>
   <g id="line2d_41">
    <defs>
     <path d="M 0 1.5 
C 0.397805 1.5 0.77937 1.341951 1.06066 1.06066 
C 1.341951 0.77937 1.5 0.397805 1.5 0 
C 1.5 -0.397805 1.341951 -0.77937 1.06066 -1.06066 
C 0.77937 -1.341951 0.397805 -1.5 0 -1.5 
C -0.397805 -1.5 -0.77937 -1.341951 -1.06066 -1.06066 
C -1.341951 -0.77937 -1.5 -0.397805 -1.5 0 
C -1.5 0.397805 -1.341951 0.77937 -1.06066 1.06066 
C -0.77937 1.341951 -0.397805 1.5 0 1.5 
z
" id="m8de7b06e75" style="stroke:#6495ed;"/>
    </defs>
    <g>
     <use style="fill:#6495ed;stroke:#6495ed;" x="188.658406" xlink:href="#m8de7b06e75" y="6.381624"/>
     <use style="fill:#6495ed;stroke:#6495ed;" x="188.658406" xlink:href="#m8de7b06e75" y="6.381624"/>
    </g>
   </g>
   <g id="line2d_42">
    <path d="M 144.233601 298.944 
L 144.233601 298.370348 
L 144.582038 298.370348 
L 144.582038 297.796697 
L 145.201387 297.796697 
L 145.201387 297.223045 
L 146.60169 297.223045 
L 146.60169 296.649393 
L 147.429332 296.649393 
L 147.429332 296.075741 
L 147.96658 296.075741 
L 147.96658 295.50209 
L 148.468742 295.50209 
L 148.468742 294.928438 
L 148.601505 294.928438 
L 148.601505 294.354786 
L 149.15016 294.354786 
L 149.15016 293.781135 
L 149.305096 293.781135 
L 149.305096 293.207483 
L 149.512548 293.207483 
L 149.557321 292.060179 
L 150.155097 292.060179 
L 150.181003 290.912876 
L 150.284246 290.912876 
L 150.284246 290.339224 
L 150.539708 290.339224 
L 150.539708 289.765573 
L 150.841405 289.765573 
L 150.899466 288.618269 
L 151.006785 288.618269 
L 151.031458 287.470966 
L 151.203194 287.470966 
L 151.203194 286.897314 
L 151.645126 286.897314 
L 151.645126 286.323662 
L 151.826663 286.323662 
L 151.826663 285.75001 
L 152.191856 285.75001 
L 152.291531 284.029055 
L 152.458925 284.029055 
L 152.458925 283.455404 
L 152.60972 283.455404 
L 152.60972 282.881752 
L 153.395042 282.881752 
L 153.395042 282.3081 
L 153.84141 282.3081 
L 153.84141 281.734448 
L 154.084543 281.734448 
L 154.084543 281.160797 
L 154.580996 281.160797 
L 154.68128 278.86619 
L 154.847148 278.86619 
L 154.873541 277.718886 
L 155.271165 277.718886 
L 155.271165 277.145235 
L 155.760475 277.145235 
L 155.760475 276.571583 
L 155.910223 276.571583 
L 155.996986 274.850628 
L 156.034038 274.850628 
L 156.034038 274.276976 
L 156.806295 274.276976 
L 156.806295 273.129673 
L 157.098907 273.129673 
L 157.197287 271.982369 
L 157.2549 271.982369 
L 157.335239 270.835066 
L 157.826359 270.835066 
L 157.826359 270.261414 
L 158.320268 270.261414 
L 158.428151 268.540459 
L 158.578075 268.540459 
L 158.578075 267.966807 
L 158.816356 267.966807 
L 158.9003 266.819504 
L 158.999461 266.819504 
L 159.051426 265.6722 
L 159.512268 265.6722 
L 159.512268 265.098549 
L 159.768105 265.098549 
L 159.832723 262.803942 
L 159.887213 262.803942 
L 159.887213 261.656638 
L 160.523381 261.656638 
L 160.523381 261.082987 
L 160.637457 261.082987 
L 160.680044 259.935683 
L 161.007772 259.935683 
L 161.007772 259.362031 
L 161.26102 259.362031 
L 161.279295 258.214728 
L 161.703344 258.214728 
L 161.730064 255.920121 
L 161.915967 255.920121 
L 161.915967 255.346469 
L 162.03881 255.346469 
L 162.130378 254.199166 
L 162.225793 254.199166 
L 162.281931 252.478211 
L 162.393666 252.478211 
L 162.402232 251.330907 
L 162.68677 251.330907 
L 162.68677 250.757256 
L 163.400698 250.757256 
L 163.49345 249.609952 
L 163.541647 249.609952 
L 163.605703 248.462649 
L 163.653591 248.462649 
L 163.653591 247.888997 
L 164.01643 247.888997 
L 164.070989 246.168042 
L 164.218222 246.168042 
L 164.302897 244.447087 
L 164.406259 244.447087 
L 164.474827 243.299783 
L 164.554485 243.299783 
L 164.592289 242.15248 
L 164.712717 242.15248 
L 164.712717 241.578828 
L 164.917777 241.578828 
L 164.932597 240.431525 
L 165.09479 240.431525 
L 165.09479 239.857873 
L 165.288176 239.857873 
L 165.295432 238.71057 
L 165.665082 238.71057 
L 165.675732 237.563266 
L 166.002695 237.563266 
L 166.065276 235.842311 
L 166.350975 235.842311 
L 166.350975 235.268659 
L 166.769268 235.268659 
L 166.769268 234.695008 
L 167.007622 234.695008 
L 167.043752 233.547704 
L 167.154955 233.547704 
L 167.154955 232.974052 
L 167.275171 232.974052 
L 167.359153 231.253097 
L 167.410635 231.253097 
L 167.474773 230.105794 
L 167.605525 230.105794 
L 167.640438 228.95849 
L 167.870382 228.95849 
L 167.889148 227.811187 
L 168.032349 227.811187 
L 168.063324 226.090232 
L 168.174383 226.090232 
L 168.284739 223.795625 
L 168.293904 223.795625 
L 168.293904 223.221973 
L 168.569642 223.221973 
L 168.569642 222.648321 
L 168.879523 222.648321 
L 168.935546 220.353715 
L 169.291045 220.353715 
L 169.394577 218.059108 
L 169.568615 218.059108 
L 169.608314 216.911804 
L 169.788654 216.911804 
L 169.87534 215.190849 
L 170.033615 215.190849 
L 170.080543 214.043546 
L 170.337772 214.043546 
L 170.443391 212.322591 
L 170.529578 212.322591 
L 170.612667 210.027984 
L 170.671394 210.027984 
L 170.671394 209.454332 
L 170.825279 209.454332 
L 170.880663 207.733377 
L 171.03272 207.733377 
L 171.118647 206.586073 
L 171.335479 206.586073 
L 171.371357 204.291467 
L 171.600256 204.291467 
L 171.628028 201.99686 
L 171.880975 201.99686 
L 171.880975 201.423208 
L 171.994974 201.423208 
L 171.994974 200.849556 
L 172.32772 200.849556 
L 172.330143 199.702253 
L 172.455693 199.702253 
L 172.491742 197.981298 
L 172.623288 197.981298 
L 172.706485 194.539387 
L 173.028377 194.539387 
L 173.091121 193.392084 
L 173.151329 193.392084 
L 173.192889 192.24478 
L 173.287187 192.24478 
L 173.349008 191.097477 
L 173.433372 191.097477 
L 173.510537 188.80287 
L 173.757875 188.80287 
L 173.855836 187.081915 
L 173.87137 187.081915 
L 173.959872 184.787308 
L 174.161738 184.787308 
L 174.211842 183.640005 
L 174.302965 183.640005 
L 174.402224 182.492701 
L 174.498781 182.492701 
L 174.52444 181.345398 
L 174.624574 181.345398 
L 174.679722 178.477139 
L 174.743137 178.477139 
L 174.743137 177.903487 
L 174.856707 177.903487 
L 174.869281 176.182532 
L 174.996598 176.182532 
L 175.069232 175.035229 
L 175.131249 175.035229 
L 175.145688 173.887925 
L 175.289425 173.887925 
L 175.293514 172.740622 
L 175.415753 172.740622 
L 175.415753 172.16697 
L 175.649678 172.16697 
L 175.717652 169.298712 
L 175.892364 169.298712 
L 175.904213 168.151408 
L 176.094658 168.151408 
L 176.094658 167.577757 
L 176.230812 167.577757 
L 176.296562 165.856801 
L 176.425408 165.856801 
L 176.457949 164.709498 
L 176.583714 164.709498 
L 176.646257 162.988543 
L 176.759402 162.988543 
L 176.834426 159.546632 
L 176.925892 159.546632 
L 177.020586 157.825677 
L 177.149725 157.825677 
L 177.235899 154.957419 
L 177.299796 154.957419 
L 177.379793 153.810115 
L 177.417845 153.810115 
L 177.48108 152.662812 
L 177.588952 152.662812 
L 177.588952 151.515508 
L 177.737083 151.515508 
L 177.737083 150.941857 
L 177.978871 150.941857 
L 178.07326 148.64725 
L 178.113308 148.64725 
L 178.148058 147.499946 
L 178.241539 147.499946 
L 178.241539 146.926295 
L 178.355117 146.926295 
L 178.432134 145.20534 
L 178.495206 145.20534 
L 178.602076 141.763429 
L 178.667907 141.763429 
L 178.667907 141.189778 
L 179.031377 141.189778 
L 179.105471 140.042474 
L 179.198874 140.042474 
L 179.269007 137.174215 
L 179.325884 137.174215 
L 179.434248 134.879609 
L 179.482552 134.879609 
L 179.482552 134.305957 
L 179.625071 134.305957 
L 179.718912 132.01135 
L 179.769598 132.01135 
L 179.879964 129.716743 
L 179.905092 129.716743 
L 179.919211 128.56944 
L 180.037985 128.56944 
L 180.051996 127.422136 
L 180.185323 127.422136 
L 180.262372 124.553878 
L 180.309972 124.553878 
L 180.397157 122.259271 
L 180.511214 122.259271 
L 180.580802 119.391012 
L 180.665144 119.391012 
L 180.689168 118.243709 
L 180.807299 118.243709 
L 180.895005 116.522754 
L 180.964558 116.522754 
L 180.998494 114.801798 
L 181.089645 114.801798 
L 181.118947 113.654495 
L 181.263273 113.654495 
L 181.263273 113.080843 
L 181.410734 113.080843 
L 181.481132 111.93354 
L 181.535531 111.93354 
L 181.596884 109.065281 
L 181.690637 109.065281 
L 181.785296 107.344326 
L 181.812047 107.344326 
L 181.864023 106.197023 
L 181.971695 106.197023 
L 182.035702 104.476068 
L 182.135419 104.476068 
L 182.226328 102.755112 
L 182.345442 102.755112 
L 182.420327 101.607809 
L 182.463749 101.607809 
L 182.57318 99.886854 
L 182.601439 99.886854 
L 182.68059 97.592247 
L 182.784681 97.592247 
L 182.849756 96.444944 
L 182.950209 96.444944 
L 183.046156 94.723988 
L 183.067115 94.723988 
L 183.157214 91.85573 
L 183.196243 91.85573 
L 183.271451 89.561123 
L 183.310225 89.561123 
L 183.41577 87.266516 
L 183.465745 87.266516 
L 183.558904 84.971909 
L 183.577985 84.971909 
L 183.611009 82.677302 
L 183.716016 82.677302 
L 183.785252 80.382695 
L 183.840444 80.382695 
L 183.95155 79.235392 
L 183.955283 79.235392 
L 184.065663 77.514437 
L 184.080492 77.514437 
L 184.160599 74.072526 
L 184.193766 74.072526 
L 184.214617 72.925223 
L 184.357448 72.925223 
L 184.447185 70.630616 
L 184.507558 70.630616 
L 184.609714 68.909661 
L 184.626483 68.909661 
L 184.732708 66.041402 
L 184.802771 66.041402 
L 184.852476 64.894099 
L 184.940884 64.894099 
L 184.987852 62.599492 
L 185.061571 62.599492 
L 185.147766 60.304885 
L 185.219657 60.304885 
L 185.282031 58.58393 
L 185.351075 58.58393 
L 185.412981 56.289323 
L 185.478089 56.289323 
L 185.546363 52.847413 
L 185.63924 52.847413 
L 185.745103 50.552806 
L 185.77203 50.552806 
L 185.82464 48.831851 
L 185.909378 48.831851 
L 186.020252 45.963592 
L 186.052274 45.963592 
L 186.155667 44.242637 
L 186.16663 44.242637 
L 186.194008 43.095334 
L 186.317224 43.095334 
L 186.399608 40.800727 
L 186.49344 40.800727 
L 186.580349 36.785165 
L 186.629513 36.785165 
L 186.727427 34.490558 
L 186.778295 34.490558 
L 186.844835 32.195951 
L 186.927917 32.195951 
L 187.018957 28.754041 
L 187.091864 28.754041 
L 187.131314 26.459434 
L 187.235739 26.459434 
L 187.345688 24.738479 
L 187.351833 24.738479 
L 187.458002 23.591175 
L 187.540246 23.591175 
L 187.633192 21.87022 
L 187.675459 21.87022 
L 187.767688 17.854658 
L 187.817609 17.854658 
L 187.817609 17.281006 
L 187.946738 17.281006 
L 188.024744 13.839096 
L 188.070005 13.839096 
L 188.144528 10.397186 
L 188.231395 10.397186 
L 188.336229 8.676231 
L 188.396128 8.676231 
L 188.396128 8.102579 
L 188.573645 8.102579 
L 188.658406 6.381624 
L 338.688 6.381624 
L 338.688 6.381624 
" style="fill:none;stroke:#6495ed;stroke-linecap:square;stroke-width:1.5;"/>
   </g>
   <g id="line2d_43">
    <defs>
     <path d="M -0 6 
L 6 -6 
L -6 -6 
z
" id="m2625c81cbc" style="stroke:#6495ed;stroke-linejoin:miter;stroke-width:1.5;"/>
    </defs>
    <g>
     <use style="fill-opacity:0;stroke:#6495ed;stroke-linejoin:miter;stroke-width:1.5;" x="182.470524" xlink:href="#m2625c81cbc" y="101.034157"/>
     <use style="fill-opacity:0;stroke:#6495ed;stroke-linejoin:miter;stroke-width:1.5;" x="188.658406" xlink:href="#m2625c81cbc" y="6.955275"/>
     <use style="fill-opacity:0;stroke:#6495ed;stroke-linejoin:miter;stroke-width:1.5;" x="188.658406" xlink:href="#m2625c81cbc" y="6.381624"/>
     <use style="fill-opacity:0;stroke:#6495ed;stroke-linejoin:miter;stroke-width:1.5;" x="188.658406" xlink:href="#m2625c81cbc" y="6.381624"/>
     <use style="fill-opacity:0;stroke:#6495ed;stroke-linejoin:miter;stroke-width:1.5;" x="338.688" xlink:href="#m2625c81cbc" y="6.381624"/>
    </g>
   </g>
   <g id="line2d_44">
    <path style="fill:none;stroke:#6495ed;stroke-linecap:square;stroke-width:1.5;"/>
    <g/>
   </g>
   <g id="line2d_45">
    <defs>
     <path d="M 0 1.5 
C 0.397805 1.5 0.77937 1.341951 1.06066 1.06066 
C 1.341951 0.77937 1.5 0.397805 1.5 0 
C 1.5 -0.397805 1.341951 -0.77937 1.06066 -1.06066 
C 0.77937 -1.341951 0.397805 -1.5 0 -1.5 
C -0.397805 -1.5 -0.77937 -1.341951 -1.06066 -1.06066 
C -1.341951 -0.77937 -1.5 -0.397805 -1.5 0 
C -1.5 0.397805 -1.341951 0.77937 -1.06066 1.06066 
C -0.77937 1.341951 -0.397805 1.5 0 1.5 
z
" id="mc04f11e1c2" style="stroke:#ff0000;"/>
    </defs>
    <g>
     <use style="fill:#ff0000;stroke:#ff0000;" x="180.140478" xlink:href="#mc04f11e1c2" y="6.381624"/>
     <use style="fill:#ff0000;stroke:#ff0000;" x="180.140478" xlink:href="#mc04f11e1c2" y="6.381624"/>
    </g>
   </g>
   <g id="line2d_46">
    <path d="M 17.444571 298.944 
L 17.444571 288.044617 
L 29.53256 288.044617 
L 29.53256 285.176359 
L 36.60358 285.176359 
L 36.60358 283.455404 
L 41.620548 283.455404 
L 41.620548 282.881752 
L 45.512012 282.881752 
L 45.512012 281.734448 
L 48.691568 281.734448 
L 48.691568 280.013493 
L 55.762588 280.013493 
L 55.762588 278.86619 
L 57.6 278.86619 
L 57.6 278.292538 
L 60.779557 278.292538 
L 60.779557 277.718886 
L 63.467834 277.718886 
L 63.467834 277.145235 
L 66.853775 277.145235 
L 66.853775 276.571583 
L 68.79347 276.571583 
L 68.79347 275.997931 
L 81.334453 275.997931 
L 81.334453 274.276976 
L 82.206598 274.276976 
L 82.206598 273.703324 
L 84.213325 273.703324 
L 84.213325 273.129673 
L 87.952479 273.129673 
L 87.952479 272.556021 
L 93.197415 272.556021 
L 93.197415 271.982369 
L 98.43941 271.982369 
L 98.43941 271.408718 
L 98.606294 271.408718 
L 98.606294 270.835066 
L 99.886816 270.835066 
L 99.886816 269.687762 
L 100.192776 269.687762 
L 100.192776 269.114111 
L 101.223245 269.114111 
L 101.223245 268.540459 
L 101.785851 268.540459 
L 101.785851 267.966807 
L 102.728744 267.966807 
L 102.728744 267.393156 
L 103.245502 267.393156 
L 103.245502 266.245852 
L 109.040444 266.245852 
L 109.131511 265.098549 
L 112.356423 265.098549 
L 112.356423 264.524897 
L 115.077025 264.524897 
L 115.077025 263.951245 
L 115.205729 263.951245 
L 115.205729 263.377593 
L 118.786692 263.377593 
L 118.786692 262.803942 
L 122.148045 262.803942 
L 122.148045 262.23029 
L 122.823744 262.23029 
L 122.823744 261.656638 
L 123.152022 261.656638 
L 123.152022 261.082987 
L 123.593547 261.082987 
L 123.593547 260.509335 
L 125.541584 260.509335 
L 125.541584 259.935683 
L 125.752972 259.935683 
L 125.752972 259.362031 
L 126.47328 259.362031 
L 126.47328 258.78838 
L 127.002787 258.78838 
L 127.002787 258.214728 
L 128.138476 258.214728 
L 128.138476 257.641076 
L 129.233413 257.641076 
L 129.233413 257.067425 
L 129.51791 257.067425 
L 129.51791 255.920121 
L 130.398313 255.920121 
L 130.398313 255.346469 
L 131.740458 255.346469 
L 131.765283 253.625514 
L 132.060454 253.625514 
L 132.060454 253.051863 
L 132.326708 253.051863 
L 132.326708 252.478211 
L 133.19358 252.478211 
L 133.19358 251.904559 
L 133.77794 251.904559 
L 133.77794 251.330907 
L 134.04118 251.330907 
L 134.04118 250.757256 
L 134.386096 250.757256 
L 134.386096 250.183604 
L 134.891008 250.183604 
L 134.891008 249.609952 
L 135.240011 249.609952 
L 135.240011 249.036301 
L 136.418789 249.036301 
L 136.418789 248.462649 
L 136.813232 248.462649 
L 136.813232 247.888997 
L 137.325651 247.888997 
L 137.325651 247.315345 
L 137.664982 247.315345 
L 137.770782 246.168042 
L 138.032507 246.168042 
L 138.084384 244.447087 
L 138.409402 244.447087 
L 138.443265 242.726132 
L 139.604677 242.726132 
L 139.604677 242.15248 
L 140.149942 242.15248 
L 140.149942 241.578828 
L 141.104941 241.578828 
L 141.104941 241.005176 
L 141.278324 241.005176 
L 141.278324 240.431525 
L 141.830201 240.431525 
L 141.941279 239.284221 
L 142.553247 239.284221 
L 142.553247 238.136918 
L 142.805321 238.136918 
L 142.805321 236.989614 
L 143.451774 236.989614 
L 143.489809 235.268659 
L 144.062866 235.268659 
L 144.172816 234.121356 
L 144.342484 234.121356 
L 144.390658 232.400401 
L 144.510517 232.400401 
L 144.510517 231.826749 
L 144.923649 231.826749 
L 144.923649 231.253097 
L 145.632289 231.253097 
L 145.632289 230.679446 
L 145.987073 230.679446 
L 146.052799 229.532142 
L 146.237689 229.532142 
L 146.237689 228.95849 
L 146.420639 228.95849 
L 146.420639 228.384839 
L 146.738883 228.384839 
L 146.791364 227.237535 
L 147.419225 227.237535 
L 147.419225 226.663884 
L 147.540122 226.663884 
L 147.570215 224.942928 
L 147.86833 224.942928 
L 147.86833 224.369277 
L 148.103206 224.369277 
L 148.132344 223.221973 
L 148.219468 223.221973 
L 148.219468 222.648321 
L 148.354135 222.648321 
L 148.354135 222.07467 
L 148.639252 222.07467 
L 148.639252 221.501018 
L 149.131841 221.501018 
L 149.131841 220.927366 
L 149.277854 220.927366 
L 149.286939 219.780063 
L 149.699829 219.780063 
L 149.699829 219.206411 
L 149.823575 219.206411 
L 149.823575 218.632759 
L 150.007563 218.632759 
L 150.103169 216.911804 
L 150.691209 216.911804 
L 150.691209 216.338153 
L 150.874606 216.338153 
L 150.973835 214.617197 
L 151.178764 214.617197 
L 151.186911 213.469894 
L 151.469695 213.469894 
L 151.501723 212.322591 
L 151.873711 212.322591 
L 151.873711 211.748939 
L 151.998557 211.748939 
L 152.09934 210.601635 
L 152.222586 210.601635 
L 152.253262 208.88068 
L 152.496747 208.88068 
L 152.496747 208.307029 
L 152.892686 208.307029 
L 152.973748 206.586073 
L 153.039792 206.586073 
L 153.120174 204.291467 
L 153.48095 204.291467 
L 153.48095 203.717815 
L 153.911223 203.717815 
L 153.911223 203.144163 
L 154.139643 203.144163 
L 154.19457 201.423208 
L 154.432862 201.423208 
L 154.432862 200.849556 
L 154.580996 200.849556 
L 154.68128 199.702253 
L 154.952482 199.702253 
L 155.0376 198.554949 
L 155.25182 198.554949 
L 155.25182 197.407646 
L 155.373976 197.407646 
L 155.373976 196.833994 
L 155.565128 196.833994 
L 155.565128 196.260342 
L 155.959855 196.260342 
L 155.959855 195.686691 
L 156.333721 195.686691 
L 156.333721 195.113039 
L 156.598505 195.113039 
L 156.622378 193.965736 
L 156.747178 193.965736 
L 156.747178 193.392084 
L 156.859328 193.392084 
L 156.859328 192.818432 
L 157.226117 192.818432 
L 157.295115 191.671129 
L 157.403807 191.671129 
L 157.403807 191.097477 
L 157.630442 191.097477 
L 157.675417 188.80287 
L 157.781772 188.80287 
L 157.781772 187.655567 
L 157.920731 187.655567 
L 157.920731 187.081915 
L 158.053098 187.081915 
L 158.053098 186.508263 
L 158.320268 186.508263 
L 158.412011 185.36096 
L 158.438903 185.36096 
L 158.455018 183.640005 
L 158.578075 183.640005 
L 158.578075 183.066353 
L 158.853132 183.066353 
L 158.952561 181.345398 
L 159.051426 181.345398 
L 159.051426 180.771746 
L 159.360003 180.771746 
L 159.451521 179.624443 
L 160.030058 179.624443 
L 160.113253 178.477139 
L 160.394148 178.477139 
L 160.475629 176.756184 
L 160.518612 176.756184 
L 160.518612 175.608881 
L 160.736665 175.608881 
L 160.797798 173.314274 
L 160.900768 173.314274 
L 160.938061 172.16697 
L 161.141761 172.16697 
L 161.141761 171.593319 
L 161.676583 171.593319 
L 161.676583 171.019667 
L 161.902754 171.019667 
L 161.902754 170.446015 
L 162.043181 170.446015 
L 162.043181 169.872363 
L 162.225793 169.872363 
L 162.247406 167.577757 
L 162.462072 167.577757 
L 162.513202 166.430453 
L 162.593851 166.430453 
L 162.62347 164.135846 
L 162.712026 164.135846 
L 162.712026 163.562195 
L 162.854457 163.562195 
L 162.854457 162.988543 
L 163.078306 162.988543 
L 163.090659 161.267588 
L 163.35211 161.267588 
L 163.35211 160.693936 
L 163.621681 160.693936 
L 163.689421 158.972981 
L 163.83201 158.972981 
L 163.938192 157.252026 
L 163.953867 157.252026 
L 164.020333 154.957419 
L 164.333587 154.957419 
L 164.402441 153.810115 
L 164.467222 153.810115 
L 164.535552 152.662812 
L 164.607388 152.662812 
L 164.626244 150.941857 
L 164.720216 150.941857 
L 164.77262 149.794553 
L 165.164364 149.794553 
L 165.273656 146.926295 
L 165.349755 146.926295 
L 165.457894 144.058036 
L 165.640207 144.058036 
L 165.746566 140.616126 
L 165.795979 140.616126 
L 165.85228 138.895171 
L 165.932896 138.895171 
L 165.999212 137.174215 
L 166.068747 137.174215 
L 166.068747 136.600564 
L 166.244815 136.600564 
L 166.244815 136.026912 
L 166.705822 136.026912 
L 166.792585 134.879609 
L 166.859033 134.879609 
L 166.859033 134.305957 
L 167.086355 134.305957 
L 167.135383 133.158653 
L 167.255733 133.158653 
L 167.349484 131.437698 
L 167.375258 131.437698 
L 167.375258 130.864047 
L 167.545055 130.864047 
L 167.608702 129.143091 
L 167.93909 129.143091 
L 167.985782 127.422136 
L 168.066419 127.422136 
L 168.066419 126.848485 
L 168.260276 126.848485 
L 168.339657 125.127529 
L 168.455028 125.127529 
L 168.455028 124.553878 
L 168.566635 124.553878 
L 168.671556 122.832923 
L 168.891332 122.832923 
L 168.906082 121.111967 
L 169.055827 121.111967 
L 169.055827 119.964664 
L 169.181091 119.964664 
L 169.291045 118.243709 
L 169.302579 118.243709 
L 169.302579 117.670057 
L 169.454688 117.670057 
L 169.557255 115.37545 
L 169.636615 115.37545 
L 169.732498 114.228147 
L 169.802665 114.228147 
L 169.830653 113.080843 
L 170.052954 113.080843 
L 170.052954 111.93354 
L 170.176764 111.93354 
L 170.280634 110.212585 
L 170.408256 110.212585 
L 170.508071 109.065281 
L 170.537636 109.065281 
L 170.634045 106.770674 
L 170.745853 106.770674 
L 170.777667 105.049719 
L 170.927995 105.049719 
L 171.011825 102.755112 
L 171.095254 102.755112 
L 171.129034 101.034157 
L 171.214489 101.034157 
L 171.214489 100.460506 
L 171.486182 100.460506 
L 171.486182 99.313202 
L 171.628028 99.313202 
L 171.706056 98.165899 
L 171.763723 98.165899 
L 171.796233 97.018595 
L 171.935589 97.018595 
L 172.031987 95.871292 
L 172.068921 95.871292 
L 172.157246 94.723988 
L 172.22076 94.723988 
L 172.325296 93.003033 
L 172.339833 93.003033 
L 172.419569 91.282078 
L 172.472525 91.282078 
L 172.472525 90.708426 
L 172.599444 90.708426 
L 172.673253 86.692864 
L 172.760942 86.692864 
L 172.845839 83.250954 
L 172.939687 83.250954 
L 173.00275 81.529999 
L 173.08184 81.529999 
L 173.08184 80.956347 
L 173.220541 80.956347 
L 173.310109 78.66174 
L 173.369567 78.66174 
L 173.369567 78.088089 
L 173.521856 78.088089 
L 173.623398 76.367133 
L 173.661605 76.367133 
L 173.746708 74.072526 
L 173.804698 74.072526 
L 173.864714 71.77792 
L 173.970903 71.77792 
L 174.017159 70.056964 
L 174.255293 70.056964 
L 174.309456 68.336009 
L 174.369919 68.336009 
L 174.460223 66.615054 
L 174.481655 66.615054 
L 174.481655 66.041402 
L 174.68819 66.041402 
L 174.783181 64.320447 
L 174.804221 64.320447 
L 174.84832 62.02584 
L 174.97579 62.02584 
L 175.04851 60.304885 
L 175.266916 60.304885 
L 175.356778 58.010278 
L 175.379171 58.010278 
L 175.379171 57.436627 
L 175.502833 57.436627 
L 175.51293 56.289323 
L 175.641664 56.289323 
L 175.665696 55.14202 
L 175.769454 55.14202 
L 175.846869 52.847413 
L 175.884461 52.847413 
L 175.969237 51.700109 
L 176.02422 51.700109 
L 176.02422 51.126458 
L 176.1473 51.126458 
L 176.250176 48.258199 
L 176.263718 48.258199 
L 176.310068 46.537244 
L 176.398563 46.537244 
L 176.484702 44.242637 
L 176.52666 44.242637 
L 176.633009 42.521682 
L 176.651932 42.521682 
L 176.672724 40.227075 
L 176.916581 40.227075 
L 177.009472 38.50612 
L 177.147887 38.50612 
L 177.179109 37.358817 
L 177.274266 37.358817 
L 177.376165 33.916906 
L 177.401547 33.916906 
L 177.401547 33.343255 
L 177.569225 33.343255 
L 177.594328 32.195951 
L 177.690816 32.195951 
L 177.779683 30.474996 
L 177.843388 30.474996 
L 177.912141 28.754041 
L 177.982376 28.754041 
L 178.085458 26.459434 
L 178.094166 26.459434 
L 178.198323 25.31213 
L 178.255345 25.31213 
L 178.255345 24.164827 
L 178.45432 24.164827 
L 178.45432 23.591175 
L 178.618979 23.591175 
L 178.704933 20.149265 
L 178.788792 20.149265 
L 178.882238 17.854658 
L 178.918812 17.854658 
L 178.961937 14.412748 
L 179.128459 14.412748 
L 179.218475 12.691793 
L 179.252722 12.691793 
L 179.252722 12.118141 
L 179.565963 12.118141 
L 179.639418 9.249882 
L 179.67762 9.249882 
L 179.687158 8.102579 
L 179.805938 8.102579 
L 179.821715 6.955275 
L 180.140478 6.955275 
L 180.140478 6.381624 
L 338.688 6.381624 
L 338.688 6.381624 
" style="fill:none;stroke:#ff0000;stroke-linecap:square;stroke-width:1.5;"/>
   </g>
   <g id="line2d_47">
    <defs>
     <path d="M 0 -6 
L -5.196152 -3 
L -5.196152 3 
L -0 6 
L 5.196152 3 
L 5.196152 -3 
z
" id="mc079e446ba" style="stroke:#ff0000;stroke-linejoin:miter;stroke-width:1.5;"/>
    </defs>
    <g>
     <use style="fill-opacity:0;stroke:#ff0000;stroke-linejoin:miter;stroke-width:1.5;" x="101.785851" xlink:href="#mc079e446ba" y="267.966807"/>
     <use style="fill-opacity:0;stroke:#ff0000;stroke-linejoin:miter;stroke-width:1.5;" x="160.475629" xlink:href="#mc079e446ba" y="176.756184"/>
     <use style="fill-opacity:0;stroke:#ff0000;stroke-linejoin:miter;stroke-width:1.5;" x="180.140478" xlink:href="#mc079e446ba" y="6.955275"/>
     <use style="fill-opacity:0;stroke:#ff0000;stroke-linejoin:miter;stroke-width:1.5;" x="180.140478" xlink:href="#mc079e446ba" y="6.381624"/>
     <use style="fill-opacity:0;stroke:#ff0000;stroke-linejoin:miter;stroke-width:1.5;" x="180.140478" xlink:href="#mc079e446ba" y="6.381624"/>
     <use style="fill-opacity:0;stroke:#ff0000;stroke-linejoin:miter;stroke-width:1.5;" x="338.688" xlink:href="#mc079e446ba" y="6.381624"/>
    </g>
   </g>
   <g id="line2d_48">
    <path style="fill:none;stroke:#ff0000;stroke-linecap:square;stroke-width:1.5;"/>
    <g/>
   </g>
   <g id="line2d_49">
    <path d="M 338.688 6.381624 
L 369.60768 293.092752 
" style="fill:none;stroke:#ff7500;stroke-linecap:square;stroke-width:1.5;"/>
    <g>
     <use style="fill-opacity:0;stroke:#ff7500;stroke-linejoin:bevel;stroke-width:1.5;" x="338.688" xlink:href="#m15064476a9" y="6.381624"/>
     <use style="fill-opacity:0;stroke:#ff7500;stroke-linejoin:bevel;stroke-width:1.5;" x="369.60768" xlink:href="#m15064476a9" y="293.092752"/>
    </g>
   </g>
   <g id="line2d_50">
    <path d="M 338.688 6.381624 
L 369.60768 222.877782 
" style="fill:none;stroke:#6495ed;stroke-linecap:square;stroke-width:1.5;"/>
    <g>
     <use style="fill-opacity:0;stroke:#6495ed;stroke-linejoin:miter;stroke-width:1.5;" x="338.688" xlink:href="#m2625c81cbc" y="6.381624"/>
     <use style="fill-opacity:0;stroke:#6495ed;stroke-linejoin:miter;stroke-width:1.5;" x="369.60768" xlink:href="#m2625c81cbc" y="222.877782"/>
    </g>
   </g>
   <g id="line2d_51">
    <path d="M 338.688 6.381624 
L 369.60768 152.662812 
" style="fill:none;stroke:#000080;stroke-linecap:square;stroke-width:1.5;"/>
    <g>
     <use style="fill-opacity:0;stroke:#000080;stroke-width:1.5;" x="338.688" xlink:href="#mb1c1d78ad3" y="6.381624"/>
     <use style="fill-opacity:0;stroke:#000080;stroke-width:1.5;" x="369.60768" xlink:href="#mb1c1d78ad3" y="152.662812"/>
    </g>
   </g>
   <g id="line2d_52">
    <path d="M 338.688 6.381624 
L 369.60768 82.447842 
" style="fill:none;stroke:#ff00ff;stroke-linecap:square;stroke-width:1.5;"/>
    <g>
     <use style="fill-opacity:0;stroke:#ff00ff;stroke-linejoin:miter;stroke-width:1.5;" x="338.688" xlink:href="#mcb77a1f9a7" y="6.381624"/>
     <use style="fill-opacity:0;stroke:#ff00ff;stroke-linejoin:miter;stroke-width:1.5;" x="369.60768" xlink:href="#mcb77a1f9a7" y="82.447842"/>
    </g>
   </g>
   <g id="line2d_53">
    <path d="M 338.688 6.381624 
L 369.60768 12.232871 
" style="fill:none;stroke:#ff0000;stroke-linecap:square;stroke-width:1.5;"/>
    <g>
     <use style="fill-opacity:0;stroke:#ff0000;stroke-linejoin:miter;stroke-width:1.5;" x="338.688" xlink:href="#mc079e446ba" y="6.381624"/>
     <use style="fill-opacity:0;stroke:#ff0000;stroke-linejoin:miter;stroke-width:1.5;" x="369.60768" xlink:href="#mc079e446ba" y="12.232871"/>
    </g>
   </g>
   <g id="line2d_54">
    <path d="M 338.688 298.944 
L 338.688 6.381624 
" style="fill:none;stroke:#000000;stroke-linecap:square;stroke-width:1.5;"/>
   </g>
   <g id="patch_3">
    <path d="M 57.6 298.944 
L 57.6 3.456 
" style="fill:none;stroke:#000000;stroke-linecap:square;stroke-linejoin:miter;stroke-width:0.8;"/>
   </g>
   <g id="patch_4">
    <path d="M 338.688 298.944 
L 338.688 3.456 
" style="fill:none;stroke:#000000;stroke-linecap:square;stroke-linejoin:miter;stroke-width:0.8;"/>
   </g>
   <g id="patch_5">
    <path d="M 57.6 298.944 
L 338.688 298.944 
" style="fill:none;stroke:#000000;stroke-linecap:square;stroke-linejoin:miter;stroke-width:0.8;"/>
   </g>
   <g id="patch_6">
    <path d="M 57.6 3.456 
L 338.688 3.456 
" style="fill:none;stroke:#000000;stroke-linecap:square;stroke-linejoin:miter;stroke-width:0.8;"/>
   </g>
   <g id="text_13">
    <!-- f12 -->
    <g transform="translate(375.22944 297.78369)scale(0.17 -0.17)">
     <use xlink:href="#DejaVuSans-66"/>
     <use x="35.205078" xlink:href="#DejaVuSans-31"/>
     <use x="98.828125" xlink:href="#DejaVuSans-32"/>
    </g>
   </g>
   <g id="text_14">
    <!-- f13 -->
    <g transform="translate(375.22944 227.56872)scale(0.17 -0.17)">
     <defs>
      <path d="M 2597 2516 
Q 3050 2419 3304 2112 
Q 3559 1806 3559 1356 
Q 3559 666 3084 287 
Q 2609 -91 1734 -91 
Q 1441 -91 1130 -33 
Q 819 25 488 141 
L 488 750 
Q 750 597 1062 519 
Q 1375 441 1716 441 
Q 2309 441 2620 675 
Q 2931 909 2931 1356 
Q 2931 1769 2642 2001 
Q 2353 2234 1838 2234 
L 1294 2234 
L 1294 2753 
L 1863 2753 
Q 2328 2753 2575 2939 
Q 2822 3125 2822 3475 
Q 2822 3834 2567 4026 
Q 2313 4219 1838 4219 
Q 1578 4219 1281 4162 
Q 984 4106 628 3988 
L 628 4550 
Q 988 4650 1302 4700 
Q 1616 4750 1894 4750 
Q 2613 4750 3031 4423 
Q 3450 4097 3450 3541 
Q 3450 3153 3228 2886 
Q 3006 2619 2597 2516 
z
" id="DejaVuSans-33" transform="scale(0.015625)"/>
     </defs>
     <use xlink:href="#DejaVuSans-66"/>
     <use x="35.205078" xlink:href="#DejaVuSans-31"/>
     <use x="98.828125" xlink:href="#DejaVuSans-33"/>
    </g>
   </g>
   <g id="text_15">
    <!-- f10 -->
    <g transform="translate(375.22944 157.353749)scale(0.17 -0.17)">
     <use xlink:href="#DejaVuSans-66"/>
     <use x="35.205078" xlink:href="#DejaVuSans-31"/>
     <use x="98.828125" xlink:href="#DejaVuSans-30"/>
    </g>
   </g>
   <g id="text_16">
    <!-- f11 -->
    <g transform="translate(375.22944 87.138779)scale(0.17 -0.17)">
     <use xlink:href="#DejaVuSans-66"/>
     <use x="35.205078" xlink:href="#DejaVuSans-31"/>
     <use x="98.828125" xlink:href="#DejaVuSans-31"/>
    </g>
   </g>
   <g id="text_17">
    <!-- f14 -->
    <g transform="translate(375.22944 16.923809)scale(0.17 -0.17)">
     <use xlink:href="#DejaVuSans-66"/>
     <use x="35.205078" xlink:href="#DejaVuSans-31"/>
     <use x="98.828125" xlink:href="#DejaVuSans-34"/>
    </g>
   </g>
   <g id="text_18">
    <!-- bbob -->
    <g transform="translate(60.41088 14.161286)scale(0.102 -0.102)">
     <defs>
      <path d="M 3116 1747 
Q 3116 2381 2855 2742 
Q 2594 3103 2138 3103 
Q 1681 3103 1420 2742 
Q 1159 2381 1159 1747 
Q 1159 1113 1420 752 
Q 1681 391 2138 391 
Q 2594 391 2855 752 
Q 3116 1113 3116 1747 
z
M 1159 2969 
Q 1341 3281 1617 3432 
Q 1894 3584 2278 3584 
Q 2916 3584 3314 3078 
Q 3713 2572 3713 1747 
Q 3713 922 3314 415 
Q 2916 -91 2278 -91 
Q 1894 -91 1617 61 
Q 1341 213 1159 525 
L 1159 0 
L 581 0 
L 581 4863 
L 1159 4863 
L 1159 2969 
z
" id="DejaVuSans-62" transform="scale(0.015625)"/>
     </defs>
     <use xlink:href="#DejaVuSans-62"/>
     <use x="63.476562" xlink:href="#DejaVuSans-62"/>
     <use x="126.953125" xlink:href="#DejaVuSans-6f"/>
     <use x="188.134766" xlink:href="#DejaVuSans-62"/>
    </g>
    <!-- Ill-conditioned functions, 10-D -->
    <g transform="translate(60.41088 25.583055)scale(0.102 -0.102)">
     <defs>
      <path d="M 628 4666 
L 1259 4666 
L 1259 0 
L 628 0 
L 628 4666 
z
" id="DejaVuSans-49" transform="scale(0.015625)"/>
      <path d="M 1259 4147 
L 1259 519 
L 2022 519 
Q 2988 519 3436 956 
Q 3884 1394 3884 2338 
Q 3884 3275 3436 3711 
Q 2988 4147 2022 4147 
L 1259 4147 
z
M 628 4666 
L 1925 4666 
Q 3281 4666 3915 4102 
Q 4550 3538 4550 2338 
Q 4550 1131 3912 565 
Q 3275 0 1925 0 
L 628 0 
L 628 4666 
z
" id="DejaVuSans-44" transform="scale(0.015625)"/>
     </defs>
     <use xlink:href="#DejaVuSans-49"/>
     <use x="29.492188" xlink:href="#DejaVuSans-6c"/>
     <use x="57.275391" xlink:href="#DejaVuSans-6c"/>
     <use x="85.058594" xlink:href="#DejaVuSans-2d"/>
     <use x="121.142578" xlink:href="#DejaVuSans-63"/>
     <use x="176.123047" xlink:href="#DejaVuSans-6f"/>
     <use x="237.304688" xlink:href="#DejaVuSans-6e"/>
     <use x="300.683594" xlink:href="#DejaVuSans-64"/>
     <use x="364.160156" xlink:href="#DejaVuSans-69"/>
     <use x="391.943359" xlink:href="#DejaVuSans-74"/>
     <use x="431.152344" xlink:href="#DejaVuSans-69"/>
     <use x="458.935547" xlink:href="#DejaVuSans-6f"/>
     <use x="520.117188" xlink:href="#DejaVuSans-6e"/>
     <use x="583.496094" xlink:href="#DejaVuSans-65"/>
     <use x="645.019531" xlink:href="#DejaVuSans-64"/>
     <use x="708.496094" xlink:href="#DejaVuSans-20"/>
     <use x="740.283203" xlink:href="#DejaVuSans-66"/>
     <use x="775.488281" xlink:href="#DejaVuSans-75"/>
     <use x="838.867188" xlink:href="#DejaVuSans-6e"/>
     <use x="902.246094" xlink:href="#DejaVuSans-63"/>
     <use x="957.226562" xlink:href="#DejaVuSans-74"/>
     <use x="996.435547" xlink:href="#DejaVuSans-69"/>
     <use x="1024.21875" xlink:href="#DejaVuSans-6f"/>
     <use x="1085.400391" xlink:href="#DejaVuSans-6e"/>
     <use x="1148.779297" xlink:href="#DejaVuSans-73"/>
     <use x="1200.878906" xlink:href="#DejaVuSans-2c"/>
     <use x="1232.666016" xlink:href="#DejaVuSans-20"/>
     <use x="1264.453125" xlink:href="#DejaVuSans-31"/>
     <use x="1328.076172" xlink:href="#DejaVuSans-30"/>
     <use x="1391.699219" xlink:href="#DejaVuSans-2d"/>
     <use x="1427.783203" xlink:href="#DejaVuSans-44"/>
    </g>
    <!-- 51 targets: 100..1e-08 -->
    <g transform="translate(60.41088 37.004824)scale(0.102 -0.102)">
     <defs>
      <path d="M 691 4666 
L 3169 4666 
L 3169 4134 
L 1269 4134 
L 1269 2991 
Q 1406 3038 1543 3061 
Q 1681 3084 1819 3084 
Q 2600 3084 3056 2656 
Q 3513 2228 3513 1497 
Q 3513 744 3044 326 
Q 2575 -91 1722 -91 
Q 1428 -91 1123 -41 
Q 819 9 494 109 
L 494 744 
Q 775 591 1075 516 
Q 1375 441 1709 441 
Q 2250 441 2565 725 
Q 2881 1009 2881 1497 
Q 2881 1984 2565 2268 
Q 2250 2553 1709 2553 
Q 1456 2553 1204 2497 
Q 953 2441 691 2322 
L 691 4666 
z
" id="DejaVuSans-35" transform="scale(0.015625)"/>
      <path d="M 750 794 
L 1409 794 
L 1409 0 
L 750 0 
L 750 794 
z
M 750 3309 
L 1409 3309 
L 1409 2516 
L 750 2516 
L 750 3309 
z
" id="DejaVuSans-3a" transform="scale(0.015625)"/>
     </defs>
     <use xlink:href="#DejaVuSans-35"/>
     <use x="63.623047" xlink:href="#DejaVuSans-31"/>
     <use x="127.246094" xlink:href="#DejaVuSans-20"/>
     <use x="159.033203" xlink:href="#DejaVuSans-74"/>
     <use x="198.242188" xlink:href="#DejaVuSans-61"/>
     <use x="259.521484" xlink:href="#DejaVuSans-72"/>
     <use x="298.884766" xlink:href="#DejaVuSans-67"/>
     <use x="362.361328" xlink:href="#DejaVuSans-65"/>
     <use x="423.884766" xlink:href="#DejaVuSans-74"/>
     <use x="463.09375" xlink:href="#DejaVuSans-73"/>
     <use x="515.193359" xlink:href="#DejaVuSans-3a"/>
     <use x="548.884766" xlink:href="#DejaVuSans-20"/>
     <use x="580.671875" xlink:href="#DejaVuSans-31"/>
     <use x="644.294922" xlink:href="#DejaVuSans-30"/>
     <use x="707.917969" xlink:href="#DejaVuSans-30"/>
     <use x="771.541016" xlink:href="#DejaVuSans-2e"/>
     <use x="803.328125" xlink:href="#DejaVuSans-2e"/>
     <use x="835.115234" xlink:href="#DejaVuSans-31"/>
     <use x="898.738281" xlink:href="#DejaVuSans-65"/>
     <use x="960.261719" xlink:href="#DejaVuSans-2d"/>
     <use x="996.345703" xlink:href="#DejaVuSans-30"/>
     <use x="1059.96875" xlink:href="#DejaVuSans-38"/>
    </g>
    <!-- 15 instances -->
    <g transform="translate(60.41088 48.426593)scale(0.102 -0.102)">
     <use xlink:href="#DejaVuSans-31"/>
     <use x="63.623047" xlink:href="#DejaVuSans-35"/>
     <use x="127.246094" xlink:href="#DejaVuSans-20"/>
     <use x="159.033203" xlink:href="#DejaVuSans-69"/>
     <use x="186.816406" xlink:href="#DejaVuSans-6e"/>
     <use x="250.195312" xlink:href="#DejaVuSans-73"/>
     <use x="302.294922" xlink:href="#DejaVuSans-74"/>
     <use x="341.503906" xlink:href="#DejaVuSans-61"/>
     <use x="402.783203" xlink:href="#DejaVuSans-6e"/>
     <use x="466.162109" xlink:href="#DejaVuSans-63"/>
     <use x="521.142578" xlink:href="#DejaVuSans-65"/>
     <use x="582.666016" xlink:href="#DejaVuSans-73"/>
    </g>
   </g>
   <g id="text_19">
    <!-- v2.4 -->
    <g style="fill:#808080;" transform="translate(187.233062 293.909432)scale(0.1 -0.1)">
     <use xlink:href="#DejaVuSans-76"/>
     <use x="59.179688" xlink:href="#DejaVuSans-32"/>
     <use x="122.802734" xlink:href="#DejaVuSans-2e"/>
     <use x="154.589844" xlink:href="#DejaVuSans-34"/>
    </g>
   </g>
  </g>
 </g>
 <defs>
  <clipPath id="p80b9f1b321">
   <rect height="295.488" width="281.088" x="57.6" y="3.456"/>
  </clipPath>
 </defs>
</svg>
