<?xml version="1.0" encoding="utf-8" standalone="no"?>
<!DOCTYPE svg PUBLIC "-//W3C//DTD SVG 1.1//EN"
  "http://www.w3.org/Graphics/SVG/1.1/DTD/svg11.dtd">
<svg height="345.6pt" version="1.1" viewBox="0 0 460.8 345.6" width="460.8pt" xmlns="http://www.w3.org/2000/svg" xmlns:xlink="http://www.w3.org/1999/xlink">
 <metadata>
  <rdf:RDF xmlns:cc="http://creativecommons.org/ns#" xmlns:dc="http://purl.org/dc/elements/1.1/" xmlns:rdf="http://www.w3.org/1999/02/22-rdf-syntax-ns#">
   <cc:Work>
    <dc:type rdf:resource="http://purl.org/dc/dcmitype/StillImage"/>
    <dc:date>2021-07-27T16:03:55.572639</dc:date>
    <dc:format>image/svg+xml</dc:format>
    <dc:creator>
     <cc:Agent>
      <dc:title>Matplotlib v3.4.2, https://matplotlib.org/</dc:title>
     </cc:Agent>
    </dc:creator>
   </cc:Work>
  </rdf:RDF>
 </metadata>
 <defs>
  <style type="text/css">*{stroke-linecap:butt;stroke-linejoin:round;}</style>
 </defs>
 <g id="figure_1">
  <g id="patch_1">
   <path d="M 0 345.6 
L 460.8 345.6 
L 460.8 0 
L 0 0 
z
" style="fill:#ffffff;"/>
  </g>
  <g id="axes_1">
   <g id="patch_2">
    <path d="M 57.6 298.944 
L 338.688 298.944 
L 338.688 3.456 
L 57.6 3.456 
z
" style="fill:#ffffff;"/>
   </g>
   <g id="matplotlib.axis_1">
    <g id="xtick_1">
     <g id="line2d_1">
      <path clip-path="url(#p3c1734a6a7)" d="M 57.6 298.944 
L 57.6 3.456 
" style="fill:none;stroke:#b0b0b0;stroke-linecap:square;stroke-width:0.8;"/>
     </g>
     <g id="line2d_2">
      <defs>
       <path d="M 0 0 
L 0 3.5 
" id="m3c17be99a4" style="stroke:#000000;stroke-width:0.8;"/>
      </defs>
      <g>
       <use style="stroke:#000000;stroke-width:0.8;" x="57.6" xlink:href="#m3c17be99a4" y="298.944"/>
      </g>
     </g>
     <g id="text_1">
      <!-- 0 -->
      <g transform="translate(51.2375 321.140875)scale(0.2 -0.2)">
       <defs>
        <path d="M 2034 4250 
Q 1547 4250 1301 3770 
Q 1056 3291 1056 2328 
Q 1056 1369 1301 889 
Q 1547 409 2034 409 
Q 2525 409 2770 889 
Q 3016 1369 3016 2328 
Q 3016 3291 2770 3770 
Q 2525 4250 2034 4250 
z
M 2034 4750 
Q 2819 4750 3233 4129 
Q 3647 3509 3647 2328 
Q 3647 1150 3233 529 
Q 2819 -91 2034 -91 
Q 1250 -91 836 529 
Q 422 1150 422 2328 
Q 422 3509 836 4129 
Q 1250 4750 2034 4750 
z
" id="DejaVuSans-30" transform="scale(0.015625)"/>
       </defs>
       <use xlink:href="#DejaVuSans-30"/>
      </g>
     </g>
    </g>
    <g id="xtick_2">
     <g id="line2d_3">
      <path clip-path="url(#p3c1734a6a7)" d="M 137.910857 298.944 
L 137.910857 3.456 
" style="fill:none;stroke:#b0b0b0;stroke-linecap:square;stroke-width:0.8;"/>
     </g>
     <g id="line2d_4">
      <g>
       <use style="stroke:#000000;stroke-width:0.8;" x="137.910857" xlink:href="#m3c17be99a4" y="298.944"/>
      </g>
     </g>
     <g id="text_2">
      <!-- 2 -->
      <g transform="translate(131.548357 321.140875)scale(0.2 -0.2)">
       <defs>
        <path d="M 1228 531 
L 3431 531 
L 3431 0 
L 469 0 
L 469 531 
Q 828 903 1448 1529 
Q 2069 2156 2228 2338 
Q 2531 2678 2651 2914 
Q 2772 3150 2772 3378 
Q 2772 3750 2511 3984 
Q 2250 4219 1831 4219 
Q 1534 4219 1204 4116 
Q 875 4013 500 3803 
L 500 4441 
Q 881 4594 1212 4672 
Q 1544 4750 1819 4750 
Q 2544 4750 2975 4387 
Q 3406 4025 3406 3419 
Q 3406 3131 3298 2873 
Q 3191 2616 2906 2266 
Q 2828 2175 2409 1742 
Q 1991 1309 1228 531 
z
" id="DejaVuSans-32" transform="scale(0.015625)"/>
       </defs>
       <use xlink:href="#DejaVuSans-32"/>
      </g>
     </g>
    </g>
    <g id="xtick_3">
     <g id="line2d_5">
      <path clip-path="url(#p3c1734a6a7)" d="M 218.221714 298.944 
L 218.221714 3.456 
" style="fill:none;stroke:#b0b0b0;stroke-linecap:square;stroke-width:0.8;"/>
     </g>
     <g id="line2d_6">
      <g>
       <use style="stroke:#000000;stroke-width:0.8;" x="218.221714" xlink:href="#m3c17be99a4" y="298.944"/>
      </g>
     </g>
     <g id="text_3">
      <!-- 4 -->
      <g transform="translate(211.859214 321.140875)scale(0.2 -0.2)">
       <defs>
        <path d="M 2419 4116 
L 825 1625 
L 2419 1625 
L 2419 4116 
z
M 2253 4666 
L 3047 4666 
L 3047 1625 
L 3713 1625 
L 3713 1100 
L 3047 1100 
L 3047 0 
L 2419 0 
L 2419 1100 
L 313 1100 
L 313 1709 
L 2253 4666 
z
" id="DejaVuSans-34" transform="scale(0.015625)"/>
       </defs>
       <use xlink:href="#DejaVuSans-34"/>
      </g>
     </g>
    </g>
    <g id="xtick_4">
     <g id="line2d_7">
      <path clip-path="url(#p3c1734a6a7)" d="M 298.532571 298.944 
L 298.532571 3.456 
" style="fill:none;stroke:#b0b0b0;stroke-linecap:square;stroke-width:0.8;"/>
     </g>
     <g id="line2d_8">
      <g>
       <use style="stroke:#000000;stroke-width:0.8;" x="298.532571" xlink:href="#m3c17be99a4" y="298.944"/>
      </g>
     </g>
     <g id="text_4">
      <!-- 6 -->
      <g transform="translate(292.170071 321.140875)scale(0.2 -0.2)">
       <defs>
        <path d="M 2113 2584 
Q 1688 2584 1439 2293 
Q 1191 2003 1191 1497 
Q 1191 994 1439 701 
Q 1688 409 2113 409 
Q 2538 409 2786 701 
Q 3034 994 3034 1497 
Q 3034 2003 2786 2293 
Q 2538 2584 2113 2584 
z
M 3366 4563 
L 3366 3988 
Q 3128 4100 2886 4159 
Q 2644 4219 2406 4219 
Q 1781 4219 1451 3797 
Q 1122 3375 1075 2522 
Q 1259 2794 1537 2939 
Q 1816 3084 2150 3084 
Q 2853 3084 3261 2657 
Q 3669 2231 3669 1497 
Q 3669 778 3244 343 
Q 2819 -91 2113 -91 
Q 1303 -91 875 529 
Q 447 1150 447 2328 
Q 447 3434 972 4092 
Q 1497 4750 2381 4750 
Q 2619 4750 2861 4703 
Q 3103 4656 3366 4563 
z
" id="DejaVuSans-36" transform="scale(0.015625)"/>
       </defs>
       <use xlink:href="#DejaVuSans-36"/>
      </g>
     </g>
    </g>
    <g id="xtick_5">
     <g id="line2d_9">
      <path clip-path="url(#p3c1734a6a7)" d="M 97.755429 298.944 
L 97.755429 3.456 
" style="fill:none;stroke:#b0b0b0;stroke-linecap:square;stroke-width:0.8;"/>
     </g>
     <g id="line2d_10">
      <defs>
       <path d="M 0 0 
L 0 2 
" id="m2dac1c4e0b" style="stroke:#000000;stroke-width:0.6;"/>
      </defs>
      <g>
       <use style="stroke:#000000;stroke-width:0.6;" x="97.755429" xlink:href="#m2dac1c4e0b" y="298.944"/>
      </g>
     </g>
    </g>
    <g id="xtick_6">
     <g id="line2d_11">
      <path clip-path="url(#p3c1734a6a7)" d="M 178.066286 298.944 
L 178.066286 3.456 
" style="fill:none;stroke:#b0b0b0;stroke-linecap:square;stroke-width:0.8;"/>
     </g>
     <g id="line2d_12">
      <g>
       <use style="stroke:#000000;stroke-width:0.6;" x="178.066286" xlink:href="#m2dac1c4e0b" y="298.944"/>
      </g>
     </g>
    </g>
    <g id="xtick_7">
     <g id="line2d_13">
      <path clip-path="url(#p3c1734a6a7)" d="M 258.377143 298.944 
L 258.377143 3.456 
" style="fill:none;stroke:#b0b0b0;stroke-linecap:square;stroke-width:0.8;"/>
     </g>
     <g id="line2d_14">
      <g>
       <use style="stroke:#000000;stroke-width:0.6;" x="258.377143" xlink:href="#m2dac1c4e0b" y="298.944"/>
      </g>
     </g>
    </g>
    <g id="xtick_8">
     <g id="line2d_15">
      <path clip-path="url(#p3c1734a6a7)" d="M 338.688 298.944 
L 338.688 3.456 
" style="fill:none;stroke:#b0b0b0;stroke-linecap:square;stroke-width:0.8;"/>
     </g>
     <g id="line2d_16">
      <g>
       <use style="stroke:#000000;stroke-width:0.6;" x="338.688" xlink:href="#m2dac1c4e0b" y="298.944"/>
      </g>
     </g>
    </g>
    <g id="text_5">
     <!-- log10(# f-evals / dimension) -->
     <g transform="translate(77.764078 342.217594)scale(0.17 -0.17)">
      <defs>
       <path d="M 603 4863 
L 1178 4863 
L 1178 0 
L 603 0 
L 603 4863 
z
" id="DejaVuSans-6c" transform="scale(0.015625)"/>
       <path d="M 1959 3097 
Q 1497 3097 1228 2736 
Q 959 2375 959 1747 
Q 959 1119 1226 758 
Q 1494 397 1959 397 
Q 2419 397 2687 759 
Q 2956 1122 2956 1747 
Q 2956 2369 2687 2733 
Q 2419 3097 1959 3097 
z
M 1959 3584 
Q 2709 3584 3137 3096 
Q 3566 2609 3566 1747 
Q 3566 888 3137 398 
Q 2709 -91 1959 -91 
Q 1206 -91 779 398 
Q 353 888 353 1747 
Q 353 2609 779 3096 
Q 1206 3584 1959 3584 
z
" id="DejaVuSans-6f" transform="scale(0.015625)"/>
       <path d="M 2906 1791 
Q 2906 2416 2648 2759 
Q 2391 3103 1925 3103 
Q 1463 3103 1205 2759 
Q 947 2416 947 1791 
Q 947 1169 1205 825 
Q 1463 481 1925 481 
Q 2391 481 2648 825 
Q 2906 1169 2906 1791 
z
M 3481 434 
Q 3481 -459 3084 -895 
Q 2688 -1331 1869 -1331 
Q 1566 -1331 1297 -1286 
Q 1028 -1241 775 -1147 
L 775 -588 
Q 1028 -725 1275 -790 
Q 1522 -856 1778 -856 
Q 2344 -856 2625 -561 
Q 2906 -266 2906 331 
L 2906 616 
Q 2728 306 2450 153 
Q 2172 0 1784 0 
Q 1141 0 747 490 
Q 353 981 353 1791 
Q 353 2603 747 3093 
Q 1141 3584 1784 3584 
Q 2172 3584 2450 3431 
Q 2728 3278 2906 2969 
L 2906 3500 
L 3481 3500 
L 3481 434 
z
" id="DejaVuSans-67" transform="scale(0.015625)"/>
       <path d="M 794 531 
L 1825 531 
L 1825 4091 
L 703 3866 
L 703 4441 
L 1819 4666 
L 2450 4666 
L 2450 531 
L 3481 531 
L 3481 0 
L 794 0 
L 794 531 
z
" id="DejaVuSans-31" transform="scale(0.015625)"/>
       <path d="M 1984 4856 
Q 1566 4138 1362 3434 
Q 1159 2731 1159 2009 
Q 1159 1288 1364 580 
Q 1569 -128 1984 -844 
L 1484 -844 
Q 1016 -109 783 600 
Q 550 1309 550 2009 
Q 550 2706 781 3412 
Q 1013 4119 1484 4856 
L 1984 4856 
z
" id="DejaVuSans-28" transform="scale(0.015625)"/>
       <path d="M 3272 2816 
L 2363 2816 
L 2100 1772 
L 3016 1772 
L 3272 2816 
z
M 2803 4594 
L 2478 3297 
L 3391 3297 
L 3719 4594 
L 4219 4594 
L 3897 3297 
L 4872 3297 
L 4872 2816 
L 3775 2816 
L 3519 1772 
L 4513 1772 
L 4513 1294 
L 3397 1294 
L 3072 0 
L 2572 0 
L 2894 1294 
L 1978 1294 
L 1656 0 
L 1153 0 
L 1478 1294 
L 494 1294 
L 494 1772 
L 1594 1772 
L 1856 2816 
L 850 2816 
L 850 3297 
L 1978 3297 
L 2297 4594 
L 2803 4594 
z
" id="DejaVuSans-23" transform="scale(0.015625)"/>
       <path id="DejaVuSans-20" transform="scale(0.015625)"/>
       <path d="M 2375 4863 
L 2375 4384 
L 1825 4384 
Q 1516 4384 1395 4259 
Q 1275 4134 1275 3809 
L 1275 3500 
L 2222 3500 
L 2222 3053 
L 1275 3053 
L 1275 0 
L 697 0 
L 697 3053 
L 147 3053 
L 147 3500 
L 697 3500 
L 697 3744 
Q 697 4328 969 4595 
Q 1241 4863 1831 4863 
L 2375 4863 
z
" id="DejaVuSans-66" transform="scale(0.015625)"/>
       <path d="M 313 2009 
L 1997 2009 
L 1997 1497 
L 313 1497 
L 313 2009 
z
" id="DejaVuSans-2d" transform="scale(0.015625)"/>
       <path d="M 3597 1894 
L 3597 1613 
L 953 1613 
Q 991 1019 1311 708 
Q 1631 397 2203 397 
Q 2534 397 2845 478 
Q 3156 559 3463 722 
L 3463 178 
Q 3153 47 2828 -22 
Q 2503 -91 2169 -91 
Q 1331 -91 842 396 
Q 353 884 353 1716 
Q 353 2575 817 3079 
Q 1281 3584 2069 3584 
Q 2775 3584 3186 3129 
Q 3597 2675 3597 1894 
z
M 3022 2063 
Q 3016 2534 2758 2815 
Q 2500 3097 2075 3097 
Q 1594 3097 1305 2825 
Q 1016 2553 972 2059 
L 3022 2063 
z
" id="DejaVuSans-65" transform="scale(0.015625)"/>
       <path d="M 191 3500 
L 800 3500 
L 1894 563 
L 2988 3500 
L 3597 3500 
L 2284 0 
L 1503 0 
L 191 3500 
z
" id="DejaVuSans-76" transform="scale(0.015625)"/>
       <path d="M 2194 1759 
Q 1497 1759 1228 1600 
Q 959 1441 959 1056 
Q 959 750 1161 570 
Q 1363 391 1709 391 
Q 2188 391 2477 730 
Q 2766 1069 2766 1631 
L 2766 1759 
L 2194 1759 
z
M 3341 1997 
L 3341 0 
L 2766 0 
L 2766 531 
Q 2569 213 2275 61 
Q 1981 -91 1556 -91 
Q 1019 -91 701 211 
Q 384 513 384 1019 
Q 384 1609 779 1909 
Q 1175 2209 1959 2209 
L 2766 2209 
L 2766 2266 
Q 2766 2663 2505 2880 
Q 2244 3097 1772 3097 
Q 1472 3097 1187 3025 
Q 903 2953 641 2809 
L 641 3341 
Q 956 3463 1253 3523 
Q 1550 3584 1831 3584 
Q 2591 3584 2966 3190 
Q 3341 2797 3341 1997 
z
" id="DejaVuSans-61" transform="scale(0.015625)"/>
       <path d="M 2834 3397 
L 2834 2853 
Q 2591 2978 2328 3040 
Q 2066 3103 1784 3103 
Q 1356 3103 1142 2972 
Q 928 2841 928 2578 
Q 928 2378 1081 2264 
Q 1234 2150 1697 2047 
L 1894 2003 
Q 2506 1872 2764 1633 
Q 3022 1394 3022 966 
Q 3022 478 2636 193 
Q 2250 -91 1575 -91 
Q 1294 -91 989 -36 
Q 684 19 347 128 
L 347 722 
Q 666 556 975 473 
Q 1284 391 1588 391 
Q 1994 391 2212 530 
Q 2431 669 2431 922 
Q 2431 1156 2273 1281 
Q 2116 1406 1581 1522 
L 1381 1569 
Q 847 1681 609 1914 
Q 372 2147 372 2553 
Q 372 3047 722 3315 
Q 1072 3584 1716 3584 
Q 2034 3584 2315 3537 
Q 2597 3491 2834 3397 
z
" id="DejaVuSans-73" transform="scale(0.015625)"/>
       <path d="M 1625 4666 
L 2156 4666 
L 531 -594 
L 0 -594 
L 1625 4666 
z
" id="DejaVuSans-2f" transform="scale(0.015625)"/>
       <path d="M 2906 2969 
L 2906 4863 
L 3481 4863 
L 3481 0 
L 2906 0 
L 2906 525 
Q 2725 213 2448 61 
Q 2172 -91 1784 -91 
Q 1150 -91 751 415 
Q 353 922 353 1747 
Q 353 2572 751 3078 
Q 1150 3584 1784 3584 
Q 2172 3584 2448 3432 
Q 2725 3281 2906 2969 
z
M 947 1747 
Q 947 1113 1208 752 
Q 1469 391 1925 391 
Q 2381 391 2643 752 
Q 2906 1113 2906 1747 
Q 2906 2381 2643 2742 
Q 2381 3103 1925 3103 
Q 1469 3103 1208 2742 
Q 947 2381 947 1747 
z
" id="DejaVuSans-64" transform="scale(0.015625)"/>
       <path d="M 603 3500 
L 1178 3500 
L 1178 0 
L 603 0 
L 603 3500 
z
M 603 4863 
L 1178 4863 
L 1178 4134 
L 603 4134 
L 603 4863 
z
" id="DejaVuSans-69" transform="scale(0.015625)"/>
       <path d="M 3328 2828 
Q 3544 3216 3844 3400 
Q 4144 3584 4550 3584 
Q 5097 3584 5394 3201 
Q 5691 2819 5691 2113 
L 5691 0 
L 5113 0 
L 5113 2094 
Q 5113 2597 4934 2840 
Q 4756 3084 4391 3084 
Q 3944 3084 3684 2787 
Q 3425 2491 3425 1978 
L 3425 0 
L 2847 0 
L 2847 2094 
Q 2847 2600 2669 2842 
Q 2491 3084 2119 3084 
Q 1678 3084 1418 2786 
Q 1159 2488 1159 1978 
L 1159 0 
L 581 0 
L 581 3500 
L 1159 3500 
L 1159 2956 
Q 1356 3278 1631 3431 
Q 1906 3584 2284 3584 
Q 2666 3584 2933 3390 
Q 3200 3197 3328 2828 
z
" id="DejaVuSans-6d" transform="scale(0.015625)"/>
       <path d="M 3513 2113 
L 3513 0 
L 2938 0 
L 2938 2094 
Q 2938 2591 2744 2837 
Q 2550 3084 2163 3084 
Q 1697 3084 1428 2787 
Q 1159 2491 1159 1978 
L 1159 0 
L 581 0 
L 581 3500 
L 1159 3500 
L 1159 2956 
Q 1366 3272 1645 3428 
Q 1925 3584 2291 3584 
Q 2894 3584 3203 3211 
Q 3513 2838 3513 2113 
z
" id="DejaVuSans-6e" transform="scale(0.015625)"/>
       <path d="M 513 4856 
L 1013 4856 
Q 1481 4119 1714 3412 
Q 1947 2706 1947 2009 
Q 1947 1309 1714 600 
Q 1481 -109 1013 -844 
L 513 -844 
Q 928 -128 1133 580 
Q 1338 1288 1338 2009 
Q 1338 2731 1133 3434 
Q 928 4138 513 4856 
z
" id="DejaVuSans-29" transform="scale(0.015625)"/>
      </defs>
      <use xlink:href="#DejaVuSans-6c"/>
      <use x="27.783203" xlink:href="#DejaVuSans-6f"/>
      <use x="88.964844" xlink:href="#DejaVuSans-67"/>
      <use x="152.441406" xlink:href="#DejaVuSans-31"/>
      <use x="216.064453" xlink:href="#DejaVuSans-30"/>
      <use x="279.6875" xlink:href="#DejaVuSans-28"/>
      <use x="318.701172" xlink:href="#DejaVuSans-23"/>
      <use x="402.490234" xlink:href="#DejaVuSans-20"/>
      <use x="434.277344" xlink:href="#DejaVuSans-66"/>
      <use x="463.982422" xlink:href="#DejaVuSans-2d"/>
      <use x="500.066406" xlink:href="#DejaVuSans-65"/>
      <use x="561.589844" xlink:href="#DejaVuSans-76"/>
      <use x="620.769531" xlink:href="#DejaVuSans-61"/>
      <use x="682.048828" xlink:href="#DejaVuSans-6c"/>
      <use x="709.832031" xlink:href="#DejaVuSans-73"/>
      <use x="761.931641" xlink:href="#DejaVuSans-20"/>
      <use x="793.71875" xlink:href="#DejaVuSans-2f"/>
      <use x="827.410156" xlink:href="#DejaVuSans-20"/>
      <use x="859.197266" xlink:href="#DejaVuSans-64"/>
      <use x="922.673828" xlink:href="#DejaVuSans-69"/>
      <use x="950.457031" xlink:href="#DejaVuSans-6d"/>
      <use x="1047.869141" xlink:href="#DejaVuSans-65"/>
      <use x="1109.392578" xlink:href="#DejaVuSans-6e"/>
      <use x="1172.771484" xlink:href="#DejaVuSans-73"/>
      <use x="1224.871094" xlink:href="#DejaVuSans-69"/>
      <use x="1252.654297" xlink:href="#DejaVuSans-6f"/>
      <use x="1313.835938" xlink:href="#DejaVuSans-6e"/>
      <use x="1377.214844" xlink:href="#DejaVuSans-29"/>
     </g>
    </g>
   </g>
   <g id="matplotlib.axis_2">
    <g id="ytick_1">
     <g id="line2d_17">
      <path clip-path="url(#p3c1734a6a7)" d="M 57.6 298.944 
L 338.688 298.944 
" style="fill:none;stroke:#b0b0b0;stroke-linecap:square;stroke-width:0.8;"/>
     </g>
     <g id="line2d_18">
      <defs>
       <path d="M 0 0 
L -3.5 0 
" id="m32922f81dc" style="stroke:#000000;stroke-width:0.8;"/>
      </defs>
      <g>
       <use style="stroke:#000000;stroke-width:0.8;" x="57.6" xlink:href="#m32922f81dc" y="298.944"/>
      </g>
     </g>
     <g id="text_6">
      <!-- 0.0 -->
      <g transform="translate(25.155 305.02275)scale(0.16 -0.16)">
       <defs>
        <path d="M 684 794 
L 1344 794 
L 1344 0 
L 684 0 
L 684 794 
z
" id="DejaVuSans-2e" transform="scale(0.015625)"/>
       </defs>
       <use xlink:href="#DejaVuSans-30"/>
       <use x="63.623047" xlink:href="#DejaVuSans-2e"/>
       <use x="95.410156" xlink:href="#DejaVuSans-30"/>
      </g>
     </g>
    </g>
    <g id="ytick_2">
     <g id="line2d_19">
      <path clip-path="url(#p3c1734a6a7)" d="M 57.6 240.431525 
L 338.688 240.431525 
" style="fill:none;stroke:#b0b0b0;stroke-linecap:square;stroke-width:0.8;"/>
     </g>
     <g id="line2d_20">
      <g>
       <use style="stroke:#000000;stroke-width:0.8;" x="57.6" xlink:href="#m32922f81dc" y="240.431525"/>
      </g>
     </g>
     <g id="text_7">
      <!-- 0.2 -->
      <g transform="translate(25.155 246.510275)scale(0.16 -0.16)">
       <use xlink:href="#DejaVuSans-30"/>
       <use x="63.623047" xlink:href="#DejaVuSans-2e"/>
       <use x="95.410156" xlink:href="#DejaVuSans-32"/>
      </g>
     </g>
    </g>
    <g id="ytick_3">
     <g id="line2d_21">
      <path clip-path="url(#p3c1734a6a7)" d="M 57.6 181.91905 
L 338.688 181.91905 
" style="fill:none;stroke:#b0b0b0;stroke-linecap:square;stroke-width:0.8;"/>
     </g>
     <g id="line2d_22">
      <g>
       <use style="stroke:#000000;stroke-width:0.8;" x="57.6" xlink:href="#m32922f81dc" y="181.91905"/>
      </g>
     </g>
     <g id="text_8">
      <!-- 0.4 -->
      <g transform="translate(25.155 187.9978)scale(0.16 -0.16)">
       <use xlink:href="#DejaVuSans-30"/>
       <use x="63.623047" xlink:href="#DejaVuSans-2e"/>
       <use x="95.410156" xlink:href="#DejaVuSans-34"/>
      </g>
     </g>
    </g>
    <g id="ytick_4">
     <g id="line2d_23">
      <path clip-path="url(#p3c1734a6a7)" d="M 57.6 123.406574 
L 338.688 123.406574 
" style="fill:none;stroke:#b0b0b0;stroke-linecap:square;stroke-width:0.8;"/>
     </g>
     <g id="line2d_24">
      <g>
       <use style="stroke:#000000;stroke-width:0.8;" x="57.6" xlink:href="#m32922f81dc" y="123.406574"/>
      </g>
     </g>
     <g id="text_9">
      <!-- 0.6 -->
      <g transform="translate(25.155 129.485324)scale(0.16 -0.16)">
       <use xlink:href="#DejaVuSans-30"/>
       <use x="63.623047" xlink:href="#DejaVuSans-2e"/>
       <use x="95.410156" xlink:href="#DejaVuSans-36"/>
      </g>
     </g>
    </g>
    <g id="ytick_5">
     <g id="line2d_25">
      <path clip-path="url(#p3c1734a6a7)" d="M 57.6 64.894099 
L 338.688 64.894099 
" style="fill:none;stroke:#b0b0b0;stroke-linecap:square;stroke-width:0.8;"/>
     </g>
     <g id="line2d_26">
      <g>
       <use style="stroke:#000000;stroke-width:0.8;" x="57.6" xlink:href="#m32922f81dc" y="64.894099"/>
      </g>
     </g>
     <g id="text_10">
      <!-- 0.8 -->
      <g transform="translate(25.155 70.972849)scale(0.16 -0.16)">
       <defs>
        <path d="M 2034 2216 
Q 1584 2216 1326 1975 
Q 1069 1734 1069 1313 
Q 1069 891 1326 650 
Q 1584 409 2034 409 
Q 2484 409 2743 651 
Q 3003 894 3003 1313 
Q 3003 1734 2745 1975 
Q 2488 2216 2034 2216 
z
M 1403 2484 
Q 997 2584 770 2862 
Q 544 3141 544 3541 
Q 544 4100 942 4425 
Q 1341 4750 2034 4750 
Q 2731 4750 3128 4425 
Q 3525 4100 3525 3541 
Q 3525 3141 3298 2862 
Q 3072 2584 2669 2484 
Q 3125 2378 3379 2068 
Q 3634 1759 3634 1313 
Q 3634 634 3220 271 
Q 2806 -91 2034 -91 
Q 1263 -91 848 271 
Q 434 634 434 1313 
Q 434 1759 690 2068 
Q 947 2378 1403 2484 
z
M 1172 3481 
Q 1172 3119 1398 2916 
Q 1625 2713 2034 2713 
Q 2441 2713 2670 2916 
Q 2900 3119 2900 3481 
Q 2900 3844 2670 4047 
Q 2441 4250 2034 4250 
Q 1625 4250 1398 4047 
Q 1172 3844 1172 3481 
z
" id="DejaVuSans-38" transform="scale(0.015625)"/>
       </defs>
       <use xlink:href="#DejaVuSans-30"/>
       <use x="63.623047" xlink:href="#DejaVuSans-2e"/>
       <use x="95.410156" xlink:href="#DejaVuSans-38"/>
      </g>
     </g>
    </g>
    <g id="ytick_6">
     <g id="line2d_27">
      <path clip-path="url(#p3c1734a6a7)" d="M 57.6 6.381624 
L 338.688 6.381624 
" style="fill:none;stroke:#b0b0b0;stroke-linecap:square;stroke-width:0.8;"/>
     </g>
     <g id="line2d_28">
      <g>
       <use style="stroke:#000000;stroke-width:0.8;" x="57.6" xlink:href="#m32922f81dc" y="6.381624"/>
      </g>
     </g>
     <g id="text_11">
      <!-- 1.0 -->
      <g transform="translate(25.155 12.460374)scale(0.16 -0.16)">
       <use xlink:href="#DejaVuSans-31"/>
       <use x="63.623047" xlink:href="#DejaVuSans-2e"/>
       <use x="95.410156" xlink:href="#DejaVuSans-30"/>
      </g>
     </g>
    </g>
    <g id="text_12">
     <!-- Fraction of function,target pairs -->
     <g transform="translate(17.619531 285.585)rotate(-90)scale(0.17 -0.17)">
      <defs>
       <path d="M 628 4666 
L 3309 4666 
L 3309 4134 
L 1259 4134 
L 1259 2759 
L 3109 2759 
L 3109 2228 
L 1259 2228 
L 1259 0 
L 628 0 
L 628 4666 
z
" id="DejaVuSans-46" transform="scale(0.015625)"/>
       <path d="M 2631 2963 
Q 2534 3019 2420 3045 
Q 2306 3072 2169 3072 
Q 1681 3072 1420 2755 
Q 1159 2438 1159 1844 
L 1159 0 
L 581 0 
L 581 3500 
L 1159 3500 
L 1159 2956 
Q 1341 3275 1631 3429 
Q 1922 3584 2338 3584 
Q 2397 3584 2469 3576 
Q 2541 3569 2628 3553 
L 2631 2963 
z
" id="DejaVuSans-72" transform="scale(0.015625)"/>
       <path d="M 3122 3366 
L 3122 2828 
Q 2878 2963 2633 3030 
Q 2388 3097 2138 3097 
Q 1578 3097 1268 2742 
Q 959 2388 959 1747 
Q 959 1106 1268 751 
Q 1578 397 2138 397 
Q 2388 397 2633 464 
Q 2878 531 3122 666 
L 3122 134 
Q 2881 22 2623 -34 
Q 2366 -91 2075 -91 
Q 1284 -91 818 406 
Q 353 903 353 1747 
Q 353 2603 823 3093 
Q 1294 3584 2113 3584 
Q 2378 3584 2631 3529 
Q 2884 3475 3122 3366 
z
" id="DejaVuSans-63" transform="scale(0.015625)"/>
       <path d="M 1172 4494 
L 1172 3500 
L 2356 3500 
L 2356 3053 
L 1172 3053 
L 1172 1153 
Q 1172 725 1289 603 
Q 1406 481 1766 481 
L 2356 481 
L 2356 0 
L 1766 0 
Q 1100 0 847 248 
Q 594 497 594 1153 
L 594 3053 
L 172 3053 
L 172 3500 
L 594 3500 
L 594 4494 
L 1172 4494 
z
" id="DejaVuSans-74" transform="scale(0.015625)"/>
       <path d="M 544 1381 
L 544 3500 
L 1119 3500 
L 1119 1403 
Q 1119 906 1312 657 
Q 1506 409 1894 409 
Q 2359 409 2629 706 
Q 2900 1003 2900 1516 
L 2900 3500 
L 3475 3500 
L 3475 0 
L 2900 0 
L 2900 538 
Q 2691 219 2414 64 
Q 2138 -91 1772 -91 
Q 1169 -91 856 284 
Q 544 659 544 1381 
z
M 1991 3584 
L 1991 3584 
z
" id="DejaVuSans-75" transform="scale(0.015625)"/>
       <path d="M 750 794 
L 1409 794 
L 1409 256 
L 897 -744 
L 494 -744 
L 750 256 
L 750 794 
z
" id="DejaVuSans-2c" transform="scale(0.015625)"/>
       <path d="M 1159 525 
L 1159 -1331 
L 581 -1331 
L 581 3500 
L 1159 3500 
L 1159 2969 
Q 1341 3281 1617 3432 
Q 1894 3584 2278 3584 
Q 2916 3584 3314 3078 
Q 3713 2572 3713 1747 
Q 3713 922 3314 415 
Q 2916 -91 2278 -91 
Q 1894 -91 1617 61 
Q 1341 213 1159 525 
z
M 3116 1747 
Q 3116 2381 2855 2742 
Q 2594 3103 2138 3103 
Q 1681 3103 1420 2742 
Q 1159 2381 1159 1747 
Q 1159 1113 1420 752 
Q 1681 391 2138 391 
Q 2594 391 2855 752 
Q 3116 1113 3116 1747 
z
" id="DejaVuSans-70" transform="scale(0.015625)"/>
      </defs>
      <use xlink:href="#DejaVuSans-46"/>
      <use x="50.269531" xlink:href="#DejaVuSans-72"/>
      <use x="91.382812" xlink:href="#DejaVuSans-61"/>
      <use x="152.662109" xlink:href="#DejaVuSans-63"/>
      <use x="207.642578" xlink:href="#DejaVuSans-74"/>
      <use x="246.851562" xlink:href="#DejaVuSans-69"/>
      <use x="274.634766" xlink:href="#DejaVuSans-6f"/>
      <use x="335.816406" xlink:href="#DejaVuSans-6e"/>
      <use x="399.195312" xlink:href="#DejaVuSans-20"/>
      <use x="430.982422" xlink:href="#DejaVuSans-6f"/>
      <use x="492.164062" xlink:href="#DejaVuSans-66"/>
      <use x="527.369141" xlink:href="#DejaVuSans-20"/>
      <use x="559.15625" xlink:href="#DejaVuSans-66"/>
      <use x="594.361328" xlink:href="#DejaVuSans-75"/>
      <use x="657.740234" xlink:href="#DejaVuSans-6e"/>
      <use x="721.119141" xlink:href="#DejaVuSans-63"/>
      <use x="776.099609" xlink:href="#DejaVuSans-74"/>
      <use x="815.308594" xlink:href="#DejaVuSans-69"/>
      <use x="843.091797" xlink:href="#DejaVuSans-6f"/>
      <use x="904.273438" xlink:href="#DejaVuSans-6e"/>
      <use x="967.652344" xlink:href="#DejaVuSans-2c"/>
      <use x="999.439453" xlink:href="#DejaVuSans-74"/>
      <use x="1038.648438" xlink:href="#DejaVuSans-61"/>
      <use x="1099.927734" xlink:href="#DejaVuSans-72"/>
      <use x="1139.291016" xlink:href="#DejaVuSans-67"/>
      <use x="1202.767578" xlink:href="#DejaVuSans-65"/>
      <use x="1264.291016" xlink:href="#DejaVuSans-74"/>
      <use x="1303.5" xlink:href="#DejaVuSans-20"/>
      <use x="1335.287109" xlink:href="#DejaVuSans-70"/>
      <use x="1398.763672" xlink:href="#DejaVuSans-61"/>
      <use x="1460.042969" xlink:href="#DejaVuSans-69"/>
      <use x="1487.826172" xlink:href="#DejaVuSans-72"/>
      <use x="1528.939453" xlink:href="#DejaVuSans-73"/>
     </g>
    </g>
   </g>
   <g id="line2d_29">
    <defs>
     <path d="M 0 1.5 
C 0.397805 1.5 0.77937 1.341951 1.06066 1.06066 
C 1.341951 0.77937 1.5 0.397805 1.5 0 
C 1.5 -0.397805 1.341951 -0.77937 1.06066 -1.06066 
C 0.77937 -1.341951 0.397805 -1.5 0 -1.5 
C -0.397805 -1.5 -0.77937 -1.341951 -1.06066 -1.06066 
C -1.341951 -0.77937 -1.5 -0.397805 -1.5 0 
C -1.5 0.397805 -1.341951 0.77937 -1.06066 1.06066 
C -0.77937 1.341951 -0.397805 1.5 0 1.5 
z
" id="m948392457a" style="stroke:#000080;"/>
    </defs>
    <g>
     <use style="fill:#000080;stroke:#000080;" x="178.760325" xlink:href="#m948392457a" y="6.381624"/>
     <use style="fill:#000080;stroke:#000080;" x="178.760325" xlink:href="#m948392457a" y="6.381624"/>
    </g>
   </g>
   <g id="line2d_30">
    <path d="M 144.148442 298.944 
L 144.148442 298.370348 
L 149.610898 298.370348 
L 149.610898 296.649393 
L 151.453659 296.649393 
L 151.453659 296.075741 
L 151.834513 296.075741 
L 151.834513 294.928438 
L 152.344968 294.928438 
L 152.344968 294.354786 
L 152.647216 294.354786 
L 152.647216 293.781135 
L 154.547439 293.781135 
L 154.57429 292.060179 
L 154.694607 292.060179 
L 154.77436 289.765573 
L 154.93278 289.765573 
L 154.93278 288.618269 
L 155.180705 288.618269 
L 155.206599 287.470966 
L 155.322646 287.470966 
L 155.386785 285.75001 
L 155.590458 285.75001 
L 155.590458 284.602707 
L 155.703987 284.602707 
L 155.766741 283.455404 
L 156.003167 283.455404 
L 156.040206 282.3081 
L 156.138594 282.3081 
L 156.175347 280.013493 
L 156.357959 280.013493 
L 156.382164 277.145235 
L 156.670026 277.145235 
L 156.670026 276.571583 
L 157.069866 276.571583 
L 157.1279 273.703324 
L 157.185742 273.703324 
L 157.277891 270.261414 
L 157.630442 270.261414 
L 157.709073 266.819504 
L 157.77619 266.819504 
L 157.77619 266.245852 
L 158.238915 266.245852 
L 158.271501 265.098549 
L 158.358103 265.098549 
L 158.358103 264.524897 
L 158.583406 264.524897 
L 158.583406 263.377593 
L 158.732007 263.377593 
L 158.732007 262.803942 
L 158.9003 262.803942 
L 158.9003 262.23029 
L 159.466728 262.23029 
L 159.466728 261.082987 
L 159.698248 261.082987 
L 159.698248 260.509335 
L 159.837683 260.509335 
L 159.837683 258.78838 
L 160.103486 258.78838 
L 160.103486 258.214728 
L 160.288133 258.214728 
L 160.384537 257.067425 
L 160.451703 257.067425 
L 160.509069 254.772818 
L 160.877419 254.772818 
L 160.970627 252.478211 
L 161.173949 252.478211 
L 161.228992 251.330907 
L 161.438393 251.330907 
L 161.528659 250.183604 
L 161.564634 250.183604 
L 161.618459 248.462649 
L 161.681046 248.462649 
L 161.778945 246.168042 
L 162.104265 246.168042 
L 162.104265 245.59439 
L 162.277619 245.59439 
L 162.320689 243.873435 
L 162.449267 243.873435 
L 162.542958 241.578828 
L 162.619242 241.578828 
L 162.703612 239.857873 
L 162.762429 239.857873 
L 162.846111 236.989614 
L 162.912768 236.989614 
L 163.020547 234.695008 
L 163.02881 234.695008 
L 163.127663 231.826749 
L 163.266752 231.826749 
L 163.331824 230.679446 
L 163.445119 230.679446 
L 163.477355 229.532142 
L 163.7569 229.532142 
L 163.835954 228.384839 
L 163.89894 228.384839 
L 163.977355 225.51658 
L 164.109855 225.51658 
L 164.218222 222.648321 
L 164.448194 222.648321 
L 164.50142 221.501018 
L 164.6902 221.501018 
L 164.780093 219.206411 
L 164.958502 219.206411 
L 165.061737 216.911804 
L 165.09112 216.911804 
L 165.09112 216.338153 
L 165.237301 216.338153 
L 165.338904 214.617197 
L 165.504548 214.617197 
L 165.59035 211.175287 
L 165.618857 211.175287 
L 165.7041 210.027984 
L 165.753633 210.027984 
L 165.810071 208.88068 
L 165.894387 208.88068 
L 165.901395 207.159725 
L 166.034014 207.159725 
L 166.08262 203.717815 
L 166.220754 203.717815 
L 166.309958 200.849556 
L 166.439517 200.849556 
L 166.500553 199.128601 
L 166.729224 199.128601 
L 166.829163 196.260342 
L 166.855717 196.260342 
L 166.921925 192.818432 
L 167.053592 192.818432 
L 167.053592 192.24478 
L 167.333356 192.24478 
L 167.372038 188.229218 
L 167.51953 188.229218 
L 167.55143 186.508263 
L 167.678446 186.508263 
L 167.697419 184.213656 
L 167.798261 184.213656 
L 167.798261 183.640005 
L 167.991998 183.640005 
L 168.097334 179.624443 
L 168.122027 179.624443 
L 168.122027 179.050791 
L 168.293904 179.050791 
L 168.324419 177.903487 
L 168.433833 177.903487 
L 168.433833 176.756184 
L 168.572648 176.756184 
L 168.572648 176.182532 
L 168.710367 176.182532 
L 168.71633 174.461577 
L 168.841088 174.461577 
L 168.923766 171.019667 
L 169.105458 171.019667 
L 169.210094 169.298712 
L 169.314106 169.298712 
L 169.406043 166.430453 
L 169.463258 166.430453 
L 169.537359 165.28315 
L 169.650749 165.28315 
L 169.75779 159.546632 
L 169.76902 159.546632 
L 169.864179 156.678374 
L 169.886494 156.678374 
L 169.925477 155.53107 
L 170.014255 155.53107 
L 170.124596 153.236464 
L 170.16305 153.236464 
L 170.179505 152.08916 
L 170.299701 152.08916 
L 170.370339 148.073598 
L 170.413666 148.073598 
L 170.494616 146.926295 
L 170.553741 146.926295 
L 170.559106 144.631688 
L 170.719297 144.631688 
L 170.825279 142.910733 
L 170.841121 142.910733 
L 170.946367 137.747867 
L 170.983054 137.747867 
L 171.061409 134.879609 
L 171.103055 134.879609 
L 171.144602 133.158653 
L 171.350865 133.158653 
L 171.402051 131.437698 
L 171.529365 131.437698 
L 171.635594 128.56944 
L 171.736167 128.56944 
L 171.846131 126.274833 
L 171.876001 126.274833 
L 171.955406 120.538316 
L 172.014724 120.538316 
L 172.108232 118.817361 
L 172.254864 118.817361 
L 172.361615 115.949102 
L 172.371288 115.949102 
L 172.472525 110.786236 
L 172.515733 110.786236 
L 172.530112 108.49163 
L 172.720707 108.49163 
L 172.819942 106.770674 
L 172.848191 106.770674 
L 172.956059 103.902416 
L 173.012074 103.902416 
L 173.109669 100.460506 
L 173.234351 100.460506 
L 173.307818 97.592247 
L 173.380978 97.592247 
L 173.476535 94.150337 
L 173.49921 94.150337 
L 173.607642 91.282078 
L 173.643636 91.282078 
L 173.643636 90.134775 
L 173.760107 90.134775 
L 173.853616 87.840168 
L 173.889107 87.840168 
L 173.942208 86.119213 
L 174.043535 86.119213 
L 174.078642 84.971909 
L 174.205315 84.971909 
L 174.274811 78.66174 
L 174.348349 78.66174 
L 174.382848 77.514437 
L 174.50306 77.514437 
L 174.60119 74.072526 
L 174.664891 74.072526 
L 174.753684 71.77792 
L 174.7916 71.77792 
L 174.883938 67.762358 
L 174.942445 67.762358 
L 175.02984 65.467751 
L 175.058874 65.467751 
L 175.158055 63.173144 
L 175.170413 63.173144 
L 175.199215 60.878537 
L 175.297603 60.878537 
L 175.362888 58.010278 
L 175.415753 58.010278 
L 175.484643 55.14202 
L 175.533108 55.14202 
L 175.549233 53.421065 
L 175.717652 53.421065 
L 175.781387 48.258199 
L 175.85677 48.258199 
L 175.963336 44.816289 
L 175.975136 44.816289 
L 176.065343 40.800727 
L 176.240496 40.800727 
L 176.298492 38.50612 
L 176.394725 38.50612 
L 176.501879 35.637861 
L 176.517133 35.637861 
L 176.62354 32.769603 
L 176.714232 32.769603 
L 176.733067 29.327692 
L 176.93892 29.327692 
L 177.027991 27.033086 
L 177.072356 27.033086 
L 177.171768 23.591175 
L 177.226752 23.591175 
L 177.32165 19.575613 
L 177.358012 19.575613 
L 177.40517 16.707355 
L 177.477472 16.707355 
L 177.517111 14.412748 
L 177.710406 14.412748 
L 177.788545 13.265444 
L 177.876917 13.265444 
L 177.876917 12.691793 
L 178.024381 12.691793 
L 178.080232 10.970838 
L 178.146322 10.970838 
L 178.21908 9.249882 
L 178.384252 9.249882 
L 178.432134 8.102579 
L 178.56483 8.102579 
L 178.591926 6.955275 
L 178.760325 6.955275 
L 178.760325 6.381624 
L 338.688 6.381624 
L 338.688 6.381624 
" style="fill:none;stroke:#000080;stroke-linecap:square;stroke-width:1.5;"/>
   </g>
   <g id="line2d_31">
    <defs>
     <path d="M 0 6 
C 1.591219 6 3.117479 5.367802 4.242641 4.242641 
C 5.367802 3.117479 6 1.591219 6 0 
C 6 -1.591219 5.367802 -3.117479 4.242641 -4.242641 
C 3.117479 -5.367802 1.591219 -6 0 -6 
C -1.591219 -6 -3.117479 -5.367802 -4.242641 -4.242641 
C -5.367802 -3.117479 -6 -1.591219 -6 0 
C -6 1.591219 -5.367802 3.117479 -4.242641 4.242641 
C -3.117479 5.367802 -1.591219 6 0 6 
z
" id="m2ca7360a4a" style="stroke:#000080;stroke-width:1.5;"/>
    </defs>
    <g>
     <use style="fill-opacity:0;stroke:#000080;stroke-width:1.5;" x="171.880975" xlink:href="#m2ca7360a4a" y="123.980226"/>
     <use style="fill-opacity:0;stroke:#000080;stroke-width:1.5;" x="178.760325" xlink:href="#m2ca7360a4a" y="6.955275"/>
     <use style="fill-opacity:0;stroke:#000080;stroke-width:1.5;" x="178.760325" xlink:href="#m2ca7360a4a" y="6.381624"/>
     <use style="fill-opacity:0;stroke:#000080;stroke-width:1.5;" x="178.760325" xlink:href="#m2ca7360a4a" y="6.381624"/>
     <use style="fill-opacity:0;stroke:#000080;stroke-width:1.5;" x="338.688" xlink:href="#m2ca7360a4a" y="6.381624"/>
    </g>
   </g>
   <g id="line2d_32">
    <path style="fill:none;stroke:#000080;stroke-linecap:square;stroke-width:1.5;"/>
    <g/>
   </g>
   <g id="line2d_33">
    <defs>
     <path d="M 0 1.5 
C 0.397805 1.5 0.77937 1.341951 1.06066 1.06066 
C 1.341951 0.77937 1.5 0.397805 1.5 0 
C 1.5 -0.397805 1.341951 -0.77937 1.06066 -1.06066 
C 0.77937 -1.341951 0.397805 -1.5 0 -1.5 
C -0.397805 -1.5 -0.77937 -1.341951 -1.06066 -1.06066 
C -1.341951 -0.77937 -1.5 -0.397805 -1.5 0 
C -1.5 0.397805 -1.341951 0.77937 -1.06066 1.06066 
C -0.77937 1.341951 -0.397805 1.5 0 1.5 
z
" id="m9ab9ae18c6" style="stroke:#ff00ff;"/>
    </defs>
    <g>
     <use style="fill:#ff00ff;stroke:#ff00ff;" x="177.190115" xlink:href="#m9ab9ae18c6" y="6.381624"/>
     <use style="fill:#ff00ff;stroke:#ff00ff;" x="177.190115" xlink:href="#m9ab9ae18c6" y="6.381624"/>
    </g>
   </g>
   <g id="line2d_34">
    <path d="M 89.972502 298.944 
L 89.972502 297.223045 
L 92.026554 297.223045 
L 92.026554 296.649393 
L 93.863965 296.649393 
L 93.863965 296.075741 
L 95.125186 296.075741 
L 95.125186 295.50209 
L 96.301313 295.50209 
L 96.301313 294.928438 
L 100.343767 294.928438 
L 100.343767 294.354786 
L 110.527398 294.354786 
L 110.527398 292.060179 
L 117.259781 292.060179 
L 117.259781 291.486528 
L 118.994305 291.486528 
L 118.994305 290.912876 
L 120.093994 290.912876 
L 120.093994 289.765573 
L 122.018385 289.765573 
L 122.018385 289.191921 
L 124.062793 289.191921 
L 124.062793 288.044617 
L 128.046609 288.044617 
L 128.046609 287.470966 
L 129.347769 287.470966 
L 129.347769 286.323662 
L 130.344571 286.323662 
L 130.344571 285.176359 
L 130.61164 285.176359 
L 130.61164 284.029055 
L 131.439773 284.029055 
L 131.439773 282.881752 
L 134.236034 282.881752 
L 134.236034 282.3081 
L 134.492498 282.3081 
L 134.492498 281.160797 
L 134.828688 281.160797 
L 134.828688 280.587145 
L 135.076644 280.587145 
L 135.076644 280.013493 
L 137.910857 280.013493 
L 137.910857 279.439842 
L 138.358484 279.439842 
L 138.358484 278.292538 
L 138.959898 278.292538 
L 138.959898 277.718886 
L 139.667863 277.718886 
L 139.667863 277.145235 
L 140.589166 277.145235 
L 140.589166 276.571583 
L 141.492656 276.571583 
L 141.492656 275.997931 
L 141.634094 275.997931 
L 141.71841 274.850628 
L 142.619936 274.850628 
L 142.619936 273.703324 
L 144.653267 273.703324 
L 144.653267 273.129673 
L 145.212864 273.129673 
L 145.212864 272.556021 
L 145.910079 272.556021 
L 145.910079 271.982369 
L 146.538004 271.982369 
L 146.538004 271.408718 
L 146.833235 271.408718 
L 146.895853 269.687762 
L 148.48777 269.687762 
L 148.48777 269.114111 
L 149.085961 269.114111 
L 149.085961 268.540459 
L 149.682079 268.540459 
L 149.682079 267.966807 
L 150.051085 267.966807 
L 150.051085 266.819504 
L 150.344189 266.819504 
L 150.344189 266.245852 
L 150.463462 266.245852 
L 150.463462 265.6722 
L 150.833094 265.6722 
L 150.833094 263.951245 
L 151.0643 263.951245 
L 151.0643 263.377593 
L 151.740076 263.377593 
L 151.740076 262.803942 
L 151.912822 262.803942 
L 151.912822 262.23029 
L 152.114793 262.23029 
L 152.114793 261.656638 
L 152.405838 261.656638 
L 152.405838 261.082987 
L 152.647216 261.082987 
L 152.647216 260.509335 
L 152.870513 260.509335 
L 152.870513 259.935683 
L 153.438049 259.935683 
L 153.523746 257.067425 
L 153.580644 257.067425 
L 153.580644 256.493773 
L 153.946025 256.493773 
L 153.946025 255.920121 
L 154.180855 255.920121 
L 154.208275 254.199166 
L 154.303908 254.199166 
L 154.303908 253.625514 
L 154.641235 253.625514 
L 154.721232 252.478211 
L 154.972161 252.478211 
L 154.972161 251.904559 
L 155.258271 251.904559 
L 155.258271 250.757256 
L 155.425155 250.757256 
L 155.425155 250.183604 
L 155.55245 250.183604 
L 155.55245 249.036301 
L 155.953659 249.036301 
L 155.953659 247.888997 
L 156.08947 247.888997 
L 156.187581 245.59439 
L 156.30945 245.59439 
L 156.418408 244.447087 
L 156.918066 244.447087 
L 156.988292 243.299783 
L 157.081488 243.299783 
L 157.162628 241.005176 
L 157.208825 241.005176 
L 157.289376 238.136918 
L 157.392398 238.136918 
L 157.392398 237.563266 
L 157.630442 237.563266 
L 157.686643 236.415963 
L 157.798506 236.415963 
L 157.86528 235.268659 
L 158.271501 235.268659 
L 158.347301 232.974052 
L 158.625992 232.974052 
L 158.668475 231.826749 
L 158.742573 231.826749 
L 158.774233 230.679446 
L 158.889829 230.679446 
L 158.889829 230.105794 
L 159.221818 230.105794 
L 159.303838 227.237535 
L 159.375289 227.237535 
L 159.39565 226.090232 
L 159.597964 226.090232 
L 159.597964 225.51658 
L 159.966168 225.51658 
L 159.966168 224.942928 
L 160.230035 224.942928 
L 160.326759 223.221973 
L 160.365299 223.221973 
L 160.432539 222.07467 
L 160.556731 222.07467 
L 160.661129 219.206411 
L 160.680044 219.206411 
L 160.680044 218.632759 
L 160.970627 218.632759 
L 160.979921 217.485456 
L 161.21983 217.485456 
L 161.274728 212.896242 
L 161.347658 212.896242 
L 161.347658 212.322591 
L 161.654251 212.322591 
L 161.698887 210.601635 
L 161.96433 210.601635 
L 162.060656 208.88068 
L 162.225793 208.88068 
L 162.303474 206.586073 
L 162.363654 206.586073 
L 162.415072 203.717815 
L 162.474869 203.717815 
L 162.55145 202.570511 
L 162.636148 202.570511 
L 162.745644 199.702253 
L 162.979172 199.702253 
L 163.078306 197.981298 
L 163.201437 197.981298 
L 163.201437 197.407646 
L 163.315579 197.407646 
L 163.404741 193.965736 
L 163.549667 193.965736 
L 163.621681 192.24478 
L 163.669525 192.24478 
L 163.764822 189.950174 
L 164.094319 189.950174 
L 164.117618 187.081915 
L 164.325919 187.081915 
L 164.325919 185.934612 
L 164.455807 185.934612 
L 164.53934 182.492701 
L 164.802494 182.492701 
L 164.817412 180.771746 
L 164.921483 180.771746 
L 164.943704 179.050791 
L 165.054383 179.050791 
L 165.135103 177.903487 
L 165.178976 177.903487 
L 165.280918 173.314274 
L 165.295432 173.314274 
L 165.375047 171.019667 
L 165.439918 171.019667 
L 165.439918 170.446015 
L 165.633093 170.446015 
L 165.7041 169.298712 
L 165.824152 169.298712 
L 165.894387 168.151408 
L 166.08262 168.151408 
L 166.08262 167.004105 
L 166.303112 167.004105 
L 166.303112 166.430453 
L 166.668984 166.430453 
L 166.7626 161.841239 
L 166.802568 161.841239 
L 166.908703 156.678374 
L 166.941739 156.678374 
L 167.014197 155.53107 
L 167.105982 155.53107 
L 167.105982 154.957419 
L 167.294587 154.957419 
L 167.391347 150.941857 
L 167.410635 150.941857 
L 167.481174 149.220902 
L 167.595991 149.220902 
L 167.621403 148.073598 
L 167.722684 148.073598 
L 167.785687 144.631688 
L 167.860992 144.631688 
L 167.860992 144.058036 
L 167.979563 144.058036 
L 168.078792 140.616126 
L 168.109685 140.616126 
L 168.22045 138.321519 
L 168.238843 138.321519 
L 168.293904 134.305957 
L 168.385289 134.305957 
L 168.403509 132.01135 
L 168.506396 132.01135 
L 168.614678 129.716743 
L 168.72825 129.716743 
L 168.769907 127.995788 
L 168.841088 127.995788 
L 168.882476 126.274833 
L 168.964959 126.274833 
L 168.994323 123.406574 
L 169.181091 123.406574 
L 169.210094 120.538316 
L 169.400311 120.538316 
L 169.400311 119.391012 
L 169.537359 119.391012 
L 169.639443 117.096405 
L 169.729685 117.096405 
L 169.830653 111.359888 
L 169.853011 111.359888 
L 169.903212 109.065281 
L 170.058475 109.065281 
L 170.058475 107.917978 
L 170.343204 107.917978 
L 170.408256 105.049719 
L 170.456886 105.049719 
L 170.548375 101.607809 
L 170.601968 101.607809 
L 170.644724 100.460506 
L 170.767069 100.460506 
L 170.851674 98.73955 
L 170.904345 98.73955 
L 170.988289 95.871292 
L 171.024887 95.871292 
L 171.129034 93.003033 
L 171.2274 93.003033 
L 171.299527 87.840168 
L 171.366236 87.840168 
L 171.46837 82.103651 
L 171.690981 82.103651 
L 171.781236 79.809044 
L 171.811218 79.809044 
L 171.861073 76.940785 
L 171.930631 76.940785 
L 171.980146 74.072526 
L 172.07384 74.072526 
L 172.07384 73.498875 
L 172.322872 73.498875 
L 172.42439 69.483313 
L 172.448474 69.483313 
L 172.52532 67.188706 
L 172.673253 67.188706 
L 172.696997 66.041402 
L 172.852895 66.041402 
L 172.960734 61.452189 
L 172.970079 61.452189 
L 173.072554 56.862975 
L 173.307818 56.862975 
L 173.380978 52.847413 
L 173.688525 52.847413 
L 173.769034 48.258199 
L 173.813602 48.258199 
L 173.920102 44.816289 
L 173.933369 44.816289 
L 174.030352 41.94803 
L 174.122426 41.94803 
L 174.214017 36.785165 
L 174.274811 36.785165 
L 174.382848 32.195951 
L 174.387156 32.195951 
L 174.395768 29.327692 
L 174.498781 29.327692 
L 174.554327 28.180389 
L 174.6182 28.180389 
L 174.711458 25.31213 
L 174.770546 25.31213 
L 174.867186 21.87022 
L 175.03399 21.87022 
L 175.141564 17.854658 
L 175.199215 17.854658 
L 175.199215 17.281006 
L 175.334356 17.281006 
L 175.444152 15.560051 
L 175.500813 15.560051 
L 175.504853 14.412748 
L 175.701682 14.412748 
L 175.737594 13.265444 
L 175.825069 13.265444 
L 175.912107 10.397186 
L 175.994786 10.397186 
L 176.09661 8.102579 
L 176.406237 8.102579 
L 176.406237 7.528927 
L 177.168096 7.528927 
L 177.190115 6.381624 
L 338.688 6.381624 
L 338.688 6.381624 
" style="fill:none;stroke:#ff00ff;stroke-linecap:square;stroke-width:1.5;"/>
   </g>
   <g id="line2d_35">
    <defs>
     <path d="M -0 8.485281 
L 5.091169 0 
L 0 -8.485281 
L -5.091169 -0 
z
" id="m28a8665d3d" style="stroke:#ff00ff;stroke-linejoin:miter;stroke-width:1.5;"/>
    </defs>
    <g>
     <use style="fill-opacity:0;stroke:#ff00ff;stroke-linejoin:miter;stroke-width:1.5;" x="155.425155" xlink:href="#m28a8665d3d" y="250.183604"/>
     <use style="fill-opacity:0;stroke:#ff00ff;stroke-linejoin:miter;stroke-width:1.5;" x="168.841088" xlink:href="#m28a8665d3d" y="126.848485"/>
     <use style="fill-opacity:0;stroke:#ff00ff;stroke-linejoin:miter;stroke-width:1.5;" x="177.190115" xlink:href="#m28a8665d3d" y="6.955275"/>
     <use style="fill-opacity:0;stroke:#ff00ff;stroke-linejoin:miter;stroke-width:1.5;" x="177.190115" xlink:href="#m28a8665d3d" y="6.381624"/>
     <use style="fill-opacity:0;stroke:#ff00ff;stroke-linejoin:miter;stroke-width:1.5;" x="338.688" xlink:href="#m28a8665d3d" y="6.381624"/>
    </g>
   </g>
   <g id="line2d_36">
    <path style="fill:none;stroke:#ff00ff;stroke-linecap:square;stroke-width:1.5;"/>
    <g/>
   </g>
   <g id="line2d_37">
    <defs>
     <path d="M 0 1.5 
C 0.397805 1.5 0.77937 1.341951 1.06066 1.06066 
C 1.341951 0.77937 1.5 0.397805 1.5 0 
C 1.5 -0.397805 1.341951 -0.77937 1.06066 -1.06066 
C 0.77937 -1.341951 0.397805 -1.5 0 -1.5 
C -0.397805 -1.5 -0.77937 -1.341951 -1.06066 -1.06066 
C -1.341951 -0.77937 -1.5 -0.397805 -1.5 0 
C -1.5 0.397805 -1.341951 0.77937 -1.06066 1.06066 
C -0.77937 1.341951 -0.397805 1.5 0 1.5 
z
" id="m1d792ddadb" style="stroke:#ff7500;"/>
    </defs>
    <g>
     <use style="fill:#ff7500;stroke:#ff7500;" x="197.386154" xlink:href="#m1d792ddadb" y="6.381624"/>
     <use style="fill:#ff7500;stroke:#ff7500;" x="197.386154" xlink:href="#m1d792ddadb" y="6.381624"/>
    </g>
   </g>
   <g id="line2d_38">
    <path d="M 156.776762 298.944 
L 156.776762 297.796697 
L 157.437991 297.796697 
L 157.437991 297.223045 
L 158.293192 297.223045 
L 158.293192 294.928438 
L 158.444276 294.928438 
L 158.465753 293.781135 
L 158.636623 293.781135 
L 158.732007 291.486528 
L 158.753132 291.486528 
L 158.753132 290.339224 
L 159.232092 290.339224 
L 159.232092 289.765573 
L 159.426147 289.765573 
L 159.466728 287.470966 
L 159.597964 287.470966 
L 159.638147 286.323662 
L 159.768105 286.323662 
L 159.807898 285.176359 
L 160.064363 285.176359 
L 160.171742 282.881752 
L 160.326759 282.881752 
L 160.432539 279.439842 
L 160.783709 279.439842 
L 160.783709 278.292538 
L 160.961329 278.292538 
L 160.961329 275.42428 
L 161.546656 275.42428 
L 161.546656 274.850628 
L 161.7523 274.850628 
L 161.7523 273.703324 
L 161.867469 273.703324 
L 161.867469 273.129673 
L 161.999419 273.129673 
L 162.060656 271.982369 
L 162.130378 271.982369 
L 162.147765 269.687762 
L 162.251725 269.687762 
L 162.329291 266.245852 
L 162.432178 266.245852 
L 162.432178 265.6722 
L 162.55145 265.6722 
L 162.585379 262.803942 
L 162.745644 262.803942 
L 162.770815 261.082987 
L 163.004009 261.082987 
L 163.111226 258.214728 
L 163.225959 258.214728 
L 163.225959 257.067425 
L 163.339941 257.067425 
L 163.420904 255.346469 
L 163.725178 255.346469 
L 163.796472 253.625514 
L 163.930348 253.625514 
L 163.953867 251.330907 
L 164.325919 251.330907 
L 164.410075 249.036301 
L 164.486229 249.036301 
L 164.577177 246.741694 
L 164.891812 246.741694 
L 164.951104 244.447087 
L 165.113126 244.447087 
L 165.113126 243.873435 
L 165.331666 243.873435 
L 165.439918 242.15248 
L 165.468672 242.15248 
L 165.490206 241.005176 
L 165.753633 241.005176 
L 165.838222 238.136918 
L 166.006178 238.136918 
L 166.096483 234.695008 
L 166.144916 234.695008 
L 166.227632 233.547704 
L 166.357802 233.547704 
L 166.459886 232.400401 
L 166.507321 232.400401 
L 166.601807 231.253097 
L 166.735904 231.253097 
L 166.782596 230.105794 
L 167.384913 230.105794 
L 167.493969 227.237535 
L 167.538677 227.237535 
L 167.538677 226.663884 
L 167.678446 226.663884 
L 167.747913 222.07467 
L 167.960895 222.07467 
L 168.041647 219.780063 
L 168.084975 219.780063 
L 168.084975 219.206411 
L 168.22045 219.206411 
L 168.22045 218.632759 
L 168.391365 218.632759 
L 168.391365 218.059108 
L 168.584667 218.059108 
L 168.596677 216.911804 
L 169.011918 216.911804 
L 169.011918 215.764501 
L 169.134586 215.764501 
L 169.210094 214.617197 
L 169.53167 214.617197 
L 169.53167 214.043546 
L 169.763406 214.043546 
L 169.853011 210.027984 
L 170.157562 210.027984 
L 170.212368 207.733377 
L 170.310587 207.733377 
L 170.343204 204.291467 
L 170.429886 204.291467 
L 170.429886 203.717815 
L 170.639386 203.717815 
L 170.655397 201.99686 
L 170.893823 201.99686 
L 170.893823 201.423208 
L 171.412271 201.423208 
L 171.503976 199.702253 
L 171.620458 199.702253 
L 171.620458 199.128601 
L 171.796233 199.128601 
L 171.796233 197.981298 
L 171.965307 197.981298 
L 172.02459 195.686691 
L 172.132757 195.686691 
L 172.176814 193.392084 
L 172.249996 193.392084 
L 172.249996 192.818432 
L 172.366452 192.818432 
L 172.467718 189.950174 
L 172.881091 189.950174 
L 172.881091 189.376522 
L 173.298652 189.376522 
L 173.358148 187.081915 
L 173.412888 187.081915 
L 173.485609 185.36096 
L 173.526381 185.36096 
L 173.526381 184.787308 
L 173.688525 184.787308 
L 173.742239 183.066353 
L 173.893538 183.066353 
L 173.893538 182.492701 
L 174.025955 182.492701 
L 174.025955 180.771746 
L 174.248782 180.771746 
L 174.248782 180.198094 
L 174.443058 180.198094 
L 174.485938 177.329836 
L 174.584164 177.329836 
L 174.690307 174.461577 
L 174.766332 174.461577 
L 174.871376 173.314274 
L 174.917395 173.314274 
L 174.942445 172.16697 
L 175.108535 172.16697 
L 175.137439 170.446015 
L 175.232072 170.446015 
L 175.326195 167.004105 
L 175.358815 167.004105 
L 175.362888 165.28315 
L 175.480598 165.28315 
L 175.480598 164.709498 
L 175.621612 164.709498 
L 175.673699 162.988543 
L 175.805227 162.988543 
L 175.892364 158.972981 
L 175.923943 158.972981 
L 175.923943 158.399329 
L 176.166757 158.399329 
L 176.236623 155.53107 
L 176.29077 155.53107 
L 176.352448 153.810115 
L 176.517133 153.810115 
L 176.615961 150.941857 
L 176.665166 150.941857 
L 176.736832 148.64725 
L 176.883019 148.64725 
L 176.894213 147.499946 
L 177.050188 147.499946 
L 177.050188 146.926295 
L 177.212107 146.926295 
L 177.32165 145.778991 
L 177.372536 145.778991 
L 177.466646 143.484384 
L 177.527906 143.484384 
L 177.592536 141.763429 
L 177.674772 141.763429 
L 177.674772 140.616126 
L 177.809795 140.616126 
L 177.83102 138.321519 
L 177.98588 138.321519 
L 177.989384 137.174215 
L 178.208705 137.174215 
L 178.243265 135.45326 
L 178.360262 135.45326 
L 178.469664 134.305957 
L 178.574996 134.305957 
L 178.574996 133.732305 
L 178.75362 133.732305 
L 178.857257 130.864047 
L 178.867253 130.864047 
L 178.950337 125.127529 
L 179.079163 125.127529 
L 179.17107 123.406574 
L 179.226635 123.406574 
L 179.226635 122.832923 
L 179.41166 122.832923 
L 179.505048 119.391012 
L 179.553156 119.391012 
L 179.655346 117.670057 
L 179.807517 117.670057 
L 179.857946 115.37545 
L 179.939585 115.37545 
L 179.939585 114.801798 
L 180.076879 114.801798 
L 180.182234 110.212585 
L 180.250067 110.212585 
L 180.339082 108.49163 
L 180.394105 108.49163 
L 180.485426 103.902416 
L 180.558141 103.902416 
L 180.633564 101.034157 
L 180.684666 101.034157 
L 180.795373 98.165899 
L 180.863838 98.165899 
L 180.920194 97.018595 
L 181.085245 97.018595 
L 181.164269 94.723988 
L 181.222575 94.723988 
L 181.283587 91.85573 
L 181.399213 91.85573 
L 181.407854 90.134775 
L 181.522662 90.134775 
L 181.625347 87.266516 
L 181.735911 87.266516 
L 181.823298 85.545561 
L 181.949376 85.545561 
L 181.949376 84.971909 
L 182.110543 84.971909 
L 182.174044 81.529999 
L 182.374073 81.529999 
L 182.450191 79.809044 
L 182.53408 79.809044 
L 182.639047 77.514437 
L 182.647095 77.514437 
L 182.692632 73.498875 
L 182.786012 73.498875 
L 182.786012 72.351571 
L 182.937025 72.351571 
L 183.015983 71.204268 
L 183.24037 71.204268 
L 183.24037 70.630616 
L 183.497705 70.630616 
L 183.533431 69.483313 
L 183.637637 69.483313 
L 183.637637 68.909661 
L 183.796556 68.909661 
L 183.796556 68.336009 
L 183.97145 68.336009 
L 183.97145 67.762358 
L 184.220745 67.762358 
L 184.220745 67.188706 
L 184.468943 67.188706 
L 184.514788 66.041402 
L 184.653996 66.041402 
L 184.713659 63.746796 
L 184.978468 63.746796 
L 184.978468 63.173144 
L 185.141956 63.173144 
L 185.234693 62.02584 
L 185.432425 62.02584 
L 185.432425 61.452189 
L 185.706886 61.452189 
L 185.763059 60.304885 
L 185.959359 60.304885 
L 185.990385 58.58393 
L 186.26717 58.58393 
L 186.28895 57.436627 
L 186.896414 57.436627 
L 187.003294 56.289323 
L 187.17378 56.289323 
L 187.17378 55.715672 
L 187.324164 55.715672 
L 187.354905 54.568368 
L 187.7096 54.568368 
L 187.809631 51.700109 
L 188.285832 51.700109 
L 188.394199 48.831851 
L 188.538286 48.831851 
L 188.565051 47.684547 
L 188.753154 47.684547 
L 188.753154 47.110896 
L 188.920543 47.110896 
L 188.96354 45.963592 
L 189.082631 45.963592 
L 189.082631 45.389941 
L 189.252412 45.389941 
L 189.252412 44.816289 
L 189.489536 44.816289 
L 189.489536 44.242637 
L 189.716327 44.242637 
L 189.716327 43.668985 
L 189.880077 43.668985 
L 189.885391 42.521682 
L 190.176931 42.521682 
L 190.176931 41.94803 
L 190.395011 41.94803 
L 190.479089 40.227075 
L 190.508164 40.227075 
L 190.603601 38.50612 
L 190.671452 38.50612 
L 190.671452 37.932468 
L 190.973554 37.932468 
L 191.071449 36.211513 
L 191.265604 36.211513 
L 191.265604 35.637861 
L 191.391144 35.637861 
L 191.407381 34.490558 
L 191.666748 34.490558 
L 191.693911 31.622299 
L 191.862331 31.622299 
L 191.862331 31.048648 
L 191.988372 31.048648 
L 191.988372 30.474996 
L 192.118184 30.474996 
L 192.144653 29.327692 
L 192.24549 29.327692 
L 192.264042 27.606737 
L 192.448489 27.606737 
L 192.492773 26.459434 
L 192.709506 26.459434 
L 192.786156 25.31213 
L 192.828096 25.31213 
L 192.828096 24.738479 
L 192.956282 24.738479 
L 193.064357 22.443872 
L 193.277061 22.443872 
L 193.348358 21.296568 
L 193.574854 21.296568 
L 193.574854 20.722917 
L 193.703379 20.722917 
L 193.799862 18.42831 
L 194.054106 18.42831 
L 194.066652 17.281006 
L 194.213738 17.281006 
L 194.213738 16.707355 
L 194.380135 16.707355 
L 194.380135 16.133703 
L 194.685393 16.133703 
L 194.709584 14.412748 
L 194.893945 14.412748 
L 194.923157 13.265444 
L 195.233477 13.265444 
L 195.259523 12.118141 
L 196.019617 12.118141 
L 196.051978 10.970838 
L 196.170951 10.970838 
L 196.170951 10.397186 
L 196.347901 10.397186 
L 196.347901 9.823534 
L 196.480659 9.823534 
L 196.480659 9.249882 
L 196.904975 9.249882 
L 196.904975 8.102579 
L 197.23924 8.102579 
L 197.23924 7.528927 
L 197.386154 7.528927 
L 197.386154 6.381624 
L 338.688 6.381624 
L 338.688 6.381624 
" style="fill:none;stroke:#ff7500;stroke-linecap:square;stroke-width:1.5;"/>
   </g>
   <g id="line2d_39">
    <defs>
     <path d="M 0 -6 
L -1.347084 -1.854102 
L -5.706339 -1.854102 
L -2.179628 0.708204 
L -3.526712 4.854102 
L -0 2.291796 
L 3.526712 4.854102 
L 2.179628 0.708204 
L 5.706339 -1.854102 
L 1.347084 -1.854102 
z
" id="m4a565567f7" style="stroke:#ff7500;stroke-linejoin:bevel;stroke-width:1.5;"/>
    </defs>
    <g>
     <use style="fill-opacity:0;stroke:#ff7500;stroke-linejoin:bevel;stroke-width:1.5;" x="184.675498" xlink:href="#m4a565567f7" y="65.467751"/>
     <use style="fill-opacity:0;stroke:#ff7500;stroke-linejoin:bevel;stroke-width:1.5;" x="197.386154" xlink:href="#m4a565567f7" y="6.381624"/>
     <use style="fill-opacity:0;stroke:#ff7500;stroke-linejoin:bevel;stroke-width:1.5;" x="197.386154" xlink:href="#m4a565567f7" y="6.381624"/>
     <use style="fill-opacity:0;stroke:#ff7500;stroke-linejoin:bevel;stroke-width:1.5;" x="338.688" xlink:href="#m4a565567f7" y="6.381624"/>
    </g>
   </g>
   <g id="line2d_40">
    <path style="fill:none;stroke:#ff7500;stroke-linecap:square;stroke-width:1.5;"/>
    <g/>
   </g>
   <g id="line2d_41">
    <defs>
     <path d="M 0 1.5 
C 0.397805 1.5 0.77937 1.341951 1.06066 1.06066 
C 1.341951 0.77937 1.5 0.397805 1.5 0 
C 1.5 -0.397805 1.341951 -0.77937 1.06066 -1.06066 
C 0.77937 -1.341951 0.397805 -1.5 0 -1.5 
C -0.397805 -1.5 -0.77937 -1.341951 -1.06066 -1.06066 
C -1.341951 -0.77937 -1.5 -0.397805 -1.5 0 
C -1.5 0.397805 -1.341951 0.77937 -1.06066 1.06066 
C -0.77937 1.341951 -0.397805 1.5 0 1.5 
z
" id="m32d58f2eee" style="stroke:#6495ed;"/>
    </defs>
    <g>
     <use style="fill:#6495ed;stroke:#6495ed;" x="184.55811" xlink:href="#m32d58f2eee" y="6.381624"/>
     <use style="fill:#6495ed;stroke:#6495ed;" x="184.55811" xlink:href="#m32d58f2eee" y="6.381624"/>
    </g>
   </g>
   <g id="line2d_42">
    <path d="M 129.79784 298.944 
L 129.79784 297.796697 
L 134.994383 297.796697 
L 134.994383 297.223045 
L 136.073445 297.223045 
L 136.073445 296.649393 
L 137.37967 296.649393 
L 137.37967 296.075741 
L 138.69516 296.075741 
L 138.69516 295.50209 
L 139.188293 295.50209 
L 139.188293 294.928438 
L 139.980403 294.928438 
L 139.980403 294.354786 
L 141.002999 294.354786 
L 141.002999 293.207483 
L 142.024126 293.207483 
L 142.024126 292.633831 
L 143.324386 292.633831 
L 143.324386 291.486528 
L 143.828447 291.486528 
L 143.828447 290.912876 
L 143.976867 290.912876 
L 143.976867 290.339224 
L 144.510517 290.339224 
L 144.510517 289.765573 
L 145.418169 289.765573 
L 145.508645 286.897314 
L 146.150926 286.897314 
L 146.150926 286.323662 
L 146.791364 286.323662 
L 146.791364 285.75001 
L 147.266916 285.75001 
L 147.266916 285.176359 
L 147.769524 285.176359 
L 147.769524 284.602707 
L 148.083753 284.602707 
L 148.083753 284.029055 
L 148.449693 284.029055 
L 148.449693 282.881752 
L 148.620389 282.881752 
L 148.620389 282.3081 
L 148.919783 282.3081 
L 148.919783 281.734448 
L 149.395596 281.734448 
L 149.395596 281.160797 
L 149.521512 281.160797 
L 149.521512 280.013493 
L 149.646525 280.013493 
L 149.646525 279.439842 
L 150.292822 279.439842 
L 150.292822 278.86619 
L 150.412445 278.86619 
L 150.412445 278.292538 
L 150.531253 278.292538 
L 150.531253 277.718886 
L 150.998554 277.718886 
L 151.015013 276.571583 
L 151.227591 276.571583 
L 151.292481 274.850628 
L 151.357131 274.850628 
L 151.357131 274.276976 
L 151.708484 274.276976 
L 151.724287 273.129673 
L 152.021866 273.129673 
L 152.021866 272.556021 
L 152.360205 272.556021 
L 152.360205 271.982369 
L 152.496747 271.982369 
L 152.542024 269.687762 
L 153.207444 269.687762 
L 153.236437 268.540459 
L 153.395042 268.540459 
L 153.40939 267.393156 
L 153.665645 267.393156 
L 153.665645 266.819504 
L 153.959927 266.819504 
L 153.959927 266.245852 
L 154.587699 266.245852 
L 154.627867 263.951245 
L 154.827327 263.951245 
L 154.906477 261.656638 
L 155.55245 261.656638 
L 155.55245 260.509335 
L 155.916435 260.509335 
L 155.990803 258.214728 
L 156.064855 258.214728 
L 156.126326 257.067425 
L 156.538679 257.067425 
L 156.538679 256.493773 
L 156.788581 256.493773 
L 156.788581 255.920121 
L 157.081488 255.920121 
L 157.185742 253.625514 
L 157.652944 253.625514 
L 157.652944 253.051863 
L 157.831925 253.051863 
L 157.854169 251.904559 
L 158.228039 251.904559 
L 158.228039 251.330907 
L 158.530025 251.330907 
L 158.551397 250.183604 
L 158.784773 250.183604 
L 158.816356 249.036301 
L 159.149734 249.036301 
L 159.149734 248.462649 
L 159.283369 248.462649 
L 159.314063 246.741694 
L 159.486982 246.741694 
L 159.507213 245.020738 
L 160.044768 245.020738 
L 160.044768 244.447087 
L 160.171742 244.447087 
L 160.210625 243.299783 
L 160.307457 243.299783 
L 160.307457 242.15248 
L 160.642194 242.15248 
L 160.642194 241.005176 
L 160.961329 241.005176 
L 160.961329 240.431525 
L 161.347658 240.431525 
L 161.456484 237.563266 
L 161.528659 237.563266 
L 161.528659 236.415963 
L 161.64531 236.415963 
L 161.689969 235.268659 
L 161.858637 235.268659 
L 161.858637 234.695008 
L 162.156452 234.695008 
L 162.156452 234.121356 
L 162.38081 234.121356 
L 162.449267 232.974052 
L 162.52596 232.974052 
L 162.55145 231.253097 
L 163.004009 231.253097 
L 163.070067 228.95849 
L 163.225959 228.95849 
L 163.2749 227.237535 
L 163.437051 227.237535 
L 163.533623 225.51658 
L 163.549667 225.51658 
L 163.549667 224.942928 
L 163.7569 224.942928 
L 163.820172 223.221973 
L 164.109855 223.221973 
L 164.109855 222.648321 
L 164.531763 222.648321 
L 164.637547 220.353715 
L 164.652607 220.353715 
L 164.712717 218.632759 
L 164.839766 218.632759 
L 164.928893 216.338153 
L 164.98806 216.338153 
L 165.083779 215.190849 
L 165.113126 215.190849 
L 165.200871 214.043546 
L 165.280918 214.043546 
L 165.280918 213.469894 
L 165.432722 213.469894 
L 165.432722 212.896242 
L 166.054862 212.896242 
L 166.165632 209.454332 
L 166.186323 209.454332 
L 166.296264 207.159725 
L 166.46667 207.159725 
L 166.574863 206.012422 
L 166.682389 206.012422 
L 166.782596 204.291467 
L 167.11252 204.291467 
L 167.158215 203.144163 
L 167.255733 203.144163 
L 167.359153 200.849556 
L 167.372038 200.849556 
L 167.442734 199.702253 
L 167.51953 199.702253 
L 167.51953 199.128601 
L 167.773105 199.128601 
L 167.82338 197.407646 
L 167.960895 197.407646 
L 167.960895 196.833994 
L 168.214315 196.833994 
L 168.214315 196.260342 
L 168.584667 196.260342 
L 168.668567 193.392084 
L 168.740162 193.392084 
L 168.811464 191.671129 
L 168.870661 191.671129 
L 168.911979 190.523825 
L 169.052903 190.523825 
L 169.140406 189.376522 
L 169.175285 189.376522 
L 169.250616 188.229218 
L 169.331381 188.229218 
L 169.331381 187.655567 
L 169.463258 187.655567 
L 169.525979 185.934612 
L 169.616809 185.934612 
L 169.695899 184.787308 
L 169.763406 184.787308 
L 169.819463 183.640005 
L 169.903212 183.640005 
L 169.969922 182.492701 
L 170.02532 182.492701 
L 170.02532 181.345398 
L 170.195944 181.345398 
L 170.195944 180.771746 
L 170.348634 180.771746 
L 170.456886 177.329836 
L 170.478456 177.329836 
L 170.543006 176.182532 
L 170.660731 176.182532 
L 170.735235 175.035229 
L 170.835842 175.035229 
L 170.920115 173.314274 
L 170.9621 173.314274 
L 170.9621 172.740622 
L 171.170519 172.740622 
L 171.248038 171.019667 
L 171.345738 171.019667 
L 171.402051 168.151408 
L 171.46837 168.151408 
L 171.574971 166.430453 
L 171.585089 166.430453 
L 171.585089 165.856801 
L 171.885947 165.856801 
L 171.975201 163.562195 
L 172.019658 163.562195 
L 172.03938 161.841239 
L 172.264595 161.841239 
L 172.264595 161.267588 
L 172.405099 161.267588 
L 172.48694 158.972981 
L 172.563617 158.972981 
L 172.616138 157.825677 
L 172.753848 157.825677 
L 172.834072 156.678374 
L 172.895172 156.678374 
L 172.895172 156.104722 
L 173.030705 156.104722 
L 173.118935 154.957419 
L 173.202112 154.957419 
L 173.303236 153.810115 
L 173.367284 153.810115 
L 173.471997 150.368205 
L 173.485609 150.368205 
L 173.485609 149.794553 
L 173.621148 149.794553 
L 173.688525 148.64725 
L 173.751176 148.64725 
L 173.822502 145.20534 
L 173.906825 145.20534 
L 173.928948 144.058036 
L 174.200962 144.058036 
L 174.300801 141.189778 
L 174.391462 141.189778 
L 174.395768 140.042474 
L 174.515891 140.042474 
L 174.596935 137.174215 
L 174.630946 137.174215 
L 174.630946 136.600564 
L 174.766332 136.600564 
L 174.7916 134.879609 
L 174.913216 134.879609 
L 174.971626 133.732305 
L 175.042289 133.732305 
L 175.104402 132.01135 
L 175.162175 132.01135 
L 175.268964 130.290395 
L 175.456309 130.290395 
L 175.549233 127.422136 
L 175.633646 127.422136 
L 175.74158 124.553878 
L 175.876553 124.553878 
L 175.982999 121.685619 
L 176.209486 121.685619 
L 176.275317 120.538316 
L 176.3409 120.538316 
L 176.425408 119.391012 
L 176.570418 119.391012 
L 176.661386 117.096405 
L 176.684054 117.096405 
L 176.774433 115.37545 
L 176.830682 115.37545 
L 176.909128 113.654495 
L 176.968661 113.654495 
L 177.05758 110.786236 
L 177.08343 110.786236 
L 177.157076 108.49163 
L 177.426892 108.49163 
L 177.527906 105.623371 
L 177.585367 105.623371 
L 177.671204 104.476068 
L 177.731751 104.476068 
L 177.767269 102.755112 
L 178.020885 102.755112 
L 178.128954 98.73955 
L 178.135904 98.73955 
L 178.246718 96.444944 
L 178.284648 96.444944 
L 178.284648 95.871292 
L 178.418467 95.871292 
L 178.483291 93.003033 
L 178.605458 93.003033 
L 178.656109 90.708426 
L 178.750267 90.708426 
L 178.803844 87.266516 
L 178.913829 87.266516 
L 178.947021 84.971909 
L 179.085744 84.971909 
L 179.167796 81.529999 
L 179.272262 81.529999 
L 179.295031 80.382695 
L 179.41166 80.382695 
L 179.498623 78.088089 
L 179.588351 78.088089 
L 179.664896 74.646178 
L 179.715739 74.646178 
L 179.791727 71.204268 
L 179.86424 71.204268 
L 179.936452 69.483313 
L 180.111034 69.483313 
L 180.176054 66.615054 
L 180.329895 66.615054 
L 180.424599 64.894099 
L 180.461121 64.894099 
L 180.536964 63.173144 
L 180.576272 63.173144 
L 180.678662 61.452189 
L 180.690668 61.452189 
L 180.759545 59.731234 
L 180.804318 59.731234 
L 180.834104 58.010278 
L 180.937953 58.010278 
L 181.038247 53.994716 
L 181.085245 53.994716 
L 181.085245 53.421065 
L 181.269079 53.421065 
L 181.283587 51.126458 
L 181.494031 51.126458 
L 181.591186 47.110896 
L 181.704798 47.110896 
L 181.77825 44.816289 
L 181.837352 44.816289 
L 181.946584 41.374379 
L 181.996769 41.374379 
L 182.096708 38.50612 
L 182.113309 38.50612 
L 182.220831 34.490558 
L 182.24006 34.490558 
L 182.335888 32.769603 
L 182.461038 32.769603 
L 182.566445 31.622299 
L 182.579912 31.622299 
L 182.676574 29.327692 
L 182.697981 29.327692 
L 182.796652 25.885782 
L 182.88154 25.885782 
L 182.989704 23.591175 
L 183.013357 23.591175 
L 183.089357 21.296568 
L 183.188444 21.296568 
L 183.294726 17.281006 
L 183.302477 17.281006 
L 183.397795 15.560051 
L 183.420902 15.560051 
L 183.513025 13.265444 
L 183.541077 13.265444 
L 183.558904 12.118141 
L 183.678135 12.118141 
L 183.758849 9.823534 
L 183.956527 9.823534 
L 183.993809 8.676231 
L 184.274578 8.676231 
L 184.359879 6.955275 
L 184.55811 6.955275 
L 184.55811 6.381624 
L 338.688 6.381624 
L 338.688 6.381624 
" style="fill:none;stroke:#6495ed;stroke-linecap:square;stroke-width:1.5;"/>
   </g>
   <g id="line2d_43">
    <defs>
     <path d="M -0 6 
L 6 -6 
L -6 -6 
z
" id="m1e01ca3ede" style="stroke:#6495ed;stroke-linejoin:miter;stroke-width:1.5;"/>
    </defs>
    <g>
     <use style="fill-opacity:0;stroke:#6495ed;stroke-linejoin:miter;stroke-width:1.5;" x="169.969922" xlink:href="#m1e01ca3ede" y="182.492701"/>
     <use style="fill-opacity:0;stroke:#6495ed;stroke-linejoin:miter;stroke-width:1.5;" x="183.07366" xlink:href="#m1e01ca3ede" y="21.87022"/>
     <use style="fill-opacity:0;stroke:#6495ed;stroke-linejoin:miter;stroke-width:1.5;" x="184.55811" xlink:href="#m1e01ca3ede" y="6.381624"/>
     <use style="fill-opacity:0;stroke:#6495ed;stroke-linejoin:miter;stroke-width:1.5;" x="184.55811" xlink:href="#m1e01ca3ede" y="6.381624"/>
     <use style="fill-opacity:0;stroke:#6495ed;stroke-linejoin:miter;stroke-width:1.5;" x="338.688" xlink:href="#m1e01ca3ede" y="6.381624"/>
    </g>
   </g>
   <g id="line2d_44">
    <path style="fill:none;stroke:#6495ed;stroke-linecap:square;stroke-width:1.5;"/>
    <g/>
   </g>
   <g id="line2d_45">
    <defs>
     <path d="M 0 1.5 
C 0.397805 1.5 0.77937 1.341951 1.06066 1.06066 
C 1.341951 0.77937 1.5 0.397805 1.5 0 
C 1.5 -0.397805 1.341951 -0.77937 1.06066 -1.06066 
C 0.77937 -1.341951 0.397805 -1.5 0 -1.5 
C -0.397805 -1.5 -0.77937 -1.341951 -1.06066 -1.06066 
C -1.341951 -0.77937 -1.5 -0.397805 -1.5 0 
C -1.5 0.397805 -1.341951 0.77937 -1.06066 1.06066 
C -0.77937 1.341951 -0.397805 1.5 0 1.5 
z
" id="mdd9f42f82d" style="stroke:#ff0000;"/>
    </defs>
    <g>
     <use style="fill:#ff0000;stroke:#ff0000;" x="175.801256" xlink:href="#mdd9f42f82d" y="6.381624"/>
     <use style="fill:#ff0000;stroke:#ff0000;" x="175.801256" xlink:href="#mdd9f42f82d" y="6.381624"/>
    </g>
   </g>
   <g id="line2d_46">
    <path d="M 29.53256 298.944 
L 29.53256 284.602707 
L 41.620548 284.602707 
L 41.620548 277.718886 
L 48.691568 277.718886 
L 48.691568 271.982369 
L 53.708537 271.982369 
L 53.708537 270.261414 
L 63.467834 270.261414 
L 63.467834 269.687762 
L 65.796525 269.687762 
L 65.796525 269.114111 
L 67.850577 269.114111 
L 67.850577 267.393156 
L 69.687988 267.393156 
L 69.687988 266.245852 
L 72.867545 266.245852 
L 72.867545 264.524897 
L 74.263433 264.524897 
L 74.263433 263.377593 
L 79.938565 263.377593 
L 79.938565 262.803942 
L 81.775977 262.803942 
L 81.775977 259.935683 
L 82.626842 259.935683 
L 82.626842 259.362031 
L 83.438118 259.362031 
L 83.438118 258.78838 
L 91.535274 258.78838 
L 91.535274 257.067425 
L 92.026554 257.067425 
L 92.026554 256.493773 
L 92.504372 256.493773 
L 92.504372 255.920121 
L 96.676366 255.920121 
L 96.676366 255.346469 
L 97.043522 255.346469 
L 97.043522 254.772818 
L 99.41757 254.772818 
L 99.41757 254.199166 
L 99.731799 254.199166 
L 99.731799 253.625514 
L 100.641881 253.625514 
L 100.641881 253.051863 
L 100.934985 253.051863 
L 100.934985 252.478211 
L 104.826449 252.478211 
L 104.826449 251.904559 
L 110.188761 251.904559 
L 110.188761 250.757256 
L 111.346294 250.757256 
L 111.346294 250.183604 
L 111.819788 250.183604 
L 111.819788 249.609952 
L 112.72987 249.609952 
L 112.72987 249.036301 
L 116.443076 249.036301 
L 116.443076 248.462649 
L 117.486268 248.462649 
L 117.486268 247.888997 
L 118.994305 247.888997 
L 118.994305 247.315345 
L 119.996839 247.315345 
L 119.996839 246.741694 
L 121.036887 246.741694 
L 121.036887 246.168042 
L 122.531342 246.168042 
L 122.531342 245.59439 
L 123.273551 245.59439 
L 123.354102 242.726132 
L 123.434283 242.726132 
L 123.434283 242.15248 
L 123.907776 242.15248 
L 123.907776 241.578828 
L 125.822869 241.578828 
L 125.822869 241.005176 
L 125.961828 241.005176 
L 125.961828 240.431525 
L 126.50685 240.431525 
L 126.50685 239.857873 
L 127.421479 239.857873 
L 127.421479 238.71057 
L 127.611382 238.71057 
L 127.611382 238.136918 
L 128.229861 238.136918 
L 128.229861 236.989614 
L 128.768338 236.989614 
L 128.768338 236.415963 
L 129.574256 236.415963 
L 129.574256 235.268659 
L 129.79784 235.268659 
L 129.79784 234.695008 
L 130.822389 234.695008 
L 130.822389 234.121356 
L 132.517825 234.121356 
L 132.612604 232.400401 
L 133.216421 232.400401 
L 133.216421 231.826749 
L 136.266147 231.826749 
L 136.266147 231.253097 
L 137.980475 231.253097 
L 137.980475 230.679446 
L 138.187677 230.679446 
L 138.187677 230.105794 
L 138.392446 230.105794 
L 138.392446 229.532142 
L 138.561269 229.532142 
L 138.561269 228.95849 
L 138.959898 228.95849 
L 138.959898 228.384839 
L 139.477614 228.384839 
L 139.477614 227.811187 
L 139.730821 227.811187 
L 139.730821 227.237535 
L 141.002999 227.237535 
L 141.002999 226.663884 
L 141.235139 226.663884 
L 141.235139 226.090232 
L 141.46423 226.090232 
L 141.492656 224.942928 
L 141.577657 224.942928 
L 141.605898 223.795625 
L 142.270332 223.795625 
L 142.324576 222.648321 
L 142.646541 222.648321 
L 142.673105 220.927366 
L 143.728793 220.927366 
L 143.728793 220.353715 
L 143.927534 220.353715 
L 143.952218 218.059108 
L 144.050606 218.059108 
L 144.075117 216.911804 
L 144.438701 216.911804 
L 144.486611 215.764501 
L 144.55823 215.764501 
L 144.55823 215.190849 
L 144.700592 215.190849 
L 144.700592 214.043546 
L 145.005114 214.043546 
L 145.005114 213.469894 
L 145.777292 213.469894 
L 145.777292 212.896242 
L 145.998045 212.896242 
L 145.998045 211.175287 
L 146.129168 211.175287 
L 146.172658 210.027984 
L 146.259313 210.027984 
L 146.259313 209.454332 
L 146.895853 209.454332 
L 146.895853 208.88068 
L 147.205618 208.88068 
L 147.205618 207.733377 
L 147.348313 207.733377 
L 147.348313 207.159725 
L 148.219468 207.159725 
L 148.219468 206.586073 
L 148.373289 206.586073 
L 148.468742 205.43877 
L 148.639252 205.43877 
L 148.639252 204.865118 
L 148.956849 204.865118 
L 148.993835 203.144163 
L 149.085961 203.144163 
L 149.085961 202.570511 
L 149.539426 202.570511 
L 149.610898 201.423208 
L 150.120495 201.423208 
L 150.224095 199.702253 
L 150.446473 199.702253 
L 150.49739 198.554949 
L 150.632448 198.554949 
L 150.632448 197.981298 
L 150.816462 197.981298 
L 150.833094 196.833994 
L 150.94908 196.833994 
L 150.94908 196.260342 
L 151.21133 196.260342 
L 151.21133 195.686691 
L 151.597455 195.686691 
L 151.597455 195.113039 
L 151.787359 195.113039 
L 151.818809 192.818432 
L 151.959639 192.818432 
L 152.068392 191.671129 
L 152.253262 191.671129 
L 152.283884 190.523825 
L 152.647216 190.523825 
L 152.647216 189.376522 
L 152.796398 189.376522 
L 152.796398 188.80287 
L 152.988446 188.80287 
L 152.988446 187.081915 
L 153.105587 187.081915 
L 153.105587 186.508263 
L 153.308709 186.508263 
L 153.308709 185.934612 
L 153.693887 185.934612 
L 153.693887 183.640005 
L 153.946025 183.640005 
L 153.946025 183.066353 
L 154.399019 183.066353 
L 154.399019 182.492701 
L 154.654594 182.492701 
L 154.654594 181.91905 
L 154.93278 181.91905 
L 155.011454 180.198094 
L 155.258271 180.198094 
L 155.258271 179.050791 
L 155.716556 179.050791 
L 155.766741 177.329836 
L 155.904009 177.329836 
L 155.916435 176.182532 
L 156.077167 176.182532 
L 156.175347 171.019667 
L 156.418408 171.019667 
L 156.418408 169.872363 
L 156.550661 169.872363 
L 156.550661 169.298712 
L 156.705677 169.298712 
L 156.705677 168.151408 
L 156.835778 168.151408 
L 156.92979 165.856801 
L 157.208825 165.856801 
L 157.208825 164.135846 
L 157.369557 164.135846 
L 157.369557 163.562195 
L 157.56276 163.562195 
L 157.56276 162.988543 
L 157.84305 162.988543 
L 157.84305 161.841239 
L 158.140788 161.841239 
L 158.140788 160.693936 
L 158.260646 160.693936 
L 158.358103 158.972981 
L 158.412011 158.972981 
L 158.412011 158.399329 
L 158.551397 158.399329 
L 158.657864 156.678374 
L 158.732007 156.678374 
L 158.753132 154.957419 
L 159.015067 154.957419 
L 159.015067 154.383767 
L 159.180664 154.383767 
L 159.180664 153.236464 
L 159.334496 153.236464 
L 159.354904 151.515508 
L 159.486982 151.515508 
L 159.567767 150.368205 
L 159.837683 150.368205 
L 159.837683 149.794553 
L 159.956318 149.794553 
L 159.956318 148.64725 
L 160.113253 148.64725 
L 160.113253 148.073598 
L 160.268789 148.073598 
L 160.268789 147.499946 
L 160.394148 147.499946 
L 160.432539 145.778991 
L 160.537682 145.778991 
L 160.537682 144.631688 
L 160.793103 144.631688 
L 160.793103 144.058036 
L 161.201492 144.058036 
L 161.201492 143.484384 
L 161.329454 143.484384 
L 161.411222 141.763429 
L 161.519653 141.763429 
L 161.618459 140.616126 
L 161.858637 140.616126 
L 161.92917 139.468822 
L 161.973109 139.468822 
L 161.973109 138.895171 
L 162.165135 138.895171 
L 162.225793 136.600564 
L 162.303474 136.600564 
L 162.303474 136.026912 
L 162.474869 136.026912 
L 162.508946 133.158653 
L 162.593851 133.158653 
L 162.627697 132.01135 
L 162.887802 132.01135 
L 162.887802 130.864047 
L 163.078306 130.864047 
L 163.144084 129.716743 
L 163.323704 129.716743 
L 163.388564 127.995788 
L 163.573705 127.995788 
L 163.573705 127.422136 
L 163.701348 127.422136 
L 163.77274 125.127529 
L 163.875347 125.127529 
L 163.977355 121.111967 
L 163.992995 121.111967 
L 164.078769 118.243709 
L 164.531763 118.243709 
L 164.599841 115.37545 
L 164.712717 115.37545 
L 164.787563 113.654495 
L 165.14974 113.654495 
L 165.230021 110.212585 
L 165.288176 110.212585 
L 165.375047 107.917978 
L 165.403908 107.917978 
L 165.403908 107.344326 
L 165.661531 107.344326 
L 165.697012 105.623371 
L 166.034014 105.623371 
L 166.034014 105.049719 
L 166.179429 105.049719 
L 166.24825 103.902416 
L 166.378267 103.902416 
L 166.378267 102.755112 
L 166.635428 102.755112 
L 166.695783 98.165899 
L 166.775933 98.165899 
L 166.855717 95.871292 
L 167.020769 95.871292 
L 167.020769 95.29764 
L 167.164734 95.29764 
L 167.164734 94.723988 
L 167.352708 94.723988 
L 167.436318 91.85573 
L 167.481174 91.85573 
L 167.51953 89.561123 
L 167.860992 89.561123 
L 167.929737 88.413819 
L 168.01684 88.413819 
L 168.01684 87.840168 
L 168.152844 87.840168 
L 168.152844 87.266516 
L 168.306117 87.266516 
L 168.415645 85.545561 
L 168.626667 85.545561 
L 168.710367 81.529999 
L 168.77585 81.529999 
L 168.882476 79.809044 
L 168.917874 79.809044 
L 168.917874 79.235392 
L 169.041203 79.235392 
L 169.087957 77.514437 
L 169.210094 77.514437 
L 169.227472 75.793482 
L 169.325624 75.793482 
L 169.394577 73.498875 
L 169.457545 73.498875 
L 169.457545 72.925223 
L 169.599814 72.925223 
L 169.639443 71.77792 
L 169.746554 71.77792 
L 169.853011 69.483313 
L 169.897641 69.483313 
L 169.936599 66.615054 
L 170.014255 66.615054 
L 170.030851 65.467751 
L 170.184987 65.467751 
L 170.261547 63.746796 
L 170.348634 63.746796 
L 170.429886 62.599492 
L 170.58055 62.599492 
L 170.682051 60.878537 
L 170.698023 60.878537 
L 170.740545 59.157582 
L 170.856948 59.157582 
L 170.967341 55.14202 
L 170.988289 55.14202 
L 171.050982 53.994716 
L 171.103055 53.994716 
L 171.103055 53.421065 
L 171.361114 53.421065 
L 171.407162 51.126458 
L 171.559782 51.126458 
L 171.67086 49.979154 
L 171.680924 49.979154 
L 171.680924 49.405503 
L 171.856094 49.405503 
L 171.955406 47.110896 
L 171.994974 47.110896 
L 171.994974 42.521682 
L 172.122951 42.521682 
L 172.191475 39.653423 
L 172.288901 39.653423 
L 172.347097 38.50612 
L 172.405099 38.50612 
L 172.472525 35.637861 
L 172.60183 35.637861 
L 172.60183 35.06421 
L 172.720707 35.06421 
L 172.758578 33.343255 
L 172.876395 33.343255 
L 172.965407 30.474996 
L 173.021392 30.474996 
L 173.08184 27.033086 
L 173.275715 27.033086 
L 173.335289 25.31213 
L 173.471997 25.31213 
L 173.471997 24.164827 
L 173.585107 24.164827 
L 173.666095 21.296568 
L 173.706448 21.296568 
L 173.804698 19.001962 
L 173.858056 19.001962 
L 173.942208 17.854658 
L 173.986335 17.854658 
L 174.017159 16.707355 
L 174.144277 16.707355 
L 174.222715 14.412748 
L 174.261802 14.412748 
L 174.348349 12.691793 
L 174.511615 12.691793 
L 174.579904 9.249882 
L 174.630946 9.249882 
L 174.664891 8.102579 
L 174.7916 8.102579 
L 174.7916 7.528927 
L 175.050583 7.528927 
L 175.050583 6.955275 
L 175.801256 6.955275 
L 175.801256 6.381624 
L 338.688 6.381624 
L 338.688 6.381624 
" style="fill:none;stroke:#ff0000;stroke-linecap:square;stroke-width:1.5;"/>
   </g>
   <g id="line2d_47">
    <defs>
     <path d="M 0 -6 
L -5.196152 -3 
L -5.196152 3 
L -0 6 
L 5.196152 3 
L 5.196152 -3 
z
" id="mb0891f6a77" style="stroke:#ff0000;stroke-linejoin:miter;stroke-width:1.5;"/>
    </defs>
    <g>
     <use style="fill-opacity:0;stroke:#ff0000;stroke-linejoin:miter;stroke-width:1.5;" x="67.850577" xlink:href="#mb0891f6a77" y="267.393156"/>
     <use style="fill-opacity:0;stroke:#ff0000;stroke-linejoin:miter;stroke-width:1.5;" x="156.835778" xlink:href="#mb0891f6a77" y="168.151408"/>
     <use style="fill-opacity:0;stroke:#ff0000;stroke-linejoin:miter;stroke-width:1.5;" x="175.801256" xlink:href="#mb0891f6a77" y="6.955275"/>
     <use style="fill-opacity:0;stroke:#ff0000;stroke-linejoin:miter;stroke-width:1.5;" x="175.801256" xlink:href="#mb0891f6a77" y="6.381624"/>
     <use style="fill-opacity:0;stroke:#ff0000;stroke-linejoin:miter;stroke-width:1.5;" x="175.801256" xlink:href="#mb0891f6a77" y="6.381624"/>
     <use style="fill-opacity:0;stroke:#ff0000;stroke-linejoin:miter;stroke-width:1.5;" x="338.688" xlink:href="#mb0891f6a77" y="6.381624"/>
    </g>
   </g>
   <g id="line2d_48">
    <path style="fill:none;stroke:#ff0000;stroke-linecap:square;stroke-width:1.5;"/>
    <g/>
   </g>
   <g id="line2d_49">
    <path d="M 338.688 6.381624 
L 369.60768 293.092752 
" style="fill:none;stroke:#ff7500;stroke-linecap:square;stroke-width:1.5;"/>
    <g>
     <use style="fill-opacity:0;stroke:#ff7500;stroke-linejoin:bevel;stroke-width:1.5;" x="338.688" xlink:href="#m4a565567f7" y="6.381624"/>
     <use style="fill-opacity:0;stroke:#ff7500;stroke-linejoin:bevel;stroke-width:1.5;" x="369.60768" xlink:href="#m4a565567f7" y="293.092752"/>
    </g>
   </g>
   <g id="line2d_50">
    <path d="M 338.688 6.381624 
L 369.60768 222.877782 
" style="fill:none;stroke:#6495ed;stroke-linecap:square;stroke-width:1.5;"/>
    <g>
     <use style="fill-opacity:0;stroke:#6495ed;stroke-linejoin:miter;stroke-width:1.5;" x="338.688" xlink:href="#m1e01ca3ede" y="6.381624"/>
     <use style="fill-opacity:0;stroke:#6495ed;stroke-linejoin:miter;stroke-width:1.5;" x="369.60768" xlink:href="#m1e01ca3ede" y="222.877782"/>
    </g>
   </g>
   <g id="line2d_51">
    <path d="M 338.688 6.381624 
L 369.60768 152.662812 
" style="fill:none;stroke:#000080;stroke-linecap:square;stroke-width:1.5;"/>
    <g>
     <use style="fill-opacity:0;stroke:#000080;stroke-width:1.5;" x="338.688" xlink:href="#m2ca7360a4a" y="6.381624"/>
     <use style="fill-opacity:0;stroke:#000080;stroke-width:1.5;" x="369.60768" xlink:href="#m2ca7360a4a" y="152.662812"/>
    </g>
   </g>
   <g id="line2d_52">
    <path d="M 338.688 6.381624 
L 369.60768 82.447842 
" style="fill:none;stroke:#ff00ff;stroke-linecap:square;stroke-width:1.5;"/>
    <g>
     <use style="fill-opacity:0;stroke:#ff00ff;stroke-linejoin:miter;stroke-width:1.5;" x="338.688" xlink:href="#m28a8665d3d" y="6.381624"/>
     <use style="fill-opacity:0;stroke:#ff00ff;stroke-linejoin:miter;stroke-width:1.5;" x="369.60768" xlink:href="#m28a8665d3d" y="82.447842"/>
    </g>
   </g>
   <g id="line2d_53">
    <path d="M 338.688 6.381624 
L 369.60768 12.232871 
" style="fill:none;stroke:#ff0000;stroke-linecap:square;stroke-width:1.5;"/>
    <g>
     <use style="fill-opacity:0;stroke:#ff0000;stroke-linejoin:miter;stroke-width:1.5;" x="338.688" xlink:href="#mb0891f6a77" y="6.381624"/>
     <use style="fill-opacity:0;stroke:#ff0000;stroke-linejoin:miter;stroke-width:1.5;" x="369.60768" xlink:href="#mb0891f6a77" y="12.232871"/>
    </g>
   </g>
   <g id="line2d_54">
    <path d="M 338.688 298.944 
L 338.688 6.381624 
" style="fill:none;stroke:#000000;stroke-linecap:square;stroke-width:1.5;"/>
   </g>
   <g id="patch_3">
    <path d="M 57.6 298.944 
L 57.6 3.456 
" style="fill:none;stroke:#000000;stroke-linecap:square;stroke-linejoin:miter;stroke-width:0.8;"/>
   </g>
   <g id="patch_4">
    <path d="M 338.688 298.944 
L 338.688 3.456 
" style="fill:none;stroke:#000000;stroke-linecap:square;stroke-linejoin:miter;stroke-width:0.8;"/>
   </g>
   <g id="patch_5">
    <path d="M 57.6 298.944 
L 338.688 298.944 
" style="fill:none;stroke:#000000;stroke-linecap:square;stroke-linejoin:miter;stroke-width:0.8;"/>
   </g>
   <g id="patch_6">
    <path d="M 57.6 3.456 
L 338.688 3.456 
" style="fill:none;stroke:#000000;stroke-linecap:square;stroke-linejoin:miter;stroke-width:0.8;"/>
   </g>
   <g id="text_13">
    <!-- f12 -->
    <g transform="translate(375.22944 297.78369)scale(0.17 -0.17)">
     <use xlink:href="#DejaVuSans-66"/>
     <use x="35.205078" xlink:href="#DejaVuSans-31"/>
     <use x="98.828125" xlink:href="#DejaVuSans-32"/>
    </g>
   </g>
   <g id="text_14">
    <!-- f13 -->
    <g transform="translate(375.22944 227.56872)scale(0.17 -0.17)">
     <defs>
      <path d="M 2597 2516 
Q 3050 2419 3304 2112 
Q 3559 1806 3559 1356 
Q 3559 666 3084 287 
Q 2609 -91 1734 -91 
Q 1441 -91 1130 -33 
Q 819 25 488 141 
L 488 750 
Q 750 597 1062 519 
Q 1375 441 1716 441 
Q 2309 441 2620 675 
Q 2931 909 2931 1356 
Q 2931 1769 2642 2001 
Q 2353 2234 1838 2234 
L 1294 2234 
L 1294 2753 
L 1863 2753 
Q 2328 2753 2575 2939 
Q 2822 3125 2822 3475 
Q 2822 3834 2567 4026 
Q 2313 4219 1838 4219 
Q 1578 4219 1281 4162 
Q 984 4106 628 3988 
L 628 4550 
Q 988 4650 1302 4700 
Q 1616 4750 1894 4750 
Q 2613 4750 3031 4423 
Q 3450 4097 3450 3541 
Q 3450 3153 3228 2886 
Q 3006 2619 2597 2516 
z
" id="DejaVuSans-33" transform="scale(0.015625)"/>
     </defs>
     <use xlink:href="#DejaVuSans-66"/>
     <use x="35.205078" xlink:href="#DejaVuSans-31"/>
     <use x="98.828125" xlink:href="#DejaVuSans-33"/>
    </g>
   </g>
   <g id="text_15">
    <!-- f10 -->
    <g transform="translate(375.22944 157.353749)scale(0.17 -0.17)">
     <use xlink:href="#DejaVuSans-66"/>
     <use x="35.205078" xlink:href="#DejaVuSans-31"/>
     <use x="98.828125" xlink:href="#DejaVuSans-30"/>
    </g>
   </g>
   <g id="text_16">
    <!-- f11 -->
    <g transform="translate(375.22944 87.138779)scale(0.17 -0.17)">
     <use xlink:href="#DejaVuSans-66"/>
     <use x="35.205078" xlink:href="#DejaVuSans-31"/>
     <use x="98.828125" xlink:href="#DejaVuSans-31"/>
    </g>
   </g>
   <g id="text_17">
    <!-- f14 -->
    <g transform="translate(375.22944 16.923809)scale(0.17 -0.17)">
     <use xlink:href="#DejaVuSans-66"/>
     <use x="35.205078" xlink:href="#DejaVuSans-31"/>
     <use x="98.828125" xlink:href="#DejaVuSans-34"/>
    </g>
   </g>
   <g id="text_18">
    <!-- bbob -->
    <g transform="translate(60.41088 14.161286)scale(0.102 -0.102)">
     <defs>
      <path d="M 3116 1747 
Q 3116 2381 2855 2742 
Q 2594 3103 2138 3103 
Q 1681 3103 1420 2742 
Q 1159 2381 1159 1747 
Q 1159 1113 1420 752 
Q 1681 391 2138 391 
Q 2594 391 2855 752 
Q 3116 1113 3116 1747 
z
M 1159 2969 
Q 1341 3281 1617 3432 
Q 1894 3584 2278 3584 
Q 2916 3584 3314 3078 
Q 3713 2572 3713 1747 
Q 3713 922 3314 415 
Q 2916 -91 2278 -91 
Q 1894 -91 1617 61 
Q 1341 213 1159 525 
L 1159 0 
L 581 0 
L 581 4863 
L 1159 4863 
L 1159 2969 
z
" id="DejaVuSans-62" transform="scale(0.015625)"/>
     </defs>
     <use xlink:href="#DejaVuSans-62"/>
     <use x="63.476562" xlink:href="#DejaVuSans-62"/>
     <use x="126.953125" xlink:href="#DejaVuSans-6f"/>
     <use x="188.134766" xlink:href="#DejaVuSans-62"/>
    </g>
    <!-- Ill-conditioned functions, 5-D -->
    <g transform="translate(60.41088 25.583055)scale(0.102 -0.102)">
     <defs>
      <path d="M 628 4666 
L 1259 4666 
L 1259 0 
L 628 0 
L 628 4666 
z
" id="DejaVuSans-49" transform="scale(0.015625)"/>
      <path d="M 691 4666 
L 3169 4666 
L 3169 4134 
L 1269 4134 
L 1269 2991 
Q 1406 3038 1543 3061 
Q 1681 3084 1819 3084 
Q 2600 3084 3056 2656 
Q 3513 2228 3513 1497 
Q 3513 744 3044 326 
Q 2575 -91 1722 -91 
Q 1428 -91 1123 -41 
Q 819 9 494 109 
L 494 744 
Q 775 591 1075 516 
Q 1375 441 1709 441 
Q 2250 441 2565 725 
Q 2881 1009 2881 1497 
Q 2881 1984 2565 2268 
Q 2250 2553 1709 2553 
Q 1456 2553 1204 2497 
Q 953 2441 691 2322 
L 691 4666 
z
" id="DejaVuSans-35" transform="scale(0.015625)"/>
      <path d="M 1259 4147 
L 1259 519 
L 2022 519 
Q 2988 519 3436 956 
Q 3884 1394 3884 2338 
Q 3884 3275 3436 3711 
Q 2988 4147 2022 4147 
L 1259 4147 
z
M 628 4666 
L 1925 4666 
Q 3281 4666 3915 4102 
Q 4550 3538 4550 2338 
Q 4550 1131 3912 565 
Q 3275 0 1925 0 
L 628 0 
L 628 4666 
z
" id="DejaVuSans-44" transform="scale(0.015625)"/>
     </defs>
     <use xlink:href="#DejaVuSans-49"/>
     <use x="29.492188" xlink:href="#DejaVuSans-6c"/>
     <use x="57.275391" xlink:href="#DejaVuSans-6c"/>
     <use x="85.058594" xlink:href="#DejaVuSans-2d"/>
     <use x="121.142578" xlink:href="#DejaVuSans-63"/>
     <use x="176.123047" xlink:href="#DejaVuSans-6f"/>
     <use x="237.304688" xlink:href="#DejaVuSans-6e"/>
     <use x="300.683594" xlink:href="#DejaVuSans-64"/>
     <use x="364.160156" xlink:href="#DejaVuSans-69"/>
     <use x="391.943359" xlink:href="#DejaVuSans-74"/>
     <use x="431.152344" xlink:href="#DejaVuSans-69"/>
     <use x="458.935547" xlink:href="#DejaVuSans-6f"/>
     <use x="520.117188" xlink:href="#DejaVuSans-6e"/>
     <use x="583.496094" xlink:href="#DejaVuSans-65"/>
     <use x="645.019531" xlink:href="#DejaVuSans-64"/>
     <use x="708.496094" xlink:href="#DejaVuSans-20"/>
     <use x="740.283203" xlink:href="#DejaVuSans-66"/>
     <use x="775.488281" xlink:href="#DejaVuSans-75"/>
     <use x="838.867188" xlink:href="#DejaVuSans-6e"/>
     <use x="902.246094" xlink:href="#DejaVuSans-63"/>
     <use x="957.226562" xlink:href="#DejaVuSans-74"/>
     <use x="996.435547" xlink:href="#DejaVuSans-69"/>
     <use x="1024.21875" xlink:href="#DejaVuSans-6f"/>
     <use x="1085.400391" xlink:href="#DejaVuSans-6e"/>
     <use x="1148.779297" xlink:href="#DejaVuSans-73"/>
     <use x="1200.878906" xlink:href="#DejaVuSans-2c"/>
     <use x="1232.666016" xlink:href="#DejaVuSans-20"/>
     <use x="1264.453125" xlink:href="#DejaVuSans-35"/>
     <use x="1328.076172" xlink:href="#DejaVuSans-2d"/>
     <use x="1364.160156" xlink:href="#DejaVuSans-44"/>
    </g>
    <!-- 51 targets: 100..1e-08 -->
    <g transform="translate(60.41088 37.004824)scale(0.102 -0.102)">
     <defs>
      <path d="M 750 794 
L 1409 794 
L 1409 0 
L 750 0 
L 750 794 
z
M 750 3309 
L 1409 3309 
L 1409 2516 
L 750 2516 
L 750 3309 
z
" id="DejaVuSans-3a" transform="scale(0.015625)"/>
     </defs>
     <use xlink:href="#DejaVuSans-35"/>
     <use x="63.623047" xlink:href="#DejaVuSans-31"/>
     <use x="127.246094" xlink:href="#DejaVuSans-20"/>
     <use x="159.033203" xlink:href="#DejaVuSans-74"/>
     <use x="198.242188" xlink:href="#DejaVuSans-61"/>
     <use x="259.521484" xlink:href="#DejaVuSans-72"/>
     <use x="298.884766" xlink:href="#DejaVuSans-67"/>
     <use x="362.361328" xlink:href="#DejaVuSans-65"/>
     <use x="423.884766" xlink:href="#DejaVuSans-74"/>
     <use x="463.09375" xlink:href="#DejaVuSans-73"/>
     <use x="515.193359" xlink:href="#DejaVuSans-3a"/>
     <use x="548.884766" xlink:href="#DejaVuSans-20"/>
     <use x="580.671875" xlink:href="#DejaVuSans-31"/>
     <use x="644.294922" xlink:href="#DejaVuSans-30"/>
     <use x="707.917969" xlink:href="#DejaVuSans-30"/>
     <use x="771.541016" xlink:href="#DejaVuSans-2e"/>
     <use x="803.328125" xlink:href="#DejaVuSans-2e"/>
     <use x="835.115234" xlink:href="#DejaVuSans-31"/>
     <use x="898.738281" xlink:href="#DejaVuSans-65"/>
     <use x="960.261719" xlink:href="#DejaVuSans-2d"/>
     <use x="996.345703" xlink:href="#DejaVuSans-30"/>
     <use x="1059.96875" xlink:href="#DejaVuSans-38"/>
    </g>
    <!-- 15 instances -->
    <g transform="translate(60.41088 48.426593)scale(0.102 -0.102)">
     <use xlink:href="#DejaVuSans-31"/>
     <use x="63.623047" xlink:href="#DejaVuSans-35"/>
     <use x="127.246094" xlink:href="#DejaVuSans-20"/>
     <use x="159.033203" xlink:href="#DejaVuSans-69"/>
     <use x="186.816406" xlink:href="#DejaVuSans-6e"/>
     <use x="250.195312" xlink:href="#DejaVuSans-73"/>
     <use x="302.294922" xlink:href="#DejaVuSans-74"/>
     <use x="341.503906" xlink:href="#DejaVuSans-61"/>
     <use x="402.783203" xlink:href="#DejaVuSans-6e"/>
     <use x="466.162109" xlink:href="#DejaVuSans-63"/>
     <use x="521.142578" xlink:href="#DejaVuSans-65"/>
     <use x="582.666016" xlink:href="#DejaVuSans-73"/>
    </g>
   </g>
   <g id="text_19">
    <!-- v2.4 -->
    <g style="fill:#808080;" transform="translate(187.233062 293.909432)scale(0.1 -0.1)">
     <use xlink:href="#DejaVuSans-76"/>
     <use x="59.179688" xlink:href="#DejaVuSans-32"/>
     <use x="122.802734" xlink:href="#DejaVuSans-2e"/>
     <use x="154.589844" xlink:href="#DejaVuSans-34"/>
    </g>
   </g>
  </g>
 </g>
 <defs>
  <clipPath id="p3c1734a6a7">
   <rect height="295.488" width="281.088" x="57.6" y="3.456"/>
  </clipPath>
 </defs>
</svg>
