<?xml version="1.0" encoding="utf-8" standalone="no"?>
<!DOCTYPE svg PUBLIC "-//W3C//DTD SVG 1.1//EN"
  "http://www.w3.org/Graphics/SVG/1.1/DTD/svg11.dtd">
<svg height="345.6pt" version="1.1" viewBox="0 0 460.8 345.6" width="460.8pt" xmlns="http://www.w3.org/2000/svg" xmlns:xlink="http://www.w3.org/1999/xlink">
 <metadata>
  <rdf:RDF xmlns:cc="http://creativecommons.org/ns#" xmlns:dc="http://purl.org/dc/elements/1.1/" xmlns:rdf="http://www.w3.org/1999/02/22-rdf-syntax-ns#">
   <cc:Work>
    <dc:type rdf:resource="http://purl.org/dc/dcmitype/StillImage"/>
    <dc:date>2021-07-27T16:03:51.507819</dc:date>
    <dc:format>image/svg+xml</dc:format>
    <dc:creator>
     <cc:Agent>
      <dc:title>Matplotlib v3.4.2, https://matplotlib.org/</dc:title>
     </cc:Agent>
    </dc:creator>
   </cc:Work>
  </rdf:RDF>
 </metadata>
 <defs>
  <style type="text/css">*{stroke-linecap:butt;stroke-linejoin:round;}</style>
 </defs>
 <g id="figure_1">
  <g id="patch_1">
   <path d="M 0 345.6 
L 460.8 345.6 
L 460.8 0 
L 0 0 
z
" style="fill:#ffffff;"/>
  </g>
  <g id="axes_1">
   <g id="patch_2">
    <path d="M 57.6 298.944 
L 338.688 298.944 
L 338.688 27.648 
L 57.6 27.648 
z
" style="fill:#ffffff;"/>
   </g>
   <g id="matplotlib.axis_1">
    <g id="xtick_1">
     <g id="line2d_1">
      <path clip-path="url(#pc62d5c1008)" d="M 57.6 298.944 
L 57.6 27.648 
" style="fill:none;stroke:#b0b0b0;stroke-linecap:square;stroke-width:0.8;"/>
     </g>
     <g id="line2d_2">
      <defs>
       <path d="M 0 0 
L 0 3.5 
" id="m98ee19f73a" style="stroke:#000000;stroke-width:0.8;"/>
      </defs>
      <g>
       <use style="stroke:#000000;stroke-width:0.8;" x="57.6" xlink:href="#m98ee19f73a" y="298.944"/>
      </g>
     </g>
     <g id="text_1">
      <!-- 0 -->
      <g transform="translate(51.2375 321.140875)scale(0.2 -0.2)">
       <defs>
        <path d="M 2034 4250 
Q 1547 4250 1301 3770 
Q 1056 3291 1056 2328 
Q 1056 1369 1301 889 
Q 1547 409 2034 409 
Q 2525 409 2770 889 
Q 3016 1369 3016 2328 
Q 3016 3291 2770 3770 
Q 2525 4250 2034 4250 
z
M 2034 4750 
Q 2819 4750 3233 4129 
Q 3647 3509 3647 2328 
Q 3647 1150 3233 529 
Q 2819 -91 2034 -91 
Q 1250 -91 836 529 
Q 422 1150 422 2328 
Q 422 3509 836 4129 
Q 1250 4750 2034 4750 
z
" id="DejaVuSans-30" transform="scale(0.015625)"/>
       </defs>
       <use xlink:href="#DejaVuSans-30"/>
      </g>
     </g>
    </g>
    <g id="xtick_2">
     <g id="line2d_3">
      <path clip-path="url(#pc62d5c1008)" d="M 137.910857 298.944 
L 137.910857 27.648 
" style="fill:none;stroke:#b0b0b0;stroke-linecap:square;stroke-width:0.8;"/>
     </g>
     <g id="line2d_4">
      <g>
       <use style="stroke:#000000;stroke-width:0.8;" x="137.910857" xlink:href="#m98ee19f73a" y="298.944"/>
      </g>
     </g>
     <g id="text_2">
      <!-- 2 -->
      <g transform="translate(131.548357 321.140875)scale(0.2 -0.2)">
       <defs>
        <path d="M 1228 531 
L 3431 531 
L 3431 0 
L 469 0 
L 469 531 
Q 828 903 1448 1529 
Q 2069 2156 2228 2338 
Q 2531 2678 2651 2914 
Q 2772 3150 2772 3378 
Q 2772 3750 2511 3984 
Q 2250 4219 1831 4219 
Q 1534 4219 1204 4116 
Q 875 4013 500 3803 
L 500 4441 
Q 881 4594 1212 4672 
Q 1544 4750 1819 4750 
Q 2544 4750 2975 4387 
Q 3406 4025 3406 3419 
Q 3406 3131 3298 2873 
Q 3191 2616 2906 2266 
Q 2828 2175 2409 1742 
Q 1991 1309 1228 531 
z
" id="DejaVuSans-32" transform="scale(0.015625)"/>
       </defs>
       <use xlink:href="#DejaVuSans-32"/>
      </g>
     </g>
    </g>
    <g id="xtick_3">
     <g id="line2d_5">
      <path clip-path="url(#pc62d5c1008)" d="M 218.221714 298.944 
L 218.221714 27.648 
" style="fill:none;stroke:#b0b0b0;stroke-linecap:square;stroke-width:0.8;"/>
     </g>
     <g id="line2d_6">
      <g>
       <use style="stroke:#000000;stroke-width:0.8;" x="218.221714" xlink:href="#m98ee19f73a" y="298.944"/>
      </g>
     </g>
     <g id="text_3">
      <!-- 4 -->
      <g transform="translate(211.859214 321.140875)scale(0.2 -0.2)">
       <defs>
        <path d="M 2419 4116 
L 825 1625 
L 2419 1625 
L 2419 4116 
z
M 2253 4666 
L 3047 4666 
L 3047 1625 
L 3713 1625 
L 3713 1100 
L 3047 1100 
L 3047 0 
L 2419 0 
L 2419 1100 
L 313 1100 
L 313 1709 
L 2253 4666 
z
" id="DejaVuSans-34" transform="scale(0.015625)"/>
       </defs>
       <use xlink:href="#DejaVuSans-34"/>
      </g>
     </g>
    </g>
    <g id="xtick_4">
     <g id="line2d_7">
      <path clip-path="url(#pc62d5c1008)" d="M 298.532571 298.944 
L 298.532571 27.648 
" style="fill:none;stroke:#b0b0b0;stroke-linecap:square;stroke-width:0.8;"/>
     </g>
     <g id="line2d_8">
      <g>
       <use style="stroke:#000000;stroke-width:0.8;" x="298.532571" xlink:href="#m98ee19f73a" y="298.944"/>
      </g>
     </g>
     <g id="text_4">
      <!-- 6 -->
      <g transform="translate(292.170071 321.140875)scale(0.2 -0.2)">
       <defs>
        <path d="M 2113 2584 
Q 1688 2584 1439 2293 
Q 1191 2003 1191 1497 
Q 1191 994 1439 701 
Q 1688 409 2113 409 
Q 2538 409 2786 701 
Q 3034 994 3034 1497 
Q 3034 2003 2786 2293 
Q 2538 2584 2113 2584 
z
M 3366 4563 
L 3366 3988 
Q 3128 4100 2886 4159 
Q 2644 4219 2406 4219 
Q 1781 4219 1451 3797 
Q 1122 3375 1075 2522 
Q 1259 2794 1537 2939 
Q 1816 3084 2150 3084 
Q 2853 3084 3261 2657 
Q 3669 2231 3669 1497 
Q 3669 778 3244 343 
Q 2819 -91 2113 -91 
Q 1303 -91 875 529 
Q 447 1150 447 2328 
Q 447 3434 972 4092 
Q 1497 4750 2381 4750 
Q 2619 4750 2861 4703 
Q 3103 4656 3366 4563 
z
" id="DejaVuSans-36" transform="scale(0.015625)"/>
       </defs>
       <use xlink:href="#DejaVuSans-36"/>
      </g>
     </g>
    </g>
    <g id="xtick_5">
     <g id="line2d_9">
      <path clip-path="url(#pc62d5c1008)" d="M 97.755429 298.944 
L 97.755429 27.648 
" style="fill:none;stroke:#b0b0b0;stroke-linecap:square;stroke-width:0.8;"/>
     </g>
     <g id="line2d_10">
      <defs>
       <path d="M 0 0 
L 0 2 
" id="me2b0fe8622" style="stroke:#000000;stroke-width:0.6;"/>
      </defs>
      <g>
       <use style="stroke:#000000;stroke-width:0.6;" x="97.755429" xlink:href="#me2b0fe8622" y="298.944"/>
      </g>
     </g>
    </g>
    <g id="xtick_6">
     <g id="line2d_11">
      <path clip-path="url(#pc62d5c1008)" d="M 178.066286 298.944 
L 178.066286 27.648 
" style="fill:none;stroke:#b0b0b0;stroke-linecap:square;stroke-width:0.8;"/>
     </g>
     <g id="line2d_12">
      <g>
       <use style="stroke:#000000;stroke-width:0.6;" x="178.066286" xlink:href="#me2b0fe8622" y="298.944"/>
      </g>
     </g>
    </g>
    <g id="xtick_7">
     <g id="line2d_13">
      <path clip-path="url(#pc62d5c1008)" d="M 258.377143 298.944 
L 258.377143 27.648 
" style="fill:none;stroke:#b0b0b0;stroke-linecap:square;stroke-width:0.8;"/>
     </g>
     <g id="line2d_14">
      <g>
       <use style="stroke:#000000;stroke-width:0.6;" x="258.377143" xlink:href="#me2b0fe8622" y="298.944"/>
      </g>
     </g>
    </g>
    <g id="xtick_8">
     <g id="line2d_15">
      <path clip-path="url(#pc62d5c1008)" d="M 338.688 298.944 
L 338.688 27.648 
" style="fill:none;stroke:#b0b0b0;stroke-linecap:square;stroke-width:0.8;"/>
     </g>
     <g id="line2d_16">
      <g>
       <use style="stroke:#000000;stroke-width:0.6;" x="338.688" xlink:href="#me2b0fe8622" y="298.944"/>
      </g>
     </g>
    </g>
    <g id="text_5">
     <!-- log10(# f-evals / dimension) -->
     <g transform="translate(77.764078 342.217594)scale(0.17 -0.17)">
      <defs>
       <path d="M 603 4863 
L 1178 4863 
L 1178 0 
L 603 0 
L 603 4863 
z
" id="DejaVuSans-6c" transform="scale(0.015625)"/>
       <path d="M 1959 3097 
Q 1497 3097 1228 2736 
Q 959 2375 959 1747 
Q 959 1119 1226 758 
Q 1494 397 1959 397 
Q 2419 397 2687 759 
Q 2956 1122 2956 1747 
Q 2956 2369 2687 2733 
Q 2419 3097 1959 3097 
z
M 1959 3584 
Q 2709 3584 3137 3096 
Q 3566 2609 3566 1747 
Q 3566 888 3137 398 
Q 2709 -91 1959 -91 
Q 1206 -91 779 398 
Q 353 888 353 1747 
Q 353 2609 779 3096 
Q 1206 3584 1959 3584 
z
" id="DejaVuSans-6f" transform="scale(0.015625)"/>
       <path d="M 2906 1791 
Q 2906 2416 2648 2759 
Q 2391 3103 1925 3103 
Q 1463 3103 1205 2759 
Q 947 2416 947 1791 
Q 947 1169 1205 825 
Q 1463 481 1925 481 
Q 2391 481 2648 825 
Q 2906 1169 2906 1791 
z
M 3481 434 
Q 3481 -459 3084 -895 
Q 2688 -1331 1869 -1331 
Q 1566 -1331 1297 -1286 
Q 1028 -1241 775 -1147 
L 775 -588 
Q 1028 -725 1275 -790 
Q 1522 -856 1778 -856 
Q 2344 -856 2625 -561 
Q 2906 -266 2906 331 
L 2906 616 
Q 2728 306 2450 153 
Q 2172 0 1784 0 
Q 1141 0 747 490 
Q 353 981 353 1791 
Q 353 2603 747 3093 
Q 1141 3584 1784 3584 
Q 2172 3584 2450 3431 
Q 2728 3278 2906 2969 
L 2906 3500 
L 3481 3500 
L 3481 434 
z
" id="DejaVuSans-67" transform="scale(0.015625)"/>
       <path d="M 794 531 
L 1825 531 
L 1825 4091 
L 703 3866 
L 703 4441 
L 1819 4666 
L 2450 4666 
L 2450 531 
L 3481 531 
L 3481 0 
L 794 0 
L 794 531 
z
" id="DejaVuSans-31" transform="scale(0.015625)"/>
       <path d="M 1984 4856 
Q 1566 4138 1362 3434 
Q 1159 2731 1159 2009 
Q 1159 1288 1364 580 
Q 1569 -128 1984 -844 
L 1484 -844 
Q 1016 -109 783 600 
Q 550 1309 550 2009 
Q 550 2706 781 3412 
Q 1013 4119 1484 4856 
L 1984 4856 
z
" id="DejaVuSans-28" transform="scale(0.015625)"/>
       <path d="M 3272 2816 
L 2363 2816 
L 2100 1772 
L 3016 1772 
L 3272 2816 
z
M 2803 4594 
L 2478 3297 
L 3391 3297 
L 3719 4594 
L 4219 4594 
L 3897 3297 
L 4872 3297 
L 4872 2816 
L 3775 2816 
L 3519 1772 
L 4513 1772 
L 4513 1294 
L 3397 1294 
L 3072 0 
L 2572 0 
L 2894 1294 
L 1978 1294 
L 1656 0 
L 1153 0 
L 1478 1294 
L 494 1294 
L 494 1772 
L 1594 1772 
L 1856 2816 
L 850 2816 
L 850 3297 
L 1978 3297 
L 2297 4594 
L 2803 4594 
z
" id="DejaVuSans-23" transform="scale(0.015625)"/>
       <path id="DejaVuSans-20" transform="scale(0.015625)"/>
       <path d="M 2375 4863 
L 2375 4384 
L 1825 4384 
Q 1516 4384 1395 4259 
Q 1275 4134 1275 3809 
L 1275 3500 
L 2222 3500 
L 2222 3053 
L 1275 3053 
L 1275 0 
L 697 0 
L 697 3053 
L 147 3053 
L 147 3500 
L 697 3500 
L 697 3744 
Q 697 4328 969 4595 
Q 1241 4863 1831 4863 
L 2375 4863 
z
" id="DejaVuSans-66" transform="scale(0.015625)"/>
       <path d="M 313 2009 
L 1997 2009 
L 1997 1497 
L 313 1497 
L 313 2009 
z
" id="DejaVuSans-2d" transform="scale(0.015625)"/>
       <path d="M 3597 1894 
L 3597 1613 
L 953 1613 
Q 991 1019 1311 708 
Q 1631 397 2203 397 
Q 2534 397 2845 478 
Q 3156 559 3463 722 
L 3463 178 
Q 3153 47 2828 -22 
Q 2503 -91 2169 -91 
Q 1331 -91 842 396 
Q 353 884 353 1716 
Q 353 2575 817 3079 
Q 1281 3584 2069 3584 
Q 2775 3584 3186 3129 
Q 3597 2675 3597 1894 
z
M 3022 2063 
Q 3016 2534 2758 2815 
Q 2500 3097 2075 3097 
Q 1594 3097 1305 2825 
Q 1016 2553 972 2059 
L 3022 2063 
z
" id="DejaVuSans-65" transform="scale(0.015625)"/>
       <path d="M 191 3500 
L 800 3500 
L 1894 563 
L 2988 3500 
L 3597 3500 
L 2284 0 
L 1503 0 
L 191 3500 
z
" id="DejaVuSans-76" transform="scale(0.015625)"/>
       <path d="M 2194 1759 
Q 1497 1759 1228 1600 
Q 959 1441 959 1056 
Q 959 750 1161 570 
Q 1363 391 1709 391 
Q 2188 391 2477 730 
Q 2766 1069 2766 1631 
L 2766 1759 
L 2194 1759 
z
M 3341 1997 
L 3341 0 
L 2766 0 
L 2766 531 
Q 2569 213 2275 61 
Q 1981 -91 1556 -91 
Q 1019 -91 701 211 
Q 384 513 384 1019 
Q 384 1609 779 1909 
Q 1175 2209 1959 2209 
L 2766 2209 
L 2766 2266 
Q 2766 2663 2505 2880 
Q 2244 3097 1772 3097 
Q 1472 3097 1187 3025 
Q 903 2953 641 2809 
L 641 3341 
Q 956 3463 1253 3523 
Q 1550 3584 1831 3584 
Q 2591 3584 2966 3190 
Q 3341 2797 3341 1997 
z
" id="DejaVuSans-61" transform="scale(0.015625)"/>
       <path d="M 2834 3397 
L 2834 2853 
Q 2591 2978 2328 3040 
Q 2066 3103 1784 3103 
Q 1356 3103 1142 2972 
Q 928 2841 928 2578 
Q 928 2378 1081 2264 
Q 1234 2150 1697 2047 
L 1894 2003 
Q 2506 1872 2764 1633 
Q 3022 1394 3022 966 
Q 3022 478 2636 193 
Q 2250 -91 1575 -91 
Q 1294 -91 989 -36 
Q 684 19 347 128 
L 347 722 
Q 666 556 975 473 
Q 1284 391 1588 391 
Q 1994 391 2212 530 
Q 2431 669 2431 922 
Q 2431 1156 2273 1281 
Q 2116 1406 1581 1522 
L 1381 1569 
Q 847 1681 609 1914 
Q 372 2147 372 2553 
Q 372 3047 722 3315 
Q 1072 3584 1716 3584 
Q 2034 3584 2315 3537 
Q 2597 3491 2834 3397 
z
" id="DejaVuSans-73" transform="scale(0.015625)"/>
       <path d="M 1625 4666 
L 2156 4666 
L 531 -594 
L 0 -594 
L 1625 4666 
z
" id="DejaVuSans-2f" transform="scale(0.015625)"/>
       <path d="M 2906 2969 
L 2906 4863 
L 3481 4863 
L 3481 0 
L 2906 0 
L 2906 525 
Q 2725 213 2448 61 
Q 2172 -91 1784 -91 
Q 1150 -91 751 415 
Q 353 922 353 1747 
Q 353 2572 751 3078 
Q 1150 3584 1784 3584 
Q 2172 3584 2448 3432 
Q 2725 3281 2906 2969 
z
M 947 1747 
Q 947 1113 1208 752 
Q 1469 391 1925 391 
Q 2381 391 2643 752 
Q 2906 1113 2906 1747 
Q 2906 2381 2643 2742 
Q 2381 3103 1925 3103 
Q 1469 3103 1208 2742 
Q 947 2381 947 1747 
z
" id="DejaVuSans-64" transform="scale(0.015625)"/>
       <path d="M 603 3500 
L 1178 3500 
L 1178 0 
L 603 0 
L 603 3500 
z
M 603 4863 
L 1178 4863 
L 1178 4134 
L 603 4134 
L 603 4863 
z
" id="DejaVuSans-69" transform="scale(0.015625)"/>
       <path d="M 3328 2828 
Q 3544 3216 3844 3400 
Q 4144 3584 4550 3584 
Q 5097 3584 5394 3201 
Q 5691 2819 5691 2113 
L 5691 0 
L 5113 0 
L 5113 2094 
Q 5113 2597 4934 2840 
Q 4756 3084 4391 3084 
Q 3944 3084 3684 2787 
Q 3425 2491 3425 1978 
L 3425 0 
L 2847 0 
L 2847 2094 
Q 2847 2600 2669 2842 
Q 2491 3084 2119 3084 
Q 1678 3084 1418 2786 
Q 1159 2488 1159 1978 
L 1159 0 
L 581 0 
L 581 3500 
L 1159 3500 
L 1159 2956 
Q 1356 3278 1631 3431 
Q 1906 3584 2284 3584 
Q 2666 3584 2933 3390 
Q 3200 3197 3328 2828 
z
" id="DejaVuSans-6d" transform="scale(0.015625)"/>
       <path d="M 3513 2113 
L 3513 0 
L 2938 0 
L 2938 2094 
Q 2938 2591 2744 2837 
Q 2550 3084 2163 3084 
Q 1697 3084 1428 2787 
Q 1159 2491 1159 1978 
L 1159 0 
L 581 0 
L 581 3500 
L 1159 3500 
L 1159 2956 
Q 1366 3272 1645 3428 
Q 1925 3584 2291 3584 
Q 2894 3584 3203 3211 
Q 3513 2838 3513 2113 
z
" id="DejaVuSans-6e" transform="scale(0.015625)"/>
       <path d="M 513 4856 
L 1013 4856 
Q 1481 4119 1714 3412 
Q 1947 2706 1947 2009 
Q 1947 1309 1714 600 
Q 1481 -109 1013 -844 
L 513 -844 
Q 928 -128 1133 580 
Q 1338 1288 1338 2009 
Q 1338 2731 1133 3434 
Q 928 4138 513 4856 
z
" id="DejaVuSans-29" transform="scale(0.015625)"/>
      </defs>
      <use xlink:href="#DejaVuSans-6c"/>
      <use x="27.783203" xlink:href="#DejaVuSans-6f"/>
      <use x="88.964844" xlink:href="#DejaVuSans-67"/>
      <use x="152.441406" xlink:href="#DejaVuSans-31"/>
      <use x="216.064453" xlink:href="#DejaVuSans-30"/>
      <use x="279.6875" xlink:href="#DejaVuSans-28"/>
      <use x="318.701172" xlink:href="#DejaVuSans-23"/>
      <use x="402.490234" xlink:href="#DejaVuSans-20"/>
      <use x="434.277344" xlink:href="#DejaVuSans-66"/>
      <use x="463.982422" xlink:href="#DejaVuSans-2d"/>
      <use x="500.066406" xlink:href="#DejaVuSans-65"/>
      <use x="561.589844" xlink:href="#DejaVuSans-76"/>
      <use x="620.769531" xlink:href="#DejaVuSans-61"/>
      <use x="682.048828" xlink:href="#DejaVuSans-6c"/>
      <use x="709.832031" xlink:href="#DejaVuSans-73"/>
      <use x="761.931641" xlink:href="#DejaVuSans-20"/>
      <use x="793.71875" xlink:href="#DejaVuSans-2f"/>
      <use x="827.410156" xlink:href="#DejaVuSans-20"/>
      <use x="859.197266" xlink:href="#DejaVuSans-64"/>
      <use x="922.673828" xlink:href="#DejaVuSans-69"/>
      <use x="950.457031" xlink:href="#DejaVuSans-6d"/>
      <use x="1047.869141" xlink:href="#DejaVuSans-65"/>
      <use x="1109.392578" xlink:href="#DejaVuSans-6e"/>
      <use x="1172.771484" xlink:href="#DejaVuSans-73"/>
      <use x="1224.871094" xlink:href="#DejaVuSans-69"/>
      <use x="1252.654297" xlink:href="#DejaVuSans-6f"/>
      <use x="1313.835938" xlink:href="#DejaVuSans-6e"/>
      <use x="1377.214844" xlink:href="#DejaVuSans-29"/>
     </g>
    </g>
   </g>
   <g id="matplotlib.axis_2">
    <g id="ytick_1">
     <g id="line2d_17">
      <path clip-path="url(#pc62d5c1008)" d="M 57.6 298.944 
L 338.688 298.944 
" style="fill:none;stroke:#b0b0b0;stroke-linecap:square;stroke-width:0.8;"/>
     </g>
     <g id="line2d_18">
      <defs>
       <path d="M 0 0 
L -3.5 0 
" id="m84567abb89" style="stroke:#000000;stroke-width:0.8;"/>
      </defs>
      <g>
       <use style="stroke:#000000;stroke-width:0.8;" x="57.6" xlink:href="#m84567abb89" y="298.944"/>
      </g>
     </g>
     <g id="text_6">
      <!-- 0.0 -->
      <g transform="translate(25.155 305.02275)scale(0.16 -0.16)">
       <defs>
        <path d="M 684 794 
L 1344 794 
L 1344 0 
L 684 0 
L 684 794 
z
" id="DejaVuSans-2e" transform="scale(0.015625)"/>
       </defs>
       <use xlink:href="#DejaVuSans-30"/>
       <use x="63.623047" xlink:href="#DejaVuSans-2e"/>
       <use x="95.410156" xlink:href="#DejaVuSans-30"/>
      </g>
     </g>
    </g>
    <g id="ytick_2">
     <g id="line2d_19">
      <path clip-path="url(#pc62d5c1008)" d="M 57.6 245.22202 
L 338.688 245.22202 
" style="fill:none;stroke:#b0b0b0;stroke-linecap:square;stroke-width:0.8;"/>
     </g>
     <g id="line2d_20">
      <g>
       <use style="stroke:#000000;stroke-width:0.8;" x="57.6" xlink:href="#m84567abb89" y="245.22202"/>
      </g>
     </g>
     <g id="text_7">
      <!-- 0.2 -->
      <g transform="translate(25.155 251.30077)scale(0.16 -0.16)">
       <use xlink:href="#DejaVuSans-30"/>
       <use x="63.623047" xlink:href="#DejaVuSans-2e"/>
       <use x="95.410156" xlink:href="#DejaVuSans-32"/>
      </g>
     </g>
    </g>
    <g id="ytick_3">
     <g id="line2d_21">
      <path clip-path="url(#pc62d5c1008)" d="M 57.6 191.50004 
L 338.688 191.50004 
" style="fill:none;stroke:#b0b0b0;stroke-linecap:square;stroke-width:0.8;"/>
     </g>
     <g id="line2d_22">
      <g>
       <use style="stroke:#000000;stroke-width:0.8;" x="57.6" xlink:href="#m84567abb89" y="191.50004"/>
      </g>
     </g>
     <g id="text_8">
      <!-- 0.4 -->
      <g transform="translate(25.155 197.57879)scale(0.16 -0.16)">
       <use xlink:href="#DejaVuSans-30"/>
       <use x="63.623047" xlink:href="#DejaVuSans-2e"/>
       <use x="95.410156" xlink:href="#DejaVuSans-34"/>
      </g>
     </g>
    </g>
    <g id="ytick_4">
     <g id="line2d_23">
      <path clip-path="url(#pc62d5c1008)" d="M 57.6 137.778059 
L 338.688 137.778059 
" style="fill:none;stroke:#b0b0b0;stroke-linecap:square;stroke-width:0.8;"/>
     </g>
     <g id="line2d_24">
      <g>
       <use style="stroke:#000000;stroke-width:0.8;" x="57.6" xlink:href="#m84567abb89" y="137.778059"/>
      </g>
     </g>
     <g id="text_9">
      <!-- 0.6 -->
      <g transform="translate(25.155 143.856809)scale(0.16 -0.16)">
       <use xlink:href="#DejaVuSans-30"/>
       <use x="63.623047" xlink:href="#DejaVuSans-2e"/>
       <use x="95.410156" xlink:href="#DejaVuSans-36"/>
      </g>
     </g>
    </g>
    <g id="ytick_5">
     <g id="line2d_25">
      <path clip-path="url(#pc62d5c1008)" d="M 57.6 84.056079 
L 338.688 84.056079 
" style="fill:none;stroke:#b0b0b0;stroke-linecap:square;stroke-width:0.8;"/>
     </g>
     <g id="line2d_26">
      <g>
       <use style="stroke:#000000;stroke-width:0.8;" x="57.6" xlink:href="#m84567abb89" y="84.056079"/>
      </g>
     </g>
     <g id="text_10">
      <!-- 0.8 -->
      <g transform="translate(25.155 90.134829)scale(0.16 -0.16)">
       <defs>
        <path d="M 2034 2216 
Q 1584 2216 1326 1975 
Q 1069 1734 1069 1313 
Q 1069 891 1326 650 
Q 1584 409 2034 409 
Q 2484 409 2743 651 
Q 3003 894 3003 1313 
Q 3003 1734 2745 1975 
Q 2488 2216 2034 2216 
z
M 1403 2484 
Q 997 2584 770 2862 
Q 544 3141 544 3541 
Q 544 4100 942 4425 
Q 1341 4750 2034 4750 
Q 2731 4750 3128 4425 
Q 3525 4100 3525 3541 
Q 3525 3141 3298 2862 
Q 3072 2584 2669 2484 
Q 3125 2378 3379 2068 
Q 3634 1759 3634 1313 
Q 3634 634 3220 271 
Q 2806 -91 2034 -91 
Q 1263 -91 848 271 
Q 434 634 434 1313 
Q 434 1759 690 2068 
Q 947 2378 1403 2484 
z
M 1172 3481 
Q 1172 3119 1398 2916 
Q 1625 2713 2034 2713 
Q 2441 2713 2670 2916 
Q 2900 3119 2900 3481 
Q 2900 3844 2670 4047 
Q 2441 4250 2034 4250 
Q 1625 4250 1398 4047 
Q 1172 3844 1172 3481 
z
" id="DejaVuSans-38" transform="scale(0.015625)"/>
       </defs>
       <use xlink:href="#DejaVuSans-30"/>
       <use x="63.623047" xlink:href="#DejaVuSans-2e"/>
       <use x="95.410156" xlink:href="#DejaVuSans-38"/>
      </g>
     </g>
    </g>
    <g id="ytick_6">
     <g id="line2d_27">
      <path clip-path="url(#pc62d5c1008)" d="M 57.6 30.334099 
L 338.688 30.334099 
" style="fill:none;stroke:#b0b0b0;stroke-linecap:square;stroke-width:0.8;"/>
     </g>
     <g id="line2d_28">
      <g>
       <use style="stroke:#000000;stroke-width:0.8;" x="57.6" xlink:href="#m84567abb89" y="30.334099"/>
      </g>
     </g>
     <g id="text_11">
      <!-- 1.0 -->
      <g transform="translate(25.155 36.412849)scale(0.16 -0.16)">
       <use xlink:href="#DejaVuSans-31"/>
       <use x="63.623047" xlink:href="#DejaVuSans-2e"/>
       <use x="95.410156" xlink:href="#DejaVuSans-30"/>
      </g>
     </g>
    </g>
    <g id="text_12">
     <!-- Fraction of function,target pairs -->
     <g transform="translate(17.619531 297.681)rotate(-90)scale(0.17 -0.17)">
      <defs>
       <path d="M 628 4666 
L 3309 4666 
L 3309 4134 
L 1259 4134 
L 1259 2759 
L 3109 2759 
L 3109 2228 
L 1259 2228 
L 1259 0 
L 628 0 
L 628 4666 
z
" id="DejaVuSans-46" transform="scale(0.015625)"/>
       <path d="M 2631 2963 
Q 2534 3019 2420 3045 
Q 2306 3072 2169 3072 
Q 1681 3072 1420 2755 
Q 1159 2438 1159 1844 
L 1159 0 
L 581 0 
L 581 3500 
L 1159 3500 
L 1159 2956 
Q 1341 3275 1631 3429 
Q 1922 3584 2338 3584 
Q 2397 3584 2469 3576 
Q 2541 3569 2628 3553 
L 2631 2963 
z
" id="DejaVuSans-72" transform="scale(0.015625)"/>
       <path d="M 3122 3366 
L 3122 2828 
Q 2878 2963 2633 3030 
Q 2388 3097 2138 3097 
Q 1578 3097 1268 2742 
Q 959 2388 959 1747 
Q 959 1106 1268 751 
Q 1578 397 2138 397 
Q 2388 397 2633 464 
Q 2878 531 3122 666 
L 3122 134 
Q 2881 22 2623 -34 
Q 2366 -91 2075 -91 
Q 1284 -91 818 406 
Q 353 903 353 1747 
Q 353 2603 823 3093 
Q 1294 3584 2113 3584 
Q 2378 3584 2631 3529 
Q 2884 3475 3122 3366 
z
" id="DejaVuSans-63" transform="scale(0.015625)"/>
       <path d="M 1172 4494 
L 1172 3500 
L 2356 3500 
L 2356 3053 
L 1172 3053 
L 1172 1153 
Q 1172 725 1289 603 
Q 1406 481 1766 481 
L 2356 481 
L 2356 0 
L 1766 0 
Q 1100 0 847 248 
Q 594 497 594 1153 
L 594 3053 
L 172 3053 
L 172 3500 
L 594 3500 
L 594 4494 
L 1172 4494 
z
" id="DejaVuSans-74" transform="scale(0.015625)"/>
       <path d="M 544 1381 
L 544 3500 
L 1119 3500 
L 1119 1403 
Q 1119 906 1312 657 
Q 1506 409 1894 409 
Q 2359 409 2629 706 
Q 2900 1003 2900 1516 
L 2900 3500 
L 3475 3500 
L 3475 0 
L 2900 0 
L 2900 538 
Q 2691 219 2414 64 
Q 2138 -91 1772 -91 
Q 1169 -91 856 284 
Q 544 659 544 1381 
z
M 1991 3584 
L 1991 3584 
z
" id="DejaVuSans-75" transform="scale(0.015625)"/>
       <path d="M 750 794 
L 1409 794 
L 1409 256 
L 897 -744 
L 494 -744 
L 750 256 
L 750 794 
z
" id="DejaVuSans-2c" transform="scale(0.015625)"/>
       <path d="M 1159 525 
L 1159 -1331 
L 581 -1331 
L 581 3500 
L 1159 3500 
L 1159 2969 
Q 1341 3281 1617 3432 
Q 1894 3584 2278 3584 
Q 2916 3584 3314 3078 
Q 3713 2572 3713 1747 
Q 3713 922 3314 415 
Q 2916 -91 2278 -91 
Q 1894 -91 1617 61 
Q 1341 213 1159 525 
z
M 3116 1747 
Q 3116 2381 2855 2742 
Q 2594 3103 2138 3103 
Q 1681 3103 1420 2742 
Q 1159 2381 1159 1747 
Q 1159 1113 1420 752 
Q 1681 391 2138 391 
Q 2594 391 2855 752 
Q 3116 1113 3116 1747 
z
" id="DejaVuSans-70" transform="scale(0.015625)"/>
      </defs>
      <use xlink:href="#DejaVuSans-46"/>
      <use x="50.269531" xlink:href="#DejaVuSans-72"/>
      <use x="91.382812" xlink:href="#DejaVuSans-61"/>
      <use x="152.662109" xlink:href="#DejaVuSans-63"/>
      <use x="207.642578" xlink:href="#DejaVuSans-74"/>
      <use x="246.851562" xlink:href="#DejaVuSans-69"/>
      <use x="274.634766" xlink:href="#DejaVuSans-6f"/>
      <use x="335.816406" xlink:href="#DejaVuSans-6e"/>
      <use x="399.195312" xlink:href="#DejaVuSans-20"/>
      <use x="430.982422" xlink:href="#DejaVuSans-6f"/>
      <use x="492.164062" xlink:href="#DejaVuSans-66"/>
      <use x="527.369141" xlink:href="#DejaVuSans-20"/>
      <use x="559.15625" xlink:href="#DejaVuSans-66"/>
      <use x="594.361328" xlink:href="#DejaVuSans-75"/>
      <use x="657.740234" xlink:href="#DejaVuSans-6e"/>
      <use x="721.119141" xlink:href="#DejaVuSans-63"/>
      <use x="776.099609" xlink:href="#DejaVuSans-74"/>
      <use x="815.308594" xlink:href="#DejaVuSans-69"/>
      <use x="843.091797" xlink:href="#DejaVuSans-6f"/>
      <use x="904.273438" xlink:href="#DejaVuSans-6e"/>
      <use x="967.652344" xlink:href="#DejaVuSans-2c"/>
      <use x="999.439453" xlink:href="#DejaVuSans-74"/>
      <use x="1038.648438" xlink:href="#DejaVuSans-61"/>
      <use x="1099.927734" xlink:href="#DejaVuSans-72"/>
      <use x="1139.291016" xlink:href="#DejaVuSans-67"/>
      <use x="1202.767578" xlink:href="#DejaVuSans-65"/>
      <use x="1264.291016" xlink:href="#DejaVuSans-74"/>
      <use x="1303.5" xlink:href="#DejaVuSans-20"/>
      <use x="1335.287109" xlink:href="#DejaVuSans-70"/>
      <use x="1398.763672" xlink:href="#DejaVuSans-61"/>
      <use x="1460.042969" xlink:href="#DejaVuSans-69"/>
      <use x="1487.826172" xlink:href="#DejaVuSans-72"/>
      <use x="1528.939453" xlink:href="#DejaVuSans-73"/>
     </g>
    </g>
   </g>
   <g id="line2d_29">
    <defs>
     <path d="M 0 1.5 
C 0.397805 1.5 0.77937 1.341951 1.06066 1.06066 
C 1.341951 0.77937 1.5 0.397805 1.5 0 
C 1.5 -0.397805 1.341951 -0.77937 1.06066 -1.06066 
C 0.77937 -1.341951 0.397805 -1.5 0 -1.5 
C -0.397805 -1.5 -0.77937 -1.341951 -1.06066 -1.06066 
C -1.341951 -0.77937 -1.5 -0.397805 -1.5 0 
C -1.5 0.397805 -1.341951 0.77937 -1.06066 1.06066 
C -0.77937 1.341951 -0.397805 1.5 0 1.5 
z
" id="m8085506efb" style="stroke:#00bfbf;"/>
    </defs>
    <g>
     <use style="fill:#00bfbf;stroke:#00bfbf;" x="214.261448" xlink:href="#m8085506efb" y="30.334099"/>
     <use style="fill:#00bfbf;stroke:#00bfbf;" x="214.261448" xlink:href="#m8085506efb" y="30.334099"/>
    </g>
   </g>
   <g id="line2d_30">
    <path d="M 45.512012 298.944 
L 45.512012 271.029638 
L 57.6 271.029638 
L 57.6 262.60266 
L 64.67102 262.60266 
L 64.67102 262.075974 
L 69.687988 262.075974 
L 69.687988 257.862486 
L 76.759008 257.862486 
L 76.759008 255.229055 
L 79.447285 255.229055 
L 79.447285 254.702369 
L 81.775977 254.702369 
L 81.775977 253.122311 
L 83.830028 253.122311 
L 83.830028 249.435508 
L 90.242884 249.435508 
L 90.242884 247.85545 
L 91.535274 247.85545 
L 91.535274 247.328764 
L 92.73846 247.328764 
L 92.73846 245.22202 
L 97.755429 245.22202 
L 97.755429 244.695334 
L 98.606294 244.695334 
L 98.606294 243.641962 
L 100.934985 243.641962 
L 100.934985 243.115275 
L 101.646892 243.115275 
L 101.646892 242.588589 
L 108.006005 242.588589 
L 108.006005 242.061903 
L 108.483824 242.061903 
L 108.483824 241.535217 
L 110.694282 241.535217 
L 110.694282 240.481845 
L 111.104637 240.481845 
L 111.104637 236.268356 
L 114.080224 236.268356 
L 114.080224 235.214984 
L 114.418861 235.214984 
L 114.418861 234.688298 
L 114.751048 234.688298 
L 114.751048 234.161612 
L 115.077025 234.161612 
L 115.077025 233.10824 
L 116.323218 233.10824 
L 116.323218 232.054868 
L 118.039942 232.054868 
L 118.039942 231.001496 
L 120.33454 231.001496 
L 120.33454 227.841379 
L 121.036887 227.841379 
L 121.036887 226.788007 
L 121.264855 226.788007 
L 121.264855 223.627891 
L 128.107907 223.627891 
L 128.107907 219.941088 
L 128.709321 219.941088 
L 128.709321 214.147541 
L 132.060454 214.147541 
L 132.060454 213.620855 
L 133.009765 213.620855 
L 133.009765 209.934052 
L 135.582166 209.934052 
L 135.582166 208.353994 
L 137.016339 208.353994 
L 137.016339 207.827308 
L 137.37967 207.827308 
L 137.37967 207.300622 
L 139.009092 207.300622 
L 139.009092 206.773936 
L 139.730821 206.773936 
L 139.730821 200.980389 
L 141.090414 200.980389 
L 141.090414 199.927017 
L 144.570138 199.927017 
L 144.570138 196.7669 
L 145.155404 196.7669 
L 145.155404 195.186842 
L 146.377764 195.186842 
L 146.377764 194.660156 
L 147.52003 194.660156 
L 147.52003 192.026726 
L 147.96658 192.026726 
L 147.96658 187.286551 
L 148.592055 187.286551 
L 148.592055 184.653121 
L 150.344189 184.653121 
L 150.429467 179.912946 
L 150.682827 179.912946 
L 150.682827 179.38626 
L 151.300575 179.38626 
L 151.300575 176.226143 
L 153.142033 176.226143 
L 153.142033 174.119399 
L 153.323128 174.119399 
L 153.323128 172.012655 
L 153.820412 172.012655 
L 153.820412 169.90591 
L 154.707925 169.90591 
L 154.77436 160.425561 
L 155.959855 160.425561 
L 155.959855 158.845503 
L 156.297301 158.845503 
L 156.297301 158.318817 
L 156.598505 158.318817 
L 156.598505 156.212072 
L 156.923929 156.212072 
L 157.011638 154.632014 
L 157.243392 154.632014 
L 157.243392 151.471897 
L 157.500487 151.471897 
L 157.500487 147.785095 
L 158.915995 147.785095 
L 158.915995 144.098292 
L 159.278248 144.098292 
L 159.278248 140.938176 
L 160.127894 140.938176 
L 160.152267 138.831432 
L 160.513841 138.831432 
L 160.585265 136.198001 
L 160.656397 136.198001 
L 160.727241 130.404454 
L 160.961329 130.404454 
L 161.030947 128.824396 
L 161.667653 128.824396 
L 161.667653 128.29771 
L 161.801118 128.29771 
L 161.801118 127.244338 
L 162.10862 127.244338 
L 162.130378 122.504163 
L 162.260361 122.504163 
L 162.281931 120.924105 
L 162.432178 120.924105 
L 162.432178 117.763988 
L 162.749842 117.763988 
L 162.749842 116.710616 
L 162.999872 116.710616 
L 162.999872 115.130558 
L 163.287113 115.130558 
L 163.388564 113.023814 
L 163.609699 113.023814 
L 163.609699 107.230267 
L 164.19892 107.230267 
L 164.19892 105.650209 
L 164.390984 105.650209 
L 164.486229 96.696545 
L 164.843488 96.696545 
L 164.843488 91.95637 
L 165.338904 91.95637 
L 165.429123 85.109451 
L 165.500963 85.109451 
L 165.500963 84.582765 
L 165.625977 84.582765 
L 165.625977 83.002707 
L 165.995728 83.002707 
L 165.995728 81.949335 
L 166.169082 81.949335 
L 166.272273 76.682474 
L 166.425924 76.682474 
L 166.425924 76.155788 
L 166.544502 76.155788 
L 166.628709 74.049044 
L 166.795913 74.049044 
L 166.795913 72.468985 
L 167.255733 72.468985 
L 167.255733 71.942299 
L 167.560988 71.942299 
L 167.560988 71.415613 
L 167.703739 71.415613 
L 167.782543 66.675439 
L 167.985782 66.675439 
L 167.985782 66.148752 
L 169.701534 66.148752 
L 169.701534 65.09538 
L 169.883706 65.09538 
L 169.883706 64.568694 
L 171.056197 64.568694 
L 171.056197 63.515322 
L 187.929906 63.515322 
L 187.929906 62.988636 
L 188.092591 62.988636 
L 188.092591 62.46195 
L 188.562185 62.46195 
L 188.562185 61.935264 
L 188.676448 61.935264 
L 188.676448 61.408578 
L 189.227601 61.408578 
L 189.227601 60.881892 
L 189.573576 60.881892 
L 189.573576 60.355206 
L 189.748486 60.355206 
L 189.752948 58.775147 
L 190.084377 58.775147 
L 190.145552 57.721775 
L 190.258597 57.721775 
L 190.258597 57.195089 
L 190.426802 57.195089 
L 190.516707 56.141717 
L 190.610398 56.141717 
L 190.610398 55.615031 
L 191.071449 55.615031 
L 191.071449 55.088345 
L 191.540769 55.088345 
L 191.540769 54.561659 
L 191.879716 54.561659 
L 191.962451 53.508287 
L 192.087773 53.508287 
L 192.103375 51.401542 
L 192.270222 51.401542 
L 192.277944 50.34817 
L 192.39336 50.34817 
L 192.39336 49.821484 
L 193.220837 49.821484 
L 193.220837 49.294798 
L 193.636379 49.294798 
L 193.636379 48.768112 
L 193.778625 48.768112 
L 193.778625 48.241426 
L 193.989842 48.241426 
L 194.097977 46.134681 
L 194.561222 46.134681 
L 194.561222 45.607995 
L 194.972836 45.607995 
L 194.972836 45.081309 
L 195.121033 45.081309 
L 195.183228 44.027937 
L 195.28748 44.027937 
L 195.391112 42.974565 
L 195.433037 42.974565 
L 195.510174 41.921193 
L 195.720557 41.921193 
L 195.736392 40.867821 
L 196.706089 40.867821 
L 196.706089 39.814448 
L 197.332506 39.814448 
L 197.332506 39.287762 
L 197.516412 39.287762 
L 197.516412 38.23439 
L 197.721014 38.23439 
L 197.721014 37.707704 
L 197.900889 37.707704 
L 197.976221 36.127646 
L 198.106583 36.127646 
L 198.106583 35.60096 
L 198.757479 35.60096 
L 198.757479 35.074274 
L 202.027312 35.074274 
L 202.104385 34.020902 
L 202.272755 34.020902 
L 202.272755 33.494215 
L 203.142884 33.494215 
L 203.142884 32.967529 
L 203.543992 32.967529 
L 203.543992 32.440843 
L 205.204294 32.440843 
L 205.204294 31.914157 
L 206.986252 31.914157 
L 206.986252 31.387471 
L 207.355968 31.387471 
L 207.355968 30.860785 
L 214.261448 30.860785 
L 214.261448 30.334099 
L 338.688 30.334099 
L 338.688 30.334099 
" style="fill:none;stroke:#00bfbf;stroke-linecap:square;stroke-width:1.5;"/>
   </g>
   <g id="line2d_31">
    <defs>
     <path d="M -6 0 
L 6 0 
M 0 6 
L 0 -6 
" id="m60b2816ca7" style="stroke:#00bfbf;stroke-width:1.5;"/>
    </defs>
    <g>
     <use style="fill-opacity:0;stroke:#00bfbf;stroke-width:1.5;" x="144.570138" xlink:href="#m60b2816ca7" y="199.927017"/>
     <use style="fill-opacity:0;stroke:#00bfbf;stroke-width:1.5;" x="165.429123" xlink:href="#m60b2816ca7" y="90.902998"/>
     <use style="fill-opacity:0;stroke:#00bfbf;stroke-width:1.5;" x="197.516412" xlink:href="#m60b2816ca7" y="39.287762"/>
     <use style="fill-opacity:0;stroke:#00bfbf;stroke-width:1.5;" x="214.261448" xlink:href="#m60b2816ca7" y="30.334099"/>
     <use style="fill-opacity:0;stroke:#00bfbf;stroke-width:1.5;" x="214.261448" xlink:href="#m60b2816ca7" y="30.334099"/>
     <use style="fill-opacity:0;stroke:#00bfbf;stroke-width:1.5;" x="338.688" xlink:href="#m60b2816ca7" y="30.334099"/>
    </g>
   </g>
   <g id="line2d_32">
    <path style="fill:none;stroke:#00bfbf;stroke-linecap:square;stroke-width:1.5;"/>
    <g/>
   </g>
   <g id="line2d_33">
    <path clip-path="url(#pc62d5c1008)" d="M 191.816415 54.561659 
" style="fill:none;stroke:#00bfbf;stroke-linecap:square;stroke-width:1.5;"/>
    <defs>
     <path d="M -12 12 
L 12 -12 
M -12 -12 
L 12 12 
" id="mb6e69ab917" style="stroke:#00bfbf;"/>
    </defs>
    <g clip-path="url(#pc62d5c1008)">
     <use style="fill:#00bfbf;stroke:#00bfbf;" x="191.816415" xlink:href="#mb6e69ab917" y="54.561659"/>
    </g>
   </g>
   <g id="line2d_34">
    <defs>
     <path d="M 0 1.5 
C 0.397805 1.5 0.77937 1.341951 1.06066 1.06066 
C 1.341951 0.77937 1.5 0.397805 1.5 0 
C 1.5 -0.397805 1.341951 -0.77937 1.06066 -1.06066 
C 0.77937 -1.341951 0.397805 -1.5 0 -1.5 
C -0.397805 -1.5 -0.77937 -1.341951 -1.06066 -1.06066 
C -1.341951 -0.77937 -1.5 -0.397805 -1.5 0 
C -1.5 0.397805 -1.341951 0.77937 -1.06066 1.06066 
C -0.77937 1.341951 -0.397805 1.5 0 1.5 
z
" id="m4d1b4ff7b6" style="stroke:#008000;"/>
    </defs>
    <g>
     <use style="fill:#008000;stroke:#008000;" x="213.535646" xlink:href="#m4d1b4ff7b6" y="30.334099"/>
     <use style="fill:#008000;stroke:#008000;" x="213.535646" xlink:href="#m4d1b4ff7b6" y="30.334099"/>
    </g>
   </g>
   <g id="line2d_35">
    <path d="M 38.440992 298.944 
L 38.440992 276.296499 
L 50.52898 276.296499 
L 50.52898 273.136382 
L 57.6 273.136382 
L 57.6 270.502952 
L 62.616969 270.502952 
L 62.616969 269.976266 
L 66.508432 269.976266 
L 66.508432 267.342835 
L 69.687988 267.342835 
L 69.687988 266.289463 
L 72.376266 266.289463 
L 72.376266 265.762777 
L 74.704957 265.762777 
L 74.704957 265.236091 
L 80.258561 265.236091 
L 80.258561 264.182719 
L 81.775977 264.182719 
L 81.775977 263.129347 
L 83.171864 263.129347 
L 83.171864 261.549288 
L 84.464254 261.549288 
L 84.464254 259.442544 
L 90.684409 259.442544 
L 90.684409 257.862486 
L 93.121756 257.862486 
L 93.121756 257.3358 
L 98.32726 257.3358 
L 98.32726 256.809114 
L 98.880934 256.809114 
L 98.880934 256.282427 
L 100.934985 256.282427 
L 100.934985 254.175683 
L 102.330873 254.175683 
L 102.330873 253.648997 
L 104.434538 253.648997 
L 104.434538 252.068939 
L 110.131676 252.068939 
L 110.131676 251.015567 
L 112.026172 251.015567 
L 112.026172 249.962195 
L 113.26352 249.962195 
L 113.26352 249.435508 
L 114.193835 249.435508 
L 114.193835 248.908822 
L 114.418861 248.908822 
L 114.418861 248.382136 
L 118.576578 248.382136 
L 118.576578 247.328764 
L 122.076131 247.328764 
L 122.076131 244.695334 
L 122.219665 244.695334 
L 122.219665 243.641962 
L 125.110962 243.641962 
L 125.110962 242.588589 
L 132.422528 242.588589 
L 132.501978 241.008531 
L 135.212889 241.008531 
L 135.212889 237.848415 
L 135.482227 237.848415 
L 135.482227 235.214984 
L 135.681535 235.214984 
L 135.681535 234.161612 
L 136.519813 234.161612 
L 136.519813 233.634926 
L 137.077422 233.634926 
L 137.077422 233.10824 
L 138.927025 233.10824 
L 138.927025 232.581554 
L 140.993259 232.581554 
L 140.993259 230.47481 
L 141.848763 230.47481 
L 141.848763 229.948123 
L 142.033307 229.948123 
L 142.033307 228.894751 
L 142.971369 228.894751 
L 142.971369 227.314693 
L 143.144465 227.314693 
L 143.144465 225.207949 
L 143.485587 225.207949 
L 143.485587 224.154577 
L 143.902815 224.154577 
L 143.902815 222.574518 
L 144.229555 222.574518 
L 144.229555 220.467774 
L 145.703082 220.467774 
L 145.703082 219.941088 
L 146.034567 219.941088 
L 146.034567 218.887716 
L 146.288102 218.887716 
L 146.288102 218.36103 
L 146.573414 218.36103 
L 146.573414 217.834344 
L 147.232888 217.834344 
L 147.232888 216.254285 
L 148.096724 216.254285 
L 148.161434 208.88068 
L 148.290138 208.88068 
L 148.290138 207.827308 
L 148.701984 207.827308 
L 148.701984 206.773936 
L 149.764758 206.773936 
L 149.794191 204.667192 
L 149.940618 204.667192 
L 150.027887 203.087133 
L 150.201126 203.087133 
L 150.201126 200.980389 
L 150.344189 200.980389 
L 150.344189 199.400331 
L 150.822008 199.400331 
L 150.932558 196.240214 
L 151.394733 196.240214 
L 151.394733 195.186842 
L 151.528368 195.186842 
L 151.528368 190.973354 
L 152.181601 190.973354 
L 152.181601 190.446667 
L 152.637225 190.446667 
L 152.637225 189.393295 
L 152.860649 189.393295 
L 152.860649 188.866609 
L 153.371104 188.866609 
L 153.371104 188.339923 
L 153.656221 188.339923 
L 153.656221 186.759865 
L 154.029268 186.759865 
L 154.029268 185.706493 
L 155.12447 185.706493 
L 155.12447 183.599748 
L 155.699795 183.599748 
L 155.699795 183.073062 
L 156.297301 183.073062 
L 156.357959 176.226143 
L 157.011638 176.226143 
L 157.089232 171.485969 
L 157.243392 171.485969 
L 157.243392 169.379224 
L 157.902267 169.379224 
L 157.902267 168.852538 
L 158.031107 168.852538 
L 158.140788 165.692422 
L 158.231665 165.692422 
L 158.285965 161.478933 
L 158.784773 161.478933 
L 158.784773 160.425561 
L 158.942121 160.425561 
L 158.942121 158.318817 
L 159.132527 158.318817 
L 159.132527 155.685386 
L 159.405822 155.685386 
L 159.507213 151.998584 
L 159.641491 151.998584 
L 159.6749 145.151665 
L 159.791329 145.151665 
L 159.807898 143.571606 
L 159.972732 143.571606 
L 159.972732 139.358118 
L 160.136022 139.358118 
L 160.136022 138.831432 
L 160.601097 138.831432 
L 160.601097 138.304745 
L 160.992304 138.304745 
L 160.992304 137.778059 
L 161.131018 137.778059 
L 161.131018 136.724687 
L 161.344625 136.724687 
L 161.39006 134.091257 
L 161.465522 134.091257 
L 161.465522 133.037885 
L 161.675095 133.037885 
L 161.778945 128.29771 
L 162.130378 128.29771 
L 162.159347 124.084221 
L 162.332157 124.084221 
L 162.332157 122.504163 
L 162.531628 122.504163 
L 162.531628 121.450791 
L 162.784783 121.450791 
L 162.812686 120.397419 
L 163.482721 120.397419 
L 163.576373 117.763988 
L 163.656248 117.763988 
L 163.722532 115.130558 
L 163.959089 115.130558 
L 164.024234 109.337011 
L 164.205356 109.337011 
L 164.205356 108.810325 
L 164.333587 108.810325 
L 164.346358 106.703581 
L 164.66264 106.703581 
L 164.66264 105.650209 
L 164.800007 105.650209 
L 164.824867 104.596836 
L 164.911599 104.596836 
L 164.911599 103.543464 
L 165.326839 103.543464 
L 165.387079 102.490092 
L 165.76776 102.490092 
L 165.861646 101.43672 
L 166.08262 101.43672 
L 166.163331 98.803289 
L 166.209284 98.803289 
L 166.209284 98.276603 
L 166.369174 98.276603 
L 166.369174 97.749917 
L 167.038282 97.749917 
L 167.038282 96.169859 
L 182.646201 96.169859 
L 182.646201 95.643173 
L 183.017734 95.643173 
L 183.017734 95.116487 
L 183.33001 95.116487 
L 183.33001 94.589801 
L 183.754654 94.589801 
L 183.754654 94.063115 
L 183.979734 94.063115 
L 183.979734 93.536429 
L 184.34853 93.536429 
L 184.364741 91.95637 
L 184.469749 91.95637 
L 184.469749 91.429684 
L 184.590131 91.429684 
L 184.685842 89.32294 
L 184.792892 89.32294 
L 184.89929 87.216196 
L 184.918922 87.216196 
L 184.918922 86.68951 
L 185.164412 86.68951 
L 185.249332 84.056079 
L 185.303157 84.056079 
L 185.310832 83.002707 
L 185.539547 83.002707 
L 185.569817 80.895963 
L 185.656552 80.895963 
L 185.671592 79.842591 
L 186.120538 79.842591 
L 186.131524 78.262532 
L 186.255543 78.262532 
L 186.328086 76.155788 
L 186.665053 76.155788 
L 186.774768 75.102416 
L 186.781822 75.102416 
L 186.845187 73.522358 
L 187.158601 73.522358 
L 187.230927 71.942299 
L 187.309799 71.942299 
L 187.350809 70.362241 
L 187.493588 70.362241 
L 187.540922 69.308869 
L 187.665404 69.308869 
L 187.718961 68.255497 
L 187.792333 68.255497 
L 187.868712 64.568694 
L 187.994175 64.568694 
L 187.997465 63.515322 
L 188.180693 63.515322 
L 188.232693 61.935264 
L 188.32332 61.935264 
L 188.38455 60.355206 
L 188.455181 60.355206 
L 188.519143 58.775147 
L 188.617823 58.775147 
L 188.617823 58.248461 
L 188.750634 58.248461 
L 188.841751 56.141717 
L 188.923038 56.141717 
L 188.923038 55.615031 
L 189.047361 55.615031 
L 189.047361 55.088345 
L 189.259756 55.088345 
L 189.314741 52.9816 
L 194.258358 52.9816 
L 194.258358 52.454914 
L 195.827954 52.454914 
L 195.897095 51.401542 
L 196.047004 51.401542 
L 196.049077 50.34817 
L 196.242848 50.34817 
L 196.28789 48.768112 
L 196.442599 48.768112 
L 196.442599 48.241426 
L 196.561763 48.241426 
L 196.561763 47.71474 
L 196.724046 47.71474 
L 196.724046 47.188054 
L 196.837347 47.188054 
L 196.922335 45.607995 
L 196.961723 45.607995 
L 197.010834 44.554623 
L 197.30263 44.554623 
L 197.321911 43.501251 
L 197.423744 43.501251 
L 197.511647 42.447879 
L 197.718189 42.447879 
L 197.733252 41.394507 
L 197.881305 41.394507 
L 197.972508 40.341135 
L 198.057696 40.341135 
L 198.057696 39.814448 
L 198.374399 39.814448 
L 198.374399 39.287762 
L 198.660487 39.287762 
L 198.770784 38.23439 
L 198.959509 38.23439 
L 198.959509 37.707704 
L 200.978245 37.707704 
L 200.978245 37.181018 
L 201.705082 37.181018 
L 201.705082 36.654332 
L 202.391311 36.654332 
L 202.391311 36.127646 
L 202.620345 36.127646 
L 202.620345 35.60096 
L 203.025176 35.60096 
L 203.122169 34.547588 
L 203.698412 34.547588 
L 203.698412 34.020902 
L 204.301481 34.020902 
L 204.301481 33.494215 
L 204.620114 33.494215 
L 204.620114 32.967529 
L 204.761559 32.967529 
L 204.761559 32.440843 
L 207.381963 32.440843 
L 207.381963 31.914157 
L 207.844418 31.914157 
L 207.862326 30.860785 
L 213.535646 30.860785 
L 213.535646 30.334099 
L 338.688 30.334099 
L 338.688 30.334099 
" style="fill:none;stroke:#008000;stroke-linecap:square;stroke-width:1.5;"/>
   </g>
   <g id="line2d_36">
    <defs>
     <path d="M -0 6 
L 6 -6 
L -6 -6 
z
" id="m3fd73c5562" style="stroke:#008000;stroke-linejoin:miter;stroke-width:1.5;"/>
    </defs>
    <g>
     <use style="fill-opacity:0;stroke:#008000;stroke-linejoin:miter;stroke-width:1.5;" x="141.848763" xlink:href="#m3fd73c5562" y="230.47481"/>
     <use style="fill-opacity:0;stroke:#008000;stroke-linejoin:miter;stroke-width:1.5;" x="185.671592" xlink:href="#m3fd73c5562" y="79.842591"/>
     <use style="fill-opacity:0;stroke:#008000;stroke-linejoin:miter;stroke-width:1.5;" x="213.535646" xlink:href="#m3fd73c5562" y="30.860785"/>
     <use style="fill-opacity:0;stroke:#008000;stroke-linejoin:miter;stroke-width:1.5;" x="213.535646" xlink:href="#m3fd73c5562" y="30.334099"/>
     <use style="fill-opacity:0;stroke:#008000;stroke-linejoin:miter;stroke-width:1.5;" x="213.535646" xlink:href="#m3fd73c5562" y="30.334099"/>
     <use style="fill-opacity:0;stroke:#008000;stroke-linejoin:miter;stroke-width:1.5;" x="338.688" xlink:href="#m3fd73c5562" y="30.334099"/>
    </g>
   </g>
   <g id="line2d_37">
    <path style="fill:none;stroke:#008000;stroke-linecap:square;stroke-width:1.5;"/>
    <g/>
   </g>
   <g id="line2d_38">
    <path clip-path="url(#pc62d5c1008)" d="M 182.64173 96.169859 
" style="fill:none;stroke:#008000;stroke-linecap:square;stroke-width:1.5;"/>
    <defs>
     <path d="M -12 12 
L 12 -12 
M -12 -12 
L 12 12 
" id="m3d770cf9ae" style="stroke:#008000;"/>
    </defs>
    <g clip-path="url(#pc62d5c1008)">
     <use style="fill:#008000;stroke:#008000;" x="182.64173" xlink:href="#m3d770cf9ae" y="96.169859"/>
    </g>
   </g>
   <g id="line2d_39">
    <defs>
     <path d="M 0 1.5 
C 0.397805 1.5 0.77937 1.341951 1.06066 1.06066 
C 1.341951 0.77937 1.5 0.397805 1.5 0 
C 1.5 -0.397805 1.341951 -0.77937 1.06066 -1.06066 
C 0.77937 -1.341951 0.397805 -1.5 0 -1.5 
C -0.397805 -1.5 -0.77937 -1.341951 -1.06066 -1.06066 
C -1.341951 -0.77937 -1.5 -0.397805 -1.5 0 
C -1.5 0.397805 -1.341951 0.77937 -1.06066 1.06066 
C -0.77937 1.341951 -0.397805 1.5 0 1.5 
z
" id="m60b1f0f5d5" style="stroke:#0000ff;"/>
    </defs>
    <g>
     <use style="fill:#0000ff;stroke:#0000ff;" x="222.391645" xlink:href="#m60b1f0f5d5" y="30.334099"/>
     <use style="fill:#0000ff;stroke:#0000ff;" x="222.391645" xlink:href="#m60b1f0f5d5" y="30.334099"/>
    </g>
   </g>
   <g id="line2d_40">
    <path d="M 29.53256 298.944 
L 29.53256 289.990337 
L 41.620548 289.990337 
L 41.620548 286.303534 
L 48.691568 286.303534 
L 48.691568 284.19679 
L 53.708537 284.19679 
L 53.708537 282.616732 
L 60.779557 282.616732 
L 60.779557 280.509987 
L 65.796525 280.509987 
L 65.796525 279.456615 
L 67.850577 279.456615 
L 67.850577 277.349871 
L 75.555822 277.349871 
L 75.555822 276.823185 
L 78.941764 276.823185 
L 78.941764 274.71644 
L 79.938565 274.71644 
L 79.938565 273.663068 
L 87.009585 273.663068 
L 87.009585 273.136382 
L 91.029752 273.136382 
L 91.029752 272.08301 
L 92.026554 272.08301 
L 92.026554 271.556324 
L 98.43941 271.556324 
L 98.43941 271.029638 
L 101.785851 271.029638 
L 101.785851 270.502952 
L 105.057436 270.502952 
L 105.057436 269.449579 
L 110.358901 269.449579 
L 110.358901 268.396207 
L 110.527398 268.396207 
L 110.527398 267.342835 
L 113.73488 267.342835 
L 113.73488 266.816149 
L 115.33349 266.816149 
L 115.33349 266.289463 
L 115.711251 266.289463 
L 115.711251 265.762777 
L 117.145424 265.762777 
L 117.145424 265.236091 
L 117.486268 265.236091 
L 117.486268 264.182719 
L 118.470564 264.182719 
L 118.470564 263.656033 
L 119.40226 263.656033 
L 119.40226 263.129347 
L 119.89914 263.129347 
L 119.89914 260.495916 
L 120.286695 260.495916 
L 120.286695 257.862486 
L 122.947573 257.862486 
L 122.947573 256.809114 
L 123.273551 256.809114 
L 123.273551 255.229055 
L 123.907776 255.229055 
L 123.907776 254.175683 
L 129.118302 254.175683 
L 129.118302 253.648997 
L 130.344571 253.648997 
L 130.344571 253.122311 
L 131.439773 253.122311 
L 131.439773 252.068939 
L 132.893889 252.068939 
L 132.893889 251.542253 
L 135.321124 251.542253 
L 135.321124 250.488881 
L 136.831795 250.488881 
L 136.942755 247.85545 
L 137.016339 247.85545 
L 137.016339 247.328764 
L 138.527635 247.328764 
L 138.527635 246.802078 
L 140.073083 246.802078 
L 140.073083 246.275392 
L 140.226464 246.275392 
L 140.226464 245.22202 
L 141.746425 245.22202 
L 141.746425 244.695334 
L 142.161336 244.695334 
L 142.161336 244.168648 
L 144.53439 244.168648 
L 144.53439 243.641962 
L 145.688202 243.641962 
L 145.710517 242.061903 
L 145.843812 242.061903 
L 145.843812 241.535217 
L 146.08557 241.535217 
L 146.107383 237.848415 
L 146.345539 237.848415 
L 146.345539 237.321729 
L 146.875005 237.321729 
L 146.875005 236.795043 
L 147.164632 236.795043 
L 147.164632 236.268356 
L 148.064279 236.268356 
L 148.142046 234.161612 
L 148.315765 234.161612 
L 148.315765 233.634926 
L 148.449693 233.634926 
L 148.449693 232.581554 
L 149.141003 232.581554 
L 149.214124 229.948123 
L 150.344189 229.948123 
L 150.344189 228.368065 
L 150.480434 228.368065 
L 150.480434 227.841379 
L 150.766468 227.841379 
L 150.766468 226.788007 
L 151.21133 226.788007 
L 151.21133 226.261321 
L 151.549655 226.261321 
L 151.549655 225.207949 
L 151.928441 225.207949 
L 151.928441 224.681263 
L 152.052897 224.681263 
L 152.052897 223.627891 
L 152.329717 223.627891 
L 152.329717 222.047832 
L 152.587184 222.047832 
L 152.587184 221.521146 
L 153.047115 221.521146 
L 153.120174 220.467774 
L 153.294279 220.467774 
L 153.294279 219.414402 
L 153.423725 219.414402 
L 153.423725 218.887716 
L 153.609024 218.887716 
L 153.609024 217.307658 
L 153.792374 217.307658 
L 153.792374 215.727599 
L 154.56087 215.727599 
L 154.627867 214.147541 
L 154.694607 214.147541 
L 154.694607 211.514111 
L 155.206599 211.514111 
L 155.206599 210.987425 
L 155.399584 210.987425 
L 155.425155 209.934052 
L 155.678822 209.934052 
L 155.678822 208.353994 
L 155.966049 208.353994 
L 155.966049 207.300622 
L 156.126326 207.300622 
L 156.138594 205.193878 
L 156.260804 205.193878 
L 156.260804 204.667192 
L 156.941506 204.667192 
L 157.023299 203.087133 
L 157.104709 203.087133 
L 157.104709 202.560447 
L 157.243392 202.560447 
L 157.243392 201.507075 
L 157.630442 201.507075 
L 157.720277 198.873645 
L 158.271501 198.873645 
L 158.325678 195.713528 
L 158.433528 195.713528 
L 158.433528 194.660156 
L 158.615355 194.660156 
L 158.615355 194.13347 
L 159.242359 194.13347 
L 159.242359 193.080098 
L 159.385473 193.080098 
L 159.476858 190.446667 
L 159.507213 190.446667 
L 159.587904 186.759865 
L 159.758143 186.759865 
L 159.758143 186.233179 
L 159.887213 186.233179 
L 159.946463 184.653121 
L 160.249422 184.653121 
L 160.259108 182.01969 
L 160.537682 182.01969 
L 160.585265 180.439632 
L 161.155563 180.439632 
L 161.256448 177.279515 
L 161.283861 177.279515 
L 161.384008 172.012655 
L 161.902754 172.012655 
L 161.902754 170.959282 
L 162.02569 170.959282 
L 162.104265 169.90591 
L 162.156452 169.90591 
L 162.234442 168.852538 
L 162.337888 168.852538 
L 162.337888 167.799166 
L 162.593851 167.799166 
L 162.593851 167.27248 
L 162.737246 167.27248 
L 162.80432 165.165736 
L 162.962595 165.165736 
L 163.037069 161.478933 
L 163.094774 161.478933 
L 163.094774 160.952247 
L 163.242288 160.952247 
L 163.242288 160.425561 
L 163.549667 160.425561 
L 163.549667 159.898875 
L 163.709295 159.898875 
L 163.812276 157.79213 
L 163.851722 157.79213 
L 163.953867 155.1587 
L 164.179597 155.1587 
L 164.179597 154.632014 
L 164.325919 154.632014 
L 164.325919 154.105328 
L 164.546914 154.105328 
L 164.569616 151.471897 
L 164.79503 151.471897 
L 164.79503 149.891839 
L 165.302685 149.891839 
L 165.396698 148.838467 
L 165.418321 148.838467 
L 165.447111 146.731723 
L 165.576079 146.731723 
L 165.604609 145.151665 
L 165.824152 145.151665 
L 165.824152 144.624978 
L 166.061806 144.624978 
L 166.089553 143.571606 
L 166.541125 143.571606 
L 166.541125 143.04492 
L 166.675688 143.04492 
L 166.675688 142.518234 
L 166.829163 142.518234 
L 166.855717 141.464862 
L 167.346259 141.464862 
L 167.346259 140.938176 
L 167.741609 140.938176 
L 167.741609 138.304745 
L 168.620674 138.304745 
L 168.620674 136.724687 
L 170.305145 136.724687 
L 170.305145 135.144629 
L 171.350865 135.144629 
L 171.350865 134.091257 
L 171.856094 134.091257 
L 171.856094 133.037885 
L 180.887589 133.037885 
L 180.887589 132.511199 
L 181.482565 132.511199 
L 181.482565 131.457826 
L 182.289409 131.457826 
L 182.29762 130.404454 
L 182.455616 130.404454 
L 182.455616 129.877768 
L 182.593369 129.877768 
L 182.64173 128.824396 
L 182.743386 128.824396 
L 182.743386 128.29771 
L 182.894767 128.29771 
L 182.989704 127.244338 
L 183.112876 127.244338 
L 183.170233 124.610907 
L 183.286971 124.610907 
L 183.286971 124.084221 
L 183.563995 124.084221 
L 183.563995 123.557535 
L 183.733666 123.557535 
L 183.758849 122.504163 
L 183.931628 122.504163 
L 184.040919 120.397419 
L 184.082962 120.397419 
L 184.082962 119.870733 
L 184.286789 119.870733 
L 184.286789 119.344047 
L 184.435085 119.344047 
L 184.447185 117.763988 
L 184.630074 117.763988 
L 184.737466 115.657244 
L 184.768368 115.657244 
L 184.768368 115.130558 
L 184.900861 115.130558 
L 184.959686 113.5505 
L 185.018314 113.5505 
L 185.018314 113.023814 
L 185.17679 113.023814 
L 185.227755 110.390383 
L 185.379762 110.390383 
L 185.466684 109.337011 
L 185.575865 109.337011 
L 185.664074 106.176895 
L 185.819051 106.176895 
L 185.926054 103.543464 
L 185.961577 103.543464 
L 186.045654 101.963406 
L 186.080933 101.963406 
L 186.102947 100.383348 
L 186.210415 100.383348 
L 186.28895 97.749917 
L 186.481604 97.749917 
L 186.524605 96.169859 
L 186.633782 96.169859 
L 186.706188 94.589801 
L 186.759237 94.589801 
L 186.759237 94.063115 
L 186.90482 94.063115 
L 187.003294 90.902998 
L 187.055448 90.902998 
L 187.10537 89.849626 
L 187.276922 89.849626 
L 187.276922 88.796254 
L 187.475296 88.796254 
L 187.530114 87.742882 
L 187.657357 87.742882 
L 187.657357 87.216196 
L 187.777684 87.216196 
L 187.777684 86.68951 
L 187.936838 86.68951 
L 187.942779 85.636137 
L 188.206063 85.636137 
L 188.206063 85.109451 
L 188.513396 85.109451 
L 188.551674 82.476021 
L 188.664106 82.476021 
L 188.664106 81.949335 
L 188.82482 81.949335 
L 188.82482 81.422649 
L 189.078922 81.422649 
L 189.091901 79.842591 
L 189.630277 79.842591 
L 189.630277 78.789218 
L 189.982526 78.789218 
L 189.982526 78.262532 
L 193.874694 78.262532 
L 193.959023 77.20916 
L 194.246869 77.20916 
L 194.348628 76.155788 
L 194.457974 76.155788 
L 194.486564 75.102416 
L 194.87533 75.102416 
L 194.87533 74.57573 
L 194.994651 74.57573 
L 195.035562 73.522358 
L 195.191722 73.522358 
L 195.28683 71.942299 
L 195.303713 71.942299 
L 195.393049 68.782183 
L 195.511456 68.782183 
L 195.553733 66.675439 
L 195.657072 66.675439 
L 195.752213 64.568694 
L 195.792649 64.568694 
L 195.809049 63.515322 
L 195.912144 63.515322 
L 195.968462 61.935264 
L 196.038294 61.935264 
L 196.119 59.82852 
L 196.190701 59.82852 
L 196.295249 57.195089 
L 196.372336 57.195089 
L 196.421104 55.615031 
L 196.677319 55.615031 
L 196.768261 54.034973 
L 196.827834 54.034973 
L 196.901423 52.9816 
L 197.200862 52.9816 
L 197.249692 51.928228 
L 197.46087 51.928228 
L 197.46087 51.401542 
L 197.645704 51.401542 
L 197.737392 49.821484 
L 197.913746 49.821484 
L 197.913746 49.294798 
L 198.352979 49.294798 
L 198.352979 48.768112 
L 201.103731 48.768112 
L 201.103731 48.241426 
L 201.290744 48.241426 
L 201.295348 47.188054 
L 201.582053 47.188054 
L 201.639013 45.081309 
L 201.792688 45.081309 
L 201.799844 44.027937 
L 201.993734 44.027937 
L 202.016716 42.974565 
L 202.257951 42.974565 
L 202.330109 41.921193 
L 202.437359 41.921193 
L 202.489018 40.867821 
L 202.573923 40.867821 
L 202.674585 38.761076 
L 202.785661 38.761076 
L 202.785661 38.23439 
L 202.902752 38.23439 
L 202.902752 37.707704 
L 203.98665 37.707704 
L 203.98665 37.181018 
L 205.799191 37.181018 
L 205.799191 36.654332 
L 206.288594 36.654332 
L 206.288594 36.127646 
L 206.772709 36.127646 
L 206.877301 34.547588 
L 207.155815 34.547588 
L 207.166338 33.494215 
L 207.799671 33.494215 
L 207.799671 32.967529 
L 208.053327 32.967529 
L 208.053327 32.440843 
L 211.039251 32.440843 
L 211.050831 31.387471 
L 216.134104 31.387471 
L 216.134104 30.860785 
L 222.391645 30.860785 
L 222.391645 30.334099 
L 338.688 30.334099 
L 338.688 30.334099 
" style="fill:none;stroke:#0000ff;stroke-linecap:square;stroke-width:1.5;"/>
   </g>
   <g id="line2d_41">
    <defs>
     <path d="M 0 -6 
L -1.347084 -1.854102 
L -5.706339 -1.854102 
L -2.179628 0.708204 
L -3.526712 4.854102 
L -0 2.291796 
L 3.526712 4.854102 
L 2.179628 0.708204 
L 5.706339 -1.854102 
L 1.347084 -1.854102 
z
" id="me29fb2691b" style="stroke:#0000ff;stroke-linejoin:bevel;stroke-width:1.5;"/>
    </defs>
    <g>
     <use style="fill-opacity:0;stroke:#0000ff;stroke-linejoin:bevel;stroke-width:1.5;" x="105.057436" xlink:href="#me29fb2691b" y="269.449579"/>
     <use style="fill-opacity:0;stroke:#0000ff;stroke-linejoin:bevel;stroke-width:1.5;" x="159.507213" xlink:href="#me29fb2691b" y="190.446667"/>
     <use style="fill-opacity:0;stroke:#0000ff;stroke-linejoin:bevel;stroke-width:1.5;" x="196.827834" xlink:href="#me29fb2691b" y="53.508287"/>
     <use style="fill-opacity:0;stroke:#0000ff;stroke-linejoin:bevel;stroke-width:1.5;" x="222.391645" xlink:href="#me29fb2691b" y="30.334099"/>
     <use style="fill-opacity:0;stroke:#0000ff;stroke-linejoin:bevel;stroke-width:1.5;" x="222.391645" xlink:href="#me29fb2691b" y="30.334099"/>
     <use style="fill-opacity:0;stroke:#0000ff;stroke-linejoin:bevel;stroke-width:1.5;" x="338.688" xlink:href="#me29fb2691b" y="30.334099"/>
    </g>
   </g>
   <g id="line2d_42">
    <path style="fill:none;stroke:#0000ff;stroke-linecap:square;stroke-width:1.5;"/>
    <g/>
   </g>
   <g id="line2d_43">
    <path clip-path="url(#pc62d5c1008)" d="M 180.952739 132.511199 
" style="fill:none;stroke:#0000ff;stroke-linecap:square;stroke-width:1.5;"/>
    <defs>
     <path d="M -12 12 
L 12 -12 
M -12 -12 
L 12 12 
" id="mc8ba1ec131" style="stroke:#0000ff;"/>
    </defs>
    <g clip-path="url(#pc62d5c1008)">
     <use style="fill:#0000ff;stroke:#0000ff;" x="180.952739" xlink:href="#mc8ba1ec131" y="132.511199"/>
    </g>
   </g>
   <g id="line2d_44">
    <defs>
     <path d="M 0 1.5 
C 0.397805 1.5 0.77937 1.341951 1.06066 1.06066 
C 1.341951 0.77937 1.5 0.397805 1.5 0 
C 1.5 -0.397805 1.341951 -0.77937 1.06066 -1.06066 
C 0.77937 -1.341951 0.397805 -1.5 0 -1.5 
C -0.397805 -1.5 -0.77937 -1.341951 -1.06066 -1.06066 
C -1.341951 -0.77937 -1.5 -0.397805 -1.5 0 
C -1.5 0.397805 -1.341951 0.77937 -1.06066 1.06066 
C -0.77937 1.341951 -0.397805 1.5 0 1.5 
z
" id="ma935dc47a2" style="stroke:#000000;"/>
    </defs>
    <g>
     <use style="stroke:#000000;" x="234.718682" xlink:href="#ma935dc47a2" y="30.334099"/>
     <use style="stroke:#000000;" x="234.718682" xlink:href="#ma935dc47a2" y="30.334099"/>
    </g>
   </g>
   <g id="line2d_45">
    <path d="M 17.444571 298.944 
L 17.444571 293.677139 
L 36.60358 293.677139 
L 36.60358 292.623767 
L 48.691568 292.623767 
L 48.691568 291.570395 
L 51.379845 291.570395 
L 51.379845 291.043709 
L 53.708537 291.043709 
L 53.708537 290.517023 
L 59.262141 290.517023 
L 59.262141 289.990337 
L 63.467834 289.990337 
L 63.467834 289.463651 
L 73.579452 289.463651 
L 73.579452 288.936964 
L 77.884514 288.936964 
L 77.884514 288.410278 
L 81.334453 288.410278 
L 81.334453 287.883592 
L 88.846997 287.883592 
L 88.846997 287.356906 
L 89.972502 287.356906 
L 89.972502 286.83022 
L 96.676366 286.83022 
L 96.676366 286.303534 
L 98.100772 286.303534 
L 98.100772 285.776848 
L 100.789049 285.776848 
L 100.789049 285.250162 
L 105.732589 285.250162 
L 105.732589 284.723476 
L 107.514726 284.723476 
L 107.514726 284.19679 
L 111.023335 284.19679 
L 111.023335 283.670104 
L 112.803609 283.670104 
L 112.803609 282.616732 
L 112.950158 282.616732 
L 112.950158 282.090045 
L 115.397021 282.090045 
L 115.397021 281.563359 
L 115.835374 281.563359 
L 115.835374 281.036673 
L 118.681952 281.036673 
L 118.681952 280.509987 
L 120.045484 280.509987 
L 120.093994 279.456615 
L 122.988655 279.456615 
L 122.988655 278.929929 
L 123.192626 278.929929 
L 123.192626 277.876557 
L 123.712047 277.876557 
L 123.712047 277.349871 
L 123.985457 277.349871 
L 123.985457 276.296499 
L 127.261631 276.296499 
L 127.261631 275.243126 
L 129.347769 275.243126 
L 129.347769 274.71644 
L 130.018593 274.71644 
L 130.018593 274.189754 
L 131.814826 274.189754 
L 131.839545 273.136382 
L 133.46572 273.136382 
L 133.46572 272.609696 
L 133.931979 272.609696 
L 133.931979 272.08301 
L 134.149701 272.08301 
L 134.149701 271.556324 
L 135.199312 271.556324 
L 135.199312 271.029638 
L 135.44209 271.029638 
L 135.50226 269.976266 
L 135.681535 269.976266 
L 135.681535 269.449579 
L 136.380754 269.449579 
L 136.380754 268.922893 
L 136.513517 268.922893 
L 136.513517 267.869521 
L 137.126135 267.869521 
L 137.126135 267.342835 
L 138.01518 267.342835 
L 138.049816 266.289463 
L 138.187677 266.289463 
L 138.187677 265.762777 
L 138.67848 265.762777 
L 138.67848 265.236091 
L 139.715103 265.236091 
L 139.715103 264.709405 
L 140.165274 264.709405 
L 140.165274 263.656033 
L 140.348205 263.656033 
L 140.348205 263.129347 
L 140.499195 263.129347 
L 140.499195 262.60266 
L 140.841591 262.60266 
L 140.841591 262.075974 
L 140.988387 262.075974 
L 141.075875 261.022602 
L 141.148448 261.022602 
L 141.177393 259.96923 
L 141.521035 259.96923 
L 141.521035 259.442544 
L 142.297475 259.442544 
L 142.297475 258.389172 
L 142.566605 258.389172 
L 142.659828 257.3358 
L 142.712875 257.3358 
L 142.712875 256.809114 
L 142.844792 256.809114 
L 142.871056 254.702369 
L 143.092717 254.702369 
L 143.092717 254.175683 
L 143.791143 254.175683 
L 143.791143 253.648997 
L 144.099593 253.648997 
L 144.148442 252.595625 
L 144.221461 252.595625 
L 144.221461 252.068939 
L 144.688773 252.068939 
L 144.688773 251.542253 
L 144.970247 251.542253 
L 144.970247 251.015567 
L 145.48607 251.015567 
L 145.48607 250.488881 
L 145.677034 250.488881 
L 145.699363 249.435508 
L 146.377764 249.435508 
L 146.377764 248.908822 
L 146.749392 248.908822 
L 146.78088 247.85545 
L 147.56019 247.85545 
L 147.56019 246.275392 
L 147.897863 246.275392 
L 147.897863 245.22202 
L 148.891932 245.22202 
L 148.891932 244.695334 
L 149.277854 244.695334 
L 149.350404 243.641962 
L 149.40462 243.641962 
L 149.40462 243.115275 
L 149.841182 243.115275 
L 149.841182 242.588589 
L 149.981398 242.588589 
L 150.042389 241.535217 
L 150.18963 241.535217 
L 150.206871 239.955159 
L 150.429467 239.955159 
L 150.480434 238.901787 
L 150.573489 238.901787 
L 150.573489 238.375101 
L 150.849711 238.375101 
L 150.849711 237.848415 
L 150.998554 237.848415 
L 150.998554 237.321729 
L 151.525705 237.321729 
L 151.60541 235.74167 
L 151.975216 235.74167 
L 152.021866 234.688298 
L 152.489189 234.688298 
L 152.489189 233.10824 
L 152.751777 233.10824 
L 152.811246 230.47481 
L 153.01047 230.47481 
L 153.01047 229.948123 
L 153.693887 229.948123 
L 153.693887 229.421437 
L 154.547439 229.421437 
L 154.654594 228.368065 
L 154.674612 228.368065 
L 154.674612 227.841379 
L 154.800864 227.841379 
L 154.800864 226.788007 
L 155.141793 226.788007 
L 155.25182 223.101204 
L 155.596784 223.101204 
L 155.691409 222.047832 
L 155.804285 222.047832 
L 155.804285 221.521146 
L 155.916435 221.521146 
L 155.916435 220.99446 
L 156.442528 220.99446 
L 156.442528 220.467774 
L 156.634302 220.467774 
L 156.634302 219.414402 
L 157.075678 219.414402 
L 157.122105 218.36103 
L 157.641697 218.36103 
L 157.675417 217.307658 
L 157.84861 217.307658 
L 157.84861 216.780971 
L 158.168101 216.780971 
L 158.168101 215.727599 
L 158.726721 215.727599 
L 158.774233 214.147541 
L 158.968208 214.147541 
L 158.968208 213.620855 
L 159.278248 213.620855 
L 159.278248 213.094169 
L 159.547605 213.094169 
L 159.547605 212.567483 
L 159.792986 212.567483 
L 159.792986 211.514111 
L 159.995685 211.514111 
L 159.995685 209.934052 
L 160.142522 209.934052 
L 160.142522 209.407366 
L 160.288133 209.407366 
L 160.288133 207.827308 
L 160.599515 207.827308 
L 160.599515 207.300622 
L 160.760203 207.300622 
L 160.760203 206.773936 
L 160.928745 206.773936 
L 160.928745 206.24725 
L 161.173949 206.24725 
L 161.173949 205.720564 
L 161.315788 205.720564 
L 161.356752 204.667192 
L 161.429341 204.667192 
L 161.429341 203.613819 
L 161.573617 203.613819 
L 161.573617 203.087133 
L 161.770068 203.087133 
L 161.770068 202.560447 
L 162.156452 202.560447 
L 162.156452 200.980389 
L 162.342185 200.980389 
L 162.385097 199.400331 
L 162.547205 199.400331 
L 162.547205 198.873645 
L 162.866969 198.873645 
L 162.866969 198.346959 
L 162.987455 198.346959 
L 162.987455 197.820273 
L 163.299319 197.820273 
L 163.299319 197.293586 
L 163.521581 197.293586 
L 163.597709 195.713528 
L 163.83201 195.713528 
L 163.83201 195.186842 
L 164.035935 195.186842 
L 164.035935 194.660156 
L 164.160252 194.660156 
L 164.24906 193.606784 
L 164.413891 193.606784 
L 164.452001 192.026726 
L 164.618704 192.026726 
L 164.618704 191.50004 
L 164.783829 191.50004 
L 164.783829 190.973354 
L 164.980675 190.973354 
L 164.980675 190.446667 
L 165.335285 190.446667 
L 165.335285 189.919981 
L 182.915909 189.919981 
L 182.915909 189.393295 
L 183.207934 189.393295 
L 183.311516 187.813237 
L 183.321841 187.813237 
L 183.396511 185.706493 
L 183.467024 185.706493 
L 183.467024 185.179807 
L 183.594505 185.179807 
L 183.594505 184.653121 
L 183.717277 184.653121 
L 183.717277 184.126434 
L 184.091606 184.126434 
L 184.13599 183.073062 
L 184.242788 183.073062 
L 184.295332 181.493004 
L 184.355016 181.493004 
L 184.355016 180.966318 
L 184.485848 180.966318 
L 184.485848 180.439632 
L 184.613309 180.439632 
L 184.613309 179.912946 
L 184.725567 179.912946 
L 184.725567 179.38626 
L 184.917352 179.38626 
L 185.004261 176.226143 
L 185.060404 176.226143 
L 185.140793 174.646085 
L 185.17563 174.646085 
L 185.256646 173.066027 
L 185.317738 173.066027 
L 185.317738 172.539341 
L 185.483789 172.539341 
L 185.558851 171.485969 
L 185.596261 171.485969 
L 185.605318 170.432596 
L 185.823522 170.432596 
L 185.888232 168.325852 
L 185.934942 168.325852 
L 185.985956 165.692422 
L 186.286774 165.692422 
L 186.376882 163.585677 
L 186.410419 163.585677 
L 186.508492 160.952247 
L 186.563216 160.952247 
L 186.60388 158.318817 
L 186.742279 158.318817 
L 186.806844 156.212072 
L 187.074186 156.212072 
L 187.158256 154.632014 
L 187.187223 154.632014 
L 187.245013 153.578642 
L 187.342615 153.578642 
L 187.383547 151.471897 
L 187.546323 151.471897 
L 187.552398 150.418525 
L 187.932877 150.418525 
L 187.932877 149.891839 
L 188.148441 149.891839 
L 188.148441 149.365153 
L 188.664106 149.365153 
L 188.664106 148.838467 
L 194.545638 148.838467 
L 194.545638 148.311781 
L 194.81336 148.311781 
L 194.900588 146.731723 
L 195.168845 146.731723 
L 195.253666 144.098292 
L 195.447848 144.098292 
L 195.538372 142.518234 
L 195.612495 142.518234 
L 195.721824 137.778059 
L 195.773074 137.778059 
L 195.860673 135.671315 
L 195.896467 135.671315 
L 195.987819 133.037885 
L 196.0084 133.037885 
L 196.119 129.351082 
L 196.265179 129.351082 
L 196.36623 126.717652 
L 196.3821 126.717652 
L 196.481872 124.610907 
L 196.52731 124.610907 
L 196.588915 123.030849 
L 196.756919 123.030849 
L 196.83378 121.450791 
L 196.913854 121.450791 
L 197.004163 119.870733 
L 197.061176 119.870733 
L 197.171732 118.290674 
L 197.240982 118.290674 
L 197.240982 117.763988 
L 197.370019 117.763988 
L 197.370019 117.237302 
L 197.526128 117.237302 
L 197.526128 116.710616 
L 197.663854 116.710616 
L 197.667821 115.657244 
L 197.863941 115.657244 
L 197.894177 114.603872 
L 201.497172 114.603872 
L 201.497172 114.077186 
L 201.635853 114.077186 
L 201.707929 113.023814 
L 201.819509 113.023814 
L 201.926384 110.390383 
L 201.988427 110.390383 
L 202.087238 108.283639 
L 202.259258 108.283639 
L 202.36651 105.123522 
L 202.429597 105.123522 
L 202.522515 103.016778 
L 202.573495 103.016778 
L 202.656713 101.963406 
L 202.703907 101.963406 
L 202.811843 100.383348 
L 202.821968 100.383348 
L 202.843463 98.803289 
L 202.969369 98.803289 
L 203.044479 96.696545 
L 203.085237 96.696545 
L 203.193736 94.063115 
L 203.347047 94.063115 
L 203.405467 93.009743 
L 203.520914 93.009743 
L 203.539136 91.95637 
L 204.055548 91.95637 
L 204.055548 91.429684 
L 206.579993 91.429684 
L 206.63227 89.849626 
L 206.692163 89.849626 
L 206.692163 89.32294 
L 206.834467 89.32294 
L 206.865265 87.216196 
L 206.977282 87.216196 
L 207.059502 85.109451 
L 207.132116 85.109451 
L 207.217873 84.056079 
L 207.247019 84.056079 
L 207.320814 81.422649 
L 207.486202 81.422649 
L 207.584046 78.789218 
L 207.737427 78.789218 
L 207.762859 77.735846 
L 207.861379 77.735846 
L 207.878744 76.155788 
L 208.112588 76.155788 
L 208.112588 75.629102 
L 208.683233 75.629102 
L 208.683233 75.102416 
L 210.153903 75.102416 
L 210.253881 74.049044 
L 210.283598 74.049044 
L 210.283598 73.522358 
L 210.46792 73.522358 
L 210.549881 70.888927 
L 210.60044 70.888927 
L 210.709438 69.308869 
L 210.747494 69.308869 
L 210.858507 67.728811 
L 210.958769 67.728811 
L 211.027927 66.675439 
L 211.107828 66.675439 
L 211.184494 64.568694 
L 211.419187 64.568694 
L 211.501679 62.46195 
L 211.738495 62.46195 
L 211.740265 61.408578 
L 213.256985 61.408578 
L 213.256985 60.881892 
L 213.631964 60.881892 
L 213.662115 59.82852 
L 213.807378 59.82852 
L 213.844626 58.775147 
L 214.00638 58.775147 
L 214.088355 56.668403 
L 214.198964 56.668403 
L 214.198964 56.141717 
L 214.331995 56.141717 
L 214.331995 55.615031 
L 214.602565 55.615031 
L 214.602565 55.088345 
L 214.829855 55.088345 
L 214.829855 54.561659 
L 215.957082 54.561659 
L 216.027434 53.508287 
L 216.174158 53.508287 
L 216.28403 52.454914 
L 216.424174 52.454914 
L 216.506337 51.401542 
L 216.75736 51.401542 
L 216.805658 49.821484 
L 217.021642 49.821484 
L 217.107738 48.241426 
L 218.427327 48.241426 
L 218.519977 47.188054 
L 218.541393 47.188054 
L 218.541393 46.661368 
L 218.653186 46.661368 
L 218.754967 45.081309 
L 218.805973 45.081309 
L 218.871958 43.501251 
L 219.201815 43.501251 
L 219.255641 42.447879 
L 221.080952 42.447879 
L 221.080952 41.921193 
L 222.353295 41.921193 
L 222.353295 41.394507 
L 223.486685 41.394507 
L 223.486685 40.867821 
L 223.800666 40.867821 
L 223.800666 40.341135 
L 224.549676 40.341135 
L 224.549676 39.814448 
L 225.45417 39.814448 
L 225.45417 39.287762 
L 225.990907 39.287762 
L 225.990907 38.761076 
L 227.043642 38.761076 
L 227.049004 37.707704 
L 227.301048 37.707704 
L 227.301048 37.181018 
L 227.460095 37.181018 
L 227.460095 36.654332 
L 228.176132 36.654332 
L 228.176132 36.127646 
L 228.349494 36.127646 
L 228.349494 35.60096 
L 229.563884 35.60096 
L 229.563884 35.074274 
L 229.84509 35.074274 
L 229.84509 34.547588 
L 229.97259 34.547588 
L 229.97259 34.020902 
L 230.598791 34.020902 
L 230.629467 32.967529 
L 231.135637 32.967529 
L 231.135637 32.440843 
L 232.504097 32.440843 
L 232.504097 31.914157 
L 232.754555 31.914157 
L 232.827918 30.860785 
L 234.718682 30.860785 
L 234.718682 30.334099 
L 338.688 30.334099 
L 338.688 30.334099 
" style="fill:none;stroke:#000000;stroke-linecap:square;stroke-width:1.5;"/>
   </g>
   <g id="line2d_46">
    <defs>
     <path d="M 0 6 
C 1.591219 6 3.117479 5.367802 4.242641 4.242641 
C 5.367802 3.117479 6 1.591219 6 0 
C 6 -1.591219 5.367802 -3.117479 4.242641 -4.242641 
C 3.117479 -5.367802 1.591219 -6 0 -6 
C -1.591219 -6 -3.117479 -5.367802 -4.242641 -4.242641 
C -5.367802 -3.117479 -6 -1.591219 -6 0 
C -6 1.591219 -5.367802 3.117479 -4.242641 4.242641 
C -3.117479 5.367802 -1.591219 6 0 6 
z
" id="mca03e944ae" style="stroke:#000000;stroke-width:1.5;"/>
    </defs>
    <g>
     <use style="fill-opacity:0;stroke:#000000;stroke-width:1.5;" x="136.513517" xlink:href="#mca03e944ae" y="267.869521"/>
     <use style="fill-opacity:0;stroke:#000000;stroke-width:1.5;" x="197.526128" xlink:href="#mca03e944ae" y="116.710616"/>
     <use style="fill-opacity:0;stroke:#000000;stroke-width:1.5;" x="234.718682" xlink:href="#mca03e944ae" y="30.860785"/>
     <use style="fill-opacity:0;stroke:#000000;stroke-width:1.5;" x="234.718682" xlink:href="#mca03e944ae" y="30.334099"/>
     <use style="fill-opacity:0;stroke:#000000;stroke-width:1.5;" x="338.688" xlink:href="#mca03e944ae" y="30.334099"/>
    </g>
   </g>
   <g id="line2d_47">
    <path style="fill:none;stroke:#000000;stroke-linecap:square;stroke-width:1.5;"/>
    <g/>
   </g>
   <g id="line2d_48">
    <path clip-path="url(#pc62d5c1008)" d="M 181.817674 189.919981 
" style="fill:none;stroke:#000000;stroke-linecap:square;stroke-width:1.5;"/>
    <defs>
     <path d="M -12 12 
L 12 -12 
M -12 -12 
L 12 12 
" id="m1733d03855" style="stroke:#000000;"/>
    </defs>
    <g clip-path="url(#pc62d5c1008)">
     <use style="stroke:#000000;" x="181.817674" xlink:href="#m1733d03855" y="189.919981"/>
    </g>
   </g>
   <g id="line2d_49">
    <defs>
     <path d="M 0 1.5 
C 0.397805 1.5 0.77937 1.341951 1.06066 1.06066 
C 1.341951 0.77937 1.5 0.397805 1.5 0 
C 1.5 -0.397805 1.341951 -0.77937 1.06066 -1.06066 
C 0.77937 -1.341951 0.397805 -1.5 0 -1.5 
C -0.397805 -1.5 -0.77937 -1.341951 -1.06066 -1.06066 
C -1.341951 -0.77937 -1.5 -0.397805 -1.5 0 
C -1.5 0.397805 -1.341951 0.77937 -1.06066 1.06066 
C -0.77937 1.341951 -0.397805 1.5 0 1.5 
z
" id="m50b7298918" style="stroke:#ff0000;"/>
    </defs>
    <g>
     <use style="fill:#ff0000;stroke:#ff0000;" x="239.916187" xlink:href="#m50b7298918" y="30.334099"/>
     <use style="fill:#ff0000;stroke:#ff0000;" x="239.916187" xlink:href="#m50b7298918" y="30.334099"/>
    </g>
   </g>
   <g id="line2d_50">
    <path d="M 5.356583 298.944 
L 5.356583 293.677139 
L 86.351421 293.677139 
L 86.351421 293.150453 
L 96.301313 293.150453 
L 96.301313 292.623767 
L 103.053508 292.623767 
L 103.053508 292.097081 
L 108.198707 292.097081 
L 108.198707 291.570395 
L 111.702614 291.570395 
L 111.702614 291.043709 
L 112.09017 291.043709 
L 112.09017 290.517023 
L 114.250364 290.517023 
L 114.250364 289.990337 
L 116.532432 289.990337 
L 116.532432 289.463651 
L 118.708196 289.463651 
L 118.81278 288.410278 
L 122.699028 288.410278 
L 122.699028 287.883592 
L 123.00916 287.883592 
L 123.00916 287.356906 
L 124.854767 287.356906 
L 124.854767 286.83022 
L 125.165375 286.83022 
L 125.165375 286.303534 
L 126.405947 286.303534 
L 126.405947 285.776848 
L 126.70692 285.776848 
L 126.70692 285.250162 
L 127.54831 285.250162 
L 127.54831 284.723476 
L 129.447219 284.723476 
L 129.447219 284.19679 
L 130.08701 284.19679 
L 130.08701 283.670104 
L 130.384893 283.670104 
L 130.384893 283.143418 
L 131.427132 283.143418 
L 131.502845 282.090045 
L 131.603287 282.090045 
L 131.603287 281.563359 
L 131.765283 281.563359 
L 131.814826 280.509987 
L 132.060454 280.509987 
L 132.060454 279.983301 
L 132.326708 279.983301 
L 132.326708 279.456615 
L 133.22783 279.456615 
L 133.22783 278.929929 
L 133.341516 278.929929 
L 133.341516 278.403243 
L 134.83909 278.403243 
L 134.83909 277.876557 
L 135.311005 277.876557 
L 135.311005 277.349871 
L 135.46217 277.349871 
L 135.46217 276.823185 
L 136.141133 276.823185 
L 136.227776 275.769812 
L 137.253364 275.769812 
L 137.253364 275.243126 
L 137.558536 275.243126 
L 137.558536 274.71644 
L 137.919575 274.71644 
L 137.989158 273.136382 
L 138.761723 273.136382 
L 138.761723 272.609696 
L 139.000903 272.609696 
L 139.017278 271.556324 
L 139.8092 271.556324 
L 139.8092 271.029638 
L 140.812083 271.029638 
L 140.812083 270.502952 
L 140.944478 270.502952 
L 141.054044 269.449579 
L 141.235139 269.449579 
L 141.235139 268.922893 
L 141.648175 268.922893 
L 141.648175 268.396207 
L 142.949611 268.396207 
L 142.949611 267.869521 
L 143.18962 267.869521 
L 143.228231 266.816149 
L 143.716296 266.816149 
L 143.716296 266.289463 
L 144.251795 266.289463 
L 144.251795 265.762777 
L 144.528424 265.762777 
L 144.582038 264.709405 
L 144.730105 264.709405 
L 144.730105 263.656033 
L 144.853518 263.656033 
L 144.853518 263.129347 
L 146.199783 263.129347 
L 146.199783 262.60266 
L 146.388493 262.60266 
L 146.388493 262.075974 
L 146.733626 262.075974 
L 146.733626 261.549288 
L 147.272014 261.549288 
L 147.272014 261.022602 
L 147.393932 261.022602 
L 147.499916 259.442544 
L 147.86833 259.442544 
L 147.86833 258.915858 
L 148.354135 258.915858 
L 148.354135 258.389172 
L 148.582601 258.389172 
L 148.582601 257.3358 
L 149.305096 257.3358 
L 149.305096 256.809114 
L 149.730848 256.809114 
L 149.730848 256.282427 
L 150.228399 256.282427 
L 150.228399 255.755741 
L 150.442223 255.755741 
L 150.442223 255.229055 
L 150.990318 255.229055 
L 150.990318 254.175683 
L 151.25601 254.175683 
L 151.336954 253.122311 
L 151.409483 253.122311 
L 151.409483 252.595625 
L 152.080004 252.595625 
L 152.080004 252.068939 
L 152.199544 252.068939 
L 152.199544 251.542253 
L 152.439984 251.542253 
L 152.439984 251.015567 
L 152.617226 251.015567 
L 152.617226 250.488881 
L 153.152952 250.488881 
L 153.152952 248.908822 
L 153.434469 248.908822 
L 153.434469 248.382136 
L 153.760778 248.382136 
L 153.785358 247.328764 
L 153.918189 247.328764 
L 153.918189 246.802078 
L 154.456513 246.802078 
L 154.456513 246.275392 
L 154.587699 246.275392 
L 154.59775 245.22202 
L 154.747816 245.22202 
L 154.747816 244.695334 
L 155.0376 244.695334 
L 155.0376 244.168648 
L 155.235683 244.168648 
L 155.235683 243.641962 
L 155.628383 243.641962 
L 155.628383 243.115275 
L 155.847985 243.115275 
L 155.847985 242.588589 
L 155.969145 242.588589 
L 155.969145 242.061903 
L 156.32159 242.061903 
L 156.32159 241.535217 
L 156.652174 241.535217 
L 156.750139 240.481845 
L 156.941506 240.481845 
L 156.941506 239.955159 
L 157.257775 239.955159 
L 157.257775 239.428473 
L 157.420907 239.428473 
L 157.420907 238.901787 
L 157.703468 238.901787 
L 157.703468 238.375101 
L 157.86528 238.375101 
L 157.951154 236.795043 
L 158.285061 236.795043 
L 158.285061 236.268356 
L 158.540715 236.268356 
L 158.572743 235.214984 
L 158.660518 235.214984 
L 158.660518 234.688298 
L 158.79794 234.688298 
L 158.887211 233.634926 
L 159.108409 233.634926 
L 159.16005 232.581554 
L 159.283369 232.581554 
L 159.283369 232.054868 
L 159.413447 232.054868 
L 159.413447 231.528182 
L 159.698248 231.528182 
L 159.775573 230.47481 
L 159.906985 230.47481 
L 159.906985 229.948123 
L 160.234884 229.948123 
L 160.234884 228.894751 
L 160.601888 228.894751 
L 160.601888 228.368065 
L 160.828284 228.368065 
L 160.828284 227.841379 
L 161.164758 227.841379 
L 161.23586 226.788007 
L 161.36357 226.788007 
L 161.372657 225.207949 
L 161.891735 225.207949 
L 161.891735 224.681263 
L 162.102087 224.681263 
L 162.147765 223.627891 
L 162.264677 223.627891 
L 162.337888 221.521146 
L 162.519582 221.521146 
L 162.579022 219.941088 
L 163.16049 219.941088 
L 163.16049 219.414402 
L 178.797156 219.414402 
L 178.797156 218.887716 
L 179.36235 218.887716 
L 179.36235 218.36103 
L 179.680005 218.36103 
L 179.680005 217.834344 
L 179.825657 217.834344 
L 179.828021 216.780971 
L 180.302303 216.780971 
L 180.309205 215.200913 
L 180.442869 215.200913 
L 180.536207 212.567483 
L 180.609464 212.567483 
L 180.708662 209.934052 
L 180.784184 209.934052 
L 180.784184 209.407366 
L 180.906122 209.407366 
L 180.906122 208.88068 
L 181.033834 208.88068 
L 181.033834 208.353994 
L 181.156236 208.353994 
L 181.258191 206.24725 
L 181.271982 206.24725 
L 181.271982 205.720564 
L 181.422966 205.720564 
L 181.494031 203.613819 
L 181.542676 203.613819 
L 181.579071 202.033761 
L 181.680008 202.033761 
L 181.70409 200.453703 
L 181.889953 200.453703 
L 181.962631 198.346959 
L 182.026672 198.346959 
L 182.026672 197.820273 
L 182.19126 197.820273 
L 182.282564 196.240214 
L 182.325646 196.240214 
L 182.393814 193.606784 
L 182.441373 193.606784 
L 182.442052 192.553412 
L 182.579239 192.553412 
L 182.668539 190.446667 
L 182.791332 190.446667 
L 182.8736 188.339923 
L 182.975891 188.339923 
L 183.041568 186.233179 
L 183.123319 186.233179 
L 183.209233 183.599748 
L 183.244906 183.599748 
L 183.325711 182.546376 
L 183.508558 182.546376 
L 183.562086 180.966318 
L 183.637637 180.966318 
L 183.637637 180.439632 
L 183.751298 180.439632 
L 183.856091 179.38626 
L 183.930382 179.38626 
L 184.025436 176.752829 
L 184.094074 176.752829 
L 184.193153 174.119399 
L 184.349543 174.119399 
L 184.349543 173.592713 
L 184.600725 173.592713 
L 184.670722 171.485969 
L 184.829416 171.485969 
L 184.829416 170.959282 
L 191.142863 170.959282 
L 191.142863 170.432596 
L 191.306463 170.432596 
L 191.306463 169.90591 
L 191.458836 169.90591 
L 191.568128 168.852538 
L 191.619913 168.852538 
L 191.729 165.165736 
L 191.778324 165.165736 
L 191.862726 164.112363 
L 191.908915 164.112363 
L 192.013863 162.532305 
L 192.088943 162.532305 
L 192.173412 159.898875 
L 192.205613 159.898875 
L 192.265587 158.318817 
L 192.33844 158.318817 
L 192.377247 156.738758 
L 192.459188 156.738758 
L 192.492773 155.685386 
L 192.627222 155.685386 
L 192.705364 153.051956 
L 192.742988 153.051956 
L 192.841181 149.891839 
L 192.860604 149.891839 
L 192.970756 147.258409 
L 193.011884 147.258409 
L 193.093851 145.678351 
L 193.126603 145.678351 
L 193.191924 144.098292 
L 193.355617 144.098292 
L 193.429484 141.991548 
L 193.475313 141.991548 
L 193.499442 140.938176 
L 193.592046 140.938176 
L 193.658147 138.831432 
L 193.72151 138.831432 
L 193.735718 137.251373 
L 198.013209 137.251373 
L 198.031813 136.198001 
L 198.252701 136.198001 
L 198.329533 134.091257 
L 198.407114 134.091257 
L 198.469202 132.511199 
L 198.550476 132.511199 
L 198.625742 130.93114 
L 198.710563 130.93114 
L 198.80825 129.351082 
L 198.862315 129.351082 
L 198.925443 127.244338 
L 199.098333 127.244338 
L 199.194657 124.610907 
L 199.305678 124.610907 
L 199.399071 122.504163 
L 199.466424 122.504163 
L 199.466424 121.977477 
L 199.689665 121.977477 
L 199.790565 119.870733 
L 199.965314 119.870733 
L 200.031509 118.817361 
L 202.551665 118.817361 
L 202.551665 118.290674 
L 202.869348 118.290674 
L 202.869348 117.763988 
L 203.1006 117.763988 
L 203.137086 116.710616 
L 203.245881 116.710616 
L 203.245881 116.18393 
L 203.367904 116.18393 
L 203.468163 113.023814 
L 203.522534 113.023814 
L 203.625334 110.390383 
L 203.685641 110.390383 
L 203.761531 106.176895 
L 203.836496 106.176895 
L 203.933511 104.596836 
L 204.033923 104.596836 
L 204.109296 101.963406 
L 204.160536 101.963406 
L 204.194482 100.910034 
L 204.342757 100.910034 
L 204.362844 99.856662 
L 204.484224 99.856662 
L 204.484224 99.329976 
L 206.591039 99.329976 
L 206.591039 98.803289 
L 206.95417 98.803289 
L 206.974623 97.223231 
L 207.124209 97.223231 
L 207.185558 95.643173 
L 207.249473 95.643173 
L 207.349789 94.063115 
L 207.362958 94.063115 
L 207.362958 93.536429 
L 207.482329 93.536429 
L 207.584527 90.376312 
L 207.595436 90.376312 
L 207.685014 88.796254 
L 207.729471 88.796254 
L 207.729471 88.269568 
L 207.843522 88.269568 
L 207.843522 87.742882 
L 209.858653 87.742882 
L 209.901842 85.636137 
L 210.06922 85.636137 
L 210.173142 84.056079 
L 210.192775 84.056079 
L 210.302695 81.949335 
L 210.305029 81.949335 
L 210.312442 80.895963 
L 210.428158 80.895963 
L 210.447369 79.842591 
L 210.575449 79.842591 
L 210.654621 77.735846 
L 210.701119 77.735846 
L 210.789607 76.155788 
L 212.329431 76.155788 
L 212.329431 75.629102 
L 212.52176 75.629102 
L 212.521881 74.57573 
L 212.712828 74.57573 
L 212.759167 72.995672 
L 212.885138 72.995672 
L 212.943653 70.888927 
L 213.011145 70.888927 
L 213.095584 67.728811 
L 213.403808 67.728811 
L 213.413001 66.675439 
L 213.607101 66.675439 
L 213.607101 66.148752 
L 214.730966 66.148752 
L 214.75949 65.09538 
L 214.980663 65.09538 
L 215.088693 62.46195 
L 215.130802 62.46195 
L 215.199273 60.881892 
L 215.304312 60.881892 
L 215.304312 60.355206 
L 215.453747 60.355206 
L 215.453747 59.82852 
L 216.789574 59.82852 
L 216.789574 59.301833 
L 216.912951 59.301833 
L 217.015476 57.721775 
L 217.043019 57.721775 
L 217.139869 55.615031 
L 217.161843 55.615031 
L 217.262275 52.9816 
L 217.335822 52.9816 
L 217.335822 52.454914 
L 217.544199 52.454914 
L 217.544199 51.928228 
L 218.822493 51.928228 
L 218.847579 50.34817 
L 219.075984 50.34817 
L 219.075984 49.821484 
L 220.379241 49.821484 
L 220.47138 48.241426 
L 220.674826 48.241426 
L 220.735551 47.188054 
L 220.820873 47.188054 
L 220.851122 46.134681 
L 221.677519 46.134681 
L 221.677519 45.607995 
L 222.029407 45.607995 
L 222.060361 44.554623 
L 222.243484 44.554623 
L 222.289743 43.501251 
L 222.356116 43.501251 
L 222.356116 42.974565 
L 223.242693 42.974565 
L 223.242693 42.447879 
L 223.40623 42.447879 
L 223.496869 41.394507 
L 223.533881 41.394507 
L 223.593 40.341135 
L 224.431167 40.341135 
L 224.431167 39.814448 
L 224.59844 39.814448 
L 224.59844 39.287762 
L 225.824803 39.287762 
L 225.901935 38.23439 
L 225.982472 38.23439 
L 225.994313 37.181018 
L 226.190208 37.181018 
L 226.190208 36.654332 
L 226.671335 36.654332 
L 226.671335 36.127646 
L 227.10636 36.127646 
L 227.10636 35.60096 
L 228.008842 35.60096 
L 228.043879 34.020902 
L 228.986129 34.020902 
L 228.986129 33.494215 
L 229.305431 33.494215 
L 229.305431 32.967529 
L 232.408187 32.967529 
L 232.443521 31.914157 
L 232.63695 31.914157 
L 232.63695 31.387471 
L 236.638726 31.387471 
L 236.638726 30.860785 
L 239.916187 30.860785 
L 239.916187 30.334099 
L 338.688 30.334099 
L 338.688 30.334099 
" style="fill:none;stroke:#ff0000;stroke-linecap:square;stroke-width:1.5;"/>
   </g>
   <g id="line2d_51">
    <defs>
     <path d="M -6 6 
L 6 6 
L 6 -6 
L -6 -6 
z
" id="meb957553cc" style="stroke:#ff0000;stroke-linejoin:miter;stroke-width:1.5;"/>
    </defs>
    <g>
     <use style="fill-opacity:0;stroke:#ff0000;stroke-linejoin:miter;stroke-width:1.5;" x="148.582601" xlink:href="#meb957553cc" y="257.3358"/>
     <use style="fill-opacity:0;stroke:#ff0000;stroke-linejoin:miter;stroke-width:1.5;" x="199.689665" xlink:href="#meb957553cc" y="121.450791"/>
     <use style="fill-opacity:0;stroke:#ff0000;stroke-linejoin:miter;stroke-width:1.5;" x="239.916187" xlink:href="#meb957553cc" y="30.860785"/>
     <use style="fill-opacity:0;stroke:#ff0000;stroke-linejoin:miter;stroke-width:1.5;" x="239.916187" xlink:href="#meb957553cc" y="30.334099"/>
     <use style="fill-opacity:0;stroke:#ff0000;stroke-linejoin:miter;stroke-width:1.5;" x="338.688" xlink:href="#meb957553cc" y="30.334099"/>
    </g>
   </g>
   <g id="line2d_52">
    <path style="fill:none;stroke:#ff0000;stroke-linecap:square;stroke-width:1.5;"/>
    <g/>
   </g>
   <g id="line2d_53">
    <path clip-path="url(#pc62d5c1008)" d="M 178.496907 219.414402 
" style="fill:none;stroke:#ff0000;stroke-linecap:square;stroke-width:1.5;"/>
    <defs>
     <path d="M -12 12 
L 12 -12 
M -12 -12 
L 12 12 
" id="m6ecf61d65f" style="stroke:#ff0000;"/>
    </defs>
    <g clip-path="url(#pc62d5c1008)">
     <use style="fill:#ff0000;stroke:#ff0000;" x="178.496907" xlink:href="#m6ecf61d65f" y="219.414402"/>
    </g>
   </g>
   <g id="line2d_54">
    <path d="M 338.688 30.334099 
L 369.60768 293.571802 
" style="fill:none;stroke:#ff0000;stroke-linecap:square;stroke-width:1.5;"/>
    <g>
     <use style="fill-opacity:0;stroke:#ff0000;stroke-linejoin:miter;stroke-width:1.5;" x="338.688" xlink:href="#meb957553cc" y="30.334099"/>
     <use style="fill-opacity:0;stroke:#ff0000;stroke-linejoin:miter;stroke-width:1.5;" x="369.60768" xlink:href="#meb957553cc" y="293.571802"/>
    </g>
   </g>
   <g id="line2d_55">
    <path d="M 338.688 30.334099 
L 369.60768 229.105426 
" style="fill:none;stroke:#000000;stroke-linecap:square;stroke-width:1.5;"/>
    <g>
     <use style="fill-opacity:0;stroke:#000000;stroke-width:1.5;" x="338.688" xlink:href="#mca03e944ae" y="30.334099"/>
     <use style="fill-opacity:0;stroke:#000000;stroke-width:1.5;" x="369.60768" xlink:href="#mca03e944ae" y="229.105426"/>
    </g>
   </g>
   <g id="line2d_56">
    <path d="M 338.688 30.334099 
L 369.60768 164.63905 
" style="fill:none;stroke:#0000ff;stroke-linecap:square;stroke-width:1.5;"/>
    <g>
     <use style="fill-opacity:0;stroke:#0000ff;stroke-linejoin:bevel;stroke-width:1.5;" x="338.688" xlink:href="#me29fb2691b" y="30.334099"/>
     <use style="fill-opacity:0;stroke:#0000ff;stroke-linejoin:bevel;stroke-width:1.5;" x="369.60768" xlink:href="#me29fb2691b" y="164.63905"/>
    </g>
   </g>
   <g id="line2d_57">
    <path d="M 338.688 30.334099 
L 369.60768 100.172673 
" style="fill:none;stroke:#00bfbf;stroke-linecap:square;stroke-width:1.5;"/>
    <g>
     <use style="fill-opacity:0;stroke:#00bfbf;stroke-width:1.5;" x="338.688" xlink:href="#m60b2816ca7" y="30.334099"/>
     <use style="fill-opacity:0;stroke:#00bfbf;stroke-width:1.5;" x="369.60768" xlink:href="#m60b2816ca7" y="100.172673"/>
    </g>
   </g>
   <g id="line2d_58">
    <path d="M 338.688 30.334099 
L 369.60768 35.706297 
" style="fill:none;stroke:#008000;stroke-linecap:square;stroke-width:1.5;"/>
    <g>
     <use style="fill-opacity:0;stroke:#008000;stroke-linejoin:miter;stroke-width:1.5;" x="338.688" xlink:href="#m3fd73c5562" y="30.334099"/>
     <use style="fill-opacity:0;stroke:#008000;stroke-linejoin:miter;stroke-width:1.5;" x="369.60768" xlink:href="#m3fd73c5562" y="35.706297"/>
    </g>
   </g>
   <g id="line2d_59">
    <path d="M 338.688 298.944 
L 338.688 30.334099 
" style="fill:none;stroke:#000000;stroke-linecap:square;stroke-width:1.5;"/>
   </g>
   <g id="patch_3">
    <path d="M 57.6 298.944 
L 57.6 27.648 
" style="fill:none;stroke:#000000;stroke-linecap:square;stroke-linejoin:miter;stroke-width:0.8;"/>
   </g>
   <g id="patch_4">
    <path d="M 338.688 298.944 
L 338.688 27.648 
" style="fill:none;stroke:#000000;stroke-linecap:square;stroke-linejoin:miter;stroke-width:0.8;"/>
   </g>
   <g id="patch_5">
    <path d="M 57.6 298.944 
L 338.688 298.944 
" style="fill:none;stroke:#000000;stroke-linecap:square;stroke-linejoin:miter;stroke-width:0.8;"/>
   </g>
   <g id="patch_6">
    <path d="M 57.6 27.648 
L 338.688 27.648 
" style="fill:none;stroke:#000000;stroke-linecap:square;stroke-linejoin:miter;stroke-width:0.8;"/>
   </g>
   <g id="text_13">
    <!-- 20-D -->
    <g transform="translate(375.22944 298.262739)scale(0.17 -0.17)">
     <defs>
      <path d="M 1259 4147 
L 1259 519 
L 2022 519 
Q 2988 519 3436 956 
Q 3884 1394 3884 2338 
Q 3884 3275 3436 3711 
Q 2988 4147 2022 4147 
L 1259 4147 
z
M 628 4666 
L 1925 4666 
Q 3281 4666 3915 4102 
Q 4550 3538 4550 2338 
Q 4550 1131 3912 565 
Q 3275 0 1925 0 
L 628 0 
L 628 4666 
z
" id="DejaVuSans-44" transform="scale(0.015625)"/>
     </defs>
     <use xlink:href="#DejaVuSans-32"/>
     <use x="63.623047" xlink:href="#DejaVuSans-30"/>
     <use x="127.246094" xlink:href="#DejaVuSans-2d"/>
     <use x="163.330078" xlink:href="#DejaVuSans-44"/>
    </g>
   </g>
   <g id="text_14">
    <!-- 10-D -->
    <g transform="translate(375.22944 233.796363)scale(0.17 -0.17)">
     <use xlink:href="#DejaVuSans-31"/>
     <use x="63.623047" xlink:href="#DejaVuSans-30"/>
     <use x="127.246094" xlink:href="#DejaVuSans-2d"/>
     <use x="163.330078" xlink:href="#DejaVuSans-44"/>
    </g>
   </g>
   <g id="text_15">
    <!-- 5-D -->
    <g transform="translate(375.22944 169.329987)scale(0.17 -0.17)">
     <defs>
      <path d="M 691 4666 
L 3169 4666 
L 3169 4134 
L 1269 4134 
L 1269 2991 
Q 1406 3038 1543 3061 
Q 1681 3084 1819 3084 
Q 2600 3084 3056 2656 
Q 3513 2228 3513 1497 
Q 3513 744 3044 326 
Q 2575 -91 1722 -91 
Q 1428 -91 1123 -41 
Q 819 9 494 109 
L 494 744 
Q 775 591 1075 516 
Q 1375 441 1709 441 
Q 2250 441 2565 725 
Q 2881 1009 2881 1497 
Q 2881 1984 2565 2268 
Q 2250 2553 1709 2553 
Q 1456 2553 1204 2497 
Q 953 2441 691 2322 
L 691 4666 
z
" id="DejaVuSans-35" transform="scale(0.015625)"/>
     </defs>
     <use xlink:href="#DejaVuSans-35"/>
     <use x="63.623047" xlink:href="#DejaVuSans-2d"/>
     <use x="99.707031" xlink:href="#DejaVuSans-44"/>
    </g>
   </g>
   <g id="text_16">
    <!-- 2-D -->
    <g transform="translate(375.22944 104.863611)scale(0.17 -0.17)">
     <use xlink:href="#DejaVuSans-32"/>
     <use x="63.623047" xlink:href="#DejaVuSans-2d"/>
     <use x="99.707031" xlink:href="#DejaVuSans-44"/>
    </g>
   </g>
   <g id="text_17">
    <!-- 3-D -->
    <g transform="translate(375.22944 40.397235)scale(0.17 -0.17)">
     <defs>
      <path d="M 2597 2516 
Q 3050 2419 3304 2112 
Q 3559 1806 3559 1356 
Q 3559 666 3084 287 
Q 2609 -91 1734 -91 
Q 1441 -91 1130 -33 
Q 819 25 488 141 
L 488 750 
Q 750 597 1062 519 
Q 1375 441 1716 441 
Q 2309 441 2620 675 
Q 2931 909 2931 1356 
Q 2931 1769 2642 2001 
Q 2353 2234 1838 2234 
L 1294 2234 
L 1294 2753 
L 1863 2753 
Q 2328 2753 2575 2939 
Q 2822 3125 2822 3475 
Q 2822 3834 2567 4026 
Q 2313 4219 1838 4219 
Q 1578 4219 1281 4162 
Q 984 4106 628 3988 
L 628 4550 
Q 988 4650 1302 4700 
Q 1616 4750 1894 4750 
Q 2613 4750 3031 4423 
Q 3450 4097 3450 3541 
Q 3450 3153 3228 2886 
Q 3006 2619 2597 2516 
z
" id="DejaVuSans-33" transform="scale(0.015625)"/>
     </defs>
     <use xlink:href="#DejaVuSans-33"/>
     <use x="63.623047" xlink:href="#DejaVuSans-2d"/>
     <use x="99.707031" xlink:href="#DejaVuSans-44"/>
    </g>
   </g>
   <g id="text_18">
    <!-- bbob f21 -->
    <g transform="translate(60.41088 38.111366)scale(0.102 -0.102)">
     <defs>
      <path d="M 3116 1747 
Q 3116 2381 2855 2742 
Q 2594 3103 2138 3103 
Q 1681 3103 1420 2742 
Q 1159 2381 1159 1747 
Q 1159 1113 1420 752 
Q 1681 391 2138 391 
Q 2594 391 2855 752 
Q 3116 1113 3116 1747 
z
M 1159 2969 
Q 1341 3281 1617 3432 
Q 1894 3584 2278 3584 
Q 2916 3584 3314 3078 
Q 3713 2572 3713 1747 
Q 3713 922 3314 415 
Q 2916 -91 2278 -91 
Q 1894 -91 1617 61 
Q 1341 213 1159 525 
L 1159 0 
L 581 0 
L 581 4863 
L 1159 4863 
L 1159 2969 
z
" id="DejaVuSans-62" transform="scale(0.015625)"/>
     </defs>
     <use xlink:href="#DejaVuSans-62"/>
     <use x="63.476562" xlink:href="#DejaVuSans-62"/>
     <use x="126.953125" xlink:href="#DejaVuSans-6f"/>
     <use x="188.134766" xlink:href="#DejaVuSans-62"/>
     <use x="251.611328" xlink:href="#DejaVuSans-20"/>
     <use x="283.398438" xlink:href="#DejaVuSans-66"/>
     <use x="318.603516" xlink:href="#DejaVuSans-32"/>
     <use x="382.226562" xlink:href="#DejaVuSans-31"/>
    </g>
    <!-- 51 targets: 100..1e-08 -->
    <g transform="translate(60.41088 49.533135)scale(0.102 -0.102)">
     <defs>
      <path d="M 750 794 
L 1409 794 
L 1409 0 
L 750 0 
L 750 794 
z
M 750 3309 
L 1409 3309 
L 1409 2516 
L 750 2516 
L 750 3309 
z
" id="DejaVuSans-3a" transform="scale(0.015625)"/>
     </defs>
     <use xlink:href="#DejaVuSans-35"/>
     <use x="63.623047" xlink:href="#DejaVuSans-31"/>
     <use x="127.246094" xlink:href="#DejaVuSans-20"/>
     <use x="159.033203" xlink:href="#DejaVuSans-74"/>
     <use x="198.242188" xlink:href="#DejaVuSans-61"/>
     <use x="259.521484" xlink:href="#DejaVuSans-72"/>
     <use x="298.884766" xlink:href="#DejaVuSans-67"/>
     <use x="362.361328" xlink:href="#DejaVuSans-65"/>
     <use x="423.884766" xlink:href="#DejaVuSans-74"/>
     <use x="463.09375" xlink:href="#DejaVuSans-73"/>
     <use x="515.193359" xlink:href="#DejaVuSans-3a"/>
     <use x="548.884766" xlink:href="#DejaVuSans-20"/>
     <use x="580.671875" xlink:href="#DejaVuSans-31"/>
     <use x="644.294922" xlink:href="#DejaVuSans-30"/>
     <use x="707.917969" xlink:href="#DejaVuSans-30"/>
     <use x="771.541016" xlink:href="#DejaVuSans-2e"/>
     <use x="803.328125" xlink:href="#DejaVuSans-2e"/>
     <use x="835.115234" xlink:href="#DejaVuSans-31"/>
     <use x="898.738281" xlink:href="#DejaVuSans-65"/>
     <use x="960.261719" xlink:href="#DejaVuSans-2d"/>
     <use x="996.345703" xlink:href="#DejaVuSans-30"/>
     <use x="1059.96875" xlink:href="#DejaVuSans-38"/>
    </g>
    <!-- 15 instances -->
    <g transform="translate(60.41088 60.954904)scale(0.102 -0.102)">
     <use xlink:href="#DejaVuSans-31"/>
     <use x="63.623047" xlink:href="#DejaVuSans-35"/>
     <use x="127.246094" xlink:href="#DejaVuSans-20"/>
     <use x="159.033203" xlink:href="#DejaVuSans-69"/>
     <use x="186.816406" xlink:href="#DejaVuSans-6e"/>
     <use x="250.195312" xlink:href="#DejaVuSans-73"/>
     <use x="302.294922" xlink:href="#DejaVuSans-74"/>
     <use x="341.503906" xlink:href="#DejaVuSans-61"/>
     <use x="402.783203" xlink:href="#DejaVuSans-6e"/>
     <use x="466.162109" xlink:href="#DejaVuSans-63"/>
     <use x="521.142578" xlink:href="#DejaVuSans-65"/>
     <use x="582.666016" xlink:href="#DejaVuSans-73"/>
    </g>
   </g>
   <g id="text_19">
    <!-- v2.4 -->
    <g style="fill:#808080;" transform="translate(187.233062 294.151352)scale(0.1 -0.1)">
     <use xlink:href="#DejaVuSans-76"/>
     <use x="59.179688" xlink:href="#DejaVuSans-32"/>
     <use x="122.802734" xlink:href="#DejaVuSans-2e"/>
     <use x="154.589844" xlink:href="#DejaVuSans-34"/>
    </g>
   </g>
   <g id="text_20">
    <!-- 21 Gallagher 101 peaks -->
    <g transform="translate(78.6565 21.648)scale(0.2 -0.2)">
     <defs>
      <path d="M 3809 666 
L 3809 1919 
L 2778 1919 
L 2778 2438 
L 4434 2438 
L 4434 434 
Q 4069 175 3628 42 
Q 3188 -91 2688 -91 
Q 1594 -91 976 548 
Q 359 1188 359 2328 
Q 359 3472 976 4111 
Q 1594 4750 2688 4750 
Q 3144 4750 3555 4637 
Q 3966 4525 4313 4306 
L 4313 3634 
Q 3963 3931 3569 4081 
Q 3175 4231 2741 4231 
Q 1884 4231 1454 3753 
Q 1025 3275 1025 2328 
Q 1025 1384 1454 906 
Q 1884 428 2741 428 
Q 3075 428 3337 486 
Q 3600 544 3809 666 
z
" id="DejaVuSans-47" transform="scale(0.015625)"/>
      <path d="M 3513 2113 
L 3513 0 
L 2938 0 
L 2938 2094 
Q 2938 2591 2744 2837 
Q 2550 3084 2163 3084 
Q 1697 3084 1428 2787 
Q 1159 2491 1159 1978 
L 1159 0 
L 581 0 
L 581 4863 
L 1159 4863 
L 1159 2956 
Q 1366 3272 1645 3428 
Q 1925 3584 2291 3584 
Q 2894 3584 3203 3211 
Q 3513 2838 3513 2113 
z
" id="DejaVuSans-68" transform="scale(0.015625)"/>
      <path d="M 581 4863 
L 1159 4863 
L 1159 1991 
L 2875 3500 
L 3609 3500 
L 1753 1863 
L 3688 0 
L 2938 0 
L 1159 1709 
L 1159 0 
L 581 0 
L 581 4863 
z
" id="DejaVuSans-6b" transform="scale(0.015625)"/>
     </defs>
     <use xlink:href="#DejaVuSans-32"/>
     <use x="63.623047" xlink:href="#DejaVuSans-31"/>
     <use x="127.246094" xlink:href="#DejaVuSans-20"/>
     <use x="159.033203" xlink:href="#DejaVuSans-47"/>
     <use x="236.523438" xlink:href="#DejaVuSans-61"/>
     <use x="297.802734" xlink:href="#DejaVuSans-6c"/>
     <use x="325.585938" xlink:href="#DejaVuSans-6c"/>
     <use x="353.369141" xlink:href="#DejaVuSans-61"/>
     <use x="414.648438" xlink:href="#DejaVuSans-67"/>
     <use x="478.125" xlink:href="#DejaVuSans-68"/>
     <use x="541.503906" xlink:href="#DejaVuSans-65"/>
     <use x="603.027344" xlink:href="#DejaVuSans-72"/>
     <use x="644.140625" xlink:href="#DejaVuSans-20"/>
     <use x="675.927734" xlink:href="#DejaVuSans-31"/>
     <use x="739.550781" xlink:href="#DejaVuSans-30"/>
     <use x="803.173828" xlink:href="#DejaVuSans-31"/>
     <use x="866.796875" xlink:href="#DejaVuSans-20"/>
     <use x="898.583984" xlink:href="#DejaVuSans-70"/>
     <use x="962.060547" xlink:href="#DejaVuSans-65"/>
     <use x="1023.583984" xlink:href="#DejaVuSans-61"/>
     <use x="1084.863281" xlink:href="#DejaVuSans-6b"/>
     <use x="1142.773438" xlink:href="#DejaVuSans-73"/>
    </g>
   </g>
  </g>
 </g>
 <defs>
  <clipPath id="pc62d5c1008">
   <rect height="271.296" width="281.088" x="57.6" y="27.648"/>
  </clipPath>
 </defs>
</svg>
