<?xml version="1.0" encoding="utf-8" standalone="no"?>
<!DOCTYPE svg PUBLIC "-//W3C//DTD SVG 1.1//EN"
  "http://www.w3.org/Graphics/SVG/1.1/DTD/svg11.dtd">
<svg height="345.6pt" version="1.1" viewBox="0 0 460.8 345.6" width="460.8pt" xmlns="http://www.w3.org/2000/svg" xmlns:xlink="http://www.w3.org/1999/xlink">
 <metadata>
  <rdf:RDF xmlns:cc="http://creativecommons.org/ns#" xmlns:dc="http://purl.org/dc/elements/1.1/" xmlns:rdf="http://www.w3.org/1999/02/22-rdf-syntax-ns#">
   <cc:Work>
    <dc:type rdf:resource="http://purl.org/dc/dcmitype/StillImage"/>
    <dc:date>2021-07-27T16:03:50.822730</dc:date>
    <dc:format>image/svg+xml</dc:format>
    <dc:creator>
     <cc:Agent>
      <dc:title>Matplotlib v3.4.2, https://matplotlib.org/</dc:title>
     </cc:Agent>
    </dc:creator>
   </cc:Work>
  </rdf:RDF>
 </metadata>
 <defs>
  <style type="text/css">*{stroke-linecap:butt;stroke-linejoin:round;}</style>
 </defs>
 <g id="figure_1">
  <g id="patch_1">
   <path d="M 0 345.6 
L 460.8 345.6 
L 460.8 0 
L 0 0 
z
" style="fill:#ffffff;"/>
  </g>
  <g id="axes_1">
   <g id="patch_2">
    <path d="M 57.6 298.944 
L 338.688 298.944 
L 338.688 27.648 
L 57.6 27.648 
z
" style="fill:#ffffff;"/>
   </g>
   <g id="matplotlib.axis_1">
    <g id="xtick_1">
     <g id="line2d_1">
      <path clip-path="url(#p8e0802bdc9)" d="M 57.6 298.944 
L 57.6 27.648 
" style="fill:none;stroke:#b0b0b0;stroke-linecap:square;stroke-width:0.8;"/>
     </g>
     <g id="line2d_2">
      <defs>
       <path d="M 0 0 
L 0 3.5 
" id="m1f7f783518" style="stroke:#000000;stroke-width:0.8;"/>
      </defs>
      <g>
       <use style="stroke:#000000;stroke-width:0.8;" x="57.6" xlink:href="#m1f7f783518" y="298.944"/>
      </g>
     </g>
     <g id="text_1">
      <!-- 0 -->
      <g transform="translate(51.2375 321.140875)scale(0.2 -0.2)">
       <defs>
        <path d="M 2034 4250 
Q 1547 4250 1301 3770 
Q 1056 3291 1056 2328 
Q 1056 1369 1301 889 
Q 1547 409 2034 409 
Q 2525 409 2770 889 
Q 3016 1369 3016 2328 
Q 3016 3291 2770 3770 
Q 2525 4250 2034 4250 
z
M 2034 4750 
Q 2819 4750 3233 4129 
Q 3647 3509 3647 2328 
Q 3647 1150 3233 529 
Q 2819 -91 2034 -91 
Q 1250 -91 836 529 
Q 422 1150 422 2328 
Q 422 3509 836 4129 
Q 1250 4750 2034 4750 
z
" id="DejaVuSans-30" transform="scale(0.015625)"/>
       </defs>
       <use xlink:href="#DejaVuSans-30"/>
      </g>
     </g>
    </g>
    <g id="xtick_2">
     <g id="line2d_3">
      <path clip-path="url(#p8e0802bdc9)" d="M 137.910857 298.944 
L 137.910857 27.648 
" style="fill:none;stroke:#b0b0b0;stroke-linecap:square;stroke-width:0.8;"/>
     </g>
     <g id="line2d_4">
      <g>
       <use style="stroke:#000000;stroke-width:0.8;" x="137.910857" xlink:href="#m1f7f783518" y="298.944"/>
      </g>
     </g>
     <g id="text_2">
      <!-- 2 -->
      <g transform="translate(131.548357 321.140875)scale(0.2 -0.2)">
       <defs>
        <path d="M 1228 531 
L 3431 531 
L 3431 0 
L 469 0 
L 469 531 
Q 828 903 1448 1529 
Q 2069 2156 2228 2338 
Q 2531 2678 2651 2914 
Q 2772 3150 2772 3378 
Q 2772 3750 2511 3984 
Q 2250 4219 1831 4219 
Q 1534 4219 1204 4116 
Q 875 4013 500 3803 
L 500 4441 
Q 881 4594 1212 4672 
Q 1544 4750 1819 4750 
Q 2544 4750 2975 4387 
Q 3406 4025 3406 3419 
Q 3406 3131 3298 2873 
Q 3191 2616 2906 2266 
Q 2828 2175 2409 1742 
Q 1991 1309 1228 531 
z
" id="DejaVuSans-32" transform="scale(0.015625)"/>
       </defs>
       <use xlink:href="#DejaVuSans-32"/>
      </g>
     </g>
    </g>
    <g id="xtick_3">
     <g id="line2d_5">
      <path clip-path="url(#p8e0802bdc9)" d="M 218.221714 298.944 
L 218.221714 27.648 
" style="fill:none;stroke:#b0b0b0;stroke-linecap:square;stroke-width:0.8;"/>
     </g>
     <g id="line2d_6">
      <g>
       <use style="stroke:#000000;stroke-width:0.8;" x="218.221714" xlink:href="#m1f7f783518" y="298.944"/>
      </g>
     </g>
     <g id="text_3">
      <!-- 4 -->
      <g transform="translate(211.859214 321.140875)scale(0.2 -0.2)">
       <defs>
        <path d="M 2419 4116 
L 825 1625 
L 2419 1625 
L 2419 4116 
z
M 2253 4666 
L 3047 4666 
L 3047 1625 
L 3713 1625 
L 3713 1100 
L 3047 1100 
L 3047 0 
L 2419 0 
L 2419 1100 
L 313 1100 
L 313 1709 
L 2253 4666 
z
" id="DejaVuSans-34" transform="scale(0.015625)"/>
       </defs>
       <use xlink:href="#DejaVuSans-34"/>
      </g>
     </g>
    </g>
    <g id="xtick_4">
     <g id="line2d_7">
      <path clip-path="url(#p8e0802bdc9)" d="M 298.532571 298.944 
L 298.532571 27.648 
" style="fill:none;stroke:#b0b0b0;stroke-linecap:square;stroke-width:0.8;"/>
     </g>
     <g id="line2d_8">
      <g>
       <use style="stroke:#000000;stroke-width:0.8;" x="298.532571" xlink:href="#m1f7f783518" y="298.944"/>
      </g>
     </g>
     <g id="text_4">
      <!-- 6 -->
      <g transform="translate(292.170071 321.140875)scale(0.2 -0.2)">
       <defs>
        <path d="M 2113 2584 
Q 1688 2584 1439 2293 
Q 1191 2003 1191 1497 
Q 1191 994 1439 701 
Q 1688 409 2113 409 
Q 2538 409 2786 701 
Q 3034 994 3034 1497 
Q 3034 2003 2786 2293 
Q 2538 2584 2113 2584 
z
M 3366 4563 
L 3366 3988 
Q 3128 4100 2886 4159 
Q 2644 4219 2406 4219 
Q 1781 4219 1451 3797 
Q 1122 3375 1075 2522 
Q 1259 2794 1537 2939 
Q 1816 3084 2150 3084 
Q 2853 3084 3261 2657 
Q 3669 2231 3669 1497 
Q 3669 778 3244 343 
Q 2819 -91 2113 -91 
Q 1303 -91 875 529 
Q 447 1150 447 2328 
Q 447 3434 972 4092 
Q 1497 4750 2381 4750 
Q 2619 4750 2861 4703 
Q 3103 4656 3366 4563 
z
" id="DejaVuSans-36" transform="scale(0.015625)"/>
       </defs>
       <use xlink:href="#DejaVuSans-36"/>
      </g>
     </g>
    </g>
    <g id="xtick_5">
     <g id="line2d_9">
      <path clip-path="url(#p8e0802bdc9)" d="M 97.755429 298.944 
L 97.755429 27.648 
" style="fill:none;stroke:#b0b0b0;stroke-linecap:square;stroke-width:0.8;"/>
     </g>
     <g id="line2d_10">
      <defs>
       <path d="M 0 0 
L 0 2 
" id="m62453133d9" style="stroke:#000000;stroke-width:0.6;"/>
      </defs>
      <g>
       <use style="stroke:#000000;stroke-width:0.6;" x="97.755429" xlink:href="#m62453133d9" y="298.944"/>
      </g>
     </g>
    </g>
    <g id="xtick_6">
     <g id="line2d_11">
      <path clip-path="url(#p8e0802bdc9)" d="M 178.066286 298.944 
L 178.066286 27.648 
" style="fill:none;stroke:#b0b0b0;stroke-linecap:square;stroke-width:0.8;"/>
     </g>
     <g id="line2d_12">
      <g>
       <use style="stroke:#000000;stroke-width:0.6;" x="178.066286" xlink:href="#m62453133d9" y="298.944"/>
      </g>
     </g>
    </g>
    <g id="xtick_7">
     <g id="line2d_13">
      <path clip-path="url(#p8e0802bdc9)" d="M 258.377143 298.944 
L 258.377143 27.648 
" style="fill:none;stroke:#b0b0b0;stroke-linecap:square;stroke-width:0.8;"/>
     </g>
     <g id="line2d_14">
      <g>
       <use style="stroke:#000000;stroke-width:0.6;" x="258.377143" xlink:href="#m62453133d9" y="298.944"/>
      </g>
     </g>
    </g>
    <g id="xtick_8">
     <g id="line2d_15">
      <path clip-path="url(#p8e0802bdc9)" d="M 338.688 298.944 
L 338.688 27.648 
" style="fill:none;stroke:#b0b0b0;stroke-linecap:square;stroke-width:0.8;"/>
     </g>
     <g id="line2d_16">
      <g>
       <use style="stroke:#000000;stroke-width:0.6;" x="338.688" xlink:href="#m62453133d9" y="298.944"/>
      </g>
     </g>
    </g>
    <g id="text_5">
     <!-- log10(# f-evals / dimension) -->
     <g transform="translate(77.764078 342.217594)scale(0.17 -0.17)">
      <defs>
       <path d="M 603 4863 
L 1178 4863 
L 1178 0 
L 603 0 
L 603 4863 
z
" id="DejaVuSans-6c" transform="scale(0.015625)"/>
       <path d="M 1959 3097 
Q 1497 3097 1228 2736 
Q 959 2375 959 1747 
Q 959 1119 1226 758 
Q 1494 397 1959 397 
Q 2419 397 2687 759 
Q 2956 1122 2956 1747 
Q 2956 2369 2687 2733 
Q 2419 3097 1959 3097 
z
M 1959 3584 
Q 2709 3584 3137 3096 
Q 3566 2609 3566 1747 
Q 3566 888 3137 398 
Q 2709 -91 1959 -91 
Q 1206 -91 779 398 
Q 353 888 353 1747 
Q 353 2609 779 3096 
Q 1206 3584 1959 3584 
z
" id="DejaVuSans-6f" transform="scale(0.015625)"/>
       <path d="M 2906 1791 
Q 2906 2416 2648 2759 
Q 2391 3103 1925 3103 
Q 1463 3103 1205 2759 
Q 947 2416 947 1791 
Q 947 1169 1205 825 
Q 1463 481 1925 481 
Q 2391 481 2648 825 
Q 2906 1169 2906 1791 
z
M 3481 434 
Q 3481 -459 3084 -895 
Q 2688 -1331 1869 -1331 
Q 1566 -1331 1297 -1286 
Q 1028 -1241 775 -1147 
L 775 -588 
Q 1028 -725 1275 -790 
Q 1522 -856 1778 -856 
Q 2344 -856 2625 -561 
Q 2906 -266 2906 331 
L 2906 616 
Q 2728 306 2450 153 
Q 2172 0 1784 0 
Q 1141 0 747 490 
Q 353 981 353 1791 
Q 353 2603 747 3093 
Q 1141 3584 1784 3584 
Q 2172 3584 2450 3431 
Q 2728 3278 2906 2969 
L 2906 3500 
L 3481 3500 
L 3481 434 
z
" id="DejaVuSans-67" transform="scale(0.015625)"/>
       <path d="M 794 531 
L 1825 531 
L 1825 4091 
L 703 3866 
L 703 4441 
L 1819 4666 
L 2450 4666 
L 2450 531 
L 3481 531 
L 3481 0 
L 794 0 
L 794 531 
z
" id="DejaVuSans-31" transform="scale(0.015625)"/>
       <path d="M 1984 4856 
Q 1566 4138 1362 3434 
Q 1159 2731 1159 2009 
Q 1159 1288 1364 580 
Q 1569 -128 1984 -844 
L 1484 -844 
Q 1016 -109 783 600 
Q 550 1309 550 2009 
Q 550 2706 781 3412 
Q 1013 4119 1484 4856 
L 1984 4856 
z
" id="DejaVuSans-28" transform="scale(0.015625)"/>
       <path d="M 3272 2816 
L 2363 2816 
L 2100 1772 
L 3016 1772 
L 3272 2816 
z
M 2803 4594 
L 2478 3297 
L 3391 3297 
L 3719 4594 
L 4219 4594 
L 3897 3297 
L 4872 3297 
L 4872 2816 
L 3775 2816 
L 3519 1772 
L 4513 1772 
L 4513 1294 
L 3397 1294 
L 3072 0 
L 2572 0 
L 2894 1294 
L 1978 1294 
L 1656 0 
L 1153 0 
L 1478 1294 
L 494 1294 
L 494 1772 
L 1594 1772 
L 1856 2816 
L 850 2816 
L 850 3297 
L 1978 3297 
L 2297 4594 
L 2803 4594 
z
" id="DejaVuSans-23" transform="scale(0.015625)"/>
       <path id="DejaVuSans-20" transform="scale(0.015625)"/>
       <path d="M 2375 4863 
L 2375 4384 
L 1825 4384 
Q 1516 4384 1395 4259 
Q 1275 4134 1275 3809 
L 1275 3500 
L 2222 3500 
L 2222 3053 
L 1275 3053 
L 1275 0 
L 697 0 
L 697 3053 
L 147 3053 
L 147 3500 
L 697 3500 
L 697 3744 
Q 697 4328 969 4595 
Q 1241 4863 1831 4863 
L 2375 4863 
z
" id="DejaVuSans-66" transform="scale(0.015625)"/>
       <path d="M 313 2009 
L 1997 2009 
L 1997 1497 
L 313 1497 
L 313 2009 
z
" id="DejaVuSans-2d" transform="scale(0.015625)"/>
       <path d="M 3597 1894 
L 3597 1613 
L 953 1613 
Q 991 1019 1311 708 
Q 1631 397 2203 397 
Q 2534 397 2845 478 
Q 3156 559 3463 722 
L 3463 178 
Q 3153 47 2828 -22 
Q 2503 -91 2169 -91 
Q 1331 -91 842 396 
Q 353 884 353 1716 
Q 353 2575 817 3079 
Q 1281 3584 2069 3584 
Q 2775 3584 3186 3129 
Q 3597 2675 3597 1894 
z
M 3022 2063 
Q 3016 2534 2758 2815 
Q 2500 3097 2075 3097 
Q 1594 3097 1305 2825 
Q 1016 2553 972 2059 
L 3022 2063 
z
" id="DejaVuSans-65" transform="scale(0.015625)"/>
       <path d="M 191 3500 
L 800 3500 
L 1894 563 
L 2988 3500 
L 3597 3500 
L 2284 0 
L 1503 0 
L 191 3500 
z
" id="DejaVuSans-76" transform="scale(0.015625)"/>
       <path d="M 2194 1759 
Q 1497 1759 1228 1600 
Q 959 1441 959 1056 
Q 959 750 1161 570 
Q 1363 391 1709 391 
Q 2188 391 2477 730 
Q 2766 1069 2766 1631 
L 2766 1759 
L 2194 1759 
z
M 3341 1997 
L 3341 0 
L 2766 0 
L 2766 531 
Q 2569 213 2275 61 
Q 1981 -91 1556 -91 
Q 1019 -91 701 211 
Q 384 513 384 1019 
Q 384 1609 779 1909 
Q 1175 2209 1959 2209 
L 2766 2209 
L 2766 2266 
Q 2766 2663 2505 2880 
Q 2244 3097 1772 3097 
Q 1472 3097 1187 3025 
Q 903 2953 641 2809 
L 641 3341 
Q 956 3463 1253 3523 
Q 1550 3584 1831 3584 
Q 2591 3584 2966 3190 
Q 3341 2797 3341 1997 
z
" id="DejaVuSans-61" transform="scale(0.015625)"/>
       <path d="M 2834 3397 
L 2834 2853 
Q 2591 2978 2328 3040 
Q 2066 3103 1784 3103 
Q 1356 3103 1142 2972 
Q 928 2841 928 2578 
Q 928 2378 1081 2264 
Q 1234 2150 1697 2047 
L 1894 2003 
Q 2506 1872 2764 1633 
Q 3022 1394 3022 966 
Q 3022 478 2636 193 
Q 2250 -91 1575 -91 
Q 1294 -91 989 -36 
Q 684 19 347 128 
L 347 722 
Q 666 556 975 473 
Q 1284 391 1588 391 
Q 1994 391 2212 530 
Q 2431 669 2431 922 
Q 2431 1156 2273 1281 
Q 2116 1406 1581 1522 
L 1381 1569 
Q 847 1681 609 1914 
Q 372 2147 372 2553 
Q 372 3047 722 3315 
Q 1072 3584 1716 3584 
Q 2034 3584 2315 3537 
Q 2597 3491 2834 3397 
z
" id="DejaVuSans-73" transform="scale(0.015625)"/>
       <path d="M 1625 4666 
L 2156 4666 
L 531 -594 
L 0 -594 
L 1625 4666 
z
" id="DejaVuSans-2f" transform="scale(0.015625)"/>
       <path d="M 2906 2969 
L 2906 4863 
L 3481 4863 
L 3481 0 
L 2906 0 
L 2906 525 
Q 2725 213 2448 61 
Q 2172 -91 1784 -91 
Q 1150 -91 751 415 
Q 353 922 353 1747 
Q 353 2572 751 3078 
Q 1150 3584 1784 3584 
Q 2172 3584 2448 3432 
Q 2725 3281 2906 2969 
z
M 947 1747 
Q 947 1113 1208 752 
Q 1469 391 1925 391 
Q 2381 391 2643 752 
Q 2906 1113 2906 1747 
Q 2906 2381 2643 2742 
Q 2381 3103 1925 3103 
Q 1469 3103 1208 2742 
Q 947 2381 947 1747 
z
" id="DejaVuSans-64" transform="scale(0.015625)"/>
       <path d="M 603 3500 
L 1178 3500 
L 1178 0 
L 603 0 
L 603 3500 
z
M 603 4863 
L 1178 4863 
L 1178 4134 
L 603 4134 
L 603 4863 
z
" id="DejaVuSans-69" transform="scale(0.015625)"/>
       <path d="M 3328 2828 
Q 3544 3216 3844 3400 
Q 4144 3584 4550 3584 
Q 5097 3584 5394 3201 
Q 5691 2819 5691 2113 
L 5691 0 
L 5113 0 
L 5113 2094 
Q 5113 2597 4934 2840 
Q 4756 3084 4391 3084 
Q 3944 3084 3684 2787 
Q 3425 2491 3425 1978 
L 3425 0 
L 2847 0 
L 2847 2094 
Q 2847 2600 2669 2842 
Q 2491 3084 2119 3084 
Q 1678 3084 1418 2786 
Q 1159 2488 1159 1978 
L 1159 0 
L 581 0 
L 581 3500 
L 1159 3500 
L 1159 2956 
Q 1356 3278 1631 3431 
Q 1906 3584 2284 3584 
Q 2666 3584 2933 3390 
Q 3200 3197 3328 2828 
z
" id="DejaVuSans-6d" transform="scale(0.015625)"/>
       <path d="M 3513 2113 
L 3513 0 
L 2938 0 
L 2938 2094 
Q 2938 2591 2744 2837 
Q 2550 3084 2163 3084 
Q 1697 3084 1428 2787 
Q 1159 2491 1159 1978 
L 1159 0 
L 581 0 
L 581 3500 
L 1159 3500 
L 1159 2956 
Q 1366 3272 1645 3428 
Q 1925 3584 2291 3584 
Q 2894 3584 3203 3211 
Q 3513 2838 3513 2113 
z
" id="DejaVuSans-6e" transform="scale(0.015625)"/>
       <path d="M 513 4856 
L 1013 4856 
Q 1481 4119 1714 3412 
Q 1947 2706 1947 2009 
Q 1947 1309 1714 600 
Q 1481 -109 1013 -844 
L 513 -844 
Q 928 -128 1133 580 
Q 1338 1288 1338 2009 
Q 1338 2731 1133 3434 
Q 928 4138 513 4856 
z
" id="DejaVuSans-29" transform="scale(0.015625)"/>
      </defs>
      <use xlink:href="#DejaVuSans-6c"/>
      <use x="27.783203" xlink:href="#DejaVuSans-6f"/>
      <use x="88.964844" xlink:href="#DejaVuSans-67"/>
      <use x="152.441406" xlink:href="#DejaVuSans-31"/>
      <use x="216.064453" xlink:href="#DejaVuSans-30"/>
      <use x="279.6875" xlink:href="#DejaVuSans-28"/>
      <use x="318.701172" xlink:href="#DejaVuSans-23"/>
      <use x="402.490234" xlink:href="#DejaVuSans-20"/>
      <use x="434.277344" xlink:href="#DejaVuSans-66"/>
      <use x="463.982422" xlink:href="#DejaVuSans-2d"/>
      <use x="500.066406" xlink:href="#DejaVuSans-65"/>
      <use x="561.589844" xlink:href="#DejaVuSans-76"/>
      <use x="620.769531" xlink:href="#DejaVuSans-61"/>
      <use x="682.048828" xlink:href="#DejaVuSans-6c"/>
      <use x="709.832031" xlink:href="#DejaVuSans-73"/>
      <use x="761.931641" xlink:href="#DejaVuSans-20"/>
      <use x="793.71875" xlink:href="#DejaVuSans-2f"/>
      <use x="827.410156" xlink:href="#DejaVuSans-20"/>
      <use x="859.197266" xlink:href="#DejaVuSans-64"/>
      <use x="922.673828" xlink:href="#DejaVuSans-69"/>
      <use x="950.457031" xlink:href="#DejaVuSans-6d"/>
      <use x="1047.869141" xlink:href="#DejaVuSans-65"/>
      <use x="1109.392578" xlink:href="#DejaVuSans-6e"/>
      <use x="1172.771484" xlink:href="#DejaVuSans-73"/>
      <use x="1224.871094" xlink:href="#DejaVuSans-69"/>
      <use x="1252.654297" xlink:href="#DejaVuSans-6f"/>
      <use x="1313.835938" xlink:href="#DejaVuSans-6e"/>
      <use x="1377.214844" xlink:href="#DejaVuSans-29"/>
     </g>
    </g>
   </g>
   <g id="matplotlib.axis_2">
    <g id="ytick_1">
     <g id="line2d_17">
      <path clip-path="url(#p8e0802bdc9)" d="M 57.6 298.944 
L 338.688 298.944 
" style="fill:none;stroke:#b0b0b0;stroke-linecap:square;stroke-width:0.8;"/>
     </g>
     <g id="line2d_18">
      <defs>
       <path d="M 0 0 
L -3.5 0 
" id="madbda91fc9" style="stroke:#000000;stroke-width:0.8;"/>
      </defs>
      <g>
       <use style="stroke:#000000;stroke-width:0.8;" x="57.6" xlink:href="#madbda91fc9" y="298.944"/>
      </g>
     </g>
     <g id="text_6">
      <!-- 0.0 -->
      <g transform="translate(25.155 305.02275)scale(0.16 -0.16)">
       <defs>
        <path d="M 684 794 
L 1344 794 
L 1344 0 
L 684 0 
L 684 794 
z
" id="DejaVuSans-2e" transform="scale(0.015625)"/>
       </defs>
       <use xlink:href="#DejaVuSans-30"/>
       <use x="63.623047" xlink:href="#DejaVuSans-2e"/>
       <use x="95.410156" xlink:href="#DejaVuSans-30"/>
      </g>
     </g>
    </g>
    <g id="ytick_2">
     <g id="line2d_19">
      <path clip-path="url(#p8e0802bdc9)" d="M 57.6 245.22202 
L 338.688 245.22202 
" style="fill:none;stroke:#b0b0b0;stroke-linecap:square;stroke-width:0.8;"/>
     </g>
     <g id="line2d_20">
      <g>
       <use style="stroke:#000000;stroke-width:0.8;" x="57.6" xlink:href="#madbda91fc9" y="245.22202"/>
      </g>
     </g>
     <g id="text_7">
      <!-- 0.2 -->
      <g transform="translate(25.155 251.30077)scale(0.16 -0.16)">
       <use xlink:href="#DejaVuSans-30"/>
       <use x="63.623047" xlink:href="#DejaVuSans-2e"/>
       <use x="95.410156" xlink:href="#DejaVuSans-32"/>
      </g>
     </g>
    </g>
    <g id="ytick_3">
     <g id="line2d_21">
      <path clip-path="url(#p8e0802bdc9)" d="M 57.6 191.50004 
L 338.688 191.50004 
" style="fill:none;stroke:#b0b0b0;stroke-linecap:square;stroke-width:0.8;"/>
     </g>
     <g id="line2d_22">
      <g>
       <use style="stroke:#000000;stroke-width:0.8;" x="57.6" xlink:href="#madbda91fc9" y="191.50004"/>
      </g>
     </g>
     <g id="text_8">
      <!-- 0.4 -->
      <g transform="translate(25.155 197.57879)scale(0.16 -0.16)">
       <use xlink:href="#DejaVuSans-30"/>
       <use x="63.623047" xlink:href="#DejaVuSans-2e"/>
       <use x="95.410156" xlink:href="#DejaVuSans-34"/>
      </g>
     </g>
    </g>
    <g id="ytick_4">
     <g id="line2d_23">
      <path clip-path="url(#p8e0802bdc9)" d="M 57.6 137.778059 
L 338.688 137.778059 
" style="fill:none;stroke:#b0b0b0;stroke-linecap:square;stroke-width:0.8;"/>
     </g>
     <g id="line2d_24">
      <g>
       <use style="stroke:#000000;stroke-width:0.8;" x="57.6" xlink:href="#madbda91fc9" y="137.778059"/>
      </g>
     </g>
     <g id="text_9">
      <!-- 0.6 -->
      <g transform="translate(25.155 143.856809)scale(0.16 -0.16)">
       <use xlink:href="#DejaVuSans-30"/>
       <use x="63.623047" xlink:href="#DejaVuSans-2e"/>
       <use x="95.410156" xlink:href="#DejaVuSans-36"/>
      </g>
     </g>
    </g>
    <g id="ytick_5">
     <g id="line2d_25">
      <path clip-path="url(#p8e0802bdc9)" d="M 57.6 84.056079 
L 338.688 84.056079 
" style="fill:none;stroke:#b0b0b0;stroke-linecap:square;stroke-width:0.8;"/>
     </g>
     <g id="line2d_26">
      <g>
       <use style="stroke:#000000;stroke-width:0.8;" x="57.6" xlink:href="#madbda91fc9" y="84.056079"/>
      </g>
     </g>
     <g id="text_10">
      <!-- 0.8 -->
      <g transform="translate(25.155 90.134829)scale(0.16 -0.16)">
       <defs>
        <path d="M 2034 2216 
Q 1584 2216 1326 1975 
Q 1069 1734 1069 1313 
Q 1069 891 1326 650 
Q 1584 409 2034 409 
Q 2484 409 2743 651 
Q 3003 894 3003 1313 
Q 3003 1734 2745 1975 
Q 2488 2216 2034 2216 
z
M 1403 2484 
Q 997 2584 770 2862 
Q 544 3141 544 3541 
Q 544 4100 942 4425 
Q 1341 4750 2034 4750 
Q 2731 4750 3128 4425 
Q 3525 4100 3525 3541 
Q 3525 3141 3298 2862 
Q 3072 2584 2669 2484 
Q 3125 2378 3379 2068 
Q 3634 1759 3634 1313 
Q 3634 634 3220 271 
Q 2806 -91 2034 -91 
Q 1263 -91 848 271 
Q 434 634 434 1313 
Q 434 1759 690 2068 
Q 947 2378 1403 2484 
z
M 1172 3481 
Q 1172 3119 1398 2916 
Q 1625 2713 2034 2713 
Q 2441 2713 2670 2916 
Q 2900 3119 2900 3481 
Q 2900 3844 2670 4047 
Q 2441 4250 2034 4250 
Q 1625 4250 1398 4047 
Q 1172 3844 1172 3481 
z
" id="DejaVuSans-38" transform="scale(0.015625)"/>
       </defs>
       <use xlink:href="#DejaVuSans-30"/>
       <use x="63.623047" xlink:href="#DejaVuSans-2e"/>
       <use x="95.410156" xlink:href="#DejaVuSans-38"/>
      </g>
     </g>
    </g>
    <g id="ytick_6">
     <g id="line2d_27">
      <path clip-path="url(#p8e0802bdc9)" d="M 57.6 30.334099 
L 338.688 30.334099 
" style="fill:none;stroke:#b0b0b0;stroke-linecap:square;stroke-width:0.8;"/>
     </g>
     <g id="line2d_28">
      <g>
       <use style="stroke:#000000;stroke-width:0.8;" x="57.6" xlink:href="#madbda91fc9" y="30.334099"/>
      </g>
     </g>
     <g id="text_11">
      <!-- 1.0 -->
      <g transform="translate(25.155 36.412849)scale(0.16 -0.16)">
       <use xlink:href="#DejaVuSans-31"/>
       <use x="63.623047" xlink:href="#DejaVuSans-2e"/>
       <use x="95.410156" xlink:href="#DejaVuSans-30"/>
      </g>
     </g>
    </g>
    <g id="text_12">
     <!-- Fraction of function,target pairs -->
     <g transform="translate(17.619531 297.681)rotate(-90)scale(0.17 -0.17)">
      <defs>
       <path d="M 628 4666 
L 3309 4666 
L 3309 4134 
L 1259 4134 
L 1259 2759 
L 3109 2759 
L 3109 2228 
L 1259 2228 
L 1259 0 
L 628 0 
L 628 4666 
z
" id="DejaVuSans-46" transform="scale(0.015625)"/>
       <path d="M 2631 2963 
Q 2534 3019 2420 3045 
Q 2306 3072 2169 3072 
Q 1681 3072 1420 2755 
Q 1159 2438 1159 1844 
L 1159 0 
L 581 0 
L 581 3500 
L 1159 3500 
L 1159 2956 
Q 1341 3275 1631 3429 
Q 1922 3584 2338 3584 
Q 2397 3584 2469 3576 
Q 2541 3569 2628 3553 
L 2631 2963 
z
" id="DejaVuSans-72" transform="scale(0.015625)"/>
       <path d="M 3122 3366 
L 3122 2828 
Q 2878 2963 2633 3030 
Q 2388 3097 2138 3097 
Q 1578 3097 1268 2742 
Q 959 2388 959 1747 
Q 959 1106 1268 751 
Q 1578 397 2138 397 
Q 2388 397 2633 464 
Q 2878 531 3122 666 
L 3122 134 
Q 2881 22 2623 -34 
Q 2366 -91 2075 -91 
Q 1284 -91 818 406 
Q 353 903 353 1747 
Q 353 2603 823 3093 
Q 1294 3584 2113 3584 
Q 2378 3584 2631 3529 
Q 2884 3475 3122 3366 
z
" id="DejaVuSans-63" transform="scale(0.015625)"/>
       <path d="M 1172 4494 
L 1172 3500 
L 2356 3500 
L 2356 3053 
L 1172 3053 
L 1172 1153 
Q 1172 725 1289 603 
Q 1406 481 1766 481 
L 2356 481 
L 2356 0 
L 1766 0 
Q 1100 0 847 248 
Q 594 497 594 1153 
L 594 3053 
L 172 3053 
L 172 3500 
L 594 3500 
L 594 4494 
L 1172 4494 
z
" id="DejaVuSans-74" transform="scale(0.015625)"/>
       <path d="M 544 1381 
L 544 3500 
L 1119 3500 
L 1119 1403 
Q 1119 906 1312 657 
Q 1506 409 1894 409 
Q 2359 409 2629 706 
Q 2900 1003 2900 1516 
L 2900 3500 
L 3475 3500 
L 3475 0 
L 2900 0 
L 2900 538 
Q 2691 219 2414 64 
Q 2138 -91 1772 -91 
Q 1169 -91 856 284 
Q 544 659 544 1381 
z
M 1991 3584 
L 1991 3584 
z
" id="DejaVuSans-75" transform="scale(0.015625)"/>
       <path d="M 750 794 
L 1409 794 
L 1409 256 
L 897 -744 
L 494 -744 
L 750 256 
L 750 794 
z
" id="DejaVuSans-2c" transform="scale(0.015625)"/>
       <path d="M 1159 525 
L 1159 -1331 
L 581 -1331 
L 581 3500 
L 1159 3500 
L 1159 2969 
Q 1341 3281 1617 3432 
Q 1894 3584 2278 3584 
Q 2916 3584 3314 3078 
Q 3713 2572 3713 1747 
Q 3713 922 3314 415 
Q 2916 -91 2278 -91 
Q 1894 -91 1617 61 
Q 1341 213 1159 525 
z
M 3116 1747 
Q 3116 2381 2855 2742 
Q 2594 3103 2138 3103 
Q 1681 3103 1420 2742 
Q 1159 2381 1159 1747 
Q 1159 1113 1420 752 
Q 1681 391 2138 391 
Q 2594 391 2855 752 
Q 3116 1113 3116 1747 
z
" id="DejaVuSans-70" transform="scale(0.015625)"/>
      </defs>
      <use xlink:href="#DejaVuSans-46"/>
      <use x="50.269531" xlink:href="#DejaVuSans-72"/>
      <use x="91.382812" xlink:href="#DejaVuSans-61"/>
      <use x="152.662109" xlink:href="#DejaVuSans-63"/>
      <use x="207.642578" xlink:href="#DejaVuSans-74"/>
      <use x="246.851562" xlink:href="#DejaVuSans-69"/>
      <use x="274.634766" xlink:href="#DejaVuSans-6f"/>
      <use x="335.816406" xlink:href="#DejaVuSans-6e"/>
      <use x="399.195312" xlink:href="#DejaVuSans-20"/>
      <use x="430.982422" xlink:href="#DejaVuSans-6f"/>
      <use x="492.164062" xlink:href="#DejaVuSans-66"/>
      <use x="527.369141" xlink:href="#DejaVuSans-20"/>
      <use x="559.15625" xlink:href="#DejaVuSans-66"/>
      <use x="594.361328" xlink:href="#DejaVuSans-75"/>
      <use x="657.740234" xlink:href="#DejaVuSans-6e"/>
      <use x="721.119141" xlink:href="#DejaVuSans-63"/>
      <use x="776.099609" xlink:href="#DejaVuSans-74"/>
      <use x="815.308594" xlink:href="#DejaVuSans-69"/>
      <use x="843.091797" xlink:href="#DejaVuSans-6f"/>
      <use x="904.273438" xlink:href="#DejaVuSans-6e"/>
      <use x="967.652344" xlink:href="#DejaVuSans-2c"/>
      <use x="999.439453" xlink:href="#DejaVuSans-74"/>
      <use x="1038.648438" xlink:href="#DejaVuSans-61"/>
      <use x="1099.927734" xlink:href="#DejaVuSans-72"/>
      <use x="1139.291016" xlink:href="#DejaVuSans-67"/>
      <use x="1202.767578" xlink:href="#DejaVuSans-65"/>
      <use x="1264.291016" xlink:href="#DejaVuSans-74"/>
      <use x="1303.5" xlink:href="#DejaVuSans-20"/>
      <use x="1335.287109" xlink:href="#DejaVuSans-70"/>
      <use x="1398.763672" xlink:href="#DejaVuSans-61"/>
      <use x="1460.042969" xlink:href="#DejaVuSans-69"/>
      <use x="1487.826172" xlink:href="#DejaVuSans-72"/>
      <use x="1528.939453" xlink:href="#DejaVuSans-73"/>
     </g>
    </g>
   </g>
   <g id="line2d_29">
    <defs>
     <path d="M 0 1.5 
C 0.397805 1.5 0.77937 1.341951 1.06066 1.06066 
C 1.341951 0.77937 1.5 0.397805 1.5 0 
C 1.5 -0.397805 1.341951 -0.77937 1.06066 -1.06066 
C 0.77937 -1.341951 0.397805 -1.5 0 -1.5 
C -0.397805 -1.5 -0.77937 -1.341951 -1.06066 -1.06066 
C -1.341951 -0.77937 -1.5 -0.397805 -1.5 0 
C -1.5 0.397805 -1.341951 0.77937 -1.06066 1.06066 
C -0.77937 1.341951 -0.397805 1.5 0 1.5 
z
" id="m416874158a" style="stroke:#00bfbf;"/>
    </defs>
    <g>
     <use style="fill:#00bfbf;stroke:#00bfbf;" x="196.102889" xlink:href="#m416874158a" y="30.334099"/>
     <use style="fill:#00bfbf;stroke:#00bfbf;" x="196.102889" xlink:href="#m416874158a" y="30.334099"/>
    </g>
   </g>
   <g id="line2d_30">
    <path d="M 45.512012 298.944 
L 45.512012 264.182719 
L 57.6 264.182719 
L 57.6 260.495916 
L 64.67102 260.495916 
L 64.67102 258.389172 
L 69.687988 258.389172 
L 69.687988 254.175683 
L 73.579452 254.175683 
L 73.579452 252.068939 
L 76.759008 252.068939 
L 76.759008 247.328764 
L 79.447285 247.328764 
L 79.447285 242.061903 
L 81.775977 242.061903 
L 81.775977 240.481845 
L 85.66744 240.481845 
L 85.66744 238.901787 
L 87.329581 238.901787 
L 87.329581 238.375101 
L 88.846997 238.375101 
L 88.846997 237.321729 
L 92.73846 237.321729 
L 92.73846 236.268356 
L 97.755429 236.268356 
L 97.755429 235.214984 
L 99.41757 235.214984 
L 99.41757 234.161612 
L 100.192776 234.161612 
L 100.192776 233.634926 
L 101.646892 233.634926 
L 101.646892 232.581554 
L 106.48859 232.581554 
L 106.48859 232.054868 
L 107.009204 232.054868 
L 107.009204 231.001496 
L 109.843417 231.001496 
L 109.843417 230.47481 
L 110.694282 230.47481 
L 110.694282 229.948123 
L 113.382559 229.948123 
L 113.382559 227.841379 
L 115.397021 227.841379 
L 115.397021 227.314693 
L 116.323218 227.314693 
L 116.323218 226.261321 
L 118.310324 226.261321 
L 118.310324 223.627891 
L 120.093994 223.627891 
L 120.093994 222.574518 
L 121.036887 222.574518 
L 121.036887 222.047832 
L 122.573415 222.047832 
L 122.573415 220.99446 
L 122.782271 220.99446 
L 122.782271 219.941088 
L 123.394238 219.941088 
L 123.394238 219.414402 
L 125.822869 219.414402 
L 125.822869 218.36103 
L 126.50685 218.36103 
L 126.50685 217.307658 
L 129.147151 217.307658 
L 129.147151 216.254285 
L 136.170062 216.254285 
L 136.170062 215.200913 
L 139.090775 215.200913 
L 139.090775 213.620855 
L 139.8092 213.620855 
L 139.887228 210.460738 
L 140.042245 210.460738 
L 140.042245 208.88068 
L 140.195896 208.88068 
L 140.195896 208.353994 
L 140.348205 208.353994 
L 140.423864 206.24725 
L 140.723258 206.24725 
L 140.723258 202.033761 
L 142.147664 202.033761 
L 142.147664 201.507075 
L 144.390658 201.507075 
L 144.390658 200.980389 
L 146.270114 200.980389 
L 146.270114 200.453703 
L 146.854132 200.453703 
L 146.854132 197.293586 
L 150.344189 197.293586 
L 150.344189 196.7669 
L 150.808139 196.7669 
L 150.808139 195.713528 
L 150.932558 195.713528 
L 150.932558 195.186842 
L 151.818809 195.186842 
L 151.818809 193.606784 
L 153.287059 193.606784 
L 153.287059 193.080098 
L 154.507086 193.080098 
L 154.507086 192.553412 
L 155.86668 192.553412 
L 155.86668 191.50004 
L 156.266892 191.50004 
L 156.266892 190.446667 
L 157.415209 190.446667 
L 157.415209 189.919981 
L 158.031107 189.919981 
L 158.031107 189.393295 
L 158.51933 189.393295 
L 158.599388 187.813237 
L 158.652556 187.813237 
L 158.652556 186.759865 
L 159.201253 186.759865 
L 159.201253 186.233179 
L 159.431225 186.233179 
L 159.431225 185.706493 
L 160.103486 185.706493 
L 160.103486 183.599748 
L 161.84538 183.599748 
L 161.84538 180.439632 
L 164.880672 180.439632 
L 164.880672 178.859574 
L 165.047026 178.859574 
L 165.047026 178.332888 
L 165.211808 178.332888 
L 165.211808 177.279515 
L 165.643763 177.279515 
L 165.643763 176.752829 
L 166.030537 176.752829 
L 166.030537 175.172771 
L 166.442913 175.172771 
L 166.442913 174.646085 
L 168.521475 174.646085 
L 168.521475 171.485969 
L 168.746115 171.485969 
L 168.746115 168.325852 
L 169.085039 168.325852 
L 169.085039 167.799166 
L 171.340609 167.799166 
L 171.379036 166.745794 
L 171.569909 166.745794 
L 171.569909 165.165736 
L 171.73366 165.165736 
L 171.796233 163.585677 
L 171.957882 163.585677 
L 171.957882 160.952247 
L 172.397859 160.952247 
L 172.397859 157.265444 
L 172.589897 157.265444 
L 172.589897 153.051956 
L 173.234351 153.051956 
L 173.234351 152.52527 
L 174.402224 152.52527 
L 174.402224 150.945211 
L 174.541525 150.945211 
L 174.637316 144.624978 
L 174.83783 144.624978 
L 174.83783 140.938176 
L 175.577416 140.938176 
L 175.577416 138.831432 
L 175.955464 138.831432 
L 175.955464 137.778059 
L 176.315853 137.778059 
L 176.354372 132.511199 
L 176.478973 132.511199 
L 176.52666 127.244338 
L 176.60269 127.244338 
L 176.706692 126.190966 
L 177.25418 126.190966 
L 177.299796 115.657244 
L 177.731751 115.657244 
L 177.731751 115.130558 
L 178.248444 115.130558 
L 178.248444 114.603872 
L 178.45432 114.603872 
L 178.547874 110.390383 
L 178.925454 110.390383 
L 178.933752 106.703581 
L 179.107114 106.703581 
L 179.107114 105.650209 
L 179.254351 105.650209 
L 179.254351 104.596836 
L 179.585155 104.596836 
L 179.585155 104.07015 
L 179.728427 104.07015 
L 179.728427 103.543464 
L 179.894103 103.543464 
L 179.964628 98.803289 
L 180.151313 98.803289 
L 180.151313 97.749917 
L 180.351324 97.749917 
L 180.351324 97.223231 
L 180.579292 97.223231 
L 180.579292 95.116487 
L 180.699667 95.116487 
L 180.699667 94.589801 
L 180.834104 94.589801 
L 180.834104 94.063115 
L 181.311118 94.063115 
L 181.311118 93.536429 
L 181.440939 93.536429 
L 181.440939 92.483056 
L 181.733085 92.483056 
L 181.733085 91.95637 
L 182.013465 91.95637 
L 182.013465 89.849626 
L 182.241433 89.849626 
L 182.241433 88.269568 
L 182.574526 88.269568 
L 182.681928 83.002707 
L 182.868304 83.002707 
L 182.888155 81.422649 
L 183.013357 81.422649 
L 183.013357 80.895963 
L 183.325711 80.895963 
L 183.428598 78.789218 
L 183.657898 78.789218 
L 183.727364 76.682474 
L 183.97145 76.682474 
L 183.97145 74.57573 
L 184.316062 74.57573 
L 184.382961 71.415613 
L 184.509968 71.415613 
L 184.606119 69.308869 
L 184.624088 69.308869 
L 184.731518 64.568694 
L 184.856021 64.568694 
L 184.885534 61.935264 
L 185.2185 61.935264 
L 185.2185 60.881892 
L 185.391224 60.881892 
L 185.391224 60.355206 
L 185.720384 60.355206 
L 185.798914 58.775147 
L 185.993706 58.775147 
L 186.004772 57.195089 
L 186.153474 57.195089 
L 186.153474 56.668403 
L 186.624176 56.668403 
L 186.719997 55.615031 
L 186.889055 55.615031 
L 186.910072 54.561659 
L 187.278979 54.561659 
L 187.289259 52.454914 
L 187.452913 52.454914 
L 187.452913 50.874856 
L 187.875338 50.874856 
L 187.880306 49.821484 
L 188.008973 49.821484 
L 188.008973 48.768112 
L 188.490389 48.768112 
L 188.490389 47.71474 
L 188.671702 47.71474 
L 188.671702 46.134681 
L 191.725016 46.134681 
L 191.725016 45.607995 
L 191.891559 45.607995 
L 191.962451 40.867821 
L 192.297233 40.867821 
L 192.297233 40.341135 
L 192.500396 40.341135 
L 192.500396 39.287762 
L 192.91465 39.287762 
L 192.91465 38.23439 
L 193.118145 38.23439 
L 193.118145 36.654332 
L 193.8352 36.654332 
L 193.8352 36.127646 
L 193.989842 36.127646 
L 194.063168 34.547588 
L 195.423371 34.547588 
L 195.522997 32.967529 
L 195.783811 32.967529 
L 195.783811 30.860785 
L 196.102889 30.860785 
L 196.102889 30.334099 
L 338.688 30.334099 
L 338.688 30.334099 
" style="fill:none;stroke:#00bfbf;stroke-linecap:square;stroke-width:1.5;"/>
   </g>
   <g id="line2d_31">
    <defs>
     <path d="M -6 0 
L 6 0 
M 0 6 
L 0 -6 
" id="m75eb079089" style="stroke:#00bfbf;stroke-width:1.5;"/>
    </defs>
    <g>
     <use style="fill-opacity:0;stroke:#00bfbf;stroke-width:1.5;" x="92.73846" xlink:href="#m75eb079089" y="237.321729"/>
     <use style="fill-opacity:0;stroke:#00bfbf;stroke-width:1.5;" x="161.84538" xlink:href="#m75eb079089" y="183.599748"/>
     <use style="fill-opacity:0;stroke:#00bfbf;stroke-width:1.5;" x="188.490389" xlink:href="#m75eb079089" y="47.71474"/>
     <use style="fill-opacity:0;stroke:#00bfbf;stroke-width:1.5;" x="196.102889" xlink:href="#m75eb079089" y="30.334099"/>
     <use style="fill-opacity:0;stroke:#00bfbf;stroke-width:1.5;" x="196.102889" xlink:href="#m75eb079089" y="30.334099"/>
     <use style="fill-opacity:0;stroke:#00bfbf;stroke-width:1.5;" x="338.688" xlink:href="#m75eb079089" y="30.334099"/>
    </g>
   </g>
   <g id="line2d_32">
    <path style="fill:none;stroke:#00bfbf;stroke-linecap:square;stroke-width:1.5;"/>
    <g/>
   </g>
   <g id="line2d_33">
    <defs>
     <path d="M 0 1.5 
C 0.397805 1.5 0.77937 1.341951 1.06066 1.06066 
C 1.341951 0.77937 1.5 0.397805 1.5 0 
C 1.5 -0.397805 1.341951 -0.77937 1.06066 -1.06066 
C 0.77937 -1.341951 0.397805 -1.5 0 -1.5 
C -0.397805 -1.5 -0.77937 -1.341951 -1.06066 -1.06066 
C -1.341951 -0.77937 -1.5 -0.397805 -1.5 0 
C -1.5 0.397805 -1.341951 0.77937 -1.06066 1.06066 
C -0.77937 1.341951 -0.397805 1.5 0 1.5 
z
" id="m24d02bcdc2" style="stroke:#008000;"/>
    </defs>
    <g>
     <use style="fill:#008000;stroke:#008000;" x="232.948332" xlink:href="#m24d02bcdc2" y="30.334099"/>
     <use style="fill:#008000;stroke:#008000;" x="232.948332" xlink:href="#m24d02bcdc2" y="30.334099"/>
    </g>
   </g>
   <g id="line2d_34">
    <path d="M 38.440992 298.944 
L 38.440992 272.609696 
L 50.52898 272.609696 
L 50.52898 264.182719 
L 57.6 264.182719 
L 57.6 261.549288 
L 66.508432 261.549288 
L 66.508432 259.96923 
L 69.687988 259.96923 
L 69.687988 258.915858 
L 76.759008 258.915858 
L 76.759008 258.389172 
L 81.775977 258.389172 
L 81.775977 257.3358 
L 87.850195 257.3358 
L 87.850195 256.809114 
L 93.121756 256.809114 
L 93.121756 255.755741 
L 95.259853 255.755741 
L 95.259853 253.122311 
L 98.32726 253.122311 
L 98.32726 252.068939 
L 99.41757 252.068939 
L 99.41757 250.488881 
L 101.877879 250.488881 
L 101.877879 249.435508 
L 102.330873 249.435508 
L 102.330873 248.382136 
L 103.203018 248.382136 
L 103.203018 247.85545 
L 105.584798 247.85545 
L 105.584798 246.802078 
L 107.347841 246.802078 
L 107.347841 246.275392 
L 108.640231 246.275392 
L 108.640231 245.748706 
L 110.415248 245.748706 
L 110.415248 244.168648 
L 110.694282 244.168648 
L 110.694282 242.588589 
L 115.291007 242.588589 
L 115.291007 241.008531 
L 115.502395 241.008531 
L 115.502395 239.955159 
L 117.107138 239.955159 
L 117.107138 239.428473 
L 121.340187 239.428473 
L 121.340187 238.901787 
L 124.619683 238.901787 
L 124.619683 237.848415 
L 125.110962 237.848415 
L 125.110962 237.321729 
L 126.50685 237.321729 
L 126.50685 236.268356 
L 128.807571 236.268356 
L 128.807571 235.214984 
L 129.195127 235.214984 
L 129.195127 234.688298 
L 131.439773 234.688298 
L 131.439773 234.161612 
L 131.77355 234.161612 
L 131.77355 233.634926 
L 132.181982 233.634926 
L 132.181982 231.528182 
L 137.794206 231.528182 
L 137.794206 231.001496 
L 138.141844 231.001496 
L 138.141844 230.47481 
L 140.944478 230.47481 
L 140.944478 229.948123 
L 142.261275 229.948123 
L 142.261275 228.894751 
L 142.884173 228.894751 
L 142.884173 227.841379 
L 144.107744 227.841379 
L 144.107744 227.314693 
L 144.390658 227.314693 
L 144.390658 226.788007 
L 146.288102 226.788007 
L 146.288102 226.261321 
L 146.923612 226.261321 
L 146.958248 225.207949 
L 147.50327 225.207949 
L 147.50327 224.681263 
L 152.155936 224.681263 
L 152.155936 224.154577 
L 152.835965 224.154577 
L 152.934492 222.574518 
L 154.006185 222.574518 
L 154.006185 222.047832 
L 155.296925 222.047832 
L 155.296925 221.521146 
L 155.446436 221.521146 
L 155.446436 220.99446 
L 157.243392 220.99446 
L 157.243392 220.467774 
L 159.405822 220.467774 
L 159.473482 216.254285 
L 160.184713 216.254285 
L 160.184713 215.727599 
L 160.86807 215.727599 
L 160.86807 215.200913 
L 161.465522 215.200913 
L 161.465522 214.674227 
L 163.854349 214.674227 
L 163.854349 212.567483 
L 164.320806 212.567483 
L 164.320806 211.514111 
L 165.144862 211.514111 
L 165.144862 210.987425 
L 165.720627 210.987425 
L 165.720627 210.460738 
L 168.01684 210.460738 
L 168.01684 209.934052 
L 168.171308 209.934052 
L 168.171308 209.407366 
L 168.60668 209.407366 
L 168.60668 208.353994 
L 169.196565 208.353994 
L 169.196565 207.827308 
L 169.86976 207.827308 
L 169.86976 207.300622 
L 170.100748 207.300622 
L 170.100748 206.773936 
L 171.459882 206.773936 
L 171.459882 206.24725 
L 172.068921 206.24725 
L 172.068921 205.720564 
L 172.434028 205.720564 
L 172.490141 202.560447 
L 174.021557 202.560447 
L 174.021557 201.507075 
L 174.305129 201.507075 
L 174.305129 200.980389 
L 174.455933 200.980389 
L 174.48451 198.873645 
L 174.598353 198.873645 
L 174.598353 198.346959 
L 174.984116 198.346959 
L 174.984116 197.293586 
L 175.163549 197.293586 
L 175.252577 196.240214 
L 175.496772 196.240214 
L 175.496772 195.713528 
L 175.994786 195.713528 
L 176.047078 194.660156 
L 176.170646 194.660156 
L 176.177125 193.606784 
L 176.504422 193.606784 
L 176.574218 192.026726 
L 177.281564 192.026726 
L 177.281564 191.50004 
L 178.008058 191.50004 
L 178.101129 187.813237 
L 178.280055 187.813237 
L 178.365977 185.179807 
L 178.587413 185.179807 
L 178.587413 184.653121 
L 178.78935 184.653121 
L 178.78935 184.126434 
L 178.966907 184.126434 
L 178.988975 179.38626 
L 179.219019 179.38626 
L 179.219019 178.332888 
L 179.738993 178.332888 
L 179.844303 174.646085 
L 179.964628 174.646085 
L 179.98547 172.539341 
L 180.243911 172.539341 
L 180.341123 169.379224 
L 180.386982 169.379224 
L 180.386982 168.852538 
L 180.858886 168.852538 
L 180.942883 166.219108 
L 181.080356 166.219108 
L 181.080356 165.692422 
L 181.284554 165.692422 
L 181.37134 162.005619 
L 181.519801 162.005619 
L 181.519801 161.478933 
L 181.64335 161.478933 
L 181.733085 158.318817 
L 181.817674 158.318817 
L 181.925165 154.105328 
L 182.036628 154.105328 
L 182.115152 150.945211 
L 182.252868 150.945211 
L 182.316765 141.464862 
L 182.489029 141.464862 
L 182.592473 139.884804 
L 182.632784 139.884804 
L 182.664074 137.778059 
L 182.753163 137.778059 
L 182.863889 135.144629 
L 183.017734 135.144629 
L 183.052709 133.037885 
L 183.131146 133.037885 
L 183.131146 132.511199 
L 183.3042 132.511199 
L 183.360074 130.93114 
L 183.467024 130.93114 
L 183.543625 128.29771 
L 183.598738 128.29771 
L 183.657898 124.610907 
L 183.721061 124.610907 
L 183.767235 123.030849 
L 183.946572 123.030849 
L 184.004565 121.450791 
L 184.107646 121.450791 
L 184.107646 120.924105 
L 184.234627 120.924105 
L 184.234627 120.397419 
L 184.36069 120.397419 
L 184.384984 117.237302 
L 184.598127 117.237302 
L 184.598127 116.710616 
L 184.796844 116.710616 
L 184.883568 114.077186 
L 184.985507 114.077186 
L 184.985507 112.497128 
L 185.183749 112.497128 
L 185.280109 111.443755 
L 185.310832 111.443755 
L 185.368293 109.863697 
L 185.494044 109.863697 
L 185.566037 107.230267 
L 185.679108 107.230267 
L 185.754083 103.543464 
L 185.85851 103.543464 
L 185.925313 98.803289 
L 185.995551 98.803289 
L 186.010302 97.223231 
L 186.320845 97.223231 
L 186.425543 93.009743 
L 186.543922 93.009743 
L 186.608155 91.429684 
L 186.757118 91.429684 
L 186.774768 89.32294 
L 186.978205 89.32294 
L 187.07904 84.582765 
L 187.251537 84.582765 
L 187.330316 81.949335 
L 187.500357 81.949335 
L 187.510507 79.315904 
L 187.628489 79.315904 
L 187.69555 77.20916 
L 187.862084 77.20916 
L 187.911736 73.522358 
L 188.017189 73.522358 
L 188.079501 72.468985 
L 188.326548 72.468985 
L 188.432739 66.148752 
L 188.991525 66.148752 
L 189.065933 64.042008 
L 189.399929 64.042008 
L 189.399929 63.515322 
L 189.596099 63.515322 
L 189.682914 61.408578 
L 189.71275 61.408578 
L 189.71275 58.775147 
L 189.926077 58.775147 
L 189.984874 57.195089 
L 190.62455 57.195089 
L 190.669758 55.088345 
L 191.021741 55.088345 
L 191.104509 53.508287 
L 191.298843 53.508287 
L 191.396558 51.928228 
L 191.517936 51.928228 
L 191.517936 50.34817 
L 193.094833 50.34817 
L 193.094833 49.821484 
L 194.062006 49.821484 
L 194.126931 48.241426 
L 194.30882 48.241426 
L 194.30882 47.71474 
L 194.522802 47.71474 
L 194.522802 46.661368 
L 194.982756 46.661368 
L 195.017977 44.554623 
L 195.195205 44.554623 
L 195.266896 43.501251 
L 206.201028 43.501251 
L 206.201028 42.974565 
L 220.69895 42.974565 
L 220.69895 41.921193 
L 221.17062 41.921193 
L 221.222086 40.341135 
L 221.354704 40.341135 
L 221.371211 38.761076 
L 221.590618 38.761076 
L 221.697629 37.181018 
L 221.741865 37.181018 
L 221.797358 36.127646 
L 221.927569 36.127646 
L 222.037676 34.547588 
L 222.0764 34.547588 
L 222.164721 33.494215 
L 222.253521 33.494215 
L 222.253521 32.967529 
L 222.964486 32.967529 
L 222.964486 32.440843 
L 223.210321 32.440843 
L 223.210321 31.914157 
L 232.730362 31.914157 
L 232.730362 31.387471 
L 232.850871 31.387471 
L 232.948332 30.334099 
L 338.688 30.334099 
L 338.688 30.334099 
" style="fill:none;stroke:#008000;stroke-linecap:square;stroke-width:1.5;"/>
   </g>
   <g id="line2d_35">
    <defs>
     <path d="M -0 6 
L 6 -6 
L -6 -6 
z
" id="mac5c73423e" style="stroke:#008000;stroke-linejoin:miter;stroke-width:1.5;"/>
    </defs>
    <g>
     <use style="fill-opacity:0;stroke:#008000;stroke-linejoin:miter;stroke-width:1.5;" x="117.107138" xlink:href="#mac5c73423e" y="239.955159"/>
     <use style="fill-opacity:0;stroke:#008000;stroke-linejoin:miter;stroke-width:1.5;" x="180.341123" xlink:href="#mac5c73423e" y="171.485969"/>
     <use style="fill-opacity:0;stroke:#008000;stroke-linejoin:miter;stroke-width:1.5;" x="206.201028" xlink:href="#mac5c73423e" y="42.974565"/>
     <use style="fill-opacity:0;stroke:#008000;stroke-linejoin:miter;stroke-width:1.5;" x="232.948332" xlink:href="#mac5c73423e" y="30.334099"/>
     <use style="fill-opacity:0;stroke:#008000;stroke-linejoin:miter;stroke-width:1.5;" x="232.948332" xlink:href="#mac5c73423e" y="30.334099"/>
     <use style="fill-opacity:0;stroke:#008000;stroke-linejoin:miter;stroke-width:1.5;" x="338.688" xlink:href="#mac5c73423e" y="30.334099"/>
    </g>
   </g>
   <g id="line2d_36">
    <path style="fill:none;stroke:#008000;stroke-linecap:square;stroke-width:1.5;"/>
    <g/>
   </g>
   <g id="line2d_37">
    <path clip-path="url(#p8e0802bdc9)" d="M 219.56386 42.974565 
" style="fill:none;stroke:#008000;stroke-linecap:square;stroke-width:1.5;"/>
    <defs>
     <path d="M -12 12 
L 12 -12 
M -12 -12 
L 12 12 
" id="m79be800dfb" style="stroke:#008000;"/>
    </defs>
    <g clip-path="url(#p8e0802bdc9)">
     <use style="fill:#008000;stroke:#008000;" x="219.56386" xlink:href="#m79be800dfb" y="42.974565"/>
    </g>
   </g>
   <g id="line2d_38">
    <defs>
     <path d="M 0 1.5 
C 0.397805 1.5 0.77937 1.341951 1.06066 1.06066 
C 1.341951 0.77937 1.5 0.397805 1.5 0 
C 1.5 -0.397805 1.341951 -0.77937 1.06066 -1.06066 
C 0.77937 -1.341951 0.397805 -1.5 0 -1.5 
C -0.397805 -1.5 -0.77937 -1.341951 -1.06066 -1.06066 
C -1.341951 -0.77937 -1.5 -0.397805 -1.5 0 
C -1.5 0.397805 -1.341951 0.77937 -1.06066 1.06066 
C -0.77937 1.341951 -0.397805 1.5 0 1.5 
z
" id="mcaae1a0c19" style="stroke:#0000ff;"/>
    </defs>
    <g>
     <use style="fill:#0000ff;stroke:#0000ff;" x="267.136749" xlink:href="#mcaae1a0c19" y="30.334099"/>
     <use style="fill:#0000ff;stroke:#0000ff;" x="267.136749" xlink:href="#mcaae1a0c19" y="30.334099"/>
    </g>
   </g>
   <g id="line2d_39">
    <path d="M 29.53256 298.944 
L 29.53256 274.189754 
L 41.620548 274.189754 
L 41.620548 271.029638 
L 48.691568 271.029638 
L 48.691568 268.396207 
L 53.708537 268.396207 
L 53.708537 266.289463 
L 57.6 266.289463 
L 57.6 265.762777 
L 60.779557 265.762777 
L 60.779557 265.236091 
L 69.687988 265.236091 
L 69.687988 264.709405 
L 74.263433 264.709405 
L 74.263433 264.182719 
L 75.555822 264.182719 
L 75.555822 263.656033 
L 79.938565 263.656033 
L 79.938565 263.129347 
L 80.881459 263.129347 
L 80.881459 262.075974 
L 87.643811 262.075974 
L 87.643811 261.549288 
L 88.846997 261.549288 
L 88.846997 261.022602 
L 89.418828 261.022602 
L 89.418828 259.96923 
L 91.029752 259.96923 
L 91.029752 259.442544 
L 92.969447 259.442544 
L 92.969447 258.915858 
L 95.918017 258.915858 
L 95.918017 258.389172 
L 101.506816 258.389172 
L 101.506816 257.862486 
L 104.592361 257.862486 
L 104.592361 257.3358 
L 104.826449 257.3358 
L 104.826449 255.755741 
L 110.016944 255.755741 
L 110.016944 254.702369 
L 115.711251 254.702369 
L 115.711251 254.175683 
L 115.835374 254.175683 
L 115.835374 253.648997 
L 118.681952 253.648997 
L 118.681952 252.595625 
L 119.602714 252.595625 
L 119.602714 252.068939 
L 119.80089 252.068939 
L 119.80089 251.542253 
L 122.104932 251.542253 
L 122.104932 251.015567 
L 123.434283 251.015567 
L 123.434283 249.435508 
L 126.640485 249.435508 
L 126.640485 248.908822 
L 133.078923 248.908822 
L 133.078923 248.382136 
L 134.787017 248.382136 
L 134.787017 247.85545 
L 136.831795 247.85545 
L 136.831795 247.328764 
L 140.915143 247.328764 
L 140.915143 246.802078 
L 143.040814 246.802078 
L 143.040814 245.748706 
L 143.221802 245.748706 
L 143.221802 245.22202 
L 143.703791 245.22202 
L 143.703791 244.695334 
L 145.48607 244.695334 
L 145.48607 243.641962 
L 146.08557 243.641962 
L 146.129168 242.061903 
L 152.39064 242.061903 
L 152.39064 241.535217 
L 154.412564 241.535217 
L 154.412564 241.008531 
L 157.976006 241.008531 
L 157.976006 240.481845 
L 163.045324 240.481845 
L 163.045324 239.955159 
L 163.605703 239.955159 
L 163.605703 238.901787 
L 164.98806 238.901787 
L 165.061737 237.848415 
L 165.302685 237.848415 
L 165.302685 237.321729 
L 167.268694 237.321729 
L 167.268694 236.795043 
L 168.668567 236.795043 
L 168.668567 236.268356 
L 169.639443 236.268356 
L 169.707168 235.214984 
L 171.129034 235.214984 
L 171.129034 234.688298 
L 171.529365 234.688298 
L 171.529365 234.161612 
L 171.701032 234.161612 
L 171.781236 232.054868 
L 172.088588 232.054868 
L 172.088588 231.528182 
L 173.100398 231.528182 
L 173.100398 231.001496 
L 173.585107 231.001496 
L 173.585107 229.948123 
L 176.135616 229.948123 
L 176.186193 228.894751 
L 176.463685 228.894751 
L 176.463685 228.368065 
L 176.695377 228.368065 
L 176.695377 226.788007 
L 177.079739 226.788007 
L 177.116609 225.207949 
L 177.281564 225.207949 
L 177.281564 224.681263 
L 177.394299 224.681263 
L 177.484686 223.627891 
L 177.943781 223.627891 
L 177.943781 223.101204 
L 178.066286 223.101204 
L 178.066286 222.574518 
L 178.263969 222.574518 
L 178.291535 221.521146 
L 178.483291 221.521146 
L 178.483291 220.467774 
L 178.860589 220.467774 
L 178.860589 219.941088 
L 179.135021 219.941088 
L 179.135021 219.414402 
L 179.29178 219.414402 
L 179.382576 218.36103 
L 179.443919 218.36103 
L 179.443919 216.780971 
L 179.556359 216.780971 
L 179.556359 216.254285 
L 179.769598 216.254285 
L 179.769598 215.727599 
L 179.892533 215.727599 
L 179.892533 214.674227 
L 180.160595 214.674227 
L 180.160595 214.147541 
L 180.308438 214.147541 
L 180.308438 213.620855 
L 180.464161 213.620855 
L 180.464161 213.094169 
L 180.804318 213.094169 
L 180.828151 212.040797 
L 180.929076 212.040797 
L 181.011755 210.460738 
L 181.271982 210.460738 
L 181.271982 208.88068 
L 181.659442 208.88068 
L 181.659442 207.827308 
L 181.851394 207.827308 
L 181.915844 205.720564 
L 182.055136 205.720564 
L 182.055136 205.193878 
L 182.209834 205.193878 
L 182.209834 204.667192 
L 182.620253 204.667192 
L 182.620253 204.140506 
L 182.939663 204.140506 
L 182.947573 202.033761 
L 183.091972 202.033761 
L 183.091972 201.507075 
L 183.281799 201.507075 
L 183.281799 200.980389 
L 183.680663 200.980389 
L 183.680663 200.453703 
L 183.869225 200.453703 
L 183.869225 199.927017 
L 184.203582 199.927017 
L 184.203582 199.400331 
L 184.553302 199.400331 
L 184.646823 198.346959 
L 184.780239 198.346959 
L 184.780239 196.7669 
L 185.141956 196.7669 
L 185.141956 195.713528 
L 185.616632 195.713528 
L 185.616632 194.660156 
L 186.107347 194.660156 
L 186.206041 192.026726 
L 186.291127 192.026726 
L 186.293303 190.973354 
L 186.644449 190.973354 
L 186.644449 189.919981 
L 187.186189 189.919981 
L 187.186189 188.866609 
L 187.350809 188.866609 
L 187.350809 187.813237 
L 187.907107 187.813237 
L 188.000096 186.759865 
L 188.17874 186.759865 
L 188.17874 186.233179 
L 188.572691 186.233179 
L 188.572691 185.706493 
L 188.713423 185.706493 
L 188.815407 184.126434 
L 189.026909 184.126434 
L 189.110426 183.073062 
L 189.38414 183.073062 
L 189.38414 182.546376 
L 189.529347 182.546376 
L 189.62848 181.493004 
L 189.858805 181.493004 
L 189.858805 180.966318 
L 190.058093 180.966318 
L 190.058093 179.38626 
L 190.37608 179.38626 
L 190.44825 177.806202 
L 190.662985 177.806202 
L 190.662985 177.279515 
L 190.865064 177.279515 
L 190.865064 175.699457 
L 191.417117 175.699457 
L 191.417117 175.172771 
L 191.567324 175.172771 
L 191.669946 174.119399 
L 191.882875 174.119399 
L 191.988372 172.539341 
L 195.176038 172.539341 
L 195.276432 171.485969 
L 195.414989 171.485969 
L 195.414989 170.959282 
L 195.643074 170.959282 
L 195.676142 169.90591 
L 195.782549 169.90591 
L 195.782549 169.379224 
L 195.920916 169.379224 
L 195.920916 168.852538 
L 196.033315 168.852538 
L 196.033315 168.325852 
L 196.164774 168.325852 
L 196.164774 167.799166 
L 196.295249 167.799166 
L 196.295249 167.27248 
L 196.44422 167.27248 
L 196.44422 166.219108 
L 196.610005 166.219108 
L 196.610005 165.165736 
L 196.781385 165.165736 
L 196.781385 164.63905 
L 196.89313 164.63905 
L 196.89313 164.112363 
L 197.05472 164.112363 
L 197.05472 163.585677 
L 197.348098 163.585677 
L 197.348098 163.058991 
L 197.459723 163.058991 
L 197.459723 162.005619 
L 197.579754 162.005619 
L 197.579754 161.478933 
L 197.721579 161.478933 
L 197.721579 160.952247 
L 198.047347 160.952247 
L 198.047347 160.425561 
L 201.907728 160.425561 
L 201.907728 159.898875 
L 206.958662 159.898875 
L 206.958662 159.372189 
L 207.935455 159.372189 
L 207.935455 158.845503 
L 208.150534 158.845503 
L 208.150534 158.318817 
L 208.426717 158.318817 
L 208.426717 157.79213 
L 208.699198 157.79213 
L 208.699198 157.265444 
L 209.525903 157.265444 
L 209.631249 155.685386 
L 210.006205 155.685386 
L 210.006205 155.1587 
L 211.065032 155.1587 
L 211.065032 154.632014 
L 212.708044 154.632014 
L 212.708044 154.105328 
L 212.855272 154.105328 
L 212.855272 153.578642 
L 213.090903 153.578642 
L 213.090903 153.051956 
L 213.277143 153.051956 
L 213.277143 152.52527 
L 213.593804 152.52527 
L 213.593804 151.998584 
L 213.877097 151.998584 
L 213.938737 150.945211 
L 214.067123 150.945211 
L 214.067123 150.418525 
L 214.318912 150.418525 
L 214.318912 149.891839 
L 214.81184 149.891839 
L 214.81184 149.365153 
L 214.936505 149.365153 
L 214.936505 148.838467 
L 215.056521 148.838467 
L 215.056521 148.311781 
L 215.352999 148.311781 
L 215.374365 147.258409 
L 215.470193 147.258409 
L 215.470193 146.731723 
L 215.619838 146.731723 
L 215.643711 145.678351 
L 216.31246 145.678351 
L 216.31246 145.151665 
L 216.472824 145.151665 
L 216.472824 144.624978 
L 216.717484 144.624978 
L 216.717484 144.098292 
L 216.860236 144.098292 
L 216.860236 143.571606 
L 216.993223 143.571606 
L 217.036954 142.518234 
L 217.217812 142.518234 
L 217.21966 141.464862 
L 217.409243 141.464862 
L 217.409243 140.938176 
L 218.018589 140.938176 
L 218.018589 140.41149 
L 218.361711 140.41149 
L 218.361711 139.884804 
L 218.624411 139.884804 
L 218.624411 139.358118 
L 218.773732 139.358118 
L 218.877837 138.304745 
L 219.620928 138.304745 
L 219.620928 137.778059 
L 220.480728 137.778059 
L 220.480728 137.251373 
L 221.599242 137.251373 
L 221.678663 136.198001 
L 222.174734 136.198001 
L 222.255181 134.617943 
L 222.294162 134.617943 
L 222.403998 132.511199 
L 222.419907 132.511199 
L 222.500052 130.404454 
L 222.584449 130.404454 
L 222.6124 129.351082 
L 222.768158 129.351082 
L 222.783201 128.29771 
L 222.933988 128.29771 
L 223.004389 125.66428 
L 223.072658 125.66428 
L 223.072658 125.137593 
L 223.256026 125.137593 
L 223.348552 123.030849 
L 223.710769 123.030849 
L 223.777855 121.977477 
L 224.463933 121.977477 
L 224.545429 120.924105 
L 224.799382 120.924105 
L 224.898604 119.344047 
L 225.452903 119.344047 
L 225.553297 118.290674 
L 226.4287 118.290674 
L 226.440678 117.237302 
L 227.322586 117.237302 
L 227.322586 116.18393 
L 227.489845 116.18393 
L 227.489845 115.657244 
L 227.68169 115.657244 
L 227.68169 115.130558 
L 227.802519 115.130558 
L 227.819224 114.077186 
L 227.919317 114.077186 
L 227.946897 113.023814 
L 228.787023 113.023814 
L 228.787023 112.497128 
L 228.979684 112.497128 
L 228.979684 111.970441 
L 229.185685 111.970441 
L 229.296747 110.390383 
L 229.306355 110.390383 
L 229.306355 109.863697 
L 229.462299 109.863697 
L 229.51969 108.810325 
L 229.597615 108.810325 
L 229.597615 108.283639 
L 229.881409 108.283639 
L 229.881409 107.756953 
L 230.001103 107.756953 
L 230.077441 106.176895 
L 230.230173 106.176895 
L 230.230173 105.650209 
L 230.421478 105.650209 
L 230.421478 105.123522 
L 230.588067 105.123522 
L 230.631265 104.07015 
L 230.762768 104.07015 
L 230.762768 103.543464 
L 230.909976 103.543464 
L 230.972543 102.490092 
L 231.134473 102.490092 
L 231.134473 101.963406 
L 231.314844 101.963406 
L 231.314844 101.43672 
L 231.528205 101.43672 
L 231.528205 100.910034 
L 231.669279 100.910034 
L 231.757616 98.803289 
L 231.879648 98.803289 
L 231.879648 98.276603 
L 233.095516 98.276603 
L 233.095516 97.749917 
L 233.329836 97.749917 
L 233.404765 96.696545 
L 233.494491 96.696545 
L 233.592571 95.643173 
L 233.826908 95.643173 
L 233.826908 95.116487 
L 234.223474 95.116487 
L 234.243388 94.063115 
L 234.672573 94.063115 
L 234.672573 93.536429 
L 234.837728 93.536429 
L 234.939125 92.483056 
L 235.11887 92.483056 
L 235.205352 90.902998 
L 235.280002 90.902998 
L 235.280002 90.376312 
L 235.45291 90.376312 
L 235.45291 89.849626 
L 235.946941 89.849626 
L 235.946941 89.32294 
L 236.154477 89.32294 
L 236.242688 87.742882 
L 236.342798 87.742882 
L 236.342798 87.216196 
L 236.543751 87.216196 
L 236.64567 84.582765 
L 236.664093 84.582765 
L 236.664093 84.056079 
L 236.825908 84.056079 
L 236.825908 83.529393 
L 237.157001 83.529393 
L 237.219069 82.476021 
L 237.30744 82.476021 
L 237.394088 81.422649 
L 237.437019 81.422649 
L 237.45856 80.369277 
L 237.647355 80.369277 
L 237.716603 78.262532 
L 237.875991 78.262532 
L 237.875991 77.735846 
L 238.063698 77.735846 
L 238.169249 75.629102 
L 238.249295 75.629102 
L 238.249295 75.102416 
L 238.398097 75.102416 
L 238.398097 74.57573 
L 238.568245 74.57573 
L 238.610551 73.522358 
L 238.822054 73.522358 
L 238.931 72.468985 
L 238.968934 72.468985 
L 239.069689 70.888927 
L 239.367056 70.888927 
L 239.367056 70.362241 
L 239.55763 70.362241 
L 239.55763 69.835555 
L 239.778395 69.835555 
L 239.778395 69.308869 
L 240.185899 69.308869 
L 240.185899 68.782183 
L 240.400758 68.782183 
L 240.400758 68.255497 
L 240.56367 68.255497 
L 240.56367 67.728811 
L 240.980311 67.728811 
L 240.980311 67.202125 
L 241.153006 67.202125 
L 241.153006 66.675439 
L 241.47203 66.675439 
L 241.47203 66.148752 
L 241.585677 66.148752 
L 241.585677 65.622066 
L 241.70748 65.622066 
L 241.70748 65.09538 
L 242.215109 65.09538 
L 242.253572 64.042008 
L 242.332784 64.042008 
L 242.332784 63.515322 
L 242.498374 63.515322 
L 242.511806 62.46195 
L 243.09106 62.46195 
L 243.09106 61.935264 
L 243.554124 61.935264 
L 243.602203 60.881892 
L 243.716973 60.881892 
L 243.716973 60.355206 
L 244.085259 60.355206 
L 244.085259 59.82852 
L 244.203116 59.82852 
L 244.258378 58.775147 
L 244.44019 58.775147 
L 244.50715 57.721775 
L 245.299508 57.721775 
L 245.299508 57.195089 
L 245.511071 57.195089 
L 245.559873 55.615031 
L 245.693774 55.615031 
L 245.760341 54.034973 
L 245.854569 54.034973 
L 245.854569 53.508287 
L 246.116209 53.508287 
L 246.16398 52.454914 
L 246.369955 52.454914 
L 246.369955 51.928228 
L 246.651382 51.928228 
L 246.751801 50.874856 
L 246.893269 50.874856 
L 246.893269 50.34817 
L 247.47005 50.34817 
L 247.54726 48.241426 
L 248.34116 48.241426 
L 248.359258 47.188054 
L 248.546513 47.188054 
L 248.546513 46.661368 
L 248.738751 46.661368 
L 248.738751 46.134681 
L 249.034102 46.134681 
L 249.034102 45.607995 
L 249.172651 45.607995 
L 249.172651 45.081309 
L 249.543597 45.081309 
L 249.543597 44.554623 
L 249.69046 44.554623 
L 249.69046 44.027937 
L 249.814169 44.027937 
L 249.922286 42.974565 
L 250.114922 42.974565 
L 250.114922 42.447879 
L 250.457932 42.447879 
L 250.522404 41.394507 
L 251.089213 41.394507 
L 251.089213 40.867821 
L 251.239902 40.867821 
L 251.330678 39.814448 
L 251.960566 39.814448 
L 251.960566 39.287762 
L 252.350878 39.287762 
L 252.350878 38.761076 
L 252.645749 38.761076 
L 252.645749 38.23439 
L 252.884609 38.23439 
L 252.884609 37.707704 
L 253.765324 37.707704 
L 253.765324 37.181018 
L 254.008973 37.181018 
L 254.008973 36.654332 
L 254.517695 36.654332 
L 254.517695 36.127646 
L 254.956365 36.127646 
L 254.956365 35.60096 
L 255.411373 35.60096 
L 255.411373 35.074274 
L 257.1116 35.074274 
L 257.1116 34.547588 
L 258.726487 34.547588 
L 258.726487 34.020902 
L 259.454012 34.020902 
L 259.454012 33.494215 
L 259.871794 33.494215 
L 259.89064 31.914157 
L 260.702673 31.914157 
L 260.702673 31.387471 
L 262.039108 31.387471 
L 262.039108 30.860785 
L 267.136749 30.860785 
L 267.136749 30.334099 
L 338.688 30.334099 
L 338.688 30.334099 
" style="fill:none;stroke:#0000ff;stroke-linecap:square;stroke-width:1.5;"/>
   </g>
   <g id="line2d_40">
    <defs>
     <path d="M 0 -6 
L -1.347084 -1.854102 
L -5.706339 -1.854102 
L -2.179628 0.708204 
L -3.526712 4.854102 
L -0 2.291796 
L 3.526712 4.854102 
L 2.179628 0.708204 
L 5.706339 -1.854102 
L 1.347084 -1.854102 
z
" id="mb9f42a65c8" style="stroke:#0000ff;stroke-linejoin:bevel;stroke-width:1.5;"/>
    </defs>
    <g>
     <use style="fill-opacity:0;stroke:#0000ff;stroke-linejoin:bevel;stroke-width:1.5;" x="110.016944" xlink:href="#mb9f42a65c8" y="254.702369"/>
     <use style="fill-opacity:0;stroke:#0000ff;stroke-linejoin:bevel;stroke-width:1.5;" x="179.769598" xlink:href="#mb9f42a65c8" y="215.727599"/>
     <use style="fill-opacity:0;stroke:#0000ff;stroke-linejoin:bevel;stroke-width:1.5;" x="236.61071" xlink:href="#mb9f42a65c8" y="86.162824"/>
     <use style="fill-opacity:0;stroke:#0000ff;stroke-linejoin:bevel;stroke-width:1.5;" x="267.136749" xlink:href="#mb9f42a65c8" y="30.860785"/>
     <use style="fill-opacity:0;stroke:#0000ff;stroke-linejoin:bevel;stroke-width:1.5;" x="267.136749" xlink:href="#mb9f42a65c8" y="30.334099"/>
     <use style="fill-opacity:0;stroke:#0000ff;stroke-linejoin:bevel;stroke-width:1.5;" x="338.688" xlink:href="#mb9f42a65c8" y="30.334099"/>
    </g>
   </g>
   <g id="line2d_41">
    <path style="fill:none;stroke:#0000ff;stroke-linecap:square;stroke-width:1.5;"/>
    <g/>
   </g>
   <g id="line2d_42">
    <path clip-path="url(#p8e0802bdc9)" d="M 212.637565 154.632014 
" style="fill:none;stroke:#0000ff;stroke-linecap:square;stroke-width:1.5;"/>
    <defs>
     <path d="M -12 12 
L 12 -12 
M -12 -12 
L 12 12 
" id="mfe48c03fc1" style="stroke:#0000ff;"/>
    </defs>
    <g clip-path="url(#p8e0802bdc9)">
     <use style="fill:#0000ff;stroke:#0000ff;" x="212.637565" xlink:href="#mfe48c03fc1" y="154.632014"/>
    </g>
   </g>
   <g id="line2d_43">
    <defs>
     <path d="M 0 1.5 
C 0.397805 1.5 0.77937 1.341951 1.06066 1.06066 
C 1.341951 0.77937 1.5 0.397805 1.5 0 
C 1.5 -0.397805 1.341951 -0.77937 1.06066 -1.06066 
C 0.77937 -1.341951 0.397805 -1.5 0 -1.5 
C -0.397805 -1.5 -0.77937 -1.341951 -1.06066 -1.06066 
C -1.341951 -0.77937 -1.5 -0.397805 -1.5 0 
C -1.5 0.397805 -1.341951 0.77937 -1.06066 1.06066 
C -0.77937 1.341951 -0.397805 1.5 0 1.5 
z
" id="ma1910f34af" style="stroke:#000000;"/>
    </defs>
    <g>
     <use style="stroke:#000000;" x="254.412784" xlink:href="#ma1910f34af" y="193.606784"/>
     <use style="stroke:#000000;" x="254.412784" xlink:href="#ma1910f34af" y="193.606784"/>
    </g>
   </g>
   <g id="line2d_44">
    <path d="M 17.444571 298.944 
L 17.444571 276.823185 
L 29.53256 276.823185 
L 29.53256 275.243126 
L 36.60358 275.243126 
L 36.60358 273.663068 
L 41.620548 273.663068 
L 41.620548 270.502952 
L 53.708537 270.502952 
L 53.708537 269.976266 
L 64.67102 269.976266 
L 64.67102 269.449579 
L 67.850577 269.449579 
L 67.850577 268.922893 
L 69.687988 268.922893 
L 69.687988 268.396207 
L 72.125336 268.396207 
L 72.125336 267.342835 
L 73.579452 267.342835 
L 73.579452 266.816149 
L 76.759008 266.816149 
L 76.759008 266.289463 
L 78.421149 266.289463 
L 78.421149 265.762777 
L 92.969447 265.762777 
L 92.969447 265.236091 
L 99.886816 265.236091 
L 99.886816 264.709405 
L 105.732589 264.709405 
L 105.732589 264.182719 
L 111.266113 264.182719 
L 111.266113 263.656033 
L 115.141496 263.656033 
L 115.141496 263.129347 
L 115.711251 263.129347 
L 115.711251 262.60266 
L 117.316679 262.60266 
L 117.316679 262.075974 
L 119.097192 262.075974 
L 119.097192 261.549288 
L 120.286695 261.549288 
L 120.286695 261.022602 
L 122.018385 261.022602 
L 122.018385 260.495916 
L 123.790603 260.495916 
L 123.790603 259.96923 
L 125.147256 259.96923 
L 125.147256 259.442544 
L 127.002787 259.442544 
L 127.002787 258.915858 
L 132.084827 258.915858 
L 132.084827 257.862486 
L 136.054058 257.862486 
L 136.054058 257.3358 
L 136.626514 257.3358 
L 136.626514 256.809114 
L 139.69937 256.809114 
L 139.69937 256.282427 
L 149.699829 256.282427 
L 149.699829 255.755741 
L 151.121626 255.755741 
L 151.121626 255.229055 
L 153.452361 255.229055 
L 153.452361 254.175683 
L 155.141793 254.175683 
L 155.141793 253.648997 
L 156.894595 253.648997 
L 156.894595 253.122311 
L 158.091517 253.122311 
L 158.118907 252.068939 
L 162.559939 252.068939 
L 162.559939 251.015567 
L 163.621681 251.015567 
L 163.621681 249.962195 
L 165.309935 249.962195 
L 165.309935 249.435508 
L 166.564749 249.435508 
L 166.598441 248.382136 
L 169.707168 248.382136 
L 169.707168 247.85545 
L 171.178286 247.85545 
L 171.178286 247.328764 
L 173.746708 247.328764 
L 173.829174 245.748706 
L 174.938273 245.748706 
L 174.938273 245.22202 
L 175.496772 245.22202 
L 175.496772 244.695334 
L 175.94562 244.695334 
L 175.94562 244.168648 
L 176.753762 244.168648 
L 176.753762 243.641962 
L 177.533301 243.641962 
L 177.533301 243.115275 
L 177.882205 243.115275 
L 177.882205 242.588589 
L 178.640929 242.588589 
L 178.640929 242.061903 
L 179.285276 242.061903 
L 179.285276 241.535217 
L 179.466465 241.535217 
L 179.466465 240.481845 
L 180.003686 240.481845 
L 180.069107 239.428473 
L 180.174508 239.428473 
L 180.277741 237.321729 
L 180.595893 237.321729 
L 180.595893 235.74167 
L 181.279236 235.74167 
L 181.384802 234.688298 
L 181.973089 234.688298 
L 181.973089 234.161612 
L 182.368623 234.161612 
L 182.455616 233.10824 
L 182.637705 233.10824 
L 182.637705 232.581554 
L 182.872276 232.581554 
L 182.872276 231.528182 
L 184.002497 231.528182 
L 184.002497 230.47481 
L 184.81225 230.47481 
L 184.81225 229.948123 
L 185.338437 229.948123 
L 185.338437 229.421437 
L 185.713637 229.421437 
L 185.713637 228.894751 
L 185.8626 228.894751 
L 185.8626 228.368065 
L 186.037927 228.368065 
L 186.055583 227.314693 
L 186.209321 227.314693 
L 186.209321 226.788007 
L 186.664698 226.788007 
L 186.664698 226.261321 
L 187.228521 226.261321 
L 187.235739 225.207949 
L 187.414184 225.207949 
L 187.414184 224.681263 
L 187.620088 224.681263 
L 187.718627 223.627891 
L 187.802647 223.627891 
L 187.802647 222.574518 
L 187.976401 222.574518 
L 187.979365 221.521146 
L 188.187527 221.521146 
L 188.187527 220.99446 
L 188.443322 220.99446 
L 188.499979 219.414402 
L 188.704897 219.414402 
L 188.756934 217.834344 
L 188.889631 217.834344 
L 188.889631 217.307658 
L 189.005501 217.307658 
L 189.005501 216.780971 
L 189.157575 216.780971 
L 189.157575 216.254285 
L 189.527539 216.254285 
L 189.572675 215.200913 
L 189.841947 215.200913 
L 189.945502 214.147541 
L 190.041427 214.147541 
L 190.041427 213.620855 
L 190.427661 213.620855 
L 190.427661 213.094169 
L 191.851259 213.094169 
L 191.851259 212.567483 
L 191.97738 212.567483 
L 191.97738 212.040797 
L 192.243169 212.040797 
L 192.243169 211.514111 
L 193.419364 211.514111 
L 193.419364 210.987425 
L 193.612796 210.987425 
L 193.612796 210.460738 
L 194.257898 210.460738 
L 194.257898 209.934052 
L 195.392403 209.934052 
L 195.392403 209.407366 
L 196.419277 209.407366 
L 196.419277 208.88068 
L 198.215119 208.88068 
L 198.215119 208.353994 
L 198.942836 208.353994 
L 198.942836 207.827308 
L 201.964079 207.827308 
L 201.964079 207.300622 
L 202.1079 207.300622 
L 202.1079 206.773936 
L 203.630368 206.773936 
L 203.630368 206.24725 
L 208.740095 206.24725 
L 208.740095 205.720564 
L 210.683932 205.720564 
L 210.683932 205.193878 
L 211.287318 205.193878 
L 211.287318 204.667192 
L 211.488599 204.667192 
L 211.488599 204.140506 
L 212.142743 204.140506 
L 212.142743 203.613819 
L 221.272619 203.613819 
L 221.272619 203.087133 
L 221.995871 203.087133 
L 222.07351 202.033761 
L 222.597209 202.033761 
L 222.597209 201.507075 
L 225.024914 201.507075 
L 225.024914 200.980389 
L 228.121354 200.980389 
L 228.121354 200.453703 
L 228.385558 200.453703 
L 228.385558 199.927017 
L 231.281558 199.927017 
L 231.281558 199.400331 
L 231.775422 199.400331 
L 231.775422 198.873645 
L 231.888013 198.873645 
L 231.888013 198.346959 
L 239.656274 198.346959 
L 239.656274 197.820273 
L 242.079637 197.820273 
L 242.079637 197.293586 
L 242.218633 197.293586 
L 242.218633 196.7669 
L 246.918149 196.7669 
L 246.918149 196.240214 
L 250.655283 196.240214 
L 250.722197 195.186842 
L 253.391839 195.186842 
L 253.391839 194.660156 
L 253.834139 194.660156 
L 253.834139 194.13347 
L 254.412784 194.13347 
L 254.412784 193.606784 
L 338.688 193.606784 
L 338.688 193.606784 
" style="fill:none;stroke:#000000;stroke-linecap:square;stroke-width:1.5;"/>
   </g>
   <g id="line2d_45">
    <defs>
     <path d="M 0 6 
C 1.591219 6 3.117479 5.367802 4.242641 4.242641 
C 5.367802 3.117479 6 1.591219 6 0 
C 6 -1.591219 5.367802 -3.117479 4.242641 -4.242641 
C 3.117479 -5.367802 1.591219 -6 0 -6 
C -1.591219 -6 -3.117479 -5.367802 -4.242641 -4.242641 
C -5.367802 -3.117479 -6 -1.591219 -6 0 
C -6 1.591219 -5.367802 3.117479 -4.242641 4.242641 
C -3.117479 5.367802 -1.591219 6 0 6 
z
" id="m249469534c" style="stroke:#000000;stroke-width:1.5;"/>
    </defs>
    <g>
     <use style="fill-opacity:0;stroke:#000000;stroke-width:1.5;" x="73.579452" xlink:href="#m249469534c" y="267.342835"/>
     <use style="fill-opacity:0;stroke:#000000;stroke-width:1.5;" x="151.121626" xlink:href="#m249469534c" y="255.229055"/>
     <use style="fill-opacity:0;stroke:#000000;stroke-width:1.5;" x="198.942836" xlink:href="#m249469534c" y="208.353994"/>
     <use style="fill-opacity:0;stroke:#000000;stroke-width:1.5;" x="254.412784" xlink:href="#m249469534c" y="194.13347"/>
     <use style="fill-opacity:0;stroke:#000000;stroke-width:1.5;" x="254.412784" xlink:href="#m249469534c" y="193.606784"/>
     <use style="fill-opacity:0;stroke:#000000;stroke-width:1.5;" x="338.688" xlink:href="#m249469534c" y="193.606784"/>
    </g>
   </g>
   <g id="line2d_46">
    <path style="fill:none;stroke:#000000;stroke-linecap:square;stroke-width:1.5;"/>
    <g/>
   </g>
   <g id="line2d_47">
    <path clip-path="url(#p8e0802bdc9)" d="M 204.179663 206.24725 
" style="fill:none;stroke:#000000;stroke-linecap:square;stroke-width:1.5;"/>
    <defs>
     <path d="M -12 12 
L 12 -12 
M -12 -12 
L 12 12 
" id="m450bfc3e09" style="stroke:#000000;"/>
    </defs>
    <g clip-path="url(#p8e0802bdc9)">
     <use style="stroke:#000000;" x="204.179663" xlink:href="#m450bfc3e09" y="206.24725"/>
    </g>
   </g>
   <g id="line2d_48">
    <defs>
     <path d="M 0 1.5 
C 0.397805 1.5 0.77937 1.341951 1.06066 1.06066 
C 1.341951 0.77937 1.5 0.397805 1.5 0 
C 1.5 -0.397805 1.341951 -0.77937 1.06066 -1.06066 
C 0.77937 -1.341951 0.397805 -1.5 0 -1.5 
C -0.397805 -1.5 -0.77937 -1.341951 -1.06066 -1.06066 
C -1.341951 -0.77937 -1.5 -0.397805 -1.5 0 
C -1.5 0.397805 -1.341951 0.77937 -1.06066 1.06066 
C -0.77937 1.341951 -0.397805 1.5 0 1.5 
z
" id="m9a0ee77833" style="stroke:#ff0000;"/>
    </defs>
    <g>
     <use style="fill:#ff0000;stroke:#ff0000;" x="257.266754" xlink:href="#m9a0ee77833" y="204.140506"/>
     <use style="fill:#ff0000;stroke:#ff0000;" x="257.266754" xlink:href="#m9a0ee77833" y="204.140506"/>
    </g>
   </g>
   <g id="line2d_49">
    <path d="M 5.356583 298.944 
L 5.356583 273.663068 
L 17.444571 273.663068 
L 17.444571 272.609696 
L 24.515591 272.609696 
L 24.515591 272.08301 
L 41.620548 272.08301 
L 41.620548 271.556324 
L 50.087456 271.556324 
L 50.087456 271.029638 
L 51.379845 271.029638 
L 51.379845 270.502952 
L 59.262141 270.502952 
L 59.262141 269.976266 
L 64.079801 269.976266 
L 64.079801 269.449579 
L 67.850577 269.449579 
L 67.850577 268.922893 
L 69.246464 268.922893 
L 69.246464 268.396207 
L 70.538854 268.396207 
L 70.538854 267.869521 
L 78.941764 267.869521 
L 78.941764 267.342835 
L 107.712901 267.342835 
L 107.712901 266.816149 
L 110.231452 266.816149 
L 110.231452 266.289463 
L 110.61104 266.289463 
L 110.61104 265.762777 
L 115.4287 265.762777 
L 115.4287 265.236091 
L 118.760566 265.236091 
L 118.760566 264.709405 
L 122.298108 264.709405 
L 122.298108 264.182719 
L 124.799375 264.182719 
L 124.799375 263.656033 
L 131.401821 263.656033 
L 131.401821 263.129347 
L 131.938072 263.129347 
L 131.938072 262.60266 
L 136.96118 262.60266 
L 136.96118 262.075974 
L 154.800864 262.075974 
L 154.800864 261.549288 
L 159.557689 261.549288 
L 159.557689 261.022602 
L 160.203341 261.022602 
L 160.203341 260.495916 
L 161.395353 260.495916 
L 161.395353 259.96923 
L 162.90653 259.96923 
L 162.90653 259.442544 
L 169.798463 259.442544 
L 169.798463 258.915858 
L 170.748506 258.915858 
L 170.748506 258.389172 
L 171.488725 258.389172 
L 171.488725 257.862486 
L 173.611019 257.862486 
L 173.611019 257.3358 
L 177.704175 257.3358 
L 177.704175 256.809114 
L 178.017387 256.809114 
L 178.017387 256.282427 
L 178.502861 256.282427 
L 178.502861 255.755741 
L 178.691478 255.755741 
L 178.691478 255.229055 
L 178.856423 255.229055 
L 178.856423 254.702369 
L 179.135021 254.702369 
L 179.207044 253.648997 
L 179.852438 253.648997 
L 179.9615 252.068939 
L 180.475556 252.068939 
L 180.489221 251.015567 
L 180.969726 251.015567 
L 180.969726 250.488881 
L 181.151854 250.488881 
L 181.151854 249.962195 
L 181.272707 249.962195 
L 181.332822 248.908822 
L 181.460329 248.908822 
L 181.512647 247.85545 
L 181.714703 247.85545 
L 181.714703 247.328764 
L 181.826813 247.328764 
L 181.826813 246.802078 
L 182.114692 246.802078 
L 182.114692 246.275392 
L 182.592024 246.275392 
L 182.592024 245.748706 
L 182.933727 245.748706 
L 182.942959 244.695334 
L 183.061223 244.695334 
L 183.061223 244.168648 
L 183.492595 244.168648 
L 183.492595 243.641962 
L 183.707184 243.641962 
L 183.794672 242.061903 
L 183.838565 242.061903 
L 183.838565 241.535217 
L 184.476794 241.535217 
L 184.513584 239.955159 
L 184.69757 239.955159 
L 184.69757 239.428473 
L 185.009532 239.428473 
L 185.076744 238.375101 
L 185.134399 238.375101 
L 185.134399 237.848415 
L 185.378616 237.848415 
L 185.378616 237.321729 
L 186.030196 237.321729 
L 186.030196 236.795043 
L 186.685455 236.795043 
L 186.685455 236.268356 
L 186.828488 236.268356 
L 186.828488 235.74167 
L 186.990231 235.74167 
L 186.990231 234.688298 
L 187.206852 234.688298 
L 187.267664 233.10824 
L 187.404998 233.10824 
L 187.49054 231.528182 
L 187.6216 231.528182 
L 187.6216 231.001496 
L 187.985291 231.001496 
L 187.985291 230.47481 
L 188.121518 230.47481 
L 188.121518 229.948123 
L 188.828584 229.948123 
L 188.932237 228.894751 
L 189.066397 228.894751 
L 189.066397 228.368065 
L 189.675148 228.368065 
L 189.745362 227.314693 
L 189.977242 227.314693 
L 189.977242 226.788007 
L 190.430665 226.788007 
L 190.491922 225.734635 
L 190.838255 225.734635 
L 190.838255 225.207949 
L 191.304831 225.207949 
L 191.382206 224.154577 
L 191.70269 224.154577 
L 191.709072 223.101204 
L 192.048706 223.101204 
L 192.048706 222.574518 
L 192.282575 222.574518 
L 192.282575 222.047832 
L 192.785781 222.047832 
L 192.785781 221.521146 
L 193.299646 221.521146 
L 193.350173 220.467774 
L 193.641377 220.467774 
L 193.641377 219.941088 
L 194.065258 219.941088 
L 194.065258 219.414402 
L 195.161648 219.414402 
L 195.161648 218.887716 
L 195.568442 218.887716 
L 195.568442 218.36103 
L 195.683129 218.36103 
L 195.683129 217.834344 
L 196.472163 217.834344 
L 196.472163 217.307658 
L 196.930712 217.307658 
L 196.930712 216.780971 
L 197.671505 216.780971 
L 197.671505 216.254285 
L 197.873746 216.254285 
L 197.873746 215.727599 
L 197.99097 215.727599 
L 197.99097 215.200913 
L 198.214569 215.200913 
L 198.214569 214.674227 
L 198.741232 214.674227 
L 198.741232 214.147541 
L 199.529444 214.147541 
L 199.529444 213.620855 
L 201.305702 213.620855 
L 201.305702 213.094169 
L 204.188829 213.094169 
L 204.188829 212.567483 
L 208.781197 212.567483 
L 208.781197 212.040797 
L 211.570253 212.040797 
L 211.570253 211.514111 
L 216.866551 211.514111 
L 216.866551 210.987425 
L 223.637736 210.987425 
L 223.637736 210.460738 
L 225.711953 210.460738 
L 225.711953 209.934052 
L 227.46143 209.934052 
L 227.46143 209.407366 
L 233.075251 209.407366 
L 233.075251 208.88068 
L 234.444517 208.88068 
L 234.444517 208.353994 
L 236.08768 208.353994 
L 236.08768 207.827308 
L 242.786557 207.827308 
L 242.786557 207.300622 
L 247.236449 207.300622 
L 247.314188 206.24725 
L 248.247438 206.24725 
L 248.247438 205.720564 
L 248.99196 205.720564 
L 248.99196 205.193878 
L 250.328529 205.193878 
L 250.328529 204.667192 
L 257.266754 204.667192 
L 257.266754 204.140506 
L 338.688 204.140506 
L 338.688 204.140506 
" style="fill:none;stroke:#ff0000;stroke-linecap:square;stroke-width:1.5;"/>
   </g>
   <g id="line2d_50">
    <defs>
     <path d="M -6 6 
L 6 6 
L 6 -6 
L -6 -6 
z
" id="m485b591a1e" style="stroke:#ff0000;stroke-linejoin:miter;stroke-width:1.5;"/>
    </defs>
    <g>
     <use style="fill-opacity:0;stroke:#ff0000;stroke-linejoin:miter;stroke-width:1.5;" x="78.941764" xlink:href="#m485b591a1e" y="267.342835"/>
     <use style="fill-opacity:0;stroke:#ff0000;stroke-linejoin:miter;stroke-width:1.5;" x="179.207044" xlink:href="#m485b591a1e" y="253.648997"/>
     <use style="fill-opacity:0;stroke:#ff0000;stroke-linejoin:miter;stroke-width:1.5;" x="247.314188" xlink:href="#m485b591a1e" y="206.24725"/>
     <use style="fill-opacity:0;stroke:#ff0000;stroke-linejoin:miter;stroke-width:1.5;" x="257.266754" xlink:href="#m485b591a1e" y="204.140506"/>
     <use style="fill-opacity:0;stroke:#ff0000;stroke-linejoin:miter;stroke-width:1.5;" x="257.266754" xlink:href="#m485b591a1e" y="204.140506"/>
     <use style="fill-opacity:0;stroke:#ff0000;stroke-linejoin:miter;stroke-width:1.5;" x="338.688" xlink:href="#m485b591a1e" y="204.140506"/>
    </g>
   </g>
   <g id="line2d_51">
    <path style="fill:none;stroke:#ff0000;stroke-linecap:square;stroke-width:1.5;"/>
    <g/>
   </g>
   <g id="line2d_52">
    <path clip-path="url(#p8e0802bdc9)" d="M 205.349004 212.567483 
" style="fill:none;stroke:#ff0000;stroke-linecap:square;stroke-width:1.5;"/>
    <defs>
     <path d="M -12 12 
L 12 -12 
M -12 -12 
L 12 12 
" id="m858f379740" style="stroke:#ff0000;"/>
    </defs>
    <g clip-path="url(#p8e0802bdc9)">
     <use style="fill:#ff0000;stroke:#ff0000;" x="205.349004" xlink:href="#m858f379740" y="212.567483"/>
    </g>
   </g>
   <g id="line2d_53">
    <path d="M 338.688 204.140506 
L 369.60768 293.571802 
" style="fill:none;stroke:#ff0000;stroke-linecap:square;stroke-width:1.5;"/>
    <g>
     <use style="fill-opacity:0;stroke:#ff0000;stroke-linejoin:miter;stroke-width:1.5;" x="338.688" xlink:href="#m485b591a1e" y="204.140506"/>
     <use style="fill-opacity:0;stroke:#ff0000;stroke-linejoin:miter;stroke-width:1.5;" x="369.60768" xlink:href="#m485b591a1e" y="293.571802"/>
    </g>
   </g>
   <g id="line2d_54">
    <path d="M 338.688 193.606784 
L 369.60768 229.105426 
" style="fill:none;stroke:#000000;stroke-linecap:square;stroke-width:1.5;"/>
    <g>
     <use style="fill-opacity:0;stroke:#000000;stroke-width:1.5;" x="338.688" xlink:href="#m249469534c" y="193.606784"/>
     <use style="fill-opacity:0;stroke:#000000;stroke-width:1.5;" x="369.60768" xlink:href="#m249469534c" y="229.105426"/>
    </g>
   </g>
   <g id="line2d_55">
    <path d="M 338.688 30.334099 
L 369.60768 164.63905 
" style="fill:none;stroke:#0000ff;stroke-linecap:square;stroke-width:1.5;"/>
    <g>
     <use style="fill-opacity:0;stroke:#0000ff;stroke-linejoin:bevel;stroke-width:1.5;" x="338.688" xlink:href="#mb9f42a65c8" y="30.334099"/>
     <use style="fill-opacity:0;stroke:#0000ff;stroke-linejoin:bevel;stroke-width:1.5;" x="369.60768" xlink:href="#mb9f42a65c8" y="164.63905"/>
    </g>
   </g>
   <g id="line2d_56">
    <path d="M 338.688 30.334099 
L 369.60768 100.172673 
" style="fill:none;stroke:#008000;stroke-linecap:square;stroke-width:1.5;"/>
    <g>
     <use style="fill-opacity:0;stroke:#008000;stroke-linejoin:miter;stroke-width:1.5;" x="338.688" xlink:href="#mac5c73423e" y="30.334099"/>
     <use style="fill-opacity:0;stroke:#008000;stroke-linejoin:miter;stroke-width:1.5;" x="369.60768" xlink:href="#mac5c73423e" y="100.172673"/>
    </g>
   </g>
   <g id="line2d_57">
    <path d="M 338.688 30.334099 
L 369.60768 35.706297 
" style="fill:none;stroke:#00bfbf;stroke-linecap:square;stroke-width:1.5;"/>
    <g>
     <use style="fill-opacity:0;stroke:#00bfbf;stroke-width:1.5;" x="338.688" xlink:href="#m75eb079089" y="30.334099"/>
     <use style="fill-opacity:0;stroke:#00bfbf;stroke-width:1.5;" x="369.60768" xlink:href="#m75eb079089" y="35.706297"/>
    </g>
   </g>
   <g id="line2d_58">
    <path d="M 338.688 298.944 
L 338.688 30.334099 
" style="fill:none;stroke:#000000;stroke-linecap:square;stroke-width:1.5;"/>
   </g>
   <g id="patch_3">
    <path d="M 57.6 298.944 
L 57.6 27.648 
" style="fill:none;stroke:#000000;stroke-linecap:square;stroke-linejoin:miter;stroke-width:0.8;"/>
   </g>
   <g id="patch_4">
    <path d="M 338.688 298.944 
L 338.688 27.648 
" style="fill:none;stroke:#000000;stroke-linecap:square;stroke-linejoin:miter;stroke-width:0.8;"/>
   </g>
   <g id="patch_5">
    <path d="M 57.6 298.944 
L 338.688 298.944 
" style="fill:none;stroke:#000000;stroke-linecap:square;stroke-linejoin:miter;stroke-width:0.8;"/>
   </g>
   <g id="patch_6">
    <path d="M 57.6 27.648 
L 338.688 27.648 
" style="fill:none;stroke:#000000;stroke-linecap:square;stroke-linejoin:miter;stroke-width:0.8;"/>
   </g>
   <g id="text_13">
    <!-- 20-D -->
    <g transform="translate(375.22944 298.262739)scale(0.17 -0.17)">
     <defs>
      <path d="M 1259 4147 
L 1259 519 
L 2022 519 
Q 2988 519 3436 956 
Q 3884 1394 3884 2338 
Q 3884 3275 3436 3711 
Q 2988 4147 2022 4147 
L 1259 4147 
z
M 628 4666 
L 1925 4666 
Q 3281 4666 3915 4102 
Q 4550 3538 4550 2338 
Q 4550 1131 3912 565 
Q 3275 0 1925 0 
L 628 0 
L 628 4666 
z
" id="DejaVuSans-44" transform="scale(0.015625)"/>
     </defs>
     <use xlink:href="#DejaVuSans-32"/>
     <use x="63.623047" xlink:href="#DejaVuSans-30"/>
     <use x="127.246094" xlink:href="#DejaVuSans-2d"/>
     <use x="163.330078" xlink:href="#DejaVuSans-44"/>
    </g>
   </g>
   <g id="text_14">
    <!-- 10-D -->
    <g transform="translate(375.22944 233.796363)scale(0.17 -0.17)">
     <use xlink:href="#DejaVuSans-31"/>
     <use x="63.623047" xlink:href="#DejaVuSans-30"/>
     <use x="127.246094" xlink:href="#DejaVuSans-2d"/>
     <use x="163.330078" xlink:href="#DejaVuSans-44"/>
    </g>
   </g>
   <g id="text_15">
    <!-- 5-D -->
    <g transform="translate(375.22944 169.329987)scale(0.17 -0.17)">
     <defs>
      <path d="M 691 4666 
L 3169 4666 
L 3169 4134 
L 1269 4134 
L 1269 2991 
Q 1406 3038 1543 3061 
Q 1681 3084 1819 3084 
Q 2600 3084 3056 2656 
Q 3513 2228 3513 1497 
Q 3513 744 3044 326 
Q 2575 -91 1722 -91 
Q 1428 -91 1123 -41 
Q 819 9 494 109 
L 494 744 
Q 775 591 1075 516 
Q 1375 441 1709 441 
Q 2250 441 2565 725 
Q 2881 1009 2881 1497 
Q 2881 1984 2565 2268 
Q 2250 2553 1709 2553 
Q 1456 2553 1204 2497 
Q 953 2441 691 2322 
L 691 4666 
z
" id="DejaVuSans-35" transform="scale(0.015625)"/>
     </defs>
     <use xlink:href="#DejaVuSans-35"/>
     <use x="63.623047" xlink:href="#DejaVuSans-2d"/>
     <use x="99.707031" xlink:href="#DejaVuSans-44"/>
    </g>
   </g>
   <g id="text_16">
    <!-- 3-D -->
    <g transform="translate(375.22944 104.863611)scale(0.17 -0.17)">
     <defs>
      <path d="M 2597 2516 
Q 3050 2419 3304 2112 
Q 3559 1806 3559 1356 
Q 3559 666 3084 287 
Q 2609 -91 1734 -91 
Q 1441 -91 1130 -33 
Q 819 25 488 141 
L 488 750 
Q 750 597 1062 519 
Q 1375 441 1716 441 
Q 2309 441 2620 675 
Q 2931 909 2931 1356 
Q 2931 1769 2642 2001 
Q 2353 2234 1838 2234 
L 1294 2234 
L 1294 2753 
L 1863 2753 
Q 2328 2753 2575 2939 
Q 2822 3125 2822 3475 
Q 2822 3834 2567 4026 
Q 2313 4219 1838 4219 
Q 1578 4219 1281 4162 
Q 984 4106 628 3988 
L 628 4550 
Q 988 4650 1302 4700 
Q 1616 4750 1894 4750 
Q 2613 4750 3031 4423 
Q 3450 4097 3450 3541 
Q 3450 3153 3228 2886 
Q 3006 2619 2597 2516 
z
" id="DejaVuSans-33" transform="scale(0.015625)"/>
     </defs>
     <use xlink:href="#DejaVuSans-33"/>
     <use x="63.623047" xlink:href="#DejaVuSans-2d"/>
     <use x="99.707031" xlink:href="#DejaVuSans-44"/>
    </g>
   </g>
   <g id="text_17">
    <!-- 2-D -->
    <g transform="translate(375.22944 40.397235)scale(0.17 -0.17)">
     <use xlink:href="#DejaVuSans-32"/>
     <use x="63.623047" xlink:href="#DejaVuSans-2d"/>
     <use x="99.707031" xlink:href="#DejaVuSans-44"/>
    </g>
   </g>
   <g id="text_18">
    <!-- bbob f19 -->
    <g transform="translate(60.41088 38.111366)scale(0.102 -0.102)">
     <defs>
      <path d="M 3116 1747 
Q 3116 2381 2855 2742 
Q 2594 3103 2138 3103 
Q 1681 3103 1420 2742 
Q 1159 2381 1159 1747 
Q 1159 1113 1420 752 
Q 1681 391 2138 391 
Q 2594 391 2855 752 
Q 3116 1113 3116 1747 
z
M 1159 2969 
Q 1341 3281 1617 3432 
Q 1894 3584 2278 3584 
Q 2916 3584 3314 3078 
Q 3713 2572 3713 1747 
Q 3713 922 3314 415 
Q 2916 -91 2278 -91 
Q 1894 -91 1617 61 
Q 1341 213 1159 525 
L 1159 0 
L 581 0 
L 581 4863 
L 1159 4863 
L 1159 2969 
z
" id="DejaVuSans-62" transform="scale(0.015625)"/>
      <path d="M 703 97 
L 703 672 
Q 941 559 1184 500 
Q 1428 441 1663 441 
Q 2288 441 2617 861 
Q 2947 1281 2994 2138 
Q 2813 1869 2534 1725 
Q 2256 1581 1919 1581 
Q 1219 1581 811 2004 
Q 403 2428 403 3163 
Q 403 3881 828 4315 
Q 1253 4750 1959 4750 
Q 2769 4750 3195 4129 
Q 3622 3509 3622 2328 
Q 3622 1225 3098 567 
Q 2575 -91 1691 -91 
Q 1453 -91 1209 -44 
Q 966 3 703 97 
z
M 1959 2075 
Q 2384 2075 2632 2365 
Q 2881 2656 2881 3163 
Q 2881 3666 2632 3958 
Q 2384 4250 1959 4250 
Q 1534 4250 1286 3958 
Q 1038 3666 1038 3163 
Q 1038 2656 1286 2365 
Q 1534 2075 1959 2075 
z
" id="DejaVuSans-39" transform="scale(0.015625)"/>
     </defs>
     <use xlink:href="#DejaVuSans-62"/>
     <use x="63.476562" xlink:href="#DejaVuSans-62"/>
     <use x="126.953125" xlink:href="#DejaVuSans-6f"/>
     <use x="188.134766" xlink:href="#DejaVuSans-62"/>
     <use x="251.611328" xlink:href="#DejaVuSans-20"/>
     <use x="283.398438" xlink:href="#DejaVuSans-66"/>
     <use x="318.603516" xlink:href="#DejaVuSans-31"/>
     <use x="382.226562" xlink:href="#DejaVuSans-39"/>
    </g>
    <!-- 51 targets: 100..1e-08 -->
    <g transform="translate(60.41088 49.533135)scale(0.102 -0.102)">
     <defs>
      <path d="M 750 794 
L 1409 794 
L 1409 0 
L 750 0 
L 750 794 
z
M 750 3309 
L 1409 3309 
L 1409 2516 
L 750 2516 
L 750 3309 
z
" id="DejaVuSans-3a" transform="scale(0.015625)"/>
     </defs>
     <use xlink:href="#DejaVuSans-35"/>
     <use x="63.623047" xlink:href="#DejaVuSans-31"/>
     <use x="127.246094" xlink:href="#DejaVuSans-20"/>
     <use x="159.033203" xlink:href="#DejaVuSans-74"/>
     <use x="198.242188" xlink:href="#DejaVuSans-61"/>
     <use x="259.521484" xlink:href="#DejaVuSans-72"/>
     <use x="298.884766" xlink:href="#DejaVuSans-67"/>
     <use x="362.361328" xlink:href="#DejaVuSans-65"/>
     <use x="423.884766" xlink:href="#DejaVuSans-74"/>
     <use x="463.09375" xlink:href="#DejaVuSans-73"/>
     <use x="515.193359" xlink:href="#DejaVuSans-3a"/>
     <use x="548.884766" xlink:href="#DejaVuSans-20"/>
     <use x="580.671875" xlink:href="#DejaVuSans-31"/>
     <use x="644.294922" xlink:href="#DejaVuSans-30"/>
     <use x="707.917969" xlink:href="#DejaVuSans-30"/>
     <use x="771.541016" xlink:href="#DejaVuSans-2e"/>
     <use x="803.328125" xlink:href="#DejaVuSans-2e"/>
     <use x="835.115234" xlink:href="#DejaVuSans-31"/>
     <use x="898.738281" xlink:href="#DejaVuSans-65"/>
     <use x="960.261719" xlink:href="#DejaVuSans-2d"/>
     <use x="996.345703" xlink:href="#DejaVuSans-30"/>
     <use x="1059.96875" xlink:href="#DejaVuSans-38"/>
    </g>
    <!-- 15 instances -->
    <g transform="translate(60.41088 60.954904)scale(0.102 -0.102)">
     <use xlink:href="#DejaVuSans-31"/>
     <use x="63.623047" xlink:href="#DejaVuSans-35"/>
     <use x="127.246094" xlink:href="#DejaVuSans-20"/>
     <use x="159.033203" xlink:href="#DejaVuSans-69"/>
     <use x="186.816406" xlink:href="#DejaVuSans-6e"/>
     <use x="250.195312" xlink:href="#DejaVuSans-73"/>
     <use x="302.294922" xlink:href="#DejaVuSans-74"/>
     <use x="341.503906" xlink:href="#DejaVuSans-61"/>
     <use x="402.783203" xlink:href="#DejaVuSans-6e"/>
     <use x="466.162109" xlink:href="#DejaVuSans-63"/>
     <use x="521.142578" xlink:href="#DejaVuSans-65"/>
     <use x="582.666016" xlink:href="#DejaVuSans-73"/>
    </g>
   </g>
   <g id="text_19">
    <!-- v2.4 -->
    <g style="fill:#808080;" transform="translate(187.233062 294.151352)scale(0.1 -0.1)">
     <use xlink:href="#DejaVuSans-76"/>
     <use x="59.179688" xlink:href="#DejaVuSans-32"/>
     <use x="122.802734" xlink:href="#DejaVuSans-2e"/>
     <use x="154.589844" xlink:href="#DejaVuSans-34"/>
    </g>
   </g>
   <g id="text_20">
    <!-- 19 Griewank-Rosenbrock F8F2 -->
    <g transform="translate(46.042437 21.648)scale(0.2 -0.2)">
     <defs>
      <path d="M 3809 666 
L 3809 1919 
L 2778 1919 
L 2778 2438 
L 4434 2438 
L 4434 434 
Q 4069 175 3628 42 
Q 3188 -91 2688 -91 
Q 1594 -91 976 548 
Q 359 1188 359 2328 
Q 359 3472 976 4111 
Q 1594 4750 2688 4750 
Q 3144 4750 3555 4637 
Q 3966 4525 4313 4306 
L 4313 3634 
Q 3963 3931 3569 4081 
Q 3175 4231 2741 4231 
Q 1884 4231 1454 3753 
Q 1025 3275 1025 2328 
Q 1025 1384 1454 906 
Q 1884 428 2741 428 
Q 3075 428 3337 486 
Q 3600 544 3809 666 
z
" id="DejaVuSans-47" transform="scale(0.015625)"/>
      <path d="M 269 3500 
L 844 3500 
L 1563 769 
L 2278 3500 
L 2956 3500 
L 3675 769 
L 4391 3500 
L 4966 3500 
L 4050 0 
L 3372 0 
L 2619 2869 
L 1863 0 
L 1184 0 
L 269 3500 
z
" id="DejaVuSans-77" transform="scale(0.015625)"/>
      <path d="M 581 4863 
L 1159 4863 
L 1159 1991 
L 2875 3500 
L 3609 3500 
L 1753 1863 
L 3688 0 
L 2938 0 
L 1159 1709 
L 1159 0 
L 581 0 
L 581 4863 
z
" id="DejaVuSans-6b" transform="scale(0.015625)"/>
      <path d="M 2841 2188 
Q 3044 2119 3236 1894 
Q 3428 1669 3622 1275 
L 4263 0 
L 3584 0 
L 2988 1197 
Q 2756 1666 2539 1819 
Q 2322 1972 1947 1972 
L 1259 1972 
L 1259 0 
L 628 0 
L 628 4666 
L 2053 4666 
Q 2853 4666 3247 4331 
Q 3641 3997 3641 3322 
Q 3641 2881 3436 2590 
Q 3231 2300 2841 2188 
z
M 1259 4147 
L 1259 2491 
L 2053 2491 
Q 2509 2491 2742 2702 
Q 2975 2913 2975 3322 
Q 2975 3731 2742 3939 
Q 2509 4147 2053 4147 
L 1259 4147 
z
" id="DejaVuSans-52" transform="scale(0.015625)"/>
     </defs>
     <use xlink:href="#DejaVuSans-31"/>
     <use x="63.623047" xlink:href="#DejaVuSans-39"/>
     <use x="127.246094" xlink:href="#DejaVuSans-20"/>
     <use x="159.033203" xlink:href="#DejaVuSans-47"/>
     <use x="236.523438" xlink:href="#DejaVuSans-72"/>
     <use x="277.636719" xlink:href="#DejaVuSans-69"/>
     <use x="305.419922" xlink:href="#DejaVuSans-65"/>
     <use x="366.943359" xlink:href="#DejaVuSans-77"/>
     <use x="448.730469" xlink:href="#DejaVuSans-61"/>
     <use x="510.009766" xlink:href="#DejaVuSans-6e"/>
     <use x="573.388672" xlink:href="#DejaVuSans-6b"/>
     <use x="631.298828" xlink:href="#DejaVuSans-2d"/>
     <use x="667.382812" xlink:href="#DejaVuSans-52"/>
     <use x="732.365234" xlink:href="#DejaVuSans-6f"/>
     <use x="793.546875" xlink:href="#DejaVuSans-73"/>
     <use x="845.646484" xlink:href="#DejaVuSans-65"/>
     <use x="907.169922" xlink:href="#DejaVuSans-6e"/>
     <use x="970.548828" xlink:href="#DejaVuSans-62"/>
     <use x="1034.025391" xlink:href="#DejaVuSans-72"/>
     <use x="1072.888672" xlink:href="#DejaVuSans-6f"/>
     <use x="1134.070312" xlink:href="#DejaVuSans-63"/>
     <use x="1189.050781" xlink:href="#DejaVuSans-6b"/>
     <use x="1246.960938" xlink:href="#DejaVuSans-20"/>
     <use x="1278.748047" xlink:href="#DejaVuSans-46"/>
     <use x="1336.267578" xlink:href="#DejaVuSans-38"/>
     <use x="1399.890625" xlink:href="#DejaVuSans-46"/>
     <use x="1457.410156" xlink:href="#DejaVuSans-32"/>
    </g>
   </g>
  </g>
 </g>
 <defs>
  <clipPath id="p8e0802bdc9">
   <rect height="271.296" width="281.088" x="57.6" y="27.648"/>
  </clipPath>
 </defs>
</svg>
