<?xml version="1.0" encoding="utf-8" standalone="no"?>
<!DOCTYPE svg PUBLIC "-//W3C//DTD SVG 1.1//EN"
  "http://www.w3.org/Graphics/SVG/1.1/DTD/svg11.dtd">
<svg height="345.6pt" version="1.1" viewBox="0 0 460.8 345.6" width="460.8pt" xmlns="http://www.w3.org/2000/svg" xmlns:xlink="http://www.w3.org/1999/xlink">
 <metadata>
  <rdf:RDF xmlns:cc="http://creativecommons.org/ns#" xmlns:dc="http://purl.org/dc/elements/1.1/" xmlns:rdf="http://www.w3.org/1999/02/22-rdf-syntax-ns#">
   <cc:Work>
    <dc:type rdf:resource="http://purl.org/dc/dcmitype/StillImage"/>
    <dc:date>2021-07-27T16:03:45.965640</dc:date>
    <dc:format>image/svg+xml</dc:format>
    <dc:creator>
     <cc:Agent>
      <dc:title>Matplotlib v3.4.2, https://matplotlib.org/</dc:title>
     </cc:Agent>
    </dc:creator>
   </cc:Work>
  </rdf:RDF>
 </metadata>
 <defs>
  <style type="text/css">*{stroke-linecap:butt;stroke-linejoin:round;}</style>
 </defs>
 <g id="figure_1">
  <g id="patch_1">
   <path d="M 0 345.6 
L 460.8 345.6 
L 460.8 0 
L 0 0 
z
" style="fill:#ffffff;"/>
  </g>
  <g id="axes_1">
   <g id="patch_2">
    <path d="M 57.6 298.944 
L 338.688 298.944 
L 338.688 27.648 
L 57.6 27.648 
z
" style="fill:#ffffff;"/>
   </g>
   <g id="matplotlib.axis_1">
    <g id="xtick_1">
     <g id="line2d_1">
      <path clip-path="url(#peb37e546ab)" d="M 57.6 298.944 
L 57.6 27.648 
" style="fill:none;stroke:#b0b0b0;stroke-linecap:square;stroke-width:0.8;"/>
     </g>
     <g id="line2d_2">
      <defs>
       <path d="M 0 0 
L 0 3.5 
" id="m99d32708bb" style="stroke:#000000;stroke-width:0.8;"/>
      </defs>
      <g>
       <use style="stroke:#000000;stroke-width:0.8;" x="57.6" xlink:href="#m99d32708bb" y="298.944"/>
      </g>
     </g>
     <g id="text_1">
      <!-- 0 -->
      <g transform="translate(51.2375 321.140875)scale(0.2 -0.2)">
       <defs>
        <path d="M 2034 4250 
Q 1547 4250 1301 3770 
Q 1056 3291 1056 2328 
Q 1056 1369 1301 889 
Q 1547 409 2034 409 
Q 2525 409 2770 889 
Q 3016 1369 3016 2328 
Q 3016 3291 2770 3770 
Q 2525 4250 2034 4250 
z
M 2034 4750 
Q 2819 4750 3233 4129 
Q 3647 3509 3647 2328 
Q 3647 1150 3233 529 
Q 2819 -91 2034 -91 
Q 1250 -91 836 529 
Q 422 1150 422 2328 
Q 422 3509 836 4129 
Q 1250 4750 2034 4750 
z
" id="DejaVuSans-30" transform="scale(0.015625)"/>
       </defs>
       <use xlink:href="#DejaVuSans-30"/>
      </g>
     </g>
    </g>
    <g id="xtick_2">
     <g id="line2d_3">
      <path clip-path="url(#peb37e546ab)" d="M 137.910857 298.944 
L 137.910857 27.648 
" style="fill:none;stroke:#b0b0b0;stroke-linecap:square;stroke-width:0.8;"/>
     </g>
     <g id="line2d_4">
      <g>
       <use style="stroke:#000000;stroke-width:0.8;" x="137.910857" xlink:href="#m99d32708bb" y="298.944"/>
      </g>
     </g>
     <g id="text_2">
      <!-- 2 -->
      <g transform="translate(131.548357 321.140875)scale(0.2 -0.2)">
       <defs>
        <path d="M 1228 531 
L 3431 531 
L 3431 0 
L 469 0 
L 469 531 
Q 828 903 1448 1529 
Q 2069 2156 2228 2338 
Q 2531 2678 2651 2914 
Q 2772 3150 2772 3378 
Q 2772 3750 2511 3984 
Q 2250 4219 1831 4219 
Q 1534 4219 1204 4116 
Q 875 4013 500 3803 
L 500 4441 
Q 881 4594 1212 4672 
Q 1544 4750 1819 4750 
Q 2544 4750 2975 4387 
Q 3406 4025 3406 3419 
Q 3406 3131 3298 2873 
Q 3191 2616 2906 2266 
Q 2828 2175 2409 1742 
Q 1991 1309 1228 531 
z
" id="DejaVuSans-32" transform="scale(0.015625)"/>
       </defs>
       <use xlink:href="#DejaVuSans-32"/>
      </g>
     </g>
    </g>
    <g id="xtick_3">
     <g id="line2d_5">
      <path clip-path="url(#peb37e546ab)" d="M 218.221714 298.944 
L 218.221714 27.648 
" style="fill:none;stroke:#b0b0b0;stroke-linecap:square;stroke-width:0.8;"/>
     </g>
     <g id="line2d_6">
      <g>
       <use style="stroke:#000000;stroke-width:0.8;" x="218.221714" xlink:href="#m99d32708bb" y="298.944"/>
      </g>
     </g>
     <g id="text_3">
      <!-- 4 -->
      <g transform="translate(211.859214 321.140875)scale(0.2 -0.2)">
       <defs>
        <path d="M 2419 4116 
L 825 1625 
L 2419 1625 
L 2419 4116 
z
M 2253 4666 
L 3047 4666 
L 3047 1625 
L 3713 1625 
L 3713 1100 
L 3047 1100 
L 3047 0 
L 2419 0 
L 2419 1100 
L 313 1100 
L 313 1709 
L 2253 4666 
z
" id="DejaVuSans-34" transform="scale(0.015625)"/>
       </defs>
       <use xlink:href="#DejaVuSans-34"/>
      </g>
     </g>
    </g>
    <g id="xtick_4">
     <g id="line2d_7">
      <path clip-path="url(#peb37e546ab)" d="M 298.532571 298.944 
L 298.532571 27.648 
" style="fill:none;stroke:#b0b0b0;stroke-linecap:square;stroke-width:0.8;"/>
     </g>
     <g id="line2d_8">
      <g>
       <use style="stroke:#000000;stroke-width:0.8;" x="298.532571" xlink:href="#m99d32708bb" y="298.944"/>
      </g>
     </g>
     <g id="text_4">
      <!-- 6 -->
      <g transform="translate(292.170071 321.140875)scale(0.2 -0.2)">
       <defs>
        <path d="M 2113 2584 
Q 1688 2584 1439 2293 
Q 1191 2003 1191 1497 
Q 1191 994 1439 701 
Q 1688 409 2113 409 
Q 2538 409 2786 701 
Q 3034 994 3034 1497 
Q 3034 2003 2786 2293 
Q 2538 2584 2113 2584 
z
M 3366 4563 
L 3366 3988 
Q 3128 4100 2886 4159 
Q 2644 4219 2406 4219 
Q 1781 4219 1451 3797 
Q 1122 3375 1075 2522 
Q 1259 2794 1537 2939 
Q 1816 3084 2150 3084 
Q 2853 3084 3261 2657 
Q 3669 2231 3669 1497 
Q 3669 778 3244 343 
Q 2819 -91 2113 -91 
Q 1303 -91 875 529 
Q 447 1150 447 2328 
Q 447 3434 972 4092 
Q 1497 4750 2381 4750 
Q 2619 4750 2861 4703 
Q 3103 4656 3366 4563 
z
" id="DejaVuSans-36" transform="scale(0.015625)"/>
       </defs>
       <use xlink:href="#DejaVuSans-36"/>
      </g>
     </g>
    </g>
    <g id="xtick_5">
     <g id="line2d_9">
      <path clip-path="url(#peb37e546ab)" d="M 97.755429 298.944 
L 97.755429 27.648 
" style="fill:none;stroke:#b0b0b0;stroke-linecap:square;stroke-width:0.8;"/>
     </g>
     <g id="line2d_10">
      <defs>
       <path d="M 0 0 
L 0 2 
" id="m703ba7f0d0" style="stroke:#000000;stroke-width:0.6;"/>
      </defs>
      <g>
       <use style="stroke:#000000;stroke-width:0.6;" x="97.755429" xlink:href="#m703ba7f0d0" y="298.944"/>
      </g>
     </g>
    </g>
    <g id="xtick_6">
     <g id="line2d_11">
      <path clip-path="url(#peb37e546ab)" d="M 178.066286 298.944 
L 178.066286 27.648 
" style="fill:none;stroke:#b0b0b0;stroke-linecap:square;stroke-width:0.8;"/>
     </g>
     <g id="line2d_12">
      <g>
       <use style="stroke:#000000;stroke-width:0.6;" x="178.066286" xlink:href="#m703ba7f0d0" y="298.944"/>
      </g>
     </g>
    </g>
    <g id="xtick_7">
     <g id="line2d_13">
      <path clip-path="url(#peb37e546ab)" d="M 258.377143 298.944 
L 258.377143 27.648 
" style="fill:none;stroke:#b0b0b0;stroke-linecap:square;stroke-width:0.8;"/>
     </g>
     <g id="line2d_14">
      <g>
       <use style="stroke:#000000;stroke-width:0.6;" x="258.377143" xlink:href="#m703ba7f0d0" y="298.944"/>
      </g>
     </g>
    </g>
    <g id="xtick_8">
     <g id="line2d_15">
      <path clip-path="url(#peb37e546ab)" d="M 338.688 298.944 
L 338.688 27.648 
" style="fill:none;stroke:#b0b0b0;stroke-linecap:square;stroke-width:0.8;"/>
     </g>
     <g id="line2d_16">
      <g>
       <use style="stroke:#000000;stroke-width:0.6;" x="338.688" xlink:href="#m703ba7f0d0" y="298.944"/>
      </g>
     </g>
    </g>
    <g id="text_5">
     <!-- log10(# f-evals / dimension) -->
     <g transform="translate(77.764078 342.217594)scale(0.17 -0.17)">
      <defs>
       <path d="M 603 4863 
L 1178 4863 
L 1178 0 
L 603 0 
L 603 4863 
z
" id="DejaVuSans-6c" transform="scale(0.015625)"/>
       <path d="M 1959 3097 
Q 1497 3097 1228 2736 
Q 959 2375 959 1747 
Q 959 1119 1226 758 
Q 1494 397 1959 397 
Q 2419 397 2687 759 
Q 2956 1122 2956 1747 
Q 2956 2369 2687 2733 
Q 2419 3097 1959 3097 
z
M 1959 3584 
Q 2709 3584 3137 3096 
Q 3566 2609 3566 1747 
Q 3566 888 3137 398 
Q 2709 -91 1959 -91 
Q 1206 -91 779 398 
Q 353 888 353 1747 
Q 353 2609 779 3096 
Q 1206 3584 1959 3584 
z
" id="DejaVuSans-6f" transform="scale(0.015625)"/>
       <path d="M 2906 1791 
Q 2906 2416 2648 2759 
Q 2391 3103 1925 3103 
Q 1463 3103 1205 2759 
Q 947 2416 947 1791 
Q 947 1169 1205 825 
Q 1463 481 1925 481 
Q 2391 481 2648 825 
Q 2906 1169 2906 1791 
z
M 3481 434 
Q 3481 -459 3084 -895 
Q 2688 -1331 1869 -1331 
Q 1566 -1331 1297 -1286 
Q 1028 -1241 775 -1147 
L 775 -588 
Q 1028 -725 1275 -790 
Q 1522 -856 1778 -856 
Q 2344 -856 2625 -561 
Q 2906 -266 2906 331 
L 2906 616 
Q 2728 306 2450 153 
Q 2172 0 1784 0 
Q 1141 0 747 490 
Q 353 981 353 1791 
Q 353 2603 747 3093 
Q 1141 3584 1784 3584 
Q 2172 3584 2450 3431 
Q 2728 3278 2906 2969 
L 2906 3500 
L 3481 3500 
L 3481 434 
z
" id="DejaVuSans-67" transform="scale(0.015625)"/>
       <path d="M 794 531 
L 1825 531 
L 1825 4091 
L 703 3866 
L 703 4441 
L 1819 4666 
L 2450 4666 
L 2450 531 
L 3481 531 
L 3481 0 
L 794 0 
L 794 531 
z
" id="DejaVuSans-31" transform="scale(0.015625)"/>
       <path d="M 1984 4856 
Q 1566 4138 1362 3434 
Q 1159 2731 1159 2009 
Q 1159 1288 1364 580 
Q 1569 -128 1984 -844 
L 1484 -844 
Q 1016 -109 783 600 
Q 550 1309 550 2009 
Q 550 2706 781 3412 
Q 1013 4119 1484 4856 
L 1984 4856 
z
" id="DejaVuSans-28" transform="scale(0.015625)"/>
       <path d="M 3272 2816 
L 2363 2816 
L 2100 1772 
L 3016 1772 
L 3272 2816 
z
M 2803 4594 
L 2478 3297 
L 3391 3297 
L 3719 4594 
L 4219 4594 
L 3897 3297 
L 4872 3297 
L 4872 2816 
L 3775 2816 
L 3519 1772 
L 4513 1772 
L 4513 1294 
L 3397 1294 
L 3072 0 
L 2572 0 
L 2894 1294 
L 1978 1294 
L 1656 0 
L 1153 0 
L 1478 1294 
L 494 1294 
L 494 1772 
L 1594 1772 
L 1856 2816 
L 850 2816 
L 850 3297 
L 1978 3297 
L 2297 4594 
L 2803 4594 
z
" id="DejaVuSans-23" transform="scale(0.015625)"/>
       <path id="DejaVuSans-20" transform="scale(0.015625)"/>
       <path d="M 2375 4863 
L 2375 4384 
L 1825 4384 
Q 1516 4384 1395 4259 
Q 1275 4134 1275 3809 
L 1275 3500 
L 2222 3500 
L 2222 3053 
L 1275 3053 
L 1275 0 
L 697 0 
L 697 3053 
L 147 3053 
L 147 3500 
L 697 3500 
L 697 3744 
Q 697 4328 969 4595 
Q 1241 4863 1831 4863 
L 2375 4863 
z
" id="DejaVuSans-66" transform="scale(0.015625)"/>
       <path d="M 313 2009 
L 1997 2009 
L 1997 1497 
L 313 1497 
L 313 2009 
z
" id="DejaVuSans-2d" transform="scale(0.015625)"/>
       <path d="M 3597 1894 
L 3597 1613 
L 953 1613 
Q 991 1019 1311 708 
Q 1631 397 2203 397 
Q 2534 397 2845 478 
Q 3156 559 3463 722 
L 3463 178 
Q 3153 47 2828 -22 
Q 2503 -91 2169 -91 
Q 1331 -91 842 396 
Q 353 884 353 1716 
Q 353 2575 817 3079 
Q 1281 3584 2069 3584 
Q 2775 3584 3186 3129 
Q 3597 2675 3597 1894 
z
M 3022 2063 
Q 3016 2534 2758 2815 
Q 2500 3097 2075 3097 
Q 1594 3097 1305 2825 
Q 1016 2553 972 2059 
L 3022 2063 
z
" id="DejaVuSans-65" transform="scale(0.015625)"/>
       <path d="M 191 3500 
L 800 3500 
L 1894 563 
L 2988 3500 
L 3597 3500 
L 2284 0 
L 1503 0 
L 191 3500 
z
" id="DejaVuSans-76" transform="scale(0.015625)"/>
       <path d="M 2194 1759 
Q 1497 1759 1228 1600 
Q 959 1441 959 1056 
Q 959 750 1161 570 
Q 1363 391 1709 391 
Q 2188 391 2477 730 
Q 2766 1069 2766 1631 
L 2766 1759 
L 2194 1759 
z
M 3341 1997 
L 3341 0 
L 2766 0 
L 2766 531 
Q 2569 213 2275 61 
Q 1981 -91 1556 -91 
Q 1019 -91 701 211 
Q 384 513 384 1019 
Q 384 1609 779 1909 
Q 1175 2209 1959 2209 
L 2766 2209 
L 2766 2266 
Q 2766 2663 2505 2880 
Q 2244 3097 1772 3097 
Q 1472 3097 1187 3025 
Q 903 2953 641 2809 
L 641 3341 
Q 956 3463 1253 3523 
Q 1550 3584 1831 3584 
Q 2591 3584 2966 3190 
Q 3341 2797 3341 1997 
z
" id="DejaVuSans-61" transform="scale(0.015625)"/>
       <path d="M 2834 3397 
L 2834 2853 
Q 2591 2978 2328 3040 
Q 2066 3103 1784 3103 
Q 1356 3103 1142 2972 
Q 928 2841 928 2578 
Q 928 2378 1081 2264 
Q 1234 2150 1697 2047 
L 1894 2003 
Q 2506 1872 2764 1633 
Q 3022 1394 3022 966 
Q 3022 478 2636 193 
Q 2250 -91 1575 -91 
Q 1294 -91 989 -36 
Q 684 19 347 128 
L 347 722 
Q 666 556 975 473 
Q 1284 391 1588 391 
Q 1994 391 2212 530 
Q 2431 669 2431 922 
Q 2431 1156 2273 1281 
Q 2116 1406 1581 1522 
L 1381 1569 
Q 847 1681 609 1914 
Q 372 2147 372 2553 
Q 372 3047 722 3315 
Q 1072 3584 1716 3584 
Q 2034 3584 2315 3537 
Q 2597 3491 2834 3397 
z
" id="DejaVuSans-73" transform="scale(0.015625)"/>
       <path d="M 1625 4666 
L 2156 4666 
L 531 -594 
L 0 -594 
L 1625 4666 
z
" id="DejaVuSans-2f" transform="scale(0.015625)"/>
       <path d="M 2906 2969 
L 2906 4863 
L 3481 4863 
L 3481 0 
L 2906 0 
L 2906 525 
Q 2725 213 2448 61 
Q 2172 -91 1784 -91 
Q 1150 -91 751 415 
Q 353 922 353 1747 
Q 353 2572 751 3078 
Q 1150 3584 1784 3584 
Q 2172 3584 2448 3432 
Q 2725 3281 2906 2969 
z
M 947 1747 
Q 947 1113 1208 752 
Q 1469 391 1925 391 
Q 2381 391 2643 752 
Q 2906 1113 2906 1747 
Q 2906 2381 2643 2742 
Q 2381 3103 1925 3103 
Q 1469 3103 1208 2742 
Q 947 2381 947 1747 
z
" id="DejaVuSans-64" transform="scale(0.015625)"/>
       <path d="M 603 3500 
L 1178 3500 
L 1178 0 
L 603 0 
L 603 3500 
z
M 603 4863 
L 1178 4863 
L 1178 4134 
L 603 4134 
L 603 4863 
z
" id="DejaVuSans-69" transform="scale(0.015625)"/>
       <path d="M 3328 2828 
Q 3544 3216 3844 3400 
Q 4144 3584 4550 3584 
Q 5097 3584 5394 3201 
Q 5691 2819 5691 2113 
L 5691 0 
L 5113 0 
L 5113 2094 
Q 5113 2597 4934 2840 
Q 4756 3084 4391 3084 
Q 3944 3084 3684 2787 
Q 3425 2491 3425 1978 
L 3425 0 
L 2847 0 
L 2847 2094 
Q 2847 2600 2669 2842 
Q 2491 3084 2119 3084 
Q 1678 3084 1418 2786 
Q 1159 2488 1159 1978 
L 1159 0 
L 581 0 
L 581 3500 
L 1159 3500 
L 1159 2956 
Q 1356 3278 1631 3431 
Q 1906 3584 2284 3584 
Q 2666 3584 2933 3390 
Q 3200 3197 3328 2828 
z
" id="DejaVuSans-6d" transform="scale(0.015625)"/>
       <path d="M 3513 2113 
L 3513 0 
L 2938 0 
L 2938 2094 
Q 2938 2591 2744 2837 
Q 2550 3084 2163 3084 
Q 1697 3084 1428 2787 
Q 1159 2491 1159 1978 
L 1159 0 
L 581 0 
L 581 3500 
L 1159 3500 
L 1159 2956 
Q 1366 3272 1645 3428 
Q 1925 3584 2291 3584 
Q 2894 3584 3203 3211 
Q 3513 2838 3513 2113 
z
" id="DejaVuSans-6e" transform="scale(0.015625)"/>
       <path d="M 513 4856 
L 1013 4856 
Q 1481 4119 1714 3412 
Q 1947 2706 1947 2009 
Q 1947 1309 1714 600 
Q 1481 -109 1013 -844 
L 513 -844 
Q 928 -128 1133 580 
Q 1338 1288 1338 2009 
Q 1338 2731 1133 3434 
Q 928 4138 513 4856 
z
" id="DejaVuSans-29" transform="scale(0.015625)"/>
      </defs>
      <use xlink:href="#DejaVuSans-6c"/>
      <use x="27.783203" xlink:href="#DejaVuSans-6f"/>
      <use x="88.964844" xlink:href="#DejaVuSans-67"/>
      <use x="152.441406" xlink:href="#DejaVuSans-31"/>
      <use x="216.064453" xlink:href="#DejaVuSans-30"/>
      <use x="279.6875" xlink:href="#DejaVuSans-28"/>
      <use x="318.701172" xlink:href="#DejaVuSans-23"/>
      <use x="402.490234" xlink:href="#DejaVuSans-20"/>
      <use x="434.277344" xlink:href="#DejaVuSans-66"/>
      <use x="463.982422" xlink:href="#DejaVuSans-2d"/>
      <use x="500.066406" xlink:href="#DejaVuSans-65"/>
      <use x="561.589844" xlink:href="#DejaVuSans-76"/>
      <use x="620.769531" xlink:href="#DejaVuSans-61"/>
      <use x="682.048828" xlink:href="#DejaVuSans-6c"/>
      <use x="709.832031" xlink:href="#DejaVuSans-73"/>
      <use x="761.931641" xlink:href="#DejaVuSans-20"/>
      <use x="793.71875" xlink:href="#DejaVuSans-2f"/>
      <use x="827.410156" xlink:href="#DejaVuSans-20"/>
      <use x="859.197266" xlink:href="#DejaVuSans-64"/>
      <use x="922.673828" xlink:href="#DejaVuSans-69"/>
      <use x="950.457031" xlink:href="#DejaVuSans-6d"/>
      <use x="1047.869141" xlink:href="#DejaVuSans-65"/>
      <use x="1109.392578" xlink:href="#DejaVuSans-6e"/>
      <use x="1172.771484" xlink:href="#DejaVuSans-73"/>
      <use x="1224.871094" xlink:href="#DejaVuSans-69"/>
      <use x="1252.654297" xlink:href="#DejaVuSans-6f"/>
      <use x="1313.835938" xlink:href="#DejaVuSans-6e"/>
      <use x="1377.214844" xlink:href="#DejaVuSans-29"/>
     </g>
    </g>
   </g>
   <g id="matplotlib.axis_2">
    <g id="ytick_1">
     <g id="line2d_17">
      <path clip-path="url(#peb37e546ab)" d="M 57.6 298.944 
L 338.688 298.944 
" style="fill:none;stroke:#b0b0b0;stroke-linecap:square;stroke-width:0.8;"/>
     </g>
     <g id="line2d_18">
      <defs>
       <path d="M 0 0 
L -3.5 0 
" id="m3a42f9af01" style="stroke:#000000;stroke-width:0.8;"/>
      </defs>
      <g>
       <use style="stroke:#000000;stroke-width:0.8;" x="57.6" xlink:href="#m3a42f9af01" y="298.944"/>
      </g>
     </g>
     <g id="text_6">
      <!-- 0.0 -->
      <g transform="translate(25.155 305.02275)scale(0.16 -0.16)">
       <defs>
        <path d="M 684 794 
L 1344 794 
L 1344 0 
L 684 0 
L 684 794 
z
" id="DejaVuSans-2e" transform="scale(0.015625)"/>
       </defs>
       <use xlink:href="#DejaVuSans-30"/>
       <use x="63.623047" xlink:href="#DejaVuSans-2e"/>
       <use x="95.410156" xlink:href="#DejaVuSans-30"/>
      </g>
     </g>
    </g>
    <g id="ytick_2">
     <g id="line2d_19">
      <path clip-path="url(#peb37e546ab)" d="M 57.6 245.22202 
L 338.688 245.22202 
" style="fill:none;stroke:#b0b0b0;stroke-linecap:square;stroke-width:0.8;"/>
     </g>
     <g id="line2d_20">
      <g>
       <use style="stroke:#000000;stroke-width:0.8;" x="57.6" xlink:href="#m3a42f9af01" y="245.22202"/>
      </g>
     </g>
     <g id="text_7">
      <!-- 0.2 -->
      <g transform="translate(25.155 251.30077)scale(0.16 -0.16)">
       <use xlink:href="#DejaVuSans-30"/>
       <use x="63.623047" xlink:href="#DejaVuSans-2e"/>
       <use x="95.410156" xlink:href="#DejaVuSans-32"/>
      </g>
     </g>
    </g>
    <g id="ytick_3">
     <g id="line2d_21">
      <path clip-path="url(#peb37e546ab)" d="M 57.6 191.50004 
L 338.688 191.50004 
" style="fill:none;stroke:#b0b0b0;stroke-linecap:square;stroke-width:0.8;"/>
     </g>
     <g id="line2d_22">
      <g>
       <use style="stroke:#000000;stroke-width:0.8;" x="57.6" xlink:href="#m3a42f9af01" y="191.50004"/>
      </g>
     </g>
     <g id="text_8">
      <!-- 0.4 -->
      <g transform="translate(25.155 197.57879)scale(0.16 -0.16)">
       <use xlink:href="#DejaVuSans-30"/>
       <use x="63.623047" xlink:href="#DejaVuSans-2e"/>
       <use x="95.410156" xlink:href="#DejaVuSans-34"/>
      </g>
     </g>
    </g>
    <g id="ytick_4">
     <g id="line2d_23">
      <path clip-path="url(#peb37e546ab)" d="M 57.6 137.778059 
L 338.688 137.778059 
" style="fill:none;stroke:#b0b0b0;stroke-linecap:square;stroke-width:0.8;"/>
     </g>
     <g id="line2d_24">
      <g>
       <use style="stroke:#000000;stroke-width:0.8;" x="57.6" xlink:href="#m3a42f9af01" y="137.778059"/>
      </g>
     </g>
     <g id="text_9">
      <!-- 0.6 -->
      <g transform="translate(25.155 143.856809)scale(0.16 -0.16)">
       <use xlink:href="#DejaVuSans-30"/>
       <use x="63.623047" xlink:href="#DejaVuSans-2e"/>
       <use x="95.410156" xlink:href="#DejaVuSans-36"/>
      </g>
     </g>
    </g>
    <g id="ytick_5">
     <g id="line2d_25">
      <path clip-path="url(#peb37e546ab)" d="M 57.6 84.056079 
L 338.688 84.056079 
" style="fill:none;stroke:#b0b0b0;stroke-linecap:square;stroke-width:0.8;"/>
     </g>
     <g id="line2d_26">
      <g>
       <use style="stroke:#000000;stroke-width:0.8;" x="57.6" xlink:href="#m3a42f9af01" y="84.056079"/>
      </g>
     </g>
     <g id="text_10">
      <!-- 0.8 -->
      <g transform="translate(25.155 90.134829)scale(0.16 -0.16)">
       <defs>
        <path d="M 2034 2216 
Q 1584 2216 1326 1975 
Q 1069 1734 1069 1313 
Q 1069 891 1326 650 
Q 1584 409 2034 409 
Q 2484 409 2743 651 
Q 3003 894 3003 1313 
Q 3003 1734 2745 1975 
Q 2488 2216 2034 2216 
z
M 1403 2484 
Q 997 2584 770 2862 
Q 544 3141 544 3541 
Q 544 4100 942 4425 
Q 1341 4750 2034 4750 
Q 2731 4750 3128 4425 
Q 3525 4100 3525 3541 
Q 3525 3141 3298 2862 
Q 3072 2584 2669 2484 
Q 3125 2378 3379 2068 
Q 3634 1759 3634 1313 
Q 3634 634 3220 271 
Q 2806 -91 2034 -91 
Q 1263 -91 848 271 
Q 434 634 434 1313 
Q 434 1759 690 2068 
Q 947 2378 1403 2484 
z
M 1172 3481 
Q 1172 3119 1398 2916 
Q 1625 2713 2034 2713 
Q 2441 2713 2670 2916 
Q 2900 3119 2900 3481 
Q 2900 3844 2670 4047 
Q 2441 4250 2034 4250 
Q 1625 4250 1398 4047 
Q 1172 3844 1172 3481 
z
" id="DejaVuSans-38" transform="scale(0.015625)"/>
       </defs>
       <use xlink:href="#DejaVuSans-30"/>
       <use x="63.623047" xlink:href="#DejaVuSans-2e"/>
       <use x="95.410156" xlink:href="#DejaVuSans-38"/>
      </g>
     </g>
    </g>
    <g id="ytick_6">
     <g id="line2d_27">
      <path clip-path="url(#peb37e546ab)" d="M 57.6 30.334099 
L 338.688 30.334099 
" style="fill:none;stroke:#b0b0b0;stroke-linecap:square;stroke-width:0.8;"/>
     </g>
     <g id="line2d_28">
      <g>
       <use style="stroke:#000000;stroke-width:0.8;" x="57.6" xlink:href="#m3a42f9af01" y="30.334099"/>
      </g>
     </g>
     <g id="text_11">
      <!-- 1.0 -->
      <g transform="translate(25.155 36.412849)scale(0.16 -0.16)">
       <use xlink:href="#DejaVuSans-31"/>
       <use x="63.623047" xlink:href="#DejaVuSans-2e"/>
       <use x="95.410156" xlink:href="#DejaVuSans-30"/>
      </g>
     </g>
    </g>
    <g id="text_12">
     <!-- Fraction of function,target pairs -->
     <g transform="translate(17.619531 297.681)rotate(-90)scale(0.17 -0.17)">
      <defs>
       <path d="M 628 4666 
L 3309 4666 
L 3309 4134 
L 1259 4134 
L 1259 2759 
L 3109 2759 
L 3109 2228 
L 1259 2228 
L 1259 0 
L 628 0 
L 628 4666 
z
" id="DejaVuSans-46" transform="scale(0.015625)"/>
       <path d="M 2631 2963 
Q 2534 3019 2420 3045 
Q 2306 3072 2169 3072 
Q 1681 3072 1420 2755 
Q 1159 2438 1159 1844 
L 1159 0 
L 581 0 
L 581 3500 
L 1159 3500 
L 1159 2956 
Q 1341 3275 1631 3429 
Q 1922 3584 2338 3584 
Q 2397 3584 2469 3576 
Q 2541 3569 2628 3553 
L 2631 2963 
z
" id="DejaVuSans-72" transform="scale(0.015625)"/>
       <path d="M 3122 3366 
L 3122 2828 
Q 2878 2963 2633 3030 
Q 2388 3097 2138 3097 
Q 1578 3097 1268 2742 
Q 959 2388 959 1747 
Q 959 1106 1268 751 
Q 1578 397 2138 397 
Q 2388 397 2633 464 
Q 2878 531 3122 666 
L 3122 134 
Q 2881 22 2623 -34 
Q 2366 -91 2075 -91 
Q 1284 -91 818 406 
Q 353 903 353 1747 
Q 353 2603 823 3093 
Q 1294 3584 2113 3584 
Q 2378 3584 2631 3529 
Q 2884 3475 3122 3366 
z
" id="DejaVuSans-63" transform="scale(0.015625)"/>
       <path d="M 1172 4494 
L 1172 3500 
L 2356 3500 
L 2356 3053 
L 1172 3053 
L 1172 1153 
Q 1172 725 1289 603 
Q 1406 481 1766 481 
L 2356 481 
L 2356 0 
L 1766 0 
Q 1100 0 847 248 
Q 594 497 594 1153 
L 594 3053 
L 172 3053 
L 172 3500 
L 594 3500 
L 594 4494 
L 1172 4494 
z
" id="DejaVuSans-74" transform="scale(0.015625)"/>
       <path d="M 544 1381 
L 544 3500 
L 1119 3500 
L 1119 1403 
Q 1119 906 1312 657 
Q 1506 409 1894 409 
Q 2359 409 2629 706 
Q 2900 1003 2900 1516 
L 2900 3500 
L 3475 3500 
L 3475 0 
L 2900 0 
L 2900 538 
Q 2691 219 2414 64 
Q 2138 -91 1772 -91 
Q 1169 -91 856 284 
Q 544 659 544 1381 
z
M 1991 3584 
L 1991 3584 
z
" id="DejaVuSans-75" transform="scale(0.015625)"/>
       <path d="M 750 794 
L 1409 794 
L 1409 256 
L 897 -744 
L 494 -744 
L 750 256 
L 750 794 
z
" id="DejaVuSans-2c" transform="scale(0.015625)"/>
       <path d="M 1159 525 
L 1159 -1331 
L 581 -1331 
L 581 3500 
L 1159 3500 
L 1159 2969 
Q 1341 3281 1617 3432 
Q 1894 3584 2278 3584 
Q 2916 3584 3314 3078 
Q 3713 2572 3713 1747 
Q 3713 922 3314 415 
Q 2916 -91 2278 -91 
Q 1894 -91 1617 61 
Q 1341 213 1159 525 
z
M 3116 1747 
Q 3116 2381 2855 2742 
Q 2594 3103 2138 3103 
Q 1681 3103 1420 2742 
Q 1159 2381 1159 1747 
Q 1159 1113 1420 752 
Q 1681 391 2138 391 
Q 2594 391 2855 752 
Q 3116 1113 3116 1747 
z
" id="DejaVuSans-70" transform="scale(0.015625)"/>
      </defs>
      <use xlink:href="#DejaVuSans-46"/>
      <use x="50.269531" xlink:href="#DejaVuSans-72"/>
      <use x="91.382812" xlink:href="#DejaVuSans-61"/>
      <use x="152.662109" xlink:href="#DejaVuSans-63"/>
      <use x="207.642578" xlink:href="#DejaVuSans-74"/>
      <use x="246.851562" xlink:href="#DejaVuSans-69"/>
      <use x="274.634766" xlink:href="#DejaVuSans-6f"/>
      <use x="335.816406" xlink:href="#DejaVuSans-6e"/>
      <use x="399.195312" xlink:href="#DejaVuSans-20"/>
      <use x="430.982422" xlink:href="#DejaVuSans-6f"/>
      <use x="492.164062" xlink:href="#DejaVuSans-66"/>
      <use x="527.369141" xlink:href="#DejaVuSans-20"/>
      <use x="559.15625" xlink:href="#DejaVuSans-66"/>
      <use x="594.361328" xlink:href="#DejaVuSans-75"/>
      <use x="657.740234" xlink:href="#DejaVuSans-6e"/>
      <use x="721.119141" xlink:href="#DejaVuSans-63"/>
      <use x="776.099609" xlink:href="#DejaVuSans-74"/>
      <use x="815.308594" xlink:href="#DejaVuSans-69"/>
      <use x="843.091797" xlink:href="#DejaVuSans-6f"/>
      <use x="904.273438" xlink:href="#DejaVuSans-6e"/>
      <use x="967.652344" xlink:href="#DejaVuSans-2c"/>
      <use x="999.439453" xlink:href="#DejaVuSans-74"/>
      <use x="1038.648438" xlink:href="#DejaVuSans-61"/>
      <use x="1099.927734" xlink:href="#DejaVuSans-72"/>
      <use x="1139.291016" xlink:href="#DejaVuSans-67"/>
      <use x="1202.767578" xlink:href="#DejaVuSans-65"/>
      <use x="1264.291016" xlink:href="#DejaVuSans-74"/>
      <use x="1303.5" xlink:href="#DejaVuSans-20"/>
      <use x="1335.287109" xlink:href="#DejaVuSans-70"/>
      <use x="1398.763672" xlink:href="#DejaVuSans-61"/>
      <use x="1460.042969" xlink:href="#DejaVuSans-69"/>
      <use x="1487.826172" xlink:href="#DejaVuSans-72"/>
      <use x="1528.939453" xlink:href="#DejaVuSans-73"/>
     </g>
    </g>
   </g>
   <g id="line2d_29">
    <defs>
     <path d="M 0 1.5 
C 0.397805 1.5 0.77937 1.341951 1.06066 1.06066 
C 1.341951 0.77937 1.5 0.397805 1.5 0 
C 1.5 -0.397805 1.341951 -0.77937 1.06066 -1.06066 
C 0.77937 -1.341951 0.397805 -1.5 0 -1.5 
C -0.397805 -1.5 -0.77937 -1.341951 -1.06066 -1.06066 
C -1.341951 -0.77937 -1.5 -0.397805 -1.5 0 
C -1.5 0.397805 -1.341951 0.77937 -1.06066 1.06066 
C -0.77937 1.341951 -0.397805 1.5 0 1.5 
z
" id="m4bcd81571c" style="stroke:#00bfbf;"/>
    </defs>
    <g>
     <use style="fill:#00bfbf;stroke:#00bfbf;" x="219.433385" xlink:href="#m4bcd81571c" y="30.334099"/>
     <use style="fill:#00bfbf;stroke:#00bfbf;" x="219.433385" xlink:href="#m4bcd81571c" y="30.334099"/>
    </g>
   </g>
   <g id="line2d_30">
    <path d="M 45.512012 298.944 
L 45.512012 288.410278 
L 57.6 288.410278 
L 57.6 286.303534 
L 64.67102 286.303534 
L 64.67102 284.723476 
L 69.687988 284.723476 
L 69.687988 284.19679 
L 73.579452 284.19679 
L 73.579452 282.090045 
L 76.759008 282.090045 
L 76.759008 281.563359 
L 79.447285 281.563359 
L 79.447285 281.036673 
L 83.830028 281.036673 
L 83.830028 279.983301 
L 85.66744 279.983301 
L 85.66744 278.403243 
L 90.242884 278.403243 
L 90.242884 277.876557 
L 97.755429 277.876557 
L 97.755429 276.823185 
L 98.606294 276.823185 
L 98.606294 275.243126 
L 99.41757 275.243126 
L 99.41757 274.71644 
L 100.192776 274.71644 
L 100.192776 274.189754 
L 105.398279 274.189754 
L 105.398279 273.663068 
L 108.006005 273.663068 
L 108.006005 273.136382 
L 111.505558 273.136382 
L 111.505558 272.08301 
L 114.080224 272.08301 
L 114.080224 271.556324 
L 115.711251 271.556324 
L 115.711251 270.502952 
L 117.765302 270.502952 
L 117.765302 269.976266 
L 118.576578 269.976266 
L 118.576578 269.449579 
L 119.602714 269.449579 
L 119.602714 268.922893 
L 121.489881 268.922893 
L 121.489881 267.342835 
L 125.647598 267.342835 
L 125.647598 266.816149 
L 127.002787 266.816149 
L 127.002787 266.289463 
L 127.165014 266.289463 
L 127.165014 265.762777 
L 129.147151 265.762777 
L 129.147151 265.236091 
L 130.531948 265.236091 
L 130.531948 264.709405 
L 133.689303 264.709405 
L 133.689303 264.182719 
L 135.076644 264.182719 
L 135.076644 263.129347 
L 138.426341 263.129347 
L 138.510793 261.022602 
L 140.64889 261.022602 
L 140.64889 260.495916 
L 141.378673 260.495916 
L 141.378673 259.442544 
L 143.653678 259.442544 
L 143.653678 258.389172 
L 144.390658 258.389172 
L 144.390658 257.862486 
L 144.806606 257.862486 
L 144.806606 257.3358 
L 145.270136 257.3358 
L 145.270136 256.809114 
L 145.721664 256.809114 
L 145.721664 255.229055 
L 146.107383 255.229055 
L 146.107383 254.702369 
L 146.270114 254.702369 
L 146.270114 254.175683 
L 146.801841 254.175683 
L 146.801841 252.595625 
L 149.058374 252.595625 
L 149.058374 252.068939 
L 149.195872 252.068939 
L 149.195872 251.542253 
L 149.779481 251.542253 
L 149.779481 250.488881 
L 152.283884 250.488881 
L 152.283884 249.962195 
L 152.774102 249.962195 
L 152.774102 249.435508 
L 153.502361 249.435508 
L 153.502361 248.908822 
L 154.269814 248.908822 
L 154.269814 248.382136 
L 154.873541 248.382136 
L 154.93935 247.328764 
L 155.520713 247.328764 
L 155.520713 246.802078 
L 156.175347 246.802078 
L 156.175347 246.275392 
L 156.747178 246.275392 
L 156.747178 245.748706 
L 158.75841 245.748706 
L 158.75841 245.22202 
L 159.708245 245.22202 
L 159.708245 244.695334 
L 160.005512 244.695334 
L 160.079044 243.115275 
L 160.961329 243.115275 
L 160.961329 242.588589 
L 162.130378 242.588589 
L 162.130378 241.008531 
L 162.346481 241.008531 
L 162.346481 238.375101 
L 162.62347 238.375101 
L 162.62347 236.268356 
L 162.833584 236.268356 
L 162.833584 235.74167 
L 163.368321 235.74167 
L 163.428979 233.634926 
L 164.102088 233.634926 
L 164.102088 231.001496 
L 165.518877 231.001496 
L 165.518877 230.47481 
L 165.820633 230.47481 
L 165.820633 229.948123 
L 167.576907 229.948123 
L 167.576907 229.421437 
L 169.446113 229.421437 
L 169.51744 225.734635 
L 169.883706 225.734635 
L 169.883706 225.207949 
L 170.215104 225.207949 
L 170.215104 223.627891 
L 170.378471 223.627891 
L 170.378471 223.101204 
L 171.017051 223.101204 
L 171.017051 222.047832 
L 171.658273 222.047832 
L 171.658273 221.521146 
L 172.031987 221.521146 
L 172.031987 220.467774 
L 172.991089 220.467774 
L 172.991089 219.941088 
L 173.349008 219.941088 
L 173.349008 219.414402 
L 173.654869 219.414402 
L 173.744474 214.674227 
L 174.021557 214.674227 
L 174.021557 213.620855 
L 174.305129 213.620855 
L 174.315944 212.567483 
L 174.84832 212.567483 
L 174.84832 210.460738 
L 174.973708 210.460738 
L 174.973708 209.407366 
L 175.293514 209.407366 
L 175.293514 208.353994 
L 175.697687 208.353994 
L 175.697687 207.827308 
L 176.296562 207.827308 
L 176.296562 206.773936 
L 176.459861 206.773936 
L 176.459861 206.24725 
L 176.706692 206.24725 
L 176.800705 203.613819 
L 177.2176 203.613819 
L 177.2176 203.087133 
L 177.544086 203.087133 
L 177.544086 202.560447 
L 178.022633 202.560447 
L 178.022633 201.507075 
L 178.170609 201.507075 
L 178.187935 199.927017 
L 178.44579 199.927017 
L 178.556354 195.186842 
L 179.090678 195.186842 
L 179.090678 194.13347 
L 179.424571 194.13347 
L 179.456806 193.080098 
L 179.561161 193.080098 
L 179.561161 192.026726 
L 179.6808 192.026726 
L 179.768016 189.393295 
L 179.948981 189.393295 
L 179.956806 187.286551 
L 180.503634 187.286551 
L 180.579292 186.233179 
L 180.62453 186.233179 
L 180.654624 180.966318 
L 180.997019 180.966318 
L 181.048539 178.859574 
L 181.267628 178.859574 
L 181.368935 171.485969 
L 181.412173 171.485969 
L 181.426562 169.379224 
L 181.584061 169.379224 
L 181.584061 167.799166 
L 181.697718 167.799166 
L 181.754271 166.745794 
L 181.999553 166.745794 
L 182.069005 163.585677 
L 182.282564 163.585677 
L 182.391773 162.005619 
L 182.668539 162.005619 
L 182.722034 157.265444 
L 182.78202 157.265444 
L 182.868304 154.105328 
L 182.954163 154.105328 
L 182.954163 153.578642 
L 183.124623 153.578642 
L 183.215724 149.365153 
L 183.267569 149.365153 
L 183.345048 147.258409 
L 183.390086 147.258409 
L 183.486206 143.571606 
L 183.638904 143.571606 
L 183.714755 141.464862 
L 183.771427 141.464862 
L 183.877974 139.884804 
L 183.92789 139.884804 
L 184.0149 136.724687 
L 184.095309 136.724687 
L 184.144607 135.671315 
L 184.303871 135.671315 
L 184.346502 134.091257 
L 184.419343 134.091257 
L 184.419343 133.037885 
L 184.5521 133.037885 
L 184.612111 130.404454 
L 184.719614 130.404454 
L 184.779052 126.717652 
L 184.838289 126.717652 
L 184.903218 123.557535 
L 185.166347 123.557535 
L 185.253182 116.18393 
L 185.351075 116.18393 
L 185.351075 115.657244 
L 185.476949 115.657244 
L 185.584933 114.603872 
L 185.748471 114.603872 
L 185.765302 112.497128 
L 185.960468 112.497128 
L 185.960468 111.970441 
L 186.317224 111.970441 
L 186.393118 108.810325 
L 186.436338 108.810325 
L 186.463296 103.543464 
L 186.629513 103.543464 
L 186.629513 103.016778 
L 186.920572 103.016778 
L 186.983435 100.910034 
L 187.304667 100.910034 
L 187.325189 97.749917 
L 187.468177 97.749917 
L 187.468177 97.223231 
L 193.564818 97.223231 
L 193.564818 96.696545 
L 194.733072 96.696545 
L 194.733072 96.169859 
L 195.12759 96.169859 
L 195.12759 95.643173 
L 195.429816 95.643173 
L 195.429816 95.116487 
L 195.755375 95.116487 
L 195.755375 94.063115 
L 195.900231 94.063115 
L 195.900231 93.536429 
L 196.180211 93.536429 
L 196.290957 91.429684 
L 196.349123 91.429684 
L 196.349123 90.902998 
L 196.679119 90.902998 
L 196.78377 89.32294 
L 197.005929 89.32294 
L 197.111569 87.742882 
L 197.210755 87.742882 
L 197.210755 87.216196 
L 197.352716 87.216196 
L 197.407452 85.636137 
L 197.470617 85.636137 
L 197.530698 84.056079 
L 197.856094 84.056079 
L 197.864502 83.002707 
L 198.037362 83.002707 
L 198.087229 81.422649 
L 198.156251 81.422649 
L 198.257906 80.369277 
L 198.397061 80.369277 
L 198.505431 79.315904 
L 198.629228 79.315904 
L 198.736169 78.262532 
L 198.757479 78.262532 
L 198.845107 76.682474 
L 198.919114 76.682474 
L 198.977043 75.629102 
L 199.136666 75.629102 
L 199.225006 73.522358 
L 199.320634 73.522358 
L 199.338667 71.415613 
L 199.443917 71.415613 
L 199.528171 68.782183 
L 199.566334 68.782183 
L 199.566334 68.255497 
L 199.6778 68.255497 
L 199.770984 66.675439 
L 199.926023 66.675439 
L 199.98567 64.042008 
L 200.042641 64.042008 
L 200.094496 62.46195 
L 200.185486 62.46195 
L 200.251586 61.408578 
L 200.429055 61.408578 
L 200.508693 59.301833 
L 200.566383 59.301833 
L 200.566383 58.775147 
L 200.714539 58.775147 
L 200.738317 57.721775 
L 200.894449 57.721775 
L 200.969649 56.141717 
L 201.007127 56.141717 
L 201.021161 55.088345 
L 201.121407 55.088345 
L 201.139994 54.034973 
L 201.356921 54.034973 
L 201.46666 51.928228 
L 201.627726 51.928228 
L 201.627726 50.874856 
L 205.350828 50.874856 
L 205.350828 50.34817 
L 205.586351 50.34817 
L 205.638459 49.294798 
L 206.239782 49.294798 
L 206.239782 48.768112 
L 206.752187 48.768112 
L 206.826089 47.188054 
L 206.913027 47.188054 
L 206.994554 46.134681 
L 207.156473 46.134681 
L 207.156473 45.607995 
L 207.803792 45.607995 
L 207.840201 43.501251 
L 207.980378 43.501251 
L 207.985083 42.447879 
L 208.26357 42.447879 
L 208.345181 40.867821 
L 208.53768 40.867821 
L 208.53768 40.341135 
L 208.873249 40.341135 
L 208.873249 39.814448 
L 209.042333 39.814448 
L 209.043809 38.761076 
L 209.181995 38.761076 
L 209.181995 38.23439 
L 209.611545 38.23439 
L 209.611545 37.707704 
L 212.494051 37.707704 
L 212.494051 37.181018 
L 213.150017 37.181018 
L 213.150017 36.654332 
L 213.275522 36.654332 
L 213.347165 35.074274 
L 213.405877 35.074274 
L 213.45408 34.020902 
L 213.679547 34.020902 
L 213.679547 33.494215 
L 213.895433 33.494215 
L 213.895433 32.967529 
L 214.191275 32.967529 
L 214.191275 32.440843 
L 214.33679 32.440843 
L 214.33679 31.914157 
L 218.405598 31.914157 
L 218.486515 30.860785 
L 219.433385 30.860785 
L 219.433385 30.334099 
L 338.688 30.334099 
L 338.688 30.334099 
" style="fill:none;stroke:#00bfbf;stroke-linecap:square;stroke-width:1.5;"/>
   </g>
   <g id="line2d_31">
    <defs>
     <path d="M -6 0 
L 6 0 
M 0 6 
L 0 -6 
" id="ma216fad8d9" style="stroke:#00bfbf;stroke-width:1.5;"/>
    </defs>
    <g>
     <use style="fill-opacity:0;stroke:#00bfbf;stroke-width:1.5;" x="164.102088" xlink:href="#ma216fad8d9" y="231.001496"/>
     <use style="fill-opacity:0;stroke:#00bfbf;stroke-width:1.5;" x="185.166347" xlink:href="#ma216fad8d9" y="120.924105"/>
     <use style="fill-opacity:0;stroke:#00bfbf;stroke-width:1.5;" x="209.043809" xlink:href="#ma216fad8d9" y="39.287762"/>
     <use style="fill-opacity:0;stroke:#00bfbf;stroke-width:1.5;" x="219.433385" xlink:href="#ma216fad8d9" y="30.334099"/>
     <use style="fill-opacity:0;stroke:#00bfbf;stroke-width:1.5;" x="219.433385" xlink:href="#ma216fad8d9" y="30.334099"/>
     <use style="fill-opacity:0;stroke:#00bfbf;stroke-width:1.5;" x="338.688" xlink:href="#ma216fad8d9" y="30.334099"/>
    </g>
   </g>
   <g id="line2d_32">
    <path style="fill:none;stroke:#00bfbf;stroke-linecap:square;stroke-width:1.5;"/>
    <g/>
   </g>
   <g id="line2d_33">
    <path clip-path="url(#peb37e546ab)" d="M 191.816415 97.223231 
" style="fill:none;stroke:#00bfbf;stroke-linecap:square;stroke-width:1.5;"/>
    <defs>
     <path d="M -12 12 
L 12 -12 
M -12 -12 
L 12 12 
" id="md8359d2a23" style="stroke:#00bfbf;"/>
    </defs>
    <g clip-path="url(#peb37e546ab)">
     <use style="fill:#00bfbf;stroke:#00bfbf;" x="191.816415" xlink:href="#md8359d2a23" y="97.223231"/>
    </g>
   </g>
   <g id="line2d_34">
    <defs>
     <path d="M 0 1.5 
C 0.397805 1.5 0.77937 1.341951 1.06066 1.06066 
C 1.341951 0.77937 1.5 0.397805 1.5 0 
C 1.5 -0.397805 1.341951 -0.77937 1.06066 -1.06066 
C 0.77937 -1.341951 0.397805 -1.5 0 -1.5 
C -0.397805 -1.5 -0.77937 -1.341951 -1.06066 -1.06066 
C -1.341951 -0.77937 -1.5 -0.397805 -1.5 0 
C -1.5 0.397805 -1.341951 0.77937 -1.06066 1.06066 
C -0.77937 1.341951 -0.397805 1.5 0 1.5 
z
" id="m05d733d44c" style="stroke:#008000;"/>
    </defs>
    <g>
     <use style="fill:#008000;stroke:#008000;" x="240.755536" xlink:href="#m05d733d44c" y="30.334099"/>
     <use style="fill:#008000;stroke:#008000;" x="240.755536" xlink:href="#m05d733d44c" y="30.334099"/>
    </g>
   </g>
   <g id="line2d_35">
    <path d="M 38.440992 298.944 
L 38.440992 295.783884 
L 50.52898 295.783884 
L 50.52898 292.097081 
L 57.6 292.097081 
L 57.6 290.517023 
L 62.616969 290.517023 
L 62.616969 288.936964 
L 66.508432 288.936964 
L 66.508432 288.410278 
L 76.759008 288.410278 
L 76.759008 287.356906 
L 78.59642 287.356906 
L 78.59642 285.776848 
L 81.775977 285.776848 
L 81.775977 285.250162 
L 84.464254 285.250162 
L 84.464254 284.723476 
L 85.66744 284.723476 
L 85.66744 284.19679 
L 95.259853 284.19679 
L 95.259853 283.670104 
L 97.16421 283.670104 
L 97.16421 282.090045 
L 108.640231 282.090045 
L 108.640231 281.563359 
L 109.252198 281.563359 
L 109.252198 281.036673 
L 109.843417 281.036673 
L 109.843417 280.509987 
L 113.965867 280.509987 
L 113.965867 279.983301 
L 114.193835 279.983301 
L 114.193835 279.456615 
L 117.107138 279.456615 
L 117.107138 278.929929 
L 119.602714 278.929929 
L 119.602714 278.403243 
L 120.571812 278.403243 
L 120.571812 277.876557 
L 121.189196 277.876557 
L 121.189196 276.823185 
L 121.931406 276.823185 
L 121.931406 276.296499 
L 122.503236 276.296499 
L 122.503236 275.769812 
L 122.920132 275.769812 
L 122.920132 275.243126 
L 124.494669 275.243126 
L 124.494669 274.71644 
L 125.938745 274.71644 
L 125.938745 273.663068 
L 129.099042 273.663068 
L 129.099042 273.136382 
L 134.800918 273.136382 
L 134.800918 272.609696 
L 136.137916 272.609696 
L 136.137916 272.08301 
L 138.141844 272.08301 
L 138.141844 271.556324 
L 138.538853 271.556324 
L 138.538853 271.029638 
L 139.783113 271.029638 
L 139.783113 270.502952 
L 140.698504 270.502952 
L 140.79731 268.922893 
L 142.261275 268.922893 
L 142.261275 268.396207 
L 143.144465 268.396207 
L 143.144465 267.869521 
L 144.350522 267.869521 
L 144.350522 266.816149 
L 144.510517 266.816149 
L 144.510517 266.289463 
L 144.904196 266.289463 
L 144.904196 265.762777 
L 145.998045 265.762777 
L 145.998045 265.236091 
L 146.573414 265.236091 
L 146.679213 263.656033 
L 146.923612 263.656033 
L 146.992815 262.60266 
L 147.4697 262.60266 
L 147.4697 262.075974 
L 149.911431 262.075974 
L 149.911431 261.549288 
L 150.258492 261.549288 
L 150.258492 260.495916 
L 150.486088 260.495916 
L 150.542526 258.915858 
L 151.871101 258.915858 
L 151.871101 258.389172 
L 152.436193 258.389172 
L 152.436193 257.862486 
L 153.081247 257.862486 
L 153.081247 257.3358 
L 156.796456 257.3358 
L 156.796456 256.809114 
L 157.604152 256.809114 
L 157.604152 256.282427 
L 157.939176 256.282427 
L 157.939176 255.755741 
L 158.195371 255.755741 
L 158.195371 253.648997 
L 158.358103 253.648997 
L 158.358103 252.595625 
L 159.166924 252.595625 
L 159.166924 252.068939 
L 160.727241 252.068939 
L 160.727241 251.542253 
L 161.268637 251.542253 
L 161.268637 248.382136 
L 162.115875 248.382136 
L 162.115875 247.85545 
L 163.361568 247.85545 
L 163.361568 246.802078 
L 164.037234 246.802078 
L 164.037234 246.275392 
L 164.295217 246.275392 
L 164.295217 245.748706 
L 164.498889 245.748706 
L 164.498889 245.22202 
L 164.824867 245.22202 
L 164.824867 244.168648 
L 168.161052 244.168648 
L 168.161052 243.641962 
L 168.526499 243.641962 
L 168.55661 242.588589 
L 171.519214 242.588589 
L 171.519214 242.061903 
L 171.945501 242.061903 
L 171.945501 241.535217 
L 172.522125 241.535217 
L 172.522125 241.008531 
L 173.822502 241.008531 
L 173.852135 237.321729 
L 174.470228 237.321729 
L 174.470228 236.795043 
L 175.408984 236.795043 
L 175.408984 236.268356 
L 175.981689 236.268356 
L 175.981689 235.214984 
L 176.235332 235.214984 
L 176.235332 232.054868 
L 176.415186 232.054868 
L 176.415186 229.948123 
L 176.675242 229.948123 
L 176.675242 229.421437 
L 177.030459 229.421437 
L 177.122746 227.314693 
L 177.499105 227.314693 
L 177.535099 225.734635 
L 177.624761 225.734635 
L 177.624761 225.207949 
L 177.92621 225.207949 
L 177.92621 224.681263 
L 178.083716 224.681263 
L 178.083716 222.047832 
L 178.245567 222.047832 
L 178.245567 221.521146 
L 178.660604 221.521146 
L 178.660604 218.887716 
L 178.98346 218.887716 
L 178.98346 218.36103 
L 179.213577 218.36103 
L 179.213577 216.780971 
L 179.462173 216.780971 
L 179.462173 214.674227 
L 179.6808 214.674227 
L 179.76538 213.620855 
L 179.807517 213.620855 
L 179.865289 212.040797 
L 180.279789 212.040797 
L 180.36152 209.934052 
L 180.417488 209.934052 
L 180.417488 209.407366 
L 180.699667 209.407366 
L 180.789406 206.24725 
L 180.972433 206.24725 
L 180.972433 204.667192 
L 181.090134 204.667192 
L 181.090134 204.140506 
L 181.328001 204.140506 
L 181.385763 202.560447 
L 181.47683 202.560447 
L 181.562667 201.507075 
L 181.775431 201.507075 
L 181.798912 196.7669 
L 181.943792 196.7669 
L 181.943792 195.713528 
L 182.197912 195.713528 
L 182.275715 194.660156 
L 182.430288 194.660156 
L 182.430288 194.13347 
L 182.717582 194.13347 
L 182.717582 193.080098 
L 183.043972 193.080098 
L 183.122449 191.50004 
L 183.174571 191.50004 
L 183.174571 190.973354 
L 183.560601 190.973354 
L 183.649459 189.919981 
L 184.016967 189.919981 
L 184.05412 188.866609 
L 184.259097 188.866609 
L 184.307935 186.759865 
L 184.497912 186.759865 
L 184.497912 186.233179 
L 185.168281 186.233179 
L 185.2185 185.179807 
L 185.372117 185.179807 
L 185.372117 184.653121 
L 185.645263 184.653121 
L 185.645263 184.126434 
L 185.954922 184.126434 
L 185.954922 183.073062 
L 186.094879 183.073062 
L 186.186347 181.493004 
L 186.465092 181.493004 
L 186.465092 180.966318 
L 191.129263 180.966318 
L 191.129263 180.439632 
L 192.515634 180.439632 
L 192.591622 179.38626 
L 193.178122 179.38626 
L 193.178122 178.859574 
L 193.698161 178.859574 
L 193.707647 177.806202 
L 194.166232 177.806202 
L 194.166232 177.279515 
L 194.39564 177.279515 
L 194.39564 176.752829 
L 194.583782 176.752829 
L 194.583782 176.226143 
L 194.954085 176.226143 
L 194.954085 175.172771 
L 195.105722 175.172771 
L 195.177781 174.119399 
L 195.234346 174.119399 
L 195.234346 173.592713 
L 195.478075 173.592713 
L 195.478075 173.066027 
L 195.922169 173.066027 
L 196.030411 171.485969 
L 196.166833 171.485969 
L 196.242848 169.90591 
L 196.434491 169.90591 
L 196.537592 167.27248 
L 196.656111 167.27248 
L 196.722052 164.112363 
L 196.841309 164.112363 
L 196.89076 162.005619 
L 196.96369 162.005619 
L 197.063719 159.898875 
L 197.231106 159.898875 
L 197.316129 158.845503 
L 197.425659 158.845503 
L 197.425659 157.79213 
L 197.616171 157.79213 
L 197.650243 156.738758 
L 197.80275 156.738758 
L 197.851421 153.578642 
L 198.206695 153.578642 
L 198.292572 151.998584 
L 198.354432 151.998584 
L 198.446814 149.891839 
L 198.562056 149.891839 
L 198.626547 147.785095 
L 198.729949 147.785095 
L 198.818599 146.731723 
L 198.938445 146.731723 
L 198.9823 145.151665 
L 199.201665 145.151665 
L 199.301722 143.571606 
L 199.442211 143.571606 
L 199.457561 141.991548 
L 199.593422 141.991548 
L 199.642411 140.938176 
L 199.760097 140.938176 
L 199.837003 139.884804 
L 199.948415 139.884804 
L 199.948415 139.358118 
L 200.268682 139.358118 
L 200.268682 138.831432 
L 200.750195 138.831432 
L 200.750195 138.304745 
L 201.563629 138.304745 
L 201.563629 137.778059 
L 203.504835 137.778059 
L 203.504835 137.251373 
L 204.041266 137.251373 
L 204.104072 136.198001 
L 204.360785 136.198001 
L 204.459606 134.091257 
L 204.639125 134.091257 
L 204.713697 133.037885 
L 204.841873 133.037885 
L 204.935522 131.457826 
L 205.068263 131.457826 
L 205.090494 130.404454 
L 205.182821 130.404454 
L 205.241655 128.824396 
L 205.307607 128.824396 
L 205.375738 126.717652 
L 205.435136 126.717652 
L 205.462947 125.137593 
L 205.580951 125.137593 
L 205.682659 123.030849 
L 205.76835 123.030849 
L 205.820511 120.397419 
L 205.886672 120.397419 
L 205.933776 118.817361 
L 206.027605 118.817361 
L 206.027605 118.290674 
L 206.421985 118.290674 
L 206.52915 116.710616 
L 206.558675 116.710616 
L 206.62549 114.603872 
L 206.729168 114.603872 
L 206.826648 113.5505 
L 206.961323 113.5505 
L 206.961323 113.023814 
L 207.39062 113.023814 
L 207.494162 111.970441 
L 207.573558 111.970441 
L 207.573558 111.443755 
L 207.812769 111.443755 
L 207.812769 110.917069 
L 208.191911 110.917069 
L 208.191911 110.390383 
L 208.479848 110.390383 
L 208.479848 109.863697 
L 209.602495 109.863697 
L 209.602495 109.337011 
L 209.792044 109.337011 
L 209.792044 108.810325 
L 210.174295 108.810325 
L 210.201938 107.756953 
L 210.502253 107.756953 
L 210.535706 106.703581 
L 210.620407 106.703581 
L 210.620407 106.176895 
L 210.803711 106.176895 
L 210.890664 104.596836 
L 210.947216 104.596836 
L 210.976304 103.543464 
L 211.09305 103.543464 
L 211.174221 102.490092 
L 211.505439 102.490092 
L 211.613612 100.383348 
L 211.675488 100.383348 
L 211.732929 98.803289 
L 212.007372 98.803289 
L 212.100929 97.749917 
L 212.161926 97.749917 
L 212.205482 96.169859 
L 212.343646 96.169859 
L 212.42894 95.116487 
L 212.636764 95.116487 
L 212.636764 94.589801 
L 212.756463 94.589801 
L 212.855588 93.536429 
L 212.936059 93.536429 
L 212.936059 93.009743 
L 214.422291 93.009743 
L 214.475697 91.429684 
L 214.549761 91.429684 
L 214.597055 90.376312 
L 214.702645 90.376312 
L 214.792037 88.796254 
L 214.825265 88.796254 
L 214.922463 87.742882 
L 215.13677 87.742882 
L 215.13677 87.216196 
L 215.250872 87.216196 
L 215.354643 85.636137 
L 215.390236 85.636137 
L 215.401857 84.582765 
L 215.525782 84.582765 
L 215.613763 81.949335 
L 215.879066 81.949335 
L 215.879066 81.422649 
L 216.006259 81.422649 
L 216.006259 80.895963 
L 216.137117 80.895963 
L 216.20838 79.315904 
L 216.32413 79.315904 
L 216.32413 78.789218 
L 216.515571 78.789218 
L 216.607002 77.20916 
L 216.635038 77.20916 
L 216.635038 76.682474 
L 216.900414 76.682474 
L 216.994845 75.629102 
L 217.393157 75.629102 
L 217.44915 74.57573 
L 217.869987 74.57573 
L 217.961684 72.995672 
L 218.135468 72.995672 
L 218.135468 72.468985 
L 218.354329 72.468985 
L 218.454422 71.415613 
L 218.65347 71.415613 
L 218.685198 70.362241 
L 218.795795 70.362241 
L 218.795795 69.835555 
L 218.909049 69.835555 
L 218.955371 68.782183 
L 219.059288 68.782183 
L 219.165342 66.675439 
L 219.240076 66.675439 
L 219.310668 64.042008 
L 219.461833 64.042008 
L 219.461833 63.515322 
L 219.699508 63.515322 
L 219.72939 62.46195 
L 219.885969 62.46195 
L 219.889667 61.408578 
L 220.220907 61.408578 
L 220.290744 60.355206 
L 220.34281 60.355206 
L 220.34281 59.82852 
L 220.989532 59.82852 
L 221.042029 58.775147 
L 221.499815 58.775147 
L 221.51089 57.721775 
L 221.618868 57.721775 
L 221.719047 56.668403 
L 221.749939 56.668403 
L 221.83709 54.561659 
L 222.334524 54.561659 
L 222.361595 52.9816 
L 223.170974 52.9816 
L 223.170974 52.454914 
L 223.66973 52.454914 
L 223.68376 51.401542 
L 223.840725 51.401542 
L 223.850831 50.34817 
L 224.05089 50.34817 
L 224.140546 48.768112 
L 224.292239 48.768112 
L 224.313158 47.71474 
L 224.756753 47.71474 
L 224.756753 47.188054 
L 225.641117 47.188054 
L 225.686264 45.607995 
L 225.831155 45.607995 
L 225.831155 45.081309 
L 226.153193 45.081309 
L 226.153193 44.554623 
L 226.309268 44.554623 
L 226.384054 41.921193 
L 226.636315 41.921193 
L 226.636315 41.394507 
L 227.494628 41.394507 
L 227.494628 40.867821 
L 228.289842 40.867821 
L 228.38585 39.814448 
L 228.426372 39.814448 
L 228.446113 38.761076 
L 228.542231 38.761076 
L 228.542231 38.23439 
L 229.813539 38.23439 
L 229.813539 37.707704 
L 230.20095 37.707704 
L 230.20095 37.181018 
L 230.712797 37.181018 
L 230.799489 36.127646 
L 231.59902 36.127646 
L 231.59902 35.60096 
L 231.948311 35.60096 
L 231.948311 35.074274 
L 232.760188 35.074274 
L 232.760188 34.547588 
L 233.126308 34.547588 
L 233.126308 34.020902 
L 233.714031 34.020902 
L 233.714031 33.494215 
L 234.510911 33.494215 
L 234.510911 32.967529 
L 236.011072 32.967529 
L 236.011072 32.440843 
L 236.448838 32.440843 
L 236.448838 31.914157 
L 239.067156 31.914157 
L 239.067156 31.387471 
L 239.960205 31.387471 
L 239.960205 30.860785 
L 240.755536 30.860785 
L 240.755536 30.334099 
L 338.688 30.334099 
L 338.688 30.334099 
" style="fill:none;stroke:#008000;stroke-linecap:square;stroke-width:1.5;"/>
   </g>
   <g id="line2d_36">
    <defs>
     <path d="M -0 6 
L 6 -6 
L -6 -6 
z
" id="m1d425fe389" style="stroke:#008000;stroke-linejoin:miter;stroke-width:1.5;"/>
    </defs>
    <g>
     <use style="fill-opacity:0;stroke:#008000;stroke-linejoin:miter;stroke-width:1.5;" x="95.259853" xlink:href="#m1d425fe389" y="284.19679"/>
     <use style="fill-opacity:0;stroke:#008000;stroke-linejoin:miter;stroke-width:1.5;" x="174.470228" xlink:href="#m1d425fe389" y="236.795043"/>
     <use style="fill-opacity:0;stroke:#008000;stroke-linejoin:miter;stroke-width:1.5;" x="210.890664" xlink:href="#m1d425fe389" y="105.123522"/>
     <use style="fill-opacity:0;stroke:#008000;stroke-linejoin:miter;stroke-width:1.5;" x="240.755536" xlink:href="#m1d425fe389" y="30.860785"/>
     <use style="fill-opacity:0;stroke:#008000;stroke-linejoin:miter;stroke-width:1.5;" x="240.755536" xlink:href="#m1d425fe389" y="30.334099"/>
     <use style="fill-opacity:0;stroke:#008000;stroke-linejoin:miter;stroke-width:1.5;" x="338.688" xlink:href="#m1d425fe389" y="30.334099"/>
    </g>
   </g>
   <g id="line2d_37">
    <path style="fill:none;stroke:#008000;stroke-linecap:square;stroke-width:1.5;"/>
    <g/>
   </g>
   <g id="line2d_38">
    <path clip-path="url(#peb37e546ab)" d="M 189.259756 180.966318 
" style="fill:none;stroke:#008000;stroke-linecap:square;stroke-width:1.5;"/>
    <defs>
     <path d="M -12 12 
L 12 -12 
M -12 -12 
L 12 12 
" id="m255e405025" style="stroke:#008000;"/>
    </defs>
    <g clip-path="url(#peb37e546ab)">
     <use style="fill:#008000;stroke:#008000;" x="189.259756" xlink:href="#m255e405025" y="180.966318"/>
    </g>
   </g>
   <g id="line2d_39">
    <defs>
     <path d="M 0 1.5 
C 0.397805 1.5 0.77937 1.341951 1.06066 1.06066 
C 1.341951 0.77937 1.5 0.397805 1.5 0 
C 1.5 -0.397805 1.341951 -0.77937 1.06066 -1.06066 
C 0.77937 -1.341951 0.397805 -1.5 0 -1.5 
C -0.397805 -1.5 -0.77937 -1.341951 -1.06066 -1.06066 
C -1.341951 -0.77937 -1.5 -0.397805 -1.5 0 
C -1.5 0.397805 -1.341951 0.77937 -1.06066 1.06066 
C -0.77937 1.341951 -0.397805 1.5 0 1.5 
z
" id="m22d16c0703" style="stroke:#0000ff;"/>
    </defs>
    <g>
     <use style="fill:#0000ff;stroke:#0000ff;" x="221.942134" xlink:href="#m22d16c0703" y="241.008531"/>
     <use style="fill:#0000ff;stroke:#0000ff;" x="221.942134" xlink:href="#m22d16c0703" y="241.008531"/>
    </g>
   </g>
   <g id="line2d_40">
    <path d="M 29.53256 298.944 
L 29.53256 298.417314 
L 41.620548 298.417314 
L 41.620548 297.890628 
L 53.708537 297.890628 
L 53.708537 297.363942 
L 57.6 297.363942 
L 57.6 296.837256 
L 72.867545 296.837256 
L 72.867545 296.31057 
L 74.263433 296.31057 
L 74.263433 295.783884 
L 79.938565 295.783884 
L 79.938565 295.257197 
L 82.626842 295.257197 
L 82.626842 294.730511 
L 94.294587 294.730511 
L 94.294587 294.203825 
L 106.593963 294.203825 
L 106.593963 293.677139 
L 108.577836 293.677139 
L 108.577836 293.150453 
L 111.346294 293.150453 
L 111.346294 292.623767 
L 111.505558 292.623767 
L 111.505558 291.570395 
L 113.453595 291.570395 
L 113.453595 291.043709 
L 115.586238 291.043709 
L 115.586238 290.517023 
L 115.958621 290.517023 
L 115.958621 289.990337 
L 116.797786 289.990337 
L 116.797786 289.463651 
L 116.914437 289.463651 
L 116.914437 288.410278 
L 129.290685 288.410278 
L 129.290685 287.883592 
L 129.908566 287.883592 
L 129.908566 287.356906 
L 130.505303 287.356906 
L 130.505303 286.83022 
L 131.338382 286.83022 
L 131.338382 286.303534 
L 134.450015 286.303534 
L 134.450015 285.776848 
L 134.661403 285.776848 
L 134.661403 285.250162 
L 135.44209 285.250162 
L 135.44209 284.723476 
L 135.641855 284.723476 
L 135.641855 284.19679 
L 136.942755 284.19679 
L 136.942755 283.670104 
L 137.664982 283.670104 
L 137.664982 283.143418 
L 138.256201 283.143418 
L 138.256201 282.090045 
L 139.253002 282.090045 
L 139.253002 281.563359 
L 139.381706 281.563359 
L 139.413734 280.509987 
L 139.541262 280.509987 
L 139.541262 279.983301 
L 139.730821 279.983301 
L 139.730821 279.456615 
L 139.9494 279.456615 
L 139.9494 278.929929 
L 141.435758 278.929929 
L 141.435758 278.403243 
L 141.662245 278.403243 
L 141.662245 277.876557 
L 143.375453 277.876557 
L 143.375453 277.349871 
L 143.653678 277.349871 
L 143.653678 276.823185 
L 144.582038 276.823185 
L 144.582038 276.296499 
L 145.954117 276.296499 
L 146.019967 275.243126 
L 146.538004 275.243126 
L 146.538004 274.71644 
L 149.341352 274.71644 
L 149.341352 274.189754 
L 150.258492 274.189754 
L 150.258492 273.663068 
L 150.965587 273.663068 
L 150.965587 273.136382 
L 151.146137 273.136382 
L 151.146137 272.609696 
L 151.912822 272.609696 
L 151.912822 272.08301 
L 152.052897 272.08301 
L 152.052897 271.556324 
L 154.721232 271.556324 
L 154.721232 271.029638 
L 157.185742 271.029638 
L 157.185742 270.502952 
L 158.086033 270.502952 
L 158.086033 268.396207 
L 158.994256 268.396207 
L 158.994256 267.869521 
L 159.252621 267.869521 
L 159.252621 267.342835 
L 159.456591 267.342835 
L 159.456591 266.289463 
L 163.266752 266.289463 
L 163.266752 265.762777 
L 164.094319 265.762777 
L 164.094319 265.236091 
L 164.348911 265.236091 
L 164.348911 264.182719 
L 164.607388 264.182719 
L 164.607388 263.656033 
L 165.526038 263.656033 
L 165.526038 263.129347 
L 165.866327 263.129347 
L 165.866327 262.60266 
L 166.782596 262.60266 
L 166.782596 262.075974 
L 167.481174 262.075974 
L 167.481174 261.549288 
L 168.208177 261.549288 
L 168.208177 261.022602 
L 168.403509 261.022602 
L 168.403509 259.96923 
L 168.86475 259.96923 
L 168.86475 259.442544 
L 169.210094 259.442544 
L 169.319866 258.389172 
L 169.808266 258.389172 
L 169.808266 257.862486 
L 170.740545 257.862486 
L 170.740545 257.3358 
L 171.082245 257.3358 
L 171.082245 256.809114 
L 171.345738 256.809114 
L 171.345738 256.282427 
L 171.503976 256.282427 
L 171.574971 255.229055 
L 171.655755 255.229055 
L 171.655755 254.702369 
L 172.11314 254.702369 
L 172.11314 254.175683 
L 173.417442 254.175683 
L 173.421995 253.122311 
L 176.061431 253.122311 
L 176.061431 252.595625 
L 176.61217 252.595625 
L 176.61217 251.542253 
L 177.816873 251.542253 
L 177.816873 251.015567 
L 180.854923 251.015567 
L 180.854923 250.488881 
L 192.576451 250.488881 
L 192.576451 249.435508 
L 196.804029 249.435508 
L 196.804029 248.908822 
L 196.93219 248.908822 
L 196.93219 248.382136 
L 202.493316 248.382136 
L 202.493316 247.85545 
L 202.749279 247.85545 
L 202.749279 247.328764 
L 205.811275 247.328764 
L 205.811275 246.802078 
L 209.879487 246.802078 
L 209.879487 246.275392 
L 210.696287 246.275392 
L 210.7852 245.22202 
L 210.962736 245.22202 
L 210.962736 244.695334 
L 211.168299 244.695334 
L 211.168299 244.168648 
L 212.039387 244.168648 
L 212.07217 243.115275 
L 212.596681 243.115275 
L 212.596681 242.588589 
L 215.176964 242.588589 
L 215.176964 242.061903 
L 219.194064 242.061903 
L 219.194064 241.535217 
L 221.942134 241.535217 
L 221.942134 241.008531 
L 338.688 241.008531 
L 338.688 241.008531 
" style="fill:none;stroke:#0000ff;stroke-linecap:square;stroke-width:1.5;"/>
   </g>
   <g id="line2d_41">
    <defs>
     <path d="M 0 -6 
L -1.347084 -1.854102 
L -5.706339 -1.854102 
L -2.179628 0.708204 
L -3.526712 4.854102 
L -0 2.291796 
L 3.526712 4.854102 
L 2.179628 0.708204 
L 5.706339 -1.854102 
L 1.347084 -1.854102 
z
" id="mac3a29f636" style="stroke:#0000ff;stroke-linejoin:bevel;stroke-width:1.5;"/>
    </defs>
    <g>
     <use style="fill-opacity:0;stroke:#0000ff;stroke-linejoin:bevel;stroke-width:1.5;" x="94.294587" xlink:href="#mac3a29f636" y="294.730511"/>
     <use style="fill-opacity:0;stroke:#0000ff;stroke-linejoin:bevel;stroke-width:1.5;" x="143.653678" xlink:href="#mac3a29f636" y="276.823185"/>
     <use style="fill-opacity:0;stroke:#0000ff;stroke-linejoin:bevel;stroke-width:1.5;" x="212.596681" xlink:href="#mac3a29f636" y="242.588589"/>
     <use style="fill-opacity:0;stroke:#0000ff;stroke-linejoin:bevel;stroke-width:1.5;" x="221.942134" xlink:href="#mac3a29f636" y="241.535217"/>
     <use style="fill-opacity:0;stroke:#0000ff;stroke-linejoin:bevel;stroke-width:1.5;" x="221.942134" xlink:href="#mac3a29f636" y="241.008531"/>
     <use style="fill-opacity:0;stroke:#0000ff;stroke-linejoin:bevel;stroke-width:1.5;" x="338.688" xlink:href="#mac3a29f636" y="241.008531"/>
    </g>
   </g>
   <g id="line2d_42">
    <path style="fill:none;stroke:#0000ff;stroke-linecap:square;stroke-width:1.5;"/>
    <g/>
   </g>
   <g id="line2d_43">
    <path clip-path="url(#peb37e546ab)" d="M 189.075212 250.488881 
" style="fill:none;stroke:#0000ff;stroke-linecap:square;stroke-width:1.5;"/>
    <defs>
     <path d="M -12 12 
L 12 -12 
M -12 -12 
L 12 12 
" id="m7ce825cb27" style="stroke:#0000ff;"/>
    </defs>
    <g clip-path="url(#peb37e546ab)">
     <use style="fill:#0000ff;stroke:#0000ff;" x="189.075212" xlink:href="#m7ce825cb27" y="250.488881"/>
    </g>
   </g>
   <g id="line2d_44">
    <defs>
     <path d="M 0 1.5 
C 0.397805 1.5 0.77937 1.341951 1.06066 1.06066 
C 1.341951 0.77937 1.5 0.397805 1.5 0 
C 1.5 -0.397805 1.341951 -0.77937 1.06066 -1.06066 
C 0.77937 -1.341951 0.397805 -1.5 0 -1.5 
C -0.397805 -1.5 -0.77937 -1.341951 -1.06066 -1.06066 
C -1.341951 -0.77937 -1.5 -0.397805 -1.5 0 
C -1.5 0.397805 -1.341951 0.77937 -1.06066 1.06066 
C -0.77937 1.341951 -0.397805 1.5 0 1.5 
z
" id="me0f01d40b0" style="stroke:#000000;"/>
    </defs>
    <g>
     <use style="stroke:#000000;" x="234.692862" xlink:href="#me0f01d40b0" y="251.542253"/>
     <use style="stroke:#000000;" x="234.692862" xlink:href="#me0f01d40b0" y="251.542253"/>
    </g>
   </g>
   <g id="line2d_45">
    <path d="M 113.524343 298.944 
L 113.524343 298.417314 
L 116.972471 298.417314 
L 116.972471 297.890628 
L 120.524615 297.890628 
L 120.524615 297.363942 
L 129.031467 297.363942 
L 129.06046 296.31057 
L 129.404667 296.31057 
L 129.404667 295.783884 
L 129.574256 295.783884 
L 129.574256 295.257197 
L 132.181982 295.257197 
L 132.181982 294.730511 
L 132.565279 294.730511 
L 132.565279 294.203825 
L 134.703375 294.203825 
L 134.703375 293.677139 
L 134.953107 293.677139 
L 134.953107 293.150453 
L 136.5324 293.150453 
L 136.5324 292.623767 
L 138.477062 292.623767 
L 138.477062 292.097081 
L 140.165274 292.097081 
L 140.165274 291.570395 
L 140.363363 291.570395 
L 140.363363 291.043709 
L 141.292695 291.043709 
L 141.292695 290.517023 
L 142.686372 290.517023 
L 142.686372 289.990337 
L 144.269971 289.990337 
L 144.306265 288.936964 
L 144.923649 288.936964 
L 144.923649 288.410278 
L 145.921099 288.410278 
L 145.921099 287.883592 
L 149.431665 287.883592 
L 149.431665 287.356906 
L 154.899894 287.356906 
L 154.899894 286.83022 
L 156.406335 286.83022 
L 156.406335 286.303534 
L 157.052418 286.303534 
L 157.052418 285.776848 
L 158.113432 285.776848 
L 158.113432 285.250162 
L 159.123917 285.250162 
L 159.123917 284.723476 
L 160.764907 284.723476 
L 160.764907 284.19679 
L 161.173949 284.19679 
L 161.173949 283.670104 
L 163.733114 283.670104 
L 163.733114 283.143418 
L 165.425523 283.143418 
L 165.425523 282.616732 
L 166.645502 282.616732 
L 166.645502 282.090045 
L 167.020769 282.090045 
L 167.020769 281.563359 
L 167.184273 281.563359 
L 167.184273 280.509987 
L 167.336582 280.509987 
L 167.336582 279.983301 
L 167.98889 279.983301 
L 167.98889 279.456615 
L 168.578658 279.456615 
L 168.584667 277.876557 
L 168.873615 277.876557 
L 168.938489 276.823185 
L 169.670516 276.823185 
L 169.670516 276.296499 
L 169.939378 276.296499 
L 169.939378 275.769812 
L 170.226043 275.769812 
L 170.234242 274.71644 
L 170.348634 274.71644 
L 170.348634 274.189754 
L 170.561788 274.189754 
L 170.585907 273.136382 
L 171.635594 273.136382 
L 171.655755 272.08301 
L 172.145006 272.08301 
L 172.145006 271.556324 
L 172.36887 271.556324 
L 172.414747 269.976266 
L 172.637578 269.976266 
L 172.644719 268.922893 
L 172.862299 268.922893 
L 172.862299 268.396207 
L 173.065586 268.396207 
L 173.065586 267.869521 
L 173.476535 267.869521 
L 173.476535 267.342835 
L 173.641388 267.342835 
L 173.746708 266.289463 
L 174.404376 266.289463 
L 174.496641 265.236091 
L 174.63307 265.236091 
L 174.732584 264.182719 
L 174.747357 264.182719 
L 174.829434 263.129347 
L 175.112667 263.129347 
L 175.112667 262.60266 
L 175.829035 262.60266 
L 175.927886 261.549288 
L 175.971204 261.549288 
L 175.971204 261.022602 
L 176.473242 261.022602 
L 176.473242 260.495916 
L 177.219431 260.495916 
L 177.327109 259.442544 
L 180.020844 259.442544 
L 180.079986 258.389172 
L 181.277785 258.389172 
L 181.277785 257.862486 
L 182.000945 257.862486 
L 182.000945 257.3358 
L 194.211665 257.3358 
L 194.211665 256.809114 
L 196.137572 256.809114 
L 196.137572 256.282427 
L 197.870665 256.282427 
L 197.870665 255.755741 
L 204.431044 255.755741 
L 204.431044 255.229055 
L 210.961943 255.229055 
L 210.961943 254.702369 
L 219.458421 254.702369 
L 219.458421 254.175683 
L 221.835012 254.175683 
L 221.835012 253.648997 
L 226.648008 253.648997 
L 226.648008 253.122311 
L 227.073061 253.122311 
L 227.073061 252.595625 
L 233.577829 252.595625 
L 233.577829 252.068939 
L 234.692862 252.068939 
L 234.692862 251.542253 
L 338.688 251.542253 
L 338.688 251.542253 
" style="fill:none;stroke:#000000;stroke-linecap:square;stroke-width:1.5;"/>
   </g>
   <g id="line2d_46">
    <defs>
     <path d="M 0 6 
C 1.591219 6 3.117479 5.367802 4.242641 4.242641 
C 5.367802 3.117479 6 1.591219 6 0 
C 6 -1.591219 5.367802 -3.117479 4.242641 -4.242641 
C 3.117479 -5.367802 1.591219 -6 0 -6 
C -1.591219 -6 -3.117479 -5.367802 -4.242641 -4.242641 
C -5.367802 -3.117479 -6 -1.591219 -6 0 
C -6 1.591219 -5.367802 3.117479 -4.242641 4.242641 
C -3.117479 5.367802 -1.591219 6 0 6 
z
" id="mb32e6badb4" style="stroke:#000000;stroke-width:1.5;"/>
    </defs>
    <g>
     <use style="fill-opacity:0;stroke:#000000;stroke-width:1.5;" x="168.873615" xlink:href="#mb32e6badb4" y="277.876557"/>
     <use style="fill-opacity:0;stroke:#000000;stroke-width:1.5;" x="234.692862" xlink:href="#mb32e6badb4" y="252.068939"/>
     <use style="fill-opacity:0;stroke:#000000;stroke-width:1.5;" x="234.692862" xlink:href="#mb32e6badb4" y="251.542253"/>
     <use style="fill-opacity:0;stroke:#000000;stroke-width:1.5;" x="234.692862" xlink:href="#mb32e6badb4" y="251.542253"/>
     <use style="fill-opacity:0;stroke:#000000;stroke-width:1.5;" x="338.688" xlink:href="#mb32e6badb4" y="251.542253"/>
    </g>
   </g>
   <g id="line2d_47">
    <path style="fill:none;stroke:#000000;stroke-linecap:square;stroke-width:1.5;"/>
    <g/>
   </g>
   <g id="line2d_48">
    <path clip-path="url(#peb37e546ab)" d="M 189.075212 257.3358 
" style="fill:none;stroke:#000000;stroke-linecap:square;stroke-width:1.5;"/>
    <defs>
     <path d="M -12 12 
L 12 -12 
M -12 -12 
L 12 12 
" id="m581adf36b5" style="stroke:#000000;"/>
    </defs>
    <g clip-path="url(#peb37e546ab)">
     <use style="stroke:#000000;" x="189.075212" xlink:href="#m581adf36b5" y="257.3358"/>
    </g>
   </g>
   <g id="line2d_49">
    <defs>
     <path d="M 0 1.5 
C 0.397805 1.5 0.77937 1.341951 1.06066 1.06066 
C 1.341951 0.77937 1.5 0.397805 1.5 0 
C 1.5 -0.397805 1.341951 -0.77937 1.06066 -1.06066 
C 0.77937 -1.341951 0.397805 -1.5 0 -1.5 
C -0.397805 -1.5 -0.77937 -1.341951 -1.06066 -1.06066 
C -1.341951 -0.77937 -1.5 -0.397805 -1.5 0 
C -1.5 0.397805 -1.341951 0.77937 -1.06066 1.06066 
C -0.77937 1.341951 -0.397805 1.5 0 1.5 
z
" id="m1a13f633b7" style="stroke:#ff0000;"/>
    </defs>
    <g>
     <use style="fill:#ff0000;stroke:#ff0000;" x="245.574995" xlink:href="#m1a13f633b7" y="256.809114"/>
     <use style="fill:#ff0000;stroke:#ff0000;" x="245.574995" xlink:href="#m1a13f633b7" y="256.809114"/>
    </g>
   </g>
   <g id="line2d_50">
    <path d="M 151.409483 298.944 
L 151.409483 298.417314 
L 152.428609 298.417314 
L 152.428609 297.890628 
L 155.277608 297.890628 
L 155.277608 297.363942 
L 155.990803 297.363942 
L 155.990803 296.837256 
L 158.655211 296.837256 
L 158.655211 296.31057 
L 159.655698 296.31057 
L 159.655698 295.783884 
L 160.982243 295.783884 
L 160.982243 295.257197 
L 162.11515 295.257197 
L 162.11515 294.730511 
L 163.335883 294.730511 
L 163.335883 294.203825 
L 164.169927 294.203825 
L 164.169927 293.677139 
L 164.33167 293.677139 
L 164.33167 293.150453 
L 165.043347 293.150453 
L 165.043347 292.623767 
L 165.491999 292.623767 
L 165.491999 292.097081 
L 165.718267 292.097081 
L 165.718267 291.570395 
L 165.890882 291.570395 
L 165.999212 290.517023 
L 166.297976 290.517023 
L 166.297976 289.990337 
L 166.750926 289.990337 
L 166.792585 288.936964 
L 167.099442 288.936964 
L 167.099442 288.410278 
L 167.344647 288.410278 
L 167.354319 287.356906 
L 167.584861 287.356906 
L 167.691097 285.776848 
L 168.075699 285.776848 
L 168.075699 285.250162 
L 168.292377 285.250162 
L 168.309168 284.19679 
L 168.459567 284.19679 
L 168.459567 283.670104 
L 168.65511 283.670104 
L 168.708875 282.616732 
L 168.879523 282.616732 
L 168.879523 282.090045 
L 168.994323 282.090045 
L 169.0792 281.036673 
L 169.471824 281.036673 
L 169.471824 280.509987 
L 169.626715 280.509987 
L 169.649336 279.456615 
L 169.818064 279.456615 
L 169.818064 278.929929 
L 170.136965 278.929929 
L 170.242438 277.876557 
L 170.317387 277.876557 
L 170.379826 276.296499 
L 170.432588 276.296499 
L 170.432588 275.769812 
L 170.666063 275.769812 
L 170.666063 275.243126 
L 170.813388 275.243126 
L 170.816031 274.189754 
L 171.149789 274.189754 
L 171.192518 273.136382 
L 171.372637 273.136382 
L 171.403329 272.08301 
L 171.606572 272.08301 
L 171.606572 271.556324 
L 172.064001 271.556324 
L 172.064001 271.029638 
L 172.247561 271.029638 
L 172.298614 269.449579 
L 172.556443 269.449579 
L 172.556443 268.922893 
L 173.124724 268.922893 
L 173.180201 267.869521 
L 173.328425 267.869521 
L 173.328425 267.342835 
L 173.481073 267.342835 
L 173.481073 266.816149 
L 173.745591 266.816149 
L 173.745591 266.289463 
L 192.47866 266.289463 
L 192.47866 265.762777 
L 192.736598 265.762777 
L 192.736598 265.236091 
L 192.880378 265.236091 
L 192.959995 264.182719 
L 201.480101 264.182719 
L 201.480101 263.656033 
L 202.403267 263.656033 
L 202.403267 263.129347 
L 207.622358 263.129347 
L 207.696657 262.075974 
L 212.682666 262.075974 
L 212.682666 261.549288 
L 223.985976 261.549288 
L 223.985976 261.022602 
L 225.665185 261.022602 
L 225.665185 260.495916 
L 228.725637 260.495916 
L 228.725637 259.96923 
L 234.339295 259.96923 
L 234.339295 259.442544 
L 235.014655 259.442544 
L 235.014655 258.915858 
L 239.121322 258.915858 
L 239.121322 258.389172 
L 241.589604 258.389172 
L 241.589604 257.862486 
L 244.79853 257.862486 
L 244.79853 257.3358 
L 245.574995 257.3358 
L 245.574995 256.809114 
L 338.688 256.809114 
L 338.688 256.809114 
" style="fill:none;stroke:#ff0000;stroke-linecap:square;stroke-width:1.5;"/>
   </g>
   <g id="line2d_51">
    <defs>
     <path d="M -6 6 
L 6 6 
L 6 -6 
L -6 -6 
z
" id="m081a424658" style="stroke:#ff0000;stroke-linejoin:miter;stroke-width:1.5;"/>
    </defs>
    <g>
     <use style="fill-opacity:0;stroke:#ff0000;stroke-linejoin:miter;stroke-width:1.5;" x="192.959995" xlink:href="#m081a424658" y="264.182719"/>
     <use style="fill-opacity:0;stroke:#ff0000;stroke-linejoin:miter;stroke-width:1.5;" x="245.574995" xlink:href="#m081a424658" y="257.3358"/>
     <use style="fill-opacity:0;stroke:#ff0000;stroke-linejoin:miter;stroke-width:1.5;" x="245.574995" xlink:href="#m081a424658" y="256.809114"/>
     <use style="fill-opacity:0;stroke:#ff0000;stroke-linejoin:miter;stroke-width:1.5;" x="338.688" xlink:href="#m081a424658" y="256.809114"/>
    </g>
   </g>
   <g id="line2d_52">
    <path style="fill:none;stroke:#ff0000;stroke-linecap:square;stroke-width:1.5;"/>
    <g/>
   </g>
   <g id="line2d_53">
    <path clip-path="url(#peb37e546ab)" d="M 186.208228 266.289463 
" style="fill:none;stroke:#ff0000;stroke-linecap:square;stroke-width:1.5;"/>
    <defs>
     <path d="M -12 12 
L 12 -12 
M -12 -12 
L 12 12 
" id="mcbb55642ed" style="stroke:#ff0000;"/>
    </defs>
    <g clip-path="url(#peb37e546ab)">
     <use style="fill:#ff0000;stroke:#ff0000;" x="186.208228" xlink:href="#mcbb55642ed" y="266.289463"/>
    </g>
   </g>
   <g id="line2d_54">
    <path d="M 338.688 256.809114 
L 369.60768 293.571802 
" style="fill:none;stroke:#ff0000;stroke-linecap:square;stroke-width:1.5;"/>
    <g>
     <use style="fill-opacity:0;stroke:#ff0000;stroke-linejoin:miter;stroke-width:1.5;" x="338.688" xlink:href="#m081a424658" y="256.809114"/>
     <use style="fill-opacity:0;stroke:#ff0000;stroke-linejoin:miter;stroke-width:1.5;" x="369.60768" xlink:href="#m081a424658" y="293.571802"/>
    </g>
   </g>
   <g id="line2d_55">
    <path d="M 338.688 251.542253 
L 369.60768 229.105426 
" style="fill:none;stroke:#000000;stroke-linecap:square;stroke-width:1.5;"/>
    <g>
     <use style="fill-opacity:0;stroke:#000000;stroke-width:1.5;" x="338.688" xlink:href="#mb32e6badb4" y="251.542253"/>
     <use style="fill-opacity:0;stroke:#000000;stroke-width:1.5;" x="369.60768" xlink:href="#mb32e6badb4" y="229.105426"/>
    </g>
   </g>
   <g id="line2d_56">
    <path d="M 338.688 241.008531 
L 369.60768 164.63905 
" style="fill:none;stroke:#0000ff;stroke-linecap:square;stroke-width:1.5;"/>
    <g>
     <use style="fill-opacity:0;stroke:#0000ff;stroke-linejoin:bevel;stroke-width:1.5;" x="338.688" xlink:href="#mac3a29f636" y="241.008531"/>
     <use style="fill-opacity:0;stroke:#0000ff;stroke-linejoin:bevel;stroke-width:1.5;" x="369.60768" xlink:href="#mac3a29f636" y="164.63905"/>
    </g>
   </g>
   <g id="line2d_57">
    <path d="M 338.688 30.334099 
L 369.60768 100.172673 
" style="fill:none;stroke:#008000;stroke-linecap:square;stroke-width:1.5;"/>
    <g>
     <use style="fill-opacity:0;stroke:#008000;stroke-linejoin:miter;stroke-width:1.5;" x="338.688" xlink:href="#m1d425fe389" y="30.334099"/>
     <use style="fill-opacity:0;stroke:#008000;stroke-linejoin:miter;stroke-width:1.5;" x="369.60768" xlink:href="#m1d425fe389" y="100.172673"/>
    </g>
   </g>
   <g id="line2d_58">
    <path d="M 338.688 30.334099 
L 369.60768 35.706297 
" style="fill:none;stroke:#00bfbf;stroke-linecap:square;stroke-width:1.5;"/>
    <g>
     <use style="fill-opacity:0;stroke:#00bfbf;stroke-width:1.5;" x="338.688" xlink:href="#ma216fad8d9" y="30.334099"/>
     <use style="fill-opacity:0;stroke:#00bfbf;stroke-width:1.5;" x="369.60768" xlink:href="#ma216fad8d9" y="35.706297"/>
    </g>
   </g>
   <g id="line2d_59">
    <path d="M 338.688 298.944 
L 338.688 30.334099 
" style="fill:none;stroke:#000000;stroke-linecap:square;stroke-width:1.5;"/>
   </g>
   <g id="patch_3">
    <path d="M 57.6 298.944 
L 57.6 27.648 
" style="fill:none;stroke:#000000;stroke-linecap:square;stroke-linejoin:miter;stroke-width:0.8;"/>
   </g>
   <g id="patch_4">
    <path d="M 338.688 298.944 
L 338.688 27.648 
" style="fill:none;stroke:#000000;stroke-linecap:square;stroke-linejoin:miter;stroke-width:0.8;"/>
   </g>
   <g id="patch_5">
    <path d="M 57.6 298.944 
L 338.688 298.944 
" style="fill:none;stroke:#000000;stroke-linecap:square;stroke-linejoin:miter;stroke-width:0.8;"/>
   </g>
   <g id="patch_6">
    <path d="M 57.6 27.648 
L 338.688 27.648 
" style="fill:none;stroke:#000000;stroke-linecap:square;stroke-linejoin:miter;stroke-width:0.8;"/>
   </g>
   <g id="text_13">
    <!-- 20-D -->
    <g transform="translate(375.22944 298.262739)scale(0.17 -0.17)">
     <defs>
      <path d="M 1259 4147 
L 1259 519 
L 2022 519 
Q 2988 519 3436 956 
Q 3884 1394 3884 2338 
Q 3884 3275 3436 3711 
Q 2988 4147 2022 4147 
L 1259 4147 
z
M 628 4666 
L 1925 4666 
Q 3281 4666 3915 4102 
Q 4550 3538 4550 2338 
Q 4550 1131 3912 565 
Q 3275 0 1925 0 
L 628 0 
L 628 4666 
z
" id="DejaVuSans-44" transform="scale(0.015625)"/>
     </defs>
     <use xlink:href="#DejaVuSans-32"/>
     <use x="63.623047" xlink:href="#DejaVuSans-30"/>
     <use x="127.246094" xlink:href="#DejaVuSans-2d"/>
     <use x="163.330078" xlink:href="#DejaVuSans-44"/>
    </g>
   </g>
   <g id="text_14">
    <!-- 10-D -->
    <g transform="translate(375.22944 233.796363)scale(0.17 -0.17)">
     <use xlink:href="#DejaVuSans-31"/>
     <use x="63.623047" xlink:href="#DejaVuSans-30"/>
     <use x="127.246094" xlink:href="#DejaVuSans-2d"/>
     <use x="163.330078" xlink:href="#DejaVuSans-44"/>
    </g>
   </g>
   <g id="text_15">
    <!-- 5-D -->
    <g transform="translate(375.22944 169.329987)scale(0.17 -0.17)">
     <defs>
      <path d="M 691 4666 
L 3169 4666 
L 3169 4134 
L 1269 4134 
L 1269 2991 
Q 1406 3038 1543 3061 
Q 1681 3084 1819 3084 
Q 2600 3084 3056 2656 
Q 3513 2228 3513 1497 
Q 3513 744 3044 326 
Q 2575 -91 1722 -91 
Q 1428 -91 1123 -41 
Q 819 9 494 109 
L 494 744 
Q 775 591 1075 516 
Q 1375 441 1709 441 
Q 2250 441 2565 725 
Q 2881 1009 2881 1497 
Q 2881 1984 2565 2268 
Q 2250 2553 1709 2553 
Q 1456 2553 1204 2497 
Q 953 2441 691 2322 
L 691 4666 
z
" id="DejaVuSans-35" transform="scale(0.015625)"/>
     </defs>
     <use xlink:href="#DejaVuSans-35"/>
     <use x="63.623047" xlink:href="#DejaVuSans-2d"/>
     <use x="99.707031" xlink:href="#DejaVuSans-44"/>
    </g>
   </g>
   <g id="text_16">
    <!-- 3-D -->
    <g transform="translate(375.22944 104.863611)scale(0.17 -0.17)">
     <defs>
      <path d="M 2597 2516 
Q 3050 2419 3304 2112 
Q 3559 1806 3559 1356 
Q 3559 666 3084 287 
Q 2609 -91 1734 -91 
Q 1441 -91 1130 -33 
Q 819 25 488 141 
L 488 750 
Q 750 597 1062 519 
Q 1375 441 1716 441 
Q 2309 441 2620 675 
Q 2931 909 2931 1356 
Q 2931 1769 2642 2001 
Q 2353 2234 1838 2234 
L 1294 2234 
L 1294 2753 
L 1863 2753 
Q 2328 2753 2575 2939 
Q 2822 3125 2822 3475 
Q 2822 3834 2567 4026 
Q 2313 4219 1838 4219 
Q 1578 4219 1281 4162 
Q 984 4106 628 3988 
L 628 4550 
Q 988 4650 1302 4700 
Q 1616 4750 1894 4750 
Q 2613 4750 3031 4423 
Q 3450 4097 3450 3541 
Q 3450 3153 3228 2886 
Q 3006 2619 2597 2516 
z
" id="DejaVuSans-33" transform="scale(0.015625)"/>
     </defs>
     <use xlink:href="#DejaVuSans-33"/>
     <use x="63.623047" xlink:href="#DejaVuSans-2d"/>
     <use x="99.707031" xlink:href="#DejaVuSans-44"/>
    </g>
   </g>
   <g id="text_17">
    <!-- 2-D -->
    <g transform="translate(375.22944 40.397235)scale(0.17 -0.17)">
     <use xlink:href="#DejaVuSans-32"/>
     <use x="63.623047" xlink:href="#DejaVuSans-2d"/>
     <use x="99.707031" xlink:href="#DejaVuSans-44"/>
    </g>
   </g>
   <g id="text_18">
    <!-- bbob f3 -->
    <g transform="translate(60.41088 38.111366)scale(0.102 -0.102)">
     <defs>
      <path d="M 3116 1747 
Q 3116 2381 2855 2742 
Q 2594 3103 2138 3103 
Q 1681 3103 1420 2742 
Q 1159 2381 1159 1747 
Q 1159 1113 1420 752 
Q 1681 391 2138 391 
Q 2594 391 2855 752 
Q 3116 1113 3116 1747 
z
M 1159 2969 
Q 1341 3281 1617 3432 
Q 1894 3584 2278 3584 
Q 2916 3584 3314 3078 
Q 3713 2572 3713 1747 
Q 3713 922 3314 415 
Q 2916 -91 2278 -91 
Q 1894 -91 1617 61 
Q 1341 213 1159 525 
L 1159 0 
L 581 0 
L 581 4863 
L 1159 4863 
L 1159 2969 
z
" id="DejaVuSans-62" transform="scale(0.015625)"/>
     </defs>
     <use xlink:href="#DejaVuSans-62"/>
     <use x="63.476562" xlink:href="#DejaVuSans-62"/>
     <use x="126.953125" xlink:href="#DejaVuSans-6f"/>
     <use x="188.134766" xlink:href="#DejaVuSans-62"/>
     <use x="251.611328" xlink:href="#DejaVuSans-20"/>
     <use x="283.398438" xlink:href="#DejaVuSans-66"/>
     <use x="318.603516" xlink:href="#DejaVuSans-33"/>
    </g>
    <!-- 51 targets: 100..1e-08 -->
    <g transform="translate(60.41088 49.533135)scale(0.102 -0.102)">
     <defs>
      <path d="M 750 794 
L 1409 794 
L 1409 0 
L 750 0 
L 750 794 
z
M 750 3309 
L 1409 3309 
L 1409 2516 
L 750 2516 
L 750 3309 
z
" id="DejaVuSans-3a" transform="scale(0.015625)"/>
     </defs>
     <use xlink:href="#DejaVuSans-35"/>
     <use x="63.623047" xlink:href="#DejaVuSans-31"/>
     <use x="127.246094" xlink:href="#DejaVuSans-20"/>
     <use x="159.033203" xlink:href="#DejaVuSans-74"/>
     <use x="198.242188" xlink:href="#DejaVuSans-61"/>
     <use x="259.521484" xlink:href="#DejaVuSans-72"/>
     <use x="298.884766" xlink:href="#DejaVuSans-67"/>
     <use x="362.361328" xlink:href="#DejaVuSans-65"/>
     <use x="423.884766" xlink:href="#DejaVuSans-74"/>
     <use x="463.09375" xlink:href="#DejaVuSans-73"/>
     <use x="515.193359" xlink:href="#DejaVuSans-3a"/>
     <use x="548.884766" xlink:href="#DejaVuSans-20"/>
     <use x="580.671875" xlink:href="#DejaVuSans-31"/>
     <use x="644.294922" xlink:href="#DejaVuSans-30"/>
     <use x="707.917969" xlink:href="#DejaVuSans-30"/>
     <use x="771.541016" xlink:href="#DejaVuSans-2e"/>
     <use x="803.328125" xlink:href="#DejaVuSans-2e"/>
     <use x="835.115234" xlink:href="#DejaVuSans-31"/>
     <use x="898.738281" xlink:href="#DejaVuSans-65"/>
     <use x="960.261719" xlink:href="#DejaVuSans-2d"/>
     <use x="996.345703" xlink:href="#DejaVuSans-30"/>
     <use x="1059.96875" xlink:href="#DejaVuSans-38"/>
    </g>
    <!-- 15 instances -->
    <g transform="translate(60.41088 60.954904)scale(0.102 -0.102)">
     <use xlink:href="#DejaVuSans-31"/>
     <use x="63.623047" xlink:href="#DejaVuSans-35"/>
     <use x="127.246094" xlink:href="#DejaVuSans-20"/>
     <use x="159.033203" xlink:href="#DejaVuSans-69"/>
     <use x="186.816406" xlink:href="#DejaVuSans-6e"/>
     <use x="250.195312" xlink:href="#DejaVuSans-73"/>
     <use x="302.294922" xlink:href="#DejaVuSans-74"/>
     <use x="341.503906" xlink:href="#DejaVuSans-61"/>
     <use x="402.783203" xlink:href="#DejaVuSans-6e"/>
     <use x="466.162109" xlink:href="#DejaVuSans-63"/>
     <use x="521.142578" xlink:href="#DejaVuSans-65"/>
     <use x="582.666016" xlink:href="#DejaVuSans-73"/>
    </g>
   </g>
   <g id="text_19">
    <!-- v2.4 -->
    <g style="fill:#808080;" transform="translate(187.233062 294.151352)scale(0.1 -0.1)">
     <use xlink:href="#DejaVuSans-76"/>
     <use x="59.179688" xlink:href="#DejaVuSans-32"/>
     <use x="122.802734" xlink:href="#DejaVuSans-2e"/>
     <use x="154.589844" xlink:href="#DejaVuSans-34"/>
    </g>
   </g>
   <g id="text_20">
    <!-- 3 Rastrigin separable -->
    <g transform="translate(91.733062 21.648)scale(0.2 -0.2)">
     <defs>
      <path d="M 2841 2188 
Q 3044 2119 3236 1894 
Q 3428 1669 3622 1275 
L 4263 0 
L 3584 0 
L 2988 1197 
Q 2756 1666 2539 1819 
Q 2322 1972 1947 1972 
L 1259 1972 
L 1259 0 
L 628 0 
L 628 4666 
L 2053 4666 
Q 2853 4666 3247 4331 
Q 3641 3997 3641 3322 
Q 3641 2881 3436 2590 
Q 3231 2300 2841 2188 
z
M 1259 4147 
L 1259 2491 
L 2053 2491 
Q 2509 2491 2742 2702 
Q 2975 2913 2975 3322 
Q 2975 3731 2742 3939 
Q 2509 4147 2053 4147 
L 1259 4147 
z
" id="DejaVuSans-52" transform="scale(0.015625)"/>
     </defs>
     <use xlink:href="#DejaVuSans-33"/>
     <use x="63.623047" xlink:href="#DejaVuSans-20"/>
     <use x="95.410156" xlink:href="#DejaVuSans-52"/>
     <use x="162.642578" xlink:href="#DejaVuSans-61"/>
     <use x="223.921875" xlink:href="#DejaVuSans-73"/>
     <use x="276.021484" xlink:href="#DejaVuSans-74"/>
     <use x="315.230469" xlink:href="#DejaVuSans-72"/>
     <use x="356.34375" xlink:href="#DejaVuSans-69"/>
     <use x="384.126953" xlink:href="#DejaVuSans-67"/>
     <use x="447.603516" xlink:href="#DejaVuSans-69"/>
     <use x="475.386719" xlink:href="#DejaVuSans-6e"/>
     <use x="538.765625" xlink:href="#DejaVuSans-20"/>
     <use x="570.552734" xlink:href="#DejaVuSans-73"/>
     <use x="622.652344" xlink:href="#DejaVuSans-65"/>
     <use x="684.175781" xlink:href="#DejaVuSans-70"/>
     <use x="747.652344" xlink:href="#DejaVuSans-61"/>
     <use x="808.931641" xlink:href="#DejaVuSans-72"/>
     <use x="850.044922" xlink:href="#DejaVuSans-61"/>
     <use x="911.324219" xlink:href="#DejaVuSans-62"/>
     <use x="974.800781" xlink:href="#DejaVuSans-6c"/>
     <use x="1002.583984" xlink:href="#DejaVuSans-65"/>
    </g>
   </g>
  </g>
 </g>
 <defs>
  <clipPath id="peb37e546ab">
   <rect height="271.296" width="281.088" x="57.6" y="27.648"/>
  </clipPath>
 </defs>
</svg>
