<?xml version="1.0" encoding="utf-8" standalone="no"?>
<!DOCTYPE svg PUBLIC "-//W3C//DTD SVG 1.1//EN"
  "http://www.w3.org/Graphics/SVG/1.1/DTD/svg11.dtd">
<svg height="345.6pt" version="1.1" viewBox="0 0 460.8 345.6" width="460.8pt" xmlns="http://www.w3.org/2000/svg" xmlns:xlink="http://www.w3.org/1999/xlink">
 <metadata>
  <rdf:RDF xmlns:cc="http://creativecommons.org/ns#" xmlns:dc="http://purl.org/dc/elements/1.1/" xmlns:rdf="http://www.w3.org/1999/02/22-rdf-syntax-ns#">
   <cc:Work>
    <dc:type rdf:resource="http://purl.org/dc/dcmitype/StillImage"/>
    <dc:date>2021-07-27T16:03:54.418421</dc:date>
    <dc:format>image/svg+xml</dc:format>
    <dc:creator>
     <cc:Agent>
      <dc:title>Matplotlib v3.4.2, https://matplotlib.org/</dc:title>
     </cc:Agent>
    </dc:creator>
   </cc:Work>
  </rdf:RDF>
 </metadata>
 <defs>
  <style type="text/css">*{stroke-linecap:butt;stroke-linejoin:round;}</style>
 </defs>
 <g id="figure_1">
  <g id="patch_1">
   <path d="M 0 345.6 
L 460.8 345.6 
L 460.8 0 
L 0 0 
z
" style="fill:#ffffff;"/>
  </g>
  <g id="axes_1">
   <g id="patch_2">
    <path d="M 57.6 298.944 
L 338.688 298.944 
L 338.688 3.456 
L 57.6 3.456 
z
" style="fill:#ffffff;"/>
   </g>
   <g id="matplotlib.axis_1">
    <g id="xtick_1">
     <g id="line2d_1">
      <path clip-path="url(#pe738e83197)" d="M 57.6 298.944 
L 57.6 3.456 
" style="fill:none;stroke:#b0b0b0;stroke-linecap:square;stroke-width:0.8;"/>
     </g>
     <g id="line2d_2">
      <defs>
       <path d="M 0 0 
L 0 3.5 
" id="m29c8d4d3b4" style="stroke:#000000;stroke-width:0.8;"/>
      </defs>
      <g>
       <use style="stroke:#000000;stroke-width:0.8;" x="57.6" xlink:href="#m29c8d4d3b4" y="298.944"/>
      </g>
     </g>
     <g id="text_1">
      <!-- 0 -->
      <g transform="translate(51.2375 321.140875)scale(0.2 -0.2)">
       <defs>
        <path d="M 2034 4250 
Q 1547 4250 1301 3770 
Q 1056 3291 1056 2328 
Q 1056 1369 1301 889 
Q 1547 409 2034 409 
Q 2525 409 2770 889 
Q 3016 1369 3016 2328 
Q 3016 3291 2770 3770 
Q 2525 4250 2034 4250 
z
M 2034 4750 
Q 2819 4750 3233 4129 
Q 3647 3509 3647 2328 
Q 3647 1150 3233 529 
Q 2819 -91 2034 -91 
Q 1250 -91 836 529 
Q 422 1150 422 2328 
Q 422 3509 836 4129 
Q 1250 4750 2034 4750 
z
" id="DejaVuSans-30" transform="scale(0.015625)"/>
       </defs>
       <use xlink:href="#DejaVuSans-30"/>
      </g>
     </g>
    </g>
    <g id="xtick_2">
     <g id="line2d_3">
      <path clip-path="url(#pe738e83197)" d="M 137.910857 298.944 
L 137.910857 3.456 
" style="fill:none;stroke:#b0b0b0;stroke-linecap:square;stroke-width:0.8;"/>
     </g>
     <g id="line2d_4">
      <g>
       <use style="stroke:#000000;stroke-width:0.8;" x="137.910857" xlink:href="#m29c8d4d3b4" y="298.944"/>
      </g>
     </g>
     <g id="text_2">
      <!-- 2 -->
      <g transform="translate(131.548357 321.140875)scale(0.2 -0.2)">
       <defs>
        <path d="M 1228 531 
L 3431 531 
L 3431 0 
L 469 0 
L 469 531 
Q 828 903 1448 1529 
Q 2069 2156 2228 2338 
Q 2531 2678 2651 2914 
Q 2772 3150 2772 3378 
Q 2772 3750 2511 3984 
Q 2250 4219 1831 4219 
Q 1534 4219 1204 4116 
Q 875 4013 500 3803 
L 500 4441 
Q 881 4594 1212 4672 
Q 1544 4750 1819 4750 
Q 2544 4750 2975 4387 
Q 3406 4025 3406 3419 
Q 3406 3131 3298 2873 
Q 3191 2616 2906 2266 
Q 2828 2175 2409 1742 
Q 1991 1309 1228 531 
z
" id="DejaVuSans-32" transform="scale(0.015625)"/>
       </defs>
       <use xlink:href="#DejaVuSans-32"/>
      </g>
     </g>
    </g>
    <g id="xtick_3">
     <g id="line2d_5">
      <path clip-path="url(#pe738e83197)" d="M 218.221714 298.944 
L 218.221714 3.456 
" style="fill:none;stroke:#b0b0b0;stroke-linecap:square;stroke-width:0.8;"/>
     </g>
     <g id="line2d_6">
      <g>
       <use style="stroke:#000000;stroke-width:0.8;" x="218.221714" xlink:href="#m29c8d4d3b4" y="298.944"/>
      </g>
     </g>
     <g id="text_3">
      <!-- 4 -->
      <g transform="translate(211.859214 321.140875)scale(0.2 -0.2)">
       <defs>
        <path d="M 2419 4116 
L 825 1625 
L 2419 1625 
L 2419 4116 
z
M 2253 4666 
L 3047 4666 
L 3047 1625 
L 3713 1625 
L 3713 1100 
L 3047 1100 
L 3047 0 
L 2419 0 
L 2419 1100 
L 313 1100 
L 313 1709 
L 2253 4666 
z
" id="DejaVuSans-34" transform="scale(0.015625)"/>
       </defs>
       <use xlink:href="#DejaVuSans-34"/>
      </g>
     </g>
    </g>
    <g id="xtick_4">
     <g id="line2d_7">
      <path clip-path="url(#pe738e83197)" d="M 298.532571 298.944 
L 298.532571 3.456 
" style="fill:none;stroke:#b0b0b0;stroke-linecap:square;stroke-width:0.8;"/>
     </g>
     <g id="line2d_8">
      <g>
       <use style="stroke:#000000;stroke-width:0.8;" x="298.532571" xlink:href="#m29c8d4d3b4" y="298.944"/>
      </g>
     </g>
     <g id="text_4">
      <!-- 6 -->
      <g transform="translate(292.170071 321.140875)scale(0.2 -0.2)">
       <defs>
        <path d="M 2113 2584 
Q 1688 2584 1439 2293 
Q 1191 2003 1191 1497 
Q 1191 994 1439 701 
Q 1688 409 2113 409 
Q 2538 409 2786 701 
Q 3034 994 3034 1497 
Q 3034 2003 2786 2293 
Q 2538 2584 2113 2584 
z
M 3366 4563 
L 3366 3988 
Q 3128 4100 2886 4159 
Q 2644 4219 2406 4219 
Q 1781 4219 1451 3797 
Q 1122 3375 1075 2522 
Q 1259 2794 1537 2939 
Q 1816 3084 2150 3084 
Q 2853 3084 3261 2657 
Q 3669 2231 3669 1497 
Q 3669 778 3244 343 
Q 2819 -91 2113 -91 
Q 1303 -91 875 529 
Q 447 1150 447 2328 
Q 447 3434 972 4092 
Q 1497 4750 2381 4750 
Q 2619 4750 2861 4703 
Q 3103 4656 3366 4563 
z
" id="DejaVuSans-36" transform="scale(0.015625)"/>
       </defs>
       <use xlink:href="#DejaVuSans-36"/>
      </g>
     </g>
    </g>
    <g id="xtick_5">
     <g id="line2d_9">
      <path clip-path="url(#pe738e83197)" d="M 97.755429 298.944 
L 97.755429 3.456 
" style="fill:none;stroke:#b0b0b0;stroke-linecap:square;stroke-width:0.8;"/>
     </g>
     <g id="line2d_10">
      <defs>
       <path d="M 0 0 
L 0 2 
" id="mdc774a2766" style="stroke:#000000;stroke-width:0.6;"/>
      </defs>
      <g>
       <use style="stroke:#000000;stroke-width:0.6;" x="97.755429" xlink:href="#mdc774a2766" y="298.944"/>
      </g>
     </g>
    </g>
    <g id="xtick_6">
     <g id="line2d_11">
      <path clip-path="url(#pe738e83197)" d="M 178.066286 298.944 
L 178.066286 3.456 
" style="fill:none;stroke:#b0b0b0;stroke-linecap:square;stroke-width:0.8;"/>
     </g>
     <g id="line2d_12">
      <g>
       <use style="stroke:#000000;stroke-width:0.6;" x="178.066286" xlink:href="#mdc774a2766" y="298.944"/>
      </g>
     </g>
    </g>
    <g id="xtick_7">
     <g id="line2d_13">
      <path clip-path="url(#pe738e83197)" d="M 258.377143 298.944 
L 258.377143 3.456 
" style="fill:none;stroke:#b0b0b0;stroke-linecap:square;stroke-width:0.8;"/>
     </g>
     <g id="line2d_14">
      <g>
       <use style="stroke:#000000;stroke-width:0.6;" x="258.377143" xlink:href="#mdc774a2766" y="298.944"/>
      </g>
     </g>
    </g>
    <g id="xtick_8">
     <g id="line2d_15">
      <path clip-path="url(#pe738e83197)" d="M 338.688 298.944 
L 338.688 3.456 
" style="fill:none;stroke:#b0b0b0;stroke-linecap:square;stroke-width:0.8;"/>
     </g>
     <g id="line2d_16">
      <g>
       <use style="stroke:#000000;stroke-width:0.6;" x="338.688" xlink:href="#mdc774a2766" y="298.944"/>
      </g>
     </g>
    </g>
    <g id="text_5">
     <!-- log10(# f-evals / dimension) -->
     <g transform="translate(77.764078 342.217594)scale(0.17 -0.17)">
      <defs>
       <path d="M 603 4863 
L 1178 4863 
L 1178 0 
L 603 0 
L 603 4863 
z
" id="DejaVuSans-6c" transform="scale(0.015625)"/>
       <path d="M 1959 3097 
Q 1497 3097 1228 2736 
Q 959 2375 959 1747 
Q 959 1119 1226 758 
Q 1494 397 1959 397 
Q 2419 397 2687 759 
Q 2956 1122 2956 1747 
Q 2956 2369 2687 2733 
Q 2419 3097 1959 3097 
z
M 1959 3584 
Q 2709 3584 3137 3096 
Q 3566 2609 3566 1747 
Q 3566 888 3137 398 
Q 2709 -91 1959 -91 
Q 1206 -91 779 398 
Q 353 888 353 1747 
Q 353 2609 779 3096 
Q 1206 3584 1959 3584 
z
" id="DejaVuSans-6f" transform="scale(0.015625)"/>
       <path d="M 2906 1791 
Q 2906 2416 2648 2759 
Q 2391 3103 1925 3103 
Q 1463 3103 1205 2759 
Q 947 2416 947 1791 
Q 947 1169 1205 825 
Q 1463 481 1925 481 
Q 2391 481 2648 825 
Q 2906 1169 2906 1791 
z
M 3481 434 
Q 3481 -459 3084 -895 
Q 2688 -1331 1869 -1331 
Q 1566 -1331 1297 -1286 
Q 1028 -1241 775 -1147 
L 775 -588 
Q 1028 -725 1275 -790 
Q 1522 -856 1778 -856 
Q 2344 -856 2625 -561 
Q 2906 -266 2906 331 
L 2906 616 
Q 2728 306 2450 153 
Q 2172 0 1784 0 
Q 1141 0 747 490 
Q 353 981 353 1791 
Q 353 2603 747 3093 
Q 1141 3584 1784 3584 
Q 2172 3584 2450 3431 
Q 2728 3278 2906 2969 
L 2906 3500 
L 3481 3500 
L 3481 434 
z
" id="DejaVuSans-67" transform="scale(0.015625)"/>
       <path d="M 794 531 
L 1825 531 
L 1825 4091 
L 703 3866 
L 703 4441 
L 1819 4666 
L 2450 4666 
L 2450 531 
L 3481 531 
L 3481 0 
L 794 0 
L 794 531 
z
" id="DejaVuSans-31" transform="scale(0.015625)"/>
       <path d="M 1984 4856 
Q 1566 4138 1362 3434 
Q 1159 2731 1159 2009 
Q 1159 1288 1364 580 
Q 1569 -128 1984 -844 
L 1484 -844 
Q 1016 -109 783 600 
Q 550 1309 550 2009 
Q 550 2706 781 3412 
Q 1013 4119 1484 4856 
L 1984 4856 
z
" id="DejaVuSans-28" transform="scale(0.015625)"/>
       <path d="M 3272 2816 
L 2363 2816 
L 2100 1772 
L 3016 1772 
L 3272 2816 
z
M 2803 4594 
L 2478 3297 
L 3391 3297 
L 3719 4594 
L 4219 4594 
L 3897 3297 
L 4872 3297 
L 4872 2816 
L 3775 2816 
L 3519 1772 
L 4513 1772 
L 4513 1294 
L 3397 1294 
L 3072 0 
L 2572 0 
L 2894 1294 
L 1978 1294 
L 1656 0 
L 1153 0 
L 1478 1294 
L 494 1294 
L 494 1772 
L 1594 1772 
L 1856 2816 
L 850 2816 
L 850 3297 
L 1978 3297 
L 2297 4594 
L 2803 4594 
z
" id="DejaVuSans-23" transform="scale(0.015625)"/>
       <path id="DejaVuSans-20" transform="scale(0.015625)"/>
       <path d="M 2375 4863 
L 2375 4384 
L 1825 4384 
Q 1516 4384 1395 4259 
Q 1275 4134 1275 3809 
L 1275 3500 
L 2222 3500 
L 2222 3053 
L 1275 3053 
L 1275 0 
L 697 0 
L 697 3053 
L 147 3053 
L 147 3500 
L 697 3500 
L 697 3744 
Q 697 4328 969 4595 
Q 1241 4863 1831 4863 
L 2375 4863 
z
" id="DejaVuSans-66" transform="scale(0.015625)"/>
       <path d="M 313 2009 
L 1997 2009 
L 1997 1497 
L 313 1497 
L 313 2009 
z
" id="DejaVuSans-2d" transform="scale(0.015625)"/>
       <path d="M 3597 1894 
L 3597 1613 
L 953 1613 
Q 991 1019 1311 708 
Q 1631 397 2203 397 
Q 2534 397 2845 478 
Q 3156 559 3463 722 
L 3463 178 
Q 3153 47 2828 -22 
Q 2503 -91 2169 -91 
Q 1331 -91 842 396 
Q 353 884 353 1716 
Q 353 2575 817 3079 
Q 1281 3584 2069 3584 
Q 2775 3584 3186 3129 
Q 3597 2675 3597 1894 
z
M 3022 2063 
Q 3016 2534 2758 2815 
Q 2500 3097 2075 3097 
Q 1594 3097 1305 2825 
Q 1016 2553 972 2059 
L 3022 2063 
z
" id="DejaVuSans-65" transform="scale(0.015625)"/>
       <path d="M 191 3500 
L 800 3500 
L 1894 563 
L 2988 3500 
L 3597 3500 
L 2284 0 
L 1503 0 
L 191 3500 
z
" id="DejaVuSans-76" transform="scale(0.015625)"/>
       <path d="M 2194 1759 
Q 1497 1759 1228 1600 
Q 959 1441 959 1056 
Q 959 750 1161 570 
Q 1363 391 1709 391 
Q 2188 391 2477 730 
Q 2766 1069 2766 1631 
L 2766 1759 
L 2194 1759 
z
M 3341 1997 
L 3341 0 
L 2766 0 
L 2766 531 
Q 2569 213 2275 61 
Q 1981 -91 1556 -91 
Q 1019 -91 701 211 
Q 384 513 384 1019 
Q 384 1609 779 1909 
Q 1175 2209 1959 2209 
L 2766 2209 
L 2766 2266 
Q 2766 2663 2505 2880 
Q 2244 3097 1772 3097 
Q 1472 3097 1187 3025 
Q 903 2953 641 2809 
L 641 3341 
Q 956 3463 1253 3523 
Q 1550 3584 1831 3584 
Q 2591 3584 2966 3190 
Q 3341 2797 3341 1997 
z
" id="DejaVuSans-61" transform="scale(0.015625)"/>
       <path d="M 2834 3397 
L 2834 2853 
Q 2591 2978 2328 3040 
Q 2066 3103 1784 3103 
Q 1356 3103 1142 2972 
Q 928 2841 928 2578 
Q 928 2378 1081 2264 
Q 1234 2150 1697 2047 
L 1894 2003 
Q 2506 1872 2764 1633 
Q 3022 1394 3022 966 
Q 3022 478 2636 193 
Q 2250 -91 1575 -91 
Q 1294 -91 989 -36 
Q 684 19 347 128 
L 347 722 
Q 666 556 975 473 
Q 1284 391 1588 391 
Q 1994 391 2212 530 
Q 2431 669 2431 922 
Q 2431 1156 2273 1281 
Q 2116 1406 1581 1522 
L 1381 1569 
Q 847 1681 609 1914 
Q 372 2147 372 2553 
Q 372 3047 722 3315 
Q 1072 3584 1716 3584 
Q 2034 3584 2315 3537 
Q 2597 3491 2834 3397 
z
" id="DejaVuSans-73" transform="scale(0.015625)"/>
       <path d="M 1625 4666 
L 2156 4666 
L 531 -594 
L 0 -594 
L 1625 4666 
z
" id="DejaVuSans-2f" transform="scale(0.015625)"/>
       <path d="M 2906 2969 
L 2906 4863 
L 3481 4863 
L 3481 0 
L 2906 0 
L 2906 525 
Q 2725 213 2448 61 
Q 2172 -91 1784 -91 
Q 1150 -91 751 415 
Q 353 922 353 1747 
Q 353 2572 751 3078 
Q 1150 3584 1784 3584 
Q 2172 3584 2448 3432 
Q 2725 3281 2906 2969 
z
M 947 1747 
Q 947 1113 1208 752 
Q 1469 391 1925 391 
Q 2381 391 2643 752 
Q 2906 1113 2906 1747 
Q 2906 2381 2643 2742 
Q 2381 3103 1925 3103 
Q 1469 3103 1208 2742 
Q 947 2381 947 1747 
z
" id="DejaVuSans-64" transform="scale(0.015625)"/>
       <path d="M 603 3500 
L 1178 3500 
L 1178 0 
L 603 0 
L 603 3500 
z
M 603 4863 
L 1178 4863 
L 1178 4134 
L 603 4134 
L 603 4863 
z
" id="DejaVuSans-69" transform="scale(0.015625)"/>
       <path d="M 3328 2828 
Q 3544 3216 3844 3400 
Q 4144 3584 4550 3584 
Q 5097 3584 5394 3201 
Q 5691 2819 5691 2113 
L 5691 0 
L 5113 0 
L 5113 2094 
Q 5113 2597 4934 2840 
Q 4756 3084 4391 3084 
Q 3944 3084 3684 2787 
Q 3425 2491 3425 1978 
L 3425 0 
L 2847 0 
L 2847 2094 
Q 2847 2600 2669 2842 
Q 2491 3084 2119 3084 
Q 1678 3084 1418 2786 
Q 1159 2488 1159 1978 
L 1159 0 
L 581 0 
L 581 3500 
L 1159 3500 
L 1159 2956 
Q 1356 3278 1631 3431 
Q 1906 3584 2284 3584 
Q 2666 3584 2933 3390 
Q 3200 3197 3328 2828 
z
" id="DejaVuSans-6d" transform="scale(0.015625)"/>
       <path d="M 3513 2113 
L 3513 0 
L 2938 0 
L 2938 2094 
Q 2938 2591 2744 2837 
Q 2550 3084 2163 3084 
Q 1697 3084 1428 2787 
Q 1159 2491 1159 1978 
L 1159 0 
L 581 0 
L 581 3500 
L 1159 3500 
L 1159 2956 
Q 1366 3272 1645 3428 
Q 1925 3584 2291 3584 
Q 2894 3584 3203 3211 
Q 3513 2838 3513 2113 
z
" id="DejaVuSans-6e" transform="scale(0.015625)"/>
       <path d="M 513 4856 
L 1013 4856 
Q 1481 4119 1714 3412 
Q 1947 2706 1947 2009 
Q 1947 1309 1714 600 
Q 1481 -109 1013 -844 
L 513 -844 
Q 928 -128 1133 580 
Q 1338 1288 1338 2009 
Q 1338 2731 1133 3434 
Q 928 4138 513 4856 
z
" id="DejaVuSans-29" transform="scale(0.015625)"/>
      </defs>
      <use xlink:href="#DejaVuSans-6c"/>
      <use x="27.783203" xlink:href="#DejaVuSans-6f"/>
      <use x="88.964844" xlink:href="#DejaVuSans-67"/>
      <use x="152.441406" xlink:href="#DejaVuSans-31"/>
      <use x="216.064453" xlink:href="#DejaVuSans-30"/>
      <use x="279.6875" xlink:href="#DejaVuSans-28"/>
      <use x="318.701172" xlink:href="#DejaVuSans-23"/>
      <use x="402.490234" xlink:href="#DejaVuSans-20"/>
      <use x="434.277344" xlink:href="#DejaVuSans-66"/>
      <use x="463.982422" xlink:href="#DejaVuSans-2d"/>
      <use x="500.066406" xlink:href="#DejaVuSans-65"/>
      <use x="561.589844" xlink:href="#DejaVuSans-76"/>
      <use x="620.769531" xlink:href="#DejaVuSans-61"/>
      <use x="682.048828" xlink:href="#DejaVuSans-6c"/>
      <use x="709.832031" xlink:href="#DejaVuSans-73"/>
      <use x="761.931641" xlink:href="#DejaVuSans-20"/>
      <use x="793.71875" xlink:href="#DejaVuSans-2f"/>
      <use x="827.410156" xlink:href="#DejaVuSans-20"/>
      <use x="859.197266" xlink:href="#DejaVuSans-64"/>
      <use x="922.673828" xlink:href="#DejaVuSans-69"/>
      <use x="950.457031" xlink:href="#DejaVuSans-6d"/>
      <use x="1047.869141" xlink:href="#DejaVuSans-65"/>
      <use x="1109.392578" xlink:href="#DejaVuSans-6e"/>
      <use x="1172.771484" xlink:href="#DejaVuSans-73"/>
      <use x="1224.871094" xlink:href="#DejaVuSans-69"/>
      <use x="1252.654297" xlink:href="#DejaVuSans-6f"/>
      <use x="1313.835938" xlink:href="#DejaVuSans-6e"/>
      <use x="1377.214844" xlink:href="#DejaVuSans-29"/>
     </g>
    </g>
   </g>
   <g id="matplotlib.axis_2">
    <g id="ytick_1">
     <g id="line2d_17">
      <path clip-path="url(#pe738e83197)" d="M 57.6 298.944 
L 338.688 298.944 
" style="fill:none;stroke:#b0b0b0;stroke-linecap:square;stroke-width:0.8;"/>
     </g>
     <g id="line2d_18">
      <defs>
       <path d="M 0 0 
L -3.5 0 
" id="m389972f3c0" style="stroke:#000000;stroke-width:0.8;"/>
      </defs>
      <g>
       <use style="stroke:#000000;stroke-width:0.8;" x="57.6" xlink:href="#m389972f3c0" y="298.944"/>
      </g>
     </g>
     <g id="text_6">
      <!-- 0.0 -->
      <g transform="translate(25.155 305.02275)scale(0.16 -0.16)">
       <defs>
        <path d="M 684 794 
L 1344 794 
L 1344 0 
L 684 0 
L 684 794 
z
" id="DejaVuSans-2e" transform="scale(0.015625)"/>
       </defs>
       <use xlink:href="#DejaVuSans-30"/>
       <use x="63.623047" xlink:href="#DejaVuSans-2e"/>
       <use x="95.410156" xlink:href="#DejaVuSans-30"/>
      </g>
     </g>
    </g>
    <g id="ytick_2">
     <g id="line2d_19">
      <path clip-path="url(#pe738e83197)" d="M 57.6 240.431525 
L 338.688 240.431525 
" style="fill:none;stroke:#b0b0b0;stroke-linecap:square;stroke-width:0.8;"/>
     </g>
     <g id="line2d_20">
      <g>
       <use style="stroke:#000000;stroke-width:0.8;" x="57.6" xlink:href="#m389972f3c0" y="240.431525"/>
      </g>
     </g>
     <g id="text_7">
      <!-- 0.2 -->
      <g transform="translate(25.155 246.510275)scale(0.16 -0.16)">
       <use xlink:href="#DejaVuSans-30"/>
       <use x="63.623047" xlink:href="#DejaVuSans-2e"/>
       <use x="95.410156" xlink:href="#DejaVuSans-32"/>
      </g>
     </g>
    </g>
    <g id="ytick_3">
     <g id="line2d_21">
      <path clip-path="url(#pe738e83197)" d="M 57.6 181.91905 
L 338.688 181.91905 
" style="fill:none;stroke:#b0b0b0;stroke-linecap:square;stroke-width:0.8;"/>
     </g>
     <g id="line2d_22">
      <g>
       <use style="stroke:#000000;stroke-width:0.8;" x="57.6" xlink:href="#m389972f3c0" y="181.91905"/>
      </g>
     </g>
     <g id="text_8">
      <!-- 0.4 -->
      <g transform="translate(25.155 187.9978)scale(0.16 -0.16)">
       <use xlink:href="#DejaVuSans-30"/>
       <use x="63.623047" xlink:href="#DejaVuSans-2e"/>
       <use x="95.410156" xlink:href="#DejaVuSans-34"/>
      </g>
     </g>
    </g>
    <g id="ytick_4">
     <g id="line2d_23">
      <path clip-path="url(#pe738e83197)" d="M 57.6 123.406574 
L 338.688 123.406574 
" style="fill:none;stroke:#b0b0b0;stroke-linecap:square;stroke-width:0.8;"/>
     </g>
     <g id="line2d_24">
      <g>
       <use style="stroke:#000000;stroke-width:0.8;" x="57.6" xlink:href="#m389972f3c0" y="123.406574"/>
      </g>
     </g>
     <g id="text_9">
      <!-- 0.6 -->
      <g transform="translate(25.155 129.485324)scale(0.16 -0.16)">
       <use xlink:href="#DejaVuSans-30"/>
       <use x="63.623047" xlink:href="#DejaVuSans-2e"/>
       <use x="95.410156" xlink:href="#DejaVuSans-36"/>
      </g>
     </g>
    </g>
    <g id="ytick_5">
     <g id="line2d_25">
      <path clip-path="url(#pe738e83197)" d="M 57.6 64.894099 
L 338.688 64.894099 
" style="fill:none;stroke:#b0b0b0;stroke-linecap:square;stroke-width:0.8;"/>
     </g>
     <g id="line2d_26">
      <g>
       <use style="stroke:#000000;stroke-width:0.8;" x="57.6" xlink:href="#m389972f3c0" y="64.894099"/>
      </g>
     </g>
     <g id="text_10">
      <!-- 0.8 -->
      <g transform="translate(25.155 70.972849)scale(0.16 -0.16)">
       <defs>
        <path d="M 2034 2216 
Q 1584 2216 1326 1975 
Q 1069 1734 1069 1313 
Q 1069 891 1326 650 
Q 1584 409 2034 409 
Q 2484 409 2743 651 
Q 3003 894 3003 1313 
Q 3003 1734 2745 1975 
Q 2488 2216 2034 2216 
z
M 1403 2484 
Q 997 2584 770 2862 
Q 544 3141 544 3541 
Q 544 4100 942 4425 
Q 1341 4750 2034 4750 
Q 2731 4750 3128 4425 
Q 3525 4100 3525 3541 
Q 3525 3141 3298 2862 
Q 3072 2584 2669 2484 
Q 3125 2378 3379 2068 
Q 3634 1759 3634 1313 
Q 3634 634 3220 271 
Q 2806 -91 2034 -91 
Q 1263 -91 848 271 
Q 434 634 434 1313 
Q 434 1759 690 2068 
Q 947 2378 1403 2484 
z
M 1172 3481 
Q 1172 3119 1398 2916 
Q 1625 2713 2034 2713 
Q 2441 2713 2670 2916 
Q 2900 3119 2900 3481 
Q 2900 3844 2670 4047 
Q 2441 4250 2034 4250 
Q 1625 4250 1398 4047 
Q 1172 3844 1172 3481 
z
" id="DejaVuSans-38" transform="scale(0.015625)"/>
       </defs>
       <use xlink:href="#DejaVuSans-30"/>
       <use x="63.623047" xlink:href="#DejaVuSans-2e"/>
       <use x="95.410156" xlink:href="#DejaVuSans-38"/>
      </g>
     </g>
    </g>
    <g id="ytick_6">
     <g id="line2d_27">
      <path clip-path="url(#pe738e83197)" d="M 57.6 6.381624 
L 338.688 6.381624 
" style="fill:none;stroke:#b0b0b0;stroke-linecap:square;stroke-width:0.8;"/>
     </g>
     <g id="line2d_28">
      <g>
       <use style="stroke:#000000;stroke-width:0.8;" x="57.6" xlink:href="#m389972f3c0" y="6.381624"/>
      </g>
     </g>
     <g id="text_11">
      <!-- 1.0 -->
      <g transform="translate(25.155 12.460374)scale(0.16 -0.16)">
       <use xlink:href="#DejaVuSans-31"/>
       <use x="63.623047" xlink:href="#DejaVuSans-2e"/>
       <use x="95.410156" xlink:href="#DejaVuSans-30"/>
      </g>
     </g>
    </g>
    <g id="text_12">
     <!-- Fraction of function,target pairs -->
     <g transform="translate(17.619531 285.585)rotate(-90)scale(0.17 -0.17)">
      <defs>
       <path d="M 628 4666 
L 3309 4666 
L 3309 4134 
L 1259 4134 
L 1259 2759 
L 3109 2759 
L 3109 2228 
L 1259 2228 
L 1259 0 
L 628 0 
L 628 4666 
z
" id="DejaVuSans-46" transform="scale(0.015625)"/>
       <path d="M 2631 2963 
Q 2534 3019 2420 3045 
Q 2306 3072 2169 3072 
Q 1681 3072 1420 2755 
Q 1159 2438 1159 1844 
L 1159 0 
L 581 0 
L 581 3500 
L 1159 3500 
L 1159 2956 
Q 1341 3275 1631 3429 
Q 1922 3584 2338 3584 
Q 2397 3584 2469 3576 
Q 2541 3569 2628 3553 
L 2631 2963 
z
" id="DejaVuSans-72" transform="scale(0.015625)"/>
       <path d="M 3122 3366 
L 3122 2828 
Q 2878 2963 2633 3030 
Q 2388 3097 2138 3097 
Q 1578 3097 1268 2742 
Q 959 2388 959 1747 
Q 959 1106 1268 751 
Q 1578 397 2138 397 
Q 2388 397 2633 464 
Q 2878 531 3122 666 
L 3122 134 
Q 2881 22 2623 -34 
Q 2366 -91 2075 -91 
Q 1284 -91 818 406 
Q 353 903 353 1747 
Q 353 2603 823 3093 
Q 1294 3584 2113 3584 
Q 2378 3584 2631 3529 
Q 2884 3475 3122 3366 
z
" id="DejaVuSans-63" transform="scale(0.015625)"/>
       <path d="M 1172 4494 
L 1172 3500 
L 2356 3500 
L 2356 3053 
L 1172 3053 
L 1172 1153 
Q 1172 725 1289 603 
Q 1406 481 1766 481 
L 2356 481 
L 2356 0 
L 1766 0 
Q 1100 0 847 248 
Q 594 497 594 1153 
L 594 3053 
L 172 3053 
L 172 3500 
L 594 3500 
L 594 4494 
L 1172 4494 
z
" id="DejaVuSans-74" transform="scale(0.015625)"/>
       <path d="M 544 1381 
L 544 3500 
L 1119 3500 
L 1119 1403 
Q 1119 906 1312 657 
Q 1506 409 1894 409 
Q 2359 409 2629 706 
Q 2900 1003 2900 1516 
L 2900 3500 
L 3475 3500 
L 3475 0 
L 2900 0 
L 2900 538 
Q 2691 219 2414 64 
Q 2138 -91 1772 -91 
Q 1169 -91 856 284 
Q 544 659 544 1381 
z
M 1991 3584 
L 1991 3584 
z
" id="DejaVuSans-75" transform="scale(0.015625)"/>
       <path d="M 750 794 
L 1409 794 
L 1409 256 
L 897 -744 
L 494 -744 
L 750 256 
L 750 794 
z
" id="DejaVuSans-2c" transform="scale(0.015625)"/>
       <path d="M 1159 525 
L 1159 -1331 
L 581 -1331 
L 581 3500 
L 1159 3500 
L 1159 2969 
Q 1341 3281 1617 3432 
Q 1894 3584 2278 3584 
Q 2916 3584 3314 3078 
Q 3713 2572 3713 1747 
Q 3713 922 3314 415 
Q 2916 -91 2278 -91 
Q 1894 -91 1617 61 
Q 1341 213 1159 525 
z
M 3116 1747 
Q 3116 2381 2855 2742 
Q 2594 3103 2138 3103 
Q 1681 3103 1420 2742 
Q 1159 2381 1159 1747 
Q 1159 1113 1420 752 
Q 1681 391 2138 391 
Q 2594 391 2855 752 
Q 3116 1113 3116 1747 
z
" id="DejaVuSans-70" transform="scale(0.015625)"/>
      </defs>
      <use xlink:href="#DejaVuSans-46"/>
      <use x="50.269531" xlink:href="#DejaVuSans-72"/>
      <use x="91.382812" xlink:href="#DejaVuSans-61"/>
      <use x="152.662109" xlink:href="#DejaVuSans-63"/>
      <use x="207.642578" xlink:href="#DejaVuSans-74"/>
      <use x="246.851562" xlink:href="#DejaVuSans-69"/>
      <use x="274.634766" xlink:href="#DejaVuSans-6f"/>
      <use x="335.816406" xlink:href="#DejaVuSans-6e"/>
      <use x="399.195312" xlink:href="#DejaVuSans-20"/>
      <use x="430.982422" xlink:href="#DejaVuSans-6f"/>
      <use x="492.164062" xlink:href="#DejaVuSans-66"/>
      <use x="527.369141" xlink:href="#DejaVuSans-20"/>
      <use x="559.15625" xlink:href="#DejaVuSans-66"/>
      <use x="594.361328" xlink:href="#DejaVuSans-75"/>
      <use x="657.740234" xlink:href="#DejaVuSans-6e"/>
      <use x="721.119141" xlink:href="#DejaVuSans-63"/>
      <use x="776.099609" xlink:href="#DejaVuSans-74"/>
      <use x="815.308594" xlink:href="#DejaVuSans-69"/>
      <use x="843.091797" xlink:href="#DejaVuSans-6f"/>
      <use x="904.273438" xlink:href="#DejaVuSans-6e"/>
      <use x="967.652344" xlink:href="#DejaVuSans-2c"/>
      <use x="999.439453" xlink:href="#DejaVuSans-74"/>
      <use x="1038.648438" xlink:href="#DejaVuSans-61"/>
      <use x="1099.927734" xlink:href="#DejaVuSans-72"/>
      <use x="1139.291016" xlink:href="#DejaVuSans-67"/>
      <use x="1202.767578" xlink:href="#DejaVuSans-65"/>
      <use x="1264.291016" xlink:href="#DejaVuSans-74"/>
      <use x="1303.5" xlink:href="#DejaVuSans-20"/>
      <use x="1335.287109" xlink:href="#DejaVuSans-70"/>
      <use x="1398.763672" xlink:href="#DejaVuSans-61"/>
      <use x="1460.042969" xlink:href="#DejaVuSans-69"/>
      <use x="1487.826172" xlink:href="#DejaVuSans-72"/>
      <use x="1528.939453" xlink:href="#DejaVuSans-73"/>
     </g>
    </g>
   </g>
   <g id="line2d_29">
    <defs>
     <path d="M 0 1.5 
C 0.397805 1.5 0.77937 1.341951 1.06066 1.06066 
C 1.341951 0.77937 1.5 0.397805 1.5 0 
C 1.5 -0.397805 1.341951 -0.77937 1.06066 -1.06066 
C 0.77937 -1.341951 0.397805 -1.5 0 -1.5 
C -0.397805 -1.5 -0.77937 -1.341951 -1.06066 -1.06066 
C -1.341951 -0.77937 -1.5 -0.397805 -1.5 0 
C -1.5 0.397805 -1.341951 0.77937 -1.06066 1.06066 
C -0.77937 1.341951 -0.397805 1.5 0 1.5 
z
" id="md72cc4395a" style="stroke:#000080;"/>
    </defs>
    <g>
     <use style="fill:#000080;stroke:#000080;" x="185.436997" xlink:href="#md72cc4395a" y="6.381624"/>
     <use style="fill:#000080;stroke:#000080;" x="185.436997" xlink:href="#md72cc4395a" y="6.381624"/>
    </g>
   </g>
   <g id="line2d_30">
    <path d="M 38.440992 298.944 
L 38.440992 296.649393 
L 50.52898 296.649393 
L 50.52898 296.075741 
L 57.6 296.075741 
L 57.6 293.781135 
L 62.616969 293.781135 
L 62.616969 293.207483 
L 66.508432 293.207483 
L 66.508432 292.633831 
L 69.687988 292.633831 
L 69.687988 291.486528 
L 72.376266 291.486528 
L 72.376266 290.912876 
L 76.759008 290.912876 
L 76.759008 290.339224 
L 81.775977 290.339224 
L 81.775977 289.765573 
L 86.792945 289.765573 
L 86.792945 288.618269 
L 87.850195 288.618269 
L 87.850195 288.044617 
L 91.535274 288.044617 
L 91.535274 287.470966 
L 92.34655 287.470966 
L 92.34655 286.897314 
L 96.552242 286.897314 
L 96.552242 286.323662 
L 98.880934 286.323662 
L 98.880934 285.75001 
L 99.41757 285.75001 
L 99.41757 283.455404 
L 104.826449 283.455404 
L 104.826449 282.3081 
L 110.968922 282.3081 
L 110.968922 280.013493 
L 112.280765 280.013493 
L 112.280765 279.439842 
L 119.43583 279.439842 
L 119.43583 278.86619 
L 119.768017 278.86619 
L 119.768017 277.718886 
L 119.931767 277.718886 
L 119.931767 277.145235 
L 120.571812 277.145235 
L 120.571812 274.850628 
L 120.728219 274.850628 
L 120.728219 274.276976 
L 120.883236 274.276976 
L 120.883236 273.129673 
L 121.931406 273.129673 
L 121.931406 272.556021 
L 122.503236 272.556021 
L 122.503236 271.408718 
L 123.593547 271.408718 
L 123.593547 270.261414 
L 123.855796 270.261414 
L 123.855796 269.687762 
L 124.494669 269.687762 
L 124.494669 269.114111 
L 126.618283 269.114111 
L 126.618283 267.966807 
L 127.272333 267.966807 
L 127.272333 266.819504 
L 128.709321 266.819504 
L 128.709321 266.245852 
L 130.127931 266.245852 
L 130.127931 265.6722 
L 130.926816 265.6722 
L 131.013364 263.951245 
L 132.181982 263.951245 
L 132.262533 261.656638 
L 133.652238 261.656638 
L 133.72629 259.362031 
L 134.091907 259.362031 
L 134.091907 257.641076 
L 134.236034 257.641076 
L 134.236034 257.067425 
L 135.415281 257.067425 
L 135.415281 255.920121 
L 137.077422 255.920121 
L 137.077422 255.346469 
L 137.319638 255.346469 
L 137.319638 254.772818 
L 138.816998 254.772818 
L 138.816998 254.199166 
L 139.090775 254.199166 
L 139.199094 253.051863 
L 139.466984 253.051863 
L 139.466984 252.478211 
L 139.783113 252.478211 
L 139.835248 250.757256 
L 141.426256 250.757256 
L 141.521035 249.609952 
L 143.144465 249.609952 
L 143.144465 249.036301 
L 143.569835 249.036301 
L 143.569835 248.462649 
L 144.107744 248.462649 
L 144.107744 247.315345 
L 144.390658 247.315345 
L 144.390658 246.741694 
L 145.403044 246.741694 
L 145.403044 244.447087 
L 146.071013 244.447087 
L 146.071013 243.873435 
L 147.334773 243.873435 
L 147.334773 242.726132 
L 147.636905 242.726132 
L 147.636905 242.15248 
L 147.901141 242.15248 
L 147.96658 241.005176 
L 148.096724 241.005176 
L 148.096724 240.431525 
L 148.48143 240.431525 
L 148.48143 239.857873 
L 149.437669 239.857873 
L 149.437669 238.71057 
L 149.911431 238.71057 
L 149.911431 238.136918 
L 150.229833 238.136918 
L 150.287105 235.268659 
L 150.598782 235.268659 
L 150.598782 233.547704 
L 150.710752 233.547704 
L 150.710752 232.400401 
L 151.151579 232.400401 
L 151.151579 231.826749 
L 151.76636 231.826749 
L 151.871101 230.679446 
L 151.897188 230.679446 
L 151.897188 229.532142 
L 153.008024 229.532142 
L 153.008024 228.384839 
L 153.29909 228.384839 
L 153.347132 226.090232 
L 153.913546 226.090232 
L 153.913546 225.51658 
L 155.253971 225.51658 
L 155.361158 223.221973 
L 155.488919 223.221973 
L 155.594676 219.780063 
L 155.804285 219.780063 
L 155.804285 219.206411 
L 156.011405 219.206411 
L 156.011405 218.632759 
L 156.216093 218.632759 
L 156.216093 218.059108 
L 156.677955 218.059108 
L 156.677955 217.485456 
L 157.011638 217.485456 
L 157.108577 215.190849 
L 157.453162 215.190849 
L 157.491032 212.896242 
L 158.195371 212.896242 
L 158.195371 211.748939 
L 158.924708 211.748939 
L 158.924708 211.175287 
L 159.080804 211.175287 
L 159.184097 210.027984 
L 159.252621 210.027984 
L 159.252621 209.454332 
L 160.569418 209.454332 
L 160.569418 207.733377 
L 160.821253 207.733377 
L 160.821253 207.159725 
L 160.961329 207.159725 
L 161.069504 204.291467 
L 161.146363 204.291467 
L 161.146363 202.570511 
L 161.465522 202.570511 
L 161.465522 201.99686 
L 161.999419 201.99686 
L 162.101361 200.275904 
L 162.144868 200.275904 
L 162.144868 199.702253 
L 162.289115 199.702253 
L 162.375093 198.554949 
L 162.854457 198.554949 
L 162.854457 197.407646 
L 163.320996 197.407646 
L 163.428979 194.539387 
L 163.696049 194.539387 
L 163.748975 193.392084 
L 163.8937 193.392084 
L 163.906798 191.671129 
L 164.024234 191.671129 
L 164.024234 191.097477 
L 164.166702 191.097477 
L 164.166702 190.523825 
L 164.308016 190.523825 
L 164.35912 188.80287 
L 164.536814 188.80287 
L 164.574657 187.081915 
L 165.022481 187.081915 
L 165.022481 186.508263 
L 165.338904 186.508263 
L 165.338904 185.36096 
L 165.708824 185.36096 
L 165.803027 184.213656 
L 166.300829 184.213656 
L 166.380539 180.198094 
L 166.527611 180.198094 
L 166.550128 178.477139 
L 166.7626 178.477139 
L 166.818087 176.756184 
L 167.125588 176.756184 
L 167.125588 176.182532 
L 167.266534 176.182532 
L 167.341959 172.16697 
L 167.427761 172.16697 
L 167.481174 169.872363 
L 167.808732 169.872363 
L 167.808732 169.298712 
L 167.996141 169.298712 
L 167.996141 168.72506 
L 168.242927 168.72506 
L 168.293904 165.856801 
L 168.425752 165.856801 
L 168.425752 164.709498 
L 168.576655 164.709498 
L 168.646632 163.562195 
L 168.835167 163.562195 
L 168.923766 161.841239 
L 169.157854 161.841239 
L 169.206229 160.693936 
L 169.66393 160.693936 
L 169.66393 158.972981 
L 169.813865 158.972981 
L 169.916203 157.825677 
L 170.201421 157.825677 
L 170.265184 155.53107 
L 170.382987 155.53107 
L 170.482048 153.236464 
L 170.571619 153.236464 
L 170.660731 150.941857 
L 170.88154 150.941857 
L 170.942869 149.220902 
L 171.064884 149.220902 
L 171.168792 146.926295 
L 171.263501 146.926295 
L 171.357698 143.484384 
L 171.612043 143.484384 
L 171.612043 142.910733 
L 171.812882 142.910733 
L 171.854434 141.189778 
L 171.937241 141.189778 
L 172.003206 138.895171 
L 172.093501 138.895171 
L 172.093501 137.747867 
L 172.490141 137.747867 
L 172.490141 137.174215 
L 172.704904 137.174215 
L 172.720707 136.026912 
L 172.870132 136.026912 
L 172.932666 134.305957 
L 173.049317 134.305957 
L 173.049317 133.732305 
L 173.219006 133.732305 
L 173.326137 132.01135 
L 173.379457 132.01135 
L 173.485609 129.143091 
L 173.591119 129.143091 
L 173.591119 128.56944 
L 173.837325 128.56944 
L 173.911252 127.422136 
L 174.174823 127.422136 
L 174.174823 125.701181 
L 174.348349 125.701181 
L 174.441627 123.406574 
L 174.662065 123.406574 
L 174.767737 122.259271 
L 174.788794 122.259271 
L 174.788794 121.685619 
L 174.907643 121.685619 
L 174.984116 118.817361 
L 175.067161 118.817361 
L 175.129186 117.670057 
L 175.23891 117.670057 
L 175.23891 116.522754 
L 175.624287 116.522754 
L 175.691027 111.359888 
L 175.750876 111.359888 
L 175.817135 108.49163 
L 175.916053 108.49163 
L 175.916053 107.917978 
L 176.053603 107.917978 
L 176.053603 107.344326 
L 176.241787 107.344326 
L 176.312639 105.623371 
L 176.719257 105.623371 
L 176.719257 105.049719 
L 176.894213 105.049719 
L 176.950079 101.607809 
L 177.067432 101.607809 
L 177.153401 98.73955 
L 177.208443 98.73955 
L 177.263313 95.871292 
L 177.523109 95.871292 
L 177.582976 90.134775 
L 177.636682 90.134775 
L 177.708032 87.840168 
L 178.043018 87.840168 
L 178.153265 82.103651 
L 178.193707 82.103651 
L 178.285796 79.235392 
L 178.325932 79.235392 
L 178.325932 78.088089 
L 178.44579 78.088089 
L 178.457163 76.940785 
L 178.649364 76.940785 
L 178.654985 74.072526 
L 178.83947 74.072526 
L 178.83947 72.925223 
L 179.202687 72.925223 
L 179.24077 71.204268 
L 179.327506 71.204268 
L 179.429948 67.762358 
L 179.585155 67.762358 
L 179.585155 67.188706 
L 179.76538 67.188706 
L 179.875772 63.746796 
L 180.104829 63.746796 
L 180.182234 61.452189 
L 180.284908 61.452189 
L 180.310483 60.304885 
L 180.422568 60.304885 
L 180.422568 59.731234 
L 180.639584 59.731234 
L 180.639584 57.436627 
L 180.774482 57.436627 
L 180.774482 55.715672 
L 180.928089 55.715672 
L 181.021571 54.568368 
L 181.041188 54.568368 
L 181.080356 52.273761 
L 181.177891 52.273761 
L 181.260369 48.831851 
L 181.356906 48.831851 
L 181.409774 43.095334 
L 181.524569 43.095334 
L 181.633877 41.94803 
L 181.667009 41.94803 
L 181.766029 40.227075 
L 181.906518 40.227075 
L 182.008829 39.079772 
L 182.179555 39.079772 
L 182.179555 38.50612 
L 182.434813 38.50612 
L 182.511569 35.06421 
L 182.547572 35.06421 
L 182.6104 33.916906 
L 182.664074 33.916906 
L 182.753163 29.901344 
L 182.8064 29.901344 
L 182.88154 27.606737 
L 182.92559 27.606737 
L 183.026484 26.459434 
L 183.144185 26.459434 
L 183.226538 24.738479 
L 183.3042 24.738479 
L 183.31711 23.017524 
L 183.424323 23.017524 
L 183.492595 20.149265 
L 183.892548 20.149265 
L 183.967306 16.133703 
L 184.033489 16.133703 
L 184.049996 14.412748 
L 184.144607 14.412748 
L 184.242788 12.118141 
L 184.303871 12.118141 
L 184.36069 10.397186 
L 184.485848 10.397186 
L 184.509968 8.676231 
L 184.75332 8.676231 
L 184.824485 6.955275 
L 185.436997 6.955275 
L 185.436997 6.381624 
L 338.688 6.381624 
L 338.688 6.381624 
" style="fill:none;stroke:#000080;stroke-linecap:square;stroke-width:1.5;"/>
   </g>
   <g id="line2d_31">
    <defs>
     <path d="M 0 6 
C 1.591219 6 3.117479 5.367802 4.242641 4.242641 
C 5.367802 3.117479 6 1.591219 6 0 
C 6 -1.591219 5.367802 -3.117479 4.242641 -4.242641 
C 3.117479 -5.367802 1.591219 -6 0 -6 
C -1.591219 -6 -3.117479 -5.367802 -4.242641 -4.242641 
C -5.367802 -3.117479 -6 -1.591219 -6 0 
C -6 1.591219 -5.367802 3.117479 -4.242641 4.242641 
C -3.117479 5.367802 -1.591219 6 0 6 
z
" id="m51a67e5901" style="stroke:#000080;stroke-width:1.5;"/>
    </defs>
    <g>
     <use style="fill-opacity:0;stroke:#000080;stroke-width:1.5;" x="153.913546" xlink:href="#m51a67e5901" y="226.090232"/>
     <use style="fill-opacity:0;stroke:#000080;stroke-width:1.5;" x="172.490141" xlink:href="#m51a67e5901" y="137.747867"/>
     <use style="fill-opacity:0;stroke:#000080;stroke-width:1.5;" x="185.436997" xlink:href="#m51a67e5901" y="6.955275"/>
     <use style="fill-opacity:0;stroke:#000080;stroke-width:1.5;" x="185.436997" xlink:href="#m51a67e5901" y="6.381624"/>
     <use style="fill-opacity:0;stroke:#000080;stroke-width:1.5;" x="185.436997" xlink:href="#m51a67e5901" y="6.381624"/>
     <use style="fill-opacity:0;stroke:#000080;stroke-width:1.5;" x="338.688" xlink:href="#m51a67e5901" y="6.381624"/>
    </g>
   </g>
   <g id="line2d_32">
    <path style="fill:none;stroke:#000080;stroke-linecap:square;stroke-width:1.5;"/>
    <g/>
   </g>
   <g id="line2d_33">
    <defs>
     <path d="M 0 1.5 
C 0.397805 1.5 0.77937 1.341951 1.06066 1.06066 
C 1.341951 0.77937 1.5 0.397805 1.5 0 
C 1.5 -0.397805 1.341951 -0.77937 1.06066 -1.06066 
C 0.77937 -1.341951 0.397805 -1.5 0 -1.5 
C -0.397805 -1.5 -0.77937 -1.341951 -1.06066 -1.06066 
C -1.341951 -0.77937 -1.5 -0.397805 -1.5 0 
C -1.5 0.397805 -1.341951 0.77937 -1.06066 1.06066 
C -0.77937 1.341951 -0.397805 1.5 0 1.5 
z
" id="maaa94c9a31" style="stroke:#ff00ff;"/>
    </defs>
    <g>
     <use style="fill:#ff00ff;stroke:#ff00ff;" x="164.725213" xlink:href="#maaa94c9a31" y="6.381624"/>
     <use style="fill:#ff00ff;stroke:#ff00ff;" x="164.725213" xlink:href="#maaa94c9a31" y="6.381624"/>
    </g>
   </g>
   <g id="line2d_34">
    <path d="M 38.440992 298.944 
L 38.440992 288.618269 
L 50.52898 288.618269 
L 50.52898 281.160797 
L 57.6 281.160797 
L 57.6 271.408718 
L 62.616969 271.408718 
L 62.616969 269.114111 
L 66.508432 269.114111 
L 66.508432 267.966807 
L 81.775977 267.966807 
L 81.775977 266.819504 
L 83.171864 266.819504 
L 83.171864 264.524897 
L 86.792945 264.524897 
L 86.792945 263.951245 
L 87.850195 263.951245 
L 87.850195 260.509335 
L 93.863965 260.509335 
L 93.863965 258.214728 
L 96.552242 258.214728 
L 96.552242 257.641076 
L 98.32726 257.641076 
L 98.32726 255.346469 
L 99.938184 255.346469 
L 99.938184 254.199166 
L 109.252198 254.199166 
L 109.252198 252.478211 
L 109.550313 252.478211 
L 109.550313 251.330907 
L 113.022974 251.330907 
L 113.022974 250.183604 
L 115.502395 250.183604 
L 115.502395 249.609952 
L 117.297733 249.609952 
L 117.297733 249.036301 
L 118.399528 249.036301 
L 118.399528 248.462649 
L 125.110962 248.462649 
L 125.110962 247.888997 
L 125.706218 247.888997 
L 125.706218 247.315345 
L 126.168212 247.315345 
L 126.168212 246.741694 
L 127.05703 246.741694 
L 127.05703 245.59439 
L 130.398313 245.59439 
L 130.398313 245.020738 
L 130.664567 245.020738 
L 130.664567 244.447087 
L 131.099484 244.447087 
L 131.099484 243.873435 
L 131.270459 243.873435 
L 131.270459 243.299783 
L 132.181982 243.299783 
L 132.181982 242.726132 
L 132.342714 242.726132 
L 132.342714 242.15248 
L 132.971225 242.15248 
L 132.971225 241.578828 
L 136.32991 241.578828 
L 136.32991 240.431525 
L 137.016339 240.431525 
L 137.016339 239.857873 
L 137.617753 239.857873 
L 137.617753 239.284221 
L 138.084384 239.284221 
L 138.084384 238.71057 
L 138.199116 238.71057 
L 138.199116 238.136918 
L 138.426341 238.136918 
L 138.426341 237.563266 
L 138.538853 237.563266 
L 138.538853 235.842311 
L 138.706272 235.842311 
L 138.706272 232.400401 
L 139.678372 232.400401 
L 139.783113 230.105794 
L 139.990725 230.105794 
L 139.990725 228.95849 
L 140.195896 228.95849 
L 140.195896 227.237535 
L 141.138789 227.237535 
L 141.138789 226.663884 
L 141.662245 226.663884 
L 141.662245 223.221973 
L 142.396639 223.221973 
L 142.396639 222.648321 
L 143.014805 222.648321 
L 143.101352 220.353715 
L 143.358447 220.353715 
L 143.358447 219.780063 
L 143.569835 219.780063 
L 143.569835 217.485456 
L 143.695448 217.485456 
L 143.695448 215.764501 
L 144.107744 215.764501 
L 144.107744 215.190849 
L 144.430703 215.190849 
L 144.510517 211.748939 
L 144.550287 211.748939 
L 144.589967 208.88068 
L 145.174578 208.88068 
L 145.174578 207.733377 
L 146.359869 207.733377 
L 146.359869 207.159725 
L 146.992815 207.159725 
L 147.096109 203.144163 
L 147.402367 203.144163 
L 147.402367 202.570511 
L 147.802521 202.570511 
L 147.802521 201.423208 
L 148.670646 201.423208 
L 148.76449 192.24478 
L 149.165411 192.24478 
L 149.165411 191.671129 
L 150.027887 191.671129 
L 150.027887 191.097477 
L 150.372662 191.097477 
L 150.457801 167.577757 
L 151.097081 167.577757 
L 151.097081 162.988543 
L 151.260066 162.988543 
L 151.260066 161.267588 
L 151.44831 161.267588 
L 151.475037 160.120284 
L 151.844975 160.120284 
L 151.844975 158.399329 
L 152.130233 158.399329 
L 152.130233 157.252026 
L 152.736878 157.252026 
L 152.835965 155.53107 
L 152.860649 155.53107 
L 152.860649 154.957419 
L 153.081247 154.957419 
L 153.081247 146.352643 
L 153.29909 146.352643 
L 153.29909 145.778991 
L 153.418948 145.778991 
L 153.466662 144.631688 
L 153.585377 144.631688 
L 153.632638 143.484384 
L 153.703291 143.484384 
L 153.703291 142.337081 
L 154.641235 142.337081 
L 154.685723 139.468822 
L 154.796449 139.468822 
L 154.796449 138.895171 
L 154.994001 138.895171 
L 155.0376 129.716743 
L 155.253971 129.716743 
L 155.318362 127.422136 
L 155.382516 127.422136 
L 155.382516 126.848485 
L 155.55245 126.848485 
L 155.55245 121.111967 
L 155.720743 121.111967 
L 155.720743 120.538316 
L 155.845906 120.538316 
L 155.86668 119.391012 
L 156.073064 119.391012 
L 156.093569 110.786236 
L 156.216093 110.786236 
L 156.216093 107.344326 
L 156.953214 107.344326 
L 156.953214 95.29764 
L 157.20498 95.29764 
L 157.262567 93.576685 
L 157.434196 93.576685 
L 157.434196 93.003033 
L 157.641697 93.003033 
L 157.660438 70.630616 
L 157.79107 70.630616 
L 157.79107 70.056964 
L 157.939176 70.056964 
L 157.939176 69.483313 
L 158.067744 69.483313 
L 158.067744 67.762358 
L 158.304027 67.762358 
L 158.304027 66.615054 
L 159.028927 66.615054 
L 159.132527 53.421065 
L 159.218393 53.421065 
L 159.218393 52.273761 
L 159.906985 52.273761 
L 159.923445 43.668985 
L 160.217098 43.668985 
L 160.313893 32.195951 
L 160.378126 32.195951 
L 160.378126 31.622299 
L 160.758635 31.622299 
L 160.852479 29.327692 
L 160.992304 29.327692 
L 161.023225 16.707355 
L 161.161694 16.707355 
L 161.161694 16.133703 
L 161.999419 16.133703 
L 161.999419 15.560051 
L 162.303474 15.560051 
L 162.303474 14.9864 
L 162.531628 14.9864 
L 162.531628 12.691793 
L 162.658665 12.691793 
L 162.658665 11.544489 
L 162.826621 11.544489 
L 162.882249 10.397186 
L 162.965359 10.397186 
L 162.965359 9.823534 
L 163.669525 9.823534 
L 163.669525 8.102579 
L 164.725213 8.102579 
L 164.725213 6.381624 
L 338.688 6.381624 
L 338.688 6.381624 
" style="fill:none;stroke:#ff00ff;stroke-linecap:square;stroke-width:1.5;"/>
   </g>
   <g id="line2d_35">
    <defs>
     <path d="M -0 8.485281 
L 5.091169 0 
L 0 -8.485281 
L -5.091169 -0 
z
" id="meeb204ca23" style="stroke:#ff00ff;stroke-linejoin:miter;stroke-width:1.5;"/>
    </defs>
    <g>
     <use style="fill-opacity:0;stroke:#ff00ff;stroke-linejoin:miter;stroke-width:1.5;" x="141.138789" xlink:href="#meeb204ca23" y="226.663884"/>
     <use style="fill-opacity:0;stroke:#ff00ff;stroke-linejoin:miter;stroke-width:1.5;" x="157.641697" xlink:href="#meeb204ca23" y="93.003033"/>
     <use style="fill-opacity:0;stroke:#ff00ff;stroke-linejoin:miter;stroke-width:1.5;" x="164.725213" xlink:href="#meeb204ca23" y="8.102579"/>
     <use style="fill-opacity:0;stroke:#ff00ff;stroke-linejoin:miter;stroke-width:1.5;" x="164.725213" xlink:href="#meeb204ca23" y="6.381624"/>
     <use style="fill-opacity:0;stroke:#ff00ff;stroke-linejoin:miter;stroke-width:1.5;" x="164.725213" xlink:href="#meeb204ca23" y="6.381624"/>
     <use style="fill-opacity:0;stroke:#ff00ff;stroke-linejoin:miter;stroke-width:1.5;" x="338.688" xlink:href="#meeb204ca23" y="6.381624"/>
    </g>
   </g>
   <g id="line2d_36">
    <path style="fill:none;stroke:#ff00ff;stroke-linecap:square;stroke-width:1.5;"/>
    <g/>
   </g>
   <g id="line2d_37">
    <defs>
     <path d="M 0 1.5 
C 0.397805 1.5 0.77937 1.341951 1.06066 1.06066 
C 1.341951 0.77937 1.5 0.397805 1.5 0 
C 1.5 -0.397805 1.341951 -0.77937 1.06066 -1.06066 
C 0.77937 -1.341951 0.397805 -1.5 0 -1.5 
C -0.397805 -1.5 -0.77937 -1.341951 -1.06066 -1.06066 
C -1.341951 -0.77937 -1.5 -0.397805 -1.5 0 
C -1.5 0.397805 -1.341951 0.77937 -1.06066 1.06066 
C -0.77937 1.341951 -0.397805 1.5 0 1.5 
z
" id="ma32eb7f95b" style="stroke:#ff7500;"/>
    </defs>
    <g>
     <use style="fill:#ff7500;stroke:#ff7500;" x="182.722034" xlink:href="#ma32eb7f95b" y="6.381624"/>
     <use style="fill:#ff7500;stroke:#ff7500;" x="182.722034" xlink:href="#ma32eb7f95b" y="6.381624"/>
    </g>
   </g>
   <g id="line2d_38">
    <path d="M 72.376266 298.944 
L 72.376266 298.370348 
L 83.171864 298.370348 
L 83.171864 297.223045 
L 84.464254 297.223045 
L 84.464254 296.649393 
L 89.78989 296.649393 
L 89.78989 296.075741 
L 93.863965 296.075741 
L 93.863965 294.928438 
L 97.755429 294.928438 
L 97.755429 290.912876 
L 98.32726 290.912876 
L 98.32726 288.618269 
L 99.41757 288.618269 
L 99.41757 287.470966 
L 99.938184 287.470966 
L 99.938184 286.323662 
L 105.951954 286.323662 
L 105.951954 285.75001 
L 106.66386 285.75001 
L 106.66386 285.176359 
L 110.968922 285.176359 
L 110.968922 284.602707 
L 114.193835 284.602707 
L 114.193835 284.029055 
L 119.097192 284.029055 
L 119.097192 282.3081 
L 120.254726 282.3081 
L 120.254726 281.160797 
L 121.189196 281.160797 
L 121.189196 277.718886 
L 124.494669 277.718886 
L 124.494669 277.145235 
L 124.619683 277.145235 
L 124.619683 275.42428 
L 125.470548 275.42428 
L 125.470548 273.703324 
L 126.281824 273.703324 
L 126.281824 273.129673 
L 126.618283 273.129673 
L 126.618283 272.556021 
L 129.002426 272.556021 
L 129.002426 271.408718 
L 129.195127 271.408718 
L 129.195127 270.835066 
L 131.013364 270.835066 
L 131.013364 270.261414 
L 131.439773 270.261414 
L 131.523818 267.393156 
L 131.856005 267.393156 
L 131.938072 265.098549 
L 132.181982 265.098549 
L 132.181982 264.524897 
L 133.201197 264.524897 
L 133.201197 263.951245 
L 134.091907 263.951245 
L 134.091907 263.377593 
L 134.520763 263.377593 
L 134.520763 261.656638 
L 135.482227 261.656638 
L 135.548916 259.362031 
L 135.615352 259.362031 
L 135.681535 257.641076 
L 136.137916 257.641076 
L 136.137916 257.067425 
L 137.077422 257.067425 
L 137.077422 255.920121 
L 137.676769 255.920121 
L 137.676769 255.346469 
L 138.141844 255.346469 
L 138.141844 254.199166 
L 139.466984 254.199166 
L 139.466984 253.625514 
L 139.730821 253.625514 
L 139.730821 253.051863 
L 141.33096 253.051863 
L 141.33096 251.904559 
L 142.124852 251.904559 
L 142.124852 250.757256 
L 142.971369 250.757256 
L 142.971369 249.609952 
L 143.653678 249.609952 
L 143.653678 248.462649 
L 144.06695 248.462649 
L 144.06695 247.888997 
L 144.390658 247.888997 
L 144.390658 246.168042 
L 144.826168 246.168042 
L 144.865226 244.447087 
L 145.327221 244.447087 
L 145.327221 243.299783 
L 145.961446 243.299783 
L 145.961446 241.578828 
L 147.027314 241.578828 
L 147.027314 241.005176 
L 147.164632 241.005176 
L 147.164632 239.857873 
L 147.402367 239.857873 
L 147.402367 239.284221 
L 147.999207 239.284221 
L 147.999207 238.71057 
L 150.258492 238.71057 
L 150.258492 238.136918 
L 151.069768 238.136918 
L 151.097081 236.989614 
L 151.60806 236.989614 
L 151.634543 234.695008 
L 152.385571 234.695008 
L 152.385571 232.974052 
L 152.687123 232.974052 
L 152.687123 231.253097 
L 152.983548 231.253097 
L 152.983548 230.679446 
L 154.707925 230.679446 
L 154.707925 229.532142 
L 155.102793 229.532142 
L 155.102793 228.95849 
L 155.657823 228.95849 
L 155.657823 228.384839 
L 155.783437 228.384839 
L 155.783437 227.811187 
L 158.140788 227.811187 
L 158.140788 227.237535 
L 158.959517 227.237535 
L 158.959517 226.663884 
L 159.303838 226.663884 
L 159.303838 225.51658 
L 159.758143 225.51658 
L 159.758143 224.942928 
L 162.44642 224.942928 
L 162.44642 224.369277 
L 162.658665 224.369277 
L 162.658665 223.795625 
L 163.157756 223.795625 
L 163.157756 223.221973 
L 163.402046 223.221973 
L 163.402046 222.648321 
L 163.932963 222.648321 
L 163.972138 221.501018 
L 164.166702 221.501018 
L 164.166702 220.927366 
L 164.410075 220.927366 
L 164.410075 220.353715 
L 164.562052 220.353715 
L 164.562052 219.780063 
L 164.911599 219.780063 
L 164.911599 219.206411 
L 165.132663 219.206411 
L 165.132663 218.632759 
L 165.423123 218.632759 
L 165.423123 218.059108 
L 166.094173 218.059108 
L 166.094173 217.485456 
L 166.471192 217.485456 
L 166.471192 216.911804 
L 167.266534 216.911804 
L 167.363449 215.764501 
L 167.449146 215.764501 
L 167.449146 215.190849 
L 167.587512 215.190849 
L 167.587512 214.617197 
L 168.161052 214.617197 
L 168.191801 213.469894 
L 168.466121 213.469894 
L 168.526499 212.322591 
L 168.913944 212.322591 
L 168.913944 211.748939 
L 169.17722 211.748939 
L 169.215888 210.601635 
L 169.331381 210.601635 
L 169.331381 210.027984 
L 169.45564 210.027984 
L 169.503198 208.307029 
L 169.569561 208.307029 
L 169.60737 205.43877 
L 169.720307 205.43877 
L 169.804532 204.291467 
L 169.971772 204.291467 
L 169.971772 203.144163 
L 170.119095 203.144163 
L 170.119095 202.570511 
L 170.274274 202.570511 
L 170.28336 201.423208 
L 170.464079 201.423208 
L 170.473066 200.275904 
L 170.642945 200.275904 
L 170.642945 199.702253 
L 170.758232 199.702253 
L 170.837602 197.981298 
L 170.907851 197.981298 
L 171.003983 195.113039 
L 171.056197 195.113039 
L 171.082245 193.965736 
L 171.211906 193.965736 
L 171.280666 192.24478 
L 171.3833 192.24478 
L 171.476854 190.523825 
L 171.569909 190.523825 
L 171.569909 189.950174 
L 171.862732 189.950174 
L 171.962007 188.229218 
L 171.994974 188.229218 
L 172.052516 185.36096 
L 172.109868 185.36096 
L 172.109868 184.787308 
L 172.240256 184.787308 
L 172.288901 183.066353 
L 172.369676 183.066353 
L 172.401882 180.771746 
L 172.696997 180.771746 
L 172.807372 175.608881 
L 172.846623 175.608881 
L 172.870132 173.887925 
L 173.00275 173.887925 
L 173.088028 172.16697 
L 173.295595 172.16697 
L 173.295595 171.019667 
L 173.462916 171.019667 
L 173.538444 166.430453 
L 173.695995 166.430453 
L 173.755642 164.709498 
L 173.955458 164.709498 
L 173.955458 164.135846 
L 174.160284 164.135846 
L 174.247335 160.693936 
L 174.341153 160.693936 
L 174.362732 158.399329 
L 174.527289 158.399329 
L 174.619617 156.678374 
L 174.662065 156.678374 
L 174.662065 156.104722 
L 174.795808 156.104722 
L 174.893703 149.220902 
L 174.935491 149.220902 
L 175.011842 144.631688 
L 175.053347 144.631688 
L 175.149812 140.616126 
L 175.293514 140.616126 
L 175.307139 138.895171 
L 175.496772 138.895171 
L 175.58412 136.600564 
L 175.610908 136.600564 
L 175.697687 132.585002 
L 175.790662 132.585002 
L 175.896315 127.995788 
L 176.086194 127.995788 
L 176.086194 127.422136 
L 176.261139 127.422136 
L 176.34475 121.685619 
L 176.459861 121.685619 
L 176.55521 118.243709 
L 176.656344 118.243709 
L 176.719257 116.522754 
L 176.869327 116.522754 
L 176.97485 109.638933 
L 177.018116 109.638933 
L 177.098184 106.770674 
L 177.159525 106.770674 
L 177.238947 103.902416 
L 177.299796 103.902416 
L 177.324077 99.886854 
L 177.48108 99.886854 
L 177.588952 95.871292 
L 177.606866 95.871292 
L 177.696161 93.576685 
L 177.725824 93.576685 
L 177.796812 91.282078 
L 177.961335 91.282078 
L 178.048838 88.413819 
L 178.077908 88.413819 
L 178.182162 83.250954 
L 178.228297 83.250954 
L 178.337383 79.235392 
L 178.354545 79.235392 
L 178.457163 72.925223 
L 178.643741 72.925223 
L 178.739084 62.02584 
L 178.83947 62.02584 
L 178.92822 60.304885 
L 178.988975 60.304885 
L 179.082454 58.58393 
L 179.159062 58.58393 
L 179.257066 53.421065 
L 179.273347 53.421065 
L 179.311276 51.700109 
L 179.386888 51.700109 
L 179.462173 49.979154 
L 179.717854 49.979154 
L 179.786461 39.653423 
L 179.839052 39.653423 
L 179.912415 36.211513 
L 180.084129 36.211513 
L 180.187382 34.490558 
L 180.254169 34.490558 
L 180.341123 29.901344 
L 180.366615 29.901344 
L 180.402242 25.31213 
L 180.488462 25.31213 
L 180.508688 24.164827 
L 180.629549 24.164827 
L 180.679662 21.87022 
L 180.774482 21.87022 
L 180.878686 16.707355 
L 180.933022 16.707355 
L 180.992105 14.9864 
L 181.114555 14.9864 
L 181.114555 11.544489 
L 181.265209 11.544489 
L 181.284554 9.823534 
L 181.428959 9.823534 
L 181.428959 9.249882 
L 181.920505 9.249882 
L 181.920505 8.676231 
L 182.303092 8.676231 
L 182.348626 7.528927 
L 182.673003 7.528927 
L 182.722034 6.381624 
L 338.688 6.381624 
L 338.688 6.381624 
" style="fill:none;stroke:#ff7500;stroke-linecap:square;stroke-width:1.5;"/>
   </g>
   <g id="line2d_39">
    <defs>
     <path d="M 0 -6 
L -1.347084 -1.854102 
L -5.706339 -1.854102 
L -2.179628 0.708204 
L -3.526712 4.854102 
L -0 2.291796 
L 3.526712 4.854102 
L 2.179628 0.708204 
L 5.706339 -1.854102 
L 1.347084 -1.854102 
z
" id="m9fc0010d5d" style="stroke:#ff7500;stroke-linejoin:bevel;stroke-width:1.5;"/>
    </defs>
    <g>
     <use style="fill-opacity:0;stroke:#ff7500;stroke-linejoin:bevel;stroke-width:1.5;" x="177.024289" xlink:href="#m9fc0010d5d" y="109.065281"/>
     <use style="fill-opacity:0;stroke:#ff7500;stroke-linejoin:bevel;stroke-width:1.5;" x="182.722034" xlink:href="#m9fc0010d5d" y="6.955275"/>
     <use style="fill-opacity:0;stroke:#ff7500;stroke-linejoin:bevel;stroke-width:1.5;" x="182.722034" xlink:href="#m9fc0010d5d" y="6.381624"/>
     <use style="fill-opacity:0;stroke:#ff7500;stroke-linejoin:bevel;stroke-width:1.5;" x="182.722034" xlink:href="#m9fc0010d5d" y="6.381624"/>
     <use style="fill-opacity:0;stroke:#ff7500;stroke-linejoin:bevel;stroke-width:1.5;" x="338.688" xlink:href="#m9fc0010d5d" y="6.381624"/>
    </g>
   </g>
   <g id="line2d_40">
    <path style="fill:none;stroke:#ff7500;stroke-linecap:square;stroke-width:1.5;"/>
    <g/>
   </g>
   <g id="line2d_41">
    <defs>
     <path d="M 0 1.5 
C 0.397805 1.5 0.77937 1.341951 1.06066 1.06066 
C 1.341951 0.77937 1.5 0.397805 1.5 0 
C 1.5 -0.397805 1.341951 -0.77937 1.06066 -1.06066 
C 0.77937 -1.341951 0.397805 -1.5 0 -1.5 
C -0.397805 -1.5 -0.77937 -1.341951 -1.06066 -1.06066 
C -1.341951 -0.77937 -1.5 -0.397805 -1.5 0 
C -1.5 0.397805 -1.341951 0.77937 -1.06066 1.06066 
C -0.77937 1.341951 -0.397805 1.5 0 1.5 
z
" id="meadd7698b4" style="stroke:#6495ed;"/>
    </defs>
    <g>
     <use style="fill:#6495ed;stroke:#6495ed;" x="181.967047" xlink:href="#meadd7698b4" y="6.381624"/>
     <use style="fill:#6495ed;stroke:#6495ed;" x="181.967047" xlink:href="#meadd7698b4" y="6.381624"/>
    </g>
   </g>
   <g id="line2d_42">
    <path d="M 38.440992 298.944 
L 38.440992 293.781135 
L 50.52898 293.781135 
L 50.52898 292.633831 
L 57.6 292.633831 
L 57.6 292.060179 
L 69.687988 292.060179 
L 69.687988 291.486528 
L 72.376266 291.486528 
L 72.376266 288.044617 
L 81.775977 288.044617 
L 81.775977 286.897314 
L 83.171864 286.897314 
L 83.171864 283.455404 
L 85.66744 283.455404 
L 85.66744 281.734448 
L 86.792945 281.734448 
L 86.792945 280.587145 
L 99.938184 280.587145 
L 99.938184 280.013493 
L 100.443706 280.013493 
L 100.443706 277.718886 
L 102.330873 277.718886 
L 102.330873 276.571583 
L 102.772397 276.571583 
L 102.772397 274.850628 
L 104.434538 274.850628 
L 104.434538 274.276976 
L 104.826449 274.276976 
L 104.826449 273.703324 
L 105.584798 273.703324 
L 105.584798 273.129673 
L 105.951954 273.129673 
L 105.951954 272.556021 
L 110.694282 272.556021 
L 110.694282 270.261414 
L 114.860386 270.261414 
L 114.860386 269.687762 
L 116.522527 269.687762 
L 116.522527 269.114111 
L 119.267333 269.114111 
L 119.267333 268.540459 
L 119.768017 268.540459 
L 119.768017 267.966807 
L 120.254726 267.966807 
L 120.254726 266.819504 
L 120.41399 266.819504 
L 120.41399 265.098549 
L 120.883236 265.098549 
L 120.883236 264.524897 
L 121.340187 264.524897 
L 121.340187 261.656638 
L 121.638301 261.656638 
L 121.638301 261.082987 
L 122.076131 261.082987 
L 122.076131 260.509335 
L 122.219665 260.509335 
L 122.219665 259.935683 
L 122.782271 259.935683 
L 122.782271 258.214728 
L 123.192626 258.214728 
L 123.192626 257.641076 
L 125.588781 257.641076 
L 125.588781 257.067425 
L 126.168212 257.067425 
L 126.168212 255.920121 
L 128.709321 255.920121 
L 128.709321 255.346469 
L 131.099484 255.346469 
L 131.099484 254.772818 
L 131.270459 254.772818 
L 131.270459 254.199166 
L 131.523818 254.199166 
L 131.60746 251.904559 
L 131.690703 251.904559 
L 131.690703 251.330907 
L 132.019755 251.330907 
L 132.019755 249.036301 
L 133.201197 249.036301 
L 133.201197 247.888997 
L 133.652238 247.888997 
L 133.652238 247.315345 
L 136.769843 247.315345 
L 136.769843 246.741694 
L 136.955041 246.741694 
L 136.955041 246.168042 
L 137.676769 246.168042 
L 137.676769 245.59439 
L 139.306744 245.59439 
L 139.306744 243.873435 
L 139.783113 243.873435 
L 139.783113 243.299783 
L 140.39868 243.299783 
L 140.39868 242.726132 
L 141.615302 242.726132 
L 141.615302 241.005176 
L 143.101352 241.005176 
L 143.101352 240.431525 
L 143.943994 240.431525 
L 143.943994 239.857873 
L 145.478539 239.857873 
L 145.478539 238.136918 
L 145.888018 238.136918 
L 145.888018 237.563266 
L 147.4697 237.563266 
L 147.4697 236.989614 
L 148.607802 236.989614 
L 148.607802 235.842311 
L 148.857832 235.842311 
L 148.857832 235.268659 
L 150.085825 235.268659 
L 150.114722 232.974052 
L 150.401087 232.974052 
L 150.401087 232.400401 
L 153.703291 232.400401 
L 153.703291 231.826749 
L 155.382516 231.826749 
L 155.488919 230.679446 
L 155.720743 230.679446 
L 155.720743 230.105794 
L 155.908152 230.105794 
L 155.908152 229.532142 
L 157.224197 229.532142 
L 157.319964 228.384839 
L 157.883783 228.384839 
L 157.883783 227.811187 
L 159.422762 227.811187 
L 159.456591 226.663884 
L 159.741526 226.663884 
L 159.741526 226.090232 
L 160.005512 226.090232 
L 160.005512 225.51658 
L 161.023225 225.51658 
L 161.023225 224.942928 
L 161.570623 224.942928 
L 161.570623 224.369277 
L 162.360793 224.369277 
L 162.44642 223.221973 
L 162.644595 223.221973 
L 162.644595 222.648321 
L 162.770815 222.648321 
L 162.770815 221.501018 
L 162.965359 221.501018 
L 162.992975 220.353715 
L 163.157756 220.353715 
L 163.157756 219.780063 
L 163.616356 219.780063 
L 163.642961 218.632759 
L 163.906798 218.632759 
L 163.906798 218.059108 
L 164.410075 218.059108 
L 164.410075 217.485456 
L 164.562052 217.485456 
L 164.562052 216.911804 
L 164.886862 216.911804 
L 164.886862 215.764501 
L 165.326839 215.764501 
L 165.363008 214.617197 
L 165.53081 214.617197 
L 165.53081 214.043546 
L 165.697012 214.043546 
L 165.697012 213.469894 
L 165.826498 213.469894 
L 165.826498 212.896242 
L 166.047915 212.896242 
L 166.047915 212.322591 
L 166.24367 212.322591 
L 166.24367 211.748939 
L 166.471192 211.748939 
L 166.572616 208.88068 
L 166.628709 208.88068 
L 166.628709 208.307029 
L 166.807003 208.307029 
L 166.807003 207.733377 
L 167.136471 207.733377 
L 167.234109 206.586073 
L 167.298899 206.586073 
L 167.352708 204.291467 
L 167.587512 204.291467 
L 167.651004 201.423208 
L 167.840107 201.423208 
L 167.850553 199.702253 
L 168.242927 199.702253 
L 168.242927 199.128601 
L 168.375159 199.128601 
L 168.375159 197.981298 
L 168.506396 197.981298 
L 168.60668 196.260342 
L 168.805533 196.260342 
L 168.884444 195.113039 
L 168.943394 195.113039 
L 168.943394 193.965736 
L 169.264103 193.965736 
L 169.312185 192.24478 
L 169.417501 192.24478 
L 169.417501 191.671129 
L 169.616809 191.671129 
L 169.701534 190.523825 
L 169.776502 190.523825 
L 169.776502 189.950174 
L 169.897641 189.950174 
L 169.962523 188.80287 
L 170.119095 188.80287 
L 170.210544 187.655567 
L 170.301516 187.655567 
L 170.41006 185.934612 
L 170.678499 185.934612 
L 170.687376 184.213656 
L 170.846398 184.213656 
L 170.846398 183.640005 
L 170.960352 183.640005 
L 171.056197 181.91905 
L 171.108254 181.91905 
L 171.151517 180.771746 
L 171.280666 180.771746 
L 171.3833 177.903487 
L 171.459882 177.903487 
L 171.49381 175.608881 
L 171.612043 175.608881 
L 171.712752 172.16697 
L 171.887604 172.16697 
L 171.887604 171.019667 
L 172.12622 171.019667 
L 172.167033 169.872363 
L 172.256486 169.872363 
L 172.280803 168.151408 
L 172.385786 168.151408 
L 172.490141 165.856801 
L 172.665332 165.856801 
L 172.768032 161.267588 
L 172.791647 161.267588 
L 172.893608 158.972981 
L 172.948265 158.972981 
L 172.994977 157.825677 
L 173.080293 157.825677 
L 173.188276 154.957419 
L 173.195964 154.957419 
L 173.257343 151.515508 
L 173.310873 151.515508 
L 173.394661 148.64725 
L 173.462916 148.64725 
L 173.462916 147.499946 
L 173.703462 147.499946 
L 173.755642 143.484384 
L 173.874327 143.484384 
L 173.889107 140.616126 
L 174.203864 140.616126 
L 174.305129 134.305957 
L 174.333954 134.305957 
L 174.441627 132.01135 
L 174.470228 132.01135 
L 174.498781 130.290395 
L 174.640854 130.290395 
L 174.746654 128.56944 
L 174.893703 128.56944 
L 174.956347 122.259271 
L 175.046437 122.259271 
L 175.149812 118.817361 
L 175.204695 118.817361 
L 175.300328 114.228147 
L 175.354741 114.228147 
L 175.429282 111.93354 
L 175.57071 111.93354 
L 175.664362 106.197023 
L 175.730949 106.197023 
L 175.77078 103.902416 
L 175.922628 103.902416 
L 175.994786 101.607809 
L 176.047078 101.607809 
L 176.15768 98.165899 
L 176.215951 98.165899 
L 176.325491 90.708426 
L 176.351165 90.708426 
L 176.440729 84.398257 
L 176.504422 84.398257 
L 176.54887 80.382695 
L 176.769424 80.382695 
L 176.869327 74.072526 
L 176.894213 74.072526 
L 176.968661 70.056964 
L 177.024289 70.056964 
L 177.110469 67.188706 
L 177.153401 67.188706 
L 177.202336 64.320447 
L 177.372536 64.320447 
L 177.372536 63.746796 
L 177.571019 63.746796 
L 177.630722 61.452189 
L 177.696161 61.452189 
L 177.713965 60.304885 
L 177.808615 60.304885 
L 177.843977 57.436627 
L 177.949635 57.436627 
L 177.949635 56.289323 
L 178.083716 56.289323 
L 178.159048 50.552806 
L 178.245567 50.552806 
L 178.320204 49.405503 
L 178.423024 49.405503 
L 178.502578 48.258199 
L 178.63249 48.258199 
L 178.711096 44.242637 
L 178.755855 44.242637 
L 178.856145 41.374379 
L 178.92822 41.374379 
L 179.038526 37.358817 
L 179.087937 37.358817 
L 179.191791 34.490558 
L 179.224459 34.490558 
L 179.322098 30.474996 
L 179.440696 30.474996 
L 179.462173 28.180389 
L 179.622413 28.180389 
L 179.622413 26.459434 
L 179.733711 26.459434 
L 179.839052 20.722917 
L 179.860045 20.722917 
L 179.938541 19.575613 
L 180.001085 19.575613 
L 180.001085 19.001962 
L 180.15647 19.001962 
L 180.202817 17.281006 
L 180.279789 17.281006 
L 180.366615 14.412748 
L 180.463148 14.412748 
L 180.508688 12.118141 
L 180.654624 12.118141 
L 180.714656 10.970838 
L 180.789406 10.970838 
L 180.799349 8.102579 
L 181.352092 8.102579 
L 181.352092 7.528927 
L 181.967047 7.528927 
L 181.967047 6.381624 
L 338.688 6.381624 
L 338.688 6.381624 
" style="fill:none;stroke:#6495ed;stroke-linecap:square;stroke-width:1.5;"/>
   </g>
   <g id="line2d_43">
    <defs>
     <path d="M -0 6 
L 6 -6 
L -6 -6 
z
" id="ma0e17863c9" style="stroke:#6495ed;stroke-linejoin:miter;stroke-width:1.5;"/>
    </defs>
    <g>
     <use style="fill-opacity:0;stroke:#6495ed;stroke-linejoin:miter;stroke-width:1.5;" x="72.376266" xlink:href="#ma0e17863c9" y="288.044617"/>
     <use style="fill-opacity:0;stroke:#6495ed;stroke-linejoin:miter;stroke-width:1.5;" x="164.886862" xlink:href="#ma0e17863c9" y="216.911804"/>
     <use style="fill-opacity:0;stroke:#6495ed;stroke-linejoin:miter;stroke-width:1.5;" x="176.806955" xlink:href="#ma0e17863c9" y="78.088089"/>
     <use style="fill-opacity:0;stroke:#6495ed;stroke-linejoin:miter;stroke-width:1.5;" x="181.967047" xlink:href="#ma0e17863c9" y="7.528927"/>
     <use style="fill-opacity:0;stroke:#6495ed;stroke-linejoin:miter;stroke-width:1.5;" x="181.967047" xlink:href="#ma0e17863c9" y="6.381624"/>
     <use style="fill-opacity:0;stroke:#6495ed;stroke-linejoin:miter;stroke-width:1.5;" x="338.688" xlink:href="#ma0e17863c9" y="6.381624"/>
    </g>
   </g>
   <g id="line2d_44">
    <path style="fill:none;stroke:#6495ed;stroke-linecap:square;stroke-width:1.5;"/>
    <g/>
   </g>
   <g id="line2d_45">
    <path d="M 338.688 6.381624 
L 369.60768 293.092752 
" style="fill:none;stroke:#000080;stroke-linecap:square;stroke-width:1.5;"/>
    <g>
     <use style="fill-opacity:0;stroke:#000080;stroke-width:1.5;" x="338.688" xlink:href="#m51a67e5901" y="6.381624"/>
     <use style="fill-opacity:0;stroke:#000080;stroke-width:1.5;" x="369.60768" xlink:href="#m51a67e5901" y="293.092752"/>
    </g>
   </g>
   <g id="line2d_46">
    <path d="M 338.688 6.381624 
L 369.60768 199.472792 
" style="fill:none;stroke:#ff7500;stroke-linecap:square;stroke-width:1.5;"/>
    <g>
     <use style="fill-opacity:0;stroke:#ff7500;stroke-linejoin:bevel;stroke-width:1.5;" x="338.688" xlink:href="#m9fc0010d5d" y="6.381624"/>
     <use style="fill-opacity:0;stroke:#ff7500;stroke-linejoin:bevel;stroke-width:1.5;" x="369.60768" xlink:href="#m9fc0010d5d" y="199.472792"/>
    </g>
   </g>
   <g id="line2d_47">
    <path d="M 338.688 6.381624 
L 369.60768 105.852832 
" style="fill:none;stroke:#6495ed;stroke-linecap:square;stroke-width:1.5;"/>
    <g>
     <use style="fill-opacity:0;stroke:#6495ed;stroke-linejoin:miter;stroke-width:1.5;" x="338.688" xlink:href="#ma0e17863c9" y="6.381624"/>
     <use style="fill-opacity:0;stroke:#6495ed;stroke-linejoin:miter;stroke-width:1.5;" x="369.60768" xlink:href="#ma0e17863c9" y="105.852832"/>
    </g>
   </g>
   <g id="line2d_48">
    <path d="M 338.688 6.381624 
L 369.60768 12.232871 
" style="fill:none;stroke:#ff00ff;stroke-linecap:square;stroke-width:1.5;"/>
    <g>
     <use style="fill-opacity:0;stroke:#ff00ff;stroke-linejoin:miter;stroke-width:1.5;" x="338.688" xlink:href="#meeb204ca23" y="6.381624"/>
     <use style="fill-opacity:0;stroke:#ff00ff;stroke-linejoin:miter;stroke-width:1.5;" x="369.60768" xlink:href="#meeb204ca23" y="12.232871"/>
    </g>
   </g>
   <g id="line2d_49">
    <path d="M 338.688 298.944 
L 338.688 6.381624 
" style="fill:none;stroke:#000000;stroke-linecap:square;stroke-width:1.5;"/>
   </g>
   <g id="patch_3">
    <path d="M 57.6 298.944 
L 57.6 3.456 
" style="fill:none;stroke:#000000;stroke-linecap:square;stroke-linejoin:miter;stroke-width:0.8;"/>
   </g>
   <g id="patch_4">
    <path d="M 338.688 298.944 
L 338.688 3.456 
" style="fill:none;stroke:#000000;stroke-linecap:square;stroke-linejoin:miter;stroke-width:0.8;"/>
   </g>
   <g id="patch_5">
    <path d="M 57.6 298.944 
L 338.688 298.944 
" style="fill:none;stroke:#000000;stroke-linecap:square;stroke-linejoin:miter;stroke-width:0.8;"/>
   </g>
   <g id="patch_6">
    <path d="M 57.6 3.456 
L 338.688 3.456 
" style="fill:none;stroke:#000000;stroke-linecap:square;stroke-linejoin:miter;stroke-width:0.8;"/>
   </g>
   <g id="text_13">
    <!-- f6 -->
    <g transform="translate(375.22944 297.78369)scale(0.17 -0.17)">
     <use xlink:href="#DejaVuSans-66"/>
     <use x="35.205078" xlink:href="#DejaVuSans-36"/>
    </g>
   </g>
   <g id="text_14">
    <!-- f8 -->
    <g transform="translate(375.22944 204.16373)scale(0.17 -0.17)">
     <use xlink:href="#DejaVuSans-66"/>
     <use x="35.205078" xlink:href="#DejaVuSans-38"/>
    </g>
   </g>
   <g id="text_15">
    <!-- f9 -->
    <g transform="translate(375.22944 110.543769)scale(0.17 -0.17)">
     <defs>
      <path d="M 703 97 
L 703 672 
Q 941 559 1184 500 
Q 1428 441 1663 441 
Q 2288 441 2617 861 
Q 2947 1281 2994 2138 
Q 2813 1869 2534 1725 
Q 2256 1581 1919 1581 
Q 1219 1581 811 2004 
Q 403 2428 403 3163 
Q 403 3881 828 4315 
Q 1253 4750 1959 4750 
Q 2769 4750 3195 4129 
Q 3622 3509 3622 2328 
Q 3622 1225 3098 567 
Q 2575 -91 1691 -91 
Q 1453 -91 1209 -44 
Q 966 3 703 97 
z
M 1959 2075 
Q 2384 2075 2632 2365 
Q 2881 2656 2881 3163 
Q 2881 3666 2632 3958 
Q 2384 4250 1959 4250 
Q 1534 4250 1286 3958 
Q 1038 3666 1038 3163 
Q 1038 2656 1286 2365 
Q 1534 2075 1959 2075 
z
" id="DejaVuSans-39" transform="scale(0.015625)"/>
     </defs>
     <use xlink:href="#DejaVuSans-66"/>
     <use x="35.205078" xlink:href="#DejaVuSans-39"/>
    </g>
   </g>
   <g id="text_16">
    <!-- f7 -->
    <g transform="translate(375.22944 16.923809)scale(0.17 -0.17)">
     <defs>
      <path d="M 525 4666 
L 3525 4666 
L 3525 4397 
L 1831 0 
L 1172 0 
L 2766 4134 
L 525 4134 
L 525 4666 
z
" id="DejaVuSans-37" transform="scale(0.015625)"/>
     </defs>
     <use xlink:href="#DejaVuSans-66"/>
     <use x="35.205078" xlink:href="#DejaVuSans-37"/>
    </g>
   </g>
   <g id="text_17">
    <!-- bbob -->
    <g transform="translate(60.41088 14.161286)scale(0.102 -0.102)">
     <defs>
      <path d="M 3116 1747 
Q 3116 2381 2855 2742 
Q 2594 3103 2138 3103 
Q 1681 3103 1420 2742 
Q 1159 2381 1159 1747 
Q 1159 1113 1420 752 
Q 1681 391 2138 391 
Q 2594 391 2855 752 
Q 3116 1113 3116 1747 
z
M 1159 2969 
Q 1341 3281 1617 3432 
Q 1894 3584 2278 3584 
Q 2916 3584 3314 3078 
Q 3713 2572 3713 1747 
Q 3713 922 3314 415 
Q 2916 -91 2278 -91 
Q 1894 -91 1617 61 
Q 1341 213 1159 525 
L 1159 0 
L 581 0 
L 581 4863 
L 1159 4863 
L 1159 2969 
z
" id="DejaVuSans-62" transform="scale(0.015625)"/>
     </defs>
     <use xlink:href="#DejaVuSans-62"/>
     <use x="63.476562" xlink:href="#DejaVuSans-62"/>
     <use x="126.953125" xlink:href="#DejaVuSans-6f"/>
     <use x="188.134766" xlink:href="#DejaVuSans-62"/>
    </g>
    <!-- Misc. moderate functions, 3-D -->
    <g transform="translate(60.41088 25.583055)scale(0.102 -0.102)">
     <defs>
      <path d="M 628 4666 
L 1569 4666 
L 2759 1491 
L 3956 4666 
L 4897 4666 
L 4897 0 
L 4281 0 
L 4281 4097 
L 3078 897 
L 2444 897 
L 1241 4097 
L 1241 0 
L 628 0 
L 628 4666 
z
" id="DejaVuSans-4d" transform="scale(0.015625)"/>
      <path d="M 2597 2516 
Q 3050 2419 3304 2112 
Q 3559 1806 3559 1356 
Q 3559 666 3084 287 
Q 2609 -91 1734 -91 
Q 1441 -91 1130 -33 
Q 819 25 488 141 
L 488 750 
Q 750 597 1062 519 
Q 1375 441 1716 441 
Q 2309 441 2620 675 
Q 2931 909 2931 1356 
Q 2931 1769 2642 2001 
Q 2353 2234 1838 2234 
L 1294 2234 
L 1294 2753 
L 1863 2753 
Q 2328 2753 2575 2939 
Q 2822 3125 2822 3475 
Q 2822 3834 2567 4026 
Q 2313 4219 1838 4219 
Q 1578 4219 1281 4162 
Q 984 4106 628 3988 
L 628 4550 
Q 988 4650 1302 4700 
Q 1616 4750 1894 4750 
Q 2613 4750 3031 4423 
Q 3450 4097 3450 3541 
Q 3450 3153 3228 2886 
Q 3006 2619 2597 2516 
z
" id="DejaVuSans-33" transform="scale(0.015625)"/>
      <path d="M 1259 4147 
L 1259 519 
L 2022 519 
Q 2988 519 3436 956 
Q 3884 1394 3884 2338 
Q 3884 3275 3436 3711 
Q 2988 4147 2022 4147 
L 1259 4147 
z
M 628 4666 
L 1925 4666 
Q 3281 4666 3915 4102 
Q 4550 3538 4550 2338 
Q 4550 1131 3912 565 
Q 3275 0 1925 0 
L 628 0 
L 628 4666 
z
" id="DejaVuSans-44" transform="scale(0.015625)"/>
     </defs>
     <use xlink:href="#DejaVuSans-4d"/>
     <use x="86.279297" xlink:href="#DejaVuSans-69"/>
     <use x="114.0625" xlink:href="#DejaVuSans-73"/>
     <use x="166.162109" xlink:href="#DejaVuSans-63"/>
     <use x="221.142578" xlink:href="#DejaVuSans-2e"/>
     <use x="252.929688" xlink:href="#DejaVuSans-20"/>
     <use x="284.716797" xlink:href="#DejaVuSans-6d"/>
     <use x="382.128906" xlink:href="#DejaVuSans-6f"/>
     <use x="443.310547" xlink:href="#DejaVuSans-64"/>
     <use x="506.787109" xlink:href="#DejaVuSans-65"/>
     <use x="568.310547" xlink:href="#DejaVuSans-72"/>
     <use x="609.423828" xlink:href="#DejaVuSans-61"/>
     <use x="670.703125" xlink:href="#DejaVuSans-74"/>
     <use x="709.912109" xlink:href="#DejaVuSans-65"/>
     <use x="771.435547" xlink:href="#DejaVuSans-20"/>
     <use x="803.222656" xlink:href="#DejaVuSans-66"/>
     <use x="838.427734" xlink:href="#DejaVuSans-75"/>
     <use x="901.806641" xlink:href="#DejaVuSans-6e"/>
     <use x="965.185547" xlink:href="#DejaVuSans-63"/>
     <use x="1020.166016" xlink:href="#DejaVuSans-74"/>
     <use x="1059.375" xlink:href="#DejaVuSans-69"/>
     <use x="1087.158203" xlink:href="#DejaVuSans-6f"/>
     <use x="1148.339844" xlink:href="#DejaVuSans-6e"/>
     <use x="1211.71875" xlink:href="#DejaVuSans-73"/>
     <use x="1263.818359" xlink:href="#DejaVuSans-2c"/>
     <use x="1295.605469" xlink:href="#DejaVuSans-20"/>
     <use x="1327.392578" xlink:href="#DejaVuSans-33"/>
     <use x="1391.015625" xlink:href="#DejaVuSans-2d"/>
     <use x="1427.099609" xlink:href="#DejaVuSans-44"/>
    </g>
    <!-- 51 targets: 100..1e-08 -->
    <g transform="translate(60.41088 37.004824)scale(0.102 -0.102)">
     <defs>
      <path d="M 691 4666 
L 3169 4666 
L 3169 4134 
L 1269 4134 
L 1269 2991 
Q 1406 3038 1543 3061 
Q 1681 3084 1819 3084 
Q 2600 3084 3056 2656 
Q 3513 2228 3513 1497 
Q 3513 744 3044 326 
Q 2575 -91 1722 -91 
Q 1428 -91 1123 -41 
Q 819 9 494 109 
L 494 744 
Q 775 591 1075 516 
Q 1375 441 1709 441 
Q 2250 441 2565 725 
Q 2881 1009 2881 1497 
Q 2881 1984 2565 2268 
Q 2250 2553 1709 2553 
Q 1456 2553 1204 2497 
Q 953 2441 691 2322 
L 691 4666 
z
" id="DejaVuSans-35" transform="scale(0.015625)"/>
      <path d="M 750 794 
L 1409 794 
L 1409 0 
L 750 0 
L 750 794 
z
M 750 3309 
L 1409 3309 
L 1409 2516 
L 750 2516 
L 750 3309 
z
" id="DejaVuSans-3a" transform="scale(0.015625)"/>
     </defs>
     <use xlink:href="#DejaVuSans-35"/>
     <use x="63.623047" xlink:href="#DejaVuSans-31"/>
     <use x="127.246094" xlink:href="#DejaVuSans-20"/>
     <use x="159.033203" xlink:href="#DejaVuSans-74"/>
     <use x="198.242188" xlink:href="#DejaVuSans-61"/>
     <use x="259.521484" xlink:href="#DejaVuSans-72"/>
     <use x="298.884766" xlink:href="#DejaVuSans-67"/>
     <use x="362.361328" xlink:href="#DejaVuSans-65"/>
     <use x="423.884766" xlink:href="#DejaVuSans-74"/>
     <use x="463.09375" xlink:href="#DejaVuSans-73"/>
     <use x="515.193359" xlink:href="#DejaVuSans-3a"/>
     <use x="548.884766" xlink:href="#DejaVuSans-20"/>
     <use x="580.671875" xlink:href="#DejaVuSans-31"/>
     <use x="644.294922" xlink:href="#DejaVuSans-30"/>
     <use x="707.917969" xlink:href="#DejaVuSans-30"/>
     <use x="771.541016" xlink:href="#DejaVuSans-2e"/>
     <use x="803.328125" xlink:href="#DejaVuSans-2e"/>
     <use x="835.115234" xlink:href="#DejaVuSans-31"/>
     <use x="898.738281" xlink:href="#DejaVuSans-65"/>
     <use x="960.261719" xlink:href="#DejaVuSans-2d"/>
     <use x="996.345703" xlink:href="#DejaVuSans-30"/>
     <use x="1059.96875" xlink:href="#DejaVuSans-38"/>
    </g>
    <!-- 15 instances -->
    <g transform="translate(60.41088 48.426593)scale(0.102 -0.102)">
     <use xlink:href="#DejaVuSans-31"/>
     <use x="63.623047" xlink:href="#DejaVuSans-35"/>
     <use x="127.246094" xlink:href="#DejaVuSans-20"/>
     <use x="159.033203" xlink:href="#DejaVuSans-69"/>
     <use x="186.816406" xlink:href="#DejaVuSans-6e"/>
     <use x="250.195312" xlink:href="#DejaVuSans-73"/>
     <use x="302.294922" xlink:href="#DejaVuSans-74"/>
     <use x="341.503906" xlink:href="#DejaVuSans-61"/>
     <use x="402.783203" xlink:href="#DejaVuSans-6e"/>
     <use x="466.162109" xlink:href="#DejaVuSans-63"/>
     <use x="521.142578" xlink:href="#DejaVuSans-65"/>
     <use x="582.666016" xlink:href="#DejaVuSans-73"/>
    </g>
   </g>
   <g id="text_18">
    <!-- v2.4 -->
    <g style="fill:#808080;" transform="translate(187.233062 293.909432)scale(0.1 -0.1)">
     <use xlink:href="#DejaVuSans-76"/>
     <use x="59.179688" xlink:href="#DejaVuSans-32"/>
     <use x="122.802734" xlink:href="#DejaVuSans-2e"/>
     <use x="154.589844" xlink:href="#DejaVuSans-34"/>
    </g>
   </g>
  </g>
 </g>
 <defs>
  <clipPath id="pe738e83197">
   <rect height="295.488" width="281.088" x="57.6" y="3.456"/>
  </clipPath>
 </defs>
</svg>
