<?xml version="1.0" encoding="utf-8" standalone="no"?>
<!DOCTYPE svg PUBLIC "-//W3C//DTD SVG 1.1//EN"
  "http://www.w3.org/Graphics/SVG/1.1/DTD/svg11.dtd">
<svg height="345.6pt" version="1.1" viewBox="0 0 460.8 345.6" width="460.8pt" xmlns="http://www.w3.org/2000/svg" xmlns:xlink="http://www.w3.org/1999/xlink">
 <metadata>
  <rdf:RDF xmlns:cc="http://creativecommons.org/ns#" xmlns:dc="http://purl.org/dc/elements/1.1/" xmlns:rdf="http://www.w3.org/1999/02/22-rdf-syntax-ns#">
   <cc:Work>
    <dc:type rdf:resource="http://purl.org/dc/dcmitype/StillImage"/>
    <dc:date>2021-07-27T16:03:49.675944</dc:date>
    <dc:format>image/svg+xml</dc:format>
    <dc:creator>
     <cc:Agent>
      <dc:title>Matplotlib v3.4.2, https://matplotlib.org/</dc:title>
     </cc:Agent>
    </dc:creator>
   </cc:Work>
  </rdf:RDF>
 </metadata>
 <defs>
  <style type="text/css">*{stroke-linecap:butt;stroke-linejoin:round;}</style>
 </defs>
 <g id="figure_1">
  <g id="patch_1">
   <path d="M 0 345.6 
L 460.8 345.6 
L 460.8 0 
L 0 0 
z
" style="fill:#ffffff;"/>
  </g>
  <g id="axes_1">
   <g id="patch_2">
    <path d="M 57.6 298.944 
L 338.688 298.944 
L 338.688 27.648 
L 57.6 27.648 
z
" style="fill:#ffffff;"/>
   </g>
   <g id="matplotlib.axis_1">
    <g id="xtick_1">
     <g id="line2d_1">
      <path clip-path="url(#p8e944461b7)" d="M 57.6 298.944 
L 57.6 27.648 
" style="fill:none;stroke:#b0b0b0;stroke-linecap:square;stroke-width:0.8;"/>
     </g>
     <g id="line2d_2">
      <defs>
       <path d="M 0 0 
L 0 3.5 
" id="m6e6fcc7b8b" style="stroke:#000000;stroke-width:0.8;"/>
      </defs>
      <g>
       <use style="stroke:#000000;stroke-width:0.8;" x="57.6" xlink:href="#m6e6fcc7b8b" y="298.944"/>
      </g>
     </g>
     <g id="text_1">
      <!-- 0 -->
      <g transform="translate(51.2375 321.140875)scale(0.2 -0.2)">
       <defs>
        <path d="M 2034 4250 
Q 1547 4250 1301 3770 
Q 1056 3291 1056 2328 
Q 1056 1369 1301 889 
Q 1547 409 2034 409 
Q 2525 409 2770 889 
Q 3016 1369 3016 2328 
Q 3016 3291 2770 3770 
Q 2525 4250 2034 4250 
z
M 2034 4750 
Q 2819 4750 3233 4129 
Q 3647 3509 3647 2328 
Q 3647 1150 3233 529 
Q 2819 -91 2034 -91 
Q 1250 -91 836 529 
Q 422 1150 422 2328 
Q 422 3509 836 4129 
Q 1250 4750 2034 4750 
z
" id="DejaVuSans-30" transform="scale(0.015625)"/>
       </defs>
       <use xlink:href="#DejaVuSans-30"/>
      </g>
     </g>
    </g>
    <g id="xtick_2">
     <g id="line2d_3">
      <path clip-path="url(#p8e944461b7)" d="M 137.910857 298.944 
L 137.910857 27.648 
" style="fill:none;stroke:#b0b0b0;stroke-linecap:square;stroke-width:0.8;"/>
     </g>
     <g id="line2d_4">
      <g>
       <use style="stroke:#000000;stroke-width:0.8;" x="137.910857" xlink:href="#m6e6fcc7b8b" y="298.944"/>
      </g>
     </g>
     <g id="text_2">
      <!-- 2 -->
      <g transform="translate(131.548357 321.140875)scale(0.2 -0.2)">
       <defs>
        <path d="M 1228 531 
L 3431 531 
L 3431 0 
L 469 0 
L 469 531 
Q 828 903 1448 1529 
Q 2069 2156 2228 2338 
Q 2531 2678 2651 2914 
Q 2772 3150 2772 3378 
Q 2772 3750 2511 3984 
Q 2250 4219 1831 4219 
Q 1534 4219 1204 4116 
Q 875 4013 500 3803 
L 500 4441 
Q 881 4594 1212 4672 
Q 1544 4750 1819 4750 
Q 2544 4750 2975 4387 
Q 3406 4025 3406 3419 
Q 3406 3131 3298 2873 
Q 3191 2616 2906 2266 
Q 2828 2175 2409 1742 
Q 1991 1309 1228 531 
z
" id="DejaVuSans-32" transform="scale(0.015625)"/>
       </defs>
       <use xlink:href="#DejaVuSans-32"/>
      </g>
     </g>
    </g>
    <g id="xtick_3">
     <g id="line2d_5">
      <path clip-path="url(#p8e944461b7)" d="M 218.221714 298.944 
L 218.221714 27.648 
" style="fill:none;stroke:#b0b0b0;stroke-linecap:square;stroke-width:0.8;"/>
     </g>
     <g id="line2d_6">
      <g>
       <use style="stroke:#000000;stroke-width:0.8;" x="218.221714" xlink:href="#m6e6fcc7b8b" y="298.944"/>
      </g>
     </g>
     <g id="text_3">
      <!-- 4 -->
      <g transform="translate(211.859214 321.140875)scale(0.2 -0.2)">
       <defs>
        <path d="M 2419 4116 
L 825 1625 
L 2419 1625 
L 2419 4116 
z
M 2253 4666 
L 3047 4666 
L 3047 1625 
L 3713 1625 
L 3713 1100 
L 3047 1100 
L 3047 0 
L 2419 0 
L 2419 1100 
L 313 1100 
L 313 1709 
L 2253 4666 
z
" id="DejaVuSans-34" transform="scale(0.015625)"/>
       </defs>
       <use xlink:href="#DejaVuSans-34"/>
      </g>
     </g>
    </g>
    <g id="xtick_4">
     <g id="line2d_7">
      <path clip-path="url(#p8e944461b7)" d="M 298.532571 298.944 
L 298.532571 27.648 
" style="fill:none;stroke:#b0b0b0;stroke-linecap:square;stroke-width:0.8;"/>
     </g>
     <g id="line2d_8">
      <g>
       <use style="stroke:#000000;stroke-width:0.8;" x="298.532571" xlink:href="#m6e6fcc7b8b" y="298.944"/>
      </g>
     </g>
     <g id="text_4">
      <!-- 6 -->
      <g transform="translate(292.170071 321.140875)scale(0.2 -0.2)">
       <defs>
        <path d="M 2113 2584 
Q 1688 2584 1439 2293 
Q 1191 2003 1191 1497 
Q 1191 994 1439 701 
Q 1688 409 2113 409 
Q 2538 409 2786 701 
Q 3034 994 3034 1497 
Q 3034 2003 2786 2293 
Q 2538 2584 2113 2584 
z
M 3366 4563 
L 3366 3988 
Q 3128 4100 2886 4159 
Q 2644 4219 2406 4219 
Q 1781 4219 1451 3797 
Q 1122 3375 1075 2522 
Q 1259 2794 1537 2939 
Q 1816 3084 2150 3084 
Q 2853 3084 3261 2657 
Q 3669 2231 3669 1497 
Q 3669 778 3244 343 
Q 2819 -91 2113 -91 
Q 1303 -91 875 529 
Q 447 1150 447 2328 
Q 447 3434 972 4092 
Q 1497 4750 2381 4750 
Q 2619 4750 2861 4703 
Q 3103 4656 3366 4563 
z
" id="DejaVuSans-36" transform="scale(0.015625)"/>
       </defs>
       <use xlink:href="#DejaVuSans-36"/>
      </g>
     </g>
    </g>
    <g id="xtick_5">
     <g id="line2d_9">
      <path clip-path="url(#p8e944461b7)" d="M 97.755429 298.944 
L 97.755429 27.648 
" style="fill:none;stroke:#b0b0b0;stroke-linecap:square;stroke-width:0.8;"/>
     </g>
     <g id="line2d_10">
      <defs>
       <path d="M 0 0 
L 0 2 
" id="m2da23f19ed" style="stroke:#000000;stroke-width:0.6;"/>
      </defs>
      <g>
       <use style="stroke:#000000;stroke-width:0.6;" x="97.755429" xlink:href="#m2da23f19ed" y="298.944"/>
      </g>
     </g>
    </g>
    <g id="xtick_6">
     <g id="line2d_11">
      <path clip-path="url(#p8e944461b7)" d="M 178.066286 298.944 
L 178.066286 27.648 
" style="fill:none;stroke:#b0b0b0;stroke-linecap:square;stroke-width:0.8;"/>
     </g>
     <g id="line2d_12">
      <g>
       <use style="stroke:#000000;stroke-width:0.6;" x="178.066286" xlink:href="#m2da23f19ed" y="298.944"/>
      </g>
     </g>
    </g>
    <g id="xtick_7">
     <g id="line2d_13">
      <path clip-path="url(#p8e944461b7)" d="M 258.377143 298.944 
L 258.377143 27.648 
" style="fill:none;stroke:#b0b0b0;stroke-linecap:square;stroke-width:0.8;"/>
     </g>
     <g id="line2d_14">
      <g>
       <use style="stroke:#000000;stroke-width:0.6;" x="258.377143" xlink:href="#m2da23f19ed" y="298.944"/>
      </g>
     </g>
    </g>
    <g id="xtick_8">
     <g id="line2d_15">
      <path clip-path="url(#p8e944461b7)" d="M 338.688 298.944 
L 338.688 27.648 
" style="fill:none;stroke:#b0b0b0;stroke-linecap:square;stroke-width:0.8;"/>
     </g>
     <g id="line2d_16">
      <g>
       <use style="stroke:#000000;stroke-width:0.6;" x="338.688" xlink:href="#m2da23f19ed" y="298.944"/>
      </g>
     </g>
    </g>
    <g id="text_5">
     <!-- log10(# f-evals / dimension) -->
     <g transform="translate(77.764078 342.217594)scale(0.17 -0.17)">
      <defs>
       <path d="M 603 4863 
L 1178 4863 
L 1178 0 
L 603 0 
L 603 4863 
z
" id="DejaVuSans-6c" transform="scale(0.015625)"/>
       <path d="M 1959 3097 
Q 1497 3097 1228 2736 
Q 959 2375 959 1747 
Q 959 1119 1226 758 
Q 1494 397 1959 397 
Q 2419 397 2687 759 
Q 2956 1122 2956 1747 
Q 2956 2369 2687 2733 
Q 2419 3097 1959 3097 
z
M 1959 3584 
Q 2709 3584 3137 3096 
Q 3566 2609 3566 1747 
Q 3566 888 3137 398 
Q 2709 -91 1959 -91 
Q 1206 -91 779 398 
Q 353 888 353 1747 
Q 353 2609 779 3096 
Q 1206 3584 1959 3584 
z
" id="DejaVuSans-6f" transform="scale(0.015625)"/>
       <path d="M 2906 1791 
Q 2906 2416 2648 2759 
Q 2391 3103 1925 3103 
Q 1463 3103 1205 2759 
Q 947 2416 947 1791 
Q 947 1169 1205 825 
Q 1463 481 1925 481 
Q 2391 481 2648 825 
Q 2906 1169 2906 1791 
z
M 3481 434 
Q 3481 -459 3084 -895 
Q 2688 -1331 1869 -1331 
Q 1566 -1331 1297 -1286 
Q 1028 -1241 775 -1147 
L 775 -588 
Q 1028 -725 1275 -790 
Q 1522 -856 1778 -856 
Q 2344 -856 2625 -561 
Q 2906 -266 2906 331 
L 2906 616 
Q 2728 306 2450 153 
Q 2172 0 1784 0 
Q 1141 0 747 490 
Q 353 981 353 1791 
Q 353 2603 747 3093 
Q 1141 3584 1784 3584 
Q 2172 3584 2450 3431 
Q 2728 3278 2906 2969 
L 2906 3500 
L 3481 3500 
L 3481 434 
z
" id="DejaVuSans-67" transform="scale(0.015625)"/>
       <path d="M 794 531 
L 1825 531 
L 1825 4091 
L 703 3866 
L 703 4441 
L 1819 4666 
L 2450 4666 
L 2450 531 
L 3481 531 
L 3481 0 
L 794 0 
L 794 531 
z
" id="DejaVuSans-31" transform="scale(0.015625)"/>
       <path d="M 1984 4856 
Q 1566 4138 1362 3434 
Q 1159 2731 1159 2009 
Q 1159 1288 1364 580 
Q 1569 -128 1984 -844 
L 1484 -844 
Q 1016 -109 783 600 
Q 550 1309 550 2009 
Q 550 2706 781 3412 
Q 1013 4119 1484 4856 
L 1984 4856 
z
" id="DejaVuSans-28" transform="scale(0.015625)"/>
       <path d="M 3272 2816 
L 2363 2816 
L 2100 1772 
L 3016 1772 
L 3272 2816 
z
M 2803 4594 
L 2478 3297 
L 3391 3297 
L 3719 4594 
L 4219 4594 
L 3897 3297 
L 4872 3297 
L 4872 2816 
L 3775 2816 
L 3519 1772 
L 4513 1772 
L 4513 1294 
L 3397 1294 
L 3072 0 
L 2572 0 
L 2894 1294 
L 1978 1294 
L 1656 0 
L 1153 0 
L 1478 1294 
L 494 1294 
L 494 1772 
L 1594 1772 
L 1856 2816 
L 850 2816 
L 850 3297 
L 1978 3297 
L 2297 4594 
L 2803 4594 
z
" id="DejaVuSans-23" transform="scale(0.015625)"/>
       <path id="DejaVuSans-20" transform="scale(0.015625)"/>
       <path d="M 2375 4863 
L 2375 4384 
L 1825 4384 
Q 1516 4384 1395 4259 
Q 1275 4134 1275 3809 
L 1275 3500 
L 2222 3500 
L 2222 3053 
L 1275 3053 
L 1275 0 
L 697 0 
L 697 3053 
L 147 3053 
L 147 3500 
L 697 3500 
L 697 3744 
Q 697 4328 969 4595 
Q 1241 4863 1831 4863 
L 2375 4863 
z
" id="DejaVuSans-66" transform="scale(0.015625)"/>
       <path d="M 313 2009 
L 1997 2009 
L 1997 1497 
L 313 1497 
L 313 2009 
z
" id="DejaVuSans-2d" transform="scale(0.015625)"/>
       <path d="M 3597 1894 
L 3597 1613 
L 953 1613 
Q 991 1019 1311 708 
Q 1631 397 2203 397 
Q 2534 397 2845 478 
Q 3156 559 3463 722 
L 3463 178 
Q 3153 47 2828 -22 
Q 2503 -91 2169 -91 
Q 1331 -91 842 396 
Q 353 884 353 1716 
Q 353 2575 817 3079 
Q 1281 3584 2069 3584 
Q 2775 3584 3186 3129 
Q 3597 2675 3597 1894 
z
M 3022 2063 
Q 3016 2534 2758 2815 
Q 2500 3097 2075 3097 
Q 1594 3097 1305 2825 
Q 1016 2553 972 2059 
L 3022 2063 
z
" id="DejaVuSans-65" transform="scale(0.015625)"/>
       <path d="M 191 3500 
L 800 3500 
L 1894 563 
L 2988 3500 
L 3597 3500 
L 2284 0 
L 1503 0 
L 191 3500 
z
" id="DejaVuSans-76" transform="scale(0.015625)"/>
       <path d="M 2194 1759 
Q 1497 1759 1228 1600 
Q 959 1441 959 1056 
Q 959 750 1161 570 
Q 1363 391 1709 391 
Q 2188 391 2477 730 
Q 2766 1069 2766 1631 
L 2766 1759 
L 2194 1759 
z
M 3341 1997 
L 3341 0 
L 2766 0 
L 2766 531 
Q 2569 213 2275 61 
Q 1981 -91 1556 -91 
Q 1019 -91 701 211 
Q 384 513 384 1019 
Q 384 1609 779 1909 
Q 1175 2209 1959 2209 
L 2766 2209 
L 2766 2266 
Q 2766 2663 2505 2880 
Q 2244 3097 1772 3097 
Q 1472 3097 1187 3025 
Q 903 2953 641 2809 
L 641 3341 
Q 956 3463 1253 3523 
Q 1550 3584 1831 3584 
Q 2591 3584 2966 3190 
Q 3341 2797 3341 1997 
z
" id="DejaVuSans-61" transform="scale(0.015625)"/>
       <path d="M 2834 3397 
L 2834 2853 
Q 2591 2978 2328 3040 
Q 2066 3103 1784 3103 
Q 1356 3103 1142 2972 
Q 928 2841 928 2578 
Q 928 2378 1081 2264 
Q 1234 2150 1697 2047 
L 1894 2003 
Q 2506 1872 2764 1633 
Q 3022 1394 3022 966 
Q 3022 478 2636 193 
Q 2250 -91 1575 -91 
Q 1294 -91 989 -36 
Q 684 19 347 128 
L 347 722 
Q 666 556 975 473 
Q 1284 391 1588 391 
Q 1994 391 2212 530 
Q 2431 669 2431 922 
Q 2431 1156 2273 1281 
Q 2116 1406 1581 1522 
L 1381 1569 
Q 847 1681 609 1914 
Q 372 2147 372 2553 
Q 372 3047 722 3315 
Q 1072 3584 1716 3584 
Q 2034 3584 2315 3537 
Q 2597 3491 2834 3397 
z
" id="DejaVuSans-73" transform="scale(0.015625)"/>
       <path d="M 1625 4666 
L 2156 4666 
L 531 -594 
L 0 -594 
L 1625 4666 
z
" id="DejaVuSans-2f" transform="scale(0.015625)"/>
       <path d="M 2906 2969 
L 2906 4863 
L 3481 4863 
L 3481 0 
L 2906 0 
L 2906 525 
Q 2725 213 2448 61 
Q 2172 -91 1784 -91 
Q 1150 -91 751 415 
Q 353 922 353 1747 
Q 353 2572 751 3078 
Q 1150 3584 1784 3584 
Q 2172 3584 2448 3432 
Q 2725 3281 2906 2969 
z
M 947 1747 
Q 947 1113 1208 752 
Q 1469 391 1925 391 
Q 2381 391 2643 752 
Q 2906 1113 2906 1747 
Q 2906 2381 2643 2742 
Q 2381 3103 1925 3103 
Q 1469 3103 1208 2742 
Q 947 2381 947 1747 
z
" id="DejaVuSans-64" transform="scale(0.015625)"/>
       <path d="M 603 3500 
L 1178 3500 
L 1178 0 
L 603 0 
L 603 3500 
z
M 603 4863 
L 1178 4863 
L 1178 4134 
L 603 4134 
L 603 4863 
z
" id="DejaVuSans-69" transform="scale(0.015625)"/>
       <path d="M 3328 2828 
Q 3544 3216 3844 3400 
Q 4144 3584 4550 3584 
Q 5097 3584 5394 3201 
Q 5691 2819 5691 2113 
L 5691 0 
L 5113 0 
L 5113 2094 
Q 5113 2597 4934 2840 
Q 4756 3084 4391 3084 
Q 3944 3084 3684 2787 
Q 3425 2491 3425 1978 
L 3425 0 
L 2847 0 
L 2847 2094 
Q 2847 2600 2669 2842 
Q 2491 3084 2119 3084 
Q 1678 3084 1418 2786 
Q 1159 2488 1159 1978 
L 1159 0 
L 581 0 
L 581 3500 
L 1159 3500 
L 1159 2956 
Q 1356 3278 1631 3431 
Q 1906 3584 2284 3584 
Q 2666 3584 2933 3390 
Q 3200 3197 3328 2828 
z
" id="DejaVuSans-6d" transform="scale(0.015625)"/>
       <path d="M 3513 2113 
L 3513 0 
L 2938 0 
L 2938 2094 
Q 2938 2591 2744 2837 
Q 2550 3084 2163 3084 
Q 1697 3084 1428 2787 
Q 1159 2491 1159 1978 
L 1159 0 
L 581 0 
L 581 3500 
L 1159 3500 
L 1159 2956 
Q 1366 3272 1645 3428 
Q 1925 3584 2291 3584 
Q 2894 3584 3203 3211 
Q 3513 2838 3513 2113 
z
" id="DejaVuSans-6e" transform="scale(0.015625)"/>
       <path d="M 513 4856 
L 1013 4856 
Q 1481 4119 1714 3412 
Q 1947 2706 1947 2009 
Q 1947 1309 1714 600 
Q 1481 -109 1013 -844 
L 513 -844 
Q 928 -128 1133 580 
Q 1338 1288 1338 2009 
Q 1338 2731 1133 3434 
Q 928 4138 513 4856 
z
" id="DejaVuSans-29" transform="scale(0.015625)"/>
      </defs>
      <use xlink:href="#DejaVuSans-6c"/>
      <use x="27.783203" xlink:href="#DejaVuSans-6f"/>
      <use x="88.964844" xlink:href="#DejaVuSans-67"/>
      <use x="152.441406" xlink:href="#DejaVuSans-31"/>
      <use x="216.064453" xlink:href="#DejaVuSans-30"/>
      <use x="279.6875" xlink:href="#DejaVuSans-28"/>
      <use x="318.701172" xlink:href="#DejaVuSans-23"/>
      <use x="402.490234" xlink:href="#DejaVuSans-20"/>
      <use x="434.277344" xlink:href="#DejaVuSans-66"/>
      <use x="463.982422" xlink:href="#DejaVuSans-2d"/>
      <use x="500.066406" xlink:href="#DejaVuSans-65"/>
      <use x="561.589844" xlink:href="#DejaVuSans-76"/>
      <use x="620.769531" xlink:href="#DejaVuSans-61"/>
      <use x="682.048828" xlink:href="#DejaVuSans-6c"/>
      <use x="709.832031" xlink:href="#DejaVuSans-73"/>
      <use x="761.931641" xlink:href="#DejaVuSans-20"/>
      <use x="793.71875" xlink:href="#DejaVuSans-2f"/>
      <use x="827.410156" xlink:href="#DejaVuSans-20"/>
      <use x="859.197266" xlink:href="#DejaVuSans-64"/>
      <use x="922.673828" xlink:href="#DejaVuSans-69"/>
      <use x="950.457031" xlink:href="#DejaVuSans-6d"/>
      <use x="1047.869141" xlink:href="#DejaVuSans-65"/>
      <use x="1109.392578" xlink:href="#DejaVuSans-6e"/>
      <use x="1172.771484" xlink:href="#DejaVuSans-73"/>
      <use x="1224.871094" xlink:href="#DejaVuSans-69"/>
      <use x="1252.654297" xlink:href="#DejaVuSans-6f"/>
      <use x="1313.835938" xlink:href="#DejaVuSans-6e"/>
      <use x="1377.214844" xlink:href="#DejaVuSans-29"/>
     </g>
    </g>
   </g>
   <g id="matplotlib.axis_2">
    <g id="ytick_1">
     <g id="line2d_17">
      <path clip-path="url(#p8e944461b7)" d="M 57.6 298.944 
L 338.688 298.944 
" style="fill:none;stroke:#b0b0b0;stroke-linecap:square;stroke-width:0.8;"/>
     </g>
     <g id="line2d_18">
      <defs>
       <path d="M 0 0 
L -3.5 0 
" id="mefc1af5d9d" style="stroke:#000000;stroke-width:0.8;"/>
      </defs>
      <g>
       <use style="stroke:#000000;stroke-width:0.8;" x="57.6" xlink:href="#mefc1af5d9d" y="298.944"/>
      </g>
     </g>
     <g id="text_6">
      <!-- 0.0 -->
      <g transform="translate(25.155 305.02275)scale(0.16 -0.16)">
       <defs>
        <path d="M 684 794 
L 1344 794 
L 1344 0 
L 684 0 
L 684 794 
z
" id="DejaVuSans-2e" transform="scale(0.015625)"/>
       </defs>
       <use xlink:href="#DejaVuSans-30"/>
       <use x="63.623047" xlink:href="#DejaVuSans-2e"/>
       <use x="95.410156" xlink:href="#DejaVuSans-30"/>
      </g>
     </g>
    </g>
    <g id="ytick_2">
     <g id="line2d_19">
      <path clip-path="url(#p8e944461b7)" d="M 57.6 245.22202 
L 338.688 245.22202 
" style="fill:none;stroke:#b0b0b0;stroke-linecap:square;stroke-width:0.8;"/>
     </g>
     <g id="line2d_20">
      <g>
       <use style="stroke:#000000;stroke-width:0.8;" x="57.6" xlink:href="#mefc1af5d9d" y="245.22202"/>
      </g>
     </g>
     <g id="text_7">
      <!-- 0.2 -->
      <g transform="translate(25.155 251.30077)scale(0.16 -0.16)">
       <use xlink:href="#DejaVuSans-30"/>
       <use x="63.623047" xlink:href="#DejaVuSans-2e"/>
       <use x="95.410156" xlink:href="#DejaVuSans-32"/>
      </g>
     </g>
    </g>
    <g id="ytick_3">
     <g id="line2d_21">
      <path clip-path="url(#p8e944461b7)" d="M 57.6 191.50004 
L 338.688 191.50004 
" style="fill:none;stroke:#b0b0b0;stroke-linecap:square;stroke-width:0.8;"/>
     </g>
     <g id="line2d_22">
      <g>
       <use style="stroke:#000000;stroke-width:0.8;" x="57.6" xlink:href="#mefc1af5d9d" y="191.50004"/>
      </g>
     </g>
     <g id="text_8">
      <!-- 0.4 -->
      <g transform="translate(25.155 197.57879)scale(0.16 -0.16)">
       <use xlink:href="#DejaVuSans-30"/>
       <use x="63.623047" xlink:href="#DejaVuSans-2e"/>
       <use x="95.410156" xlink:href="#DejaVuSans-34"/>
      </g>
     </g>
    </g>
    <g id="ytick_4">
     <g id="line2d_23">
      <path clip-path="url(#p8e944461b7)" d="M 57.6 137.778059 
L 338.688 137.778059 
" style="fill:none;stroke:#b0b0b0;stroke-linecap:square;stroke-width:0.8;"/>
     </g>
     <g id="line2d_24">
      <g>
       <use style="stroke:#000000;stroke-width:0.8;" x="57.6" xlink:href="#mefc1af5d9d" y="137.778059"/>
      </g>
     </g>
     <g id="text_9">
      <!-- 0.6 -->
      <g transform="translate(25.155 143.856809)scale(0.16 -0.16)">
       <use xlink:href="#DejaVuSans-30"/>
       <use x="63.623047" xlink:href="#DejaVuSans-2e"/>
       <use x="95.410156" xlink:href="#DejaVuSans-36"/>
      </g>
     </g>
    </g>
    <g id="ytick_5">
     <g id="line2d_25">
      <path clip-path="url(#p8e944461b7)" d="M 57.6 84.056079 
L 338.688 84.056079 
" style="fill:none;stroke:#b0b0b0;stroke-linecap:square;stroke-width:0.8;"/>
     </g>
     <g id="line2d_26">
      <g>
       <use style="stroke:#000000;stroke-width:0.8;" x="57.6" xlink:href="#mefc1af5d9d" y="84.056079"/>
      </g>
     </g>
     <g id="text_10">
      <!-- 0.8 -->
      <g transform="translate(25.155 90.134829)scale(0.16 -0.16)">
       <defs>
        <path d="M 2034 2216 
Q 1584 2216 1326 1975 
Q 1069 1734 1069 1313 
Q 1069 891 1326 650 
Q 1584 409 2034 409 
Q 2484 409 2743 651 
Q 3003 894 3003 1313 
Q 3003 1734 2745 1975 
Q 2488 2216 2034 2216 
z
M 1403 2484 
Q 997 2584 770 2862 
Q 544 3141 544 3541 
Q 544 4100 942 4425 
Q 1341 4750 2034 4750 
Q 2731 4750 3128 4425 
Q 3525 4100 3525 3541 
Q 3525 3141 3298 2862 
Q 3072 2584 2669 2484 
Q 3125 2378 3379 2068 
Q 3634 1759 3634 1313 
Q 3634 634 3220 271 
Q 2806 -91 2034 -91 
Q 1263 -91 848 271 
Q 434 634 434 1313 
Q 434 1759 690 2068 
Q 947 2378 1403 2484 
z
M 1172 3481 
Q 1172 3119 1398 2916 
Q 1625 2713 2034 2713 
Q 2441 2713 2670 2916 
Q 2900 3119 2900 3481 
Q 2900 3844 2670 4047 
Q 2441 4250 2034 4250 
Q 1625 4250 1398 4047 
Q 1172 3844 1172 3481 
z
" id="DejaVuSans-38" transform="scale(0.015625)"/>
       </defs>
       <use xlink:href="#DejaVuSans-30"/>
       <use x="63.623047" xlink:href="#DejaVuSans-2e"/>
       <use x="95.410156" xlink:href="#DejaVuSans-38"/>
      </g>
     </g>
    </g>
    <g id="ytick_6">
     <g id="line2d_27">
      <path clip-path="url(#p8e944461b7)" d="M 57.6 30.334099 
L 338.688 30.334099 
" style="fill:none;stroke:#b0b0b0;stroke-linecap:square;stroke-width:0.8;"/>
     </g>
     <g id="line2d_28">
      <g>
       <use style="stroke:#000000;stroke-width:0.8;" x="57.6" xlink:href="#mefc1af5d9d" y="30.334099"/>
      </g>
     </g>
     <g id="text_11">
      <!-- 1.0 -->
      <g transform="translate(25.155 36.412849)scale(0.16 -0.16)">
       <use xlink:href="#DejaVuSans-31"/>
       <use x="63.623047" xlink:href="#DejaVuSans-2e"/>
       <use x="95.410156" xlink:href="#DejaVuSans-30"/>
      </g>
     </g>
    </g>
    <g id="text_12">
     <!-- Fraction of function,target pairs -->
     <g transform="translate(17.619531 297.681)rotate(-90)scale(0.17 -0.17)">
      <defs>
       <path d="M 628 4666 
L 3309 4666 
L 3309 4134 
L 1259 4134 
L 1259 2759 
L 3109 2759 
L 3109 2228 
L 1259 2228 
L 1259 0 
L 628 0 
L 628 4666 
z
" id="DejaVuSans-46" transform="scale(0.015625)"/>
       <path d="M 2631 2963 
Q 2534 3019 2420 3045 
Q 2306 3072 2169 3072 
Q 1681 3072 1420 2755 
Q 1159 2438 1159 1844 
L 1159 0 
L 581 0 
L 581 3500 
L 1159 3500 
L 1159 2956 
Q 1341 3275 1631 3429 
Q 1922 3584 2338 3584 
Q 2397 3584 2469 3576 
Q 2541 3569 2628 3553 
L 2631 2963 
z
" id="DejaVuSans-72" transform="scale(0.015625)"/>
       <path d="M 3122 3366 
L 3122 2828 
Q 2878 2963 2633 3030 
Q 2388 3097 2138 3097 
Q 1578 3097 1268 2742 
Q 959 2388 959 1747 
Q 959 1106 1268 751 
Q 1578 397 2138 397 
Q 2388 397 2633 464 
Q 2878 531 3122 666 
L 3122 134 
Q 2881 22 2623 -34 
Q 2366 -91 2075 -91 
Q 1284 -91 818 406 
Q 353 903 353 1747 
Q 353 2603 823 3093 
Q 1294 3584 2113 3584 
Q 2378 3584 2631 3529 
Q 2884 3475 3122 3366 
z
" id="DejaVuSans-63" transform="scale(0.015625)"/>
       <path d="M 1172 4494 
L 1172 3500 
L 2356 3500 
L 2356 3053 
L 1172 3053 
L 1172 1153 
Q 1172 725 1289 603 
Q 1406 481 1766 481 
L 2356 481 
L 2356 0 
L 1766 0 
Q 1100 0 847 248 
Q 594 497 594 1153 
L 594 3053 
L 172 3053 
L 172 3500 
L 594 3500 
L 594 4494 
L 1172 4494 
z
" id="DejaVuSans-74" transform="scale(0.015625)"/>
       <path d="M 544 1381 
L 544 3500 
L 1119 3500 
L 1119 1403 
Q 1119 906 1312 657 
Q 1506 409 1894 409 
Q 2359 409 2629 706 
Q 2900 1003 2900 1516 
L 2900 3500 
L 3475 3500 
L 3475 0 
L 2900 0 
L 2900 538 
Q 2691 219 2414 64 
Q 2138 -91 1772 -91 
Q 1169 -91 856 284 
Q 544 659 544 1381 
z
M 1991 3584 
L 1991 3584 
z
" id="DejaVuSans-75" transform="scale(0.015625)"/>
       <path d="M 750 794 
L 1409 794 
L 1409 256 
L 897 -744 
L 494 -744 
L 750 256 
L 750 794 
z
" id="DejaVuSans-2c" transform="scale(0.015625)"/>
       <path d="M 1159 525 
L 1159 -1331 
L 581 -1331 
L 581 3500 
L 1159 3500 
L 1159 2969 
Q 1341 3281 1617 3432 
Q 1894 3584 2278 3584 
Q 2916 3584 3314 3078 
Q 3713 2572 3713 1747 
Q 3713 922 3314 415 
Q 2916 -91 2278 -91 
Q 1894 -91 1617 61 
Q 1341 213 1159 525 
z
M 3116 1747 
Q 3116 2381 2855 2742 
Q 2594 3103 2138 3103 
Q 1681 3103 1420 2742 
Q 1159 2381 1159 1747 
Q 1159 1113 1420 752 
Q 1681 391 2138 391 
Q 2594 391 2855 752 
Q 3116 1113 3116 1747 
z
" id="DejaVuSans-70" transform="scale(0.015625)"/>
      </defs>
      <use xlink:href="#DejaVuSans-46"/>
      <use x="50.269531" xlink:href="#DejaVuSans-72"/>
      <use x="91.382812" xlink:href="#DejaVuSans-61"/>
      <use x="152.662109" xlink:href="#DejaVuSans-63"/>
      <use x="207.642578" xlink:href="#DejaVuSans-74"/>
      <use x="246.851562" xlink:href="#DejaVuSans-69"/>
      <use x="274.634766" xlink:href="#DejaVuSans-6f"/>
      <use x="335.816406" xlink:href="#DejaVuSans-6e"/>
      <use x="399.195312" xlink:href="#DejaVuSans-20"/>
      <use x="430.982422" xlink:href="#DejaVuSans-6f"/>
      <use x="492.164062" xlink:href="#DejaVuSans-66"/>
      <use x="527.369141" xlink:href="#DejaVuSans-20"/>
      <use x="559.15625" xlink:href="#DejaVuSans-66"/>
      <use x="594.361328" xlink:href="#DejaVuSans-75"/>
      <use x="657.740234" xlink:href="#DejaVuSans-6e"/>
      <use x="721.119141" xlink:href="#DejaVuSans-63"/>
      <use x="776.099609" xlink:href="#DejaVuSans-74"/>
      <use x="815.308594" xlink:href="#DejaVuSans-69"/>
      <use x="843.091797" xlink:href="#DejaVuSans-6f"/>
      <use x="904.273438" xlink:href="#DejaVuSans-6e"/>
      <use x="967.652344" xlink:href="#DejaVuSans-2c"/>
      <use x="999.439453" xlink:href="#DejaVuSans-74"/>
      <use x="1038.648438" xlink:href="#DejaVuSans-61"/>
      <use x="1099.927734" xlink:href="#DejaVuSans-72"/>
      <use x="1139.291016" xlink:href="#DejaVuSans-67"/>
      <use x="1202.767578" xlink:href="#DejaVuSans-65"/>
      <use x="1264.291016" xlink:href="#DejaVuSans-74"/>
      <use x="1303.5" xlink:href="#DejaVuSans-20"/>
      <use x="1335.287109" xlink:href="#DejaVuSans-70"/>
      <use x="1398.763672" xlink:href="#DejaVuSans-61"/>
      <use x="1460.042969" xlink:href="#DejaVuSans-69"/>
      <use x="1487.826172" xlink:href="#DejaVuSans-72"/>
      <use x="1528.939453" xlink:href="#DejaVuSans-73"/>
     </g>
    </g>
   </g>
   <g id="line2d_29">
    <defs>
     <path d="M 0 1.5 
C 0.397805 1.5 0.77937 1.341951 1.06066 1.06066 
C 1.341951 0.77937 1.5 0.397805 1.5 0 
C 1.5 -0.397805 1.341951 -0.77937 1.06066 -1.06066 
C 0.77937 -1.341951 0.397805 -1.5 0 -1.5 
C -0.397805 -1.5 -0.77937 -1.341951 -1.06066 -1.06066 
C -1.341951 -0.77937 -1.5 -0.397805 -1.5 0 
C -1.5 0.397805 -1.341951 0.77937 -1.06066 1.06066 
C -0.77937 1.341951 -0.397805 1.5 0 1.5 
z
" id="mc8fb3f9e73" style="stroke:#00bfbf;"/>
    </defs>
    <g>
     <use style="fill:#00bfbf;stroke:#00bfbf;" x="186.894312" xlink:href="#mc8fb3f9e73" y="30.334099"/>
     <use style="fill:#00bfbf;stroke:#00bfbf;" x="186.894312" xlink:href="#mc8fb3f9e73" y="30.334099"/>
    </g>
   </g>
   <g id="line2d_30">
    <path d="M 45.512012 298.944 
L 45.512012 293.150453 
L 57.6 293.150453 
L 57.6 287.883592 
L 64.67102 287.883592 
L 64.67102 284.19679 
L 69.687988 284.19679 
L 69.687988 283.670104 
L 73.579452 283.670104 
L 73.579452 282.616732 
L 76.759008 282.616732 
L 76.759008 281.563359 
L 79.447285 281.563359 
L 79.447285 279.456615 
L 83.830028 279.456615 
L 83.830028 277.876557 
L 87.329581 277.876557 
L 87.329581 276.823185 
L 90.242884 276.823185 
L 90.242884 275.769812 
L 92.73846 275.769812 
L 92.73846 275.243126 
L 95.918017 275.243126 
L 95.918017 274.71644 
L 98.606294 274.71644 
L 98.606294 273.663068 
L 99.41757 273.663068 
L 99.41757 273.136382 
L 101.646892 273.136382 
L 101.646892 272.609696 
L 105.951954 272.609696 
L 105.951954 272.08301 
L 107.009204 272.08301 
L 107.009204 271.556324 
L 107.514726 271.556324 
L 107.514726 271.029638 
L 108.006005 271.029638 
L 108.006005 269.449579 
L 109.401893 269.449579 
L 109.401893 268.922893 
L 111.505558 268.922893 
L 111.505558 268.396207 
L 113.022974 268.396207 
L 113.022974 267.342835 
L 120.8059 267.342835 
L 120.8059 266.816149 
L 124.557288 266.816149 
L 124.557288 265.762777 
L 129.714332 265.762777 
L 129.714332 265.236091 
L 130.531948 265.236091 
L 130.531948 264.709405 
L 131.185181 264.709405 
L 131.185181 264.182719 
L 131.690703 264.182719 
L 131.690703 263.656033 
L 134.019394 263.656033 
L 134.019394 262.60266 
L 135.482227 262.60266 
L 135.482227 262.075974 
L 137.37967 262.075974 
L 137.37967 261.549288 
L 138.426341 261.549288 
L 138.426341 259.96923 
L 138.84457 259.96923 
L 138.84457 259.442544 
L 139.172077 259.442544 
L 139.172077 258.915858 
L 139.887228 258.915858 
L 139.964909 257.862486 
L 142.486301 257.862486 
L 142.486301 257.3358 
L 144.330419 257.3358 
L 144.330419 256.809114 
L 144.629556 256.809114 
L 144.629556 256.282427 
L 145.212864 256.282427 
L 145.212864 255.229055 
L 145.777292 255.229055 
L 145.777292 254.702369 
L 147.266916 254.702369 
L 147.266916 254.175683 
L 148.112924 254.175683 
L 148.112924 253.648997 
L 148.40198 253.648997 
L 148.40198 253.122311 
L 148.826773 253.122311 
L 148.826773 252.595625 
L 149.241465 252.595625 
L 149.241465 252.068939 
L 150.38688 252.068939 
L 150.47195 249.962195 
L 150.932558 249.962195 
L 150.932558 249.435508 
L 152.587184 249.435508 
L 152.587184 248.382136 
L 152.736878 248.382136 
L 152.736878 247.85545 
L 152.959038 247.85545 
L 152.959038 246.802078 
L 153.750233 246.802078 
L 153.750233 246.275392 
L 154.405793 246.275392 
L 154.405793 245.22202 
L 154.972161 245.22202 
L 154.972161 244.695334 
L 155.86668 244.695334 
L 155.86668 244.168648 
L 157.011638 244.168648 
L 157.040776 241.008531 
L 157.669802 241.008531 
L 157.669802 240.481845 
L 157.893028 240.481845 
L 157.893028 239.955159 
L 158.492562 239.955159 
L 158.492562 238.901787 
L 158.994256 238.901787 
L 158.994256 238.375101 
L 159.149734 238.375101 
L 159.149734 237.848415 
L 160.938061 237.848415 
L 160.938061 236.268356 
L 161.955547 236.268356 
L 162.021314 232.581554 
L 163.061823 232.581554 
L 163.061823 231.528182 
L 163.549667 231.528182 
L 163.549667 229.421437 
L 166.425924 229.421437 
L 166.425924 228.894751 
L 166.578233 228.894751 
L 166.578233 228.368065 
L 167.010909 228.368065 
L 167.010909 227.314693 
L 167.576907 227.314693 
L 167.576907 226.788007 
L 167.970232 226.788007 
L 167.970232 226.261321 
L 168.202038 226.261321 
L 168.202038 225.734635 
L 168.551595 225.734635 
L 168.551595 224.681263 
L 169.244833 224.681263 
L 169.244833 224.154577 
L 169.545889 224.154577 
L 169.545889 223.101204 
L 171.069226 223.101204 
L 171.121244 220.467774 
L 171.340609 220.467774 
L 171.340609 218.887716 
L 171.569909 218.887716 
L 171.569909 217.834344 
L 171.883461 217.834344 
L 171.883461 216.780971 
L 172.276753 216.780971 
L 172.385786 214.674227 
L 172.566008 214.674227 
L 172.566008 213.094169 
L 172.791647 213.094169 
L 172.791647 212.040797 
L 173.211329 212.040797 
L 173.245851 210.460738 
L 173.360433 210.460738 
L 173.383259 208.88068 
L 173.55351 208.88068 
L 173.55351 208.353994 
L 173.844732 208.353994 
L 173.844732 207.827308 
L 174.098358 207.827308 
L 174.098358 206.773936 
L 174.240098 206.773936 
L 174.315944 203.613819 
L 174.391462 203.613819 
L 174.423728 201.507075 
L 174.562857 201.507075 
L 174.647927 197.820273 
L 174.690307 197.820273 
L 174.795808 195.186842 
L 174.869281 195.186842 
L 174.900675 192.553412 
L 175.242328 192.553412 
L 175.273058 188.866609 
L 175.385274 188.866609 
L 175.415753 187.813237 
L 175.506873 187.813237 
L 175.567356 185.179807 
L 175.667697 185.179807 
L 175.77741 183.073062 
L 175.955464 183.073062 
L 175.955464 182.01969 
L 176.23856 182.01969 
L 176.267585 175.699457 
L 176.478973 175.699457 
L 176.545699 173.592713 
L 176.621646 173.592713 
L 176.621646 171.485969 
L 176.894213 171.485969 
L 176.959372 167.27248 
L 177.042792 167.27248 
L 177.135015 166.219108 
L 177.180944 166.219108 
L 177.245042 160.425561 
L 177.36346 160.425561 
L 177.399735 156.212072 
L 177.696161 156.212072 
L 177.785001 154.632014 
L 177.934998 154.632014 
L 177.978871 153.051956 
L 178.127217 153.051956 
L 178.231177 146.205037 
L 178.25707 146.205037 
L 178.291535 144.624978 
L 178.368833 144.624978 
L 178.428718 141.991548 
L 178.505412 141.991548 
L 178.505412 139.884804 
L 178.74188 139.884804 
L 178.74188 139.358118 
L 178.933752 139.358118 
L 178.98346 136.724687 
L 179.049518 136.724687 
L 179.156332 129.877768 
L 179.172706 129.877768 
L 179.262495 126.717652 
L 179.286902 126.717652 
L 179.359921 124.084221 
L 179.440696 124.084221 
L 179.440696 122.504163 
L 179.585155 122.504163 
L 179.6808 119.870733 
L 179.768016 119.870733 
L 179.831174 116.18393 
L 179.886249 116.18393 
L 179.886249 115.130558 
L 180.003686 115.130558 
L 180.065997 112.497128 
L 180.159048 112.497128 
L 180.228512 109.863697 
L 180.290026 109.863697 
L 180.320702 107.756953 
L 180.511214 107.756953 
L 180.594385 98.276603 
L 180.669651 98.276603 
L 180.752071 95.643173 
L 180.848977 95.643173 
L 180.937953 93.536429 
L 180.967511 93.536429 
L 180.997019 90.902998 
L 181.282137 90.902998 
L 181.368935 85.109451 
L 181.412173 85.109451 
L 181.512647 80.895963 
L 181.55553 80.895963 
L 181.633877 77.20916 
L 181.733085 77.20916 
L 181.733085 75.629102 
L 181.992593 75.629102 
L 182.069005 71.942299 
L 182.234569 71.942299 
L 182.330427 68.255497 
L 182.357718 68.255497 
L 182.418968 65.622066 
L 182.648436 65.622066 
L 182.755385 62.46195 
L 182.855057 62.46195 
L 182.92119 57.721775 
L 183.026484 57.721775 
L 183.026484 56.668403 
L 183.312807 56.668403 
L 183.383659 54.561659 
L 183.537254 54.561659 
L 183.594505 52.454914 
L 183.959015 52.454914 
L 184.064426 48.768112 
L 184.175348 48.768112 
L 184.187629 46.134681 
L 184.395097 46.134681 
L 184.395097 45.607995 
L 184.55811 45.607995 
L 184.642039 43.501251 
L 185.241629 43.501251 
L 185.276265 39.814448 
L 185.44271 39.814448 
L 185.511122 38.23439 
L 185.714761 38.23439 
L 185.793317 36.654332 
L 185.832462 36.654332 
L 185.87152 35.074274 
L 186.26826 35.074274 
L 186.333515 31.914157 
L 186.613497 31.914157 
L 186.613497 31.387471 
L 186.873275 31.387471 
L 186.894312 30.334099 
L 338.688 30.334099 
L 338.688 30.334099 
" style="fill:none;stroke:#00bfbf;stroke-linecap:square;stroke-width:1.5;"/>
   </g>
   <g id="line2d_31">
    <defs>
     <path d="M -6 0 
L 6 0 
M 0 6 
L 0 -6 
" id="mf36e933e34" style="stroke:#00bfbf;stroke-width:1.5;"/>
    </defs>
    <g>
     <use style="fill-opacity:0;stroke:#00bfbf;stroke-width:1.5;" x="155.86668" xlink:href="#mf36e933e34" y="244.695334"/>
     <use style="fill-opacity:0;stroke:#00bfbf;stroke-width:1.5;" x="178.127217" xlink:href="#mf36e933e34" y="153.051956"/>
     <use style="fill-opacity:0;stroke:#00bfbf;stroke-width:1.5;" x="185.241629" xlink:href="#mf36e933e34" y="43.501251"/>
     <use style="fill-opacity:0;stroke:#00bfbf;stroke-width:1.5;" x="186.894312" xlink:href="#mf36e933e34" y="30.334099"/>
     <use style="fill-opacity:0;stroke:#00bfbf;stroke-width:1.5;" x="186.894312" xlink:href="#mf36e933e34" y="30.334099"/>
     <use style="fill-opacity:0;stroke:#00bfbf;stroke-width:1.5;" x="338.688" xlink:href="#mf36e933e34" y="30.334099"/>
    </g>
   </g>
   <g id="line2d_32">
    <path style="fill:none;stroke:#00bfbf;stroke-linecap:square;stroke-width:1.5;"/>
    <g/>
   </g>
   <g id="line2d_33">
    <defs>
     <path d="M 0 1.5 
C 0.397805 1.5 0.77937 1.341951 1.06066 1.06066 
C 1.341951 0.77937 1.5 0.397805 1.5 0 
C 1.5 -0.397805 1.341951 -0.77937 1.06066 -1.06066 
C 0.77937 -1.341951 0.397805 -1.5 0 -1.5 
C -0.397805 -1.5 -0.77937 -1.341951 -1.06066 -1.06066 
C -1.341951 -0.77937 -1.5 -0.397805 -1.5 0 
C -1.5 0.397805 -1.341951 0.77937 -1.06066 1.06066 
C -0.77937 1.341951 -0.397805 1.5 0 1.5 
z
" id="mea0646b087" style="stroke:#008000;"/>
    </defs>
    <g>
     <use style="fill:#008000;stroke:#008000;" x="221.362474" xlink:href="#mea0646b087" y="30.334099"/>
     <use style="fill:#008000;stroke:#008000;" x="221.362474" xlink:href="#mea0646b087" y="30.334099"/>
    </g>
   </g>
   <g id="line2d_34">
    <path d="M 38.440992 298.944 
L 38.440992 297.890628 
L 50.52898 297.890628 
L 50.52898 297.363942 
L 57.6 297.363942 
L 57.6 295.783884 
L 62.616969 295.783884 
L 62.616969 293.677139 
L 66.508432 293.677139 
L 66.508432 292.623767 
L 69.687988 292.623767 
L 69.687988 291.570395 
L 72.376266 291.570395 
L 72.376266 290.517023 
L 74.704957 290.517023 
L 74.704957 289.463651 
L 84.464254 289.463651 
L 84.464254 288.936964 
L 85.66744 288.936964 
L 85.66744 287.883592 
L 87.850195 287.883592 
L 87.850195 287.356906 
L 93.121756 287.356906 
L 93.121756 286.83022 
L 95.259853 286.83022 
L 95.259853 286.303534 
L 105.584798 286.303534 
L 105.584798 285.776848 
L 110.131676 285.776848 
L 110.131676 285.250162 
L 111.505558 285.250162 
L 111.505558 283.670104 
L 114.418861 283.670104 
L 114.418861 283.143418 
L 119.097192 283.143418 
L 119.097192 282.616732 
L 119.267333 282.616732 
L 119.267333 281.563359 
L 119.43583 281.563359 
L 119.43583 280.509987 
L 119.602714 280.509987 
L 119.602714 279.983301 
L 119.768017 279.983301 
L 119.768017 278.929929 
L 120.41399 278.929929 
L 120.41399 278.403243 
L 121.189196 278.403243 
L 121.189196 277.876557 
L 121.931406 277.876557 
L 121.931406 277.349871 
L 126.50685 277.349871 
L 126.50685 276.823185 
L 127.378995 276.823185 
L 127.378995 275.769812 
L 130.036864 275.769812 
L 130.036864 275.243126 
L 131.099484 275.243126 
L 131.099484 274.71644 
L 131.60746 274.71644 
L 131.60746 273.663068 
L 132.181982 273.663068 
L 132.181982 273.136382 
L 132.422528 273.136382 
L 132.422528 272.609696 
L 132.73818 272.609696 
L 132.73818 272.08301 
L 134.236034 272.08301 
L 134.236034 271.556324 
L 134.7313 271.556324 
L 134.7313 271.029638 
L 135.615352 271.029638 
L 135.615352 269.976266 
L 136.893527 269.976266 
L 136.893527 269.449579 
L 138.981779 269.449579 
L 138.981779 268.922893 
L 140.246813 268.922893 
L 140.246813 268.396207 
L 140.944478 268.396207 
L 140.944478 267.342835 
L 143.861538 267.342835 
L 143.861538 266.816149 
L 144.107744 266.816149 
L 144.189046 263.129347 
L 144.430703 263.129347 
L 144.430703 262.60266 
L 145.961446 262.60266 
L 145.961446 262.075974 
L 146.854132 262.075974 
L 146.854132 261.549288 
L 148.354135 261.549288 
L 148.354135 261.022602 
L 148.733265 261.022602 
L 148.733265 259.442544 
L 149.226281 259.442544 
L 149.226281 258.389172 
L 149.616841 258.389172 
L 149.616841 257.862486 
L 150.626842 257.862486 
L 150.626842 257.3358 
L 152.835965 257.3358 
L 152.835965 256.809114 
L 152.959038 256.809114 
L 152.959038 256.282427 
L 155.531298 256.282427 
L 155.531298 255.755741 
L 155.783437 255.755741 
L 155.783437 255.229055 
L 157.509937 255.229055 
L 157.528821 254.175683 
L 157.939176 254.175683 
L 157.939176 253.648997 
L 159.89051 253.648997 
L 159.89051 253.122311 
L 161.405178 253.122311 
L 161.465522 252.068939 
L 161.79373 252.068939 
L 161.79373 251.015567 
L 162.260361 251.015567 
L 162.260361 248.908822 
L 162.559939 248.908822 
L 162.559939 248.382136 
L 164.205356 248.382136 
L 164.243924 247.328764 
L 164.47356 247.328764 
L 164.47356 246.802078 
L 164.76265 246.802078 
L 164.824867 245.22202 
L 164.874481 245.22202 
L 164.874481 244.168648 
L 165.010195 244.168648 
L 165.010195 243.641962 
L 165.55465 243.641962 
L 165.55465 243.115275 
L 165.826498 243.115275 
L 165.826498 241.535217 
L 166.08262 241.535217 
L 166.08262 241.008531 
L 166.357802 241.008531 
L 166.357802 239.428473 
L 166.740356 239.428473 
L 166.740356 238.375101 
L 166.950537 238.375101 
L 166.950537 237.848415 
L 167.417059 237.848415 
L 167.491837 235.74167 
L 167.860992 235.74167 
L 167.860992 234.161612 
L 167.996141 234.161612 
L 167.996141 233.634926 
L 168.191801 233.634926 
L 168.191801 231.528182 
L 168.445948 231.528182 
L 168.445948 228.894751 
L 168.616676 228.894751 
L 168.616676 227.314693 
L 168.894283 227.314693 
L 168.894283 226.788007 
L 169.302579 226.788007 
L 169.3984 225.207949 
L 169.512694 225.207949 
L 169.512694 224.681263 
L 169.962523 224.681263 
L 169.962523 222.047832 
L 170.128262 222.047832 
L 170.18316 220.99446 
L 170.669617 220.99446 
L 170.687376 219.414402 
L 170.916612 219.414402 
L 171.003983 217.834344 
L 171.03881 217.834344 
L 171.108254 215.200913 
L 171.220515 215.200913 
L 171.254912 212.567483 
L 171.519214 212.567483 
L 171.595202 210.987425 
L 171.978498 210.987425 
L 171.978498 209.934052 
L 172.101686 209.934052 
L 172.101686 208.353994 
L 172.215882 208.353994 
L 172.240256 207.300622 
L 172.361615 207.300622 
L 172.450079 204.667192 
L 172.673253 204.667192 
L 172.768032 200.980389 
L 172.854463 200.980389 
L 172.932666 199.400331 
L 173.341388 199.400331 
L 173.447772 195.186842 
L 173.51582 195.186842 
L 173.583604 193.080098 
L 173.643636 193.080098 
L 173.748197 190.973354 
L 173.770522 190.973354 
L 173.844732 188.866609 
L 174.160284 188.866609 
L 174.247335 187.286551 
L 174.283479 187.286551 
L 174.377103 179.912946 
L 174.527289 179.912946 
L 174.527289 178.859574 
L 174.640854 178.859574 
L 174.640854 178.332888 
L 174.893703 178.332888 
L 174.893703 177.806202 
L 175.025688 177.806202 
L 175.115421 176.226143 
L 175.204695 176.226143 
L 175.225232 173.592713 
L 175.368318 173.592713 
L 175.429282 172.539341 
L 175.57071 172.539341 
L 175.651014 165.692422 
L 175.711 165.692422 
L 175.817135 164.63905 
L 175.830357 164.63905 
L 175.916053 161.478933 
L 176.027487 161.478933 
L 176.027487 160.952247 
L 176.24824 160.952247 
L 176.30621 157.265444 
L 176.434347 157.265444 
L 176.498063 154.632014 
L 176.624803 154.632014 
L 176.624803 154.105328 
L 176.763161 154.105328 
L 176.763161 153.578642 
L 176.875552 153.578642 
L 176.962469 149.891839 
L 177.011942 149.891839 
L 177.030459 148.838467 
L 177.336204 148.838467 
L 177.342265 147.785095 
L 177.493098 147.785095 
L 177.594925 144.098292 
L 177.672393 144.098292 
L 177.779092 140.41149 
L 177.861631 140.41149 
L 177.861631 137.778059 
L 178.072098 137.778059 
L 178.153265 134.091257 
L 178.262819 134.091257 
L 178.303009 133.037885 
L 178.417327 133.037885 
L 178.417327 131.457826 
L 178.55918 131.457826 
L 178.654985 128.29771 
L 178.767027 128.29771 
L 178.833909 126.717652 
L 178.911614 126.717652 
L 178.955862 125.137593 
L 179.235335 125.137593 
L 179.257066 123.557535 
L 179.537135 123.557535 
L 179.643667 121.450791 
L 179.6808 121.450791 
L 179.6808 119.344047 
L 179.812776 119.344047 
L 179.854799 117.237302 
L 180.042657 117.237302 
L 180.042657 116.710616 
L 180.161626 116.710616 
L 180.254169 114.603872 
L 180.295143 114.603872 
L 180.39207 112.497128 
L 180.432721 112.497128 
L 180.468214 110.390383 
L 180.544026 110.390383 
L 180.544026 109.337011 
L 180.699667 109.337011 
L 180.789406 106.176895 
L 180.858886 106.176895 
L 180.923155 105.123522 
L 181.495941 105.123522 
L 181.495941 104.07015 
L 181.718947 104.07015 
L 181.742504 101.43672 
L 181.878511 101.43672 
L 181.878511 100.910034 
L 182.26658 100.910034 
L 182.26658 98.803289 
L 182.502556 98.803289 
L 182.502556 97.223231 
L 183.113746 97.223231 
L 183.187577 95.643173 
L 183.31711 95.643173 
L 183.31711 95.116487 
L 183.445687 95.116487 
L 183.445687 94.063115 
L 183.963161 94.063115 
L 184.016967 92.483056 
L 184.574128 92.483056 
L 184.574128 91.429684 
L 184.89929 91.429684 
L 184.89929 90.376312 
L 185.58871 90.376312 
L 185.58871 89.32294 
L 185.929017 89.32294 
L 186.039767 87.742882 
L 190.689501 87.742882 
L 190.689501 87.216196 
L 190.818681 87.216196 
L 190.818681 86.68951 
L 191.312448 86.68951 
L 191.312448 86.162824 
L 191.64915 86.162824 
L 191.64915 85.636137 
L 192.044795 85.636137 
L 192.044795 85.109451 
L 192.164349 85.109451 
L 192.164349 84.582765 
L 192.385689 84.582765 
L 192.452056 83.529393 
L 192.497855 83.529393 
L 192.599203 82.476021 
L 192.832583 82.476021 
L 192.832583 81.949335 
L 193.053039 81.949335 
L 193.053039 80.895963 
L 193.246416 80.895963 
L 193.302315 79.842591 
L 193.502561 79.842591 
L 193.612558 77.20916 
L 193.724234 77.20916 
L 193.828138 74.57573 
L 193.842259 74.57573 
L 193.882206 73.522358 
L 194.108406 73.522358 
L 194.117671 72.468985 
L 194.340856 72.468985 
L 194.340856 71.942299 
L 194.477493 71.942299 
L 194.563479 70.362241 
L 194.682703 70.362241 
L 194.785524 67.728811 
L 194.916522 67.728811 
L 194.978348 66.675439 
L 195.02897 66.675439 
L 195.02897 66.148752 
L 195.197382 66.148752 
L 195.284231 62.988636 
L 195.413699 62.988636 
L 195.52086 61.935264 
L 195.527269 61.935264 
L 195.527269 61.408578 
L 195.644347 61.408578 
L 195.659192 59.82852 
L 195.821654 59.82852 
L 195.922169 58.775147 
L 195.949293 58.775147 
L 195.949293 58.248461 
L 196.088417 58.248461 
L 196.154475 56.141717 
L 196.210018 56.141717 
L 196.277663 54.034973 
L 196.420292 54.034973 
L 196.45678 52.9816 
L 196.537592 52.9816 
L 196.644095 51.401542 
L 196.67212 51.401542 
L 196.67212 50.874856 
L 196.918391 50.874856 
L 197.008872 49.821484 
L 197.163177 49.821484 
L 197.194263 48.768112 
L 197.710652 48.768112 
L 197.710652 48.241426 
L 198.08354 48.241426 
L 198.138791 47.188054 
L 198.199367 47.188054 
L 198.199367 46.661368 
L 199.161827 46.661368 
L 199.161827 46.134681 
L 199.303443 46.134681 
L 199.303443 45.607995 
L 200.887382 45.607995 
L 200.887382 45.081309 
L 201.361507 45.081309 
L 201.361507 44.554623 
L 202.088997 44.554623 
L 202.088997 44.027937 
L 202.248075 44.027937 
L 202.248075 43.501251 
L 202.704048 43.501251 
L 202.712538 42.447879 
L 202.970903 42.447879 
L 202.970903 41.921193 
L 203.233735 41.921193 
L 203.281722 40.867821 
L 203.738472 40.867821 
L 203.738472 40.341135 
L 204.244566 40.341135 
L 204.244566 39.814448 
L 204.38008 39.814448 
L 204.38008 39.287762 
L 204.555324 39.287762 
L 204.615042 37.707704 
L 204.814307 37.707704 
L 204.814307 37.181018 
L 205.522049 37.181018 
L 205.553328 36.127646 
L 206.248447 36.127646 
L 206.248447 35.60096 
L 208.251733 35.60096 
L 208.251733 35.074274 
L 208.95404 35.074274 
L 209.047744 34.020902 
L 210.530286 34.020902 
L 210.530286 33.494215 
L 213.719478 33.494215 
L 213.719478 32.967529 
L 214.474976 32.967529 
L 214.474976 32.440843 
L 214.689837 32.440843 
L 214.689837 31.914157 
L 217.340653 31.914157 
L 217.340653 31.387471 
L 217.756325 31.387471 
L 217.756325 30.860785 
L 221.362474 30.860785 
L 221.362474 30.334099 
L 338.688 30.334099 
L 338.688 30.334099 
" style="fill:none;stroke:#008000;stroke-linecap:square;stroke-width:1.5;"/>
   </g>
   <g id="line2d_35">
    <defs>
     <path d="M -0 6 
L 6 -6 
L -6 -6 
z
" id="m7a158c0199" style="stroke:#008000;stroke-linejoin:miter;stroke-width:1.5;"/>
    </defs>
    <g>
     <use style="fill-opacity:0;stroke:#008000;stroke-linejoin:miter;stroke-width:1.5;" x="130.036864" xlink:href="#m7a158c0199" y="275.769812"/>
     <use style="fill-opacity:0;stroke:#008000;stroke-linejoin:miter;stroke-width:1.5;" x="174.333954" xlink:href="#m7a158c0199" y="181.493004"/>
     <use style="fill-opacity:0;stroke:#008000;stroke-linejoin:miter;stroke-width:1.5;" x="214.689837" xlink:href="#m7a158c0199" y="32.440843"/>
     <use style="fill-opacity:0;stroke:#008000;stroke-linejoin:miter;stroke-width:1.5;" x="221.362474" xlink:href="#m7a158c0199" y="30.334099"/>
     <use style="fill-opacity:0;stroke:#008000;stroke-linejoin:miter;stroke-width:1.5;" x="221.362474" xlink:href="#m7a158c0199" y="30.334099"/>
     <use style="fill-opacity:0;stroke:#008000;stroke-linejoin:miter;stroke-width:1.5;" x="338.688" xlink:href="#m7a158c0199" y="30.334099"/>
    </g>
   </g>
   <g id="line2d_36">
    <path style="fill:none;stroke:#008000;stroke-linecap:square;stroke-width:1.5;"/>
    <g/>
   </g>
   <g id="line2d_37">
    <path clip-path="url(#p8e944461b7)" d="M 187.658698 87.742882 
" style="fill:none;stroke:#008000;stroke-linecap:square;stroke-width:1.5;"/>
    <defs>
     <path d="M -12 12 
L 12 -12 
M -12 -12 
L 12 12 
" id="m118c534aaf" style="stroke:#008000;"/>
    </defs>
    <g clip-path="url(#p8e944461b7)">
     <use style="fill:#008000;stroke:#008000;" x="187.658698" xlink:href="#m118c534aaf" y="87.742882"/>
    </g>
   </g>
   <g id="line2d_38">
    <defs>
     <path d="M 0 1.5 
C 0.397805 1.5 0.77937 1.341951 1.06066 1.06066 
C 1.341951 0.77937 1.5 0.397805 1.5 0 
C 1.5 -0.397805 1.341951 -0.77937 1.06066 -1.06066 
C 0.77937 -1.341951 0.397805 -1.5 0 -1.5 
C -0.397805 -1.5 -0.77937 -1.341951 -1.06066 -1.06066 
C -1.341951 -0.77937 -1.5 -0.397805 -1.5 0 
C -1.5 0.397805 -1.341951 0.77937 -1.06066 1.06066 
C -0.77937 1.341951 -0.397805 1.5 0 1.5 
z
" id="md66420ff1e" style="stroke:#0000ff;"/>
    </defs>
    <g>
     <use style="fill:#0000ff;stroke:#0000ff;" x="239.2702" xlink:href="#md66420ff1e" y="30.334099"/>
     <use style="fill:#0000ff;stroke:#0000ff;" x="239.2702" xlink:href="#md66420ff1e" y="30.334099"/>
    </g>
   </g>
   <g id="line2d_39">
    <path d="M 29.53256 298.944 
L 29.53256 297.363942 
L 48.691568 297.363942 
L 48.691568 296.837256 
L 53.708537 296.837256 
L 53.708537 295.257197 
L 60.779557 295.257197 
L 60.779557 294.730511 
L 72.867545 294.730511 
L 72.867545 294.203825 
L 84.213325 294.203825 
L 84.213325 293.677139 
L 96.676366 293.677139 
L 96.676366 293.150453 
L 97.403108 293.150453 
L 97.403108 292.623767 
L 104.826449 292.623767 
L 104.826449 292.097081 
L 107.414787 292.097081 
L 107.414787 291.570395 
L 110.188761 291.570395 
L 110.188761 291.043709 
L 111.505558 291.043709 
L 111.505558 290.517023 
L 112.431755 290.517023 
L 112.431755 289.990337 
L 112.877038 289.990337 
L 112.877038 289.463651 
L 116.323218 289.463651 
L 116.323218 288.936964 
L 116.797786 288.936964 
L 116.797786 288.410278 
L 118.994305 288.410278 
L 118.994305 287.883592 
L 120.190611 287.883592 
L 120.190611 286.83022 
L 120.665825 286.83022 
L 120.665825 286.303534 
L 124.743806 286.303534 
L 124.743806 285.776848 
L 124.891598 285.776848 
L 124.891598 285.250162 
L 125.110962 285.250162 
L 125.110962 284.723476 
L 126.030894 284.723476 
L 126.030894 284.19679 
L 127.923363 284.19679 
L 127.923363 283.670104 
L 131.389151 283.670104 
L 131.389151 283.143418 
L 132.326708 283.143418 
L 132.326708 282.616732 
L 132.659801 282.616732 
L 132.659801 281.563359 
L 136.79465 281.563359 
L 136.79465 281.036673 
L 137.451437 281.036673 
L 137.451437 280.509987 
L 139.02546 280.509987 
L 139.02546 279.983301 
L 139.604677 279.983301 
L 139.604677 278.929929 
L 139.856059 278.929929 
L 139.856059 278.403243 
L 140.499195 278.403243 
L 140.499195 277.876557 
L 141.177393 277.876557 
L 141.20629 276.823185 
L 141.634094 276.823185 
L 141.634094 276.296499 
L 142.215919 276.296499 
L 142.215919 275.769812 
L 142.378651 275.769812 
L 142.378651 275.243126 
L 142.593291 275.243126 
L 142.646541 274.189754 
L 145.143889 274.189754 
L 145.143889 273.663068 
L 147.061745 273.663068 
L 147.061745 273.136382 
L 150.682827 273.136382 
L 150.682827 272.609696 
L 150.998554 272.609696 
L 151.015013 271.556324 
L 151.195055 271.556324 
L 151.195055 271.029638 
L 153.778339 271.029638 
L 153.778339 270.502952 
L 154.029268 270.502952 
L 154.029268 269.976266 
L 156.382164 269.976266 
L 156.382164 269.449579 
L 157.323784 269.449579 
L 157.323784 268.396207 
L 157.483465 268.396207 
L 157.483465 267.869521 
L 159.16005 267.869521 
L 159.16005 267.342835 
L 161.247301 267.342835 
L 161.247301 266.816149 
L 161.654251 266.816149 
L 161.654251 266.289463 
L 163.02881 266.289463 
L 163.02881 265.236091 
L 164.832318 265.236091 
L 164.91407 263.656033 
L 165.017568 263.656033 
L 165.017568 263.129347 
L 165.468672 263.129347 
L 165.468672 262.60266 
L 165.76776 262.60266 
L 165.859305 261.022602 
L 166.006178 261.022602 
L 166.006178 260.495916 
L 166.46667 260.495916 
L 166.46667 259.96923 
L 166.994465 259.96923 
L 166.994465 258.915858 
L 167.145172 258.915858 
L 167.145172 258.389172 
L 167.372038 258.389172 
L 167.372038 256.809114 
L 167.583271 256.809114 
L 167.583271 256.282427 
L 167.911015 256.282427 
L 167.911015 255.755741 
L 168.31222 255.755741 
L 168.318321 254.702369 
L 168.530517 254.702369 
L 168.638649 250.488881 
L 168.698434 250.488881 
L 168.734207 249.435508 
L 168.982583 249.435508 
L 169.029495 247.85545 
L 170.113593 247.85545 
L 170.113593 247.328764 
L 170.288808 247.328764 
L 170.288808 246.802078 
L 170.607318 246.802078 
L 170.607318 246.275392 
L 170.798844 246.275392 
L 170.904345 244.695334 
L 171.009212 244.695334 
L 171.077038 243.115275 
L 171.154974 243.115275 
L 171.154974 242.061903 
L 171.391826 242.061903 
L 171.432691 239.955159 
L 171.600256 239.955159 
L 171.711078 237.321729 
L 172.42439 237.321729 
L 172.501342 235.74167 
L 172.711227 235.74167 
L 172.711227 234.688298 
L 172.932666 234.688298 
L 172.932666 234.161612 
L 173.294067 234.161612 
L 173.3124 233.10824 
L 173.449287 233.10824 
L 173.485609 229.948123 
L 173.760107 229.948123 
L 173.760107 229.421437 
L 174.017159 229.421437 
L 174.100548 228.368065 
L 174.253123 228.368065 
L 174.313782 225.734635 
L 174.369919 225.734635 
L 174.369919 225.207949 
L 174.846223 225.207949 
L 174.942445 222.047832 
L 175.063018 222.047832 
L 175.100268 220.99446 
L 175.232072 220.99446 
L 175.293514 219.941088 
L 175.51293 219.941088 
L 175.545203 218.36103 
L 175.761495 218.36103 
L 175.860728 217.307658 
L 175.951527 217.307658 
L 176.049688 215.200913 
L 176.080984 215.200913 
L 176.080984 214.674227 
L 176.193961 214.674227 
L 176.193961 214.147541 
L 176.463685 214.147541 
L 176.463685 212.567483 
L 176.619751 212.567483 
L 176.729302 211.514111 
L 176.879286 211.514111 
L 176.879286 210.460738 
L 177.009472 210.460738 
L 177.009472 209.934052 
L 177.299796 209.934052 
L 177.376165 208.353994 
L 177.588952 208.353994 
L 177.63549 206.773936 
L 177.785001 206.773936 
L 177.816873 203.613819 
L 178.187935 203.613819 
L 178.187935 203.087133 
L 178.34997 203.087133 
L 178.34997 202.560447 
L 178.466255 202.560447 
L 178.513913 200.980389 
L 178.585156 200.980389 
L 178.585156 199.927017 
L 178.767027 199.927017 
L 178.813871 196.7669 
L 179.006609 196.7669 
L 179.006609 195.713528 
L 179.200509 195.713528 
L 179.200509 194.13347 
L 179.86424 194.13347 
L 179.9615 191.50004 
L 180.123437 191.50004 
L 180.123437 190.446667 
L 180.360501 190.446667 
L 180.360501 189.919981 
L 180.515761 189.919981 
L 180.576272 188.866609 
L 180.711659 188.866609 
L 180.711659 188.339923 
L 180.923155 188.339923 
L 180.967511 186.759865 
L 181.266177 186.759865 
L 181.332822 185.706493 
L 181.416491 185.706493 
L 181.482565 184.126434 
L 181.834542 184.126434 
L 181.834542 183.599748 
L 182.947573 183.599748 
L 182.947573 183.073062 
L 191.97738 183.073062 
L 191.97738 182.546376 
L 192.555189 182.546376 
L 192.615868 181.493004 
L 192.852016 181.493004 
L 192.904227 179.38626 
L 193.155624 179.38626 
L 193.190826 178.332888 
L 193.383173 178.332888 
L 193.383173 177.806202 
L 193.501601 177.806202 
L 193.501601 177.279515 
L 193.69484 177.279515 
L 193.69484 176.752829 
L 193.930959 176.752829 
L 194.015017 175.699457 
L 194.083366 175.699457 
L 194.156993 174.646085 
L 194.198532 174.646085 
L 194.270298 172.012655 
L 194.332167 172.012655 
L 194.333539 170.959282 
L 194.50288 170.959282 
L 194.532754 169.379224 
L 194.772593 169.379224 
L 194.816697 167.799166 
L 194.929789 167.799166 
L 195.034244 166.219108 
L 195.060589 166.219108 
L 195.156413 165.165736 
L 195.232174 165.165736 
L 195.232174 164.63905 
L 195.352969 164.63905 
L 195.45364 163.585677 
L 195.519151 163.585677 
L 195.604841 160.425561 
L 195.917157 160.425561 
L 195.993434 158.845503 
L 196.039539 158.845503 
L 196.050735 157.79213 
L 196.275617 157.79213 
L 196.37966 155.685386 
L 196.424756 155.685386 
L 196.424756 155.1587 
L 196.861106 155.1587 
L 196.861106 154.632014 
L 196.997097 154.632014 
L 197.01358 153.578642 
L 197.19504 153.578642 
L 197.299543 151.471897 
L 197.320369 151.471897 
L 197.359639 149.891839 
L 197.463164 149.891839 
L 197.467751 148.838467 
L 197.80275 148.838467 
L 197.892499 147.258409 
L 197.977334 147.258409 
L 197.977334 146.205037 
L 198.152393 146.205037 
L 198.152393 145.678351 
L 199.10277 145.678351 
L 199.113207 144.624978 
L 199.576497 144.624978 
L 199.576497 144.098292 
L 202.25098 144.098292 
L 202.335314 142.518234 
L 202.502768 142.518234 
L 202.502768 141.991548 
L 202.679688 141.991548 
L 202.679688 141.464862 
L 203.025732 141.464862 
L 203.119682 139.358118 
L 203.273231 139.358118 
L 203.36259 138.304745 
L 203.445798 138.304745 
L 203.539946 137.251373 
L 203.609419 137.251373 
L 203.689052 135.671315 
L 203.801845 135.671315 
L 203.910744 134.617943 
L 203.953482 134.617943 
L 204.063797 133.037885 
L 204.06851 133.037885 
L 204.159364 130.93114 
L 204.222526 130.93114 
L 204.308711 128.824396 
L 204.388306 128.824396 
L 204.483649 127.244338 
L 204.631016 127.244338 
L 204.718237 125.66428 
L 204.770362 125.66428 
L 204.879393 124.084221 
L 204.898871 124.084221 
L 204.987746 122.504163 
L 205.02867 122.504163 
L 205.086544 119.870733 
L 205.142012 119.870733 
L 205.223781 118.290674 
L 205.276616 118.290674 
L 205.352652 116.18393 
L 205.388362 116.18393 
L 205.479854 114.603872 
L 205.500844 114.603872 
L 205.603258 112.497128 
L 205.675022 112.497128 
L 205.675022 111.970441 
L 205.8198 111.970441 
L 205.888558 110.917069 
L 206.000681 110.917069 
L 206.000681 110.390383 
L 206.439358 110.390383 
L 206.496842 109.337011 
L 206.669516 109.337011 
L 206.669516 108.810325 
L 206.805629 108.810325 
L 206.88532 107.756953 
L 207.061486 107.756953 
L 207.061486 107.230267 
L 208.732885 107.230267 
L 208.732885 106.703581 
L 209.083319 106.703581 
L 209.142709 105.650209 
L 209.344645 105.650209 
L 209.444743 104.596836 
L 209.471262 104.596836 
L 209.471262 104.07015 
L 209.588958 104.07015 
L 209.614688 102.490092 
L 209.898048 102.490092 
L 209.958653 101.43672 
L 210.187938 101.43672 
L 210.259664 99.329976 
L 210.306951 99.329976 
L 210.400598 97.749917 
L 210.449684 97.749917 
L 210.505692 96.169859 
L 210.589638 96.169859 
L 210.658657 95.116487 
L 210.719362 95.116487 
L 210.768096 94.063115 
L 210.907118 94.063115 
L 210.978066 93.009743 
L 211.031351 93.009743 
L 211.0892 90.902998 
L 211.145811 90.902998 
L 211.201717 89.32294 
L 211.323358 89.32294 
L 211.323358 88.796254 
L 211.528834 88.796254 
L 211.621253 87.216196 
L 211.649747 87.216196 
L 211.751136 85.636137 
L 211.768818 85.636137 
L 211.768818 85.109451 
L 212.230252 85.109451 
L 212.230252 84.582765 
L 212.396172 84.582765 
L 212.396172 84.056079 
L 213.962353 84.056079 
L 213.962353 83.529393 
L 214.111769 83.529393 
L 214.111769 83.002707 
L 214.266481 83.002707 
L 214.299269 81.949335 
L 214.379882 81.949335 
L 214.379882 81.422649 
L 214.523192 81.422649 
L 214.633656 79.315904 
L 214.65421 79.315904 
L 214.689694 77.735846 
L 214.932293 77.735846 
L 215.016747 76.682474 
L 215.062375 76.682474 
L 215.070734 75.629102 
L 215.326254 75.629102 
L 215.395706 74.57573 
L 215.488153 74.57573 
L 215.488153 74.049044 
L 215.634004 74.049044 
L 215.733247 72.468985 
L 215.777442 72.468985 
L 215.795088 71.415613 
L 215.915331 71.415613 
L 215.915331 70.888927 
L 216.318685 70.888927 
L 216.318685 70.362241 
L 217.644081 70.362241 
L 217.705982 69.308869 
L 217.792706 69.308869 
L 217.792706 68.782183 
L 218.201124 68.782183 
L 218.293069 67.728811 
L 218.430429 67.728811 
L 218.465891 65.622066 
L 218.638719 65.622066 
L 218.746678 64.568694 
L 218.960944 64.568694 
L 218.960944 64.042008 
L 219.378473 64.042008 
L 219.443632 62.46195 
L 219.607403 62.46195 
L 219.698333 61.408578 
L 219.889879 61.408578 
L 219.889879 60.881892 
L 220.198708 60.881892 
L 220.198708 60.355206 
L 220.662095 60.355206 
L 220.662095 59.82852 
L 220.796216 59.82852 
L 220.87967 58.775147 
L 221.010054 58.775147 
L 221.010054 58.248461 
L 221.334584 58.248461 
L 221.351498 57.195089 
L 221.453511 57.195089 
L 221.55637 56.141717 
L 221.652038 56.141717 
L 221.693818 54.561659 
L 221.77594 54.561659 
L 221.77594 54.034973 
L 222.477386 54.034973 
L 222.477386 53.508287 
L 222.879599 53.508287 
L 222.882536 52.454914 
L 223.258639 52.454914 
L 223.359726 51.401542 
L 223.476753 51.401542 
L 223.534202 50.34817 
L 223.617078 50.34817 
L 223.617078 49.821484 
L 223.896401 49.821484 
L 223.990361 48.768112 
L 224.278115 48.768112 
L 224.365878 47.71474 
L 224.780475 47.71474 
L 224.789093 46.661368 
L 225.160158 46.661368 
L 225.17304 45.607995 
L 225.570241 45.607995 
L 225.674742 44.027937 
L 225.737642 44.027937 
L 225.752822 42.974565 
L 226.128756 42.974565 
L 226.128756 42.447879 
L 226.37568 42.447879 
L 226.37568 41.921193 
L 226.599103 41.921193 
L 226.599103 41.394507 
L 227.579813 41.394507 
L 227.579813 40.867821 
L 227.842141 40.867821 
L 227.842141 40.341135 
L 228.685294 40.341135 
L 228.685294 39.814448 
L 228.818774 39.814448 
L 228.818774 39.287762 
L 228.937662 39.287762 
L 228.937662 38.761076 
L 229.637716 38.761076 
L 229.676821 37.707704 
L 229.829142 37.707704 
L 229.929778 36.654332 
L 230.21773 36.654332 
L 230.21773 36.127646 
L 230.515488 36.127646 
L 230.565569 35.074274 
L 230.964986 35.074274 
L 230.964986 34.547588 
L 231.52235 34.547588 
L 231.52235 34.020902 
L 233.06725 34.020902 
L 233.06725 33.494215 
L 233.363243 33.494215 
L 233.456967 32.440843 
L 234.023077 32.440843 
L 234.023077 31.914157 
L 236.173176 31.914157 
L 236.173176 31.387471 
L 238.745997 31.387471 
L 238.745997 30.860785 
L 239.2702 30.860785 
L 239.2702 30.334099 
L 338.688 30.334099 
L 338.688 30.334099 
" style="fill:none;stroke:#0000ff;stroke-linecap:square;stroke-width:1.5;"/>
   </g>
   <g id="line2d_40">
    <defs>
     <path d="M 0 -6 
L -1.347084 -1.854102 
L -5.706339 -1.854102 
L -2.179628 0.708204 
L -3.526712 4.854102 
L -0 2.291796 
L 3.526712 4.854102 
L 2.179628 0.708204 
L 5.706339 -1.854102 
L 1.347084 -1.854102 
z
" id="m0a04882ab2" style="stroke:#0000ff;stroke-linejoin:bevel;stroke-width:1.5;"/>
    </defs>
    <g>
     <use style="fill-opacity:0;stroke:#0000ff;stroke-linejoin:bevel;stroke-width:1.5;" x="110.188761" xlink:href="#m0a04882ab2" y="291.570395"/>
     <use style="fill-opacity:0;stroke:#0000ff;stroke-linejoin:bevel;stroke-width:1.5;" x="177.299796" xlink:href="#m0a04882ab2" y="209.407366"/>
     <use style="fill-opacity:0;stroke:#0000ff;stroke-linejoin:bevel;stroke-width:1.5;" x="218.430429" xlink:href="#m0a04882ab2" y="67.728811"/>
     <use style="fill-opacity:0;stroke:#0000ff;stroke-linejoin:bevel;stroke-width:1.5;" x="239.2702" xlink:href="#m0a04882ab2" y="30.334099"/>
     <use style="fill-opacity:0;stroke:#0000ff;stroke-linejoin:bevel;stroke-width:1.5;" x="239.2702" xlink:href="#m0a04882ab2" y="30.334099"/>
     <use style="fill-opacity:0;stroke:#0000ff;stroke-linejoin:bevel;stroke-width:1.5;" x="338.688" xlink:href="#m0a04882ab2" y="30.334099"/>
    </g>
   </g>
   <g id="line2d_41">
    <path style="fill:none;stroke:#0000ff;stroke-linecap:square;stroke-width:1.5;"/>
    <g/>
   </g>
   <g id="line2d_42">
    <path clip-path="url(#p8e944461b7)" d="M 188.122008 183.073062 
" style="fill:none;stroke:#0000ff;stroke-linecap:square;stroke-width:1.5;"/>
    <defs>
     <path d="M -12 12 
L 12 -12 
M -12 -12 
L 12 12 
" id="m900bc2fcd9" style="stroke:#0000ff;"/>
    </defs>
    <g clip-path="url(#p8e944461b7)">
     <use style="fill:#0000ff;stroke:#0000ff;" x="188.122008" xlink:href="#m900bc2fcd9" y="183.073062"/>
    </g>
   </g>
   <g id="line2d_43">
    <defs>
     <path d="M 0 1.5 
C 0.397805 1.5 0.77937 1.341951 1.06066 1.06066 
C 1.341951 0.77937 1.5 0.397805 1.5 0 
C 1.5 -0.397805 1.341951 -0.77937 1.06066 -1.06066 
C 0.77937 -1.341951 0.397805 -1.5 0 -1.5 
C -0.397805 -1.5 -0.77937 -1.341951 -1.06066 -1.06066 
C -1.341951 -0.77937 -1.5 -0.397805 -1.5 0 
C -1.5 0.397805 -1.341951 0.77937 -1.06066 1.06066 
C -0.77937 1.341951 -0.397805 1.5 0 1.5 
z
" id="m04e9e20cbe" style="stroke:#000000;"/>
    </defs>
    <g>
     <use style="stroke:#000000;" x="244.268798" xlink:href="#m04e9e20cbe" y="30.334099"/>
     <use style="stroke:#000000;" x="244.268798" xlink:href="#m04e9e20cbe" y="30.334099"/>
    </g>
   </g>
   <g id="line2d_44">
    <path d="M 118.629344 298.944 
L 118.629344 298.417314 
L 126.47328 298.417314 
L 126.47328 297.890628 
L 127.100304 297.890628 
L 127.100304 297.363942 
L 129.06046 297.363942 
L 129.06046 296.837256 
L 130.182344 296.837256 
L 130.236587 295.783884 
L 130.664567 295.783884 
L 130.664567 295.257197 
L 133.009765 295.257197 
L 133.009765 294.730511 
L 133.800029 294.730511 
L 133.800029 294.203825 
L 135.621981 294.203825 
L 135.621981 293.677139 
L 137.307607 293.677139 
L 137.307607 293.150453 
L 137.735587 293.150453 
L 137.735587 292.623767 
L 140.180592 292.623767 
L 140.180592 292.097081 
L 143.260342 292.097081 
L 143.260342 291.570395 
L 144.18499 291.570395 
L 144.18499 291.043709 
L 144.510517 291.043709 
L 144.510517 290.517023 
L 145.350002 290.517023 
L 145.350002 289.990337 
L 145.899052 289.990337 
L 145.899052 289.463651 
L 146.791364 289.463651 
L 146.791364 288.936964 
L 147.419225 288.936964 
L 147.419225 288.410278 
L 155.463441 288.410278 
L 155.463441 287.883592 
L 157.426604 287.883592 
L 157.426604 287.356906 
L 159.360003 287.356906 
L 159.360003 286.83022 
L 159.985851 286.83022 
L 159.985851 286.303534 
L 163.52961 286.303534 
L 163.589711 285.250162 
L 164.962199 285.250162 
L 164.962199 284.723476 
L 166.357802 284.723476 
L 166.361214 283.670104 
L 167.352708 283.670104 
L 167.352708 283.143418 
L 167.779397 283.143418 
L 167.779397 282.616732 
L 167.979563 282.616732 
L 167.979563 281.563359 
L 168.125111 281.563359 
L 168.214315 280.509987 
L 168.452002 280.509987 
L 168.452002 279.456615 
L 168.885428 279.456615 
L 168.929657 278.403243 
L 169.212991 278.403243 
L 169.285276 277.349871 
L 169.414637 277.349871 
L 169.414637 276.823185 
L 169.673338 276.823185 
L 169.673338 276.296499 
L 169.791457 276.296499 
L 169.791457 275.769812 
L 170.044668 275.769812 
L 170.072271 273.663068 
L 170.329621 273.663068 
L 170.329621 273.136382 
L 170.628703 273.136382 
L 170.628703 272.609696 
L 170.904345 272.609696 
L 170.996138 271.029638 
L 171.084848 271.029638 
L 171.084848 270.502952 
L 171.381595 270.502952 
L 171.460731 268.922893 
L 171.534438 268.922893 
L 171.600256 267.869521 
L 171.69852 267.869521 
L 171.69852 267.342835 
L 171.858583 267.342835 
L 171.903338 265.236091 
L 171.970255 265.236091 
L 171.977674 264.182719 
L 172.132757 264.182719 
L 172.206123 263.129347 
L 172.293758 263.129347 
L 172.293758 262.60266 
L 172.462909 262.60266 
L 172.520528 261.549288 
L 172.639959 261.549288 
L 172.639959 261.022602 
L 172.897518 261.022602 
L 172.897518 260.495916 
L 173.014404 260.495916 
L 173.107351 258.915858 
L 173.346722 258.915858 
L 173.346722 258.389172 
L 173.719878 258.389172 
L 173.719878 257.862486 
L 174.012759 257.862486 
L 174.07645 256.809114 
L 174.220541 256.809114 
L 174.220541 256.282427 
L 174.35698 256.282427 
L 174.35698 255.755741 
L 174.492361 255.755741 
L 174.492361 255.229055 
L 174.616074 255.229055 
L 174.616074 254.175683 
L 174.753684 254.175683 
L 174.753684 253.648997 
L 175.14775 253.648997 
L 175.14775 253.122311 
L 175.279197 253.122311 
L 175.279197 252.595625 
L 175.484643 252.595625 
L 175.484643 251.542253 
L 175.739587 251.542253 
L 175.739587 251.015567 
L 175.886437 251.015567 
L 175.969237 249.962195 
L 176.086845 249.962195 
L 176.170646 247.85545 
L 176.240496 247.85545 
L 176.255981 246.802078 
L 176.695377 246.802078 
L 176.80633 245.22202 
L 176.834426 245.22202 
L 176.834426 244.695334 
L 177.345294 244.695334 
L 177.385234 243.641962 
L 177.590744 243.641962 
L 177.674772 242.588589 
L 177.708626 242.588589 
L 177.747743 241.535217 
L 177.933241 241.535217 
L 177.933241 241.008531 
L 178.15153 241.008531 
L 178.205245 238.901787 
L 178.367119 238.901787 
L 178.367119 237.848415 
L 178.640929 237.848415 
L 178.716697 236.268356 
L 178.947021 236.268356 
L 178.947021 235.74167 
L 179.156332 235.74167 
L 179.156332 235.214984 
L 179.348583 235.214984 
L 179.348583 234.688298 
L 179.461636 234.688298 
L 179.49541 233.634926 
L 179.660121 233.634926 
L 179.761688 232.581554 
L 179.777505 232.581554 
L 179.777505 231.528182 
L 180.372728 231.528182 
L 180.403259 229.948123 
L 180.530908 229.948123 
L 180.530908 229.421437 
L 180.738611 229.421437 
L 180.816238 228.368065 
L 180.974893 228.368065 
L 180.974893 227.841379 
L 181.116019 227.841379 
L 181.116019 227.314693 
L 181.303877 227.314693 
L 181.331376 225.734635 
L 181.448123 225.734635 
L 181.492598 224.681263 
L 181.598309 224.681263 
L 181.598309 224.154577 
L 181.720361 224.154577 
L 181.747212 222.574518 
L 181.985629 222.574518 
L 181.985629 222.047832 
L 182.117457 222.047832 
L 182.120221 220.99446 
L 182.278455 220.99446 
L 182.37271 219.941088 
L 182.53408 219.941088 
L 182.613536 217.834344 
L 182.66318 217.834344 
L 182.66318 217.307658 
L 182.804628 217.307658 
L 182.804628 216.780971 
L 183.051398 216.780971 
L 183.076277 215.727599 
L 183.252032 215.727599 
L 183.286971 213.620855 
L 183.433726 213.620855 
L 183.433726 213.094169 
L 183.695823 213.094169 
L 183.695823 212.567483 
L 183.854214 212.567483 
L 183.854214 212.040797 
L 184.05948 212.040797 
L 184.09284 210.987425 
L 184.257467 210.987425 
L 184.257467 210.460738 
L 184.556908 210.460738 
L 184.556908 209.934052 
L 184.708893 209.934052 
L 184.79803 208.88068 
L 184.910286 208.88068 
L 184.910286 208.353994 
L 185.234693 208.353994 
L 185.234693 207.827308 
L 185.375175 207.827308 
L 185.375175 207.300622 
L 185.949374 207.300622 
L 185.949374 206.773936 
L 186.135916 206.773936 
L 186.135916 206.24725 
L 186.841673 206.24725 
L 186.841673 205.720564 
L 187.016869 205.720564 
L 187.016869 205.193878 
L 194.523254 205.193878 
L 194.584909 204.140506 
L 194.81336 204.140506 
L 194.81336 203.613819 
L 194.965559 203.613819 
L 194.965559 203.087133 
L 195.209349 203.087133 
L 195.209349 202.560447 
L 195.425949 202.560447 
L 195.480645 200.980389 
L 195.898977 200.980389 
L 196.009647 198.873645 
L 196.025845 198.873645 
L 196.084901 196.7669 
L 196.452122 196.7669 
L 196.452122 196.240214 
L 196.586504 196.240214 
L 196.586504 195.713528 
L 196.755725 195.713528 
L 196.861106 192.026726 
L 197.03475 192.026726 
L 197.1408 190.973354 
L 197.243305 190.973354 
L 197.298386 189.393295 
L 197.400547 189.393295 
L 197.464884 187.286551 
L 197.523271 187.286551 
L 197.633783 185.706493 
L 197.640596 185.706493 
L 197.69557 184.653121 
L 197.758265 184.653121 
L 197.798813 183.599748 
L 198.009597 183.599748 
L 198.094973 181.493004 
L 198.16782 181.493004 
L 198.16782 180.966318 
L 198.32735 180.966318 
L 198.32735 180.439632 
L 198.573359 180.439632 
L 198.640488 179.38626 
L 198.728705 179.38626 
L 198.787269 177.806202 
L 198.867871 177.806202 
L 198.915949 176.752829 
L 199.027967 176.752829 
L 199.027967 176.226143 
L 199.156971 176.226143 
L 199.160093 175.172771 
L 199.305678 175.172771 
L 199.391115 172.539341 
L 199.515941 172.539341 
L 199.593252 170.959282 
L 199.745848 170.959282 
L 199.855676 168.852538 
L 199.914069 168.852538 
L 200.020371 167.799166 
L 200.11618 167.799166 
L 200.11618 167.27248 
L 200.240831 167.27248 
L 200.240831 166.745794 
L 200.504358 166.745794 
L 200.504358 166.219108 
L 200.831218 166.219108 
L 200.831218 165.692422 
L 201.168301 165.692422 
L 201.168301 165.165736 
L 201.308692 165.165736 
L 201.308692 164.63905 
L 203.833313 164.63905 
L 203.833313 164.112363 
L 204.070473 164.112363 
L 204.070473 163.585677 
L 204.342757 163.585677 
L 204.352803 162.532305 
L 204.680748 162.532305 
L 204.725045 161.478933 
L 204.93328 161.478933 
L 205.018263 159.372189 
L 205.076541 159.372189 
L 205.076541 158.845503 
L 205.195095 158.845503 
L 205.277349 157.79213 
L 205.339516 157.79213 
L 205.373067 156.212072 
L 205.505545 156.212072 
L 205.606494 155.1587 
L 205.690055 155.1587 
L 205.796347 154.105328 
L 205.822996 154.105328 
L 205.925307 150.945211 
L 205.949293 150.945211 
L 206.060327 149.365153 
L 206.069781 149.365153 
L 206.161258 148.311781 
L 206.241169 148.311781 
L 206.348988 146.205037 
L 206.501623 146.205037 
L 206.532332 145.151665 
L 206.701956 145.151665 
L 206.805965 143.571606 
L 207.153513 143.571606 
L 207.187364 141.991548 
L 207.284609 141.991548 
L 207.287547 140.938176 
L 207.720239 140.938176 
L 207.720239 140.41149 
L 207.856008 140.41149 
L 207.856008 139.884804 
L 208.081111 139.884804 
L 208.081111 139.358118 
L 208.262335 139.358118 
L 208.262335 138.831432 
L 208.481982 138.831432 
L 208.492039 137.778059 
L 210.002852 137.778059 
L 210.002852 137.251373 
L 210.427612 137.251373 
L 210.427612 136.724687 
L 210.581261 136.724687 
L 210.581261 136.198001 
L 210.71078 136.198001 
L 210.818293 135.144629 
L 210.83082 135.144629 
L 210.847597 134.091257 
L 210.954537 134.091257 
L 211.031878 131.984513 
L 211.094712 131.984513 
L 211.110713 130.93114 
L 211.213189 130.93114 
L 211.262903 128.824396 
L 211.423308 128.824396 
L 211.524482 126.190966 
L 211.548022 126.190966 
L 211.548022 125.66428 
L 211.678196 125.66428 
L 211.778662 123.030849 
L 211.80942 123.030849 
L 211.904377 119.870733 
L 211.95391 119.870733 
L 211.995081 118.290674 
L 212.082092 118.290674 
L 212.126425 117.237302 
L 212.215985 117.237302 
L 212.324663 116.18393 
L 212.400555 116.18393 
L 212.508818 114.603872 
L 212.617375 114.603872 
L 212.686259 113.5505 
L 212.781337 113.5505 
L 212.867367 112.497128 
L 213.150017 112.497128 
L 213.150017 111.970441 
L 214.656778 111.970441 
L 214.744915 110.917069 
L 215.273466 110.917069 
L 215.35156 109.337011 
L 215.518317 109.337011 
L 215.624494 107.756953 
L 215.726809 107.756953 
L 215.837528 106.176895 
L 215.84932 106.176895 
L 215.958869 104.07015 
L 216.027829 104.07015 
L 216.134497 103.016778 
L 216.151393 103.016778 
L 216.176119 100.910034 
L 216.273113 100.910034 
L 216.342592 99.329976 
L 216.427073 99.329976 
L 216.427073 98.803289 
L 216.541322 98.803289 
L 216.64624 97.223231 
L 216.697892 97.223231 
L 216.704172 96.169859 
L 217.024631 96.169859 
L 217.131517 94.063115 
L 217.199885 94.063115 
L 217.199885 93.536429 
L 218.441799 93.536429 
L 218.516548 92.483056 
L 218.661691 92.483056 
L 218.661691 91.95637 
L 218.839333 91.95637 
L 218.944722 90.376312 
L 218.992841 90.376312 
L 218.992841 89.849626 
L 219.124322 89.849626 
L 219.125647 88.796254 
L 219.270591 88.796254 
L 219.338934 86.68951 
L 219.416946 86.68951 
L 219.416946 86.162824 
L 219.554976 86.162824 
L 219.596608 84.056079 
L 219.697852 84.056079 
L 219.697852 83.529393 
L 219.889245 83.529393 
L 219.935304 82.476021 
L 220.28305 82.476021 
L 220.28305 81.949335 
L 220.485629 81.949335 
L 220.485629 81.422649 
L 220.755846 81.422649 
L 220.755846 80.895963 
L 221.256507 80.895963 
L 221.256507 80.369277 
L 221.597661 80.369277 
L 221.679664 79.315904 
L 221.764273 79.315904 
L 221.764273 78.789218 
L 221.935934 78.789218 
L 222.028847 76.682474 
L 222.120849 76.682474 
L 222.148717 75.629102 
L 222.256427 75.629102 
L 222.351093 74.049044 
L 222.449354 74.049044 
L 222.47643 72.995672 
L 222.635839 72.995672 
L 222.64342 71.942299 
L 222.948889 71.942299 
L 223.011943 70.888927 
L 223.111304 70.888927 
L 223.111304 70.362241 
L 223.605172 70.362241 
L 223.622325 69.308869 
L 223.793573 69.308869 
L 223.793573 68.782183 
L 224.062621 68.782183 
L 224.062621 68.255497 
L 224.490492 68.255497 
L 224.547856 67.202125 
L 224.682502 67.202125 
L 224.692012 66.148752 
L 224.848229 66.148752 
L 224.848229 65.622066 
L 225.556962 65.622066 
L 225.593568 64.568694 
L 225.775001 64.568694 
L 225.775001 64.042008 
L 226.229752 64.042008 
L 226.331263 62.46195 
L 226.342651 62.46195 
L 226.342651 61.935264 
L 226.508797 61.935264 
L 226.603525 59.82852 
L 226.663598 59.82852 
L 226.663598 59.301833 
L 226.881051 59.301833 
L 226.891238 58.248461 
L 227.076 58.248461 
L 227.076 57.721775 
L 227.324139 57.721775 
L 227.384981 56.668403 
L 227.477028 56.668403 
L 227.477028 56.141717 
L 228.63891 56.141717 
L 228.63891 55.615031 
L 228.752067 55.615031 
L 228.839657 54.034973 
L 229.017286 54.034973 
L 229.054151 52.9816 
L 229.386156 52.9816 
L 229.409126 51.928228 
L 229.737116 51.928228 
L 229.838641 50.874856 
L 229.876851 50.874856 
L 229.876851 50.34817 
L 230.181929 50.34817 
L 230.181929 49.821484 
L 230.363246 49.821484 
L 230.363246 49.294798 
L 230.48038 49.294798 
L 230.508334 48.241426 
L 230.644015 48.241426 
L 230.715977 47.188054 
L 230.779158 47.188054 
L 230.779158 46.661368 
L 230.933044 46.661368 
L 230.933044 46.134681 
L 231.716721 46.134681 
L 231.743084 45.081309 
L 232.034354 45.081309 
L 232.034354 44.554623 
L 232.273145 44.554623 
L 232.277585 43.501251 
L 232.986815 43.501251 
L 233.003036 42.447879 
L 233.548091 42.447879 
L 233.548091 41.921193 
L 233.941914 41.921193 
L 233.941914 41.394507 
L 234.333757 41.394507 
L 234.333757 40.867821 
L 234.447406 40.867821 
L 234.469813 39.814448 
L 234.795979 39.814448 
L 234.795979 39.287762 
L 234.97306 39.287762 
L 234.97306 38.761076 
L 235.120524 38.761076 
L 235.120524 38.23439 
L 235.762247 38.23439 
L 235.762247 37.707704 
L 236.108265 37.707704 
L 236.108265 37.181018 
L 236.261727 37.181018 
L 236.261727 36.654332 
L 236.382793 36.654332 
L 236.382793 36.127646 
L 236.520377 36.127646 
L 236.520377 35.60096 
L 236.753687 35.60096 
L 236.753687 35.074274 
L 237.348488 35.074274 
L 237.384036 34.020902 
L 237.519913 34.020902 
L 237.519913 33.494215 
L 238.889252 33.494215 
L 238.889252 32.967529 
L 239.724558 32.967529 
L 239.724558 32.440843 
L 239.900875 32.440843 
L 239.900875 31.914157 
L 240.370862 31.914157 
L 240.370862 31.387471 
L 241.540169 31.387471 
L 241.540169 30.860785 
L 244.268798 30.860785 
L 244.268798 30.334099 
L 338.688 30.334099 
L 338.688 30.334099 
" style="fill:none;stroke:#000000;stroke-linecap:square;stroke-width:1.5;"/>
   </g>
   <g id="line2d_45">
    <defs>
     <path d="M 0 6 
C 1.591219 6 3.117479 5.367802 4.242641 4.242641 
C 5.367802 3.117479 6 1.591219 6 0 
C 6 -1.591219 5.367802 -3.117479 4.242641 -4.242641 
C 3.117479 -5.367802 1.591219 -6 0 -6 
C -1.591219 -6 -3.117479 -5.367802 -4.242641 -4.242641 
C -5.367802 -3.117479 -6 -1.591219 -6 0 
C -6 1.591219 -5.367802 3.117479 -4.242641 4.242641 
C -3.117479 5.367802 -1.591219 6 0 6 
z
" id="m9e72c2ee40" style="stroke:#000000;stroke-width:1.5;"/>
    </defs>
    <g>
     <use style="fill-opacity:0;stroke:#000000;stroke-width:1.5;" x="187.016869" xlink:href="#m9e72c2ee40" y="205.720564"/>
     <use style="fill-opacity:0;stroke:#000000;stroke-width:1.5;" x="226.891238" xlink:href="#m9e72c2ee40" y="58.248461"/>
     <use style="fill-opacity:0;stroke:#000000;stroke-width:1.5;" x="244.268798" xlink:href="#m9e72c2ee40" y="30.334099"/>
     <use style="fill-opacity:0;stroke:#000000;stroke-width:1.5;" x="244.268798" xlink:href="#m9e72c2ee40" y="30.334099"/>
     <use style="fill-opacity:0;stroke:#000000;stroke-width:1.5;" x="338.688" xlink:href="#m9e72c2ee40" y="30.334099"/>
    </g>
   </g>
   <g id="line2d_46">
    <path style="fill:none;stroke:#000000;stroke-linecap:square;stroke-width:1.5;"/>
    <g/>
   </g>
   <g id="line2d_47">
    <path clip-path="url(#p8e944461b7)" d="M 188.888693 205.193878 
" style="fill:none;stroke:#000000;stroke-linecap:square;stroke-width:1.5;"/>
    <defs>
     <path d="M -12 12 
L 12 -12 
M -12 -12 
L 12 12 
" id="mc1a7906e41" style="stroke:#000000;"/>
    </defs>
    <g clip-path="url(#p8e944461b7)">
     <use style="stroke:#000000;" x="188.888693" xlink:href="#mc1a7906e41" y="205.193878"/>
    </g>
   </g>
   <g id="line2d_48">
    <defs>
     <path d="M 0 1.5 
C 0.397805 1.5 0.77937 1.341951 1.06066 1.06066 
C 1.341951 0.77937 1.5 0.397805 1.5 0 
C 1.5 -0.397805 1.341951 -0.77937 1.06066 -1.06066 
C 0.77937 -1.341951 0.397805 -1.5 0 -1.5 
C -0.397805 -1.5 -0.77937 -1.341951 -1.06066 -1.06066 
C -1.341951 -0.77937 -1.5 -0.397805 -1.5 0 
C -1.5 0.397805 -1.341951 0.77937 -1.06066 1.06066 
C -0.77937 1.341951 -0.397805 1.5 0 1.5 
z
" id="m62b860f5ad" style="stroke:#ff0000;"/>
    </defs>
    <g>
     <use style="fill:#ff0000;stroke:#ff0000;" x="251.762773" xlink:href="#m62b860f5ad" y="241.008531"/>
     <use style="fill:#ff0000;stroke:#ff0000;" x="251.762773" xlink:href="#m62b860f5ad" y="241.008531"/>
    </g>
   </g>
   <g id="line2d_49">
    <path d="M 154.764411 298.944 
L 154.764411 298.417314 
L 158.3662 298.417314 
L 158.3662 297.890628 
L 159.226956 297.890628 
L 159.226956 297.363942 
L 159.939068 297.363942 
L 159.939068 296.837256 
L 160.355672 296.837256 
L 160.355672 296.31057 
L 162.634036 296.31057 
L 162.741445 294.730511 
L 162.979172 294.730511 
L 163.04945 293.677139 
L 164.873242 293.677139 
L 164.962199 292.623767 
L 165.346138 292.623767 
L 165.443514 291.570395 
L 165.682828 291.570395 
L 165.682828 291.043709 
L 165.811832 291.043709 
L 165.868082 289.990337 
L 166.047915 289.990337 
L 166.047915 289.463651 
L 166.679039 289.463651 
L 166.679039 288.936964 
L 166.888852 288.936964 
L 166.997755 287.883592 
L 167.296204 287.883592 
L 167.296204 287.356906 
L 167.497166 287.356906 
L 167.517934 286.303534 
L 167.956225 286.303534 
L 167.956225 285.776848 
L 168.415645 285.776848 
L 168.415645 285.250162 
L 168.535036 285.250162 
L 168.535036 284.723476 
L 168.650622 284.723476 
L 168.729739 283.143418 
L 168.885428 283.143418 
L 168.885428 282.616732 
L 169.324185 282.616732 
L 169.371623 281.563359 
L 169.477533 281.563359 
L 169.520287 280.509987 
L 169.60973 280.509987 
L 169.704352 279.456615 
L 169.724059 279.456615 
L 169.773229 278.403243 
L 170.036379 278.403243 
L 170.110841 276.823185 
L 170.161678 276.823185 
L 170.216472 275.769812 
L 170.482497 275.769812 
L 170.482497 275.243126 
L 170.601968 275.243126 
L 170.601968 274.71644 
L 170.876713 274.71644 
L 170.876713 274.189754 
L 171.593938 274.189754 
L 171.624243 272.08301 
L 171.837409 272.08301 
L 171.837409 271.556324 
L 172.260947 271.556324 
L 172.274322 270.502952 
L 172.467718 270.502952 
L 172.467718 269.976266 
L 172.582734 269.976266 
L 172.582734 269.449579 
L 172.949044 269.449579 
L 172.949044 268.922893 
L 173.088802 268.922893 
L 173.17443 267.342835 
L 173.306673 267.342835 
L 173.306673 266.816149 
L 173.727708 266.816149 
L 173.727708 266.289463 
L 174.407602 266.289463 
L 174.407602 265.762777 
L 174.651109 265.762777 
L 174.651109 265.236091 
L 174.965377 265.236091 
L 174.965377 264.709405 
L 175.951527 264.709405 
L 175.951527 264.182719 
L 176.414867 264.182719 
L 176.414867 263.656033 
L 176.808204 263.656033 
L 176.83349 262.60266 
L 177.66942 262.60266 
L 177.66942 262.075974 
L 178.886398 262.075974 
L 178.901366 261.022602 
L 179.793307 261.022602 
L 179.793307 260.495916 
L 180.365087 260.495916 
L 180.365087 259.96923 
L 181.274158 259.96923 
L 181.274158 259.442544 
L 181.681426 259.442544 
L 181.681426 258.915858 
L 191.102857 258.915858 
L 191.102857 258.389172 
L 191.267241 258.389172 
L 191.267241 257.862486 
L 191.8564 257.862486 
L 191.8564 257.3358 
L 192.482857 257.3358 
L 192.482857 256.809114 
L 193.033336 256.809114 
L 193.135057 255.755741 
L 193.691637 255.755741 
L 193.691637 255.229055 
L 201.383504 255.229055 
L 201.383504 254.702369 
L 201.821966 254.702369 
L 201.821966 254.175683 
L 202.479344 254.175683 
L 202.479344 253.648997 
L 207.883792 253.648997 
L 207.931051 252.068939 
L 208.558027 252.068939 
L 208.558027 251.542253 
L 208.753306 251.542253 
L 208.753306 251.015567 
L 208.902734 251.015567 
L 208.902734 250.488881 
L 209.783275 250.488881 
L 209.783275 249.962195 
L 211.956159 249.962195 
L 211.956159 249.435508 
L 212.300802 249.435508 
L 212.300802 248.908822 
L 212.632279 248.908822 
L 212.632279 248.382136 
L 216.639749 248.382136 
L 216.639749 247.85545 
L 219.362717 247.85545 
L 219.362717 247.328764 
L 219.892414 247.328764 
L 219.892414 246.802078 
L 224.102498 246.802078 
L 224.102498 246.275392 
L 224.419986 246.275392 
L 224.419986 245.748706 
L 224.553922 245.748706 
L 224.553922 245.22202 
L 226.072758 245.22202 
L 226.072758 244.695334 
L 232.094084 244.695334 
L 232.094084 244.168648 
L 232.45482 244.168648 
L 232.45482 243.641962 
L 233.569839 243.641962 
L 233.569839 243.115275 
L 237.078986 243.115275 
L 237.078986 242.588589 
L 237.302302 242.588589 
L 237.302302 242.061903 
L 240.185899 242.061903 
L 240.185899 241.535217 
L 251.762773 241.535217 
L 251.762773 241.008531 
L 338.688 241.008531 
L 338.688 241.008531 
" style="fill:none;stroke:#ff0000;stroke-linecap:square;stroke-width:1.5;"/>
   </g>
   <g id="line2d_50">
    <defs>
     <path d="M -6 6 
L 6 6 
L 6 -6 
L -6 -6 
z
" id="m2f98902f2f" style="stroke:#ff0000;stroke-linejoin:miter;stroke-width:1.5;"/>
    </defs>
    <g>
     <use style="fill-opacity:0;stroke:#ff0000;stroke-linejoin:miter;stroke-width:1.5;" x="209.783275" xlink:href="#m2f98902f2f" y="250.488881"/>
     <use style="fill-opacity:0;stroke:#ff0000;stroke-linejoin:miter;stroke-width:1.5;" x="251.762773" xlink:href="#m2f98902f2f" y="241.535217"/>
     <use style="fill-opacity:0;stroke:#ff0000;stroke-linejoin:miter;stroke-width:1.5;" x="251.762773" xlink:href="#m2f98902f2f" y="241.008531"/>
     <use style="fill-opacity:0;stroke:#ff0000;stroke-linejoin:miter;stroke-width:1.5;" x="338.688" xlink:href="#m2f98902f2f" y="241.008531"/>
    </g>
   </g>
   <g id="line2d_51">
    <path style="fill:none;stroke:#ff0000;stroke-linecap:square;stroke-width:1.5;"/>
    <g/>
   </g>
   <g id="line2d_52">
    <path clip-path="url(#p8e944461b7)" d="M 186.317224 258.915858 
" style="fill:none;stroke:#ff0000;stroke-linecap:square;stroke-width:1.5;"/>
    <defs>
     <path d="M -12 12 
L 12 -12 
M -12 -12 
L 12 12 
" id="m4b3ef77fd4" style="stroke:#ff0000;"/>
    </defs>
    <g clip-path="url(#p8e944461b7)">
     <use style="fill:#ff0000;stroke:#ff0000;" x="186.317224" xlink:href="#m4b3ef77fd4" y="258.915858"/>
    </g>
   </g>
   <g id="line2d_53">
    <path d="M 338.688 241.008531 
L 369.60768 293.571802 
" style="fill:none;stroke:#ff0000;stroke-linecap:square;stroke-width:1.5;"/>
    <g>
     <use style="fill-opacity:0;stroke:#ff0000;stroke-linejoin:miter;stroke-width:1.5;" x="338.688" xlink:href="#m2f98902f2f" y="241.008531"/>
     <use style="fill-opacity:0;stroke:#ff0000;stroke-linejoin:miter;stroke-width:1.5;" x="369.60768" xlink:href="#m2f98902f2f" y="293.571802"/>
    </g>
   </g>
   <g id="line2d_54">
    <path d="M 338.688 30.334099 
L 369.60768 229.105426 
" style="fill:none;stroke:#000000;stroke-linecap:square;stroke-width:1.5;"/>
    <g>
     <use style="fill-opacity:0;stroke:#000000;stroke-width:1.5;" x="338.688" xlink:href="#m9e72c2ee40" y="30.334099"/>
     <use style="fill-opacity:0;stroke:#000000;stroke-width:1.5;" x="369.60768" xlink:href="#m9e72c2ee40" y="229.105426"/>
    </g>
   </g>
   <g id="line2d_55">
    <path d="M 338.688 30.334099 
L 369.60768 164.63905 
" style="fill:none;stroke:#0000ff;stroke-linecap:square;stroke-width:1.5;"/>
    <g>
     <use style="fill-opacity:0;stroke:#0000ff;stroke-linejoin:bevel;stroke-width:1.5;" x="338.688" xlink:href="#m0a04882ab2" y="30.334099"/>
     <use style="fill-opacity:0;stroke:#0000ff;stroke-linejoin:bevel;stroke-width:1.5;" x="369.60768" xlink:href="#m0a04882ab2" y="164.63905"/>
    </g>
   </g>
   <g id="line2d_56">
    <path d="M 338.688 30.334099 
L 369.60768 100.172673 
" style="fill:none;stroke:#008000;stroke-linecap:square;stroke-width:1.5;"/>
    <g>
     <use style="fill-opacity:0;stroke:#008000;stroke-linejoin:miter;stroke-width:1.5;" x="338.688" xlink:href="#m7a158c0199" y="30.334099"/>
     <use style="fill-opacity:0;stroke:#008000;stroke-linejoin:miter;stroke-width:1.5;" x="369.60768" xlink:href="#m7a158c0199" y="100.172673"/>
    </g>
   </g>
   <g id="line2d_57">
    <path d="M 338.688 30.334099 
L 369.60768 35.706297 
" style="fill:none;stroke:#00bfbf;stroke-linecap:square;stroke-width:1.5;"/>
    <g>
     <use style="fill-opacity:0;stroke:#00bfbf;stroke-width:1.5;" x="338.688" xlink:href="#mf36e933e34" y="30.334099"/>
     <use style="fill-opacity:0;stroke:#00bfbf;stroke-width:1.5;" x="369.60768" xlink:href="#mf36e933e34" y="35.706297"/>
    </g>
   </g>
   <g id="line2d_58">
    <path d="M 338.688 298.944 
L 338.688 30.334099 
" style="fill:none;stroke:#000000;stroke-linecap:square;stroke-width:1.5;"/>
   </g>
   <g id="patch_3">
    <path d="M 57.6 298.944 
L 57.6 27.648 
" style="fill:none;stroke:#000000;stroke-linecap:square;stroke-linejoin:miter;stroke-width:0.8;"/>
   </g>
   <g id="patch_4">
    <path d="M 338.688 298.944 
L 338.688 27.648 
" style="fill:none;stroke:#000000;stroke-linecap:square;stroke-linejoin:miter;stroke-width:0.8;"/>
   </g>
   <g id="patch_5">
    <path d="M 57.6 298.944 
L 338.688 298.944 
" style="fill:none;stroke:#000000;stroke-linecap:square;stroke-linejoin:miter;stroke-width:0.8;"/>
   </g>
   <g id="patch_6">
    <path d="M 57.6 27.648 
L 338.688 27.648 
" style="fill:none;stroke:#000000;stroke-linecap:square;stroke-linejoin:miter;stroke-width:0.8;"/>
   </g>
   <g id="text_13">
    <!-- 20-D -->
    <g transform="translate(375.22944 298.262739)scale(0.17 -0.17)">
     <defs>
      <path d="M 1259 4147 
L 1259 519 
L 2022 519 
Q 2988 519 3436 956 
Q 3884 1394 3884 2338 
Q 3884 3275 3436 3711 
Q 2988 4147 2022 4147 
L 1259 4147 
z
M 628 4666 
L 1925 4666 
Q 3281 4666 3915 4102 
Q 4550 3538 4550 2338 
Q 4550 1131 3912 565 
Q 3275 0 1925 0 
L 628 0 
L 628 4666 
z
" id="DejaVuSans-44" transform="scale(0.015625)"/>
     </defs>
     <use xlink:href="#DejaVuSans-32"/>
     <use x="63.623047" xlink:href="#DejaVuSans-30"/>
     <use x="127.246094" xlink:href="#DejaVuSans-2d"/>
     <use x="163.330078" xlink:href="#DejaVuSans-44"/>
    </g>
   </g>
   <g id="text_14">
    <!-- 10-D -->
    <g transform="translate(375.22944 233.796363)scale(0.17 -0.17)">
     <use xlink:href="#DejaVuSans-31"/>
     <use x="63.623047" xlink:href="#DejaVuSans-30"/>
     <use x="127.246094" xlink:href="#DejaVuSans-2d"/>
     <use x="163.330078" xlink:href="#DejaVuSans-44"/>
    </g>
   </g>
   <g id="text_15">
    <!-- 5-D -->
    <g transform="translate(375.22944 169.329987)scale(0.17 -0.17)">
     <defs>
      <path d="M 691 4666 
L 3169 4666 
L 3169 4134 
L 1269 4134 
L 1269 2991 
Q 1406 3038 1543 3061 
Q 1681 3084 1819 3084 
Q 2600 3084 3056 2656 
Q 3513 2228 3513 1497 
Q 3513 744 3044 326 
Q 2575 -91 1722 -91 
Q 1428 -91 1123 -41 
Q 819 9 494 109 
L 494 744 
Q 775 591 1075 516 
Q 1375 441 1709 441 
Q 2250 441 2565 725 
Q 2881 1009 2881 1497 
Q 2881 1984 2565 2268 
Q 2250 2553 1709 2553 
Q 1456 2553 1204 2497 
Q 953 2441 691 2322 
L 691 4666 
z
" id="DejaVuSans-35" transform="scale(0.015625)"/>
     </defs>
     <use xlink:href="#DejaVuSans-35"/>
     <use x="63.623047" xlink:href="#DejaVuSans-2d"/>
     <use x="99.707031" xlink:href="#DejaVuSans-44"/>
    </g>
   </g>
   <g id="text_16">
    <!-- 3-D -->
    <g transform="translate(375.22944 104.863611)scale(0.17 -0.17)">
     <defs>
      <path d="M 2597 2516 
Q 3050 2419 3304 2112 
Q 3559 1806 3559 1356 
Q 3559 666 3084 287 
Q 2609 -91 1734 -91 
Q 1441 -91 1130 -33 
Q 819 25 488 141 
L 488 750 
Q 750 597 1062 519 
Q 1375 441 1716 441 
Q 2309 441 2620 675 
Q 2931 909 2931 1356 
Q 2931 1769 2642 2001 
Q 2353 2234 1838 2234 
L 1294 2234 
L 1294 2753 
L 1863 2753 
Q 2328 2753 2575 2939 
Q 2822 3125 2822 3475 
Q 2822 3834 2567 4026 
Q 2313 4219 1838 4219 
Q 1578 4219 1281 4162 
Q 984 4106 628 3988 
L 628 4550 
Q 988 4650 1302 4700 
Q 1616 4750 1894 4750 
Q 2613 4750 3031 4423 
Q 3450 4097 3450 3541 
Q 3450 3153 3228 2886 
Q 3006 2619 2597 2516 
z
" id="DejaVuSans-33" transform="scale(0.015625)"/>
     </defs>
     <use xlink:href="#DejaVuSans-33"/>
     <use x="63.623047" xlink:href="#DejaVuSans-2d"/>
     <use x="99.707031" xlink:href="#DejaVuSans-44"/>
    </g>
   </g>
   <g id="text_17">
    <!-- 2-D -->
    <g transform="translate(375.22944 40.397235)scale(0.17 -0.17)">
     <use xlink:href="#DejaVuSans-32"/>
     <use x="63.623047" xlink:href="#DejaVuSans-2d"/>
     <use x="99.707031" xlink:href="#DejaVuSans-44"/>
    </g>
   </g>
   <g id="text_18">
    <!-- bbob f15 -->
    <g transform="translate(60.41088 38.111366)scale(0.102 -0.102)">
     <defs>
      <path d="M 3116 1747 
Q 3116 2381 2855 2742 
Q 2594 3103 2138 3103 
Q 1681 3103 1420 2742 
Q 1159 2381 1159 1747 
Q 1159 1113 1420 752 
Q 1681 391 2138 391 
Q 2594 391 2855 752 
Q 3116 1113 3116 1747 
z
M 1159 2969 
Q 1341 3281 1617 3432 
Q 1894 3584 2278 3584 
Q 2916 3584 3314 3078 
Q 3713 2572 3713 1747 
Q 3713 922 3314 415 
Q 2916 -91 2278 -91 
Q 1894 -91 1617 61 
Q 1341 213 1159 525 
L 1159 0 
L 581 0 
L 581 4863 
L 1159 4863 
L 1159 2969 
z
" id="DejaVuSans-62" transform="scale(0.015625)"/>
     </defs>
     <use xlink:href="#DejaVuSans-62"/>
     <use x="63.476562" xlink:href="#DejaVuSans-62"/>
     <use x="126.953125" xlink:href="#DejaVuSans-6f"/>
     <use x="188.134766" xlink:href="#DejaVuSans-62"/>
     <use x="251.611328" xlink:href="#DejaVuSans-20"/>
     <use x="283.398438" xlink:href="#DejaVuSans-66"/>
     <use x="318.603516" xlink:href="#DejaVuSans-31"/>
     <use x="382.226562" xlink:href="#DejaVuSans-35"/>
    </g>
    <!-- 51 targets: 100..1e-08 -->
    <g transform="translate(60.41088 49.533135)scale(0.102 -0.102)">
     <defs>
      <path d="M 750 794 
L 1409 794 
L 1409 0 
L 750 0 
L 750 794 
z
M 750 3309 
L 1409 3309 
L 1409 2516 
L 750 2516 
L 750 3309 
z
" id="DejaVuSans-3a" transform="scale(0.015625)"/>
     </defs>
     <use xlink:href="#DejaVuSans-35"/>
     <use x="63.623047" xlink:href="#DejaVuSans-31"/>
     <use x="127.246094" xlink:href="#DejaVuSans-20"/>
     <use x="159.033203" xlink:href="#DejaVuSans-74"/>
     <use x="198.242188" xlink:href="#DejaVuSans-61"/>
     <use x="259.521484" xlink:href="#DejaVuSans-72"/>
     <use x="298.884766" xlink:href="#DejaVuSans-67"/>
     <use x="362.361328" xlink:href="#DejaVuSans-65"/>
     <use x="423.884766" xlink:href="#DejaVuSans-74"/>
     <use x="463.09375" xlink:href="#DejaVuSans-73"/>
     <use x="515.193359" xlink:href="#DejaVuSans-3a"/>
     <use x="548.884766" xlink:href="#DejaVuSans-20"/>
     <use x="580.671875" xlink:href="#DejaVuSans-31"/>
     <use x="644.294922" xlink:href="#DejaVuSans-30"/>
     <use x="707.917969" xlink:href="#DejaVuSans-30"/>
     <use x="771.541016" xlink:href="#DejaVuSans-2e"/>
     <use x="803.328125" xlink:href="#DejaVuSans-2e"/>
     <use x="835.115234" xlink:href="#DejaVuSans-31"/>
     <use x="898.738281" xlink:href="#DejaVuSans-65"/>
     <use x="960.261719" xlink:href="#DejaVuSans-2d"/>
     <use x="996.345703" xlink:href="#DejaVuSans-30"/>
     <use x="1059.96875" xlink:href="#DejaVuSans-38"/>
    </g>
    <!-- 15 instances -->
    <g transform="translate(60.41088 60.954904)scale(0.102 -0.102)">
     <use xlink:href="#DejaVuSans-31"/>
     <use x="63.623047" xlink:href="#DejaVuSans-35"/>
     <use x="127.246094" xlink:href="#DejaVuSans-20"/>
     <use x="159.033203" xlink:href="#DejaVuSans-69"/>
     <use x="186.816406" xlink:href="#DejaVuSans-6e"/>
     <use x="250.195312" xlink:href="#DejaVuSans-73"/>
     <use x="302.294922" xlink:href="#DejaVuSans-74"/>
     <use x="341.503906" xlink:href="#DejaVuSans-61"/>
     <use x="402.783203" xlink:href="#DejaVuSans-6e"/>
     <use x="466.162109" xlink:href="#DejaVuSans-63"/>
     <use x="521.142578" xlink:href="#DejaVuSans-65"/>
     <use x="582.666016" xlink:href="#DejaVuSans-73"/>
    </g>
   </g>
   <g id="text_19">
    <!-- v2.4 -->
    <g style="fill:#808080;" transform="translate(187.233062 294.151352)scale(0.1 -0.1)">
     <use xlink:href="#DejaVuSans-76"/>
     <use x="59.179688" xlink:href="#DejaVuSans-32"/>
     <use x="122.802734" xlink:href="#DejaVuSans-2e"/>
     <use x="154.589844" xlink:href="#DejaVuSans-34"/>
    </g>
   </g>
   <g id="text_20">
    <!-- 15 Rastrigin -->
    <g transform="translate(137.9065 21.648)scale(0.2 -0.2)">
     <defs>
      <path d="M 2841 2188 
Q 3044 2119 3236 1894 
Q 3428 1669 3622 1275 
L 4263 0 
L 3584 0 
L 2988 1197 
Q 2756 1666 2539 1819 
Q 2322 1972 1947 1972 
L 1259 1972 
L 1259 0 
L 628 0 
L 628 4666 
L 2053 4666 
Q 2853 4666 3247 4331 
Q 3641 3997 3641 3322 
Q 3641 2881 3436 2590 
Q 3231 2300 2841 2188 
z
M 1259 4147 
L 1259 2491 
L 2053 2491 
Q 2509 2491 2742 2702 
Q 2975 2913 2975 3322 
Q 2975 3731 2742 3939 
Q 2509 4147 2053 4147 
L 1259 4147 
z
" id="DejaVuSans-52" transform="scale(0.015625)"/>
     </defs>
     <use xlink:href="#DejaVuSans-31"/>
     <use x="63.623047" xlink:href="#DejaVuSans-35"/>
     <use x="127.246094" xlink:href="#DejaVuSans-20"/>
     <use x="159.033203" xlink:href="#DejaVuSans-52"/>
     <use x="226.265625" xlink:href="#DejaVuSans-61"/>
     <use x="287.544922" xlink:href="#DejaVuSans-73"/>
     <use x="339.644531" xlink:href="#DejaVuSans-74"/>
     <use x="378.853516" xlink:href="#DejaVuSans-72"/>
     <use x="419.966797" xlink:href="#DejaVuSans-69"/>
     <use x="447.75" xlink:href="#DejaVuSans-67"/>
     <use x="511.226562" xlink:href="#DejaVuSans-69"/>
     <use x="539.009766" xlink:href="#DejaVuSans-6e"/>
    </g>
   </g>
  </g>
 </g>
 <defs>
  <clipPath id="p8e944461b7">
   <rect height="271.296" width="281.088" x="57.6" y="27.648"/>
  </clipPath>
 </defs>
</svg>
