<?xml version="1.0" encoding="utf-8" standalone="no"?>
<!DOCTYPE svg PUBLIC "-//W3C//DTD SVG 1.1//EN"
  "http://www.w3.org/Graphics/SVG/1.1/DTD/svg11.dtd">
<svg height="345.6pt" version="1.1" viewBox="0 0 460.8 345.6" width="460.8pt" xmlns="http://www.w3.org/2000/svg" xmlns:xlink="http://www.w3.org/1999/xlink">
 <metadata>
  <rdf:RDF xmlns:cc="http://creativecommons.org/ns#" xmlns:dc="http://purl.org/dc/elements/1.1/" xmlns:rdf="http://www.w3.org/1999/02/22-rdf-syntax-ns#">
   <cc:Work>
    <dc:type rdf:resource="http://purl.org/dc/dcmitype/StillImage"/>
    <dc:date>2021-07-27T16:03:55.004578</dc:date>
    <dc:format>image/svg+xml</dc:format>
    <dc:creator>
     <cc:Agent>
      <dc:title>Matplotlib v3.4.2, https://matplotlib.org/</dc:title>
     </cc:Agent>
    </dc:creator>
   </cc:Work>
  </rdf:RDF>
 </metadata>
 <defs>
  <style type="text/css">*{stroke-linecap:butt;stroke-linejoin:round;}</style>
 </defs>
 <g id="figure_1">
  <g id="patch_1">
   <path d="M 0 345.6 
L 460.8 345.6 
L 460.8 0 
L 0 0 
z
" style="fill:#ffffff;"/>
  </g>
  <g id="axes_1">
   <g id="patch_2">
    <path d="M 57.6 298.944 
L 338.688 298.944 
L 338.688 3.456 
L 57.6 3.456 
z
" style="fill:#ffffff;"/>
   </g>
   <g id="matplotlib.axis_1">
    <g id="xtick_1">
     <g id="line2d_1">
      <path clip-path="url(#pdc986c7dc0)" d="M 57.6 298.944 
L 57.6 3.456 
" style="fill:none;stroke:#b0b0b0;stroke-linecap:square;stroke-width:0.8;"/>
     </g>
     <g id="line2d_2">
      <defs>
       <path d="M 0 0 
L 0 3.5 
" id="me382dd1fba" style="stroke:#000000;stroke-width:0.8;"/>
      </defs>
      <g>
       <use style="stroke:#000000;stroke-width:0.8;" x="57.6" xlink:href="#me382dd1fba" y="298.944"/>
      </g>
     </g>
     <g id="text_1">
      <!-- 0 -->
      <g transform="translate(51.2375 321.140875)scale(0.2 -0.2)">
       <defs>
        <path d="M 2034 4250 
Q 1547 4250 1301 3770 
Q 1056 3291 1056 2328 
Q 1056 1369 1301 889 
Q 1547 409 2034 409 
Q 2525 409 2770 889 
Q 3016 1369 3016 2328 
Q 3016 3291 2770 3770 
Q 2525 4250 2034 4250 
z
M 2034 4750 
Q 2819 4750 3233 4129 
Q 3647 3509 3647 2328 
Q 3647 1150 3233 529 
Q 2819 -91 2034 -91 
Q 1250 -91 836 529 
Q 422 1150 422 2328 
Q 422 3509 836 4129 
Q 1250 4750 2034 4750 
z
" id="DejaVuSans-30" transform="scale(0.015625)"/>
       </defs>
       <use xlink:href="#DejaVuSans-30"/>
      </g>
     </g>
    </g>
    <g id="xtick_2">
     <g id="line2d_3">
      <path clip-path="url(#pdc986c7dc0)" d="M 137.910857 298.944 
L 137.910857 3.456 
" style="fill:none;stroke:#b0b0b0;stroke-linecap:square;stroke-width:0.8;"/>
     </g>
     <g id="line2d_4">
      <g>
       <use style="stroke:#000000;stroke-width:0.8;" x="137.910857" xlink:href="#me382dd1fba" y="298.944"/>
      </g>
     </g>
     <g id="text_2">
      <!-- 2 -->
      <g transform="translate(131.548357 321.140875)scale(0.2 -0.2)">
       <defs>
        <path d="M 1228 531 
L 3431 531 
L 3431 0 
L 469 0 
L 469 531 
Q 828 903 1448 1529 
Q 2069 2156 2228 2338 
Q 2531 2678 2651 2914 
Q 2772 3150 2772 3378 
Q 2772 3750 2511 3984 
Q 2250 4219 1831 4219 
Q 1534 4219 1204 4116 
Q 875 4013 500 3803 
L 500 4441 
Q 881 4594 1212 4672 
Q 1544 4750 1819 4750 
Q 2544 4750 2975 4387 
Q 3406 4025 3406 3419 
Q 3406 3131 3298 2873 
Q 3191 2616 2906 2266 
Q 2828 2175 2409 1742 
Q 1991 1309 1228 531 
z
" id="DejaVuSans-32" transform="scale(0.015625)"/>
       </defs>
       <use xlink:href="#DejaVuSans-32"/>
      </g>
     </g>
    </g>
    <g id="xtick_3">
     <g id="line2d_5">
      <path clip-path="url(#pdc986c7dc0)" d="M 218.221714 298.944 
L 218.221714 3.456 
" style="fill:none;stroke:#b0b0b0;stroke-linecap:square;stroke-width:0.8;"/>
     </g>
     <g id="line2d_6">
      <g>
       <use style="stroke:#000000;stroke-width:0.8;" x="218.221714" xlink:href="#me382dd1fba" y="298.944"/>
      </g>
     </g>
     <g id="text_3">
      <!-- 4 -->
      <g transform="translate(211.859214 321.140875)scale(0.2 -0.2)">
       <defs>
        <path d="M 2419 4116 
L 825 1625 
L 2419 1625 
L 2419 4116 
z
M 2253 4666 
L 3047 4666 
L 3047 1625 
L 3713 1625 
L 3713 1100 
L 3047 1100 
L 3047 0 
L 2419 0 
L 2419 1100 
L 313 1100 
L 313 1709 
L 2253 4666 
z
" id="DejaVuSans-34" transform="scale(0.015625)"/>
       </defs>
       <use xlink:href="#DejaVuSans-34"/>
      </g>
     </g>
    </g>
    <g id="xtick_4">
     <g id="line2d_7">
      <path clip-path="url(#pdc986c7dc0)" d="M 298.532571 298.944 
L 298.532571 3.456 
" style="fill:none;stroke:#b0b0b0;stroke-linecap:square;stroke-width:0.8;"/>
     </g>
     <g id="line2d_8">
      <g>
       <use style="stroke:#000000;stroke-width:0.8;" x="298.532571" xlink:href="#me382dd1fba" y="298.944"/>
      </g>
     </g>
     <g id="text_4">
      <!-- 6 -->
      <g transform="translate(292.170071 321.140875)scale(0.2 -0.2)">
       <defs>
        <path d="M 2113 2584 
Q 1688 2584 1439 2293 
Q 1191 2003 1191 1497 
Q 1191 994 1439 701 
Q 1688 409 2113 409 
Q 2538 409 2786 701 
Q 3034 994 3034 1497 
Q 3034 2003 2786 2293 
Q 2538 2584 2113 2584 
z
M 3366 4563 
L 3366 3988 
Q 3128 4100 2886 4159 
Q 2644 4219 2406 4219 
Q 1781 4219 1451 3797 
Q 1122 3375 1075 2522 
Q 1259 2794 1537 2939 
Q 1816 3084 2150 3084 
Q 2853 3084 3261 2657 
Q 3669 2231 3669 1497 
Q 3669 778 3244 343 
Q 2819 -91 2113 -91 
Q 1303 -91 875 529 
Q 447 1150 447 2328 
Q 447 3434 972 4092 
Q 1497 4750 2381 4750 
Q 2619 4750 2861 4703 
Q 3103 4656 3366 4563 
z
" id="DejaVuSans-36" transform="scale(0.015625)"/>
       </defs>
       <use xlink:href="#DejaVuSans-36"/>
      </g>
     </g>
    </g>
    <g id="xtick_5">
     <g id="line2d_9">
      <path clip-path="url(#pdc986c7dc0)" d="M 97.755429 298.944 
L 97.755429 3.456 
" style="fill:none;stroke:#b0b0b0;stroke-linecap:square;stroke-width:0.8;"/>
     </g>
     <g id="line2d_10">
      <defs>
       <path d="M 0 0 
L 0 2 
" id="m7d383b717d" style="stroke:#000000;stroke-width:0.6;"/>
      </defs>
      <g>
       <use style="stroke:#000000;stroke-width:0.6;" x="97.755429" xlink:href="#m7d383b717d" y="298.944"/>
      </g>
     </g>
    </g>
    <g id="xtick_6">
     <g id="line2d_11">
      <path clip-path="url(#pdc986c7dc0)" d="M 178.066286 298.944 
L 178.066286 3.456 
" style="fill:none;stroke:#b0b0b0;stroke-linecap:square;stroke-width:0.8;"/>
     </g>
     <g id="line2d_12">
      <g>
       <use style="stroke:#000000;stroke-width:0.6;" x="178.066286" xlink:href="#m7d383b717d" y="298.944"/>
      </g>
     </g>
    </g>
    <g id="xtick_7">
     <g id="line2d_13">
      <path clip-path="url(#pdc986c7dc0)" d="M 258.377143 298.944 
L 258.377143 3.456 
" style="fill:none;stroke:#b0b0b0;stroke-linecap:square;stroke-width:0.8;"/>
     </g>
     <g id="line2d_14">
      <g>
       <use style="stroke:#000000;stroke-width:0.6;" x="258.377143" xlink:href="#m7d383b717d" y="298.944"/>
      </g>
     </g>
    </g>
    <g id="xtick_8">
     <g id="line2d_15">
      <path clip-path="url(#pdc986c7dc0)" d="M 338.688 298.944 
L 338.688 3.456 
" style="fill:none;stroke:#b0b0b0;stroke-linecap:square;stroke-width:0.8;"/>
     </g>
     <g id="line2d_16">
      <g>
       <use style="stroke:#000000;stroke-width:0.6;" x="338.688" xlink:href="#m7d383b717d" y="298.944"/>
      </g>
     </g>
    </g>
    <g id="text_5">
     <!-- log10(# f-evals / dimension) -->
     <g transform="translate(77.764078 342.217594)scale(0.17 -0.17)">
      <defs>
       <path d="M 603 4863 
L 1178 4863 
L 1178 0 
L 603 0 
L 603 4863 
z
" id="DejaVuSans-6c" transform="scale(0.015625)"/>
       <path d="M 1959 3097 
Q 1497 3097 1228 2736 
Q 959 2375 959 1747 
Q 959 1119 1226 758 
Q 1494 397 1959 397 
Q 2419 397 2687 759 
Q 2956 1122 2956 1747 
Q 2956 2369 2687 2733 
Q 2419 3097 1959 3097 
z
M 1959 3584 
Q 2709 3584 3137 3096 
Q 3566 2609 3566 1747 
Q 3566 888 3137 398 
Q 2709 -91 1959 -91 
Q 1206 -91 779 398 
Q 353 888 353 1747 
Q 353 2609 779 3096 
Q 1206 3584 1959 3584 
z
" id="DejaVuSans-6f" transform="scale(0.015625)"/>
       <path d="M 2906 1791 
Q 2906 2416 2648 2759 
Q 2391 3103 1925 3103 
Q 1463 3103 1205 2759 
Q 947 2416 947 1791 
Q 947 1169 1205 825 
Q 1463 481 1925 481 
Q 2391 481 2648 825 
Q 2906 1169 2906 1791 
z
M 3481 434 
Q 3481 -459 3084 -895 
Q 2688 -1331 1869 -1331 
Q 1566 -1331 1297 -1286 
Q 1028 -1241 775 -1147 
L 775 -588 
Q 1028 -725 1275 -790 
Q 1522 -856 1778 -856 
Q 2344 -856 2625 -561 
Q 2906 -266 2906 331 
L 2906 616 
Q 2728 306 2450 153 
Q 2172 0 1784 0 
Q 1141 0 747 490 
Q 353 981 353 1791 
Q 353 2603 747 3093 
Q 1141 3584 1784 3584 
Q 2172 3584 2450 3431 
Q 2728 3278 2906 2969 
L 2906 3500 
L 3481 3500 
L 3481 434 
z
" id="DejaVuSans-67" transform="scale(0.015625)"/>
       <path d="M 794 531 
L 1825 531 
L 1825 4091 
L 703 3866 
L 703 4441 
L 1819 4666 
L 2450 4666 
L 2450 531 
L 3481 531 
L 3481 0 
L 794 0 
L 794 531 
z
" id="DejaVuSans-31" transform="scale(0.015625)"/>
       <path d="M 1984 4856 
Q 1566 4138 1362 3434 
Q 1159 2731 1159 2009 
Q 1159 1288 1364 580 
Q 1569 -128 1984 -844 
L 1484 -844 
Q 1016 -109 783 600 
Q 550 1309 550 2009 
Q 550 2706 781 3412 
Q 1013 4119 1484 4856 
L 1984 4856 
z
" id="DejaVuSans-28" transform="scale(0.015625)"/>
       <path d="M 3272 2816 
L 2363 2816 
L 2100 1772 
L 3016 1772 
L 3272 2816 
z
M 2803 4594 
L 2478 3297 
L 3391 3297 
L 3719 4594 
L 4219 4594 
L 3897 3297 
L 4872 3297 
L 4872 2816 
L 3775 2816 
L 3519 1772 
L 4513 1772 
L 4513 1294 
L 3397 1294 
L 3072 0 
L 2572 0 
L 2894 1294 
L 1978 1294 
L 1656 0 
L 1153 0 
L 1478 1294 
L 494 1294 
L 494 1772 
L 1594 1772 
L 1856 2816 
L 850 2816 
L 850 3297 
L 1978 3297 
L 2297 4594 
L 2803 4594 
z
" id="DejaVuSans-23" transform="scale(0.015625)"/>
       <path id="DejaVuSans-20" transform="scale(0.015625)"/>
       <path d="M 2375 4863 
L 2375 4384 
L 1825 4384 
Q 1516 4384 1395 4259 
Q 1275 4134 1275 3809 
L 1275 3500 
L 2222 3500 
L 2222 3053 
L 1275 3053 
L 1275 0 
L 697 0 
L 697 3053 
L 147 3053 
L 147 3500 
L 697 3500 
L 697 3744 
Q 697 4328 969 4595 
Q 1241 4863 1831 4863 
L 2375 4863 
z
" id="DejaVuSans-66" transform="scale(0.015625)"/>
       <path d="M 313 2009 
L 1997 2009 
L 1997 1497 
L 313 1497 
L 313 2009 
z
" id="DejaVuSans-2d" transform="scale(0.015625)"/>
       <path d="M 3597 1894 
L 3597 1613 
L 953 1613 
Q 991 1019 1311 708 
Q 1631 397 2203 397 
Q 2534 397 2845 478 
Q 3156 559 3463 722 
L 3463 178 
Q 3153 47 2828 -22 
Q 2503 -91 2169 -91 
Q 1331 -91 842 396 
Q 353 884 353 1716 
Q 353 2575 817 3079 
Q 1281 3584 2069 3584 
Q 2775 3584 3186 3129 
Q 3597 2675 3597 1894 
z
M 3022 2063 
Q 3016 2534 2758 2815 
Q 2500 3097 2075 3097 
Q 1594 3097 1305 2825 
Q 1016 2553 972 2059 
L 3022 2063 
z
" id="DejaVuSans-65" transform="scale(0.015625)"/>
       <path d="M 191 3500 
L 800 3500 
L 1894 563 
L 2988 3500 
L 3597 3500 
L 2284 0 
L 1503 0 
L 191 3500 
z
" id="DejaVuSans-76" transform="scale(0.015625)"/>
       <path d="M 2194 1759 
Q 1497 1759 1228 1600 
Q 959 1441 959 1056 
Q 959 750 1161 570 
Q 1363 391 1709 391 
Q 2188 391 2477 730 
Q 2766 1069 2766 1631 
L 2766 1759 
L 2194 1759 
z
M 3341 1997 
L 3341 0 
L 2766 0 
L 2766 531 
Q 2569 213 2275 61 
Q 1981 -91 1556 -91 
Q 1019 -91 701 211 
Q 384 513 384 1019 
Q 384 1609 779 1909 
Q 1175 2209 1959 2209 
L 2766 2209 
L 2766 2266 
Q 2766 2663 2505 2880 
Q 2244 3097 1772 3097 
Q 1472 3097 1187 3025 
Q 903 2953 641 2809 
L 641 3341 
Q 956 3463 1253 3523 
Q 1550 3584 1831 3584 
Q 2591 3584 2966 3190 
Q 3341 2797 3341 1997 
z
" id="DejaVuSans-61" transform="scale(0.015625)"/>
       <path d="M 2834 3397 
L 2834 2853 
Q 2591 2978 2328 3040 
Q 2066 3103 1784 3103 
Q 1356 3103 1142 2972 
Q 928 2841 928 2578 
Q 928 2378 1081 2264 
Q 1234 2150 1697 2047 
L 1894 2003 
Q 2506 1872 2764 1633 
Q 3022 1394 3022 966 
Q 3022 478 2636 193 
Q 2250 -91 1575 -91 
Q 1294 -91 989 -36 
Q 684 19 347 128 
L 347 722 
Q 666 556 975 473 
Q 1284 391 1588 391 
Q 1994 391 2212 530 
Q 2431 669 2431 922 
Q 2431 1156 2273 1281 
Q 2116 1406 1581 1522 
L 1381 1569 
Q 847 1681 609 1914 
Q 372 2147 372 2553 
Q 372 3047 722 3315 
Q 1072 3584 1716 3584 
Q 2034 3584 2315 3537 
Q 2597 3491 2834 3397 
z
" id="DejaVuSans-73" transform="scale(0.015625)"/>
       <path d="M 1625 4666 
L 2156 4666 
L 531 -594 
L 0 -594 
L 1625 4666 
z
" id="DejaVuSans-2f" transform="scale(0.015625)"/>
       <path d="M 2906 2969 
L 2906 4863 
L 3481 4863 
L 3481 0 
L 2906 0 
L 2906 525 
Q 2725 213 2448 61 
Q 2172 -91 1784 -91 
Q 1150 -91 751 415 
Q 353 922 353 1747 
Q 353 2572 751 3078 
Q 1150 3584 1784 3584 
Q 2172 3584 2448 3432 
Q 2725 3281 2906 2969 
z
M 947 1747 
Q 947 1113 1208 752 
Q 1469 391 1925 391 
Q 2381 391 2643 752 
Q 2906 1113 2906 1747 
Q 2906 2381 2643 2742 
Q 2381 3103 1925 3103 
Q 1469 3103 1208 2742 
Q 947 2381 947 1747 
z
" id="DejaVuSans-64" transform="scale(0.015625)"/>
       <path d="M 603 3500 
L 1178 3500 
L 1178 0 
L 603 0 
L 603 3500 
z
M 603 4863 
L 1178 4863 
L 1178 4134 
L 603 4134 
L 603 4863 
z
" id="DejaVuSans-69" transform="scale(0.015625)"/>
       <path d="M 3328 2828 
Q 3544 3216 3844 3400 
Q 4144 3584 4550 3584 
Q 5097 3584 5394 3201 
Q 5691 2819 5691 2113 
L 5691 0 
L 5113 0 
L 5113 2094 
Q 5113 2597 4934 2840 
Q 4756 3084 4391 3084 
Q 3944 3084 3684 2787 
Q 3425 2491 3425 1978 
L 3425 0 
L 2847 0 
L 2847 2094 
Q 2847 2600 2669 2842 
Q 2491 3084 2119 3084 
Q 1678 3084 1418 2786 
Q 1159 2488 1159 1978 
L 1159 0 
L 581 0 
L 581 3500 
L 1159 3500 
L 1159 2956 
Q 1356 3278 1631 3431 
Q 1906 3584 2284 3584 
Q 2666 3584 2933 3390 
Q 3200 3197 3328 2828 
z
" id="DejaVuSans-6d" transform="scale(0.015625)"/>
       <path d="M 3513 2113 
L 3513 0 
L 2938 0 
L 2938 2094 
Q 2938 2591 2744 2837 
Q 2550 3084 2163 3084 
Q 1697 3084 1428 2787 
Q 1159 2491 1159 1978 
L 1159 0 
L 581 0 
L 581 3500 
L 1159 3500 
L 1159 2956 
Q 1366 3272 1645 3428 
Q 1925 3584 2291 3584 
Q 2894 3584 3203 3211 
Q 3513 2838 3513 2113 
z
" id="DejaVuSans-6e" transform="scale(0.015625)"/>
       <path d="M 513 4856 
L 1013 4856 
Q 1481 4119 1714 3412 
Q 1947 2706 1947 2009 
Q 1947 1309 1714 600 
Q 1481 -109 1013 -844 
L 513 -844 
Q 928 -128 1133 580 
Q 1338 1288 1338 2009 
Q 1338 2731 1133 3434 
Q 928 4138 513 4856 
z
" id="DejaVuSans-29" transform="scale(0.015625)"/>
      </defs>
      <use xlink:href="#DejaVuSans-6c"/>
      <use x="27.783203" xlink:href="#DejaVuSans-6f"/>
      <use x="88.964844" xlink:href="#DejaVuSans-67"/>
      <use x="152.441406" xlink:href="#DejaVuSans-31"/>
      <use x="216.064453" xlink:href="#DejaVuSans-30"/>
      <use x="279.6875" xlink:href="#DejaVuSans-28"/>
      <use x="318.701172" xlink:href="#DejaVuSans-23"/>
      <use x="402.490234" xlink:href="#DejaVuSans-20"/>
      <use x="434.277344" xlink:href="#DejaVuSans-66"/>
      <use x="463.982422" xlink:href="#DejaVuSans-2d"/>
      <use x="500.066406" xlink:href="#DejaVuSans-65"/>
      <use x="561.589844" xlink:href="#DejaVuSans-76"/>
      <use x="620.769531" xlink:href="#DejaVuSans-61"/>
      <use x="682.048828" xlink:href="#DejaVuSans-6c"/>
      <use x="709.832031" xlink:href="#DejaVuSans-73"/>
      <use x="761.931641" xlink:href="#DejaVuSans-20"/>
      <use x="793.71875" xlink:href="#DejaVuSans-2f"/>
      <use x="827.410156" xlink:href="#DejaVuSans-20"/>
      <use x="859.197266" xlink:href="#DejaVuSans-64"/>
      <use x="922.673828" xlink:href="#DejaVuSans-69"/>
      <use x="950.457031" xlink:href="#DejaVuSans-6d"/>
      <use x="1047.869141" xlink:href="#DejaVuSans-65"/>
      <use x="1109.392578" xlink:href="#DejaVuSans-6e"/>
      <use x="1172.771484" xlink:href="#DejaVuSans-73"/>
      <use x="1224.871094" xlink:href="#DejaVuSans-69"/>
      <use x="1252.654297" xlink:href="#DejaVuSans-6f"/>
      <use x="1313.835938" xlink:href="#DejaVuSans-6e"/>
      <use x="1377.214844" xlink:href="#DejaVuSans-29"/>
     </g>
    </g>
   </g>
   <g id="matplotlib.axis_2">
    <g id="ytick_1">
     <g id="line2d_17">
      <path clip-path="url(#pdc986c7dc0)" d="M 57.6 298.944 
L 338.688 298.944 
" style="fill:none;stroke:#b0b0b0;stroke-linecap:square;stroke-width:0.8;"/>
     </g>
     <g id="line2d_18">
      <defs>
       <path d="M 0 0 
L -3.5 0 
" id="m1520f2b57d" style="stroke:#000000;stroke-width:0.8;"/>
      </defs>
      <g>
       <use style="stroke:#000000;stroke-width:0.8;" x="57.6" xlink:href="#m1520f2b57d" y="298.944"/>
      </g>
     </g>
     <g id="text_6">
      <!-- 0.0 -->
      <g transform="translate(25.155 305.02275)scale(0.16 -0.16)">
       <defs>
        <path d="M 684 794 
L 1344 794 
L 1344 0 
L 684 0 
L 684 794 
z
" id="DejaVuSans-2e" transform="scale(0.015625)"/>
       </defs>
       <use xlink:href="#DejaVuSans-30"/>
       <use x="63.623047" xlink:href="#DejaVuSans-2e"/>
       <use x="95.410156" xlink:href="#DejaVuSans-30"/>
      </g>
     </g>
    </g>
    <g id="ytick_2">
     <g id="line2d_19">
      <path clip-path="url(#pdc986c7dc0)" d="M 57.6 240.431525 
L 338.688 240.431525 
" style="fill:none;stroke:#b0b0b0;stroke-linecap:square;stroke-width:0.8;"/>
     </g>
     <g id="line2d_20">
      <g>
       <use style="stroke:#000000;stroke-width:0.8;" x="57.6" xlink:href="#m1520f2b57d" y="240.431525"/>
      </g>
     </g>
     <g id="text_7">
      <!-- 0.2 -->
      <g transform="translate(25.155 246.510275)scale(0.16 -0.16)">
       <use xlink:href="#DejaVuSans-30"/>
       <use x="63.623047" xlink:href="#DejaVuSans-2e"/>
       <use x="95.410156" xlink:href="#DejaVuSans-32"/>
      </g>
     </g>
    </g>
    <g id="ytick_3">
     <g id="line2d_21">
      <path clip-path="url(#pdc986c7dc0)" d="M 57.6 181.91905 
L 338.688 181.91905 
" style="fill:none;stroke:#b0b0b0;stroke-linecap:square;stroke-width:0.8;"/>
     </g>
     <g id="line2d_22">
      <g>
       <use style="stroke:#000000;stroke-width:0.8;" x="57.6" xlink:href="#m1520f2b57d" y="181.91905"/>
      </g>
     </g>
     <g id="text_8">
      <!-- 0.4 -->
      <g transform="translate(25.155 187.9978)scale(0.16 -0.16)">
       <use xlink:href="#DejaVuSans-30"/>
       <use x="63.623047" xlink:href="#DejaVuSans-2e"/>
       <use x="95.410156" xlink:href="#DejaVuSans-34"/>
      </g>
     </g>
    </g>
    <g id="ytick_4">
     <g id="line2d_23">
      <path clip-path="url(#pdc986c7dc0)" d="M 57.6 123.406574 
L 338.688 123.406574 
" style="fill:none;stroke:#b0b0b0;stroke-linecap:square;stroke-width:0.8;"/>
     </g>
     <g id="line2d_24">
      <g>
       <use style="stroke:#000000;stroke-width:0.8;" x="57.6" xlink:href="#m1520f2b57d" y="123.406574"/>
      </g>
     </g>
     <g id="text_9">
      <!-- 0.6 -->
      <g transform="translate(25.155 129.485324)scale(0.16 -0.16)">
       <use xlink:href="#DejaVuSans-30"/>
       <use x="63.623047" xlink:href="#DejaVuSans-2e"/>
       <use x="95.410156" xlink:href="#DejaVuSans-36"/>
      </g>
     </g>
    </g>
    <g id="ytick_5">
     <g id="line2d_25">
      <path clip-path="url(#pdc986c7dc0)" d="M 57.6 64.894099 
L 338.688 64.894099 
" style="fill:none;stroke:#b0b0b0;stroke-linecap:square;stroke-width:0.8;"/>
     </g>
     <g id="line2d_26">
      <g>
       <use style="stroke:#000000;stroke-width:0.8;" x="57.6" xlink:href="#m1520f2b57d" y="64.894099"/>
      </g>
     </g>
     <g id="text_10">
      <!-- 0.8 -->
      <g transform="translate(25.155 70.972849)scale(0.16 -0.16)">
       <defs>
        <path d="M 2034 2216 
Q 1584 2216 1326 1975 
Q 1069 1734 1069 1313 
Q 1069 891 1326 650 
Q 1584 409 2034 409 
Q 2484 409 2743 651 
Q 3003 894 3003 1313 
Q 3003 1734 2745 1975 
Q 2488 2216 2034 2216 
z
M 1403 2484 
Q 997 2584 770 2862 
Q 544 3141 544 3541 
Q 544 4100 942 4425 
Q 1341 4750 2034 4750 
Q 2731 4750 3128 4425 
Q 3525 4100 3525 3541 
Q 3525 3141 3298 2862 
Q 3072 2584 2669 2484 
Q 3125 2378 3379 2068 
Q 3634 1759 3634 1313 
Q 3634 634 3220 271 
Q 2806 -91 2034 -91 
Q 1263 -91 848 271 
Q 434 634 434 1313 
Q 434 1759 690 2068 
Q 947 2378 1403 2484 
z
M 1172 3481 
Q 1172 3119 1398 2916 
Q 1625 2713 2034 2713 
Q 2441 2713 2670 2916 
Q 2900 3119 2900 3481 
Q 2900 3844 2670 4047 
Q 2441 4250 2034 4250 
Q 1625 4250 1398 4047 
Q 1172 3844 1172 3481 
z
" id="DejaVuSans-38" transform="scale(0.015625)"/>
       </defs>
       <use xlink:href="#DejaVuSans-30"/>
       <use x="63.623047" xlink:href="#DejaVuSans-2e"/>
       <use x="95.410156" xlink:href="#DejaVuSans-38"/>
      </g>
     </g>
    </g>
    <g id="ytick_6">
     <g id="line2d_27">
      <path clip-path="url(#pdc986c7dc0)" d="M 57.6 6.381624 
L 338.688 6.381624 
" style="fill:none;stroke:#b0b0b0;stroke-linecap:square;stroke-width:0.8;"/>
     </g>
     <g id="line2d_28">
      <g>
       <use style="stroke:#000000;stroke-width:0.8;" x="57.6" xlink:href="#m1520f2b57d" y="6.381624"/>
      </g>
     </g>
     <g id="text_11">
      <!-- 1.0 -->
      <g transform="translate(25.155 12.460374)scale(0.16 -0.16)">
       <use xlink:href="#DejaVuSans-31"/>
       <use x="63.623047" xlink:href="#DejaVuSans-2e"/>
       <use x="95.410156" xlink:href="#DejaVuSans-30"/>
      </g>
     </g>
    </g>
    <g id="text_12">
     <!-- Fraction of function,target pairs -->
     <g transform="translate(17.619531 285.585)rotate(-90)scale(0.17 -0.17)">
      <defs>
       <path d="M 628 4666 
L 3309 4666 
L 3309 4134 
L 1259 4134 
L 1259 2759 
L 3109 2759 
L 3109 2228 
L 1259 2228 
L 1259 0 
L 628 0 
L 628 4666 
z
" id="DejaVuSans-46" transform="scale(0.015625)"/>
       <path d="M 2631 2963 
Q 2534 3019 2420 3045 
Q 2306 3072 2169 3072 
Q 1681 3072 1420 2755 
Q 1159 2438 1159 1844 
L 1159 0 
L 581 0 
L 581 3500 
L 1159 3500 
L 1159 2956 
Q 1341 3275 1631 3429 
Q 1922 3584 2338 3584 
Q 2397 3584 2469 3576 
Q 2541 3569 2628 3553 
L 2631 2963 
z
" id="DejaVuSans-72" transform="scale(0.015625)"/>
       <path d="M 3122 3366 
L 3122 2828 
Q 2878 2963 2633 3030 
Q 2388 3097 2138 3097 
Q 1578 3097 1268 2742 
Q 959 2388 959 1747 
Q 959 1106 1268 751 
Q 1578 397 2138 397 
Q 2388 397 2633 464 
Q 2878 531 3122 666 
L 3122 134 
Q 2881 22 2623 -34 
Q 2366 -91 2075 -91 
Q 1284 -91 818 406 
Q 353 903 353 1747 
Q 353 2603 823 3093 
Q 1294 3584 2113 3584 
Q 2378 3584 2631 3529 
Q 2884 3475 3122 3366 
z
" id="DejaVuSans-63" transform="scale(0.015625)"/>
       <path d="M 1172 4494 
L 1172 3500 
L 2356 3500 
L 2356 3053 
L 1172 3053 
L 1172 1153 
Q 1172 725 1289 603 
Q 1406 481 1766 481 
L 2356 481 
L 2356 0 
L 1766 0 
Q 1100 0 847 248 
Q 594 497 594 1153 
L 594 3053 
L 172 3053 
L 172 3500 
L 594 3500 
L 594 4494 
L 1172 4494 
z
" id="DejaVuSans-74" transform="scale(0.015625)"/>
       <path d="M 544 1381 
L 544 3500 
L 1119 3500 
L 1119 1403 
Q 1119 906 1312 657 
Q 1506 409 1894 409 
Q 2359 409 2629 706 
Q 2900 1003 2900 1516 
L 2900 3500 
L 3475 3500 
L 3475 0 
L 2900 0 
L 2900 538 
Q 2691 219 2414 64 
Q 2138 -91 1772 -91 
Q 1169 -91 856 284 
Q 544 659 544 1381 
z
M 1991 3584 
L 1991 3584 
z
" id="DejaVuSans-75" transform="scale(0.015625)"/>
       <path d="M 750 794 
L 1409 794 
L 1409 256 
L 897 -744 
L 494 -744 
L 750 256 
L 750 794 
z
" id="DejaVuSans-2c" transform="scale(0.015625)"/>
       <path d="M 1159 525 
L 1159 -1331 
L 581 -1331 
L 581 3500 
L 1159 3500 
L 1159 2969 
Q 1341 3281 1617 3432 
Q 1894 3584 2278 3584 
Q 2916 3584 3314 3078 
Q 3713 2572 3713 1747 
Q 3713 922 3314 415 
Q 2916 -91 2278 -91 
Q 1894 -91 1617 61 
Q 1341 213 1159 525 
z
M 3116 1747 
Q 3116 2381 2855 2742 
Q 2594 3103 2138 3103 
Q 1681 3103 1420 2742 
Q 1159 2381 1159 1747 
Q 1159 1113 1420 752 
Q 1681 391 2138 391 
Q 2594 391 2855 752 
Q 3116 1113 3116 1747 
z
" id="DejaVuSans-70" transform="scale(0.015625)"/>
      </defs>
      <use xlink:href="#DejaVuSans-46"/>
      <use x="50.269531" xlink:href="#DejaVuSans-72"/>
      <use x="91.382812" xlink:href="#DejaVuSans-61"/>
      <use x="152.662109" xlink:href="#DejaVuSans-63"/>
      <use x="207.642578" xlink:href="#DejaVuSans-74"/>
      <use x="246.851562" xlink:href="#DejaVuSans-69"/>
      <use x="274.634766" xlink:href="#DejaVuSans-6f"/>
      <use x="335.816406" xlink:href="#DejaVuSans-6e"/>
      <use x="399.195312" xlink:href="#DejaVuSans-20"/>
      <use x="430.982422" xlink:href="#DejaVuSans-6f"/>
      <use x="492.164062" xlink:href="#DejaVuSans-66"/>
      <use x="527.369141" xlink:href="#DejaVuSans-20"/>
      <use x="559.15625" xlink:href="#DejaVuSans-66"/>
      <use x="594.361328" xlink:href="#DejaVuSans-75"/>
      <use x="657.740234" xlink:href="#DejaVuSans-6e"/>
      <use x="721.119141" xlink:href="#DejaVuSans-63"/>
      <use x="776.099609" xlink:href="#DejaVuSans-74"/>
      <use x="815.308594" xlink:href="#DejaVuSans-69"/>
      <use x="843.091797" xlink:href="#DejaVuSans-6f"/>
      <use x="904.273438" xlink:href="#DejaVuSans-6e"/>
      <use x="967.652344" xlink:href="#DejaVuSans-2c"/>
      <use x="999.439453" xlink:href="#DejaVuSans-74"/>
      <use x="1038.648438" xlink:href="#DejaVuSans-61"/>
      <use x="1099.927734" xlink:href="#DejaVuSans-72"/>
      <use x="1139.291016" xlink:href="#DejaVuSans-67"/>
      <use x="1202.767578" xlink:href="#DejaVuSans-65"/>
      <use x="1264.291016" xlink:href="#DejaVuSans-74"/>
      <use x="1303.5" xlink:href="#DejaVuSans-20"/>
      <use x="1335.287109" xlink:href="#DejaVuSans-70"/>
      <use x="1398.763672" xlink:href="#DejaVuSans-61"/>
      <use x="1460.042969" xlink:href="#DejaVuSans-69"/>
      <use x="1487.826172" xlink:href="#DejaVuSans-72"/>
      <use x="1528.939453" xlink:href="#DejaVuSans-73"/>
     </g>
    </g>
   </g>
   <g id="line2d_29">
    <defs>
     <path d="M 0 1.5 
C 0.397805 1.5 0.77937 1.341951 1.06066 1.06066 
C 1.341951 0.77937 1.5 0.397805 1.5 0 
C 1.5 -0.397805 1.341951 -0.77937 1.06066 -1.06066 
C 0.77937 -1.341951 0.397805 -1.5 0 -1.5 
C -0.397805 -1.5 -0.77937 -1.341951 -1.06066 -1.06066 
C -1.341951 -0.77937 -1.5 -0.397805 -1.5 0 
C -1.5 0.397805 -1.341951 0.77937 -1.06066 1.06066 
C -0.77937 1.341951 -0.397805 1.5 0 1.5 
z
" id="m9190f905b2" style="stroke:#000080;"/>
    </defs>
    <g>
     <use style="fill:#000080;stroke:#000080;" x="218.108574" xlink:href="#m9190f905b2" y="6.381624"/>
     <use style="fill:#000080;stroke:#000080;" x="218.108574" xlink:href="#m9190f905b2" y="6.381624"/>
    </g>
   </g>
   <g id="line2d_30">
    <path d="M 38.440992 298.944 
L 38.440992 297.796697 
L 50.52898 297.796697 
L 50.52898 297.223045 
L 57.6 297.223045 
L 57.6 295.50209 
L 62.616969 295.50209 
L 62.616969 293.207483 
L 69.687988 293.207483 
L 69.687988 292.633831 
L 72.376266 292.633831 
L 72.376266 291.486528 
L 74.704957 291.486528 
L 74.704957 290.339224 
L 85.66744 290.339224 
L 85.66744 289.191921 
L 87.850195 289.191921 
L 87.850195 288.044617 
L 93.121756 288.044617 
L 93.121756 287.470966 
L 93.863965 287.470966 
L 93.863965 286.897314 
L 95.259853 286.897314 
L 95.259853 286.323662 
L 95.918017 286.323662 
L 95.918017 285.75001 
L 98.880934 285.75001 
L 98.880934 285.176359 
L 105.584798 285.176359 
L 105.584798 284.602707 
L 106.66386 284.602707 
L 106.66386 284.029055 
L 108.006005 284.029055 
L 108.006005 283.455404 
L 110.131676 283.455404 
L 110.131676 282.881752 
L 111.505558 282.881752 
L 111.505558 281.734448 
L 119.097192 281.734448 
L 119.097192 281.160797 
L 119.43583 281.160797 
L 119.43583 279.439842 
L 119.768017 279.439842 
L 119.768017 278.292538 
L 121.189196 278.292538 
L 121.189196 277.718886 
L 122.076131 277.718886 
L 122.076131 277.145235 
L 126.50685 277.145235 
L 126.50685 276.571583 
L 127.378995 276.571583 
L 127.378995 274.850628 
L 130.036864 274.850628 
L 130.036864 274.276976 
L 131.099484 274.276976 
L 131.099484 273.703324 
L 131.355321 273.703324 
L 131.355321 273.129673 
L 131.523818 273.129673 
L 131.60746 271.982369 
L 132.181982 271.982369 
L 132.181982 271.408718 
L 132.422528 271.408718 
L 132.422528 270.835066 
L 134.236034 270.835066 
L 134.236034 270.261414 
L 134.7313 270.261414 
L 134.7313 269.687762 
L 135.615352 269.687762 
L 135.615352 267.966807 
L 138.084384 267.966807 
L 138.084384 267.393156 
L 138.981779 267.393156 
L 138.981779 266.819504 
L 140.246813 266.819504 
L 140.246813 266.245852 
L 140.944478 266.245852 
L 141.041904 265.098549 
L 142.575505 265.098549 
L 142.575505 264.524897 
L 143.861538 264.524897 
L 143.861538 263.377593 
L 144.107744 263.377593 
L 144.189046 259.935683 
L 145.961446 259.935683 
L 145.961446 259.362031 
L 148.354135 259.362031 
L 148.354135 258.78838 
L 148.733265 258.78838 
L 148.733265 257.067425 
L 149.226281 257.067425 
L 149.226281 255.346469 
L 149.616841 255.346469 
L 149.616841 254.772818 
L 150.626842 254.772818 
L 150.626842 254.199166 
L 152.835965 254.199166 
L 152.835965 253.625514 
L 153.49047 253.625514 
L 153.49047 253.051863 
L 155.531298 253.051863 
L 155.531298 252.478211 
L 155.783437 252.478211 
L 155.783437 251.330907 
L 156.031982 251.330907 
L 156.031982 250.757256 
L 157.089232 250.757256 
L 157.089232 250.183604 
L 157.528821 250.183604 
L 157.528821 249.609952 
L 157.939176 249.609952 
L 157.939176 249.036301 
L 159.89051 249.036301 
L 159.89051 248.462649 
L 161.495615 248.462649 
L 161.495615 246.168042 
L 161.79373 246.168042 
L 161.79373 245.020738 
L 162.260361 245.020738 
L 162.260361 243.299783 
L 162.559939 243.299783 
L 162.559939 242.726132 
L 164.205356 242.726132 
L 164.243924 241.005176 
L 164.47356 241.005176 
L 164.47356 240.431525 
L 164.76265 240.431525 
L 164.824867 238.136918 
L 164.874481 238.136918 
L 164.874481 237.563266 
L 165.010195 237.563266 
L 165.010195 236.989614 
L 165.55465 236.989614 
L 165.55465 235.842311 
L 165.826498 235.842311 
L 165.826498 233.547704 
L 166.209284 233.547704 
L 166.209284 232.974052 
L 166.357802 232.974052 
L 166.357802 232.400401 
L 166.740356 232.400401 
L 166.740356 231.826749 
L 166.950537 231.826749 
L 166.950537 231.253097 
L 167.417059 231.253097 
L 167.438457 229.532142 
L 167.860992 229.532142 
L 167.860992 227.237535 
L 168.191801 227.237535 
L 168.191801 224.942928 
L 168.395414 224.942928 
L 168.445948 222.07467 
L 168.616676 222.07467 
L 168.616676 220.927366 
L 168.894283 220.927366 
L 168.894283 219.780063 
L 169.196565 219.780063 
L 169.302579 218.632759 
L 169.3984 218.632759 
L 169.3984 217.485456 
L 169.512694 217.485456 
L 169.512694 216.911804 
L 169.962523 216.911804 
L 169.962523 214.043546 
L 170.128262 214.043546 
L 170.18316 212.896242 
L 170.669617 212.896242 
L 170.687376 211.748939 
L 170.916612 211.748939 
L 171.003983 210.027984 
L 171.03881 210.027984 
L 171.108254 207.733377 
L 171.220515 207.733377 
L 171.254912 203.717815 
L 171.519214 203.717815 
L 171.595202 202.570511 
L 171.978498 202.570511 
L 171.978498 201.423208 
L 172.101686 201.423208 
L 172.101686 199.702253 
L 172.215882 199.702253 
L 172.215882 199.128601 
L 172.361615 199.128601 
L 172.361615 196.833994 
L 172.673253 196.833994 
L 172.768032 189.950174 
L 172.83878 189.950174 
L 172.932666 188.229218 
L 173.341388 188.229218 
L 173.447772 183.066353 
L 173.51582 183.066353 
L 173.613646 180.198094 
L 173.643636 180.198094 
L 173.748197 176.182532 
L 173.770522 176.182532 
L 173.844732 173.314274 
L 174.160284 173.314274 
L 174.196608 172.16697 
L 174.283479 172.16697 
L 174.377103 164.709498 
L 174.505913 164.709498 
L 174.527289 163.562195 
L 174.640854 163.562195 
L 174.711458 161.841239 
L 174.893703 161.841239 
L 174.893703 161.267588 
L 175.039523 161.267588 
L 175.115421 159.546632 
L 175.204695 159.546632 
L 175.225232 156.678374 
L 175.429282 156.678374 
L 175.429282 156.104722 
L 175.58412 156.104722 
L 175.651014 150.941857 
L 175.711 150.941857 
L 175.817135 149.794553 
L 175.830357 149.794553 
L 175.916053 146.352643 
L 176.027487 146.352643 
L 176.027487 145.778991 
L 176.24824 145.778991 
L 176.30621 142.337081 
L 176.434347 142.337081 
L 176.498063 140.616126 
L 176.624803 140.616126 
L 176.624803 140.042474 
L 176.763161 140.042474 
L 176.763161 139.468822 
L 176.875552 139.468822 
L 176.962469 134.879609 
L 177.011942 134.879609 
L 177.011942 133.732305 
L 177.396715 133.732305 
L 177.493098 132.585002 
L 177.511111 132.585002 
L 177.594925 127.995788 
L 177.624761 127.995788 
L 177.624761 127.422136 
L 177.767269 127.422136 
L 177.861631 123.406574 
L 177.932069 123.406574 
L 177.932069 122.832923 
L 178.072098 122.832923 
L 178.095327 119.391012 
L 178.262819 119.391012 
L 178.320204 117.670057 
L 178.417327 117.670057 
L 178.434411 114.801798 
L 178.55918 114.801798 
L 178.654985 108.49163 
L 178.778192 108.49163 
L 178.833909 107.344326 
L 178.911614 107.344326 
L 178.911614 106.197023 
L 179.104376 106.197023 
L 179.104376 105.623371 
L 179.251636 105.623371 
L 179.27877 102.755112 
L 179.537135 102.755112 
L 179.643667 100.460506 
L 179.6808 100.460506 
L 179.6808 98.73955 
L 179.812776 98.73955 
L 179.854799 97.018595 
L 180.161626 97.018595 
L 180.254169 93.576685 
L 180.330916 93.576685 
L 180.432721 91.282078 
L 180.468214 91.282078 
L 180.544026 89.561123 
L 180.699667 89.561123 
L 180.789406 86.692864 
L 180.858886 86.692864 
L 180.923155 85.545561 
L 181.361719 85.545561 
L 181.361719 84.971909 
L 181.495941 84.971909 
L 181.495941 83.824606 
L 181.718947 83.824606 
L 181.742504 82.677302 
L 181.859814 82.677302 
L 181.878511 81.529999 
L 182.041257 81.529999 
L 182.115152 80.382695 
L 182.26658 80.382695 
L 182.348626 78.088089 
L 182.502556 78.088089 
L 182.502556 76.367133 
L 183.113746 76.367133 
L 183.187577 74.646178 
L 183.31711 74.646178 
L 183.31711 74.072526 
L 183.445687 74.072526 
L 183.445687 73.498875 
L 183.963161 73.498875 
L 184.016967 71.77792 
L 184.38903 71.77792 
L 184.38903 71.204268 
L 184.574128 71.204268 
L 184.574128 69.483313 
L 184.89929 69.483313 
L 184.89929 67.762358 
L 185.929017 67.762358 
L 185.929017 67.188706 
L 190.453965 67.188706 
L 190.453965 66.615054 
L 191.35591 66.615054 
L 191.35591 66.041402 
L 191.776735 66.041402 
L 191.84018 64.320447 
L 192.055223 64.320447 
L 192.055223 63.746796 
L 192.347285 63.746796 
L 192.347285 63.173144 
L 192.490231 63.173144 
L 192.599203 62.02584 
L 192.662247 62.02584 
L 192.662247 61.452189 
L 192.902241 61.452189 
L 192.951826 59.731234 
L 193.136527 59.731234 
L 193.15856 58.58393 
L 193.396693 58.58393 
L 193.502561 57.436627 
L 193.65779 57.436627 
L 193.698161 55.715672 
L 193.790427 55.715672 
L 193.872815 53.994716 
L 194.036434 53.994716 
L 194.117671 51.700109 
L 194.242271 51.700109 
L 194.352284 49.405503 
L 194.425242 49.405503 
L 194.53411 46.537244 
L 194.628816 46.537244 
L 194.736424 44.816289 
L 194.798891 44.816289 
L 194.798891 44.242637 
L 194.916522 44.242637 
L 194.965118 43.095334 
L 195.02897 43.095334 
L 195.092589 41.94803 
L 195.162521 41.94803 
L 195.269064 39.653423 
L 195.409399 39.653423 
L 195.493062 37.932468 
L 195.603991 37.932468 
L 195.612495 36.211513 
L 195.815353 36.211513 
L 195.922169 32.195951 
L 196.047004 32.195951 
L 196.154475 31.048648 
L 196.345048 31.048648 
L 196.434491 29.327692 
L 196.45678 29.327692 
L 196.561763 27.033086 
L 196.664117 27.033086 
L 196.755924 25.885782 
L 196.882857 25.885782 
L 196.947947 24.164827 
L 197.155397 24.164827 
L 197.155397 23.591175 
L 197.419912 23.591175 
L 197.419912 23.017524 
L 197.610486 23.017524 
L 197.610486 22.443872 
L 197.767096 22.443872 
L 197.767096 21.87022 
L 198.020709 21.87022 
L 198.020709 21.296568 
L 198.742387 21.296568 
L 198.742387 20.722917 
L 198.903282 20.722917 
L 198.903282 20.149265 
L 202.368241 20.149265 
L 202.430172 19.001962 
L 203.109729 19.001962 
L 203.109729 18.42831 
L 203.4344 18.42831 
L 203.4344 17.854658 
L 203.687714 17.854658 
L 203.687714 17.281006 
L 203.811677 17.281006 
L 203.811677 16.707355 
L 204.119739 16.707355 
L 204.223823 15.560051 
L 204.234197 15.560051 
L 204.234197 14.9864 
L 204.733866 14.9864 
L 204.806781 13.839096 
L 204.881891 13.839096 
L 204.881891 13.265444 
L 205.762413 13.265444 
L 205.762413 12.691793 
L 206.605133 12.691793 
L 206.605133 12.118141 
L 209.119408 12.118141 
L 209.15073 10.970838 
L 209.527052 10.970838 
L 209.527052 10.397186 
L 210.073487 10.397186 
L 210.167839 8.676231 
L 211.156797 8.676231 
L 211.156797 8.102579 
L 214.885901 8.102579 
L 214.885901 7.528927 
L 217.342487 7.528927 
L 217.342487 6.955275 
L 218.108574 6.955275 
L 218.108574 6.381624 
L 338.688 6.381624 
L 338.688 6.381624 
" style="fill:none;stroke:#000080;stroke-linecap:square;stroke-width:1.5;"/>
   </g>
   <g id="line2d_31">
    <defs>
     <path d="M 0 6 
C 1.591219 6 3.117479 5.367802 4.242641 4.242641 
C 5.367802 3.117479 6 1.591219 6 0 
C 6 -1.591219 5.367802 -3.117479 4.242641 -4.242641 
C 3.117479 -5.367802 1.591219 -6 0 -6 
C -1.591219 -6 -3.117479 -5.367802 -4.242641 -4.242641 
C -5.367802 -3.117479 -6 -1.591219 -6 0 
C -6 1.591219 -5.367802 3.117479 -4.242641 4.242641 
C -3.117479 5.367802 -1.591219 6 0 6 
z
" id="macb6f2b6a1" style="stroke:#000080;stroke-width:1.5;"/>
    </defs>
    <g>
     <use style="fill-opacity:0;stroke:#000080;stroke-width:1.5;" x="85.66744" xlink:href="#macb6f2b6a1" y="290.339224"/>
     <use style="fill-opacity:0;stroke:#000080;stroke-width:1.5;" x="167.860992" xlink:href="#macb6f2b6a1" y="229.532142"/>
     <use style="fill-opacity:0;stroke:#000080;stroke-width:1.5;" x="178.434411" xlink:href="#macb6f2b6a1" y="114.801798"/>
     <use style="fill-opacity:0;stroke:#000080;stroke-width:1.5;" x="205.762413" xlink:href="#macb6f2b6a1" y="13.265444"/>
     <use style="fill-opacity:0;stroke:#000080;stroke-width:1.5;" x="218.108574" xlink:href="#macb6f2b6a1" y="6.381624"/>
     <use style="fill-opacity:0;stroke:#000080;stroke-width:1.5;" x="338.688" xlink:href="#macb6f2b6a1" y="6.381624"/>
    </g>
   </g>
   <g id="line2d_32">
    <path style="fill:none;stroke:#000080;stroke-linecap:square;stroke-width:1.5;"/>
    <g/>
   </g>
   <g id="line2d_33">
    <path clip-path="url(#pdc986c7dc0)" d="M 187.658698 67.188706 
" style="fill:none;stroke:#000080;stroke-linecap:square;stroke-width:1.5;"/>
    <defs>
     <path d="M -12 12 
L 12 -12 
M -12 -12 
L 12 12 
" id="m980b9cf0a1" style="stroke:#000080;"/>
    </defs>
    <g clip-path="url(#pdc986c7dc0)">
     <use style="fill:#000080;stroke:#000080;" x="187.658698" xlink:href="#m980b9cf0a1" y="67.188706"/>
    </g>
   </g>
   <g id="line2d_34">
    <defs>
     <path d="M 0 1.5 
C 0.397805 1.5 0.77937 1.341951 1.06066 1.06066 
C 1.341951 0.77937 1.5 0.397805 1.5 0 
C 1.5 -0.397805 1.341951 -0.77937 1.06066 -1.06066 
C 0.77937 -1.341951 0.397805 -1.5 0 -1.5 
C -0.397805 -1.5 -0.77937 -1.341951 -1.06066 -1.06066 
C -1.341951 -0.77937 -1.5 -0.397805 -1.5 0 
C -1.5 0.397805 -1.341951 0.77937 -1.06066 1.06066 
C -0.77937 1.341951 -0.397805 1.5 0 1.5 
z
" id="mf6590c2594" style="stroke:#ff00ff;"/>
    </defs>
    <g>
     <use style="fill:#ff00ff;stroke:#ff00ff;" x="191.126514" xlink:href="#mf6590c2594" y="6.381624"/>
     <use style="fill:#ff00ff;stroke:#ff00ff;" x="191.126514" xlink:href="#mf6590c2594" y="6.381624"/>
    </g>
   </g>
   <g id="line2d_35">
    <path d="M 38.440992 298.944 
L 38.440992 292.060179 
L 50.52898 292.060179 
L 50.52898 285.75001 
L 57.6 285.75001 
L 57.6 283.455404 
L 62.616969 283.455404 
L 62.616969 281.734448 
L 66.508432 281.734448 
L 66.508432 281.160797 
L 69.687988 281.160797 
L 69.687988 276.571583 
L 72.376266 276.571583 
L 72.376266 274.276976 
L 74.704957 274.276976 
L 74.704957 273.129673 
L 78.59642 273.129673 
L 78.59642 271.982369 
L 81.775977 271.982369 
L 81.775977 270.835066 
L 83.171864 270.835066 
L 83.171864 270.261414 
L 84.464254 270.261414 
L 84.464254 269.687762 
L 88.846997 269.687762 
L 88.846997 269.114111 
L 89.78989 269.114111 
L 89.78989 268.540459 
L 90.684409 268.540459 
L 90.684409 267.966807 
L 94.575872 267.966807 
L 94.575872 267.393156 
L 95.259853 267.393156 
L 95.259853 266.245852 
L 96.552242 266.245852 
L 96.552242 263.951245 
L 97.755429 263.951245 
L 97.755429 263.377593 
L 98.880934 263.377593 
L 98.880934 262.803942 
L 99.938184 262.803942 
L 99.938184 262.23029 
L 104.033617 262.23029 
L 104.033617 261.656638 
L 111.505558 261.656638 
L 111.505558 261.082987 
L 116.121606 261.082987 
L 116.121606 260.509335 
L 116.914437 260.509335 
L 116.914437 259.935683 
L 117.107138 259.935683 
L 117.107138 259.362031 
L 120.41399 259.362031 
L 120.41399 258.78838 
L 130.036864 258.78838 
L 130.036864 258.214728 
L 130.487516 258.214728 
L 130.487516 257.641076 
L 130.664567 257.641076 
L 130.664567 255.346469 
L 131.355321 255.346469 
L 131.355321 253.625514 
L 131.938072 253.625514 
L 131.938072 253.051863 
L 133.201197 253.051863 
L 133.201197 251.904559 
L 134.307653 251.904559 
L 134.307653 251.330907 
L 137.37967 251.330907 
L 137.37967 249.036301 
L 142.971369 249.036301 
L 142.971369 247.888997 
L 143.778691 247.888997 
L 143.778691 245.59439 
L 143.943994 245.59439 
L 143.943994 243.299783 
L 147.603592 243.299783 
L 147.603592 241.578828 
L 149.347388 241.578828 
L 149.347388 241.005176 
L 150.05688 241.005176 
L 150.05688 239.857873 
L 151.205907 239.857873 
L 151.205907 236.415963 
L 151.871101 236.415963 
L 151.871101 235.842311 
L 152.130233 235.842311 
L 152.207228 233.547704 
L 153.347132 233.547704 
L 153.347132 232.400401 
L 154.641235 232.400401 
L 154.641235 231.826749 
L 155.488919 231.826749 
L 155.488919 231.253097 
L 155.970177 231.253097 
L 155.970177 230.679446 
L 159.0116 230.679446 
L 159.0116 230.105794 
L 160.680044 230.105794 
L 160.680044 229.532142 
L 162.854457 229.532142 
L 162.854457 228.95849 
L 163.482721 228.95849 
L 163.482721 228.384839 
L 163.669525 228.384839 
L 163.669525 227.237535 
L 163.801742 227.237535 
L 163.801742 226.663884 
L 164.308016 226.663884 
L 164.308016 226.090232 
L 164.886862 226.090232 
L 164.923954 224.942928 
L 165.059286 224.942928 
L 165.132663 223.221973 
L 165.254276 223.221973 
L 165.338904 219.206411 
L 165.732422 219.206411 
L 165.732422 218.059108 
L 166.07106 218.059108 
L 166.117256 216.338153 
L 166.550128 216.338153 
L 166.550128 215.190849 
L 167.103803 215.190849 
L 167.190782 211.175287 
L 167.470505 211.175287 
L 167.502494 208.88068 
L 167.619287 208.88068 
L 167.619287 206.586073 
L 167.76681 206.586073 
L 167.76681 206.012422 
L 168.324419 206.012422 
L 168.324419 205.43877 
L 168.435853 205.43877 
L 168.546579 204.291467 
L 168.656606 204.291467 
L 168.656606 203.144163 
L 169.206229 203.144163 
L 169.27373 201.423208 
L 169.616809 201.423208 
L 169.616809 200.275904 
L 169.851149 200.275904 
L 169.925477 196.260342 
L 170.091567 196.260342 
L 170.091567 195.686691 
L 170.28336 195.686691 
L 170.28336 194.539387 
L 170.464079 194.539387 
L 170.544796 192.818432 
L 171.090919 192.818432 
L 171.194673 189.950174 
L 171.332059 189.950174 
L 171.374771 187.081915 
L 171.679247 187.081915 
L 171.746192 185.934612 
L 171.862732 185.934612 
L 171.895887 182.492701 
L 172.06072 182.492701 
L 172.158878 180.771746 
L 172.272701 180.771746 
L 172.361615 175.608881 
L 172.409924 175.608881 
L 172.417962 173.887925 
L 172.63361 173.887925 
L 172.736497 171.019667 
L 172.783779 171.019667 
L 172.783779 170.446015 
L 173.00275 170.446015 
L 173.033809 167.004105 
L 173.440194 167.004105 
L 173.538444 165.28315 
L 173.636143 165.28315 
L 173.740749 158.399329 
L 173.896491 158.399329 
L 173.896491 157.825677 
L 174.028886 157.825677 
L 174.094709 154.383767 
L 174.218366 154.383767 
L 174.290699 149.794553 
L 174.384284 149.794553 
L 174.398638 148.073598 
L 174.66913 148.073598 
L 174.746654 146.352643 
L 174.872772 146.352643 
L 174.872772 145.778991 
L 175.046437 145.778991 
L 175.122305 141.763429 
L 175.388663 141.763429 
L 175.490035 140.616126 
L 175.564001 140.616126 
L 175.637655 137.747867 
L 175.697687 137.747867 
L 175.790662 136.600564 
L 175.863367 136.600564 
L 175.922628 132.01135 
L 176.177125 132.01135 
L 176.254691 128.56944 
L 176.319066 128.56944 
L 176.408795 127.422136 
L 176.459861 127.422136 
L 176.567884 123.980226 
L 176.631116 123.980226 
L 176.662646 119.964664 
L 176.806955 119.964664 
L 176.90043 116.522754 
L 176.94388 116.522754 
L 176.956275 114.801798 
L 177.208443 114.801798 
L 177.208443 114.228147 
L 177.576999 114.228147 
L 177.606866 111.93354 
L 177.690222 111.93354 
L 177.743598 109.638933 
L 177.937926 109.638933 
L 177.949635 104.476068 
L 178.072098 104.476068 
L 178.182162 98.73955 
L 178.187935 98.73955 
L 178.285796 95.871292 
L 178.314474 95.871292 
L 178.314474 95.29764 
L 178.440102 95.29764 
L 178.440102 94.150337 
L 178.553528 94.150337 
L 178.649364 92.429381 
L 178.794926 92.429381 
L 178.794926 91.85573 
L 179.005507 91.85573 
L 179.082454 90.708426 
L 179.235335 90.708426 
L 179.267922 86.119213 
L 179.397663 86.119213 
L 179.397663 84.971909 
L 179.733711 84.971909 
L 179.812776 78.66174 
L 179.89672 78.66174 
L 179.943762 75.793482 
L 180.305371 75.793482 
L 180.310483 72.351571 
L 180.769504 72.351571 
L 180.873738 71.204268 
L 180.898464 71.204268 
L 180.997019 68.909661 
L 181.046089 68.909661 
L 181.080356 67.188706 
L 181.352092 67.188706 
L 181.424165 62.599492 
L 181.733085 62.599492 
L 181.794218 60.878537 
L 181.906518 60.878537 
L 182.013465 58.010278 
L 182.26658 58.010278 
L 182.32132 56.289323 
L 182.601439 56.289323 
L 182.695307 54.568368 
L 182.717582 54.568368 
L 182.717582 53.994716 
L 182.907984 53.994716 
L 182.907984 52.847413 
L 183.157214 52.847413 
L 183.261097 51.126458 
L 183.269726 51.126458 
L 183.269726 48.831851 
L 183.624117 48.831851 
L 183.624117 47.684547 
L 183.825827 47.684547 
L 183.825827 47.110896 
L 183.950721 47.110896 
L 184.012834 44.816289 
L 184.226462 44.816289 
L 184.226462 44.242637 
L 184.457665 44.242637 
L 184.542078 37.932468 
L 184.757282 37.932468 
L 184.761242 36.211513 
L 184.977686 36.211513 
L 184.977686 35.637861 
L 185.299317 35.637861 
L 185.299317 35.06421 
L 185.584933 35.06421 
L 185.611353 33.343255 
L 185.988171 33.343255 
L 185.988171 32.195951 
L 186.251908 32.195951 
L 186.266444 28.754041 
L 186.400328 28.754041 
L 186.400328 27.606737 
L 186.629513 27.606737 
L 186.728842 24.164827 
L 186.915323 24.164827 
L 186.915323 23.591175 
L 187.179296 23.591175 
L 187.289259 20.722917 
L 187.507125 20.722917 
L 187.507125 20.149265 
L 187.779016 20.149265 
L 187.779016 19.001962 
L 188.32332 19.001962 
L 188.32332 18.42831 
L 188.684355 18.42831 
L 188.684355 17.281006 
L 188.982202 17.281006 
L 189.022567 15.560051 
L 189.299485 15.560051 
L 189.372593 14.412748 
L 189.647043 14.412748 
L 189.697838 12.118141 
L 190.186217 12.118141 
L 190.186217 11.544489 
L 190.425372 11.544489 
L 190.533779 10.397186 
L 190.644343 10.397186 
L 190.644343 7.528927 
L 191.126514 7.528927 
L 191.126514 6.381624 
L 338.688 6.381624 
L 338.688 6.381624 
" style="fill:none;stroke:#ff00ff;stroke-linecap:square;stroke-width:1.5;"/>
   </g>
   <g id="line2d_36">
    <defs>
     <path d="M -0 8.485281 
L 5.091169 0 
L 0 -8.485281 
L -5.091169 -0 
z
" id="mf6244f6258" style="stroke:#ff00ff;stroke-linejoin:miter;stroke-width:1.5;"/>
    </defs>
    <g>
     <use style="fill-opacity:0;stroke:#ff00ff;stroke-linejoin:miter;stroke-width:1.5;" x="72.376266" xlink:href="#mf6244f6258" y="274.276976"/>
     <use style="fill-opacity:0;stroke:#ff00ff;stroke-linejoin:miter;stroke-width:1.5;" x="165.254276" xlink:href="#mf6244f6258" y="223.221973"/>
     <use style="fill-opacity:0;stroke:#ff00ff;stroke-linejoin:miter;stroke-width:1.5;" x="179.744273" xlink:href="#mf6244f6258" y="83.250954"/>
     <use style="fill-opacity:0;stroke:#ff00ff;stroke-linejoin:miter;stroke-width:1.5;" x="191.126514" xlink:href="#mf6244f6258" y="6.381624"/>
     <use style="fill-opacity:0;stroke:#ff00ff;stroke-linejoin:miter;stroke-width:1.5;" x="191.126514" xlink:href="#mf6244f6258" y="6.381624"/>
     <use style="fill-opacity:0;stroke:#ff00ff;stroke-linejoin:miter;stroke-width:1.5;" x="338.688" xlink:href="#mf6244f6258" y="6.381624"/>
    </g>
   </g>
   <g id="line2d_37">
    <path style="fill:none;stroke:#ff00ff;stroke-linecap:square;stroke-width:1.5;"/>
    <g/>
   </g>
   <g id="line2d_38">
    <defs>
     <path d="M 0 1.5 
C 0.397805 1.5 0.77937 1.341951 1.06066 1.06066 
C 1.341951 0.77937 1.5 0.397805 1.5 0 
C 1.5 -0.397805 1.341951 -0.77937 1.06066 -1.06066 
C 0.77937 -1.341951 0.397805 -1.5 0 -1.5 
C -0.397805 -1.5 -0.77937 -1.341951 -1.06066 -1.06066 
C -1.341951 -0.77937 -1.5 -0.397805 -1.5 0 
C -1.5 0.397805 -1.341951 0.77937 -1.06066 1.06066 
C -0.77937 1.341951 -0.397805 1.5 0 1.5 
z
" id="m3ec596d456" style="stroke:#ff7500;"/>
    </defs>
    <g>
     <use style="fill:#ff7500;stroke:#ff7500;" x="185.810104" xlink:href="#m3ec596d456" y="6.381624"/>
     <use style="fill:#ff7500;stroke:#ff7500;" x="185.810104" xlink:href="#m3ec596d456" y="6.381624"/>
    </g>
   </g>
   <g id="line2d_39">
    <path d="M 38.440992 298.944 
L 38.440992 273.129673 
L 50.52898 273.129673 
L 50.52898 270.835066 
L 57.6 270.835066 
L 57.6 269.687762 
L 62.616969 269.687762 
L 62.616969 266.819504 
L 66.508432 266.819504 
L 66.508432 264.524897 
L 69.687988 264.524897 
L 69.687988 263.377593 
L 72.376266 263.377593 
L 72.376266 262.23029 
L 80.258561 262.23029 
L 80.258561 260.509335 
L 83.171864 260.509335 
L 83.171864 259.935683 
L 84.464254 259.935683 
L 84.464254 259.362031 
L 85.66744 259.362031 
L 85.66744 257.641076 
L 89.78989 257.641076 
L 89.78989 255.920121 
L 107.009204 255.920121 
L 107.009204 254.772818 
L 109.843417 254.772818 
L 109.843417 254.199166 
L 111.239304 254.199166 
L 111.239304 253.625514 
L 111.505558 253.625514 
L 111.505558 252.478211 
L 116.914437 252.478211 
L 116.914437 251.904559 
L 117.297733 251.904559 
L 117.297733 251.330907 
L 118.220662 251.330907 
L 118.220662 250.757256 
L 118.399528 250.757256 
L 118.399528 250.183604 
L 121.340187 250.183604 
L 121.340187 249.609952 
L 121.489881 249.609952 
L 121.489881 248.462649 
L 122.643312 248.462649 
L 122.643312 247.888997 
L 123.725164 247.888997 
L 123.725164 247.315345 
L 123.855796 247.315345 
L 123.855796 246.741694 
L 123.985457 246.741694 
L 123.985457 246.168042 
L 126.168212 246.168042 
L 126.168212 245.59439 
L 126.618283 245.59439 
L 126.729009 244.447087 
L 129.099042 244.447087 
L 129.099042 243.873435 
L 132.019755 243.873435 
L 132.019755 243.299783 
L 134.091907 243.299783 
L 134.091907 242.726132 
L 134.37898 242.726132 
L 134.37898 242.15248 
L 135.212889 242.15248 
L 135.212889 241.005176 
L 135.813153 241.005176 
L 135.813153 240.431525 
L 136.266147 240.431525 
L 136.266147 239.857873 
L 136.519813 239.857873 
L 136.519813 239.284221 
L 137.735587 239.284221 
L 137.735587 238.71057 
L 138.650644 238.71057 
L 138.761723 236.415963 
L 138.872098 236.415963 
L 138.872098 235.268659 
L 139.036363 235.268659 
L 139.036363 234.695008 
L 140.993259 234.695008 
L 140.993259 232.974052 
L 141.138789 232.974052 
L 141.138789 231.253097 
L 141.283115 231.253097 
L 141.283115 230.679446 
L 141.987354 230.679446 
L 141.987354 230.105794 
L 143.943994 230.105794 
L 143.943994 229.532142 
L 144.06695 229.532142 
L 144.06695 228.95849 
L 144.390658 228.95849 
L 144.390658 228.384839 
L 145.020588 228.384839 
L 145.020588 227.811187 
L 145.403044 227.811187 
L 145.403044 227.237535 
L 146.644018 227.237535 
L 146.644018 226.663884 
L 147.300877 226.663884 
L 147.300877 226.090232 
L 147.570215 226.090232 
L 147.570215 224.942928 
L 147.96658 224.942928 
L 147.96658 224.369277 
L 148.513109 224.369277 
L 148.513109 223.795625 
L 148.826773 223.795625 
L 148.826773 223.221973 
L 149.043029 223.221973 
L 149.043029 222.648321 
L 149.646525 222.648321 
L 149.646525 221.501018 
L 149.823575 221.501018 
L 149.823575 220.353715 
L 150.229833 220.353715 
L 150.229833 218.632759 
L 150.598782 218.632759 
L 150.598782 217.485456 
L 150.932558 217.485456 
L 150.932558 216.338153 
L 151.124351 216.338153 
L 151.124351 215.190849 
L 151.314058 215.190849 
L 151.314058 214.617197 
L 151.581536 214.617197 
L 151.581536 213.469894 
L 152.052897 213.469894 
L 152.078714 212.322591 
L 152.811246 212.322591 
L 152.811246 211.748939 
L 153.275019 211.748939 
L 153.275019 211.175287 
L 153.537988 211.175287 
L 153.537988 210.601635 
L 154.349264 210.601635 
L 154.349264 210.027984 
L 155.210911 210.027984 
L 155.210911 209.454332 
L 155.339773 209.454332 
L 155.382516 206.586073 
L 155.949527 206.586073 
L 155.949527 206.012422 
L 156.073064 206.012422 
L 156.073064 205.43877 
L 156.835778 205.43877 
L 156.894595 203.717815 
L 156.953214 203.717815 
L 157.011638 201.99686 
L 157.089232 201.99686 
L 157.089232 201.423208 
L 157.300853 201.423208 
L 157.300853 200.275904 
L 158.159001 200.275904 
L 158.159001 199.702253 
L 158.285965 199.702253 
L 158.285965 199.128601 
L 158.554957 199.128601 
L 158.643706 197.981298 
L 159.028927 197.981298 
L 159.098062 196.260342 
L 159.337899 196.260342 
L 159.371893 193.965736 
L 159.758143 193.965736 
L 159.758143 193.392084 
L 159.874019 193.392084 
L 159.874019 192.24478 
L 160.087195 192.24478 
L 160.184713 190.523825 
L 160.680044 190.523825 
L 160.680044 188.80287 
L 161.660209 188.80287 
L 161.734513 187.081915 
L 161.970183 187.081915 
L 162.072295 185.934612 
L 162.115875 185.934612 
L 162.115875 185.36096 
L 162.432178 185.36096 
L 162.432178 184.787308 
L 162.700806 184.787308 
L 162.728843 182.492701 
L 163.320996 182.492701 
L 163.320996 181.91905 
L 163.603039 181.91905 
L 163.603039 181.345398 
L 163.880593 181.345398 
L 163.959089 177.329836 
L 164.612418 177.329836 
L 164.624987 175.608881 
L 164.837283 175.608881 
L 164.849691 172.16697 
L 165.230021 172.16697 
L 165.242153 171.019667 
L 165.625977 171.019667 
L 165.625977 170.446015 
L 165.861646 170.446015 
L 165.861646 169.872363 
L 166.117256 169.872363 
L 166.117256 169.298712 
L 166.369174 169.298712 
L 166.459886 167.004105 
L 166.595075 167.004105 
L 166.673454 165.28315 
L 167.212459 165.28315 
L 167.309674 162.988543 
L 167.470505 162.988543 
L 167.555679 161.267588 
L 167.954668 161.267588 
L 167.954668 160.693936 
L 168.109685 160.693936 
L 168.191801 158.399329 
L 168.385289 158.399329 
L 168.48627 154.957419 
L 169.060699 154.957419 
L 169.060699 153.810115 
L 169.225542 153.810115 
L 169.225542 153.236464 
L 169.3984 153.236464 
L 169.3984 152.662812 
L 169.795194 152.662812 
L 169.795194 152.08916 
L 170.008719 152.08916 
L 170.008719 151.515508 
L 170.137423 151.515508 
L 170.219663 149.220902 
L 170.256089 149.220902 
L 170.29244 146.926295 
L 170.473066 146.926295 
L 170.571619 145.20534 
L 170.625141 145.20534 
L 170.625141 144.631688 
L 170.775901 144.631688 
L 170.828801 143.484384 
L 170.960352 143.484384 
L 171.03881 140.616126 
L 171.314944 140.616126 
L 171.314944 140.042474 
L 171.502282 140.042474 
L 171.502282 139.468822 
L 171.679247 139.468822 
L 171.679247 137.747867 
L 172.077118 137.747867 
L 172.077118 137.174215 
L 172.425997 137.174215 
L 172.498143 135.45326 
L 172.736497 135.45326 
L 172.799511 133.732305 
L 172.862299 133.732305 
L 172.956059 131.437698 
L 173.033809 131.437698 
L 173.09576 130.290395 
L 173.165193 130.290395 
L 173.219006 127.995788 
L 173.432614 127.995788 
L 173.530906 126.274833 
L 173.55351 126.274833 
L 173.55351 125.701181 
L 173.666095 125.701181 
L 173.681051 124.553878 
L 173.785389 124.553878 
L 173.815086 122.259271 
L 174.116595 122.259271 
L 174.225613 119.391012 
L 174.513041 119.391012 
L 174.59126 116.522754 
L 174.711458 116.522754 
L 174.809827 115.37545 
L 174.893703 115.37545 
L 174.914609 113.654495 
L 175.004915 113.654495 
L 175.080963 112.507192 
L 175.142939 112.507192 
L 175.142939 111.93354 
L 175.320753 111.93354 
L 175.381884 110.212585 
L 175.55729 110.212585 
L 175.624287 108.49163 
L 175.6777 108.49163 
L 175.6777 107.344326 
L 176.112223 107.344326 
L 176.183602 105.623371 
L 176.254691 105.623371 
L 176.34475 103.902416 
L 176.408795 103.902416 
L 176.408795 102.755112 
L 176.599529 102.755112 
L 176.599529 101.607809 
L 176.738086 101.607809 
L 176.819447 99.886854 
L 176.987223 99.886854 
L 177.030459 97.592247 
L 177.432921 97.592247 
L 177.529105 95.29764 
L 177.588952 95.29764 
L 177.654547 92.429381 
L 177.767269 92.429381 
L 177.802715 90.708426 
L 178.083716 90.708426 
L 178.083716 90.134775 
L 178.199477 90.134775 
L 178.205245 88.987471 
L 178.428718 88.987471 
L 178.525241 85.545561 
L 178.55918 85.545561 
L 178.55918 84.971909 
L 178.722297 84.971909 
L 178.794926 82.103651 
L 178.889448 82.103651 
L 178.906075 80.382695 
L 179.087937 80.382695 
L 179.087937 79.809044 
L 179.229898 79.809044 
L 179.338318 75.793482 
L 179.446068 75.793482 
L 179.542477 72.925223 
L 179.627729 72.925223 
L 179.6808 70.630616 
L 179.760106 70.630616 
L 179.802255 67.188706 
L 179.943762 67.188706 
L 180.021883 65.467751 
L 180.130669 65.467751 
L 180.171933 63.746796 
L 180.259296 63.746796 
L 180.36152 61.452189 
L 180.719649 61.452189 
L 180.719649 60.878537 
L 180.858886 60.878537 
L 180.888578 59.731234 
L 180.972433 59.731234 
L 181.036286 56.862975 
L 181.270047 56.862975 
L 181.342459 54.568368 
L 181.452911 54.568368 
L 181.452911 53.994716 
L 181.624399 53.994716 
L 181.733085 50.552806 
L 181.742504 50.552806 
L 181.850459 48.258199 
L 181.915844 48.258199 
L 181.920505 47.110896 
L 182.087478 47.110896 
L 182.193325 45.389941 
L 182.21625 45.389941 
L 182.21625 44.816289 
L 182.344078 44.816289 
L 182.403109 41.94803 
L 182.574526 41.94803 
L 182.677466 39.079772 
L 182.690848 39.079772 
L 182.757606 35.06421 
L 182.912387 35.06421 
L 183.02211 32.195951 
L 183.091972 32.195951 
L 183.161555 28.180389 
L 183.217888 28.180389 
L 183.321411 25.885782 
L 183.471289 25.885782 
L 183.54787 23.591175 
L 183.598738 23.591175 
L 183.695823 21.296568 
L 183.809106 21.296568 
L 183.913346 19.001962 
L 183.950721 19.001962 
L 183.988015 16.707355 
L 184.070607 16.707355 
L 184.12819 13.839096 
L 184.320124 13.839096 
L 184.38903 12.118141 
L 184.433471 12.118141 
L 184.497912 9.823534 
L 184.622093 9.823534 
L 184.630074 8.676231 
L 184.800796 8.676231 
L 184.800796 8.102579 
L 185.253182 8.102579 
L 185.253182 6.955275 
L 185.810104 6.955275 
L 185.810104 6.381624 
L 338.688 6.381624 
L 338.688 6.381624 
" style="fill:none;stroke:#ff7500;stroke-linecap:square;stroke-width:1.5;"/>
   </g>
   <g id="line2d_40">
    <defs>
     <path d="M 0 -6 
L -1.347084 -1.854102 
L -5.706339 -1.854102 
L -2.179628 0.708204 
L -3.526712 4.854102 
L -0 2.291796 
L 3.526712 4.854102 
L 2.179628 0.708204 
L 5.706339 -1.854102 
L 1.347084 -1.854102 
z
" id="m923b924cf0" style="stroke:#ff7500;stroke-linejoin:bevel;stroke-width:1.5;"/>
    </defs>
    <g>
     <use style="fill-opacity:0;stroke:#ff7500;stroke-linejoin:bevel;stroke-width:1.5;" x="66.508432" xlink:href="#m923b924cf0" y="264.524897"/>
     <use style="fill-opacity:0;stroke:#ff7500;stroke-linejoin:bevel;stroke-width:1.5;" x="156.953214" xlink:href="#m923b924cf0" y="203.717815"/>
     <use style="fill-opacity:0;stroke:#ff7500;stroke-linejoin:bevel;stroke-width:1.5;" x="180.259296" xlink:href="#m923b924cf0" y="63.173144"/>
     <use style="fill-opacity:0;stroke:#ff7500;stroke-linejoin:bevel;stroke-width:1.5;" x="185.810104" xlink:href="#m923b924cf0" y="6.955275"/>
     <use style="fill-opacity:0;stroke:#ff7500;stroke-linejoin:bevel;stroke-width:1.5;" x="185.810104" xlink:href="#m923b924cf0" y="6.381624"/>
     <use style="fill-opacity:0;stroke:#ff7500;stroke-linejoin:bevel;stroke-width:1.5;" x="338.688" xlink:href="#m923b924cf0" y="6.381624"/>
    </g>
   </g>
   <g id="line2d_41">
    <path style="fill:none;stroke:#ff7500;stroke-linecap:square;stroke-width:1.5;"/>
    <g/>
   </g>
   <g id="line2d_42">
    <defs>
     <path d="M 0 1.5 
C 0.397805 1.5 0.77937 1.341951 1.06066 1.06066 
C 1.341951 0.77937 1.5 0.397805 1.5 0 
C 1.5 -0.397805 1.341951 -0.77937 1.06066 -1.06066 
C 0.77937 -1.341951 0.397805 -1.5 0 -1.5 
C -0.397805 -1.5 -0.77937 -1.341951 -1.06066 -1.06066 
C -1.341951 -0.77937 -1.5 -0.397805 -1.5 0 
C -1.5 0.397805 -1.341951 0.77937 -1.06066 1.06066 
C -0.77937 1.341951 -0.397805 1.5 0 1.5 
z
" id="m7b7b575ed5" style="stroke:#6495ed;"/>
    </defs>
    <g>
     <use style="fill:#6495ed;stroke:#6495ed;" x="188.782108" xlink:href="#m7b7b575ed5" y="6.381624"/>
     <use style="fill:#6495ed;stroke:#6495ed;" x="188.782108" xlink:href="#m7b7b575ed5" y="6.381624"/>
    </g>
   </g>
   <g id="line2d_43">
    <path d="M 38.440992 298.944 
L 38.440992 288.618269 
L 50.52898 288.618269 
L 50.52898 286.323662 
L 57.6 286.323662 
L 57.6 282.881752 
L 62.616969 282.881752 
L 62.616969 282.3081 
L 66.508432 282.3081 
L 66.508432 280.013493 
L 69.687988 280.013493 
L 69.687988 279.439842 
L 72.376266 279.439842 
L 72.376266 278.86619 
L 74.704957 278.86619 
L 74.704957 278.292538 
L 76.759008 278.292538 
L 76.759008 277.718886 
L 81.775977 277.718886 
L 81.775977 277.145235 
L 84.464254 277.145235 
L 84.464254 276.571583 
L 86.792945 276.571583 
L 86.792945 273.703324 
L 91.535274 273.703324 
L 91.535274 271.982369 
L 99.41757 271.982369 
L 99.41757 271.408718 
L 101.412804 271.408718 
L 101.412804 270.835066 
L 102.772397 270.835066 
L 102.772397 270.261414 
L 105.951954 270.261414 
L 105.951954 269.687762 
L 111.239304 269.687762 
L 111.239304 269.114111 
L 111.505558 269.114111 
L 111.505558 267.966807 
L 119.602714 267.966807 
L 119.602714 267.393156 
L 119.768017 267.393156 
L 119.768017 265.6722 
L 120.093994 265.6722 
L 120.093994 265.098549 
L 120.254726 265.098549 
L 120.254726 263.951245 
L 120.571812 263.951245 
L 120.571812 263.377593 
L 121.340187 263.377593 
L 121.340187 262.803942 
L 123.985457 262.803942 
L 123.985457 262.23029 
L 125.470548 262.23029 
L 125.470548 260.509335 
L 126.50685 260.509335 
L 126.50685 259.935683 
L 128.610515 259.935683 
L 128.610515 259.362031 
L 133.277185 259.362031 
L 133.277185 258.78838 
L 134.307653 258.78838 
L 134.307653 258.214728 
L 135.212889 258.214728 
L 135.212889 257.641076 
L 135.681535 257.641076 
L 135.681535 256.493773 
L 136.073445 256.493773 
L 136.073445 255.346469 
L 136.519813 255.346469 
L 136.519813 254.772818 
L 137.499118 254.772818 
L 137.499118 254.199166 
L 138.026733 254.199166 
L 138.084384 253.051863 
L 138.369812 253.051863 
L 138.369812 252.478211 
L 139.036363 252.478211 
L 139.036363 251.904559 
L 139.413734 251.904559 
L 139.413734 250.757256 
L 140.944478 250.757256 
L 140.944478 250.183604 
L 141.755753 250.183604 
L 141.755753 249.609952 
L 142.971369 249.609952 
L 142.971369 249.036301 
L 143.695448 249.036301 
L 143.695448 248.462649 
L 143.861538 248.462649 
L 143.861538 247.888997 
L 143.985075 247.888997 
L 144.06695 246.168042 
L 144.470655 246.168042 
L 144.470655 245.59439 
L 144.747789 245.59439 
L 144.787023 244.447087 
L 145.212864 244.447087 
L 145.212864 243.873435 
L 146.466968 243.873435 
L 146.466968 243.299783 
L 147.86833 243.299783 
L 147.86833 242.726132 
L 148.354135 242.726132 
L 148.354135 242.15248 
L 149.616841 242.15248 
L 149.616841 241.005176 
L 149.852909 241.005176 
L 149.852909 240.431525 
L 150.05688 240.431525 
L 150.114722 238.71057 
L 150.51433 238.71057 
L 150.570677 237.563266 
L 150.79426 237.563266 
L 150.822008 234.121356 
L 151.097081 234.121356 
L 151.097081 233.547704 
L 151.897188 233.547704 
L 151.897188 232.974052 
L 152.860649 232.974052 
L 152.934492 230.105794 
L 154.862549 230.105794 
L 154.862549 229.532142 
L 154.994001 229.532142 
L 154.994001 228.384839 
L 155.12447 228.384839 
L 155.12447 227.811187 
L 155.253971 227.811187 
L 155.253971 226.663884 
L 155.55245 226.663884 
L 155.55245 226.090232 
L 155.949527 226.090232 
L 155.949527 225.51658 
L 156.256744 225.51658 
L 156.337763 223.221973 
L 156.43851 223.221973 
L 156.43851 222.648321 
L 157.300853 222.648321 
L 157.300853 222.07467 
L 157.434196 222.07467 
L 157.434196 220.927366 
L 157.547684 220.927366 
L 157.547684 220.353715 
L 158.195371 220.353715 
L 158.304027 219.206411 
L 158.661402 219.206411 
L 158.661402 218.632759 
L 158.819862 218.632759 
L 158.819862 217.485456 
L 158.976895 217.485456 
L 158.976895 216.911804 
L 159.132527 216.911804 
L 159.132527 216.338153 
L 159.490356 216.338153 
L 159.557689 215.190849 
L 159.906985 215.190849 
L 159.972732 212.896242 
L 160.727241 212.896242 
L 160.742945 211.748939 
L 160.899212 211.748939 
L 161.007772 210.601635 
L 161.329454 210.601635 
L 161.435376 209.454332 
L 161.480575 209.454332 
L 161.480575 208.88068 
L 162.231559 208.88068 
L 162.289115 207.733377 
L 162.672723 207.733377 
L 162.672723 207.159725 
L 162.951535 207.159725 
L 162.951535 206.586073 
L 163.455871 206.586073 
L 163.50953 203.144163 
L 163.8937 203.144163 
L 163.985177 201.99686 
L 164.775111 201.99686 
L 164.775111 201.423208 
L 164.899235 201.423208 
L 164.948638 200.275904 
L 165.096013 200.275904 
L 165.096013 199.128601 
L 165.230021 199.128601 
L 165.230021 198.554949 
L 165.614109 198.554949 
L 165.673366 197.407646 
L 165.896723 197.407646 
L 165.896723 195.686691 
L 166.013141 195.686691 
L 166.117256 193.392084 
L 166.277988 193.392084 
L 166.346422 192.24478 
L 166.840232 192.24478 
L 166.840232 191.671129 
L 167.125588 191.671129 
L 167.169078 189.950174 
L 167.735303 189.950174 
L 167.735303 189.376522 
L 167.892273 189.376522 
L 167.954668 187.655567 
L 168.314254 187.655567 
L 168.415645 183.640005 
L 168.48627 183.640005 
L 168.596677 182.492701 
L 168.756032 182.492701 
L 168.756032 181.91905 
L 169.128764 181.91905 
L 169.206229 180.771746 
L 169.254471 180.771746 
L 169.254471 179.624443 
L 169.503198 179.624443 
L 169.503198 179.050791 
L 169.692141 179.050791 
L 169.692141 178.477139 
L 169.925477 178.477139 
L 169.925477 177.903487 
L 170.119095 177.903487 
L 170.14658 176.182532 
L 170.256089 176.182532 
L 170.337772 173.887925 
L 170.428085 173.887925 
L 170.428085 173.314274 
L 170.616232 173.314274 
L 170.616232 172.740622 
L 171.073566 172.740622 
L 171.073566 172.16697 
L 171.408865 172.16697 
L 171.408865 171.019667 
L 171.595202 171.019667 
L 171.595202 170.446015 
L 172.101686 170.446015 
L 172.101686 168.72506 
L 172.401882 168.72506 
L 172.458099 167.577757 
L 172.665332 167.577757 
L 172.752272 165.856801 
L 172.901427 165.856801 
L 172.9872 164.135846 
L 173.118935 164.135846 
L 173.118935 163.562195 
L 173.485609 163.562195 
L 173.576085 161.267588 
L 173.703462 161.267588 
L 173.807666 160.120284 
L 173.866933 160.120284 
L 173.918627 158.972981 
L 174.290699 158.972981 
L 174.398638 155.53107 
L 174.548638 155.53107 
L 174.584164 154.383767 
L 174.865789 154.383767 
L 174.865789 153.810115 
L 175.046437 153.810115 
L 175.156681 149.794553 
L 175.197844 149.794553 
L 175.204695 148.64725 
L 175.590821 148.64725 
L 175.684365 146.926295 
L 175.797284 146.926295 
L 175.797284 145.778991 
L 176.020952 145.778991 
L 176.020952 145.20534 
L 176.235332 145.20534 
L 176.235332 144.058036 
L 176.408795 144.058036 
L 176.459861 142.910733 
L 176.561548 142.910733 
L 176.656344 140.042474 
L 176.756896 140.042474 
L 176.819447 138.321519 
L 176.93768 138.321519 
L 177.042792 135.45326 
L 177.135015 135.45326 
L 177.135015 134.879609 
L 177.287644 134.879609 
L 177.336204 133.732305 
L 177.690222 133.732305 
L 177.749519 132.01135 
L 177.826305 132.01135 
L 177.92621 130.864047 
L 177.937926 130.864047 
L 177.937926 130.290395 
L 178.10693 130.290395 
L 178.135904 127.422136 
L 178.245567 127.422136 
L 178.314474 125.127529 
L 178.388818 125.127529 
L 178.388818 123.980226 
L 178.508246 123.980226 
L 178.60433 120.538316 
L 178.654985 120.538316 
L 178.654985 119.964664 
L 178.828345 119.964664 
L 178.872805 118.243709 
L 179.24077 118.243709 
L 179.316688 117.096405 
L 179.526446 117.096405 
L 179.526446 116.522754 
L 179.6808 116.522754 
L 179.76538 114.228147 
L 179.844303 114.228147 
L 179.954198 113.080843 
L 180.011487 113.080843 
L 180.099656 111.359888 
L 180.254169 111.359888 
L 180.33602 109.638933 
L 180.366615 109.638933 
L 180.468214 106.770674 
L 180.493521 106.770674 
L 180.538982 105.049719 
L 180.734621 105.049719 
L 180.734621 104.476068 
L 180.952739 104.476068 
L 180.952739 103.902416 
L 181.090134 103.902416 
L 181.192474 101.034157 
L 181.216753 101.034157 
L 181.294218 98.165899 
L 181.37134 98.165899 
L 181.414572 95.29764 
L 181.543629 95.29764 
L 181.572179 94.150337 
L 181.676464 94.150337 
L 181.737795 92.429381 
L 181.789523 92.429381 
L 181.873839 90.134775 
L 181.971695 90.134775 
L 182.050511 88.413819 
L 182.105933 88.413819 
L 182.21625 87.266516 
L 182.25744 87.266516 
L 182.25744 86.692864 
L 182.47549 86.692864 
L 182.47549 86.119213 
L 182.650671 86.119213 
L 182.744275 79.809044 
L 182.784238 79.809044 
L 182.832957 76.940785 
L 182.982689 76.940785 
L 183.052709 74.072526 
L 183.109394 74.072526 
L 183.165895 69.483313 
L 183.226538 69.483313 
L 183.226538 68.909661 
L 183.522381 68.909661 
L 183.577561 66.041402 
L 183.716857 66.041402 
L 183.750459 64.320447 
L 183.830004 64.320447 
L 183.880057 62.599492 
L 184.02936 62.599492 
L 184.132295 58.58393 
L 184.197857 58.58393 
L 184.230545 56.289323 
L 184.368791 56.289323 
L 184.368791 55.715672 
L 184.48987 55.715672 
L 184.55811 53.994716 
L 184.626084 53.994716 
L 184.681864 51.126458 
L 184.75332 51.126458 
L 184.856021 47.110896 
L 184.883568 47.110896 
L 184.965949 44.816289 
L 185.020655 44.816289 
L 185.020655 44.242637 
L 185.280109 44.242637 
L 185.34916 42.521682 
L 185.417939 42.521682 
L 185.524393 41.374379 
L 185.573597 41.374379 
L 185.6302 38.50612 
L 185.694129 38.50612 
L 185.79145 36.211513 
L 185.899365 36.211513 
L 186.010302 33.916906 
L 186.160784 33.916906 
L 186.270076 30.474996 
L 186.284597 30.474996 
L 186.389511 26.459434 
L 186.429142 26.459434 
L 186.515297 23.591175 
L 186.561788 23.591175 
L 186.561788 23.017524 
L 186.735916 23.017524 
L 186.735916 22.443872 
L 186.96076 22.443872 
L 187.058226 19.575613 
L 187.07904 19.575613 
L 187.148244 17.854658 
L 187.230927 17.854658 
L 187.340566 13.839096 
L 187.381503 13.839096 
L 187.446124 11.544489 
L 187.53079 11.544489 
L 187.588128 10.397186 
L 187.641922 10.397186 
L 187.641922 9.249882 
L 188.193708 9.249882 
L 188.281302 8.102579 
L 188.32332 8.102579 
L 188.358796 6.955275 
L 188.782108 6.955275 
L 188.782108 6.381624 
L 338.688 6.381624 
L 338.688 6.381624 
" style="fill:none;stroke:#6495ed;stroke-linecap:square;stroke-width:1.5;"/>
   </g>
   <g id="line2d_44">
    <defs>
     <path d="M -0 6 
L 6 -6 
L -6 -6 
z
" id="m9fa87f2df8" style="stroke:#6495ed;stroke-linejoin:miter;stroke-width:1.5;"/>
    </defs>
    <g>
     <use style="fill-opacity:0;stroke:#6495ed;stroke-linejoin:miter;stroke-width:1.5;" x="81.775977" xlink:href="#m9fa87f2df8" y="277.718886"/>
     <use style="fill-opacity:0;stroke:#6495ed;stroke-linejoin:miter;stroke-width:1.5;" x="163.455871" xlink:href="#m9fa87f2df8" y="206.586073"/>
     <use style="fill-opacity:0;stroke:#6495ed;stroke-linejoin:miter;stroke-width:1.5;" x="182.832957" xlink:href="#m9fa87f2df8" y="76.940785"/>
     <use style="fill-opacity:0;stroke:#6495ed;stroke-linejoin:miter;stroke-width:1.5;" x="188.782108" xlink:href="#m9fa87f2df8" y="6.955275"/>
     <use style="fill-opacity:0;stroke:#6495ed;stroke-linejoin:miter;stroke-width:1.5;" x="188.782108" xlink:href="#m9fa87f2df8" y="6.381624"/>
     <use style="fill-opacity:0;stroke:#6495ed;stroke-linejoin:miter;stroke-width:1.5;" x="338.688" xlink:href="#m9fa87f2df8" y="6.381624"/>
    </g>
   </g>
   <g id="line2d_45">
    <path style="fill:none;stroke:#6495ed;stroke-linecap:square;stroke-width:1.5;"/>
    <g/>
   </g>
   <g id="line2d_46">
    <defs>
     <path d="M 0 1.5 
C 0.397805 1.5 0.77937 1.341951 1.06066 1.06066 
C 1.341951 0.77937 1.5 0.397805 1.5 0 
C 1.5 -0.397805 1.341951 -0.77937 1.06066 -1.06066 
C 0.77937 -1.341951 0.397805 -1.5 0 -1.5 
C -0.397805 -1.5 -0.77937 -1.341951 -1.06066 -1.06066 
C -1.341951 -0.77937 -1.5 -0.397805 -1.5 0 
C -1.5 0.397805 -1.341951 0.77937 -1.06066 1.06066 
C -0.77937 1.341951 -0.397805 1.5 0 1.5 
z
" id="mc72a2096e6" style="stroke:#ff0000;"/>
    </defs>
    <g>
     <use style="fill:#ff0000;stroke:#ff0000;" x="232.962068" xlink:href="#mc72a2096e6" y="6.381624"/>
     <use style="fill:#ff0000;stroke:#ff0000;" x="232.962068" xlink:href="#mc72a2096e6" y="6.381624"/>
    </g>
   </g>
   <g id="line2d_47">
    <path d="M 38.440992 298.944 
L 38.440992 271.408718 
L 50.52898 271.408718 
L 50.52898 261.082987 
L 57.6 261.082987 
L 57.6 258.78838 
L 66.508432 258.78838 
L 66.508432 256.493773 
L 69.687988 256.493773 
L 69.687988 255.346469 
L 74.704957 255.346469 
L 74.704957 254.772818 
L 76.759008 254.772818 
L 76.759008 254.199166 
L 81.775977 254.199166 
L 81.775977 252.478211 
L 83.171864 252.478211 
L 83.171864 251.904559 
L 90.684409 251.904559 
L 90.684409 251.330907 
L 93.121756 251.330907 
L 93.121756 250.183604 
L 95.259853 250.183604 
L 95.259853 249.609952 
L 98.32726 249.609952 
L 98.32726 248.462649 
L 99.41757 248.462649 
L 99.41757 246.741694 
L 101.877879 246.741694 
L 101.877879 245.020738 
L 102.330873 245.020738 
L 102.330873 243.873435 
L 103.203018 243.873435 
L 103.203018 242.726132 
L 104.434538 242.726132 
L 104.434538 242.15248 
L 105.584798 242.15248 
L 105.584798 241.005176 
L 107.347841 241.005176 
L 107.347841 240.431525 
L 108.640231 240.431525 
L 108.640231 238.71057 
L 110.694282 238.71057 
L 110.694282 237.563266 
L 115.291007 237.563266 
L 115.291007 236.415963 
L 117.107138 236.415963 
L 117.107138 235.842311 
L 121.340187 235.842311 
L 121.340187 235.268659 
L 124.619683 235.268659 
L 124.619683 232.974052 
L 125.110962 232.974052 
L 125.110962 232.400401 
L 126.50685 232.400401 
L 126.50685 231.253097 
L 128.807571 231.253097 
L 128.807571 230.679446 
L 129.195127 230.679446 
L 129.195127 230.105794 
L 131.439773 230.105794 
L 131.439773 228.95849 
L 131.77355 228.95849 
L 131.77355 228.384839 
L 132.181982 228.384839 
L 132.181982 226.090232 
L 137.968891 226.090232 
L 137.968891 225.51658 
L 138.141844 225.51658 
L 138.141844 224.942928 
L 140.944478 224.942928 
L 140.944478 224.369277 
L 142.261275 224.369277 
L 142.261275 223.221973 
L 142.884173 223.221973 
L 142.884173 220.927366 
L 143.144465 220.927366 
L 143.144465 219.780063 
L 146.923612 219.780063 
L 146.958248 218.632759 
L 147.50327 218.632759 
L 147.50327 218.059108 
L 148.48143 218.059108 
L 148.48143 217.485456 
L 152.155936 217.485456 
L 152.155936 216.911804 
L 152.934492 216.911804 
L 152.934492 216.338153 
L 154.006185 216.338153 
L 154.006185 215.764501 
L 155.296925 215.764501 
L 155.296925 215.190849 
L 155.446436 215.190849 
L 155.446436 214.617197 
L 157.243392 214.617197 
L 157.243392 214.043546 
L 159.473482 214.043546 
L 159.473482 210.601635 
L 160.184713 210.601635 
L 160.184713 210.027984 
L 160.86807 210.027984 
L 160.86807 209.454332 
L 161.314269 209.454332 
L 161.314269 208.88068 
L 161.465522 208.88068 
L 161.465522 208.307029 
L 163.709295 208.307029 
L 163.709295 207.733377 
L 163.854349 207.733377 
L 163.854349 204.865118 
L 164.320806 204.865118 
L 164.320806 203.717815 
L 165.144862 203.717815 
L 165.144862 202.570511 
L 165.720627 202.570511 
L 165.720627 201.99686 
L 168.60668 201.99686 
L 168.60668 200.275904 
L 168.904116 200.275904 
L 168.904116 199.702253 
L 169.86976 199.702253 
L 169.86976 199.128601 
L 170.100748 199.128601 
L 170.100748 198.554949 
L 172.434028 198.554949 
L 172.490141 192.818432 
L 174.021557 192.818432 
L 174.021557 192.24478 
L 174.305129 192.24478 
L 174.305129 191.671129 
L 174.48451 191.671129 
L 174.48451 188.80287 
L 174.598353 188.80287 
L 174.598353 188.229218 
L 174.984116 188.229218 
L 174.984116 187.081915 
L 175.163549 187.081915 
L 175.252577 185.36096 
L 175.730949 185.36096 
L 175.730949 184.787308 
L 175.994786 184.787308 
L 176.047078 183.640005 
L 176.170646 183.640005 
L 176.177125 182.492701 
L 176.338333 182.492701 
L 176.338333 181.91905 
L 176.574218 181.91905 
L 176.574218 180.771746 
L 177.281564 180.771746 
L 177.281564 180.198094 
L 177.600896 180.198094 
L 177.654547 179.050791 
L 178.013889 179.050791 
L 178.101129 175.608881 
L 178.280055 175.608881 
L 178.365977 172.16697 
L 178.411629 172.16697 
L 178.502578 170.446015 
L 178.587413 170.446015 
L 178.643741 168.72506 
L 178.817212 168.72506 
L 178.817212 168.151408 
L 178.966907 168.151408 
L 178.988975 164.135846 
L 179.219019 164.135846 
L 179.219019 162.414891 
L 179.365318 162.414891 
L 179.365318 161.841239 
L 179.738993 161.841239 
L 179.844303 157.825677 
L 179.964628 157.825677 
L 179.98547 154.957419 
L 180.243911 154.957419 
L 180.341123 152.662812 
L 180.386982 152.662812 
L 180.386982 152.08916 
L 180.774482 152.08916 
L 180.858886 148.073598 
L 180.942883 148.073598 
L 181.021571 146.926295 
L 181.080356 146.926295 
L 181.080356 146.352643 
L 181.284554 146.352643 
L 181.37134 142.337081 
L 181.519801 142.337081 
L 181.519801 141.763429 
L 181.64335 141.763429 
L 181.733085 138.321519 
L 181.817674 138.321519 
L 181.925165 134.879609 
L 182.036628 134.879609 
L 182.115152 130.864047 
L 182.252868 130.864047 
L 182.316765 122.259271 
L 182.489029 122.259271 
L 182.592473 120.538316 
L 182.632784 120.538316 
L 182.699764 117.670057 
L 182.753163 117.670057 
L 182.863889 114.801798 
L 183.0046 114.801798 
L 183.096329 112.507192 
L 183.131146 112.507192 
L 183.131146 111.93354 
L 183.256781 111.93354 
L 183.312807 110.212585 
L 183.467024 110.212585 
L 183.467024 107.917978 
L 183.586035 107.917978 
L 183.657898 103.902416 
L 183.721061 103.902416 
L 183.767235 102.181461 
L 183.946572 102.181461 
L 184.004565 101.034157 
L 184.082962 101.034157 
L 184.148709 99.313202 
L 184.234627 99.313202 
L 184.234627 98.73955 
L 184.36069 98.73955 
L 184.384984 95.29764 
L 184.757282 95.29764 
L 184.84026 93.576685 
L 184.942451 93.576685 
L 184.985507 89.561123 
L 185.156672 89.561123 
L 185.183749 87.840168 
L 185.280109 87.840168 
L 185.364468 85.545561 
L 185.494044 85.545561 
L 185.566037 83.824606 
L 185.679108 83.824606 
L 185.754083 81.529999 
L 185.85851 81.529999 
L 185.925313 77.514437 
L 185.995551 77.514437 
L 185.995551 76.940785 
L 186.324466 76.940785 
L 186.425543 74.072526 
L 186.543922 74.072526 
L 186.636627 71.77792 
L 186.757118 71.77792 
L 186.774768 69.483313 
L 186.978205 69.483313 
L 187.07904 64.320447 
L 187.151697 64.320447 
L 187.251537 60.878537 
L 187.330316 60.878537 
L 187.395127 59.157582 
L 187.510507 59.157582 
L 187.510507 58.010278 
L 187.628489 58.010278 
L 187.725644 55.14202 
L 187.862084 55.14202 
L 187.911736 52.273761 
L 188.017189 52.273761 
L 188.079501 49.979154 
L 188.164412 49.979154 
L 188.164412 49.405503 
L 188.326548 49.405503 
L 188.432739 44.816289 
L 188.991525 44.816289 
L 189.065933 43.095334 
L 189.28116 43.095334 
L 189.339123 41.94803 
L 189.399929 41.94803 
L 189.399929 40.227075 
L 189.682914 40.227075 
L 189.71275 36.211513 
L 189.926077 36.211513 
L 189.984874 35.06421 
L 190.098962 35.06421 
L 190.098962 34.490558 
L 190.62455 34.490558 
L 190.669758 32.769603 
L 191.021741 32.769603 
L 191.104509 30.474996 
L 191.298843 30.474996 
L 191.396558 28.180389 
L 191.517936 28.180389 
L 191.517936 27.033086 
L 192.782657 27.033086 
L 192.782657 26.459434 
L 193.094833 26.459434 
L 193.094833 25.885782 
L 194.062006 25.885782 
L 194.126931 24.164827 
L 194.39336 24.164827 
L 194.39336 23.017524 
L 194.522802 23.017524 
L 194.522802 20.722917 
L 194.982756 20.722917 
L 194.982756 19.575613 
L 195.195205 19.575613 
L 195.266896 17.854658 
L 195.400796 17.854658 
L 195.400796 17.281006 
L 206.201028 17.281006 
L 206.201028 16.707355 
L 220.831588 16.707355 
L 220.831588 16.133703 
L 221.17062 16.133703 
L 221.17062 15.560051 
L 221.410957 15.560051 
L 221.466064 13.265444 
L 221.545035 13.265444 
L 221.65137 11.544489 
L 221.834728 11.544489 
L 221.921458 10.397186 
L 221.98107 10.397186 
L 221.98107 9.823534 
L 222.361137 9.823534 
L 222.361137 9.249882 
L 222.665195 9.249882 
L 222.726812 7.528927 
L 232.788199 7.528927 
L 232.788199 6.955275 
L 232.962068 6.955275 
L 232.962068 6.381624 
L 338.688 6.381624 
L 338.688 6.381624 
" style="fill:none;stroke:#ff0000;stroke-linecap:square;stroke-width:1.5;"/>
   </g>
   <g id="line2d_48">
    <defs>
     <path d="M 0 -6 
L -5.196152 -3 
L -5.196152 3 
L -0 6 
L 5.196152 3 
L 5.196152 -3 
z
" id="mce0f923720" style="stroke:#ff0000;stroke-linejoin:miter;stroke-width:1.5;"/>
    </defs>
    <g>
     <use style="fill-opacity:0;stroke:#ff0000;stroke-linejoin:miter;stroke-width:1.5;" x="117.107138" xlink:href="#mce0f923720" y="236.415963"/>
     <use style="fill-opacity:0;stroke:#ff0000;stroke-linejoin:miter;stroke-width:1.5;" x="172.490141" xlink:href="#mce0f923720" y="197.407646"/>
     <use style="fill-opacity:0;stroke:#ff0000;stroke-linejoin:miter;stroke-width:1.5;" x="195.400796" xlink:href="#mce0f923720" y="17.854658"/>
     <use style="fill-opacity:0;stroke:#ff0000;stroke-linejoin:miter;stroke-width:1.5;" x="232.962068" xlink:href="#mce0f923720" y="6.381624"/>
     <use style="fill-opacity:0;stroke:#ff0000;stroke-linejoin:miter;stroke-width:1.5;" x="232.962068" xlink:href="#mce0f923720" y="6.381624"/>
     <use style="fill-opacity:0;stroke:#ff0000;stroke-linejoin:miter;stroke-width:1.5;" x="338.688" xlink:href="#mce0f923720" y="6.381624"/>
    </g>
   </g>
   <g id="line2d_49">
    <path style="fill:none;stroke:#ff0000;stroke-linecap:square;stroke-width:1.5;"/>
    <g/>
   </g>
   <g id="line2d_50">
    <path clip-path="url(#pdc986c7dc0)" d="M 219.56386 16.707355 
" style="fill:none;stroke:#ff0000;stroke-linecap:square;stroke-width:1.5;"/>
    <defs>
     <path d="M -12 12 
L 12 -12 
M -12 -12 
L 12 12 
" id="m11b2c1871d" style="stroke:#ff0000;"/>
    </defs>
    <g clip-path="url(#pdc986c7dc0)">
     <use style="fill:#ff0000;stroke:#ff0000;" x="219.56386" xlink:href="#m11b2c1871d" y="16.707355"/>
    </g>
   </g>
   <g id="line2d_51">
    <path d="M 338.688 6.381624 
L 369.60768 293.092752 
" style="fill:none;stroke:#ff0000;stroke-linecap:square;stroke-width:1.5;"/>
    <g>
     <use style="fill-opacity:0;stroke:#ff0000;stroke-linejoin:miter;stroke-width:1.5;" x="338.688" xlink:href="#mce0f923720" y="6.381624"/>
     <use style="fill-opacity:0;stroke:#ff0000;stroke-linejoin:miter;stroke-width:1.5;" x="369.60768" xlink:href="#mce0f923720" y="293.092752"/>
    </g>
   </g>
   <g id="line2d_52">
    <path d="M 338.688 6.381624 
L 369.60768 222.877782 
" style="fill:none;stroke:#000080;stroke-linecap:square;stroke-width:1.5;"/>
    <g>
     <use style="fill-opacity:0;stroke:#000080;stroke-width:1.5;" x="338.688" xlink:href="#macb6f2b6a1" y="6.381624"/>
     <use style="fill-opacity:0;stroke:#000080;stroke-width:1.5;" x="369.60768" xlink:href="#macb6f2b6a1" y="222.877782"/>
    </g>
   </g>
   <g id="line2d_53">
    <path d="M 338.688 6.381624 
L 369.60768 152.662812 
" style="fill:none;stroke:#ff00ff;stroke-linecap:square;stroke-width:1.5;"/>
    <g>
     <use style="fill-opacity:0;stroke:#ff00ff;stroke-linejoin:miter;stroke-width:1.5;" x="338.688" xlink:href="#mf6244f6258" y="6.381624"/>
     <use style="fill-opacity:0;stroke:#ff00ff;stroke-linejoin:miter;stroke-width:1.5;" x="369.60768" xlink:href="#mf6244f6258" y="152.662812"/>
    </g>
   </g>
   <g id="line2d_54">
    <path d="M 338.688 6.381624 
L 369.60768 82.447842 
" style="fill:none;stroke:#6495ed;stroke-linecap:square;stroke-width:1.5;"/>
    <g>
     <use style="fill-opacity:0;stroke:#6495ed;stroke-linejoin:miter;stroke-width:1.5;" x="338.688" xlink:href="#m9fa87f2df8" y="6.381624"/>
     <use style="fill-opacity:0;stroke:#6495ed;stroke-linejoin:miter;stroke-width:1.5;" x="369.60768" xlink:href="#m9fa87f2df8" y="82.447842"/>
    </g>
   </g>
   <g id="line2d_55">
    <path d="M 338.688 6.381624 
L 369.60768 12.232871 
" style="fill:none;stroke:#ff7500;stroke-linecap:square;stroke-width:1.5;"/>
    <g>
     <use style="fill-opacity:0;stroke:#ff7500;stroke-linejoin:bevel;stroke-width:1.5;" x="338.688" xlink:href="#m923b924cf0" y="6.381624"/>
     <use style="fill-opacity:0;stroke:#ff7500;stroke-linejoin:bevel;stroke-width:1.5;" x="369.60768" xlink:href="#m923b924cf0" y="12.232871"/>
    </g>
   </g>
   <g id="line2d_56">
    <path d="M 338.688 298.944 
L 338.688 6.381624 
" style="fill:none;stroke:#000000;stroke-linecap:square;stroke-width:1.5;"/>
   </g>
   <g id="patch_3">
    <path d="M 57.6 298.944 
L 57.6 3.456 
" style="fill:none;stroke:#000000;stroke-linecap:square;stroke-linejoin:miter;stroke-width:0.8;"/>
   </g>
   <g id="patch_4">
    <path d="M 338.688 298.944 
L 338.688 3.456 
" style="fill:none;stroke:#000000;stroke-linecap:square;stroke-linejoin:miter;stroke-width:0.8;"/>
   </g>
   <g id="patch_5">
    <path d="M 57.6 298.944 
L 338.688 298.944 
" style="fill:none;stroke:#000000;stroke-linecap:square;stroke-linejoin:miter;stroke-width:0.8;"/>
   </g>
   <g id="patch_6">
    <path d="M 57.6 3.456 
L 338.688 3.456 
" style="fill:none;stroke:#000000;stroke-linecap:square;stroke-linejoin:miter;stroke-width:0.8;"/>
   </g>
   <g id="text_13">
    <!-- f19 -->
    <g transform="translate(375.22944 297.78369)scale(0.17 -0.17)">
     <defs>
      <path d="M 703 97 
L 703 672 
Q 941 559 1184 500 
Q 1428 441 1663 441 
Q 2288 441 2617 861 
Q 2947 1281 2994 2138 
Q 2813 1869 2534 1725 
Q 2256 1581 1919 1581 
Q 1219 1581 811 2004 
Q 403 2428 403 3163 
Q 403 3881 828 4315 
Q 1253 4750 1959 4750 
Q 2769 4750 3195 4129 
Q 3622 3509 3622 2328 
Q 3622 1225 3098 567 
Q 2575 -91 1691 -91 
Q 1453 -91 1209 -44 
Q 966 3 703 97 
z
M 1959 2075 
Q 2384 2075 2632 2365 
Q 2881 2656 2881 3163 
Q 2881 3666 2632 3958 
Q 2384 4250 1959 4250 
Q 1534 4250 1286 3958 
Q 1038 3666 1038 3163 
Q 1038 2656 1286 2365 
Q 1534 2075 1959 2075 
z
" id="DejaVuSans-39" transform="scale(0.015625)"/>
     </defs>
     <use xlink:href="#DejaVuSans-66"/>
     <use x="35.205078" xlink:href="#DejaVuSans-31"/>
     <use x="98.828125" xlink:href="#DejaVuSans-39"/>
    </g>
   </g>
   <g id="text_14">
    <!-- f15 -->
    <g transform="translate(375.22944 227.56872)scale(0.17 -0.17)">
     <defs>
      <path d="M 691 4666 
L 3169 4666 
L 3169 4134 
L 1269 4134 
L 1269 2991 
Q 1406 3038 1543 3061 
Q 1681 3084 1819 3084 
Q 2600 3084 3056 2656 
Q 3513 2228 3513 1497 
Q 3513 744 3044 326 
Q 2575 -91 1722 -91 
Q 1428 -91 1123 -41 
Q 819 9 494 109 
L 494 744 
Q 775 591 1075 516 
Q 1375 441 1709 441 
Q 2250 441 2565 725 
Q 2881 1009 2881 1497 
Q 2881 1984 2565 2268 
Q 2250 2553 1709 2553 
Q 1456 2553 1204 2497 
Q 953 2441 691 2322 
L 691 4666 
z
" id="DejaVuSans-35" transform="scale(0.015625)"/>
     </defs>
     <use xlink:href="#DejaVuSans-66"/>
     <use x="35.205078" xlink:href="#DejaVuSans-31"/>
     <use x="98.828125" xlink:href="#DejaVuSans-35"/>
    </g>
   </g>
   <g id="text_15">
    <!-- f16 -->
    <g transform="translate(375.22944 157.353749)scale(0.17 -0.17)">
     <use xlink:href="#DejaVuSans-66"/>
     <use x="35.205078" xlink:href="#DejaVuSans-31"/>
     <use x="98.828125" xlink:href="#DejaVuSans-36"/>
    </g>
   </g>
   <g id="text_16">
    <!-- f18 -->
    <g transform="translate(375.22944 87.138779)scale(0.17 -0.17)">
     <use xlink:href="#DejaVuSans-66"/>
     <use x="35.205078" xlink:href="#DejaVuSans-31"/>
     <use x="98.828125" xlink:href="#DejaVuSans-38"/>
    </g>
   </g>
   <g id="text_17">
    <!-- f17 -->
    <g transform="translate(375.22944 16.923809)scale(0.17 -0.17)">
     <defs>
      <path d="M 525 4666 
L 3525 4666 
L 3525 4397 
L 1831 0 
L 1172 0 
L 2766 4134 
L 525 4134 
L 525 4666 
z
" id="DejaVuSans-37" transform="scale(0.015625)"/>
     </defs>
     <use xlink:href="#DejaVuSans-66"/>
     <use x="35.205078" xlink:href="#DejaVuSans-31"/>
     <use x="98.828125" xlink:href="#DejaVuSans-37"/>
    </g>
   </g>
   <g id="text_18">
    <!-- bbob -->
    <g transform="translate(60.41088 14.161286)scale(0.102 -0.102)">
     <defs>
      <path d="M 3116 1747 
Q 3116 2381 2855 2742 
Q 2594 3103 2138 3103 
Q 1681 3103 1420 2742 
Q 1159 2381 1159 1747 
Q 1159 1113 1420 752 
Q 1681 391 2138 391 
Q 2594 391 2855 752 
Q 3116 1113 3116 1747 
z
M 1159 2969 
Q 1341 3281 1617 3432 
Q 1894 3584 2278 3584 
Q 2916 3584 3314 3078 
Q 3713 2572 3713 1747 
Q 3713 922 3314 415 
Q 2916 -91 2278 -91 
Q 1894 -91 1617 61 
Q 1341 213 1159 525 
L 1159 0 
L 581 0 
L 581 4863 
L 1159 4863 
L 1159 2969 
z
" id="DejaVuSans-62" transform="scale(0.015625)"/>
     </defs>
     <use xlink:href="#DejaVuSans-62"/>
     <use x="63.476562" xlink:href="#DejaVuSans-62"/>
     <use x="126.953125" xlink:href="#DejaVuSans-6f"/>
     <use x="188.134766" xlink:href="#DejaVuSans-62"/>
    </g>
    <!-- Multi-modal functions, 3-D -->
    <g transform="translate(60.41088 25.583055)scale(0.102 -0.102)">
     <defs>
      <path d="M 628 4666 
L 1569 4666 
L 2759 1491 
L 3956 4666 
L 4897 4666 
L 4897 0 
L 4281 0 
L 4281 4097 
L 3078 897 
L 2444 897 
L 1241 4097 
L 1241 0 
L 628 0 
L 628 4666 
z
" id="DejaVuSans-4d" transform="scale(0.015625)"/>
      <path d="M 2597 2516 
Q 3050 2419 3304 2112 
Q 3559 1806 3559 1356 
Q 3559 666 3084 287 
Q 2609 -91 1734 -91 
Q 1441 -91 1130 -33 
Q 819 25 488 141 
L 488 750 
Q 750 597 1062 519 
Q 1375 441 1716 441 
Q 2309 441 2620 675 
Q 2931 909 2931 1356 
Q 2931 1769 2642 2001 
Q 2353 2234 1838 2234 
L 1294 2234 
L 1294 2753 
L 1863 2753 
Q 2328 2753 2575 2939 
Q 2822 3125 2822 3475 
Q 2822 3834 2567 4026 
Q 2313 4219 1838 4219 
Q 1578 4219 1281 4162 
Q 984 4106 628 3988 
L 628 4550 
Q 988 4650 1302 4700 
Q 1616 4750 1894 4750 
Q 2613 4750 3031 4423 
Q 3450 4097 3450 3541 
Q 3450 3153 3228 2886 
Q 3006 2619 2597 2516 
z
" id="DejaVuSans-33" transform="scale(0.015625)"/>
      <path d="M 1259 4147 
L 1259 519 
L 2022 519 
Q 2988 519 3436 956 
Q 3884 1394 3884 2338 
Q 3884 3275 3436 3711 
Q 2988 4147 2022 4147 
L 1259 4147 
z
M 628 4666 
L 1925 4666 
Q 3281 4666 3915 4102 
Q 4550 3538 4550 2338 
Q 4550 1131 3912 565 
Q 3275 0 1925 0 
L 628 0 
L 628 4666 
z
" id="DejaVuSans-44" transform="scale(0.015625)"/>
     </defs>
     <use xlink:href="#DejaVuSans-4d"/>
     <use x="86.279297" xlink:href="#DejaVuSans-75"/>
     <use x="149.658203" xlink:href="#DejaVuSans-6c"/>
     <use x="177.441406" xlink:href="#DejaVuSans-74"/>
     <use x="216.650391" xlink:href="#DejaVuSans-69"/>
     <use x="244.433594" xlink:href="#DejaVuSans-2d"/>
     <use x="280.517578" xlink:href="#DejaVuSans-6d"/>
     <use x="377.929688" xlink:href="#DejaVuSans-6f"/>
     <use x="439.111328" xlink:href="#DejaVuSans-64"/>
     <use x="502.587891" xlink:href="#DejaVuSans-61"/>
     <use x="563.867188" xlink:href="#DejaVuSans-6c"/>
     <use x="591.650391" xlink:href="#DejaVuSans-20"/>
     <use x="623.4375" xlink:href="#DejaVuSans-66"/>
     <use x="658.642578" xlink:href="#DejaVuSans-75"/>
     <use x="722.021484" xlink:href="#DejaVuSans-6e"/>
     <use x="785.400391" xlink:href="#DejaVuSans-63"/>
     <use x="840.380859" xlink:href="#DejaVuSans-74"/>
     <use x="879.589844" xlink:href="#DejaVuSans-69"/>
     <use x="907.373047" xlink:href="#DejaVuSans-6f"/>
     <use x="968.554688" xlink:href="#DejaVuSans-6e"/>
     <use x="1031.933594" xlink:href="#DejaVuSans-73"/>
     <use x="1084.033203" xlink:href="#DejaVuSans-2c"/>
     <use x="1115.820312" xlink:href="#DejaVuSans-20"/>
     <use x="1147.607422" xlink:href="#DejaVuSans-33"/>
     <use x="1211.230469" xlink:href="#DejaVuSans-2d"/>
     <use x="1247.314453" xlink:href="#DejaVuSans-44"/>
    </g>
    <!-- 51 targets: 100..1e-08 -->
    <g transform="translate(60.41088 37.004824)scale(0.102 -0.102)">
     <defs>
      <path d="M 750 794 
L 1409 794 
L 1409 0 
L 750 0 
L 750 794 
z
M 750 3309 
L 1409 3309 
L 1409 2516 
L 750 2516 
L 750 3309 
z
" id="DejaVuSans-3a" transform="scale(0.015625)"/>
     </defs>
     <use xlink:href="#DejaVuSans-35"/>
     <use x="63.623047" xlink:href="#DejaVuSans-31"/>
     <use x="127.246094" xlink:href="#DejaVuSans-20"/>
     <use x="159.033203" xlink:href="#DejaVuSans-74"/>
     <use x="198.242188" xlink:href="#DejaVuSans-61"/>
     <use x="259.521484" xlink:href="#DejaVuSans-72"/>
     <use x="298.884766" xlink:href="#DejaVuSans-67"/>
     <use x="362.361328" xlink:href="#DejaVuSans-65"/>
     <use x="423.884766" xlink:href="#DejaVuSans-74"/>
     <use x="463.09375" xlink:href="#DejaVuSans-73"/>
     <use x="515.193359" xlink:href="#DejaVuSans-3a"/>
     <use x="548.884766" xlink:href="#DejaVuSans-20"/>
     <use x="580.671875" xlink:href="#DejaVuSans-31"/>
     <use x="644.294922" xlink:href="#DejaVuSans-30"/>
     <use x="707.917969" xlink:href="#DejaVuSans-30"/>
     <use x="771.541016" xlink:href="#DejaVuSans-2e"/>
     <use x="803.328125" xlink:href="#DejaVuSans-2e"/>
     <use x="835.115234" xlink:href="#DejaVuSans-31"/>
     <use x="898.738281" xlink:href="#DejaVuSans-65"/>
     <use x="960.261719" xlink:href="#DejaVuSans-2d"/>
     <use x="996.345703" xlink:href="#DejaVuSans-30"/>
     <use x="1059.96875" xlink:href="#DejaVuSans-38"/>
    </g>
    <!-- 15 instances -->
    <g transform="translate(60.41088 48.426593)scale(0.102 -0.102)">
     <use xlink:href="#DejaVuSans-31"/>
     <use x="63.623047" xlink:href="#DejaVuSans-35"/>
     <use x="127.246094" xlink:href="#DejaVuSans-20"/>
     <use x="159.033203" xlink:href="#DejaVuSans-69"/>
     <use x="186.816406" xlink:href="#DejaVuSans-6e"/>
     <use x="250.195312" xlink:href="#DejaVuSans-73"/>
     <use x="302.294922" xlink:href="#DejaVuSans-74"/>
     <use x="341.503906" xlink:href="#DejaVuSans-61"/>
     <use x="402.783203" xlink:href="#DejaVuSans-6e"/>
     <use x="466.162109" xlink:href="#DejaVuSans-63"/>
     <use x="521.142578" xlink:href="#DejaVuSans-65"/>
     <use x="582.666016" xlink:href="#DejaVuSans-73"/>
    </g>
   </g>
   <g id="text_19">
    <!-- v2.4 -->
    <g style="fill:#808080;" transform="translate(187.233062 293.909432)scale(0.1 -0.1)">
     <use xlink:href="#DejaVuSans-76"/>
     <use x="59.179688" xlink:href="#DejaVuSans-32"/>
     <use x="122.802734" xlink:href="#DejaVuSans-2e"/>
     <use x="154.589844" xlink:href="#DejaVuSans-34"/>
    </g>
   </g>
  </g>
 </g>
 <defs>
  <clipPath id="pdc986c7dc0">
   <rect height="295.488" width="281.088" x="57.6" y="3.456"/>
  </clipPath>
 </defs>
</svg>
