<?xml version="1.0" encoding="utf-8" standalone="no"?>
<!DOCTYPE svg PUBLIC "-//W3C//DTD SVG 1.1//EN"
  "http://www.w3.org/Graphics/SVG/1.1/DTD/svg11.dtd">
<svg height="345.6pt" version="1.1" viewBox="0 0 460.8 345.6" width="460.8pt" xmlns="http://www.w3.org/2000/svg" xmlns:xlink="http://www.w3.org/1999/xlink">
 <metadata>
  <rdf:RDF xmlns:cc="http://creativecommons.org/ns#" xmlns:dc="http://purl.org/dc/elements/1.1/" xmlns:rdf="http://www.w3.org/1999/02/22-rdf-syntax-ns#">
   <cc:Work>
    <dc:type rdf:resource="http://purl.org/dc/dcmitype/StillImage"/>
    <dc:date>2021-07-27T16:03:52.700777</dc:date>
    <dc:format>image/svg+xml</dc:format>
    <dc:creator>
     <cc:Agent>
      <dc:title>Matplotlib v3.4.2, https://matplotlib.org/</dc:title>
     </cc:Agent>
    </dc:creator>
   </cc:Work>
  </rdf:RDF>
 </metadata>
 <defs>
  <style type="text/css">*{stroke-linecap:butt;stroke-linejoin:round;}</style>
 </defs>
 <g id="figure_1">
  <g id="patch_1">
   <path d="M 0 345.6 
L 460.8 345.6 
L 460.8 0 
L 0 0 
z
" style="fill:#ffffff;"/>
  </g>
  <g id="axes_1">
   <g id="patch_2">
    <path d="M 57.6 298.944 
L 338.688 298.944 
L 338.688 3.456 
L 57.6 3.456 
z
" style="fill:#ffffff;"/>
   </g>
   <g id="matplotlib.axis_1">
    <g id="xtick_1">
     <g id="line2d_1">
      <path clip-path="url(#p8e43e1fb0b)" d="M 57.6 298.944 
L 57.6 3.456 
" style="fill:none;stroke:#b0b0b0;stroke-linecap:square;stroke-width:0.8;"/>
     </g>
     <g id="line2d_2">
      <defs>
       <path d="M 0 0 
L 0 3.5 
" id="m8540a0ddfc" style="stroke:#000000;stroke-width:0.8;"/>
      </defs>
      <g>
       <use style="stroke:#000000;stroke-width:0.8;" x="57.6" xlink:href="#m8540a0ddfc" y="298.944"/>
      </g>
     </g>
     <g id="text_1">
      <!-- 0 -->
      <g transform="translate(51.2375 321.140875)scale(0.2 -0.2)">
       <defs>
        <path d="M 2034 4250 
Q 1547 4250 1301 3770 
Q 1056 3291 1056 2328 
Q 1056 1369 1301 889 
Q 1547 409 2034 409 
Q 2525 409 2770 889 
Q 3016 1369 3016 2328 
Q 3016 3291 2770 3770 
Q 2525 4250 2034 4250 
z
M 2034 4750 
Q 2819 4750 3233 4129 
Q 3647 3509 3647 2328 
Q 3647 1150 3233 529 
Q 2819 -91 2034 -91 
Q 1250 -91 836 529 
Q 422 1150 422 2328 
Q 422 3509 836 4129 
Q 1250 4750 2034 4750 
z
" id="DejaVuSans-30" transform="scale(0.015625)"/>
       </defs>
       <use xlink:href="#DejaVuSans-30"/>
      </g>
     </g>
    </g>
    <g id="xtick_2">
     <g id="line2d_3">
      <path clip-path="url(#p8e43e1fb0b)" d="M 137.910857 298.944 
L 137.910857 3.456 
" style="fill:none;stroke:#b0b0b0;stroke-linecap:square;stroke-width:0.8;"/>
     </g>
     <g id="line2d_4">
      <g>
       <use style="stroke:#000000;stroke-width:0.8;" x="137.910857" xlink:href="#m8540a0ddfc" y="298.944"/>
      </g>
     </g>
     <g id="text_2">
      <!-- 2 -->
      <g transform="translate(131.548357 321.140875)scale(0.2 -0.2)">
       <defs>
        <path d="M 1228 531 
L 3431 531 
L 3431 0 
L 469 0 
L 469 531 
Q 828 903 1448 1529 
Q 2069 2156 2228 2338 
Q 2531 2678 2651 2914 
Q 2772 3150 2772 3378 
Q 2772 3750 2511 3984 
Q 2250 4219 1831 4219 
Q 1534 4219 1204 4116 
Q 875 4013 500 3803 
L 500 4441 
Q 881 4594 1212 4672 
Q 1544 4750 1819 4750 
Q 2544 4750 2975 4387 
Q 3406 4025 3406 3419 
Q 3406 3131 3298 2873 
Q 3191 2616 2906 2266 
Q 2828 2175 2409 1742 
Q 1991 1309 1228 531 
z
" id="DejaVuSans-32" transform="scale(0.015625)"/>
       </defs>
       <use xlink:href="#DejaVuSans-32"/>
      </g>
     </g>
    </g>
    <g id="xtick_3">
     <g id="line2d_5">
      <path clip-path="url(#p8e43e1fb0b)" d="M 218.221714 298.944 
L 218.221714 3.456 
" style="fill:none;stroke:#b0b0b0;stroke-linecap:square;stroke-width:0.8;"/>
     </g>
     <g id="line2d_6">
      <g>
       <use style="stroke:#000000;stroke-width:0.8;" x="218.221714" xlink:href="#m8540a0ddfc" y="298.944"/>
      </g>
     </g>
     <g id="text_3">
      <!-- 4 -->
      <g transform="translate(211.859214 321.140875)scale(0.2 -0.2)">
       <defs>
        <path d="M 2419 4116 
L 825 1625 
L 2419 1625 
L 2419 4116 
z
M 2253 4666 
L 3047 4666 
L 3047 1625 
L 3713 1625 
L 3713 1100 
L 3047 1100 
L 3047 0 
L 2419 0 
L 2419 1100 
L 313 1100 
L 313 1709 
L 2253 4666 
z
" id="DejaVuSans-34" transform="scale(0.015625)"/>
       </defs>
       <use xlink:href="#DejaVuSans-34"/>
      </g>
     </g>
    </g>
    <g id="xtick_4">
     <g id="line2d_7">
      <path clip-path="url(#p8e43e1fb0b)" d="M 298.532571 298.944 
L 298.532571 3.456 
" style="fill:none;stroke:#b0b0b0;stroke-linecap:square;stroke-width:0.8;"/>
     </g>
     <g id="line2d_8">
      <g>
       <use style="stroke:#000000;stroke-width:0.8;" x="298.532571" xlink:href="#m8540a0ddfc" y="298.944"/>
      </g>
     </g>
     <g id="text_4">
      <!-- 6 -->
      <g transform="translate(292.170071 321.140875)scale(0.2 -0.2)">
       <defs>
        <path d="M 2113 2584 
Q 1688 2584 1439 2293 
Q 1191 2003 1191 1497 
Q 1191 994 1439 701 
Q 1688 409 2113 409 
Q 2538 409 2786 701 
Q 3034 994 3034 1497 
Q 3034 2003 2786 2293 
Q 2538 2584 2113 2584 
z
M 3366 4563 
L 3366 3988 
Q 3128 4100 2886 4159 
Q 2644 4219 2406 4219 
Q 1781 4219 1451 3797 
Q 1122 3375 1075 2522 
Q 1259 2794 1537 2939 
Q 1816 3084 2150 3084 
Q 2853 3084 3261 2657 
Q 3669 2231 3669 1497 
Q 3669 778 3244 343 
Q 2819 -91 2113 -91 
Q 1303 -91 875 529 
Q 447 1150 447 2328 
Q 447 3434 972 4092 
Q 1497 4750 2381 4750 
Q 2619 4750 2861 4703 
Q 3103 4656 3366 4563 
z
" id="DejaVuSans-36" transform="scale(0.015625)"/>
       </defs>
       <use xlink:href="#DejaVuSans-36"/>
      </g>
     </g>
    </g>
    <g id="xtick_5">
     <g id="line2d_9">
      <path clip-path="url(#p8e43e1fb0b)" d="M 97.755429 298.944 
L 97.755429 3.456 
" style="fill:none;stroke:#b0b0b0;stroke-linecap:square;stroke-width:0.8;"/>
     </g>
     <g id="line2d_10">
      <defs>
       <path d="M 0 0 
L 0 2 
" id="m309b70b6ae" style="stroke:#000000;stroke-width:0.6;"/>
      </defs>
      <g>
       <use style="stroke:#000000;stroke-width:0.6;" x="97.755429" xlink:href="#m309b70b6ae" y="298.944"/>
      </g>
     </g>
    </g>
    <g id="xtick_6">
     <g id="line2d_11">
      <path clip-path="url(#p8e43e1fb0b)" d="M 178.066286 298.944 
L 178.066286 3.456 
" style="fill:none;stroke:#b0b0b0;stroke-linecap:square;stroke-width:0.8;"/>
     </g>
     <g id="line2d_12">
      <g>
       <use style="stroke:#000000;stroke-width:0.6;" x="178.066286" xlink:href="#m309b70b6ae" y="298.944"/>
      </g>
     </g>
    </g>
    <g id="xtick_7">
     <g id="line2d_13">
      <path clip-path="url(#p8e43e1fb0b)" d="M 258.377143 298.944 
L 258.377143 3.456 
" style="fill:none;stroke:#b0b0b0;stroke-linecap:square;stroke-width:0.8;"/>
     </g>
     <g id="line2d_14">
      <g>
       <use style="stroke:#000000;stroke-width:0.6;" x="258.377143" xlink:href="#m309b70b6ae" y="298.944"/>
      </g>
     </g>
    </g>
    <g id="xtick_8">
     <g id="line2d_15">
      <path clip-path="url(#p8e43e1fb0b)" d="M 338.688 298.944 
L 338.688 3.456 
" style="fill:none;stroke:#b0b0b0;stroke-linecap:square;stroke-width:0.8;"/>
     </g>
     <g id="line2d_16">
      <g>
       <use style="stroke:#000000;stroke-width:0.6;" x="338.688" xlink:href="#m309b70b6ae" y="298.944"/>
      </g>
     </g>
    </g>
    <g id="text_5">
     <!-- log10(# f-evals / dimension) -->
     <g transform="translate(77.764078 342.217594)scale(0.17 -0.17)">
      <defs>
       <path d="M 603 4863 
L 1178 4863 
L 1178 0 
L 603 0 
L 603 4863 
z
" id="DejaVuSans-6c" transform="scale(0.015625)"/>
       <path d="M 1959 3097 
Q 1497 3097 1228 2736 
Q 959 2375 959 1747 
Q 959 1119 1226 758 
Q 1494 397 1959 397 
Q 2419 397 2687 759 
Q 2956 1122 2956 1747 
Q 2956 2369 2687 2733 
Q 2419 3097 1959 3097 
z
M 1959 3584 
Q 2709 3584 3137 3096 
Q 3566 2609 3566 1747 
Q 3566 888 3137 398 
Q 2709 -91 1959 -91 
Q 1206 -91 779 398 
Q 353 888 353 1747 
Q 353 2609 779 3096 
Q 1206 3584 1959 3584 
z
" id="DejaVuSans-6f" transform="scale(0.015625)"/>
       <path d="M 2906 1791 
Q 2906 2416 2648 2759 
Q 2391 3103 1925 3103 
Q 1463 3103 1205 2759 
Q 947 2416 947 1791 
Q 947 1169 1205 825 
Q 1463 481 1925 481 
Q 2391 481 2648 825 
Q 2906 1169 2906 1791 
z
M 3481 434 
Q 3481 -459 3084 -895 
Q 2688 -1331 1869 -1331 
Q 1566 -1331 1297 -1286 
Q 1028 -1241 775 -1147 
L 775 -588 
Q 1028 -725 1275 -790 
Q 1522 -856 1778 -856 
Q 2344 -856 2625 -561 
Q 2906 -266 2906 331 
L 2906 616 
Q 2728 306 2450 153 
Q 2172 0 1784 0 
Q 1141 0 747 490 
Q 353 981 353 1791 
Q 353 2603 747 3093 
Q 1141 3584 1784 3584 
Q 2172 3584 2450 3431 
Q 2728 3278 2906 2969 
L 2906 3500 
L 3481 3500 
L 3481 434 
z
" id="DejaVuSans-67" transform="scale(0.015625)"/>
       <path d="M 794 531 
L 1825 531 
L 1825 4091 
L 703 3866 
L 703 4441 
L 1819 4666 
L 2450 4666 
L 2450 531 
L 3481 531 
L 3481 0 
L 794 0 
L 794 531 
z
" id="DejaVuSans-31" transform="scale(0.015625)"/>
       <path d="M 1984 4856 
Q 1566 4138 1362 3434 
Q 1159 2731 1159 2009 
Q 1159 1288 1364 580 
Q 1569 -128 1984 -844 
L 1484 -844 
Q 1016 -109 783 600 
Q 550 1309 550 2009 
Q 550 2706 781 3412 
Q 1013 4119 1484 4856 
L 1984 4856 
z
" id="DejaVuSans-28" transform="scale(0.015625)"/>
       <path d="M 3272 2816 
L 2363 2816 
L 2100 1772 
L 3016 1772 
L 3272 2816 
z
M 2803 4594 
L 2478 3297 
L 3391 3297 
L 3719 4594 
L 4219 4594 
L 3897 3297 
L 4872 3297 
L 4872 2816 
L 3775 2816 
L 3519 1772 
L 4513 1772 
L 4513 1294 
L 3397 1294 
L 3072 0 
L 2572 0 
L 2894 1294 
L 1978 1294 
L 1656 0 
L 1153 0 
L 1478 1294 
L 494 1294 
L 494 1772 
L 1594 1772 
L 1856 2816 
L 850 2816 
L 850 3297 
L 1978 3297 
L 2297 4594 
L 2803 4594 
z
" id="DejaVuSans-23" transform="scale(0.015625)"/>
       <path id="DejaVuSans-20" transform="scale(0.015625)"/>
       <path d="M 2375 4863 
L 2375 4384 
L 1825 4384 
Q 1516 4384 1395 4259 
Q 1275 4134 1275 3809 
L 1275 3500 
L 2222 3500 
L 2222 3053 
L 1275 3053 
L 1275 0 
L 697 0 
L 697 3053 
L 147 3053 
L 147 3500 
L 697 3500 
L 697 3744 
Q 697 4328 969 4595 
Q 1241 4863 1831 4863 
L 2375 4863 
z
" id="DejaVuSans-66" transform="scale(0.015625)"/>
       <path d="M 313 2009 
L 1997 2009 
L 1997 1497 
L 313 1497 
L 313 2009 
z
" id="DejaVuSans-2d" transform="scale(0.015625)"/>
       <path d="M 3597 1894 
L 3597 1613 
L 953 1613 
Q 991 1019 1311 708 
Q 1631 397 2203 397 
Q 2534 397 2845 478 
Q 3156 559 3463 722 
L 3463 178 
Q 3153 47 2828 -22 
Q 2503 -91 2169 -91 
Q 1331 -91 842 396 
Q 353 884 353 1716 
Q 353 2575 817 3079 
Q 1281 3584 2069 3584 
Q 2775 3584 3186 3129 
Q 3597 2675 3597 1894 
z
M 3022 2063 
Q 3016 2534 2758 2815 
Q 2500 3097 2075 3097 
Q 1594 3097 1305 2825 
Q 1016 2553 972 2059 
L 3022 2063 
z
" id="DejaVuSans-65" transform="scale(0.015625)"/>
       <path d="M 191 3500 
L 800 3500 
L 1894 563 
L 2988 3500 
L 3597 3500 
L 2284 0 
L 1503 0 
L 191 3500 
z
" id="DejaVuSans-76" transform="scale(0.015625)"/>
       <path d="M 2194 1759 
Q 1497 1759 1228 1600 
Q 959 1441 959 1056 
Q 959 750 1161 570 
Q 1363 391 1709 391 
Q 2188 391 2477 730 
Q 2766 1069 2766 1631 
L 2766 1759 
L 2194 1759 
z
M 3341 1997 
L 3341 0 
L 2766 0 
L 2766 531 
Q 2569 213 2275 61 
Q 1981 -91 1556 -91 
Q 1019 -91 701 211 
Q 384 513 384 1019 
Q 384 1609 779 1909 
Q 1175 2209 1959 2209 
L 2766 2209 
L 2766 2266 
Q 2766 2663 2505 2880 
Q 2244 3097 1772 3097 
Q 1472 3097 1187 3025 
Q 903 2953 641 2809 
L 641 3341 
Q 956 3463 1253 3523 
Q 1550 3584 1831 3584 
Q 2591 3584 2966 3190 
Q 3341 2797 3341 1997 
z
" id="DejaVuSans-61" transform="scale(0.015625)"/>
       <path d="M 2834 3397 
L 2834 2853 
Q 2591 2978 2328 3040 
Q 2066 3103 1784 3103 
Q 1356 3103 1142 2972 
Q 928 2841 928 2578 
Q 928 2378 1081 2264 
Q 1234 2150 1697 2047 
L 1894 2003 
Q 2506 1872 2764 1633 
Q 3022 1394 3022 966 
Q 3022 478 2636 193 
Q 2250 -91 1575 -91 
Q 1294 -91 989 -36 
Q 684 19 347 128 
L 347 722 
Q 666 556 975 473 
Q 1284 391 1588 391 
Q 1994 391 2212 530 
Q 2431 669 2431 922 
Q 2431 1156 2273 1281 
Q 2116 1406 1581 1522 
L 1381 1569 
Q 847 1681 609 1914 
Q 372 2147 372 2553 
Q 372 3047 722 3315 
Q 1072 3584 1716 3584 
Q 2034 3584 2315 3537 
Q 2597 3491 2834 3397 
z
" id="DejaVuSans-73" transform="scale(0.015625)"/>
       <path d="M 1625 4666 
L 2156 4666 
L 531 -594 
L 0 -594 
L 1625 4666 
z
" id="DejaVuSans-2f" transform="scale(0.015625)"/>
       <path d="M 2906 2969 
L 2906 4863 
L 3481 4863 
L 3481 0 
L 2906 0 
L 2906 525 
Q 2725 213 2448 61 
Q 2172 -91 1784 -91 
Q 1150 -91 751 415 
Q 353 922 353 1747 
Q 353 2572 751 3078 
Q 1150 3584 1784 3584 
Q 2172 3584 2448 3432 
Q 2725 3281 2906 2969 
z
M 947 1747 
Q 947 1113 1208 752 
Q 1469 391 1925 391 
Q 2381 391 2643 752 
Q 2906 1113 2906 1747 
Q 2906 2381 2643 2742 
Q 2381 3103 1925 3103 
Q 1469 3103 1208 2742 
Q 947 2381 947 1747 
z
" id="DejaVuSans-64" transform="scale(0.015625)"/>
       <path d="M 603 3500 
L 1178 3500 
L 1178 0 
L 603 0 
L 603 3500 
z
M 603 4863 
L 1178 4863 
L 1178 4134 
L 603 4134 
L 603 4863 
z
" id="DejaVuSans-69" transform="scale(0.015625)"/>
       <path d="M 3328 2828 
Q 3544 3216 3844 3400 
Q 4144 3584 4550 3584 
Q 5097 3584 5394 3201 
Q 5691 2819 5691 2113 
L 5691 0 
L 5113 0 
L 5113 2094 
Q 5113 2597 4934 2840 
Q 4756 3084 4391 3084 
Q 3944 3084 3684 2787 
Q 3425 2491 3425 1978 
L 3425 0 
L 2847 0 
L 2847 2094 
Q 2847 2600 2669 2842 
Q 2491 3084 2119 3084 
Q 1678 3084 1418 2786 
Q 1159 2488 1159 1978 
L 1159 0 
L 581 0 
L 581 3500 
L 1159 3500 
L 1159 2956 
Q 1356 3278 1631 3431 
Q 1906 3584 2284 3584 
Q 2666 3584 2933 3390 
Q 3200 3197 3328 2828 
z
" id="DejaVuSans-6d" transform="scale(0.015625)"/>
       <path d="M 3513 2113 
L 3513 0 
L 2938 0 
L 2938 2094 
Q 2938 2591 2744 2837 
Q 2550 3084 2163 3084 
Q 1697 3084 1428 2787 
Q 1159 2491 1159 1978 
L 1159 0 
L 581 0 
L 581 3500 
L 1159 3500 
L 1159 2956 
Q 1366 3272 1645 3428 
Q 1925 3584 2291 3584 
Q 2894 3584 3203 3211 
Q 3513 2838 3513 2113 
z
" id="DejaVuSans-6e" transform="scale(0.015625)"/>
       <path d="M 513 4856 
L 1013 4856 
Q 1481 4119 1714 3412 
Q 1947 2706 1947 2009 
Q 1947 1309 1714 600 
Q 1481 -109 1013 -844 
L 513 -844 
Q 928 -128 1133 580 
Q 1338 1288 1338 2009 
Q 1338 2731 1133 3434 
Q 928 4138 513 4856 
z
" id="DejaVuSans-29" transform="scale(0.015625)"/>
      </defs>
      <use xlink:href="#DejaVuSans-6c"/>
      <use x="27.783203" xlink:href="#DejaVuSans-6f"/>
      <use x="88.964844" xlink:href="#DejaVuSans-67"/>
      <use x="152.441406" xlink:href="#DejaVuSans-31"/>
      <use x="216.064453" xlink:href="#DejaVuSans-30"/>
      <use x="279.6875" xlink:href="#DejaVuSans-28"/>
      <use x="318.701172" xlink:href="#DejaVuSans-23"/>
      <use x="402.490234" xlink:href="#DejaVuSans-20"/>
      <use x="434.277344" xlink:href="#DejaVuSans-66"/>
      <use x="463.982422" xlink:href="#DejaVuSans-2d"/>
      <use x="500.066406" xlink:href="#DejaVuSans-65"/>
      <use x="561.589844" xlink:href="#DejaVuSans-76"/>
      <use x="620.769531" xlink:href="#DejaVuSans-61"/>
      <use x="682.048828" xlink:href="#DejaVuSans-6c"/>
      <use x="709.832031" xlink:href="#DejaVuSans-73"/>
      <use x="761.931641" xlink:href="#DejaVuSans-20"/>
      <use x="793.71875" xlink:href="#DejaVuSans-2f"/>
      <use x="827.410156" xlink:href="#DejaVuSans-20"/>
      <use x="859.197266" xlink:href="#DejaVuSans-64"/>
      <use x="922.673828" xlink:href="#DejaVuSans-69"/>
      <use x="950.457031" xlink:href="#DejaVuSans-6d"/>
      <use x="1047.869141" xlink:href="#DejaVuSans-65"/>
      <use x="1109.392578" xlink:href="#DejaVuSans-6e"/>
      <use x="1172.771484" xlink:href="#DejaVuSans-73"/>
      <use x="1224.871094" xlink:href="#DejaVuSans-69"/>
      <use x="1252.654297" xlink:href="#DejaVuSans-6f"/>
      <use x="1313.835938" xlink:href="#DejaVuSans-6e"/>
      <use x="1377.214844" xlink:href="#DejaVuSans-29"/>
     </g>
    </g>
   </g>
   <g id="matplotlib.axis_2">
    <g id="ytick_1">
     <g id="line2d_17">
      <path clip-path="url(#p8e43e1fb0b)" d="M 57.6 298.944 
L 338.688 298.944 
" style="fill:none;stroke:#b0b0b0;stroke-linecap:square;stroke-width:0.8;"/>
     </g>
     <g id="line2d_18">
      <defs>
       <path d="M 0 0 
L -3.5 0 
" id="mbfb5527fe1" style="stroke:#000000;stroke-width:0.8;"/>
      </defs>
      <g>
       <use style="stroke:#000000;stroke-width:0.8;" x="57.6" xlink:href="#mbfb5527fe1" y="298.944"/>
      </g>
     </g>
     <g id="text_6">
      <!-- 0.0 -->
      <g transform="translate(25.155 305.02275)scale(0.16 -0.16)">
       <defs>
        <path d="M 684 794 
L 1344 794 
L 1344 0 
L 684 0 
L 684 794 
z
" id="DejaVuSans-2e" transform="scale(0.015625)"/>
       </defs>
       <use xlink:href="#DejaVuSans-30"/>
       <use x="63.623047" xlink:href="#DejaVuSans-2e"/>
       <use x="95.410156" xlink:href="#DejaVuSans-30"/>
      </g>
     </g>
    </g>
    <g id="ytick_2">
     <g id="line2d_19">
      <path clip-path="url(#p8e43e1fb0b)" d="M 57.6 240.431525 
L 338.688 240.431525 
" style="fill:none;stroke:#b0b0b0;stroke-linecap:square;stroke-width:0.8;"/>
     </g>
     <g id="line2d_20">
      <g>
       <use style="stroke:#000000;stroke-width:0.8;" x="57.6" xlink:href="#mbfb5527fe1" y="240.431525"/>
      </g>
     </g>
     <g id="text_7">
      <!-- 0.2 -->
      <g transform="translate(25.155 246.510275)scale(0.16 -0.16)">
       <use xlink:href="#DejaVuSans-30"/>
       <use x="63.623047" xlink:href="#DejaVuSans-2e"/>
       <use x="95.410156" xlink:href="#DejaVuSans-32"/>
      </g>
     </g>
    </g>
    <g id="ytick_3">
     <g id="line2d_21">
      <path clip-path="url(#p8e43e1fb0b)" d="M 57.6 181.91905 
L 338.688 181.91905 
" style="fill:none;stroke:#b0b0b0;stroke-linecap:square;stroke-width:0.8;"/>
     </g>
     <g id="line2d_22">
      <g>
       <use style="stroke:#000000;stroke-width:0.8;" x="57.6" xlink:href="#mbfb5527fe1" y="181.91905"/>
      </g>
     </g>
     <g id="text_8">
      <!-- 0.4 -->
      <g transform="translate(25.155 187.9978)scale(0.16 -0.16)">
       <use xlink:href="#DejaVuSans-30"/>
       <use x="63.623047" xlink:href="#DejaVuSans-2e"/>
       <use x="95.410156" xlink:href="#DejaVuSans-34"/>
      </g>
     </g>
    </g>
    <g id="ytick_4">
     <g id="line2d_23">
      <path clip-path="url(#p8e43e1fb0b)" d="M 57.6 123.406574 
L 338.688 123.406574 
" style="fill:none;stroke:#b0b0b0;stroke-linecap:square;stroke-width:0.8;"/>
     </g>
     <g id="line2d_24">
      <g>
       <use style="stroke:#000000;stroke-width:0.8;" x="57.6" xlink:href="#mbfb5527fe1" y="123.406574"/>
      </g>
     </g>
     <g id="text_9">
      <!-- 0.6 -->
      <g transform="translate(25.155 129.485324)scale(0.16 -0.16)">
       <use xlink:href="#DejaVuSans-30"/>
       <use x="63.623047" xlink:href="#DejaVuSans-2e"/>
       <use x="95.410156" xlink:href="#DejaVuSans-36"/>
      </g>
     </g>
    </g>
    <g id="ytick_5">
     <g id="line2d_25">
      <path clip-path="url(#p8e43e1fb0b)" d="M 57.6 64.894099 
L 338.688 64.894099 
" style="fill:none;stroke:#b0b0b0;stroke-linecap:square;stroke-width:0.8;"/>
     </g>
     <g id="line2d_26">
      <g>
       <use style="stroke:#000000;stroke-width:0.8;" x="57.6" xlink:href="#mbfb5527fe1" y="64.894099"/>
      </g>
     </g>
     <g id="text_10">
      <!-- 0.8 -->
      <g transform="translate(25.155 70.972849)scale(0.16 -0.16)">
       <defs>
        <path d="M 2034 2216 
Q 1584 2216 1326 1975 
Q 1069 1734 1069 1313 
Q 1069 891 1326 650 
Q 1584 409 2034 409 
Q 2484 409 2743 651 
Q 3003 894 3003 1313 
Q 3003 1734 2745 1975 
Q 2488 2216 2034 2216 
z
M 1403 2484 
Q 997 2584 770 2862 
Q 544 3141 544 3541 
Q 544 4100 942 4425 
Q 1341 4750 2034 4750 
Q 2731 4750 3128 4425 
Q 3525 4100 3525 3541 
Q 3525 3141 3298 2862 
Q 3072 2584 2669 2484 
Q 3125 2378 3379 2068 
Q 3634 1759 3634 1313 
Q 3634 634 3220 271 
Q 2806 -91 2034 -91 
Q 1263 -91 848 271 
Q 434 634 434 1313 
Q 434 1759 690 2068 
Q 947 2378 1403 2484 
z
M 1172 3481 
Q 1172 3119 1398 2916 
Q 1625 2713 2034 2713 
Q 2441 2713 2670 2916 
Q 2900 3119 2900 3481 
Q 2900 3844 2670 4047 
Q 2441 4250 2034 4250 
Q 1625 4250 1398 4047 
Q 1172 3844 1172 3481 
z
" id="DejaVuSans-38" transform="scale(0.015625)"/>
       </defs>
       <use xlink:href="#DejaVuSans-30"/>
       <use x="63.623047" xlink:href="#DejaVuSans-2e"/>
       <use x="95.410156" xlink:href="#DejaVuSans-38"/>
      </g>
     </g>
    </g>
    <g id="ytick_6">
     <g id="line2d_27">
      <path clip-path="url(#p8e43e1fb0b)" d="M 57.6 6.381624 
L 338.688 6.381624 
" style="fill:none;stroke:#b0b0b0;stroke-linecap:square;stroke-width:0.8;"/>
     </g>
     <g id="line2d_28">
      <g>
       <use style="stroke:#000000;stroke-width:0.8;" x="57.6" xlink:href="#mbfb5527fe1" y="6.381624"/>
      </g>
     </g>
     <g id="text_11">
      <!-- 1.0 -->
      <g transform="translate(25.155 12.460374)scale(0.16 -0.16)">
       <use xlink:href="#DejaVuSans-31"/>
       <use x="63.623047" xlink:href="#DejaVuSans-2e"/>
       <use x="95.410156" xlink:href="#DejaVuSans-30"/>
      </g>
     </g>
    </g>
    <g id="text_12">
     <!-- Fraction of function,target pairs -->
     <g transform="translate(17.619531 285.585)rotate(-90)scale(0.17 -0.17)">
      <defs>
       <path d="M 628 4666 
L 3309 4666 
L 3309 4134 
L 1259 4134 
L 1259 2759 
L 3109 2759 
L 3109 2228 
L 1259 2228 
L 1259 0 
L 628 0 
L 628 4666 
z
" id="DejaVuSans-46" transform="scale(0.015625)"/>
       <path d="M 2631 2963 
Q 2534 3019 2420 3045 
Q 2306 3072 2169 3072 
Q 1681 3072 1420 2755 
Q 1159 2438 1159 1844 
L 1159 0 
L 581 0 
L 581 3500 
L 1159 3500 
L 1159 2956 
Q 1341 3275 1631 3429 
Q 1922 3584 2338 3584 
Q 2397 3584 2469 3576 
Q 2541 3569 2628 3553 
L 2631 2963 
z
" id="DejaVuSans-72" transform="scale(0.015625)"/>
       <path d="M 3122 3366 
L 3122 2828 
Q 2878 2963 2633 3030 
Q 2388 3097 2138 3097 
Q 1578 3097 1268 2742 
Q 959 2388 959 1747 
Q 959 1106 1268 751 
Q 1578 397 2138 397 
Q 2388 397 2633 464 
Q 2878 531 3122 666 
L 3122 134 
Q 2881 22 2623 -34 
Q 2366 -91 2075 -91 
Q 1284 -91 818 406 
Q 353 903 353 1747 
Q 353 2603 823 3093 
Q 1294 3584 2113 3584 
Q 2378 3584 2631 3529 
Q 2884 3475 3122 3366 
z
" id="DejaVuSans-63" transform="scale(0.015625)"/>
       <path d="M 1172 4494 
L 1172 3500 
L 2356 3500 
L 2356 3053 
L 1172 3053 
L 1172 1153 
Q 1172 725 1289 603 
Q 1406 481 1766 481 
L 2356 481 
L 2356 0 
L 1766 0 
Q 1100 0 847 248 
Q 594 497 594 1153 
L 594 3053 
L 172 3053 
L 172 3500 
L 594 3500 
L 594 4494 
L 1172 4494 
z
" id="DejaVuSans-74" transform="scale(0.015625)"/>
       <path d="M 544 1381 
L 544 3500 
L 1119 3500 
L 1119 1403 
Q 1119 906 1312 657 
Q 1506 409 1894 409 
Q 2359 409 2629 706 
Q 2900 1003 2900 1516 
L 2900 3500 
L 3475 3500 
L 3475 0 
L 2900 0 
L 2900 538 
Q 2691 219 2414 64 
Q 2138 -91 1772 -91 
Q 1169 -91 856 284 
Q 544 659 544 1381 
z
M 1991 3584 
L 1991 3584 
z
" id="DejaVuSans-75" transform="scale(0.015625)"/>
       <path d="M 750 794 
L 1409 794 
L 1409 256 
L 897 -744 
L 494 -744 
L 750 256 
L 750 794 
z
" id="DejaVuSans-2c" transform="scale(0.015625)"/>
       <path d="M 1159 525 
L 1159 -1331 
L 581 -1331 
L 581 3500 
L 1159 3500 
L 1159 2969 
Q 1341 3281 1617 3432 
Q 1894 3584 2278 3584 
Q 2916 3584 3314 3078 
Q 3713 2572 3713 1747 
Q 3713 922 3314 415 
Q 2916 -91 2278 -91 
Q 1894 -91 1617 61 
Q 1341 213 1159 525 
z
M 3116 1747 
Q 3116 2381 2855 2742 
Q 2594 3103 2138 3103 
Q 1681 3103 1420 2742 
Q 1159 2381 1159 1747 
Q 1159 1113 1420 752 
Q 1681 391 2138 391 
Q 2594 391 2855 752 
Q 3116 1113 3116 1747 
z
" id="DejaVuSans-70" transform="scale(0.015625)"/>
      </defs>
      <use xlink:href="#DejaVuSans-46"/>
      <use x="50.269531" xlink:href="#DejaVuSans-72"/>
      <use x="91.382812" xlink:href="#DejaVuSans-61"/>
      <use x="152.662109" xlink:href="#DejaVuSans-63"/>
      <use x="207.642578" xlink:href="#DejaVuSans-74"/>
      <use x="246.851562" xlink:href="#DejaVuSans-69"/>
      <use x="274.634766" xlink:href="#DejaVuSans-6f"/>
      <use x="335.816406" xlink:href="#DejaVuSans-6e"/>
      <use x="399.195312" xlink:href="#DejaVuSans-20"/>
      <use x="430.982422" xlink:href="#DejaVuSans-6f"/>
      <use x="492.164062" xlink:href="#DejaVuSans-66"/>
      <use x="527.369141" xlink:href="#DejaVuSans-20"/>
      <use x="559.15625" xlink:href="#DejaVuSans-66"/>
      <use x="594.361328" xlink:href="#DejaVuSans-75"/>
      <use x="657.740234" xlink:href="#DejaVuSans-6e"/>
      <use x="721.119141" xlink:href="#DejaVuSans-63"/>
      <use x="776.099609" xlink:href="#DejaVuSans-74"/>
      <use x="815.308594" xlink:href="#DejaVuSans-69"/>
      <use x="843.091797" xlink:href="#DejaVuSans-6f"/>
      <use x="904.273438" xlink:href="#DejaVuSans-6e"/>
      <use x="967.652344" xlink:href="#DejaVuSans-2c"/>
      <use x="999.439453" xlink:href="#DejaVuSans-74"/>
      <use x="1038.648438" xlink:href="#DejaVuSans-61"/>
      <use x="1099.927734" xlink:href="#DejaVuSans-72"/>
      <use x="1139.291016" xlink:href="#DejaVuSans-67"/>
      <use x="1202.767578" xlink:href="#DejaVuSans-65"/>
      <use x="1264.291016" xlink:href="#DejaVuSans-74"/>
      <use x="1303.5" xlink:href="#DejaVuSans-20"/>
      <use x="1335.287109" xlink:href="#DejaVuSans-70"/>
      <use x="1398.763672" xlink:href="#DejaVuSans-61"/>
      <use x="1460.042969" xlink:href="#DejaVuSans-69"/>
      <use x="1487.826172" xlink:href="#DejaVuSans-72"/>
      <use x="1528.939453" xlink:href="#DejaVuSans-73"/>
     </g>
    </g>
   </g>
   <g id="line2d_29">
    <defs>
     <path d="M 0 1.5 
C 0.397805 1.5 0.77937 1.341951 1.06066 1.06066 
C 1.341951 0.77937 1.5 0.397805 1.5 0 
C 1.5 -0.397805 1.341951 -0.77937 1.06066 -1.06066 
C 0.77937 -1.341951 0.397805 -1.5 0 -1.5 
C -0.397805 -1.5 -0.77937 -1.341951 -1.06066 -1.06066 
C -1.341951 -0.77937 -1.5 -0.397805 -1.5 0 
C -1.5 0.397805 -1.341951 0.77937 -1.06066 1.06066 
C -0.77937 1.341951 -0.397805 1.5 0 1.5 
z
" id="m174e592c57" style="stroke:#000080;"/>
    </defs>
    <g>
     <use style="fill:#000080;stroke:#000080;" x="177.758396" xlink:href="#m174e592c57" y="6.381624"/>
     <use style="fill:#000080;stroke:#000080;" x="177.758396" xlink:href="#m174e592c57" y="6.381624"/>
    </g>
   </g>
   <g id="line2d_30">
    <path d="M 118.838828 298.944 
L 118.838828 296.649393 
L 124.368753 296.649393 
L 124.368753 295.50209 
L 128.709321 295.50209 
L 128.709321 294.354786 
L 136.073445 294.354786 
L 136.073445 293.207483 
L 136.361705 293.207483 
L 136.361705 292.633831 
L 139.009092 292.633831 
L 139.009092 290.912876 
L 139.572998 290.912876 
L 139.572998 288.618269 
L 139.8092 288.618269 
L 139.8092 287.470966 
L 141.521035 287.470966 
L 141.521035 286.897314 
L 141.80232 286.897314 
L 141.871938 282.881752 
L 143.208936 282.881752 
L 143.208936 280.587145 
L 144.330419 280.587145 
L 144.330419 279.439842 
L 144.570138 279.439842 
L 144.570138 275.997931 
L 145.097753 275.997931 
L 145.097753 274.850628 
L 145.609873 274.850628 
L 145.609873 273.703324 
L 145.721664 273.703324 
L 145.777292 269.114111 
L 145.943118 269.114111 
L 145.943118 267.966807 
L 146.270114 267.966807 
L 146.270114 266.245852 
L 146.958248 266.245852 
L 146.958248 265.6722 
L 147.266916 265.6722 
L 147.266916 265.098549 
L 148.112924 265.098549 
L 148.209809 259.362031 
L 149.377533 259.362031 
L 149.377533 258.214728 
L 149.911431 258.214728 
L 149.911431 257.641076 
L 150.640855 257.641076 
L 150.682827 254.199166 
L 150.891184 254.199166 
L 150.891184 253.625514 
L 151.219462 253.625514 
L 151.300575 251.330907 
L 151.700576 251.330907 
L 151.700576 250.183604 
L 151.897188 250.183604 
L 151.897188 249.609952 
L 152.130233 249.609952 
L 152.130233 249.036301 
L 152.549559 249.036301 
L 152.549559 248.462649 
L 154.098334 248.462649 
L 154.132765 244.447087 
L 154.473387 244.447087 
L 154.473387 243.873435 
L 154.607795 243.873435 
L 154.607795 242.726132 
L 154.807483 242.726132 
L 154.807483 241.578828 
L 154.972161 241.578828 
L 154.972161 240.431525 
L 155.167744 240.431525 
L 155.232454 236.415963 
L 155.520713 236.415963 
L 155.520713 235.842311 
L 155.710272 235.842311 
L 155.710272 234.695008 
L 156.687861 234.695008 
L 156.687861 234.121356 
L 157.185742 234.121356 
L 157.185742 233.547704 
L 157.613546 233.547704 
L 157.613546 232.974052 
L 157.753847 232.974052 
L 157.809652 228.95849 
L 158.058592 228.95849 
L 158.058592 228.384839 
L 158.546057 228.384839 
L 158.625992 226.663884 
L 158.705563 226.663884 
L 158.705563 225.51658 
L 158.889829 225.51658 
L 158.889829 224.369277 
L 159.380382 224.369277 
L 159.380382 222.07467 
L 159.608019 222.07467 
L 159.608019 218.632759 
L 159.758143 218.632759 
L 159.758143 216.911804 
L 159.882266 216.911804 
L 159.882266 214.043546 
L 160.103486 214.043546 
L 160.176607 212.896242 
L 160.537682 212.896242 
L 160.537682 211.748939 
L 160.656397 211.748939 
L 160.656397 211.175287 
L 160.797798 211.175287 
L 160.797798 210.601635 
L 161.146363 210.601635 
L 161.192316 208.307029 
L 161.420284 208.307029 
L 161.420284 206.586073 
L 162.021314 206.586073 
L 162.021314 206.012422 
L 162.19549 206.012422 
L 162.260361 200.849556 
L 162.324991 200.849556 
L 162.410793 197.981298 
L 162.559939 197.981298 
L 162.665696 195.113039 
L 162.728843 195.113039 
L 162.728843 193.965736 
L 162.854457 193.965736 
L 162.854457 192.24478 
L 163.205526 192.24478 
L 163.205526 191.097477 
L 163.569701 191.097477 
L 163.569701 190.523825 
L 163.709295 190.523825 
L 163.709295 189.950174 
L 163.906798 189.950174 
L 163.906798 188.80287 
L 164.102088 188.80287 
L 164.102088 187.655567 
L 164.429145 187.655567 
L 164.486229 185.934612 
L 164.599841 185.934612 
L 164.599841 184.213656 
L 164.712717 184.213656 
L 164.712717 183.066353 
L 164.843488 183.066353 
L 164.843488 182.492701 
L 164.973287 182.492701 
L 165.010195 181.345398 
L 165.248216 181.345398 
L 165.338904 178.477139 
L 165.661531 178.477139 
L 165.679281 176.756184 
L 165.785402 176.756184 
L 165.838222 173.887925 
L 166.013141 173.887925 
L 166.013141 170.446015 
L 166.134549 170.446015 
L 166.237944 167.577757 
L 166.289413 167.577757 
L 166.357802 162.988543 
L 166.510705 162.988543 
L 166.510705 159.546632 
L 166.779265 159.546632 
L 166.779265 158.972981 
L 166.91201 158.972981 
L 166.96153 157.252026 
L 167.239518 157.252026 
L 167.255733 154.957419 
L 167.576907 154.957419 
L 167.576907 151.515508 
L 167.719528 151.515508 
L 167.782543 144.631688 
L 167.907893 144.631688 
L 167.907893 144.058036 
L 168.047843 144.058036 
L 168.047843 143.484384 
L 168.18668 143.484384 
L 168.263336 142.337081 
L 168.400474 142.337081 
L 168.400474 141.763429 
L 168.641643 141.763429 
L 168.746115 134.879609 
L 169.026567 134.879609 
L 169.026567 134.305957 
L 169.172381 134.305957 
L 169.27373 128.56944 
L 169.288161 128.56944 
L 169.345764 123.406574 
L 169.431813 123.406574 
L 169.460402 117.670057 
L 169.630959 117.670057 
L 169.659223 112.507192 
L 169.883706 112.507192 
L 169.897641 109.638933 
L 170.036379 109.638933 
L 170.036379 107.917978 
L 170.228776 107.917978 
L 170.228776 106.770674 
L 170.567151 106.770674 
L 170.620687 103.328764 
L 170.753812 103.328764 
L 170.806779 101.607809 
L 170.899085 101.607809 
L 171.003983 99.313202 
L 171.095254 99.313202 
L 171.198983 96.444944 
L 171.557249 96.444944 
L 171.607834 93.003033 
L 171.846131 93.003033 
L 171.945501 88.413819 
L 171.970255 88.413819 
L 172.044307 83.824606 
L 172.130306 83.824606 
L 172.191475 79.809044 
L 172.349517 79.809044 
L 172.458099 76.367133 
L 172.566008 76.367133 
L 172.673253 74.646178 
L 172.720707 74.646178 
L 172.815229 68.909661 
L 173.107351 68.909661 
L 173.211329 63.173144 
L 173.257343 63.173144 
L 173.291774 58.58393 
L 173.371849 58.58393 
L 173.371849 58.010278 
L 173.530906 58.010278 
L 173.542212 54.568368 
L 173.643636 54.568368 
L 173.643636 53.994716 
L 173.944417 53.994716 
L 173.999552 51.126458 
L 174.109302 51.126458 
L 174.207491 49.405503 
L 174.272644 49.405503 
L 174.369919 44.816289 
L 174.412979 44.816289 
L 174.509477 41.94803 
L 174.530849 41.94803 
L 174.637316 38.50612 
L 174.700886 38.50612 
L 174.743137 35.06421 
L 174.84832 35.06421 
L 174.84832 33.916906 
L 175.004915 33.916906 
L 175.077514 29.327692 
L 175.160115 29.327692 
L 175.160115 28.180389 
L 175.273058 28.180389 
L 175.273058 26.459434 
L 175.405599 26.459434 
L 175.405599 25.885782 
L 175.62763 25.885782 
L 175.737594 24.738479 
L 175.866664 24.738479 
L 175.93577 23.017524 
L 176.043814 23.017524 
L 176.102467 21.296568 
L 176.257915 21.296568 
L 176.354372 19.001962 
L 176.373599 19.001962 
L 176.431155 15.560051 
L 176.488521 15.560051 
L 176.55521 8.102579 
L 177.199282 8.102579 
L 177.199282 7.528927 
L 177.517111 7.528927 
L 177.517111 6.955275 
L 177.758396 6.955275 
L 177.758396 6.381624 
L 338.688 6.381624 
L 338.688 6.381624 
" style="fill:none;stroke:#000080;stroke-linecap:square;stroke-width:1.5;"/>
   </g>
   <g id="line2d_31">
    <defs>
     <path d="M 0 6 
C 1.591219 6 3.117479 5.367802 4.242641 4.242641 
C 5.367802 3.117479 6 1.591219 6 0 
C 6 -1.591219 5.367802 -3.117479 4.242641 -4.242641 
C 3.117479 -5.367802 1.591219 -6 0 -6 
C -1.591219 -6 -3.117479 -5.367802 -4.242641 -4.242641 
C -5.367802 -3.117479 -6 -1.591219 -6 0 
C -6 1.591219 -5.367802 3.117479 -4.242641 4.242641 
C -3.117479 5.367802 -1.591219 6 0 6 
z
" id="m77d15c2c86" style="stroke:#000080;stroke-width:1.5;"/>
    </defs>
    <g>
     <use style="fill-opacity:0;stroke:#000080;stroke-width:1.5;" x="159.608019" xlink:href="#m77d15c2c86" y="218.632759"/>
     <use style="fill-opacity:0;stroke:#000080;stroke-width:1.5;" x="174.423728" xlink:href="#m77d15c2c86" y="44.242637"/>
     <use style="fill-opacity:0;stroke:#000080;stroke-width:1.5;" x="177.758396" xlink:href="#m77d15c2c86" y="6.955275"/>
     <use style="fill-opacity:0;stroke:#000080;stroke-width:1.5;" x="177.758396" xlink:href="#m77d15c2c86" y="6.381624"/>
     <use style="fill-opacity:0;stroke:#000080;stroke-width:1.5;" x="338.688" xlink:href="#m77d15c2c86" y="6.381624"/>
    </g>
   </g>
   <g id="line2d_32">
    <path style="fill:none;stroke:#000080;stroke-linecap:square;stroke-width:1.5;"/>
    <g/>
   </g>
   <g id="line2d_33">
    <defs>
     <path d="M 0 1.5 
C 0.397805 1.5 0.77937 1.341951 1.06066 1.06066 
C 1.341951 0.77937 1.5 0.397805 1.5 0 
C 1.5 -0.397805 1.341951 -0.77937 1.06066 -1.06066 
C 0.77937 -1.341951 0.397805 -1.5 0 -1.5 
C -0.397805 -1.5 -0.77937 -1.341951 -1.06066 -1.06066 
C -1.341951 -0.77937 -1.5 -0.397805 -1.5 0 
C -1.5 0.397805 -1.341951 0.77937 -1.06066 1.06066 
C -0.77937 1.341951 -0.397805 1.5 0 1.5 
z
" id="m72368174f5" style="stroke:#ff00ff;"/>
    </defs>
    <g>
     <use style="fill:#ff00ff;stroke:#ff00ff;" x="178.368833" xlink:href="#m72368174f5" y="6.381624"/>
     <use style="fill:#ff00ff;stroke:#ff00ff;" x="178.368833" xlink:href="#m72368174f5" y="6.381624"/>
    </g>
   </g>
   <g id="line2d_34">
    <path d="M 93.863965 298.944 
L 93.863965 297.796697 
L 114.080224 297.796697 
L 114.080224 296.649393 
L 134.12805 296.649393 
L 134.12805 296.075741 
L 136.551264 296.075741 
L 136.551264 293.781135 
L 141.378673 293.781135 
L 141.378673 291.486528 
L 142.147664 291.486528 
L 142.147664 289.191921 
L 143.902815 289.191921 
L 143.902815 287.470966 
L 145.440832 287.470966 
L 145.440832 286.323662 
L 146.161795 286.323662 
L 146.161795 285.75001 
L 146.644018 285.75001 
L 146.644018 282.3081 
L 147.52003 282.3081 
L 147.52003 280.587145 
L 147.71991 280.587145 
L 147.71991 277.718886 
L 148.40198 277.718886 
L 148.497276 274.850628 
L 149.779481 274.850628 
L 149.779481 273.129673 
L 149.998846 273.129673 
L 150.085825 269.687762 
L 150.301393 269.687762 
L 150.38688 266.819504 
L 150.47195 266.819504 
L 150.51433 262.803942 
L 150.682827 262.803942 
L 150.682827 261.656638 
L 150.849711 261.656638 
L 150.849711 259.362031 
L 151.300575 259.362031 
L 151.300575 258.78838 
L 151.541675 258.78838 
L 151.541675 258.214728 
L 153.430889 258.214728 
L 153.466662 256.493773 
L 153.785358 256.493773 
L 153.785358 255.346469 
L 154.132765 255.346469 
L 154.132765 254.772818 
L 154.303908 254.772818 
L 154.371897 253.051863 
L 154.507086 253.051863 
L 154.57429 250.757256 
L 154.807483 250.757256 
L 154.807483 250.183604 
L 155.070227 250.183604 
L 155.135299 248.462649 
L 155.710272 248.462649 
L 155.710272 247.888997 
L 155.83551 247.888997 
L 155.83551 245.59439 
L 156.538679 245.59439 
L 156.538679 243.873435 
L 156.865211 243.873435 
L 156.865211 243.299783 
L 157.243392 243.299783 
L 157.329512 239.284221 
L 157.837488 239.284221 
L 157.837488 238.136918 
L 158.058592 238.136918 
L 158.058592 237.563266 
L 158.195371 237.563266 
L 158.222599 235.842311 
L 158.83738 235.842311 
L 158.942121 234.121356 
L 159.020266 234.121356 
L 159.020266 232.974052 
L 159.582872 232.974052 
L 159.582872 230.679446 
L 159.832723 230.679446 
L 159.931669 226.090232 
L 160.152267 226.090232 
L 160.225184 224.942928 
L 160.321935 224.942928 
L 160.346039 222.07467 
L 160.656397 222.07467 
L 160.656397 221.501018 
L 160.961329 221.501018 
L 161.007772 219.780063 
L 161.420284 219.780063 
L 161.420284 218.059108 
L 162.303474 218.059108 
L 162.410793 214.043546 
L 162.496175 214.043546 
L 162.581141 210.601635 
L 162.62347 210.601635 
L 162.728843 209.454332 
L 162.770815 209.454332 
L 162.875305 204.865118 
L 162.896128 204.865118 
L 162.896128 204.291467 
L 163.246367 204.291467 
L 163.246367 203.144163 
L 163.549667 203.144163 
L 163.549667 202.570511 
L 163.867476 202.570511 
L 163.867476 200.849556 
L 164.082658 200.849556 
L 164.160252 199.702253 
L 164.314412 199.702253 
L 164.410075 197.981298 
L 164.637547 197.981298 
L 164.693955 193.965736 
L 164.806225 193.965736 
L 164.880672 192.818432 
L 164.991751 192.818432 
L 165.065412 187.655567 
L 165.338904 187.655567 
L 165.338904 187.081915 
L 165.572509 187.081915 
L 165.572509 185.934612 
L 165.820633 185.934612 
L 165.9084 184.213656 
L 165.995728 184.213656 
L 166.065276 183.066353 
L 166.186323 183.066353 
L 166.255117 177.329836 
L 166.306535 177.329836 
L 166.306535 176.756184 
L 166.425924 176.756184 
L 166.459886 172.740622 
L 166.561376 172.740622 
L 166.561376 171.593319 
L 166.712511 171.593319 
L 166.812546 169.298712 
L 166.928532 169.298712 
L 167.027338 162.414891 
L 167.255733 162.414891 
L 167.255733 160.693936 
L 167.513144 160.693936 
L 167.513144 158.399329 
L 167.656285 158.399329 
L 167.751064 156.678374 
L 167.84533 156.678374 
L 167.84533 155.53107 
L 168.217383 155.53107 
L 168.263336 152.662812 
L 168.476198 152.662812 
L 168.506396 147.499946 
L 168.656606 147.499946 
L 168.656606 146.926295 
L 169.011918 146.926295 
L 169.011918 144.058036 
L 169.186895 144.058036 
L 169.288161 142.337081 
L 169.302579 142.337081 
L 169.374494 139.468822 
L 169.417501 139.468822 
L 169.488944 134.305957 
L 169.545889 134.305957 
L 169.560096 130.864047 
L 169.715615 130.864047 
L 169.813865 129.716743 
L 169.897641 129.716743 
L 169.939378 127.995788 
L 170.215104 127.995788 
L 170.28336 124.553878 
L 170.647393 124.553878 
L 170.753812 121.111967 
L 170.767069 121.111967 
L 170.780315 115.949102 
L 171.056197 115.949102 
L 171.121244 113.654495 
L 171.211906 113.654495 
L 171.224819 110.212585 
L 171.340609 110.212585 
L 171.43014 108.49163 
L 171.595202 108.49163 
L 171.67086 105.623371 
L 171.708567 105.623371 
L 171.73366 103.902416 
L 171.895887 103.902416 
L 171.970255 97.592247 
L 172.044307 97.592247 
L 172.142557 93.003033 
L 172.228073 93.003033 
L 172.228073 91.282078 
L 172.361615 91.282078 
L 172.42198 88.413819 
L 172.554051 88.413819 
L 172.66137 86.692864 
L 172.708856 86.692864 
L 172.768032 82.677302 
L 172.874047 82.677302 
L 172.944366 81.529999 
L 173.026049 81.529999 
L 173.130511 79.809044 
L 173.15364 79.809044 
L 173.211329 75.21983 
L 173.268827 75.21983 
L 173.268827 71.77792 
L 173.383259 71.77792 
L 173.383259 70.056964 
L 173.621148 70.056964 
L 173.722116 67.188706 
L 174.03255 67.188706 
L 174.142093 66.041402 
L 174.196608 66.041402 
L 174.305129 60.304885 
L 174.315944 60.304885 
L 174.402224 58.58393 
L 174.434469 58.58393 
L 174.520166 55.14202 
L 174.594807 55.14202 
L 174.647927 53.421065 
L 174.711458 53.421065 
L 174.806323 49.405503 
L 174.932012 49.405503 
L 174.973708 47.684547 
L 175.056802 47.684547 
L 175.139502 44.242637 
L 175.242328 44.242637 
L 175.242328 43.095334 
L 175.354741 43.095334 
L 175.354741 42.521682 
L 175.496772 42.521682 
L 175.567356 37.358817 
L 175.667697 37.358817 
L 175.77741 29.327692 
L 175.906187 29.327692 
L 176.014414 24.738479 
L 176.209486 24.738479 
L 176.30621 20.149265 
L 176.363988 20.149265 
L 176.459861 17.854658 
L 176.593204 17.854658 
L 176.650041 16.133703 
L 176.847522 16.133703 
L 176.950079 14.9864 
L 177.180944 14.9864 
L 177.226752 12.691793 
L 177.299796 12.691793 
L 177.299796 10.970838 
L 177.553068 10.970838 
L 177.660498 8.102579 
L 178.101129 8.102579 
L 178.101129 7.528927 
L 178.351686 7.528927 
L 178.368833 6.381624 
L 338.688 6.381624 
L 338.688 6.381624 
" style="fill:none;stroke:#ff00ff;stroke-linecap:square;stroke-width:1.5;"/>
   </g>
   <g id="line2d_35">
    <defs>
     <path d="M -0 8.485281 
L 5.091169 0 
L 0 -8.485281 
L -5.091169 -0 
z
" id="m43a241f211" style="stroke:#ff00ff;stroke-linejoin:miter;stroke-width:1.5;"/>
    </defs>
    <g>
     <use style="fill-opacity:0;stroke:#ff00ff;stroke-linejoin:miter;stroke-width:1.5;" x="162.410793" xlink:href="#m43a241f211" y="216.338153"/>
     <use style="fill-opacity:0;stroke:#ff00ff;stroke-linejoin:miter;stroke-width:1.5;" x="178.368833" xlink:href="#m43a241f211" y="6.955275"/>
     <use style="fill-opacity:0;stroke:#ff00ff;stroke-linejoin:miter;stroke-width:1.5;" x="178.368833" xlink:href="#m43a241f211" y="6.381624"/>
     <use style="fill-opacity:0;stroke:#ff00ff;stroke-linejoin:miter;stroke-width:1.5;" x="178.368833" xlink:href="#m43a241f211" y="6.381624"/>
     <use style="fill-opacity:0;stroke:#ff00ff;stroke-linejoin:miter;stroke-width:1.5;" x="338.688" xlink:href="#m43a241f211" y="6.381624"/>
    </g>
   </g>
   <g id="line2d_36">
    <path style="fill:none;stroke:#ff00ff;stroke-linecap:square;stroke-width:1.5;"/>
    <g/>
   </g>
   <g id="line2d_37">
    <defs>
     <path d="M 0 1.5 
C 0.397805 1.5 0.77937 1.341951 1.06066 1.06066 
C 1.341951 0.77937 1.5 0.397805 1.5 0 
C 1.5 -0.397805 1.341951 -0.77937 1.06066 -1.06066 
C 0.77937 -1.341951 0.397805 -1.5 0 -1.5 
C -0.397805 -1.5 -0.77937 -1.341951 -1.06066 -1.06066 
C -1.341951 -0.77937 -1.5 -0.397805 -1.5 0 
C -1.5 0.397805 -1.341951 0.77937 -1.06066 1.06066 
C -0.77937 1.341951 -0.397805 1.5 0 1.5 
z
" id="m5283bec3e0" style="stroke:#ff7500;"/>
    </defs>
    <g>
     <use style="fill:#ff7500;stroke:#ff7500;" x="211.881564" xlink:href="#m5283bec3e0" y="6.381624"/>
     <use style="fill:#ff7500;stroke:#ff7500;" x="211.881564" xlink:href="#m5283bec3e0" y="6.381624"/>
    </g>
   </g>
   <g id="line2d_38">
    <path d="M 94.921215 298.944 
L 94.921215 297.796697 
L 100.192776 297.796697 
L 100.192776 294.354786 
L 127.799239 294.354786 
L 127.799239 293.207483 
L 131.439773 293.207483 
L 131.439773 286.897314 
L 135.780341 286.897314 
L 135.780341 284.029055 
L 140.723258 284.029055 
L 140.723258 280.587145 
L 141.235139 280.587145 
L 141.235139 279.439842 
L 142.884173 279.439842 
L 142.884173 276.571583 
L 143.273169 276.571583 
L 143.273169 275.42428 
L 144.981877 275.42428 
L 144.981877 274.276976 
L 145.440832 274.276976 
L 145.440832 273.129673 
L 146.161795 273.129673 
L 146.161795 271.408718 
L 146.538004 271.408718 
L 146.538004 270.835066 
L 148.258051 270.835066 
L 148.258051 270.261414 
L 149.422654 270.261414 
L 149.422654 269.114111 
L 149.557321 269.114111 
L 149.557321 267.966807 
L 149.779481 267.966807 
L 149.823575 264.524897 
L 150.344189 264.524897 
L 150.344189 262.23029 
L 150.640855 262.23029 
L 150.640855 259.362031 
L 150.932558 259.362031 
L 150.932558 257.641076 
L 152.245598 257.641076 
L 152.245598 255.346469 
L 152.360205 255.346469 
L 152.360205 254.772818 
L 152.549559 254.772818 
L 152.587184 253.625514 
L 153.715038 253.625514 
L 153.715038 250.757256 
L 154.132765 250.757256 
L 154.167129 248.462649 
L 154.439623 248.462649 
L 154.439623 244.447087 
L 154.873541 244.447087 
L 154.873541 243.299783 
L 155.393186 243.299783 
L 155.393186 241.005176 
L 155.55245 241.005176 
L 155.55245 239.857873 
L 155.678822 239.857873 
L 155.678822 235.842311 
L 156.448553 235.842311 
L 156.448553 234.695008 
L 156.835778 234.695008 
L 156.835778 233.547704 
L 157.86528 233.547704 
L 157.86528 232.974052 
L 158.031107 232.974052 
L 158.031107 232.400401 
L 158.438903 232.400401 
L 158.51933 230.679446 
L 158.811096 230.679446 
L 158.811096 229.532142 
L 159.149734 229.532142 
L 159.149734 227.237535 
L 159.354904 227.237535 
L 159.380382 224.942928 
L 159.882266 224.942928 
L 159.980933 222.07467 
L 160.418152 222.07467 
L 160.418152 221.501018 
L 160.797798 221.501018 
L 160.891432 216.911804 
L 161.169354 216.911804 
L 161.169354 214.617197 
L 161.933569 214.617197 
L 161.933569 210.601635 
L 162.130378 210.601635 
L 162.130378 209.454332 
L 162.68677 209.454332 
L 162.749842 207.733377 
L 163.082425 207.733377 
L 163.082425 206.586073 
L 163.569701 206.586073 
L 163.569701 206.012422 
L 163.689421 206.012422 
L 163.689421 204.865118 
L 164.160252 204.865118 
L 164.179597 203.717815 
L 164.843488 203.717815 
L 164.843488 203.144163 
L 165.010195 203.144163 
L 165.010195 202.570511 
L 165.785402 202.570511 
L 165.803027 199.702253 
L 165.925901 199.702253 
L 166.030537 196.833994 
L 166.117256 196.833994 
L 166.117256 194.539387 
L 166.391896 194.539387 
L 166.391896 193.965736 
L 166.510705 193.965736 
L 166.510705 191.671129 
L 167.400994 191.671129 
L 167.400994 191.097477 
L 167.656285 191.097477 
L 167.703739 188.80287 
L 168.047843 188.80287 
L 168.047843 187.081915 
L 168.309168 187.081915 
L 168.309168 184.787308 
L 168.611679 184.787308 
L 168.611679 184.213656 
L 169.085039 184.213656 
L 169.085039 183.066353 
L 169.545889 183.066353 
L 169.545889 181.91905 
L 169.981016 181.91905 
L 170.091567 179.624443 
L 170.228776 179.624443 
L 170.228776 179.050791 
L 170.540321 179.050791 
L 170.59394 177.329836 
L 170.819995 177.329836 
L 170.846398 175.035229 
L 170.990905 175.035229 
L 171.082245 169.872363 
L 171.263501 169.872363 
L 171.353428 166.430453 
L 171.506517 166.430453 
L 171.557249 161.841239 
L 172.142557 161.841239 
L 172.142557 160.120284 
L 172.385786 160.120284 
L 172.385786 157.252026 
L 173.037687 157.252026 
L 173.118935 154.957419 
L 173.211329 154.957419 
L 173.303236 150.941857 
L 173.337576 150.941857 
L 173.337576 149.794553 
L 173.462916 149.794553 
L 173.462916 149.220902 
L 173.777957 149.220902 
L 173.777957 148.073598 
L 174.07645 148.073598 
L 174.07645 147.499946 
L 174.359138 147.499946 
L 174.359138 146.352643 
L 174.594807 146.352643 
L 174.616074 141.763429 
L 175.025688 141.763429 
L 175.025688 138.895171 
L 175.334356 138.895171 
L 175.425901 136.026912 
L 175.506873 136.026912 
L 175.597519 132.585002 
L 175.717652 132.585002 
L 175.747557 129.143091 
L 175.866664 129.143091 
L 175.866664 128.56944 
L 176.043814 128.56944 
L 176.043814 127.995788 
L 176.199784 127.995788 
L 176.277249 126.848485 
L 176.34475 126.848485 
L 176.34475 125.127529 
L 176.621646 125.127529 
L 176.697263 122.832923 
L 176.734949 122.832923 
L 176.800705 121.111967 
L 176.950079 121.111967 
L 177.052036 118.243709 
L 177.171768 118.243709 
L 177.272441 113.654495 
L 177.417845 113.654495 
L 177.517111 110.786236 
L 177.544086 110.786236 
L 177.544086 110.212585 
L 177.749519 110.212585 
L 177.79386 107.344326 
L 177.934998 107.344326 
L 177.934998 106.197023 
L 178.101129 106.197023 
L 178.161939 101.607809 
L 178.239812 101.607809 
L 178.239812 98.73955 
L 178.58177 98.73955 
L 178.691478 95.871292 
L 178.89222 95.871292 
L 178.98346 91.85573 
L 179.327506 91.85573 
L 179.335615 90.134775 
L 179.521099 90.134775 
L 179.521099 86.692864 
L 179.760106 86.692864 
L 179.854799 83.250954 
L 179.917643 83.250954 
L 179.917643 80.382695 
L 180.197673 80.382695 
L 180.197673 79.809044 
L 180.450477 79.809044 
L 180.450477 79.235392 
L 180.647105 79.235392 
L 180.647105 76.940785 
L 180.759545 76.940785 
L 180.856409 74.646178 
L 181.121875 74.646178 
L 181.121875 74.072526 
L 181.289386 74.072526 
L 181.361719 71.204268 
L 181.569801 71.204268 
L 181.648084 68.909661 
L 181.789523 68.909661 
L 181.817674 65.467751 
L 181.936809 65.467751 
L 182.027367 62.599492 
L 182.062072 62.599492 
L 182.15888 61.452189 
L 182.439337 61.452189 
L 182.439337 58.58393 
L 182.65514 58.58393 
L 182.65514 56.862975 
L 183.039601 56.862975 
L 183.091972 53.994716 
L 183.280506 53.994716 
L 183.286971 51.700109 
L 183.486206 51.700109 
L 183.486206 50.552806 
L 183.600855 50.552806 
L 183.600855 49.979154 
L 183.852963 49.979154 
L 183.852963 48.831851 
L 184.070607 48.831851 
L 184.070607 48.258199 
L 184.701742 48.258199 
L 184.719614 46.537244 
L 184.832374 46.537244 
L 184.879635 43.668985 
L 185.201133 43.668985 
L 185.201133 40.800727 
L 185.51681 40.800727 
L 185.51681 40.227075 
L 186.015831 40.227075 
L 186.015831 39.653423 
L 186.366051 39.653423 
L 186.366051 39.079772 
L 186.661502 39.079772 
L 186.661502 38.50612 
L 187.330316 38.50612 
L 187.330316 37.932468 
L 187.615046 37.932468 
L 187.615046 37.358817 
L 187.870369 37.358817 
L 187.870369 36.785165 
L 188.336229 36.785165 
L 188.336229 35.637861 
L 190.589149 35.637861 
L 190.589149 35.06421 
L 193.359245 35.06421 
L 193.359245 34.490558 
L 194.30882 34.490558 
L 194.30882 33.916906 
L 195.849983 33.916906 
L 195.849983 33.343255 
L 196.376609 33.343255 
L 196.376609 32.769603 
L 197.245628 32.769603 
L 197.245628 32.195951 
L 197.522128 32.195951 
L 197.522128 31.622299 
L 198.142469 31.622299 
L 198.142469 31.048648 
L 198.361696 31.048648 
L 198.44049 29.901344 
L 198.491921 29.901344 
L 198.491921 29.327692 
L 198.919114 29.327692 
L 198.919114 28.754041 
L 199.279346 28.754041 
L 199.279346 28.180389 
L 199.846175 28.180389 
L 199.846175 27.606737 
L 199.958358 27.606737 
L 199.958358 27.033086 
L 201.142316 27.033086 
L 201.142316 26.459434 
L 202.088997 26.459434 
L 202.088997 25.885782 
L 202.484719 25.885782 
L 202.484719 25.31213 
L 202.896874 25.31213 
L 202.896874 24.738479 
L 203.350729 24.738479 
L 203.393635 23.591175 
L 204.123001 23.591175 
L 204.123001 23.017524 
L 204.584573 23.017524 
L 204.5941 21.87022 
L 205.264889 21.87022 
L 205.264889 21.296568 
L 205.688624 21.296568 
L 205.688624 20.722917 
L 205.843577 20.722917 
L 205.843577 20.149265 
L 206.17553 20.149265 
L 206.17553 19.575613 
L 206.674589 19.575613 
L 206.674589 19.001962 
L 206.992894 19.001962 
L 206.992894 18.42831 
L 207.416023 18.42831 
L 207.416023 17.854658 
L 207.74029 17.854658 
L 207.74029 17.281006 
L 207.947404 17.281006 
L 207.947404 16.707355 
L 208.274371 16.707355 
L 208.274371 16.133703 
L 209.033475 16.133703 
L 209.040857 14.9864 
L 209.361175 14.9864 
L 209.361175 14.412748 
L 209.472414 14.412748 
L 209.505505 13.265444 
L 209.907601 13.265444 
L 209.907601 12.691793 
L 210.233215 12.691793 
L 210.339045 11.544489 
L 210.451046 11.544489 
L 210.451046 10.970838 
L 210.658119 10.970838 
L 210.72526 9.823534 
L 210.901281 9.823534 
L 210.901281 9.249882 
L 211.175092 9.249882 
L 211.258484 8.102579 
L 211.458811 8.102579 
L 211.507575 6.955275 
L 211.881564 6.955275 
L 211.881564 6.381624 
L 338.688 6.381624 
L 338.688 6.381624 
" style="fill:none;stroke:#ff7500;stroke-linecap:square;stroke-width:1.5;"/>
   </g>
   <g id="line2d_39">
    <defs>
     <path d="M 0 -6 
L -1.347084 -1.854102 
L -5.706339 -1.854102 
L -2.179628 0.708204 
L -3.526712 4.854102 
L -0 2.291796 
L 3.526712 4.854102 
L 2.179628 0.708204 
L 5.706339 -1.854102 
L 1.347084 -1.854102 
z
" id="me14513fa8c" style="stroke:#ff7500;stroke-linejoin:bevel;stroke-width:1.5;"/>
    </defs>
    <g>
     <use style="fill-opacity:0;stroke:#ff7500;stroke-linejoin:bevel;stroke-width:1.5;" x="155.393186" xlink:href="#me14513fa8c" y="243.299783"/>
     <use style="fill-opacity:0;stroke:#ff7500;stroke-linejoin:bevel;stroke-width:1.5;" x="190.589149" xlink:href="#me14513fa8c" y="35.06421"/>
     <use style="fill-opacity:0;stroke:#ff7500;stroke-linejoin:bevel;stroke-width:1.5;" x="211.881564" xlink:href="#me14513fa8c" y="6.955275"/>
     <use style="fill-opacity:0;stroke:#ff7500;stroke-linejoin:bevel;stroke-width:1.5;" x="211.881564" xlink:href="#me14513fa8c" y="6.381624"/>
     <use style="fill-opacity:0;stroke:#ff7500;stroke-linejoin:bevel;stroke-width:1.5;" x="338.688" xlink:href="#me14513fa8c" y="6.381624"/>
    </g>
   </g>
   <g id="line2d_40">
    <path style="fill:none;stroke:#ff7500;stroke-linecap:square;stroke-width:1.5;"/>
    <g/>
   </g>
   <g id="line2d_41">
    <defs>
     <path d="M 0 1.5 
C 0.397805 1.5 0.77937 1.341951 1.06066 1.06066 
C 1.341951 0.77937 1.5 0.397805 1.5 0 
C 1.5 -0.397805 1.341951 -0.77937 1.06066 -1.06066 
C 0.77937 -1.341951 0.397805 -1.5 0 -1.5 
C -0.397805 -1.5 -0.77937 -1.341951 -1.06066 -1.06066 
C -1.341951 -0.77937 -1.5 -0.397805 -1.5 0 
C -1.5 0.397805 -1.341951 0.77937 -1.06066 1.06066 
C -0.77937 1.341951 -0.397805 1.5 0 1.5 
z
" id="m7664427503" style="stroke:#6495ed;"/>
    </defs>
    <g>
     <use style="fill:#6495ed;stroke:#6495ed;" x="181.711874" xlink:href="#m7664427503" y="6.381624"/>
     <use style="fill:#6495ed;stroke:#6495ed;" x="181.711874" xlink:href="#m7664427503" y="6.381624"/>
    </g>
   </g>
   <g id="line2d_42">
    <path d="M 45.512012 298.944 
L 45.512012 298.370348 
L 73.579452 298.370348 
L 73.579452 292.060179 
L 79.447285 292.060179 
L 79.447285 291.486528 
L 81.775977 291.486528 
L 81.775977 290.339224 
L 83.830028 290.339224 
L 83.830028 289.765573 
L 88.846997 289.765573 
L 88.846997 289.191921 
L 92.73846 289.191921 
L 92.73846 288.618269 
L 94.921215 288.618269 
L 94.921215 286.323662 
L 95.918017 286.323662 
L 95.918017 285.75001 
L 97.755429 285.75001 
L 97.755429 285.176359 
L 100.192776 285.176359 
L 100.192776 283.455404 
L 100.934985 283.455404 
L 100.934985 282.881752 
L 103.623262 282.881752 
L 103.623262 282.3081 
L 104.826449 282.3081 
L 104.826449 281.160797 
L 108.948899 281.160797 
L 108.948899 280.013493 
L 109.843417 280.013493 
L 109.843417 279.439842 
L 115.711251 279.439842 
L 115.711251 278.86619 
L 116.323218 278.86619 
L 116.323218 278.292538 
L 116.914437 278.292538 
L 116.914437 277.145235 
L 120.33454 277.145235 
L 120.33454 276.571583 
L 121.489881 276.571583 
L 121.489881 275.997931 
L 124.178158 275.997931 
L 124.178158 274.850628 
L 124.92835 274.850628 
L 124.92835 274.276976 
L 126.50685 274.276976 
L 126.50685 273.703324 
L 127.48501 273.703324 
L 127.48501 273.129673 
L 128.107907 273.129673 
L 128.107907 272.556021 
L 128.709321 272.556021 
L 128.709321 271.982369 
L 131.056477 271.982369 
L 131.056477 270.261414 
L 132.060454 270.261414 
L 132.060454 269.687762 
L 132.659801 269.687762 
L 132.659801 268.540459 
L 133.239232 268.540459 
L 133.239232 266.819504 
L 133.46572 266.819504 
L 133.46572 265.6722 
L 135.780341 265.6722 
L 135.780341 265.098549 
L 136.645276 265.098549 
L 136.645276 264.524897 
L 136.831795 264.524897 
L 136.831795 263.377593 
L 137.997836 263.377593 
L 137.997836 262.803942 
L 138.510793 262.803942 
L 138.510793 262.23029 
L 138.761723 262.23029 
L 138.761723 261.656638 
L 139.172077 261.656638 
L 139.172077 261.082987 
L 139.964909 261.082987 
L 139.964909 260.509335 
L 142.686372 260.509335 
L 142.686372 259.362031 
L 143.464461 259.362031 
L 143.464461 258.78838 
L 144.148442 258.78838 
L 144.148442 258.214728 
L 145.327221 258.214728 
L 145.327221 257.641076 
L 145.440832 257.641076 
L 145.497361 255.346469 
L 145.609873 255.346469 
L 145.665858 254.199166 
L 146.107383 254.199166 
L 146.107383 253.625514 
L 146.696785 253.625514 
L 146.696785 252.478211 
L 147.215849 252.478211 
L 147.215849 251.330907 
L 147.4697 251.330907 
L 147.4697 250.757256 
L 147.917524 250.757256 
L 147.917524 249.036301 
L 149.955193 249.036301 
L 149.955193 247.888997 
L 150.258492 247.888997 
L 150.344189 243.873435 
L 150.429467 243.873435 
L 150.429467 242.15248 
L 150.598782 242.15248 
L 150.598782 240.431525 
L 150.891184 240.431525 
L 150.891184 239.857873 
L 151.581536 239.857873 
L 151.660987 237.563266 
L 152.052897 237.563266 
L 152.091608 236.415963 
L 152.436193 236.415963 
L 152.436193 235.268659 
L 153.069065 235.268659 
L 153.069065 234.695008 
L 153.395042 234.695008 
L 153.395042 232.974052 
L 153.959927 232.974052 
L 154.063835 228.95849 
L 154.132765 228.95849 
L 154.132765 226.090232 
L 154.337936 226.090232 
L 154.337936 224.942928 
L 154.473387 224.942928 
L 154.507086 223.795625 
L 154.707925 223.795625 
L 154.707925 223.221973 
L 155.0376 223.221973 
L 155.135299 222.07467 
L 155.710272 222.07467 
L 155.710272 218.632759 
L 156.083319 218.632759 
L 156.083319 216.911804 
L 156.205916 216.911804 
L 156.205916 216.338153 
L 157.098907 216.338153 
L 157.156845 214.617197 
L 157.243392 214.617197 
L 157.329512 213.469894 
L 157.557108 213.469894 
L 157.557108 211.748939 
L 158.304027 211.748939 
L 158.304027 210.601635 
L 159.431225 210.601635 
L 159.431225 210.027984 
L 159.582872 210.027984 
L 159.582872 209.454332 
L 159.783038 209.454332 
L 159.807898 206.586073 
L 159.980933 206.586073 
L 160.054568 204.865118 
L 160.103486 204.865118 
L 160.200913 203.717815 
L 160.249422 203.717815 
L 160.249422 201.423208 
L 160.797798 201.423208 
L 160.797798 200.849556 
L 161.054091 200.849556 
L 161.054091 200.275904 
L 161.169354 200.275904 
L 161.169354 198.554949 
L 162.173813 198.554949 
L 162.19549 196.260342 
L 162.432178 196.260342 
L 162.496175 193.392084 
L 162.644595 193.392084 
L 162.665696 191.097477 
L 162.9377 191.097477 
L 163.020547 187.081915 
L 163.103002 187.081915 
L 163.185069 185.36096 
L 163.649606 185.36096 
L 163.709295 183.640005 
L 163.768781 183.640005 
L 163.788565 181.345398 
L 163.965615 181.345398 
L 163.965615 180.771746 
L 164.19892 180.771746 
L 164.295217 178.477139 
L 164.429145 178.477139 
L 164.429145 177.329836 
L 164.580957 177.329836 
L 164.580957 174.461577 
L 164.9363 174.461577 
L 165.02862 172.740622 
L 165.483031 172.740622 
L 165.518877 168.151408 
L 165.995728 168.151408 
L 165.995728 167.577757 
L 166.391896 167.577757 
L 166.476842 165.856801 
L 166.544502 165.856801 
L 166.645502 163.562195 
L 166.712511 163.562195 
L 166.795913 162.414891 
L 167.0929 162.414891 
L 167.0929 160.120284 
L 167.255733 160.120284 
L 167.336582 157.252026 
L 167.497166 157.252026 
L 167.497166 156.104722 
L 167.672117 156.104722 
L 167.719528 154.383767 
L 168.01684 154.383767 
L 168.125111 148.64725 
L 168.140524 148.64725 
L 168.202038 147.499946 
L 168.339657 147.499946 
L 168.339657 145.20534 
L 168.536542 145.20534 
L 168.626667 142.337081 
L 168.849965 142.337081 
L 168.849965 141.763429 
L 169.331381 141.763429 
L 169.431813 139.468822 
L 169.474679 139.468822 
L 169.560096 137.174215 
L 169.659223 137.174215 
L 169.659223 136.600564 
L 169.78585 136.600564 
L 169.78585 135.45326 
L 170.607318 135.45326 
L 170.674059 133.158653 
L 170.740545 133.158653 
L 170.806779 128.56944 
L 171.017051 128.56944 
L 171.095254 122.259271 
L 171.198983 122.259271 
L 171.289242 119.964664 
L 171.353428 119.964664 
L 171.353428 119.391012 
L 171.481095 119.391012 
L 171.531901 117.670057 
L 171.908303 117.670057 
L 171.957882 116.522754 
L 172.068921 116.522754 
L 172.167033 111.93354 
L 172.25243 111.93354 
L 172.301041 109.638933 
L 172.458099 109.638933 
L 172.566008 107.344326 
L 172.637578 107.344326 
L 172.744386 106.197023 
L 173.14208 106.197023 
L 173.14208 104.476068 
L 173.257343 104.476068 
L 173.31469 102.181461 
L 173.462916 102.181461 
L 173.462916 101.607809 
L 173.632396 101.607809 
L 173.710926 99.313202 
L 173.789104 99.313202 
L 173.855836 97.592247 
L 174.207491 97.592247 
L 174.283479 92.429381 
L 174.348349 92.429381 
L 174.369919 90.134775 
L 174.47737 90.134775 
L 174.584164 88.413819 
L 174.732584 88.413819 
L 174.732584 87.840168 
L 174.84832 87.840168 
L 174.942445 86.692864 
L 175.08786 86.692864 
L 175.118863 85.545561 
L 175.221811 85.545561 
L 175.324155 79.809044 
L 175.405599 79.809044 
L 175.446179 77.514437 
L 175.567356 77.514437 
L 175.647675 76.367133 
L 175.767465 76.367133 
L 175.846869 73.498875 
L 176.014414 73.498875 
L 176.03402 71.77792 
L 176.160922 71.77792 
L 176.219183 67.188706 
L 176.277249 67.188706 
L 176.315853 62.02584 
L 176.440729 62.02584 
L 176.545699 60.878537 
L 176.583714 60.878537 
L 176.583714 60.304885 
L 176.697263 60.304885 
L 176.791327 57.436627 
L 176.810078 57.436627 
L 176.82881 56.289323 
L 177.01503 56.289323 
L 177.079739 53.994716 
L 177.135015 53.994716 
L 177.199282 48.831851 
L 177.290683 48.831851 
L 177.336204 45.963592 
L 177.517111 45.963592 
L 177.517111 44.242637 
L 177.642639 44.242637 
L 177.696161 43.095334 
L 177.785001 43.095334 
L 177.882205 41.374379 
L 178.118525 41.374379 
L 178.213893 40.227075 
L 178.231177 40.227075 
L 178.282926 36.785165 
L 178.45432 36.785165 
L 178.56483 34.490558 
L 178.58177 34.490558 
L 178.640929 32.195951 
L 178.775401 32.195951 
L 178.775401 30.474996 
L 178.999998 30.474996 
L 179.074226 28.180389 
L 179.295031 28.180389 
L 179.376106 25.885782 
L 179.521099 25.885782 
L 179.577161 23.017524 
L 179.641012 23.017524 
L 179.641012 20.722917 
L 179.768016 20.722917 
L 179.846927 17.854658 
L 179.9098 17.854658 
L 180.003686 12.118141 
L 180.33602 12.118141 
L 180.33602 10.970838 
L 180.511214 10.970838 
L 180.601926 8.676231 
L 181.318355 8.676231 
L 181.347276 7.528927 
L 181.591186 7.528927 
L 181.591186 6.955275 
L 181.711874 6.955275 
L 181.711874 6.381624 
L 338.688 6.381624 
L 338.688 6.381624 
" style="fill:none;stroke:#6495ed;stroke-linecap:square;stroke-width:1.5;"/>
   </g>
   <g id="line2d_43">
    <defs>
     <path d="M -0 6 
L 6 -6 
L -6 -6 
z
" id="mbdb69c6bcb" style="stroke:#6495ed;stroke-linejoin:miter;stroke-width:1.5;"/>
    </defs>
    <g>
     <use style="fill-opacity:0;stroke:#6495ed;stroke-linejoin:miter;stroke-width:1.5;" x="121.489881" xlink:href="#mbdb69c6bcb" y="276.571583"/>
     <use style="fill-opacity:0;stroke:#6495ed;stroke-linejoin:miter;stroke-width:1.5;" x="168.849965" xlink:href="#mbdb69c6bcb" y="142.337081"/>
     <use style="fill-opacity:0;stroke:#6495ed;stroke-linejoin:miter;stroke-width:1.5;" x="181.711874" xlink:href="#mbdb69c6bcb" y="6.955275"/>
     <use style="fill-opacity:0;stroke:#6495ed;stroke-linejoin:miter;stroke-width:1.5;" x="181.711874" xlink:href="#mbdb69c6bcb" y="6.381624"/>
     <use style="fill-opacity:0;stroke:#6495ed;stroke-linejoin:miter;stroke-width:1.5;" x="181.711874" xlink:href="#mbdb69c6bcb" y="6.381624"/>
     <use style="fill-opacity:0;stroke:#6495ed;stroke-linejoin:miter;stroke-width:1.5;" x="338.688" xlink:href="#mbdb69c6bcb" y="6.381624"/>
    </g>
   </g>
   <g id="line2d_44">
    <path style="fill:none;stroke:#6495ed;stroke-linecap:square;stroke-width:1.5;"/>
    <g/>
   </g>
   <g id="line2d_45">
    <defs>
     <path d="M 0 1.5 
C 0.397805 1.5 0.77937 1.341951 1.06066 1.06066 
C 1.341951 0.77937 1.5 0.397805 1.5 0 
C 1.5 -0.397805 1.341951 -0.77937 1.06066 -1.06066 
C 0.77937 -1.341951 0.397805 -1.5 0 -1.5 
C -0.397805 -1.5 -0.77937 -1.341951 -1.06066 -1.06066 
C -1.341951 -0.77937 -1.5 -0.397805 -1.5 0 
C -1.5 0.397805 -1.341951 0.77937 -1.06066 1.06066 
C -0.77937 1.341951 -0.397805 1.5 0 1.5 
z
" id="m7abedfba79" style="stroke:#ff0000;"/>
    </defs>
    <g>
     <use style="fill:#ff0000;stroke:#ff0000;" x="177.281564" xlink:href="#m7abedfba79" y="6.381624"/>
     <use style="fill:#ff0000;stroke:#ff0000;" x="177.281564" xlink:href="#m7abedfba79" y="6.381624"/>
    </g>
   </g>
   <g id="line2d_46">
    <path d="M 45.512012 298.944 
L 45.512012 262.803942 
L 57.6 262.803942 
L 57.6 245.020738 
L 64.67102 245.020738 
L 64.67102 244.447087 
L 69.687988 244.447087 
L 69.687988 242.15248 
L 76.759008 242.15248 
L 76.759008 240.431525 
L 79.447285 240.431525 
L 79.447285 239.284221 
L 83.830028 239.284221 
L 83.830028 236.415963 
L 87.329581 236.415963 
L 87.329581 235.842311 
L 88.846997 235.842311 
L 88.846997 235.268659 
L 90.242884 235.268659 
L 90.242884 234.695008 
L 93.863965 234.695008 
L 93.863965 234.121356 
L 95.918017 234.121356 
L 95.918017 233.547704 
L 96.86091 233.547704 
L 96.86091 232.974052 
L 98.606294 232.974052 
L 98.606294 232.400401 
L 100.934985 232.400401 
L 100.934985 231.826749 
L 102.989037 231.826749 
L 102.989037 230.105794 
L 108.483824 230.105794 
L 108.483824 227.811187 
L 111.104637 227.811187 
L 111.104637 227.237535 
L 113.382559 227.237535 
L 113.382559 226.090232 
L 117.202696 226.090232 
L 117.202696 224.942928 
L 117.765302 224.942928 
L 117.765302 222.648321 
L 118.039942 222.648321 
L 118.039942 222.07467 
L 119.602714 222.07467 
L 119.602714 220.927366 
L 119.850084 220.927366 
L 119.850084 220.353715 
L 121.931406 220.353715 
L 121.931406 219.780063 
L 124.368753 219.780063 
L 124.368753 219.206411 
L 124.557288 219.206411 
L 124.557288 218.059108 
L 125.822869 218.059108 
L 125.822869 217.485456 
L 125.996395 217.485456 
L 125.996395 216.911804 
L 126.338353 216.911804 
L 126.338353 216.338153 
L 129.574256 216.338153 
L 129.574256 215.764501 
L 129.853291 215.764501 
L 129.853291 211.175287 
L 130.398313 211.175287 
L 130.398313 209.454332 
L 130.531948 209.454332 
L 130.531948 208.307029 
L 131.056477 208.307029 
L 131.056477 207.733377 
L 131.565689 207.733377 
L 131.565689 206.586073 
L 131.814826 206.586073 
L 131.814826 206.012422 
L 133.239232 206.012422 
L 133.239232 204.865118 
L 135.780341 204.865118 
L 135.780341 204.291467 
L 136.551264 204.291467 
L 136.551264 201.99686 
L 138.084384 201.99686 
L 138.084384 201.423208 
L 139.172077 201.423208 
L 139.172077 200.275904 
L 139.493548 200.275904 
L 139.493548 199.702253 
L 140.723258 199.702253 
L 140.723258 199.128601 
L 140.944478 199.128601 
L 140.944478 198.554949 
L 141.45 198.554949 
L 141.45 197.407646 
L 142.486301 197.407646 
L 142.486301 196.833994 
L 143.014805 196.833994 
L 143.014805 196.260342 
L 143.208936 196.260342 
L 143.208936 195.686691 
L 143.778691 195.686691 
L 143.778691 194.539387 
L 144.390658 194.539387 
L 144.390658 193.965736 
L 145.384119 193.965736 
L 145.384119 192.24478 
L 145.553708 192.24478 
L 145.553708 189.950174 
L 145.888018 189.950174 
L 145.888018 189.376522 
L 146.324022 189.376522 
L 146.324022 188.80287 
L 146.484754 188.80287 
L 146.484754 188.229218 
L 146.854132 188.229218 
L 146.906268 185.36096 
L 147.317833 185.36096 
L 147.317833 184.213656 
L 148.54473 184.213656 
L 148.54473 183.640005 
L 149.012299 183.640005 
L 149.012299 183.066353 
L 149.60198 183.066353 
L 149.60198 182.492701 
L 150.042389 182.492701 
L 150.129152 180.771746 
L 150.172372 180.771746 
L 150.172372 180.198094 
L 150.598782 180.198094 
L 150.598782 177.903487 
L 150.808139 177.903487 
L 150.849711 174.461577 
L 150.932558 174.461577 
L 151.015013 173.314274 
L 151.461678 173.314274 
L 151.461678 172.740622 
L 152.0141 172.740622 
L 152.0141 170.446015 
L 152.207228 170.446015 
L 152.207228 168.72506 
L 152.398241 168.72506 
L 152.398241 167.577757 
L 152.848312 167.577757 
L 152.848312 166.430453 
L 153.715038 166.430453 
L 153.785358 162.414891 
L 153.959927 162.414891 
L 154.029268 159.546632 
L 154.098334 159.546632 
L 154.098334 157.825677 
L 154.57429 157.825677 
L 154.607795 153.810115 
L 155.61575 153.810115 
L 155.61575 153.236464 
L 155.83551 153.236464 
L 155.83551 151.515508 
L 156.357959 151.515508 
L 156.357959 148.64725 
L 156.687861 148.64725 
L 156.687861 145.778991 
L 157.156845 145.778991 
L 157.156845 144.631688 
L 157.300853 144.631688 
L 157.300853 143.484384 
L 157.415209 143.484384 
L 157.443681 141.763429 
L 157.557108 141.763429 
L 157.641697 138.895171 
L 157.669802 138.895171 
L 157.669802 137.174215 
L 158.031107 137.174215 
L 158.058592 134.879609 
L 159.683242 134.879609 
L 159.783038 131.437698 
L 159.980933 131.437698 
L 160.079044 129.143091 
L 160.750792 129.143091 
L 160.750792 127.995788 
L 161.374928 127.995788 
L 161.442917 125.701181 
L 161.801118 125.701181 
L 161.801118 124.553878 
L 162.217141 124.553878 
L 162.324991 119.391012 
L 162.367945 119.391012 
L 162.389382 117.096405 
L 162.559939 117.096405 
L 162.559939 115.949102 
L 162.68677 115.949102 
L 162.68677 114.801798 
L 162.896128 114.801798 
L 162.896128 112.507192 
L 163.123555 112.507192 
L 163.225959 109.638933 
L 163.428979 109.638933 
L 163.428979 109.065281 
L 163.985177 109.065281 
L 164.043731 106.770674 
L 164.19892 106.770674 
L 164.218222 102.181461 
L 164.448194 102.181461 
L 164.448194 99.886854 
L 164.562052 99.886854 
L 164.562052 98.73955 
L 164.693955 98.73955 
L 164.731458 96.444944 
L 165.785402 96.444944 
L 165.785402 95.29764 
L 165.995728 95.29764 
L 166.030537 93.576685 
L 166.134549 93.576685 
L 166.237944 92.429381 
L 166.306535 92.429381 
L 166.34073 88.413819 
L 166.493781 88.413819 
L 166.493781 87.840168 
L 166.679039 87.840168 
L 166.679039 87.266516 
L 166.812546 87.266516 
L 166.91201 86.119213 
L 167.125588 86.119213 
L 167.125588 84.971909 
L 167.608702 84.971909 
L 167.703739 82.103651 
L 167.735303 82.103651 
L 167.782543 80.382695 
L 167.892273 80.382695 
L 167.954668 78.088089 
L 168.109685 78.088089 
L 168.171308 75.21983 
L 168.263336 75.21983 
L 168.324419 74.072526 
L 168.551595 74.072526 
L 168.656606 71.204268 
L 168.805533 71.204268 
L 168.820356 68.909661 
L 169.172381 68.909661 
L 169.172381 67.188706 
L 169.360135 67.188706 
L 169.460402 62.599492 
L 169.51744 62.599492 
L 169.51744 60.878537 
L 169.855803 60.878537 
L 169.897641 59.157582 
L 170.077786 59.157582 
L 170.119095 58.010278 
L 170.201421 58.010278 
L 170.28336 55.14202 
L 170.58055 55.14202 
L 170.687376 52.847413 
L 170.925369 52.847413 
L 171.003983 48.258199 
L 171.056197 48.258199 
L 171.160157 45.389941 
L 171.18605 45.389941 
L 171.276376 43.095334 
L 171.340609 43.095334 
L 171.391826 40.227075 
L 172.00732 40.227075 
L 172.081215 36.785165 
L 172.228073 36.785165 
L 172.25243 35.637861 
L 172.373705 35.637861 
L 172.397859 34.490558 
L 172.542086 34.490558 
L 172.542086 33.916906 
L 172.909242 33.916906 
L 172.909242 33.343255 
L 173.049317 33.343255 
L 173.14208 31.048648 
L 173.188276 31.048648 
L 173.280304 28.754041 
L 173.337576 28.754041 
L 173.406055 27.606737 
L 173.451559 27.606737 
L 173.451559 25.885782 
L 173.654869 25.885782 
L 173.722116 23.017524 
L 173.822502 23.017524 
L 173.822502 22.443872 
L 174.021557 22.443872 
L 174.098358 19.575613 
L 174.196608 19.575613 
L 174.294307 17.281006 
L 174.380694 17.281006 
L 174.380694 16.707355 
L 174.795808 16.707355 
L 174.879752 15.560051 
L 174.973708 15.560051 
L 175.056802 14.412748 
L 175.385274 14.412748 
L 175.395439 12.691793 
L 175.496772 12.691793 
L 175.496772 12.118141 
L 175.886437 12.118141 
L 175.916053 10.397186 
L 176.082938 10.397186 
L 176.092705 8.102579 
L 176.819447 8.102579 
L 176.922168 6.955275 
L 177.281564 6.955275 
L 177.281564 6.381624 
L 338.688 6.381624 
L 338.688 6.381624 
" style="fill:none;stroke:#ff0000;stroke-linecap:square;stroke-width:1.5;"/>
   </g>
   <g id="line2d_47">
    <defs>
     <path d="M 0 -6 
L -5.196152 -3 
L -5.196152 3 
L -0 6 
L 5.196152 3 
L 5.196152 -3 
z
" id="m23fcd6f508" style="stroke:#ff0000;stroke-linejoin:miter;stroke-width:1.5;"/>
    </defs>
    <g>
     <use style="fill-opacity:0;stroke:#ff0000;stroke-linejoin:miter;stroke-width:1.5;" x="145.553708" xlink:href="#m23fcd6f508" y="192.24478"/>
     <use style="fill-opacity:0;stroke:#ff0000;stroke-linejoin:miter;stroke-width:1.5;" x="171.391826" xlink:href="#m23fcd6f508" y="41.374379"/>
     <use style="fill-opacity:0;stroke:#ff0000;stroke-linejoin:miter;stroke-width:1.5;" x="177.281564" xlink:href="#m23fcd6f508" y="6.955275"/>
     <use style="fill-opacity:0;stroke:#ff0000;stroke-linejoin:miter;stroke-width:1.5;" x="177.281564" xlink:href="#m23fcd6f508" y="6.381624"/>
     <use style="fill-opacity:0;stroke:#ff0000;stroke-linejoin:miter;stroke-width:1.5;" x="177.281564" xlink:href="#m23fcd6f508" y="6.381624"/>
     <use style="fill-opacity:0;stroke:#ff0000;stroke-linejoin:miter;stroke-width:1.5;" x="338.688" xlink:href="#m23fcd6f508" y="6.381624"/>
    </g>
   </g>
   <g id="line2d_48">
    <path style="fill:none;stroke:#ff0000;stroke-linecap:square;stroke-width:1.5;"/>
    <g/>
   </g>
   <g id="line2d_49">
    <path d="M 338.688 6.381624 
L 369.60768 293.092752 
" style="fill:none;stroke:#ff7500;stroke-linecap:square;stroke-width:1.5;"/>
    <g>
     <use style="fill-opacity:0;stroke:#ff7500;stroke-linejoin:bevel;stroke-width:1.5;" x="338.688" xlink:href="#me14513fa8c" y="6.381624"/>
     <use style="fill-opacity:0;stroke:#ff7500;stroke-linejoin:bevel;stroke-width:1.5;" x="369.60768" xlink:href="#me14513fa8c" y="293.092752"/>
    </g>
   </g>
   <g id="line2d_50">
    <path d="M 338.688 6.381624 
L 369.60768 222.877782 
" style="fill:none;stroke:#6495ed;stroke-linecap:square;stroke-width:1.5;"/>
    <g>
     <use style="fill-opacity:0;stroke:#6495ed;stroke-linejoin:miter;stroke-width:1.5;" x="338.688" xlink:href="#mbdb69c6bcb" y="6.381624"/>
     <use style="fill-opacity:0;stroke:#6495ed;stroke-linejoin:miter;stroke-width:1.5;" x="369.60768" xlink:href="#mbdb69c6bcb" y="222.877782"/>
    </g>
   </g>
   <g id="line2d_51">
    <path d="M 338.688 6.381624 
L 369.60768 152.662812 
" style="fill:none;stroke:#ff00ff;stroke-linecap:square;stroke-width:1.5;"/>
    <g>
     <use style="fill-opacity:0;stroke:#ff00ff;stroke-linejoin:miter;stroke-width:1.5;" x="338.688" xlink:href="#m43a241f211" y="6.381624"/>
     <use style="fill-opacity:0;stroke:#ff00ff;stroke-linejoin:miter;stroke-width:1.5;" x="369.60768" xlink:href="#m43a241f211" y="152.662812"/>
    </g>
   </g>
   <g id="line2d_52">
    <path d="M 338.688 6.381624 
L 369.60768 82.447842 
" style="fill:none;stroke:#000080;stroke-linecap:square;stroke-width:1.5;"/>
    <g>
     <use style="fill-opacity:0;stroke:#000080;stroke-width:1.5;" x="338.688" xlink:href="#m77d15c2c86" y="6.381624"/>
     <use style="fill-opacity:0;stroke:#000080;stroke-width:1.5;" x="369.60768" xlink:href="#m77d15c2c86" y="82.447842"/>
    </g>
   </g>
   <g id="line2d_53">
    <path d="M 338.688 6.381624 
L 369.60768 12.232871 
" style="fill:none;stroke:#ff0000;stroke-linecap:square;stroke-width:1.5;"/>
    <g>
     <use style="fill-opacity:0;stroke:#ff0000;stroke-linejoin:miter;stroke-width:1.5;" x="338.688" xlink:href="#m23fcd6f508" y="6.381624"/>
     <use style="fill-opacity:0;stroke:#ff0000;stroke-linejoin:miter;stroke-width:1.5;" x="369.60768" xlink:href="#m23fcd6f508" y="12.232871"/>
    </g>
   </g>
   <g id="line2d_54">
    <path d="M 338.688 298.944 
L 338.688 6.381624 
" style="fill:none;stroke:#000000;stroke-linecap:square;stroke-width:1.5;"/>
   </g>
   <g id="patch_3">
    <path d="M 57.6 298.944 
L 57.6 3.456 
" style="fill:none;stroke:#000000;stroke-linecap:square;stroke-linejoin:miter;stroke-width:0.8;"/>
   </g>
   <g id="patch_4">
    <path d="M 338.688 298.944 
L 338.688 3.456 
" style="fill:none;stroke:#000000;stroke-linecap:square;stroke-linejoin:miter;stroke-width:0.8;"/>
   </g>
   <g id="patch_5">
    <path d="M 57.6 298.944 
L 338.688 298.944 
" style="fill:none;stroke:#000000;stroke-linecap:square;stroke-linejoin:miter;stroke-width:0.8;"/>
   </g>
   <g id="patch_6">
    <path d="M 57.6 3.456 
L 338.688 3.456 
" style="fill:none;stroke:#000000;stroke-linecap:square;stroke-linejoin:miter;stroke-width:0.8;"/>
   </g>
   <g id="text_13">
    <!-- f12 -->
    <g transform="translate(375.22944 297.78369)scale(0.17 -0.17)">
     <use xlink:href="#DejaVuSans-66"/>
     <use x="35.205078" xlink:href="#DejaVuSans-31"/>
     <use x="98.828125" xlink:href="#DejaVuSans-32"/>
    </g>
   </g>
   <g id="text_14">
    <!-- f13 -->
    <g transform="translate(375.22944 227.56872)scale(0.17 -0.17)">
     <defs>
      <path d="M 2597 2516 
Q 3050 2419 3304 2112 
Q 3559 1806 3559 1356 
Q 3559 666 3084 287 
Q 2609 -91 1734 -91 
Q 1441 -91 1130 -33 
Q 819 25 488 141 
L 488 750 
Q 750 597 1062 519 
Q 1375 441 1716 441 
Q 2309 441 2620 675 
Q 2931 909 2931 1356 
Q 2931 1769 2642 2001 
Q 2353 2234 1838 2234 
L 1294 2234 
L 1294 2753 
L 1863 2753 
Q 2328 2753 2575 2939 
Q 2822 3125 2822 3475 
Q 2822 3834 2567 4026 
Q 2313 4219 1838 4219 
Q 1578 4219 1281 4162 
Q 984 4106 628 3988 
L 628 4550 
Q 988 4650 1302 4700 
Q 1616 4750 1894 4750 
Q 2613 4750 3031 4423 
Q 3450 4097 3450 3541 
Q 3450 3153 3228 2886 
Q 3006 2619 2597 2516 
z
" id="DejaVuSans-33" transform="scale(0.015625)"/>
     </defs>
     <use xlink:href="#DejaVuSans-66"/>
     <use x="35.205078" xlink:href="#DejaVuSans-31"/>
     <use x="98.828125" xlink:href="#DejaVuSans-33"/>
    </g>
   </g>
   <g id="text_15">
    <!-- f11 -->
    <g transform="translate(375.22944 157.353749)scale(0.17 -0.17)">
     <use xlink:href="#DejaVuSans-66"/>
     <use x="35.205078" xlink:href="#DejaVuSans-31"/>
     <use x="98.828125" xlink:href="#DejaVuSans-31"/>
    </g>
   </g>
   <g id="text_16">
    <!-- f10 -->
    <g transform="translate(375.22944 87.138779)scale(0.17 -0.17)">
     <use xlink:href="#DejaVuSans-66"/>
     <use x="35.205078" xlink:href="#DejaVuSans-31"/>
     <use x="98.828125" xlink:href="#DejaVuSans-30"/>
    </g>
   </g>
   <g id="text_17">
    <!-- f14 -->
    <g transform="translate(375.22944 16.923809)scale(0.17 -0.17)">
     <use xlink:href="#DejaVuSans-66"/>
     <use x="35.205078" xlink:href="#DejaVuSans-31"/>
     <use x="98.828125" xlink:href="#DejaVuSans-34"/>
    </g>
   </g>
   <g id="text_18">
    <!-- bbob -->
    <g transform="translate(60.41088 14.161286)scale(0.102 -0.102)">
     <defs>
      <path d="M 3116 1747 
Q 3116 2381 2855 2742 
Q 2594 3103 2138 3103 
Q 1681 3103 1420 2742 
Q 1159 2381 1159 1747 
Q 1159 1113 1420 752 
Q 1681 391 2138 391 
Q 2594 391 2855 752 
Q 3116 1113 3116 1747 
z
M 1159 2969 
Q 1341 3281 1617 3432 
Q 1894 3584 2278 3584 
Q 2916 3584 3314 3078 
Q 3713 2572 3713 1747 
Q 3713 922 3314 415 
Q 2916 -91 2278 -91 
Q 1894 -91 1617 61 
Q 1341 213 1159 525 
L 1159 0 
L 581 0 
L 581 4863 
L 1159 4863 
L 1159 2969 
z
" id="DejaVuSans-62" transform="scale(0.015625)"/>
     </defs>
     <use xlink:href="#DejaVuSans-62"/>
     <use x="63.476562" xlink:href="#DejaVuSans-62"/>
     <use x="126.953125" xlink:href="#DejaVuSans-6f"/>
     <use x="188.134766" xlink:href="#DejaVuSans-62"/>
    </g>
    <!-- Ill-conditioned functions, 2-D -->
    <g transform="translate(60.41088 25.583055)scale(0.102 -0.102)">
     <defs>
      <path d="M 628 4666 
L 1259 4666 
L 1259 0 
L 628 0 
L 628 4666 
z
" id="DejaVuSans-49" transform="scale(0.015625)"/>
      <path d="M 1259 4147 
L 1259 519 
L 2022 519 
Q 2988 519 3436 956 
Q 3884 1394 3884 2338 
Q 3884 3275 3436 3711 
Q 2988 4147 2022 4147 
L 1259 4147 
z
M 628 4666 
L 1925 4666 
Q 3281 4666 3915 4102 
Q 4550 3538 4550 2338 
Q 4550 1131 3912 565 
Q 3275 0 1925 0 
L 628 0 
L 628 4666 
z
" id="DejaVuSans-44" transform="scale(0.015625)"/>
     </defs>
     <use xlink:href="#DejaVuSans-49"/>
     <use x="29.492188" xlink:href="#DejaVuSans-6c"/>
     <use x="57.275391" xlink:href="#DejaVuSans-6c"/>
     <use x="85.058594" xlink:href="#DejaVuSans-2d"/>
     <use x="121.142578" xlink:href="#DejaVuSans-63"/>
     <use x="176.123047" xlink:href="#DejaVuSans-6f"/>
     <use x="237.304688" xlink:href="#DejaVuSans-6e"/>
     <use x="300.683594" xlink:href="#DejaVuSans-64"/>
     <use x="364.160156" xlink:href="#DejaVuSans-69"/>
     <use x="391.943359" xlink:href="#DejaVuSans-74"/>
     <use x="431.152344" xlink:href="#DejaVuSans-69"/>
     <use x="458.935547" xlink:href="#DejaVuSans-6f"/>
     <use x="520.117188" xlink:href="#DejaVuSans-6e"/>
     <use x="583.496094" xlink:href="#DejaVuSans-65"/>
     <use x="645.019531" xlink:href="#DejaVuSans-64"/>
     <use x="708.496094" xlink:href="#DejaVuSans-20"/>
     <use x="740.283203" xlink:href="#DejaVuSans-66"/>
     <use x="775.488281" xlink:href="#DejaVuSans-75"/>
     <use x="838.867188" xlink:href="#DejaVuSans-6e"/>
     <use x="902.246094" xlink:href="#DejaVuSans-63"/>
     <use x="957.226562" xlink:href="#DejaVuSans-74"/>
     <use x="996.435547" xlink:href="#DejaVuSans-69"/>
     <use x="1024.21875" xlink:href="#DejaVuSans-6f"/>
     <use x="1085.400391" xlink:href="#DejaVuSans-6e"/>
     <use x="1148.779297" xlink:href="#DejaVuSans-73"/>
     <use x="1200.878906" xlink:href="#DejaVuSans-2c"/>
     <use x="1232.666016" xlink:href="#DejaVuSans-20"/>
     <use x="1264.453125" xlink:href="#DejaVuSans-32"/>
     <use x="1328.076172" xlink:href="#DejaVuSans-2d"/>
     <use x="1364.160156" xlink:href="#DejaVuSans-44"/>
    </g>
    <!-- 51 targets: 100..1e-08 -->
    <g transform="translate(60.41088 37.004824)scale(0.102 -0.102)">
     <defs>
      <path d="M 691 4666 
L 3169 4666 
L 3169 4134 
L 1269 4134 
L 1269 2991 
Q 1406 3038 1543 3061 
Q 1681 3084 1819 3084 
Q 2600 3084 3056 2656 
Q 3513 2228 3513 1497 
Q 3513 744 3044 326 
Q 2575 -91 1722 -91 
Q 1428 -91 1123 -41 
Q 819 9 494 109 
L 494 744 
Q 775 591 1075 516 
Q 1375 441 1709 441 
Q 2250 441 2565 725 
Q 2881 1009 2881 1497 
Q 2881 1984 2565 2268 
Q 2250 2553 1709 2553 
Q 1456 2553 1204 2497 
Q 953 2441 691 2322 
L 691 4666 
z
" id="DejaVuSans-35" transform="scale(0.015625)"/>
      <path d="M 750 794 
L 1409 794 
L 1409 0 
L 750 0 
L 750 794 
z
M 750 3309 
L 1409 3309 
L 1409 2516 
L 750 2516 
L 750 3309 
z
" id="DejaVuSans-3a" transform="scale(0.015625)"/>
     </defs>
     <use xlink:href="#DejaVuSans-35"/>
     <use x="63.623047" xlink:href="#DejaVuSans-31"/>
     <use x="127.246094" xlink:href="#DejaVuSans-20"/>
     <use x="159.033203" xlink:href="#DejaVuSans-74"/>
     <use x="198.242188" xlink:href="#DejaVuSans-61"/>
     <use x="259.521484" xlink:href="#DejaVuSans-72"/>
     <use x="298.884766" xlink:href="#DejaVuSans-67"/>
     <use x="362.361328" xlink:href="#DejaVuSans-65"/>
     <use x="423.884766" xlink:href="#DejaVuSans-74"/>
     <use x="463.09375" xlink:href="#DejaVuSans-73"/>
     <use x="515.193359" xlink:href="#DejaVuSans-3a"/>
     <use x="548.884766" xlink:href="#DejaVuSans-20"/>
     <use x="580.671875" xlink:href="#DejaVuSans-31"/>
     <use x="644.294922" xlink:href="#DejaVuSans-30"/>
     <use x="707.917969" xlink:href="#DejaVuSans-30"/>
     <use x="771.541016" xlink:href="#DejaVuSans-2e"/>
     <use x="803.328125" xlink:href="#DejaVuSans-2e"/>
     <use x="835.115234" xlink:href="#DejaVuSans-31"/>
     <use x="898.738281" xlink:href="#DejaVuSans-65"/>
     <use x="960.261719" xlink:href="#DejaVuSans-2d"/>
     <use x="996.345703" xlink:href="#DejaVuSans-30"/>
     <use x="1059.96875" xlink:href="#DejaVuSans-38"/>
    </g>
    <!-- 15 instances -->
    <g transform="translate(60.41088 48.426593)scale(0.102 -0.102)">
     <use xlink:href="#DejaVuSans-31"/>
     <use x="63.623047" xlink:href="#DejaVuSans-35"/>
     <use x="127.246094" xlink:href="#DejaVuSans-20"/>
     <use x="159.033203" xlink:href="#DejaVuSans-69"/>
     <use x="186.816406" xlink:href="#DejaVuSans-6e"/>
     <use x="250.195312" xlink:href="#DejaVuSans-73"/>
     <use x="302.294922" xlink:href="#DejaVuSans-74"/>
     <use x="341.503906" xlink:href="#DejaVuSans-61"/>
     <use x="402.783203" xlink:href="#DejaVuSans-6e"/>
     <use x="466.162109" xlink:href="#DejaVuSans-63"/>
     <use x="521.142578" xlink:href="#DejaVuSans-65"/>
     <use x="582.666016" xlink:href="#DejaVuSans-73"/>
    </g>
   </g>
   <g id="text_19">
    <!-- v2.4 -->
    <g style="fill:#808080;" transform="translate(187.233062 293.909432)scale(0.1 -0.1)">
     <use xlink:href="#DejaVuSans-76"/>
     <use x="59.179688" xlink:href="#DejaVuSans-32"/>
     <use x="122.802734" xlink:href="#DejaVuSans-2e"/>
     <use x="154.589844" xlink:href="#DejaVuSans-34"/>
    </g>
   </g>
  </g>
 </g>
 <defs>
  <clipPath id="p8e43e1fb0b">
   <rect height="295.488" width="281.088" x="57.6" y="3.456"/>
  </clipPath>
 </defs>
</svg>
