<?xml version="1.0" encoding="utf-8" standalone="no"?>
<!DOCTYPE svg PUBLIC "-//W3C//DTD SVG 1.1//EN"
  "http://www.w3.org/Graphics/SVG/1.1/DTD/svg11.dtd">
<svg height="345.6pt" version="1.1" viewBox="0 0 460.8 345.6" width="460.8pt" xmlns="http://www.w3.org/2000/svg" xmlns:xlink="http://www.w3.org/1999/xlink">
 <metadata>
  <rdf:RDF xmlns:cc="http://creativecommons.org/ns#" xmlns:dc="http://purl.org/dc/elements/1.1/" xmlns:rdf="http://www.w3.org/1999/02/22-rdf-syntax-ns#">
   <cc:Work>
    <dc:type rdf:resource="http://purl.org/dc/dcmitype/StillImage"/>
    <dc:date>2021-07-27T16:03:46.853647</dc:date>
    <dc:format>image/svg+xml</dc:format>
    <dc:creator>
     <cc:Agent>
      <dc:title>Matplotlib v3.4.2, https://matplotlib.org/</dc:title>
     </cc:Agent>
    </dc:creator>
   </cc:Work>
  </rdf:RDF>
 </metadata>
 <defs>
  <style type="text/css">*{stroke-linecap:butt;stroke-linejoin:round;}</style>
 </defs>
 <g id="figure_1">
  <g id="patch_1">
   <path d="M 0 345.6 
L 460.8 345.6 
L 460.8 0 
L 0 0 
z
" style="fill:#ffffff;"/>
  </g>
  <g id="axes_1">
   <g id="patch_2">
    <path d="M 57.6 298.944 
L 338.688 298.944 
L 338.688 27.648 
L 57.6 27.648 
z
" style="fill:#ffffff;"/>
   </g>
   <g id="matplotlib.axis_1">
    <g id="xtick_1">
     <g id="line2d_1">
      <path clip-path="url(#p6a278cb9d2)" d="M 57.6 298.944 
L 57.6 27.648 
" style="fill:none;stroke:#b0b0b0;stroke-linecap:square;stroke-width:0.8;"/>
     </g>
     <g id="line2d_2">
      <defs>
       <path d="M 0 0 
L 0 3.5 
" id="ma7ebbbccce" style="stroke:#000000;stroke-width:0.8;"/>
      </defs>
      <g>
       <use style="stroke:#000000;stroke-width:0.8;" x="57.6" xlink:href="#ma7ebbbccce" y="298.944"/>
      </g>
     </g>
     <g id="text_1">
      <!-- 0 -->
      <g transform="translate(51.2375 321.140875)scale(0.2 -0.2)">
       <defs>
        <path d="M 2034 4250 
Q 1547 4250 1301 3770 
Q 1056 3291 1056 2328 
Q 1056 1369 1301 889 
Q 1547 409 2034 409 
Q 2525 409 2770 889 
Q 3016 1369 3016 2328 
Q 3016 3291 2770 3770 
Q 2525 4250 2034 4250 
z
M 2034 4750 
Q 2819 4750 3233 4129 
Q 3647 3509 3647 2328 
Q 3647 1150 3233 529 
Q 2819 -91 2034 -91 
Q 1250 -91 836 529 
Q 422 1150 422 2328 
Q 422 3509 836 4129 
Q 1250 4750 2034 4750 
z
" id="DejaVuSans-30" transform="scale(0.015625)"/>
       </defs>
       <use xlink:href="#DejaVuSans-30"/>
      </g>
     </g>
    </g>
    <g id="xtick_2">
     <g id="line2d_3">
      <path clip-path="url(#p6a278cb9d2)" d="M 137.910857 298.944 
L 137.910857 27.648 
" style="fill:none;stroke:#b0b0b0;stroke-linecap:square;stroke-width:0.8;"/>
     </g>
     <g id="line2d_4">
      <g>
       <use style="stroke:#000000;stroke-width:0.8;" x="137.910857" xlink:href="#ma7ebbbccce" y="298.944"/>
      </g>
     </g>
     <g id="text_2">
      <!-- 2 -->
      <g transform="translate(131.548357 321.140875)scale(0.2 -0.2)">
       <defs>
        <path d="M 1228 531 
L 3431 531 
L 3431 0 
L 469 0 
L 469 531 
Q 828 903 1448 1529 
Q 2069 2156 2228 2338 
Q 2531 2678 2651 2914 
Q 2772 3150 2772 3378 
Q 2772 3750 2511 3984 
Q 2250 4219 1831 4219 
Q 1534 4219 1204 4116 
Q 875 4013 500 3803 
L 500 4441 
Q 881 4594 1212 4672 
Q 1544 4750 1819 4750 
Q 2544 4750 2975 4387 
Q 3406 4025 3406 3419 
Q 3406 3131 3298 2873 
Q 3191 2616 2906 2266 
Q 2828 2175 2409 1742 
Q 1991 1309 1228 531 
z
" id="DejaVuSans-32" transform="scale(0.015625)"/>
       </defs>
       <use xlink:href="#DejaVuSans-32"/>
      </g>
     </g>
    </g>
    <g id="xtick_3">
     <g id="line2d_5">
      <path clip-path="url(#p6a278cb9d2)" d="M 218.221714 298.944 
L 218.221714 27.648 
" style="fill:none;stroke:#b0b0b0;stroke-linecap:square;stroke-width:0.8;"/>
     </g>
     <g id="line2d_6">
      <g>
       <use style="stroke:#000000;stroke-width:0.8;" x="218.221714" xlink:href="#ma7ebbbccce" y="298.944"/>
      </g>
     </g>
     <g id="text_3">
      <!-- 4 -->
      <g transform="translate(211.859214 321.140875)scale(0.2 -0.2)">
       <defs>
        <path d="M 2419 4116 
L 825 1625 
L 2419 1625 
L 2419 4116 
z
M 2253 4666 
L 3047 4666 
L 3047 1625 
L 3713 1625 
L 3713 1100 
L 3047 1100 
L 3047 0 
L 2419 0 
L 2419 1100 
L 313 1100 
L 313 1709 
L 2253 4666 
z
" id="DejaVuSans-34" transform="scale(0.015625)"/>
       </defs>
       <use xlink:href="#DejaVuSans-34"/>
      </g>
     </g>
    </g>
    <g id="xtick_4">
     <g id="line2d_7">
      <path clip-path="url(#p6a278cb9d2)" d="M 298.532571 298.944 
L 298.532571 27.648 
" style="fill:none;stroke:#b0b0b0;stroke-linecap:square;stroke-width:0.8;"/>
     </g>
     <g id="line2d_8">
      <g>
       <use style="stroke:#000000;stroke-width:0.8;" x="298.532571" xlink:href="#ma7ebbbccce" y="298.944"/>
      </g>
     </g>
     <g id="text_4">
      <!-- 6 -->
      <g transform="translate(292.170071 321.140875)scale(0.2 -0.2)">
       <defs>
        <path d="M 2113 2584 
Q 1688 2584 1439 2293 
Q 1191 2003 1191 1497 
Q 1191 994 1439 701 
Q 1688 409 2113 409 
Q 2538 409 2786 701 
Q 3034 994 3034 1497 
Q 3034 2003 2786 2293 
Q 2538 2584 2113 2584 
z
M 3366 4563 
L 3366 3988 
Q 3128 4100 2886 4159 
Q 2644 4219 2406 4219 
Q 1781 4219 1451 3797 
Q 1122 3375 1075 2522 
Q 1259 2794 1537 2939 
Q 1816 3084 2150 3084 
Q 2853 3084 3261 2657 
Q 3669 2231 3669 1497 
Q 3669 778 3244 343 
Q 2819 -91 2113 -91 
Q 1303 -91 875 529 
Q 447 1150 447 2328 
Q 447 3434 972 4092 
Q 1497 4750 2381 4750 
Q 2619 4750 2861 4703 
Q 3103 4656 3366 4563 
z
" id="DejaVuSans-36" transform="scale(0.015625)"/>
       </defs>
       <use xlink:href="#DejaVuSans-36"/>
      </g>
     </g>
    </g>
    <g id="xtick_5">
     <g id="line2d_9">
      <path clip-path="url(#p6a278cb9d2)" d="M 97.755429 298.944 
L 97.755429 27.648 
" style="fill:none;stroke:#b0b0b0;stroke-linecap:square;stroke-width:0.8;"/>
     </g>
     <g id="line2d_10">
      <defs>
       <path d="M 0 0 
L 0 2 
" id="m7b32078001" style="stroke:#000000;stroke-width:0.6;"/>
      </defs>
      <g>
       <use style="stroke:#000000;stroke-width:0.6;" x="97.755429" xlink:href="#m7b32078001" y="298.944"/>
      </g>
     </g>
    </g>
    <g id="xtick_6">
     <g id="line2d_11">
      <path clip-path="url(#p6a278cb9d2)" d="M 178.066286 298.944 
L 178.066286 27.648 
" style="fill:none;stroke:#b0b0b0;stroke-linecap:square;stroke-width:0.8;"/>
     </g>
     <g id="line2d_12">
      <g>
       <use style="stroke:#000000;stroke-width:0.6;" x="178.066286" xlink:href="#m7b32078001" y="298.944"/>
      </g>
     </g>
    </g>
    <g id="xtick_7">
     <g id="line2d_13">
      <path clip-path="url(#p6a278cb9d2)" d="M 258.377143 298.944 
L 258.377143 27.648 
" style="fill:none;stroke:#b0b0b0;stroke-linecap:square;stroke-width:0.8;"/>
     </g>
     <g id="line2d_14">
      <g>
       <use style="stroke:#000000;stroke-width:0.6;" x="258.377143" xlink:href="#m7b32078001" y="298.944"/>
      </g>
     </g>
    </g>
    <g id="xtick_8">
     <g id="line2d_15">
      <path clip-path="url(#p6a278cb9d2)" d="M 338.688 298.944 
L 338.688 27.648 
" style="fill:none;stroke:#b0b0b0;stroke-linecap:square;stroke-width:0.8;"/>
     </g>
     <g id="line2d_16">
      <g>
       <use style="stroke:#000000;stroke-width:0.6;" x="338.688" xlink:href="#m7b32078001" y="298.944"/>
      </g>
     </g>
    </g>
    <g id="text_5">
     <!-- log10(# f-evals / dimension) -->
     <g transform="translate(77.764078 342.217594)scale(0.17 -0.17)">
      <defs>
       <path d="M 603 4863 
L 1178 4863 
L 1178 0 
L 603 0 
L 603 4863 
z
" id="DejaVuSans-6c" transform="scale(0.015625)"/>
       <path d="M 1959 3097 
Q 1497 3097 1228 2736 
Q 959 2375 959 1747 
Q 959 1119 1226 758 
Q 1494 397 1959 397 
Q 2419 397 2687 759 
Q 2956 1122 2956 1747 
Q 2956 2369 2687 2733 
Q 2419 3097 1959 3097 
z
M 1959 3584 
Q 2709 3584 3137 3096 
Q 3566 2609 3566 1747 
Q 3566 888 3137 398 
Q 2709 -91 1959 -91 
Q 1206 -91 779 398 
Q 353 888 353 1747 
Q 353 2609 779 3096 
Q 1206 3584 1959 3584 
z
" id="DejaVuSans-6f" transform="scale(0.015625)"/>
       <path d="M 2906 1791 
Q 2906 2416 2648 2759 
Q 2391 3103 1925 3103 
Q 1463 3103 1205 2759 
Q 947 2416 947 1791 
Q 947 1169 1205 825 
Q 1463 481 1925 481 
Q 2391 481 2648 825 
Q 2906 1169 2906 1791 
z
M 3481 434 
Q 3481 -459 3084 -895 
Q 2688 -1331 1869 -1331 
Q 1566 -1331 1297 -1286 
Q 1028 -1241 775 -1147 
L 775 -588 
Q 1028 -725 1275 -790 
Q 1522 -856 1778 -856 
Q 2344 -856 2625 -561 
Q 2906 -266 2906 331 
L 2906 616 
Q 2728 306 2450 153 
Q 2172 0 1784 0 
Q 1141 0 747 490 
Q 353 981 353 1791 
Q 353 2603 747 3093 
Q 1141 3584 1784 3584 
Q 2172 3584 2450 3431 
Q 2728 3278 2906 2969 
L 2906 3500 
L 3481 3500 
L 3481 434 
z
" id="DejaVuSans-67" transform="scale(0.015625)"/>
       <path d="M 794 531 
L 1825 531 
L 1825 4091 
L 703 3866 
L 703 4441 
L 1819 4666 
L 2450 4666 
L 2450 531 
L 3481 531 
L 3481 0 
L 794 0 
L 794 531 
z
" id="DejaVuSans-31" transform="scale(0.015625)"/>
       <path d="M 1984 4856 
Q 1566 4138 1362 3434 
Q 1159 2731 1159 2009 
Q 1159 1288 1364 580 
Q 1569 -128 1984 -844 
L 1484 -844 
Q 1016 -109 783 600 
Q 550 1309 550 2009 
Q 550 2706 781 3412 
Q 1013 4119 1484 4856 
L 1984 4856 
z
" id="DejaVuSans-28" transform="scale(0.015625)"/>
       <path d="M 3272 2816 
L 2363 2816 
L 2100 1772 
L 3016 1772 
L 3272 2816 
z
M 2803 4594 
L 2478 3297 
L 3391 3297 
L 3719 4594 
L 4219 4594 
L 3897 3297 
L 4872 3297 
L 4872 2816 
L 3775 2816 
L 3519 1772 
L 4513 1772 
L 4513 1294 
L 3397 1294 
L 3072 0 
L 2572 0 
L 2894 1294 
L 1978 1294 
L 1656 0 
L 1153 0 
L 1478 1294 
L 494 1294 
L 494 1772 
L 1594 1772 
L 1856 2816 
L 850 2816 
L 850 3297 
L 1978 3297 
L 2297 4594 
L 2803 4594 
z
" id="DejaVuSans-23" transform="scale(0.015625)"/>
       <path id="DejaVuSans-20" transform="scale(0.015625)"/>
       <path d="M 2375 4863 
L 2375 4384 
L 1825 4384 
Q 1516 4384 1395 4259 
Q 1275 4134 1275 3809 
L 1275 3500 
L 2222 3500 
L 2222 3053 
L 1275 3053 
L 1275 0 
L 697 0 
L 697 3053 
L 147 3053 
L 147 3500 
L 697 3500 
L 697 3744 
Q 697 4328 969 4595 
Q 1241 4863 1831 4863 
L 2375 4863 
z
" id="DejaVuSans-66" transform="scale(0.015625)"/>
       <path d="M 313 2009 
L 1997 2009 
L 1997 1497 
L 313 1497 
L 313 2009 
z
" id="DejaVuSans-2d" transform="scale(0.015625)"/>
       <path d="M 3597 1894 
L 3597 1613 
L 953 1613 
Q 991 1019 1311 708 
Q 1631 397 2203 397 
Q 2534 397 2845 478 
Q 3156 559 3463 722 
L 3463 178 
Q 3153 47 2828 -22 
Q 2503 -91 2169 -91 
Q 1331 -91 842 396 
Q 353 884 353 1716 
Q 353 2575 817 3079 
Q 1281 3584 2069 3584 
Q 2775 3584 3186 3129 
Q 3597 2675 3597 1894 
z
M 3022 2063 
Q 3016 2534 2758 2815 
Q 2500 3097 2075 3097 
Q 1594 3097 1305 2825 
Q 1016 2553 972 2059 
L 3022 2063 
z
" id="DejaVuSans-65" transform="scale(0.015625)"/>
       <path d="M 191 3500 
L 800 3500 
L 1894 563 
L 2988 3500 
L 3597 3500 
L 2284 0 
L 1503 0 
L 191 3500 
z
" id="DejaVuSans-76" transform="scale(0.015625)"/>
       <path d="M 2194 1759 
Q 1497 1759 1228 1600 
Q 959 1441 959 1056 
Q 959 750 1161 570 
Q 1363 391 1709 391 
Q 2188 391 2477 730 
Q 2766 1069 2766 1631 
L 2766 1759 
L 2194 1759 
z
M 3341 1997 
L 3341 0 
L 2766 0 
L 2766 531 
Q 2569 213 2275 61 
Q 1981 -91 1556 -91 
Q 1019 -91 701 211 
Q 384 513 384 1019 
Q 384 1609 779 1909 
Q 1175 2209 1959 2209 
L 2766 2209 
L 2766 2266 
Q 2766 2663 2505 2880 
Q 2244 3097 1772 3097 
Q 1472 3097 1187 3025 
Q 903 2953 641 2809 
L 641 3341 
Q 956 3463 1253 3523 
Q 1550 3584 1831 3584 
Q 2591 3584 2966 3190 
Q 3341 2797 3341 1997 
z
" id="DejaVuSans-61" transform="scale(0.015625)"/>
       <path d="M 2834 3397 
L 2834 2853 
Q 2591 2978 2328 3040 
Q 2066 3103 1784 3103 
Q 1356 3103 1142 2972 
Q 928 2841 928 2578 
Q 928 2378 1081 2264 
Q 1234 2150 1697 2047 
L 1894 2003 
Q 2506 1872 2764 1633 
Q 3022 1394 3022 966 
Q 3022 478 2636 193 
Q 2250 -91 1575 -91 
Q 1294 -91 989 -36 
Q 684 19 347 128 
L 347 722 
Q 666 556 975 473 
Q 1284 391 1588 391 
Q 1994 391 2212 530 
Q 2431 669 2431 922 
Q 2431 1156 2273 1281 
Q 2116 1406 1581 1522 
L 1381 1569 
Q 847 1681 609 1914 
Q 372 2147 372 2553 
Q 372 3047 722 3315 
Q 1072 3584 1716 3584 
Q 2034 3584 2315 3537 
Q 2597 3491 2834 3397 
z
" id="DejaVuSans-73" transform="scale(0.015625)"/>
       <path d="M 1625 4666 
L 2156 4666 
L 531 -594 
L 0 -594 
L 1625 4666 
z
" id="DejaVuSans-2f" transform="scale(0.015625)"/>
       <path d="M 2906 2969 
L 2906 4863 
L 3481 4863 
L 3481 0 
L 2906 0 
L 2906 525 
Q 2725 213 2448 61 
Q 2172 -91 1784 -91 
Q 1150 -91 751 415 
Q 353 922 353 1747 
Q 353 2572 751 3078 
Q 1150 3584 1784 3584 
Q 2172 3584 2448 3432 
Q 2725 3281 2906 2969 
z
M 947 1747 
Q 947 1113 1208 752 
Q 1469 391 1925 391 
Q 2381 391 2643 752 
Q 2906 1113 2906 1747 
Q 2906 2381 2643 2742 
Q 2381 3103 1925 3103 
Q 1469 3103 1208 2742 
Q 947 2381 947 1747 
z
" id="DejaVuSans-64" transform="scale(0.015625)"/>
       <path d="M 603 3500 
L 1178 3500 
L 1178 0 
L 603 0 
L 603 3500 
z
M 603 4863 
L 1178 4863 
L 1178 4134 
L 603 4134 
L 603 4863 
z
" id="DejaVuSans-69" transform="scale(0.015625)"/>
       <path d="M 3328 2828 
Q 3544 3216 3844 3400 
Q 4144 3584 4550 3584 
Q 5097 3584 5394 3201 
Q 5691 2819 5691 2113 
L 5691 0 
L 5113 0 
L 5113 2094 
Q 5113 2597 4934 2840 
Q 4756 3084 4391 3084 
Q 3944 3084 3684 2787 
Q 3425 2491 3425 1978 
L 3425 0 
L 2847 0 
L 2847 2094 
Q 2847 2600 2669 2842 
Q 2491 3084 2119 3084 
Q 1678 3084 1418 2786 
Q 1159 2488 1159 1978 
L 1159 0 
L 581 0 
L 581 3500 
L 1159 3500 
L 1159 2956 
Q 1356 3278 1631 3431 
Q 1906 3584 2284 3584 
Q 2666 3584 2933 3390 
Q 3200 3197 3328 2828 
z
" id="DejaVuSans-6d" transform="scale(0.015625)"/>
       <path d="M 3513 2113 
L 3513 0 
L 2938 0 
L 2938 2094 
Q 2938 2591 2744 2837 
Q 2550 3084 2163 3084 
Q 1697 3084 1428 2787 
Q 1159 2491 1159 1978 
L 1159 0 
L 581 0 
L 581 3500 
L 1159 3500 
L 1159 2956 
Q 1366 3272 1645 3428 
Q 1925 3584 2291 3584 
Q 2894 3584 3203 3211 
Q 3513 2838 3513 2113 
z
" id="DejaVuSans-6e" transform="scale(0.015625)"/>
       <path d="M 513 4856 
L 1013 4856 
Q 1481 4119 1714 3412 
Q 1947 2706 1947 2009 
Q 1947 1309 1714 600 
Q 1481 -109 1013 -844 
L 513 -844 
Q 928 -128 1133 580 
Q 1338 1288 1338 2009 
Q 1338 2731 1133 3434 
Q 928 4138 513 4856 
z
" id="DejaVuSans-29" transform="scale(0.015625)"/>
      </defs>
      <use xlink:href="#DejaVuSans-6c"/>
      <use x="27.783203" xlink:href="#DejaVuSans-6f"/>
      <use x="88.964844" xlink:href="#DejaVuSans-67"/>
      <use x="152.441406" xlink:href="#DejaVuSans-31"/>
      <use x="216.064453" xlink:href="#DejaVuSans-30"/>
      <use x="279.6875" xlink:href="#DejaVuSans-28"/>
      <use x="318.701172" xlink:href="#DejaVuSans-23"/>
      <use x="402.490234" xlink:href="#DejaVuSans-20"/>
      <use x="434.277344" xlink:href="#DejaVuSans-66"/>
      <use x="463.982422" xlink:href="#DejaVuSans-2d"/>
      <use x="500.066406" xlink:href="#DejaVuSans-65"/>
      <use x="561.589844" xlink:href="#DejaVuSans-76"/>
      <use x="620.769531" xlink:href="#DejaVuSans-61"/>
      <use x="682.048828" xlink:href="#DejaVuSans-6c"/>
      <use x="709.832031" xlink:href="#DejaVuSans-73"/>
      <use x="761.931641" xlink:href="#DejaVuSans-20"/>
      <use x="793.71875" xlink:href="#DejaVuSans-2f"/>
      <use x="827.410156" xlink:href="#DejaVuSans-20"/>
      <use x="859.197266" xlink:href="#DejaVuSans-64"/>
      <use x="922.673828" xlink:href="#DejaVuSans-69"/>
      <use x="950.457031" xlink:href="#DejaVuSans-6d"/>
      <use x="1047.869141" xlink:href="#DejaVuSans-65"/>
      <use x="1109.392578" xlink:href="#DejaVuSans-6e"/>
      <use x="1172.771484" xlink:href="#DejaVuSans-73"/>
      <use x="1224.871094" xlink:href="#DejaVuSans-69"/>
      <use x="1252.654297" xlink:href="#DejaVuSans-6f"/>
      <use x="1313.835938" xlink:href="#DejaVuSans-6e"/>
      <use x="1377.214844" xlink:href="#DejaVuSans-29"/>
     </g>
    </g>
   </g>
   <g id="matplotlib.axis_2">
    <g id="ytick_1">
     <g id="line2d_17">
      <path clip-path="url(#p6a278cb9d2)" d="M 57.6 298.944 
L 338.688 298.944 
" style="fill:none;stroke:#b0b0b0;stroke-linecap:square;stroke-width:0.8;"/>
     </g>
     <g id="line2d_18">
      <defs>
       <path d="M 0 0 
L -3.5 0 
" id="m9a17cbb3d0" style="stroke:#000000;stroke-width:0.8;"/>
      </defs>
      <g>
       <use style="stroke:#000000;stroke-width:0.8;" x="57.6" xlink:href="#m9a17cbb3d0" y="298.944"/>
      </g>
     </g>
     <g id="text_6">
      <!-- 0.0 -->
      <g transform="translate(25.155 305.02275)scale(0.16 -0.16)">
       <defs>
        <path d="M 684 794 
L 1344 794 
L 1344 0 
L 684 0 
L 684 794 
z
" id="DejaVuSans-2e" transform="scale(0.015625)"/>
       </defs>
       <use xlink:href="#DejaVuSans-30"/>
       <use x="63.623047" xlink:href="#DejaVuSans-2e"/>
       <use x="95.410156" xlink:href="#DejaVuSans-30"/>
      </g>
     </g>
    </g>
    <g id="ytick_2">
     <g id="line2d_19">
      <path clip-path="url(#p6a278cb9d2)" d="M 57.6 245.22202 
L 338.688 245.22202 
" style="fill:none;stroke:#b0b0b0;stroke-linecap:square;stroke-width:0.8;"/>
     </g>
     <g id="line2d_20">
      <g>
       <use style="stroke:#000000;stroke-width:0.8;" x="57.6" xlink:href="#m9a17cbb3d0" y="245.22202"/>
      </g>
     </g>
     <g id="text_7">
      <!-- 0.2 -->
      <g transform="translate(25.155 251.30077)scale(0.16 -0.16)">
       <use xlink:href="#DejaVuSans-30"/>
       <use x="63.623047" xlink:href="#DejaVuSans-2e"/>
       <use x="95.410156" xlink:href="#DejaVuSans-32"/>
      </g>
     </g>
    </g>
    <g id="ytick_3">
     <g id="line2d_21">
      <path clip-path="url(#p6a278cb9d2)" d="M 57.6 191.50004 
L 338.688 191.50004 
" style="fill:none;stroke:#b0b0b0;stroke-linecap:square;stroke-width:0.8;"/>
     </g>
     <g id="line2d_22">
      <g>
       <use style="stroke:#000000;stroke-width:0.8;" x="57.6" xlink:href="#m9a17cbb3d0" y="191.50004"/>
      </g>
     </g>
     <g id="text_8">
      <!-- 0.4 -->
      <g transform="translate(25.155 197.57879)scale(0.16 -0.16)">
       <use xlink:href="#DejaVuSans-30"/>
       <use x="63.623047" xlink:href="#DejaVuSans-2e"/>
       <use x="95.410156" xlink:href="#DejaVuSans-34"/>
      </g>
     </g>
    </g>
    <g id="ytick_4">
     <g id="line2d_23">
      <path clip-path="url(#p6a278cb9d2)" d="M 57.6 137.778059 
L 338.688 137.778059 
" style="fill:none;stroke:#b0b0b0;stroke-linecap:square;stroke-width:0.8;"/>
     </g>
     <g id="line2d_24">
      <g>
       <use style="stroke:#000000;stroke-width:0.8;" x="57.6" xlink:href="#m9a17cbb3d0" y="137.778059"/>
      </g>
     </g>
     <g id="text_9">
      <!-- 0.6 -->
      <g transform="translate(25.155 143.856809)scale(0.16 -0.16)">
       <use xlink:href="#DejaVuSans-30"/>
       <use x="63.623047" xlink:href="#DejaVuSans-2e"/>
       <use x="95.410156" xlink:href="#DejaVuSans-36"/>
      </g>
     </g>
    </g>
    <g id="ytick_5">
     <g id="line2d_25">
      <path clip-path="url(#p6a278cb9d2)" d="M 57.6 84.056079 
L 338.688 84.056079 
" style="fill:none;stroke:#b0b0b0;stroke-linecap:square;stroke-width:0.8;"/>
     </g>
     <g id="line2d_26">
      <g>
       <use style="stroke:#000000;stroke-width:0.8;" x="57.6" xlink:href="#m9a17cbb3d0" y="84.056079"/>
      </g>
     </g>
     <g id="text_10">
      <!-- 0.8 -->
      <g transform="translate(25.155 90.134829)scale(0.16 -0.16)">
       <defs>
        <path d="M 2034 2216 
Q 1584 2216 1326 1975 
Q 1069 1734 1069 1313 
Q 1069 891 1326 650 
Q 1584 409 2034 409 
Q 2484 409 2743 651 
Q 3003 894 3003 1313 
Q 3003 1734 2745 1975 
Q 2488 2216 2034 2216 
z
M 1403 2484 
Q 997 2584 770 2862 
Q 544 3141 544 3541 
Q 544 4100 942 4425 
Q 1341 4750 2034 4750 
Q 2731 4750 3128 4425 
Q 3525 4100 3525 3541 
Q 3525 3141 3298 2862 
Q 3072 2584 2669 2484 
Q 3125 2378 3379 2068 
Q 3634 1759 3634 1313 
Q 3634 634 3220 271 
Q 2806 -91 2034 -91 
Q 1263 -91 848 271 
Q 434 634 434 1313 
Q 434 1759 690 2068 
Q 947 2378 1403 2484 
z
M 1172 3481 
Q 1172 3119 1398 2916 
Q 1625 2713 2034 2713 
Q 2441 2713 2670 2916 
Q 2900 3119 2900 3481 
Q 2900 3844 2670 4047 
Q 2441 4250 2034 4250 
Q 1625 4250 1398 4047 
Q 1172 3844 1172 3481 
z
" id="DejaVuSans-38" transform="scale(0.015625)"/>
       </defs>
       <use xlink:href="#DejaVuSans-30"/>
       <use x="63.623047" xlink:href="#DejaVuSans-2e"/>
       <use x="95.410156" xlink:href="#DejaVuSans-38"/>
      </g>
     </g>
    </g>
    <g id="ytick_6">
     <g id="line2d_27">
      <path clip-path="url(#p6a278cb9d2)" d="M 57.6 30.334099 
L 338.688 30.334099 
" style="fill:none;stroke:#b0b0b0;stroke-linecap:square;stroke-width:0.8;"/>
     </g>
     <g id="line2d_28">
      <g>
       <use style="stroke:#000000;stroke-width:0.8;" x="57.6" xlink:href="#m9a17cbb3d0" y="30.334099"/>
      </g>
     </g>
     <g id="text_11">
      <!-- 1.0 -->
      <g transform="translate(25.155 36.412849)scale(0.16 -0.16)">
       <use xlink:href="#DejaVuSans-31"/>
       <use x="63.623047" xlink:href="#DejaVuSans-2e"/>
       <use x="95.410156" xlink:href="#DejaVuSans-30"/>
      </g>
     </g>
    </g>
    <g id="text_12">
     <!-- Fraction of function,target pairs -->
     <g transform="translate(17.619531 297.681)rotate(-90)scale(0.17 -0.17)">
      <defs>
       <path d="M 628 4666 
L 3309 4666 
L 3309 4134 
L 1259 4134 
L 1259 2759 
L 3109 2759 
L 3109 2228 
L 1259 2228 
L 1259 0 
L 628 0 
L 628 4666 
z
" id="DejaVuSans-46" transform="scale(0.015625)"/>
       <path d="M 2631 2963 
Q 2534 3019 2420 3045 
Q 2306 3072 2169 3072 
Q 1681 3072 1420 2755 
Q 1159 2438 1159 1844 
L 1159 0 
L 581 0 
L 581 3500 
L 1159 3500 
L 1159 2956 
Q 1341 3275 1631 3429 
Q 1922 3584 2338 3584 
Q 2397 3584 2469 3576 
Q 2541 3569 2628 3553 
L 2631 2963 
z
" id="DejaVuSans-72" transform="scale(0.015625)"/>
       <path d="M 3122 3366 
L 3122 2828 
Q 2878 2963 2633 3030 
Q 2388 3097 2138 3097 
Q 1578 3097 1268 2742 
Q 959 2388 959 1747 
Q 959 1106 1268 751 
Q 1578 397 2138 397 
Q 2388 397 2633 464 
Q 2878 531 3122 666 
L 3122 134 
Q 2881 22 2623 -34 
Q 2366 -91 2075 -91 
Q 1284 -91 818 406 
Q 353 903 353 1747 
Q 353 2603 823 3093 
Q 1294 3584 2113 3584 
Q 2378 3584 2631 3529 
Q 2884 3475 3122 3366 
z
" id="DejaVuSans-63" transform="scale(0.015625)"/>
       <path d="M 1172 4494 
L 1172 3500 
L 2356 3500 
L 2356 3053 
L 1172 3053 
L 1172 1153 
Q 1172 725 1289 603 
Q 1406 481 1766 481 
L 2356 481 
L 2356 0 
L 1766 0 
Q 1100 0 847 248 
Q 594 497 594 1153 
L 594 3053 
L 172 3053 
L 172 3500 
L 594 3500 
L 594 4494 
L 1172 4494 
z
" id="DejaVuSans-74" transform="scale(0.015625)"/>
       <path d="M 544 1381 
L 544 3500 
L 1119 3500 
L 1119 1403 
Q 1119 906 1312 657 
Q 1506 409 1894 409 
Q 2359 409 2629 706 
Q 2900 1003 2900 1516 
L 2900 3500 
L 3475 3500 
L 3475 0 
L 2900 0 
L 2900 538 
Q 2691 219 2414 64 
Q 2138 -91 1772 -91 
Q 1169 -91 856 284 
Q 544 659 544 1381 
z
M 1991 3584 
L 1991 3584 
z
" id="DejaVuSans-75" transform="scale(0.015625)"/>
       <path d="M 750 794 
L 1409 794 
L 1409 256 
L 897 -744 
L 494 -744 
L 750 256 
L 750 794 
z
" id="DejaVuSans-2c" transform="scale(0.015625)"/>
       <path d="M 1159 525 
L 1159 -1331 
L 581 -1331 
L 581 3500 
L 1159 3500 
L 1159 2969 
Q 1341 3281 1617 3432 
Q 1894 3584 2278 3584 
Q 2916 3584 3314 3078 
Q 3713 2572 3713 1747 
Q 3713 922 3314 415 
Q 2916 -91 2278 -91 
Q 1894 -91 1617 61 
Q 1341 213 1159 525 
z
M 3116 1747 
Q 3116 2381 2855 2742 
Q 2594 3103 2138 3103 
Q 1681 3103 1420 2742 
Q 1159 2381 1159 1747 
Q 1159 1113 1420 752 
Q 1681 391 2138 391 
Q 2594 391 2855 752 
Q 3116 1113 3116 1747 
z
" id="DejaVuSans-70" transform="scale(0.015625)"/>
      </defs>
      <use xlink:href="#DejaVuSans-46"/>
      <use x="50.269531" xlink:href="#DejaVuSans-72"/>
      <use x="91.382812" xlink:href="#DejaVuSans-61"/>
      <use x="152.662109" xlink:href="#DejaVuSans-63"/>
      <use x="207.642578" xlink:href="#DejaVuSans-74"/>
      <use x="246.851562" xlink:href="#DejaVuSans-69"/>
      <use x="274.634766" xlink:href="#DejaVuSans-6f"/>
      <use x="335.816406" xlink:href="#DejaVuSans-6e"/>
      <use x="399.195312" xlink:href="#DejaVuSans-20"/>
      <use x="430.982422" xlink:href="#DejaVuSans-6f"/>
      <use x="492.164062" xlink:href="#DejaVuSans-66"/>
      <use x="527.369141" xlink:href="#DejaVuSans-20"/>
      <use x="559.15625" xlink:href="#DejaVuSans-66"/>
      <use x="594.361328" xlink:href="#DejaVuSans-75"/>
      <use x="657.740234" xlink:href="#DejaVuSans-6e"/>
      <use x="721.119141" xlink:href="#DejaVuSans-63"/>
      <use x="776.099609" xlink:href="#DejaVuSans-74"/>
      <use x="815.308594" xlink:href="#DejaVuSans-69"/>
      <use x="843.091797" xlink:href="#DejaVuSans-6f"/>
      <use x="904.273438" xlink:href="#DejaVuSans-6e"/>
      <use x="967.652344" xlink:href="#DejaVuSans-2c"/>
      <use x="999.439453" xlink:href="#DejaVuSans-74"/>
      <use x="1038.648438" xlink:href="#DejaVuSans-61"/>
      <use x="1099.927734" xlink:href="#DejaVuSans-72"/>
      <use x="1139.291016" xlink:href="#DejaVuSans-67"/>
      <use x="1202.767578" xlink:href="#DejaVuSans-65"/>
      <use x="1264.291016" xlink:href="#DejaVuSans-74"/>
      <use x="1303.5" xlink:href="#DejaVuSans-20"/>
      <use x="1335.287109" xlink:href="#DejaVuSans-70"/>
      <use x="1398.763672" xlink:href="#DejaVuSans-61"/>
      <use x="1460.042969" xlink:href="#DejaVuSans-69"/>
      <use x="1487.826172" xlink:href="#DejaVuSans-72"/>
      <use x="1528.939453" xlink:href="#DejaVuSans-73"/>
     </g>
    </g>
   </g>
   <g id="line2d_29">
    <defs>
     <path d="M 0 1.5 
C 0.397805 1.5 0.77937 1.341951 1.06066 1.06066 
C 1.341951 0.77937 1.5 0.397805 1.5 0 
C 1.5 -0.397805 1.341951 -0.77937 1.06066 -1.06066 
C 0.77937 -1.341951 0.397805 -1.5 0 -1.5 
C -0.397805 -1.5 -0.77937 -1.341951 -1.06066 -1.06066 
C -1.341951 -0.77937 -1.5 -0.397805 -1.5 0 
C -1.5 0.397805 -1.341951 0.77937 -1.06066 1.06066 
C -0.77937 1.341951 -0.397805 1.5 0 1.5 
z
" id="m94001b8eb7" style="stroke:#00bfbf;"/>
    </defs>
    <g>
     <use style="fill:#00bfbf;stroke:#00bfbf;" x="187.650312" xlink:href="#m94001b8eb7" y="30.334099"/>
     <use style="fill:#00bfbf;stroke:#00bfbf;" x="187.650312" xlink:href="#m94001b8eb7" y="30.334099"/>
    </g>
   </g>
   <g id="line2d_30">
    <path d="M 45.512012 298.944 
L 45.512012 296.31057 
L 57.6 296.31057 
L 57.6 289.463651 
L 64.67102 289.463651 
L 64.67102 288.936964 
L 69.687988 288.936964 
L 69.687988 283.143418 
L 73.579452 283.143418 
L 73.579452 282.616732 
L 79.447285 282.616732 
L 79.447285 279.983301 
L 81.775977 279.983301 
L 81.775977 277.349871 
L 83.830028 277.349871 
L 83.830028 276.823185 
L 85.66744 276.823185 
L 85.66744 272.609696 
L 87.329581 272.609696 
L 87.329581 272.08301 
L 88.846997 272.08301 
L 88.846997 269.976266 
L 91.535274 269.976266 
L 91.535274 269.449579 
L 94.921215 269.449579 
L 94.921215 268.396207 
L 96.86091 268.396207 
L 96.86091 266.816149 
L 99.41757 266.816149 
L 99.41757 266.289463 
L 104.23523 266.289463 
L 104.23523 265.236091 
L 108.006005 265.236091 
L 108.006005 264.709405 
L 109.401893 264.709405 
L 109.401893 263.129347 
L 110.274038 263.129347 
L 110.274038 262.075974 
L 111.505558 262.075974 
L 111.505558 261.549288 
L 111.897469 261.549288 
L 111.897469 261.022602 
L 112.655818 261.022602 
L 112.655818 259.96923 
L 115.077025 259.96923 
L 115.077025 256.809114 
L 115.397021 256.809114 
L 115.397021 256.282427 
L 119.850084 256.282427 
L 119.850084 253.648997 
L 121.036887 253.648997 
L 121.036887 253.122311 
L 122.148045 253.122311 
L 122.148045 252.595625 
L 123.593547 252.595625 
L 123.593547 252.068939 
L 123.985457 252.068939 
L 123.985457 250.488881 
L 124.92835 250.488881 
L 124.92835 249.962195 
L 127.165014 249.962195 
L 127.165014 249.435508 
L 127.799239 249.435508 
L 127.799239 248.908822 
L 129.853291 248.908822 
L 129.853291 247.85545 
L 129.991152 247.85545 
L 129.991152 246.275392 
L 130.531948 246.275392 
L 130.531948 245.748706 
L 136.456742 245.748706 
L 136.456742 245.22202 
L 137.647286 245.22202 
L 137.647286 244.168648 
L 137.910857 244.168648 
L 137.910857 243.641962 
L 138.927025 243.641962 
L 138.927025 241.535217 
L 139.172077 241.535217 
L 139.172077 241.008531 
L 139.964909 241.008531 
L 140.042245 237.848415 
L 140.272217 237.848415 
L 140.272217 237.321729 
L 140.64889 237.321729 
L 140.64889 236.795043 
L 141.235139 236.795043 
L 141.235139 236.268356 
L 142.010346 236.268356 
L 142.010346 234.688298 
L 142.419098 234.688298 
L 142.419098 234.161612 
L 142.619936 234.161612 
L 142.619936 232.054868 
L 145.039911 232.054868 
L 145.039911 231.528182 
L 145.553708 231.528182 
L 145.553708 229.948123 
L 145.888018 229.948123 
L 145.888018 228.894751 
L 147.317833 228.894751 
L 147.317833 227.314693 
L 149.467659 227.314693 
L 149.467659 226.788007 
L 149.779481 226.788007 
L 149.779481 226.261321 
L 150.724698 226.261321 
L 150.808139 225.207949 
L 151.381313 225.207949 
L 151.381313 224.681263 
L 151.897188 224.681263 
L 151.897188 224.154577 
L 152.774102 224.154577 
L 152.848312 223.101204 
L 153.142033 223.101204 
L 153.214697 219.941088 
L 154.132765 219.941088 
L 154.132765 218.887716 
L 154.741174 218.887716 
L 154.741174 218.36103 
L 155.004911 218.36103 
L 155.004911 217.834344 
L 155.329071 217.834344 
L 155.329071 217.307658 
L 155.647315 217.307658 
L 155.647315 216.254285 
L 156.747178 216.254285 
L 156.747178 215.200913 
L 156.894595 215.200913 
L 156.894595 214.674227 
L 157.098907 214.674227 
L 157.156845 213.620855 
L 157.500487 213.620855 
L 157.58535 208.353994 
L 157.781772 208.353994 
L 157.809652 206.24725 
L 158.222599 206.24725 
L 158.222599 205.193878 
L 159.175513 205.193878 
L 159.175513 204.667192 
L 159.832723 204.667192 
L 159.832723 203.087133 
L 159.980933 203.087133 
L 159.980933 202.033761 
L 160.273627 202.033761 
L 160.273627 197.820273 
L 160.418152 197.820273 
L 160.418152 196.240214 
L 160.56149 196.240214 
L 160.56149 195.713528 
L 160.727241 195.713528 
L 160.727241 194.660156 
L 161.007772 194.660156 
L 161.007772 194.13347 
L 162.152109 194.13347 
L 162.152109 193.080098 
L 162.324991 193.080098 
L 162.324991 191.50004 
L 162.581141 191.50004 
L 162.581141 189.919981 
L 163.103002 189.919981 
L 163.103002 189.393295 
L 163.225959 189.393295 
L 163.225959 188.866609 
L 163.428979 188.866609 
L 163.489428 187.286551 
L 163.828065 187.286551 
L 163.828065 186.233179 
L 164.063205 186.233179 
L 164.102088 183.599748 
L 164.237502 183.599748 
L 164.333587 181.493004 
L 165.010195 181.493004 
L 165.010195 180.966318 
L 165.46508 180.966318 
L 165.500963 179.912946 
L 165.995728 179.912946 
L 166.013141 178.859574 
L 166.374858 178.859574 
L 166.374858 178.332888 
L 166.679039 178.332888 
L 166.74592 176.752829 
L 166.845764 176.752829 
L 166.845764 176.226143 
L 167.158215 176.226143 
L 167.158215 175.172771 
L 167.703739 175.172771 
L 167.703739 173.592713 
L 167.892273 173.592713 
L 167.892273 171.485969 
L 168.078792 171.485969 
L 168.18668 170.432596 
L 169.011918 170.432596 
L 169.011918 169.90591 
L 169.215888 169.90591 
L 169.316986 165.692422 
L 169.388841 165.692422 
L 169.488944 164.63905 
L 169.743743 164.63905 
L 169.743743 164.112363 
L 170.132843 164.112363 
L 170.174022 163.058991 
L 170.296979 163.058991 
L 170.296979 162.005619 
L 170.567151 162.005619 
L 170.567151 161.478933 
L 170.819995 161.478933 
L 170.925369 158.845503 
L 170.96472 158.845503 
L 171.043158 157.79213 
L 171.134225 157.79213 
L 171.198983 156.212072 
L 171.379036 156.212072 
L 171.379036 155.685386 
L 172.288901 155.685386 
L 172.301041 153.051956 
L 172.649478 153.051956 
L 172.708856 150.945211 
L 172.791647 150.945211 
L 172.791647 149.365153 
L 172.991089 149.365153 
L 173.09576 146.205037 
L 173.14208 146.205037 
L 173.222844 143.04492 
L 173.337576 143.04492 
L 173.406055 141.464862 
L 173.451559 141.464862 
L 173.451559 140.938176 
L 173.654869 140.938176 
L 173.654869 140.41149 
L 173.800244 140.41149 
L 173.844732 138.831432 
L 173.966492 138.831432 
L 173.966492 137.778059 
L 174.196608 137.778059 
L 174.196608 136.724687 
L 174.785287 136.724687 
L 174.785287 136.198001 
L 174.932012 136.198001 
L 174.932012 135.671315 
L 175.262821 135.671315 
L 175.344551 134.617943 
L 175.385274 134.617943 
L 175.385274 134.091257 
L 175.527057 134.091257 
L 175.527057 133.037885 
L 175.876553 133.037885 
L 175.876553 132.511199 
L 176.03402 132.511199 
L 176.082938 128.824396 
L 176.23856 128.824396 
L 176.277249 127.771024 
L 176.402401 127.771024 
L 176.411991 126.717652 
L 176.640581 126.717652 
L 176.67839 125.137593 
L 177.162587 125.137593 
L 177.162587 124.610907 
L 177.354379 124.610907 
L 177.454007 121.450791 
L 177.48108 121.450791 
L 177.48108 120.924105 
L 177.606866 120.924105 
L 177.678338 118.290674 
L 177.864572 118.290674 
L 177.961335 114.603872 
L 178.10983 114.603872 
L 178.153265 113.023814 
L 178.351686 113.023814 
L 178.411629 109.863697 
L 178.624047 109.863697 
L 178.624047 109.337011 
L 178.950337 109.337011 
L 179.033027 106.703581 
L 179.090678 106.703581 
L 179.139941 102.490092 
L 179.262495 102.490092 
L 179.262495 101.43672 
L 179.424571 101.43672 
L 179.424571 98.803289 
L 179.553156 98.803289 
L 179.553156 96.696545 
L 179.760106 96.696545 
L 179.760106 95.643173 
L 179.917643 95.643173 
L 180.027079 92.483056 
L 180.104829 92.483056 
L 180.104829 91.95637 
L 180.511214 91.95637 
L 180.541504 88.796254 
L 180.737115 88.796254 
L 180.737115 87.742882 
L 181.004389 87.742882 
L 181.004389 87.216196 
L 181.303877 87.216196 
L 181.303877 86.68951 
L 181.448123 86.68951 
L 181.519801 83.529393 
L 181.683552 83.529393 
L 181.747212 82.476021 
L 181.824704 82.476021 
L 181.859814 81.422649 
L 182.041257 81.422649 
L 182.124367 77.20916 
L 182.172666 77.20916 
L 182.172666 76.682474 
L 182.296252 76.682474 
L 182.296252 76.155788 
L 182.574526 76.155788 
L 182.65514 74.049044 
L 182.742052 74.049044 
L 182.84843 70.888927 
L 182.888155 70.888927 
L 182.934387 68.255497 
L 183.039601 68.255497 
L 183.124623 65.622066 
L 183.157214 65.622066 
L 183.209233 62.988636 
L 183.274039 62.988636 
L 183.274039 61.935264 
L 183.396511 61.935264 
L 183.505367 56.668403 
L 183.569083 56.668403 
L 183.569083 55.615031 
L 184.064426 55.615031 
L 184.089136 52.9816 
L 184.297772 52.9816 
L 184.297772 52.454914 
L 184.419343 52.454914 
L 184.473775 49.821484 
L 184.546087 49.821484 
L 184.612111 46.661368 
L 184.749358 46.661368 
L 184.773118 43.501251 
L 185.230068 43.501251 
L 185.305076 40.341135 
L 185.414125 40.341135 
L 185.511122 38.23439 
L 185.567927 38.23439 
L 185.6302 36.654332 
L 185.692252 36.654332 
L 185.692252 36.127646 
L 185.810104 36.127646 
L 185.810104 35.60096 
L 186.037927 35.60096 
L 186.120538 31.914157 
L 186.180872 31.914157 
L 186.180872 31.387471 
L 187.05649 31.387471 
L 187.05649 30.860785 
L 187.650312 30.860785 
L 187.650312 30.334099 
L 338.688 30.334099 
L 338.688 30.334099 
" style="fill:none;stroke:#00bfbf;stroke-linecap:square;stroke-width:1.5;"/>
   </g>
   <g id="line2d_31">
    <defs>
     <path d="M -6 0 
L 6 0 
M 0 6 
L 0 -6 
" id="m79950c57fa" style="stroke:#00bfbf;stroke-width:1.5;"/>
    </defs>
    <g>
     <use style="fill-opacity:0;stroke:#00bfbf;stroke-width:1.5;" x="79.447285" xlink:href="#m79950c57fa" y="282.616732"/>
     <use style="fill-opacity:0;stroke:#00bfbf;stroke-width:1.5;" x="157.557108" xlink:href="#m79950c57fa" y="211.514111"/>
     <use style="fill-opacity:0;stroke:#00bfbf;stroke-width:1.5;" x="180.511214" xlink:href="#m79950c57fa" y="91.429684"/>
     <use style="fill-opacity:0;stroke:#00bfbf;stroke-width:1.5;" x="187.650312" xlink:href="#m79950c57fa" y="30.860785"/>
     <use style="fill-opacity:0;stroke:#00bfbf;stroke-width:1.5;" x="187.650312" xlink:href="#m79950c57fa" y="30.334099"/>
     <use style="fill-opacity:0;stroke:#00bfbf;stroke-width:1.5;" x="338.688" xlink:href="#m79950c57fa" y="30.334099"/>
    </g>
   </g>
   <g id="line2d_32">
    <path style="fill:none;stroke:#00bfbf;stroke-linecap:square;stroke-width:1.5;"/>
    <g/>
   </g>
   <g id="line2d_33">
    <defs>
     <path d="M 0 1.5 
C 0.397805 1.5 0.77937 1.341951 1.06066 1.06066 
C 1.341951 0.77937 1.5 0.397805 1.5 0 
C 1.5 -0.397805 1.341951 -0.77937 1.06066 -1.06066 
C 0.77937 -1.341951 0.397805 -1.5 0 -1.5 
C -0.397805 -1.5 -0.77937 -1.341951 -1.06066 -1.06066 
C -1.341951 -0.77937 -1.5 -0.397805 -1.5 0 
C -1.5 0.397805 -1.341951 0.77937 -1.06066 1.06066 
C -0.77937 1.341951 -0.397805 1.5 0 1.5 
z
" id="me1ff64293b" style="stroke:#008000;"/>
    </defs>
    <g>
     <use style="fill:#008000;stroke:#008000;" x="185.364468" xlink:href="#me1ff64293b" y="30.334099"/>
     <use style="fill:#008000;stroke:#008000;" x="185.364468" xlink:href="#me1ff64293b" y="30.334099"/>
    </g>
   </g>
   <g id="line2d_34">
    <path d="M 38.440992 298.944 
L 38.440992 296.31057 
L 50.52898 296.31057 
L 50.52898 295.257197 
L 57.6 295.257197 
L 57.6 293.677139 
L 62.616969 293.677139 
L 62.616969 292.623767 
L 66.508432 292.623767 
L 66.508432 291.570395 
L 69.687988 291.570395 
L 69.687988 288.936964 
L 76.759008 288.936964 
L 76.759008 287.883592 
L 81.775977 287.883592 
L 81.775977 286.83022 
L 86.792945 286.83022 
L 86.792945 286.303534 
L 87.850195 286.303534 
L 87.850195 285.776848 
L 91.535274 285.776848 
L 91.535274 284.723476 
L 92.34655 284.723476 
L 92.34655 284.19679 
L 99.41757 284.19679 
L 99.41757 283.670104 
L 104.826449 283.670104 
L 104.826449 282.616732 
L 110.968922 282.616732 
L 110.968922 281.563359 
L 119.43583 281.563359 
L 119.43583 281.036673 
L 119.768017 281.036673 
L 119.768017 279.456615 
L 119.931767 279.456615 
L 119.931767 278.929929 
L 120.571812 278.929929 
L 120.571812 277.349871 
L 120.728219 277.349871 
L 120.728219 276.823185 
L 120.883236 276.823185 
L 120.883236 276.296499 
L 121.189196 276.296499 
L 121.189196 275.769812 
L 121.931406 275.769812 
L 121.931406 275.243126 
L 122.503236 275.243126 
L 122.503236 274.71644 
L 123.593547 274.71644 
L 123.593547 272.609696 
L 123.985457 272.609696 
L 123.985457 272.08301 
L 124.494669 272.08301 
L 124.494669 271.556324 
L 126.618283 271.556324 
L 126.618283 271.029638 
L 127.272333 271.029638 
L 127.272333 269.976266 
L 128.709321 269.976266 
L 128.709321 269.449579 
L 130.127931 269.449579 
L 130.127931 268.396207 
L 130.926816 268.396207 
L 131.013364 267.342835 
L 132.181982 267.342835 
L 132.262533 266.289463 
L 133.652238 266.289463 
L 133.72629 264.709405 
L 134.091907 264.709405 
L 134.091907 263.129347 
L 134.236034 263.129347 
L 134.236034 262.60266 
L 137.077422 262.60266 
L 137.077422 262.075974 
L 137.319638 262.075974 
L 137.319638 261.549288 
L 138.026733 261.549288 
L 138.026733 261.022602 
L 138.816998 261.022602 
L 138.816998 260.495916 
L 139.090775 260.495916 
L 139.199094 258.915858 
L 139.783113 258.915858 
L 139.835248 256.282427 
L 141.426256 256.282427 
L 141.521035 254.702369 
L 143.144465 254.702369 
L 143.187472 253.648997 
L 143.569835 253.648997 
L 143.569835 252.595625 
L 143.737119 252.595625 
L 143.737119 252.068939 
L 144.107744 252.068939 
L 144.107744 251.015567 
L 144.350522 251.015567 
L 144.390658 249.962195 
L 145.403044 249.962195 
L 145.403044 248.908822 
L 145.703082 248.908822 
L 145.703082 248.382136 
L 146.071013 248.382136 
L 146.071013 247.85545 
L 147.164632 247.85545 
L 147.164632 247.328764 
L 147.636905 247.328764 
L 147.636905 246.802078 
L 147.96658 246.802078 
L 147.96658 246.275392 
L 148.48143 246.275392 
L 148.48143 245.748706 
L 149.437669 245.748706 
L 149.437669 245.22202 
L 149.911431 245.22202 
L 149.911431 244.695334 
L 150.258492 244.695334 
L 150.287105 243.115275 
L 150.598782 243.115275 
L 150.598782 241.535217 
L 150.710752 241.535217 
L 150.710752 241.008531 
L 151.151579 241.008531 
L 151.151579 240.481845 
L 151.76636 240.481845 
L 151.871101 238.901787 
L 151.897188 238.901787 
L 151.897188 237.848415 
L 153.008024 237.848415 
L 153.008024 236.268356 
L 153.29909 236.268356 
L 153.323128 234.688298 
L 153.913546 234.688298 
L 153.913546 234.161612 
L 154.81851 234.161612 
L 154.81851 233.634926 
L 155.253971 233.634926 
L 155.361158 230.47481 
L 155.488919 230.47481 
L 155.594676 228.368065 
L 155.6368 228.368065 
L 155.6368 227.841379 
L 155.783437 227.841379 
L 155.804285 226.788007 
L 156.216093 226.788007 
L 156.216093 226.261321 
L 156.538679 226.261321 
L 156.538679 225.734635 
L 156.677955 225.734635 
L 156.677955 225.207949 
L 157.011638 225.207949 
L 157.108577 223.101204 
L 157.453162 223.101204 
L 157.491032 221.521146 
L 158.195371 221.521146 
L 158.195371 220.99446 
L 158.802326 220.99446 
L 158.802326 220.467774 
L 158.924708 220.467774 
L 158.924708 219.941088 
L 159.080804 219.941088 
L 159.184097 218.887716 
L 159.608019 218.887716 
L 159.608019 216.780971 
L 160.038232 216.780971 
L 160.038232 215.727599 
L 160.569418 215.727599 
L 160.616915 214.147541 
L 160.821253 214.147541 
L 160.821253 213.094169 
L 160.961329 213.094169 
L 161.069504 210.460738 
L 161.146363 210.460738 
L 161.146363 208.353994 
L 161.420284 208.353994 
L 161.465522 207.300622 
L 162.101361 207.300622 
L 162.144868 204.667192 
L 162.289115 204.667192 
L 162.303474 203.613819 
L 162.854457 203.613819 
L 162.854457 203.087133 
L 163.103002 203.087133 
L 163.103002 202.560447 
L 163.320996 202.560447 
L 163.428979 200.453703 
L 163.603039 200.453703 
L 163.603039 199.927017 
L 163.8937 199.927017 
L 163.998206 197.293586 
L 164.166702 197.293586 
L 164.166702 196.240214 
L 164.308016 196.240214 
L 164.308016 195.713528 
L 164.536814 195.713528 
L 164.574657 194.13347 
L 165.338904 194.13347 
L 165.338904 192.553412 
L 165.708824 192.553412 
L 165.803027 190.446667 
L 166.346422 190.446667 
L 166.380539 186.233179 
L 166.471192 186.233179 
L 166.527611 185.179807 
L 166.7626 185.179807 
L 166.7626 184.126434 
L 167.212459 184.126434 
L 167.288118 181.493004 
L 167.341959 181.493004 
L 167.427761 180.439632 
L 167.481174 180.439632 
L 167.481174 179.38626 
L 167.808732 179.38626 
L 167.808732 177.806202 
L 168.242927 177.806202 
L 168.293904 175.172771 
L 168.425752 175.172771 
L 168.425752 174.119399 
L 168.646632 174.119399 
L 168.646632 173.592713 
L 168.835167 173.592713 
L 168.923766 172.539341 
L 169.157854 172.539341 
L 169.206229 170.959282 
L 169.388841 170.959282 
L 169.446113 169.90591 
L 169.66393 169.90591 
L 169.66393 168.852538 
L 169.813865 168.852538 
L 169.916203 167.27248 
L 170.109924 167.27248 
L 170.109924 166.745794 
L 170.24699 166.745794 
L 170.24699 166.219108 
L 170.482048 166.219108 
L 170.571619 163.585677 
L 170.660731 163.585677 
L 170.660731 163.058991 
L 170.88154 163.058991 
L 170.969087 160.952247 
L 171.064884 160.952247 
L 171.108254 159.898875 
L 171.306381 159.898875 
L 171.357698 155.685386 
L 171.612043 155.685386 
L 171.612043 155.1587 
L 171.812882 155.1587 
L 171.854434 154.105328 
L 171.937241 154.105328 
L 172.003206 151.998584 
L 172.093501 151.998584 
L 172.093501 150.418525 
L 172.490141 150.418525 
L 172.490141 149.891839 
L 172.704904 149.891839 
L 172.720707 148.311781 
L 172.870132 148.311781 
L 172.870132 147.258409 
L 173.049317 147.258409 
L 173.049317 146.731723 
L 173.219006 146.731723 
L 173.219006 146.205037 
L 173.379457 146.205037 
L 173.478048 143.04492 
L 173.591119 143.04492 
L 173.591119 141.991548 
L 173.837325 141.991548 
L 173.837325 141.464862 
L 173.962814 141.464862 
L 174.065485 139.358118 
L 174.174823 139.358118 
L 174.174823 138.304745 
L 174.319548 138.304745 
L 174.319548 137.778059 
L 174.441627 137.778059 
L 174.441627 136.724687 
L 174.662065 136.724687 
L 174.767737 135.671315 
L 174.788794 135.671315 
L 174.788794 134.617943 
L 174.907643 134.617943 
L 174.984116 132.511199 
L 175.067161 132.511199 
L 175.129186 130.93114 
L 175.23891 130.93114 
L 175.23891 130.404454 
L 175.449557 130.404454 
L 175.449557 129.877768 
L 175.644336 129.877768 
L 175.750876 125.66428 
L 175.77078 125.66428 
L 175.817135 123.557535 
L 176.170646 123.557535 
L 176.261139 120.924105 
L 176.312639 120.924105 
L 176.312639 120.397419 
L 176.504422 120.397419 
L 176.599529 119.344047 
L 176.719257 119.344047 
L 176.769424 118.290674 
L 176.894213 118.290674 
L 176.90043 115.657244 
L 177.067432 115.657244 
L 177.153401 113.5505 
L 177.208443 113.5505 
L 177.263313 110.917069 
L 177.523109 110.917069 
L 177.582976 107.756953 
L 177.636682 107.756953 
L 177.708032 105.650209 
L 177.961335 105.650209 
L 178.072098 104.07015 
L 178.095327 104.07015 
L 178.193707 101.43672 
L 178.274311 101.43672 
L 178.325932 98.276603 
L 178.44579 98.276603 
L 178.44579 97.223231 
L 178.649364 97.223231 
L 178.755855 95.116487 
L 178.778192 95.116487 
L 178.83947 93.536429 
L 179.202687 93.536429 
L 179.24077 89.849626 
L 179.327506 89.849626 
L 179.429948 86.162824 
L 179.76538 86.162824 
L 179.875772 83.002707 
L 179.928095 83.002707 
L 179.928095 82.476021 
L 180.104829 82.476021 
L 180.182234 80.369277 
L 180.284908 80.369277 
L 180.351324 78.262532 
L 180.422568 78.262532 
L 180.422568 77.735846 
L 180.639584 77.735846 
L 180.639584 76.155788 
L 180.774482 76.155788 
L 180.774482 74.57573 
L 180.928089 74.57573 
L 181.021571 73.522358 
L 181.080356 73.522358 
L 181.177891 71.415613 
L 181.260369 71.415613 
L 181.361719 67.728811 
L 181.400174 67.728811 
L 181.409774 65.09538 
L 181.524569 65.09538 
L 181.633877 63.515322 
L 181.667009 63.515322 
L 181.766029 61.935264 
L 182.031998 61.935264 
L 182.031998 61.408578 
L 182.179555 61.408578 
L 182.179555 60.881892 
L 182.434813 60.881892 
L 182.457423 58.248461 
L 182.547572 58.248461 
L 182.6104 56.668403 
L 182.664074 56.668403 
L 182.753163 52.9816 
L 182.8064 52.9816 
L 182.88154 50.874856 
L 182.92559 50.874856 
L 183.026484 49.821484 
L 183.144185 49.821484 
L 183.200574 48.241426 
L 183.299894 48.241426 
L 183.342901 45.081309 
L 183.424323 45.081309 
L 183.492595 43.501251 
L 183.577561 43.501251 
L 183.670549 42.447879 
L 183.892548 42.447879 
L 183.967306 39.287762 
L 184.049996 39.287762 
L 184.144607 37.707704 
L 184.185583 37.707704 
L 184.242788 36.127646 
L 184.303871 36.127646 
L 184.36069 34.547588 
L 184.509968 34.547588 
L 184.509968 33.494215 
L 184.75332 33.494215 
L 184.824485 31.914157 
L 184.942451 31.914157 
L 184.942451 30.860785 
L 185.364468 30.860785 
L 185.364468 30.334099 
L 338.688 30.334099 
L 338.688 30.334099 
" style="fill:none;stroke:#008000;stroke-linecap:square;stroke-width:1.5;"/>
   </g>
   <g id="line2d_35">
    <defs>
     <path d="M -0 6 
L 6 -6 
L -6 -6 
z
" id="m354033664d" style="stroke:#008000;stroke-linejoin:miter;stroke-width:1.5;"/>
    </defs>
    <g>
     <use style="fill-opacity:0;stroke:#008000;stroke-linejoin:miter;stroke-width:1.5;" x="99.41757" xlink:href="#m354033664d" y="283.670104"/>
     <use style="fill-opacity:0;stroke:#008000;stroke-linejoin:miter;stroke-width:1.5;" x="151.151579" xlink:href="#m354033664d" y="241.008531"/>
     <use style="fill-opacity:0;stroke:#008000;stroke-linejoin:miter;stroke-width:1.5;" x="182.690848" xlink:href="#m354033664d" y="54.034973"/>
     <use style="fill-opacity:0;stroke:#008000;stroke-linejoin:miter;stroke-width:1.5;" x="185.364468" xlink:href="#m354033664d" y="30.334099"/>
     <use style="fill-opacity:0;stroke:#008000;stroke-linejoin:miter;stroke-width:1.5;" x="185.364468" xlink:href="#m354033664d" y="30.334099"/>
     <use style="fill-opacity:0;stroke:#008000;stroke-linejoin:miter;stroke-width:1.5;" x="338.688" xlink:href="#m354033664d" y="30.334099"/>
    </g>
   </g>
   <g id="line2d_36">
    <path style="fill:none;stroke:#008000;stroke-linecap:square;stroke-width:1.5;"/>
    <g/>
   </g>
   <g id="line2d_37">
    <defs>
     <path d="M 0 1.5 
C 0.397805 1.5 0.77937 1.341951 1.06066 1.06066 
C 1.341951 0.77937 1.5 0.397805 1.5 0 
C 1.5 -0.397805 1.341951 -0.77937 1.06066 -1.06066 
C 0.77937 -1.341951 0.397805 -1.5 0 -1.5 
C -0.397805 -1.5 -0.77937 -1.341951 -1.06066 -1.06066 
C -1.341951 -0.77937 -1.5 -0.397805 -1.5 0 
C -1.5 0.397805 -1.341951 0.77937 -1.06066 1.06066 
C -0.77937 1.341951 -0.397805 1.5 0 1.5 
z
" id="m226f0da939" style="stroke:#0000ff;"/>
    </defs>
    <g>
     <use style="fill:#0000ff;stroke:#0000ff;" x="187.705587" xlink:href="#m226f0da939" y="30.334099"/>
     <use style="fill:#0000ff;stroke:#0000ff;" x="187.705587" xlink:href="#m226f0da939" y="30.334099"/>
    </g>
   </g>
   <g id="line2d_38">
    <path d="M 67.850577 298.944 
L 67.850577 297.890628 
L 101.506816 297.890628 
L 101.506816 297.363942 
L 103.870632 297.363942 
L 103.870632 296.31057 
L 105.732589 296.31057 
L 105.732589 295.783884 
L 110.016944 295.783884 
L 110.016944 294.730511 
L 112.58145 294.730511 
L 112.58145 294.203825 
L 113.311233 294.203825 
L 113.311233 293.677139 
L 113.594805 293.677139 
L 113.594805 293.150453 
L 116.914437 293.150453 
L 116.914437 292.623767 
L 117.486268 292.623767 
L 117.486268 292.097081 
L 118.994305 292.097081 
L 118.994305 291.570395 
L 122.947573 291.570395 
L 122.947573 291.043709 
L 123.751369 291.043709 
L 123.751369 290.517023 
L 124.368753 290.517023 
L 124.368753 289.990337 
L 124.669438 289.990337 
L 124.669438 289.463651 
L 125.110962 289.463651 
L 125.110962 288.936964 
L 125.255688 288.936964 
L 125.255688 288.410278 
L 126.168212 288.410278 
L 126.168212 287.883592 
L 126.70692 287.883592 
L 126.70692 287.356906 
L 127.421479 287.356906 
L 127.421479 286.83022 
L 129.742212 286.83022 
L 129.742212 286.303534 
L 130.505303 286.303534 
L 130.505303 285.250162 
L 131.540579 285.250162 
L 131.540579 284.723476 
L 132.278599 284.723476 
L 132.278599 283.670104 
L 133.975741 283.670104 
L 133.975741 283.143418 
L 134.106373 283.143418 
L 134.106373 282.616732 
L 134.407429 282.616732 
L 134.407429 282.090045 
L 134.703375 282.090045 
L 134.703375 281.036673 
L 135.760625 281.036673 
L 135.760625 280.509987 
L 136.942755 280.509987 
L 136.942755 279.983301 
L 137.84096 279.983301 
L 137.875944 278.929929 
L 139.220677 278.929929 
L 139.220677 278.403243 
L 139.445704 278.403243 
L 139.445704 277.876557 
L 139.980403 277.876557 
L 139.980403 276.823185 
L 140.165274 276.823185 
L 140.165274 276.296499 
L 140.944478 276.296499 
L 140.944478 274.189754 
L 141.521035 274.189754 
L 141.521035 273.663068 
L 142.593291 273.663068 
L 142.593291 273.136382 
L 143.040814 273.136382 
L 143.092717 272.08301 
L 143.451774 272.08301 
L 143.451774 271.556324 
L 143.87806 271.556324 
L 143.87806 268.396207 
L 144.93531 268.396207 
L 144.93531 267.342835 
L 145.258697 267.342835 
L 145.258697 266.816149 
L 145.865929 266.816149 
L 145.865929 266.289463 
L 146.707319 266.289463 
L 146.791364 264.709405 
L 146.895853 264.709405 
L 146.895853 263.129347 
L 147.70997 263.129347 
L 147.70997 262.60266 
L 148.54473 262.60266 
L 148.54473 262.075974 
L 149.664311 262.075974 
L 149.664311 261.549288 
L 150.309961 261.549288 
L 150.412445 260.495916 
L 150.56505 260.495916 
L 150.56505 259.96923 
L 150.91602 259.96923 
L 150.91602 258.389172 
L 151.0643 258.389172 
L 151.0643 257.3358 
L 151.581536 257.3358 
L 151.676833 256.282427 
L 152.052897 256.282427 
L 152.052897 255.755741 
L 152.572143 255.755741 
L 152.572143 255.229055 
L 152.840905 255.229055 
L 152.855715 254.175683 
L 152.988446 254.175683 
L 152.988446 253.648997 
L 153.351929 253.648997 
L 153.438049 252.595625 
L 153.609024 252.595625 
L 153.609024 251.542253 
L 153.806399 251.542253 
L 153.834414 249.435508 
L 154.601099 249.435508 
L 154.667942 248.382136 
L 154.880133 248.382136 
L 154.880133 247.85545 
L 155.791779 247.85545 
L 155.791779 246.802078 
L 156.114049 246.802078 
L 156.114049 246.275392 
L 156.586556 246.275392 
L 156.658127 244.695334 
L 157.011638 244.695334 
L 157.011638 244.168648 
L 157.266399 244.168648 
L 157.312322 243.115275 
L 157.528821 243.115275 
L 157.596634 241.008531 
L 157.998067 241.008531 
L 158.107956 239.955159 
L 158.228039 239.955159 
L 158.228039 239.428473 
L 158.689678 239.428473 
L 158.689678 238.375101 
L 159.015067 238.375101 
L 159.015067 237.848415 
L 159.129083 237.848415 
L 159.129083 237.321729 
L 159.252621 237.321729 
L 159.252621 236.795043 
L 159.385473 236.795043 
L 159.456591 234.688298 
L 159.916863 234.688298 
L 159.976013 233.634926 
L 160.403753 233.634926 
L 160.499521 232.581554 
L 161.365843 232.581554 
L 161.365843 232.054868 
L 161.501628 232.054868 
L 161.600536 231.001496 
L 161.627414 231.001496 
L 161.681046 229.421437 
L 161.814408 229.421437 
L 161.840959 228.368065 
L 161.946759 228.368065 
L 161.946759 227.841379 
L 162.095552 227.841379 
L 162.191157 226.261321 
L 162.534461 226.261321 
L 162.542958 225.207949 
L 162.737246 225.207949 
L 162.737246 224.681263 
L 162.9543 224.681263 
L 162.9543 223.101204 
L 163.217788 223.101204 
L 163.217788 222.574518 
L 163.348054 222.574518 
L 163.388564 220.99446 
L 164.448194 220.99446 
L 164.546914 219.414402 
L 164.757663 219.414402 
L 164.824867 218.36103 
L 164.869525 218.36103 
L 164.869525 217.834344 
L 165.251852 217.834344 
L 165.251852 217.307658 
L 165.403908 217.307658 
L 165.439918 216.254285 
L 165.518877 216.254285 
L 165.518877 215.727599 
L 165.824152 215.727599 
L 165.824152 215.200913 
L 166.061806 215.200913 
L 166.110335 214.147541 
L 166.378267 214.147541 
L 166.378267 213.620855 
L 166.709167 213.620855 
L 166.742582 210.987425 
L 167.04047 210.987425 
L 167.125588 208.88068 
L 167.171249 208.88068 
L 167.171249 208.353994 
L 167.423481 208.353994 
L 167.513144 207.300622 
L 167.564173 207.300622 
L 167.627751 205.193878 
L 167.735303 205.193878 
L 167.735303 204.667192 
L 167.948439 204.667192 
L 168.054037 203.613819 
L 168.084975 203.613819 
L 168.103511 202.560447 
L 168.512429 202.560447 
L 168.572648 201.507075 
L 168.799601 201.507075 
L 168.799601 200.453703 
L 168.994323 200.453703 
L 168.994323 199.927017 
L 169.169476 199.927017 
L 169.233261 198.346959 
L 169.296813 198.346959 
L 169.342888 196.240214 
L 169.724059 196.240214 
L 169.724059 195.186842 
L 169.864179 195.186842 
L 169.864179 194.660156 
L 169.98656 194.660156 
L 169.98656 194.13347 
L 170.28336 194.13347 
L 170.294256 192.026726 
L 170.424481 192.026726 
L 170.429886 190.973354 
L 170.782963 190.973354 
L 170.851674 188.866609 
L 170.904345 188.866609 
L 170.967341 186.759865 
L 171.019664 186.759865 
L 171.019664 186.233179 
L 171.396939 186.233179 
L 171.422484 185.179807 
L 171.675893 185.179807 
L 171.716099 184.126434 
L 171.940545 184.126434 
L 171.98509 182.546376 
L 172.167033 182.546376 
L 172.167033 182.01969 
L 172.337411 182.01969 
L 172.337411 180.966318 
L 172.48694 180.966318 
L 172.582734 179.912946 
L 172.6066 179.912946 
L 172.649478 177.279515 
L 172.777482 177.279515 
L 172.777482 176.752829 
L 173.040014 176.752829 
L 173.114303 174.646085 
L 173.17443 174.646085 
L 173.229749 173.592713 
L 173.326137 173.592713 
L 173.435646 172.012655 
L 173.449287 172.012655 
L 173.494678 170.432596 
L 173.693007 170.432596 
L 173.800244 168.852538 
L 173.959872 168.852538 
L 173.959872 168.325852 
L 174.218366 168.325852 
L 174.318106 166.219108 
L 174.361294 166.219108 
L 174.451642 164.63905 
L 174.584164 164.63905 
L 174.584164 164.112363 
L 174.715685 164.112363 
L 174.783181 163.058991 
L 175.067161 163.058991 
L 175.116798 161.478933 
L 175.219758 161.478933 
L 175.318031 159.372189 
L 175.38324 159.372189 
L 175.403568 158.318817 
L 175.577416 158.318817 
L 175.6777 157.265444 
L 175.705676 157.265444 
L 175.72962 156.212072 
L 176.006566 156.212072 
L 176.100515 155.1587 
L 176.123923 155.1587 
L 176.123923 154.632014 
L 176.252111 154.632014 
L 176.275317 151.998584 
L 176.402401 151.998584 
L 176.478973 150.418525 
L 176.539989 150.418525 
L 176.539989 149.365153 
L 176.691603 149.365153 
L 176.78945 146.205037 
L 176.860608 146.205037 
L 176.950079 144.098292 
L 176.979801 144.098292 
L 177.061275 142.518234 
L 177.245042 142.518234 
L 177.343477 139.884804 
L 177.368906 139.884804 
L 177.40517 138.304745 
L 177.724639 138.304745 
L 177.724639 137.778059 
L 177.869864 137.778059 
L 177.954316 136.198001 
L 178.017387 136.198001 
L 178.045346 135.144629 
L 178.14285 135.144629 
L 178.25362 133.037885 
L 178.377401 133.037885 
L 178.486696 130.93114 
L 178.602076 130.93114 
L 178.645991 128.824396 
L 178.980151 128.824396 
L 178.993385 127.771024 
L 179.112042 127.771024 
L 179.112042 127.244338 
L 179.23316 127.244338 
L 179.23316 126.717652 
L 179.37287 126.717652 
L 179.472902 123.030849 
L 179.575561 123.030849 
L 179.581958 120.924105 
L 179.737936 120.924105 
L 179.848502 118.290674 
L 179.883107 118.290674 
L 179.986511 115.130558 
L 180.126537 115.130558 
L 180.216183 114.077186 
L 180.320702 114.077186 
L 180.412408 109.863697 
L 180.509698 109.863697 
L 180.536964 108.810325 
L 180.642593 108.810325 
L 180.678662 107.230267 
L 180.783438 107.230267 
L 180.822195 106.176895 
L 181.199276 106.176895 
L 181.303877 103.016778 
L 181.545534 103.016778 
L 181.591186 101.43672 
L 181.667955 101.43672 
L 181.77825 99.856662 
L 181.848587 99.856662 
L 181.899054 97.749917 
L 181.966118 97.749917 
L 182.071777 93.536429 
L 182.091171 93.536429 
L 182.143703 92.483056 
L 182.237315 92.483056 
L 182.319498 89.32294 
L 182.406736 89.32294 
L 182.406736 88.796254 
L 182.517875 88.796254 
L 182.56375 87.216196 
L 182.66586 87.216196 
L 182.767376 85.109451 
L 182.828533 85.109451 
L 182.828533 84.582765 
L 183.180642 84.582765 
L 183.289557 81.949335 
L 183.395226 81.949335 
L 183.446541 80.895963 
L 183.551266 80.895963 
L 183.617353 79.315904 
L 183.685718 79.315904 
L 183.796556 77.20916 
L 183.891716 77.20916 
L 183.993809 74.049044 
L 184.055769 74.049044 
L 184.073079 71.942299 
L 184.183946 71.942299 
L 184.257467 68.782183 
L 184.328244 68.782183 
L 184.420555 66.148752 
L 184.466527 66.148752 
L 184.519607 62.988636 
L 184.687432 62.988636 
L 184.794473 59.82852 
L 184.903218 59.82852 
L 184.903218 59.301833 
L 185.076744 59.301833 
L 185.17447 57.721775 
L 185.216185 57.721775 
L 185.216185 57.195089 
L 185.33154 57.195089 
L 185.365998 56.141717 
L 185.466684 56.141717 
L 185.519085 55.088345 
L 185.60079 55.088345 
L 185.661818 52.454914 
L 185.77203 52.454914 
L 185.848096 49.294798 
L 185.897139 49.294798 
L 185.897139 48.768112 
L 186.021357 48.768112 
L 186.074324 46.661368 
L 186.142502 46.661368 
L 186.142502 46.134681 
L 186.280242 46.134681 
L 186.367134 42.447879 
L 186.414741 42.447879 
L 186.503118 40.341135 
L 186.597466 40.341135 
L 186.597466 39.814448 
L 186.714687 39.814448 
L 186.782528 37.707704 
L 186.900618 37.707704 
L 186.944696 36.654332 
L 187.047114 36.654332 
L 187.148935 35.074274 
L 187.169641 35.074274 
L 187.213046 34.020902 
L 187.309799 34.020902 
L 187.401936 32.440843 
L 187.473262 32.440843 
L 187.528087 31.387471 
L 187.683498 31.387471 
L 187.705587 30.334099 
L 338.688 30.334099 
L 338.688 30.334099 
" style="fill:none;stroke:#0000ff;stroke-linecap:square;stroke-width:1.5;"/>
   </g>
   <g id="line2d_39">
    <defs>
     <path d="M 0 -6 
L -1.347084 -1.854102 
L -5.706339 -1.854102 
L -2.179628 0.708204 
L -3.526712 4.854102 
L -0 2.291796 
L 3.526712 4.854102 
L 2.179628 0.708204 
L 5.706339 -1.854102 
L 1.347084 -1.854102 
z
" id="m26f6f59929" style="stroke:#0000ff;stroke-linejoin:bevel;stroke-width:1.5;"/>
    </defs>
    <g>
     <use style="fill-opacity:0;stroke:#0000ff;stroke-linejoin:bevel;stroke-width:1.5;" x="163.217788" xlink:href="#m26f6f59929" y="222.574518"/>
     <use style="fill-opacity:0;stroke:#0000ff;stroke-linejoin:bevel;stroke-width:1.5;" x="186.757118" xlink:href="#m26f6f59929" y="38.23439"/>
     <use style="fill-opacity:0;stroke:#0000ff;stroke-linejoin:bevel;stroke-width:1.5;" x="187.705587" xlink:href="#m26f6f59929" y="30.334099"/>
     <use style="fill-opacity:0;stroke:#0000ff;stroke-linejoin:bevel;stroke-width:1.5;" x="187.705587" xlink:href="#m26f6f59929" y="30.334099"/>
     <use style="fill-opacity:0;stroke:#0000ff;stroke-linejoin:bevel;stroke-width:1.5;" x="338.688" xlink:href="#m26f6f59929" y="30.334099"/>
    </g>
   </g>
   <g id="line2d_40">
    <path style="fill:none;stroke:#0000ff;stroke-linecap:square;stroke-width:1.5;"/>
    <g/>
   </g>
   <g id="line2d_41">
    <defs>
     <path d="M 0 1.5 
C 0.397805 1.5 0.77937 1.341951 1.06066 1.06066 
C 1.341951 0.77937 1.5 0.397805 1.5 0 
C 1.5 -0.397805 1.341951 -0.77937 1.06066 -1.06066 
C 0.77937 -1.341951 0.397805 -1.5 0 -1.5 
C -0.397805 -1.5 -0.77937 -1.341951 -1.06066 -1.06066 
C -1.341951 -0.77937 -1.5 -0.397805 -1.5 0 
C -1.5 0.397805 -1.341951 0.77937 -1.06066 1.06066 
C -0.77937 1.341951 -0.397805 1.5 0 1.5 
z
" id="mfcfb15b4cf" style="stroke:#000000;"/>
    </defs>
    <g>
     <use style="stroke:#000000;" x="192.223046" xlink:href="#mfcfb15b4cf" y="30.334099"/>
     <use style="stroke:#000000;" x="192.223046" xlink:href="#mfcfb15b4cf" y="30.334099"/>
    </g>
   </g>
   <g id="line2d_42">
    <path d="M 122.823744 298.944 
L 122.823744 298.417314 
L 123.273551 298.417314 
L 123.273551 297.890628 
L 125.892487 297.890628 
L 125.892487 297.363942 
L 129.825588 297.363942 
L 129.825588 296.837256 
L 130.425122 296.837256 
L 130.425122 296.31057 
L 131.338382 296.31057 
L 131.338382 295.783884 
L 133.032848 295.783884 
L 133.032848 295.257197 
L 134.214491 295.257197 
L 134.214491 294.730511 
L 134.703375 294.730511 
L 134.703375 294.203825 
L 134.849486 294.203825 
L 134.849486 293.677139 
L 135.321124 293.677139 
L 135.321124 293.150453 
L 136.054058 293.150453 
L 136.054058 292.623767 
L 137.325651 292.623767 
L 137.325651 292.097081 
L 137.540732 292.097081 
L 137.540732 291.570395 
L 137.68266 291.570395 
L 137.68266 291.043709 
L 137.805906 291.043709 
L 137.805906 290.517023 
L 138.927025 290.517023 
L 138.927025 289.990337 
L 139.188293 289.990337 
L 139.188293 289.463651 
L 139.509467 289.463651 
L 139.588845 288.410278 
L 139.995884 288.410278 
L 139.995884 287.883592 
L 140.633978 287.883592 
L 140.633978 287.356906 
L 141.119455 287.356906 
L 141.119455 286.83022 
L 143.502469 286.83022 
L 143.502469 286.303534 
L 143.927534 286.303534 
L 143.927534 285.776848 
L 144.18499 285.776848 
L 144.294175 284.723476 
L 145.0862 284.723476 
L 145.0862 284.19679 
L 145.519922 284.19679 
L 145.519922 283.670104 
L 145.954117 283.670104 
L 145.954117 283.143418 
L 146.150926 283.143418 
L 146.150926 282.616732 
L 146.377764 282.616732 
L 146.377764 282.090045 
L 146.516724 282.090045 
L 146.516724 281.036673 
L 146.644018 281.036673 
L 146.644018 280.509987 
L 147.12355 280.509987 
L 147.154371 279.456615 
L 147.277111 279.456615 
L 147.378739 278.403243 
L 148.993835 278.403243 
L 148.993835 277.876557 
L 149.422654 277.876557 
L 149.422654 277.349871 
L 149.664311 277.349871 
L 149.664311 276.823185 
L 150.094499 276.823185 
L 150.094499 276.296499 
L 150.716332 276.296499 
L 150.716332 275.769812 
L 150.899466 275.769812 
L 150.899466 275.243126 
L 151.121626 275.243126 
L 151.121626 274.71644 
L 151.509721 274.71644 
L 151.509721 274.189754 
L 151.944047 274.189754 
L 151.944047 273.663068 
L 152.744329 273.663068 
L 152.811246 272.609696 
L 152.995791 272.609696 
L 152.995791 272.08301 
L 153.630278 272.08301 
L 153.630278 271.556324 
L 153.792374 271.556324 
L 153.792374 271.029638 
L 154.533999 271.029638 
L 154.533999 270.502952 
L 154.833936 270.502952 
L 154.866947 269.449579 
L 155.238912 269.449579 
L 155.28405 268.396207 
L 155.367568 268.396207 
L 155.425155 266.816149 
L 155.55245 266.816149 
L 155.55245 266.289463 
L 156.132461 266.289463 
L 156.132461 265.762777 
L 156.254714 265.762777 
L 156.254714 265.236091 
L 156.418408 265.236091 
L 156.418408 264.709405 
L 156.764934 264.709405 
L 156.764934 264.182719 
L 157.104709 264.182719 
L 157.104709 263.656033 
L 157.352406 263.656033 
L 157.352406 263.129347 
L 158.096998 263.129347 
L 158.096998 262.60266 
L 158.352703 262.60266 
L 158.368898 261.549288 
L 158.610035 261.549288 
L 158.610035 261.022602 
L 158.795307 261.022602 
L 158.795307 260.495916 
L 159.087709 260.495916 
L 159.087709 259.96923 
L 159.390562 259.96923 
L 159.390562 259.442544 
L 159.638147 259.442544 
L 159.638147 258.915858 
L 159.812866 258.915858 
L 159.842643 257.862486 
L 160.103486 257.862486 
L 160.181471 256.809114 
L 160.21548 256.809114 
L 160.21548 256.282427 
L 160.326759 256.282427 
L 160.326759 255.755741 
L 160.466062 255.755741 
L 160.532916 254.702369 
L 161.27016 254.702369 
L 161.379469 253.648997 
L 161.658719 253.648997 
L 161.658719 253.122311 
L 162.034438 253.122311 
L 162.03881 252.068939 
L 162.500433 252.068939 
L 162.500433 251.542253 
L 162.615012 251.542253 
L 162.615012 251.015567 
L 162.737246 251.015567 
L 162.737246 250.488881 
L 163.254524 250.488881 
L 163.339941 249.435508 
L 163.441086 249.435508 
L 163.441086 248.908822 
L 163.745011 248.908822 
L 163.804376 246.275392 
L 163.965615 246.275392 
L 163.965615 245.748706 
L 164.109855 245.748706 
L 164.109855 245.22202 
L 164.5507 245.22202 
L 164.565835 243.641962 
L 164.663893 243.641962 
L 164.735204 242.588589 
L 165.076435 242.588589 
L 165.09479 241.535217 
L 165.248216 241.535217 
L 165.248216 241.008531 
L 165.429123 241.008531 
L 165.429123 239.955159 
L 165.813593 239.955159 
L 165.813593 239.428473 
L 166.144916 239.428473 
L 166.144916 238.901787 
L 166.371448 238.901787 
L 166.415723 237.848415 
L 166.503937 237.848415 
L 166.503937 237.321729 
L 166.675688 237.321729 
L 166.765935 236.268356 
L 166.829163 236.268356 
L 166.829163 235.74167 
L 166.994465 235.74167 
L 167.096171 234.688298 
L 167.233027 234.688298 
L 167.233027 234.161612 
L 167.349484 234.161612 
L 167.439526 232.054868 
L 167.493969 232.054868 
L 167.493969 231.528182 
L 167.760513 231.528182 
L 167.760513 231.001496 
L 168.001318 231.001496 
L 168.081883 229.948123 
L 168.760989 229.948123 
L 168.832206 228.894751 
L 168.906082 228.894751 
L 169.00019 226.788007 
L 169.120028 226.788007 
L 169.120028 226.261321 
L 169.285276 226.261321 
L 169.391709 224.154577 
L 169.653574 224.154577 
L 169.749363 223.101204 
L 169.864179 223.101204 
L 169.950491 222.047832 
L 170.130094 222.047832 
L 170.234242 220.467774 
L 170.639386 220.467774 
L 170.695362 219.414402 
L 170.830561 219.414402 
L 170.893823 217.834344 
L 171.08745 217.834344 
L 171.196397 215.727599 
L 171.253194 215.727599 
L 171.253194 215.200913 
L 171.447991 215.200913 
L 171.447991 214.674227 
L 171.569909 214.674227 
L 171.655755 213.620855 
L 171.711078 213.620855 
L 171.73366 212.567483 
L 171.863562 212.567483 
L 171.863562 212.040797 
L 172.130306 212.040797 
L 172.130306 211.514111 
L 172.247561 211.514111 
L 172.25973 210.460738 
L 172.460504 210.460738 
L 172.558835 208.353994 
L 172.604215 208.353994 
L 172.6066 206.773936 
L 172.770395 206.773936 
L 172.770395 206.24725 
L 173.211329 206.24725 
L 173.298652 204.140506 
L 173.335289 204.140506 
L 173.335289 203.613819 
L 173.510537 203.613819 
L 173.612145 202.560447 
L 173.735534 202.560447 
L 173.777957 200.980389 
L 173.942208 200.980389 
L 174.050123 199.400331 
L 174.187897 199.400331 
L 174.187897 198.873645 
L 174.311619 198.873645 
L 174.421578 197.293586 
L 174.462367 197.293586 
L 174.53512 195.713528 
L 174.630946 195.713528 
L 174.630946 195.186842 
L 174.753684 195.186842 
L 174.753684 194.660156 
L 175.036065 194.660156 
L 175.052656 193.606784 
L 175.240277 193.606784 
L 175.320072 191.50004 
L 175.476552 191.50004 
L 175.571381 190.446667 
L 175.641664 190.446667 
L 175.641664 189.919981 
L 175.868643 189.919981 
L 175.923943 188.866609 
L 176.151193 188.866609 
L 176.230812 186.759865 
L 176.427324 186.759865 
L 176.498063 185.179807 
L 176.568518 185.179807 
L 176.568518 184.653121 
L 176.808204 184.653121 
L 176.884885 182.546376 
L 177.016882 182.546376 
L 177.027991 181.493004 
L 177.215769 181.493004 
L 177.237728 180.439632 
L 177.403359 180.439632 
L 177.423274 179.38626 
L 177.551272 179.38626 
L 177.640852 176.752829 
L 177.751295 176.752829 
L 177.857514 174.646085 
L 177.99989 174.646085 
L 178.045346 173.592713 
L 178.174075 173.592713 
L 178.250169 172.012655 
L 178.462846 172.012655 
L 178.488398 170.432596 
L 178.574996 170.432596 
L 178.645991 168.325852 
L 178.708295 168.325852 
L 178.787119 166.745794 
L 178.845586 166.745794 
L 178.852256 165.692422 
L 179.004957 165.692422 
L 179.085744 164.63905 
L 179.123536 164.63905 
L 179.189066 163.585677 
L 179.335615 163.585677 
L 179.335615 162.532305 
L 179.468075 162.532305 
L 179.503442 161.478933 
L 179.588351 161.478933 
L 179.693513 160.425561 
L 179.873676 160.425561 
L 179.964628 159.372189 
L 180.10638 159.372189 
L 180.206931 156.738758 
L 180.242372 156.738758 
L 180.263909 155.685386 
L 180.384947 155.685386 
L 180.45808 153.578642 
L 180.656127 153.578642 
L 180.708662 151.998584 
L 180.801337 151.998584 
L 180.801337 151.471897 
L 180.921675 151.471897 
L 181.013228 150.418525 
L 181.215297 150.418525 
L 181.215297 149.891839 
L 181.334268 149.891839 
L 181.419369 147.258409 
L 181.452432 147.258409 
L 181.526953 146.205037 
L 181.659442 146.205037 
L 181.735911 144.098292 
L 181.807826 144.098292 
L 181.901854 141.464862 
L 182.032924 141.464862 
L 182.121603 138.304745 
L 182.194701 138.304745 
L 182.216708 137.251373 
L 182.424403 137.251373 
L 182.424403 136.724687 
L 182.558359 136.724687 
L 182.653799 135.144629 
L 182.673896 135.144629 
L 182.766044 133.564571 
L 182.787342 133.564571 
L 182.851081 131.984513 
L 182.946255 131.984513 
L 183.043535 129.351082 
L 183.080202 129.351082 
L 183.187144 126.717652 
L 183.248145 126.717652 
L 183.299894 124.610907 
L 183.469583 124.610907 
L 183.572899 123.030849 
L 183.732406 123.030849 
L 183.830422 121.450791 
L 183.88672 121.450791 
L 183.88672 120.924105 
L 184.0149 120.924105 
L 184.099011 118.817361 
L 184.193766 118.817361 
L 184.28923 116.18393 
L 184.36231 116.18393 
L 184.46411 114.077186 
L 184.483434 114.077186 
L 184.483434 113.5505 
L 184.601324 113.5505 
L 184.674304 110.917069 
L 184.724376 110.917069 
L 184.806326 108.810325 
L 184.917352 108.810325 
L 184.978468 105.650209 
L 185.046385 105.650209 
L 185.059236 104.596836 
L 185.215028 104.596836 
L 185.295861 102.490092 
L 185.396952 102.490092 
L 185.396952 101.963406 
L 185.625679 101.963406 
L 185.734995 99.856662 
L 185.784357 99.856662 
L 185.863715 97.223231 
L 185.966012 97.223231 
L 185.969338 96.169859 
L 186.15457 96.169859 
L 186.260631 92.483056 
L 186.310703 92.483056 
L 186.3758 89.849626 
L 186.429862 89.849626 
L 186.429862 89.32294 
L 186.546066 89.32294 
L 186.563216 88.269568 
L 186.735916 88.269568 
L 186.820572 85.109451 
L 186.8859 85.109451 
L 186.990754 83.002707 
L 187.006428 83.002707 
L 187.108485 80.369277 
L 187.18929 80.369277 
L 187.262519 78.789218 
L 187.339541 78.789218 
L 187.434578 75.629102 
L 187.476312 75.629102 
L 187.579708 73.522358 
L 187.748681 73.522358 
L 187.826579 70.888927 
L 187.991214 70.888927 
L 188.089647 66.148752 
L 188.231395 66.148752 
L 188.329453 62.46195 
L 188.448131 62.46195 
L 188.503814 60.355206 
L 188.58319 60.355206 
L 188.691627 57.721775 
L 188.699211 57.721775 
L 188.801278 55.088345 
L 188.827643 55.088345 
L 188.936445 52.9816 
L 189.005501 52.9816 
L 189.081704 50.34817 
L 189.198151 50.34817 
L 189.278104 49.294798 
L 189.32846 49.294798 
L 189.433283 47.188054 
L 189.613196 47.188054 
L 189.677836 46.134681 
L 189.746701 46.134681 
L 189.833955 45.081309 
L 189.902208 45.081309 
L 189.971075 42.447879 
L 190.094005 42.447879 
L 190.175189 38.761076 
L 190.288908 38.761076 
L 190.369192 36.654332 
L 190.419075 36.654332 
L 190.514999 34.547588 
L 190.685836 34.547588 
L 190.686682 32.967529 
L 190.804686 32.967529 
L 190.855853 31.914157 
L 190.979377 31.914157 
L 190.979377 31.387471 
L 191.267241 31.387471 
L 191.267241 30.860785 
L 192.223046 30.860785 
L 192.223046 30.334099 
L 338.688 30.334099 
L 338.688 30.334099 
" style="fill:none;stroke:#000000;stroke-linecap:square;stroke-width:1.5;"/>
   </g>
   <g id="line2d_43">
    <defs>
     <path d="M 0 6 
C 1.591219 6 3.117479 5.367802 4.242641 4.242641 
C 5.367802 3.117479 6 1.591219 6 0 
C 6 -1.591219 5.367802 -3.117479 4.242641 -4.242641 
C 3.117479 -5.367802 1.591219 -6 0 -6 
C -1.591219 -6 -3.117479 -5.367802 -4.242641 -4.242641 
C -5.367802 -3.117479 -6 -1.591219 -6 0 
C -6 1.591219 -5.367802 3.117479 -4.242641 4.242641 
C -3.117479 5.367802 -1.591219 6 0 6 
z
" id="mc961af2724" style="stroke:#000000;stroke-width:1.5;"/>
    </defs>
    <g>
     <use style="fill-opacity:0;stroke:#000000;stroke-width:1.5;" x="176.151193" xlink:href="#mc961af2724" y="188.339923"/>
     <use style="fill-opacity:0;stroke:#000000;stroke-width:1.5;" x="189.613196" xlink:href="#mc961af2724" y="46.661368"/>
     <use style="fill-opacity:0;stroke:#000000;stroke-width:1.5;" x="192.223046" xlink:href="#mc961af2724" y="30.334099"/>
     <use style="fill-opacity:0;stroke:#000000;stroke-width:1.5;" x="192.223046" xlink:href="#mc961af2724" y="30.334099"/>
     <use style="fill-opacity:0;stroke:#000000;stroke-width:1.5;" x="338.688" xlink:href="#mc961af2724" y="30.334099"/>
    </g>
   </g>
   <g id="line2d_44">
    <path style="fill:none;stroke:#000000;stroke-linecap:square;stroke-width:1.5;"/>
    <g/>
   </g>
   <g id="line2d_45">
    <defs>
     <path d="M 0 1.5 
C 0.397805 1.5 0.77937 1.341951 1.06066 1.06066 
C 1.341951 0.77937 1.5 0.397805 1.5 0 
C 1.5 -0.397805 1.341951 -0.77937 1.06066 -1.06066 
C 0.77937 -1.341951 0.397805 -1.5 0 -1.5 
C -0.397805 -1.5 -0.77937 -1.341951 -1.06066 -1.06066 
C -1.341951 -0.77937 -1.5 -0.397805 -1.5 0 
C -1.5 0.397805 -1.341951 0.77937 -1.06066 1.06066 
C -0.77937 1.341951 -0.397805 1.5 0 1.5 
z
" id="m84eddd74e9" style="stroke:#ff0000;"/>
    </defs>
    <g>
     <use style="fill:#ff0000;stroke:#ff0000;" x="191.70269" xlink:href="#m84eddd74e9" y="30.334099"/>
     <use style="fill:#ff0000;stroke:#ff0000;" x="191.70269" xlink:href="#m84eddd74e9" y="30.334099"/>
    </g>
   </g>
   <g id="line2d_46">
    <path d="M 138.281828 298.944 
L 138.281828 298.417314 
L 138.460171 298.417314 
L 138.460171 297.890628 
L 140.626517 297.890628 
L 140.626517 297.363942 
L 142.752555 297.363942 
L 142.752555 296.837256 
L 143.105668 296.837256 
L 143.163832 295.783884 
L 143.597128 295.783884 
L 143.597128 295.257197 
L 143.908998 295.257197 
L 143.927534 294.203825 
L 144.414696 294.203825 
L 144.414696 293.677139 
L 144.77134 293.677139 
L 144.77134 293.150453 
L 144.999308 293.150453 
L 145.016721 292.097081 
L 145.665858 292.097081 
L 145.665858 291.570395 
L 147.261816 291.570395 
L 147.261816 291.043709 
L 147.680117 291.043709 
L 147.680117 290.517023 
L 147.809113 290.517023 
L 147.809113 289.990337 
L 147.942069 289.990337 
L 148.025265 288.936964 
L 148.054534 288.936964 
L 148.088619 287.883592 
L 148.752007 287.883592 
L 148.803443 286.83022 
L 148.942958 286.83022 
L 148.942958 286.303534 
L 150.094499 286.303534 
L 150.094499 285.776848 
L 150.318524 285.776848 
L 150.318524 285.250162 
L 150.712147 285.250162 
L 150.712147 284.723476 
L 151.357131 284.723476 
L 151.357131 284.19679 
L 151.684751 284.19679 
L 151.684751 283.670104 
L 152.226424 283.670104 
L 152.226424 283.143418 
L 152.620977 283.143418 
L 152.620977 282.616732 
L 153.054435 282.616732 
L 153.054435 282.090045 
L 153.729125 282.090045 
L 153.729125 281.563359 
L 154.070741 281.563359 
L 154.070741 281.036673 
L 154.197998 281.036673 
L 154.300501 279.983301 
L 154.426099 279.983301 
L 154.426099 279.456615 
L 154.580996 279.456615 
L 154.580996 278.929929 
L 154.863648 278.929929 
L 154.873541 277.876557 
L 155.612591 277.876557 
L 155.612591 277.349871 
L 155.888465 277.349871 
L 155.888465 276.823185 
L 156.07409 276.823185 
L 156.07409 276.296499 
L 156.86227 276.296499 
L 156.86227 275.769812 
L 157.087296 275.769812 
L 157.087296 275.243126 
L 157.360983 275.243126 
L 157.360983 274.71644 
L 157.56841 274.71644 
L 157.630442 273.136382 
L 157.711875 273.136382 
L 157.751052 272.08301 
L 158.225319 272.08301 
L 158.225319 271.556324 
L 158.522004 271.556324 
L 158.522004 271.029638 
L 158.774233 271.029638 
L 158.774233 270.502952 
L 159.237226 270.502952 
L 159.237226 269.976266 
L 159.615556 269.976266 
L 159.615556 269.449579 
L 159.773084 269.449579 
L 159.857512 268.396207 
L 159.892158 268.396207 
L 159.966168 267.342835 
L 160.497133 267.342835 
L 160.580512 265.762777 
L 161.283861 265.762777 
L 161.388547 264.709405 
L 161.404423 264.709405 
L 161.404423 264.182719 
L 161.602778 264.182719 
L 161.602778 263.656033 
L 161.90055 263.656033 
L 161.90055 263.129347 
L 162.547205 263.129347 
L 162.612897 262.075974 
L 162.802228 262.075974 
L 162.802228 261.549288 
L 163.0577 261.549288 
L 163.082425 260.495916 
L 163.295251 260.495916 
L 163.295251 259.96923 
L 163.780654 259.96923 
L 163.780654 259.442544 
L 163.947991 259.442544 
L 163.973442 258.389172 
L 164.131194 258.389172 
L 164.131194 257.862486 
L 164.258686 257.862486 
L 164.364222 256.809114 
L 164.427239 256.809114 
L 164.427239 256.282427 
L 164.575287 256.282427 
L 164.63378 254.702369 
L 165.012039 254.702369 
L 165.10946 253.648997 
L 165.133273 253.648997 
L 165.133273 253.122311 
L 165.668633 253.122311 
L 165.668633 252.595625 
L 165.904898 252.595625 
L 165.9905 250.488881 
L 166.13282 250.488881 
L 166.139733 249.435508 
L 166.454796 249.435508 
L 166.547878 247.328764 
L 166.668984 247.328764 
L 166.668984 246.802078 
L 166.854058 246.802078 
L 166.854058 246.275392 
L 167.053592 246.275392 
L 167.074895 245.22202 
L 167.325286 245.22202 
L 167.359153 243.115275 
L 167.896961 243.115275 
L 167.96712 242.061903 
L 168.029248 242.061903 
L 168.058681 241.008531 
L 168.209712 241.008531 
L 168.251094 239.955159 
L 168.55009 239.955159 
L 168.55009 239.428473 
L 168.664083 239.428473 
L 168.766934 237.848415 
L 168.790698 237.848415 
L 168.847006 236.795043 
L 168.982583 236.795043 
L 169.020709 235.74167 
L 169.337135 235.74167 
L 169.351513 234.688298 
L 169.54731 234.688298 
L 169.656399 233.634926 
L 169.708576 233.634926 
L 169.740933 232.581554 
L 169.859992 232.581554 
L 169.894855 231.528182 
L 170.02532 231.528182 
L 170.02532 231.001496 
L 170.549716 231.001496 
L 170.642055 229.948123 
L 170.678055 229.948123 
L 170.690039 228.894751 
L 170.845079 228.894751 
L 170.947679 227.841379 
L 171.152381 227.841379 
L 171.2274 226.261321 
L 171.291814 226.261321 
L 171.329065 225.207949 
L 171.422484 225.207949 
L 171.514136 224.154577 
L 171.588882 224.154577 
L 171.639376 223.101204 
L 171.779986 223.101204 
L 171.804976 222.047832 
L 172.213443 222.047832 
L 172.213443 221.521146 
L 172.430414 221.521146 
L 172.504941 219.941088 
L 172.566008 219.941088 
L 172.658992 217.834344 
L 172.714783 217.834344 
L 172.714783 217.307658 
L 172.850543 217.307658 
L 172.850543 216.780971 
L 173.14208 216.780971 
L 173.243551 215.727599 
L 173.290627 215.727599 
L 173.347865 214.674227 
L 173.414027 214.674227 
L 173.414027 214.147541 
L 173.533168 214.147541 
L 173.545602 213.094169 
L 173.649253 213.094169 
L 173.691887 212.040797 
L 173.858056 212.040797 
L 173.926737 210.460738 
L 173.972006 210.460738 
L 174.025955 209.407366 
L 174.23684 209.407366 
L 174.23684 208.88068 
L 174.359138 208.88068 
L 174.411904 206.773936 
L 174.501991 206.773936 
L 174.547927 205.720564 
L 174.628823 205.720564 
L 174.628823 205.193878 
L 174.871376 205.193878 
L 174.871376 204.667192 
L 175.05162 204.667192 
L 175.129186 202.560447 
L 175.268964 202.560447 
L 175.268964 202.033761 
L 175.419813 202.033761 
L 175.419813 201.507075 
L 175.666697 201.507075 
L 175.746561 200.453703 
L 175.81019 200.453703 
L 175.8538 199.400331 
L 176.009509 199.400331 
L 176.099539 197.293586 
L 176.131719 197.293586 
L 176.242433 195.186842 
L 176.261784 195.186842 
L 176.36495 193.606784 
L 176.384165 193.606784 
L 176.384165 193.080098 
L 176.507601 193.080098 
L 176.507601 192.553412 
L 176.624487 192.553412 
L 176.624487 192.026726 
L 176.809141 192.026726 
L 176.918444 189.393295 
L 176.94729 189.393295 
L 176.94729 188.866609 
L 177.105556 188.866609 
L 177.210275 187.286551 
L 177.222177 187.286551 
L 177.293417 185.179807 
L 177.385234 185.179807 
L 177.385234 184.653121 
L 177.830136 184.653121 
L 177.901581 183.073062 
L 177.956071 183.073062 
L 178.024381 181.493004 
L 178.116786 181.493004 
L 178.178408 179.38626 
L 178.289814 179.38626 
L 178.289814 178.859574 
L 178.455173 178.859574 
L 178.504562 177.279515 
L 178.599539 177.279515 
L 178.671276 176.226143 
L 178.741042 176.226143 
L 178.771215 175.172771 
L 178.926284 175.172771 
L 179.035502 173.066027 
L 179.168614 173.066027 
L 179.259238 170.959282 
L 179.338048 170.959282 
L 179.41731 169.379224 
L 179.536333 169.379224 
L 179.582757 168.325852 
L 179.757732 168.325852 
L 179.836689 167.27248 
L 179.97401 167.27248 
L 180.082317 165.692422 
L 180.281581 165.692422 
L 180.384183 163.058991 
L 180.408596 163.058991 
L 180.408596 162.532305 
L 180.530151 162.532305 
L 180.601926 159.372189 
L 180.665144 159.372189 
L 180.689168 158.318817 
L 180.919454 158.318817 
L 180.966035 156.738758 
L 181.038247 156.738758 
L 181.044864 155.685386 
L 181.173027 155.685386 
L 181.208016 154.105328 
L 181.35161 154.105328 
L 181.35161 153.578642 
L 181.463918 153.578642 
L 181.559813 151.471897 
L 181.59546 151.471897 
L 181.682134 149.891839 
L 181.728138 149.891839 
L 181.813454 147.258409 
L 181.875241 147.258409 
L 181.970998 145.151665 
L 182.009988 145.151665 
L 182.053749 143.571606 
L 182.180244 143.571606 
L 182.225641 142.518234 
L 182.323597 142.518234 
L 182.323597 141.991548 
L 182.459005 141.991548 
L 182.557011 139.884804 
L 182.587315 139.884804 
L 182.587315 139.358118 
L 182.709344 139.358118 
L 182.819241 136.198001 
L 182.872276 136.198001 
L 182.936365 135.144629 
L 183.035667 135.144629 
L 183.122014 132.511199 
L 183.16047 132.511199 
L 183.16047 131.984513 
L 183.334093 131.984513 
L 183.430521 128.824396 
L 183.502175 128.824396 
L 183.588788 126.717652 
L 183.685086 126.717652 
L 183.780854 125.137593 
L 183.906693 125.137593 
L 183.975178 124.084221 
L 184.062571 124.084221 
L 184.09284 122.504163 
L 184.200515 122.504163 
L 184.200515 121.977477 
L 184.322763 121.977477 
L 184.410255 119.870733 
L 184.489468 119.870733 
L 184.560514 118.290674 
L 184.621694 118.290674 
L 184.621694 117.763988 
L 184.763618 117.763988 
L 184.803956 116.18393 
L 184.914997 116.18393 
L 184.963209 115.130558 
L 185.0458 115.130558 
L 185.141374 112.497128 
L 185.185488 112.497128 
L 185.26415 110.917069 
L 185.335564 110.917069 
L 185.42728 108.810325 
L 185.446708 108.810325 
L 185.531025 106.176895 
L 185.584366 106.176895 
L 185.68324 104.596836 
L 185.76362 104.596836 
L 185.844189 102.490092 
L 185.881549 102.490092 
L 185.936608 100.910034 
L 186.012514 100.910034 
L 186.02633 99.329976 
L 186.142502 99.329976 
L 186.204948 97.749917 
L 186.303093 97.749917 
L 186.399608 96.169859 
L 186.44389 96.169859 
L 186.538558 94.063115 
L 186.589444 94.063115 
L 186.675346 92.483056 
L 186.716811 92.483056 
L 186.724774 91.429684 
L 186.837455 91.429684 
L 186.933687 88.796254 
L 186.99389 88.796254 
L 187.072105 86.68951 
L 187.106409 86.68951 
L 187.201172 82.476021 
L 187.282577 82.476021 
L 187.384569 79.842591 
L 187.397851 79.842591 
L 187.494603 78.262532 
L 187.550879 78.262532 
L 187.575664 77.20916 
L 187.681991 77.20916 
L 187.768688 76.155788 
L 187.844507 76.155788 
L 187.937334 72.995672 
L 187.957126 72.995672 
L 187.988746 70.888927 
L 188.112698 70.888927 
L 188.213374 68.255497 
L 188.29408 68.255497 
L 188.377793 66.675439 
L 188.437069 66.675439 
L 188.477914 65.622066 
L 188.548806 65.622066 
L 188.659831 63.515322 
L 188.718631 63.515322 
L 188.817761 61.408578 
L 188.94112 61.408578 
L 189.031094 56.141717 
L 189.257461 56.141717 
L 189.314741 53.508287 
L 189.489536 53.508287 
L 189.590246 50.34817 
L 189.617243 50.34817 
L 189.653624 48.768112 
L 189.881406 48.768112 
L 189.963142 46.661368 
L 190.023426 46.661368 
L 190.132898 45.081309 
L 190.164299 45.081309 
L 190.26423 43.501251 
L 190.27982 43.501251 
L 190.38942 41.921193 
L 190.404468 41.921193 
L 190.5103 39.814448 
L 190.548703 39.814448 
L 190.638831 38.23439 
L 190.673991 38.23439 
L 190.780728 36.654332 
L 190.822737 36.654332 
L 190.834482 35.60096 
L 191.029206 35.60096 
L 191.118953 33.494215 
L 191.245958 33.494215 
L 191.356588 31.914157 
L 191.384644 31.914157 
L 191.384644 31.387471 
L 191.574158 31.387471 
L 191.574158 30.860785 
L 191.70269 30.860785 
L 191.70269 30.334099 
L 338.688 30.334099 
L 338.688 30.334099 
" style="fill:none;stroke:#ff0000;stroke-linecap:square;stroke-width:1.5;"/>
   </g>
   <g id="line2d_47">
    <defs>
     <path d="M -6 6 
L 6 6 
L 6 -6 
L -6 -6 
z
" id="m0209bc8bed" style="stroke:#ff0000;stroke-linejoin:miter;stroke-width:1.5;"/>
    </defs>
    <g>
     <use style="fill-opacity:0;stroke:#ff0000;stroke-linejoin:miter;stroke-width:1.5;" x="173.869152" xlink:href="#m0209bc8bed" y="210.987425"/>
     <use style="fill-opacity:0;stroke:#ff0000;stroke-linejoin:miter;stroke-width:1.5;" x="189.617243" xlink:href="#m0209bc8bed" y="50.34817"/>
     <use style="fill-opacity:0;stroke:#ff0000;stroke-linejoin:miter;stroke-width:1.5;" x="191.70269" xlink:href="#m0209bc8bed" y="30.860785"/>
     <use style="fill-opacity:0;stroke:#ff0000;stroke-linejoin:miter;stroke-width:1.5;" x="191.70269" xlink:href="#m0209bc8bed" y="30.334099"/>
     <use style="fill-opacity:0;stroke:#ff0000;stroke-linejoin:miter;stroke-width:1.5;" x="338.688" xlink:href="#m0209bc8bed" y="30.334099"/>
    </g>
   </g>
   <g id="line2d_48">
    <path style="fill:none;stroke:#ff0000;stroke-linecap:square;stroke-width:1.5;"/>
    <g/>
   </g>
   <g id="line2d_49">
    <path d="M 338.688 30.334099 
L 369.60768 293.571802 
" style="fill:none;stroke:#000000;stroke-linecap:square;stroke-width:1.5;"/>
    <g>
     <use style="fill-opacity:0;stroke:#000000;stroke-width:1.5;" x="338.688" xlink:href="#mc961af2724" y="30.334099"/>
     <use style="fill-opacity:0;stroke:#000000;stroke-width:1.5;" x="369.60768" xlink:href="#mc961af2724" y="293.571802"/>
    </g>
   </g>
   <g id="line2d_50">
    <path d="M 338.688 30.334099 
L 369.60768 229.105426 
" style="fill:none;stroke:#ff0000;stroke-linecap:square;stroke-width:1.5;"/>
    <g>
     <use style="fill-opacity:0;stroke:#ff0000;stroke-linejoin:miter;stroke-width:1.5;" x="338.688" xlink:href="#m0209bc8bed" y="30.334099"/>
     <use style="fill-opacity:0;stroke:#ff0000;stroke-linejoin:miter;stroke-width:1.5;" x="369.60768" xlink:href="#m0209bc8bed" y="229.105426"/>
    </g>
   </g>
   <g id="line2d_51">
    <path d="M 338.688 30.334099 
L 369.60768 164.63905 
" style="fill:none;stroke:#0000ff;stroke-linecap:square;stroke-width:1.5;"/>
    <g>
     <use style="fill-opacity:0;stroke:#0000ff;stroke-linejoin:bevel;stroke-width:1.5;" x="338.688" xlink:href="#m26f6f59929" y="30.334099"/>
     <use style="fill-opacity:0;stroke:#0000ff;stroke-linejoin:bevel;stroke-width:1.5;" x="369.60768" xlink:href="#m26f6f59929" y="164.63905"/>
    </g>
   </g>
   <g id="line2d_52">
    <path d="M 338.688 30.334099 
L 369.60768 100.172673 
" style="fill:none;stroke:#00bfbf;stroke-linecap:square;stroke-width:1.5;"/>
    <g>
     <use style="fill-opacity:0;stroke:#00bfbf;stroke-width:1.5;" x="338.688" xlink:href="#m79950c57fa" y="30.334099"/>
     <use style="fill-opacity:0;stroke:#00bfbf;stroke-width:1.5;" x="369.60768" xlink:href="#m79950c57fa" y="100.172673"/>
    </g>
   </g>
   <g id="line2d_53">
    <path d="M 338.688 30.334099 
L 369.60768 35.706297 
" style="fill:none;stroke:#008000;stroke-linecap:square;stroke-width:1.5;"/>
    <g>
     <use style="fill-opacity:0;stroke:#008000;stroke-linejoin:miter;stroke-width:1.5;" x="338.688" xlink:href="#m354033664d" y="30.334099"/>
     <use style="fill-opacity:0;stroke:#008000;stroke-linejoin:miter;stroke-width:1.5;" x="369.60768" xlink:href="#m354033664d" y="35.706297"/>
    </g>
   </g>
   <g id="line2d_54">
    <path d="M 338.688 298.944 
L 338.688 30.334099 
" style="fill:none;stroke:#000000;stroke-linecap:square;stroke-width:1.5;"/>
   </g>
   <g id="patch_3">
    <path d="M 57.6 298.944 
L 57.6 27.648 
" style="fill:none;stroke:#000000;stroke-linecap:square;stroke-linejoin:miter;stroke-width:0.8;"/>
   </g>
   <g id="patch_4">
    <path d="M 338.688 298.944 
L 338.688 27.648 
" style="fill:none;stroke:#000000;stroke-linecap:square;stroke-linejoin:miter;stroke-width:0.8;"/>
   </g>
   <g id="patch_5">
    <path d="M 57.6 298.944 
L 338.688 298.944 
" style="fill:none;stroke:#000000;stroke-linecap:square;stroke-linejoin:miter;stroke-width:0.8;"/>
   </g>
   <g id="patch_6">
    <path d="M 57.6 27.648 
L 338.688 27.648 
" style="fill:none;stroke:#000000;stroke-linecap:square;stroke-linejoin:miter;stroke-width:0.8;"/>
   </g>
   <g id="text_13">
    <!-- 10-D -->
    <g transform="translate(375.22944 298.262739)scale(0.17 -0.17)">
     <defs>
      <path d="M 1259 4147 
L 1259 519 
L 2022 519 
Q 2988 519 3436 956 
Q 3884 1394 3884 2338 
Q 3884 3275 3436 3711 
Q 2988 4147 2022 4147 
L 1259 4147 
z
M 628 4666 
L 1925 4666 
Q 3281 4666 3915 4102 
Q 4550 3538 4550 2338 
Q 4550 1131 3912 565 
Q 3275 0 1925 0 
L 628 0 
L 628 4666 
z
" id="DejaVuSans-44" transform="scale(0.015625)"/>
     </defs>
     <use xlink:href="#DejaVuSans-31"/>
     <use x="63.623047" xlink:href="#DejaVuSans-30"/>
     <use x="127.246094" xlink:href="#DejaVuSans-2d"/>
     <use x="163.330078" xlink:href="#DejaVuSans-44"/>
    </g>
   </g>
   <g id="text_14">
    <!-- 20-D -->
    <g transform="translate(375.22944 233.796363)scale(0.17 -0.17)">
     <use xlink:href="#DejaVuSans-32"/>
     <use x="63.623047" xlink:href="#DejaVuSans-30"/>
     <use x="127.246094" xlink:href="#DejaVuSans-2d"/>
     <use x="163.330078" xlink:href="#DejaVuSans-44"/>
    </g>
   </g>
   <g id="text_15">
    <!-- 5-D -->
    <g transform="translate(375.22944 169.329987)scale(0.17 -0.17)">
     <defs>
      <path d="M 691 4666 
L 3169 4666 
L 3169 4134 
L 1269 4134 
L 1269 2991 
Q 1406 3038 1543 3061 
Q 1681 3084 1819 3084 
Q 2600 3084 3056 2656 
Q 3513 2228 3513 1497 
Q 3513 744 3044 326 
Q 2575 -91 1722 -91 
Q 1428 -91 1123 -41 
Q 819 9 494 109 
L 494 744 
Q 775 591 1075 516 
Q 1375 441 1709 441 
Q 2250 441 2565 725 
Q 2881 1009 2881 1497 
Q 2881 1984 2565 2268 
Q 2250 2553 1709 2553 
Q 1456 2553 1204 2497 
Q 953 2441 691 2322 
L 691 4666 
z
" id="DejaVuSans-35" transform="scale(0.015625)"/>
     </defs>
     <use xlink:href="#DejaVuSans-35"/>
     <use x="63.623047" xlink:href="#DejaVuSans-2d"/>
     <use x="99.707031" xlink:href="#DejaVuSans-44"/>
    </g>
   </g>
   <g id="text_16">
    <!-- 2-D -->
    <g transform="translate(375.22944 104.863611)scale(0.17 -0.17)">
     <use xlink:href="#DejaVuSans-32"/>
     <use x="63.623047" xlink:href="#DejaVuSans-2d"/>
     <use x="99.707031" xlink:href="#DejaVuSans-44"/>
    </g>
   </g>
   <g id="text_17">
    <!-- 3-D -->
    <g transform="translate(375.22944 40.397235)scale(0.17 -0.17)">
     <defs>
      <path d="M 2597 2516 
Q 3050 2419 3304 2112 
Q 3559 1806 3559 1356 
Q 3559 666 3084 287 
Q 2609 -91 1734 -91 
Q 1441 -91 1130 -33 
Q 819 25 488 141 
L 488 750 
Q 750 597 1062 519 
Q 1375 441 1716 441 
Q 2309 441 2620 675 
Q 2931 909 2931 1356 
Q 2931 1769 2642 2001 
Q 2353 2234 1838 2234 
L 1294 2234 
L 1294 2753 
L 1863 2753 
Q 2328 2753 2575 2939 
Q 2822 3125 2822 3475 
Q 2822 3834 2567 4026 
Q 2313 4219 1838 4219 
Q 1578 4219 1281 4162 
Q 984 4106 628 3988 
L 628 4550 
Q 988 4650 1302 4700 
Q 1616 4750 1894 4750 
Q 2613 4750 3031 4423 
Q 3450 4097 3450 3541 
Q 3450 3153 3228 2886 
Q 3006 2619 2597 2516 
z
" id="DejaVuSans-33" transform="scale(0.015625)"/>
     </defs>
     <use xlink:href="#DejaVuSans-33"/>
     <use x="63.623047" xlink:href="#DejaVuSans-2d"/>
     <use x="99.707031" xlink:href="#DejaVuSans-44"/>
    </g>
   </g>
   <g id="text_18">
    <!-- bbob f6 -->
    <g transform="translate(60.41088 38.111366)scale(0.102 -0.102)">
     <defs>
      <path d="M 3116 1747 
Q 3116 2381 2855 2742 
Q 2594 3103 2138 3103 
Q 1681 3103 1420 2742 
Q 1159 2381 1159 1747 
Q 1159 1113 1420 752 
Q 1681 391 2138 391 
Q 2594 391 2855 752 
Q 3116 1113 3116 1747 
z
M 1159 2969 
Q 1341 3281 1617 3432 
Q 1894 3584 2278 3584 
Q 2916 3584 3314 3078 
Q 3713 2572 3713 1747 
Q 3713 922 3314 415 
Q 2916 -91 2278 -91 
Q 1894 -91 1617 61 
Q 1341 213 1159 525 
L 1159 0 
L 581 0 
L 581 4863 
L 1159 4863 
L 1159 2969 
z
" id="DejaVuSans-62" transform="scale(0.015625)"/>
     </defs>
     <use xlink:href="#DejaVuSans-62"/>
     <use x="63.476562" xlink:href="#DejaVuSans-62"/>
     <use x="126.953125" xlink:href="#DejaVuSans-6f"/>
     <use x="188.134766" xlink:href="#DejaVuSans-62"/>
     <use x="251.611328" xlink:href="#DejaVuSans-20"/>
     <use x="283.398438" xlink:href="#DejaVuSans-66"/>
     <use x="318.603516" xlink:href="#DejaVuSans-36"/>
    </g>
    <!-- 51 targets: 100..1e-08 -->
    <g transform="translate(60.41088 49.533135)scale(0.102 -0.102)">
     <defs>
      <path d="M 750 794 
L 1409 794 
L 1409 0 
L 750 0 
L 750 794 
z
M 750 3309 
L 1409 3309 
L 1409 2516 
L 750 2516 
L 750 3309 
z
" id="DejaVuSans-3a" transform="scale(0.015625)"/>
     </defs>
     <use xlink:href="#DejaVuSans-35"/>
     <use x="63.623047" xlink:href="#DejaVuSans-31"/>
     <use x="127.246094" xlink:href="#DejaVuSans-20"/>
     <use x="159.033203" xlink:href="#DejaVuSans-74"/>
     <use x="198.242188" xlink:href="#DejaVuSans-61"/>
     <use x="259.521484" xlink:href="#DejaVuSans-72"/>
     <use x="298.884766" xlink:href="#DejaVuSans-67"/>
     <use x="362.361328" xlink:href="#DejaVuSans-65"/>
     <use x="423.884766" xlink:href="#DejaVuSans-74"/>
     <use x="463.09375" xlink:href="#DejaVuSans-73"/>
     <use x="515.193359" xlink:href="#DejaVuSans-3a"/>
     <use x="548.884766" xlink:href="#DejaVuSans-20"/>
     <use x="580.671875" xlink:href="#DejaVuSans-31"/>
     <use x="644.294922" xlink:href="#DejaVuSans-30"/>
     <use x="707.917969" xlink:href="#DejaVuSans-30"/>
     <use x="771.541016" xlink:href="#DejaVuSans-2e"/>
     <use x="803.328125" xlink:href="#DejaVuSans-2e"/>
     <use x="835.115234" xlink:href="#DejaVuSans-31"/>
     <use x="898.738281" xlink:href="#DejaVuSans-65"/>
     <use x="960.261719" xlink:href="#DejaVuSans-2d"/>
     <use x="996.345703" xlink:href="#DejaVuSans-30"/>
     <use x="1059.96875" xlink:href="#DejaVuSans-38"/>
    </g>
    <!-- 15 instances -->
    <g transform="translate(60.41088 60.954904)scale(0.102 -0.102)">
     <use xlink:href="#DejaVuSans-31"/>
     <use x="63.623047" xlink:href="#DejaVuSans-35"/>
     <use x="127.246094" xlink:href="#DejaVuSans-20"/>
     <use x="159.033203" xlink:href="#DejaVuSans-69"/>
     <use x="186.816406" xlink:href="#DejaVuSans-6e"/>
     <use x="250.195312" xlink:href="#DejaVuSans-73"/>
     <use x="302.294922" xlink:href="#DejaVuSans-74"/>
     <use x="341.503906" xlink:href="#DejaVuSans-61"/>
     <use x="402.783203" xlink:href="#DejaVuSans-6e"/>
     <use x="466.162109" xlink:href="#DejaVuSans-63"/>
     <use x="521.142578" xlink:href="#DejaVuSans-65"/>
     <use x="582.666016" xlink:href="#DejaVuSans-73"/>
    </g>
   </g>
   <g id="text_19">
    <!-- v2.4 -->
    <g style="fill:#808080;" transform="translate(187.233062 294.151352)scale(0.1 -0.1)">
     <use xlink:href="#DejaVuSans-76"/>
     <use x="59.179688" xlink:href="#DejaVuSans-32"/>
     <use x="122.802734" xlink:href="#DejaVuSans-2e"/>
     <use x="154.589844" xlink:href="#DejaVuSans-34"/>
    </g>
   </g>
   <g id="text_20">
    <!-- 6 Attractive sector -->
    <g transform="translate(105.40025 21.648)scale(0.2 -0.2)">
     <defs>
      <path d="M 2188 4044 
L 1331 1722 
L 3047 1722 
L 2188 4044 
z
M 1831 4666 
L 2547 4666 
L 4325 0 
L 3669 0 
L 3244 1197 
L 1141 1197 
L 716 0 
L 50 0 
L 1831 4666 
z
" id="DejaVuSans-41" transform="scale(0.015625)"/>
     </defs>
     <use xlink:href="#DejaVuSans-36"/>
     <use x="63.623047" xlink:href="#DejaVuSans-20"/>
     <use x="95.410156" xlink:href="#DejaVuSans-41"/>
     <use x="162.068359" xlink:href="#DejaVuSans-74"/>
     <use x="201.277344" xlink:href="#DejaVuSans-74"/>
     <use x="240.486328" xlink:href="#DejaVuSans-72"/>
     <use x="281.599609" xlink:href="#DejaVuSans-61"/>
     <use x="342.878906" xlink:href="#DejaVuSans-63"/>
     <use x="397.859375" xlink:href="#DejaVuSans-74"/>
     <use x="437.068359" xlink:href="#DejaVuSans-69"/>
     <use x="464.851562" xlink:href="#DejaVuSans-76"/>
     <use x="524.03125" xlink:href="#DejaVuSans-65"/>
     <use x="585.554688" xlink:href="#DejaVuSans-20"/>
     <use x="617.341797" xlink:href="#DejaVuSans-73"/>
     <use x="669.441406" xlink:href="#DejaVuSans-65"/>
     <use x="730.964844" xlink:href="#DejaVuSans-63"/>
     <use x="785.945312" xlink:href="#DejaVuSans-74"/>
     <use x="825.154297" xlink:href="#DejaVuSans-6f"/>
     <use x="886.335938" xlink:href="#DejaVuSans-72"/>
    </g>
   </g>
  </g>
 </g>
 <defs>
  <clipPath id="p6a278cb9d2">
   <rect height="271.296" width="281.088" x="57.6" y="27.648"/>
  </clipPath>
 </defs>
</svg>
