<?xml version="1.0" encoding="utf-8" standalone="no"?>
<!DOCTYPE svg PUBLIC "-//W3C//DTD SVG 1.1//EN"
  "http://www.w3.org/Graphics/SVG/1.1/DTD/svg11.dtd">
<svg height="345.6pt" version="1.1" viewBox="0 0 460.8 345.6" width="460.8pt" xmlns="http://www.w3.org/2000/svg" xmlns:xlink="http://www.w3.org/1999/xlink">
 <metadata>
  <rdf:RDF xmlns:cc="http://creativecommons.org/ns#" xmlns:dc="http://purl.org/dc/elements/1.1/" xmlns:rdf="http://www.w3.org/1999/02/22-rdf-syntax-ns#">
   <cc:Work>
    <dc:type rdf:resource="http://purl.org/dc/dcmitype/StillImage"/>
    <dc:date>2021-07-27T16:03:49.382790</dc:date>
    <dc:format>image/svg+xml</dc:format>
    <dc:creator>
     <cc:Agent>
      <dc:title>Matplotlib v3.4.2, https://matplotlib.org/</dc:title>
     </cc:Agent>
    </dc:creator>
   </cc:Work>
  </rdf:RDF>
 </metadata>
 <defs>
  <style type="text/css">*{stroke-linecap:butt;stroke-linejoin:round;}</style>
 </defs>
 <g id="figure_1">
  <g id="patch_1">
   <path d="M 0 345.6 
L 460.8 345.6 
L 460.8 0 
L 0 0 
z
" style="fill:#ffffff;"/>
  </g>
  <g id="axes_1">
   <g id="patch_2">
    <path d="M 57.6 298.944 
L 338.688 298.944 
L 338.688 27.648 
L 57.6 27.648 
z
" style="fill:#ffffff;"/>
   </g>
   <g id="matplotlib.axis_1">
    <g id="xtick_1">
     <g id="line2d_1">
      <path clip-path="url(#p5c59ab26c9)" d="M 57.6 298.944 
L 57.6 27.648 
" style="fill:none;stroke:#b0b0b0;stroke-linecap:square;stroke-width:0.8;"/>
     </g>
     <g id="line2d_2">
      <defs>
       <path d="M 0 0 
L 0 3.5 
" id="m93c6d6badd" style="stroke:#000000;stroke-width:0.8;"/>
      </defs>
      <g>
       <use style="stroke:#000000;stroke-width:0.8;" x="57.6" xlink:href="#m93c6d6badd" y="298.944"/>
      </g>
     </g>
     <g id="text_1">
      <!-- 0 -->
      <g transform="translate(51.2375 321.140875)scale(0.2 -0.2)">
       <defs>
        <path d="M 2034 4250 
Q 1547 4250 1301 3770 
Q 1056 3291 1056 2328 
Q 1056 1369 1301 889 
Q 1547 409 2034 409 
Q 2525 409 2770 889 
Q 3016 1369 3016 2328 
Q 3016 3291 2770 3770 
Q 2525 4250 2034 4250 
z
M 2034 4750 
Q 2819 4750 3233 4129 
Q 3647 3509 3647 2328 
Q 3647 1150 3233 529 
Q 2819 -91 2034 -91 
Q 1250 -91 836 529 
Q 422 1150 422 2328 
Q 422 3509 836 4129 
Q 1250 4750 2034 4750 
z
" id="DejaVuSans-30" transform="scale(0.015625)"/>
       </defs>
       <use xlink:href="#DejaVuSans-30"/>
      </g>
     </g>
    </g>
    <g id="xtick_2">
     <g id="line2d_3">
      <path clip-path="url(#p5c59ab26c9)" d="M 137.910857 298.944 
L 137.910857 27.648 
" style="fill:none;stroke:#b0b0b0;stroke-linecap:square;stroke-width:0.8;"/>
     </g>
     <g id="line2d_4">
      <g>
       <use style="stroke:#000000;stroke-width:0.8;" x="137.910857" xlink:href="#m93c6d6badd" y="298.944"/>
      </g>
     </g>
     <g id="text_2">
      <!-- 2 -->
      <g transform="translate(131.548357 321.140875)scale(0.2 -0.2)">
       <defs>
        <path d="M 1228 531 
L 3431 531 
L 3431 0 
L 469 0 
L 469 531 
Q 828 903 1448 1529 
Q 2069 2156 2228 2338 
Q 2531 2678 2651 2914 
Q 2772 3150 2772 3378 
Q 2772 3750 2511 3984 
Q 2250 4219 1831 4219 
Q 1534 4219 1204 4116 
Q 875 4013 500 3803 
L 500 4441 
Q 881 4594 1212 4672 
Q 1544 4750 1819 4750 
Q 2544 4750 2975 4387 
Q 3406 4025 3406 3419 
Q 3406 3131 3298 2873 
Q 3191 2616 2906 2266 
Q 2828 2175 2409 1742 
Q 1991 1309 1228 531 
z
" id="DejaVuSans-32" transform="scale(0.015625)"/>
       </defs>
       <use xlink:href="#DejaVuSans-32"/>
      </g>
     </g>
    </g>
    <g id="xtick_3">
     <g id="line2d_5">
      <path clip-path="url(#p5c59ab26c9)" d="M 218.221714 298.944 
L 218.221714 27.648 
" style="fill:none;stroke:#b0b0b0;stroke-linecap:square;stroke-width:0.8;"/>
     </g>
     <g id="line2d_6">
      <g>
       <use style="stroke:#000000;stroke-width:0.8;" x="218.221714" xlink:href="#m93c6d6badd" y="298.944"/>
      </g>
     </g>
     <g id="text_3">
      <!-- 4 -->
      <g transform="translate(211.859214 321.140875)scale(0.2 -0.2)">
       <defs>
        <path d="M 2419 4116 
L 825 1625 
L 2419 1625 
L 2419 4116 
z
M 2253 4666 
L 3047 4666 
L 3047 1625 
L 3713 1625 
L 3713 1100 
L 3047 1100 
L 3047 0 
L 2419 0 
L 2419 1100 
L 313 1100 
L 313 1709 
L 2253 4666 
z
" id="DejaVuSans-34" transform="scale(0.015625)"/>
       </defs>
       <use xlink:href="#DejaVuSans-34"/>
      </g>
     </g>
    </g>
    <g id="xtick_4">
     <g id="line2d_7">
      <path clip-path="url(#p5c59ab26c9)" d="M 298.532571 298.944 
L 298.532571 27.648 
" style="fill:none;stroke:#b0b0b0;stroke-linecap:square;stroke-width:0.8;"/>
     </g>
     <g id="line2d_8">
      <g>
       <use style="stroke:#000000;stroke-width:0.8;" x="298.532571" xlink:href="#m93c6d6badd" y="298.944"/>
      </g>
     </g>
     <g id="text_4">
      <!-- 6 -->
      <g transform="translate(292.170071 321.140875)scale(0.2 -0.2)">
       <defs>
        <path d="M 2113 2584 
Q 1688 2584 1439 2293 
Q 1191 2003 1191 1497 
Q 1191 994 1439 701 
Q 1688 409 2113 409 
Q 2538 409 2786 701 
Q 3034 994 3034 1497 
Q 3034 2003 2786 2293 
Q 2538 2584 2113 2584 
z
M 3366 4563 
L 3366 3988 
Q 3128 4100 2886 4159 
Q 2644 4219 2406 4219 
Q 1781 4219 1451 3797 
Q 1122 3375 1075 2522 
Q 1259 2794 1537 2939 
Q 1816 3084 2150 3084 
Q 2853 3084 3261 2657 
Q 3669 2231 3669 1497 
Q 3669 778 3244 343 
Q 2819 -91 2113 -91 
Q 1303 -91 875 529 
Q 447 1150 447 2328 
Q 447 3434 972 4092 
Q 1497 4750 2381 4750 
Q 2619 4750 2861 4703 
Q 3103 4656 3366 4563 
z
" id="DejaVuSans-36" transform="scale(0.015625)"/>
       </defs>
       <use xlink:href="#DejaVuSans-36"/>
      </g>
     </g>
    </g>
    <g id="xtick_5">
     <g id="line2d_9">
      <path clip-path="url(#p5c59ab26c9)" d="M 97.755429 298.944 
L 97.755429 27.648 
" style="fill:none;stroke:#b0b0b0;stroke-linecap:square;stroke-width:0.8;"/>
     </g>
     <g id="line2d_10">
      <defs>
       <path d="M 0 0 
L 0 2 
" id="m04cbec393e" style="stroke:#000000;stroke-width:0.6;"/>
      </defs>
      <g>
       <use style="stroke:#000000;stroke-width:0.6;" x="97.755429" xlink:href="#m04cbec393e" y="298.944"/>
      </g>
     </g>
    </g>
    <g id="xtick_6">
     <g id="line2d_11">
      <path clip-path="url(#p5c59ab26c9)" d="M 178.066286 298.944 
L 178.066286 27.648 
" style="fill:none;stroke:#b0b0b0;stroke-linecap:square;stroke-width:0.8;"/>
     </g>
     <g id="line2d_12">
      <g>
       <use style="stroke:#000000;stroke-width:0.6;" x="178.066286" xlink:href="#m04cbec393e" y="298.944"/>
      </g>
     </g>
    </g>
    <g id="xtick_7">
     <g id="line2d_13">
      <path clip-path="url(#p5c59ab26c9)" d="M 258.377143 298.944 
L 258.377143 27.648 
" style="fill:none;stroke:#b0b0b0;stroke-linecap:square;stroke-width:0.8;"/>
     </g>
     <g id="line2d_14">
      <g>
       <use style="stroke:#000000;stroke-width:0.6;" x="258.377143" xlink:href="#m04cbec393e" y="298.944"/>
      </g>
     </g>
    </g>
    <g id="xtick_8">
     <g id="line2d_15">
      <path clip-path="url(#p5c59ab26c9)" d="M 338.688 298.944 
L 338.688 27.648 
" style="fill:none;stroke:#b0b0b0;stroke-linecap:square;stroke-width:0.8;"/>
     </g>
     <g id="line2d_16">
      <g>
       <use style="stroke:#000000;stroke-width:0.6;" x="338.688" xlink:href="#m04cbec393e" y="298.944"/>
      </g>
     </g>
    </g>
    <g id="text_5">
     <!-- log10(# f-evals / dimension) -->
     <g transform="translate(77.764078 342.217594)scale(0.17 -0.17)">
      <defs>
       <path d="M 603 4863 
L 1178 4863 
L 1178 0 
L 603 0 
L 603 4863 
z
" id="DejaVuSans-6c" transform="scale(0.015625)"/>
       <path d="M 1959 3097 
Q 1497 3097 1228 2736 
Q 959 2375 959 1747 
Q 959 1119 1226 758 
Q 1494 397 1959 397 
Q 2419 397 2687 759 
Q 2956 1122 2956 1747 
Q 2956 2369 2687 2733 
Q 2419 3097 1959 3097 
z
M 1959 3584 
Q 2709 3584 3137 3096 
Q 3566 2609 3566 1747 
Q 3566 888 3137 398 
Q 2709 -91 1959 -91 
Q 1206 -91 779 398 
Q 353 888 353 1747 
Q 353 2609 779 3096 
Q 1206 3584 1959 3584 
z
" id="DejaVuSans-6f" transform="scale(0.015625)"/>
       <path d="M 2906 1791 
Q 2906 2416 2648 2759 
Q 2391 3103 1925 3103 
Q 1463 3103 1205 2759 
Q 947 2416 947 1791 
Q 947 1169 1205 825 
Q 1463 481 1925 481 
Q 2391 481 2648 825 
Q 2906 1169 2906 1791 
z
M 3481 434 
Q 3481 -459 3084 -895 
Q 2688 -1331 1869 -1331 
Q 1566 -1331 1297 -1286 
Q 1028 -1241 775 -1147 
L 775 -588 
Q 1028 -725 1275 -790 
Q 1522 -856 1778 -856 
Q 2344 -856 2625 -561 
Q 2906 -266 2906 331 
L 2906 616 
Q 2728 306 2450 153 
Q 2172 0 1784 0 
Q 1141 0 747 490 
Q 353 981 353 1791 
Q 353 2603 747 3093 
Q 1141 3584 1784 3584 
Q 2172 3584 2450 3431 
Q 2728 3278 2906 2969 
L 2906 3500 
L 3481 3500 
L 3481 434 
z
" id="DejaVuSans-67" transform="scale(0.015625)"/>
       <path d="M 794 531 
L 1825 531 
L 1825 4091 
L 703 3866 
L 703 4441 
L 1819 4666 
L 2450 4666 
L 2450 531 
L 3481 531 
L 3481 0 
L 794 0 
L 794 531 
z
" id="DejaVuSans-31" transform="scale(0.015625)"/>
       <path d="M 1984 4856 
Q 1566 4138 1362 3434 
Q 1159 2731 1159 2009 
Q 1159 1288 1364 580 
Q 1569 -128 1984 -844 
L 1484 -844 
Q 1016 -109 783 600 
Q 550 1309 550 2009 
Q 550 2706 781 3412 
Q 1013 4119 1484 4856 
L 1984 4856 
z
" id="DejaVuSans-28" transform="scale(0.015625)"/>
       <path d="M 3272 2816 
L 2363 2816 
L 2100 1772 
L 3016 1772 
L 3272 2816 
z
M 2803 4594 
L 2478 3297 
L 3391 3297 
L 3719 4594 
L 4219 4594 
L 3897 3297 
L 4872 3297 
L 4872 2816 
L 3775 2816 
L 3519 1772 
L 4513 1772 
L 4513 1294 
L 3397 1294 
L 3072 0 
L 2572 0 
L 2894 1294 
L 1978 1294 
L 1656 0 
L 1153 0 
L 1478 1294 
L 494 1294 
L 494 1772 
L 1594 1772 
L 1856 2816 
L 850 2816 
L 850 3297 
L 1978 3297 
L 2297 4594 
L 2803 4594 
z
" id="DejaVuSans-23" transform="scale(0.015625)"/>
       <path id="DejaVuSans-20" transform="scale(0.015625)"/>
       <path d="M 2375 4863 
L 2375 4384 
L 1825 4384 
Q 1516 4384 1395 4259 
Q 1275 4134 1275 3809 
L 1275 3500 
L 2222 3500 
L 2222 3053 
L 1275 3053 
L 1275 0 
L 697 0 
L 697 3053 
L 147 3053 
L 147 3500 
L 697 3500 
L 697 3744 
Q 697 4328 969 4595 
Q 1241 4863 1831 4863 
L 2375 4863 
z
" id="DejaVuSans-66" transform="scale(0.015625)"/>
       <path d="M 313 2009 
L 1997 2009 
L 1997 1497 
L 313 1497 
L 313 2009 
z
" id="DejaVuSans-2d" transform="scale(0.015625)"/>
       <path d="M 3597 1894 
L 3597 1613 
L 953 1613 
Q 991 1019 1311 708 
Q 1631 397 2203 397 
Q 2534 397 2845 478 
Q 3156 559 3463 722 
L 3463 178 
Q 3153 47 2828 -22 
Q 2503 -91 2169 -91 
Q 1331 -91 842 396 
Q 353 884 353 1716 
Q 353 2575 817 3079 
Q 1281 3584 2069 3584 
Q 2775 3584 3186 3129 
Q 3597 2675 3597 1894 
z
M 3022 2063 
Q 3016 2534 2758 2815 
Q 2500 3097 2075 3097 
Q 1594 3097 1305 2825 
Q 1016 2553 972 2059 
L 3022 2063 
z
" id="DejaVuSans-65" transform="scale(0.015625)"/>
       <path d="M 191 3500 
L 800 3500 
L 1894 563 
L 2988 3500 
L 3597 3500 
L 2284 0 
L 1503 0 
L 191 3500 
z
" id="DejaVuSans-76" transform="scale(0.015625)"/>
       <path d="M 2194 1759 
Q 1497 1759 1228 1600 
Q 959 1441 959 1056 
Q 959 750 1161 570 
Q 1363 391 1709 391 
Q 2188 391 2477 730 
Q 2766 1069 2766 1631 
L 2766 1759 
L 2194 1759 
z
M 3341 1997 
L 3341 0 
L 2766 0 
L 2766 531 
Q 2569 213 2275 61 
Q 1981 -91 1556 -91 
Q 1019 -91 701 211 
Q 384 513 384 1019 
Q 384 1609 779 1909 
Q 1175 2209 1959 2209 
L 2766 2209 
L 2766 2266 
Q 2766 2663 2505 2880 
Q 2244 3097 1772 3097 
Q 1472 3097 1187 3025 
Q 903 2953 641 2809 
L 641 3341 
Q 956 3463 1253 3523 
Q 1550 3584 1831 3584 
Q 2591 3584 2966 3190 
Q 3341 2797 3341 1997 
z
" id="DejaVuSans-61" transform="scale(0.015625)"/>
       <path d="M 2834 3397 
L 2834 2853 
Q 2591 2978 2328 3040 
Q 2066 3103 1784 3103 
Q 1356 3103 1142 2972 
Q 928 2841 928 2578 
Q 928 2378 1081 2264 
Q 1234 2150 1697 2047 
L 1894 2003 
Q 2506 1872 2764 1633 
Q 3022 1394 3022 966 
Q 3022 478 2636 193 
Q 2250 -91 1575 -91 
Q 1294 -91 989 -36 
Q 684 19 347 128 
L 347 722 
Q 666 556 975 473 
Q 1284 391 1588 391 
Q 1994 391 2212 530 
Q 2431 669 2431 922 
Q 2431 1156 2273 1281 
Q 2116 1406 1581 1522 
L 1381 1569 
Q 847 1681 609 1914 
Q 372 2147 372 2553 
Q 372 3047 722 3315 
Q 1072 3584 1716 3584 
Q 2034 3584 2315 3537 
Q 2597 3491 2834 3397 
z
" id="DejaVuSans-73" transform="scale(0.015625)"/>
       <path d="M 1625 4666 
L 2156 4666 
L 531 -594 
L 0 -594 
L 1625 4666 
z
" id="DejaVuSans-2f" transform="scale(0.015625)"/>
       <path d="M 2906 2969 
L 2906 4863 
L 3481 4863 
L 3481 0 
L 2906 0 
L 2906 525 
Q 2725 213 2448 61 
Q 2172 -91 1784 -91 
Q 1150 -91 751 415 
Q 353 922 353 1747 
Q 353 2572 751 3078 
Q 1150 3584 1784 3584 
Q 2172 3584 2448 3432 
Q 2725 3281 2906 2969 
z
M 947 1747 
Q 947 1113 1208 752 
Q 1469 391 1925 391 
Q 2381 391 2643 752 
Q 2906 1113 2906 1747 
Q 2906 2381 2643 2742 
Q 2381 3103 1925 3103 
Q 1469 3103 1208 2742 
Q 947 2381 947 1747 
z
" id="DejaVuSans-64" transform="scale(0.015625)"/>
       <path d="M 603 3500 
L 1178 3500 
L 1178 0 
L 603 0 
L 603 3500 
z
M 603 4863 
L 1178 4863 
L 1178 4134 
L 603 4134 
L 603 4863 
z
" id="DejaVuSans-69" transform="scale(0.015625)"/>
       <path d="M 3328 2828 
Q 3544 3216 3844 3400 
Q 4144 3584 4550 3584 
Q 5097 3584 5394 3201 
Q 5691 2819 5691 2113 
L 5691 0 
L 5113 0 
L 5113 2094 
Q 5113 2597 4934 2840 
Q 4756 3084 4391 3084 
Q 3944 3084 3684 2787 
Q 3425 2491 3425 1978 
L 3425 0 
L 2847 0 
L 2847 2094 
Q 2847 2600 2669 2842 
Q 2491 3084 2119 3084 
Q 1678 3084 1418 2786 
Q 1159 2488 1159 1978 
L 1159 0 
L 581 0 
L 581 3500 
L 1159 3500 
L 1159 2956 
Q 1356 3278 1631 3431 
Q 1906 3584 2284 3584 
Q 2666 3584 2933 3390 
Q 3200 3197 3328 2828 
z
" id="DejaVuSans-6d" transform="scale(0.015625)"/>
       <path d="M 3513 2113 
L 3513 0 
L 2938 0 
L 2938 2094 
Q 2938 2591 2744 2837 
Q 2550 3084 2163 3084 
Q 1697 3084 1428 2787 
Q 1159 2491 1159 1978 
L 1159 0 
L 581 0 
L 581 3500 
L 1159 3500 
L 1159 2956 
Q 1366 3272 1645 3428 
Q 1925 3584 2291 3584 
Q 2894 3584 3203 3211 
Q 3513 2838 3513 2113 
z
" id="DejaVuSans-6e" transform="scale(0.015625)"/>
       <path d="M 513 4856 
L 1013 4856 
Q 1481 4119 1714 3412 
Q 1947 2706 1947 2009 
Q 1947 1309 1714 600 
Q 1481 -109 1013 -844 
L 513 -844 
Q 928 -128 1133 580 
Q 1338 1288 1338 2009 
Q 1338 2731 1133 3434 
Q 928 4138 513 4856 
z
" id="DejaVuSans-29" transform="scale(0.015625)"/>
      </defs>
      <use xlink:href="#DejaVuSans-6c"/>
      <use x="27.783203" xlink:href="#DejaVuSans-6f"/>
      <use x="88.964844" xlink:href="#DejaVuSans-67"/>
      <use x="152.441406" xlink:href="#DejaVuSans-31"/>
      <use x="216.064453" xlink:href="#DejaVuSans-30"/>
      <use x="279.6875" xlink:href="#DejaVuSans-28"/>
      <use x="318.701172" xlink:href="#DejaVuSans-23"/>
      <use x="402.490234" xlink:href="#DejaVuSans-20"/>
      <use x="434.277344" xlink:href="#DejaVuSans-66"/>
      <use x="463.982422" xlink:href="#DejaVuSans-2d"/>
      <use x="500.066406" xlink:href="#DejaVuSans-65"/>
      <use x="561.589844" xlink:href="#DejaVuSans-76"/>
      <use x="620.769531" xlink:href="#DejaVuSans-61"/>
      <use x="682.048828" xlink:href="#DejaVuSans-6c"/>
      <use x="709.832031" xlink:href="#DejaVuSans-73"/>
      <use x="761.931641" xlink:href="#DejaVuSans-20"/>
      <use x="793.71875" xlink:href="#DejaVuSans-2f"/>
      <use x="827.410156" xlink:href="#DejaVuSans-20"/>
      <use x="859.197266" xlink:href="#DejaVuSans-64"/>
      <use x="922.673828" xlink:href="#DejaVuSans-69"/>
      <use x="950.457031" xlink:href="#DejaVuSans-6d"/>
      <use x="1047.869141" xlink:href="#DejaVuSans-65"/>
      <use x="1109.392578" xlink:href="#DejaVuSans-6e"/>
      <use x="1172.771484" xlink:href="#DejaVuSans-73"/>
      <use x="1224.871094" xlink:href="#DejaVuSans-69"/>
      <use x="1252.654297" xlink:href="#DejaVuSans-6f"/>
      <use x="1313.835938" xlink:href="#DejaVuSans-6e"/>
      <use x="1377.214844" xlink:href="#DejaVuSans-29"/>
     </g>
    </g>
   </g>
   <g id="matplotlib.axis_2">
    <g id="ytick_1">
     <g id="line2d_17">
      <path clip-path="url(#p5c59ab26c9)" d="M 57.6 298.944 
L 338.688 298.944 
" style="fill:none;stroke:#b0b0b0;stroke-linecap:square;stroke-width:0.8;"/>
     </g>
     <g id="line2d_18">
      <defs>
       <path d="M 0 0 
L -3.5 0 
" id="m447bc98eb1" style="stroke:#000000;stroke-width:0.8;"/>
      </defs>
      <g>
       <use style="stroke:#000000;stroke-width:0.8;" x="57.6" xlink:href="#m447bc98eb1" y="298.944"/>
      </g>
     </g>
     <g id="text_6">
      <!-- 0.0 -->
      <g transform="translate(25.155 305.02275)scale(0.16 -0.16)">
       <defs>
        <path d="M 684 794 
L 1344 794 
L 1344 0 
L 684 0 
L 684 794 
z
" id="DejaVuSans-2e" transform="scale(0.015625)"/>
       </defs>
       <use xlink:href="#DejaVuSans-30"/>
       <use x="63.623047" xlink:href="#DejaVuSans-2e"/>
       <use x="95.410156" xlink:href="#DejaVuSans-30"/>
      </g>
     </g>
    </g>
    <g id="ytick_2">
     <g id="line2d_19">
      <path clip-path="url(#p5c59ab26c9)" d="M 57.6 245.22202 
L 338.688 245.22202 
" style="fill:none;stroke:#b0b0b0;stroke-linecap:square;stroke-width:0.8;"/>
     </g>
     <g id="line2d_20">
      <g>
       <use style="stroke:#000000;stroke-width:0.8;" x="57.6" xlink:href="#m447bc98eb1" y="245.22202"/>
      </g>
     </g>
     <g id="text_7">
      <!-- 0.2 -->
      <g transform="translate(25.155 251.30077)scale(0.16 -0.16)">
       <use xlink:href="#DejaVuSans-30"/>
       <use x="63.623047" xlink:href="#DejaVuSans-2e"/>
       <use x="95.410156" xlink:href="#DejaVuSans-32"/>
      </g>
     </g>
    </g>
    <g id="ytick_3">
     <g id="line2d_21">
      <path clip-path="url(#p5c59ab26c9)" d="M 57.6 191.50004 
L 338.688 191.50004 
" style="fill:none;stroke:#b0b0b0;stroke-linecap:square;stroke-width:0.8;"/>
     </g>
     <g id="line2d_22">
      <g>
       <use style="stroke:#000000;stroke-width:0.8;" x="57.6" xlink:href="#m447bc98eb1" y="191.50004"/>
      </g>
     </g>
     <g id="text_8">
      <!-- 0.4 -->
      <g transform="translate(25.155 197.57879)scale(0.16 -0.16)">
       <use xlink:href="#DejaVuSans-30"/>
       <use x="63.623047" xlink:href="#DejaVuSans-2e"/>
       <use x="95.410156" xlink:href="#DejaVuSans-34"/>
      </g>
     </g>
    </g>
    <g id="ytick_4">
     <g id="line2d_23">
      <path clip-path="url(#p5c59ab26c9)" d="M 57.6 137.778059 
L 338.688 137.778059 
" style="fill:none;stroke:#b0b0b0;stroke-linecap:square;stroke-width:0.8;"/>
     </g>
     <g id="line2d_24">
      <g>
       <use style="stroke:#000000;stroke-width:0.8;" x="57.6" xlink:href="#m447bc98eb1" y="137.778059"/>
      </g>
     </g>
     <g id="text_9">
      <!-- 0.6 -->
      <g transform="translate(25.155 143.856809)scale(0.16 -0.16)">
       <use xlink:href="#DejaVuSans-30"/>
       <use x="63.623047" xlink:href="#DejaVuSans-2e"/>
       <use x="95.410156" xlink:href="#DejaVuSans-36"/>
      </g>
     </g>
    </g>
    <g id="ytick_5">
     <g id="line2d_25">
      <path clip-path="url(#p5c59ab26c9)" d="M 57.6 84.056079 
L 338.688 84.056079 
" style="fill:none;stroke:#b0b0b0;stroke-linecap:square;stroke-width:0.8;"/>
     </g>
     <g id="line2d_26">
      <g>
       <use style="stroke:#000000;stroke-width:0.8;" x="57.6" xlink:href="#m447bc98eb1" y="84.056079"/>
      </g>
     </g>
     <g id="text_10">
      <!-- 0.8 -->
      <g transform="translate(25.155 90.134829)scale(0.16 -0.16)">
       <defs>
        <path d="M 2034 2216 
Q 1584 2216 1326 1975 
Q 1069 1734 1069 1313 
Q 1069 891 1326 650 
Q 1584 409 2034 409 
Q 2484 409 2743 651 
Q 3003 894 3003 1313 
Q 3003 1734 2745 1975 
Q 2488 2216 2034 2216 
z
M 1403 2484 
Q 997 2584 770 2862 
Q 544 3141 544 3541 
Q 544 4100 942 4425 
Q 1341 4750 2034 4750 
Q 2731 4750 3128 4425 
Q 3525 4100 3525 3541 
Q 3525 3141 3298 2862 
Q 3072 2584 2669 2484 
Q 3125 2378 3379 2068 
Q 3634 1759 3634 1313 
Q 3634 634 3220 271 
Q 2806 -91 2034 -91 
Q 1263 -91 848 271 
Q 434 634 434 1313 
Q 434 1759 690 2068 
Q 947 2378 1403 2484 
z
M 1172 3481 
Q 1172 3119 1398 2916 
Q 1625 2713 2034 2713 
Q 2441 2713 2670 2916 
Q 2900 3119 2900 3481 
Q 2900 3844 2670 4047 
Q 2441 4250 2034 4250 
Q 1625 4250 1398 4047 
Q 1172 3844 1172 3481 
z
" id="DejaVuSans-38" transform="scale(0.015625)"/>
       </defs>
       <use xlink:href="#DejaVuSans-30"/>
       <use x="63.623047" xlink:href="#DejaVuSans-2e"/>
       <use x="95.410156" xlink:href="#DejaVuSans-38"/>
      </g>
     </g>
    </g>
    <g id="ytick_6">
     <g id="line2d_27">
      <path clip-path="url(#p5c59ab26c9)" d="M 57.6 30.334099 
L 338.688 30.334099 
" style="fill:none;stroke:#b0b0b0;stroke-linecap:square;stroke-width:0.8;"/>
     </g>
     <g id="line2d_28">
      <g>
       <use style="stroke:#000000;stroke-width:0.8;" x="57.6" xlink:href="#m447bc98eb1" y="30.334099"/>
      </g>
     </g>
     <g id="text_11">
      <!-- 1.0 -->
      <g transform="translate(25.155 36.412849)scale(0.16 -0.16)">
       <use xlink:href="#DejaVuSans-31"/>
       <use x="63.623047" xlink:href="#DejaVuSans-2e"/>
       <use x="95.410156" xlink:href="#DejaVuSans-30"/>
      </g>
     </g>
    </g>
    <g id="text_12">
     <!-- Fraction of function,target pairs -->
     <g transform="translate(17.619531 297.681)rotate(-90)scale(0.17 -0.17)">
      <defs>
       <path d="M 628 4666 
L 3309 4666 
L 3309 4134 
L 1259 4134 
L 1259 2759 
L 3109 2759 
L 3109 2228 
L 1259 2228 
L 1259 0 
L 628 0 
L 628 4666 
z
" id="DejaVuSans-46" transform="scale(0.015625)"/>
       <path d="M 2631 2963 
Q 2534 3019 2420 3045 
Q 2306 3072 2169 3072 
Q 1681 3072 1420 2755 
Q 1159 2438 1159 1844 
L 1159 0 
L 581 0 
L 581 3500 
L 1159 3500 
L 1159 2956 
Q 1341 3275 1631 3429 
Q 1922 3584 2338 3584 
Q 2397 3584 2469 3576 
Q 2541 3569 2628 3553 
L 2631 2963 
z
" id="DejaVuSans-72" transform="scale(0.015625)"/>
       <path d="M 3122 3366 
L 3122 2828 
Q 2878 2963 2633 3030 
Q 2388 3097 2138 3097 
Q 1578 3097 1268 2742 
Q 959 2388 959 1747 
Q 959 1106 1268 751 
Q 1578 397 2138 397 
Q 2388 397 2633 464 
Q 2878 531 3122 666 
L 3122 134 
Q 2881 22 2623 -34 
Q 2366 -91 2075 -91 
Q 1284 -91 818 406 
Q 353 903 353 1747 
Q 353 2603 823 3093 
Q 1294 3584 2113 3584 
Q 2378 3584 2631 3529 
Q 2884 3475 3122 3366 
z
" id="DejaVuSans-63" transform="scale(0.015625)"/>
       <path d="M 1172 4494 
L 1172 3500 
L 2356 3500 
L 2356 3053 
L 1172 3053 
L 1172 1153 
Q 1172 725 1289 603 
Q 1406 481 1766 481 
L 2356 481 
L 2356 0 
L 1766 0 
Q 1100 0 847 248 
Q 594 497 594 1153 
L 594 3053 
L 172 3053 
L 172 3500 
L 594 3500 
L 594 4494 
L 1172 4494 
z
" id="DejaVuSans-74" transform="scale(0.015625)"/>
       <path d="M 544 1381 
L 544 3500 
L 1119 3500 
L 1119 1403 
Q 1119 906 1312 657 
Q 1506 409 1894 409 
Q 2359 409 2629 706 
Q 2900 1003 2900 1516 
L 2900 3500 
L 3475 3500 
L 3475 0 
L 2900 0 
L 2900 538 
Q 2691 219 2414 64 
Q 2138 -91 1772 -91 
Q 1169 -91 856 284 
Q 544 659 544 1381 
z
M 1991 3584 
L 1991 3584 
z
" id="DejaVuSans-75" transform="scale(0.015625)"/>
       <path d="M 750 794 
L 1409 794 
L 1409 256 
L 897 -744 
L 494 -744 
L 750 256 
L 750 794 
z
" id="DejaVuSans-2c" transform="scale(0.015625)"/>
       <path d="M 1159 525 
L 1159 -1331 
L 581 -1331 
L 581 3500 
L 1159 3500 
L 1159 2969 
Q 1341 3281 1617 3432 
Q 1894 3584 2278 3584 
Q 2916 3584 3314 3078 
Q 3713 2572 3713 1747 
Q 3713 922 3314 415 
Q 2916 -91 2278 -91 
Q 1894 -91 1617 61 
Q 1341 213 1159 525 
z
M 3116 1747 
Q 3116 2381 2855 2742 
Q 2594 3103 2138 3103 
Q 1681 3103 1420 2742 
Q 1159 2381 1159 1747 
Q 1159 1113 1420 752 
Q 1681 391 2138 391 
Q 2594 391 2855 752 
Q 3116 1113 3116 1747 
z
" id="DejaVuSans-70" transform="scale(0.015625)"/>
      </defs>
      <use xlink:href="#DejaVuSans-46"/>
      <use x="50.269531" xlink:href="#DejaVuSans-72"/>
      <use x="91.382812" xlink:href="#DejaVuSans-61"/>
      <use x="152.662109" xlink:href="#DejaVuSans-63"/>
      <use x="207.642578" xlink:href="#DejaVuSans-74"/>
      <use x="246.851562" xlink:href="#DejaVuSans-69"/>
      <use x="274.634766" xlink:href="#DejaVuSans-6f"/>
      <use x="335.816406" xlink:href="#DejaVuSans-6e"/>
      <use x="399.195312" xlink:href="#DejaVuSans-20"/>
      <use x="430.982422" xlink:href="#DejaVuSans-6f"/>
      <use x="492.164062" xlink:href="#DejaVuSans-66"/>
      <use x="527.369141" xlink:href="#DejaVuSans-20"/>
      <use x="559.15625" xlink:href="#DejaVuSans-66"/>
      <use x="594.361328" xlink:href="#DejaVuSans-75"/>
      <use x="657.740234" xlink:href="#DejaVuSans-6e"/>
      <use x="721.119141" xlink:href="#DejaVuSans-63"/>
      <use x="776.099609" xlink:href="#DejaVuSans-74"/>
      <use x="815.308594" xlink:href="#DejaVuSans-69"/>
      <use x="843.091797" xlink:href="#DejaVuSans-6f"/>
      <use x="904.273438" xlink:href="#DejaVuSans-6e"/>
      <use x="967.652344" xlink:href="#DejaVuSans-2c"/>
      <use x="999.439453" xlink:href="#DejaVuSans-74"/>
      <use x="1038.648438" xlink:href="#DejaVuSans-61"/>
      <use x="1099.927734" xlink:href="#DejaVuSans-72"/>
      <use x="1139.291016" xlink:href="#DejaVuSans-67"/>
      <use x="1202.767578" xlink:href="#DejaVuSans-65"/>
      <use x="1264.291016" xlink:href="#DejaVuSans-74"/>
      <use x="1303.5" xlink:href="#DejaVuSans-20"/>
      <use x="1335.287109" xlink:href="#DejaVuSans-70"/>
      <use x="1398.763672" xlink:href="#DejaVuSans-61"/>
      <use x="1460.042969" xlink:href="#DejaVuSans-69"/>
      <use x="1487.826172" xlink:href="#DejaVuSans-72"/>
      <use x="1528.939453" xlink:href="#DejaVuSans-73"/>
     </g>
    </g>
   </g>
   <g id="line2d_29">
    <defs>
     <path d="M 0 1.5 
C 0.397805 1.5 0.77937 1.341951 1.06066 1.06066 
C 1.341951 0.77937 1.5 0.397805 1.5 0 
C 1.5 -0.397805 1.341951 -0.77937 1.06066 -1.06066 
C 0.77937 -1.341951 0.397805 -1.5 0 -1.5 
C -0.397805 -1.5 -0.77937 -1.341951 -1.06066 -1.06066 
C -1.341951 -0.77937 -1.5 -0.397805 -1.5 0 
C -1.5 0.397805 -1.341951 0.77937 -1.06066 1.06066 
C -0.77937 1.341951 -0.397805 1.5 0 1.5 
z
" id="mf90beeb760" style="stroke:#00bfbf;"/>
    </defs>
    <g>
     <use style="fill:#00bfbf;stroke:#00bfbf;" x="177.908622" xlink:href="#mf90beeb760" y="30.334099"/>
     <use style="fill:#00bfbf;stroke:#00bfbf;" x="177.908622" xlink:href="#mf90beeb760" y="30.334099"/>
    </g>
   </g>
   <g id="line2d_30">
    <path d="M 45.512012 298.944 
L 45.512012 264.709405 
L 57.6 264.709405 
L 57.6 250.488881 
L 64.67102 250.488881 
L 64.67102 248.382136 
L 69.687988 248.382136 
L 69.687988 246.802078 
L 73.579452 246.802078 
L 73.579452 245.748706 
L 76.759008 245.748706 
L 76.759008 244.695334 
L 79.447285 244.695334 
L 79.447285 243.641962 
L 81.775977 243.641962 
L 81.775977 243.115275 
L 83.830028 243.115275 
L 83.830028 239.955159 
L 87.329581 239.955159 
L 87.329581 239.428473 
L 88.846997 239.428473 
L 88.846997 238.901787 
L 90.242884 238.901787 
L 90.242884 237.321729 
L 93.863965 237.321729 
L 93.863965 236.795043 
L 95.918017 236.795043 
L 95.918017 236.268356 
L 96.86091 236.268356 
L 96.86091 235.74167 
L 100.192776 235.74167 
L 100.192776 235.214984 
L 100.934985 235.214984 
L 100.934985 234.688298 
L 102.989037 234.688298 
L 102.989037 233.634926 
L 105.951954 233.634926 
L 105.951954 233.10824 
L 108.483824 233.10824 
L 108.483824 232.054868 
L 111.104637 232.054868 
L 111.104637 231.528182 
L 113.382559 231.528182 
L 113.382559 230.47481 
L 117.202696 230.47481 
L 117.202696 229.421437 
L 117.765302 229.421437 
L 117.765302 228.368065 
L 118.039942 228.368065 
L 118.039942 227.841379 
L 118.838828 227.841379 
L 118.838828 227.314693 
L 119.602714 227.314693 
L 119.602714 226.788007 
L 119.850084 226.788007 
L 119.850084 225.734635 
L 120.33454 225.734635 
L 120.33454 225.207949 
L 121.931406 225.207949 
L 121.931406 224.681263 
L 124.368753 224.681263 
L 124.368753 224.154577 
L 124.557288 224.154577 
L 124.557288 223.627891 
L 129.574256 223.627891 
L 129.574256 223.101204 
L 129.853291 223.101204 
L 129.853291 219.941088 
L 130.398313 219.941088 
L 130.398313 218.887716 
L 130.531948 218.887716 
L 130.531948 218.36103 
L 130.926816 218.36103 
L 130.926816 217.834344 
L 131.056477 217.834344 
L 131.056477 217.307658 
L 131.565689 217.307658 
L 131.565689 215.727599 
L 131.814826 215.727599 
L 131.814826 215.200913 
L 133.239232 215.200913 
L 133.239232 213.620855 
L 135.780341 213.620855 
L 135.780341 213.094169 
L 136.551264 213.094169 
L 136.551264 211.514111 
L 139.172077 211.514111 
L 139.172077 210.460738 
L 139.493548 210.460738 
L 139.493548 209.934052 
L 140.723258 209.934052 
L 140.723258 208.88068 
L 140.944478 208.88068 
L 140.944478 207.827308 
L 141.45 207.827308 
L 141.45 206.24725 
L 143.014805 206.24725 
L 143.014805 205.720564 
L 143.208936 205.720564 
L 143.208936 205.193878 
L 143.778691 205.193878 
L 143.778691 204.140506 
L 144.390658 204.140506 
L 144.390658 203.613819 
L 145.384119 203.613819 
L 145.384119 202.033761 
L 145.553708 202.033761 
L 145.553708 200.453703 
L 146.484754 200.453703 
L 146.484754 199.927017 
L 146.854132 199.927017 
L 146.906268 196.7669 
L 147.317833 196.7669 
L 147.317833 195.713528 
L 147.769524 195.713528 
L 147.769524 195.186842 
L 148.54473 195.186842 
L 148.54473 194.13347 
L 149.332295 194.13347 
L 149.332295 193.080098 
L 150.129152 193.080098 
L 150.172372 190.446667 
L 150.598782 190.446667 
L 150.640855 186.759865 
L 150.766468 186.759865 
L 150.849711 181.493004 
L 151.015013 181.493004 
L 151.015013 180.439632 
L 151.461678 180.439632 
L 151.461678 179.912946 
L 152.0141 179.912946 
L 152.0141 178.332888 
L 152.207228 178.332888 
L 152.207228 177.279515 
L 152.398241 177.279515 
L 152.398241 176.752829 
L 152.848312 176.752829 
L 152.848312 175.699457 
L 153.715038 175.699457 
L 153.715038 174.119399 
L 153.959927 174.119399 
L 154.029268 171.485969 
L 154.098334 171.485969 
L 154.098334 170.432596 
L 154.337936 170.432596 
L 154.337936 169.90591 
L 154.57429 169.90591 
L 154.607795 166.219108 
L 154.873541 166.219108 
L 154.873541 165.692422 
L 155.61575 165.692422 
L 155.61575 165.165736 
L 155.83551 165.165736 
L 155.83551 164.112363 
L 156.357959 164.112363 
L 156.357959 162.532305 
L 156.687861 162.532305 
L 156.687861 161.478933 
L 157.156845 161.478933 
L 157.156845 159.898875 
L 157.300853 159.898875 
L 157.300853 158.845503 
L 157.415209 158.845503 
L 157.443681 156.212072 
L 157.557108 156.212072 
L 157.641697 155.1587 
L 157.669802 155.1587 
L 157.669802 153.051956 
L 158.031107 153.051956 
L 158.058592 150.945211 
L 159.683242 150.945211 
L 159.783038 147.785095 
L 159.980933 147.785095 
L 160.030058 145.678351 
L 160.632719 145.678351 
L 160.632719 145.151665 
L 160.750792 145.151665 
L 160.750792 144.098292 
L 160.938061 144.098292 
L 160.938061 143.571606 
L 161.374928 143.571606 
L 161.442917 140.938176 
L 161.801118 140.938176 
L 161.801118 139.358118 
L 162.217141 139.358118 
L 162.324991 134.617943 
L 162.367945 134.617943 
L 162.389382 133.037885 
L 162.68677 133.037885 
L 162.68677 132.511199 
L 162.896128 132.511199 
L 162.896128 129.351082 
L 163.123555 129.351082 
L 163.225959 126.190966 
L 163.428979 126.190966 
L 163.428979 125.66428 
L 163.985177 125.66428 
L 164.043731 123.557535 
L 164.19892 123.557535 
L 164.218222 119.344047 
L 164.448194 119.344047 
L 164.448194 117.237302 
L 164.562052 117.237302 
L 164.562052 116.18393 
L 164.731458 116.18393 
L 164.731458 113.023814 
L 165.338904 113.023814 
L 165.338904 112.497128 
L 165.785402 112.497128 
L 165.785402 111.970441 
L 165.995728 111.970441 
L 166.030537 109.863697 
L 166.134549 109.863697 
L 166.134549 108.810325 
L 166.306535 108.810325 
L 166.34073 107.230267 
L 166.493781 107.230267 
L 166.493781 106.703581 
L 166.679039 106.703581 
L 166.679039 106.176895 
L 166.812546 106.176895 
L 166.91201 105.123522 
L 167.125588 105.123522 
L 167.125588 104.07015 
L 167.608702 104.07015 
L 167.703739 100.383348 
L 167.735303 100.383348 
L 167.829655 97.749917 
L 167.892273 97.749917 
L 167.892273 96.169859 
L 168.109685 96.169859 
L 168.171308 94.589801 
L 168.263336 94.589801 
L 168.324419 93.009743 
L 168.551595 93.009743 
L 168.656606 91.429684 
L 168.805533 91.429684 
L 168.820356 89.849626 
L 169.143315 89.849626 
L 169.201398 86.68951 
L 169.360135 86.68951 
L 169.460402 81.422649 
L 169.51744 81.422649 
L 169.588476 79.315904 
L 169.855803 79.315904 
L 169.897641 77.735846 
L 170.063995 77.735846 
L 170.119095 75.629102 
L 170.201421 75.629102 
L 170.201421 73.522358 
L 170.473066 73.522358 
L 170.58055 70.888927 
L 170.687376 70.888927 
L 170.687376 70.362241 
L 170.925369 70.362241 
L 171.003983 67.202125 
L 171.069226 67.202125 
L 171.160157 65.09538 
L 171.18605 65.09538 
L 171.276376 62.988636 
L 171.340609 62.988636 
L 171.391826 61.408578 
L 171.49381 61.408578 
L 171.49381 60.881892 
L 171.796233 60.881892 
L 171.895887 59.82852 
L 172.00732 59.82852 
L 172.081215 58.248461 
L 172.228073 58.248461 
L 172.288901 56.141717 
L 172.373705 56.141717 
L 172.397859 55.088345 
L 172.542086 55.088345 
L 172.542086 54.561659 
L 172.909242 54.561659 
L 172.909242 54.034973 
L 173.130511 54.034973 
L 173.188276 50.34817 
L 173.280304 50.34817 
L 173.337576 48.241426 
L 173.406055 48.241426 
L 173.451559 46.134681 
L 173.519593 46.134681 
L 173.519593 45.607995 
L 173.654869 45.607995 
L 173.722116 44.027937 
L 173.822502 44.027937 
L 173.844732 42.974565 
L 174.021557 42.974565 
L 174.098358 40.867821 
L 174.196608 40.867821 
L 174.294307 38.23439 
L 174.412979 38.23439 
L 174.412979 37.707704 
L 174.795808 37.707704 
L 174.879752 36.127646 
L 174.973708 36.127646 
L 175.056802 34.547588 
L 175.385274 34.547588 
L 175.385274 34.020902 
L 175.916053 34.020902 
L 175.916053 33.494215 
L 176.082938 33.494215 
L 176.092705 31.387471 
L 176.819447 31.387471 
L 176.819447 30.860785 
L 177.908622 30.860785 
L 177.908622 30.334099 
L 338.688 30.334099 
L 338.688 30.334099 
" style="fill:none;stroke:#00bfbf;stroke-linecap:square;stroke-width:1.5;"/>
   </g>
   <g id="line2d_31">
    <defs>
     <path d="M -6 0 
L 6 0 
M 0 6 
L 0 -6 
" id="m360ecd7451" style="stroke:#00bfbf;stroke-width:1.5;"/>
    </defs>
    <g>
     <use style="fill-opacity:0;stroke:#00bfbf;stroke-width:1.5;" x="131.814826" xlink:href="#m360ecd7451" y="215.727599"/>
     <use style="fill-opacity:0;stroke:#00bfbf;stroke-width:1.5;" x="167.125588" xlink:href="#m360ecd7451" y="104.07015"/>
     <use style="fill-opacity:0;stroke:#00bfbf;stroke-width:1.5;" x="177.908622" xlink:href="#m360ecd7451" y="30.860785"/>
     <use style="fill-opacity:0;stroke:#00bfbf;stroke-width:1.5;" x="177.908622" xlink:href="#m360ecd7451" y="30.334099"/>
     <use style="fill-opacity:0;stroke:#00bfbf;stroke-width:1.5;" x="177.908622" xlink:href="#m360ecd7451" y="30.334099"/>
     <use style="fill-opacity:0;stroke:#00bfbf;stroke-width:1.5;" x="338.688" xlink:href="#m360ecd7451" y="30.334099"/>
    </g>
   </g>
   <g id="line2d_32">
    <path style="fill:none;stroke:#00bfbf;stroke-linecap:square;stroke-width:1.5;"/>
    <g/>
   </g>
   <g id="line2d_33">
    <defs>
     <path d="M 0 1.5 
C 0.397805 1.5 0.77937 1.341951 1.06066 1.06066 
C 1.341951 0.77937 1.5 0.397805 1.5 0 
C 1.5 -0.397805 1.341951 -0.77937 1.06066 -1.06066 
C 0.77937 -1.341951 0.397805 -1.5 0 -1.5 
C -0.397805 -1.5 -0.77937 -1.341951 -1.06066 -1.06066 
C -1.341951 -0.77937 -1.5 -0.397805 -1.5 0 
C -1.5 0.397805 -1.341951 0.77937 -1.06066 1.06066 
C -0.77937 1.341951 -0.397805 1.5 0 1.5 
z
" id="mf686b4dfa1" style="stroke:#008000;"/>
    </defs>
    <g>
     <use style="fill:#008000;stroke:#008000;" x="175.375102" xlink:href="#mf686b4dfa1" y="30.334099"/>
     <use style="fill:#008000;stroke:#008000;" x="175.375102" xlink:href="#mf686b4dfa1" y="30.334099"/>
    </g>
   </g>
   <g id="line2d_34">
    <path d="M 38.440992 298.944 
L 38.440992 276.823185 
L 50.52898 276.823185 
L 50.52898 271.556324 
L 57.6 271.556324 
L 57.6 265.762777 
L 62.616969 265.762777 
L 62.616969 259.96923 
L 66.508432 259.96923 
L 66.508432 258.389172 
L 69.687988 258.389172 
L 69.687988 257.3358 
L 72.376266 257.3358 
L 72.376266 255.229055 
L 74.704957 255.229055 
L 74.704957 254.702369 
L 78.59642 254.702369 
L 78.59642 254.175683 
L 80.258561 254.175683 
L 80.258561 253.648997 
L 84.464254 253.648997 
L 84.464254 253.122311 
L 86.792945 253.122311 
L 86.792945 251.015567 
L 87.850195 251.015567 
L 87.850195 250.488881 
L 88.846997 250.488881 
L 88.846997 249.962195 
L 89.78989 249.962195 
L 89.78989 249.435508 
L 97.16421 249.435508 
L 97.16421 248.382136 
L 97.755429 248.382136 
L 97.755429 247.85545 
L 101.877879 247.85545 
L 101.877879 247.328764 
L 104.033617 247.328764 
L 104.033617 246.275392 
L 106.311539 246.275392 
L 106.311539 245.748706 
L 111.239304 245.748706 
L 111.239304 245.22202 
L 116.522527 245.22202 
L 116.522527 244.695334 
L 118.925375 244.695334 
L 118.925375 244.168648 
L 119.097192 244.168648 
L 119.097192 243.641962 
L 121.036887 243.641962 
L 121.036887 242.588589 
L 122.362027 242.588589 
L 122.362027 241.008531 
L 123.327293 241.008531 
L 123.327293 240.481845 
L 124.114161 240.481845 
L 124.114161 239.428473 
L 125.351508 239.428473 
L 125.351508 237.848415 
L 125.588781 237.848415 
L 125.588781 237.321729 
L 126.50685 237.321729 
L 126.50685 236.795043 
L 128.310692 236.795043 
L 128.411207 235.214984 
L 128.511146 235.214984 
L 128.511146 234.688298 
L 131.013364 234.688298 
L 131.013364 233.634926 
L 131.185181 233.634926 
L 131.270459 232.054868 
L 131.355321 232.054868 
L 131.355321 231.001496 
L 131.523818 231.001496 
L 131.523818 229.421437 
L 131.690703 229.421437 
L 131.77355 228.368065 
L 133.57787 228.368065 
L 133.57787 227.841379 
L 134.019394 227.841379 
L 134.019394 227.314693 
L 134.661403 227.314693 
L 134.661403 226.261321 
L 135.212889 226.261321 
L 135.212889 223.627891 
L 135.415281 223.627891 
L 135.415281 222.574518 
L 136.456742 222.574518 
L 136.456742 221.521146 
L 137.077422 221.521146 
L 137.138292 219.941088 
L 138.084384 219.941088 
L 138.084384 218.36103 
L 138.538853 218.36103 
L 138.538853 216.780971 
L 138.816998 216.780971 
L 138.927025 215.200913 
L 139.199094 215.200913 
L 139.199094 214.147541 
L 139.939053 214.147541 
L 139.939053 212.567483 
L 140.195896 212.567483 
L 140.195896 212.040797 
L 143.058132 212.040797 
L 143.058132 210.460738 
L 143.653678 210.460738 
L 143.653678 209.934052 
L 143.778691 209.934052 
L 143.861538 208.88068 
L 143.943994 208.88068 
L 143.943994 208.353994 
L 144.189046 208.353994 
L 144.189046 207.300622 
L 144.430703 207.300622 
L 144.430703 205.193878 
L 144.550287 205.193878 
L 144.550287 204.140506 
L 145.553708 204.140506 
L 145.553708 203.613819 
L 146.216039 203.613819 
L 146.216039 202.560447 
L 146.854132 202.560447 
L 146.854132 201.507075 
L 147.096109 201.507075 
L 147.198794 199.927017 
L 147.334773 199.927017 
L 147.334773 199.400331 
L 147.570215 199.400331 
L 147.570215 198.873645 
L 147.86833 198.873645 
L 147.86833 198.346959 
L 148.064279 198.346959 
L 148.064279 197.293586 
L 149.226281 197.293586 
L 149.226281 196.7669 
L 149.467659 196.7669 
L 149.467659 196.240214 
L 149.587107 196.240214 
L 149.587107 194.660156 
L 149.794191 194.660156 
L 149.794191 194.13347 
L 150.085825 194.13347 
L 150.143571 192.553412 
L 150.258492 192.553412 
L 150.31567 190.973354 
L 150.542526 190.973354 
L 150.570677 189.919981 
L 150.849711 189.919981 
L 150.960087 188.866609 
L 151.069768 188.866609 
L 151.069768 187.813237 
L 151.421542 187.813237 
L 151.421542 186.759865 
L 151.581536 186.759865 
L 151.581536 185.706493 
L 152.078714 185.706493 
L 152.130233 183.599748 
L 152.562109 183.599748 
L 152.562109 183.073062 
L 152.835965 183.073062 
L 152.909913 179.912946 
L 153.154164 179.912946 
L 153.154164 179.38626 
L 153.275019 179.38626 
L 153.275019 178.859574 
L 153.585377 178.859574 
L 153.656221 176.752829 
L 153.773658 176.752829 
L 153.843742 175.172771 
L 154.663493 175.172771 
L 154.752243 174.119399 
L 154.928399 174.119399 
L 154.928399 173.592713 
L 155.12447 173.592713 
L 155.232454 169.90591 
L 155.253971 169.90591 
L 155.361158 167.799166 
L 155.403849 167.799166 
L 155.488919 166.745794 
L 155.657823 166.745794 
L 155.657823 165.692422 
L 155.825108 165.692422 
L 155.825108 164.63905 
L 156.277034 164.63905 
L 156.277034 164.112363 
L 156.418408 164.112363 
L 156.418408 163.585677 
L 157.1279 163.585677 
L 157.20498 162.005619 
L 157.243392 162.005619 
L 157.262567 160.425561 
L 157.377174 160.425561 
L 157.472107 158.318817 
L 157.622935 158.318817 
L 157.716543 157.265444 
L 157.79107 157.265444 
L 157.79107 156.212072 
L 158.104304 156.212072 
L 158.177196 155.1587 
L 158.267884 155.1587 
L 158.340096 151.998584 
L 158.537152 151.998584 
L 158.643706 150.418525 
L 158.732007 150.418525 
L 158.732007 148.311781 
L 158.942121 148.311781 
L 159.046236 143.571606 
L 159.218393 143.571606 
L 159.218393 141.991548 
L 159.337899 141.991548 
L 159.354904 140.41149 
L 159.473482 140.41149 
L 159.473482 139.884804 
L 159.89051 139.884804 
L 159.972732 138.831432 
L 160.005512 138.831432 
L 160.005512 138.304745 
L 160.152267 138.304745 
L 160.152267 137.251373 
L 160.378126 137.251373 
L 160.442124 135.671315 
L 160.601097 135.671315 
L 160.648508 134.617943 
L 160.976823 134.617943 
L 160.992304 133.037885 
L 161.161694 133.037885 
L 161.161694 132.511199 
L 161.359783 132.511199 
L 161.359783 131.457826 
L 161.585586 131.457826 
L 161.585586 129.351082 
L 161.88218 129.351082 
L 161.88218 128.824396 
L 162.144868 128.824396 
L 162.144868 128.29771 
L 162.260361 128.29771 
L 162.260361 127.244338 
L 162.417924 127.244338 
L 162.489076 125.66428 
L 162.545789 125.66428 
L 162.630514 124.610907 
L 162.672723 124.610907 
L 162.71483 123.557535 
L 162.826621 123.557535 
L 162.896128 121.450791 
L 163.020547 121.450791 
L 163.048075 119.870733 
L 163.549667 119.870733 
L 163.549667 118.817361 
L 163.669525 118.817361 
L 163.762182 117.237302 
L 164.050224 117.237302 
L 164.153799 113.023814 
L 164.295217 113.023814 
L 164.295217 112.497128 
L 164.410075 112.497128 
L 164.486229 111.443755 
L 164.574657 111.443755 
L 164.637547 110.390383 
L 164.787563 110.390383 
L 164.886862 108.810325 
L 164.9363 108.810325 
L 164.973287 106.703581 
L 165.266391 106.703581 
L 165.314766 104.596836 
L 165.423123 104.596836 
L 165.518877 103.543464 
L 165.578458 103.543464 
L 165.578458 101.43672 
L 165.814766 101.43672 
L 165.849938 100.383348 
L 165.98992 100.383348 
L 166.094173 95.116487 
L 166.140309 95.116487 
L 166.140309 93.009743 
L 166.346422 93.009743 
L 166.380539 90.376312 
L 166.527611 90.376312 
L 166.527611 89.849626 
L 166.740356 89.849626 
L 166.784816 85.636137 
L 167.169078 85.636137 
L 167.266534 81.949335 
L 167.298899 81.949335 
L 167.40635 80.369277 
L 167.566296 80.369277 
L 167.576907 77.20916 
L 167.850553 77.20916 
L 167.860992 75.629102 
L 168.109685 75.629102 
L 168.161052 74.57573 
L 168.232714 74.57573 
L 168.334579 70.362241 
L 168.375159 70.362241 
L 168.375159 69.308869 
L 168.506396 69.308869 
L 168.506396 68.782183 
L 168.666574 68.782183 
L 168.77585 67.202125 
L 168.86475 67.202125 
L 168.972794 65.09538 
L 169.215888 65.09538 
L 169.312185 61.408578 
L 169.407953 61.408578 
L 169.407953 60.881892 
L 169.66393 60.881892 
L 169.75779 58.775147 
L 169.813865 58.775147 
L 169.813865 58.248461 
L 170.07319 58.248461 
L 170.137423 55.615031 
L 170.219663 55.615031 
L 170.28336 53.508287 
L 170.464079 53.508287 
L 170.491026 51.401542 
L 170.678499 51.401542 
L 170.749391 49.294798 
L 170.811185 49.294798 
L 170.811185 47.71474 
L 170.969087 47.71474 
L 171.003983 46.661368 
L 171.082245 46.661368 
L 171.177424 42.974565 
L 171.229121 42.974565 
L 171.229121 41.921193 
L 171.3833 41.921193 
L 171.485334 40.867821 
L 171.536129 40.867821 
L 171.536129 40.341135 
L 171.704381 40.341135 
L 171.812882 38.761076 
L 172.06072 38.761076 
L 172.06072 38.23439 
L 172.183331 38.23439 
L 172.183331 37.707704 
L 172.337411 37.707704 
L 172.353551 35.074274 
L 172.506141 35.074274 
L 172.506141 34.547588 
L 172.673253 34.547588 
L 172.736497 31.914157 
L 173.249682 31.914157 
L 173.249682 31.387471 
L 174.218366 31.387471 
L 174.218366 30.860785 
L 175.375102 30.860785 
L 175.375102 30.334099 
L 338.688 30.334099 
L 338.688 30.334099 
" style="fill:none;stroke:#008000;stroke-linecap:square;stroke-width:1.5;"/>
   </g>
   <g id="line2d_35">
    <defs>
     <path d="M -0 6 
L 6 -6 
L -6 -6 
z
" id="mb2963506d9" style="stroke:#008000;stroke-linejoin:miter;stroke-width:1.5;"/>
    </defs>
    <g>
     <use style="fill-opacity:0;stroke:#008000;stroke-linejoin:miter;stroke-width:1.5;" x="106.311539" xlink:href="#mb2963506d9" y="245.748706"/>
     <use style="fill-opacity:0;stroke:#008000;stroke-linejoin:miter;stroke-width:1.5;" x="166.380539" xlink:href="#mb2963506d9" y="91.429684"/>
     <use style="fill-opacity:0;stroke:#008000;stroke-linejoin:miter;stroke-width:1.5;" x="175.375102" xlink:href="#mb2963506d9" y="30.860785"/>
     <use style="fill-opacity:0;stroke:#008000;stroke-linejoin:miter;stroke-width:1.5;" x="175.375102" xlink:href="#mb2963506d9" y="30.334099"/>
     <use style="fill-opacity:0;stroke:#008000;stroke-linejoin:miter;stroke-width:1.5;" x="175.375102" xlink:href="#mb2963506d9" y="30.334099"/>
     <use style="fill-opacity:0;stroke:#008000;stroke-linejoin:miter;stroke-width:1.5;" x="338.688" xlink:href="#mb2963506d9" y="30.334099"/>
    </g>
   </g>
   <g id="line2d_36">
    <path style="fill:none;stroke:#008000;stroke-linecap:square;stroke-width:1.5;"/>
    <g/>
   </g>
   <g id="line2d_37">
    <defs>
     <path d="M 0 1.5 
C 0.397805 1.5 0.77937 1.341951 1.06066 1.06066 
C 1.341951 0.77937 1.5 0.397805 1.5 0 
C 1.5 -0.397805 1.341951 -0.77937 1.06066 -1.06066 
C 0.77937 -1.341951 0.397805 -1.5 0 -1.5 
C -0.397805 -1.5 -0.77937 -1.341951 -1.06066 -1.06066 
C -1.341951 -0.77937 -1.5 -0.397805 -1.5 0 
C -1.5 0.397805 -1.341951 0.77937 -1.06066 1.06066 
C -0.77937 1.341951 -0.397805 1.5 0 1.5 
z
" id="md073049173" style="stroke:#0000ff;"/>
    </defs>
    <g>
     <use style="fill:#0000ff;stroke:#0000ff;" x="175.801256" xlink:href="#md073049173" y="30.334099"/>
     <use style="fill:#0000ff;stroke:#0000ff;" x="175.801256" xlink:href="#md073049173" y="30.334099"/>
    </g>
   </g>
   <g id="line2d_38">
    <path d="M 29.53256 298.944 
L 29.53256 285.250162 
L 41.620548 285.250162 
L 41.620548 278.929929 
L 48.691568 278.929929 
L 48.691568 275.769812 
L 53.708537 275.769812 
L 53.708537 273.663068 
L 57.6 273.663068 
L 57.6 272.609696 
L 63.467834 272.609696 
L 63.467834 272.08301 
L 65.796525 272.08301 
L 65.796525 271.556324 
L 67.850577 271.556324 
L 67.850577 269.449579 
L 69.687988 269.449579 
L 69.687988 268.396207 
L 72.867545 268.396207 
L 72.867545 266.289463 
L 74.263433 266.289463 
L 74.263433 265.762777 
L 79.938565 265.762777 
L 79.938565 265.236091 
L 81.775977 265.236091 
L 81.775977 263.656033 
L 83.438118 263.656033 
L 83.438118 263.129347 
L 89.972502 263.129347 
L 89.972502 262.60266 
L 91.535274 262.60266 
L 91.535274 260.495916 
L 92.026554 260.495916 
L 92.026554 259.96923 
L 92.504372 259.96923 
L 92.504372 259.442544 
L 93.863965 259.442544 
L 93.863965 258.915858 
L 96.676366 258.915858 
L 96.676366 258.389172 
L 97.043522 258.389172 
L 97.043522 257.862486 
L 99.41757 257.862486 
L 99.41757 257.3358 
L 100.641881 257.3358 
L 100.641881 256.809114 
L 100.934985 256.809114 
L 100.934985 256.282427 
L 104.826449 256.282427 
L 104.826449 255.755741 
L 106.802819 255.755741 
L 106.802819 255.229055 
L 110.188761 255.229055 
L 110.188761 253.122311 
L 111.346294 253.122311 
L 111.346294 252.595625 
L 111.819788 252.595625 
L 111.819788 252.068939 
L 113.022974 252.068939 
L 113.022974 251.542253 
L 116.443076 251.542253 
L 116.443076 251.015567 
L 118.994305 251.015567 
L 118.994305 250.488881 
L 119.996839 250.488881 
L 119.996839 249.962195 
L 122.531342 249.962195 
L 122.531342 249.435508 
L 123.273551 249.435508 
L 123.354102 247.328764 
L 123.434283 247.328764 
L 123.434283 246.802078 
L 123.593547 246.802078 
L 123.593547 246.275392 
L 123.907776 246.275392 
L 123.907776 245.22202 
L 125.822869 245.22202 
L 125.822869 244.168648 
L 125.961828 244.168648 
L 125.961828 243.641962 
L 127.421479 243.641962 
L 127.421479 243.115275 
L 128.229861 243.115275 
L 128.229861 242.061903 
L 128.768338 242.061903 
L 128.827155 241.008531 
L 129.79784 241.008531 
L 129.79784 239.955159 
L 130.822389 239.955159 
L 130.822389 239.428473 
L 132.517825 239.428473 
L 132.612604 237.848415 
L 133.216421 237.848415 
L 133.216421 237.321729 
L 134.450015 237.321729 
L 134.450015 236.795043 
L 134.787017 236.795043 
L 134.787017 236.268356 
L 136.266147 236.268356 
L 136.266147 235.74167 
L 137.980475 235.74167 
L 137.980475 235.214984 
L 138.187677 235.214984 
L 138.187677 234.688298 
L 138.392446 234.688298 
L 138.392446 234.161612 
L 138.959898 234.161612 
L 138.959898 233.634926 
L 139.730821 233.634926 
L 139.730821 232.581554 
L 141.492656 232.581554 
L 141.492656 232.054868 
L 141.605898 232.054868 
L 141.605898 231.528182 
L 142.161336 231.528182 
L 142.270332 229.421437 
L 142.324576 229.421437 
L 142.432559 228.368065 
L 142.646541 228.368065 
L 142.673105 226.788007 
L 143.451774 226.788007 
L 143.451774 226.261321 
L 143.728793 226.261321 
L 143.728793 225.734635 
L 143.927534 225.734635 
L 143.952218 224.154577 
L 144.050606 224.154577 
L 144.075117 223.101204 
L 144.438701 223.101204 
L 144.486611 222.047832 
L 144.55823 222.047832 
L 144.55823 221.521146 
L 144.700592 221.521146 
L 144.700592 220.99446 
L 145.005114 220.99446 
L 145.005114 220.467774 
L 145.777292 220.467774 
L 145.777292 219.941088 
L 145.998045 219.941088 
L 145.998045 218.887716 
L 146.172658 218.887716 
L 146.259313 217.307658 
L 146.895853 217.307658 
L 146.895853 216.254285 
L 147.205618 216.254285 
L 147.205618 215.200913 
L 148.200145 215.200913 
L 148.219468 213.620855 
L 148.373289 213.620855 
L 148.468742 212.567483 
L 148.639252 212.567483 
L 148.639252 211.514111 
L 148.956849 211.514111 
L 148.956849 210.460738 
L 149.085961 210.460738 
L 149.085961 209.934052 
L 149.610898 209.934052 
L 149.610898 209.407366 
L 150.120495 209.407366 
L 150.224095 207.827308 
L 150.49739 207.827308 
L 150.49739 207.300622 
L 150.632448 207.300622 
L 150.632448 206.773936 
L 150.816462 206.773936 
L 150.833094 205.193878 
L 151.21133 205.193878 
L 151.21133 204.140506 
L 151.597455 204.140506 
L 151.597455 203.613819 
L 151.755852 203.613819 
L 151.818809 201.507075 
L 151.959639 201.507075 
L 151.959639 200.980389 
L 152.253262 200.980389 
L 152.283884 199.927017 
L 152.647216 199.927017 
L 152.647216 199.400331 
L 152.796398 199.400331 
L 152.796398 198.873645 
L 152.988446 198.873645 
L 152.988446 196.240214 
L 153.105587 196.240214 
L 153.105587 195.713528 
L 153.323128 195.713528 
L 153.323128 195.186842 
L 153.693887 195.186842 
L 153.693887 193.606784 
L 153.946025 193.606784 
L 153.946025 192.553412 
L 154.399019 192.553412 
L 154.480132 191.50004 
L 154.93278 191.50004 
L 155.011454 189.919981 
L 155.258271 189.919981 
L 155.258271 188.339923 
L 155.716556 188.339923 
L 155.766741 186.759865 
L 155.904009 186.759865 
L 155.916435 185.706493 
L 156.077167 185.706493 
L 156.175347 181.493004 
L 156.418408 181.493004 
L 156.418408 179.912946 
L 156.550661 179.912946 
L 156.598505 178.859574 
L 156.705677 178.859574 
L 156.705677 178.332888 
L 156.835778 178.332888 
L 156.847557 176.752829 
L 157.104709 176.752829 
L 157.208825 175.172771 
L 157.369557 175.172771 
L 157.369557 174.119399 
L 157.528821 174.119399 
L 157.56276 172.539341 
L 157.84305 172.539341 
L 157.84305 172.012655 
L 158.140788 172.012655 
L 158.140788 170.959282 
L 158.260646 170.959282 
L 158.358103 168.852538 
L 158.551397 168.852538 
L 158.657864 167.799166 
L 158.732007 167.799166 
L 158.732007 166.745794 
L 159.015067 166.745794 
L 159.015067 166.219108 
L 159.180664 166.219108 
L 159.273126 164.63905 
L 159.293606 164.63905 
L 159.354904 163.585677 
L 159.557689 163.585677 
L 159.557689 162.532305 
L 159.837683 162.532305 
L 159.837683 162.005619 
L 159.956318 162.005619 
L 159.956318 160.952247 
L 160.259108 160.952247 
L 160.268789 159.898875 
L 160.394148 159.898875 
L 160.432539 158.318817 
L 160.537682 158.318817 
L 160.537682 157.265444 
L 160.793103 157.265444 
L 160.793103 156.738758 
L 161.201492 156.738758 
L 161.201492 156.212072 
L 161.347658 156.212072 
L 161.347658 155.685386 
L 161.510643 155.685386 
L 161.510643 155.1587 
L 161.716709 155.1587 
L 161.716709 154.632014 
L 161.858637 154.632014 
L 161.92917 153.578642 
L 161.973109 153.578642 
L 161.973109 153.051956 
L 162.130378 153.051956 
L 162.165135 150.945211 
L 162.457805 150.945211 
L 162.534461 147.258409 
L 162.593851 147.258409 
L 162.627697 146.205037 
L 162.887802 146.205037 
L 162.887802 145.151665 
L 163.094774 145.151665 
L 163.144084 143.571606 
L 163.323704 143.571606 
L 163.323704 142.518234 
L 163.701348 142.518234 
L 163.77274 140.41149 
L 163.828065 140.41149 
L 163.89894 138.304745 
L 163.977355 138.304745 
L 164.078769 134.617943 
L 164.287532 134.617943 
L 164.287532 134.091257 
L 164.599841 134.091257 
L 164.599841 131.984513 
L 164.780093 131.984513 
L 164.839766 129.351082 
L 165.14974 129.351082 
L 165.230021 127.244338 
L 165.288176 127.244338 
L 165.375047 125.137593 
L 165.403908 125.137593 
L 165.511714 123.557535 
L 165.561796 123.557535 
L 165.561796 123.030849 
L 165.697012 123.030849 
L 165.718267 121.450791 
L 166.034014 121.450791 
L 166.068747 120.397419 
L 166.179429 120.397419 
L 166.179429 119.870733 
L 166.378267 119.870733 
L 166.391896 118.817361 
L 166.635428 118.817361 
L 166.695783 114.603872 
L 166.775933 114.603872 
L 166.855717 113.023814 
L 167.020769 113.023814 
L 167.020769 112.497128 
L 167.164734 112.497128 
L 167.164734 111.970441 
L 167.352708 111.970441 
L 167.436318 108.810325 
L 167.481174 108.810325 
L 167.51953 106.703581 
L 167.860992 106.703581 
L 167.929737 105.650209 
L 168.01684 105.650209 
L 168.054037 104.596836 
L 168.152844 104.596836 
L 168.165155 103.543464 
L 168.27557 103.543464 
L 168.33661 101.963406 
L 168.415645 101.963406 
L 168.415645 101.43672 
L 168.584667 101.43672 
L 168.692465 98.276603 
L 168.710367 98.276603 
L 168.710367 97.749917 
L 168.882476 97.749917 
L 168.882476 97.223231 
L 169.023638 97.223231 
L 169.041203 96.169859 
L 169.210094 96.169859 
L 169.227472 94.063115 
L 169.325624 94.063115 
L 169.394577 91.95637 
L 169.457545 91.95637 
L 169.457545 91.429684 
L 169.599814 91.429684 
L 169.639443 90.376312 
L 169.746554 90.376312 
L 169.791457 88.796254 
L 169.897641 88.796254 
L 170.008719 86.162824 
L 170.014255 86.162824 
L 170.058475 84.582765 
L 170.130094 84.582765 
L 170.184987 83.529393 
L 170.429886 83.529393 
L 170.510761 81.949335 
L 170.591263 81.949335 
L 170.698023 79.315904 
L 170.708663 79.315904 
L 170.740545 78.262532 
L 170.856948 78.262532 
L 170.909603 74.049044 
L 171.014438 74.049044 
L 171.103055 71.415613 
L 171.345738 71.415613 
L 171.453088 68.782183 
L 171.559782 68.782183 
L 171.67086 67.728811 
L 171.680924 67.728811 
L 171.680924 67.202125 
L 171.856094 67.202125 
L 171.955406 64.568694 
L 171.994974 64.568694 
L 171.994974 61.935264 
L 172.122951 61.935264 
L 172.147455 59.82852 
L 172.288901 59.82852 
L 172.347097 58.775147 
L 172.405099 58.775147 
L 172.472525 55.088345 
L 172.577957 55.088345 
L 172.60183 53.508287 
L 172.758578 53.508287 
L 172.866999 51.928228 
L 172.913929 51.928228 
L 172.965407 49.821484 
L 173.053967 49.821484 
L 173.08184 47.71474 
L 173.225146 47.71474 
L 173.335289 46.134681 
L 173.471997 46.134681 
L 173.580597 45.081309 
L 173.585107 45.081309 
L 173.666095 42.447879 
L 173.706448 42.447879 
L 173.760107 40.867821 
L 173.858056 40.867821 
L 173.858056 40.341135 
L 173.986335 40.341135 
L 173.986335 39.814448 
L 174.144277 39.814448 
L 174.222715 37.707704 
L 174.261802 37.707704 
L 174.348349 35.60096 
L 174.511615 35.60096 
L 174.579904 34.020902 
L 174.630946 34.020902 
L 174.664891 32.967529 
L 174.7916 32.967529 
L 174.7916 32.440843 
L 175.050583 32.440843 
L 175.050583 31.914157 
L 175.537141 31.914157 
L 175.537141 31.387471 
L 175.757513 31.387471 
L 175.801256 30.334099 
L 338.688 30.334099 
L 338.688 30.334099 
" style="fill:none;stroke:#0000ff;stroke-linecap:square;stroke-width:1.5;"/>
   </g>
   <g id="line2d_39">
    <defs>
     <path d="M 0 -6 
L -1.347084 -1.854102 
L -5.706339 -1.854102 
L -2.179628 0.708204 
L -3.526712 4.854102 
L -0 2.291796 
L 3.526712 4.854102 
L 2.179628 0.708204 
L 5.706339 -1.854102 
L 1.347084 -1.854102 
z
" id="m329a623fdc" style="stroke:#0000ff;stroke-linejoin:bevel;stroke-width:1.5;"/>
    </defs>
    <g>
     <use style="fill-opacity:0;stroke:#0000ff;stroke-linejoin:bevel;stroke-width:1.5;" x="100.641881" xlink:href="#m329a623fdc" y="257.3358"/>
     <use style="fill-opacity:0;stroke:#0000ff;stroke-linejoin:bevel;stroke-width:1.5;" x="155.258271" xlink:href="#m329a623fdc" y="189.919981"/>
     <use style="fill-opacity:0;stroke:#0000ff;stroke-linejoin:bevel;stroke-width:1.5;" x="174.274811" xlink:href="#m329a623fdc" y="36.654332"/>
     <use style="fill-opacity:0;stroke:#0000ff;stroke-linejoin:bevel;stroke-width:1.5;" x="175.801256" xlink:href="#m329a623fdc" y="30.334099"/>
     <use style="fill-opacity:0;stroke:#0000ff;stroke-linejoin:bevel;stroke-width:1.5;" x="175.801256" xlink:href="#m329a623fdc" y="30.334099"/>
     <use style="fill-opacity:0;stroke:#0000ff;stroke-linejoin:bevel;stroke-width:1.5;" x="338.688" xlink:href="#m329a623fdc" y="30.334099"/>
    </g>
   </g>
   <g id="line2d_40">
    <path style="fill:none;stroke:#0000ff;stroke-linecap:square;stroke-width:1.5;"/>
    <g/>
   </g>
   <g id="line2d_41">
    <defs>
     <path d="M 0 1.5 
C 0.397805 1.5 0.77937 1.341951 1.06066 1.06066 
C 1.341951 0.77937 1.5 0.397805 1.5 0 
C 1.5 -0.397805 1.341951 -0.77937 1.06066 -1.06066 
C 0.77937 -1.341951 0.397805 -1.5 0 -1.5 
C -0.397805 -1.5 -0.77937 -1.341951 -1.06066 -1.06066 
C -1.341951 -0.77937 -1.5 -0.397805 -1.5 0 
C -1.5 0.397805 -1.341951 0.77937 -1.06066 1.06066 
C -0.77937 1.341951 -0.397805 1.5 0 1.5 
z
" id="m24120288cf" style="stroke:#000000;"/>
    </defs>
    <g>
     <use style="stroke:#000000;" x="180.140478" xlink:href="#m24120288cf" y="30.334099"/>
     <use style="stroke:#000000;" x="180.140478" xlink:href="#m24120288cf" y="30.334099"/>
    </g>
   </g>
   <g id="line2d_42">
    <path d="M 17.444571 298.944 
L 17.444571 289.463651 
L 29.53256 289.463651 
L 29.53256 286.83022 
L 36.60358 286.83022 
L 36.60358 284.19679 
L 41.620548 284.19679 
L 41.620548 282.616732 
L 45.512012 282.616732 
L 45.512012 282.090045 
L 48.691568 282.090045 
L 48.691568 278.929929 
L 66.853775 278.929929 
L 66.853775 278.403243 
L 68.79347 278.403243 
L 68.79347 277.876557 
L 81.334453 277.876557 
L 81.334453 276.296499 
L 87.009585 276.296499 
L 87.009585 275.769812 
L 87.952479 275.769812 
L 87.952479 275.243126 
L 93.197415 275.243126 
L 93.197415 274.189754 
L 95.125186 274.189754 
L 95.125186 273.663068 
L 97.224242 273.663068 
L 97.224242 273.136382 
L 98.606294 273.136382 
L 98.606294 272.609696 
L 99.886816 272.609696 
L 99.886816 271.556324 
L 100.040467 271.556324 
L 100.040467 271.029638 
L 100.934985 271.029638 
L 100.934985 270.502952 
L 101.785851 270.502952 
L 101.785851 269.976266 
L 102.597126 269.976266 
L 102.597126 269.449579 
L 102.728744 269.449579 
L 102.728744 268.922893 
L 103.245502 268.922893 
L 103.245502 267.869521 
L 109.040444 267.869521 
L 109.040444 267.342835 
L 112.356423 267.342835 
L 112.356423 266.816149 
L 115.205729 266.816149 
L 115.205729 266.289463 
L 116.081002 266.289463 
L 116.081002 265.762777 
L 118.786692 265.762777 
L 118.786692 265.236091 
L 122.148045 265.236091 
L 122.148045 264.709405 
L 122.823744 264.709405 
L 122.823744 263.656033 
L 123.152022 263.656033 
L 123.152022 263.129347 
L 123.593547 263.129347 
L 123.593547 262.60266 
L 125.541584 262.60266 
L 125.541584 262.075974 
L 126.47328 262.075974 
L 126.47328 261.549288 
L 127.035353 261.549288 
L 127.035353 261.022602 
L 128.138476 261.022602 
L 128.138476 260.495916 
L 129.175952 260.495916 
L 129.233413 259.442544 
L 131.615802 259.442544 
L 131.615802 258.915858 
L 131.740458 258.915858 
L 131.814826 256.809114 
L 132.060454 256.809114 
L 132.060454 256.282427 
L 132.326708 256.282427 
L 132.326708 255.755741 
L 133.170708 255.755741 
L 133.19358 254.702369 
L 134.386096 254.702369 
L 134.386096 254.175683 
L 134.891008 254.175683 
L 134.891008 253.648997 
L 136.189322 253.648997 
L 136.189322 253.122311 
L 136.418789 253.122311 
L 136.418789 252.595625 
L 137.325651 252.595625 
L 137.325651 252.068939 
L 137.540732 252.068939 
L 137.540732 251.542253 
L 137.770782 251.542253 
L 137.770782 251.015567 
L 137.963097 251.015567 
L 138.067109 249.435508 
L 138.084384 249.435508 
L 138.084384 248.908822 
L 138.409402 248.908822 
L 138.443265 247.328764 
L 139.604677 247.328764 
L 139.604677 246.802078 
L 140.499195 246.802078 
L 140.499195 246.275392 
L 141.278324 246.275392 
L 141.278324 245.748706 
L 141.816266 245.748706 
L 141.830201 244.695334 
L 141.941279 244.695334 
L 141.941279 244.168648 
L 142.553247 244.168648 
L 142.553247 243.641962 
L 142.805321 243.641962 
L 142.805321 242.588589 
L 143.451774 242.588589 
L 143.489809 241.535217 
L 143.590833 241.535217 
L 143.590833 241.008531 
L 144.075117 241.008531 
L 144.172816 239.955159 
L 144.342484 239.955159 
L 144.378627 238.901787 
L 144.510517 238.901787 
L 144.546314 237.848415 
L 144.923649 237.848415 
L 144.923649 237.321729 
L 145.270136 237.321729 
L 145.270136 236.795043 
L 145.987073 236.795043 
L 146.052799 235.74167 
L 146.237689 235.74167 
L 146.237689 235.214984 
L 146.420639 235.214984 
L 146.420639 234.688298 
L 146.738883 234.688298 
L 146.791364 233.634926 
L 147.540122 233.634926 
L 147.570215 232.054868 
L 147.86833 232.054868 
L 147.86833 231.528182 
L 148.132344 231.528182 
L 148.219468 230.47481 
L 148.354135 230.47481 
L 148.354135 229.948123 
L 148.506778 229.948123 
L 148.506778 229.421437 
L 149.131841 229.421437 
L 149.131841 228.894751 
L 149.277854 228.894751 
L 149.314167 226.788007 
L 149.65542 226.788007 
L 149.65542 226.261321 
L 149.823575 226.261321 
L 149.823575 225.734635 
L 150.007563 225.734635 
L 150.111834 223.627891 
L 150.573489 223.627891 
L 150.573489 223.101204 
L 150.691209 223.101204 
L 150.691209 222.574518 
L 150.899466 222.574518 
L 150.899466 222.047832 
L 151.178764 222.047832 
L 151.186911 220.467774 
L 151.469695 220.467774 
L 151.469695 219.941088 
L 151.873711 219.941088 
L 151.873711 219.414402 
L 151.998557 219.414402 
L 152.09934 218.36103 
L 152.222586 218.36103 
L 152.222586 217.834344 
L 152.848312 217.834344 
L 152.892686 216.780971 
L 152.973748 216.780971 
L 153.039792 215.727599 
L 153.112882 215.727599 
L 153.120174 214.674227 
L 153.48095 214.674227 
L 153.48095 214.147541 
L 153.911223 214.147541 
L 153.911223 213.620855 
L 154.084543 213.620855 
L 154.19457 210.460738 
L 154.432862 210.460738 
L 154.432862 209.934052 
L 154.554156 209.934052 
L 154.554156 209.407366 
L 154.85375 209.407366 
L 154.952482 208.353994 
L 155.0376 208.353994 
L 155.109299 207.300622 
L 155.25182 207.300622 
L 155.25182 206.773936 
L 155.373976 206.773936 
L 155.373976 206.24725 
L 155.495282 206.24725 
L 155.495282 205.720564 
L 155.959855 205.720564 
L 156.027868 204.667192 
L 156.333721 204.667192 
L 156.333721 204.140506 
L 156.466616 204.140506 
L 156.466616 203.613819 
L 156.580579 203.613819 
L 156.622378 202.560447 
L 156.729404 202.560447 
L 156.747178 201.507075 
L 156.859328 201.507075 
L 156.859328 200.980389 
L 156.994131 200.980389 
L 156.994131 200.453703 
L 157.15106 200.453703 
L 157.15106 199.927017 
L 157.664184 199.927017 
L 157.664184 199.400331 
L 157.781772 199.400331 
L 157.781772 198.346959 
L 157.920731 198.346959 
L 158.025604 197.293586 
L 158.053098 197.293586 
L 158.053098 196.7669 
L 158.249784 196.7669 
L 158.320268 195.186842 
L 158.422772 195.186842 
L 158.444276 193.606784 
L 158.853132 193.606784 
L 158.952561 190.973354 
L 159.051426 190.973354 
L 159.051426 190.446667 
L 159.32939 190.446667 
L 159.360003 189.393295 
L 159.451521 189.393295 
L 159.451521 188.866609 
L 159.832723 188.866609 
L 159.872369 187.813237 
L 160.030058 187.813237 
L 160.113253 186.759865 
L 160.418152 186.759865 
L 160.475629 185.706493 
L 160.736665 185.706493 
L 160.830627 183.599748 
L 160.900768 183.599748 
L 160.938061 182.546376 
L 161.077205 182.546376 
L 161.141761 181.493004 
L 161.676583 181.493004 
L 161.676583 180.966318 
L 162.043181 180.966318 
L 162.043181 180.439632 
L 162.225793 180.439632 
L 162.230118 179.38626 
L 162.415072 179.38626 
L 162.513202 177.806202 
L 162.598085 177.806202 
L 162.62347 176.226143 
L 162.712026 176.226143 
L 162.712026 175.699457 
L 162.854457 175.699457 
L 162.854457 175.172771 
L 163.090659 175.172771 
L 163.090659 174.646085 
L 163.291183 174.646085 
L 163.295251 173.592713 
L 163.437051 173.592713 
L 163.437051 173.066027 
L 163.621681 173.066027 
L 163.66156 172.012655 
L 163.83201 172.012655 
L 163.942112 169.90591 
L 163.953867 169.90591 
L 164.020333 167.799166 
L 164.333587 167.799166 
L 164.402441 166.219108 
L 164.467222 166.219108 
L 164.573397 164.63905 
L 164.607388 164.63905 
L 164.607388 163.585677 
L 164.720216 163.585677 
L 164.77262 162.005619 
L 165.171671 162.005619 
L 165.273656 158.845503 
L 165.349755 158.845503 
L 165.457894 156.738758 
L 165.661531 156.738758 
L 165.746566 154.632014 
L 165.795979 154.632014 
L 165.897891 152.52527 
L 165.932896 152.52527 
L 165.999212 151.471897 
L 166.213873 151.471897 
L 166.244815 150.418525 
L 166.705822 150.418525 
L 166.792585 148.311781 
L 167.007622 148.311781 
L 167.086355 147.258409 
L 167.135383 147.258409 
L 167.135383 146.731723 
L 167.255733 146.731723 
L 167.349484 145.151665 
L 167.375258 145.151665 
L 167.465168 144.098292 
L 167.545055 144.098292 
L 167.545055 143.571606 
L 167.700579 143.571606 
L 167.700579 143.04492 
L 167.93909 143.04492 
L 167.976454 141.464862 
L 168.226583 141.464862 
L 168.327468 140.41149 
L 168.339657 140.41149 
L 168.339657 139.884804 
L 168.455028 139.884804 
L 168.455028 139.358118 
L 168.629664 139.358118 
L 168.740162 137.778059 
L 168.900184 137.778059 
L 168.935546 135.671315 
L 169.017779 135.671315 
L 169.055827 134.617943 
L 169.181091 134.617943 
L 169.291045 132.511199 
L 169.342888 132.511199 
L 169.342888 131.984513 
L 169.508896 131.984513 
L 169.557255 130.404454 
L 169.732498 130.404454 
L 169.830653 128.824396 
L 170.052954 128.824396 
L 170.09983 127.244338 
L 170.176764 127.244338 
L 170.280634 124.610907 
L 170.294256 124.610907 
L 170.294256 124.084221 
L 170.408256 124.084221 
L 170.408256 123.557535 
L 170.537636 123.557535 
L 170.634045 120.924105 
L 170.727268 120.924105 
L 170.777667 119.344047 
L 170.927995 119.344047 
L 171.011825 117.763988 
L 171.097855 117.763988 
L 171.097855 117.237302 
L 171.214489 117.237302 
L 171.214489 116.710616 
L 171.379036 116.710616 
L 171.486182 115.130558 
L 171.628028 115.130558 
L 171.706056 114.077186 
L 171.763723 114.077186 
L 171.796233 113.023814 
L 171.878488 113.023814 
L 171.935589 111.443755 
L 172.031987 111.443755 
L 172.137657 109.337011 
L 172.157246 109.337011 
L 172.257297 107.756953 
L 172.366452 107.756953 
L 172.472525 106.176895 
L 172.673253 106.176895 
L 172.673253 105.650209 
L 172.83878 105.650209 
L 172.939687 101.963406 
L 172.972415 101.963406 
L 173.08184 99.856662 
L 173.220541 99.856662 
L 173.310109 97.749917 
L 173.369567 97.749917 
L 173.431097 96.696545 
L 173.521856 96.696545 
L 173.623398 94.589801 
L 173.661605 94.589801 
L 173.735534 93.009743 
L 173.804698 93.009743 
L 173.864714 90.902998 
L 173.970903 90.902998 
L 173.986335 89.849626 
L 174.150827 89.849626 
L 174.255293 87.742882 
L 174.272644 87.742882 
L 174.369919 86.162824 
L 174.400072 86.162824 
L 174.481655 84.056079 
L 174.755793 84.056079 
L 174.84832 81.422649 
L 174.97579 81.422649 
L 175.04851 80.369277 
L 175.098201 80.369277 
L 175.098201 79.842591 
L 175.266916 79.842591 
L 175.356778 76.155788 
L 175.434015 76.155788 
L 175.502833 74.049044 
L 175.769454 74.049044 
L 175.878531 70.888927 
L 175.969237 70.888927 
L 175.99675 69.835555 
L 176.1473 69.835555 
L 176.250176 67.202125 
L 176.279182 67.202125 
L 176.388966 65.622066 
L 176.429239 65.622066 
L 176.484702 63.515322 
L 176.633009 63.515322 
L 176.672724 60.881892 
L 176.804455 60.881892 
L 176.804455 60.355206 
L 177.076048 60.355206 
L 177.147887 58.775147 
L 177.274266 58.775147 
L 177.376165 55.615031 
L 177.569225 55.615031 
L 177.594328 54.561659 
L 177.696161 54.561659 
L 177.779683 52.9816 
L 177.843388 52.9816 
L 177.933241 50.874856 
L 177.982376 50.874856 
L 178.085458 48.241426 
L 178.094166 48.241426 
L 178.198323 46.661368 
L 178.255345 46.661368 
L 178.308742 44.554623 
L 178.45432 44.554623 
L 178.5326 43.501251 
L 178.624047 43.501251 
L 178.704933 40.867821 
L 178.738525 40.867821 
L 178.788792 39.814448 
L 178.863922 39.814448 
L 178.961937 37.181018 
L 179.113685 37.181018 
L 179.218475 36.127646 
L 179.565963 36.127646 
L 179.650569 33.494215 
L 179.67762 33.494215 
L 179.737936 32.440843 
L 179.805938 32.440843 
L 179.821715 31.387471 
L 180.051996 31.387471 
L 180.140478 30.334099 
L 338.688 30.334099 
L 338.688 30.334099 
" style="fill:none;stroke:#000000;stroke-linecap:square;stroke-width:1.5;"/>
   </g>
   <g id="line2d_43">
    <defs>
     <path d="M 0 6 
C 1.591219 6 3.117479 5.367802 4.242641 4.242641 
C 5.367802 3.117479 6 1.591219 6 0 
C 6 -1.591219 5.367802 -3.117479 4.242641 -4.242641 
C 3.117479 -5.367802 1.591219 -6 0 -6 
C -1.591219 -6 -3.117479 -5.367802 -4.242641 -4.242641 
C -5.367802 -3.117479 -6 -1.591219 -6 0 
C -6 1.591219 -5.367802 3.117479 -4.242641 4.242641 
C -3.117479 5.367802 -1.591219 6 0 6 
z
" id="mc6139cafe4" style="stroke:#000000;stroke-width:1.5;"/>
    </defs>
    <g>
     <use style="fill-opacity:0;stroke:#000000;stroke-width:1.5;" x="125.541584" xlink:href="#mc6139cafe4" y="262.60266"/>
     <use style="fill-opacity:0;stroke:#000000;stroke-width:1.5;" x="169.732498" xlink:href="#mc6139cafe4" y="130.404454"/>
     <use style="fill-opacity:0;stroke:#000000;stroke-width:1.5;" x="180.140478" xlink:href="#mc6139cafe4" y="30.860785"/>
     <use style="fill-opacity:0;stroke:#000000;stroke-width:1.5;" x="180.140478" xlink:href="#mc6139cafe4" y="30.334099"/>
     <use style="fill-opacity:0;stroke:#000000;stroke-width:1.5;" x="180.140478" xlink:href="#mc6139cafe4" y="30.334099"/>
     <use style="fill-opacity:0;stroke:#000000;stroke-width:1.5;" x="338.688" xlink:href="#mc6139cafe4" y="30.334099"/>
    </g>
   </g>
   <g id="line2d_44">
    <path style="fill:none;stroke:#000000;stroke-linecap:square;stroke-width:1.5;"/>
    <g/>
   </g>
   <g id="line2d_45">
    <defs>
     <path d="M 0 1.5 
C 0.397805 1.5 0.77937 1.341951 1.06066 1.06066 
C 1.341951 0.77937 1.5 0.397805 1.5 0 
C 1.5 -0.397805 1.341951 -0.77937 1.06066 -1.06066 
C 0.77937 -1.341951 0.397805 -1.5 0 -1.5 
C -0.397805 -1.5 -0.77937 -1.341951 -1.06066 -1.06066 
C -1.341951 -0.77937 -1.5 -0.397805 -1.5 0 
C -1.5 0.397805 -1.341951 0.77937 -1.06066 1.06066 
C -0.77937 1.341951 -0.397805 1.5 0 1.5 
z
" id="m655f19059b" style="stroke:#ff0000;"/>
    </defs>
    <g>
     <use style="fill:#ff0000;stroke:#ff0000;" x="185.740611" xlink:href="#m655f19059b" y="30.334099"/>
     <use style="fill:#ff0000;stroke:#ff0000;" x="185.740611" xlink:href="#m655f19059b" y="30.334099"/>
    </g>
   </g>
   <g id="line2d_46">
    <path d="M 5.356583 298.944 
L 5.356583 293.150453 
L 17.444571 293.150453 
L 17.444571 291.570395 
L 24.515591 291.570395 
L 24.515591 291.043709 
L 29.53256 291.043709 
L 29.53256 289.990337 
L 36.60358 289.990337 
L 36.60358 289.463651 
L 39.291857 289.463651 
L 39.291857 288.410278 
L 41.620548 288.410278 
L 41.620548 287.883592 
L 43.6746 287.883592 
L 43.6746 287.356906 
L 45.512012 287.356906 
L 45.512012 286.83022 
L 48.691568 286.83022 
L 48.691568 286.303534 
L 52.583031 286.303534 
L 52.583031 285.776848 
L 53.708537 285.776848 
L 53.708537 285.250162 
L 57.6 285.250162 
L 57.6 284.19679 
L 60.037348 284.19679 
L 60.037348 283.670104 
L 64.079801 283.670104 
L 64.079801 283.143418 
L 64.67102 283.143418 
L 64.67102 282.616732 
L 69.687988 282.616732 
L 69.687988 282.090045 
L 75.555822 282.090045 
L 75.555822 281.563359 
L 75.86449 281.563359 
L 75.86449 281.036673 
L 80.179111 281.036673 
L 80.179111 280.509987 
L 87.643811 280.509987 
L 87.643811 279.983301 
L 87.798828 279.983301 
L 87.798828 279.456615 
L 90.901048 279.456615 
L 90.901048 278.929929 
L 95.226283 278.929929 
L 95.226283 278.403243 
L 95.526106 278.403243 
L 95.526106 277.876557 
L 97.224242 277.876557 
L 97.224242 277.349871 
L 97.755429 277.349871 
L 97.755429 276.823185 
L 98.523051 276.823185 
L 98.523051 276.296499 
L 99.097574 276.296499 
L 99.097574 275.769812 
L 101.294571 275.769812 
L 101.294571 275.243126 
L 104.942325 275.243126 
L 104.942325 274.71644 
L 110.358901 274.71644 
L 110.358901 274.189754 
L 112.013345 274.189754 
L 112.013345 273.663068 
L 113.095487 273.663068 
L 113.095487 273.136382 
L 115.012316 273.136382 
L 115.012316 272.609696 
L 115.554844 272.609696 
L 115.554844 272.08301 
L 118.039942 272.08301 
L 118.06717 271.029638 
L 119.923616 271.029638 
L 119.923616 270.502952 
L 121.059819 270.502952 
L 121.059819 269.976266 
L 122.083336 269.976266 
L 122.083336 269.449579 
L 122.926996 269.449579 
L 122.926996 268.922893 
L 123.652898 268.922893 
L 123.652898 268.396207 
L 124.594752 268.396207 
L 124.594752 267.869521 
L 125.594671 267.869521 
L 125.594671 267.342835 
L 126.116845 267.342835 
L 126.116845 266.289463 
L 128.396166 266.289463 
L 128.396166 265.762777 
L 129.447219 265.762777 
L 129.447219 265.236091 
L 130.491965 265.236091 
L 130.491965 264.709405 
L 130.624887 264.709405 
L 130.624887 264.182719 
L 131.839545 264.182719 
L 131.839545 263.656033 
L 132.350712 263.656033 
L 132.350712 262.60266 
L 132.998212 262.60266 
L 132.998212 262.075974 
L 133.398082 262.075974 
L 133.398082 261.549288 
L 134.008491 261.549288 
L 134.008491 261.022602 
L 134.354049 261.022602 
L 134.354049 260.495916 
L 134.776584 260.495916 
L 134.776584 259.96923 
L 134.911732 259.96923 
L 134.911732 259.442544 
L 135.117629 259.442544 
L 135.117629 258.915858 
L 135.401861 258.915858 
L 135.401861 258.389172 
L 135.98603 258.389172 
L 135.98603 257.862486 
L 136.304433 257.862486 
L 136.39027 256.809114 
L 136.673382 256.809114 
L 136.673382 256.282427 
L 137.289545 256.282427 
L 137.289545 255.755741 
L 138.00651 255.755741 
L 138.00651 255.229055 
L 138.187677 255.229055 
L 138.187677 254.702369 
L 138.711825 254.702369 
L 138.711825 254.175683 
L 139.541262 254.175683 
L 139.652088 253.122311 
L 139.77789 253.122311 
L 139.824833 252.068939 
L 140.057671 252.068939 
L 140.057671 251.542253 
L 140.226464 251.542253 
L 140.333034 250.488881 
L 140.551735 250.488881 
L 140.551735 249.962195 
L 140.678675 249.962195 
L 140.678675 249.435508 
L 141.292695 249.435508 
L 141.292695 248.382136 
L 141.513945 248.382136 
L 141.513945 247.85545 
L 141.788363 247.85545 
L 141.788363 247.328764 
L 141.913576 247.328764 
L 141.955115 246.275392 
L 142.659828 246.275392 
L 142.719495 245.22202 
L 143.890442 245.22202 
L 143.995331 243.641962 
L 144.330419 243.641962 
L 144.348513 242.588589 
L 144.456682 242.588589 
L 144.456682 242.061903 
L 144.794859 242.061903 
L 144.894462 239.955159 
L 144.917816 239.955159 
L 144.917816 239.428473 
L 145.76618 239.428473 
L 145.865929 238.375101 
L 146.118279 238.375101 
L 146.118279 237.848415 
L 146.270114 237.848415 
L 146.270114 237.321729 
L 146.916676 237.321729 
L 146.999721 236.268356 
L 147.185137 236.268356 
L 147.185137 235.74167 
L 147.307662 235.74167 
L 147.307662 235.214984 
L 147.61026 235.214984 
L 147.690073 234.161612 
L 147.838747 234.161612 
L 147.838747 233.634926 
L 147.971478 233.634926 
L 147.971478 233.10824 
L 148.17112 233.10824 
L 148.214639 232.054868 
L 148.411533 232.054868 
L 148.45922 231.001496 
L 148.577871 231.001496 
L 148.648676 229.948123 
L 149.58413 229.948123 
L 149.58413 229.421437 
L 149.72642 229.421437 
L 149.72642 228.894751 
L 149.85877 228.894751 
L 149.87195 227.841379 
L 150.007563 227.841379 
L 150.007563 227.314693 
L 150.305678 227.314693 
L 150.305678 226.261321 
L 150.43372 226.261321 
L 150.454969 225.207949 
L 150.67444 225.207949 
L 150.774811 224.154577 
L 150.874606 224.154577 
L 150.874606 223.627891 
L 151.084795 223.627891 
L 151.113448 222.047832 
L 151.901098 222.047832 
L 151.924538 220.467774 
L 152.234096 220.467774 
L 152.260923 219.414402 
L 152.511852 219.414402 
L 152.55709 217.834344 
L 152.999462 217.834344 
L 153.098289 216.780971 
L 153.305103 216.780971 
L 153.305103 216.254285 
L 153.651507 216.254285 
L 153.757264 214.674227 
L 153.85889 214.674227 
L 153.872861 213.620855 
L 154.112115 213.620855 
L 154.136205 212.567483 
L 154.262987 212.567483 
L 154.262987 212.040797 
L 154.533999 212.040797 
L 154.533999 211.514111 
L 154.661269 211.514111 
L 154.711253 210.460738 
L 154.794242 210.460738 
L 154.880133 209.407366 
L 154.962324 209.407366 
L 154.962324 208.88068 
L 155.19042 208.88068 
L 155.248594 207.827308 
L 155.30979 207.827308 
L 155.30979 207.300622 
L 155.469814 207.300622 
L 155.469814 206.773936 
L 155.931955 206.773936 
L 155.931955 206.24725 
L 156.061776 206.24725 
L 156.061776 205.720564 
L 156.215076 205.720564 
L 156.30945 204.140506 
L 156.544671 204.140506 
L 156.580579 203.087133 
L 156.670026 203.087133 
L 156.670026 202.560447 
L 156.874032 202.560447 
L 156.918066 201.507075 
L 157.142378 201.507075 
L 157.142378 200.980389 
L 157.709073 200.980389 
L 157.784562 199.927017 
L 157.829142 199.927017 
L 157.829142 199.400331 
L 157.976006 199.400331 
L 158.083291 198.346959 
L 158.113432 198.346959 
L 158.132586 197.293586 
L 158.554067 197.293586 
L 158.554067 196.7669 
L 158.702917 196.7669 
L 158.774233 195.713528 
L 159.134248 195.713528 
L 159.219249 194.13347 
L 159.370195 194.13347 
L 159.39565 193.080098 
L 159.497101 193.080098 
L 159.59042 191.50004 
L 159.710743 191.50004 
L 159.783038 190.446667 
L 160.08638 190.446667 
L 160.08638 189.919981 
L 160.256687 189.919981 
L 160.276045 188.866609 
L 160.418152 188.866609 
L 160.418152 188.339923 
L 160.544827 188.339923 
L 160.606635 186.233179 
L 161.023997 186.233179 
L 161.023997 185.706493 
L 161.272444 185.706493 
L 161.334007 184.653121 
L 161.440655 184.653121 
L 161.47907 183.599748 
L 161.809979 183.599748 
L 161.809979 183.073062 
L 162.104265 183.073062 
L 162.104265 182.546376 
L 162.361508 182.546376 
L 162.453536 180.966318 
L 162.511074 180.966318 
L 162.511074 180.439632 
L 162.62981 180.439632 
L 162.62981 179.912946 
L 162.772911 179.912946 
L 162.777102 178.859574 
L 162.896128 178.859574 
L 162.958448 177.806202 
L 163.232084 177.806202 
L 163.232084 177.279515 
L 163.386541 177.279515 
L 163.422923 176.226143 
L 163.591711 176.226143 
L 163.695386 175.172771 
L 163.991041 175.172771 
L 164.055418 173.592713 
L 164.196988 173.592713 
L 164.241356 172.012655 
L 164.396714 172.012655 
L 164.396714 171.485969 
L 164.748309 171.485969 
L 164.748309 170.959282 
L 165.01941 170.959282 
L 165.118623 169.379224 
L 165.144253 169.379224 
L 165.144253 168.852538 
L 165.268207 168.852538 
L 165.360599 167.799166 
L 165.403908 167.799166 
L 165.459691 165.692422 
L 165.663306 165.692422 
L 165.753633 164.63905 
L 165.822393 164.63905 
L 165.906649 163.585677 
L 166.512396 163.585677 
L 166.554628 162.532305 
L 166.635428 162.532305 
L 166.663955 161.478933 
L 167.194035 161.478933 
L 167.273552 159.898875 
L 167.437922 159.898875 
L 167.437922 159.372189 
L 167.607113 159.372189 
L 167.692678 158.318817 
L 167.73688 158.318817 
L 167.839062 157.265444 
L 168.074153 157.265444 
L 168.074153 156.738758 
L 168.18668 156.738758 
L 168.18668 156.212072 
L 168.301538 156.212072 
L 168.301538 155.685386 
L 168.450489 155.685386 
L 168.450489 155.1587 
L 168.731229 155.1587 
L 168.731229 154.632014 
L 168.885428 154.632014 
L 168.910505 153.578642 
L 169.16076 153.578642 
L 169.16076 153.051956 
L 169.318426 153.051956 
L 169.337135 151.998584 
L 169.528825 151.998584 
L 169.61964 149.365153 
L 170.055714 149.365153 
L 170.165794 148.311781 
L 170.262911 148.311781 
L 170.295617 147.258409 
L 170.459584 147.258409 
L 170.459584 146.731723 
L 170.592601 146.731723 
L 170.700684 145.151665 
L 170.846398 145.151665 
L 170.934559 143.04492 
L 171.001368 143.04492 
L 171.001368 142.518234 
L 171.54458 142.518234 
L 171.653236 140.938176 
L 171.751203 140.938176 
L 171.817457 139.358118 
L 171.878488 139.358118 
L 171.950454 137.778059 
L 172.031987 137.778059 
L 172.031987 137.251373 
L 172.217102 137.251373 
L 172.257297 136.198001 
L 172.4268 136.198001 
L 172.491742 135.144629 
L 172.610178 135.144629 
L 172.631625 134.091257 
L 172.755031 134.091257 
L 172.858773 132.511199 
L 173.077198 132.511199 
L 173.077198 131.984513 
L 173.236652 131.984513 
L 173.313545 130.404454 
L 173.38668 130.404454 
L 173.43792 128.29771 
L 173.498077 128.29771 
L 173.580597 127.244338 
L 173.677313 127.244338 
L 173.677313 126.717652 
L 173.891322 126.717652 
L 173.891322 126.190966 
L 174.29539 126.190966 
L 174.386079 125.137593 
L 174.531917 125.137593 
L 174.531917 124.610907 
L 174.65323 124.610907 
L 174.659592 123.557535 
L 174.826284 123.557535 
L 174.936186 121.977477 
L 175.061982 121.977477 
L 175.061982 121.450791 
L 175.216678 121.450791 
L 175.324155 119.870733 
L 175.340474 119.870733 
L 175.433001 117.763988 
L 175.540164 117.763988 
L 175.620609 115.130558 
L 175.756518 115.130558 
L 175.840927 114.077186 
L 175.894339 114.077186 
L 175.894339 113.5505 
L 176.148274 113.5505 
L 176.180364 112.497128 
L 176.264685 112.497128 
L 176.30621 111.443755 
L 176.488521 111.443755 
L 176.540941 109.863697 
L 176.793203 109.863697 
L 176.839104 108.810325 
L 177.000205 108.810325 
L 177.045566 106.176895 
L 177.115688 106.176895 
L 177.172685 104.596836 
L 177.257833 104.596836 
L 177.367999 103.016778 
L 177.449491 103.016778 
L 177.527007 100.910034 
L 177.650677 100.910034 
L 177.650677 100.383348 
L 177.956071 100.383348 
L 178.021759 99.329976 
L 178.084587 99.329976 
L 178.145454 97.223231 
L 178.230313 97.223231 
L 178.256208 95.643173 
L 178.472219 95.643173 
L 178.516462 94.063115 
L 178.718377 94.063115 
L 178.764514 93.009743 
L 178.829736 93.009743 
L 178.93707 91.429684 
L 179.038801 91.429684 
L 179.038801 90.902998 
L 179.203777 90.902998 
L 179.266565 88.796254 
L 179.333183 88.796254 
L 179.420537 87.742882 
L 179.45278 87.742882 
L 179.45278 87.216196 
L 179.629057 87.216196 
L 179.727634 85.109451 
L 179.768807 85.109451 
L 179.831962 83.529393 
L 179.993539 83.529393 
L 180.013047 82.476021 
L 180.149765 82.476021 
L 180.226201 80.895963 
L 180.299235 80.895963 
L 180.401734 78.262532 
L 180.46796 78.262532 
L 180.558141 76.682474 
L 180.585331 76.682474 
L 180.589858 75.629102 
L 180.713158 75.629102 
L 180.761039 74.049044 
L 180.825173 74.049044 
L 180.928336 72.995672 
L 180.98596 72.995672 
L 181.026478 71.942299 
L 181.164999 71.942299 
L 181.266177 70.362241 
L 181.321973 70.362241 
L 181.41793 69.308869 
L 181.452432 69.308869 
L 181.530528 67.728811 
L 181.631034 67.728811 
L 181.68426 65.622066 
L 181.771906 65.622066 
L 181.771906 65.09538 
L 181.922835 65.09538 
L 182.025977 62.988636 
L 182.052361 62.988636 
L 182.131275 61.408578 
L 182.1768 61.408578 
L 182.1768 60.881892 
L 182.370667 60.881892 
L 182.402656 59.82852 
L 182.635692 59.82852 
L 182.729376 57.721775 
L 182.851744 57.721775 
L 182.932408 56.141717 
L 183.001534 56.141717 
L 183.11157 54.034973 
L 183.215724 54.034973 
L 183.242314 52.9816 
L 183.418336 52.9816 
L 183.513025 49.821484 
L 183.558904 49.821484 
L 183.586883 47.188054 
L 183.768912 47.188054 
L 183.854214 45.607995 
L 183.926644 45.607995 
L 183.926644 45.081309 
L 184.093457 45.081309 
L 184.198675 42.447879 
L 184.232994 42.447879 
L 184.244623 41.394507 
L 184.399342 41.394507 
L 184.399342 40.867821 
L 184.679676 40.867821 
L 184.778459 38.23439 
L 184.841246 38.23439 
L 184.934416 37.181018 
L 184.959686 37.181018 
L 185.049306 35.074274 
L 185.073828 35.074274 
L 185.17273 32.967529 
L 185.474099 32.967529 
L 185.545795 31.914157 
L 185.60079 31.914157 
L 185.680986 30.860785 
L 185.740611 30.860785 
L 185.740611 30.334099 
L 338.688 30.334099 
L 338.688 30.334099 
" style="fill:none;stroke:#ff0000;stroke-linecap:square;stroke-width:1.5;"/>
   </g>
   <g id="line2d_47">
    <defs>
     <path d="M -6 6 
L 6 6 
L 6 -6 
L -6 -6 
z
" id="m6010cfff04" style="stroke:#ff0000;stroke-linejoin:miter;stroke-width:1.5;"/>
    </defs>
    <g>
     <use style="fill-opacity:0;stroke:#ff0000;stroke-linejoin:miter;stroke-width:1.5;" x="90.901048" xlink:href="#m6010cfff04" y="278.929929"/>
     <use style="fill-opacity:0;stroke:#ff0000;stroke-linejoin:miter;stroke-width:1.5;" x="156.670026" xlink:href="#m6010cfff04" y="203.087133"/>
     <use style="fill-opacity:0;stroke:#ff0000;stroke-linejoin:miter;stroke-width:1.5;" x="179.727634" xlink:href="#m6010cfff04" y="85.109451"/>
     <use style="fill-opacity:0;stroke:#ff0000;stroke-linejoin:miter;stroke-width:1.5;" x="185.740611" xlink:href="#m6010cfff04" y="30.334099"/>
     <use style="fill-opacity:0;stroke:#ff0000;stroke-linejoin:miter;stroke-width:1.5;" x="185.740611" xlink:href="#m6010cfff04" y="30.334099"/>
     <use style="fill-opacity:0;stroke:#ff0000;stroke-linejoin:miter;stroke-width:1.5;" x="338.688" xlink:href="#m6010cfff04" y="30.334099"/>
    </g>
   </g>
   <g id="line2d_48">
    <path style="fill:none;stroke:#ff0000;stroke-linecap:square;stroke-width:1.5;"/>
    <g/>
   </g>
   <g id="line2d_49">
    <path d="M 338.688 30.334099 
L 369.60768 293.571802 
" style="fill:none;stroke:#ff0000;stroke-linecap:square;stroke-width:1.5;"/>
    <g>
     <use style="fill-opacity:0;stroke:#ff0000;stroke-linejoin:miter;stroke-width:1.5;" x="338.688" xlink:href="#m6010cfff04" y="30.334099"/>
     <use style="fill-opacity:0;stroke:#ff0000;stroke-linejoin:miter;stroke-width:1.5;" x="369.60768" xlink:href="#m6010cfff04" y="293.571802"/>
    </g>
   </g>
   <g id="line2d_50">
    <path d="M 338.688 30.334099 
L 369.60768 229.105426 
" style="fill:none;stroke:#000000;stroke-linecap:square;stroke-width:1.5;"/>
    <g>
     <use style="fill-opacity:0;stroke:#000000;stroke-width:1.5;" x="338.688" xlink:href="#mc6139cafe4" y="30.334099"/>
     <use style="fill-opacity:0;stroke:#000000;stroke-width:1.5;" x="369.60768" xlink:href="#mc6139cafe4" y="229.105426"/>
    </g>
   </g>
   <g id="line2d_51">
    <path d="M 338.688 30.334099 
L 369.60768 164.63905 
" style="fill:none;stroke:#00bfbf;stroke-linecap:square;stroke-width:1.5;"/>
    <g>
     <use style="fill-opacity:0;stroke:#00bfbf;stroke-width:1.5;" x="338.688" xlink:href="#m360ecd7451" y="30.334099"/>
     <use style="fill-opacity:0;stroke:#00bfbf;stroke-width:1.5;" x="369.60768" xlink:href="#m360ecd7451" y="164.63905"/>
    </g>
   </g>
   <g id="line2d_52">
    <path d="M 338.688 30.334099 
L 369.60768 100.172673 
" style="fill:none;stroke:#0000ff;stroke-linecap:square;stroke-width:1.5;"/>
    <g>
     <use style="fill-opacity:0;stroke:#0000ff;stroke-linejoin:bevel;stroke-width:1.5;" x="338.688" xlink:href="#m329a623fdc" y="30.334099"/>
     <use style="fill-opacity:0;stroke:#0000ff;stroke-linejoin:bevel;stroke-width:1.5;" x="369.60768" xlink:href="#m329a623fdc" y="100.172673"/>
    </g>
   </g>
   <g id="line2d_53">
    <path d="M 338.688 30.334099 
L 369.60768 35.706297 
" style="fill:none;stroke:#008000;stroke-linecap:square;stroke-width:1.5;"/>
    <g>
     <use style="fill-opacity:0;stroke:#008000;stroke-linejoin:miter;stroke-width:1.5;" x="338.688" xlink:href="#mb2963506d9" y="30.334099"/>
     <use style="fill-opacity:0;stroke:#008000;stroke-linejoin:miter;stroke-width:1.5;" x="369.60768" xlink:href="#mb2963506d9" y="35.706297"/>
    </g>
   </g>
   <g id="line2d_54">
    <path d="M 338.688 298.944 
L 338.688 30.334099 
" style="fill:none;stroke:#000000;stroke-linecap:square;stroke-width:1.5;"/>
   </g>
   <g id="patch_3">
    <path d="M 57.6 298.944 
L 57.6 27.648 
" style="fill:none;stroke:#000000;stroke-linecap:square;stroke-linejoin:miter;stroke-width:0.8;"/>
   </g>
   <g id="patch_4">
    <path d="M 338.688 298.944 
L 338.688 27.648 
" style="fill:none;stroke:#000000;stroke-linecap:square;stroke-linejoin:miter;stroke-width:0.8;"/>
   </g>
   <g id="patch_5">
    <path d="M 57.6 298.944 
L 338.688 298.944 
" style="fill:none;stroke:#000000;stroke-linecap:square;stroke-linejoin:miter;stroke-width:0.8;"/>
   </g>
   <g id="patch_6">
    <path d="M 57.6 27.648 
L 338.688 27.648 
" style="fill:none;stroke:#000000;stroke-linecap:square;stroke-linejoin:miter;stroke-width:0.8;"/>
   </g>
   <g id="text_13">
    <!-- 20-D -->
    <g transform="translate(375.22944 298.262739)scale(0.17 -0.17)">
     <defs>
      <path d="M 1259 4147 
L 1259 519 
L 2022 519 
Q 2988 519 3436 956 
Q 3884 1394 3884 2338 
Q 3884 3275 3436 3711 
Q 2988 4147 2022 4147 
L 1259 4147 
z
M 628 4666 
L 1925 4666 
Q 3281 4666 3915 4102 
Q 4550 3538 4550 2338 
Q 4550 1131 3912 565 
Q 3275 0 1925 0 
L 628 0 
L 628 4666 
z
" id="DejaVuSans-44" transform="scale(0.015625)"/>
     </defs>
     <use xlink:href="#DejaVuSans-32"/>
     <use x="63.623047" xlink:href="#DejaVuSans-30"/>
     <use x="127.246094" xlink:href="#DejaVuSans-2d"/>
     <use x="163.330078" xlink:href="#DejaVuSans-44"/>
    </g>
   </g>
   <g id="text_14">
    <!-- 10-D -->
    <g transform="translate(375.22944 233.796363)scale(0.17 -0.17)">
     <use xlink:href="#DejaVuSans-31"/>
     <use x="63.623047" xlink:href="#DejaVuSans-30"/>
     <use x="127.246094" xlink:href="#DejaVuSans-2d"/>
     <use x="163.330078" xlink:href="#DejaVuSans-44"/>
    </g>
   </g>
   <g id="text_15">
    <!-- 2-D -->
    <g transform="translate(375.22944 169.329987)scale(0.17 -0.17)">
     <use xlink:href="#DejaVuSans-32"/>
     <use x="63.623047" xlink:href="#DejaVuSans-2d"/>
     <use x="99.707031" xlink:href="#DejaVuSans-44"/>
    </g>
   </g>
   <g id="text_16">
    <!-- 5-D -->
    <g transform="translate(375.22944 104.863611)scale(0.17 -0.17)">
     <defs>
      <path d="M 691 4666 
L 3169 4666 
L 3169 4134 
L 1269 4134 
L 1269 2991 
Q 1406 3038 1543 3061 
Q 1681 3084 1819 3084 
Q 2600 3084 3056 2656 
Q 3513 2228 3513 1497 
Q 3513 744 3044 326 
Q 2575 -91 1722 -91 
Q 1428 -91 1123 -41 
Q 819 9 494 109 
L 494 744 
Q 775 591 1075 516 
Q 1375 441 1709 441 
Q 2250 441 2565 725 
Q 2881 1009 2881 1497 
Q 2881 1984 2565 2268 
Q 2250 2553 1709 2553 
Q 1456 2553 1204 2497 
Q 953 2441 691 2322 
L 691 4666 
z
" id="DejaVuSans-35" transform="scale(0.015625)"/>
     </defs>
     <use xlink:href="#DejaVuSans-35"/>
     <use x="63.623047" xlink:href="#DejaVuSans-2d"/>
     <use x="99.707031" xlink:href="#DejaVuSans-44"/>
    </g>
   </g>
   <g id="text_17">
    <!-- 3-D -->
    <g transform="translate(375.22944 40.397235)scale(0.17 -0.17)">
     <defs>
      <path d="M 2597 2516 
Q 3050 2419 3304 2112 
Q 3559 1806 3559 1356 
Q 3559 666 3084 287 
Q 2609 -91 1734 -91 
Q 1441 -91 1130 -33 
Q 819 25 488 141 
L 488 750 
Q 750 597 1062 519 
Q 1375 441 1716 441 
Q 2309 441 2620 675 
Q 2931 909 2931 1356 
Q 2931 1769 2642 2001 
Q 2353 2234 1838 2234 
L 1294 2234 
L 1294 2753 
L 1863 2753 
Q 2328 2753 2575 2939 
Q 2822 3125 2822 3475 
Q 2822 3834 2567 4026 
Q 2313 4219 1838 4219 
Q 1578 4219 1281 4162 
Q 984 4106 628 3988 
L 628 4550 
Q 988 4650 1302 4700 
Q 1616 4750 1894 4750 
Q 2613 4750 3031 4423 
Q 3450 4097 3450 3541 
Q 3450 3153 3228 2886 
Q 3006 2619 2597 2516 
z
" id="DejaVuSans-33" transform="scale(0.015625)"/>
     </defs>
     <use xlink:href="#DejaVuSans-33"/>
     <use x="63.623047" xlink:href="#DejaVuSans-2d"/>
     <use x="99.707031" xlink:href="#DejaVuSans-44"/>
    </g>
   </g>
   <g id="text_18">
    <!-- bbob f14 -->
    <g transform="translate(60.41088 38.111366)scale(0.102 -0.102)">
     <defs>
      <path d="M 3116 1747 
Q 3116 2381 2855 2742 
Q 2594 3103 2138 3103 
Q 1681 3103 1420 2742 
Q 1159 2381 1159 1747 
Q 1159 1113 1420 752 
Q 1681 391 2138 391 
Q 2594 391 2855 752 
Q 3116 1113 3116 1747 
z
M 1159 2969 
Q 1341 3281 1617 3432 
Q 1894 3584 2278 3584 
Q 2916 3584 3314 3078 
Q 3713 2572 3713 1747 
Q 3713 922 3314 415 
Q 2916 -91 2278 -91 
Q 1894 -91 1617 61 
Q 1341 213 1159 525 
L 1159 0 
L 581 0 
L 581 4863 
L 1159 4863 
L 1159 2969 
z
" id="DejaVuSans-62" transform="scale(0.015625)"/>
     </defs>
     <use xlink:href="#DejaVuSans-62"/>
     <use x="63.476562" xlink:href="#DejaVuSans-62"/>
     <use x="126.953125" xlink:href="#DejaVuSans-6f"/>
     <use x="188.134766" xlink:href="#DejaVuSans-62"/>
     <use x="251.611328" xlink:href="#DejaVuSans-20"/>
     <use x="283.398438" xlink:href="#DejaVuSans-66"/>
     <use x="318.603516" xlink:href="#DejaVuSans-31"/>
     <use x="382.226562" xlink:href="#DejaVuSans-34"/>
    </g>
    <!-- 51 targets: 100..1e-08 -->
    <g transform="translate(60.41088 49.533135)scale(0.102 -0.102)">
     <defs>
      <path d="M 750 794 
L 1409 794 
L 1409 0 
L 750 0 
L 750 794 
z
M 750 3309 
L 1409 3309 
L 1409 2516 
L 750 2516 
L 750 3309 
z
" id="DejaVuSans-3a" transform="scale(0.015625)"/>
     </defs>
     <use xlink:href="#DejaVuSans-35"/>
     <use x="63.623047" xlink:href="#DejaVuSans-31"/>
     <use x="127.246094" xlink:href="#DejaVuSans-20"/>
     <use x="159.033203" xlink:href="#DejaVuSans-74"/>
     <use x="198.242188" xlink:href="#DejaVuSans-61"/>
     <use x="259.521484" xlink:href="#DejaVuSans-72"/>
     <use x="298.884766" xlink:href="#DejaVuSans-67"/>
     <use x="362.361328" xlink:href="#DejaVuSans-65"/>
     <use x="423.884766" xlink:href="#DejaVuSans-74"/>
     <use x="463.09375" xlink:href="#DejaVuSans-73"/>
     <use x="515.193359" xlink:href="#DejaVuSans-3a"/>
     <use x="548.884766" xlink:href="#DejaVuSans-20"/>
     <use x="580.671875" xlink:href="#DejaVuSans-31"/>
     <use x="644.294922" xlink:href="#DejaVuSans-30"/>
     <use x="707.917969" xlink:href="#DejaVuSans-30"/>
     <use x="771.541016" xlink:href="#DejaVuSans-2e"/>
     <use x="803.328125" xlink:href="#DejaVuSans-2e"/>
     <use x="835.115234" xlink:href="#DejaVuSans-31"/>
     <use x="898.738281" xlink:href="#DejaVuSans-65"/>
     <use x="960.261719" xlink:href="#DejaVuSans-2d"/>
     <use x="996.345703" xlink:href="#DejaVuSans-30"/>
     <use x="1059.96875" xlink:href="#DejaVuSans-38"/>
    </g>
    <!-- 15 instances -->
    <g transform="translate(60.41088 60.954904)scale(0.102 -0.102)">
     <use xlink:href="#DejaVuSans-31"/>
     <use x="63.623047" xlink:href="#DejaVuSans-35"/>
     <use x="127.246094" xlink:href="#DejaVuSans-20"/>
     <use x="159.033203" xlink:href="#DejaVuSans-69"/>
     <use x="186.816406" xlink:href="#DejaVuSans-6e"/>
     <use x="250.195312" xlink:href="#DejaVuSans-73"/>
     <use x="302.294922" xlink:href="#DejaVuSans-74"/>
     <use x="341.503906" xlink:href="#DejaVuSans-61"/>
     <use x="402.783203" xlink:href="#DejaVuSans-6e"/>
     <use x="466.162109" xlink:href="#DejaVuSans-63"/>
     <use x="521.142578" xlink:href="#DejaVuSans-65"/>
     <use x="582.666016" xlink:href="#DejaVuSans-73"/>
    </g>
   </g>
   <g id="text_19">
    <!-- v2.4 -->
    <g style="fill:#808080;" transform="translate(187.233062 294.151352)scale(0.1 -0.1)">
     <use xlink:href="#DejaVuSans-76"/>
     <use x="59.179688" xlink:href="#DejaVuSans-32"/>
     <use x="122.802734" xlink:href="#DejaVuSans-2e"/>
     <use x="154.589844" xlink:href="#DejaVuSans-34"/>
    </g>
   </g>
   <g id="text_20">
    <!-- 14 Sum of different powers -->
    <g transform="translate(61.904937 21.648)scale(0.2 -0.2)">
     <defs>
      <path d="M 3425 4513 
L 3425 3897 
Q 3066 4069 2747 4153 
Q 2428 4238 2131 4238 
Q 1616 4238 1336 4038 
Q 1056 3838 1056 3469 
Q 1056 3159 1242 3001 
Q 1428 2844 1947 2747 
L 2328 2669 
Q 3034 2534 3370 2195 
Q 3706 1856 3706 1288 
Q 3706 609 3251 259 
Q 2797 -91 1919 -91 
Q 1588 -91 1214 -16 
Q 841 59 441 206 
L 441 856 
Q 825 641 1194 531 
Q 1563 422 1919 422 
Q 2459 422 2753 634 
Q 3047 847 3047 1241 
Q 3047 1584 2836 1778 
Q 2625 1972 2144 2069 
L 1759 2144 
Q 1053 2284 737 2584 
Q 422 2884 422 3419 
Q 422 4038 858 4394 
Q 1294 4750 2059 4750 
Q 2388 4750 2728 4690 
Q 3069 4631 3425 4513 
z
" id="DejaVuSans-53" transform="scale(0.015625)"/>
      <path d="M 269 3500 
L 844 3500 
L 1563 769 
L 2278 3500 
L 2956 3500 
L 3675 769 
L 4391 3500 
L 4966 3500 
L 4050 0 
L 3372 0 
L 2619 2869 
L 1863 0 
L 1184 0 
L 269 3500 
z
" id="DejaVuSans-77" transform="scale(0.015625)"/>
     </defs>
     <use xlink:href="#DejaVuSans-31"/>
     <use x="63.623047" xlink:href="#DejaVuSans-34"/>
     <use x="127.246094" xlink:href="#DejaVuSans-20"/>
     <use x="159.033203" xlink:href="#DejaVuSans-53"/>
     <use x="222.509766" xlink:href="#DejaVuSans-75"/>
     <use x="285.888672" xlink:href="#DejaVuSans-6d"/>
     <use x="383.300781" xlink:href="#DejaVuSans-20"/>
     <use x="415.087891" xlink:href="#DejaVuSans-6f"/>
     <use x="476.269531" xlink:href="#DejaVuSans-66"/>
     <use x="511.474609" xlink:href="#DejaVuSans-20"/>
     <use x="543.261719" xlink:href="#DejaVuSans-64"/>
     <use x="606.738281" xlink:href="#DejaVuSans-69"/>
     <use x="634.521484" xlink:href="#DejaVuSans-66"/>
     <use x="669.726562" xlink:href="#DejaVuSans-66"/>
     <use x="704.931641" xlink:href="#DejaVuSans-65"/>
     <use x="766.455078" xlink:href="#DejaVuSans-72"/>
     <use x="805.318359" xlink:href="#DejaVuSans-65"/>
     <use x="866.841797" xlink:href="#DejaVuSans-6e"/>
     <use x="930.220703" xlink:href="#DejaVuSans-74"/>
     <use x="969.429688" xlink:href="#DejaVuSans-20"/>
     <use x="1001.216797" xlink:href="#DejaVuSans-70"/>
     <use x="1064.693359" xlink:href="#DejaVuSans-6f"/>
     <use x="1125.875" xlink:href="#DejaVuSans-77"/>
     <use x="1207.662109" xlink:href="#DejaVuSans-65"/>
     <use x="1269.185547" xlink:href="#DejaVuSans-72"/>
     <use x="1310.298828" xlink:href="#DejaVuSans-73"/>
    </g>
   </g>
  </g>
 </g>
 <defs>
  <clipPath id="p5c59ab26c9">
   <rect height="271.296" width="281.088" x="57.6" y="27.648"/>
  </clipPath>
 </defs>
</svg>
