<?xml version="1.0" encoding="utf-8" standalone="no"?>
<!DOCTYPE svg PUBLIC "-//W3C//DTD SVG 1.1//EN"
  "http://www.w3.org/Graphics/SVG/1.1/DTD/svg11.dtd">
<svg height="345.6pt" version="1.1" viewBox="0 0 460.8 345.6" width="460.8pt" xmlns="http://www.w3.org/2000/svg" xmlns:xlink="http://www.w3.org/1999/xlink">
 <metadata>
  <rdf:RDF xmlns:cc="http://creativecommons.org/ns#" xmlns:dc="http://purl.org/dc/elements/1.1/" xmlns:rdf="http://www.w3.org/1999/02/22-rdf-syntax-ns#">
   <cc:Work>
    <dc:type rdf:resource="http://purl.org/dc/dcmitype/StillImage"/>
    <dc:date>2021-07-27T16:03:59.272553</dc:date>
    <dc:format>image/svg+xml</dc:format>
    <dc:creator>
     <cc:Agent>
      <dc:title>Matplotlib v3.4.2, https://matplotlib.org/</dc:title>
     </cc:Agent>
    </dc:creator>
   </cc:Work>
  </rdf:RDF>
 </metadata>
 <defs>
  <style type="text/css">*{stroke-linecap:butt;stroke-linejoin:round;}</style>
 </defs>
 <g id="figure_1">
  <g id="patch_1">
   <path d="M 0 345.6 
L 460.8 345.6 
L 460.8 0 
L 0 0 
z
" style="fill:#ffffff;"/>
  </g>
  <g id="axes_1">
   <g id="patch_2">
    <path d="M 57.6 298.944 
L 338.688 298.944 
L 338.688 3.456 
L 57.6 3.456 
z
" style="fill:#ffffff;"/>
   </g>
   <g id="matplotlib.axis_1">
    <g id="xtick_1">
     <g id="line2d_1">
      <path clip-path="url(#p97713f1504)" d="M 57.6 298.944 
L 57.6 3.456 
" style="fill:none;stroke:#b0b0b0;stroke-linecap:square;stroke-width:0.8;"/>
     </g>
     <g id="line2d_2">
      <defs>
       <path d="M 0 0 
L 0 3.5 
" id="m8ebccffedd" style="stroke:#000000;stroke-width:0.8;"/>
      </defs>
      <g>
       <use style="stroke:#000000;stroke-width:0.8;" x="57.6" xlink:href="#m8ebccffedd" y="298.944"/>
      </g>
     </g>
     <g id="text_1">
      <!-- 0 -->
      <g transform="translate(51.2375 321.140875)scale(0.2 -0.2)">
       <defs>
        <path d="M 2034 4250 
Q 1547 4250 1301 3770 
Q 1056 3291 1056 2328 
Q 1056 1369 1301 889 
Q 1547 409 2034 409 
Q 2525 409 2770 889 
Q 3016 1369 3016 2328 
Q 3016 3291 2770 3770 
Q 2525 4250 2034 4250 
z
M 2034 4750 
Q 2819 4750 3233 4129 
Q 3647 3509 3647 2328 
Q 3647 1150 3233 529 
Q 2819 -91 2034 -91 
Q 1250 -91 836 529 
Q 422 1150 422 2328 
Q 422 3509 836 4129 
Q 1250 4750 2034 4750 
z
" id="DejaVuSans-30" transform="scale(0.015625)"/>
       </defs>
       <use xlink:href="#DejaVuSans-30"/>
      </g>
     </g>
    </g>
    <g id="xtick_2">
     <g id="line2d_3">
      <path clip-path="url(#p97713f1504)" d="M 137.910857 298.944 
L 137.910857 3.456 
" style="fill:none;stroke:#b0b0b0;stroke-linecap:square;stroke-width:0.8;"/>
     </g>
     <g id="line2d_4">
      <g>
       <use style="stroke:#000000;stroke-width:0.8;" x="137.910857" xlink:href="#m8ebccffedd" y="298.944"/>
      </g>
     </g>
     <g id="text_2">
      <!-- 2 -->
      <g transform="translate(131.548357 321.140875)scale(0.2 -0.2)">
       <defs>
        <path d="M 1228 531 
L 3431 531 
L 3431 0 
L 469 0 
L 469 531 
Q 828 903 1448 1529 
Q 2069 2156 2228 2338 
Q 2531 2678 2651 2914 
Q 2772 3150 2772 3378 
Q 2772 3750 2511 3984 
Q 2250 4219 1831 4219 
Q 1534 4219 1204 4116 
Q 875 4013 500 3803 
L 500 4441 
Q 881 4594 1212 4672 
Q 1544 4750 1819 4750 
Q 2544 4750 2975 4387 
Q 3406 4025 3406 3419 
Q 3406 3131 3298 2873 
Q 3191 2616 2906 2266 
Q 2828 2175 2409 1742 
Q 1991 1309 1228 531 
z
" id="DejaVuSans-32" transform="scale(0.015625)"/>
       </defs>
       <use xlink:href="#DejaVuSans-32"/>
      </g>
     </g>
    </g>
    <g id="xtick_3">
     <g id="line2d_5">
      <path clip-path="url(#p97713f1504)" d="M 218.221714 298.944 
L 218.221714 3.456 
" style="fill:none;stroke:#b0b0b0;stroke-linecap:square;stroke-width:0.8;"/>
     </g>
     <g id="line2d_6">
      <g>
       <use style="stroke:#000000;stroke-width:0.8;" x="218.221714" xlink:href="#m8ebccffedd" y="298.944"/>
      </g>
     </g>
     <g id="text_3">
      <!-- 4 -->
      <g transform="translate(211.859214 321.140875)scale(0.2 -0.2)">
       <defs>
        <path d="M 2419 4116 
L 825 1625 
L 2419 1625 
L 2419 4116 
z
M 2253 4666 
L 3047 4666 
L 3047 1625 
L 3713 1625 
L 3713 1100 
L 3047 1100 
L 3047 0 
L 2419 0 
L 2419 1100 
L 313 1100 
L 313 1709 
L 2253 4666 
z
" id="DejaVuSans-34" transform="scale(0.015625)"/>
       </defs>
       <use xlink:href="#DejaVuSans-34"/>
      </g>
     </g>
    </g>
    <g id="xtick_4">
     <g id="line2d_7">
      <path clip-path="url(#p97713f1504)" d="M 298.532571 298.944 
L 298.532571 3.456 
" style="fill:none;stroke:#b0b0b0;stroke-linecap:square;stroke-width:0.8;"/>
     </g>
     <g id="line2d_8">
      <g>
       <use style="stroke:#000000;stroke-width:0.8;" x="298.532571" xlink:href="#m8ebccffedd" y="298.944"/>
      </g>
     </g>
     <g id="text_4">
      <!-- 6 -->
      <g transform="translate(292.170071 321.140875)scale(0.2 -0.2)">
       <defs>
        <path d="M 2113 2584 
Q 1688 2584 1439 2293 
Q 1191 2003 1191 1497 
Q 1191 994 1439 701 
Q 1688 409 2113 409 
Q 2538 409 2786 701 
Q 3034 994 3034 1497 
Q 3034 2003 2786 2293 
Q 2538 2584 2113 2584 
z
M 3366 4563 
L 3366 3988 
Q 3128 4100 2886 4159 
Q 2644 4219 2406 4219 
Q 1781 4219 1451 3797 
Q 1122 3375 1075 2522 
Q 1259 2794 1537 2939 
Q 1816 3084 2150 3084 
Q 2853 3084 3261 2657 
Q 3669 2231 3669 1497 
Q 3669 778 3244 343 
Q 2819 -91 2113 -91 
Q 1303 -91 875 529 
Q 447 1150 447 2328 
Q 447 3434 972 4092 
Q 1497 4750 2381 4750 
Q 2619 4750 2861 4703 
Q 3103 4656 3366 4563 
z
" id="DejaVuSans-36" transform="scale(0.015625)"/>
       </defs>
       <use xlink:href="#DejaVuSans-36"/>
      </g>
     </g>
    </g>
    <g id="xtick_5">
     <g id="line2d_9">
      <path clip-path="url(#p97713f1504)" d="M 97.755429 298.944 
L 97.755429 3.456 
" style="fill:none;stroke:#b0b0b0;stroke-linecap:square;stroke-width:0.8;"/>
     </g>
     <g id="line2d_10">
      <defs>
       <path d="M 0 0 
L 0 2 
" id="m156859a087" style="stroke:#000000;stroke-width:0.6;"/>
      </defs>
      <g>
       <use style="stroke:#000000;stroke-width:0.6;" x="97.755429" xlink:href="#m156859a087" y="298.944"/>
      </g>
     </g>
    </g>
    <g id="xtick_6">
     <g id="line2d_11">
      <path clip-path="url(#p97713f1504)" d="M 178.066286 298.944 
L 178.066286 3.456 
" style="fill:none;stroke:#b0b0b0;stroke-linecap:square;stroke-width:0.8;"/>
     </g>
     <g id="line2d_12">
      <g>
       <use style="stroke:#000000;stroke-width:0.6;" x="178.066286" xlink:href="#m156859a087" y="298.944"/>
      </g>
     </g>
    </g>
    <g id="xtick_7">
     <g id="line2d_13">
      <path clip-path="url(#p97713f1504)" d="M 258.377143 298.944 
L 258.377143 3.456 
" style="fill:none;stroke:#b0b0b0;stroke-linecap:square;stroke-width:0.8;"/>
     </g>
     <g id="line2d_14">
      <g>
       <use style="stroke:#000000;stroke-width:0.6;" x="258.377143" xlink:href="#m156859a087" y="298.944"/>
      </g>
     </g>
    </g>
    <g id="xtick_8">
     <g id="line2d_15">
      <path clip-path="url(#p97713f1504)" d="M 338.688 298.944 
L 338.688 3.456 
" style="fill:none;stroke:#b0b0b0;stroke-linecap:square;stroke-width:0.8;"/>
     </g>
     <g id="line2d_16">
      <g>
       <use style="stroke:#000000;stroke-width:0.6;" x="338.688" xlink:href="#m156859a087" y="298.944"/>
      </g>
     </g>
    </g>
    <g id="text_5">
     <!-- log10(# f-evals / dimension) -->
     <g transform="translate(77.764078 342.217594)scale(0.17 -0.17)">
      <defs>
       <path d="M 603 4863 
L 1178 4863 
L 1178 0 
L 603 0 
L 603 4863 
z
" id="DejaVuSans-6c" transform="scale(0.015625)"/>
       <path d="M 1959 3097 
Q 1497 3097 1228 2736 
Q 959 2375 959 1747 
Q 959 1119 1226 758 
Q 1494 397 1959 397 
Q 2419 397 2687 759 
Q 2956 1122 2956 1747 
Q 2956 2369 2687 2733 
Q 2419 3097 1959 3097 
z
M 1959 3584 
Q 2709 3584 3137 3096 
Q 3566 2609 3566 1747 
Q 3566 888 3137 398 
Q 2709 -91 1959 -91 
Q 1206 -91 779 398 
Q 353 888 353 1747 
Q 353 2609 779 3096 
Q 1206 3584 1959 3584 
z
" id="DejaVuSans-6f" transform="scale(0.015625)"/>
       <path d="M 2906 1791 
Q 2906 2416 2648 2759 
Q 2391 3103 1925 3103 
Q 1463 3103 1205 2759 
Q 947 2416 947 1791 
Q 947 1169 1205 825 
Q 1463 481 1925 481 
Q 2391 481 2648 825 
Q 2906 1169 2906 1791 
z
M 3481 434 
Q 3481 -459 3084 -895 
Q 2688 -1331 1869 -1331 
Q 1566 -1331 1297 -1286 
Q 1028 -1241 775 -1147 
L 775 -588 
Q 1028 -725 1275 -790 
Q 1522 -856 1778 -856 
Q 2344 -856 2625 -561 
Q 2906 -266 2906 331 
L 2906 616 
Q 2728 306 2450 153 
Q 2172 0 1784 0 
Q 1141 0 747 490 
Q 353 981 353 1791 
Q 353 2603 747 3093 
Q 1141 3584 1784 3584 
Q 2172 3584 2450 3431 
Q 2728 3278 2906 2969 
L 2906 3500 
L 3481 3500 
L 3481 434 
z
" id="DejaVuSans-67" transform="scale(0.015625)"/>
       <path d="M 794 531 
L 1825 531 
L 1825 4091 
L 703 3866 
L 703 4441 
L 1819 4666 
L 2450 4666 
L 2450 531 
L 3481 531 
L 3481 0 
L 794 0 
L 794 531 
z
" id="DejaVuSans-31" transform="scale(0.015625)"/>
       <path d="M 1984 4856 
Q 1566 4138 1362 3434 
Q 1159 2731 1159 2009 
Q 1159 1288 1364 580 
Q 1569 -128 1984 -844 
L 1484 -844 
Q 1016 -109 783 600 
Q 550 1309 550 2009 
Q 550 2706 781 3412 
Q 1013 4119 1484 4856 
L 1984 4856 
z
" id="DejaVuSans-28" transform="scale(0.015625)"/>
       <path d="M 3272 2816 
L 2363 2816 
L 2100 1772 
L 3016 1772 
L 3272 2816 
z
M 2803 4594 
L 2478 3297 
L 3391 3297 
L 3719 4594 
L 4219 4594 
L 3897 3297 
L 4872 3297 
L 4872 2816 
L 3775 2816 
L 3519 1772 
L 4513 1772 
L 4513 1294 
L 3397 1294 
L 3072 0 
L 2572 0 
L 2894 1294 
L 1978 1294 
L 1656 0 
L 1153 0 
L 1478 1294 
L 494 1294 
L 494 1772 
L 1594 1772 
L 1856 2816 
L 850 2816 
L 850 3297 
L 1978 3297 
L 2297 4594 
L 2803 4594 
z
" id="DejaVuSans-23" transform="scale(0.015625)"/>
       <path id="DejaVuSans-20" transform="scale(0.015625)"/>
       <path d="M 2375 4863 
L 2375 4384 
L 1825 4384 
Q 1516 4384 1395 4259 
Q 1275 4134 1275 3809 
L 1275 3500 
L 2222 3500 
L 2222 3053 
L 1275 3053 
L 1275 0 
L 697 0 
L 697 3053 
L 147 3053 
L 147 3500 
L 697 3500 
L 697 3744 
Q 697 4328 969 4595 
Q 1241 4863 1831 4863 
L 2375 4863 
z
" id="DejaVuSans-66" transform="scale(0.015625)"/>
       <path d="M 313 2009 
L 1997 2009 
L 1997 1497 
L 313 1497 
L 313 2009 
z
" id="DejaVuSans-2d" transform="scale(0.015625)"/>
       <path d="M 3597 1894 
L 3597 1613 
L 953 1613 
Q 991 1019 1311 708 
Q 1631 397 2203 397 
Q 2534 397 2845 478 
Q 3156 559 3463 722 
L 3463 178 
Q 3153 47 2828 -22 
Q 2503 -91 2169 -91 
Q 1331 -91 842 396 
Q 353 884 353 1716 
Q 353 2575 817 3079 
Q 1281 3584 2069 3584 
Q 2775 3584 3186 3129 
Q 3597 2675 3597 1894 
z
M 3022 2063 
Q 3016 2534 2758 2815 
Q 2500 3097 2075 3097 
Q 1594 3097 1305 2825 
Q 1016 2553 972 2059 
L 3022 2063 
z
" id="DejaVuSans-65" transform="scale(0.015625)"/>
       <path d="M 191 3500 
L 800 3500 
L 1894 563 
L 2988 3500 
L 3597 3500 
L 2284 0 
L 1503 0 
L 191 3500 
z
" id="DejaVuSans-76" transform="scale(0.015625)"/>
       <path d="M 2194 1759 
Q 1497 1759 1228 1600 
Q 959 1441 959 1056 
Q 959 750 1161 570 
Q 1363 391 1709 391 
Q 2188 391 2477 730 
Q 2766 1069 2766 1631 
L 2766 1759 
L 2194 1759 
z
M 3341 1997 
L 3341 0 
L 2766 0 
L 2766 531 
Q 2569 213 2275 61 
Q 1981 -91 1556 -91 
Q 1019 -91 701 211 
Q 384 513 384 1019 
Q 384 1609 779 1909 
Q 1175 2209 1959 2209 
L 2766 2209 
L 2766 2266 
Q 2766 2663 2505 2880 
Q 2244 3097 1772 3097 
Q 1472 3097 1187 3025 
Q 903 2953 641 2809 
L 641 3341 
Q 956 3463 1253 3523 
Q 1550 3584 1831 3584 
Q 2591 3584 2966 3190 
Q 3341 2797 3341 1997 
z
" id="DejaVuSans-61" transform="scale(0.015625)"/>
       <path d="M 2834 3397 
L 2834 2853 
Q 2591 2978 2328 3040 
Q 2066 3103 1784 3103 
Q 1356 3103 1142 2972 
Q 928 2841 928 2578 
Q 928 2378 1081 2264 
Q 1234 2150 1697 2047 
L 1894 2003 
Q 2506 1872 2764 1633 
Q 3022 1394 3022 966 
Q 3022 478 2636 193 
Q 2250 -91 1575 -91 
Q 1294 -91 989 -36 
Q 684 19 347 128 
L 347 722 
Q 666 556 975 473 
Q 1284 391 1588 391 
Q 1994 391 2212 530 
Q 2431 669 2431 922 
Q 2431 1156 2273 1281 
Q 2116 1406 1581 1522 
L 1381 1569 
Q 847 1681 609 1914 
Q 372 2147 372 2553 
Q 372 3047 722 3315 
Q 1072 3584 1716 3584 
Q 2034 3584 2315 3537 
Q 2597 3491 2834 3397 
z
" id="DejaVuSans-73" transform="scale(0.015625)"/>
       <path d="M 1625 4666 
L 2156 4666 
L 531 -594 
L 0 -594 
L 1625 4666 
z
" id="DejaVuSans-2f" transform="scale(0.015625)"/>
       <path d="M 2906 2969 
L 2906 4863 
L 3481 4863 
L 3481 0 
L 2906 0 
L 2906 525 
Q 2725 213 2448 61 
Q 2172 -91 1784 -91 
Q 1150 -91 751 415 
Q 353 922 353 1747 
Q 353 2572 751 3078 
Q 1150 3584 1784 3584 
Q 2172 3584 2448 3432 
Q 2725 3281 2906 2969 
z
M 947 1747 
Q 947 1113 1208 752 
Q 1469 391 1925 391 
Q 2381 391 2643 752 
Q 2906 1113 2906 1747 
Q 2906 2381 2643 2742 
Q 2381 3103 1925 3103 
Q 1469 3103 1208 2742 
Q 947 2381 947 1747 
z
" id="DejaVuSans-64" transform="scale(0.015625)"/>
       <path d="M 603 3500 
L 1178 3500 
L 1178 0 
L 603 0 
L 603 3500 
z
M 603 4863 
L 1178 4863 
L 1178 4134 
L 603 4134 
L 603 4863 
z
" id="DejaVuSans-69" transform="scale(0.015625)"/>
       <path d="M 3328 2828 
Q 3544 3216 3844 3400 
Q 4144 3584 4550 3584 
Q 5097 3584 5394 3201 
Q 5691 2819 5691 2113 
L 5691 0 
L 5113 0 
L 5113 2094 
Q 5113 2597 4934 2840 
Q 4756 3084 4391 3084 
Q 3944 3084 3684 2787 
Q 3425 2491 3425 1978 
L 3425 0 
L 2847 0 
L 2847 2094 
Q 2847 2600 2669 2842 
Q 2491 3084 2119 3084 
Q 1678 3084 1418 2786 
Q 1159 2488 1159 1978 
L 1159 0 
L 581 0 
L 581 3500 
L 1159 3500 
L 1159 2956 
Q 1356 3278 1631 3431 
Q 1906 3584 2284 3584 
Q 2666 3584 2933 3390 
Q 3200 3197 3328 2828 
z
" id="DejaVuSans-6d" transform="scale(0.015625)"/>
       <path d="M 3513 2113 
L 3513 0 
L 2938 0 
L 2938 2094 
Q 2938 2591 2744 2837 
Q 2550 3084 2163 3084 
Q 1697 3084 1428 2787 
Q 1159 2491 1159 1978 
L 1159 0 
L 581 0 
L 581 3500 
L 1159 3500 
L 1159 2956 
Q 1366 3272 1645 3428 
Q 1925 3584 2291 3584 
Q 2894 3584 3203 3211 
Q 3513 2838 3513 2113 
z
" id="DejaVuSans-6e" transform="scale(0.015625)"/>
       <path d="M 513 4856 
L 1013 4856 
Q 1481 4119 1714 3412 
Q 1947 2706 1947 2009 
Q 1947 1309 1714 600 
Q 1481 -109 1013 -844 
L 513 -844 
Q 928 -128 1133 580 
Q 1338 1288 1338 2009 
Q 1338 2731 1133 3434 
Q 928 4138 513 4856 
z
" id="DejaVuSans-29" transform="scale(0.015625)"/>
      </defs>
      <use xlink:href="#DejaVuSans-6c"/>
      <use x="27.783203" xlink:href="#DejaVuSans-6f"/>
      <use x="88.964844" xlink:href="#DejaVuSans-67"/>
      <use x="152.441406" xlink:href="#DejaVuSans-31"/>
      <use x="216.064453" xlink:href="#DejaVuSans-30"/>
      <use x="279.6875" xlink:href="#DejaVuSans-28"/>
      <use x="318.701172" xlink:href="#DejaVuSans-23"/>
      <use x="402.490234" xlink:href="#DejaVuSans-20"/>
      <use x="434.277344" xlink:href="#DejaVuSans-66"/>
      <use x="463.982422" xlink:href="#DejaVuSans-2d"/>
      <use x="500.066406" xlink:href="#DejaVuSans-65"/>
      <use x="561.589844" xlink:href="#DejaVuSans-76"/>
      <use x="620.769531" xlink:href="#DejaVuSans-61"/>
      <use x="682.048828" xlink:href="#DejaVuSans-6c"/>
      <use x="709.832031" xlink:href="#DejaVuSans-73"/>
      <use x="761.931641" xlink:href="#DejaVuSans-20"/>
      <use x="793.71875" xlink:href="#DejaVuSans-2f"/>
      <use x="827.410156" xlink:href="#DejaVuSans-20"/>
      <use x="859.197266" xlink:href="#DejaVuSans-64"/>
      <use x="922.673828" xlink:href="#DejaVuSans-69"/>
      <use x="950.457031" xlink:href="#DejaVuSans-6d"/>
      <use x="1047.869141" xlink:href="#DejaVuSans-65"/>
      <use x="1109.392578" xlink:href="#DejaVuSans-6e"/>
      <use x="1172.771484" xlink:href="#DejaVuSans-73"/>
      <use x="1224.871094" xlink:href="#DejaVuSans-69"/>
      <use x="1252.654297" xlink:href="#DejaVuSans-6f"/>
      <use x="1313.835938" xlink:href="#DejaVuSans-6e"/>
      <use x="1377.214844" xlink:href="#DejaVuSans-29"/>
     </g>
    </g>
   </g>
   <g id="matplotlib.axis_2">
    <g id="ytick_1">
     <g id="line2d_17">
      <path clip-path="url(#p97713f1504)" d="M 57.6 298.944 
L 338.688 298.944 
" style="fill:none;stroke:#b0b0b0;stroke-linecap:square;stroke-width:0.8;"/>
     </g>
     <g id="line2d_18">
      <defs>
       <path d="M 0 0 
L -3.5 0 
" id="m9d454d28a6" style="stroke:#000000;stroke-width:0.8;"/>
      </defs>
      <g>
       <use style="stroke:#000000;stroke-width:0.8;" x="57.6" xlink:href="#m9d454d28a6" y="298.944"/>
      </g>
     </g>
     <g id="text_6">
      <!-- 0.0 -->
      <g transform="translate(25.155 305.02275)scale(0.16 -0.16)">
       <defs>
        <path d="M 684 794 
L 1344 794 
L 1344 0 
L 684 0 
L 684 794 
z
" id="DejaVuSans-2e" transform="scale(0.015625)"/>
       </defs>
       <use xlink:href="#DejaVuSans-30"/>
       <use x="63.623047" xlink:href="#DejaVuSans-2e"/>
       <use x="95.410156" xlink:href="#DejaVuSans-30"/>
      </g>
     </g>
    </g>
    <g id="ytick_2">
     <g id="line2d_19">
      <path clip-path="url(#p97713f1504)" d="M 57.6 240.431525 
L 338.688 240.431525 
" style="fill:none;stroke:#b0b0b0;stroke-linecap:square;stroke-width:0.8;"/>
     </g>
     <g id="line2d_20">
      <g>
       <use style="stroke:#000000;stroke-width:0.8;" x="57.6" xlink:href="#m9d454d28a6" y="240.431525"/>
      </g>
     </g>
     <g id="text_7">
      <!-- 0.2 -->
      <g transform="translate(25.155 246.510275)scale(0.16 -0.16)">
       <use xlink:href="#DejaVuSans-30"/>
       <use x="63.623047" xlink:href="#DejaVuSans-2e"/>
       <use x="95.410156" xlink:href="#DejaVuSans-32"/>
      </g>
     </g>
    </g>
    <g id="ytick_3">
     <g id="line2d_21">
      <path clip-path="url(#p97713f1504)" d="M 57.6 181.91905 
L 338.688 181.91905 
" style="fill:none;stroke:#b0b0b0;stroke-linecap:square;stroke-width:0.8;"/>
     </g>
     <g id="line2d_22">
      <g>
       <use style="stroke:#000000;stroke-width:0.8;" x="57.6" xlink:href="#m9d454d28a6" y="181.91905"/>
      </g>
     </g>
     <g id="text_8">
      <!-- 0.4 -->
      <g transform="translate(25.155 187.9978)scale(0.16 -0.16)">
       <use xlink:href="#DejaVuSans-30"/>
       <use x="63.623047" xlink:href="#DejaVuSans-2e"/>
       <use x="95.410156" xlink:href="#DejaVuSans-34"/>
      </g>
     </g>
    </g>
    <g id="ytick_4">
     <g id="line2d_23">
      <path clip-path="url(#p97713f1504)" d="M 57.6 123.406574 
L 338.688 123.406574 
" style="fill:none;stroke:#b0b0b0;stroke-linecap:square;stroke-width:0.8;"/>
     </g>
     <g id="line2d_24">
      <g>
       <use style="stroke:#000000;stroke-width:0.8;" x="57.6" xlink:href="#m9d454d28a6" y="123.406574"/>
      </g>
     </g>
     <g id="text_9">
      <!-- 0.6 -->
      <g transform="translate(25.155 129.485324)scale(0.16 -0.16)">
       <use xlink:href="#DejaVuSans-30"/>
       <use x="63.623047" xlink:href="#DejaVuSans-2e"/>
       <use x="95.410156" xlink:href="#DejaVuSans-36"/>
      </g>
     </g>
    </g>
    <g id="ytick_5">
     <g id="line2d_25">
      <path clip-path="url(#p97713f1504)" d="M 57.6 64.894099 
L 338.688 64.894099 
" style="fill:none;stroke:#b0b0b0;stroke-linecap:square;stroke-width:0.8;"/>
     </g>
     <g id="line2d_26">
      <g>
       <use style="stroke:#000000;stroke-width:0.8;" x="57.6" xlink:href="#m9d454d28a6" y="64.894099"/>
      </g>
     </g>
     <g id="text_10">
      <!-- 0.8 -->
      <g transform="translate(25.155 70.972849)scale(0.16 -0.16)">
       <defs>
        <path d="M 2034 2216 
Q 1584 2216 1326 1975 
Q 1069 1734 1069 1313 
Q 1069 891 1326 650 
Q 1584 409 2034 409 
Q 2484 409 2743 651 
Q 3003 894 3003 1313 
Q 3003 1734 2745 1975 
Q 2488 2216 2034 2216 
z
M 1403 2484 
Q 997 2584 770 2862 
Q 544 3141 544 3541 
Q 544 4100 942 4425 
Q 1341 4750 2034 4750 
Q 2731 4750 3128 4425 
Q 3525 4100 3525 3541 
Q 3525 3141 3298 2862 
Q 3072 2584 2669 2484 
Q 3125 2378 3379 2068 
Q 3634 1759 3634 1313 
Q 3634 634 3220 271 
Q 2806 -91 2034 -91 
Q 1263 -91 848 271 
Q 434 634 434 1313 
Q 434 1759 690 2068 
Q 947 2378 1403 2484 
z
M 1172 3481 
Q 1172 3119 1398 2916 
Q 1625 2713 2034 2713 
Q 2441 2713 2670 2916 
Q 2900 3119 2900 3481 
Q 2900 3844 2670 4047 
Q 2441 4250 2034 4250 
Q 1625 4250 1398 4047 
Q 1172 3844 1172 3481 
z
" id="DejaVuSans-38" transform="scale(0.015625)"/>
       </defs>
       <use xlink:href="#DejaVuSans-30"/>
       <use x="63.623047" xlink:href="#DejaVuSans-2e"/>
       <use x="95.410156" xlink:href="#DejaVuSans-38"/>
      </g>
     </g>
    </g>
    <g id="ytick_6">
     <g id="line2d_27">
      <path clip-path="url(#p97713f1504)" d="M 57.6 6.381624 
L 338.688 6.381624 
" style="fill:none;stroke:#b0b0b0;stroke-linecap:square;stroke-width:0.8;"/>
     </g>
     <g id="line2d_28">
      <g>
       <use style="stroke:#000000;stroke-width:0.8;" x="57.6" xlink:href="#m9d454d28a6" y="6.381624"/>
      </g>
     </g>
     <g id="text_11">
      <!-- 1.0 -->
      <g transform="translate(25.155 12.460374)scale(0.16 -0.16)">
       <use xlink:href="#DejaVuSans-31"/>
       <use x="63.623047" xlink:href="#DejaVuSans-2e"/>
       <use x="95.410156" xlink:href="#DejaVuSans-30"/>
      </g>
     </g>
    </g>
    <g id="text_12">
     <!-- Fraction of function,target pairs -->
     <g transform="translate(17.619531 285.585)rotate(-90)scale(0.17 -0.17)">
      <defs>
       <path d="M 628 4666 
L 3309 4666 
L 3309 4134 
L 1259 4134 
L 1259 2759 
L 3109 2759 
L 3109 2228 
L 1259 2228 
L 1259 0 
L 628 0 
L 628 4666 
z
" id="DejaVuSans-46" transform="scale(0.015625)"/>
       <path d="M 2631 2963 
Q 2534 3019 2420 3045 
Q 2306 3072 2169 3072 
Q 1681 3072 1420 2755 
Q 1159 2438 1159 1844 
L 1159 0 
L 581 0 
L 581 3500 
L 1159 3500 
L 1159 2956 
Q 1341 3275 1631 3429 
Q 1922 3584 2338 3584 
Q 2397 3584 2469 3576 
Q 2541 3569 2628 3553 
L 2631 2963 
z
" id="DejaVuSans-72" transform="scale(0.015625)"/>
       <path d="M 3122 3366 
L 3122 2828 
Q 2878 2963 2633 3030 
Q 2388 3097 2138 3097 
Q 1578 3097 1268 2742 
Q 959 2388 959 1747 
Q 959 1106 1268 751 
Q 1578 397 2138 397 
Q 2388 397 2633 464 
Q 2878 531 3122 666 
L 3122 134 
Q 2881 22 2623 -34 
Q 2366 -91 2075 -91 
Q 1284 -91 818 406 
Q 353 903 353 1747 
Q 353 2603 823 3093 
Q 1294 3584 2113 3584 
Q 2378 3584 2631 3529 
Q 2884 3475 3122 3366 
z
" id="DejaVuSans-63" transform="scale(0.015625)"/>
       <path d="M 1172 4494 
L 1172 3500 
L 2356 3500 
L 2356 3053 
L 1172 3053 
L 1172 1153 
Q 1172 725 1289 603 
Q 1406 481 1766 481 
L 2356 481 
L 2356 0 
L 1766 0 
Q 1100 0 847 248 
Q 594 497 594 1153 
L 594 3053 
L 172 3053 
L 172 3500 
L 594 3500 
L 594 4494 
L 1172 4494 
z
" id="DejaVuSans-74" transform="scale(0.015625)"/>
       <path d="M 544 1381 
L 544 3500 
L 1119 3500 
L 1119 1403 
Q 1119 906 1312 657 
Q 1506 409 1894 409 
Q 2359 409 2629 706 
Q 2900 1003 2900 1516 
L 2900 3500 
L 3475 3500 
L 3475 0 
L 2900 0 
L 2900 538 
Q 2691 219 2414 64 
Q 2138 -91 1772 -91 
Q 1169 -91 856 284 
Q 544 659 544 1381 
z
M 1991 3584 
L 1991 3584 
z
" id="DejaVuSans-75" transform="scale(0.015625)"/>
       <path d="M 750 794 
L 1409 794 
L 1409 256 
L 897 -744 
L 494 -744 
L 750 256 
L 750 794 
z
" id="DejaVuSans-2c" transform="scale(0.015625)"/>
       <path d="M 1159 525 
L 1159 -1331 
L 581 -1331 
L 581 3500 
L 1159 3500 
L 1159 2969 
Q 1341 3281 1617 3432 
Q 1894 3584 2278 3584 
Q 2916 3584 3314 3078 
Q 3713 2572 3713 1747 
Q 3713 922 3314 415 
Q 2916 -91 2278 -91 
Q 1894 -91 1617 61 
Q 1341 213 1159 525 
z
M 3116 1747 
Q 3116 2381 2855 2742 
Q 2594 3103 2138 3103 
Q 1681 3103 1420 2742 
Q 1159 2381 1159 1747 
Q 1159 1113 1420 752 
Q 1681 391 2138 391 
Q 2594 391 2855 752 
Q 3116 1113 3116 1747 
z
" id="DejaVuSans-70" transform="scale(0.015625)"/>
      </defs>
      <use xlink:href="#DejaVuSans-46"/>
      <use x="50.269531" xlink:href="#DejaVuSans-72"/>
      <use x="91.382812" xlink:href="#DejaVuSans-61"/>
      <use x="152.662109" xlink:href="#DejaVuSans-63"/>
      <use x="207.642578" xlink:href="#DejaVuSans-74"/>
      <use x="246.851562" xlink:href="#DejaVuSans-69"/>
      <use x="274.634766" xlink:href="#DejaVuSans-6f"/>
      <use x="335.816406" xlink:href="#DejaVuSans-6e"/>
      <use x="399.195312" xlink:href="#DejaVuSans-20"/>
      <use x="430.982422" xlink:href="#DejaVuSans-6f"/>
      <use x="492.164062" xlink:href="#DejaVuSans-66"/>
      <use x="527.369141" xlink:href="#DejaVuSans-20"/>
      <use x="559.15625" xlink:href="#DejaVuSans-66"/>
      <use x="594.361328" xlink:href="#DejaVuSans-75"/>
      <use x="657.740234" xlink:href="#DejaVuSans-6e"/>
      <use x="721.119141" xlink:href="#DejaVuSans-63"/>
      <use x="776.099609" xlink:href="#DejaVuSans-74"/>
      <use x="815.308594" xlink:href="#DejaVuSans-69"/>
      <use x="843.091797" xlink:href="#DejaVuSans-6f"/>
      <use x="904.273438" xlink:href="#DejaVuSans-6e"/>
      <use x="967.652344" xlink:href="#DejaVuSans-2c"/>
      <use x="999.439453" xlink:href="#DejaVuSans-74"/>
      <use x="1038.648438" xlink:href="#DejaVuSans-61"/>
      <use x="1099.927734" xlink:href="#DejaVuSans-72"/>
      <use x="1139.291016" xlink:href="#DejaVuSans-67"/>
      <use x="1202.767578" xlink:href="#DejaVuSans-65"/>
      <use x="1264.291016" xlink:href="#DejaVuSans-74"/>
      <use x="1303.5" xlink:href="#DejaVuSans-20"/>
      <use x="1335.287109" xlink:href="#DejaVuSans-70"/>
      <use x="1398.763672" xlink:href="#DejaVuSans-61"/>
      <use x="1460.042969" xlink:href="#DejaVuSans-69"/>
      <use x="1487.826172" xlink:href="#DejaVuSans-72"/>
      <use x="1528.939453" xlink:href="#DejaVuSans-73"/>
     </g>
    </g>
   </g>
   <g id="line2d_29">
    <defs>
     <path d="M 0 1.5 
C 0.397805 1.5 0.77937 1.341951 1.06066 1.06066 
C 1.341951 0.77937 1.5 0.397805 1.5 0 
C 1.5 -0.397805 1.341951 -0.77937 1.06066 -1.06066 
C 0.77937 -1.341951 0.397805 -1.5 0 -1.5 
C -0.397805 -1.5 -0.77937 -1.341951 -1.06066 -1.06066 
C -1.341951 -0.77937 -1.5 -0.397805 -1.5 0 
C -1.5 0.397805 -1.341951 0.77937 -1.06066 1.06066 
C -0.77937 1.341951 -0.397805 1.5 0 1.5 
z
" id="m48f4e6e6a1" style="stroke:#000080;"/>
    </defs>
    <g>
     <use style="fill:#000080;stroke:#000080;" x="258.885921" xlink:href="#m48f4e6e6a1" y="235.842311"/>
     <use style="fill:#000080;stroke:#000080;" x="258.885921" xlink:href="#m48f4e6e6a1" y="235.842311"/>
    </g>
   </g>
   <g id="line2d_30">
    <path d="M 154.764411 298.944 
L 154.764411 298.370348 
L 159.939068 298.370348 
L 159.939068 297.796697 
L 160.355672 297.796697 
L 160.355672 297.223045 
L 161.160161 297.223045 
L 161.160161 296.649393 
L 162.642484 296.649393 
L 162.642484 296.075741 
L 162.923161 296.075741 
L 162.923161 295.50209 
L 163.04945 295.50209 
L 163.04945 294.928438 
L 163.675496 294.928438 
L 163.675496 294.354786 
L 164.757663 294.354786 
L 164.757663 293.781135 
L 164.873242 293.781135 
L 164.873242 293.207483 
L 165.346138 293.207483 
L 165.346138 292.633831 
L 165.592133 292.633831 
L 165.682828 291.486528 
L 165.868082 291.486528 
L 165.868082 290.912876 
L 166.117256 290.912876 
L 166.117256 290.339224 
L 166.679039 290.339224 
L 166.679039 289.765573 
L 166.868978 289.765573 
L 166.868978 289.191921 
L 166.997755 289.191921 
L 166.997755 288.618269 
L 167.207042 288.618269 
L 167.296204 287.470966 
L 167.49237 287.470966 
L 167.517934 285.176359 
L 167.956225 285.176359 
L 168.004423 284.029055 
L 168.069513 284.029055 
L 168.069513 283.455404 
L 168.415645 283.455404 
L 168.415645 282.881752 
L 168.682014 282.881752 
L 168.682014 282.3081 
L 168.885428 282.3081 
L 168.885428 281.734448 
L 169.371623 281.734448 
L 169.371623 281.160797 
L 169.520287 281.160797 
L 169.60973 280.013493 
L 169.653574 280.013493 
L 169.653574 279.439842 
L 170.036379 279.439842 
L 170.110841 277.718886 
L 170.161678 277.718886 
L 170.161678 277.145235 
L 170.482497 277.145235 
L 170.482497 276.571583 
L 170.601968 276.571583 
L 170.601968 275.997931 
L 170.876713 275.997931 
L 170.96472 274.850628 
L 171.039244 274.850628 
L 171.132927 273.703324 
L 171.569909 273.703324 
L 171.624243 271.982369 
L 171.837409 271.982369 
L 171.837409 271.408718 
L 172.231729 271.408718 
L 172.274322 269.687762 
L 172.467718 269.687762 
L 172.467718 269.114111 
L 172.582734 269.114111 
L 172.610178 267.966807 
L 172.786927 267.966807 
L 172.786927 267.393156 
L 172.949044 267.393156 
L 172.949044 266.819504 
L 173.088802 266.819504 
L 173.088802 266.245852 
L 173.291774 266.245852 
L 173.306673 265.098549 
L 173.727708 265.098549 
L 173.727708 264.524897 
L 173.978621 264.524897 
L 174.081929 263.377593 
L 174.651109 263.377593 
L 174.651109 262.803942 
L 174.965377 262.803942 
L 175.039177 261.656638 
L 175.951527 261.656638 
L 175.951527 261.082987 
L 176.414867 261.082987 
L 176.414867 260.509335 
L 176.808204 260.509335 
L 176.808204 259.935683 
L 177.66942 259.935683 
L 177.66942 259.362031 
L 178.886398 259.362031 
L 178.901366 258.214728 
L 180.111809 258.214728 
L 180.111809 257.641076 
L 180.365087 257.641076 
L 180.365087 257.067425 
L 181.274158 257.067425 
L 181.274158 256.493773 
L 192.740733 256.493773 
L 192.740733 255.920121 
L 193.033336 255.920121 
L 193.033336 255.346469 
L 194.073618 255.346469 
L 194.073618 254.772818 
L 196.065341 254.772818 
L 196.065341 254.199166 
L 201.055263 254.199166 
L 201.055263 253.625514 
L 202.967069 253.625514 
L 202.967069 253.051863 
L 203.905791 253.051863 
L 203.905791 252.478211 
L 206.971798 252.478211 
L 206.971798 251.904559 
L 207.468765 251.904559 
L 207.468765 251.330907 
L 208.328889 251.330907 
L 208.328889 250.757256 
L 208.723116 250.757256 
L 208.723116 250.183604 
L 208.872951 250.183604 
L 208.979193 249.036301 
L 214.349642 249.036301 
L 214.349642 248.462649 
L 218.448944 248.462649 
L 218.448944 247.888997 
L 219.466299 247.888997 
L 219.466299 247.315345 
L 222.523779 247.315345 
L 222.523779 246.741694 
L 222.66979 246.741694 
L 222.66979 246.168042 
L 224.058067 246.168042 
L 224.058067 245.59439 
L 224.361954 245.59439 
L 224.361954 245.020738 
L 231.839758 245.020738 
L 231.839758 244.447087 
L 232.627448 244.447087 
L 232.627448 243.873435 
L 234.469607 243.873435 
L 234.469607 243.299783 
L 234.649065 243.299783 
L 234.649065 242.726132 
L 235.276723 242.726132 
L 235.276723 242.15248 
L 235.912575 242.15248 
L 235.912575 241.578828 
L 238.117946 241.578828 
L 238.117946 241.005176 
L 239.765116 241.005176 
L 239.765116 240.431525 
L 240.334929 240.431525 
L 240.334929 239.857873 
L 240.465755 239.857873 
L 240.465755 239.284221 
L 240.94649 239.284221 
L 240.954377 238.136918 
L 243.474544 238.136918 
L 243.474544 237.563266 
L 251.132913 237.563266 
L 251.132913 236.989614 
L 257.945954 236.989614 
L 257.945954 236.415963 
L 258.885921 236.415963 
L 258.885921 235.842311 
L 338.688 235.842311 
L 338.688 235.842311 
" style="fill:none;stroke:#000080;stroke-linecap:square;stroke-width:1.5;"/>
   </g>
   <g id="line2d_31">
    <defs>
     <path d="M 0 6 
C 1.591219 6 3.117479 5.367802 4.242641 4.242641 
C 5.367802 3.117479 6 1.591219 6 0 
C 6 -1.591219 5.367802 -3.117479 4.242641 -4.242641 
C 3.117479 -5.367802 1.591219 -6 0 -6 
C -1.591219 -6 -3.117479 -5.367802 -4.242641 -4.242641 
C -5.367802 -3.117479 -6 -1.591219 -6 0 
C -6 1.591219 -5.367802 3.117479 -4.242641 4.242641 
C -3.117479 5.367802 -1.591219 6 0 6 
z
" id="m00b4186df1" style="stroke:#000080;stroke-width:1.5;"/>
    </defs>
    <g>
     <use style="fill-opacity:0;stroke:#000080;stroke-width:1.5;" x="173.306673" xlink:href="#m00b4186df1" y="265.098549"/>
     <use style="fill-opacity:0;stroke:#000080;stroke-width:1.5;" x="234.649065" xlink:href="#m00b4186df1" y="242.726132"/>
     <use style="fill-opacity:0;stroke:#000080;stroke-width:1.5;" x="258.885921" xlink:href="#m00b4186df1" y="235.842311"/>
     <use style="fill-opacity:0;stroke:#000080;stroke-width:1.5;" x="338.688" xlink:href="#m00b4186df1" y="235.842311"/>
    </g>
   </g>
   <g id="line2d_32">
    <path style="fill:none;stroke:#000080;stroke-linecap:square;stroke-width:1.5;"/>
    <g/>
   </g>
   <g id="line2d_33">
    <path clip-path="url(#p97713f1504)" d="M 186.317224 256.493773 
" style="fill:none;stroke:#000080;stroke-linecap:square;stroke-width:1.5;"/>
    <defs>
     <path d="M -12 12 
L 12 -12 
M -12 -12 
L 12 12 
" id="m42fecb4c50" style="stroke:#000080;"/>
    </defs>
    <g clip-path="url(#p97713f1504)">
     <use style="fill:#000080;stroke:#000080;" x="186.317224" xlink:href="#m42fecb4c50" y="256.493773"/>
    </g>
   </g>
   <g id="line2d_34">
    <defs>
     <path d="M 0 1.5 
C 0.397805 1.5 0.77937 1.341951 1.06066 1.06066 
C 1.341951 0.77937 1.5 0.397805 1.5 0 
C 1.5 -0.397805 1.341951 -0.77937 1.06066 -1.06066 
C 0.77937 -1.341951 0.397805 -1.5 0 -1.5 
C -0.397805 -1.5 -0.77937 -1.341951 -1.06066 -1.06066 
C -1.341951 -0.77937 -1.5 -0.397805 -1.5 0 
C -1.5 0.397805 -1.341951 0.77937 -1.06066 1.06066 
C -0.77937 1.341951 -0.397805 1.5 0 1.5 
z
" id="m8903e1a8ab" style="stroke:#ff00ff;"/>
    </defs>
    <g>
     <use style="fill:#ff00ff;stroke:#ff00ff;" x="230.092545" xlink:href="#m8903e1a8ab" y="6.381624"/>
     <use style="fill:#ff00ff;stroke:#ff00ff;" x="230.092545" xlink:href="#m8903e1a8ab" y="6.381624"/>
    </g>
   </g>
   <g id="line2d_35">
    <path d="M 5.356583 298.944 
L 5.356583 292.060179 
L 17.444571 292.060179 
L 17.444571 289.191921 
L 24.515591 289.191921 
L 24.515591 288.618269 
L 29.53256 288.618269 
L 29.53256 288.044617 
L 33.424023 288.044617 
L 33.424023 287.470966 
L 43.6746 287.470966 
L 43.6746 286.323662 
L 60.037348 286.323662 
L 60.037348 285.75001 
L 72.500389 285.75001 
L 72.500389 285.176359 
L 76.759008 285.176359 
L 76.759008 284.602707 
L 87.798828 284.602707 
L 87.798828 284.029055 
L 89.835723 284.029055 
L 89.835723 283.455404 
L 91.905025 283.455404 
L 91.905025 282.3081 
L 102.060491 282.3081 
L 102.060491 281.734448 
L 122.823744 281.734448 
L 122.823744 281.160797 
L 133.77794 281.160797 
L 133.77794 280.587145 
L 134.577155 280.587145 
L 134.577155 280.013493 
L 135.721125 280.013493 
L 135.721125 279.439842 
L 138.170504 279.439842 
L 138.170504 278.86619 
L 141.767407 278.86619 
L 141.767407 278.292538 
L 148.258051 278.292538 
L 148.258051 277.718886 
L 155.216299 277.718886 
L 155.216299 277.145235 
L 155.520713 277.145235 
L 155.520713 276.571583 
L 157.380981 276.571583 
L 157.380981 275.997931 
L 159.303838 275.997931 
L 159.303838 275.42428 
L 159.542562 275.42428 
L 159.565248 274.276976 
L 160.353264 274.276976 
L 160.353264 273.703324 
L 160.530533 273.703324 
L 160.530533 273.129673 
L 160.790755 273.129673 
L 160.828284 271.982369 
L 160.977598 271.982369 
L 160.977598 271.408718 
L 161.386278 271.408718 
L 161.386278 270.835066 
L 161.602778 270.835066 
L 161.602778 270.261414 
L 161.915967 270.261414 
L 161.915967 269.687762 
L 162.286241 269.687762 
L 162.355069 268.540459 
L 163.072127 268.540459 
L 163.072127 267.966807 
L 163.398677 267.966807 
L 163.477355 265.6722 
L 164.113737 265.6722 
L 164.195057 264.524897 
L 164.474827 264.524897 
L 164.474827 263.951245 
L 164.693955 263.951245 
L 164.693955 263.377593 
L 164.999131 263.377593 
L 165.085615 262.23029 
L 165.291805 262.23029 
L 165.291805 261.656638 
L 165.434521 261.656638 
L 165.534984 259.935683 
L 165.841738 259.935683 
L 165.841738 259.362031 
L 166.236226 259.362031 
L 166.236226 258.78838 
L 166.364626 258.78838 
L 166.403814 257.641076 
L 166.825841 257.641076 
L 166.900435 255.920121 
L 167.211917 255.920121 
L 167.211917 254.199166 
L 167.560988 254.199166 
L 167.568949 253.051863 
L 167.760513 253.051863 
L 167.79669 251.904559 
L 167.871947 251.904559 
L 167.871947 251.330907 
L 168.015289 251.330907 
L 168.112771 249.609952 
L 168.126653 249.609952 
L 168.177458 247.888997 
L 168.301538 247.888997 
L 168.324419 246.741694 
L 168.518461 246.741694 
L 168.518461 246.168042 
L 168.863272 246.168042 
L 168.882476 245.020738 
L 169.115658 245.020738 
L 169.197048 243.873435 
L 169.331381 243.873435 
L 169.385973 241.005176 
L 169.570034 241.005176 
L 169.570034 240.431525 
L 169.760598 240.431525 
L 169.774632 239.284221 
L 169.947714 239.284221 
L 169.947714 238.71057 
L 170.075029 238.71057 
L 170.184987 237.563266 
L 170.299701 237.563266 
L 170.299701 236.989614 
L 170.512106 236.989614 
L 170.512106 236.415963 
L 170.624695 236.415963 
L 170.713981 234.695008 
L 170.739218 234.695008 
L 170.739218 234.121356 
L 170.98698 234.121356 
L 171.05359 232.400401 
L 171.43014 232.400401 
L 171.486182 231.253097 
L 171.764974 231.253097 
L 171.789986 230.105794 
L 171.889675 230.105794 
L 171.964069 228.95849 
L 172.033219 228.95849 
L 172.107005 227.811187 
L 172.241474 227.811187 
L 172.31196 226.090232 
L 172.497743 226.090232 
L 172.603022 223.221973 
L 172.660181 223.221973 
L 172.768032 221.501018 
L 172.859949 221.501018 
L 172.859949 220.927366 
L 173.056292 220.927366 
L 173.056292 220.353715 
L 173.169812 220.353715 
L 173.185969 219.206411 
L 173.370708 219.206411 
L 173.382118 218.059108 
L 173.579469 218.059108 
L 173.679556 216.911804 
L 174.012759 216.911804 
L 174.115865 214.043546 
L 174.150827 214.043546 
L 174.259633 212.322591 
L 174.273728 212.322591 
L 174.275895 211.175287 
L 174.406527 211.175287 
L 174.410829 210.027984 
L 174.542592 210.027984 
L 174.553261 208.307029 
L 174.670189 208.307029 
L 174.747357 205.43877 
L 174.832583 205.43877 
L 174.832583 204.865118 
L 174.997638 204.865118 
L 175.036065 203.717815 
L 175.148781 203.717815 
L 175.148781 203.144163 
L 175.283289 203.144163 
L 175.283289 202.570511 
L 175.443139 202.570511 
L 175.544195 200.849556 
L 175.638658 200.849556 
L 175.72962 199.128601 
L 175.76249 199.128601 
L 175.819119 196.833994 
L 176.011471 196.833994 
L 176.045773 195.686691 
L 176.191048 195.686691 
L 176.191048 195.113039 
L 176.313925 195.113039 
L 176.313925 194.539387 
L 176.631116 194.539387 
L 176.708578 192.818432 
L 176.778188 192.818432 
L 176.853131 190.523825 
L 176.91565 190.523825 
L 177.004839 188.229218 
L 177.058504 188.229218 
L 177.058504 187.655567 
L 177.175439 187.655567 
L 177.269703 185.934612 
L 177.308905 185.934612 
L 177.399735 183.640005 
L 177.477472 183.640005 
L 177.535998 182.492701 
L 177.715744 182.492701 
L 177.80891 180.198094 
L 177.948171 180.198094 
L 178.025255 177.329836 
L 178.065414 177.329836 
L 178.148058 175.608881 
L 178.27345 175.608881 
L 178.293257 174.461577 
L 178.415048 174.461577 
L 178.524108 171.593319 
L 178.590234 171.593319 
L 178.699888 169.872363 
L 178.8005 169.872363 
L 178.8005 169.298712 
L 178.924623 169.298712 
L 178.988423 166.430453 
L 179.102185 166.430453 
L 179.16534 164.135846 
L 179.271448 164.135846 
L 179.286902 162.988543 
L 179.389851 162.988543 
L 179.468879 161.267588 
L 179.535532 161.267588 
L 179.640215 158.399329 
L 179.730805 158.399329 
L 179.764853 156.104722 
L 179.84614 156.104722 
L 179.956806 153.236464 
L 180.0263 153.236464 
L 180.126537 150.368205 
L 180.189183 150.368205 
L 180.243911 148.073598 
L 180.381129 148.073598 
L 180.491498 146.352643 
L 180.590613 146.352643 
L 180.639584 144.631688 
L 180.780453 144.631688 
L 180.817728 143.484384 
L 180.893522 143.484384 
L 181.003652 141.189778 
L 181.03457 141.189778 
L 181.052213 139.468822 
L 181.248749 139.468822 
L 181.359553 137.174215 
L 181.391288 137.174215 
L 181.46607 134.879609 
L 181.580497 134.879609 
L 181.685677 132.01135 
L 181.701966 132.01135 
L 181.791636 130.290395 
L 181.898354 130.290395 
L 181.984933 128.56944 
L 182.112618 128.56944 
L 182.165775 125.701181 
L 182.435944 125.701181 
L 182.546898 123.980226 
L 182.650447 123.980226 
L 182.650447 123.406574 
L 182.771371 123.406574 
L 182.857045 120.538316 
L 182.944937 120.538316 
L 182.947573 119.391012 
L 183.112223 119.391012 
L 183.122014 118.243709 
L 183.327646 118.243709 
L 183.41192 115.949102 
L 183.494512 115.949102 
L 183.564631 114.801798 
L 183.633202 114.801798 
L 183.714755 113.080843 
L 183.760107 113.080843 
L 183.857968 111.93354 
L 183.8761 111.93354 
L 183.944082 110.212585 
L 184.031631 110.212585 
L 184.129216 108.49163 
L 184.188243 108.49163 
L 184.251964 105.623371 
L 184.38903 105.623371 
L 184.488865 103.328764 
L 184.562316 103.328764 
L 184.661764 100.460506 
L 184.744603 100.460506 
L 184.795659 98.165899 
L 184.863699 98.165899 
L 184.951463 95.29764 
L 185.160543 95.29764 
L 185.258955 93.576685 
L 185.429567 93.576685 
L 185.514535 91.85573 
L 185.573597 91.85573 
L 185.583233 90.708426 
L 185.747349 90.708426 
L 185.843072 88.413819 
L 185.917162 88.413819 
L 186.015831 86.692864 
L 186.215333 86.692864 
L 186.215333 85.545561 
L 186.357922 85.545561 
L 186.4331 84.398257 
L 186.535339 84.398257 
L 186.60762 82.677302 
L 186.680135 82.677302 
L 186.697154 81.529999 
L 186.798918 81.529999 
L 186.880115 80.382695 
L 187.069503 80.382695 
L 187.15256 78.66174 
L 187.206852 78.66174 
L 187.209949 77.514437 
L 187.326215 77.514437 
L 187.326215 76.940785 
L 187.482411 76.940785 
L 187.482411 76.367133 
L 187.625633 76.367133 
L 187.625633 75.793482 
L 187.765188 75.793482 
L 187.765188 75.21983 
L 187.982822 75.21983 
L 188.078355 74.072526 
L 188.610362 74.072526 
L 188.610362 73.498875 
L 188.788553 73.498875 
L 188.788553 72.925223 
L 188.904157 72.925223 
L 188.904157 71.77792 
L 189.333944 71.77792 
L 189.333944 71.204268 
L 195.222722 71.204268 
L 195.222722 70.630616 
L 195.388205 70.630616 
L 195.388205 70.056964 
L 195.580584 70.056964 
L 195.580584 69.483313 
L 196.049491 69.483313 
L 196.112495 68.336009 
L 196.256885 68.336009 
L 196.256885 67.762358 
L 196.788539 67.762358 
L 196.893722 66.615054 
L 197.052372 66.615054 
L 197.08727 65.467751 
L 197.237207 65.467751 
L 197.237207 64.894099 
L 197.436766 64.894099 
L 197.50955 63.173144 
L 197.709427 63.173144 
L 197.709427 62.599492 
L 197.942222 62.599492 
L 198.017654 61.452189 
L 198.054 61.452189 
L 198.106859 60.304885 
L 198.205779 60.304885 
L 198.308513 58.58393 
L 198.326531 58.58393 
L 198.392441 57.436627 
L 198.439405 57.436627 
L 198.548321 55.14202 
L 198.570938 55.14202 
L 198.591375 53.994716 
L 198.712431 53.994716 
L 198.80002 51.700109 
L 198.837424 51.700109 
L 198.869458 50.552806 
L 198.959685 50.552806 
L 199.021675 48.831851 
L 199.10016 48.831851 
L 199.10016 48.258199 
L 199.329653 48.258199 
L 199.366967 47.110896 
L 199.665927 47.110896 
L 199.740817 45.963592 
L 199.842173 45.963592 
L 199.842173 45.389941 
L 199.973261 45.389941 
L 200.007986 44.242637 
L 200.261846 44.242637 
L 200.261846 43.668985 
L 200.555821 43.668985 
L 200.661634 41.94803 
L 200.672132 41.94803 
L 200.781038 39.653423 
L 200.843269 39.653423 
L 200.87937 38.50612 
L 201.194479 38.50612 
L 201.194479 37.932468 
L 201.398611 37.932468 
L 201.48511 36.211513 
L 201.525814 36.211513 
L 201.527177 35.06421 
L 201.691063 35.06421 
L 201.691063 34.490558 
L 201.96275 34.490558 
L 201.96275 33.916906 
L 204.957363 33.916906 
L 205.002453 32.769603 
L 205.746135 32.769603 
L 205.821043 31.048648 
L 206.00683 31.048648 
L 206.00683 30.474996 
L 206.158472 30.474996 
L 206.218275 29.327692 
L 206.375323 29.327692 
L 206.463162 27.606737 
L 206.510841 27.606737 
L 206.579483 25.31213 
L 206.684899 25.31213 
L 206.684899 24.738479 
L 207.168803 24.738479 
L 207.234253 23.017524 
L 207.315763 23.017524 
L 207.387807 21.87022 
L 207.503623 21.87022 
L 207.51716 20.149265 
L 207.72406 20.149265 
L 207.72406 19.575613 
L 208.145562 19.575613 
L 208.145562 19.001962 
L 208.70898 19.001962 
L 208.732284 17.854658 
L 208.935288 17.854658 
L 208.935288 17.281006 
L 209.599683 17.281006 
L 209.599683 16.707355 
L 210.23859 16.707355 
L 210.23859 16.133703 
L 211.417642 16.133703 
L 211.481414 14.412748 
L 212.569332 14.412748 
L 212.605467 13.265444 
L 212.770732 13.265444 
L 212.770732 12.691793 
L 213.256174 12.691793 
L 213.256174 12.118141 
L 214.25532 12.118141 
L 214.25532 11.544489 
L 215.739984 11.544489 
L 215.739984 10.970838 
L 216.110991 10.970838 
L 216.147465 9.823534 
L 216.534984 9.823534 
L 216.534984 9.249882 
L 217.455681 9.249882 
L 217.456501 8.102579 
L 220.601341 8.102579 
L 220.601341 7.528927 
L 222.386839 7.528927 
L 222.386839 6.955275 
L 230.092545 6.955275 
L 230.092545 6.381624 
L 338.688 6.381624 
L 338.688 6.381624 
" style="fill:none;stroke:#ff00ff;stroke-linecap:square;stroke-width:1.5;"/>
   </g>
   <g id="line2d_36">
    <defs>
     <path d="M -0 8.485281 
L 5.091169 0 
L 0 -8.485281 
L -5.091169 -0 
z
" id="mf6c44f9640" style="stroke:#ff00ff;stroke-linejoin:miter;stroke-width:1.5;"/>
    </defs>
    <g>
     <use style="fill-opacity:0;stroke:#ff00ff;stroke-linejoin:miter;stroke-width:1.5;" x="134.577155" xlink:href="#mf6c44f9640" y="280.587145"/>
     <use style="fill-opacity:0;stroke:#ff00ff;stroke-linejoin:miter;stroke-width:1.5;" x="177.535998" xlink:href="#mf6c44f9640" y="182.492701"/>
     <use style="fill-opacity:0;stroke:#ff00ff;stroke-linejoin:miter;stroke-width:1.5;" x="208.70898" xlink:href="#mf6c44f9640" y="19.001962"/>
     <use style="fill-opacity:0;stroke:#ff00ff;stroke-linejoin:miter;stroke-width:1.5;" x="230.092545" xlink:href="#mf6c44f9640" y="6.381624"/>
     <use style="fill-opacity:0;stroke:#ff00ff;stroke-linejoin:miter;stroke-width:1.5;" x="230.092545" xlink:href="#mf6c44f9640" y="6.381624"/>
     <use style="fill-opacity:0;stroke:#ff00ff;stroke-linejoin:miter;stroke-width:1.5;" x="338.688" xlink:href="#mf6c44f9640" y="6.381624"/>
    </g>
   </g>
   <g id="line2d_37">
    <path style="fill:none;stroke:#ff00ff;stroke-linecap:square;stroke-width:1.5;"/>
    <g/>
   </g>
   <g id="line2d_38">
    <path clip-path="url(#p97713f1504)" d="M 189.757409 71.204268 
" style="fill:none;stroke:#ff00ff;stroke-linecap:square;stroke-width:1.5;"/>
    <defs>
     <path d="M -12 12 
L 12 -12 
M -12 -12 
L 12 12 
" id="m8f0bfcfdec" style="stroke:#ff00ff;"/>
    </defs>
    <g clip-path="url(#p97713f1504)">
     <use style="fill:#ff00ff;stroke:#ff00ff;" x="189.757409" xlink:href="#m8f0bfcfdec" y="71.204268"/>
    </g>
   </g>
   <g id="line2d_39">
    <defs>
     <path d="M 0 1.5 
C 0.397805 1.5 0.77937 1.341951 1.06066 1.06066 
C 1.341951 0.77937 1.5 0.397805 1.5 0 
C 1.5 -0.397805 1.341951 -0.77937 1.06066 -1.06066 
C 0.77937 -1.341951 0.397805 -1.5 0 -1.5 
C -0.397805 -1.5 -0.77937 -1.341951 -1.06066 -1.06066 
C -1.341951 -0.77937 -1.5 -0.397805 -1.5 0 
C -1.5 0.397805 -1.341951 0.77937 -1.06066 1.06066 
C -0.77937 1.341951 -0.397805 1.5 0 1.5 
z
" id="m8224b33f48" style="stroke:#ff7500;"/>
    </defs>
    <g>
     <use style="fill:#ff7500;stroke:#ff7500;" x="216.049867" xlink:href="#m8224b33f48" y="6.381624"/>
     <use style="fill:#ff7500;stroke:#ff7500;" x="216.049867" xlink:href="#m8224b33f48" y="6.381624"/>
    </g>
   </g>
   <g id="line2d_40">
    <path d="M 5.356583 298.944 
L 5.356583 283.455404 
L 17.444571 283.455404 
L 17.444571 279.439842 
L 24.515591 279.439842 
L 24.515591 278.86619 
L 29.53256 278.86619 
L 29.53256 276.571583 
L 36.60358 276.571583 
L 36.60358 275.42428 
L 39.291857 275.42428 
L 39.291857 274.850628 
L 41.620548 274.850628 
L 41.620548 274.276976 
L 48.691568 274.276976 
L 48.691568 273.129673 
L 51.379845 273.129673 
L 51.379845 272.556021 
L 60.037348 272.556021 
L 60.037348 271.982369 
L 64.67102 271.982369 
L 64.67102 271.408718 
L 65.242851 271.408718 
L 65.242851 270.835066 
L 68.79347 270.835066 
L 68.79347 270.261414 
L 80.650472 270.261414 
L 80.650472 269.687762 
L 82.626842 269.687762 
L 82.626842 269.114111 
L 88.104788 269.114111 
L 88.104788 268.540459 
L 89.277618 268.540459 
L 89.277618 267.393156 
L 94.714831 267.393156 
L 94.714831 266.819504 
L 102.060491 266.819504 
L 102.060491 266.245852 
L 102.263669 266.245852 
L 102.263669 265.6722 
L 111.545148 265.6722 
L 111.545148 265.098549 
L 114.585746 265.098549 
L 114.585746 264.524897 
L 116.621333 264.524897 
L 116.621333 263.951245 
L 118.497128 263.951245 
L 118.497128 263.377593 
L 121.264855 263.377593 
L 121.264855 262.803942 
L 122.298108 262.803942 
L 122.340747 261.656638 
L 122.926996 261.656638 
L 122.926996 261.082987 
L 123.333999 261.082987 
L 123.333999 260.509335 
L 124.024168 260.509335 
L 124.024168 259.935683 
L 126.133984 259.935683 
L 126.133984 259.362031 
L 126.888323 259.362031 
L 126.888323 258.78838 
L 129.233413 258.78838 
L 129.233413 258.214728 
L 130.7305 258.214728 
L 130.7305 257.641076 
L 131.90119 257.641076 
L 131.90119 257.067425 
L 132.505941 257.067425 
L 132.505941 256.493773 
L 133.239232 256.493773 
L 133.239232 255.920121 
L 133.431933 255.920121 
L 133.431933 255.346469 
L 133.5443 255.346469 
L 133.566687 254.199166 
L 135.229845 254.199166 
L 135.260324 253.051863 
L 136.692093 253.051863 
L 136.701442 251.904559 
L 137.433523 251.904559 
L 137.433523 251.330907 
L 137.788353 251.330907 
L 137.788353 250.757256 
L 138.204833 250.757256 
L 138.204833 250.183604 
L 138.84457 250.183604 
L 138.84457 249.609952 
L 139.793552 249.609952 
L 139.793552 249.036301 
L 140.142272 249.036301 
L 140.142272 248.462649 
L 140.708409 248.462649 
L 140.723258 247.315345 
L 140.929817 247.315345 
L 140.929817 246.741694 
L 143.716296 246.741694 
L 143.784918 245.59439 
L 144.087359 245.59439 
L 144.18499 244.447087 
L 144.65919 244.447087 
L 144.65919 243.873435 
L 145.184158 243.873435 
L 145.224334 242.726132 
L 145.48607 242.726132 
L 145.48607 242.15248 
L 145.799493 242.15248 
L 145.799493 241.578828 
L 145.976095 241.578828 
L 145.976095 240.431525 
L 146.717846 240.431525 
L 146.717846 239.857873 
L 148.108066 239.857873 
L 148.122637 238.71057 
L 148.243592 238.71057 
L 148.243592 238.136918 
L 148.549469 238.136918 
L 148.549469 237.563266 
L 148.859383 237.563266 
L 148.859383 236.989614 
L 149.44067 236.989614 
L 149.44067 236.415963 
L 149.664311 236.415963 
L 149.744125 235.268659 
L 149.788308 235.268659 
L 149.788308 234.695008 
L 150.522794 234.695008 
L 150.522794 233.547704 
L 151.215397 233.547704 
L 151.25601 232.400401 
L 151.389366 232.400401 
L 151.389366 231.826749 
L 151.545665 231.826749 
L 151.593477 230.679446 
L 151.99078 230.679446 
L 151.99078 230.105794 
L 152.188011 230.105794 
L 152.253262 228.95849 
L 152.692105 228.95849 
L 152.692105 228.384839 
L 153.061751 228.384839 
L 153.163864 227.237535 
L 153.247297 227.237535 
L 153.247297 226.663884 
L 153.876352 226.663884 
L 153.925152 225.51658 
L 155.264719 225.51658 
L 155.264719 224.942928 
L 155.466628 224.942928 
L 155.466628 224.369277 
L 155.577798 224.369277 
L 155.577798 223.795625 
L 155.735392 223.795625 
L 155.735392 223.221973 
L 155.907117 223.221973 
L 155.907117 222.648321 
L 156.212023 222.648321 
L 156.212023 222.07467 
L 156.391232 222.07467 
L 156.391232 221.501018 
L 156.505687 221.501018 
L 156.595519 220.353715 
L 156.835778 220.353715 
L 156.835778 219.780063 
L 157.026213 219.780063 
L 157.116308 218.059108 
L 157.275019 218.059108 
L 157.275019 217.485456 
L 157.664184 217.485456 
L 157.664184 216.911804 
L 157.976006 216.911804 
L 157.995311 215.764501 
L 158.214435 215.764501 
L 158.214435 215.190849 
L 159.028061 215.190849 
L 159.030659 214.043546 
L 159.293606 214.043546 
L 159.316618 212.896242 
L 159.507213 212.896242 
L 159.507213 212.322591 
L 159.638147 212.322591 
L 159.650685 211.175287 
L 160.142522 211.175287 
L 160.142522 210.601635 
L 160.358079 210.601635 
L 160.358079 210.027984 
L 160.473237 210.027984 
L 160.473237 209.454332 
L 160.940389 209.454332 
L 160.940389 208.88068 
L 161.072584 208.88068 
L 161.12334 207.733377 
L 161.327177 207.733377 
L 161.327177 207.159725 
L 161.569126 207.159725 
L 161.652016 204.865118 
L 162.132552 204.865118 
L 162.132552 204.291467 
L 162.318538 204.291467 
L 162.327141 202.570511 
L 162.447131 202.570511 
L 162.534461 200.849556 
L 162.877388 200.849556 
L 162.90653 199.702253 
L 163.142032 199.702253 
L 163.232084 197.981298 
L 163.565696 197.981298 
L 163.565696 197.407646 
L 163.764822 197.407646 
L 163.770761 196.260342 
L 164.144761 196.260342 
L 164.252911 195.113039 
L 164.341251 195.113039 
L 164.402441 193.965736 
L 164.556377 193.965736 
L 164.618704 192.818432 
L 164.723964 192.818432 
L 164.80436 191.671129 
L 164.921483 191.671129 
L 164.934449 190.523825 
L 165.491999 190.523825 
L 165.491999 189.950174 
L 165.641985 189.950174 
L 165.721807 188.80287 
L 165.788929 188.80287 
L 165.832947 187.655567 
L 165.995728 187.655567 
L 166.030537 185.934612 
L 166.182876 185.934612 
L 166.292838 184.213656 
L 166.88223 184.213656 
L 166.88223 183.640005 
L 167.022411 183.640005 
L 167.035547 182.492701 
L 167.198914 182.492701 
L 167.198914 181.91905 
L 167.421876 181.91905 
L 167.452352 180.771746 
L 167.568949 180.771746 
L 167.568949 180.198094 
L 167.78097 180.198094 
L 167.820242 179.050791 
L 167.98889 179.050791 
L 167.98889 178.477139 
L 168.335087 178.477139 
L 168.335087 177.903487 
L 168.504887 177.903487 
L 168.504887 177.329836 
L 168.640146 177.329836 
L 168.649126 176.182532 
L 168.771393 176.182532 
L 168.798117 175.035229 
L 168.932602 175.035229 
L 168.932602 174.461577 
L 169.114201 174.461577 
L 169.191247 172.740622 
L 169.278061 172.740622 
L 169.312665 171.593319 
L 169.476106 171.593319 
L 169.476106 171.019667 
L 169.647923 171.019667 
L 169.647923 170.446015 
L 169.893462 170.446015 
L 169.994873 168.151408 
L 170.102583 168.151408 
L 170.168537 167.004105 
L 170.216472 167.004105 
L 170.216472 166.430453 
L 170.510761 166.430453 
L 170.543006 165.28315 
L 170.789582 165.28315 
L 170.789582 164.709498 
L 171.03533 164.709498 
L 171.095254 162.988543 
L 171.158861 162.988543 
L 171.158861 162.414891 
L 171.294385 162.414891 
L 171.294385 161.841239 
L 171.631811 161.841239 
L 171.641897 160.693936 
L 171.75496 160.693936 
L 171.831177 158.972981 
L 171.900854 158.972981 
L 171.977674 157.825677 
L 172.098413 157.825677 
L 172.163364 154.957419 
L 172.388202 154.957419 
L 172.388202 154.383767 
L 172.573178 154.383767 
L 172.619713 153.236464 
L 172.69225 153.236464 
L 172.714783 151.515508 
L 172.816408 151.515508 
L 172.816408 150.941857 
L 172.964239 150.941857 
L 172.964239 150.368205 
L 173.078358 150.368205 
L 173.078358 149.794553 
L 173.213633 149.794553 
L 173.261938 148.073598 
L 173.586235 148.073598 
L 173.649253 145.778991 
L 173.885782 145.778991 
L 173.974211 144.058036 
L 174.145369 144.058036 
L 174.241183 142.910733 
L 174.275895 142.910733 
L 174.338634 141.189778 
L 174.407602 141.189778 
L 174.478442 139.468822 
L 174.555394 139.468822 
L 174.619262 137.747867 
L 174.786339 137.747867 
L 174.871376 136.600564 
L 175.052656 136.600564 
L 175.116798 134.879609 
L 175.253602 134.879609 
L 175.363906 133.158653 
L 175.511921 133.158653 
L 175.511921 132.585002 
L 175.64467 132.585002 
L 175.74158 129.716743 
L 175.776416 129.716743 
L 175.809197 128.56944 
L 175.962352 128.56944 
L 176.060453 127.422136 
L 176.198814 127.422136 
L 176.261784 126.274833 
L 176.475152 126.274833 
L 176.533326 124.553878 
L 176.649095 124.553878 
L 176.649095 123.980226 
L 176.921237 123.980226 
L 176.955655 122.832923 
L 177.182778 122.832923 
L 177.2423 121.685619 
L 177.357104 121.685619 
L 177.455813 118.817361 
L 177.612236 118.817361 
L 177.655142 117.670057 
L 177.824832 117.670057 
L 177.917418 115.949102 
L 177.954316 115.949102 
L 177.969228 114.801798 
L 178.098519 114.801798 
L 178.185338 111.93354 
L 178.285509 111.93354 
L 178.358547 109.638933 
L 178.42701 109.638933 
L 178.529204 107.917978 
L 178.590234 107.917978 
L 178.590234 107.344326 
L 178.704092 107.344326 
L 178.774564 106.197023 
L 178.868919 106.197023 
L 178.954481 103.902416 
L 179.094788 103.902416 
L 179.204593 102.755112 
L 179.347773 102.755112 
L 179.347773 102.181461 
L 179.522703 102.181461 
L 179.522703 101.607809 
L 179.664896 101.607809 
L 179.664896 101.034157 
L 179.87289 101.034157 
L 179.87289 100.460506 
L 180.037985 100.460506 
L 180.121887 98.73955 
L 180.186095 98.73955 
L 180.278509 97.592247 
L 180.38342 97.592247 
L 180.472518 95.29764 
L 180.536964 95.29764 
L 180.536964 94.723988 
L 180.682414 94.723988 
L 180.752071 93.003033 
L 180.799846 93.003033 
L 180.854923 91.85573 
L 180.915752 91.85573 
L 180.963081 90.134775 
L 181.063231 90.134775 
L 181.167919 87.840168 
L 181.226212 87.840168 
L 181.226212 87.266516 
L 181.34005 87.266516 
L 181.407134 84.971909 
L 181.456022 84.971909 
L 181.541962 81.529999 
L 181.608987 81.529999 
L 181.608987 80.956347 
L 181.823298 80.956347 
L 181.922136 77.514437 
L 181.936111 77.514437 
L 182.032924 74.646178 
L 182.066925 74.646178 
L 182.092555 73.498875 
L 182.187818 73.498875 
L 182.27914 70.630616 
L 182.357718 70.630616 
L 182.441373 68.909661 
L 182.477973 68.909661 
L 182.576546 66.615054 
L 182.640388 66.615054 
L 182.705334 65.467751 
L 182.788007 65.467751 
L 182.797981 64.320447 
L 182.979838 64.320447 
L 183.041568 62.02584 
L 183.165678 62.02584 
L 183.261097 59.731234 
L 183.298602 59.731234 
L 183.401649 57.436627 
L 183.700242 57.436627 
L 183.788393 55.14202 
L 183.8442 55.14202 
L 183.946572 53.421065 
L 184.000636 53.421065 
L 184.000636 52.847413 
L 184.165517 52.847413 
L 184.261135 49.979154 
L 184.358056 49.979154 
L 184.411467 48.831851 
L 184.479812 48.831851 
L 184.479812 48.258199 
L 184.648617 48.258199 
L 184.754113 46.537244 
L 184.790323 46.537244 
L 184.898504 43.668985 
L 184.902629 43.668985 
L 184.992542 41.94803 
L 185.10181 41.94803 
L 185.201133 39.653423 
L 185.241629 39.653423 
L 185.345331 36.211513 
L 185.381482 36.211513 
L 185.397525 35.06421 
L 185.508845 35.06421 
L 185.553743 32.769603 
L 185.731624 32.769603 
L 185.759693 31.622299 
L 185.898808 31.622299 
L 185.933831 29.327692 
L 186.021357 29.327692 
L 186.121637 26.459434 
L 186.15128 26.459434 
L 186.171562 24.164827 
L 186.370926 24.164827 
L 186.408797 23.017524 
L 186.486447 23.017524 
L 186.597466 19.575613 
L 186.622575 19.575613 
L 186.656708 17.854658 
L 186.777237 17.854658 
L 186.814765 16.707355 
L 186.977682 16.707355 
L 187.051803 14.412748 
L 187.154114 14.412748 
L 187.220785 12.691793 
L 187.493588 12.691793 
L 187.493588 12.118141 
L 187.604956 12.118141 
L 187.604956 11.544489 
L 202.326856 11.544489 
L 202.335531 10.397186 
L 202.469234 10.397186 
L 202.469234 9.823534 
L 203.101223 9.823534 
L 203.182379 8.102579 
L 203.243823 8.102579 
L 203.307512 6.955275 
L 216.049867 6.955275 
L 216.049867 6.381624 
L 338.688 6.381624 
L 338.688 6.381624 
" style="fill:none;stroke:#ff7500;stroke-linecap:square;stroke-width:1.5;"/>
   </g>
   <g id="line2d_41">
    <defs>
     <path d="M 0 -6 
L -1.347084 -1.854102 
L -5.706339 -1.854102 
L -2.179628 0.708204 
L -3.526712 4.854102 
L -0 2.291796 
L 3.526712 4.854102 
L 2.179628 0.708204 
L 5.706339 -1.854102 
L 1.347084 -1.854102 
z
" id="m92300eac9d" style="stroke:#ff7500;stroke-linejoin:bevel;stroke-width:1.5;"/>
    </defs>
    <g>
     <use style="fill-opacity:0;stroke:#ff7500;stroke-linejoin:bevel;stroke-width:1.5;" x="102.263669" xlink:href="#m92300eac9d" y="266.245852"/>
     <use style="fill-opacity:0;stroke:#ff7500;stroke-linejoin:bevel;stroke-width:1.5;" x="162.132552" xlink:href="#m92300eac9d" y="204.865118"/>
     <use style="fill-opacity:0;stroke:#ff7500;stroke-linejoin:bevel;stroke-width:1.5;" x="186.656708" xlink:href="#m92300eac9d" y="18.42831"/>
     <use style="fill-opacity:0;stroke:#ff7500;stroke-linejoin:bevel;stroke-width:1.5;" x="216.049867" xlink:href="#m92300eac9d" y="6.381624"/>
     <use style="fill-opacity:0;stroke:#ff7500;stroke-linejoin:bevel;stroke-width:1.5;" x="216.049867" xlink:href="#m92300eac9d" y="6.381624"/>
     <use style="fill-opacity:0;stroke:#ff7500;stroke-linejoin:bevel;stroke-width:1.5;" x="338.688" xlink:href="#m92300eac9d" y="6.381624"/>
    </g>
   </g>
   <g id="line2d_42">
    <path style="fill:none;stroke:#ff7500;stroke-linecap:square;stroke-width:1.5;"/>
    <g/>
   </g>
   <g id="line2d_43">
    <path clip-path="url(#p97713f1504)" d="M 194.628816 11.544489 
" style="fill:none;stroke:#ff7500;stroke-linecap:square;stroke-width:1.5;"/>
    <defs>
     <path d="M -12 12 
L 12 -12 
M -12 -12 
L 12 12 
" id="m940ca87f1b" style="stroke:#ff7500;"/>
    </defs>
    <g clip-path="url(#p97713f1504)">
     <use style="fill:#ff7500;stroke:#ff7500;" x="194.628816" xlink:href="#m940ca87f1b" y="11.544489"/>
    </g>
   </g>
   <g id="line2d_44">
    <defs>
     <path d="M 0 1.5 
C 0.397805 1.5 0.77937 1.341951 1.06066 1.06066 
C 1.341951 0.77937 1.5 0.397805 1.5 0 
C 1.5 -0.397805 1.341951 -0.77937 1.06066 -1.06066 
C 0.77937 -1.341951 0.397805 -1.5 0 -1.5 
C -0.397805 -1.5 -0.77937 -1.341951 -1.06066 -1.06066 
C -1.341951 -0.77937 -1.5 -0.397805 -1.5 0 
C -1.5 0.397805 -1.341951 0.77937 -1.06066 1.06066 
C -0.77937 1.341951 -0.397805 1.5 0 1.5 
z
" id="m47405220a4" style="stroke:#6495ed;"/>
    </defs>
    <g>
     <use style="fill:#6495ed;stroke:#6495ed;" x="244.196078" xlink:href="#m47405220a4" y="6.381624"/>
     <use style="fill:#6495ed;stroke:#6495ed;" x="244.196078" xlink:href="#m47405220a4" y="6.381624"/>
    </g>
   </g>
   <g id="line2d_45">
    <path d="M 5.356583 298.944 
L 5.356583 293.781135 
L 17.444571 293.781135 
L 17.444571 292.060179 
L 24.515591 292.060179 
L 24.515591 291.486528 
L 29.53256 291.486528 
L 29.53256 290.912876 
L 39.291857 290.912876 
L 39.291857 290.339224 
L 45.512012 290.339224 
L 45.512012 289.765573 
L 55.762588 289.765573 
L 55.762588 289.191921 
L 62.833608 289.191921 
L 62.833608 288.618269 
L 70.949209 288.618269 
L 70.949209 288.044617 
L 87.487404 288.044617 
L 87.487404 287.470966 
L 92.147241 287.470966 
L 92.147241 286.897314 
L 92.504372 286.897314 
L 92.504372 286.323662 
L 92.854336 286.323662 
L 92.854336 285.75001 
L 93.310291 285.75001 
L 93.310291 285.176359 
L 96.395835 285.176359 
L 96.395835 284.602707 
L 99.016649 284.602707 
L 99.016649 283.455404 
L 100.040467 283.455404 
L 100.040467 282.881752 
L 100.567829 282.881752 
L 100.567829 282.3081 
L 107.762095 282.3081 
L 107.762095 281.734448 
L 113.839203 281.734448 
L 113.839203 281.160797 
L 115.10929 281.160797 
L 115.10929 280.587145 
L 115.835374 280.587145 
L 115.835374 280.013493 
L 119.326492 280.013493 
L 119.326492 279.439842 
L 121.953191 279.439842 
L 121.953191 278.86619 
L 122.255364 278.86619 
L 122.255364 278.292538 
L 122.531342 278.292538 
L 122.636335 277.145235 
L 124.854767 277.145235 
L 124.854767 276.571583 
L 125.559298 276.571583 
L 125.559298 275.997931 
L 127.54831 275.997931 
L 127.54831 275.42428 
L 128.60556 275.42428 
L 128.60556 274.850628 
L 129.031467 274.850628 
L 129.031467 274.276976 
L 129.602362 274.276976 
L 129.700375 273.129673 
L 131.925787 273.129673 
L 131.925787 272.556021 
L 133.454465 272.556021 
L 133.454465 271.982369 
L 134.629858 271.982369 
L 134.629858 271.408718 
L 135.371629 271.408718 
L 135.371629 270.835066 
L 136.160425 270.835066 
L 136.198943 269.687762 
L 137.144368 269.687762 
L 137.144368 269.114111 
L 138.213405 269.114111 
L 138.213405 268.540459 
L 139.525372 268.540459 
L 139.525372 267.966807 
L 139.707238 267.966807 
L 139.707238 267.393156 
L 141.024894 267.393156 
L 141.024894 266.819504 
L 141.148448 266.819504 
L 141.148448 266.245852 
L 141.407239 266.245852 
L 141.407239 265.6722 
L 141.605898 265.6722 
L 141.662245 264.524897 
L 142.037896 264.524897 
L 142.037896 263.951245 
L 142.519806 263.951245 
L 142.519806 263.377593 
L 143.871866 263.377593 
L 143.871866 262.803942 
L 144.474645 262.803942 
L 144.474645 262.23029 
L 145.022521 262.23029 
L 145.091978 261.082987 
L 145.195646 261.082987 
L 145.195646 260.509335 
L 145.542453 260.509335 
L 145.542453 259.935683 
L 146.036391 259.935683 
L 146.074653 258.78838 
L 146.216039 258.78838 
L 146.216039 258.214728 
L 146.532686 258.214728 
L 146.532686 257.641076 
L 146.921878 257.641076 
L 146.921878 257.067425 
L 147.302574 257.067425 
L 147.302574 256.493773 
L 147.444481 256.493773 
L 147.444481 255.920121 
L 147.78438 255.920121 
L 147.78438 255.346469 
L 147.927346 255.346469 
L 147.927346 254.772818 
L 148.714503 254.772818 
L 148.714503 254.199166 
L 149.131841 254.199166 
L 149.218684 253.051863 
L 149.277854 253.051863 
L 149.305096 251.904559 
L 150.111834 251.904559 
L 150.111834 251.330907 
L 150.412445 251.330907 
L 150.412445 250.757256 
L 151.736131 250.757256 
L 151.736131 250.183604 
L 151.901098 250.183604 
L 151.901098 249.609952 
L 152.639723 249.609952 
L 152.699575 248.462649 
L 153.047115 248.462649 
L 153.047115 247.888997 
L 153.693887 247.888997 
L 153.799388 246.741694 
L 153.897283 246.741694 
L 153.897283 246.168042 
L 154.307314 246.168042 
L 154.307314 245.59439 
L 154.734529 245.59439 
L 154.794242 243.873435 
L 154.89331 243.873435 
L 154.965604 242.726132 
L 155.495282 242.726132 
L 155.60627 241.578828 
L 155.634696 241.578828 
L 155.669376 240.431525 
L 156.433487 240.431525 
L 156.433487 239.857873 
L 156.610446 239.857873 
L 156.610446 239.284221 
L 156.782672 239.284221 
L 156.844613 238.136918 
L 157.072772 238.136918 
L 157.072772 237.563266 
L 157.503322 237.563266 
L 157.517493 236.415963 
L 157.984282 236.415963 
L 157.984282 235.842311 
L 158.132586 235.842311 
L 158.132586 235.268659 
L 158.522004 235.268659 
L 158.60205 234.121356 
L 158.68173 234.121356 
L 158.774233 232.400401 
L 158.818986 232.400401 
L 158.847883 231.253097 
L 159.046236 231.253097 
L 159.046236 230.679446 
L 159.157472 230.679446 
L 159.157472 230.105794 
L 159.337048 230.105794 
L 159.337048 229.532142 
L 160.244578 229.532142 
L 160.326759 227.811187 
L 160.642194 227.811187 
L 160.642194 227.237535 
L 160.86807 227.237535 
L 160.86807 226.663884 
L 161.116428 226.663884 
L 161.116428 226.090232 
L 161.281578 226.090232 
L 161.290707 224.942928 
L 161.472297 224.942928 
L 161.472297 224.369277 
L 161.600536 224.369277 
L 161.600536 223.795625 
L 161.92257 223.795625 
L 161.92257 223.221973 
L 162.145593 223.221973 
L 162.204154 222.07467 
L 162.264677 222.07467 
L 162.264677 221.501018 
L 162.417211 221.501018 
L 162.432178 220.353715 
L 162.617127 220.353715 
L 162.617127 219.780063 
L 162.749842 219.780063 
L 162.749842 219.206411 
L 162.929393 219.206411 
L 162.981243 218.059108 
L 163.146135 218.059108 
L 163.150238 216.911804 
L 163.679476 216.911804 
L 163.788565 214.043546 
L 163.987132 214.043546 
L 164.051523 212.896242 
L 164.373785 212.896242 
L 164.373785 212.322591 
L 164.682688 212.322591 
L 164.682688 211.748939 
L 164.943704 211.748939 
L 164.943704 211.175287 
L 165.136934 211.175287 
L 165.175324 209.454332 
L 165.291805 209.454332 
L 165.349755 208.307029 
L 165.534984 208.307029 
L 165.534984 207.733377 
L 165.697012 207.733377 
L 165.697012 207.159725 
L 165.987015 207.159725 
L 165.987015 206.586073 
L 166.236226 206.586073 
L 166.31509 205.43877 
L 166.6119 205.43877 
L 166.638786 204.291467 
L 167.061789 204.291467 
L 167.061789 203.717815 
L 167.278408 203.717815 
L 167.310751 202.570511 
L 167.549836 202.570511 
L 167.646779 201.423208 
L 167.738456 201.423208 
L 167.747913 200.275904 
L 167.887585 200.275904 
L 167.982673 199.128601 
L 168.004423 199.128601 
L 168.004423 198.554949 
L 168.171308 198.554949 
L 168.175921 197.407646 
L 168.448975 197.407646 
L 168.538048 195.686691 
L 168.572648 195.686691 
L 168.662588 193.392084 
L 168.845527 193.392084 
L 168.845527 192.818432 
L 168.986987 192.818432 
L 168.986987 192.24478 
L 169.312665 192.24478 
L 169.312665 191.671129 
L 169.560096 191.671129 
L 169.649336 190.523825 
L 169.686032 190.523825 
L 169.790055 188.229218 
L 169.801264 188.229218 
L 169.801264 187.655567 
L 169.922695 187.655567 
L 169.922695 187.081915 
L 170.04743 187.081915 
L 170.04743 186.508263 
L 170.251995 186.508263 
L 170.351349 184.213656 
L 170.704674 184.213656 
L 170.720626 183.066353 
L 170.831881 183.066353 
L 170.831881 182.492701 
L 171.344456 182.492701 
L 171.344456 181.91905 
L 171.470916 181.91905 
L 171.470916 181.345398 
L 171.660792 181.345398 
L 171.660792 180.771746 
L 171.802478 180.771746 
L 171.882218 179.050791 
L 172.079986 179.050791 
L 172.079986 178.477139 
L 172.231729 178.477139 
L 172.258514 177.329836 
L 172.428005 177.329836 
L 172.428005 176.756184 
L 172.555247 176.756184 
L 172.634007 174.461577 
L 172.850543 174.461577 
L 172.850543 173.887925 
L 173.071393 173.887925 
L 173.071393 173.314274 
L 173.250449 173.314274 
L 173.341007 172.16697 
L 173.38668 172.16697 
L 173.491278 169.872363 
L 173.568187 169.872363 
L 173.568187 169.298712 
L 173.794675 169.298712 
L 173.868043 167.577757 
L 173.916784 167.577757 
L 174.014959 166.430453 
L 174.069872 166.430453 
L 174.069872 165.856801 
L 174.204227 165.856801 
L 174.241183 164.135846 
L 174.32243 164.135846 
L 174.353744 162.988543 
L 174.499851 162.988543 
L 174.499851 162.414891 
L 174.70723 162.414891 
L 174.795808 161.267588 
L 175.155995 161.267588 
L 175.181734 160.120284 
L 175.384257 160.120284 
L 175.479587 158.399329 
L 175.567356 158.399329 
L 175.632643 156.678374 
L 176.164813 156.678374 
L 176.209486 155.53107 
L 176.330308 155.53107 
L 176.386086 153.810115 
L 176.666111 153.810115 
L 176.666111 153.236464 
L 176.808204 153.236464 
L 176.877419 151.515508 
L 177.012251 151.515508 
L 177.090809 149.794553 
L 177.264226 149.794553 
L 177.352563 148.64725 
L 177.442262 148.64725 
L 177.466646 147.499946 
L 177.660498 147.499946 
L 177.688143 146.352643 
L 177.822179 146.352643 
L 177.879561 145.20534 
L 177.949927 145.20534 
L 178.003391 143.484384 
L 178.144586 143.484384 
L 178.144586 142.910733 
L 178.309602 142.910733 
L 178.38254 141.763429 
L 178.55805 141.763429 
L 178.609684 140.042474 
L 178.678013 140.042474 
L 178.678013 139.468822 
L 178.839748 139.468822 
L 178.919642 137.174215 
L 179.17598 137.174215 
L 179.210311 136.026912 
L 179.359921 136.026912 
L 179.359921 135.45326 
L 179.483356 135.45326 
L 179.504245 134.305957 
L 179.721291 134.305957 
L 179.746649 132.585002 
L 179.972447 132.585002 
L 179.972447 132.01135 
L 180.143574 132.01135 
L 180.143574 131.437698 
L 180.318403 131.437698 
L 180.358972 129.716743 
L 180.583821 129.716743 
L 180.633564 127.995788 
L 180.977845 127.995788 
L 181.013964 126.848485 
L 181.173757 126.848485 
L 181.244389 125.127529 
L 181.689928 125.127529 
L 181.689928 124.553878 
L 182.048892 124.553878 
L 182.139561 123.406574 
L 182.18231 123.406574 
L 182.18231 122.832923 
L 182.401296 122.832923 
L 182.401296 122.259271 
L 182.669878 122.259271 
L 182.724037 121.111967 
L 182.92251 121.111967 
L 182.92251 120.538316 
L 183.057949 120.538316 
L 183.057949 119.964664 
L 183.244258 119.964664 
L 183.259155 118.817361 
L 183.459346 118.817361 
L 183.459346 118.243709 
L 183.805342 118.243709 
L 183.897334 115.949102 
L 184.103329 115.949102 
L 184.103329 115.37545 
L 184.234219 115.37545 
L 184.234219 114.801798 
L 184.445975 114.801798 
L 184.513584 113.654495 
L 184.587531 113.654495 
L 184.607917 112.507192 
L 184.772524 112.507192 
L 184.772524 111.93354 
L 184.940884 111.93354 
L 184.988438 110.786236 
L 185.097149 110.786236 
L 185.197657 109.065281 
L 185.395807 109.065281 
L 185.455843 107.917978 
L 185.744542 107.917978 
L 185.744542 107.344326 
L 186.115043 107.344326 
L 186.115043 106.770674 
L 186.258996 106.770674 
L 186.258996 106.197023 
L 186.386625 106.197023 
L 186.464373 105.049719 
L 186.722651 105.049719 
L 186.807372 103.902416 
L 186.853267 103.902416 
L 186.936833 102.181461 
L 186.985526 102.181461 
L 187.054407 101.034157 
L 187.279493 101.034157 
L 187.304153 99.886854 
L 187.404488 99.886854 
L 187.48292 98.73955 
L 187.524538 98.73955 
L 187.524538 98.165899 
L 187.795162 98.165899 
L 187.795162 97.592247 
L 188.081793 97.592247 
L 188.150886 96.444944 
L 188.279036 96.444944 
L 188.362339 95.29764 
L 188.462549 95.29764 
L 188.462549 94.723988 
L 188.748429 94.723988 
L 188.755044 93.576685 
L 199.79207 93.576685 
L 199.89338 92.429381 
L 200.133901 92.429381 
L 200.133901 91.85573 
L 200.438728 91.85573 
L 200.438728 91.282078 
L 200.711921 91.282078 
L 200.711921 90.708426 
L 200.845394 90.708426 
L 200.929974 89.561123 
L 201.435409 89.561123 
L 201.512636 88.413819 
L 201.551462 88.413819 
L 201.62479 86.692864 
L 201.692863 86.692864 
L 201.770305 85.545561 
L 201.830226 85.545561 
L 201.830226 84.971909 
L 201.997051 84.971909 
L 202.079539 82.677302 
L 202.25207 82.677302 
L 202.342685 80.956347 
L 202.424636 80.956347 
L 202.529164 78.088089 
L 202.571998 78.088089 
L 202.571998 77.514437 
L 202.784816 77.514437 
L 202.784816 76.940785 
L 202.937349 76.940785 
L 203.003835 75.793482 
L 203.161919 75.793482 
L 203.161919 75.21983 
L 203.355229 75.21983 
L 203.45373 73.498875 
L 203.466538 73.498875 
L 203.466538 72.925223 
L 203.609217 72.925223 
L 203.708904 71.204268 
L 204.114583 71.204268 
L 204.114583 70.630616 
L 204.270524 70.630616 
L 204.344303 69.483313 
L 204.383486 69.483313 
L 204.461973 67.762358 
L 204.637668 67.762358 
L 204.651344 66.615054 
L 204.945979 66.615054 
L 204.945979 66.041402 
L 205.560598 66.041402 
L 205.560598 65.467751 
L 207.648438 65.467751 
L 207.682141 64.320447 
L 207.926331 64.320447 
L 207.926331 63.746796 
L 209.096714 63.746796 
L 209.096714 63.173144 
L 209.739508 63.173144 
L 209.81324 62.02584 
L 209.914342 62.02584 
L 209.914342 61.452189 
L 210.27081 61.452189 
L 210.27081 60.878537 
L 210.734104 60.878537 
L 210.734104 60.304885 
L 210.915605 60.304885 
L 210.966173 59.157582 
L 211.30405 59.157582 
L 211.401404 57.436627 
L 211.433993 57.436627 
L 211.433993 56.862975 
L 211.560674 56.862975 
L 211.659151 55.715672 
L 211.93954 55.715672 
L 211.93954 55.14202 
L 212.16497 55.14202 
L 212.16497 54.568368 
L 212.432667 54.568368 
L 212.483391 52.847413 
L 212.627713 52.847413 
L 212.627713 52.273761 
L 212.881466 52.273761 
L 212.93905 50.552806 
L 213.158412 50.552806 
L 213.194861 49.405503 
L 214.421243 49.405503 
L 214.421243 48.831851 
L 215.799698 48.831851 
L 215.878368 47.110896 
L 216.072567 47.110896 
L 216.072567 46.537244 
L 216.285296 46.537244 
L 216.323644 45.389941 
L 216.399217 45.389941 
L 216.487855 43.668985 
L 216.557925 43.668985 
L 216.557925 43.095334 
L 216.764187 43.095334 
L 216.800267 41.374379 
L 217.357642 41.374379 
L 217.392883 40.227075 
L 217.768739 40.227075 
L 217.875532 39.079772 
L 217.946188 39.079772 
L 217.946188 38.50612 
L 218.372088 38.50612 
L 218.450149 37.358817 
L 219.098719 37.358817 
L 219.098719 36.785165 
L 219.347683 36.785165 
L 219.347683 36.211513 
L 220.078717 36.211513 
L 220.078717 35.637861 
L 220.363439 35.637861 
L 220.363439 35.06421 
L 220.661033 35.06421 
L 220.661033 34.490558 
L 221.22167 34.490558 
L 221.22167 33.916906 
L 221.397492 33.916906 
L 221.397492 33.343255 
L 221.55457 33.343255 
L 221.557091 32.195951 
L 221.742269 32.195951 
L 221.742269 31.622299 
L 221.889997 31.622299 
L 221.9267 30.474996 
L 222.088117 30.474996 
L 222.088117 29.901344 
L 222.692477 29.901344 
L 222.743013 28.180389 
L 223.233407 28.180389 
L 223.233407 27.606737 
L 223.712933 27.606737 
L 223.712933 27.033086 
L 223.931381 27.033086 
L 223.931381 26.459434 
L 225.536395 26.459434 
L 225.536395 25.885782 
L 226.124101 25.885782 
L 226.153285 24.738479 
L 226.387148 24.738479 
L 226.387148 24.164827 
L 226.573681 24.164827 
L 226.573681 23.591175 
L 226.892299 23.591175 
L 226.892299 23.017524 
L 227.479028 23.017524 
L 227.479028 22.443872 
L 227.598413 22.443872 
L 227.598413 21.87022 
L 227.951289 21.87022 
L 227.951289 21.296568 
L 228.165141 21.296568 
L 228.261411 20.149265 
L 228.349836 20.149265 
L 228.352665 19.001962 
L 228.604088 19.001962 
L 228.648983 17.281006 
L 228.828982 17.281006 
L 228.828982 16.707355 
L 229.182058 16.707355 
L 229.269511 15.560051 
L 229.447005 15.560051 
L 229.447005 14.9864 
L 230.042679 14.9864 
L 230.042679 14.412748 
L 231.062467 14.412748 
L 231.066433 13.265444 
L 231.717807 13.265444 
L 231.717807 12.691793 
L 232.657387 12.691793 
L 232.657387 12.118141 
L 232.859399 12.118141 
L 232.859399 11.544489 
L 234.768451 11.544489 
L 234.768451 10.970838 
L 234.932571 10.970838 
L 234.932571 10.397186 
L 235.785736 10.397186 
L 235.785736 9.823534 
L 236.095598 9.823534 
L 236.095598 9.249882 
L 236.253109 9.249882 
L 236.307936 8.102579 
L 240.424745 8.102579 
L 240.424745 7.528927 
L 241.6199 7.528927 
L 241.6199 6.955275 
L 244.196078 6.955275 
L 244.196078 6.381624 
L 338.688 6.381624 
L 338.688 6.381624 
" style="fill:none;stroke:#6495ed;stroke-linecap:square;stroke-width:1.5;"/>
   </g>
   <g id="line2d_46">
    <defs>
     <path d="M -0 6 
L 6 -6 
L -6 -6 
z
" id="mad99124548" style="stroke:#6495ed;stroke-linejoin:miter;stroke-width:1.5;"/>
    </defs>
    <g>
     <use style="fill-opacity:0;stroke:#6495ed;stroke-linejoin:miter;stroke-width:1.5;" x="142.519806" xlink:href="#mad99124548" y="263.377593"/>
     <use style="fill-opacity:0;stroke:#6495ed;stroke-linejoin:miter;stroke-width:1.5;" x="182.401296" xlink:href="#mad99124548" y="122.832923"/>
     <use style="fill-opacity:0;stroke:#6495ed;stroke-linejoin:miter;stroke-width:1.5;" x="219.347683" xlink:href="#mad99124548" y="36.785165"/>
     <use style="fill-opacity:0;stroke:#6495ed;stroke-linejoin:miter;stroke-width:1.5;" x="244.196078" xlink:href="#mad99124548" y="6.381624"/>
     <use style="fill-opacity:0;stroke:#6495ed;stroke-linejoin:miter;stroke-width:1.5;" x="244.196078" xlink:href="#mad99124548" y="6.381624"/>
     <use style="fill-opacity:0;stroke:#6495ed;stroke-linejoin:miter;stroke-width:1.5;" x="338.688" xlink:href="#mad99124548" y="6.381624"/>
    </g>
   </g>
   <g id="line2d_47">
    <path style="fill:none;stroke:#6495ed;stroke-linecap:square;stroke-width:1.5;"/>
    <g/>
   </g>
   <g id="line2d_48">
    <path clip-path="url(#p97713f1504)" d="M 195.50055 93.576685 
" style="fill:none;stroke:#6495ed;stroke-linecap:square;stroke-width:1.5;"/>
    <defs>
     <path d="M -12 12 
L 12 -12 
M -12 -12 
L 12 12 
" id="me2480a7a44" style="stroke:#6495ed;"/>
    </defs>
    <g clip-path="url(#p97713f1504)">
     <use style="fill:#6495ed;stroke:#6495ed;" x="195.50055" xlink:href="#me2480a7a44" y="93.576685"/>
    </g>
   </g>
   <g id="line2d_49">
    <defs>
     <path d="M 0 1.5 
C 0.397805 1.5 0.77937 1.341951 1.06066 1.06066 
C 1.341951 0.77937 1.5 0.397805 1.5 0 
C 1.5 -0.397805 1.341951 -0.77937 1.06066 -1.06066 
C 0.77937 -1.341951 0.397805 -1.5 0 -1.5 
C -0.397805 -1.5 -0.77937 -1.341951 -1.06066 -1.06066 
C -1.341951 -0.77937 -1.5 -0.397805 -1.5 0 
C -1.5 0.397805 -1.341951 0.77937 -1.06066 1.06066 
C -0.77937 1.341951 -0.397805 1.5 0 1.5 
z
" id="m6a57acebbd" style="stroke:#ff0000;"/>
    </defs>
    <g>
     <use style="fill:#ff0000;stroke:#ff0000;" x="267.475526" xlink:href="#m6a57acebbd" y="195.686691"/>
     <use style="fill:#ff0000;stroke:#ff0000;" x="267.475526" xlink:href="#m6a57acebbd" y="195.686691"/>
    </g>
   </g>
   <g id="line2d_50">
    <path d="M 5.356583 298.944 
L 5.356583 271.982369 
L 17.444571 271.982369 
L 17.444571 270.835066 
L 24.515591 270.835066 
L 24.515591 270.261414 
L 29.53256 270.261414 
L 29.53256 269.687762 
L 43.6746 269.687762 
L 43.6746 269.114111 
L 50.087456 269.114111 
L 50.087456 268.540459 
L 51.379845 268.540459 
L 51.379845 267.966807 
L 59.262141 267.966807 
L 59.262141 267.393156 
L 64.079801 267.393156 
L 64.079801 266.819504 
L 67.850577 266.819504 
L 67.850577 266.245852 
L 69.246464 266.245852 
L 69.246464 265.6722 
L 70.538854 265.6722 
L 70.538854 265.098549 
L 78.941764 265.098549 
L 78.941764 264.524897 
L 100.86217 264.524897 
L 100.86217 263.951245 
L 110.231452 263.951245 
L 110.231452 263.377593 
L 110.61104 263.377593 
L 110.61104 262.803942 
L 115.4287 262.803942 
L 115.4287 262.23029 
L 118.760566 262.23029 
L 118.760566 261.656638 
L 120.829137 261.656638 
L 120.829137 261.082987 
L 122.298108 261.082987 
L 122.298108 260.509335 
L 124.799375 260.509335 
L 124.799375 259.935683 
L 131.938072 259.935683 
L 131.938072 259.362031 
L 136.96118 259.362031 
L 136.96118 258.78838 
L 159.557689 258.78838 
L 159.557689 258.214728 
L 160.203341 258.214728 
L 160.203341 257.641076 
L 161.395353 257.641076 
L 161.395353 257.067425 
L 167.141909 257.067425 
L 167.141909 256.493773 
L 170.831881 256.493773 
L 170.831881 255.920121 
L 171.488725 255.920121 
L 171.488725 255.346469 
L 172.342255 255.346469 
L 172.342255 254.772818 
L 173.045829 254.772818 
L 173.045829 254.199166 
L 173.718759 254.199166 
L 173.718759 253.625514 
L 177.02614 253.625514 
L 177.02614 253.051863 
L 177.308905 253.051863 
L 177.308905 252.478211 
L 177.704175 252.478211 
L 177.704175 251.904559 
L 178.017387 251.904559 
L 178.028751 250.757256 
L 178.495206 250.757256 
L 178.495206 250.183604 
L 178.856423 250.183604 
L 178.856423 249.609952 
L 179.135021 249.609952 
L 179.207044 248.462649 
L 179.523505 248.462649 
L 179.523505 247.888997 
L 179.852438 247.888997 
L 179.9615 246.168042 
L 180.38571 246.168042 
L 180.489221 245.020738 
L 180.653872 245.020738 
L 180.653872 244.447087 
L 180.969726 244.447087 
L 180.969726 243.873435 
L 181.151854 243.873435 
L 181.151854 243.299783 
L 181.272707 243.299783 
L 181.368214 242.15248 
L 181.512647 242.15248 
L 181.512647 241.578828 
L 181.714703 241.578828 
L 181.714703 241.005176 
L 181.826813 241.005176 
L 181.826813 240.431525 
L 181.938206 240.431525 
L 181.938206 239.857873 
L 182.114692 239.857873 
L 182.114692 239.284221 
L 182.259268 239.284221 
L 182.259268 238.71057 
L 182.592024 238.71057 
L 182.592024 238.136918 
L 182.933727 238.136918 
L 182.942959 236.415963 
L 183.492595 236.415963 
L 183.492595 235.842311 
L 183.780226 235.842311 
L 183.780226 235.268659 
L 184.417526 235.268659 
L 184.513584 232.974052 
L 185.076744 232.974052 
L 185.076744 232.400401 
L 185.378616 232.400401 
L 185.436425 231.253097 
L 186.030196 231.253097 
L 186.030196 230.679446 
L 186.385543 230.679446 
L 186.385543 230.105794 
L 186.990231 230.105794 
L 186.990231 228.95849 
L 187.206852 228.95849 
L 187.206852 228.384839 
L 187.404998 228.384839 
L 187.483428 227.237535 
L 187.6216 227.237535 
L 187.6216 226.663884 
L 187.985291 226.663884 
L 187.985291 226.090232 
L 188.121518 226.090232 
L 188.121518 225.51658 
L 188.237722 225.51658 
L 188.237722 224.942928 
L 188.828584 224.942928 
L 188.932237 223.221973 
L 189.017604 223.221973 
L 189.066397 222.07467 
L 189.745362 222.07467 
L 189.745362 221.501018 
L 190.491922 221.501018 
L 190.491922 220.927366 
L 191.304831 220.927366 
L 191.382206 219.780063 
L 191.70269 219.780063 
L 191.70269 219.206411 
L 192.048706 219.206411 
L 192.048706 218.632759 
L 192.282575 218.632759 
L 192.282575 218.059108 
L 192.785781 218.059108 
L 192.785781 217.485456 
L 193.350173 217.485456 
L 193.350173 216.911804 
L 193.641377 216.911804 
L 193.641377 216.338153 
L 194.065258 216.338153 
L 194.065258 215.764501 
L 194.467169 215.764501 
L 194.467169 215.190849 
L 194.671266 215.190849 
L 194.671266 214.617197 
L 195.161648 214.617197 
L 195.161648 214.043546 
L 195.568442 214.043546 
L 195.568442 213.469894 
L 195.756956 213.469894 
L 195.756956 212.896242 
L 196.169716 212.896242 
L 196.169716 212.322591 
L 196.472163 212.322591 
L 196.472163 211.748939 
L 196.930712 211.748939 
L 196.930712 211.175287 
L 197.873746 211.175287 
L 197.873746 210.601635 
L 197.99097 210.601635 
L 197.99097 210.027984 
L 198.214569 210.027984 
L 198.214569 209.454332 
L 198.741232 209.454332 
L 198.741232 208.88068 
L 199.529444 208.88068 
L 199.529444 208.307029 
L 201.023265 208.307029 
L 201.023265 207.733377 
L 201.305702 207.733377 
L 201.305702 207.159725 
L 201.894613 207.159725 
L 201.894613 206.586073 
L 202.980657 206.586073 
L 202.980657 206.012422 
L 204.600195 206.012422 
L 204.600195 205.43877 
L 208.781197 205.43877 
L 208.781197 204.865118 
L 210.004668 204.865118 
L 210.004668 204.291467 
L 210.677751 204.291467 
L 210.677751 203.717815 
L 214.451576 203.717815 
L 214.451576 203.144163 
L 214.678373 203.144163 
L 214.678373 202.570511 
L 217.069867 202.570511 
L 217.069867 201.99686 
L 221.08147 201.99686 
L 221.08147 201.423208 
L 221.251451 201.423208 
L 221.251451 200.849556 
L 231.934031 200.849556 
L 231.934031 200.275904 
L 245.787176 200.275904 
L 245.787176 199.702253 
L 245.999697 199.702253 
L 245.999697 199.128601 
L 247.437213 199.128601 
L 247.437213 198.554949 
L 248.795199 198.554949 
L 248.795199 197.981298 
L 250.903806 197.981298 
L 250.903806 197.407646 
L 252.412044 197.407646 
L 252.412044 196.833994 
L 253.931319 196.833994 
L 253.931319 196.260342 
L 267.475526 196.260342 
L 267.475526 195.686691 
L 338.688 195.686691 
L 338.688 195.686691 
" style="fill:none;stroke:#ff0000;stroke-linecap:square;stroke-width:1.5;"/>
   </g>
   <g id="line2d_51">
    <defs>
     <path d="M 0 -6 
L -5.196152 -3 
L -5.196152 3 
L -0 6 
L 5.196152 3 
L 5.196152 -3 
z
" id="mb991c49840" style="stroke:#ff0000;stroke-linejoin:miter;stroke-width:1.5;"/>
    </defs>
    <g>
     <use style="fill-opacity:0;stroke:#ff0000;stroke-linejoin:miter;stroke-width:1.5;" x="120.829137" xlink:href="#mb991c49840" y="261.656638"/>
     <use style="fill-opacity:0;stroke:#ff0000;stroke-linejoin:miter;stroke-width:1.5;" x="184.502133" xlink:href="#mb991c49840" y="233.547704"/>
     <use style="fill-opacity:0;stroke:#ff0000;stroke-linejoin:miter;stroke-width:1.5;" x="253.931319" xlink:href="#mb991c49840" y="196.260342"/>
     <use style="fill-opacity:0;stroke:#ff0000;stroke-linejoin:miter;stroke-width:1.5;" x="267.475526" xlink:href="#mb991c49840" y="195.686691"/>
     <use style="fill-opacity:0;stroke:#ff0000;stroke-linejoin:miter;stroke-width:1.5;" x="338.688" xlink:href="#mb991c49840" y="195.686691"/>
    </g>
   </g>
   <g id="line2d_52">
    <path style="fill:none;stroke:#ff0000;stroke-linecap:square;stroke-width:1.5;"/>
    <g/>
   </g>
   <g id="line2d_53">
    <path clip-path="url(#p97713f1504)" d="M 205.349004 205.43877 
" style="fill:none;stroke:#ff0000;stroke-linecap:square;stroke-width:1.5;"/>
    <defs>
     <path d="M -12 12 
L 12 -12 
M -12 -12 
L 12 12 
" id="meb7405b897" style="stroke:#ff0000;"/>
    </defs>
    <g clip-path="url(#p97713f1504)">
     <use style="fill:#ff0000;stroke:#ff0000;" x="205.349004" xlink:href="#meb7405b897" y="205.43877"/>
    </g>
   </g>
   <g id="line2d_54">
    <path d="M 338.688 235.842311 
L 369.60768 293.092752 
" style="fill:none;stroke:#000080;stroke-linecap:square;stroke-width:1.5;"/>
    <g>
     <use style="fill-opacity:0;stroke:#000080;stroke-width:1.5;" x="338.688" xlink:href="#m00b4186df1" y="235.842311"/>
     <use style="fill-opacity:0;stroke:#000080;stroke-width:1.5;" x="369.60768" xlink:href="#m00b4186df1" y="293.092752"/>
    </g>
   </g>
   <g id="line2d_55">
    <path d="M 338.688 195.686691 
L 369.60768 222.877782 
" style="fill:none;stroke:#ff0000;stroke-linecap:square;stroke-width:1.5;"/>
    <g>
     <use style="fill-opacity:0;stroke:#ff0000;stroke-linejoin:miter;stroke-width:1.5;" x="338.688" xlink:href="#mb991c49840" y="195.686691"/>
     <use style="fill-opacity:0;stroke:#ff0000;stroke-linejoin:miter;stroke-width:1.5;" x="369.60768" xlink:href="#mb991c49840" y="222.877782"/>
    </g>
   </g>
   <g id="line2d_56">
    <path d="M 338.688 6.381624 
L 369.60768 152.662812 
" style="fill:none;stroke:#6495ed;stroke-linecap:square;stroke-width:1.5;"/>
    <g>
     <use style="fill-opacity:0;stroke:#6495ed;stroke-linejoin:miter;stroke-width:1.5;" x="338.688" xlink:href="#mad99124548" y="6.381624"/>
     <use style="fill-opacity:0;stroke:#6495ed;stroke-linejoin:miter;stroke-width:1.5;" x="369.60768" xlink:href="#mad99124548" y="152.662812"/>
    </g>
   </g>
   <g id="line2d_57">
    <path d="M 338.688 6.381624 
L 369.60768 82.447842 
" style="fill:none;stroke:#ff00ff;stroke-linecap:square;stroke-width:1.5;"/>
    <g>
     <use style="fill-opacity:0;stroke:#ff00ff;stroke-linejoin:miter;stroke-width:1.5;" x="338.688" xlink:href="#mf6c44f9640" y="6.381624"/>
     <use style="fill-opacity:0;stroke:#ff00ff;stroke-linejoin:miter;stroke-width:1.5;" x="369.60768" xlink:href="#mf6c44f9640" y="82.447842"/>
    </g>
   </g>
   <g id="line2d_58">
    <path d="M 338.688 6.381624 
L 369.60768 12.232871 
" style="fill:none;stroke:#ff7500;stroke-linecap:square;stroke-width:1.5;"/>
    <g>
     <use style="fill-opacity:0;stroke:#ff7500;stroke-linejoin:bevel;stroke-width:1.5;" x="338.688" xlink:href="#m92300eac9d" y="6.381624"/>
     <use style="fill-opacity:0;stroke:#ff7500;stroke-linejoin:bevel;stroke-width:1.5;" x="369.60768" xlink:href="#m92300eac9d" y="12.232871"/>
    </g>
   </g>
   <g id="line2d_59">
    <path d="M 338.688 298.944 
L 338.688 6.381624 
" style="fill:none;stroke:#000000;stroke-linecap:square;stroke-width:1.5;"/>
   </g>
   <g id="patch_3">
    <path d="M 57.6 298.944 
L 57.6 3.456 
" style="fill:none;stroke:#000000;stroke-linecap:square;stroke-linejoin:miter;stroke-width:0.8;"/>
   </g>
   <g id="patch_4">
    <path d="M 338.688 298.944 
L 338.688 3.456 
" style="fill:none;stroke:#000000;stroke-linecap:square;stroke-linejoin:miter;stroke-width:0.8;"/>
   </g>
   <g id="patch_5">
    <path d="M 57.6 298.944 
L 338.688 298.944 
" style="fill:none;stroke:#000000;stroke-linecap:square;stroke-linejoin:miter;stroke-width:0.8;"/>
   </g>
   <g id="patch_6">
    <path d="M 57.6 3.456 
L 338.688 3.456 
" style="fill:none;stroke:#000000;stroke-linecap:square;stroke-linejoin:miter;stroke-width:0.8;"/>
   </g>
   <g id="text_13">
    <!-- f15 -->
    <g transform="translate(375.22944 297.78369)scale(0.17 -0.17)">
     <defs>
      <path d="M 691 4666 
L 3169 4666 
L 3169 4134 
L 1269 4134 
L 1269 2991 
Q 1406 3038 1543 3061 
Q 1681 3084 1819 3084 
Q 2600 3084 3056 2656 
Q 3513 2228 3513 1497 
Q 3513 744 3044 326 
Q 2575 -91 1722 -91 
Q 1428 -91 1123 -41 
Q 819 9 494 109 
L 494 744 
Q 775 591 1075 516 
Q 1375 441 1709 441 
Q 2250 441 2565 725 
Q 2881 1009 2881 1497 
Q 2881 1984 2565 2268 
Q 2250 2553 1709 2553 
Q 1456 2553 1204 2497 
Q 953 2441 691 2322 
L 691 4666 
z
" id="DejaVuSans-35" transform="scale(0.015625)"/>
     </defs>
     <use xlink:href="#DejaVuSans-66"/>
     <use x="35.205078" xlink:href="#DejaVuSans-31"/>
     <use x="98.828125" xlink:href="#DejaVuSans-35"/>
    </g>
   </g>
   <g id="text_14">
    <!-- f19 -->
    <g transform="translate(375.22944 227.56872)scale(0.17 -0.17)">
     <defs>
      <path d="M 703 97 
L 703 672 
Q 941 559 1184 500 
Q 1428 441 1663 441 
Q 2288 441 2617 861 
Q 2947 1281 2994 2138 
Q 2813 1869 2534 1725 
Q 2256 1581 1919 1581 
Q 1219 1581 811 2004 
Q 403 2428 403 3163 
Q 403 3881 828 4315 
Q 1253 4750 1959 4750 
Q 2769 4750 3195 4129 
Q 3622 3509 3622 2328 
Q 3622 1225 3098 567 
Q 2575 -91 1691 -91 
Q 1453 -91 1209 -44 
Q 966 3 703 97 
z
M 1959 2075 
Q 2384 2075 2632 2365 
Q 2881 2656 2881 3163 
Q 2881 3666 2632 3958 
Q 2384 4250 1959 4250 
Q 1534 4250 1286 3958 
Q 1038 3666 1038 3163 
Q 1038 2656 1286 2365 
Q 1534 2075 1959 2075 
z
" id="DejaVuSans-39" transform="scale(0.015625)"/>
     </defs>
     <use xlink:href="#DejaVuSans-66"/>
     <use x="35.205078" xlink:href="#DejaVuSans-31"/>
     <use x="98.828125" xlink:href="#DejaVuSans-39"/>
    </g>
   </g>
   <g id="text_15">
    <!-- f18 -->
    <g transform="translate(375.22944 157.353749)scale(0.17 -0.17)">
     <use xlink:href="#DejaVuSans-66"/>
     <use x="35.205078" xlink:href="#DejaVuSans-31"/>
     <use x="98.828125" xlink:href="#DejaVuSans-38"/>
    </g>
   </g>
   <g id="text_16">
    <!-- f16 -->
    <g transform="translate(375.22944 87.138779)scale(0.17 -0.17)">
     <use xlink:href="#DejaVuSans-66"/>
     <use x="35.205078" xlink:href="#DejaVuSans-31"/>
     <use x="98.828125" xlink:href="#DejaVuSans-36"/>
    </g>
   </g>
   <g id="text_17">
    <!-- f17 -->
    <g transform="translate(375.22944 16.923809)scale(0.17 -0.17)">
     <defs>
      <path d="M 525 4666 
L 3525 4666 
L 3525 4397 
L 1831 0 
L 1172 0 
L 2766 4134 
L 525 4134 
L 525 4666 
z
" id="DejaVuSans-37" transform="scale(0.015625)"/>
     </defs>
     <use xlink:href="#DejaVuSans-66"/>
     <use x="35.205078" xlink:href="#DejaVuSans-31"/>
     <use x="98.828125" xlink:href="#DejaVuSans-37"/>
    </g>
   </g>
   <g id="text_18">
    <!-- bbob -->
    <g transform="translate(60.41088 14.161286)scale(0.102 -0.102)">
     <defs>
      <path d="M 3116 1747 
Q 3116 2381 2855 2742 
Q 2594 3103 2138 3103 
Q 1681 3103 1420 2742 
Q 1159 2381 1159 1747 
Q 1159 1113 1420 752 
Q 1681 391 2138 391 
Q 2594 391 2855 752 
Q 3116 1113 3116 1747 
z
M 1159 2969 
Q 1341 3281 1617 3432 
Q 1894 3584 2278 3584 
Q 2916 3584 3314 3078 
Q 3713 2572 3713 1747 
Q 3713 922 3314 415 
Q 2916 -91 2278 -91 
Q 1894 -91 1617 61 
Q 1341 213 1159 525 
L 1159 0 
L 581 0 
L 581 4863 
L 1159 4863 
L 1159 2969 
z
" id="DejaVuSans-62" transform="scale(0.015625)"/>
     </defs>
     <use xlink:href="#DejaVuSans-62"/>
     <use x="63.476562" xlink:href="#DejaVuSans-62"/>
     <use x="126.953125" xlink:href="#DejaVuSans-6f"/>
     <use x="188.134766" xlink:href="#DejaVuSans-62"/>
    </g>
    <!-- Multi-modal functions, 20-D -->
    <g transform="translate(60.41088 25.583055)scale(0.102 -0.102)">
     <defs>
      <path d="M 628 4666 
L 1569 4666 
L 2759 1491 
L 3956 4666 
L 4897 4666 
L 4897 0 
L 4281 0 
L 4281 4097 
L 3078 897 
L 2444 897 
L 1241 4097 
L 1241 0 
L 628 0 
L 628 4666 
z
" id="DejaVuSans-4d" transform="scale(0.015625)"/>
      <path d="M 1259 4147 
L 1259 519 
L 2022 519 
Q 2988 519 3436 956 
Q 3884 1394 3884 2338 
Q 3884 3275 3436 3711 
Q 2988 4147 2022 4147 
L 1259 4147 
z
M 628 4666 
L 1925 4666 
Q 3281 4666 3915 4102 
Q 4550 3538 4550 2338 
Q 4550 1131 3912 565 
Q 3275 0 1925 0 
L 628 0 
L 628 4666 
z
" id="DejaVuSans-44" transform="scale(0.015625)"/>
     </defs>
     <use xlink:href="#DejaVuSans-4d"/>
     <use x="86.279297" xlink:href="#DejaVuSans-75"/>
     <use x="149.658203" xlink:href="#DejaVuSans-6c"/>
     <use x="177.441406" xlink:href="#DejaVuSans-74"/>
     <use x="216.650391" xlink:href="#DejaVuSans-69"/>
     <use x="244.433594" xlink:href="#DejaVuSans-2d"/>
     <use x="280.517578" xlink:href="#DejaVuSans-6d"/>
     <use x="377.929688" xlink:href="#DejaVuSans-6f"/>
     <use x="439.111328" xlink:href="#DejaVuSans-64"/>
     <use x="502.587891" xlink:href="#DejaVuSans-61"/>
     <use x="563.867188" xlink:href="#DejaVuSans-6c"/>
     <use x="591.650391" xlink:href="#DejaVuSans-20"/>
     <use x="623.4375" xlink:href="#DejaVuSans-66"/>
     <use x="658.642578" xlink:href="#DejaVuSans-75"/>
     <use x="722.021484" xlink:href="#DejaVuSans-6e"/>
     <use x="785.400391" xlink:href="#DejaVuSans-63"/>
     <use x="840.380859" xlink:href="#DejaVuSans-74"/>
     <use x="879.589844" xlink:href="#DejaVuSans-69"/>
     <use x="907.373047" xlink:href="#DejaVuSans-6f"/>
     <use x="968.554688" xlink:href="#DejaVuSans-6e"/>
     <use x="1031.933594" xlink:href="#DejaVuSans-73"/>
     <use x="1084.033203" xlink:href="#DejaVuSans-2c"/>
     <use x="1115.820312" xlink:href="#DejaVuSans-20"/>
     <use x="1147.607422" xlink:href="#DejaVuSans-32"/>
     <use x="1211.230469" xlink:href="#DejaVuSans-30"/>
     <use x="1274.853516" xlink:href="#DejaVuSans-2d"/>
     <use x="1310.9375" xlink:href="#DejaVuSans-44"/>
    </g>
    <!-- 51 targets: 100..1e-08 -->
    <g transform="translate(60.41088 37.004824)scale(0.102 -0.102)">
     <defs>
      <path d="M 750 794 
L 1409 794 
L 1409 0 
L 750 0 
L 750 794 
z
M 750 3309 
L 1409 3309 
L 1409 2516 
L 750 2516 
L 750 3309 
z
" id="DejaVuSans-3a" transform="scale(0.015625)"/>
     </defs>
     <use xlink:href="#DejaVuSans-35"/>
     <use x="63.623047" xlink:href="#DejaVuSans-31"/>
     <use x="127.246094" xlink:href="#DejaVuSans-20"/>
     <use x="159.033203" xlink:href="#DejaVuSans-74"/>
     <use x="198.242188" xlink:href="#DejaVuSans-61"/>
     <use x="259.521484" xlink:href="#DejaVuSans-72"/>
     <use x="298.884766" xlink:href="#DejaVuSans-67"/>
     <use x="362.361328" xlink:href="#DejaVuSans-65"/>
     <use x="423.884766" xlink:href="#DejaVuSans-74"/>
     <use x="463.09375" xlink:href="#DejaVuSans-73"/>
     <use x="515.193359" xlink:href="#DejaVuSans-3a"/>
     <use x="548.884766" xlink:href="#DejaVuSans-20"/>
     <use x="580.671875" xlink:href="#DejaVuSans-31"/>
     <use x="644.294922" xlink:href="#DejaVuSans-30"/>
     <use x="707.917969" xlink:href="#DejaVuSans-30"/>
     <use x="771.541016" xlink:href="#DejaVuSans-2e"/>
     <use x="803.328125" xlink:href="#DejaVuSans-2e"/>
     <use x="835.115234" xlink:href="#DejaVuSans-31"/>
     <use x="898.738281" xlink:href="#DejaVuSans-65"/>
     <use x="960.261719" xlink:href="#DejaVuSans-2d"/>
     <use x="996.345703" xlink:href="#DejaVuSans-30"/>
     <use x="1059.96875" xlink:href="#DejaVuSans-38"/>
    </g>
    <!-- 15 instances -->
    <g transform="translate(60.41088 48.426593)scale(0.102 -0.102)">
     <use xlink:href="#DejaVuSans-31"/>
     <use x="63.623047" xlink:href="#DejaVuSans-35"/>
     <use x="127.246094" xlink:href="#DejaVuSans-20"/>
     <use x="159.033203" xlink:href="#DejaVuSans-69"/>
     <use x="186.816406" xlink:href="#DejaVuSans-6e"/>
     <use x="250.195312" xlink:href="#DejaVuSans-73"/>
     <use x="302.294922" xlink:href="#DejaVuSans-74"/>
     <use x="341.503906" xlink:href="#DejaVuSans-61"/>
     <use x="402.783203" xlink:href="#DejaVuSans-6e"/>
     <use x="466.162109" xlink:href="#DejaVuSans-63"/>
     <use x="521.142578" xlink:href="#DejaVuSans-65"/>
     <use x="582.666016" xlink:href="#DejaVuSans-73"/>
    </g>
   </g>
   <g id="text_19">
    <!-- v2.4 -->
    <g style="fill:#808080;" transform="translate(187.233062 293.909432)scale(0.1 -0.1)">
     <use xlink:href="#DejaVuSans-76"/>
     <use x="59.179688" xlink:href="#DejaVuSans-32"/>
     <use x="122.802734" xlink:href="#DejaVuSans-2e"/>
     <use x="154.589844" xlink:href="#DejaVuSans-34"/>
    </g>
   </g>
  </g>
 </g>
 <defs>
  <clipPath id="p97713f1504">
   <rect height="295.488" width="281.088" x="57.6" y="3.456"/>
  </clipPath>
 </defs>
</svg>
