<?xml version="1.0" encoding="utf-8" standalone="no"?>
<!DOCTYPE svg PUBLIC "-//W3C//DTD SVG 1.1//EN"
  "http://www.w3.org/Graphics/SVG/1.1/DTD/svg11.dtd">
<!-- Created with matplotlib (https://matplotlib.org/) -->
<svg height="345.6pt" version="1.1" viewBox="0 0 460.8 345.6" width="460.8pt" xmlns="http://www.w3.org/2000/svg" xmlns:xlink="http://www.w3.org/1999/xlink">
 <defs>
  <style type="text/css">
*{stroke-linecap:butt;stroke-linejoin:round;}
  </style>
 </defs>
 <g id="figure_1">
  <g id="patch_1">
   <path d="M 0 345.6 
L 460.8 345.6 
L 460.8 0 
L 0 0 
z
" style="fill:#ffffff;"/>
  </g>
  <g id="axes_1">
   <g id="patch_2">
    <path d="M 0 293.76 
L 460.8 293.76 
L 460.8 3.456 
L 0 3.456 
z
" style="fill:#ffffff;"/>
   </g>
   <g id="matplotlib.axis_1">
    <g id="xtick_1">
     <g id="line2d_1">
      <path clip-path="url(#pe010a7d3b1)" d="M 104.741413 293.76 
L 104.741413 3.456 
" style="fill:none;stroke:#b0b0b0;stroke-linecap:square;stroke-width:0.8;"/>
     </g>
     <g id="line2d_2">
      <defs>
       <path d="M 0 0 
L 0 3.5 
" id="m87c8a765c1" style="stroke:#000000;stroke-width:0.8;"/>
      </defs>
      <g>
       <use style="stroke:#000000;stroke-width:0.8;" x="104.741413" xlink:href="#m87c8a765c1" y="293.76"/>
      </g>
     </g>
     <g id="text_1">
      <!-- -4 -->
      <defs>
       <path d="M 4.890625 31.390625 
L 31.203125 31.390625 
L 31.203125 23.390625 
L 4.890625 23.390625 
z
" id="DejaVuSans-45"/>
       <path d="M 37.796875 64.3125 
L 12.890625 25.390625 
L 37.796875 25.390625 
z
M 35.203125 72.90625 
L 47.609375 72.90625 
L 47.609375 25.390625 
L 58.015625 25.390625 
L 58.015625 17.1875 
L 47.609375 17.1875 
L 47.609375 0 
L 37.796875 0 
L 37.796875 17.1875 
L 4.890625 17.1875 
L 4.890625 26.703125 
z
" id="DejaVuSans-52"/>
      </defs>
      <g transform="translate(94.7711 315.956875)scale(0.2 -0.2)">
       <use xlink:href="#DejaVuSans-45"/>
       <use x="36.083984" xlink:href="#DejaVuSans-52"/>
      </g>
     </g>
    </g>
    <g id="xtick_2">
     <g id="line2d_3">
      <path clip-path="url(#pe010a7d3b1)" d="M 209.596104 293.76 
L 209.596104 3.456 
" style="fill:none;stroke:#b0b0b0;stroke-linecap:square;stroke-width:0.8;"/>
     </g>
     <g id="line2d_4">
      <g>
       <use style="stroke:#000000;stroke-width:0.8;" x="209.596104" xlink:href="#m87c8a765c1" y="293.76"/>
      </g>
     </g>
     <g id="text_2">
      <!-- 0 -->
      <defs>
       <path d="M 31.78125 66.40625 
Q 24.171875 66.40625 20.328125 58.90625 
Q 16.5 51.421875 16.5 36.375 
Q 16.5 21.390625 20.328125 13.890625 
Q 24.171875 6.390625 31.78125 6.390625 
Q 39.453125 6.390625 43.28125 13.890625 
Q 47.125 21.390625 47.125 36.375 
Q 47.125 51.421875 43.28125 58.90625 
Q 39.453125 66.40625 31.78125 66.40625 
z
M 31.78125 74.21875 
Q 44.046875 74.21875 50.515625 64.515625 
Q 56.984375 54.828125 56.984375 36.375 
Q 56.984375 17.96875 50.515625 8.265625 
Q 44.046875 -1.421875 31.78125 -1.421875 
Q 19.53125 -1.421875 13.0625 8.265625 
Q 6.59375 17.96875 6.59375 36.375 
Q 6.59375 54.828125 13.0625 64.515625 
Q 19.53125 74.21875 31.78125 74.21875 
z
" id="DejaVuSans-48"/>
      </defs>
      <g transform="translate(203.233604 315.956875)scale(0.2 -0.2)">
       <use xlink:href="#DejaVuSans-48"/>
      </g>
     </g>
    </g>
    <g id="xtick_3">
     <g id="line2d_5">
      <path clip-path="url(#pe010a7d3b1)" d="M 314.450796 293.76 
L 314.450796 3.456 
" style="fill:none;stroke:#b0b0b0;stroke-linecap:square;stroke-width:0.8;"/>
     </g>
     <g id="line2d_6">
      <g>
       <use style="stroke:#000000;stroke-width:0.8;" x="314.450796" xlink:href="#m87c8a765c1" y="293.76"/>
      </g>
     </g>
     <g id="text_3">
      <!-- 4 -->
      <g transform="translate(308.088296 315.956875)scale(0.2 -0.2)">
       <use xlink:href="#DejaVuSans-52"/>
      </g>
     </g>
    </g>
    <g id="xtick_4">
     <g id="line2d_7">
      <path clip-path="url(#pe010a7d3b1)" d="M 419.305487 293.76 
L 419.305487 3.456 
" style="fill:none;stroke:#b0b0b0;stroke-linecap:square;stroke-width:0.8;"/>
     </g>
     <g id="line2d_8">
      <g>
       <use style="stroke:#000000;stroke-width:0.8;" x="419.305487" xlink:href="#m87c8a765c1" y="293.76"/>
      </g>
     </g>
     <g id="text_4">
      <!-- 8 -->
      <defs>
       <path d="M 31.78125 34.625 
Q 24.75 34.625 20.71875 30.859375 
Q 16.703125 27.09375 16.703125 20.515625 
Q 16.703125 13.921875 20.71875 10.15625 
Q 24.75 6.390625 31.78125 6.390625 
Q 38.8125 6.390625 42.859375 10.171875 
Q 46.921875 13.96875 46.921875 20.515625 
Q 46.921875 27.09375 42.890625 30.859375 
Q 38.875 34.625 31.78125 34.625 
z
M 21.921875 38.8125 
Q 15.578125 40.375 12.03125 44.71875 
Q 8.5 49.078125 8.5 55.328125 
Q 8.5 64.0625 14.71875 69.140625 
Q 20.953125 74.21875 31.78125 74.21875 
Q 42.671875 74.21875 48.875 69.140625 
Q 55.078125 64.0625 55.078125 55.328125 
Q 55.078125 49.078125 51.53125 44.71875 
Q 48 40.375 41.703125 38.8125 
Q 48.828125 37.15625 52.796875 32.3125 
Q 56.78125 27.484375 56.78125 20.515625 
Q 56.78125 9.90625 50.3125 4.234375 
Q 43.84375 -1.421875 31.78125 -1.421875 
Q 19.734375 -1.421875 13.25 4.234375 
Q 6.78125 9.90625 6.78125 20.515625 
Q 6.78125 27.484375 10.78125 32.3125 
Q 14.796875 37.15625 21.921875 38.8125 
z
M 18.3125 54.390625 
Q 18.3125 48.734375 21.84375 45.5625 
Q 25.390625 42.390625 31.78125 42.390625 
Q 38.140625 42.390625 41.71875 45.5625 
Q 45.3125 48.734375 45.3125 54.390625 
Q 45.3125 60.0625 41.71875 63.234375 
Q 38.140625 66.40625 31.78125 66.40625 
Q 25.390625 66.40625 21.84375 63.234375 
Q 18.3125 60.0625 18.3125 54.390625 
z
" id="DejaVuSans-56"/>
      </defs>
      <g transform="translate(412.942987 315.956875)scale(0.2 -0.2)">
       <use xlink:href="#DejaVuSans-56"/>
      </g>
     </g>
    </g>
    <g id="text_5">
     <!-- log10 of Df -->
     <defs>
      <path d="M 9.421875 75.984375 
L 18.40625 75.984375 
L 18.40625 0 
L 9.421875 0 
z
" id="DejaVuSans-108"/>
      <path d="M 30.609375 48.390625 
Q 23.390625 48.390625 19.1875 42.75 
Q 14.984375 37.109375 14.984375 27.296875 
Q 14.984375 17.484375 19.15625 11.84375 
Q 23.34375 6.203125 30.609375 6.203125 
Q 37.796875 6.203125 41.984375 11.859375 
Q 46.1875 17.53125 46.1875 27.296875 
Q 46.1875 37.015625 41.984375 42.703125 
Q 37.796875 48.390625 30.609375 48.390625 
z
M 30.609375 56 
Q 42.328125 56 49.015625 48.375 
Q 55.71875 40.765625 55.71875 27.296875 
Q 55.71875 13.875 49.015625 6.21875 
Q 42.328125 -1.421875 30.609375 -1.421875 
Q 18.84375 -1.421875 12.171875 6.21875 
Q 5.515625 13.875 5.515625 27.296875 
Q 5.515625 40.765625 12.171875 48.375 
Q 18.84375 56 30.609375 56 
z
" id="DejaVuSans-111"/>
      <path d="M 45.40625 27.984375 
Q 45.40625 37.75 41.375 43.109375 
Q 37.359375 48.484375 30.078125 48.484375 
Q 22.859375 48.484375 18.828125 43.109375 
Q 14.796875 37.75 14.796875 27.984375 
Q 14.796875 18.265625 18.828125 12.890625 
Q 22.859375 7.515625 30.078125 7.515625 
Q 37.359375 7.515625 41.375 12.890625 
Q 45.40625 18.265625 45.40625 27.984375 
z
M 54.390625 6.78125 
Q 54.390625 -7.171875 48.1875 -13.984375 
Q 42 -20.796875 29.203125 -20.796875 
Q 24.46875 -20.796875 20.265625 -20.09375 
Q 16.0625 -19.390625 12.109375 -17.921875 
L 12.109375 -9.1875 
Q 16.0625 -11.328125 19.921875 -12.34375 
Q 23.78125 -13.375 27.78125 -13.375 
Q 36.625 -13.375 41.015625 -8.765625 
Q 45.40625 -4.15625 45.40625 5.171875 
L 45.40625 9.625 
Q 42.625 4.78125 38.28125 2.390625 
Q 33.9375 0 27.875 0 
Q 17.828125 0 11.671875 7.65625 
Q 5.515625 15.328125 5.515625 27.984375 
Q 5.515625 40.671875 11.671875 48.328125 
Q 17.828125 56 27.875 56 
Q 33.9375 56 38.28125 53.609375 
Q 42.625 51.21875 45.40625 46.390625 
L 45.40625 54.6875 
L 54.390625 54.6875 
z
" id="DejaVuSans-103"/>
      <path d="M 12.40625 8.296875 
L 28.515625 8.296875 
L 28.515625 63.921875 
L 10.984375 60.40625 
L 10.984375 69.390625 
L 28.421875 72.90625 
L 38.28125 72.90625 
L 38.28125 8.296875 
L 54.390625 8.296875 
L 54.390625 0 
L 12.40625 0 
z
" id="DejaVuSans-49"/>
      <path id="DejaVuSans-32"/>
      <path d="M 37.109375 75.984375 
L 37.109375 68.5 
L 28.515625 68.5 
Q 23.6875 68.5 21.796875 66.546875 
Q 19.921875 64.59375 19.921875 59.515625 
L 19.921875 54.6875 
L 34.71875 54.6875 
L 34.71875 47.703125 
L 19.921875 47.703125 
L 19.921875 0 
L 10.890625 0 
L 10.890625 47.703125 
L 2.296875 47.703125 
L 2.296875 54.6875 
L 10.890625 54.6875 
L 10.890625 58.5 
Q 10.890625 67.625 15.140625 71.796875 
Q 19.390625 75.984375 28.609375 75.984375 
z
" id="DejaVuSans-102"/>
      <path d="M 19.671875 64.796875 
L 19.671875 8.109375 
L 31.59375 8.109375 
Q 46.6875 8.109375 53.6875 14.9375 
Q 60.6875 21.78125 60.6875 36.53125 
Q 60.6875 51.171875 53.6875 57.984375 
Q 46.6875 64.796875 31.59375 64.796875 
z
M 9.8125 72.90625 
L 30.078125 72.90625 
Q 51.265625 72.90625 61.171875 64.09375 
Q 71.09375 55.28125 71.09375 36.53125 
Q 71.09375 17.671875 61.125 8.828125 
Q 51.171875 0 30.078125 0 
L 9.8125 0 
z
" id="DejaVuSans-68"/>
     </defs>
     <g transform="translate(175.214063 339.313125)scale(0.2 -0.2)">
      <use xlink:href="#DejaVuSans-108"/>
      <use x="27.783203" xlink:href="#DejaVuSans-111"/>
      <use x="88.964844" xlink:href="#DejaVuSans-103"/>
      <use x="152.441406" xlink:href="#DejaVuSans-49"/>
      <use x="216.064453" xlink:href="#DejaVuSans-48"/>
      <use x="279.6875" xlink:href="#DejaVuSans-32"/>
      <use x="311.474609" xlink:href="#DejaVuSans-111"/>
      <use x="372.65625" xlink:href="#DejaVuSans-102"/>
      <use x="407.861328" xlink:href="#DejaVuSans-32"/>
      <use x="439.648438" xlink:href="#DejaVuSans-68"/>
      <use x="516.650391" xlink:href="#DejaVuSans-102"/>
     </g>
    </g>
   </g>
   <g id="matplotlib.axis_2">
    <g id="ytick_1">
     <g id="line2d_9">
      <path clip-path="url(#pe010a7d3b1)" d="M 0 293.76 
L 460.8 293.76 
" style="fill:none;stroke:#b0b0b0;stroke-linecap:square;stroke-width:0.8;"/>
     </g>
     <g id="line2d_10">
      <defs>
       <path d="M 0 0 
L -3.5 0 
" id="m19aa38799e" style="stroke:#000000;stroke-width:0.8;"/>
      </defs>
      <g>
       <use style="stroke:#000000;stroke-width:0.8;" x="0" xlink:href="#m19aa38799e" y="293.76"/>
      </g>
     </g>
    </g>
    <g id="ytick_2">
     <g id="line2d_11">
      <path clip-path="url(#pe010a7d3b1)" d="M 0 236.274059 
L 460.8 236.274059 
" style="fill:none;stroke:#b0b0b0;stroke-linecap:square;stroke-width:0.8;"/>
     </g>
     <g id="line2d_12">
      <g>
       <use style="stroke:#000000;stroke-width:0.8;" x="0" xlink:href="#m19aa38799e" y="236.274059"/>
      </g>
     </g>
    </g>
    <g id="ytick_3">
     <g id="line2d_13">
      <path clip-path="url(#pe010a7d3b1)" d="M 0 178.788119 
L 460.8 178.788119 
" style="fill:none;stroke:#b0b0b0;stroke-linecap:square;stroke-width:0.8;"/>
     </g>
     <g id="line2d_14">
      <g>
       <use style="stroke:#000000;stroke-width:0.8;" x="0" xlink:href="#m19aa38799e" y="178.788119"/>
      </g>
     </g>
    </g>
    <g id="ytick_4">
     <g id="line2d_15">
      <path clip-path="url(#pe010a7d3b1)" d="M 0 121.302178 
L 460.8 121.302178 
" style="fill:none;stroke:#b0b0b0;stroke-linecap:square;stroke-width:0.8;"/>
     </g>
     <g id="line2d_16">
      <g>
       <use style="stroke:#000000;stroke-width:0.8;" x="0" xlink:href="#m19aa38799e" y="121.302178"/>
      </g>
     </g>
    </g>
    <g id="ytick_5">
     <g id="line2d_17">
      <path clip-path="url(#pe010a7d3b1)" d="M 0 63.816238 
L 460.8 63.816238 
" style="fill:none;stroke:#b0b0b0;stroke-linecap:square;stroke-width:0.8;"/>
     </g>
     <g id="line2d_18">
      <g>
       <use style="stroke:#000000;stroke-width:0.8;" x="0" xlink:href="#m19aa38799e" y="63.816238"/>
      </g>
     </g>
    </g>
    <g id="ytick_6">
     <g id="line2d_19">
      <path clip-path="url(#pe010a7d3b1)" d="M 0 6.330297 
L 460.8 6.330297 
" style="fill:none;stroke:#b0b0b0;stroke-linecap:square;stroke-width:0.8;"/>
     </g>
     <g id="line2d_20">
      <g>
       <use style="stroke:#000000;stroke-width:0.8;" x="0" xlink:href="#m19aa38799e" y="6.330297"/>
      </g>
     </g>
    </g>
   </g>
   <g id="line2d_21">
    <path clip-path="url(#pe010a7d3b1)" d="M 266.847553 293.76 
L 266.847553 288.969505 
L 268.526744 288.969505 
L 268.526744 284.17901 
L 268.536943 284.17901 
L 268.536943 279.388515 
L 269.628369 279.388515 
L 269.628369 274.59802 
L 274.949376 274.59802 
L 274.949376 269.807525 
L 275.627511 269.807525 
L 275.627511 265.01703 
L 277.751962 265.01703 
L 277.751962 260.226535 
L 278.285437 260.226535 
L 278.285437 255.43604 
L 278.31965 255.43604 
L 278.31965 250.645545 
L 280.674805 250.645545 
L 280.674805 245.85505 
L 283.040421 245.85505 
L 283.040421 241.064554 
L 286.015836 241.064554 
L 286.015836 236.274059 
L 286.171465 236.274059 
L 286.171465 231.483564 
L 287.013366 231.483564 
L 287.013366 226.693069 
L 287.176865 226.693069 
L 287.176865 221.902574 
L 290.183844 221.902574 
L 290.183844 217.112079 
L 297.356661 217.112079 
L 297.356661 212.321584 
L 298.996921 212.321584 
L 298.996921 207.531089 
L 302.765372 207.531089 
L 302.765372 202.740594 
L 303.136005 202.740594 
L 303.136005 197.950099 
L 304.309856 197.950099 
L 304.309856 193.159604 
L 304.726975 193.159604 
L 304.726975 188.369109 
L 304.796234 188.369109 
L 304.796234 183.578614 
L 306.858412 183.578614 
L 306.858412 178.788119 
L 307.17001 178.788119 
L 307.17001 173.997624 
L 307.307832 173.997624 
L 307.307832 169.207129 
L 309.734631 169.207129 
L 309.734631 164.416634 
L 309.797272 164.416634 
L 309.797272 159.626139 
L 310.829164 159.626139 
L 310.829164 154.835644 
L 312.909043 154.835644 
L 312.909043 150.045149 
L 314.736275 150.045149 
L 314.736275 145.254653 
L 318.015174 145.254653 
L 318.015174 140.464158 
L 320.218133 140.464158 
L 320.218133 135.673663 
L 320.460508 135.673663 
L 320.460508 130.883168 
L 324.495111 130.883168 
L 324.495111 126.092673 
L 327.535582 126.092673 
L 327.535582 121.302178 
L 327.791878 121.302178 
L 327.791878 116.511683 
L 328.300709 116.511683 
L 328.300709 111.721188 
L 330.588064 111.721188 
L 330.588064 106.930693 
L 331.416695 106.930693 
L 331.416695 102.140198 
L 332.093438 102.140198 
L 332.093438 97.349703 
L 333.961368 97.349703 
L 333.961368 92.559208 
L 335.381478 92.559208 
L 335.381478 87.768713 
L 336.459466 87.768713 
L 336.459466 82.978218 
L 338.50107 82.978218 
L 338.50107 78.187723 
L 338.52241 78.187723 
L 338.52241 73.397228 
L 339.437637 73.397228 
L 339.437637 68.606733 
L 339.885582 68.606733 
L 339.885582 63.816238 
L 343.156289 63.816238 
L 343.156289 59.025743 
L 343.346056 59.025743 
L 343.346056 54.235248 
L 343.679801 54.235248 
L 343.679801 49.444752 
L 344.426283 49.444752 
L 344.426283 44.654257 
L 349.236962 44.654257 
L 349.236962 39.863762 
L 351.649194 39.863762 
L 351.649194 35.073267 
L 353.127053 35.073267 
L 353.127053 30.282772 
L 353.713064 30.282772 
L 353.713064 25.492277 
L 354.294496 25.492277 
L 354.294496 20.701782 
L 355.838902 20.701782 
L 355.838902 15.911287 
L 360.199642 15.911287 
L 360.199642 11.120792 
L 363.344971 11.120792 
L 363.344971 6.330297 
L 363.344971 6.330297 
L 363.344971 6.330297 
L 460.8 6.330297 
" style="fill:none;stroke:#ff0000;stroke-linecap:square;stroke-width:3;"/>
   </g>
   <g id="line2d_22">
    <path clip-path="url(#pe010a7d3b1)" d="M 281.803113 293.76 
L 281.803113 288.969505 
L 284.89107 288.969505 
L 284.89107 284.17901 
L 285.238443 284.17901 
L 285.238443 279.388515 
L 286.540833 279.388515 
L 286.540833 274.59802 
L 286.836259 274.59802 
L 286.836259 269.807525 
L 288.05685 269.807525 
L 288.05685 265.01703 
L 288.134928 265.01703 
L 288.134928 260.226535 
L 289.027461 260.226535 
L 289.027461 255.43604 
L 289.645155 255.43604 
L 289.645155 250.645545 
L 291.086723 250.645545 
L 291.086723 245.85505 
L 291.440404 245.85505 
L 291.440404 241.064554 
L 291.966395 241.064554 
L 291.966395 236.274059 
L 292.305053 236.274059 
L 292.305053 231.483564 
L 292.461936 231.483564 
L 292.461936 226.693069 
L 295.430458 226.693069 
L 295.430458 221.902574 
L 335.869648 221.902574 
L 335.869648 217.112079 
L 341.585359 217.112079 
L 341.585359 212.321584 
L 343.305305 212.321584 
L 343.305305 207.531089 
L 344.520454 207.531089 
L 344.520454 202.740594 
L 345.197371 202.740594 
L 345.197371 197.950099 
L 345.570215 197.950099 
L 345.570215 193.159604 
L 345.844869 193.159604 
L 345.844869 188.369109 
L 346.289229 188.369109 
L 346.289229 183.578614 
L 346.387352 183.578614 
L 346.387352 178.788119 
L 346.468976 178.788119 
L 346.468976 173.997624 
L 346.511701 173.997624 
L 346.511701 169.207129 
L 346.633546 169.207129 
L 346.633546 164.416634 
L 347.811565 164.416634 
L 347.811565 159.626139 
L 348.03115 159.626139 
L 348.03115 154.835644 
L 348.810782 154.835644 
L 348.810782 150.045149 
L 349.035669 150.045149 
L 349.035669 145.254653 
L 349.495262 145.254653 
L 349.495262 140.464158 
L 349.972226 140.464158 
L 349.972226 135.673663 
L 350.117943 135.673663 
L 350.117943 130.883168 
L 350.735169 130.883168 
L 350.735169 126.092673 
L 351.197511 126.092673 
L 351.197511 121.302178 
L 351.919186 121.302178 
L 351.919186 116.511683 
L 352.041887 116.511683 
L 352.041887 111.721188 
L 352.165668 111.721188 
L 352.165668 106.930693 
L 352.504106 106.930693 
L 352.504106 102.140198 
L 352.622445 102.140198 
L 352.622445 97.349703 
L 353.606062 97.349703 
L 353.606062 92.559208 
L 353.789476 92.559208 
L 353.789476 87.768713 
L 354.489919 87.768713 
L 354.489919 82.978218 
L 356.622585 82.978218 
L 356.622585 78.187723 
L 356.768189 78.187723 
L 356.768189 73.397228 
L 356.768691 73.397228 
L 356.768691 68.606733 
L 357.482138 68.606733 
L 357.482138 63.816238 
L 358.069147 63.816238 
L 358.069147 59.025743 
L 358.703514 59.025743 
L 358.703514 54.235248 
L 359.35137 54.235248 
L 359.35137 49.444752 
L 359.828079 49.444752 
L 359.828079 44.654257 
L 359.994622 44.654257 
L 359.994622 39.863762 
L 360.63077 39.863762 
L 360.63077 35.073267 
L 360.877415 35.073267 
L 360.877415 30.282772 
L 361.397659 30.282772 
L 361.397659 25.492277 
L 367.142606 25.492277 
L 367.142606 20.701782 
L 368.045983 20.701782 
L 368.045983 15.911287 
L 368.718168 15.911287 
L 368.718168 11.120792 
L 368.993521 11.120792 
L 368.993521 6.330297 
L 368.993521 6.330297 
L 368.993521 6.330297 
L 460.8 6.330297 
" style="fill:none;stroke:#00bfbf;stroke-linecap:square;stroke-width:1.5;"/>
   </g>
   <g id="line2d_23">
    <path clip-path="url(#pe010a7d3b1)" d="M 281.803113 293.76 
L 281.803113 288.969505 
L 282.025747 288.969505 
L 282.025747 284.17901 
L 284.389528 284.17901 
L 284.389528 279.388515 
L 285.238443 279.388515 
L 285.238443 274.59802 
L 285.532894 274.59802 
L 285.532894 269.807525 
L 286.540833 269.807525 
L 286.540833 265.01703 
L 286.836259 265.01703 
L 286.836259 260.226535 
L 287.641053 260.226535 
L 287.641053 255.43604 
L 288.000817 255.43604 
L 288.000817 250.645545 
L 288.05685 250.645545 
L 288.05685 245.85505 
L 288.134928 245.85505 
L 288.134928 241.064554 
L 290.397866 241.064554 
L 290.397866 236.274059 
L 290.985957 236.274059 
L 290.985957 231.483564 
L 291.966395 231.483564 
L 291.966395 226.693069 
L 295.430458 226.693069 
L 295.430458 221.902574 
L 335.869648 221.902574 
L 335.869648 217.112079 
L 338.158165 217.112079 
L 338.158165 212.321584 
L 338.761856 212.321584 
L 338.761856 207.531089 
L 340.185268 207.531089 
L 340.185268 202.740594 
L 340.6184 202.740594 
L 340.6184 197.950099 
L 341.585359 197.950099 
L 341.585359 193.159604 
L 341.683523 193.159604 
L 341.683523 188.369109 
L 343.305305 188.369109 
L 343.305305 183.578614 
L 343.710198 183.578614 
L 343.710198 178.788119 
L 344.776661 178.788119 
L 344.776661 173.997624 
L 344.964724 173.997624 
L 344.964724 169.207129 
L 345.197371 169.207129 
L 345.197371 164.416634 
L 345.570215 164.416634 
L 345.570215 159.626139 
L 346.468976 159.626139 
L 346.468976 154.835644 
L 346.633546 154.835644 
L 346.633546 150.045149 
L 346.684287 150.045149 
L 346.684287 145.254653 
L 347.283208 145.254653 
L 347.283208 140.464158 
L 347.497427 140.464158 
L 347.497427 135.673663 
L 347.707253 135.673663 
L 347.707253 130.883168 
L 348.085564 130.883168 
L 348.085564 126.092673 
L 349.035669 126.092673 
L 349.035669 121.302178 
L 349.495262 121.302178 
L 349.495262 116.511683 
L 349.679735 116.511683 
L 349.679735 111.721188 
L 349.882814 111.721188 
L 349.882814 106.930693 
L 350.27011 106.930693 
L 350.27011 102.140198 
L 350.63454 102.140198 
L 350.63454 97.349703 
L 351.197511 97.349703 
L 351.197511 92.559208 
L 351.770398 92.559208 
L 351.770398 87.768713 
L 352.041887 87.768713 
L 352.041887 82.978218 
L 352.165668 82.978218 
L 352.165668 78.187723 
L 352.574721 78.187723 
L 352.574721 73.397228 
L 353.636016 73.397228 
L 353.636016 68.606733 
L 356.24064 68.606733 
L 356.24064 63.816238 
L 356.768189 63.816238 
L 356.768189 59.025743 
L 356.789732 59.025743 
L 356.789732 54.235248 
L 356.851503 54.235248 
L 356.851503 49.444752 
L 358.003452 49.444752 
L 358.003452 44.654257 
L 358.069147 44.654257 
L 358.069147 39.863762 
L 359.35137 39.863762 
L 359.35137 35.073267 
L 359.828079 35.073267 
L 359.828079 30.282772 
L 360.872185 30.282772 
L 360.872185 25.492277 
L 361.345561 25.492277 
L 361.345561 20.701782 
L 363.709693 20.701782 
L 363.709693 15.911287 
L 364.691135 15.911287 
L 364.691135 11.120792 
L 367.65658 11.120792 
L 367.65658 6.330297 
L 367.65658 6.330297 
L 367.65658 6.330297 
L 460.8 6.330297 
" style="fill:none;stroke:#bf00bf;stroke-linecap:square;stroke-width:1.5;"/>
   </g>
   <g id="line2d_24">
    <path clip-path="url(#pe010a7d3b1)" d="M 270.108946 293.76 
L 270.108946 288.969505 
L 276.508901 288.969505 
L 276.508901 284.17901 
L 278.552959 284.17901 
L 278.552959 279.388515 
L 280.046463 279.388515 
L 280.046463 274.59802 
L 280.267321 274.59802 
L 280.267321 269.807525 
L 280.494425 269.807525 
L 280.494425 265.01703 
L 281.223634 265.01703 
L 281.223634 260.226535 
L 282.025747 260.226535 
L 282.025747 255.43604 
L 284.389528 255.43604 
L 284.389528 250.645545 
L 284.796111 250.645545 
L 284.796111 245.85505 
L 286.836259 245.85505 
L 286.836259 241.064554 
L 289.75574 241.064554 
L 289.75574 236.274059 
L 290.23189 236.274059 
L 290.23189 231.483564 
L 290.376213 231.483564 
L 290.376213 226.693069 
L 290.397866 226.693069 
L 290.397866 221.902574 
L 323.265879 221.902574 
L 323.265879 217.112079 
L 327.280854 217.112079 
L 327.280854 212.321584 
L 329.135448 212.321584 
L 329.135448 207.531089 
L 329.586177 207.531089 
L 329.586177 202.740594 
L 330.484527 202.740594 
L 330.484527 197.950099 
L 330.518816 197.950099 
L 330.518816 193.159604 
L 331.96799 193.159604 
L 331.96799 188.369109 
L 332.579483 188.369109 
L 332.579483 183.578614 
L 332.628435 183.578614 
L 332.628435 178.788119 
L 333.258811 178.788119 
L 333.258811 173.997624 
L 334.452419 173.997624 
L 334.452419 169.207129 
L 336.497592 169.207129 
L 336.497592 164.416634 
L 336.559578 164.416634 
L 336.559578 159.626139 
L 336.8445 159.626139 
L 336.8445 154.835644 
L 336.969191 154.835644 
L 336.969191 150.045149 
L 337.274066 150.045149 
L 337.274066 145.254653 
L 337.998246 145.254653 
L 337.998246 140.464158 
L 338.158165 140.464158 
L 338.158165 135.673663 
L 339.001439 135.673663 
L 339.001439 130.883168 
L 339.664491 130.883168 
L 339.664491 126.092673 
L 340.396413 126.092673 
L 340.396413 121.302178 
L 340.821671 121.302178 
L 340.821671 116.511683 
L 343.052385 116.511683 
L 343.052385 111.721188 
L 343.764999 111.721188 
L 343.764999 106.930693 
L 343.78982 106.930693 
L 343.78982 102.140198 
L 345.505614 102.140198 
L 345.505614 97.349703 
L 346.223834 97.349703 
L 346.223834 92.559208 
L 346.578773 92.559208 
L 346.578773 87.768713 
L 346.625928 87.768713 
L 346.625928 82.978218 
L 346.646976 82.978218 
L 346.646976 78.187723 
L 347.485862 78.187723 
L 347.485862 73.397228 
L 347.813353 73.397228 
L 347.813353 68.606733 
L 349.122171 68.606733 
L 349.122171 63.816238 
L 349.554794 63.816238 
L 349.554794 59.025743 
L 350.133952 59.025743 
L 350.133952 54.235248 
L 352.041887 54.235248 
L 352.041887 49.444752 
L 352.767328 49.444752 
L 352.767328 44.654257 
L 353.637115 44.654257 
L 353.637115 39.863762 
L 353.773572 39.863762 
L 353.773572 35.073267 
L 355.121754 35.073267 
L 355.121754 30.282772 
L 359.35137 30.282772 
L 359.35137 25.492277 
L 360.302428 25.492277 
L 360.302428 20.701782 
L 360.89173 20.701782 
L 360.89173 15.911287 
L 360.997168 15.911287 
L 360.997168 11.120792 
L 364.691135 11.120792 
L 364.691135 6.330297 
L 364.691135 6.330297 
L 364.691135 6.330297 
L 460.8 6.330297 
" style="fill:none;stroke:#000000;stroke-linecap:square;stroke-width:1.5;"/>
   </g>
   <g id="line2d_25">
    <path clip-path="url(#pe010a7d3b1)" d="M 269.628369 293.76 
L 269.628369 288.969505 
L 270.108946 288.969505 
L 270.108946 284.17901 
L 271.608775 284.17901 
L 271.608775 279.388515 
L 272.22541 279.388515 
L 272.22541 274.59802 
L 275.627511 274.59802 
L 275.627511 269.807525 
L 278.285437 269.807525 
L 278.285437 265.01703 
L 279.106375 265.01703 
L 279.106375 260.226535 
L 280.674805 260.226535 
L 280.674805 255.43604 
L 280.883958 255.43604 
L 280.883958 250.645545 
L 281.524256 250.645545 
L 281.524256 245.85505 
L 284.417233 245.85505 
L 284.417233 241.064554 
L 286.015836 241.064554 
L 286.015836 236.274059 
L 287.894773 236.274059 
L 287.894773 231.483564 
L 289.086089 231.483564 
L 289.086089 226.693069 
L 289.6343 226.693069 
L 289.6343 221.902574 
L 304.54715 221.902574 
L 304.54715 217.112079 
L 306.792308 217.112079 
L 306.792308 212.321584 
L 310.829164 212.321584 
L 310.829164 207.531089 
L 313.982903 207.531089 
L 313.982903 202.740594 
L 314.461638 202.740594 
L 314.461638 197.950099 
L 314.740368 197.950099 
L 314.740368 193.159604 
L 317.565975 193.159604 
L 317.565975 188.369109 
L 319.584409 188.369109 
L 319.584409 183.578614 
L 320.847032 183.578614 
L 320.847032 178.788119 
L 321.848298 178.788119 
L 321.848298 173.997624 
L 322.597688 173.997624 
L 322.597688 169.207129 
L 324.379789 169.207129 
L 324.379789 164.416634 
L 325.480511 164.416634 
L 325.480511 159.626139 
L 326.866107 159.626139 
L 326.866107 154.835644 
L 328.112382 154.835644 
L 328.112382 150.045149 
L 329.26958 150.045149 
L 329.26958 145.254653 
L 330.003841 145.254653 
L 330.003841 140.464158 
L 330.878538 140.464158 
L 330.878538 135.673663 
L 331.618331 135.673663 
L 331.618331 130.883168 
L 332.693122 130.883168 
L 332.693122 126.092673 
L 333.242652 126.092673 
L 333.242652 121.302178 
L 333.611926 121.302178 
L 333.611926 116.511683 
L 334.652793 116.511683 
L 334.652793 111.721188 
L 335.381478 111.721188 
L 335.381478 106.930693 
L 336.969191 106.930693 
L 336.969191 102.140198 
L 339.906388 102.140198 
L 339.906388 97.349703 
L 340.62465 97.349703 
L 340.62465 92.559208 
L 340.644801 92.559208 
L 340.644801 87.768713 
L 340.701546 87.768713 
L 340.701546 82.978218 
L 340.987557 82.978218 
L 340.987557 78.187723 
L 341.766793 78.187723 
L 341.766793 73.397228 
L 342.835266 73.397228 
L 342.835266 68.606733 
L 345.813059 68.606733 
L 345.813059 63.816238 
L 346.77934 63.816238 
L 346.77934 59.025743 
L 346.84796 59.025743 
L 346.84796 54.235248 
L 347.321567 54.235248 
L 347.321567 49.444752 
L 349.554794 49.444752 
L 349.554794 44.654257 
L 351.97212 44.654257 
L 351.97212 39.863762 
L 352.890201 39.863762 
L 352.890201 35.073267 
L 353.127053 35.073267 
L 353.127053 30.282772 
L 353.713064 30.282772 
L 353.713064 25.492277 
L 359.760638 25.492277 
L 359.760638 20.701782 
L 360.176186 20.701782 
L 360.176186 15.911287 
L 360.208937 15.911287 
L 360.208937 11.120792 
L 364.691135 11.120792 
L 364.691135 6.330297 
L 364.691135 6.330297 
L 364.691135 6.330297 
L 460.8 6.330297 
" style="fill:none;stroke:#00bfbf;stroke-linecap:square;stroke-width:1.5;"/>
   </g>
   <g id="line2d_26">
    <path clip-path="url(#pe010a7d3b1)" d="M 266.847553 293.76 
L 266.847553 288.969505 
L 268.526744 288.969505 
L 268.526744 284.17901 
L 268.536943 284.17901 
L 268.536943 279.388515 
L 269.628369 279.388515 
L 269.628369 274.59802 
L 274.949376 274.59802 
L 274.949376 269.807525 
L 275.627511 269.807525 
L 275.627511 265.01703 
L 277.751962 265.01703 
L 277.751962 260.226535 
L 278.285437 260.226535 
L 278.285437 255.43604 
L 278.31965 255.43604 
L 278.31965 250.645545 
L 280.674805 250.645545 
L 280.674805 245.85505 
L 283.040421 245.85505 
L 283.040421 241.064554 
L 286.015836 241.064554 
L 286.015836 236.274059 
L 286.171465 236.274059 
L 286.171465 231.483564 
L 287.013366 231.483564 
L 287.013366 226.693069 
L 287.176865 226.693069 
L 287.176865 221.902574 
L 290.183844 221.902574 
L 290.183844 217.112079 
L 297.356661 217.112079 
L 297.356661 212.321584 
L 298.996921 212.321584 
L 298.996921 207.531089 
L 302.765372 207.531089 
L 302.765372 202.740594 
L 303.136005 202.740594 
L 303.136005 197.950099 
L 304.309856 197.950099 
L 304.309856 193.159604 
L 304.726975 193.159604 
L 304.726975 188.369109 
L 304.796234 188.369109 
L 304.796234 183.578614 
L 306.858412 183.578614 
L 306.858412 178.788119 
L 307.17001 178.788119 
L 307.17001 173.997624 
L 307.307832 173.997624 
L 307.307832 169.207129 
L 309.734631 169.207129 
L 309.734631 164.416634 
L 309.797272 164.416634 
L 309.797272 159.626139 
L 310.829164 159.626139 
L 310.829164 154.835644 
L 312.909043 154.835644 
L 312.909043 150.045149 
L 314.736275 150.045149 
L 314.736275 145.254653 
L 318.015174 145.254653 
L 318.015174 140.464158 
L 320.218133 140.464158 
L 320.218133 135.673663 
L 320.460508 135.673663 
L 320.460508 130.883168 
L 324.495111 130.883168 
L 324.495111 126.092673 
L 327.535582 126.092673 
L 327.535582 121.302178 
L 327.791878 121.302178 
L 327.791878 116.511683 
L 328.300709 116.511683 
L 328.300709 111.721188 
L 330.588064 111.721188 
L 330.588064 106.930693 
L 331.416695 106.930693 
L 331.416695 102.140198 
L 332.093438 102.140198 
L 332.093438 97.349703 
L 333.961368 97.349703 
L 333.961368 92.559208 
L 335.381478 92.559208 
L 335.381478 87.768713 
L 336.459466 87.768713 
L 336.459466 82.978218 
L 338.50107 82.978218 
L 338.50107 78.187723 
L 338.52241 78.187723 
L 338.52241 73.397228 
L 339.437637 73.397228 
L 339.437637 68.606733 
L 339.885582 68.606733 
L 339.885582 63.816238 
L 343.156289 63.816238 
L 343.156289 59.025743 
L 343.346056 59.025743 
L 343.346056 54.235248 
L 343.679801 54.235248 
L 343.679801 49.444752 
L 344.426283 49.444752 
L 344.426283 44.654257 
L 349.236962 44.654257 
L 349.236962 39.863762 
L 351.649194 39.863762 
L 351.649194 35.073267 
L 353.127053 35.073267 
L 353.127053 30.282772 
L 353.713064 30.282772 
L 353.713064 25.492277 
L 354.294496 25.492277 
L 354.294496 20.701782 
L 355.838902 20.701782 
L 355.838902 15.911287 
L 360.199642 15.911287 
L 360.199642 11.120792 
L 363.344971 11.120792 
L 363.344971 6.330297 
L 363.344971 6.330297 
L 363.344971 6.330297 
L 460.8 6.330297 
" style="fill:none;stroke:#bf00bf;stroke-linecap:square;stroke-width:1.5;"/>
   </g>
   <g id="patch_3">
    <path d="M 0 293.76 
L 0 3.456 
" style="fill:none;stroke:#000000;stroke-linecap:square;stroke-linejoin:miter;stroke-width:0.8;"/>
   </g>
   <g id="patch_4">
    <path d="M 460.8 293.76 
L 460.8 3.456 
" style="fill:none;stroke:#000000;stroke-linecap:square;stroke-linejoin:miter;stroke-width:0.8;"/>
   </g>
   <g id="patch_5">
    <path d="M -0 293.76 
L 460.8 293.76 
" style="fill:none;stroke:#000000;stroke-linecap:square;stroke-linejoin:miter;stroke-width:0.8;"/>
   </g>
   <g id="patch_6">
    <path d="M -0 3.456 
L 460.8 3.456 
" style="fill:none;stroke:#000000;stroke-linecap:square;stroke-linejoin:miter;stroke-width:0.8;"/>
   </g>
   <g id="text_6">
    <!-- {f6-f9}, 20-D -->
    <defs>
     <path d="M 51.125 -9.28125 
L 51.125 -16.3125 
L 48.09375 -16.3125 
Q 35.9375 -16.3125 31.8125 -12.6875 
Q 27.6875 -9.078125 27.6875 1.703125 
L 27.6875 13.375 
Q 27.6875 20.75 25.046875 23.578125 
Q 22.40625 26.421875 15.484375 26.421875 
L 12.5 26.421875 
L 12.5 33.40625 
L 15.484375 33.40625 
Q 22.46875 33.40625 25.078125 36.203125 
Q 27.6875 39.015625 27.6875 46.296875 
L 27.6875 58.015625 
Q 27.6875 68.796875 31.8125 72.390625 
Q 35.9375 75.984375 48.09375 75.984375 
L 51.125 75.984375 
L 51.125 69 
L 47.796875 69 
Q 40.921875 69 38.8125 66.84375 
Q 36.71875 64.703125 36.71875 57.8125 
L 36.71875 45.703125 
Q 36.71875 38.03125 34.5 34.5625 
Q 32.28125 31.109375 26.90625 29.890625 
Q 32.328125 28.5625 34.515625 25.09375 
Q 36.71875 21.625 36.71875 14.015625 
L 36.71875 1.90625 
Q 36.71875 -4.984375 38.8125 -7.125 
Q 40.921875 -9.28125 47.796875 -9.28125 
z
" id="DejaVuSans-123"/>
     <path d="M 33.015625 40.375 
Q 26.375 40.375 22.484375 35.828125 
Q 18.609375 31.296875 18.609375 23.390625 
Q 18.609375 15.53125 22.484375 10.953125 
Q 26.375 6.390625 33.015625 6.390625 
Q 39.65625 6.390625 43.53125 10.953125 
Q 47.40625 15.53125 47.40625 23.390625 
Q 47.40625 31.296875 43.53125 35.828125 
Q 39.65625 40.375 33.015625 40.375 
z
M 52.59375 71.296875 
L 52.59375 62.3125 
Q 48.875 64.0625 45.09375 64.984375 
Q 41.3125 65.921875 37.59375 65.921875 
Q 27.828125 65.921875 22.671875 59.328125 
Q 17.53125 52.734375 16.796875 39.40625 
Q 19.671875 43.65625 24.015625 45.921875 
Q 28.375 48.1875 33.59375 48.1875 
Q 44.578125 48.1875 50.953125 41.515625 
Q 57.328125 34.859375 57.328125 23.390625 
Q 57.328125 12.15625 50.6875 5.359375 
Q 44.046875 -1.421875 33.015625 -1.421875 
Q 20.359375 -1.421875 13.671875 8.265625 
Q 6.984375 17.96875 6.984375 36.375 
Q 6.984375 53.65625 15.1875 63.9375 
Q 23.390625 74.21875 37.203125 74.21875 
Q 40.921875 74.21875 44.703125 73.484375 
Q 48.484375 72.75 52.59375 71.296875 
z
" id="DejaVuSans-54"/>
     <path d="M 10.984375 1.515625 
L 10.984375 10.5 
Q 14.703125 8.734375 18.5 7.8125 
Q 22.3125 6.890625 25.984375 6.890625 
Q 35.75 6.890625 40.890625 13.453125 
Q 46.046875 20.015625 46.78125 33.40625 
Q 43.953125 29.203125 39.59375 26.953125 
Q 35.25 24.703125 29.984375 24.703125 
Q 19.046875 24.703125 12.671875 31.3125 
Q 6.296875 37.9375 6.296875 49.421875 
Q 6.296875 60.640625 12.9375 67.421875 
Q 19.578125 74.21875 30.609375 74.21875 
Q 43.265625 74.21875 49.921875 64.515625 
Q 56.59375 54.828125 56.59375 36.375 
Q 56.59375 19.140625 48.40625 8.859375 
Q 40.234375 -1.421875 26.421875 -1.421875 
Q 22.703125 -1.421875 18.890625 -0.6875 
Q 15.09375 0.046875 10.984375 1.515625 
z
M 30.609375 32.421875 
Q 37.25 32.421875 41.125 36.953125 
Q 45.015625 41.5 45.015625 49.421875 
Q 45.015625 57.28125 41.125 61.84375 
Q 37.25 66.40625 30.609375 66.40625 
Q 23.96875 66.40625 20.09375 61.84375 
Q 16.21875 57.28125 16.21875 49.421875 
Q 16.21875 41.5 20.09375 36.953125 
Q 23.96875 32.421875 30.609375 32.421875 
z
" id="DejaVuSans-57"/>
     <path d="M 12.5 -9.28125 
L 15.921875 -9.28125 
Q 22.75 -9.28125 24.828125 -7.171875 
Q 26.90625 -5.078125 26.90625 1.90625 
L 26.90625 14.015625 
Q 26.90625 21.625 29.09375 25.09375 
Q 31.296875 28.5625 36.71875 29.890625 
Q 31.296875 31.109375 29.09375 34.5625 
Q 26.90625 38.03125 26.90625 45.703125 
L 26.90625 57.8125 
Q 26.90625 64.75 24.828125 66.875 
Q 22.75 69 15.921875 69 
L 12.5 69 
L 12.5 75.984375 
L 15.578125 75.984375 
Q 27.734375 75.984375 31.8125 72.390625 
Q 35.890625 68.796875 35.890625 58.015625 
L 35.890625 46.296875 
Q 35.890625 39.015625 38.515625 36.203125 
Q 41.15625 33.40625 48.09375 33.40625 
L 51.125 33.40625 
L 51.125 26.421875 
L 48.09375 26.421875 
Q 41.15625 26.421875 38.515625 23.578125 
Q 35.890625 20.75 35.890625 13.375 
L 35.890625 1.703125 
Q 35.890625 -9.078125 31.8125 -12.6875 
Q 27.734375 -16.3125 15.578125 -16.3125 
L 12.5 -16.3125 
z
" id="DejaVuSans-125"/>
     <path d="M 11.71875 12.40625 
L 22.015625 12.40625 
L 22.015625 4 
L 14.015625 -11.625 
L 7.71875 -11.625 
L 11.71875 4 
z
" id="DejaVuSans-44"/>
     <path d="M 19.1875 8.296875 
L 53.609375 8.296875 
L 53.609375 0 
L 7.328125 0 
L 7.328125 8.296875 
Q 12.9375 14.109375 22.625 23.890625 
Q 32.328125 33.6875 34.8125 36.53125 
Q 39.546875 41.84375 41.421875 45.53125 
Q 43.3125 49.21875 43.3125 52.78125 
Q 43.3125 58.59375 39.234375 62.25 
Q 35.15625 65.921875 28.609375 65.921875 
Q 23.96875 65.921875 18.8125 64.3125 
Q 13.671875 62.703125 7.8125 59.421875 
L 7.8125 69.390625 
Q 13.765625 71.78125 18.9375 73 
Q 24.125 74.21875 28.421875 74.21875 
Q 39.75 74.21875 46.484375 68.546875 
Q 53.21875 62.890625 53.21875 53.421875 
Q 53.21875 48.921875 51.53125 44.890625 
Q 49.859375 40.875 45.40625 35.40625 
Q 44.1875 33.984375 37.640625 27.21875 
Q 31.109375 20.453125 19.1875 8.296875 
z
" id="DejaVuSans-50"/>
    </defs>
    <g transform="translate(318.609 287.95392)scale(0.2 -0.2)">
     <use xlink:href="#DejaVuSans-123"/>
     <use x="63.623047" xlink:href="#DejaVuSans-102"/>
     <use x="98.828125" xlink:href="#DejaVuSans-54"/>
     <use x="162.451172" xlink:href="#DejaVuSans-45"/>
     <use x="198.535156" xlink:href="#DejaVuSans-102"/>
     <use x="233.740234" xlink:href="#DejaVuSans-57"/>
     <use x="297.363281" xlink:href="#DejaVuSans-125"/>
     <use x="360.986328" xlink:href="#DejaVuSans-44"/>
     <use x="392.773438" xlink:href="#DejaVuSans-32"/>
     <use x="424.560547" xlink:href="#DejaVuSans-50"/>
     <use x="488.183594" xlink:href="#DejaVuSans-48"/>
     <use x="551.806641" xlink:href="#DejaVuSans-45"/>
     <use x="587.890625" xlink:href="#DejaVuSans-68"/>
    </g>
   </g>
   <g id="text_7">
    <!-- v2.4 -->
    <defs>
     <path d="M 2.984375 54.6875 
L 12.5 54.6875 
L 29.59375 8.796875 
L 46.6875 54.6875 
L 56.203125 54.6875 
L 35.6875 0 
L 23.484375 0 
z
" id="DejaVuSans-118"/>
     <path d="M 10.6875 12.40625 
L 21 12.40625 
L 21 0 
L 10.6875 0 
z
" id="DejaVuSans-46"/>
    </defs>
    <g style="fill:#808080;" transform="translate(219.489063 288.777272)scale(0.1 -0.1)">
     <use xlink:href="#DejaVuSans-118"/>
     <use x="59.179688" xlink:href="#DejaVuSans-50"/>
     <use x="122.802734" xlink:href="#DejaVuSans-46"/>
     <use x="154.589844" xlink:href="#DejaVuSans-52"/>
    </g>
   </g>
  </g>
 </g>
 <defs>
  <clipPath id="pe010a7d3b1">
   <rect height="290.304" width="460.8" x="0" y="3.456"/>
  </clipPath>
 </defs>
</svg>
