<?xml version="1.0" encoding="utf-8" standalone="no"?>
<!DOCTYPE svg PUBLIC "-//W3C//DTD SVG 1.1//EN"
  "http://www.w3.org/Graphics/SVG/1.1/DTD/svg11.dtd">
<!-- Created with matplotlib (https://matplotlib.org/) -->
<svg height="345.6pt" version="1.1" viewBox="0 0 460.8 345.6" width="460.8pt" xmlns="http://www.w3.org/2000/svg" xmlns:xlink="http://www.w3.org/1999/xlink">
 <defs>
  <style type="text/css">
*{stroke-linecap:butt;stroke-linejoin:round;}
  </style>
 </defs>
 <g id="figure_1">
  <g id="patch_1">
   <path d="M 0 345.6 
L 460.8 345.6 
L 460.8 0 
L 0 0 
z
" style="fill:#ffffff;"/>
  </g>
  <g id="axes_1">
   <g id="patch_2">
    <path d="M 0 293.76 
L 460.8 293.76 
L 460.8 3.456 
L 0 3.456 
z
" style="fill:#ffffff;"/>
   </g>
   <g id="matplotlib.axis_1">
    <g id="xtick_1">
     <g id="line2d_1">
      <path clip-path="url(#p230520d965)" d="M 104.741413 293.76 
L 104.741413 3.456 
" style="fill:none;stroke:#b0b0b0;stroke-linecap:square;stroke-width:0.8;"/>
     </g>
     <g id="line2d_2">
      <defs>
       <path d="M 0 0 
L 0 3.5 
" id="m1a86faf025" style="stroke:#000000;stroke-width:0.8;"/>
      </defs>
      <g>
       <use style="stroke:#000000;stroke-width:0.8;" x="104.741413" xlink:href="#m1a86faf025" y="293.76"/>
      </g>
     </g>
     <g id="text_1">
      <!-- -4 -->
      <defs>
       <path d="M 4.890625 31.390625 
L 31.203125 31.390625 
L 31.203125 23.390625 
L 4.890625 23.390625 
z
" id="DejaVuSans-45"/>
       <path d="M 37.796875 64.3125 
L 12.890625 25.390625 
L 37.796875 25.390625 
z
M 35.203125 72.90625 
L 47.609375 72.90625 
L 47.609375 25.390625 
L 58.015625 25.390625 
L 58.015625 17.1875 
L 47.609375 17.1875 
L 47.609375 0 
L 37.796875 0 
L 37.796875 17.1875 
L 4.890625 17.1875 
L 4.890625 26.703125 
z
" id="DejaVuSans-52"/>
      </defs>
      <g transform="translate(94.7711 315.956875)scale(0.2 -0.2)">
       <use xlink:href="#DejaVuSans-45"/>
       <use x="36.083984" xlink:href="#DejaVuSans-52"/>
      </g>
     </g>
    </g>
    <g id="xtick_2">
     <g id="line2d_3">
      <path clip-path="url(#p230520d965)" d="M 209.596104 293.76 
L 209.596104 3.456 
" style="fill:none;stroke:#b0b0b0;stroke-linecap:square;stroke-width:0.8;"/>
     </g>
     <g id="line2d_4">
      <g>
       <use style="stroke:#000000;stroke-width:0.8;" x="209.596104" xlink:href="#m1a86faf025" y="293.76"/>
      </g>
     </g>
     <g id="text_2">
      <!-- 0 -->
      <defs>
       <path d="M 31.78125 66.40625 
Q 24.171875 66.40625 20.328125 58.90625 
Q 16.5 51.421875 16.5 36.375 
Q 16.5 21.390625 20.328125 13.890625 
Q 24.171875 6.390625 31.78125 6.390625 
Q 39.453125 6.390625 43.28125 13.890625 
Q 47.125 21.390625 47.125 36.375 
Q 47.125 51.421875 43.28125 58.90625 
Q 39.453125 66.40625 31.78125 66.40625 
z
M 31.78125 74.21875 
Q 44.046875 74.21875 50.515625 64.515625 
Q 56.984375 54.828125 56.984375 36.375 
Q 56.984375 17.96875 50.515625 8.265625 
Q 44.046875 -1.421875 31.78125 -1.421875 
Q 19.53125 -1.421875 13.0625 8.265625 
Q 6.59375 17.96875 6.59375 36.375 
Q 6.59375 54.828125 13.0625 64.515625 
Q 19.53125 74.21875 31.78125 74.21875 
z
" id="DejaVuSans-48"/>
      </defs>
      <g transform="translate(203.233604 315.956875)scale(0.2 -0.2)">
       <use xlink:href="#DejaVuSans-48"/>
      </g>
     </g>
    </g>
    <g id="xtick_3">
     <g id="line2d_5">
      <path clip-path="url(#p230520d965)" d="M 314.450796 293.76 
L 314.450796 3.456 
" style="fill:none;stroke:#b0b0b0;stroke-linecap:square;stroke-width:0.8;"/>
     </g>
     <g id="line2d_6">
      <g>
       <use style="stroke:#000000;stroke-width:0.8;" x="314.450796" xlink:href="#m1a86faf025" y="293.76"/>
      </g>
     </g>
     <g id="text_3">
      <!-- 4 -->
      <g transform="translate(308.088296 315.956875)scale(0.2 -0.2)">
       <use xlink:href="#DejaVuSans-52"/>
      </g>
     </g>
    </g>
    <g id="xtick_4">
     <g id="line2d_7">
      <path clip-path="url(#p230520d965)" d="M 419.305487 293.76 
L 419.305487 3.456 
" style="fill:none;stroke:#b0b0b0;stroke-linecap:square;stroke-width:0.8;"/>
     </g>
     <g id="line2d_8">
      <g>
       <use style="stroke:#000000;stroke-width:0.8;" x="419.305487" xlink:href="#m1a86faf025" y="293.76"/>
      </g>
     </g>
     <g id="text_4">
      <!-- 8 -->
      <defs>
       <path d="M 31.78125 34.625 
Q 24.75 34.625 20.71875 30.859375 
Q 16.703125 27.09375 16.703125 20.515625 
Q 16.703125 13.921875 20.71875 10.15625 
Q 24.75 6.390625 31.78125 6.390625 
Q 38.8125 6.390625 42.859375 10.171875 
Q 46.921875 13.96875 46.921875 20.515625 
Q 46.921875 27.09375 42.890625 30.859375 
Q 38.875 34.625 31.78125 34.625 
z
M 21.921875 38.8125 
Q 15.578125 40.375 12.03125 44.71875 
Q 8.5 49.078125 8.5 55.328125 
Q 8.5 64.0625 14.71875 69.140625 
Q 20.953125 74.21875 31.78125 74.21875 
Q 42.671875 74.21875 48.875 69.140625 
Q 55.078125 64.0625 55.078125 55.328125 
Q 55.078125 49.078125 51.53125 44.71875 
Q 48 40.375 41.703125 38.8125 
Q 48.828125 37.15625 52.796875 32.3125 
Q 56.78125 27.484375 56.78125 20.515625 
Q 56.78125 9.90625 50.3125 4.234375 
Q 43.84375 -1.421875 31.78125 -1.421875 
Q 19.734375 -1.421875 13.25 4.234375 
Q 6.78125 9.90625 6.78125 20.515625 
Q 6.78125 27.484375 10.78125 32.3125 
Q 14.796875 37.15625 21.921875 38.8125 
z
M 18.3125 54.390625 
Q 18.3125 48.734375 21.84375 45.5625 
Q 25.390625 42.390625 31.78125 42.390625 
Q 38.140625 42.390625 41.71875 45.5625 
Q 45.3125 48.734375 45.3125 54.390625 
Q 45.3125 60.0625 41.71875 63.234375 
Q 38.140625 66.40625 31.78125 66.40625 
Q 25.390625 66.40625 21.84375 63.234375 
Q 18.3125 60.0625 18.3125 54.390625 
z
" id="DejaVuSans-56"/>
      </defs>
      <g transform="translate(412.942987 315.956875)scale(0.2 -0.2)">
       <use xlink:href="#DejaVuSans-56"/>
      </g>
     </g>
    </g>
    <g id="text_5">
     <!-- log10 of Df -->
     <defs>
      <path d="M 9.421875 75.984375 
L 18.40625 75.984375 
L 18.40625 0 
L 9.421875 0 
z
" id="DejaVuSans-108"/>
      <path d="M 30.609375 48.390625 
Q 23.390625 48.390625 19.1875 42.75 
Q 14.984375 37.109375 14.984375 27.296875 
Q 14.984375 17.484375 19.15625 11.84375 
Q 23.34375 6.203125 30.609375 6.203125 
Q 37.796875 6.203125 41.984375 11.859375 
Q 46.1875 17.53125 46.1875 27.296875 
Q 46.1875 37.015625 41.984375 42.703125 
Q 37.796875 48.390625 30.609375 48.390625 
z
M 30.609375 56 
Q 42.328125 56 49.015625 48.375 
Q 55.71875 40.765625 55.71875 27.296875 
Q 55.71875 13.875 49.015625 6.21875 
Q 42.328125 -1.421875 30.609375 -1.421875 
Q 18.84375 -1.421875 12.171875 6.21875 
Q 5.515625 13.875 5.515625 27.296875 
Q 5.515625 40.765625 12.171875 48.375 
Q 18.84375 56 30.609375 56 
z
" id="DejaVuSans-111"/>
      <path d="M 45.40625 27.984375 
Q 45.40625 37.75 41.375 43.109375 
Q 37.359375 48.484375 30.078125 48.484375 
Q 22.859375 48.484375 18.828125 43.109375 
Q 14.796875 37.75 14.796875 27.984375 
Q 14.796875 18.265625 18.828125 12.890625 
Q 22.859375 7.515625 30.078125 7.515625 
Q 37.359375 7.515625 41.375 12.890625 
Q 45.40625 18.265625 45.40625 27.984375 
z
M 54.390625 6.78125 
Q 54.390625 -7.171875 48.1875 -13.984375 
Q 42 -20.796875 29.203125 -20.796875 
Q 24.46875 -20.796875 20.265625 -20.09375 
Q 16.0625 -19.390625 12.109375 -17.921875 
L 12.109375 -9.1875 
Q 16.0625 -11.328125 19.921875 -12.34375 
Q 23.78125 -13.375 27.78125 -13.375 
Q 36.625 -13.375 41.015625 -8.765625 
Q 45.40625 -4.15625 45.40625 5.171875 
L 45.40625 9.625 
Q 42.625 4.78125 38.28125 2.390625 
Q 33.9375 0 27.875 0 
Q 17.828125 0 11.671875 7.65625 
Q 5.515625 15.328125 5.515625 27.984375 
Q 5.515625 40.671875 11.671875 48.328125 
Q 17.828125 56 27.875 56 
Q 33.9375 56 38.28125 53.609375 
Q 42.625 51.21875 45.40625 46.390625 
L 45.40625 54.6875 
L 54.390625 54.6875 
z
" id="DejaVuSans-103"/>
      <path d="M 12.40625 8.296875 
L 28.515625 8.296875 
L 28.515625 63.921875 
L 10.984375 60.40625 
L 10.984375 69.390625 
L 28.421875 72.90625 
L 38.28125 72.90625 
L 38.28125 8.296875 
L 54.390625 8.296875 
L 54.390625 0 
L 12.40625 0 
z
" id="DejaVuSans-49"/>
      <path id="DejaVuSans-32"/>
      <path d="M 37.109375 75.984375 
L 37.109375 68.5 
L 28.515625 68.5 
Q 23.6875 68.5 21.796875 66.546875 
Q 19.921875 64.59375 19.921875 59.515625 
L 19.921875 54.6875 
L 34.71875 54.6875 
L 34.71875 47.703125 
L 19.921875 47.703125 
L 19.921875 0 
L 10.890625 0 
L 10.890625 47.703125 
L 2.296875 47.703125 
L 2.296875 54.6875 
L 10.890625 54.6875 
L 10.890625 58.5 
Q 10.890625 67.625 15.140625 71.796875 
Q 19.390625 75.984375 28.609375 75.984375 
z
" id="DejaVuSans-102"/>
      <path d="M 19.671875 64.796875 
L 19.671875 8.109375 
L 31.59375 8.109375 
Q 46.6875 8.109375 53.6875 14.9375 
Q 60.6875 21.78125 60.6875 36.53125 
Q 60.6875 51.171875 53.6875 57.984375 
Q 46.6875 64.796875 31.59375 64.796875 
z
M 9.8125 72.90625 
L 30.078125 72.90625 
Q 51.265625 72.90625 61.171875 64.09375 
Q 71.09375 55.28125 71.09375 36.53125 
Q 71.09375 17.671875 61.125 8.828125 
Q 51.171875 0 30.078125 0 
L 9.8125 0 
z
" id="DejaVuSans-68"/>
     </defs>
     <g transform="translate(175.214063 339.313125)scale(0.2 -0.2)">
      <use xlink:href="#DejaVuSans-108"/>
      <use x="27.783203" xlink:href="#DejaVuSans-111"/>
      <use x="88.964844" xlink:href="#DejaVuSans-103"/>
      <use x="152.441406" xlink:href="#DejaVuSans-49"/>
      <use x="216.064453" xlink:href="#DejaVuSans-48"/>
      <use x="279.6875" xlink:href="#DejaVuSans-32"/>
      <use x="311.474609" xlink:href="#DejaVuSans-111"/>
      <use x="372.65625" xlink:href="#DejaVuSans-102"/>
      <use x="407.861328" xlink:href="#DejaVuSans-32"/>
      <use x="439.648438" xlink:href="#DejaVuSans-68"/>
      <use x="516.650391" xlink:href="#DejaVuSans-102"/>
     </g>
    </g>
   </g>
   <g id="matplotlib.axis_2">
    <g id="ytick_1">
     <g id="line2d_9">
      <path clip-path="url(#p230520d965)" d="M 0 293.76 
L 460.8 293.76 
" style="fill:none;stroke:#b0b0b0;stroke-linecap:square;stroke-width:0.8;"/>
     </g>
     <g id="line2d_10">
      <defs>
       <path d="M 0 0 
L -3.5 0 
" id="mc3af34cc8a" style="stroke:#000000;stroke-width:0.8;"/>
      </defs>
      <g>
       <use style="stroke:#000000;stroke-width:0.8;" x="0" xlink:href="#mc3af34cc8a" y="293.76"/>
      </g>
     </g>
    </g>
    <g id="ytick_2">
     <g id="line2d_11">
      <path clip-path="url(#p230520d965)" d="M 0 236.274059 
L 460.8 236.274059 
" style="fill:none;stroke:#b0b0b0;stroke-linecap:square;stroke-width:0.8;"/>
     </g>
     <g id="line2d_12">
      <g>
       <use style="stroke:#000000;stroke-width:0.8;" x="0" xlink:href="#mc3af34cc8a" y="236.274059"/>
      </g>
     </g>
    </g>
    <g id="ytick_3">
     <g id="line2d_13">
      <path clip-path="url(#p230520d965)" d="M 0 178.788119 
L 460.8 178.788119 
" style="fill:none;stroke:#b0b0b0;stroke-linecap:square;stroke-width:0.8;"/>
     </g>
     <g id="line2d_14">
      <g>
       <use style="stroke:#000000;stroke-width:0.8;" x="0" xlink:href="#mc3af34cc8a" y="178.788119"/>
      </g>
     </g>
    </g>
    <g id="ytick_4">
     <g id="line2d_15">
      <path clip-path="url(#p230520d965)" d="M 0 121.302178 
L 460.8 121.302178 
" style="fill:none;stroke:#b0b0b0;stroke-linecap:square;stroke-width:0.8;"/>
     </g>
     <g id="line2d_16">
      <g>
       <use style="stroke:#000000;stroke-width:0.8;" x="0" xlink:href="#mc3af34cc8a" y="121.302178"/>
      </g>
     </g>
    </g>
    <g id="ytick_5">
     <g id="line2d_17">
      <path clip-path="url(#p230520d965)" d="M 0 63.816238 
L 460.8 63.816238 
" style="fill:none;stroke:#b0b0b0;stroke-linecap:square;stroke-width:0.8;"/>
     </g>
     <g id="line2d_18">
      <g>
       <use style="stroke:#000000;stroke-width:0.8;" x="0" xlink:href="#mc3af34cc8a" y="63.816238"/>
      </g>
     </g>
    </g>
    <g id="ytick_6">
     <g id="line2d_19">
      <path clip-path="url(#p230520d965)" d="M 0 6.330297 
L 460.8 6.330297 
" style="fill:none;stroke:#b0b0b0;stroke-linecap:square;stroke-width:0.8;"/>
     </g>
     <g id="line2d_20">
      <g>
       <use style="stroke:#000000;stroke-width:0.8;" x="0" xlink:href="#mc3af34cc8a" y="6.330297"/>
      </g>
     </g>
    </g>
   </g>
   <g id="line2d_21">
    <path clip-path="url(#p230520d965)" d="M 253.464499 293.76 
L 253.464499 289.927604 
L 254.507915 289.927604 
L 254.507915 286.095208 
L 255.684271 286.095208 
L 255.684271 282.262812 
L 256.775709 282.262812 
L 256.775709 278.430416 
L 256.988182 278.430416 
L 256.988182 274.59802 
L 257.191971 274.59802 
L 257.191971 270.765624 
L 257.593859 270.765624 
L 257.593859 266.933228 
L 258.772505 266.933228 
L 258.772505 263.100832 
L 258.959156 263.100832 
L 258.959156 259.268436 
L 260.571118 259.268436 
L 260.674619 251.603644 
L 260.763273 251.603644 
L 260.763273 247.771248 
L 262.059688 247.771248 
L 262.155447 240.106455 
L 264.917235 240.106455 
L 264.917235 236.274059 
L 270.775497 236.274059 
L 270.775497 232.441663 
L 271.028529 232.441663 
L 271.028529 228.609267 
L 271.271932 228.609267 
L 271.271932 224.776871 
L 272.234941 224.776871 
L 272.234941 220.944475 
L 272.390111 220.944475 
L 272.444262 209.447287 
L 272.655915 209.447287 
L 272.655915 205.614891 
L 273.010128 205.614891 
L 273.036839 197.950099 
L 273.282353 197.950099 
L 273.282353 194.117703 
L 273.454025 194.117703 
L 273.454025 190.285307 
L 273.60108 190.285307 
L 273.647795 182.620515 
L 273.912836 182.620515 
L 273.912836 178.788119 
L 276.004071 178.788119 
L 276.004071 174.955723 
L 276.789212 174.955723 
L 276.880921 167.290931 
L 277.654889 167.290931 
L 277.654889 163.458535 
L 277.986575 163.458535 
L 277.986575 159.626139 
L 278.461611 159.626139 
L 278.47483 151.961347 
L 279.278344 151.961347 
L 279.278344 148.12895 
L 280.055847 148.12895 
L 280.055847 144.296554 
L 280.5487 144.296554 
L 280.5487 140.464158 
L 280.693591 140.464158 
L 280.736918 132.799366 
L 280.931258 132.799366 
L 280.931258 128.96697 
L 281.077521 128.96697 
L 281.077521 125.134574 
L 281.476707 125.134574 
L 281.545758 117.469782 
L 281.703172 117.469782 
L 281.703172 113.637386 
L 281.842983 113.637386 
L 281.842983 109.80499 
L 282.127051 109.80499 
L 282.136769 102.140198 
L 282.301812 102.140198 
L 282.388433 94.475406 
L 282.583018 94.475406 
L 282.583018 90.64301 
L 282.898433 90.64301 
L 282.898433 86.810614 
L 283.836496 86.810614 
L 283.836496 82.978218 
L 284.223914 82.978218 
L 284.223914 79.145822 
L 285.04278 79.145822 
L 285.103921 67.648634 
L 285.257596 67.648634 
L 285.257596 63.816238 
L 366.722786 63.816238 
L 366.722786 59.983842 
L 367.085385 59.983842 
L 367.085385 56.151446 
L 367.275473 56.151446 
L 367.275473 52.31905 
L 367.401944 52.31905 
L 367.401944 48.486653 
L 368.755319 48.486653 
L 368.755319 44.654257 
L 368.894317 44.654257 
L 368.894317 40.821861 
L 370.061871 40.821861 
L 370.061871 36.989465 
L 371.287197 36.989465 
L 371.287197 33.157069 
L 371.556105 33.157069 
L 371.556105 29.324673 
L 372.895669 29.324673 
L 372.895669 25.492277 
L 375.163091 25.492277 
L 375.163091 21.659881 
L 376.404607 21.659881 
L 376.404607 17.827485 
L 377.838288 17.827485 
L 377.838288 13.995089 
L 378.351436 13.995089 
L 378.351436 10.162693 
L 382.299052 10.162693 
L 382.299052 6.330297 
L 382.299052 6.330297 
L 460.8 6.330297 
L 460.8 6.330297 
" style="fill:none;stroke:#ff0000;stroke-linecap:square;stroke-width:3;"/>
   </g>
   <g id="line2d_22">
    <path clip-path="url(#p230520d965)" d="M 258.138441 293.76 
L 258.138441 289.927604 
L 264.524743 289.927604 
L 264.524743 286.095208 
L 267.865543 286.095208 
L 267.88485 278.430416 
L 268.173341 278.430416 
L 268.173341 274.59802 
L 268.641268 274.59802 
L 268.641268 270.765624 
L 268.825547 270.765624 
L 268.935145 263.100832 
L 269.120357 263.100832 
L 269.120357 259.268436 
L 269.298861 259.268436 
L 269.298861 255.43604 
L 270.024702 255.43604 
L 270.024702 251.603644 
L 270.337481 251.603644 
L 270.337481 247.771248 
L 271.289886 247.771248 
L 271.301265 240.106455 
L 272.020804 240.106455 
L 272.020804 236.274059 
L 272.255243 236.274059 
L 272.255243 232.441663 
L 272.730738 232.441663 
L 272.730738 228.609267 
L 273.619435 228.609267 
L 273.619435 224.776871 
L 273.952454 224.776871 
L 274.057853 213.279683 
L 274.17132 213.279683 
L 274.17132 209.447287 
L 274.542547 209.447287 
L 274.581615 201.782495 
L 274.721115 201.782495 
L 274.721115 197.950099 
L 275.104567 197.950099 
L 275.104567 194.117703 
L 275.538163 194.117703 
L 275.538163 190.285307 
L 275.908648 190.285307 
L 275.954595 182.620515 
L 276.409012 182.620515 
L 276.409012 178.788119 
L 286.727823 178.788119 
L 286.727823 174.955723 
L 287.19922 174.955723 
L 287.19922 171.123327 
L 287.31588 171.123327 
L 287.31588 167.290931 
L 287.590869 167.290931 
L 287.590869 163.458535 
L 287.780602 163.458535 
L 287.780602 159.626139 
L 287.995189 159.626139 
L 287.995189 155.793743 
L 288.561195 155.793743 
L 288.561195 151.961347 
L 288.966991 151.961347 
L 288.966991 148.12895 
L 289.227 148.12895 
L 289.228568 140.464158 
L 289.720992 140.464158 
L 289.720992 136.631762 
L 289.97895 136.631762 
L 289.97895 132.799366 
L 290.627509 132.799366 
L 290.627509 128.96697 
L 291.105442 128.96697 
L 291.170995 121.302178 
L 291.40166 121.302178 
L 291.40166 117.469782 
L 291.848591 117.469782 
L 291.878013 109.80499 
L 292.311789 109.80499 
L 292.311789 105.972594 
L 292.467682 105.972594 
L 292.467682 102.140198 
L 292.703054 102.140198 
L 292.703054 98.307802 
L 292.839163 98.307802 
L 292.839163 94.475406 
L 293.021644 94.475406 
L 293.104699 86.810614 
L 293.800877 86.810614 
L 293.800877 82.978218 
L 294.067247 82.978218 
L 294.067247 79.145822 
L 294.189986 79.145822 
L 294.189986 75.313426 
L 294.646017 75.313426 
L 294.646017 71.48103 
L 298.841533 71.48103 
L 298.841533 67.648634 
L 301.567743 67.648634 
L 301.567743 63.816238 
L 371.39038 63.816238 
L 371.39038 59.983842 
L 376.872477 59.983842 
L 376.872477 56.151446 
L 378.414946 56.151446 
L 378.414946 52.31905 
L 384.506901 52.31905 
L 384.506901 48.486653 
L 385.988692 48.486653 
L 386.040261 40.821861 
L 386.832538 40.821861 
L 386.832538 36.989465 
L 387.602586 36.989465 
L 387.602586 33.157069 
L 388.031683 33.157069 
L 388.031683 29.324673 
L 388.306622 29.324673 
L 388.306622 25.492277 
L 389.56358 25.492277 
L 389.56358 21.659881 
L 392.382676 21.659881 
L 392.382676 17.827485 
L 394.554888 17.827485 
L 394.554888 13.995089 
L 396.880341 13.995089 
L 396.880341 10.162693 
L 398.652462 10.162693 
L 398.652462 6.330297 
L 398.652462 6.330297 
L 460.8 6.330297 
L 460.8 6.330297 
" style="fill:none;stroke:#00bfbf;stroke-linecap:square;stroke-width:1.5;"/>
   </g>
   <g id="line2d_23">
    <path clip-path="url(#p230520d965)" d="M 258.138441 293.76 
L 258.138441 289.927604 
L 261.70929 289.927604 
L 261.70929 286.095208 
L 263.882872 286.095208 
L 263.882872 282.262812 
L 264.091758 282.262812 
L 264.091758 278.430416 
L 264.328454 278.430416 
L 264.328454 274.59802 
L 264.524743 274.59802 
L 264.524743 270.765624 
L 265.533011 270.765624 
L 265.533011 266.933228 
L 267.365464 266.933228 
L 267.365464 263.100832 
L 267.695619 263.100832 
L 267.695619 259.268436 
L 267.845003 259.268436 
L 267.845003 255.43604 
L 268.117088 255.43604 
L 268.117088 251.603644 
L 268.469276 251.603644 
L 268.469276 247.771248 
L 268.750826 247.771248 
L 268.825547 240.106455 
L 270.943378 240.106455 
L 270.943378 236.274059 
L 271.289886 236.274059 
L 271.289886 232.441663 
L 271.822176 232.441663 
L 271.822176 228.609267 
L 273.605821 228.609267 
L 273.619435 220.944475 
L 273.936212 220.944475 
L 274.00551 205.614891 
L 274.057853 205.614891 
L 274.057853 201.782495 
L 274.17132 201.782495 
L 274.267376 194.117703 
L 274.345364 194.117703 
L 274.345364 190.285307 
L 274.542547 190.285307 
L 274.595496 182.620515 
L 274.81101 182.620515 
L 274.81101 178.788119 
L 282.489056 178.788119 
L 282.489056 174.955723 
L 284.788019 174.955723 
L 284.788019 171.123327 
L 285.378094 171.123327 
L 285.378094 167.290931 
L 286.233629 167.290931 
L 286.233629 163.458535 
L 286.365821 163.458535 
L 286.365821 159.626139 
L 286.513367 159.626139 
L 286.513367 155.793743 
L 286.727823 155.793743 
L 286.74871 148.12895 
L 287.11893 148.12895 
L 287.11893 144.296554 
L 287.31588 144.296554 
L 287.31588 140.464158 
L 287.573873 140.464158 
L 287.573873 136.631762 
L 287.780602 136.631762 
L 287.780602 132.799366 
L 287.995189 132.799366 
L 287.995189 128.96697 
L 288.271074 128.96697 
L 288.271074 125.134574 
L 288.585797 125.134574 
L 288.585797 121.302178 
L 288.774433 121.302178 
L 288.774433 117.469782 
L 288.966991 117.469782 
L 288.966991 113.637386 
L 289.227 113.637386 
L 289.227 109.80499 
L 289.55213 109.80499 
L 289.55213 105.972594 
L 289.817374 105.972594 
L 289.817374 102.140198 
L 289.965686 102.140198 
L 289.97895 94.475406 
L 290.452343 94.475406 
L 290.452343 90.64301 
L 290.627509 90.64301 
L 290.627509 86.810614 
L 291.764928 86.810614 
L 291.764928 82.978218 
L 291.878013 82.978218 
L 291.878013 79.145822 
L 292.311789 79.145822 
L 292.311789 75.313426 
L 292.467682 75.313426 
L 292.467682 71.48103 
L 292.839163 71.48103 
L 292.839163 67.648634 
L 293.104699 67.648634 
L 293.104699 63.816238 
L 371.39038 63.816238 
L 371.39038 59.983842 
L 376.013475 59.983842 
L 376.013475 56.151446 
L 376.872477 56.151446 
L 376.872477 52.31905 
L 377.656956 52.31905 
L 377.656956 48.486653 
L 378.414946 48.486653 
L 378.414946 44.654257 
L 380.132713 44.654257 
L 380.132713 40.821861 
L 383.577625 40.821861 
L 383.577625 36.989465 
L 384.190101 36.989465 
L 384.190101 33.157069 
L 384.506901 33.157069 
L 384.506901 29.324673 
L 384.808849 29.324673 
L 384.808849 25.492277 
L 385.830421 25.492277 
L 385.830421 21.659881 
L 385.994587 21.659881 
L 386.040261 13.995089 
L 386.94059 13.995089 
L 386.94059 10.162693 
L 389.56358 10.162693 
L 389.56358 6.330297 
L 389.56358 6.330297 
L 460.8 6.330297 
L 460.8 6.330297 
" style="fill:none;stroke:#bf00bf;stroke-linecap:square;stroke-width:1.5;"/>
   </g>
   <g id="line2d_24">
    <path clip-path="url(#p230520d965)" d="M 258.138441 293.76 
L 258.138441 289.927604 
L 260.192225 289.927604 
L 260.192225 286.095208 
L 260.906077 286.095208 
L 260.906077 282.262812 
L 263.168133 282.262812 
L 263.168133 278.430416 
L 263.801525 278.430416 
L 263.882872 270.765624 
L 264.059302 270.765624 
L 264.10614 263.100832 
L 264.306397 263.100832 
L 264.328454 255.43604 
L 264.494705 255.43604 
L 264.494705 251.603644 
L 265.480369 251.603644 
L 265.480369 247.771248 
L 266.637702 247.771248 
L 266.637702 243.938851 
L 268.469276 243.938851 
L 268.469276 240.106455 
L 268.84748 240.106455 
L 268.84748 236.274059 
L 270.943378 236.274059 
L 270.943378 232.441663 
L 271.289886 232.441663 
L 271.289886 228.609267 
L 271.847785 228.609267 
L 271.847785 224.776871 
L 272.628983 224.776871 
L 272.628983 220.944475 
L 272.939775 220.944475 
L 273.003439 213.279683 
L 273.159958 213.279683 
L 273.159958 209.447287 
L 273.397449 209.447287 
L 273.397449 205.614891 
L 273.605821 205.614891 
L 273.619578 194.117703 
L 273.828732 194.117703 
L 273.936212 186.452911 
L 274.00551 186.452911 
L 274.00551 182.620515 
L 274.267376 182.620515 
L 274.267376 178.788119 
L 278.912499 178.788119 
L 278.912499 174.955723 
L 281.69496 174.955723 
L 281.69496 171.123327 
L 281.997833 171.123327 
L 281.997833 167.290931 
L 282.489056 167.290931 
L 282.489056 163.458535 
L 283.450766 163.458535 
L 283.450766 159.626139 
L 283.797204 159.626139 
L 283.797204 155.793743 
L 284.099364 155.793743 
L 284.099364 151.961347 
L 284.223914 151.961347 
L 284.248453 144.296554 
L 284.601491 144.296554 
L 284.601491 140.464158 
L 284.875513 140.464158 
L 284.9581 132.799366 
L 285.588838 132.799366 
L 285.67323 117.469782 
L 286.129874 117.469782 
L 286.129874 113.637386 
L 286.596708 113.637386 
L 286.653312 105.972594 
L 286.715224 105.972594 
L 286.74871 98.307802 
L 286.991721 98.307802 
L 286.991721 94.475406 
L 287.233884 94.475406 
L 287.249019 86.810614 
L 288.509201 86.810614 
L 288.509201 82.978218 
L 288.90457 82.978218 
L 288.916774 75.313426 
L 289.886722 75.313426 
L 289.974488 63.816238 
L 369.675534 63.816238 
L 369.675534 59.983842 
L 371.240104 59.983842 
L 371.347513 52.31905 
L 376.013475 52.31905 
L 376.013475 48.486653 
L 376.236112 48.486653 
L 376.236112 44.654257 
L 377.656956 44.654257 
L 377.656956 40.821861 
L 379.034961 40.821861 
L 379.034961 36.989465 
L 379.201667 36.989465 
L 379.201667 33.157069 
L 380.034903 33.157069 
L 380.036412 25.492277 
L 380.437306 25.492277 
L 380.437306 21.659881 
L 380.623889 21.659881 
L 380.623889 17.827485 
L 382.299052 17.827485 
L 382.299052 13.995089 
L 383.577625 13.995089 
L 383.577625 10.162693 
L 384.647002 10.162693 
L 384.647002 6.330297 
L 384.647002 6.330297 
L 460.8 6.330297 
L 460.8 6.330297 
" style="fill:none;stroke:#000000;stroke-linecap:square;stroke-width:1.5;"/>
   </g>
   <g id="line2d_25">
    <path clip-path="url(#p230520d965)" d="M 256.775709 293.76 
L 256.797409 286.095208 
L 258.138441 286.095208 
L 258.138441 282.262812 
L 258.698929 282.262812 
L 258.698929 278.430416 
L 258.90089 278.430416 
L 258.90089 274.59802 
L 259.960147 274.59802 
L 259.960147 270.765624 
L 260.405399 270.765624 
L 260.507614 263.100832 
L 261.879875 263.100832 
L 261.879875 259.268436 
L 262.43687 259.268436 
L 262.43687 255.43604 
L 262.721372 255.43604 
L 262.721372 251.603644 
L 262.854028 251.603644 
L 262.964156 243.938851 
L 264.494705 243.938851 
L 264.494705 240.106455 
L 266.515027 240.106455 
L 266.515027 236.274059 
L 270.943378 236.274059 
L 270.943378 232.441663 
L 271.289886 232.441663 
L 271.289886 228.609267 
L 271.847785 228.609267 
L 271.847785 224.776871 
L 272.628983 224.776871 
L 272.628983 220.944475 
L 272.850817 220.944475 
L 272.939775 213.279683 
L 273.003439 213.279683 
L 273.003439 209.447287 
L 273.397449 209.447287 
L 273.397449 205.614891 
L 273.605821 205.614891 
L 273.619578 194.117703 
L 273.828732 194.117703 
L 273.936212 182.620515 
L 274.267376 182.620515 
L 274.267376 178.788119 
L 277.986575 178.788119 
L 277.986575 174.955723 
L 278.609562 174.955723 
L 278.609562 171.123327 
L 278.731916 171.123327 
L 278.731916 167.290931 
L 279.213656 167.290931 
L 279.278344 159.626139 
L 280.85824 159.626139 
L 280.85824 155.793743 
L 281.307986 155.793743 
L 281.307986 151.961347 
L 281.68767 151.961347 
L 281.68767 148.12895 
L 281.815772 148.12895 
L 281.815772 144.296554 
L 282.224787 144.296554 
L 282.231566 136.631762 
L 282.390723 136.631762 
L 282.439732 125.134574 
L 282.593159 125.134574 
L 282.593159 121.302178 
L 283.579821 121.302178 
L 283.579821 117.469782 
L 284.085814 117.469782 
L 284.085814 113.637386 
L 284.223914 113.637386 
L 284.294805 105.972594 
L 284.413132 105.972594 
L 284.457179 98.307802 
L 285.04278 98.307802 
L 285.04278 94.475406 
L 285.536852 94.475406 
L 285.536852 90.64301 
L 286.201959 90.64301 
L 286.201959 86.810614 
L 286.715224 86.810614 
L 286.783644 79.145822 
L 287.108662 79.145822 
L 287.108662 75.313426 
L 288.031952 75.313426 
L 288.031952 71.48103 
L 288.239424 71.48103 
L 288.239424 67.648634 
L 289.247448 67.648634 
L 289.247448 63.816238 
L 367.085385 63.816238 
L 367.085385 59.983842 
L 368.755319 59.983842 
L 368.755319 56.151446 
L 371.240104 56.151446 
L 371.332121 48.486653 
L 371.556105 48.486653 
L 371.556105 44.654257 
L 372.895669 44.654257 
L 372.895669 40.821861 
L 373.241814 40.821861 
L 373.241814 36.989465 
L 373.369945 36.989465 
L 373.369945 33.157069 
L 375.189339 33.157069 
L 375.189339 29.324673 
L 376.404607 29.324673 
L 376.404607 25.492277 
L 379.084333 25.492277 
L 379.097595 17.827485 
L 379.932915 17.827485 
L 379.932915 13.995089 
L 380.163035 13.995089 
L 380.163035 10.162693 
L 382.299052 10.162693 
L 382.299052 6.330297 
L 382.299052 6.330297 
L 460.8 6.330297 
L 460.8 6.330297 
" style="fill:none;stroke:#00bfbf;stroke-linecap:square;stroke-width:1.5;"/>
   </g>
   <g id="line2d_26">
    <path clip-path="url(#p230520d965)" d="M 253.464499 293.76 
L 253.464499 289.927604 
L 254.507915 289.927604 
L 254.507915 286.095208 
L 255.684271 286.095208 
L 255.684271 282.262812 
L 256.775709 282.262812 
L 256.775709 278.430416 
L 256.988182 278.430416 
L 256.988182 274.59802 
L 257.191971 274.59802 
L 257.191971 270.765624 
L 257.593859 270.765624 
L 257.593859 266.933228 
L 258.772505 266.933228 
L 258.772505 263.100832 
L 258.959156 263.100832 
L 258.959156 259.268436 
L 260.571118 259.268436 
L 260.674619 251.603644 
L 260.763273 251.603644 
L 260.763273 247.771248 
L 262.059688 247.771248 
L 262.155447 240.106455 
L 264.917235 240.106455 
L 264.917235 236.274059 
L 270.775497 236.274059 
L 270.775497 232.441663 
L 271.028529 232.441663 
L 271.028529 228.609267 
L 271.271932 228.609267 
L 271.271932 224.776871 
L 272.234941 224.776871 
L 272.234941 220.944475 
L 272.390111 220.944475 
L 272.444262 209.447287 
L 272.655915 209.447287 
L 272.655915 205.614891 
L 273.010128 205.614891 
L 273.036839 197.950099 
L 273.282353 197.950099 
L 273.282353 194.117703 
L 273.454025 194.117703 
L 273.454025 190.285307 
L 273.60108 190.285307 
L 273.647795 182.620515 
L 273.912836 182.620515 
L 273.912836 178.788119 
L 276.004071 178.788119 
L 276.004071 174.955723 
L 276.789212 174.955723 
L 276.880921 167.290931 
L 277.654889 167.290931 
L 277.654889 163.458535 
L 277.986575 163.458535 
L 277.986575 159.626139 
L 278.461611 159.626139 
L 278.47483 151.961347 
L 279.278344 151.961347 
L 279.278344 148.12895 
L 280.055847 148.12895 
L 280.055847 144.296554 
L 280.5487 144.296554 
L 280.5487 140.464158 
L 280.693591 140.464158 
L 280.736918 132.799366 
L 280.931258 132.799366 
L 280.931258 128.96697 
L 281.077521 128.96697 
L 281.077521 125.134574 
L 281.476707 125.134574 
L 281.545758 117.469782 
L 281.703172 117.469782 
L 281.703172 113.637386 
L 281.842983 113.637386 
L 281.842983 109.80499 
L 282.127051 109.80499 
L 282.136769 102.140198 
L 282.301812 102.140198 
L 282.388433 94.475406 
L 282.583018 94.475406 
L 282.583018 90.64301 
L 282.898433 90.64301 
L 282.898433 86.810614 
L 283.836496 86.810614 
L 283.836496 82.978218 
L 284.223914 82.978218 
L 284.223914 79.145822 
L 285.04278 79.145822 
L 285.103921 67.648634 
L 285.257596 67.648634 
L 285.257596 63.816238 
L 366.722786 63.816238 
L 366.722786 59.983842 
L 367.085385 59.983842 
L 367.085385 56.151446 
L 367.275473 56.151446 
L 367.275473 52.31905 
L 367.401944 52.31905 
L 367.401944 48.486653 
L 368.755319 48.486653 
L 368.755319 44.654257 
L 369.222101 44.654257 
L 369.222101 40.821861 
L 370.061871 40.821861 
L 370.061871 36.989465 
L 371.287197 36.989465 
L 371.287197 33.157069 
L 371.556105 33.157069 
L 371.556105 29.324673 
L 372.895669 29.324673 
L 372.895669 25.492277 
L 375.163091 25.492277 
L 375.163091 21.659881 
L 376.404607 21.659881 
L 376.404607 17.827485 
L 377.838288 17.827485 
L 377.838288 13.995089 
L 378.351436 13.995089 
L 378.351436 10.162693 
L 382.299052 10.162693 
L 382.299052 6.330297 
L 382.299052 6.330297 
L 460.8 6.330297 
L 460.8 6.330297 
" style="fill:none;stroke:#bf00bf;stroke-linecap:square;stroke-width:1.5;"/>
   </g>
   <g id="patch_3">
    <path d="M 0 293.76 
L 0 3.456 
" style="fill:none;stroke:#000000;stroke-linecap:square;stroke-linejoin:miter;stroke-width:0.8;"/>
   </g>
   <g id="patch_4">
    <path d="M 460.8 293.76 
L 460.8 3.456 
" style="fill:none;stroke:#000000;stroke-linecap:square;stroke-linejoin:miter;stroke-width:0.8;"/>
   </g>
   <g id="patch_5">
    <path d="M -0 293.76 
L 460.8 293.76 
" style="fill:none;stroke:#000000;stroke-linecap:square;stroke-linejoin:miter;stroke-width:0.8;"/>
   </g>
   <g id="patch_6">
    <path d="M -0 3.456 
L 460.8 3.456 
" style="fill:none;stroke:#000000;stroke-linecap:square;stroke-linejoin:miter;stroke-width:0.8;"/>
   </g>
   <g id="text_6">
    <!-- {f1-f5}, 20-D -->
    <defs>
     <path d="M 51.125 -9.28125 
L 51.125 -16.3125 
L 48.09375 -16.3125 
Q 35.9375 -16.3125 31.8125 -12.6875 
Q 27.6875 -9.078125 27.6875 1.703125 
L 27.6875 13.375 
Q 27.6875 20.75 25.046875 23.578125 
Q 22.40625 26.421875 15.484375 26.421875 
L 12.5 26.421875 
L 12.5 33.40625 
L 15.484375 33.40625 
Q 22.46875 33.40625 25.078125 36.203125 
Q 27.6875 39.015625 27.6875 46.296875 
L 27.6875 58.015625 
Q 27.6875 68.796875 31.8125 72.390625 
Q 35.9375 75.984375 48.09375 75.984375 
L 51.125 75.984375 
L 51.125 69 
L 47.796875 69 
Q 40.921875 69 38.8125 66.84375 
Q 36.71875 64.703125 36.71875 57.8125 
L 36.71875 45.703125 
Q 36.71875 38.03125 34.5 34.5625 
Q 32.28125 31.109375 26.90625 29.890625 
Q 32.328125 28.5625 34.515625 25.09375 
Q 36.71875 21.625 36.71875 14.015625 
L 36.71875 1.90625 
Q 36.71875 -4.984375 38.8125 -7.125 
Q 40.921875 -9.28125 47.796875 -9.28125 
z
" id="DejaVuSans-123"/>
     <path d="M 10.796875 72.90625 
L 49.515625 72.90625 
L 49.515625 64.59375 
L 19.828125 64.59375 
L 19.828125 46.734375 
Q 21.96875 47.46875 24.109375 47.828125 
Q 26.265625 48.1875 28.421875 48.1875 
Q 40.625 48.1875 47.75 41.5 
Q 54.890625 34.8125 54.890625 23.390625 
Q 54.890625 11.625 47.5625 5.09375 
Q 40.234375 -1.421875 26.90625 -1.421875 
Q 22.3125 -1.421875 17.546875 -0.640625 
Q 12.796875 0.140625 7.71875 1.703125 
L 7.71875 11.625 
Q 12.109375 9.234375 16.796875 8.0625 
Q 21.484375 6.890625 26.703125 6.890625 
Q 35.15625 6.890625 40.078125 11.328125 
Q 45.015625 15.765625 45.015625 23.390625 
Q 45.015625 31 40.078125 35.4375 
Q 35.15625 39.890625 26.703125 39.890625 
Q 22.75 39.890625 18.8125 39.015625 
Q 14.890625 38.140625 10.796875 36.28125 
z
" id="DejaVuSans-53"/>
     <path d="M 12.5 -9.28125 
L 15.921875 -9.28125 
Q 22.75 -9.28125 24.828125 -7.171875 
Q 26.90625 -5.078125 26.90625 1.90625 
L 26.90625 14.015625 
Q 26.90625 21.625 29.09375 25.09375 
Q 31.296875 28.5625 36.71875 29.890625 
Q 31.296875 31.109375 29.09375 34.5625 
Q 26.90625 38.03125 26.90625 45.703125 
L 26.90625 57.8125 
Q 26.90625 64.75 24.828125 66.875 
Q 22.75 69 15.921875 69 
L 12.5 69 
L 12.5 75.984375 
L 15.578125 75.984375 
Q 27.734375 75.984375 31.8125 72.390625 
Q 35.890625 68.796875 35.890625 58.015625 
L 35.890625 46.296875 
Q 35.890625 39.015625 38.515625 36.203125 
Q 41.15625 33.40625 48.09375 33.40625 
L 51.125 33.40625 
L 51.125 26.421875 
L 48.09375 26.421875 
Q 41.15625 26.421875 38.515625 23.578125 
Q 35.890625 20.75 35.890625 13.375 
L 35.890625 1.703125 
Q 35.890625 -9.078125 31.8125 -12.6875 
Q 27.734375 -16.3125 15.578125 -16.3125 
L 12.5 -16.3125 
z
" id="DejaVuSans-125"/>
     <path d="M 11.71875 12.40625 
L 22.015625 12.40625 
L 22.015625 4 
L 14.015625 -11.625 
L 7.71875 -11.625 
L 11.71875 4 
z
" id="DejaVuSans-44"/>
     <path d="M 19.1875 8.296875 
L 53.609375 8.296875 
L 53.609375 0 
L 7.328125 0 
L 7.328125 8.296875 
Q 12.9375 14.109375 22.625 23.890625 
Q 32.328125 33.6875 34.8125 36.53125 
Q 39.546875 41.84375 41.421875 45.53125 
Q 43.3125 49.21875 43.3125 52.78125 
Q 43.3125 58.59375 39.234375 62.25 
Q 35.15625 65.921875 28.609375 65.921875 
Q 23.96875 65.921875 18.8125 64.3125 
Q 13.671875 62.703125 7.8125 59.421875 
L 7.8125 69.390625 
Q 13.765625 71.78125 18.9375 73 
Q 24.125 74.21875 28.421875 74.21875 
Q 39.75 74.21875 46.484375 68.546875 
Q 53.21875 62.890625 53.21875 53.421875 
Q 53.21875 48.921875 51.53125 44.890625 
Q 49.859375 40.875 45.40625 35.40625 
Q 44.1875 33.984375 37.640625 27.21875 
Q 31.109375 20.453125 19.1875 8.296875 
z
" id="DejaVuSans-50"/>
    </defs>
    <g transform="translate(318.609 287.95392)scale(0.2 -0.2)">
     <use xlink:href="#DejaVuSans-123"/>
     <use x="63.623047" xlink:href="#DejaVuSans-102"/>
     <use x="98.828125" xlink:href="#DejaVuSans-49"/>
     <use x="162.451172" xlink:href="#DejaVuSans-45"/>
     <use x="198.535156" xlink:href="#DejaVuSans-102"/>
     <use x="233.740234" xlink:href="#DejaVuSans-53"/>
     <use x="297.363281" xlink:href="#DejaVuSans-125"/>
     <use x="360.986328" xlink:href="#DejaVuSans-44"/>
     <use x="392.773438" xlink:href="#DejaVuSans-32"/>
     <use x="424.560547" xlink:href="#DejaVuSans-50"/>
     <use x="488.183594" xlink:href="#DejaVuSans-48"/>
     <use x="551.806641" xlink:href="#DejaVuSans-45"/>
     <use x="587.890625" xlink:href="#DejaVuSans-68"/>
    </g>
   </g>
   <g id="text_7">
    <!-- v2.4 -->
    <defs>
     <path d="M 2.984375 54.6875 
L 12.5 54.6875 
L 29.59375 8.796875 
L 46.6875 54.6875 
L 56.203125 54.6875 
L 35.6875 0 
L 23.484375 0 
z
" id="DejaVuSans-118"/>
     <path d="M 10.6875 12.40625 
L 21 12.40625 
L 21 0 
L 10.6875 0 
z
" id="DejaVuSans-46"/>
    </defs>
    <g style="fill:#808080;" transform="translate(219.489063 288.777272)scale(0.1 -0.1)">
     <use xlink:href="#DejaVuSans-118"/>
     <use x="59.179688" xlink:href="#DejaVuSans-50"/>
     <use x="122.802734" xlink:href="#DejaVuSans-46"/>
     <use x="154.589844" xlink:href="#DejaVuSans-52"/>
    </g>
   </g>
  </g>
 </g>
 <defs>
  <clipPath id="p230520d965">
   <rect height="290.304" width="460.8" x="0" y="3.456"/>
  </clipPath>
 </defs>
</svg>
