<?xml version="1.0" encoding="utf-8" standalone="no"?>
<!DOCTYPE svg PUBLIC "-//W3C//DTD SVG 1.1//EN"
  "http://www.w3.org/Graphics/SVG/1.1/DTD/svg11.dtd">
<!-- Created with matplotlib (https://matplotlib.org/) -->
<svg height="345.6pt" version="1.1" viewBox="0 0 460.8 345.6" width="460.8pt" xmlns="http://www.w3.org/2000/svg" xmlns:xlink="http://www.w3.org/1999/xlink">
 <defs>
  <style type="text/css">
*{stroke-linecap:butt;stroke-linejoin:round;}
  </style>
 </defs>
 <g id="figure_1">
  <g id="patch_1">
   <path d="M 0 345.6 
L 460.8 345.6 
L 460.8 0 
L 0 0 
z
" style="fill:#ffffff;"/>
  </g>
  <g id="axes_1">
   <g id="patch_2">
    <path d="M 0 293.76 
L 460.8 293.76 
L 460.8 3.456 
L 0 3.456 
z
" style="fill:#ffffff;"/>
   </g>
   <g id="matplotlib.axis_1">
    <g id="xtick_1">
     <g id="line2d_1">
      <path clip-path="url(#pe48d72ff8c)" d="M 104.741413 293.76 
L 104.741413 3.456 
" style="fill:none;stroke:#b0b0b0;stroke-linecap:square;stroke-width:0.8;"/>
     </g>
     <g id="line2d_2">
      <defs>
       <path d="M 0 0 
L 0 3.5 
" id="m051d184476" style="stroke:#000000;stroke-width:0.8;"/>
      </defs>
      <g>
       <use style="stroke:#000000;stroke-width:0.8;" x="104.741413" xlink:href="#m051d184476" y="293.76"/>
      </g>
     </g>
     <g id="text_1">
      <!-- -4 -->
      <defs>
       <path d="M 4.890625 31.390625 
L 31.203125 31.390625 
L 31.203125 23.390625 
L 4.890625 23.390625 
z
" id="DejaVuSans-45"/>
       <path d="M 37.796875 64.3125 
L 12.890625 25.390625 
L 37.796875 25.390625 
z
M 35.203125 72.90625 
L 47.609375 72.90625 
L 47.609375 25.390625 
L 58.015625 25.390625 
L 58.015625 17.1875 
L 47.609375 17.1875 
L 47.609375 0 
L 37.796875 0 
L 37.796875 17.1875 
L 4.890625 17.1875 
L 4.890625 26.703125 
z
" id="DejaVuSans-52"/>
      </defs>
      <g transform="translate(94.7711 315.956875)scale(0.2 -0.2)">
       <use xlink:href="#DejaVuSans-45"/>
       <use x="36.083984" xlink:href="#DejaVuSans-52"/>
      </g>
     </g>
    </g>
    <g id="xtick_2">
     <g id="line2d_3">
      <path clip-path="url(#pe48d72ff8c)" d="M 209.596104 293.76 
L 209.596104 3.456 
" style="fill:none;stroke:#b0b0b0;stroke-linecap:square;stroke-width:0.8;"/>
     </g>
     <g id="line2d_4">
      <g>
       <use style="stroke:#000000;stroke-width:0.8;" x="209.596104" xlink:href="#m051d184476" y="293.76"/>
      </g>
     </g>
     <g id="text_2">
      <!-- 0 -->
      <defs>
       <path d="M 31.78125 66.40625 
Q 24.171875 66.40625 20.328125 58.90625 
Q 16.5 51.421875 16.5 36.375 
Q 16.5 21.390625 20.328125 13.890625 
Q 24.171875 6.390625 31.78125 6.390625 
Q 39.453125 6.390625 43.28125 13.890625 
Q 47.125 21.390625 47.125 36.375 
Q 47.125 51.421875 43.28125 58.90625 
Q 39.453125 66.40625 31.78125 66.40625 
z
M 31.78125 74.21875 
Q 44.046875 74.21875 50.515625 64.515625 
Q 56.984375 54.828125 56.984375 36.375 
Q 56.984375 17.96875 50.515625 8.265625 
Q 44.046875 -1.421875 31.78125 -1.421875 
Q 19.53125 -1.421875 13.0625 8.265625 
Q 6.59375 17.96875 6.59375 36.375 
Q 6.59375 54.828125 13.0625 64.515625 
Q 19.53125 74.21875 31.78125 74.21875 
z
" id="DejaVuSans-48"/>
      </defs>
      <g transform="translate(203.233604 315.956875)scale(0.2 -0.2)">
       <use xlink:href="#DejaVuSans-48"/>
      </g>
     </g>
    </g>
    <g id="xtick_3">
     <g id="line2d_5">
      <path clip-path="url(#pe48d72ff8c)" d="M 314.450796 293.76 
L 314.450796 3.456 
" style="fill:none;stroke:#b0b0b0;stroke-linecap:square;stroke-width:0.8;"/>
     </g>
     <g id="line2d_6">
      <g>
       <use style="stroke:#000000;stroke-width:0.8;" x="314.450796" xlink:href="#m051d184476" y="293.76"/>
      </g>
     </g>
     <g id="text_3">
      <!-- 4 -->
      <g transform="translate(308.088296 315.956875)scale(0.2 -0.2)">
       <use xlink:href="#DejaVuSans-52"/>
      </g>
     </g>
    </g>
    <g id="xtick_4">
     <g id="line2d_7">
      <path clip-path="url(#pe48d72ff8c)" d="M 419.305487 293.76 
L 419.305487 3.456 
" style="fill:none;stroke:#b0b0b0;stroke-linecap:square;stroke-width:0.8;"/>
     </g>
     <g id="line2d_8">
      <g>
       <use style="stroke:#000000;stroke-width:0.8;" x="419.305487" xlink:href="#m051d184476" y="293.76"/>
      </g>
     </g>
     <g id="text_4">
      <!-- 8 -->
      <defs>
       <path d="M 31.78125 34.625 
Q 24.75 34.625 20.71875 30.859375 
Q 16.703125 27.09375 16.703125 20.515625 
Q 16.703125 13.921875 20.71875 10.15625 
Q 24.75 6.390625 31.78125 6.390625 
Q 38.8125 6.390625 42.859375 10.171875 
Q 46.921875 13.96875 46.921875 20.515625 
Q 46.921875 27.09375 42.890625 30.859375 
Q 38.875 34.625 31.78125 34.625 
z
M 21.921875 38.8125 
Q 15.578125 40.375 12.03125 44.71875 
Q 8.5 49.078125 8.5 55.328125 
Q 8.5 64.0625 14.71875 69.140625 
Q 20.953125 74.21875 31.78125 74.21875 
Q 42.671875 74.21875 48.875 69.140625 
Q 55.078125 64.0625 55.078125 55.328125 
Q 55.078125 49.078125 51.53125 44.71875 
Q 48 40.375 41.703125 38.8125 
Q 48.828125 37.15625 52.796875 32.3125 
Q 56.78125 27.484375 56.78125 20.515625 
Q 56.78125 9.90625 50.3125 4.234375 
Q 43.84375 -1.421875 31.78125 -1.421875 
Q 19.734375 -1.421875 13.25 4.234375 
Q 6.78125 9.90625 6.78125 20.515625 
Q 6.78125 27.484375 10.78125 32.3125 
Q 14.796875 37.15625 21.921875 38.8125 
z
M 18.3125 54.390625 
Q 18.3125 48.734375 21.84375 45.5625 
Q 25.390625 42.390625 31.78125 42.390625 
Q 38.140625 42.390625 41.71875 45.5625 
Q 45.3125 48.734375 45.3125 54.390625 
Q 45.3125 60.0625 41.71875 63.234375 
Q 38.140625 66.40625 31.78125 66.40625 
Q 25.390625 66.40625 21.84375 63.234375 
Q 18.3125 60.0625 18.3125 54.390625 
z
" id="DejaVuSans-56"/>
      </defs>
      <g transform="translate(412.942987 315.956875)scale(0.2 -0.2)">
       <use xlink:href="#DejaVuSans-56"/>
      </g>
     </g>
    </g>
    <g id="text_5">
     <!-- log10 of Df -->
     <defs>
      <path d="M 9.421875 75.984375 
L 18.40625 75.984375 
L 18.40625 0 
L 9.421875 0 
z
" id="DejaVuSans-108"/>
      <path d="M 30.609375 48.390625 
Q 23.390625 48.390625 19.1875 42.75 
Q 14.984375 37.109375 14.984375 27.296875 
Q 14.984375 17.484375 19.15625 11.84375 
Q 23.34375 6.203125 30.609375 6.203125 
Q 37.796875 6.203125 41.984375 11.859375 
Q 46.1875 17.53125 46.1875 27.296875 
Q 46.1875 37.015625 41.984375 42.703125 
Q 37.796875 48.390625 30.609375 48.390625 
z
M 30.609375 56 
Q 42.328125 56 49.015625 48.375 
Q 55.71875 40.765625 55.71875 27.296875 
Q 55.71875 13.875 49.015625 6.21875 
Q 42.328125 -1.421875 30.609375 -1.421875 
Q 18.84375 -1.421875 12.171875 6.21875 
Q 5.515625 13.875 5.515625 27.296875 
Q 5.515625 40.765625 12.171875 48.375 
Q 18.84375 56 30.609375 56 
z
" id="DejaVuSans-111"/>
      <path d="M 45.40625 27.984375 
Q 45.40625 37.75 41.375 43.109375 
Q 37.359375 48.484375 30.078125 48.484375 
Q 22.859375 48.484375 18.828125 43.109375 
Q 14.796875 37.75 14.796875 27.984375 
Q 14.796875 18.265625 18.828125 12.890625 
Q 22.859375 7.515625 30.078125 7.515625 
Q 37.359375 7.515625 41.375 12.890625 
Q 45.40625 18.265625 45.40625 27.984375 
z
M 54.390625 6.78125 
Q 54.390625 -7.171875 48.1875 -13.984375 
Q 42 -20.796875 29.203125 -20.796875 
Q 24.46875 -20.796875 20.265625 -20.09375 
Q 16.0625 -19.390625 12.109375 -17.921875 
L 12.109375 -9.1875 
Q 16.0625 -11.328125 19.921875 -12.34375 
Q 23.78125 -13.375 27.78125 -13.375 
Q 36.625 -13.375 41.015625 -8.765625 
Q 45.40625 -4.15625 45.40625 5.171875 
L 45.40625 9.625 
Q 42.625 4.78125 38.28125 2.390625 
Q 33.9375 0 27.875 0 
Q 17.828125 0 11.671875 7.65625 
Q 5.515625 15.328125 5.515625 27.984375 
Q 5.515625 40.671875 11.671875 48.328125 
Q 17.828125 56 27.875 56 
Q 33.9375 56 38.28125 53.609375 
Q 42.625 51.21875 45.40625 46.390625 
L 45.40625 54.6875 
L 54.390625 54.6875 
z
" id="DejaVuSans-103"/>
      <path d="M 12.40625 8.296875 
L 28.515625 8.296875 
L 28.515625 63.921875 
L 10.984375 60.40625 
L 10.984375 69.390625 
L 28.421875 72.90625 
L 38.28125 72.90625 
L 38.28125 8.296875 
L 54.390625 8.296875 
L 54.390625 0 
L 12.40625 0 
z
" id="DejaVuSans-49"/>
      <path id="DejaVuSans-32"/>
      <path d="M 37.109375 75.984375 
L 37.109375 68.5 
L 28.515625 68.5 
Q 23.6875 68.5 21.796875 66.546875 
Q 19.921875 64.59375 19.921875 59.515625 
L 19.921875 54.6875 
L 34.71875 54.6875 
L 34.71875 47.703125 
L 19.921875 47.703125 
L 19.921875 0 
L 10.890625 0 
L 10.890625 47.703125 
L 2.296875 47.703125 
L 2.296875 54.6875 
L 10.890625 54.6875 
L 10.890625 58.5 
Q 10.890625 67.625 15.140625 71.796875 
Q 19.390625 75.984375 28.609375 75.984375 
z
" id="DejaVuSans-102"/>
      <path d="M 19.671875 64.796875 
L 19.671875 8.109375 
L 31.59375 8.109375 
Q 46.6875 8.109375 53.6875 14.9375 
Q 60.6875 21.78125 60.6875 36.53125 
Q 60.6875 51.171875 53.6875 57.984375 
Q 46.6875 64.796875 31.59375 64.796875 
z
M 9.8125 72.90625 
L 30.078125 72.90625 
Q 51.265625 72.90625 61.171875 64.09375 
Q 71.09375 55.28125 71.09375 36.53125 
Q 71.09375 17.671875 61.125 8.828125 
Q 51.171875 0 30.078125 0 
L 9.8125 0 
z
" id="DejaVuSans-68"/>
     </defs>
     <g transform="translate(175.214063 339.313125)scale(0.2 -0.2)">
      <use xlink:href="#DejaVuSans-108"/>
      <use x="27.783203" xlink:href="#DejaVuSans-111"/>
      <use x="88.964844" xlink:href="#DejaVuSans-103"/>
      <use x="152.441406" xlink:href="#DejaVuSans-49"/>
      <use x="216.064453" xlink:href="#DejaVuSans-48"/>
      <use x="279.6875" xlink:href="#DejaVuSans-32"/>
      <use x="311.474609" xlink:href="#DejaVuSans-111"/>
      <use x="372.65625" xlink:href="#DejaVuSans-102"/>
      <use x="407.861328" xlink:href="#DejaVuSans-32"/>
      <use x="439.648438" xlink:href="#DejaVuSans-68"/>
      <use x="516.650391" xlink:href="#DejaVuSans-102"/>
     </g>
    </g>
   </g>
   <g id="matplotlib.axis_2">
    <g id="ytick_1">
     <g id="line2d_9">
      <path clip-path="url(#pe48d72ff8c)" d="M 0 293.76 
L 460.8 293.76 
" style="fill:none;stroke:#b0b0b0;stroke-linecap:square;stroke-width:0.8;"/>
     </g>
     <g id="line2d_10">
      <defs>
       <path d="M 0 0 
L -3.5 0 
" id="m5923b2f646" style="stroke:#000000;stroke-width:0.8;"/>
      </defs>
      <g>
       <use style="stroke:#000000;stroke-width:0.8;" x="0" xlink:href="#m5923b2f646" y="293.76"/>
      </g>
     </g>
    </g>
    <g id="ytick_2">
     <g id="line2d_11">
      <path clip-path="url(#pe48d72ff8c)" d="M 0 236.274059 
L 460.8 236.274059 
" style="fill:none;stroke:#b0b0b0;stroke-linecap:square;stroke-width:0.8;"/>
     </g>
     <g id="line2d_12">
      <g>
       <use style="stroke:#000000;stroke-width:0.8;" x="0" xlink:href="#m5923b2f646" y="236.274059"/>
      </g>
     </g>
    </g>
    <g id="ytick_3">
     <g id="line2d_13">
      <path clip-path="url(#pe48d72ff8c)" d="M 0 178.788119 
L 460.8 178.788119 
" style="fill:none;stroke:#b0b0b0;stroke-linecap:square;stroke-width:0.8;"/>
     </g>
     <g id="line2d_14">
      <g>
       <use style="stroke:#000000;stroke-width:0.8;" x="0" xlink:href="#m5923b2f646" y="178.788119"/>
      </g>
     </g>
    </g>
    <g id="ytick_4">
     <g id="line2d_15">
      <path clip-path="url(#pe48d72ff8c)" d="M 0 121.302178 
L 460.8 121.302178 
" style="fill:none;stroke:#b0b0b0;stroke-linecap:square;stroke-width:0.8;"/>
     </g>
     <g id="line2d_16">
      <g>
       <use style="stroke:#000000;stroke-width:0.8;" x="0" xlink:href="#m5923b2f646" y="121.302178"/>
      </g>
     </g>
    </g>
    <g id="ytick_5">
     <g id="line2d_17">
      <path clip-path="url(#pe48d72ff8c)" d="M 0 63.816238 
L 460.8 63.816238 
" style="fill:none;stroke:#b0b0b0;stroke-linecap:square;stroke-width:0.8;"/>
     </g>
     <g id="line2d_18">
      <g>
       <use style="stroke:#000000;stroke-width:0.8;" x="0" xlink:href="#m5923b2f646" y="63.816238"/>
      </g>
     </g>
    </g>
    <g id="ytick_6">
     <g id="line2d_19">
      <path clip-path="url(#pe48d72ff8c)" d="M 0 6.330297 
L 460.8 6.330297 
" style="fill:none;stroke:#b0b0b0;stroke-linecap:square;stroke-width:0.8;"/>
     </g>
     <g id="line2d_20">
      <g>
       <use style="stroke:#000000;stroke-width:0.8;" x="0" xlink:href="#m5923b2f646" y="6.330297"/>
      </g>
     </g>
    </g>
   </g>
   <g id="line2d_21">
    <path clip-path="url(#pe48d72ff8c)" d="M 221.162779 293.76 
L 221.162779 292.961584 
L 222.7761 292.961584 
L 222.7761 292.163168 
L 223.351273 292.163168 
L 223.351273 291.364752 
L 223.784316 291.364752 
L 223.853206 289.767921 
L 224.141421 289.767921 
L 224.156579 288.171089 
L 224.672505 288.171089 
L 224.672505 287.372673 
L 225.701785 287.372673 
L 225.701785 286.574257 
L 226.257434 286.574257 
L 226.262181 284.17901 
L 226.60382 284.17901 
L 226.60382 283.380594 
L 226.877342 283.380594 
L 226.877342 282.582178 
L 227.903768 282.582178 
L 227.903768 281.783762 
L 229.698515 281.783762 
L 229.698515 280.985347 
L 230.249734 280.985347 
L 230.249734 280.186931 
L 230.985985 280.186931 
L 230.985985 279.388515 
L 231.198313 279.388515 
L 231.198313 278.590099 
L 231.837813 278.590099 
L 231.837813 277.791683 
L 232.004349 277.791683 
L 232.110959 275.396436 
L 232.14104 275.396436 
L 232.14104 274.59802 
L 232.396974 274.59802 
L 232.48875 273.001188 
L 232.873644 273.001188 
L 232.948631 271.404356 
L 233.016593 271.404356 
L 233.016593 270.605941 
L 233.164275 270.605941 
L 233.164275 269.807525 
L 233.331805 269.807525 
L 233.331805 269.009109 
L 233.543695 269.009109 
L 233.633664 267.412277 
L 233.789191 267.412277 
L 233.831948 265.815446 
L 233.967321 265.815446 
L 233.967321 265.01703 
L 234.429434 265.01703 
L 234.477488 263.420198 
L 234.632739 263.420198 
L 234.737842 261.823366 
L 235.543992 261.823366 
L 235.543992 261.02495 
L 236.487593 261.02495 
L 236.487593 260.226535 
L 236.816601 260.226535 
L 236.816601 259.428119 
L 237.486047 259.428119 
L 237.486047 258.629703 
L 237.950564 258.629703 
L 237.950564 257.831287 
L 240.211649 257.831287 
L 240.211649 257.032871 
L 240.337941 257.032871 
L 240.337941 256.234455 
L 240.684084 256.234455 
L 240.684084 255.43604 
L 240.837916 255.43604 
L 240.910166 253.839208 
L 241.691177 253.839208 
L 241.691177 253.040792 
L 241.999239 253.040792 
L 241.999239 252.242376 
L 243.552026 252.242376 
L 243.552026 251.44396 
L 243.83174 251.44396 
L 243.906389 249.847129 
L 244.736377 249.847129 
L 244.736377 249.048713 
L 244.849602 249.048713 
L 244.849602 248.250297 
L 244.977301 248.250297 
L 244.977301 247.451881 
L 245.602872 247.451881 
L 245.602872 246.653465 
L 245.752016 246.653465 
L 245.752016 245.85505 
L 246.004805 245.85505 
L 246.004805 245.056634 
L 246.158356 245.056634 
L 246.158356 244.258218 
L 246.572446 244.258218 
L 246.572446 243.459802 
L 246.887218 243.459802 
L 246.887218 242.661386 
L 247.082129 242.661386 
L 247.138294 241.064554 
L 247.231398 241.064554 
L 247.273228 239.467723 
L 247.93518 239.467723 
L 248.022056 237.870891 
L 248.224789 237.870891 
L 248.224789 237.072475 
L 248.610758 237.072475 
L 248.610758 236.274059 
L 248.785146 236.274059 
L 248.785146 235.475644 
L 248.900818 235.475644 
L 248.948224 233.878812 
L 249.342893 233.878812 
L 249.425264 230.685149 
L 249.927718 230.685149 
L 249.976137 229.088317 
L 250.475959 229.088317 
L 250.475959 228.289901 
L 250.626332 228.289901 
L 250.626332 227.491485 
L 250.813263 227.491485 
L 250.881519 225.894653 
L 251.407326 225.894653 
L 251.407326 225.096238 
L 251.766116 225.096238 
L 251.766116 224.297822 
L 252.306039 224.297822 
L 252.306039 223.499406 
L 253.191167 223.499406 
L 253.191167 222.70099 
L 253.464499 222.70099 
L 253.464499 221.902574 
L 254.499053 221.902574 
L 254.507915 220.305743 
L 255.023917 220.305743 
L 255.023917 219.507327 
L 255.681309 219.507327 
L 255.684271 217.910495 
L 256.343111 217.910495 
L 256.421203 216.313663 
L 256.775709 216.313663 
L 256.775709 215.515248 
L 256.988182 215.515248 
L 256.988182 214.716832 
L 257.165959 214.716832 
L 257.191971 213.12 
L 257.291933 213.12 
L 257.291933 212.321584 
L 257.457087 212.321584 
L 257.457087 211.523168 
L 257.570184 211.523168 
L 257.593859 208.329505 
L 257.686169 208.329505 
L 257.686169 207.531089 
L 257.883472 207.531089 
L 257.883472 206.732673 
L 257.996742 206.732673 
L 258.043342 205.135842 
L 258.152426 205.135842 
L 258.247592 203.53901 
L 258.272812 203.53901 
L 258.29513 201.942178 
L 258.464177 201.942178 
L 258.464177 201.143762 
L 258.590232 201.143762 
L 258.70079 198.748515 
L 258.772505 198.748515 
L 258.860325 196.353267 
L 258.945365 196.353267 
L 258.959156 194.756436 
L 259.175149 194.756436 
L 259.252867 191.562772 
L 259.35022 191.562772 
L 259.35022 190.764356 
L 260.571118 190.764356 
L 260.674619 189.167525 
L 260.763273 189.167525 
L 260.763273 188.369109 
L 262.059688 188.369109 
L 262.155447 186.772277 
L 262.352083 186.772277 
L 262.352083 185.973861 
L 264.917235 185.973861 
L 264.917235 185.175446 
L 265.32587 185.175446 
L 265.32587 184.37703 
L 266.075906 184.37703 
L 266.075906 183.578614 
L 266.517763 183.578614 
L 266.517763 182.780198 
L 266.847553 182.780198 
L 266.847553 181.981782 
L 267.551372 181.981782 
L 267.551372 181.183366 
L 268.526744 181.183366 
L 268.536943 179.586535 
L 269.547546 179.586535 
L 269.628369 177.989703 
L 269.727729 177.989703 
L 269.727729 177.191287 
L 269.89966 177.191287 
L 269.89966 176.392871 
L 270.775497 176.392871 
L 270.775497 175.594455 
L 270.940097 175.594455 
L 271.028529 173.997624 
L 271.271932 173.997624 
L 271.271932 173.199208 
L 271.63272 173.199208 
L 271.63272 172.400792 
L 271.858163 172.400792 
L 271.858163 171.602376 
L 272.065206 171.602376 
L 272.065206 170.80396 
L 272.234941 170.80396 
L 272.234941 170.005545 
L 272.390111 170.005545 
L 272.444262 167.610297 
L 272.517078 167.610297 
L 272.563279 166.013465 
L 272.655915 166.013465 
L 272.693574 164.416634 
L 273.010128 164.416634 
L 273.113728 161.22297 
L 273.190666 161.22297 
L 273.285382 157.230891 
L 273.398692 157.230891 
L 273.464353 154.835644 
L 273.558958 154.835644 
L 273.647795 152.440396 
L 273.912836 152.440396 
L 273.9264 150.843564 
L 274.192217 150.843564 
L 274.22076 149.246733 
L 274.494951 149.246733 
L 274.514339 147.649901 
L 274.837422 147.649901 
L 274.855109 146.053069 
L 274.949376 146.053069 
L 274.949376 145.254653 
L 275.428221 145.254653 
L 275.428221 144.456238 
L 275.627511 144.456238 
L 275.627511 143.657822 
L 276.004071 143.657822 
L 276.004071 142.859406 
L 276.24453 142.859406 
L 276.24453 142.06099 
L 276.38757 142.06099 
L 276.38757 141.262574 
L 276.789212 141.262574 
L 276.880921 139.665743 
L 277.654889 139.665743 
L 277.751962 138.068911 
L 277.986575 138.068911 
L 277.986575 137.270495 
L 278.22589 137.270495 
L 278.31965 134.875248 
L 278.461611 134.875248 
L 278.47483 133.278416 
L 278.906413 133.278416 
L 278.906413 132.48 
L 279.278344 132.48 
L 279.278344 131.681584 
L 279.772047 131.681584 
L 279.772047 130.883168 
L 280.031646 130.883168 
L 280.055847 129.286337 
L 280.422956 129.286337 
L 280.422956 128.487921 
L 280.5487 128.487921 
L 280.5487 127.689505 
L 280.674805 127.689505 
L 280.736918 125.294257 
L 280.931258 125.294257 
L 280.931258 124.495842 
L 281.077521 124.495842 
L 281.168335 122.89901 
L 281.393677 122.89901 
L 281.476707 121.302178 
L 281.525683 121.302178 
L 281.545758 119.705347 
L 281.703172 119.705347 
L 281.703172 118.906931 
L 281.842983 118.906931 
L 281.842983 118.108515 
L 282.127051 118.108515 
L 282.136769 116.511683 
L 282.301812 116.511683 
L 282.388433 114.914851 
L 282.583018 114.914851 
L 282.667865 113.31802 
L 282.898433 113.31802 
L 282.898433 112.519604 
L 283.040421 112.519604 
L 283.040421 111.721188 
L 283.836496 111.721188 
L 283.836496 110.922772 
L 283.981072 110.922772 
L 283.981072 110.124356 
L 284.223914 110.124356 
L 284.223914 109.325941 
L 284.743414 109.325941 
L 284.743414 108.527525 
L 285.04278 108.527525 
L 285.103921 106.132277 
L 285.257596 106.132277 
L 285.257596 105.333861 
L 286.015836 105.333861 
L 286.015836 104.535446 
L 286.171465 104.535446 
L 286.171465 103.73703 
L 287.013366 103.73703 
L 287.013366 102.938614 
L 287.176865 102.938614 
L 287.176865 102.140198 
L 290.183844 102.140198 
L 290.183844 101.341782 
L 291.55536 101.341782 
L 291.55536 100.543366 
L 291.962982 100.543366 
L 292.064659 98.946535 
L 292.768461 98.946535 
L 292.768461 98.148119 
L 293.202076 98.148119 
L 293.202076 97.349703 
L 293.544375 97.349703 
L 293.544375 96.551287 
L 293.72877 96.551287 
L 293.796476 94.954455 
L 294.360575 94.954455 
L 294.455888 93.357624 
L 294.54758 93.357624 
L 294.54758 92.559208 
L 294.944942 92.559208 
L 295.027384 90.962376 
L 295.097334 90.962376 
L 295.123193 89.365545 
L 295.379559 89.365545 
L 295.379559 88.567129 
L 297.356661 88.567129 
L 297.356661 87.768713 
L 298.768448 87.768713 
L 298.768448 86.970297 
L 298.996921 86.970297 
L 298.996921 86.171881 
L 302.765372 86.171881 
L 302.765372 85.373465 
L 303.023288 85.373465 
L 303.023288 84.57505 
L 303.136005 84.57505 
L 303.175652 82.978218 
L 304.309856 82.978218 
L 304.373827 81.381386 
L 304.726975 81.381386 
L 304.796234 79.784554 
L 306.858412 79.784554 
L 306.858412 78.986139 
L 307.17001 78.986139 
L 307.17001 78.187723 
L 307.286329 78.187723 
L 307.307832 76.590891 
L 307.680685 76.590891 
L 307.680685 75.792475 
L 308.263711 75.792475 
L 308.347131 74.195644 
L 309.734631 74.195644 
L 309.797272 72.598812 
L 310.541394 72.598812 
L 310.541394 71.800396 
L 310.829164 71.800396 
L 310.829164 71.00198 
L 312.909043 71.00198 
L 312.909043 70.203564 
L 313.397346 70.203564 
L 313.397346 69.405149 
L 314.654758 69.405149 
L 314.736275 67.808317 
L 318.015174 67.808317 
L 318.015174 67.009901 
L 318.898705 67.009901 
L 318.898705 66.211485 
L 319.286787 66.211485 
L 319.286787 65.413069 
L 320.218133 65.413069 
L 320.218133 64.614653 
L 320.460508 64.614653 
L 320.460508 63.816238 
L 321.737797 63.816238 
L 321.737797 63.017822 
L 324.495111 63.017822 
L 324.495111 62.219406 
L 327.535582 62.219406 
L 327.535582 61.42099 
L 327.791878 61.42099 
L 327.791878 60.622574 
L 328.300709 60.622574 
L 328.300709 59.824158 
L 330.588064 59.824158 
L 330.588064 59.025743 
L 331.416695 59.025743 
L 331.416695 58.227327 
L 332.093438 58.227327 
L 332.093438 57.428911 
L 333.961368 57.428911 
L 333.961368 56.630495 
L 335.381478 56.630495 
L 335.381478 55.832079 
L 336.459466 55.832079 
L 336.459466 55.033663 
L 338.50107 55.033663 
L 338.52241 53.436832 
L 339.437637 53.436832 
L 339.437637 52.638416 
L 339.885582 52.638416 
L 339.885582 51.84 
L 343.156289 51.84 
L 343.156289 51.041584 
L 343.346056 51.041584 
L 343.346056 50.243168 
L 343.679801 50.243168 
L 343.679801 49.444752 
L 344.426283 49.444752 
L 344.426283 48.646337 
L 346.210093 48.646337 
L 346.210093 47.847921 
L 349.236962 47.847921 
L 349.236962 47.049505 
L 351.649194 47.049505 
L 351.649194 46.251089 
L 353.127053 46.251089 
L 353.127053 45.452673 
L 353.713064 45.452673 
L 353.713064 44.654257 
L 354.294496 44.654257 
L 354.294496 43.855842 
L 355.838902 43.855842 
L 355.838902 43.057426 
L 356.513951 43.057426 
L 356.513951 42.25901 
L 356.692233 42.25901 
L 356.692233 41.460594 
L 360.199642 41.460594 
L 360.199642 40.662178 
L 361.351271 40.662178 
L 361.351271 39.863762 
L 361.924745 39.863762 
L 361.924745 39.065347 
L 362.506567 39.065347 
L 362.506567 38.266931 
L 363.344971 38.266931 
L 363.344971 37.468515 
L 365.243059 37.468515 
L 365.243059 36.670099 
L 366.538559 36.670099 
L 366.538559 35.871683 
L 366.722786 35.871683 
L 366.82259 34.274851 
L 367.085385 34.274851 
L 367.085385 33.476436 
L 367.275473 33.476436 
L 367.275473 32.67802 
L 367.401944 32.67802 
L 367.401944 31.879604 
L 368.683607 31.879604 
L 368.755319 30.282772 
L 368.894317 30.282772 
L 368.894317 29.484356 
L 370.061871 29.484356 
L 370.061871 28.685941 
L 371.287197 28.685941 
L 371.287197 27.887525 
L 371.556105 27.887525 
L 371.556105 27.089109 
L 372.895669 27.089109 
L 372.895669 26.290693 
L 373.939094 26.290693 
L 373.939094 25.492277 
L 374.250883 25.492277 
L 374.250883 24.693861 
L 375.163091 24.693861 
L 375.190705 23.09703 
L 376.404607 23.09703 
L 376.404607 22.298614 
L 377.838288 22.298614 
L 377.838288 21.500198 
L 378.351436 21.500198 
L 378.351436 20.701782 
L 378.796011 20.701782 
L 378.796011 19.903366 
L 379.589686 19.903366 
L 379.589686 19.10495 
L 382.299052 19.10495 
L 382.299052 18.306535 
L 407.058996 18.306535 
L 407.058996 17.508119 
L 412.229218 17.508119 
L 412.229218 16.709703 
L 415.534278 16.709703 
L 415.534278 15.911287 
L 415.917073 15.911287 
L 415.987149 14.314455 
L 416.769628 14.314455 
L 416.769628 13.51604 
L 418.168104 13.51604 
L 418.168104 12.717624 
L 419.519736 12.717624 
L 419.519736 11.919208 
L 421.046346 11.919208 
L 421.046346 11.120792 
L 421.209881 11.120792 
L 421.286035 9.52396 
L 423.283416 9.52396 
L 423.283416 8.725545 
L 424.543237 8.725545 
L 424.543237 7.927129 
L 425.199839 7.927129 
L 425.199839 7.128713 
L 427.084546 7.128713 
L 427.084546 6.330297 
L 427.084546 6.330297 
L 460.8 6.330297 
L 460.8 6.330297 
" style="fill:none;stroke:#ff0000;stroke-linecap:square;stroke-width:3;"/>
   </g>
   <g id="line2d_22">
    <path clip-path="url(#pe48d72ff8c)" d="M 228.975486 293.76 
L 228.975486 292.961584 
L 230.072767 292.961584 
L 230.072767 292.163168 
L 230.810744 292.163168 
L 230.810744 291.364752 
L 231.623068 291.364752 
L 231.623068 290.566337 
L 231.928239 290.566337 
L 231.928239 289.767921 
L 232.196827 289.767921 
L 232.196827 288.969505 
L 232.646265 288.969505 
L 232.646265 288.171089 
L 233.014022 288.171089 
L 233.014022 287.372673 
L 234.029689 287.372673 
L 234.029689 286.574257 
L 235.535944 286.574257 
L 235.535944 285.775842 
L 235.795599 285.775842 
L 235.795599 284.977426 
L 235.930068 284.977426 
L 235.930068 284.17901 
L 236.511061 284.17901 
L 236.511061 283.380594 
L 237.085134 283.380594 
L 237.085134 282.582178 
L 237.286845 282.582178 
L 237.286845 281.783762 
L 238.356734 281.783762 
L 238.356734 280.985347 
L 238.946277 280.985347 
L 238.946277 280.186931 
L 239.360839 280.186931 
L 239.360839 279.388515 
L 239.608304 279.388515 
L 239.608304 278.590099 
L 241.827597 278.590099 
L 241.844248 276.993267 
L 242.199276 276.993267 
L 242.199276 276.194851 
L 242.553713 276.194851 
L 242.553713 275.396436 
L 243.019173 275.396436 
L 243.019173 274.59802 
L 243.684766 274.59802 
L 243.684766 273.799604 
L 244.026305 273.799604 
L 244.026305 273.001188 
L 244.164791 273.001188 
L 244.164791 272.202772 
L 246.321021 272.202772 
L 246.363279 270.605941 
L 246.433788 270.605941 
L 246.433788 269.807525 
L 247.151845 269.807525 
L 247.151845 269.009109 
L 247.318191 269.009109 
L 247.318191 268.210693 
L 247.5076 268.210693 
L 247.5076 267.412277 
L 247.769798 267.412277 
L 247.769798 266.613861 
L 247.885339 266.613861 
L 247.971729 265.01703 
L 248.372046 265.01703 
L 248.372046 264.218614 
L 249.290974 264.218614 
L 249.290974 263.420198 
L 250.104893 263.420198 
L 250.170023 261.02495 
L 250.556519 261.02495 
L 250.556519 260.226535 
L 250.852423 260.226535 
L 250.852423 259.428119 
L 251.313875 259.428119 
L 251.313875 258.629703 
L 252.052755 258.629703 
L 252.071808 256.234455 
L 252.224435 256.234455 
L 252.224435 255.43604 
L 252.379353 255.43604 
L 252.379353 254.637624 
L 252.792284 254.637624 
L 252.876293 253.040792 
L 252.964506 253.040792 
L 252.995965 251.44396 
L 253.571187 251.44396 
L 253.635751 249.847129 
L 254.163369 249.847129 
L 254.187561 248.250297 
L 254.315779 248.250297 
L 254.37384 246.653465 
L 254.751556 246.653465 
L 254.751556 245.85505 
L 255.308686 245.85505 
L 255.397304 244.258218 
L 255.806458 244.258218 
L 255.806458 243.459802 
L 256.306147 243.459802 
L 256.407997 241.86297 
L 256.468576 241.86297 
L 256.540047 238.669307 
L 257.192547 238.669307 
L 257.192547 237.870891 
L 257.323504 237.870891 
L 257.323504 237.072475 
L 257.478989 237.072475 
L 257.500623 235.475644 
L 257.653544 235.475644 
L 257.653544 234.677228 
L 257.880622 234.677228 
L 257.926282 233.080396 
L 258.102924 233.080396 
L 258.138441 231.483564 
L 258.757942 231.483564 
L 258.757942 230.685149 
L 259.099405 230.685149 
L 259.150126 229.088317 
L 259.278952 229.088317 
L 259.301657 227.491485 
L 259.477186 227.491485 
L 259.584691 223.499406 
L 259.662594 223.499406 
L 259.772112 220.305743 
L 259.794812 220.305743 
L 259.871031 213.918416 
L 259.934862 213.918416 
L 260.001099 209.127921 
L 260.057824 209.127921 
L 260.09347 206.732673 
L 260.185957 206.732673 
L 260.223032 204.337426 
L 260.316532 204.337426 
L 260.316532 203.53901 
L 260.67183 203.53901 
L 260.763828 201.942178 
L 261.734044 201.942178 
L 261.734044 201.143762 
L 262.47115 201.143762 
L 262.47115 200.345347 
L 263.582286 200.345347 
L 263.582286 199.546931 
L 264.264486 199.546931 
L 264.264486 198.748515 
L 264.524743 198.748515 
L 264.524743 197.950099 
L 264.881744 197.950099 
L 264.881744 197.151683 
L 267.025465 197.151683 
L 267.025465 196.353267 
L 267.865543 196.353267 
L 267.88485 194.756436 
L 268.173341 194.756436 
L 268.173341 193.95802 
L 268.641268 193.95802 
L 268.641268 193.159604 
L 268.825547 193.159604 
L 268.935145 191.562772 
L 269.120357 191.562772 
L 269.120357 190.764356 
L 269.298861 190.764356 
L 269.298861 189.965941 
L 270.024702 189.965941 
L 270.024702 189.167525 
L 270.337481 189.167525 
L 270.337481 188.369109 
L 271.289886 188.369109 
L 271.301265 186.772277 
L 272.020804 186.772277 
L 272.020804 185.973861 
L 272.255243 185.973861 
L 272.255243 185.175446 
L 272.730738 185.175446 
L 272.730738 184.37703 
L 273.619435 184.37703 
L 273.619435 183.578614 
L 273.952454 183.578614 
L 274.057853 181.183366 
L 274.17132 181.183366 
L 274.17132 180.38495 
L 274.542547 180.38495 
L 274.581615 178.788119 
L 274.721115 178.788119 
L 274.721115 177.989703 
L 275.104567 177.989703 
L 275.104567 177.191287 
L 275.538163 177.191287 
L 275.538163 176.392871 
L 275.908648 176.392871 
L 275.954595 174.79604 
L 276.409012 174.79604 
L 276.409012 173.997624 
L 279.772215 173.997624 
L 279.772215 173.199208 
L 280.743296 173.199208 
L 280.743296 172.400792 
L 281.319654 172.400792 
L 281.319654 171.602376 
L 281.803113 171.602376 
L 281.803113 170.80396 
L 282.359731 170.80396 
L 282.359731 170.005545 
L 282.596813 170.005545 
L 282.596813 169.207129 
L 282.778481 169.207129 
L 282.778481 168.408713 
L 283.145354 168.408713 
L 283.145354 167.610297 
L 283.266529 167.610297 
L 283.336943 166.013465 
L 283.403764 166.013465 
L 283.439879 164.416634 
L 283.599259 164.416634 
L 283.599259 163.618218 
L 283.90559 163.618218 
L 283.975829 162.021386 
L 284.631883 162.021386 
L 284.742313 159.626139 
L 284.89107 159.626139 
L 284.89107 158.827723 
L 285.238443 158.827723 
L 285.272997 157.230891 
L 286.540833 157.230891 
L 286.540833 156.432475 
L 286.727823 156.432475 
L 286.836259 154.835644 
L 287.042908 154.835644 
L 287.042908 154.037228 
L 287.19922 154.037228 
L 287.19922 153.238812 
L 287.31588 153.238812 
L 287.360616 151.64198 
L 287.590869 151.64198 
L 287.590869 150.843564 
L 287.709196 150.843564 
L 287.780602 149.246733 
L 287.995189 149.246733 
L 288.05685 147.649901 
L 288.134928 147.649901 
L 288.134928 146.851485 
L 288.404976 146.851485 
L 288.404976 146.053069 
L 288.561195 146.053069 
L 288.646919 143.657822 
L 288.887827 143.657822 
L 288.966991 142.06099 
L 289.027461 142.06099 
L 289.027461 141.262574 
L 289.161211 141.262574 
L 289.228568 138.867327 
L 289.645155 138.867327 
L 289.720992 137.270495 
L 289.97895 137.270495 
L 289.97895 136.472079 
L 290.298514 136.472079 
L 290.298514 135.673663 
L 290.627509 135.673663 
L 290.627509 134.875248 
L 291.086723 134.875248 
L 291.170995 132.48 
L 291.40166 132.48 
L 291.440404 130.883168 
L 291.658222 130.883168 
L 291.658222 130.084752 
L 291.848591 130.084752 
L 291.878013 128.487921 
L 291.966395 128.487921 
L 291.966395 127.689505 
L 292.305053 127.689505 
L 292.311789 126.092673 
L 292.461936 126.092673 
L 292.467682 124.495842 
L 292.703054 124.495842 
L 292.703054 123.697426 
L 292.839163 123.697426 
L 292.839163 122.89901 
L 293.021644 122.89901 
L 293.104699 121.302178 
L 293.800877 121.302178 
L 293.896118 118.906931 
L 294.067247 118.906931 
L 294.067247 118.108515 
L 294.189986 118.108515 
L 294.189986 117.310099 
L 294.646017 117.310099 
L 294.646017 116.511683 
L 295.430458 116.511683 
L 295.430458 115.713267 
L 295.933907 115.713267 
L 296.036698 114.116436 
L 296.974435 114.116436 
L 296.974435 113.31802 
L 297.581743 113.31802 
L 297.581743 112.519604 
L 297.70511 112.519604 
L 297.815304 109.325941 
L 297.835779 109.325941 
L 297.835779 108.527525 
L 298.27286 108.527525 
L 298.27286 107.729109 
L 298.498605 107.729109 
L 298.498605 106.930693 
L 298.740396 106.930693 
L 298.841533 105.333861 
L 299.136547 105.333861 
L 299.136547 104.535446 
L 300.233983 104.535446 
L 300.233983 103.73703 
L 301.105044 103.73703 
L 301.105044 102.938614 
L 301.567743 102.938614 
L 301.567743 102.140198 
L 308.199156 102.140198 
L 308.248217 100.543366 
L 325.006959 100.543366 
L 325.006959 99.74495 
L 327.587356 99.74495 
L 327.587356 98.946535 
L 328.340535 98.946535 
L 328.340535 98.148119 
L 329.446791 98.148119 
L 329.446791 97.349703 
L 330.267882 97.349703 
L 330.267882 96.551287 
L 331.428582 96.551287 
L 331.428582 95.752871 
L 332.595046 95.752871 
L 332.595046 94.954455 
L 333.548929 94.954455 
L 333.548929 94.15604 
L 334.698411 94.15604 
L 334.698411 93.357624 
L 335.869648 93.357624 
L 335.869648 92.559208 
L 336.519266 92.559208 
L 336.519266 91.760792 
L 336.73819 91.760792 
L 336.73819 90.962376 
L 337.242764 90.962376 
L 337.242764 90.16396 
L 337.782169 90.16396 
L 337.782169 89.365545 
L 338.018513 89.365545 
L 338.018513 88.567129 
L 338.357101 88.567129 
L 338.357101 87.768713 
L 338.504145 87.768713 
L 338.504145 86.970297 
L 338.6925 86.970297 
L 338.6925 86.171881 
L 340.214348 86.171881 
L 340.214348 85.373465 
L 340.906922 85.373465 
L 340.906922 84.57505 
L 341.585359 84.57505 
L 341.585359 83.776634 
L 342.525796 83.776634 
L 342.525796 82.978218 
L 343.04691 82.978218 
L 343.04691 82.179802 
L 343.305305 82.179802 
L 343.305305 81.381386 
L 344.18209 81.381386 
L 344.18209 80.58297 
L 344.513128 80.58297 
L 344.520454 78.986139 
L 345.197371 78.986139 
L 345.197371 78.187723 
L 345.570215 78.187723 
L 345.570215 77.389307 
L 345.844869 77.389307 
L 345.844869 76.590891 
L 346.289229 76.590891 
L 346.387352 74.994059 
L 346.468976 74.994059 
L 346.511701 73.397228 
L 346.633546 73.397228 
L 346.633546 72.598812 
L 347.811565 72.598812 
L 347.811565 71.800396 
L 348.03115 71.800396 
L 348.03115 71.00198 
L 348.810782 71.00198 
L 348.810782 70.203564 
L 349.035669 70.203564 
L 349.035669 69.405149 
L 349.495262 69.405149 
L 349.495262 68.606733 
L 349.972226 68.606733 
L 349.972226 67.808317 
L 350.117943 67.808317 
L 350.117943 67.009901 
L 350.735169 67.009901 
L 350.735169 66.211485 
L 351.197511 66.211485 
L 351.197511 65.413069 
L 351.436539 65.413069 
L 351.436539 64.614653 
L 351.919186 64.614653 
L 351.919186 63.816238 
L 352.041887 63.816238 
L 352.041887 63.017822 
L 352.165668 63.017822 
L 352.165668 62.219406 
L 352.504106 62.219406 
L 352.504106 61.42099 
L 352.622445 61.42099 
L 352.622445 60.622574 
L 353.606062 60.622574 
L 353.606062 59.824158 
L 353.789476 59.824158 
L 353.789476 59.025743 
L 354.489919 59.025743 
L 354.489919 58.227327 
L 356.36244 58.227327 
L 356.36244 57.428911 
L 356.622585 57.428911 
L 356.622585 56.630495 
L 356.768189 56.630495 
L 356.768691 55.033663 
L 357.482138 55.033663 
L 357.482138 54.235248 
L 358.069147 54.235248 
L 358.069147 53.436832 
L 358.703514 53.436832 
L 358.703514 52.638416 
L 359.35137 52.638416 
L 359.35137 51.84 
L 359.828079 51.84 
L 359.828079 51.041584 
L 359.994622 51.041584 
L 359.994622 50.243168 
L 360.63077 50.243168 
L 360.63077 49.444752 
L 360.877415 49.444752 
L 360.877415 48.646337 
L 361.397659 48.646337 
L 361.397659 47.847921 
L 363.47749 47.847921 
L 363.47749 47.049505 
L 367.142606 47.049505 
L 367.142606 46.251089 
L 368.045983 46.251089 
L 368.045983 45.452673 
L 368.718168 45.452673 
L 368.718168 44.654257 
L 368.993521 44.654257 
L 368.993521 43.855842 
L 371.39038 43.855842 
L 371.39038 43.057426 
L 376.872477 43.057426 
L 376.872477 42.25901 
L 377.018901 42.25901 
L 377.018901 41.460594 
L 378.236983 41.460594 
L 378.236983 40.662178 
L 378.414946 40.662178 
L 378.414946 39.863762 
L 378.944381 39.863762 
L 378.944381 39.065347 
L 379.879177 39.065347 
L 379.879177 38.266931 
L 380.231263 38.266931 
L 380.231263 37.468515 
L 380.41916 37.468515 
L 380.41916 36.670099 
L 382.10485 36.670099 
L 382.10485 35.871683 
L 384.168207 35.871683 
L 384.21089 34.274851 
L 384.506901 34.274851 
L 384.506901 33.476436 
L 385.30665 33.476436 
L 385.30665 32.67802 
L 385.988692 32.67802 
L 386.045296 29.484356 
L 386.263893 29.484356 
L 386.263893 28.685941 
L 386.832538 28.685941 
L 386.832538 27.887525 
L 387.391692 27.887525 
L 387.391692 27.089109 
L 387.602586 27.089109 
L 387.602586 26.290693 
L 387.715003 26.290693 
L 387.715003 25.492277 
L 388.031683 25.492277 
L 388.031683 24.693861 
L 388.306622 24.693861 
L 388.306622 23.895446 
L 389.56358 23.895446 
L 389.56358 23.09703 
L 392.272604 23.09703 
L 392.382676 21.500198 
L 392.892025 21.500198 
L 392.892025 20.701782 
L 394.554888 20.701782 
L 394.554888 19.903366 
L 396.880341 19.903366 
L 396.880341 19.10495 
L 398.652462 19.10495 
L 398.652462 18.306535 
L 423.433162 18.306535 
L 423.433162 17.508119 
L 427.964516 17.508119 
L 427.964516 16.709703 
L 430.314376 16.709703 
L 430.314376 15.911287 
L 430.594559 15.911287 
L 430.594559 15.112871 
L 431.164017 15.112871 
L 431.164017 14.314455 
L 432.300791 14.314455 
L 432.300791 13.51604 
L 433.63766 13.51604 
L 433.63766 12.717624 
L 435.127858 12.717624 
L 435.127858 11.919208 
L 436.269599 11.919208 
L 436.369015 10.322376 
L 436.603345 10.322376 
L 436.603345 9.52396 
L 439.445423 9.52396 
L 439.445423 8.725545 
L 445.341643 8.725545 
L 445.341643 7.927129 
L 448.911273 7.927129 
L 448.911273 7.128713 
L 449.388704 7.128713 
L 449.388704 6.330297 
L 449.388704 6.330297 
L 460.8 6.330297 
L 460.8 6.330297 
" style="fill:none;stroke:#00bfbf;stroke-linecap:square;stroke-width:1.5;"/>
   </g>
   <g id="line2d_23">
    <path clip-path="url(#pe48d72ff8c)" d="M 228.220961 293.76 
L 228.220961 292.961584 
L 228.594694 292.961584 
L 228.594694 292.163168 
L 228.865491 292.163168 
L 228.975486 290.566337 
L 229.718551 290.566337 
L 229.718551 289.767921 
L 229.916815 289.767921 
L 229.916815 288.969505 
L 230.072767 288.969505 
L 230.072767 288.171089 
L 230.810744 288.171089 
L 230.810744 287.372673 
L 231.185364 287.372673 
L 231.29119 285.775842 
L 231.623068 285.775842 
L 231.623068 284.977426 
L 231.928239 284.977426 
L 231.928239 284.17901 
L 232.101454 284.17901 
L 232.138193 282.582178 
L 234.850232 282.582178 
L 234.850232 281.783762 
L 238.356734 281.783762 
L 238.356734 280.985347 
L 238.946277 280.985347 
L 238.946277 280.186931 
L 239.360839 280.186931 
L 239.360839 279.388515 
L 239.608304 279.388515 
L 239.608304 278.590099 
L 239.806644 278.590099 
L 239.806644 277.791683 
L 240.487497 277.791683 
L 240.487497 276.993267 
L 241.142791 276.993267 
L 241.142791 276.194851 
L 241.827597 276.194851 
L 241.844248 274.59802 
L 242.003642 274.59802 
L 242.110263 273.001188 
L 242.985857 273.001188 
L 243.019173 271.404356 
L 243.505852 271.404356 
L 243.505852 270.605941 
L 245.204215 270.605941 
L 245.204215 269.807525 
L 246.313534 269.807525 
L 246.412953 266.613861 
L 246.747362 266.613861 
L 246.747362 265.815446 
L 246.939807 265.815446 
L 246.939807 265.01703 
L 247.151845 265.01703 
L 247.151845 264.218614 
L 247.318191 264.218614 
L 247.318191 263.420198 
L 247.5076 263.420198 
L 247.587782 261.823366 
L 247.885339 261.823366 
L 247.885339 261.02495 
L 249.082646 261.02495 
L 249.177681 259.428119 
L 249.199185 259.428119 
L 249.290974 257.831287 
L 249.773778 257.831287 
L 249.773778 257.032871 
L 249.922562 257.032871 
L 249.922562 256.234455 
L 250.197365 256.234455 
L 250.197365 255.43604 
L 251.0428 255.43604 
L 251.0428 254.637624 
L 251.313875 254.637624 
L 251.423105 253.040792 
L 251.775556 253.040792 
L 251.775556 252.242376 
L 252.058234 252.242376 
L 252.071808 250.645545 
L 252.964506 250.645545 
L 253.039619 247.451881 
L 253.571187 247.451881 
L 253.635751 245.85505 
L 253.750036 245.85505 
L 253.834266 243.459802 
L 253.918875 243.459802 
L 253.918875 242.661386 
L 254.163369 242.661386 
L 254.163369 241.86297 
L 254.320371 241.86297 
L 254.320371 241.064554 
L 255.047862 241.064554 
L 255.047862 240.266139 
L 255.194249 240.266139 
L 255.194249 239.467723 
L 255.308686 239.467723 
L 255.397304 237.870891 
L 255.784525 237.870891 
L 255.784671 236.274059 
L 256.468576 236.274059 
L 256.507936 234.677228 
L 256.849138 234.677228 
L 256.849138 233.878812 
L 257.323504 233.878812 
L 257.323504 233.080396 
L 257.439995 233.080396 
L 257.439995 232.28198 
L 257.701299 232.28198 
L 257.701299 231.483564 
L 257.880622 231.483564 
L 257.926282 229.088317 
L 258.138441 229.088317 
L 258.138441 228.289901 
L 258.442336 228.289901 
L 258.442336 227.491485 
L 258.728636 227.491485 
L 258.757942 225.894653 
L 258.882302 225.894653 
L 258.942206 224.297822 
L 259.030693 224.297822 
L 259.099405 222.70099 
L 259.150126 222.70099 
L 259.245048 221.104158 
L 259.301657 221.104158 
L 259.3885 218.708911 
L 259.484362 218.708911 
L 259.584691 214.716832 
L 259.622291 214.716832 
L 259.662594 213.12 
L 259.830232 213.12 
L 259.918943 206.732673 
L 259.964979 206.732673 
L 260.057824 202.740594 
L 260.185957 202.740594 
L 260.232499 200.345347 
L 260.328901 200.345347 
L 260.328901 199.546931 
L 261.70929 199.546931 
L 261.734044 197.950099 
L 263.685891 197.950099 
L 263.685891 197.151683 
L 263.882872 197.151683 
L 263.882872 196.353267 
L 264.091758 196.353267 
L 264.091758 195.554851 
L 264.264486 195.554851 
L 264.328454 193.95802 
L 264.524743 193.95802 
L 264.524743 193.159604 
L 265.533011 193.159604 
L 265.533011 192.361188 
L 267.365464 192.361188 
L 267.365464 191.562772 
L 267.695619 191.562772 
L 267.695619 190.764356 
L 267.845003 190.764356 
L 267.845003 189.965941 
L 268.117088 189.965941 
L 268.117088 189.167525 
L 268.469276 189.167525 
L 268.469276 188.369109 
L 268.750826 188.369109 
L 268.825547 186.772277 
L 270.943378 186.772277 
L 270.943378 185.973861 
L 271.289886 185.973861 
L 271.289886 185.175446 
L 271.822176 185.175446 
L 271.822176 184.37703 
L 273.605821 184.37703 
L 273.619435 182.780198 
L 273.936212 182.780198 
L 274.00551 179.586535 
L 274.057853 179.586535 
L 274.057853 178.788119 
L 274.17132 178.788119 
L 274.267376 177.191287 
L 274.345364 177.191287 
L 274.345364 176.392871 
L 274.542547 176.392871 
L 274.595496 174.79604 
L 274.81101 174.79604 
L 274.81101 173.997624 
L 279.772215 173.997624 
L 279.772215 173.199208 
L 280.743296 173.199208 
L 280.752928 171.602376 
L 281.062106 171.602376 
L 281.136003 170.005545 
L 281.319654 170.005545 
L 281.319654 169.207129 
L 281.613759 169.207129 
L 281.613759 168.408713 
L 281.803113 168.408713 
L 281.803113 167.610297 
L 282.025747 167.610297 
L 282.025747 166.811881 
L 282.352964 166.811881 
L 282.417262 164.416634 
L 282.489056 164.416634 
L 282.546263 162.819802 
L 282.884931 162.819802 
L 282.884931 162.021386 
L 283.266529 162.021386 
L 283.372109 160.424554 
L 283.401408 160.424554 
L 283.483661 158.827723 
L 284.248271 158.827723 
L 284.248271 158.029307 
L 284.389528 158.029307 
L 284.389528 157.230891 
L 284.709395 157.230891 
L 284.788019 154.835644 
L 285.238443 154.835644 
L 285.238443 154.037228 
L 285.378094 154.037228 
L 285.378094 153.238812 
L 285.532894 153.238812 
L 285.532894 152.440396 
L 286.233629 152.440396 
L 286.233629 151.64198 
L 286.365821 151.64198 
L 286.365821 150.843564 
L 286.513367 150.843564 
L 286.540833 149.246733 
L 286.712588 149.246733 
L 286.74871 146.851485 
L 286.836259 146.851485 
L 286.939441 144.456238 
L 287.11893 144.456238 
L 287.11893 143.657822 
L 287.31588 143.657822 
L 287.31588 142.859406 
L 287.573873 142.859406 
L 287.641053 141.262574 
L 287.709196 141.262574 
L 287.780602 139.665743 
L 287.92752 139.665743 
L 288.000817 137.270495 
L 288.05685 137.270495 
L 288.134928 134.875248 
L 288.271074 134.875248 
L 288.271074 134.076832 
L 288.585797 134.076832 
L 288.600718 132.48 
L 288.774433 132.48 
L 288.774433 131.681584 
L 288.887827 131.681584 
L 288.966991 130.084752 
L 289.161211 130.084752 
L 289.227 128.487921 
L 289.55213 128.487921 
L 289.55213 127.689505 
L 289.817374 127.689505 
L 289.817374 126.891089 
L 289.965686 126.891089 
L 289.97895 125.294257 
L 290.397866 125.294257 
L 290.452343 123.697426 
L 290.627509 123.697426 
L 290.627509 122.89901 
L 290.985957 122.89901 
L 290.985957 122.100594 
L 291.621363 122.100594 
L 291.621363 121.302178 
L 291.764928 121.302178 
L 291.764928 120.503762 
L 291.878013 120.503762 
L 291.966395 118.906931 
L 292.311789 118.906931 
L 292.311789 118.108515 
L 292.467682 118.108515 
L 292.467682 117.310099 
L 292.77021 117.310099 
L 292.839163 115.713267 
L 293.104699 115.713267 
L 293.104699 114.914851 
L 295.430458 114.914851 
L 295.430458 114.116436 
L 295.660894 114.116436 
L 295.660894 113.31802 
L 295.933907 113.31802 
L 296.036698 111.721188 
L 296.233071 111.721188 
L 296.233071 110.922772 
L 296.878325 110.922772 
L 296.974435 109.325941 
L 297.26011 109.325941 
L 297.26011 108.527525 
L 297.581743 108.527525 
L 297.581743 107.729109 
L 297.789548 107.729109 
L 297.835779 105.333861 
L 298.27286 105.333861 
L 298.27286 104.535446 
L 298.498605 104.535446 
L 298.498605 103.73703 
L 298.641102 103.73703 
L 298.740396 102.140198 
L 302.857438 102.140198 
L 302.857438 101.341782 
L 304.162791 101.341782 
L 304.162791 100.543366 
L 308.199156 100.543366 
L 308.248217 98.946535 
L 309.797549 98.946535 
L 309.797549 98.148119 
L 313.947986 98.148119 
L 313.947986 97.349703 
L 318.909719 97.349703 
L 318.909719 96.551287 
L 325.006959 96.551287 
L 325.114488 94.954455 
L 327.555402 94.954455 
L 327.555402 94.15604 
L 327.950475 94.15604 
L 327.950475 93.357624 
L 328.340535 93.357624 
L 328.340535 92.559208 
L 329.787662 92.559208 
L 329.787662 91.760792 
L 331.847044 91.760792 
L 331.847044 90.962376 
L 333.548929 90.962376 
L 333.548929 90.16396 
L 334.698411 90.16396 
L 334.698411 89.365545 
L 334.890147 89.365545 
L 334.890147 88.567129 
L 335.73745 88.567129 
L 335.73745 87.768713 
L 335.869648 87.768713 
L 335.869648 86.970297 
L 336.170828 86.970297 
L 336.170828 86.171881 
L 336.30981 86.171881 
L 336.30981 85.373465 
L 336.519266 85.373465 
L 336.519266 84.57505 
L 336.73819 84.57505 
L 336.73819 83.776634 
L 337.868767 83.776634 
L 337.868767 82.978218 
L 338.018513 82.978218 
L 338.018513 82.179802 
L 338.158165 82.179802 
L 338.158165 81.381386 
L 338.357101 81.381386 
L 338.357101 80.58297 
L 338.630708 80.58297 
L 338.630708 79.784554 
L 338.761856 79.784554 
L 338.761856 78.986139 
L 339.107165 78.986139 
L 339.107165 78.187723 
L 340.185268 78.187723 
L 340.214348 76.590891 
L 340.6184 76.590891 
L 340.6184 75.792475 
L 341.585359 75.792475 
L 341.683523 74.195644 
L 343.305305 74.195644 
L 343.305305 73.397228 
L 343.710198 73.397228 
L 343.710198 72.598812 
L 344.18209 72.598812 
L 344.18209 71.800396 
L 344.776661 71.800396 
L 344.776661 71.00198 
L 344.964724 71.00198 
L 344.964724 70.203564 
L 345.197371 70.203564 
L 345.197371 69.405149 
L 345.570215 69.405149 
L 345.570215 68.606733 
L 346.468976 68.606733 
L 346.468976 67.808317 
L 346.633546 67.808317 
L 346.684287 66.211485 
L 347.283208 66.211485 
L 347.283208 65.413069 
L 347.497427 65.413069 
L 347.497427 64.614653 
L 347.707253 64.614653 
L 347.707253 63.816238 
L 348.085564 63.816238 
L 348.085564 63.017822 
L 349.035669 63.017822 
L 349.035669 62.219406 
L 349.495262 62.219406 
L 349.495262 61.42099 
L 349.679735 61.42099 
L 349.679735 60.622574 
L 349.882814 60.622574 
L 349.882814 59.824158 
L 350.27011 59.824158 
L 350.27011 59.025743 
L 350.63454 59.025743 
L 350.63454 58.227327 
L 351.197511 58.227327 
L 351.197511 57.428911 
L 351.770398 57.428911 
L 351.770398 56.630495 
L 352.041887 56.630495 
L 352.041887 55.832079 
L 352.165668 55.832079 
L 352.165668 55.033663 
L 352.574721 55.033663 
L 352.574721 54.235248 
L 353.636016 54.235248 
L 353.636016 53.436832 
L 356.069292 53.436832 
L 356.069292 52.638416 
L 356.24064 52.638416 
L 356.24064 51.84 
L 356.768189 51.84 
L 356.851503 49.444752 
L 358.003452 49.444752 
L 358.069147 47.847921 
L 359.35137 47.847921 
L 359.35137 47.049505 
L 359.828079 47.049505 
L 359.828079 46.251089 
L 360.872185 46.251089 
L 360.872185 45.452673 
L 361.345561 45.452673 
L 361.345561 44.654257 
L 363.709693 44.654257 
L 363.709693 43.855842 
L 364.691135 43.855842 
L 364.691135 43.057426 
L 367.65658 43.057426 
L 367.65658 42.25901 
L 371.39038 42.25901 
L 371.39038 41.460594 
L 373.85442 41.460594 
L 373.85442 40.662178 
L 374.761571 40.662178 
L 374.761571 39.863762 
L 376.013475 39.863762 
L 376.013475 39.065347 
L 376.872477 39.065347 
L 376.872477 38.266931 
L 377.557485 38.266931 
L 377.656956 36.670099 
L 378.236983 36.670099 
L 378.236983 35.871683 
L 378.414946 35.871683 
L 378.414946 35.073267 
L 379.879177 35.073267 
L 379.879177 34.274851 
L 380.132713 34.274851 
L 380.231263 32.67802 
L 380.254717 32.67802 
L 380.254717 31.879604 
L 380.41916 31.879604 
L 380.41916 31.081188 
L 381.265461 31.081188 
L 381.265461 30.282772 
L 381.553943 30.282772 
L 381.553943 29.484356 
L 382.10485 29.484356 
L 382.15788 27.887525 
L 382.851894 27.887525 
L 382.851894 27.089109 
L 383.577625 27.089109 
L 383.577625 26.290693 
L 384.168207 26.290693 
L 384.190101 24.693861 
L 384.506901 24.693861 
L 384.506901 23.895446 
L 384.808849 23.895446 
L 384.808849 23.09703 
L 385.830421 23.09703 
L 385.830421 22.298614 
L 385.994587 22.298614 
L 386.040261 20.701782 
L 386.94059 20.701782 
L 386.94059 19.903366 
L 389.56358 19.903366 
L 389.56358 19.10495 
L 390.983434 19.10495 
L 390.983434 18.306535 
L 423.433162 18.306535 
L 423.44545 16.709703 
L 427.207366 16.709703 
L 427.222527 15.112871 
L 427.964516 15.112871 
L 427.964516 14.314455 
L 429.67507 14.314455 
L 429.67507 13.51604 
L 429.911287 13.51604 
L 429.911287 12.717624 
L 430.23672 12.717624 
L 430.314376 11.120792 
L 430.594559 11.120792 
L 430.594559 10.322376 
L 431.342409 10.322376 
L 431.342409 9.52396 
L 433.801171 9.52396 
L 433.801171 8.725545 
L 436.269599 8.725545 
L 436.369015 7.128713 
L 439.607527 7.128713 
L 439.607527 6.330297 
L 439.607527 6.330297 
L 460.8 6.330297 
L 460.8 6.330297 
" style="fill:none;stroke:#bf00bf;stroke-linecap:square;stroke-width:1.5;"/>
   </g>
   <g id="line2d_24">
    <path clip-path="url(#pe48d72ff8c)" d="M 226.426414 293.76 
L 226.426414 292.961584 
L 227.049317 292.961584 
L 227.156826 291.364752 
L 228.220961 291.364752 
L 228.220961 290.566337 
L 228.594694 290.566337 
L 228.678256 288.969505 
L 228.865491 288.969505 
L 228.865491 288.171089 
L 229.006749 288.171089 
L 229.006749 287.372673 
L 229.718551 287.372673 
L 229.718551 286.574257 
L 229.867494 286.574257 
L 229.867494 285.775842 
L 230.072767 285.775842 
L 230.072767 284.977426 
L 230.223819 284.977426 
L 230.223819 284.17901 
L 230.986 284.17901 
L 230.986 283.380594 
L 231.174833 283.380594 
L 231.174833 282.582178 
L 233.032426 282.582178 
L 233.032426 281.783762 
L 233.938794 281.783762 
L 233.938794 280.985347 
L 234.494012 280.985347 
L 234.494012 280.186931 
L 236.196566 280.186931 
L 236.196566 279.388515 
L 236.8616 279.388515 
L 236.923962 277.791683 
L 236.981164 277.791683 
L 236.981164 276.993267 
L 237.813319 276.993267 
L 237.813319 276.194851 
L 238.356734 276.194851 
L 238.418533 274.59802 
L 238.586488 274.59802 
L 238.586488 273.799604 
L 239.028526 273.799604 
L 239.107835 272.202772 
L 239.60413 272.202772 
L 239.608304 270.605941 
L 239.860314 270.605941 
L 239.860314 269.807525 
L 240.100034 269.807525 
L 240.100034 269.009109 
L 240.487497 269.009109 
L 240.487497 268.210693 
L 240.865121 268.210693 
L 240.907353 266.613861 
L 240.979461 266.613861 
L 241.051707 265.01703 
L 241.194885 265.01703 
L 241.194885 264.218614 
L 241.827597 264.218614 
L 241.827597 263.420198 
L 242.928501 263.420198 
L 242.928501 262.621782 
L 243.123118 262.621782 
L 243.230481 261.02495 
L 243.540482 261.02495 
L 243.540482 260.226535 
L 244.029996 260.226535 
L 244.029996 259.428119 
L 244.200906 259.428119 
L 244.200906 258.629703 
L 245.008401 258.629703 
L 245.008401 257.831287 
L 245.411 257.831287 
L 245.411 257.032871 
L 245.928384 257.032871 
L 245.928384 256.234455 
L 246.385416 256.234455 
L 246.385416 255.43604 
L 247.885339 255.43604 
L 247.990643 253.839208 
L 248.639422 253.839208 
L 248.639422 253.040792 
L 249.290974 253.040792 
L 249.290974 252.242376 
L 249.450264 252.242376 
L 249.450264 251.44396 
L 249.720029 251.44396 
L 249.720029 250.645545 
L 249.880916 250.645545 
L 249.922562 249.048713 
L 250.041703 249.048713 
L 250.041703 248.250297 
L 250.342525 248.250297 
L 250.342525 247.451881 
L 250.807841 247.451881 
L 250.807841 246.653465 
L 251.0428 246.653465 
L 251.0428 245.85505 
L 251.281636 245.85505 
L 251.281636 245.056634 
L 251.403932 245.056634 
L 251.423105 243.459802 
L 251.816982 243.459802 
L 251.816982 242.661386 
L 252.058234 242.661386 
L 252.071808 241.064554 
L 252.380672 241.064554 
L 252.389264 239.467723 
L 252.51096 239.467723 
L 252.51096 238.669307 
L 252.852846 238.669307 
L 252.937818 235.475644 
L 252.989302 235.475644 
L 252.989302 234.677228 
L 253.204395 234.677228 
L 253.204395 233.878812 
L 253.539293 233.878812 
L 253.604506 232.28198 
L 254.356523 232.28198 
L 254.356523 231.483564 
L 254.64969 231.483564 
L 254.64969 230.685149 
L 254.870167 230.685149 
L 254.870167 229.886733 
L 255.142388 229.886733 
L 255.170827 228.289901 
L 255.663254 228.289901 
L 255.663254 227.491485 
L 256.906874 227.491485 
L 256.906874 226.693069 
L 257.227474 226.693069 
L 257.227474 225.894653 
L 257.590008 225.894653 
L 257.590008 225.096238 
L 257.821878 225.096238 
L 257.926282 221.902574 
L 258.025759 221.902574 
L 258.025759 221.104158 
L 258.138441 221.104158 
L 258.14651 219.507327 
L 258.442336 219.507327 
L 258.54377 217.910495 
L 258.623975 217.910495 
L 258.716894 215.515248 
L 258.820111 215.515248 
L 258.92017 213.918416 
L 258.932241 213.918416 
L 258.932241 213.12 
L 259.070133 213.12 
L 259.150126 210.724752 
L 259.193681 210.724752 
L 259.303126 206.732673 
L 259.35022 206.732673 
L 259.454555 202.740594 
L 259.535363 202.740594 
L 259.535363 201.942178 
L 259.663253 201.942178 
L 259.689029 199.546931 
L 259.85334 199.546931 
L 259.954893 197.151683 
L 260.192225 197.151683 
L 260.192225 196.353267 
L 260.906077 196.353267 
L 260.906077 195.554851 
L 263.168133 195.554851 
L 263.168133 194.756436 
L 263.801525 194.756436 
L 263.882872 193.159604 
L 264.059302 193.159604 
L 264.10614 191.562772 
L 264.306397 191.562772 
L 264.328454 189.965941 
L 264.494705 189.965941 
L 264.494705 189.167525 
L 265.480369 189.167525 
L 265.480369 188.369109 
L 266.637702 188.369109 
L 266.637702 187.570693 
L 268.469276 187.570693 
L 268.469276 186.772277 
L 268.84748 186.772277 
L 268.84748 185.973861 
L 270.108946 185.973861 
L 270.108946 185.175446 
L 270.943378 185.175446 
L 270.943378 184.37703 
L 271.289886 184.37703 
L 271.289886 183.578614 
L 271.847785 183.578614 
L 271.847785 182.780198 
L 272.628983 182.780198 
L 272.628983 181.981782 
L 272.939775 181.981782 
L 273.003439 180.38495 
L 273.159958 180.38495 
L 273.159958 179.586535 
L 273.397449 179.586535 
L 273.397449 178.788119 
L 273.605821 178.788119 
L 273.619578 176.392871 
L 273.828732 176.392871 
L 273.936212 174.79604 
L 274.00551 174.79604 
L 274.00551 173.997624 
L 274.267376 173.997624 
L 274.267376 173.199208 
L 274.926395 173.199208 
L 274.926395 172.400792 
L 275.452996 172.400792 
L 275.514469 170.80396 
L 276.508901 170.80396 
L 276.527933 169.207129 
L 276.817355 169.207129 
L 276.817355 168.408713 
L 277.187313 168.408713 
L 277.187313 167.610297 
L 277.583541 167.610297 
L 277.583541 166.811881 
L 277.699564 166.811881 
L 277.74367 165.21505 
L 277.904085 165.21505 
L 277.904085 164.416634 
L 278.552959 164.416634 
L 278.570832 162.819802 
L 278.717637 162.819802 
L 278.717637 162.021386 
L 278.912499 162.021386 
L 278.912499 161.22297 
L 279.073199 161.22297 
L 279.073199 160.424554 
L 279.266715 160.424554 
L 279.291007 158.029307 
L 280.037978 158.029307 
L 280.135054 155.634059 
L 280.195481 155.634059 
L 280.267321 154.037228 
L 280.360309 154.037228 
L 280.445149 152.440396 
L 280.494425 152.440396 
L 280.494425 151.64198 
L 281.223634 151.64198 
L 281.223634 150.843564 
L 281.577276 150.843564 
L 281.59628 149.246733 
L 281.69496 149.246733 
L 281.69496 148.448317 
L 281.997833 148.448317 
L 282.025747 146.851485 
L 282.489056 146.851485 
L 282.489056 146.053069 
L 283.402961 146.053069 
L 283.450766 144.456238 
L 283.797204 144.456238 
L 283.797204 143.657822 
L 284.025648 143.657822 
L 284.099364 141.262574 
L 284.223914 141.262574 
L 284.248453 139.665743 
L 284.389528 139.665743 
L 284.389528 138.867327 
L 284.601491 138.867327 
L 284.640588 137.270495 
L 284.742313 137.270495 
L 284.796111 134.875248 
L 284.875513 134.875248 
L 284.9581 132.48 
L 285.588838 132.48 
L 285.67323 129.286337 
L 285.920212 129.286337 
L 285.939836 127.689505 
L 286.129874 127.689505 
L 286.129874 126.891089 
L 286.596708 126.891089 
L 286.653312 125.294257 
L 286.715224 125.294257 
L 286.74871 122.89901 
L 286.836259 122.89901 
L 286.836259 122.100594 
L 286.991721 122.100594 
L 286.991721 121.302178 
L 287.214878 121.302178 
L 287.249019 118.906931 
L 287.79454 118.906931 
L 287.79454 118.108515 
L 288.509201 118.108515 
L 288.56017 116.511683 
L 288.90457 116.511683 
L 288.916774 114.914851 
L 289.75574 114.914851 
L 289.75574 114.116436 
L 289.886722 114.116436 
L 289.974488 111.721188 
L 290.23189 111.721188 
L 290.23189 110.922772 
L 290.376213 110.922772 
L 290.397866 109.325941 
L 291.446859 109.325941 
L 291.446859 108.527525 
L 293.418675 108.527525 
L 293.418675 107.729109 
L 294.099382 107.729109 
L 294.164575 106.132277 
L 294.694194 106.132277 
L 294.694194 105.333861 
L 295.265583 105.333861 
L 295.265583 104.535446 
L 295.828758 104.535446 
L 295.934661 102.938614 
L 296.036698 102.938614 
L 296.036698 102.140198 
L 296.233071 102.140198 
L 296.233071 101.341782 
L 296.398823 101.341782 
L 296.398823 100.543366 
L 296.914739 100.543366 
L 296.914739 99.74495 
L 297.354423 99.74495 
L 297.354423 98.946535 
L 297.792666 98.946535 
L 297.815304 97.349703 
L 298.282402 97.349703 
L 298.282402 96.551287 
L 302.714472 96.551287 
L 302.714472 95.752871 
L 302.857438 95.752871 
L 302.857438 94.954455 
L 308.199156 94.954455 
L 308.248217 93.357624 
L 313.782415 93.357624 
L 313.782415 92.559208 
L 314.378387 92.559208 
L 314.378387 91.760792 
L 315.695293 91.760792 
L 315.695293 90.962376 
L 316.775786 90.962376 
L 316.775786 90.16396 
L 318.909719 90.16396 
L 318.909719 89.365545 
L 319.730669 89.365545 
L 319.730669 88.567129 
L 321.161036 88.567129 
L 321.161036 87.768713 
L 322.890248 87.768713 
L 322.890248 86.970297 
L 323.265879 86.970297 
L 323.265879 86.171881 
L 325.973604 86.171881 
L 325.973604 85.373465 
L 326.502931 85.373465 
L 326.502931 84.57505 
L 326.628877 84.57505 
L 326.628877 83.776634 
L 327.280854 83.776634 
L 327.280854 82.978218 
L 327.813642 82.978218 
L 327.813642 82.179802 
L 327.950475 82.179802 
L 327.950475 81.381386 
L 328.986427 81.381386 
L 328.986427 80.58297 
L 329.135448 80.58297 
L 329.135448 79.784554 
L 329.366842 79.784554 
L 329.366842 78.986139 
L 329.586177 78.986139 
L 329.586177 78.187723 
L 329.787662 78.187723 
L 329.787662 77.389307 
L 330.484527 77.389307 
L 330.518816 75.792475 
L 331.78062 75.792475 
L 331.78062 74.994059 
L 331.96799 74.994059 
L 331.96799 74.195644 
L 332.579483 74.195644 
L 332.628435 72.598812 
L 333.258811 72.598812 
L 333.258811 71.800396 
L 334.452419 71.800396 
L 334.520779 70.203564 
L 334.698411 70.203564 
L 334.698411 69.405149 
L 336.497592 69.405149 
L 336.559578 67.808317 
L 336.8445 67.808317 
L 336.8445 67.009901 
L 336.969191 67.009901 
L 336.969191 66.211485 
L 337.274066 66.211485 
L 337.274066 65.413069 
L 337.998246 65.413069 
L 337.998246 64.614653 
L 338.158165 64.614653 
L 338.158165 63.816238 
L 339.001439 63.816238 
L 339.001439 63.017822 
L 339.664491 63.017822 
L 339.664491 62.219406 
L 340.396413 62.219406 
L 340.396413 61.42099 
L 340.821671 61.42099 
L 340.821671 60.622574 
L 343.052385 60.622574 
L 343.052385 59.824158 
L 343.764999 59.824158 
L 343.78982 58.227327 
L 345.505614 58.227327 
L 345.505614 57.428911 
L 346.223834 57.428911 
L 346.223834 56.630495 
L 346.578773 56.630495 
L 346.646976 54.235248 
L 347.485862 54.235248 
L 347.485862 53.436832 
L 347.813353 53.436832 
L 347.813353 52.638416 
L 349.122171 52.638416 
L 349.122171 51.84 
L 349.554794 51.84 
L 349.554794 51.041584 
L 350.133952 51.041584 
L 350.133952 50.243168 
L 352.041887 50.243168 
L 352.041887 49.444752 
L 352.767328 49.444752 
L 352.767328 48.646337 
L 353.637115 48.646337 
L 353.637115 47.847921 
L 353.773572 47.847921 
L 353.773572 47.049505 
L 355.121754 47.049505 
L 355.121754 46.251089 
L 359.35137 46.251089 
L 359.35137 45.452673 
L 360.302428 45.452673 
L 360.302428 44.654257 
L 360.89173 44.654257 
L 360.997168 43.057426 
L 362.601056 43.057426 
L 362.601056 42.25901 
L 364.691135 42.25901 
L 364.691135 41.460594 
L 368.043208 41.460594 
L 368.043208 40.662178 
L 369.675534 40.662178 
L 369.675534 39.863762 
L 371.240104 39.863762 
L 371.347513 38.266931 
L 373.636385 38.266931 
L 373.636385 37.468515 
L 373.85442 37.468515 
L 373.85442 36.670099 
L 374.678221 36.670099 
L 374.761571 35.073267 
L 375.190705 35.073267 
L 375.190705 34.274851 
L 376.013475 34.274851 
L 376.013475 33.476436 
L 376.236112 33.476436 
L 376.236112 32.67802 
L 376.437931 32.67802 
L 376.437931 31.879604 
L 377.057684 31.879604 
L 377.057684 31.081188 
L 377.557485 31.081188 
L 377.656956 29.484356 
L 377.936195 29.484356 
L 377.936195 28.685941 
L 379.034961 28.685941 
L 379.034961 27.887525 
L 379.201667 27.887525 
L 379.201667 27.089109 
L 379.879177 27.089109 
L 379.879177 26.290693 
L 380.034903 26.290693 
L 380.036412 24.693861 
L 380.231263 24.693861 
L 380.231263 23.895446 
L 380.41916 23.895446 
L 380.437306 22.298614 
L 380.623889 22.298614 
L 380.623889 21.500198 
L 382.299052 21.500198 
L 382.299052 20.701782 
L 383.577625 20.701782 
L 383.577625 19.903366 
L 384.168207 19.903366 
L 384.168207 19.10495 
L 384.647002 19.10495 
L 384.647002 18.306535 
L 419.262883 18.306535 
L 419.262883 17.508119 
L 419.927721 17.508119 
L 419.927721 16.709703 
L 421.813753 16.709703 
L 421.883722 15.112871 
L 422.18564 15.112871 
L 422.18564 14.314455 
L 423.44545 14.314455 
L 423.44545 13.51604 
L 424.716939 13.51604 
L 424.716939 12.717624 
L 426.338741 12.717624 
L 426.338741 11.919208 
L 428.638024 11.919208 
L 428.700184 10.322376 
L 428.971171 10.322376 
L 429.007585 8.725545 
L 429.468646 8.725545 
L 429.468646 7.927129 
L 431.472269 7.927129 
L 431.472269 7.128713 
L 432.939439 7.128713 
L 432.939439 6.330297 
L 432.939439 6.330297 
L 460.8 6.330297 
L 460.8 6.330297 
" style="fill:none;stroke:#000000;stroke-linecap:square;stroke-width:1.5;"/>
   </g>
   <g id="line2d_25">
    <path clip-path="url(#pe48d72ff8c)" d="M 224.141421 293.76 
L 224.141421 292.961584 
L 226.426414 292.961584 
L 226.426414 292.163168 
L 227.049317 292.163168 
L 227.156826 290.566337 
L 227.903768 290.566337 
L 227.903768 289.767921 
L 228.594694 289.767921 
L 228.678256 288.171089 
L 228.865491 288.171089 
L 228.865491 287.372673 
L 229.006749 287.372673 
L 229.006749 286.574257 
L 229.718551 286.574257 
L 229.718551 285.775842 
L 229.867494 285.775842 
L 229.867494 284.977426 
L 230.072767 284.977426 
L 230.072767 284.17901 
L 230.223819 284.17901 
L 230.223819 283.380594 
L 230.986 283.380594 
L 230.986 282.582178 
L 231.174833 282.582178 
L 231.174833 281.783762 
L 233.938794 281.783762 
L 233.938794 280.985347 
L 234.326961 280.985347 
L 234.326961 280.186931 
L 234.494012 280.186931 
L 234.494012 279.388515 
L 235.335842 279.388515 
L 235.335842 278.590099 
L 235.681838 278.590099 
L 235.681838 277.791683 
L 236.157821 277.791683 
L 236.2122 276.194851 
L 236.613621 276.194851 
L 236.613621 275.396436 
L 236.923962 275.396436 
L 237.023989 273.799604 
L 237.097653 273.799604 
L 237.097653 273.001188 
L 237.433622 273.001188 
L 237.433622 272.202772 
L 237.6449 272.202772 
L 237.690348 270.605941 
L 237.813319 270.605941 
L 237.859952 269.009109 
L 238.261811 269.009109 
L 238.261811 268.210693 
L 238.383161 268.210693 
L 238.418533 266.613861 
L 238.525868 266.613861 
L 238.601603 265.01703 
L 238.702208 265.01703 
L 238.702208 264.218614 
L 238.957726 264.218614 
L 239.034113 262.621782 
L 239.622345 262.621782 
L 239.622345 261.823366 
L 240.525512 261.823366 
L 240.525512 261.02495 
L 240.668762 261.02495 
L 240.668762 260.226535 
L 240.986274 260.226535 
L 240.986274 259.428119 
L 241.106965 259.428119 
L 241.106965 258.629703 
L 241.999239 258.629703 
L 241.999239 257.831287 
L 243.593858 257.831287 
L 243.593858 257.032871 
L 244.419149 257.032871 
L 244.481611 255.43604 
L 244.730542 255.43604 
L 244.730542 254.637624 
L 245.018554 254.637624 
L 245.018554 253.839208 
L 246.158356 253.839208 
L 246.158356 253.040792 
L 246.385416 253.040792 
L 246.385416 252.242376 
L 247.087186 252.242376 
L 247.087186 251.44396 
L 247.285647 251.44396 
L 247.326564 249.847129 
L 248.215256 249.847129 
L 248.215256 249.048713 
L 248.471874 249.048713 
L 248.471874 248.250297 
L 249.115794 248.250297 
L 249.115794 247.451881 
L 249.450264 247.451881 
L 249.515972 245.85505 
L 249.880916 245.85505 
L 249.922562 244.258218 
L 250.001129 244.258218 
L 250.001129 243.459802 
L 250.272698 243.459802 
L 250.272698 242.661386 
L 250.484551 242.661386 
L 250.528864 241.064554 
L 250.789603 241.064554 
L 250.848264 238.669307 
L 250.961145 238.669307 
L 250.961145 237.870891 
L 251.291895 237.870891 
L 251.291895 237.072475 
L 251.403932 237.072475 
L 251.435502 234.677228 
L 251.77149 234.677228 
L 251.77149 233.878812 
L 251.958967 233.878812 
L 252.028477 232.28198 
L 252.124646 232.28198 
L 252.124646 231.483564 
L 252.382049 231.483564 
L 252.382049 230.685149 
L 252.747616 230.685149 
L 252.791417 229.088317 
L 253.504784 229.088317 
L 253.504784 228.289901 
L 254.120034 228.289901 
L 254.120034 227.491485 
L 254.64969 227.491485 
L 254.733257 225.894653 
L 255.163632 225.894653 
L 255.170827 224.297822 
L 255.745924 224.297822 
L 255.745924 223.499406 
L 256.761784 223.499406 
L 256.797409 221.104158 
L 257.590008 221.104158 
L 257.626627 219.507327 
L 257.821878 219.507327 
L 257.821878 218.708911 
L 257.994073 218.708911 
L 258.025759 217.112079 
L 258.138441 217.112079 
L 258.179025 214.716832 
L 258.272812 214.716832 
L 258.353521 213.12 
L 258.442336 213.12 
L 258.54028 211.523168 
L 258.56704 211.523168 
L 258.640611 208.329505 
L 258.698797 208.329505 
L 258.766803 205.135842 
L 258.90089 205.135842 
L 258.945365 202.740594 
L 259.017689 202.740594 
L 259.089399 201.143762 
L 259.156122 201.143762 
L 259.158923 198.748515 
L 259.35022 198.748515 
L 259.3516 197.151683 
L 259.523305 197.151683 
L 259.535363 195.554851 
L 259.66837 195.554851 
L 259.765539 193.95802 
L 259.960147 193.95802 
L 259.960147 193.159604 
L 260.405399 193.159604 
L 260.507614 191.562772 
L 261.879875 191.562772 
L 261.879875 190.764356 
L 262.43687 190.764356 
L 262.43687 189.965941 
L 262.721372 189.965941 
L 262.721372 189.167525 
L 262.854028 189.167525 
L 262.964156 187.570693 
L 264.494705 187.570693 
L 264.494705 186.772277 
L 266.075906 186.772277 
L 266.075906 185.973861 
L 266.515027 185.973861 
L 266.515027 185.175446 
L 269.547546 185.175446 
L 269.628369 183.578614 
L 270.108946 183.578614 
L 270.108946 182.780198 
L 270.943378 182.780198 
L 270.943378 181.981782 
L 271.289886 181.981782 
L 271.289886 181.183366 
L 271.608775 181.183366 
L 271.608775 180.38495 
L 271.847785 180.38495 
L 271.858163 178.788119 
L 272.22541 178.788119 
L 272.22541 177.989703 
L 272.628983 177.989703 
L 272.628983 177.191287 
L 272.850817 177.191287 
L 272.939775 175.594455 
L 273.003439 175.594455 
L 273.003439 174.79604 
L 273.285382 174.79604 
L 273.285382 173.997624 
L 273.397449 173.997624 
L 273.464353 172.400792 
L 273.605821 172.400792 
L 273.619578 170.005545 
L 273.828732 170.005545 
L 273.936212 167.610297 
L 274.267376 167.610297 
L 274.267376 166.811881 
L 275.070014 166.811881 
L 275.070014 166.013465 
L 275.349657 166.013465 
L 275.452996 164.416634 
L 275.514469 164.416634 
L 275.514469 163.618218 
L 275.627511 163.618218 
L 275.657807 162.021386 
L 276.333966 162.021386 
L 276.333966 161.22297 
L 276.497665 161.22297 
L 276.497665 160.424554 
L 276.774849 160.424554 
L 276.817355 158.827723 
L 277.131588 158.827723 
L 277.187313 157.230891 
L 277.426709 157.230891 
L 277.493842 154.037228 
L 277.628136 154.037228 
L 277.736503 152.440396 
L 277.74367 152.440396 
L 277.809387 150.843564 
L 277.92603 150.843564 
L 277.986575 149.246733 
L 278.285437 149.246733 
L 278.285437 148.448317 
L 278.609562 148.448317 
L 278.609562 147.649901 
L 278.731916 147.649901 
L 278.731916 146.851485 
L 279.106375 146.851485 
L 279.213656 145.254653 
L 279.278344 145.254653 
L 279.278344 144.456238 
L 279.807224 144.456238 
L 279.807224 143.657822 
L 280.360309 143.657822 
L 280.360309 142.859406 
L 280.674805 142.859406 
L 280.674805 142.06099 
L 280.85824 142.06099 
L 280.883958 140.464158 
L 281.269156 140.464158 
L 281.307986 138.867327 
L 281.524256 138.867327 
L 281.59628 136.472079 
L 281.68767 136.472079 
L 281.769022 134.076832 
L 281.815772 134.076832 
L 281.815772 133.278416 
L 282.224787 133.278416 
L 282.231566 131.681584 
L 282.370261 131.681584 
L 282.439732 128.487921 
L 282.55365 128.487921 
L 282.593159 126.891089 
L 282.923053 126.891089 
L 282.923053 126.092673 
L 283.168943 126.092673 
L 283.168943 125.294257 
L 283.579821 125.294257 
L 283.579821 124.495842 
L 284.085814 124.495842 
L 284.085814 123.697426 
L 284.223914 123.697426 
L 284.294805 122.100594 
L 284.394802 122.100594 
L 284.457179 118.906931 
L 284.743414 118.906931 
L 284.743414 118.108515 
L 284.965491 118.108515 
L 285.04278 116.511683 
L 285.536852 116.511683 
L 285.536852 115.713267 
L 285.920212 115.713267 
L 286.015836 114.116436 
L 286.201959 114.116436 
L 286.201959 113.31802 
L 286.715224 113.31802 
L 286.783644 111.721188 
L 286.988119 111.721188 
L 286.988119 110.922772 
L 287.108662 110.922772 
L 287.108662 110.124356 
L 287.894773 110.124356 
L 287.894773 109.325941 
L 288.031952 109.325941 
L 288.031952 108.527525 
L 288.239424 108.527525 
L 288.239424 107.729109 
L 289.086089 107.729109 
L 289.086089 106.930693 
L 289.247448 106.930693 
L 289.247448 106.132277 
L 289.6343 106.132277 
L 289.6343 105.333861 
L 292.604025 105.333861 
L 292.604025 104.535446 
L 293.053956 104.535446 
L 293.053956 103.73703 
L 294.009405 103.73703 
L 294.054117 102.140198 
L 294.332048 102.140198 
L 294.332048 101.341782 
L 295.097334 101.341782 
L 295.189972 98.946535 
L 295.265583 98.946535 
L 295.265583 98.148119 
L 295.529651 98.148119 
L 295.590468 96.551287 
L 296.110614 96.551287 
L 296.110614 95.752871 
L 296.355261 95.752871 
L 296.363513 94.15604 
L 296.914739 94.15604 
L 296.914739 93.357624 
L 299.69416 93.357624 
L 299.69416 92.559208 
L 301.883962 92.559208 
L 301.883962 91.760792 
L 302.714472 91.760792 
L 302.714472 90.962376 
L 302.857438 90.962376 
L 302.857438 90.16396 
L 304.54715 90.16396 
L 304.54715 89.365545 
L 306.792308 89.365545 
L 306.792308 88.567129 
L 309.168347 88.567129 
L 309.168347 87.768713 
L 310.400869 87.768713 
L 310.400869 86.970297 
L 310.541394 86.970297 
L 310.541394 86.171881 
L 310.829164 86.171881 
L 310.829164 85.373465 
L 311.817614 85.373465 
L 311.817614 84.57505 
L 313.730336 84.57505 
L 313.730336 83.776634 
L 313.982903 83.776634 
L 313.982903 82.978218 
L 314.461638 82.978218 
L 314.461638 82.179802 
L 314.740368 82.179802 
L 314.740368 81.381386 
L 316.962981 81.381386 
L 316.962981 80.58297 
L 317.565975 80.58297 
L 317.565975 79.784554 
L 318.163195 79.784554 
L 318.163195 78.986139 
L 318.496411 78.986139 
L 318.496411 78.187723 
L 319.036671 78.187723 
L 319.036671 77.389307 
L 319.286787 77.389307 
L 319.286787 76.590891 
L 319.584409 76.590891 
L 319.584409 75.792475 
L 320.847032 75.792475 
L 320.847032 74.994059 
L 321.184789 74.994059 
L 321.184789 74.195644 
L 321.822634 74.195644 
L 321.848298 72.598812 
L 321.993048 72.598812 
L 321.993048 71.800396 
L 322.597688 71.800396 
L 322.597688 71.00198 
L 324.379789 71.00198 
L 324.379789 70.203564 
L 324.752526 70.203564 
L 324.752526 69.405149 
L 325.480511 69.405149 
L 325.480511 68.606733 
L 326.866107 68.606733 
L 326.866107 67.808317 
L 328.112382 67.808317 
L 328.112382 67.009901 
L 329.26958 67.009901 
L 329.366842 65.413069 
L 330.003841 65.413069 
L 330.003841 64.614653 
L 330.878538 64.614653 
L 330.878538 63.816238 
L 331.618331 63.816238 
L 331.618331 63.017822 
L 332.693122 63.017822 
L 332.693122 62.219406 
L 333.242652 62.219406 
L 333.242652 61.42099 
L 333.611926 61.42099 
L 333.611926 60.622574 
L 334.652793 60.622574 
L 334.652793 59.824158 
L 335.381478 59.824158 
L 335.381478 59.025743 
L 336.969191 59.025743 
L 336.969191 58.227327 
L 339.906388 58.227327 
L 339.906388 57.428911 
L 340.62465 57.428911 
L 340.701546 55.033663 
L 340.987557 55.033663 
L 340.987557 54.235248 
L 341.766793 54.235248 
L 341.766793 53.436832 
L 342.835266 53.436832 
L 342.835266 52.638416 
L 345.813059 52.638416 
L 345.813059 51.84 
L 346.77934 51.84 
L 346.84796 50.243168 
L 347.321567 50.243168 
L 347.321567 49.444752 
L 349.554794 49.444752 
L 349.554794 48.646337 
L 351.97212 48.646337 
L 351.97212 47.847921 
L 352.890201 47.847921 
L 352.890201 47.049505 
L 353.127053 47.049505 
L 353.127053 46.251089 
L 353.713064 46.251089 
L 353.713064 45.452673 
L 359.760638 45.452673 
L 359.760638 44.654257 
L 360.176186 44.654257 
L 360.208937 43.057426 
L 362.601056 43.057426 
L 362.601056 42.25901 
L 363.812278 42.25901 
L 363.812278 41.460594 
L 364.062532 41.460594 
L 364.062532 40.662178 
L 364.691135 40.662178 
L 364.691135 39.863762 
L 367.085385 39.863762 
L 367.085385 39.065347 
L 368.755319 39.065347 
L 368.755319 38.266931 
L 368.946595 38.266931 
L 368.946595 37.468515 
L 369.537613 37.468515 
L 369.537613 36.670099 
L 370.560525 36.670099 
L 370.637199 35.073267 
L 371.240104 35.073267 
L 371.332121 33.476436 
L 371.390269 33.476436 
L 371.390269 32.67802 
L 371.556105 32.67802 
L 371.556105 31.879604 
L 372.234509 31.879604 
L 372.234509 31.081188 
L 372.895669 31.081188 
L 372.895669 30.282772 
L 373.241814 30.282772 
L 373.256945 28.685941 
L 373.369945 28.685941 
L 373.369945 27.887525 
L 374.145901 27.887525 
L 374.145901 27.089109 
L 375.189339 27.089109 
L 375.190705 25.492277 
L 376.404607 25.492277 
L 376.437931 23.895446 
L 379.084333 23.895446 
L 379.097595 22.298614 
L 379.932915 22.298614 
L 379.932915 21.500198 
L 380.163035 21.500198 
L 380.163035 20.701782 
L 380.41916 20.701782 
L 380.41916 19.903366 
L 381.766586 19.903366 
L 381.766586 19.10495 
L 382.299052 19.10495 
L 382.299052 18.306535 
L 414.040698 18.306535 
L 414.040698 17.508119 
L 417.954239 17.508119 
L 417.954239 16.709703 
L 418.223078 16.709703 
L 418.223078 15.911287 
L 418.548382 15.911287 
L 418.548382 15.112871 
L 420.006763 15.112871 
L 420.006763 14.314455 
L 421.1952 14.314455 
L 421.209881 12.717624 
L 421.413199 12.717624 
L 421.413199 11.919208 
L 421.891415 11.919208 
L 421.891415 11.120792 
L 425.094651 11.120792 
L 425.094651 10.322376 
L 425.207821 10.322376 
L 425.220635 8.725545 
L 425.957113 8.725545 
L 425.957113 7.927129 
L 427.64248 7.927129 
L 427.64248 7.128713 
L 427.792614 7.128713 
L 427.792614 6.330297 
L 427.792614 6.330297 
L 460.8 6.330297 
L 460.8 6.330297 
" style="fill:none;stroke:#00bfbf;stroke-linecap:square;stroke-width:1.5;"/>
   </g>
   <g id="line2d_26">
    <path clip-path="url(#pe48d72ff8c)" d="M 221.162779 293.76 
L 221.162779 292.961584 
L 222.7761 292.961584 
L 222.7761 292.163168 
L 223.351273 292.163168 
L 223.351273 291.364752 
L 223.784316 291.364752 
L 223.853206 289.767921 
L 224.141421 289.767921 
L 224.156579 288.171089 
L 224.672505 288.171089 
L 224.672505 287.372673 
L 225.701785 287.372673 
L 225.701785 286.574257 
L 226.257434 286.574257 
L 226.262181 284.17901 
L 226.60382 284.17901 
L 226.60382 283.380594 
L 226.877342 283.380594 
L 226.877342 282.582178 
L 227.903768 282.582178 
L 227.903768 281.783762 
L 229.698515 281.783762 
L 229.698515 280.985347 
L 230.249734 280.985347 
L 230.249734 280.186931 
L 230.985985 280.186931 
L 230.985985 279.388515 
L 231.198313 279.388515 
L 231.198313 278.590099 
L 231.837813 278.590099 
L 231.837813 277.791683 
L 232.004349 277.791683 
L 232.110959 275.396436 
L 232.14104 275.396436 
L 232.14104 274.59802 
L 232.396974 274.59802 
L 232.48875 273.001188 
L 232.873644 273.001188 
L 232.948631 271.404356 
L 233.016593 271.404356 
L 233.016593 270.605941 
L 233.164275 270.605941 
L 233.164275 269.807525 
L 233.331805 269.807525 
L 233.331805 269.009109 
L 233.543695 269.009109 
L 233.633664 267.412277 
L 233.789191 267.412277 
L 233.831948 265.815446 
L 233.967321 265.815446 
L 233.967321 265.01703 
L 234.429434 265.01703 
L 234.477488 263.420198 
L 234.632739 263.420198 
L 234.737842 261.823366 
L 235.543992 261.823366 
L 235.543992 261.02495 
L 236.487593 261.02495 
L 236.487593 260.226535 
L 236.816601 260.226535 
L 236.816601 259.428119 
L 237.486047 259.428119 
L 237.486047 258.629703 
L 238.039952 258.629703 
L 238.039952 257.831287 
L 240.211649 257.831287 
L 240.211649 257.032871 
L 240.337941 257.032871 
L 240.337941 256.234455 
L 240.684084 256.234455 
L 240.684084 255.43604 
L 240.837916 255.43604 
L 240.910166 253.839208 
L 241.691177 253.839208 
L 241.691177 253.040792 
L 241.999239 253.040792 
L 241.999239 252.242376 
L 243.552026 252.242376 
L 243.552026 251.44396 
L 243.83174 251.44396 
L 243.906389 249.847129 
L 244.736377 249.847129 
L 244.736377 249.048713 
L 244.849602 249.048713 
L 244.849602 248.250297 
L 244.977301 248.250297 
L 244.977301 247.451881 
L 245.602872 247.451881 
L 245.602872 246.653465 
L 245.752016 246.653465 
L 245.752016 245.85505 
L 246.004805 245.85505 
L 246.004805 245.056634 
L 246.158356 245.056634 
L 246.158356 244.258218 
L 246.572446 244.258218 
L 246.572446 243.459802 
L 246.887218 243.459802 
L 246.887218 242.661386 
L 247.082129 242.661386 
L 247.138294 241.064554 
L 247.231398 241.064554 
L 247.273228 239.467723 
L 247.93518 239.467723 
L 248.022056 237.870891 
L 248.224789 237.870891 
L 248.224789 237.072475 
L 248.610758 237.072475 
L 248.610758 236.274059 
L 248.785146 236.274059 
L 248.785146 235.475644 
L 248.900818 235.475644 
L 248.948224 233.878812 
L 249.342893 233.878812 
L 249.425264 230.685149 
L 249.927718 230.685149 
L 249.976137 229.088317 
L 250.475959 229.088317 
L 250.475959 228.289901 
L 250.626332 228.289901 
L 250.626332 227.491485 
L 250.813263 227.491485 
L 250.881519 225.894653 
L 251.407326 225.894653 
L 251.407326 225.096238 
L 251.766116 225.096238 
L 251.766116 224.297822 
L 252.306039 224.297822 
L 252.306039 223.499406 
L 253.191167 223.499406 
L 253.191167 222.70099 
L 253.464499 222.70099 
L 253.464499 221.902574 
L 254.499053 221.902574 
L 254.507915 220.305743 
L 255.023917 220.305743 
L 255.023917 219.507327 
L 255.681309 219.507327 
L 255.684271 217.910495 
L 256.343111 217.910495 
L 256.421203 216.313663 
L 256.775709 216.313663 
L 256.775709 215.515248 
L 256.988182 215.515248 
L 256.988182 214.716832 
L 257.165959 214.716832 
L 257.191971 213.12 
L 257.291933 213.12 
L 257.291933 212.321584 
L 257.457087 212.321584 
L 257.457087 211.523168 
L 257.570184 211.523168 
L 257.593859 208.329505 
L 257.686169 208.329505 
L 257.686169 207.531089 
L 257.883472 207.531089 
L 257.883472 206.732673 
L 257.996742 206.732673 
L 258.043342 205.135842 
L 258.152426 205.135842 
L 258.247592 203.53901 
L 258.272812 203.53901 
L 258.29513 201.942178 
L 258.464177 201.942178 
L 258.464177 201.143762 
L 258.590232 201.143762 
L 258.70079 198.748515 
L 258.772505 198.748515 
L 258.860325 196.353267 
L 258.945365 196.353267 
L 258.959156 194.756436 
L 259.175149 194.756436 
L 259.252867 191.562772 
L 259.35022 191.562772 
L 259.35022 190.764356 
L 260.571118 190.764356 
L 260.674619 189.167525 
L 260.763273 189.167525 
L 260.763273 188.369109 
L 262.059688 188.369109 
L 262.155447 186.772277 
L 262.352083 186.772277 
L 262.352083 185.973861 
L 264.917235 185.973861 
L 264.917235 185.175446 
L 265.32587 185.175446 
L 265.32587 184.37703 
L 266.075906 184.37703 
L 266.075906 183.578614 
L 266.517763 183.578614 
L 266.517763 182.780198 
L 266.847553 182.780198 
L 266.847553 181.981782 
L 267.551372 181.981782 
L 267.551372 181.183366 
L 268.526744 181.183366 
L 268.536943 179.586535 
L 269.547546 179.586535 
L 269.628369 177.989703 
L 269.727729 177.989703 
L 269.727729 177.191287 
L 269.89966 177.191287 
L 269.89966 176.392871 
L 270.775497 176.392871 
L 270.775497 175.594455 
L 270.940097 175.594455 
L 271.028529 173.997624 
L 271.271932 173.997624 
L 271.271932 173.199208 
L 271.63272 173.199208 
L 271.63272 172.400792 
L 271.858163 172.400792 
L 271.858163 171.602376 
L 272.065206 171.602376 
L 272.065206 170.80396 
L 272.234941 170.80396 
L 272.234941 170.005545 
L 272.390111 170.005545 
L 272.444262 167.610297 
L 272.517078 167.610297 
L 272.563279 166.013465 
L 272.655915 166.013465 
L 272.693574 164.416634 
L 273.010128 164.416634 
L 273.113728 161.22297 
L 273.190666 161.22297 
L 273.285382 157.230891 
L 273.398692 157.230891 
L 273.464353 154.835644 
L 273.558958 154.835644 
L 273.647795 152.440396 
L 273.912836 152.440396 
L 273.9264 150.843564 
L 274.192217 150.843564 
L 274.22076 149.246733 
L 274.494951 149.246733 
L 274.514339 147.649901 
L 274.837422 147.649901 
L 274.855109 146.053069 
L 274.949376 146.053069 
L 274.949376 145.254653 
L 275.428221 145.254653 
L 275.428221 144.456238 
L 275.627511 144.456238 
L 275.627511 143.657822 
L 276.004071 143.657822 
L 276.004071 142.859406 
L 276.24453 142.859406 
L 276.24453 142.06099 
L 276.38757 142.06099 
L 276.38757 141.262574 
L 276.789212 141.262574 
L 276.880921 139.665743 
L 277.654889 139.665743 
L 277.751962 138.068911 
L 277.986575 138.068911 
L 277.986575 137.270495 
L 278.22589 137.270495 
L 278.31965 134.875248 
L 278.461611 134.875248 
L 278.47483 133.278416 
L 278.906413 133.278416 
L 278.906413 132.48 
L 279.278344 132.48 
L 279.278344 131.681584 
L 279.772047 131.681584 
L 279.772047 130.883168 
L 280.031646 130.883168 
L 280.055847 129.286337 
L 280.422956 129.286337 
L 280.422956 128.487921 
L 280.5487 128.487921 
L 280.5487 127.689505 
L 280.674805 127.689505 
L 280.736918 125.294257 
L 280.931258 125.294257 
L 280.931258 124.495842 
L 281.077521 124.495842 
L 281.168335 122.89901 
L 281.393677 122.89901 
L 281.476707 121.302178 
L 281.525683 121.302178 
L 281.545758 119.705347 
L 281.703172 119.705347 
L 281.703172 118.906931 
L 281.842983 118.906931 
L 281.842983 118.108515 
L 282.127051 118.108515 
L 282.136769 116.511683 
L 282.301812 116.511683 
L 282.388433 114.914851 
L 282.583018 114.914851 
L 282.667865 113.31802 
L 282.898433 113.31802 
L 282.898433 112.519604 
L 283.040421 112.519604 
L 283.040421 111.721188 
L 283.836496 111.721188 
L 283.836496 110.922772 
L 283.981072 110.922772 
L 283.981072 110.124356 
L 284.223914 110.124356 
L 284.223914 109.325941 
L 284.743414 109.325941 
L 284.743414 108.527525 
L 285.04278 108.527525 
L 285.103921 106.132277 
L 285.257596 106.132277 
L 285.257596 105.333861 
L 286.015836 105.333861 
L 286.015836 104.535446 
L 286.171465 104.535446 
L 286.171465 103.73703 
L 287.013366 103.73703 
L 287.013366 102.938614 
L 287.176865 102.938614 
L 287.176865 102.140198 
L 290.183844 102.140198 
L 290.183844 101.341782 
L 291.55536 101.341782 
L 291.55536 100.543366 
L 291.962982 100.543366 
L 292.064659 98.946535 
L 292.768461 98.946535 
L 292.768461 98.148119 
L 293.202076 98.148119 
L 293.202076 97.349703 
L 293.544375 97.349703 
L 293.544375 96.551287 
L 293.72877 96.551287 
L 293.796476 94.954455 
L 294.360575 94.954455 
L 294.455888 93.357624 
L 294.54758 93.357624 
L 294.54758 92.559208 
L 294.944942 92.559208 
L 295.027384 90.962376 
L 295.097334 90.962376 
L 295.123193 89.365545 
L 295.379559 89.365545 
L 295.379559 88.567129 
L 297.356661 88.567129 
L 297.356661 87.768713 
L 298.768448 87.768713 
L 298.768448 86.970297 
L 298.996921 86.970297 
L 298.996921 86.171881 
L 302.765372 86.171881 
L 302.765372 85.373465 
L 303.023288 85.373465 
L 303.023288 84.57505 
L 303.136005 84.57505 
L 303.175652 82.978218 
L 304.309856 82.978218 
L 304.373827 81.381386 
L 304.726975 81.381386 
L 304.796234 79.784554 
L 306.858412 79.784554 
L 306.858412 78.986139 
L 307.17001 78.986139 
L 307.17001 78.187723 
L 307.286329 78.187723 
L 307.307832 76.590891 
L 307.680685 76.590891 
L 307.680685 75.792475 
L 308.263711 75.792475 
L 308.347131 74.195644 
L 309.734631 74.195644 
L 309.797272 72.598812 
L 310.541394 72.598812 
L 310.541394 71.800396 
L 310.829164 71.800396 
L 310.829164 71.00198 
L 312.909043 71.00198 
L 312.909043 70.203564 
L 313.397346 70.203564 
L 313.397346 69.405149 
L 314.654758 69.405149 
L 314.736275 67.808317 
L 318.015174 67.808317 
L 318.015174 67.009901 
L 318.898705 67.009901 
L 318.898705 66.211485 
L 319.286787 66.211485 
L 319.286787 65.413069 
L 320.218133 65.413069 
L 320.218133 64.614653 
L 320.460508 64.614653 
L 320.460508 63.816238 
L 321.737797 63.816238 
L 321.737797 63.017822 
L 324.495111 63.017822 
L 324.495111 62.219406 
L 327.535582 62.219406 
L 327.535582 61.42099 
L 327.791878 61.42099 
L 327.791878 60.622574 
L 328.300709 60.622574 
L 328.300709 59.824158 
L 330.588064 59.824158 
L 330.588064 59.025743 
L 331.416695 59.025743 
L 331.416695 58.227327 
L 332.093438 58.227327 
L 332.093438 57.428911 
L 333.961368 57.428911 
L 333.961368 56.630495 
L 335.381478 56.630495 
L 335.381478 55.832079 
L 336.459466 55.832079 
L 336.459466 55.033663 
L 338.50107 55.033663 
L 338.52241 53.436832 
L 339.437637 53.436832 
L 339.437637 52.638416 
L 339.885582 52.638416 
L 339.885582 51.84 
L 343.156289 51.84 
L 343.156289 51.041584 
L 343.346056 51.041584 
L 343.346056 50.243168 
L 343.679801 50.243168 
L 343.679801 49.444752 
L 344.426283 49.444752 
L 344.426283 48.646337 
L 346.210093 48.646337 
L 346.210093 47.847921 
L 349.236962 47.847921 
L 349.236962 47.049505 
L 351.649194 47.049505 
L 351.649194 46.251089 
L 353.127053 46.251089 
L 353.127053 45.452673 
L 353.713064 45.452673 
L 353.713064 44.654257 
L 354.294496 44.654257 
L 354.294496 43.855842 
L 355.838902 43.855842 
L 355.838902 43.057426 
L 356.513951 43.057426 
L 356.513951 42.25901 
L 356.692233 42.25901 
L 356.692233 41.460594 
L 360.199642 41.460594 
L 360.199642 40.662178 
L 361.351271 40.662178 
L 361.351271 39.863762 
L 361.924745 39.863762 
L 361.924745 39.065347 
L 362.506567 39.065347 
L 362.506567 38.266931 
L 363.344971 38.266931 
L 363.344971 37.468515 
L 365.243059 37.468515 
L 365.243059 36.670099 
L 366.538559 36.670099 
L 366.538559 35.871683 
L 366.722786 35.871683 
L 366.82259 34.274851 
L 367.085385 34.274851 
L 367.085385 33.476436 
L 367.275473 33.476436 
L 367.275473 32.67802 
L 367.401944 32.67802 
L 367.401944 31.879604 
L 368.683607 31.879604 
L 368.755319 30.282772 
L 369.222101 30.282772 
L 369.222101 29.484356 
L 370.061871 29.484356 
L 370.061871 28.685941 
L 371.287197 28.685941 
L 371.287197 27.887525 
L 371.556105 27.887525 
L 371.556105 27.089109 
L 372.895669 27.089109 
L 372.895669 26.290693 
L 373.939094 26.290693 
L 373.939094 25.492277 
L 374.250883 25.492277 
L 374.250883 24.693861 
L 375.163091 24.693861 
L 375.190705 23.09703 
L 376.404607 23.09703 
L 376.404607 22.298614 
L 377.838288 22.298614 
L 377.838288 21.500198 
L 378.351436 21.500198 
L 378.351436 20.701782 
L 378.796011 20.701782 
L 378.796011 19.903366 
L 379.589686 19.903366 
L 379.589686 19.10495 
L 382.299052 19.10495 
L 382.299052 18.306535 
L 407.058996 18.306535 
L 407.058996 17.508119 
L 412.229218 17.508119 
L 412.229218 16.709703 
L 415.534278 16.709703 
L 415.534278 15.911287 
L 415.917073 15.911287 
L 415.987149 14.314455 
L 416.769628 14.314455 
L 416.769628 13.51604 
L 418.168104 13.51604 
L 418.168104 12.717624 
L 419.519736 12.717624 
L 419.519736 11.919208 
L 421.046346 11.919208 
L 421.046346 11.120792 
L 421.209881 11.120792 
L 421.286035 9.52396 
L 423.283416 9.52396 
L 423.283416 8.725545 
L 424.543237 8.725545 
L 424.543237 7.927129 
L 425.199839 7.927129 
L 425.199839 7.128713 
L 427.084546 7.128713 
L 427.084546 6.330297 
L 427.084546 6.330297 
L 460.8 6.330297 
L 460.8 6.330297 
" style="fill:none;stroke:#bf00bf;stroke-linecap:square;stroke-width:1.5;"/>
   </g>
   <g id="patch_3">
    <path d="M 0 293.76 
L 0 3.456 
" style="fill:none;stroke:#000000;stroke-linecap:square;stroke-linejoin:miter;stroke-width:0.8;"/>
   </g>
   <g id="patch_4">
    <path d="M 460.8 293.76 
L 460.8 3.456 
" style="fill:none;stroke:#000000;stroke-linecap:square;stroke-linejoin:miter;stroke-width:0.8;"/>
   </g>
   <g id="patch_5">
    <path d="M -0 293.76 
L 460.8 293.76 
" style="fill:none;stroke:#000000;stroke-linecap:square;stroke-linejoin:miter;stroke-width:0.8;"/>
   </g>
   <g id="patch_6">
    <path d="M -0 3.456 
L 460.8 3.456 
" style="fill:none;stroke:#000000;stroke-linecap:square;stroke-linejoin:miter;stroke-width:0.8;"/>
   </g>
   <g id="text_6">
    <!-- {f1-f24}, 20-D -->
    <defs>
     <path d="M 51.125 -9.28125 
L 51.125 -16.3125 
L 48.09375 -16.3125 
Q 35.9375 -16.3125 31.8125 -12.6875 
Q 27.6875 -9.078125 27.6875 1.703125 
L 27.6875 13.375 
Q 27.6875 20.75 25.046875 23.578125 
Q 22.40625 26.421875 15.484375 26.421875 
L 12.5 26.421875 
L 12.5 33.40625 
L 15.484375 33.40625 
Q 22.46875 33.40625 25.078125 36.203125 
Q 27.6875 39.015625 27.6875 46.296875 
L 27.6875 58.015625 
Q 27.6875 68.796875 31.8125 72.390625 
Q 35.9375 75.984375 48.09375 75.984375 
L 51.125 75.984375 
L 51.125 69 
L 47.796875 69 
Q 40.921875 69 38.8125 66.84375 
Q 36.71875 64.703125 36.71875 57.8125 
L 36.71875 45.703125 
Q 36.71875 38.03125 34.5 34.5625 
Q 32.28125 31.109375 26.90625 29.890625 
Q 32.328125 28.5625 34.515625 25.09375 
Q 36.71875 21.625 36.71875 14.015625 
L 36.71875 1.90625 
Q 36.71875 -4.984375 38.8125 -7.125 
Q 40.921875 -9.28125 47.796875 -9.28125 
z
" id="DejaVuSans-123"/>
     <path d="M 19.1875 8.296875 
L 53.609375 8.296875 
L 53.609375 0 
L 7.328125 0 
L 7.328125 8.296875 
Q 12.9375 14.109375 22.625 23.890625 
Q 32.328125 33.6875 34.8125 36.53125 
Q 39.546875 41.84375 41.421875 45.53125 
Q 43.3125 49.21875 43.3125 52.78125 
Q 43.3125 58.59375 39.234375 62.25 
Q 35.15625 65.921875 28.609375 65.921875 
Q 23.96875 65.921875 18.8125 64.3125 
Q 13.671875 62.703125 7.8125 59.421875 
L 7.8125 69.390625 
Q 13.765625 71.78125 18.9375 73 
Q 24.125 74.21875 28.421875 74.21875 
Q 39.75 74.21875 46.484375 68.546875 
Q 53.21875 62.890625 53.21875 53.421875 
Q 53.21875 48.921875 51.53125 44.890625 
Q 49.859375 40.875 45.40625 35.40625 
Q 44.1875 33.984375 37.640625 27.21875 
Q 31.109375 20.453125 19.1875 8.296875 
z
" id="DejaVuSans-50"/>
     <path d="M 12.5 -9.28125 
L 15.921875 -9.28125 
Q 22.75 -9.28125 24.828125 -7.171875 
Q 26.90625 -5.078125 26.90625 1.90625 
L 26.90625 14.015625 
Q 26.90625 21.625 29.09375 25.09375 
Q 31.296875 28.5625 36.71875 29.890625 
Q 31.296875 31.109375 29.09375 34.5625 
Q 26.90625 38.03125 26.90625 45.703125 
L 26.90625 57.8125 
Q 26.90625 64.75 24.828125 66.875 
Q 22.75 69 15.921875 69 
L 12.5 69 
L 12.5 75.984375 
L 15.578125 75.984375 
Q 27.734375 75.984375 31.8125 72.390625 
Q 35.890625 68.796875 35.890625 58.015625 
L 35.890625 46.296875 
Q 35.890625 39.015625 38.515625 36.203125 
Q 41.15625 33.40625 48.09375 33.40625 
L 51.125 33.40625 
L 51.125 26.421875 
L 48.09375 26.421875 
Q 41.15625 26.421875 38.515625 23.578125 
Q 35.890625 20.75 35.890625 13.375 
L 35.890625 1.703125 
Q 35.890625 -9.078125 31.8125 -12.6875 
Q 27.734375 -16.3125 15.578125 -16.3125 
L 12.5 -16.3125 
z
" id="DejaVuSans-125"/>
     <path d="M 11.71875 12.40625 
L 22.015625 12.40625 
L 22.015625 4 
L 14.015625 -11.625 
L 7.71875 -11.625 
L 11.71875 4 
z
" id="DejaVuSans-44"/>
    </defs>
    <g transform="translate(305.884 287.95392)scale(0.2 -0.2)">
     <use xlink:href="#DejaVuSans-123"/>
     <use x="63.623047" xlink:href="#DejaVuSans-102"/>
     <use x="98.828125" xlink:href="#DejaVuSans-49"/>
     <use x="162.451172" xlink:href="#DejaVuSans-45"/>
     <use x="198.535156" xlink:href="#DejaVuSans-102"/>
     <use x="233.740234" xlink:href="#DejaVuSans-50"/>
     <use x="297.363281" xlink:href="#DejaVuSans-52"/>
     <use x="360.986328" xlink:href="#DejaVuSans-125"/>
     <use x="424.609375" xlink:href="#DejaVuSans-44"/>
     <use x="456.396484" xlink:href="#DejaVuSans-32"/>
     <use x="488.183594" xlink:href="#DejaVuSans-50"/>
     <use x="551.806641" xlink:href="#DejaVuSans-48"/>
     <use x="615.429688" xlink:href="#DejaVuSans-45"/>
     <use x="651.513672" xlink:href="#DejaVuSans-68"/>
    </g>
   </g>
   <g id="text_7">
    <!-- v2.4 -->
    <defs>
     <path d="M 2.984375 54.6875 
L 12.5 54.6875 
L 29.59375 8.796875 
L 46.6875 54.6875 
L 56.203125 54.6875 
L 35.6875 0 
L 23.484375 0 
z
" id="DejaVuSans-118"/>
     <path d="M 10.6875 12.40625 
L 21 12.40625 
L 21 0 
L 10.6875 0 
z
" id="DejaVuSans-46"/>
    </defs>
    <g style="fill:#808080;" transform="translate(219.489063 288.777272)scale(0.1 -0.1)">
     <use xlink:href="#DejaVuSans-118"/>
     <use x="59.179688" xlink:href="#DejaVuSans-50"/>
     <use x="122.802734" xlink:href="#DejaVuSans-46"/>
     <use x="154.589844" xlink:href="#DejaVuSans-52"/>
    </g>
   </g>
  </g>
 </g>
 <defs>
  <clipPath id="pe48d72ff8c">
   <rect height="290.304" width="460.8" x="0" y="3.456"/>
  </clipPath>
 </defs>
</svg>
