<?xml version="1.0" encoding="utf-8" standalone="no"?>
<!DOCTYPE svg PUBLIC "-//W3C//DTD SVG 1.1//EN"
  "http://www.w3.org/Graphics/SVG/1.1/DTD/svg11.dtd">
<!-- Created with matplotlib (https://matplotlib.org/) -->
<svg height="345.6pt" version="1.1" viewBox="0 0 460.8 345.6" width="460.8pt" xmlns="http://www.w3.org/2000/svg" xmlns:xlink="http://www.w3.org/1999/xlink">
 <defs>
  <style type="text/css">
*{stroke-linecap:butt;stroke-linejoin:round;}
  </style>
 </defs>
 <g id="figure_1">
  <g id="patch_1">
   <path d="M 0 345.6 
L 460.8 345.6 
L 460.8 0 
L 0 0 
z
" style="fill:#ffffff;"/>
  </g>
  <g id="axes_1">
   <g id="patch_2">
    <path d="M 0 293.76 
L 460.8 293.76 
L 460.8 3.456 
L 0 3.456 
z
" style="fill:#ffffff;"/>
   </g>
   <g id="matplotlib.axis_1">
    <g id="xtick_1">
     <g id="line2d_1">
      <path clip-path="url(#pf64695a595)" d="M 104.585791 293.76 
L 104.585791 3.456 
" style="fill:none;stroke:#b0b0b0;stroke-linecap:square;stroke-width:0.8;"/>
     </g>
     <g id="line2d_2">
      <defs>
       <path d="M 0 0 
L 0 3.5 
" id="m27b6b0f7ed" style="stroke:#000000;stroke-width:0.8;"/>
      </defs>
      <g>
       <use style="stroke:#000000;stroke-width:0.8;" x="104.585791" xlink:href="#m27b6b0f7ed" y="293.76"/>
      </g>
     </g>
     <g id="text_1">
      <!-- -4 -->
      <defs>
       <path d="M 4.890625 31.390625 
L 31.203125 31.390625 
L 31.203125 23.390625 
L 4.890625 23.390625 
z
" id="DejaVuSans-45"/>
       <path d="M 37.796875 64.3125 
L 12.890625 25.390625 
L 37.796875 25.390625 
z
M 35.203125 72.90625 
L 47.609375 72.90625 
L 47.609375 25.390625 
L 58.015625 25.390625 
L 58.015625 17.1875 
L 47.609375 17.1875 
L 47.609375 0 
L 37.796875 0 
L 37.796875 17.1875 
L 4.890625 17.1875 
L 4.890625 26.703125 
z
" id="DejaVuSans-52"/>
      </defs>
      <g transform="translate(94.615479 315.956875)scale(0.2 -0.2)">
       <use xlink:href="#DejaVuSans-45"/>
       <use x="36.083984" xlink:href="#DejaVuSans-52"/>
      </g>
     </g>
    </g>
    <g id="xtick_2">
     <g id="line2d_3">
      <path clip-path="url(#pf64695a595)" d="M 209.284693 293.76 
L 209.284693 3.456 
" style="fill:none;stroke:#b0b0b0;stroke-linecap:square;stroke-width:0.8;"/>
     </g>
     <g id="line2d_4">
      <g>
       <use style="stroke:#000000;stroke-width:0.8;" x="209.284693" xlink:href="#m27b6b0f7ed" y="293.76"/>
      </g>
     </g>
     <g id="text_2">
      <!-- 0 -->
      <defs>
       <path d="M 31.78125 66.40625 
Q 24.171875 66.40625 20.328125 58.90625 
Q 16.5 51.421875 16.5 36.375 
Q 16.5 21.390625 20.328125 13.890625 
Q 24.171875 6.390625 31.78125 6.390625 
Q 39.453125 6.390625 43.28125 13.890625 
Q 47.125 21.390625 47.125 36.375 
Q 47.125 51.421875 43.28125 58.90625 
Q 39.453125 66.40625 31.78125 66.40625 
z
M 31.78125 74.21875 
Q 44.046875 74.21875 50.515625 64.515625 
Q 56.984375 54.828125 56.984375 36.375 
Q 56.984375 17.96875 50.515625 8.265625 
Q 44.046875 -1.421875 31.78125 -1.421875 
Q 19.53125 -1.421875 13.0625 8.265625 
Q 6.59375 17.96875 6.59375 36.375 
Q 6.59375 54.828125 13.0625 64.515625 
Q 19.53125 74.21875 31.78125 74.21875 
z
" id="DejaVuSans-48"/>
      </defs>
      <g transform="translate(202.922193 315.956875)scale(0.2 -0.2)">
       <use xlink:href="#DejaVuSans-48"/>
      </g>
     </g>
    </g>
    <g id="xtick_3">
     <g id="line2d_5">
      <path clip-path="url(#pf64695a595)" d="M 313.983595 293.76 
L 313.983595 3.456 
" style="fill:none;stroke:#b0b0b0;stroke-linecap:square;stroke-width:0.8;"/>
     </g>
     <g id="line2d_6">
      <g>
       <use style="stroke:#000000;stroke-width:0.8;" x="313.983595" xlink:href="#m27b6b0f7ed" y="293.76"/>
      </g>
     </g>
     <g id="text_3">
      <!-- 4 -->
      <g transform="translate(307.621095 315.956875)scale(0.2 -0.2)">
       <use xlink:href="#DejaVuSans-52"/>
      </g>
     </g>
    </g>
    <g id="xtick_4">
     <g id="line2d_7">
      <path clip-path="url(#pf64695a595)" d="M 418.682496 293.76 
L 418.682496 3.456 
" style="fill:none;stroke:#b0b0b0;stroke-linecap:square;stroke-width:0.8;"/>
     </g>
     <g id="line2d_8">
      <g>
       <use style="stroke:#000000;stroke-width:0.8;" x="418.682496" xlink:href="#m27b6b0f7ed" y="293.76"/>
      </g>
     </g>
     <g id="text_4">
      <!-- 8 -->
      <defs>
       <path d="M 31.78125 34.625 
Q 24.75 34.625 20.71875 30.859375 
Q 16.703125 27.09375 16.703125 20.515625 
Q 16.703125 13.921875 20.71875 10.15625 
Q 24.75 6.390625 31.78125 6.390625 
Q 38.8125 6.390625 42.859375 10.171875 
Q 46.921875 13.96875 46.921875 20.515625 
Q 46.921875 27.09375 42.890625 30.859375 
Q 38.875 34.625 31.78125 34.625 
z
M 21.921875 38.8125 
Q 15.578125 40.375 12.03125 44.71875 
Q 8.5 49.078125 8.5 55.328125 
Q 8.5 64.0625 14.71875 69.140625 
Q 20.953125 74.21875 31.78125 74.21875 
Q 42.671875 74.21875 48.875 69.140625 
Q 55.078125 64.0625 55.078125 55.328125 
Q 55.078125 49.078125 51.53125 44.71875 
Q 48 40.375 41.703125 38.8125 
Q 48.828125 37.15625 52.796875 32.3125 
Q 56.78125 27.484375 56.78125 20.515625 
Q 56.78125 9.90625 50.3125 4.234375 
Q 43.84375 -1.421875 31.78125 -1.421875 
Q 19.734375 -1.421875 13.25 4.234375 
Q 6.78125 9.90625 6.78125 20.515625 
Q 6.78125 27.484375 10.78125 32.3125 
Q 14.796875 37.15625 21.921875 38.8125 
z
M 18.3125 54.390625 
Q 18.3125 48.734375 21.84375 45.5625 
Q 25.390625 42.390625 31.78125 42.390625 
Q 38.140625 42.390625 41.71875 45.5625 
Q 45.3125 48.734375 45.3125 54.390625 
Q 45.3125 60.0625 41.71875 63.234375 
Q 38.140625 66.40625 31.78125 66.40625 
Q 25.390625 66.40625 21.84375 63.234375 
Q 18.3125 60.0625 18.3125 54.390625 
z
" id="DejaVuSans-56"/>
      </defs>
      <g transform="translate(412.319996 315.956875)scale(0.2 -0.2)">
       <use xlink:href="#DejaVuSans-56"/>
      </g>
     </g>
    </g>
    <g id="text_5">
     <!-- log10 of Df -->
     <defs>
      <path d="M 9.421875 75.984375 
L 18.40625 75.984375 
L 18.40625 0 
L 9.421875 0 
z
" id="DejaVuSans-108"/>
      <path d="M 30.609375 48.390625 
Q 23.390625 48.390625 19.1875 42.75 
Q 14.984375 37.109375 14.984375 27.296875 
Q 14.984375 17.484375 19.15625 11.84375 
Q 23.34375 6.203125 30.609375 6.203125 
Q 37.796875 6.203125 41.984375 11.859375 
Q 46.1875 17.53125 46.1875 27.296875 
Q 46.1875 37.015625 41.984375 42.703125 
Q 37.796875 48.390625 30.609375 48.390625 
z
M 30.609375 56 
Q 42.328125 56 49.015625 48.375 
Q 55.71875 40.765625 55.71875 27.296875 
Q 55.71875 13.875 49.015625 6.21875 
Q 42.328125 -1.421875 30.609375 -1.421875 
Q 18.84375 -1.421875 12.171875 6.21875 
Q 5.515625 13.875 5.515625 27.296875 
Q 5.515625 40.765625 12.171875 48.375 
Q 18.84375 56 30.609375 56 
z
" id="DejaVuSans-111"/>
      <path d="M 45.40625 27.984375 
Q 45.40625 37.75 41.375 43.109375 
Q 37.359375 48.484375 30.078125 48.484375 
Q 22.859375 48.484375 18.828125 43.109375 
Q 14.796875 37.75 14.796875 27.984375 
Q 14.796875 18.265625 18.828125 12.890625 
Q 22.859375 7.515625 30.078125 7.515625 
Q 37.359375 7.515625 41.375 12.890625 
Q 45.40625 18.265625 45.40625 27.984375 
z
M 54.390625 6.78125 
Q 54.390625 -7.171875 48.1875 -13.984375 
Q 42 -20.796875 29.203125 -20.796875 
Q 24.46875 -20.796875 20.265625 -20.09375 
Q 16.0625 -19.390625 12.109375 -17.921875 
L 12.109375 -9.1875 
Q 16.0625 -11.328125 19.921875 -12.34375 
Q 23.78125 -13.375 27.78125 -13.375 
Q 36.625 -13.375 41.015625 -8.765625 
Q 45.40625 -4.15625 45.40625 5.171875 
L 45.40625 9.625 
Q 42.625 4.78125 38.28125 2.390625 
Q 33.9375 0 27.875 0 
Q 17.828125 0 11.671875 7.65625 
Q 5.515625 15.328125 5.515625 27.984375 
Q 5.515625 40.671875 11.671875 48.328125 
Q 17.828125 56 27.875 56 
Q 33.9375 56 38.28125 53.609375 
Q 42.625 51.21875 45.40625 46.390625 
L 45.40625 54.6875 
L 54.390625 54.6875 
z
" id="DejaVuSans-103"/>
      <path d="M 12.40625 8.296875 
L 28.515625 8.296875 
L 28.515625 63.921875 
L 10.984375 60.40625 
L 10.984375 69.390625 
L 28.421875 72.90625 
L 38.28125 72.90625 
L 38.28125 8.296875 
L 54.390625 8.296875 
L 54.390625 0 
L 12.40625 0 
z
" id="DejaVuSans-49"/>
      <path id="DejaVuSans-32"/>
      <path d="M 37.109375 75.984375 
L 37.109375 68.5 
L 28.515625 68.5 
Q 23.6875 68.5 21.796875 66.546875 
Q 19.921875 64.59375 19.921875 59.515625 
L 19.921875 54.6875 
L 34.71875 54.6875 
L 34.71875 47.703125 
L 19.921875 47.703125 
L 19.921875 0 
L 10.890625 0 
L 10.890625 47.703125 
L 2.296875 47.703125 
L 2.296875 54.6875 
L 10.890625 54.6875 
L 10.890625 58.5 
Q 10.890625 67.625 15.140625 71.796875 
Q 19.390625 75.984375 28.609375 75.984375 
z
" id="DejaVuSans-102"/>
      <path d="M 19.671875 64.796875 
L 19.671875 8.109375 
L 31.59375 8.109375 
Q 46.6875 8.109375 53.6875 14.9375 
Q 60.6875 21.78125 60.6875 36.53125 
Q 60.6875 51.171875 53.6875 57.984375 
Q 46.6875 64.796875 31.59375 64.796875 
z
M 9.8125 72.90625 
L 30.078125 72.90625 
Q 51.265625 72.90625 61.171875 64.09375 
Q 71.09375 55.28125 71.09375 36.53125 
Q 71.09375 17.671875 61.125 8.828125 
Q 51.171875 0 30.078125 0 
L 9.8125 0 
z
" id="DejaVuSans-68"/>
     </defs>
     <g transform="translate(175.214063 339.313125)scale(0.2 -0.2)">
      <use xlink:href="#DejaVuSans-108"/>
      <use x="27.783203" xlink:href="#DejaVuSans-111"/>
      <use x="88.964844" xlink:href="#DejaVuSans-103"/>
      <use x="152.441406" xlink:href="#DejaVuSans-49"/>
      <use x="216.064453" xlink:href="#DejaVuSans-48"/>
      <use x="279.6875" xlink:href="#DejaVuSans-32"/>
      <use x="311.474609" xlink:href="#DejaVuSans-111"/>
      <use x="372.65625" xlink:href="#DejaVuSans-102"/>
      <use x="407.861328" xlink:href="#DejaVuSans-32"/>
      <use x="439.648438" xlink:href="#DejaVuSans-68"/>
      <use x="516.650391" xlink:href="#DejaVuSans-102"/>
     </g>
    </g>
   </g>
   <g id="matplotlib.axis_2">
    <g id="ytick_1">
     <g id="line2d_9">
      <path clip-path="url(#pf64695a595)" d="M 0 293.76 
L 460.8 293.76 
" style="fill:none;stroke:#b0b0b0;stroke-linecap:square;stroke-width:0.8;"/>
     </g>
     <g id="line2d_10">
      <defs>
       <path d="M 0 0 
L -3.5 0 
" id="m09d711a0e5" style="stroke:#000000;stroke-width:0.8;"/>
      </defs>
      <g>
       <use style="stroke:#000000;stroke-width:0.8;" x="0" xlink:href="#m09d711a0e5" y="293.76"/>
      </g>
     </g>
    </g>
    <g id="ytick_2">
     <g id="line2d_11">
      <path clip-path="url(#pf64695a595)" d="M 0 236.274059 
L 460.8 236.274059 
" style="fill:none;stroke:#b0b0b0;stroke-linecap:square;stroke-width:0.8;"/>
     </g>
     <g id="line2d_12">
      <g>
       <use style="stroke:#000000;stroke-width:0.8;" x="0" xlink:href="#m09d711a0e5" y="236.274059"/>
      </g>
     </g>
    </g>
    <g id="ytick_3">
     <g id="line2d_13">
      <path clip-path="url(#pf64695a595)" d="M 0 178.788119 
L 460.8 178.788119 
" style="fill:none;stroke:#b0b0b0;stroke-linecap:square;stroke-width:0.8;"/>
     </g>
     <g id="line2d_14">
      <g>
       <use style="stroke:#000000;stroke-width:0.8;" x="0" xlink:href="#m09d711a0e5" y="178.788119"/>
      </g>
     </g>
    </g>
    <g id="ytick_4">
     <g id="line2d_15">
      <path clip-path="url(#pf64695a595)" d="M 0 121.302178 
L 460.8 121.302178 
" style="fill:none;stroke:#b0b0b0;stroke-linecap:square;stroke-width:0.8;"/>
     </g>
     <g id="line2d_16">
      <g>
       <use style="stroke:#000000;stroke-width:0.8;" x="0" xlink:href="#m09d711a0e5" y="121.302178"/>
      </g>
     </g>
    </g>
    <g id="ytick_5">
     <g id="line2d_17">
      <path clip-path="url(#pf64695a595)" d="M 0 63.816238 
L 460.8 63.816238 
" style="fill:none;stroke:#b0b0b0;stroke-linecap:square;stroke-width:0.8;"/>
     </g>
     <g id="line2d_18">
      <g>
       <use style="stroke:#000000;stroke-width:0.8;" x="0" xlink:href="#m09d711a0e5" y="63.816238"/>
      </g>
     </g>
    </g>
    <g id="ytick_6">
     <g id="line2d_19">
      <path clip-path="url(#pf64695a595)" d="M 0 6.330297 
L 460.8 6.330297 
" style="fill:none;stroke:#b0b0b0;stroke-linecap:square;stroke-width:0.8;"/>
     </g>
     <g id="line2d_20">
      <g>
       <use style="stroke:#000000;stroke-width:0.8;" x="0" xlink:href="#m09d711a0e5" y="6.330297"/>
      </g>
     </g>
    </g>
   </g>
   <g id="line2d_21">
    <path clip-path="url(#pf64695a595)" d="M 183.847244 293.76 
L 183.847244 289.927604 
L 201.003188 289.927604 
L 201.003188 286.095208 
L 210.165337 286.095208 
L 210.165337 282.262812 
L 216.588812 282.262812 
L 216.588812 278.430416 
L 217.117308 278.430416 
L 217.117308 274.59802 
L 218.266846 274.59802 
L 218.266846 270.765624 
L 218.598642 270.765624 
L 218.598642 266.933228 
L 218.8831 266.933228 
L 218.8831 263.100832 
L 219.358925 263.100832 
L 219.358925 259.268436 
L 219.767334 259.268436 
L 219.767334 255.43604 
L 220.540817 255.43604 
L 220.540817 251.603644 
L 220.772644 251.603644 
L 220.772644 247.771248 
L 221.424898 247.771248 
L 221.424898 243.938851 
L 222.073335 243.938851 
L 222.073335 240.106455 
L 222.218305 240.106455 
L 222.218305 236.274059 
L 222.510564 236.274059 
L 222.510564 232.441663 
L 222.80141 232.441663 
L 222.893934 224.776871 
L 222.921921 224.776871 
L 222.921921 220.944475 
L 223.056637 220.944475 
L 223.056637 217.112079 
L 223.208715 217.112079 
L 223.208715 213.279683 
L 223.569975 213.279683 
L 223.569975 209.447287 
L 223.732225 209.447287 
L 223.732225 205.614891 
L 224.096216 205.614891 
L 224.161429 197.950099 
L 224.207614 197.950099 
L 224.207614 194.117703 
L 224.407595 194.117703 
L 224.407595 190.285307 
L 225.208405 190.285307 
L 225.208405 186.452911 
L 225.531212 186.452911 
L 225.531212 182.620515 
L 225.863752 182.620515 
L 225.863752 178.788119 
L 226.18254 178.788119 
L 226.268656 171.123327 
L 226.691448 171.123327 
L 226.691448 167.290931 
L 227.198651 167.290931 
L 227.198651 163.458535 
L 227.805243 163.458535 
L 227.805243 159.626139 
L 228.330678 159.626139 
L 228.330678 155.793743 
L 230.516621 155.793743 
L 230.547729 148.12895 
L 231.195254 148.12895 
L 231.195254 144.296554 
L 231.617404 144.296554 
L 231.617404 140.464158 
L 231.946881 140.464158 
L 231.946881 136.631762 
L 233.678127 136.631762 
L 233.678127 132.799366 
L 233.816464 132.799366 
L 233.816464 128.96697 
L 234.209581 128.96697 
L 234.209581 125.134574 
L 234.872236 125.134574 
L 234.872236 121.302178 
L 235.146631 121.302178 
L 235.146631 117.469782 
L 235.455758 117.469782 
L 235.455758 113.637386 
L 237.015826 113.637386 
L 237.015826 109.80499 
L 237.179393 109.80499 
L 237.179393 105.972594 
L 237.403851 105.972594 
L 237.403851 102.140198 
L 238.884715 102.140198 
L 238.884715 98.307802 
L 239.758601 98.307802 
L 239.758601 94.475406 
L 240.440845 94.475406 
L 240.477484 86.810614 
L 242.38606 86.810614 
L 242.38606 82.978218 
L 242.93905 82.978218 
L 242.93905 79.145822 
L 243.138896 79.145822 
L 243.138896 75.313426 
L 244.42864 75.313426 
L 244.42864 71.48103 
L 246.237898 71.48103 
L 246.237898 67.648634 
L 247.614481 67.648634 
L 247.663909 59.983842 
L 248.802319 59.983842 
L 248.846053 52.31905 
L 249.518381 52.31905 
L 249.518381 48.486653 
L 249.962716 48.486653 
L 249.962716 44.654257 
L 250.239895 44.654257 
L 250.239895 40.821861 
L 250.531331 40.821861 
L 250.59526 33.157069 
L 250.825603 33.157069 
L 250.825603 29.324673 
L 251.572577 29.324673 
L 251.572577 25.492277 
L 251.987015 25.492277 
L 251.987015 21.659881 
L 253.006996 21.659881 
L 253.006996 17.827485 
L 253.314349 17.827485 
L 253.314349 13.995089 
L 274.338103 13.995089 
L 274.338103 10.162693 
L 284.214498 10.162693 
L 284.214498 6.330297 
L 284.214498 6.330297 
L 460.8 6.330297 
L 460.8 6.330297 
" style="fill:none;stroke:#ff0000;stroke-linecap:square;stroke-width:3;"/>
   </g>
   <g id="line2d_22">
    <path clip-path="url(#pf64695a595)" d="M 231.230391 293.76 
L 231.230391 289.927604 
L 236.632013 289.927604 
L 236.689756 282.262812 
L 237.670882 282.262812 
L 237.670882 278.430416 
L 238.570522 278.430416 
L 238.570522 274.59802 
L 240.802604 274.59802 
L 240.802604 270.765624 
L 241.003065 270.765624 
L 241.003065 266.933228 
L 241.986265 266.933228 
L 241.992394 259.268436 
L 243.25609 259.268436 
L 243.25609 255.43604 
L 243.691745 255.43604 
L 243.718862 247.771248 
L 244.445588 247.771248 
L 244.445588 243.938851 
L 244.761583 243.938851 
L 244.761583 240.106455 
L 245.211302 240.106455 
L 245.211302 236.274059 
L 245.745143 236.274059 
L 245.750546 228.609267 
L 245.994201 228.609267 
L 245.994201 224.776871 
L 246.862489 224.776871 
L 246.862489 220.944475 
L 248.23015 220.944475 
L 248.23015 217.112079 
L 249.357022 217.112079 
L 249.357022 213.279683 
L 251.491544 213.279683 
L 251.491544 209.447287 
L 253.87209 209.447287 
L 253.87209 205.614891 
L 254.359477 205.614891 
L 254.370838 197.950099 
L 255.097279 197.950099 
L 255.097279 194.117703 
L 255.372993 194.117703 
L 255.372993 190.285307 
L 256.173854 190.285307 
L 256.173854 186.452911 
L 256.42822 186.452911 
L 256.526753 178.788119 
L 256.576443 178.788119 
L 256.576443 174.955723 
L 256.770464 174.955723 
L 256.770464 171.123327 
L 257.387768 171.123327 
L 257.4441 163.458535 
L 257.703079 163.458535 
L 257.710466 155.793743 
L 257.930546 155.793743 
L 257.931309 148.12895 
L 258.369289 148.12895 
L 258.447296 128.96697 
L 258.736057 128.96697 
L 258.736057 125.134574 
L 258.99216 125.134574 
L 258.99216 121.302178 
L 259.356836 121.302178 
L 259.425019 113.637386 
L 259.799404 113.637386 
L 259.799404 109.80499 
L 260.434158 109.80499 
L 260.486017 102.140198 
L 261.6682 102.140198 
L 261.6682 98.307802 
L 262.307527 98.307802 
L 262.307527 94.475406 
L 263.134605 94.475406 
L 263.134605 90.64301 
L 263.711452 90.64301 
L 263.711452 86.810614 
L 265.289076 86.810614 
L 265.289076 82.978218 
L 265.715671 82.978218 
L 265.715671 79.145822 
L 266.860752 79.145822 
L 266.867086 71.48103 
L 267.905808 71.48103 
L 267.905808 67.648634 
L 268.080544 67.648634 
L 268.080544 63.816238 
L 268.492247 63.816238 
L 268.492247 59.983842 
L 306.585348 59.983842 
L 306.585348 56.151446 
L 307.435553 56.151446 
L 307.435553 52.31905 
L 313.002573 52.31905 
L 313.002573 48.486653 
L 316.248863 48.486653 
L 316.248863 44.654257 
L 317.564803 44.654257 
L 317.564803 40.821861 
L 326.327965 40.821861 
L 326.327965 36.989465 
L 328.145447 36.989465 
L 328.145447 33.157069 
L 329.213757 33.157069 
L 329.213757 29.324673 
L 331.0321 29.324673 
L 331.0321 25.492277 
L 331.450446 25.492277 
L 331.450446 21.659881 
L 332.507363 21.659881 
L 332.555057 13.995089 
L 332.640162 13.995089 
L 332.640162 10.162693 
L 334.38598 10.162693 
L 334.38598 6.330297 
L 334.38598 6.330297 
L 460.8 6.330297 
L 460.8 6.330297 
" style="fill:none;stroke:#00bfbf;stroke-linecap:square;stroke-width:1.5;"/>
   </g>
   <g id="line2d_23">
    <path clip-path="url(#pf64695a595)" d="M 225.528741 293.76 
L 225.528741 289.927604 
L 225.941543 289.927604 
L 225.941543 286.095208 
L 229.007256 286.095208 
L 229.007256 282.262812 
L 229.965672 282.262812 
L 229.965672 278.430416 
L 230.958603 278.430416 
L 230.958603 274.59802 
L 232.954756 274.59802 
L 232.954756 270.765624 
L 234.007431 270.765624 
L 234.007431 266.933228 
L 234.584848 266.933228 
L 234.584848 263.100832 
L 235.89843 263.100832 
L 235.89843 259.268436 
L 237.334305 259.268436 
L 237.334305 255.43604 
L 237.670882 255.43604 
L 237.670882 251.603644 
L 238.934042 251.603644 
L 238.934042 247.771248 
L 239.495296 247.771248 
L 239.596137 240.106455 
L 240.538592 240.106455 
L 240.538592 236.274059 
L 242.168506 236.274059 
L 242.168506 232.441663 
L 243.629573 232.441663 
L 243.691745 224.776871 
L 245.211302 224.776871 
L 245.211302 220.944475 
L 245.745143 220.944475 
L 245.745143 217.112079 
L 245.994201 217.112079 
L 245.994201 213.279683 
L 248.936851 213.279683 
L 248.936851 209.447287 
L 249.357022 209.447287 
L 249.357022 205.614891 
L 251.491544 205.614891 
L 251.491544 201.782495 
L 251.911362 201.782495 
L 251.911362 197.950099 
L 252.788839 197.950099 
L 252.788839 194.117703 
L 253.1068 194.117703 
L 253.1068 190.285307 
L 253.87209 190.285307 
L 253.87209 186.452911 
L 254.359477 186.452911 
L 254.370838 178.788119 
L 255.097279 178.788119 
L 255.097279 174.955723 
L 255.491511 174.955723 
L 255.491511 171.123327 
L 255.739483 171.123327 
L 255.836477 163.458535 
L 255.961287 163.458535 
L 256.007825 155.793743 
L 256.125032 155.793743 
L 256.125032 151.961347 
L 256.331358 151.961347 
L 256.331358 148.12895 
L 256.6133 148.12895 
L 256.709901 136.631762 
L 257.115054 136.631762 
L 257.115054 132.799366 
L 257.234047 132.799366 
L 257.234047 128.96697 
L 257.387768 128.96697 
L 257.4441 121.302178 
L 257.51324 121.302178 
L 257.607032 113.637386 
L 257.63751 113.637386 
L 257.703079 105.972594 
L 257.930546 105.972594 
L 257.930546 102.140198 
L 258.272046 102.140198 
L 258.272046 98.307802 
L 258.447296 98.307802 
L 258.447296 94.475406 
L 259.071585 94.475406 
L 259.094261 86.810614 
L 259.356836 86.810614 
L 259.356836 82.978218 
L 261.6682 82.978218 
L 261.6682 79.145822 
L 262.307527 79.145822 
L 262.307527 75.313426 
L 263.231795 75.313426 
L 263.251921 67.648634 
L 263.743142 67.648634 
L 263.743142 63.816238 
L 264.082491 63.816238 
L 264.082491 59.983842 
L 266.413728 59.983842 
L 266.413728 56.151446 
L 296.990476 56.151446 
L 296.990476 52.31905 
L 301.221102 52.31905 
L 301.221102 48.486653 
L 306.427583 48.486653 
L 306.427583 44.654257 
L 306.585348 44.654257 
L 306.585348 40.821861 
L 307.435553 40.821861 
L 307.435553 36.989465 
L 311.504987 36.989465 
L 311.595911 29.324673 
L 312.017954 29.324673 
L 312.017954 25.492277 
L 313.22531 25.492277 
L 313.22531 21.659881 
L 316.248863 21.659881 
L 316.248863 17.827485 
L 317.564803 17.827485 
L 317.564803 13.995089 
L 318.01841 13.995089 
L 318.01841 10.162693 
L 324.679657 10.162693 
L 324.679657 6.330297 
L 324.679657 6.330297 
L 460.8 6.330297 
L 460.8 6.330297 
" style="fill:none;stroke:#bf00bf;stroke-linecap:square;stroke-width:1.5;"/>
   </g>
   <g id="line2d_24">
    <path clip-path="url(#pf64695a595)" d="M 221.939062 293.76 
L 221.939062 289.927604 
L 222.921921 289.927604 
L 222.921921 286.095208 
L 224.388817 286.095208 
L 224.388817 282.262812 
L 225.528741 282.262812 
L 225.528741 278.430416 
L 225.941543 278.430416 
L 225.941543 274.59802 
L 228.261902 274.59802 
L 228.261902 270.765624 
L 228.862813 270.765624 
L 228.862813 266.933228 
L 229.347626 266.933228 
L 229.347626 263.100832 
L 229.965672 263.100832 
L 229.965672 259.268436 
L 230.920043 259.268436 
L 230.969927 247.771248 
L 231.210367 247.771248 
L 231.210367 243.938851 
L 234.007431 243.938851 
L 234.007431 240.106455 
L 234.701266 240.106455 
L 234.705517 232.441663 
L 235.89843 232.441663 
L 235.89843 228.609267 
L 236.822583 228.609267 
L 236.822583 224.776871 
L 237.277151 224.776871 
L 237.277151 220.944475 
L 239.562821 220.944475 
L 239.562821 217.112079 
L 241.000392 217.112079 
L 241.000392 213.279683 
L 243.629573 213.279683 
L 243.629573 209.447287 
L 244.162223 209.447287 
L 244.162223 205.614891 
L 244.42864 205.614891 
L 244.42864 201.782495 
L 244.654136 201.782495 
L 244.654136 197.950099 
L 245.024292 197.950099 
L 245.024292 194.117703 
L 245.211302 194.117703 
L 245.211302 190.285307 
L 245.366404 190.285307 
L 245.366404 186.452911 
L 245.71491 186.452911 
L 245.745143 178.788119 
L 245.994201 178.788119 
L 245.994201 174.955723 
L 248.477544 174.955723 
L 248.477544 171.123327 
L 248.936851 171.123327 
L 248.936851 167.290931 
L 249.357022 167.290931 
L 249.357022 163.458535 
L 251.320104 163.458535 
L 251.43037 151.961347 
L 251.491544 151.961347 
L 251.491544 148.12895 
L 251.911362 148.12895 
L 251.911362 144.296554 
L 252.788839 144.296554 
L 252.788839 140.464158 
L 253.1068 140.464158 
L 253.1068 136.631762 
L 253.560953 136.631762 
L 253.560953 132.799366 
L 254.273794 132.799366 
L 254.273794 128.96697 
L 255.506048 128.96697 
L 255.506048 125.134574 
L 255.805761 125.134574 
L 255.805761 121.302178 
L 255.961287 121.302178 
L 256.050191 113.637386 
L 256.099804 113.637386 
L 256.125032 105.972594 
L 256.231978 105.972594 
L 256.231978 102.140198 
L 256.573566 102.140198 
L 256.6133 94.475406 
L 256.990604 94.475406 
L 256.990604 90.64301 
L 257.234047 90.64301 
L 257.234047 86.810614 
L 257.607032 86.810614 
L 257.607032 82.978218 
L 257.930546 82.978218 
L 257.930546 79.145822 
L 258.177472 79.145822 
L 258.177472 75.313426 
L 258.994853 75.313426 
L 258.994853 71.48103 
L 259.356836 71.48103 
L 259.363507 63.816238 
L 259.829956 63.816238 
L 259.829956 59.983842 
L 260.941913 59.983842 
L 260.941913 56.151446 
L 266.413728 56.151446 
L 266.413728 52.31905 
L 285.904277 52.31905 
L 285.904277 48.486653 
L 300.520383 48.486653 
L 300.520383 44.654257 
L 301.221102 44.654257 
L 301.221102 40.821861 
L 301.987056 40.821861 
L 301.987056 36.989465 
L 305.031444 36.989465 
L 305.031444 33.157069 
L 305.217891 33.157069 
L 305.217891 29.324673 
L 307.450064 29.324673 
L 307.450064 25.492277 
L 310.25918 25.492277 
L 310.25918 21.659881 
L 310.519535 21.659881 
L 310.519535 17.827485 
L 311.595911 17.827485 
L 311.595911 13.995089 
L 312.788884 13.995089 
L 312.788884 10.162693 
L 320.444519 10.162693 
L 320.444519 6.330297 
L 320.444519 6.330297 
L 460.8 6.330297 
L 460.8 6.330297 
" style="fill:none;stroke:#000000;stroke-linecap:square;stroke-width:1.5;"/>
   </g>
   <g id="line2d_25">
    <path clip-path="url(#pf64695a595)" d="M 218.598642 293.76 
L 218.598642 289.927604 
L 219.040592 289.927604 
L 219.040592 286.095208 
L 219.767334 286.095208 
L 219.767334 282.262812 
L 220.98102 282.262812 
L 220.98102 278.430416 
L 221.939062 278.430416 
L 221.939062 274.59802 
L 222.921921 274.59802 
L 222.921921 270.765624 
L 223.208715 270.765624 
L 223.208715 266.933228 
L 224.207614 266.933228 
L 224.207614 263.100832 
L 224.92312 263.100832 
L 224.92312 259.268436 
L 225.689467 259.268436 
L 225.689467 255.43604 
L 225.941543 255.43604 
L 225.941543 251.603644 
L 226.711721 251.603644 
L 226.711721 247.771248 
L 227.190533 247.771248 
L 227.282673 240.106455 
L 228.006335 240.106455 
L 228.006335 236.274059 
L 228.261902 236.274059 
L 228.330678 228.609267 
L 229.132175 228.609267 
L 229.132175 224.776871 
L 231.210367 224.776871 
L 231.210367 220.944475 
L 231.617404 220.944475 
L 231.617404 217.112079 
L 233.266969 217.112079 
L 233.266969 213.279683 
L 234.209581 213.279683 
L 234.209581 209.447287 
L 234.701266 209.447287 
L 234.701266 205.614891 
L 234.93311 205.614891 
L 234.93311 201.782495 
L 235.16169 201.782495 
L 235.16169 197.950099 
L 236.822583 197.950099 
L 236.822583 194.117703 
L 237.403851 194.117703 
L 237.403851 190.285307 
L 237.645166 190.285307 
L 237.645166 186.452911 
L 239.320799 186.452911 
L 239.320799 182.620515 
L 239.562821 182.620515 
L 239.562821 178.788119 
L 241.385967 178.788119 
L 241.385967 174.955723 
L 243.043653 174.955723 
L 243.043653 171.123327 
L 243.291649 171.123327 
L 243.369242 163.458535 
L 243.727625 163.458535 
L 243.727625 159.626139 
L 244.302966 159.626139 
L 244.302991 151.961347 
L 244.42864 151.961347 
L 244.42864 148.12895 
L 244.654136 148.12895 
L 244.654136 144.296554 
L 245.211302 144.296554 
L 245.211302 140.464158 
L 245.366404 140.464158 
L 245.366404 136.631762 
L 246.615075 136.631762 
L 246.615075 132.799366 
L 247.714694 132.799366 
L 247.714694 128.96697 
L 247.934105 128.96697 
L 247.934105 125.134574 
L 248.936851 125.134574 
L 248.936851 121.302178 
L 251.023247 121.302178 
L 251.023247 117.469782 
L 251.317953 117.469782 
L 251.360692 109.80499 
L 253.506932 109.80499 
L 253.506932 105.972594 
L 253.627273 105.972594 
L 253.627273 102.140198 
L 254.234943 102.140198 
L 254.234943 98.307802 
L 254.633581 98.307802 
L 254.633581 94.475406 
L 255.016551 94.475406 
L 255.016551 90.64301 
L 255.961287 90.64301 
L 256.065956 75.313426 
L 256.099804 75.313426 
L 256.125032 67.648634 
L 256.231978 67.648634 
L 256.231978 63.816238 
L 256.6133 63.816238 
L 256.6133 59.983842 
L 256.990604 59.983842 
L 256.990604 56.151446 
L 259.356836 56.151446 
L 259.356836 52.31905 
L 264.907509 52.31905 
L 264.907509 48.486653 
L 277.946655 48.486653 
L 277.946655 44.654257 
L 282.019798 44.654257 
L 282.019798 40.821861 
L 282.731262 40.821861 
L 282.731262 36.989465 
L 285.904277 36.989465 
L 285.904277 33.157069 
L 296.01848 33.157069 
L 296.01848 29.324673 
L 297.53553 29.324673 
L 297.53553 25.492277 
L 298.035237 25.492277 
L 298.035237 21.659881 
L 298.41971 21.659881 
L 298.41971 17.827485 
L 301.221102 17.827485 
L 301.221102 13.995089 
L 303.805786 13.995089 
L 303.805786 10.162693 
L 306.738976 10.162693 
L 306.738976 6.330297 
L 306.738976 6.330297 
L 460.8 6.330297 
L 460.8 6.330297 
" style="fill:none;stroke:#00bfbf;stroke-linecap:square;stroke-width:1.5;"/>
   </g>
   <g id="line2d_26">
    <path clip-path="url(#pf64695a595)" d="M 183.847244 293.76 
L 183.847244 289.927604 
L 201.003188 289.927604 
L 201.003188 286.095208 
L 210.165337 286.095208 
L 210.165337 282.262812 
L 216.588812 282.262812 
L 216.588812 278.430416 
L 217.117308 278.430416 
L 217.117308 274.59802 
L 218.266846 274.59802 
L 218.266846 270.765624 
L 218.598642 270.765624 
L 218.598642 266.933228 
L 218.8831 266.933228 
L 218.8831 263.100832 
L 219.358925 263.100832 
L 219.358925 259.268436 
L 219.767334 259.268436 
L 219.767334 255.43604 
L 220.540817 255.43604 
L 220.540817 251.603644 
L 220.772644 251.603644 
L 220.772644 247.771248 
L 221.424898 247.771248 
L 221.424898 243.938851 
L 222.073335 243.938851 
L 222.073335 240.106455 
L 222.893934 240.106455 
L 222.921921 232.441663 
L 223.056637 232.441663 
L 223.056637 228.609267 
L 223.208715 228.609267 
L 223.208715 224.776871 
L 223.569975 224.776871 
L 223.569975 220.944475 
L 223.732225 220.944475 
L 223.732225 217.112079 
L 223.922117 217.112079 
L 223.922117 213.279683 
L 224.096216 213.279683 
L 224.161429 205.614891 
L 224.207614 205.614891 
L 224.207614 201.782495 
L 224.391824 201.782495 
L 224.407595 194.117703 
L 225.208405 194.117703 
L 225.208405 190.285307 
L 225.531212 190.285307 
L 225.531212 186.452911 
L 225.863752 186.452911 
L 225.863752 182.620515 
L 226.18254 182.620515 
L 226.268656 174.955723 
L 226.691448 174.955723 
L 226.72229 167.290931 
L 227.198651 167.290931 
L 227.198651 163.458535 
L 227.807207 163.458535 
L 227.807207 159.626139 
L 228.330678 159.626139 
L 228.330678 155.793743 
L 230.532336 155.793743 
L 230.547729 148.12895 
L 231.195254 148.12895 
L 231.195254 144.296554 
L 231.617404 144.296554 
L 231.617404 140.464158 
L 231.946881 140.464158 
L 231.946881 136.631762 
L 233.678127 136.631762 
L 233.678127 132.799366 
L 233.816464 132.799366 
L 233.816464 128.96697 
L 234.209581 128.96697 
L 234.209581 125.134574 
L 234.872236 125.134574 
L 234.872236 121.302178 
L 235.146631 121.302178 
L 235.146631 117.469782 
L 235.455758 117.469782 
L 235.455758 113.637386 
L 237.015826 113.637386 
L 237.015826 109.80499 
L 237.179393 109.80499 
L 237.179393 105.972594 
L 237.403851 105.972594 
L 237.403851 102.140198 
L 239.320799 102.140198 
L 239.320799 98.307802 
L 239.758601 98.307802 
L 239.758601 94.475406 
L 240.440845 94.475406 
L 240.477484 86.810614 
L 242.38606 86.810614 
L 242.38606 82.978218 
L 242.93905 82.978218 
L 242.93905 79.145822 
L 243.138896 79.145822 
L 243.138896 75.313426 
L 244.42864 75.313426 
L 244.42864 71.48103 
L 246.237898 71.48103 
L 246.237898 67.648634 
L 247.614481 67.648634 
L 247.663909 59.983842 
L 248.802319 59.983842 
L 248.846053 52.31905 
L 249.518381 52.31905 
L 249.518381 48.486653 
L 249.962716 48.486653 
L 249.962716 44.654257 
L 250.531331 44.654257 
L 250.531331 40.821861 
L 250.825603 40.821861 
L 250.933474 33.157069 
L 251.035319 33.157069 
L 251.035319 29.324673 
L 251.572577 29.324673 
L 251.572577 25.492277 
L 251.987015 25.492277 
L 251.987015 21.659881 
L 253.006996 21.659881 
L 253.006996 17.827485 
L 253.314349 17.827485 
L 253.314349 13.995089 
L 274.338103 13.995089 
L 274.338103 10.162693 
L 284.214498 10.162693 
L 284.214498 6.330297 
L 284.214498 6.330297 
L 460.8 6.330297 
L 460.8 6.330297 
" style="fill:none;stroke:#bf00bf;stroke-linecap:square;stroke-width:1.5;"/>
   </g>
   <g id="patch_3">
    <path d="M 0 293.76 
L 0 3.456 
" style="fill:none;stroke:#000000;stroke-linecap:square;stroke-linejoin:miter;stroke-width:0.8;"/>
   </g>
   <g id="patch_4">
    <path d="M 460.8 293.76 
L 460.8 3.456 
" style="fill:none;stroke:#000000;stroke-linecap:square;stroke-linejoin:miter;stroke-width:0.8;"/>
   </g>
   <g id="patch_5">
    <path d="M 0 293.76 
L 460.8 293.76 
" style="fill:none;stroke:#000000;stroke-linecap:square;stroke-linejoin:miter;stroke-width:0.8;"/>
   </g>
   <g id="patch_6">
    <path d="M 0 3.456 
L 460.8 3.456 
" style="fill:none;stroke:#000000;stroke-linecap:square;stroke-linejoin:miter;stroke-width:0.8;"/>
   </g>
   <g id="text_6">
    <!-- {f20-f24}, 5-D -->
    <defs>
     <path d="M 51.125 -9.28125 
L 51.125 -16.3125 
L 48.09375 -16.3125 
Q 35.9375 -16.3125 31.8125 -12.6875 
Q 27.6875 -9.078125 27.6875 1.703125 
L 27.6875 13.375 
Q 27.6875 20.75 25.046875 23.578125 
Q 22.40625 26.421875 15.484375 26.421875 
L 12.5 26.421875 
L 12.5 33.40625 
L 15.484375 33.40625 
Q 22.46875 33.40625 25.078125 36.203125 
Q 27.6875 39.015625 27.6875 46.296875 
L 27.6875 58.015625 
Q 27.6875 68.796875 31.8125 72.390625 
Q 35.9375 75.984375 48.09375 75.984375 
L 51.125 75.984375 
L 51.125 69 
L 47.796875 69 
Q 40.921875 69 38.8125 66.84375 
Q 36.71875 64.703125 36.71875 57.8125 
L 36.71875 45.703125 
Q 36.71875 38.03125 34.5 34.5625 
Q 32.28125 31.109375 26.90625 29.890625 
Q 32.328125 28.5625 34.515625 25.09375 
Q 36.71875 21.625 36.71875 14.015625 
L 36.71875 1.90625 
Q 36.71875 -4.984375 38.8125 -7.125 
Q 40.921875 -9.28125 47.796875 -9.28125 
z
" id="DejaVuSans-123"/>
     <path d="M 19.1875 8.296875 
L 53.609375 8.296875 
L 53.609375 0 
L 7.328125 0 
L 7.328125 8.296875 
Q 12.9375 14.109375 22.625 23.890625 
Q 32.328125 33.6875 34.8125 36.53125 
Q 39.546875 41.84375 41.421875 45.53125 
Q 43.3125 49.21875 43.3125 52.78125 
Q 43.3125 58.59375 39.234375 62.25 
Q 35.15625 65.921875 28.609375 65.921875 
Q 23.96875 65.921875 18.8125 64.3125 
Q 13.671875 62.703125 7.8125 59.421875 
L 7.8125 69.390625 
Q 13.765625 71.78125 18.9375 73 
Q 24.125 74.21875 28.421875 74.21875 
Q 39.75 74.21875 46.484375 68.546875 
Q 53.21875 62.890625 53.21875 53.421875 
Q 53.21875 48.921875 51.53125 44.890625 
Q 49.859375 40.875 45.40625 35.40625 
Q 44.1875 33.984375 37.640625 27.21875 
Q 31.109375 20.453125 19.1875 8.296875 
z
" id="DejaVuSans-50"/>
     <path d="M 12.5 -9.28125 
L 15.921875 -9.28125 
Q 22.75 -9.28125 24.828125 -7.171875 
Q 26.90625 -5.078125 26.90625 1.90625 
L 26.90625 14.015625 
Q 26.90625 21.625 29.09375 25.09375 
Q 31.296875 28.5625 36.71875 29.890625 
Q 31.296875 31.109375 29.09375 34.5625 
Q 26.90625 38.03125 26.90625 45.703125 
L 26.90625 57.8125 
Q 26.90625 64.75 24.828125 66.875 
Q 22.75 69 15.921875 69 
L 12.5 69 
L 12.5 75.984375 
L 15.578125 75.984375 
Q 27.734375 75.984375 31.8125 72.390625 
Q 35.890625 68.796875 35.890625 58.015625 
L 35.890625 46.296875 
Q 35.890625 39.015625 38.515625 36.203125 
Q 41.15625 33.40625 48.09375 33.40625 
L 51.125 33.40625 
L 51.125 26.421875 
L 48.09375 26.421875 
Q 41.15625 26.421875 38.515625 23.578125 
Q 35.890625 20.75 35.890625 13.375 
L 35.890625 1.703125 
Q 35.890625 -9.078125 31.8125 -12.6875 
Q 27.734375 -16.3125 15.578125 -16.3125 
L 12.5 -16.3125 
z
" id="DejaVuSans-125"/>
     <path d="M 11.71875 12.40625 
L 22.015625 12.40625 
L 22.015625 4 
L 14.015625 -11.625 
L 7.71875 -11.625 
L 11.71875 4 
z
" id="DejaVuSans-44"/>
     <path d="M 10.796875 72.90625 
L 49.515625 72.90625 
L 49.515625 64.59375 
L 19.828125 64.59375 
L 19.828125 46.734375 
Q 21.96875 47.46875 24.109375 47.828125 
Q 26.265625 48.1875 28.421875 48.1875 
Q 40.625 48.1875 47.75 41.5 
Q 54.890625 34.8125 54.890625 23.390625 
Q 54.890625 11.625 47.5625 5.09375 
Q 40.234375 -1.421875 26.90625 -1.421875 
Q 22.3125 -1.421875 17.546875 -0.640625 
Q 12.796875 0.140625 7.71875 1.703125 
L 7.71875 11.625 
Q 12.109375 9.234375 16.796875 8.0625 
Q 21.484375 6.890625 26.703125 6.890625 
Q 35.15625 6.890625 40.078125 11.328125 
Q 45.015625 15.765625 45.015625 23.390625 
Q 45.015625 31 40.078125 35.4375 
Q 35.15625 39.890625 26.703125 39.890625 
Q 22.75 39.890625 18.8125 39.015625 
Q 14.890625 38.140625 10.796875 36.28125 
z
" id="DejaVuSans-53"/>
    </defs>
    <g transform="translate(305.884 287.95392)scale(0.2 -0.2)">
     <use xlink:href="#DejaVuSans-123"/>
     <use x="63.623047" xlink:href="#DejaVuSans-102"/>
     <use x="98.828125" xlink:href="#DejaVuSans-50"/>
     <use x="162.451172" xlink:href="#DejaVuSans-48"/>
     <use x="226.074219" xlink:href="#DejaVuSans-45"/>
     <use x="262.158203" xlink:href="#DejaVuSans-102"/>
     <use x="297.363281" xlink:href="#DejaVuSans-50"/>
     <use x="360.986328" xlink:href="#DejaVuSans-52"/>
     <use x="424.609375" xlink:href="#DejaVuSans-125"/>
     <use x="488.232422" xlink:href="#DejaVuSans-44"/>
     <use x="520.019531" xlink:href="#DejaVuSans-32"/>
     <use x="551.806641" xlink:href="#DejaVuSans-53"/>
     <use x="615.429688" xlink:href="#DejaVuSans-45"/>
     <use x="651.513672" xlink:href="#DejaVuSans-68"/>
    </g>
   </g>
   <g id="text_7">
    <!-- v2.4 -->
    <defs>
     <path d="M 2.984375 54.6875 
L 12.5 54.6875 
L 29.59375 8.796875 
L 46.6875 54.6875 
L 56.203125 54.6875 
L 35.6875 0 
L 23.484375 0 
z
" id="DejaVuSans-118"/>
     <path d="M 10.6875 12.40625 
L 21 12.40625 
L 21 0 
L 10.6875 0 
z
" id="DejaVuSans-46"/>
    </defs>
    <g style="fill:#808080;" transform="translate(219.489063 288.777272)scale(0.1 -0.1)">
     <use xlink:href="#DejaVuSans-118"/>
     <use x="59.179688" xlink:href="#DejaVuSans-50"/>
     <use x="122.802734" xlink:href="#DejaVuSans-46"/>
     <use x="154.589844" xlink:href="#DejaVuSans-52"/>
    </g>
   </g>
  </g>
 </g>
 <defs>
  <clipPath id="pf64695a595">
   <rect height="290.304" width="460.8" x="0" y="3.456"/>
  </clipPath>
 </defs>
</svg>
