<?xml version="1.0" encoding="utf-8" standalone="no"?>
<!DOCTYPE svg PUBLIC "-//W3C//DTD SVG 1.1//EN"
  "http://www.w3.org/Graphics/SVG/1.1/DTD/svg11.dtd">
<!-- Created with matplotlib (https://matplotlib.org/) -->
<svg height="345.6pt" version="1.1" viewBox="0 0 460.8 345.6" width="460.8pt" xmlns="http://www.w3.org/2000/svg" xmlns:xlink="http://www.w3.org/1999/xlink">
 <defs>
  <style type="text/css">
*{stroke-linecap:butt;stroke-linejoin:round;}
  </style>
 </defs>
 <g id="figure_1">
  <g id="patch_1">
   <path d="M 0 345.6 
L 460.8 345.6 
L 460.8 0 
L 0 0 
z
" style="fill:#ffffff;"/>
  </g>
  <g id="axes_1">
   <g id="patch_2">
    <path d="M 0 293.76 
L 460.8 293.76 
L 460.8 3.456 
L 0 3.456 
z
" style="fill:#ffffff;"/>
   </g>
   <g id="matplotlib.axis_1">
    <g id="xtick_1">
     <g id="line2d_1">
      <path clip-path="url(#pf61d04c792)" d="M 104.741413 293.76 
L 104.741413 3.456 
" style="fill:none;stroke:#b0b0b0;stroke-linecap:square;stroke-width:0.8;"/>
     </g>
     <g id="line2d_2">
      <defs>
       <path d="M 0 0 
L 0 3.5 
" id="m0439990a81" style="stroke:#000000;stroke-width:0.8;"/>
      </defs>
      <g>
       <use style="stroke:#000000;stroke-width:0.8;" x="104.741413" xlink:href="#m0439990a81" y="293.76"/>
      </g>
     </g>
     <g id="text_1">
      <!-- -4 -->
      <defs>
       <path d="M 4.890625 31.390625 
L 31.203125 31.390625 
L 31.203125 23.390625 
L 4.890625 23.390625 
z
" id="DejaVuSans-45"/>
       <path d="M 37.796875 64.3125 
L 12.890625 25.390625 
L 37.796875 25.390625 
z
M 35.203125 72.90625 
L 47.609375 72.90625 
L 47.609375 25.390625 
L 58.015625 25.390625 
L 58.015625 17.1875 
L 47.609375 17.1875 
L 47.609375 0 
L 37.796875 0 
L 37.796875 17.1875 
L 4.890625 17.1875 
L 4.890625 26.703125 
z
" id="DejaVuSans-52"/>
      </defs>
      <g transform="translate(94.7711 315.956875)scale(0.2 -0.2)">
       <use xlink:href="#DejaVuSans-45"/>
       <use x="36.083984" xlink:href="#DejaVuSans-52"/>
      </g>
     </g>
    </g>
    <g id="xtick_2">
     <g id="line2d_3">
      <path clip-path="url(#pf61d04c792)" d="M 209.596104 293.76 
L 209.596104 3.456 
" style="fill:none;stroke:#b0b0b0;stroke-linecap:square;stroke-width:0.8;"/>
     </g>
     <g id="line2d_4">
      <g>
       <use style="stroke:#000000;stroke-width:0.8;" x="209.596104" xlink:href="#m0439990a81" y="293.76"/>
      </g>
     </g>
     <g id="text_2">
      <!-- 0 -->
      <defs>
       <path d="M 31.78125 66.40625 
Q 24.171875 66.40625 20.328125 58.90625 
Q 16.5 51.421875 16.5 36.375 
Q 16.5 21.390625 20.328125 13.890625 
Q 24.171875 6.390625 31.78125 6.390625 
Q 39.453125 6.390625 43.28125 13.890625 
Q 47.125 21.390625 47.125 36.375 
Q 47.125 51.421875 43.28125 58.90625 
Q 39.453125 66.40625 31.78125 66.40625 
z
M 31.78125 74.21875 
Q 44.046875 74.21875 50.515625 64.515625 
Q 56.984375 54.828125 56.984375 36.375 
Q 56.984375 17.96875 50.515625 8.265625 
Q 44.046875 -1.421875 31.78125 -1.421875 
Q 19.53125 -1.421875 13.0625 8.265625 
Q 6.59375 17.96875 6.59375 36.375 
Q 6.59375 54.828125 13.0625 64.515625 
Q 19.53125 74.21875 31.78125 74.21875 
z
" id="DejaVuSans-48"/>
      </defs>
      <g transform="translate(203.233604 315.956875)scale(0.2 -0.2)">
       <use xlink:href="#DejaVuSans-48"/>
      </g>
     </g>
    </g>
    <g id="xtick_3">
     <g id="line2d_5">
      <path clip-path="url(#pf61d04c792)" d="M 314.450796 293.76 
L 314.450796 3.456 
" style="fill:none;stroke:#b0b0b0;stroke-linecap:square;stroke-width:0.8;"/>
     </g>
     <g id="line2d_6">
      <g>
       <use style="stroke:#000000;stroke-width:0.8;" x="314.450796" xlink:href="#m0439990a81" y="293.76"/>
      </g>
     </g>
     <g id="text_3">
      <!-- 4 -->
      <g transform="translate(308.088296 315.956875)scale(0.2 -0.2)">
       <use xlink:href="#DejaVuSans-52"/>
      </g>
     </g>
    </g>
    <g id="xtick_4">
     <g id="line2d_7">
      <path clip-path="url(#pf61d04c792)" d="M 419.305487 293.76 
L 419.305487 3.456 
" style="fill:none;stroke:#b0b0b0;stroke-linecap:square;stroke-width:0.8;"/>
     </g>
     <g id="line2d_8">
      <g>
       <use style="stroke:#000000;stroke-width:0.8;" x="419.305487" xlink:href="#m0439990a81" y="293.76"/>
      </g>
     </g>
     <g id="text_4">
      <!-- 8 -->
      <defs>
       <path d="M 31.78125 34.625 
Q 24.75 34.625 20.71875 30.859375 
Q 16.703125 27.09375 16.703125 20.515625 
Q 16.703125 13.921875 20.71875 10.15625 
Q 24.75 6.390625 31.78125 6.390625 
Q 38.8125 6.390625 42.859375 10.171875 
Q 46.921875 13.96875 46.921875 20.515625 
Q 46.921875 27.09375 42.890625 30.859375 
Q 38.875 34.625 31.78125 34.625 
z
M 21.921875 38.8125 
Q 15.578125 40.375 12.03125 44.71875 
Q 8.5 49.078125 8.5 55.328125 
Q 8.5 64.0625 14.71875 69.140625 
Q 20.953125 74.21875 31.78125 74.21875 
Q 42.671875 74.21875 48.875 69.140625 
Q 55.078125 64.0625 55.078125 55.328125 
Q 55.078125 49.078125 51.53125 44.71875 
Q 48 40.375 41.703125 38.8125 
Q 48.828125 37.15625 52.796875 32.3125 
Q 56.78125 27.484375 56.78125 20.515625 
Q 56.78125 9.90625 50.3125 4.234375 
Q 43.84375 -1.421875 31.78125 -1.421875 
Q 19.734375 -1.421875 13.25 4.234375 
Q 6.78125 9.90625 6.78125 20.515625 
Q 6.78125 27.484375 10.78125 32.3125 
Q 14.796875 37.15625 21.921875 38.8125 
z
M 18.3125 54.390625 
Q 18.3125 48.734375 21.84375 45.5625 
Q 25.390625 42.390625 31.78125 42.390625 
Q 38.140625 42.390625 41.71875 45.5625 
Q 45.3125 48.734375 45.3125 54.390625 
Q 45.3125 60.0625 41.71875 63.234375 
Q 38.140625 66.40625 31.78125 66.40625 
Q 25.390625 66.40625 21.84375 63.234375 
Q 18.3125 60.0625 18.3125 54.390625 
z
" id="DejaVuSans-56"/>
      </defs>
      <g transform="translate(412.942987 315.956875)scale(0.2 -0.2)">
       <use xlink:href="#DejaVuSans-56"/>
      </g>
     </g>
    </g>
    <g id="text_5">
     <!-- log10 of Df -->
     <defs>
      <path d="M 9.421875 75.984375 
L 18.40625 75.984375 
L 18.40625 0 
L 9.421875 0 
z
" id="DejaVuSans-108"/>
      <path d="M 30.609375 48.390625 
Q 23.390625 48.390625 19.1875 42.75 
Q 14.984375 37.109375 14.984375 27.296875 
Q 14.984375 17.484375 19.15625 11.84375 
Q 23.34375 6.203125 30.609375 6.203125 
Q 37.796875 6.203125 41.984375 11.859375 
Q 46.1875 17.53125 46.1875 27.296875 
Q 46.1875 37.015625 41.984375 42.703125 
Q 37.796875 48.390625 30.609375 48.390625 
z
M 30.609375 56 
Q 42.328125 56 49.015625 48.375 
Q 55.71875 40.765625 55.71875 27.296875 
Q 55.71875 13.875 49.015625 6.21875 
Q 42.328125 -1.421875 30.609375 -1.421875 
Q 18.84375 -1.421875 12.171875 6.21875 
Q 5.515625 13.875 5.515625 27.296875 
Q 5.515625 40.765625 12.171875 48.375 
Q 18.84375 56 30.609375 56 
z
" id="DejaVuSans-111"/>
      <path d="M 45.40625 27.984375 
Q 45.40625 37.75 41.375 43.109375 
Q 37.359375 48.484375 30.078125 48.484375 
Q 22.859375 48.484375 18.828125 43.109375 
Q 14.796875 37.75 14.796875 27.984375 
Q 14.796875 18.265625 18.828125 12.890625 
Q 22.859375 7.515625 30.078125 7.515625 
Q 37.359375 7.515625 41.375 12.890625 
Q 45.40625 18.265625 45.40625 27.984375 
z
M 54.390625 6.78125 
Q 54.390625 -7.171875 48.1875 -13.984375 
Q 42 -20.796875 29.203125 -20.796875 
Q 24.46875 -20.796875 20.265625 -20.09375 
Q 16.0625 -19.390625 12.109375 -17.921875 
L 12.109375 -9.1875 
Q 16.0625 -11.328125 19.921875 -12.34375 
Q 23.78125 -13.375 27.78125 -13.375 
Q 36.625 -13.375 41.015625 -8.765625 
Q 45.40625 -4.15625 45.40625 5.171875 
L 45.40625 9.625 
Q 42.625 4.78125 38.28125 2.390625 
Q 33.9375 0 27.875 0 
Q 17.828125 0 11.671875 7.65625 
Q 5.515625 15.328125 5.515625 27.984375 
Q 5.515625 40.671875 11.671875 48.328125 
Q 17.828125 56 27.875 56 
Q 33.9375 56 38.28125 53.609375 
Q 42.625 51.21875 45.40625 46.390625 
L 45.40625 54.6875 
L 54.390625 54.6875 
z
" id="DejaVuSans-103"/>
      <path d="M 12.40625 8.296875 
L 28.515625 8.296875 
L 28.515625 63.921875 
L 10.984375 60.40625 
L 10.984375 69.390625 
L 28.421875 72.90625 
L 38.28125 72.90625 
L 38.28125 8.296875 
L 54.390625 8.296875 
L 54.390625 0 
L 12.40625 0 
z
" id="DejaVuSans-49"/>
      <path id="DejaVuSans-32"/>
      <path d="M 37.109375 75.984375 
L 37.109375 68.5 
L 28.515625 68.5 
Q 23.6875 68.5 21.796875 66.546875 
Q 19.921875 64.59375 19.921875 59.515625 
L 19.921875 54.6875 
L 34.71875 54.6875 
L 34.71875 47.703125 
L 19.921875 47.703125 
L 19.921875 0 
L 10.890625 0 
L 10.890625 47.703125 
L 2.296875 47.703125 
L 2.296875 54.6875 
L 10.890625 54.6875 
L 10.890625 58.5 
Q 10.890625 67.625 15.140625 71.796875 
Q 19.390625 75.984375 28.609375 75.984375 
z
" id="DejaVuSans-102"/>
      <path d="M 19.671875 64.796875 
L 19.671875 8.109375 
L 31.59375 8.109375 
Q 46.6875 8.109375 53.6875 14.9375 
Q 60.6875 21.78125 60.6875 36.53125 
Q 60.6875 51.171875 53.6875 57.984375 
Q 46.6875 64.796875 31.59375 64.796875 
z
M 9.8125 72.90625 
L 30.078125 72.90625 
Q 51.265625 72.90625 61.171875 64.09375 
Q 71.09375 55.28125 71.09375 36.53125 
Q 71.09375 17.671875 61.125 8.828125 
Q 51.171875 0 30.078125 0 
L 9.8125 0 
z
" id="DejaVuSans-68"/>
     </defs>
     <g transform="translate(175.214063 339.313125)scale(0.2 -0.2)">
      <use xlink:href="#DejaVuSans-108"/>
      <use x="27.783203" xlink:href="#DejaVuSans-111"/>
      <use x="88.964844" xlink:href="#DejaVuSans-103"/>
      <use x="152.441406" xlink:href="#DejaVuSans-49"/>
      <use x="216.064453" xlink:href="#DejaVuSans-48"/>
      <use x="279.6875" xlink:href="#DejaVuSans-32"/>
      <use x="311.474609" xlink:href="#DejaVuSans-111"/>
      <use x="372.65625" xlink:href="#DejaVuSans-102"/>
      <use x="407.861328" xlink:href="#DejaVuSans-32"/>
      <use x="439.648438" xlink:href="#DejaVuSans-68"/>
      <use x="516.650391" xlink:href="#DejaVuSans-102"/>
     </g>
    </g>
   </g>
   <g id="matplotlib.axis_2">
    <g id="ytick_1">
     <g id="line2d_9">
      <path clip-path="url(#pf61d04c792)" d="M 0 293.76 
L 460.8 293.76 
" style="fill:none;stroke:#b0b0b0;stroke-linecap:square;stroke-width:0.8;"/>
     </g>
     <g id="line2d_10">
      <defs>
       <path d="M 0 0 
L -3.5 0 
" id="me677e1a3d6" style="stroke:#000000;stroke-width:0.8;"/>
      </defs>
      <g>
       <use style="stroke:#000000;stroke-width:0.8;" x="0" xlink:href="#me677e1a3d6" y="293.76"/>
      </g>
     </g>
    </g>
    <g id="ytick_2">
     <g id="line2d_11">
      <path clip-path="url(#pf61d04c792)" d="M 0 236.274059 
L 460.8 236.274059 
" style="fill:none;stroke:#b0b0b0;stroke-linecap:square;stroke-width:0.8;"/>
     </g>
     <g id="line2d_12">
      <g>
       <use style="stroke:#000000;stroke-width:0.8;" x="0" xlink:href="#me677e1a3d6" y="236.274059"/>
      </g>
     </g>
    </g>
    <g id="ytick_3">
     <g id="line2d_13">
      <path clip-path="url(#pf61d04c792)" d="M 0 178.788119 
L 460.8 178.788119 
" style="fill:none;stroke:#b0b0b0;stroke-linecap:square;stroke-width:0.8;"/>
     </g>
     <g id="line2d_14">
      <g>
       <use style="stroke:#000000;stroke-width:0.8;" x="0" xlink:href="#me677e1a3d6" y="178.788119"/>
      </g>
     </g>
    </g>
    <g id="ytick_4">
     <g id="line2d_15">
      <path clip-path="url(#pf61d04c792)" d="M 0 121.302178 
L 460.8 121.302178 
" style="fill:none;stroke:#b0b0b0;stroke-linecap:square;stroke-width:0.8;"/>
     </g>
     <g id="line2d_16">
      <g>
       <use style="stroke:#000000;stroke-width:0.8;" x="0" xlink:href="#me677e1a3d6" y="121.302178"/>
      </g>
     </g>
    </g>
    <g id="ytick_5">
     <g id="line2d_17">
      <path clip-path="url(#pf61d04c792)" d="M 0 63.816238 
L 460.8 63.816238 
" style="fill:none;stroke:#b0b0b0;stroke-linecap:square;stroke-width:0.8;"/>
     </g>
     <g id="line2d_18">
      <g>
       <use style="stroke:#000000;stroke-width:0.8;" x="0" xlink:href="#me677e1a3d6" y="63.816238"/>
      </g>
     </g>
    </g>
    <g id="ytick_6">
     <g id="line2d_19">
      <path clip-path="url(#pf61d04c792)" d="M 0 6.330297 
L 460.8 6.330297 
" style="fill:none;stroke:#b0b0b0;stroke-linecap:square;stroke-width:0.8;"/>
     </g>
     <g id="line2d_20">
      <g>
       <use style="stroke:#000000;stroke-width:0.8;" x="0" xlink:href="#me677e1a3d6" y="6.330297"/>
      </g>
     </g>
    </g>
   </g>
   <g id="line2d_21">
    <path clip-path="url(#pf61d04c792)" d="M 221.162779 293.76 
L 221.162779 289.927604 
L 222.7761 289.927604 
L 222.7761 286.095208 
L 223.351273 286.095208 
L 223.351273 282.262812 
L 223.784316 282.262812 
L 223.853206 274.59802 
L 224.141421 274.59802 
L 224.156579 266.933228 
L 224.672505 266.933228 
L 224.672505 263.100832 
L 225.701785 263.100832 
L 225.701785 259.268436 
L 226.257434 259.268436 
L 226.262181 247.771248 
L 226.60382 247.771248 
L 226.60382 243.938851 
L 226.877342 243.938851 
L 226.877342 240.106455 
L 227.903768 240.106455 
L 227.903768 236.274059 
L 254.499053 236.274059 
L 254.499053 232.441663 
L 255.023917 232.441663 
L 255.023917 228.609267 
L 255.681309 228.609267 
L 255.681309 224.776871 
L 256.343111 224.776871 
L 256.421203 217.112079 
L 257.165959 217.112079 
L 257.165959 213.279683 
L 257.291933 213.279683 
L 257.291933 209.447287 
L 257.457087 209.447287 
L 257.457087 205.614891 
L 257.570184 205.614891 
L 257.58488 194.117703 
L 257.883472 194.117703 
L 257.883472 190.285307 
L 257.996742 190.285307 
L 258.043342 182.620515 
L 258.152426 182.620515 
L 258.247592 174.955723 
L 258.272812 174.955723 
L 258.29513 167.290931 
L 258.464177 167.290931 
L 258.464177 163.458535 
L 258.590232 163.458535 
L 258.70079 151.961347 
L 258.844327 151.961347 
L 258.945365 140.464158 
L 259.175149 140.464158 
L 259.252867 125.134574 
L 259.35022 125.134574 
L 259.35022 121.302178 
L 269.89966 121.302178 
L 269.89966 117.469782 
L 271.63272 117.469782 
L 271.63272 113.637386 
L 271.858163 113.637386 
L 271.858163 109.80499 
L 272.065206 109.80499 
L 272.065206 105.972594 
L 272.563279 105.972594 
L 272.563279 102.140198 
L 273.025168 102.140198 
L 273.113728 94.475406 
L 273.190666 94.475406 
L 273.285382 79.145822 
L 273.464353 79.145822 
L 273.558958 71.48103 
L 274.494951 71.48103 
L 274.494951 67.648634 
L 274.837422 67.648634 
L 274.837422 63.816238 
L 294.944942 63.816238 
L 294.944942 59.983842 
L 298.768448 59.983842 
L 298.768448 56.151446 
L 303.023288 56.151446 
L 303.023288 52.31905 
L 303.175652 52.31905 
L 303.175652 48.486653 
L 304.373827 48.486653 
L 304.373827 44.654257 
L 307.286329 44.654257 
L 307.286329 40.821861 
L 307.680685 40.821861 
L 307.680685 36.989465 
L 308.263711 36.989465 
L 308.347131 29.324673 
L 310.541394 29.324673 
L 310.541394 25.492277 
L 313.397346 25.492277 
L 313.397346 21.659881 
L 314.654758 21.659881 
L 314.654758 17.827485 
L 318.898705 17.827485 
L 318.898705 13.995089 
L 319.286787 13.995089 
L 319.286787 10.162693 
L 321.737797 10.162693 
L 321.737797 6.330297 
L 321.737797 6.330297 
L 460.8 6.330297 
L 460.8 6.330297 
" style="fill:none;stroke:#ff0000;stroke-linecap:square;stroke-width:3;"/>
   </g>
   <g id="line2d_22">
    <path clip-path="url(#pf61d04c792)" d="M 228.975486 293.76 
L 228.975486 289.927604 
L 230.072767 289.927604 
L 230.072767 286.095208 
L 230.810744 286.095208 
L 230.810744 282.262812 
L 231.623068 282.262812 
L 231.623068 278.430416 
L 231.928239 278.430416 
L 231.928239 274.59802 
L 232.196827 274.59802 
L 232.196827 270.765624 
L 232.646265 270.765624 
L 232.646265 266.933228 
L 233.014022 266.933228 
L 233.014022 263.100832 
L 234.029689 263.100832 
L 234.029689 259.268436 
L 235.535944 259.268436 
L 235.535944 255.43604 
L 235.795599 255.43604 
L 235.795599 251.603644 
L 235.930068 251.603644 
L 235.930068 247.771248 
L 236.511061 247.771248 
L 236.511061 243.938851 
L 237.085134 243.938851 
L 237.085134 240.106455 
L 237.286845 240.106455 
L 237.286845 236.274059 
L 259.099405 236.274059 
L 259.150126 228.609267 
L 259.278952 228.609267 
L 259.301657 220.944475 
L 259.477186 220.944475 
L 259.584691 205.614891 
L 259.669464 205.614891 
L 259.772112 194.117703 
L 259.794812 194.117703 
L 259.871031 167.290931 
L 259.934862 167.290931 
L 260.001099 148.12895 
L 260.057824 148.12895 
L 260.09347 136.631762 
L 260.185957 136.631762 
L 260.223032 125.134574 
L 260.316532 125.134574 
L 260.316532 121.302178 
L 279.772215 121.302178 
L 279.772215 117.469782 
L 280.743296 117.469782 
L 280.743296 113.637386 
L 281.319654 113.637386 
L 281.319654 109.80499 
L 282.359731 109.80499 
L 282.359731 105.972594 
L 282.596813 105.972594 
L 282.596813 102.140198 
L 282.778481 102.140198 
L 282.778481 98.307802 
L 283.145354 98.307802 
L 283.145354 94.475406 
L 283.266529 94.475406 
L 283.336943 86.810614 
L 283.403764 86.810614 
L 283.439879 79.145822 
L 283.599259 79.145822 
L 283.599259 75.313426 
L 283.90559 75.313426 
L 283.975829 67.648634 
L 284.631883 67.648634 
L 284.631883 63.816238 
L 331.428582 63.816238 
L 331.428582 59.983842 
L 332.595046 59.983842 
L 332.595046 56.151446 
L 333.548929 56.151446 
L 333.548929 52.31905 
L 334.698411 52.31905 
L 334.698411 48.486653 
L 336.519266 48.486653 
L 336.519266 44.654257 
L 336.73819 44.654257 
L 336.73819 40.821861 
L 337.242764 40.821861 
L 337.242764 36.989465 
L 337.782169 36.989465 
L 337.782169 33.157069 
L 338.018513 33.157069 
L 338.018513 29.324673 
L 338.357101 29.324673 
L 338.357101 25.492277 
L 338.504145 25.492277 
L 338.504145 21.659881 
L 340.906922 21.659881 
L 340.906922 17.827485 
L 342.525796 17.827485 
L 342.525796 13.995089 
L 343.04691 13.995089 
L 343.04691 10.162693 
L 344.513128 10.162693 
L 344.513128 6.330297 
L 344.513128 6.330297 
L 460.8 6.330297 
L 460.8 6.330297 
" style="fill:none;stroke:#00bfbf;stroke-linecap:square;stroke-width:1.5;"/>
   </g>
   <g id="line2d_23">
    <path clip-path="url(#pf61d04c792)" d="M 228.220961 293.76 
L 228.220961 289.927604 
L 228.594694 289.927604 
L 228.594694 286.095208 
L 228.865491 286.095208 
L 228.975486 278.430416 
L 229.718551 278.430416 
L 229.718551 274.59802 
L 229.916815 274.59802 
L 229.916815 270.765624 
L 230.072767 270.765624 
L 230.072767 266.933228 
L 230.810744 266.933228 
L 230.810744 263.100832 
L 231.185364 263.100832 
L 231.29119 255.43604 
L 231.623068 255.43604 
L 231.623068 251.603644 
L 231.928239 251.603644 
L 231.928239 247.771248 
L 232.101454 247.771248 
L 232.138193 240.106455 
L 234.850232 240.106455 
L 234.850232 236.274059 
L 258.442336 236.274059 
L 258.442336 232.441663 
L 258.942206 232.441663 
L 259.030693 224.776871 
L 259.099405 224.776871 
L 259.150126 217.112079 
L 259.245048 217.112079 
L 259.354751 205.614891 
L 259.3885 205.614891 
L 259.484362 197.950099 
L 259.523841 197.950099 
L 259.622291 178.788119 
L 259.662594 178.788119 
L 259.662594 174.955723 
L 259.830232 174.955723 
L 259.918943 151.961347 
L 259.964979 151.961347 
L 260.057824 132.799366 
L 260.185957 132.799366 
L 260.232499 121.302178 
L 279.772215 121.302178 
L 279.772215 117.469782 
L 280.743296 117.469782 
L 280.752928 109.80499 
L 281.062106 109.80499 
L 281.136003 102.140198 
L 281.319654 102.140198 
L 281.319654 98.307802 
L 281.613759 98.307802 
L 281.613759 94.475406 
L 282.352964 94.475406 
L 282.417262 82.978218 
L 282.546263 82.978218 
L 282.546263 79.145822 
L 283.266529 79.145822 
L 283.372109 71.48103 
L 283.401408 71.48103 
L 283.483661 63.816238 
L 325.114488 63.816238 
L 325.114488 59.983842 
L 327.950475 59.983842 
L 327.950475 56.151446 
L 329.787662 56.151446 
L 329.787662 52.31905 
L 331.847044 52.31905 
L 331.847044 48.486653 
L 333.548929 48.486653 
L 333.548929 44.654257 
L 334.698411 44.654257 
L 334.698411 40.821861 
L 334.890147 40.821861 
L 334.890147 36.989465 
L 335.73745 36.989465 
L 335.73745 33.157069 
L 336.170828 33.157069 
L 336.170828 29.324673 
L 336.30981 29.324673 
L 336.30981 25.492277 
L 336.519266 25.492277 
L 336.519266 21.659881 
L 336.73819 21.659881 
L 336.73819 17.827485 
L 338.018513 17.827485 
L 338.018513 13.995089 
L 338.357101 13.995089 
L 338.357101 10.162693 
L 338.630708 10.162693 
L 338.630708 6.330297 
L 338.630708 6.330297 
L 460.8 6.330297 
L 460.8 6.330297 
" style="fill:none;stroke:#bf00bf;stroke-linecap:square;stroke-width:1.5;"/>
   </g>
   <g id="line2d_24">
    <path clip-path="url(#pf61d04c792)" d="M 226.426414 293.76 
L 226.426414 289.927604 
L 227.049317 289.927604 
L 227.156826 282.262812 
L 228.220961 282.262812 
L 228.220961 278.430416 
L 228.594694 278.430416 
L 228.678256 270.765624 
L 228.865491 270.765624 
L 228.865491 266.933228 
L 229.006749 266.933228 
L 229.006749 263.100832 
L 229.718551 263.100832 
L 229.718551 259.268436 
L 229.867494 259.268436 
L 229.867494 255.43604 
L 230.072767 255.43604 
L 230.072767 251.603644 
L 230.223819 251.603644 
L 230.223819 247.771248 
L 230.986 247.771248 
L 230.986 243.938851 
L 231.174833 243.938851 
L 231.174833 240.106455 
L 233.032426 240.106455 
L 233.032426 236.274059 
L 257.821878 236.274059 
L 257.875302 228.609267 
L 258.025759 228.609267 
L 258.025759 224.776871 
L 258.14651 224.776871 
L 258.14651 220.944475 
L 258.442336 220.944475 
L 258.54377 213.279683 
L 258.623975 213.279683 
L 258.716894 201.782495 
L 258.820111 201.782495 
L 258.92017 194.117703 
L 258.932241 194.117703 
L 258.932241 190.285307 
L 259.070133 190.285307 
L 259.150126 178.788119 
L 259.222235 178.788119 
L 259.303126 163.458535 
L 259.35022 163.458535 
L 259.454555 148.12895 
L 259.535363 148.12895 
L 259.535363 144.296554 
L 259.663253 144.296554 
L 259.689029 132.799366 
L 259.85334 132.799366 
L 259.954893 121.302178 
L 274.926395 121.302178 
L 274.926395 117.469782 
L 276.527933 117.469782 
L 276.527933 113.637386 
L 277.583541 113.637386 
L 277.583541 109.80499 
L 277.699564 109.80499 
L 277.699564 105.972594 
L 277.904085 105.972594 
L 277.904085 102.140198 
L 278.570832 102.140198 
L 278.570832 98.307802 
L 278.717637 98.307802 
L 278.717637 94.475406 
L 279.073199 94.475406 
L 279.073199 90.64301 
L 279.266715 90.64301 
L 279.291007 82.978218 
L 280.037978 82.978218 
L 280.135054 75.313426 
L 280.195481 75.313426 
L 280.195481 71.48103 
L 280.445149 71.48103 
L 280.445149 67.648634 
L 281.577276 67.648634 
L 281.577276 63.816238 
L 313.782415 63.816238 
L 313.782415 59.983842 
L 314.378387 59.983842 
L 314.378387 56.151446 
L 315.695293 56.151446 
L 315.695293 52.31905 
L 316.775786 52.31905 
L 316.775786 48.486653 
L 321.161036 48.486653 
L 321.161036 44.654257 
L 322.890248 44.654257 
L 322.890248 40.821861 
L 325.973604 40.821861 
L 325.973604 36.989465 
L 326.628877 36.989465 
L 326.628877 33.157069 
L 327.950475 33.157069 
L 327.950475 29.324673 
L 328.986427 29.324673 
L 328.986427 25.492277 
L 329.366842 25.492277 
L 329.366842 21.659881 
L 329.787662 21.659881 
L 329.787662 17.827485 
L 331.78062 17.827485 
L 331.78062 13.995089 
L 334.520779 13.995089 
L 334.520779 10.162693 
L 334.698411 10.162693 
L 334.698411 6.330297 
L 334.698411 6.330297 
L 460.8 6.330297 
L 460.8 6.330297 
" style="fill:none;stroke:#000000;stroke-linecap:square;stroke-width:1.5;"/>
   </g>
   <g id="line2d_25">
    <path clip-path="url(#pf61d04c792)" d="M 224.141421 293.76 
L 224.141421 289.927604 
L 226.426414 289.927604 
L 226.426414 286.095208 
L 227.049317 286.095208 
L 227.156826 278.430416 
L 227.903768 278.430416 
L 227.903768 274.59802 
L 228.594694 274.59802 
L 228.678256 266.933228 
L 228.865491 266.933228 
L 228.865491 263.100832 
L 229.006749 263.100832 
L 229.006749 259.268436 
L 229.718551 259.268436 
L 229.718551 255.43604 
L 229.867494 255.43604 
L 229.867494 251.603644 
L 230.072767 251.603644 
L 230.072767 247.771248 
L 230.223819 247.771248 
L 230.223819 243.938851 
L 230.986 243.938851 
L 230.986 240.106455 
L 231.174833 240.106455 
L 231.174833 236.274059 
L 255.745924 236.274059 
L 255.745924 232.441663 
L 257.626627 232.441663 
L 257.626627 228.609267 
L 257.821878 228.609267 
L 257.821878 224.776871 
L 257.994073 224.776871 
L 258.025759 217.112079 
L 258.14651 217.112079 
L 258.179025 209.447287 
L 258.272812 209.447287 
L 258.353521 201.782495 
L 258.442336 201.782495 
L 258.54028 194.117703 
L 258.56704 194.117703 
L 258.640611 178.788119 
L 258.698797 178.788119 
L 258.766803 167.290931 
L 258.930435 167.290931 
L 259.017689 155.793743 
L 259.089399 155.793743 
L 259.158923 140.464158 
L 259.35022 140.464158 
L 259.35022 136.631762 
L 259.523305 136.631762 
L 259.535363 128.96697 
L 259.66837 128.96697 
L 259.765539 121.302178 
L 271.858163 121.302178 
L 271.858163 117.469782 
L 273.285382 117.469782 
L 273.285382 113.637386 
L 273.464353 113.637386 
L 273.464353 109.80499 
L 275.349657 109.80499 
L 275.349657 105.972594 
L 276.333966 105.972594 
L 276.333966 102.140198 
L 276.497665 102.140198 
L 276.497665 98.307802 
L 276.774849 98.307802 
L 276.774849 94.475406 
L 277.426709 94.475406 
L 277.493842 79.145822 
L 277.628136 79.145822 
L 277.736503 71.48103 
L 277.809387 71.48103 
L 277.809387 67.648634 
L 277.92603 67.648634 
L 277.92603 63.816238 
L 309.168347 63.816238 
L 309.168347 59.983842 
L 310.400869 59.983842 
L 310.400869 56.151446 
L 310.541394 56.151446 
L 310.541394 52.31905 
L 311.817614 52.31905 
L 311.817614 48.486653 
L 313.730336 48.486653 
L 313.730336 44.654257 
L 316.962981 44.654257 
L 316.962981 40.821861 
L 318.163195 40.821861 
L 318.163195 36.989465 
L 318.496411 36.989465 
L 318.496411 33.157069 
L 319.036671 33.157069 
L 319.036671 29.324673 
L 319.286787 29.324673 
L 319.286787 25.492277 
L 321.184789 25.492277 
L 321.184789 21.659881 
L 321.822634 21.659881 
L 321.822634 17.827485 
L 321.993048 17.827485 
L 321.993048 13.995089 
L 324.752526 13.995089 
L 324.752526 10.162693 
L 329.366842 10.162693 
L 329.366842 6.330297 
L 329.366842 6.330297 
L 460.8 6.330297 
L 460.8 6.330297 
" style="fill:none;stroke:#00bfbf;stroke-linecap:square;stroke-width:1.5;"/>
   </g>
   <g id="line2d_26">
    <path clip-path="url(#pf61d04c792)" d="M 221.162779 293.76 
L 221.162779 289.927604 
L 222.7761 289.927604 
L 222.7761 286.095208 
L 223.351273 286.095208 
L 223.351273 282.262812 
L 223.784316 282.262812 
L 223.853206 274.59802 
L 224.141421 274.59802 
L 224.156579 266.933228 
L 224.672505 266.933228 
L 224.672505 263.100832 
L 225.701785 263.100832 
L 225.701785 259.268436 
L 226.257434 259.268436 
L 226.262181 247.771248 
L 226.60382 247.771248 
L 226.60382 243.938851 
L 226.877342 243.938851 
L 226.877342 240.106455 
L 227.903768 240.106455 
L 227.903768 236.274059 
L 254.499053 236.274059 
L 254.499053 232.441663 
L 255.023917 232.441663 
L 255.023917 228.609267 
L 255.681309 228.609267 
L 255.681309 224.776871 
L 256.343111 224.776871 
L 256.421203 217.112079 
L 257.165959 217.112079 
L 257.165959 213.279683 
L 257.291933 213.279683 
L 257.291933 209.447287 
L 257.457087 209.447287 
L 257.457087 205.614891 
L 257.570184 205.614891 
L 257.58488 194.117703 
L 257.883472 194.117703 
L 257.883472 190.285307 
L 257.996742 190.285307 
L 258.043342 182.620515 
L 258.152426 182.620515 
L 258.247592 174.955723 
L 258.272812 174.955723 
L 258.29513 167.290931 
L 258.464177 167.290931 
L 258.464177 163.458535 
L 258.590232 163.458535 
L 258.70079 151.961347 
L 258.844327 151.961347 
L 258.945365 140.464158 
L 259.175149 140.464158 
L 259.252867 125.134574 
L 259.35022 125.134574 
L 259.35022 121.302178 
L 269.89966 121.302178 
L 269.89966 117.469782 
L 271.63272 117.469782 
L 271.63272 113.637386 
L 271.858163 113.637386 
L 271.858163 109.80499 
L 272.065206 109.80499 
L 272.065206 105.972594 
L 272.563279 105.972594 
L 272.563279 102.140198 
L 273.025168 102.140198 
L 273.113728 94.475406 
L 273.190666 94.475406 
L 273.285382 79.145822 
L 273.464353 79.145822 
L 273.558958 71.48103 
L 274.494951 71.48103 
L 274.494951 67.648634 
L 274.837422 67.648634 
L 274.837422 63.816238 
L 294.944942 63.816238 
L 294.944942 59.983842 
L 298.768448 59.983842 
L 298.768448 56.151446 
L 303.023288 56.151446 
L 303.023288 52.31905 
L 303.175652 52.31905 
L 303.175652 48.486653 
L 304.373827 48.486653 
L 304.373827 44.654257 
L 307.286329 44.654257 
L 307.286329 40.821861 
L 307.680685 40.821861 
L 307.680685 36.989465 
L 308.263711 36.989465 
L 308.347131 29.324673 
L 310.541394 29.324673 
L 310.541394 25.492277 
L 313.397346 25.492277 
L 313.397346 21.659881 
L 314.654758 21.659881 
L 314.654758 17.827485 
L 318.898705 17.827485 
L 318.898705 13.995089 
L 319.286787 13.995089 
L 319.286787 10.162693 
L 321.737797 10.162693 
L 321.737797 6.330297 
L 321.737797 6.330297 
L 460.8 6.330297 
L 460.8 6.330297 
" style="fill:none;stroke:#bf00bf;stroke-linecap:square;stroke-width:1.5;"/>
   </g>
   <g id="patch_3">
    <path d="M 0 293.76 
L 0 3.456 
" style="fill:none;stroke:#000000;stroke-linecap:square;stroke-linejoin:miter;stroke-width:0.8;"/>
   </g>
   <g id="patch_4">
    <path d="M 460.8 293.76 
L 460.8 3.456 
" style="fill:none;stroke:#000000;stroke-linecap:square;stroke-linejoin:miter;stroke-width:0.8;"/>
   </g>
   <g id="patch_5">
    <path d="M -0 293.76 
L 460.8 293.76 
" style="fill:none;stroke:#000000;stroke-linecap:square;stroke-linejoin:miter;stroke-width:0.8;"/>
   </g>
   <g id="patch_6">
    <path d="M -0 3.456 
L 460.8 3.456 
" style="fill:none;stroke:#000000;stroke-linecap:square;stroke-linejoin:miter;stroke-width:0.8;"/>
   </g>
   <g id="text_6">
    <!-- {f20-f24}, 20-D -->
    <defs>
     <path d="M 51.125 -9.28125 
L 51.125 -16.3125 
L 48.09375 -16.3125 
Q 35.9375 -16.3125 31.8125 -12.6875 
Q 27.6875 -9.078125 27.6875 1.703125 
L 27.6875 13.375 
Q 27.6875 20.75 25.046875 23.578125 
Q 22.40625 26.421875 15.484375 26.421875 
L 12.5 26.421875 
L 12.5 33.40625 
L 15.484375 33.40625 
Q 22.46875 33.40625 25.078125 36.203125 
Q 27.6875 39.015625 27.6875 46.296875 
L 27.6875 58.015625 
Q 27.6875 68.796875 31.8125 72.390625 
Q 35.9375 75.984375 48.09375 75.984375 
L 51.125 75.984375 
L 51.125 69 
L 47.796875 69 
Q 40.921875 69 38.8125 66.84375 
Q 36.71875 64.703125 36.71875 57.8125 
L 36.71875 45.703125 
Q 36.71875 38.03125 34.5 34.5625 
Q 32.28125 31.109375 26.90625 29.890625 
Q 32.328125 28.5625 34.515625 25.09375 
Q 36.71875 21.625 36.71875 14.015625 
L 36.71875 1.90625 
Q 36.71875 -4.984375 38.8125 -7.125 
Q 40.921875 -9.28125 47.796875 -9.28125 
z
" id="DejaVuSans-123"/>
     <path d="M 19.1875 8.296875 
L 53.609375 8.296875 
L 53.609375 0 
L 7.328125 0 
L 7.328125 8.296875 
Q 12.9375 14.109375 22.625 23.890625 
Q 32.328125 33.6875 34.8125 36.53125 
Q 39.546875 41.84375 41.421875 45.53125 
Q 43.3125 49.21875 43.3125 52.78125 
Q 43.3125 58.59375 39.234375 62.25 
Q 35.15625 65.921875 28.609375 65.921875 
Q 23.96875 65.921875 18.8125 64.3125 
Q 13.671875 62.703125 7.8125 59.421875 
L 7.8125 69.390625 
Q 13.765625 71.78125 18.9375 73 
Q 24.125 74.21875 28.421875 74.21875 
Q 39.75 74.21875 46.484375 68.546875 
Q 53.21875 62.890625 53.21875 53.421875 
Q 53.21875 48.921875 51.53125 44.890625 
Q 49.859375 40.875 45.40625 35.40625 
Q 44.1875 33.984375 37.640625 27.21875 
Q 31.109375 20.453125 19.1875 8.296875 
z
" id="DejaVuSans-50"/>
     <path d="M 12.5 -9.28125 
L 15.921875 -9.28125 
Q 22.75 -9.28125 24.828125 -7.171875 
Q 26.90625 -5.078125 26.90625 1.90625 
L 26.90625 14.015625 
Q 26.90625 21.625 29.09375 25.09375 
Q 31.296875 28.5625 36.71875 29.890625 
Q 31.296875 31.109375 29.09375 34.5625 
Q 26.90625 38.03125 26.90625 45.703125 
L 26.90625 57.8125 
Q 26.90625 64.75 24.828125 66.875 
Q 22.75 69 15.921875 69 
L 12.5 69 
L 12.5 75.984375 
L 15.578125 75.984375 
Q 27.734375 75.984375 31.8125 72.390625 
Q 35.890625 68.796875 35.890625 58.015625 
L 35.890625 46.296875 
Q 35.890625 39.015625 38.515625 36.203125 
Q 41.15625 33.40625 48.09375 33.40625 
L 51.125 33.40625 
L 51.125 26.421875 
L 48.09375 26.421875 
Q 41.15625 26.421875 38.515625 23.578125 
Q 35.890625 20.75 35.890625 13.375 
L 35.890625 1.703125 
Q 35.890625 -9.078125 31.8125 -12.6875 
Q 27.734375 -16.3125 15.578125 -16.3125 
L 12.5 -16.3125 
z
" id="DejaVuSans-125"/>
     <path d="M 11.71875 12.40625 
L 22.015625 12.40625 
L 22.015625 4 
L 14.015625 -11.625 
L 7.71875 -11.625 
L 11.71875 4 
z
" id="DejaVuSans-44"/>
    </defs>
    <g transform="translate(293.159 287.95392)scale(0.2 -0.2)">
     <use xlink:href="#DejaVuSans-123"/>
     <use x="63.623047" xlink:href="#DejaVuSans-102"/>
     <use x="98.828125" xlink:href="#DejaVuSans-50"/>
     <use x="162.451172" xlink:href="#DejaVuSans-48"/>
     <use x="226.074219" xlink:href="#DejaVuSans-45"/>
     <use x="262.158203" xlink:href="#DejaVuSans-102"/>
     <use x="297.363281" xlink:href="#DejaVuSans-50"/>
     <use x="360.986328" xlink:href="#DejaVuSans-52"/>
     <use x="424.609375" xlink:href="#DejaVuSans-125"/>
     <use x="488.232422" xlink:href="#DejaVuSans-44"/>
     <use x="520.019531" xlink:href="#DejaVuSans-32"/>
     <use x="551.806641" xlink:href="#DejaVuSans-50"/>
     <use x="615.429688" xlink:href="#DejaVuSans-48"/>
     <use x="679.052734" xlink:href="#DejaVuSans-45"/>
     <use x="715.136719" xlink:href="#DejaVuSans-68"/>
    </g>
   </g>
   <g id="text_7">
    <!-- v2.4 -->
    <defs>
     <path d="M 2.984375 54.6875 
L 12.5 54.6875 
L 29.59375 8.796875 
L 46.6875 54.6875 
L 56.203125 54.6875 
L 35.6875 0 
L 23.484375 0 
z
" id="DejaVuSans-118"/>
     <path d="M 10.6875 12.40625 
L 21 12.40625 
L 21 0 
L 10.6875 0 
z
" id="DejaVuSans-46"/>
    </defs>
    <g style="fill:#808080;" transform="translate(219.489063 288.777272)scale(0.1 -0.1)">
     <use xlink:href="#DejaVuSans-118"/>
     <use x="59.179688" xlink:href="#DejaVuSans-50"/>
     <use x="122.802734" xlink:href="#DejaVuSans-46"/>
     <use x="154.589844" xlink:href="#DejaVuSans-52"/>
    </g>
   </g>
  </g>
 </g>
 <defs>
  <clipPath id="pf61d04c792">
   <rect height="290.304" width="460.8" x="0" y="3.456"/>
  </clipPath>
 </defs>
</svg>
