<?xml version="1.0" encoding="utf-8" standalone="no"?>
<!DOCTYPE svg PUBLIC "-//W3C//DTD SVG 1.1//EN"
  "http://www.w3.org/Graphics/SVG/1.1/DTD/svg11.dtd">
<!-- Created with matplotlib (https://matplotlib.org/) -->
<svg height="345.6pt" version="1.1" viewBox="0 0 460.8 345.6" width="460.8pt" xmlns="http://www.w3.org/2000/svg" xmlns:xlink="http://www.w3.org/1999/xlink">
 <defs>
  <style type="text/css">
*{stroke-linecap:butt;stroke-linejoin:round;}
  </style>
 </defs>
 <g id="figure_1">
  <g id="patch_1">
   <path d="M 0 345.6 
L 460.8 345.6 
L 460.8 0 
L 0 0 
z
" style="fill:#ffffff;"/>
  </g>
  <g id="axes_1">
   <g id="patch_2">
    <path d="M 0 293.76 
L 460.8 293.76 
L 460.8 3.456 
L 0 3.456 
z
" style="fill:#ffffff;"/>
   </g>
   <g id="matplotlib.axis_1">
    <g id="xtick_1">
     <g id="line2d_1">
      <path clip-path="url(#pb0d7888b44)" d="M 104.741413 293.76 
L 104.741413 3.456 
" style="fill:none;stroke:#b0b0b0;stroke-linecap:square;stroke-width:0.8;"/>
     </g>
     <g id="line2d_2">
      <defs>
       <path d="M 0 0 
L 0 3.5 
" id="m1a349803b7" style="stroke:#000000;stroke-width:0.8;"/>
      </defs>
      <g>
       <use style="stroke:#000000;stroke-width:0.8;" x="104.741413" xlink:href="#m1a349803b7" y="293.76"/>
      </g>
     </g>
     <g id="text_1">
      <!-- -4 -->
      <defs>
       <path d="M 4.890625 31.390625 
L 31.203125 31.390625 
L 31.203125 23.390625 
L 4.890625 23.390625 
z
" id="DejaVuSans-45"/>
       <path d="M 37.796875 64.3125 
L 12.890625 25.390625 
L 37.796875 25.390625 
z
M 35.203125 72.90625 
L 47.609375 72.90625 
L 47.609375 25.390625 
L 58.015625 25.390625 
L 58.015625 17.1875 
L 47.609375 17.1875 
L 47.609375 0 
L 37.796875 0 
L 37.796875 17.1875 
L 4.890625 17.1875 
L 4.890625 26.703125 
z
" id="DejaVuSans-52"/>
      </defs>
      <g transform="translate(94.7711 315.956875)scale(0.2 -0.2)">
       <use xlink:href="#DejaVuSans-45"/>
       <use x="36.083984" xlink:href="#DejaVuSans-52"/>
      </g>
     </g>
    </g>
    <g id="xtick_2">
     <g id="line2d_3">
      <path clip-path="url(#pb0d7888b44)" d="M 209.596104 293.76 
L 209.596104 3.456 
" style="fill:none;stroke:#b0b0b0;stroke-linecap:square;stroke-width:0.8;"/>
     </g>
     <g id="line2d_4">
      <g>
       <use style="stroke:#000000;stroke-width:0.8;" x="209.596104" xlink:href="#m1a349803b7" y="293.76"/>
      </g>
     </g>
     <g id="text_2">
      <!-- 0 -->
      <defs>
       <path d="M 31.78125 66.40625 
Q 24.171875 66.40625 20.328125 58.90625 
Q 16.5 51.421875 16.5 36.375 
Q 16.5 21.390625 20.328125 13.890625 
Q 24.171875 6.390625 31.78125 6.390625 
Q 39.453125 6.390625 43.28125 13.890625 
Q 47.125 21.390625 47.125 36.375 
Q 47.125 51.421875 43.28125 58.90625 
Q 39.453125 66.40625 31.78125 66.40625 
z
M 31.78125 74.21875 
Q 44.046875 74.21875 50.515625 64.515625 
Q 56.984375 54.828125 56.984375 36.375 
Q 56.984375 17.96875 50.515625 8.265625 
Q 44.046875 -1.421875 31.78125 -1.421875 
Q 19.53125 -1.421875 13.0625 8.265625 
Q 6.59375 17.96875 6.59375 36.375 
Q 6.59375 54.828125 13.0625 64.515625 
Q 19.53125 74.21875 31.78125 74.21875 
z
" id="DejaVuSans-48"/>
      </defs>
      <g transform="translate(203.233604 315.956875)scale(0.2 -0.2)">
       <use xlink:href="#DejaVuSans-48"/>
      </g>
     </g>
    </g>
    <g id="xtick_3">
     <g id="line2d_5">
      <path clip-path="url(#pb0d7888b44)" d="M 314.450796 293.76 
L 314.450796 3.456 
" style="fill:none;stroke:#b0b0b0;stroke-linecap:square;stroke-width:0.8;"/>
     </g>
     <g id="line2d_6">
      <g>
       <use style="stroke:#000000;stroke-width:0.8;" x="314.450796" xlink:href="#m1a349803b7" y="293.76"/>
      </g>
     </g>
     <g id="text_3">
      <!-- 4 -->
      <g transform="translate(308.088296 315.956875)scale(0.2 -0.2)">
       <use xlink:href="#DejaVuSans-52"/>
      </g>
     </g>
    </g>
    <g id="xtick_4">
     <g id="line2d_7">
      <path clip-path="url(#pb0d7888b44)" d="M 419.305487 293.76 
L 419.305487 3.456 
" style="fill:none;stroke:#b0b0b0;stroke-linecap:square;stroke-width:0.8;"/>
     </g>
     <g id="line2d_8">
      <g>
       <use style="stroke:#000000;stroke-width:0.8;" x="419.305487" xlink:href="#m1a349803b7" y="293.76"/>
      </g>
     </g>
     <g id="text_4">
      <!-- 8 -->
      <defs>
       <path d="M 31.78125 34.625 
Q 24.75 34.625 20.71875 30.859375 
Q 16.703125 27.09375 16.703125 20.515625 
Q 16.703125 13.921875 20.71875 10.15625 
Q 24.75 6.390625 31.78125 6.390625 
Q 38.8125 6.390625 42.859375 10.171875 
Q 46.921875 13.96875 46.921875 20.515625 
Q 46.921875 27.09375 42.890625 30.859375 
Q 38.875 34.625 31.78125 34.625 
z
M 21.921875 38.8125 
Q 15.578125 40.375 12.03125 44.71875 
Q 8.5 49.078125 8.5 55.328125 
Q 8.5 64.0625 14.71875 69.140625 
Q 20.953125 74.21875 31.78125 74.21875 
Q 42.671875 74.21875 48.875 69.140625 
Q 55.078125 64.0625 55.078125 55.328125 
Q 55.078125 49.078125 51.53125 44.71875 
Q 48 40.375 41.703125 38.8125 
Q 48.828125 37.15625 52.796875 32.3125 
Q 56.78125 27.484375 56.78125 20.515625 
Q 56.78125 9.90625 50.3125 4.234375 
Q 43.84375 -1.421875 31.78125 -1.421875 
Q 19.734375 -1.421875 13.25 4.234375 
Q 6.78125 9.90625 6.78125 20.515625 
Q 6.78125 27.484375 10.78125 32.3125 
Q 14.796875 37.15625 21.921875 38.8125 
z
M 18.3125 54.390625 
Q 18.3125 48.734375 21.84375 45.5625 
Q 25.390625 42.390625 31.78125 42.390625 
Q 38.140625 42.390625 41.71875 45.5625 
Q 45.3125 48.734375 45.3125 54.390625 
Q 45.3125 60.0625 41.71875 63.234375 
Q 38.140625 66.40625 31.78125 66.40625 
Q 25.390625 66.40625 21.84375 63.234375 
Q 18.3125 60.0625 18.3125 54.390625 
z
" id="DejaVuSans-56"/>
      </defs>
      <g transform="translate(412.942987 315.956875)scale(0.2 -0.2)">
       <use xlink:href="#DejaVuSans-56"/>
      </g>
     </g>
    </g>
    <g id="text_5">
     <!-- log10 of Df -->
     <defs>
      <path d="M 9.421875 75.984375 
L 18.40625 75.984375 
L 18.40625 0 
L 9.421875 0 
z
" id="DejaVuSans-108"/>
      <path d="M 30.609375 48.390625 
Q 23.390625 48.390625 19.1875 42.75 
Q 14.984375 37.109375 14.984375 27.296875 
Q 14.984375 17.484375 19.15625 11.84375 
Q 23.34375 6.203125 30.609375 6.203125 
Q 37.796875 6.203125 41.984375 11.859375 
Q 46.1875 17.53125 46.1875 27.296875 
Q 46.1875 37.015625 41.984375 42.703125 
Q 37.796875 48.390625 30.609375 48.390625 
z
M 30.609375 56 
Q 42.328125 56 49.015625 48.375 
Q 55.71875 40.765625 55.71875 27.296875 
Q 55.71875 13.875 49.015625 6.21875 
Q 42.328125 -1.421875 30.609375 -1.421875 
Q 18.84375 -1.421875 12.171875 6.21875 
Q 5.515625 13.875 5.515625 27.296875 
Q 5.515625 40.765625 12.171875 48.375 
Q 18.84375 56 30.609375 56 
z
" id="DejaVuSans-111"/>
      <path d="M 45.40625 27.984375 
Q 45.40625 37.75 41.375 43.109375 
Q 37.359375 48.484375 30.078125 48.484375 
Q 22.859375 48.484375 18.828125 43.109375 
Q 14.796875 37.75 14.796875 27.984375 
Q 14.796875 18.265625 18.828125 12.890625 
Q 22.859375 7.515625 30.078125 7.515625 
Q 37.359375 7.515625 41.375 12.890625 
Q 45.40625 18.265625 45.40625 27.984375 
z
M 54.390625 6.78125 
Q 54.390625 -7.171875 48.1875 -13.984375 
Q 42 -20.796875 29.203125 -20.796875 
Q 24.46875 -20.796875 20.265625 -20.09375 
Q 16.0625 -19.390625 12.109375 -17.921875 
L 12.109375 -9.1875 
Q 16.0625 -11.328125 19.921875 -12.34375 
Q 23.78125 -13.375 27.78125 -13.375 
Q 36.625 -13.375 41.015625 -8.765625 
Q 45.40625 -4.15625 45.40625 5.171875 
L 45.40625 9.625 
Q 42.625 4.78125 38.28125 2.390625 
Q 33.9375 0 27.875 0 
Q 17.828125 0 11.671875 7.65625 
Q 5.515625 15.328125 5.515625 27.984375 
Q 5.515625 40.671875 11.671875 48.328125 
Q 17.828125 56 27.875 56 
Q 33.9375 56 38.28125 53.609375 
Q 42.625 51.21875 45.40625 46.390625 
L 45.40625 54.6875 
L 54.390625 54.6875 
z
" id="DejaVuSans-103"/>
      <path d="M 12.40625 8.296875 
L 28.515625 8.296875 
L 28.515625 63.921875 
L 10.984375 60.40625 
L 10.984375 69.390625 
L 28.421875 72.90625 
L 38.28125 72.90625 
L 38.28125 8.296875 
L 54.390625 8.296875 
L 54.390625 0 
L 12.40625 0 
z
" id="DejaVuSans-49"/>
      <path id="DejaVuSans-32"/>
      <path d="M 37.109375 75.984375 
L 37.109375 68.5 
L 28.515625 68.5 
Q 23.6875 68.5 21.796875 66.546875 
Q 19.921875 64.59375 19.921875 59.515625 
L 19.921875 54.6875 
L 34.71875 54.6875 
L 34.71875 47.703125 
L 19.921875 47.703125 
L 19.921875 0 
L 10.890625 0 
L 10.890625 47.703125 
L 2.296875 47.703125 
L 2.296875 54.6875 
L 10.890625 54.6875 
L 10.890625 58.5 
Q 10.890625 67.625 15.140625 71.796875 
Q 19.390625 75.984375 28.609375 75.984375 
z
" id="DejaVuSans-102"/>
      <path d="M 19.671875 64.796875 
L 19.671875 8.109375 
L 31.59375 8.109375 
Q 46.6875 8.109375 53.6875 14.9375 
Q 60.6875 21.78125 60.6875 36.53125 
Q 60.6875 51.171875 53.6875 57.984375 
Q 46.6875 64.796875 31.59375 64.796875 
z
M 9.8125 72.90625 
L 30.078125 72.90625 
Q 51.265625 72.90625 61.171875 64.09375 
Q 71.09375 55.28125 71.09375 36.53125 
Q 71.09375 17.671875 61.125 8.828125 
Q 51.171875 0 30.078125 0 
L 9.8125 0 
z
" id="DejaVuSans-68"/>
     </defs>
     <g transform="translate(175.214063 339.313125)scale(0.2 -0.2)">
      <use xlink:href="#DejaVuSans-108"/>
      <use x="27.783203" xlink:href="#DejaVuSans-111"/>
      <use x="88.964844" xlink:href="#DejaVuSans-103"/>
      <use x="152.441406" xlink:href="#DejaVuSans-49"/>
      <use x="216.064453" xlink:href="#DejaVuSans-48"/>
      <use x="279.6875" xlink:href="#DejaVuSans-32"/>
      <use x="311.474609" xlink:href="#DejaVuSans-111"/>
      <use x="372.65625" xlink:href="#DejaVuSans-102"/>
      <use x="407.861328" xlink:href="#DejaVuSans-32"/>
      <use x="439.648438" xlink:href="#DejaVuSans-68"/>
      <use x="516.650391" xlink:href="#DejaVuSans-102"/>
     </g>
    </g>
   </g>
   <g id="matplotlib.axis_2">
    <g id="ytick_1">
     <g id="line2d_9">
      <path clip-path="url(#pb0d7888b44)" d="M 0 293.76 
L 460.8 293.76 
" style="fill:none;stroke:#b0b0b0;stroke-linecap:square;stroke-width:0.8;"/>
     </g>
     <g id="line2d_10">
      <defs>
       <path d="M 0 0 
L -3.5 0 
" id="m324bbfa9e7" style="stroke:#000000;stroke-width:0.8;"/>
      </defs>
      <g>
       <use style="stroke:#000000;stroke-width:0.8;" x="0" xlink:href="#m324bbfa9e7" y="293.76"/>
      </g>
     </g>
    </g>
    <g id="ytick_2">
     <g id="line2d_11">
      <path clip-path="url(#pb0d7888b44)" d="M 0 236.274059 
L 460.8 236.274059 
" style="fill:none;stroke:#b0b0b0;stroke-linecap:square;stroke-width:0.8;"/>
     </g>
     <g id="line2d_12">
      <g>
       <use style="stroke:#000000;stroke-width:0.8;" x="0" xlink:href="#m324bbfa9e7" y="236.274059"/>
      </g>
     </g>
    </g>
    <g id="ytick_3">
     <g id="line2d_13">
      <path clip-path="url(#pb0d7888b44)" d="M 0 178.788119 
L 460.8 178.788119 
" style="fill:none;stroke:#b0b0b0;stroke-linecap:square;stroke-width:0.8;"/>
     </g>
     <g id="line2d_14">
      <g>
       <use style="stroke:#000000;stroke-width:0.8;" x="0" xlink:href="#m324bbfa9e7" y="178.788119"/>
      </g>
     </g>
    </g>
    <g id="ytick_4">
     <g id="line2d_15">
      <path clip-path="url(#pb0d7888b44)" d="M 0 121.302178 
L 460.8 121.302178 
" style="fill:none;stroke:#b0b0b0;stroke-linecap:square;stroke-width:0.8;"/>
     </g>
     <g id="line2d_16">
      <g>
       <use style="stroke:#000000;stroke-width:0.8;" x="0" xlink:href="#m324bbfa9e7" y="121.302178"/>
      </g>
     </g>
    </g>
    <g id="ytick_5">
     <g id="line2d_17">
      <path clip-path="url(#pb0d7888b44)" d="M 0 63.816238 
L 460.8 63.816238 
" style="fill:none;stroke:#b0b0b0;stroke-linecap:square;stroke-width:0.8;"/>
     </g>
     <g id="line2d_18">
      <g>
       <use style="stroke:#000000;stroke-width:0.8;" x="0" xlink:href="#m324bbfa9e7" y="63.816238"/>
      </g>
     </g>
    </g>
    <g id="ytick_6">
     <g id="line2d_19">
      <path clip-path="url(#pb0d7888b44)" d="M 0 6.330297 
L 460.8 6.330297 
" style="fill:none;stroke:#b0b0b0;stroke-linecap:square;stroke-width:0.8;"/>
     </g>
     <g id="line2d_20">
      <g>
       <use style="stroke:#000000;stroke-width:0.8;" x="0" xlink:href="#m324bbfa9e7" y="6.330297"/>
      </g>
     </g>
    </g>
   </g>
   <g id="line2d_21">
    <path clip-path="url(#pb0d7888b44)" d="M 229.698515 293.76 
L 229.698515 289.927604 
L 230.249734 289.927604 
L 230.249734 286.095208 
L 230.985985 286.095208 
L 230.985985 282.262812 
L 231.198313 282.262812 
L 231.198313 278.430416 
L 231.837813 278.430416 
L 231.837813 274.59802 
L 232.004349 274.59802 
L 232.110959 263.100832 
L 232.14104 263.100832 
L 232.14104 259.268436 
L 232.396974 259.268436 
L 232.48875 251.603644 
L 232.873644 251.603644 
L 232.948631 243.938851 
L 233.016593 243.938851 
L 233.016593 240.106455 
L 233.164275 240.106455 
L 233.164275 236.274059 
L 233.331805 236.274059 
L 233.331805 232.441663 
L 233.543695 232.441663 
L 233.633664 224.776871 
L 233.789191 224.776871 
L 233.831948 217.112079 
L 233.967321 217.112079 
L 233.967321 213.279683 
L 234.429434 213.279683 
L 234.477488 205.614891 
L 234.632739 205.614891 
L 234.737842 197.950099 
L 235.543992 197.950099 
L 235.543992 194.117703 
L 236.487593 194.117703 
L 236.487593 190.285307 
L 236.816601 190.285307 
L 236.816601 186.452911 
L 237.486047 186.452911 
L 237.486047 182.620515 
L 241.999239 182.620515 
L 241.999239 178.788119 
L 244.736377 178.788119 
L 244.736377 174.955723 
L 244.849602 174.955723 
L 244.849602 171.123327 
L 244.977301 171.123327 
L 244.977301 167.290931 
L 245.602872 167.290931 
L 245.602872 163.458535 
L 245.752016 163.458535 
L 245.752016 159.626139 
L 246.004805 159.626139 
L 246.004805 155.793743 
L 246.572446 155.793743 
L 246.572446 151.961347 
L 246.887218 151.961347 
L 246.887218 148.12895 
L 247.082129 148.12895 
L 247.138294 140.464158 
L 247.231398 140.464158 
L 247.273228 132.799366 
L 248.022056 132.799366 
L 248.022056 128.96697 
L 248.224789 128.96697 
L 248.224789 125.134574 
L 248.785146 125.134574 
L 248.785146 121.302178 
L 248.948224 121.302178 
L 248.948224 117.469782 
L 249.342893 117.469782 
L 249.425264 102.140198 
L 249.927718 102.140198 
L 249.976137 94.475406 
L 250.475959 94.475406 
L 250.475959 90.64301 
L 250.626332 90.64301 
L 250.626332 86.810614 
L 250.813263 86.810614 
L 250.881519 79.145822 
L 251.766116 79.145822 
L 251.766116 75.313426 
L 252.306039 75.313426 
L 252.306039 71.48103 
L 253.191167 71.48103 
L 253.191167 67.648634 
L 257.686169 67.648634 
L 257.686169 63.816238 
L 274.22076 63.816238 
L 274.22076 59.983842 
L 274.855109 59.983842 
L 274.855109 56.151446 
L 275.428221 56.151446 
L 275.428221 52.31905 
L 276.24453 52.31905 
L 276.24453 48.486653 
L 276.38757 48.486653 
L 276.38757 44.654257 
L 278.22589 44.654257 
L 278.22589 40.821861 
L 278.906413 40.821861 
L 278.906413 36.989465 
L 279.772047 36.989465 
L 279.772047 33.157069 
L 280.031646 33.157069 
L 280.031646 29.324673 
L 280.422956 29.324673 
L 280.422956 25.492277 
L 281.168335 25.492277 
L 281.168335 21.659881 
L 281.525683 21.659881 
L 281.525683 17.827485 
L 282.667865 17.827485 
L 282.667865 13.995089 
L 283.981072 13.995089 
L 283.981072 10.162693 
L 284.743414 10.162693 
L 284.743414 6.330297 
L 284.743414 6.330297 
L 460.8 6.330297 
L 460.8 6.330297 
" style="fill:none;stroke:#ff0000;stroke-linecap:square;stroke-width:3;"/>
   </g>
   <g id="line2d_22">
    <path clip-path="url(#pb0d7888b44)" d="M 238.356734 293.76 
L 238.356734 289.927604 
L 238.946277 289.927604 
L 238.946277 286.095208 
L 239.360839 286.095208 
L 239.360839 282.262812 
L 239.608304 282.262812 
L 239.608304 278.430416 
L 241.827597 278.430416 
L 241.844248 270.765624 
L 242.199276 270.765624 
L 242.199276 266.933228 
L 242.553713 266.933228 
L 242.553713 263.100832 
L 243.019173 263.100832 
L 243.019173 259.268436 
L 243.684766 259.268436 
L 243.684766 255.43604 
L 244.026305 255.43604 
L 244.026305 251.603644 
L 244.164791 251.603644 
L 244.164791 247.771248 
L 246.321021 247.771248 
L 246.363279 240.106455 
L 246.433788 240.106455 
L 246.433788 236.274059 
L 247.151845 236.274059 
L 247.151845 232.441663 
L 247.318191 232.441663 
L 247.318191 228.609267 
L 247.5076 228.609267 
L 247.5076 224.776871 
L 247.769798 224.776871 
L 247.769798 220.944475 
L 247.971729 220.944475 
L 247.971729 217.112079 
L 248.372046 217.112079 
L 248.372046 213.279683 
L 250.104893 213.279683 
L 250.170023 201.782495 
L 250.556519 201.782495 
L 250.556519 197.950099 
L 250.852423 197.950099 
L 250.852423 194.117703 
L 252.052755 194.117703 
L 252.071808 186.452911 
L 252.224435 186.452911 
L 252.224435 182.620515 
L 252.379353 182.620515 
L 252.379353 178.788119 
L 252.792284 178.788119 
L 252.876293 171.123327 
L 252.964506 171.123327 
L 252.995965 163.458535 
L 253.571187 163.458535 
L 253.571187 159.626139 
L 254.163369 159.626139 
L 254.163369 155.793743 
L 254.315779 155.793743 
L 254.37384 148.12895 
L 254.751556 148.12895 
L 254.751556 144.296554 
L 255.308686 144.296554 
L 255.397304 136.631762 
L 255.806458 136.631762 
L 255.806458 132.799366 
L 256.306147 132.799366 
L 256.407997 125.134574 
L 256.540047 125.134574 
L 256.540047 121.302178 
L 257.192547 121.302178 
L 257.192547 117.469782 
L 257.323504 117.469782 
L 257.323504 113.637386 
L 257.478989 113.637386 
L 257.500623 105.972594 
L 257.653544 105.972594 
L 257.653544 102.140198 
L 257.880622 102.140198 
L 257.926282 94.475406 
L 258.102924 94.475406 
L 258.102924 90.64301 
L 259.479144 90.64301 
L 259.479144 86.810614 
L 260.763828 86.810614 
L 260.763828 82.978218 
L 261.734044 82.978218 
L 261.734044 79.145822 
L 263.582286 79.145822 
L 263.582286 75.313426 
L 264.264486 75.313426 
L 264.264486 71.48103 
L 264.881744 71.48103 
L 264.881744 67.648634 
L 267.025465 67.648634 
L 267.025465 63.816238 
L 284.709395 63.816238 
L 284.742313 56.151446 
L 285.272997 56.151446 
L 285.272997 52.31905 
L 287.042908 52.31905 
L 287.042908 48.486653 
L 287.360616 48.486653 
L 287.360616 44.654257 
L 287.709196 44.654257 
L 287.709196 40.821861 
L 288.404976 40.821861 
L 288.404976 36.989465 
L 288.600718 36.989465 
L 288.646919 29.324673 
L 288.887827 29.324673 
L 288.887827 25.492277 
L 289.161211 25.492277 
L 289.161211 21.659881 
L 290.298514 21.659881 
L 290.298514 17.827485 
L 291.658222 17.827485 
L 291.658222 13.995089 
L 293.873654 13.995089 
L 293.896118 6.330297 
L 293.896118 6.330297 
L 460.8 6.330297 
L 460.8 6.330297 
" style="fill:none;stroke:#00bfbf;stroke-linecap:square;stroke-width:1.5;"/>
   </g>
   <g id="line2d_23">
    <path clip-path="url(#pb0d7888b44)" d="M 238.356734 293.76 
L 238.356734 289.927604 
L 238.946277 289.927604 
L 238.946277 286.095208 
L 239.360839 286.095208 
L 239.360839 282.262812 
L 239.608304 282.262812 
L 239.608304 278.430416 
L 239.806644 278.430416 
L 239.806644 274.59802 
L 240.487497 274.59802 
L 240.487497 270.765624 
L 241.142791 270.765624 
L 241.142791 266.933228 
L 241.827597 266.933228 
L 241.844248 259.268436 
L 242.003642 259.268436 
L 242.110263 251.603644 
L 242.985857 251.603644 
L 243.019173 243.938851 
L 243.505852 243.938851 
L 243.505852 240.106455 
L 245.204215 240.106455 
L 245.204215 236.274059 
L 246.313534 236.274059 
L 246.412953 220.944475 
L 246.747362 220.944475 
L 246.747362 217.112079 
L 246.939807 217.112079 
L 246.939807 213.279683 
L 247.151845 213.279683 
L 247.151845 209.447287 
L 247.318191 209.447287 
L 247.318191 205.614891 
L 247.5076 205.614891 
L 247.587782 197.950099 
L 249.082646 197.950099 
L 249.177681 190.285307 
L 249.199185 190.285307 
L 249.199185 186.452911 
L 249.773778 186.452911 
L 249.773778 182.620515 
L 249.922562 182.620515 
L 249.922562 178.788119 
L 250.197365 178.788119 
L 250.197365 174.955723 
L 251.0428 174.955723 
L 251.0428 171.123327 
L 251.423105 171.123327 
L 251.423105 167.290931 
L 252.071808 167.290931 
L 252.071808 163.458535 
L 252.964506 163.458535 
L 253.039619 148.12895 
L 253.571187 148.12895 
L 253.571187 144.296554 
L 253.750036 144.296554 
L 253.777958 136.631762 
L 253.918875 136.631762 
L 253.918875 132.799366 
L 254.163369 132.799366 
L 254.163369 128.96697 
L 255.047862 128.96697 
L 255.047862 125.134574 
L 255.308686 125.134574 
L 255.397304 117.469782 
L 255.784525 117.469782 
L 255.784671 109.80499 
L 256.849138 109.80499 
L 256.849138 105.972594 
L 257.323504 105.972594 
L 257.323504 102.140198 
L 257.439995 102.140198 
L 257.439995 98.307802 
L 257.880622 98.307802 
L 257.926282 86.810614 
L 258.728636 86.810614 
L 258.728636 82.978218 
L 259.895174 82.978218 
L 259.90195 75.313426 
L 261.734044 75.313426 
L 261.734044 71.48103 
L 263.685891 71.48103 
L 263.685891 67.648634 
L 264.264486 67.648634 
L 264.264486 63.816238 
L 282.884931 63.816238 
L 282.884931 59.983842 
L 284.248271 59.983842 
L 284.248271 56.151446 
L 284.709395 56.151446 
L 284.742313 48.486653 
L 286.712588 48.486653 
L 286.712588 44.654257 
L 286.851882 44.654257 
L 286.939441 36.989465 
L 287.709196 36.989465 
L 287.709196 33.157069 
L 287.92752 33.157069 
L 287.92752 29.324673 
L 288.065403 29.324673 
L 288.065403 25.492277 
L 288.600718 25.492277 
L 288.600718 21.659881 
L 288.887827 21.659881 
L 288.887827 17.827485 
L 289.161211 17.827485 
L 289.161211 13.995089 
L 291.621363 13.995089 
L 291.621363 10.162693 
L 292.77021 10.162693 
L 292.77021 6.330297 
L 292.77021 6.330297 
L 460.8 6.330297 
L 460.8 6.330297 
" style="fill:none;stroke:#bf00bf;stroke-linecap:square;stroke-width:1.5;"/>
   </g>
   <g id="line2d_24">
    <path clip-path="url(#pb0d7888b44)" d="M 233.938794 293.76 
L 233.938794 289.927604 
L 234.494012 289.927604 
L 234.494012 286.095208 
L 236.196566 286.095208 
L 236.196566 282.262812 
L 236.8616 282.262812 
L 236.923962 274.59802 
L 236.981164 274.59802 
L 236.981164 270.765624 
L 237.813319 270.765624 
L 237.813319 266.933228 
L 238.356734 266.933228 
L 238.418533 259.268436 
L 238.586488 259.268436 
L 238.586488 255.43604 
L 239.028526 255.43604 
L 239.107835 247.771248 
L 239.60413 247.771248 
L 239.608304 240.106455 
L 239.860314 240.106455 
L 239.860314 236.274059 
L 240.100034 236.274059 
L 240.100034 232.441663 
L 240.487497 232.441663 
L 240.487497 228.609267 
L 240.865121 228.609267 
L 240.907353 220.944475 
L 240.979461 220.944475 
L 241.051707 213.279683 
L 241.194885 213.279683 
L 241.194885 209.447287 
L 241.827597 209.447287 
L 241.827597 205.614891 
L 242.928501 205.614891 
L 242.928501 201.782495 
L 243.123118 201.782495 
L 243.230481 194.117703 
L 243.540482 194.117703 
L 243.540482 190.285307 
L 244.029996 190.285307 
L 244.029996 186.452911 
L 244.200906 186.452911 
L 244.200906 182.620515 
L 245.008401 182.620515 
L 245.008401 178.788119 
L 249.450264 178.788119 
L 249.450264 174.955723 
L 249.880916 174.955723 
L 249.922562 167.290931 
L 250.041703 167.290931 
L 250.041703 163.458535 
L 250.807841 163.458535 
L 250.807841 159.626139 
L 251.0428 159.626139 
L 251.0428 155.793743 
L 251.281636 155.793743 
L 251.281636 151.961347 
L 251.403932 151.961347 
L 251.423105 144.296554 
L 252.071808 144.296554 
L 252.071808 140.464158 
L 252.380672 140.464158 
L 252.389264 132.799366 
L 252.51096 132.799366 
L 252.51096 128.96697 
L 252.852846 128.96697 
L 252.937818 113.637386 
L 252.989302 113.637386 
L 252.989302 109.80499 
L 253.204395 109.80499 
L 253.204395 105.972594 
L 253.604506 105.972594 
L 253.604506 102.140198 
L 254.356523 102.140198 
L 254.356523 98.307802 
L 254.64969 98.307802 
L 254.64969 94.475406 
L 255.170827 94.475406 
L 255.170827 90.64301 
L 256.906874 90.64301 
L 256.906874 86.810614 
L 257.227474 86.810614 
L 257.227474 82.978218 
L 257.590008 82.978218 
L 257.590008 79.145822 
L 257.893828 79.145822 
L 257.926282 71.48103 
L 259.193681 71.48103 
L 259.193681 67.648634 
L 259.3516 67.648634 
L 259.3516 63.816238 
L 276.817355 63.816238 
L 276.817355 59.983842 
L 277.187313 59.983842 
L 277.187313 56.151446 
L 279.287272 56.151446 
L 279.287272 52.31905 
L 280.360309 52.31905 
L 280.360309 48.486653 
L 284.025648 48.486653 
L 284.076479 40.821861 
L 284.640588 40.821861 
L 284.743414 29.324673 
L 284.916131 29.324673 
L 284.916131 25.492277 
L 285.939836 25.492277 
L 285.939836 21.659881 
L 286.717149 21.659881 
L 286.717149 17.827485 
L 287.214878 17.827485 
L 287.214878 13.995089 
L 287.79454 13.995089 
L 287.79454 10.162693 
L 288.56017 10.162693 
L 288.56017 6.330297 
L 288.56017 6.330297 
L 460.8 6.330297 
L 460.8 6.330297 
" style="fill:none;stroke:#000000;stroke-linecap:square;stroke-width:1.5;"/>
   </g>
   <g id="line2d_25">
    <path clip-path="url(#pb0d7888b44)" d="M 233.938794 293.76 
L 233.938794 289.927604 
L 234.326961 289.927604 
L 234.326961 286.095208 
L 234.494012 286.095208 
L 234.494012 282.262812 
L 235.335842 282.262812 
L 235.335842 278.430416 
L 235.681838 278.430416 
L 235.681838 274.59802 
L 236.157821 274.59802 
L 236.2122 266.933228 
L 236.613621 266.933228 
L 236.613621 263.100832 
L 236.923962 263.100832 
L 237.023989 255.43604 
L 237.097653 255.43604 
L 237.097653 251.603644 
L 237.433622 251.603644 
L 237.433622 247.771248 
L 237.6449 247.771248 
L 237.690348 240.106455 
L 237.813319 240.106455 
L 237.859952 232.441663 
L 238.261811 232.441663 
L 238.261811 228.609267 
L 238.383161 228.609267 
L 238.418533 220.944475 
L 238.525868 220.944475 
L 238.601603 213.279683 
L 238.702208 213.279683 
L 238.702208 209.447287 
L 238.957726 209.447287 
L 239.034113 201.782495 
L 239.622345 201.782495 
L 239.622345 197.950099 
L 240.525512 197.950099 
L 240.525512 194.117703 
L 240.668762 194.117703 
L 240.668762 190.285307 
L 240.986274 190.285307 
L 240.986274 186.452911 
L 241.106965 186.452911 
L 241.106965 182.620515 
L 241.999239 182.620515 
L 241.999239 178.788119 
L 247.087186 178.788119 
L 247.087186 174.955723 
L 248.215256 174.955723 
L 248.215256 171.123327 
L 249.450264 171.123327 
L 249.515972 163.458535 
L 249.880916 163.458535 
L 249.922562 155.793743 
L 250.001129 155.793743 
L 250.001129 151.961347 
L 250.272698 151.961347 
L 250.272698 148.12895 
L 250.484551 148.12895 
L 250.528864 140.464158 
L 250.807841 140.464158 
L 250.848264 132.799366 
L 250.961145 132.799366 
L 250.961145 128.96697 
L 251.291895 128.96697 
L 251.291895 125.134574 
L 251.403932 125.134574 
L 251.435502 113.637386 
L 251.958967 113.637386 
L 252.028477 105.972594 
L 252.124646 105.972594 
L 252.124646 102.140198 
L 252.382049 102.140198 
L 252.382049 98.307802 
L 252.791417 98.307802 
L 252.791417 94.475406 
L 254.120034 94.475406 
L 254.120034 90.64301 
L 254.64969 90.64301 
L 254.733257 82.978218 
L 255.163632 82.978218 
L 255.170827 75.313426 
L 256.761784 75.313426 
L 256.761784 71.48103 
L 257.590008 71.48103 
L 257.590008 67.648634 
L 259.3516 67.648634 
L 259.3516 63.816238 
L 275.657807 63.816238 
L 275.657807 59.983842 
L 276.817355 59.983842 
L 276.817355 56.151446 
L 277.187313 56.151446 
L 277.187313 52.31905 
L 279.807224 52.31905 
L 279.807224 48.486653 
L 280.360309 48.486653 
L 280.360309 44.654257 
L 281.269156 44.654257 
L 281.269156 40.821861 
L 281.525683 40.821861 
L 281.525683 36.989465 
L 281.769022 36.989465 
L 281.769022 33.157069 
L 282.370261 33.157069 
L 282.370261 29.324673 
L 282.55365 29.324673 
L 282.55365 25.492277 
L 282.923053 25.492277 
L 282.923053 21.659881 
L 283.168943 21.659881 
L 283.168943 17.827485 
L 284.394802 17.827485 
L 284.394802 13.995089 
L 284.743414 13.995089 
L 284.743414 10.162693 
L 284.965491 10.162693 
L 284.965491 6.330297 
L 284.965491 6.330297 
L 460.8 6.330297 
L 460.8 6.330297 
" style="fill:none;stroke:#00bfbf;stroke-linecap:square;stroke-width:1.5;"/>
   </g>
   <g id="line2d_26">
    <path clip-path="url(#pb0d7888b44)" d="M 229.698515 293.76 
L 229.698515 289.927604 
L 230.249734 289.927604 
L 230.249734 286.095208 
L 230.985985 286.095208 
L 230.985985 282.262812 
L 231.198313 282.262812 
L 231.198313 278.430416 
L 231.837813 278.430416 
L 231.837813 274.59802 
L 232.004349 274.59802 
L 232.110959 263.100832 
L 232.14104 263.100832 
L 232.14104 259.268436 
L 232.396974 259.268436 
L 232.48875 251.603644 
L 232.873644 251.603644 
L 232.948631 243.938851 
L 233.016593 243.938851 
L 233.016593 240.106455 
L 233.164275 240.106455 
L 233.164275 236.274059 
L 233.331805 236.274059 
L 233.331805 232.441663 
L 233.543695 232.441663 
L 233.633664 224.776871 
L 233.789191 224.776871 
L 233.831948 217.112079 
L 233.967321 217.112079 
L 233.967321 213.279683 
L 234.429434 213.279683 
L 234.477488 205.614891 
L 234.632739 205.614891 
L 234.737842 197.950099 
L 235.543992 197.950099 
L 235.543992 194.117703 
L 236.487593 194.117703 
L 236.487593 190.285307 
L 236.816601 190.285307 
L 236.816601 186.452911 
L 237.486047 186.452911 
L 237.486047 182.620515 
L 241.999239 182.620515 
L 241.999239 178.788119 
L 244.736377 178.788119 
L 244.736377 174.955723 
L 244.849602 174.955723 
L 244.849602 171.123327 
L 244.977301 171.123327 
L 244.977301 167.290931 
L 245.602872 167.290931 
L 245.602872 163.458535 
L 245.752016 163.458535 
L 245.752016 159.626139 
L 246.004805 159.626139 
L 246.004805 155.793743 
L 246.572446 155.793743 
L 246.572446 151.961347 
L 246.887218 151.961347 
L 246.887218 148.12895 
L 247.082129 148.12895 
L 247.138294 140.464158 
L 247.231398 140.464158 
L 247.273228 132.799366 
L 248.022056 132.799366 
L 248.022056 128.96697 
L 248.224789 128.96697 
L 248.224789 125.134574 
L 248.785146 125.134574 
L 248.785146 121.302178 
L 248.948224 121.302178 
L 248.948224 117.469782 
L 249.342893 117.469782 
L 249.425264 102.140198 
L 249.927718 102.140198 
L 249.976137 94.475406 
L 250.475959 94.475406 
L 250.475959 90.64301 
L 250.626332 90.64301 
L 250.626332 86.810614 
L 250.813263 86.810614 
L 250.881519 79.145822 
L 251.766116 79.145822 
L 251.766116 75.313426 
L 252.306039 75.313426 
L 252.306039 71.48103 
L 253.191167 71.48103 
L 253.191167 67.648634 
L 257.686169 67.648634 
L 257.686169 63.816238 
L 274.22076 63.816238 
L 274.22076 59.983842 
L 274.855109 59.983842 
L 274.855109 56.151446 
L 275.428221 56.151446 
L 275.428221 52.31905 
L 276.24453 52.31905 
L 276.24453 48.486653 
L 276.38757 48.486653 
L 276.38757 44.654257 
L 278.22589 44.654257 
L 278.22589 40.821861 
L 278.906413 40.821861 
L 278.906413 36.989465 
L 279.772047 36.989465 
L 279.772047 33.157069 
L 280.031646 33.157069 
L 280.031646 29.324673 
L 280.422956 29.324673 
L 280.422956 25.492277 
L 281.168335 25.492277 
L 281.168335 21.659881 
L 281.525683 21.659881 
L 281.525683 17.827485 
L 282.667865 17.827485 
L 282.667865 13.995089 
L 283.981072 13.995089 
L 283.981072 10.162693 
L 284.743414 10.162693 
L 284.743414 6.330297 
L 284.743414 6.330297 
L 460.8 6.330297 
L 460.8 6.330297 
" style="fill:none;stroke:#bf00bf;stroke-linecap:square;stroke-width:1.5;"/>
   </g>
   <g id="patch_3">
    <path d="M 0 293.76 
L 0 3.456 
" style="fill:none;stroke:#000000;stroke-linecap:square;stroke-linejoin:miter;stroke-width:0.8;"/>
   </g>
   <g id="patch_4">
    <path d="M 460.8 293.76 
L 460.8 3.456 
" style="fill:none;stroke:#000000;stroke-linecap:square;stroke-linejoin:miter;stroke-width:0.8;"/>
   </g>
   <g id="patch_5">
    <path d="M -0 293.76 
L 460.8 293.76 
" style="fill:none;stroke:#000000;stroke-linecap:square;stroke-linejoin:miter;stroke-width:0.8;"/>
   </g>
   <g id="patch_6">
    <path d="M -0 3.456 
L 460.8 3.456 
" style="fill:none;stroke:#000000;stroke-linecap:square;stroke-linejoin:miter;stroke-width:0.8;"/>
   </g>
   <g id="text_6">
    <!-- {f15-f19}, 20-D -->
    <defs>
     <path d="M 51.125 -9.28125 
L 51.125 -16.3125 
L 48.09375 -16.3125 
Q 35.9375 -16.3125 31.8125 -12.6875 
Q 27.6875 -9.078125 27.6875 1.703125 
L 27.6875 13.375 
Q 27.6875 20.75 25.046875 23.578125 
Q 22.40625 26.421875 15.484375 26.421875 
L 12.5 26.421875 
L 12.5 33.40625 
L 15.484375 33.40625 
Q 22.46875 33.40625 25.078125 36.203125 
Q 27.6875 39.015625 27.6875 46.296875 
L 27.6875 58.015625 
Q 27.6875 68.796875 31.8125 72.390625 
Q 35.9375 75.984375 48.09375 75.984375 
L 51.125 75.984375 
L 51.125 69 
L 47.796875 69 
Q 40.921875 69 38.8125 66.84375 
Q 36.71875 64.703125 36.71875 57.8125 
L 36.71875 45.703125 
Q 36.71875 38.03125 34.5 34.5625 
Q 32.28125 31.109375 26.90625 29.890625 
Q 32.328125 28.5625 34.515625 25.09375 
Q 36.71875 21.625 36.71875 14.015625 
L 36.71875 1.90625 
Q 36.71875 -4.984375 38.8125 -7.125 
Q 40.921875 -9.28125 47.796875 -9.28125 
z
" id="DejaVuSans-123"/>
     <path d="M 10.796875 72.90625 
L 49.515625 72.90625 
L 49.515625 64.59375 
L 19.828125 64.59375 
L 19.828125 46.734375 
Q 21.96875 47.46875 24.109375 47.828125 
Q 26.265625 48.1875 28.421875 48.1875 
Q 40.625 48.1875 47.75 41.5 
Q 54.890625 34.8125 54.890625 23.390625 
Q 54.890625 11.625 47.5625 5.09375 
Q 40.234375 -1.421875 26.90625 -1.421875 
Q 22.3125 -1.421875 17.546875 -0.640625 
Q 12.796875 0.140625 7.71875 1.703125 
L 7.71875 11.625 
Q 12.109375 9.234375 16.796875 8.0625 
Q 21.484375 6.890625 26.703125 6.890625 
Q 35.15625 6.890625 40.078125 11.328125 
Q 45.015625 15.765625 45.015625 23.390625 
Q 45.015625 31 40.078125 35.4375 
Q 35.15625 39.890625 26.703125 39.890625 
Q 22.75 39.890625 18.8125 39.015625 
Q 14.890625 38.140625 10.796875 36.28125 
z
" id="DejaVuSans-53"/>
     <path d="M 10.984375 1.515625 
L 10.984375 10.5 
Q 14.703125 8.734375 18.5 7.8125 
Q 22.3125 6.890625 25.984375 6.890625 
Q 35.75 6.890625 40.890625 13.453125 
Q 46.046875 20.015625 46.78125 33.40625 
Q 43.953125 29.203125 39.59375 26.953125 
Q 35.25 24.703125 29.984375 24.703125 
Q 19.046875 24.703125 12.671875 31.3125 
Q 6.296875 37.9375 6.296875 49.421875 
Q 6.296875 60.640625 12.9375 67.421875 
Q 19.578125 74.21875 30.609375 74.21875 
Q 43.265625 74.21875 49.921875 64.515625 
Q 56.59375 54.828125 56.59375 36.375 
Q 56.59375 19.140625 48.40625 8.859375 
Q 40.234375 -1.421875 26.421875 -1.421875 
Q 22.703125 -1.421875 18.890625 -0.6875 
Q 15.09375 0.046875 10.984375 1.515625 
z
M 30.609375 32.421875 
Q 37.25 32.421875 41.125 36.953125 
Q 45.015625 41.5 45.015625 49.421875 
Q 45.015625 57.28125 41.125 61.84375 
Q 37.25 66.40625 30.609375 66.40625 
Q 23.96875 66.40625 20.09375 61.84375 
Q 16.21875 57.28125 16.21875 49.421875 
Q 16.21875 41.5 20.09375 36.953125 
Q 23.96875 32.421875 30.609375 32.421875 
z
" id="DejaVuSans-57"/>
     <path d="M 12.5 -9.28125 
L 15.921875 -9.28125 
Q 22.75 -9.28125 24.828125 -7.171875 
Q 26.90625 -5.078125 26.90625 1.90625 
L 26.90625 14.015625 
Q 26.90625 21.625 29.09375 25.09375 
Q 31.296875 28.5625 36.71875 29.890625 
Q 31.296875 31.109375 29.09375 34.5625 
Q 26.90625 38.03125 26.90625 45.703125 
L 26.90625 57.8125 
Q 26.90625 64.75 24.828125 66.875 
Q 22.75 69 15.921875 69 
L 12.5 69 
L 12.5 75.984375 
L 15.578125 75.984375 
Q 27.734375 75.984375 31.8125 72.390625 
Q 35.890625 68.796875 35.890625 58.015625 
L 35.890625 46.296875 
Q 35.890625 39.015625 38.515625 36.203125 
Q 41.15625 33.40625 48.09375 33.40625 
L 51.125 33.40625 
L 51.125 26.421875 
L 48.09375 26.421875 
Q 41.15625 26.421875 38.515625 23.578125 
Q 35.890625 20.75 35.890625 13.375 
L 35.890625 1.703125 
Q 35.890625 -9.078125 31.8125 -12.6875 
Q 27.734375 -16.3125 15.578125 -16.3125 
L 12.5 -16.3125 
z
" id="DejaVuSans-125"/>
     <path d="M 11.71875 12.40625 
L 22.015625 12.40625 
L 22.015625 4 
L 14.015625 -11.625 
L 7.71875 -11.625 
L 11.71875 4 
z
" id="DejaVuSans-44"/>
     <path d="M 19.1875 8.296875 
L 53.609375 8.296875 
L 53.609375 0 
L 7.328125 0 
L 7.328125 8.296875 
Q 12.9375 14.109375 22.625 23.890625 
Q 32.328125 33.6875 34.8125 36.53125 
Q 39.546875 41.84375 41.421875 45.53125 
Q 43.3125 49.21875 43.3125 52.78125 
Q 43.3125 58.59375 39.234375 62.25 
Q 35.15625 65.921875 28.609375 65.921875 
Q 23.96875 65.921875 18.8125 64.3125 
Q 13.671875 62.703125 7.8125 59.421875 
L 7.8125 69.390625 
Q 13.765625 71.78125 18.9375 73 
Q 24.125 74.21875 28.421875 74.21875 
Q 39.75 74.21875 46.484375 68.546875 
Q 53.21875 62.890625 53.21875 53.421875 
Q 53.21875 48.921875 51.53125 44.890625 
Q 49.859375 40.875 45.40625 35.40625 
Q 44.1875 33.984375 37.640625 27.21875 
Q 31.109375 20.453125 19.1875 8.296875 
z
" id="DejaVuSans-50"/>
    </defs>
    <g transform="translate(293.159 287.95392)scale(0.2 -0.2)">
     <use xlink:href="#DejaVuSans-123"/>
     <use x="63.623047" xlink:href="#DejaVuSans-102"/>
     <use x="98.828125" xlink:href="#DejaVuSans-49"/>
     <use x="162.451172" xlink:href="#DejaVuSans-53"/>
     <use x="226.074219" xlink:href="#DejaVuSans-45"/>
     <use x="262.158203" xlink:href="#DejaVuSans-102"/>
     <use x="297.363281" xlink:href="#DejaVuSans-49"/>
     <use x="360.986328" xlink:href="#DejaVuSans-57"/>
     <use x="424.609375" xlink:href="#DejaVuSans-125"/>
     <use x="488.232422" xlink:href="#DejaVuSans-44"/>
     <use x="520.019531" xlink:href="#DejaVuSans-32"/>
     <use x="551.806641" xlink:href="#DejaVuSans-50"/>
     <use x="615.429688" xlink:href="#DejaVuSans-48"/>
     <use x="679.052734" xlink:href="#DejaVuSans-45"/>
     <use x="715.136719" xlink:href="#DejaVuSans-68"/>
    </g>
   </g>
   <g id="text_7">
    <!-- v2.4 -->
    <defs>
     <path d="M 2.984375 54.6875 
L 12.5 54.6875 
L 29.59375 8.796875 
L 46.6875 54.6875 
L 56.203125 54.6875 
L 35.6875 0 
L 23.484375 0 
z
" id="DejaVuSans-118"/>
     <path d="M 10.6875 12.40625 
L 21 12.40625 
L 21 0 
L 10.6875 0 
z
" id="DejaVuSans-46"/>
    </defs>
    <g style="fill:#808080;" transform="translate(219.489063 288.777272)scale(0.1 -0.1)">
     <use xlink:href="#DejaVuSans-118"/>
     <use x="59.179688" xlink:href="#DejaVuSans-50"/>
     <use x="122.802734" xlink:href="#DejaVuSans-46"/>
     <use x="154.589844" xlink:href="#DejaVuSans-52"/>
    </g>
   </g>
  </g>
 </g>
 <defs>
  <clipPath id="pb0d7888b44">
   <rect height="290.304" width="460.8" x="0" y="3.456"/>
  </clipPath>
 </defs>
</svg>
