<?xml version="1.0" encoding="utf-8" standalone="no"?>
<!DOCTYPE svg PUBLIC "-//W3C//DTD SVG 1.1//EN"
  "http://www.w3.org/Graphics/SVG/1.1/DTD/svg11.dtd">
<!-- Created with matplotlib (https://matplotlib.org/) -->
<svg height="345.6pt" version="1.1" viewBox="0 0 460.8 345.6" width="460.8pt" xmlns="http://www.w3.org/2000/svg" xmlns:xlink="http://www.w3.org/1999/xlink">
 <defs>
  <style type="text/css">
*{stroke-linecap:butt;stroke-linejoin:round;}
  </style>
 </defs>
 <g id="figure_1">
  <g id="patch_1">
   <path d="M 0 345.6 
L 460.8 345.6 
L 460.8 0 
L 0 0 
z
" style="fill:#ffffff;"/>
  </g>
  <g id="axes_1">
   <g id="patch_2">
    <path d="M 0 293.76 
L 460.8 293.76 
L 460.8 3.456 
L 0 3.456 
z
" style="fill:#ffffff;"/>
   </g>
   <g id="matplotlib.axis_1">
    <g id="xtick_1">
     <g id="line2d_1">
      <path clip-path="url(#pb3bb3f550f)" d="M 104.585791 293.76 
L 104.585791 3.456 
" style="fill:none;stroke:#b0b0b0;stroke-linecap:square;stroke-width:0.8;"/>
     </g>
     <g id="line2d_2">
      <defs>
       <path d="M 0 0 
L 0 3.5 
" id="m874543cfbc" style="stroke:#000000;stroke-width:0.8;"/>
      </defs>
      <g>
       <use style="stroke:#000000;stroke-width:0.8;" x="104.585791" xlink:href="#m874543cfbc" y="293.76"/>
      </g>
     </g>
     <g id="text_1">
      <!-- -4 -->
      <defs>
       <path d="M 4.890625 31.390625 
L 31.203125 31.390625 
L 31.203125 23.390625 
L 4.890625 23.390625 
z
" id="DejaVuSans-45"/>
       <path d="M 37.796875 64.3125 
L 12.890625 25.390625 
L 37.796875 25.390625 
z
M 35.203125 72.90625 
L 47.609375 72.90625 
L 47.609375 25.390625 
L 58.015625 25.390625 
L 58.015625 17.1875 
L 47.609375 17.1875 
L 47.609375 0 
L 37.796875 0 
L 37.796875 17.1875 
L 4.890625 17.1875 
L 4.890625 26.703125 
z
" id="DejaVuSans-52"/>
      </defs>
      <g transform="translate(94.615479 315.956875)scale(0.2 -0.2)">
       <use xlink:href="#DejaVuSans-45"/>
       <use x="36.083984" xlink:href="#DejaVuSans-52"/>
      </g>
     </g>
    </g>
    <g id="xtick_2">
     <g id="line2d_3">
      <path clip-path="url(#pb3bb3f550f)" d="M 209.284693 293.76 
L 209.284693 3.456 
" style="fill:none;stroke:#b0b0b0;stroke-linecap:square;stroke-width:0.8;"/>
     </g>
     <g id="line2d_4">
      <g>
       <use style="stroke:#000000;stroke-width:0.8;" x="209.284693" xlink:href="#m874543cfbc" y="293.76"/>
      </g>
     </g>
     <g id="text_2">
      <!-- 0 -->
      <defs>
       <path d="M 31.78125 66.40625 
Q 24.171875 66.40625 20.328125 58.90625 
Q 16.5 51.421875 16.5 36.375 
Q 16.5 21.390625 20.328125 13.890625 
Q 24.171875 6.390625 31.78125 6.390625 
Q 39.453125 6.390625 43.28125 13.890625 
Q 47.125 21.390625 47.125 36.375 
Q 47.125 51.421875 43.28125 58.90625 
Q 39.453125 66.40625 31.78125 66.40625 
z
M 31.78125 74.21875 
Q 44.046875 74.21875 50.515625 64.515625 
Q 56.984375 54.828125 56.984375 36.375 
Q 56.984375 17.96875 50.515625 8.265625 
Q 44.046875 -1.421875 31.78125 -1.421875 
Q 19.53125 -1.421875 13.0625 8.265625 
Q 6.59375 17.96875 6.59375 36.375 
Q 6.59375 54.828125 13.0625 64.515625 
Q 19.53125 74.21875 31.78125 74.21875 
z
" id="DejaVuSans-48"/>
      </defs>
      <g transform="translate(202.922193 315.956875)scale(0.2 -0.2)">
       <use xlink:href="#DejaVuSans-48"/>
      </g>
     </g>
    </g>
    <g id="xtick_3">
     <g id="line2d_5">
      <path clip-path="url(#pb3bb3f550f)" d="M 313.983595 293.76 
L 313.983595 3.456 
" style="fill:none;stroke:#b0b0b0;stroke-linecap:square;stroke-width:0.8;"/>
     </g>
     <g id="line2d_6">
      <g>
       <use style="stroke:#000000;stroke-width:0.8;" x="313.983595" xlink:href="#m874543cfbc" y="293.76"/>
      </g>
     </g>
     <g id="text_3">
      <!-- 4 -->
      <g transform="translate(307.621095 315.956875)scale(0.2 -0.2)">
       <use xlink:href="#DejaVuSans-52"/>
      </g>
     </g>
    </g>
    <g id="xtick_4">
     <g id="line2d_7">
      <path clip-path="url(#pb3bb3f550f)" d="M 418.682496 293.76 
L 418.682496 3.456 
" style="fill:none;stroke:#b0b0b0;stroke-linecap:square;stroke-width:0.8;"/>
     </g>
     <g id="line2d_8">
      <g>
       <use style="stroke:#000000;stroke-width:0.8;" x="418.682496" xlink:href="#m874543cfbc" y="293.76"/>
      </g>
     </g>
     <g id="text_4">
      <!-- 8 -->
      <defs>
       <path d="M 31.78125 34.625 
Q 24.75 34.625 20.71875 30.859375 
Q 16.703125 27.09375 16.703125 20.515625 
Q 16.703125 13.921875 20.71875 10.15625 
Q 24.75 6.390625 31.78125 6.390625 
Q 38.8125 6.390625 42.859375 10.171875 
Q 46.921875 13.96875 46.921875 20.515625 
Q 46.921875 27.09375 42.890625 30.859375 
Q 38.875 34.625 31.78125 34.625 
z
M 21.921875 38.8125 
Q 15.578125 40.375 12.03125 44.71875 
Q 8.5 49.078125 8.5 55.328125 
Q 8.5 64.0625 14.71875 69.140625 
Q 20.953125 74.21875 31.78125 74.21875 
Q 42.671875 74.21875 48.875 69.140625 
Q 55.078125 64.0625 55.078125 55.328125 
Q 55.078125 49.078125 51.53125 44.71875 
Q 48 40.375 41.703125 38.8125 
Q 48.828125 37.15625 52.796875 32.3125 
Q 56.78125 27.484375 56.78125 20.515625 
Q 56.78125 9.90625 50.3125 4.234375 
Q 43.84375 -1.421875 31.78125 -1.421875 
Q 19.734375 -1.421875 13.25 4.234375 
Q 6.78125 9.90625 6.78125 20.515625 
Q 6.78125 27.484375 10.78125 32.3125 
Q 14.796875 37.15625 21.921875 38.8125 
z
M 18.3125 54.390625 
Q 18.3125 48.734375 21.84375 45.5625 
Q 25.390625 42.390625 31.78125 42.390625 
Q 38.140625 42.390625 41.71875 45.5625 
Q 45.3125 48.734375 45.3125 54.390625 
Q 45.3125 60.0625 41.71875 63.234375 
Q 38.140625 66.40625 31.78125 66.40625 
Q 25.390625 66.40625 21.84375 63.234375 
Q 18.3125 60.0625 18.3125 54.390625 
z
" id="DejaVuSans-56"/>
      </defs>
      <g transform="translate(412.319996 315.956875)scale(0.2 -0.2)">
       <use xlink:href="#DejaVuSans-56"/>
      </g>
     </g>
    </g>
    <g id="text_5">
     <!-- log10 of Df -->
     <defs>
      <path d="M 9.421875 75.984375 
L 18.40625 75.984375 
L 18.40625 0 
L 9.421875 0 
z
" id="DejaVuSans-108"/>
      <path d="M 30.609375 48.390625 
Q 23.390625 48.390625 19.1875 42.75 
Q 14.984375 37.109375 14.984375 27.296875 
Q 14.984375 17.484375 19.15625 11.84375 
Q 23.34375 6.203125 30.609375 6.203125 
Q 37.796875 6.203125 41.984375 11.859375 
Q 46.1875 17.53125 46.1875 27.296875 
Q 46.1875 37.015625 41.984375 42.703125 
Q 37.796875 48.390625 30.609375 48.390625 
z
M 30.609375 56 
Q 42.328125 56 49.015625 48.375 
Q 55.71875 40.765625 55.71875 27.296875 
Q 55.71875 13.875 49.015625 6.21875 
Q 42.328125 -1.421875 30.609375 -1.421875 
Q 18.84375 -1.421875 12.171875 6.21875 
Q 5.515625 13.875 5.515625 27.296875 
Q 5.515625 40.765625 12.171875 48.375 
Q 18.84375 56 30.609375 56 
z
" id="DejaVuSans-111"/>
      <path d="M 45.40625 27.984375 
Q 45.40625 37.75 41.375 43.109375 
Q 37.359375 48.484375 30.078125 48.484375 
Q 22.859375 48.484375 18.828125 43.109375 
Q 14.796875 37.75 14.796875 27.984375 
Q 14.796875 18.265625 18.828125 12.890625 
Q 22.859375 7.515625 30.078125 7.515625 
Q 37.359375 7.515625 41.375 12.890625 
Q 45.40625 18.265625 45.40625 27.984375 
z
M 54.390625 6.78125 
Q 54.390625 -7.171875 48.1875 -13.984375 
Q 42 -20.796875 29.203125 -20.796875 
Q 24.46875 -20.796875 20.265625 -20.09375 
Q 16.0625 -19.390625 12.109375 -17.921875 
L 12.109375 -9.1875 
Q 16.0625 -11.328125 19.921875 -12.34375 
Q 23.78125 -13.375 27.78125 -13.375 
Q 36.625 -13.375 41.015625 -8.765625 
Q 45.40625 -4.15625 45.40625 5.171875 
L 45.40625 9.625 
Q 42.625 4.78125 38.28125 2.390625 
Q 33.9375 0 27.875 0 
Q 17.828125 0 11.671875 7.65625 
Q 5.515625 15.328125 5.515625 27.984375 
Q 5.515625 40.671875 11.671875 48.328125 
Q 17.828125 56 27.875 56 
Q 33.9375 56 38.28125 53.609375 
Q 42.625 51.21875 45.40625 46.390625 
L 45.40625 54.6875 
L 54.390625 54.6875 
z
" id="DejaVuSans-103"/>
      <path d="M 12.40625 8.296875 
L 28.515625 8.296875 
L 28.515625 63.921875 
L 10.984375 60.40625 
L 10.984375 69.390625 
L 28.421875 72.90625 
L 38.28125 72.90625 
L 38.28125 8.296875 
L 54.390625 8.296875 
L 54.390625 0 
L 12.40625 0 
z
" id="DejaVuSans-49"/>
      <path id="DejaVuSans-32"/>
      <path d="M 37.109375 75.984375 
L 37.109375 68.5 
L 28.515625 68.5 
Q 23.6875 68.5 21.796875 66.546875 
Q 19.921875 64.59375 19.921875 59.515625 
L 19.921875 54.6875 
L 34.71875 54.6875 
L 34.71875 47.703125 
L 19.921875 47.703125 
L 19.921875 0 
L 10.890625 0 
L 10.890625 47.703125 
L 2.296875 47.703125 
L 2.296875 54.6875 
L 10.890625 54.6875 
L 10.890625 58.5 
Q 10.890625 67.625 15.140625 71.796875 
Q 19.390625 75.984375 28.609375 75.984375 
z
" id="DejaVuSans-102"/>
      <path d="M 19.671875 64.796875 
L 19.671875 8.109375 
L 31.59375 8.109375 
Q 46.6875 8.109375 53.6875 14.9375 
Q 60.6875 21.78125 60.6875 36.53125 
Q 60.6875 51.171875 53.6875 57.984375 
Q 46.6875 64.796875 31.59375 64.796875 
z
M 9.8125 72.90625 
L 30.078125 72.90625 
Q 51.265625 72.90625 61.171875 64.09375 
Q 71.09375 55.28125 71.09375 36.53125 
Q 71.09375 17.671875 61.125 8.828125 
Q 51.171875 0 30.078125 0 
L 9.8125 0 
z
" id="DejaVuSans-68"/>
     </defs>
     <g transform="translate(175.214063 339.313125)scale(0.2 -0.2)">
      <use xlink:href="#DejaVuSans-108"/>
      <use x="27.783203" xlink:href="#DejaVuSans-111"/>
      <use x="88.964844" xlink:href="#DejaVuSans-103"/>
      <use x="152.441406" xlink:href="#DejaVuSans-49"/>
      <use x="216.064453" xlink:href="#DejaVuSans-48"/>
      <use x="279.6875" xlink:href="#DejaVuSans-32"/>
      <use x="311.474609" xlink:href="#DejaVuSans-111"/>
      <use x="372.65625" xlink:href="#DejaVuSans-102"/>
      <use x="407.861328" xlink:href="#DejaVuSans-32"/>
      <use x="439.648438" xlink:href="#DejaVuSans-68"/>
      <use x="516.650391" xlink:href="#DejaVuSans-102"/>
     </g>
    </g>
   </g>
   <g id="matplotlib.axis_2">
    <g id="ytick_1">
     <g id="line2d_9">
      <path clip-path="url(#pb3bb3f550f)" d="M 0 293.76 
L 460.8 293.76 
" style="fill:none;stroke:#b0b0b0;stroke-linecap:square;stroke-width:0.8;"/>
     </g>
     <g id="line2d_10">
      <defs>
       <path d="M 0 0 
L -3.5 0 
" id="m3be7f9c00e" style="stroke:#000000;stroke-width:0.8;"/>
      </defs>
      <g>
       <use style="stroke:#000000;stroke-width:0.8;" x="0" xlink:href="#m3be7f9c00e" y="293.76"/>
      </g>
     </g>
    </g>
    <g id="ytick_2">
     <g id="line2d_11">
      <path clip-path="url(#pb3bb3f550f)" d="M 0 236.274059 
L 460.8 236.274059 
" style="fill:none;stroke:#b0b0b0;stroke-linecap:square;stroke-width:0.8;"/>
     </g>
     <g id="line2d_12">
      <g>
       <use style="stroke:#000000;stroke-width:0.8;" x="0" xlink:href="#m3be7f9c00e" y="236.274059"/>
      </g>
     </g>
    </g>
    <g id="ytick_3">
     <g id="line2d_13">
      <path clip-path="url(#pb3bb3f550f)" d="M 0 178.788119 
L 460.8 178.788119 
" style="fill:none;stroke:#b0b0b0;stroke-linecap:square;stroke-width:0.8;"/>
     </g>
     <g id="line2d_14">
      <g>
       <use style="stroke:#000000;stroke-width:0.8;" x="0" xlink:href="#m3be7f9c00e" y="178.788119"/>
      </g>
     </g>
    </g>
    <g id="ytick_4">
     <g id="line2d_15">
      <path clip-path="url(#pb3bb3f550f)" d="M 0 121.302178 
L 460.8 121.302178 
" style="fill:none;stroke:#b0b0b0;stroke-linecap:square;stroke-width:0.8;"/>
     </g>
     <g id="line2d_16">
      <g>
       <use style="stroke:#000000;stroke-width:0.8;" x="0" xlink:href="#m3be7f9c00e" y="121.302178"/>
      </g>
     </g>
    </g>
    <g id="ytick_5">
     <g id="line2d_17">
      <path clip-path="url(#pb3bb3f550f)" d="M 0 63.816238 
L 460.8 63.816238 
" style="fill:none;stroke:#b0b0b0;stroke-linecap:square;stroke-width:0.8;"/>
     </g>
     <g id="line2d_18">
      <g>
       <use style="stroke:#000000;stroke-width:0.8;" x="0" xlink:href="#m3be7f9c00e" y="63.816238"/>
      </g>
     </g>
    </g>
    <g id="ytick_6">
     <g id="line2d_19">
      <path clip-path="url(#pb3bb3f550f)" d="M 0 6.330297 
L 460.8 6.330297 
" style="fill:none;stroke:#b0b0b0;stroke-linecap:square;stroke-width:0.8;"/>
     </g>
     <g id="line2d_20">
      <g>
       <use style="stroke:#000000;stroke-width:0.8;" x="0" xlink:href="#m3be7f9c00e" y="6.330297"/>
      </g>
     </g>
    </g>
   </g>
   <g id="line2d_21">
    <path clip-path="url(#pb3bb3f550f)" d="M 229.313704 293.76 
L 229.313704 288.969505 
L 229.662527 288.969505 
L 229.662527 284.17901 
L 232.763196 284.17901 
L 232.763196 279.388515 
L 233.097024 279.388515 
L 233.097024 274.59802 
L 233.640176 274.59802 
L 233.640176 269.807525 
L 236.904663 269.807525 
L 236.904663 265.01703 
L 238.427809 265.01703 
L 238.427809 260.226535 
L 238.46444 260.226535 
L 238.46444 255.43604 
L 240.396098 255.43604 
L 240.396098 250.645545 
L 240.529049 250.645545 
L 240.529049 245.85505 
L 241.181111 245.85505 
L 241.181111 241.064554 
L 241.465048 241.064554 
L 241.465048 236.274059 
L 241.656195 236.274059 
L 241.656195 231.483564 
L 241.928816 231.483564 
L 241.928816 226.693069 
L 243.162915 226.693069 
L 243.162915 221.902574 
L 244.59752 221.902574 
L 244.59752 217.112079 
L 245.508148 217.112079 
L 245.508148 212.321584 
L 246.938047 212.321584 
L 246.938047 207.531089 
L 247.353822 207.531089 
L 247.353822 202.740594 
L 247.875553 202.740594 
L 247.875553 197.950099 
L 250.233783 197.950099 
L 250.233783 193.159604 
L 251.367011 193.159604 
L 251.367011 188.369109 
L 252.403718 188.369109 
L 252.403718 183.578614 
L 253.599004 183.578614 
L 253.599004 178.788119 
L 253.651906 178.788119 
L 253.651906 173.997624 
L 253.837971 173.997624 
L 253.837971 169.207129 
L 254.94505 169.207129 
L 254.94505 164.416634 
L 255.695996 164.416634 
L 255.695996 159.626139 
L 255.830822 159.626139 
L 255.830822 154.835644 
L 255.873612 154.835644 
L 255.873612 150.045149 
L 257.262738 150.045149 
L 257.262738 145.254653 
L 258.528304 145.254653 
L 258.528304 140.464158 
L 259.460982 140.464158 
L 259.460982 135.673663 
L 261.60207 135.673663 
L 261.60207 130.883168 
L 261.635604 130.883168 
L 261.635604 126.092673 
L 262.375342 126.092673 
L 262.375342 121.302178 
L 263.393215 121.302178 
L 263.393215 116.511683 
L 263.428708 116.511683 
L 263.428708 111.721188 
L 263.579089 111.721188 
L 263.579089 106.930693 
L 265.849764 106.930693 
L 265.849764 102.140198 
L 268.003968 102.140198 
L 268.003968 97.349703 
L 268.251614 97.349703 
L 268.251614 92.559208 
L 269.015516 92.559208 
L 269.015516 87.768713 
L 270.117726 87.768713 
L 270.117726 82.978218 
L 270.748324 82.978218 
L 270.748324 78.187723 
L 270.81292 78.187723 
L 270.81292 73.397228 
L 272.322627 73.397228 
L 272.322627 68.606733 
L 272.68464 68.606733 
L 272.68464 63.816238 
L 273.653647 63.816238 
L 273.653647 59.025743 
L 275.552694 59.025743 
L 275.552694 54.235248 
L 276.777328 54.235248 
L 276.777328 49.444752 
L 280.436394 49.444752 
L 280.436394 44.654257 
L 280.89082 44.654257 
L 280.89082 39.863762 
L 283.32752 39.863762 
L 283.32752 35.073267 
L 286.947033 35.073267 
L 286.947033 30.282772 
L 287.005728 30.282772 
L 287.005728 25.492277 
L 297.35176 25.492277 
L 297.35176 20.701782 
L 303.212232 20.701782 
L 303.212232 15.911287 
L 303.681088 15.911287 
L 303.681088 11.120792 
L 317.304329 11.120792 
L 317.304329 6.330297 
L 317.304329 6.330297 
L 317.304329 6.330297 
L 460.8 6.330297 
" style="fill:none;stroke:#ff0000;stroke-linecap:square;stroke-width:3;"/>
   </g>
   <g id="line2d_22">
    <path clip-path="url(#pb3bb3f550f)" d="M 253.010565 293.76 
L 253.010565 288.969505 
L 257.964369 288.969505 
L 257.964369 284.17901 
L 259.128347 284.17901 
L 259.128347 279.388515 
L 266.54435 279.388515 
L 266.54435 274.59802 
L 269.755098 274.59802 
L 269.755098 269.807525 
L 271.828472 269.807525 
L 271.828472 265.01703 
L 273.454655 265.01703 
L 273.454655 260.226535 
L 273.822272 260.226535 
L 273.822272 255.43604 
L 274.732504 255.43604 
L 274.732504 250.645545 
L 275.161051 250.645545 
L 275.161051 245.85505 
L 275.556427 245.85505 
L 275.556427 241.064554 
L 277.040434 241.064554 
L 277.040434 236.274059 
L 278.953591 236.274059 
L 278.953591 231.483564 
L 281.174886 231.483564 
L 281.174886 226.693069 
L 286.907268 226.693069 
L 286.907268 221.902574 
L 290.008476 221.902574 
L 290.008476 217.112079 
L 295.156042 217.112079 
L 295.156042 212.321584 
L 295.542926 212.321584 
L 295.542926 207.531089 
L 307.532246 207.531089 
L 307.532246 202.740594 
L 308.883445 202.740594 
L 308.883445 197.950099 
L 318.247258 197.950099 
L 318.247258 193.159604 
L 321.901751 193.159604 
L 321.901751 188.369109 
L 322.997653 188.369109 
L 322.997653 183.578614 
L 324.581269 183.578614 
L 324.581269 178.788119 
L 325.176601 178.788119 
L 325.176601 173.997624 
L 325.196403 173.997624 
L 325.196403 169.207129 
L 325.509577 169.207129 
L 325.509577 164.416634 
L 326.655815 164.416634 
L 326.655815 159.626139 
L 327.74319 159.626139 
L 327.74319 154.835644 
L 327.808447 154.835644 
L 327.808447 150.045149 
L 327.861933 150.045149 
L 327.861933 145.254653 
L 327.911272 145.254653 
L 327.911272 140.464158 
L 327.999092 140.464158 
L 327.999092 135.673663 
L 328.29007 135.673663 
L 328.29007 130.883168 
L 328.46075 130.883168 
L 328.46075 126.092673 
L 329.26066 126.092673 
L 329.26066 121.302178 
L 330.014431 121.302178 
L 330.014431 116.511683 
L 331.863819 116.511683 
L 331.863819 111.721188 
L 333.917033 111.721188 
L 333.917033 106.930693 
L 334.223609 106.930693 
L 334.223609 102.140198 
L 334.591021 102.140198 
L 334.591021 97.349703 
L 336.757583 97.349703 
L 336.757583 92.559208 
L 338.887945 92.559208 
L 338.887945 87.768713 
L 339.241554 87.768713 
L 339.241554 82.978218 
L 339.337488 82.978218 
L 339.337488 78.187723 
L 340.817486 78.187723 
L 340.817486 73.397228 
L 341.480573 73.397228 
L 341.480573 68.606733 
L 341.679962 68.606733 
L 341.679962 63.816238 
L 342.014941 63.816238 
L 342.014941 59.025743 
L 342.213722 59.025743 
L 342.213722 54.235248 
L 342.797839 54.235248 
L 342.797839 49.444752 
L 345.952119 49.444752 
L 345.952119 44.654257 
L 346.890131 44.654257 
L 346.890131 39.863762 
L 347.034197 39.863762 
L 347.034197 35.073267 
L 350.664813 35.073267 
L 350.664813 30.282772 
L 351.79321 30.282772 
L 351.79321 25.492277 
L 353.869045 25.492277 
L 353.869045 20.701782 
L 359.865751 20.701782 
L 359.865751 15.911287 
L 361.129956 15.911287 
L 361.129956 11.120792 
L 365.768251 11.120792 
L 365.768251 6.330297 
L 365.768251 6.330297 
L 365.768251 6.330297 
L 460.8 6.330297 
" style="fill:none;stroke:#00bfbf;stroke-linecap:square;stroke-width:1.5;"/>
   </g>
   <g id="line2d_23">
    <path clip-path="url(#pb3bb3f550f)" d="M 250.825622 293.76 
L 250.825622 288.969505 
L 252.286384 288.969505 
L 252.286384 284.17901 
L 252.828824 284.17901 
L 252.828824 279.388515 
L 253.010565 279.388515 
L 253.010565 274.59802 
L 253.869555 274.59802 
L 253.869555 269.807525 
L 257.338063 269.807525 
L 257.338063 265.01703 
L 257.964369 265.01703 
L 257.964369 260.226535 
L 260.582373 260.226535 
L 260.582373 255.43604 
L 262.492078 255.43604 
L 262.492078 250.645545 
L 263.233452 250.645545 
L 263.233452 245.85505 
L 266.087202 245.85505 
L 266.087202 241.064554 
L 268.44579 241.064554 
L 268.44579 236.274059 
L 269.346196 236.274059 
L 269.346196 231.483564 
L 275.161051 231.483564 
L 275.161051 226.693069 
L 275.448675 226.693069 
L 275.448675 221.902574 
L 278.953591 221.902574 
L 278.953591 217.112079 
L 281.174886 217.112079 
L 281.174886 212.321584 
L 281.497303 212.321584 
L 281.497303 207.531089 
L 285.960019 207.531089 
L 285.960019 202.740594 
L 288.750876 202.740594 
L 288.750876 197.950099 
L 289.573351 197.950099 
L 289.573351 193.159604 
L 295.156042 193.159604 
L 295.156042 188.369109 
L 295.542926 188.369109 
L 295.542926 183.578614 
L 305.114786 183.578614 
L 305.114786 178.788119 
L 305.232947 178.788119 
L 305.232947 173.997624 
L 306.930796 173.997624 
L 306.930796 169.207129 
L 307.532246 169.207129 
L 307.532246 164.416634 
L 308.023284 164.416634 
L 308.023284 159.626139 
L 308.761943 159.626139 
L 308.761943 154.835644 
L 308.883445 154.835644 
L 308.883445 150.045149 
L 310.63048 150.045149 
L 310.63048 145.254653 
L 314.774596 145.254653 
L 314.774596 140.464158 
L 315.613057 140.464158 
L 315.613057 135.673663 
L 316.651104 135.673663 
L 316.651104 130.883168 
L 317.323073 130.883168 
L 317.323073 126.092673 
L 317.953561 126.092673 
L 317.953561 121.302178 
L 318.172947 121.302178 
L 318.172947 116.511683 
L 318.247258 116.511683 
L 318.247258 111.721188 
L 318.883784 111.721188 
L 318.883784 106.930693 
L 319.005056 106.930693 
L 319.005056 102.140198 
L 319.065645 102.140198 
L 319.065645 97.349703 
L 319.955543 97.349703 
L 319.955543 92.559208 
L 320.688306 92.559208 
L 320.688306 87.768713 
L 321.20706 87.768713 
L 321.20706 82.978218 
L 321.351119 82.978218 
L 321.351119 78.187723 
L 321.607888 78.187723 
L 321.607888 73.397228 
L 321.901751 73.397228 
L 321.901751 68.606733 
L 322.948591 68.606733 
L 322.948591 63.816238 
L 326.277315 63.816238 
L 326.277315 59.025743 
L 327.764229 59.025743 
L 327.764229 54.235248 
L 328.004053 54.235248 
L 328.004053 49.444752 
L 333.010753 49.444752 
L 333.010753 44.654257 
L 334.27127 44.654257 
L 334.27127 39.863762 
L 335.749095 39.863762 
L 335.749095 35.073267 
L 339.003364 35.073267 
L 339.003364 30.282772 
L 341.480573 30.282772 
L 341.480573 25.492277 
L 342.158055 25.492277 
L 342.158055 20.701782 
L 342.797839 20.701782 
L 342.797839 15.911287 
L 343.592526 15.911287 
L 343.592526 11.120792 
L 347.922407 11.120792 
L 347.922407 6.330297 
L 347.922407 6.330297 
L 347.922407 6.330297 
L 460.8 6.330297 
" style="fill:none;stroke:#bf00bf;stroke-linecap:square;stroke-width:1.5;"/>
   </g>
   <g id="line2d_24">
    <path clip-path="url(#pb3bb3f550f)" d="M 240.216163 293.76 
L 240.216163 288.969505 
L 250.302593 288.969505 
L 250.302593 284.17901 
L 250.472493 284.17901 
L 250.472493 279.388515 
L 250.825622 279.388515 
L 250.825622 274.59802 
L 252.286384 274.59802 
L 252.286384 269.807525 
L 252.441246 269.807525 
L 252.441246 265.01703 
L 252.828824 265.01703 
L 252.828824 260.226535 
L 257.338063 260.226535 
L 257.338063 255.43604 
L 257.964369 255.43604 
L 257.964369 250.645545 
L 258.693841 250.645545 
L 258.693841 245.85505 
L 258.878003 245.85505 
L 258.878003 241.064554 
L 259.782103 241.064554 
L 259.782103 236.274059 
L 260.072886 236.274059 
L 260.072886 231.483564 
L 261.737189 231.483564 
L 261.737189 226.693069 
L 262.310498 226.693069 
L 262.310498 221.902574 
L 262.492078 221.902574 
L 262.492078 217.112079 
L 263.233452 217.112079 
L 263.233452 212.321584 
L 266.087202 212.321584 
L 266.087202 207.531089 
L 266.787639 207.531089 
L 266.787639 202.740594 
L 269.346196 202.740594 
L 269.346196 197.950099 
L 272.756487 197.950099 
L 272.756487 193.159604 
L 275.161051 193.159604 
L 275.161051 188.369109 
L 281.497303 188.369109 
L 281.497303 183.578614 
L 286.531256 183.578614 
L 286.531256 178.788119 
L 288.750876 178.788119 
L 288.750876 173.997624 
L 289.573351 173.997624 
L 289.573351 169.207129 
L 290.860505 169.207129 
L 290.860505 164.416634 
L 293.748307 164.416634 
L 293.748307 159.626139 
L 295.117322 159.626139 
L 295.117322 154.835644 
L 295.156042 154.835644 
L 295.156042 150.045149 
L 295.542926 150.045149 
L 295.542926 145.254653 
L 295.613762 145.254653 
L 295.613762 140.464158 
L 298.686004 140.464158 
L 298.686004 135.673663 
L 299.232676 135.673663 
L 299.232676 130.883168 
L 299.8116 130.883168 
L 299.8116 126.092673 
L 300.246342 126.092673 
L 300.246342 121.302178 
L 303.166539 121.302178 
L 303.166539 116.511683 
L 305.114786 116.511683 
L 305.114786 111.721188 
L 305.232947 111.721188 
L 305.232947 106.930693 
L 306.321684 106.930693 
L 306.321684 102.140198 
L 307.400934 102.140198 
L 307.400934 97.349703 
L 308.023284 97.349703 
L 308.023284 92.559208 
L 308.263073 92.559208 
L 308.263073 87.768713 
L 308.870969 87.768713 
L 308.870969 82.978218 
L 308.883445 82.978218 
L 308.883445 78.187723 
L 309.908649 78.187723 
L 309.908649 73.397228 
L 312.228707 73.397228 
L 312.228707 68.606733 
L 314.480714 68.606733 
L 314.480714 63.816238 
L 315.613057 63.816238 
L 315.613057 59.025743 
L 316.651104 59.025743 
L 316.651104 54.235248 
L 317.365683 54.235248 
L 317.365683 49.444752 
L 318.207975 49.444752 
L 318.207975 44.654257 
L 318.66465 44.654257 
L 318.66465 39.863762 
L 320.688306 39.863762 
L 320.688306 35.073267 
L 321.607888 35.073267 
L 321.607888 30.282772 
L 322.948591 30.282772 
L 322.948591 25.492277 
L 326.239788 25.492277 
L 326.239788 20.701782 
L 327.450862 20.701782 
L 327.450862 15.911287 
L 335.749095 15.911287 
L 335.749095 11.120792 
L 341.480573 11.120792 
L 341.480573 6.330297 
L 341.480573 6.330297 
L 341.480573 6.330297 
L 460.8 6.330297 
" style="fill:none;stroke:#000000;stroke-linecap:square;stroke-width:1.5;"/>
   </g>
   <g id="line2d_25">
    <path clip-path="url(#pb3bb3f550f)" d="M 240.216163 293.76 
L 240.216163 288.969505 
L 241.537498 288.969505 
L 241.537498 284.17901 
L 245.411885 284.17901 
L 245.411885 279.388515 
L 245.801891 279.388515 
L 245.801891 274.59802 
L 249.547699 274.59802 
L 249.547699 269.807525 
L 250.283119 269.807525 
L 250.283119 265.01703 
L 250.472493 265.01703 
L 250.472493 260.226535 
L 250.825622 260.226535 
L 250.825622 255.43604 
L 251.976583 255.43604 
L 251.976583 250.645545 
L 252.286384 250.645545 
L 252.286384 245.85505 
L 252.441246 245.85505 
L 252.441246 241.064554 
L 252.700062 241.064554 
L 252.700062 236.274059 
L 253.616132 236.274059 
L 253.616132 231.483564 
L 254.889626 231.483564 
L 254.889626 226.693069 
L 255.002296 226.693069 
L 255.002296 221.902574 
L 255.947744 221.902574 
L 255.947744 217.112079 
L 257.262738 217.112079 
L 257.262738 212.321584 
L 257.338063 212.321584 
L 257.338063 207.531089 
L 258.492949 207.531089 
L 258.492949 202.740594 
L 258.761571 202.740594 
L 258.761571 197.950099 
L 258.878003 197.950099 
L 258.878003 193.159604 
L 259.552272 193.159604 
L 259.552272 188.369109 
L 260.334052 188.369109 
L 260.334052 183.578614 
L 260.590835 183.578614 
L 260.590835 178.788119 
L 263.234076 178.788119 
L 263.234076 173.997624 
L 267.953866 173.997624 
L 267.953866 169.207129 
L 270.283376 169.207129 
L 270.283376 164.416634 
L 271.104282 164.416634 
L 271.104282 159.626139 
L 275.161051 159.626139 
L 275.161051 154.835644 
L 281.439881 154.835644 
L 281.439881 150.045149 
L 286.319185 150.045149 
L 286.319185 145.254653 
L 286.531256 145.254653 
L 286.531256 140.464158 
L 286.774219 140.464158 
L 286.774219 135.673663 
L 288.116658 135.673663 
L 288.116658 130.883168 
L 288.750876 130.883168 
L 288.750876 126.092673 
L 291.232699 126.092673 
L 291.232699 121.302178 
L 291.634579 121.302178 
L 291.634579 116.511683 
L 291.794415 116.511683 
L 291.794415 111.721188 
L 293.748307 111.721188 
L 293.748307 106.930693 
L 294.029773 106.930693 
L 294.029773 102.140198 
L 295.117322 102.140198 
L 295.117322 97.349703 
L 295.156042 97.349703 
L 295.156042 92.559208 
L 295.542926 92.559208 
L 295.542926 87.768713 
L 295.613762 87.768713 
L 295.613762 82.978218 
L 295.823312 82.978218 
L 295.823312 78.187723 
L 297.298028 78.187723 
L 297.298028 73.397228 
L 297.971824 73.397228 
L 297.971824 68.606733 
L 298.686004 68.606733 
L 298.686004 63.816238 
L 299.232676 63.816238 
L 299.232676 59.025743 
L 299.258702 59.025743 
L 299.258702 54.235248 
L 299.8116 54.235248 
L 299.8116 49.444752 
L 299.81448 49.444752 
L 299.81448 44.654257 
L 302.512437 44.654257 
L 302.512437 39.863762 
L 302.53848 39.863762 
L 302.53848 35.073267 
L 305.169232 35.073267 
L 305.169232 30.282772 
L 308.495127 30.282772 
L 308.495127 25.492277 
L 309.246685 25.492277 
L 309.246685 20.701782 
L 309.908102 20.701782 
L 309.908102 15.911287 
L 321.607888 15.911287 
L 321.607888 11.120792 
L 327.450862 11.120792 
L 327.450862 6.330297 
L 327.450862 6.330297 
L 327.450862 6.330297 
L 460.8 6.330297 
" style="fill:none;stroke:#00bfbf;stroke-linecap:square;stroke-width:1.5;"/>
   </g>
   <g id="line2d_26">
    <path clip-path="url(#pb3bb3f550f)" d="M 229.313704 293.76 
L 229.313704 288.969505 
L 229.662527 288.969505 
L 229.662527 284.17901 
L 232.763196 284.17901 
L 232.763196 279.388515 
L 233.097024 279.388515 
L 233.097024 274.59802 
L 233.640176 274.59802 
L 233.640176 269.807525 
L 237.077738 269.807525 
L 237.077738 265.01703 
L 238.427809 265.01703 
L 238.427809 260.226535 
L 238.46444 260.226535 
L 238.46444 255.43604 
L 240.396098 255.43604 
L 240.396098 250.645545 
L 241.465048 250.645545 
L 241.465048 245.85505 
L 241.656195 245.85505 
L 241.656195 241.064554 
L 241.928816 241.064554 
L 241.928816 236.274059 
L 243.135331 236.274059 
L 243.135331 231.483564 
L 243.162915 231.483564 
L 243.162915 226.693069 
L 245.086288 226.693069 
L 245.086288 221.902574 
L 245.094978 221.902574 
L 245.094978 217.112079 
L 245.508148 217.112079 
L 245.508148 212.321584 
L 247.875553 212.321584 
L 247.875553 207.531089 
L 250.20297 207.531089 
L 250.20297 202.740594 
L 250.233783 202.740594 
L 250.233783 197.950099 
L 250.472493 197.950099 
L 250.472493 193.159604 
L 251.367011 193.159604 
L 251.367011 188.369109 
L 253.651906 188.369109 
L 253.651906 183.578614 
L 253.837971 183.578614 
L 253.837971 178.788119 
L 254.94505 178.788119 
L 254.94505 173.997624 
L 255.500093 173.997624 
L 255.500093 169.207129 
L 255.830822 169.207129 
L 255.830822 164.416634 
L 255.873612 164.416634 
L 255.873612 159.626139 
L 257.262738 159.626139 
L 257.262738 154.835644 
L 258.528304 154.835644 
L 258.528304 150.045149 
L 259.460982 150.045149 
L 259.460982 145.254653 
L 261.60207 145.254653 
L 261.60207 140.464158 
L 261.635604 140.464158 
L 261.635604 135.673663 
L 262.375342 135.673663 
L 262.375342 130.883168 
L 263.393215 130.883168 
L 263.393215 126.092673 
L 263.579089 126.092673 
L 263.579089 121.302178 
L 265.648874 121.302178 
L 265.648874 116.511683 
L 265.658978 116.511683 
L 265.658978 111.721188 
L 265.849764 111.721188 
L 265.849764 106.930693 
L 268.003968 106.930693 
L 268.003968 102.140198 
L 269.015516 102.140198 
L 269.015516 97.349703 
L 269.659537 97.349703 
L 269.659537 92.559208 
L 270.138017 92.559208 
L 270.138017 87.768713 
L 270.748324 87.768713 
L 270.748324 82.978218 
L 271.161732 82.978218 
L 271.161732 78.187723 
L 271.542946 78.187723 
L 271.542946 73.397228 
L 272.322627 73.397228 
L 272.322627 68.606733 
L 273.653647 68.606733 
L 273.653647 63.816238 
L 273.928258 63.816238 
L 273.928258 59.025743 
L 275.552694 59.025743 
L 275.552694 54.235248 
L 276.777328 54.235248 
L 276.777328 49.444752 
L 280.89082 49.444752 
L 280.89082 44.654257 
L 281.204504 44.654257 
L 281.204504 39.863762 
L 283.32752 39.863762 
L 283.32752 35.073267 
L 286.947033 35.073267 
L 286.947033 30.282772 
L 287.009235 30.282772 
L 287.009235 25.492277 
L 297.35176 25.492277 
L 297.35176 20.701782 
L 303.212232 20.701782 
L 303.212232 15.911287 
L 305.128306 15.911287 
L 305.128306 11.120792 
L 317.304329 11.120792 
L 317.304329 6.330297 
L 317.304329 6.330297 
L 317.304329 6.330297 
L 460.8 6.330297 
" style="fill:none;stroke:#bf00bf;stroke-linecap:square;stroke-width:1.5;"/>
   </g>
   <g id="patch_3">
    <path d="M 0 293.76 
L 0 3.456 
" style="fill:none;stroke:#000000;stroke-linecap:square;stroke-linejoin:miter;stroke-width:0.8;"/>
   </g>
   <g id="patch_4">
    <path d="M 460.8 293.76 
L 460.8 3.456 
" style="fill:none;stroke:#000000;stroke-linecap:square;stroke-linejoin:miter;stroke-width:0.8;"/>
   </g>
   <g id="patch_5">
    <path d="M 0 293.76 
L 460.8 293.76 
" style="fill:none;stroke:#000000;stroke-linecap:square;stroke-linejoin:miter;stroke-width:0.8;"/>
   </g>
   <g id="patch_6">
    <path d="M 0 3.456 
L 460.8 3.456 
" style="fill:none;stroke:#000000;stroke-linecap:square;stroke-linejoin:miter;stroke-width:0.8;"/>
   </g>
   <g id="text_6">
    <!-- {f6-f9}, 5-D -->
    <defs>
     <path d="M 51.125 -9.28125 
L 51.125 -16.3125 
L 48.09375 -16.3125 
Q 35.9375 -16.3125 31.8125 -12.6875 
Q 27.6875 -9.078125 27.6875 1.703125 
L 27.6875 13.375 
Q 27.6875 20.75 25.046875 23.578125 
Q 22.40625 26.421875 15.484375 26.421875 
L 12.5 26.421875 
L 12.5 33.40625 
L 15.484375 33.40625 
Q 22.46875 33.40625 25.078125 36.203125 
Q 27.6875 39.015625 27.6875 46.296875 
L 27.6875 58.015625 
Q 27.6875 68.796875 31.8125 72.390625 
Q 35.9375 75.984375 48.09375 75.984375 
L 51.125 75.984375 
L 51.125 69 
L 47.796875 69 
Q 40.921875 69 38.8125 66.84375 
Q 36.71875 64.703125 36.71875 57.8125 
L 36.71875 45.703125 
Q 36.71875 38.03125 34.5 34.5625 
Q 32.28125 31.109375 26.90625 29.890625 
Q 32.328125 28.5625 34.515625 25.09375 
Q 36.71875 21.625 36.71875 14.015625 
L 36.71875 1.90625 
Q 36.71875 -4.984375 38.8125 -7.125 
Q 40.921875 -9.28125 47.796875 -9.28125 
z
" id="DejaVuSans-123"/>
     <path d="M 33.015625 40.375 
Q 26.375 40.375 22.484375 35.828125 
Q 18.609375 31.296875 18.609375 23.390625 
Q 18.609375 15.53125 22.484375 10.953125 
Q 26.375 6.390625 33.015625 6.390625 
Q 39.65625 6.390625 43.53125 10.953125 
Q 47.40625 15.53125 47.40625 23.390625 
Q 47.40625 31.296875 43.53125 35.828125 
Q 39.65625 40.375 33.015625 40.375 
z
M 52.59375 71.296875 
L 52.59375 62.3125 
Q 48.875 64.0625 45.09375 64.984375 
Q 41.3125 65.921875 37.59375 65.921875 
Q 27.828125 65.921875 22.671875 59.328125 
Q 17.53125 52.734375 16.796875 39.40625 
Q 19.671875 43.65625 24.015625 45.921875 
Q 28.375 48.1875 33.59375 48.1875 
Q 44.578125 48.1875 50.953125 41.515625 
Q 57.328125 34.859375 57.328125 23.390625 
Q 57.328125 12.15625 50.6875 5.359375 
Q 44.046875 -1.421875 33.015625 -1.421875 
Q 20.359375 -1.421875 13.671875 8.265625 
Q 6.984375 17.96875 6.984375 36.375 
Q 6.984375 53.65625 15.1875 63.9375 
Q 23.390625 74.21875 37.203125 74.21875 
Q 40.921875 74.21875 44.703125 73.484375 
Q 48.484375 72.75 52.59375 71.296875 
z
" id="DejaVuSans-54"/>
     <path d="M 10.984375 1.515625 
L 10.984375 10.5 
Q 14.703125 8.734375 18.5 7.8125 
Q 22.3125 6.890625 25.984375 6.890625 
Q 35.75 6.890625 40.890625 13.453125 
Q 46.046875 20.015625 46.78125 33.40625 
Q 43.953125 29.203125 39.59375 26.953125 
Q 35.25 24.703125 29.984375 24.703125 
Q 19.046875 24.703125 12.671875 31.3125 
Q 6.296875 37.9375 6.296875 49.421875 
Q 6.296875 60.640625 12.9375 67.421875 
Q 19.578125 74.21875 30.609375 74.21875 
Q 43.265625 74.21875 49.921875 64.515625 
Q 56.59375 54.828125 56.59375 36.375 
Q 56.59375 19.140625 48.40625 8.859375 
Q 40.234375 -1.421875 26.421875 -1.421875 
Q 22.703125 -1.421875 18.890625 -0.6875 
Q 15.09375 0.046875 10.984375 1.515625 
z
M 30.609375 32.421875 
Q 37.25 32.421875 41.125 36.953125 
Q 45.015625 41.5 45.015625 49.421875 
Q 45.015625 57.28125 41.125 61.84375 
Q 37.25 66.40625 30.609375 66.40625 
Q 23.96875 66.40625 20.09375 61.84375 
Q 16.21875 57.28125 16.21875 49.421875 
Q 16.21875 41.5 20.09375 36.953125 
Q 23.96875 32.421875 30.609375 32.421875 
z
" id="DejaVuSans-57"/>
     <path d="M 12.5 -9.28125 
L 15.921875 -9.28125 
Q 22.75 -9.28125 24.828125 -7.171875 
Q 26.90625 -5.078125 26.90625 1.90625 
L 26.90625 14.015625 
Q 26.90625 21.625 29.09375 25.09375 
Q 31.296875 28.5625 36.71875 29.890625 
Q 31.296875 31.109375 29.09375 34.5625 
Q 26.90625 38.03125 26.90625 45.703125 
L 26.90625 57.8125 
Q 26.90625 64.75 24.828125 66.875 
Q 22.75 69 15.921875 69 
L 12.5 69 
L 12.5 75.984375 
L 15.578125 75.984375 
Q 27.734375 75.984375 31.8125 72.390625 
Q 35.890625 68.796875 35.890625 58.015625 
L 35.890625 46.296875 
Q 35.890625 39.015625 38.515625 36.203125 
Q 41.15625 33.40625 48.09375 33.40625 
L 51.125 33.40625 
L 51.125 26.421875 
L 48.09375 26.421875 
Q 41.15625 26.421875 38.515625 23.578125 
Q 35.890625 20.75 35.890625 13.375 
L 35.890625 1.703125 
Q 35.890625 -9.078125 31.8125 -12.6875 
Q 27.734375 -16.3125 15.578125 -16.3125 
L 12.5 -16.3125 
z
" id="DejaVuSans-125"/>
     <path d="M 11.71875 12.40625 
L 22.015625 12.40625 
L 22.015625 4 
L 14.015625 -11.625 
L 7.71875 -11.625 
L 11.71875 4 
z
" id="DejaVuSans-44"/>
     <path d="M 10.796875 72.90625 
L 49.515625 72.90625 
L 49.515625 64.59375 
L 19.828125 64.59375 
L 19.828125 46.734375 
Q 21.96875 47.46875 24.109375 47.828125 
Q 26.265625 48.1875 28.421875 48.1875 
Q 40.625 48.1875 47.75 41.5 
Q 54.890625 34.8125 54.890625 23.390625 
Q 54.890625 11.625 47.5625 5.09375 
Q 40.234375 -1.421875 26.90625 -1.421875 
Q 22.3125 -1.421875 17.546875 -0.640625 
Q 12.796875 0.140625 7.71875 1.703125 
L 7.71875 11.625 
Q 12.109375 9.234375 16.796875 8.0625 
Q 21.484375 6.890625 26.703125 6.890625 
Q 35.15625 6.890625 40.078125 11.328125 
Q 45.015625 15.765625 45.015625 23.390625 
Q 45.015625 31 40.078125 35.4375 
Q 35.15625 39.890625 26.703125 39.890625 
Q 22.75 39.890625 18.8125 39.015625 
Q 14.890625 38.140625 10.796875 36.28125 
z
" id="DejaVuSans-53"/>
    </defs>
    <g transform="translate(331.334 287.95392)scale(0.2 -0.2)">
     <use xlink:href="#DejaVuSans-123"/>
     <use x="63.623047" xlink:href="#DejaVuSans-102"/>
     <use x="98.828125" xlink:href="#DejaVuSans-54"/>
     <use x="162.451172" xlink:href="#DejaVuSans-45"/>
     <use x="198.535156" xlink:href="#DejaVuSans-102"/>
     <use x="233.740234" xlink:href="#DejaVuSans-57"/>
     <use x="297.363281" xlink:href="#DejaVuSans-125"/>
     <use x="360.986328" xlink:href="#DejaVuSans-44"/>
     <use x="392.773438" xlink:href="#DejaVuSans-32"/>
     <use x="424.560547" xlink:href="#DejaVuSans-53"/>
     <use x="488.183594" xlink:href="#DejaVuSans-45"/>
     <use x="524.267578" xlink:href="#DejaVuSans-68"/>
    </g>
   </g>
   <g id="text_7">
    <!-- v2.4 -->
    <defs>
     <path d="M 2.984375 54.6875 
L 12.5 54.6875 
L 29.59375 8.796875 
L 46.6875 54.6875 
L 56.203125 54.6875 
L 35.6875 0 
L 23.484375 0 
z
" id="DejaVuSans-118"/>
     <path d="M 19.1875 8.296875 
L 53.609375 8.296875 
L 53.609375 0 
L 7.328125 0 
L 7.328125 8.296875 
Q 12.9375 14.109375 22.625 23.890625 
Q 32.328125 33.6875 34.8125 36.53125 
Q 39.546875 41.84375 41.421875 45.53125 
Q 43.3125 49.21875 43.3125 52.78125 
Q 43.3125 58.59375 39.234375 62.25 
Q 35.15625 65.921875 28.609375 65.921875 
Q 23.96875 65.921875 18.8125 64.3125 
Q 13.671875 62.703125 7.8125 59.421875 
L 7.8125 69.390625 
Q 13.765625 71.78125 18.9375 73 
Q 24.125 74.21875 28.421875 74.21875 
Q 39.75 74.21875 46.484375 68.546875 
Q 53.21875 62.890625 53.21875 53.421875 
Q 53.21875 48.921875 51.53125 44.890625 
Q 49.859375 40.875 45.40625 35.40625 
Q 44.1875 33.984375 37.640625 27.21875 
Q 31.109375 20.453125 19.1875 8.296875 
z
" id="DejaVuSans-50"/>
     <path d="M 10.6875 12.40625 
L 21 12.40625 
L 21 0 
L 10.6875 0 
z
" id="DejaVuSans-46"/>
    </defs>
    <g style="fill:#808080;" transform="translate(219.489063 288.777272)scale(0.1 -0.1)">
     <use xlink:href="#DejaVuSans-118"/>
     <use x="59.179688" xlink:href="#DejaVuSans-50"/>
     <use x="122.802734" xlink:href="#DejaVuSans-46"/>
     <use x="154.589844" xlink:href="#DejaVuSans-52"/>
    </g>
   </g>
  </g>
 </g>
 <defs>
  <clipPath id="pb3bb3f550f">
   <rect height="290.304" width="460.8" x="0" y="3.456"/>
  </clipPath>
 </defs>
</svg>
