<?xml version="1.0" encoding="utf-8" standalone="no"?>
<!DOCTYPE svg PUBLIC "-//W3C//DTD SVG 1.1//EN"
  "http://www.w3.org/Graphics/SVG/1.1/DTD/svg11.dtd">
<!-- Created with matplotlib (https://matplotlib.org/) -->
<svg height="345.6pt" version="1.1" viewBox="0 0 460.8 345.6" width="460.8pt" xmlns="http://www.w3.org/2000/svg" xmlns:xlink="http://www.w3.org/1999/xlink">
 <defs>
  <style type="text/css">
*{stroke-linecap:butt;stroke-linejoin:round;}
  </style>
 </defs>
 <g id="figure_1">
  <g id="patch_1">
   <path d="M 0 345.6 
L 460.8 345.6 
L 460.8 0 
L 0 0 
z
" style="fill:#ffffff;"/>
  </g>
  <g id="axes_1">
   <g id="patch_2">
    <path d="M 0 293.76 
L 460.8 293.76 
L 460.8 3.456 
L 0 3.456 
z
" style="fill:#ffffff;"/>
   </g>
   <g id="matplotlib.axis_1">
    <g id="xtick_1">
     <g id="line2d_1">
      <path clip-path="url(#pd8d2f84808)" d="M 104.585791 293.76 
L 104.585791 3.456 
" style="fill:none;stroke:#b0b0b0;stroke-linecap:square;stroke-width:0.8;"/>
     </g>
     <g id="line2d_2">
      <defs>
       <path d="M 0 0 
L 0 3.5 
" id="m53fde091fc" style="stroke:#000000;stroke-width:0.8;"/>
      </defs>
      <g>
       <use style="stroke:#000000;stroke-width:0.8;" x="104.585791" xlink:href="#m53fde091fc" y="293.76"/>
      </g>
     </g>
     <g id="text_1">
      <!-- -4 -->
      <defs>
       <path d="M 4.890625 31.390625 
L 31.203125 31.390625 
L 31.203125 23.390625 
L 4.890625 23.390625 
z
" id="DejaVuSans-45"/>
       <path d="M 37.796875 64.3125 
L 12.890625 25.390625 
L 37.796875 25.390625 
z
M 35.203125 72.90625 
L 47.609375 72.90625 
L 47.609375 25.390625 
L 58.015625 25.390625 
L 58.015625 17.1875 
L 47.609375 17.1875 
L 47.609375 0 
L 37.796875 0 
L 37.796875 17.1875 
L 4.890625 17.1875 
L 4.890625 26.703125 
z
" id="DejaVuSans-52"/>
      </defs>
      <g transform="translate(94.615479 315.956875)scale(0.2 -0.2)">
       <use xlink:href="#DejaVuSans-45"/>
       <use x="36.083984" xlink:href="#DejaVuSans-52"/>
      </g>
     </g>
    </g>
    <g id="xtick_2">
     <g id="line2d_3">
      <path clip-path="url(#pd8d2f84808)" d="M 209.284693 293.76 
L 209.284693 3.456 
" style="fill:none;stroke:#b0b0b0;stroke-linecap:square;stroke-width:0.8;"/>
     </g>
     <g id="line2d_4">
      <g>
       <use style="stroke:#000000;stroke-width:0.8;" x="209.284693" xlink:href="#m53fde091fc" y="293.76"/>
      </g>
     </g>
     <g id="text_2">
      <!-- 0 -->
      <defs>
       <path d="M 31.78125 66.40625 
Q 24.171875 66.40625 20.328125 58.90625 
Q 16.5 51.421875 16.5 36.375 
Q 16.5 21.390625 20.328125 13.890625 
Q 24.171875 6.390625 31.78125 6.390625 
Q 39.453125 6.390625 43.28125 13.890625 
Q 47.125 21.390625 47.125 36.375 
Q 47.125 51.421875 43.28125 58.90625 
Q 39.453125 66.40625 31.78125 66.40625 
z
M 31.78125 74.21875 
Q 44.046875 74.21875 50.515625 64.515625 
Q 56.984375 54.828125 56.984375 36.375 
Q 56.984375 17.96875 50.515625 8.265625 
Q 44.046875 -1.421875 31.78125 -1.421875 
Q 19.53125 -1.421875 13.0625 8.265625 
Q 6.59375 17.96875 6.59375 36.375 
Q 6.59375 54.828125 13.0625 64.515625 
Q 19.53125 74.21875 31.78125 74.21875 
z
" id="DejaVuSans-48"/>
      </defs>
      <g transform="translate(202.922193 315.956875)scale(0.2 -0.2)">
       <use xlink:href="#DejaVuSans-48"/>
      </g>
     </g>
    </g>
    <g id="xtick_3">
     <g id="line2d_5">
      <path clip-path="url(#pd8d2f84808)" d="M 313.983595 293.76 
L 313.983595 3.456 
" style="fill:none;stroke:#b0b0b0;stroke-linecap:square;stroke-width:0.8;"/>
     </g>
     <g id="line2d_6">
      <g>
       <use style="stroke:#000000;stroke-width:0.8;" x="313.983595" xlink:href="#m53fde091fc" y="293.76"/>
      </g>
     </g>
     <g id="text_3">
      <!-- 4 -->
      <g transform="translate(307.621095 315.956875)scale(0.2 -0.2)">
       <use xlink:href="#DejaVuSans-52"/>
      </g>
     </g>
    </g>
    <g id="xtick_4">
     <g id="line2d_7">
      <path clip-path="url(#pd8d2f84808)" d="M 418.682496 293.76 
L 418.682496 3.456 
" style="fill:none;stroke:#b0b0b0;stroke-linecap:square;stroke-width:0.8;"/>
     </g>
     <g id="line2d_8">
      <g>
       <use style="stroke:#000000;stroke-width:0.8;" x="418.682496" xlink:href="#m53fde091fc" y="293.76"/>
      </g>
     </g>
     <g id="text_4">
      <!-- 8 -->
      <defs>
       <path d="M 31.78125 34.625 
Q 24.75 34.625 20.71875 30.859375 
Q 16.703125 27.09375 16.703125 20.515625 
Q 16.703125 13.921875 20.71875 10.15625 
Q 24.75 6.390625 31.78125 6.390625 
Q 38.8125 6.390625 42.859375 10.171875 
Q 46.921875 13.96875 46.921875 20.515625 
Q 46.921875 27.09375 42.890625 30.859375 
Q 38.875 34.625 31.78125 34.625 
z
M 21.921875 38.8125 
Q 15.578125 40.375 12.03125 44.71875 
Q 8.5 49.078125 8.5 55.328125 
Q 8.5 64.0625 14.71875 69.140625 
Q 20.953125 74.21875 31.78125 74.21875 
Q 42.671875 74.21875 48.875 69.140625 
Q 55.078125 64.0625 55.078125 55.328125 
Q 55.078125 49.078125 51.53125 44.71875 
Q 48 40.375 41.703125 38.8125 
Q 48.828125 37.15625 52.796875 32.3125 
Q 56.78125 27.484375 56.78125 20.515625 
Q 56.78125 9.90625 50.3125 4.234375 
Q 43.84375 -1.421875 31.78125 -1.421875 
Q 19.734375 -1.421875 13.25 4.234375 
Q 6.78125 9.90625 6.78125 20.515625 
Q 6.78125 27.484375 10.78125 32.3125 
Q 14.796875 37.15625 21.921875 38.8125 
z
M 18.3125 54.390625 
Q 18.3125 48.734375 21.84375 45.5625 
Q 25.390625 42.390625 31.78125 42.390625 
Q 38.140625 42.390625 41.71875 45.5625 
Q 45.3125 48.734375 45.3125 54.390625 
Q 45.3125 60.0625 41.71875 63.234375 
Q 38.140625 66.40625 31.78125 66.40625 
Q 25.390625 66.40625 21.84375 63.234375 
Q 18.3125 60.0625 18.3125 54.390625 
z
" id="DejaVuSans-56"/>
      </defs>
      <g transform="translate(412.319996 315.956875)scale(0.2 -0.2)">
       <use xlink:href="#DejaVuSans-56"/>
      </g>
     </g>
    </g>
    <g id="text_5">
     <!-- log10 of Df -->
     <defs>
      <path d="M 9.421875 75.984375 
L 18.40625 75.984375 
L 18.40625 0 
L 9.421875 0 
z
" id="DejaVuSans-108"/>
      <path d="M 30.609375 48.390625 
Q 23.390625 48.390625 19.1875 42.75 
Q 14.984375 37.109375 14.984375 27.296875 
Q 14.984375 17.484375 19.15625 11.84375 
Q 23.34375 6.203125 30.609375 6.203125 
Q 37.796875 6.203125 41.984375 11.859375 
Q 46.1875 17.53125 46.1875 27.296875 
Q 46.1875 37.015625 41.984375 42.703125 
Q 37.796875 48.390625 30.609375 48.390625 
z
M 30.609375 56 
Q 42.328125 56 49.015625 48.375 
Q 55.71875 40.765625 55.71875 27.296875 
Q 55.71875 13.875 49.015625 6.21875 
Q 42.328125 -1.421875 30.609375 -1.421875 
Q 18.84375 -1.421875 12.171875 6.21875 
Q 5.515625 13.875 5.515625 27.296875 
Q 5.515625 40.765625 12.171875 48.375 
Q 18.84375 56 30.609375 56 
z
" id="DejaVuSans-111"/>
      <path d="M 45.40625 27.984375 
Q 45.40625 37.75 41.375 43.109375 
Q 37.359375 48.484375 30.078125 48.484375 
Q 22.859375 48.484375 18.828125 43.109375 
Q 14.796875 37.75 14.796875 27.984375 
Q 14.796875 18.265625 18.828125 12.890625 
Q 22.859375 7.515625 30.078125 7.515625 
Q 37.359375 7.515625 41.375 12.890625 
Q 45.40625 18.265625 45.40625 27.984375 
z
M 54.390625 6.78125 
Q 54.390625 -7.171875 48.1875 -13.984375 
Q 42 -20.796875 29.203125 -20.796875 
Q 24.46875 -20.796875 20.265625 -20.09375 
Q 16.0625 -19.390625 12.109375 -17.921875 
L 12.109375 -9.1875 
Q 16.0625 -11.328125 19.921875 -12.34375 
Q 23.78125 -13.375 27.78125 -13.375 
Q 36.625 -13.375 41.015625 -8.765625 
Q 45.40625 -4.15625 45.40625 5.171875 
L 45.40625 9.625 
Q 42.625 4.78125 38.28125 2.390625 
Q 33.9375 0 27.875 0 
Q 17.828125 0 11.671875 7.65625 
Q 5.515625 15.328125 5.515625 27.984375 
Q 5.515625 40.671875 11.671875 48.328125 
Q 17.828125 56 27.875 56 
Q 33.9375 56 38.28125 53.609375 
Q 42.625 51.21875 45.40625 46.390625 
L 45.40625 54.6875 
L 54.390625 54.6875 
z
" id="DejaVuSans-103"/>
      <path d="M 12.40625 8.296875 
L 28.515625 8.296875 
L 28.515625 63.921875 
L 10.984375 60.40625 
L 10.984375 69.390625 
L 28.421875 72.90625 
L 38.28125 72.90625 
L 38.28125 8.296875 
L 54.390625 8.296875 
L 54.390625 0 
L 12.40625 0 
z
" id="DejaVuSans-49"/>
      <path id="DejaVuSans-32"/>
      <path d="M 37.109375 75.984375 
L 37.109375 68.5 
L 28.515625 68.5 
Q 23.6875 68.5 21.796875 66.546875 
Q 19.921875 64.59375 19.921875 59.515625 
L 19.921875 54.6875 
L 34.71875 54.6875 
L 34.71875 47.703125 
L 19.921875 47.703125 
L 19.921875 0 
L 10.890625 0 
L 10.890625 47.703125 
L 2.296875 47.703125 
L 2.296875 54.6875 
L 10.890625 54.6875 
L 10.890625 58.5 
Q 10.890625 67.625 15.140625 71.796875 
Q 19.390625 75.984375 28.609375 75.984375 
z
" id="DejaVuSans-102"/>
      <path d="M 19.671875 64.796875 
L 19.671875 8.109375 
L 31.59375 8.109375 
Q 46.6875 8.109375 53.6875 14.9375 
Q 60.6875 21.78125 60.6875 36.53125 
Q 60.6875 51.171875 53.6875 57.984375 
Q 46.6875 64.796875 31.59375 64.796875 
z
M 9.8125 72.90625 
L 30.078125 72.90625 
Q 51.265625 72.90625 61.171875 64.09375 
Q 71.09375 55.28125 71.09375 36.53125 
Q 71.09375 17.671875 61.125 8.828125 
Q 51.171875 0 30.078125 0 
L 9.8125 0 
z
" id="DejaVuSans-68"/>
     </defs>
     <g transform="translate(175.214063 339.313125)scale(0.2 -0.2)">
      <use xlink:href="#DejaVuSans-108"/>
      <use x="27.783203" xlink:href="#DejaVuSans-111"/>
      <use x="88.964844" xlink:href="#DejaVuSans-103"/>
      <use x="152.441406" xlink:href="#DejaVuSans-49"/>
      <use x="216.064453" xlink:href="#DejaVuSans-48"/>
      <use x="279.6875" xlink:href="#DejaVuSans-32"/>
      <use x="311.474609" xlink:href="#DejaVuSans-111"/>
      <use x="372.65625" xlink:href="#DejaVuSans-102"/>
      <use x="407.861328" xlink:href="#DejaVuSans-32"/>
      <use x="439.648438" xlink:href="#DejaVuSans-68"/>
      <use x="516.650391" xlink:href="#DejaVuSans-102"/>
     </g>
    </g>
   </g>
   <g id="matplotlib.axis_2">
    <g id="ytick_1">
     <g id="line2d_9">
      <path clip-path="url(#pd8d2f84808)" d="M 0 293.76 
L 460.8 293.76 
" style="fill:none;stroke:#b0b0b0;stroke-linecap:square;stroke-width:0.8;"/>
     </g>
     <g id="line2d_10">
      <defs>
       <path d="M 0 0 
L -3.5 0 
" id="m4a3876b43d" style="stroke:#000000;stroke-width:0.8;"/>
      </defs>
      <g>
       <use style="stroke:#000000;stroke-width:0.8;" x="0" xlink:href="#m4a3876b43d" y="293.76"/>
      </g>
     </g>
    </g>
    <g id="ytick_2">
     <g id="line2d_11">
      <path clip-path="url(#pd8d2f84808)" d="M 0 236.274059 
L 460.8 236.274059 
" style="fill:none;stroke:#b0b0b0;stroke-linecap:square;stroke-width:0.8;"/>
     </g>
     <g id="line2d_12">
      <g>
       <use style="stroke:#000000;stroke-width:0.8;" x="0" xlink:href="#m4a3876b43d" y="236.274059"/>
      </g>
     </g>
    </g>
    <g id="ytick_3">
     <g id="line2d_13">
      <path clip-path="url(#pd8d2f84808)" d="M 0 178.788119 
L 460.8 178.788119 
" style="fill:none;stroke:#b0b0b0;stroke-linecap:square;stroke-width:0.8;"/>
     </g>
     <g id="line2d_14">
      <g>
       <use style="stroke:#000000;stroke-width:0.8;" x="0" xlink:href="#m4a3876b43d" y="178.788119"/>
      </g>
     </g>
    </g>
    <g id="ytick_4">
     <g id="line2d_15">
      <path clip-path="url(#pd8d2f84808)" d="M 0 121.302178 
L 460.8 121.302178 
" style="fill:none;stroke:#b0b0b0;stroke-linecap:square;stroke-width:0.8;"/>
     </g>
     <g id="line2d_16">
      <g>
       <use style="stroke:#000000;stroke-width:0.8;" x="0" xlink:href="#m4a3876b43d" y="121.302178"/>
      </g>
     </g>
    </g>
    <g id="ytick_5">
     <g id="line2d_17">
      <path clip-path="url(#pd8d2f84808)" d="M 0 63.816238 
L 460.8 63.816238 
" style="fill:none;stroke:#b0b0b0;stroke-linecap:square;stroke-width:0.8;"/>
     </g>
     <g id="line2d_18">
      <g>
       <use style="stroke:#000000;stroke-width:0.8;" x="0" xlink:href="#m4a3876b43d" y="63.816238"/>
      </g>
     </g>
    </g>
    <g id="ytick_6">
     <g id="line2d_19">
      <path clip-path="url(#pd8d2f84808)" d="M 0 6.330297 
L 460.8 6.330297 
" style="fill:none;stroke:#b0b0b0;stroke-linecap:square;stroke-width:0.8;"/>
     </g>
     <g id="line2d_20">
      <g>
       <use style="stroke:#000000;stroke-width:0.8;" x="0" xlink:href="#m4a3876b43d" y="6.330297"/>
      </g>
     </g>
    </g>
   </g>
   <g id="line2d_21">
    <path clip-path="url(#pd8d2f84808)" d="M 209.10351 293.76 
L 209.10351 289.927604 
L 214.76949 289.927604 
L 214.76949 286.095208 
L 214.969572 286.095208 
L 214.969572 282.262812 
L 215.961359 282.262812 
L 215.961359 278.430416 
L 216.4964 278.430416 
L 216.4964 274.59802 
L 217.381226 274.59802 
L 217.381226 270.765624 
L 218.897401 270.765624 
L 218.897401 266.933228 
L 219.357143 266.933228 
L 219.357143 263.100832 
L 221.682978 263.100832 
L 221.682978 259.268436 
L 222.814054 259.268436 
L 222.814054 255.43604 
L 224.036247 255.43604 
L 224.036247 251.603644 
L 224.479552 251.603644 
L 224.479552 247.771248 
L 225.817499 247.771248 
L 225.817499 243.938851 
L 229.08306 243.938851 
L 229.08306 240.106455 
L 233.376267 240.106455 
L 233.376267 236.274059 
L 245.811949 236.274059 
L 245.811949 232.441663 
L 252.141065 232.441663 
L 252.141065 228.609267 
L 255.729655 228.609267 
L 255.729655 224.776871 
L 258.781679 224.776871 
L 258.781679 220.944475 
L 259.871029 220.944475 
L 259.871029 217.112079 
L 260.297724 217.112079 
L 260.363642 209.447287 
L 262.859375 209.447287 
L 262.859375 205.614891 
L 264.975631 205.614891 
L 264.975631 201.782495 
L 266.542126 201.782495 
L 266.542126 197.950099 
L 267.060636 197.950099 
L 267.060636 194.117703 
L 267.305196 194.117703 
L 267.305196 190.285307 
L 267.967976 190.285307 
L 267.967976 186.452911 
L 268.304071 186.452911 
L 268.304071 182.620515 
L 269.467335 182.620515 
L 269.467335 178.788119 
L 269.976898 178.788119 
L 269.976898 174.955723 
L 270.225766 174.955723 
L 270.225766 171.123327 
L 271.59382 171.123327 
L 271.59382 167.290931 
L 271.816643 167.290931 
L 271.926519 159.626139 
L 272.890092 159.626139 
L 272.890092 155.793743 
L 274.754866 155.793743 
L 274.754866 151.961347 
L 276.374059 151.961347 
L 276.380584 144.296554 
L 278.20576 144.296554 
L 278.20576 140.464158 
L 281.070678 140.464158 
L 281.070678 136.631762 
L 281.321364 136.631762 
L 281.321364 132.799366 
L 282.364944 132.799366 
L 282.364944 128.96697 
L 297.132248 128.96697 
L 297.132248 125.134574 
L 300.1216 125.134574 
L 300.1216 121.302178 
L 306.738269 121.302178 
L 306.738269 117.469782 
L 307.292315 117.469782 
L 307.292315 113.637386 
L 313.548301 113.637386 
L 313.548301 109.80499 
L 314.88014 109.80499 
L 314.88014 105.972594 
L 315.042664 105.972594 
L 315.042664 102.140198 
L 320.964772 102.140198 
L 320.964772 98.307802 
L 321.215994 98.307802 
L 321.215994 94.475406 
L 321.614174 94.475406 
L 321.614174 90.64301 
L 322.13933 90.64301 
L 322.13933 86.810614 
L 325.480425 86.810614 
L 325.480425 82.978218 
L 331.572337 82.978218 
L 331.572337 79.145822 
L 335.396232 79.145822 
L 335.396232 75.313426 
L 335.898784 75.313426 
L 335.898784 71.48103 
L 339.10853 71.48103 
L 339.10853 67.648634 
L 339.645342 67.648634 
L 339.645342 63.816238 
L 339.877303 63.816238 
L 339.877303 59.983842 
L 341.670482 59.983842 
L 341.670482 56.151446 
L 347.293706 56.151446 
L 347.293706 52.31905 
L 363.747497 52.31905 
L 363.747497 48.486653 
L 371.049217 48.486653 
L 371.115259 40.821861 
L 372.135604 40.821861 
L 372.135604 36.989465 
L 375.790727 36.989465 
L 375.790727 33.157069 
L 376.793484 33.157069 
L 376.793484 29.324673 
L 377.410098 29.324673 
L 377.410098 25.492277 
L 379.81797 25.492277 
L 379.81797 21.659881 
L 383.514422 21.659881 
L 383.514422 17.827485 
L 385.327975 17.827485 
L 385.327975 13.995089 
L 387.659023 13.995089 
L 387.659023 10.162693 
L 395.840864 10.162693 
L 395.840864 6.330297 
L 395.840864 6.330297 
L 460.8 6.330297 
L 460.8 6.330297 
" style="fill:none;stroke:#ff0000;stroke-linecap:square;stroke-width:3;"/>
   </g>
   <g id="line2d_22">
    <path clip-path="url(#pd8d2f84808)" d="M 236.821602 293.76 
L 236.821602 289.927604 
L 236.994396 289.927604 
L 236.994396 286.095208 
L 237.363231 286.095208 
L 237.363231 282.262812 
L 241.267431 282.262812 
L 241.267431 278.430416 
L 243.664486 278.430416 
L 243.664486 274.59802 
L 244.07782 274.59802 
L 244.07782 270.765624 
L 247.226126 270.765624 
L 247.226126 266.933228 
L 249.557299 266.933228 
L 249.557299 263.100832 
L 250.04793 263.100832 
L 250.04793 259.268436 
L 251.079824 259.268436 
L 251.172055 251.603644 
L 255.323617 251.603644 
L 255.323617 247.771248 
L 258.390138 247.771248 
L 258.390138 243.938851 
L 262.20801 243.938851 
L 262.20801 240.106455 
L 264.000525 240.106455 
L 264.000525 236.274059 
L 279.005326 236.274059 
L 279.005326 232.441663 
L 281.549102 232.441663 
L 281.549102 228.609267 
L 285.742693 228.609267 
L 285.742693 224.776871 
L 286.681558 224.776871 
L 286.681558 220.944475 
L 287.125242 220.944475 
L 287.125242 217.112079 
L 287.779452 217.112079 
L 287.779452 213.279683 
L 288.268258 213.279683 
L 288.268258 209.447287 
L 288.922484 209.447287 
L 288.922484 205.614891 
L 289.04695 205.614891 
L 289.04695 201.782495 
L 290.832022 201.782495 
L 290.832022 197.950099 
L 291.184099 197.950099 
L 291.184099 194.117703 
L 293.445148 194.117703 
L 293.445148 190.285307 
L 294.359681 190.285307 
L 294.359681 186.452911 
L 296.720084 186.452911 
L 296.720084 182.620515 
L 299.654559 182.620515 
L 299.654559 178.788119 
L 332.804783 178.788119 
L 332.804783 174.955723 
L 335.574825 174.955723 
L 335.582126 167.290931 
L 344.873503 167.290931 
L 344.873503 163.458535 
L 345.777018 163.458535 
L 345.777018 159.626139 
L 352.372055 159.626139 
L 352.372055 155.793743 
L 355.241521 155.793743 
L 355.241521 151.961347 
L 358.919624 151.961347 
L 358.919624 148.12895 
L 361.342736 148.12895 
L 361.342736 144.296554 
L 361.867242 144.296554 
L 361.946877 136.631762 
L 362.710125 136.631762 
L 362.710125 132.799366 
L 367.498024 132.799366 
L 367.498024 128.96697 
L 367.896222 128.96697 
L 367.908873 121.302178 
L 369.657391 121.302178 
L 369.657391 117.469782 
L 374.376086 117.469782 
L 374.376086 113.637386 
L 375.947747 113.637386 
L 375.947747 109.80499 
L 378.417889 109.80499 
L 378.417889 105.972594 
L 380.318592 105.972594 
L 380.318592 102.140198 
L 384.073388 102.140198 
L 384.073388 98.307802 
L 386.926 98.307802 
L 386.926 94.475406 
L 387.796653 94.475406 
L 387.796653 90.64301 
L 389.063055 90.64301 
L 389.063055 86.810614 
L 390.610835 86.810614 
L 390.610835 82.978218 
L 391.327961 82.978218 
L 391.327961 79.145822 
L 395.549873 79.145822 
L 395.549873 75.313426 
L 395.695263 75.313426 
L 395.695263 71.48103 
L 396.203684 71.48103 
L 396.203684 67.648634 
L 399.175717 67.648634 
L 399.175717 63.816238 
L 401.043221 63.816238 
L 401.043221 59.983842 
L 402.763433 59.983842 
L 402.763433 56.151446 
L 404.979451 56.151446 
L 404.979451 52.31905 
L 405.616619 52.31905 
L 405.616619 48.486653 
L 406.538596 48.486653 
L 406.632783 40.821861 
L 407.429737 40.821861 
L 407.429737 36.989465 
L 413.054528 36.989465 
L 413.054528 33.157069 
L 413.829515 33.157069 
L 413.829515 29.324673 
L 417.513856 29.324673 
L 417.513856 25.492277 
L 418.058528 25.492277 
L 418.058528 21.659881 
L 422.539883 21.659881 
L 422.539883 17.827485 
L 429.335304 17.827485 
L 429.335304 13.995089 
L 439.991019 13.995089 
L 439.991019 10.162693 
L 447.611774 10.162693 
L 447.611774 6.330297 
L 447.611774 6.330297 
L 460.8 6.330297 
L 460.8 6.330297 
" style="fill:none;stroke:#00bfbf;stroke-linecap:square;stroke-width:1.5;"/>
   </g>
   <g id="line2d_23">
    <path clip-path="url(#pd8d2f84808)" d="M 223.115934 293.76 
L 223.115934 289.927604 
L 223.840865 289.927604 
L 223.840865 286.095208 
L 231.453071 286.095208 
L 231.453071 282.262812 
L 232.981976 282.262812 
L 232.981976 278.430416 
L 234.625323 278.430416 
L 234.625323 274.59802 
L 235.31007 274.59802 
L 235.31007 270.765624 
L 237.062002 270.765624 
L 237.062002 266.933228 
L 241.95653 266.933228 
L 241.95653 263.100832 
L 243.664486 263.100832 
L 243.664486 259.268436 
L 243.788447 259.268436 
L 243.882817 251.603644 
L 244.07782 251.603644 
L 244.07782 247.771248 
L 247.992274 247.771248 
L 247.992274 243.938851 
L 251.079824 243.938851 
L 251.079824 240.106455 
L 257.777415 240.106455 
L 257.777415 236.274059 
L 276.200006 236.274059 
L 276.200006 232.441663 
L 279.005326 232.441663 
L 279.005326 228.609267 
L 281.549102 228.609267 
L 281.549102 224.776871 
L 282.767297 224.776871 
L 282.845429 217.112079 
L 283.293313 217.112079 
L 283.293313 213.279683 
L 284.564167 213.279683 
L 284.564167 209.447287 
L 285.619238 209.447287 
L 285.619238 205.614891 
L 285.744387 205.614891 
L 285.744387 201.782495 
L 286.358798 201.782495 
L 286.358798 197.950099 
L 286.681558 197.950099 
L 286.759692 190.285307 
L 286.817829 190.285307 
L 286.817829 186.452911 
L 287.09242 186.452911 
L 287.09242 182.620515 
L 288.79676 182.620515 
L 288.79676 178.788119 
L 296.104045 178.788119 
L 296.104045 174.955723 
L 304.113943 174.955723 
L 304.113943 171.123327 
L 306.21059 171.123327 
L 306.21059 167.290931 
L 319.295435 167.290931 
L 319.295435 163.458535 
L 324.726505 163.458535 
L 324.726505 159.626139 
L 332.804783 159.626139 
L 332.804783 155.793743 
L 335.582126 155.793743 
L 335.582126 151.961347 
L 339.528716 151.961347 
L 339.528716 148.12895 
L 343.146159 148.12895 
L 343.146159 144.296554 
L 344.873503 144.296554 
L 344.873503 140.464158 
L 345.344655 140.464158 
L 345.344655 136.631762 
L 345.777018 136.631762 
L 345.777018 132.799366 
L 348.154078 132.799366 
L 348.154078 128.96697 
L 349.713934 128.96697 
L 349.713934 125.134574 
L 350.495512 125.134574 
L 350.495512 121.302178 
L 352.372055 121.302178 
L 352.372055 117.469782 
L 355.241521 117.469782 
L 355.241521 113.637386 
L 355.643866 113.637386 
L 355.643866 109.80499 
L 356.798498 109.80499 
L 356.798498 105.972594 
L 358.057909 105.972594 
L 358.089598 98.307802 
L 363.709687 98.307802 
L 363.709687 94.475406 
L 367.498024 94.475406 
L 367.498024 90.64301 
L 367.896222 90.64301 
L 367.896222 86.810614 
L 369.219945 86.810614 
L 369.219945 82.978218 
L 370.655605 82.978218 
L 370.655605 79.145822 
L 372.784565 79.145822 
L 372.784565 75.313426 
L 374.376086 75.313426 
L 374.376086 71.48103 
L 382.46202 71.48103 
L 382.46202 67.648634 
L 387.199781 67.648634 
L 387.199781 63.816238 
L 390.610835 63.816238 
L 390.610835 59.983842 
L 394.659813 59.983842 
L 394.659813 56.151446 
L 398.704728 56.151446 
L 398.778862 48.486653 
L 399.761222 48.486653 
L 399.761222 44.654257 
L 399.987755 44.654257 
L 399.987755 40.821861 
L 401.780213 40.821861 
L 401.780213 36.989465 
L 402.162357 36.989465 
L 402.162357 33.157069 
L 405.481307 33.157069 
L 405.481307 29.324673 
L 405.866421 29.324673 
L 405.866421 25.492277 
L 406.159493 25.492277 
L 406.159493 21.659881 
L 407.429737 21.659881 
L 407.429737 17.827485 
L 412.638312 17.827485 
L 412.638312 13.995089 
L 413.829515 13.995089 
L 413.829515 10.162693 
L 415.666243 10.162693 
L 415.666243 6.330297 
L 415.666243 6.330297 
L 460.8 6.330297 
L 460.8 6.330297 
" style="fill:none;stroke:#bf00bf;stroke-linecap:square;stroke-width:1.5;"/>
   </g>
   <g id="line2d_24">
    <path clip-path="url(#pd8d2f84808)" d="M 223.115934 293.76 
L 223.115934 289.927604 
L 223.840865 289.927604 
L 223.840865 286.095208 
L 223.973419 286.095208 
L 223.973419 282.262812 
L 228.803425 282.262812 
L 228.803425 278.430416 
L 230.237225 278.430416 
L 230.237225 274.59802 
L 231.453071 274.59802 
L 231.453071 270.765624 
L 232.82673 270.765624 
L 232.82673 266.933228 
L 232.981976 266.933228 
L 232.981976 263.100832 
L 234.24115 263.100832 
L 234.24115 259.268436 
L 235.31007 259.268436 
L 235.31007 255.43604 
L 235.795267 255.43604 
L 235.795267 251.603644 
L 236.615328 251.603644 
L 236.615328 247.771248 
L 239.563337 247.771248 
L 239.563337 243.938851 
L 243.398506 243.938851 
L 243.398506 240.106455 
L 243.788447 240.106455 
L 243.788447 236.274059 
L 265.908843 236.274059 
L 265.908843 232.441663 
L 272.256654 232.441663 
L 272.256654 228.609267 
L 273.562952 228.609267 
L 273.562952 224.776871 
L 276.200006 224.776871 
L 276.200006 220.944475 
L 279.005326 220.944475 
L 279.005326 217.112079 
L 279.207815 217.112079 
L 279.207815 213.279683 
L 279.376169 213.279683 
L 279.376169 209.447287 
L 280.229377 209.447287 
L 280.229377 205.614891 
L 281.048662 205.614891 
L 281.048662 201.782495 
L 281.321746 201.782495 
L 281.321746 197.950099 
L 281.549102 197.950099 
L 281.549102 194.117703 
L 282.845429 194.117703 
L 282.845429 190.285307 
L 283.842825 190.285307 
L 283.842825 186.452911 
L 285.630406 186.452911 
L 285.630406 182.620515 
L 286.681558 182.620515 
L 286.759692 174.955723 
L 286.817829 174.955723 
L 286.817829 171.123327 
L 288.79676 171.123327 
L 288.79676 167.290931 
L 299.457991 167.290931 
L 299.457991 163.458535 
L 304.113943 163.458535 
L 304.113943 159.626139 
L 306.21059 159.626139 
L 306.21059 155.793743 
L 315.562235 155.793743 
L 315.562235 151.961347 
L 319.295435 151.961347 
L 319.295435 148.12895 
L 320.157264 148.12895 
L 320.157264 144.296554 
L 320.819252 144.296554 
L 320.819252 140.464158 
L 324.726505 140.464158 
L 324.726505 136.631762 
L 332.498784 136.631762 
L 332.498784 132.799366 
L 339.528716 132.799366 
L 339.528716 128.96697 
L 340.373609 128.96697 
L 340.373609 125.134574 
L 342.881419 125.134574 
L 342.881419 121.302178 
L 344.873503 121.302178 
L 344.983681 113.637386 
L 345.344655 113.637386 
L 345.344655 109.80499 
L 347.493043 109.80499 
L 347.493043 105.972594 
L 348.154078 105.972594 
L 348.154078 102.140198 
L 349.713934 102.140198 
L 349.713934 98.307802 
L 351.427386 98.307802 
L 351.427386 94.475406 
L 352.395176 94.475406 
L 352.395176 90.64301 
L 355.241521 90.64301 
L 355.241521 86.810614 
L 355.643866 86.810614 
L 355.643866 82.978218 
L 356.798498 82.978218 
L 356.798498 79.145822 
L 357.348431 79.145822 
L 357.348431 75.313426 
L 361.003889 75.313426 
L 361.003889 71.48103 
L 361.440045 71.48103 
L 361.440045 67.648634 
L 370.655605 67.648634 
L 370.655605 63.816238 
L 386.25286 63.816238 
L 386.25286 59.983842 
L 388.820806 59.983842 
L 388.820806 56.151446 
L 390.610835 56.151446 
L 390.610835 52.31905 
L 391.219971 52.31905 
L 391.219971 48.486653 
L 393.372528 48.486653 
L 393.372528 44.654257 
L 394.659813 44.654257 
L 394.659813 40.821861 
L 395.790238 40.821861 
L 395.790238 36.989465 
L 398.704728 36.989465 
L 398.778862 29.324673 
L 401.05076 29.324673 
L 401.05076 25.492277 
L 401.780213 25.492277 
L 401.780213 21.659881 
L 402.541843 21.659881 
L 402.541843 17.827485 
L 403.565627 17.827485 
L 403.565627 13.995089 
L 404.564431 13.995089 
L 404.564431 10.162693 
L 405.481307 10.162693 
L 405.481307 6.330297 
L 405.481307 6.330297 
L 460.8 6.330297 
L 460.8 6.330297 
" style="fill:none;stroke:#000000;stroke-linecap:square;stroke-width:1.5;"/>
   </g>
   <g id="line2d_25">
    <path clip-path="url(#pd8d2f84808)" d="M 216.669474 293.76 
L 216.669474 289.927604 
L 222.690785 289.927604 
L 222.690785 286.095208 
L 223.115934 286.095208 
L 223.115934 282.262812 
L 223.79071 282.262812 
L 223.831601 274.59802 
L 223.973419 274.59802 
L 223.973419 270.765624 
L 224.525658 270.765624 
L 224.525658 266.933228 
L 224.727203 266.933228 
L 224.727203 263.100832 
L 225.806337 263.100832 
L 225.806337 259.268436 
L 227.355093 259.268436 
L 227.355093 255.43604 
L 227.968484 255.43604 
L 227.968484 251.603644 
L 231.064031 251.603644 
L 231.064031 247.771248 
L 232.13335 247.771248 
L 232.13335 243.938851 
L 234.24115 243.938851 
L 234.24115 240.106455 
L 235.795267 240.106455 
L 235.795267 236.274059 
L 265.908843 236.274059 
L 265.908843 232.441663 
L 271.926519 232.441663 
L 271.926519 228.609267 
L 272.256654 228.609267 
L 272.256654 224.776871 
L 272.450766 224.776871 
L 272.450766 220.944475 
L 273.562952 220.944475 
L 273.562952 217.112079 
L 274.118004 217.112079 
L 274.118004 213.279683 
L 275.104152 213.279683 
L 275.104152 209.447287 
L 278.139831 209.447287 
L 278.139831 205.614891 
L 278.295439 205.614891 
L 278.295439 201.782495 
L 278.528934 201.782495 
L 278.592111 194.117703 
L 278.829826 194.117703 
L 278.829826 190.285307 
L 279.376169 190.285307 
L 279.376169 186.452911 
L 280.229377 186.452911 
L 280.229377 182.620515 
L 280.919799 182.620515 
L 280.919799 178.788119 
L 281.549102 178.788119 
L 281.549102 174.955723 
L 283.018318 174.955723 
L 283.018318 171.123327 
L 283.418862 171.123327 
L 283.418862 167.290931 
L 283.842825 167.290931 
L 283.842825 163.458535 
L 288.79676 163.458535 
L 288.79676 159.626139 
L 291.113658 159.626139 
L 291.113658 155.793743 
L 294.905097 155.793743 
L 294.905097 151.961347 
L 302.33299 151.961347 
L 302.33299 148.12895 
L 304.113943 148.12895 
L 304.113943 144.296554 
L 313.548301 144.296554 
L 313.548301 140.464158 
L 314.991698 140.464158 
L 314.991698 136.631762 
L 315.562235 136.631762 
L 315.562235 132.799366 
L 319.295435 132.799366 
L 319.295435 128.96697 
L 319.930815 128.96697 
L 319.930815 125.134574 
L 320.157264 125.134574 
L 320.157264 121.302178 
L 325.480425 121.302178 
L 325.480425 117.469782 
L 330.273635 117.469782 
L 330.273635 113.637386 
L 332.257876 113.637386 
L 332.257876 109.80499 
L 332.498784 109.80499 
L 332.498784 105.972594 
L 333.426235 105.972594 
L 333.426235 102.140198 
L 334.302511 102.140198 
L 334.302511 98.307802 
L 341.536186 98.307802 
L 341.536186 94.475406 
L 342.881419 94.475406 
L 342.889547 86.810614 
L 344.204755 86.810614 
L 344.204755 82.978218 
L 344.983681 82.978218 
L 344.983681 79.145822 
L 345.344655 79.145822 
L 345.344655 75.313426 
L 347.573051 75.313426 
L 347.573051 71.48103 
L 349.295067 71.48103 
L 349.295067 67.648634 
L 355.643866 67.648634 
L 355.643866 63.816238 
L 375.790727 63.816238 
L 375.790727 59.983842 
L 378.373624 59.983842 
L 378.373624 56.151446 
L 381.363575 56.151446 
L 381.363575 52.31905 
L 381.84296 52.31905 
L 381.84296 48.486653 
L 382.839284 48.486653 
L 382.839284 44.654257 
L 385.736679 44.654257 
L 385.736679 40.821861 
L 386.25286 40.821861 
L 386.25286 36.989465 
L 388.820806 36.989465 
L 388.820806 33.157069 
L 389.665744 33.157069 
L 389.665744 29.324673 
L 390.463698 29.324673 
L 390.463698 25.492277 
L 391.012879 25.492277 
L 391.012879 21.659881 
L 392.633534 21.659881 
L 392.633534 17.827485 
L 395.790238 17.827485 
L 395.790238 13.995089 
L 398.778862 13.995089 
L 398.778862 10.162693 
L 400.40327 10.162693 
L 400.40327 6.330297 
L 400.40327 6.330297 
L 460.8 6.330297 
L 460.8 6.330297 
" style="fill:none;stroke:#00bfbf;stroke-linecap:square;stroke-width:1.5;"/>
   </g>
   <g id="line2d_26">
    <path clip-path="url(#pd8d2f84808)" d="M 209.10351 293.76 
L 209.10351 289.927604 
L 214.907585 289.927604 
L 214.969572 282.262812 
L 215.961359 282.262812 
L 215.961359 278.430416 
L 216.4964 278.430416 
L 216.4964 274.59802 
L 217.381226 274.59802 
L 217.381226 270.765624 
L 218.897401 270.765624 
L 218.897401 266.933228 
L 219.357143 266.933228 
L 219.357143 263.100832 
L 221.682978 263.100832 
L 221.682978 259.268436 
L 222.814054 259.268436 
L 222.814054 255.43604 
L 224.479552 255.43604 
L 224.479552 251.603644 
L 224.750475 251.603644 
L 224.750475 247.771248 
L 225.817499 247.771248 
L 225.817499 243.938851 
L 229.08306 243.938851 
L 229.08306 240.106455 
L 233.376267 240.106455 
L 233.376267 236.274059 
L 245.811949 236.274059 
L 245.811949 232.441663 
L 252.141065 232.441663 
L 252.141065 228.609267 
L 255.729655 228.609267 
L 255.729655 224.776871 
L 258.781679 224.776871 
L 258.781679 220.944475 
L 259.871029 220.944475 
L 259.871029 217.112079 
L 260.297724 217.112079 
L 260.363642 209.447287 
L 262.859375 209.447287 
L 262.859375 205.614891 
L 264.975631 205.614891 
L 264.975631 201.782495 
L 267.077559 201.782495 
L 267.077559 197.950099 
L 267.305196 197.950099 
L 267.305196 194.117703 
L 267.967976 194.117703 
L 267.967976 190.285307 
L 268.304071 190.285307 
L 268.304071 186.452911 
L 269.976898 186.452911 
L 269.976898 182.620515 
L 270.225766 182.620515 
L 270.225766 178.788119 
L 271.816643 178.788119 
L 271.926519 171.123327 
L 272.169381 171.123327 
L 272.169381 167.290931 
L 272.890092 167.290931 
L 272.890092 163.458535 
L 273.18529 163.458535 
L 273.18529 159.626139 
L 274.039325 159.626139 
L 274.039325 155.793743 
L 274.754866 155.793743 
L 274.754866 151.961347 
L 276.380584 151.961347 
L 276.380584 148.12895 
L 276.600499 148.12895 
L 276.600499 144.296554 
L 278.20576 144.296554 
L 278.20576 140.464158 
L 281.321364 140.464158 
L 281.321364 136.631762 
L 282.364944 136.631762 
L 282.364944 132.799366 
L 283.11088 132.799366 
L 283.11088 128.96697 
L 297.132248 128.96697 
L 297.132248 125.134574 
L 300.1216 125.134574 
L 300.1216 121.302178 
L 306.738269 121.302178 
L 306.738269 117.469782 
L 307.292315 117.469782 
L 307.292315 113.637386 
L 313.548301 113.637386 
L 313.548301 109.80499 
L 314.88014 109.80499 
L 314.88014 105.972594 
L 315.042664 105.972594 
L 315.042664 102.140198 
L 320.964772 102.140198 
L 320.964772 98.307802 
L 321.215994 98.307802 
L 321.215994 94.475406 
L 321.614174 94.475406 
L 321.614174 90.64301 
L 322.13933 90.64301 
L 322.13933 86.810614 
L 325.480425 86.810614 
L 325.480425 82.978218 
L 335.396232 82.978218 
L 335.42331 75.313426 
L 335.898784 75.313426 
L 335.898784 71.48103 
L 339.10853 71.48103 
L 339.10853 67.648634 
L 339.645342 67.648634 
L 339.645342 63.816238 
L 339.877303 63.816238 
L 339.877303 59.983842 
L 341.670482 59.983842 
L 341.670482 56.151446 
L 347.293706 56.151446 
L 347.293706 52.31905 
L 363.747497 52.31905 
L 363.747497 48.486653 
L 371.049217 48.486653 
L 371.115259 40.821861 
L 372.135604 40.821861 
L 372.135604 36.989465 
L 375.790727 36.989465 
L 375.790727 33.157069 
L 376.793484 33.157069 
L 376.793484 29.324673 
L 377.410098 29.324673 
L 377.410098 25.492277 
L 379.81797 25.492277 
L 379.81797 21.659881 
L 383.514422 21.659881 
L 383.514422 17.827485 
L 385.736679 17.827485 
L 385.736679 13.995089 
L 387.659023 13.995089 
L 387.659023 10.162693 
L 395.840864 10.162693 
L 395.840864 6.330297 
L 395.840864 6.330297 
L 460.8 6.330297 
L 460.8 6.330297 
" style="fill:none;stroke:#bf00bf;stroke-linecap:square;stroke-width:1.5;"/>
   </g>
   <g id="patch_3">
    <path d="M 0 293.76 
L 0 3.456 
" style="fill:none;stroke:#000000;stroke-linecap:square;stroke-linejoin:miter;stroke-width:0.8;"/>
   </g>
   <g id="patch_4">
    <path d="M 460.8 293.76 
L 460.8 3.456 
" style="fill:none;stroke:#000000;stroke-linecap:square;stroke-linejoin:miter;stroke-width:0.8;"/>
   </g>
   <g id="patch_5">
    <path d="M 0 293.76 
L 460.8 293.76 
" style="fill:none;stroke:#000000;stroke-linecap:square;stroke-linejoin:miter;stroke-width:0.8;"/>
   </g>
   <g id="patch_6">
    <path d="M 0 3.456 
L 460.8 3.456 
" style="fill:none;stroke:#000000;stroke-linecap:square;stroke-linejoin:miter;stroke-width:0.8;"/>
   </g>
   <g id="text_6">
    <!-- {f10-f14}, 5-D -->
    <defs>
     <path d="M 51.125 -9.28125 
L 51.125 -16.3125 
L 48.09375 -16.3125 
Q 35.9375 -16.3125 31.8125 -12.6875 
Q 27.6875 -9.078125 27.6875 1.703125 
L 27.6875 13.375 
Q 27.6875 20.75 25.046875 23.578125 
Q 22.40625 26.421875 15.484375 26.421875 
L 12.5 26.421875 
L 12.5 33.40625 
L 15.484375 33.40625 
Q 22.46875 33.40625 25.078125 36.203125 
Q 27.6875 39.015625 27.6875 46.296875 
L 27.6875 58.015625 
Q 27.6875 68.796875 31.8125 72.390625 
Q 35.9375 75.984375 48.09375 75.984375 
L 51.125 75.984375 
L 51.125 69 
L 47.796875 69 
Q 40.921875 69 38.8125 66.84375 
Q 36.71875 64.703125 36.71875 57.8125 
L 36.71875 45.703125 
Q 36.71875 38.03125 34.5 34.5625 
Q 32.28125 31.109375 26.90625 29.890625 
Q 32.328125 28.5625 34.515625 25.09375 
Q 36.71875 21.625 36.71875 14.015625 
L 36.71875 1.90625 
Q 36.71875 -4.984375 38.8125 -7.125 
Q 40.921875 -9.28125 47.796875 -9.28125 
z
" id="DejaVuSans-123"/>
     <path d="M 12.5 -9.28125 
L 15.921875 -9.28125 
Q 22.75 -9.28125 24.828125 -7.171875 
Q 26.90625 -5.078125 26.90625 1.90625 
L 26.90625 14.015625 
Q 26.90625 21.625 29.09375 25.09375 
Q 31.296875 28.5625 36.71875 29.890625 
Q 31.296875 31.109375 29.09375 34.5625 
Q 26.90625 38.03125 26.90625 45.703125 
L 26.90625 57.8125 
Q 26.90625 64.75 24.828125 66.875 
Q 22.75 69 15.921875 69 
L 12.5 69 
L 12.5 75.984375 
L 15.578125 75.984375 
Q 27.734375 75.984375 31.8125 72.390625 
Q 35.890625 68.796875 35.890625 58.015625 
L 35.890625 46.296875 
Q 35.890625 39.015625 38.515625 36.203125 
Q 41.15625 33.40625 48.09375 33.40625 
L 51.125 33.40625 
L 51.125 26.421875 
L 48.09375 26.421875 
Q 41.15625 26.421875 38.515625 23.578125 
Q 35.890625 20.75 35.890625 13.375 
L 35.890625 1.703125 
Q 35.890625 -9.078125 31.8125 -12.6875 
Q 27.734375 -16.3125 15.578125 -16.3125 
L 12.5 -16.3125 
z
" id="DejaVuSans-125"/>
     <path d="M 11.71875 12.40625 
L 22.015625 12.40625 
L 22.015625 4 
L 14.015625 -11.625 
L 7.71875 -11.625 
L 11.71875 4 
z
" id="DejaVuSans-44"/>
     <path d="M 10.796875 72.90625 
L 49.515625 72.90625 
L 49.515625 64.59375 
L 19.828125 64.59375 
L 19.828125 46.734375 
Q 21.96875 47.46875 24.109375 47.828125 
Q 26.265625 48.1875 28.421875 48.1875 
Q 40.625 48.1875 47.75 41.5 
Q 54.890625 34.8125 54.890625 23.390625 
Q 54.890625 11.625 47.5625 5.09375 
Q 40.234375 -1.421875 26.90625 -1.421875 
Q 22.3125 -1.421875 17.546875 -0.640625 
Q 12.796875 0.140625 7.71875 1.703125 
L 7.71875 11.625 
Q 12.109375 9.234375 16.796875 8.0625 
Q 21.484375 6.890625 26.703125 6.890625 
Q 35.15625 6.890625 40.078125 11.328125 
Q 45.015625 15.765625 45.015625 23.390625 
Q 45.015625 31 40.078125 35.4375 
Q 35.15625 39.890625 26.703125 39.890625 
Q 22.75 39.890625 18.8125 39.015625 
Q 14.890625 38.140625 10.796875 36.28125 
z
" id="DejaVuSans-53"/>
    </defs>
    <g transform="translate(305.884 287.95392)scale(0.2 -0.2)">
     <use xlink:href="#DejaVuSans-123"/>
     <use x="63.623047" xlink:href="#DejaVuSans-102"/>
     <use x="98.828125" xlink:href="#DejaVuSans-49"/>
     <use x="162.451172" xlink:href="#DejaVuSans-48"/>
     <use x="226.074219" xlink:href="#DejaVuSans-45"/>
     <use x="262.158203" xlink:href="#DejaVuSans-102"/>
     <use x="297.363281" xlink:href="#DejaVuSans-49"/>
     <use x="360.986328" xlink:href="#DejaVuSans-52"/>
     <use x="424.609375" xlink:href="#DejaVuSans-125"/>
     <use x="488.232422" xlink:href="#DejaVuSans-44"/>
     <use x="520.019531" xlink:href="#DejaVuSans-32"/>
     <use x="551.806641" xlink:href="#DejaVuSans-53"/>
     <use x="615.429688" xlink:href="#DejaVuSans-45"/>
     <use x="651.513672" xlink:href="#DejaVuSans-68"/>
    </g>
   </g>
   <g id="text_7">
    <!-- v2.4 -->
    <defs>
     <path d="M 2.984375 54.6875 
L 12.5 54.6875 
L 29.59375 8.796875 
L 46.6875 54.6875 
L 56.203125 54.6875 
L 35.6875 0 
L 23.484375 0 
z
" id="DejaVuSans-118"/>
     <path d="M 19.1875 8.296875 
L 53.609375 8.296875 
L 53.609375 0 
L 7.328125 0 
L 7.328125 8.296875 
Q 12.9375 14.109375 22.625 23.890625 
Q 32.328125 33.6875 34.8125 36.53125 
Q 39.546875 41.84375 41.421875 45.53125 
Q 43.3125 49.21875 43.3125 52.78125 
Q 43.3125 58.59375 39.234375 62.25 
Q 35.15625 65.921875 28.609375 65.921875 
Q 23.96875 65.921875 18.8125 64.3125 
Q 13.671875 62.703125 7.8125 59.421875 
L 7.8125 69.390625 
Q 13.765625 71.78125 18.9375 73 
Q 24.125 74.21875 28.421875 74.21875 
Q 39.75 74.21875 46.484375 68.546875 
Q 53.21875 62.890625 53.21875 53.421875 
Q 53.21875 48.921875 51.53125 44.890625 
Q 49.859375 40.875 45.40625 35.40625 
Q 44.1875 33.984375 37.640625 27.21875 
Q 31.109375 20.453125 19.1875 8.296875 
z
" id="DejaVuSans-50"/>
     <path d="M 10.6875 12.40625 
L 21 12.40625 
L 21 0 
L 10.6875 0 
z
" id="DejaVuSans-46"/>
    </defs>
    <g style="fill:#808080;" transform="translate(219.489063 288.777272)scale(0.1 -0.1)">
     <use xlink:href="#DejaVuSans-118"/>
     <use x="59.179688" xlink:href="#DejaVuSans-50"/>
     <use x="122.802734" xlink:href="#DejaVuSans-46"/>
     <use x="154.589844" xlink:href="#DejaVuSans-52"/>
    </g>
   </g>
  </g>
 </g>
 <defs>
  <clipPath id="pd8d2f84808">
   <rect height="290.304" width="460.8" x="0" y="3.456"/>
  </clipPath>
 </defs>
</svg>
