<?xml version="1.0" encoding="utf-8" standalone="no"?>
<!DOCTYPE svg PUBLIC "-//W3C//DTD SVG 1.1//EN"
  "http://www.w3.org/Graphics/SVG/1.1/DTD/svg11.dtd">
<!-- Created with matplotlib (https://matplotlib.org/) -->
<svg height="345.6pt" version="1.1" viewBox="0 0 460.8 345.6" width="460.8pt" xmlns="http://www.w3.org/2000/svg" xmlns:xlink="http://www.w3.org/1999/xlink">
 <defs>
  <style type="text/css">
*{stroke-linecap:butt;stroke-linejoin:round;}
  </style>
 </defs>
 <g id="figure_1">
  <g id="patch_1">
   <path d="M 0 345.6 
L 460.8 345.6 
L 460.8 0 
L 0 0 
z
" style="fill:#ffffff;"/>
  </g>
  <g id="axes_1">
   <g id="patch_2">
    <path d="M 0 293.76 
L 460.8 293.76 
L 460.8 3.456 
L 0 3.456 
z
" style="fill:#ffffff;"/>
   </g>
   <g id="matplotlib.axis_1">
    <g id="xtick_1">
     <g id="line2d_1">
      <path clip-path="url(#pf5d37b9385)" d="M 104.585791 293.76 
L 104.585791 3.456 
" style="fill:none;stroke:#b0b0b0;stroke-linecap:square;stroke-width:0.8;"/>
     </g>
     <g id="line2d_2">
      <defs>
       <path d="M 0 0 
L 0 3.5 
" id="m7f0ba8f794" style="stroke:#000000;stroke-width:0.8;"/>
      </defs>
      <g>
       <use style="stroke:#000000;stroke-width:0.8;" x="104.585791" xlink:href="#m7f0ba8f794" y="293.76"/>
      </g>
     </g>
     <g id="text_1">
      <!-- -4 -->
      <defs>
       <path d="M 4.890625 31.390625 
L 31.203125 31.390625 
L 31.203125 23.390625 
L 4.890625 23.390625 
z
" id="DejaVuSans-45"/>
       <path d="M 37.796875 64.3125 
L 12.890625 25.390625 
L 37.796875 25.390625 
z
M 35.203125 72.90625 
L 47.609375 72.90625 
L 47.609375 25.390625 
L 58.015625 25.390625 
L 58.015625 17.1875 
L 47.609375 17.1875 
L 47.609375 0 
L 37.796875 0 
L 37.796875 17.1875 
L 4.890625 17.1875 
L 4.890625 26.703125 
z
" id="DejaVuSans-52"/>
      </defs>
      <g transform="translate(94.615479 315.956875)scale(0.2 -0.2)">
       <use xlink:href="#DejaVuSans-45"/>
       <use x="36.083984" xlink:href="#DejaVuSans-52"/>
      </g>
     </g>
    </g>
    <g id="xtick_2">
     <g id="line2d_3">
      <path clip-path="url(#pf5d37b9385)" d="M 209.284693 293.76 
L 209.284693 3.456 
" style="fill:none;stroke:#b0b0b0;stroke-linecap:square;stroke-width:0.8;"/>
     </g>
     <g id="line2d_4">
      <g>
       <use style="stroke:#000000;stroke-width:0.8;" x="209.284693" xlink:href="#m7f0ba8f794" y="293.76"/>
      </g>
     </g>
     <g id="text_2">
      <!-- 0 -->
      <defs>
       <path d="M 31.78125 66.40625 
Q 24.171875 66.40625 20.328125 58.90625 
Q 16.5 51.421875 16.5 36.375 
Q 16.5 21.390625 20.328125 13.890625 
Q 24.171875 6.390625 31.78125 6.390625 
Q 39.453125 6.390625 43.28125 13.890625 
Q 47.125 21.390625 47.125 36.375 
Q 47.125 51.421875 43.28125 58.90625 
Q 39.453125 66.40625 31.78125 66.40625 
z
M 31.78125 74.21875 
Q 44.046875 74.21875 50.515625 64.515625 
Q 56.984375 54.828125 56.984375 36.375 
Q 56.984375 17.96875 50.515625 8.265625 
Q 44.046875 -1.421875 31.78125 -1.421875 
Q 19.53125 -1.421875 13.0625 8.265625 
Q 6.59375 17.96875 6.59375 36.375 
Q 6.59375 54.828125 13.0625 64.515625 
Q 19.53125 74.21875 31.78125 74.21875 
z
" id="DejaVuSans-48"/>
      </defs>
      <g transform="translate(202.922193 315.956875)scale(0.2 -0.2)">
       <use xlink:href="#DejaVuSans-48"/>
      </g>
     </g>
    </g>
    <g id="xtick_3">
     <g id="line2d_5">
      <path clip-path="url(#pf5d37b9385)" d="M 313.983595 293.76 
L 313.983595 3.456 
" style="fill:none;stroke:#b0b0b0;stroke-linecap:square;stroke-width:0.8;"/>
     </g>
     <g id="line2d_6">
      <g>
       <use style="stroke:#000000;stroke-width:0.8;" x="313.983595" xlink:href="#m7f0ba8f794" y="293.76"/>
      </g>
     </g>
     <g id="text_3">
      <!-- 4 -->
      <g transform="translate(307.621095 315.956875)scale(0.2 -0.2)">
       <use xlink:href="#DejaVuSans-52"/>
      </g>
     </g>
    </g>
    <g id="xtick_4">
     <g id="line2d_7">
      <path clip-path="url(#pf5d37b9385)" d="M 418.682496 293.76 
L 418.682496 3.456 
" style="fill:none;stroke:#b0b0b0;stroke-linecap:square;stroke-width:0.8;"/>
     </g>
     <g id="line2d_8">
      <g>
       <use style="stroke:#000000;stroke-width:0.8;" x="418.682496" xlink:href="#m7f0ba8f794" y="293.76"/>
      </g>
     </g>
     <g id="text_4">
      <!-- 8 -->
      <defs>
       <path d="M 31.78125 34.625 
Q 24.75 34.625 20.71875 30.859375 
Q 16.703125 27.09375 16.703125 20.515625 
Q 16.703125 13.921875 20.71875 10.15625 
Q 24.75 6.390625 31.78125 6.390625 
Q 38.8125 6.390625 42.859375 10.171875 
Q 46.921875 13.96875 46.921875 20.515625 
Q 46.921875 27.09375 42.890625 30.859375 
Q 38.875 34.625 31.78125 34.625 
z
M 21.921875 38.8125 
Q 15.578125 40.375 12.03125 44.71875 
Q 8.5 49.078125 8.5 55.328125 
Q 8.5 64.0625 14.71875 69.140625 
Q 20.953125 74.21875 31.78125 74.21875 
Q 42.671875 74.21875 48.875 69.140625 
Q 55.078125 64.0625 55.078125 55.328125 
Q 55.078125 49.078125 51.53125 44.71875 
Q 48 40.375 41.703125 38.8125 
Q 48.828125 37.15625 52.796875 32.3125 
Q 56.78125 27.484375 56.78125 20.515625 
Q 56.78125 9.90625 50.3125 4.234375 
Q 43.84375 -1.421875 31.78125 -1.421875 
Q 19.734375 -1.421875 13.25 4.234375 
Q 6.78125 9.90625 6.78125 20.515625 
Q 6.78125 27.484375 10.78125 32.3125 
Q 14.796875 37.15625 21.921875 38.8125 
z
M 18.3125 54.390625 
Q 18.3125 48.734375 21.84375 45.5625 
Q 25.390625 42.390625 31.78125 42.390625 
Q 38.140625 42.390625 41.71875 45.5625 
Q 45.3125 48.734375 45.3125 54.390625 
Q 45.3125 60.0625 41.71875 63.234375 
Q 38.140625 66.40625 31.78125 66.40625 
Q 25.390625 66.40625 21.84375 63.234375 
Q 18.3125 60.0625 18.3125 54.390625 
z
" id="DejaVuSans-56"/>
      </defs>
      <g transform="translate(412.319996 315.956875)scale(0.2 -0.2)">
       <use xlink:href="#DejaVuSans-56"/>
      </g>
     </g>
    </g>
    <g id="text_5">
     <!-- log10 of Df -->
     <defs>
      <path d="M 9.421875 75.984375 
L 18.40625 75.984375 
L 18.40625 0 
L 9.421875 0 
z
" id="DejaVuSans-108"/>
      <path d="M 30.609375 48.390625 
Q 23.390625 48.390625 19.1875 42.75 
Q 14.984375 37.109375 14.984375 27.296875 
Q 14.984375 17.484375 19.15625 11.84375 
Q 23.34375 6.203125 30.609375 6.203125 
Q 37.796875 6.203125 41.984375 11.859375 
Q 46.1875 17.53125 46.1875 27.296875 
Q 46.1875 37.015625 41.984375 42.703125 
Q 37.796875 48.390625 30.609375 48.390625 
z
M 30.609375 56 
Q 42.328125 56 49.015625 48.375 
Q 55.71875 40.765625 55.71875 27.296875 
Q 55.71875 13.875 49.015625 6.21875 
Q 42.328125 -1.421875 30.609375 -1.421875 
Q 18.84375 -1.421875 12.171875 6.21875 
Q 5.515625 13.875 5.515625 27.296875 
Q 5.515625 40.765625 12.171875 48.375 
Q 18.84375 56 30.609375 56 
z
" id="DejaVuSans-111"/>
      <path d="M 45.40625 27.984375 
Q 45.40625 37.75 41.375 43.109375 
Q 37.359375 48.484375 30.078125 48.484375 
Q 22.859375 48.484375 18.828125 43.109375 
Q 14.796875 37.75 14.796875 27.984375 
Q 14.796875 18.265625 18.828125 12.890625 
Q 22.859375 7.515625 30.078125 7.515625 
Q 37.359375 7.515625 41.375 12.890625 
Q 45.40625 18.265625 45.40625 27.984375 
z
M 54.390625 6.78125 
Q 54.390625 -7.171875 48.1875 -13.984375 
Q 42 -20.796875 29.203125 -20.796875 
Q 24.46875 -20.796875 20.265625 -20.09375 
Q 16.0625 -19.390625 12.109375 -17.921875 
L 12.109375 -9.1875 
Q 16.0625 -11.328125 19.921875 -12.34375 
Q 23.78125 -13.375 27.78125 -13.375 
Q 36.625 -13.375 41.015625 -8.765625 
Q 45.40625 -4.15625 45.40625 5.171875 
L 45.40625 9.625 
Q 42.625 4.78125 38.28125 2.390625 
Q 33.9375 0 27.875 0 
Q 17.828125 0 11.671875 7.65625 
Q 5.515625 15.328125 5.515625 27.984375 
Q 5.515625 40.671875 11.671875 48.328125 
Q 17.828125 56 27.875 56 
Q 33.9375 56 38.28125 53.609375 
Q 42.625 51.21875 45.40625 46.390625 
L 45.40625 54.6875 
L 54.390625 54.6875 
z
" id="DejaVuSans-103"/>
      <path d="M 12.40625 8.296875 
L 28.515625 8.296875 
L 28.515625 63.921875 
L 10.984375 60.40625 
L 10.984375 69.390625 
L 28.421875 72.90625 
L 38.28125 72.90625 
L 38.28125 8.296875 
L 54.390625 8.296875 
L 54.390625 0 
L 12.40625 0 
z
" id="DejaVuSans-49"/>
      <path id="DejaVuSans-32"/>
      <path d="M 37.109375 75.984375 
L 37.109375 68.5 
L 28.515625 68.5 
Q 23.6875 68.5 21.796875 66.546875 
Q 19.921875 64.59375 19.921875 59.515625 
L 19.921875 54.6875 
L 34.71875 54.6875 
L 34.71875 47.703125 
L 19.921875 47.703125 
L 19.921875 0 
L 10.890625 0 
L 10.890625 47.703125 
L 2.296875 47.703125 
L 2.296875 54.6875 
L 10.890625 54.6875 
L 10.890625 58.5 
Q 10.890625 67.625 15.140625 71.796875 
Q 19.390625 75.984375 28.609375 75.984375 
z
" id="DejaVuSans-102"/>
      <path d="M 19.671875 64.796875 
L 19.671875 8.109375 
L 31.59375 8.109375 
Q 46.6875 8.109375 53.6875 14.9375 
Q 60.6875 21.78125 60.6875 36.53125 
Q 60.6875 51.171875 53.6875 57.984375 
Q 46.6875 64.796875 31.59375 64.796875 
z
M 9.8125 72.90625 
L 30.078125 72.90625 
Q 51.265625 72.90625 61.171875 64.09375 
Q 71.09375 55.28125 71.09375 36.53125 
Q 71.09375 17.671875 61.125 8.828125 
Q 51.171875 0 30.078125 0 
L 9.8125 0 
z
" id="DejaVuSans-68"/>
     </defs>
     <g transform="translate(175.214063 339.313125)scale(0.2 -0.2)">
      <use xlink:href="#DejaVuSans-108"/>
      <use x="27.783203" xlink:href="#DejaVuSans-111"/>
      <use x="88.964844" xlink:href="#DejaVuSans-103"/>
      <use x="152.441406" xlink:href="#DejaVuSans-49"/>
      <use x="216.064453" xlink:href="#DejaVuSans-48"/>
      <use x="279.6875" xlink:href="#DejaVuSans-32"/>
      <use x="311.474609" xlink:href="#DejaVuSans-111"/>
      <use x="372.65625" xlink:href="#DejaVuSans-102"/>
      <use x="407.861328" xlink:href="#DejaVuSans-32"/>
      <use x="439.648438" xlink:href="#DejaVuSans-68"/>
      <use x="516.650391" xlink:href="#DejaVuSans-102"/>
     </g>
    </g>
   </g>
   <g id="matplotlib.axis_2">
    <g id="ytick_1">
     <g id="line2d_9">
      <path clip-path="url(#pf5d37b9385)" d="M 0 293.76 
L 460.8 293.76 
" style="fill:none;stroke:#b0b0b0;stroke-linecap:square;stroke-width:0.8;"/>
     </g>
     <g id="line2d_10">
      <defs>
       <path d="M 0 0 
L -3.5 0 
" id="mc185475af0" style="stroke:#000000;stroke-width:0.8;"/>
      </defs>
      <g>
       <use style="stroke:#000000;stroke-width:0.8;" x="0" xlink:href="#mc185475af0" y="293.76"/>
      </g>
     </g>
    </g>
    <g id="ytick_2">
     <g id="line2d_11">
      <path clip-path="url(#pf5d37b9385)" d="M 0 236.274059 
L 460.8 236.274059 
" style="fill:none;stroke:#b0b0b0;stroke-linecap:square;stroke-width:0.8;"/>
     </g>
     <g id="line2d_12">
      <g>
       <use style="stroke:#000000;stroke-width:0.8;" x="0" xlink:href="#mc185475af0" y="236.274059"/>
      </g>
     </g>
    </g>
    <g id="ytick_3">
     <g id="line2d_13">
      <path clip-path="url(#pf5d37b9385)" d="M 0 178.788119 
L 460.8 178.788119 
" style="fill:none;stroke:#b0b0b0;stroke-linecap:square;stroke-width:0.8;"/>
     </g>
     <g id="line2d_14">
      <g>
       <use style="stroke:#000000;stroke-width:0.8;" x="0" xlink:href="#mc185475af0" y="178.788119"/>
      </g>
     </g>
    </g>
    <g id="ytick_4">
     <g id="line2d_15">
      <path clip-path="url(#pf5d37b9385)" d="M 0 121.302178 
L 460.8 121.302178 
" style="fill:none;stroke:#b0b0b0;stroke-linecap:square;stroke-width:0.8;"/>
     </g>
     <g id="line2d_16">
      <g>
       <use style="stroke:#000000;stroke-width:0.8;" x="0" xlink:href="#mc185475af0" y="121.302178"/>
      </g>
     </g>
    </g>
    <g id="ytick_5">
     <g id="line2d_17">
      <path clip-path="url(#pf5d37b9385)" d="M 0 63.816238 
L 460.8 63.816238 
" style="fill:none;stroke:#b0b0b0;stroke-linecap:square;stroke-width:0.8;"/>
     </g>
     <g id="line2d_18">
      <g>
       <use style="stroke:#000000;stroke-width:0.8;" x="0" xlink:href="#mc185475af0" y="63.816238"/>
      </g>
     </g>
    </g>
    <g id="ytick_6">
     <g id="line2d_19">
      <path clip-path="url(#pf5d37b9385)" d="M 0 6.330297 
L 460.8 6.330297 
" style="fill:none;stroke:#b0b0b0;stroke-linecap:square;stroke-width:0.8;"/>
     </g>
     <g id="line2d_20">
      <g>
       <use style="stroke:#000000;stroke-width:0.8;" x="0" xlink:href="#mc185475af0" y="6.330297"/>
      </g>
     </g>
    </g>
   </g>
   <g id="line2d_21">
    <path clip-path="url(#pf5d37b9385)" d="M 183.847244 293.76 
L 183.847244 292.961584 
L 201.003188 292.961584 
L 201.003188 292.163168 
L 208.554368 292.163168 
L 208.554368 291.364752 
L 209.10351 291.364752 
L 209.10351 290.566337 
L 210.165337 290.566337 
L 210.165337 289.767921 
L 211.627814 289.767921 
L 211.627814 288.969505 
L 214.76949 288.969505 
L 214.76949 288.171089 
L 214.969572 288.171089 
L 214.969572 287.372673 
L 215.961359 287.372673 
L 215.961359 286.574257 
L 216.4964 286.574257 
L 216.588812 284.17901 
L 216.625814 284.17901 
L 216.625814 283.380594 
L 216.787334 283.380594 
L 216.787334 282.582178 
L 217.117308 282.582178 
L 217.117308 281.783762 
L 217.381226 281.783762 
L 217.469473 280.186931 
L 218.266846 280.186931 
L 218.266846 279.388515 
L 218.598642 279.388515 
L 218.598642 278.590099 
L 218.834905 278.590099 
L 218.897401 276.194851 
L 219.01328 276.194851 
L 219.122462 274.59802 
L 219.283269 274.59802 
L 219.358925 272.202772 
L 219.767334 272.202772 
L 219.767334 271.404356 
L 219.94988 271.404356 
L 219.94988 270.605941 
L 220.234682 270.605941 
L 220.234682 269.807525 
L 220.540817 269.807525 
L 220.651907 268.210693 
L 220.772644 268.210693 
L 220.772644 267.412277 
L 221.177866 267.412277 
L 221.177866 266.613861 
L 221.424898 266.613861 
L 221.424898 265.815446 
L 221.682978 265.815446 
L 221.682978 265.01703 
L 221.890601 265.01703 
L 221.929531 263.420198 
L 222.073335 263.420198 
L 222.073335 262.621782 
L 222.218305 262.621782 
L 222.218305 261.823366 
L 222.510564 261.823366 
L 222.510564 261.02495 
L 222.80141 261.02495 
L 222.893934 257.831287 
L 222.921921 257.831287 
L 222.921921 257.032871 
L 223.056637 257.032871 
L 223.056637 256.234455 
L 223.208715 256.234455 
L 223.30924 254.637624 
L 223.331484 254.637624 
L 223.376375 253.040792 
L 223.512037 253.040792 
L 223.569975 251.44396 
L 223.642576 251.44396 
L 223.732225 249.847129 
L 223.963554 249.847129 
L 224.04864 245.85505 
L 224.096216 245.85505 
L 224.161429 244.258218 
L 224.207614 244.258218 
L 224.269269 242.661386 
L 224.407595 242.661386 
L 224.479552 241.064554 
L 224.62128 241.064554 
L 224.62128 240.266139 
L 224.826602 240.266139 
L 224.826602 239.467723 
L 224.969745 239.467723 
L 225.071637 237.870891 
L 225.208405 237.870891 
L 225.208405 237.072475 
L 225.394125 237.072475 
L 225.446483 234.677228 
L 225.531212 234.677228 
L 225.531212 233.878812 
L 225.817499 233.878812 
L 225.863752 232.28198 
L 226.076022 232.28198 
L 226.18254 230.685149 
L 226.268656 230.685149 
L 226.268656 229.886733 
L 226.383951 229.886733 
L 226.473871 228.289901 
L 226.691448 228.289901 
L 226.691448 227.491485 
L 227.198651 227.491485 
L 227.209388 225.894653 
L 227.388845 225.894653 
L 227.388845 225.096238 
L 227.805243 225.096238 
L 227.805243 224.297822 
L 227.920542 224.297822 
L 227.962815 222.70099 
L 228.109554 222.70099 
L 228.109554 221.902574 
L 228.330678 221.902574 
L 228.330678 221.104158 
L 228.626804 221.104158 
L 228.699358 218.708911 
L 228.869003 218.708911 
L 228.869003 217.910495 
L 229.08306 217.910495 
L 229.08306 217.112079 
L 229.313704 217.112079 
L 229.313704 216.313663 
L 229.662527 216.313663 
L 229.662527 215.515248 
L 229.961608 215.515248 
L 229.961608 214.716832 
L 230.516621 214.716832 
L 230.547729 213.12 
L 230.777799 213.12 
L 230.777799 212.321584 
L 231.195254 212.321584 
L 231.269472 210.724752 
L 231.617404 210.724752 
L 231.617404 209.926337 
L 231.946881 209.926337 
L 231.946881 209.127921 
L 232.763196 209.127921 
L 232.763196 208.329505 
L 233.097024 208.329505 
L 233.097024 207.531089 
L 233.376267 207.531089 
L 233.376267 206.732673 
L 233.640176 206.732673 
L 233.678127 205.135842 
L 233.816464 205.135842 
L 233.816464 204.337426 
L 234.086699 204.337426 
L 234.086699 203.53901 
L 234.209581 203.53901 
L 234.209581 202.740594 
L 234.872236 202.740594 
L 234.97041 201.143762 
L 235.146631 201.143762 
L 235.146631 200.345347 
L 235.434133 200.345347 
L 235.455758 198.748515 
L 235.832805 198.748515 
L 235.832805 197.950099 
L 236.022477 197.950099 
L 236.022477 197.151683 
L 236.504571 197.151683 
L 236.612465 195.554851 
L 236.638954 195.554851 
L 236.638954 194.756436 
L 236.904663 194.756436 
L 236.917517 193.159604 
L 237.015826 193.159604 
L 237.015826 192.361188 
L 237.128457 192.361188 
L 237.179393 190.764356 
L 237.403851 190.764356 
L 237.403851 189.965941 
L 237.799811 189.965941 
L 237.799811 189.167525 
L 237.997711 189.167525 
L 237.997711 188.369109 
L 238.427809 188.369109 
L 238.46444 186.772277 
L 238.884715 186.772277 
L 238.884715 185.973861 
L 239.07254 185.973861 
L 239.112936 183.578614 
L 239.336091 183.578614 
L 239.336091 182.780198 
L 239.623654 182.780198 
L 239.623654 181.981782 
L 239.758601 181.981782 
L 239.78166 180.38495 
L 239.944655 180.38495 
L 239.98142 178.788119 
L 240.396098 178.788119 
L 240.477484 176.392871 
L 240.529049 176.392871 
L 240.529049 175.594455 
L 241.133875 175.594455 
L 241.181111 173.997624 
L 241.465048 173.997624 
L 241.465048 173.199208 
L 241.656195 173.199208 
L 241.656195 172.400792 
L 241.928816 172.400792 
L 242.026344 170.005545 
L 242.38606 170.005545 
L 242.38606 169.207129 
L 242.504942 169.207129 
L 242.504942 168.408713 
L 242.845556 168.408713 
L 242.93905 166.811881 
L 243.138896 166.811881 
L 243.162915 165.21505 
L 243.664616 165.21505 
L 243.664616 164.416634 
L 244.216961 164.416634 
L 244.295409 162.819802 
L 244.42864 162.819802 
L 244.42864 162.021386 
L 244.59752 162.021386 
L 244.59752 161.22297 
L 245.508148 161.22297 
L 245.508148 160.424554 
L 245.811949 160.424554 
L 245.811949 159.626139 
L 246.237898 159.626139 
L 246.237898 158.827723 
L 246.479461 158.827723 
L 246.506528 157.230891 
L 246.815718 157.230891 
L 246.898951 155.634059 
L 246.938047 155.634059 
L 246.938047 154.835644 
L 247.353822 154.835644 
L 247.353822 154.037228 
L 247.503078 154.037228 
L 247.577109 152.440396 
L 247.614481 152.440396 
L 247.666316 149.246733 
L 247.875553 149.246733 
L 247.875553 148.448317 
L 248.229261 148.448317 
L 248.229261 147.649901 
L 248.611424 147.649901 
L 248.611424 146.851485 
L 248.767383 146.851485 
L 248.846053 144.456238 
L 249.075348 144.456238 
L 249.075348 143.657822 
L 249.518381 143.657822 
L 249.518381 142.859406 
L 249.962716 142.859406 
L 250.003382 141.262574 
L 250.233783 141.262574 
L 250.239895 139.665743 
L 250.510779 139.665743 
L 250.59526 137.270495 
L 250.63108 137.270495 
L 250.741444 134.875248 
L 250.825603 134.875248 
L 250.825603 134.076832 
L 251.183915 134.076832 
L 251.183915 133.278416 
L 251.329591 133.278416 
L 251.426652 130.084752 
L 251.473253 130.084752 
L 251.572577 127.689505 
L 251.606749 127.689505 
L 251.606749 126.891089 
L 251.761919 126.891089 
L 251.761919 126.092673 
L 251.987015 126.092673 
L 251.99903 124.495842 
L 252.141065 124.495842 
L 252.141065 123.697426 
L 252.338694 123.697426 
L 252.403718 122.100594 
L 252.46794 122.100594 
L 252.510913 120.503762 
L 252.645552 120.503762 
L 252.645552 119.705347 
L 252.835711 119.705347 
L 252.835711 118.906931 
L 252.964208 118.906931 
L 253.069679 116.511683 
L 253.314349 116.511683 
L 253.314349 115.713267 
L 253.502997 115.713267 
L 253.612487 113.31802 
L 253.651906 113.31802 
L 253.695089 111.721188 
L 253.837971 111.721188 
L 253.837971 110.922772 
L 254.070208 110.922772 
L 254.070208 110.124356 
L 254.205672 110.124356 
L 254.205672 109.325941 
L 254.501601 109.325941 
L 254.501601 108.527525 
L 254.94283 108.527525 
L 254.94505 106.930693 
L 255.419613 106.930693 
L 255.419613 106.132277 
L 255.695996 106.132277 
L 255.736282 103.73703 
L 255.830822 103.73703 
L 255.873612 102.140198 
L 256.297452 102.140198 
L 256.297452 101.341782 
L 256.669774 101.341782 
L 256.77082 99.74495 
L 256.849622 99.74495 
L 256.950049 98.148119 
L 257.262738 98.148119 
L 257.262738 97.349703 
L 257.563026 97.349703 
L 257.563026 96.551287 
L 257.739026 96.551287 
L 257.739026 95.752871 
L 258.055327 95.752871 
L 258.074458 94.15604 
L 258.528304 94.15604 
L 258.605971 92.559208 
L 258.781679 92.559208 
L 258.781679 91.760792 
L 259.062732 91.760792 
L 259.062732 90.962376 
L 259.460982 90.962376 
L 259.460982 90.16396 
L 259.58643 90.16396 
L 259.58643 89.365545 
L 259.871029 89.365545 
L 259.871029 88.567129 
L 260.108631 88.567129 
L 260.108631 87.768713 
L 260.297724 87.768713 
L 260.363642 86.171881 
L 261.558789 86.171881 
L 261.635604 83.776634 
L 261.709138 83.776634 
L 261.709138 82.978218 
L 262.375342 82.978218 
L 262.375342 82.179802 
L 262.859375 82.179802 
L 262.859375 81.381386 
L 263.393215 81.381386 
L 263.428708 79.784554 
L 263.579089 79.784554 
L 263.579089 78.986139 
L 264.560797 78.986139 
L 264.560797 78.187723 
L 264.975631 78.187723 
L 264.975631 77.389307 
L 265.849764 77.389307 
L 265.849764 76.590891 
L 266.542126 76.590891 
L 266.542126 75.792475 
L 267.060636 75.792475 
L 267.060636 74.994059 
L 267.305196 74.994059 
L 267.305196 74.195644 
L 267.967976 74.195644 
L 268.003968 72.598812 
L 268.251614 72.598812 
L 268.304071 71.00198 
L 269.015516 71.00198 
L 269.015516 70.203564 
L 269.467335 70.203564 
L 269.467335 69.405149 
L 269.976898 69.405149 
L 269.976898 68.606733 
L 270.117726 68.606733 
L 270.225766 67.009901 
L 270.748324 67.009901 
L 270.81292 65.413069 
L 271.59382 65.413069 
L 271.59382 64.614653 
L 271.816643 64.614653 
L 271.926519 63.017822 
L 272.322627 63.017822 
L 272.322627 62.219406 
L 272.68464 62.219406 
L 272.68464 61.42099 
L 272.890092 61.42099 
L 272.890092 60.622574 
L 273.653647 60.622574 
L 273.653647 59.824158 
L 274.338103 59.824158 
L 274.338103 59.025743 
L 274.754866 59.025743 
L 274.754866 58.227327 
L 275.552694 58.227327 
L 275.552694 57.428911 
L 276.374059 57.428911 
L 276.380584 55.832079 
L 276.777328 55.832079 
L 276.777328 55.033663 
L 278.20576 55.033663 
L 278.20576 54.235248 
L 280.436394 54.235248 
L 280.436394 53.436832 
L 280.89082 53.436832 
L 280.89082 52.638416 
L 281.070678 52.638416 
L 281.070678 51.84 
L 281.321364 51.84 
L 281.321364 51.041584 
L 282.364944 51.041584 
L 282.364944 50.243168 
L 283.32752 50.243168 
L 283.32752 49.444752 
L 284.214498 49.444752 
L 284.214498 48.646337 
L 286.947033 48.646337 
L 287.005728 47.049505 
L 295.519321 47.049505 
L 295.519321 46.251089 
L 297.132248 46.251089 
L 297.132248 45.452673 
L 297.35176 45.452673 
L 297.35176 44.654257 
L 298.225364 44.654257 
L 298.225364 43.855842 
L 300.1216 43.855842 
L 300.1216 43.057426 
L 303.212232 43.057426 
L 303.212232 42.25901 
L 303.681088 42.25901 
L 303.681088 41.460594 
L 306.738269 41.460594 
L 306.738269 40.662178 
L 307.292315 40.662178 
L 307.292315 39.863762 
L 307.589126 39.863762 
L 307.589126 39.065347 
L 310.357839 39.065347 
L 310.357839 38.266931 
L 310.591918 38.266931 
L 310.591918 37.468515 
L 311.273135 37.468515 
L 311.273135 36.670099 
L 313.548301 36.670099 
L 313.548301 35.871683 
L 314.88014 35.871683 
L 314.88014 35.073267 
L 315.042664 35.073267 
L 315.042664 34.274851 
L 316.666203 34.274851 
L 316.666203 33.476436 
L 317.304329 33.476436 
L 317.304329 32.67802 
L 318.023954 32.67802 
L 318.023954 31.879604 
L 320.964772 31.879604 
L 320.964772 31.081188 
L 321.215994 31.081188 
L 321.215994 30.282772 
L 321.614174 30.282772 
L 321.614174 29.484356 
L 321.840588 29.484356 
L 321.840588 28.685941 
L 322.13933 28.685941 
L 322.13933 27.887525 
L 323.544269 27.887525 
L 323.544269 27.089109 
L 324.60323 27.089109 
L 324.60323 26.290693 
L 325.480425 26.290693 
L 325.480425 25.492277 
L 325.608886 25.492277 
L 325.608886 24.693861 
L 326.555636 24.693861 
L 326.555636 23.895446 
L 327.182938 23.895446 
L 327.182938 23.09703 
L 331.572337 23.09703 
L 331.572337 22.298614 
L 331.793798 22.298614 
L 331.793798 21.500198 
L 335.396232 21.500198 
L 335.396232 20.701782 
L 335.898784 20.701782 
L 335.898784 19.903366 
L 339.10853 19.903366 
L 339.10853 19.10495 
L 339.645342 19.10495 
L 339.645342 18.306535 
L 339.877303 18.306535 
L 339.877303 17.508119 
L 341.670482 17.508119 
L 341.670482 16.709703 
L 347.293706 16.709703 
L 347.293706 15.911287 
L 363.747497 15.911287 
L 363.747497 15.112871 
L 371.049217 15.112871 
L 371.115259 13.51604 
L 372.135604 13.51604 
L 372.135604 12.717624 
L 375.790727 12.717624 
L 375.790727 11.919208 
L 376.793484 11.919208 
L 376.793484 11.120792 
L 377.410098 11.120792 
L 377.410098 10.322376 
L 379.81797 10.322376 
L 379.81797 9.52396 
L 383.514422 9.52396 
L 383.514422 8.725545 
L 385.327975 8.725545 
L 385.327975 7.927129 
L 387.659023 7.927129 
L 387.659023 7.128713 
L 395.840864 7.128713 
L 395.840864 6.330297 
L 395.840864 6.330297 
L 460.8 6.330297 
L 460.8 6.330297 
" style="fill:none;stroke:#ff0000;stroke-linecap:square;stroke-width:3;"/>
   </g>
   <g id="line2d_22">
    <path clip-path="url(#pf5d37b9385)" d="M 231.071248 293.76 
L 231.071248 292.961584 
L 231.230391 292.961584 
L 231.230391 292.163168 
L 232.120996 292.163168 
L 232.120996 291.364752 
L 233.079866 291.364752 
L 233.079866 290.566337 
L 236.115912 290.566337 
L 236.115912 289.767921 
L 236.384462 289.767921 
L 236.384462 288.969505 
L 236.632013 288.969505 
L 236.689756 287.372673 
L 236.821602 287.372673 
L 236.821602 286.574257 
L 236.994396 286.574257 
L 236.994396 285.775842 
L 237.363231 285.775842 
L 237.363231 284.977426 
L 237.670882 284.977426 
L 237.670882 284.17901 
L 237.820745 284.17901 
L 237.820745 283.380594 
L 238.34749 283.380594 
L 238.34749 282.582178 
L 238.497583 282.582178 
L 238.570522 280.985347 
L 238.825732 280.985347 
L 238.897409 279.388515 
L 240.518678 279.388515 
L 240.518678 278.590099 
L 240.802604 278.590099 
L 240.847437 276.993267 
L 241.003065 276.993267 
L 241.003065 276.194851 
L 241.267431 276.194851 
L 241.267431 275.396436 
L 241.59628 275.396436 
L 241.705486 273.001188 
L 241.986265 273.001188 
L 241.992394 271.404356 
L 242.906172 271.404356 
L 242.906172 270.605941 
L 243.046463 270.605941 
L 243.046463 269.807525 
L 243.25609 269.807525 
L 243.25609 269.009109 
L 243.664486 269.009109 
L 243.718862 266.613861 
L 244.025092 266.613861 
L 244.07782 265.01703 
L 244.431919 265.01703 
L 244.464804 262.621782 
L 244.761583 262.621782 
L 244.761583 261.823366 
L 244.945617 261.823366 
L 244.945617 261.02495 
L 245.211302 261.02495 
L 245.304199 258.629703 
L 245.745143 258.629703 
L 245.750546 257.032871 
L 245.994201 257.032871 
L 245.994201 256.234455 
L 246.253437 256.234455 
L 246.272313 254.637624 
L 246.862489 254.637624 
L 246.862489 253.839208 
L 247.226126 253.839208 
L 247.226126 253.040792 
L 247.693417 253.040792 
L 247.740454 251.44396 
L 247.837716 251.44396 
L 247.837716 250.645545 
L 248.23015 250.645545 
L 248.23015 249.847129 
L 248.611593 249.847129 
L 248.631978 248.250297 
L 248.807145 248.250297 
L 248.807145 247.451881 
L 249.031957 247.451881 
L 249.031957 246.653465 
L 249.22419 246.653465 
L 249.22419 245.85505 
L 249.357022 245.85505 
L 249.357022 245.056634 
L 249.557299 245.056634 
L 249.581829 243.459802 
L 249.879011 243.459802 
L 249.879011 242.661386 
L 250.04793 242.661386 
L 250.058052 241.064554 
L 250.254379 241.064554 
L 250.254379 240.266139 
L 251.079824 240.266139 
L 251.172055 238.669307 
L 251.478402 238.669307 
L 251.491544 237.072475 
L 251.909775 237.072475 
L 251.909775 236.274059 
L 252.355796 236.274059 
L 252.355796 235.475644 
L 252.492726 235.475644 
L 252.492726 234.677228 
L 252.767074 234.677228 
L 252.767074 233.878812 
L 253.010565 233.878812 
L 253.010565 233.080396 
L 253.43767 233.080396 
L 253.43767 232.28198 
L 253.810406 232.28198 
L 253.910202 229.886733 
L 254.02705 229.886733 
L 254.02705 229.088317 
L 254.359477 229.088317 
L 254.370838 227.491485 
L 254.598147 227.491485 
L 254.701525 225.894653 
L 255.097279 225.894653 
L 255.097279 225.096238 
L 255.323617 225.096238 
L 255.422591 221.902574 
L 255.702869 221.902574 
L 255.737942 220.305743 
L 255.871226 220.305743 
L 255.871226 219.507327 
L 256.173854 219.507327 
L 256.271337 217.910495 
L 256.311799 217.910495 
L 256.311799 217.112079 
L 256.42822 217.112079 
L 256.528812 214.716832 
L 256.555592 214.716832 
L 256.601361 211.523168 
L 256.770464 211.523168 
L 256.815949 209.926337 
L 256.902521 209.926337 
L 256.902521 209.127921 
L 257.07519 209.127921 
L 257.07519 208.329505 
L 257.387768 208.329505 
L 257.4441 206.732673 
L 257.564013 206.732673 
L 257.564013 205.934257 
L 257.703079 205.934257 
L 257.710466 204.337426 
L 257.870259 204.337426 
L 257.96944 200.345347 
L 258.086503 200.345347 
L 258.086503 199.546931 
L 258.369289 199.546931 
L 258.447296 193.95802 
L 258.493474 193.95802 
L 258.510053 192.361188 
L 258.736057 192.361188 
L 258.736057 191.562772 
L 258.99216 191.562772 
L 258.99216 190.764356 
L 259.128347 190.764356 
L 259.128347 189.965941 
L 259.356836 189.965941 
L 259.425019 188.369109 
L 259.499339 188.369109 
L 259.57356 186.772277 
L 259.63623 186.772277 
L 259.63623 185.973861 
L 259.785401 185.973861 
L 259.890258 183.578614 
L 260.434158 183.578614 
L 260.486017 181.183366 
L 260.625399 181.183366 
L 260.705978 178.788119 
L 260.85948 178.788119 
L 260.88081 177.191287 
L 261.13332 177.191287 
L 261.185709 175.594455 
L 261.6682 175.594455 
L 261.6682 174.79604 
L 261.991222 174.79604 
L 261.993046 173.199208 
L 262.20801 173.199208 
L 262.308201 168.408713 
L 263.003631 168.408713 
L 263.003631 167.610297 
L 263.134605 167.610297 
L 263.167959 166.013465 
L 263.260028 166.013465 
L 263.300994 164.416634 
L 263.711452 164.416634 
L 263.711452 163.618218 
L 264.000525 163.618218 
L 264.000525 162.819802 
L 264.890008 162.819802 
L 264.890008 162.021386 
L 265.071874 162.021386 
L 265.071874 161.22297 
L 265.289076 161.22297 
L 265.289076 160.424554 
L 265.416104 160.424554 
L 265.416104 159.626139 
L 265.715671 159.626139 
L 265.780532 158.029307 
L 266.127118 158.029307 
L 266.127118 157.230891 
L 266.54435 157.230891 
L 266.54435 156.432475 
L 266.860752 156.432475 
L 266.867086 154.835644 
L 267.149597 154.835644 
L 267.149597 154.037228 
L 267.488076 154.037228 
L 267.488076 153.238812 
L 267.8459 153.238812 
L 267.905808 151.64198 
L 268.002967 151.64198 
L 268.080544 150.045149 
L 268.454113 150.045149 
L 268.492247 148.448317 
L 268.641553 148.448317 
L 268.716946 146.851485 
L 268.87811 146.851485 
L 268.87811 146.053069 
L 269.294129 146.053069 
L 269.294129 145.254653 
L 269.472132 145.254653 
L 269.472132 144.456238 
L 269.755098 144.456238 
L 269.755098 143.657822 
L 270.161145 143.657822 
L 270.161145 142.859406 
L 271.828472 142.859406 
L 271.828472 142.06099 
L 272.829235 142.06099 
L 272.929695 140.464158 
L 273.27043 140.464158 
L 273.273928 138.867327 
L 273.454655 138.867327 
L 273.561083 136.472079 
L 273.703416 136.472079 
L 273.703416 135.673663 
L 273.822272 135.673663 
L 273.822272 134.875248 
L 274.042054 134.875248 
L 274.042054 134.076832 
L 274.436394 134.076832 
L 274.436394 133.278416 
L 274.732504 133.278416 
L 274.732504 132.48 
L 274.930417 132.48 
L 274.930417 131.681584 
L 275.161051 131.681584 
L 275.161051 130.883168 
L 275.556427 130.883168 
L 275.578751 129.286337 
L 276.716202 129.286337 
L 276.716202 128.487921 
L 277.040434 128.487921 
L 277.040434 127.689505 
L 278.013745 127.689505 
L 278.116444 126.092673 
L 278.849089 126.092673 
L 278.953591 123.697426 
L 279.005326 123.697426 
L 279.005326 122.89901 
L 280.046582 122.89901 
L 280.046582 122.100594 
L 280.175238 122.100594 
L 280.175238 121.302178 
L 280.605175 121.302178 
L 280.711874 119.705347 
L 281.174886 119.705347 
L 281.174886 118.906931 
L 281.549102 118.906931 
L 281.549102 118.108515 
L 285.742693 118.108515 
L 285.742693 117.310099 
L 285.875219 117.310099 
L 285.875219 116.511683 
L 286.447577 116.511683 
L 286.447577 115.713267 
L 286.681558 115.713267 
L 286.681558 114.914851 
L 286.907268 114.914851 
L 286.907268 114.116436 
L 287.125242 114.116436 
L 287.125242 113.31802 
L 287.779452 113.31802 
L 287.779452 112.519604 
L 288.047462 112.519604 
L 288.047462 111.721188 
L 288.268258 111.721188 
L 288.268258 110.922772 
L 288.479334 110.922772 
L 288.479334 110.124356 
L 288.922484 110.124356 
L 288.922484 109.325941 
L 289.04695 109.325941 
L 289.04695 108.527525 
L 290.008476 108.527525 
L 290.008476 107.729109 
L 290.832022 107.729109 
L 290.832022 106.930693 
L 291.184099 106.930693 
L 291.184099 106.132277 
L 293.445148 106.132277 
L 293.445148 105.333861 
L 294.359681 105.333861 
L 294.359681 104.535446 
L 295.156042 104.535446 
L 295.156042 103.73703 
L 295.542926 103.73703 
L 295.542926 102.938614 
L 296.720084 102.938614 
L 296.720084 102.140198 
L 297.128718 102.140198 
L 297.226794 100.543366 
L 299.654559 100.543366 
L 299.654559 99.74495 
L 306.585348 99.74495 
L 306.585348 98.946535 
L 307.435553 98.946535 
L 307.532246 97.349703 
L 308.883445 97.349703 
L 308.883445 96.551287 
L 313.002573 96.551287 
L 313.002573 95.752871 
L 314.681255 95.752871 
L 314.681255 94.954455 
L 316.248863 94.954455 
L 316.248863 94.15604 
L 317.564803 94.15604 
L 317.564803 93.357624 
L 318.247258 93.357624 
L 318.247258 92.559208 
L 321.901751 92.559208 
L 321.901751 91.760792 
L 322.997653 91.760792 
L 322.997653 90.962376 
L 324.581269 90.962376 
L 324.581269 90.16396 
L 325.176601 90.16396 
L 325.196403 88.567129 
L 325.509577 88.567129 
L 325.509577 87.768713 
L 326.327965 87.768713 
L 326.327965 86.970297 
L 326.655815 86.970297 
L 326.655815 86.171881 
L 327.74319 86.171881 
L 327.808447 84.57505 
L 327.861933 84.57505 
L 327.911272 82.978218 
L 327.999092 82.978218 
L 327.999092 82.179802 
L 328.145447 82.179802 
L 328.145447 81.381386 
L 328.29007 81.381386 
L 328.29007 80.58297 
L 328.46075 80.58297 
L 328.46075 79.784554 
L 329.213757 79.784554 
L 329.26066 78.187723 
L 330.014431 78.187723 
L 330.014431 77.389307 
L 331.0321 77.389307 
L 331.0321 76.590891 
L 331.450446 76.590891 
L 331.450446 75.792475 
L 331.863819 75.792475 
L 331.863819 74.994059 
L 332.507363 74.994059 
L 332.555057 73.397228 
L 332.640162 73.397228 
L 332.640162 72.598812 
L 332.804783 72.598812 
L 332.804783 71.800396 
L 333.917033 71.800396 
L 333.917033 71.00198 
L 334.223609 71.00198 
L 334.223609 70.203564 
L 334.38598 70.203564 
L 334.38598 69.405149 
L 334.591021 69.405149 
L 334.591021 68.606733 
L 335.574825 68.606733 
L 335.582126 67.009901 
L 336.757583 67.009901 
L 336.757583 66.211485 
L 338.887945 66.211485 
L 338.887945 65.413069 
L 339.241554 65.413069 
L 339.337488 63.816238 
L 340.817486 63.816238 
L 340.817486 63.017822 
L 341.480573 63.017822 
L 341.480573 62.219406 
L 341.679962 62.219406 
L 341.679962 61.42099 
L 342.014941 61.42099 
L 342.014941 60.622574 
L 342.213722 60.622574 
L 342.213722 59.824158 
L 342.797839 59.824158 
L 342.797839 59.025743 
L 344.873503 59.025743 
L 344.873503 58.227327 
L 345.777018 58.227327 
L 345.777018 57.428911 
L 345.952119 57.428911 
L 345.952119 56.630495 
L 346.890131 56.630495 
L 346.890131 55.832079 
L 347.034197 55.832079 
L 347.034197 55.033663 
L 350.664813 55.033663 
L 350.664813 54.235248 
L 351.79321 54.235248 
L 351.79321 53.436832 
L 352.372055 53.436832 
L 352.372055 52.638416 
L 353.869045 52.638416 
L 353.869045 51.84 
L 355.241521 51.84 
L 355.241521 51.041584 
L 357.502219 51.041584 
L 357.502219 50.243168 
L 358.919624 50.243168 
L 358.919624 49.444752 
L 359.865751 49.444752 
L 359.865751 48.646337 
L 361.129956 48.646337 
L 361.129956 47.847921 
L 361.342736 47.847921 
L 361.342736 47.049505 
L 361.867242 47.049505 
L 361.946877 45.452673 
L 362.710125 45.452673 
L 362.710125 44.654257 
L 363.577213 44.654257 
L 363.577213 43.855842 
L 365.642372 43.855842 
L 365.642372 43.057426 
L 365.768251 43.057426 
L 365.768251 42.25901 
L 367.498024 42.25901 
L 367.498024 41.460594 
L 367.896222 41.460594 
L 367.908873 39.863762 
L 368.611232 39.863762 
L 368.611232 39.065347 
L 369.338346 39.065347 
L 369.338346 38.266931 
L 369.657391 38.266931 
L 369.657391 37.468515 
L 370.986393 37.468515 
L 370.986393 36.670099 
L 371.591953 36.670099 
L 371.591953 35.871683 
L 373.560501 35.871683 
L 373.560501 35.073267 
L 374.376086 35.073267 
L 374.376086 34.274851 
L 375.947747 34.274851 
L 375.947747 33.476436 
L 378.417889 33.476436 
L 378.417889 32.67802 
L 379.24118 32.67802 
L 379.24118 31.879604 
L 380.318592 31.879604 
L 380.318592 31.081188 
L 381.724448 31.081188 
L 381.724448 30.282772 
L 384.073388 30.282772 
L 384.073388 29.484356 
L 385.402367 29.484356 
L 385.402367 28.685941 
L 386.926 28.685941 
L 386.926 27.887525 
L 387.796653 27.887525 
L 387.796653 27.089109 
L 388.39452 27.089109 
L 388.39452 26.290693 
L 389.063055 26.290693 
L 389.063055 25.492277 
L 390.610835 25.492277 
L 390.610835 24.693861 
L 391.191648 24.693861 
L 391.191648 23.895446 
L 391.323854 23.895446 
L 391.327961 22.298614 
L 394.898254 22.298614 
L 394.898254 21.500198 
L 395.549873 21.500198 
L 395.549873 20.701782 
L 395.695263 20.701782 
L 395.695263 19.903366 
L 396.203684 19.903366 
L 396.203684 19.10495 
L 399.175717 19.10495 
L 399.175717 18.306535 
L 401.043221 18.306535 
L 401.043221 17.508119 
L 402.763433 17.508119 
L 402.763433 16.709703 
L 404.979451 16.709703 
L 404.979451 15.911287 
L 405.616619 15.911287 
L 405.616619 15.112871 
L 406.538596 15.112871 
L 406.632783 13.51604 
L 407.429737 13.51604 
L 407.429737 12.717624 
L 413.054528 12.717624 
L 413.054528 11.919208 
L 413.829515 11.919208 
L 413.829515 11.120792 
L 417.513856 11.120792 
L 417.513856 10.322376 
L 418.058528 10.322376 
L 418.058528 9.52396 
L 422.539883 9.52396 
L 422.539883 8.725545 
L 429.335304 8.725545 
L 429.335304 7.927129 
L 439.991019 7.927129 
L 439.991019 7.128713 
L 447.611774 7.128713 
L 447.611774 6.330297 
L 447.611774 6.330297 
L 460.8 6.330297 
L 460.8 6.330297 
" style="fill:none;stroke:#00bfbf;stroke-linecap:square;stroke-width:1.5;"/>
   </g>
   <g id="line2d_23">
    <path clip-path="url(#pf5d37b9385)" d="M 223.115934 293.76 
L 223.115934 292.961584 
L 223.840865 292.961584 
L 223.840865 292.163168 
L 225.528741 292.163168 
L 225.528741 291.364752 
L 225.941543 291.364752 
L 225.941543 290.566337 
L 229.007256 290.566337 
L 229.007256 289.767921 
L 229.965672 289.767921 
L 229.965672 288.969505 
L 230.958603 288.969505 
L 230.958603 288.171089 
L 231.071248 288.171089 
L 231.071248 287.372673 
L 231.453071 287.372673 
L 231.453071 286.574257 
L 231.890912 286.574257 
L 231.890912 285.775842 
L 232.120996 285.775842 
L 232.120996 284.977426 
L 232.954756 284.977426 
L 232.981976 283.380594 
L 233.079866 283.380594 
L 233.079866 282.582178 
L 234.007431 282.582178 
L 234.007431 281.783762 
L 234.385688 281.783762 
L 234.385688 280.985347 
L 234.584848 280.985347 
L 234.63049 278.590099 
L 234.7143 278.590099 
L 234.7143 277.791683 
L 235.31007 277.791683 
L 235.31007 276.993267 
L 235.683449 276.993267 
L 235.683449 276.194851 
L 235.89843 276.194851 
L 235.89843 275.396436 
L 236.115912 275.396436 
L 236.115912 274.59802 
L 237.062002 274.59802 
L 237.062002 273.799604 
L 237.334305 273.799604 
L 237.388674 272.202772 
L 237.506063 272.202772 
L 237.506063 271.404356 
L 237.670882 271.404356 
L 237.733924 269.807525 
L 237.820745 269.807525 
L 237.820745 269.009109 
L 238.370193 269.009109 
L 238.370193 268.210693 
L 238.825732 268.210693 
L 238.934042 265.815446 
L 239.148758 265.815446 
L 239.148758 265.01703 
L 239.495296 265.01703 
L 239.596137 263.420198 
L 240.200693 263.420198 
L 240.208298 261.823366 
L 240.365317 261.823366 
L 240.365317 261.02495 
L 240.518678 261.02495 
L 240.538592 259.428119 
L 240.791385 259.428119 
L 240.847437 257.831287 
L 240.983317 257.831287 
L 240.983317 257.032871 
L 241.383599 257.032871 
L 241.383599 256.234455 
L 241.705486 256.234455 
L 241.705486 255.43604 
L 241.825675 255.43604 
L 241.825675 254.637624 
L 241.95653 254.637624 
L 241.95653 253.839208 
L 242.168506 253.839208 
L 242.168506 253.040792 
L 242.475129 253.040792 
L 242.487749 251.44396 
L 243.076049 251.44396 
L 243.076049 250.645545 
L 243.629573 250.645545 
L 243.691745 248.250297 
L 243.788447 248.250297 
L 243.882817 246.653465 
L 244.07782 246.653465 
L 244.07782 245.85505 
L 244.322893 245.85505 
L 244.431919 243.459802 
L 244.464804 243.459802 
L 244.464804 242.661386 
L 245.085559 242.661386 
L 245.085559 241.86297 
L 245.211302 241.86297 
L 245.304199 240.266139 
L 245.499064 240.266139 
L 245.499064 239.467723 
L 245.745143 239.467723 
L 245.745143 238.669307 
L 245.994201 238.669307 
L 245.994201 237.870891 
L 246.272313 237.870891 
L 246.272313 237.072475 
L 246.432432 237.072475 
L 246.432432 236.274059 
L 246.802713 236.274059 
L 246.802713 235.475644 
L 247.157491 235.475644 
L 247.157491 234.677228 
L 247.358913 234.677228 
L 247.358913 233.878812 
L 247.476381 233.878812 
L 247.476381 233.080396 
L 247.992274 233.080396 
L 247.992274 232.28198 
L 248.192927 232.28198 
L 248.221221 230.685149 
L 248.359924 230.685149 
L 248.359924 229.886733 
L 248.611593 229.886733 
L 248.63959 228.289901 
L 248.807145 228.289901 
L 248.807145 227.491485 
L 248.936851 227.491485 
L 249.031957 225.894653 
L 249.357022 225.894653 
L 249.357022 225.096238 
L 249.581829 225.096238 
L 249.581829 224.297822 
L 249.837717 224.297822 
L 249.913374 222.70099 
L 249.951589 222.70099 
L 250.058052 221.104158 
L 250.245895 221.104158 
L 250.245895 220.305743 
L 250.598148 220.305743 
L 250.598148 219.507327 
L 250.825622 219.507327 
L 250.825622 218.708911 
L 251.079824 218.708911 
L 251.079824 217.910495 
L 251.491544 217.910495 
L 251.582067 216.313663 
L 251.655266 216.313663 
L 251.663471 214.716832 
L 251.911362 214.716832 
L 251.911362 213.918416 
L 252.286384 213.918416 
L 252.286384 213.12 
L 252.767074 213.12 
L 252.835711 209.926337 
L 252.920677 209.926337 
L 253.010565 208.329505 
L 253.1068 208.329505 
L 253.1068 207.531089 
L 253.338763 207.531089 
L 253.338763 206.732673 
L 253.869555 206.732673 
L 253.949815 204.337426 
L 254.02705 204.337426 
L 254.02705 203.53901 
L 254.158444 203.53901 
L 254.158444 202.740594 
L 254.359477 202.740594 
L 254.467153 200.345347 
L 254.701525 200.345347 
L 254.775029 198.748515 
L 255.080633 198.748515 
L 255.097279 197.151683 
L 255.364985 197.151683 
L 255.453123 195.554851 
L 255.491511 195.554851 
L 255.579813 193.95802 
L 255.735209 193.95802 
L 255.836477 191.562772 
L 255.961287 191.562772 
L 256.007825 189.965941 
L 256.125032 189.965941 
L 256.190686 187.570693 
L 256.331358 187.570693 
L 256.412992 185.973861 
L 256.555592 185.973861 
L 256.6133 184.37703 
L 256.666812 184.37703 
L 256.709901 182.780198 
L 256.815949 182.780198 
L 256.902521 180.38495 
L 256.98235 180.38495 
L 256.98235 179.586535 
L 257.107668 179.586535 
L 257.115054 177.989703 
L 257.234047 177.989703 
L 257.338063 175.594455 
L 257.387768 175.594455 
L 257.4441 173.997624 
L 257.51324 173.997624 
L 257.607032 172.400792 
L 257.63751 172.400792 
L 257.720709 170.005545 
L 257.777415 170.005545 
L 257.870259 168.408713 
L 257.930546 168.408713 
L 257.964369 166.811881 
L 258.086503 166.811881 
L 258.086503 166.013465 
L 258.272046 166.013465 
L 258.272046 165.21505 
L 258.447296 165.21505 
L 258.510053 162.021386 
L 258.723967 162.021386 
L 258.723967 161.22297 
L 259.071585 161.22297 
L 259.094261 159.626139 
L 259.356836 159.626139 
L 259.431019 158.029307 
L 259.499339 158.029307 
L 259.499339 157.230891 
L 259.989186 157.230891 
L 259.989186 156.432475 
L 260.242758 156.432475 
L 260.242758 155.634059 
L 260.582373 155.634059 
L 260.625399 154.037228 
L 260.748777 154.037228 
L 260.748777 153.238812 
L 260.88081 153.238812 
L 260.88081 152.440396 
L 261.6682 152.440396 
L 261.6682 151.64198 
L 262.115322 151.64198 
L 262.115322 150.843564 
L 262.307527 150.843564 
L 262.307527 150.045149 
L 262.492078 150.045149 
L 262.492078 149.246733 
L 262.750833 149.246733 
L 262.750833 148.448317 
L 263.003631 148.448317 
L 263.003631 147.649901 
L 263.231795 147.649901 
L 263.251921 145.254653 
L 263.359391 145.254653 
L 263.359391 144.456238 
L 263.723318 144.456238 
L 263.743142 142.859406 
L 264.082491 142.859406 
L 264.10344 140.464158 
L 264.528085 140.464158 
L 264.528085 139.665743 
L 265.071874 139.665743 
L 265.071874 138.867327 
L 265.248777 138.867327 
L 265.301371 137.270495 
L 265.667118 137.270495 
L 265.68235 135.673663 
L 266.087202 135.673663 
L 266.087202 134.875248 
L 266.321098 134.875248 
L 266.413728 133.278416 
L 266.699476 133.278416 
L 266.790567 131.681584 
L 267.149597 131.681584 
L 267.149597 130.883168 
L 267.488076 130.883168 
L 267.488076 130.084752 
L 268.44579 130.084752 
L 268.454113 128.487921 
L 268.716946 128.487921 
L 268.757836 126.891089 
L 268.944354 126.891089 
L 268.944354 126.092673 
L 269.346196 126.092673 
L 269.35946 124.495842 
L 270.161145 124.495842 
L 270.161145 123.697426 
L 270.650136 123.697426 
L 270.749864 122.100594 
L 270.806568 122.100594 
L 270.806568 121.302178 
L 270.920587 121.302178 
L 270.920587 120.503762 
L 271.301662 120.503762 
L 271.301662 119.705347 
L 272.929695 119.705347 
L 272.929695 118.906931 
L 274.107819 118.906931 
L 274.107819 118.108515 
L 274.766299 118.108515 
L 274.766299 117.310099 
L 275.161051 117.310099 
L 275.161051 116.511683 
L 275.448675 116.511683 
L 275.448675 115.713267 
L 276.200006 115.713267 
L 276.200006 114.914851 
L 277.177333 114.914851 
L 277.177333 114.116436 
L 277.812336 114.116436 
L 277.812336 113.31802 
L 278.953591 113.31802 
L 279.005326 111.721188 
L 281.174886 111.721188 
L 281.21265 110.124356 
L 281.497303 110.124356 
L 281.549102 108.527525 
L 282.767297 108.527525 
L 282.845429 106.930693 
L 283.293313 106.930693 
L 283.293313 106.132277 
L 284.564167 106.132277 
L 284.564167 105.333861 
L 285.619238 105.333861 
L 285.619238 104.535446 
L 285.744387 104.535446 
L 285.744387 103.73703 
L 285.960019 103.73703 
L 285.960019 102.938614 
L 286.358798 102.938614 
L 286.358798 102.140198 
L 286.681558 102.140198 
L 286.759692 100.543366 
L 286.817829 100.543366 
L 286.817829 99.74495 
L 287.09242 99.74495 
L 287.09242 98.946535 
L 288.479334 98.946535 
L 288.479334 98.148119 
L 288.750876 98.148119 
L 288.79676 96.551287 
L 289.573351 96.551287 
L 289.573351 95.752871 
L 295.156042 95.752871 
L 295.156042 94.954455 
L 295.542926 94.954455 
L 295.542926 94.15604 
L 296.104045 94.15604 
L 296.104045 93.357624 
L 296.990476 93.357624 
L 296.990476 92.559208 
L 301.221102 92.559208 
L 301.221102 91.760792 
L 304.113943 91.760792 
L 304.113943 90.962376 
L 305.114786 90.962376 
L 305.114786 90.16396 
L 305.232947 90.16396 
L 305.232947 89.365545 
L 306.21059 89.365545 
L 306.21059 88.567129 
L 306.427583 88.567129 
L 306.427583 87.768713 
L 306.585348 87.768713 
L 306.585348 86.970297 
L 306.930796 86.970297 
L 306.930796 86.171881 
L 307.435553 86.171881 
L 307.532246 84.57505 
L 308.023284 84.57505 
L 308.023284 83.776634 
L 308.761943 83.776634 
L 308.761943 82.978218 
L 308.883445 82.978218 
L 308.883445 82.179802 
L 310.63048 82.179802 
L 310.63048 81.381386 
L 311.504987 81.381386 
L 311.595911 79.784554 
L 312.017954 79.784554 
L 312.017954 78.986139 
L 313.22531 78.986139 
L 313.22531 78.187723 
L 314.774596 78.187723 
L 314.774596 77.389307 
L 315.613057 77.389307 
L 315.613057 76.590891 
L 316.248863 76.590891 
L 316.248863 75.792475 
L 316.651104 75.792475 
L 316.651104 74.994059 
L 317.323073 74.994059 
L 317.323073 74.195644 
L 317.564803 74.195644 
L 317.564803 73.397228 
L 317.953561 73.397228 
L 318.01841 71.800396 
L 318.172947 71.800396 
L 318.247258 70.203564 
L 318.883784 70.203564 
L 318.883784 69.405149 
L 319.005056 69.405149 
L 319.065645 67.808317 
L 319.295435 67.808317 
L 319.295435 67.009901 
L 319.955543 67.009901 
L 319.955543 66.211485 
L 320.688306 66.211485 
L 320.688306 65.413069 
L 321.20706 65.413069 
L 321.20706 64.614653 
L 321.351119 64.614653 
L 321.351119 63.816238 
L 321.607888 63.816238 
L 321.607888 63.017822 
L 321.901751 63.017822 
L 321.901751 62.219406 
L 322.948591 62.219406 
L 322.948591 61.42099 
L 324.679657 61.42099 
L 324.726505 59.824158 
L 326.195773 59.824158 
L 326.277315 58.227327 
L 327.764229 58.227327 
L 327.764229 57.428911 
L 328.004053 57.428911 
L 328.004053 56.630495 
L 328.481487 56.630495 
L 328.481487 55.832079 
L 332.804783 55.832079 
L 332.804783 55.033663 
L 333.010753 55.033663 
L 333.010753 54.235248 
L 334.27127 54.235248 
L 334.27127 53.436832 
L 334.758441 53.436832 
L 334.758441 52.638416 
L 335.582126 52.638416 
L 335.582126 51.84 
L 335.749095 51.84 
L 335.749095 51.041584 
L 339.003364 51.041584 
L 339.003364 50.243168 
L 339.528716 50.243168 
L 339.528716 49.444752 
L 341.480573 49.444752 
L 341.480573 48.646337 
L 342.158055 48.646337 
L 342.158055 47.847921 
L 342.797839 47.847921 
L 342.797839 47.049505 
L 343.146159 47.049505 
L 343.146159 46.251089 
L 343.459541 46.251089 
L 343.459541 45.452673 
L 343.592526 45.452673 
L 343.592526 44.654257 
L 344.873503 44.654257 
L 344.873503 43.855842 
L 345.344655 43.855842 
L 345.370617 42.25901 
L 345.777018 42.25901 
L 345.777018 41.460594 
L 347.922407 41.460594 
L 347.922407 40.662178 
L 348.154078 40.662178 
L 348.154078 39.863762 
L 349.713934 39.863762 
L 349.713934 39.065347 
L 350.495512 39.065347 
L 350.495512 38.266931 
L 352.372055 38.266931 
L 352.372055 37.468515 
L 353.857243 37.468515 
L 353.857243 36.670099 
L 355.170152 36.670099 
L 355.241521 35.073267 
L 355.643866 35.073267 
L 355.643866 34.274851 
L 356.798498 34.274851 
L 356.798498 33.476436 
L 357.502219 33.476436 
L 357.502219 32.67802 
L 358.057909 32.67802 
L 358.089598 31.081188 
L 360.827642 31.081188 
L 360.827642 30.282772 
L 363.709687 30.282772 
L 363.709687 29.484356 
L 365.174414 29.484356 
L 365.174414 28.685941 
L 366.937431 28.685941 
L 366.937431 27.887525 
L 367.498024 27.887525 
L 367.498024 27.089109 
L 367.769139 27.089109 
L 367.769139 26.290693 
L 367.896222 26.290693 
L 367.896222 25.492277 
L 369.092967 25.492277 
L 369.092967 24.693861 
L 369.219945 24.693861 
L 369.219945 23.895446 
L 370.655605 23.895446 
L 370.655605 23.09703 
L 370.986393 23.09703 
L 370.986393 22.298614 
L 372.784565 22.298614 
L 372.784565 21.500198 
L 374.376086 21.500198 
L 374.376086 20.701782 
L 382.46202 20.701782 
L 382.46202 19.903366 
L 387.199781 19.903366 
L 387.199781 19.10495 
L 390.610835 19.10495 
L 390.610835 18.306535 
L 391.191648 18.306535 
L 391.191648 17.508119 
L 394.659813 17.508119 
L 394.659813 16.709703 
L 398.704728 16.709703 
L 398.778862 15.112871 
L 399.761222 15.112871 
L 399.761222 14.314455 
L 399.987755 14.314455 
L 399.987755 13.51604 
L 401.780213 13.51604 
L 401.780213 12.717624 
L 402.162357 12.717624 
L 402.162357 11.919208 
L 405.481307 11.919208 
L 405.481307 11.120792 
L 405.866421 11.120792 
L 405.866421 10.322376 
L 406.159493 10.322376 
L 406.159493 9.52396 
L 407.429737 9.52396 
L 407.429737 8.725545 
L 412.638312 8.725545 
L 412.638312 7.927129 
L 413.829515 7.927129 
L 413.829515 7.128713 
L 415.666243 7.128713 
L 415.666243 6.330297 
L 415.666243 6.330297 
L 460.8 6.330297 
L 460.8 6.330297 
" style="fill:none;stroke:#bf00bf;stroke-linecap:square;stroke-width:1.5;"/>
   </g>
   <g id="line2d_24">
    <path clip-path="url(#pf5d37b9385)" d="M 221.939062 293.76 
L 221.939062 292.961584 
L 222.921921 292.961584 
L 222.921921 292.163168 
L 223.115934 292.163168 
L 223.115934 291.364752 
L 223.840865 291.364752 
L 223.840865 290.566337 
L 223.973419 290.566337 
L 223.973419 289.767921 
L 224.388817 289.767921 
L 224.388817 288.969505 
L 224.871664 288.969505 
L 224.871664 288.171089 
L 225.446483 288.171089 
L 225.528741 286.574257 
L 225.765943 286.574257 
L 225.765943 285.775842 
L 225.941543 285.775842 
L 225.941543 284.977426 
L 228.261902 284.977426 
L 228.261902 284.17901 
L 228.803425 284.17901 
L 228.862813 282.582178 
L 229.347626 282.582178 
L 229.347626 281.783762 
L 229.965672 281.783762 
L 229.965672 280.985347 
L 230.237225 280.985347 
L 230.237225 280.186931 
L 230.920043 280.186931 
L 230.969927 277.791683 
L 231.071248 277.791683 
L 231.071248 276.993267 
L 231.210367 276.993267 
L 231.210367 276.194851 
L 231.453071 276.194851 
L 231.453071 275.396436 
L 231.890912 275.396436 
L 231.890912 274.59802 
L 232.120996 274.59802 
L 232.225021 273.001188 
L 232.500838 273.001188 
L 232.569624 271.404356 
L 232.82673 271.404356 
L 232.914646 269.807525 
L 232.952057 269.807525 
L 232.981976 268.210693 
L 233.079866 268.210693 
L 233.079866 267.412277 
L 233.364221 267.412277 
L 233.364221 266.613861 
L 233.522038 266.613861 
L 233.522038 265.815446 
L 234.007431 265.815446 
L 234.007431 265.01703 
L 234.24115 265.01703 
L 234.270126 263.420198 
L 234.385688 263.420198 
L 234.385688 262.621782 
L 234.63049 262.621782 
L 234.7143 259.428119 
L 234.857749 259.428119 
L 234.919569 257.831287 
L 235.31007 257.831287 
L 235.374218 255.43604 
L 235.795267 255.43604 
L 235.89843 253.839208 
L 235.982256 253.839208 
L 235.988301 252.242376 
L 236.115912 252.242376 
L 236.115912 251.44396 
L 236.615328 251.44396 
L 236.615328 250.645545 
L 236.822583 250.645545 
L 236.822583 249.847129 
L 237.215785 249.847129 
L 237.277151 246.653465 
L 237.388674 246.653465 
L 237.388674 245.85505 
L 237.519201 245.85505 
L 237.519201 245.056634 
L 237.733924 245.056634 
L 237.733924 244.258218 
L 237.934867 244.258218 
L 237.934867 243.459802 
L 238.370193 243.459802 
L 238.370193 242.661386 
L 239.030077 242.661386 
L 239.030077 241.86297 
L 239.15841 241.86297 
L 239.15841 241.064554 
L 239.341694 241.064554 
L 239.341694 240.266139 
L 239.562821 240.266139 
L 239.563337 238.669307 
L 239.931175 238.669307 
L 239.931175 237.870891 
L 240.053181 237.870891 
L 240.053181 237.072475 
L 240.216163 237.072475 
L 240.216163 236.274059 
L 240.983317 236.274059 
L 241.000392 234.677228 
L 241.098506 234.677228 
L 241.166128 233.080396 
L 241.210901 233.080396 
L 241.210901 232.28198 
L 241.386399 232.28198 
L 241.386399 231.483564 
L 241.705486 231.483564 
L 241.705486 230.685149 
L 242.487749 230.685149 
L 242.487749 229.886733 
L 243.076049 229.886733 
L 243.076049 229.088317 
L 243.398506 229.088317 
L 243.398506 228.289901 
L 243.629573 228.289901 
L 243.691146 225.894653 
L 243.788447 225.894653 
L 243.788447 225.096238 
L 243.965223 225.096238 
L 243.965223 224.297822 
L 244.162223 224.297822 
L 244.162223 223.499406 
L 244.42864 223.499406 
L 244.464804 221.104158 
L 244.654136 221.104158 
L 244.654136 220.305743 
L 245.024292 220.305743 
L 245.024292 219.507327 
L 245.211302 219.507327 
L 245.211302 218.708911 
L 245.366404 218.708911 
L 245.366404 217.910495 
L 245.499064 217.910495 
L 245.499064 217.112079 
L 245.71491 217.112079 
L 245.745143 215.515248 
L 245.994201 215.515248 
L 245.994201 214.716832 
L 246.432432 214.716832 
L 246.432432 213.918416 
L 247.157491 213.918416 
L 247.157491 213.12 
L 247.476381 213.12 
L 247.476381 212.321584 
L 247.8634 212.321584 
L 247.8634 211.523168 
L 248.051574 211.523168 
L 248.051574 210.724752 
L 248.192927 210.724752 
L 248.192927 209.926337 
L 248.477544 209.926337 
L 248.525832 208.329505 
L 248.741681 208.329505 
L 248.807145 206.732673 
L 248.9265 206.732673 
L 248.936851 205.135842 
L 249.264854 205.135842 
L 249.357022 202.740594 
L 249.837717 202.740594 
L 249.837717 201.942178 
L 249.951589 201.942178 
L 249.951589 201.143762 
L 250.239811 201.143762 
L 250.302593 198.748515 
L 250.472493 198.748515 
L 250.510779 197.151683 
L 250.709288 197.151683 
L 250.709288 196.353267 
L 250.825622 196.353267 
L 250.825622 195.554851 
L 251.320104 195.554851 
L 251.43037 193.159604 
L 251.491544 193.159604 
L 251.582067 191.562772 
L 251.669283 191.562772 
L 251.669283 190.764356 
L 251.911362 190.764356 
L 251.911362 189.965941 
L 252.286384 189.965941 
L 252.286384 189.167525 
L 252.441246 189.167525 
L 252.441246 188.369109 
L 252.616342 188.369109 
L 252.647739 186.772277 
L 252.768152 186.772277 
L 252.835711 182.780198 
L 252.920677 182.780198 
L 252.920677 181.981782 
L 253.1068 181.981782 
L 253.142026 180.38495 
L 253.338763 180.38495 
L 253.338763 179.586535 
L 253.560953 179.586535 
L 253.612487 177.989703 
L 253.871126 177.989703 
L 253.871126 177.191287 
L 254.02705 177.191287 
L 254.02705 176.392871 
L 254.158444 176.392871 
L 254.158444 175.594455 
L 254.273794 175.594455 
L 254.273794 174.79604 
L 254.701525 174.79604 
L 254.701525 173.997624 
L 254.970121 173.997624 
L 254.970121 173.199208 
L 255.112529 173.199208 
L 255.112529 172.400792 
L 255.453123 172.400792 
L 255.506048 170.80396 
L 255.805761 170.80396 
L 255.805761 170.005545 
L 255.961287 170.005545 
L 256.051268 167.610297 
L 256.099804 167.610297 
L 256.125032 166.013465 
L 256.231978 166.013465 
L 256.231978 165.21505 
L 256.469331 165.21505 
L 256.573566 162.819802 
L 256.6133 162.819802 
L 256.6133 162.021386 
L 256.815949 162.021386 
L 256.815949 161.22297 
L 256.990604 161.22297 
L 256.990604 160.424554 
L 257.234047 160.424554 
L 257.338063 157.230891 
L 257.607032 157.230891 
L 257.708546 155.634059 
L 257.720709 155.634059 
L 257.720709 154.835644 
L 257.930546 154.835644 
L 257.964369 153.238812 
L 258.177472 153.238812 
L 258.177472 152.440396 
L 258.693841 152.440396 
L 258.693841 151.64198 
L 258.814948 151.64198 
L 258.878003 149.246733 
L 258.994853 149.246733 
L 258.994853 148.448317 
L 259.119073 148.448317 
L 259.119073 147.649901 
L 259.356836 147.649901 
L 259.431019 145.254653 
L 259.782103 145.254653 
L 259.829956 143.657822 
L 259.989186 143.657822 
L 260.072886 142.06099 
L 260.142954 142.06099 
L 260.242758 140.464158 
L 260.547636 140.464158 
L 260.547636 139.665743 
L 260.748777 139.665743 
L 260.748777 138.867327 
L 260.88081 138.867327 
L 260.941913 137.270495 
L 261.147302 137.270495 
L 261.147302 136.472079 
L 261.537078 136.472079 
L 261.537078 135.673663 
L 261.737189 135.673663 
L 261.737189 134.875248 
L 262.115322 134.875248 
L 262.115322 134.076832 
L 262.310498 134.076832 
L 262.310498 133.278416 
L 262.492078 133.278416 
L 262.503556 131.681584 
L 262.750833 131.681584 
L 262.750833 130.883168 
L 262.902883 130.883168 
L 263.003631 129.286337 
L 263.233452 129.286337 
L 263.233452 128.487921 
L 263.359391 128.487921 
L 263.359391 127.689505 
L 263.705668 127.689505 
L 263.723318 126.092673 
L 264.101691 126.092673 
L 264.101691 125.294257 
L 265.071874 125.294257 
L 265.071874 124.495842 
L 265.241332 124.495842 
L 265.341539 122.100594 
L 265.540795 122.100594 
L 265.540795 121.302178 
L 265.667118 121.302178 
L 265.68235 119.705347 
L 265.908843 119.705347 
L 265.908843 118.906931 
L 266.087202 118.906931 
L 266.087202 118.108515 
L 266.321098 118.108515 
L 266.413728 116.511683 
L 266.699476 116.511683 
L 266.787639 114.914851 
L 267.412045 114.914851 
L 267.412045 114.116436 
L 268.405359 114.116436 
L 268.405359 113.31802 
L 269.346196 113.31802 
L 269.346196 112.519604 
L 269.458953 112.519604 
L 269.458953 111.721188 
L 269.581373 111.721188 
L 269.581373 110.922772 
L 270.650136 110.922772 
L 270.650136 110.124356 
L 272.256654 110.124356 
L 272.256654 109.325941 
L 272.531527 109.325941 
L 272.531527 108.527525 
L 272.756487 108.527525 
L 272.756487 107.729109 
L 272.929695 107.729109 
L 272.929695 106.930693 
L 273.562952 106.930693 
L 273.593697 105.333861 
L 274.766299 105.333861 
L 274.766299 104.535446 
L 275.161051 104.535446 
L 275.161051 103.73703 
L 276.200006 103.73703 
L 276.200006 102.938614 
L 279.005326 102.938614 
L 279.005326 102.140198 
L 279.207815 102.140198 
L 279.207815 101.341782 
L 279.376169 101.341782 
L 279.376169 100.543366 
L 280.229377 100.543366 
L 280.229377 99.74495 
L 281.048662 99.74495 
L 281.048662 98.946535 
L 281.321746 98.946535 
L 281.321746 98.148119 
L 281.497303 98.148119 
L 281.549102 96.551287 
L 282.845429 96.551287 
L 282.845429 95.752871 
L 283.842825 95.752871 
L 283.842825 94.954455 
L 285.630406 94.954455 
L 285.630406 94.15604 
L 285.904277 94.15604 
L 285.904277 93.357624 
L 286.531256 93.357624 
L 286.531256 92.559208 
L 286.681558 92.559208 
L 286.759692 90.962376 
L 286.817829 90.962376 
L 286.817829 90.16396 
L 288.750876 90.16396 
L 288.79676 88.567129 
L 289.573351 88.567129 
L 289.573351 87.768713 
L 290.860505 87.768713 
L 290.860505 86.970297 
L 293.748307 86.970297 
L 293.748307 86.171881 
L 295.117322 86.171881 
L 295.156042 84.57505 
L 295.542926 84.57505 
L 295.613762 82.978218 
L 298.686004 82.978218 
L 298.686004 82.179802 
L 299.232676 82.179802 
L 299.232676 81.381386 
L 299.457991 81.381386 
L 299.457991 80.58297 
L 299.8116 80.58297 
L 299.8116 79.784554 
L 300.246342 79.784554 
L 300.246342 78.986139 
L 300.520383 78.986139 
L 300.520383 78.187723 
L 301.221102 78.187723 
L 301.221102 77.389307 
L 301.987056 77.389307 
L 301.987056 76.590891 
L 303.166539 76.590891 
L 303.166539 75.792475 
L 304.113943 75.792475 
L 304.113943 74.994059 
L 305.031444 74.994059 
L 305.114786 73.397228 
L 305.217891 73.397228 
L 305.232947 71.800396 
L 306.21059 71.800396 
L 306.321684 70.203564 
L 307.400934 70.203564 
L 307.450064 68.606733 
L 308.023284 68.606733 
L 308.023284 67.808317 
L 308.263073 67.808317 
L 308.263073 67.009901 
L 308.870969 67.009901 
L 308.883445 65.413069 
L 309.908649 65.413069 
L 309.908649 64.614653 
L 310.25918 64.614653 
L 310.25918 63.816238 
L 310.519535 63.816238 
L 310.519535 63.017822 
L 311.595911 63.017822 
L 311.595911 62.219406 
L 312.228707 62.219406 
L 312.228707 61.42099 
L 312.788884 61.42099 
L 312.788884 60.622574 
L 314.480714 60.622574 
L 314.480714 59.824158 
L 315.562235 59.824158 
L 315.613057 58.227327 
L 316.651104 58.227327 
L 316.651104 57.428911 
L 317.365683 57.428911 
L 317.365683 56.630495 
L 318.207975 56.630495 
L 318.207975 55.832079 
L 318.66465 55.832079 
L 318.66465 55.033663 
L 319.295435 55.033663 
L 319.295435 54.235248 
L 320.157264 54.235248 
L 320.157264 53.436832 
L 320.444519 53.436832 
L 320.444519 52.638416 
L 320.688306 52.638416 
L 320.688306 51.84 
L 320.819252 51.84 
L 320.819252 51.041584 
L 321.607888 51.041584 
L 321.607888 50.243168 
L 322.948591 50.243168 
L 322.948591 49.444752 
L 324.726505 49.444752 
L 324.726505 48.646337 
L 326.195773 48.646337 
L 326.239788 47.049505 
L 327.450862 47.049505 
L 327.450862 46.251089 
L 328.481487 46.251089 
L 328.481487 45.452673 
L 332.498784 45.452673 
L 332.498784 44.654257 
L 334.758441 44.654257 
L 334.758441 43.855842 
L 335.749095 43.855842 
L 335.749095 43.057426 
L 339.528716 43.057426 
L 339.528716 42.25901 
L 340.373609 42.25901 
L 340.373609 41.460594 
L 341.480573 41.460594 
L 341.480573 40.662178 
L 342.881419 40.662178 
L 342.881419 39.863762 
L 343.459541 39.863762 
L 343.459541 39.065347 
L 344.239405 39.065347 
L 344.239405 38.266931 
L 344.873503 38.266931 
L 344.983681 36.670099 
L 345.344655 36.670099 
L 345.370617 35.073267 
L 347.302559 35.073267 
L 347.302559 34.274851 
L 347.493043 34.274851 
L 347.493043 33.476436 
L 348.154078 33.476436 
L 348.154078 32.67802 
L 349.713934 32.67802 
L 349.794896 31.081188 
L 351.197581 31.081188 
L 351.197581 30.282772 
L 351.427386 30.282772 
L 351.427386 29.484356 
L 352.395176 29.484356 
L 352.395176 28.685941 
L 353.857243 28.685941 
L 353.857243 27.887525 
L 354.693256 27.887525 
L 354.693256 27.089109 
L 355.170152 27.089109 
L 355.241521 25.492277 
L 355.643866 25.492277 
L 355.643866 24.693861 
L 356.798498 24.693861 
L 356.798498 23.895446 
L 357.348431 23.895446 
L 357.348431 23.09703 
L 357.502219 23.09703 
L 357.502219 22.298614 
L 361.003889 22.298614 
L 361.003889 21.500198 
L 361.440045 21.500198 
L 361.440045 20.701782 
L 365.174414 20.701782 
L 365.174414 19.903366 
L 366.867664 19.903366 
L 366.867664 19.10495 
L 370.655605 19.10495 
L 370.655605 18.306535 
L 386.25286 18.306535 
L 386.25286 17.508119 
L 388.820806 17.508119 
L 388.820806 16.709703 
L 390.610835 16.709703 
L 390.610835 15.911287 
L 391.219971 15.911287 
L 391.219971 15.112871 
L 393.372528 15.112871 
L 393.372528 14.314455 
L 394.659813 14.314455 
L 394.659813 13.51604 
L 395.790238 13.51604 
L 395.790238 12.717624 
L 398.704728 12.717624 
L 398.778862 11.120792 
L 401.05076 11.120792 
L 401.05076 10.322376 
L 401.780213 10.322376 
L 401.780213 9.52396 
L 402.541843 9.52396 
L 402.541843 8.725545 
L 403.565627 8.725545 
L 403.565627 7.927129 
L 404.564431 7.927129 
L 404.564431 7.128713 
L 405.481307 7.128713 
L 405.481307 6.330297 
L 405.481307 6.330297 
L 460.8 6.330297 
L 460.8 6.330297 
" style="fill:none;stroke:#000000;stroke-linecap:square;stroke-width:1.5;"/>
   </g>
   <g id="line2d_25">
    <path clip-path="url(#pf5d37b9385)" d="M 216.669474 293.76 
L 216.669474 292.961584 
L 218.598642 292.961584 
L 218.598642 292.163168 
L 219.040592 292.163168 
L 219.040592 291.364752 
L 219.767334 291.364752 
L 219.767334 290.566337 
L 220.98102 290.566337 
L 220.98102 289.767921 
L 221.939062 289.767921 
L 221.939062 288.969505 
L 222.690785 288.969505 
L 222.690785 288.171089 
L 222.921921 288.171089 
L 222.921921 287.372673 
L 223.115934 287.372673 
L 223.208715 285.775842 
L 223.79071 285.775842 
L 223.831601 284.17901 
L 223.973419 284.17901 
L 224.045836 281.783762 
L 224.207614 281.783762 
L 224.207614 280.985347 
L 224.525658 280.985347 
L 224.525658 280.186931 
L 224.641274 280.186931 
L 224.727203 278.590099 
L 224.871664 278.590099 
L 224.92312 276.993267 
L 225.446483 276.993267 
L 225.446483 276.194851 
L 225.689467 276.194851 
L 225.765943 274.59802 
L 225.806337 274.59802 
L 225.806337 273.799604 
L 225.941543 273.799604 
L 225.941543 273.001188 
L 226.711721 273.001188 
L 226.777669 271.404356 
L 227.190533 271.404356 
L 227.282673 269.807525 
L 227.355093 269.807525 
L 227.355093 269.009109 
L 227.968484 269.009109 
L 228.006335 267.412277 
L 228.261902 267.412277 
L 228.330678 265.815446 
L 228.402161 265.815446 
L 228.402161 265.01703 
L 228.699358 265.01703 
L 228.699358 264.218614 
L 228.832668 264.218614 
L 228.832668 263.420198 
L 229.002631 263.420198 
L 229.002631 262.621782 
L 229.132175 262.621782 
L 229.132175 261.823366 
L 229.291596 261.823366 
L 229.291596 261.02495 
L 230.045454 261.02495 
L 230.123413 259.428119 
L 230.241896 259.428119 
L 230.241896 258.629703 
L 230.9037 258.629703 
L 230.9037 257.831287 
L 231.043126 257.831287 
L 231.064031 256.234455 
L 231.160598 256.234455 
L 231.210367 254.637624 
L 231.61161 254.637624 
L 231.617404 253.040792 
L 231.890912 253.040792 
L 231.890912 252.242376 
L 232.120996 252.242376 
L 232.13335 250.645545 
L 232.500838 250.645545 
L 232.597865 247.451881 
L 232.914646 247.451881 
L 233.008775 245.056634 
L 233.079866 245.056634 
L 233.079866 244.258218 
L 233.201645 244.258218 
L 233.266969 242.661386 
L 233.604275 242.661386 
L 233.604275 241.86297 
L 234.209581 241.86297 
L 234.311166 239.467723 
L 234.385688 239.467723 
L 234.492065 237.870891 
L 234.701266 237.870891 
L 234.701266 237.072475 
L 234.857749 237.072475 
L 234.93311 235.475644 
L 235.09198 235.475644 
L 235.16169 233.878812 
L 235.319222 233.878812 
L 235.319222 233.080396 
L 235.795267 233.080396 
L 235.795267 232.28198 
L 235.982256 232.28198 
L 236.091306 229.886733 
L 236.818001 229.886733 
L 236.822583 228.289901 
L 237.227977 228.289901 
L 237.227977 227.491485 
L 237.388674 227.491485 
L 237.403851 225.894653 
L 237.645166 225.894653 
L 237.645166 225.096238 
L 238.582933 225.096238 
L 238.582933 224.297822 
L 239.105478 224.297822 
L 239.105478 223.499406 
L 239.320799 223.499406 
L 239.341694 221.104158 
L 239.468666 221.104158 
L 239.562821 219.507327 
L 240.216163 219.507327 
L 240.216163 218.708911 
L 240.583388 218.708911 
L 240.583388 217.910495 
L 241.385967 217.910495 
L 241.409587 216.313663 
L 241.520117 216.313663 
L 241.537498 214.716832 
L 241.705486 214.716832 
L 241.705486 213.918416 
L 242.487749 213.918416 
L 242.487749 213.12 
L 242.750366 213.12 
L 242.750366 212.321584 
L 243.043653 212.321584 
L 243.043653 211.523168 
L 243.183744 211.523168 
L 243.291649 209.127921 
L 243.369242 209.127921 
L 243.369242 208.329505 
L 243.663228 208.329505 
L 243.727625 205.934257 
L 243.789348 205.934257 
L 243.885216 204.337426 
L 244.216961 204.337426 
L 244.302991 201.143762 
L 244.42864 201.143762 
L 244.431919 199.546931 
L 244.562591 199.546931 
L 244.654136 197.950099 
L 244.986228 197.950099 
L 244.986228 197.151683 
L 245.211302 197.151683 
L 245.211302 196.353267 
L 245.332587 196.353267 
L 245.411885 193.95802 
L 245.801891 193.95802 
L 245.801891 193.159604 
L 246.170291 193.159604 
L 246.170291 192.361188 
L 246.461871 192.361188 
L 246.461871 191.562772 
L 246.615075 191.562772 
L 246.723125 189.965941 
L 246.815718 189.965941 
L 246.815718 189.167525 
L 247.157491 189.167525 
L 247.157491 188.369109 
L 247.38414 188.369109 
L 247.476381 186.772277 
L 247.503078 186.772277 
L 247.503078 185.973861 
L 247.674307 185.973861 
L 247.714694 184.37703 
L 247.8634 184.37703 
L 247.934105 182.780198 
L 248.807145 182.780198 
L 248.807145 181.981782 
L 248.936851 181.981782 
L 248.936851 181.183366 
L 249.075348 181.183366 
L 249.075348 180.38495 
L 249.547699 180.38495 
L 249.547699 179.586535 
L 249.936934 179.586535 
L 249.936934 178.788119 
L 250.283119 178.788119 
L 250.283119 177.989703 
L 250.472493 177.989703 
L 250.510779 176.392871 
L 250.710427 176.392871 
L 250.710427 175.594455 
L 250.825622 175.594455 
L 250.825622 174.79604 
L 251.023247 174.79604 
L 251.023247 173.997624 
L 251.293897 173.997624 
L 251.360692 170.005545 
L 251.426652 170.005545 
L 251.426652 169.207129 
L 251.606749 169.207129 
L 251.669283 167.610297 
L 251.976583 167.610297 
L 251.976583 166.811881 
L 252.286384 166.811881 
L 252.286384 166.013465 
L 252.441246 166.013465 
L 252.520481 164.416634 
L 252.700062 164.416634 
L 252.700062 163.618218 
L 252.835711 163.618218 
L 252.920677 162.021386 
L 253.506932 162.021386 
L 253.616132 159.626139 
L 253.627273 159.626139 
L 253.627273 158.827723 
L 254.158444 158.827723 
L 254.234943 157.230891 
L 254.633581 157.230891 
L 254.701525 155.634059 
L 254.765139 155.634059 
L 254.765139 154.835644 
L 254.889626 154.835644 
L 254.889626 154.037228 
L 255.002296 154.037228 
L 255.016551 152.440396 
L 255.371797 152.440396 
L 255.371797 151.64198 
L 255.790148 151.64198 
L 255.790148 150.843564 
L 255.947744 150.843564 
L 256.018719 147.649901 
L 256.065956 147.649901 
L 256.125032 145.254653 
L 256.231978 145.254653 
L 256.231978 144.456238 
L 256.373056 144.456238 
L 256.373056 143.657822 
L 256.6133 143.657822 
L 256.6133 142.859406 
L 256.815949 142.859406 
L 256.815949 142.06099 
L 256.976178 142.06099 
L 256.990604 140.464158 
L 257.262738 140.464158 
L 257.338063 138.867327 
L 257.523526 138.867327 
L 257.523526 138.068911 
L 257.657948 138.068911 
L 257.720709 135.673663 
L 257.9289 135.673663 
L 257.95221 134.076832 
L 258.492949 134.076832 
L 258.492949 133.278416 
L 258.761571 133.278416 
L 258.814948 131.681584 
L 258.878003 131.681584 
L 258.878003 130.883168 
L 259.081123 130.883168 
L 259.150283 129.286337 
L 259.258866 129.286337 
L 259.356836 127.689505 
L 259.431019 127.689505 
L 259.431019 126.891089 
L 259.552272 126.891089 
L 259.597405 125.294257 
L 259.664695 125.294257 
L 259.682993 123.697426 
L 259.826085 123.697426 
L 259.826085 122.89901 
L 260.022655 122.89901 
L 260.03265 121.302178 
L 260.334052 121.302178 
L 260.334052 120.503762 
L 260.590835 120.503762 
L 260.590835 119.705347 
L 260.824084 119.705347 
L 260.824084 118.906931 
L 260.948518 118.906931 
L 260.948518 118.108515 
L 261.228149 118.108515 
L 261.228149 117.310099 
L 261.523487 117.310099 
L 261.537078 115.713267 
L 261.79449 115.713267 
L 261.79449 114.914851 
L 261.993043 114.914851 
L 261.993043 114.116436 
L 262.115322 114.116436 
L 262.115322 113.31802 
L 262.507558 113.31802 
L 262.507558 112.519604 
L 263.124507 112.519604 
L 263.234076 110.922772 
L 263.756637 110.922772 
L 263.756637 110.124356 
L 264.101691 110.124356 
L 264.101691 109.325941 
L 264.213963 109.325941 
L 264.213963 108.527525 
L 264.733704 108.527525 
L 264.733704 107.729109 
L 264.907509 107.729109 
L 264.907509 106.930693 
L 265.076383 106.930693 
L 265.076383 106.132277 
L 265.667118 106.132277 
L 265.752946 104.535446 
L 265.908843 104.535446 
L 265.908843 103.73703 
L 266.699476 103.73703 
L 266.699476 102.938614 
L 267.953866 102.938614 
L 267.953866 102.140198 
L 270.283376 102.140198 
L 270.283376 101.341782 
L 270.561001 101.341782 
L 270.561001 100.543366 
L 271.104282 100.543366 
L 271.104282 99.74495 
L 271.926519 99.74495 
L 271.926519 98.946535 
L 272.256654 98.946535 
L 272.256654 98.148119 
L 272.450766 98.148119 
L 272.450766 97.349703 
L 273.562952 97.349703 
L 273.562952 96.551287 
L 274.118004 96.551287 
L 274.118004 95.752871 
L 275.104152 95.752871 
L 275.161051 94.15604 
L 277.946655 94.15604 
L 277.946655 93.357624 
L 278.139831 93.357624 
L 278.139831 92.559208 
L 278.295439 92.559208 
L 278.295439 91.760792 
L 278.528934 91.760792 
L 278.592111 90.16396 
L 278.829826 90.16396 
L 278.829826 89.365545 
L 279.376169 89.365545 
L 279.376169 88.567129 
L 280.229377 88.567129 
L 280.229377 87.768713 
L 280.919799 87.768713 
L 280.919799 86.970297 
L 281.439881 86.970297 
L 281.549102 85.373465 
L 282.019798 85.373465 
L 282.019798 84.57505 
L 282.731262 84.57505 
L 282.731262 83.776634 
L 283.018318 83.776634 
L 283.018318 82.978218 
L 283.418862 82.978218 
L 283.418862 82.179802 
L 283.842825 82.179802 
L 283.842825 81.381386 
L 285.904277 81.381386 
L 285.904277 80.58297 
L 286.319185 80.58297 
L 286.319185 79.784554 
L 286.531256 79.784554 
L 286.531256 78.986139 
L 286.774219 78.986139 
L 286.774219 78.187723 
L 288.116658 78.187723 
L 288.116658 77.389307 
L 288.750876 77.389307 
L 288.79676 75.792475 
L 291.113658 75.792475 
L 291.113658 74.994059 
L 291.232699 74.994059 
L 291.232699 74.195644 
L 291.634579 74.195644 
L 291.634579 73.397228 
L 291.794415 73.397228 
L 291.794415 72.598812 
L 293.748307 72.598812 
L 293.748307 71.800396 
L 294.029773 71.800396 
L 294.029773 71.00198 
L 294.905097 71.00198 
L 294.905097 70.203564 
L 295.117322 70.203564 
L 295.156042 68.606733 
L 295.542926 68.606733 
L 295.613762 67.009901 
L 295.823312 67.009901 
L 295.823312 66.211485 
L 296.01848 66.211485 
L 296.01848 65.413069 
L 297.298028 65.413069 
L 297.298028 64.614653 
L 297.53553 64.614653 
L 297.53553 63.816238 
L 297.971824 63.816238 
L 298.035237 62.219406 
L 298.41971 62.219406 
L 298.41971 61.42099 
L 298.686004 61.42099 
L 298.686004 60.622574 
L 299.232676 60.622574 
L 299.258702 59.025743 
L 299.8116 59.025743 
L 299.81448 57.428911 
L 301.221102 57.428911 
L 301.221102 56.630495 
L 302.33299 56.630495 
L 302.33299 55.832079 
L 302.512437 55.832079 
L 302.53848 54.235248 
L 303.805786 54.235248 
L 303.805786 53.436832 
L 304.113943 53.436832 
L 304.113943 52.638416 
L 305.169232 52.638416 
L 305.169232 51.84 
L 306.738976 51.84 
L 306.738976 51.041584 
L 308.495127 51.041584 
L 308.495127 50.243168 
L 309.246685 50.243168 
L 309.246685 49.444752 
L 309.908102 49.444752 
L 309.908102 48.646337 
L 313.117702 48.646337 
L 313.117702 47.847921 
L 313.548301 47.847921 
L 313.548301 47.049505 
L 314.991698 47.049505 
L 314.991698 46.251089 
L 315.562235 46.251089 
L 315.562235 45.452673 
L 319.295435 45.452673 
L 319.295435 44.654257 
L 319.930815 44.654257 
L 319.930815 43.855842 
L 320.157264 43.855842 
L 320.157264 43.057426 
L 321.394231 43.057426 
L 321.394231 42.25901 
L 321.607888 42.25901 
L 321.607888 41.460594 
L 324.868989 41.460594 
L 324.868989 40.662178 
L 325.480425 40.662178 
L 325.588135 39.065347 
L 326.195773 39.065347 
L 326.195773 38.266931 
L 326.555636 38.266931 
L 326.555636 37.468515 
L 327.450862 37.468515 
L 327.450862 36.670099 
L 328.481487 36.670099 
L 328.481487 35.871683 
L 330.273635 35.871683 
L 330.273635 35.073267 
L 331.693726 35.073267 
L 331.693726 34.274851 
L 332.084214 34.274851 
L 332.084214 33.476436 
L 332.257876 33.476436 
L 332.257876 32.67802 
L 332.498784 32.67802 
L 332.498784 31.879604 
L 333.426235 31.879604 
L 333.426235 31.081188 
L 334.302511 31.081188 
L 334.302511 30.282772 
L 334.758441 30.282772 
L 334.758441 29.484356 
L 336.574518 29.484356 
L 336.574518 28.685941 
L 341.536186 28.685941 
L 341.536186 27.887525 
L 341.746873 27.887525 
L 341.746873 27.089109 
L 342.881419 27.089109 
L 342.981252 24.693861 
L 344.204755 24.693861 
L 344.204755 23.895446 
L 344.983681 23.895446 
L 344.983681 23.09703 
L 345.344655 23.09703 
L 345.344655 22.298614 
L 347.573051 22.298614 
L 347.573051 21.500198 
L 348.832787 21.500198 
L 348.832787 20.701782 
L 349.295067 20.701782 
L 349.295067 19.903366 
L 349.794896 19.903366 
L 349.794896 19.10495 
L 355.643866 19.10495 
L 355.643866 18.306535 
L 375.790727 18.306535 
L 375.790727 17.508119 
L 378.373624 17.508119 
L 378.373624 16.709703 
L 381.363575 16.709703 
L 381.363575 15.911287 
L 381.84296 15.911287 
L 381.84296 15.112871 
L 382.839284 15.112871 
L 382.839284 14.314455 
L 385.736679 14.314455 
L 385.736679 13.51604 
L 386.25286 13.51604 
L 386.25286 12.717624 
L 388.820806 12.717624 
L 388.820806 11.919208 
L 389.665744 11.919208 
L 389.665744 11.120792 
L 390.463698 11.120792 
L 390.463698 10.322376 
L 391.012879 10.322376 
L 391.012879 9.52396 
L 392.633534 9.52396 
L 392.633534 8.725545 
L 395.790238 8.725545 
L 395.790238 7.927129 
L 398.778862 7.927129 
L 398.778862 7.128713 
L 400.40327 7.128713 
L 400.40327 6.330297 
L 400.40327 6.330297 
L 460.8 6.330297 
L 460.8 6.330297 
" style="fill:none;stroke:#00bfbf;stroke-linecap:square;stroke-width:1.5;"/>
   </g>
   <g id="line2d_26">
    <path clip-path="url(#pf5d37b9385)" d="M 183.847244 293.76 
L 183.847244 292.961584 
L 201.003188 292.961584 
L 201.003188 292.163168 
L 208.554368 292.163168 
L 208.554368 291.364752 
L 209.10351 291.364752 
L 209.10351 290.566337 
L 210.165337 290.566337 
L 210.165337 289.767921 
L 211.627814 289.767921 
L 211.627814 288.969505 
L 214.907585 288.969505 
L 214.969572 287.372673 
L 215.961359 287.372673 
L 215.961359 286.574257 
L 216.4964 286.574257 
L 216.588812 284.17901 
L 216.625814 284.17901 
L 216.625814 283.380594 
L 216.787334 283.380594 
L 216.787334 282.582178 
L 217.117308 282.582178 
L 217.117308 281.783762 
L 217.381226 281.783762 
L 217.469473 280.186931 
L 218.266846 280.186931 
L 218.266846 279.388515 
L 218.598642 279.388515 
L 218.598642 278.590099 
L 218.834905 278.590099 
L 218.897401 276.194851 
L 219.01328 276.194851 
L 219.01328 275.396436 
L 219.357143 275.396436 
L 219.358925 273.799604 
L 219.767334 273.799604 
L 219.767334 273.001188 
L 219.94988 273.001188 
L 219.94988 272.202772 
L 220.234682 272.202772 
L 220.234682 271.404356 
L 220.540817 271.404356 
L 220.651907 269.807525 
L 220.772644 269.807525 
L 220.772644 269.009109 
L 221.424898 269.009109 
L 221.424898 268.210693 
L 221.57872 268.210693 
L 221.682978 266.613861 
L 221.890601 266.613861 
L 221.890601 265.815446 
L 222.073335 265.815446 
L 222.073335 265.01703 
L 222.324883 265.01703 
L 222.324883 264.218614 
L 222.543299 264.218614 
L 222.543299 263.420198 
L 222.814054 263.420198 
L 222.921921 260.226535 
L 223.056637 260.226535 
L 223.056637 259.428119 
L 223.208715 259.428119 
L 223.30924 257.831287 
L 223.331484 257.831287 
L 223.331484 257.032871 
L 223.569975 257.032871 
L 223.642576 255.43604 
L 223.732225 255.43604 
L 223.732225 254.637624 
L 223.922117 254.637624 
L 224.006007 251.44396 
L 224.045836 251.44396 
L 224.096216 249.048713 
L 224.161429 249.048713 
L 224.269269 246.653465 
L 224.391824 246.653465 
L 224.479552 244.258218 
L 224.62128 244.258218 
L 224.62128 243.459802 
L 224.750475 243.459802 
L 224.826602 241.86297 
L 225.071637 241.86297 
L 225.071637 241.064554 
L 225.208405 241.064554 
L 225.208405 240.266139 
L 225.329428 240.266139 
L 225.404065 237.870891 
L 225.446483 237.870891 
L 225.531212 236.274059 
L 225.817499 236.274059 
L 225.863752 234.677228 
L 226.076022 234.677228 
L 226.18254 233.080396 
L 226.268656 233.080396 
L 226.268656 232.28198 
L 226.383951 232.28198 
L 226.473871 230.685149 
L 226.691448 230.685149 
L 226.72229 229.088317 
L 226.954192 229.088317 
L 226.954192 228.289901 
L 227.198651 228.289901 
L 227.209388 226.693069 
L 227.388845 226.693069 
L 227.388845 225.894653 
L 227.742134 225.894653 
L 227.807207 224.297822 
L 227.920542 224.297822 
L 227.920542 223.499406 
L 228.109554 223.499406 
L 228.109554 222.70099 
L 228.330678 222.70099 
L 228.330678 221.902574 
L 228.626804 221.902574 
L 228.699358 220.305743 
L 228.869003 220.305743 
L 228.869003 219.507327 
L 229.08306 219.507327 
L 229.08306 218.708911 
L 229.313704 218.708911 
L 229.313704 217.910495 
L 229.662527 217.910495 
L 229.662527 217.112079 
L 229.961608 217.112079 
L 229.961608 216.313663 
L 230.492142 216.313663 
L 230.547729 213.918416 
L 230.777799 213.918416 
L 230.777799 213.12 
L 231.195254 213.12 
L 231.269472 211.523168 
L 231.617404 211.523168 
L 231.617404 210.724752 
L 231.946881 210.724752 
L 231.946881 209.926337 
L 232.763196 209.926337 
L 232.763196 209.127921 
L 233.097024 209.127921 
L 233.097024 208.329505 
L 233.376267 208.329505 
L 233.376267 207.531089 
L 233.640176 207.531089 
L 233.678127 205.934257 
L 233.816464 205.934257 
L 233.816464 205.135842 
L 234.086699 205.135842 
L 234.086699 204.337426 
L 234.209581 204.337426 
L 234.209581 203.53901 
L 234.872236 203.53901 
L 234.872236 202.740594 
L 235.146631 202.740594 
L 235.146631 201.942178 
L 235.434133 201.942178 
L 235.455758 200.345347 
L 235.832805 200.345347 
L 235.832805 199.546931 
L 236.022477 199.546931 
L 236.022477 198.748515 
L 236.504571 198.748515 
L 236.612465 196.353267 
L 236.638954 196.353267 
L 236.638954 195.554851 
L 236.917517 195.554851 
L 237.015826 193.95802 
L 237.077738 193.95802 
L 237.179393 191.562772 
L 237.403851 191.562772 
L 237.403851 190.764356 
L 237.799811 190.764356 
L 237.799811 189.965941 
L 237.997711 189.965941 
L 237.997711 189.167525 
L 238.427809 189.167525 
L 238.46444 187.570693 
L 239.07254 187.570693 
L 239.112936 185.175446 
L 239.320799 185.175446 
L 239.336091 183.578614 
L 239.623654 183.578614 
L 239.623654 182.780198 
L 239.758601 182.780198 
L 239.78166 181.183366 
L 239.944655 181.183366 
L 239.98142 179.586535 
L 240.396098 179.586535 
L 240.477484 177.191287 
L 241.133875 177.191287 
L 241.133875 176.392871 
L 241.465048 176.392871 
L 241.465048 175.594455 
L 241.656195 175.594455 
L 241.656195 174.79604 
L 241.928816 174.79604 
L 242.026344 172.400792 
L 242.38606 172.400792 
L 242.38606 171.602376 
L 242.747427 171.602376 
L 242.845556 170.005545 
L 242.93905 170.005545 
L 242.93905 169.207129 
L 243.135331 169.207129 
L 243.162915 166.811881 
L 244.216961 166.811881 
L 244.295409 165.21505 
L 244.339632 165.21505 
L 244.42864 163.618218 
L 244.631967 163.618218 
L 244.631967 162.819802 
L 245.086288 162.819802 
L 245.094978 161.22297 
L 245.508148 161.22297 
L 245.508148 160.424554 
L 245.811949 160.424554 
L 245.811949 159.626139 
L 246.237898 159.626139 
L 246.237898 158.827723 
L 246.479461 158.827723 
L 246.479461 158.029307 
L 246.815718 158.029307 
L 246.898951 156.432475 
L 247.503078 156.432475 
L 247.577109 154.835644 
L 247.614481 154.835644 
L 247.666316 151.64198 
L 247.875553 151.64198 
L 247.875553 150.843564 
L 248.228757 150.843564 
L 248.229261 149.246733 
L 248.767383 149.246733 
L 248.846053 146.851485 
L 249.020603 146.851485 
L 249.075348 145.254653 
L 249.518381 145.254653 
L 249.518381 144.456238 
L 249.962716 144.456238 
L 250.003382 142.859406 
L 250.20297 142.859406 
L 250.233783 141.262574 
L 250.472493 141.262574 
L 250.531331 138.867327 
L 250.63108 138.867327 
L 250.741444 136.472079 
L 250.825603 136.472079 
L 250.933474 134.875248 
L 251.035319 134.875248 
L 251.035319 134.076832 
L 251.329591 134.076832 
L 251.426652 130.883168 
L 251.473253 130.883168 
L 251.572577 128.487921 
L 251.606749 128.487921 
L 251.606749 127.689505 
L 251.761919 127.689505 
L 251.761919 126.891089 
L 251.987015 126.891089 
L 251.99903 125.294257 
L 252.141065 125.294257 
L 252.141065 124.495842 
L 252.338694 124.495842 
L 252.338694 123.697426 
L 252.452013 123.697426 
L 252.46794 122.100594 
L 252.645552 122.100594 
L 252.645552 121.302178 
L 252.835711 121.302178 
L 252.835711 120.503762 
L 252.964208 120.503762 
L 253.069679 118.108515 
L 253.314349 118.108515 
L 253.314349 117.310099 
L 253.502997 117.310099 
L 253.612487 115.713267 
L 253.651906 115.713267 
L 253.695089 114.116436 
L 253.837971 114.116436 
L 253.837971 113.31802 
L 254.070208 113.31802 
L 254.070208 112.519604 
L 254.205672 112.519604 
L 254.205672 111.721188 
L 254.501601 111.721188 
L 254.501601 110.922772 
L 254.94283 110.922772 
L 254.94505 109.325941 
L 255.500093 109.325941 
L 255.500093 108.527525 
L 255.627449 108.527525 
L 255.736282 106.132277 
L 255.830822 106.132277 
L 255.923148 103.73703 
L 256.297452 103.73703 
L 256.297452 102.938614 
L 256.669774 102.938614 
L 256.77082 101.341782 
L 256.849622 101.341782 
L 256.950049 99.74495 
L 257.262738 99.74495 
L 257.262738 98.946535 
L 257.563026 98.946535 
L 257.563026 98.148119 
L 257.739026 98.148119 
L 257.739026 97.349703 
L 258.055327 97.349703 
L 258.074458 95.752871 
L 258.528304 95.752871 
L 258.605971 94.15604 
L 258.781679 94.15604 
L 258.781679 93.357624 
L 259.460982 93.357624 
L 259.460982 92.559208 
L 259.58643 92.559208 
L 259.58643 91.760792 
L 259.871029 91.760792 
L 259.871029 90.962376 
L 260.108631 90.962376 
L 260.108631 90.16396 
L 260.297724 90.16396 
L 260.363642 88.567129 
L 261.358163 88.567129 
L 261.358163 87.768713 
L 261.558789 87.768713 
L 261.635604 85.373465 
L 261.709138 85.373465 
L 261.709138 84.57505 
L 262.375342 84.57505 
L 262.375342 83.776634 
L 262.859375 83.776634 
L 262.859375 82.978218 
L 263.393215 82.978218 
L 263.393215 82.179802 
L 263.579089 82.179802 
L 263.579089 81.381386 
L 264.560797 81.381386 
L 264.560797 80.58297 
L 264.975631 80.58297 
L 264.975631 79.784554 
L 265.648874 79.784554 
L 265.658978 78.187723 
L 265.849764 78.187723 
L 265.849764 77.389307 
L 267.077559 77.389307 
L 267.077559 76.590891 
L 267.305196 76.590891 
L 267.305196 75.792475 
L 267.967976 75.792475 
L 268.003968 74.195644 
L 268.304071 74.195644 
L 268.304071 73.397228 
L 269.015516 73.397228 
L 269.015516 72.598812 
L 269.659537 72.598812 
L 269.659537 71.800396 
L 269.976898 71.800396 
L 269.976898 71.00198 
L 270.138017 71.00198 
L 270.225766 69.405149 
L 270.748324 69.405149 
L 270.748324 68.606733 
L 271.161732 68.606733 
L 271.161732 67.808317 
L 271.542946 67.808317 
L 271.542946 67.009901 
L 271.816643 67.009901 
L 271.926519 65.413069 
L 272.169381 65.413069 
L 272.169381 64.614653 
L 272.322627 64.614653 
L 272.322627 63.816238 
L 272.890092 63.816238 
L 272.890092 63.017822 
L 273.18529 63.017822 
L 273.18529 62.219406 
L 273.653647 62.219406 
L 273.653647 61.42099 
L 273.928258 61.42099 
L 274.039325 59.824158 
L 274.338103 59.824158 
L 274.338103 59.025743 
L 274.754866 59.025743 
L 274.754866 58.227327 
L 275.552694 58.227327 
L 275.552694 57.428911 
L 276.380584 57.428911 
L 276.380584 56.630495 
L 276.600499 56.630495 
L 276.600499 55.832079 
L 276.777328 55.832079 
L 276.777328 55.033663 
L 278.20576 55.033663 
L 278.20576 54.235248 
L 280.89082 54.235248 
L 280.89082 53.436832 
L 281.204504 53.436832 
L 281.204504 52.638416 
L 281.321364 52.638416 
L 281.321364 51.84 
L 282.364944 51.84 
L 282.364944 51.041584 
L 283.11088 51.041584 
L 283.11088 50.243168 
L 283.32752 50.243168 
L 283.32752 49.444752 
L 284.214498 49.444752 
L 284.214498 48.646337 
L 286.947033 48.646337 
L 287.009235 47.049505 
L 297.132248 47.049505 
L 297.132248 46.251089 
L 297.35176 46.251089 
L 297.35176 45.452673 
L 298.225364 45.452673 
L 298.225364 44.654257 
L 300.1216 44.654257 
L 300.1216 43.855842 
L 302.223597 43.855842 
L 302.223597 43.057426 
L 303.212232 43.057426 
L 303.212232 42.25901 
L 305.128306 42.25901 
L 305.128306 41.460594 
L 306.738269 41.460594 
L 306.738269 40.662178 
L 307.292315 40.662178 
L 307.292315 39.863762 
L 307.589126 39.863762 
L 307.589126 39.065347 
L 310.714349 39.065347 
L 310.714349 38.266931 
L 311.273135 38.266931 
L 311.273135 37.468515 
L 313.548301 37.468515 
L 313.548301 36.670099 
L 313.687401 36.670099 
L 313.687401 35.871683 
L 314.88014 35.871683 
L 314.88014 35.073267 
L 315.042664 35.073267 
L 315.042664 34.274851 
L 316.666203 34.274851 
L 316.666203 33.476436 
L 317.304329 33.476436 
L 317.304329 32.67802 
L 318.023954 32.67802 
L 318.023954 31.879604 
L 320.964772 31.879604 
L 320.964772 31.081188 
L 321.215994 31.081188 
L 321.215994 30.282772 
L 321.614174 30.282772 
L 321.614174 29.484356 
L 322.13933 29.484356 
L 322.13933 28.685941 
L 323.430427 28.685941 
L 323.430427 27.887525 
L 324.351786 27.887525 
L 324.351786 27.089109 
L 324.60323 27.089109 
L 324.60323 26.290693 
L 325.480425 26.290693 
L 325.480425 25.492277 
L 325.608886 25.492277 
L 325.608886 24.693861 
L 326.555636 24.693861 
L 326.555636 23.895446 
L 327.182938 23.895446 
L 327.182938 23.09703 
L 331.793798 23.09703 
L 331.793798 22.298614 
L 335.396232 22.298614 
L 335.42331 20.701782 
L 335.898784 20.701782 
L 335.898784 19.903366 
L 339.10853 19.903366 
L 339.10853 19.10495 
L 339.645342 19.10495 
L 339.645342 18.306535 
L 339.877303 18.306535 
L 339.877303 17.508119 
L 341.670482 17.508119 
L 341.670482 16.709703 
L 347.293706 16.709703 
L 347.293706 15.911287 
L 363.747497 15.911287 
L 363.747497 15.112871 
L 371.049217 15.112871 
L 371.115259 13.51604 
L 372.135604 13.51604 
L 372.135604 12.717624 
L 375.790727 12.717624 
L 375.790727 11.919208 
L 376.793484 11.919208 
L 376.793484 11.120792 
L 377.410098 11.120792 
L 377.410098 10.322376 
L 379.81797 10.322376 
L 379.81797 9.52396 
L 383.514422 9.52396 
L 383.514422 8.725545 
L 385.736679 8.725545 
L 385.736679 7.927129 
L 387.659023 7.927129 
L 387.659023 7.128713 
L 395.840864 7.128713 
L 395.840864 6.330297 
L 395.840864 6.330297 
L 460.8 6.330297 
L 460.8 6.330297 
" style="fill:none;stroke:#bf00bf;stroke-linecap:square;stroke-width:1.5;"/>
   </g>
   <g id="patch_3">
    <path d="M 0 293.76 
L 0 3.456 
" style="fill:none;stroke:#000000;stroke-linecap:square;stroke-linejoin:miter;stroke-width:0.8;"/>
   </g>
   <g id="patch_4">
    <path d="M 460.8 293.76 
L 460.8 3.456 
" style="fill:none;stroke:#000000;stroke-linecap:square;stroke-linejoin:miter;stroke-width:0.8;"/>
   </g>
   <g id="patch_5">
    <path d="M 0 293.76 
L 460.8 293.76 
" style="fill:none;stroke:#000000;stroke-linecap:square;stroke-linejoin:miter;stroke-width:0.8;"/>
   </g>
   <g id="patch_6">
    <path d="M 0 3.456 
L 460.8 3.456 
" style="fill:none;stroke:#000000;stroke-linecap:square;stroke-linejoin:miter;stroke-width:0.8;"/>
   </g>
   <g id="text_6">
    <!-- {f1-f24}, 5-D -->
    <defs>
     <path d="M 51.125 -9.28125 
L 51.125 -16.3125 
L 48.09375 -16.3125 
Q 35.9375 -16.3125 31.8125 -12.6875 
Q 27.6875 -9.078125 27.6875 1.703125 
L 27.6875 13.375 
Q 27.6875 20.75 25.046875 23.578125 
Q 22.40625 26.421875 15.484375 26.421875 
L 12.5 26.421875 
L 12.5 33.40625 
L 15.484375 33.40625 
Q 22.46875 33.40625 25.078125 36.203125 
Q 27.6875 39.015625 27.6875 46.296875 
L 27.6875 58.015625 
Q 27.6875 68.796875 31.8125 72.390625 
Q 35.9375 75.984375 48.09375 75.984375 
L 51.125 75.984375 
L 51.125 69 
L 47.796875 69 
Q 40.921875 69 38.8125 66.84375 
Q 36.71875 64.703125 36.71875 57.8125 
L 36.71875 45.703125 
Q 36.71875 38.03125 34.5 34.5625 
Q 32.28125 31.109375 26.90625 29.890625 
Q 32.328125 28.5625 34.515625 25.09375 
Q 36.71875 21.625 36.71875 14.015625 
L 36.71875 1.90625 
Q 36.71875 -4.984375 38.8125 -7.125 
Q 40.921875 -9.28125 47.796875 -9.28125 
z
" id="DejaVuSans-123"/>
     <path d="M 19.1875 8.296875 
L 53.609375 8.296875 
L 53.609375 0 
L 7.328125 0 
L 7.328125 8.296875 
Q 12.9375 14.109375 22.625 23.890625 
Q 32.328125 33.6875 34.8125 36.53125 
Q 39.546875 41.84375 41.421875 45.53125 
Q 43.3125 49.21875 43.3125 52.78125 
Q 43.3125 58.59375 39.234375 62.25 
Q 35.15625 65.921875 28.609375 65.921875 
Q 23.96875 65.921875 18.8125 64.3125 
Q 13.671875 62.703125 7.8125 59.421875 
L 7.8125 69.390625 
Q 13.765625 71.78125 18.9375 73 
Q 24.125 74.21875 28.421875 74.21875 
Q 39.75 74.21875 46.484375 68.546875 
Q 53.21875 62.890625 53.21875 53.421875 
Q 53.21875 48.921875 51.53125 44.890625 
Q 49.859375 40.875 45.40625 35.40625 
Q 44.1875 33.984375 37.640625 27.21875 
Q 31.109375 20.453125 19.1875 8.296875 
z
" id="DejaVuSans-50"/>
     <path d="M 12.5 -9.28125 
L 15.921875 -9.28125 
Q 22.75 -9.28125 24.828125 -7.171875 
Q 26.90625 -5.078125 26.90625 1.90625 
L 26.90625 14.015625 
Q 26.90625 21.625 29.09375 25.09375 
Q 31.296875 28.5625 36.71875 29.890625 
Q 31.296875 31.109375 29.09375 34.5625 
Q 26.90625 38.03125 26.90625 45.703125 
L 26.90625 57.8125 
Q 26.90625 64.75 24.828125 66.875 
Q 22.75 69 15.921875 69 
L 12.5 69 
L 12.5 75.984375 
L 15.578125 75.984375 
Q 27.734375 75.984375 31.8125 72.390625 
Q 35.890625 68.796875 35.890625 58.015625 
L 35.890625 46.296875 
Q 35.890625 39.015625 38.515625 36.203125 
Q 41.15625 33.40625 48.09375 33.40625 
L 51.125 33.40625 
L 51.125 26.421875 
L 48.09375 26.421875 
Q 41.15625 26.421875 38.515625 23.578125 
Q 35.890625 20.75 35.890625 13.375 
L 35.890625 1.703125 
Q 35.890625 -9.078125 31.8125 -12.6875 
Q 27.734375 -16.3125 15.578125 -16.3125 
L 12.5 -16.3125 
z
" id="DejaVuSans-125"/>
     <path d="M 11.71875 12.40625 
L 22.015625 12.40625 
L 22.015625 4 
L 14.015625 -11.625 
L 7.71875 -11.625 
L 11.71875 4 
z
" id="DejaVuSans-44"/>
     <path d="M 10.796875 72.90625 
L 49.515625 72.90625 
L 49.515625 64.59375 
L 19.828125 64.59375 
L 19.828125 46.734375 
Q 21.96875 47.46875 24.109375 47.828125 
Q 26.265625 48.1875 28.421875 48.1875 
Q 40.625 48.1875 47.75 41.5 
Q 54.890625 34.8125 54.890625 23.390625 
Q 54.890625 11.625 47.5625 5.09375 
Q 40.234375 -1.421875 26.90625 -1.421875 
Q 22.3125 -1.421875 17.546875 -0.640625 
Q 12.796875 0.140625 7.71875 1.703125 
L 7.71875 11.625 
Q 12.109375 9.234375 16.796875 8.0625 
Q 21.484375 6.890625 26.703125 6.890625 
Q 35.15625 6.890625 40.078125 11.328125 
Q 45.015625 15.765625 45.015625 23.390625 
Q 45.015625 31 40.078125 35.4375 
Q 35.15625 39.890625 26.703125 39.890625 
Q 22.75 39.890625 18.8125 39.015625 
Q 14.890625 38.140625 10.796875 36.28125 
z
" id="DejaVuSans-53"/>
    </defs>
    <g transform="translate(318.609 287.95392)scale(0.2 -0.2)">
     <use xlink:href="#DejaVuSans-123"/>
     <use x="63.623047" xlink:href="#DejaVuSans-102"/>
     <use x="98.828125" xlink:href="#DejaVuSans-49"/>
     <use x="162.451172" xlink:href="#DejaVuSans-45"/>
     <use x="198.535156" xlink:href="#DejaVuSans-102"/>
     <use x="233.740234" xlink:href="#DejaVuSans-50"/>
     <use x="297.363281" xlink:href="#DejaVuSans-52"/>
     <use x="360.986328" xlink:href="#DejaVuSans-125"/>
     <use x="424.609375" xlink:href="#DejaVuSans-44"/>
     <use x="456.396484" xlink:href="#DejaVuSans-32"/>
     <use x="488.183594" xlink:href="#DejaVuSans-53"/>
     <use x="551.806641" xlink:href="#DejaVuSans-45"/>
     <use x="587.890625" xlink:href="#DejaVuSans-68"/>
    </g>
   </g>
   <g id="text_7">
    <!-- v2.4 -->
    <defs>
     <path d="M 2.984375 54.6875 
L 12.5 54.6875 
L 29.59375 8.796875 
L 46.6875 54.6875 
L 56.203125 54.6875 
L 35.6875 0 
L 23.484375 0 
z
" id="DejaVuSans-118"/>
     <path d="M 10.6875 12.40625 
L 21 12.40625 
L 21 0 
L 10.6875 0 
z
" id="DejaVuSans-46"/>
    </defs>
    <g style="fill:#808080;" transform="translate(219.489063 288.777272)scale(0.1 -0.1)">
     <use xlink:href="#DejaVuSans-118"/>
     <use x="59.179688" xlink:href="#DejaVuSans-50"/>
     <use x="122.802734" xlink:href="#DejaVuSans-46"/>
     <use x="154.589844" xlink:href="#DejaVuSans-52"/>
    </g>
   </g>
  </g>
 </g>
 <defs>
  <clipPath id="pf5d37b9385">
   <rect height="290.304" width="460.8" x="0" y="3.456"/>
  </clipPath>
 </defs>
</svg>
