<?xml version="1.0" encoding="utf-8" standalone="no"?>
<!DOCTYPE svg PUBLIC "-//W3C//DTD SVG 1.1//EN"
  "http://www.w3.org/Graphics/SVG/1.1/DTD/svg11.dtd">
<!-- Created with matplotlib (https://matplotlib.org/) -->
<svg height="345.6pt" version="1.1" viewBox="0 0 460.8 345.6" width="460.8pt" xmlns="http://www.w3.org/2000/svg" xmlns:xlink="http://www.w3.org/1999/xlink">
 <defs>
  <style type="text/css">
*{stroke-linecap:butt;stroke-linejoin:round;}
  </style>
 </defs>
 <g id="figure_1">
  <g id="patch_1">
   <path d="M 0 345.6 
L 460.8 345.6 
L 460.8 0 
L 0 0 
z
" style="fill:#ffffff;"/>
  </g>
  <g id="axes_1">
   <g id="patch_2">
    <path d="M 0 293.76 
L 460.8 293.76 
L 460.8 3.456 
L 0 3.456 
z
" style="fill:#ffffff;"/>
   </g>
   <g id="matplotlib.axis_1">
    <g id="xtick_1">
     <g id="line2d_1">
      <path clip-path="url(#p0ff9e76dc0)" d="M 108.437912 293.76 
L 108.437912 3.456 
" style="fill:none;stroke:#b0b0b0;stroke-linecap:square;stroke-width:0.8;"/>
     </g>
     <g id="line2d_2">
      <defs>
       <path d="M 0 0 
L 0 3.5 
" id="m2d1a28ef00" style="stroke:#000000;stroke-width:0.8;"/>
      </defs>
      <g>
       <use style="stroke:#000000;stroke-width:0.8;" x="108.437912" xlink:href="#m2d1a28ef00" y="293.76"/>
      </g>
     </g>
     <g id="text_1">
      <!-- -4 -->
      <defs>
       <path d="M 4.890625 31.390625 
L 31.203125 31.390625 
L 31.203125 23.390625 
L 4.890625 23.390625 
z
" id="DejaVuSans-45"/>
       <path d="M 37.796875 64.3125 
L 12.890625 25.390625 
L 37.796875 25.390625 
z
M 35.203125 72.90625 
L 47.609375 72.90625 
L 47.609375 25.390625 
L 58.015625 25.390625 
L 58.015625 17.1875 
L 47.609375 17.1875 
L 47.609375 0 
L 37.796875 0 
L 37.796875 17.1875 
L 4.890625 17.1875 
L 4.890625 26.703125 
z
" id="DejaVuSans-52"/>
      </defs>
      <g transform="translate(98.467599 315.956875)scale(0.2 -0.2)">
       <use xlink:href="#DejaVuSans-45"/>
       <use x="36.083984" xlink:href="#DejaVuSans-52"/>
      </g>
     </g>
    </g>
    <g id="xtick_2">
     <g id="line2d_3">
      <path clip-path="url(#p0ff9e76dc0)" d="M 216.993101 293.76 
L 216.993101 3.456 
" style="fill:none;stroke:#b0b0b0;stroke-linecap:square;stroke-width:0.8;"/>
     </g>
     <g id="line2d_4">
      <g>
       <use style="stroke:#000000;stroke-width:0.8;" x="216.993101" xlink:href="#m2d1a28ef00" y="293.76"/>
      </g>
     </g>
     <g id="text_2">
      <!-- 0 -->
      <defs>
       <path d="M 31.78125 66.40625 
Q 24.171875 66.40625 20.328125 58.90625 
Q 16.5 51.421875 16.5 36.375 
Q 16.5 21.390625 20.328125 13.890625 
Q 24.171875 6.390625 31.78125 6.390625 
Q 39.453125 6.390625 43.28125 13.890625 
Q 47.125 21.390625 47.125 36.375 
Q 47.125 51.421875 43.28125 58.90625 
Q 39.453125 66.40625 31.78125 66.40625 
z
M 31.78125 74.21875 
Q 44.046875 74.21875 50.515625 64.515625 
Q 56.984375 54.828125 56.984375 36.375 
Q 56.984375 17.96875 50.515625 8.265625 
Q 44.046875 -1.421875 31.78125 -1.421875 
Q 19.53125 -1.421875 13.0625 8.265625 
Q 6.59375 17.96875 6.59375 36.375 
Q 6.59375 54.828125 13.0625 64.515625 
Q 19.53125 74.21875 31.78125 74.21875 
z
" id="DejaVuSans-48"/>
      </defs>
      <g transform="translate(210.630601 315.956875)scale(0.2 -0.2)">
       <use xlink:href="#DejaVuSans-48"/>
      </g>
     </g>
    </g>
    <g id="xtick_3">
     <g id="line2d_5">
      <path clip-path="url(#p0ff9e76dc0)" d="M 325.548289 293.76 
L 325.548289 3.456 
" style="fill:none;stroke:#b0b0b0;stroke-linecap:square;stroke-width:0.8;"/>
     </g>
     <g id="line2d_6">
      <g>
       <use style="stroke:#000000;stroke-width:0.8;" x="325.548289" xlink:href="#m2d1a28ef00" y="293.76"/>
      </g>
     </g>
     <g id="text_3">
      <!-- 4 -->
      <g transform="translate(319.185789 315.956875)scale(0.2 -0.2)">
       <use xlink:href="#DejaVuSans-52"/>
      </g>
     </g>
    </g>
    <g id="xtick_4">
     <g id="line2d_7">
      <path clip-path="url(#p0ff9e76dc0)" d="M 434.103478 293.76 
L 434.103478 3.456 
" style="fill:none;stroke:#b0b0b0;stroke-linecap:square;stroke-width:0.8;"/>
     </g>
     <g id="line2d_8">
      <g>
       <use style="stroke:#000000;stroke-width:0.8;" x="434.103478" xlink:href="#m2d1a28ef00" y="293.76"/>
      </g>
     </g>
     <g id="text_4">
      <!-- 8 -->
      <defs>
       <path d="M 31.78125 34.625 
Q 24.75 34.625 20.71875 30.859375 
Q 16.703125 27.09375 16.703125 20.515625 
Q 16.703125 13.921875 20.71875 10.15625 
Q 24.75 6.390625 31.78125 6.390625 
Q 38.8125 6.390625 42.859375 10.171875 
Q 46.921875 13.96875 46.921875 20.515625 
Q 46.921875 27.09375 42.890625 30.859375 
Q 38.875 34.625 31.78125 34.625 
z
M 21.921875 38.8125 
Q 15.578125 40.375 12.03125 44.71875 
Q 8.5 49.078125 8.5 55.328125 
Q 8.5 64.0625 14.71875 69.140625 
Q 20.953125 74.21875 31.78125 74.21875 
Q 42.671875 74.21875 48.875 69.140625 
Q 55.078125 64.0625 55.078125 55.328125 
Q 55.078125 49.078125 51.53125 44.71875 
Q 48 40.375 41.703125 38.8125 
Q 48.828125 37.15625 52.796875 32.3125 
Q 56.78125 27.484375 56.78125 20.515625 
Q 56.78125 9.90625 50.3125 4.234375 
Q 43.84375 -1.421875 31.78125 -1.421875 
Q 19.734375 -1.421875 13.25 4.234375 
Q 6.78125 9.90625 6.78125 20.515625 
Q 6.78125 27.484375 10.78125 32.3125 
Q 14.796875 37.15625 21.921875 38.8125 
z
M 18.3125 54.390625 
Q 18.3125 48.734375 21.84375 45.5625 
Q 25.390625 42.390625 31.78125 42.390625 
Q 38.140625 42.390625 41.71875 45.5625 
Q 45.3125 48.734375 45.3125 54.390625 
Q 45.3125 60.0625 41.71875 63.234375 
Q 38.140625 66.40625 31.78125 66.40625 
Q 25.390625 66.40625 21.84375 63.234375 
Q 18.3125 60.0625 18.3125 54.390625 
z
" id="DejaVuSans-56"/>
      </defs>
      <g transform="translate(427.740978 315.956875)scale(0.2 -0.2)">
       <use xlink:href="#DejaVuSans-56"/>
      </g>
     </g>
    </g>
    <g id="text_5">
     <!-- log10 of Df -->
     <defs>
      <path d="M 9.421875 75.984375 
L 18.40625 75.984375 
L 18.40625 0 
L 9.421875 0 
z
" id="DejaVuSans-108"/>
      <path d="M 30.609375 48.390625 
Q 23.390625 48.390625 19.1875 42.75 
Q 14.984375 37.109375 14.984375 27.296875 
Q 14.984375 17.484375 19.15625 11.84375 
Q 23.34375 6.203125 30.609375 6.203125 
Q 37.796875 6.203125 41.984375 11.859375 
Q 46.1875 17.53125 46.1875 27.296875 
Q 46.1875 37.015625 41.984375 42.703125 
Q 37.796875 48.390625 30.609375 48.390625 
z
M 30.609375 56 
Q 42.328125 56 49.015625 48.375 
Q 55.71875 40.765625 55.71875 27.296875 
Q 55.71875 13.875 49.015625 6.21875 
Q 42.328125 -1.421875 30.609375 -1.421875 
Q 18.84375 -1.421875 12.171875 6.21875 
Q 5.515625 13.875 5.515625 27.296875 
Q 5.515625 40.765625 12.171875 48.375 
Q 18.84375 56 30.609375 56 
z
" id="DejaVuSans-111"/>
      <path d="M 45.40625 27.984375 
Q 45.40625 37.75 41.375 43.109375 
Q 37.359375 48.484375 30.078125 48.484375 
Q 22.859375 48.484375 18.828125 43.109375 
Q 14.796875 37.75 14.796875 27.984375 
Q 14.796875 18.265625 18.828125 12.890625 
Q 22.859375 7.515625 30.078125 7.515625 
Q 37.359375 7.515625 41.375 12.890625 
Q 45.40625 18.265625 45.40625 27.984375 
z
M 54.390625 6.78125 
Q 54.390625 -7.171875 48.1875 -13.984375 
Q 42 -20.796875 29.203125 -20.796875 
Q 24.46875 -20.796875 20.265625 -20.09375 
Q 16.0625 -19.390625 12.109375 -17.921875 
L 12.109375 -9.1875 
Q 16.0625 -11.328125 19.921875 -12.34375 
Q 23.78125 -13.375 27.78125 -13.375 
Q 36.625 -13.375 41.015625 -8.765625 
Q 45.40625 -4.15625 45.40625 5.171875 
L 45.40625 9.625 
Q 42.625 4.78125 38.28125 2.390625 
Q 33.9375 0 27.875 0 
Q 17.828125 0 11.671875 7.65625 
Q 5.515625 15.328125 5.515625 27.984375 
Q 5.515625 40.671875 11.671875 48.328125 
Q 17.828125 56 27.875 56 
Q 33.9375 56 38.28125 53.609375 
Q 42.625 51.21875 45.40625 46.390625 
L 45.40625 54.6875 
L 54.390625 54.6875 
z
" id="DejaVuSans-103"/>
      <path d="M 12.40625 8.296875 
L 28.515625 8.296875 
L 28.515625 63.921875 
L 10.984375 60.40625 
L 10.984375 69.390625 
L 28.421875 72.90625 
L 38.28125 72.90625 
L 38.28125 8.296875 
L 54.390625 8.296875 
L 54.390625 0 
L 12.40625 0 
z
" id="DejaVuSans-49"/>
      <path id="DejaVuSans-32"/>
      <path d="M 37.109375 75.984375 
L 37.109375 68.5 
L 28.515625 68.5 
Q 23.6875 68.5 21.796875 66.546875 
Q 19.921875 64.59375 19.921875 59.515625 
L 19.921875 54.6875 
L 34.71875 54.6875 
L 34.71875 47.703125 
L 19.921875 47.703125 
L 19.921875 0 
L 10.890625 0 
L 10.890625 47.703125 
L 2.296875 47.703125 
L 2.296875 54.6875 
L 10.890625 54.6875 
L 10.890625 58.5 
Q 10.890625 67.625 15.140625 71.796875 
Q 19.390625 75.984375 28.609375 75.984375 
z
" id="DejaVuSans-102"/>
      <path d="M 19.671875 64.796875 
L 19.671875 8.109375 
L 31.59375 8.109375 
Q 46.6875 8.109375 53.6875 14.9375 
Q 60.6875 21.78125 60.6875 36.53125 
Q 60.6875 51.171875 53.6875 57.984375 
Q 46.6875 64.796875 31.59375 64.796875 
z
M 9.8125 72.90625 
L 30.078125 72.90625 
Q 51.265625 72.90625 61.171875 64.09375 
Q 71.09375 55.28125 71.09375 36.53125 
Q 71.09375 17.671875 61.125 8.828125 
Q 51.171875 0 30.078125 0 
L 9.8125 0 
z
" id="DejaVuSans-68"/>
     </defs>
     <g transform="translate(175.214063 339.313125)scale(0.2 -0.2)">
      <use xlink:href="#DejaVuSans-108"/>
      <use x="27.783203" xlink:href="#DejaVuSans-111"/>
      <use x="88.964844" xlink:href="#DejaVuSans-103"/>
      <use x="152.441406" xlink:href="#DejaVuSans-49"/>
      <use x="216.064453" xlink:href="#DejaVuSans-48"/>
      <use x="279.6875" xlink:href="#DejaVuSans-32"/>
      <use x="311.474609" xlink:href="#DejaVuSans-111"/>
      <use x="372.65625" xlink:href="#DejaVuSans-102"/>
      <use x="407.861328" xlink:href="#DejaVuSans-32"/>
      <use x="439.648438" xlink:href="#DejaVuSans-68"/>
      <use x="516.650391" xlink:href="#DejaVuSans-102"/>
     </g>
    </g>
   </g>
   <g id="matplotlib.axis_2">
    <g id="ytick_1">
     <g id="line2d_9">
      <path clip-path="url(#p0ff9e76dc0)" d="M 0 293.76 
L 460.8 293.76 
" style="fill:none;stroke:#b0b0b0;stroke-linecap:square;stroke-width:0.8;"/>
     </g>
     <g id="line2d_10">
      <defs>
       <path d="M 0 0 
L -3.5 0 
" id="m6cd34348d4" style="stroke:#000000;stroke-width:0.8;"/>
      </defs>
      <g>
       <use style="stroke:#000000;stroke-width:0.8;" x="0" xlink:href="#m6cd34348d4" y="293.76"/>
      </g>
     </g>
    </g>
    <g id="ytick_2">
     <g id="line2d_11">
      <path clip-path="url(#p0ff9e76dc0)" d="M 0 236.274059 
L 460.8 236.274059 
" style="fill:none;stroke:#b0b0b0;stroke-linecap:square;stroke-width:0.8;"/>
     </g>
     <g id="line2d_12">
      <g>
       <use style="stroke:#000000;stroke-width:0.8;" x="0" xlink:href="#m6cd34348d4" y="236.274059"/>
      </g>
     </g>
    </g>
    <g id="ytick_3">
     <g id="line2d_13">
      <path clip-path="url(#p0ff9e76dc0)" d="M 0 178.788119 
L 460.8 178.788119 
" style="fill:none;stroke:#b0b0b0;stroke-linecap:square;stroke-width:0.8;"/>
     </g>
     <g id="line2d_14">
      <g>
       <use style="stroke:#000000;stroke-width:0.8;" x="0" xlink:href="#m6cd34348d4" y="178.788119"/>
      </g>
     </g>
    </g>
    <g id="ytick_4">
     <g id="line2d_15">
      <path clip-path="url(#p0ff9e76dc0)" d="M 0 121.302178 
L 460.8 121.302178 
" style="fill:none;stroke:#b0b0b0;stroke-linecap:square;stroke-width:0.8;"/>
     </g>
     <g id="line2d_16">
      <g>
       <use style="stroke:#000000;stroke-width:0.8;" x="0" xlink:href="#m6cd34348d4" y="121.302178"/>
      </g>
     </g>
    </g>
    <g id="ytick_5">
     <g id="line2d_17">
      <path clip-path="url(#p0ff9e76dc0)" d="M 0 63.816238 
L 460.8 63.816238 
" style="fill:none;stroke:#b0b0b0;stroke-linecap:square;stroke-width:0.8;"/>
     </g>
     <g id="line2d_18">
      <g>
       <use style="stroke:#000000;stroke-width:0.8;" x="0" xlink:href="#m6cd34348d4" y="63.816238"/>
      </g>
     </g>
    </g>
    <g id="ytick_6">
     <g id="line2d_19">
      <path clip-path="url(#p0ff9e76dc0)" d="M 0 6.330297 
L 460.8 6.330297 
" style="fill:none;stroke:#b0b0b0;stroke-linecap:square;stroke-width:0.8;"/>
     </g>
     <g id="line2d_20">
      <g>
       <use style="stroke:#000000;stroke-width:0.8;" x="0" xlink:href="#m6cd34348d4" y="6.330297"/>
      </g>
     </g>
    </g>
   </g>
   <g id="line2d_21">
    <path clip-path="url(#p0ff9e76dc0)" d="M 254.111452 293.76 
L 254.111452 288.969505 
L 261.002757 288.969505 
L 261.002757 284.17901 
L 261.88268 284.17901 
L 261.88268 279.388515 
L 262.576804 279.388515 
L 262.576804 274.59802 
L 263.003944 274.59802 
L 263.003944 269.807525 
L 263.435687 269.807525 
L 263.435687 265.01703 
L 263.676558 265.01703 
L 263.676558 260.226535 
L 264.34326 260.226535 
L 264.34326 255.43604 
L 265.517452 255.43604 
L 265.517452 250.645545 
L 265.572849 250.645545 
L 265.572849 245.85505 
L 265.831766 245.85505 
L 265.831766 241.064554 
L 266.162061 241.064554 
L 266.162061 236.274059 
L 266.189952 236.274059 
L 266.189952 231.483564 
L 268.820988 231.483564 
L 268.820988 226.693069 
L 269.209907 226.693069 
L 269.209907 221.902574 
L 269.455677 221.902574 
L 269.455677 217.112079 
L 269.696799 217.112079 
L 269.696799 212.321584 
L 272.606563 212.321584 
L 272.606563 207.531089 
L 272.797465 207.531089 
L 272.797465 202.740594 
L 274.569745 202.740594 
L 274.569745 197.950099 
L 278.457309 197.950099 
L 278.457309 193.159604 
L 278.587048 193.159604 
L 278.587048 188.369109 
L 280.344858 188.369109 
L 280.344858 183.578614 
L 297.570832 183.578614 
L 297.570832 178.788119 
L 299.048699 178.788119 
L 299.048699 173.997624 
L 304.897949 173.997624 
L 304.897949 169.207129 
L 305.866073 169.207129 
L 305.866073 164.416634 
L 308.260472 164.416634 
L 308.260472 159.626139 
L 309.69906 159.626139 
L 309.69906 154.835644 
L 311.985684 154.835644 
L 311.985684 150.045149 
L 312.132363 150.045149 
L 312.132363 145.254653 
L 314.511 145.254653 
L 314.511 140.464158 
L 315.569402 140.464158 
L 315.569402 135.673663 
L 317.146164 135.673663 
L 317.146164 130.883168 
L 318.141521 130.883168 
L 318.141521 126.092673 
L 320.166914 126.092673 
L 320.166914 121.302178 
L 321.737276 121.302178 
L 321.737276 116.511683 
L 323.504241 116.511683 
L 323.504241 111.721188 
L 325.59082 111.721188 
L 325.59082 106.930693 
L 325.754436 106.930693 
L 325.754436 102.140198 
L 325.791797 102.140198 
L 325.791797 97.349703 
L 326.155559 97.349703 
L 326.155559 92.559208 
L 327.826863 92.559208 
L 327.826863 87.768713 
L 327.842123 87.768713 
L 327.842123 82.978218 
L 327.859031 82.978218 
L 327.859031 78.187723 
L 328.1907 78.187723 
L 328.1907 73.397228 
L 328.773603 73.397228 
L 328.773603 68.606733 
L 330.489999 68.606733 
L 330.489999 63.816238 
L 331.250696 63.816238 
L 331.250696 59.025743 
L 332.042877 59.025743 
L 332.042877 54.235248 
L 335.102659 54.235248 
L 335.102659 49.444752 
L 337.517913 49.444752 
L 337.517913 44.654257 
L 337.860117 44.654257 
L 337.860117 39.863762 
L 339.001058 39.863762 
L 339.001058 35.073267 
L 341.2479 35.073267 
L 341.2479 30.282772 
L 345.016281 30.282772 
L 345.016281 25.492277 
L 354.78639 25.492277 
L 354.78639 20.701782 
L 356.97061 20.701782 
L 356.97061 15.911287 
L 361.475534 15.911287 
L 361.475534 11.120792 
L 362.69502 11.120792 
L 362.69502 6.330297 
L 362.69502 6.330297 
L 362.69502 6.330297 
L 460.8 6.330297 
" style="fill:none;stroke:#ff0000;stroke-linecap:square;stroke-width:3;"/>
   </g>
   <g id="line2d_22">
    <path clip-path="url(#p0ff9e76dc0)" d="M 261.002757 293.76 
L 261.002757 288.969505 
L 262.576804 288.969505 
L 262.576804 284.17901 
L 263.003944 284.17901 
L 263.003944 279.388515 
L 268.938773 279.388515 
L 268.938773 274.59802 
L 271.067546 274.59802 
L 271.067546 269.807525 
L 272.626703 269.807525 
L 272.626703 265.01703 
L 275.037403 265.01703 
L 275.037403 260.226535 
L 277.71002 260.226535 
L 277.71002 255.43604 
L 278.587048 255.43604 
L 278.587048 250.645545 
L 279.45134 250.645545 
L 279.45134 245.85505 
L 285.183909 245.85505 
L 285.183909 241.064554 
L 286.40879 241.064554 
L 286.40879 236.274059 
L 287.309826 236.274059 
L 287.309826 231.483564 
L 289.92217 231.483564 
L 289.92217 226.693069 
L 290.995711 226.693069 
L 290.995711 221.902574 
L 291.667609 221.902574 
L 291.667609 217.112079 
L 293.437959 217.112079 
L 293.437959 212.321584 
L 294.080806 212.321584 
L 294.080806 207.531089 
L 308.260472 207.531089 
L 308.260472 202.740594 
L 311.985684 202.740594 
L 311.985684 197.950099 
L 314.233082 197.950099 
L 314.233082 193.159604 
L 324.20718 193.159604 
L 324.20718 188.369109 
L 324.356383 188.369109 
L 324.356383 183.578614 
L 325.59082 183.578614 
L 325.59082 178.788119 
L 325.754436 178.788119 
L 325.754436 173.997624 
L 325.91034 173.997624 
L 325.91034 169.207129 
L 326.155559 169.207129 
L 326.155559 164.416634 
L 327.398836 164.416634 
L 327.398836 159.626139 
L 328.940946 159.626139 
L 328.940946 154.835644 
L 329.25398 154.835644 
L 329.25398 150.045149 
L 330.489999 150.045149 
L 330.489999 145.254653 
L 332.042877 145.254653 
L 332.042877 140.464158 
L 332.431585 140.464158 
L 332.431585 135.673663 
L 334.038703 135.673663 
L 334.038703 130.883168 
L 337.517913 130.883168 
L 337.517913 126.092673 
L 338.284192 126.092673 
L 338.284192 121.302178 
L 339.270052 121.302178 
L 339.270052 116.511683 
L 339.760455 116.511683 
L 339.760455 111.721188 
L 340.392706 111.721188 
L 340.392706 106.930693 
L 340.505317 106.930693 
L 340.505317 102.140198 
L 340.623229 102.140198 
L 340.623229 97.349703 
L 340.629516 97.349703 
L 340.629516 92.559208 
L 341.2479 92.559208 
L 341.2479 87.768713 
L 341.500908 87.768713 
L 341.500908 82.978218 
L 343.029602 82.978218 
L 343.029602 78.187723 
L 347.541391 78.187723 
L 347.541391 73.397228 
L 347.64465 73.397228 
L 347.64465 68.606733 
L 347.839973 68.606733 
L 347.839973 63.816238 
L 349.171967 63.816238 
L 349.171967 59.025743 
L 349.559553 59.025743 
L 349.559553 54.235248 
L 354.548962 54.235248 
L 354.548962 49.444752 
L 354.78639 49.444752 
L 354.78639 44.654257 
L 358.776612 44.654257 
L 358.776612 39.863762 
L 361.866274 39.863762 
L 361.866274 35.073267 
L 365.113899 35.073267 
L 365.113899 30.282772 
L 365.155417 30.282772 
L 365.155417 25.492277 
L 365.157645 25.492277 
L 365.157645 20.701782 
L 372.898237 20.701782 
L 372.898237 15.911287 
L 373.371229 15.911287 
L 373.371229 11.120792 
L 381.331799 11.120792 
L 381.331799 6.330297 
L 381.331799 6.330297 
L 381.331799 6.330297 
L 460.8 6.330297 
" style="fill:none;stroke:#00bfbf;stroke-linecap:square;stroke-width:1.5;"/>
   </g>
   <g id="line2d_23">
    <path clip-path="url(#p0ff9e76dc0)" d="M 261.002757 293.76 
L 261.002757 288.969505 
L 261.88268 288.969505 
L 261.88268 284.17901 
L 262.576804 284.17901 
L 262.576804 279.388515 
L 263.003944 279.388515 
L 263.003944 274.59802 
L 263.435687 274.59802 
L 263.435687 269.807525 
L 263.676558 269.807525 
L 263.676558 265.01703 
L 264.34326 265.01703 
L 264.34326 260.226535 
L 265.831766 260.226535 
L 265.831766 255.43604 
L 266.162061 255.43604 
L 266.162061 250.645545 
L 266.189952 250.645545 
L 266.189952 245.85505 
L 269.209907 245.85505 
L 269.209907 241.064554 
L 269.328027 241.064554 
L 269.328027 236.274059 
L 269.696799 236.274059 
L 269.696799 231.483564 
L 271.499516 231.483564 
L 271.499516 226.693069 
L 272.626703 226.693069 
L 272.626703 221.902574 
L 275.037403 221.902574 
L 275.037403 217.112079 
L 275.092958 217.112079 
L 275.092958 212.321584 
L 277.925196 212.321584 
L 277.925196 207.531089 
L 278.457309 207.531089 
L 278.457309 202.740594 
L 278.587048 202.740594 
L 278.587048 197.950099 
L 303.805557 197.950099 
L 303.805557 193.159604 
L 304.897949 193.159604 
L 304.897949 188.369109 
L 305.866073 188.369109 
L 305.866073 183.578614 
L 308.260472 183.578614 
L 308.260472 178.788119 
L 309.69906 178.788119 
L 309.69906 173.997624 
L 309.940028 173.997624 
L 309.940028 169.207129 
L 311.985684 169.207129 
L 311.985684 164.416634 
L 312.132363 164.416634 
L 312.132363 159.626139 
L 323.504241 159.626139 
L 323.504241 154.835644 
L 324.356383 154.835644 
L 324.356383 150.045149 
L 325.59082 150.045149 
L 325.59082 145.254653 
L 325.754436 145.254653 
L 325.754436 140.464158 
L 325.788657 140.464158 
L 325.788657 135.673663 
L 326.155559 135.673663 
L 326.155559 130.883168 
L 328.1907 130.883168 
L 328.1907 126.092673 
L 328.940946 126.092673 
L 328.940946 121.302178 
L 329.25398 121.302178 
L 329.25398 116.511683 
L 330.489999 116.511683 
L 330.489999 111.721188 
L 330.533093 111.721188 
L 330.533093 106.930693 
L 332.042877 106.930693 
L 332.042877 102.140198 
L 332.334954 102.140198 
L 332.334954 97.349703 
L 332.790892 97.349703 
L 332.790892 92.559208 
L 334.038703 92.559208 
L 334.038703 87.768713 
L 334.09312 87.768713 
L 334.09312 82.978218 
L 334.253062 82.978218 
L 334.253062 78.187723 
L 335.102659 78.187723 
L 335.102659 73.397228 
L 336.12173 73.397228 
L 336.12173 68.606733 
L 337.517913 68.606733 
L 337.517913 63.816238 
L 338.960916 63.816238 
L 338.960916 59.025743 
L 339.085038 59.025743 
L 339.085038 54.235248 
L 340.505317 54.235248 
L 340.505317 49.444752 
L 341.2479 49.444752 
L 341.2479 44.654257 
L 343.558784 44.654257 
L 343.558784 39.863762 
L 345.016281 39.863762 
L 345.016281 35.073267 
L 349.171967 35.073267 
L 349.171967 30.282772 
L 354.492009 30.282772 
L 354.492009 25.492277 
L 354.78639 25.492277 
L 354.78639 20.701782 
L 356.97061 20.701782 
L 356.97061 15.911287 
L 362.69502 15.911287 
L 362.69502 11.120792 
L 380.660922 11.120792 
L 380.660922 6.330297 
L 380.660922 6.330297 
L 380.660922 6.330297 
L 460.8 6.330297 
" style="fill:none;stroke:#bf00bf;stroke-linecap:square;stroke-width:1.5;"/>
   </g>
   <g id="patch_3">
    <path d="M 0 293.76 
L 0 3.456 
" style="fill:none;stroke:#000000;stroke-linecap:square;stroke-linejoin:miter;stroke-width:0.8;"/>
   </g>
   <g id="patch_4">
    <path d="M 460.8 293.76 
L 460.8 3.456 
" style="fill:none;stroke:#000000;stroke-linecap:square;stroke-linejoin:miter;stroke-width:0.8;"/>
   </g>
   <g id="patch_5">
    <path d="M 0 293.76 
L 460.8 293.76 
" style="fill:none;stroke:#000000;stroke-linecap:square;stroke-linejoin:miter;stroke-width:0.8;"/>
   </g>
   <g id="patch_6">
    <path d="M 0 3.456 
L 460.8 3.456 
" style="fill:none;stroke:#000000;stroke-linecap:square;stroke-linejoin:miter;stroke-width:0.8;"/>
   </g>
   <g id="text_6">
    <!-- {f6-f9}, 5-D -->
    <defs>
     <path d="M 51.125 -9.28125 
L 51.125 -16.3125 
L 48.09375 -16.3125 
Q 35.9375 -16.3125 31.8125 -12.6875 
Q 27.6875 -9.078125 27.6875 1.703125 
L 27.6875 13.375 
Q 27.6875 20.75 25.046875 23.578125 
Q 22.40625 26.421875 15.484375 26.421875 
L 12.5 26.421875 
L 12.5 33.40625 
L 15.484375 33.40625 
Q 22.46875 33.40625 25.078125 36.203125 
Q 27.6875 39.015625 27.6875 46.296875 
L 27.6875 58.015625 
Q 27.6875 68.796875 31.8125 72.390625 
Q 35.9375 75.984375 48.09375 75.984375 
L 51.125 75.984375 
L 51.125 69 
L 47.796875 69 
Q 40.921875 69 38.8125 66.84375 
Q 36.71875 64.703125 36.71875 57.8125 
L 36.71875 45.703125 
Q 36.71875 38.03125 34.5 34.5625 
Q 32.28125 31.109375 26.90625 29.890625 
Q 32.328125 28.5625 34.515625 25.09375 
Q 36.71875 21.625 36.71875 14.015625 
L 36.71875 1.90625 
Q 36.71875 -4.984375 38.8125 -7.125 
Q 40.921875 -9.28125 47.796875 -9.28125 
z
" id="DejaVuSans-123"/>
     <path d="M 33.015625 40.375 
Q 26.375 40.375 22.484375 35.828125 
Q 18.609375 31.296875 18.609375 23.390625 
Q 18.609375 15.53125 22.484375 10.953125 
Q 26.375 6.390625 33.015625 6.390625 
Q 39.65625 6.390625 43.53125 10.953125 
Q 47.40625 15.53125 47.40625 23.390625 
Q 47.40625 31.296875 43.53125 35.828125 
Q 39.65625 40.375 33.015625 40.375 
z
M 52.59375 71.296875 
L 52.59375 62.3125 
Q 48.875 64.0625 45.09375 64.984375 
Q 41.3125 65.921875 37.59375 65.921875 
Q 27.828125 65.921875 22.671875 59.328125 
Q 17.53125 52.734375 16.796875 39.40625 
Q 19.671875 43.65625 24.015625 45.921875 
Q 28.375 48.1875 33.59375 48.1875 
Q 44.578125 48.1875 50.953125 41.515625 
Q 57.328125 34.859375 57.328125 23.390625 
Q 57.328125 12.15625 50.6875 5.359375 
Q 44.046875 -1.421875 33.015625 -1.421875 
Q 20.359375 -1.421875 13.671875 8.265625 
Q 6.984375 17.96875 6.984375 36.375 
Q 6.984375 53.65625 15.1875 63.9375 
Q 23.390625 74.21875 37.203125 74.21875 
Q 40.921875 74.21875 44.703125 73.484375 
Q 48.484375 72.75 52.59375 71.296875 
z
" id="DejaVuSans-54"/>
     <path d="M 10.984375 1.515625 
L 10.984375 10.5 
Q 14.703125 8.734375 18.5 7.8125 
Q 22.3125 6.890625 25.984375 6.890625 
Q 35.75 6.890625 40.890625 13.453125 
Q 46.046875 20.015625 46.78125 33.40625 
Q 43.953125 29.203125 39.59375 26.953125 
Q 35.25 24.703125 29.984375 24.703125 
Q 19.046875 24.703125 12.671875 31.3125 
Q 6.296875 37.9375 6.296875 49.421875 
Q 6.296875 60.640625 12.9375 67.421875 
Q 19.578125 74.21875 30.609375 74.21875 
Q 43.265625 74.21875 49.921875 64.515625 
Q 56.59375 54.828125 56.59375 36.375 
Q 56.59375 19.140625 48.40625 8.859375 
Q 40.234375 -1.421875 26.421875 -1.421875 
Q 22.703125 -1.421875 18.890625 -0.6875 
Q 15.09375 0.046875 10.984375 1.515625 
z
M 30.609375 32.421875 
Q 37.25 32.421875 41.125 36.953125 
Q 45.015625 41.5 45.015625 49.421875 
Q 45.015625 57.28125 41.125 61.84375 
Q 37.25 66.40625 30.609375 66.40625 
Q 23.96875 66.40625 20.09375 61.84375 
Q 16.21875 57.28125 16.21875 49.421875 
Q 16.21875 41.5 20.09375 36.953125 
Q 23.96875 32.421875 30.609375 32.421875 
z
" id="DejaVuSans-57"/>
     <path d="M 12.5 -9.28125 
L 15.921875 -9.28125 
Q 22.75 -9.28125 24.828125 -7.171875 
Q 26.90625 -5.078125 26.90625 1.90625 
L 26.90625 14.015625 
Q 26.90625 21.625 29.09375 25.09375 
Q 31.296875 28.5625 36.71875 29.890625 
Q 31.296875 31.109375 29.09375 34.5625 
Q 26.90625 38.03125 26.90625 45.703125 
L 26.90625 57.8125 
Q 26.90625 64.75 24.828125 66.875 
Q 22.75 69 15.921875 69 
L 12.5 69 
L 12.5 75.984375 
L 15.578125 75.984375 
Q 27.734375 75.984375 31.8125 72.390625 
Q 35.890625 68.796875 35.890625 58.015625 
L 35.890625 46.296875 
Q 35.890625 39.015625 38.515625 36.203125 
Q 41.15625 33.40625 48.09375 33.40625 
L 51.125 33.40625 
L 51.125 26.421875 
L 48.09375 26.421875 
Q 41.15625 26.421875 38.515625 23.578125 
Q 35.890625 20.75 35.890625 13.375 
L 35.890625 1.703125 
Q 35.890625 -9.078125 31.8125 -12.6875 
Q 27.734375 -16.3125 15.578125 -16.3125 
L 12.5 -16.3125 
z
" id="DejaVuSans-125"/>
     <path d="M 11.71875 12.40625 
L 22.015625 12.40625 
L 22.015625 4 
L 14.015625 -11.625 
L 7.71875 -11.625 
L 11.71875 4 
z
" id="DejaVuSans-44"/>
     <path d="M 10.796875 72.90625 
L 49.515625 72.90625 
L 49.515625 64.59375 
L 19.828125 64.59375 
L 19.828125 46.734375 
Q 21.96875 47.46875 24.109375 47.828125 
Q 26.265625 48.1875 28.421875 48.1875 
Q 40.625 48.1875 47.75 41.5 
Q 54.890625 34.8125 54.890625 23.390625 
Q 54.890625 11.625 47.5625 5.09375 
Q 40.234375 -1.421875 26.90625 -1.421875 
Q 22.3125 -1.421875 17.546875 -0.640625 
Q 12.796875 0.140625 7.71875 1.703125 
L 7.71875 11.625 
Q 12.109375 9.234375 16.796875 8.0625 
Q 21.484375 6.890625 26.703125 6.890625 
Q 35.15625 6.890625 40.078125 11.328125 
Q 45.015625 15.765625 45.015625 23.390625 
Q 45.015625 31 40.078125 35.4375 
Q 35.15625 39.890625 26.703125 39.890625 
Q 22.75 39.890625 18.8125 39.015625 
Q 14.890625 38.140625 10.796875 36.28125 
z
" id="DejaVuSans-53"/>
    </defs>
    <g transform="translate(331.334 287.95392)scale(0.2 -0.2)">
     <use xlink:href="#DejaVuSans-123"/>
     <use x="63.623047" xlink:href="#DejaVuSans-102"/>
     <use x="98.828125" xlink:href="#DejaVuSans-54"/>
     <use x="162.451172" xlink:href="#DejaVuSans-45"/>
     <use x="198.535156" xlink:href="#DejaVuSans-102"/>
     <use x="233.740234" xlink:href="#DejaVuSans-57"/>
     <use x="297.363281" xlink:href="#DejaVuSans-125"/>
     <use x="360.986328" xlink:href="#DejaVuSans-44"/>
     <use x="392.773438" xlink:href="#DejaVuSans-32"/>
     <use x="424.560547" xlink:href="#DejaVuSans-53"/>
     <use x="488.183594" xlink:href="#DejaVuSans-45"/>
     <use x="524.267578" xlink:href="#DejaVuSans-68"/>
    </g>
   </g>
   <g id="text_7">
    <!-- v2.4 -->
    <defs>
     <path d="M 2.984375 54.6875 
L 12.5 54.6875 
L 29.59375 8.796875 
L 46.6875 54.6875 
L 56.203125 54.6875 
L 35.6875 0 
L 23.484375 0 
z
" id="DejaVuSans-118"/>
     <path d="M 19.1875 8.296875 
L 53.609375 8.296875 
L 53.609375 0 
L 7.328125 0 
L 7.328125 8.296875 
Q 12.9375 14.109375 22.625 23.890625 
Q 32.328125 33.6875 34.8125 36.53125 
Q 39.546875 41.84375 41.421875 45.53125 
Q 43.3125 49.21875 43.3125 52.78125 
Q 43.3125 58.59375 39.234375 62.25 
Q 35.15625 65.921875 28.609375 65.921875 
Q 23.96875 65.921875 18.8125 64.3125 
Q 13.671875 62.703125 7.8125 59.421875 
L 7.8125 69.390625 
Q 13.765625 71.78125 18.9375 73 
Q 24.125 74.21875 28.421875 74.21875 
Q 39.75 74.21875 46.484375 68.546875 
Q 53.21875 62.890625 53.21875 53.421875 
Q 53.21875 48.921875 51.53125 44.890625 
Q 49.859375 40.875 45.40625 35.40625 
Q 44.1875 33.984375 37.640625 27.21875 
Q 31.109375 20.453125 19.1875 8.296875 
z
" id="DejaVuSans-50"/>
     <path d="M 10.6875 12.40625 
L 21 12.40625 
L 21 0 
L 10.6875 0 
z
" id="DejaVuSans-46"/>
    </defs>
    <g style="fill:#808080;" transform="translate(219.489063 288.777272)scale(0.1 -0.1)">
     <use xlink:href="#DejaVuSans-118"/>
     <use x="59.179688" xlink:href="#DejaVuSans-50"/>
     <use x="122.802734" xlink:href="#DejaVuSans-46"/>
     <use x="154.589844" xlink:href="#DejaVuSans-52"/>
    </g>
   </g>
  </g>
 </g>
 <defs>
  <clipPath id="p0ff9e76dc0">
   <rect height="290.304" width="460.8" x="0" y="3.456"/>
  </clipPath>
 </defs>
</svg>
