<?xml version="1.0" encoding="utf-8" standalone="no"?>
<!DOCTYPE svg PUBLIC "-//W3C//DTD SVG 1.1//EN"
  "http://www.w3.org/Graphics/SVG/1.1/DTD/svg11.dtd">
<!-- Created with matplotlib (https://matplotlib.org/) -->
<svg height="345.6pt" version="1.1" viewBox="0 0 460.8 345.6" width="460.8pt" xmlns="http://www.w3.org/2000/svg" xmlns:xlink="http://www.w3.org/1999/xlink">
 <defs>
  <style type="text/css">
*{stroke-linecap:butt;stroke-linejoin:round;}
  </style>
 </defs>
 <g id="figure_1">
  <g id="patch_1">
   <path d="M 0 345.6 
L 460.8 345.6 
L 460.8 0 
L 0 0 
z
" style="fill:#ffffff;"/>
  </g>
  <g id="axes_1">
   <g id="patch_2">
    <path d="M 0 293.76 
L 460.8 293.76 
L 460.8 3.456 
L 0 3.456 
z
" style="fill:#ffffff;"/>
   </g>
   <g id="matplotlib.axis_1">
    <g id="xtick_1">
     <g id="line2d_1">
      <path clip-path="url(#p7e9e3f762f)" d="M 105.96701 293.76 
L 105.96701 3.456 
" style="fill:none;stroke:#b0b0b0;stroke-linecap:square;stroke-width:0.8;"/>
     </g>
     <g id="line2d_2">
      <defs>
       <path d="M 0 0 
L 0 3.5 
" id="me8b0fe0948" style="stroke:#000000;stroke-width:0.8;"/>
      </defs>
      <g>
       <use style="stroke:#000000;stroke-width:0.8;" x="105.96701" xlink:href="#me8b0fe0948" y="293.76"/>
      </g>
     </g>
     <g id="text_1">
      <!-- -4 -->
      <defs>
       <path d="M 4.890625 31.390625 
L 31.203125 31.390625 
L 31.203125 23.390625 
L 4.890625 23.390625 
z
" id="DejaVuSans-45"/>
       <path d="M 37.796875 64.3125 
L 12.890625 25.390625 
L 37.796875 25.390625 
z
M 35.203125 72.90625 
L 47.609375 72.90625 
L 47.609375 25.390625 
L 58.015625 25.390625 
L 58.015625 17.1875 
L 47.609375 17.1875 
L 47.609375 0 
L 37.796875 0 
L 37.796875 17.1875 
L 4.890625 17.1875 
L 4.890625 26.703125 
z
" id="DejaVuSans-52"/>
      </defs>
      <g transform="translate(95.996698 315.956875)scale(0.2 -0.2)">
       <use xlink:href="#DejaVuSans-45"/>
       <use x="36.083984" xlink:href="#DejaVuSans-52"/>
      </g>
     </g>
    </g>
    <g id="xtick_2">
     <g id="line2d_3">
      <path clip-path="url(#p7e9e3f762f)" d="M 212.048625 293.76 
L 212.048625 3.456 
" style="fill:none;stroke:#b0b0b0;stroke-linecap:square;stroke-width:0.8;"/>
     </g>
     <g id="line2d_4">
      <g>
       <use style="stroke:#000000;stroke-width:0.8;" x="212.048625" xlink:href="#me8b0fe0948" y="293.76"/>
      </g>
     </g>
     <g id="text_2">
      <!-- 0 -->
      <defs>
       <path d="M 31.78125 66.40625 
Q 24.171875 66.40625 20.328125 58.90625 
Q 16.5 51.421875 16.5 36.375 
Q 16.5 21.390625 20.328125 13.890625 
Q 24.171875 6.390625 31.78125 6.390625 
Q 39.453125 6.390625 43.28125 13.890625 
Q 47.125 21.390625 47.125 36.375 
Q 47.125 51.421875 43.28125 58.90625 
Q 39.453125 66.40625 31.78125 66.40625 
z
M 31.78125 74.21875 
Q 44.046875 74.21875 50.515625 64.515625 
Q 56.984375 54.828125 56.984375 36.375 
Q 56.984375 17.96875 50.515625 8.265625 
Q 44.046875 -1.421875 31.78125 -1.421875 
Q 19.53125 -1.421875 13.0625 8.265625 
Q 6.59375 17.96875 6.59375 36.375 
Q 6.59375 54.828125 13.0625 64.515625 
Q 19.53125 74.21875 31.78125 74.21875 
z
" id="DejaVuSans-48"/>
      </defs>
      <g transform="translate(205.686125 315.956875)scale(0.2 -0.2)">
       <use xlink:href="#DejaVuSans-48"/>
      </g>
     </g>
    </g>
    <g id="xtick_3">
     <g id="line2d_5">
      <path clip-path="url(#p7e9e3f762f)" d="M 318.13024 293.76 
L 318.13024 3.456 
" style="fill:none;stroke:#b0b0b0;stroke-linecap:square;stroke-width:0.8;"/>
     </g>
     <g id="line2d_6">
      <g>
       <use style="stroke:#000000;stroke-width:0.8;" x="318.13024" xlink:href="#me8b0fe0948" y="293.76"/>
      </g>
     </g>
     <g id="text_3">
      <!-- 4 -->
      <g transform="translate(311.76774 315.956875)scale(0.2 -0.2)">
       <use xlink:href="#DejaVuSans-52"/>
      </g>
     </g>
    </g>
    <g id="xtick_4">
     <g id="line2d_7">
      <path clip-path="url(#p7e9e3f762f)" d="M 424.211854 293.76 
L 424.211854 3.456 
" style="fill:none;stroke:#b0b0b0;stroke-linecap:square;stroke-width:0.8;"/>
     </g>
     <g id="line2d_8">
      <g>
       <use style="stroke:#000000;stroke-width:0.8;" x="424.211854" xlink:href="#me8b0fe0948" y="293.76"/>
      </g>
     </g>
     <g id="text_4">
      <!-- 8 -->
      <defs>
       <path d="M 31.78125 34.625 
Q 24.75 34.625 20.71875 30.859375 
Q 16.703125 27.09375 16.703125 20.515625 
Q 16.703125 13.921875 20.71875 10.15625 
Q 24.75 6.390625 31.78125 6.390625 
Q 38.8125 6.390625 42.859375 10.171875 
Q 46.921875 13.96875 46.921875 20.515625 
Q 46.921875 27.09375 42.890625 30.859375 
Q 38.875 34.625 31.78125 34.625 
z
M 21.921875 38.8125 
Q 15.578125 40.375 12.03125 44.71875 
Q 8.5 49.078125 8.5 55.328125 
Q 8.5 64.0625 14.71875 69.140625 
Q 20.953125 74.21875 31.78125 74.21875 
Q 42.671875 74.21875 48.875 69.140625 
Q 55.078125 64.0625 55.078125 55.328125 
Q 55.078125 49.078125 51.53125 44.71875 
Q 48 40.375 41.703125 38.8125 
Q 48.828125 37.15625 52.796875 32.3125 
Q 56.78125 27.484375 56.78125 20.515625 
Q 56.78125 9.90625 50.3125 4.234375 
Q 43.84375 -1.421875 31.78125 -1.421875 
Q 19.734375 -1.421875 13.25 4.234375 
Q 6.78125 9.90625 6.78125 20.515625 
Q 6.78125 27.484375 10.78125 32.3125 
Q 14.796875 37.15625 21.921875 38.8125 
z
M 18.3125 54.390625 
Q 18.3125 48.734375 21.84375 45.5625 
Q 25.390625 42.390625 31.78125 42.390625 
Q 38.140625 42.390625 41.71875 45.5625 
Q 45.3125 48.734375 45.3125 54.390625 
Q 45.3125 60.0625 41.71875 63.234375 
Q 38.140625 66.40625 31.78125 66.40625 
Q 25.390625 66.40625 21.84375 63.234375 
Q 18.3125 60.0625 18.3125 54.390625 
z
" id="DejaVuSans-56"/>
      </defs>
      <g transform="translate(417.849354 315.956875)scale(0.2 -0.2)">
       <use xlink:href="#DejaVuSans-56"/>
      </g>
     </g>
    </g>
    <g id="text_5">
     <!-- log10 of Df -->
     <defs>
      <path d="M 9.421875 75.984375 
L 18.40625 75.984375 
L 18.40625 0 
L 9.421875 0 
z
" id="DejaVuSans-108"/>
      <path d="M 30.609375 48.390625 
Q 23.390625 48.390625 19.1875 42.75 
Q 14.984375 37.109375 14.984375 27.296875 
Q 14.984375 17.484375 19.15625 11.84375 
Q 23.34375 6.203125 30.609375 6.203125 
Q 37.796875 6.203125 41.984375 11.859375 
Q 46.1875 17.53125 46.1875 27.296875 
Q 46.1875 37.015625 41.984375 42.703125 
Q 37.796875 48.390625 30.609375 48.390625 
z
M 30.609375 56 
Q 42.328125 56 49.015625 48.375 
Q 55.71875 40.765625 55.71875 27.296875 
Q 55.71875 13.875 49.015625 6.21875 
Q 42.328125 -1.421875 30.609375 -1.421875 
Q 18.84375 -1.421875 12.171875 6.21875 
Q 5.515625 13.875 5.515625 27.296875 
Q 5.515625 40.765625 12.171875 48.375 
Q 18.84375 56 30.609375 56 
z
" id="DejaVuSans-111"/>
      <path d="M 45.40625 27.984375 
Q 45.40625 37.75 41.375 43.109375 
Q 37.359375 48.484375 30.078125 48.484375 
Q 22.859375 48.484375 18.828125 43.109375 
Q 14.796875 37.75 14.796875 27.984375 
Q 14.796875 18.265625 18.828125 12.890625 
Q 22.859375 7.515625 30.078125 7.515625 
Q 37.359375 7.515625 41.375 12.890625 
Q 45.40625 18.265625 45.40625 27.984375 
z
M 54.390625 6.78125 
Q 54.390625 -7.171875 48.1875 -13.984375 
Q 42 -20.796875 29.203125 -20.796875 
Q 24.46875 -20.796875 20.265625 -20.09375 
Q 16.0625 -19.390625 12.109375 -17.921875 
L 12.109375 -9.1875 
Q 16.0625 -11.328125 19.921875 -12.34375 
Q 23.78125 -13.375 27.78125 -13.375 
Q 36.625 -13.375 41.015625 -8.765625 
Q 45.40625 -4.15625 45.40625 5.171875 
L 45.40625 9.625 
Q 42.625 4.78125 38.28125 2.390625 
Q 33.9375 0 27.875 0 
Q 17.828125 0 11.671875 7.65625 
Q 5.515625 15.328125 5.515625 27.984375 
Q 5.515625 40.671875 11.671875 48.328125 
Q 17.828125 56 27.875 56 
Q 33.9375 56 38.28125 53.609375 
Q 42.625 51.21875 45.40625 46.390625 
L 45.40625 54.6875 
L 54.390625 54.6875 
z
" id="DejaVuSans-103"/>
      <path d="M 12.40625 8.296875 
L 28.515625 8.296875 
L 28.515625 63.921875 
L 10.984375 60.40625 
L 10.984375 69.390625 
L 28.421875 72.90625 
L 38.28125 72.90625 
L 38.28125 8.296875 
L 54.390625 8.296875 
L 54.390625 0 
L 12.40625 0 
z
" id="DejaVuSans-49"/>
      <path id="DejaVuSans-32"/>
      <path d="M 37.109375 75.984375 
L 37.109375 68.5 
L 28.515625 68.5 
Q 23.6875 68.5 21.796875 66.546875 
Q 19.921875 64.59375 19.921875 59.515625 
L 19.921875 54.6875 
L 34.71875 54.6875 
L 34.71875 47.703125 
L 19.921875 47.703125 
L 19.921875 0 
L 10.890625 0 
L 10.890625 47.703125 
L 2.296875 47.703125 
L 2.296875 54.6875 
L 10.890625 54.6875 
L 10.890625 58.5 
Q 10.890625 67.625 15.140625 71.796875 
Q 19.390625 75.984375 28.609375 75.984375 
z
" id="DejaVuSans-102"/>
      <path d="M 19.671875 64.796875 
L 19.671875 8.109375 
L 31.59375 8.109375 
Q 46.6875 8.109375 53.6875 14.9375 
Q 60.6875 21.78125 60.6875 36.53125 
Q 60.6875 51.171875 53.6875 57.984375 
Q 46.6875 64.796875 31.59375 64.796875 
z
M 9.8125 72.90625 
L 30.078125 72.90625 
Q 51.265625 72.90625 61.171875 64.09375 
Q 71.09375 55.28125 71.09375 36.53125 
Q 71.09375 17.671875 61.125 8.828125 
Q 51.171875 0 30.078125 0 
L 9.8125 0 
z
" id="DejaVuSans-68"/>
     </defs>
     <g transform="translate(175.214063 339.313125)scale(0.2 -0.2)">
      <use xlink:href="#DejaVuSans-108"/>
      <use x="27.783203" xlink:href="#DejaVuSans-111"/>
      <use x="88.964844" xlink:href="#DejaVuSans-103"/>
      <use x="152.441406" xlink:href="#DejaVuSans-49"/>
      <use x="216.064453" xlink:href="#DejaVuSans-48"/>
      <use x="279.6875" xlink:href="#DejaVuSans-32"/>
      <use x="311.474609" xlink:href="#DejaVuSans-111"/>
      <use x="372.65625" xlink:href="#DejaVuSans-102"/>
      <use x="407.861328" xlink:href="#DejaVuSans-32"/>
      <use x="439.648438" xlink:href="#DejaVuSans-68"/>
      <use x="516.650391" xlink:href="#DejaVuSans-102"/>
     </g>
    </g>
   </g>
   <g id="matplotlib.axis_2">
    <g id="ytick_1">
     <g id="line2d_9">
      <path clip-path="url(#p7e9e3f762f)" d="M 0 293.76 
L 460.8 293.76 
" style="fill:none;stroke:#b0b0b0;stroke-linecap:square;stroke-width:0.8;"/>
     </g>
     <g id="line2d_10">
      <defs>
       <path d="M 0 0 
L -3.5 0 
" id="m743b7e1368" style="stroke:#000000;stroke-width:0.8;"/>
      </defs>
      <g>
       <use style="stroke:#000000;stroke-width:0.8;" x="0" xlink:href="#m743b7e1368" y="293.76"/>
      </g>
     </g>
    </g>
    <g id="ytick_2">
     <g id="line2d_11">
      <path clip-path="url(#p7e9e3f762f)" d="M 0 236.274059 
L 460.8 236.274059 
" style="fill:none;stroke:#b0b0b0;stroke-linecap:square;stroke-width:0.8;"/>
     </g>
     <g id="line2d_12">
      <g>
       <use style="stroke:#000000;stroke-width:0.8;" x="0" xlink:href="#m743b7e1368" y="236.274059"/>
      </g>
     </g>
    </g>
    <g id="ytick_3">
     <g id="line2d_13">
      <path clip-path="url(#p7e9e3f762f)" d="M 0 178.788119 
L 460.8 178.788119 
" style="fill:none;stroke:#b0b0b0;stroke-linecap:square;stroke-width:0.8;"/>
     </g>
     <g id="line2d_14">
      <g>
       <use style="stroke:#000000;stroke-width:0.8;" x="0" xlink:href="#m743b7e1368" y="178.788119"/>
      </g>
     </g>
    </g>
    <g id="ytick_4">
     <g id="line2d_15">
      <path clip-path="url(#p7e9e3f762f)" d="M 0 121.302178 
L 460.8 121.302178 
" style="fill:none;stroke:#b0b0b0;stroke-linecap:square;stroke-width:0.8;"/>
     </g>
     <g id="line2d_16">
      <g>
       <use style="stroke:#000000;stroke-width:0.8;" x="0" xlink:href="#m743b7e1368" y="121.302178"/>
      </g>
     </g>
    </g>
    <g id="ytick_5">
     <g id="line2d_17">
      <path clip-path="url(#p7e9e3f762f)" d="M 0 63.816238 
L 460.8 63.816238 
" style="fill:none;stroke:#b0b0b0;stroke-linecap:square;stroke-width:0.8;"/>
     </g>
     <g id="line2d_18">
      <g>
       <use style="stroke:#000000;stroke-width:0.8;" x="0" xlink:href="#m743b7e1368" y="63.816238"/>
      </g>
     </g>
    </g>
    <g id="ytick_6">
     <g id="line2d_19">
      <path clip-path="url(#p7e9e3f762f)" d="M 0 6.330297 
L 460.8 6.330297 
" style="fill:none;stroke:#b0b0b0;stroke-linecap:square;stroke-width:0.8;"/>
     </g>
     <g id="line2d_20">
      <g>
       <use style="stroke:#000000;stroke-width:0.8;" x="0" xlink:href="#m743b7e1368" y="6.330297"/>
      </g>
     </g>
    </g>
   </g>
   <g id="line2d_21">
    <path clip-path="url(#p7e9e3f762f)" d="M 264.409727 293.76 
L 264.409727 289.927604 
L 266.321727 289.927604 
L 266.321727 286.095208 
L 266.922812 286.095208 
L 266.922812 282.262812 
L 268.048122 282.262812 
L 268.048122 278.430416 
L 268.313344 278.430416 
L 268.338344 270.765624 
L 268.608272 270.765624 
L 268.608272 266.933228 
L 269.041655 266.933228 
L 269.041655 263.100832 
L 269.64054 263.100832 
L 269.64054 259.268436 
L 269.866813 259.268436 
L 269.925427 247.771248 
L 271.234015 247.771248 
L 271.234015 243.938851 
L 271.47248 243.938851 
L 271.47248 240.106455 
L 272.763995 240.106455 
L 272.763995 236.274059 
L 275.054908 236.274059 
L 275.144728 224.776871 
L 275.44928 224.776871 
L 275.44928 220.944475 
L 275.864145 220.944475 
L 275.883028 213.279683 
L 276.261025 213.279683 
L 276.261025 209.447287 
L 276.372777 209.447287 
L 276.43689 201.782495 
L 276.817467 201.782495 
L 276.817467 197.950099 
L 276.968108 197.950099 
L 277.064275 190.285307 
L 277.230304 190.285307 
L 277.27422 182.620515 
L 277.400107 182.620515 
L 277.400107 178.788119 
L 280.337492 178.788119 
L 280.337492 174.955723 
L 283.467979 174.955723 
L 283.467979 171.123327 
L 285.260247 171.123327 
L 285.260247 167.290931 
L 285.400647 167.290931 
L 285.400647 163.458535 
L 286.443764 163.458535 
L 286.443764 159.626139 
L 287.279275 159.626139 
L 287.279275 155.793743 
L 287.727218 155.793743 
L 287.727218 151.961347 
L 287.896482 151.961347 
L 287.896482 148.12895 
L 288.35053 148.12895 
L 288.38992 140.464158 
L 288.530279 140.464158 
L 288.530279 136.631762 
L 288.819034 136.631762 
L 288.819034 132.799366 
L 289.205446 132.799366 
L 289.205446 128.96697 
L 289.389691 128.96697 
L 289.389691 125.134574 
L 290.40475 125.134574 
L 290.40475 121.302178 
L 290.620583 121.302178 
L 290.620583 117.469782 
L 291.401332 117.469782 
L 291.401332 113.637386 
L 291.692545 113.637386 
L 291.692545 109.80499 
L 291.910575 109.80499 
L 292.004187 98.307802 
L 292.145771 98.307802 
L 292.145771 94.475406 
L 292.33321 94.475406 
L 292.33321 90.64301 
L 293.017129 90.64301 
L 293.017129 86.810614 
L 293.149257 86.810614 
L 293.149257 82.978218 
L 293.483203 82.978218 
L 293.500046 75.313426 
L 293.670193 75.313426 
L 293.670193 71.48103 
L 293.988612 71.48103 
L 293.988612 67.648634 
L 294.712926 67.648634 
L 294.712926 63.816238 
L 372.279382 63.816238 
L 372.279382 59.983842 
L 375.74339 59.983842 
L 375.74339 56.151446 
L 377.690805 56.151446 
L 377.690805 52.31905 
L 377.988037 52.31905 
L 377.988037 48.486653 
L 379.027781 48.486653 
L 379.027781 44.654257 
L 382.911474 44.654257 
L 382.911474 40.821861 
L 383.053745 40.821861 
L 383.054957 33.157069 
L 383.673432 33.157069 
L 383.673432 29.324673 
L 387.916609 29.324673 
L 387.916609 25.492277 
L 390.280845 25.492277 
L 390.280845 21.659881 
L 390.94029 21.659881 
L 390.94029 17.827485 
L 391.410675 17.827485 
L 391.410675 13.995089 
L 391.680241 13.995089 
L 391.680241 10.162693 
L 394.49067 10.162693 
L 394.49067 6.330297 
L 394.49067 6.330297 
L 460.8 6.330297 
L 460.8 6.330297 
" style="fill:none;stroke:#ff0000;stroke-linecap:square;stroke-width:3;"/>
   </g>
   <g id="line2d_22">
    <path clip-path="url(#p7e9e3f762f)" d="M 264.409727 293.76 
L 264.409727 289.927604 
L 268.338344 289.927604 
L 268.338344 286.095208 
L 268.523304 286.095208 
L 268.523304 282.262812 
L 269.866813 282.262812 
L 269.925368 274.59802 
L 270.611378 274.59802 
L 270.615927 266.933228 
L 271.083493 266.933228 
L 271.083493 263.100832 
L 271.38425 263.100832 
L 271.38425 259.268436 
L 272.234946 259.268436 
L 272.284653 251.603644 
L 272.590325 251.603644 
L 272.590325 247.771248 
L 272.763995 247.771248 
L 272.823605 240.106455 
L 275.144728 240.106455 
L 275.144728 236.274059 
L 275.698038 236.274059 
L 275.698038 232.441663 
L 277.238487 232.441663 
L 277.263303 224.776871 
L 277.571898 224.776871 
L 277.571898 220.944475 
L 277.757261 220.944475 
L 277.769125 213.279683 
L 277.957503 213.279683 
L 277.957503 209.447287 
L 278.098089 209.447287 
L 278.098089 205.614891 
L 278.277773 205.614891 
L 278.277773 201.782495 
L 278.627257 201.782495 
L 278.736163 194.117703 
L 278.97251 194.117703 
L 278.97251 190.285307 
L 279.2466 190.285307 
L 279.30736 182.620515 
L 279.521866 182.620515 
L 279.521866 178.788119 
L 283.467979 178.788119 
L 283.467979 174.955723 
L 287.896482 174.955723 
L 287.896482 171.123327 
L 288.38992 171.123327 
L 288.38992 167.290931 
L 289.205446 167.290931 
L 289.205446 163.458535 
L 289.389691 163.458535 
L 289.389691 159.626139 
L 291.139183 159.626139 
L 291.139183 155.793743 
L 291.978209 155.793743 
L 291.978209 151.961347 
L 292.334659 151.961347 
L 292.334659 148.12895 
L 292.44674 148.12895 
L 292.44674 144.296554 
L 292.6103 144.296554 
L 292.71086 132.799366 
L 293.22444 132.799366 
L 293.22444 128.96697 
L 293.500046 128.96697 
L 293.500046 125.134574 
L 293.843496 125.134574 
L 293.843496 121.302178 
L 294.297015 121.302178 
L 294.297015 117.469782 
L 294.992945 117.469782 
L 294.992945 113.637386 
L 295.363506 113.637386 
L 295.363506 109.80499 
L 295.766441 109.80499 
L 295.835793 102.140198 
L 296.063599 102.140198 
L 296.063599 98.307802 
L 296.27432 98.307802 
L 296.27432 94.475406 
L 297.17319 94.475406 
L 297.17319 90.64301 
L 298.704767 90.64301 
L 298.704767 86.810614 
L 299.144232 86.810614 
L 299.144232 82.978218 
L 300.330658 82.978218 
L 300.330658 79.145822 
L 301.780447 79.145822 
L 301.780447 75.313426 
L 301.909362 75.313426 
L 301.909362 71.48103 
L 303.002289 71.48103 
L 303.002289 67.648634 
L 303.168834 67.648634 
L 303.168834 63.816238 
L 372.279382 63.816238 
L 372.279382 59.983842 
L 375.74339 59.983842 
L 375.74339 56.151446 
L 379.027781 56.151446 
L 379.027781 52.31905 
L 382.911474 52.31905 
L 382.911474 48.486653 
L 386.325087 48.486653 
L 386.325087 44.654257 
L 389.557483 44.654257 
L 389.557483 40.821861 
L 393.330206 40.821861 
L 393.330206 36.989465 
L 394.49067 36.989465 
L 394.49067 33.157069 
L 394.690218 33.157069 
L 394.690218 29.324673 
L 395.675299 29.324673 
L 395.675299 25.492277 
L 397.430345 25.492277 
L 397.466669 17.827485 
L 398.231129 17.827485 
L 398.231129 13.995089 
L 398.393462 13.995089 
L 398.393462 10.162693 
L 403.255206 10.162693 
L 403.255206 6.330297 
L 403.255206 6.330297 
L 460.8 6.330297 
L 460.8 6.330297 
" style="fill:none;stroke:#00bfbf;stroke-linecap:square;stroke-width:1.5;"/>
   </g>
   <g id="line2d_23">
    <path clip-path="url(#p7e9e3f762f)" d="M 264.409727 293.76 
L 264.409727 289.927604 
L 266.922812 289.927604 
L 266.922812 286.095208 
L 268.048122 286.095208 
L 268.048122 282.262812 
L 268.338344 282.262812 
L 268.338344 278.430416 
L 268.523304 278.430416 
L 268.608272 270.765624 
L 269.64054 270.765624 
L 269.64054 266.933228 
L 269.866813 266.933228 
L 269.925427 255.43604 
L 270.074161 255.43604 
L 270.074161 251.603644 
L 270.74672 251.603644 
L 270.74672 247.771248 
L 271.234015 247.771248 
L 271.234015 243.938851 
L 272.284653 243.938851 
L 272.284653 240.106455 
L 272.763995 240.106455 
L 272.763995 236.274059 
L 275.054908 236.274059 
L 275.144728 228.609267 
L 275.883028 228.609267 
L 275.883028 224.776871 
L 276.372777 224.776871 
L 276.372777 220.944475 
L 276.968108 220.944475 
L 276.968108 217.112079 
L 277.172476 217.112079 
L 277.27422 197.950099 
L 277.580328 197.950099 
L 277.646717 190.285307 
L 277.960657 190.285307 
L 277.960657 186.452911 
L 278.343005 186.452911 
L 278.343005 182.620515 
L 278.494321 182.620515 
L 278.494321 178.788119 
L 280.337492 178.788119 
L 280.337492 174.955723 
L 283.467979 174.955723 
L 283.467979 171.123327 
L 285.260247 171.123327 
L 285.260247 167.290931 
L 285.400647 167.290931 
L 285.400647 163.458535 
L 286.443764 163.458535 
L 286.443764 159.626139 
L 287.896482 159.626139 
L 287.896482 155.793743 
L 288.35053 155.793743 
L 288.38992 148.12895 
L 288.530279 148.12895 
L 288.530279 144.296554 
L 288.819034 144.296554 
L 288.819034 140.464158 
L 289.205446 140.464158 
L 289.205446 136.631762 
L 289.389691 136.631762 
L 289.389691 132.799366 
L 290.422809 132.799366 
L 290.422809 128.96697 
L 290.620583 128.96697 
L 290.620583 125.134574 
L 291.692545 125.134574 
L 291.692545 121.302178 
L 292.33321 121.302178 
L 292.33321 117.469782 
L 292.609939 117.469782 
L 292.71086 109.80499 
L 293.017129 109.80499 
L 293.017129 105.972594 
L 293.149257 105.972594 
L 293.22444 98.307802 
L 293.500046 98.307802 
L 293.500046 94.475406 
L 293.670193 94.475406 
L 293.670193 90.64301 
L 293.988612 90.64301 
L 293.988612 86.810614 
L 294.26571 86.810614 
L 294.26571 82.978218 
L 294.992945 82.978218 
L 294.992945 79.145822 
L 295.766441 79.145822 
L 295.766441 75.313426 
L 295.928923 75.313426 
L 295.928923 71.48103 
L 297.235704 71.48103 
L 297.235704 67.648634 
L 301.909362 67.648634 
L 301.909362 63.816238 
L 372.279382 63.816238 
L 372.279382 59.983842 
L 375.74339 59.983842 
L 375.74339 56.151446 
L 377.690805 56.151446 
L 377.690805 52.31905 
L 379.027781 52.31905 
L 379.027781 48.486653 
L 382.911474 48.486653 
L 382.911474 44.654257 
L 383.673432 44.654257 
L 383.673432 40.821861 
L 384.381332 40.821861 
L 384.381332 36.989465 
L 386.325087 36.989465 
L 386.325087 33.157069 
L 387.916609 33.157069 
L 387.916609 29.324673 
L 390.94029 29.324673 
L 390.94029 25.492277 
L 391.410675 25.492277 
L 391.410675 21.659881 
L 393.109884 21.659881 
L 393.109884 17.827485 
L 394.49067 17.827485 
L 394.49067 13.995089 
L 395.111985 13.995089 
L 395.111985 10.162693 
L 397.914075 10.162693 
L 397.914075 6.330297 
L 397.914075 6.330297 
L 460.8 6.330297 
L 460.8 6.330297 
" style="fill:none;stroke:#bf00bf;stroke-linecap:square;stroke-width:1.5;"/>
   </g>
   <g id="patch_3">
    <path d="M 0 293.76 
L 0 3.456 
" style="fill:none;stroke:#000000;stroke-linecap:square;stroke-linejoin:miter;stroke-width:0.8;"/>
   </g>
   <g id="patch_4">
    <path d="M 460.8 293.76 
L 460.8 3.456 
" style="fill:none;stroke:#000000;stroke-linecap:square;stroke-linejoin:miter;stroke-width:0.8;"/>
   </g>
   <g id="patch_5">
    <path d="M 0 293.76 
L 460.8 293.76 
" style="fill:none;stroke:#000000;stroke-linecap:square;stroke-linejoin:miter;stroke-width:0.8;"/>
   </g>
   <g id="patch_6">
    <path d="M 0 3.456 
L 460.8 3.456 
" style="fill:none;stroke:#000000;stroke-linecap:square;stroke-linejoin:miter;stroke-width:0.8;"/>
   </g>
   <g id="text_6">
    <!-- {f1-f5}, 20-D -->
    <defs>
     <path d="M 51.125 -9.28125 
L 51.125 -16.3125 
L 48.09375 -16.3125 
Q 35.9375 -16.3125 31.8125 -12.6875 
Q 27.6875 -9.078125 27.6875 1.703125 
L 27.6875 13.375 
Q 27.6875 20.75 25.046875 23.578125 
Q 22.40625 26.421875 15.484375 26.421875 
L 12.5 26.421875 
L 12.5 33.40625 
L 15.484375 33.40625 
Q 22.46875 33.40625 25.078125 36.203125 
Q 27.6875 39.015625 27.6875 46.296875 
L 27.6875 58.015625 
Q 27.6875 68.796875 31.8125 72.390625 
Q 35.9375 75.984375 48.09375 75.984375 
L 51.125 75.984375 
L 51.125 69 
L 47.796875 69 
Q 40.921875 69 38.8125 66.84375 
Q 36.71875 64.703125 36.71875 57.8125 
L 36.71875 45.703125 
Q 36.71875 38.03125 34.5 34.5625 
Q 32.28125 31.109375 26.90625 29.890625 
Q 32.328125 28.5625 34.515625 25.09375 
Q 36.71875 21.625 36.71875 14.015625 
L 36.71875 1.90625 
Q 36.71875 -4.984375 38.8125 -7.125 
Q 40.921875 -9.28125 47.796875 -9.28125 
z
" id="DejaVuSans-123"/>
     <path d="M 10.796875 72.90625 
L 49.515625 72.90625 
L 49.515625 64.59375 
L 19.828125 64.59375 
L 19.828125 46.734375 
Q 21.96875 47.46875 24.109375 47.828125 
Q 26.265625 48.1875 28.421875 48.1875 
Q 40.625 48.1875 47.75 41.5 
Q 54.890625 34.8125 54.890625 23.390625 
Q 54.890625 11.625 47.5625 5.09375 
Q 40.234375 -1.421875 26.90625 -1.421875 
Q 22.3125 -1.421875 17.546875 -0.640625 
Q 12.796875 0.140625 7.71875 1.703125 
L 7.71875 11.625 
Q 12.109375 9.234375 16.796875 8.0625 
Q 21.484375 6.890625 26.703125 6.890625 
Q 35.15625 6.890625 40.078125 11.328125 
Q 45.015625 15.765625 45.015625 23.390625 
Q 45.015625 31 40.078125 35.4375 
Q 35.15625 39.890625 26.703125 39.890625 
Q 22.75 39.890625 18.8125 39.015625 
Q 14.890625 38.140625 10.796875 36.28125 
z
" id="DejaVuSans-53"/>
     <path d="M 12.5 -9.28125 
L 15.921875 -9.28125 
Q 22.75 -9.28125 24.828125 -7.171875 
Q 26.90625 -5.078125 26.90625 1.90625 
L 26.90625 14.015625 
Q 26.90625 21.625 29.09375 25.09375 
Q 31.296875 28.5625 36.71875 29.890625 
Q 31.296875 31.109375 29.09375 34.5625 
Q 26.90625 38.03125 26.90625 45.703125 
L 26.90625 57.8125 
Q 26.90625 64.75 24.828125 66.875 
Q 22.75 69 15.921875 69 
L 12.5 69 
L 12.5 75.984375 
L 15.578125 75.984375 
Q 27.734375 75.984375 31.8125 72.390625 
Q 35.890625 68.796875 35.890625 58.015625 
L 35.890625 46.296875 
Q 35.890625 39.015625 38.515625 36.203125 
Q 41.15625 33.40625 48.09375 33.40625 
L 51.125 33.40625 
L 51.125 26.421875 
L 48.09375 26.421875 
Q 41.15625 26.421875 38.515625 23.578125 
Q 35.890625 20.75 35.890625 13.375 
L 35.890625 1.703125 
Q 35.890625 -9.078125 31.8125 -12.6875 
Q 27.734375 -16.3125 15.578125 -16.3125 
L 12.5 -16.3125 
z
" id="DejaVuSans-125"/>
     <path d="M 11.71875 12.40625 
L 22.015625 12.40625 
L 22.015625 4 
L 14.015625 -11.625 
L 7.71875 -11.625 
L 11.71875 4 
z
" id="DejaVuSans-44"/>
     <path d="M 19.1875 8.296875 
L 53.609375 8.296875 
L 53.609375 0 
L 7.328125 0 
L 7.328125 8.296875 
Q 12.9375 14.109375 22.625 23.890625 
Q 32.328125 33.6875 34.8125 36.53125 
Q 39.546875 41.84375 41.421875 45.53125 
Q 43.3125 49.21875 43.3125 52.78125 
Q 43.3125 58.59375 39.234375 62.25 
Q 35.15625 65.921875 28.609375 65.921875 
Q 23.96875 65.921875 18.8125 64.3125 
Q 13.671875 62.703125 7.8125 59.421875 
L 7.8125 69.390625 
Q 13.765625 71.78125 18.9375 73 
Q 24.125 74.21875 28.421875 74.21875 
Q 39.75 74.21875 46.484375 68.546875 
Q 53.21875 62.890625 53.21875 53.421875 
Q 53.21875 48.921875 51.53125 44.890625 
Q 49.859375 40.875 45.40625 35.40625 
Q 44.1875 33.984375 37.640625 27.21875 
Q 31.109375 20.453125 19.1875 8.296875 
z
" id="DejaVuSans-50"/>
    </defs>
    <g transform="translate(318.609 287.95392)scale(0.2 -0.2)">
     <use xlink:href="#DejaVuSans-123"/>
     <use x="63.623047" xlink:href="#DejaVuSans-102"/>
     <use x="98.828125" xlink:href="#DejaVuSans-49"/>
     <use x="162.451172" xlink:href="#DejaVuSans-45"/>
     <use x="198.535156" xlink:href="#DejaVuSans-102"/>
     <use x="233.740234" xlink:href="#DejaVuSans-53"/>
     <use x="297.363281" xlink:href="#DejaVuSans-125"/>
     <use x="360.986328" xlink:href="#DejaVuSans-44"/>
     <use x="392.773438" xlink:href="#DejaVuSans-32"/>
     <use x="424.560547" xlink:href="#DejaVuSans-50"/>
     <use x="488.183594" xlink:href="#DejaVuSans-48"/>
     <use x="551.806641" xlink:href="#DejaVuSans-45"/>
     <use x="587.890625" xlink:href="#DejaVuSans-68"/>
    </g>
   </g>
   <g id="text_7">
    <!-- v2.4 -->
    <defs>
     <path d="M 2.984375 54.6875 
L 12.5 54.6875 
L 29.59375 8.796875 
L 46.6875 54.6875 
L 56.203125 54.6875 
L 35.6875 0 
L 23.484375 0 
z
" id="DejaVuSans-118"/>
     <path d="M 10.6875 12.40625 
L 21 12.40625 
L 21 0 
L 10.6875 0 
z
" id="DejaVuSans-46"/>
    </defs>
    <g style="fill:#808080;" transform="translate(219.489063 288.777272)scale(0.1 -0.1)">
     <use xlink:href="#DejaVuSans-118"/>
     <use x="59.179688" xlink:href="#DejaVuSans-50"/>
     <use x="122.802734" xlink:href="#DejaVuSans-46"/>
     <use x="154.589844" xlink:href="#DejaVuSans-52"/>
    </g>
   </g>
  </g>
 </g>
 <defs>
  <clipPath id="p7e9e3f762f">
   <rect height="290.304" width="460.8" x="0" y="3.456"/>
  </clipPath>
 </defs>
</svg>
