<?xml version="1.0" encoding="utf-8" standalone="no"?>
<!DOCTYPE svg PUBLIC "-//W3C//DTD SVG 1.1//EN"
  "http://www.w3.org/Graphics/SVG/1.1/DTD/svg11.dtd">
<!-- Created with matplotlib (https://matplotlib.org/) -->
<svg height="345.6pt" version="1.1" viewBox="0 0 460.8 345.6" width="460.8pt" xmlns="http://www.w3.org/2000/svg" xmlns:xlink="http://www.w3.org/1999/xlink">
 <defs>
  <style type="text/css">
*{stroke-linecap:butt;stroke-linejoin:round;}
  </style>
 </defs>
 <g id="figure_1">
  <g id="patch_1">
   <path d="M 0 345.6 
L 460.8 345.6 
L 460.8 0 
L 0 0 
z
" style="fill:#ffffff;"/>
  </g>
  <g id="axes_1">
   <g id="patch_2">
    <path d="M 0 293.76 
L 460.8 293.76 
L 460.8 3.456 
L 0 3.456 
z
" style="fill:#ffffff;"/>
   </g>
   <g id="matplotlib.axis_1">
    <g id="xtick_1">
     <g id="line2d_1">
      <path clip-path="url(#p17200b9bce)" d="M 106.361497 293.76 
L 106.361497 3.456 
" style="fill:none;stroke:#b0b0b0;stroke-linecap:square;stroke-width:0.8;"/>
     </g>
     <g id="line2d_2">
      <defs>
       <path d="M 0 0 
L 0 3.5 
" id="m2e626ea536" style="stroke:#000000;stroke-width:0.8;"/>
      </defs>
      <g>
       <use style="stroke:#000000;stroke-width:0.8;" x="106.361497" xlink:href="#m2e626ea536" y="293.76"/>
      </g>
     </g>
     <g id="text_1">
      <!-- -4 -->
      <defs>
       <path d="M 4.890625 31.390625 
L 31.203125 31.390625 
L 31.203125 23.390625 
L 4.890625 23.390625 
z
" id="DejaVuSans-45"/>
       <path d="M 37.796875 64.3125 
L 12.890625 25.390625 
L 37.796875 25.390625 
z
M 35.203125 72.90625 
L 47.609375 72.90625 
L 47.609375 25.390625 
L 58.015625 25.390625 
L 58.015625 17.1875 
L 47.609375 17.1875 
L 47.609375 0 
L 37.796875 0 
L 37.796875 17.1875 
L 4.890625 17.1875 
L 4.890625 26.703125 
z
" id="DejaVuSans-52"/>
      </defs>
      <g transform="translate(96.391185 315.956875)scale(0.2 -0.2)">
       <use xlink:href="#DejaVuSans-45"/>
       <use x="36.083984" xlink:href="#DejaVuSans-52"/>
      </g>
     </g>
    </g>
    <g id="xtick_2">
     <g id="line2d_3">
      <path clip-path="url(#p17200b9bce)" d="M 212.838025 293.76 
L 212.838025 3.456 
" style="fill:none;stroke:#b0b0b0;stroke-linecap:square;stroke-width:0.8;"/>
     </g>
     <g id="line2d_4">
      <g>
       <use style="stroke:#000000;stroke-width:0.8;" x="212.838025" xlink:href="#m2e626ea536" y="293.76"/>
      </g>
     </g>
     <g id="text_2">
      <!-- 0 -->
      <defs>
       <path d="M 31.78125 66.40625 
Q 24.171875 66.40625 20.328125 58.90625 
Q 16.5 51.421875 16.5 36.375 
Q 16.5 21.390625 20.328125 13.890625 
Q 24.171875 6.390625 31.78125 6.390625 
Q 39.453125 6.390625 43.28125 13.890625 
Q 47.125 21.390625 47.125 36.375 
Q 47.125 51.421875 43.28125 58.90625 
Q 39.453125 66.40625 31.78125 66.40625 
z
M 31.78125 74.21875 
Q 44.046875 74.21875 50.515625 64.515625 
Q 56.984375 54.828125 56.984375 36.375 
Q 56.984375 17.96875 50.515625 8.265625 
Q 44.046875 -1.421875 31.78125 -1.421875 
Q 19.53125 -1.421875 13.0625 8.265625 
Q 6.59375 17.96875 6.59375 36.375 
Q 6.59375 54.828125 13.0625 64.515625 
Q 19.53125 74.21875 31.78125 74.21875 
z
" id="DejaVuSans-48"/>
      </defs>
      <g transform="translate(206.475525 315.956875)scale(0.2 -0.2)">
       <use xlink:href="#DejaVuSans-48"/>
      </g>
     </g>
    </g>
    <g id="xtick_3">
     <g id="line2d_5">
      <path clip-path="url(#p17200b9bce)" d="M 319.314554 293.76 
L 319.314554 3.456 
" style="fill:none;stroke:#b0b0b0;stroke-linecap:square;stroke-width:0.8;"/>
     </g>
     <g id="line2d_6">
      <g>
       <use style="stroke:#000000;stroke-width:0.8;" x="319.314554" xlink:href="#m2e626ea536" y="293.76"/>
      </g>
     </g>
     <g id="text_3">
      <!-- 4 -->
      <g transform="translate(312.952054 315.956875)scale(0.2 -0.2)">
       <use xlink:href="#DejaVuSans-52"/>
      </g>
     </g>
    </g>
    <g id="xtick_4">
     <g id="line2d_7">
      <path clip-path="url(#p17200b9bce)" d="M 425.791082 293.76 
L 425.791082 3.456 
" style="fill:none;stroke:#b0b0b0;stroke-linecap:square;stroke-width:0.8;"/>
     </g>
     <g id="line2d_8">
      <g>
       <use style="stroke:#000000;stroke-width:0.8;" x="425.791082" xlink:href="#m2e626ea536" y="293.76"/>
      </g>
     </g>
     <g id="text_4">
      <!-- 8 -->
      <defs>
       <path d="M 31.78125 34.625 
Q 24.75 34.625 20.71875 30.859375 
Q 16.703125 27.09375 16.703125 20.515625 
Q 16.703125 13.921875 20.71875 10.15625 
Q 24.75 6.390625 31.78125 6.390625 
Q 38.8125 6.390625 42.859375 10.171875 
Q 46.921875 13.96875 46.921875 20.515625 
Q 46.921875 27.09375 42.890625 30.859375 
Q 38.875 34.625 31.78125 34.625 
z
M 21.921875 38.8125 
Q 15.578125 40.375 12.03125 44.71875 
Q 8.5 49.078125 8.5 55.328125 
Q 8.5 64.0625 14.71875 69.140625 
Q 20.953125 74.21875 31.78125 74.21875 
Q 42.671875 74.21875 48.875 69.140625 
Q 55.078125 64.0625 55.078125 55.328125 
Q 55.078125 49.078125 51.53125 44.71875 
Q 48 40.375 41.703125 38.8125 
Q 48.828125 37.15625 52.796875 32.3125 
Q 56.78125 27.484375 56.78125 20.515625 
Q 56.78125 9.90625 50.3125 4.234375 
Q 43.84375 -1.421875 31.78125 -1.421875 
Q 19.734375 -1.421875 13.25 4.234375 
Q 6.78125 9.90625 6.78125 20.515625 
Q 6.78125 27.484375 10.78125 32.3125 
Q 14.796875 37.15625 21.921875 38.8125 
z
M 18.3125 54.390625 
Q 18.3125 48.734375 21.84375 45.5625 
Q 25.390625 42.390625 31.78125 42.390625 
Q 38.140625 42.390625 41.71875 45.5625 
Q 45.3125 48.734375 45.3125 54.390625 
Q 45.3125 60.0625 41.71875 63.234375 
Q 38.140625 66.40625 31.78125 66.40625 
Q 25.390625 66.40625 21.84375 63.234375 
Q 18.3125 60.0625 18.3125 54.390625 
z
" id="DejaVuSans-56"/>
      </defs>
      <g transform="translate(419.428582 315.956875)scale(0.2 -0.2)">
       <use xlink:href="#DejaVuSans-56"/>
      </g>
     </g>
    </g>
    <g id="text_5">
     <!-- log10 of Df -->
     <defs>
      <path d="M 9.421875 75.984375 
L 18.40625 75.984375 
L 18.40625 0 
L 9.421875 0 
z
" id="DejaVuSans-108"/>
      <path d="M 30.609375 48.390625 
Q 23.390625 48.390625 19.1875 42.75 
Q 14.984375 37.109375 14.984375 27.296875 
Q 14.984375 17.484375 19.15625 11.84375 
Q 23.34375 6.203125 30.609375 6.203125 
Q 37.796875 6.203125 41.984375 11.859375 
Q 46.1875 17.53125 46.1875 27.296875 
Q 46.1875 37.015625 41.984375 42.703125 
Q 37.796875 48.390625 30.609375 48.390625 
z
M 30.609375 56 
Q 42.328125 56 49.015625 48.375 
Q 55.71875 40.765625 55.71875 27.296875 
Q 55.71875 13.875 49.015625 6.21875 
Q 42.328125 -1.421875 30.609375 -1.421875 
Q 18.84375 -1.421875 12.171875 6.21875 
Q 5.515625 13.875 5.515625 27.296875 
Q 5.515625 40.765625 12.171875 48.375 
Q 18.84375 56 30.609375 56 
z
" id="DejaVuSans-111"/>
      <path d="M 45.40625 27.984375 
Q 45.40625 37.75 41.375 43.109375 
Q 37.359375 48.484375 30.078125 48.484375 
Q 22.859375 48.484375 18.828125 43.109375 
Q 14.796875 37.75 14.796875 27.984375 
Q 14.796875 18.265625 18.828125 12.890625 
Q 22.859375 7.515625 30.078125 7.515625 
Q 37.359375 7.515625 41.375 12.890625 
Q 45.40625 18.265625 45.40625 27.984375 
z
M 54.390625 6.78125 
Q 54.390625 -7.171875 48.1875 -13.984375 
Q 42 -20.796875 29.203125 -20.796875 
Q 24.46875 -20.796875 20.265625 -20.09375 
Q 16.0625 -19.390625 12.109375 -17.921875 
L 12.109375 -9.1875 
Q 16.0625 -11.328125 19.921875 -12.34375 
Q 23.78125 -13.375 27.78125 -13.375 
Q 36.625 -13.375 41.015625 -8.765625 
Q 45.40625 -4.15625 45.40625 5.171875 
L 45.40625 9.625 
Q 42.625 4.78125 38.28125 2.390625 
Q 33.9375 0 27.875 0 
Q 17.828125 0 11.671875 7.65625 
Q 5.515625 15.328125 5.515625 27.984375 
Q 5.515625 40.671875 11.671875 48.328125 
Q 17.828125 56 27.875 56 
Q 33.9375 56 38.28125 53.609375 
Q 42.625 51.21875 45.40625 46.390625 
L 45.40625 54.6875 
L 54.390625 54.6875 
z
" id="DejaVuSans-103"/>
      <path d="M 12.40625 8.296875 
L 28.515625 8.296875 
L 28.515625 63.921875 
L 10.984375 60.40625 
L 10.984375 69.390625 
L 28.421875 72.90625 
L 38.28125 72.90625 
L 38.28125 8.296875 
L 54.390625 8.296875 
L 54.390625 0 
L 12.40625 0 
z
" id="DejaVuSans-49"/>
      <path id="DejaVuSans-32"/>
      <path d="M 37.109375 75.984375 
L 37.109375 68.5 
L 28.515625 68.5 
Q 23.6875 68.5 21.796875 66.546875 
Q 19.921875 64.59375 19.921875 59.515625 
L 19.921875 54.6875 
L 34.71875 54.6875 
L 34.71875 47.703125 
L 19.921875 47.703125 
L 19.921875 0 
L 10.890625 0 
L 10.890625 47.703125 
L 2.296875 47.703125 
L 2.296875 54.6875 
L 10.890625 54.6875 
L 10.890625 58.5 
Q 10.890625 67.625 15.140625 71.796875 
Q 19.390625 75.984375 28.609375 75.984375 
z
" id="DejaVuSans-102"/>
      <path d="M 19.671875 64.796875 
L 19.671875 8.109375 
L 31.59375 8.109375 
Q 46.6875 8.109375 53.6875 14.9375 
Q 60.6875 21.78125 60.6875 36.53125 
Q 60.6875 51.171875 53.6875 57.984375 
Q 46.6875 64.796875 31.59375 64.796875 
z
M 9.8125 72.90625 
L 30.078125 72.90625 
Q 51.265625 72.90625 61.171875 64.09375 
Q 71.09375 55.28125 71.09375 36.53125 
Q 71.09375 17.671875 61.125 8.828125 
Q 51.171875 0 30.078125 0 
L 9.8125 0 
z
" id="DejaVuSans-68"/>
     </defs>
     <g transform="translate(175.214063 339.313125)scale(0.2 -0.2)">
      <use xlink:href="#DejaVuSans-108"/>
      <use x="27.783203" xlink:href="#DejaVuSans-111"/>
      <use x="88.964844" xlink:href="#DejaVuSans-103"/>
      <use x="152.441406" xlink:href="#DejaVuSans-49"/>
      <use x="216.064453" xlink:href="#DejaVuSans-48"/>
      <use x="279.6875" xlink:href="#DejaVuSans-32"/>
      <use x="311.474609" xlink:href="#DejaVuSans-111"/>
      <use x="372.65625" xlink:href="#DejaVuSans-102"/>
      <use x="407.861328" xlink:href="#DejaVuSans-32"/>
      <use x="439.648438" xlink:href="#DejaVuSans-68"/>
      <use x="516.650391" xlink:href="#DejaVuSans-102"/>
     </g>
    </g>
   </g>
   <g id="matplotlib.axis_2">
    <g id="ytick_1">
     <g id="line2d_9">
      <path clip-path="url(#p17200b9bce)" d="M 0 293.76 
L 460.8 293.76 
" style="fill:none;stroke:#b0b0b0;stroke-linecap:square;stroke-width:0.8;"/>
     </g>
     <g id="line2d_10">
      <defs>
       <path d="M 0 0 
L -3.5 0 
" id="m09a4c22fa4" style="stroke:#000000;stroke-width:0.8;"/>
      </defs>
      <g>
       <use style="stroke:#000000;stroke-width:0.8;" x="0" xlink:href="#m09a4c22fa4" y="293.76"/>
      </g>
     </g>
    </g>
    <g id="ytick_2">
     <g id="line2d_11">
      <path clip-path="url(#p17200b9bce)" d="M 0 236.274059 
L 460.8 236.274059 
" style="fill:none;stroke:#b0b0b0;stroke-linecap:square;stroke-width:0.8;"/>
     </g>
     <g id="line2d_12">
      <g>
       <use style="stroke:#000000;stroke-width:0.8;" x="0" xlink:href="#m09a4c22fa4" y="236.274059"/>
      </g>
     </g>
    </g>
    <g id="ytick_3">
     <g id="line2d_13">
      <path clip-path="url(#p17200b9bce)" d="M 0 178.788119 
L 460.8 178.788119 
" style="fill:none;stroke:#b0b0b0;stroke-linecap:square;stroke-width:0.8;"/>
     </g>
     <g id="line2d_14">
      <g>
       <use style="stroke:#000000;stroke-width:0.8;" x="0" xlink:href="#m09a4c22fa4" y="178.788119"/>
      </g>
     </g>
    </g>
    <g id="ytick_4">
     <g id="line2d_15">
      <path clip-path="url(#p17200b9bce)" d="M 0 121.302178 
L 460.8 121.302178 
" style="fill:none;stroke:#b0b0b0;stroke-linecap:square;stroke-width:0.8;"/>
     </g>
     <g id="line2d_16">
      <g>
       <use style="stroke:#000000;stroke-width:0.8;" x="0" xlink:href="#m09a4c22fa4" y="121.302178"/>
      </g>
     </g>
    </g>
    <g id="ytick_5">
     <g id="line2d_17">
      <path clip-path="url(#p17200b9bce)" d="M 0 63.816238 
L 460.8 63.816238 
" style="fill:none;stroke:#b0b0b0;stroke-linecap:square;stroke-width:0.8;"/>
     </g>
     <g id="line2d_18">
      <g>
       <use style="stroke:#000000;stroke-width:0.8;" x="0" xlink:href="#m09a4c22fa4" y="63.816238"/>
      </g>
     </g>
    </g>
    <g id="ytick_6">
     <g id="line2d_19">
      <path clip-path="url(#p17200b9bce)" d="M 0 6.330297 
L 460.8 6.330297 
" style="fill:none;stroke:#b0b0b0;stroke-linecap:square;stroke-width:0.8;"/>
     </g>
     <g id="line2d_20">
      <g>
       <use style="stroke:#000000;stroke-width:0.8;" x="0" xlink:href="#m09a4c22fa4" y="6.330297"/>
      </g>
     </g>
    </g>
   </g>
   <g id="line2d_21">
    <path clip-path="url(#p17200b9bce)" d="M 226.166679 293.76 
L 226.166679 289.927604 
L 227.972401 289.927604 
L 227.972401 286.095208 
L 228.985009 286.095208 
L 228.985009 282.262812 
L 229.606759 282.262812 
L 229.606759 278.430416 
L 233.656828 278.430416 
L 233.656828 274.59802 
L 234.052954 274.59802 
L 234.07439 266.933228 
L 234.490265 266.933228 
L 234.490265 263.100832 
L 235.037454 263.100832 
L 235.037454 259.268436 
L 235.871371 259.268436 
L 235.871371 255.43604 
L 236.365501 255.43604 
L 236.365501 251.603644 
L 236.806143 251.603644 
L 236.892036 243.938851 
L 237.56589 243.938851 
L 237.56589 240.106455 
L 237.80867 240.106455 
L 237.80867 236.274059 
L 237.976265 236.274059 
L 237.976265 232.441663 
L 238.389617 232.441663 
L 238.417982 224.776871 
L 238.864085 224.776871 
L 238.864085 220.944475 
L 239.269235 220.944475 
L 239.269235 217.112079 
L 240.183849 217.112079 
L 240.183849 213.279683 
L 240.381301 213.279683 
L 240.381301 209.447287 
L 241.498108 209.447287 
L 241.498108 205.614891 
L 243.202568 205.614891 
L 243.202568 201.782495 
L 243.818472 201.782495 
L 243.818472 197.950099 
L 244.074059 197.950099 
L 244.074059 194.117703 
L 244.30586 194.117703 
L 244.30586 190.285307 
L 245.809009 190.285307 
L 245.809009 186.452911 
L 247.72072 186.452911 
L 247.72072 182.620515 
L 248.509607 182.620515 
L 248.509607 178.788119 
L 249.19322 178.788119 
L 249.19322 174.955723 
L 250.496279 174.955723 
L 250.496279 171.123327 
L 252.337695 171.123327 
L 252.428837 163.458535 
L 252.466214 163.458535 
L 252.46707 155.793743 
L 253.083765 155.793743 
L 253.146712 148.12895 
L 253.610268 148.12895 
L 253.610268 144.296554 
L 254.56087 144.296554 
L 254.56087 140.464158 
L 254.895291 140.464158 
L 254.895291 136.631762 
L 255.818163 136.631762 
L 255.818163 132.799366 
L 256.429057 132.799366 
L 256.429057 128.96697 
L 256.573642 128.96697 
L 256.573642 125.134574 
L 257.079697 125.134574 
L 257.079697 121.302178 
L 257.448671 121.302178 
L 257.448671 117.469782 
L 258.644999 117.469782 
L 258.644999 113.637386 
L 259.207184 113.637386 
L 259.207184 109.80499 
L 259.672953 109.80499 
L 259.672953 105.972594 
L 260.810396 105.972594 
L 260.810396 102.140198 
L 261.777765 102.140198 
L 261.777765 98.307802 
L 262.118242 98.307802 
L 262.118242 94.475406 
L 262.327513 94.475406 
L 262.327513 90.64301 
L 262.501702 90.64301 
L 262.501702 86.810614 
L 262.814104 86.810614 
L 262.814104 82.978218 
L 263.070728 82.978218 
L 263.070728 79.145822 
L 263.489317 79.145822 
L 263.489317 75.313426 
L 264.613183 75.313426 
L 264.613183 71.48103 
L 265.308614 71.48103 
L 265.308614 67.648634 
L 265.587899 67.648634 
L 265.587899 63.816238 
L 266.432684 63.816238 
L 266.51674 56.151446 
L 267.283192 56.151446 
L 267.283192 52.31905 
L 267.460834 52.31905 
L 267.460834 48.486653 
L 267.708254 48.486653 
L 267.803106 40.821861 
L 268.299534 40.821861 
L 268.299534 36.989465 
L 269.697177 36.989465 
L 269.697177 33.157069 
L 270.88595 33.157069 
L 270.88595 29.324673 
L 272.034158 29.324673 
L 272.143479 21.659881 
L 276.206867 21.659881 
L 276.206867 17.827485 
L 277.160281 17.827485 
L 277.160281 13.995089 
L 280.016855 13.995089 
L 280.016855 10.162693 
L 283.971735 10.162693 
L 283.971735 6.330297 
L 283.971735 6.330297 
L 460.8 6.330297 
L 460.8 6.330297 
" style="fill:none;stroke:#ff0000;stroke-linecap:square;stroke-width:3;"/>
   </g>
   <g id="line2d_22">
    <path clip-path="url(#p17200b9bce)" d="M 226.166679 293.76 
L 226.166679 289.927604 
L 231.331376 289.927604 
L 231.331376 286.095208 
L 233.656828 286.095208 
L 233.656828 282.262812 
L 234.792674 282.262812 
L 234.792674 278.430416 
L 235.393916 278.430416 
L 235.393916 274.59802 
L 236.365501 274.59802 
L 236.365501 270.765624 
L 236.585713 270.765624 
L 236.585713 266.933228 
L 236.892036 266.933228 
L 236.892036 263.100832 
L 237.589984 263.100832 
L 237.589984 259.268436 
L 237.736723 259.268436 
L 237.736723 255.43604 
L 238.510738 255.43604 
L 238.510738 251.603644 
L 239.436287 251.603644 
L 239.436287 247.771248 
L 239.768329 247.771248 
L 239.768329 243.938851 
L 240.329947 243.938851 
L 240.329947 240.106455 
L 241.198604 240.106455 
L 241.198604 236.274059 
L 241.753857 236.274059 
L 241.753857 232.441663 
L 242.424403 232.441663 
L 242.493498 224.776871 
L 243.202568 224.776871 
L 243.202568 220.944475 
L 243.818472 220.944475 
L 243.83327 213.279683 
L 244.333403 213.279683 
L 244.333403 209.447287 
L 244.594904 209.447287 
L 244.594904 205.614891 
L 245.77337 205.614891 
L 245.77337 201.782495 
L 245.963769 201.782495 
L 245.966276 194.117703 
L 247.72072 194.117703 
L 247.72072 190.285307 
L 249.871015 190.285307 
L 249.871015 186.452911 
L 252.428837 186.452911 
L 252.466214 178.788119 
L 253.146712 178.788119 
L 253.146712 174.955723 
L 253.267226 174.955723 
L 253.267226 171.123327 
L 253.405612 171.123327 
L 253.405612 167.290931 
L 253.610268 167.290931 
L 253.69608 159.626139 
L 254.56087 159.626139 
L 254.56087 155.793743 
L 256.094356 155.793743 
L 256.094356 151.961347 
L 256.810292 151.961347 
L 256.810292 148.12895 
L 258.644999 148.12895 
L 258.644999 144.296554 
L 259.495714 144.296554 
L 259.495714 140.464158 
L 259.993749 140.464158 
L 259.993749 136.631762 
L 260.533251 136.631762 
L 260.533251 132.799366 
L 261.591436 132.799366 
L 261.591436 128.96697 
L 261.777765 128.96697 
L 261.777765 125.134574 
L 262.103293 125.134574 
L 262.118242 117.469782 
L 262.501702 117.469782 
L 262.501702 113.637386 
L 262.814104 113.637386 
L 262.814104 109.80499 
L 263.070728 109.80499 
L 263.070728 105.972594 
L 265.126582 105.972594 
L 265.216846 98.307802 
L 265.587899 98.307802 
L 265.587899 94.475406 
L 265.703086 94.475406 
L 265.703086 90.64301 
L 266.105453 90.64301 
L 266.105453 86.810614 
L 267.057981 86.810614 
L 267.057981 82.978218 
L 267.171603 82.978218 
L 267.171603 79.145822 
L 267.803106 79.145822 
L 267.803106 75.313426 
L 268.000364 75.313426 
L 268.000364 71.48103 
L 268.483433 71.48103 
L 268.483433 67.648634 
L 269.190552 67.648634 
L 269.244439 59.983842 
L 269.697177 59.983842 
L 269.697177 56.151446 
L 270.354035 56.151446 
L 270.354035 52.31905 
L 270.88595 52.31905 
L 270.925417 44.654257 
L 271.40062 44.654257 
L 271.40062 40.821861 
L 272.034158 40.821861 
L 272.034158 36.989465 
L 272.329119 36.989465 
L 272.329119 33.157069 
L 273.297519 33.157069 
L 273.297519 29.324673 
L 273.604363 29.324673 
L 273.604363 25.492277 
L 273.87463 25.492277 
L 273.87463 21.659881 
L 276.3347 21.659881 
L 276.3347 17.827485 
L 277.745087 17.827485 
L 277.745087 13.995089 
L 281.528558 13.995089 
L 281.528558 10.162693 
L 292.953831 10.162693 
L 292.953831 6.330297 
L 292.953831 6.330297 
L 460.8 6.330297 
L 460.8 6.330297 
" style="fill:none;stroke:#00bfbf;stroke-linecap:square;stroke-width:1.5;"/>
   </g>
   <g id="line2d_23">
    <path clip-path="url(#p17200b9bce)" d="M 226.166679 293.76 
L 226.166679 289.927604 
L 227.972401 289.927604 
L 227.972401 286.095208 
L 229.282257 286.095208 
L 229.282257 282.262812 
L 233.656828 282.262812 
L 233.656828 278.430416 
L 234.07439 278.430416 
L 234.07439 274.59802 
L 236.365501 274.59802 
L 236.365501 270.765624 
L 236.585713 270.765624 
L 236.585713 266.933228 
L 236.806143 266.933228 
L 236.892036 259.268436 
L 237.56589 259.268436 
L 237.589984 251.603644 
L 237.80867 251.603644 
L 237.80867 247.771248 
L 237.976265 247.771248 
L 237.976265 243.938851 
L 238.389617 243.938851 
L 238.417982 236.274059 
L 240.183849 236.274059 
L 240.183849 232.441663 
L 240.329947 232.441663 
L 240.381301 224.776871 
L 241.198604 224.776871 
L 241.198604 220.944475 
L 241.753857 220.944475 
L 241.753857 217.112079 
L 242.305312 217.112079 
L 242.305312 213.279683 
L 242.424403 213.279683 
L 242.424403 209.447287 
L 243.202568 209.447287 
L 243.202568 205.614891 
L 243.818472 205.614891 
L 243.818472 201.782495 
L 244.074059 201.782495 
L 244.074059 197.950099 
L 244.365837 197.950099 
L 244.414446 190.285307 
L 245.809009 190.285307 
L 245.809009 186.452911 
L 247.72072 186.452911 
L 247.72072 182.620515 
L 252.337695 182.620515 
L 252.428837 174.955723 
L 252.466214 174.955723 
L 252.466214 171.123327 
L 253.146712 171.123327 
L 253.146712 167.290931 
L 253.267226 167.290931 
L 253.33308 159.626139 
L 253.610268 159.626139 
L 253.610268 155.793743 
L 254.56087 155.793743 
L 254.56087 151.961347 
L 254.895291 151.961347 
L 254.895291 148.12895 
L 255.471074 148.12895 
L 255.471074 144.296554 
L 255.929628 144.296554 
L 255.929628 140.464158 
L 256.429057 140.464158 
L 256.429057 136.631762 
L 257.079697 136.631762 
L 257.079697 132.799366 
L 257.448671 132.799366 
L 257.448671 128.96697 
L 257.644043 128.96697 
L 257.644043 125.134574 
L 258.644999 125.134574 
L 258.644999 121.302178 
L 259.672953 121.302178 
L 259.672953 117.469782 
L 260.810396 117.469782 
L 260.810396 113.637386 
L 261.777765 113.637386 
L 261.777765 109.80499 
L 262.118242 109.80499 
L 262.118242 105.972594 
L 262.501702 105.972594 
L 262.60919 98.307802 
L 262.814104 98.307802 
L 262.866088 90.64301 
L 263.070728 90.64301 
L 263.070728 86.810614 
L 263.489317 86.810614 
L 263.489317 82.978218 
L 265.308614 82.978218 
L 265.308614 79.145822 
L 265.587899 79.145822 
L 265.587899 75.313426 
L 265.703086 75.313426 
L 265.703086 71.48103 
L 266.105453 71.48103 
L 266.105453 67.648634 
L 266.432684 67.648634 
L 266.432684 63.816238 
L 266.80245 63.816238 
L 266.80245 59.983842 
L 267.460834 59.983842 
L 267.460834 56.151446 
L 267.803106 56.151446 
L 267.803106 52.31905 
L 268.483433 52.31905 
L 268.483433 48.486653 
L 269.697177 48.486653 
L 269.743542 40.821861 
L 269.816865 40.821861 
L 269.816865 36.989465 
L 270.88595 36.989465 
L 270.88595 33.157069 
L 271.40062 33.157069 
L 271.40062 29.324673 
L 272.034158 29.324673 
L 272.034158 25.492277 
L 273.604363 25.492277 
L 273.604363 21.659881 
L 276.206867 21.659881 
L 276.206867 17.827485 
L 277.160281 17.827485 
L 277.160281 13.995089 
L 280.016855 13.995089 
L 280.016855 10.162693 
L 283.971735 10.162693 
L 283.971735 6.330297 
L 283.971735 6.330297 
L 460.8 6.330297 
L 460.8 6.330297 
" style="fill:none;stroke:#bf00bf;stroke-linecap:square;stroke-width:1.5;"/>
   </g>
   <g id="patch_3">
    <path d="M 0 293.76 
L 0 3.456 
" style="fill:none;stroke:#000000;stroke-linecap:square;stroke-linejoin:miter;stroke-width:0.8;"/>
   </g>
   <g id="patch_4">
    <path d="M 460.8 293.76 
L 460.8 3.456 
" style="fill:none;stroke:#000000;stroke-linecap:square;stroke-linejoin:miter;stroke-width:0.8;"/>
   </g>
   <g id="patch_5">
    <path d="M 0 293.76 
L 460.8 293.76 
" style="fill:none;stroke:#000000;stroke-linecap:square;stroke-linejoin:miter;stroke-width:0.8;"/>
   </g>
   <g id="patch_6">
    <path d="M 0 3.456 
L 460.8 3.456 
" style="fill:none;stroke:#000000;stroke-linecap:square;stroke-linejoin:miter;stroke-width:0.8;"/>
   </g>
   <g id="text_6">
    <!-- {f15-f19}, 5-D -->
    <defs>
     <path d="M 51.125 -9.28125 
L 51.125 -16.3125 
L 48.09375 -16.3125 
Q 35.9375 -16.3125 31.8125 -12.6875 
Q 27.6875 -9.078125 27.6875 1.703125 
L 27.6875 13.375 
Q 27.6875 20.75 25.046875 23.578125 
Q 22.40625 26.421875 15.484375 26.421875 
L 12.5 26.421875 
L 12.5 33.40625 
L 15.484375 33.40625 
Q 22.46875 33.40625 25.078125 36.203125 
Q 27.6875 39.015625 27.6875 46.296875 
L 27.6875 58.015625 
Q 27.6875 68.796875 31.8125 72.390625 
Q 35.9375 75.984375 48.09375 75.984375 
L 51.125 75.984375 
L 51.125 69 
L 47.796875 69 
Q 40.921875 69 38.8125 66.84375 
Q 36.71875 64.703125 36.71875 57.8125 
L 36.71875 45.703125 
Q 36.71875 38.03125 34.5 34.5625 
Q 32.28125 31.109375 26.90625 29.890625 
Q 32.328125 28.5625 34.515625 25.09375 
Q 36.71875 21.625 36.71875 14.015625 
L 36.71875 1.90625 
Q 36.71875 -4.984375 38.8125 -7.125 
Q 40.921875 -9.28125 47.796875 -9.28125 
z
" id="DejaVuSans-123"/>
     <path d="M 10.796875 72.90625 
L 49.515625 72.90625 
L 49.515625 64.59375 
L 19.828125 64.59375 
L 19.828125 46.734375 
Q 21.96875 47.46875 24.109375 47.828125 
Q 26.265625 48.1875 28.421875 48.1875 
Q 40.625 48.1875 47.75 41.5 
Q 54.890625 34.8125 54.890625 23.390625 
Q 54.890625 11.625 47.5625 5.09375 
Q 40.234375 -1.421875 26.90625 -1.421875 
Q 22.3125 -1.421875 17.546875 -0.640625 
Q 12.796875 0.140625 7.71875 1.703125 
L 7.71875 11.625 
Q 12.109375 9.234375 16.796875 8.0625 
Q 21.484375 6.890625 26.703125 6.890625 
Q 35.15625 6.890625 40.078125 11.328125 
Q 45.015625 15.765625 45.015625 23.390625 
Q 45.015625 31 40.078125 35.4375 
Q 35.15625 39.890625 26.703125 39.890625 
Q 22.75 39.890625 18.8125 39.015625 
Q 14.890625 38.140625 10.796875 36.28125 
z
" id="DejaVuSans-53"/>
     <path d="M 10.984375 1.515625 
L 10.984375 10.5 
Q 14.703125 8.734375 18.5 7.8125 
Q 22.3125 6.890625 25.984375 6.890625 
Q 35.75 6.890625 40.890625 13.453125 
Q 46.046875 20.015625 46.78125 33.40625 
Q 43.953125 29.203125 39.59375 26.953125 
Q 35.25 24.703125 29.984375 24.703125 
Q 19.046875 24.703125 12.671875 31.3125 
Q 6.296875 37.9375 6.296875 49.421875 
Q 6.296875 60.640625 12.9375 67.421875 
Q 19.578125 74.21875 30.609375 74.21875 
Q 43.265625 74.21875 49.921875 64.515625 
Q 56.59375 54.828125 56.59375 36.375 
Q 56.59375 19.140625 48.40625 8.859375 
Q 40.234375 -1.421875 26.421875 -1.421875 
Q 22.703125 -1.421875 18.890625 -0.6875 
Q 15.09375 0.046875 10.984375 1.515625 
z
M 30.609375 32.421875 
Q 37.25 32.421875 41.125 36.953125 
Q 45.015625 41.5 45.015625 49.421875 
Q 45.015625 57.28125 41.125 61.84375 
Q 37.25 66.40625 30.609375 66.40625 
Q 23.96875 66.40625 20.09375 61.84375 
Q 16.21875 57.28125 16.21875 49.421875 
Q 16.21875 41.5 20.09375 36.953125 
Q 23.96875 32.421875 30.609375 32.421875 
z
" id="DejaVuSans-57"/>
     <path d="M 12.5 -9.28125 
L 15.921875 -9.28125 
Q 22.75 -9.28125 24.828125 -7.171875 
Q 26.90625 -5.078125 26.90625 1.90625 
L 26.90625 14.015625 
Q 26.90625 21.625 29.09375 25.09375 
Q 31.296875 28.5625 36.71875 29.890625 
Q 31.296875 31.109375 29.09375 34.5625 
Q 26.90625 38.03125 26.90625 45.703125 
L 26.90625 57.8125 
Q 26.90625 64.75 24.828125 66.875 
Q 22.75 69 15.921875 69 
L 12.5 69 
L 12.5 75.984375 
L 15.578125 75.984375 
Q 27.734375 75.984375 31.8125 72.390625 
Q 35.890625 68.796875 35.890625 58.015625 
L 35.890625 46.296875 
Q 35.890625 39.015625 38.515625 36.203125 
Q 41.15625 33.40625 48.09375 33.40625 
L 51.125 33.40625 
L 51.125 26.421875 
L 48.09375 26.421875 
Q 41.15625 26.421875 38.515625 23.578125 
Q 35.890625 20.75 35.890625 13.375 
L 35.890625 1.703125 
Q 35.890625 -9.078125 31.8125 -12.6875 
Q 27.734375 -16.3125 15.578125 -16.3125 
L 12.5 -16.3125 
z
" id="DejaVuSans-125"/>
     <path d="M 11.71875 12.40625 
L 22.015625 12.40625 
L 22.015625 4 
L 14.015625 -11.625 
L 7.71875 -11.625 
L 11.71875 4 
z
" id="DejaVuSans-44"/>
    </defs>
    <g transform="translate(305.884 287.95392)scale(0.2 -0.2)">
     <use xlink:href="#DejaVuSans-123"/>
     <use x="63.623047" xlink:href="#DejaVuSans-102"/>
     <use x="98.828125" xlink:href="#DejaVuSans-49"/>
     <use x="162.451172" xlink:href="#DejaVuSans-53"/>
     <use x="226.074219" xlink:href="#DejaVuSans-45"/>
     <use x="262.158203" xlink:href="#DejaVuSans-102"/>
     <use x="297.363281" xlink:href="#DejaVuSans-49"/>
     <use x="360.986328" xlink:href="#DejaVuSans-57"/>
     <use x="424.609375" xlink:href="#DejaVuSans-125"/>
     <use x="488.232422" xlink:href="#DejaVuSans-44"/>
     <use x="520.019531" xlink:href="#DejaVuSans-32"/>
     <use x="551.806641" xlink:href="#DejaVuSans-53"/>
     <use x="615.429688" xlink:href="#DejaVuSans-45"/>
     <use x="651.513672" xlink:href="#DejaVuSans-68"/>
    </g>
   </g>
   <g id="text_7">
    <!-- v2.4 -->
    <defs>
     <path d="M 2.984375 54.6875 
L 12.5 54.6875 
L 29.59375 8.796875 
L 46.6875 54.6875 
L 56.203125 54.6875 
L 35.6875 0 
L 23.484375 0 
z
" id="DejaVuSans-118"/>
     <path d="M 19.1875 8.296875 
L 53.609375 8.296875 
L 53.609375 0 
L 7.328125 0 
L 7.328125 8.296875 
Q 12.9375 14.109375 22.625 23.890625 
Q 32.328125 33.6875 34.8125 36.53125 
Q 39.546875 41.84375 41.421875 45.53125 
Q 43.3125 49.21875 43.3125 52.78125 
Q 43.3125 58.59375 39.234375 62.25 
Q 35.15625 65.921875 28.609375 65.921875 
Q 23.96875 65.921875 18.8125 64.3125 
Q 13.671875 62.703125 7.8125 59.421875 
L 7.8125 69.390625 
Q 13.765625 71.78125 18.9375 73 
Q 24.125 74.21875 28.421875 74.21875 
Q 39.75 74.21875 46.484375 68.546875 
Q 53.21875 62.890625 53.21875 53.421875 
Q 53.21875 48.921875 51.53125 44.890625 
Q 49.859375 40.875 45.40625 35.40625 
Q 44.1875 33.984375 37.640625 27.21875 
Q 31.109375 20.453125 19.1875 8.296875 
z
" id="DejaVuSans-50"/>
     <path d="M 10.6875 12.40625 
L 21 12.40625 
L 21 0 
L 10.6875 0 
z
" id="DejaVuSans-46"/>
    </defs>
    <g style="fill:#808080;" transform="translate(219.489063 288.777272)scale(0.1 -0.1)">
     <use xlink:href="#DejaVuSans-118"/>
     <use x="59.179688" xlink:href="#DejaVuSans-50"/>
     <use x="122.802734" xlink:href="#DejaVuSans-46"/>
     <use x="154.589844" xlink:href="#DejaVuSans-52"/>
    </g>
   </g>
  </g>
 </g>
 <defs>
  <clipPath id="p17200b9bce">
   <rect height="290.304" width="460.8" x="0" y="3.456"/>
  </clipPath>
 </defs>
</svg>
