<?xml version="1.0" encoding="utf-8" standalone="no"?>
<!DOCTYPE svg PUBLIC "-//W3C//DTD SVG 1.1//EN"
  "http://www.w3.org/Graphics/SVG/1.1/DTD/svg11.dtd">
<!-- Created with matplotlib (https://matplotlib.org/) -->
<svg height="345.6pt" version="1.1" viewBox="0 0 460.8 345.6" width="460.8pt" xmlns="http://www.w3.org/2000/svg" xmlns:xlink="http://www.w3.org/1999/xlink">
 <defs>
  <style type="text/css">
*{stroke-linecap:butt;stroke-linejoin:round;}
  </style>
 </defs>
 <g id="figure_1">
  <g id="patch_1">
   <path d="M 0 345.6 
L 460.8 345.6 
L 460.8 0 
L 0 0 
z
" style="fill:#ffffff;"/>
  </g>
  <g id="axes_1">
   <g id="patch_2">
    <path d="M 0 293.76 
L 460.8 293.76 
L 460.8 3.456 
L 0 3.456 
z
" style="fill:#ffffff;"/>
   </g>
   <g id="matplotlib.axis_1">
    <g id="xtick_1">
     <g id="line2d_1">
      <path clip-path="url(#p97aabe209b)" d="M 108.437912 293.76 
L 108.437912 3.456 
" style="fill:none;stroke:#b0b0b0;stroke-linecap:square;stroke-width:0.8;"/>
     </g>
     <g id="line2d_2">
      <defs>
       <path d="M 0 0 
L 0 3.5 
" id="med6e4d7692" style="stroke:#000000;stroke-width:0.8;"/>
      </defs>
      <g>
       <use style="stroke:#000000;stroke-width:0.8;" x="108.437912" xlink:href="#med6e4d7692" y="293.76"/>
      </g>
     </g>
     <g id="text_1">
      <!-- -4 -->
      <defs>
       <path d="M 4.890625 31.390625 
L 31.203125 31.390625 
L 31.203125 23.390625 
L 4.890625 23.390625 
z
" id="DejaVuSans-45"/>
       <path d="M 37.796875 64.3125 
L 12.890625 25.390625 
L 37.796875 25.390625 
z
M 35.203125 72.90625 
L 47.609375 72.90625 
L 47.609375 25.390625 
L 58.015625 25.390625 
L 58.015625 17.1875 
L 47.609375 17.1875 
L 47.609375 0 
L 37.796875 0 
L 37.796875 17.1875 
L 4.890625 17.1875 
L 4.890625 26.703125 
z
" id="DejaVuSans-52"/>
      </defs>
      <g transform="translate(98.467599 315.956875)scale(0.2 -0.2)">
       <use xlink:href="#DejaVuSans-45"/>
       <use x="36.083984" xlink:href="#DejaVuSans-52"/>
      </g>
     </g>
    </g>
    <g id="xtick_2">
     <g id="line2d_3">
      <path clip-path="url(#p97aabe209b)" d="M 216.993101 293.76 
L 216.993101 3.456 
" style="fill:none;stroke:#b0b0b0;stroke-linecap:square;stroke-width:0.8;"/>
     </g>
     <g id="line2d_4">
      <g>
       <use style="stroke:#000000;stroke-width:0.8;" x="216.993101" xlink:href="#med6e4d7692" y="293.76"/>
      </g>
     </g>
     <g id="text_2">
      <!-- 0 -->
      <defs>
       <path d="M 31.78125 66.40625 
Q 24.171875 66.40625 20.328125 58.90625 
Q 16.5 51.421875 16.5 36.375 
Q 16.5 21.390625 20.328125 13.890625 
Q 24.171875 6.390625 31.78125 6.390625 
Q 39.453125 6.390625 43.28125 13.890625 
Q 47.125 21.390625 47.125 36.375 
Q 47.125 51.421875 43.28125 58.90625 
Q 39.453125 66.40625 31.78125 66.40625 
z
M 31.78125 74.21875 
Q 44.046875 74.21875 50.515625 64.515625 
Q 56.984375 54.828125 56.984375 36.375 
Q 56.984375 17.96875 50.515625 8.265625 
Q 44.046875 -1.421875 31.78125 -1.421875 
Q 19.53125 -1.421875 13.0625 8.265625 
Q 6.59375 17.96875 6.59375 36.375 
Q 6.59375 54.828125 13.0625 64.515625 
Q 19.53125 74.21875 31.78125 74.21875 
z
" id="DejaVuSans-48"/>
      </defs>
      <g transform="translate(210.630601 315.956875)scale(0.2 -0.2)">
       <use xlink:href="#DejaVuSans-48"/>
      </g>
     </g>
    </g>
    <g id="xtick_3">
     <g id="line2d_5">
      <path clip-path="url(#p97aabe209b)" d="M 325.548289 293.76 
L 325.548289 3.456 
" style="fill:none;stroke:#b0b0b0;stroke-linecap:square;stroke-width:0.8;"/>
     </g>
     <g id="line2d_6">
      <g>
       <use style="stroke:#000000;stroke-width:0.8;" x="325.548289" xlink:href="#med6e4d7692" y="293.76"/>
      </g>
     </g>
     <g id="text_3">
      <!-- 4 -->
      <g transform="translate(319.185789 315.956875)scale(0.2 -0.2)">
       <use xlink:href="#DejaVuSans-52"/>
      </g>
     </g>
    </g>
    <g id="xtick_4">
     <g id="line2d_7">
      <path clip-path="url(#p97aabe209b)" d="M 434.103478 293.76 
L 434.103478 3.456 
" style="fill:none;stroke:#b0b0b0;stroke-linecap:square;stroke-width:0.8;"/>
     </g>
     <g id="line2d_8">
      <g>
       <use style="stroke:#000000;stroke-width:0.8;" x="434.103478" xlink:href="#med6e4d7692" y="293.76"/>
      </g>
     </g>
     <g id="text_4">
      <!-- 8 -->
      <defs>
       <path d="M 31.78125 34.625 
Q 24.75 34.625 20.71875 30.859375 
Q 16.703125 27.09375 16.703125 20.515625 
Q 16.703125 13.921875 20.71875 10.15625 
Q 24.75 6.390625 31.78125 6.390625 
Q 38.8125 6.390625 42.859375 10.171875 
Q 46.921875 13.96875 46.921875 20.515625 
Q 46.921875 27.09375 42.890625 30.859375 
Q 38.875 34.625 31.78125 34.625 
z
M 21.921875 38.8125 
Q 15.578125 40.375 12.03125 44.71875 
Q 8.5 49.078125 8.5 55.328125 
Q 8.5 64.0625 14.71875 69.140625 
Q 20.953125 74.21875 31.78125 74.21875 
Q 42.671875 74.21875 48.875 69.140625 
Q 55.078125 64.0625 55.078125 55.328125 
Q 55.078125 49.078125 51.53125 44.71875 
Q 48 40.375 41.703125 38.8125 
Q 48.828125 37.15625 52.796875 32.3125 
Q 56.78125 27.484375 56.78125 20.515625 
Q 56.78125 9.90625 50.3125 4.234375 
Q 43.84375 -1.421875 31.78125 -1.421875 
Q 19.734375 -1.421875 13.25 4.234375 
Q 6.78125 9.90625 6.78125 20.515625 
Q 6.78125 27.484375 10.78125 32.3125 
Q 14.796875 37.15625 21.921875 38.8125 
z
M 18.3125 54.390625 
Q 18.3125 48.734375 21.84375 45.5625 
Q 25.390625 42.390625 31.78125 42.390625 
Q 38.140625 42.390625 41.71875 45.5625 
Q 45.3125 48.734375 45.3125 54.390625 
Q 45.3125 60.0625 41.71875 63.234375 
Q 38.140625 66.40625 31.78125 66.40625 
Q 25.390625 66.40625 21.84375 63.234375 
Q 18.3125 60.0625 18.3125 54.390625 
z
" id="DejaVuSans-56"/>
      </defs>
      <g transform="translate(427.740978 315.956875)scale(0.2 -0.2)">
       <use xlink:href="#DejaVuSans-56"/>
      </g>
     </g>
    </g>
    <g id="text_5">
     <!-- log10 of Df -->
     <defs>
      <path d="M 9.421875 75.984375 
L 18.40625 75.984375 
L 18.40625 0 
L 9.421875 0 
z
" id="DejaVuSans-108"/>
      <path d="M 30.609375 48.390625 
Q 23.390625 48.390625 19.1875 42.75 
Q 14.984375 37.109375 14.984375 27.296875 
Q 14.984375 17.484375 19.15625 11.84375 
Q 23.34375 6.203125 30.609375 6.203125 
Q 37.796875 6.203125 41.984375 11.859375 
Q 46.1875 17.53125 46.1875 27.296875 
Q 46.1875 37.015625 41.984375 42.703125 
Q 37.796875 48.390625 30.609375 48.390625 
z
M 30.609375 56 
Q 42.328125 56 49.015625 48.375 
Q 55.71875 40.765625 55.71875 27.296875 
Q 55.71875 13.875 49.015625 6.21875 
Q 42.328125 -1.421875 30.609375 -1.421875 
Q 18.84375 -1.421875 12.171875 6.21875 
Q 5.515625 13.875 5.515625 27.296875 
Q 5.515625 40.765625 12.171875 48.375 
Q 18.84375 56 30.609375 56 
z
" id="DejaVuSans-111"/>
      <path d="M 45.40625 27.984375 
Q 45.40625 37.75 41.375 43.109375 
Q 37.359375 48.484375 30.078125 48.484375 
Q 22.859375 48.484375 18.828125 43.109375 
Q 14.796875 37.75 14.796875 27.984375 
Q 14.796875 18.265625 18.828125 12.890625 
Q 22.859375 7.515625 30.078125 7.515625 
Q 37.359375 7.515625 41.375 12.890625 
Q 45.40625 18.265625 45.40625 27.984375 
z
M 54.390625 6.78125 
Q 54.390625 -7.171875 48.1875 -13.984375 
Q 42 -20.796875 29.203125 -20.796875 
Q 24.46875 -20.796875 20.265625 -20.09375 
Q 16.0625 -19.390625 12.109375 -17.921875 
L 12.109375 -9.1875 
Q 16.0625 -11.328125 19.921875 -12.34375 
Q 23.78125 -13.375 27.78125 -13.375 
Q 36.625 -13.375 41.015625 -8.765625 
Q 45.40625 -4.15625 45.40625 5.171875 
L 45.40625 9.625 
Q 42.625 4.78125 38.28125 2.390625 
Q 33.9375 0 27.875 0 
Q 17.828125 0 11.671875 7.65625 
Q 5.515625 15.328125 5.515625 27.984375 
Q 5.515625 40.671875 11.671875 48.328125 
Q 17.828125 56 27.875 56 
Q 33.9375 56 38.28125 53.609375 
Q 42.625 51.21875 45.40625 46.390625 
L 45.40625 54.6875 
L 54.390625 54.6875 
z
" id="DejaVuSans-103"/>
      <path d="M 12.40625 8.296875 
L 28.515625 8.296875 
L 28.515625 63.921875 
L 10.984375 60.40625 
L 10.984375 69.390625 
L 28.421875 72.90625 
L 38.28125 72.90625 
L 38.28125 8.296875 
L 54.390625 8.296875 
L 54.390625 0 
L 12.40625 0 
z
" id="DejaVuSans-49"/>
      <path id="DejaVuSans-32"/>
      <path d="M 37.109375 75.984375 
L 37.109375 68.5 
L 28.515625 68.5 
Q 23.6875 68.5 21.796875 66.546875 
Q 19.921875 64.59375 19.921875 59.515625 
L 19.921875 54.6875 
L 34.71875 54.6875 
L 34.71875 47.703125 
L 19.921875 47.703125 
L 19.921875 0 
L 10.890625 0 
L 10.890625 47.703125 
L 2.296875 47.703125 
L 2.296875 54.6875 
L 10.890625 54.6875 
L 10.890625 58.5 
Q 10.890625 67.625 15.140625 71.796875 
Q 19.390625 75.984375 28.609375 75.984375 
z
" id="DejaVuSans-102"/>
      <path d="M 19.671875 64.796875 
L 19.671875 8.109375 
L 31.59375 8.109375 
Q 46.6875 8.109375 53.6875 14.9375 
Q 60.6875 21.78125 60.6875 36.53125 
Q 60.6875 51.171875 53.6875 57.984375 
Q 46.6875 64.796875 31.59375 64.796875 
z
M 9.8125 72.90625 
L 30.078125 72.90625 
Q 51.265625 72.90625 61.171875 64.09375 
Q 71.09375 55.28125 71.09375 36.53125 
Q 71.09375 17.671875 61.125 8.828125 
Q 51.171875 0 30.078125 0 
L 9.8125 0 
z
" id="DejaVuSans-68"/>
     </defs>
     <g transform="translate(175.214063 339.313125)scale(0.2 -0.2)">
      <use xlink:href="#DejaVuSans-108"/>
      <use x="27.783203" xlink:href="#DejaVuSans-111"/>
      <use x="88.964844" xlink:href="#DejaVuSans-103"/>
      <use x="152.441406" xlink:href="#DejaVuSans-49"/>
      <use x="216.064453" xlink:href="#DejaVuSans-48"/>
      <use x="279.6875" xlink:href="#DejaVuSans-32"/>
      <use x="311.474609" xlink:href="#DejaVuSans-111"/>
      <use x="372.65625" xlink:href="#DejaVuSans-102"/>
      <use x="407.861328" xlink:href="#DejaVuSans-32"/>
      <use x="439.648438" xlink:href="#DejaVuSans-68"/>
      <use x="516.650391" xlink:href="#DejaVuSans-102"/>
     </g>
    </g>
   </g>
   <g id="matplotlib.axis_2">
    <g id="ytick_1">
     <g id="line2d_9">
      <path clip-path="url(#p97aabe209b)" d="M 0 293.76 
L 460.8 293.76 
" style="fill:none;stroke:#b0b0b0;stroke-linecap:square;stroke-width:0.8;"/>
     </g>
     <g id="line2d_10">
      <defs>
       <path d="M 0 0 
L -3.5 0 
" id="m114aa94e38" style="stroke:#000000;stroke-width:0.8;"/>
      </defs>
      <g>
       <use style="stroke:#000000;stroke-width:0.8;" x="0" xlink:href="#m114aa94e38" y="293.76"/>
      </g>
     </g>
    </g>
    <g id="ytick_2">
     <g id="line2d_11">
      <path clip-path="url(#p97aabe209b)" d="M 0 236.274059 
L 460.8 236.274059 
" style="fill:none;stroke:#b0b0b0;stroke-linecap:square;stroke-width:0.8;"/>
     </g>
     <g id="line2d_12">
      <g>
       <use style="stroke:#000000;stroke-width:0.8;" x="0" xlink:href="#m114aa94e38" y="236.274059"/>
      </g>
     </g>
    </g>
    <g id="ytick_3">
     <g id="line2d_13">
      <path clip-path="url(#p97aabe209b)" d="M 0 178.788119 
L 460.8 178.788119 
" style="fill:none;stroke:#b0b0b0;stroke-linecap:square;stroke-width:0.8;"/>
     </g>
     <g id="line2d_14">
      <g>
       <use style="stroke:#000000;stroke-width:0.8;" x="0" xlink:href="#m114aa94e38" y="178.788119"/>
      </g>
     </g>
    </g>
    <g id="ytick_4">
     <g id="line2d_15">
      <path clip-path="url(#p97aabe209b)" d="M 0 121.302178 
L 460.8 121.302178 
" style="fill:none;stroke:#b0b0b0;stroke-linecap:square;stroke-width:0.8;"/>
     </g>
     <g id="line2d_16">
      <g>
       <use style="stroke:#000000;stroke-width:0.8;" x="0" xlink:href="#m114aa94e38" y="121.302178"/>
      </g>
     </g>
    </g>
    <g id="ytick_5">
     <g id="line2d_17">
      <path clip-path="url(#p97aabe209b)" d="M 0 63.816238 
L 460.8 63.816238 
" style="fill:none;stroke:#b0b0b0;stroke-linecap:square;stroke-width:0.8;"/>
     </g>
     <g id="line2d_18">
      <g>
       <use style="stroke:#000000;stroke-width:0.8;" x="0" xlink:href="#m114aa94e38" y="63.816238"/>
      </g>
     </g>
    </g>
    <g id="ytick_6">
     <g id="line2d_19">
      <path clip-path="url(#p97aabe209b)" d="M 0 6.330297 
L 460.8 6.330297 
" style="fill:none;stroke:#b0b0b0;stroke-linecap:square;stroke-width:0.8;"/>
     </g>
     <g id="line2d_20">
      <g>
       <use style="stroke:#000000;stroke-width:0.8;" x="0" xlink:href="#m114aa94e38" y="6.330297"/>
      </g>
     </g>
    </g>
   </g>
   <g id="line2d_21">
    <path clip-path="url(#p97aabe209b)" d="M 243.570218 293.76 
L 243.570218 289.927604 
L 245.032016 289.927604 
L 245.032016 286.095208 
L 245.971288 286.095208 
L 245.971288 282.262812 
L 248.136281 282.262812 
L 248.136281 278.430416 
L 249.755238 278.430416 
L 249.755238 274.59802 
L 251.134753 274.59802 
L 251.134753 270.765624 
L 251.283067 270.765624 
L 251.283067 266.933228 
L 251.886226 266.933228 
L 251.886226 263.100832 
L 253.513225 263.100832 
L 253.513225 259.268436 
L 254.196126 259.268436 
L 254.196126 255.43604 
L 255.539736 255.43604 
L 255.539736 251.603644 
L 256.866416 251.603644 
L 256.866416 247.771248 
L 259.219353 247.771248 
L 259.219353 243.938851 
L 259.389364 243.938851 
L 259.389364 240.106455 
L 260.333265 240.106455 
L 260.333265 236.274059 
L 260.937755 236.274059 
L 260.937755 232.441663 
L 261.258987 232.441663 
L 261.258987 228.609267 
L 261.732531 228.609267 
L 261.732531 224.776871 
L 262.782782 224.776871 
L 262.782782 220.944475 
L 262.921388 220.944475 
L 262.921388 217.112079 
L 264.058801 217.112079 
L 264.058801 213.279683 
L 265.13775 213.279683 
L 265.13775 209.447287 
L 265.281132 209.447287 
L 265.293978 201.782495 
L 265.678491 201.782495 
L 265.70235 194.117703 
L 266.191015 194.117703 
L 266.191015 190.285307 
L 266.628963 190.285307 
L 266.628963 186.452911 
L 266.860109 186.452911 
L 266.860109 182.620515 
L 267.510792 182.620515 
L 267.510792 178.788119 
L 268.251544 178.788119 
L 268.251544 174.955723 
L 268.98797 174.955723 
L 268.98797 171.123327 
L 269.494698 171.123327 
L 269.494698 167.290931 
L 269.735777 167.290931 
L 269.787804 159.626139 
L 270.317054 159.626139 
L 270.324656 151.961347 
L 271.220767 151.961347 
L 271.220767 148.12895 
L 271.584034 148.12895 
L 271.584034 144.296554 
L 271.722787 144.296554 
L 271.722787 140.464158 
L 272.590455 140.464158 
L 272.590455 136.631762 
L 273.964879 136.631762 
L 274.047766 128.96697 
L 274.081193 128.96697 
L 274.081193 125.134574 
L 274.194562 125.134574 
L 274.194562 121.302178 
L 274.416868 121.302178 
L 274.416868 117.469782 
L 275.008595 117.469782 
L 275.008595 113.637386 
L 275.929409 113.637386 
L 275.929409 109.80499 
L 276.680999 109.80499 
L 276.71182 102.140198 
L 277.257924 102.140198 
L 277.257924 98.307802 
L 277.734872 98.307802 
L 277.734872 94.475406 
L 279.504894 94.475406 
L 279.504894 90.64301 
L 279.775932 90.64301 
L 279.775932 86.810614 
L 280.456137 86.810614 
L 280.456137 82.978218 
L 281.030896 82.978218 
L 281.030896 79.145822 
L 281.277566 79.145822 
L 281.277566 75.313426 
L 282.662944 75.313426 
L 282.662944 71.48103 
L 285.526937 71.48103 
L 285.526937 67.648634 
L 286.212055 67.648634 
L 286.212055 63.816238 
L 338.199621 63.816238 
L 338.199621 59.983842 
L 351.695598 59.983842 
L 351.695598 56.151446 
L 353.602481 56.151446 
L 353.602481 52.31905 
L 358.224008 52.31905 
L 358.224008 48.486653 
L 359.248269 48.486653 
L 359.248269 44.654257 
L 360.157493 44.654257 
L 360.157493 40.821861 
L 362.895517 40.821861 
L 362.895517 36.989465 
L 363.203814 36.989465 
L 363.203814 33.157069 
L 363.782688 33.157069 
L 363.812602 25.492277 
L 375.826681 25.492277 
L 375.826681 21.659881 
L 375.991083 21.659881 
L 375.991083 17.827485 
L 377.025631 17.827485 
L 377.025631 13.995089 
L 380.73443 13.995089 
L 380.73443 10.162693 
L 388.691747 10.162693 
L 388.691747 6.330297 
L 388.691747 6.330297 
L 460.8 6.330297 
L 460.8 6.330297 
" style="fill:none;stroke:#ff0000;stroke-linecap:square;stroke-width:3;"/>
   </g>
   <g id="line2d_22">
    <path clip-path="url(#p97aabe209b)" d="M 246.933775 293.76 
L 246.933775 289.927604 
L 249.755238 289.927604 
L 249.755238 286.095208 
L 251.283067 286.095208 
L 251.283067 282.262812 
L 255.347502 282.262812 
L 255.347502 278.430416 
L 257.447649 278.430416 
L 257.447649 274.59802 
L 260.798505 274.59802 
L 260.798505 270.765624 
L 260.937755 270.765624 
L 260.937755 266.933228 
L 261.732531 266.933228 
L 261.732531 263.100832 
L 262.056738 263.100832 
L 262.099343 255.43604 
L 262.258967 255.43604 
L 262.258967 251.603644 
L 263.636639 251.603644 
L 263.636639 247.771248 
L 265.678491 247.771248 
L 265.678491 243.938851 
L 266.860109 243.938851 
L 266.860109 240.106455 
L 267.010352 240.106455 
L 267.010352 236.274059 
L 267.13757 236.274059 
L 267.166952 228.609267 
L 267.753072 228.609267 
L 267.753072 224.776871 
L 268.433766 224.776871 
L 268.433766 220.944475 
L 269.229449 220.944475 
L 269.229449 217.112079 
L 269.787804 217.112079 
L 269.787804 213.279683 
L 270.198038 213.279683 
L 270.198038 209.447287 
L 270.393164 209.447287 
L 270.393164 205.614891 
L 270.700546 205.614891 
L 270.700546 201.782495 
L 270.962417 201.782495 
L 270.962417 197.950099 
L 271.308954 197.950099 
L 271.308954 194.117703 
L 271.733933 194.117703 
L 271.733933 190.285307 
L 272.970006 190.285307 
L 272.970006 186.452911 
L 273.092594 186.452911 
L 273.092594 182.620515 
L 274.103901 182.620515 
L 274.194562 174.955723 
L 275.054926 174.955723 
L 275.054926 171.123327 
L 276.507996 171.123327 
L 276.507996 167.290931 
L 276.749547 167.290931 
L 276.749547 163.458535 
L 277.209769 163.458535 
L 277.209769 159.626139 
L 277.559286 159.626139 
L 277.559286 155.793743 
L 277.74638 155.793743 
L 277.74638 151.961347 
L 278.751289 151.961347 
L 278.751289 148.12895 
L 279.504894 148.12895 
L 279.504894 144.296554 
L 279.775932 144.296554 
L 279.775932 140.464158 
L 281.030896 140.464158 
L 281.030896 136.631762 
L 283.652601 136.631762 
L 283.652601 132.799366 
L 283.847447 132.799366 
L 283.847447 128.96697 
L 284.2656 128.96697 
L 284.2656 125.134574 
L 284.864941 125.134574 
L 284.916151 113.637386 
L 286.212055 113.637386 
L 286.212055 109.80499 
L 286.82736 109.80499 
L 286.82736 105.972594 
L 287.331985 105.972594 
L 287.331985 102.140198 
L 289.90651 102.140198 
L 289.90651 98.307802 
L 291.290801 98.307802 
L 291.290801 94.475406 
L 292.494975 94.475406 
L 292.494975 90.64301 
L 293.760621 90.64301 
L 293.823589 82.978218 
L 295.433437 82.978218 
L 295.433437 79.145822 
L 295.753577 79.145822 
L 295.753577 75.313426 
L 297.1321 75.313426 
L 297.1321 71.48103 
L 308.337108 71.48103 
L 308.337108 67.648634 
L 321.23311 67.648634 
L 321.23311 63.816238 
L 351.695598 63.816238 
L 351.695598 59.983842 
L 363.203814 59.983842 
L 363.203814 56.151446 
L 372.059128 56.151446 
L 372.059128 52.31905 
L 374.939598 52.31905 
L 374.939598 48.486653 
L 375.826681 48.486653 
L 375.826681 44.654257 
L 377.025631 44.654257 
L 377.025631 40.821861 
L 387.789417 40.821861 
L 387.789417 36.989465 
L 388.024797 36.989465 
L 388.024797 33.157069 
L 388.262383 33.157069 
L 388.262383 29.324673 
L 392.41181 29.324673 
L 392.41181 25.492277 
L 399.827768 25.492277 
L 399.827768 21.659881 
L 404.927262 21.659881 
L 404.927262 17.827485 
L 409.102265 17.827485 
L 409.102265 13.995089 
L 415.303484 13.995089 
L 415.303484 10.162693 
L 416.475596 10.162693 
L 416.475596 6.330297 
L 416.475596 6.330297 
L 460.8 6.330297 
L 460.8 6.330297 
" style="fill:none;stroke:#00bfbf;stroke-linecap:square;stroke-width:1.5;"/>
   </g>
   <g id="line2d_23">
    <path clip-path="url(#p97aabe209b)" d="M 245.103177 293.76 
L 245.103177 289.927604 
L 246.933775 289.927604 
L 246.933775 286.095208 
L 248.605024 286.095208 
L 248.605024 282.262812 
L 249.755238 282.262812 
L 249.755238 278.430416 
L 251.283067 278.430416 
L 251.283067 274.59802 
L 253.513225 274.59802 
L 253.513225 270.765624 
L 254.196126 270.765624 
L 254.196126 266.933228 
L 255.347502 266.933228 
L 255.347502 263.100832 
L 255.539736 263.100832 
L 255.539736 259.268436 
L 257.043679 259.268436 
L 257.043679 255.43604 
L 259.389364 255.43604 
L 259.389364 251.603644 
L 260.798505 251.603644 
L 260.798505 247.771248 
L 260.937755 247.771248 
L 260.937755 243.938851 
L 261.732531 243.938851 
L 261.732531 240.106455 
L 262.056738 240.106455 
L 262.056738 236.274059 
L 262.258967 236.274059 
L 262.258967 232.441663 
L 262.782782 232.441663 
L 262.782782 228.609267 
L 264.058801 228.609267 
L 264.058801 224.776871 
L 265.281132 224.776871 
L 265.281132 220.944475 
L 265.678491 220.944475 
L 265.678491 217.112079 
L 266.191015 217.112079 
L 266.191015 213.279683 
L 266.628963 213.279683 
L 266.628963 209.447287 
L 266.821886 209.447287 
L 266.860109 201.782495 
L 267.750178 201.782495 
L 267.750178 197.950099 
L 268.623746 197.950099 
L 268.623746 194.117703 
L 269.494698 194.117703 
L 269.494698 190.285307 
L 269.787804 190.285307 
L 269.787804 186.452911 
L 270.317054 186.452911 
L 270.317054 182.620515 
L 270.700546 182.620515 
L 270.700546 178.788119 
L 271.220767 178.788119 
L 271.220767 174.955723 
L 271.44731 174.955723 
L 271.44731 171.123327 
L 271.584034 171.123327 
L 271.584034 167.290931 
L 271.722787 167.290931 
L 271.7852 159.626139 
L 272.590455 159.626139 
L 272.590455 155.793743 
L 273.654579 155.793743 
L 273.654579 151.961347 
L 273.964879 151.961347 
L 274.047766 144.296554 
L 274.081193 144.296554 
L 274.081193 140.464158 
L 274.194562 140.464158 
L 274.194562 136.631762 
L 274.416868 136.631762 
L 274.416868 132.799366 
L 275.008595 132.799366 
L 275.008595 128.96697 
L 276.43645 128.96697 
L 276.43645 125.134574 
L 276.953835 125.134574 
L 276.953835 121.302178 
L 277.257924 121.302178 
L 277.257924 117.469782 
L 277.559286 117.469782 
L 277.559286 113.637386 
L 279.504894 113.637386 
L 279.504894 109.80499 
L 279.775932 109.80499 
L 279.775932 105.972594 
L 280.704656 105.972594 
L 280.704656 102.140198 
L 281.030896 102.140198 
L 281.030896 98.307802 
L 282.368867 98.307802 
L 282.368867 94.475406 
L 283.47971 94.475406 
L 283.47971 90.64301 
L 284.864941 90.64301 
L 284.916151 79.145822 
L 285.526937 79.145822 
L 285.526937 75.313426 
L 286.212055 75.313426 
L 286.212055 71.48103 
L 288.221991 71.48103 
L 288.221991 67.648634 
L 293.790648 67.648634 
L 293.790648 63.816238 
L 351.695598 63.816238 
L 351.695598 59.983842 
L 353.602481 59.983842 
L 353.602481 56.151446 
L 358.224008 56.151446 
L 358.224008 52.31905 
L 359.248269 52.31905 
L 359.248269 48.486653 
L 362.895517 48.486653 
L 362.895517 44.654257 
L 363.203814 44.654257 
L 363.203814 40.821861 
L 374.939598 40.821861 
L 374.939598 36.989465 
L 375.692295 36.989465 
L 375.692295 33.157069 
L 375.826681 33.157069 
L 375.826681 29.324673 
L 375.991083 29.324673 
L 376.062643 21.659881 
L 377.025631 21.659881 
L 377.025631 17.827485 
L 383.957732 17.827485 
L 383.957732 13.995089 
L 387.789417 13.995089 
L 387.789417 10.162693 
L 399.827768 10.162693 
L 399.827768 6.330297 
L 399.827768 6.330297 
L 460.8 6.330297 
L 460.8 6.330297 
" style="fill:none;stroke:#bf00bf;stroke-linecap:square;stroke-width:1.5;"/>
   </g>
   <g id="patch_3">
    <path d="M 0 293.76 
L 0 3.456 
" style="fill:none;stroke:#000000;stroke-linecap:square;stroke-linejoin:miter;stroke-width:0.8;"/>
   </g>
   <g id="patch_4">
    <path d="M 460.8 293.76 
L 460.8 3.456 
" style="fill:none;stroke:#000000;stroke-linecap:square;stroke-linejoin:miter;stroke-width:0.8;"/>
   </g>
   <g id="patch_5">
    <path d="M 0 293.76 
L 460.8 293.76 
" style="fill:none;stroke:#000000;stroke-linecap:square;stroke-linejoin:miter;stroke-width:0.8;"/>
   </g>
   <g id="patch_6">
    <path d="M 0 3.456 
L 460.8 3.456 
" style="fill:none;stroke:#000000;stroke-linecap:square;stroke-linejoin:miter;stroke-width:0.8;"/>
   </g>
   <g id="text_6">
    <!-- {f1-f5}, 5-D -->
    <defs>
     <path d="M 51.125 -9.28125 
L 51.125 -16.3125 
L 48.09375 -16.3125 
Q 35.9375 -16.3125 31.8125 -12.6875 
Q 27.6875 -9.078125 27.6875 1.703125 
L 27.6875 13.375 
Q 27.6875 20.75 25.046875 23.578125 
Q 22.40625 26.421875 15.484375 26.421875 
L 12.5 26.421875 
L 12.5 33.40625 
L 15.484375 33.40625 
Q 22.46875 33.40625 25.078125 36.203125 
Q 27.6875 39.015625 27.6875 46.296875 
L 27.6875 58.015625 
Q 27.6875 68.796875 31.8125 72.390625 
Q 35.9375 75.984375 48.09375 75.984375 
L 51.125 75.984375 
L 51.125 69 
L 47.796875 69 
Q 40.921875 69 38.8125 66.84375 
Q 36.71875 64.703125 36.71875 57.8125 
L 36.71875 45.703125 
Q 36.71875 38.03125 34.5 34.5625 
Q 32.28125 31.109375 26.90625 29.890625 
Q 32.328125 28.5625 34.515625 25.09375 
Q 36.71875 21.625 36.71875 14.015625 
L 36.71875 1.90625 
Q 36.71875 -4.984375 38.8125 -7.125 
Q 40.921875 -9.28125 47.796875 -9.28125 
z
" id="DejaVuSans-123"/>
     <path d="M 10.796875 72.90625 
L 49.515625 72.90625 
L 49.515625 64.59375 
L 19.828125 64.59375 
L 19.828125 46.734375 
Q 21.96875 47.46875 24.109375 47.828125 
Q 26.265625 48.1875 28.421875 48.1875 
Q 40.625 48.1875 47.75 41.5 
Q 54.890625 34.8125 54.890625 23.390625 
Q 54.890625 11.625 47.5625 5.09375 
Q 40.234375 -1.421875 26.90625 -1.421875 
Q 22.3125 -1.421875 17.546875 -0.640625 
Q 12.796875 0.140625 7.71875 1.703125 
L 7.71875 11.625 
Q 12.109375 9.234375 16.796875 8.0625 
Q 21.484375 6.890625 26.703125 6.890625 
Q 35.15625 6.890625 40.078125 11.328125 
Q 45.015625 15.765625 45.015625 23.390625 
Q 45.015625 31 40.078125 35.4375 
Q 35.15625 39.890625 26.703125 39.890625 
Q 22.75 39.890625 18.8125 39.015625 
Q 14.890625 38.140625 10.796875 36.28125 
z
" id="DejaVuSans-53"/>
     <path d="M 12.5 -9.28125 
L 15.921875 -9.28125 
Q 22.75 -9.28125 24.828125 -7.171875 
Q 26.90625 -5.078125 26.90625 1.90625 
L 26.90625 14.015625 
Q 26.90625 21.625 29.09375 25.09375 
Q 31.296875 28.5625 36.71875 29.890625 
Q 31.296875 31.109375 29.09375 34.5625 
Q 26.90625 38.03125 26.90625 45.703125 
L 26.90625 57.8125 
Q 26.90625 64.75 24.828125 66.875 
Q 22.75 69 15.921875 69 
L 12.5 69 
L 12.5 75.984375 
L 15.578125 75.984375 
Q 27.734375 75.984375 31.8125 72.390625 
Q 35.890625 68.796875 35.890625 58.015625 
L 35.890625 46.296875 
Q 35.890625 39.015625 38.515625 36.203125 
Q 41.15625 33.40625 48.09375 33.40625 
L 51.125 33.40625 
L 51.125 26.421875 
L 48.09375 26.421875 
Q 41.15625 26.421875 38.515625 23.578125 
Q 35.890625 20.75 35.890625 13.375 
L 35.890625 1.703125 
Q 35.890625 -9.078125 31.8125 -12.6875 
Q 27.734375 -16.3125 15.578125 -16.3125 
L 12.5 -16.3125 
z
" id="DejaVuSans-125"/>
     <path d="M 11.71875 12.40625 
L 22.015625 12.40625 
L 22.015625 4 
L 14.015625 -11.625 
L 7.71875 -11.625 
L 11.71875 4 
z
" id="DejaVuSans-44"/>
    </defs>
    <g transform="translate(331.334 287.95392)scale(0.2 -0.2)">
     <use xlink:href="#DejaVuSans-123"/>
     <use x="63.623047" xlink:href="#DejaVuSans-102"/>
     <use x="98.828125" xlink:href="#DejaVuSans-49"/>
     <use x="162.451172" xlink:href="#DejaVuSans-45"/>
     <use x="198.535156" xlink:href="#DejaVuSans-102"/>
     <use x="233.740234" xlink:href="#DejaVuSans-53"/>
     <use x="297.363281" xlink:href="#DejaVuSans-125"/>
     <use x="360.986328" xlink:href="#DejaVuSans-44"/>
     <use x="392.773438" xlink:href="#DejaVuSans-32"/>
     <use x="424.560547" xlink:href="#DejaVuSans-53"/>
     <use x="488.183594" xlink:href="#DejaVuSans-45"/>
     <use x="524.267578" xlink:href="#DejaVuSans-68"/>
    </g>
   </g>
   <g id="text_7">
    <!-- v2.4 -->
    <defs>
     <path d="M 2.984375 54.6875 
L 12.5 54.6875 
L 29.59375 8.796875 
L 46.6875 54.6875 
L 56.203125 54.6875 
L 35.6875 0 
L 23.484375 0 
z
" id="DejaVuSans-118"/>
     <path d="M 19.1875 8.296875 
L 53.609375 8.296875 
L 53.609375 0 
L 7.328125 0 
L 7.328125 8.296875 
Q 12.9375 14.109375 22.625 23.890625 
Q 32.328125 33.6875 34.8125 36.53125 
Q 39.546875 41.84375 41.421875 45.53125 
Q 43.3125 49.21875 43.3125 52.78125 
Q 43.3125 58.59375 39.234375 62.25 
Q 35.15625 65.921875 28.609375 65.921875 
Q 23.96875 65.921875 18.8125 64.3125 
Q 13.671875 62.703125 7.8125 59.421875 
L 7.8125 69.390625 
Q 13.765625 71.78125 18.9375 73 
Q 24.125 74.21875 28.421875 74.21875 
Q 39.75 74.21875 46.484375 68.546875 
Q 53.21875 62.890625 53.21875 53.421875 
Q 53.21875 48.921875 51.53125 44.890625 
Q 49.859375 40.875 45.40625 35.40625 
Q 44.1875 33.984375 37.640625 27.21875 
Q 31.109375 20.453125 19.1875 8.296875 
z
" id="DejaVuSans-50"/>
     <path d="M 10.6875 12.40625 
L 21 12.40625 
L 21 0 
L 10.6875 0 
z
" id="DejaVuSans-46"/>
    </defs>
    <g style="fill:#808080;" transform="translate(219.489063 288.777272)scale(0.1 -0.1)">
     <use xlink:href="#DejaVuSans-118"/>
     <use x="59.179688" xlink:href="#DejaVuSans-50"/>
     <use x="122.802734" xlink:href="#DejaVuSans-46"/>
     <use x="154.589844" xlink:href="#DejaVuSans-52"/>
    </g>
   </g>
  </g>
 </g>
 <defs>
  <clipPath id="p97aabe209b">
   <rect height="290.304" width="460.8" x="0" y="3.456"/>
  </clipPath>
 </defs>
</svg>
