<?xml version="1.0" encoding="utf-8" standalone="no"?>
<!DOCTYPE svg PUBLIC "-//W3C//DTD SVG 1.1//EN"
  "http://www.w3.org/Graphics/SVG/1.1/DTD/svg11.dtd">
<!-- Created with matplotlib (https://matplotlib.org/) -->
<svg height="345.6pt" version="1.1" viewBox="0 0 460.8 345.6" width="460.8pt" xmlns="http://www.w3.org/2000/svg" xmlns:xlink="http://www.w3.org/1999/xlink">
 <defs>
  <style type="text/css">
*{stroke-linecap:butt;stroke-linejoin:round;}
  </style>
 </defs>
 <g id="figure_1">
  <g id="patch_1">
   <path d="M 0 345.6 
L 460.8 345.6 
L 460.8 0 
L 0 0 
z
" style="fill:#ffffff;"/>
  </g>
  <g id="axes_1">
   <g id="patch_2">
    <path d="M 0 293.76 
L 460.8 293.76 
L 460.8 3.456 
L 0 3.456 
z
" style="fill:#ffffff;"/>
   </g>
   <g id="matplotlib.axis_1">
    <g id="xtick_1">
     <g id="line2d_1">
      <path clip-path="url(#p9351aad4e9)" d="M 108.437912 293.76 
L 108.437912 3.456 
" style="fill:none;stroke:#b0b0b0;stroke-linecap:square;stroke-width:0.8;"/>
     </g>
     <g id="line2d_2">
      <defs>
       <path d="M 0 0 
L 0 3.5 
" id="m3c9fb83232" style="stroke:#000000;stroke-width:0.8;"/>
      </defs>
      <g>
       <use style="stroke:#000000;stroke-width:0.8;" x="108.437912" xlink:href="#m3c9fb83232" y="293.76"/>
      </g>
     </g>
     <g id="text_1">
      <!-- -4 -->
      <defs>
       <path d="M 4.890625 31.390625 
L 31.203125 31.390625 
L 31.203125 23.390625 
L 4.890625 23.390625 
z
" id="DejaVuSans-45"/>
       <path d="M 37.796875 64.3125 
L 12.890625 25.390625 
L 37.796875 25.390625 
z
M 35.203125 72.90625 
L 47.609375 72.90625 
L 47.609375 25.390625 
L 58.015625 25.390625 
L 58.015625 17.1875 
L 47.609375 17.1875 
L 47.609375 0 
L 37.796875 0 
L 37.796875 17.1875 
L 4.890625 17.1875 
L 4.890625 26.703125 
z
" id="DejaVuSans-52"/>
      </defs>
      <g transform="translate(98.467599 315.956875)scale(0.2 -0.2)">
       <use xlink:href="#DejaVuSans-45"/>
       <use x="36.083984" xlink:href="#DejaVuSans-52"/>
      </g>
     </g>
    </g>
    <g id="xtick_2">
     <g id="line2d_3">
      <path clip-path="url(#p9351aad4e9)" d="M 216.993101 293.76 
L 216.993101 3.456 
" style="fill:none;stroke:#b0b0b0;stroke-linecap:square;stroke-width:0.8;"/>
     </g>
     <g id="line2d_4">
      <g>
       <use style="stroke:#000000;stroke-width:0.8;" x="216.993101" xlink:href="#m3c9fb83232" y="293.76"/>
      </g>
     </g>
     <g id="text_2">
      <!-- 0 -->
      <defs>
       <path d="M 31.78125 66.40625 
Q 24.171875 66.40625 20.328125 58.90625 
Q 16.5 51.421875 16.5 36.375 
Q 16.5 21.390625 20.328125 13.890625 
Q 24.171875 6.390625 31.78125 6.390625 
Q 39.453125 6.390625 43.28125 13.890625 
Q 47.125 21.390625 47.125 36.375 
Q 47.125 51.421875 43.28125 58.90625 
Q 39.453125 66.40625 31.78125 66.40625 
z
M 31.78125 74.21875 
Q 44.046875 74.21875 50.515625 64.515625 
Q 56.984375 54.828125 56.984375 36.375 
Q 56.984375 17.96875 50.515625 8.265625 
Q 44.046875 -1.421875 31.78125 -1.421875 
Q 19.53125 -1.421875 13.0625 8.265625 
Q 6.59375 17.96875 6.59375 36.375 
Q 6.59375 54.828125 13.0625 64.515625 
Q 19.53125 74.21875 31.78125 74.21875 
z
" id="DejaVuSans-48"/>
      </defs>
      <g transform="translate(210.630601 315.956875)scale(0.2 -0.2)">
       <use xlink:href="#DejaVuSans-48"/>
      </g>
     </g>
    </g>
    <g id="xtick_3">
     <g id="line2d_5">
      <path clip-path="url(#p9351aad4e9)" d="M 325.548289 293.76 
L 325.548289 3.456 
" style="fill:none;stroke:#b0b0b0;stroke-linecap:square;stroke-width:0.8;"/>
     </g>
     <g id="line2d_6">
      <g>
       <use style="stroke:#000000;stroke-width:0.8;" x="325.548289" xlink:href="#m3c9fb83232" y="293.76"/>
      </g>
     </g>
     <g id="text_3">
      <!-- 4 -->
      <g transform="translate(319.185789 315.956875)scale(0.2 -0.2)">
       <use xlink:href="#DejaVuSans-52"/>
      </g>
     </g>
    </g>
    <g id="xtick_4">
     <g id="line2d_7">
      <path clip-path="url(#p9351aad4e9)" d="M 434.103478 293.76 
L 434.103478 3.456 
" style="fill:none;stroke:#b0b0b0;stroke-linecap:square;stroke-width:0.8;"/>
     </g>
     <g id="line2d_8">
      <g>
       <use style="stroke:#000000;stroke-width:0.8;" x="434.103478" xlink:href="#m3c9fb83232" y="293.76"/>
      </g>
     </g>
     <g id="text_4">
      <!-- 8 -->
      <defs>
       <path d="M 31.78125 34.625 
Q 24.75 34.625 20.71875 30.859375 
Q 16.703125 27.09375 16.703125 20.515625 
Q 16.703125 13.921875 20.71875 10.15625 
Q 24.75 6.390625 31.78125 6.390625 
Q 38.8125 6.390625 42.859375 10.171875 
Q 46.921875 13.96875 46.921875 20.515625 
Q 46.921875 27.09375 42.890625 30.859375 
Q 38.875 34.625 31.78125 34.625 
z
M 21.921875 38.8125 
Q 15.578125 40.375 12.03125 44.71875 
Q 8.5 49.078125 8.5 55.328125 
Q 8.5 64.0625 14.71875 69.140625 
Q 20.953125 74.21875 31.78125 74.21875 
Q 42.671875 74.21875 48.875 69.140625 
Q 55.078125 64.0625 55.078125 55.328125 
Q 55.078125 49.078125 51.53125 44.71875 
Q 48 40.375 41.703125 38.8125 
Q 48.828125 37.15625 52.796875 32.3125 
Q 56.78125 27.484375 56.78125 20.515625 
Q 56.78125 9.90625 50.3125 4.234375 
Q 43.84375 -1.421875 31.78125 -1.421875 
Q 19.734375 -1.421875 13.25 4.234375 
Q 6.78125 9.90625 6.78125 20.515625 
Q 6.78125 27.484375 10.78125 32.3125 
Q 14.796875 37.15625 21.921875 38.8125 
z
M 18.3125 54.390625 
Q 18.3125 48.734375 21.84375 45.5625 
Q 25.390625 42.390625 31.78125 42.390625 
Q 38.140625 42.390625 41.71875 45.5625 
Q 45.3125 48.734375 45.3125 54.390625 
Q 45.3125 60.0625 41.71875 63.234375 
Q 38.140625 66.40625 31.78125 66.40625 
Q 25.390625 66.40625 21.84375 63.234375 
Q 18.3125 60.0625 18.3125 54.390625 
z
" id="DejaVuSans-56"/>
      </defs>
      <g transform="translate(427.740978 315.956875)scale(0.2 -0.2)">
       <use xlink:href="#DejaVuSans-56"/>
      </g>
     </g>
    </g>
    <g id="text_5">
     <!-- log10 of Df -->
     <defs>
      <path d="M 9.421875 75.984375 
L 18.40625 75.984375 
L 18.40625 0 
L 9.421875 0 
z
" id="DejaVuSans-108"/>
      <path d="M 30.609375 48.390625 
Q 23.390625 48.390625 19.1875 42.75 
Q 14.984375 37.109375 14.984375 27.296875 
Q 14.984375 17.484375 19.15625 11.84375 
Q 23.34375 6.203125 30.609375 6.203125 
Q 37.796875 6.203125 41.984375 11.859375 
Q 46.1875 17.53125 46.1875 27.296875 
Q 46.1875 37.015625 41.984375 42.703125 
Q 37.796875 48.390625 30.609375 48.390625 
z
M 30.609375 56 
Q 42.328125 56 49.015625 48.375 
Q 55.71875 40.765625 55.71875 27.296875 
Q 55.71875 13.875 49.015625 6.21875 
Q 42.328125 -1.421875 30.609375 -1.421875 
Q 18.84375 -1.421875 12.171875 6.21875 
Q 5.515625 13.875 5.515625 27.296875 
Q 5.515625 40.765625 12.171875 48.375 
Q 18.84375 56 30.609375 56 
z
" id="DejaVuSans-111"/>
      <path d="M 45.40625 27.984375 
Q 45.40625 37.75 41.375 43.109375 
Q 37.359375 48.484375 30.078125 48.484375 
Q 22.859375 48.484375 18.828125 43.109375 
Q 14.796875 37.75 14.796875 27.984375 
Q 14.796875 18.265625 18.828125 12.890625 
Q 22.859375 7.515625 30.078125 7.515625 
Q 37.359375 7.515625 41.375 12.890625 
Q 45.40625 18.265625 45.40625 27.984375 
z
M 54.390625 6.78125 
Q 54.390625 -7.171875 48.1875 -13.984375 
Q 42 -20.796875 29.203125 -20.796875 
Q 24.46875 -20.796875 20.265625 -20.09375 
Q 16.0625 -19.390625 12.109375 -17.921875 
L 12.109375 -9.1875 
Q 16.0625 -11.328125 19.921875 -12.34375 
Q 23.78125 -13.375 27.78125 -13.375 
Q 36.625 -13.375 41.015625 -8.765625 
Q 45.40625 -4.15625 45.40625 5.171875 
L 45.40625 9.625 
Q 42.625 4.78125 38.28125 2.390625 
Q 33.9375 0 27.875 0 
Q 17.828125 0 11.671875 7.65625 
Q 5.515625 15.328125 5.515625 27.984375 
Q 5.515625 40.671875 11.671875 48.328125 
Q 17.828125 56 27.875 56 
Q 33.9375 56 38.28125 53.609375 
Q 42.625 51.21875 45.40625 46.390625 
L 45.40625 54.6875 
L 54.390625 54.6875 
z
" id="DejaVuSans-103"/>
      <path d="M 12.40625 8.296875 
L 28.515625 8.296875 
L 28.515625 63.921875 
L 10.984375 60.40625 
L 10.984375 69.390625 
L 28.421875 72.90625 
L 38.28125 72.90625 
L 38.28125 8.296875 
L 54.390625 8.296875 
L 54.390625 0 
L 12.40625 0 
z
" id="DejaVuSans-49"/>
      <path id="DejaVuSans-32"/>
      <path d="M 37.109375 75.984375 
L 37.109375 68.5 
L 28.515625 68.5 
Q 23.6875 68.5 21.796875 66.546875 
Q 19.921875 64.59375 19.921875 59.515625 
L 19.921875 54.6875 
L 34.71875 54.6875 
L 34.71875 47.703125 
L 19.921875 47.703125 
L 19.921875 0 
L 10.890625 0 
L 10.890625 47.703125 
L 2.296875 47.703125 
L 2.296875 54.6875 
L 10.890625 54.6875 
L 10.890625 58.5 
Q 10.890625 67.625 15.140625 71.796875 
Q 19.390625 75.984375 28.609375 75.984375 
z
" id="DejaVuSans-102"/>
      <path d="M 19.671875 64.796875 
L 19.671875 8.109375 
L 31.59375 8.109375 
Q 46.6875 8.109375 53.6875 14.9375 
Q 60.6875 21.78125 60.6875 36.53125 
Q 60.6875 51.171875 53.6875 57.984375 
Q 46.6875 64.796875 31.59375 64.796875 
z
M 9.8125 72.90625 
L 30.078125 72.90625 
Q 51.265625 72.90625 61.171875 64.09375 
Q 71.09375 55.28125 71.09375 36.53125 
Q 71.09375 17.671875 61.125 8.828125 
Q 51.171875 0 30.078125 0 
L 9.8125 0 
z
" id="DejaVuSans-68"/>
     </defs>
     <g transform="translate(175.214063 339.313125)scale(0.2 -0.2)">
      <use xlink:href="#DejaVuSans-108"/>
      <use x="27.783203" xlink:href="#DejaVuSans-111"/>
      <use x="88.964844" xlink:href="#DejaVuSans-103"/>
      <use x="152.441406" xlink:href="#DejaVuSans-49"/>
      <use x="216.064453" xlink:href="#DejaVuSans-48"/>
      <use x="279.6875" xlink:href="#DejaVuSans-32"/>
      <use x="311.474609" xlink:href="#DejaVuSans-111"/>
      <use x="372.65625" xlink:href="#DejaVuSans-102"/>
      <use x="407.861328" xlink:href="#DejaVuSans-32"/>
      <use x="439.648438" xlink:href="#DejaVuSans-68"/>
      <use x="516.650391" xlink:href="#DejaVuSans-102"/>
     </g>
    </g>
   </g>
   <g id="matplotlib.axis_2">
    <g id="ytick_1">
     <g id="line2d_9">
      <path clip-path="url(#p9351aad4e9)" d="M 0 293.76 
L 460.8 293.76 
" style="fill:none;stroke:#b0b0b0;stroke-linecap:square;stroke-width:0.8;"/>
     </g>
     <g id="line2d_10">
      <defs>
       <path d="M 0 0 
L -3.5 0 
" id="m5229a630c4" style="stroke:#000000;stroke-width:0.8;"/>
      </defs>
      <g>
       <use style="stroke:#000000;stroke-width:0.8;" x="0" xlink:href="#m5229a630c4" y="293.76"/>
      </g>
     </g>
    </g>
    <g id="ytick_2">
     <g id="line2d_11">
      <path clip-path="url(#p9351aad4e9)" d="M 0 236.274059 
L 460.8 236.274059 
" style="fill:none;stroke:#b0b0b0;stroke-linecap:square;stroke-width:0.8;"/>
     </g>
     <g id="line2d_12">
      <g>
       <use style="stroke:#000000;stroke-width:0.8;" x="0" xlink:href="#m5229a630c4" y="236.274059"/>
      </g>
     </g>
    </g>
    <g id="ytick_3">
     <g id="line2d_13">
      <path clip-path="url(#p9351aad4e9)" d="M 0 178.788119 
L 460.8 178.788119 
" style="fill:none;stroke:#b0b0b0;stroke-linecap:square;stroke-width:0.8;"/>
     </g>
     <g id="line2d_14">
      <g>
       <use style="stroke:#000000;stroke-width:0.8;" x="0" xlink:href="#m5229a630c4" y="178.788119"/>
      </g>
     </g>
    </g>
    <g id="ytick_4">
     <g id="line2d_15">
      <path clip-path="url(#p9351aad4e9)" d="M 0 121.302178 
L 460.8 121.302178 
" style="fill:none;stroke:#b0b0b0;stroke-linecap:square;stroke-width:0.8;"/>
     </g>
     <g id="line2d_16">
      <g>
       <use style="stroke:#000000;stroke-width:0.8;" x="0" xlink:href="#m5229a630c4" y="121.302178"/>
      </g>
     </g>
    </g>
    <g id="ytick_5">
     <g id="line2d_17">
      <path clip-path="url(#p9351aad4e9)" d="M 0 63.816238 
L 460.8 63.816238 
" style="fill:none;stroke:#b0b0b0;stroke-linecap:square;stroke-width:0.8;"/>
     </g>
     <g id="line2d_18">
      <g>
       <use style="stroke:#000000;stroke-width:0.8;" x="0" xlink:href="#m5229a630c4" y="63.816238"/>
      </g>
     </g>
    </g>
    <g id="ytick_6">
     <g id="line2d_19">
      <path clip-path="url(#p9351aad4e9)" d="M 0 6.330297 
L 460.8 6.330297 
" style="fill:none;stroke:#b0b0b0;stroke-linecap:square;stroke-width:0.8;"/>
     </g>
     <g id="line2d_20">
      <g>
       <use style="stroke:#000000;stroke-width:0.8;" x="0" xlink:href="#m5229a630c4" y="6.330297"/>
      </g>
     </g>
    </g>
   </g>
   <g id="line2d_21">
    <path clip-path="url(#p9351aad4e9)" d="M 226.47541 293.76 
L 226.47541 289.927604 
L 229.06014 289.927604 
L 229.06014 286.095208 
L 233.501079 286.095208 
L 233.501079 282.262812 
L 236.542324 282.262812 
L 236.542324 278.430416 
L 237.647219 278.430416 
L 237.647219 274.59802 
L 239.372743 274.59802 
L 239.372743 270.765624 
L 240.15571 270.765624 
L 240.15571 266.933228 
L 240.345025 266.933228 
L 240.345025 263.100832 
L 240.518463 263.100832 
L 240.518463 259.268436 
L 240.715726 259.268436 
L 240.715726 255.43604 
L 241.057525 255.43604 
L 241.057525 251.603644 
L 241.550337 251.603644 
L 241.550337 247.771248 
L 241.690303 247.771248 
L 241.690303 243.938851 
L 244.269559 243.938851 
L 244.269559 240.106455 
L 244.622998 240.106455 
L 244.622998 236.274059 
L 244.841912 236.274059 
L 244.841912 232.441663 
L 245.178552 232.441663 
L 245.178552 228.609267 
L 245.521007 228.609267 
L 245.521007 224.776871 
L 245.930242 224.776871 
L 245.930242 220.944475 
L 247.234113 220.944475 
L 247.234113 217.112079 
L 251.170901 217.112079 
L 251.170901 213.279683 
L 255.537206 213.279683 
L 255.537206 209.447287 
L 256.771404 209.447287 
L 256.771404 205.614891 
L 257.274183 205.614891 
L 257.274183 201.782495 
L 257.935855 201.782495 
L 257.935855 197.950099 
L 258.597085 197.950099 
L 258.597085 194.117703 
L 259.154336 194.117703 
L 259.154336 190.285307 
L 259.876591 190.285307 
L 259.876591 186.452911 
L 260.624441 186.452911 
L 260.632557 178.788119 
L 261.344345 178.788119 
L 261.344345 174.955723 
L 262.019996 174.955723 
L 262.090841 159.626139 
L 262.203125 159.626139 
L 262.263141 151.961347 
L 263.136501 151.961347 
L 263.136501 148.12895 
L 263.760677 148.12895 
L 263.760677 144.296554 
L 264.228823 144.296554 
L 264.228823 140.464158 
L 264.464623 140.464158 
L 264.464623 136.631762 
L 264.611616 136.631762 
L 264.611616 132.799366 
L 265.113744 132.799366 
L 265.113744 128.96697 
L 265.247584 128.96697 
L 265.247584 125.134574 
L 265.491432 125.134574 
L 265.491432 121.302178 
L 265.606009 121.302178 
L 265.606009 117.469782 
L 265.874183 117.469782 
L 265.897656 109.80499 
L 265.990146 109.80499 
L 265.990146 105.972594 
L 266.216394 105.972594 
L 266.216394 102.140198 
L 266.463039 102.140198 
L 266.463039 98.307802 
L 266.977831 98.307802 
L 266.977831 94.475406 
L 267.316099 94.475406 
L 267.316099 90.64301 
L 267.582154 90.64301 
L 267.582154 86.810614 
L 268.975915 86.810614 
L 268.975915 82.978218 
L 269.452979 82.978218 
L 269.452979 79.145822 
L 269.66634 79.145822 
L 269.66634 75.313426 
L 270.119106 75.313426 
L 270.119106 71.48103 
L 270.650858 71.48103 
L 270.650858 67.648634 
L 271.320618 67.648634 
L 271.320618 63.816238 
L 295.403992 63.816238 
L 295.403992 59.983842 
L 297.205595 59.983842 
L 297.205595 56.151446 
L 301.001966 56.151446 
L 301.001966 52.31905 
L 307.705665 52.31905 
L 307.705665 48.486653 
L 310.68531 48.486653 
L 310.68531 44.654257 
L 311.430473 44.654257 
L 311.430473 40.821861 
L 313.957162 40.821861 
L 313.957162 36.989465 
L 316.392044 36.989465 
L 316.392044 33.157069 
L 319.87424 33.157069 
L 319.87424 29.324673 
L 320.530601 29.324673 
L 320.530601 25.492277 
L 324.75424 25.492277 
L 324.790214 17.827485 
L 325.49373 17.827485 
L 325.49373 13.995089 
L 325.877536 13.995089 
L 325.877536 10.162693 
L 333.185618 10.162693 
L 333.185618 6.330297 
L 333.185618 6.330297 
L 460.8 6.330297 
L 460.8 6.330297 
" style="fill:none;stroke:#ff0000;stroke-linecap:square;stroke-width:3;"/>
   </g>
   <g id="line2d_22">
    <path clip-path="url(#p9351aad4e9)" d="M 236.542324 293.76 
L 236.542324 289.927604 
L 237.647219 289.927604 
L 237.647219 286.095208 
L 240.345025 286.095208 
L 240.345025 282.262812 
L 240.715726 282.262812 
L 240.715726 278.430416 
L 241.351361 278.430416 
L 241.351361 274.59802 
L 243.895568 274.59802 
L 243.895568 270.765624 
L 244.728408 270.765624 
L 244.728408 266.933228 
L 245.250135 266.933228 
L 245.250135 263.100832 
L 245.930242 263.100832 
L 245.930242 259.268436 
L 247.215373 259.268436 
L 247.215373 255.43604 
L 249.944402 255.43604 
L 249.944402 251.603644 
L 250.628057 251.603644 
L 250.628057 247.771248 
L 251.675815 247.771248 
L 251.675815 243.938851 
L 252.636308 243.938851 
L 252.636308 240.106455 
L 254.972224 240.106455 
L 254.972224 236.274059 
L 255.948982 236.274059 
L 255.948982 232.441663 
L 259.724954 232.441663 
L 259.724954 228.609267 
L 262.019996 228.609267 
L 262.090841 220.944475 
L 262.887315 220.944475 
L 262.887315 217.112079 
L 263.925994 217.112079 
L 264.023772 205.614891 
L 265.028071 205.614891 
L 265.028071 201.782495 
L 265.424964 201.782495 
L 265.477474 194.117703 
L 265.990146 194.117703 
L 266.041064 186.452911 
L 266.159991 186.452911 
L 266.205976 178.788119 
L 266.552258 178.788119 
L 266.56346 167.290931 
L 266.912572 167.290931 
L 266.999188 151.961347 
L 267.064185 151.961347 
L 267.064185 148.12895 
L 267.246496 148.12895 
L 267.246496 144.296554 
L 267.582154 144.296554 
L 267.652556 136.631762 
L 267.769805 136.631762 
L 267.769805 132.799366 
L 267.938291 132.799366 
L 267.938291 128.96697 
L 268.16557 128.96697 
L 268.16557 125.134574 
L 268.31125 125.134574 
L 268.352056 117.469782 
L 268.833437 117.469782 
L 268.833437 113.637386 
L 268.975915 113.637386 
L 268.975915 109.80499 
L 269.23735 109.80499 
L 269.23735 105.972594 
L 269.452979 105.972594 
L 269.452979 102.140198 
L 271.320618 102.140198 
L 271.320618 98.307802 
L 271.488698 98.307802 
L 271.488698 94.475406 
L 272.451562 94.475406 
L 272.451562 90.64301 
L 273.178385 90.64301 
L 273.279423 79.145822 
L 273.485111 79.145822 
L 273.485111 75.313426 
L 275.764881 75.313426 
L 275.764881 71.48103 
L 276.080237 71.48103 
L 276.080237 67.648634 
L 278.792968 67.648634 
L 278.792968 63.816238 
L 310.68531 63.816238 
L 310.68531 59.983842 
L 314.317715 59.983842 
L 314.317715 56.151446 
L 322.209746 56.151446 
L 322.209746 52.31905 
L 324.75424 52.31905 
L 324.75424 48.486653 
L 325.931624 48.486653 
L 325.931624 44.654257 
L 326.091378 44.654257 
L 326.091378 40.821861 
L 326.337928 40.821861 
L 326.337928 36.989465 
L 326.809151 36.989465 
L 326.809151 33.157069 
L 329.19325 33.157069 
L 329.19325 29.324673 
L 329.472058 29.324673 
L 329.472058 25.492277 
L 334.953353 25.492277 
L 334.953353 21.659881 
L 343.717464 21.659881 
L 343.717464 17.827485 
L 344.136651 17.827485 
L 344.136651 13.995089 
L 346.807226 13.995089 
L 346.807226 10.162693 
L 349.091853 10.162693 
L 349.091853 6.330297 
L 349.091853 6.330297 
L 460.8 6.330297 
L 460.8 6.330297 
" style="fill:none;stroke:#00bfbf;stroke-linecap:square;stroke-width:1.5;"/>
   </g>
   <g id="line2d_23">
    <path clip-path="url(#p9351aad4e9)" d="M 226.47541 293.76 
L 226.47541 289.927604 
L 229.06014 289.927604 
L 229.06014 286.095208 
L 236.542324 286.095208 
L 236.542324 282.262812 
L 237.647219 282.262812 
L 237.647219 278.430416 
L 239.372743 278.430416 
L 239.372743 274.59802 
L 240.15571 274.59802 
L 240.15571 270.765624 
L 240.345025 270.765624 
L 240.345025 266.933228 
L 240.518463 266.933228 
L 240.518463 263.100832 
L 240.715726 263.100832 
L 240.715726 259.268436 
L 241.057525 259.268436 
L 241.057525 255.43604 
L 241.690303 255.43604 
L 241.690303 251.603644 
L 243.895568 251.603644 
L 243.895568 247.771248 
L 244.269559 247.771248 
L 244.269559 243.938851 
L 244.622998 243.938851 
L 244.728408 236.274059 
L 245.250135 236.274059 
L 245.250135 232.441663 
L 245.930242 232.441663 
L 245.930242 228.609267 
L 247.234113 228.609267 
L 247.234113 224.776871 
L 255.948982 224.776871 
L 255.948982 220.944475 
L 257.274183 220.944475 
L 257.274183 217.112079 
L 257.935855 217.112079 
L 257.935855 213.279683 
L 258.597085 213.279683 
L 258.597085 209.447287 
L 259.82035 209.447287 
L 259.876591 201.782495 
L 261.344345 201.782495 
L 261.344345 197.950099 
L 262.019996 197.950099 
L 262.090841 186.452911 
L 262.263141 186.452911 
L 262.263141 182.620515 
L 262.887315 182.620515 
L 262.887315 178.788119 
L 263.136501 178.788119 
L 263.136501 174.955723 
L 263.799028 174.955723 
L 263.871218 167.290931 
L 264.416498 167.290931 
L 264.478701 155.793743 
L 264.611616 155.793743 
L 264.674384 148.12895 
L 265.113744 148.12895 
L 265.113744 144.296554 
L 265.228298 144.296554 
L 265.228298 140.464158 
L 265.606009 140.464158 
L 265.606009 136.631762 
L 265.874183 136.631762 
L 265.897656 128.96697 
L 265.990146 128.96697 
L 265.990146 125.134574 
L 266.216394 125.134574 
L 266.216394 121.302178 
L 266.89072 121.302178 
L 266.977831 113.637386 
L 267.316099 113.637386 
L 267.316099 109.80499 
L 267.582154 109.80499 
L 267.630458 102.140198 
L 268.13649 102.140198 
L 268.16557 94.475406 
L 268.975915 94.475406 
L 268.975915 90.64301 
L 269.23735 90.64301 
L 269.23735 86.810614 
L 269.452979 86.810614 
L 269.452979 82.978218 
L 269.66634 82.978218 
L 269.66634 79.145822 
L 270.119106 79.145822 
L 270.119106 75.313426 
L 270.469915 75.313426 
L 270.469915 71.48103 
L 270.650858 71.48103 
L 270.650858 67.648634 
L 271.320618 67.648634 
L 271.320618 63.816238 
L 295.403992 63.816238 
L 295.403992 59.983842 
L 301.001966 59.983842 
L 301.001966 56.151446 
L 307.705665 56.151446 
L 307.705665 52.31905 
L 310.68531 52.31905 
L 310.68531 48.486653 
L 316.392044 48.486653 
L 316.392044 44.654257 
L 319.87424 44.654257 
L 319.87424 40.821861 
L 321.83707 40.821861 
L 321.83707 36.989465 
L 322.209746 36.989465 
L 322.209746 33.157069 
L 324.75424 33.157069 
L 324.75424 29.324673 
L 325.49373 29.324673 
L 325.49373 25.492277 
L 325.877536 25.492277 
L 325.877536 21.659881 
L 326.091378 21.659881 
L 326.091378 17.827485 
L 326.556341 17.827485 
L 326.556341 13.995089 
L 329.472058 13.995089 
L 329.472058 10.162693 
L 334.953353 10.162693 
L 334.953353 6.330297 
L 334.953353 6.330297 
L 460.8 6.330297 
L 460.8 6.330297 
" style="fill:none;stroke:#bf00bf;stroke-linecap:square;stroke-width:1.5;"/>
   </g>
   <g id="patch_3">
    <path d="M 0 293.76 
L 0 3.456 
" style="fill:none;stroke:#000000;stroke-linecap:square;stroke-linejoin:miter;stroke-width:0.8;"/>
   </g>
   <g id="patch_4">
    <path d="M 460.8 293.76 
L 460.8 3.456 
" style="fill:none;stroke:#000000;stroke-linecap:square;stroke-linejoin:miter;stroke-width:0.8;"/>
   </g>
   <g id="patch_5">
    <path d="M 0 293.76 
L 460.8 293.76 
" style="fill:none;stroke:#000000;stroke-linecap:square;stroke-linejoin:miter;stroke-width:0.8;"/>
   </g>
   <g id="patch_6">
    <path d="M 0 3.456 
L 460.8 3.456 
" style="fill:none;stroke:#000000;stroke-linecap:square;stroke-linejoin:miter;stroke-width:0.8;"/>
   </g>
   <g id="text_6">
    <!-- {f20-f24}, 5-D -->
    <defs>
     <path d="M 51.125 -9.28125 
L 51.125 -16.3125 
L 48.09375 -16.3125 
Q 35.9375 -16.3125 31.8125 -12.6875 
Q 27.6875 -9.078125 27.6875 1.703125 
L 27.6875 13.375 
Q 27.6875 20.75 25.046875 23.578125 
Q 22.40625 26.421875 15.484375 26.421875 
L 12.5 26.421875 
L 12.5 33.40625 
L 15.484375 33.40625 
Q 22.46875 33.40625 25.078125 36.203125 
Q 27.6875 39.015625 27.6875 46.296875 
L 27.6875 58.015625 
Q 27.6875 68.796875 31.8125 72.390625 
Q 35.9375 75.984375 48.09375 75.984375 
L 51.125 75.984375 
L 51.125 69 
L 47.796875 69 
Q 40.921875 69 38.8125 66.84375 
Q 36.71875 64.703125 36.71875 57.8125 
L 36.71875 45.703125 
Q 36.71875 38.03125 34.5 34.5625 
Q 32.28125 31.109375 26.90625 29.890625 
Q 32.328125 28.5625 34.515625 25.09375 
Q 36.71875 21.625 36.71875 14.015625 
L 36.71875 1.90625 
Q 36.71875 -4.984375 38.8125 -7.125 
Q 40.921875 -9.28125 47.796875 -9.28125 
z
" id="DejaVuSans-123"/>
     <path d="M 19.1875 8.296875 
L 53.609375 8.296875 
L 53.609375 0 
L 7.328125 0 
L 7.328125 8.296875 
Q 12.9375 14.109375 22.625 23.890625 
Q 32.328125 33.6875 34.8125 36.53125 
Q 39.546875 41.84375 41.421875 45.53125 
Q 43.3125 49.21875 43.3125 52.78125 
Q 43.3125 58.59375 39.234375 62.25 
Q 35.15625 65.921875 28.609375 65.921875 
Q 23.96875 65.921875 18.8125 64.3125 
Q 13.671875 62.703125 7.8125 59.421875 
L 7.8125 69.390625 
Q 13.765625 71.78125 18.9375 73 
Q 24.125 74.21875 28.421875 74.21875 
Q 39.75 74.21875 46.484375 68.546875 
Q 53.21875 62.890625 53.21875 53.421875 
Q 53.21875 48.921875 51.53125 44.890625 
Q 49.859375 40.875 45.40625 35.40625 
Q 44.1875 33.984375 37.640625 27.21875 
Q 31.109375 20.453125 19.1875 8.296875 
z
" id="DejaVuSans-50"/>
     <path d="M 12.5 -9.28125 
L 15.921875 -9.28125 
Q 22.75 -9.28125 24.828125 -7.171875 
Q 26.90625 -5.078125 26.90625 1.90625 
L 26.90625 14.015625 
Q 26.90625 21.625 29.09375 25.09375 
Q 31.296875 28.5625 36.71875 29.890625 
Q 31.296875 31.109375 29.09375 34.5625 
Q 26.90625 38.03125 26.90625 45.703125 
L 26.90625 57.8125 
Q 26.90625 64.75 24.828125 66.875 
Q 22.75 69 15.921875 69 
L 12.5 69 
L 12.5 75.984375 
L 15.578125 75.984375 
Q 27.734375 75.984375 31.8125 72.390625 
Q 35.890625 68.796875 35.890625 58.015625 
L 35.890625 46.296875 
Q 35.890625 39.015625 38.515625 36.203125 
Q 41.15625 33.40625 48.09375 33.40625 
L 51.125 33.40625 
L 51.125 26.421875 
L 48.09375 26.421875 
Q 41.15625 26.421875 38.515625 23.578125 
Q 35.890625 20.75 35.890625 13.375 
L 35.890625 1.703125 
Q 35.890625 -9.078125 31.8125 -12.6875 
Q 27.734375 -16.3125 15.578125 -16.3125 
L 12.5 -16.3125 
z
" id="DejaVuSans-125"/>
     <path d="M 11.71875 12.40625 
L 22.015625 12.40625 
L 22.015625 4 
L 14.015625 -11.625 
L 7.71875 -11.625 
L 11.71875 4 
z
" id="DejaVuSans-44"/>
     <path d="M 10.796875 72.90625 
L 49.515625 72.90625 
L 49.515625 64.59375 
L 19.828125 64.59375 
L 19.828125 46.734375 
Q 21.96875 47.46875 24.109375 47.828125 
Q 26.265625 48.1875 28.421875 48.1875 
Q 40.625 48.1875 47.75 41.5 
Q 54.890625 34.8125 54.890625 23.390625 
Q 54.890625 11.625 47.5625 5.09375 
Q 40.234375 -1.421875 26.90625 -1.421875 
Q 22.3125 -1.421875 17.546875 -0.640625 
Q 12.796875 0.140625 7.71875 1.703125 
L 7.71875 11.625 
Q 12.109375 9.234375 16.796875 8.0625 
Q 21.484375 6.890625 26.703125 6.890625 
Q 35.15625 6.890625 40.078125 11.328125 
Q 45.015625 15.765625 45.015625 23.390625 
Q 45.015625 31 40.078125 35.4375 
Q 35.15625 39.890625 26.703125 39.890625 
Q 22.75 39.890625 18.8125 39.015625 
Q 14.890625 38.140625 10.796875 36.28125 
z
" id="DejaVuSans-53"/>
    </defs>
    <g transform="translate(305.884 287.95392)scale(0.2 -0.2)">
     <use xlink:href="#DejaVuSans-123"/>
     <use x="63.623047" xlink:href="#DejaVuSans-102"/>
     <use x="98.828125" xlink:href="#DejaVuSans-50"/>
     <use x="162.451172" xlink:href="#DejaVuSans-48"/>
     <use x="226.074219" xlink:href="#DejaVuSans-45"/>
     <use x="262.158203" xlink:href="#DejaVuSans-102"/>
     <use x="297.363281" xlink:href="#DejaVuSans-50"/>
     <use x="360.986328" xlink:href="#DejaVuSans-52"/>
     <use x="424.609375" xlink:href="#DejaVuSans-125"/>
     <use x="488.232422" xlink:href="#DejaVuSans-44"/>
     <use x="520.019531" xlink:href="#DejaVuSans-32"/>
     <use x="551.806641" xlink:href="#DejaVuSans-53"/>
     <use x="615.429688" xlink:href="#DejaVuSans-45"/>
     <use x="651.513672" xlink:href="#DejaVuSans-68"/>
    </g>
   </g>
   <g id="text_7">
    <!-- v2.4 -->
    <defs>
     <path d="M 2.984375 54.6875 
L 12.5 54.6875 
L 29.59375 8.796875 
L 46.6875 54.6875 
L 56.203125 54.6875 
L 35.6875 0 
L 23.484375 0 
z
" id="DejaVuSans-118"/>
     <path d="M 10.6875 12.40625 
L 21 12.40625 
L 21 0 
L 10.6875 0 
z
" id="DejaVuSans-46"/>
    </defs>
    <g style="fill:#808080;" transform="translate(219.489063 288.777272)scale(0.1 -0.1)">
     <use xlink:href="#DejaVuSans-118"/>
     <use x="59.179688" xlink:href="#DejaVuSans-50"/>
     <use x="122.802734" xlink:href="#DejaVuSans-46"/>
     <use x="154.589844" xlink:href="#DejaVuSans-52"/>
    </g>
   </g>
  </g>
 </g>
 <defs>
  <clipPath id="p9351aad4e9">
   <rect height="290.304" width="460.8" x="0" y="3.456"/>
  </clipPath>
 </defs>
</svg>
