<?xml version="1.0" encoding="utf-8" standalone="no"?>
<!DOCTYPE svg PUBLIC "-//W3C//DTD SVG 1.1//EN"
  "http://www.w3.org/Graphics/SVG/1.1/DTD/svg11.dtd">
<!-- Created with matplotlib (https://matplotlib.org/) -->
<svg height="345.6pt" version="1.1" viewBox="0 0 460.8 345.6" width="460.8pt" xmlns="http://www.w3.org/2000/svg" xmlns:xlink="http://www.w3.org/1999/xlink">
 <defs>
  <style type="text/css">
*{stroke-linecap:butt;stroke-linejoin:round;}
  </style>
 </defs>
 <g id="figure_1">
  <g id="patch_1">
   <path d="M 0 345.6 
L 460.8 345.6 
L 460.8 0 
L 0 0 
z
" style="fill:#ffffff;"/>
  </g>
  <g id="axes_1">
   <g id="patch_2">
    <path d="M 0 293.76 
L 460.8 293.76 
L 460.8 3.456 
L 0 3.456 
z
" style="fill:#ffffff;"/>
   </g>
   <g id="matplotlib.axis_1">
    <g id="xtick_1">
     <g id="line2d_1">
      <path clip-path="url(#p4d6e296848)" d="M 107.180093 293.76 
L 107.180093 3.456 
" style="fill:none;stroke:#b0b0b0;stroke-linecap:square;stroke-width:0.8;"/>
     </g>
     <g id="line2d_2">
      <defs>
       <path d="M 0 0 
L 0 3.5 
" id="m97e2879bac" style="stroke:#000000;stroke-width:0.8;"/>
      </defs>
      <g>
       <use style="stroke:#000000;stroke-width:0.8;" x="107.180093" xlink:href="#m97e2879bac" y="293.76"/>
      </g>
     </g>
     <g id="text_1">
      <!-- -4 -->
      <defs>
       <path d="M 4.890625 31.390625 
L 31.203125 31.390625 
L 31.203125 23.390625 
L 4.890625 23.390625 
z
" id="DejaVuSans-45"/>
       <path d="M 37.796875 64.3125 
L 12.890625 25.390625 
L 37.796875 25.390625 
z
M 35.203125 72.90625 
L 47.609375 72.90625 
L 47.609375 25.390625 
L 58.015625 25.390625 
L 58.015625 17.1875 
L 47.609375 17.1875 
L 47.609375 0 
L 37.796875 0 
L 37.796875 17.1875 
L 4.890625 17.1875 
L 4.890625 26.703125 
z
" id="DejaVuSans-52"/>
      </defs>
      <g transform="translate(97.20978 315.956875)scale(0.2 -0.2)">
       <use xlink:href="#DejaVuSans-45"/>
       <use x="36.083984" xlink:href="#DejaVuSans-52"/>
      </g>
     </g>
    </g>
    <g id="xtick_2">
     <g id="line2d_3">
      <path clip-path="url(#p4d6e296848)" d="M 214.476102 293.76 
L 214.476102 3.456 
" style="fill:none;stroke:#b0b0b0;stroke-linecap:square;stroke-width:0.8;"/>
     </g>
     <g id="line2d_4">
      <g>
       <use style="stroke:#000000;stroke-width:0.8;" x="214.476102" xlink:href="#m97e2879bac" y="293.76"/>
      </g>
     </g>
     <g id="text_2">
      <!-- 0 -->
      <defs>
       <path d="M 31.78125 66.40625 
Q 24.171875 66.40625 20.328125 58.90625 
Q 16.5 51.421875 16.5 36.375 
Q 16.5 21.390625 20.328125 13.890625 
Q 24.171875 6.390625 31.78125 6.390625 
Q 39.453125 6.390625 43.28125 13.890625 
Q 47.125 21.390625 47.125 36.375 
Q 47.125 51.421875 43.28125 58.90625 
Q 39.453125 66.40625 31.78125 66.40625 
z
M 31.78125 74.21875 
Q 44.046875 74.21875 50.515625 64.515625 
Q 56.984375 54.828125 56.984375 36.375 
Q 56.984375 17.96875 50.515625 8.265625 
Q 44.046875 -1.421875 31.78125 -1.421875 
Q 19.53125 -1.421875 13.0625 8.265625 
Q 6.59375 17.96875 6.59375 36.375 
Q 6.59375 54.828125 13.0625 64.515625 
Q 19.53125 74.21875 31.78125 74.21875 
z
" id="DejaVuSans-48"/>
      </defs>
      <g transform="translate(208.113602 315.956875)scale(0.2 -0.2)">
       <use xlink:href="#DejaVuSans-48"/>
      </g>
     </g>
    </g>
    <g id="xtick_3">
     <g id="line2d_5">
      <path clip-path="url(#p4d6e296848)" d="M 321.772112 293.76 
L 321.772112 3.456 
" style="fill:none;stroke:#b0b0b0;stroke-linecap:square;stroke-width:0.8;"/>
     </g>
     <g id="line2d_6">
      <g>
       <use style="stroke:#000000;stroke-width:0.8;" x="321.772112" xlink:href="#m97e2879bac" y="293.76"/>
      </g>
     </g>
     <g id="text_3">
      <!-- 4 -->
      <g transform="translate(315.409612 315.956875)scale(0.2 -0.2)">
       <use xlink:href="#DejaVuSans-52"/>
      </g>
     </g>
    </g>
    <g id="xtick_4">
     <g id="line2d_7">
      <path clip-path="url(#p4d6e296848)" d="M 429.068122 293.76 
L 429.068122 3.456 
" style="fill:none;stroke:#b0b0b0;stroke-linecap:square;stroke-width:0.8;"/>
     </g>
     <g id="line2d_8">
      <g>
       <use style="stroke:#000000;stroke-width:0.8;" x="429.068122" xlink:href="#m97e2879bac" y="293.76"/>
      </g>
     </g>
     <g id="text_4">
      <!-- 8 -->
      <defs>
       <path d="M 31.78125 34.625 
Q 24.75 34.625 20.71875 30.859375 
Q 16.703125 27.09375 16.703125 20.515625 
Q 16.703125 13.921875 20.71875 10.15625 
Q 24.75 6.390625 31.78125 6.390625 
Q 38.8125 6.390625 42.859375 10.171875 
Q 46.921875 13.96875 46.921875 20.515625 
Q 46.921875 27.09375 42.890625 30.859375 
Q 38.875 34.625 31.78125 34.625 
z
M 21.921875 38.8125 
Q 15.578125 40.375 12.03125 44.71875 
Q 8.5 49.078125 8.5 55.328125 
Q 8.5 64.0625 14.71875 69.140625 
Q 20.953125 74.21875 31.78125 74.21875 
Q 42.671875 74.21875 48.875 69.140625 
Q 55.078125 64.0625 55.078125 55.328125 
Q 55.078125 49.078125 51.53125 44.71875 
Q 48 40.375 41.703125 38.8125 
Q 48.828125 37.15625 52.796875 32.3125 
Q 56.78125 27.484375 56.78125 20.515625 
Q 56.78125 9.90625 50.3125 4.234375 
Q 43.84375 -1.421875 31.78125 -1.421875 
Q 19.734375 -1.421875 13.25 4.234375 
Q 6.78125 9.90625 6.78125 20.515625 
Q 6.78125 27.484375 10.78125 32.3125 
Q 14.796875 37.15625 21.921875 38.8125 
z
M 18.3125 54.390625 
Q 18.3125 48.734375 21.84375 45.5625 
Q 25.390625 42.390625 31.78125 42.390625 
Q 38.140625 42.390625 41.71875 45.5625 
Q 45.3125 48.734375 45.3125 54.390625 
Q 45.3125 60.0625 41.71875 63.234375 
Q 38.140625 66.40625 31.78125 66.40625 
Q 25.390625 66.40625 21.84375 63.234375 
Q 18.3125 60.0625 18.3125 54.390625 
z
" id="DejaVuSans-56"/>
      </defs>
      <g transform="translate(422.705622 315.956875)scale(0.2 -0.2)">
       <use xlink:href="#DejaVuSans-56"/>
      </g>
     </g>
    </g>
    <g id="text_5">
     <!-- log10 of Df -->
     <defs>
      <path d="M 9.421875 75.984375 
L 18.40625 75.984375 
L 18.40625 0 
L 9.421875 0 
z
" id="DejaVuSans-108"/>
      <path d="M 30.609375 48.390625 
Q 23.390625 48.390625 19.1875 42.75 
Q 14.984375 37.109375 14.984375 27.296875 
Q 14.984375 17.484375 19.15625 11.84375 
Q 23.34375 6.203125 30.609375 6.203125 
Q 37.796875 6.203125 41.984375 11.859375 
Q 46.1875 17.53125 46.1875 27.296875 
Q 46.1875 37.015625 41.984375 42.703125 
Q 37.796875 48.390625 30.609375 48.390625 
z
M 30.609375 56 
Q 42.328125 56 49.015625 48.375 
Q 55.71875 40.765625 55.71875 27.296875 
Q 55.71875 13.875 49.015625 6.21875 
Q 42.328125 -1.421875 30.609375 -1.421875 
Q 18.84375 -1.421875 12.171875 6.21875 
Q 5.515625 13.875 5.515625 27.296875 
Q 5.515625 40.765625 12.171875 48.375 
Q 18.84375 56 30.609375 56 
z
" id="DejaVuSans-111"/>
      <path d="M 45.40625 27.984375 
Q 45.40625 37.75 41.375 43.109375 
Q 37.359375 48.484375 30.078125 48.484375 
Q 22.859375 48.484375 18.828125 43.109375 
Q 14.796875 37.75 14.796875 27.984375 
Q 14.796875 18.265625 18.828125 12.890625 
Q 22.859375 7.515625 30.078125 7.515625 
Q 37.359375 7.515625 41.375 12.890625 
Q 45.40625 18.265625 45.40625 27.984375 
z
M 54.390625 6.78125 
Q 54.390625 -7.171875 48.1875 -13.984375 
Q 42 -20.796875 29.203125 -20.796875 
Q 24.46875 -20.796875 20.265625 -20.09375 
Q 16.0625 -19.390625 12.109375 -17.921875 
L 12.109375 -9.1875 
Q 16.0625 -11.328125 19.921875 -12.34375 
Q 23.78125 -13.375 27.78125 -13.375 
Q 36.625 -13.375 41.015625 -8.765625 
Q 45.40625 -4.15625 45.40625 5.171875 
L 45.40625 9.625 
Q 42.625 4.78125 38.28125 2.390625 
Q 33.9375 0 27.875 0 
Q 17.828125 0 11.671875 7.65625 
Q 5.515625 15.328125 5.515625 27.984375 
Q 5.515625 40.671875 11.671875 48.328125 
Q 17.828125 56 27.875 56 
Q 33.9375 56 38.28125 53.609375 
Q 42.625 51.21875 45.40625 46.390625 
L 45.40625 54.6875 
L 54.390625 54.6875 
z
" id="DejaVuSans-103"/>
      <path d="M 12.40625 8.296875 
L 28.515625 8.296875 
L 28.515625 63.921875 
L 10.984375 60.40625 
L 10.984375 69.390625 
L 28.421875 72.90625 
L 38.28125 72.90625 
L 38.28125 8.296875 
L 54.390625 8.296875 
L 54.390625 0 
L 12.40625 0 
z
" id="DejaVuSans-49"/>
      <path id="DejaVuSans-32"/>
      <path d="M 37.109375 75.984375 
L 37.109375 68.5 
L 28.515625 68.5 
Q 23.6875 68.5 21.796875 66.546875 
Q 19.921875 64.59375 19.921875 59.515625 
L 19.921875 54.6875 
L 34.71875 54.6875 
L 34.71875 47.703125 
L 19.921875 47.703125 
L 19.921875 0 
L 10.890625 0 
L 10.890625 47.703125 
L 2.296875 47.703125 
L 2.296875 54.6875 
L 10.890625 54.6875 
L 10.890625 58.5 
Q 10.890625 67.625 15.140625 71.796875 
Q 19.390625 75.984375 28.609375 75.984375 
z
" id="DejaVuSans-102"/>
      <path d="M 19.671875 64.796875 
L 19.671875 8.109375 
L 31.59375 8.109375 
Q 46.6875 8.109375 53.6875 14.9375 
Q 60.6875 21.78125 60.6875 36.53125 
Q 60.6875 51.171875 53.6875 57.984375 
Q 46.6875 64.796875 31.59375 64.796875 
z
M 9.8125 72.90625 
L 30.078125 72.90625 
Q 51.265625 72.90625 61.171875 64.09375 
Q 71.09375 55.28125 71.09375 36.53125 
Q 71.09375 17.671875 61.125 8.828125 
Q 51.171875 0 30.078125 0 
L 9.8125 0 
z
" id="DejaVuSans-68"/>
     </defs>
     <g transform="translate(175.214063 339.313125)scale(0.2 -0.2)">
      <use xlink:href="#DejaVuSans-108"/>
      <use x="27.783203" xlink:href="#DejaVuSans-111"/>
      <use x="88.964844" xlink:href="#DejaVuSans-103"/>
      <use x="152.441406" xlink:href="#DejaVuSans-49"/>
      <use x="216.064453" xlink:href="#DejaVuSans-48"/>
      <use x="279.6875" xlink:href="#DejaVuSans-32"/>
      <use x="311.474609" xlink:href="#DejaVuSans-111"/>
      <use x="372.65625" xlink:href="#DejaVuSans-102"/>
      <use x="407.861328" xlink:href="#DejaVuSans-32"/>
      <use x="439.648438" xlink:href="#DejaVuSans-68"/>
      <use x="516.650391" xlink:href="#DejaVuSans-102"/>
     </g>
    </g>
   </g>
   <g id="matplotlib.axis_2">
    <g id="ytick_1">
     <g id="line2d_9">
      <path clip-path="url(#p4d6e296848)" d="M 0 293.76 
L 460.8 293.76 
" style="fill:none;stroke:#b0b0b0;stroke-linecap:square;stroke-width:0.8;"/>
     </g>
     <g id="line2d_10">
      <defs>
       <path d="M 0 0 
L -3.5 0 
" id="m9af58118c7" style="stroke:#000000;stroke-width:0.8;"/>
      </defs>
      <g>
       <use style="stroke:#000000;stroke-width:0.8;" x="0" xlink:href="#m9af58118c7" y="293.76"/>
      </g>
     </g>
    </g>
    <g id="ytick_2">
     <g id="line2d_11">
      <path clip-path="url(#p4d6e296848)" d="M 0 236.274059 
L 460.8 236.274059 
" style="fill:none;stroke:#b0b0b0;stroke-linecap:square;stroke-width:0.8;"/>
     </g>
     <g id="line2d_12">
      <g>
       <use style="stroke:#000000;stroke-width:0.8;" x="0" xlink:href="#m9af58118c7" y="236.274059"/>
      </g>
     </g>
    </g>
    <g id="ytick_3">
     <g id="line2d_13">
      <path clip-path="url(#p4d6e296848)" d="M 0 178.788119 
L 460.8 178.788119 
" style="fill:none;stroke:#b0b0b0;stroke-linecap:square;stroke-width:0.8;"/>
     </g>
     <g id="line2d_14">
      <g>
       <use style="stroke:#000000;stroke-width:0.8;" x="0" xlink:href="#m9af58118c7" y="178.788119"/>
      </g>
     </g>
    </g>
    <g id="ytick_4">
     <g id="line2d_15">
      <path clip-path="url(#p4d6e296848)" d="M 0 121.302178 
L 460.8 121.302178 
" style="fill:none;stroke:#b0b0b0;stroke-linecap:square;stroke-width:0.8;"/>
     </g>
     <g id="line2d_16">
      <g>
       <use style="stroke:#000000;stroke-width:0.8;" x="0" xlink:href="#m9af58118c7" y="121.302178"/>
      </g>
     </g>
    </g>
    <g id="ytick_5">
     <g id="line2d_17">
      <path clip-path="url(#p4d6e296848)" d="M 0 63.816238 
L 460.8 63.816238 
" style="fill:none;stroke:#b0b0b0;stroke-linecap:square;stroke-width:0.8;"/>
     </g>
     <g id="line2d_18">
      <g>
       <use style="stroke:#000000;stroke-width:0.8;" x="0" xlink:href="#m9af58118c7" y="63.816238"/>
      </g>
     </g>
    </g>
    <g id="ytick_6">
     <g id="line2d_19">
      <path clip-path="url(#p4d6e296848)" d="M 0 6.330297 
L 460.8 6.330297 
" style="fill:none;stroke:#b0b0b0;stroke-linecap:square;stroke-width:0.8;"/>
     </g>
     <g id="line2d_20">
      <g>
       <use style="stroke:#000000;stroke-width:0.8;" x="0" xlink:href="#m9af58118c7" y="6.330297"/>
      </g>
     </g>
    </g>
   </g>
   <g id="line2d_21">
    <path clip-path="url(#p4d6e296848)" d="M 230.500686 293.76 
L 230.500686 292.961584 
L 231.453661 292.961584 
L 231.453661 292.163168 
L 232.558394 292.163168 
L 232.558394 291.364752 
L 232.905084 291.364752 
L 233.013732 289.767921 
L 233.823196 289.767921 
L 233.823196 288.969505 
L 234.799281 288.969505 
L 234.799281 288.171089 
L 235.548382 288.171089 
L 235.548382 287.372673 
L 235.793659 287.372673 
L 235.793659 286.574257 
L 236.686597 286.574257 
L 236.686597 285.775842 
L 236.904285 285.775842 
L 236.904285 284.977426 
L 237.103577 284.977426 
L 237.103577 284.17901 
L 237.362505 284.17901 
L 237.449439 282.582178 
L 237.488957 282.582178 
L 237.497124 280.985347 
L 237.666771 280.985347 
L 237.666771 280.186931 
L 238.034744 280.186931 
L 238.034744 279.388515 
L 238.202339 279.388515 
L 238.202339 278.590099 
L 238.411555 278.590099 
L 238.411555 277.791683 
L 238.693729 277.791683 
L 238.693729 276.993267 
L 238.846368 276.993267 
L 238.923002 275.396436 
L 239.227505 275.396436 
L 239.276437 273.799604 
L 239.374525 273.799604 
L 239.374525 273.001188 
L 239.541191 273.001188 
L 239.541191 272.202772 
L 240.126958 272.202772 
L 240.126958 271.404356 
L 241.254877 271.404356 
L 241.254877 270.605941 
L 241.517461 270.605941 
L 241.615577 269.009109 
L 241.751457 269.009109 
L 241.751457 268.210693 
L 242.463663 268.210693 
L 242.548447 266.613861 
L 242.787891 266.613861 
L 242.787891 265.815446 
L 242.956667 265.815446 
L 242.956667 265.01703 
L 243.788561 265.01703 
L 243.788561 264.218614 
L 244.684252 264.218614 
L 244.684252 263.420198 
L 245.045397 263.420198 
L 245.045397 262.621782 
L 245.55806 262.621782 
L 245.55806 261.823366 
L 246.177185 261.823366 
L 246.177185 261.02495 
L 246.483964 261.02495 
L 246.483964 260.226535 
L 246.652727 260.226535 
L 246.652727 259.428119 
L 249.013735 259.428119 
L 249.013735 258.629703 
L 249.66425 258.629703 
L 249.66425 257.831287 
L 249.874356 257.831287 
L 249.874356 257.032871 
L 251.301094 257.032871 
L 251.301094 256.234455 
L 253.139387 256.234455 
L 253.156056 254.637624 
L 254.900466 254.637624 
L 254.900466 253.839208 
L 255.020363 253.839208 
L 255.020363 253.040792 
L 256.105979 253.040792 
L 256.190995 251.44396 
L 256.22831 251.44396 
L 256.288647 249.847129 
L 257.211341 249.847129 
L 257.211341 249.048713 
L 257.755103 249.048713 
L 257.755103 248.250297 
L 258.029997 248.250297 
L 258.113012 246.653465 
L 258.186375 246.653465 
L 258.186375 245.85505 
L 258.486375 245.85505 
L 258.486375 245.056634 
L 258.755412 245.056634 
L 258.755412 244.258218 
L 258.956237 244.258218 
L 258.956237 243.459802 
L 259.965336 243.459802 
L 260.00044 241.86297 
L 260.327744 241.86297 
L 260.327744 241.064554 
L 260.507205 241.064554 
L 260.507205 240.266139 
L 260.69502 240.266139 
L 260.695375 238.669307 
L 260.969841 238.669307 
L 260.969841 237.870891 
L 261.155524 237.870891 
L 261.155524 237.072475 
L 261.458735 237.072475 
L 261.509912 235.475644 
L 261.616605 235.475644 
L 261.616605 234.677228 
L 261.775842 234.677228 
L 261.775842 233.878812 
L 262.1223 233.878812 
L 262.20224 231.483564 
L 262.51712 231.483564 
L 262.563439 229.886733 
L 262.694388 229.886733 
L 262.765677 228.289901 
L 262.995263 228.289901 
L 262.995263 227.491485 
L 263.840022 227.491485 
L 263.840022 226.693069 
L 264.20465 226.693069 
L 264.256007 225.096238 
L 264.386012 225.096238 
L 264.488634 222.70099 
L 264.524131 222.70099 
L 264.547183 220.305743 
L 264.749628 220.305743 
L 264.749628 219.507327 
L 264.885097 219.507327 
L 264.922503 217.910495 
L 265.053517 217.910495 
L 265.053517 217.112079 
L 265.188564 217.112079 
L 265.255529 215.515248 
L 265.305352 215.515248 
L 265.399749 212.321584 
L 265.425277 212.321584 
L 265.444221 210.724752 
L 265.567086 210.724752 
L 265.642813 208.329505 
L 265.700602 208.329505 
L 265.805811 206.732673 
L 265.911933 206.732673 
L 266.000839 201.942178 
L 266.033977 201.942178 
L 266.144951 200.345347 
L 266.18074 200.345347 
L 266.18074 199.546931 
L 266.440699 199.546931 
L 266.440699 198.748515 
L 267.174188 198.748515 
L 267.174188 197.950099 
L 267.657841 197.950099 
L 267.657841 197.151683 
L 268.014158 197.151683 
L 268.014158 196.353267 
L 268.972075 196.353267 
L 268.972075 195.554851 
L 269.165553 195.554851 
L 269.165553 194.756436 
L 269.445283 194.756436 
L 269.445283 193.95802 
L 269.909207 193.95802 
L 269.909207 193.159604 
L 270.197296 193.159604 
L 270.197296 192.361188 
L 270.751874 192.361188 
L 270.751874 191.562772 
L 271.314928 191.562772 
L 271.314928 190.764356 
L 271.507027 190.764356 
L 271.507027 189.965941 
L 271.904722 189.965941 
L 271.904722 189.167525 
L 272.813532 189.167525 
L 272.813532 188.369109 
L 274.135668 188.369109 
L 274.135668 187.570693 
L 274.445898 187.570693 
L 274.445898 186.772277 
L 275.27106 186.772277 
L 275.27106 185.973861 
L 278.53683 185.973861 
L 278.53683 185.175446 
L 278.834829 185.175446 
L 278.834829 184.37703 
L 279.179965 184.37703 
L 279.179965 183.578614 
L 279.569295 183.578614 
L 279.569295 182.780198 
L 280.194821 182.780198 
L 280.194821 181.981782 
L 280.320115 181.981782 
L 280.419196 180.38495 
L 280.618523 180.38495 
L 280.618523 179.586535 
L 280.772953 179.586535 
L 280.823248 177.989703 
L 281.03451 177.989703 
L 281.03451 177.191287 
L 281.306334 177.191287 
L 281.306334 176.392871 
L 281.503621 176.392871 
L 281.503621 175.594455 
L 281.636175 175.594455 
L 281.636175 174.79604 
L 281.996531 174.79604 
L 281.996531 173.997624 
L 282.161432 173.997624 
L 282.207128 172.400792 
L 282.677579 172.400792 
L 282.752705 170.80396 
L 283.01326 170.80396 
L 283.034921 169.207129 
L 283.426654 169.207129 
L 283.441862 167.610297 
L 283.551318 167.610297 
L 283.641563 166.013465 
L 283.711784 166.013465 
L 283.711784 165.21505 
L 283.959154 165.21505 
L 284.001691 163.618218 
L 284.185611 163.618218 
L 284.248301 161.22297 
L 284.454025 161.22297 
L 284.454025 160.424554 
L 285.829946 160.424554 
L 285.829946 159.626139 
L 286.101823 159.626139 
L 286.101823 158.827723 
L 286.495246 158.827723 
L 286.495246 158.029307 
L 287.252143 158.029307 
L 287.338952 156.432475 
L 287.63792 156.432475 
L 287.63792 155.634059 
L 287.823392 155.634059 
L 287.823392 154.835644 
L 287.976607 154.835644 
L 288.03113 153.238812 
L 288.30511 153.238812 
L 288.413809 150.843564 
L 288.520366 150.843564 
L 288.520366 150.045149 
L 288.867314 150.045149 
L 288.923853 147.649901 
L 289.2084 147.649901 
L 289.252948 146.053069 
L 289.351684 146.053069 
L 289.351684 145.254653 
L 289.497434 145.254653 
L 289.497434 144.456238 
L 289.832672 144.456238 
L 289.832672 143.657822 
L 290.044207 143.657822 
L 290.067696 141.262574 
L 290.960708 141.262574 
L 290.961575 139.665743 
L 291.229852 139.665743 
L 291.229852 138.867327 
L 291.354359 138.867327 
L 291.439582 134.875248 
L 291.608872 134.875248 
L 291.608872 134.076832 
L 292.023416 134.076832 
L 292.023416 133.278416 
L 292.173581 133.278416 
L 292.196612 130.883168 
L 292.293605 130.883168 
L 292.379728 128.487921 
L 292.562683 128.487921 
L 292.672409 126.891089 
L 292.939493 126.891089 
L 292.939493 126.092673 
L 293.113107 126.092673 
L 293.113107 125.294257 
L 293.301886 125.294257 
L 293.301886 124.495842 
L 293.627109 124.495842 
L 293.633204 122.89901 
L 293.835476 122.89901 
L 293.835476 122.100594 
L 294.006486 122.100594 
L 294.006486 121.302178 
L 294.62905 121.302178 
L 294.62905 120.503762 
L 295.070624 120.503762 
L 295.070624 119.705347 
L 295.291679 119.705347 
L 295.291679 118.906931 
L 295.763963 118.906931 
L 295.763963 118.108515 
L 296.140668 118.108515 
L 296.140668 117.310099 
L 296.870956 117.310099 
L 296.886141 115.713267 
L 297.515495 115.713267 
L 297.515495 114.914851 
L 297.914387 114.914851 
L 297.914387 114.116436 
L 298.261158 114.116436 
L 298.261158 113.31802 
L 298.829845 113.31802 
L 298.829845 112.519604 
L 299.388797 112.519604 
L 299.388797 111.721188 
L 299.610714 111.721188 
L 299.719536 110.124356 
L 299.952932 110.124356 
L 299.952932 109.325941 
L 300.595966 109.325941 
L 300.595966 108.527525 
L 301.491517 108.527525 
L 301.509868 106.930693 
L 301.684428 106.930693 
L 301.684428 106.132277 
L 301.987523 106.132277 
L 301.987523 105.333861 
L 302.122348 105.333861 
L 302.160453 103.73703 
L 302.539983 103.73703 
L 302.539983 102.938614 
L 302.916853 102.938614 
L 303.024347 101.341782 
L 303.402207 101.341782 
L 303.402207 100.543366 
L 303.710825 100.543366 
L 303.710825 99.74495 
L 303.952546 99.74495 
L 303.952546 98.946535 
L 304.706149 98.946535 
L 304.766329 97.349703 
L 305.037338 97.349703 
L 305.037338 96.551287 
L 305.173568 96.551287 
L 305.173568 95.752871 
L 305.790465 95.752871 
L 305.790465 94.954455 
L 306.482118 94.954455 
L 306.482118 94.15604 
L 307.307337 94.15604 
L 307.307337 93.357624 
L 308.022343 93.357624 
L 308.022343 92.559208 
L 308.397893 92.559208 
L 308.397893 91.760792 
L 309.431784 91.760792 
L 309.431784 90.962376 
L 310.948116 90.962376 
L 310.948116 90.16396 
L 312.47963 90.16396 
L 312.47963 89.365545 
L 317.28714 89.365545 
L 317.28714 88.567129 
L 317.681043 88.567129 
L 317.681043 87.768713 
L 318.04792 87.768713 
L 318.04792 86.970297 
L 320.010321 86.970297 
L 320.010321 86.171881 
L 321.738882 86.171881 
L 321.738882 85.373465 
L 322.623688 85.373465 
L 322.623688 84.57505 
L 323.49609 84.57505 
L 323.49609 83.776634 
L 323.948189 83.776634 
L 323.948189 82.978218 
L 324.854866 82.978218 
L 324.854866 82.179802 
L 325.734584 82.179802 
L 325.734584 81.381386 
L 328.651427 81.381386 
L 328.651427 80.58297 
L 328.970492 80.58297 
L 328.970492 79.784554 
L 329.281483 79.784554 
L 329.281483 78.986139 
L 329.747582 78.986139 
L 329.747582 78.187723 
L 329.994605 78.187723 
L 329.994605 77.389307 
L 332.91572 77.389307 
L 332.91572 76.590891 
L 333.295593 76.590891 
L 333.295593 75.792475 
L 334.362739 75.792475 
L 334.362739 74.994059 
L 335.007308 74.994059 
L 335.007308 74.195644 
L 335.482401 74.195644 
L 335.482401 73.397228 
L 335.674952 73.397228 
L 335.674952 72.598812 
L 337.058848 72.598812 
L 337.058848 71.800396 
L 337.592515 71.800396 
L 337.592515 71.00198 
L 339.401998 71.00198 
L 339.401998 70.203564 
L 339.839144 70.203564 
L 339.839144 69.405149 
L 340.469573 69.405149 
L 340.469573 68.606733 
L 344.535915 68.606733 
L 344.535915 67.808317 
L 344.934401 67.808317 
L 344.934401 67.009901 
L 346.812518 67.009901 
L 346.886203 65.413069 
L 346.990993 65.413069 
L 346.990993 64.614653 
L 347.383626 64.614653 
L 347.383626 63.816238 
L 347.68721 63.816238 
L 347.68721 63.017822 
L 349.965427 63.017822 
L 349.965427 62.219406 
L 350.761457 62.219406 
L 350.761457 61.42099 
L 359.415405 61.42099 
L 359.415405 60.622574 
L 360.334248 60.622574 
L 360.334248 59.824158 
L 361.145472 59.824158 
L 361.145472 59.025743 
L 361.786788 59.025743 
L 361.786788 58.227327 
L 364.348163 58.227327 
L 364.348163 57.428911 
L 367.0721 57.428911 
L 367.0721 56.630495 
L 367.450244 56.630495 
L 367.450244 55.832079 
L 368.99194 55.832079 
L 368.99194 55.033663 
L 369.210584 55.033663 
L 369.210584 54.235248 
L 369.368243 54.235248 
L 369.368243 53.436832 
L 369.917427 53.436832 
L 369.917427 52.638416 
L 372.183822 52.638416 
L 372.183822 51.84 
L 374.372009 51.84 
L 374.372009 51.041584 
L 375.232007 51.041584 
L 375.232007 50.243168 
L 375.542102 50.243168 
L 375.542102 49.444752 
L 378.946666 49.444752 
L 378.946666 48.646337 
L 379.586184 48.646337 
L 379.586184 47.847921 
L 380.298551 47.847921 
L 380.298551 47.049505 
L 381.62107 47.049505 
L 381.62381 45.452673 
L 382.840599 45.452673 
L 382.840599 44.654257 
L 383.420648 44.654257 
L 383.420648 43.855842 
L 383.99807 43.855842 
L 383.99807 43.057426 
L 384.496807 43.057426 
L 384.496807 42.25901 
L 384.762321 42.25901 
L 384.762321 41.460594 
L 385.822979 41.460594 
L 385.822979 40.662178 
L 386.714949 40.662178 
L 386.714949 39.863762 
L 387.058969 39.863762 
L 387.166613 38.266931 
L 387.283208 38.266931 
L 387.283208 37.468515 
L 388.567006 37.468515 
L 388.567006 36.670099 
L 389.273799 36.670099 
L 389.273799 35.871683 
L 391.20397 35.871683 
L 391.20397 35.073267 
L 393.466319 35.073267 
L 393.466319 34.274851 
L 393.97567 34.274851 
L 393.97567 33.476436 
L 394.177407 33.476436 
L 394.177407 32.67802 
L 394.946671 32.67802 
L 394.946671 31.879604 
L 395.288708 31.879604 
L 395.288708 31.081188 
L 395.965167 31.081188 
L 395.965167 30.282772 
L 398.159664 30.282772 
L 398.159664 29.484356 
L 399.149051 29.484356 
L 399.149051 28.685941 
L 399.896479 28.685941 
L 399.896479 27.887525 
L 400.888836 27.887525 
L 400.895785 26.290693 
L 401.057509 26.290693 
L 401.057509 25.492277 
L 401.246953 25.492277 
L 401.246953 24.693861 
L 402.324227 24.693861 
L 402.324227 23.895446 
L 404.205265 23.895446 
L 404.205265 23.09703 
L 407.024884 23.09703 
L 407.024884 22.298614 
L 407.646266 22.298614 
L 407.646266 21.500198 
L 407.986667 21.500198 
L 407.986667 20.701782 
L 408.324658 20.701782 
L 408.324658 19.903366 
L 409.294105 19.903366 
L 409.294105 19.10495 
L 410.785156 19.10495 
L 410.785156 18.306535 
L 424.405457 18.306535 
L 424.405457 17.508119 
L 426.388666 17.508119 
L 426.388666 16.709703 
L 433.667247 16.709703 
L 433.667247 15.911287 
L 434.799271 15.911287 
L 434.799271 15.112871 
L 435.183446 15.112871 
L 435.183446 14.314455 
L 436.353328 14.314455 
L 436.353328 13.51604 
L 438.252936 13.51604 
L 438.252936 12.717624 
L 439.317433 12.717624 
L 439.317433 11.919208 
L 440.613385 11.919208 
L 440.613385 11.120792 
L 441.647155 11.120792 
L 441.647155 10.322376 
L 444.152904 10.322376 
L 444.152904 9.52396 
L 445.1297 9.52396 
L 445.1297 8.725545 
L 447.463613 8.725545 
L 447.463613 7.927129 
L 448.418413 7.927129 
L 448.418413 7.128713 
L 449.833366 7.128713 
L 449.833366 6.330297 
L 449.833366 6.330297 
L 460.8 6.330297 
L 460.8 6.330297 
" style="fill:none;stroke:#ff0000;stroke-linecap:square;stroke-width:3;"/>
   </g>
   <g id="line2d_22">
    <path clip-path="url(#p4d6e296848)" d="M 230.500686 293.76 
L 230.500686 292.961584 
L 231.453661 292.961584 
L 231.453661 292.163168 
L 232.905084 292.163168 
L 232.905084 291.364752 
L 234.799281 291.364752 
L 234.799281 290.566337 
L 235.548382 290.566337 
L 235.548382 289.767921 
L 235.793659 289.767921 
L 235.793659 288.969505 
L 238.034744 288.969505 
L 238.034744 288.171089 
L 238.544857 288.171089 
L 238.544857 287.372673 
L 238.846368 287.372673 
L 238.923002 285.775842 
L 239.276437 285.775842 
L 239.276437 284.977426 
L 239.425073 284.977426 
L 239.425073 284.17901 
L 239.567227 284.17901 
L 239.567227 283.380594 
L 239.962964 283.380594 
L 240.048103 280.985347 
L 240.144184 280.985347 
L 240.165214 279.388515 
L 240.508317 279.388515 
L 240.508317 278.590099 
L 241.254877 278.590099 
L 241.254877 277.791683 
L 241.517461 277.791683 
L 241.615577 276.194851 
L 241.677546 276.194851 
L 241.756164 273.001188 
L 241.934217 273.001188 
L 241.999894 270.605941 
L 242.310681 270.605941 
L 242.310681 269.807525 
L 242.787891 269.807525 
L 242.870255 268.210693 
L 242.956667 268.210693 
L 242.956667 267.412277 
L 243.144201 267.412277 
L 243.144201 266.613861 
L 243.594941 266.613861 
L 243.594941 265.815446 
L 244.021231 265.815446 
L 244.021231 265.01703 
L 244.3338 265.01703 
L 244.3338 264.218614 
L 245.669235 264.218614 
L 245.669235 263.420198 
L 246.177185 263.420198 
L 246.183253 261.823366 
L 248.177281 261.823366 
L 248.177281 261.02495 
L 249.148973 261.02495 
L 249.148973 260.226535 
L 249.874356 260.226535 
L 249.874356 259.428119 
L 250.009131 259.428119 
L 250.009131 258.629703 
L 250.124702 258.629703 
L 250.124702 257.831287 
L 251.301094 257.831287 
L 251.301094 257.032871 
L 253.139387 257.032871 
L 253.156056 255.43604 
L 255.123829 255.43604 
L 255.123829 254.637624 
L 255.823724 254.637624 
L 255.823724 253.839208 
L 256.478802 253.839208 
L 256.478802 253.040792 
L 256.661001 253.040792 
L 256.661001 252.242376 
L 257.211341 252.242376 
L 257.211341 251.44396 
L 258.113012 251.44396 
L 258.218147 249.847129 
L 258.285402 249.847129 
L 258.285402 249.048713 
L 258.486375 249.048713 
L 258.558295 247.451881 
L 258.956237 247.451881 
L 258.956237 246.653465 
L 259.705364 246.653465 
L 259.705364 245.85505 
L 260.328465 245.85505 
L 260.328465 245.056634 
L 260.69502 245.056634 
L 260.69502 244.258218 
L 260.969841 244.258218 
L 261.074752 241.86297 
L 261.458735 241.86297 
L 261.458735 241.064554 
L 261.603534 241.064554 
L 261.603534 240.266139 
L 261.886121 240.266139 
L 261.963033 237.870891 
L 262.1223 237.870891 
L 262.1223 237.072475 
L 262.301279 237.072475 
L 262.389164 235.475644 
L 262.51712 235.475644 
L 262.51712 234.677228 
L 262.647481 234.677228 
L 262.647481 233.878812 
L 262.765677 233.878812 
L 262.765677 233.080396 
L 262.995263 233.080396 
L 262.995263 232.28198 
L 263.271859 232.28198 
L 263.299299 230.685149 
L 264.390074 230.685149 
L 264.488634 228.289901 
L 264.65139 228.289901 
L 264.65139 227.491485 
L 264.7764 227.491485 
L 264.853089 225.894653 
L 265.048208 225.894653 
L 265.145907 224.297822 
L 265.184333 224.297822 
L 265.255529 221.104158 
L 265.352866 221.104158 
L 265.444221 217.910495 
L 265.49169 217.910495 
L 265.567086 215.515248 
L 265.64209 215.515248 
L 265.666183 213.12 
L 265.757096 213.12 
L 265.849479 210.724752 
L 265.949968 210.724752 
L 266.059854 208.329505 
L 266.073734 208.329505 
L 266.18074 204.337426 
L 266.203071 204.337426 
L 266.240931 202.740594 
L 266.700023 202.740594 
L 266.700023 201.942178 
L 266.975514 201.942178 
L 266.975514 201.143762 
L 267.547539 201.143762 
L 267.657841 199.546931 
L 267.731634 199.546931 
L 267.731634 198.748515 
L 268.014158 198.748515 
L 268.014158 197.950099 
L 268.314823 197.950099 
L 268.314823 197.151683 
L 268.460498 197.151683 
L 268.460498 196.353267 
L 270.706533 196.353267 
L 270.751874 193.95802 
L 271.294777 193.95802 
L 271.294777 193.159604 
L 271.917826 193.159604 
L 271.960573 191.562772 
L 273.286697 191.562772 
L 273.286697 190.764356 
L 273.654955 190.764356 
L 273.654955 189.965941 
L 273.965712 189.965941 
L 273.965712 189.167525 
L 274.445898 189.167525 
L 274.445898 188.369109 
L 274.784435 188.369109 
L 274.784435 187.570693 
L 276.16702 187.570693 
L 276.16702 186.772277 
L 278.008531 186.772277 
L 278.008531 185.973861 
L 281.144578 185.973861 
L 281.144578 185.175446 
L 281.306334 185.175446 
L 281.401071 183.578614 
L 281.503621 183.578614 
L 281.503621 182.780198 
L 281.635475 182.780198 
L 281.635475 181.981782 
L 281.996531 181.981782 
L 282.029141 180.38495 
L 282.199398 180.38495 
L 282.253867 178.788119 
L 282.342198 178.788119 
L 282.342198 177.989703 
L 282.462205 177.989703 
L 282.462205 177.191287 
L 282.659622 177.191287 
L 282.752705 173.997624 
L 283.01326 173.997624 
L 283.093596 171.602376 
L 283.158616 171.602376 
L 283.158616 170.80396 
L 283.426654 170.80396 
L 283.441862 169.207129 
L 283.586428 169.207129 
L 283.677299 166.811881 
L 283.711784 166.811881 
L 283.711784 166.013465 
L 283.959154 166.013465 
L 284.040791 164.416634 
L 284.185611 164.416634 
L 284.248301 162.021386 
L 284.454025 162.021386 
L 284.454025 161.22297 
L 285.829946 161.22297 
L 285.829946 160.424554 
L 286.176807 160.424554 
L 286.176807 159.626139 
L 287.63792 159.626139 
L 287.63792 158.827723 
L 287.823392 158.827723 
L 287.823392 158.029307 
L 288.100012 158.029307 
L 288.100012 157.230891 
L 288.261836 157.230891 
L 288.369505 154.835644 
L 288.413809 154.835644 
L 288.413809 154.037228 
L 288.533138 154.037228 
L 288.533138 153.238812 
L 289.065696 153.238812 
L 289.082911 151.64198 
L 289.2084 151.64198 
L 289.257601 150.045149 
L 289.497434 150.045149 
L 289.50341 148.448317 
L 289.900952 148.448317 
L 289.900952 147.649901 
L 290.044207 147.649901 
L 290.044207 146.851485 
L 290.16249 146.851485 
L 290.16249 146.053069 
L 290.345099 146.053069 
L 290.345099 145.254653 
L 291.100919 145.254653 
L 291.100919 144.456238 
L 291.608872 144.456238 
L 291.608872 143.657822 
L 291.847762 143.657822 
L 291.944278 142.06099 
L 292.061207 142.06099 
L 292.073614 140.464158 
L 292.293605 140.464158 
L 292.305475 138.867327 
L 292.50668 138.867327 
L 292.588888 137.270495 
L 292.672409 137.270495 
L 292.672409 136.472079 
L 292.809738 136.472079 
L 292.900758 134.875248 
L 293.080977 134.875248 
L 293.080977 134.076832 
L 293.484095 134.076832 
L 293.559951 132.48 
L 293.627109 132.48 
L 293.627109 131.681584 
L 294.135674 131.681584 
L 294.135674 130.883168 
L 294.285631 130.883168 
L 294.352407 129.286337 
L 294.62905 129.286337 
L 294.718765 126.891089 
L 294.941563 126.891089 
L 294.941563 126.092673 
L 295.264476 126.092673 
L 295.264476 125.294257 
L 295.55698 125.294257 
L 295.566274 123.697426 
L 295.822388 123.697426 
L 295.822388 122.89901 
L 296.140668 122.89901 
L 296.140668 122.100594 
L 296.520321 122.100594 
L 296.520321 121.302178 
L 297.89421 121.302178 
L 297.89421 120.503762 
L 299.610714 120.503762 
L 299.610714 119.705347 
L 299.952932 119.705347 
L 300.033769 118.108515 
L 300.16701 118.108515 
L 300.16701 117.310099 
L 301.491517 117.310099 
L 301.491517 116.511683 
L 301.925164 116.511683 
L 301.925164 115.713267 
L 302.105642 115.713267 
L 302.207162 114.116436 
L 302.366318 114.116436 
L 302.366318 113.31802 
L 302.739934 113.31802 
L 302.755801 111.721188 
L 302.987251 111.721188 
L 302.987251 110.922772 
L 303.402207 110.922772 
L 303.402207 110.124356 
L 303.567366 110.124356 
L 303.567366 109.325941 
L 303.93556 109.325941 
L 303.952546 107.729109 
L 304.425796 107.729109 
L 304.425796 106.930693 
L 304.766329 106.930693 
L 304.76822 105.333861 
L 305.074445 105.333861 
L 305.074445 104.535446 
L 305.652014 104.535446 
L 305.652014 103.73703 
L 306.482118 103.73703 
L 306.482118 102.938614 
L 306.727642 102.938614 
L 306.727642 102.140198 
L 307.501917 102.140198 
L 307.501917 101.341782 
L 308.33864 101.341782 
L 308.397893 99.74495 
L 312.789717 99.74495 
L 312.832938 98.148119 
L 314.409417 98.148119 
L 314.409417 97.349703 
L 314.595549 97.349703 
L 314.595549 96.551287 
L 316.800651 96.551287 
L 316.800651 95.752871 
L 316.914943 95.752871 
L 316.914943 94.954455 
L 317.442 94.954455 
L 317.442 94.15604 
L 318.249119 94.15604 
L 318.249119 93.357624 
L 318.367718 93.357624 
L 318.367718 92.559208 
L 321.395997 92.559208 
L 321.395997 91.760792 
L 322.569325 91.760792 
L 322.623688 90.16396 
L 323.49609 90.16396 
L 323.49609 89.365545 
L 323.948189 89.365545 
L 323.948189 88.567129 
L 324.854866 88.567129 
L 324.854866 87.768713 
L 325.718235 87.768713 
L 325.718235 86.970297 
L 325.952224 86.970297 
L 325.952224 86.171881 
L 328.651427 86.171881 
L 328.651427 85.373465 
L 329.69503 85.373465 
L 329.747582 83.776634 
L 329.83897 83.776634 
L 329.83897 82.978218 
L 330.472363 82.978218 
L 330.472363 82.179802 
L 330.735664 82.179802 
L 330.735664 81.381386 
L 331.659513 81.381386 
L 331.659513 80.58297 
L 333.076075 80.58297 
L 333.076075 79.784554 
L 334.79055 79.784554 
L 334.79055 78.986139 
L 335.007308 78.986139 
L 335.007308 78.187723 
L 337.012687 78.187723 
L 337.012687 77.389307 
L 338.435545 77.389307 
L 338.435545 76.590891 
L 338.557297 76.590891 
L 338.557297 75.792475 
L 339.956526 75.792475 
L 339.956526 74.994059 
L 340.171639 74.994059 
L 340.171639 74.195644 
L 340.55122 74.195644 
L 340.55122 73.397228 
L 342.515115 73.397228 
L 342.515115 72.598812 
L 342.670044 72.598812 
L 342.670044 71.800396 
L 346.10463 71.800396 
L 346.10463 71.00198 
L 346.219819 71.00198 
L 346.237297 69.405149 
L 347.535896 69.405149 
L 347.535896 68.606733 
L 347.662053 68.606733 
L 347.662053 67.808317 
L 348.949138 67.808317 
L 348.949138 67.009901 
L 349.133916 67.009901 
L 349.133916 66.211485 
L 349.920713 66.211485 
L 349.920713 65.413069 
L 350.806973 65.413069 
L 350.806973 64.614653 
L 352.045084 64.614653 
L 352.060993 63.017822 
L 352.503606 63.017822 
L 352.503606 62.219406 
L 359.415405 62.219406 
L 359.415405 61.42099 
L 360.334248 61.42099 
L 360.334248 60.622574 
L 361.786788 60.622574 
L 361.786788 59.824158 
L 362.400662 59.824158 
L 362.400662 59.025743 
L 367.450244 59.025743 
L 367.450244 58.227327 
L 367.758306 58.227327 
L 367.758306 57.428911 
L 368.937039 57.428911 
L 368.99194 55.832079 
L 369.210584 55.832079 
L 369.210584 55.033663 
L 369.368243 55.033663 
L 369.368243 54.235248 
L 369.535993 54.235248 
L 369.535993 53.436832 
L 369.917427 53.436832 
L 369.917427 52.638416 
L 372.183822 52.638416 
L 372.183822 51.84 
L 374.372009 51.84 
L 374.372009 51.041584 
L 376.275822 51.041584 
L 376.349132 49.444752 
L 379.586184 49.444752 
L 379.586184 48.646337 
L 380.657812 48.646337 
L 380.657812 47.847921 
L 382.627552 47.847921 
L 382.627552 47.049505 
L 382.817619 47.049505 
L 382.840599 45.452673 
L 383.420648 45.452673 
L 383.420648 44.654257 
L 383.99807 44.654257 
L 383.99807 43.855842 
L 384.762321 43.855842 
L 384.762321 43.057426 
L 386.714949 43.057426 
L 386.714949 42.25901 
L 387.058969 42.25901 
L 387.058969 41.460594 
L 387.283208 41.460594 
L 387.283208 40.662178 
L 388.567006 40.662178 
L 388.641811 39.065347 
L 388.784023 39.065347 
L 388.784023 38.266931 
L 389.335994 38.266931 
L 389.335994 37.468515 
L 391.125824 37.468515 
L 391.20397 35.871683 
L 391.421161 35.871683 
L 391.421161 35.073267 
L 393.97567 35.073267 
L 393.97567 34.274851 
L 394.177407 34.274851 
L 394.177407 33.476436 
L 395.166711 33.476436 
L 395.166711 32.67802 
L 395.452273 32.67802 
L 395.452273 31.879604 
L 395.798281 31.879604 
L 395.798281 31.081188 
L 398.159664 31.081188 
L 398.159664 30.282772 
L 398.852222 30.282772 
L 398.852222 29.484356 
L 399.149051 29.484356 
L 399.149051 28.685941 
L 399.896479 28.685941 
L 399.896479 27.887525 
L 400.895785 27.887525 
L 400.895785 27.089109 
L 401.868193 27.089109 
L 401.868193 26.290693 
L 402.324227 26.290693 
L 402.324227 25.492277 
L 402.627586 25.492277 
L 402.627586 24.693861 
L 404.205265 24.693861 
L 404.205265 23.895446 
L 404.734138 23.895446 
L 404.734138 23.09703 
L 407.876661 23.09703 
L 407.986667 21.500198 
L 409.294105 21.500198 
L 409.294105 20.701782 
L 410.785156 20.701782 
L 410.853398 19.10495 
L 413.130634 19.10495 
L 413.130634 18.306535 
L 424.405457 18.306535 
L 424.405457 17.508119 
L 428.799213 17.508119 
L 428.799213 16.709703 
L 435.812226 16.709703 
L 435.812226 15.911287 
L 435.955097 15.911287 
L 435.955097 15.112871 
L 436.353328 15.112871 
L 436.353328 14.314455 
L 438.252936 14.314455 
L 438.252936 13.51604 
L 439.317433 13.51604 
L 439.317433 12.717624 
L 440.026245 12.717624 
L 440.026245 11.919208 
L 440.613385 11.919208 
L 440.613385 11.120792 
L 443.482732 11.120792 
L 443.482732 10.322376 
L 444.152904 10.322376 
L 444.152904 9.52396 
L 447.586313 9.52396 
L 447.586313 8.725545 
L 447.84228 8.725545 
L 447.84228 7.927129 
L 448.781816 7.927129 
L 448.781816 7.128713 
L 449.833366 7.128713 
L 449.833366 6.330297 
L 449.833366 6.330297 
L 460.8 6.330297 
L 460.8 6.330297 
" style="fill:none;stroke:#00bfbf;stroke-linecap:square;stroke-width:1.5;"/>
   </g>
   <g id="line2d_23">
    <path clip-path="url(#p4d6e296848)" d="M 230.500686 293.76 
L 230.500686 292.961584 
L 231.453661 292.961584 
L 231.453661 292.163168 
L 232.558394 292.163168 
L 232.558394 291.364752 
L 232.905084 291.364752 
L 232.905084 290.566337 
L 234.799281 290.566337 
L 234.799281 289.767921 
L 235.548382 289.767921 
L 235.548382 288.969505 
L 235.793659 288.969505 
L 235.793659 288.171089 
L 236.443155 288.171089 
L 236.443155 287.372673 
L 236.686597 287.372673 
L 236.686597 286.574257 
L 237.449439 286.574257 
L 237.449439 285.775842 
L 238.034744 285.775842 
L 238.034744 284.977426 
L 238.292963 284.977426 
L 238.292963 284.17901 
L 238.846368 284.17901 
L 238.923002 282.582178 
L 239.150294 282.582178 
L 239.150294 281.783762 
L 239.276437 281.783762 
L 239.276437 280.985347 
L 239.425073 280.985347 
L 239.425073 280.186931 
L 239.550527 280.186931 
L 239.567227 278.590099 
L 240.029964 278.590099 
L 240.048103 276.993267 
L 240.303897 276.993267 
L 240.303897 276.194851 
L 240.508317 276.194851 
L 240.508317 275.396436 
L 241.193056 275.396436 
L 241.254877 273.799604 
L 241.517461 273.799604 
L 241.615577 272.202772 
L 241.726163 272.202772 
L 241.751457 270.605941 
L 241.924843 270.605941 
L 241.999894 269.009109 
L 242.463663 269.009109 
L 242.548447 267.412277 
L 242.756551 267.412277 
L 242.787891 265.815446 
L 242.956667 265.815446 
L 242.956667 265.01703 
L 243.788561 265.01703 
L 243.788561 264.218614 
L 244.684252 264.218614 
L 244.684252 263.420198 
L 245.045397 263.420198 
L 245.045397 262.621782 
L 245.55806 262.621782 
L 245.55806 261.823366 
L 246.177185 261.823366 
L 246.177185 261.02495 
L 248.547926 261.02495 
L 248.547926 260.226535 
L 248.903654 260.226535 
L 249.013735 258.629703 
L 249.66425 258.629703 
L 249.66425 257.831287 
L 249.874356 257.831287 
L 249.874356 257.032871 
L 251.301094 257.032871 
L 251.301094 256.234455 
L 253.139387 256.234455 
L 253.156056 254.637624 
L 255.020363 254.637624 
L 255.020363 253.839208 
L 255.569954 253.839208 
L 255.569954 253.040792 
L 256.288647 253.040792 
L 256.288647 252.242376 
L 256.520388 252.242376 
L 256.520388 251.44396 
L 256.661001 251.44396 
L 256.661001 250.645545 
L 256.786547 250.645545 
L 256.786547 249.847129 
L 257.211341 249.847129 
L 257.211341 249.048713 
L 258.113012 249.048713 
L 258.113012 248.250297 
L 258.237352 248.250297 
L 258.237352 247.451881 
L 258.486375 247.451881 
L 258.486375 246.653465 
L 258.956237 246.653465 
L 259.005806 245.056634 
L 260.328465 245.056634 
L 260.328465 244.258218 
L 260.69502 244.258218 
L 260.69502 243.459802 
L 260.834945 243.459802 
L 260.834945 242.661386 
L 260.969841 242.661386 
L 261.074752 241.064554 
L 261.458735 241.064554 
L 261.509912 239.467723 
L 261.603534 239.467723 
L 261.603534 238.669307 
L 261.88991 238.669307 
L 261.963033 237.072475 
L 262.1223 237.072475 
L 262.1223 236.274059 
L 262.389164 236.274059 
L 262.389164 235.475644 
L 262.51712 235.475644 
L 262.58682 233.878812 
L 262.765677 233.878812 
L 262.765677 233.080396 
L 262.995263 233.080396 
L 262.995263 232.28198 
L 263.271859 232.28198 
L 263.299299 230.685149 
L 264.390074 230.685149 
L 264.488634 227.491485 
L 264.52747 227.491485 
L 264.620921 225.096238 
L 264.853089 225.096238 
L 264.853089 224.297822 
L 264.983848 224.297822 
L 265.090997 221.104158 
L 265.107458 221.104158 
L 265.178308 219.507327 
L 265.255529 219.507327 
L 265.352866 217.910495 
L 265.377661 217.910495 
L 265.460172 213.12 
L 265.567086 213.12 
L 265.666183 210.724752 
L 265.690615 210.724752 
L 265.789289 208.329505 
L 265.92781 208.329505 
L 266.028474 204.337426 
L 266.073734 204.337426 
L 266.18074 200.345347 
L 266.201691 200.345347 
L 266.201691 199.546931 
L 266.440699 199.546931 
L 266.440699 198.748515 
L 267.657841 198.748515 
L 267.657841 197.950099 
L 268.014158 197.950099 
L 268.014158 197.151683 
L 268.398381 197.151683 
L 268.398381 196.353267 
L 269.480671 196.353267 
L 269.480671 195.554851 
L 269.802382 195.554851 
L 269.802382 194.756436 
L 270.197296 194.756436 
L 270.197296 193.95802 
L 270.751874 193.95802 
L 270.751874 193.159604 
L 271.188793 193.159604 
L 271.188793 192.361188 
L 271.415808 192.361188 
L 271.415808 191.562772 
L 271.917826 191.562772 
L 271.917826 190.764356 
L 272.905055 190.764356 
L 272.905055 189.965941 
L 273.332631 189.965941 
L 273.332631 189.167525 
L 273.848867 189.167525 
L 273.848867 188.369109 
L 274.445898 188.369109 
L 274.445898 187.570693 
L 275.758562 187.570693 
L 275.758562 186.772277 
L 276.849672 186.772277 
L 276.849672 185.973861 
L 280.320115 185.973861 
L 280.419196 184.37703 
L 280.730353 184.37703 
L 280.772953 182.780198 
L 281.03451 182.780198 
L 281.144578 181.183366 
L 281.284761 181.183366 
L 281.322006 178.788119 
L 281.401071 178.788119 
L 281.503621 177.191287 
L 281.560122 177.191287 
L 281.560122 176.392871 
L 281.996531 176.392871 
L 282.055196 174.79604 
L 282.212202 174.79604 
L 282.248967 173.199208 
L 282.480423 173.199208 
L 282.480423 172.400792 
L 282.677579 172.400792 
L 282.752705 170.80396 
L 283.01326 170.80396 
L 283.034921 169.207129 
L 283.426654 169.207129 
L 283.441862 167.610297 
L 283.641563 167.610297 
L 283.711784 165.21505 
L 283.959154 165.21505 
L 284.001691 163.618218 
L 284.185611 163.618218 
L 284.248301 161.22297 
L 284.454025 161.22297 
L 284.454025 160.424554 
L 285.829946 160.424554 
L 285.829946 159.626139 
L 286.746117 159.626139 
L 286.746117 158.827723 
L 287.252143 158.827723 
L 287.252143 158.029307 
L 287.63792 158.029307 
L 287.63792 157.230891 
L 287.823392 157.230891 
L 287.865446 155.634059 
L 288.30511 155.634059 
L 288.413809 153.238812 
L 288.470654 153.238812 
L 288.470654 152.440396 
L 288.727717 152.440396 
L 288.727717 151.64198 
L 289.065696 151.64198 
L 289.082911 149.246733 
L 289.2084 149.246733 
L 289.2084 148.448317 
L 289.353886 148.448317 
L 289.353886 147.649901 
L 289.497434 147.649901 
L 289.497434 146.851485 
L 289.832672 146.851485 
L 289.832672 146.053069 
L 290.044207 146.053069 
L 290.044207 145.254653 
L 290.345099 145.254653 
L 290.345099 144.456238 
L 290.485112 144.456238 
L 290.485112 143.657822 
L 291.100919 143.657822 
L 291.100919 142.859406 
L 291.294993 142.859406 
L 291.294993 142.06099 
L 291.408719 142.06099 
L 291.423455 140.464158 
L 291.608872 140.464158 
L 291.675437 138.068911 
L 291.959651 138.068911 
L 291.959651 137.270495 
L 292.073614 137.270495 
L 292.073614 136.472079 
L 292.193123 136.472079 
L 292.293605 134.076832 
L 292.50668 134.076832 
L 292.562683 132.48 
L 292.645115 132.48 
L 292.672409 130.883168 
L 292.890785 130.883168 
L 292.890785 130.084752 
L 293.028634 130.084752 
L 293.113107 128.487921 
L 293.627109 128.487921 
L 293.627109 127.689505 
L 293.916274 127.689505 
L 294.026314 124.495842 
L 294.131713 124.495842 
L 294.170378 122.89901 
L 294.62905 122.89901 
L 294.62905 122.100594 
L 295.154474 122.100594 
L 295.154474 121.302178 
L 295.393403 121.302178 
L 295.393403 120.503762 
L 296.140668 120.503762 
L 296.140668 119.705347 
L 296.520321 119.705347 
L 296.520321 118.906931 
L 297.89421 118.906931 
L 297.89421 118.108515 
L 299.610714 118.108515 
L 299.719536 116.511683 
L 299.952932 116.511683 
L 299.976219 114.914851 
L 300.086978 114.914851 
L 300.086978 114.116436 
L 300.732646 114.116436 
L 300.732646 113.31802 
L 301.491517 113.31802 
L 301.491517 112.519604 
L 301.744383 112.519604 
L 301.744383 111.721188 
L 301.921618 111.721188 
L 301.921618 110.922772 
L 302.347297 110.922772 
L 302.366318 109.325941 
L 302.539983 109.325941 
L 302.539983 108.527525 
L 302.828899 108.527525 
L 302.916853 106.930693 
L 303.402207 106.930693 
L 303.424839 105.333861 
L 303.93556 105.333861 
L 303.952546 103.73703 
L 304.761709 103.73703 
L 304.76822 101.341782 
L 304.917664 101.341782 
L 304.917664 100.543366 
L 305.074445 100.543366 
L 305.074445 99.74495 
L 305.652014 99.74495 
L 305.652014 98.946535 
L 306.268241 98.946535 
L 306.268241 98.148119 
L 306.482118 98.148119 
L 306.482118 97.349703 
L 306.600149 97.349703 
L 306.600149 96.551287 
L 307.186365 96.551287 
L 307.186365 95.752871 
L 308.397893 95.752871 
L 308.397893 94.954455 
L 308.962866 94.954455 
L 308.962866 94.15604 
L 310.135029 94.15604 
L 310.135029 93.357624 
L 311.798266 93.357624 
L 311.798266 92.559208 
L 312.832938 92.559208 
L 312.832938 91.760792 
L 316.510164 91.760792 
L 316.510164 90.962376 
L 317.681043 90.962376 
L 317.681043 90.16396 
L 322.188242 90.16396 
L 322.188242 89.365545 
L 322.454695 89.365545 
L 322.454695 88.567129 
L 322.623688 88.567129 
L 322.623688 87.768713 
L 323.49609 87.768713 
L 323.49609 86.970297 
L 323.948189 86.970297 
L 323.948189 86.171881 
L 324.854866 86.171881 
L 324.854866 85.373465 
L 324.97069 85.373465 
L 324.97069 84.57505 
L 327.709493 84.57505 
L 327.709493 83.776634 
L 328.651427 83.776634 
L 328.651427 82.978218 
L 328.939244 82.978218 
L 328.939244 82.179802 
L 329.747582 82.179802 
L 329.825664 80.58297 
L 330.735664 80.58297 
L 330.735664 79.784554 
L 330.884869 79.784554 
L 330.884869 78.986139 
L 331.299732 78.986139 
L 331.299732 78.187723 
L 333.374937 78.187723 
L 333.374937 77.389307 
L 334.241804 77.389307 
L 334.241804 76.590891 
L 334.362739 76.590891 
L 334.362739 75.792475 
L 334.83128 75.792475 
L 334.83128 74.994059 
L 335.007308 74.994059 
L 335.007308 74.195644 
L 336.198991 74.195644 
L 336.198991 73.397228 
L 338.724786 73.397228 
L 338.724786 72.598812 
L 340.469573 72.598812 
L 340.55122 71.00198 
L 340.864069 71.00198 
L 340.864069 70.203564 
L 342.670044 70.203564 
L 342.670044 69.405149 
L 342.832033 69.405149 
L 342.832033 68.606733 
L 344.535915 68.606733 
L 344.535915 67.808317 
L 344.934401 67.808317 
L 344.934401 67.009901 
L 348.056414 67.009901 
L 348.056414 66.211485 
L 348.35145 66.211485 
L 348.35145 65.413069 
L 349.314972 65.413069 
L 349.314972 64.614653 
L 351.107735 64.614653 
L 351.107735 63.816238 
L 351.677075 63.816238 
L 351.677075 63.017822 
L 352.060993 63.017822 
L 352.060993 62.219406 
L 359.415405 62.219406 
L 359.415405 61.42099 
L 360.334248 61.42099 
L 360.334248 60.622574 
L 361.786788 60.622574 
L 361.786788 59.824158 
L 362.19843 59.824158 
L 362.19843 59.025743 
L 366.109973 59.025743 
L 366.109973 58.227327 
L 366.392436 58.227327 
L 366.392436 57.428911 
L 367.450244 57.428911 
L 367.450244 56.630495 
L 368.657847 56.630495 
L 368.657847 55.832079 
L 368.99194 55.832079 
L 368.99194 55.033663 
L 369.210584 55.033663 
L 369.210584 54.235248 
L 369.368243 54.235248 
L 369.368243 53.436832 
L 369.917427 53.436832 
L 369.917427 52.638416 
L 372.183822 52.638416 
L 372.183822 51.84 
L 374.372009 51.84 
L 374.372009 51.041584 
L 375.542102 51.041584 
L 375.542102 50.243168 
L 376.30259 50.243168 
L 376.30259 49.444752 
L 379.586184 49.444752 
L 379.586184 48.646337 
L 380.298551 48.646337 
L 380.298551 47.847921 
L 381.62107 47.847921 
L 381.62381 46.251089 
L 382.840599 46.251089 
L 382.840599 45.452673 
L 383.420648 45.452673 
L 383.420648 44.654257 
L 383.99807 44.654257 
L 383.99807 43.855842 
L 384.762321 43.855842 
L 384.762321 43.057426 
L 385.822979 43.057426 
L 385.822979 42.25901 
L 386.631905 42.25901 
L 386.714949 40.662178 
L 387.058969 40.662178 
L 387.058969 39.863762 
L 387.283208 39.863762 
L 387.283208 39.065347 
L 388.567006 39.065347 
L 388.619529 37.468515 
L 389.273799 37.468515 
L 389.273799 36.670099 
L 391.20397 36.670099 
L 391.20397 35.871683 
L 391.421161 35.871683 
L 391.421161 35.073267 
L 393.97567 35.073267 
L 393.97567 34.274851 
L 394.177407 34.274851 
L 394.177407 33.476436 
L 394.946671 33.476436 
L 394.946671 32.67802 
L 395.452273 32.67802 
L 395.452273 31.879604 
L 395.798281 31.879604 
L 395.798281 31.081188 
L 397.285733 31.081188 
L 397.285733 30.282772 
L 398.159664 30.282772 
L 398.159664 29.484356 
L 399.149051 29.484356 
L 399.149051 28.685941 
L 399.896479 28.685941 
L 399.896479 27.887525 
L 400.895785 27.887525 
L 400.895785 27.089109 
L 401.246953 27.089109 
L 401.246953 26.290693 
L 402.324227 26.290693 
L 402.324227 25.492277 
L 402.627586 25.492277 
L 402.627586 24.693861 
L 403.026614 24.693861 
L 403.026614 23.895446 
L 404.205265 23.895446 
L 404.205265 23.09703 
L 407.024884 23.09703 
L 407.024884 22.298614 
L 407.646266 22.298614 
L 407.646266 21.500198 
L 407.986667 21.500198 
L 407.986667 20.701782 
L 409.294105 20.701782 
L 409.294105 19.903366 
L 409.5256 19.903366 
L 409.5256 19.10495 
L 410.785156 19.10495 
L 410.785156 18.306535 
L 424.405457 18.306535 
L 424.405457 17.508119 
L 426.409876 17.508119 
L 426.409876 16.709703 
L 434.799271 16.709703 
L 434.799271 15.911287 
L 435.812226 15.911287 
L 435.812226 15.112871 
L 435.955097 15.112871 
L 435.955097 14.314455 
L 436.353328 14.314455 
L 436.353328 13.51604 
L 438.252936 13.51604 
L 438.252936 12.717624 
L 439.317433 12.717624 
L 439.317433 11.919208 
L 440.613385 11.919208 
L 440.613385 11.120792 
L 442.549631 11.120792 
L 442.549631 10.322376 
L 444.152904 10.322376 
L 444.152904 9.52396 
L 445.50649 9.52396 
L 445.50649 8.725545 
L 447.463613 8.725545 
L 447.463613 7.927129 
L 448.418413 7.927129 
L 448.418413 7.128713 
L 449.833366 7.128713 
L 449.833366 6.330297 
L 449.833366 6.330297 
L 460.8 6.330297 
L 460.8 6.330297 
" style="fill:none;stroke:#bf00bf;stroke-linecap:square;stroke-width:1.5;"/>
   </g>
   <g id="patch_3">
    <path d="M 0 293.76 
L 0 3.456 
" style="fill:none;stroke:#000000;stroke-linecap:square;stroke-linejoin:miter;stroke-width:0.8;"/>
   </g>
   <g id="patch_4">
    <path d="M 460.8 293.76 
L 460.8 3.456 
" style="fill:none;stroke:#000000;stroke-linecap:square;stroke-linejoin:miter;stroke-width:0.8;"/>
   </g>
   <g id="patch_5">
    <path d="M 0 293.76 
L 460.8 293.76 
" style="fill:none;stroke:#000000;stroke-linecap:square;stroke-linejoin:miter;stroke-width:0.8;"/>
   </g>
   <g id="patch_6">
    <path d="M 0 3.456 
L 460.8 3.456 
" style="fill:none;stroke:#000000;stroke-linecap:square;stroke-linejoin:miter;stroke-width:0.8;"/>
   </g>
   <g id="text_6">
    <!-- {f1-f24}, 20-D -->
    <defs>
     <path d="M 51.125 -9.28125 
L 51.125 -16.3125 
L 48.09375 -16.3125 
Q 35.9375 -16.3125 31.8125 -12.6875 
Q 27.6875 -9.078125 27.6875 1.703125 
L 27.6875 13.375 
Q 27.6875 20.75 25.046875 23.578125 
Q 22.40625 26.421875 15.484375 26.421875 
L 12.5 26.421875 
L 12.5 33.40625 
L 15.484375 33.40625 
Q 22.46875 33.40625 25.078125 36.203125 
Q 27.6875 39.015625 27.6875 46.296875 
L 27.6875 58.015625 
Q 27.6875 68.796875 31.8125 72.390625 
Q 35.9375 75.984375 48.09375 75.984375 
L 51.125 75.984375 
L 51.125 69 
L 47.796875 69 
Q 40.921875 69 38.8125 66.84375 
Q 36.71875 64.703125 36.71875 57.8125 
L 36.71875 45.703125 
Q 36.71875 38.03125 34.5 34.5625 
Q 32.28125 31.109375 26.90625 29.890625 
Q 32.328125 28.5625 34.515625 25.09375 
Q 36.71875 21.625 36.71875 14.015625 
L 36.71875 1.90625 
Q 36.71875 -4.984375 38.8125 -7.125 
Q 40.921875 -9.28125 47.796875 -9.28125 
z
" id="DejaVuSans-123"/>
     <path d="M 19.1875 8.296875 
L 53.609375 8.296875 
L 53.609375 0 
L 7.328125 0 
L 7.328125 8.296875 
Q 12.9375 14.109375 22.625 23.890625 
Q 32.328125 33.6875 34.8125 36.53125 
Q 39.546875 41.84375 41.421875 45.53125 
Q 43.3125 49.21875 43.3125 52.78125 
Q 43.3125 58.59375 39.234375 62.25 
Q 35.15625 65.921875 28.609375 65.921875 
Q 23.96875 65.921875 18.8125 64.3125 
Q 13.671875 62.703125 7.8125 59.421875 
L 7.8125 69.390625 
Q 13.765625 71.78125 18.9375 73 
Q 24.125 74.21875 28.421875 74.21875 
Q 39.75 74.21875 46.484375 68.546875 
Q 53.21875 62.890625 53.21875 53.421875 
Q 53.21875 48.921875 51.53125 44.890625 
Q 49.859375 40.875 45.40625 35.40625 
Q 44.1875 33.984375 37.640625 27.21875 
Q 31.109375 20.453125 19.1875 8.296875 
z
" id="DejaVuSans-50"/>
     <path d="M 12.5 -9.28125 
L 15.921875 -9.28125 
Q 22.75 -9.28125 24.828125 -7.171875 
Q 26.90625 -5.078125 26.90625 1.90625 
L 26.90625 14.015625 
Q 26.90625 21.625 29.09375 25.09375 
Q 31.296875 28.5625 36.71875 29.890625 
Q 31.296875 31.109375 29.09375 34.5625 
Q 26.90625 38.03125 26.90625 45.703125 
L 26.90625 57.8125 
Q 26.90625 64.75 24.828125 66.875 
Q 22.75 69 15.921875 69 
L 12.5 69 
L 12.5 75.984375 
L 15.578125 75.984375 
Q 27.734375 75.984375 31.8125 72.390625 
Q 35.890625 68.796875 35.890625 58.015625 
L 35.890625 46.296875 
Q 35.890625 39.015625 38.515625 36.203125 
Q 41.15625 33.40625 48.09375 33.40625 
L 51.125 33.40625 
L 51.125 26.421875 
L 48.09375 26.421875 
Q 41.15625 26.421875 38.515625 23.578125 
Q 35.890625 20.75 35.890625 13.375 
L 35.890625 1.703125 
Q 35.890625 -9.078125 31.8125 -12.6875 
Q 27.734375 -16.3125 15.578125 -16.3125 
L 12.5 -16.3125 
z
" id="DejaVuSans-125"/>
     <path d="M 11.71875 12.40625 
L 22.015625 12.40625 
L 22.015625 4 
L 14.015625 -11.625 
L 7.71875 -11.625 
L 11.71875 4 
z
" id="DejaVuSans-44"/>
    </defs>
    <g transform="translate(305.884 287.95392)scale(0.2 -0.2)">
     <use xlink:href="#DejaVuSans-123"/>
     <use x="63.623047" xlink:href="#DejaVuSans-102"/>
     <use x="98.828125" xlink:href="#DejaVuSans-49"/>
     <use x="162.451172" xlink:href="#DejaVuSans-45"/>
     <use x="198.535156" xlink:href="#DejaVuSans-102"/>
     <use x="233.740234" xlink:href="#DejaVuSans-50"/>
     <use x="297.363281" xlink:href="#DejaVuSans-52"/>
     <use x="360.986328" xlink:href="#DejaVuSans-125"/>
     <use x="424.609375" xlink:href="#DejaVuSans-44"/>
     <use x="456.396484" xlink:href="#DejaVuSans-32"/>
     <use x="488.183594" xlink:href="#DejaVuSans-50"/>
     <use x="551.806641" xlink:href="#DejaVuSans-48"/>
     <use x="615.429688" xlink:href="#DejaVuSans-45"/>
     <use x="651.513672" xlink:href="#DejaVuSans-68"/>
    </g>
   </g>
   <g id="text_7">
    <!-- v2.4 -->
    <defs>
     <path d="M 2.984375 54.6875 
L 12.5 54.6875 
L 29.59375 8.796875 
L 46.6875 54.6875 
L 56.203125 54.6875 
L 35.6875 0 
L 23.484375 0 
z
" id="DejaVuSans-118"/>
     <path d="M 10.6875 12.40625 
L 21 12.40625 
L 21 0 
L 10.6875 0 
z
" id="DejaVuSans-46"/>
    </defs>
    <g style="fill:#808080;" transform="translate(219.489063 288.777272)scale(0.1 -0.1)">
     <use xlink:href="#DejaVuSans-118"/>
     <use x="59.179688" xlink:href="#DejaVuSans-50"/>
     <use x="122.802734" xlink:href="#DejaVuSans-46"/>
     <use x="154.589844" xlink:href="#DejaVuSans-52"/>
    </g>
   </g>
  </g>
 </g>
 <defs>
  <clipPath id="p4d6e296848">
   <rect height="290.304" width="460.8" x="0" y="3.456"/>
  </clipPath>
 </defs>
</svg>
