<?xml version="1.0" encoding="utf-8" standalone="no"?>
<!DOCTYPE svg PUBLIC "-//W3C//DTD SVG 1.1//EN"
  "http://www.w3.org/Graphics/SVG/1.1/DTD/svg11.dtd">
<!-- Created with matplotlib (https://matplotlib.org/) -->
<svg height="345.6pt" version="1.1" viewBox="0 0 460.8 345.6" width="460.8pt" xmlns="http://www.w3.org/2000/svg" xmlns:xlink="http://www.w3.org/1999/xlink">
 <defs>
  <style type="text/css">
*{stroke-linecap:butt;stroke-linejoin:round;}
  </style>
 </defs>
 <g id="figure_1">
  <g id="patch_1">
   <path d="M 0 345.6 
L 460.8 345.6 
L 460.8 0 
L 0 0 
z
" style="fill:#ffffff;"/>
  </g>
  <g id="axes_1">
   <g id="patch_2">
    <path d="M 0 293.76 
L 460.8 293.76 
L 460.8 3.456 
L 0 3.456 
z
" style="fill:#ffffff;"/>
   </g>
   <g id="matplotlib.axis_1">
    <g id="xtick_1">
     <g id="line2d_1">
      <path clip-path="url(#p572f19410a)" d="M 108.437912 293.76 
L 108.437912 3.456 
" style="fill:none;stroke:#b0b0b0;stroke-linecap:square;stroke-width:0.8;"/>
     </g>
     <g id="line2d_2">
      <defs>
       <path d="M 0 0 
L 0 3.5 
" id="m00390db89f" style="stroke:#000000;stroke-width:0.8;"/>
      </defs>
      <g>
       <use style="stroke:#000000;stroke-width:0.8;" x="108.437912" xlink:href="#m00390db89f" y="293.76"/>
      </g>
     </g>
     <g id="text_1">
      <!-- -4 -->
      <defs>
       <path d="M 4.890625 31.390625 
L 31.203125 31.390625 
L 31.203125 23.390625 
L 4.890625 23.390625 
z
" id="DejaVuSans-45"/>
       <path d="M 37.796875 64.3125 
L 12.890625 25.390625 
L 37.796875 25.390625 
z
M 35.203125 72.90625 
L 47.609375 72.90625 
L 47.609375 25.390625 
L 58.015625 25.390625 
L 58.015625 17.1875 
L 47.609375 17.1875 
L 47.609375 0 
L 37.796875 0 
L 37.796875 17.1875 
L 4.890625 17.1875 
L 4.890625 26.703125 
z
" id="DejaVuSans-52"/>
      </defs>
      <g transform="translate(98.467599 315.956875)scale(0.2 -0.2)">
       <use xlink:href="#DejaVuSans-45"/>
       <use x="36.083984" xlink:href="#DejaVuSans-52"/>
      </g>
     </g>
    </g>
    <g id="xtick_2">
     <g id="line2d_3">
      <path clip-path="url(#p572f19410a)" d="M 216.993101 293.76 
L 216.993101 3.456 
" style="fill:none;stroke:#b0b0b0;stroke-linecap:square;stroke-width:0.8;"/>
     </g>
     <g id="line2d_4">
      <g>
       <use style="stroke:#000000;stroke-width:0.8;" x="216.993101" xlink:href="#m00390db89f" y="293.76"/>
      </g>
     </g>
     <g id="text_2">
      <!-- 0 -->
      <defs>
       <path d="M 31.78125 66.40625 
Q 24.171875 66.40625 20.328125 58.90625 
Q 16.5 51.421875 16.5 36.375 
Q 16.5 21.390625 20.328125 13.890625 
Q 24.171875 6.390625 31.78125 6.390625 
Q 39.453125 6.390625 43.28125 13.890625 
Q 47.125 21.390625 47.125 36.375 
Q 47.125 51.421875 43.28125 58.90625 
Q 39.453125 66.40625 31.78125 66.40625 
z
M 31.78125 74.21875 
Q 44.046875 74.21875 50.515625 64.515625 
Q 56.984375 54.828125 56.984375 36.375 
Q 56.984375 17.96875 50.515625 8.265625 
Q 44.046875 -1.421875 31.78125 -1.421875 
Q 19.53125 -1.421875 13.0625 8.265625 
Q 6.59375 17.96875 6.59375 36.375 
Q 6.59375 54.828125 13.0625 64.515625 
Q 19.53125 74.21875 31.78125 74.21875 
z
" id="DejaVuSans-48"/>
      </defs>
      <g transform="translate(210.630601 315.956875)scale(0.2 -0.2)">
       <use xlink:href="#DejaVuSans-48"/>
      </g>
     </g>
    </g>
    <g id="xtick_3">
     <g id="line2d_5">
      <path clip-path="url(#p572f19410a)" d="M 325.548289 293.76 
L 325.548289 3.456 
" style="fill:none;stroke:#b0b0b0;stroke-linecap:square;stroke-width:0.8;"/>
     </g>
     <g id="line2d_6">
      <g>
       <use style="stroke:#000000;stroke-width:0.8;" x="325.548289" xlink:href="#m00390db89f" y="293.76"/>
      </g>
     </g>
     <g id="text_3">
      <!-- 4 -->
      <g transform="translate(319.185789 315.956875)scale(0.2 -0.2)">
       <use xlink:href="#DejaVuSans-52"/>
      </g>
     </g>
    </g>
    <g id="xtick_4">
     <g id="line2d_7">
      <path clip-path="url(#p572f19410a)" d="M 434.103478 293.76 
L 434.103478 3.456 
" style="fill:none;stroke:#b0b0b0;stroke-linecap:square;stroke-width:0.8;"/>
     </g>
     <g id="line2d_8">
      <g>
       <use style="stroke:#000000;stroke-width:0.8;" x="434.103478" xlink:href="#m00390db89f" y="293.76"/>
      </g>
     </g>
     <g id="text_4">
      <!-- 8 -->
      <defs>
       <path d="M 31.78125 34.625 
Q 24.75 34.625 20.71875 30.859375 
Q 16.703125 27.09375 16.703125 20.515625 
Q 16.703125 13.921875 20.71875 10.15625 
Q 24.75 6.390625 31.78125 6.390625 
Q 38.8125 6.390625 42.859375 10.171875 
Q 46.921875 13.96875 46.921875 20.515625 
Q 46.921875 27.09375 42.890625 30.859375 
Q 38.875 34.625 31.78125 34.625 
z
M 21.921875 38.8125 
Q 15.578125 40.375 12.03125 44.71875 
Q 8.5 49.078125 8.5 55.328125 
Q 8.5 64.0625 14.71875 69.140625 
Q 20.953125 74.21875 31.78125 74.21875 
Q 42.671875 74.21875 48.875 69.140625 
Q 55.078125 64.0625 55.078125 55.328125 
Q 55.078125 49.078125 51.53125 44.71875 
Q 48 40.375 41.703125 38.8125 
Q 48.828125 37.15625 52.796875 32.3125 
Q 56.78125 27.484375 56.78125 20.515625 
Q 56.78125 9.90625 50.3125 4.234375 
Q 43.84375 -1.421875 31.78125 -1.421875 
Q 19.734375 -1.421875 13.25 4.234375 
Q 6.78125 9.90625 6.78125 20.515625 
Q 6.78125 27.484375 10.78125 32.3125 
Q 14.796875 37.15625 21.921875 38.8125 
z
M 18.3125 54.390625 
Q 18.3125 48.734375 21.84375 45.5625 
Q 25.390625 42.390625 31.78125 42.390625 
Q 38.140625 42.390625 41.71875 45.5625 
Q 45.3125 48.734375 45.3125 54.390625 
Q 45.3125 60.0625 41.71875 63.234375 
Q 38.140625 66.40625 31.78125 66.40625 
Q 25.390625 66.40625 21.84375 63.234375 
Q 18.3125 60.0625 18.3125 54.390625 
z
" id="DejaVuSans-56"/>
      </defs>
      <g transform="translate(427.740978 315.956875)scale(0.2 -0.2)">
       <use xlink:href="#DejaVuSans-56"/>
      </g>
     </g>
    </g>
    <g id="text_5">
     <!-- log10 of Df -->
     <defs>
      <path d="M 9.421875 75.984375 
L 18.40625 75.984375 
L 18.40625 0 
L 9.421875 0 
z
" id="DejaVuSans-108"/>
      <path d="M 30.609375 48.390625 
Q 23.390625 48.390625 19.1875 42.75 
Q 14.984375 37.109375 14.984375 27.296875 
Q 14.984375 17.484375 19.15625 11.84375 
Q 23.34375 6.203125 30.609375 6.203125 
Q 37.796875 6.203125 41.984375 11.859375 
Q 46.1875 17.53125 46.1875 27.296875 
Q 46.1875 37.015625 41.984375 42.703125 
Q 37.796875 48.390625 30.609375 48.390625 
z
M 30.609375 56 
Q 42.328125 56 49.015625 48.375 
Q 55.71875 40.765625 55.71875 27.296875 
Q 55.71875 13.875 49.015625 6.21875 
Q 42.328125 -1.421875 30.609375 -1.421875 
Q 18.84375 -1.421875 12.171875 6.21875 
Q 5.515625 13.875 5.515625 27.296875 
Q 5.515625 40.765625 12.171875 48.375 
Q 18.84375 56 30.609375 56 
z
" id="DejaVuSans-111"/>
      <path d="M 45.40625 27.984375 
Q 45.40625 37.75 41.375 43.109375 
Q 37.359375 48.484375 30.078125 48.484375 
Q 22.859375 48.484375 18.828125 43.109375 
Q 14.796875 37.75 14.796875 27.984375 
Q 14.796875 18.265625 18.828125 12.890625 
Q 22.859375 7.515625 30.078125 7.515625 
Q 37.359375 7.515625 41.375 12.890625 
Q 45.40625 18.265625 45.40625 27.984375 
z
M 54.390625 6.78125 
Q 54.390625 -7.171875 48.1875 -13.984375 
Q 42 -20.796875 29.203125 -20.796875 
Q 24.46875 -20.796875 20.265625 -20.09375 
Q 16.0625 -19.390625 12.109375 -17.921875 
L 12.109375 -9.1875 
Q 16.0625 -11.328125 19.921875 -12.34375 
Q 23.78125 -13.375 27.78125 -13.375 
Q 36.625 -13.375 41.015625 -8.765625 
Q 45.40625 -4.15625 45.40625 5.171875 
L 45.40625 9.625 
Q 42.625 4.78125 38.28125 2.390625 
Q 33.9375 0 27.875 0 
Q 17.828125 0 11.671875 7.65625 
Q 5.515625 15.328125 5.515625 27.984375 
Q 5.515625 40.671875 11.671875 48.328125 
Q 17.828125 56 27.875 56 
Q 33.9375 56 38.28125 53.609375 
Q 42.625 51.21875 45.40625 46.390625 
L 45.40625 54.6875 
L 54.390625 54.6875 
z
" id="DejaVuSans-103"/>
      <path d="M 12.40625 8.296875 
L 28.515625 8.296875 
L 28.515625 63.921875 
L 10.984375 60.40625 
L 10.984375 69.390625 
L 28.421875 72.90625 
L 38.28125 72.90625 
L 38.28125 8.296875 
L 54.390625 8.296875 
L 54.390625 0 
L 12.40625 0 
z
" id="DejaVuSans-49"/>
      <path id="DejaVuSans-32"/>
      <path d="M 37.109375 75.984375 
L 37.109375 68.5 
L 28.515625 68.5 
Q 23.6875 68.5 21.796875 66.546875 
Q 19.921875 64.59375 19.921875 59.515625 
L 19.921875 54.6875 
L 34.71875 54.6875 
L 34.71875 47.703125 
L 19.921875 47.703125 
L 19.921875 0 
L 10.890625 0 
L 10.890625 47.703125 
L 2.296875 47.703125 
L 2.296875 54.6875 
L 10.890625 54.6875 
L 10.890625 58.5 
Q 10.890625 67.625 15.140625 71.796875 
Q 19.390625 75.984375 28.609375 75.984375 
z
" id="DejaVuSans-102"/>
      <path d="M 19.671875 64.796875 
L 19.671875 8.109375 
L 31.59375 8.109375 
Q 46.6875 8.109375 53.6875 14.9375 
Q 60.6875 21.78125 60.6875 36.53125 
Q 60.6875 51.171875 53.6875 57.984375 
Q 46.6875 64.796875 31.59375 64.796875 
z
M 9.8125 72.90625 
L 30.078125 72.90625 
Q 51.265625 72.90625 61.171875 64.09375 
Q 71.09375 55.28125 71.09375 36.53125 
Q 71.09375 17.671875 61.125 8.828125 
Q 51.171875 0 30.078125 0 
L 9.8125 0 
z
" id="DejaVuSans-68"/>
     </defs>
     <g transform="translate(175.214063 339.313125)scale(0.2 -0.2)">
      <use xlink:href="#DejaVuSans-108"/>
      <use x="27.783203" xlink:href="#DejaVuSans-111"/>
      <use x="88.964844" xlink:href="#DejaVuSans-103"/>
      <use x="152.441406" xlink:href="#DejaVuSans-49"/>
      <use x="216.064453" xlink:href="#DejaVuSans-48"/>
      <use x="279.6875" xlink:href="#DejaVuSans-32"/>
      <use x="311.474609" xlink:href="#DejaVuSans-111"/>
      <use x="372.65625" xlink:href="#DejaVuSans-102"/>
      <use x="407.861328" xlink:href="#DejaVuSans-32"/>
      <use x="439.648438" xlink:href="#DejaVuSans-68"/>
      <use x="516.650391" xlink:href="#DejaVuSans-102"/>
     </g>
    </g>
   </g>
   <g id="matplotlib.axis_2">
    <g id="ytick_1">
     <g id="line2d_9">
      <path clip-path="url(#p572f19410a)" d="M 0 293.76 
L 460.8 293.76 
" style="fill:none;stroke:#b0b0b0;stroke-linecap:square;stroke-width:0.8;"/>
     </g>
     <g id="line2d_10">
      <defs>
       <path d="M 0 0 
L -3.5 0 
" id="mef28e30d74" style="stroke:#000000;stroke-width:0.8;"/>
      </defs>
      <g>
       <use style="stroke:#000000;stroke-width:0.8;" x="0" xlink:href="#mef28e30d74" y="293.76"/>
      </g>
     </g>
    </g>
    <g id="ytick_2">
     <g id="line2d_11">
      <path clip-path="url(#p572f19410a)" d="M 0 236.274059 
L 460.8 236.274059 
" style="fill:none;stroke:#b0b0b0;stroke-linecap:square;stroke-width:0.8;"/>
     </g>
     <g id="line2d_12">
      <g>
       <use style="stroke:#000000;stroke-width:0.8;" x="0" xlink:href="#mef28e30d74" y="236.274059"/>
      </g>
     </g>
    </g>
    <g id="ytick_3">
     <g id="line2d_13">
      <path clip-path="url(#p572f19410a)" d="M 0 178.788119 
L 460.8 178.788119 
" style="fill:none;stroke:#b0b0b0;stroke-linecap:square;stroke-width:0.8;"/>
     </g>
     <g id="line2d_14">
      <g>
       <use style="stroke:#000000;stroke-width:0.8;" x="0" xlink:href="#mef28e30d74" y="178.788119"/>
      </g>
     </g>
    </g>
    <g id="ytick_4">
     <g id="line2d_15">
      <path clip-path="url(#p572f19410a)" d="M 0 121.302178 
L 460.8 121.302178 
" style="fill:none;stroke:#b0b0b0;stroke-linecap:square;stroke-width:0.8;"/>
     </g>
     <g id="line2d_16">
      <g>
       <use style="stroke:#000000;stroke-width:0.8;" x="0" xlink:href="#mef28e30d74" y="121.302178"/>
      </g>
     </g>
    </g>
    <g id="ytick_5">
     <g id="line2d_17">
      <path clip-path="url(#p572f19410a)" d="M 0 63.816238 
L 460.8 63.816238 
" style="fill:none;stroke:#b0b0b0;stroke-linecap:square;stroke-width:0.8;"/>
     </g>
     <g id="line2d_18">
      <g>
       <use style="stroke:#000000;stroke-width:0.8;" x="0" xlink:href="#mef28e30d74" y="63.816238"/>
      </g>
     </g>
    </g>
    <g id="ytick_6">
     <g id="line2d_19">
      <path clip-path="url(#p572f19410a)" d="M 0 6.330297 
L 460.8 6.330297 
" style="fill:none;stroke:#b0b0b0;stroke-linecap:square;stroke-width:0.8;"/>
     </g>
     <g id="line2d_20">
      <g>
       <use style="stroke:#000000;stroke-width:0.8;" x="0" xlink:href="#mef28e30d74" y="6.330297"/>
      </g>
     </g>
    </g>
   </g>
   <g id="line2d_21">
    <path clip-path="url(#p572f19410a)" d="M 236.134837 293.76 
L 236.134837 289.927604 
L 239.251783 289.927604 
L 239.251783 286.095208 
L 240.985454 286.095208 
L 240.985454 282.262812 
L 244.062926 282.262812 
L 244.062926 278.430416 
L 245.107761 278.430416 
L 245.204827 270.765624 
L 245.764544 270.765624 
L 245.764544 266.933228 
L 246.373701 266.933228 
L 246.373701 263.100832 
L 247.283535 263.100832 
L 247.283535 259.268436 
L 249.925619 259.268436 
L 249.925619 255.43604 
L 253.558848 255.43604 
L 253.558848 251.603644 
L 254.371985 251.603644 
L 254.40157 243.938851 
L 254.720937 243.938851 
L 254.720937 240.106455 
L 257.96457 240.106455 
L 257.96457 236.274059 
L 286.752527 236.274059 
L 286.752527 232.441663 
L 287.087796 232.441663 
L 287.087796 228.609267 
L 288.950783 228.609267 
L 288.950783 224.776871 
L 290.365102 224.776871 
L 290.45828 217.112079 
L 291.796069 217.112079 
L 291.824638 209.447287 
L 292.219433 209.447287 
L 292.219433 205.614891 
L 292.554298 205.614891 
L 292.554298 201.782495 
L 292.974963 201.782495 
L 292.974963 197.950099 
L 297.000681 197.950099 
L 297.000681 194.117703 
L 297.24585 194.117703 
L 297.24585 190.285307 
L 297.564604 190.285307 
L 297.654789 182.620515 
L 299.980145 182.620515 
L 299.980145 178.788119 
L 300.932075 178.788119 
L 300.932075 174.955723 
L 302.435136 174.955723 
L 302.435136 171.123327 
L 330.607196 171.123327 
L 330.607196 167.290931 
L 332.089482 167.290931 
L 332.089482 163.458535 
L 340.262853 163.458535 
L 340.262853 159.626139 
L 341.839109 159.626139 
L 341.839109 155.793743 
L 344.002471 155.793743 
L 344.002471 151.961347 
L 348.360259 151.961347 
L 348.360259 148.12895 
L 349.852945 148.12895 
L 349.852945 144.296554 
L 352.513933 144.296554 
L 352.513933 140.464158 
L 360.621969 140.464158 
L 360.621969 136.631762 
L 360.945276 136.631762 
L 360.945276 132.799366 
L 362.130483 132.799366 
L 362.130483 128.96697 
L 362.366871 128.96697 
L 362.366871 125.134574 
L 363.397758 125.134574 
L 363.397758 121.302178 
L 364.242115 121.302178 
L 364.242115 117.469782 
L 367.211228 117.469782 
L 367.222406 109.80499 
L 369.852069 109.80499 
L 369.852069 105.972594 
L 371.75409 105.972594 
L 371.75409 102.140198 
L 372.823191 102.140198 
L 372.895845 94.475406 
L 373.344253 94.475406 
L 373.344253 90.64301 
L 376.955271 90.64301 
L 376.955271 86.810614 
L 379.47173 86.810614 
L 379.47173 82.978218 
L 380.677852 82.978218 
L 380.677852 79.145822 
L 384.168211 79.145822 
L 384.168211 75.313426 
L 386.548682 75.313426 
L 386.548682 71.48103 
L 389.141918 71.48103 
L 389.141918 67.648634 
L 395.43741 67.648634 
L 395.43741 63.816238 
L 396.88827 63.816238 
L 396.88827 59.983842 
L 402.445375 59.983842 
L 402.445375 56.151446 
L 407.030061 56.151446 
L 407.030061 52.31905 
L 410.489837 52.31905 
L 410.489837 48.486653 
L 411.134269 48.486653 
L 411.134269 44.654257 
L 412.985051 44.654257 
L 412.985051 40.821861 
L 413.837875 40.821861 
L 413.837875 36.989465 
L 414.534458 36.989465 
L 414.534458 33.157069 
L 415.74239 33.157069 
L 415.74239 29.324673 
L 416.366988 29.324673 
L 416.366988 25.492277 
L 421.726737 25.492277 
L 421.829919 17.827485 
L 423.31982 17.827485 
L 423.31982 13.995089 
L 424.167416 13.995089 
L 424.167416 10.162693 
L 433.182173 10.162693 
L 433.182173 6.330297 
L 433.182173 6.330297 
L 460.8 6.330297 
L 460.8 6.330297 
" style="fill:none;stroke:#ff0000;stroke-linecap:square;stroke-width:3;"/>
   </g>
   <g id="line2d_22">
    <path clip-path="url(#p572f19410a)" d="M 245.107761 293.76 
L 245.107761 289.927604 
L 245.764544 289.927604 
L 245.764544 286.095208 
L 249.925619 286.095208 
L 249.925619 282.262812 
L 250.499846 282.262812 
L 250.499846 278.430416 
L 252.278972 278.430416 
L 252.278972 274.59802 
L 253.963187 274.59802 
L 253.963187 270.765624 
L 254.958701 270.765624 
L 254.958701 266.933228 
L 261.46044 266.933228 
L 261.46044 263.100832 
L 262.022732 263.100832 
L 262.022732 259.268436 
L 263.022939 259.268436 
L 263.022939 255.43604 
L 264.289782 255.43604 
L 264.289782 251.603644 
L 265.705576 251.603644 
L 265.705576 247.771248 
L 270.681549 247.771248 
L 270.681549 243.938851 
L 272.262127 243.938851 
L 272.262127 240.106455 
L 277.965734 240.106455 
L 277.965734 236.274059 
L 290.365102 236.274059 
L 290.365102 232.441663 
L 291.824638 232.441663 
L 291.824638 228.609267 
L 292.856463 228.609267 
L 292.906675 220.944475 
L 296.247813 220.944475 
L 296.247813 217.112079 
L 297.24585 217.112079 
L 297.24585 213.279683 
L 297.735473 213.279683 
L 297.735473 209.447287 
L 298.18297 209.447287 
L 298.18297 205.614891 
L 299.040997 205.614891 
L 299.040997 201.782495 
L 300.775885 201.782495 
L 300.775885 197.950099 
L 300.932075 197.950099 
L 300.932075 194.117703 
L 301.14193 194.117703 
L 301.14193 190.285307 
L 302.03675 190.285307 
L 302.03675 186.452911 
L 304.806892 186.452911 
L 304.806892 182.620515 
L 310.871404 182.620515 
L 310.871404 178.788119 
L 332.089482 178.788119 
L 332.089482 174.955723 
L 352.505531 174.955723 
L 352.513933 167.290931 
L 367.222406 167.290931 
L 367.325566 159.626139 
L 370.79522 159.626139 
L 370.79522 155.793743 
L 373.70162 155.793743 
L 373.70162 151.961347 
L 376.955271 151.961347 
L 376.955271 148.12895 
L 378.52492 148.12895 
L 378.52492 144.296554 
L 379.320672 144.296554 
L 379.320672 140.464158 
L 379.47173 140.464158 
L 379.47173 136.631762 
L 380.027574 136.631762 
L 380.027574 132.799366 
L 382.495669 132.799366 
L 382.495669 128.96697 
L 387.371612 128.96697 
L 387.424095 121.302178 
L 389.961978 121.302178 
L 389.961978 117.469782 
L 395.921725 117.469782 
L 395.921725 113.637386 
L 398.695737 113.637386 
L 398.695737 109.80499 
L 399.383388 109.80499 
L 399.383388 105.972594 
L 401.222318 105.972594 
L 401.222318 102.140198 
L 402.382625 102.140198 
L 402.382625 98.307802 
L 403.703705 98.307802 
L 403.703705 94.475406 
L 405.705446 94.475406 
L 405.705446 90.64301 
L 408.701555 90.64301 
L 408.701555 86.810614 
L 410.601698 86.810614 
L 410.601698 82.978218 
L 411.555741 82.978218 
L 411.555741 79.145822 
L 413.365984 79.145822 
L 413.365984 75.313426 
L 413.612202 75.313426 
L 413.612202 71.48103 
L 417.422303 71.48103 
L 417.422303 67.648634 
L 418.215576 67.648634 
L 418.215576 63.816238 
L 419.798735 63.816238 
L 419.798735 59.983842 
L 426.215491 59.983842 
L 426.215491 56.151446 
L 427.39725 56.151446 
L 427.411037 48.486653 
L 431.409974 48.486653 
L 431.409974 44.654257 
L 431.930313 44.654257 
L 431.930313 40.821861 
L 432.047643 40.821861 
L 432.047643 36.989465 
L 433.696135 36.989465 
L 433.696135 33.157069 
L 437.707767 33.157069 
L 437.816674 25.492277 
L 438.781 25.492277 
L 438.781 21.659881 
L 441.065021 21.659881 
L 441.065021 17.827485 
L 444.732192 17.827485 
L 444.732192 13.995089 
L 446.949276 13.995089 
L 446.949276 10.162693 
L 449.641686 10.162693 
L 449.641686 6.330297 
L 449.641686 6.330297 
L 460.8 6.330297 
L 460.8 6.330297 
" style="fill:none;stroke:#00bfbf;stroke-linecap:square;stroke-width:1.5;"/>
   </g>
   <g id="line2d_23">
    <path clip-path="url(#p572f19410a)" d="M 236.134837 293.76 
L 236.134837 289.927604 
L 239.251783 289.927604 
L 239.251783 286.095208 
L 240.985454 286.095208 
L 240.985454 282.262812 
L 245.107761 282.262812 
L 245.107761 278.430416 
L 245.764544 278.430416 
L 245.764544 274.59802 
L 246.373701 274.59802 
L 246.373701 270.765624 
L 247.283535 270.765624 
L 247.283535 266.933228 
L 249.925619 266.933228 
L 249.925619 263.100832 
L 253.558848 263.100832 
L 253.558848 259.268436 
L 254.371985 259.268436 
L 254.371985 255.43604 
L 254.720937 255.43604 
L 254.720937 251.603644 
L 257.115438 251.603644 
L 257.115438 247.771248 
L 257.96457 247.771248 
L 257.96457 243.938851 
L 259.657254 243.938851 
L 259.657254 240.106455 
L 265.159784 240.106455 
L 265.159784 236.274059 
L 288.950783 236.274059 
L 288.950783 232.441663 
L 290.365102 232.441663 
L 290.45828 224.776871 
L 291.824638 224.776871 
L 291.824638 220.944475 
L 292.554298 220.944475 
L 292.554298 217.112079 
L 292.856463 217.112079 
L 292.906675 209.447287 
L 292.974963 209.447287 
L 292.974963 205.614891 
L 296.247813 205.614891 
L 296.247813 201.782495 
L 297.000681 201.782495 
L 297.000681 197.950099 
L 297.24585 197.950099 
L 297.24585 194.117703 
L 297.654789 194.117703 
L 297.654789 190.285307 
L 298.18297 190.285307 
L 298.18297 186.452911 
L 299.980145 186.452911 
L 299.980145 182.620515 
L 300.932075 182.620515 
L 300.932075 178.788119 
L 302.929772 178.788119 
L 302.929772 174.955723 
L 332.089482 174.955723 
L 332.089482 171.123327 
L 340.262853 171.123327 
L 340.262853 167.290931 
L 341.839109 167.290931 
L 341.839109 163.458535 
L 344.002471 163.458535 
L 344.002471 159.626139 
L 348.360259 159.626139 
L 348.360259 155.793743 
L 349.061076 155.793743 
L 349.061076 151.961347 
L 349.852945 151.961347 
L 349.852945 148.12895 
L 352.505531 148.12895 
L 352.513933 140.464158 
L 360.621969 140.464158 
L 360.621969 136.631762 
L 360.945276 136.631762 
L 360.945276 132.799366 
L 363.397758 132.799366 
L 363.397758 128.96697 
L 367.222406 128.96697 
L 367.222406 125.134574 
L 367.503628 125.134574 
L 367.503628 121.302178 
L 370.79522 121.302178 
L 370.79522 117.469782 
L 372.823191 117.469782 
L 372.823191 113.637386 
L 373.344253 113.637386 
L 373.344253 109.80499 
L 376.689795 109.80499 
L 376.689795 105.972594 
L 376.955271 105.972594 
L 376.955271 102.140198 
L 379.47173 102.140198 
L 379.47173 98.307802 
L 380.027574 98.307802 
L 380.027574 94.475406 
L 384.102679 94.475406 
L 384.168211 86.810614 
L 384.983663 86.810614 
L 384.983663 82.978218 
L 386.548682 82.978218 
L 386.548682 79.145822 
L 396.88827 79.145822 
L 396.88827 75.313426 
L 398.478701 75.313426 
L 398.478701 71.48103 
L 399.310098 71.48103 
L 399.310098 67.648634 
L 402.382625 67.648634 
L 402.382625 63.816238 
L 404.254012 63.816238 
L 404.254012 59.983842 
L 407.030061 59.983842 
L 407.030061 56.151446 
L 410.601698 56.151446 
L 410.601698 52.31905 
L 411.134269 52.31905 
L 411.134269 48.486653 
L 416.366988 48.486653 
L 416.366988 44.654257 
L 418.437864 44.654257 
L 418.437864 40.821861 
L 419.012333 40.821861 
L 419.012333 36.989465 
L 421.726737 36.989465 
L 421.726737 33.157069 
L 424.167416 33.157069 
L 424.167416 29.324673 
L 426.452484 29.324673 
L 426.452484 25.492277 
L 427.39725 25.492277 
L 427.39725 21.659881 
L 431.409974 21.659881 
L 431.409974 17.827485 
L 432.047643 17.827485 
L 432.047643 13.995089 
L 436.576364 13.995089 
L 436.576364 10.162693 
L 437.707767 10.162693 
L 437.707767 6.330297 
L 437.707767 6.330297 
L 460.8 6.330297 
L 460.8 6.330297 
" style="fill:none;stroke:#bf00bf;stroke-linecap:square;stroke-width:1.5;"/>
   </g>
   <g id="patch_3">
    <path d="M 0 293.76 
L 0 3.456 
" style="fill:none;stroke:#000000;stroke-linecap:square;stroke-linejoin:miter;stroke-width:0.8;"/>
   </g>
   <g id="patch_4">
    <path d="M 460.8 293.76 
L 460.8 3.456 
" style="fill:none;stroke:#000000;stroke-linecap:square;stroke-linejoin:miter;stroke-width:0.8;"/>
   </g>
   <g id="patch_5">
    <path d="M 0 293.76 
L 460.8 293.76 
" style="fill:none;stroke:#000000;stroke-linecap:square;stroke-linejoin:miter;stroke-width:0.8;"/>
   </g>
   <g id="patch_6">
    <path d="M 0 3.456 
L 460.8 3.456 
" style="fill:none;stroke:#000000;stroke-linecap:square;stroke-linejoin:miter;stroke-width:0.8;"/>
   </g>
   <g id="text_6">
    <!-- {f10-f14}, 5-D -->
    <defs>
     <path d="M 51.125 -9.28125 
L 51.125 -16.3125 
L 48.09375 -16.3125 
Q 35.9375 -16.3125 31.8125 -12.6875 
Q 27.6875 -9.078125 27.6875 1.703125 
L 27.6875 13.375 
Q 27.6875 20.75 25.046875 23.578125 
Q 22.40625 26.421875 15.484375 26.421875 
L 12.5 26.421875 
L 12.5 33.40625 
L 15.484375 33.40625 
Q 22.46875 33.40625 25.078125 36.203125 
Q 27.6875 39.015625 27.6875 46.296875 
L 27.6875 58.015625 
Q 27.6875 68.796875 31.8125 72.390625 
Q 35.9375 75.984375 48.09375 75.984375 
L 51.125 75.984375 
L 51.125 69 
L 47.796875 69 
Q 40.921875 69 38.8125 66.84375 
Q 36.71875 64.703125 36.71875 57.8125 
L 36.71875 45.703125 
Q 36.71875 38.03125 34.5 34.5625 
Q 32.28125 31.109375 26.90625 29.890625 
Q 32.328125 28.5625 34.515625 25.09375 
Q 36.71875 21.625 36.71875 14.015625 
L 36.71875 1.90625 
Q 36.71875 -4.984375 38.8125 -7.125 
Q 40.921875 -9.28125 47.796875 -9.28125 
z
" id="DejaVuSans-123"/>
     <path d="M 12.5 -9.28125 
L 15.921875 -9.28125 
Q 22.75 -9.28125 24.828125 -7.171875 
Q 26.90625 -5.078125 26.90625 1.90625 
L 26.90625 14.015625 
Q 26.90625 21.625 29.09375 25.09375 
Q 31.296875 28.5625 36.71875 29.890625 
Q 31.296875 31.109375 29.09375 34.5625 
Q 26.90625 38.03125 26.90625 45.703125 
L 26.90625 57.8125 
Q 26.90625 64.75 24.828125 66.875 
Q 22.75 69 15.921875 69 
L 12.5 69 
L 12.5 75.984375 
L 15.578125 75.984375 
Q 27.734375 75.984375 31.8125 72.390625 
Q 35.890625 68.796875 35.890625 58.015625 
L 35.890625 46.296875 
Q 35.890625 39.015625 38.515625 36.203125 
Q 41.15625 33.40625 48.09375 33.40625 
L 51.125 33.40625 
L 51.125 26.421875 
L 48.09375 26.421875 
Q 41.15625 26.421875 38.515625 23.578125 
Q 35.890625 20.75 35.890625 13.375 
L 35.890625 1.703125 
Q 35.890625 -9.078125 31.8125 -12.6875 
Q 27.734375 -16.3125 15.578125 -16.3125 
L 12.5 -16.3125 
z
" id="DejaVuSans-125"/>
     <path d="M 11.71875 12.40625 
L 22.015625 12.40625 
L 22.015625 4 
L 14.015625 -11.625 
L 7.71875 -11.625 
L 11.71875 4 
z
" id="DejaVuSans-44"/>
     <path d="M 10.796875 72.90625 
L 49.515625 72.90625 
L 49.515625 64.59375 
L 19.828125 64.59375 
L 19.828125 46.734375 
Q 21.96875 47.46875 24.109375 47.828125 
Q 26.265625 48.1875 28.421875 48.1875 
Q 40.625 48.1875 47.75 41.5 
Q 54.890625 34.8125 54.890625 23.390625 
Q 54.890625 11.625 47.5625 5.09375 
Q 40.234375 -1.421875 26.90625 -1.421875 
Q 22.3125 -1.421875 17.546875 -0.640625 
Q 12.796875 0.140625 7.71875 1.703125 
L 7.71875 11.625 
Q 12.109375 9.234375 16.796875 8.0625 
Q 21.484375 6.890625 26.703125 6.890625 
Q 35.15625 6.890625 40.078125 11.328125 
Q 45.015625 15.765625 45.015625 23.390625 
Q 45.015625 31 40.078125 35.4375 
Q 35.15625 39.890625 26.703125 39.890625 
Q 22.75 39.890625 18.8125 39.015625 
Q 14.890625 38.140625 10.796875 36.28125 
z
" id="DejaVuSans-53"/>
    </defs>
    <g transform="translate(305.884 287.95392)scale(0.2 -0.2)">
     <use xlink:href="#DejaVuSans-123"/>
     <use x="63.623047" xlink:href="#DejaVuSans-102"/>
     <use x="98.828125" xlink:href="#DejaVuSans-49"/>
     <use x="162.451172" xlink:href="#DejaVuSans-48"/>
     <use x="226.074219" xlink:href="#DejaVuSans-45"/>
     <use x="262.158203" xlink:href="#DejaVuSans-102"/>
     <use x="297.363281" xlink:href="#DejaVuSans-49"/>
     <use x="360.986328" xlink:href="#DejaVuSans-52"/>
     <use x="424.609375" xlink:href="#DejaVuSans-125"/>
     <use x="488.232422" xlink:href="#DejaVuSans-44"/>
     <use x="520.019531" xlink:href="#DejaVuSans-32"/>
     <use x="551.806641" xlink:href="#DejaVuSans-53"/>
     <use x="615.429688" xlink:href="#DejaVuSans-45"/>
     <use x="651.513672" xlink:href="#DejaVuSans-68"/>
    </g>
   </g>
   <g id="text_7">
    <!-- v2.4 -->
    <defs>
     <path d="M 2.984375 54.6875 
L 12.5 54.6875 
L 29.59375 8.796875 
L 46.6875 54.6875 
L 56.203125 54.6875 
L 35.6875 0 
L 23.484375 0 
z
" id="DejaVuSans-118"/>
     <path d="M 19.1875 8.296875 
L 53.609375 8.296875 
L 53.609375 0 
L 7.328125 0 
L 7.328125 8.296875 
Q 12.9375 14.109375 22.625 23.890625 
Q 32.328125 33.6875 34.8125 36.53125 
Q 39.546875 41.84375 41.421875 45.53125 
Q 43.3125 49.21875 43.3125 52.78125 
Q 43.3125 58.59375 39.234375 62.25 
Q 35.15625 65.921875 28.609375 65.921875 
Q 23.96875 65.921875 18.8125 64.3125 
Q 13.671875 62.703125 7.8125 59.421875 
L 7.8125 69.390625 
Q 13.765625 71.78125 18.9375 73 
Q 24.125 74.21875 28.421875 74.21875 
Q 39.75 74.21875 46.484375 68.546875 
Q 53.21875 62.890625 53.21875 53.421875 
Q 53.21875 48.921875 51.53125 44.890625 
Q 49.859375 40.875 45.40625 35.40625 
Q 44.1875 33.984375 37.640625 27.21875 
Q 31.109375 20.453125 19.1875 8.296875 
z
" id="DejaVuSans-50"/>
     <path d="M 10.6875 12.40625 
L 21 12.40625 
L 21 0 
L 10.6875 0 
z
" id="DejaVuSans-46"/>
    </defs>
    <g style="fill:#808080;" transform="translate(219.489063 288.777272)scale(0.1 -0.1)">
     <use xlink:href="#DejaVuSans-118"/>
     <use x="59.179688" xlink:href="#DejaVuSans-50"/>
     <use x="122.802734" xlink:href="#DejaVuSans-46"/>
     <use x="154.589844" xlink:href="#DejaVuSans-52"/>
    </g>
   </g>
  </g>
 </g>
 <defs>
  <clipPath id="p572f19410a">
   <rect height="290.304" width="460.8" x="0" y="3.456"/>
  </clipPath>
 </defs>
</svg>
