<?xml version="1.0" encoding="utf-8" standalone="no"?>
<!DOCTYPE svg PUBLIC "-//W3C//DTD SVG 1.1//EN"
  "http://www.w3.org/Graphics/SVG/1.1/DTD/svg11.dtd">
<!-- Created with matplotlib (https://matplotlib.org/) -->
<svg height="345.6pt" version="1.1" viewBox="0 0 460.8 345.6" width="460.8pt" xmlns="http://www.w3.org/2000/svg" xmlns:xlink="http://www.w3.org/1999/xlink">
 <defs>
  <style type="text/css">
*{stroke-linecap:butt;stroke-linejoin:round;}
  </style>
 </defs>
 <g id="figure_1">
  <g id="patch_1">
   <path d="M 0 345.6 
L 460.8 345.6 
L 460.8 0 
L 0 0 
z
" style="fill:#ffffff;"/>
  </g>
  <g id="axes_1">
   <g id="patch_2">
    <path d="M 0 293.76 
L 460.8 293.76 
L 460.8 3.456 
L 0 3.456 
z
" style="fill:#ffffff;"/>
   </g>
   <g id="matplotlib.axis_1">
    <g id="xtick_1">
     <g id="line2d_1">
      <path clip-path="url(#pd2c119be80)" d="M 105.96701 293.76 
L 105.96701 3.456 
" style="fill:none;stroke:#b0b0b0;stroke-linecap:square;stroke-width:0.8;"/>
     </g>
     <g id="line2d_2">
      <defs>
       <path d="M 0 0 
L 0 3.5 
" id="m5207f4db3e" style="stroke:#000000;stroke-width:0.8;"/>
      </defs>
      <g>
       <use style="stroke:#000000;stroke-width:0.8;" x="105.96701" xlink:href="#m5207f4db3e" y="293.76"/>
      </g>
     </g>
     <g id="text_1">
      <!-- -4 -->
      <defs>
       <path d="M 4.890625 31.390625 
L 31.203125 31.390625 
L 31.203125 23.390625 
L 4.890625 23.390625 
z
" id="DejaVuSans-45"/>
       <path d="M 37.796875 64.3125 
L 12.890625 25.390625 
L 37.796875 25.390625 
z
M 35.203125 72.90625 
L 47.609375 72.90625 
L 47.609375 25.390625 
L 58.015625 25.390625 
L 58.015625 17.1875 
L 47.609375 17.1875 
L 47.609375 0 
L 37.796875 0 
L 37.796875 17.1875 
L 4.890625 17.1875 
L 4.890625 26.703125 
z
" id="DejaVuSans-52"/>
      </defs>
      <g transform="translate(95.996698 315.956875)scale(0.2 -0.2)">
       <use xlink:href="#DejaVuSans-45"/>
       <use x="36.083984" xlink:href="#DejaVuSans-52"/>
      </g>
     </g>
    </g>
    <g id="xtick_2">
     <g id="line2d_3">
      <path clip-path="url(#pd2c119be80)" d="M 212.048625 293.76 
L 212.048625 3.456 
" style="fill:none;stroke:#b0b0b0;stroke-linecap:square;stroke-width:0.8;"/>
     </g>
     <g id="line2d_4">
      <g>
       <use style="stroke:#000000;stroke-width:0.8;" x="212.048625" xlink:href="#m5207f4db3e" y="293.76"/>
      </g>
     </g>
     <g id="text_2">
      <!-- 0 -->
      <defs>
       <path d="M 31.78125 66.40625 
Q 24.171875 66.40625 20.328125 58.90625 
Q 16.5 51.421875 16.5 36.375 
Q 16.5 21.390625 20.328125 13.890625 
Q 24.171875 6.390625 31.78125 6.390625 
Q 39.453125 6.390625 43.28125 13.890625 
Q 47.125 21.390625 47.125 36.375 
Q 47.125 51.421875 43.28125 58.90625 
Q 39.453125 66.40625 31.78125 66.40625 
z
M 31.78125 74.21875 
Q 44.046875 74.21875 50.515625 64.515625 
Q 56.984375 54.828125 56.984375 36.375 
Q 56.984375 17.96875 50.515625 8.265625 
Q 44.046875 -1.421875 31.78125 -1.421875 
Q 19.53125 -1.421875 13.0625 8.265625 
Q 6.59375 17.96875 6.59375 36.375 
Q 6.59375 54.828125 13.0625 64.515625 
Q 19.53125 74.21875 31.78125 74.21875 
z
" id="DejaVuSans-48"/>
      </defs>
      <g transform="translate(205.686125 315.956875)scale(0.2 -0.2)">
       <use xlink:href="#DejaVuSans-48"/>
      </g>
     </g>
    </g>
    <g id="xtick_3">
     <g id="line2d_5">
      <path clip-path="url(#pd2c119be80)" d="M 318.13024 293.76 
L 318.13024 3.456 
" style="fill:none;stroke:#b0b0b0;stroke-linecap:square;stroke-width:0.8;"/>
     </g>
     <g id="line2d_6">
      <g>
       <use style="stroke:#000000;stroke-width:0.8;" x="318.13024" xlink:href="#m5207f4db3e" y="293.76"/>
      </g>
     </g>
     <g id="text_3">
      <!-- 4 -->
      <g transform="translate(311.76774 315.956875)scale(0.2 -0.2)">
       <use xlink:href="#DejaVuSans-52"/>
      </g>
     </g>
    </g>
    <g id="xtick_4">
     <g id="line2d_7">
      <path clip-path="url(#pd2c119be80)" d="M 424.211854 293.76 
L 424.211854 3.456 
" style="fill:none;stroke:#b0b0b0;stroke-linecap:square;stroke-width:0.8;"/>
     </g>
     <g id="line2d_8">
      <g>
       <use style="stroke:#000000;stroke-width:0.8;" x="424.211854" xlink:href="#m5207f4db3e" y="293.76"/>
      </g>
     </g>
     <g id="text_4">
      <!-- 8 -->
      <defs>
       <path d="M 31.78125 34.625 
Q 24.75 34.625 20.71875 30.859375 
Q 16.703125 27.09375 16.703125 20.515625 
Q 16.703125 13.921875 20.71875 10.15625 
Q 24.75 6.390625 31.78125 6.390625 
Q 38.8125 6.390625 42.859375 10.171875 
Q 46.921875 13.96875 46.921875 20.515625 
Q 46.921875 27.09375 42.890625 30.859375 
Q 38.875 34.625 31.78125 34.625 
z
M 21.921875 38.8125 
Q 15.578125 40.375 12.03125 44.71875 
Q 8.5 49.078125 8.5 55.328125 
Q 8.5 64.0625 14.71875 69.140625 
Q 20.953125 74.21875 31.78125 74.21875 
Q 42.671875 74.21875 48.875 69.140625 
Q 55.078125 64.0625 55.078125 55.328125 
Q 55.078125 49.078125 51.53125 44.71875 
Q 48 40.375 41.703125 38.8125 
Q 48.828125 37.15625 52.796875 32.3125 
Q 56.78125 27.484375 56.78125 20.515625 
Q 56.78125 9.90625 50.3125 4.234375 
Q 43.84375 -1.421875 31.78125 -1.421875 
Q 19.734375 -1.421875 13.25 4.234375 
Q 6.78125 9.90625 6.78125 20.515625 
Q 6.78125 27.484375 10.78125 32.3125 
Q 14.796875 37.15625 21.921875 38.8125 
z
M 18.3125 54.390625 
Q 18.3125 48.734375 21.84375 45.5625 
Q 25.390625 42.390625 31.78125 42.390625 
Q 38.140625 42.390625 41.71875 45.5625 
Q 45.3125 48.734375 45.3125 54.390625 
Q 45.3125 60.0625 41.71875 63.234375 
Q 38.140625 66.40625 31.78125 66.40625 
Q 25.390625 66.40625 21.84375 63.234375 
Q 18.3125 60.0625 18.3125 54.390625 
z
" id="DejaVuSans-56"/>
      </defs>
      <g transform="translate(417.849354 315.956875)scale(0.2 -0.2)">
       <use xlink:href="#DejaVuSans-56"/>
      </g>
     </g>
    </g>
    <g id="text_5">
     <!-- log10 of Df -->
     <defs>
      <path d="M 9.421875 75.984375 
L 18.40625 75.984375 
L 18.40625 0 
L 9.421875 0 
z
" id="DejaVuSans-108"/>
      <path d="M 30.609375 48.390625 
Q 23.390625 48.390625 19.1875 42.75 
Q 14.984375 37.109375 14.984375 27.296875 
Q 14.984375 17.484375 19.15625 11.84375 
Q 23.34375 6.203125 30.609375 6.203125 
Q 37.796875 6.203125 41.984375 11.859375 
Q 46.1875 17.53125 46.1875 27.296875 
Q 46.1875 37.015625 41.984375 42.703125 
Q 37.796875 48.390625 30.609375 48.390625 
z
M 30.609375 56 
Q 42.328125 56 49.015625 48.375 
Q 55.71875 40.765625 55.71875 27.296875 
Q 55.71875 13.875 49.015625 6.21875 
Q 42.328125 -1.421875 30.609375 -1.421875 
Q 18.84375 -1.421875 12.171875 6.21875 
Q 5.515625 13.875 5.515625 27.296875 
Q 5.515625 40.765625 12.171875 48.375 
Q 18.84375 56 30.609375 56 
z
" id="DejaVuSans-111"/>
      <path d="M 45.40625 27.984375 
Q 45.40625 37.75 41.375 43.109375 
Q 37.359375 48.484375 30.078125 48.484375 
Q 22.859375 48.484375 18.828125 43.109375 
Q 14.796875 37.75 14.796875 27.984375 
Q 14.796875 18.265625 18.828125 12.890625 
Q 22.859375 7.515625 30.078125 7.515625 
Q 37.359375 7.515625 41.375 12.890625 
Q 45.40625 18.265625 45.40625 27.984375 
z
M 54.390625 6.78125 
Q 54.390625 -7.171875 48.1875 -13.984375 
Q 42 -20.796875 29.203125 -20.796875 
Q 24.46875 -20.796875 20.265625 -20.09375 
Q 16.0625 -19.390625 12.109375 -17.921875 
L 12.109375 -9.1875 
Q 16.0625 -11.328125 19.921875 -12.34375 
Q 23.78125 -13.375 27.78125 -13.375 
Q 36.625 -13.375 41.015625 -8.765625 
Q 45.40625 -4.15625 45.40625 5.171875 
L 45.40625 9.625 
Q 42.625 4.78125 38.28125 2.390625 
Q 33.9375 0 27.875 0 
Q 17.828125 0 11.671875 7.65625 
Q 5.515625 15.328125 5.515625 27.984375 
Q 5.515625 40.671875 11.671875 48.328125 
Q 17.828125 56 27.875 56 
Q 33.9375 56 38.28125 53.609375 
Q 42.625 51.21875 45.40625 46.390625 
L 45.40625 54.6875 
L 54.390625 54.6875 
z
" id="DejaVuSans-103"/>
      <path d="M 12.40625 8.296875 
L 28.515625 8.296875 
L 28.515625 63.921875 
L 10.984375 60.40625 
L 10.984375 69.390625 
L 28.421875 72.90625 
L 38.28125 72.90625 
L 38.28125 8.296875 
L 54.390625 8.296875 
L 54.390625 0 
L 12.40625 0 
z
" id="DejaVuSans-49"/>
      <path id="DejaVuSans-32"/>
      <path d="M 37.109375 75.984375 
L 37.109375 68.5 
L 28.515625 68.5 
Q 23.6875 68.5 21.796875 66.546875 
Q 19.921875 64.59375 19.921875 59.515625 
L 19.921875 54.6875 
L 34.71875 54.6875 
L 34.71875 47.703125 
L 19.921875 47.703125 
L 19.921875 0 
L 10.890625 0 
L 10.890625 47.703125 
L 2.296875 47.703125 
L 2.296875 54.6875 
L 10.890625 54.6875 
L 10.890625 58.5 
Q 10.890625 67.625 15.140625 71.796875 
Q 19.390625 75.984375 28.609375 75.984375 
z
" id="DejaVuSans-102"/>
      <path d="M 19.671875 64.796875 
L 19.671875 8.109375 
L 31.59375 8.109375 
Q 46.6875 8.109375 53.6875 14.9375 
Q 60.6875 21.78125 60.6875 36.53125 
Q 60.6875 51.171875 53.6875 57.984375 
Q 46.6875 64.796875 31.59375 64.796875 
z
M 9.8125 72.90625 
L 30.078125 72.90625 
Q 51.265625 72.90625 61.171875 64.09375 
Q 71.09375 55.28125 71.09375 36.53125 
Q 71.09375 17.671875 61.125 8.828125 
Q 51.171875 0 30.078125 0 
L 9.8125 0 
z
" id="DejaVuSans-68"/>
     </defs>
     <g transform="translate(175.214063 339.313125)scale(0.2 -0.2)">
      <use xlink:href="#DejaVuSans-108"/>
      <use x="27.783203" xlink:href="#DejaVuSans-111"/>
      <use x="88.964844" xlink:href="#DejaVuSans-103"/>
      <use x="152.441406" xlink:href="#DejaVuSans-49"/>
      <use x="216.064453" xlink:href="#DejaVuSans-48"/>
      <use x="279.6875" xlink:href="#DejaVuSans-32"/>
      <use x="311.474609" xlink:href="#DejaVuSans-111"/>
      <use x="372.65625" xlink:href="#DejaVuSans-102"/>
      <use x="407.861328" xlink:href="#DejaVuSans-32"/>
      <use x="439.648438" xlink:href="#DejaVuSans-68"/>
      <use x="516.650391" xlink:href="#DejaVuSans-102"/>
     </g>
    </g>
   </g>
   <g id="matplotlib.axis_2">
    <g id="ytick_1">
     <g id="line2d_9">
      <path clip-path="url(#pd2c119be80)" d="M 0 293.76 
L 460.8 293.76 
" style="fill:none;stroke:#b0b0b0;stroke-linecap:square;stroke-width:0.8;"/>
     </g>
     <g id="line2d_10">
      <defs>
       <path d="M 0 0 
L -3.5 0 
" id="ma6cf798f3a" style="stroke:#000000;stroke-width:0.8;"/>
      </defs>
      <g>
       <use style="stroke:#000000;stroke-width:0.8;" x="0" xlink:href="#ma6cf798f3a" y="293.76"/>
      </g>
     </g>
    </g>
    <g id="ytick_2">
     <g id="line2d_11">
      <path clip-path="url(#pd2c119be80)" d="M 0 236.274059 
L 460.8 236.274059 
" style="fill:none;stroke:#b0b0b0;stroke-linecap:square;stroke-width:0.8;"/>
     </g>
     <g id="line2d_12">
      <g>
       <use style="stroke:#000000;stroke-width:0.8;" x="0" xlink:href="#ma6cf798f3a" y="236.274059"/>
      </g>
     </g>
    </g>
    <g id="ytick_3">
     <g id="line2d_13">
      <path clip-path="url(#pd2c119be80)" d="M 0 178.788119 
L 460.8 178.788119 
" style="fill:none;stroke:#b0b0b0;stroke-linecap:square;stroke-width:0.8;"/>
     </g>
     <g id="line2d_14">
      <g>
       <use style="stroke:#000000;stroke-width:0.8;" x="0" xlink:href="#ma6cf798f3a" y="178.788119"/>
      </g>
     </g>
    </g>
    <g id="ytick_4">
     <g id="line2d_15">
      <path clip-path="url(#pd2c119be80)" d="M 0 121.302178 
L 460.8 121.302178 
" style="fill:none;stroke:#b0b0b0;stroke-linecap:square;stroke-width:0.8;"/>
     </g>
     <g id="line2d_16">
      <g>
       <use style="stroke:#000000;stroke-width:0.8;" x="0" xlink:href="#ma6cf798f3a" y="121.302178"/>
      </g>
     </g>
    </g>
    <g id="ytick_5">
     <g id="line2d_17">
      <path clip-path="url(#pd2c119be80)" d="M 0 63.816238 
L 460.8 63.816238 
" style="fill:none;stroke:#b0b0b0;stroke-linecap:square;stroke-width:0.8;"/>
     </g>
     <g id="line2d_18">
      <g>
       <use style="stroke:#000000;stroke-width:0.8;" x="0" xlink:href="#ma6cf798f3a" y="63.816238"/>
      </g>
     </g>
    </g>
    <g id="ytick_6">
     <g id="line2d_19">
      <path clip-path="url(#pd2c119be80)" d="M 0 6.330297 
L 460.8 6.330297 
" style="fill:none;stroke:#b0b0b0;stroke-linecap:square;stroke-width:0.8;"/>
     </g>
     <g id="line2d_20">
      <g>
       <use style="stroke:#000000;stroke-width:0.8;" x="0" xlink:href="#ma6cf798f3a" y="6.330297"/>
      </g>
     </g>
    </g>
   </g>
   <g id="line2d_21">
    <path clip-path="url(#pd2c119be80)" d="M 241.602333 293.76 
L 241.602333 289.927604 
L 241.954438 289.927604 
L 241.954438 286.095208 
L 242.188258 286.095208 
L 242.188258 282.262812 
L 242.40643 282.262812 
L 242.40643 278.430416 
L 242.633039 278.430416 
L 242.633039 274.59802 
L 243.54557 274.59802 
L 243.54557 270.765624 
L 244.000988 270.765624 
L 244.000988 266.933228 
L 244.625841 266.933228 
L 244.718186 259.268436 
L 245.095017 259.268436 
L 245.095017 255.43604 
L 245.51915 255.43604 
L 245.51915 251.603644 
L 246.15462 251.603644 
L 246.15462 247.771248 
L 246.31757 247.771248 
L 246.31757 243.938851 
L 246.603007 243.938851 
L 246.603007 240.106455 
L 247.043434 240.106455 
L 247.043434 236.274059 
L 247.203104 236.274059 
L 247.203104 232.441663 
L 247.361124 232.441663 
L 247.361124 228.609267 
L 247.991929 228.609267 
L 247.991929 224.776871 
L 248.229584 224.776871 
L 248.229584 220.944475 
L 248.383339 220.944475 
L 248.383339 217.112079 
L 248.50478 217.112079 
L 248.555511 209.447287 
L 248.700868 209.447287 
L 248.700868 205.614891 
L 248.85171 205.614891 
L 248.85171 201.782495 
L 250.645228 201.782495 
L 250.717403 194.117703 
L 250.830445 194.117703 
L 250.830445 190.285307 
L 251.735786 190.285307 
L 251.735786 186.452911 
L 252.198804 186.452911 
L 252.257955 178.788119 
L 252.655514 178.788119 
L 252.655514 174.955723 
L 253.09859 174.955723 
L 253.188037 163.458535 
L 253.381357 163.458535 
L 253.447229 151.961347 
L 254.332765 151.961347 
L 254.332765 148.12895 
L 254.542144 148.12895 
L 254.542144 144.296554 
L 254.965709 144.296554 
L 254.965709 140.464158 
L 255.186237 140.464158 
L 255.190351 132.799366 
L 255.644995 132.799366 
L 255.644995 128.96697 
L 255.942885 128.96697 
L 255.954612 121.302178 
L 256.434394 121.302178 
L 256.434394 117.469782 
L 256.783704 117.469782 
L 256.783704 113.637386 
L 258.480996 113.637386 
L 258.480996 109.80499 
L 258.763403 109.80499 
L 258.763403 105.972594 
L 259.222137 105.972594 
L 259.222137 102.140198 
L 259.38019 102.140198 
L 259.38019 98.307802 
L 259.521068 98.307802 
L 259.521068 94.475406 
L 259.737395 94.475406 
L 259.737395 90.64301 
L 260.236318 90.64301 
L 260.236318 86.810614 
L 260.568922 86.810614 
L 260.678626 79.145822 
L 261.101357 79.145822 
L 261.101357 75.313426 
L 261.884004 75.313426 
L 261.884004 71.48103 
L 263.83347 71.48103 
L 263.83347 67.648634 
L 266.050418 67.648634 
L 266.050418 63.816238 
L 286.533587 63.816238 
L 286.599625 56.151446 
L 287.901902 56.151446 
L 288.000732 48.486653 
L 288.387635 48.486653 
L 288.387635 44.654257 
L 288.663638 44.654257 
L 288.663638 40.821861 
L 288.869202 40.821861 
L 288.869202 36.989465 
L 289.40298 36.989465 
L 289.42233 29.324673 
L 289.668826 29.324673 
L 289.668826 25.492277 
L 289.809361 25.492277 
L 289.809361 21.659881 
L 289.9768 21.659881 
L 290.005042 13.995089 
L 291.096113 13.995089 
L 291.096113 10.162693 
L 294.678184 10.162693 
L 294.678184 6.330297 
L 294.678184 6.330297 
L 460.8 6.330297 
L 460.8 6.330297 
" style="fill:none;stroke:#ff0000;stroke-linecap:square;stroke-width:3;"/>
   </g>
   <g id="line2d_22">
    <path clip-path="url(#pd2c119be80)" d="M 242.521812 293.76 
L 242.521812 289.927604 
L 243.205386 289.927604 
L 243.205386 286.095208 
L 243.54557 286.095208 
L 243.54557 282.262812 
L 244.534467 282.262812 
L 244.534467 278.430416 
L 245.51915 278.430416 
L 245.611728 270.765624 
L 245.993619 270.765624 
L 245.993619 266.933228 
L 246.31757 266.933228 
L 246.31757 263.100832 
L 246.548924 263.100832 
L 246.603007 255.43604 
L 247.203104 255.43604 
L 247.203104 251.603644 
L 247.991929 251.603644 
L 247.991929 247.771248 
L 248.322774 247.771248 
L 248.383339 240.106455 
L 248.50478 240.106455 
L 248.50478 236.274059 
L 249.135401 236.274059 
L 249.135401 232.441663 
L 249.36411 232.441663 
L 249.36411 228.609267 
L 249.65697 228.609267 
L 249.747598 220.944475 
L 249.804439 220.944475 
L 249.804439 217.112079 
L 250.893398 217.112079 
L 250.893398 213.279683 
L 251.379 213.279683 
L 251.379 209.447287 
L 251.660937 209.447287 
L 251.660937 205.614891 
L 252.198804 205.614891 
L 252.198804 201.782495 
L 252.346409 201.782495 
L 252.444996 194.117703 
L 253.09859 194.117703 
L 253.188037 186.452911 
L 253.417719 186.452911 
L 253.417719 182.620515 
L 253.661534 182.620515 
L 253.661534 178.788119 
L 254.542144 178.788119 
L 254.542144 174.955723 
L 255.119629 174.955723 
L 255.197448 163.458535 
L 255.367447 163.458535 
L 255.367447 159.626139 
L 255.524069 159.626139 
L 255.524069 155.793743 
L 255.954612 155.793743 
L 255.954612 151.961347 
L 256.974831 151.961347 
L 256.974831 148.12895 
L 257.189368 148.12895 
L 257.189368 144.296554 
L 257.578291 144.296554 
L 257.578291 140.464158 
L 257.7203 140.464158 
L 257.7203 136.631762 
L 258.517825 136.631762 
L 258.616264 128.96697 
L 258.658297 128.96697 
L 258.658297 125.134574 
L 259.040842 125.134574 
L 259.040842 121.302178 
L 259.483389 121.302178 
L 259.483389 117.469782 
L 259.737395 117.469782 
L 259.777317 109.80499 
L 260.404888 109.80499 
L 260.404888 105.972594 
L 261.38655 105.972594 
L 261.38655 102.140198 
L 261.873435 102.140198 
L 261.884004 94.475406 
L 262.313093 94.475406 
L 262.313093 90.64301 
L 262.540625 90.64301 
L 262.540625 86.810614 
L 263.676652 86.810614 
L 263.676652 82.978218 
L 264.691298 82.978218 
L 264.773124 75.313426 
L 266.050418 75.313426 
L 266.050418 71.48103 
L 266.166375 71.48103 
L 266.166375 67.648634 
L 267.440556 67.648634 
L 267.440556 63.816238 
L 288.663638 63.816238 
L 288.663638 59.983842 
L 288.869202 59.983842 
L 288.869202 56.151446 
L 290.47383 56.151446 
L 290.47383 52.31905 
L 291.096113 52.31905 
L 291.096113 48.486653 
L 291.449953 48.486653 
L 291.449953 44.654257 
L 291.65558 44.654257 
L 291.65558 40.821861 
L 291.810564 40.821861 
L 291.810564 36.989465 
L 293.561614 36.989465 
L 293.561614 33.157069 
L 293.820433 33.157069 
L 293.820433 29.324673 
L 294.420025 29.324673 
L 294.420025 25.492277 
L 294.985598 25.492277 
L 294.985598 21.659881 
L 295.757571 21.659881 
L 295.757571 17.827485 
L 295.956042 17.827485 
L 295.956042 13.995089 
L 296.456308 13.995089 
L 296.456308 10.162693 
L 296.681633 10.162693 
L 296.681633 6.330297 
L 296.681633 6.330297 
L 460.8 6.330297 
L 460.8 6.330297 
" style="fill:none;stroke:#00bfbf;stroke-linecap:square;stroke-width:1.5;"/>
   </g>
   <g id="line2d_23">
    <path clip-path="url(#pd2c119be80)" d="M 242.188258 293.76 
L 242.188258 289.927604 
L 243.205386 289.927604 
L 243.205386 286.095208 
L 243.54557 286.095208 
L 243.54557 282.262812 
L 243.818235 282.262812 
L 243.848408 274.59802 
L 244.000988 274.59802 
L 244.000988 270.765624 
L 244.510772 270.765624 
L 244.510772 266.933228 
L 244.625841 266.933228 
L 244.625841 263.100832 
L 245.072166 263.100832 
L 245.072166 259.268436 
L 245.51915 259.268436 
L 245.51915 255.43604 
L 246.15462 255.43604 
L 246.15462 251.603644 
L 246.31757 251.603644 
L 246.31757 247.771248 
L 246.603007 247.771248 
L 246.603007 243.938851 
L 247.203104 243.938851 
L 247.203104 240.106455 
L 247.361124 240.106455 
L 247.361124 236.274059 
L 247.991929 236.274059 
L 247.991929 232.441663 
L 248.383339 232.441663 
L 248.383339 228.609267 
L 248.50478 228.609267 
L 248.50478 224.776871 
L 248.700868 224.776871 
L 248.700868 220.944475 
L 248.868159 220.944475 
L 248.868159 217.112079 
L 249.804439 217.112079 
L 249.804439 213.279683 
L 250.235927 213.279683 
L 250.235927 209.447287 
L 250.717403 209.447287 
L 250.717403 205.614891 
L 250.830445 205.614891 
L 250.893398 197.950099 
L 252.198804 197.950099 
L 252.257955 190.285307 
L 252.346409 190.285307 
L 252.346409 186.452911 
L 252.619818 186.452911 
L 252.619818 182.620515 
L 253.09859 182.620515 
L 253.188037 174.955723 
L 253.417719 174.955723 
L 253.417719 171.123327 
L 253.661534 171.123327 
L 253.661534 167.290931 
L 254.542144 167.290931 
L 254.542144 163.458535 
L 254.735935 163.458535 
L 254.735935 159.626139 
L 254.901211 159.626139 
L 254.901211 155.793743 
L 255.186237 155.793743 
L 255.186237 151.961347 
L 255.367447 151.961347 
L 255.367447 148.12895 
L 255.644995 148.12895 
L 255.644995 144.296554 
L 255.954612 144.296554 
L 255.954612 140.464158 
L 256.207324 140.464158 
L 256.246455 132.799366 
L 256.322805 132.799366 
L 256.322805 128.96697 
L 256.434394 128.96697 
L 256.434394 125.134574 
L 256.804526 125.134574 
L 256.804526 121.302178 
L 257.189368 121.302178 
L 257.189368 117.469782 
L 258.517825 117.469782 
L 258.517825 113.637386 
L 259.521068 113.637386 
L 259.521068 109.80499 
L 259.737395 109.80499 
L 259.737395 105.972594 
L 259.904803 105.972594 
L 259.934675 98.307802 
L 260.236318 98.307802 
L 260.236318 94.475406 
L 261.239196 94.475406 
L 261.239196 90.64301 
L 261.38655 90.64301 
L 261.38655 86.810614 
L 261.884004 86.810614 
L 261.884004 82.978218 
L 262.313093 82.978218 
L 262.341887 75.313426 
L 263.83347 75.313426 
L 263.83347 71.48103 
L 264.773124 71.48103 
L 264.773124 67.648634 
L 266.050418 67.648634 
L 266.050418 63.816238 
L 286.533587 63.816238 
L 286.599625 56.151446 
L 288.663638 56.151446 
L 288.663638 52.31905 
L 288.869202 52.31905 
L 288.869202 48.486653 
L 289.42233 48.486653 
L 289.42233 44.654257 
L 290.076498 44.654257 
L 290.076498 40.821861 
L 290.366553 40.821861 
L 290.47383 33.157069 
L 291.096113 33.157069 
L 291.096113 29.324673 
L 291.449953 29.324673 
L 291.48561 21.659881 
L 292.686245 21.659881 
L 292.686245 17.827485 
L 293.561614 17.827485 
L 293.561614 13.995089 
L 295.223705 13.995089 
L 295.223705 10.162693 
L 295.757571 10.162693 
L 295.757571 6.330297 
L 295.757571 6.330297 
L 460.8 6.330297 
L 460.8 6.330297 
" style="fill:none;stroke:#bf00bf;stroke-linecap:square;stroke-width:1.5;"/>
   </g>
   <g id="patch_3">
    <path d="M 0 293.76 
L 0 3.456 
" style="fill:none;stroke:#000000;stroke-linecap:square;stroke-linejoin:miter;stroke-width:0.8;"/>
   </g>
   <g id="patch_4">
    <path d="M 460.8 293.76 
L 460.8 3.456 
" style="fill:none;stroke:#000000;stroke-linecap:square;stroke-linejoin:miter;stroke-width:0.8;"/>
   </g>
   <g id="patch_5">
    <path d="M 0 293.76 
L 460.8 293.76 
" style="fill:none;stroke:#000000;stroke-linecap:square;stroke-linejoin:miter;stroke-width:0.8;"/>
   </g>
   <g id="patch_6">
    <path d="M 0 3.456 
L 460.8 3.456 
" style="fill:none;stroke:#000000;stroke-linecap:square;stroke-linejoin:miter;stroke-width:0.8;"/>
   </g>
   <g id="text_6">
    <!-- {f15-f19}, 20-D -->
    <defs>
     <path d="M 51.125 -9.28125 
L 51.125 -16.3125 
L 48.09375 -16.3125 
Q 35.9375 -16.3125 31.8125 -12.6875 
Q 27.6875 -9.078125 27.6875 1.703125 
L 27.6875 13.375 
Q 27.6875 20.75 25.046875 23.578125 
Q 22.40625 26.421875 15.484375 26.421875 
L 12.5 26.421875 
L 12.5 33.40625 
L 15.484375 33.40625 
Q 22.46875 33.40625 25.078125 36.203125 
Q 27.6875 39.015625 27.6875 46.296875 
L 27.6875 58.015625 
Q 27.6875 68.796875 31.8125 72.390625 
Q 35.9375 75.984375 48.09375 75.984375 
L 51.125 75.984375 
L 51.125 69 
L 47.796875 69 
Q 40.921875 69 38.8125 66.84375 
Q 36.71875 64.703125 36.71875 57.8125 
L 36.71875 45.703125 
Q 36.71875 38.03125 34.5 34.5625 
Q 32.28125 31.109375 26.90625 29.890625 
Q 32.328125 28.5625 34.515625 25.09375 
Q 36.71875 21.625 36.71875 14.015625 
L 36.71875 1.90625 
Q 36.71875 -4.984375 38.8125 -7.125 
Q 40.921875 -9.28125 47.796875 -9.28125 
z
" id="DejaVuSans-123"/>
     <path d="M 10.796875 72.90625 
L 49.515625 72.90625 
L 49.515625 64.59375 
L 19.828125 64.59375 
L 19.828125 46.734375 
Q 21.96875 47.46875 24.109375 47.828125 
Q 26.265625 48.1875 28.421875 48.1875 
Q 40.625 48.1875 47.75 41.5 
Q 54.890625 34.8125 54.890625 23.390625 
Q 54.890625 11.625 47.5625 5.09375 
Q 40.234375 -1.421875 26.90625 -1.421875 
Q 22.3125 -1.421875 17.546875 -0.640625 
Q 12.796875 0.140625 7.71875 1.703125 
L 7.71875 11.625 
Q 12.109375 9.234375 16.796875 8.0625 
Q 21.484375 6.890625 26.703125 6.890625 
Q 35.15625 6.890625 40.078125 11.328125 
Q 45.015625 15.765625 45.015625 23.390625 
Q 45.015625 31 40.078125 35.4375 
Q 35.15625 39.890625 26.703125 39.890625 
Q 22.75 39.890625 18.8125 39.015625 
Q 14.890625 38.140625 10.796875 36.28125 
z
" id="DejaVuSans-53"/>
     <path d="M 10.984375 1.515625 
L 10.984375 10.5 
Q 14.703125 8.734375 18.5 7.8125 
Q 22.3125 6.890625 25.984375 6.890625 
Q 35.75 6.890625 40.890625 13.453125 
Q 46.046875 20.015625 46.78125 33.40625 
Q 43.953125 29.203125 39.59375 26.953125 
Q 35.25 24.703125 29.984375 24.703125 
Q 19.046875 24.703125 12.671875 31.3125 
Q 6.296875 37.9375 6.296875 49.421875 
Q 6.296875 60.640625 12.9375 67.421875 
Q 19.578125 74.21875 30.609375 74.21875 
Q 43.265625 74.21875 49.921875 64.515625 
Q 56.59375 54.828125 56.59375 36.375 
Q 56.59375 19.140625 48.40625 8.859375 
Q 40.234375 -1.421875 26.421875 -1.421875 
Q 22.703125 -1.421875 18.890625 -0.6875 
Q 15.09375 0.046875 10.984375 1.515625 
z
M 30.609375 32.421875 
Q 37.25 32.421875 41.125 36.953125 
Q 45.015625 41.5 45.015625 49.421875 
Q 45.015625 57.28125 41.125 61.84375 
Q 37.25 66.40625 30.609375 66.40625 
Q 23.96875 66.40625 20.09375 61.84375 
Q 16.21875 57.28125 16.21875 49.421875 
Q 16.21875 41.5 20.09375 36.953125 
Q 23.96875 32.421875 30.609375 32.421875 
z
" id="DejaVuSans-57"/>
     <path d="M 12.5 -9.28125 
L 15.921875 -9.28125 
Q 22.75 -9.28125 24.828125 -7.171875 
Q 26.90625 -5.078125 26.90625 1.90625 
L 26.90625 14.015625 
Q 26.90625 21.625 29.09375 25.09375 
Q 31.296875 28.5625 36.71875 29.890625 
Q 31.296875 31.109375 29.09375 34.5625 
Q 26.90625 38.03125 26.90625 45.703125 
L 26.90625 57.8125 
Q 26.90625 64.75 24.828125 66.875 
Q 22.75 69 15.921875 69 
L 12.5 69 
L 12.5 75.984375 
L 15.578125 75.984375 
Q 27.734375 75.984375 31.8125 72.390625 
Q 35.890625 68.796875 35.890625 58.015625 
L 35.890625 46.296875 
Q 35.890625 39.015625 38.515625 36.203125 
Q 41.15625 33.40625 48.09375 33.40625 
L 51.125 33.40625 
L 51.125 26.421875 
L 48.09375 26.421875 
Q 41.15625 26.421875 38.515625 23.578125 
Q 35.890625 20.75 35.890625 13.375 
L 35.890625 1.703125 
Q 35.890625 -9.078125 31.8125 -12.6875 
Q 27.734375 -16.3125 15.578125 -16.3125 
L 12.5 -16.3125 
z
" id="DejaVuSans-125"/>
     <path d="M 11.71875 12.40625 
L 22.015625 12.40625 
L 22.015625 4 
L 14.015625 -11.625 
L 7.71875 -11.625 
L 11.71875 4 
z
" id="DejaVuSans-44"/>
     <path d="M 19.1875 8.296875 
L 53.609375 8.296875 
L 53.609375 0 
L 7.328125 0 
L 7.328125 8.296875 
Q 12.9375 14.109375 22.625 23.890625 
Q 32.328125 33.6875 34.8125 36.53125 
Q 39.546875 41.84375 41.421875 45.53125 
Q 43.3125 49.21875 43.3125 52.78125 
Q 43.3125 58.59375 39.234375 62.25 
Q 35.15625 65.921875 28.609375 65.921875 
Q 23.96875 65.921875 18.8125 64.3125 
Q 13.671875 62.703125 7.8125 59.421875 
L 7.8125 69.390625 
Q 13.765625 71.78125 18.9375 73 
Q 24.125 74.21875 28.421875 74.21875 
Q 39.75 74.21875 46.484375 68.546875 
Q 53.21875 62.890625 53.21875 53.421875 
Q 53.21875 48.921875 51.53125 44.890625 
Q 49.859375 40.875 45.40625 35.40625 
Q 44.1875 33.984375 37.640625 27.21875 
Q 31.109375 20.453125 19.1875 8.296875 
z
" id="DejaVuSans-50"/>
    </defs>
    <g transform="translate(293.159 287.95392)scale(0.2 -0.2)">
     <use xlink:href="#DejaVuSans-123"/>
     <use x="63.623047" xlink:href="#DejaVuSans-102"/>
     <use x="98.828125" xlink:href="#DejaVuSans-49"/>
     <use x="162.451172" xlink:href="#DejaVuSans-53"/>
     <use x="226.074219" xlink:href="#DejaVuSans-45"/>
     <use x="262.158203" xlink:href="#DejaVuSans-102"/>
     <use x="297.363281" xlink:href="#DejaVuSans-49"/>
     <use x="360.986328" xlink:href="#DejaVuSans-57"/>
     <use x="424.609375" xlink:href="#DejaVuSans-125"/>
     <use x="488.232422" xlink:href="#DejaVuSans-44"/>
     <use x="520.019531" xlink:href="#DejaVuSans-32"/>
     <use x="551.806641" xlink:href="#DejaVuSans-50"/>
     <use x="615.429688" xlink:href="#DejaVuSans-48"/>
     <use x="679.052734" xlink:href="#DejaVuSans-45"/>
     <use x="715.136719" xlink:href="#DejaVuSans-68"/>
    </g>
   </g>
   <g id="text_7">
    <!-- v2.4 -->
    <defs>
     <path d="M 2.984375 54.6875 
L 12.5 54.6875 
L 29.59375 8.796875 
L 46.6875 54.6875 
L 56.203125 54.6875 
L 35.6875 0 
L 23.484375 0 
z
" id="DejaVuSans-118"/>
     <path d="M 10.6875 12.40625 
L 21 12.40625 
L 21 0 
L 10.6875 0 
z
" id="DejaVuSans-46"/>
    </defs>
    <g style="fill:#808080;" transform="translate(219.489063 288.777272)scale(0.1 -0.1)">
     <use xlink:href="#DejaVuSans-118"/>
     <use x="59.179688" xlink:href="#DejaVuSans-50"/>
     <use x="122.802734" xlink:href="#DejaVuSans-46"/>
     <use x="154.589844" xlink:href="#DejaVuSans-52"/>
    </g>
   </g>
  </g>
 </g>
 <defs>
  <clipPath id="pd2c119be80">
   <rect height="290.304" width="460.8" x="0" y="3.456"/>
  </clipPath>
 </defs>
</svg>
