<?xml version="1.0" encoding="utf-8" standalone="no"?>
<!DOCTYPE svg PUBLIC "-//W3C//DTD SVG 1.1//EN"
  "http://www.w3.org/Graphics/SVG/1.1/DTD/svg11.dtd">
<!-- Created with matplotlib (https://matplotlib.org/) -->
<svg height="345.6pt" version="1.1" viewBox="0 0 460.8 345.6" width="460.8pt" xmlns="http://www.w3.org/2000/svg" xmlns:xlink="http://www.w3.org/1999/xlink">
 <defs>
  <style type="text/css">
*{stroke-linecap:butt;stroke-linejoin:round;}
  </style>
 </defs>
 <g id="figure_1">
  <g id="patch_1">
   <path d="M 0 345.6 
L 460.8 345.6 
L 460.8 0 
L 0 0 
z
" style="fill:#ffffff;"/>
  </g>
  <g id="axes_1">
   <g id="patch_2">
    <path d="M 57.6 298.944 
L 338.688 298.944 
L 338.688 3.456 
L 57.6 3.456 
z
" style="fill:#ffffff;"/>
   </g>
   <g id="matplotlib.axis_1">
    <g id="xtick_1">
     <g id="line2d_1">
      <path clip-path="url(#p203dac7ca9)" d="M 57.6 298.944 
L 57.6 3.456 
" style="fill:none;stroke:#b0b0b0;stroke-linecap:square;stroke-width:0.8;"/>
     </g>
     <g id="line2d_2">
      <defs>
       <path d="M 0 0 
L 0 3.5 
" id="mfe8969ec3c" style="stroke:#000000;stroke-width:0.8;"/>
      </defs>
      <g>
       <use style="stroke:#000000;stroke-width:0.8;" x="57.6" xlink:href="#mfe8969ec3c" y="298.944"/>
      </g>
     </g>
     <g id="text_1">
      <!-- 0 -->
      <defs>
       <path d="M 31.78125 66.40625 
Q 24.171875 66.40625 20.328125 58.90625 
Q 16.5 51.421875 16.5 36.375 
Q 16.5 21.390625 20.328125 13.890625 
Q 24.171875 6.390625 31.78125 6.390625 
Q 39.453125 6.390625 43.28125 13.890625 
Q 47.125 21.390625 47.125 36.375 
Q 47.125 51.421875 43.28125 58.90625 
Q 39.453125 66.40625 31.78125 66.40625 
z
M 31.78125 74.21875 
Q 44.046875 74.21875 50.515625 64.515625 
Q 56.984375 54.828125 56.984375 36.375 
Q 56.984375 17.96875 50.515625 8.265625 
Q 44.046875 -1.421875 31.78125 -1.421875 
Q 19.53125 -1.421875 13.0625 8.265625 
Q 6.59375 17.96875 6.59375 36.375 
Q 6.59375 54.828125 13.0625 64.515625 
Q 19.53125 74.21875 31.78125 74.21875 
z
" id="DejaVuSans-48"/>
      </defs>
      <g transform="translate(51.2375 321.140875)scale(0.2 -0.2)">
       <use xlink:href="#DejaVuSans-48"/>
      </g>
     </g>
    </g>
    <g id="xtick_2">
     <g id="line2d_3">
      <path clip-path="url(#p203dac7ca9)" d="M 137.910857 298.944 
L 137.910857 3.456 
" style="fill:none;stroke:#b0b0b0;stroke-linecap:square;stroke-width:0.8;"/>
     </g>
     <g id="line2d_4">
      <g>
       <use style="stroke:#000000;stroke-width:0.8;" x="137.910857" xlink:href="#mfe8969ec3c" y="298.944"/>
      </g>
     </g>
     <g id="text_2">
      <!-- 2 -->
      <defs>
       <path d="M 19.1875 8.296875 
L 53.609375 8.296875 
L 53.609375 0 
L 7.328125 0 
L 7.328125 8.296875 
Q 12.9375 14.109375 22.625 23.890625 
Q 32.328125 33.6875 34.8125 36.53125 
Q 39.546875 41.84375 41.421875 45.53125 
Q 43.3125 49.21875 43.3125 52.78125 
Q 43.3125 58.59375 39.234375 62.25 
Q 35.15625 65.921875 28.609375 65.921875 
Q 23.96875 65.921875 18.8125 64.3125 
Q 13.671875 62.703125 7.8125 59.421875 
L 7.8125 69.390625 
Q 13.765625 71.78125 18.9375 73 
Q 24.125 74.21875 28.421875 74.21875 
Q 39.75 74.21875 46.484375 68.546875 
Q 53.21875 62.890625 53.21875 53.421875 
Q 53.21875 48.921875 51.53125 44.890625 
Q 49.859375 40.875 45.40625 35.40625 
Q 44.1875 33.984375 37.640625 27.21875 
Q 31.109375 20.453125 19.1875 8.296875 
z
" id="DejaVuSans-50"/>
      </defs>
      <g transform="translate(131.548357 321.140875)scale(0.2 -0.2)">
       <use xlink:href="#DejaVuSans-50"/>
      </g>
     </g>
    </g>
    <g id="xtick_3">
     <g id="line2d_5">
      <path clip-path="url(#p203dac7ca9)" d="M 218.221714 298.944 
L 218.221714 3.456 
" style="fill:none;stroke:#b0b0b0;stroke-linecap:square;stroke-width:0.8;"/>
     </g>
     <g id="line2d_6">
      <g>
       <use style="stroke:#000000;stroke-width:0.8;" x="218.221714" xlink:href="#mfe8969ec3c" y="298.944"/>
      </g>
     </g>
     <g id="text_3">
      <!-- 4 -->
      <defs>
       <path d="M 37.796875 64.3125 
L 12.890625 25.390625 
L 37.796875 25.390625 
z
M 35.203125 72.90625 
L 47.609375 72.90625 
L 47.609375 25.390625 
L 58.015625 25.390625 
L 58.015625 17.1875 
L 47.609375 17.1875 
L 47.609375 0 
L 37.796875 0 
L 37.796875 17.1875 
L 4.890625 17.1875 
L 4.890625 26.703125 
z
" id="DejaVuSans-52"/>
      </defs>
      <g transform="translate(211.859214 321.140875)scale(0.2 -0.2)">
       <use xlink:href="#DejaVuSans-52"/>
      </g>
     </g>
    </g>
    <g id="xtick_4">
     <g id="line2d_7">
      <path clip-path="url(#p203dac7ca9)" d="M 298.532571 298.944 
L 298.532571 3.456 
" style="fill:none;stroke:#b0b0b0;stroke-linecap:square;stroke-width:0.8;"/>
     </g>
     <g id="line2d_8">
      <g>
       <use style="stroke:#000000;stroke-width:0.8;" x="298.532571" xlink:href="#mfe8969ec3c" y="298.944"/>
      </g>
     </g>
     <g id="text_4">
      <!-- 6 -->
      <defs>
       <path d="M 33.015625 40.375 
Q 26.375 40.375 22.484375 35.828125 
Q 18.609375 31.296875 18.609375 23.390625 
Q 18.609375 15.53125 22.484375 10.953125 
Q 26.375 6.390625 33.015625 6.390625 
Q 39.65625 6.390625 43.53125 10.953125 
Q 47.40625 15.53125 47.40625 23.390625 
Q 47.40625 31.296875 43.53125 35.828125 
Q 39.65625 40.375 33.015625 40.375 
z
M 52.59375 71.296875 
L 52.59375 62.3125 
Q 48.875 64.0625 45.09375 64.984375 
Q 41.3125 65.921875 37.59375 65.921875 
Q 27.828125 65.921875 22.671875 59.328125 
Q 17.53125 52.734375 16.796875 39.40625 
Q 19.671875 43.65625 24.015625 45.921875 
Q 28.375 48.1875 33.59375 48.1875 
Q 44.578125 48.1875 50.953125 41.515625 
Q 57.328125 34.859375 57.328125 23.390625 
Q 57.328125 12.15625 50.6875 5.359375 
Q 44.046875 -1.421875 33.015625 -1.421875 
Q 20.359375 -1.421875 13.671875 8.265625 
Q 6.984375 17.96875 6.984375 36.375 
Q 6.984375 53.65625 15.1875 63.9375 
Q 23.390625 74.21875 37.203125 74.21875 
Q 40.921875 74.21875 44.703125 73.484375 
Q 48.484375 72.75 52.59375 71.296875 
z
" id="DejaVuSans-54"/>
      </defs>
      <g transform="translate(292.170071 321.140875)scale(0.2 -0.2)">
       <use xlink:href="#DejaVuSans-54"/>
      </g>
     </g>
    </g>
    <g id="xtick_5">
     <g id="line2d_9">
      <path clip-path="url(#p203dac7ca9)" d="M 97.755429 298.944 
L 97.755429 3.456 
" style="fill:none;stroke:#b0b0b0;stroke-linecap:square;stroke-width:0.8;"/>
     </g>
     <g id="line2d_10">
      <defs>
       <path d="M 0 0 
L 0 2 
" id="m7a17927492" style="stroke:#000000;stroke-width:0.6;"/>
      </defs>
      <g>
       <use style="stroke:#000000;stroke-width:0.6;" x="97.755429" xlink:href="#m7a17927492" y="298.944"/>
      </g>
     </g>
    </g>
    <g id="xtick_6">
     <g id="line2d_11">
      <path clip-path="url(#p203dac7ca9)" d="M 178.066286 298.944 
L 178.066286 3.456 
" style="fill:none;stroke:#b0b0b0;stroke-linecap:square;stroke-width:0.8;"/>
     </g>
     <g id="line2d_12">
      <g>
       <use style="stroke:#000000;stroke-width:0.6;" x="178.066286" xlink:href="#m7a17927492" y="298.944"/>
      </g>
     </g>
    </g>
    <g id="xtick_7">
     <g id="line2d_13">
      <path clip-path="url(#p203dac7ca9)" d="M 258.377143 298.944 
L 258.377143 3.456 
" style="fill:none;stroke:#b0b0b0;stroke-linecap:square;stroke-width:0.8;"/>
     </g>
     <g id="line2d_14">
      <g>
       <use style="stroke:#000000;stroke-width:0.6;" x="258.377143" xlink:href="#m7a17927492" y="298.944"/>
      </g>
     </g>
    </g>
    <g id="xtick_8">
     <g id="line2d_15">
      <path clip-path="url(#p203dac7ca9)" d="M 338.688 298.944 
L 338.688 3.456 
" style="fill:none;stroke:#b0b0b0;stroke-linecap:square;stroke-width:0.8;"/>
     </g>
     <g id="line2d_16">
      <g>
       <use style="stroke:#000000;stroke-width:0.6;" x="338.688" xlink:href="#m7a17927492" y="298.944"/>
      </g>
     </g>
    </g>
    <g id="text_5">
     <!-- log10(# f-evals / dimension) -->
     <defs>
      <path d="M 9.421875 75.984375 
L 18.40625 75.984375 
L 18.40625 0 
L 9.421875 0 
z
" id="DejaVuSans-108"/>
      <path d="M 30.609375 48.390625 
Q 23.390625 48.390625 19.1875 42.75 
Q 14.984375 37.109375 14.984375 27.296875 
Q 14.984375 17.484375 19.15625 11.84375 
Q 23.34375 6.203125 30.609375 6.203125 
Q 37.796875 6.203125 41.984375 11.859375 
Q 46.1875 17.53125 46.1875 27.296875 
Q 46.1875 37.015625 41.984375 42.703125 
Q 37.796875 48.390625 30.609375 48.390625 
z
M 30.609375 56 
Q 42.328125 56 49.015625 48.375 
Q 55.71875 40.765625 55.71875 27.296875 
Q 55.71875 13.875 49.015625 6.21875 
Q 42.328125 -1.421875 30.609375 -1.421875 
Q 18.84375 -1.421875 12.171875 6.21875 
Q 5.515625 13.875 5.515625 27.296875 
Q 5.515625 40.765625 12.171875 48.375 
Q 18.84375 56 30.609375 56 
z
" id="DejaVuSans-111"/>
      <path d="M 45.40625 27.984375 
Q 45.40625 37.75 41.375 43.109375 
Q 37.359375 48.484375 30.078125 48.484375 
Q 22.859375 48.484375 18.828125 43.109375 
Q 14.796875 37.75 14.796875 27.984375 
Q 14.796875 18.265625 18.828125 12.890625 
Q 22.859375 7.515625 30.078125 7.515625 
Q 37.359375 7.515625 41.375 12.890625 
Q 45.40625 18.265625 45.40625 27.984375 
z
M 54.390625 6.78125 
Q 54.390625 -7.171875 48.1875 -13.984375 
Q 42 -20.796875 29.203125 -20.796875 
Q 24.46875 -20.796875 20.265625 -20.09375 
Q 16.0625 -19.390625 12.109375 -17.921875 
L 12.109375 -9.1875 
Q 16.0625 -11.328125 19.921875 -12.34375 
Q 23.78125 -13.375 27.78125 -13.375 
Q 36.625 -13.375 41.015625 -8.765625 
Q 45.40625 -4.15625 45.40625 5.171875 
L 45.40625 9.625 
Q 42.625 4.78125 38.28125 2.390625 
Q 33.9375 0 27.875 0 
Q 17.828125 0 11.671875 7.65625 
Q 5.515625 15.328125 5.515625 27.984375 
Q 5.515625 40.671875 11.671875 48.328125 
Q 17.828125 56 27.875 56 
Q 33.9375 56 38.28125 53.609375 
Q 42.625 51.21875 45.40625 46.390625 
L 45.40625 54.6875 
L 54.390625 54.6875 
z
" id="DejaVuSans-103"/>
      <path d="M 12.40625 8.296875 
L 28.515625 8.296875 
L 28.515625 63.921875 
L 10.984375 60.40625 
L 10.984375 69.390625 
L 28.421875 72.90625 
L 38.28125 72.90625 
L 38.28125 8.296875 
L 54.390625 8.296875 
L 54.390625 0 
L 12.40625 0 
z
" id="DejaVuSans-49"/>
      <path d="M 31 75.875 
Q 24.46875 64.65625 21.28125 53.65625 
Q 18.109375 42.671875 18.109375 31.390625 
Q 18.109375 20.125 21.3125 9.0625 
Q 24.515625 -2 31 -13.1875 
L 23.1875 -13.1875 
Q 15.875 -1.703125 12.234375 9.375 
Q 8.59375 20.453125 8.59375 31.390625 
Q 8.59375 42.28125 12.203125 53.3125 
Q 15.828125 64.359375 23.1875 75.875 
z
" id="DejaVuSans-40"/>
      <path d="M 51.125 44 
L 36.921875 44 
L 32.8125 27.6875 
L 47.125 27.6875 
z
M 43.796875 71.78125 
L 38.71875 51.515625 
L 52.984375 51.515625 
L 58.109375 71.78125 
L 65.921875 71.78125 
L 60.890625 51.515625 
L 76.125 51.515625 
L 76.125 44 
L 58.984375 44 
L 54.984375 27.6875 
L 70.515625 27.6875 
L 70.515625 20.21875 
L 53.078125 20.21875 
L 48 0 
L 40.1875 0 
L 45.21875 20.21875 
L 30.90625 20.21875 
L 25.875 0 
L 18.015625 0 
L 23.09375 20.21875 
L 7.71875 20.21875 
L 7.71875 27.6875 
L 24.90625 27.6875 
L 29 44 
L 13.28125 44 
L 13.28125 51.515625 
L 30.90625 51.515625 
L 35.890625 71.78125 
z
" id="DejaVuSans-35"/>
      <path id="DejaVuSans-32"/>
      <path d="M 37.109375 75.984375 
L 37.109375 68.5 
L 28.515625 68.5 
Q 23.6875 68.5 21.796875 66.546875 
Q 19.921875 64.59375 19.921875 59.515625 
L 19.921875 54.6875 
L 34.71875 54.6875 
L 34.71875 47.703125 
L 19.921875 47.703125 
L 19.921875 0 
L 10.890625 0 
L 10.890625 47.703125 
L 2.296875 47.703125 
L 2.296875 54.6875 
L 10.890625 54.6875 
L 10.890625 58.5 
Q 10.890625 67.625 15.140625 71.796875 
Q 19.390625 75.984375 28.609375 75.984375 
z
" id="DejaVuSans-102"/>
      <path d="M 4.890625 31.390625 
L 31.203125 31.390625 
L 31.203125 23.390625 
L 4.890625 23.390625 
z
" id="DejaVuSans-45"/>
      <path d="M 56.203125 29.59375 
L 56.203125 25.203125 
L 14.890625 25.203125 
Q 15.484375 15.921875 20.484375 11.0625 
Q 25.484375 6.203125 34.421875 6.203125 
Q 39.59375 6.203125 44.453125 7.46875 
Q 49.3125 8.734375 54.109375 11.28125 
L 54.109375 2.78125 
Q 49.265625 0.734375 44.1875 -0.34375 
Q 39.109375 -1.421875 33.890625 -1.421875 
Q 20.796875 -1.421875 13.15625 6.1875 
Q 5.515625 13.8125 5.515625 26.8125 
Q 5.515625 40.234375 12.765625 48.109375 
Q 20.015625 56 32.328125 56 
Q 43.359375 56 49.78125 48.890625 
Q 56.203125 41.796875 56.203125 29.59375 
z
M 47.21875 32.234375 
Q 47.125 39.59375 43.09375 43.984375 
Q 39.0625 48.390625 32.421875 48.390625 
Q 24.90625 48.390625 20.390625 44.140625 
Q 15.875 39.890625 15.1875 32.171875 
z
" id="DejaVuSans-101"/>
      <path d="M 2.984375 54.6875 
L 12.5 54.6875 
L 29.59375 8.796875 
L 46.6875 54.6875 
L 56.203125 54.6875 
L 35.6875 0 
L 23.484375 0 
z
" id="DejaVuSans-118"/>
      <path d="M 34.28125 27.484375 
Q 23.390625 27.484375 19.1875 25 
Q 14.984375 22.515625 14.984375 16.5 
Q 14.984375 11.71875 18.140625 8.90625 
Q 21.296875 6.109375 26.703125 6.109375 
Q 34.1875 6.109375 38.703125 11.40625 
Q 43.21875 16.703125 43.21875 25.484375 
L 43.21875 27.484375 
z
M 52.203125 31.203125 
L 52.203125 0 
L 43.21875 0 
L 43.21875 8.296875 
Q 40.140625 3.328125 35.546875 0.953125 
Q 30.953125 -1.421875 24.3125 -1.421875 
Q 15.921875 -1.421875 10.953125 3.296875 
Q 6 8.015625 6 15.921875 
Q 6 25.140625 12.171875 29.828125 
Q 18.359375 34.515625 30.609375 34.515625 
L 43.21875 34.515625 
L 43.21875 35.40625 
Q 43.21875 41.609375 39.140625 45 
Q 35.0625 48.390625 27.6875 48.390625 
Q 23 48.390625 18.546875 47.265625 
Q 14.109375 46.140625 10.015625 43.890625 
L 10.015625 52.203125 
Q 14.9375 54.109375 19.578125 55.046875 
Q 24.21875 56 28.609375 56 
Q 40.484375 56 46.34375 49.84375 
Q 52.203125 43.703125 52.203125 31.203125 
z
" id="DejaVuSans-97"/>
      <path d="M 44.28125 53.078125 
L 44.28125 44.578125 
Q 40.484375 46.53125 36.375 47.5 
Q 32.28125 48.484375 27.875 48.484375 
Q 21.1875 48.484375 17.84375 46.4375 
Q 14.5 44.390625 14.5 40.28125 
Q 14.5 37.15625 16.890625 35.375 
Q 19.28125 33.59375 26.515625 31.984375 
L 29.59375 31.296875 
Q 39.15625 29.25 43.1875 25.515625 
Q 47.21875 21.78125 47.21875 15.09375 
Q 47.21875 7.46875 41.1875 3.015625 
Q 35.15625 -1.421875 24.609375 -1.421875 
Q 20.21875 -1.421875 15.453125 -0.5625 
Q 10.6875 0.296875 5.421875 2 
L 5.421875 11.28125 
Q 10.40625 8.6875 15.234375 7.390625 
Q 20.0625 6.109375 24.8125 6.109375 
Q 31.15625 6.109375 34.5625 8.28125 
Q 37.984375 10.453125 37.984375 14.40625 
Q 37.984375 18.0625 35.515625 20.015625 
Q 33.0625 21.96875 24.703125 23.78125 
L 21.578125 24.515625 
Q 13.234375 26.265625 9.515625 29.90625 
Q 5.8125 33.546875 5.8125 39.890625 
Q 5.8125 47.609375 11.28125 51.796875 
Q 16.75 56 26.8125 56 
Q 31.78125 56 36.171875 55.265625 
Q 40.578125 54.546875 44.28125 53.078125 
z
" id="DejaVuSans-115"/>
      <path d="M 25.390625 72.90625 
L 33.6875 72.90625 
L 8.296875 -9.28125 
L 0 -9.28125 
z
" id="DejaVuSans-47"/>
      <path d="M 45.40625 46.390625 
L 45.40625 75.984375 
L 54.390625 75.984375 
L 54.390625 0 
L 45.40625 0 
L 45.40625 8.203125 
Q 42.578125 3.328125 38.25 0.953125 
Q 33.9375 -1.421875 27.875 -1.421875 
Q 17.96875 -1.421875 11.734375 6.484375 
Q 5.515625 14.40625 5.515625 27.296875 
Q 5.515625 40.1875 11.734375 48.09375 
Q 17.96875 56 27.875 56 
Q 33.9375 56 38.25 53.625 
Q 42.578125 51.265625 45.40625 46.390625 
z
M 14.796875 27.296875 
Q 14.796875 17.390625 18.875 11.75 
Q 22.953125 6.109375 30.078125 6.109375 
Q 37.203125 6.109375 41.296875 11.75 
Q 45.40625 17.390625 45.40625 27.296875 
Q 45.40625 37.203125 41.296875 42.84375 
Q 37.203125 48.484375 30.078125 48.484375 
Q 22.953125 48.484375 18.875 42.84375 
Q 14.796875 37.203125 14.796875 27.296875 
z
" id="DejaVuSans-100"/>
      <path d="M 9.421875 54.6875 
L 18.40625 54.6875 
L 18.40625 0 
L 9.421875 0 
z
M 9.421875 75.984375 
L 18.40625 75.984375 
L 18.40625 64.59375 
L 9.421875 64.59375 
z
" id="DejaVuSans-105"/>
      <path d="M 52 44.1875 
Q 55.375 50.25 60.0625 53.125 
Q 64.75 56 71.09375 56 
Q 79.640625 56 84.28125 50.015625 
Q 88.921875 44.046875 88.921875 33.015625 
L 88.921875 0 
L 79.890625 0 
L 79.890625 32.71875 
Q 79.890625 40.578125 77.09375 44.375 
Q 74.3125 48.1875 68.609375 48.1875 
Q 61.625 48.1875 57.5625 43.546875 
Q 53.515625 38.921875 53.515625 30.90625 
L 53.515625 0 
L 44.484375 0 
L 44.484375 32.71875 
Q 44.484375 40.625 41.703125 44.40625 
Q 38.921875 48.1875 33.109375 48.1875 
Q 26.21875 48.1875 22.15625 43.53125 
Q 18.109375 38.875 18.109375 30.90625 
L 18.109375 0 
L 9.078125 0 
L 9.078125 54.6875 
L 18.109375 54.6875 
L 18.109375 46.1875 
Q 21.1875 51.21875 25.484375 53.609375 
Q 29.78125 56 35.6875 56 
Q 41.65625 56 45.828125 52.96875 
Q 50 49.953125 52 44.1875 
z
" id="DejaVuSans-109"/>
      <path d="M 54.890625 33.015625 
L 54.890625 0 
L 45.90625 0 
L 45.90625 32.71875 
Q 45.90625 40.484375 42.875 44.328125 
Q 39.84375 48.1875 33.796875 48.1875 
Q 26.515625 48.1875 22.3125 43.546875 
Q 18.109375 38.921875 18.109375 30.90625 
L 18.109375 0 
L 9.078125 0 
L 9.078125 54.6875 
L 18.109375 54.6875 
L 18.109375 46.1875 
Q 21.34375 51.125 25.703125 53.5625 
Q 30.078125 56 35.796875 56 
Q 45.21875 56 50.046875 50.171875 
Q 54.890625 44.34375 54.890625 33.015625 
z
" id="DejaVuSans-110"/>
      <path d="M 8.015625 75.875 
L 15.828125 75.875 
Q 23.140625 64.359375 26.78125 53.3125 
Q 30.421875 42.28125 30.421875 31.390625 
Q 30.421875 20.453125 26.78125 9.375 
Q 23.140625 -1.703125 15.828125 -13.1875 
L 8.015625 -13.1875 
Q 14.5 -2 17.703125 9.0625 
Q 20.90625 20.125 20.90625 31.390625 
Q 20.90625 42.671875 17.703125 53.65625 
Q 14.5 64.65625 8.015625 75.875 
z
" id="DejaVuSans-41"/>
     </defs>
     <g transform="translate(77.303219 342.217594)scale(0.17 -0.17)">
      <use xlink:href="#DejaVuSans-108"/>
      <use x="27.783203" xlink:href="#DejaVuSans-111"/>
      <use x="88.964844" xlink:href="#DejaVuSans-103"/>
      <use x="152.441406" xlink:href="#DejaVuSans-49"/>
      <use x="216.064453" xlink:href="#DejaVuSans-48"/>
      <use x="279.6875" xlink:href="#DejaVuSans-40"/>
      <use x="318.701172" xlink:href="#DejaVuSans-35"/>
      <use x="402.490234" xlink:href="#DejaVuSans-32"/>
      <use x="434.277344" xlink:href="#DejaVuSans-102"/>
      <use x="469.404297" xlink:href="#DejaVuSans-45"/>
      <use x="505.488281" xlink:href="#DejaVuSans-101"/>
      <use x="567.011719" xlink:href="#DejaVuSans-118"/>
      <use x="626.191406" xlink:href="#DejaVuSans-97"/>
      <use x="687.470703" xlink:href="#DejaVuSans-108"/>
      <use x="715.253906" xlink:href="#DejaVuSans-115"/>
      <use x="767.353516" xlink:href="#DejaVuSans-32"/>
      <use x="799.140625" xlink:href="#DejaVuSans-47"/>
      <use x="832.832031" xlink:href="#DejaVuSans-32"/>
      <use x="864.619141" xlink:href="#DejaVuSans-100"/>
      <use x="928.095703" xlink:href="#DejaVuSans-105"/>
      <use x="955.878906" xlink:href="#DejaVuSans-109"/>
      <use x="1053.291016" xlink:href="#DejaVuSans-101"/>
      <use x="1114.814453" xlink:href="#DejaVuSans-110"/>
      <use x="1178.193359" xlink:href="#DejaVuSans-115"/>
      <use x="1230.292969" xlink:href="#DejaVuSans-105"/>
      <use x="1258.076172" xlink:href="#DejaVuSans-111"/>
      <use x="1319.257812" xlink:href="#DejaVuSans-110"/>
      <use x="1382.636719" xlink:href="#DejaVuSans-41"/>
     </g>
    </g>
   </g>
   <g id="matplotlib.axis_2">
    <g id="ytick_1">
     <g id="line2d_17">
      <path clip-path="url(#p203dac7ca9)" d="M 57.6 298.944 
L 338.688 298.944 
" style="fill:none;stroke:#b0b0b0;stroke-linecap:square;stroke-width:0.8;"/>
     </g>
     <g id="line2d_18">
      <defs>
       <path d="M 0 0 
L -3.5 0 
" id="m131f73eb65" style="stroke:#000000;stroke-width:0.8;"/>
      </defs>
      <g>
       <use style="stroke:#000000;stroke-width:0.8;" x="57.6" xlink:href="#m131f73eb65" y="298.944"/>
      </g>
     </g>
     <g id="text_6">
      <!-- 0.0 -->
      <defs>
       <path d="M 10.6875 12.40625 
L 21 12.40625 
L 21 0 
L 10.6875 0 
z
" id="DejaVuSans-46"/>
      </defs>
      <g transform="translate(25.155 305.02275)scale(0.16 -0.16)">
       <use xlink:href="#DejaVuSans-48"/>
       <use x="63.623047" xlink:href="#DejaVuSans-46"/>
       <use x="95.410156" xlink:href="#DejaVuSans-48"/>
      </g>
     </g>
    </g>
    <g id="ytick_2">
     <g id="line2d_19">
      <path clip-path="url(#p203dac7ca9)" d="M 57.6 240.431525 
L 338.688 240.431525 
" style="fill:none;stroke:#b0b0b0;stroke-linecap:square;stroke-width:0.8;"/>
     </g>
     <g id="line2d_20">
      <g>
       <use style="stroke:#000000;stroke-width:0.8;" x="57.6" xlink:href="#m131f73eb65" y="240.431525"/>
      </g>
     </g>
     <g id="text_7">
      <!-- 0.2 -->
      <g transform="translate(25.155 246.510275)scale(0.16 -0.16)">
       <use xlink:href="#DejaVuSans-48"/>
       <use x="63.623047" xlink:href="#DejaVuSans-46"/>
       <use x="95.410156" xlink:href="#DejaVuSans-50"/>
      </g>
     </g>
    </g>
    <g id="ytick_3">
     <g id="line2d_21">
      <path clip-path="url(#p203dac7ca9)" d="M 57.6 181.91905 
L 338.688 181.91905 
" style="fill:none;stroke:#b0b0b0;stroke-linecap:square;stroke-width:0.8;"/>
     </g>
     <g id="line2d_22">
      <g>
       <use style="stroke:#000000;stroke-width:0.8;" x="57.6" xlink:href="#m131f73eb65" y="181.91905"/>
      </g>
     </g>
     <g id="text_8">
      <!-- 0.4 -->
      <g transform="translate(25.155 187.9978)scale(0.16 -0.16)">
       <use xlink:href="#DejaVuSans-48"/>
       <use x="63.623047" xlink:href="#DejaVuSans-46"/>
       <use x="95.410156" xlink:href="#DejaVuSans-52"/>
      </g>
     </g>
    </g>
    <g id="ytick_4">
     <g id="line2d_23">
      <path clip-path="url(#p203dac7ca9)" d="M 57.6 123.406574 
L 338.688 123.406574 
" style="fill:none;stroke:#b0b0b0;stroke-linecap:square;stroke-width:0.8;"/>
     </g>
     <g id="line2d_24">
      <g>
       <use style="stroke:#000000;stroke-width:0.8;" x="57.6" xlink:href="#m131f73eb65" y="123.406574"/>
      </g>
     </g>
     <g id="text_9">
      <!-- 0.6 -->
      <g transform="translate(25.155 129.485324)scale(0.16 -0.16)">
       <use xlink:href="#DejaVuSans-48"/>
       <use x="63.623047" xlink:href="#DejaVuSans-46"/>
       <use x="95.410156" xlink:href="#DejaVuSans-54"/>
      </g>
     </g>
    </g>
    <g id="ytick_5">
     <g id="line2d_25">
      <path clip-path="url(#p203dac7ca9)" d="M 57.6 64.894099 
L 338.688 64.894099 
" style="fill:none;stroke:#b0b0b0;stroke-linecap:square;stroke-width:0.8;"/>
     </g>
     <g id="line2d_26">
      <g>
       <use style="stroke:#000000;stroke-width:0.8;" x="57.6" xlink:href="#m131f73eb65" y="64.894099"/>
      </g>
     </g>
     <g id="text_10">
      <!-- 0.8 -->
      <defs>
       <path d="M 31.78125 34.625 
Q 24.75 34.625 20.71875 30.859375 
Q 16.703125 27.09375 16.703125 20.515625 
Q 16.703125 13.921875 20.71875 10.15625 
Q 24.75 6.390625 31.78125 6.390625 
Q 38.8125 6.390625 42.859375 10.171875 
Q 46.921875 13.96875 46.921875 20.515625 
Q 46.921875 27.09375 42.890625 30.859375 
Q 38.875 34.625 31.78125 34.625 
z
M 21.921875 38.8125 
Q 15.578125 40.375 12.03125 44.71875 
Q 8.5 49.078125 8.5 55.328125 
Q 8.5 64.0625 14.71875 69.140625 
Q 20.953125 74.21875 31.78125 74.21875 
Q 42.671875 74.21875 48.875 69.140625 
Q 55.078125 64.0625 55.078125 55.328125 
Q 55.078125 49.078125 51.53125 44.71875 
Q 48 40.375 41.703125 38.8125 
Q 48.828125 37.15625 52.796875 32.3125 
Q 56.78125 27.484375 56.78125 20.515625 
Q 56.78125 9.90625 50.3125 4.234375 
Q 43.84375 -1.421875 31.78125 -1.421875 
Q 19.734375 -1.421875 13.25 4.234375 
Q 6.78125 9.90625 6.78125 20.515625 
Q 6.78125 27.484375 10.78125 32.3125 
Q 14.796875 37.15625 21.921875 38.8125 
z
M 18.3125 54.390625 
Q 18.3125 48.734375 21.84375 45.5625 
Q 25.390625 42.390625 31.78125 42.390625 
Q 38.140625 42.390625 41.71875 45.5625 
Q 45.3125 48.734375 45.3125 54.390625 
Q 45.3125 60.0625 41.71875 63.234375 
Q 38.140625 66.40625 31.78125 66.40625 
Q 25.390625 66.40625 21.84375 63.234375 
Q 18.3125 60.0625 18.3125 54.390625 
z
" id="DejaVuSans-56"/>
      </defs>
      <g transform="translate(25.155 70.972849)scale(0.16 -0.16)">
       <use xlink:href="#DejaVuSans-48"/>
       <use x="63.623047" xlink:href="#DejaVuSans-46"/>
       <use x="95.410156" xlink:href="#DejaVuSans-56"/>
      </g>
     </g>
    </g>
    <g id="ytick_6">
     <g id="line2d_27">
      <path clip-path="url(#p203dac7ca9)" d="M 57.6 6.381624 
L 338.688 6.381624 
" style="fill:none;stroke:#b0b0b0;stroke-linecap:square;stroke-width:0.8;"/>
     </g>
     <g id="line2d_28">
      <g>
       <use style="stroke:#000000;stroke-width:0.8;" x="57.6" xlink:href="#m131f73eb65" y="6.381624"/>
      </g>
     </g>
     <g id="text_11">
      <!-- 1.0 -->
      <g transform="translate(25.155 12.460374)scale(0.16 -0.16)">
       <use xlink:href="#DejaVuSans-49"/>
       <use x="63.623047" xlink:href="#DejaVuSans-46"/>
       <use x="95.410156" xlink:href="#DejaVuSans-48"/>
      </g>
     </g>
    </g>
    <g id="text_12">
     <!-- Fraction of function,target pairs -->
     <defs>
      <path d="M 9.8125 72.90625 
L 51.703125 72.90625 
L 51.703125 64.59375 
L 19.671875 64.59375 
L 19.671875 43.109375 
L 48.578125 43.109375 
L 48.578125 34.8125 
L 19.671875 34.8125 
L 19.671875 0 
L 9.8125 0 
z
" id="DejaVuSans-70"/>
      <path d="M 41.109375 46.296875 
Q 39.59375 47.171875 37.8125 47.578125 
Q 36.03125 48 33.890625 48 
Q 26.265625 48 22.1875 43.046875 
Q 18.109375 38.09375 18.109375 28.8125 
L 18.109375 0 
L 9.078125 0 
L 9.078125 54.6875 
L 18.109375 54.6875 
L 18.109375 46.1875 
Q 20.953125 51.171875 25.484375 53.578125 
Q 30.03125 56 36.53125 56 
Q 37.453125 56 38.578125 55.875 
Q 39.703125 55.765625 41.0625 55.515625 
z
" id="DejaVuSans-114"/>
      <path d="M 48.78125 52.59375 
L 48.78125 44.1875 
Q 44.96875 46.296875 41.140625 47.34375 
Q 37.3125 48.390625 33.40625 48.390625 
Q 24.65625 48.390625 19.8125 42.84375 
Q 14.984375 37.3125 14.984375 27.296875 
Q 14.984375 17.28125 19.8125 11.734375 
Q 24.65625 6.203125 33.40625 6.203125 
Q 37.3125 6.203125 41.140625 7.25 
Q 44.96875 8.296875 48.78125 10.40625 
L 48.78125 2.09375 
Q 45.015625 0.34375 40.984375 -0.53125 
Q 36.96875 -1.421875 32.421875 -1.421875 
Q 20.0625 -1.421875 12.78125 6.34375 
Q 5.515625 14.109375 5.515625 27.296875 
Q 5.515625 40.671875 12.859375 48.328125 
Q 20.21875 56 33.015625 56 
Q 37.15625 56 41.109375 55.140625 
Q 45.0625 54.296875 48.78125 52.59375 
z
" id="DejaVuSans-99"/>
      <path d="M 18.3125 70.21875 
L 18.3125 54.6875 
L 36.8125 54.6875 
L 36.8125 47.703125 
L 18.3125 47.703125 
L 18.3125 18.015625 
Q 18.3125 11.328125 20.140625 9.421875 
Q 21.96875 7.515625 27.59375 7.515625 
L 36.8125 7.515625 
L 36.8125 0 
L 27.59375 0 
Q 17.1875 0 13.234375 3.875 
Q 9.28125 7.765625 9.28125 18.015625 
L 9.28125 47.703125 
L 2.6875 47.703125 
L 2.6875 54.6875 
L 9.28125 54.6875 
L 9.28125 70.21875 
z
" id="DejaVuSans-116"/>
      <path d="M 8.5 21.578125 
L 8.5 54.6875 
L 17.484375 54.6875 
L 17.484375 21.921875 
Q 17.484375 14.15625 20.5 10.265625 
Q 23.53125 6.390625 29.59375 6.390625 
Q 36.859375 6.390625 41.078125 11.03125 
Q 45.3125 15.671875 45.3125 23.6875 
L 45.3125 54.6875 
L 54.296875 54.6875 
L 54.296875 0 
L 45.3125 0 
L 45.3125 8.40625 
Q 42.046875 3.421875 37.71875 1 
Q 33.40625 -1.421875 27.6875 -1.421875 
Q 18.265625 -1.421875 13.375 4.4375 
Q 8.5 10.296875 8.5 21.578125 
z
M 31.109375 56 
z
" id="DejaVuSans-117"/>
      <path d="M 11.71875 12.40625 
L 22.015625 12.40625 
L 22.015625 4 
L 14.015625 -11.625 
L 7.71875 -11.625 
L 11.71875 4 
z
" id="DejaVuSans-44"/>
      <path d="M 18.109375 8.203125 
L 18.109375 -20.796875 
L 9.078125 -20.796875 
L 9.078125 54.6875 
L 18.109375 54.6875 
L 18.109375 46.390625 
Q 20.953125 51.265625 25.265625 53.625 
Q 29.59375 56 35.59375 56 
Q 45.5625 56 51.78125 48.09375 
Q 58.015625 40.1875 58.015625 27.296875 
Q 58.015625 14.40625 51.78125 6.484375 
Q 45.5625 -1.421875 35.59375 -1.421875 
Q 29.59375 -1.421875 25.265625 0.953125 
Q 20.953125 3.328125 18.109375 8.203125 
z
M 48.6875 27.296875 
Q 48.6875 37.203125 44.609375 42.84375 
Q 40.53125 48.484375 33.40625 48.484375 
Q 26.265625 48.484375 22.1875 42.84375 
Q 18.109375 37.203125 18.109375 27.296875 
Q 18.109375 17.390625 22.1875 11.75 
Q 26.265625 6.109375 33.40625 6.109375 
Q 40.53125 6.109375 44.609375 11.75 
Q 48.6875 17.390625 48.6875 27.296875 
z
" id="DejaVuSans-112"/>
     </defs>
     <g transform="translate(17.619531 286.339375)rotate(-90)scale(0.17 -0.17)">
      <use xlink:href="#DejaVuSans-70"/>
      <use x="57.410156" xlink:href="#DejaVuSans-114"/>
      <use x="98.523438" xlink:href="#DejaVuSans-97"/>
      <use x="159.802734" xlink:href="#DejaVuSans-99"/>
      <use x="214.783203" xlink:href="#DejaVuSans-116"/>
      <use x="253.992188" xlink:href="#DejaVuSans-105"/>
      <use x="281.775391" xlink:href="#DejaVuSans-111"/>
      <use x="342.957031" xlink:href="#DejaVuSans-110"/>
      <use x="406.335938" xlink:href="#DejaVuSans-32"/>
      <use x="438.123047" xlink:href="#DejaVuSans-111"/>
      <use x="499.304688" xlink:href="#DejaVuSans-102"/>
      <use x="534.509766" xlink:href="#DejaVuSans-32"/>
      <use x="566.296875" xlink:href="#DejaVuSans-102"/>
      <use x="601.501953" xlink:href="#DejaVuSans-117"/>
      <use x="664.880859" xlink:href="#DejaVuSans-110"/>
      <use x="728.259766" xlink:href="#DejaVuSans-99"/>
      <use x="783.240234" xlink:href="#DejaVuSans-116"/>
      <use x="822.449219" xlink:href="#DejaVuSans-105"/>
      <use x="850.232422" xlink:href="#DejaVuSans-111"/>
      <use x="911.414062" xlink:href="#DejaVuSans-110"/>
      <use x="974.792969" xlink:href="#DejaVuSans-44"/>
      <use x="1006.580078" xlink:href="#DejaVuSans-116"/>
      <use x="1045.789062" xlink:href="#DejaVuSans-97"/>
      <use x="1107.068359" xlink:href="#DejaVuSans-114"/>
      <use x="1148.166016" xlink:href="#DejaVuSans-103"/>
      <use x="1211.642578" xlink:href="#DejaVuSans-101"/>
      <use x="1273.166016" xlink:href="#DejaVuSans-116"/>
      <use x="1312.375" xlink:href="#DejaVuSans-32"/>
      <use x="1344.162109" xlink:href="#DejaVuSans-112"/>
      <use x="1407.638672" xlink:href="#DejaVuSans-97"/>
      <use x="1468.917969" xlink:href="#DejaVuSans-105"/>
      <use x="1496.701172" xlink:href="#DejaVuSans-114"/>
      <use x="1537.814453" xlink:href="#DejaVuSans-115"/>
     </g>
    </g>
   </g>
   <g id="line2d_29">
    <defs>
     <path d="M 0 1.5 
C 0.397805 1.5 0.77937 1.341951 1.06066 1.06066 
C 1.341951 0.77937 1.5 0.397805 1.5 0 
C 1.5 -0.397805 1.341951 -0.77937 1.06066 -1.06066 
C 0.77937 -1.341951 0.397805 -1.5 0 -1.5 
C -0.397805 -1.5 -0.77937 -1.341951 -1.06066 -1.06066 
C -1.341951 -0.77937 -1.5 -0.397805 -1.5 0 
C -1.5 0.397805 -1.341951 0.77937 -1.06066 1.06066 
C -0.77937 1.341951 -0.397805 1.5 0 1.5 
z
" id="m4610feac99" style="stroke:#00bfbf;"/>
    </defs>
    <g>
     <use style="fill:#00bfbf;stroke:#00bfbf;" x="207.840201" xlink:href="#m4610feac99" y="222.07467"/>
     <use style="fill:#00bfbf;stroke:#00bfbf;" x="207.840201" xlink:href="#m4610feac99" y="222.07467"/>
    </g>
   </g>
   <g id="line2d_30">
    <path d="M 45.512012 298.944 
L 45.512012 283.225943 
L 57.6 283.225943 
L 57.6 276.227392 
L 64.67102 276.227392 
L 64.67102 272.670751 
L 69.687988 272.670751 
L 69.687988 270.261414 
L 73.579452 270.261414 
L 73.579452 268.310998 
L 76.759008 268.310998 
L 76.759008 265.786931 
L 79.447285 265.786931 
L 79.447285 261.886099 
L 81.775977 261.886099 
L 81.775977 260.968256 
L 83.830028 260.968256 
L 83.830028 259.247301 
L 85.66744 259.247301 
L 85.66744 258.673649 
L 87.329581 258.673649 
L 87.329581 258.099998 
L 88.846997 258.099998 
L 88.846997 257.182155 
L 90.242884 257.182155 
L 90.242884 256.379043 
L 91.535274 256.379043 
L 91.535274 255.69066 
L 92.73846 255.69066 
L 92.73846 255.117009 
L 94.921215 255.117009 
L 94.921215 254.658087 
L 95.918017 254.658087 
L 95.918017 253.969705 
L 96.86091 253.969705 
L 96.86091 253.510784 
L 97.755429 253.510784 
L 97.755429 253.051863 
L 99.41757 253.051863 
L 99.41757 252.822402 
L 100.192776 252.822402 
L 100.192776 252.36348 
L 100.934985 252.36348 
L 100.934985 251.216177 
L 101.646892 251.216177 
L 101.646892 251.101447 
L 102.330873 251.101447 
L 102.330873 249.839413 
L 102.989037 249.839413 
L 102.989037 249.495222 
L 103.623262 249.495222 
L 103.623262 248.692109 
L 104.23523 248.692109 
L 104.23523 248.577379 
L 104.826449 248.577379 
L 104.826449 248.462649 
L 105.398279 248.462649 
L 105.398279 248.347918 
L 105.951954 248.347918 
L 105.951954 248.233188 
L 106.48859 248.233188 
L 106.48859 247.659536 
L 107.009204 247.659536 
L 107.009204 247.430076 
L 107.514726 247.430076 
L 107.514726 247.315345 
L 108.948899 247.315345 
L 108.948899 247.200615 
L 109.401893 247.200615 
L 109.401893 246.971154 
L 109.843417 246.971154 
L 109.843417 246.512233 
L 110.694282 246.512233 
L 110.694282 246.053312 
L 111.505558 246.053312 
L 111.505558 245.709121 
L 111.897469 245.709121 
L 111.897469 245.59439 
L 112.280765 245.59439 
L 112.280765 245.250199 
L 113.382559 245.250199 
L 113.382559 245.135469 
L 113.73488 245.135469 
L 113.73488 245.020738 
L 115.397021 245.020738 
L 115.397021 244.217626 
L 115.711251 244.217626 
L 115.711251 243.988165 
L 116.019919 243.988165 
L 116.019919 243.758705 
L 116.323218 243.758705 
L 116.323218 243.643974 
L 126.168212 243.643974 
L 126.168212 243.299783 
L 126.50685 243.299783 
L 126.50685 242.840862 
L 127.165014 242.840862 
L 127.165014 242.611401 
L 127.325746 242.611401 
L 127.325746 242.381941 
L 133.124876 242.381941 
L 133.124876 242.26721 
L 133.910056 242.26721 
L 134.019394 242.03775 
L 134.12805 242.03775 
L 134.12805 241.923019 
L 134.450015 241.923019 
L 134.450015 241.349368 
L 139.009092 241.349368 
L 139.009092 241.119907 
L 142.147664 241.119907 
L 142.147664 240.775716 
L 142.283909 240.775716 
L 142.351634 240.202064 
L 142.419098 240.202064 
L 142.419098 239.513682 
L 142.752555 239.513682 
L 142.818488 239.284221 
L 143.337167 239.284221 
L 143.40093 238.8253 
L 143.527762 238.8253 
L 143.527762 238.481109 
L 143.653678 238.481109 
L 143.716296 238.136918 
L 143.902815 238.136918 
L 143.964547 237.907457 
L 144.087359 237.907457 
L 144.087359 237.677997 
L 144.390658 237.677997 
L 144.390658 237.333805 
L 145.270136 237.333805 
L 145.270136 237.104345 
L 145.384119 237.104345 
L 145.384119 236.989614 
L 147.769524 236.989614 
L 147.86833 236.415963 
L 148.209809 236.415963 
L 148.209809 236.301232 
L 150.085825 236.301232 
L 150.085825 236.186502 
L 154.063835 236.186502 
L 154.098334 235.842311 
L 154.201424 235.842311 
L 154.201424 235.727581 
L 154.507086 235.727581 
L 154.507086 235.61285 
L 154.674612 235.61285 
L 154.77436 235.38339 
L 154.807483 235.38339 
L 154.840544 235.039199 
L 155.200129 235.039199 
L 155.232454 234.809738 
L 155.773004 234.809738 
L 155.773004 234.580277 
L 157.1279 234.580277 
L 157.185742 234.121356 
L 160.103486 234.121356 
L 160.103486 234.006626 
L 161.12334 234.006626 
L 161.169354 233.432974 
L 161.867469 233.432974 
L 161.867469 233.318243 
L 162.19549 233.318243 
L 162.217141 233.088783 
L 163.185069 233.088783 
L 163.185069 232.974052 
L 164.410075 232.974052 
L 164.410075 232.859322 
L 165.320804 232.859322 
L 165.320804 232.744592 
L 166.065276 232.744592 
L 166.134549 232.05621 
L 166.374858 232.05621 
L 166.459886 231.482558 
L 166.645502 231.482558 
L 166.662278 231.138367 
L 167.672117 231.138367 
L 167.672117 230.908906 
L 168.626667 230.908906 
L 168.626667 230.794176 
L 169.939378 230.794176 
L 169.994873 230.335255 
L 170.228776 230.335255 
L 170.324185 229.761603 
L 170.620687 229.761603 
L 170.620687 229.532142 
L 171.237722 229.532142 
L 171.237722 229.417412 
L 172.019658 229.417412 
L 172.019658 229.187951 
L 173.130511 229.187951 
L 173.165193 228.72903 
L 173.349008 228.72903 
L 173.349008 228.614299 
L 173.508272 228.614299 
L 173.508272 228.499569 
L 174.196608 228.499569 
L 174.196608 228.384839 
L 175.78735 228.384839 
L 175.78735 228.155378 
L 176.004603 228.155378 
L 176.004603 228.040648 
L 176.277249 228.040648 
L 176.277249 227.811187 
L 176.725536 227.811187 
L 176.781943 227.352266 
L 178.10983 227.352266 
L 178.144586 227.122805 
L 178.308742 227.122805 
L 178.308742 226.893344 
L 180.159048 226.893344 
L 180.159048 226.549153 
L 180.893522 226.549153 
L 180.893522 226.434423 
L 182.234569 226.434423 
L 182.234569 226.204962 
L 182.65514 226.204962 
L 182.65514 226.090232 
L 183.796556 226.090232 
L 183.871725 225.746041 
L 184.255021 225.746041 
L 184.255021 225.63131 
L 185.287795 225.63131 
L 185.287795 225.40185 
L 185.45413 225.40185 
L 185.45413 225.287119 
L 185.720384 225.287119 
L 185.720384 225.057659 
L 186.682796 225.057659 
L 186.682796 224.828198 
L 187.850478 224.828198 
L 187.954653 224.598737 
L 187.964542 224.598737 
L 187.964542 224.369277 
L 188.326548 224.369277 
L 188.326548 224.254546 
L 189.158498 224.254546 
L 189.158498 224.139816 
L 189.496781 224.139816 
L 189.496781 224.025086 
L 190.267263 224.025086 
L 190.267263 223.910355 
L 190.593401 223.910355 
L 190.593401 223.795625 
L 191.248415 223.795625 
L 191.326041 223.451434 
L 192.227692 223.451434 
L 192.227692 223.336704 
L 194.236522 223.336704 
L 194.236522 223.221973 
L 194.989365 223.221973 
L 194.989365 223.107243 
L 196.561763 223.107243 
L 196.561763 222.992513 
L 198.048456 222.992513 
L 198.048456 222.877782 
L 201.352333 222.877782 
L 201.352333 222.763052 
L 206.142443 222.763052 
L 206.142443 222.648321 
L 206.611921 222.648321 
L 206.611921 222.533591 
L 206.737032 222.533591 
L 206.737032 222.418861 
L 207.153184 222.418861 
L 207.153184 222.30413 
L 207.840201 222.30413 
L 207.840201 222.07467 
L 338.688 222.07467 
L 338.688 222.07467 
" style="fill:none;stroke:#00bfbf;stroke-linecap:square;stroke-width:1.5;"/>
   </g>
   <g id="line2d_31">
    <defs>
     <path d="M -6 0 
L 6 0 
M 0 6 
L 0 -6 
" id="m7d069662b5" style="stroke:#00bfbf;stroke-width:1.5;"/>
    </defs>
    <g>
     <use style="fill-opacity:0;stroke:#00bfbf;stroke-width:1.5;" x="102.330873" xlink:href="#m7d069662b5" y="251.101447"/>
     <use style="fill-opacity:0;stroke:#00bfbf;stroke-width:1.5;" x="148.209809" xlink:href="#m7d069662b5" y="236.301232"/>
     <use style="fill-opacity:0;stroke:#00bfbf;stroke-width:1.5;" x="207.840201" xlink:href="#m7d069662b5" y="222.30413"/>
     <use style="fill-opacity:0;stroke:#00bfbf;stroke-width:1.5;" x="207.840201" xlink:href="#m7d069662b5" y="222.07467"/>
     <use style="fill-opacity:0;stroke:#00bfbf;stroke-width:1.5;" x="338.688" xlink:href="#m7d069662b5" y="222.07467"/>
    </g>
   </g>
   <g id="line2d_32">
    <path style="fill:none;stroke:#00bfbf;stroke-linecap:square;stroke-width:1.5;"/>
    <g/>
   </g>
   <g id="line2d_33">
    <path clip-path="url(#p203dac7ca9)" d="M 141.80232 241.119907 
" style="fill:none;stroke:#00bfbf;stroke-linecap:square;stroke-width:1.5;"/>
    <defs>
     <path d="M -12 12 
L 12 -12 
M -12 -12 
L 12 12 
" id="mb5d56b8810" style="stroke:#00bfbf;"/>
    </defs>
    <g clip-path="url(#p203dac7ca9)">
     <use style="fill:#00bfbf;stroke:#00bfbf;" x="141.80232" xlink:href="#mb5d56b8810" y="241.119907"/>
    </g>
   </g>
   <g id="line2d_34">
    <defs>
     <path d="M 0 1.5 
C 0.397805 1.5 0.77937 1.341951 1.06066 1.06066 
C 1.341951 0.77937 1.5 0.397805 1.5 0 
C 1.5 -0.397805 1.341951 -0.77937 1.06066 -1.06066 
C 0.77937 -1.341951 0.397805 -1.5 0 -1.5 
C -0.397805 -1.5 -0.77937 -1.341951 -1.06066 -1.06066 
C -1.341951 -0.77937 -1.5 -0.397805 -1.5 0 
C -1.5 0.397805 -1.341951 0.77937 -1.06066 1.06066 
C -0.77937 1.341951 -0.397805 1.5 0 1.5 
z
" id="mb6191db05e" style="stroke:#008000;"/>
    </defs>
    <g>
     <use style="fill:#008000;stroke:#008000;" x="221.136225" xlink:href="#mb6191db05e" y="231.253097"/>
     <use style="fill:#008000;stroke:#008000;" x="221.136225" xlink:href="#mb6191db05e" y="231.253097"/>
    </g>
   </g>
   <g id="line2d_35">
    <path d="M 38.440992 298.944 
L 38.440992 287.585696 
L 50.52898 287.585696 
L 50.52898 282.537561 
L 57.6 282.537561 
L 57.6 280.701875 
L 62.616969 280.701875 
L 62.616969 278.86619 
L 66.508432 278.86619 
L 66.508432 278.407268 
L 69.687988 278.407268 
L 69.687988 276.801044 
L 72.376266 276.801044 
L 72.376266 276.227392 
L 74.704957 276.227392 
L 74.704957 274.965358 
L 76.759008 274.965358 
L 76.759008 274.162246 
L 78.59642 274.162246 
L 78.59642 273.014942 
L 80.258561 273.014942 
L 80.258561 272.900212 
L 81.775977 272.900212 
L 81.775977 272.556021 
L 83.171864 272.556021 
L 83.171864 272.0971 
L 84.464254 272.0971 
L 84.464254 271.638178 
L 85.66744 271.638178 
L 85.66744 271.408718 
L 86.792945 271.408718 
L 86.792945 271.179257 
L 87.850195 271.179257 
L 87.850195 270.949796 
L 88.846997 270.949796 
L 88.846997 270.835066 
L 89.78989 270.835066 
L 89.78989 270.376144 
L 90.684409 270.376144 
L 90.684409 269.917223 
L 92.34655 269.917223 
L 92.34655 268.76992 
L 93.121756 268.76992 
L 93.121756 268.655189 
L 93.863965 268.655189 
L 93.863965 267.966807 
L 94.575872 267.966807 
L 94.575872 267.852077 
L 95.918017 267.852077 
L 95.918017 267.048964 
L 96.552242 267.048964 
L 96.552242 266.475313 
L 97.16421 266.475313 
L 97.16421 265.6722 
L 98.32726 265.6722 
L 98.32726 265.44274 
L 99.41757 265.44274 
L 99.41757 265.328009 
L 101.412804 265.328009 
L 101.412804 264.983818 
L 101.877879 264.983818 
L 101.877879 264.639627 
L 102.772397 264.639627 
L 102.772397 264.295436 
L 103.203018 264.295436 
L 103.203018 263.951245 
L 103.623262 263.951245 
L 103.623262 263.492324 
L 104.434538 263.492324 
L 104.434538 263.377593 
L 104.826449 263.377593 
L 104.826449 263.262863 
L 106.311539 263.262863 
L 106.311539 262.918672 
L 108.948899 262.918672 
L 108.948899 262.803942 
L 109.843417 262.803942 
L 109.843417 262.689211 
L 110.131676 262.689211 
L 110.131676 262.574481 
L 110.415248 262.574481 
L 110.415248 262.459751 
L 119.267333 262.459751 
L 119.267333 262.34502 
L 119.931767 262.34502 
L 119.931767 261.541908 
L 120.093994 261.541908 
L 120.093994 261.312447 
L 120.41399 261.312447 
L 120.41399 261.197717 
L 120.728219 261.197717 
L 120.728219 261.082987 
L 120.883236 261.082987 
L 120.883236 260.968256 
L 126.729009 260.968256 
L 126.729009 260.853526 
L 131.355321 260.853526 
L 131.355321 260.165144 
L 135.076644 260.165144 
L 135.076644 259.706222 
L 135.548916 259.706222 
L 135.548916 259.591492 
L 138.141844 259.591492 
L 138.141844 259.476762 
L 138.594838 259.476762 
L 138.594838 259.362031 
L 138.706272 259.362031 
L 138.706272 259.01784 
L 140.698504 259.01784 
L 140.698504 258.90311 
L 140.89556 258.90311 
L 140.993259 258.214728 
L 141.041904 258.214728 
L 141.090414 257.755807 
L 141.187031 257.755807 
L 141.235139 257.411616 
L 141.568232 257.411616 
L 141.662245 257.182155 
L 141.755753 257.182155 
L 141.755753 256.952694 
L 141.895083 256.952694 
L 141.941279 256.493773 
L 142.033307 256.493773 
L 142.07914 256.034851 
L 142.170445 256.034851 
L 142.170445 255.920121 
L 142.486301 255.920121 
L 142.575505 255.57593 
L 143.144465 255.57593 
L 143.144465 255.4612 
L 145.097753 255.4612 
L 145.097753 255.346469 
L 145.251067 255.346469 
L 145.289185 254.772818 
L 145.365173 254.772818 
L 145.365173 254.658087 
L 147.266916 254.658087 
L 147.266916 254.428627 
L 148.670646 254.428627 
L 148.670646 253.969705 
L 150.143571 253.969705 
L 150.143571 252.707672 
L 151.713753 252.707672 
L 151.76636 252.36348 
L 152.736878 252.36348 
L 152.835965 251.904559 
L 152.860649 251.904559 
L 152.934492 251.675098 
L 153.178403 251.675098 
L 153.275019 251.101447 
L 153.347132 251.101447 
L 153.371104 250.757256 
L 153.514245 250.757256 
L 153.609024 250.413065 
L 153.632638 250.413065 
L 153.656221 249.954143 
L 155.167744 249.954143 
L 155.232454 249.609952 
L 157.185742 249.609952 
L 157.185742 249.380492 
L 158.104304 249.380492 
L 158.104304 249.036301 
L 159.791329 249.036301 
L 159.791329 248.92157 
L 160.119762 248.92157 
L 160.217098 248.692109 
L 161.450455 248.692109 
L 161.495615 248.233188 
L 162.882249 248.233188 
L 162.992975 247.315345 
L 164.800007 247.315345 
L 164.800007 247.200615 
L 165.108238 247.200615 
L 165.157053 246.856424 
L 165.266391 246.856424 
L 165.266391 246.626963 
L 166.059491 246.626963 
L 166.094173 246.053312 
L 167.169078 246.053312 
L 167.169078 245.47966 
L 167.693205 245.47966 
L 167.693205 244.676547 
L 168.933583 244.676547 
L 168.943394 244.447087 
L 169.060699 244.447087 
L 169.060699 244.217626 
L 169.701534 244.217626 
L 169.729685 243.643974 
L 170.607318 243.643974 
L 170.607318 243.070323 
L 171.03881 243.070323 
L 171.03881 242.726132 
L 171.91244 242.726132 
L 171.91244 242.611401 
L 172.175184 242.611401 
L 172.175184 242.496671 
L 172.712807 242.496671 
L 172.736497 241.923019 
L 173.538444 241.923019 
L 173.538444 241.693559 
L 173.844732 241.693559 
L 173.844732 241.578828 
L 174.584164 241.578828 
L 174.584164 241.349368 
L 174.746654 241.349368 
L 174.746654 241.234637 
L 175.279879 241.234637 
L 175.279879 240.546255 
L 175.942337 240.546255 
L 175.994786 240.202064 
L 176.261139 240.202064 
L 176.261139 240.087334 
L 178.101129 240.087334 
L 178.14748 239.857873 
L 178.38311 239.857873 
L 178.38311 239.398952 
L 179.499694 239.398952 
L 179.51575 239.054761 
L 180.021883 239.054761 
L 180.021883 238.94003 
L 180.274668 238.94003 
L 180.274668 238.71057 
L 180.952739 238.71057 
L 180.952739 238.595839 
L 181.279719 238.595839 
L 181.279719 238.022188 
L 181.980986 238.022188 
L 181.980986 237.677997 
L 182.543076 237.677997 
L 182.552068 237.448536 
L 182.894767 237.448536 
L 182.907984 237.219075 
L 183.325711 237.219075 
L 183.325711 237.104345 
L 184.058243 237.104345 
L 184.058243 236.989614 
L 184.384984 236.989614 
L 184.384984 236.874884 
L 184.76916 236.874884 
L 184.76916 236.645423 
L 184.962035 236.645423 
L 184.962035 236.301232 
L 185.73537 236.301232 
L 185.73537 236.071772 
L 186.102214 236.071772 
L 186.102214 235.957041 
L 186.999115 235.957041 
L 186.999115 235.842311 
L 187.340566 235.842311 
L 187.340566 235.61285 
L 188.652705 235.61285 
L 188.652705 235.49812 
L 189.28116 235.49812 
L 189.28116 235.153929 
L 189.581087 235.153929 
L 189.581087 235.039199 
L 190.319165 235.039199 
L 190.319165 234.580277 
L 192.941921 234.580277 
L 192.941921 234.465547 
L 193.107106 234.465547 
L 193.107106 234.350817 
L 193.348358 234.350817 
L 193.348358 234.236086 
L 194.745362 234.236086 
L 194.745362 234.121356 
L 195.366339 234.121356 
L 195.366339 234.006626 
L 195.510174 234.006626 
L 195.510174 233.662434 
L 196.543638 233.662434 
L 196.543638 233.547704 
L 196.813555 233.547704 
L 196.813555 233.432974 
L 196.945978 233.432974 
L 196.945978 233.203513 
L 197.621854 233.203513 
L 197.621854 233.088783 
L 198.899762 233.088783 
L 198.899762 232.974052 
L 199.505233 232.974052 
L 199.505233 232.859322 
L 200.090386 232.859322 
L 200.090386 232.744592 
L 203.714447 232.744592 
L 203.714447 232.629861 
L 204.175761 232.629861 
L 204.175761 232.515131 
L 204.625186 232.515131 
L 204.625186 232.400401 
L 204.811798 232.400401 
L 204.811798 232.28567 
L 205.063319 232.28567 
L 205.063319 232.17094 
L 205.490714 232.17094 
L 205.490714 232.05621 
L 205.907884 232.05621 
L 205.907884 231.941479 
L 207.102667 231.941479 
L 207.102667 231.712019 
L 207.483405 231.712019 
L 207.483405 231.597288 
L 208.861819 231.597288 
L 208.861819 231.482558 
L 218.138388 231.482558 
L 218.138388 231.367828 
L 221.136225 231.367828 
L 221.136225 231.253097 
L 338.688 231.253097 
L 338.688 231.253097 
" style="fill:none;stroke:#008000;stroke-linecap:square;stroke-width:1.5;"/>
   </g>
   <g id="line2d_36">
    <defs>
     <path d="M -0 6 
L 6 -6 
L -6 -6 
z
" id="m8fcdb06a52" style="stroke:#008000;stroke-linejoin:miter;stroke-width:1.5;"/>
    </defs>
    <g>
     <use style="fill-opacity:0;stroke:#008000;stroke-linejoin:miter;stroke-width:1.5;" x="103.623262" xlink:href="#m8fcdb06a52" y="263.492324"/>
     <use style="fill-opacity:0;stroke:#008000;stroke-linejoin:miter;stroke-width:1.5;" x="181.279719" xlink:href="#m8fcdb06a52" y="238.022188"/>
     <use style="fill-opacity:0;stroke:#008000;stroke-linejoin:miter;stroke-width:1.5;" x="221.136225" xlink:href="#m8fcdb06a52" y="231.367828"/>
     <use style="fill-opacity:0;stroke:#008000;stroke-linejoin:miter;stroke-width:1.5;" x="221.136225" xlink:href="#m8fcdb06a52" y="231.253097"/>
     <use style="fill-opacity:0;stroke:#008000;stroke-linejoin:miter;stroke-width:1.5;" x="221.136225" xlink:href="#m8fcdb06a52" y="231.253097"/>
     <use style="fill-opacity:0;stroke:#008000;stroke-linejoin:miter;stroke-width:1.5;" x="338.688" xlink:href="#m8fcdb06a52" y="231.253097"/>
    </g>
   </g>
   <g id="line2d_37">
    <path style="fill:none;stroke:#008000;stroke-linecap:square;stroke-width:1.5;"/>
    <g/>
   </g>
   <g id="line2d_38">
    <path clip-path="url(#p203dac7ca9)" d="M 140.599134 259.01784 
" style="fill:none;stroke:#008000;stroke-linecap:square;stroke-width:1.5;"/>
    <defs>
     <path d="M -12 12 
L 12 -12 
M -12 -12 
L 12 12 
" id="ma451ac756e" style="stroke:#008000;"/>
    </defs>
    <g clip-path="url(#p203dac7ca9)">
     <use style="fill:#008000;stroke:#008000;" x="140.599134" xlink:href="#ma451ac756e" y="259.01784"/>
    </g>
   </g>
   <g id="line2d_39">
    <defs>
     <path d="M 0 1.5 
C 0.397805 1.5 0.77937 1.341951 1.06066 1.06066 
C 1.341951 0.77937 1.5 0.397805 1.5 0 
C 1.5 -0.397805 1.341951 -0.77937 1.06066 -1.06066 
C 0.77937 -1.341951 0.397805 -1.5 0 -1.5 
C -0.397805 -1.5 -0.77937 -1.341951 -1.06066 -1.06066 
C -1.341951 -0.77937 -1.5 -0.397805 -1.5 0 
C -1.5 0.397805 -1.341951 0.77937 -1.06066 1.06066 
C -0.77937 1.341951 -0.397805 1.5 0 1.5 
z
" id="m6bf61e1d4a" style="stroke:#0000ff;"/>
    </defs>
    <g>
     <use style="fill:#0000ff;stroke:#0000ff;" x="208.605009" xlink:href="#m6bf61e1d4a" y="256.493773"/>
     <use style="fill:#0000ff;stroke:#0000ff;" x="208.605009" xlink:href="#m6bf61e1d4a" y="256.493773"/>
    </g>
   </g>
   <g id="line2d_40">
    <path d="M 29.53256 298.944 
L 29.53256 290.224494 
L 41.620548 290.224494 
L 41.620548 288.84773 
L 48.691568 288.84773 
L 48.691568 287.929887 
L 53.708537 287.929887 
L 53.708537 286.897314 
L 57.6 286.897314 
L 57.6 286.208932 
L 60.779557 286.208932 
L 60.779557 285.63528 
L 63.467834 285.63528 
L 63.467834 285.291089 
L 65.796525 285.291089 
L 65.796525 285.176359 
L 67.850577 285.176359 
L 67.850577 284.373246 
L 69.687988 284.373246 
L 69.687988 284.143786 
L 71.35013 284.143786 
L 71.35013 283.799595 
L 72.867545 283.799595 
L 72.867545 283.455404 
L 74.263433 283.455404 
L 74.263433 283.340673 
L 75.555822 283.340673 
L 75.555822 282.422831 
L 76.759008 282.422831 
L 76.759008 282.19337 
L 77.884514 282.19337 
L 77.884514 281.963909 
L 78.941764 281.963909 
L 78.941764 281.734448 
L 79.938565 281.734448 
L 79.938565 281.390257 
L 80.881459 281.390257 
L 80.881459 281.275527 
L 82.626842 281.275527 
L 82.626842 280.931336 
L 83.438118 280.931336 
L 83.438118 280.472415 
L 84.955534 280.472415 
L 84.955534 280.242954 
L 85.66744 280.242954 
L 85.66744 280.013493 
L 87.009585 280.013493 
L 87.009585 279.784033 
L 87.643811 279.784033 
L 87.643811 279.554572 
L 88.255778 279.554572 
L 88.255778 279.439842 
L 88.846997 279.439842 
L 88.846997 279.325111 
L 91.029752 279.325111 
L 91.029752 279.210381 
L 92.026554 279.210381 
L 92.026554 278.98092 
L 92.504372 278.98092 
L 92.504372 278.86619 
L 93.863965 278.86619 
L 93.863965 278.521999 
L 94.294587 278.521999 
L 94.294587 278.063077 
L 94.714831 278.063077 
L 94.714831 277.489426 
L 95.125186 277.489426 
L 95.125186 277.374695 
L 95.918017 277.374695 
L 95.918017 277.259965 
L 96.301313 277.259965 
L 96.301313 277.145235 
L 96.676366 277.145235 
L 96.676366 277.030504 
L 97.043522 277.030504 
L 97.043522 276.915774 
L 97.403108 276.915774 
L 97.403108 276.801044 
L 99.097574 276.801044 
L 99.097574 276.571583 
L 100.343767 276.571583 
L 100.343767 276.456853 
L 101.223245 276.456853 
L 101.223245 276.227392 
L 102.060491 276.227392 
L 102.060491 275.65374 
L 111.505558 275.65374 
L 111.505558 275.53901 
L 111.974805 275.53901 
L 111.974805 275.42428 
L 112.128456 275.42428 
L 112.128456 275.080089 
L 118.039942 275.080089 
L 118.039942 274.965358 
L 118.256582 274.965358 
L 118.363901 274.735897 
L 118.470564 274.735897 
L 118.470564 274.621167 
L 122.44689 274.621167 
L 122.531342 274.047515 
L 122.782271 274.047515 
L 122.782271 273.818055 
L 126.439646 273.818055 
L 126.439646 273.703324 
L 131.839545 273.703324 
L 131.888878 273.473864 
L 134.61933 273.473864 
L 134.61933 273.359133 
L 136.494612 273.359133 
L 136.494612 273.244403 
L 138.187677 273.244403 
L 138.187677 273.129673 
L 139.636299 273.129673 
L 139.636299 273.014942 
L 139.762215 273.014942 
L 139.856059 272.670751 
L 140.011351 272.670751 
L 140.011351 272.32656 
L 140.226464 272.32656 
L 140.256979 271.982369 
L 140.408758 271.982369 
L 140.438956 271.638178 
L 140.826843 271.638178 
L 140.856326 271.408718 
L 140.944478 271.408718 
L 141.002999 270.949796 
L 141.492656 270.949796 
L 141.492656 270.261414 
L 142.752555 270.261414 
L 142.752555 270.146684 
L 143.87806 270.146684 
L 143.87806 270.031953 
L 144.026061 270.031953 
L 144.026061 269.917223 
L 145.120836 269.917223 
L 145.120836 269.458302 
L 145.258697 269.458302 
L 145.258697 269.343571 
L 147.368603 269.343571 
L 147.368603 269.228841 
L 149.286939 269.228841 
L 149.286939 269.114111 
L 151.803091 269.114111 
L 151.881541 268.655189 
L 151.959639 268.655189 
L 151.959639 268.540459 
L 152.299175 268.540459 
L 152.405838 267.507886 
L 152.602211 267.507886 
L 152.647216 267.278425 
L 153.380683 267.278425 
L 153.380683 267.163695 
L 154.654594 267.163695 
L 154.707925 266.590043 
L 155.990803 266.590043 
L 155.990803 266.475313 
L 158.826871 266.475313 
L 158.879352 265.786931 
L 159.015067 265.786931 
L 159.015067 265.6722 
L 159.16005 265.6722 
L 159.232092 265.213279 
L 159.39565 265.213279 
L 159.39565 264.983818 
L 159.857512 264.983818 
L 159.857512 264.869088 
L 160.384537 264.869088 
L 160.384537 264.639627 
L 160.783709 264.639627 
L 160.783709 264.065976 
L 163.820172 264.065976 
L 163.922502 263.492324 
L 164.070989 263.492324 
L 164.070989 263.377593 
L 164.24906 263.377593 
L 164.24906 263.148133 
L 164.599841 263.148133 
L 164.599841 262.918672 
L 165.309935 262.918672 
L 165.338904 262.574481 
L 166.047915 262.574481 
L 166.047915 262.459751 
L 167.728995 262.459751 
L 167.773105 262.23029 
L 167.90477 262.23029 
L 167.90477 262.000829 
L 168.041647 262.000829 
L 168.041647 261.771369 
L 168.900184 261.771369 
L 168.900184 261.656638 
L 170.893823 261.656638 
L 170.935871 261.427178 
L 172.385786 261.427178 
L 172.385786 261.312447 
L 173.795789 261.312447 
L 173.795789 261.197717 
L 174.235754 261.197717 
L 174.235754 261.082987 
L 175.042289 261.082987 
L 175.042289 260.968256 
L 175.281243 260.968256 
L 175.281243 260.853526 
L 177.922694 260.853526 
L 177.922694 260.738796 
L 178.055819 260.738796 
L 178.115047 260.509335 
L 178.288092 260.509335 
L 178.288092 260.394605 
L 178.602076 260.394605 
L 178.602076 260.279874 
L 179.772761 260.279874 
L 179.87682 259.820953 
L 181.511216 259.820953 
L 181.511216 259.706222 
L 181.974482 259.706222 
L 181.974482 259.362031 
L 183.031732 259.362031 
L 183.031732 259.247301 
L 183.443979 259.247301 
L 183.443979 259.01784 
L 184.357448 259.01784 
L 184.418132 258.673649 
L 184.799215 258.673649 
L 184.799215 258.558919 
L 186.056686 258.558919 
L 186.056686 258.444189 
L 186.505268 258.444189 
L 186.505268 258.329458 
L 186.898516 258.329458 
L 186.898516 258.214728 
L 189.023187 258.214728 
L 189.023187 258.099998 
L 190.338158 258.099998 
L 190.338158 257.985267 
L 191.000156 257.985267 
L 191.000156 257.870537 
L 191.262332 257.870537 
L 191.262332 257.755807 
L 191.851259 257.755807 
L 191.851259 257.641076 
L 192.139985 257.641076 
L 192.139985 257.526346 
L 194.318437 257.526346 
L 194.318437 257.411616 
L 195.735759 257.411616 
L 195.735759 257.296885 
L 198.93704 257.296885 
L 198.93704 257.182155 
L 199.103814 257.182155 
L 199.103814 257.067425 
L 203.629562 257.067425 
L 203.629562 256.952694 
L 204.066939 256.952694 
L 204.066939 256.837964 
L 204.77187 256.837964 
L 204.77187 256.723234 
L 204.910099 256.723234 
L 204.910099 256.608503 
L 208.605009 256.608503 
L 208.605009 256.493773 
L 338.688 256.493773 
L 338.688 256.493773 
" style="fill:none;stroke:#0000ff;stroke-linecap:square;stroke-width:1.5;"/>
   </g>
   <g id="line2d_41">
    <defs>
     <path d="M 0 -6 
L -1.347084 -1.854102 
L -5.706339 -1.854102 
L -2.179628 0.708204 
L -3.526712 4.854102 
L -0 2.291796 
L 3.526712 4.854102 
L 2.179628 0.708204 
L 5.706339 -1.854102 
L 1.347084 -1.854102 
z
" id="m5e1df54582" style="stroke:#0000ff;stroke-linejoin:bevel;stroke-width:1.5;"/>
    </defs>
    <g>
     <use style="fill-opacity:0;stroke:#0000ff;stroke-linejoin:bevel;stroke-width:1.5;" x="126.439646" xlink:href="#m5e1df54582" y="273.703324"/>
     <use style="fill-opacity:0;stroke:#0000ff;stroke-linejoin:bevel;stroke-width:1.5;" x="189.023187" xlink:href="#m5e1df54582" y="258.099998"/>
     <use style="fill-opacity:0;stroke:#0000ff;stroke-linejoin:bevel;stroke-width:1.5;" x="208.605009" xlink:href="#m5e1df54582" y="256.493773"/>
     <use style="fill-opacity:0;stroke:#0000ff;stroke-linejoin:bevel;stroke-width:1.5;" x="208.605009" xlink:href="#m5e1df54582" y="256.493773"/>
     <use style="fill-opacity:0;stroke:#0000ff;stroke-linejoin:bevel;stroke-width:1.5;" x="338.688" xlink:href="#m5e1df54582" y="256.493773"/>
    </g>
   </g>
   <g id="line2d_42">
    <path style="fill:none;stroke:#0000ff;stroke-linecap:square;stroke-width:1.5;"/>
    <g/>
   </g>
   <g id="line2d_43">
    <path clip-path="url(#p203dac7ca9)" d="M 139.572998 273.129673 
" style="fill:none;stroke:#0000ff;stroke-linecap:square;stroke-width:1.5;"/>
    <defs>
     <path d="M -12 12 
L 12 -12 
M -12 -12 
L 12 12 
" id="mfbfc955def" style="stroke:#0000ff;"/>
    </defs>
    <g clip-path="url(#p203dac7ca9)">
     <use style="fill:#0000ff;stroke:#0000ff;" x="139.572998" xlink:href="#mfbfc955def" y="273.129673"/>
    </g>
   </g>
   <g id="line2d_44">
    <defs>
     <path d="M 0 1.5 
C 0.397805 1.5 0.77937 1.341951 1.06066 1.06066 
C 1.341951 0.77937 1.5 0.397805 1.5 0 
C 1.5 -0.397805 1.341951 -0.77937 1.06066 -1.06066 
C 0.77937 -1.341951 0.397805 -1.5 0 -1.5 
C -0.397805 -1.5 -0.77937 -1.341951 -1.06066 -1.06066 
C -1.341951 -0.77937 -1.5 -0.397805 -1.5 0 
C -1.5 0.397805 -1.341951 0.77937 -1.06066 1.06066 
C -0.77937 1.341951 -0.397805 1.5 0 1.5 
z
" id="m86933eea26" style="stroke:#000000;"/>
    </defs>
    <g>
     <use style="stroke:#000000;" x="202.783125" xlink:href="#m86933eea26" y="279.439842"/>
     <use style="stroke:#000000;" x="202.783125" xlink:href="#m86933eea26" y="279.439842"/>
    </g>
   </g>
   <g id="line2d_45">
    <path d="M 17.444571 298.944 
L 17.444571 291.601258 
L 29.53256 291.601258 
L 29.53256 290.798146 
L 36.60358 290.798146 
L 36.60358 290.224494 
L 48.691568 290.224494 
L 48.691568 289.880303 
L 51.379845 289.880303 
L 51.379845 289.536112 
L 53.708537 289.536112 
L 53.708537 289.306651 
L 55.762588 289.306651 
L 55.762588 288.96246 
L 57.6 288.96246 
L 57.6 288.84773 
L 59.262141 288.84773 
L 59.262141 288.732999 
L 66.853775 288.732999 
L 66.853775 288.503539 
L 68.79347 288.503539 
L 68.79347 288.274078 
L 69.687988 288.274078 
L 69.687988 288.159348 
L 70.538854 288.159348 
L 70.538854 288.044617 
L 71.35013 288.044617 
L 71.35013 287.929887 
L 72.125336 287.929887 
L 72.125336 287.815157 
L 76.759008 287.815157 
L 76.759008 287.585696 
L 77.330839 287.585696 
L 77.330839 287.470966 
L 77.884514 287.470966 
L 77.884514 287.356235 
L 78.421149 287.356235 
L 78.421149 287.241505 
L 78.941764 287.241505 
L 78.941764 287.126775 
L 82.206598 287.126775 
L 82.206598 286.897314 
L 87.329581 286.897314 
L 87.329581 286.782584 
L 89.697862 286.782584 
L 89.697862 286.667853 
L 89.972502 286.667853 
L 89.972502 286.553123 
L 110.443353 286.553123 
L 110.443353 286.438393 
L 110.941652 286.438393 
L 110.941652 286.208932 
L 114.418861 286.208932 
L 114.418861 286.094202 
L 117.486268 286.094202 
L 117.486268 285.864741 
L 119.850084 285.864741 
L 119.850084 285.75001 
L 126.168212 285.75001 
L 126.168212 285.63528 
L 127.76807 285.63528 
L 127.76807 285.52055 
L 138.910565 285.52055 
L 138.910565 285.405819 
L 139.041811 285.405819 
L 139.041811 285.176359 
L 139.253002 285.176359 
L 139.253002 285.061628 
L 140.544239 285.061628 
L 140.544239 284.832168 
L 145.710517 284.832168 
L 145.710517 284.717437 
L 150.924291 284.717437 
L 150.990318 284.373246 
L 151.097081 284.373246 
L 151.097081 284.258516 
L 152.534486 284.258516 
L 152.534486 284.143786 
L 153.250915 284.143786 
L 153.250915 283.914325 
L 158.086033 283.914325 
L 158.086033 283.799595 
L 159.0618 283.799595 
L 159.0618 283.684864 
L 159.557689 283.684864 
L 159.557689 283.570134 
L 163.061823 283.570134 
L 163.061823 283.225943 
L 163.400698 283.225943 
L 163.400698 283.111213 
L 164.179597 283.111213 
L 164.179597 282.996482 
L 167.20054 282.996482 
L 167.20054 282.881752 
L 167.522723 282.881752 
L 167.522723 282.767022 
L 167.672117 282.767022 
L 167.672117 282.652291 
L 172.768032 282.652291 
L 172.768032 282.537561 
L 175.08786 282.537561 
L 175.08786 282.422831 
L 175.55729 282.422831 
L 175.657689 282.19337 
L 177.111084 282.19337 
L 177.135015 281.963909 
L 177.468451 281.963909 
L 177.468451 281.849179 
L 178.966907 281.849179 
L 178.966907 281.734448 
L 179.424571 281.734448 
L 179.424571 281.619718 
L 182.120221 281.619718 
L 182.120221 281.504988 
L 182.520577 281.504988 
L 182.520577 281.390257 
L 184.805141 281.390257 
L 184.820539 281.160797 
L 187.131314 281.160797 
L 187.14479 280.931336 
L 188.471193 280.931336 
L 188.471193 280.816606 
L 189.195387 280.816606 
L 189.195387 280.701875 
L 191.260695 280.701875 
L 191.260695 280.587145 
L 191.879716 280.587145 
L 191.879716 280.472415 
L 194.196457 280.472415 
L 194.205445 280.013493 
L 194.907893 280.013493 
L 194.907893 279.898763 
L 196.257192 279.898763 
L 196.257192 279.784033 
L 198.664056 279.784033 
L 198.664056 279.554572 
L 202.783125 279.554572 
L 202.783125 279.439842 
L 338.688 279.439842 
L 338.688 279.439842 
" style="fill:none;stroke:#000000;stroke-linecap:square;stroke-width:1.5;"/>
   </g>
   <g id="line2d_46">
    <defs>
     <path d="M 0 6 
C 1.591219 6 3.117479 5.367802 4.242641 4.242641 
C 5.367802 3.117479 6 1.591219 6 0 
C 6 -1.591219 5.367802 -3.117479 4.242641 -4.242641 
C 3.117479 -5.367802 1.591219 -6 0 -6 
C -1.591219 -6 -3.117479 -5.367802 -4.242641 -4.242641 
C -5.367802 -3.117479 -6 -1.591219 -6 0 
C -6 1.591219 -5.367802 3.117479 -4.242641 4.242641 
C -3.117479 5.367802 -1.591219 6 0 6 
z
" id="mc0c086e8c0" style="stroke:#000000;stroke-width:1.5;"/>
    </defs>
    <g>
     <use style="fill-opacity:0;stroke:#000000;stroke-width:1.5;" x="89.972502" xlink:href="#mc0c086e8c0" y="286.667853"/>
     <use style="fill-opacity:0;stroke:#000000;stroke-width:1.5;" x="164.179597" xlink:href="#mc0c086e8c0" y="282.996482"/>
     <use style="fill-opacity:0;stroke:#000000;stroke-width:1.5;" x="202.783125" xlink:href="#mc0c086e8c0" y="279.554572"/>
     <use style="fill-opacity:0;stroke:#000000;stroke-width:1.5;" x="202.783125" xlink:href="#mc0c086e8c0" y="279.439842"/>
     <use style="fill-opacity:0;stroke:#000000;stroke-width:1.5;" x="202.783125" xlink:href="#mc0c086e8c0" y="279.439842"/>
     <use style="fill-opacity:0;stroke:#000000;stroke-width:1.5;" x="338.688" xlink:href="#mc0c086e8c0" y="279.439842"/>
    </g>
   </g>
   <g id="line2d_47">
    <path style="fill:none;stroke:#000000;stroke-linecap:square;stroke-width:1.5;"/>
    <g/>
   </g>
   <g id="line2d_48">
    <path clip-path="url(#p203dac7ca9)" d="M 138.761723 285.52055 
" style="fill:none;stroke:#000000;stroke-linecap:square;stroke-width:1.5;"/>
    <defs>
     <path d="M -12 12 
L 12 -12 
M -12 -12 
L 12 12 
" id="m6308b53130" style="stroke:#000000;"/>
    </defs>
    <g clip-path="url(#p203dac7ca9)">
     <use style="stroke:#000000;" x="138.761723" xlink:href="#m6308b53130" y="285.52055"/>
    </g>
   </g>
   <g id="line2d_49">
    <defs>
     <path d="M 0 1.5 
C 0.397805 1.5 0.77937 1.341951 1.06066 1.06066 
C 1.341951 0.77937 1.5 0.397805 1.5 0 
C 1.5 -0.397805 1.341951 -0.77937 1.06066 -1.06066 
C 0.77937 -1.341951 0.397805 -1.5 0 -1.5 
C -0.397805 -1.5 -0.77937 -1.341951 -1.06066 -1.06066 
C -1.341951 -0.77937 -1.5 -0.397805 -1.5 0 
C -1.5 0.397805 -1.341951 0.77937 -1.06066 1.06066 
C -0.77937 1.341951 -0.397805 1.5 0 1.5 
z
" id="mf1f4e5f701" style="stroke:#ff0000;"/>
    </defs>
    <g>
     <use style="fill:#ff0000;stroke:#ff0000;" x="204.917019" xlink:href="#mf1f4e5f701" y="286.323662"/>
     <use style="fill:#ff0000;stroke:#ff0000;" x="204.917019" xlink:href="#mf1f4e5f701" y="286.323662"/>
    </g>
   </g>
   <g id="line2d_50">
    <path d="M 5.356583 298.944 
L 5.356583 291.257067 
L 17.444571 291.257067 
L 17.444571 290.683415 
L 24.515591 290.683415 
L 24.515591 290.568685 
L 29.53256 290.568685 
L 29.53256 290.453955 
L 33.424023 290.453955 
L 33.424023 290.224494 
L 36.60358 290.224494 
L 36.60358 290.109764 
L 39.291857 290.109764 
L 39.291857 289.880303 
L 43.6746 289.880303 
L 43.6746 289.765573 
L 53.708537 289.765573 
L 53.708537 289.650842 
L 56.705482 289.650842 
L 56.705482 289.421381 
L 60.037348 289.421381 
L 60.037348 289.306651 
L 60.779557 289.306651 
L 60.779557 289.191921 
L 65.796525 289.191921 
L 65.796525 289.07719 
L 67.850577 289.07719 
L 67.850577 288.96246 
L 69.246464 288.96246 
L 69.246464 288.84773 
L 70.949209 288.84773 
L 70.949209 288.732999 
L 72.500389 288.732999 
L 72.500389 288.618269 
L 75.555822 288.618269 
L 75.555822 288.503539 
L 125.038147 288.503539 
L 125.038147 288.388808 
L 126.013653 288.388808 
L 126.013653 288.274078 
L 136.645276 288.274078 
L 136.645276 288.159348 
L 138.811478 288.159348 
L 138.811478 287.929887 
L 145.016721 287.929887 
L 145.016721 287.815157 
L 145.332919 287.815157 
L 145.332919 287.700426 
L 154.273226 287.700426 
L 154.273226 287.585696 
L 162.10862 287.585696 
L 162.10862 287.470966 
L 164.440577 287.470966 
L 164.440577 287.356235 
L 164.545021 287.356235 
L 164.545021 287.241505 
L 168.049392 287.241505 
L 168.049392 287.126775 
L 173.464052 287.126775 
L 173.464052 287.012044 
L 176.14438 287.012044 
L 176.14438 286.897314 
L 177.589848 286.897314 
L 177.589848 286.782584 
L 182.37884 286.782584 
L 182.37884 286.667853 
L 190.137263 286.667853 
L 190.137263 286.553123 
L 201.544202 286.553123 
L 201.544202 286.438393 
L 204.917019 286.438393 
L 204.917019 286.323662 
L 338.688 286.323662 
" style="fill:none;stroke:#ff0000;stroke-linecap:square;stroke-width:1.5;"/>
   </g>
   <g id="line2d_51">
    <defs>
     <path d="M -6 6 
L 6 6 
L 6 -6 
L -6 -6 
z
" id="m65ab4d45ef" style="stroke:#ff0000;stroke-linejoin:miter;stroke-width:1.5;"/>
    </defs>
    <g>
     <use style="fill-opacity:0;stroke:#ff0000;stroke-linejoin:miter;stroke-width:1.5;" x="75.555822" xlink:href="#m65ab4d45ef" y="288.618269"/>
     <use style="fill-opacity:0;stroke:#ff0000;stroke-linejoin:miter;stroke-width:1.5;" x="176.14438" xlink:href="#m65ab4d45ef" y="287.012044"/>
     <use style="fill-opacity:0;stroke:#ff0000;stroke-linejoin:miter;stroke-width:1.5;" x="204.917019" xlink:href="#m65ab4d45ef" y="286.438393"/>
     <use style="fill-opacity:0;stroke:#ff0000;stroke-linejoin:miter;stroke-width:1.5;" x="204.917019" xlink:href="#m65ab4d45ef" y="286.323662"/>
     <use style="fill-opacity:0;stroke:#ff0000;stroke-linejoin:miter;stroke-width:1.5;" x="204.917019" xlink:href="#m65ab4d45ef" y="286.323662"/>
     <use style="fill-opacity:0;stroke:#ff0000;stroke-linejoin:miter;stroke-width:1.5;" x="338.688" xlink:href="#m65ab4d45ef" y="286.323662"/>
    </g>
   </g>
   <g id="line2d_52">
    <path style="fill:none;stroke:#ff0000;stroke-linecap:square;stroke-width:1.5;"/>
    <g/>
   </g>
   <g id="line2d_53">
    <path clip-path="url(#p203dac7ca9)" d="M 138.341479 288.159348 
" style="fill:none;stroke:#ff0000;stroke-linecap:square;stroke-width:1.5;"/>
    <defs>
     <path d="M -12 12 
L 12 -12 
M -12 -12 
L 12 12 
" id="m6bcc3454f5" style="stroke:#ff0000;"/>
    </defs>
    <g clip-path="url(#p203dac7ca9)">
     <use style="fill:#ff0000;stroke:#ff0000;" x="138.341479" xlink:href="#m6bcc3454f5" y="288.159348"/>
    </g>
   </g>
   <g id="line2d_54">
    <defs>
     <path d="M 0 1.5 
C 0.397805 1.5 0.77937 1.341951 1.06066 1.06066 
C 1.341951 0.77937 1.5 0.397805 1.5 0 
C 1.5 -0.397805 1.341951 -0.77937 1.06066 -1.06066 
C 0.77937 -1.341951 0.397805 -1.5 0 -1.5 
C -0.397805 -1.5 -0.77937 -1.341951 -1.06066 -1.06066 
C -1.341951 -0.77937 -1.5 -0.397805 -1.5 0 
C -1.5 0.397805 -1.341951 0.77937 -1.06066 1.06066 
C -0.77937 1.341951 -0.397805 1.5 0 1.5 
z
" id="m4705a285b7" style="stroke:#bf00bf;"/>
    </defs>
    <g>
     <use style="fill:#bf00bf;stroke:#bf00bf;" x="186.881956" xlink:href="#m4705a285b7" y="287.470966"/>
     <use style="fill:#bf00bf;stroke:#bf00bf;" x="186.881956" xlink:href="#m4705a285b7" y="287.470966"/>
    </g>
   </g>
   <g id="line2d_55">
    <path d="M -1 291.601258 
L 5.356583 291.601258 
L 5.356583 291.027606 
L 12.427603 291.027606 
L 12.427603 290.798146 
L 17.444571 290.798146 
L 17.444571 290.683415 
L 24.515591 290.683415 
L 24.515591 290.453955 
L 31.586611 290.453955 
L 31.586611 290.224494 
L 36.60358 290.224494 
L 36.60358 289.880303 
L 39.291857 289.880303 
L 39.291857 289.765573 
L 43.6746 289.765573 
L 43.6746 289.650842 
L 48.691568 289.650842 
L 48.691568 289.536112 
L 56.705482 289.536112 
L 56.705482 289.421381 
L 86.683608 289.421381 
L 86.683608 289.306651 
L 86.765675 289.306651 
L 86.765675 289.191921 
L 93.366456 289.191921 
L 93.366456 289.07719 
L 96.110718 289.07719 
L 96.110718 288.96246 
L 111.165366 288.96246 
L 111.165366 288.84773 
L 120.956389 288.84773 
L 120.956389 288.618269 
L 127.961971 288.618269 
L 127.961971 288.503539 
L 132.624415 288.503539 
L 132.624415 288.388808 
L 153.202002 288.388808 
L 153.202002 288.274078 
L 159.333219 288.274078 
L 159.333219 288.159348 
L 163.860585 288.159348 
L 163.860585 288.044617 
L 170.427859 288.044617 
L 170.427859 287.929887 
L 175.187391 287.929887 
L 175.187391 287.815157 
L 178.922548 287.815157 
L 178.922548 287.700426 
L 181.573724 287.700426 
L 181.573724 287.585696 
L 186.881956 287.585696 
L 186.881956 287.470966 
L 338.688 287.470966 
" style="fill:none;stroke:#bf00bf;stroke-linecap:square;stroke-width:1.5;"/>
   </g>
   <g id="line2d_56">
    <defs>
     <path d="M -0 8.485281 
L 8.485281 0 
L 0 -8.485281 
L -8.485281 -0 
z
" id="mfb95a0479d" style="stroke:#bf00bf;stroke-linejoin:miter;stroke-width:1.5;"/>
    </defs>
    <g>
     <use style="fill-opacity:0;stroke:#bf00bf;stroke-linejoin:miter;stroke-width:1.5;" x="111.165366" xlink:href="#mfb95a0479d" y="288.84773"/>
     <use style="fill-opacity:0;stroke:#bf00bf;stroke-linejoin:miter;stroke-width:1.5;" x="186.881956" xlink:href="#mfb95a0479d" y="287.585696"/>
     <use style="fill-opacity:0;stroke:#bf00bf;stroke-linejoin:miter;stroke-width:1.5;" x="186.881956" xlink:href="#mfb95a0479d" y="287.470966"/>
     <use style="fill-opacity:0;stroke:#bf00bf;stroke-linejoin:miter;stroke-width:1.5;" x="186.881956" xlink:href="#mfb95a0479d" y="287.470966"/>
     <use style="fill-opacity:0;stroke:#bf00bf;stroke-linejoin:miter;stroke-width:1.5;" x="338.688" xlink:href="#mfb95a0479d" y="287.470966"/>
    </g>
   </g>
   <g id="line2d_57">
    <path style="fill:none;stroke:#bf00bf;stroke-linecap:square;stroke-width:1.5;"/>
    <g/>
   </g>
   <g id="line2d_58">
    <path clip-path="url(#p203dac7ca9)" d="M 138.127497 288.388808 
" style="fill:none;stroke:#bf00bf;stroke-linecap:square;stroke-width:1.5;"/>
    <defs>
     <path d="M -12 12 
L 12 -12 
M -12 -12 
L 12 12 
" id="m0b8db2a860" style="stroke:#bf00bf;"/>
    </defs>
    <g clip-path="url(#p203dac7ca9)">
     <use style="fill:#bf00bf;stroke:#bf00bf;" x="138.127497" xlink:href="#m0b8db2a860" y="288.388808"/>
    </g>
   </g>
   <g id="line2d_59">
    <path d="M 338.688 287.470966 
L 369.60768 293.092752 
" style="fill:none;stroke:#bf00bf;stroke-linecap:square;stroke-width:1.5;"/>
    <g>
     <use style="fill-opacity:0;stroke:#bf00bf;stroke-linejoin:miter;stroke-width:1.5;" x="338.688" xlink:href="#mfb95a0479d" y="287.470966"/>
     <use style="fill-opacity:0;stroke:#bf00bf;stroke-linejoin:miter;stroke-width:1.5;" x="369.60768" xlink:href="#mfb95a0479d" y="293.092752"/>
    </g>
   </g>
   <g id="line2d_60">
    <path d="M 338.688 286.323662 
L 369.60768 236.920776 
" style="fill:none;stroke:#ff0000;stroke-linecap:square;stroke-width:1.5;"/>
    <g>
     <use style="fill-opacity:0;stroke:#ff0000;stroke-linejoin:miter;stroke-width:1.5;" x="338.688" xlink:href="#m65ab4d45ef" y="286.323662"/>
     <use style="fill-opacity:0;stroke:#ff0000;stroke-linejoin:miter;stroke-width:1.5;" x="369.60768" xlink:href="#m65ab4d45ef" y="236.920776"/>
    </g>
   </g>
   <g id="line2d_61">
    <path d="M 338.688 279.439842 
L 369.60768 180.7488 
" style="fill:none;stroke:#000000;stroke-linecap:square;stroke-width:1.5;"/>
    <g>
     <use style="fill-opacity:0;stroke:#000000;stroke-width:1.5;" x="338.688" xlink:href="#mc0c086e8c0" y="279.439842"/>
     <use style="fill-opacity:0;stroke:#000000;stroke-width:1.5;" x="369.60768" xlink:href="#mc0c086e8c0" y="180.7488"/>
    </g>
   </g>
   <g id="line2d_62">
    <path d="M 338.688 256.493773 
L 369.60768 124.576824 
" style="fill:none;stroke:#0000ff;stroke-linecap:square;stroke-width:1.5;"/>
    <g>
     <use style="fill-opacity:0;stroke:#0000ff;stroke-linejoin:bevel;stroke-width:1.5;" x="338.688" xlink:href="#m5e1df54582" y="256.493773"/>
     <use style="fill-opacity:0;stroke:#0000ff;stroke-linejoin:bevel;stroke-width:1.5;" x="369.60768" xlink:href="#m5e1df54582" y="124.576824"/>
    </g>
   </g>
   <g id="line2d_63">
    <path d="M 338.688 231.253097 
L 369.60768 68.404848 
" style="fill:none;stroke:#008000;stroke-linecap:square;stroke-width:1.5;"/>
    <g>
     <use style="fill-opacity:0;stroke:#008000;stroke-linejoin:miter;stroke-width:1.5;" x="338.688" xlink:href="#m8fcdb06a52" y="231.253097"/>
     <use style="fill-opacity:0;stroke:#008000;stroke-linejoin:miter;stroke-width:1.5;" x="369.60768" xlink:href="#m8fcdb06a52" y="68.404848"/>
    </g>
   </g>
   <g id="line2d_64">
    <path d="M 338.688 222.07467 
L 369.60768 12.232871 
" style="fill:none;stroke:#00bfbf;stroke-linecap:square;stroke-width:1.5;"/>
    <g>
     <use style="fill-opacity:0;stroke:#00bfbf;stroke-width:1.5;" x="338.688" xlink:href="#m7d069662b5" y="222.07467"/>
     <use style="fill-opacity:0;stroke:#00bfbf;stroke-width:1.5;" x="369.60768" xlink:href="#m7d069662b5" y="12.232871"/>
    </g>
   </g>
   <g id="line2d_65">
    <path d="M 338.688 298.944 
L 338.688 6.381624 
" style="fill:none;stroke:#000000;stroke-linecap:square;stroke-width:1.5;"/>
   </g>
   <g id="patch_3">
    <path d="M 57.6 298.944 
L 57.6 3.456 
" style="fill:none;stroke:#000000;stroke-linecap:square;stroke-linejoin:miter;stroke-width:0.8;"/>
   </g>
   <g id="patch_4">
    <path d="M 338.688 298.944 
L 338.688 3.456 
" style="fill:none;stroke:#000000;stroke-linecap:square;stroke-linejoin:miter;stroke-width:0.8;"/>
   </g>
   <g id="patch_5">
    <path d="M 57.6 298.944 
L 338.688 298.944 
" style="fill:none;stroke:#000000;stroke-linecap:square;stroke-linejoin:miter;stroke-width:0.8;"/>
   </g>
   <g id="patch_6">
    <path d="M 57.6 3.456 
L 338.688 3.456 
" style="fill:none;stroke:#000000;stroke-linecap:square;stroke-linejoin:miter;stroke-width:0.8;"/>
   </g>
   <g id="text_13">
    <!-- 40-D -->
    <defs>
     <path d="M 19.671875 64.796875 
L 19.671875 8.109375 
L 31.59375 8.109375 
Q 46.6875 8.109375 53.6875 14.9375 
Q 60.6875 21.78125 60.6875 36.53125 
Q 60.6875 51.171875 53.6875 57.984375 
Q 46.6875 64.796875 31.59375 64.796875 
z
M 9.8125 72.90625 
L 30.078125 72.90625 
Q 51.265625 72.90625 61.171875 64.09375 
Q 71.09375 55.28125 71.09375 36.53125 
Q 71.09375 17.671875 61.125 8.828125 
Q 51.171875 0 30.078125 0 
L 9.8125 0 
z
" id="DejaVuSans-68"/>
    </defs>
    <g transform="translate(375.22944 297.78369)scale(0.17 -0.17)">
     <use xlink:href="#DejaVuSans-52"/>
     <use x="63.623047" xlink:href="#DejaVuSans-48"/>
     <use x="127.246094" xlink:href="#DejaVuSans-45"/>
     <use x="163.330078" xlink:href="#DejaVuSans-68"/>
    </g>
   </g>
   <g id="text_14">
    <!-- 20-D -->
    <g transform="translate(375.22944 241.611714)scale(0.17 -0.17)">
     <use xlink:href="#DejaVuSans-50"/>
     <use x="63.623047" xlink:href="#DejaVuSans-48"/>
     <use x="127.246094" xlink:href="#DejaVuSans-45"/>
     <use x="163.330078" xlink:href="#DejaVuSans-68"/>
    </g>
   </g>
   <g id="text_15">
    <!-- 10-D -->
    <g transform="translate(375.22944 185.439737)scale(0.17 -0.17)">
     <use xlink:href="#DejaVuSans-49"/>
     <use x="63.623047" xlink:href="#DejaVuSans-48"/>
     <use x="127.246094" xlink:href="#DejaVuSans-45"/>
     <use x="163.330078" xlink:href="#DejaVuSans-68"/>
    </g>
   </g>
   <g id="text_16">
    <!-- 5-D -->
    <defs>
     <path d="M 10.796875 72.90625 
L 49.515625 72.90625 
L 49.515625 64.59375 
L 19.828125 64.59375 
L 19.828125 46.734375 
Q 21.96875 47.46875 24.109375 47.828125 
Q 26.265625 48.1875 28.421875 48.1875 
Q 40.625 48.1875 47.75 41.5 
Q 54.890625 34.8125 54.890625 23.390625 
Q 54.890625 11.625 47.5625 5.09375 
Q 40.234375 -1.421875 26.90625 -1.421875 
Q 22.3125 -1.421875 17.546875 -0.640625 
Q 12.796875 0.140625 7.71875 1.703125 
L 7.71875 11.625 
Q 12.109375 9.234375 16.796875 8.0625 
Q 21.484375 6.890625 26.703125 6.890625 
Q 35.15625 6.890625 40.078125 11.328125 
Q 45.015625 15.765625 45.015625 23.390625 
Q 45.015625 31 40.078125 35.4375 
Q 35.15625 39.890625 26.703125 39.890625 
Q 22.75 39.890625 18.8125 39.015625 
Q 14.890625 38.140625 10.796875 36.28125 
z
" id="DejaVuSans-53"/>
    </defs>
    <g transform="translate(375.22944 129.267761)scale(0.17 -0.17)">
     <use xlink:href="#DejaVuSans-53"/>
     <use x="63.623047" xlink:href="#DejaVuSans-45"/>
     <use x="99.707031" xlink:href="#DejaVuSans-68"/>
    </g>
   </g>
   <g id="text_17">
    <!-- 3-D -->
    <defs>
     <path d="M 40.578125 39.3125 
Q 47.65625 37.796875 51.625 33 
Q 55.609375 28.21875 55.609375 21.1875 
Q 55.609375 10.40625 48.1875 4.484375 
Q 40.765625 -1.421875 27.09375 -1.421875 
Q 22.515625 -1.421875 17.65625 -0.515625 
Q 12.796875 0.390625 7.625 2.203125 
L 7.625 11.71875 
Q 11.71875 9.328125 16.59375 8.109375 
Q 21.484375 6.890625 26.8125 6.890625 
Q 36.078125 6.890625 40.9375 10.546875 
Q 45.796875 14.203125 45.796875 21.1875 
Q 45.796875 27.640625 41.28125 31.265625 
Q 36.765625 34.90625 28.71875 34.90625 
L 20.21875 34.90625 
L 20.21875 43.015625 
L 29.109375 43.015625 
Q 36.375 43.015625 40.234375 45.921875 
Q 44.09375 48.828125 44.09375 54.296875 
Q 44.09375 59.90625 40.109375 62.90625 
Q 36.140625 65.921875 28.71875 65.921875 
Q 24.65625 65.921875 20.015625 65.03125 
Q 15.375 64.15625 9.8125 62.3125 
L 9.8125 71.09375 
Q 15.4375 72.65625 20.34375 73.4375 
Q 25.25 74.21875 29.59375 74.21875 
Q 40.828125 74.21875 47.359375 69.109375 
Q 53.90625 64.015625 53.90625 55.328125 
Q 53.90625 49.265625 50.4375 45.09375 
Q 46.96875 40.921875 40.578125 39.3125 
z
" id="DejaVuSans-51"/>
    </defs>
    <g transform="translate(375.22944 73.095785)scale(0.17 -0.17)">
     <use xlink:href="#DejaVuSans-51"/>
     <use x="63.623047" xlink:href="#DejaVuSans-45"/>
     <use x="99.707031" xlink:href="#DejaVuSans-68"/>
    </g>
   </g>
   <g id="text_18">
    <!-- 2-D -->
    <g transform="translate(375.22944 16.923809)scale(0.17 -0.17)">
     <use xlink:href="#DejaVuSans-50"/>
     <use x="63.623047" xlink:href="#DejaVuSans-45"/>
     <use x="99.707031" xlink:href="#DejaVuSans-68"/>
    </g>
   </g>
   <g id="text_19">
    <!-- bbob f20-f24 -->
    <defs>
     <path d="M 48.6875 27.296875 
Q 48.6875 37.203125 44.609375 42.84375 
Q 40.53125 48.484375 33.40625 48.484375 
Q 26.265625 48.484375 22.1875 42.84375 
Q 18.109375 37.203125 18.109375 27.296875 
Q 18.109375 17.390625 22.1875 11.75 
Q 26.265625 6.109375 33.40625 6.109375 
Q 40.53125 6.109375 44.609375 11.75 
Q 48.6875 17.390625 48.6875 27.296875 
z
M 18.109375 46.390625 
Q 20.953125 51.265625 25.265625 53.625 
Q 29.59375 56 35.59375 56 
Q 45.5625 56 51.78125 48.09375 
Q 58.015625 40.1875 58.015625 27.296875 
Q 58.015625 14.40625 51.78125 6.484375 
Q 45.5625 -1.421875 35.59375 -1.421875 
Q 29.59375 -1.421875 25.265625 0.953125 
Q 20.953125 3.328125 18.109375 8.203125 
L 18.109375 0 
L 9.078125 0 
L 9.078125 75.984375 
L 18.109375 75.984375 
z
" id="DejaVuSans-98"/>
    </defs>
    <g transform="translate(60.41088 14.161286)scale(0.102 -0.102)">
     <use xlink:href="#DejaVuSans-98"/>
     <use x="63.476562" xlink:href="#DejaVuSans-98"/>
     <use x="126.953125" xlink:href="#DejaVuSans-111"/>
     <use x="188.134766" xlink:href="#DejaVuSans-98"/>
     <use x="251.611328" xlink:href="#DejaVuSans-32"/>
     <use x="283.398438" xlink:href="#DejaVuSans-102"/>
     <use x="318.603516" xlink:href="#DejaVuSans-50"/>
     <use x="382.226562" xlink:href="#DejaVuSans-48"/>
     <use x="445.849609" xlink:href="#DejaVuSans-45"/>
     <use x="481.933594" xlink:href="#DejaVuSans-102"/>
     <use x="517.138672" xlink:href="#DejaVuSans-50"/>
     <use x="580.761719" xlink:href="#DejaVuSans-52"/>
    </g>
    <!-- 51 targets: 100..1e-08 -->
    <defs>
     <path d="M 11.71875 12.40625 
L 22.015625 12.40625 
L 22.015625 0 
L 11.71875 0 
z
M 11.71875 51.703125 
L 22.015625 51.703125 
L 22.015625 39.3125 
L 11.71875 39.3125 
z
" id="DejaVuSans-58"/>
    </defs>
    <g transform="translate(60.41088 25.583055)scale(0.102 -0.102)">
     <use xlink:href="#DejaVuSans-53"/>
     <use x="63.623047" xlink:href="#DejaVuSans-49"/>
     <use x="127.246094" xlink:href="#DejaVuSans-32"/>
     <use x="159.033203" xlink:href="#DejaVuSans-116"/>
     <use x="198.242188" xlink:href="#DejaVuSans-97"/>
     <use x="259.521484" xlink:href="#DejaVuSans-114"/>
     <use x="300.619141" xlink:href="#DejaVuSans-103"/>
     <use x="364.095703" xlink:href="#DejaVuSans-101"/>
     <use x="425.619141" xlink:href="#DejaVuSans-116"/>
     <use x="464.828125" xlink:href="#DejaVuSans-115"/>
     <use x="516.927734" xlink:href="#DejaVuSans-58"/>
     <use x="550.619141" xlink:href="#DejaVuSans-32"/>
     <use x="582.40625" xlink:href="#DejaVuSans-49"/>
     <use x="646.029297" xlink:href="#DejaVuSans-48"/>
     <use x="709.652344" xlink:href="#DejaVuSans-48"/>
     <use x="773.275391" xlink:href="#DejaVuSans-46"/>
     <use x="805.0625" xlink:href="#DejaVuSans-46"/>
     <use x="836.849609" xlink:href="#DejaVuSans-49"/>
     <use x="900.472656" xlink:href="#DejaVuSans-101"/>
     <use x="961.996094" xlink:href="#DejaVuSans-45"/>
     <use x="998.080078" xlink:href="#DejaVuSans-48"/>
     <use x="1061.703125" xlink:href="#DejaVuSans-56"/>
    </g>
    <!-- 15 instances -->
    <g transform="translate(60.41088 37.004824)scale(0.102 -0.102)">
     <use xlink:href="#DejaVuSans-49"/>
     <use x="63.623047" xlink:href="#DejaVuSans-53"/>
     <use x="127.246094" xlink:href="#DejaVuSans-32"/>
     <use x="159.033203" xlink:href="#DejaVuSans-105"/>
     <use x="186.816406" xlink:href="#DejaVuSans-110"/>
     <use x="250.195312" xlink:href="#DejaVuSans-115"/>
     <use x="302.294922" xlink:href="#DejaVuSans-116"/>
     <use x="341.503906" xlink:href="#DejaVuSans-97"/>
     <use x="402.783203" xlink:href="#DejaVuSans-110"/>
     <use x="466.162109" xlink:href="#DejaVuSans-99"/>
     <use x="521.142578" xlink:href="#DejaVuSans-101"/>
     <use x="582.666016" xlink:href="#DejaVuSans-115"/>
    </g>
   </g>
   <g id="text_20">
    <!-- v2.4 -->
    <g style="fill:#808080;" transform="translate(187.233062 293.909432)scale(0.1 -0.1)">
     <use xlink:href="#DejaVuSans-118"/>
     <use x="59.179688" xlink:href="#DejaVuSans-50"/>
     <use x="122.802734" xlink:href="#DejaVuSans-46"/>
     <use x="154.589844" xlink:href="#DejaVuSans-52"/>
    </g>
   </g>
  </g>
 </g>
 <defs>
  <clipPath id="p203dac7ca9">
   <rect height="295.488" width="281.088" x="57.6" y="3.456"/>
  </clipPath>
 </defs>
</svg>
