<?xml version="1.0" encoding="utf-8" standalone="no"?>
<!DOCTYPE svg PUBLIC "-//W3C//DTD SVG 1.1//EN"
  "http://www.w3.org/Graphics/SVG/1.1/DTD/svg11.dtd">
<!-- Created with matplotlib (https://matplotlib.org/) -->
<svg height="345.6pt" version="1.1" viewBox="0 0 460.8 345.6" width="460.8pt" xmlns="http://www.w3.org/2000/svg" xmlns:xlink="http://www.w3.org/1999/xlink">
 <defs>
  <style type="text/css">
*{stroke-linecap:butt;stroke-linejoin:round;}
  </style>
 </defs>
 <g id="figure_1">
  <g id="patch_1">
   <path d="M 0 345.6 
L 460.8 345.6 
L 460.8 0 
L 0 0 
z
" style="fill:#ffffff;"/>
  </g>
  <g id="axes_1">
   <g id="patch_2">
    <path d="M 57.6 298.944 
L 338.688 298.944 
L 338.688 3.456 
L 57.6 3.456 
z
" style="fill:#ffffff;"/>
   </g>
   <g id="matplotlib.axis_1">
    <g id="xtick_1">
     <g id="line2d_1">
      <path clip-path="url(#pbb5b8b7a10)" d="M 57.6 298.944 
L 57.6 3.456 
" style="fill:none;stroke:#b0b0b0;stroke-linecap:square;stroke-width:0.8;"/>
     </g>
     <g id="line2d_2">
      <defs>
       <path d="M 0 0 
L 0 3.5 
" id="mf791631a06" style="stroke:#000000;stroke-width:0.8;"/>
      </defs>
      <g>
       <use style="stroke:#000000;stroke-width:0.8;" x="57.6" xlink:href="#mf791631a06" y="298.944"/>
      </g>
     </g>
     <g id="text_1">
      <!-- 0 -->
      <defs>
       <path d="M 31.78125 66.40625 
Q 24.171875 66.40625 20.328125 58.90625 
Q 16.5 51.421875 16.5 36.375 
Q 16.5 21.390625 20.328125 13.890625 
Q 24.171875 6.390625 31.78125 6.390625 
Q 39.453125 6.390625 43.28125 13.890625 
Q 47.125 21.390625 47.125 36.375 
Q 47.125 51.421875 43.28125 58.90625 
Q 39.453125 66.40625 31.78125 66.40625 
z
M 31.78125 74.21875 
Q 44.046875 74.21875 50.515625 64.515625 
Q 56.984375 54.828125 56.984375 36.375 
Q 56.984375 17.96875 50.515625 8.265625 
Q 44.046875 -1.421875 31.78125 -1.421875 
Q 19.53125 -1.421875 13.0625 8.265625 
Q 6.59375 17.96875 6.59375 36.375 
Q 6.59375 54.828125 13.0625 64.515625 
Q 19.53125 74.21875 31.78125 74.21875 
z
" id="DejaVuSans-48"/>
      </defs>
      <g transform="translate(51.2375 321.140875)scale(0.2 -0.2)">
       <use xlink:href="#DejaVuSans-48"/>
      </g>
     </g>
    </g>
    <g id="xtick_2">
     <g id="line2d_3">
      <path clip-path="url(#pbb5b8b7a10)" d="M 137.910857 298.944 
L 137.910857 3.456 
" style="fill:none;stroke:#b0b0b0;stroke-linecap:square;stroke-width:0.8;"/>
     </g>
     <g id="line2d_4">
      <g>
       <use style="stroke:#000000;stroke-width:0.8;" x="137.910857" xlink:href="#mf791631a06" y="298.944"/>
      </g>
     </g>
     <g id="text_2">
      <!-- 2 -->
      <defs>
       <path d="M 19.1875 8.296875 
L 53.609375 8.296875 
L 53.609375 0 
L 7.328125 0 
L 7.328125 8.296875 
Q 12.9375 14.109375 22.625 23.890625 
Q 32.328125 33.6875 34.8125 36.53125 
Q 39.546875 41.84375 41.421875 45.53125 
Q 43.3125 49.21875 43.3125 52.78125 
Q 43.3125 58.59375 39.234375 62.25 
Q 35.15625 65.921875 28.609375 65.921875 
Q 23.96875 65.921875 18.8125 64.3125 
Q 13.671875 62.703125 7.8125 59.421875 
L 7.8125 69.390625 
Q 13.765625 71.78125 18.9375 73 
Q 24.125 74.21875 28.421875 74.21875 
Q 39.75 74.21875 46.484375 68.546875 
Q 53.21875 62.890625 53.21875 53.421875 
Q 53.21875 48.921875 51.53125 44.890625 
Q 49.859375 40.875 45.40625 35.40625 
Q 44.1875 33.984375 37.640625 27.21875 
Q 31.109375 20.453125 19.1875 8.296875 
z
" id="DejaVuSans-50"/>
      </defs>
      <g transform="translate(131.548357 321.140875)scale(0.2 -0.2)">
       <use xlink:href="#DejaVuSans-50"/>
      </g>
     </g>
    </g>
    <g id="xtick_3">
     <g id="line2d_5">
      <path clip-path="url(#pbb5b8b7a10)" d="M 218.221714 298.944 
L 218.221714 3.456 
" style="fill:none;stroke:#b0b0b0;stroke-linecap:square;stroke-width:0.8;"/>
     </g>
     <g id="line2d_6">
      <g>
       <use style="stroke:#000000;stroke-width:0.8;" x="218.221714" xlink:href="#mf791631a06" y="298.944"/>
      </g>
     </g>
     <g id="text_3">
      <!-- 4 -->
      <defs>
       <path d="M 37.796875 64.3125 
L 12.890625 25.390625 
L 37.796875 25.390625 
z
M 35.203125 72.90625 
L 47.609375 72.90625 
L 47.609375 25.390625 
L 58.015625 25.390625 
L 58.015625 17.1875 
L 47.609375 17.1875 
L 47.609375 0 
L 37.796875 0 
L 37.796875 17.1875 
L 4.890625 17.1875 
L 4.890625 26.703125 
z
" id="DejaVuSans-52"/>
      </defs>
      <g transform="translate(211.859214 321.140875)scale(0.2 -0.2)">
       <use xlink:href="#DejaVuSans-52"/>
      </g>
     </g>
    </g>
    <g id="xtick_4">
     <g id="line2d_7">
      <path clip-path="url(#pbb5b8b7a10)" d="M 298.532571 298.944 
L 298.532571 3.456 
" style="fill:none;stroke:#b0b0b0;stroke-linecap:square;stroke-width:0.8;"/>
     </g>
     <g id="line2d_8">
      <g>
       <use style="stroke:#000000;stroke-width:0.8;" x="298.532571" xlink:href="#mf791631a06" y="298.944"/>
      </g>
     </g>
     <g id="text_4">
      <!-- 6 -->
      <defs>
       <path d="M 33.015625 40.375 
Q 26.375 40.375 22.484375 35.828125 
Q 18.609375 31.296875 18.609375 23.390625 
Q 18.609375 15.53125 22.484375 10.953125 
Q 26.375 6.390625 33.015625 6.390625 
Q 39.65625 6.390625 43.53125 10.953125 
Q 47.40625 15.53125 47.40625 23.390625 
Q 47.40625 31.296875 43.53125 35.828125 
Q 39.65625 40.375 33.015625 40.375 
z
M 52.59375 71.296875 
L 52.59375 62.3125 
Q 48.875 64.0625 45.09375 64.984375 
Q 41.3125 65.921875 37.59375 65.921875 
Q 27.828125 65.921875 22.671875 59.328125 
Q 17.53125 52.734375 16.796875 39.40625 
Q 19.671875 43.65625 24.015625 45.921875 
Q 28.375 48.1875 33.59375 48.1875 
Q 44.578125 48.1875 50.953125 41.515625 
Q 57.328125 34.859375 57.328125 23.390625 
Q 57.328125 12.15625 50.6875 5.359375 
Q 44.046875 -1.421875 33.015625 -1.421875 
Q 20.359375 -1.421875 13.671875 8.265625 
Q 6.984375 17.96875 6.984375 36.375 
Q 6.984375 53.65625 15.1875 63.9375 
Q 23.390625 74.21875 37.203125 74.21875 
Q 40.921875 74.21875 44.703125 73.484375 
Q 48.484375 72.75 52.59375 71.296875 
z
" id="DejaVuSans-54"/>
      </defs>
      <g transform="translate(292.170071 321.140875)scale(0.2 -0.2)">
       <use xlink:href="#DejaVuSans-54"/>
      </g>
     </g>
    </g>
    <g id="xtick_5">
     <g id="line2d_9">
      <path clip-path="url(#pbb5b8b7a10)" d="M 97.755429 298.944 
L 97.755429 3.456 
" style="fill:none;stroke:#b0b0b0;stroke-linecap:square;stroke-width:0.8;"/>
     </g>
     <g id="line2d_10">
      <defs>
       <path d="M 0 0 
L 0 2 
" id="me7c76caae0" style="stroke:#000000;stroke-width:0.6;"/>
      </defs>
      <g>
       <use style="stroke:#000000;stroke-width:0.6;" x="97.755429" xlink:href="#me7c76caae0" y="298.944"/>
      </g>
     </g>
    </g>
    <g id="xtick_6">
     <g id="line2d_11">
      <path clip-path="url(#pbb5b8b7a10)" d="M 178.066286 298.944 
L 178.066286 3.456 
" style="fill:none;stroke:#b0b0b0;stroke-linecap:square;stroke-width:0.8;"/>
     </g>
     <g id="line2d_12">
      <g>
       <use style="stroke:#000000;stroke-width:0.6;" x="178.066286" xlink:href="#me7c76caae0" y="298.944"/>
      </g>
     </g>
    </g>
    <g id="xtick_7">
     <g id="line2d_13">
      <path clip-path="url(#pbb5b8b7a10)" d="M 258.377143 298.944 
L 258.377143 3.456 
" style="fill:none;stroke:#b0b0b0;stroke-linecap:square;stroke-width:0.8;"/>
     </g>
     <g id="line2d_14">
      <g>
       <use style="stroke:#000000;stroke-width:0.6;" x="258.377143" xlink:href="#me7c76caae0" y="298.944"/>
      </g>
     </g>
    </g>
    <g id="xtick_8">
     <g id="line2d_15">
      <path clip-path="url(#pbb5b8b7a10)" d="M 338.688 298.944 
L 338.688 3.456 
" style="fill:none;stroke:#b0b0b0;stroke-linecap:square;stroke-width:0.8;"/>
     </g>
     <g id="line2d_16">
      <g>
       <use style="stroke:#000000;stroke-width:0.6;" x="338.688" xlink:href="#me7c76caae0" y="298.944"/>
      </g>
     </g>
    </g>
    <g id="text_5">
     <!-- log10(# f-evals / dimension) -->
     <defs>
      <path d="M 9.421875 75.984375 
L 18.40625 75.984375 
L 18.40625 0 
L 9.421875 0 
z
" id="DejaVuSans-108"/>
      <path d="M 30.609375 48.390625 
Q 23.390625 48.390625 19.1875 42.75 
Q 14.984375 37.109375 14.984375 27.296875 
Q 14.984375 17.484375 19.15625 11.84375 
Q 23.34375 6.203125 30.609375 6.203125 
Q 37.796875 6.203125 41.984375 11.859375 
Q 46.1875 17.53125 46.1875 27.296875 
Q 46.1875 37.015625 41.984375 42.703125 
Q 37.796875 48.390625 30.609375 48.390625 
z
M 30.609375 56 
Q 42.328125 56 49.015625 48.375 
Q 55.71875 40.765625 55.71875 27.296875 
Q 55.71875 13.875 49.015625 6.21875 
Q 42.328125 -1.421875 30.609375 -1.421875 
Q 18.84375 -1.421875 12.171875 6.21875 
Q 5.515625 13.875 5.515625 27.296875 
Q 5.515625 40.765625 12.171875 48.375 
Q 18.84375 56 30.609375 56 
z
" id="DejaVuSans-111"/>
      <path d="M 45.40625 27.984375 
Q 45.40625 37.75 41.375 43.109375 
Q 37.359375 48.484375 30.078125 48.484375 
Q 22.859375 48.484375 18.828125 43.109375 
Q 14.796875 37.75 14.796875 27.984375 
Q 14.796875 18.265625 18.828125 12.890625 
Q 22.859375 7.515625 30.078125 7.515625 
Q 37.359375 7.515625 41.375 12.890625 
Q 45.40625 18.265625 45.40625 27.984375 
z
M 54.390625 6.78125 
Q 54.390625 -7.171875 48.1875 -13.984375 
Q 42 -20.796875 29.203125 -20.796875 
Q 24.46875 -20.796875 20.265625 -20.09375 
Q 16.0625 -19.390625 12.109375 -17.921875 
L 12.109375 -9.1875 
Q 16.0625 -11.328125 19.921875 -12.34375 
Q 23.78125 -13.375 27.78125 -13.375 
Q 36.625 -13.375 41.015625 -8.765625 
Q 45.40625 -4.15625 45.40625 5.171875 
L 45.40625 9.625 
Q 42.625 4.78125 38.28125 2.390625 
Q 33.9375 0 27.875 0 
Q 17.828125 0 11.671875 7.65625 
Q 5.515625 15.328125 5.515625 27.984375 
Q 5.515625 40.671875 11.671875 48.328125 
Q 17.828125 56 27.875 56 
Q 33.9375 56 38.28125 53.609375 
Q 42.625 51.21875 45.40625 46.390625 
L 45.40625 54.6875 
L 54.390625 54.6875 
z
" id="DejaVuSans-103"/>
      <path d="M 12.40625 8.296875 
L 28.515625 8.296875 
L 28.515625 63.921875 
L 10.984375 60.40625 
L 10.984375 69.390625 
L 28.421875 72.90625 
L 38.28125 72.90625 
L 38.28125 8.296875 
L 54.390625 8.296875 
L 54.390625 0 
L 12.40625 0 
z
" id="DejaVuSans-49"/>
      <path d="M 31 75.875 
Q 24.46875 64.65625 21.28125 53.65625 
Q 18.109375 42.671875 18.109375 31.390625 
Q 18.109375 20.125 21.3125 9.0625 
Q 24.515625 -2 31 -13.1875 
L 23.1875 -13.1875 
Q 15.875 -1.703125 12.234375 9.375 
Q 8.59375 20.453125 8.59375 31.390625 
Q 8.59375 42.28125 12.203125 53.3125 
Q 15.828125 64.359375 23.1875 75.875 
z
" id="DejaVuSans-40"/>
      <path d="M 51.125 44 
L 36.921875 44 
L 32.8125 27.6875 
L 47.125 27.6875 
z
M 43.796875 71.78125 
L 38.71875 51.515625 
L 52.984375 51.515625 
L 58.109375 71.78125 
L 65.921875 71.78125 
L 60.890625 51.515625 
L 76.125 51.515625 
L 76.125 44 
L 58.984375 44 
L 54.984375 27.6875 
L 70.515625 27.6875 
L 70.515625 20.21875 
L 53.078125 20.21875 
L 48 0 
L 40.1875 0 
L 45.21875 20.21875 
L 30.90625 20.21875 
L 25.875 0 
L 18.015625 0 
L 23.09375 20.21875 
L 7.71875 20.21875 
L 7.71875 27.6875 
L 24.90625 27.6875 
L 29 44 
L 13.28125 44 
L 13.28125 51.515625 
L 30.90625 51.515625 
L 35.890625 71.78125 
z
" id="DejaVuSans-35"/>
      <path id="DejaVuSans-32"/>
      <path d="M 37.109375 75.984375 
L 37.109375 68.5 
L 28.515625 68.5 
Q 23.6875 68.5 21.796875 66.546875 
Q 19.921875 64.59375 19.921875 59.515625 
L 19.921875 54.6875 
L 34.71875 54.6875 
L 34.71875 47.703125 
L 19.921875 47.703125 
L 19.921875 0 
L 10.890625 0 
L 10.890625 47.703125 
L 2.296875 47.703125 
L 2.296875 54.6875 
L 10.890625 54.6875 
L 10.890625 58.5 
Q 10.890625 67.625 15.140625 71.796875 
Q 19.390625 75.984375 28.609375 75.984375 
z
" id="DejaVuSans-102"/>
      <path d="M 4.890625 31.390625 
L 31.203125 31.390625 
L 31.203125 23.390625 
L 4.890625 23.390625 
z
" id="DejaVuSans-45"/>
      <path d="M 56.203125 29.59375 
L 56.203125 25.203125 
L 14.890625 25.203125 
Q 15.484375 15.921875 20.484375 11.0625 
Q 25.484375 6.203125 34.421875 6.203125 
Q 39.59375 6.203125 44.453125 7.46875 
Q 49.3125 8.734375 54.109375 11.28125 
L 54.109375 2.78125 
Q 49.265625 0.734375 44.1875 -0.34375 
Q 39.109375 -1.421875 33.890625 -1.421875 
Q 20.796875 -1.421875 13.15625 6.1875 
Q 5.515625 13.8125 5.515625 26.8125 
Q 5.515625 40.234375 12.765625 48.109375 
Q 20.015625 56 32.328125 56 
Q 43.359375 56 49.78125 48.890625 
Q 56.203125 41.796875 56.203125 29.59375 
z
M 47.21875 32.234375 
Q 47.125 39.59375 43.09375 43.984375 
Q 39.0625 48.390625 32.421875 48.390625 
Q 24.90625 48.390625 20.390625 44.140625 
Q 15.875 39.890625 15.1875 32.171875 
z
" id="DejaVuSans-101"/>
      <path d="M 2.984375 54.6875 
L 12.5 54.6875 
L 29.59375 8.796875 
L 46.6875 54.6875 
L 56.203125 54.6875 
L 35.6875 0 
L 23.484375 0 
z
" id="DejaVuSans-118"/>
      <path d="M 34.28125 27.484375 
Q 23.390625 27.484375 19.1875 25 
Q 14.984375 22.515625 14.984375 16.5 
Q 14.984375 11.71875 18.140625 8.90625 
Q 21.296875 6.109375 26.703125 6.109375 
Q 34.1875 6.109375 38.703125 11.40625 
Q 43.21875 16.703125 43.21875 25.484375 
L 43.21875 27.484375 
z
M 52.203125 31.203125 
L 52.203125 0 
L 43.21875 0 
L 43.21875 8.296875 
Q 40.140625 3.328125 35.546875 0.953125 
Q 30.953125 -1.421875 24.3125 -1.421875 
Q 15.921875 -1.421875 10.953125 3.296875 
Q 6 8.015625 6 15.921875 
Q 6 25.140625 12.171875 29.828125 
Q 18.359375 34.515625 30.609375 34.515625 
L 43.21875 34.515625 
L 43.21875 35.40625 
Q 43.21875 41.609375 39.140625 45 
Q 35.0625 48.390625 27.6875 48.390625 
Q 23 48.390625 18.546875 47.265625 
Q 14.109375 46.140625 10.015625 43.890625 
L 10.015625 52.203125 
Q 14.9375 54.109375 19.578125 55.046875 
Q 24.21875 56 28.609375 56 
Q 40.484375 56 46.34375 49.84375 
Q 52.203125 43.703125 52.203125 31.203125 
z
" id="DejaVuSans-97"/>
      <path d="M 44.28125 53.078125 
L 44.28125 44.578125 
Q 40.484375 46.53125 36.375 47.5 
Q 32.28125 48.484375 27.875 48.484375 
Q 21.1875 48.484375 17.84375 46.4375 
Q 14.5 44.390625 14.5 40.28125 
Q 14.5 37.15625 16.890625 35.375 
Q 19.28125 33.59375 26.515625 31.984375 
L 29.59375 31.296875 
Q 39.15625 29.25 43.1875 25.515625 
Q 47.21875 21.78125 47.21875 15.09375 
Q 47.21875 7.46875 41.1875 3.015625 
Q 35.15625 -1.421875 24.609375 -1.421875 
Q 20.21875 -1.421875 15.453125 -0.5625 
Q 10.6875 0.296875 5.421875 2 
L 5.421875 11.28125 
Q 10.40625 8.6875 15.234375 7.390625 
Q 20.0625 6.109375 24.8125 6.109375 
Q 31.15625 6.109375 34.5625 8.28125 
Q 37.984375 10.453125 37.984375 14.40625 
Q 37.984375 18.0625 35.515625 20.015625 
Q 33.0625 21.96875 24.703125 23.78125 
L 21.578125 24.515625 
Q 13.234375 26.265625 9.515625 29.90625 
Q 5.8125 33.546875 5.8125 39.890625 
Q 5.8125 47.609375 11.28125 51.796875 
Q 16.75 56 26.8125 56 
Q 31.78125 56 36.171875 55.265625 
Q 40.578125 54.546875 44.28125 53.078125 
z
" id="DejaVuSans-115"/>
      <path d="M 25.390625 72.90625 
L 33.6875 72.90625 
L 8.296875 -9.28125 
L 0 -9.28125 
z
" id="DejaVuSans-47"/>
      <path d="M 45.40625 46.390625 
L 45.40625 75.984375 
L 54.390625 75.984375 
L 54.390625 0 
L 45.40625 0 
L 45.40625 8.203125 
Q 42.578125 3.328125 38.25 0.953125 
Q 33.9375 -1.421875 27.875 -1.421875 
Q 17.96875 -1.421875 11.734375 6.484375 
Q 5.515625 14.40625 5.515625 27.296875 
Q 5.515625 40.1875 11.734375 48.09375 
Q 17.96875 56 27.875 56 
Q 33.9375 56 38.25 53.625 
Q 42.578125 51.265625 45.40625 46.390625 
z
M 14.796875 27.296875 
Q 14.796875 17.390625 18.875 11.75 
Q 22.953125 6.109375 30.078125 6.109375 
Q 37.203125 6.109375 41.296875 11.75 
Q 45.40625 17.390625 45.40625 27.296875 
Q 45.40625 37.203125 41.296875 42.84375 
Q 37.203125 48.484375 30.078125 48.484375 
Q 22.953125 48.484375 18.875 42.84375 
Q 14.796875 37.203125 14.796875 27.296875 
z
" id="DejaVuSans-100"/>
      <path d="M 9.421875 54.6875 
L 18.40625 54.6875 
L 18.40625 0 
L 9.421875 0 
z
M 9.421875 75.984375 
L 18.40625 75.984375 
L 18.40625 64.59375 
L 9.421875 64.59375 
z
" id="DejaVuSans-105"/>
      <path d="M 52 44.1875 
Q 55.375 50.25 60.0625 53.125 
Q 64.75 56 71.09375 56 
Q 79.640625 56 84.28125 50.015625 
Q 88.921875 44.046875 88.921875 33.015625 
L 88.921875 0 
L 79.890625 0 
L 79.890625 32.71875 
Q 79.890625 40.578125 77.09375 44.375 
Q 74.3125 48.1875 68.609375 48.1875 
Q 61.625 48.1875 57.5625 43.546875 
Q 53.515625 38.921875 53.515625 30.90625 
L 53.515625 0 
L 44.484375 0 
L 44.484375 32.71875 
Q 44.484375 40.625 41.703125 44.40625 
Q 38.921875 48.1875 33.109375 48.1875 
Q 26.21875 48.1875 22.15625 43.53125 
Q 18.109375 38.875 18.109375 30.90625 
L 18.109375 0 
L 9.078125 0 
L 9.078125 54.6875 
L 18.109375 54.6875 
L 18.109375 46.1875 
Q 21.1875 51.21875 25.484375 53.609375 
Q 29.78125 56 35.6875 56 
Q 41.65625 56 45.828125 52.96875 
Q 50 49.953125 52 44.1875 
z
" id="DejaVuSans-109"/>
      <path d="M 54.890625 33.015625 
L 54.890625 0 
L 45.90625 0 
L 45.90625 32.71875 
Q 45.90625 40.484375 42.875 44.328125 
Q 39.84375 48.1875 33.796875 48.1875 
Q 26.515625 48.1875 22.3125 43.546875 
Q 18.109375 38.921875 18.109375 30.90625 
L 18.109375 0 
L 9.078125 0 
L 9.078125 54.6875 
L 18.109375 54.6875 
L 18.109375 46.1875 
Q 21.34375 51.125 25.703125 53.5625 
Q 30.078125 56 35.796875 56 
Q 45.21875 56 50.046875 50.171875 
Q 54.890625 44.34375 54.890625 33.015625 
z
" id="DejaVuSans-110"/>
      <path d="M 8.015625 75.875 
L 15.828125 75.875 
Q 23.140625 64.359375 26.78125 53.3125 
Q 30.421875 42.28125 30.421875 31.390625 
Q 30.421875 20.453125 26.78125 9.375 
Q 23.140625 -1.703125 15.828125 -13.1875 
L 8.015625 -13.1875 
Q 14.5 -2 17.703125 9.0625 
Q 20.90625 20.125 20.90625 31.390625 
Q 20.90625 42.671875 17.703125 53.65625 
Q 14.5 64.65625 8.015625 75.875 
z
" id="DejaVuSans-41"/>
     </defs>
     <g transform="translate(77.303219 342.217594)scale(0.17 -0.17)">
      <use xlink:href="#DejaVuSans-108"/>
      <use x="27.783203" xlink:href="#DejaVuSans-111"/>
      <use x="88.964844" xlink:href="#DejaVuSans-103"/>
      <use x="152.441406" xlink:href="#DejaVuSans-49"/>
      <use x="216.064453" xlink:href="#DejaVuSans-48"/>
      <use x="279.6875" xlink:href="#DejaVuSans-40"/>
      <use x="318.701172" xlink:href="#DejaVuSans-35"/>
      <use x="402.490234" xlink:href="#DejaVuSans-32"/>
      <use x="434.277344" xlink:href="#DejaVuSans-102"/>
      <use x="469.404297" xlink:href="#DejaVuSans-45"/>
      <use x="505.488281" xlink:href="#DejaVuSans-101"/>
      <use x="567.011719" xlink:href="#DejaVuSans-118"/>
      <use x="626.191406" xlink:href="#DejaVuSans-97"/>
      <use x="687.470703" xlink:href="#DejaVuSans-108"/>
      <use x="715.253906" xlink:href="#DejaVuSans-115"/>
      <use x="767.353516" xlink:href="#DejaVuSans-32"/>
      <use x="799.140625" xlink:href="#DejaVuSans-47"/>
      <use x="832.832031" xlink:href="#DejaVuSans-32"/>
      <use x="864.619141" xlink:href="#DejaVuSans-100"/>
      <use x="928.095703" xlink:href="#DejaVuSans-105"/>
      <use x="955.878906" xlink:href="#DejaVuSans-109"/>
      <use x="1053.291016" xlink:href="#DejaVuSans-101"/>
      <use x="1114.814453" xlink:href="#DejaVuSans-110"/>
      <use x="1178.193359" xlink:href="#DejaVuSans-115"/>
      <use x="1230.292969" xlink:href="#DejaVuSans-105"/>
      <use x="1258.076172" xlink:href="#DejaVuSans-111"/>
      <use x="1319.257812" xlink:href="#DejaVuSans-110"/>
      <use x="1382.636719" xlink:href="#DejaVuSans-41"/>
     </g>
    </g>
   </g>
   <g id="matplotlib.axis_2">
    <g id="ytick_1">
     <g id="line2d_17">
      <path clip-path="url(#pbb5b8b7a10)" d="M 57.6 298.944 
L 338.688 298.944 
" style="fill:none;stroke:#b0b0b0;stroke-linecap:square;stroke-width:0.8;"/>
     </g>
     <g id="line2d_18">
      <defs>
       <path d="M 0 0 
L -3.5 0 
" id="mae9ca5684c" style="stroke:#000000;stroke-width:0.8;"/>
      </defs>
      <g>
       <use style="stroke:#000000;stroke-width:0.8;" x="57.6" xlink:href="#mae9ca5684c" y="298.944"/>
      </g>
     </g>
     <g id="text_6">
      <!-- 0.0 -->
      <defs>
       <path d="M 10.6875 12.40625 
L 21 12.40625 
L 21 0 
L 10.6875 0 
z
" id="DejaVuSans-46"/>
      </defs>
      <g transform="translate(25.155 305.02275)scale(0.16 -0.16)">
       <use xlink:href="#DejaVuSans-48"/>
       <use x="63.623047" xlink:href="#DejaVuSans-46"/>
       <use x="95.410156" xlink:href="#DejaVuSans-48"/>
      </g>
     </g>
    </g>
    <g id="ytick_2">
     <g id="line2d_19">
      <path clip-path="url(#pbb5b8b7a10)" d="M 57.6 240.431525 
L 338.688 240.431525 
" style="fill:none;stroke:#b0b0b0;stroke-linecap:square;stroke-width:0.8;"/>
     </g>
     <g id="line2d_20">
      <g>
       <use style="stroke:#000000;stroke-width:0.8;" x="57.6" xlink:href="#mae9ca5684c" y="240.431525"/>
      </g>
     </g>
     <g id="text_7">
      <!-- 0.2 -->
      <g transform="translate(25.155 246.510275)scale(0.16 -0.16)">
       <use xlink:href="#DejaVuSans-48"/>
       <use x="63.623047" xlink:href="#DejaVuSans-46"/>
       <use x="95.410156" xlink:href="#DejaVuSans-50"/>
      </g>
     </g>
    </g>
    <g id="ytick_3">
     <g id="line2d_21">
      <path clip-path="url(#pbb5b8b7a10)" d="M 57.6 181.91905 
L 338.688 181.91905 
" style="fill:none;stroke:#b0b0b0;stroke-linecap:square;stroke-width:0.8;"/>
     </g>
     <g id="line2d_22">
      <g>
       <use style="stroke:#000000;stroke-width:0.8;" x="57.6" xlink:href="#mae9ca5684c" y="181.91905"/>
      </g>
     </g>
     <g id="text_8">
      <!-- 0.4 -->
      <g transform="translate(25.155 187.9978)scale(0.16 -0.16)">
       <use xlink:href="#DejaVuSans-48"/>
       <use x="63.623047" xlink:href="#DejaVuSans-46"/>
       <use x="95.410156" xlink:href="#DejaVuSans-52"/>
      </g>
     </g>
    </g>
    <g id="ytick_4">
     <g id="line2d_23">
      <path clip-path="url(#pbb5b8b7a10)" d="M 57.6 123.406574 
L 338.688 123.406574 
" style="fill:none;stroke:#b0b0b0;stroke-linecap:square;stroke-width:0.8;"/>
     </g>
     <g id="line2d_24">
      <g>
       <use style="stroke:#000000;stroke-width:0.8;" x="57.6" xlink:href="#mae9ca5684c" y="123.406574"/>
      </g>
     </g>
     <g id="text_9">
      <!-- 0.6 -->
      <g transform="translate(25.155 129.485324)scale(0.16 -0.16)">
       <use xlink:href="#DejaVuSans-48"/>
       <use x="63.623047" xlink:href="#DejaVuSans-46"/>
       <use x="95.410156" xlink:href="#DejaVuSans-54"/>
      </g>
     </g>
    </g>
    <g id="ytick_5">
     <g id="line2d_25">
      <path clip-path="url(#pbb5b8b7a10)" d="M 57.6 64.894099 
L 338.688 64.894099 
" style="fill:none;stroke:#b0b0b0;stroke-linecap:square;stroke-width:0.8;"/>
     </g>
     <g id="line2d_26">
      <g>
       <use style="stroke:#000000;stroke-width:0.8;" x="57.6" xlink:href="#mae9ca5684c" y="64.894099"/>
      </g>
     </g>
     <g id="text_10">
      <!-- 0.8 -->
      <defs>
       <path d="M 31.78125 34.625 
Q 24.75 34.625 20.71875 30.859375 
Q 16.703125 27.09375 16.703125 20.515625 
Q 16.703125 13.921875 20.71875 10.15625 
Q 24.75 6.390625 31.78125 6.390625 
Q 38.8125 6.390625 42.859375 10.171875 
Q 46.921875 13.96875 46.921875 20.515625 
Q 46.921875 27.09375 42.890625 30.859375 
Q 38.875 34.625 31.78125 34.625 
z
M 21.921875 38.8125 
Q 15.578125 40.375 12.03125 44.71875 
Q 8.5 49.078125 8.5 55.328125 
Q 8.5 64.0625 14.71875 69.140625 
Q 20.953125 74.21875 31.78125 74.21875 
Q 42.671875 74.21875 48.875 69.140625 
Q 55.078125 64.0625 55.078125 55.328125 
Q 55.078125 49.078125 51.53125 44.71875 
Q 48 40.375 41.703125 38.8125 
Q 48.828125 37.15625 52.796875 32.3125 
Q 56.78125 27.484375 56.78125 20.515625 
Q 56.78125 9.90625 50.3125 4.234375 
Q 43.84375 -1.421875 31.78125 -1.421875 
Q 19.734375 -1.421875 13.25 4.234375 
Q 6.78125 9.90625 6.78125 20.515625 
Q 6.78125 27.484375 10.78125 32.3125 
Q 14.796875 37.15625 21.921875 38.8125 
z
M 18.3125 54.390625 
Q 18.3125 48.734375 21.84375 45.5625 
Q 25.390625 42.390625 31.78125 42.390625 
Q 38.140625 42.390625 41.71875 45.5625 
Q 45.3125 48.734375 45.3125 54.390625 
Q 45.3125 60.0625 41.71875 63.234375 
Q 38.140625 66.40625 31.78125 66.40625 
Q 25.390625 66.40625 21.84375 63.234375 
Q 18.3125 60.0625 18.3125 54.390625 
z
" id="DejaVuSans-56"/>
      </defs>
      <g transform="translate(25.155 70.972849)scale(0.16 -0.16)">
       <use xlink:href="#DejaVuSans-48"/>
       <use x="63.623047" xlink:href="#DejaVuSans-46"/>
       <use x="95.410156" xlink:href="#DejaVuSans-56"/>
      </g>
     </g>
    </g>
    <g id="ytick_6">
     <g id="line2d_27">
      <path clip-path="url(#pbb5b8b7a10)" d="M 57.6 6.381624 
L 338.688 6.381624 
" style="fill:none;stroke:#b0b0b0;stroke-linecap:square;stroke-width:0.8;"/>
     </g>
     <g id="line2d_28">
      <g>
       <use style="stroke:#000000;stroke-width:0.8;" x="57.6" xlink:href="#mae9ca5684c" y="6.381624"/>
      </g>
     </g>
     <g id="text_11">
      <!-- 1.0 -->
      <g transform="translate(25.155 12.460374)scale(0.16 -0.16)">
       <use xlink:href="#DejaVuSans-49"/>
       <use x="63.623047" xlink:href="#DejaVuSans-46"/>
       <use x="95.410156" xlink:href="#DejaVuSans-48"/>
      </g>
     </g>
    </g>
    <g id="text_12">
     <!-- Fraction of function,target pairs -->
     <defs>
      <path d="M 9.8125 72.90625 
L 51.703125 72.90625 
L 51.703125 64.59375 
L 19.671875 64.59375 
L 19.671875 43.109375 
L 48.578125 43.109375 
L 48.578125 34.8125 
L 19.671875 34.8125 
L 19.671875 0 
L 9.8125 0 
z
" id="DejaVuSans-70"/>
      <path d="M 41.109375 46.296875 
Q 39.59375 47.171875 37.8125 47.578125 
Q 36.03125 48 33.890625 48 
Q 26.265625 48 22.1875 43.046875 
Q 18.109375 38.09375 18.109375 28.8125 
L 18.109375 0 
L 9.078125 0 
L 9.078125 54.6875 
L 18.109375 54.6875 
L 18.109375 46.1875 
Q 20.953125 51.171875 25.484375 53.578125 
Q 30.03125 56 36.53125 56 
Q 37.453125 56 38.578125 55.875 
Q 39.703125 55.765625 41.0625 55.515625 
z
" id="DejaVuSans-114"/>
      <path d="M 48.78125 52.59375 
L 48.78125 44.1875 
Q 44.96875 46.296875 41.140625 47.34375 
Q 37.3125 48.390625 33.40625 48.390625 
Q 24.65625 48.390625 19.8125 42.84375 
Q 14.984375 37.3125 14.984375 27.296875 
Q 14.984375 17.28125 19.8125 11.734375 
Q 24.65625 6.203125 33.40625 6.203125 
Q 37.3125 6.203125 41.140625 7.25 
Q 44.96875 8.296875 48.78125 10.40625 
L 48.78125 2.09375 
Q 45.015625 0.34375 40.984375 -0.53125 
Q 36.96875 -1.421875 32.421875 -1.421875 
Q 20.0625 -1.421875 12.78125 6.34375 
Q 5.515625 14.109375 5.515625 27.296875 
Q 5.515625 40.671875 12.859375 48.328125 
Q 20.21875 56 33.015625 56 
Q 37.15625 56 41.109375 55.140625 
Q 45.0625 54.296875 48.78125 52.59375 
z
" id="DejaVuSans-99"/>
      <path d="M 18.3125 70.21875 
L 18.3125 54.6875 
L 36.8125 54.6875 
L 36.8125 47.703125 
L 18.3125 47.703125 
L 18.3125 18.015625 
Q 18.3125 11.328125 20.140625 9.421875 
Q 21.96875 7.515625 27.59375 7.515625 
L 36.8125 7.515625 
L 36.8125 0 
L 27.59375 0 
Q 17.1875 0 13.234375 3.875 
Q 9.28125 7.765625 9.28125 18.015625 
L 9.28125 47.703125 
L 2.6875 47.703125 
L 2.6875 54.6875 
L 9.28125 54.6875 
L 9.28125 70.21875 
z
" id="DejaVuSans-116"/>
      <path d="M 8.5 21.578125 
L 8.5 54.6875 
L 17.484375 54.6875 
L 17.484375 21.921875 
Q 17.484375 14.15625 20.5 10.265625 
Q 23.53125 6.390625 29.59375 6.390625 
Q 36.859375 6.390625 41.078125 11.03125 
Q 45.3125 15.671875 45.3125 23.6875 
L 45.3125 54.6875 
L 54.296875 54.6875 
L 54.296875 0 
L 45.3125 0 
L 45.3125 8.40625 
Q 42.046875 3.421875 37.71875 1 
Q 33.40625 -1.421875 27.6875 -1.421875 
Q 18.265625 -1.421875 13.375 4.4375 
Q 8.5 10.296875 8.5 21.578125 
z
M 31.109375 56 
z
" id="DejaVuSans-117"/>
      <path d="M 11.71875 12.40625 
L 22.015625 12.40625 
L 22.015625 4 
L 14.015625 -11.625 
L 7.71875 -11.625 
L 11.71875 4 
z
" id="DejaVuSans-44"/>
      <path d="M 18.109375 8.203125 
L 18.109375 -20.796875 
L 9.078125 -20.796875 
L 9.078125 54.6875 
L 18.109375 54.6875 
L 18.109375 46.390625 
Q 20.953125 51.265625 25.265625 53.625 
Q 29.59375 56 35.59375 56 
Q 45.5625 56 51.78125 48.09375 
Q 58.015625 40.1875 58.015625 27.296875 
Q 58.015625 14.40625 51.78125 6.484375 
Q 45.5625 -1.421875 35.59375 -1.421875 
Q 29.59375 -1.421875 25.265625 0.953125 
Q 20.953125 3.328125 18.109375 8.203125 
z
M 48.6875 27.296875 
Q 48.6875 37.203125 44.609375 42.84375 
Q 40.53125 48.484375 33.40625 48.484375 
Q 26.265625 48.484375 22.1875 42.84375 
Q 18.109375 37.203125 18.109375 27.296875 
Q 18.109375 17.390625 22.1875 11.75 
Q 26.265625 6.109375 33.40625 6.109375 
Q 40.53125 6.109375 44.609375 11.75 
Q 48.6875 17.390625 48.6875 27.296875 
z
" id="DejaVuSans-112"/>
     </defs>
     <g transform="translate(17.619531 286.339375)rotate(-90)scale(0.17 -0.17)">
      <use xlink:href="#DejaVuSans-70"/>
      <use x="57.410156" xlink:href="#DejaVuSans-114"/>
      <use x="98.523438" xlink:href="#DejaVuSans-97"/>
      <use x="159.802734" xlink:href="#DejaVuSans-99"/>
      <use x="214.783203" xlink:href="#DejaVuSans-116"/>
      <use x="253.992188" xlink:href="#DejaVuSans-105"/>
      <use x="281.775391" xlink:href="#DejaVuSans-111"/>
      <use x="342.957031" xlink:href="#DejaVuSans-110"/>
      <use x="406.335938" xlink:href="#DejaVuSans-32"/>
      <use x="438.123047" xlink:href="#DejaVuSans-111"/>
      <use x="499.304688" xlink:href="#DejaVuSans-102"/>
      <use x="534.509766" xlink:href="#DejaVuSans-32"/>
      <use x="566.296875" xlink:href="#DejaVuSans-102"/>
      <use x="601.501953" xlink:href="#DejaVuSans-117"/>
      <use x="664.880859" xlink:href="#DejaVuSans-110"/>
      <use x="728.259766" xlink:href="#DejaVuSans-99"/>
      <use x="783.240234" xlink:href="#DejaVuSans-116"/>
      <use x="822.449219" xlink:href="#DejaVuSans-105"/>
      <use x="850.232422" xlink:href="#DejaVuSans-111"/>
      <use x="911.414062" xlink:href="#DejaVuSans-110"/>
      <use x="974.792969" xlink:href="#DejaVuSans-44"/>
      <use x="1006.580078" xlink:href="#DejaVuSans-116"/>
      <use x="1045.789062" xlink:href="#DejaVuSans-97"/>
      <use x="1107.068359" xlink:href="#DejaVuSans-114"/>
      <use x="1148.166016" xlink:href="#DejaVuSans-103"/>
      <use x="1211.642578" xlink:href="#DejaVuSans-101"/>
      <use x="1273.166016" xlink:href="#DejaVuSans-116"/>
      <use x="1312.375" xlink:href="#DejaVuSans-32"/>
      <use x="1344.162109" xlink:href="#DejaVuSans-112"/>
      <use x="1407.638672" xlink:href="#DejaVuSans-97"/>
      <use x="1468.917969" xlink:href="#DejaVuSans-105"/>
      <use x="1496.701172" xlink:href="#DejaVuSans-114"/>
      <use x="1537.814453" xlink:href="#DejaVuSans-115"/>
     </g>
    </g>
   </g>
   <g id="line2d_29">
    <defs>
     <path d="M 0 1.5 
C 0.397805 1.5 0.77937 1.341951 1.06066 1.06066 
C 1.341951 0.77937 1.5 0.397805 1.5 0 
C 1.5 -0.397805 1.341951 -0.77937 1.06066 -1.06066 
C 0.77937 -1.341951 0.397805 -1.5 0 -1.5 
C -0.397805 -1.5 -0.77937 -1.341951 -1.06066 -1.06066 
C -1.341951 -0.77937 -1.5 -0.397805 -1.5 0 
C -1.5 0.397805 -1.341951 0.77937 -1.06066 1.06066 
C -0.77937 1.341951 -0.397805 1.5 0 1.5 
z
" id="m869728e6e6" style="stroke:#00bfbf;"/>
    </defs>
    <g>
     <use style="fill:#00bfbf;stroke:#00bfbf;" x="217.608532" xlink:href="#m869728e6e6" y="179.624443"/>
     <use style="fill:#00bfbf;stroke:#00bfbf;" x="217.608532" xlink:href="#m869728e6e6" y="179.624443"/>
    </g>
   </g>
   <g id="line2d_30">
    <path d="M 45.512012 298.944 
L 45.512012 280.816606 
L 57.6 280.816606 
L 57.6 278.177808 
L 64.67102 278.177808 
L 64.67102 272.785482 
L 69.687988 272.785482 
L 69.687988 270.490875 
L 73.579452 270.490875 
L 73.579452 267.507886 
L 76.759008 267.507886 
L 76.759008 264.639627 
L 79.447285 264.639627 
L 79.447285 263.607054 
L 81.775977 263.607054 
L 81.775977 262.34502 
L 83.830028 262.34502 
L 83.830028 261.771369 
L 85.66744 261.771369 
L 85.66744 260.738796 
L 87.329581 260.738796 
L 87.329581 259.820953 
L 88.846997 259.820953 
L 88.846997 259.476762 
L 90.242884 259.476762 
L 90.242884 259.01784 
L 91.535274 259.01784 
L 91.535274 257.985267 
L 92.73846 257.985267 
L 92.73846 257.641076 
L 93.863965 257.641076 
L 93.863965 257.296885 
L 94.921215 257.296885 
L 94.921215 256.723234 
L 95.918017 256.723234 
L 95.918017 256.379043 
L 96.86091 256.379043 
L 96.86091 255.57593 
L 97.755429 255.57593 
L 97.755429 255.231739 
L 98.606294 255.231739 
L 98.606294 255.002278 
L 99.41757 255.002278 
L 99.41757 254.772818 
L 100.192776 254.772818 
L 100.192776 254.199166 
L 100.934985 254.199166 
L 100.934985 253.969705 
L 101.646892 253.969705 
L 101.646892 253.051863 
L 102.330873 253.051863 
L 102.330873 252.937132 
L 103.623262 252.937132 
L 103.623262 252.707672 
L 104.826449 252.707672 
L 104.826449 252.36348 
L 105.398279 252.36348 
L 105.398279 252.24875 
L 105.951954 252.24875 
L 105.951954 251.560368 
L 106.48859 251.560368 
L 106.48859 251.445638 
L 107.514726 251.445638 
L 107.514726 250.986716 
L 108.006005 250.986716 
L 108.006005 250.757256 
L 108.483824 250.757256 
L 108.483824 250.413065 
L 108.948899 250.413065 
L 108.948899 250.183604 
L 109.401893 250.183604 
L 109.401893 249.724683 
L 109.843417 249.724683 
L 109.843417 249.609952 
L 110.274038 249.609952 
L 110.274038 249.380492 
L 110.694282 249.380492 
L 110.694282 249.036301 
L 111.505558 249.036301 
L 111.505558 248.80684 
L 114.751048 248.80684 
L 114.751048 248.347918 
L 115.077025 248.347918 
L 115.077025 248.233188 
L 115.397021 248.233188 
L 115.397021 247.888997 
L 115.711251 247.888997 
L 115.711251 247.544806 
L 116.019919 247.544806 
L 116.019919 245.823851 
L 116.323218 245.823851 
L 116.323218 245.250199 
L 116.621333 245.250199 
L 116.621333 244.102896 
L 117.486268 244.102896 
L 117.486268 243.988165 
L 126.168212 243.988165 
L 126.168212 243.643974 
L 126.338353 243.643974 
L 126.338353 243.529244 
L 126.50685 243.529244 
L 126.50685 243.070323 
L 126.839037 243.070323 
L 126.839037 242.840862 
L 127.165014 242.840862 
L 127.165014 242.726132 
L 127.954256 242.726132 
L 127.954256 242.611401 
L 128.107907 242.611401 
L 128.107907 242.03775 
L 133.352844 242.03775 
L 133.352844 241.923019 
L 133.57787 241.923019 
L 133.57787 241.693559 
L 133.800029 241.693559 
L 133.800029 241.349368 
L 134.019394 241.349368 
L 134.12805 240.775716 
L 134.236034 240.775716 
L 134.343353 240.431525 
L 138.170504 240.431525 
L 138.170504 240.316794 
L 138.341479 240.316794 
L 138.341479 240.087334 
L 139.009092 240.087334 
L 139.009092 239.628412 
L 142.07914 239.628412 
L 142.147664 238.136918 
L 142.283909 238.136918 
L 142.283909 238.022188 
L 142.553247 238.022188 
L 142.619936 237.677997 
L 142.752555 237.677997 
L 142.752555 237.448536 
L 142.884173 237.448536 
L 142.884173 237.219075 
L 143.902815 237.219075 
L 143.964547 236.989614 
L 144.087359 236.989614 
L 144.148442 236.530693 
L 144.510517 236.530693 
L 144.510517 236.415963 
L 145.212864 236.415963 
L 145.270136 235.957041 
L 145.327221 235.957041 
L 145.384119 235.38339 
L 145.440832 235.38339 
L 145.497361 233.203513 
L 145.665858 233.203513 
L 145.665858 233.088783 
L 147.769524 233.088783 
L 147.769524 232.974052 
L 148.354135 232.974052 
L 148.354135 232.28567 
L 150.344189 232.28567 
L 150.429467 231.712019 
L 150.47195 231.712019 
L 150.556607 231.253097 
L 152.168773 231.253097 
L 152.245598 231.023637 
L 152.549559 231.023637 
L 152.549559 230.908906 
L 154.063835 230.908906 
L 154.098334 229.991063 
L 154.371897 229.991063 
L 154.439623 229.761603 
L 155.070227 229.761603 
L 155.135299 229.187951 
L 155.232454 229.187951 
L 155.296925 228.95849 
L 155.361158 228.95849 
L 155.361158 228.84376 
L 155.678822 228.84376 
L 155.773004 227.352266 
L 155.804285 227.352266 
L 155.83551 224.942928 
L 157.243392 224.942928 
L 157.272146 224.713468 
L 157.443681 224.713468 
L 157.472107 224.139816 
L 158.572743 224.139816 
L 158.572743 223.910355 
L 158.732007 223.910355 
L 158.811096 223.566164 
L 161.077205 223.566164 
L 161.12334 222.648321 
L 161.756743 222.648321 
L 161.778945 222.07467 
L 162.173813 222.07467 
L 162.281931 219.550602 
L 163.266752 219.550602 
L 163.266752 219.435872 
L 163.408783 219.435872 
L 163.428979 219.206411 
L 164.333587 219.206411 
L 164.390984 218.86222 
L 166.065276 218.86222 
L 166.065276 217.829647 
L 166.237944 217.829647 
L 166.237944 217.714917 
L 166.578233 217.714917 
L 166.578233 217.485456 
L 166.91201 217.485456 
L 166.978005 215.879231 
L 167.751064 215.879231 
L 167.860992 215.42031 
L 168.476198 215.42031 
L 168.476198 215.305579 
L 168.611679 215.305579 
L 168.611679 215.190849 
L 169.345764 215.190849 
L 169.345764 214.961388 
L 169.939378 214.961388 
L 169.939378 214.731928 
L 170.351349 214.731928 
L 170.446091 214.387737 
L 170.634045 214.387737 
L 170.674059 213.240433 
L 171.379036 213.240433 
L 171.391826 213.010973 
L 171.895887 213.010973 
L 171.970255 212.552051 
L 172.00732 212.552051 
L 172.00732 212.322591 
L 172.613754 212.322591 
L 172.613754 211.9784 
L 173.107351 211.9784 
L 173.107351 211.060557 
L 173.451559 211.060557 
L 173.451559 210.945826 
L 173.688525 210.945826 
L 173.722116 209.454332 
L 174.84832 209.454332 
L 174.84832 209.339602 
L 175.78735 209.339602 
L 175.78735 208.421759 
L 176.296562 208.421759 
L 176.315853 207.274455 
L 176.772554 207.274455 
L 176.772554 207.159725 
L 177.208443 207.159725 
L 177.208443 207.044995 
L 177.740637 207.044995 
L 177.740637 206.930264 
L 178.10983 206.930264 
L 178.10983 205.897691 
L 178.368833 205.897691 
L 178.368833 205.668231 
L 178.556354 205.668231 
L 178.573302 204.865118 
L 179.831174 204.865118 
L 179.831174 204.635658 
L 180.159048 204.635658 
L 180.159048 203.717815 
L 180.389527 203.717815 
L 180.397157 203.488354 
L 180.556629 203.488354 
L 180.571741 202.685242 
L 180.930556 202.685242 
L 180.930556 202.570511 
L 181.992593 202.570511 
L 181.992593 202.22632 
L 182.200205 202.22632 
L 182.207084 201.882129 
L 182.350899 201.882129 
L 182.364534 201.079017 
L 183.059259 201.079017 
L 183.059259 200.964287 
L 183.651569 200.964287 
L 183.651569 200.505365 
L 183.840444 200.505365 
L 183.840444 200.046444 
L 183.97145 200.046444 
L 183.990085 199.013871 
L 184.570125 199.013871 
L 184.570125 198.89914 
L 185.166347 198.89914 
L 185.166347 197.981298 
L 185.339586 197.981298 
L 185.339586 197.751837 
L 185.45413 197.751837 
L 185.476949 197.178185 
L 185.748471 197.178185 
L 185.748471 197.063455 
L 186.560002 197.063455 
L 186.560002 196.604533 
L 186.719997 196.604533 
L 186.719997 196.489803 
L 186.831126 196.489803 
L 186.846944 195.686691 
L 187.850478 195.686691 
L 187.850478 195.227769 
L 187.999109 195.227769 
L 188.107306 194.998309 
L 188.117109 194.998309 
L 188.117109 194.768848 
L 189.052006 194.768848 
L 189.052006 194.195196 
L 189.190781 194.195196 
L 189.301011 193.277354 
L 190.17606 193.277354 
L 190.17606 192.818432 
L 190.396731 192.818432 
L 190.409625 192.359511 
L 190.813084 192.359511 
L 190.813084 192.24478 
L 191.232029 192.24478 
L 191.232029 191.671129 
L 191.451957 191.671129 
L 191.451957 191.441668 
L 192.227692 191.441668 
L 192.227692 190.868016 
L 192.34344 190.868016 
L 192.435488 190.409095 
L 193.169567 190.409095 
L 193.279248 190.064904 
L 193.359245 190.064904 
L 193.366499 189.720713 
L 193.707647 189.720713 
L 193.707647 189.605983 
L 194.063168 189.605983 
L 194.063168 189.147061 
L 194.913204 189.147061 
L 194.913204 188.80287 
L 195.091494 188.80287 
L 195.091494 188.573409 
L 195.248458 188.573409 
L 195.248458 188.458679 
L 195.723725 188.458679 
L 195.723725 188.229218 
L 196.498243 188.229218 
L 196.588915 187.885027 
L 196.65511 187.885027 
L 196.661115 187.426106 
L 197.239821 187.426106 
L 197.239821 187.081915 
L 197.395943 187.081915 
L 197.395943 186.967185 
L 198.101055 186.967185 
L 198.101055 186.852454 
L 198.634591 186.852454 
L 198.714833 186.508263 
L 198.778762 186.508263 
L 198.778762 186.393533 
L 199.292259 186.393533 
L 199.292259 185.934612 
L 199.431116 185.934612 
L 199.431116 185.705151 
L 200.059943 185.705151 
L 200.059943 185.590421 
L 200.537562 185.590421 
L 200.609526 185.246229 
L 200.659724 185.246229 
L 200.666884 184.672578 
L 201.12838 184.672578 
L 201.12838 184.557847 
L 201.248795 184.557847 
L 201.253409 184.098926 
L 201.820849 184.098926 
L 201.820849 183.984196 
L 202.370405 183.984196 
L 202.370405 183.754735 
L 202.789464 183.754735 
L 202.789464 183.525274 
L 203.420143 183.525274 
L 203.420143 183.181083 
L 203.814997 183.181083 
L 203.814997 183.066353 
L 204.306 183.066353 
L 204.410265 182.492701 
L 205.248384 182.492701 
L 205.30334 182.14851 
L 205.701142 182.14851 
L 205.797413 181.91905 
L 206.142443 181.91905 
L 206.236315 181.460128 
L 206.572852 181.460128 
L 206.572852 181.345398 
L 207.403056 181.345398 
L 207.403056 181.001207 
L 207.803792 181.001207 
L 207.803792 180.771746 
L 208.195526 180.771746 
L 208.195526 180.657016 
L 208.578654 180.657016 
L 208.578654 180.542285 
L 210.715876 180.542285 
L 210.715876 180.427555 
L 211.412489 180.427555 
L 211.412489 180.312825 
L 211.69367 180.312825 
L 211.69367 180.198094 
L 214.3357 180.198094 
L 214.3357 180.083364 
L 214.929134 180.083364 
L 214.929134 179.968634 
L 215.134342 179.968634 
L 215.134342 179.853903 
L 216.389146 179.853903 
L 216.389146 179.739173 
L 217.608532 179.739173 
L 217.608532 179.624443 
L 338.688 179.624443 
L 338.688 179.624443 
" style="fill:none;stroke:#00bfbf;stroke-linecap:square;stroke-width:1.5;"/>
   </g>
   <g id="line2d_31">
    <defs>
     <path d="M -6 0 
L 6 0 
M 0 6 
L 0 -6 
" id="ma9ca057fff" style="stroke:#00bfbf;stroke-width:1.5;"/>
    </defs>
    <g>
     <use style="fill-opacity:0;stroke:#00bfbf;stroke-width:1.5;" x="73.579452" xlink:href="#ma9ca057fff" y="267.507886"/>
     <use style="fill-opacity:0;stroke:#00bfbf;stroke-width:1.5;" x="127.954256" xlink:href="#ma9ca057fff" y="242.726132"/>
     <use style="fill-opacity:0;stroke:#00bfbf;stroke-width:1.5;" x="173.107351" xlink:href="#ma9ca057fff" y="211.9784"/>
     <use style="fill-opacity:0;stroke:#00bfbf;stroke-width:1.5;" x="217.608532" xlink:href="#ma9ca057fff" y="179.739173"/>
     <use style="fill-opacity:0;stroke:#00bfbf;stroke-width:1.5;" x="217.608532" xlink:href="#ma9ca057fff" y="179.624443"/>
     <use style="fill-opacity:0;stroke:#00bfbf;stroke-width:1.5;" x="338.688" xlink:href="#ma9ca057fff" y="179.624443"/>
    </g>
   </g>
   <g id="line2d_32">
    <path style="fill:none;stroke:#00bfbf;stroke-linecap:square;stroke-width:1.5;"/>
    <g/>
   </g>
   <g id="line2d_33">
    <path clip-path="url(#pbb5b8b7a10)" d="M 141.80232 239.628412 
" style="fill:none;stroke:#00bfbf;stroke-linecap:square;stroke-width:1.5;"/>
    <defs>
     <path d="M -12 12 
L 12 -12 
M -12 -12 
L 12 12 
" id="m42df85ac39" style="stroke:#00bfbf;"/>
    </defs>
    <g clip-path="url(#pbb5b8b7a10)">
     <use style="fill:#00bfbf;stroke:#00bfbf;" x="141.80232" xlink:href="#m42df85ac39" y="239.628412"/>
    </g>
   </g>
   <g id="line2d_34">
    <defs>
     <path d="M 0 1.5 
C 0.397805 1.5 0.77937 1.341951 1.06066 1.06066 
C 1.341951 0.77937 1.5 0.397805 1.5 0 
C 1.5 -0.397805 1.341951 -0.77937 1.06066 -1.06066 
C 0.77937 -1.341951 0.397805 -1.5 0 -1.5 
C -0.397805 -1.5 -0.77937 -1.341951 -1.06066 -1.06066 
C -1.341951 -0.77937 -1.5 -0.397805 -1.5 0 
C -1.5 0.397805 -1.341951 0.77937 -1.06066 1.06066 
C -0.77937 1.341951 -0.397805 1.5 0 1.5 
z
" id="m26b8d071c0" style="stroke:#008000;"/>
    </defs>
    <g>
     <use style="fill:#008000;stroke:#008000;" x="210.084614" xlink:href="#m26b8d071c0" y="231.253097"/>
     <use style="fill:#008000;stroke:#008000;" x="210.084614" xlink:href="#m26b8d071c0" y="231.253097"/>
    </g>
   </g>
   <g id="line2d_35">
    <path d="M 38.440992 298.944 
L 38.440992 285.405819 
L 50.52898 285.405819 
L 50.52898 282.537561 
L 57.6 282.537561 
L 57.6 281.390257 
L 62.616969 281.390257 
L 62.616969 279.439842 
L 66.508432 279.439842 
L 66.508432 278.521999 
L 69.687988 278.521999 
L 69.687988 277.604156 
L 72.376266 277.604156 
L 72.376266 277.030504 
L 74.704957 277.030504 
L 74.704957 275.53901 
L 76.759008 275.53901 
L 76.759008 274.391706 
L 78.59642 274.391706 
L 78.59642 274.162246 
L 80.258561 274.162246 
L 80.258561 273.932785 
L 81.775977 273.932785 
L 81.775977 273.588594 
L 83.171864 273.588594 
L 83.171864 273.129673 
L 84.464254 273.129673 
L 84.464254 272.0971 
L 85.66744 272.0971 
L 85.66744 270.835066 
L 86.792945 270.835066 
L 86.792945 270.146684 
L 87.850195 270.146684 
L 87.850195 269.687762 
L 88.846997 269.687762 
L 88.846997 269.573032 
L 89.78989 269.573032 
L 89.78989 269.343571 
L 90.684409 269.343571 
L 90.684409 268.540459 
L 91.535274 268.540459 
L 91.535274 268.310998 
L 92.34655 268.310998 
L 92.34655 267.163695 
L 93.863965 267.163695 
L 93.863965 266.704773 
L 94.575872 266.704773 
L 94.575872 266.590043 
L 95.259853 266.590043 
L 95.259853 266.245852 
L 95.918017 266.245852 
L 95.918017 266.131122 
L 97.16421 266.131122 
L 97.16421 265.786931 
L 97.755429 265.786931 
L 97.755429 265.55747 
L 98.32726 265.55747 
L 98.32726 264.754358 
L 98.880934 264.754358 
L 98.880934 264.410167 
L 100.443706 264.410167 
L 100.443706 264.180706 
L 100.934985 264.180706 
L 100.934985 264.065976 
L 101.877879 264.065976 
L 101.877879 263.262863 
L 102.772397 263.262863 
L 102.772397 263.033402 
L 103.203018 263.033402 
L 103.203018 262.918672 
L 104.033617 262.918672 
L 104.033617 262.34502 
L 104.826449 262.34502 
L 104.826449 262.23029 
L 105.209745 262.23029 
L 105.209745 261.886099 
L 105.584798 261.886099 
L 105.584798 261.427178 
L 105.951954 261.427178 
L 105.951954 260.279874 
L 106.311539 260.279874 
L 106.311539 260.165144 
L 106.66386 260.165144 
L 106.66386 259.935683 
L 107.347841 259.935683 
L 107.347841 259.247301 
L 107.680028 259.247301 
L 107.680028 258.558919 
L 108.006005 258.558919 
L 108.006005 257.870537 
L 108.640231 257.870537 
L 108.640231 257.182155 
L 108.948899 257.182155 
L 108.948899 257.067425 
L 109.252198 257.067425 
L 109.252198 256.608503 
L 109.550313 256.608503 
L 109.550313 256.264312 
L 110.694282 256.264312 
L 110.694282 256.149582 
L 119.097192 256.149582 
L 119.097192 256.034851 
L 119.267333 256.034851 
L 119.267333 255.805391 
L 119.602714 255.805391 
L 119.602714 255.4612 
L 119.768017 255.4612 
L 119.768017 255.346469 
L 119.931767 255.346469 
L 119.931767 255.002278 
L 120.093994 255.002278 
L 120.093994 254.887548 
L 120.254726 254.887548 
L 120.254726 254.772818 
L 120.728219 254.772818 
L 120.728219 254.658087 
L 121.036887 254.658087 
L 121.036887 254.428627 
L 126.3947 254.428627 
L 126.3947 254.313896 
L 126.618283 254.313896 
L 126.729009 253.969705 
L 126.839037 253.969705 
L 126.948374 253.510784 
L 127.165014 253.510784 
L 127.165014 253.396054 
L 131.185181 253.396054 
L 131.270459 252.36348 
L 131.523818 252.36348 
L 131.60746 252.019289 
L 131.77355 252.019289 
L 131.77355 251.789829 
L 134.870259 251.789829 
L 134.870259 251.560368 
L 135.00812 251.560368 
L 135.00812 251.330907 
L 135.212889 251.330907 
L 135.212889 250.986716 
L 135.348078 250.986716 
L 135.348078 250.413065 
L 135.681535 250.413065 
L 135.681535 250.068874 
L 138.026733 250.068874 
L 138.026733 249.954143 
L 138.313099 249.954143 
L 138.369812 249.380492 
L 138.482688 249.380492 
L 138.482688 249.265761 
L 141.33096 249.265761 
L 141.33096 249.036301 
L 141.662245 249.036301 
L 141.662245 248.92157 
L 141.895083 248.92157 
L 141.895083 248.80684 
L 142.033307 248.80684 
L 142.07914 248.577379 
L 142.53096 248.577379 
L 142.619936 248.118458 
L 142.796538 248.118458 
L 142.840411 247.430076 
L 143.014805 247.430076 
L 143.101352 247.200615 
L 143.187472 247.200615 
L 143.187472 247.085885 
L 145.327221 247.085885 
L 145.403044 246.856424 
L 145.516164 246.856424 
L 145.516164 246.626963 
L 148.607802 246.626963 
L 148.607802 246.512233 
L 148.733265 246.512233 
L 148.733265 246.282772 
L 150.201126 246.282772 
L 150.258492 246.053312 
L 150.401087 246.053312 
L 150.401087 245.823851 
L 151.581536 245.823851 
L 151.660987 245.36493 
L 153.056874 245.36493 
L 153.056874 245.250199 
L 153.226778 245.250199 
L 153.323128 244.906008 
L 153.442821 244.906008 
L 153.442821 244.332356 
L 153.726778 244.332356 
L 153.820412 244.102896 
L 153.890309 244.102896 
L 153.936752 243.873435 
L 155.146121 243.873435 
L 155.146121 243.758705 
L 157.147202 243.758705 
L 157.147202 243.643974 
L 158.086033 243.643974 
L 158.086033 243.529244 
L 158.267884 243.529244 
L 158.267884 243.299783 
L 159.046236 243.299783 
L 159.080804 243.070323 
L 160.265562 243.070323 
L 160.265562 242.726132 
L 160.521792 242.726132 
L 160.521792 242.496671 
L 160.774311 242.496671 
L 160.774311 242.381941 
L 162.951535 242.381941 
L 162.951535 242.26721 
L 163.669525 242.26721 
L 163.669525 242.15248 
L 164.231078 242.15248 
L 164.243924 241.578828 
L 165.157053 241.578828 
L 165.157053 241.234637 
L 165.35096 241.234637 
L 165.375047 241.005176 
L 168.242927 241.005176 
L 168.242927 240.890446 
L 168.972794 240.890446 
L 168.972794 240.775716 
L 169.089902 240.775716 
L 169.128764 240.546255 
L 170.625141 240.546255 
L 170.625141 240.431525 
L 171.116915 240.431525 
L 171.116915 240.316794 
L 171.485334 240.316794 
L 171.485334 239.857873 
L 171.854434 239.857873 
L 171.854434 239.743143 
L 172.232135 239.743143 
L 172.232135 239.628412 
L 173.493167 239.628412 
L 173.493167 239.513682 
L 173.911252 239.513682 
L 173.911252 239.398952 
L 174.225613 239.398952 
L 174.225613 239.284221 
L 174.753684 239.284221 
L 174.753684 239.169491 
L 174.865789 239.169491 
L 174.865789 238.94003 
L 176.319066 238.94003 
L 176.319066 238.71057 
L 176.593204 238.71057 
L 176.593204 238.595839 
L 177.055116 238.595839 
L 177.055116 238.481109 
L 178.112729 238.481109 
L 178.112729 238.366379 
L 179.038526 238.366379 
L 179.087937 237.792727 
L 180.538982 237.792727 
L 180.538982 237.677997 
L 180.863838 237.677997 
L 180.908345 237.448536 
L 180.987189 237.448536 
L 180.987189 237.333805 
L 181.761327 237.333805 
L 181.761327 237.219075 
L 181.967047 237.219075 
L 181.967047 237.104345 
L 183.573323 237.104345 
L 183.573323 236.760154 
L 183.754654 236.760154 
L 183.758849 236.530693 
L 184.02523 236.530693 
L 184.062365 236.301232 
L 184.99723 236.301232 
L 184.99723 236.071772 
L 185.448421 236.071772 
L 185.448421 235.957041 
L 186.468683 235.957041 
L 186.468683 235.727581 
L 186.732379 235.727581 
L 186.732379 235.61285 
L 187.347395 235.61285 
L 187.347395 235.49812 
L 187.928255 235.49812 
L 187.981011 235.268659 
L 188.503175 235.268659 
L 188.503175 235.039199 
L 188.816663 235.039199 
L 188.816663 234.924468 
L 189.096843 234.924468 
L 189.096843 234.809738 
L 189.575078 234.809738 
L 189.575078 234.695008 
L 189.754435 234.695008 
L 189.754435 234.580277 
L 189.881849 234.580277 
L 189.881849 234.465547 
L 190.885702 234.465547 
L 190.885702 234.236086 
L 191.090741 234.236086 
L 191.090741 234.121356 
L 191.834902 234.121356 
L 191.834902 233.777165 
L 192.62697 233.777165 
L 192.62697 233.662434 
L 195.932606 233.662434 
L 195.932606 233.547704 
L 196.119413 233.547704 
L 196.119413 233.432974 
L 196.448678 233.432974 
L 196.448678 233.318243 
L 196.561763 233.318243 
L 196.561763 233.203513 
L 197.252401 233.203513 
L 197.252401 233.088783 
L 197.477303 233.088783 
L 197.477303 232.974052 
L 197.996625 232.974052 
L 197.996625 232.859322 
L 199.248315 232.859322 
L 199.248315 232.744592 
L 199.402919 232.744592 
L 199.402919 232.629861 
L 201.087279 232.629861 
L 201.087279 232.400401 
L 203.158058 232.400401 
L 203.158058 232.28567 
L 203.612643 232.28567 
L 203.612643 232.17094 
L 203.979548 232.17094 
L 203.979548 232.05621 
L 204.969113 232.05621 
L 204.969113 231.941479 
L 205.308826 231.941479 
L 205.308826 231.826749 
L 205.730317 231.826749 
L 205.730317 231.712019 
L 206.246137 231.712019 
L 206.246137 231.597288 
L 206.431131 231.597288 
L 206.431131 231.482558 
L 208.142247 231.482558 
L 208.142247 231.367828 
L 210.084614 231.367828 
L 210.084614 231.253097 
L 338.688 231.253097 
L 338.688 231.253097 
" style="fill:none;stroke:#008000;stroke-linecap:square;stroke-width:1.5;"/>
   </g>
   <g id="line2d_36">
    <defs>
     <path d="M -0 6 
L 6 -6 
L -6 -6 
z
" id="mbde3d588dc" style="stroke:#008000;stroke-linejoin:miter;stroke-width:1.5;"/>
    </defs>
    <g>
     <use style="fill-opacity:0;stroke:#008000;stroke-linejoin:miter;stroke-width:1.5;" x="110.694282" xlink:href="#mbde3d588dc" y="256.264312"/>
     <use style="fill-opacity:0;stroke:#008000;stroke-linejoin:miter;stroke-width:1.5;" x="171.116915" xlink:href="#mbde3d588dc" y="240.316794"/>
     <use style="fill-opacity:0;stroke:#008000;stroke-linejoin:miter;stroke-width:1.5;" x="210.084614" xlink:href="#mbde3d588dc" y="231.367828"/>
     <use style="fill-opacity:0;stroke:#008000;stroke-linejoin:miter;stroke-width:1.5;" x="210.084614" xlink:href="#mbde3d588dc" y="231.253097"/>
     <use style="fill-opacity:0;stroke:#008000;stroke-linejoin:miter;stroke-width:1.5;" x="210.084614" xlink:href="#mbde3d588dc" y="231.253097"/>
     <use style="fill-opacity:0;stroke:#008000;stroke-linejoin:miter;stroke-width:1.5;" x="338.688" xlink:href="#mbde3d588dc" y="231.253097"/>
    </g>
   </g>
   <g id="line2d_37">
    <path style="fill:none;stroke:#008000;stroke-linecap:square;stroke-width:1.5;"/>
    <g/>
   </g>
   <g id="line2d_38">
    <path clip-path="url(#pbb5b8b7a10)" d="M 140.599134 249.265761 
" style="fill:none;stroke:#008000;stroke-linecap:square;stroke-width:1.5;"/>
    <defs>
     <path d="M -12 12 
L 12 -12 
M -12 -12 
L 12 12 
" id="m0f3c45e7b8" style="stroke:#008000;"/>
    </defs>
    <g clip-path="url(#pbb5b8b7a10)">
     <use style="fill:#008000;stroke:#008000;" x="140.599134" xlink:href="#m0f3c45e7b8" y="249.265761"/>
    </g>
   </g>
   <g id="line2d_39">
    <defs>
     <path d="M 0 1.5 
C 0.397805 1.5 0.77937 1.341951 1.06066 1.06066 
C 1.341951 0.77937 1.5 0.397805 1.5 0 
C 1.5 -0.397805 1.341951 -0.77937 1.06066 -1.06066 
C 0.77937 -1.341951 0.397805 -1.5 0 -1.5 
C -0.397805 -1.5 -0.77937 -1.341951 -1.06066 -1.06066 
C -1.341951 -0.77937 -1.5 -0.397805 -1.5 0 
C -1.5 0.397805 -1.341951 0.77937 -1.06066 1.06066 
C -0.77937 1.341951 -0.397805 1.5 0 1.5 
z
" id="mdaa5cf299f" style="stroke:#0000ff;"/>
    </defs>
    <g>
     <use style="fill:#0000ff;stroke:#0000ff;" x="215.696198" xlink:href="#mdaa5cf299f" y="243.873435"/>
     <use style="fill:#0000ff;stroke:#0000ff;" x="215.696198" xlink:href="#mdaa5cf299f" y="243.873435"/>
    </g>
   </g>
   <g id="line2d_40">
    <path d="M 29.53256 298.944 
L 29.53256 290.568685 
L 41.620548 290.568685 
L 41.620548 289.650842 
L 48.691568 289.650842 
L 48.691568 288.618269 
L 53.708537 288.618269 
L 53.708537 287.012044 
L 57.6 287.012044 
L 57.6 286.782584 
L 60.779557 286.782584 
L 60.779557 286.438393 
L 63.467834 286.438393 
L 63.467834 286.208932 
L 65.796525 286.208932 
L 65.796525 285.291089 
L 67.850577 285.291089 
L 67.850577 284.602707 
L 69.687988 284.602707 
L 69.687988 284.487977 
L 71.35013 284.487977 
L 71.35013 284.373246 
L 72.867545 284.373246 
L 72.867545 283.570134 
L 74.263433 283.570134 
L 74.263433 283.455404 
L 75.555822 283.455404 
L 75.555822 282.881752 
L 76.759008 282.881752 
L 76.759008 281.849179 
L 77.884514 281.849179 
L 77.884514 281.619718 
L 78.941764 281.619718 
L 78.941764 281.046066 
L 79.938565 281.046066 
L 79.938565 280.701875 
L 81.775977 280.701875 
L 81.775977 280.587145 
L 82.626842 280.587145 
L 82.626842 280.128224 
L 83.438118 280.128224 
L 83.438118 279.898763 
L 84.213325 279.898763 
L 84.213325 279.325111 
L 84.955534 279.325111 
L 84.955534 279.210381 
L 86.351421 279.210381 
L 86.351421 279.095651 
L 87.009585 279.095651 
L 87.009585 278.636729 
L 88.846997 278.636729 
L 88.846997 278.521999 
L 89.418828 278.521999 
L 89.418828 278.063077 
L 91.535274 278.063077 
L 91.535274 277.604156 
L 92.504372 277.604156 
L 92.504372 277.374695 
L 93.863965 277.374695 
L 93.863965 277.259965 
L 94.714831 277.259965 
L 94.714831 276.915774 
L 95.125186 276.915774 
L 95.125186 276.801044 
L 95.526106 276.801044 
L 95.526106 276.342122 
L 95.918017 276.342122 
L 95.918017 276.227392 
L 97.403108 276.227392 
L 97.403108 276.112662 
L 98.43941 276.112662 
L 98.43941 275.42428 
L 98.771596 275.42428 
L 98.771596 275.194819 
L 99.097574 275.194819 
L 99.097574 275.080089 
L 99.41757 275.080089 
L 99.41757 274.965358 
L 99.731799 274.965358 
L 99.731799 274.850628 
L 100.040467 274.850628 
L 100.040467 273.932785 
L 100.343767 273.932785 
L 100.343767 273.129673 
L 110.527398 273.129673 
L 110.527398 273.014942 
L 111.185562 273.014942 
L 111.185562 272.785482 
L 117.145424 272.785482 
L 117.145424 272.670751 
L 117.259781 272.670751 
L 117.259781 271.982369 
L 117.709852 271.982369 
L 117.820578 271.293987 
L 117.930605 271.293987 
L 118.039942 270.835066 
L 122.44689 270.835066 
L 122.44689 269.917223 
L 123.029641 269.917223 
L 123.029641 269.458302 
L 126.030894 269.458302 
L 126.030894 268.655189 
L 126.168212 268.655189 
L 126.168212 268.540459 
L 126.372183 268.540459 
L 126.439646 268.081538 
L 126.573795 268.081538 
L 126.640485 267.852077 
L 129.118302 267.852077 
L 129.118302 267.507886 
L 129.290685 267.507886 
L 129.290685 267.393156 
L 129.404667 267.393156 
L 129.404667 267.278425 
L 129.79784 267.278425 
L 129.79784 267.163695 
L 131.790072 267.163695 
L 131.888878 266.360582 
L 132.133473 266.360582 
L 132.133473 266.131122 
L 134.106373 266.131122 
L 134.149701 265.6722 
L 136.266147 265.6722 
L 136.342635 265.098549 
L 136.380754 265.098549 
L 136.380754 264.524897 
L 136.494612 264.524897 
L 136.5324 264.295436 
L 140.042245 264.295436 
L 140.103868 263.951245 
L 140.287441 263.951245 
L 140.287441 263.836515 
L 140.529237 263.836515 
L 140.529237 263.721785 
L 140.944478 263.721785 
L 140.944478 263.607054 
L 141.177393 263.607054 
L 141.177393 263.492324 
L 141.292695 263.492324 
L 141.321401 262.918672 
L 141.46423 262.918672 
L 141.46423 262.803942 
L 142.778958 262.803942 
L 142.778958 262.574481 
L 143.952218 262.574481 
L 144.026061 262.34502 
L 145.189903 262.34502 
L 145.281568 262.11556 
L 146.172658 262.11556 
L 146.280909 261.656638 
L 147.205618 261.656638 
L 147.266916 261.082987 
L 147.449528 261.082987 
L 147.449528 260.968256 
L 148.23877 260.968256 
L 148.334961 260.624065 
L 149.159312 260.624065 
L 149.177602 260.050414 
L 151.850203 260.050414 
L 151.850203 259.935683 
L 152.145659 259.935683 
L 152.145659 259.820953 
L 152.496747 259.820953 
L 152.55709 259.591492 
L 152.632227 259.591492 
L 152.632227 259.476762 
L 153.250915 259.476762 
L 153.250915 259.247301 
L 153.380683 259.247301 
L 153.380683 259.132571 
L 153.959927 259.132571 
L 154.015422 258.90311 
L 155.335493 258.90311 
L 155.335493 258.78838 
L 155.891575 258.78838 
L 155.891575 258.444189 
L 156.586556 258.444189 
L 156.586556 258.329458 
L 157.104709 258.329458 
L 157.1279 258.099998 
L 158.910765 258.099998 
L 158.910765 257.755807 
L 160.268789 257.755807 
L 160.336402 257.296885 
L 161.302112 257.296885 
L 161.302112 257.067425 
L 161.689969 257.067425 
L 161.770068 256.837964 
L 162.165135 256.837964 
L 162.165135 256.723234 
L 163.84384 256.723234 
L 163.84384 256.608503 
L 163.992995 256.608503 
L 163.992995 256.493773 
L 165.360599 256.493773 
L 165.360599 256.379043 
L 165.992243 256.379043 
L 165.992243 256.149582 
L 166.385083 256.149582 
L 166.385083 255.920121 
L 166.682389 255.920121 
L 166.682389 255.805391 
L 167.779397 255.805391 
L 167.779397 255.69066 
L 167.973343 255.69066 
L 167.973343 255.57593 
L 168.620674 255.57593 
L 168.620674 255.4612 
L 169.175285 255.4612 
L 169.227472 255.231739 
L 169.780242 255.231739 
L 169.780242 254.887548 
L 170.02532 254.887548 
L 170.02532 254.084436 
L 170.883296 254.084436 
L 170.935871 253.625514 
L 171.640636 253.625514 
L 171.640636 253.510784 
L 171.910786 253.510784 
L 171.910786 253.396054 
L 172.620905 253.396054 
L 172.620905 253.166593 
L 172.829364 253.166593 
L 172.829364 252.937132 
L 173.791333 252.937132 
L 173.791333 252.707672 
L 174.214017 252.707672 
L 174.214017 252.592941 
L 174.447351 252.592941 
L 174.447351 252.478211 
L 174.825234 252.478211 
L 174.825234 252.36348 
L 175.063018 252.36348 
L 175.063018 252.019289 
L 175.244378 252.019289 
L 175.244378 251.675098 
L 175.9594 251.675098 
L 175.9594 251.560368 
L 176.811953 251.560368 
L 176.811953 251.445638 
L 177.365276 251.445638 
L 177.365276 251.216177 
L 179.25598 251.216177 
L 179.259238 250.871986 
L 179.766435 250.871986 
L 179.766435 250.757256 
L 179.92705 250.757256 
L 179.92705 250.642525 
L 180.663642 250.642525 
L 180.663642 250.413065 
L 180.831127 250.413065 
L 180.831127 250.068874 
L 181.439502 250.068874 
L 181.439502 249.954143 
L 182.24006 249.954143 
L 182.24006 249.839413 
L 182.395855 249.839413 
L 182.395855 249.724683 
L 182.966018 249.724683 
L 182.966018 249.609952 
L 183.941592 249.609952 
L 183.941592 249.265761 
L 184.345286 249.265761 
L 184.357448 249.036301 
L 184.456859 249.036301 
L 184.456859 248.92157 
L 184.815803 248.92157 
L 184.815803 248.80684 
L 185.26011 248.80684 
L 185.26011 248.577379 
L 186.485909 248.577379 
L 186.485909 248.462649 
L 186.932113 248.462649 
L 186.932113 248.347918 
L 187.428462 248.347918 
L 187.428462 248.233188 
L 187.542272 248.233188 
L 187.542272 248.118458 
L 188.622267 248.118458 
L 188.622267 248.003727 
L 189.718115 248.003727 
L 189.718115 247.774267 
L 190.504746 247.774267 
L 190.504746 247.659536 
L 190.674837 247.659536 
L 190.674837 247.430076 
L 190.950244 247.430076 
L 190.950244 247.315345 
L 191.581792 247.315345 
L 191.581792 247.085885 
L 192.066688 247.085885 
L 192.066688 246.971154 
L 192.288748 246.971154 
L 192.288748 246.856424 
L 192.443902 246.856424 
L 192.443902 246.741694 
L 193.201079 246.741694 
L 193.265393 246.512233 
L 193.988442 246.512233 
L 193.988442 246.397503 
L 194.800672 246.397503 
L 194.800672 246.168042 
L 195.463933 246.168042 
L 195.520433 245.938581 
L 196.211661 245.938581 
L 196.211661 245.823851 
L 197.516984 245.823851 
L 197.516984 245.709121 
L 198.086122 245.709121 
L 198.086122 245.59439 
L 199.262803 245.59439 
L 199.262803 245.47966 
L 199.82265 245.47966 
L 199.82265 245.36493 
L 201.217844 245.36493 
L 201.217844 245.250199 
L 201.897948 245.250199 
L 201.897948 245.135469 
L 203.342954 245.135469 
L 203.342954 245.020738 
L 203.787487 245.020738 
L 203.787487 244.906008 
L 204.220969 244.906008 
L 204.220969 244.791278 
L 205.282477 244.791278 
L 205.282477 244.676547 
L 206.61735 244.676547 
L 206.61735 244.447087 
L 206.986584 244.447087 
L 206.986584 244.332356 
L 210.303656 244.332356 
L 210.303656 244.217626 
L 211.471914 244.217626 
L 211.471914 244.102896 
L 214.090123 244.102896 
L 214.090123 243.988165 
L 215.696198 243.988165 
L 215.696198 243.873435 
L 338.688 243.873435 
L 338.688 243.873435 
" style="fill:none;stroke:#0000ff;stroke-linecap:square;stroke-width:1.5;"/>
   </g>
   <g id="line2d_41">
    <defs>
     <path d="M 0 -6 
L -1.347084 -1.854102 
L -5.706339 -1.854102 
L -2.179628 0.708204 
L -3.526712 4.854102 
L -0 2.291796 
L 3.526712 4.854102 
L 2.179628 0.708204 
L 5.706339 -1.854102 
L 1.347084 -1.854102 
z
" id="mb309449467" style="stroke:#0000ff;stroke-linejoin:bevel;stroke-width:1.5;"/>
    </defs>
    <g>
     <use style="fill-opacity:0;stroke:#0000ff;stroke-linejoin:bevel;stroke-width:1.5;" x="65.796525" xlink:href="#mb309449467" y="286.208932"/>
     <use style="fill-opacity:0;stroke:#0000ff;stroke-linejoin:bevel;stroke-width:1.5;" x="147.449528" xlink:href="#mb309449467" y="260.968256"/>
     <use style="fill-opacity:0;stroke:#0000ff;stroke-linejoin:bevel;stroke-width:1.5;" x="215.696198" xlink:href="#mb309449467" y="243.988165"/>
     <use style="fill-opacity:0;stroke:#0000ff;stroke-linejoin:bevel;stroke-width:1.5;" x="215.696198" xlink:href="#mb309449467" y="243.988165"/>
     <use style="fill-opacity:0;stroke:#0000ff;stroke-linejoin:bevel;stroke-width:1.5;" x="215.696198" xlink:href="#mb309449467" y="243.873435"/>
     <use style="fill-opacity:0;stroke:#0000ff;stroke-linejoin:bevel;stroke-width:1.5;" x="338.688" xlink:href="#mb309449467" y="243.873435"/>
    </g>
   </g>
   <g id="line2d_42">
    <path style="fill:none;stroke:#0000ff;stroke-linecap:square;stroke-width:1.5;"/>
    <g/>
   </g>
   <g id="line2d_43">
    <path clip-path="url(#pbb5b8b7a10)" d="M 139.572998 264.295436 
" style="fill:none;stroke:#0000ff;stroke-linecap:square;stroke-width:1.5;"/>
    <defs>
     <path d="M -12 12 
L 12 -12 
M -12 -12 
L 12 12 
" id="ma1c7b64c46" style="stroke:#0000ff;"/>
    </defs>
    <g clip-path="url(#pbb5b8b7a10)">
     <use style="fill:#0000ff;stroke:#0000ff;" x="139.572998" xlink:href="#ma1c7b64c46" y="264.295436"/>
    </g>
   </g>
   <g id="line2d_44">
    <defs>
     <path d="M 0 1.5 
C 0.397805 1.5 0.77937 1.341951 1.06066 1.06066 
C 1.341951 0.77937 1.5 0.397805 1.5 0 
C 1.5 -0.397805 1.341951 -0.77937 1.06066 -1.06066 
C 0.77937 -1.341951 0.397805 -1.5 0 -1.5 
C -0.397805 -1.5 -0.77937 -1.341951 -1.06066 -1.06066 
C -1.341951 -0.77937 -1.5 -0.397805 -1.5 0 
C -1.5 0.397805 -1.341951 0.77937 -1.06066 1.06066 
C -0.77937 1.341951 -0.397805 1.5 0 1.5 
z
" id="mf3c97a3863" style="stroke:#000000;"/>
    </defs>
    <g>
     <use style="stroke:#000000;" x="207.98822" xlink:href="#mf3c97a3863" y="266.819504"/>
     <use style="stroke:#000000;" x="207.98822" xlink:href="#mf3c97a3863" y="266.819504"/>
    </g>
   </g>
   <g id="line2d_45">
    <path d="M 17.444571 298.944 
L 17.444571 291.486528 
L 29.53256 291.486528 
L 29.53256 290.912876 
L 36.60358 290.912876 
L 36.60358 290.453955 
L 41.620548 290.453955 
L 41.620548 290.224494 
L 45.512012 290.224494 
L 45.512012 289.880303 
L 48.691568 289.880303 
L 48.691568 289.421381 
L 51.379845 289.421381 
L 51.379845 289.07719 
L 53.708537 289.07719 
L 53.708537 288.96246 
L 57.6 288.96246 
L 57.6 288.84773 
L 62.175444 288.84773 
L 62.175444 288.388808 
L 64.67102 288.388808 
L 64.67102 288.274078 
L 71.35013 288.274078 
L 71.35013 287.929887 
L 72.125336 287.929887 
L 72.125336 287.815157 
L 73.579452 287.815157 
L 73.579452 287.700426 
L 74.921597 287.700426 
L 74.921597 287.585696 
L 75.555822 287.585696 
L 75.555822 287.470966 
L 77.884514 287.470966 
L 77.884514 287.241505 
L 78.941764 287.241505 
L 78.941764 287.126775 
L 82.206598 287.126775 
L 82.206598 287.012044 
L 83.830028 287.012044 
L 83.830028 286.897314 
L 85.315119 286.897314 
L 85.315119 286.782584 
L 86.683608 286.782584 
L 86.683608 286.553123 
L 87.329581 286.553123 
L 87.329581 286.438393 
L 88.846997 286.438393 
L 88.846997 286.323662 
L 98.100772 286.323662 
L 98.100772 285.63528 
L 98.935347 285.63528 
L 98.935347 285.176359 
L 99.258306 285.176359 
L 99.258306 285.061628 
L 105.171792 285.061628 
L 105.171792 284.946898 
L 105.285403 284.946898 
L 105.285403 284.832168 
L 105.398279 284.832168 
L 105.398279 284.717437 
L 105.732589 284.717437 
L 105.842616 284.487977 
L 106.382575 284.487977 
L 106.382575 284.373246 
L 110.358901 284.373246 
L 110.358901 284.258516 
L 111.023335 284.258516 
L 111.023335 284.143786 
L 114.351658 284.143786 
L 114.351658 284.029055 
L 117.316679 284.029055 
L 117.316679 283.914325 
L 119.948058 283.914325 
L 119.996839 283.340673 
L 120.286695 283.340673 
L 120.286695 283.111213 
L 122.233953 283.111213 
L 122.233953 282.996482 
L 124.062793 282.996482 
L 124.062793 282.881752 
L 125.892487 282.881752 
L 125.961828 282.652291 
L 126.065325 282.652291 
L 126.133984 282.3081 
L 127.642832 282.3081 
L 127.642832 282.19337 
L 130.531948 282.19337 
L 130.61164 281.734448 
L 130.743656 281.734448 
L 130.743656 281.619718 
L 131.864229 281.619718 
L 131.888878 280.816606 
L 133.0559 280.816606 
L 133.0559 280.701875 
L 134.062938 280.701875 
L 134.106373 280.357684 
L 134.257551 280.357684 
L 134.257551 280.128224 
L 136.266147 280.128224 
L 136.266147 279.784033 
L 137.963097 279.784033 
L 137.963097 279.669302 
L 138.084384 279.669302 
L 138.084384 279.554572 
L 138.89409 279.554572 
L 138.89409 279.439842 
L 139.509467 279.439842 
L 139.509467 279.325111 
L 139.652088 279.325111 
L 139.652088 279.095651 
L 140.378508 279.095651 
L 140.454035 278.063077 
L 141.996555 278.063077 
L 141.996555 277.948347 
L 142.539878 277.948347 
L 142.539878 277.833617 
L 143.234658 277.833617 
L 143.234658 277.718886 
L 143.86567 277.718886 
L 143.87806 277.030504 
L 144.474645 277.030504 
L 144.474645 276.915774 
L 145.005114 276.915774 
L 145.005114 276.801044 
L 145.632289 276.801044 
L 145.632289 276.686313 
L 146.161795 276.686313 
L 146.161795 276.456853 
L 147.246507 276.456853 
L 147.246507 276.227392 
L 147.739772 276.227392 
L 147.749695 275.768471 
L 148.676918 275.768471 
L 148.676918 275.53901 
L 149.646525 275.53901 
L 149.646525 275.194819 
L 150.454969 275.194819 
L 150.454969 275.080089 
L 151.080698 275.080089 
L 151.080698 274.965358 
L 151.227591 274.965358 
L 151.227591 274.850628 
L 151.676833 274.850628 
L 151.771612 274.276976 
L 153.587744 274.276976 
L 153.587744 274.047515 
L 154.634552 274.047515 
L 154.634552 273.932785 
L 155.584129 273.932785 
L 155.603109 273.473864 
L 156.502685 273.473864 
L 156.502685 273.359133 
L 157.658565 273.359133 
L 157.658565 273.244403 
L 158.249784 273.244403 
L 158.249784 273.014942 
L 158.476481 273.014942 
L 158.503274 272.785482 
L 158.774233 272.785482 
L 158.779504 272.556021 
L 159.308951 272.556021 
L 159.308951 272.441291 
L 159.792986 272.441291 
L 159.792986 272.0971 
L 160.039866 272.0971 
L 160.039866 271.982369 
L 161.88512 271.982369 
L 161.88512 271.867639 
L 162.770815 271.867639 
L 162.770815 271.752909 
L 163.356164 271.752909 
L 163.356164 271.638178 
L 163.585711 271.638178 
L 163.585711 271.523448 
L 165.46508 271.523448 
L 165.46508 271.408718 
L 165.654426 271.408718 
L 165.654426 271.293987 
L 165.992243 271.293987 
L 165.992243 271.179257 
L 166.695783 271.179257 
L 166.695783 270.949796 
L 166.902089 270.949796 
L 166.902089 270.835066 
L 167.181018 270.835066 
L 167.181018 270.720335 
L 167.653117 270.720335 
L 167.653117 270.605605 
L 167.976454 270.605605 
L 167.976454 270.376144 
L 170.174022 270.376144 
L 170.174022 270.261414 
L 172.749118 270.261414 
L 172.749118 270.146684 
L 172.937347 270.146684 
L 172.937347 270.031953 
L 173.070232 270.031953 
L 173.070232 269.917223 
L 173.305527 269.917223 
L 173.305527 269.802493 
L 173.524119 269.802493 
L 173.524119 269.687762 
L 174.927837 269.687762 
L 174.927837 269.573032 
L 176.4369 269.573032 
L 176.4369 269.458302 
L 179.008261 269.458302 
L 179.008261 269.343571 
L 179.972447 269.343571 
L 179.972447 269.228841 
L 180.669651 269.228841 
L 180.740107 268.99938 
L 182.031535 268.99938 
L 182.041257 268.76992 
L 183.637637 268.76992 
L 183.637637 268.655189 
L 184.919707 268.655189 
L 184.919707 268.540459 
L 185.713637 268.540459 
L 185.713637 268.425729 
L 186.05448 268.425729 
L 186.05448 268.310998 
L 187.06482 268.310998 
L 187.06482 268.196268 
L 190.97189 268.196268 
L 190.97189 268.081538 
L 191.099554 268.081538 
L 191.099554 267.966807 
L 194.15214 267.966807 
L 194.15214 267.852077 
L 194.86535 267.852077 
L 194.86535 267.737347 
L 195.555013 267.737347 
L 195.594632 267.507886 
L 199.71463 267.507886 
L 199.71463 267.393156 
L 200.742119 267.393156 
L 200.742119 267.278425 
L 202.089877 267.278425 
L 202.089877 267.163695 
L 202.634561 267.163695 
L 202.634561 267.048964 
L 206.618707 267.048964 
L 206.618707 266.934234 
L 207.98822 266.934234 
L 207.98822 266.819504 
L 338.688 266.819504 
L 338.688 266.819504 
" style="fill:none;stroke:#000000;stroke-linecap:square;stroke-width:1.5;"/>
   </g>
   <g id="line2d_46">
    <defs>
     <path d="M 0 6 
C 1.591219 6 3.117479 5.367802 4.242641 4.242641 
C 5.367802 3.117479 6 1.591219 6 0 
C 6 -1.591219 5.367802 -3.117479 4.242641 -4.242641 
C 3.117479 -5.367802 1.591219 -6 0 -6 
C -1.591219 -6 -3.117479 -5.367802 -4.242641 -4.242641 
C -5.367802 -3.117479 -6 -1.591219 -6 0 
C -6 1.591219 -5.367802 3.117479 -4.242641 4.242641 
C -3.117479 5.367802 -1.591219 6 0 6 
z
" id="m9b9a3ede73" style="stroke:#000000;stroke-width:1.5;"/>
    </defs>
    <g>
     <use style="fill-opacity:0;stroke:#000000;stroke-width:1.5;" x="117.316679" xlink:href="#m9b9a3ede73" y="283.914325"/>
     <use style="fill-opacity:0;stroke:#000000;stroke-width:1.5;" x="187.06482" xlink:href="#m9b9a3ede73" y="268.310998"/>
     <use style="fill-opacity:0;stroke:#000000;stroke-width:1.5;" x="207.98822" xlink:href="#m9b9a3ede73" y="266.934234"/>
     <use style="fill-opacity:0;stroke:#000000;stroke-width:1.5;" x="207.98822" xlink:href="#m9b9a3ede73" y="266.819504"/>
     <use style="fill-opacity:0;stroke:#000000;stroke-width:1.5;" x="338.688" xlink:href="#m9b9a3ede73" y="266.819504"/>
    </g>
   </g>
   <g id="line2d_47">
    <path style="fill:none;stroke:#000000;stroke-linecap:square;stroke-width:1.5;"/>
    <g/>
   </g>
   <g id="line2d_48">
    <path clip-path="url(#pbb5b8b7a10)" d="M 138.761723 279.554572 
" style="fill:none;stroke:#000000;stroke-linecap:square;stroke-width:1.5;"/>
    <defs>
     <path d="M -12 12 
L 12 -12 
M -12 -12 
L 12 12 
" id="m94f9982ec0" style="stroke:#000000;"/>
    </defs>
    <g clip-path="url(#pbb5b8b7a10)">
     <use style="stroke:#000000;" x="138.761723" xlink:href="#m94f9982ec0" y="279.554572"/>
    </g>
   </g>
   <g id="line2d_49">
    <defs>
     <path d="M 0 1.5 
C 0.397805 1.5 0.77937 1.341951 1.06066 1.06066 
C 1.341951 0.77937 1.5 0.397805 1.5 0 
C 1.5 -0.397805 1.341951 -0.77937 1.06066 -1.06066 
C 0.77937 -1.341951 0.397805 -1.5 0 -1.5 
C -0.397805 -1.5 -0.77937 -1.341951 -1.06066 -1.06066 
C -1.341951 -0.77937 -1.5 -0.397805 -1.5 0 
C -1.5 0.397805 -1.341951 0.77937 -1.06066 1.06066 
C -0.77937 1.341951 -0.397805 1.5 0 1.5 
z
" id="me48a44b4c0" style="stroke:#ff0000;"/>
    </defs>
    <g>
     <use style="fill:#ff0000;stroke:#ff0000;" x="174.667011" xlink:href="#me48a44b4c0" y="286.323662"/>
     <use style="fill:#ff0000;stroke:#ff0000;" x="174.667011" xlink:href="#me48a44b4c0" y="286.323662"/>
    </g>
   </g>
   <g id="line2d_50">
    <path d="M 5.356583 298.944 
L 5.356583 291.371797 
L 17.444571 291.371797 
L 17.444571 290.568685 
L 24.515591 290.568685 
L 24.515591 290.224494 
L 29.53256 290.224494 
L 29.53256 289.995033 
L 36.60358 289.995033 
L 36.60358 289.880303 
L 47.174153 289.880303 
L 47.174153 289.650842 
L 51.379845 289.650842 
L 51.379845 289.536112 
L 52.583031 289.536112 
L 52.583031 289.421381 
L 53.708537 289.421381 
L 53.708537 289.306651 
L 56.705482 289.306651 
L 56.705482 289.191921 
L 62.175444 289.191921 
L 62.175444 289.07719 
L 67.359297 289.07719 
L 67.359297 288.96246 
L 69.687988 288.96246 
L 69.687988 288.84773 
L 76.16779 288.84773 
L 76.16779 288.732999 
L 86.182924 288.732999 
L 86.182924 288.618269 
L 94.080605 288.618269 
L 94.080605 288.503539 
L 97.928955 288.503539 
L 97.928955 288.388808 
L 105.285403 288.388808 
L 105.285403 288.274078 
L 107.957496 288.274078 
L 107.957496 288.159348 
L 122.169562 288.159348 
L 122.169562 288.044617 
L 126.773103 288.044617 
L 126.773103 287.929887 
L 128.381113 287.929887 
L 128.381113 287.815157 
L 134.138879 287.815157 
L 134.138879 287.700426 
L 135.209496 287.700426 
L 135.209496 287.585696 
L 136.150782 287.585696 
L 136.150782 287.470966 
L 140.782525 287.470966 
L 140.782525 287.356235 
L 141.89277 287.356235 
L 141.89277 287.126775 
L 147.71991 287.126775 
L 147.71991 287.012044 
L 150.67444 287.012044 
L 150.67444 286.897314 
L 151.692666 286.897314 
L 151.692666 286.782584 
L 156.517691 286.782584 
L 156.517691 286.667853 
L 159.775573 286.667853 
L 159.775573 286.553123 
L 164.630012 286.553123 
L 164.630012 286.438393 
L 174.667011 286.438393 
L 174.667011 286.323662 
L 338.688 286.323662 
" style="fill:none;stroke:#ff0000;stroke-linecap:square;stroke-width:1.5;"/>
   </g>
   <g id="line2d_51">
    <defs>
     <path d="M -6 6 
L 6 6 
L 6 -6 
L -6 -6 
z
" id="m26238192a2" style="stroke:#ff0000;stroke-linejoin:miter;stroke-width:1.5;"/>
    </defs>
    <g>
     <use style="fill-opacity:0;stroke:#ff0000;stroke-linejoin:miter;stroke-width:1.5;" x="128.381113" xlink:href="#m26238192a2" y="287.929887"/>
     <use style="fill-opacity:0;stroke:#ff0000;stroke-linejoin:miter;stroke-width:1.5;" x="174.667011" xlink:href="#m26238192a2" y="286.438393"/>
     <use style="fill-opacity:0;stroke:#ff0000;stroke-linejoin:miter;stroke-width:1.5;" x="174.667011" xlink:href="#m26238192a2" y="286.323662"/>
     <use style="fill-opacity:0;stroke:#ff0000;stroke-linejoin:miter;stroke-width:1.5;" x="174.667011" xlink:href="#m26238192a2" y="286.323662"/>
     <use style="fill-opacity:0;stroke:#ff0000;stroke-linejoin:miter;stroke-width:1.5;" x="338.688" xlink:href="#m26238192a2" y="286.323662"/>
    </g>
   </g>
   <g id="line2d_52">
    <path style="fill:none;stroke:#ff0000;stroke-linecap:square;stroke-width:1.5;"/>
    <g/>
   </g>
   <g id="line2d_53">
    <path clip-path="url(#pbb5b8b7a10)" d="M 138.341479 287.470966 
" style="fill:none;stroke:#ff0000;stroke-linecap:square;stroke-width:1.5;"/>
    <defs>
     <path d="M -12 12 
L 12 -12 
M -12 -12 
L 12 12 
" id="m8238c2be6d" style="stroke:#ff0000;"/>
    </defs>
    <g clip-path="url(#pbb5b8b7a10)">
     <use style="fill:#ff0000;stroke:#ff0000;" x="138.341479" xlink:href="#m8238c2be6d" y="287.470966"/>
    </g>
   </g>
   <g id="line2d_54">
    <defs>
     <path d="M 0 1.5 
C 0.397805 1.5 0.77937 1.341951 1.06066 1.06066 
C 1.341951 0.77937 1.5 0.397805 1.5 0 
C 1.5 -0.397805 1.341951 -0.77937 1.06066 -1.06066 
C 0.77937 -1.341951 0.397805 -1.5 0 -1.5 
C -0.397805 -1.5 -0.77937 -1.341951 -1.06066 -1.06066 
C -1.341951 -0.77937 -1.5 -0.397805 -1.5 0 
C -1.5 0.397805 -1.341951 0.77937 -1.06066 1.06066 
C -0.77937 1.341951 -0.397805 1.5 0 1.5 
z
" id="m1054e65189" style="stroke:#bf00bf;"/>
    </defs>
    <g>
     <use style="fill:#bf00bf;stroke:#bf00bf;" x="136.361705" xlink:href="#m1054e65189" y="288.618269"/>
     <use style="fill:#bf00bf;stroke:#bf00bf;" x="136.361705" xlink:href="#m1054e65189" y="288.618269"/>
    </g>
   </g>
   <g id="line2d_55">
    <path d="M -1 290.683415 
L 5.356583 290.683415 
L 5.356583 290.339224 
L 12.427603 290.339224 
L 12.427603 290.224494 
L 24.515591 290.224494 
L 24.515591 290.109764 
L 31.586611 290.109764 
L 31.586611 289.995033 
L 33.424023 289.995033 
L 33.424023 289.880303 
L 42.677798 289.880303 
L 42.677798 289.765573 
L 92.854336 289.765573 
L 92.854336 289.650842 
L 112.013345 289.650842 
L 112.013345 289.536112 
L 113.891132 289.536112 
L 113.891132 289.421381 
L 113.977337 289.421381 
L 113.977337 289.306651 
L 116.98695 289.306651 
L 116.98695 289.191921 
L 119.65247 289.191921 
L 119.65247 289.07719 
L 120.298669 289.07719 
L 120.298669 288.96246 
L 123.613353 288.96246 
L 123.613353 288.84773 
L 134.321942 288.84773 
L 134.321942 288.732999 
L 136.361705 288.732999 
L 136.361705 288.618269 
L 338.688 288.618269 
" style="fill:none;stroke:#bf00bf;stroke-linecap:square;stroke-width:1.5;"/>
   </g>
   <g id="line2d_56">
    <defs>
     <path d="M -0 8.485281 
L 8.485281 0 
L 0 -8.485281 
L -8.485281 -0 
z
" id="m2ab74f0e94" style="stroke:#bf00bf;stroke-linejoin:miter;stroke-width:1.5;"/>
    </defs>
    <g>
     <use style="fill-opacity:0;stroke:#bf00bf;stroke-linejoin:miter;stroke-width:1.5;" x="123.613353" xlink:href="#m2ab74f0e94" y="288.84773"/>
     <use style="fill-opacity:0;stroke:#bf00bf;stroke-linejoin:miter;stroke-width:1.5;" x="136.361705" xlink:href="#m2ab74f0e94" y="288.732999"/>
     <use style="fill-opacity:0;stroke:#bf00bf;stroke-linejoin:miter;stroke-width:1.5;" x="136.361705" xlink:href="#m2ab74f0e94" y="288.618269"/>
     <use style="fill-opacity:0;stroke:#bf00bf;stroke-linejoin:miter;stroke-width:1.5;" x="136.361705" xlink:href="#m2ab74f0e94" y="288.618269"/>
     <use style="fill-opacity:0;stroke:#bf00bf;stroke-linejoin:miter;stroke-width:1.5;" x="338.688" xlink:href="#m2ab74f0e94" y="288.618269"/>
    </g>
   </g>
   <g id="line2d_57">
    <path style="fill:none;stroke:#bf00bf;stroke-linecap:square;stroke-width:1.5;"/>
    <g/>
   </g>
   <g id="line2d_58">
    <path clip-path="url(#pbb5b8b7a10)" d="M 138.127497 288.618269 
" style="fill:none;stroke:#bf00bf;stroke-linecap:square;stroke-width:1.5;"/>
    <defs>
     <path d="M -12 12 
L 12 -12 
M -12 -12 
L 12 12 
" id="m19fdf04f62" style="stroke:#bf00bf;"/>
    </defs>
    <g clip-path="url(#pbb5b8b7a10)">
     <use style="fill:#bf00bf;stroke:#bf00bf;" x="138.127497" xlink:href="#m19fdf04f62" y="288.618269"/>
    </g>
   </g>
   <g id="line2d_59">
    <path d="M 338.688 288.618269 
L 369.60768 293.092752 
" style="fill:none;stroke:#bf00bf;stroke-linecap:square;stroke-width:1.5;"/>
    <g>
     <use style="fill-opacity:0;stroke:#bf00bf;stroke-linejoin:miter;stroke-width:1.5;" x="338.688" xlink:href="#m2ab74f0e94" y="288.618269"/>
     <use style="fill-opacity:0;stroke:#bf00bf;stroke-linejoin:miter;stroke-width:1.5;" x="369.60768" xlink:href="#m2ab74f0e94" y="293.092752"/>
    </g>
   </g>
   <g id="line2d_60">
    <path d="M 338.688 286.323662 
L 369.60768 236.920776 
" style="fill:none;stroke:#ff0000;stroke-linecap:square;stroke-width:1.5;"/>
    <g>
     <use style="fill-opacity:0;stroke:#ff0000;stroke-linejoin:miter;stroke-width:1.5;" x="338.688" xlink:href="#m26238192a2" y="286.323662"/>
     <use style="fill-opacity:0;stroke:#ff0000;stroke-linejoin:miter;stroke-width:1.5;" x="369.60768" xlink:href="#m26238192a2" y="236.920776"/>
    </g>
   </g>
   <g id="line2d_61">
    <path d="M 338.688 266.819504 
L 369.60768 180.7488 
" style="fill:none;stroke:#000000;stroke-linecap:square;stroke-width:1.5;"/>
    <g>
     <use style="fill-opacity:0;stroke:#000000;stroke-width:1.5;" x="338.688" xlink:href="#m9b9a3ede73" y="266.819504"/>
     <use style="fill-opacity:0;stroke:#000000;stroke-width:1.5;" x="369.60768" xlink:href="#m9b9a3ede73" y="180.7488"/>
    </g>
   </g>
   <g id="line2d_62">
    <path d="M 338.688 243.873435 
L 369.60768 124.576824 
" style="fill:none;stroke:#0000ff;stroke-linecap:square;stroke-width:1.5;"/>
    <g>
     <use style="fill-opacity:0;stroke:#0000ff;stroke-linejoin:bevel;stroke-width:1.5;" x="338.688" xlink:href="#mb309449467" y="243.873435"/>
     <use style="fill-opacity:0;stroke:#0000ff;stroke-linejoin:bevel;stroke-width:1.5;" x="369.60768" xlink:href="#mb309449467" y="124.576824"/>
    </g>
   </g>
   <g id="line2d_63">
    <path d="M 338.688 231.253097 
L 369.60768 68.404848 
" style="fill:none;stroke:#008000;stroke-linecap:square;stroke-width:1.5;"/>
    <g>
     <use style="fill-opacity:0;stroke:#008000;stroke-linejoin:miter;stroke-width:1.5;" x="338.688" xlink:href="#mbde3d588dc" y="231.253097"/>
     <use style="fill-opacity:0;stroke:#008000;stroke-linejoin:miter;stroke-width:1.5;" x="369.60768" xlink:href="#mbde3d588dc" y="68.404848"/>
    </g>
   </g>
   <g id="line2d_64">
    <path d="M 338.688 179.624443 
L 369.60768 12.232871 
" style="fill:none;stroke:#00bfbf;stroke-linecap:square;stroke-width:1.5;"/>
    <g>
     <use style="fill-opacity:0;stroke:#00bfbf;stroke-width:1.5;" x="338.688" xlink:href="#ma9ca057fff" y="179.624443"/>
     <use style="fill-opacity:0;stroke:#00bfbf;stroke-width:1.5;" x="369.60768" xlink:href="#ma9ca057fff" y="12.232871"/>
    </g>
   </g>
   <g id="line2d_65">
    <path d="M 338.688 298.944 
L 338.688 6.381624 
" style="fill:none;stroke:#000000;stroke-linecap:square;stroke-width:1.5;"/>
   </g>
   <g id="patch_3">
    <path d="M 57.6 298.944 
L 57.6 3.456 
" style="fill:none;stroke:#000000;stroke-linecap:square;stroke-linejoin:miter;stroke-width:0.8;"/>
   </g>
   <g id="patch_4">
    <path d="M 338.688 298.944 
L 338.688 3.456 
" style="fill:none;stroke:#000000;stroke-linecap:square;stroke-linejoin:miter;stroke-width:0.8;"/>
   </g>
   <g id="patch_5">
    <path d="M 57.6 298.944 
L 338.688 298.944 
" style="fill:none;stroke:#000000;stroke-linecap:square;stroke-linejoin:miter;stroke-width:0.8;"/>
   </g>
   <g id="patch_6">
    <path d="M 57.6 3.456 
L 338.688 3.456 
" style="fill:none;stroke:#000000;stroke-linecap:square;stroke-linejoin:miter;stroke-width:0.8;"/>
   </g>
   <g id="text_13">
    <!-- 40-D -->
    <defs>
     <path d="M 19.671875 64.796875 
L 19.671875 8.109375 
L 31.59375 8.109375 
Q 46.6875 8.109375 53.6875 14.9375 
Q 60.6875 21.78125 60.6875 36.53125 
Q 60.6875 51.171875 53.6875 57.984375 
Q 46.6875 64.796875 31.59375 64.796875 
z
M 9.8125 72.90625 
L 30.078125 72.90625 
Q 51.265625 72.90625 61.171875 64.09375 
Q 71.09375 55.28125 71.09375 36.53125 
Q 71.09375 17.671875 61.125 8.828125 
Q 51.171875 0 30.078125 0 
L 9.8125 0 
z
" id="DejaVuSans-68"/>
    </defs>
    <g transform="translate(375.22944 297.78369)scale(0.17 -0.17)">
     <use xlink:href="#DejaVuSans-52"/>
     <use x="63.623047" xlink:href="#DejaVuSans-48"/>
     <use x="127.246094" xlink:href="#DejaVuSans-45"/>
     <use x="163.330078" xlink:href="#DejaVuSans-68"/>
    </g>
   </g>
   <g id="text_14">
    <!-- 20-D -->
    <g transform="translate(375.22944 241.611714)scale(0.17 -0.17)">
     <use xlink:href="#DejaVuSans-50"/>
     <use x="63.623047" xlink:href="#DejaVuSans-48"/>
     <use x="127.246094" xlink:href="#DejaVuSans-45"/>
     <use x="163.330078" xlink:href="#DejaVuSans-68"/>
    </g>
   </g>
   <g id="text_15">
    <!-- 10-D -->
    <g transform="translate(375.22944 185.439737)scale(0.17 -0.17)">
     <use xlink:href="#DejaVuSans-49"/>
     <use x="63.623047" xlink:href="#DejaVuSans-48"/>
     <use x="127.246094" xlink:href="#DejaVuSans-45"/>
     <use x="163.330078" xlink:href="#DejaVuSans-68"/>
    </g>
   </g>
   <g id="text_16">
    <!-- 5-D -->
    <defs>
     <path d="M 10.796875 72.90625 
L 49.515625 72.90625 
L 49.515625 64.59375 
L 19.828125 64.59375 
L 19.828125 46.734375 
Q 21.96875 47.46875 24.109375 47.828125 
Q 26.265625 48.1875 28.421875 48.1875 
Q 40.625 48.1875 47.75 41.5 
Q 54.890625 34.8125 54.890625 23.390625 
Q 54.890625 11.625 47.5625 5.09375 
Q 40.234375 -1.421875 26.90625 -1.421875 
Q 22.3125 -1.421875 17.546875 -0.640625 
Q 12.796875 0.140625 7.71875 1.703125 
L 7.71875 11.625 
Q 12.109375 9.234375 16.796875 8.0625 
Q 21.484375 6.890625 26.703125 6.890625 
Q 35.15625 6.890625 40.078125 11.328125 
Q 45.015625 15.765625 45.015625 23.390625 
Q 45.015625 31 40.078125 35.4375 
Q 35.15625 39.890625 26.703125 39.890625 
Q 22.75 39.890625 18.8125 39.015625 
Q 14.890625 38.140625 10.796875 36.28125 
z
" id="DejaVuSans-53"/>
    </defs>
    <g transform="translate(375.22944 129.267761)scale(0.17 -0.17)">
     <use xlink:href="#DejaVuSans-53"/>
     <use x="63.623047" xlink:href="#DejaVuSans-45"/>
     <use x="99.707031" xlink:href="#DejaVuSans-68"/>
    </g>
   </g>
   <g id="text_17">
    <!-- 3-D -->
    <defs>
     <path d="M 40.578125 39.3125 
Q 47.65625 37.796875 51.625 33 
Q 55.609375 28.21875 55.609375 21.1875 
Q 55.609375 10.40625 48.1875 4.484375 
Q 40.765625 -1.421875 27.09375 -1.421875 
Q 22.515625 -1.421875 17.65625 -0.515625 
Q 12.796875 0.390625 7.625 2.203125 
L 7.625 11.71875 
Q 11.71875 9.328125 16.59375 8.109375 
Q 21.484375 6.890625 26.8125 6.890625 
Q 36.078125 6.890625 40.9375 10.546875 
Q 45.796875 14.203125 45.796875 21.1875 
Q 45.796875 27.640625 41.28125 31.265625 
Q 36.765625 34.90625 28.71875 34.90625 
L 20.21875 34.90625 
L 20.21875 43.015625 
L 29.109375 43.015625 
Q 36.375 43.015625 40.234375 45.921875 
Q 44.09375 48.828125 44.09375 54.296875 
Q 44.09375 59.90625 40.109375 62.90625 
Q 36.140625 65.921875 28.71875 65.921875 
Q 24.65625 65.921875 20.015625 65.03125 
Q 15.375 64.15625 9.8125 62.3125 
L 9.8125 71.09375 
Q 15.4375 72.65625 20.34375 73.4375 
Q 25.25 74.21875 29.59375 74.21875 
Q 40.828125 74.21875 47.359375 69.109375 
Q 53.90625 64.015625 53.90625 55.328125 
Q 53.90625 49.265625 50.4375 45.09375 
Q 46.96875 40.921875 40.578125 39.3125 
z
" id="DejaVuSans-51"/>
    </defs>
    <g transform="translate(375.22944 73.095785)scale(0.17 -0.17)">
     <use xlink:href="#DejaVuSans-51"/>
     <use x="63.623047" xlink:href="#DejaVuSans-45"/>
     <use x="99.707031" xlink:href="#DejaVuSans-68"/>
    </g>
   </g>
   <g id="text_18">
    <!-- 2-D -->
    <g transform="translate(375.22944 16.923809)scale(0.17 -0.17)">
     <use xlink:href="#DejaVuSans-50"/>
     <use x="63.623047" xlink:href="#DejaVuSans-45"/>
     <use x="99.707031" xlink:href="#DejaVuSans-68"/>
    </g>
   </g>
   <g id="text_19">
    <!-- bbob f20-f24 -->
    <defs>
     <path d="M 48.6875 27.296875 
Q 48.6875 37.203125 44.609375 42.84375 
Q 40.53125 48.484375 33.40625 48.484375 
Q 26.265625 48.484375 22.1875 42.84375 
Q 18.109375 37.203125 18.109375 27.296875 
Q 18.109375 17.390625 22.1875 11.75 
Q 26.265625 6.109375 33.40625 6.109375 
Q 40.53125 6.109375 44.609375 11.75 
Q 48.6875 17.390625 48.6875 27.296875 
z
M 18.109375 46.390625 
Q 20.953125 51.265625 25.265625 53.625 
Q 29.59375 56 35.59375 56 
Q 45.5625 56 51.78125 48.09375 
Q 58.015625 40.1875 58.015625 27.296875 
Q 58.015625 14.40625 51.78125 6.484375 
Q 45.5625 -1.421875 35.59375 -1.421875 
Q 29.59375 -1.421875 25.265625 0.953125 
Q 20.953125 3.328125 18.109375 8.203125 
L 18.109375 0 
L 9.078125 0 
L 9.078125 75.984375 
L 18.109375 75.984375 
z
" id="DejaVuSans-98"/>
    </defs>
    <g transform="translate(60.41088 14.161286)scale(0.102 -0.102)">
     <use xlink:href="#DejaVuSans-98"/>
     <use x="63.476562" xlink:href="#DejaVuSans-98"/>
     <use x="126.953125" xlink:href="#DejaVuSans-111"/>
     <use x="188.134766" xlink:href="#DejaVuSans-98"/>
     <use x="251.611328" xlink:href="#DejaVuSans-32"/>
     <use x="283.398438" xlink:href="#DejaVuSans-102"/>
     <use x="318.603516" xlink:href="#DejaVuSans-50"/>
     <use x="382.226562" xlink:href="#DejaVuSans-48"/>
     <use x="445.849609" xlink:href="#DejaVuSans-45"/>
     <use x="481.933594" xlink:href="#DejaVuSans-102"/>
     <use x="517.138672" xlink:href="#DejaVuSans-50"/>
     <use x="580.761719" xlink:href="#DejaVuSans-52"/>
    </g>
    <!-- 51 targets: 100..1e-08 -->
    <defs>
     <path d="M 11.71875 12.40625 
L 22.015625 12.40625 
L 22.015625 0 
L 11.71875 0 
z
M 11.71875 51.703125 
L 22.015625 51.703125 
L 22.015625 39.3125 
L 11.71875 39.3125 
z
" id="DejaVuSans-58"/>
    </defs>
    <g transform="translate(60.41088 25.583055)scale(0.102 -0.102)">
     <use xlink:href="#DejaVuSans-53"/>
     <use x="63.623047" xlink:href="#DejaVuSans-49"/>
     <use x="127.246094" xlink:href="#DejaVuSans-32"/>
     <use x="159.033203" xlink:href="#DejaVuSans-116"/>
     <use x="198.242188" xlink:href="#DejaVuSans-97"/>
     <use x="259.521484" xlink:href="#DejaVuSans-114"/>
     <use x="300.619141" xlink:href="#DejaVuSans-103"/>
     <use x="364.095703" xlink:href="#DejaVuSans-101"/>
     <use x="425.619141" xlink:href="#DejaVuSans-116"/>
     <use x="464.828125" xlink:href="#DejaVuSans-115"/>
     <use x="516.927734" xlink:href="#DejaVuSans-58"/>
     <use x="550.619141" xlink:href="#DejaVuSans-32"/>
     <use x="582.40625" xlink:href="#DejaVuSans-49"/>
     <use x="646.029297" xlink:href="#DejaVuSans-48"/>
     <use x="709.652344" xlink:href="#DejaVuSans-48"/>
     <use x="773.275391" xlink:href="#DejaVuSans-46"/>
     <use x="805.0625" xlink:href="#DejaVuSans-46"/>
     <use x="836.849609" xlink:href="#DejaVuSans-49"/>
     <use x="900.472656" xlink:href="#DejaVuSans-101"/>
     <use x="961.996094" xlink:href="#DejaVuSans-45"/>
     <use x="998.080078" xlink:href="#DejaVuSans-48"/>
     <use x="1061.703125" xlink:href="#DejaVuSans-56"/>
    </g>
    <!-- 15 instances -->
    <g transform="translate(60.41088 37.004824)scale(0.102 -0.102)">
     <use xlink:href="#DejaVuSans-49"/>
     <use x="63.623047" xlink:href="#DejaVuSans-53"/>
     <use x="127.246094" xlink:href="#DejaVuSans-32"/>
     <use x="159.033203" xlink:href="#DejaVuSans-105"/>
     <use x="186.816406" xlink:href="#DejaVuSans-110"/>
     <use x="250.195312" xlink:href="#DejaVuSans-115"/>
     <use x="302.294922" xlink:href="#DejaVuSans-116"/>
     <use x="341.503906" xlink:href="#DejaVuSans-97"/>
     <use x="402.783203" xlink:href="#DejaVuSans-110"/>
     <use x="466.162109" xlink:href="#DejaVuSans-99"/>
     <use x="521.142578" xlink:href="#DejaVuSans-101"/>
     <use x="582.666016" xlink:href="#DejaVuSans-115"/>
    </g>
   </g>
   <g id="text_20">
    <!-- v2.4 -->
    <g style="fill:#808080;" transform="translate(187.233062 293.909432)scale(0.1 -0.1)">
     <use xlink:href="#DejaVuSans-118"/>
     <use x="59.179688" xlink:href="#DejaVuSans-50"/>
     <use x="122.802734" xlink:href="#DejaVuSans-46"/>
     <use x="154.589844" xlink:href="#DejaVuSans-52"/>
    </g>
   </g>
  </g>
 </g>
 <defs>
  <clipPath id="pbb5b8b7a10">
   <rect height="295.488" width="281.088" x="57.6" y="3.456"/>
  </clipPath>
 </defs>
</svg>
