<?xml version="1.0" encoding="utf-8" standalone="no"?>
<!DOCTYPE svg PUBLIC "-//W3C//DTD SVG 1.1//EN"
  "http://www.w3.org/Graphics/SVG/1.1/DTD/svg11.dtd">
<!-- Created with matplotlib (https://matplotlib.org/) -->
<svg height="345.6pt" version="1.1" viewBox="0 0 460.8 345.6" width="460.8pt" xmlns="http://www.w3.org/2000/svg" xmlns:xlink="http://www.w3.org/1999/xlink">
 <defs>
  <style type="text/css">
*{stroke-linecap:butt;stroke-linejoin:round;}
  </style>
 </defs>
 <g id="figure_1">
  <g id="patch_1">
   <path d="M 0 345.6 
L 460.8 345.6 
L 460.8 0 
L 0 0 
z
" style="fill:#ffffff;"/>
  </g>
  <g id="axes_1">
   <g id="patch_2">
    <path d="M 57.6 298.944 
L 338.688 298.944 
L 338.688 3.456 
L 57.6 3.456 
z
" style="fill:#ffffff;"/>
   </g>
   <g id="matplotlib.axis_1">
    <g id="xtick_1">
     <g id="line2d_1">
      <path clip-path="url(#pf11d2490e3)" d="M 57.6 298.944 
L 57.6 3.456 
" style="fill:none;stroke:#b0b0b0;stroke-linecap:square;stroke-width:0.8;"/>
     </g>
     <g id="line2d_2">
      <defs>
       <path d="M 0 0 
L 0 3.5 
" id="mac461e2eb3" style="stroke:#000000;stroke-width:0.8;"/>
      </defs>
      <g>
       <use style="stroke:#000000;stroke-width:0.8;" x="57.6" xlink:href="#mac461e2eb3" y="298.944"/>
      </g>
     </g>
     <g id="text_1">
      <!-- 0 -->
      <defs>
       <path d="M 31.78125 66.40625 
Q 24.171875 66.40625 20.328125 58.90625 
Q 16.5 51.421875 16.5 36.375 
Q 16.5 21.390625 20.328125 13.890625 
Q 24.171875 6.390625 31.78125 6.390625 
Q 39.453125 6.390625 43.28125 13.890625 
Q 47.125 21.390625 47.125 36.375 
Q 47.125 51.421875 43.28125 58.90625 
Q 39.453125 66.40625 31.78125 66.40625 
z
M 31.78125 74.21875 
Q 44.046875 74.21875 50.515625 64.515625 
Q 56.984375 54.828125 56.984375 36.375 
Q 56.984375 17.96875 50.515625 8.265625 
Q 44.046875 -1.421875 31.78125 -1.421875 
Q 19.53125 -1.421875 13.0625 8.265625 
Q 6.59375 17.96875 6.59375 36.375 
Q 6.59375 54.828125 13.0625 64.515625 
Q 19.53125 74.21875 31.78125 74.21875 
z
" id="DejaVuSans-48"/>
      </defs>
      <g transform="translate(51.2375 321.140875)scale(0.2 -0.2)">
       <use xlink:href="#DejaVuSans-48"/>
      </g>
     </g>
    </g>
    <g id="xtick_2">
     <g id="line2d_3">
      <path clip-path="url(#pf11d2490e3)" d="M 137.910857 298.944 
L 137.910857 3.456 
" style="fill:none;stroke:#b0b0b0;stroke-linecap:square;stroke-width:0.8;"/>
     </g>
     <g id="line2d_4">
      <g>
       <use style="stroke:#000000;stroke-width:0.8;" x="137.910857" xlink:href="#mac461e2eb3" y="298.944"/>
      </g>
     </g>
     <g id="text_2">
      <!-- 2 -->
      <defs>
       <path d="M 19.1875 8.296875 
L 53.609375 8.296875 
L 53.609375 0 
L 7.328125 0 
L 7.328125 8.296875 
Q 12.9375 14.109375 22.625 23.890625 
Q 32.328125 33.6875 34.8125 36.53125 
Q 39.546875 41.84375 41.421875 45.53125 
Q 43.3125 49.21875 43.3125 52.78125 
Q 43.3125 58.59375 39.234375 62.25 
Q 35.15625 65.921875 28.609375 65.921875 
Q 23.96875 65.921875 18.8125 64.3125 
Q 13.671875 62.703125 7.8125 59.421875 
L 7.8125 69.390625 
Q 13.765625 71.78125 18.9375 73 
Q 24.125 74.21875 28.421875 74.21875 
Q 39.75 74.21875 46.484375 68.546875 
Q 53.21875 62.890625 53.21875 53.421875 
Q 53.21875 48.921875 51.53125 44.890625 
Q 49.859375 40.875 45.40625 35.40625 
Q 44.1875 33.984375 37.640625 27.21875 
Q 31.109375 20.453125 19.1875 8.296875 
z
" id="DejaVuSans-50"/>
      </defs>
      <g transform="translate(131.548357 321.140875)scale(0.2 -0.2)">
       <use xlink:href="#DejaVuSans-50"/>
      </g>
     </g>
    </g>
    <g id="xtick_3">
     <g id="line2d_5">
      <path clip-path="url(#pf11d2490e3)" d="M 218.221714 298.944 
L 218.221714 3.456 
" style="fill:none;stroke:#b0b0b0;stroke-linecap:square;stroke-width:0.8;"/>
     </g>
     <g id="line2d_6">
      <g>
       <use style="stroke:#000000;stroke-width:0.8;" x="218.221714" xlink:href="#mac461e2eb3" y="298.944"/>
      </g>
     </g>
     <g id="text_3">
      <!-- 4 -->
      <defs>
       <path d="M 37.796875 64.3125 
L 12.890625 25.390625 
L 37.796875 25.390625 
z
M 35.203125 72.90625 
L 47.609375 72.90625 
L 47.609375 25.390625 
L 58.015625 25.390625 
L 58.015625 17.1875 
L 47.609375 17.1875 
L 47.609375 0 
L 37.796875 0 
L 37.796875 17.1875 
L 4.890625 17.1875 
L 4.890625 26.703125 
z
" id="DejaVuSans-52"/>
      </defs>
      <g transform="translate(211.859214 321.140875)scale(0.2 -0.2)">
       <use xlink:href="#DejaVuSans-52"/>
      </g>
     </g>
    </g>
    <g id="xtick_4">
     <g id="line2d_7">
      <path clip-path="url(#pf11d2490e3)" d="M 298.532571 298.944 
L 298.532571 3.456 
" style="fill:none;stroke:#b0b0b0;stroke-linecap:square;stroke-width:0.8;"/>
     </g>
     <g id="line2d_8">
      <g>
       <use style="stroke:#000000;stroke-width:0.8;" x="298.532571" xlink:href="#mac461e2eb3" y="298.944"/>
      </g>
     </g>
     <g id="text_4">
      <!-- 6 -->
      <defs>
       <path d="M 33.015625 40.375 
Q 26.375 40.375 22.484375 35.828125 
Q 18.609375 31.296875 18.609375 23.390625 
Q 18.609375 15.53125 22.484375 10.953125 
Q 26.375 6.390625 33.015625 6.390625 
Q 39.65625 6.390625 43.53125 10.953125 
Q 47.40625 15.53125 47.40625 23.390625 
Q 47.40625 31.296875 43.53125 35.828125 
Q 39.65625 40.375 33.015625 40.375 
z
M 52.59375 71.296875 
L 52.59375 62.3125 
Q 48.875 64.0625 45.09375 64.984375 
Q 41.3125 65.921875 37.59375 65.921875 
Q 27.828125 65.921875 22.671875 59.328125 
Q 17.53125 52.734375 16.796875 39.40625 
Q 19.671875 43.65625 24.015625 45.921875 
Q 28.375 48.1875 33.59375 48.1875 
Q 44.578125 48.1875 50.953125 41.515625 
Q 57.328125 34.859375 57.328125 23.390625 
Q 57.328125 12.15625 50.6875 5.359375 
Q 44.046875 -1.421875 33.015625 -1.421875 
Q 20.359375 -1.421875 13.671875 8.265625 
Q 6.984375 17.96875 6.984375 36.375 
Q 6.984375 53.65625 15.1875 63.9375 
Q 23.390625 74.21875 37.203125 74.21875 
Q 40.921875 74.21875 44.703125 73.484375 
Q 48.484375 72.75 52.59375 71.296875 
z
" id="DejaVuSans-54"/>
      </defs>
      <g transform="translate(292.170071 321.140875)scale(0.2 -0.2)">
       <use xlink:href="#DejaVuSans-54"/>
      </g>
     </g>
    </g>
    <g id="xtick_5">
     <g id="line2d_9">
      <path clip-path="url(#pf11d2490e3)" d="M 97.755429 298.944 
L 97.755429 3.456 
" style="fill:none;stroke:#b0b0b0;stroke-linecap:square;stroke-width:0.8;"/>
     </g>
     <g id="line2d_10">
      <defs>
       <path d="M 0 0 
L 0 2 
" id="m3ed75f50cf" style="stroke:#000000;stroke-width:0.6;"/>
      </defs>
      <g>
       <use style="stroke:#000000;stroke-width:0.6;" x="97.755429" xlink:href="#m3ed75f50cf" y="298.944"/>
      </g>
     </g>
    </g>
    <g id="xtick_6">
     <g id="line2d_11">
      <path clip-path="url(#pf11d2490e3)" d="M 178.066286 298.944 
L 178.066286 3.456 
" style="fill:none;stroke:#b0b0b0;stroke-linecap:square;stroke-width:0.8;"/>
     </g>
     <g id="line2d_12">
      <g>
       <use style="stroke:#000000;stroke-width:0.6;" x="178.066286" xlink:href="#m3ed75f50cf" y="298.944"/>
      </g>
     </g>
    </g>
    <g id="xtick_7">
     <g id="line2d_13">
      <path clip-path="url(#pf11d2490e3)" d="M 258.377143 298.944 
L 258.377143 3.456 
" style="fill:none;stroke:#b0b0b0;stroke-linecap:square;stroke-width:0.8;"/>
     </g>
     <g id="line2d_14">
      <g>
       <use style="stroke:#000000;stroke-width:0.6;" x="258.377143" xlink:href="#m3ed75f50cf" y="298.944"/>
      </g>
     </g>
    </g>
    <g id="xtick_8">
     <g id="line2d_15">
      <path clip-path="url(#pf11d2490e3)" d="M 338.688 298.944 
L 338.688 3.456 
" style="fill:none;stroke:#b0b0b0;stroke-linecap:square;stroke-width:0.8;"/>
     </g>
     <g id="line2d_16">
      <g>
       <use style="stroke:#000000;stroke-width:0.6;" x="338.688" xlink:href="#m3ed75f50cf" y="298.944"/>
      </g>
     </g>
    </g>
    <g id="text_5">
     <!-- log10(# f-evals / dimension) -->
     <defs>
      <path d="M 9.421875 75.984375 
L 18.40625 75.984375 
L 18.40625 0 
L 9.421875 0 
z
" id="DejaVuSans-108"/>
      <path d="M 30.609375 48.390625 
Q 23.390625 48.390625 19.1875 42.75 
Q 14.984375 37.109375 14.984375 27.296875 
Q 14.984375 17.484375 19.15625 11.84375 
Q 23.34375 6.203125 30.609375 6.203125 
Q 37.796875 6.203125 41.984375 11.859375 
Q 46.1875 17.53125 46.1875 27.296875 
Q 46.1875 37.015625 41.984375 42.703125 
Q 37.796875 48.390625 30.609375 48.390625 
z
M 30.609375 56 
Q 42.328125 56 49.015625 48.375 
Q 55.71875 40.765625 55.71875 27.296875 
Q 55.71875 13.875 49.015625 6.21875 
Q 42.328125 -1.421875 30.609375 -1.421875 
Q 18.84375 -1.421875 12.171875 6.21875 
Q 5.515625 13.875 5.515625 27.296875 
Q 5.515625 40.765625 12.171875 48.375 
Q 18.84375 56 30.609375 56 
z
" id="DejaVuSans-111"/>
      <path d="M 45.40625 27.984375 
Q 45.40625 37.75 41.375 43.109375 
Q 37.359375 48.484375 30.078125 48.484375 
Q 22.859375 48.484375 18.828125 43.109375 
Q 14.796875 37.75 14.796875 27.984375 
Q 14.796875 18.265625 18.828125 12.890625 
Q 22.859375 7.515625 30.078125 7.515625 
Q 37.359375 7.515625 41.375 12.890625 
Q 45.40625 18.265625 45.40625 27.984375 
z
M 54.390625 6.78125 
Q 54.390625 -7.171875 48.1875 -13.984375 
Q 42 -20.796875 29.203125 -20.796875 
Q 24.46875 -20.796875 20.265625 -20.09375 
Q 16.0625 -19.390625 12.109375 -17.921875 
L 12.109375 -9.1875 
Q 16.0625 -11.328125 19.921875 -12.34375 
Q 23.78125 -13.375 27.78125 -13.375 
Q 36.625 -13.375 41.015625 -8.765625 
Q 45.40625 -4.15625 45.40625 5.171875 
L 45.40625 9.625 
Q 42.625 4.78125 38.28125 2.390625 
Q 33.9375 0 27.875 0 
Q 17.828125 0 11.671875 7.65625 
Q 5.515625 15.328125 5.515625 27.984375 
Q 5.515625 40.671875 11.671875 48.328125 
Q 17.828125 56 27.875 56 
Q 33.9375 56 38.28125 53.609375 
Q 42.625 51.21875 45.40625 46.390625 
L 45.40625 54.6875 
L 54.390625 54.6875 
z
" id="DejaVuSans-103"/>
      <path d="M 12.40625 8.296875 
L 28.515625 8.296875 
L 28.515625 63.921875 
L 10.984375 60.40625 
L 10.984375 69.390625 
L 28.421875 72.90625 
L 38.28125 72.90625 
L 38.28125 8.296875 
L 54.390625 8.296875 
L 54.390625 0 
L 12.40625 0 
z
" id="DejaVuSans-49"/>
      <path d="M 31 75.875 
Q 24.46875 64.65625 21.28125 53.65625 
Q 18.109375 42.671875 18.109375 31.390625 
Q 18.109375 20.125 21.3125 9.0625 
Q 24.515625 -2 31 -13.1875 
L 23.1875 -13.1875 
Q 15.875 -1.703125 12.234375 9.375 
Q 8.59375 20.453125 8.59375 31.390625 
Q 8.59375 42.28125 12.203125 53.3125 
Q 15.828125 64.359375 23.1875 75.875 
z
" id="DejaVuSans-40"/>
      <path d="M 51.125 44 
L 36.921875 44 
L 32.8125 27.6875 
L 47.125 27.6875 
z
M 43.796875 71.78125 
L 38.71875 51.515625 
L 52.984375 51.515625 
L 58.109375 71.78125 
L 65.921875 71.78125 
L 60.890625 51.515625 
L 76.125 51.515625 
L 76.125 44 
L 58.984375 44 
L 54.984375 27.6875 
L 70.515625 27.6875 
L 70.515625 20.21875 
L 53.078125 20.21875 
L 48 0 
L 40.1875 0 
L 45.21875 20.21875 
L 30.90625 20.21875 
L 25.875 0 
L 18.015625 0 
L 23.09375 20.21875 
L 7.71875 20.21875 
L 7.71875 27.6875 
L 24.90625 27.6875 
L 29 44 
L 13.28125 44 
L 13.28125 51.515625 
L 30.90625 51.515625 
L 35.890625 71.78125 
z
" id="DejaVuSans-35"/>
      <path id="DejaVuSans-32"/>
      <path d="M 37.109375 75.984375 
L 37.109375 68.5 
L 28.515625 68.5 
Q 23.6875 68.5 21.796875 66.546875 
Q 19.921875 64.59375 19.921875 59.515625 
L 19.921875 54.6875 
L 34.71875 54.6875 
L 34.71875 47.703125 
L 19.921875 47.703125 
L 19.921875 0 
L 10.890625 0 
L 10.890625 47.703125 
L 2.296875 47.703125 
L 2.296875 54.6875 
L 10.890625 54.6875 
L 10.890625 58.5 
Q 10.890625 67.625 15.140625 71.796875 
Q 19.390625 75.984375 28.609375 75.984375 
z
" id="DejaVuSans-102"/>
      <path d="M 4.890625 31.390625 
L 31.203125 31.390625 
L 31.203125 23.390625 
L 4.890625 23.390625 
z
" id="DejaVuSans-45"/>
      <path d="M 56.203125 29.59375 
L 56.203125 25.203125 
L 14.890625 25.203125 
Q 15.484375 15.921875 20.484375 11.0625 
Q 25.484375 6.203125 34.421875 6.203125 
Q 39.59375 6.203125 44.453125 7.46875 
Q 49.3125 8.734375 54.109375 11.28125 
L 54.109375 2.78125 
Q 49.265625 0.734375 44.1875 -0.34375 
Q 39.109375 -1.421875 33.890625 -1.421875 
Q 20.796875 -1.421875 13.15625 6.1875 
Q 5.515625 13.8125 5.515625 26.8125 
Q 5.515625 40.234375 12.765625 48.109375 
Q 20.015625 56 32.328125 56 
Q 43.359375 56 49.78125 48.890625 
Q 56.203125 41.796875 56.203125 29.59375 
z
M 47.21875 32.234375 
Q 47.125 39.59375 43.09375 43.984375 
Q 39.0625 48.390625 32.421875 48.390625 
Q 24.90625 48.390625 20.390625 44.140625 
Q 15.875 39.890625 15.1875 32.171875 
z
" id="DejaVuSans-101"/>
      <path d="M 2.984375 54.6875 
L 12.5 54.6875 
L 29.59375 8.796875 
L 46.6875 54.6875 
L 56.203125 54.6875 
L 35.6875 0 
L 23.484375 0 
z
" id="DejaVuSans-118"/>
      <path d="M 34.28125 27.484375 
Q 23.390625 27.484375 19.1875 25 
Q 14.984375 22.515625 14.984375 16.5 
Q 14.984375 11.71875 18.140625 8.90625 
Q 21.296875 6.109375 26.703125 6.109375 
Q 34.1875 6.109375 38.703125 11.40625 
Q 43.21875 16.703125 43.21875 25.484375 
L 43.21875 27.484375 
z
M 52.203125 31.203125 
L 52.203125 0 
L 43.21875 0 
L 43.21875 8.296875 
Q 40.140625 3.328125 35.546875 0.953125 
Q 30.953125 -1.421875 24.3125 -1.421875 
Q 15.921875 -1.421875 10.953125 3.296875 
Q 6 8.015625 6 15.921875 
Q 6 25.140625 12.171875 29.828125 
Q 18.359375 34.515625 30.609375 34.515625 
L 43.21875 34.515625 
L 43.21875 35.40625 
Q 43.21875 41.609375 39.140625 45 
Q 35.0625 48.390625 27.6875 48.390625 
Q 23 48.390625 18.546875 47.265625 
Q 14.109375 46.140625 10.015625 43.890625 
L 10.015625 52.203125 
Q 14.9375 54.109375 19.578125 55.046875 
Q 24.21875 56 28.609375 56 
Q 40.484375 56 46.34375 49.84375 
Q 52.203125 43.703125 52.203125 31.203125 
z
" id="DejaVuSans-97"/>
      <path d="M 44.28125 53.078125 
L 44.28125 44.578125 
Q 40.484375 46.53125 36.375 47.5 
Q 32.28125 48.484375 27.875 48.484375 
Q 21.1875 48.484375 17.84375 46.4375 
Q 14.5 44.390625 14.5 40.28125 
Q 14.5 37.15625 16.890625 35.375 
Q 19.28125 33.59375 26.515625 31.984375 
L 29.59375 31.296875 
Q 39.15625 29.25 43.1875 25.515625 
Q 47.21875 21.78125 47.21875 15.09375 
Q 47.21875 7.46875 41.1875 3.015625 
Q 35.15625 -1.421875 24.609375 -1.421875 
Q 20.21875 -1.421875 15.453125 -0.5625 
Q 10.6875 0.296875 5.421875 2 
L 5.421875 11.28125 
Q 10.40625 8.6875 15.234375 7.390625 
Q 20.0625 6.109375 24.8125 6.109375 
Q 31.15625 6.109375 34.5625 8.28125 
Q 37.984375 10.453125 37.984375 14.40625 
Q 37.984375 18.0625 35.515625 20.015625 
Q 33.0625 21.96875 24.703125 23.78125 
L 21.578125 24.515625 
Q 13.234375 26.265625 9.515625 29.90625 
Q 5.8125 33.546875 5.8125 39.890625 
Q 5.8125 47.609375 11.28125 51.796875 
Q 16.75 56 26.8125 56 
Q 31.78125 56 36.171875 55.265625 
Q 40.578125 54.546875 44.28125 53.078125 
z
" id="DejaVuSans-115"/>
      <path d="M 25.390625 72.90625 
L 33.6875 72.90625 
L 8.296875 -9.28125 
L 0 -9.28125 
z
" id="DejaVuSans-47"/>
      <path d="M 45.40625 46.390625 
L 45.40625 75.984375 
L 54.390625 75.984375 
L 54.390625 0 
L 45.40625 0 
L 45.40625 8.203125 
Q 42.578125 3.328125 38.25 0.953125 
Q 33.9375 -1.421875 27.875 -1.421875 
Q 17.96875 -1.421875 11.734375 6.484375 
Q 5.515625 14.40625 5.515625 27.296875 
Q 5.515625 40.1875 11.734375 48.09375 
Q 17.96875 56 27.875 56 
Q 33.9375 56 38.25 53.625 
Q 42.578125 51.265625 45.40625 46.390625 
z
M 14.796875 27.296875 
Q 14.796875 17.390625 18.875 11.75 
Q 22.953125 6.109375 30.078125 6.109375 
Q 37.203125 6.109375 41.296875 11.75 
Q 45.40625 17.390625 45.40625 27.296875 
Q 45.40625 37.203125 41.296875 42.84375 
Q 37.203125 48.484375 30.078125 48.484375 
Q 22.953125 48.484375 18.875 42.84375 
Q 14.796875 37.203125 14.796875 27.296875 
z
" id="DejaVuSans-100"/>
      <path d="M 9.421875 54.6875 
L 18.40625 54.6875 
L 18.40625 0 
L 9.421875 0 
z
M 9.421875 75.984375 
L 18.40625 75.984375 
L 18.40625 64.59375 
L 9.421875 64.59375 
z
" id="DejaVuSans-105"/>
      <path d="M 52 44.1875 
Q 55.375 50.25 60.0625 53.125 
Q 64.75 56 71.09375 56 
Q 79.640625 56 84.28125 50.015625 
Q 88.921875 44.046875 88.921875 33.015625 
L 88.921875 0 
L 79.890625 0 
L 79.890625 32.71875 
Q 79.890625 40.578125 77.09375 44.375 
Q 74.3125 48.1875 68.609375 48.1875 
Q 61.625 48.1875 57.5625 43.546875 
Q 53.515625 38.921875 53.515625 30.90625 
L 53.515625 0 
L 44.484375 0 
L 44.484375 32.71875 
Q 44.484375 40.625 41.703125 44.40625 
Q 38.921875 48.1875 33.109375 48.1875 
Q 26.21875 48.1875 22.15625 43.53125 
Q 18.109375 38.875 18.109375 30.90625 
L 18.109375 0 
L 9.078125 0 
L 9.078125 54.6875 
L 18.109375 54.6875 
L 18.109375 46.1875 
Q 21.1875 51.21875 25.484375 53.609375 
Q 29.78125 56 35.6875 56 
Q 41.65625 56 45.828125 52.96875 
Q 50 49.953125 52 44.1875 
z
" id="DejaVuSans-109"/>
      <path d="M 54.890625 33.015625 
L 54.890625 0 
L 45.90625 0 
L 45.90625 32.71875 
Q 45.90625 40.484375 42.875 44.328125 
Q 39.84375 48.1875 33.796875 48.1875 
Q 26.515625 48.1875 22.3125 43.546875 
Q 18.109375 38.921875 18.109375 30.90625 
L 18.109375 0 
L 9.078125 0 
L 9.078125 54.6875 
L 18.109375 54.6875 
L 18.109375 46.1875 
Q 21.34375 51.125 25.703125 53.5625 
Q 30.078125 56 35.796875 56 
Q 45.21875 56 50.046875 50.171875 
Q 54.890625 44.34375 54.890625 33.015625 
z
" id="DejaVuSans-110"/>
      <path d="M 8.015625 75.875 
L 15.828125 75.875 
Q 23.140625 64.359375 26.78125 53.3125 
Q 30.421875 42.28125 30.421875 31.390625 
Q 30.421875 20.453125 26.78125 9.375 
Q 23.140625 -1.703125 15.828125 -13.1875 
L 8.015625 -13.1875 
Q 14.5 -2 17.703125 9.0625 
Q 20.90625 20.125 20.90625 31.390625 
Q 20.90625 42.671875 17.703125 53.65625 
Q 14.5 64.65625 8.015625 75.875 
z
" id="DejaVuSans-41"/>
     </defs>
     <g transform="translate(77.303219 342.217594)scale(0.17 -0.17)">
      <use xlink:href="#DejaVuSans-108"/>
      <use x="27.783203" xlink:href="#DejaVuSans-111"/>
      <use x="88.964844" xlink:href="#DejaVuSans-103"/>
      <use x="152.441406" xlink:href="#DejaVuSans-49"/>
      <use x="216.064453" xlink:href="#DejaVuSans-48"/>
      <use x="279.6875" xlink:href="#DejaVuSans-40"/>
      <use x="318.701172" xlink:href="#DejaVuSans-35"/>
      <use x="402.490234" xlink:href="#DejaVuSans-32"/>
      <use x="434.277344" xlink:href="#DejaVuSans-102"/>
      <use x="469.404297" xlink:href="#DejaVuSans-45"/>
      <use x="505.488281" xlink:href="#DejaVuSans-101"/>
      <use x="567.011719" xlink:href="#DejaVuSans-118"/>
      <use x="626.191406" xlink:href="#DejaVuSans-97"/>
      <use x="687.470703" xlink:href="#DejaVuSans-108"/>
      <use x="715.253906" xlink:href="#DejaVuSans-115"/>
      <use x="767.353516" xlink:href="#DejaVuSans-32"/>
      <use x="799.140625" xlink:href="#DejaVuSans-47"/>
      <use x="832.832031" xlink:href="#DejaVuSans-32"/>
      <use x="864.619141" xlink:href="#DejaVuSans-100"/>
      <use x="928.095703" xlink:href="#DejaVuSans-105"/>
      <use x="955.878906" xlink:href="#DejaVuSans-109"/>
      <use x="1053.291016" xlink:href="#DejaVuSans-101"/>
      <use x="1114.814453" xlink:href="#DejaVuSans-110"/>
      <use x="1178.193359" xlink:href="#DejaVuSans-115"/>
      <use x="1230.292969" xlink:href="#DejaVuSans-105"/>
      <use x="1258.076172" xlink:href="#DejaVuSans-111"/>
      <use x="1319.257812" xlink:href="#DejaVuSans-110"/>
      <use x="1382.636719" xlink:href="#DejaVuSans-41"/>
     </g>
    </g>
   </g>
   <g id="matplotlib.axis_2">
    <g id="ytick_1">
     <g id="line2d_17">
      <path clip-path="url(#pf11d2490e3)" d="M 57.6 298.944 
L 338.688 298.944 
" style="fill:none;stroke:#b0b0b0;stroke-linecap:square;stroke-width:0.8;"/>
     </g>
     <g id="line2d_18">
      <defs>
       <path d="M 0 0 
L -3.5 0 
" id="mbfbd6d5966" style="stroke:#000000;stroke-width:0.8;"/>
      </defs>
      <g>
       <use style="stroke:#000000;stroke-width:0.8;" x="57.6" xlink:href="#mbfbd6d5966" y="298.944"/>
      </g>
     </g>
     <g id="text_6">
      <!-- 0.0 -->
      <defs>
       <path d="M 10.6875 12.40625 
L 21 12.40625 
L 21 0 
L 10.6875 0 
z
" id="DejaVuSans-46"/>
      </defs>
      <g transform="translate(25.155 305.02275)scale(0.16 -0.16)">
       <use xlink:href="#DejaVuSans-48"/>
       <use x="63.623047" xlink:href="#DejaVuSans-46"/>
       <use x="95.410156" xlink:href="#DejaVuSans-48"/>
      </g>
     </g>
    </g>
    <g id="ytick_2">
     <g id="line2d_19">
      <path clip-path="url(#pf11d2490e3)" d="M 57.6 240.431525 
L 338.688 240.431525 
" style="fill:none;stroke:#b0b0b0;stroke-linecap:square;stroke-width:0.8;"/>
     </g>
     <g id="line2d_20">
      <g>
       <use style="stroke:#000000;stroke-width:0.8;" x="57.6" xlink:href="#mbfbd6d5966" y="240.431525"/>
      </g>
     </g>
     <g id="text_7">
      <!-- 0.2 -->
      <g transform="translate(25.155 246.510275)scale(0.16 -0.16)">
       <use xlink:href="#DejaVuSans-48"/>
       <use x="63.623047" xlink:href="#DejaVuSans-46"/>
       <use x="95.410156" xlink:href="#DejaVuSans-50"/>
      </g>
     </g>
    </g>
    <g id="ytick_3">
     <g id="line2d_21">
      <path clip-path="url(#pf11d2490e3)" d="M 57.6 181.91905 
L 338.688 181.91905 
" style="fill:none;stroke:#b0b0b0;stroke-linecap:square;stroke-width:0.8;"/>
     </g>
     <g id="line2d_22">
      <g>
       <use style="stroke:#000000;stroke-width:0.8;" x="57.6" xlink:href="#mbfbd6d5966" y="181.91905"/>
      </g>
     </g>
     <g id="text_8">
      <!-- 0.4 -->
      <g transform="translate(25.155 187.9978)scale(0.16 -0.16)">
       <use xlink:href="#DejaVuSans-48"/>
       <use x="63.623047" xlink:href="#DejaVuSans-46"/>
       <use x="95.410156" xlink:href="#DejaVuSans-52"/>
      </g>
     </g>
    </g>
    <g id="ytick_4">
     <g id="line2d_23">
      <path clip-path="url(#pf11d2490e3)" d="M 57.6 123.406574 
L 338.688 123.406574 
" style="fill:none;stroke:#b0b0b0;stroke-linecap:square;stroke-width:0.8;"/>
     </g>
     <g id="line2d_24">
      <g>
       <use style="stroke:#000000;stroke-width:0.8;" x="57.6" xlink:href="#mbfbd6d5966" y="123.406574"/>
      </g>
     </g>
     <g id="text_9">
      <!-- 0.6 -->
      <g transform="translate(25.155 129.485324)scale(0.16 -0.16)">
       <use xlink:href="#DejaVuSans-48"/>
       <use x="63.623047" xlink:href="#DejaVuSans-46"/>
       <use x="95.410156" xlink:href="#DejaVuSans-54"/>
      </g>
     </g>
    </g>
    <g id="ytick_5">
     <g id="line2d_25">
      <path clip-path="url(#pf11d2490e3)" d="M 57.6 64.894099 
L 338.688 64.894099 
" style="fill:none;stroke:#b0b0b0;stroke-linecap:square;stroke-width:0.8;"/>
     </g>
     <g id="line2d_26">
      <g>
       <use style="stroke:#000000;stroke-width:0.8;" x="57.6" xlink:href="#mbfbd6d5966" y="64.894099"/>
      </g>
     </g>
     <g id="text_10">
      <!-- 0.8 -->
      <defs>
       <path d="M 31.78125 34.625 
Q 24.75 34.625 20.71875 30.859375 
Q 16.703125 27.09375 16.703125 20.515625 
Q 16.703125 13.921875 20.71875 10.15625 
Q 24.75 6.390625 31.78125 6.390625 
Q 38.8125 6.390625 42.859375 10.171875 
Q 46.921875 13.96875 46.921875 20.515625 
Q 46.921875 27.09375 42.890625 30.859375 
Q 38.875 34.625 31.78125 34.625 
z
M 21.921875 38.8125 
Q 15.578125 40.375 12.03125 44.71875 
Q 8.5 49.078125 8.5 55.328125 
Q 8.5 64.0625 14.71875 69.140625 
Q 20.953125 74.21875 31.78125 74.21875 
Q 42.671875 74.21875 48.875 69.140625 
Q 55.078125 64.0625 55.078125 55.328125 
Q 55.078125 49.078125 51.53125 44.71875 
Q 48 40.375 41.703125 38.8125 
Q 48.828125 37.15625 52.796875 32.3125 
Q 56.78125 27.484375 56.78125 20.515625 
Q 56.78125 9.90625 50.3125 4.234375 
Q 43.84375 -1.421875 31.78125 -1.421875 
Q 19.734375 -1.421875 13.25 4.234375 
Q 6.78125 9.90625 6.78125 20.515625 
Q 6.78125 27.484375 10.78125 32.3125 
Q 14.796875 37.15625 21.921875 38.8125 
z
M 18.3125 54.390625 
Q 18.3125 48.734375 21.84375 45.5625 
Q 25.390625 42.390625 31.78125 42.390625 
Q 38.140625 42.390625 41.71875 45.5625 
Q 45.3125 48.734375 45.3125 54.390625 
Q 45.3125 60.0625 41.71875 63.234375 
Q 38.140625 66.40625 31.78125 66.40625 
Q 25.390625 66.40625 21.84375 63.234375 
Q 18.3125 60.0625 18.3125 54.390625 
z
" id="DejaVuSans-56"/>
      </defs>
      <g transform="translate(25.155 70.972849)scale(0.16 -0.16)">
       <use xlink:href="#DejaVuSans-48"/>
       <use x="63.623047" xlink:href="#DejaVuSans-46"/>
       <use x="95.410156" xlink:href="#DejaVuSans-56"/>
      </g>
     </g>
    </g>
    <g id="ytick_6">
     <g id="line2d_27">
      <path clip-path="url(#pf11d2490e3)" d="M 57.6 6.381624 
L 338.688 6.381624 
" style="fill:none;stroke:#b0b0b0;stroke-linecap:square;stroke-width:0.8;"/>
     </g>
     <g id="line2d_28">
      <g>
       <use style="stroke:#000000;stroke-width:0.8;" x="57.6" xlink:href="#mbfbd6d5966" y="6.381624"/>
      </g>
     </g>
     <g id="text_11">
      <!-- 1.0 -->
      <g transform="translate(25.155 12.460374)scale(0.16 -0.16)">
       <use xlink:href="#DejaVuSans-49"/>
       <use x="63.623047" xlink:href="#DejaVuSans-46"/>
       <use x="95.410156" xlink:href="#DejaVuSans-48"/>
      </g>
     </g>
    </g>
    <g id="text_12">
     <!-- Fraction of function,target pairs -->
     <defs>
      <path d="M 9.8125 72.90625 
L 51.703125 72.90625 
L 51.703125 64.59375 
L 19.671875 64.59375 
L 19.671875 43.109375 
L 48.578125 43.109375 
L 48.578125 34.8125 
L 19.671875 34.8125 
L 19.671875 0 
L 9.8125 0 
z
" id="DejaVuSans-70"/>
      <path d="M 41.109375 46.296875 
Q 39.59375 47.171875 37.8125 47.578125 
Q 36.03125 48 33.890625 48 
Q 26.265625 48 22.1875 43.046875 
Q 18.109375 38.09375 18.109375 28.8125 
L 18.109375 0 
L 9.078125 0 
L 9.078125 54.6875 
L 18.109375 54.6875 
L 18.109375 46.1875 
Q 20.953125 51.171875 25.484375 53.578125 
Q 30.03125 56 36.53125 56 
Q 37.453125 56 38.578125 55.875 
Q 39.703125 55.765625 41.0625 55.515625 
z
" id="DejaVuSans-114"/>
      <path d="M 48.78125 52.59375 
L 48.78125 44.1875 
Q 44.96875 46.296875 41.140625 47.34375 
Q 37.3125 48.390625 33.40625 48.390625 
Q 24.65625 48.390625 19.8125 42.84375 
Q 14.984375 37.3125 14.984375 27.296875 
Q 14.984375 17.28125 19.8125 11.734375 
Q 24.65625 6.203125 33.40625 6.203125 
Q 37.3125 6.203125 41.140625 7.25 
Q 44.96875 8.296875 48.78125 10.40625 
L 48.78125 2.09375 
Q 45.015625 0.34375 40.984375 -0.53125 
Q 36.96875 -1.421875 32.421875 -1.421875 
Q 20.0625 -1.421875 12.78125 6.34375 
Q 5.515625 14.109375 5.515625 27.296875 
Q 5.515625 40.671875 12.859375 48.328125 
Q 20.21875 56 33.015625 56 
Q 37.15625 56 41.109375 55.140625 
Q 45.0625 54.296875 48.78125 52.59375 
z
" id="DejaVuSans-99"/>
      <path d="M 18.3125 70.21875 
L 18.3125 54.6875 
L 36.8125 54.6875 
L 36.8125 47.703125 
L 18.3125 47.703125 
L 18.3125 18.015625 
Q 18.3125 11.328125 20.140625 9.421875 
Q 21.96875 7.515625 27.59375 7.515625 
L 36.8125 7.515625 
L 36.8125 0 
L 27.59375 0 
Q 17.1875 0 13.234375 3.875 
Q 9.28125 7.765625 9.28125 18.015625 
L 9.28125 47.703125 
L 2.6875 47.703125 
L 2.6875 54.6875 
L 9.28125 54.6875 
L 9.28125 70.21875 
z
" id="DejaVuSans-116"/>
      <path d="M 8.5 21.578125 
L 8.5 54.6875 
L 17.484375 54.6875 
L 17.484375 21.921875 
Q 17.484375 14.15625 20.5 10.265625 
Q 23.53125 6.390625 29.59375 6.390625 
Q 36.859375 6.390625 41.078125 11.03125 
Q 45.3125 15.671875 45.3125 23.6875 
L 45.3125 54.6875 
L 54.296875 54.6875 
L 54.296875 0 
L 45.3125 0 
L 45.3125 8.40625 
Q 42.046875 3.421875 37.71875 1 
Q 33.40625 -1.421875 27.6875 -1.421875 
Q 18.265625 -1.421875 13.375 4.4375 
Q 8.5 10.296875 8.5 21.578125 
z
M 31.109375 56 
z
" id="DejaVuSans-117"/>
      <path d="M 11.71875 12.40625 
L 22.015625 12.40625 
L 22.015625 4 
L 14.015625 -11.625 
L 7.71875 -11.625 
L 11.71875 4 
z
" id="DejaVuSans-44"/>
      <path d="M 18.109375 8.203125 
L 18.109375 -20.796875 
L 9.078125 -20.796875 
L 9.078125 54.6875 
L 18.109375 54.6875 
L 18.109375 46.390625 
Q 20.953125 51.265625 25.265625 53.625 
Q 29.59375 56 35.59375 56 
Q 45.5625 56 51.78125 48.09375 
Q 58.015625 40.1875 58.015625 27.296875 
Q 58.015625 14.40625 51.78125 6.484375 
Q 45.5625 -1.421875 35.59375 -1.421875 
Q 29.59375 -1.421875 25.265625 0.953125 
Q 20.953125 3.328125 18.109375 8.203125 
z
M 48.6875 27.296875 
Q 48.6875 37.203125 44.609375 42.84375 
Q 40.53125 48.484375 33.40625 48.484375 
Q 26.265625 48.484375 22.1875 42.84375 
Q 18.109375 37.203125 18.109375 27.296875 
Q 18.109375 17.390625 22.1875 11.75 
Q 26.265625 6.109375 33.40625 6.109375 
Q 40.53125 6.109375 44.609375 11.75 
Q 48.6875 17.390625 48.6875 27.296875 
z
" id="DejaVuSans-112"/>
     </defs>
     <g transform="translate(17.619531 286.339375)rotate(-90)scale(0.17 -0.17)">
      <use xlink:href="#DejaVuSans-70"/>
      <use x="57.410156" xlink:href="#DejaVuSans-114"/>
      <use x="98.523438" xlink:href="#DejaVuSans-97"/>
      <use x="159.802734" xlink:href="#DejaVuSans-99"/>
      <use x="214.783203" xlink:href="#DejaVuSans-116"/>
      <use x="253.992188" xlink:href="#DejaVuSans-105"/>
      <use x="281.775391" xlink:href="#DejaVuSans-111"/>
      <use x="342.957031" xlink:href="#DejaVuSans-110"/>
      <use x="406.335938" xlink:href="#DejaVuSans-32"/>
      <use x="438.123047" xlink:href="#DejaVuSans-111"/>
      <use x="499.304688" xlink:href="#DejaVuSans-102"/>
      <use x="534.509766" xlink:href="#DejaVuSans-32"/>
      <use x="566.296875" xlink:href="#DejaVuSans-102"/>
      <use x="601.501953" xlink:href="#DejaVuSans-117"/>
      <use x="664.880859" xlink:href="#DejaVuSans-110"/>
      <use x="728.259766" xlink:href="#DejaVuSans-99"/>
      <use x="783.240234" xlink:href="#DejaVuSans-116"/>
      <use x="822.449219" xlink:href="#DejaVuSans-105"/>
      <use x="850.232422" xlink:href="#DejaVuSans-111"/>
      <use x="911.414062" xlink:href="#DejaVuSans-110"/>
      <use x="974.792969" xlink:href="#DejaVuSans-44"/>
      <use x="1006.580078" xlink:href="#DejaVuSans-116"/>
      <use x="1045.789062" xlink:href="#DejaVuSans-97"/>
      <use x="1107.068359" xlink:href="#DejaVuSans-114"/>
      <use x="1148.166016" xlink:href="#DejaVuSans-103"/>
      <use x="1211.642578" xlink:href="#DejaVuSans-101"/>
      <use x="1273.166016" xlink:href="#DejaVuSans-116"/>
      <use x="1312.375" xlink:href="#DejaVuSans-32"/>
      <use x="1344.162109" xlink:href="#DejaVuSans-112"/>
      <use x="1407.638672" xlink:href="#DejaVuSans-97"/>
      <use x="1468.917969" xlink:href="#DejaVuSans-105"/>
      <use x="1496.701172" xlink:href="#DejaVuSans-114"/>
      <use x="1537.814453" xlink:href="#DejaVuSans-115"/>
     </g>
    </g>
   </g>
   <g id="line2d_29">
    <defs>
     <path d="M 0 1.5 
C 0.397805 1.5 0.77937 1.341951 1.06066 1.06066 
C 1.341951 0.77937 1.5 0.397805 1.5 0 
C 1.5 -0.397805 1.341951 -0.77937 1.06066 -1.06066 
C 0.77937 -1.341951 0.397805 -1.5 0 -1.5 
C -0.397805 -1.5 -0.77937 -1.341951 -1.06066 -1.06066 
C -1.341951 -0.77937 -1.5 -0.397805 -1.5 0 
C -1.5 0.397805 -1.341951 0.77937 -1.06066 1.06066 
C -0.77937 1.341951 -0.397805 1.5 0 1.5 
z
" id="mfc9ad6ada4" style="stroke:#00bfbf;"/>
    </defs>
    <g>
     <use style="fill:#00bfbf;stroke:#00bfbf;" x="229.202789" xlink:href="#mfc9ad6ada4" y="212.418199"/>
     <use style="fill:#00bfbf;stroke:#00bfbf;" x="229.202789" xlink:href="#mfc9ad6ada4" y="212.418199"/>
    </g>
   </g>
   <g id="line2d_30">
    <path d="M 45.512012 298.944 
L 45.512012 288.474856 
L 57.6 288.474856 
L 57.6 285.41538 
L 64.67102 285.41538 
L 64.67102 281.758351 
L 69.687988 281.758351 
L 69.687988 280.228613 
L 73.579452 280.228613 
L 73.579452 278.412049 
L 76.759008 278.412049 
L 76.759008 277.049626 
L 79.447285 277.049626 
L 79.447285 276.189149 
L 81.775977 276.189149 
L 81.775977 275.256964 
L 83.830028 275.256964 
L 83.830028 274.731117 
L 85.66744 274.731117 
L 85.66744 273.559911 
L 87.329581 273.559911 
L 87.329581 272.77114 
L 88.846997 272.77114 
L 88.846997 272.149684 
L 90.242884 272.149684 
L 90.242884 271.504326 
L 91.535274 271.504326 
L 91.535274 270.452631 
L 92.73846 270.452631 
L 92.73846 269.974588 
L 93.863965 269.974588 
L 93.863965 269.496545 
L 94.921215 269.496545 
L 94.921215 268.970698 
L 95.918017 268.970698 
L 95.918017 268.516557 
L 96.86091 268.516557 
L 96.86091 267.703884 
L 97.755429 267.703884 
L 97.755429 267.44096 
L 98.606294 267.44096 
L 98.606294 267.058525 
L 99.41757 267.058525 
L 99.41757 266.747797 
L 100.192776 266.747797 
L 100.192776 266.413167 
L 100.934985 266.413167 
L 100.934985 266.006831 
L 101.646892 266.006831 
L 101.646892 265.576592 
L 102.330873 265.576592 
L 102.330873 265.361472 
L 102.989037 265.361472 
L 102.989037 264.955136 
L 103.623262 264.955136 
L 103.623262 264.45319 
L 104.23523 264.45319 
L 104.23523 264.11856 
L 104.826449 264.11856 
L 104.826449 263.903441 
L 105.398279 263.903441 
L 105.398279 263.544909 
L 105.951954 263.544909 
L 105.951954 263.186376 
L 106.48859 263.186376 
L 106.48859 262.875648 
L 107.009204 262.875648 
L 107.009204 262.56492 
L 107.514726 262.56492 
L 107.514726 262.397605 
L 108.006005 262.397605 
L 108.006005 262.158584 
L 108.483824 262.158584 
L 108.483824 261.871758 
L 108.948899 261.871758 
L 108.948899 261.728345 
L 109.401893 261.728345 
L 109.401893 261.608834 
L 109.843417 261.608834 
L 109.843417 261.441519 
L 110.694282 261.369812 
L 110.694282 261.01128 
L 111.104637 261.01128 
L 111.104637 260.867867 
L 111.505558 260.867867 
L 111.505558 260.67665 
L 112.280765 260.628846 
L 112.280765 260.1269 
L 112.655818 260.1269 
L 112.655818 259.887879 
L 113.022974 259.887879 
L 113.022974 259.672759 
L 113.382559 259.672759 
L 113.382559 259.505444 
L 113.73488 259.505444 
L 113.73488 259.242521 
L 114.418861 259.242521 
L 114.418861 259.099108 
L 114.751048 259.099108 
L 114.751048 258.644967 
L 115.077025 258.644967 
L 115.077025 258.190826 
L 115.397021 258.190826 
L 115.397021 257.927902 
L 115.711251 257.927902 
L 115.711251 257.641076 
L 116.019919 257.641076 
L 116.019919 257.115229 
L 116.323218 257.115229 
L 116.323218 256.900109 
L 116.621333 256.900109 
L 116.621333 256.230849 
L 117.486268 256.159143 
L 117.486268 256.087436 
L 117.765302 256.087436 
L 117.765302 255.944023 
L 118.039942 255.944023 
L 118.039942 255.728904 
L 126.168212 255.728904 
L 126.168212 255.155252 
L 126.338353 255.155252 
L 126.338353 254.916231 
L 126.839037 254.820622 
L 126.839037 254.701111 
L 127.002787 254.701111 
L 127.002787 254.390383 
L 127.165014 254.390383 
L 127.165014 254.270872 
L 127.325746 254.270872 
L 127.325746 254.151362 
L 127.642832 254.12746 
L 127.642832 253.816732 
L 128.107907 253.745025 
L 128.107907 253.673319 
L 133.124876 253.673319 
L 133.124876 253.386493 
L 133.239232 253.386493 
L 133.239232 253.147471 
L 133.352844 253.147471 
L 133.352844 252.980156 
L 133.46572 252.980156 
L 133.46572 252.812841 
L 133.57787 252.812841 
L 133.57787 252.597722 
L 133.689303 252.597722 
L 133.800029 251.976266 
L 133.910056 251.976266 
L 134.019394 251.569929 
L 134.12805 251.569929 
L 134.236034 251.259201 
L 134.343353 251.259201 
L 134.450015 251.044082 
L 138.084384 251.044082 
L 138.170504 250.637745 
L 138.426341 250.566038 
L 138.510793 250.231408 
L 138.67848 250.183604 
L 138.761723 250.016289 
L 138.84457 250.016289 
L 138.927025 249.681659 
L 139.009092 249.681659 
L 139.090775 249.418735 
L 142.07914 249.323126 
L 142.147664 248.91679 
L 142.215919 248.91679 
L 142.283909 248.653866 
L 142.486301 248.58216 
L 142.486301 248.486551 
L 142.686372 248.390942 
L 142.752555 248.104116 
L 142.949611 248.008508 
L 142.949611 247.936801 
L 143.273169 247.841193 
L 143.337167 247.769486 
L 143.464461 247.69778 
L 143.527762 247.530465 
L 143.653678 247.434856 
L 143.716296 247.339248 
L 144.087359 247.243639 
L 144.148442 247.02852 
L 144.390658 246.956813 
L 144.390658 246.885107 
L 144.629556 246.789498 
L 144.629556 246.765596 
L 144.747789 246.765596 
L 144.806606 246.502672 
L 144.923649 246.407063 
L 144.981877 246.311455 
L 145.155404 246.287553 
L 145.212864 245.785607 
L 145.270136 245.785607 
L 145.327221 245.570488 
L 145.384119 245.570488 
L 145.440832 245.235858 
L 145.497361 245.235858 
L 145.553708 244.901228 
L 147.769524 244.805619 
L 147.86833 244.566598 
L 148.015498 244.518793 
L 148.112924 244.208065 
L 148.354135 244.112457 
L 148.354135 243.992946 
L 150.085825 243.992946 
L 150.172372 243.658316 
L 150.301393 243.634414 
L 150.344189 243.299783 
L 150.47195 243.251979 
L 150.556607 243.084664 
L 152.130233 243.012957 
L 152.168773 242.750034 
L 152.322086 242.678327 
L 152.398241 242.463208 
L 152.474064 242.463208 
L 152.549559 242.032969 
L 154.063835 241.985165 
L 154.167129 241.315904 
L 154.371897 241.244198 
L 154.473387 241.100785 
L 154.77436 241.005176 
L 154.873541 240.885666 
L 155.0376 240.790057 
L 155.102793 240.622742 
L 155.232454 240.622742 
L 155.296925 240.359818 
L 155.647315 240.26421 
L 155.741666 239.977384 
L 155.773004 239.977384 
L 155.83551 239.332026 
L 157.1279 239.284221 
L 157.214591 239.0452 
L 157.329512 238.949591 
L 157.38669 238.806178 
L 158.51933 238.71057 
L 158.625992 238.352037 
L 158.652556 238.352037 
L 158.75841 238.065211 
L 158.83738 237.969603 
L 158.83738 237.945701 
L 159.832723 237.850092 
L 159.931669 237.658875 
L 160.030058 237.563266 
L 160.103486 237.324245 
L 161.077205 237.252538 
L 161.100288 236.94181 
L 161.283861 236.870104 
L 161.283861 236.822299 
L 161.578106 236.798397 
L 161.667653 236.654984 
L 161.867469 236.559376 
L 161.88953 236.439865 
L 162.021314 236.392061 
L 162.043181 236.296452 
L 162.152109 236.296452 
L 162.260361 235.818409 
L 162.281931 235.818409 
L 162.281931 235.507681 
L 163.185069 235.507681 
L 163.287113 235.173051 
L 163.428979 235.077442 
L 163.428979 235.05354 
L 164.218222 235.005736 
L 164.295217 234.742812 
L 164.35274 234.695008 
L 164.410075 234.575497 
L 165.175324 234.479888 
L 165.284547 234.360377 
L 165.320804 234.360377 
L 165.338904 234.097454 
L 166.065276 234.097454 
L 166.08262 233.715019 
L 166.510705 233.619411 
L 166.6119 233.452096 
L 166.662278 233.452096 
L 166.662278 233.308683 
L 166.878918 233.213074 
L 166.978005 232.61552 
L 167.672117 232.543814 
L 167.782543 232.256988 
L 168.445948 232.209183 
L 168.521475 231.922358 
L 168.581663 231.922358 
L 168.596677 231.755043 
L 169.288161 231.659434 
L 169.345764 231.39651 
L 169.939378 231.39651 
L 169.953269 231.085782 
L 170.351349 230.990174 
L 170.446091 230.822858 
L 170.526891 230.72725 
L 170.634045 230.559935 
L 170.660731 230.464326 
L 170.674059 230.297011 
L 171.871027 230.225305 
L 171.970255 229.890674 
L 172.554051 229.795066 
L 172.613754 229.627751 
L 173.107351 229.603849 
L 173.211329 229.221414 
L 173.508272 229.125805 
L 173.598631 228.982393 
L 173.677313 228.934588 
L 173.777957 228.528252 
L 174.250953 228.456545 
L 174.315944 228.337034 
L 174.753684 228.241426 
L 174.83783 228.050209 
L 175.78735 227.9546 
L 175.876553 227.667774 
L 176.102467 227.572165 
L 176.209486 227.333144 
L 176.296562 227.261437 
L 176.315853 226.855101 
L 176.772554 226.759492 
L 176.791327 226.711688 
L 177.199282 226.616079 
L 177.290683 226.281449 
L 177.740637 226.209743 
L 177.740637 226.161938 
L 178.10983 226.161938 
L 178.187935 225.779504 
L 178.368833 225.707797 
L 178.479885 225.468776 
L 178.573302 225.373167 
L 178.573302 225.086341 
L 179.416503 224.990733 
L 179.416503 224.966831 
L 179.831174 224.895124 
L 179.831174 224.84732 
L 180.159048 224.84732 
L 180.16678 224.656103 
L 180.427645 224.584396 
L 180.488462 224.393179 
L 180.571741 224.321472 
L 180.571741 224.249766 
L 181.260369 224.154157 
L 181.32559 223.96294 
L 181.697718 223.891234 
L 181.704798 223.795625 
L 181.992593 223.795625 
L 182.041257 223.556603 
L 182.234569 223.484897 
L 182.344078 223.269778 
L 182.364534 223.221973 
L 182.364534 223.054658 
L 183.013357 222.95905 
L 183.046156 222.863441 
L 183.383659 222.791734 
L 183.390086 222.720028 
L 183.651569 222.720028 
L 183.657898 222.481006 
L 183.840444 222.457104 
L 183.915425 222.289789 
L 183.990085 222.218083 
L 183.990085 222.122474 
L 184.856021 222.026865 
L 184.926769 221.907355 
L 185.166347 221.907355 
L 185.172149 221.620529 
L 185.368293 221.52492 
L 185.476949 221.381507 
L 186.004772 221.333703 
L 186.032405 221.19029 
L 186.565359 221.094681 
L 186.565359 220.951268 
L 186.815293 220.85566 
L 186.846944 220.688345 
L 187.098099 220.616638 
L 187.098099 220.544932 
L 187.850478 220.449323 
L 187.959598 220.138595 
L 188.023758 220.066889 
L 188.117109 219.732259 
L 188.38455 219.63665 
L 188.38455 219.612748 
L 189.052006 219.541041 
L 189.056649 219.349824 
L 189.301011 219.254215 
L 189.301011 219.182509 
L 189.761868 219.0869 
L 189.761868 219.062998 
L 190.180414 218.96739 
L 190.180414 218.943487 
L 190.409625 218.847879 
L 190.409625 218.823977 
L 191.232029 218.800075 
L 191.236127 218.680564 
L 191.374891 218.656662 
L 191.451957 218.345934 
L 191.844137 218.250325 
L 191.859959 218.178619 
L 192.227692 218.130814 
L 192.231563 217.987401 
L 192.39336 217.891793 
L 192.435488 217.796184 
L 192.802644 217.724478 
L 192.802644 217.652771 
L 193.169567 217.581065 
L 193.264664 217.485456 
L 193.718312 217.389847 
L 193.732522 217.318141 
L 194.063168 217.294239 
L 194.063168 217.19863 
L 194.24342 217.103022 
L 194.250316 217.031315 
L 194.913204 216.959609 
L 194.916522 216.816196 
L 195.723725 216.768391 
L 195.83425 216.553272 
L 196.198718 216.457663 
L 196.211045 216.409859 
L 196.603982 216.31425 
L 196.661115 216.19474 
L 197.239821 216.146935 
L 197.303595 215.955718 
L 197.83646 215.860109 
L 197.83646 215.836207 
L 198.065083 215.740599 
L 198.101055 215.597186 
L 198.380748 215.501577 
L 198.380748 215.477675 
L 198.637272 215.429871 
L 198.714833 215.286458 
L 199.29484 215.190849 
L 199.29484 215.095241 
L 199.431116 215.047436 
L 199.431116 214.97573 
L 199.990632 214.880121 
L 200.059943 214.76061 
L 200.537562 214.736708 
L 200.539965 214.593295 
L 201.223392 214.497687 
L 201.253409 214.402078 
L 201.702084 214.306469 
L 201.702084 214.282567 
L 202.309709 214.186959 
L 202.309709 214.163056 
L 202.896874 214.067448 
L 202.896874 214.043546 
L 203.814997 213.947937 
L 203.90044 213.852328 
L 204.885014 213.780622 
L 204.885014 213.732818 
L 205.312482 213.637209 
L 205.312482 213.613307 
L 206.142443 213.5416 
L 206.232847 213.374285 
L 206.836142 213.278677 
L 206.836142 213.254775 
L 208.578654 213.159166 
L 208.660316 213.111362 
L 210.033558 213.015753 
L 210.033558 212.991851 
L 212.040133 212.896242 
L 212.040133 212.87234 
L 213.095116 212.776732 
L 213.095116 212.752829 
L 214.062253 212.657221 
L 214.062253 212.633319 
L 216.174746 212.53771 
L 216.174746 212.513808 
L 338.688 212.418199 
L 338.688 212.418199 
" style="fill:none;stroke:#00bfbf;stroke-linecap:square;stroke-width:1.5;"/>
   </g>
   <g id="line2d_31">
    <defs>
     <path d="M -6 0 
L 6 0 
M 0 6 
L 0 -6 
" id="md859292e9e" style="stroke:#00bfbf;stroke-width:1.5;"/>
    </defs>
    <g>
     <use style="fill-opacity:0;stroke:#00bfbf;stroke-width:1.5;" x="64.67102" xlink:href="#md859292e9e" y="285.41538"/>
     <use style="fill-opacity:0;stroke:#00bfbf;stroke-width:1.5;" x="113.73488" xlink:href="#md859292e9e" y="259.242521"/>
     <use style="fill-opacity:0;stroke:#00bfbf;stroke-width:1.5;" x="172.554051" xlink:href="#md859292e9e" y="229.771164"/>
     <use style="fill-opacity:0;stroke:#00bfbf;stroke-width:1.5;" x="229.202789" xlink:href="#md859292e9e" y="212.442101"/>
     <use style="fill-opacity:0;stroke:#00bfbf;stroke-width:1.5;" x="229.202789" xlink:href="#md859292e9e" y="212.418199"/>
     <use style="fill-opacity:0;stroke:#00bfbf;stroke-width:1.5;" x="338.688" xlink:href="#md859292e9e" y="212.418199"/>
    </g>
   </g>
   <g id="line2d_32">
    <path style="fill:none;stroke:#00bfbf;stroke-linecap:square;stroke-width:1.5;"/>
    <g/>
   </g>
   <g id="line2d_33">
    <path clip-path="url(#pf11d2490e3)" d="M 141.80232 249.418735 
" style="fill:none;stroke:#00bfbf;stroke-linecap:square;stroke-width:1.5;"/>
    <defs>
     <path d="M -12 12 
L 12 -12 
M -12 -12 
L 12 12 
" id="m5a994f7650" style="stroke:#00bfbf;"/>
    </defs>
    <g clip-path="url(#pf11d2490e3)">
     <use style="fill:#00bfbf;stroke:#00bfbf;" x="141.80232" xlink:href="#m5a994f7650" y="249.418735"/>
    </g>
   </g>
   <g id="line2d_34">
    <defs>
     <path d="M 0 1.5 
C 0.397805 1.5 0.77937 1.341951 1.06066 1.06066 
C 1.341951 0.77937 1.5 0.397805 1.5 0 
C 1.5 -0.397805 1.341951 -0.77937 1.06066 -1.06066 
C 0.77937 -1.341951 0.397805 -1.5 0 -1.5 
C -0.397805 -1.5 -0.77937 -1.341951 -1.06066 -1.06066 
C -1.341951 -0.77937 -1.5 -0.397805 -1.5 0 
C -1.5 0.397805 -1.341951 0.77937 -1.06066 1.06066 
C -0.77937 1.341951 -0.397805 1.5 0 1.5 
z
" id="m54c9c52b73" style="stroke:#008000;"/>
    </defs>
    <g>
     <use style="fill:#008000;stroke:#008000;" x="214.837974" xlink:href="#m54c9c52b73" y="245.403173"/>
     <use style="fill:#008000;stroke:#008000;" x="214.837974" xlink:href="#m54c9c52b73" y="245.403173"/>
    </g>
   </g>
   <g id="line2d_35">
    <path d="M 38.440992 298.944 
L 38.440992 291.29531 
L 50.52898 291.29531 
L 50.52898 289.168019 
L 57.6 289.168019 
L 57.6 287.686085 
L 62.616969 287.686085 
L 62.616969 286.419271 
L 66.508432 286.419271 
L 66.508432 285.582695 
L 69.687988 285.582695 
L 69.687988 284.531001 
L 72.376266 284.531001 
L 72.376266 284.172468 
L 74.704957 284.172468 
L 74.704957 283.264186 
L 76.759008 283.264186 
L 76.759008 282.403709 
L 78.59642 282.403709 
L 78.59642 281.853959 
L 80.258561 281.853959 
L 80.258561 281.519329 
L 81.775977 281.519329 
L 81.775977 281.208601 
L 83.171864 281.208601 
L 83.171864 280.850069 
L 84.464254 280.850069 
L 84.464254 280.491536 
L 85.66744 280.491536 
L 85.66744 280.133004 
L 86.792945 280.133004 
L 86.792945 279.702765 
L 87.850195 279.702765 
L 87.850195 279.153016 
L 88.846997 279.153016 
L 88.846997 279.009603 
L 89.78989 279.009603 
L 89.78989 278.698875 
L 90.684409 278.698875 
L 90.684409 278.340342 
L 92.34655 278.244734 
L 92.34655 277.910104 
L 93.863965 277.838397 
L 93.863965 277.694984 
L 94.575872 277.694984 
L 94.575872 277.551571 
L 95.259853 277.551571 
L 95.259853 277.432061 
L 95.918017 277.432061 
L 95.918017 277.169137 
L 96.552242 277.169137 
L 96.552242 277.001822 
L 97.16421 277.001822 
L 97.16421 276.7628 
L 97.755429 276.7628 
L 97.755429 276.595485 
L 98.32726 276.595485 
L 98.32726 276.189149 
L 99.41757 276.141344 
L 99.41757 275.974029 
L 100.934985 275.902323 
L 100.934985 275.806714 
L 101.877879 275.735008 
L 101.877879 275.400377 
L 102.772397 275.304769 
L 102.772397 275.161356 
L 103.203018 275.161356 
L 103.203018 275.017943 
L 103.623262 275.017943 
L 103.623262 274.898432 
L 104.033617 274.898432 
L 104.033617 274.635508 
L 104.826449 274.587704 
L 104.826449 274.372585 
L 105.584798 274.276976 
L 105.584798 274.181368 
L 105.951954 274.181368 
L 105.951954 273.99015 
L 106.311539 273.99015 
L 106.311539 273.822835 
L 107.347841 273.798933 
L 107.347841 273.368694 
L 107.680028 273.368694 
L 107.680028 273.010162 
L 108.006005 273.010162 
L 108.006005 272.699434 
L 108.640231 272.627727 
L 108.640231 272.316999 
L 108.948899 272.316999 
L 108.948899 271.815054 
L 109.252198 271.815054 
L 109.252198 271.43262 
L 109.550313 271.43262 
L 109.550313 271.002381 
L 110.415248 270.906772 
L 110.415248 270.739457 
L 119.097192 270.691653 
L 119.097192 270.54824 
L 119.267333 270.54824 
L 119.267333 270.333121 
L 119.602714 270.309218 
L 119.602714 270.165805 
L 119.931767 270.118001 
L 119.931767 269.902882 
L 120.093994 269.902882 
L 120.093994 269.687762 
L 120.41399 269.592154 
L 120.41399 269.568252 
L 120.728219 269.472643 
L 120.728219 269.32923 
L 121.036887 269.305328 
L 121.036887 269.209719 
L 126.168212 269.114111 
L 126.168212 269.042404 
L 126.3947 268.970698 
L 126.3947 268.827285 
L 126.618283 268.755578 
L 126.729009 268.540459 
L 126.948374 268.492655 
L 127.05703 268.32534 
L 127.272333 268.301437 
L 127.272333 268.062416 
L 131.185181 267.990709 
L 131.270459 267.679981 
L 131.355321 267.679981 
L 131.439773 267.393156 
L 131.523818 267.393156 
L 131.60746 267.10633 
L 131.690703 267.10633 
L 131.77355 266.867308 
L 134.870259 266.771699 
L 134.870259 266.699993 
L 135.00812 266.699993 
L 135.076644 266.460971 
L 135.212889 266.413167 
L 135.280614 266.102439 
L 135.348078 266.102439 
L 135.415281 265.88732 
L 135.681535 265.815613 
L 135.681535 265.600494 
L 138.084384 265.504885 
L 138.084384 265.457081 
L 138.256201 265.409277 
L 138.313099 265.265864 
L 138.426341 265.241962 
L 138.482688 265.074646 
L 138.650644 265.00294 
L 138.706272 264.835625 
L 140.89556 264.740016 
L 140.993259 264.500995 
L 141.041904 264.500995 
L 141.138789 264.166365 
L 141.426256 264.070756 
L 141.426256 263.831734 
L 141.662245 263.807832 
L 141.662245 263.712224 
L 141.987354 263.664419 
L 142.07914 263.329789 
L 142.441528 263.234181 
L 142.53096 263.162474 
L 142.619936 263.138572 
L 142.708461 262.971257 
L 143.014805 262.875648 
L 143.101352 262.756137 
L 143.230373 262.708333 
L 143.31586 262.373703 
L 145.059213 262.325899 
L 145.097753 262.086877 
L 145.440832 261.991268 
L 145.516164 261.823953 
L 147.061745 261.728345 
L 147.164632 261.584932 
L 148.607802 261.513225 
L 148.701984 261.369812 
L 148.76449 261.322008 
L 148.857832 260.915672 
L 150.114722 260.843965 
L 150.201126 260.533237 
L 150.287105 260.461531 
L 150.287105 260.413726 
L 150.401087 260.413726 
L 150.401087 260.174705 
L 151.60806 260.102998 
L 151.713753 259.959585 
L 152.712018 259.863977 
L 152.811246 259.720564 
L 152.909913 259.624955 
L 152.934492 259.577151 
L 153.178403 259.505444 
L 153.178403 259.433738 
L 153.418948 259.338129 
L 153.442821 259.242521 
L 153.726778 259.146912 
L 153.820412 259.003499 
L 153.936752 258.907891 
L 154.029268 258.78838 
L 154.05232 258.78838 
L 154.098334 258.57326 
L 155.12447 258.501554 
L 155.210911 258.334239 
L 156.114049 258.262532 
L 156.175347 258.143022 
L 156.337763 258.119119 
L 156.337763 258.023511 
L 157.224197 257.927902 
L 157.28172 257.617174 
L 158.104304 257.545468 
L 158.177196 257.258642 
L 158.267884 257.258642 
L 158.267884 257.139131 
L 159.046236 257.067425 
L 159.149734 256.852305 
L 159.923445 256.756697 
L 159.972732 256.708892 
L 160.233268 256.613284 
L 160.297798 256.374262 
L 160.632719 256.278653 
L 160.711523 256.135241 
L 161.465522 256.039632 
L 161.540659 255.872317 
L 162.854457 255.776708 
L 162.965359 255.561589 
L 163.576373 255.46598 
L 163.669525 255.203056 
L 164.231078 255.155252 
L 164.320806 254.964035 
L 165.022481 254.868426 
L 165.132663 254.748916 
L 165.363008 254.653307 
L 165.471066 254.533796 
L 166.606293 254.438188 
L 166.695783 254.366481 
L 167.201624 254.294775 
L 167.234109 254.175264 
L 167.714267 254.103557 
L 167.787784 253.960144 
L 168.273531 253.864536 
L 168.304082 253.721123 
L 168.9532 253.625514 
L 168.972794 253.506003 
L 169.196565 253.434297 
L 169.244833 253.314786 
L 170.5984 253.219178 
L 170.660731 253.051863 
L 171.116915 252.956254 
L 171.116915 252.884547 
L 171.54458 252.788939 
L 171.54458 252.765037 
L 172.011434 252.741135 
L 172.093501 252.526015 
L 172.288901 252.430407 
L 172.321256 252.239189 
L 173.080293 252.143581 
L 173.149788 252.071874 
L 173.500721 251.976266 
L 173.51582 251.904559 
L 173.911252 251.856755 
L 173.911252 251.761146 
L 174.73962 251.68944 
L 174.83783 251.498222 
L 175.286698 251.402614 
L 175.286698 251.378712 
L 175.962024 251.307005 
L 175.968581 251.211397 
L 176.586878 251.115788 
L 176.637426 250.924571 
L 177.055116 250.852864 
L 177.055116 250.80506 
L 178.12432 250.733354 
L 178.12432 250.661647 
L 178.677451 250.566038 
L 178.716697 250.47043 
L 179.082454 250.374821 
L 179.082454 250.350919 
L 179.770653 250.25531 
L 179.770653 250.231408 
L 180.574258 250.1358 
L 180.574258 250.111897 
L 180.908345 250.016289 
L 180.992105 249.848974 
L 181.766029 249.801169 
L 181.770731 249.657757 
L 182.556562 249.562148 
L 182.6104 249.514344 
L 183.746262 249.418735 
L 183.783996 249.323126 
L 184.15691 249.227518 
L 184.1733 249.179713 
L 185.156672 249.084105 
L 185.191477 248.988496 
L 185.448421 248.892888 
L 185.53576 248.845083 
L 186.113211 248.773377 
L 186.116875 248.70167 
L 186.493798 248.606062 
L 186.493798 248.534355 
L 186.824091 248.438747 
L 186.824091 248.414844 
L 187.698897 248.343138 
L 187.698897 248.295334 
L 187.967837 248.199725 
L 187.967837 248.175823 
L 188.816663 248.104116 
L 188.838617 247.960704 
L 189.881849 247.888997 
L 189.896604 247.793388 
L 190.76544 247.69778 
L 190.76544 247.673878 
L 191.721031 247.578269 
L 191.721031 247.530465 
L 192.919612 247.434856 
L 192.983982 247.36315 
L 193.828138 247.267541 
L 193.828138 247.243639 
L 194.407031 247.171932 
L 194.407031 247.124128 
L 195.61887 247.02852 
L 195.61887 247.004617 
L 196.561763 246.909009 
L 196.662116 246.837302 
L 197.348868 246.741694 
L 197.348868 246.693889 
L 199.248315 246.598281 
L 199.248315 246.574379 
L 200.904651 246.47877 
L 200.979807 246.430966 
L 202.043489 246.335357 
L 202.125612 246.263651 
L 202.644504 246.168042 
L 202.644504 246.14414 
L 204.440399 246.048531 
L 204.440399 246.024629 
L 205.736266 245.92902 
L 205.736266 245.905118 
L 206.942465 245.80951 
L 206.942465 245.785607 
L 208.513353 245.689999 
L 208.513353 245.666097 
L 210.130899 245.570488 
L 210.130899 245.522684 
L 214.837974 245.427075 
L 214.837974 245.403173 
L 338.688 245.403173 
L 338.688 245.403173 
" style="fill:none;stroke:#008000;stroke-linecap:square;stroke-width:1.5;"/>
   </g>
   <g id="line2d_36">
    <defs>
     <path d="M -0 6 
L 6 -6 
L -6 -6 
z
" id="m1bb58039f6" style="stroke:#008000;stroke-linejoin:miter;stroke-width:1.5;"/>
    </defs>
    <g>
     <use style="fill-opacity:0;stroke:#008000;stroke-linejoin:miter;stroke-width:1.5;" x="110.694282" xlink:href="#m1bb58039f6" y="270.739457"/>
     <use style="fill-opacity:0;stroke:#008000;stroke-linejoin:miter;stroke-width:1.5;" x="164.320806" xlink:href="#m1bb58039f6" y="254.964035"/>
     <use style="fill-opacity:0;stroke:#008000;stroke-linejoin:miter;stroke-width:1.5;" x="214.837974" xlink:href="#m1bb58039f6" y="245.427075"/>
     <use style="fill-opacity:0;stroke:#008000;stroke-linejoin:miter;stroke-width:1.5;" x="214.837974" xlink:href="#m1bb58039f6" y="245.403173"/>
     <use style="fill-opacity:0;stroke:#008000;stroke-linejoin:miter;stroke-width:1.5;" x="214.837974" xlink:href="#m1bb58039f6" y="245.403173"/>
     <use style="fill-opacity:0;stroke:#008000;stroke-linejoin:miter;stroke-width:1.5;" x="338.688" xlink:href="#m1bb58039f6" y="245.403173"/>
    </g>
   </g>
   <g id="line2d_37">
    <path style="fill:none;stroke:#008000;stroke-linecap:square;stroke-width:1.5;"/>
    <g/>
   </g>
   <g id="line2d_38">
    <path clip-path="url(#pf11d2490e3)" d="M 140.599134 264.835625 
" style="fill:none;stroke:#008000;stroke-linecap:square;stroke-width:1.5;"/>
    <defs>
     <path d="M -12 12 
L 12 -12 
M -12 -12 
L 12 12 
" id="m8d877f19cd" style="stroke:#008000;"/>
    </defs>
    <g clip-path="url(#pf11d2490e3)">
     <use style="fill:#008000;stroke:#008000;" x="140.599134" xlink:href="#m8d877f19cd" y="264.835625"/>
    </g>
   </g>
   <g id="line2d_39">
    <defs>
     <path d="M 0 1.5 
C 0.397805 1.5 0.77937 1.341951 1.06066 1.06066 
C 1.341951 0.77937 1.5 0.397805 1.5 0 
C 1.5 -0.397805 1.341951 -0.77937 1.06066 -1.06066 
C 0.77937 -1.341951 0.397805 -1.5 0 -1.5 
C -0.397805 -1.5 -0.77937 -1.341951 -1.06066 -1.06066 
C -1.341951 -0.77937 -1.5 -0.397805 -1.5 0 
C -1.5 0.397805 -1.341951 0.77937 -1.06066 1.06066 
C -0.77937 1.341951 -0.397805 1.5 0 1.5 
z
" id="m059f832704" style="stroke:#0000ff;"/>
    </defs>
    <g>
     <use style="fill:#0000ff;stroke:#0000ff;" x="214.312367" xlink:href="#m059f832704" y="265.480983"/>
     <use style="fill:#0000ff;stroke:#0000ff;" x="214.312367" xlink:href="#m059f832704" y="265.480983"/>
    </g>
   </g>
   <g id="line2d_40">
    <path d="M 29.53256 298.944 
L 29.53256 294.808927 
L 41.620548 294.808927 
L 41.620548 293.040168 
L 48.691568 293.040168 
L 48.691568 292.203592 
L 53.708537 292.203592 
L 53.708537 291.29531 
L 57.6 291.29531 
L 57.6 290.769463 
L 60.779557 290.769463 
L 60.779557 290.195811 
L 63.467834 290.195811 
L 63.467834 289.885083 
L 65.796525 289.885083 
L 65.796525 289.287529 
L 67.850577 289.287529 
L 67.850577 288.976801 
L 69.687988 288.976801 
L 69.687988 288.785584 
L 71.35013 288.785584 
L 71.35013 288.40315 
L 72.867545 288.40315 
L 72.867545 287.972911 
L 74.263433 287.972911 
L 74.263433 287.805596 
L 75.555822 287.805596 
L 75.555822 287.662183 
L 76.759008 287.662183 
L 76.759008 287.375357 
L 77.884514 287.375357 
L 77.884514 287.231944 
L 78.941764 287.231944 
L 78.941764 287.016825 
L 79.938565 287.016825 
L 79.938565 286.825607 
L 80.881459 286.825607 
L 80.881459 286.610488 
L 81.775977 286.610488 
L 81.775977 286.443173 
L 82.626842 286.443173 
L 82.626842 286.29976 
L 83.438118 286.29976 
L 83.438118 286.180249 
L 84.213325 286.180249 
L 84.213325 285.941228 
L 85.66744 285.845619 
L 85.66744 285.702206 
L 86.351421 285.702206 
L 86.351421 285.582695 
L 87.009585 285.582695 
L 87.009585 285.367576 
L 88.846997 285.29587 
L 88.846997 285.248065 
L 89.972502 285.152457 
L 89.972502 285.104652 
L 91.029752 285.056848 
L 91.029752 284.961239 
L 91.535274 284.961239 
L 91.535274 284.793924 
L 92.504372 284.74612 
L 92.504372 284.674414 
L 93.863965 284.578805 
L 93.863965 284.531001 
L 95.125186 284.435392 
L 95.125186 284.41149 
L 95.918017 284.387588 
L 95.918017 284.220273 
L 98.43941 284.124664 
L 98.43941 283.718327 
L 98.771596 283.718327 
L 98.771596 283.503208 
L 99.097574 283.503208 
L 99.097574 283.264186 
L 99.731799 283.19248 
L 99.731799 283.025165 
L 100.040467 283.025165 
L 100.040467 282.85785 
L 100.343767 282.85785 
L 100.343767 282.475415 
L 101.223245 282.379807 
L 101.223245 282.355904 
L 110.188761 282.284198 
L 110.188761 282.092981 
L 110.358901 282.092981 
L 110.358901 281.97347 
L 110.694282 281.901764 
L 110.694282 281.830057 
L 111.023335 281.782253 
L 111.023335 281.662742 
L 111.185562 281.662742 
L 111.185562 281.543231 
L 111.663381 281.495427 
L 111.663381 281.399818 
L 117.259781 281.328112 
L 117.259781 281.160797 
L 117.598418 281.065188 
L 117.598418 281.017384 
L 117.709852 281.017384 
L 117.820578 280.75446 
L 118.039942 280.730558 
L 118.148599 280.587145 
L 122.362027 280.539341 
L 122.44689 280.252515 
L 122.699028 280.156906 
L 122.699028 280.0852 
L 123.029641 279.989591 
L 123.111324 279.846178 
L 126.030894 279.846178 
L 126.099688 279.654961 
L 126.372183 279.583255 
L 126.439646 279.368135 
L 126.70692 279.296429 
L 126.773103 279.176918 
L 129.347769 279.081309 
L 129.404667 278.985701 
L 129.79784 278.890092 
L 129.79784 278.842288 
L 131.888878 278.818386 
L 131.938072 278.627168 
L 132.133473 278.579364 
L 132.181982 278.459853 
L 134.149701 278.412049 
L 134.192921 278.149125 
L 134.577155 278.053517 
L 134.577155 278.029614 
L 136.304433 277.934006 
L 136.380754 277.694984 
L 138.049816 277.599376 
L 138.118883 277.479865 
L 138.324456 277.384256 
L 138.392446 277.288648 
L 139.918342 277.193039 
L 140.011351 277.025724 
L 140.256979 276.930115 
L 140.348205 276.738898 
L 141.148448 276.643289 
L 141.177393 276.404268 
L 141.321401 276.332561 
L 141.321401 276.236953 
L 142.539878 276.213051 
L 142.566605 276.09354 
L 143.927534 275.997931 
L 144.001481 275.75891 
L 145.097753 275.663301 
L 145.189903 275.567692 
L 145.304409 275.472084 
L 145.304409 275.448182 
L 146.237689 275.352573 
L 146.345539 275.137454 
L 146.388493 275.065747 
L 146.40993 274.994041 
L 147.266916 274.898432 
L 147.327999 274.826726 
L 148.200145 274.755019 
L 148.258051 274.5399 
L 148.334961 274.515998 
L 148.334961 274.396487 
L 149.177602 274.32478 
L 149.177602 274.276976 
L 149.323233 274.276976 
L 149.323233 274.157465 
L 150.94908 274.061857 
L 150.94908 274.037955 
L 151.928441 273.942346 
L 152.00633 273.846737 
L 152.466496 273.751129 
L 152.55709 273.631618 
L 153.987696 273.536009 
L 154.070741 273.416499 
L 154.761093 273.32089 
L 154.761093 273.296988 
L 155.34833 273.201379 
L 155.412374 273.129673 
L 156.040206 273.034064 
L 156.040206 273.010162 
L 156.550661 272.914553 
L 156.586556 272.842847 
L 157.15106 272.747238 
L 157.208825 272.65163 
L 158.910765 272.556021 
L 158.994256 272.484315 
L 159.778062 272.388706 
L 159.867418 272.269195 
L 160.37492 272.173586 
L 160.37492 272.149684 
L 161.21983 272.077978 
L 161.302112 271.886761 
L 162.165135 271.815054 
L 162.165135 271.743348 
L 162.619242 271.647739 
L 162.619242 271.576033 
L 163.420904 271.480424 
L 163.428979 271.43262 
L 164.202782 271.360913 
L 164.225937 271.289207 
L 165.682828 271.193598 
L 165.697012 271.09799 
L 166.337313 271.002381 
L 166.385083 270.835066 
L 166.742582 270.763359 
L 166.742582 270.691653 
L 168.281683 270.596044 
L 168.281683 270.54824 
L 168.941432 270.452631 
L 168.941432 270.428729 
L 169.740933 270.333121 
L 169.780242 270.261414 
L 170.951613 270.165805 
L 170.951613 270.118001 
L 171.149789 270.022393 
L 171.149789 269.99849 
L 172.848191 269.902882 
L 172.848191 269.87898 
L 173.742239 269.783371 
L 173.791333 269.711665 
L 174.451642 269.616056 
L 174.451642 269.592154 
L 174.842027 269.496545 
L 174.842027 269.472643 
L 175.281243 269.377034 
L 175.281243 269.353132 
L 176.041856 269.257524 
L 176.041856 269.233621 
L 177.016882 269.138013 
L 177.016882 269.066306 
L 177.397923 268.970698 
L 177.397923 268.922893 
L 178.777076 268.827285 
L 178.777076 268.77948 
L 179.25598 268.707774 
L 179.285276 268.588263 
L 180.831127 268.516557 
L 180.831127 268.468752 
L 181.428 268.373144 
L 181.428 268.349242 
L 182.515172 268.277535 
L 182.517875 268.205829 
L 182.939663 268.134122 
L 183.044846 268.014612 
L 183.831675 267.919003 
L 183.941592 267.823394 
L 184.553302 267.727786 
L 184.553302 267.703884 
L 185.825758 267.608275 
L 185.827993 267.560471 
L 186.485909 267.464862 
L 186.485909 267.417058 
L 187.542272 267.345351 
L 187.649305 267.201938 
L 188.622267 267.130232 
L 188.705845 267.058525 
L 190.427661 266.962917 
L 190.427661 266.939015 
L 190.690064 266.89121 
L 190.690064 266.819504 
L 191.581792 266.747797 
L 191.596248 266.676091 
L 193.426593 266.580482 
L 193.426593 266.55658 
L 194.393816 266.460971 
L 194.393816 266.437069 
L 196.15736 266.341461 
L 196.15736 266.317559 
L 197.516984 266.22195 
L 197.516984 266.174146 
L 199.308258 266.078537 
L 199.308258 266.054635 
L 201.128844 265.959026 
L 201.128844 265.935124 
L 202.380357 265.839515 
L 202.418379 265.791711 
L 204.986256 265.696103 
L 204.986256 265.6722 
L 208.049577 265.576592 
L 208.049577 265.55269 
L 338.688 265.480983 
L 338.688 265.480983 
" style="fill:none;stroke:#0000ff;stroke-linecap:square;stroke-width:1.5;"/>
   </g>
   <g id="line2d_41">
    <defs>
     <path d="M 0 -6 
L -1.347084 -1.854102 
L -5.706339 -1.854102 
L -2.179628 0.708204 
L -3.526712 4.854102 
L -0 2.291796 
L 3.526712 4.854102 
L 2.179628 0.708204 
L 5.706339 -1.854102 
L 1.347084 -1.854102 
z
" id="mb7128d2775" style="stroke:#0000ff;stroke-linejoin:bevel;stroke-width:1.5;"/>
    </defs>
    <g>
     <use style="fill-opacity:0;stroke:#0000ff;stroke-linejoin:bevel;stroke-width:1.5;" x="126.773103" xlink:href="#mb7128d2775" y="279.176918"/>
     <use style="fill-opacity:0;stroke:#0000ff;stroke-linejoin:bevel;stroke-width:1.5;" x="186.485909" xlink:href="#mb7128d2775" y="267.417058"/>
     <use style="fill-opacity:0;stroke:#0000ff;stroke-linejoin:bevel;stroke-width:1.5;" x="214.312367" xlink:href="#mb7128d2775" y="265.504885"/>
     <use style="fill-opacity:0;stroke:#0000ff;stroke-linejoin:bevel;stroke-width:1.5;" x="214.312367" xlink:href="#mb7128d2775" y="265.480983"/>
     <use style="fill-opacity:0;stroke:#0000ff;stroke-linejoin:bevel;stroke-width:1.5;" x="214.312367" xlink:href="#mb7128d2775" y="265.480983"/>
     <use style="fill-opacity:0;stroke:#0000ff;stroke-linejoin:bevel;stroke-width:1.5;" x="338.688" xlink:href="#mb7128d2775" y="265.480983"/>
    </g>
   </g>
   <g id="line2d_42">
    <path style="fill:none;stroke:#0000ff;stroke-linecap:square;stroke-width:1.5;"/>
    <g/>
   </g>
   <g id="line2d_43">
    <path clip-path="url(#pf11d2490e3)" d="M 139.572998 277.288648 
" style="fill:none;stroke:#0000ff;stroke-linecap:square;stroke-width:1.5;"/>
    <defs>
     <path d="M -12 12 
L 12 -12 
M -12 -12 
L 12 12 
" id="mc34e459861" style="stroke:#0000ff;"/>
    </defs>
    <g clip-path="url(#pf11d2490e3)">
     <use style="fill:#0000ff;stroke:#0000ff;" x="139.572998" xlink:href="#mc34e459861" y="277.288648"/>
    </g>
   </g>
   <g id="line2d_44">
    <defs>
     <path d="M 0 1.5 
C 0.397805 1.5 0.77937 1.341951 1.06066 1.06066 
C 1.341951 0.77937 1.5 0.397805 1.5 0 
C 1.5 -0.397805 1.341951 -0.77937 1.06066 -1.06066 
C 0.77937 -1.341951 0.397805 -1.5 0 -1.5 
C -0.397805 -1.5 -0.77937 -1.341951 -1.06066 -1.06066 
C -1.341951 -0.77937 -1.5 -0.397805 -1.5 0 
C -1.5 0.397805 -1.341951 0.77937 -1.06066 1.06066 
C -0.77937 1.341951 -0.397805 1.5 0 1.5 
z
" id="m0654989c73" style="stroke:#000000;"/>
    </defs>
    <g>
     <use style="stroke:#000000;" x="208.754207" xlink:href="#m0654989c73" y="280.061298"/>
     <use style="stroke:#000000;" x="208.754207" xlink:href="#m0654989c73" y="280.061298"/>
    </g>
   </g>
   <g id="line2d_45">
    <path d="M 17.444571 298.944 
L 17.444571 295.525992 
L 29.53256 295.525992 
L 29.53256 294.928438 
L 36.60358 294.928438 
L 36.60358 294.498199 
L 41.620548 294.498199 
L 41.620548 293.972352 
L 45.512012 293.972352 
L 45.512012 293.661624 
L 48.691568 293.661624 
L 48.691568 293.518211 
L 51.379845 293.518211 
L 51.379845 293.231385 
L 53.708537 293.231385 
L 53.708537 293.016266 
L 57.6 292.968461 
L 57.6 292.84895 
L 59.262141 292.84895 
L 59.262141 292.705538 
L 62.175444 292.633831 
L 62.175444 292.418712 
L 63.467834 292.418712 
L 63.467834 292.203592 
L 65.796525 292.131886 
L 65.796525 292.036277 
L 66.853775 292.036277 
L 66.853775 291.916766 
L 68.79347 291.84506 
L 68.79347 291.749451 
L 71.35013 291.677745 
L 71.35013 291.582136 
L 74.921597 291.486528 
L 74.921597 291.390919 
L 77.884514 291.343115 
L 77.884514 291.223604 
L 79.938565 291.151897 
L 79.938565 291.104093 
L 83.438118 291.008485 
L 83.438118 290.96068 
L 84.955534 290.865072 
L 84.955534 290.769463 
L 86.351421 290.721659 
L 86.351421 290.578246 
L 86.683608 290.578246 
L 86.683608 290.434833 
L 87.009585 290.434833 
L 87.009585 290.315322 
L 87.952479 290.219713 
L 87.952479 290.195811 
L 98.100772 290.148007 
L 98.100772 289.95679 
L 98.43941 289.885083 
L 98.43941 289.789475 
L 98.935347 289.717768 
L 98.935347 289.574355 
L 105.171792 289.478747 
L 105.171792 289.454844 
L 105.398279 289.359236 
L 105.398279 289.311432 
L 110.016944 289.215823 
L 110.103064 289.144116 
L 110.358901 289.048508 
L 110.443353 288.976801 
L 113.873839 288.881193 
L 113.873839 288.857291 
L 114.485807 288.761682 
L 114.552496 288.689976 
L 117.316679 288.594367 
L 117.373392 288.546563 
L 119.948058 288.498758 
L 120.045484 288.259737 
L 122.148045 288.164128 
L 122.233953 288.116324 
L 124.519744 288.020715 
L 124.519744 287.996813 
L 126.065325 287.925107 
L 126.133984 287.829498 
L 129.347769 287.733889 
L 129.404667 287.662183 
L 130.61164 287.614379 
L 130.69097 287.470966 
L 131.888878 287.375357 
L 131.938072 287.303651 
L 133.147807 287.208042 
L 133.147807 287.18414 
L 135.300881 287.088531 
L 135.300881 287.064629 
L 137.253364 286.96902 
L 137.253364 286.945118 
L 138.976312 286.873412 
L 138.976312 286.777803 
L 139.139602 286.682195 
L 139.220677 286.610488 
L 140.378508 286.562684 
L 140.454035 286.323662 
L 141.220721 286.228054 
L 141.220721 286.204151 
L 141.913576 286.108543 
L 141.913576 286.060738 
L 143.86567 285.96513 
L 143.952218 285.797815 
L 145.598655 285.702206 
L 145.632289 285.606598 
L 146.791364 285.558793 
L 146.791364 285.463185 
L 147.739772 285.367576 
L 147.809113 285.271967 
L 148.676918 285.200261 
L 148.676918 285.128554 
L 150.91602 285.032946 
L 150.91602 285.009044 
L 151.300575 284.937337 
L 151.300575 284.889533 
L 151.692666 284.817826 
L 151.716387 284.698316 
L 152.877907 284.602707 
L 152.900071 284.554903 
L 153.587744 284.507098 
L 153.637357 284.387588 
L 154.621179 284.315881 
L 154.634552 284.244175 
L 155.584129 284.19637 
L 155.584129 284.124664 
L 156.502685 284.052957 
L 156.502685 284.005153 
L 158.042106 283.909545 
L 158.042106 283.885642 
L 159.025463 283.790034 
L 159.025463 283.766132 
L 160.030058 283.694425 
L 160.030058 283.622719 
L 160.793103 283.52711 
L 160.793103 283.503208 
L 161.88512 283.407599 
L 161.88512 283.383697 
L 163.356164 283.288089 
L 163.404741 283.216382 
L 163.953867 283.144676 
L 163.973442 283.001263 
L 164.925189 282.929556 
L 164.925189 282.881752 
L 165.493792 282.786143 
L 165.493792 282.762241 
L 167.181018 282.666632 
L 167.181018 282.618828 
L 167.976454 282.547122 
L 167.976454 282.499317 
L 168.575653 282.427611 
L 168.575653 282.379807 
L 169.897641 282.284198 
L 169.897641 282.260296 
L 170.706004 282.164687 
L 170.706004 282.140785 
L 171.746192 282.045176 
L 171.753708 281.997372 
L 173.632396 281.901764 
L 173.632396 281.877861 
L 175.149812 281.806155 
L 175.260772 281.710546 
L 176.255981 281.614938 
L 176.255981 281.591036 
L 177.721082 281.495427 
L 177.721082 281.447623 
L 179.980262 281.352014 
L 179.984949 281.30421 
L 181.394891 281.208601 
L 181.394891 281.184699 
L 183.050088 281.08909 
L 183.050088 281.065188 
L 184.1286 280.969579 
L 184.1286 280.945677 
L 185.550905 280.850069 
L 185.550905 280.826167 
L 188.659356 280.730558 
L 188.760712 280.682754 
L 190.07562 280.587145 
L 190.07562 280.563243 
L 192.287977 280.467634 
L 192.287977 280.41983 
L 193.837318 280.324221 
L 193.914801 280.252515 
L 199.180892 280.156906 
L 199.180892 280.133004 
L 338.688 280.061298 
L 338.688 280.061298 
" style="fill:none;stroke:#000000;stroke-linecap:square;stroke-width:1.5;"/>
   </g>
   <g id="line2d_46">
    <defs>
     <path d="M 0 6 
C 1.591219 6 3.117479 5.367802 4.242641 4.242641 
C 5.367802 3.117479 6 1.591219 6 0 
C 6 -1.591219 5.367802 -3.117479 4.242641 -4.242641 
C 3.117479 -5.367802 1.591219 -6 0 -6 
C -1.591219 -6 -3.117479 -5.367802 -4.242641 -4.242641 
C -5.367802 -3.117479 -6 -1.591219 -6 0 
C -6 1.591219 -5.367802 3.117479 -4.242641 4.242641 
C -3.117479 5.367802 -1.591219 6 0 6 
z
" id="m41865462d3" style="stroke:#000000;stroke-width:1.5;"/>
    </defs>
    <g>
     <use style="fill-opacity:0;stroke:#000000;stroke-width:1.5;" x="143.952218" xlink:href="#m41865462d3" y="285.797815"/>
     <use style="fill-opacity:0;stroke:#000000;stroke-width:1.5;" x="199.180892" xlink:href="#m41865462d3" y="280.156906"/>
     <use style="fill-opacity:0;stroke:#000000;stroke-width:1.5;" x="208.754207" xlink:href="#m41865462d3" y="280.061298"/>
     <use style="fill-opacity:0;stroke:#000000;stroke-width:1.5;" x="208.754207" xlink:href="#m41865462d3" y="280.061298"/>
     <use style="fill-opacity:0;stroke:#000000;stroke-width:1.5;" x="338.688" xlink:href="#m41865462d3" y="280.061298"/>
    </g>
   </g>
   <g id="line2d_47">
    <path style="fill:none;stroke:#000000;stroke-linecap:square;stroke-width:1.5;"/>
    <g/>
   </g>
   <g id="line2d_48">
    <path clip-path="url(#pf11d2490e3)" d="M 138.761723 286.897314 
" style="fill:none;stroke:#000000;stroke-linecap:square;stroke-width:1.5;"/>
    <defs>
     <path d="M -12 12 
L 12 -12 
M -12 -12 
L 12 12 
" id="mfcd0478332" style="stroke:#000000;"/>
    </defs>
    <g clip-path="url(#pf11d2490e3)">
     <use style="stroke:#000000;" x="138.761723" xlink:href="#mfcd0478332" y="286.897314"/>
    </g>
   </g>
   <g id="line2d_49">
    <defs>
     <path d="M 0 1.5 
C 0.397805 1.5 0.77937 1.341951 1.06066 1.06066 
C 1.341951 0.77937 1.5 0.397805 1.5 0 
C 1.5 -0.397805 1.341951 -0.77937 1.06066 -1.06066 
C 0.77937 -1.341951 0.397805 -1.5 0 -1.5 
C -0.397805 -1.5 -0.77937 -1.341951 -1.06066 -1.06066 
C -1.341951 -0.77937 -1.5 -0.397805 -1.5 0 
C -1.5 0.397805 -1.341951 0.77937 -1.06066 1.06066 
C -0.77937 1.341951 -0.397805 1.5 0 1.5 
z
" id="mef638adea5" style="stroke:#ff0000;"/>
    </defs>
    <g>
     <use style="fill:#ff0000;stroke:#ff0000;" x="216.116797" xlink:href="#mef638adea5" y="289.62216"/>
     <use style="fill:#ff0000;stroke:#ff0000;" x="216.116797" xlink:href="#mef638adea5" y="289.62216"/>
    </g>
   </g>
   <g id="line2d_50">
    <path d="M 5.356583 298.944 
L 5.356583 295.932328 
L 17.444571 295.932328 
L 17.444571 295.430383 
L 24.515591 295.430383 
L 24.515591 295.047949 
L 29.53256 295.047949 
L 29.53256 294.832829 
L 33.424023 294.832829 
L 33.424023 294.689416 
L 36.60358 294.689416 
L 36.60358 294.569906 
L 43.6746 294.474297 
L 43.6746 294.354786 
L 50.087456 294.259178 
L 50.087456 294.235275 
L 52.583031 294.163569 
L 52.583031 294.091863 
L 56.705482 294.044058 
L 56.705482 293.972352 
L 61.491463 293.876743 
L 61.491463 293.852841 
L 65.796525 293.757232 
L 65.796525 293.73333 
L 67.850577 293.637722 
L 67.850577 293.589917 
L 70.538854 293.494309 
L 70.538854 293.470407 
L 73.579452 293.3987 
L 73.579452 293.350896 
L 74.263433 293.350896 
L 74.263433 293.135776 
L 74.921597 293.040168 
L 74.921597 292.944559 
L 76.465904 292.872853 
L 76.465904 292.801146 
L 86.182924 292.72944 
L 86.182924 292.657733 
L 86.351421 292.657733 
L 86.351421 292.51432 
L 87.009585 292.418712 
L 87.009585 292.347005 
L 94.080605 292.251397 
L 94.080605 292.227494 
L 98.100772 292.131886 
L 98.18605 292.060179 
L 98.523051 291.964571 
L 98.523051 291.940669 
L 102.196206 291.84506 
L 102.196206 291.821158 
L 107.860069 291.725549 
L 107.957496 291.677745 
L 113.804498 291.582136 
L 113.839203 291.534332 
L 123.172336 291.438723 
L 123.172336 291.414821 
L 128.290519 291.319213 
L 128.381113 291.271408 
L 132.422528 291.1758 
L 132.422528 291.151897 
L 138.778323 291.056289 
L 138.794909 291.008485 
L 140.011351 290.912876 
L 140.026805 290.841169 
L 143.51512 290.745561 
L 143.51512 290.721659 
L 146.452726 290.62605 
L 146.452726 290.602148 
L 151.469695 290.506539 
L 151.469695 290.482637 
L 154.415949 290.387029 
L 154.415949 290.363126 
L 157.787352 290.29142 
L 157.787352 290.243616 
L 160.030058 290.195811 
L 160.030058 290.124105 
L 164.624359 290.028496 
L 164.624359 290.004594 
L 169.312665 289.908985 
L 169.312665 289.861181 
L 185.458126 289.765573 
L 185.458126 289.74167 
L 216.116797 289.646062 
L 216.116797 289.62216 
L 338.688 289.62216 
L 338.688 289.62216 
" style="fill:none;stroke:#ff0000;stroke-linecap:square;stroke-width:1.5;"/>
   </g>
   <g id="line2d_51">
    <defs>
     <path d="M -6 6 
L 6 6 
L 6 -6 
L -6 -6 
z
" id="m600f8c418e" style="stroke:#ff0000;stroke-linejoin:miter;stroke-width:1.5;"/>
    </defs>
    <g>
     <use style="fill-opacity:0;stroke:#ff0000;stroke-linejoin:miter;stroke-width:1.5;" x="115.617575" xlink:href="#m600f8c418e" y="291.51043"/>
     <use style="fill-opacity:0;stroke:#ff0000;stroke-linejoin:miter;stroke-width:1.5;" x="199.034781" xlink:href="#m600f8c418e" y="289.646062"/>
     <use style="fill-opacity:0;stroke:#ff0000;stroke-linejoin:miter;stroke-width:1.5;" x="216.116797" xlink:href="#m600f8c418e" y="289.62216"/>
     <use style="fill-opacity:0;stroke:#ff0000;stroke-linejoin:miter;stroke-width:1.5;" x="216.116797" xlink:href="#m600f8c418e" y="289.62216"/>
     <use style="fill-opacity:0;stroke:#ff0000;stroke-linejoin:miter;stroke-width:1.5;" x="338.688" xlink:href="#m600f8c418e" y="289.62216"/>
    </g>
   </g>
   <g id="line2d_52">
    <path style="fill:none;stroke:#ff0000;stroke-linecap:square;stroke-width:1.5;"/>
    <g/>
   </g>
   <g id="line2d_53">
    <path clip-path="url(#pf11d2490e3)" d="M 138.341479 291.056289 
" style="fill:none;stroke:#ff0000;stroke-linecap:square;stroke-width:1.5;"/>
    <defs>
     <path d="M -12 12 
L 12 -12 
M -12 -12 
L 12 12 
" id="mdbe76c8d62" style="stroke:#ff0000;"/>
    </defs>
    <g clip-path="url(#pf11d2490e3)">
     <use style="fill:#ff0000;stroke:#ff0000;" x="138.341479" xlink:href="#mdbe76c8d62" y="291.056289"/>
    </g>
   </g>
   <g id="line2d_54">
    <defs>
     <path d="M 0 1.5 
C 0.397805 1.5 0.77937 1.341951 1.06066 1.06066 
C 1.341951 0.77937 1.5 0.397805 1.5 0 
C 1.5 -0.397805 1.341951 -0.77937 1.06066 -1.06066 
C 0.77937 -1.341951 0.397805 -1.5 0 -1.5 
C -0.397805 -1.5 -0.77937 -1.341951 -1.06066 -1.06066 
C -1.341951 -0.77937 -1.5 -0.397805 -1.5 0 
C -1.5 0.397805 -1.341951 0.77937 -1.06066 1.06066 
C -0.77937 1.341951 -0.397805 1.5 0 1.5 
z
" id="mfff4580ae6" style="stroke:#bf00bf;"/>
    </defs>
    <g>
     <use style="fill:#bf00bf;stroke:#bf00bf;" x="203.974219" xlink:href="#mfff4580ae6" y="291.29531"/>
     <use style="fill:#bf00bf;stroke:#bf00bf;" x="203.974219" xlink:href="#mfff4580ae6" y="291.29531"/>
    </g>
   </g>
   <g id="line2d_55">
    <path d="M -1 296.075741 
L 5.356583 296.075741 
L 5.356583 295.812818 
L 17.444571 295.741111 
L 17.444571 295.573796 
L 24.515591 295.525992 
L 24.515591 295.430383 
L 27.203868 295.430383 
L 27.203868 295.239166 
L 31.586611 295.191362 
L 31.586611 295.095753 
L 35.086164 295.071851 
L 35.086164 294.976242 
L 40.495043 294.904536 
L 40.495043 294.856732 
L 47.949359 294.761123 
L 47.949359 294.713319 
L 51.379845 294.61771 
L 51.379845 294.593808 
L 56.705482 294.498199 
L 56.705482 294.450395 
L 62.175444 294.378688 
L 62.175444 294.28308 
L 62.833608 294.211373 
L 62.833608 294.06796 
L 63.467834 293.996254 
L 63.467834 293.94845 
L 64.079801 293.876743 
L 64.079801 293.805037 
L 74.430317 293.709428 
L 74.430317 293.661624 
L 74.921597 293.589917 
L 74.921597 293.518211 
L 89.697862 293.422602 
L 89.697862 293.374798 
L 90.175681 293.279189 
L 90.242884 293.231385 
L 95.869507 293.135776 
L 95.869507 293.111874 
L 107.589306 293.016266 
L 107.589306 292.992363 
L 114.668593 292.896755 
L 114.668593 292.872853 
L 123.613353 292.777244 
L 123.613353 292.753342 
L 136.361705 292.657733 
L 136.361705 292.633831 
L 139.180187 292.538222 
L 139.212587 292.466516 
L 142.529845 292.370907 
L 142.529845 292.347005 
L 148.880315 292.275299 
L 148.880315 292.227494 
L 151.57158 292.131886 
L 151.57158 292.107984 
L 157.647321 292.012375 
L 157.647321 291.988473 
L 166.88223 291.892864 
L 166.88223 291.84506 
L 169.555835 291.749451 
L 169.555835 291.725549 
L 177.627444 291.629941 
L 177.737972 291.558234 
L 182.440695 291.462626 
L 182.440695 291.438723 
L 196.664718 291.343115 
L 196.664718 291.319213 
L 338.688 291.29531 
L 338.688 291.29531 
" style="fill:none;stroke:#bf00bf;stroke-linecap:square;stroke-width:1.5;"/>
   </g>
   <g id="line2d_56">
    <defs>
     <path d="M -0 8.485281 
L 8.485281 0 
L 0 -8.485281 
L -8.485281 -0 
z
" id="mc1c59f8d63" style="stroke:#bf00bf;stroke-linejoin:miter;stroke-width:1.5;"/>
    </defs>
    <g>
     <use style="fill-opacity:0;stroke:#bf00bf;stroke-linejoin:miter;stroke-width:1.5;" x="146.659865" xlink:href="#mc1c59f8d63" y="292.347005"/>
     <use style="fill-opacity:0;stroke:#bf00bf;stroke-linejoin:miter;stroke-width:1.5;" x="203.974219" xlink:href="#mc1c59f8d63" y="291.319213"/>
     <use style="fill-opacity:0;stroke:#bf00bf;stroke-linejoin:miter;stroke-width:1.5;" x="203.974219" xlink:href="#mc1c59f8d63" y="291.29531"/>
     <use style="fill-opacity:0;stroke:#bf00bf;stroke-linejoin:miter;stroke-width:1.5;" x="203.974219" xlink:href="#mc1c59f8d63" y="291.29531"/>
     <use style="fill-opacity:0;stroke:#bf00bf;stroke-linejoin:miter;stroke-width:1.5;" x="338.688" xlink:href="#mc1c59f8d63" y="291.29531"/>
    </g>
   </g>
   <g id="line2d_57">
    <path style="fill:none;stroke:#bf00bf;stroke-linecap:square;stroke-width:1.5;"/>
    <g/>
   </g>
   <g id="line2d_58">
    <path clip-path="url(#pf11d2490e3)" d="M 138.127497 292.633831 
" style="fill:none;stroke:#bf00bf;stroke-linecap:square;stroke-width:1.5;"/>
    <defs>
     <path d="M -12 12 
L 12 -12 
M -12 -12 
L 12 12 
" id="m28a7e0e150" style="stroke:#bf00bf;"/>
    </defs>
    <g clip-path="url(#pf11d2490e3)">
     <use style="fill:#bf00bf;stroke:#bf00bf;" x="138.127497" xlink:href="#m28a7e0e150" y="292.633831"/>
    </g>
   </g>
   <g id="line2d_59">
    <path d="M 338.688 291.29531 
L 369.60768 293.092752 
" style="fill:none;stroke:#bf00bf;stroke-linecap:square;stroke-width:1.5;"/>
    <g>
     <use style="fill-opacity:0;stroke:#bf00bf;stroke-linejoin:miter;stroke-width:1.5;" x="338.688" xlink:href="#mc1c59f8d63" y="291.29531"/>
     <use style="fill-opacity:0;stroke:#bf00bf;stroke-linejoin:miter;stroke-width:1.5;" x="369.60768" xlink:href="#mc1c59f8d63" y="293.092752"/>
    </g>
   </g>
   <g id="line2d_60">
    <path d="M 338.688 289.62216 
L 369.60768 236.920776 
" style="fill:none;stroke:#ff0000;stroke-linecap:square;stroke-width:1.5;"/>
    <g>
     <use style="fill-opacity:0;stroke:#ff0000;stroke-linejoin:miter;stroke-width:1.5;" x="338.688" xlink:href="#m600f8c418e" y="289.62216"/>
     <use style="fill-opacity:0;stroke:#ff0000;stroke-linejoin:miter;stroke-width:1.5;" x="369.60768" xlink:href="#m600f8c418e" y="236.920776"/>
    </g>
   </g>
   <g id="line2d_61">
    <path d="M 338.688 280.061298 
L 369.60768 180.7488 
" style="fill:none;stroke:#000000;stroke-linecap:square;stroke-width:1.5;"/>
    <g>
     <use style="fill-opacity:0;stroke:#000000;stroke-width:1.5;" x="338.688" xlink:href="#m41865462d3" y="280.061298"/>
     <use style="fill-opacity:0;stroke:#000000;stroke-width:1.5;" x="369.60768" xlink:href="#m41865462d3" y="180.7488"/>
    </g>
   </g>
   <g id="line2d_62">
    <path d="M 338.688 265.480983 
L 369.60768 124.576824 
" style="fill:none;stroke:#0000ff;stroke-linecap:square;stroke-width:1.5;"/>
    <g>
     <use style="fill-opacity:0;stroke:#0000ff;stroke-linejoin:bevel;stroke-width:1.5;" x="338.688" xlink:href="#mb7128d2775" y="265.480983"/>
     <use style="fill-opacity:0;stroke:#0000ff;stroke-linejoin:bevel;stroke-width:1.5;" x="369.60768" xlink:href="#mb7128d2775" y="124.576824"/>
    </g>
   </g>
   <g id="line2d_63">
    <path d="M 338.688 245.403173 
L 369.60768 68.404848 
" style="fill:none;stroke:#008000;stroke-linecap:square;stroke-width:1.5;"/>
    <g>
     <use style="fill-opacity:0;stroke:#008000;stroke-linejoin:miter;stroke-width:1.5;" x="338.688" xlink:href="#m1bb58039f6" y="245.403173"/>
     <use style="fill-opacity:0;stroke:#008000;stroke-linejoin:miter;stroke-width:1.5;" x="369.60768" xlink:href="#m1bb58039f6" y="68.404848"/>
    </g>
   </g>
   <g id="line2d_64">
    <path d="M 338.688 212.418199 
L 369.60768 12.232871 
" style="fill:none;stroke:#00bfbf;stroke-linecap:square;stroke-width:1.5;"/>
    <g>
     <use style="fill-opacity:0;stroke:#00bfbf;stroke-width:1.5;" x="338.688" xlink:href="#md859292e9e" y="212.418199"/>
     <use style="fill-opacity:0;stroke:#00bfbf;stroke-width:1.5;" x="369.60768" xlink:href="#md859292e9e" y="12.232871"/>
    </g>
   </g>
   <g id="line2d_65">
    <path d="M 338.688 298.944 
L 338.688 6.381624 
" style="fill:none;stroke:#000000;stroke-linecap:square;stroke-width:1.5;"/>
   </g>
   <g id="patch_3">
    <path d="M 57.6 298.944 
L 57.6 3.456 
" style="fill:none;stroke:#000000;stroke-linecap:square;stroke-linejoin:miter;stroke-width:0.8;"/>
   </g>
   <g id="patch_4">
    <path d="M 338.688 298.944 
L 338.688 3.456 
" style="fill:none;stroke:#000000;stroke-linecap:square;stroke-linejoin:miter;stroke-width:0.8;"/>
   </g>
   <g id="patch_5">
    <path d="M 57.6 298.944 
L 338.688 298.944 
" style="fill:none;stroke:#000000;stroke-linecap:square;stroke-linejoin:miter;stroke-width:0.8;"/>
   </g>
   <g id="patch_6">
    <path d="M 57.6 3.456 
L 338.688 3.456 
" style="fill:none;stroke:#000000;stroke-linecap:square;stroke-linejoin:miter;stroke-width:0.8;"/>
   </g>
   <g id="text_13">
    <!-- 40-D -->
    <defs>
     <path d="M 19.671875 64.796875 
L 19.671875 8.109375 
L 31.59375 8.109375 
Q 46.6875 8.109375 53.6875 14.9375 
Q 60.6875 21.78125 60.6875 36.53125 
Q 60.6875 51.171875 53.6875 57.984375 
Q 46.6875 64.796875 31.59375 64.796875 
z
M 9.8125 72.90625 
L 30.078125 72.90625 
Q 51.265625 72.90625 61.171875 64.09375 
Q 71.09375 55.28125 71.09375 36.53125 
Q 71.09375 17.671875 61.125 8.828125 
Q 51.171875 0 30.078125 0 
L 9.8125 0 
z
" id="DejaVuSans-68"/>
    </defs>
    <g transform="translate(375.22944 297.78369)scale(0.17 -0.17)">
     <use xlink:href="#DejaVuSans-52"/>
     <use x="63.623047" xlink:href="#DejaVuSans-48"/>
     <use x="127.246094" xlink:href="#DejaVuSans-45"/>
     <use x="163.330078" xlink:href="#DejaVuSans-68"/>
    </g>
   </g>
   <g id="text_14">
    <!-- 20-D -->
    <g transform="translate(375.22944 241.611714)scale(0.17 -0.17)">
     <use xlink:href="#DejaVuSans-50"/>
     <use x="63.623047" xlink:href="#DejaVuSans-48"/>
     <use x="127.246094" xlink:href="#DejaVuSans-45"/>
     <use x="163.330078" xlink:href="#DejaVuSans-68"/>
    </g>
   </g>
   <g id="text_15">
    <!-- 10-D -->
    <g transform="translate(375.22944 185.439737)scale(0.17 -0.17)">
     <use xlink:href="#DejaVuSans-49"/>
     <use x="63.623047" xlink:href="#DejaVuSans-48"/>
     <use x="127.246094" xlink:href="#DejaVuSans-45"/>
     <use x="163.330078" xlink:href="#DejaVuSans-68"/>
    </g>
   </g>
   <g id="text_16">
    <!-- 5-D -->
    <defs>
     <path d="M 10.796875 72.90625 
L 49.515625 72.90625 
L 49.515625 64.59375 
L 19.828125 64.59375 
L 19.828125 46.734375 
Q 21.96875 47.46875 24.109375 47.828125 
Q 26.265625 48.1875 28.421875 48.1875 
Q 40.625 48.1875 47.75 41.5 
Q 54.890625 34.8125 54.890625 23.390625 
Q 54.890625 11.625 47.5625 5.09375 
Q 40.234375 -1.421875 26.90625 -1.421875 
Q 22.3125 -1.421875 17.546875 -0.640625 
Q 12.796875 0.140625 7.71875 1.703125 
L 7.71875 11.625 
Q 12.109375 9.234375 16.796875 8.0625 
Q 21.484375 6.890625 26.703125 6.890625 
Q 35.15625 6.890625 40.078125 11.328125 
Q 45.015625 15.765625 45.015625 23.390625 
Q 45.015625 31 40.078125 35.4375 
Q 35.15625 39.890625 26.703125 39.890625 
Q 22.75 39.890625 18.8125 39.015625 
Q 14.890625 38.140625 10.796875 36.28125 
z
" id="DejaVuSans-53"/>
    </defs>
    <g transform="translate(375.22944 129.267761)scale(0.17 -0.17)">
     <use xlink:href="#DejaVuSans-53"/>
     <use x="63.623047" xlink:href="#DejaVuSans-45"/>
     <use x="99.707031" xlink:href="#DejaVuSans-68"/>
    </g>
   </g>
   <g id="text_17">
    <!-- 3-D -->
    <defs>
     <path d="M 40.578125 39.3125 
Q 47.65625 37.796875 51.625 33 
Q 55.609375 28.21875 55.609375 21.1875 
Q 55.609375 10.40625 48.1875 4.484375 
Q 40.765625 -1.421875 27.09375 -1.421875 
Q 22.515625 -1.421875 17.65625 -0.515625 
Q 12.796875 0.390625 7.625 2.203125 
L 7.625 11.71875 
Q 11.71875 9.328125 16.59375 8.109375 
Q 21.484375 6.890625 26.8125 6.890625 
Q 36.078125 6.890625 40.9375 10.546875 
Q 45.796875 14.203125 45.796875 21.1875 
Q 45.796875 27.640625 41.28125 31.265625 
Q 36.765625 34.90625 28.71875 34.90625 
L 20.21875 34.90625 
L 20.21875 43.015625 
L 29.109375 43.015625 
Q 36.375 43.015625 40.234375 45.921875 
Q 44.09375 48.828125 44.09375 54.296875 
Q 44.09375 59.90625 40.109375 62.90625 
Q 36.140625 65.921875 28.71875 65.921875 
Q 24.65625 65.921875 20.015625 65.03125 
Q 15.375 64.15625 9.8125 62.3125 
L 9.8125 71.09375 
Q 15.4375 72.65625 20.34375 73.4375 
Q 25.25 74.21875 29.59375 74.21875 
Q 40.828125 74.21875 47.359375 69.109375 
Q 53.90625 64.015625 53.90625 55.328125 
Q 53.90625 49.265625 50.4375 45.09375 
Q 46.96875 40.921875 40.578125 39.3125 
z
" id="DejaVuSans-51"/>
    </defs>
    <g transform="translate(375.22944 73.095785)scale(0.17 -0.17)">
     <use xlink:href="#DejaVuSans-51"/>
     <use x="63.623047" xlink:href="#DejaVuSans-45"/>
     <use x="99.707031" xlink:href="#DejaVuSans-68"/>
    </g>
   </g>
   <g id="text_18">
    <!-- 2-D -->
    <g transform="translate(375.22944 16.923809)scale(0.17 -0.17)">
     <use xlink:href="#DejaVuSans-50"/>
     <use x="63.623047" xlink:href="#DejaVuSans-45"/>
     <use x="99.707031" xlink:href="#DejaVuSans-68"/>
    </g>
   </g>
   <g id="text_19">
    <!-- bbob f1-f24 -->
    <defs>
     <path d="M 48.6875 27.296875 
Q 48.6875 37.203125 44.609375 42.84375 
Q 40.53125 48.484375 33.40625 48.484375 
Q 26.265625 48.484375 22.1875 42.84375 
Q 18.109375 37.203125 18.109375 27.296875 
Q 18.109375 17.390625 22.1875 11.75 
Q 26.265625 6.109375 33.40625 6.109375 
Q 40.53125 6.109375 44.609375 11.75 
Q 48.6875 17.390625 48.6875 27.296875 
z
M 18.109375 46.390625 
Q 20.953125 51.265625 25.265625 53.625 
Q 29.59375 56 35.59375 56 
Q 45.5625 56 51.78125 48.09375 
Q 58.015625 40.1875 58.015625 27.296875 
Q 58.015625 14.40625 51.78125 6.484375 
Q 45.5625 -1.421875 35.59375 -1.421875 
Q 29.59375 -1.421875 25.265625 0.953125 
Q 20.953125 3.328125 18.109375 8.203125 
L 18.109375 0 
L 9.078125 0 
L 9.078125 75.984375 
L 18.109375 75.984375 
z
" id="DejaVuSans-98"/>
    </defs>
    <g transform="translate(60.41088 14.161286)scale(0.102 -0.102)">
     <use xlink:href="#DejaVuSans-98"/>
     <use x="63.476562" xlink:href="#DejaVuSans-98"/>
     <use x="126.953125" xlink:href="#DejaVuSans-111"/>
     <use x="188.134766" xlink:href="#DejaVuSans-98"/>
     <use x="251.611328" xlink:href="#DejaVuSans-32"/>
     <use x="283.398438" xlink:href="#DejaVuSans-102"/>
     <use x="318.603516" xlink:href="#DejaVuSans-49"/>
     <use x="382.226562" xlink:href="#DejaVuSans-45"/>
     <use x="418.310547" xlink:href="#DejaVuSans-102"/>
     <use x="453.515625" xlink:href="#DejaVuSans-50"/>
     <use x="517.138672" xlink:href="#DejaVuSans-52"/>
    </g>
    <!-- 51 targets: 100..1e-08 -->
    <defs>
     <path d="M 11.71875 12.40625 
L 22.015625 12.40625 
L 22.015625 0 
L 11.71875 0 
z
M 11.71875 51.703125 
L 22.015625 51.703125 
L 22.015625 39.3125 
L 11.71875 39.3125 
z
" id="DejaVuSans-58"/>
    </defs>
    <g transform="translate(60.41088 25.583055)scale(0.102 -0.102)">
     <use xlink:href="#DejaVuSans-53"/>
     <use x="63.623047" xlink:href="#DejaVuSans-49"/>
     <use x="127.246094" xlink:href="#DejaVuSans-32"/>
     <use x="159.033203" xlink:href="#DejaVuSans-116"/>
     <use x="198.242188" xlink:href="#DejaVuSans-97"/>
     <use x="259.521484" xlink:href="#DejaVuSans-114"/>
     <use x="300.619141" xlink:href="#DejaVuSans-103"/>
     <use x="364.095703" xlink:href="#DejaVuSans-101"/>
     <use x="425.619141" xlink:href="#DejaVuSans-116"/>
     <use x="464.828125" xlink:href="#DejaVuSans-115"/>
     <use x="516.927734" xlink:href="#DejaVuSans-58"/>
     <use x="550.619141" xlink:href="#DejaVuSans-32"/>
     <use x="582.40625" xlink:href="#DejaVuSans-49"/>
     <use x="646.029297" xlink:href="#DejaVuSans-48"/>
     <use x="709.652344" xlink:href="#DejaVuSans-48"/>
     <use x="773.275391" xlink:href="#DejaVuSans-46"/>
     <use x="805.0625" xlink:href="#DejaVuSans-46"/>
     <use x="836.849609" xlink:href="#DejaVuSans-49"/>
     <use x="900.472656" xlink:href="#DejaVuSans-101"/>
     <use x="961.996094" xlink:href="#DejaVuSans-45"/>
     <use x="998.080078" xlink:href="#DejaVuSans-48"/>
     <use x="1061.703125" xlink:href="#DejaVuSans-56"/>
    </g>
    <!-- 15 instances -->
    <g transform="translate(60.41088 37.004824)scale(0.102 -0.102)">
     <use xlink:href="#DejaVuSans-49"/>
     <use x="63.623047" xlink:href="#DejaVuSans-53"/>
     <use x="127.246094" xlink:href="#DejaVuSans-32"/>
     <use x="159.033203" xlink:href="#DejaVuSans-105"/>
     <use x="186.816406" xlink:href="#DejaVuSans-110"/>
     <use x="250.195312" xlink:href="#DejaVuSans-115"/>
     <use x="302.294922" xlink:href="#DejaVuSans-116"/>
     <use x="341.503906" xlink:href="#DejaVuSans-97"/>
     <use x="402.783203" xlink:href="#DejaVuSans-110"/>
     <use x="466.162109" xlink:href="#DejaVuSans-99"/>
     <use x="521.142578" xlink:href="#DejaVuSans-101"/>
     <use x="582.666016" xlink:href="#DejaVuSans-115"/>
    </g>
   </g>
   <g id="text_20">
    <!-- v2.4 -->
    <g style="fill:#808080;" transform="translate(187.233062 293.909432)scale(0.1 -0.1)">
     <use xlink:href="#DejaVuSans-118"/>
     <use x="59.179688" xlink:href="#DejaVuSans-50"/>
     <use x="122.802734" xlink:href="#DejaVuSans-46"/>
     <use x="154.589844" xlink:href="#DejaVuSans-52"/>
    </g>
   </g>
  </g>
 </g>
 <defs>
  <clipPath id="pf11d2490e3">
   <rect height="295.488" width="281.088" x="57.6" y="3.456"/>
  </clipPath>
 </defs>
</svg>
