<?xml version="1.0" encoding="utf-8" standalone="no"?>
<!DOCTYPE svg PUBLIC "-//W3C//DTD SVG 1.1//EN"
  "http://www.w3.org/Graphics/SVG/1.1/DTD/svg11.dtd">
<!-- Created with matplotlib (https://matplotlib.org/) -->
<svg height="345.6pt" version="1.1" viewBox="0 0 460.8 345.6" width="460.8pt" xmlns="http://www.w3.org/2000/svg" xmlns:xlink="http://www.w3.org/1999/xlink">
 <defs>
  <style type="text/css">
*{stroke-linecap:butt;stroke-linejoin:round;}
  </style>
 </defs>
 <g id="figure_1">
  <g id="patch_1">
   <path d="M 0 345.6 
L 460.8 345.6 
L 460.8 0 
L 0 0 
z
" style="fill:#ffffff;"/>
  </g>
  <g id="axes_1">
   <g id="patch_2">
    <path d="M 57.6 298.944 
L 338.688 298.944 
L 338.688 3.456 
L 57.6 3.456 
z
" style="fill:#ffffff;"/>
   </g>
   <g id="matplotlib.axis_1">
    <g id="xtick_1">
     <g id="line2d_1">
      <path clip-path="url(#pb7e41760c6)" d="M 57.6 298.944 
L 57.6 3.456 
" style="fill:none;stroke:#b0b0b0;stroke-linecap:square;stroke-width:0.8;"/>
     </g>
     <g id="line2d_2">
      <defs>
       <path d="M 0 0 
L 0 3.5 
" id="m367a9172f0" style="stroke:#000000;stroke-width:0.8;"/>
      </defs>
      <g>
       <use style="stroke:#000000;stroke-width:0.8;" x="57.6" xlink:href="#m367a9172f0" y="298.944"/>
      </g>
     </g>
     <g id="text_1">
      <!-- 0 -->
      <defs>
       <path d="M 31.78125 66.40625 
Q 24.171875 66.40625 20.328125 58.90625 
Q 16.5 51.421875 16.5 36.375 
Q 16.5 21.390625 20.328125 13.890625 
Q 24.171875 6.390625 31.78125 6.390625 
Q 39.453125 6.390625 43.28125 13.890625 
Q 47.125 21.390625 47.125 36.375 
Q 47.125 51.421875 43.28125 58.90625 
Q 39.453125 66.40625 31.78125 66.40625 
z
M 31.78125 74.21875 
Q 44.046875 74.21875 50.515625 64.515625 
Q 56.984375 54.828125 56.984375 36.375 
Q 56.984375 17.96875 50.515625 8.265625 
Q 44.046875 -1.421875 31.78125 -1.421875 
Q 19.53125 -1.421875 13.0625 8.265625 
Q 6.59375 17.96875 6.59375 36.375 
Q 6.59375 54.828125 13.0625 64.515625 
Q 19.53125 74.21875 31.78125 74.21875 
z
" id="DejaVuSans-48"/>
      </defs>
      <g transform="translate(51.2375 321.140875)scale(0.2 -0.2)">
       <use xlink:href="#DejaVuSans-48"/>
      </g>
     </g>
    </g>
    <g id="xtick_2">
     <g id="line2d_3">
      <path clip-path="url(#pb7e41760c6)" d="M 137.910857 298.944 
L 137.910857 3.456 
" style="fill:none;stroke:#b0b0b0;stroke-linecap:square;stroke-width:0.8;"/>
     </g>
     <g id="line2d_4">
      <g>
       <use style="stroke:#000000;stroke-width:0.8;" x="137.910857" xlink:href="#m367a9172f0" y="298.944"/>
      </g>
     </g>
     <g id="text_2">
      <!-- 2 -->
      <defs>
       <path d="M 19.1875 8.296875 
L 53.609375 8.296875 
L 53.609375 0 
L 7.328125 0 
L 7.328125 8.296875 
Q 12.9375 14.109375 22.625 23.890625 
Q 32.328125 33.6875 34.8125 36.53125 
Q 39.546875 41.84375 41.421875 45.53125 
Q 43.3125 49.21875 43.3125 52.78125 
Q 43.3125 58.59375 39.234375 62.25 
Q 35.15625 65.921875 28.609375 65.921875 
Q 23.96875 65.921875 18.8125 64.3125 
Q 13.671875 62.703125 7.8125 59.421875 
L 7.8125 69.390625 
Q 13.765625 71.78125 18.9375 73 
Q 24.125 74.21875 28.421875 74.21875 
Q 39.75 74.21875 46.484375 68.546875 
Q 53.21875 62.890625 53.21875 53.421875 
Q 53.21875 48.921875 51.53125 44.890625 
Q 49.859375 40.875 45.40625 35.40625 
Q 44.1875 33.984375 37.640625 27.21875 
Q 31.109375 20.453125 19.1875 8.296875 
z
" id="DejaVuSans-50"/>
      </defs>
      <g transform="translate(131.548357 321.140875)scale(0.2 -0.2)">
       <use xlink:href="#DejaVuSans-50"/>
      </g>
     </g>
    </g>
    <g id="xtick_3">
     <g id="line2d_5">
      <path clip-path="url(#pb7e41760c6)" d="M 218.221714 298.944 
L 218.221714 3.456 
" style="fill:none;stroke:#b0b0b0;stroke-linecap:square;stroke-width:0.8;"/>
     </g>
     <g id="line2d_6">
      <g>
       <use style="stroke:#000000;stroke-width:0.8;" x="218.221714" xlink:href="#m367a9172f0" y="298.944"/>
      </g>
     </g>
     <g id="text_3">
      <!-- 4 -->
      <defs>
       <path d="M 37.796875 64.3125 
L 12.890625 25.390625 
L 37.796875 25.390625 
z
M 35.203125 72.90625 
L 47.609375 72.90625 
L 47.609375 25.390625 
L 58.015625 25.390625 
L 58.015625 17.1875 
L 47.609375 17.1875 
L 47.609375 0 
L 37.796875 0 
L 37.796875 17.1875 
L 4.890625 17.1875 
L 4.890625 26.703125 
z
" id="DejaVuSans-52"/>
      </defs>
      <g transform="translate(211.859214 321.140875)scale(0.2 -0.2)">
       <use xlink:href="#DejaVuSans-52"/>
      </g>
     </g>
    </g>
    <g id="xtick_4">
     <g id="line2d_7">
      <path clip-path="url(#pb7e41760c6)" d="M 298.532571 298.944 
L 298.532571 3.456 
" style="fill:none;stroke:#b0b0b0;stroke-linecap:square;stroke-width:0.8;"/>
     </g>
     <g id="line2d_8">
      <g>
       <use style="stroke:#000000;stroke-width:0.8;" x="298.532571" xlink:href="#m367a9172f0" y="298.944"/>
      </g>
     </g>
     <g id="text_4">
      <!-- 6 -->
      <defs>
       <path d="M 33.015625 40.375 
Q 26.375 40.375 22.484375 35.828125 
Q 18.609375 31.296875 18.609375 23.390625 
Q 18.609375 15.53125 22.484375 10.953125 
Q 26.375 6.390625 33.015625 6.390625 
Q 39.65625 6.390625 43.53125 10.953125 
Q 47.40625 15.53125 47.40625 23.390625 
Q 47.40625 31.296875 43.53125 35.828125 
Q 39.65625 40.375 33.015625 40.375 
z
M 52.59375 71.296875 
L 52.59375 62.3125 
Q 48.875 64.0625 45.09375 64.984375 
Q 41.3125 65.921875 37.59375 65.921875 
Q 27.828125 65.921875 22.671875 59.328125 
Q 17.53125 52.734375 16.796875 39.40625 
Q 19.671875 43.65625 24.015625 45.921875 
Q 28.375 48.1875 33.59375 48.1875 
Q 44.578125 48.1875 50.953125 41.515625 
Q 57.328125 34.859375 57.328125 23.390625 
Q 57.328125 12.15625 50.6875 5.359375 
Q 44.046875 -1.421875 33.015625 -1.421875 
Q 20.359375 -1.421875 13.671875 8.265625 
Q 6.984375 17.96875 6.984375 36.375 
Q 6.984375 53.65625 15.1875 63.9375 
Q 23.390625 74.21875 37.203125 74.21875 
Q 40.921875 74.21875 44.703125 73.484375 
Q 48.484375 72.75 52.59375 71.296875 
z
" id="DejaVuSans-54"/>
      </defs>
      <g transform="translate(292.170071 321.140875)scale(0.2 -0.2)">
       <use xlink:href="#DejaVuSans-54"/>
      </g>
     </g>
    </g>
    <g id="xtick_5">
     <g id="line2d_9">
      <path clip-path="url(#pb7e41760c6)" d="M 97.755429 298.944 
L 97.755429 3.456 
" style="fill:none;stroke:#b0b0b0;stroke-linecap:square;stroke-width:0.8;"/>
     </g>
     <g id="line2d_10">
      <defs>
       <path d="M 0 0 
L 0 2 
" id="mf22a4b283b" style="stroke:#000000;stroke-width:0.6;"/>
      </defs>
      <g>
       <use style="stroke:#000000;stroke-width:0.6;" x="97.755429" xlink:href="#mf22a4b283b" y="298.944"/>
      </g>
     </g>
    </g>
    <g id="xtick_6">
     <g id="line2d_11">
      <path clip-path="url(#pb7e41760c6)" d="M 178.066286 298.944 
L 178.066286 3.456 
" style="fill:none;stroke:#b0b0b0;stroke-linecap:square;stroke-width:0.8;"/>
     </g>
     <g id="line2d_12">
      <g>
       <use style="stroke:#000000;stroke-width:0.6;" x="178.066286" xlink:href="#mf22a4b283b" y="298.944"/>
      </g>
     </g>
    </g>
    <g id="xtick_7">
     <g id="line2d_13">
      <path clip-path="url(#pb7e41760c6)" d="M 258.377143 298.944 
L 258.377143 3.456 
" style="fill:none;stroke:#b0b0b0;stroke-linecap:square;stroke-width:0.8;"/>
     </g>
     <g id="line2d_14">
      <g>
       <use style="stroke:#000000;stroke-width:0.6;" x="258.377143" xlink:href="#mf22a4b283b" y="298.944"/>
      </g>
     </g>
    </g>
    <g id="xtick_8">
     <g id="line2d_15">
      <path clip-path="url(#pb7e41760c6)" d="M 338.688 298.944 
L 338.688 3.456 
" style="fill:none;stroke:#b0b0b0;stroke-linecap:square;stroke-width:0.8;"/>
     </g>
     <g id="line2d_16">
      <g>
       <use style="stroke:#000000;stroke-width:0.6;" x="338.688" xlink:href="#mf22a4b283b" y="298.944"/>
      </g>
     </g>
    </g>
    <g id="text_5">
     <!-- log10(# f-evals / dimension) -->
     <defs>
      <path d="M 9.421875 75.984375 
L 18.40625 75.984375 
L 18.40625 0 
L 9.421875 0 
z
" id="DejaVuSans-108"/>
      <path d="M 30.609375 48.390625 
Q 23.390625 48.390625 19.1875 42.75 
Q 14.984375 37.109375 14.984375 27.296875 
Q 14.984375 17.484375 19.15625 11.84375 
Q 23.34375 6.203125 30.609375 6.203125 
Q 37.796875 6.203125 41.984375 11.859375 
Q 46.1875 17.53125 46.1875 27.296875 
Q 46.1875 37.015625 41.984375 42.703125 
Q 37.796875 48.390625 30.609375 48.390625 
z
M 30.609375 56 
Q 42.328125 56 49.015625 48.375 
Q 55.71875 40.765625 55.71875 27.296875 
Q 55.71875 13.875 49.015625 6.21875 
Q 42.328125 -1.421875 30.609375 -1.421875 
Q 18.84375 -1.421875 12.171875 6.21875 
Q 5.515625 13.875 5.515625 27.296875 
Q 5.515625 40.765625 12.171875 48.375 
Q 18.84375 56 30.609375 56 
z
" id="DejaVuSans-111"/>
      <path d="M 45.40625 27.984375 
Q 45.40625 37.75 41.375 43.109375 
Q 37.359375 48.484375 30.078125 48.484375 
Q 22.859375 48.484375 18.828125 43.109375 
Q 14.796875 37.75 14.796875 27.984375 
Q 14.796875 18.265625 18.828125 12.890625 
Q 22.859375 7.515625 30.078125 7.515625 
Q 37.359375 7.515625 41.375 12.890625 
Q 45.40625 18.265625 45.40625 27.984375 
z
M 54.390625 6.78125 
Q 54.390625 -7.171875 48.1875 -13.984375 
Q 42 -20.796875 29.203125 -20.796875 
Q 24.46875 -20.796875 20.265625 -20.09375 
Q 16.0625 -19.390625 12.109375 -17.921875 
L 12.109375 -9.1875 
Q 16.0625 -11.328125 19.921875 -12.34375 
Q 23.78125 -13.375 27.78125 -13.375 
Q 36.625 -13.375 41.015625 -8.765625 
Q 45.40625 -4.15625 45.40625 5.171875 
L 45.40625 9.625 
Q 42.625 4.78125 38.28125 2.390625 
Q 33.9375 0 27.875 0 
Q 17.828125 0 11.671875 7.65625 
Q 5.515625 15.328125 5.515625 27.984375 
Q 5.515625 40.671875 11.671875 48.328125 
Q 17.828125 56 27.875 56 
Q 33.9375 56 38.28125 53.609375 
Q 42.625 51.21875 45.40625 46.390625 
L 45.40625 54.6875 
L 54.390625 54.6875 
z
" id="DejaVuSans-103"/>
      <path d="M 12.40625 8.296875 
L 28.515625 8.296875 
L 28.515625 63.921875 
L 10.984375 60.40625 
L 10.984375 69.390625 
L 28.421875 72.90625 
L 38.28125 72.90625 
L 38.28125 8.296875 
L 54.390625 8.296875 
L 54.390625 0 
L 12.40625 0 
z
" id="DejaVuSans-49"/>
      <path d="M 31 75.875 
Q 24.46875 64.65625 21.28125 53.65625 
Q 18.109375 42.671875 18.109375 31.390625 
Q 18.109375 20.125 21.3125 9.0625 
Q 24.515625 -2 31 -13.1875 
L 23.1875 -13.1875 
Q 15.875 -1.703125 12.234375 9.375 
Q 8.59375 20.453125 8.59375 31.390625 
Q 8.59375 42.28125 12.203125 53.3125 
Q 15.828125 64.359375 23.1875 75.875 
z
" id="DejaVuSans-40"/>
      <path d="M 51.125 44 
L 36.921875 44 
L 32.8125 27.6875 
L 47.125 27.6875 
z
M 43.796875 71.78125 
L 38.71875 51.515625 
L 52.984375 51.515625 
L 58.109375 71.78125 
L 65.921875 71.78125 
L 60.890625 51.515625 
L 76.125 51.515625 
L 76.125 44 
L 58.984375 44 
L 54.984375 27.6875 
L 70.515625 27.6875 
L 70.515625 20.21875 
L 53.078125 20.21875 
L 48 0 
L 40.1875 0 
L 45.21875 20.21875 
L 30.90625 20.21875 
L 25.875 0 
L 18.015625 0 
L 23.09375 20.21875 
L 7.71875 20.21875 
L 7.71875 27.6875 
L 24.90625 27.6875 
L 29 44 
L 13.28125 44 
L 13.28125 51.515625 
L 30.90625 51.515625 
L 35.890625 71.78125 
z
" id="DejaVuSans-35"/>
      <path id="DejaVuSans-32"/>
      <path d="M 37.109375 75.984375 
L 37.109375 68.5 
L 28.515625 68.5 
Q 23.6875 68.5 21.796875 66.546875 
Q 19.921875 64.59375 19.921875 59.515625 
L 19.921875 54.6875 
L 34.71875 54.6875 
L 34.71875 47.703125 
L 19.921875 47.703125 
L 19.921875 0 
L 10.890625 0 
L 10.890625 47.703125 
L 2.296875 47.703125 
L 2.296875 54.6875 
L 10.890625 54.6875 
L 10.890625 58.5 
Q 10.890625 67.625 15.140625 71.796875 
Q 19.390625 75.984375 28.609375 75.984375 
z
" id="DejaVuSans-102"/>
      <path d="M 4.890625 31.390625 
L 31.203125 31.390625 
L 31.203125 23.390625 
L 4.890625 23.390625 
z
" id="DejaVuSans-45"/>
      <path d="M 56.203125 29.59375 
L 56.203125 25.203125 
L 14.890625 25.203125 
Q 15.484375 15.921875 20.484375 11.0625 
Q 25.484375 6.203125 34.421875 6.203125 
Q 39.59375 6.203125 44.453125 7.46875 
Q 49.3125 8.734375 54.109375 11.28125 
L 54.109375 2.78125 
Q 49.265625 0.734375 44.1875 -0.34375 
Q 39.109375 -1.421875 33.890625 -1.421875 
Q 20.796875 -1.421875 13.15625 6.1875 
Q 5.515625 13.8125 5.515625 26.8125 
Q 5.515625 40.234375 12.765625 48.109375 
Q 20.015625 56 32.328125 56 
Q 43.359375 56 49.78125 48.890625 
Q 56.203125 41.796875 56.203125 29.59375 
z
M 47.21875 32.234375 
Q 47.125 39.59375 43.09375 43.984375 
Q 39.0625 48.390625 32.421875 48.390625 
Q 24.90625 48.390625 20.390625 44.140625 
Q 15.875 39.890625 15.1875 32.171875 
z
" id="DejaVuSans-101"/>
      <path d="M 2.984375 54.6875 
L 12.5 54.6875 
L 29.59375 8.796875 
L 46.6875 54.6875 
L 56.203125 54.6875 
L 35.6875 0 
L 23.484375 0 
z
" id="DejaVuSans-118"/>
      <path d="M 34.28125 27.484375 
Q 23.390625 27.484375 19.1875 25 
Q 14.984375 22.515625 14.984375 16.5 
Q 14.984375 11.71875 18.140625 8.90625 
Q 21.296875 6.109375 26.703125 6.109375 
Q 34.1875 6.109375 38.703125 11.40625 
Q 43.21875 16.703125 43.21875 25.484375 
L 43.21875 27.484375 
z
M 52.203125 31.203125 
L 52.203125 0 
L 43.21875 0 
L 43.21875 8.296875 
Q 40.140625 3.328125 35.546875 0.953125 
Q 30.953125 -1.421875 24.3125 -1.421875 
Q 15.921875 -1.421875 10.953125 3.296875 
Q 6 8.015625 6 15.921875 
Q 6 25.140625 12.171875 29.828125 
Q 18.359375 34.515625 30.609375 34.515625 
L 43.21875 34.515625 
L 43.21875 35.40625 
Q 43.21875 41.609375 39.140625 45 
Q 35.0625 48.390625 27.6875 48.390625 
Q 23 48.390625 18.546875 47.265625 
Q 14.109375 46.140625 10.015625 43.890625 
L 10.015625 52.203125 
Q 14.9375 54.109375 19.578125 55.046875 
Q 24.21875 56 28.609375 56 
Q 40.484375 56 46.34375 49.84375 
Q 52.203125 43.703125 52.203125 31.203125 
z
" id="DejaVuSans-97"/>
      <path d="M 44.28125 53.078125 
L 44.28125 44.578125 
Q 40.484375 46.53125 36.375 47.5 
Q 32.28125 48.484375 27.875 48.484375 
Q 21.1875 48.484375 17.84375 46.4375 
Q 14.5 44.390625 14.5 40.28125 
Q 14.5 37.15625 16.890625 35.375 
Q 19.28125 33.59375 26.515625 31.984375 
L 29.59375 31.296875 
Q 39.15625 29.25 43.1875 25.515625 
Q 47.21875 21.78125 47.21875 15.09375 
Q 47.21875 7.46875 41.1875 3.015625 
Q 35.15625 -1.421875 24.609375 -1.421875 
Q 20.21875 -1.421875 15.453125 -0.5625 
Q 10.6875 0.296875 5.421875 2 
L 5.421875 11.28125 
Q 10.40625 8.6875 15.234375 7.390625 
Q 20.0625 6.109375 24.8125 6.109375 
Q 31.15625 6.109375 34.5625 8.28125 
Q 37.984375 10.453125 37.984375 14.40625 
Q 37.984375 18.0625 35.515625 20.015625 
Q 33.0625 21.96875 24.703125 23.78125 
L 21.578125 24.515625 
Q 13.234375 26.265625 9.515625 29.90625 
Q 5.8125 33.546875 5.8125 39.890625 
Q 5.8125 47.609375 11.28125 51.796875 
Q 16.75 56 26.8125 56 
Q 31.78125 56 36.171875 55.265625 
Q 40.578125 54.546875 44.28125 53.078125 
z
" id="DejaVuSans-115"/>
      <path d="M 25.390625 72.90625 
L 33.6875 72.90625 
L 8.296875 -9.28125 
L 0 -9.28125 
z
" id="DejaVuSans-47"/>
      <path d="M 45.40625 46.390625 
L 45.40625 75.984375 
L 54.390625 75.984375 
L 54.390625 0 
L 45.40625 0 
L 45.40625 8.203125 
Q 42.578125 3.328125 38.25 0.953125 
Q 33.9375 -1.421875 27.875 -1.421875 
Q 17.96875 -1.421875 11.734375 6.484375 
Q 5.515625 14.40625 5.515625 27.296875 
Q 5.515625 40.1875 11.734375 48.09375 
Q 17.96875 56 27.875 56 
Q 33.9375 56 38.25 53.625 
Q 42.578125 51.265625 45.40625 46.390625 
z
M 14.796875 27.296875 
Q 14.796875 17.390625 18.875 11.75 
Q 22.953125 6.109375 30.078125 6.109375 
Q 37.203125 6.109375 41.296875 11.75 
Q 45.40625 17.390625 45.40625 27.296875 
Q 45.40625 37.203125 41.296875 42.84375 
Q 37.203125 48.484375 30.078125 48.484375 
Q 22.953125 48.484375 18.875 42.84375 
Q 14.796875 37.203125 14.796875 27.296875 
z
" id="DejaVuSans-100"/>
      <path d="M 9.421875 54.6875 
L 18.40625 54.6875 
L 18.40625 0 
L 9.421875 0 
z
M 9.421875 75.984375 
L 18.40625 75.984375 
L 18.40625 64.59375 
L 9.421875 64.59375 
z
" id="DejaVuSans-105"/>
      <path d="M 52 44.1875 
Q 55.375 50.25 60.0625 53.125 
Q 64.75 56 71.09375 56 
Q 79.640625 56 84.28125 50.015625 
Q 88.921875 44.046875 88.921875 33.015625 
L 88.921875 0 
L 79.890625 0 
L 79.890625 32.71875 
Q 79.890625 40.578125 77.09375 44.375 
Q 74.3125 48.1875 68.609375 48.1875 
Q 61.625 48.1875 57.5625 43.546875 
Q 53.515625 38.921875 53.515625 30.90625 
L 53.515625 0 
L 44.484375 0 
L 44.484375 32.71875 
Q 44.484375 40.625 41.703125 44.40625 
Q 38.921875 48.1875 33.109375 48.1875 
Q 26.21875 48.1875 22.15625 43.53125 
Q 18.109375 38.875 18.109375 30.90625 
L 18.109375 0 
L 9.078125 0 
L 9.078125 54.6875 
L 18.109375 54.6875 
L 18.109375 46.1875 
Q 21.1875 51.21875 25.484375 53.609375 
Q 29.78125 56 35.6875 56 
Q 41.65625 56 45.828125 52.96875 
Q 50 49.953125 52 44.1875 
z
" id="DejaVuSans-109"/>
      <path d="M 54.890625 33.015625 
L 54.890625 0 
L 45.90625 0 
L 45.90625 32.71875 
Q 45.90625 40.484375 42.875 44.328125 
Q 39.84375 48.1875 33.796875 48.1875 
Q 26.515625 48.1875 22.3125 43.546875 
Q 18.109375 38.921875 18.109375 30.90625 
L 18.109375 0 
L 9.078125 0 
L 9.078125 54.6875 
L 18.109375 54.6875 
L 18.109375 46.1875 
Q 21.34375 51.125 25.703125 53.5625 
Q 30.078125 56 35.796875 56 
Q 45.21875 56 50.046875 50.171875 
Q 54.890625 44.34375 54.890625 33.015625 
z
" id="DejaVuSans-110"/>
      <path d="M 8.015625 75.875 
L 15.828125 75.875 
Q 23.140625 64.359375 26.78125 53.3125 
Q 30.421875 42.28125 30.421875 31.390625 
Q 30.421875 20.453125 26.78125 9.375 
Q 23.140625 -1.703125 15.828125 -13.1875 
L 8.015625 -13.1875 
Q 14.5 -2 17.703125 9.0625 
Q 20.90625 20.125 20.90625 31.390625 
Q 20.90625 42.671875 17.703125 53.65625 
Q 14.5 64.65625 8.015625 75.875 
z
" id="DejaVuSans-41"/>
     </defs>
     <g transform="translate(77.303219 342.217594)scale(0.17 -0.17)">
      <use xlink:href="#DejaVuSans-108"/>
      <use x="27.783203" xlink:href="#DejaVuSans-111"/>
      <use x="88.964844" xlink:href="#DejaVuSans-103"/>
      <use x="152.441406" xlink:href="#DejaVuSans-49"/>
      <use x="216.064453" xlink:href="#DejaVuSans-48"/>
      <use x="279.6875" xlink:href="#DejaVuSans-40"/>
      <use x="318.701172" xlink:href="#DejaVuSans-35"/>
      <use x="402.490234" xlink:href="#DejaVuSans-32"/>
      <use x="434.277344" xlink:href="#DejaVuSans-102"/>
      <use x="469.404297" xlink:href="#DejaVuSans-45"/>
      <use x="505.488281" xlink:href="#DejaVuSans-101"/>
      <use x="567.011719" xlink:href="#DejaVuSans-118"/>
      <use x="626.191406" xlink:href="#DejaVuSans-97"/>
      <use x="687.470703" xlink:href="#DejaVuSans-108"/>
      <use x="715.253906" xlink:href="#DejaVuSans-115"/>
      <use x="767.353516" xlink:href="#DejaVuSans-32"/>
      <use x="799.140625" xlink:href="#DejaVuSans-47"/>
      <use x="832.832031" xlink:href="#DejaVuSans-32"/>
      <use x="864.619141" xlink:href="#DejaVuSans-100"/>
      <use x="928.095703" xlink:href="#DejaVuSans-105"/>
      <use x="955.878906" xlink:href="#DejaVuSans-109"/>
      <use x="1053.291016" xlink:href="#DejaVuSans-101"/>
      <use x="1114.814453" xlink:href="#DejaVuSans-110"/>
      <use x="1178.193359" xlink:href="#DejaVuSans-115"/>
      <use x="1230.292969" xlink:href="#DejaVuSans-105"/>
      <use x="1258.076172" xlink:href="#DejaVuSans-111"/>
      <use x="1319.257812" xlink:href="#DejaVuSans-110"/>
      <use x="1382.636719" xlink:href="#DejaVuSans-41"/>
     </g>
    </g>
   </g>
   <g id="matplotlib.axis_2">
    <g id="ytick_1">
     <g id="line2d_17">
      <path clip-path="url(#pb7e41760c6)" d="M 57.6 298.944 
L 338.688 298.944 
" style="fill:none;stroke:#b0b0b0;stroke-linecap:square;stroke-width:0.8;"/>
     </g>
     <g id="line2d_18">
      <defs>
       <path d="M 0 0 
L -3.5 0 
" id="m9b4f70e9e4" style="stroke:#000000;stroke-width:0.8;"/>
      </defs>
      <g>
       <use style="stroke:#000000;stroke-width:0.8;" x="57.6" xlink:href="#m9b4f70e9e4" y="298.944"/>
      </g>
     </g>
     <g id="text_6">
      <!-- 0.0 -->
      <defs>
       <path d="M 10.6875 12.40625 
L 21 12.40625 
L 21 0 
L 10.6875 0 
z
" id="DejaVuSans-46"/>
      </defs>
      <g transform="translate(25.155 305.02275)scale(0.16 -0.16)">
       <use xlink:href="#DejaVuSans-48"/>
       <use x="63.623047" xlink:href="#DejaVuSans-46"/>
       <use x="95.410156" xlink:href="#DejaVuSans-48"/>
      </g>
     </g>
    </g>
    <g id="ytick_2">
     <g id="line2d_19">
      <path clip-path="url(#pb7e41760c6)" d="M 57.6 240.431525 
L 338.688 240.431525 
" style="fill:none;stroke:#b0b0b0;stroke-linecap:square;stroke-width:0.8;"/>
     </g>
     <g id="line2d_20">
      <g>
       <use style="stroke:#000000;stroke-width:0.8;" x="57.6" xlink:href="#m9b4f70e9e4" y="240.431525"/>
      </g>
     </g>
     <g id="text_7">
      <!-- 0.2 -->
      <g transform="translate(25.155 246.510275)scale(0.16 -0.16)">
       <use xlink:href="#DejaVuSans-48"/>
       <use x="63.623047" xlink:href="#DejaVuSans-46"/>
       <use x="95.410156" xlink:href="#DejaVuSans-50"/>
      </g>
     </g>
    </g>
    <g id="ytick_3">
     <g id="line2d_21">
      <path clip-path="url(#pb7e41760c6)" d="M 57.6 181.91905 
L 338.688 181.91905 
" style="fill:none;stroke:#b0b0b0;stroke-linecap:square;stroke-width:0.8;"/>
     </g>
     <g id="line2d_22">
      <g>
       <use style="stroke:#000000;stroke-width:0.8;" x="57.6" xlink:href="#m9b4f70e9e4" y="181.91905"/>
      </g>
     </g>
     <g id="text_8">
      <!-- 0.4 -->
      <g transform="translate(25.155 187.9978)scale(0.16 -0.16)">
       <use xlink:href="#DejaVuSans-48"/>
       <use x="63.623047" xlink:href="#DejaVuSans-46"/>
       <use x="95.410156" xlink:href="#DejaVuSans-52"/>
      </g>
     </g>
    </g>
    <g id="ytick_4">
     <g id="line2d_23">
      <path clip-path="url(#pb7e41760c6)" d="M 57.6 123.406574 
L 338.688 123.406574 
" style="fill:none;stroke:#b0b0b0;stroke-linecap:square;stroke-width:0.8;"/>
     </g>
     <g id="line2d_24">
      <g>
       <use style="stroke:#000000;stroke-width:0.8;" x="57.6" xlink:href="#m9b4f70e9e4" y="123.406574"/>
      </g>
     </g>
     <g id="text_9">
      <!-- 0.6 -->
      <g transform="translate(25.155 129.485324)scale(0.16 -0.16)">
       <use xlink:href="#DejaVuSans-48"/>
       <use x="63.623047" xlink:href="#DejaVuSans-46"/>
       <use x="95.410156" xlink:href="#DejaVuSans-54"/>
      </g>
     </g>
    </g>
    <g id="ytick_5">
     <g id="line2d_25">
      <path clip-path="url(#pb7e41760c6)" d="M 57.6 64.894099 
L 338.688 64.894099 
" style="fill:none;stroke:#b0b0b0;stroke-linecap:square;stroke-width:0.8;"/>
     </g>
     <g id="line2d_26">
      <g>
       <use style="stroke:#000000;stroke-width:0.8;" x="57.6" xlink:href="#m9b4f70e9e4" y="64.894099"/>
      </g>
     </g>
     <g id="text_10">
      <!-- 0.8 -->
      <defs>
       <path d="M 31.78125 34.625 
Q 24.75 34.625 20.71875 30.859375 
Q 16.703125 27.09375 16.703125 20.515625 
Q 16.703125 13.921875 20.71875 10.15625 
Q 24.75 6.390625 31.78125 6.390625 
Q 38.8125 6.390625 42.859375 10.171875 
Q 46.921875 13.96875 46.921875 20.515625 
Q 46.921875 27.09375 42.890625 30.859375 
Q 38.875 34.625 31.78125 34.625 
z
M 21.921875 38.8125 
Q 15.578125 40.375 12.03125 44.71875 
Q 8.5 49.078125 8.5 55.328125 
Q 8.5 64.0625 14.71875 69.140625 
Q 20.953125 74.21875 31.78125 74.21875 
Q 42.671875 74.21875 48.875 69.140625 
Q 55.078125 64.0625 55.078125 55.328125 
Q 55.078125 49.078125 51.53125 44.71875 
Q 48 40.375 41.703125 38.8125 
Q 48.828125 37.15625 52.796875 32.3125 
Q 56.78125 27.484375 56.78125 20.515625 
Q 56.78125 9.90625 50.3125 4.234375 
Q 43.84375 -1.421875 31.78125 -1.421875 
Q 19.734375 -1.421875 13.25 4.234375 
Q 6.78125 9.90625 6.78125 20.515625 
Q 6.78125 27.484375 10.78125 32.3125 
Q 14.796875 37.15625 21.921875 38.8125 
z
M 18.3125 54.390625 
Q 18.3125 48.734375 21.84375 45.5625 
Q 25.390625 42.390625 31.78125 42.390625 
Q 38.140625 42.390625 41.71875 45.5625 
Q 45.3125 48.734375 45.3125 54.390625 
Q 45.3125 60.0625 41.71875 63.234375 
Q 38.140625 66.40625 31.78125 66.40625 
Q 25.390625 66.40625 21.84375 63.234375 
Q 18.3125 60.0625 18.3125 54.390625 
z
" id="DejaVuSans-56"/>
      </defs>
      <g transform="translate(25.155 70.972849)scale(0.16 -0.16)">
       <use xlink:href="#DejaVuSans-48"/>
       <use x="63.623047" xlink:href="#DejaVuSans-46"/>
       <use x="95.410156" xlink:href="#DejaVuSans-56"/>
      </g>
     </g>
    </g>
    <g id="ytick_6">
     <g id="line2d_27">
      <path clip-path="url(#pb7e41760c6)" d="M 57.6 6.381624 
L 338.688 6.381624 
" style="fill:none;stroke:#b0b0b0;stroke-linecap:square;stroke-width:0.8;"/>
     </g>
     <g id="line2d_28">
      <g>
       <use style="stroke:#000000;stroke-width:0.8;" x="57.6" xlink:href="#m9b4f70e9e4" y="6.381624"/>
      </g>
     </g>
     <g id="text_11">
      <!-- 1.0 -->
      <g transform="translate(25.155 12.460374)scale(0.16 -0.16)">
       <use xlink:href="#DejaVuSans-49"/>
       <use x="63.623047" xlink:href="#DejaVuSans-46"/>
       <use x="95.410156" xlink:href="#DejaVuSans-48"/>
      </g>
     </g>
    </g>
    <g id="text_12">
     <!-- Fraction of function,target pairs -->
     <defs>
      <path d="M 9.8125 72.90625 
L 51.703125 72.90625 
L 51.703125 64.59375 
L 19.671875 64.59375 
L 19.671875 43.109375 
L 48.578125 43.109375 
L 48.578125 34.8125 
L 19.671875 34.8125 
L 19.671875 0 
L 9.8125 0 
z
" id="DejaVuSans-70"/>
      <path d="M 41.109375 46.296875 
Q 39.59375 47.171875 37.8125 47.578125 
Q 36.03125 48 33.890625 48 
Q 26.265625 48 22.1875 43.046875 
Q 18.109375 38.09375 18.109375 28.8125 
L 18.109375 0 
L 9.078125 0 
L 9.078125 54.6875 
L 18.109375 54.6875 
L 18.109375 46.1875 
Q 20.953125 51.171875 25.484375 53.578125 
Q 30.03125 56 36.53125 56 
Q 37.453125 56 38.578125 55.875 
Q 39.703125 55.765625 41.0625 55.515625 
z
" id="DejaVuSans-114"/>
      <path d="M 48.78125 52.59375 
L 48.78125 44.1875 
Q 44.96875 46.296875 41.140625 47.34375 
Q 37.3125 48.390625 33.40625 48.390625 
Q 24.65625 48.390625 19.8125 42.84375 
Q 14.984375 37.3125 14.984375 27.296875 
Q 14.984375 17.28125 19.8125 11.734375 
Q 24.65625 6.203125 33.40625 6.203125 
Q 37.3125 6.203125 41.140625 7.25 
Q 44.96875 8.296875 48.78125 10.40625 
L 48.78125 2.09375 
Q 45.015625 0.34375 40.984375 -0.53125 
Q 36.96875 -1.421875 32.421875 -1.421875 
Q 20.0625 -1.421875 12.78125 6.34375 
Q 5.515625 14.109375 5.515625 27.296875 
Q 5.515625 40.671875 12.859375 48.328125 
Q 20.21875 56 33.015625 56 
Q 37.15625 56 41.109375 55.140625 
Q 45.0625 54.296875 48.78125 52.59375 
z
" id="DejaVuSans-99"/>
      <path d="M 18.3125 70.21875 
L 18.3125 54.6875 
L 36.8125 54.6875 
L 36.8125 47.703125 
L 18.3125 47.703125 
L 18.3125 18.015625 
Q 18.3125 11.328125 20.140625 9.421875 
Q 21.96875 7.515625 27.59375 7.515625 
L 36.8125 7.515625 
L 36.8125 0 
L 27.59375 0 
Q 17.1875 0 13.234375 3.875 
Q 9.28125 7.765625 9.28125 18.015625 
L 9.28125 47.703125 
L 2.6875 47.703125 
L 2.6875 54.6875 
L 9.28125 54.6875 
L 9.28125 70.21875 
z
" id="DejaVuSans-116"/>
      <path d="M 8.5 21.578125 
L 8.5 54.6875 
L 17.484375 54.6875 
L 17.484375 21.921875 
Q 17.484375 14.15625 20.5 10.265625 
Q 23.53125 6.390625 29.59375 6.390625 
Q 36.859375 6.390625 41.078125 11.03125 
Q 45.3125 15.671875 45.3125 23.6875 
L 45.3125 54.6875 
L 54.296875 54.6875 
L 54.296875 0 
L 45.3125 0 
L 45.3125 8.40625 
Q 42.046875 3.421875 37.71875 1 
Q 33.40625 -1.421875 27.6875 -1.421875 
Q 18.265625 -1.421875 13.375 4.4375 
Q 8.5 10.296875 8.5 21.578125 
z
M 31.109375 56 
z
" id="DejaVuSans-117"/>
      <path d="M 11.71875 12.40625 
L 22.015625 12.40625 
L 22.015625 4 
L 14.015625 -11.625 
L 7.71875 -11.625 
L 11.71875 4 
z
" id="DejaVuSans-44"/>
      <path d="M 18.109375 8.203125 
L 18.109375 -20.796875 
L 9.078125 -20.796875 
L 9.078125 54.6875 
L 18.109375 54.6875 
L 18.109375 46.390625 
Q 20.953125 51.265625 25.265625 53.625 
Q 29.59375 56 35.59375 56 
Q 45.5625 56 51.78125 48.09375 
Q 58.015625 40.1875 58.015625 27.296875 
Q 58.015625 14.40625 51.78125 6.484375 
Q 45.5625 -1.421875 35.59375 -1.421875 
Q 29.59375 -1.421875 25.265625 0.953125 
Q 20.953125 3.328125 18.109375 8.203125 
z
M 48.6875 27.296875 
Q 48.6875 37.203125 44.609375 42.84375 
Q 40.53125 48.484375 33.40625 48.484375 
Q 26.265625 48.484375 22.1875 42.84375 
Q 18.109375 37.203125 18.109375 27.296875 
Q 18.109375 17.390625 22.1875 11.75 
Q 26.265625 6.109375 33.40625 6.109375 
Q 40.53125 6.109375 44.609375 11.75 
Q 48.6875 17.390625 48.6875 27.296875 
z
" id="DejaVuSans-112"/>
     </defs>
     <g transform="translate(17.619531 286.339375)rotate(-90)scale(0.17 -0.17)">
      <use xlink:href="#DejaVuSans-70"/>
      <use x="57.410156" xlink:href="#DejaVuSans-114"/>
      <use x="98.523438" xlink:href="#DejaVuSans-97"/>
      <use x="159.802734" xlink:href="#DejaVuSans-99"/>
      <use x="214.783203" xlink:href="#DejaVuSans-116"/>
      <use x="253.992188" xlink:href="#DejaVuSans-105"/>
      <use x="281.775391" xlink:href="#DejaVuSans-111"/>
      <use x="342.957031" xlink:href="#DejaVuSans-110"/>
      <use x="406.335938" xlink:href="#DejaVuSans-32"/>
      <use x="438.123047" xlink:href="#DejaVuSans-111"/>
      <use x="499.304688" xlink:href="#DejaVuSans-102"/>
      <use x="534.509766" xlink:href="#DejaVuSans-32"/>
      <use x="566.296875" xlink:href="#DejaVuSans-102"/>
      <use x="601.501953" xlink:href="#DejaVuSans-117"/>
      <use x="664.880859" xlink:href="#DejaVuSans-110"/>
      <use x="728.259766" xlink:href="#DejaVuSans-99"/>
      <use x="783.240234" xlink:href="#DejaVuSans-116"/>
      <use x="822.449219" xlink:href="#DejaVuSans-105"/>
      <use x="850.232422" xlink:href="#DejaVuSans-111"/>
      <use x="911.414062" xlink:href="#DejaVuSans-110"/>
      <use x="974.792969" xlink:href="#DejaVuSans-44"/>
      <use x="1006.580078" xlink:href="#DejaVuSans-116"/>
      <use x="1045.789062" xlink:href="#DejaVuSans-97"/>
      <use x="1107.068359" xlink:href="#DejaVuSans-114"/>
      <use x="1148.166016" xlink:href="#DejaVuSans-103"/>
      <use x="1211.642578" xlink:href="#DejaVuSans-101"/>
      <use x="1273.166016" xlink:href="#DejaVuSans-116"/>
      <use x="1312.375" xlink:href="#DejaVuSans-32"/>
      <use x="1344.162109" xlink:href="#DejaVuSans-112"/>
      <use x="1407.638672" xlink:href="#DejaVuSans-97"/>
      <use x="1468.917969" xlink:href="#DejaVuSans-105"/>
      <use x="1496.701172" xlink:href="#DejaVuSans-114"/>
      <use x="1537.814453" xlink:href="#DejaVuSans-115"/>
     </g>
    </g>
   </g>
   <g id="line2d_29">
    <defs>
     <path d="M 0 1.5 
C 0.397805 1.5 0.77937 1.341951 1.06066 1.06066 
C 1.341951 0.77937 1.5 0.397805 1.5 0 
C 1.5 -0.397805 1.341951 -0.77937 1.06066 -1.06066 
C 0.77937 -1.341951 0.397805 -1.5 0 -1.5 
C -0.397805 -1.5 -0.77937 -1.341951 -1.06066 -1.06066 
C -1.341951 -0.77937 -1.5 -0.397805 -1.5 0 
C -1.5 0.397805 -1.341951 0.77937 -1.06066 1.06066 
C -0.77937 1.341951 -0.397805 1.5 0 1.5 
z
" id="m56930deea8" style="stroke:#00bfbf;"/>
    </defs>
    <g>
     <use style="fill:#00bfbf;stroke:#00bfbf;" x="222.394116" xlink:href="#m56930deea8" y="202.857337"/>
     <use style="fill:#00bfbf;stroke:#00bfbf;" x="222.394116" xlink:href="#m56930deea8" y="202.857337"/>
    </g>
   </g>
   <g id="line2d_30">
    <path d="M 45.512012 298.944 
L 45.512012 295.358677 
L 57.6 295.358677 
L 57.6 293.924547 
L 64.67102 293.924547 
L 64.67102 289.335334 
L 69.687988 289.335334 
L 69.687988 288.905095 
L 73.579452 288.905095 
L 73.579452 286.467075 
L 76.759008 286.467075 
L 76.759008 285.032946 
L 79.447285 285.032946 
L 79.447285 282.881752 
L 81.775977 282.881752 
L 81.775977 281.30421 
L 83.830028 281.30421 
L 83.830028 280.587145 
L 85.66744 280.587145 
L 85.66744 278.149125 
L 87.329581 278.149125 
L 87.329581 277.862299 
L 88.846997 277.862299 
L 88.846997 277.288648 
L 91.535274 277.288648 
L 91.535274 274.850628 
L 92.73846 274.850628 
L 92.73846 273.416499 
L 93.863965 273.416499 
L 93.863965 273.129673 
L 94.921215 273.129673 
L 94.921215 272.269195 
L 96.86091 272.269195 
L 96.86091 270.118001 
L 97.755429 270.118001 
L 97.755429 269.831175 
L 98.606294 269.831175 
L 98.606294 269.257524 
L 99.41757 269.257524 
L 99.41757 268.827285 
L 100.192776 268.827285 
L 100.192776 268.540459 
L 100.934985 268.540459 
L 100.934985 267.249743 
L 101.646892 267.249743 
L 101.646892 266.676091 
L 102.330873 266.676091 
L 102.330873 265.815613 
L 102.989037 265.815613 
L 102.989037 265.6722 
L 103.623262 265.6722 
L 103.623262 265.528787 
L 104.23523 265.528787 
L 104.23523 264.381484 
L 104.826449 264.381484 
L 104.826449 264.094658 
L 105.398279 264.094658 
L 105.398279 263.090768 
L 105.951954 263.090768 
L 105.951954 261.656638 
L 106.48859 261.656638 
L 106.48859 261.369812 
L 107.009204 261.369812 
L 107.009204 260.509335 
L 107.514726 260.509335 
L 107.514726 259.935683 
L 108.006005 259.935683 
L 108.006005 259.648857 
L 108.483824 259.648857 
L 108.483824 259.218619 
L 108.948899 259.218619 
L 108.948899 258.78838 
L 110.694282 258.78838 
L 110.694282 257.641076 
L 111.897469 257.641076 
L 111.897469 257.497663 
L 112.280765 257.497663 
L 112.280765 256.063534 
L 112.655818 256.063534 
L 112.655818 255.489882 
L 113.382559 255.489882 
L 113.382559 255.059644 
L 113.73488 255.059644 
L 113.73488 254.342579 
L 114.418861 254.342579 
L 114.418861 253.768927 
L 114.751048 253.768927 
L 114.751048 252.047972 
L 115.077025 252.047972 
L 115.077025 250.900669 
L 115.397021 250.900669 
L 115.397021 250.757256 
L 115.711251 250.757256 
L 115.711251 250.47043 
L 116.019919 250.47043 
L 116.019919 250.327017 
L 116.914437 250.327017 
L 116.914437 249.896778 
L 117.202696 249.896778 
L 117.202696 249.466539 
L 118.039942 249.466539 
L 118.039942 249.179713 
L 126.168212 249.179713 
L 126.168212 249.036301 
L 127.002787 249.036301 
L 127.002787 247.888997 
L 127.165014 247.888997 
L 127.165014 247.602171 
L 127.325746 247.602171 
L 127.325746 246.741694 
L 127.642832 246.741694 
L 127.642832 246.311455 
L 128.107907 246.311455 
L 128.107907 246.168042 
L 133.352844 246.168042 
L 133.352844 245.59439 
L 133.46572 245.59439 
L 133.46572 245.450977 
L 133.57787 245.450977 
L 133.57787 244.877326 
L 133.800029 244.877326 
L 133.910056 243.730022 
L 134.019394 243.730022 
L 134.019394 242.869545 
L 134.236034 242.869545 
L 134.236034 242.15248 
L 134.450015 242.15248 
L 134.450015 241.865654 
L 138.084384 241.865654 
L 138.170504 240.144699 
L 138.426341 240.144699 
L 138.510793 239.284221 
L 138.594838 239.284221 
L 138.67848 238.71057 
L 138.84457 238.71057 
L 138.84457 238.136918 
L 139.009092 238.136918 
L 139.090775 237.419853 
L 141.871938 237.419853 
L 141.871938 237.27644 
L 142.010346 237.27644 
L 142.010346 236.846202 
L 142.147664 236.846202 
L 142.147664 236.702789 
L 143.079756 236.702789 
L 143.079756 236.559376 
L 143.273169 236.559376 
L 143.273169 236.27255 
L 143.527762 236.27255 
L 143.527762 236.129137 
L 143.716296 236.129137 
L 143.716296 235.985724 
L 143.840863 235.985724 
L 143.840863 235.842311 
L 144.148442 235.842311 
L 144.148442 235.555485 
L 144.747789 235.555485 
L 144.747789 235.268659 
L 144.923649 235.268659 
L 144.923649 234.695008 
L 145.155404 234.695008 
L 145.155404 234.121356 
L 145.384119 234.121356 
L 145.384119 233.977943 
L 145.553708 233.977943 
L 145.609873 233.547704 
L 148.015498 233.547704 
L 148.112924 232.974052 
L 148.354135 232.974052 
L 148.354135 232.687227 
L 150.258492 232.687227 
L 150.344189 231.970162 
L 150.38688 231.970162 
L 150.429467 231.253097 
L 150.51433 231.253097 
L 150.51433 230.822858 
L 152.130233 230.822858 
L 152.168773 230.536033 
L 152.245598 230.536033 
L 152.322086 230.249207 
L 152.360205 230.249207 
L 152.398241 229.532142 
L 152.474064 229.532142 
L 152.549559 228.671665 
L 154.132765 228.671665 
L 154.132765 228.528252 
L 154.371897 228.528252 
L 154.405793 228.241426 
L 154.77436 228.241426 
L 154.873541 227.667774 
L 154.93935 227.667774 
L 154.972161 227.380948 
L 155.520713 227.380948 
L 155.61575 227.094122 
L 155.647315 227.094122 
L 155.741666 226.663884 
L 157.272146 226.663884 
L 157.329512 225.946819 
L 158.625992 225.946819 
L 158.732007 225.373167 
L 158.784773 225.373167 
L 158.784773 225.229754 
L 159.807898 225.229754 
L 159.807898 224.799515 
L 159.956318 224.799515 
L 160.030058 224.51269 
L 160.079044 224.51269 
L 160.079044 224.369277 
L 161.622937 224.369277 
L 161.667653 224.082451 
L 162.152109 224.082451 
L 162.152109 223.795625 
L 163.287113 223.795625 
L 163.327764 223.221973 
L 164.237502 223.221973 
L 164.333587 222.935147 
L 165.120455 222.935147 
L 165.230021 222.218083 
L 165.284547 222.218083 
L 165.320804 221.501018 
L 166.425924 221.501018 
L 166.510705 220.927366 
L 166.812546 220.927366 
L 166.878918 220.353715 
L 167.782543 220.353715 
L 167.860992 219.780063 
L 168.566635 219.780063 
L 168.596677 219.206411 
L 169.316986 219.206411 
L 169.345764 218.776172 
L 170.201421 218.776172 
L 170.296979 218.345934 
L 170.446091 218.345934 
L 170.446091 218.202521 
L 170.59394 218.202521 
L 170.59394 218.059108 
L 171.327782 218.059108 
L 171.327782 217.915695 
L 171.945501 217.915695 
L 171.970255 217.628869 
L 172.482136 217.628869 
L 172.589897 217.342043 
L 172.613754 217.342043 
L 172.613754 217.055217 
L 173.349008 217.055217 
L 173.349008 216.911804 
L 173.654869 216.911804 
L 173.654869 216.624978 
L 174.272644 216.624978 
L 174.272644 216.481566 
L 174.774759 216.481566 
L 174.774759 216.051327 
L 175.313947 216.051327 
L 175.364924 215.047436 
L 176.043814 215.047436 
L 176.043814 214.904023 
L 176.24824 214.904023 
L 176.257915 214.330372 
L 176.791327 214.330372 
L 176.791327 214.186959 
L 177.226752 214.186959 
L 177.226752 213.75672 
L 177.705065 213.75672 
L 177.72286 213.469894 
L 178.092425 213.469894 
L 178.092425 213.326481 
L 178.334521 213.326481 
L 178.334521 213.183068 
L 178.991731 213.183068 
L 178.991731 212.896242 
L 179.376106 212.896242 
L 179.376106 212.322591 
L 179.744273 212.322591 
L 179.831174 211.462113 
L 180.143574 211.462113 
L 180.143574 211.3187 
L 180.358972 211.3187 
L 180.358972 210.888461 
L 181.289386 210.888461 
L 181.289386 210.745048 
L 181.619658 210.745048 
L 181.697718 210.027984 
L 183.013357 210.027984 
L 183.013357 209.597745 
L 183.383659 209.597745 
L 183.383659 209.454332 
L 183.952795 209.454332 
L 183.952795 209.310919 
L 184.582131 209.310919 
L 184.582131 208.88068 
L 184.856021 208.88068 
L 184.920884 208.307029 
L 185.316587 208.307029 
L 185.316587 208.163616 
L 186.333515 208.163616 
L 186.333515 207.87679 
L 188.087684 207.87679 
L 188.087684 207.733377 
L 188.846451 207.733377 
L 188.855847 207.446551 
L 189.172341 207.446551 
L 189.172341 207.303138 
L 189.528443 207.303138 
L 189.528443 207.159725 
L 190.288908 207.159725 
L 190.288908 207.016312 
L 191.653151 207.016312 
L 191.653151 206.872899 
L 191.84018 206.872899 
L 191.84018 206.729486 
L 192.056526 206.729486 
L 192.056526 206.586073 
L 193.007442 206.586073 
L 193.007442 206.299248 
L 193.344727 206.299248 
L 193.344727 206.155835 
L 193.546882 206.155835 
L 193.546882 206.012422 
L 193.916207 206.012422 
L 193.916207 205.869009 
L 194.581527 205.869009 
L 194.581527 205.43877 
L 194.999275 205.43877 
L 194.999275 205.295357 
L 195.583777 205.295357 
L 195.583777 205.008531 
L 195.805896 205.008531 
L 195.805896 204.865118 
L 196.195635 204.865118 
L 196.195635 204.721705 
L 196.370505 204.721705 
L 196.370505 204.578292 
L 197.315165 204.578292 
L 197.315165 204.434879 
L 199.816138 204.434879 
L 199.816138 204.291467 
L 200.431474 204.291467 
L 200.431474 204.148054 
L 200.599948 204.148054 
L 200.599948 204.004641 
L 201.475773 204.004641 
L 201.475773 203.861228 
L 203.727131 203.861228 
L 203.727131 203.717815 
L 205.969021 203.717815 
L 205.969021 203.574402 
L 206.403678 203.574402 
L 206.403678 203.430989 
L 210.068385 203.430989 
L 210.068385 203.287576 
L 211.726603 203.287576 
L 211.726603 203.144163 
L 212.86547 203.144163 
L 212.86547 203.00075 
L 222.394116 203.00075 
L 222.394116 202.857337 
L 338.688 202.857337 
L 338.688 202.857337 
" style="fill:none;stroke:#00bfbf;stroke-linecap:square;stroke-width:1.5;"/>
   </g>
   <g id="line2d_31">
    <defs>
     <path d="M -6 0 
L 6 0 
M 0 6 
L 0 -6 
" id="m25822b4270" style="stroke:#00bfbf;stroke-width:1.5;"/>
    </defs>
    <g>
     <use style="fill-opacity:0;stroke:#00bfbf;stroke-width:1.5;" x="81.775977" xlink:href="#m25822b4270" y="282.881752"/>
     <use style="fill-opacity:0;stroke:#00bfbf;stroke-width:1.5;" x="118.039942" xlink:href="#m25822b4270" y="249.179713"/>
     <use style="fill-opacity:0;stroke:#00bfbf;stroke-width:1.5;" x="166.812546" xlink:href="#m25822b4270" y="220.927366"/>
     <use style="fill-opacity:0;stroke:#00bfbf;stroke-width:1.5;" x="206.403678" xlink:href="#m25822b4270" y="203.430989"/>
     <use style="fill-opacity:0;stroke:#00bfbf;stroke-width:1.5;" x="222.394116" xlink:href="#m25822b4270" y="202.857337"/>
     <use style="fill-opacity:0;stroke:#00bfbf;stroke-width:1.5;" x="338.688" xlink:href="#m25822b4270" y="202.857337"/>
    </g>
   </g>
   <g id="line2d_32">
    <path style="fill:none;stroke:#00bfbf;stroke-linecap:square;stroke-width:1.5;"/>
    <g/>
   </g>
   <g id="line2d_33">
    <path clip-path="url(#pb7e41760c6)" d="M 141.80232 237.419853 
" style="fill:none;stroke:#00bfbf;stroke-linecap:square;stroke-width:1.5;"/>
    <defs>
     <path d="M -12 12 
L 12 -12 
M -12 -12 
L 12 12 
" id="m5e4601fbc0" style="stroke:#00bfbf;"/>
    </defs>
    <g clip-path="url(#pb7e41760c6)">
     <use style="fill:#00bfbf;stroke:#00bfbf;" x="141.80232" xlink:href="#m5e4601fbc0" y="237.419853"/>
    </g>
   </g>
   <g id="line2d_34">
    <defs>
     <path d="M 0 1.5 
C 0.397805 1.5 0.77937 1.341951 1.06066 1.06066 
C 1.341951 0.77937 1.5 0.397805 1.5 0 
C 1.5 -0.397805 1.341951 -0.77937 1.06066 -1.06066 
C 0.77937 -1.341951 0.397805 -1.5 0 -1.5 
C -0.397805 -1.5 -0.77937 -1.341951 -1.06066 -1.06066 
C -1.341951 -0.77937 -1.5 -0.397805 -1.5 0 
C -1.5 0.397805 -1.341951 0.77937 -1.06066 1.06066 
C -0.77937 1.341951 -0.397805 1.5 0 1.5 
z
" id="m21150d6e13" style="stroke:#008000;"/>
    </defs>
    <g>
     <use style="fill:#008000;stroke:#008000;" x="214.376694" xlink:href="#m21150d6e13" y="238.71057"/>
     <use style="fill:#008000;stroke:#008000;" x="214.376694" xlink:href="#m21150d6e13" y="238.71057"/>
    </g>
   </g>
   <g id="line2d_35">
    <path d="M 38.440992 298.944 
L 38.440992 298.083522 
L 50.52898 298.083522 
L 50.52898 297.653284 
L 62.616969 297.653284 
L 62.616969 297.079632 
L 66.508432 297.079632 
L 66.508432 296.075741 
L 69.687988 296.075741 
L 69.687988 295.215264 
L 74.704957 295.215264 
L 74.704957 294.06796 
L 76.759008 294.06796 
L 76.759008 292.203592 
L 78.59642 292.203592 
L 78.59642 291.486528 
L 80.258561 291.486528 
L 80.258561 291.056289 
L 83.171864 291.056289 
L 83.171864 290.482637 
L 85.66744 290.482637 
L 85.66744 290.339224 
L 86.792945 290.339224 
L 86.792945 290.052398 
L 87.850195 290.052398 
L 87.850195 288.905095 
L 88.846997 288.905095 
L 88.846997 288.618269 
L 90.684409 288.618269 
L 90.684409 288.474856 
L 92.34655 288.474856 
L 92.34655 288.18803 
L 93.863965 288.18803 
L 93.863965 287.901204 
L 95.918017 287.901204 
L 95.918017 286.897314 
L 96.552242 286.897314 
L 96.552242 286.610488 
L 97.16421 286.610488 
L 97.16421 285.606598 
L 99.41757 285.606598 
L 99.41757 285.463185 
L 101.877879 285.463185 
L 101.877879 285.319772 
L 103.203018 285.319772 
L 103.203018 284.602707 
L 104.434538 284.602707 
L 104.434538 284.315881 
L 104.826449 284.315881 
L 104.826449 283.598817 
L 105.209745 283.598817 
L 105.209745 283.455404 
L 105.584798 283.455404 
L 105.584798 283.311991 
L 106.311539 283.311991 
L 106.311539 282.594926 
L 107.347841 282.594926 
L 107.347841 282.451513 
L 107.680028 282.451513 
L 107.680028 281.591036 
L 108.006005 281.591036 
L 108.006005 281.017384 
L 108.640231 281.017384 
L 108.640231 280.587145 
L 108.948899 280.587145 
L 108.948899 280.300319 
L 109.252198 280.300319 
L 109.252198 279.583255 
L 109.550313 279.583255 
L 109.550313 279.009603 
L 110.131676 279.009603 
L 110.131676 278.86619 
L 110.415248 278.86619 
L 110.415248 278.579364 
L 119.097192 278.579364 
L 119.097192 278.292538 
L 119.267333 278.292538 
L 119.267333 277.718886 
L 119.931767 277.718886 
L 119.931767 277.145235 
L 120.093994 277.145235 
L 120.093994 276.284757 
L 120.254726 276.284757 
L 120.254726 275.997931 
L 120.728219 275.997931 
L 120.728219 275.854518 
L 120.883236 275.854518 
L 120.883236 275.42428 
L 121.036887 275.42428 
L 121.036887 275.137454 
L 126.168212 275.137454 
L 126.168212 274.850628 
L 126.281824 274.850628 
L 126.281824 274.563802 
L 126.3947 274.563802 
L 126.3947 274.276976 
L 126.50685 274.276976 
L 126.50685 273.559911 
L 126.839037 273.559911 
L 126.948374 273.129673 
L 127.272333 273.129673 
L 127.378995 271.838956 
L 131.185181 271.838956 
L 131.270459 271.121892 
L 131.355321 271.121892 
L 131.439773 270.54824 
L 131.77355 270.54824 
L 131.77355 270.118001 
L 134.870259 270.118001 
L 134.870259 269.687762 
L 135.00812 269.687762 
L 135.00812 269.544349 
L 135.212889 269.544349 
L 135.280614 269.114111 
L 135.548916 269.114111 
L 135.548916 268.970698 
L 135.681535 268.970698 
L 135.681535 267.823394 
L 138.026733 267.823394 
L 138.084384 267.393156 
L 138.199116 267.393156 
L 138.199116 267.10633 
L 138.426341 267.10633 
L 138.482688 266.532678 
L 138.594838 266.532678 
L 138.650644 265.959026 
L 138.706272 265.959026 
L 138.706272 265.815613 
L 140.698504 265.815613 
L 140.698504 265.6722 
L 140.846504 265.6722 
L 140.89556 265.098549 
L 141.041904 265.098549 
L 141.138789 263.807832 
L 141.33096 263.807832 
L 141.33096 263.664419 
L 141.895083 263.664419 
L 141.987354 262.947355 
L 142.033307 262.947355 
L 142.07914 262.660529 
L 142.170445 262.660529 
L 142.170445 262.517116 
L 142.53096 262.517116 
L 142.53096 262.086877 
L 142.708461 262.086877 
L 142.708461 261.943464 
L 142.884173 261.943464 
L 142.884173 261.2264 
L 143.273169 261.2264 
L 143.31586 260.365922 
L 145.059213 260.365922 
L 145.097753 259.935683 
L 145.251067 259.935683 
L 145.289185 259.362031 
L 145.478539 259.362031 
L 145.478539 259.218619 
L 147.164632 259.218619 
L 147.266916 258.644967 
L 148.607802 258.644967 
L 148.701984 257.210838 
L 150.05688 257.210838 
L 150.114722 256.924012 
L 150.201126 256.924012 
L 150.229833 256.637186 
L 150.401087 256.637186 
L 150.401087 256.206947 
L 151.528368 256.206947 
L 151.528368 256.063534 
L 151.713753 256.063534 
L 151.76636 255.633295 
L 152.835965 255.633295 
L 152.835965 255.489882 
L 153.129893 255.489882 
L 153.129893 255.346469 
L 153.395042 255.346469 
L 153.395042 255.203056 
L 153.773658 255.203056 
L 153.867041 254.772818 
L 153.983071 254.772818 
L 153.983071 254.629405 
L 155.059358 254.629405 
L 155.059358 254.485992 
L 155.189341 254.485992 
L 155.189341 254.199166 
L 156.277034 254.199166 
L 156.337763 253.91234 
L 157.147202 253.91234 
L 157.147202 253.768927 
L 158.086033 253.768927 
L 158.086033 253.482101 
L 158.267884 253.482101 
L 158.267884 253.051863 
L 158.994256 253.051863 
L 158.994256 252.90845 
L 159.906985 252.90845 
L 159.923445 252.478211 
L 160.553557 252.478211 
L 160.553557 252.334798 
L 160.69579 252.334798 
L 160.758635 251.904559 
L 161.374928 251.904559 
L 161.39006 251.330907 
L 162.274744 251.330907 
L 162.274744 251.187494 
L 162.896128 251.187494 
L 162.896128 250.900669 
L 163.576373 250.900669 
L 163.669525 250.613843 
L 164.205356 250.613843 
L 164.308016 250.040191 
L 164.320806 250.040191 
L 164.320806 249.753365 
L 165.132663 249.753365 
L 165.132663 249.466539 
L 165.375047 249.466539 
L 165.483031 249.036301 
L 166.07106 249.036301 
L 166.07106 248.749475 
L 166.695783 248.749475 
L 166.695783 248.606062 
L 167.661564 248.606062 
L 167.682664 248.319236 
L 167.787784 248.319236 
L 167.787784 247.888997 
L 168.293904 247.888997 
L 168.293904 247.745584 
L 168.9532 247.745584 
L 168.9532 247.458758 
L 169.654516 247.458758 
L 169.66393 247.171932 
L 170.219663 247.171932 
L 170.219663 247.02852 
L 171.116915 247.02852 
L 171.116915 246.741694 
L 171.46837 246.741694 
L 171.46837 246.598281 
L 171.887604 246.598281 
L 171.920711 246.311455 
L 172.085312 246.311455 
L 172.085312 246.024629 
L 172.248373 246.024629 
L 172.321256 245.737803 
L 173.09576 245.737803 
L 173.149788 245.450977 
L 173.485609 245.450977 
L 173.485609 245.307564 
L 173.911252 245.307564 
L 173.911252 244.877326 
L 174.211117 244.877326 
L 174.211117 244.733913 
L 175.245745 244.733913 
L 175.245745 244.5905 
L 175.948902 244.5905 
L 175.948902 244.447087 
L 176.319066 244.447087 
L 176.319066 244.303674 
L 176.631116 244.303674 
L 176.631116 244.160261 
L 177.042792 244.160261 
L 177.042792 243.873435 
L 177.849864 243.873435 
L 177.849864 243.730022 
L 178.095327 243.730022 
L 178.095327 243.586609 
L 179.076969 243.586609 
L 179.076969 243.443196 
L 180.52889 243.443196 
L 180.574258 243.15637 
L 181.54839 243.15637 
L 181.54839 243.012957 
L 182.022734 243.012957 
L 182.022734 242.869545 
L 182.252868 242.869545 
L 182.252868 242.582719 
L 184.37689 242.582719 
L 184.37689 242.439306 
L 184.99723 242.439306 
L 184.99723 242.009067 
L 185.187613 242.009067 
L 185.187613 241.865654 
L 185.51681 241.865654 
L 185.51681 241.722241 
L 186.313602 241.722241 
L 186.313602 241.578828 
L 186.493798 241.578828 
L 186.493798 241.435415 
L 187.537545 241.435415 
L 187.537545 241.292002 
L 189.754435 241.292002 
L 189.754435 240.861764 
L 190.905201 240.861764 
L 190.905201 240.718351 
L 191.140254 240.718351 
L 191.140254 240.574938 
L 192.023919 240.574938 
L 192.023919 240.431525 
L 192.213492 240.431525 
L 192.213492 240.288112 
L 194.30882 240.288112 
L 194.30882 240.144699 
L 194.734189 240.144699 
L 194.734189 240.001286 
L 195.842643 240.001286 
L 195.842643 239.857873 
L 196.644095 239.857873 
L 196.644095 239.71446 
L 197.992917 239.71446 
L 197.992917 239.571047 
L 199.372108 239.571047 
L 199.372108 239.427634 
L 200.346623 239.427634 
L 200.346623 239.284221 
L 202.97369 239.284221 
L 202.97369 239.140808 
L 205.396369 239.140808 
L 205.396369 238.997395 
L 208.777101 238.997395 
L 208.777101 238.853983 
L 214.376694 238.853983 
L 214.376694 238.71057 
L 338.688 238.71057 
L 338.688 238.71057 
" style="fill:none;stroke:#008000;stroke-linecap:square;stroke-width:1.5;"/>
   </g>
   <g id="line2d_36">
    <defs>
     <path d="M -0 6 
L 6 -6 
L -6 -6 
z
" id="m572f34698b" style="stroke:#008000;stroke-linejoin:miter;stroke-width:1.5;"/>
    </defs>
    <g>
     <use style="fill-opacity:0;stroke:#008000;stroke-linejoin:miter;stroke-width:1.5;" x="93.863965" xlink:href="#m572f34698b" y="288.18803"/>
     <use style="fill-opacity:0;stroke:#008000;stroke-linejoin:miter;stroke-width:1.5;" x="145.478539" xlink:href="#m572f34698b" y="259.362031"/>
     <use style="fill-opacity:0;stroke:#008000;stroke-linejoin:miter;stroke-width:1.5;" x="214.376694" xlink:href="#m572f34698b" y="238.853983"/>
     <use style="fill-opacity:0;stroke:#008000;stroke-linejoin:miter;stroke-width:1.5;" x="214.376694" xlink:href="#m572f34698b" y="238.853983"/>
     <use style="fill-opacity:0;stroke:#008000;stroke-linejoin:miter;stroke-width:1.5;" x="214.376694" xlink:href="#m572f34698b" y="238.71057"/>
     <use style="fill-opacity:0;stroke:#008000;stroke-linejoin:miter;stroke-width:1.5;" x="338.688" xlink:href="#m572f34698b" y="238.71057"/>
    </g>
   </g>
   <g id="line2d_37">
    <path style="fill:none;stroke:#008000;stroke-linecap:square;stroke-width:1.5;"/>
    <g/>
   </g>
   <g id="line2d_38">
    <path clip-path="url(#pb7e41760c6)" d="M 140.599134 265.815613 
" style="fill:none;stroke:#008000;stroke-linecap:square;stroke-width:1.5;"/>
    <defs>
     <path d="M -12 12 
L 12 -12 
M -12 -12 
L 12 12 
" id="mbba8562029" style="stroke:#008000;"/>
    </defs>
    <g clip-path="url(#pb7e41760c6)">
     <use style="fill:#008000;stroke:#008000;" x="140.599134" xlink:href="#mbba8562029" y="265.815613"/>
    </g>
   </g>
   <g id="line2d_39">
    <defs>
     <path d="M 0 1.5 
C 0.397805 1.5 0.77937 1.341951 1.06066 1.06066 
C 1.341951 0.77937 1.5 0.397805 1.5 0 
C 1.5 -0.397805 1.341951 -0.77937 1.06066 -1.06066 
C 0.77937 -1.341951 0.397805 -1.5 0 -1.5 
C -0.397805 -1.5 -0.77937 -1.341951 -1.06066 -1.06066 
C -1.341951 -0.77937 -1.5 -0.397805 -1.5 0 
C -1.5 0.397805 -1.341951 0.77937 -1.06066 1.06066 
C -0.77937 1.341951 -0.397805 1.5 0 1.5 
z
" id="mdb234888f4" style="stroke:#0000ff;"/>
    </defs>
    <g>
     <use style="fill:#0000ff;stroke:#0000ff;" x="202.157476" xlink:href="#mdb234888f4" y="273.129673"/>
     <use style="fill:#0000ff;stroke:#0000ff;" x="202.157476" xlink:href="#mdb234888f4" y="273.129673"/>
    </g>
   </g>
   <g id="line2d_40">
    <path d="M 29.53256 298.944 
L 29.53256 298.800587 
L 41.620548 298.800587 
L 41.620548 298.657174 
L 48.691568 298.657174 
L 48.691568 298.370348 
L 53.708537 298.370348 
L 53.708537 297.940109 
L 60.779557 297.940109 
L 60.779557 297.509871 
L 65.796525 297.509871 
L 65.796525 297.366458 
L 71.35013 297.366458 
L 71.35013 297.223045 
L 72.867545 297.223045 
L 72.867545 296.936219 
L 75.555822 296.936219 
L 75.555822 296.792806 
L 76.759008 296.792806 
L 76.759008 296.362567 
L 80.881459 296.362567 
L 80.881459 296.075741 
L 81.775977 296.075741 
L 81.775977 295.645503 
L 83.438118 295.645503 
L 83.438118 295.50209 
L 84.213325 295.50209 
L 84.213325 295.358677 
L 84.955534 295.358677 
L 84.955534 295.215264 
L 85.66744 295.215264 
L 85.66744 295.071851 
L 86.351421 295.071851 
L 86.351421 294.928438 
L 89.418828 294.928438 
L 89.418828 294.785025 
L 89.972502 294.785025 
L 89.972502 294.641612 
L 90.509138 294.641612 
L 90.509138 294.354786 
L 91.029752 294.354786 
L 91.029752 294.06796 
L 93.422441 294.06796 
L 93.422441 293.924547 
L 98.43941 293.924547 
L 98.43941 293.350896 
L 98.771596 293.350896 
L 98.771596 293.06407 
L 99.097574 293.06407 
L 99.097574 292.490418 
L 99.731799 292.490418 
L 99.731799 292.347005 
L 100.343767 292.347005 
L 100.343767 292.060179 
L 101.506816 292.060179 
L 101.506816 291.916766 
L 110.188761 291.916766 
L 110.188761 291.773354 
L 110.358901 291.773354 
L 110.358901 291.629941 
L 111.023335 291.629941 
L 111.023335 291.056289 
L 117.145424 291.056289 
L 117.145424 290.912876 
L 117.259781 290.912876 
L 117.259781 290.769463 
L 117.373392 290.769463 
L 117.373392 290.62605 
L 117.709852 290.62605 
L 117.820578 290.339224 
L 122.699028 290.339224 
L 122.699028 290.052398 
L 122.865118 290.052398 
L 122.865118 289.908985 
L 126.236468 289.908985 
L 126.236468 289.478747 
L 126.573795 289.478747 
L 126.573795 289.335334 
L 129.46138 289.335334 
L 129.46138 289.191921 
L 129.79784 289.191921 
L 129.79784 289.048508 
L 131.888878 289.048508 
L 131.888878 288.905095 
L 132.181982 288.905095 
L 132.181982 288.761682 
L 136.227776 288.761682 
L 136.227776 288.618269 
L 136.380754 288.618269 
L 136.418789 288.331443 
L 138.187677 288.331443 
L 138.256201 288.044617 
L 138.392446 288.044617 
L 138.392446 287.757791 
L 139.762215 287.757791 
L 139.762215 287.470966 
L 140.165274 287.470966 
L 140.165274 287.327553 
L 140.287441 287.327553 
L 140.287441 287.18414 
L 141.321401 287.18414 
L 141.321401 286.467075 
L 142.539878 286.467075 
L 142.539878 286.036836 
L 142.673105 286.036836 
L 142.673105 285.893423 
L 143.87806 285.893423 
L 143.87806 285.75001 
L 145.189903 285.75001 
L 145.235796 285.463185 
L 146.237689 285.463185 
L 146.345539 285.176359 
L 147.327999 285.176359 
L 147.327999 285.032946 
L 148.23877 285.032946 
L 148.23877 284.889533 
L 150.120495 284.889533 
L 150.155097 284.172468 
L 151.015013 284.172468 
L 151.015013 283.742229 
L 151.755852 283.742229 
L 151.755852 283.598817 
L 151.959639 283.598817 
L 151.959639 283.455404 
L 152.161072 283.455404 
L 152.161072 283.311991 
L 152.632227 283.311991 
L 152.632227 283.168578 
L 153.221946 283.168578 
L 153.279836 282.738339 
L 154.001564 282.738339 
L 154.001564 282.594926 
L 154.654594 282.594926 
L 154.654594 282.451513 
L 155.30979 282.451513 
L 155.30979 282.3081 
L 157.697862 282.3081 
L 157.697862 282.164687 
L 158.347301 282.164687 
L 158.347301 281.877861 
L 158.931675 281.877861 
L 158.931675 281.734448 
L 159.087709 281.734448 
L 159.087709 281.591036 
L 159.273126 281.591036 
L 159.273126 281.447623 
L 159.778062 281.447623 
L 159.778062 280.873971 
L 160.326759 280.873971 
L 160.326759 280.730558 
L 160.783709 280.730558 
L 160.830627 280.443732 
L 161.247301 280.443732 
L 161.247301 280.013493 
L 163.461244 280.013493 
L 163.461244 279.87008 
L 164.15638 279.87008 
L 164.241356 279.439842 
L 167.410635 279.439842 
L 167.410635 279.296429 
L 169.752173 279.296429 
L 169.774632 279.009603 
L 170.030851 279.009603 
L 170.030851 278.86619 
L 170.310587 278.86619 
L 170.310587 278.722777 
L 170.628703 278.722777 
L 170.628703 278.435951 
L 171.123841 278.435951 
L 171.123841 278.292538 
L 172.122951 278.292538 
L 172.122951 278.005712 
L 172.597058 278.005712 
L 172.597058 277.862299 
L 173.968698 277.862299 
L 173.968698 277.718886 
L 176.084892 277.718886 
L 176.084892 277.575474 
L 176.236623 277.575474 
L 176.236623 277.432061 
L 177.016882 277.432061 
L 177.016882 277.145235 
L 177.201114 277.145235 
L 177.201114 277.001822 
L 178.07326 277.001822 
L 178.07326 276.858409 
L 178.250169 276.858409 
L 178.250169 276.714996 
L 179.424571 276.714996 
L 179.424571 276.571583 
L 179.613903 276.571583 
L 179.613903 276.42817 
L 180.678662 276.42817 
L 180.678662 276.284757 
L 181.682134 276.284757 
L 181.682134 276.141344 
L 184.550897 276.141344 
L 184.550897 275.997931 
L 185.039371 275.997931 
L 185.039371 275.854518 
L 185.155898 275.854518 
L 185.155898 275.711105 
L 185.379762 275.711105 
L 185.379762 275.567692 
L 185.514535 275.567692 
L 185.514535 275.42428 
L 185.827993 275.42428 
L 185.827993 275.280867 
L 186.16663 275.280867 
L 186.16663 275.137454 
L 187.015826 275.137454 
L 187.015826 274.850628 
L 189.173263 274.850628 
L 189.173263 274.707215 
L 189.547413 274.707215 
L 189.547413 274.563802 
L 191.978951 274.563802 
L 191.978951 274.420389 
L 193.91691 274.420389 
L 193.91691 274.276976 
L 194.393816 274.276976 
L 194.393816 274.133563 
L 194.948345 274.133563 
L 194.948345 273.99015 
L 197.348098 273.99015 
L 197.348098 273.846737 
L 198.629765 273.846737 
L 198.629765 273.703324 
L 200.315488 273.703324 
L 200.315488 273.559911 
L 201.036585 273.559911 
L 201.036585 273.416499 
L 201.165983 273.416499 
L 201.165983 273.273086 
L 202.157476 273.273086 
L 202.157476 273.129673 
L 338.688 273.129673 
L 338.688 273.129673 
" style="fill:none;stroke:#0000ff;stroke-linecap:square;stroke-width:1.5;"/>
   </g>
   <g id="line2d_41">
    <defs>
     <path d="M 0 -6 
L -1.347084 -1.854102 
L -5.706339 -1.854102 
L -2.179628 0.708204 
L -3.526712 4.854102 
L -0 2.291796 
L 3.526712 4.854102 
L 2.179628 0.708204 
L 5.706339 -1.854102 
L 1.347084 -1.854102 
z
" id="m28e94c86f6" style="stroke:#0000ff;stroke-linejoin:bevel;stroke-width:1.5;"/>
    </defs>
    <g>
     <use style="fill-opacity:0;stroke:#0000ff;stroke-linejoin:bevel;stroke-width:1.5;" x="117.820578" xlink:href="#m28e94c86f6" y="290.339224"/>
     <use style="fill-opacity:0;stroke:#0000ff;stroke-linejoin:bevel;stroke-width:1.5;" x="169.774632" xlink:href="#m28e94c86f6" y="279.009603"/>
     <use style="fill-opacity:0;stroke:#0000ff;stroke-linejoin:bevel;stroke-width:1.5;" x="202.157476" xlink:href="#m28e94c86f6" y="273.273086"/>
     <use style="fill-opacity:0;stroke:#0000ff;stroke-linejoin:bevel;stroke-width:1.5;" x="202.157476" xlink:href="#m28e94c86f6" y="273.129673"/>
     <use style="fill-opacity:0;stroke:#0000ff;stroke-linejoin:bevel;stroke-width:1.5;" x="202.157476" xlink:href="#m28e94c86f6" y="273.129673"/>
     <use style="fill-opacity:0;stroke:#0000ff;stroke-linejoin:bevel;stroke-width:1.5;" x="338.688" xlink:href="#m28e94c86f6" y="273.129673"/>
    </g>
   </g>
   <g id="line2d_42">
    <path style="fill:none;stroke:#0000ff;stroke-linecap:square;stroke-width:1.5;"/>
    <g/>
   </g>
   <g id="line2d_43">
    <path clip-path="url(#pb7e41760c6)" d="M 139.572998 287.757791 
" style="fill:none;stroke:#0000ff;stroke-linecap:square;stroke-width:1.5;"/>
    <defs>
     <path d="M -12 12 
L 12 -12 
M -12 -12 
L 12 12 
" id="m079b95c307" style="stroke:#0000ff;"/>
    </defs>
    <g clip-path="url(#pb7e41760c6)">
     <use style="fill:#0000ff;stroke:#0000ff;" x="139.572998" xlink:href="#m079b95c307" y="287.757791"/>
    </g>
   </g>
   <g id="line2d_44">
    <defs>
     <path d="M 0 1.5 
C 0.397805 1.5 0.77937 1.341951 1.06066 1.06066 
C 1.341951 0.77937 1.5 0.397805 1.5 0 
C 1.5 -0.397805 1.341951 -0.77937 1.06066 -1.06066 
C 0.77937 -1.341951 0.397805 -1.5 0 -1.5 
C -0.397805 -1.5 -0.77937 -1.341951 -1.06066 -1.06066 
C -1.341951 -0.77937 -1.5 -0.397805 -1.5 0 
C -1.5 0.397805 -1.341951 0.77937 -1.06066 1.06066 
C -0.77937 1.341951 -0.397805 1.5 0 1.5 
z
" id="m489f12ebb3" style="stroke:#000000;"/>
    </defs>
    <g>
     <use style="stroke:#000000;" x="182.648436" xlink:href="#m489f12ebb3" y="293.207483"/>
     <use style="stroke:#000000;" x="182.648436" xlink:href="#m489f12ebb3" y="293.207483"/>
    </g>
   </g>
   <g id="line2d_45">
    <path d="M 36.60358 298.944 
L 36.60358 298.657174 
L 76.16779 298.657174 
L 76.16779 298.513761 
L 87.329581 298.513761 
L 87.329581 298.370348 
L 98.771596 298.370348 
L 98.771596 298.226935 
L 99.258306 298.226935 
L 99.258306 298.083522 
L 110.358901 298.083522 
L 110.358901 297.940109 
L 114.216469 297.940109 
L 114.216469 297.796697 
L 122.148045 297.796697 
L 122.148045 297.653284 
L 136.112156 297.653284 
L 136.112156 297.509871 
L 136.342635 297.509871 
L 136.342635 297.366458 
L 138.101642 297.366458 
L 138.101642 297.223045 
L 138.811478 297.223045 
L 138.811478 296.936219 
L 139.236847 296.936219 
L 139.236847 296.792806 
L 141.885829 296.792806 
L 141.885829 296.649393 
L 144.45069 296.649393 
L 144.45069 296.50598 
L 151.300575 296.50598 
L 151.300575 296.362567 
L 151.708484 296.362567 
L 151.708484 296.219154 
L 152.481628 296.219154 
L 152.481628 296.075741 
L 153.637357 296.075741 
L 153.637357 295.932328 
L 153.925152 295.932328 
L 153.925152 295.645503 
L 157.15106 295.645503 
L 157.15106 295.50209 
L 163.973442 295.50209 
L 163.973442 295.358677 
L 164.543127 295.358677 
L 164.543127 295.215264 
L 167.66262 295.215264 
L 167.66262 295.071851 
L 168.125111 295.071851 
L 168.125111 294.928438 
L 170.160306 294.928438 
L 170.160306 294.785025 
L 170.569832 294.785025 
L 170.569832 294.641612 
L 172.371288 294.641612 
L 172.371288 294.498199 
L 173.632396 294.498199 
L 173.632396 294.354786 
L 175.846869 294.354786 
L 175.846869 294.211373 
L 177.085275 294.211373 
L 177.085275 294.06796 
L 177.103714 294.06796 
L 177.103714 293.924547 
L 177.455813 293.924547 
L 177.455813 293.781135 
L 177.54768 293.781135 
L 177.54768 293.637722 
L 177.811565 293.637722 
L 177.811565 293.494309 
L 178.669591 293.494309 
L 178.669591 293.350896 
L 182.648436 293.350896 
L 182.648436 293.207483 
L 338.688 293.207483 
" style="fill:none;stroke:#000000;stroke-linecap:square;stroke-width:1.5;"/>
   </g>
   <g id="line2d_46">
    <defs>
     <path d="M 0 6 
C 1.591219 6 3.117479 5.367802 4.242641 4.242641 
C 5.367802 3.117479 6 1.591219 6 0 
C 6 -1.591219 5.367802 -3.117479 4.242641 -4.242641 
C 3.117479 -5.367802 1.591219 -6 0 -6 
C -1.591219 -6 -3.117479 -5.367802 -4.242641 -4.242641 
C -5.367802 -3.117479 -6 -1.591219 -6 0 
C -6 1.591219 -5.367802 3.117479 -4.242641 4.242641 
C -3.117479 5.367802 -1.591219 6 0 6 
z
" id="mfd2cdd05ec" style="stroke:#000000;stroke-width:1.5;"/>
    </defs>
    <g>
     <use style="fill-opacity:0;stroke:#000000;stroke-width:1.5;" x="87.329581" xlink:href="#mfd2cdd05ec" y="298.370348"/>
     <use style="fill-opacity:0;stroke:#000000;stroke-width:1.5;" x="182.648436" xlink:href="#mfd2cdd05ec" y="293.350896"/>
     <use style="fill-opacity:0;stroke:#000000;stroke-width:1.5;" x="182.648436" xlink:href="#mfd2cdd05ec" y="293.350896"/>
     <use style="fill-opacity:0;stroke:#000000;stroke-width:1.5;" x="182.648436" xlink:href="#mfd2cdd05ec" y="293.207483"/>
     <use style="fill-opacity:0;stroke:#000000;stroke-width:1.5;" x="182.648436" xlink:href="#mfd2cdd05ec" y="293.207483"/>
     <use style="fill-opacity:0;stroke:#000000;stroke-width:1.5;" x="338.688" xlink:href="#mfd2cdd05ec" y="293.207483"/>
    </g>
   </g>
   <g id="line2d_47">
    <path style="fill:none;stroke:#000000;stroke-linecap:square;stroke-width:1.5;"/>
    <g/>
   </g>
   <g id="line2d_48">
    <path clip-path="url(#pb7e41760c6)" d="M 138.761723 297.223045 
" style="fill:none;stroke:#000000;stroke-linecap:square;stroke-width:1.5;"/>
    <defs>
     <path d="M -12 12 
L 12 -12 
M -12 -12 
L 12 12 
" id="m7e6e060a2f" style="stroke:#000000;"/>
    </defs>
    <g clip-path="url(#pb7e41760c6)">
     <use style="stroke:#000000;" x="138.761723" xlink:href="#m7e6e060a2f" y="297.223045"/>
    </g>
   </g>
   <g id="line2d_49">
    <path clip-path="url(#pb7e41760c6)" d="M 57.6 298.944 
L 57.6 298.944 
L 57.6 298.944 
L 57.6 298.944 
L 338.688 298.944 
" style="fill:none;stroke:#ff0000;stroke-linecap:square;stroke-width:1.5;"/>
   </g>
   <g id="line2d_50">
    <defs>
     <path d="M -6 6 
L 6 6 
L 6 -6 
L -6 -6 
z
" id="mad254dc23e" style="stroke:#ff0000;stroke-linejoin:miter;stroke-width:1.5;"/>
    </defs>
    <g clip-path="url(#pb7e41760c6)">
     <use style="fill-opacity:0;stroke:#ff0000;stroke-linejoin:miter;stroke-width:1.5;" x="57.6" xlink:href="#mad254dc23e" y="298.944"/>
    </g>
   </g>
   <g id="line2d_51">
    <path clip-path="url(#pb7e41760c6)" style="fill:none;stroke:#ff0000;stroke-linecap:square;stroke-width:1.5;"/>
    <g clip-path="url(#pb7e41760c6)">
     <use style="fill-opacity:0;stroke:#ff0000;stroke-linejoin:miter;stroke-width:1.5;" x="-1" xlink:href="#mad254dc23e" y="591.506376"/>
     <use style="fill-opacity:0;stroke:#ff0000;stroke-linejoin:miter;stroke-width:1.5;" x="338.688" xlink:href="#mad254dc23e" y="591.506376"/>
    </g>
   </g>
   <g id="line2d_52">
    <path clip-path="url(#pb7e41760c6)" d="M 57.6 298.944 
L 57.6 298.944 
L 57.6 298.944 
L 57.6 298.944 
L 338.688 298.944 
" style="fill:none;stroke:#bf00bf;stroke-linecap:square;stroke-width:1.5;"/>
   </g>
   <g id="line2d_53">
    <defs>
     <path d="M -0 8.485281 
L 8.485281 0 
L 0 -8.485281 
L -8.485281 -0 
z
" id="m89049582bd" style="stroke:#bf00bf;stroke-linejoin:miter;stroke-width:1.5;"/>
    </defs>
    <g clip-path="url(#pb7e41760c6)">
     <use style="fill-opacity:0;stroke:#bf00bf;stroke-linejoin:miter;stroke-width:1.5;" x="57.6" xlink:href="#m89049582bd" y="298.944"/>
    </g>
   </g>
   <g id="line2d_54">
    <path clip-path="url(#pb7e41760c6)" style="fill:none;stroke:#bf00bf;stroke-linecap:square;stroke-width:1.5;"/>
    <g clip-path="url(#pb7e41760c6)">
     <use style="fill-opacity:0;stroke:#bf00bf;stroke-linejoin:miter;stroke-width:1.5;" x="-1" xlink:href="#m89049582bd" y="591.506376"/>
     <use style="fill-opacity:0;stroke:#bf00bf;stroke-linejoin:miter;stroke-width:1.5;" x="338.688" xlink:href="#m89049582bd" y="591.506376"/>
    </g>
   </g>
   <g id="line2d_55">
    <path d="M 338.688 298.944 
L 369.60768 293.092752 
" style="fill:none;stroke:#bf00bf;stroke-linecap:square;stroke-width:1.5;"/>
    <g>
     <use style="fill-opacity:0;stroke:#bf00bf;stroke-linejoin:miter;stroke-width:1.5;" x="338.688" xlink:href="#m89049582bd" y="298.944"/>
     <use style="fill-opacity:0;stroke:#bf00bf;stroke-linejoin:miter;stroke-width:1.5;" x="369.60768" xlink:href="#m89049582bd" y="293.092752"/>
    </g>
   </g>
   <g id="line2d_56">
    <path d="M 338.688 298.944 
L 369.60768 236.920776 
" style="fill:none;stroke:#ff0000;stroke-linecap:square;stroke-width:1.5;"/>
    <g>
     <use style="fill-opacity:0;stroke:#ff0000;stroke-linejoin:miter;stroke-width:1.5;" x="338.688" xlink:href="#mad254dc23e" y="298.944"/>
     <use style="fill-opacity:0;stroke:#ff0000;stroke-linejoin:miter;stroke-width:1.5;" x="369.60768" xlink:href="#mad254dc23e" y="236.920776"/>
    </g>
   </g>
   <g id="line2d_57">
    <path d="M 338.688 293.207483 
L 369.60768 180.7488 
" style="fill:none;stroke:#000000;stroke-linecap:square;stroke-width:1.5;"/>
    <g>
     <use style="fill-opacity:0;stroke:#000000;stroke-width:1.5;" x="338.688" xlink:href="#mfd2cdd05ec" y="293.207483"/>
     <use style="fill-opacity:0;stroke:#000000;stroke-width:1.5;" x="369.60768" xlink:href="#mfd2cdd05ec" y="180.7488"/>
    </g>
   </g>
   <g id="line2d_58">
    <path d="M 338.688 273.129673 
L 369.60768 124.576824 
" style="fill:none;stroke:#0000ff;stroke-linecap:square;stroke-width:1.5;"/>
    <g>
     <use style="fill-opacity:0;stroke:#0000ff;stroke-linejoin:bevel;stroke-width:1.5;" x="338.688" xlink:href="#m28e94c86f6" y="273.129673"/>
     <use style="fill-opacity:0;stroke:#0000ff;stroke-linejoin:bevel;stroke-width:1.5;" x="369.60768" xlink:href="#m28e94c86f6" y="124.576824"/>
    </g>
   </g>
   <g id="line2d_59">
    <path d="M 338.688 238.71057 
L 369.60768 68.404848 
" style="fill:none;stroke:#008000;stroke-linecap:square;stroke-width:1.5;"/>
    <g>
     <use style="fill-opacity:0;stroke:#008000;stroke-linejoin:miter;stroke-width:1.5;" x="338.688" xlink:href="#m572f34698b" y="238.71057"/>
     <use style="fill-opacity:0;stroke:#008000;stroke-linejoin:miter;stroke-width:1.5;" x="369.60768" xlink:href="#m572f34698b" y="68.404848"/>
    </g>
   </g>
   <g id="line2d_60">
    <path d="M 338.688 202.857337 
L 369.60768 12.232871 
" style="fill:none;stroke:#00bfbf;stroke-linecap:square;stroke-width:1.5;"/>
    <g>
     <use style="fill-opacity:0;stroke:#00bfbf;stroke-width:1.5;" x="338.688" xlink:href="#m25822b4270" y="202.857337"/>
     <use style="fill-opacity:0;stroke:#00bfbf;stroke-width:1.5;" x="369.60768" xlink:href="#m25822b4270" y="12.232871"/>
    </g>
   </g>
   <g id="line2d_61">
    <path d="M 338.688 298.944 
L 338.688 6.381624 
" style="fill:none;stroke:#000000;stroke-linecap:square;stroke-width:1.5;"/>
   </g>
   <g id="patch_3">
    <path d="M 57.6 298.944 
L 57.6 3.456 
" style="fill:none;stroke:#000000;stroke-linecap:square;stroke-linejoin:miter;stroke-width:0.8;"/>
   </g>
   <g id="patch_4">
    <path d="M 338.688 298.944 
L 338.688 3.456 
" style="fill:none;stroke:#000000;stroke-linecap:square;stroke-linejoin:miter;stroke-width:0.8;"/>
   </g>
   <g id="patch_5">
    <path d="M 57.6 298.944 
L 338.688 298.944 
" style="fill:none;stroke:#000000;stroke-linecap:square;stroke-linejoin:miter;stroke-width:0.8;"/>
   </g>
   <g id="patch_6">
    <path d="M 57.6 3.456 
L 338.688 3.456 
" style="fill:none;stroke:#000000;stroke-linecap:square;stroke-linejoin:miter;stroke-width:0.8;"/>
   </g>
   <g id="text_13">
    <!-- 40-D -->
    <defs>
     <path d="M 19.671875 64.796875 
L 19.671875 8.109375 
L 31.59375 8.109375 
Q 46.6875 8.109375 53.6875 14.9375 
Q 60.6875 21.78125 60.6875 36.53125 
Q 60.6875 51.171875 53.6875 57.984375 
Q 46.6875 64.796875 31.59375 64.796875 
z
M 9.8125 72.90625 
L 30.078125 72.90625 
Q 51.265625 72.90625 61.171875 64.09375 
Q 71.09375 55.28125 71.09375 36.53125 
Q 71.09375 17.671875 61.125 8.828125 
Q 51.171875 0 30.078125 0 
L 9.8125 0 
z
" id="DejaVuSans-68"/>
    </defs>
    <g transform="translate(375.22944 297.78369)scale(0.17 -0.17)">
     <use xlink:href="#DejaVuSans-52"/>
     <use x="63.623047" xlink:href="#DejaVuSans-48"/>
     <use x="127.246094" xlink:href="#DejaVuSans-45"/>
     <use x="163.330078" xlink:href="#DejaVuSans-68"/>
    </g>
   </g>
   <g id="text_14">
    <!-- 20-D -->
    <g transform="translate(375.22944 241.611714)scale(0.17 -0.17)">
     <use xlink:href="#DejaVuSans-50"/>
     <use x="63.623047" xlink:href="#DejaVuSans-48"/>
     <use x="127.246094" xlink:href="#DejaVuSans-45"/>
     <use x="163.330078" xlink:href="#DejaVuSans-68"/>
    </g>
   </g>
   <g id="text_15">
    <!-- 10-D -->
    <g transform="translate(375.22944 185.439737)scale(0.17 -0.17)">
     <use xlink:href="#DejaVuSans-49"/>
     <use x="63.623047" xlink:href="#DejaVuSans-48"/>
     <use x="127.246094" xlink:href="#DejaVuSans-45"/>
     <use x="163.330078" xlink:href="#DejaVuSans-68"/>
    </g>
   </g>
   <g id="text_16">
    <!-- 5-D -->
    <defs>
     <path d="M 10.796875 72.90625 
L 49.515625 72.90625 
L 49.515625 64.59375 
L 19.828125 64.59375 
L 19.828125 46.734375 
Q 21.96875 47.46875 24.109375 47.828125 
Q 26.265625 48.1875 28.421875 48.1875 
Q 40.625 48.1875 47.75 41.5 
Q 54.890625 34.8125 54.890625 23.390625 
Q 54.890625 11.625 47.5625 5.09375 
Q 40.234375 -1.421875 26.90625 -1.421875 
Q 22.3125 -1.421875 17.546875 -0.640625 
Q 12.796875 0.140625 7.71875 1.703125 
L 7.71875 11.625 
Q 12.109375 9.234375 16.796875 8.0625 
Q 21.484375 6.890625 26.703125 6.890625 
Q 35.15625 6.890625 40.078125 11.328125 
Q 45.015625 15.765625 45.015625 23.390625 
Q 45.015625 31 40.078125 35.4375 
Q 35.15625 39.890625 26.703125 39.890625 
Q 22.75 39.890625 18.8125 39.015625 
Q 14.890625 38.140625 10.796875 36.28125 
z
" id="DejaVuSans-53"/>
    </defs>
    <g transform="translate(375.22944 129.267761)scale(0.17 -0.17)">
     <use xlink:href="#DejaVuSans-53"/>
     <use x="63.623047" xlink:href="#DejaVuSans-45"/>
     <use x="99.707031" xlink:href="#DejaVuSans-68"/>
    </g>
   </g>
   <g id="text_17">
    <!-- 3-D -->
    <defs>
     <path d="M 40.578125 39.3125 
Q 47.65625 37.796875 51.625 33 
Q 55.609375 28.21875 55.609375 21.1875 
Q 55.609375 10.40625 48.1875 4.484375 
Q 40.765625 -1.421875 27.09375 -1.421875 
Q 22.515625 -1.421875 17.65625 -0.515625 
Q 12.796875 0.390625 7.625 2.203125 
L 7.625 11.71875 
Q 11.71875 9.328125 16.59375 8.109375 
Q 21.484375 6.890625 26.8125 6.890625 
Q 36.078125 6.890625 40.9375 10.546875 
Q 45.796875 14.203125 45.796875 21.1875 
Q 45.796875 27.640625 41.28125 31.265625 
Q 36.765625 34.90625 28.71875 34.90625 
L 20.21875 34.90625 
L 20.21875 43.015625 
L 29.109375 43.015625 
Q 36.375 43.015625 40.234375 45.921875 
Q 44.09375 48.828125 44.09375 54.296875 
Q 44.09375 59.90625 40.109375 62.90625 
Q 36.140625 65.921875 28.71875 65.921875 
Q 24.65625 65.921875 20.015625 65.03125 
Q 15.375 64.15625 9.8125 62.3125 
L 9.8125 71.09375 
Q 15.4375 72.65625 20.34375 73.4375 
Q 25.25 74.21875 29.59375 74.21875 
Q 40.828125 74.21875 47.359375 69.109375 
Q 53.90625 64.015625 53.90625 55.328125 
Q 53.90625 49.265625 50.4375 45.09375 
Q 46.96875 40.921875 40.578125 39.3125 
z
" id="DejaVuSans-51"/>
    </defs>
    <g transform="translate(375.22944 73.095785)scale(0.17 -0.17)">
     <use xlink:href="#DejaVuSans-51"/>
     <use x="63.623047" xlink:href="#DejaVuSans-45"/>
     <use x="99.707031" xlink:href="#DejaVuSans-68"/>
    </g>
   </g>
   <g id="text_18">
    <!-- 2-D -->
    <g transform="translate(375.22944 16.923809)scale(0.17 -0.17)">
     <use xlink:href="#DejaVuSans-50"/>
     <use x="63.623047" xlink:href="#DejaVuSans-45"/>
     <use x="99.707031" xlink:href="#DejaVuSans-68"/>
    </g>
   </g>
   <g id="text_19">
    <!-- bbob f6-f9 -->
    <defs>
     <path d="M 48.6875 27.296875 
Q 48.6875 37.203125 44.609375 42.84375 
Q 40.53125 48.484375 33.40625 48.484375 
Q 26.265625 48.484375 22.1875 42.84375 
Q 18.109375 37.203125 18.109375 27.296875 
Q 18.109375 17.390625 22.1875 11.75 
Q 26.265625 6.109375 33.40625 6.109375 
Q 40.53125 6.109375 44.609375 11.75 
Q 48.6875 17.390625 48.6875 27.296875 
z
M 18.109375 46.390625 
Q 20.953125 51.265625 25.265625 53.625 
Q 29.59375 56 35.59375 56 
Q 45.5625 56 51.78125 48.09375 
Q 58.015625 40.1875 58.015625 27.296875 
Q 58.015625 14.40625 51.78125 6.484375 
Q 45.5625 -1.421875 35.59375 -1.421875 
Q 29.59375 -1.421875 25.265625 0.953125 
Q 20.953125 3.328125 18.109375 8.203125 
L 18.109375 0 
L 9.078125 0 
L 9.078125 75.984375 
L 18.109375 75.984375 
z
" id="DejaVuSans-98"/>
     <path d="M 10.984375 1.515625 
L 10.984375 10.5 
Q 14.703125 8.734375 18.5 7.8125 
Q 22.3125 6.890625 25.984375 6.890625 
Q 35.75 6.890625 40.890625 13.453125 
Q 46.046875 20.015625 46.78125 33.40625 
Q 43.953125 29.203125 39.59375 26.953125 
Q 35.25 24.703125 29.984375 24.703125 
Q 19.046875 24.703125 12.671875 31.3125 
Q 6.296875 37.9375 6.296875 49.421875 
Q 6.296875 60.640625 12.9375 67.421875 
Q 19.578125 74.21875 30.609375 74.21875 
Q 43.265625 74.21875 49.921875 64.515625 
Q 56.59375 54.828125 56.59375 36.375 
Q 56.59375 19.140625 48.40625 8.859375 
Q 40.234375 -1.421875 26.421875 -1.421875 
Q 22.703125 -1.421875 18.890625 -0.6875 
Q 15.09375 0.046875 10.984375 1.515625 
z
M 30.609375 32.421875 
Q 37.25 32.421875 41.125 36.953125 
Q 45.015625 41.5 45.015625 49.421875 
Q 45.015625 57.28125 41.125 61.84375 
Q 37.25 66.40625 30.609375 66.40625 
Q 23.96875 66.40625 20.09375 61.84375 
Q 16.21875 57.28125 16.21875 49.421875 
Q 16.21875 41.5 20.09375 36.953125 
Q 23.96875 32.421875 30.609375 32.421875 
z
" id="DejaVuSans-57"/>
    </defs>
    <g transform="translate(60.41088 14.161286)scale(0.102 -0.102)">
     <use xlink:href="#DejaVuSans-98"/>
     <use x="63.476562" xlink:href="#DejaVuSans-98"/>
     <use x="126.953125" xlink:href="#DejaVuSans-111"/>
     <use x="188.134766" xlink:href="#DejaVuSans-98"/>
     <use x="251.611328" xlink:href="#DejaVuSans-32"/>
     <use x="283.398438" xlink:href="#DejaVuSans-102"/>
     <use x="318.603516" xlink:href="#DejaVuSans-54"/>
     <use x="382.226562" xlink:href="#DejaVuSans-45"/>
     <use x="418.310547" xlink:href="#DejaVuSans-102"/>
     <use x="453.515625" xlink:href="#DejaVuSans-57"/>
    </g>
    <!-- 51 targets: 100..1e-08 -->
    <defs>
     <path d="M 11.71875 12.40625 
L 22.015625 12.40625 
L 22.015625 0 
L 11.71875 0 
z
M 11.71875 51.703125 
L 22.015625 51.703125 
L 22.015625 39.3125 
L 11.71875 39.3125 
z
" id="DejaVuSans-58"/>
    </defs>
    <g transform="translate(60.41088 25.583055)scale(0.102 -0.102)">
     <use xlink:href="#DejaVuSans-53"/>
     <use x="63.623047" xlink:href="#DejaVuSans-49"/>
     <use x="127.246094" xlink:href="#DejaVuSans-32"/>
     <use x="159.033203" xlink:href="#DejaVuSans-116"/>
     <use x="198.242188" xlink:href="#DejaVuSans-97"/>
     <use x="259.521484" xlink:href="#DejaVuSans-114"/>
     <use x="300.619141" xlink:href="#DejaVuSans-103"/>
     <use x="364.095703" xlink:href="#DejaVuSans-101"/>
     <use x="425.619141" xlink:href="#DejaVuSans-116"/>
     <use x="464.828125" xlink:href="#DejaVuSans-115"/>
     <use x="516.927734" xlink:href="#DejaVuSans-58"/>
     <use x="550.619141" xlink:href="#DejaVuSans-32"/>
     <use x="582.40625" xlink:href="#DejaVuSans-49"/>
     <use x="646.029297" xlink:href="#DejaVuSans-48"/>
     <use x="709.652344" xlink:href="#DejaVuSans-48"/>
     <use x="773.275391" xlink:href="#DejaVuSans-46"/>
     <use x="805.0625" xlink:href="#DejaVuSans-46"/>
     <use x="836.849609" xlink:href="#DejaVuSans-49"/>
     <use x="900.472656" xlink:href="#DejaVuSans-101"/>
     <use x="961.996094" xlink:href="#DejaVuSans-45"/>
     <use x="998.080078" xlink:href="#DejaVuSans-48"/>
     <use x="1061.703125" xlink:href="#DejaVuSans-56"/>
    </g>
    <!-- 15 instances -->
    <g transform="translate(60.41088 37.004824)scale(0.102 -0.102)">
     <use xlink:href="#DejaVuSans-49"/>
     <use x="63.623047" xlink:href="#DejaVuSans-53"/>
     <use x="127.246094" xlink:href="#DejaVuSans-32"/>
     <use x="159.033203" xlink:href="#DejaVuSans-105"/>
     <use x="186.816406" xlink:href="#DejaVuSans-110"/>
     <use x="250.195312" xlink:href="#DejaVuSans-115"/>
     <use x="302.294922" xlink:href="#DejaVuSans-116"/>
     <use x="341.503906" xlink:href="#DejaVuSans-97"/>
     <use x="402.783203" xlink:href="#DejaVuSans-110"/>
     <use x="466.162109" xlink:href="#DejaVuSans-99"/>
     <use x="521.142578" xlink:href="#DejaVuSans-101"/>
     <use x="582.666016" xlink:href="#DejaVuSans-115"/>
    </g>
   </g>
   <g id="text_20">
    <!-- v2.4 -->
    <g style="fill:#808080;" transform="translate(187.233062 293.909432)scale(0.1 -0.1)">
     <use xlink:href="#DejaVuSans-118"/>
     <use x="59.179688" xlink:href="#DejaVuSans-50"/>
     <use x="122.802734" xlink:href="#DejaVuSans-46"/>
     <use x="154.589844" xlink:href="#DejaVuSans-52"/>
    </g>
   </g>
  </g>
 </g>
 <defs>
  <clipPath id="pb7e41760c6">
   <rect height="295.488" width="281.088" x="57.6" y="3.456"/>
  </clipPath>
 </defs>
</svg>
