<?xml version="1.0" encoding="utf-8" standalone="no"?>
<!DOCTYPE svg PUBLIC "-//W3C//DTD SVG 1.1//EN"
  "http://www.w3.org/Graphics/SVG/1.1/DTD/svg11.dtd">
<!-- Created with matplotlib (https://matplotlib.org/) -->
<svg height="345.6pt" version="1.1" viewBox="0 0 460.8 345.6" width="460.8pt" xmlns="http://www.w3.org/2000/svg" xmlns:xlink="http://www.w3.org/1999/xlink">
 <defs>
  <style type="text/css">
*{stroke-linecap:butt;stroke-linejoin:round;}
  </style>
 </defs>
 <g id="figure_1">
  <g id="patch_1">
   <path d="M 0 345.6 
L 460.8 345.6 
L 460.8 0 
L 0 0 
z
" style="fill:#ffffff;"/>
  </g>
  <g id="axes_1">
   <g id="patch_2">
    <path d="M 57.6 298.944 
L 338.688 298.944 
L 338.688 3.456 
L 57.6 3.456 
z
" style="fill:#ffffff;"/>
   </g>
   <g id="matplotlib.axis_1">
    <g id="xtick_1">
     <g id="line2d_1">
      <path clip-path="url(#p14902b8fa7)" d="M 57.6 298.944 
L 57.6 3.456 
" style="fill:none;stroke:#b0b0b0;stroke-linecap:square;stroke-width:0.8;"/>
     </g>
     <g id="line2d_2">
      <defs>
       <path d="M 0 0 
L 0 3.5 
" id="m0ef4aa0425" style="stroke:#000000;stroke-width:0.8;"/>
      </defs>
      <g>
       <use style="stroke:#000000;stroke-width:0.8;" x="57.6" xlink:href="#m0ef4aa0425" y="298.944"/>
      </g>
     </g>
     <g id="text_1">
      <!-- 0 -->
      <defs>
       <path d="M 31.78125 66.40625 
Q 24.171875 66.40625 20.328125 58.90625 
Q 16.5 51.421875 16.5 36.375 
Q 16.5 21.390625 20.328125 13.890625 
Q 24.171875 6.390625 31.78125 6.390625 
Q 39.453125 6.390625 43.28125 13.890625 
Q 47.125 21.390625 47.125 36.375 
Q 47.125 51.421875 43.28125 58.90625 
Q 39.453125 66.40625 31.78125 66.40625 
z
M 31.78125 74.21875 
Q 44.046875 74.21875 50.515625 64.515625 
Q 56.984375 54.828125 56.984375 36.375 
Q 56.984375 17.96875 50.515625 8.265625 
Q 44.046875 -1.421875 31.78125 -1.421875 
Q 19.53125 -1.421875 13.0625 8.265625 
Q 6.59375 17.96875 6.59375 36.375 
Q 6.59375 54.828125 13.0625 64.515625 
Q 19.53125 74.21875 31.78125 74.21875 
z
" id="DejaVuSans-48"/>
      </defs>
      <g transform="translate(51.2375 321.140875)scale(0.2 -0.2)">
       <use xlink:href="#DejaVuSans-48"/>
      </g>
     </g>
    </g>
    <g id="xtick_2">
     <g id="line2d_3">
      <path clip-path="url(#p14902b8fa7)" d="M 137.910857 298.944 
L 137.910857 3.456 
" style="fill:none;stroke:#b0b0b0;stroke-linecap:square;stroke-width:0.8;"/>
     </g>
     <g id="line2d_4">
      <g>
       <use style="stroke:#000000;stroke-width:0.8;" x="137.910857" xlink:href="#m0ef4aa0425" y="298.944"/>
      </g>
     </g>
     <g id="text_2">
      <!-- 2 -->
      <defs>
       <path d="M 19.1875 8.296875 
L 53.609375 8.296875 
L 53.609375 0 
L 7.328125 0 
L 7.328125 8.296875 
Q 12.9375 14.109375 22.625 23.890625 
Q 32.328125 33.6875 34.8125 36.53125 
Q 39.546875 41.84375 41.421875 45.53125 
Q 43.3125 49.21875 43.3125 52.78125 
Q 43.3125 58.59375 39.234375 62.25 
Q 35.15625 65.921875 28.609375 65.921875 
Q 23.96875 65.921875 18.8125 64.3125 
Q 13.671875 62.703125 7.8125 59.421875 
L 7.8125 69.390625 
Q 13.765625 71.78125 18.9375 73 
Q 24.125 74.21875 28.421875 74.21875 
Q 39.75 74.21875 46.484375 68.546875 
Q 53.21875 62.890625 53.21875 53.421875 
Q 53.21875 48.921875 51.53125 44.890625 
Q 49.859375 40.875 45.40625 35.40625 
Q 44.1875 33.984375 37.640625 27.21875 
Q 31.109375 20.453125 19.1875 8.296875 
z
" id="DejaVuSans-50"/>
      </defs>
      <g transform="translate(131.548357 321.140875)scale(0.2 -0.2)">
       <use xlink:href="#DejaVuSans-50"/>
      </g>
     </g>
    </g>
    <g id="xtick_3">
     <g id="line2d_5">
      <path clip-path="url(#p14902b8fa7)" d="M 218.221714 298.944 
L 218.221714 3.456 
" style="fill:none;stroke:#b0b0b0;stroke-linecap:square;stroke-width:0.8;"/>
     </g>
     <g id="line2d_6">
      <g>
       <use style="stroke:#000000;stroke-width:0.8;" x="218.221714" xlink:href="#m0ef4aa0425" y="298.944"/>
      </g>
     </g>
     <g id="text_3">
      <!-- 4 -->
      <defs>
       <path d="M 37.796875 64.3125 
L 12.890625 25.390625 
L 37.796875 25.390625 
z
M 35.203125 72.90625 
L 47.609375 72.90625 
L 47.609375 25.390625 
L 58.015625 25.390625 
L 58.015625 17.1875 
L 47.609375 17.1875 
L 47.609375 0 
L 37.796875 0 
L 37.796875 17.1875 
L 4.890625 17.1875 
L 4.890625 26.703125 
z
" id="DejaVuSans-52"/>
      </defs>
      <g transform="translate(211.859214 321.140875)scale(0.2 -0.2)">
       <use xlink:href="#DejaVuSans-52"/>
      </g>
     </g>
    </g>
    <g id="xtick_4">
     <g id="line2d_7">
      <path clip-path="url(#p14902b8fa7)" d="M 298.532571 298.944 
L 298.532571 3.456 
" style="fill:none;stroke:#b0b0b0;stroke-linecap:square;stroke-width:0.8;"/>
     </g>
     <g id="line2d_8">
      <g>
       <use style="stroke:#000000;stroke-width:0.8;" x="298.532571" xlink:href="#m0ef4aa0425" y="298.944"/>
      </g>
     </g>
     <g id="text_4">
      <!-- 6 -->
      <defs>
       <path d="M 33.015625 40.375 
Q 26.375 40.375 22.484375 35.828125 
Q 18.609375 31.296875 18.609375 23.390625 
Q 18.609375 15.53125 22.484375 10.953125 
Q 26.375 6.390625 33.015625 6.390625 
Q 39.65625 6.390625 43.53125 10.953125 
Q 47.40625 15.53125 47.40625 23.390625 
Q 47.40625 31.296875 43.53125 35.828125 
Q 39.65625 40.375 33.015625 40.375 
z
M 52.59375 71.296875 
L 52.59375 62.3125 
Q 48.875 64.0625 45.09375 64.984375 
Q 41.3125 65.921875 37.59375 65.921875 
Q 27.828125 65.921875 22.671875 59.328125 
Q 17.53125 52.734375 16.796875 39.40625 
Q 19.671875 43.65625 24.015625 45.921875 
Q 28.375 48.1875 33.59375 48.1875 
Q 44.578125 48.1875 50.953125 41.515625 
Q 57.328125 34.859375 57.328125 23.390625 
Q 57.328125 12.15625 50.6875 5.359375 
Q 44.046875 -1.421875 33.015625 -1.421875 
Q 20.359375 -1.421875 13.671875 8.265625 
Q 6.984375 17.96875 6.984375 36.375 
Q 6.984375 53.65625 15.1875 63.9375 
Q 23.390625 74.21875 37.203125 74.21875 
Q 40.921875 74.21875 44.703125 73.484375 
Q 48.484375 72.75 52.59375 71.296875 
z
" id="DejaVuSans-54"/>
      </defs>
      <g transform="translate(292.170071 321.140875)scale(0.2 -0.2)">
       <use xlink:href="#DejaVuSans-54"/>
      </g>
     </g>
    </g>
    <g id="xtick_5">
     <g id="line2d_9">
      <path clip-path="url(#p14902b8fa7)" d="M 97.755429 298.944 
L 97.755429 3.456 
" style="fill:none;stroke:#b0b0b0;stroke-linecap:square;stroke-width:0.8;"/>
     </g>
     <g id="line2d_10">
      <defs>
       <path d="M 0 0 
L 0 2 
" id="m64af9337b4" style="stroke:#000000;stroke-width:0.6;"/>
      </defs>
      <g>
       <use style="stroke:#000000;stroke-width:0.6;" x="97.755429" xlink:href="#m64af9337b4" y="298.944"/>
      </g>
     </g>
    </g>
    <g id="xtick_6">
     <g id="line2d_11">
      <path clip-path="url(#p14902b8fa7)" d="M 178.066286 298.944 
L 178.066286 3.456 
" style="fill:none;stroke:#b0b0b0;stroke-linecap:square;stroke-width:0.8;"/>
     </g>
     <g id="line2d_12">
      <g>
       <use style="stroke:#000000;stroke-width:0.6;" x="178.066286" xlink:href="#m64af9337b4" y="298.944"/>
      </g>
     </g>
    </g>
    <g id="xtick_7">
     <g id="line2d_13">
      <path clip-path="url(#p14902b8fa7)" d="M 258.377143 298.944 
L 258.377143 3.456 
" style="fill:none;stroke:#b0b0b0;stroke-linecap:square;stroke-width:0.8;"/>
     </g>
     <g id="line2d_14">
      <g>
       <use style="stroke:#000000;stroke-width:0.6;" x="258.377143" xlink:href="#m64af9337b4" y="298.944"/>
      </g>
     </g>
    </g>
    <g id="xtick_8">
     <g id="line2d_15">
      <path clip-path="url(#p14902b8fa7)" d="M 338.688 298.944 
L 338.688 3.456 
" style="fill:none;stroke:#b0b0b0;stroke-linecap:square;stroke-width:0.8;"/>
     </g>
     <g id="line2d_16">
      <g>
       <use style="stroke:#000000;stroke-width:0.6;" x="338.688" xlink:href="#m64af9337b4" y="298.944"/>
      </g>
     </g>
    </g>
    <g id="text_5">
     <!-- log10(# f-evals / dimension) -->
     <defs>
      <path d="M 9.421875 75.984375 
L 18.40625 75.984375 
L 18.40625 0 
L 9.421875 0 
z
" id="DejaVuSans-108"/>
      <path d="M 30.609375 48.390625 
Q 23.390625 48.390625 19.1875 42.75 
Q 14.984375 37.109375 14.984375 27.296875 
Q 14.984375 17.484375 19.15625 11.84375 
Q 23.34375 6.203125 30.609375 6.203125 
Q 37.796875 6.203125 41.984375 11.859375 
Q 46.1875 17.53125 46.1875 27.296875 
Q 46.1875 37.015625 41.984375 42.703125 
Q 37.796875 48.390625 30.609375 48.390625 
z
M 30.609375 56 
Q 42.328125 56 49.015625 48.375 
Q 55.71875 40.765625 55.71875 27.296875 
Q 55.71875 13.875 49.015625 6.21875 
Q 42.328125 -1.421875 30.609375 -1.421875 
Q 18.84375 -1.421875 12.171875 6.21875 
Q 5.515625 13.875 5.515625 27.296875 
Q 5.515625 40.765625 12.171875 48.375 
Q 18.84375 56 30.609375 56 
z
" id="DejaVuSans-111"/>
      <path d="M 45.40625 27.984375 
Q 45.40625 37.75 41.375 43.109375 
Q 37.359375 48.484375 30.078125 48.484375 
Q 22.859375 48.484375 18.828125 43.109375 
Q 14.796875 37.75 14.796875 27.984375 
Q 14.796875 18.265625 18.828125 12.890625 
Q 22.859375 7.515625 30.078125 7.515625 
Q 37.359375 7.515625 41.375 12.890625 
Q 45.40625 18.265625 45.40625 27.984375 
z
M 54.390625 6.78125 
Q 54.390625 -7.171875 48.1875 -13.984375 
Q 42 -20.796875 29.203125 -20.796875 
Q 24.46875 -20.796875 20.265625 -20.09375 
Q 16.0625 -19.390625 12.109375 -17.921875 
L 12.109375 -9.1875 
Q 16.0625 -11.328125 19.921875 -12.34375 
Q 23.78125 -13.375 27.78125 -13.375 
Q 36.625 -13.375 41.015625 -8.765625 
Q 45.40625 -4.15625 45.40625 5.171875 
L 45.40625 9.625 
Q 42.625 4.78125 38.28125 2.390625 
Q 33.9375 0 27.875 0 
Q 17.828125 0 11.671875 7.65625 
Q 5.515625 15.328125 5.515625 27.984375 
Q 5.515625 40.671875 11.671875 48.328125 
Q 17.828125 56 27.875 56 
Q 33.9375 56 38.28125 53.609375 
Q 42.625 51.21875 45.40625 46.390625 
L 45.40625 54.6875 
L 54.390625 54.6875 
z
" id="DejaVuSans-103"/>
      <path d="M 12.40625 8.296875 
L 28.515625 8.296875 
L 28.515625 63.921875 
L 10.984375 60.40625 
L 10.984375 69.390625 
L 28.421875 72.90625 
L 38.28125 72.90625 
L 38.28125 8.296875 
L 54.390625 8.296875 
L 54.390625 0 
L 12.40625 0 
z
" id="DejaVuSans-49"/>
      <path d="M 31 75.875 
Q 24.46875 64.65625 21.28125 53.65625 
Q 18.109375 42.671875 18.109375 31.390625 
Q 18.109375 20.125 21.3125 9.0625 
Q 24.515625 -2 31 -13.1875 
L 23.1875 -13.1875 
Q 15.875 -1.703125 12.234375 9.375 
Q 8.59375 20.453125 8.59375 31.390625 
Q 8.59375 42.28125 12.203125 53.3125 
Q 15.828125 64.359375 23.1875 75.875 
z
" id="DejaVuSans-40"/>
      <path d="M 51.125 44 
L 36.921875 44 
L 32.8125 27.6875 
L 47.125 27.6875 
z
M 43.796875 71.78125 
L 38.71875 51.515625 
L 52.984375 51.515625 
L 58.109375 71.78125 
L 65.921875 71.78125 
L 60.890625 51.515625 
L 76.125 51.515625 
L 76.125 44 
L 58.984375 44 
L 54.984375 27.6875 
L 70.515625 27.6875 
L 70.515625 20.21875 
L 53.078125 20.21875 
L 48 0 
L 40.1875 0 
L 45.21875 20.21875 
L 30.90625 20.21875 
L 25.875 0 
L 18.015625 0 
L 23.09375 20.21875 
L 7.71875 20.21875 
L 7.71875 27.6875 
L 24.90625 27.6875 
L 29 44 
L 13.28125 44 
L 13.28125 51.515625 
L 30.90625 51.515625 
L 35.890625 71.78125 
z
" id="DejaVuSans-35"/>
      <path id="DejaVuSans-32"/>
      <path d="M 37.109375 75.984375 
L 37.109375 68.5 
L 28.515625 68.5 
Q 23.6875 68.5 21.796875 66.546875 
Q 19.921875 64.59375 19.921875 59.515625 
L 19.921875 54.6875 
L 34.71875 54.6875 
L 34.71875 47.703125 
L 19.921875 47.703125 
L 19.921875 0 
L 10.890625 0 
L 10.890625 47.703125 
L 2.296875 47.703125 
L 2.296875 54.6875 
L 10.890625 54.6875 
L 10.890625 58.5 
Q 10.890625 67.625 15.140625 71.796875 
Q 19.390625 75.984375 28.609375 75.984375 
z
" id="DejaVuSans-102"/>
      <path d="M 4.890625 31.390625 
L 31.203125 31.390625 
L 31.203125 23.390625 
L 4.890625 23.390625 
z
" id="DejaVuSans-45"/>
      <path d="M 56.203125 29.59375 
L 56.203125 25.203125 
L 14.890625 25.203125 
Q 15.484375 15.921875 20.484375 11.0625 
Q 25.484375 6.203125 34.421875 6.203125 
Q 39.59375 6.203125 44.453125 7.46875 
Q 49.3125 8.734375 54.109375 11.28125 
L 54.109375 2.78125 
Q 49.265625 0.734375 44.1875 -0.34375 
Q 39.109375 -1.421875 33.890625 -1.421875 
Q 20.796875 -1.421875 13.15625 6.1875 
Q 5.515625 13.8125 5.515625 26.8125 
Q 5.515625 40.234375 12.765625 48.109375 
Q 20.015625 56 32.328125 56 
Q 43.359375 56 49.78125 48.890625 
Q 56.203125 41.796875 56.203125 29.59375 
z
M 47.21875 32.234375 
Q 47.125 39.59375 43.09375 43.984375 
Q 39.0625 48.390625 32.421875 48.390625 
Q 24.90625 48.390625 20.390625 44.140625 
Q 15.875 39.890625 15.1875 32.171875 
z
" id="DejaVuSans-101"/>
      <path d="M 2.984375 54.6875 
L 12.5 54.6875 
L 29.59375 8.796875 
L 46.6875 54.6875 
L 56.203125 54.6875 
L 35.6875 0 
L 23.484375 0 
z
" id="DejaVuSans-118"/>
      <path d="M 34.28125 27.484375 
Q 23.390625 27.484375 19.1875 25 
Q 14.984375 22.515625 14.984375 16.5 
Q 14.984375 11.71875 18.140625 8.90625 
Q 21.296875 6.109375 26.703125 6.109375 
Q 34.1875 6.109375 38.703125 11.40625 
Q 43.21875 16.703125 43.21875 25.484375 
L 43.21875 27.484375 
z
M 52.203125 31.203125 
L 52.203125 0 
L 43.21875 0 
L 43.21875 8.296875 
Q 40.140625 3.328125 35.546875 0.953125 
Q 30.953125 -1.421875 24.3125 -1.421875 
Q 15.921875 -1.421875 10.953125 3.296875 
Q 6 8.015625 6 15.921875 
Q 6 25.140625 12.171875 29.828125 
Q 18.359375 34.515625 30.609375 34.515625 
L 43.21875 34.515625 
L 43.21875 35.40625 
Q 43.21875 41.609375 39.140625 45 
Q 35.0625 48.390625 27.6875 48.390625 
Q 23 48.390625 18.546875 47.265625 
Q 14.109375 46.140625 10.015625 43.890625 
L 10.015625 52.203125 
Q 14.9375 54.109375 19.578125 55.046875 
Q 24.21875 56 28.609375 56 
Q 40.484375 56 46.34375 49.84375 
Q 52.203125 43.703125 52.203125 31.203125 
z
" id="DejaVuSans-97"/>
      <path d="M 44.28125 53.078125 
L 44.28125 44.578125 
Q 40.484375 46.53125 36.375 47.5 
Q 32.28125 48.484375 27.875 48.484375 
Q 21.1875 48.484375 17.84375 46.4375 
Q 14.5 44.390625 14.5 40.28125 
Q 14.5 37.15625 16.890625 35.375 
Q 19.28125 33.59375 26.515625 31.984375 
L 29.59375 31.296875 
Q 39.15625 29.25 43.1875 25.515625 
Q 47.21875 21.78125 47.21875 15.09375 
Q 47.21875 7.46875 41.1875 3.015625 
Q 35.15625 -1.421875 24.609375 -1.421875 
Q 20.21875 -1.421875 15.453125 -0.5625 
Q 10.6875 0.296875 5.421875 2 
L 5.421875 11.28125 
Q 10.40625 8.6875 15.234375 7.390625 
Q 20.0625 6.109375 24.8125 6.109375 
Q 31.15625 6.109375 34.5625 8.28125 
Q 37.984375 10.453125 37.984375 14.40625 
Q 37.984375 18.0625 35.515625 20.015625 
Q 33.0625 21.96875 24.703125 23.78125 
L 21.578125 24.515625 
Q 13.234375 26.265625 9.515625 29.90625 
Q 5.8125 33.546875 5.8125 39.890625 
Q 5.8125 47.609375 11.28125 51.796875 
Q 16.75 56 26.8125 56 
Q 31.78125 56 36.171875 55.265625 
Q 40.578125 54.546875 44.28125 53.078125 
z
" id="DejaVuSans-115"/>
      <path d="M 25.390625 72.90625 
L 33.6875 72.90625 
L 8.296875 -9.28125 
L 0 -9.28125 
z
" id="DejaVuSans-47"/>
      <path d="M 45.40625 46.390625 
L 45.40625 75.984375 
L 54.390625 75.984375 
L 54.390625 0 
L 45.40625 0 
L 45.40625 8.203125 
Q 42.578125 3.328125 38.25 0.953125 
Q 33.9375 -1.421875 27.875 -1.421875 
Q 17.96875 -1.421875 11.734375 6.484375 
Q 5.515625 14.40625 5.515625 27.296875 
Q 5.515625 40.1875 11.734375 48.09375 
Q 17.96875 56 27.875 56 
Q 33.9375 56 38.25 53.625 
Q 42.578125 51.265625 45.40625 46.390625 
z
M 14.796875 27.296875 
Q 14.796875 17.390625 18.875 11.75 
Q 22.953125 6.109375 30.078125 6.109375 
Q 37.203125 6.109375 41.296875 11.75 
Q 45.40625 17.390625 45.40625 27.296875 
Q 45.40625 37.203125 41.296875 42.84375 
Q 37.203125 48.484375 30.078125 48.484375 
Q 22.953125 48.484375 18.875 42.84375 
Q 14.796875 37.203125 14.796875 27.296875 
z
" id="DejaVuSans-100"/>
      <path d="M 9.421875 54.6875 
L 18.40625 54.6875 
L 18.40625 0 
L 9.421875 0 
z
M 9.421875 75.984375 
L 18.40625 75.984375 
L 18.40625 64.59375 
L 9.421875 64.59375 
z
" id="DejaVuSans-105"/>
      <path d="M 52 44.1875 
Q 55.375 50.25 60.0625 53.125 
Q 64.75 56 71.09375 56 
Q 79.640625 56 84.28125 50.015625 
Q 88.921875 44.046875 88.921875 33.015625 
L 88.921875 0 
L 79.890625 0 
L 79.890625 32.71875 
Q 79.890625 40.578125 77.09375 44.375 
Q 74.3125 48.1875 68.609375 48.1875 
Q 61.625 48.1875 57.5625 43.546875 
Q 53.515625 38.921875 53.515625 30.90625 
L 53.515625 0 
L 44.484375 0 
L 44.484375 32.71875 
Q 44.484375 40.625 41.703125 44.40625 
Q 38.921875 48.1875 33.109375 48.1875 
Q 26.21875 48.1875 22.15625 43.53125 
Q 18.109375 38.875 18.109375 30.90625 
L 18.109375 0 
L 9.078125 0 
L 9.078125 54.6875 
L 18.109375 54.6875 
L 18.109375 46.1875 
Q 21.1875 51.21875 25.484375 53.609375 
Q 29.78125 56 35.6875 56 
Q 41.65625 56 45.828125 52.96875 
Q 50 49.953125 52 44.1875 
z
" id="DejaVuSans-109"/>
      <path d="M 54.890625 33.015625 
L 54.890625 0 
L 45.90625 0 
L 45.90625 32.71875 
Q 45.90625 40.484375 42.875 44.328125 
Q 39.84375 48.1875 33.796875 48.1875 
Q 26.515625 48.1875 22.3125 43.546875 
Q 18.109375 38.921875 18.109375 30.90625 
L 18.109375 0 
L 9.078125 0 
L 9.078125 54.6875 
L 18.109375 54.6875 
L 18.109375 46.1875 
Q 21.34375 51.125 25.703125 53.5625 
Q 30.078125 56 35.796875 56 
Q 45.21875 56 50.046875 50.171875 
Q 54.890625 44.34375 54.890625 33.015625 
z
" id="DejaVuSans-110"/>
      <path d="M 8.015625 75.875 
L 15.828125 75.875 
Q 23.140625 64.359375 26.78125 53.3125 
Q 30.421875 42.28125 30.421875 31.390625 
Q 30.421875 20.453125 26.78125 9.375 
Q 23.140625 -1.703125 15.828125 -13.1875 
L 8.015625 -13.1875 
Q 14.5 -2 17.703125 9.0625 
Q 20.90625 20.125 20.90625 31.390625 
Q 20.90625 42.671875 17.703125 53.65625 
Q 14.5 64.65625 8.015625 75.875 
z
" id="DejaVuSans-41"/>
     </defs>
     <g transform="translate(77.303219 342.217594)scale(0.17 -0.17)">
      <use xlink:href="#DejaVuSans-108"/>
      <use x="27.783203" xlink:href="#DejaVuSans-111"/>
      <use x="88.964844" xlink:href="#DejaVuSans-103"/>
      <use x="152.441406" xlink:href="#DejaVuSans-49"/>
      <use x="216.064453" xlink:href="#DejaVuSans-48"/>
      <use x="279.6875" xlink:href="#DejaVuSans-40"/>
      <use x="318.701172" xlink:href="#DejaVuSans-35"/>
      <use x="402.490234" xlink:href="#DejaVuSans-32"/>
      <use x="434.277344" xlink:href="#DejaVuSans-102"/>
      <use x="469.404297" xlink:href="#DejaVuSans-45"/>
      <use x="505.488281" xlink:href="#DejaVuSans-101"/>
      <use x="567.011719" xlink:href="#DejaVuSans-118"/>
      <use x="626.191406" xlink:href="#DejaVuSans-97"/>
      <use x="687.470703" xlink:href="#DejaVuSans-108"/>
      <use x="715.253906" xlink:href="#DejaVuSans-115"/>
      <use x="767.353516" xlink:href="#DejaVuSans-32"/>
      <use x="799.140625" xlink:href="#DejaVuSans-47"/>
      <use x="832.832031" xlink:href="#DejaVuSans-32"/>
      <use x="864.619141" xlink:href="#DejaVuSans-100"/>
      <use x="928.095703" xlink:href="#DejaVuSans-105"/>
      <use x="955.878906" xlink:href="#DejaVuSans-109"/>
      <use x="1053.291016" xlink:href="#DejaVuSans-101"/>
      <use x="1114.814453" xlink:href="#DejaVuSans-110"/>
      <use x="1178.193359" xlink:href="#DejaVuSans-115"/>
      <use x="1230.292969" xlink:href="#DejaVuSans-105"/>
      <use x="1258.076172" xlink:href="#DejaVuSans-111"/>
      <use x="1319.257812" xlink:href="#DejaVuSans-110"/>
      <use x="1382.636719" xlink:href="#DejaVuSans-41"/>
     </g>
    </g>
   </g>
   <g id="matplotlib.axis_2">
    <g id="ytick_1">
     <g id="line2d_17">
      <path clip-path="url(#p14902b8fa7)" d="M 57.6 298.944 
L 338.688 298.944 
" style="fill:none;stroke:#b0b0b0;stroke-linecap:square;stroke-width:0.8;"/>
     </g>
     <g id="line2d_18">
      <defs>
       <path d="M 0 0 
L -3.5 0 
" id="m7a1f2e2a89" style="stroke:#000000;stroke-width:0.8;"/>
      </defs>
      <g>
       <use style="stroke:#000000;stroke-width:0.8;" x="57.6" xlink:href="#m7a1f2e2a89" y="298.944"/>
      </g>
     </g>
     <g id="text_6">
      <!-- 0.0 -->
      <defs>
       <path d="M 10.6875 12.40625 
L 21 12.40625 
L 21 0 
L 10.6875 0 
z
" id="DejaVuSans-46"/>
      </defs>
      <g transform="translate(25.155 305.02275)scale(0.16 -0.16)">
       <use xlink:href="#DejaVuSans-48"/>
       <use x="63.623047" xlink:href="#DejaVuSans-46"/>
       <use x="95.410156" xlink:href="#DejaVuSans-48"/>
      </g>
     </g>
    </g>
    <g id="ytick_2">
     <g id="line2d_19">
      <path clip-path="url(#p14902b8fa7)" d="M 57.6 240.431525 
L 338.688 240.431525 
" style="fill:none;stroke:#b0b0b0;stroke-linecap:square;stroke-width:0.8;"/>
     </g>
     <g id="line2d_20">
      <g>
       <use style="stroke:#000000;stroke-width:0.8;" x="57.6" xlink:href="#m7a1f2e2a89" y="240.431525"/>
      </g>
     </g>
     <g id="text_7">
      <!-- 0.2 -->
      <g transform="translate(25.155 246.510275)scale(0.16 -0.16)">
       <use xlink:href="#DejaVuSans-48"/>
       <use x="63.623047" xlink:href="#DejaVuSans-46"/>
       <use x="95.410156" xlink:href="#DejaVuSans-50"/>
      </g>
     </g>
    </g>
    <g id="ytick_3">
     <g id="line2d_21">
      <path clip-path="url(#p14902b8fa7)" d="M 57.6 181.91905 
L 338.688 181.91905 
" style="fill:none;stroke:#b0b0b0;stroke-linecap:square;stroke-width:0.8;"/>
     </g>
     <g id="line2d_22">
      <g>
       <use style="stroke:#000000;stroke-width:0.8;" x="57.6" xlink:href="#m7a1f2e2a89" y="181.91905"/>
      </g>
     </g>
     <g id="text_8">
      <!-- 0.4 -->
      <g transform="translate(25.155 187.9978)scale(0.16 -0.16)">
       <use xlink:href="#DejaVuSans-48"/>
       <use x="63.623047" xlink:href="#DejaVuSans-46"/>
       <use x="95.410156" xlink:href="#DejaVuSans-52"/>
      </g>
     </g>
    </g>
    <g id="ytick_4">
     <g id="line2d_23">
      <path clip-path="url(#p14902b8fa7)" d="M 57.6 123.406574 
L 338.688 123.406574 
" style="fill:none;stroke:#b0b0b0;stroke-linecap:square;stroke-width:0.8;"/>
     </g>
     <g id="line2d_24">
      <g>
       <use style="stroke:#000000;stroke-width:0.8;" x="57.6" xlink:href="#m7a1f2e2a89" y="123.406574"/>
      </g>
     </g>
     <g id="text_9">
      <!-- 0.6 -->
      <g transform="translate(25.155 129.485324)scale(0.16 -0.16)">
       <use xlink:href="#DejaVuSans-48"/>
       <use x="63.623047" xlink:href="#DejaVuSans-46"/>
       <use x="95.410156" xlink:href="#DejaVuSans-54"/>
      </g>
     </g>
    </g>
    <g id="ytick_5">
     <g id="line2d_25">
      <path clip-path="url(#p14902b8fa7)" d="M 57.6 64.894099 
L 338.688 64.894099 
" style="fill:none;stroke:#b0b0b0;stroke-linecap:square;stroke-width:0.8;"/>
     </g>
     <g id="line2d_26">
      <g>
       <use style="stroke:#000000;stroke-width:0.8;" x="57.6" xlink:href="#m7a1f2e2a89" y="64.894099"/>
      </g>
     </g>
     <g id="text_10">
      <!-- 0.8 -->
      <defs>
       <path d="M 31.78125 34.625 
Q 24.75 34.625 20.71875 30.859375 
Q 16.703125 27.09375 16.703125 20.515625 
Q 16.703125 13.921875 20.71875 10.15625 
Q 24.75 6.390625 31.78125 6.390625 
Q 38.8125 6.390625 42.859375 10.171875 
Q 46.921875 13.96875 46.921875 20.515625 
Q 46.921875 27.09375 42.890625 30.859375 
Q 38.875 34.625 31.78125 34.625 
z
M 21.921875 38.8125 
Q 15.578125 40.375 12.03125 44.71875 
Q 8.5 49.078125 8.5 55.328125 
Q 8.5 64.0625 14.71875 69.140625 
Q 20.953125 74.21875 31.78125 74.21875 
Q 42.671875 74.21875 48.875 69.140625 
Q 55.078125 64.0625 55.078125 55.328125 
Q 55.078125 49.078125 51.53125 44.71875 
Q 48 40.375 41.703125 38.8125 
Q 48.828125 37.15625 52.796875 32.3125 
Q 56.78125 27.484375 56.78125 20.515625 
Q 56.78125 9.90625 50.3125 4.234375 
Q 43.84375 -1.421875 31.78125 -1.421875 
Q 19.734375 -1.421875 13.25 4.234375 
Q 6.78125 9.90625 6.78125 20.515625 
Q 6.78125 27.484375 10.78125 32.3125 
Q 14.796875 37.15625 21.921875 38.8125 
z
M 18.3125 54.390625 
Q 18.3125 48.734375 21.84375 45.5625 
Q 25.390625 42.390625 31.78125 42.390625 
Q 38.140625 42.390625 41.71875 45.5625 
Q 45.3125 48.734375 45.3125 54.390625 
Q 45.3125 60.0625 41.71875 63.234375 
Q 38.140625 66.40625 31.78125 66.40625 
Q 25.390625 66.40625 21.84375 63.234375 
Q 18.3125 60.0625 18.3125 54.390625 
z
" id="DejaVuSans-56"/>
      </defs>
      <g transform="translate(25.155 70.972849)scale(0.16 -0.16)">
       <use xlink:href="#DejaVuSans-48"/>
       <use x="63.623047" xlink:href="#DejaVuSans-46"/>
       <use x="95.410156" xlink:href="#DejaVuSans-56"/>
      </g>
     </g>
    </g>
    <g id="ytick_6">
     <g id="line2d_27">
      <path clip-path="url(#p14902b8fa7)" d="M 57.6 6.381624 
L 338.688 6.381624 
" style="fill:none;stroke:#b0b0b0;stroke-linecap:square;stroke-width:0.8;"/>
     </g>
     <g id="line2d_28">
      <g>
       <use style="stroke:#000000;stroke-width:0.8;" x="57.6" xlink:href="#m7a1f2e2a89" y="6.381624"/>
      </g>
     </g>
     <g id="text_11">
      <!-- 1.0 -->
      <g transform="translate(25.155 12.460374)scale(0.16 -0.16)">
       <use xlink:href="#DejaVuSans-49"/>
       <use x="63.623047" xlink:href="#DejaVuSans-46"/>
       <use x="95.410156" xlink:href="#DejaVuSans-48"/>
      </g>
     </g>
    </g>
    <g id="text_12">
     <!-- Fraction of function,target pairs -->
     <defs>
      <path d="M 9.8125 72.90625 
L 51.703125 72.90625 
L 51.703125 64.59375 
L 19.671875 64.59375 
L 19.671875 43.109375 
L 48.578125 43.109375 
L 48.578125 34.8125 
L 19.671875 34.8125 
L 19.671875 0 
L 9.8125 0 
z
" id="DejaVuSans-70"/>
      <path d="M 41.109375 46.296875 
Q 39.59375 47.171875 37.8125 47.578125 
Q 36.03125 48 33.890625 48 
Q 26.265625 48 22.1875 43.046875 
Q 18.109375 38.09375 18.109375 28.8125 
L 18.109375 0 
L 9.078125 0 
L 9.078125 54.6875 
L 18.109375 54.6875 
L 18.109375 46.1875 
Q 20.953125 51.171875 25.484375 53.578125 
Q 30.03125 56 36.53125 56 
Q 37.453125 56 38.578125 55.875 
Q 39.703125 55.765625 41.0625 55.515625 
z
" id="DejaVuSans-114"/>
      <path d="M 48.78125 52.59375 
L 48.78125 44.1875 
Q 44.96875 46.296875 41.140625 47.34375 
Q 37.3125 48.390625 33.40625 48.390625 
Q 24.65625 48.390625 19.8125 42.84375 
Q 14.984375 37.3125 14.984375 27.296875 
Q 14.984375 17.28125 19.8125 11.734375 
Q 24.65625 6.203125 33.40625 6.203125 
Q 37.3125 6.203125 41.140625 7.25 
Q 44.96875 8.296875 48.78125 10.40625 
L 48.78125 2.09375 
Q 45.015625 0.34375 40.984375 -0.53125 
Q 36.96875 -1.421875 32.421875 -1.421875 
Q 20.0625 -1.421875 12.78125 6.34375 
Q 5.515625 14.109375 5.515625 27.296875 
Q 5.515625 40.671875 12.859375 48.328125 
Q 20.21875 56 33.015625 56 
Q 37.15625 56 41.109375 55.140625 
Q 45.0625 54.296875 48.78125 52.59375 
z
" id="DejaVuSans-99"/>
      <path d="M 18.3125 70.21875 
L 18.3125 54.6875 
L 36.8125 54.6875 
L 36.8125 47.703125 
L 18.3125 47.703125 
L 18.3125 18.015625 
Q 18.3125 11.328125 20.140625 9.421875 
Q 21.96875 7.515625 27.59375 7.515625 
L 36.8125 7.515625 
L 36.8125 0 
L 27.59375 0 
Q 17.1875 0 13.234375 3.875 
Q 9.28125 7.765625 9.28125 18.015625 
L 9.28125 47.703125 
L 2.6875 47.703125 
L 2.6875 54.6875 
L 9.28125 54.6875 
L 9.28125 70.21875 
z
" id="DejaVuSans-116"/>
      <path d="M 8.5 21.578125 
L 8.5 54.6875 
L 17.484375 54.6875 
L 17.484375 21.921875 
Q 17.484375 14.15625 20.5 10.265625 
Q 23.53125 6.390625 29.59375 6.390625 
Q 36.859375 6.390625 41.078125 11.03125 
Q 45.3125 15.671875 45.3125 23.6875 
L 45.3125 54.6875 
L 54.296875 54.6875 
L 54.296875 0 
L 45.3125 0 
L 45.3125 8.40625 
Q 42.046875 3.421875 37.71875 1 
Q 33.40625 -1.421875 27.6875 -1.421875 
Q 18.265625 -1.421875 13.375 4.4375 
Q 8.5 10.296875 8.5 21.578125 
z
M 31.109375 56 
z
" id="DejaVuSans-117"/>
      <path d="M 11.71875 12.40625 
L 22.015625 12.40625 
L 22.015625 4 
L 14.015625 -11.625 
L 7.71875 -11.625 
L 11.71875 4 
z
" id="DejaVuSans-44"/>
      <path d="M 18.109375 8.203125 
L 18.109375 -20.796875 
L 9.078125 -20.796875 
L 9.078125 54.6875 
L 18.109375 54.6875 
L 18.109375 46.390625 
Q 20.953125 51.265625 25.265625 53.625 
Q 29.59375 56 35.59375 56 
Q 45.5625 56 51.78125 48.09375 
Q 58.015625 40.1875 58.015625 27.296875 
Q 58.015625 14.40625 51.78125 6.484375 
Q 45.5625 -1.421875 35.59375 -1.421875 
Q 29.59375 -1.421875 25.265625 0.953125 
Q 20.953125 3.328125 18.109375 8.203125 
z
M 48.6875 27.296875 
Q 48.6875 37.203125 44.609375 42.84375 
Q 40.53125 48.484375 33.40625 48.484375 
Q 26.265625 48.484375 22.1875 42.84375 
Q 18.109375 37.203125 18.109375 27.296875 
Q 18.109375 17.390625 22.1875 11.75 
Q 26.265625 6.109375 33.40625 6.109375 
Q 40.53125 6.109375 44.609375 11.75 
Q 48.6875 17.390625 48.6875 27.296875 
z
" id="DejaVuSans-112"/>
     </defs>
     <g transform="translate(17.619531 286.339375)rotate(-90)scale(0.17 -0.17)">
      <use xlink:href="#DejaVuSans-70"/>
      <use x="57.410156" xlink:href="#DejaVuSans-114"/>
      <use x="98.523438" xlink:href="#DejaVuSans-97"/>
      <use x="159.802734" xlink:href="#DejaVuSans-99"/>
      <use x="214.783203" xlink:href="#DejaVuSans-116"/>
      <use x="253.992188" xlink:href="#DejaVuSans-105"/>
      <use x="281.775391" xlink:href="#DejaVuSans-111"/>
      <use x="342.957031" xlink:href="#DejaVuSans-110"/>
      <use x="406.335938" xlink:href="#DejaVuSans-32"/>
      <use x="438.123047" xlink:href="#DejaVuSans-111"/>
      <use x="499.304688" xlink:href="#DejaVuSans-102"/>
      <use x="534.509766" xlink:href="#DejaVuSans-32"/>
      <use x="566.296875" xlink:href="#DejaVuSans-102"/>
      <use x="601.501953" xlink:href="#DejaVuSans-117"/>
      <use x="664.880859" xlink:href="#DejaVuSans-110"/>
      <use x="728.259766" xlink:href="#DejaVuSans-99"/>
      <use x="783.240234" xlink:href="#DejaVuSans-116"/>
      <use x="822.449219" xlink:href="#DejaVuSans-105"/>
      <use x="850.232422" xlink:href="#DejaVuSans-111"/>
      <use x="911.414062" xlink:href="#DejaVuSans-110"/>
      <use x="974.792969" xlink:href="#DejaVuSans-44"/>
      <use x="1006.580078" xlink:href="#DejaVuSans-116"/>
      <use x="1045.789062" xlink:href="#DejaVuSans-97"/>
      <use x="1107.068359" xlink:href="#DejaVuSans-114"/>
      <use x="1148.166016" xlink:href="#DejaVuSans-103"/>
      <use x="1211.642578" xlink:href="#DejaVuSans-101"/>
      <use x="1273.166016" xlink:href="#DejaVuSans-116"/>
      <use x="1312.375" xlink:href="#DejaVuSans-32"/>
      <use x="1344.162109" xlink:href="#DejaVuSans-112"/>
      <use x="1407.638672" xlink:href="#DejaVuSans-97"/>
      <use x="1468.917969" xlink:href="#DejaVuSans-105"/>
      <use x="1496.701172" xlink:href="#DejaVuSans-114"/>
      <use x="1537.814453" xlink:href="#DejaVuSans-115"/>
     </g>
    </g>
   </g>
   <g id="line2d_29">
    <defs>
     <path d="M 0 1.5 
C 0.397805 1.5 0.77937 1.341951 1.06066 1.06066 
C 1.341951 0.77937 1.5 0.397805 1.5 0 
C 1.5 -0.397805 1.341951 -0.77937 1.06066 -1.06066 
C 0.77937 -1.341951 0.397805 -1.5 0 -1.5 
C -0.397805 -1.5 -0.77937 -1.341951 -1.06066 -1.06066 
C -1.341951 -0.77937 -1.5 -0.397805 -1.5 0 
C -1.5 0.397805 -1.341951 0.77937 -1.06066 1.06066 
C -0.77937 1.341951 -0.397805 1.5 0 1.5 
z
" id="m0cfe83e9ee" style="stroke:#00bfbf;"/>
    </defs>
    <g>
     <use style="fill:#00bfbf;stroke:#00bfbf;" x="215.026804" xlink:href="#m0cfe83e9ee" y="228.95849"/>
     <use style="fill:#00bfbf;stroke:#00bfbf;" x="215.026804" xlink:href="#m0cfe83e9ee" y="228.95849"/>
    </g>
   </g>
   <g id="line2d_30">
    <path d="M 45.512012 298.944 
L 45.512012 288.732999 
L 57.6 288.732999 
L 57.6 285.75001 
L 64.67102 285.75001 
L 64.67102 282.19337 
L 69.687988 282.19337 
L 69.687988 280.587145 
L 73.579452 280.587145 
L 73.579452 279.095651 
L 76.759008 279.095651 
L 76.759008 278.521999 
L 79.447285 278.521999 
L 79.447285 277.718886 
L 81.775977 277.718886 
L 81.775977 277.145235 
L 83.830028 277.145235 
L 83.830028 276.801044 
L 85.66744 276.801044 
L 85.66744 275.883201 
L 87.329581 275.883201 
L 87.329581 275.42428 
L 88.846997 275.42428 
L 88.846997 275.309549 
L 90.242884 275.309549 
L 90.242884 274.735897 
L 91.535274 274.735897 
L 91.535274 273.932785 
L 92.73846 273.932785 
L 92.73846 273.244403 
L 93.863965 273.244403 
L 93.863965 273.014942 
L 94.921215 273.014942 
L 94.921215 272.785482 
L 95.918017 272.785482 
L 95.918017 272.21183 
L 96.86091 272.21183 
L 96.86091 271.523448 
L 97.755429 271.523448 
L 97.755429 271.408718 
L 98.606294 271.408718 
L 98.606294 270.949796 
L 99.41757 270.949796 
L 99.41757 270.720335 
L 100.192776 270.720335 
L 100.192776 270.031953 
L 100.934985 270.031953 
L 100.934985 269.917223 
L 101.646892 269.917223 
L 101.646892 269.343571 
L 102.330873 269.343571 
L 102.330873 269.114111 
L 103.623262 269.114111 
L 103.623262 268.76992 
L 104.23523 268.76992 
L 104.23523 268.310998 
L 105.398279 268.310998 
L 105.398279 268.196268 
L 106.48859 268.196268 
L 106.48859 267.737347 
L 108.483824 267.737347 
L 108.483824 267.507886 
L 108.948899 267.507886 
L 108.948899 267.393156 
L 109.843417 267.393156 
L 109.843417 267.163695 
L 110.274038 267.163695 
L 110.274038 266.819504 
L 110.694282 266.819504 
L 110.694282 266.590043 
L 111.104637 266.590043 
L 111.104637 266.245852 
L 111.505558 266.245852 
L 111.505558 265.213279 
L 112.280765 265.213279 
L 112.280765 264.983818 
L 112.655818 264.983818 
L 112.655818 264.869088 
L 113.022974 264.869088 
L 113.022974 264.524897 
L 113.73488 264.524897 
L 113.73488 264.410167 
L 114.418861 264.410167 
L 114.418861 264.180706 
L 114.751048 264.180706 
L 114.751048 263.492324 
L 115.077025 263.492324 
L 115.077025 263.148133 
L 115.397021 263.148133 
L 115.397021 262.000829 
L 115.711251 262.000829 
L 115.711251 261.886099 
L 116.019919 261.886099 
L 116.019919 261.656638 
L 116.323218 261.656638 
L 116.323218 261.541908 
L 116.621333 261.541908 
L 116.621333 261.312447 
L 117.202696 261.312447 
L 117.202696 261.082987 
L 126.168212 261.082987 
L 126.168212 260.165144 
L 126.338353 260.165144 
L 126.338353 259.591492 
L 126.673734 259.591492 
L 126.673734 259.476762 
L 127.002787 259.476762 
L 127.002787 259.01784 
L 133.124876 259.01784 
L 133.124876 257.755807 
L 133.239232 257.755807 
L 133.239232 256.837964 
L 133.352844 256.837964 
L 133.352844 256.723234 
L 133.689303 256.723234 
L 133.800029 256.149582 
L 133.910056 256.149582 
L 133.910056 255.805391 
L 134.12805 255.805391 
L 134.12805 255.69066 
L 138.084384 255.69066 
L 138.084384 255.346469 
L 138.256201 255.346469 
L 138.256201 255.231739 
L 138.426341 255.231739 
L 138.510793 254.428627 
L 138.67848 254.428627 
L 138.67848 254.313896 
L 138.927025 254.313896 
L 138.927025 253.625514 
L 142.147664 253.625514 
L 142.147664 253.396054 
L 142.351634 253.396054 
L 142.351634 253.281323 
L 142.818488 253.281323 
L 142.818488 253.166593 
L 143.014805 253.166593 
L 143.014805 253.051863 
L 143.653678 253.051863 
L 143.653678 252.937132 
L 144.45069 252.937132 
L 144.510517 252.707672 
L 144.629556 252.707672 
L 144.629556 252.36348 
L 144.747789 252.36348 
L 144.747789 252.24875 
L 145.155404 252.24875 
L 145.155404 251.904559 
L 145.270136 251.904559 
L 145.270136 251.560368 
L 145.384119 251.560368 
L 145.440832 251.330907 
L 147.769524 251.330907 
L 147.818997 250.413065 
L 150.085825 250.413065 
L 150.129152 249.265761 
L 150.344189 249.265761 
L 150.38688 248.92157 
L 152.130233 248.92157 
L 152.207228 248.233188 
L 152.322086 248.233188 
L 152.398241 247.888997 
L 152.511852 247.888997 
L 152.511852 247.544806 
L 154.167129 247.544806 
L 154.235652 247.200615 
L 154.873541 247.200615 
L 154.873541 247.085885 
L 155.135299 247.085885 
L 155.135299 246.971154 
L 155.361158 246.971154 
L 155.425155 246.512233 
L 155.647315 246.512233 
L 155.710272 246.282772 
L 155.773004 246.282772 
L 155.773004 246.168042 
L 157.1279 246.168042 
L 157.1279 245.823851 
L 158.51933 245.823851 
L 158.546057 244.791278 
L 159.807898 244.791278 
L 159.906985 244.447087 
L 159.931669 244.447087 
L 159.931669 244.332356 
L 160.054568 244.332356 
L 160.054568 243.414514 
L 161.146363 243.414514 
L 161.146363 243.299783 
L 161.801118 243.299783 
L 161.801118 243.185053 
L 161.955547 243.185053 
L 161.955547 242.955592 
L 163.185069 242.955592 
L 163.287113 242.381941 
L 164.179597 242.381941 
L 164.19892 241.923019 
L 165.120455 241.923019 
L 165.193576 241.693559 
L 165.302685 241.693559 
L 165.302685 241.578828 
L 166.6119 241.578828 
L 166.6119 241.349368 
L 167.672117 241.349368 
L 167.751064 240.546255 
L 168.445948 240.546255 
L 168.46108 239.743143 
L 169.259288 239.743143 
L 169.331381 239.054761 
L 170.215104 239.054761 
L 170.26973 238.8253 
L 170.620687 238.8253 
L 170.620687 238.71057 
L 171.237722 238.71057 
L 171.237722 238.366379 
L 171.871027 238.366379 
L 171.883461 238.022188 
L 172.482136 238.022188 
L 172.542086 237.792727 
L 172.60183 237.792727 
L 172.60183 237.677997 
L 173.165193 237.677997 
L 173.165193 237.563266 
L 173.474266 237.563266 
L 173.576085 237.219075 
L 173.654869 237.219075 
L 173.654869 237.104345 
L 174.732584 237.104345 
L 174.743137 236.415963 
L 176.190077 236.415963 
L 176.257915 236.071772 
L 176.725536 236.071772 
L 176.725536 235.842311 
L 177.199282 235.842311 
L 177.199282 235.38339 
L 177.731751 235.38339 
L 177.731751 235.268659 
L 178.083716 235.268659 
L 178.083716 235.153929 
L 178.31734 235.153929 
L 178.385964 234.924468 
L 178.933752 234.924468 
L 178.933752 234.809738 
L 179.343721 234.809738 
L 179.384193 234.236086 
L 179.823292 234.236086 
L 179.823292 234.121356 
L 180.404784 234.121356 
L 180.473278 233.891895 
L 180.893522 233.891895 
L 180.893522 233.662434 
L 181.260369 233.662434 
L 181.267628 233.203513 
L 181.648084 233.203513 
L 181.690637 232.974052 
L 182.65514 232.974052 
L 182.65514 232.859322 
L 182.993648 232.859322 
L 182.993648 232.744592 
L 183.37723 232.744592 
L 183.37723 232.629861 
L 184.564118 232.629861 
L 184.564118 232.400401 
L 184.914997 232.400401 
L 184.914997 232.28567 
L 185.19534 232.28567 
L 185.19534 232.17094 
L 187.335442 232.17094 
L 187.335442 232.05621 
L 188.350739 232.05621 
L 188.350739 231.941479 
L 188.804105 231.941479 
L 188.804105 231.826749 
L 189.496781 231.826749 
L 189.496781 231.712019 
L 189.721691 231.712019 
L 189.721691 231.597288 
L 189.987809 231.597288 
L 189.987809 231.482558 
L 190.593401 231.482558 
L 190.593401 231.253097 
L 190.804686 231.253097 
L 190.804686 231.023637 
L 191.054895 231.023637 
L 191.054895 230.908906 
L 191.362691 230.908906 
L 191.362691 230.794176 
L 193.286536 230.794176 
L 193.286536 230.679446 
L 194.205445 230.679446 
L 194.205445 230.564715 
L 196.367452 230.564715 
L 196.367452 230.449985 
L 198.356249 230.449985 
L 198.356249 230.335255 
L 199.024297 230.335255 
L 199.024297 230.220524 
L 199.667696 230.220524 
L 199.667696 230.105794 
L 200.290638 230.105794 
L 200.290638 229.991063 
L 200.887382 229.991063 
L 200.889738 229.761603 
L 201.591559 229.761603 
L 201.591559 229.646872 
L 202.342251 229.646872 
L 202.342251 229.532142 
L 203.09728 229.532142 
L 203.09728 229.417412 
L 203.37526 229.417412 
L 203.37526 229.302681 
L 204.588385 229.302681 
L 204.588385 229.187951 
L 209.532793 229.187951 
L 209.532793 229.073221 
L 215.026804 229.073221 
L 215.026804 228.95849 
L 338.688 228.95849 
L 338.688 228.95849 
" style="fill:none;stroke:#00bfbf;stroke-linecap:square;stroke-width:1.5;"/>
   </g>
   <g id="line2d_31">
    <defs>
     <path d="M -6 0 
L 6 0 
M 0 6 
L 0 -6 
" id="m7fef795eb4" style="stroke:#00bfbf;stroke-width:1.5;"/>
    </defs>
    <g>
     <use style="fill-opacity:0;stroke:#00bfbf;stroke-width:1.5;" x="85.66744" xlink:href="#m7fef795eb4" y="276.801044"/>
     <use style="fill-opacity:0;stroke:#00bfbf;stroke-width:1.5;" x="127.002787" xlink:href="#m7fef795eb4" y="259.01784"/>
     <use style="fill-opacity:0;stroke:#00bfbf;stroke-width:1.5;" x="172.60183" xlink:href="#m7fef795eb4" y="237.792727"/>
     <use style="fill-opacity:0;stroke:#00bfbf;stroke-width:1.5;" x="215.026804" xlink:href="#m7fef795eb4" y="228.95849"/>
     <use style="fill-opacity:0;stroke:#00bfbf;stroke-width:1.5;" x="215.026804" xlink:href="#m7fef795eb4" y="228.95849"/>
     <use style="fill-opacity:0;stroke:#00bfbf;stroke-width:1.5;" x="338.688" xlink:href="#m7fef795eb4" y="228.95849"/>
    </g>
   </g>
   <g id="line2d_32">
    <path style="fill:none;stroke:#00bfbf;stroke-linecap:square;stroke-width:1.5;"/>
    <g/>
   </g>
   <g id="line2d_33">
    <path clip-path="url(#p14902b8fa7)" d="M 141.80232 253.625514 
" style="fill:none;stroke:#00bfbf;stroke-linecap:square;stroke-width:1.5;"/>
    <defs>
     <path d="M -12 12 
L 12 -12 
M -12 -12 
L 12 12 
" id="m347f51596f" style="stroke:#00bfbf;"/>
    </defs>
    <g clip-path="url(#p14902b8fa7)">
     <use style="fill:#00bfbf;stroke:#00bfbf;" x="141.80232" xlink:href="#m347f51596f" y="253.625514"/>
    </g>
   </g>
   <g id="line2d_34">
    <defs>
     <path d="M 0 1.5 
C 0.397805 1.5 0.77937 1.341951 1.06066 1.06066 
C 1.341951 0.77937 1.5 0.397805 1.5 0 
C 1.5 -0.397805 1.341951 -0.77937 1.06066 -1.06066 
C 0.77937 -1.341951 0.397805 -1.5 0 -1.5 
C -0.397805 -1.5 -0.77937 -1.341951 -1.06066 -1.06066 
C -1.341951 -0.77937 -1.5 -0.397805 -1.5 0 
C -1.5 0.397805 -1.341951 0.77937 -1.06066 1.06066 
C -0.77937 1.341951 -0.397805 1.5 0 1.5 
z
" id="mb6ae95f78f" style="stroke:#008000;"/>
    </defs>
    <g>
     <use style="fill:#008000;stroke:#008000;" x="213.782576" xlink:href="#mb6ae95f78f" y="249.609952"/>
     <use style="fill:#008000;stroke:#008000;" x="213.782576" xlink:href="#mb6ae95f78f" y="249.609952"/>
    </g>
   </g>
   <g id="line2d_35">
    <path d="M 38.440992 298.944 
L 38.440992 291.371797 
L 50.52898 291.371797 
L 50.52898 289.191921 
L 57.6 289.191921 
L 57.6 288.159348 
L 62.616969 288.159348 
L 62.616969 287.470966 
L 66.508432 287.470966 
L 66.508432 286.438393 
L 69.687988 286.438393 
L 69.687988 285.405819 
L 72.376266 285.405819 
L 72.376266 284.832168 
L 74.704957 284.832168 
L 74.704957 284.258516 
L 76.759008 284.258516 
L 76.759008 283.914325 
L 78.59642 283.914325 
L 78.59642 283.111213 
L 80.258561 283.111213 
L 80.258561 282.767022 
L 83.171864 282.767022 
L 83.171864 282.422831 
L 84.464254 282.422831 
L 84.464254 282.3081 
L 85.66744 282.3081 
L 85.66744 282.078639 
L 86.792945 282.078639 
L 86.792945 281.275527 
L 87.850195 281.275527 
L 87.850195 279.898763 
L 88.846997 279.898763 
L 88.846997 279.784033 
L 89.78989 279.784033 
L 89.78989 279.669302 
L 90.684409 279.669302 
L 90.684409 279.554572 
L 92.34655 279.554572 
L 92.34655 279.210381 
L 93.121756 279.210381 
L 93.121756 279.095651 
L 97.16421 279.095651 
L 97.16421 278.98092 
L 98.32726 278.98092 
L 98.32726 278.521999 
L 99.41757 278.521999 
L 99.41757 278.292538 
L 100.934985 278.292538 
L 100.934985 277.948347 
L 102.330873 277.948347 
L 102.330873 277.833617 
L 102.772397 277.833617 
L 102.772397 277.604156 
L 103.203018 277.604156 
L 103.203018 277.489426 
L 103.623262 277.489426 
L 103.623262 277.145235 
L 104.033617 277.145235 
L 104.033617 277.030504 
L 104.826449 277.030504 
L 104.826449 276.915774 
L 107.347841 276.915774 
L 107.347841 276.456853 
L 107.680028 276.456853 
L 107.680028 276.112662 
L 108.948899 276.112662 
L 108.948899 275.53901 
L 109.252198 275.53901 
L 109.252198 275.194819 
L 119.267333 275.194819 
L 119.267333 275.080089 
L 119.602714 275.080089 
L 119.602714 274.965358 
L 120.571812 274.965358 
L 120.571812 274.735897 
L 120.728219 274.735897 
L 120.728219 274.506437 
L 120.883236 274.506437 
L 120.883236 274.391706 
L 121.036887 274.391706 
L 121.036887 274.276976 
L 126.281824 274.276976 
L 126.281824 274.162246 
L 126.729009 274.162246 
L 126.729009 273.932785 
L 127.272333 273.932785 
L 127.272333 273.818055 
L 131.355321 273.818055 
L 131.355321 273.703324 
L 131.523818 273.703324 
L 131.60746 273.473864 
L 131.938072 273.473864 
L 131.938072 273.359133 
L 135.212889 273.359133 
L 135.280614 272.785482 
L 135.348078 272.785482 
L 135.415281 272.32656 
L 138.026733 272.32656 
L 138.026733 272.21183 
L 138.594838 272.21183 
L 138.594838 271.867639 
L 138.706272 271.867639 
L 138.706272 271.752909 
L 140.64889 271.752909 
L 140.64889 271.638178 
L 140.89556 271.638178 
L 140.89556 271.523448 
L 141.090414 271.523448 
L 141.090414 271.408718 
L 141.235139 271.408718 
L 141.235139 271.293987 
L 141.378673 271.293987 
L 141.426256 270.605605 
L 141.941279 270.605605 
L 141.987354 270.261414 
L 142.07914 270.261414 
L 142.07914 270.146684 
L 142.306513 270.146684 
L 142.306513 270.031953 
L 142.486301 270.031953 
L 142.486301 269.917223 
L 143.014805 269.917223 
L 143.014805 269.343571 
L 143.230373 269.343571 
L 143.273169 269.114111 
L 145.403044 269.114111 
L 145.478539 268.76992 
L 145.516164 268.76992 
L 145.516164 268.425729 
L 147.096109 268.425729 
L 147.096109 268.196268 
L 147.266916 268.196268 
L 147.266916 268.081538 
L 148.733265 268.081538 
L 148.733265 267.852077 
L 150.229833 267.852077 
L 150.287105 267.622616 
L 151.44831 267.622616 
L 151.44831 267.393156 
L 151.713753 267.393156 
L 151.76636 266.819504 
L 152.934492 266.819504 
L 152.934492 266.704773 
L 153.081247 266.704773 
L 153.178403 265.901661 
L 153.371104 265.901661 
L 153.371104 265.786931 
L 153.632638 265.786931 
L 153.632638 265.6722 
L 153.959927 265.6722 
L 154.05232 265.328009 
L 155.296925 265.328009 
L 155.318362 264.754358 
L 156.236431 264.754358 
L 156.236431 264.524897 
L 157.319964 264.524897 
L 157.319964 264.410167 
L 158.159001 264.410167 
L 158.267884 263.607054 
L 159.115303 263.607054 
L 159.149734 263.148133 
L 159.857512 263.148133 
L 159.923445 262.803942 
L 160.038232 262.803942 
L 160.087195 262.34502 
L 160.442124 262.34502 
L 160.442124 262.23029 
L 160.680044 262.23029 
L 160.680044 261.886099 
L 162.20271 261.886099 
L 162.20271 261.541908 
L 162.979172 261.541908 
L 162.979172 261.427178 
L 163.563025 261.427178 
L 163.616356 260.738796 
L 164.295217 260.738796 
L 164.320806 260.394605 
L 164.849691 260.394605 
L 164.849691 260.279874 
L 164.985598 260.279874 
L 165.022481 259.935683 
L 165.471066 259.935683 
L 165.471066 259.820953 
L 167.745812 259.820953 
L 167.745812 259.706222 
L 168.283721 259.706222 
L 168.304082 259.247301 
L 168.726264 259.247301 
L 168.726264 259.132571 
L 168.86475 259.132571 
L 168.86475 259.01784 
L 171.527673 259.01784 
L 171.54458 258.329458 
L 172.011434 258.329458 
L 172.011434 258.214728 
L 173.111214 258.214728 
L 173.111214 258.099998 
L 174.261802 258.099998 
L 174.276256 257.755807 
L 174.676192 257.755807 
L 174.676192 257.411616 
L 175.320753 257.411616 
L 175.320753 257.296885 
L 175.624287 257.296885 
L 175.624287 257.182155 
L 176.28047 257.182155 
L 176.28047 257.067425 
L 176.637426 257.067425 
L 176.637426 256.952694 
L 176.968661 256.952694 
L 176.987223 256.723234 
L 177.553068 256.723234 
L 177.553068 256.608503 
L 178.705493 256.608503 
L 178.705493 256.379043 
L 179.011015 256.379043 
L 179.027527 256.149582 
L 179.531791 256.149582 
L 179.537135 255.805391 
L 180.564187 255.805391 
L 180.564187 255.4612 
L 180.853932 255.4612 
L 180.853932 255.346469 
L 181.308704 255.346469 
L 181.308704 255.231739 
L 181.784827 255.231739 
L 181.784827 255.117009 
L 182.243721 255.117009 
L 182.243721 254.887548 
L 182.493539 254.887548 
L 182.507063 254.428627 
L 184.004565 254.428627 
L 184.004565 254.199166 
L 184.397118 254.199166 
L 184.397118 254.084436 
L 185.191477 254.084436 
L 185.191477 253.969705 
L 185.406495 253.969705 
L 185.406495 253.854975 
L 186.486626 253.854975 
L 186.486626 253.740245 
L 188.832347 253.740245 
L 188.832347 253.625514 
L 189.01326 253.625514 
L 189.01326 253.510784 
L 189.736582 253.510784 
L 189.736582 253.396054 
L 189.896604 253.396054 
L 189.902502 253.166593 
L 191.052135 253.166593 
L 191.052135 253.051863 
L 191.853368 253.051863 
L 191.853368 252.937132 
L 192.747623 252.937132 
L 192.747623 252.822402 
L 192.892307 252.822402 
L 192.892307 252.707672 
L 193.60302 252.707672 
L 193.60302 252.592941 
L 193.959491 252.592941 
L 194.064329 252.36348 
L 194.418415 252.36348 
L 194.418415 252.24875 
L 195.197382 252.24875 
L 195.201735 251.904559 
L 196.057366 251.904559 
L 196.063581 251.675098 
L 196.767863 251.675098 
L 196.767863 251.560368 
L 197.34502 251.560368 
L 197.34502 251.445638 
L 198.642632 251.445638 
L 198.642632 251.330907 
L 199.260389 251.330907 
L 199.260389 251.101447 
L 200.427443 251.101447 
L 200.512705 250.757256 
L 201.065527 250.757256 
L 201.065527 250.642525 
L 201.518242 250.642525 
L 201.518242 250.527795 
L 205.736266 250.527795 
L 205.736266 250.413065 
L 208.48696 250.413065 
L 208.48696 250.298334 
L 209.802409 250.298334 
L 209.802409 250.183604 
L 210.268104 250.183604 
L 210.268104 250.068874 
L 210.76453 250.068874 
L 210.76453 249.954143 
L 211.676334 249.954143 
L 211.676334 249.839413 
L 212.542825 249.839413 
L 212.542825 249.724683 
L 213.782576 249.724683 
L 213.782576 249.609952 
L 338.688 249.609952 
L 338.688 249.609952 
" style="fill:none;stroke:#008000;stroke-linecap:square;stroke-width:1.5;"/>
   </g>
   <g id="line2d_36">
    <defs>
     <path d="M -0 6 
L 6 -6 
L -6 -6 
z
" id="md54c28a71b" style="stroke:#008000;stroke-linejoin:miter;stroke-width:1.5;"/>
    </defs>
    <g>
     <use style="fill-opacity:0;stroke:#008000;stroke-linejoin:miter;stroke-width:1.5;" x="89.78989" xlink:href="#md54c28a71b" y="279.784033"/>
     <use style="fill-opacity:0;stroke:#008000;stroke-linejoin:miter;stroke-width:1.5;" x="156.236431" xlink:href="#md54c28a71b" y="264.524897"/>
     <use style="fill-opacity:0;stroke:#008000;stroke-linejoin:miter;stroke-width:1.5;" x="213.782576" xlink:href="#md54c28a71b" y="249.724683"/>
     <use style="fill-opacity:0;stroke:#008000;stroke-linejoin:miter;stroke-width:1.5;" x="213.782576" xlink:href="#md54c28a71b" y="249.609952"/>
     <use style="fill-opacity:0;stroke:#008000;stroke-linejoin:miter;stroke-width:1.5;" x="213.782576" xlink:href="#md54c28a71b" y="249.609952"/>
     <use style="fill-opacity:0;stroke:#008000;stroke-linejoin:miter;stroke-width:1.5;" x="338.688" xlink:href="#md54c28a71b" y="249.609952"/>
    </g>
   </g>
   <g id="line2d_37">
    <path style="fill:none;stroke:#008000;stroke-linecap:square;stroke-width:1.5;"/>
    <g/>
   </g>
   <g id="line2d_38">
    <path clip-path="url(#p14902b8fa7)" d="M 140.599134 271.752909 
" style="fill:none;stroke:#008000;stroke-linecap:square;stroke-width:1.5;"/>
    <defs>
     <path d="M -12 12 
L 12 -12 
M -12 -12 
L 12 12 
" id="m173773cbc3" style="stroke:#008000;"/>
    </defs>
    <g clip-path="url(#p14902b8fa7)">
     <use style="fill:#008000;stroke:#008000;" x="140.599134" xlink:href="#m173773cbc3" y="271.752909"/>
    </g>
   </g>
   <g id="line2d_39">
    <defs>
     <path d="M 0 1.5 
C 0.397805 1.5 0.77937 1.341951 1.06066 1.06066 
C 1.341951 0.77937 1.5 0.397805 1.5 0 
C 1.5 -0.397805 1.341951 -0.77937 1.06066 -1.06066 
C 0.77937 -1.341951 0.397805 -1.5 0 -1.5 
C -0.397805 -1.5 -0.77937 -1.341951 -1.06066 -1.06066 
C -1.341951 -0.77937 -1.5 -0.397805 -1.5 0 
C -1.5 0.397805 -1.341951 0.77937 -1.06066 1.06066 
C -0.77937 1.341951 -0.397805 1.5 0 1.5 
z
" id="mf09d1a7eab" style="stroke:#0000ff;"/>
    </defs>
    <g>
     <use style="fill:#0000ff;stroke:#0000ff;" x="208.495085" xlink:href="#mf09d1a7eab" y="273.703324"/>
     <use style="fill:#0000ff;stroke:#0000ff;" x="208.495085" xlink:href="#mf09d1a7eab" y="273.703324"/>
    </g>
   </g>
   <g id="line2d_40">
    <path d="M 29.53256 298.944 
L 29.53256 296.305202 
L 41.620548 296.305202 
L 41.620548 294.928438 
L 48.691568 294.928438 
L 48.691568 294.698977 
L 53.708537 294.698977 
L 53.708537 294.240056 
L 57.6 294.240056 
L 57.6 293.436944 
L 60.779557 293.436944 
L 60.779557 293.207483 
L 63.467834 293.207483 
L 63.467834 292.748561 
L 65.796525 292.748561 
L 65.796525 292.519101 
L 67.850577 292.519101 
L 67.850577 292.060179 
L 69.687988 292.060179 
L 69.687988 291.715988 
L 71.35013 291.715988 
L 71.35013 291.027606 
L 72.867545 291.027606 
L 72.867545 290.912876 
L 74.263433 290.912876 
L 74.263433 290.683415 
L 75.555822 290.683415 
L 75.555822 290.568685 
L 76.759008 290.568685 
L 76.759008 290.453955 
L 77.884514 290.453955 
L 77.884514 290.224494 
L 78.941764 290.224494 
L 78.941764 290.109764 
L 79.938565 290.109764 
L 79.938565 289.880303 
L 80.881459 289.880303 
L 80.881459 289.650842 
L 81.775977 289.650842 
L 81.775977 289.536112 
L 84.213325 289.536112 
L 84.213325 289.306651 
L 84.955534 289.306651 
L 84.955534 288.96246 
L 85.66744 288.96246 
L 85.66744 288.84773 
L 87.009585 288.84773 
L 87.009585 288.618269 
L 87.643811 288.618269 
L 87.643811 288.503539 
L 91.535274 288.503539 
L 91.535274 288.388808 
L 92.504372 288.388808 
L 92.504372 288.274078 
L 92.969447 288.274078 
L 92.969447 288.159348 
L 93.863965 288.159348 
L 93.863965 288.044617 
L 95.918017 288.044617 
L 95.918017 287.929887 
L 96.301313 287.929887 
L 96.301313 287.700426 
L 98.43941 287.700426 
L 98.43941 287.012044 
L 98.771596 287.012044 
L 98.771596 286.897314 
L 99.097574 286.897314 
L 99.097574 286.782584 
L 99.41757 286.782584 
L 99.41757 286.667853 
L 99.731799 286.667853 
L 99.731799 286.553123 
L 100.343767 286.553123 
L 100.343767 286.438393 
L 101.223245 286.438393 
L 101.223245 286.323662 
L 110.188761 286.323662 
L 110.188761 286.208932 
L 111.185562 286.208932 
L 111.185562 286.094202 
L 111.505558 286.094202 
L 111.505558 285.979471 
L 111.663381 285.979471 
L 111.663381 285.63528 
L 117.259781 285.63528 
L 117.259781 285.405819 
L 117.598418 285.405819 
L 117.598418 285.291089 
L 117.709852 285.291089 
L 117.820578 284.946898 
L 118.148599 284.946898 
L 118.148599 284.832168 
L 122.104932 284.832168 
L 122.104932 284.717437 
L 122.362027 284.717437 
L 122.362027 284.602707 
L 122.865118 284.602707 
L 122.865118 284.487977 
L 123.029641 284.487977 
L 123.111324 284.143786 
L 126.099688 284.143786 
L 126.099688 284.029055 
L 126.236468 284.029055 
L 126.236468 283.914325 
L 129.175952 283.914325 
L 129.175952 283.799595 
L 129.347769 283.799595 
L 129.347769 283.684864 
L 129.46138 283.684864 
L 129.51791 283.455404 
L 131.790072 283.455404 
L 131.790072 283.340673 
L 132.133473 283.340673 
L 132.133473 283.225943 
L 134.577155 283.225943 
L 134.577155 283.111213 
L 136.304433 283.111213 
L 136.304433 282.996482 
L 136.570107 282.996482 
L 136.570107 282.881752 
L 138.221972 282.881752 
L 138.221972 282.767022 
L 139.856059 282.767022 
L 139.856059 282.652291 
L 140.073083 282.652291 
L 140.073083 282.537561 
L 140.287441 282.537561 
L 140.287441 282.3081 
L 140.438956 282.3081 
L 140.438956 282.19337 
L 141.148448 282.19337 
L 141.177393 281.390257 
L 141.407239 281.390257 
L 141.407239 281.275527 
L 142.778958 281.275527 
L 142.778958 281.046066 
L 143.952218 281.046066 
L 143.952218 280.931336 
L 146.324022 280.931336 
L 146.324022 280.816606 
L 148.258051 280.816606 
L 148.258051 280.701875 
L 150.103169 280.701875 
L 150.103169 280.587145 
L 150.224095 280.587145 
L 150.224095 280.472415 
L 151.676833 280.472415 
L 151.676833 280.013493 
L 152.052897 280.013493 
L 152.052897 279.898763 
L 152.466496 279.898763 
L 152.466496 279.784033 
L 153.207444 279.784033 
L 153.207444 279.669302 
L 153.987696 279.669302 
L 153.987696 279.554572 
L 156.502685 279.554572 
L 156.586556 279.095651 
L 157.787352 279.095651 
L 157.787352 278.98092 
L 158.742573 278.98092 
L 158.742573 278.86619 
L 158.994256 278.86619 
L 158.994256 278.75146 
L 159.273126 278.75146 
L 159.283369 278.292538 
L 159.778062 278.292538 
L 159.867418 278.063077 
L 161.247301 278.063077 
L 161.247301 277.948347 
L 162.104265 277.948347 
L 162.104265 277.833617 
L 164.951104 277.833617 
L 164.951104 277.604156 
L 166.337313 277.604156 
L 166.337313 277.489426 
L 167.96712 277.489426 
L 167.96712 277.259965 
L 168.27557 277.259965 
L 168.27557 277.145235 
L 168.60868 277.145235 
L 168.60868 277.030504 
L 169.480386 277.030504 
L 169.480386 276.915774 
L 169.740933 276.915774 
L 169.740933 276.801044 
L 170.951613 276.801044 
L 170.951613 276.686313 
L 171.396939 276.686313 
L 171.396939 276.571583 
L 171.63055 276.571583 
L 171.63055 276.456853 
L 172.366452 276.456853 
L 172.366452 276.342122 
L 172.58751 276.342122 
L 172.58751 276.227392 
L 173.746708 276.227392 
L 173.746708 276.112662 
L 177.179109 276.112662 
L 177.179109 275.997931 
L 177.581781 275.997931 
L 177.581781 275.883201 
L 178.93707 275.883201 
L 178.93707 275.768471 
L 179.112042 275.768471 
L 179.112042 275.65374 
L 180.810279 275.65374 
L 180.831127 275.42428 
L 181.539819 275.42428 
L 181.539819 275.309549 
L 182.973917 275.309549 
L 182.973917 275.194819 
L 184.572527 275.194819 
L 184.572527 275.080089 
L 186.275886 275.080089 
L 186.275886 274.965358 
L 186.390954 274.965358 
L 186.390954 274.850628 
L 187.434578 274.850628 
L 187.434578 274.735897 
L 189.188016 274.735897 
L 189.188016 274.621167 
L 194.288194 274.621167 
L 194.288194 274.506437 
L 195.02897 274.506437 
L 195.02897 274.391706 
L 196.422321 274.391706 
L 196.422321 274.276976 
L 200.037695 274.276976 
L 200.037695 274.162246 
L 200.365083 274.162246 
L 200.365083 274.047515 
L 203.306897 274.047515 
L 203.306897 273.932785 
L 207.31951 273.932785 
L 207.31951 273.818055 
L 208.495085 273.818055 
L 208.495085 273.703324 
L 338.688 273.703324 
L 338.688 273.703324 
" style="fill:none;stroke:#0000ff;stroke-linecap:square;stroke-width:1.5;"/>
   </g>
   <g id="line2d_41">
    <defs>
     <path d="M 0 -6 
L -1.347084 -1.854102 
L -5.706339 -1.854102 
L -2.179628 0.708204 
L -3.526712 4.854102 
L -0 2.291796 
L 3.526712 4.854102 
L 2.179628 0.708204 
L 5.706339 -1.854102 
L 1.347084 -1.854102 
z
" id="m74caea4883" style="stroke:#0000ff;stroke-linejoin:bevel;stroke-width:1.5;"/>
    </defs>
    <g>
     <use style="fill-opacity:0;stroke:#0000ff;stroke-linejoin:bevel;stroke-width:1.5;" x="79.938565" xlink:href="#m74caea4883" y="290.109764"/>
     <use style="fill-opacity:0;stroke:#0000ff;stroke-linejoin:bevel;stroke-width:1.5;" x="150.224095" xlink:href="#m74caea4883" y="280.472415"/>
     <use style="fill-opacity:0;stroke:#0000ff;stroke-linejoin:bevel;stroke-width:1.5;" x="208.495085" xlink:href="#m74caea4883" y="273.818055"/>
     <use style="fill-opacity:0;stroke:#0000ff;stroke-linejoin:bevel;stroke-width:1.5;" x="208.495085" xlink:href="#m74caea4883" y="273.818055"/>
     <use style="fill-opacity:0;stroke:#0000ff;stroke-linejoin:bevel;stroke-width:1.5;" x="208.495085" xlink:href="#m74caea4883" y="273.703324"/>
     <use style="fill-opacity:0;stroke:#0000ff;stroke-linejoin:bevel;stroke-width:1.5;" x="338.688" xlink:href="#m74caea4883" y="273.703324"/>
    </g>
   </g>
   <g id="line2d_42">
    <path style="fill:none;stroke:#0000ff;stroke-linecap:square;stroke-width:1.5;"/>
    <g/>
   </g>
   <g id="line2d_43">
    <path clip-path="url(#p14902b8fa7)" d="M 139.572998 282.767022 
" style="fill:none;stroke:#0000ff;stroke-linecap:square;stroke-width:1.5;"/>
    <defs>
     <path d="M -12 12 
L 12 -12 
M -12 -12 
L 12 12 
" id="m2f5ceaf35f" style="stroke:#0000ff;"/>
    </defs>
    <g clip-path="url(#p14902b8fa7)">
     <use style="fill:#0000ff;stroke:#0000ff;" x="139.572998" xlink:href="#m2f5ceaf35f" y="282.767022"/>
    </g>
   </g>
   <g id="line2d_44">
    <defs>
     <path d="M 0 1.5 
C 0.397805 1.5 0.77937 1.341951 1.06066 1.06066 
C 1.341951 0.77937 1.5 0.397805 1.5 0 
C 1.5 -0.397805 1.341951 -0.77937 1.06066 -1.06066 
C 0.77937 -1.341951 0.397805 -1.5 0 -1.5 
C -0.397805 -1.5 -0.77937 -1.341951 -1.06066 -1.06066 
C -1.341951 -0.77937 -1.5 -0.397805 -1.5 0 
C -1.5 0.397805 -1.341951 0.77937 -1.06066 1.06066 
C -0.77937 1.341951 -0.397805 1.5 0 1.5 
z
" id="m019f4a2076" style="stroke:#000000;"/>
    </defs>
    <g>
     <use style="stroke:#000000;" x="209.970413" xlink:href="#m019f4a2076" y="288.618269"/>
     <use style="stroke:#000000;" x="209.970413" xlink:href="#m019f4a2076" y="288.618269"/>
    </g>
   </g>
   <g id="line2d_45">
    <path d="M 17.444571 298.944 
L 17.444571 297.911427 
L 29.53256 297.911427 
L 29.53256 297.796697 
L 41.620548 297.796697 
L 41.620548 297.681966 
L 45.512012 297.681966 
L 45.512012 297.452506 
L 53.708537 297.452506 
L 53.708537 297.108315 
L 55.762588 297.108315 
L 55.762588 296.993584 
L 57.6 296.993584 
L 57.6 296.649393 
L 59.262141 296.649393 
L 59.262141 296.534663 
L 71.35013 296.534663 
L 71.35013 296.419932 
L 74.263433 296.419932 
L 74.263433 296.190472 
L 77.884514 296.190472 
L 77.884514 295.961011 
L 83.438118 295.961011 
L 83.438118 295.846281 
L 83.830028 295.846281 
L 83.830028 295.73155 
L 84.955534 295.73155 
L 84.955534 295.61682 
L 86.351421 295.61682 
L 86.351421 295.387359 
L 86.683608 295.387359 
L 86.683608 295.272629 
L 88.255778 295.272629 
L 88.255778 295.157899 
L 98.771596 295.157899 
L 98.771596 294.928438 
L 105.057436 294.928438 
L 105.057436 294.813708 
L 105.285403 294.813708 
L 105.285403 294.698977 
L 105.398279 294.698977 
L 105.398279 294.584247 
L 110.103064 294.584247 
L 110.103064 294.469517 
L 113.873839 294.469517 
L 113.873839 294.354786 
L 114.351658 294.354786 
L 114.351658 294.240056 
L 119.80089 294.240056 
L 119.80089 294.125326 
L 122.233953 294.125326 
L 122.233953 294.010595 
L 122.362027 294.010595 
L 122.362027 293.895865 
L 124.178158 293.895865 
L 124.178158 293.781135 
L 129.204706 293.781135 
L 129.204706 293.666404 
L 139.188293 293.666404 
L 139.188293 293.551674 
L 139.493548 293.551674 
L 139.541262 293.207483 
L 143.828447 293.207483 
L 143.828447 292.978022 
L 146.140051 292.978022 
L 146.140051 292.863292 
L 150.858013 292.863292 
L 150.858013 292.748561 
L 152.826082 292.748561 
L 152.826082 292.633831 
L 153.93907 292.633831 
L 153.93907 292.519101 
L 154.926208 292.519101 
L 154.926208 292.28964 
L 163.372371 292.28964 
L 163.372371 292.060179 
L 165.09479 292.060179 
L 165.09479 291.830719 
L 165.291805 291.830719 
L 165.291805 291.715988 
L 165.675732 291.715988 
L 165.675732 291.601258 
L 167.646779 291.601258 
L 167.646779 291.371797 
L 168.575653 291.371797 
L 168.575653 291.257067 
L 171.224819 291.257067 
L 171.224819 291.142337 
L 174.080834 291.142337 
L 174.080834 291.027606 
L 175.745565 291.027606 
L 175.745565 290.798146 
L 177.721082 290.798146 
L 177.721082 290.683415 
L 178.071517 290.683415 
L 178.071517 290.568685 
L 179.092322 290.568685 
L 179.092322 290.453955 
L 179.897244 290.453955 
L 179.897244 290.339224 
L 181.105767 290.339224 
L 181.105767 290.224494 
L 181.472527 290.224494 
L 181.472527 290.109764 
L 183.811615 290.109764 
L 183.811615 289.995033 
L 185.490626 289.995033 
L 185.490626 289.880303 
L 186.3758 289.880303 
L 186.3758 289.765573 
L 192.287977 289.765573 
L 192.329591 289.536112 
L 193.696264 289.536112 
L 193.696264 289.421381 
L 195.930311 289.421381 
L 195.930311 289.306651 
L 196.608198 289.306651 
L 196.608198 289.191921 
L 201.050128 289.191921 
L 201.050128 289.07719 
L 201.508998 289.07719 
L 201.508998 288.96246 
L 202.696687 288.96246 
L 202.696687 288.84773 
L 205.748275 288.84773 
L 205.748275 288.732999 
L 209.970413 288.732999 
L 209.970413 288.618269 
L 338.688 288.618269 
L 338.688 288.618269 
" style="fill:none;stroke:#000000;stroke-linecap:square;stroke-width:1.5;"/>
   </g>
   <g id="line2d_46">
    <defs>
     <path d="M 0 6 
C 1.591219 6 3.117479 5.367802 4.242641 4.242641 
C 5.367802 3.117479 6 1.591219 6 0 
C 6 -1.591219 5.367802 -3.117479 4.242641 -4.242641 
C 3.117479 -5.367802 1.591219 -6 0 -6 
C -1.591219 -6 -3.117479 -5.367802 -4.242641 -4.242641 
C -5.367802 -3.117479 -6 -1.591219 -6 0 
C -6 1.591219 -5.367802 3.117479 -4.242641 4.242641 
C -3.117479 5.367802 -1.591219 6 0 6 
z
" id="m7347595d3b" style="stroke:#000000;stroke-width:1.5;"/>
    </defs>
    <g>
     <use style="fill-opacity:0;stroke:#000000;stroke-width:1.5;" x="88.255778" xlink:href="#m7347595d3b" y="295.157899"/>
     <use style="fill-opacity:0;stroke:#000000;stroke-width:1.5;" x="154.926208" xlink:href="#m7347595d3b" y="292.28964"/>
     <use style="fill-opacity:0;stroke:#000000;stroke-width:1.5;" x="209.970413" xlink:href="#m7347595d3b" y="288.732999"/>
     <use style="fill-opacity:0;stroke:#000000;stroke-width:1.5;" x="209.970413" xlink:href="#m7347595d3b" y="288.618269"/>
     <use style="fill-opacity:0;stroke:#000000;stroke-width:1.5;" x="209.970413" xlink:href="#m7347595d3b" y="288.618269"/>
     <use style="fill-opacity:0;stroke:#000000;stroke-width:1.5;" x="338.688" xlink:href="#m7347595d3b" y="288.618269"/>
    </g>
   </g>
   <g id="line2d_47">
    <path style="fill:none;stroke:#000000;stroke-linecap:square;stroke-width:1.5;"/>
    <g/>
   </g>
   <g id="line2d_48">
    <path clip-path="url(#p14902b8fa7)" d="M 138.761723 293.666404 
" style="fill:none;stroke:#000000;stroke-linecap:square;stroke-width:1.5;"/>
    <defs>
     <path d="M -12 12 
L 12 -12 
M -12 -12 
L 12 12 
" id="m86fced41a1" style="stroke:#000000;"/>
    </defs>
    <g clip-path="url(#p14902b8fa7)">
     <use style="stroke:#000000;" x="138.761723" xlink:href="#m86fced41a1" y="293.666404"/>
    </g>
   </g>
   <g id="line2d_49">
    <defs>
     <path d="M 0 1.5 
C 0.397805 1.5 0.77937 1.341951 1.06066 1.06066 
C 1.341951 0.77937 1.5 0.397805 1.5 0 
C 1.5 -0.397805 1.341951 -0.77937 1.06066 -1.06066 
C 0.77937 -1.341951 0.397805 -1.5 0 -1.5 
C -0.397805 -1.5 -0.77937 -1.341951 -1.06066 -1.06066 
C -1.341951 -0.77937 -1.5 -0.397805 -1.5 0 
C -1.5 0.397805 -1.341951 0.77937 -1.06066 1.06066 
C -0.77937 1.341951 -0.397805 1.5 0 1.5 
z
" id="m6b4d380ad2" style="stroke:#ff0000;"/>
    </defs>
    <g>
     <use style="fill:#ff0000;stroke:#ff0000;" x="162.733045" xlink:href="#m6b4d380ad2" y="296.649393"/>
     <use style="fill:#ff0000;stroke:#ff0000;" x="162.733045" xlink:href="#m6b4d380ad2" y="296.649393"/>
    </g>
   </g>
   <g id="line2d_50">
    <path d="M 24.515591 298.944 
L 24.515591 298.82927 
L 58.450865 298.82927 
L 58.450865 298.714539 
L 76.16779 298.714539 
L 76.16779 298.599809 
L 76.465904 298.599809 
L 76.465904 298.485079 
L 86.012784 298.485079 
L 86.012784 298.370348 
L 86.351421 298.370348 
L 86.351421 298.255618 
L 98.015075 298.255618 
L 98.015075 298.140888 
L 98.43941 298.140888 
L 98.43941 298.026157 
L 101.992235 298.026157 
L 101.992235 297.911427 
L 128.45625 297.911427 
L 128.45625 297.796697 
L 139.188293 297.796697 
L 139.188293 297.681966 
L 139.628399 297.681966 
L 139.628399 297.567236 
L 140.026805 297.567236 
L 140.026805 297.452506 
L 140.386075 297.452506 
L 140.386075 297.337775 
L 142.53319 297.337775 
L 142.53319 297.223045 
L 146.178086 297.223045 
L 146.178086 297.108315 
L 150.858013 297.108315 
L 150.858013 296.993584 
L 151.292481 296.993584 
L 151.292481 296.764123 
L 162.733045 296.764123 
L 162.733045 296.649393 
L 338.688 296.649393 
" style="fill:none;stroke:#ff0000;stroke-linecap:square;stroke-width:1.5;"/>
   </g>
   <g id="line2d_51">
    <defs>
     <path d="M -6 6 
L 6 6 
L 6 -6 
L -6 -6 
z
" id="ma337fb2edf" style="stroke:#ff0000;stroke-linejoin:miter;stroke-width:1.5;"/>
    </defs>
    <g>
     <use style="fill-opacity:0;stroke:#ff0000;stroke-linejoin:miter;stroke-width:1.5;" x="101.992235" xlink:href="#ma337fb2edf" y="297.911427"/>
     <use style="fill-opacity:0;stroke:#ff0000;stroke-linejoin:miter;stroke-width:1.5;" x="162.733045" xlink:href="#ma337fb2edf" y="296.764123"/>
     <use style="fill-opacity:0;stroke:#ff0000;stroke-linejoin:miter;stroke-width:1.5;" x="162.733045" xlink:href="#ma337fb2edf" y="296.649393"/>
     <use style="fill-opacity:0;stroke:#ff0000;stroke-linejoin:miter;stroke-width:1.5;" x="162.733045" xlink:href="#ma337fb2edf" y="296.649393"/>
     <use style="fill-opacity:0;stroke:#ff0000;stroke-linejoin:miter;stroke-width:1.5;" x="162.733045" xlink:href="#ma337fb2edf" y="296.649393"/>
     <use style="fill-opacity:0;stroke:#ff0000;stroke-linejoin:miter;stroke-width:1.5;" x="338.688" xlink:href="#ma337fb2edf" y="296.649393"/>
    </g>
   </g>
   <g id="line2d_52">
    <path style="fill:none;stroke:#ff0000;stroke-linecap:square;stroke-width:1.5;"/>
    <g/>
   </g>
   <g id="line2d_53">
    <path clip-path="url(#p14902b8fa7)" d="M 138.341479 297.796697 
" style="fill:none;stroke:#ff0000;stroke-linecap:square;stroke-width:1.5;"/>
    <defs>
     <path d="M -12 12 
L 12 -12 
M -12 -12 
L 12 12 
" id="mdba225280a" style="stroke:#ff0000;"/>
    </defs>
    <g clip-path="url(#p14902b8fa7)">
     <use style="fill:#ff0000;stroke:#ff0000;" x="138.341479" xlink:href="#mdba225280a" y="297.796697"/>
    </g>
   </g>
   <g id="line2d_54">
    <path clip-path="url(#p14902b8fa7)" d="M 57.6 298.944 
L 57.6 298.944 
L 57.6 298.944 
L 57.6 298.944 
L 338.688 298.944 
" style="fill:none;stroke:#bf00bf;stroke-linecap:square;stroke-width:1.5;"/>
   </g>
   <g id="line2d_55">
    <defs>
     <path d="M -0 8.485281 
L 8.485281 0 
L 0 -8.485281 
L -8.485281 -0 
z
" id="m24eb450b35" style="stroke:#bf00bf;stroke-linejoin:miter;stroke-width:1.5;"/>
    </defs>
    <g clip-path="url(#p14902b8fa7)">
     <use style="fill-opacity:0;stroke:#bf00bf;stroke-linejoin:miter;stroke-width:1.5;" x="57.6" xlink:href="#m24eb450b35" y="298.944"/>
    </g>
   </g>
   <g id="line2d_56">
    <path clip-path="url(#p14902b8fa7)" style="fill:none;stroke:#bf00bf;stroke-linecap:square;stroke-width:1.5;"/>
    <g clip-path="url(#p14902b8fa7)">
     <use style="fill-opacity:0;stroke:#bf00bf;stroke-linejoin:miter;stroke-width:1.5;" x="-1" xlink:href="#m24eb450b35" y="591.506376"/>
     <use style="fill-opacity:0;stroke:#bf00bf;stroke-linejoin:miter;stroke-width:1.5;" x="338.688" xlink:href="#m24eb450b35" y="591.506376"/>
    </g>
   </g>
   <g id="line2d_57">
    <path d="M 338.688 298.944 
L 369.60768 293.092752 
" style="fill:none;stroke:#bf00bf;stroke-linecap:square;stroke-width:1.5;"/>
    <g>
     <use style="fill-opacity:0;stroke:#bf00bf;stroke-linejoin:miter;stroke-width:1.5;" x="338.688" xlink:href="#m24eb450b35" y="298.944"/>
     <use style="fill-opacity:0;stroke:#bf00bf;stroke-linejoin:miter;stroke-width:1.5;" x="369.60768" xlink:href="#m24eb450b35" y="293.092752"/>
    </g>
   </g>
   <g id="line2d_58">
    <path d="M 338.688 296.649393 
L 369.60768 236.920776 
" style="fill:none;stroke:#ff0000;stroke-linecap:square;stroke-width:1.5;"/>
    <g>
     <use style="fill-opacity:0;stroke:#ff0000;stroke-linejoin:miter;stroke-width:1.5;" x="338.688" xlink:href="#ma337fb2edf" y="296.649393"/>
     <use style="fill-opacity:0;stroke:#ff0000;stroke-linejoin:miter;stroke-width:1.5;" x="369.60768" xlink:href="#ma337fb2edf" y="236.920776"/>
    </g>
   </g>
   <g id="line2d_59">
    <path d="M 338.688 288.618269 
L 369.60768 180.7488 
" style="fill:none;stroke:#000000;stroke-linecap:square;stroke-width:1.5;"/>
    <g>
     <use style="fill-opacity:0;stroke:#000000;stroke-width:1.5;" x="338.688" xlink:href="#m7347595d3b" y="288.618269"/>
     <use style="fill-opacity:0;stroke:#000000;stroke-width:1.5;" x="369.60768" xlink:href="#m7347595d3b" y="180.7488"/>
    </g>
   </g>
   <g id="line2d_60">
    <path d="M 338.688 273.703324 
L 369.60768 124.576824 
" style="fill:none;stroke:#0000ff;stroke-linecap:square;stroke-width:1.5;"/>
    <g>
     <use style="fill-opacity:0;stroke:#0000ff;stroke-linejoin:bevel;stroke-width:1.5;" x="338.688" xlink:href="#m74caea4883" y="273.703324"/>
     <use style="fill-opacity:0;stroke:#0000ff;stroke-linejoin:bevel;stroke-width:1.5;" x="369.60768" xlink:href="#m74caea4883" y="124.576824"/>
    </g>
   </g>
   <g id="line2d_61">
    <path d="M 338.688 249.609952 
L 369.60768 68.404848 
" style="fill:none;stroke:#008000;stroke-linecap:square;stroke-width:1.5;"/>
    <g>
     <use style="fill-opacity:0;stroke:#008000;stroke-linejoin:miter;stroke-width:1.5;" x="338.688" xlink:href="#md54c28a71b" y="249.609952"/>
     <use style="fill-opacity:0;stroke:#008000;stroke-linejoin:miter;stroke-width:1.5;" x="369.60768" xlink:href="#md54c28a71b" y="68.404848"/>
    </g>
   </g>
   <g id="line2d_62">
    <path d="M 338.688 228.95849 
L 369.60768 12.232871 
" style="fill:none;stroke:#00bfbf;stroke-linecap:square;stroke-width:1.5;"/>
    <g>
     <use style="fill-opacity:0;stroke:#00bfbf;stroke-width:1.5;" x="338.688" xlink:href="#m7fef795eb4" y="228.95849"/>
     <use style="fill-opacity:0;stroke:#00bfbf;stroke-width:1.5;" x="369.60768" xlink:href="#m7fef795eb4" y="12.232871"/>
    </g>
   </g>
   <g id="line2d_63">
    <path d="M 338.688 298.944 
L 338.688 6.381624 
" style="fill:none;stroke:#000000;stroke-linecap:square;stroke-width:1.5;"/>
   </g>
   <g id="patch_3">
    <path d="M 57.6 298.944 
L 57.6 3.456 
" style="fill:none;stroke:#000000;stroke-linecap:square;stroke-linejoin:miter;stroke-width:0.8;"/>
   </g>
   <g id="patch_4">
    <path d="M 338.688 298.944 
L 338.688 3.456 
" style="fill:none;stroke:#000000;stroke-linecap:square;stroke-linejoin:miter;stroke-width:0.8;"/>
   </g>
   <g id="patch_5">
    <path d="M 57.6 298.944 
L 338.688 298.944 
" style="fill:none;stroke:#000000;stroke-linecap:square;stroke-linejoin:miter;stroke-width:0.8;"/>
   </g>
   <g id="patch_6">
    <path d="M 57.6 3.456 
L 338.688 3.456 
" style="fill:none;stroke:#000000;stroke-linecap:square;stroke-linejoin:miter;stroke-width:0.8;"/>
   </g>
   <g id="text_13">
    <!-- 40-D -->
    <defs>
     <path d="M 19.671875 64.796875 
L 19.671875 8.109375 
L 31.59375 8.109375 
Q 46.6875 8.109375 53.6875 14.9375 
Q 60.6875 21.78125 60.6875 36.53125 
Q 60.6875 51.171875 53.6875 57.984375 
Q 46.6875 64.796875 31.59375 64.796875 
z
M 9.8125 72.90625 
L 30.078125 72.90625 
Q 51.265625 72.90625 61.171875 64.09375 
Q 71.09375 55.28125 71.09375 36.53125 
Q 71.09375 17.671875 61.125 8.828125 
Q 51.171875 0 30.078125 0 
L 9.8125 0 
z
" id="DejaVuSans-68"/>
    </defs>
    <g transform="translate(375.22944 297.78369)scale(0.17 -0.17)">
     <use xlink:href="#DejaVuSans-52"/>
     <use x="63.623047" xlink:href="#DejaVuSans-48"/>
     <use x="127.246094" xlink:href="#DejaVuSans-45"/>
     <use x="163.330078" xlink:href="#DejaVuSans-68"/>
    </g>
   </g>
   <g id="text_14">
    <!-- 20-D -->
    <g transform="translate(375.22944 241.611714)scale(0.17 -0.17)">
     <use xlink:href="#DejaVuSans-50"/>
     <use x="63.623047" xlink:href="#DejaVuSans-48"/>
     <use x="127.246094" xlink:href="#DejaVuSans-45"/>
     <use x="163.330078" xlink:href="#DejaVuSans-68"/>
    </g>
   </g>
   <g id="text_15">
    <!-- 10-D -->
    <g transform="translate(375.22944 185.439737)scale(0.17 -0.17)">
     <use xlink:href="#DejaVuSans-49"/>
     <use x="63.623047" xlink:href="#DejaVuSans-48"/>
     <use x="127.246094" xlink:href="#DejaVuSans-45"/>
     <use x="163.330078" xlink:href="#DejaVuSans-68"/>
    </g>
   </g>
   <g id="text_16">
    <!-- 5-D -->
    <defs>
     <path d="M 10.796875 72.90625 
L 49.515625 72.90625 
L 49.515625 64.59375 
L 19.828125 64.59375 
L 19.828125 46.734375 
Q 21.96875 47.46875 24.109375 47.828125 
Q 26.265625 48.1875 28.421875 48.1875 
Q 40.625 48.1875 47.75 41.5 
Q 54.890625 34.8125 54.890625 23.390625 
Q 54.890625 11.625 47.5625 5.09375 
Q 40.234375 -1.421875 26.90625 -1.421875 
Q 22.3125 -1.421875 17.546875 -0.640625 
Q 12.796875 0.140625 7.71875 1.703125 
L 7.71875 11.625 
Q 12.109375 9.234375 16.796875 8.0625 
Q 21.484375 6.890625 26.703125 6.890625 
Q 35.15625 6.890625 40.078125 11.328125 
Q 45.015625 15.765625 45.015625 23.390625 
Q 45.015625 31 40.078125 35.4375 
Q 35.15625 39.890625 26.703125 39.890625 
Q 22.75 39.890625 18.8125 39.015625 
Q 14.890625 38.140625 10.796875 36.28125 
z
" id="DejaVuSans-53"/>
    </defs>
    <g transform="translate(375.22944 129.267761)scale(0.17 -0.17)">
     <use xlink:href="#DejaVuSans-53"/>
     <use x="63.623047" xlink:href="#DejaVuSans-45"/>
     <use x="99.707031" xlink:href="#DejaVuSans-68"/>
    </g>
   </g>
   <g id="text_17">
    <!-- 3-D -->
    <defs>
     <path d="M 40.578125 39.3125 
Q 47.65625 37.796875 51.625 33 
Q 55.609375 28.21875 55.609375 21.1875 
Q 55.609375 10.40625 48.1875 4.484375 
Q 40.765625 -1.421875 27.09375 -1.421875 
Q 22.515625 -1.421875 17.65625 -0.515625 
Q 12.796875 0.390625 7.625 2.203125 
L 7.625 11.71875 
Q 11.71875 9.328125 16.59375 8.109375 
Q 21.484375 6.890625 26.8125 6.890625 
Q 36.078125 6.890625 40.9375 10.546875 
Q 45.796875 14.203125 45.796875 21.1875 
Q 45.796875 27.640625 41.28125 31.265625 
Q 36.765625 34.90625 28.71875 34.90625 
L 20.21875 34.90625 
L 20.21875 43.015625 
L 29.109375 43.015625 
Q 36.375 43.015625 40.234375 45.921875 
Q 44.09375 48.828125 44.09375 54.296875 
Q 44.09375 59.90625 40.109375 62.90625 
Q 36.140625 65.921875 28.71875 65.921875 
Q 24.65625 65.921875 20.015625 65.03125 
Q 15.375 64.15625 9.8125 62.3125 
L 9.8125 71.09375 
Q 15.4375 72.65625 20.34375 73.4375 
Q 25.25 74.21875 29.59375 74.21875 
Q 40.828125 74.21875 47.359375 69.109375 
Q 53.90625 64.015625 53.90625 55.328125 
Q 53.90625 49.265625 50.4375 45.09375 
Q 46.96875 40.921875 40.578125 39.3125 
z
" id="DejaVuSans-51"/>
    </defs>
    <g transform="translate(375.22944 73.095785)scale(0.17 -0.17)">
     <use xlink:href="#DejaVuSans-51"/>
     <use x="63.623047" xlink:href="#DejaVuSans-45"/>
     <use x="99.707031" xlink:href="#DejaVuSans-68"/>
    </g>
   </g>
   <g id="text_18">
    <!-- 2-D -->
    <g transform="translate(375.22944 16.923809)scale(0.17 -0.17)">
     <use xlink:href="#DejaVuSans-50"/>
     <use x="63.623047" xlink:href="#DejaVuSans-45"/>
     <use x="99.707031" xlink:href="#DejaVuSans-68"/>
    </g>
   </g>
   <g id="text_19">
    <!-- bbob f1-f5 -->
    <defs>
     <path d="M 48.6875 27.296875 
Q 48.6875 37.203125 44.609375 42.84375 
Q 40.53125 48.484375 33.40625 48.484375 
Q 26.265625 48.484375 22.1875 42.84375 
Q 18.109375 37.203125 18.109375 27.296875 
Q 18.109375 17.390625 22.1875 11.75 
Q 26.265625 6.109375 33.40625 6.109375 
Q 40.53125 6.109375 44.609375 11.75 
Q 48.6875 17.390625 48.6875 27.296875 
z
M 18.109375 46.390625 
Q 20.953125 51.265625 25.265625 53.625 
Q 29.59375 56 35.59375 56 
Q 45.5625 56 51.78125 48.09375 
Q 58.015625 40.1875 58.015625 27.296875 
Q 58.015625 14.40625 51.78125 6.484375 
Q 45.5625 -1.421875 35.59375 -1.421875 
Q 29.59375 -1.421875 25.265625 0.953125 
Q 20.953125 3.328125 18.109375 8.203125 
L 18.109375 0 
L 9.078125 0 
L 9.078125 75.984375 
L 18.109375 75.984375 
z
" id="DejaVuSans-98"/>
    </defs>
    <g transform="translate(60.41088 14.161286)scale(0.102 -0.102)">
     <use xlink:href="#DejaVuSans-98"/>
     <use x="63.476562" xlink:href="#DejaVuSans-98"/>
     <use x="126.953125" xlink:href="#DejaVuSans-111"/>
     <use x="188.134766" xlink:href="#DejaVuSans-98"/>
     <use x="251.611328" xlink:href="#DejaVuSans-32"/>
     <use x="283.398438" xlink:href="#DejaVuSans-102"/>
     <use x="318.603516" xlink:href="#DejaVuSans-49"/>
     <use x="382.226562" xlink:href="#DejaVuSans-45"/>
     <use x="418.310547" xlink:href="#DejaVuSans-102"/>
     <use x="453.515625" xlink:href="#DejaVuSans-53"/>
    </g>
    <!-- 51 targets: 100..1e-08 -->
    <defs>
     <path d="M 11.71875 12.40625 
L 22.015625 12.40625 
L 22.015625 0 
L 11.71875 0 
z
M 11.71875 51.703125 
L 22.015625 51.703125 
L 22.015625 39.3125 
L 11.71875 39.3125 
z
" id="DejaVuSans-58"/>
    </defs>
    <g transform="translate(60.41088 25.583055)scale(0.102 -0.102)">
     <use xlink:href="#DejaVuSans-53"/>
     <use x="63.623047" xlink:href="#DejaVuSans-49"/>
     <use x="127.246094" xlink:href="#DejaVuSans-32"/>
     <use x="159.033203" xlink:href="#DejaVuSans-116"/>
     <use x="198.242188" xlink:href="#DejaVuSans-97"/>
     <use x="259.521484" xlink:href="#DejaVuSans-114"/>
     <use x="300.619141" xlink:href="#DejaVuSans-103"/>
     <use x="364.095703" xlink:href="#DejaVuSans-101"/>
     <use x="425.619141" xlink:href="#DejaVuSans-116"/>
     <use x="464.828125" xlink:href="#DejaVuSans-115"/>
     <use x="516.927734" xlink:href="#DejaVuSans-58"/>
     <use x="550.619141" xlink:href="#DejaVuSans-32"/>
     <use x="582.40625" xlink:href="#DejaVuSans-49"/>
     <use x="646.029297" xlink:href="#DejaVuSans-48"/>
     <use x="709.652344" xlink:href="#DejaVuSans-48"/>
     <use x="773.275391" xlink:href="#DejaVuSans-46"/>
     <use x="805.0625" xlink:href="#DejaVuSans-46"/>
     <use x="836.849609" xlink:href="#DejaVuSans-49"/>
     <use x="900.472656" xlink:href="#DejaVuSans-101"/>
     <use x="961.996094" xlink:href="#DejaVuSans-45"/>
     <use x="998.080078" xlink:href="#DejaVuSans-48"/>
     <use x="1061.703125" xlink:href="#DejaVuSans-56"/>
    </g>
    <!-- 15 instances -->
    <g transform="translate(60.41088 37.004824)scale(0.102 -0.102)">
     <use xlink:href="#DejaVuSans-49"/>
     <use x="63.623047" xlink:href="#DejaVuSans-53"/>
     <use x="127.246094" xlink:href="#DejaVuSans-32"/>
     <use x="159.033203" xlink:href="#DejaVuSans-105"/>
     <use x="186.816406" xlink:href="#DejaVuSans-110"/>
     <use x="250.195312" xlink:href="#DejaVuSans-115"/>
     <use x="302.294922" xlink:href="#DejaVuSans-116"/>
     <use x="341.503906" xlink:href="#DejaVuSans-97"/>
     <use x="402.783203" xlink:href="#DejaVuSans-110"/>
     <use x="466.162109" xlink:href="#DejaVuSans-99"/>
     <use x="521.142578" xlink:href="#DejaVuSans-101"/>
     <use x="582.666016" xlink:href="#DejaVuSans-115"/>
    </g>
   </g>
   <g id="text_20">
    <!-- v2.4 -->
    <g style="fill:#808080;" transform="translate(187.233062 293.909432)scale(0.1 -0.1)">
     <use xlink:href="#DejaVuSans-118"/>
     <use x="59.179688" xlink:href="#DejaVuSans-50"/>
     <use x="122.802734" xlink:href="#DejaVuSans-46"/>
     <use x="154.589844" xlink:href="#DejaVuSans-52"/>
    </g>
   </g>
  </g>
 </g>
 <defs>
  <clipPath id="p14902b8fa7">
   <rect height="295.488" width="281.088" x="57.6" y="3.456"/>
  </clipPath>
 </defs>
</svg>
