<?xml version="1.0" encoding="utf-8" standalone="no"?>
<!DOCTYPE svg PUBLIC "-//W3C//DTD SVG 1.1//EN"
  "http://www.w3.org/Graphics/SVG/1.1/DTD/svg11.dtd">
<!-- Created with matplotlib (https://matplotlib.org/) -->
<svg height="345.6pt" version="1.1" viewBox="0 0 460.8 345.6" width="460.8pt" xmlns="http://www.w3.org/2000/svg" xmlns:xlink="http://www.w3.org/1999/xlink">
 <defs>
  <style type="text/css">
*{stroke-linecap:butt;stroke-linejoin:round;}
  </style>
 </defs>
 <g id="figure_1">
  <g id="patch_1">
   <path d="M 0 345.6 
L 460.8 345.6 
L 460.8 0 
L 0 0 
z
" style="fill:#ffffff;"/>
  </g>
  <g id="axes_1">
   <g id="patch_2">
    <path d="M 0 293.76 
L 460.8 293.76 
L 460.8 3.456 
L 0 3.456 
z
" style="fill:#ffffff;"/>
   </g>
   <g id="matplotlib.axis_1">
    <g id="xtick_1">
     <g id="line2d_1">
      <path clip-path="url(#pdf74e6bfa6)" d="M 104.034439 293.76 
L 104.034439 3.456 
" style="fill:none;stroke:#b0b0b0;stroke-linecap:square;stroke-width:0.8;"/>
     </g>
     <g id="line2d_2">
      <defs>
       <path d="M 0 0 
L 0 3.5 
" id="m4bbc407943" style="stroke:#000000;stroke-width:0.8;"/>
      </defs>
      <g>
       <use style="stroke:#000000;stroke-width:0.8;" x="104.034439" xlink:href="#m4bbc407943" y="293.76"/>
      </g>
     </g>
     <g id="text_1">
      <!-- -4 -->
      <defs>
       <path d="M 4.890625 31.390625 
L 31.203125 31.390625 
L 31.203125 23.390625 
L 4.890625 23.390625 
z
" id="DejaVuSans-45"/>
       <path d="M 37.796875 64.3125 
L 12.890625 25.390625 
L 37.796875 25.390625 
z
M 35.203125 72.90625 
L 47.609375 72.90625 
L 47.609375 25.390625 
L 58.015625 25.390625 
L 58.015625 17.1875 
L 47.609375 17.1875 
L 47.609375 0 
L 37.796875 0 
L 37.796875 17.1875 
L 4.890625 17.1875 
L 4.890625 26.703125 
z
" id="DejaVuSans-52"/>
      </defs>
      <g transform="translate(94.064127 315.956875)scale(0.2 -0.2)">
       <use xlink:href="#DejaVuSans-45"/>
       <use x="36.083984" xlink:href="#DejaVuSans-52"/>
      </g>
     </g>
    </g>
    <g id="xtick_2">
     <g id="line2d_3">
      <path clip-path="url(#pdf74e6bfa6)" d="M 208.181393 293.76 
L 208.181393 3.456 
" style="fill:none;stroke:#b0b0b0;stroke-linecap:square;stroke-width:0.8;"/>
     </g>
     <g id="line2d_4">
      <g>
       <use style="stroke:#000000;stroke-width:0.8;" x="208.181393" xlink:href="#m4bbc407943" y="293.76"/>
      </g>
     </g>
     <g id="text_2">
      <!-- 0 -->
      <defs>
       <path d="M 31.78125 66.40625 
Q 24.171875 66.40625 20.328125 58.90625 
Q 16.5 51.421875 16.5 36.375 
Q 16.5 21.390625 20.328125 13.890625 
Q 24.171875 6.390625 31.78125 6.390625 
Q 39.453125 6.390625 43.28125 13.890625 
Q 47.125 21.390625 47.125 36.375 
Q 47.125 51.421875 43.28125 58.90625 
Q 39.453125 66.40625 31.78125 66.40625 
z
M 31.78125 74.21875 
Q 44.046875 74.21875 50.515625 64.515625 
Q 56.984375 54.828125 56.984375 36.375 
Q 56.984375 17.96875 50.515625 8.265625 
Q 44.046875 -1.421875 31.78125 -1.421875 
Q 19.53125 -1.421875 13.0625 8.265625 
Q 6.59375 17.96875 6.59375 36.375 
Q 6.59375 54.828125 13.0625 64.515625 
Q 19.53125 74.21875 31.78125 74.21875 
z
" id="DejaVuSans-48"/>
      </defs>
      <g transform="translate(201.818893 315.956875)scale(0.2 -0.2)">
       <use xlink:href="#DejaVuSans-48"/>
      </g>
     </g>
    </g>
    <g id="xtick_3">
     <g id="line2d_5">
      <path clip-path="url(#pdf74e6bfa6)" d="M 312.328346 293.76 
L 312.328346 3.456 
" style="fill:none;stroke:#b0b0b0;stroke-linecap:square;stroke-width:0.8;"/>
     </g>
     <g id="line2d_6">
      <g>
       <use style="stroke:#000000;stroke-width:0.8;" x="312.328346" xlink:href="#m4bbc407943" y="293.76"/>
      </g>
     </g>
     <g id="text_3">
      <!-- 4 -->
      <g transform="translate(305.965846 315.956875)scale(0.2 -0.2)">
       <use xlink:href="#DejaVuSans-52"/>
      </g>
     </g>
    </g>
    <g id="xtick_4">
     <g id="line2d_7">
      <path clip-path="url(#pdf74e6bfa6)" d="M 416.4753 293.76 
L 416.4753 3.456 
" style="fill:none;stroke:#b0b0b0;stroke-linecap:square;stroke-width:0.8;"/>
     </g>
     <g id="line2d_8">
      <g>
       <use style="stroke:#000000;stroke-width:0.8;" x="416.4753" xlink:href="#m4bbc407943" y="293.76"/>
      </g>
     </g>
     <g id="text_4">
      <!-- 8 -->
      <defs>
       <path d="M 31.78125 34.625 
Q 24.75 34.625 20.71875 30.859375 
Q 16.703125 27.09375 16.703125 20.515625 
Q 16.703125 13.921875 20.71875 10.15625 
Q 24.75 6.390625 31.78125 6.390625 
Q 38.8125 6.390625 42.859375 10.171875 
Q 46.921875 13.96875 46.921875 20.515625 
Q 46.921875 27.09375 42.890625 30.859375 
Q 38.875 34.625 31.78125 34.625 
z
M 21.921875 38.8125 
Q 15.578125 40.375 12.03125 44.71875 
Q 8.5 49.078125 8.5 55.328125 
Q 8.5 64.0625 14.71875 69.140625 
Q 20.953125 74.21875 31.78125 74.21875 
Q 42.671875 74.21875 48.875 69.140625 
Q 55.078125 64.0625 55.078125 55.328125 
Q 55.078125 49.078125 51.53125 44.71875 
Q 48 40.375 41.703125 38.8125 
Q 48.828125 37.15625 52.796875 32.3125 
Q 56.78125 27.484375 56.78125 20.515625 
Q 56.78125 9.90625 50.3125 4.234375 
Q 43.84375 -1.421875 31.78125 -1.421875 
Q 19.734375 -1.421875 13.25 4.234375 
Q 6.78125 9.90625 6.78125 20.515625 
Q 6.78125 27.484375 10.78125 32.3125 
Q 14.796875 37.15625 21.921875 38.8125 
z
M 18.3125 54.390625 
Q 18.3125 48.734375 21.84375 45.5625 
Q 25.390625 42.390625 31.78125 42.390625 
Q 38.140625 42.390625 41.71875 45.5625 
Q 45.3125 48.734375 45.3125 54.390625 
Q 45.3125 60.0625 41.71875 63.234375 
Q 38.140625 66.40625 31.78125 66.40625 
Q 25.390625 66.40625 21.84375 63.234375 
Q 18.3125 60.0625 18.3125 54.390625 
z
" id="DejaVuSans-56"/>
      </defs>
      <g transform="translate(410.1128 315.956875)scale(0.2 -0.2)">
       <use xlink:href="#DejaVuSans-56"/>
      </g>
     </g>
    </g>
    <g id="text_5">
     <!-- log10 of Df -->
     <defs>
      <path d="M 9.421875 75.984375 
L 18.40625 75.984375 
L 18.40625 0 
L 9.421875 0 
z
" id="DejaVuSans-108"/>
      <path d="M 30.609375 48.390625 
Q 23.390625 48.390625 19.1875 42.75 
Q 14.984375 37.109375 14.984375 27.296875 
Q 14.984375 17.484375 19.15625 11.84375 
Q 23.34375 6.203125 30.609375 6.203125 
Q 37.796875 6.203125 41.984375 11.859375 
Q 46.1875 17.53125 46.1875 27.296875 
Q 46.1875 37.015625 41.984375 42.703125 
Q 37.796875 48.390625 30.609375 48.390625 
z
M 30.609375 56 
Q 42.328125 56 49.015625 48.375 
Q 55.71875 40.765625 55.71875 27.296875 
Q 55.71875 13.875 49.015625 6.21875 
Q 42.328125 -1.421875 30.609375 -1.421875 
Q 18.84375 -1.421875 12.171875 6.21875 
Q 5.515625 13.875 5.515625 27.296875 
Q 5.515625 40.765625 12.171875 48.375 
Q 18.84375 56 30.609375 56 
z
" id="DejaVuSans-111"/>
      <path d="M 45.40625 27.984375 
Q 45.40625 37.75 41.375 43.109375 
Q 37.359375 48.484375 30.078125 48.484375 
Q 22.859375 48.484375 18.828125 43.109375 
Q 14.796875 37.75 14.796875 27.984375 
Q 14.796875 18.265625 18.828125 12.890625 
Q 22.859375 7.515625 30.078125 7.515625 
Q 37.359375 7.515625 41.375 12.890625 
Q 45.40625 18.265625 45.40625 27.984375 
z
M 54.390625 6.78125 
Q 54.390625 -7.171875 48.1875 -13.984375 
Q 42 -20.796875 29.203125 -20.796875 
Q 24.46875 -20.796875 20.265625 -20.09375 
Q 16.0625 -19.390625 12.109375 -17.921875 
L 12.109375 -9.1875 
Q 16.0625 -11.328125 19.921875 -12.34375 
Q 23.78125 -13.375 27.78125 -13.375 
Q 36.625 -13.375 41.015625 -8.765625 
Q 45.40625 -4.15625 45.40625 5.171875 
L 45.40625 9.625 
Q 42.625 4.78125 38.28125 2.390625 
Q 33.9375 0 27.875 0 
Q 17.828125 0 11.671875 7.65625 
Q 5.515625 15.328125 5.515625 27.984375 
Q 5.515625 40.671875 11.671875 48.328125 
Q 17.828125 56 27.875 56 
Q 33.9375 56 38.28125 53.609375 
Q 42.625 51.21875 45.40625 46.390625 
L 45.40625 54.6875 
L 54.390625 54.6875 
z
" id="DejaVuSans-103"/>
      <path d="M 12.40625 8.296875 
L 28.515625 8.296875 
L 28.515625 63.921875 
L 10.984375 60.40625 
L 10.984375 69.390625 
L 28.421875 72.90625 
L 38.28125 72.90625 
L 38.28125 8.296875 
L 54.390625 8.296875 
L 54.390625 0 
L 12.40625 0 
z
" id="DejaVuSans-49"/>
      <path id="DejaVuSans-32"/>
      <path d="M 37.109375 75.984375 
L 37.109375 68.5 
L 28.515625 68.5 
Q 23.6875 68.5 21.796875 66.546875 
Q 19.921875 64.59375 19.921875 59.515625 
L 19.921875 54.6875 
L 34.71875 54.6875 
L 34.71875 47.703125 
L 19.921875 47.703125 
L 19.921875 0 
L 10.890625 0 
L 10.890625 47.703125 
L 2.296875 47.703125 
L 2.296875 54.6875 
L 10.890625 54.6875 
L 10.890625 58.5 
Q 10.890625 67.625 15.140625 71.796875 
Q 19.390625 75.984375 28.609375 75.984375 
z
" id="DejaVuSans-102"/>
      <path d="M 19.671875 64.796875 
L 19.671875 8.109375 
L 31.59375 8.109375 
Q 46.6875 8.109375 53.6875 14.9375 
Q 60.6875 21.78125 60.6875 36.53125 
Q 60.6875 51.171875 53.6875 57.984375 
Q 46.6875 64.796875 31.59375 64.796875 
z
M 9.8125 72.90625 
L 30.078125 72.90625 
Q 51.265625 72.90625 61.171875 64.09375 
Q 71.09375 55.28125 71.09375 36.53125 
Q 71.09375 17.671875 61.125 8.828125 
Q 51.171875 0 30.078125 0 
L 9.8125 0 
z
" id="DejaVuSans-68"/>
     </defs>
     <g transform="translate(175.214063 339.313125)scale(0.2 -0.2)">
      <use xlink:href="#DejaVuSans-108"/>
      <use x="27.783203" xlink:href="#DejaVuSans-111"/>
      <use x="88.964844" xlink:href="#DejaVuSans-103"/>
      <use x="152.441406" xlink:href="#DejaVuSans-49"/>
      <use x="216.064453" xlink:href="#DejaVuSans-48"/>
      <use x="279.6875" xlink:href="#DejaVuSans-32"/>
      <use x="311.474609" xlink:href="#DejaVuSans-111"/>
      <use x="372.65625" xlink:href="#DejaVuSans-102"/>
      <use x="407.861328" xlink:href="#DejaVuSans-32"/>
      <use x="439.648438" xlink:href="#DejaVuSans-68"/>
      <use x="516.650391" xlink:href="#DejaVuSans-102"/>
     </g>
    </g>
   </g>
   <g id="matplotlib.axis_2">
    <g id="ytick_1">
     <g id="line2d_9">
      <path clip-path="url(#pdf74e6bfa6)" d="M 0 293.76 
L 460.8 293.76 
" style="fill:none;stroke:#b0b0b0;stroke-linecap:square;stroke-width:0.8;"/>
     </g>
     <g id="line2d_10">
      <defs>
       <path d="M 0 0 
L -3.5 0 
" id="me4e5a91cce" style="stroke:#000000;stroke-width:0.8;"/>
      </defs>
      <g>
       <use style="stroke:#000000;stroke-width:0.8;" x="0" xlink:href="#me4e5a91cce" y="293.76"/>
      </g>
     </g>
    </g>
    <g id="ytick_2">
     <g id="line2d_11">
      <path clip-path="url(#pdf74e6bfa6)" d="M 0 236.274059 
L 460.8 236.274059 
" style="fill:none;stroke:#b0b0b0;stroke-linecap:square;stroke-width:0.8;"/>
     </g>
     <g id="line2d_12">
      <g>
       <use style="stroke:#000000;stroke-width:0.8;" x="0" xlink:href="#me4e5a91cce" y="236.274059"/>
      </g>
     </g>
    </g>
    <g id="ytick_3">
     <g id="line2d_13">
      <path clip-path="url(#pdf74e6bfa6)" d="M 0 178.788119 
L 460.8 178.788119 
" style="fill:none;stroke:#b0b0b0;stroke-linecap:square;stroke-width:0.8;"/>
     </g>
     <g id="line2d_14">
      <g>
       <use style="stroke:#000000;stroke-width:0.8;" x="0" xlink:href="#me4e5a91cce" y="178.788119"/>
      </g>
     </g>
    </g>
    <g id="ytick_4">
     <g id="line2d_15">
      <path clip-path="url(#pdf74e6bfa6)" d="M 0 121.302178 
L 460.8 121.302178 
" style="fill:none;stroke:#b0b0b0;stroke-linecap:square;stroke-width:0.8;"/>
     </g>
     <g id="line2d_16">
      <g>
       <use style="stroke:#000000;stroke-width:0.8;" x="0" xlink:href="#me4e5a91cce" y="121.302178"/>
      </g>
     </g>
    </g>
    <g id="ytick_5">
     <g id="line2d_17">
      <path clip-path="url(#pdf74e6bfa6)" d="M 0 63.816238 
L 460.8 63.816238 
" style="fill:none;stroke:#b0b0b0;stroke-linecap:square;stroke-width:0.8;"/>
     </g>
     <g id="line2d_18">
      <g>
       <use style="stroke:#000000;stroke-width:0.8;" x="0" xlink:href="#me4e5a91cce" y="63.816238"/>
      </g>
     </g>
    </g>
    <g id="ytick_6">
     <g id="line2d_19">
      <path clip-path="url(#pdf74e6bfa6)" d="M 0 6.330297 
L 460.8 6.330297 
" style="fill:none;stroke:#b0b0b0;stroke-linecap:square;stroke-width:0.8;"/>
     </g>
     <g id="line2d_20">
      <g>
       <use style="stroke:#000000;stroke-width:0.8;" x="0" xlink:href="#me4e5a91cce" y="6.330297"/>
      </g>
     </g>
    </g>
   </g>
   <g id="line2d_21">
    <path clip-path="url(#pdf74e6bfa6)" d="M 219.399197 293.76 
L 219.399197 289.927604 
L 221.234994 289.927604 
L 221.234994 286.095208 
L 221.801369 286.095208 
L 221.801369 282.262812 
L 222.502054 282.262812 
L 222.502054 278.430416 
L 222.869811 278.430416 
L 222.88816 270.765624 
L 223.85739 270.765624 
L 223.85739 266.933228 
L 224.412789 266.933228 
L 224.412789 263.100832 
L 225.540592 263.100832 
L 225.540592 259.268436 
L 225.71443 259.268436 
L 225.820622 251.603644 
L 225.827372 251.603644 
L 225.827372 247.771248 
L 226.378954 247.771248 
L 226.378954 243.938851 
L 226.65541 243.938851 
L 226.65541 240.106455 
L 226.900869 240.106455 
L 226.919201 232.441663 
L 227.651245 232.441663 
L 227.687436 224.776871 
L 227.823348 224.776871 
L 227.823348 220.944475 
L 228.039868 220.944475 
L 228.039868 217.112079 
L 228.479459 217.112079 
L 228.479459 213.279683 
L 229.308291 213.279683 
L 229.308291 209.447287 
L 229.472596 209.447287 
L 229.472596 205.614891 
L 229.793634 205.614891 
L 229.793634 201.782495 
L 230.064243 201.782495 
L 230.064243 197.950099 
L 230.467214 197.950099 
L 230.562795 190.285307 
L 231.25103 190.285307 
L 231.25103 186.452911 
L 231.786795 186.452911 
L 231.786795 182.620515 
L 232.01267 182.620515 
L 232.01267 178.788119 
L 232.271941 178.788119 
L 232.271941 174.955723 
L 232.903436 174.955723 
L 232.903436 171.123327 
L 233.222273 171.123327 
L 233.258289 163.458535 
L 233.554459 163.458535 
L 233.554459 159.626139 
L 234.11374 159.626139 
L 234.11374 155.793743 
L 234.554878 155.793743 
L 234.554878 151.961347 
L 235.10301 151.961347 
L 235.210118 140.464158 
L 235.56676 140.464158 
L 235.56676 136.631762 
L 236.226692 136.631762 
L 236.226692 132.799366 
L 237.969801 132.799366 
L 237.969801 128.96697 
L 238.664423 128.96697 
L 238.664423 125.134574 
L 238.881832 125.134574 
L 238.881832 121.302178 
L 239.188687 121.302178 
L 239.188687 117.469782 
L 241.027089 117.469782 
L 241.027089 113.637386 
L 242.456834 113.637386 
L 242.523408 105.972594 
L 243.073937 105.972594 
L 243.088654 98.307802 
L 243.338344 98.307802 
L 243.370342 90.64301 
L 243.57812 90.64301 
L 243.57812 86.810614 
L 244.582103 86.810614 
L 244.582103 82.978218 
L 245.511869 82.978218 
L 245.511869 79.145822 
L 246.300174 79.145822 
L 246.300174 75.313426 
L 246.624014 75.313426 
L 246.624014 71.48103 
L 246.929737 71.48103 
L 246.929737 67.648634 
L 247.250052 67.648634 
L 247.250052 63.816238 
L 249.424451 63.816238 
L 249.424451 59.983842 
L 251.772278 59.983842 
L 251.772278 56.151446 
L 254.06233 56.151446 
L 254.06233 52.31905 
L 254.365164 52.31905 
L 254.365164 48.486653 
L 257.367107 48.486653 
L 257.367107 44.654257 
L 257.947365 44.654257 
L 257.947365 40.821861 
L 258.404599 40.821861 
L 258.466546 33.157069 
L 259.105152 33.157069 
L 259.132967 25.492277 
L 259.406421 25.492277 
L 259.406421 21.659881 
L 259.672595 21.659881 
L 259.742434 13.995089 
L 261.972362 13.995089 
L 261.972362 10.162693 
L 262.308771 10.162693 
L 262.308771 6.330297 
L 262.308771 6.330297 
L 460.8 6.330297 
L 460.8 6.330297 
" style="fill:none;stroke:#ff0000;stroke-linecap:square;stroke-width:3;"/>
   </g>
   <g id="line2d_22">
    <path clip-path="url(#pdf74e6bfa6)" d="M 232.889227 293.76 
L 232.889227 289.927604 
L 233.918088 289.927604 
L 233.918088 286.095208 
L 234.202129 286.095208 
L 234.202129 282.262812 
L 235.940529 282.262812 
L 235.940529 278.430416 
L 236.073624 278.430416 
L 236.073624 274.59802 
L 236.342211 274.59802 
L 236.342211 270.765624 
L 236.627088 270.765624 
L 236.627088 266.933228 
L 237.736058 266.933228 
L 237.736058 263.100832 
L 238.434375 263.100832 
L 238.434375 259.268436 
L 240.973778 259.268436 
L 240.973778 255.43604 
L 241.122646 255.43604 
L 241.122646 251.603644 
L 241.341379 251.603644 
L 241.341379 247.771248 
L 241.479426 247.771248 
L 241.479426 243.938851 
L 241.718023 243.938851 
L 241.718023 240.106455 
L 242.001631 240.106455 
L 242.066662 228.609267 
L 242.311699 228.609267 
L 242.311699 224.776871 
L 242.672599 224.776871 
L 242.672599 220.944475 
L 242.822096 220.944475 
L 242.822096 217.112079 
L 243.531777 217.112079 
L 243.531777 213.279683 
L 243.69652 213.279683 
L 243.69652 209.447287 
L 244.076485 209.447287 
L 244.076485 205.614891 
L 245.236996 205.614891 
L 245.337565 197.950099 
L 246.510582 197.950099 
L 246.510582 194.117703 
L 246.624014 194.117703 
L 246.68642 186.452911 
L 249.060935 186.452911 
L 249.060935 182.620515 
L 249.309373 182.620515 
L 249.309373 178.788119 
L 249.424451 178.788119 
L 249.424451 174.955723 
L 249.543177 174.955723 
L 249.543177 171.123327 
L 250.503689 171.123327 
L 250.503689 167.290931 
L 250.715331 167.290931 
L 250.715331 163.458535 
L 251.299623 163.458535 
L 251.299623 159.626139 
L 251.672755 159.626139 
L 251.672755 155.793743 
L 252.232603 155.793743 
L 252.33363 144.296554 
L 252.477383 144.296554 
L 252.477383 140.464158 
L 252.592827 140.464158 
L 252.678811 132.799366 
L 253.94478 132.799366 
L 253.94478 128.96697 
L 254.478067 128.96697 
L 254.478067 125.134574 
L 254.854202 125.134574 
L 254.854202 121.302178 
L 255.052312 121.302178 
L 255.052312 117.469782 
L 255.198088 117.469782 
L 255.198088 113.637386 
L 255.421426 113.637386 
L 255.449999 105.972594 
L 255.873888 105.972594 
L 255.873888 102.140198 
L 256.823703 102.140198 
L 256.823703 98.307802 
L 257.771867 98.307802 
L 257.771867 94.475406 
L 258.980606 94.475406 
L 258.980606 90.64301 
L 259.186674 90.64301 
L 259.186674 86.810614 
L 259.915596 86.810614 
L 259.915596 82.978218 
L 260.408807 82.978218 
L 260.408807 79.145822 
L 260.737174 79.145822 
L 260.806587 67.648634 
L 261.463586 67.648634 
L 261.463586 63.816238 
L 262.517088 63.816238 
L 262.517088 59.983842 
L 265.273559 59.983842 
L 265.273559 56.151446 
L 268.322268 56.151446 
L 268.322268 52.31905 
L 271.244147 52.31905 
L 271.244147 48.486653 
L 271.38304 48.486653 
L 271.38304 44.654257 
L 272.4827 44.654257 
L 272.4827 40.821861 
L 272.830396 40.821861 
L 272.830396 36.989465 
L 273.120382 36.989465 
L 273.120382 33.157069 
L 274.172736 33.157069 
L 274.172736 29.324673 
L 274.706383 29.324673 
L 274.706383 25.492277 
L 276.062516 25.492277 
L 276.062516 21.659881 
L 276.699759 21.659881 
L 276.699759 17.827485 
L 278.195612 17.827485 
L 278.195612 13.995089 
L 279.214422 13.995089 
L 279.214422 10.162693 
L 291.674986 10.162693 
L 291.674986 6.330297 
L 291.674986 6.330297 
L 460.8 6.330297 
L 460.8 6.330297 
" style="fill:none;stroke:#00bfbf;stroke-linecap:square;stroke-width:1.5;"/>
   </g>
   <g id="line2d_23">
    <path clip-path="url(#pdf74e6bfa6)" d="M 231.25103 293.76 
L 231.25103 289.927604 
L 231.766539 289.927604 
L 231.766539 286.095208 
L 232.18432 286.095208 
L 232.18432 282.262812 
L 232.41409 282.262812 
L 232.41409 278.430416 
L 232.889227 278.430416 
L 232.889227 274.59802 
L 234.928446 274.59802 
L 234.928446 270.765624 
L 235.897525 270.765624 
L 235.940529 263.100832 
L 236.073624 263.100832 
L 236.073624 259.268436 
L 236.436405 259.268436 
L 236.436405 255.43604 
L 236.611863 255.43604 
L 236.681196 243.938851 
L 236.856415 243.938851 
L 236.856415 240.106455 
L 237.041986 240.106455 
L 237.041986 236.274059 
L 237.736058 236.274059 
L 237.736058 232.441663 
L 238.310905 232.441663 
L 238.310905 228.609267 
L 240.282697 228.609267 
L 240.282697 224.776871 
L 240.973778 224.776871 
L 241.067425 209.447287 
L 241.231216 209.447287 
L 241.231216 205.614891 
L 241.479426 205.614891 
L 241.479426 201.782495 
L 241.718023 201.782495 
L 241.718023 197.950099 
L 242.001631 197.950099 
L 242.066662 186.452911 
L 242.227971 186.452911 
L 242.311699 178.788119 
L 242.448281 178.788119 
L 242.448281 174.955723 
L 243.249115 174.955723 
L 243.249115 171.123327 
L 243.37559 171.123327 
L 243.37559 167.290931 
L 243.676158 167.290931 
L 243.676158 163.458535 
L 244.775003 163.458535 
L 244.775003 159.626139 
L 245.976962 159.626139 
L 245.976962 155.793743 
L 246.300174 155.793743 
L 246.300174 151.961347 
L 246.510582 151.961347 
L 246.510582 148.12895 
L 246.624014 148.12895 
L 246.68642 140.464158 
L 247.42722 140.464158 
L 247.42722 136.631762 
L 249.060935 136.631762 
L 249.060935 132.799366 
L 249.303038 132.799366 
L 249.303038 128.96697 
L 249.424451 128.96697 
L 249.424451 125.134574 
L 250.195918 125.134574 
L 250.195918 121.302178 
L 250.503689 121.302178 
L 250.503689 117.469782 
L 250.715331 117.469782 
L 250.797211 109.80499 
L 251.672755 109.80499 
L 251.672755 105.972594 
L 252.16878 105.972594 
L 252.25164 98.307802 
L 252.292954 98.307802 
L 252.33363 90.64301 
L 253.908199 90.64301 
L 253.955187 82.978218 
L 254.70672 82.978218 
L 254.70672 79.145822 
L 255.120854 79.145822 
L 255.120854 75.313426 
L 255.421426 75.313426 
L 255.421426 71.48103 
L 256.949248 71.48103 
L 256.949248 67.648634 
L 258.980606 67.648634 
L 258.980606 63.816238 
L 259.105152 63.816238 
L 259.105152 59.983842 
L 260.408807 59.983842 
L 260.408807 56.151446 
L 260.806587 56.151446 
L 260.806587 52.31905 
L 262.517088 52.31905 
L 262.517088 48.486653 
L 263.727651 48.486653 
L 263.727651 44.654257 
L 264.112168 44.654257 
L 264.112168 40.821861 
L 264.471459 40.821861 
L 264.471459 36.989465 
L 264.921759 36.989465 
L 264.921759 33.157069 
L 271.19751 33.157069 
L 271.244147 25.492277 
L 271.31993 25.492277 
L 271.38304 17.827485 
L 272.4827 17.827485 
L 272.4827 13.995089 
L 272.830396 13.995089 
L 272.830396 10.162693 
L 273.120382 10.162693 
L 273.120382 6.330297 
L 273.120382 6.330297 
L 460.8 6.330297 
L 460.8 6.330297 
" style="fill:none;stroke:#bf00bf;stroke-linecap:square;stroke-width:1.5;"/>
   </g>
   <g id="line2d_24">
    <path clip-path="url(#pdf74e6bfa6)" d="M 221.801369 293.76 
L 221.801369 289.927604 
L 228.039868 289.927604 
L 228.039868 286.095208 
L 228.32786 286.095208 
L 228.32786 282.262812 
L 230.213108 282.262812 
L 230.213108 278.430416 
L 230.467214 278.430416 
L 230.467214 274.59802 
L 231.25103 274.59802 
L 231.25103 270.765624 
L 231.642894 270.765624 
L 231.642894 266.933228 
L 232.09943 266.933228 
L 232.18432 259.268436 
L 233.066654 259.268436 
L 233.066654 255.43604 
L 233.949086 255.43604 
L 233.949086 251.603644 
L 234.367133 251.603644 
L 234.467931 243.938851 
L 234.928446 243.938851 
L 234.928446 240.106455 
L 235.158314 240.106455 
L 235.158314 236.274059 
L 235.402574 236.274059 
L 235.402574 232.441663 
L 235.79912 232.441663 
L 235.79912 228.609267 
L 235.940529 228.609267 
L 235.940529 224.776871 
L 236.073624 224.776871 
L 236.073624 220.944475 
L 236.264063 220.944475 
L 236.264063 217.112079 
L 236.436405 217.112079 
L 236.436405 213.279683 
L 236.681196 213.279683 
L 236.681196 209.447287 
L 237.041986 209.447287 
L 237.041986 205.614891 
L 237.155493 205.614891 
L 237.155493 201.782495 
L 237.783388 201.782495 
L 237.824367 194.117703 
L 238.156599 194.117703 
L 238.156599 190.285307 
L 239.777952 190.285307 
L 239.777952 186.452911 
L 240.282697 186.452911 
L 240.33825 178.788119 
L 240.428238 178.788119 
L 240.428238 174.955723 
L 240.592729 174.955723 
L 240.635512 163.458535 
L 241.027089 163.458535 
L 241.027089 159.626139 
L 241.231216 159.626139 
L 241.231216 155.793743 
L 241.465732 155.793743 
L 241.465732 151.961347 
L 242.017731 151.961347 
L 242.017731 148.12895 
L 243.003544 148.12895 
L 243.028167 140.464158 
L 243.370342 140.464158 
L 243.37559 132.799366 
L 243.610946 132.799366 
L 243.610946 128.96697 
L 243.899394 128.96697 
L 243.899394 125.134574 
L 244.833467 125.134574 
L 244.833467 121.302178 
L 246.088308 121.302178 
L 246.088308 117.469782 
L 246.300174 117.469782 
L 246.348957 109.80499 
L 246.598843 109.80499 
L 246.624014 102.140198 
L 246.929737 102.140198 
L 246.929737 98.307802 
L 248.337976 98.307802 
L 248.337976 94.475406 
L 248.470975 94.475406 
L 248.490749 86.810614 
L 248.860383 86.810614 
L 248.860383 82.978218 
L 249.424451 82.978218 
L 249.424451 79.145822 
L 249.662127 79.145822 
L 249.755739 71.48103 
L 250.375003 71.48103 
L 250.375003 67.648634 
L 251.204154 67.648634 
L 251.204154 63.816238 
L 252.292954 63.816238 
L 252.292954 59.983842 
L 256.818523 59.983842 
L 256.818523 56.151446 
L 259.105152 56.151446 
L 259.132967 48.486653 
L 259.406421 48.486653 
L 259.406421 44.654257 
L 259.693759 44.654257 
L 259.693759 40.821861 
L 261.972362 40.821861 
L 261.972362 36.989465 
L 262.163549 36.989465 
L 262.163549 33.157069 
L 263.727651 33.157069 
L 263.727651 29.324673 
L 264.921759 29.324673 
L 264.921759 25.492277 
L 265.419088 25.492277 
L 265.419088 21.659881 
L 268.533471 21.659881 
L 268.60192 13.995089 
L 269.628929 13.995089 
L 269.628929 10.162693 
L 271.38304 10.162693 
L 271.38304 6.330297 
L 271.38304 6.330297 
L 460.8 6.330297 
L 460.8 6.330297 
" style="fill:none;stroke:#000000;stroke-linecap:square;stroke-width:1.5;"/>
   </g>
   <g id="line2d_25">
    <path clip-path="url(#pdf74e6bfa6)" d="M 219.399197 293.76 
L 219.399197 289.927604 
L 221.234994 289.927604 
L 221.234994 286.095208 
L 221.801369 286.095208 
L 221.801369 282.262812 
L 222.88816 282.262812 
L 222.88816 278.430416 
L 224.412789 278.430416 
L 224.412789 274.59802 
L 225.820622 274.59802 
L 225.820622 270.765624 
L 226.378954 270.765624 
L 226.378954 266.933228 
L 226.65541 266.933228 
L 226.65541 263.100832 
L 226.900869 263.100832 
L 226.919201 255.43604 
L 227.697816 255.43604 
L 227.697816 251.603644 
L 228.005979 251.603644 
L 228.039868 243.938851 
L 228.32786 243.938851 
L 228.32786 240.106455 
L 228.841716 240.106455 
L 228.841716 236.274059 
L 229.793634 236.274059 
L 229.793634 232.441663 
L 230.467214 232.441663 
L 230.467214 228.609267 
L 231.25103 228.609267 
L 231.25103 224.776871 
L 231.642894 224.776871 
L 231.648103 217.112079 
L 231.786795 217.112079 
L 231.816819 209.447287 
L 231.993059 209.447287 
L 232.09943 197.950099 
L 232.18432 197.950099 
L 232.271941 190.285307 
L 232.903436 190.285307 
L 232.903436 186.452911 
L 233.222273 186.452911 
L 233.222273 182.620515 
L 233.554459 182.620515 
L 233.554459 178.788119 
L 234.554878 178.788119 
L 234.554878 174.955723 
L 235.10301 174.955723 
L 235.210118 163.458535 
L 235.664966 163.458535 
L 235.664966 159.626139 
L 236.226692 159.626139 
L 236.234096 151.961347 
L 236.436405 151.961347 
L 236.474461 144.296554 
L 238.664423 144.296554 
L 238.694108 136.631762 
L 238.881832 136.631762 
L 238.881832 132.799366 
L 241.027089 132.799366 
L 241.027089 128.96697 
L 241.231216 128.96697 
L 241.231216 125.134574 
L 242.017731 125.134574 
L 242.017731 121.302178 
L 242.136106 121.302178 
L 242.136106 117.469782 
L 242.967865 117.469782 
L 243.073937 109.80499 
L 243.370342 109.80499 
L 243.370342 105.972594 
L 243.7565 105.972594 
L 243.7565 102.140198 
L 244.505188 102.140198 
L 244.505188 98.307802 
L 245.077397 98.307802 
L 245.077397 94.475406 
L 245.511869 94.475406 
L 245.511869 90.64301 
L 246.300174 90.64301 
L 246.300174 86.810614 
L 246.624014 86.810614 
L 246.707365 79.145822 
L 246.929737 79.145822 
L 246.929737 75.313426 
L 248.490749 75.313426 
L 248.490749 71.48103 
L 248.860383 71.48103 
L 248.860383 67.648634 
L 249.424451 67.648634 
L 249.424451 63.816238 
L 249.885295 63.816238 
L 249.885295 59.983842 
L 251.772278 59.983842 
L 251.772278 56.151446 
L 254.365164 56.151446 
L 254.365164 52.31905 
L 256.040927 52.31905 
L 256.040927 48.486653 
L 257.4602 48.486653 
L 257.4602 44.654257 
L 257.947365 44.654257 
L 257.947365 40.821861 
L 259.105152 40.821861 
L 259.132967 33.157069 
L 259.406421 33.157069 
L 259.406421 29.324673 
L 259.564313 29.324673 
L 259.672595 21.659881 
L 260.235467 21.659881 
L 260.235467 17.827485 
L 261.633366 17.827485 
L 261.633366 13.995089 
L 261.972362 13.995089 
L 261.972362 10.162693 
L 262.308771 10.162693 
L 262.308771 6.330297 
L 262.308771 6.330297 
L 460.8 6.330297 
L 460.8 6.330297 
" style="fill:none;stroke:#00bfbf;stroke-linecap:square;stroke-width:1.5;"/>
   </g>
   <g id="line2d_26">
    <path clip-path="url(#pdf74e6bfa6)" d="M 219.399197 293.76 
L 219.399197 289.927604 
L 221.234994 289.927604 
L 221.234994 286.095208 
L 221.801369 286.095208 
L 221.801369 282.262812 
L 222.502054 282.262812 
L 222.502054 278.430416 
L 222.869811 278.430416 
L 222.88816 270.765624 
L 223.85739 270.765624 
L 223.85739 266.933228 
L 224.412789 266.933228 
L 224.412789 263.100832 
L 225.540592 263.100832 
L 225.540592 259.268436 
L 225.71443 259.268436 
L 225.820622 251.603644 
L 225.827372 251.603644 
L 225.827372 247.771248 
L 226.378954 247.771248 
L 226.378954 243.938851 
L 226.65541 243.938851 
L 226.65541 240.106455 
L 226.900869 240.106455 
L 226.919201 232.441663 
L 227.651245 232.441663 
L 227.687436 224.776871 
L 227.823348 224.776871 
L 227.823348 220.944475 
L 228.039868 220.944475 
L 228.039868 217.112079 
L 228.479459 217.112079 
L 228.479459 213.279683 
L 229.308291 213.279683 
L 229.308291 209.447287 
L 229.472596 209.447287 
L 229.472596 205.614891 
L 229.793634 205.614891 
L 229.793634 201.782495 
L 230.064243 201.782495 
L 230.064243 197.950099 
L 230.467214 197.950099 
L 230.562795 190.285307 
L 231.25103 190.285307 
L 231.25103 186.452911 
L 231.786795 186.452911 
L 231.786795 182.620515 
L 232.01267 182.620515 
L 232.01267 178.788119 
L 232.271941 178.788119 
L 232.271941 174.955723 
L 232.903436 174.955723 
L 232.903436 171.123327 
L 233.222273 171.123327 
L 233.258289 163.458535 
L 233.554459 163.458535 
L 233.554459 159.626139 
L 234.11374 159.626139 
L 234.11374 155.793743 
L 234.554878 155.793743 
L 234.554878 151.961347 
L 235.10301 151.961347 
L 235.210118 140.464158 
L 235.56676 140.464158 
L 235.56676 136.631762 
L 236.226692 136.631762 
L 236.226692 132.799366 
L 237.969801 132.799366 
L 237.969801 128.96697 
L 238.664423 128.96697 
L 238.664423 125.134574 
L 238.881832 125.134574 
L 238.881832 121.302178 
L 239.188687 121.302178 
L 239.188687 117.469782 
L 241.027089 117.469782 
L 241.027089 113.637386 
L 242.456834 113.637386 
L 242.523408 105.972594 
L 243.073937 105.972594 
L 243.088654 98.307802 
L 243.338344 98.307802 
L 243.370342 90.64301 
L 243.57812 90.64301 
L 243.57812 86.810614 
L 244.582103 86.810614 
L 244.582103 82.978218 
L 245.511869 82.978218 
L 245.511869 79.145822 
L 246.300174 79.145822 
L 246.300174 75.313426 
L 246.624014 75.313426 
L 246.624014 71.48103 
L 246.929737 71.48103 
L 246.929737 67.648634 
L 247.250052 67.648634 
L 247.250052 63.816238 
L 249.424451 63.816238 
L 249.424451 59.983842 
L 251.772278 59.983842 
L 251.772278 56.151446 
L 254.06233 56.151446 
L 254.06233 52.31905 
L 254.365164 52.31905 
L 254.365164 48.486653 
L 257.367107 48.486653 
L 257.367107 44.654257 
L 257.947365 44.654257 
L 257.947365 40.821861 
L 258.404599 40.821861 
L 258.404599 36.989465 
L 259.105152 36.989465 
L 259.132967 29.324673 
L 259.406421 29.324673 
L 259.406421 25.492277 
L 259.564313 25.492277 
L 259.672595 17.827485 
L 259.742434 17.827485 
L 259.742434 13.995089 
L 261.972362 13.995089 
L 261.972362 10.162693 
L 262.308771 10.162693 
L 262.308771 6.330297 
L 262.308771 6.330297 
L 460.8 6.330297 
L 460.8 6.330297 
" style="fill:none;stroke:#bf00bf;stroke-linecap:square;stroke-width:1.5;"/>
   </g>
   <g id="patch_3">
    <path d="M 0 293.76 
L 0 3.456 
" style="fill:none;stroke:#000000;stroke-linecap:square;stroke-linejoin:miter;stroke-width:0.8;"/>
   </g>
   <g id="patch_4">
    <path d="M 460.8 293.76 
L 460.8 3.456 
" style="fill:none;stroke:#000000;stroke-linecap:square;stroke-linejoin:miter;stroke-width:0.8;"/>
   </g>
   <g id="patch_5">
    <path d="M 0 293.76 
L 460.8 293.76 
" style="fill:none;stroke:#000000;stroke-linecap:square;stroke-linejoin:miter;stroke-width:0.8;"/>
   </g>
   <g id="patch_6">
    <path d="M 0 3.456 
L 460.8 3.456 
" style="fill:none;stroke:#000000;stroke-linecap:square;stroke-linejoin:miter;stroke-width:0.8;"/>
   </g>
   <g id="text_6">
    <!-- {f15-f19}, 5-D -->
    <defs>
     <path d="M 51.125 -9.28125 
L 51.125 -16.3125 
L 48.09375 -16.3125 
Q 35.9375 -16.3125 31.8125 -12.6875 
Q 27.6875 -9.078125 27.6875 1.703125 
L 27.6875 13.375 
Q 27.6875 20.75 25.046875 23.578125 
Q 22.40625 26.421875 15.484375 26.421875 
L 12.5 26.421875 
L 12.5 33.40625 
L 15.484375 33.40625 
Q 22.46875 33.40625 25.078125 36.203125 
Q 27.6875 39.015625 27.6875 46.296875 
L 27.6875 58.015625 
Q 27.6875 68.796875 31.8125 72.390625 
Q 35.9375 75.984375 48.09375 75.984375 
L 51.125 75.984375 
L 51.125 69 
L 47.796875 69 
Q 40.921875 69 38.8125 66.84375 
Q 36.71875 64.703125 36.71875 57.8125 
L 36.71875 45.703125 
Q 36.71875 38.03125 34.5 34.5625 
Q 32.28125 31.109375 26.90625 29.890625 
Q 32.328125 28.5625 34.515625 25.09375 
Q 36.71875 21.625 36.71875 14.015625 
L 36.71875 1.90625 
Q 36.71875 -4.984375 38.8125 -7.125 
Q 40.921875 -9.28125 47.796875 -9.28125 
z
" id="DejaVuSans-123"/>
     <path d="M 10.796875 72.90625 
L 49.515625 72.90625 
L 49.515625 64.59375 
L 19.828125 64.59375 
L 19.828125 46.734375 
Q 21.96875 47.46875 24.109375 47.828125 
Q 26.265625 48.1875 28.421875 48.1875 
Q 40.625 48.1875 47.75 41.5 
Q 54.890625 34.8125 54.890625 23.390625 
Q 54.890625 11.625 47.5625 5.09375 
Q 40.234375 -1.421875 26.90625 -1.421875 
Q 22.3125 -1.421875 17.546875 -0.640625 
Q 12.796875 0.140625 7.71875 1.703125 
L 7.71875 11.625 
Q 12.109375 9.234375 16.796875 8.0625 
Q 21.484375 6.890625 26.703125 6.890625 
Q 35.15625 6.890625 40.078125 11.328125 
Q 45.015625 15.765625 45.015625 23.390625 
Q 45.015625 31 40.078125 35.4375 
Q 35.15625 39.890625 26.703125 39.890625 
Q 22.75 39.890625 18.8125 39.015625 
Q 14.890625 38.140625 10.796875 36.28125 
z
" id="DejaVuSans-53"/>
     <path d="M 10.984375 1.515625 
L 10.984375 10.5 
Q 14.703125 8.734375 18.5 7.8125 
Q 22.3125 6.890625 25.984375 6.890625 
Q 35.75 6.890625 40.890625 13.453125 
Q 46.046875 20.015625 46.78125 33.40625 
Q 43.953125 29.203125 39.59375 26.953125 
Q 35.25 24.703125 29.984375 24.703125 
Q 19.046875 24.703125 12.671875 31.3125 
Q 6.296875 37.9375 6.296875 49.421875 
Q 6.296875 60.640625 12.9375 67.421875 
Q 19.578125 74.21875 30.609375 74.21875 
Q 43.265625 74.21875 49.921875 64.515625 
Q 56.59375 54.828125 56.59375 36.375 
Q 56.59375 19.140625 48.40625 8.859375 
Q 40.234375 -1.421875 26.421875 -1.421875 
Q 22.703125 -1.421875 18.890625 -0.6875 
Q 15.09375 0.046875 10.984375 1.515625 
z
M 30.609375 32.421875 
Q 37.25 32.421875 41.125 36.953125 
Q 45.015625 41.5 45.015625 49.421875 
Q 45.015625 57.28125 41.125 61.84375 
Q 37.25 66.40625 30.609375 66.40625 
Q 23.96875 66.40625 20.09375 61.84375 
Q 16.21875 57.28125 16.21875 49.421875 
Q 16.21875 41.5 20.09375 36.953125 
Q 23.96875 32.421875 30.609375 32.421875 
z
" id="DejaVuSans-57"/>
     <path d="M 12.5 -9.28125 
L 15.921875 -9.28125 
Q 22.75 -9.28125 24.828125 -7.171875 
Q 26.90625 -5.078125 26.90625 1.90625 
L 26.90625 14.015625 
Q 26.90625 21.625 29.09375 25.09375 
Q 31.296875 28.5625 36.71875 29.890625 
Q 31.296875 31.109375 29.09375 34.5625 
Q 26.90625 38.03125 26.90625 45.703125 
L 26.90625 57.8125 
Q 26.90625 64.75 24.828125 66.875 
Q 22.75 69 15.921875 69 
L 12.5 69 
L 12.5 75.984375 
L 15.578125 75.984375 
Q 27.734375 75.984375 31.8125 72.390625 
Q 35.890625 68.796875 35.890625 58.015625 
L 35.890625 46.296875 
Q 35.890625 39.015625 38.515625 36.203125 
Q 41.15625 33.40625 48.09375 33.40625 
L 51.125 33.40625 
L 51.125 26.421875 
L 48.09375 26.421875 
Q 41.15625 26.421875 38.515625 23.578125 
Q 35.890625 20.75 35.890625 13.375 
L 35.890625 1.703125 
Q 35.890625 -9.078125 31.8125 -12.6875 
Q 27.734375 -16.3125 15.578125 -16.3125 
L 12.5 -16.3125 
z
" id="DejaVuSans-125"/>
     <path d="M 11.71875 12.40625 
L 22.015625 12.40625 
L 22.015625 4 
L 14.015625 -11.625 
L 7.71875 -11.625 
L 11.71875 4 
z
" id="DejaVuSans-44"/>
    </defs>
    <g transform="translate(305.884 287.95392)scale(0.2 -0.2)">
     <use xlink:href="#DejaVuSans-123"/>
     <use x="63.623047" xlink:href="#DejaVuSans-102"/>
     <use x="98.828125" xlink:href="#DejaVuSans-49"/>
     <use x="162.451172" xlink:href="#DejaVuSans-53"/>
     <use x="226.074219" xlink:href="#DejaVuSans-45"/>
     <use x="262.158203" xlink:href="#DejaVuSans-102"/>
     <use x="297.363281" xlink:href="#DejaVuSans-49"/>
     <use x="360.986328" xlink:href="#DejaVuSans-57"/>
     <use x="424.609375" xlink:href="#DejaVuSans-125"/>
     <use x="488.232422" xlink:href="#DejaVuSans-44"/>
     <use x="520.019531" xlink:href="#DejaVuSans-32"/>
     <use x="551.806641" xlink:href="#DejaVuSans-53"/>
     <use x="615.429688" xlink:href="#DejaVuSans-45"/>
     <use x="651.513672" xlink:href="#DejaVuSans-68"/>
    </g>
   </g>
   <g id="text_7">
    <!-- v2.4 -->
    <defs>
     <path d="M 2.984375 54.6875 
L 12.5 54.6875 
L 29.59375 8.796875 
L 46.6875 54.6875 
L 56.203125 54.6875 
L 35.6875 0 
L 23.484375 0 
z
" id="DejaVuSans-118"/>
     <path d="M 19.1875 8.296875 
L 53.609375 8.296875 
L 53.609375 0 
L 7.328125 0 
L 7.328125 8.296875 
Q 12.9375 14.109375 22.625 23.890625 
Q 32.328125 33.6875 34.8125 36.53125 
Q 39.546875 41.84375 41.421875 45.53125 
Q 43.3125 49.21875 43.3125 52.78125 
Q 43.3125 58.59375 39.234375 62.25 
Q 35.15625 65.921875 28.609375 65.921875 
Q 23.96875 65.921875 18.8125 64.3125 
Q 13.671875 62.703125 7.8125 59.421875 
L 7.8125 69.390625 
Q 13.765625 71.78125 18.9375 73 
Q 24.125 74.21875 28.421875 74.21875 
Q 39.75 74.21875 46.484375 68.546875 
Q 53.21875 62.890625 53.21875 53.421875 
Q 53.21875 48.921875 51.53125 44.890625 
Q 49.859375 40.875 45.40625 35.40625 
Q 44.1875 33.984375 37.640625 27.21875 
Q 31.109375 20.453125 19.1875 8.296875 
z
" id="DejaVuSans-50"/>
     <path d="M 10.6875 12.40625 
L 21 12.40625 
L 21 0 
L 10.6875 0 
z
" id="DejaVuSans-46"/>
    </defs>
    <g style="fill:#808080;" transform="translate(219.489063 288.777272)scale(0.1 -0.1)">
     <use xlink:href="#DejaVuSans-118"/>
     <use x="59.179688" xlink:href="#DejaVuSans-50"/>
     <use x="122.802734" xlink:href="#DejaVuSans-46"/>
     <use x="154.589844" xlink:href="#DejaVuSans-52"/>
    </g>
   </g>
  </g>
 </g>
 <defs>
  <clipPath id="pdf74e6bfa6">
   <rect height="290.304" width="460.8" x="0" y="3.456"/>
  </clipPath>
 </defs>
</svg>
