<?xml version="1.0" encoding="utf-8" standalone="no"?>
<!DOCTYPE svg PUBLIC "-//W3C//DTD SVG 1.1//EN"
  "http://www.w3.org/Graphics/SVG/1.1/DTD/svg11.dtd">
<!-- Created with matplotlib (https://matplotlib.org/) -->
<svg height="345.6pt" version="1.1" viewBox="0 0 460.8 345.6" width="460.8pt" xmlns="http://www.w3.org/2000/svg" xmlns:xlink="http://www.w3.org/1999/xlink">
 <defs>
  <style type="text/css">
*{stroke-linecap:butt;stroke-linejoin:round;}
  </style>
 </defs>
 <g id="figure_1">
  <g id="patch_1">
   <path d="M 0 345.6 
L 460.8 345.6 
L 460.8 0 
L 0 0 
z
" style="fill:#ffffff;"/>
  </g>
  <g id="axes_1">
   <g id="patch_2">
    <path d="M 0 293.76 
L 460.8 293.76 
L 460.8 3.456 
L 0 3.456 
z
" style="fill:#ffffff;"/>
   </g>
   <g id="matplotlib.axis_1">
    <g id="xtick_1">
     <g id="line2d_1">
      <path clip-path="url(#p9bd490eb82)" d="M 104.034439 293.76 
L 104.034439 3.456 
" style="fill:none;stroke:#b0b0b0;stroke-linecap:square;stroke-width:0.8;"/>
     </g>
     <g id="line2d_2">
      <defs>
       <path d="M 0 0 
L 0 3.5 
" id="m0e7337f90a" style="stroke:#000000;stroke-width:0.8;"/>
      </defs>
      <g>
       <use style="stroke:#000000;stroke-width:0.8;" x="104.034439" xlink:href="#m0e7337f90a" y="293.76"/>
      </g>
     </g>
     <g id="text_1">
      <!-- -4 -->
      <defs>
       <path d="M 4.890625 31.390625 
L 31.203125 31.390625 
L 31.203125 23.390625 
L 4.890625 23.390625 
z
" id="DejaVuSans-45"/>
       <path d="M 37.796875 64.3125 
L 12.890625 25.390625 
L 37.796875 25.390625 
z
M 35.203125 72.90625 
L 47.609375 72.90625 
L 47.609375 25.390625 
L 58.015625 25.390625 
L 58.015625 17.1875 
L 47.609375 17.1875 
L 47.609375 0 
L 37.796875 0 
L 37.796875 17.1875 
L 4.890625 17.1875 
L 4.890625 26.703125 
z
" id="DejaVuSans-52"/>
      </defs>
      <g transform="translate(94.064127 315.956875)scale(0.2 -0.2)">
       <use xlink:href="#DejaVuSans-45"/>
       <use x="36.083984" xlink:href="#DejaVuSans-52"/>
      </g>
     </g>
    </g>
    <g id="xtick_2">
     <g id="line2d_3">
      <path clip-path="url(#p9bd490eb82)" d="M 208.181393 293.76 
L 208.181393 3.456 
" style="fill:none;stroke:#b0b0b0;stroke-linecap:square;stroke-width:0.8;"/>
     </g>
     <g id="line2d_4">
      <g>
       <use style="stroke:#000000;stroke-width:0.8;" x="208.181393" xlink:href="#m0e7337f90a" y="293.76"/>
      </g>
     </g>
     <g id="text_2">
      <!-- 0 -->
      <defs>
       <path d="M 31.78125 66.40625 
Q 24.171875 66.40625 20.328125 58.90625 
Q 16.5 51.421875 16.5 36.375 
Q 16.5 21.390625 20.328125 13.890625 
Q 24.171875 6.390625 31.78125 6.390625 
Q 39.453125 6.390625 43.28125 13.890625 
Q 47.125 21.390625 47.125 36.375 
Q 47.125 51.421875 43.28125 58.90625 
Q 39.453125 66.40625 31.78125 66.40625 
z
M 31.78125 74.21875 
Q 44.046875 74.21875 50.515625 64.515625 
Q 56.984375 54.828125 56.984375 36.375 
Q 56.984375 17.96875 50.515625 8.265625 
Q 44.046875 -1.421875 31.78125 -1.421875 
Q 19.53125 -1.421875 13.0625 8.265625 
Q 6.59375 17.96875 6.59375 36.375 
Q 6.59375 54.828125 13.0625 64.515625 
Q 19.53125 74.21875 31.78125 74.21875 
z
" id="DejaVuSans-48"/>
      </defs>
      <g transform="translate(201.818893 315.956875)scale(0.2 -0.2)">
       <use xlink:href="#DejaVuSans-48"/>
      </g>
     </g>
    </g>
    <g id="xtick_3">
     <g id="line2d_5">
      <path clip-path="url(#p9bd490eb82)" d="M 312.328346 293.76 
L 312.328346 3.456 
" style="fill:none;stroke:#b0b0b0;stroke-linecap:square;stroke-width:0.8;"/>
     </g>
     <g id="line2d_6">
      <g>
       <use style="stroke:#000000;stroke-width:0.8;" x="312.328346" xlink:href="#m0e7337f90a" y="293.76"/>
      </g>
     </g>
     <g id="text_3">
      <!-- 4 -->
      <g transform="translate(305.965846 315.956875)scale(0.2 -0.2)">
       <use xlink:href="#DejaVuSans-52"/>
      </g>
     </g>
    </g>
    <g id="xtick_4">
     <g id="line2d_7">
      <path clip-path="url(#p9bd490eb82)" d="M 416.4753 293.76 
L 416.4753 3.456 
" style="fill:none;stroke:#b0b0b0;stroke-linecap:square;stroke-width:0.8;"/>
     </g>
     <g id="line2d_8">
      <g>
       <use style="stroke:#000000;stroke-width:0.8;" x="416.4753" xlink:href="#m0e7337f90a" y="293.76"/>
      </g>
     </g>
     <g id="text_4">
      <!-- 8 -->
      <defs>
       <path d="M 31.78125 34.625 
Q 24.75 34.625 20.71875 30.859375 
Q 16.703125 27.09375 16.703125 20.515625 
Q 16.703125 13.921875 20.71875 10.15625 
Q 24.75 6.390625 31.78125 6.390625 
Q 38.8125 6.390625 42.859375 10.171875 
Q 46.921875 13.96875 46.921875 20.515625 
Q 46.921875 27.09375 42.890625 30.859375 
Q 38.875 34.625 31.78125 34.625 
z
M 21.921875 38.8125 
Q 15.578125 40.375 12.03125 44.71875 
Q 8.5 49.078125 8.5 55.328125 
Q 8.5 64.0625 14.71875 69.140625 
Q 20.953125 74.21875 31.78125 74.21875 
Q 42.671875 74.21875 48.875 69.140625 
Q 55.078125 64.0625 55.078125 55.328125 
Q 55.078125 49.078125 51.53125 44.71875 
Q 48 40.375 41.703125 38.8125 
Q 48.828125 37.15625 52.796875 32.3125 
Q 56.78125 27.484375 56.78125 20.515625 
Q 56.78125 9.90625 50.3125 4.234375 
Q 43.84375 -1.421875 31.78125 -1.421875 
Q 19.734375 -1.421875 13.25 4.234375 
Q 6.78125 9.90625 6.78125 20.515625 
Q 6.78125 27.484375 10.78125 32.3125 
Q 14.796875 37.15625 21.921875 38.8125 
z
M 18.3125 54.390625 
Q 18.3125 48.734375 21.84375 45.5625 
Q 25.390625 42.390625 31.78125 42.390625 
Q 38.140625 42.390625 41.71875 45.5625 
Q 45.3125 48.734375 45.3125 54.390625 
Q 45.3125 60.0625 41.71875 63.234375 
Q 38.140625 66.40625 31.78125 66.40625 
Q 25.390625 66.40625 21.84375 63.234375 
Q 18.3125 60.0625 18.3125 54.390625 
z
" id="DejaVuSans-56"/>
      </defs>
      <g transform="translate(410.1128 315.956875)scale(0.2 -0.2)">
       <use xlink:href="#DejaVuSans-56"/>
      </g>
     </g>
    </g>
    <g id="text_5">
     <!-- log10 of Df -->
     <defs>
      <path d="M 9.421875 75.984375 
L 18.40625 75.984375 
L 18.40625 0 
L 9.421875 0 
z
" id="DejaVuSans-108"/>
      <path d="M 30.609375 48.390625 
Q 23.390625 48.390625 19.1875 42.75 
Q 14.984375 37.109375 14.984375 27.296875 
Q 14.984375 17.484375 19.15625 11.84375 
Q 23.34375 6.203125 30.609375 6.203125 
Q 37.796875 6.203125 41.984375 11.859375 
Q 46.1875 17.53125 46.1875 27.296875 
Q 46.1875 37.015625 41.984375 42.703125 
Q 37.796875 48.390625 30.609375 48.390625 
z
M 30.609375 56 
Q 42.328125 56 49.015625 48.375 
Q 55.71875 40.765625 55.71875 27.296875 
Q 55.71875 13.875 49.015625 6.21875 
Q 42.328125 -1.421875 30.609375 -1.421875 
Q 18.84375 -1.421875 12.171875 6.21875 
Q 5.515625 13.875 5.515625 27.296875 
Q 5.515625 40.765625 12.171875 48.375 
Q 18.84375 56 30.609375 56 
z
" id="DejaVuSans-111"/>
      <path d="M 45.40625 27.984375 
Q 45.40625 37.75 41.375 43.109375 
Q 37.359375 48.484375 30.078125 48.484375 
Q 22.859375 48.484375 18.828125 43.109375 
Q 14.796875 37.75 14.796875 27.984375 
Q 14.796875 18.265625 18.828125 12.890625 
Q 22.859375 7.515625 30.078125 7.515625 
Q 37.359375 7.515625 41.375 12.890625 
Q 45.40625 18.265625 45.40625 27.984375 
z
M 54.390625 6.78125 
Q 54.390625 -7.171875 48.1875 -13.984375 
Q 42 -20.796875 29.203125 -20.796875 
Q 24.46875 -20.796875 20.265625 -20.09375 
Q 16.0625 -19.390625 12.109375 -17.921875 
L 12.109375 -9.1875 
Q 16.0625 -11.328125 19.921875 -12.34375 
Q 23.78125 -13.375 27.78125 -13.375 
Q 36.625 -13.375 41.015625 -8.765625 
Q 45.40625 -4.15625 45.40625 5.171875 
L 45.40625 9.625 
Q 42.625 4.78125 38.28125 2.390625 
Q 33.9375 0 27.875 0 
Q 17.828125 0 11.671875 7.65625 
Q 5.515625 15.328125 5.515625 27.984375 
Q 5.515625 40.671875 11.671875 48.328125 
Q 17.828125 56 27.875 56 
Q 33.9375 56 38.28125 53.609375 
Q 42.625 51.21875 45.40625 46.390625 
L 45.40625 54.6875 
L 54.390625 54.6875 
z
" id="DejaVuSans-103"/>
      <path d="M 12.40625 8.296875 
L 28.515625 8.296875 
L 28.515625 63.921875 
L 10.984375 60.40625 
L 10.984375 69.390625 
L 28.421875 72.90625 
L 38.28125 72.90625 
L 38.28125 8.296875 
L 54.390625 8.296875 
L 54.390625 0 
L 12.40625 0 
z
" id="DejaVuSans-49"/>
      <path id="DejaVuSans-32"/>
      <path d="M 37.109375 75.984375 
L 37.109375 68.5 
L 28.515625 68.5 
Q 23.6875 68.5 21.796875 66.546875 
Q 19.921875 64.59375 19.921875 59.515625 
L 19.921875 54.6875 
L 34.71875 54.6875 
L 34.71875 47.703125 
L 19.921875 47.703125 
L 19.921875 0 
L 10.890625 0 
L 10.890625 47.703125 
L 2.296875 47.703125 
L 2.296875 54.6875 
L 10.890625 54.6875 
L 10.890625 58.5 
Q 10.890625 67.625 15.140625 71.796875 
Q 19.390625 75.984375 28.609375 75.984375 
z
" id="DejaVuSans-102"/>
      <path d="M 19.671875 64.796875 
L 19.671875 8.109375 
L 31.59375 8.109375 
Q 46.6875 8.109375 53.6875 14.9375 
Q 60.6875 21.78125 60.6875 36.53125 
Q 60.6875 51.171875 53.6875 57.984375 
Q 46.6875 64.796875 31.59375 64.796875 
z
M 9.8125 72.90625 
L 30.078125 72.90625 
Q 51.265625 72.90625 61.171875 64.09375 
Q 71.09375 55.28125 71.09375 36.53125 
Q 71.09375 17.671875 61.125 8.828125 
Q 51.171875 0 30.078125 0 
L 9.8125 0 
z
" id="DejaVuSans-68"/>
     </defs>
     <g transform="translate(175.214063 339.313125)scale(0.2 -0.2)">
      <use xlink:href="#DejaVuSans-108"/>
      <use x="27.783203" xlink:href="#DejaVuSans-111"/>
      <use x="88.964844" xlink:href="#DejaVuSans-103"/>
      <use x="152.441406" xlink:href="#DejaVuSans-49"/>
      <use x="216.064453" xlink:href="#DejaVuSans-48"/>
      <use x="279.6875" xlink:href="#DejaVuSans-32"/>
      <use x="311.474609" xlink:href="#DejaVuSans-111"/>
      <use x="372.65625" xlink:href="#DejaVuSans-102"/>
      <use x="407.861328" xlink:href="#DejaVuSans-32"/>
      <use x="439.648438" xlink:href="#DejaVuSans-68"/>
      <use x="516.650391" xlink:href="#DejaVuSans-102"/>
     </g>
    </g>
   </g>
   <g id="matplotlib.axis_2">
    <g id="ytick_1">
     <g id="line2d_9">
      <path clip-path="url(#p9bd490eb82)" d="M 0 293.76 
L 460.8 293.76 
" style="fill:none;stroke:#b0b0b0;stroke-linecap:square;stroke-width:0.8;"/>
     </g>
     <g id="line2d_10">
      <defs>
       <path d="M 0 0 
L -3.5 0 
" id="m2b9f45ab6a" style="stroke:#000000;stroke-width:0.8;"/>
      </defs>
      <g>
       <use style="stroke:#000000;stroke-width:0.8;" x="0" xlink:href="#m2b9f45ab6a" y="293.76"/>
      </g>
     </g>
    </g>
    <g id="ytick_2">
     <g id="line2d_11">
      <path clip-path="url(#p9bd490eb82)" d="M 0 236.274059 
L 460.8 236.274059 
" style="fill:none;stroke:#b0b0b0;stroke-linecap:square;stroke-width:0.8;"/>
     </g>
     <g id="line2d_12">
      <g>
       <use style="stroke:#000000;stroke-width:0.8;" x="0" xlink:href="#m2b9f45ab6a" y="236.274059"/>
      </g>
     </g>
    </g>
    <g id="ytick_3">
     <g id="line2d_13">
      <path clip-path="url(#p9bd490eb82)" d="M 0 178.788119 
L 460.8 178.788119 
" style="fill:none;stroke:#b0b0b0;stroke-linecap:square;stroke-width:0.8;"/>
     </g>
     <g id="line2d_14">
      <g>
       <use style="stroke:#000000;stroke-width:0.8;" x="0" xlink:href="#m2b9f45ab6a" y="178.788119"/>
      </g>
     </g>
    </g>
    <g id="ytick_4">
     <g id="line2d_15">
      <path clip-path="url(#p9bd490eb82)" d="M 0 121.302178 
L 460.8 121.302178 
" style="fill:none;stroke:#b0b0b0;stroke-linecap:square;stroke-width:0.8;"/>
     </g>
     <g id="line2d_16">
      <g>
       <use style="stroke:#000000;stroke-width:0.8;" x="0" xlink:href="#m2b9f45ab6a" y="121.302178"/>
      </g>
     </g>
    </g>
    <g id="ytick_5">
     <g id="line2d_17">
      <path clip-path="url(#p9bd490eb82)" d="M 0 63.816238 
L 460.8 63.816238 
" style="fill:none;stroke:#b0b0b0;stroke-linecap:square;stroke-width:0.8;"/>
     </g>
     <g id="line2d_18">
      <g>
       <use style="stroke:#000000;stroke-width:0.8;" x="0" xlink:href="#m2b9f45ab6a" y="63.816238"/>
      </g>
     </g>
    </g>
    <g id="ytick_6">
     <g id="line2d_19">
      <path clip-path="url(#p9bd490eb82)" d="M 0 6.330297 
L 460.8 6.330297 
" style="fill:none;stroke:#b0b0b0;stroke-linecap:square;stroke-width:0.8;"/>
     </g>
     <g id="line2d_20">
      <g>
       <use style="stroke:#000000;stroke-width:0.8;" x="0" xlink:href="#m2b9f45ab6a" y="6.330297"/>
      </g>
     </g>
    </g>
   </g>
   <g id="line2d_21">
    <path clip-path="url(#p9bd490eb82)" d="M 207.890149 293.76 
L 207.890149 289.927604 
L 211.419542 289.927604 
L 211.419542 286.095208 
L 212.314167 286.095208 
L 212.314167 282.262812 
L 215.928568 282.262812 
L 215.928568 278.430416 
L 216.777472 278.430416 
L 216.777472 274.59802 
L 217.376527 274.59802 
L 217.376527 270.765624 
L 218.38013 270.765624 
L 218.38013 266.933228 
L 218.829733 266.933228 
L 218.829733 263.100832 
L 219.561097 263.100832 
L 219.561097 259.268436 
L 220.929928 259.268436 
L 220.929928 255.43604 
L 221.120686 255.43604 
L 221.120686 251.603644 
L 221.425728 251.603644 
L 221.425728 247.771248 
L 221.544186 247.771248 
L 221.544186 243.938851 
L 221.892142 243.938851 
L 221.892142 240.106455 
L 222.395033 240.106455 
L 222.395033 236.274059 
L 222.50795 236.274059 
L 222.50795 232.441663 
L 222.640394 232.441663 
L 222.640394 228.609267 
L 224.705437 228.609267 
L 224.70994 220.944475 
L 226.20082 220.944475 
L 226.20082 217.112079 
L 226.41138 217.112079 
L 226.41138 213.279683 
L 231.417527 213.279683 
L 231.417527 209.447287 
L 231.995404 209.447287 
L 231.995404 205.614891 
L 232.178053 205.614891 
L 232.178053 201.782495 
L 232.310691 201.782495 
L 232.310691 197.950099 
L 232.459172 197.950099 
L 232.459172 194.117703 
L 233.198142 194.117703 
L 233.198142 190.285307 
L 233.426104 190.285307 
L 233.494735 182.620515 
L 234.186 182.620515 
L 234.186 178.788119 
L 234.554361 178.788119 
L 234.554361 174.955723 
L 235.583377 174.955723 
L 235.583377 171.123327 
L 235.728217 171.123327 
L 235.728217 167.290931 
L 235.92702 167.290931 
L 235.995157 159.626139 
L 238.01457 159.626139 
L 238.01457 155.793743 
L 240.022947 155.793743 
L 240.022947 151.961347 
L 241.286451 151.961347 
L 241.33685 144.296554 
L 242.537159 144.296554 
L 242.537159 140.464158 
L 242.855548 140.464158 
L 242.855548 136.631762 
L 243.354034 136.631762 
L 243.354034 132.799366 
L 243.601953 132.799366 
L 243.601953 128.96697 
L 244.517271 128.96697 
L 244.517271 125.134574 
L 244.697138 125.134574 
L 244.697138 121.302178 
L 245.065415 121.302178 
L 245.065415 117.469782 
L 246.053267 117.469782 
L 246.053267 113.637386 
L 247.244362 113.637386 
L 247.244362 109.80499 
L 247.499678 109.80499 
L 247.499678 105.972594 
L 247.911626 105.972594 
L 247.911626 102.140198 
L 248.113072 102.140198 
L 248.113072 98.307802 
L 248.357485 98.307802 
L 248.357485 94.475406 
L 250.621225 94.475406 
L 250.621225 90.64301 
L 250.942047 90.64301 
L 250.942047 86.810614 
L 251.320108 86.810614 
L 251.320108 82.978218 
L 251.522337 82.978218 
L 251.522337 79.145822 
L 252.424036 79.145822 
L 252.468671 71.48103 
L 253.735078 71.48103 
L 253.735078 67.648634 
L 254.632241 67.648634 
L 254.632241 63.816238 
L 255.076402 63.816238 
L 255.180774 56.151446 
L 255.566202 56.151446 
L 255.566202 52.31905 
L 255.871012 52.31905 
L 255.871012 48.486653 
L 256.182566 48.486653 
L 256.182566 44.654257 
L 265.289839 44.654257 
L 265.289839 40.821861 
L 268.70806 40.821861 
L 268.70806 36.989465 
L 276.934658 36.989465 
L 276.934658 33.157069 
L 278.015315 33.157069 
L 278.015315 29.324673 
L 278.256345 29.324673 
L 278.256345 25.492277 
L 278.981796 25.492277 
L 278.981796 21.659881 
L 284.417198 21.659881 
L 284.417198 17.827485 
L 291.899055 17.827485 
L 291.899055 13.995089 
L 299.638787 13.995089 
L 299.638787 10.162693 
L 303.844799 10.162693 
L 303.844799 6.330297 
L 303.844799 6.330297 
L 460.8 6.330297 
L 460.8 6.330297 
" style="fill:none;stroke:#ff0000;stroke-linecap:square;stroke-width:3;"/>
   </g>
   <g id="line2d_22">
    <path clip-path="url(#p9bd490eb82)" d="M 227.775536 293.76 
L 227.775536 289.927604 
L 231.842345 289.927604 
L 231.842345 286.095208 
L 233.519101 286.095208 
L 233.519101 282.262812 
L 235.155592 282.262812 
L 235.155592 278.430416 
L 235.61048 278.430416 
L 235.61048 274.59802 
L 237.304653 274.59802 
L 237.304653 270.765624 
L 238.13159 270.765624 
L 238.13159 266.933228 
L 239.043839 266.933228 
L 239.043839 263.100832 
L 240.195053 263.100832 
L 240.195053 259.268436 
L 241.129129 259.268436 
L 241.129129 255.43604 
L 241.457819 255.43604 
L 241.457819 251.603644 
L 241.804054 251.603644 
L 241.804054 247.771248 
L 242.455378 247.771248 
L 242.455378 243.938851 
L 243.452921 243.938851 
L 243.452921 240.106455 
L 243.956683 240.106455 
L 243.956683 236.274059 
L 244.600371 236.274059 
L 244.600371 232.441663 
L 245.139086 232.441663 
L 245.139086 228.609267 
L 245.288405 228.609267 
L 245.288405 224.776871 
L 248.425146 224.776871 
L 248.425146 220.944475 
L 249.341117 220.944475 
L 249.341117 217.112079 
L 250.327802 217.112079 
L 250.327802 213.279683 
L 250.621225 213.279683 
L 250.621225 209.447287 
L 251.261983 209.447287 
L 251.261983 205.614891 
L 252.528513 205.614891 
L 252.528513 201.782495 
L 252.804545 201.782495 
L 252.804545 197.950099 
L 253.735078 197.950099 
L 253.735078 194.117703 
L 254.069407 194.117703 
L 254.101133 186.452911 
L 254.295624 186.452911 
L 254.295624 182.620515 
L 254.777882 182.620515 
L 254.811417 171.123327 
L 255.470337 171.123327 
L 255.470337 167.290931 
L 255.65908 167.290931 
L 255.75377 159.626139 
L 255.829283 159.626139 
L 255.829283 155.793743 
L 256.090651 155.793743 
L 256.141608 144.296554 
L 256.393996 144.296554 
L 256.393996 140.464158 
L 256.662807 140.464158 
L 256.733087 132.799366 
L 257.169357 132.799366 
L 257.280207 121.302178 
L 257.453831 121.302178 
L 257.499334 113.637386 
L 257.958733 113.637386 
L 257.958733 109.80499 
L 259.766781 109.80499 
L 259.766781 105.972594 
L 259.948226 105.972594 
L 259.948226 102.140198 
L 260.321707 102.140198 
L 260.321707 98.307802 
L 260.921424 98.307802 
L 260.921424 94.475406 
L 261.562453 94.475406 
L 261.562453 90.64301 
L 262.745828 90.64301 
L 262.745828 86.810614 
L 263.190016 86.810614 
L 263.26986 79.145822 
L 264.146635 79.145822 
L 264.146635 75.313426 
L 264.426824 75.313426 
L 264.530351 67.648634 
L 265.247148 67.648634 
L 265.247148 63.816238 
L 270.948382 63.816238 
L 270.948382 59.983842 
L 293.916676 59.983842 
L 293.916676 56.151446 
L 295.129995 56.151446 
L 295.129995 52.31905 
L 299.638787 52.31905 
L 299.638787 48.486653 
L 303.844799 48.486653 
L 303.844799 44.654257 
L 312.011332 44.654257 
L 312.011332 40.821861 
L 315.151941 40.821861 
L 315.151941 36.989465 
L 319.144605 36.989465 
L 319.144605 33.157069 
L 319.394274 33.157069 
L 319.394274 29.324673 
L 320.364109 29.324673 
L 320.364109 25.492277 
L 322.548544 25.492277 
L 322.548544 21.659881 
L 322.792069 21.659881 
L 322.792069 17.827485 
L 325.455608 17.827485 
L 325.455608 13.995089 
L 332.675852 13.995089 
L 332.675852 10.162693 
L 335.760023 10.162693 
L 335.760023 6.330297 
L 335.760023 6.330297 
L 460.8 6.330297 
L 460.8 6.330297 
" style="fill:none;stroke:#00bfbf;stroke-linecap:square;stroke-width:1.5;"/>
   </g>
   <g id="line2d_23">
    <path clip-path="url(#p9bd490eb82)" d="M 220.235995 293.76 
L 220.235995 289.927604 
L 226.729711 289.927604 
L 226.729711 286.095208 
L 227.775536 286.095208 
L 227.775536 282.262812 
L 228.632936 282.262812 
L 228.632936 278.430416 
L 230.232328 278.430416 
L 230.232328 274.59802 
L 230.361868 274.59802 
L 230.361868 270.765624 
L 231.842345 270.765624 
L 231.842345 266.933228 
L 233.423806 266.933228 
L 233.519101 259.268436 
L 233.719893 259.268436 
L 233.719893 255.43604 
L 235.155592 255.43604 
L 235.16967 247.771248 
L 235.457304 247.771248 
L 235.457304 243.938851 
L 237.304653 243.938851 
L 237.304653 240.106455 
L 237.847016 240.106455 
L 237.847016 236.274059 
L 241.340784 236.274059 
L 241.340784 232.441663 
L 241.457819 232.441663 
L 241.457819 228.609267 
L 243.452921 228.609267 
L 243.452921 224.776871 
L 244.600371 224.776871 
L 244.600371 220.944475 
L 245.139086 220.944475 
L 245.139086 217.112079 
L 246.373681 217.112079 
L 246.373681 213.279683 
L 246.808479 213.279683 
L 246.808479 209.447287 
L 247.377092 209.447287 
L 247.377092 205.614891 
L 248.157002 205.614891 
L 248.157002 201.782495 
L 249.341117 201.782495 
L 249.41437 194.117703 
L 250.036216 194.117703 
L 250.036216 190.285307 
L 250.621225 190.285307 
L 250.621225 186.452911 
L 252.158374 186.452911 
L 252.195431 178.788119 
L 252.436186 178.788119 
L 252.528513 171.123327 
L 252.804545 171.123327 
L 252.804545 167.290931 
L 253.735078 167.290931 
L 253.735078 163.458535 
L 254.069407 163.458535 
L 254.069407 159.626139 
L 254.656341 159.626139 
L 254.656341 155.793743 
L 254.796842 155.793743 
L 254.83983 144.296554 
L 255.17438 144.296554 
L 255.235868 136.631762 
L 255.470337 136.631762 
L 255.470337 132.799366 
L 255.61706 132.799366 
L 255.61706 128.96697 
L 256.090651 128.96697 
L 256.090651 125.134574 
L 256.314432 125.134574 
L 256.417872 113.637386 
L 256.499931 113.637386 
L 256.551581 105.972594 
L 256.662807 105.972594 
L 256.662807 102.140198 
L 257.404797 102.140198 
L 257.499334 94.475406 
L 257.545659 94.475406 
L 257.583773 86.810614 
L 258.016359 86.810614 
L 258.016359 82.978218 
L 258.225629 82.978218 
L 258.225629 79.145822 
L 258.70137 79.145822 
L 258.70137 75.313426 
L 259.182608 75.313426 
L 259.182608 71.48103 
L 261.135928 71.48103 
L 261.135928 67.648634 
L 261.793005 67.648634 
L 261.793005 63.816238 
L 265.289839 63.816238 
L 265.289839 59.983842 
L 270.948382 59.983842 
L 270.948382 56.151446 
L 287.408164 56.151446 
L 287.408164 52.31905 
L 291.239946 52.31905 
L 291.239946 48.486653 
L 293.916676 48.486653 
L 293.916676 44.654257 
L 295.129995 44.654257 
L 295.129995 40.821861 
L 299.638787 40.821861 
L 299.638787 36.989465 
L 303.844799 36.989465 
L 303.844799 33.157069 
L 306.923014 33.157069 
L 306.923014 29.324673 
L 312.011332 29.324673 
L 312.011332 25.492277 
L 312.830176 25.492277 
L 312.830176 21.659881 
L 315.151941 21.659881 
L 315.151941 17.827485 
L 315.556214 17.827485 
L 315.556214 13.995089 
L 316.968627 13.995089 
L 316.968627 10.162693 
L 325.016499 10.162693 
L 325.016499 6.330297 
L 325.016499 6.330297 
L 460.8 6.330297 
L 460.8 6.330297 
" style="fill:none;stroke:#bf00bf;stroke-linecap:square;stroke-width:1.5;"/>
   </g>
   <g id="line2d_24">
    <path clip-path="url(#p9bd490eb82)" d="M 219.561097 293.76 
L 219.561097 289.927604 
L 220.235995 289.927604 
L 220.235995 286.095208 
L 222.551461 286.095208 
L 222.551461 282.262812 
L 224.250022 282.262812 
L 224.250022 278.430416 
L 226.729711 278.430416 
L 226.729711 274.59802 
L 227.775536 274.59802 
L 227.775536 270.765624 
L 228.632936 270.765624 
L 228.632936 266.933228 
L 229.145729 266.933228 
L 229.145729 263.100832 
L 229.313311 263.100832 
L 229.313311 259.268436 
L 230.232328 259.268436 
L 230.232328 255.43604 
L 230.361868 255.43604 
L 230.361868 251.603644 
L 231.209542 251.603644 
L 231.209542 247.771248 
L 232.178053 247.771248 
L 232.178053 243.938851 
L 233.409138 243.938851 
L 233.423806 236.274059 
L 233.719893 236.274059 
L 233.719893 232.441663 
L 233.931607 232.441663 
L 233.931607 228.609267 
L 235.16967 228.609267 
L 235.16967 224.776871 
L 237.265665 224.776871 
L 237.265665 220.944475 
L 239.421096 220.944475 
L 239.421096 217.112079 
L 241.340784 217.112079 
L 241.340784 213.279683 
L 241.457819 213.279683 
L 241.457819 209.447287 
L 243.452921 209.447287 
L 243.452921 205.614891 
L 243.601953 205.614891 
L 243.601953 201.782495 
L 245.139086 201.782495 
L 245.139086 197.950099 
L 245.895884 197.950099 
L 245.895884 194.117703 
L 246.074786 194.117703 
L 246.074786 190.285307 
L 246.373681 190.285307 
L 246.373681 186.452911 
L 246.808479 186.452911 
L 246.808479 182.620515 
L 247.377092 182.620515 
L 247.377092 178.788119 
L 248.027613 178.788119 
L 248.027613 174.955723 
L 248.157002 174.955723 
L 248.157002 171.123327 
L 248.572735 171.123327 
L 248.572735 167.290931 
L 248.860982 167.290931 
L 248.860982 163.458535 
L 249.341117 163.458535 
L 249.341117 159.626139 
L 250.621225 159.626139 
L 250.621225 155.793743 
L 250.942047 155.793743 
L 250.992668 148.12895 
L 251.438032 148.12895 
L 251.438032 144.296554 
L 251.710949 144.296554 
L 251.710949 140.464158 
L 252.047103 140.464158 
L 252.047103 136.631762 
L 252.158374 136.631762 
L 252.195431 128.96697 
L 252.424036 128.96697 
L 252.424036 125.134574 
L 252.644052 125.134574 
L 252.644052 121.302178 
L 253.735078 121.302178 
L 253.735078 117.469782 
L 254.529027 117.469782 
L 254.529027 113.637386 
L 254.656341 113.637386 
L 254.656341 109.80499 
L 254.796842 109.80499 
L 254.796842 105.972594 
L 255.61706 105.972594 
L 255.61706 102.140198 
L 255.92177 102.140198 
L 255.92177 98.307802 
L 256.090651 98.307802 
L 256.090651 94.475406 
L 256.314432 94.475406 
L 256.314432 90.64301 
L 256.499931 90.64301 
L 256.499931 86.810614 
L 256.662807 86.810614 
L 256.662807 82.978218 
L 256.897087 82.978218 
L 256.897087 79.145822 
L 257.404797 79.145822 
L 257.404797 75.313426 
L 257.583773 75.313426 
L 257.583773 71.48103 
L 257.92245 71.48103 
L 257.92245 67.648634 
L 258.460626 67.648634 
L 258.460626 63.816238 
L 258.70137 63.816238 
L 258.70137 59.983842 
L 259.182608 59.983842 
L 259.182608 56.151446 
L 265.289839 56.151446 
L 265.289839 52.31905 
L 270.948382 52.31905 
L 270.948382 48.486653 
L 278.981796 48.486653 
L 278.981796 44.654257 
L 279.844732 44.654257 
L 279.844732 40.821861 
L 287.408164 40.821861 
L 287.408164 36.989465 
L 291.239946 36.989465 
L 291.239946 33.157069 
L 291.899055 33.157069 
L 291.899055 29.324673 
L 294.774663 29.324673 
L 294.774663 25.492277 
L 295.129995 25.492277 
L 295.129995 21.659881 
L 299.638787 21.659881 
L 299.638787 17.827485 
L 303.844799 17.827485 
L 303.844799 13.995089 
L 312.830176 13.995089 
L 312.830176 10.162693 
L 315.556214 10.162693 
L 315.556214 6.330297 
L 315.556214 6.330297 
L 460.8 6.330297 
L 460.8 6.330297 
" style="fill:none;stroke:#000000;stroke-linecap:square;stroke-width:1.5;"/>
   </g>
   <g id="line2d_25">
    <path clip-path="url(#p9bd490eb82)" d="M 207.890149 293.76 
L 207.890149 289.927604 
L 211.419542 289.927604 
L 211.419542 286.095208 
L 218.829733 286.095208 
L 218.829733 282.262812 
L 219.561097 282.262812 
L 219.561097 278.430416 
L 221.425728 278.430416 
L 221.425728 274.59802 
L 222.551461 274.59802 
L 222.551461 270.765624 
L 222.853332 270.765624 
L 222.896183 263.100832 
L 223.994687 263.100832 
L 223.994687 259.268436 
L 224.864111 259.268436 
L 224.864111 255.43604 
L 225.709071 255.43604 
L 225.758087 247.771248 
L 226.20082 247.771248 
L 226.20082 243.938851 
L 226.41138 243.938851 
L 226.41138 240.106455 
L 226.729711 240.106455 
L 226.831643 232.441663 
L 227.01713 232.441663 
L 227.01713 228.609267 
L 229.313311 228.609267 
L 229.313311 224.776871 
L 229.979425 224.776871 
L 229.979425 220.944475 
L 232.178053 220.944475 
L 232.178053 217.112079 
L 232.459172 217.112079 
L 232.459172 213.279683 
L 233.198142 213.279683 
L 233.198142 209.447287 
L 233.494735 209.447287 
L 233.494735 205.614891 
L 235.728217 205.614891 
L 235.728217 201.782495 
L 235.92702 201.782495 
L 235.92702 197.950099 
L 237.644091 197.950099 
L 237.644091 194.117703 
L 238.01457 194.117703 
L 238.01457 190.285307 
L 238.715783 190.285307 
L 238.715783 186.452911 
L 239.506417 186.452911 
L 239.506417 182.620515 
L 240.022947 182.620515 
L 240.022947 178.788119 
L 241.5403 178.788119 
L 241.5403 174.955723 
L 242.019892 174.955723 
L 242.019892 171.123327 
L 242.537159 171.123327 
L 242.537159 167.290931 
L 242.855548 167.290931 
L 242.855548 163.458535 
L 243.354034 163.458535 
L 243.452921 155.793743 
L 243.601953 155.793743 
L 243.601953 151.961347 
L 246.867625 151.961347 
L 246.867625 148.12895 
L 247.167782 148.12895 
L 247.167782 144.296554 
L 247.333632 144.296554 
L 247.333632 140.464158 
L 247.911626 140.464158 
L 247.911626 136.631762 
L 248.157002 136.631762 
L 248.264412 128.96697 
L 250.080237 128.96697 
L 250.080237 125.134574 
L 250.621225 125.134574 
L 250.621225 121.302178 
L 250.942047 121.302178 
L 250.942047 117.469782 
L 251.438032 117.469782 
L 251.438032 113.637386 
L 251.568291 113.637386 
L 251.613682 105.972594 
L 251.97282 105.972594 
L 251.97282 102.140198 
L 252.424036 102.140198 
L 252.424036 98.307802 
L 253.735078 98.307802 
L 253.735078 94.475406 
L 253.891153 94.475406 
L 253.891153 90.64301 
L 254.036397 90.64301 
L 254.036397 86.810614 
L 254.632241 86.810614 
L 254.632241 82.978218 
L 255.076402 82.978218 
L 255.076402 79.145822 
L 255.827413 79.145822 
L 255.848414 71.48103 
L 256.090651 71.48103 
L 256.090651 67.648634 
L 256.439917 67.648634 
L 256.499931 56.151446 
L 257.23219 56.151446 
L 257.23219 52.31905 
L 258.501989 52.31905 
L 258.551988 44.654257 
L 265.289839 44.654257 
L 265.289839 40.821861 
L 268.70806 40.821861 
L 268.70806 36.989465 
L 276.934658 36.989465 
L 276.934658 33.157069 
L 278.981796 33.157069 
L 278.981796 29.324673 
L 279.844732 29.324673 
L 279.844732 25.492277 
L 284.417198 25.492277 
L 284.417198 21.659881 
L 287.408164 21.659881 
L 287.408164 17.827485 
L 291.899055 17.827485 
L 291.899055 13.995089 
L 299.638787 13.995089 
L 299.638787 10.162693 
L 303.844799 10.162693 
L 303.844799 6.330297 
L 303.844799 6.330297 
L 460.8 6.330297 
L 460.8 6.330297 
" style="fill:none;stroke:#00bfbf;stroke-linecap:square;stroke-width:1.5;"/>
   </g>
   <g id="line2d_26">
    <path clip-path="url(#p9bd490eb82)" d="M 207.890149 293.76 
L 207.890149 289.927604 
L 211.419542 289.927604 
L 211.419542 286.095208 
L 212.314167 286.095208 
L 212.314167 282.262812 
L 215.928568 282.262812 
L 215.928568 278.430416 
L 216.777472 278.430416 
L 216.777472 274.59802 
L 217.376527 274.59802 
L 217.376527 270.765624 
L 218.38013 270.765624 
L 218.38013 266.933228 
L 218.829733 266.933228 
L 218.829733 263.100832 
L 219.561097 263.100832 
L 219.561097 259.268436 
L 220.929928 259.268436 
L 220.929928 255.43604 
L 221.425728 255.43604 
L 221.425728 251.603644 
L 221.544186 251.603644 
L 221.544186 247.771248 
L 221.892142 247.771248 
L 221.892142 243.938851 
L 222.395033 243.938851 
L 222.395033 240.106455 
L 222.50795 240.106455 
L 222.50795 236.274059 
L 223.532017 236.274059 
L 223.532017 232.441663 
L 224.705437 232.441663 
L 224.70994 224.776871 
L 225.758087 224.776871 
L 225.758087 220.944475 
L 226.20082 220.944475 
L 226.20082 217.112079 
L 226.41138 217.112079 
L 226.41138 213.279683 
L 231.417527 213.279683 
L 231.417527 209.447287 
L 231.995404 209.447287 
L 231.995404 205.614891 
L 232.178053 205.614891 
L 232.178053 201.782495 
L 232.310691 201.782495 
L 232.310691 197.950099 
L 232.459172 197.950099 
L 232.459172 194.117703 
L 233.198142 194.117703 
L 233.198142 190.285307 
L 233.426104 190.285307 
L 233.494735 182.620515 
L 234.186 182.620515 
L 234.186 178.788119 
L 234.554361 178.788119 
L 234.554361 174.955723 
L 235.583377 174.955723 
L 235.583377 171.123327 
L 235.728217 171.123327 
L 235.728217 167.290931 
L 235.92702 167.290931 
L 235.995157 159.626139 
L 238.01457 159.626139 
L 238.01457 155.793743 
L 240.022947 155.793743 
L 240.022947 151.961347 
L 241.286451 151.961347 
L 241.33685 144.296554 
L 242.537159 144.296554 
L 242.537159 140.464158 
L 242.855548 140.464158 
L 242.855548 136.631762 
L 243.354034 136.631762 
L 243.354034 132.799366 
L 243.601953 132.799366 
L 243.601953 128.96697 
L 244.517271 128.96697 
L 244.517271 125.134574 
L 244.697138 125.134574 
L 244.697138 121.302178 
L 245.065415 121.302178 
L 245.065415 117.469782 
L 246.053267 117.469782 
L 246.053267 113.637386 
L 247.244362 113.637386 
L 247.244362 109.80499 
L 247.911626 109.80499 
L 247.911626 105.972594 
L 248.113072 105.972594 
L 248.113072 102.140198 
L 248.357485 102.140198 
L 248.357485 98.307802 
L 249.076088 98.307802 
L 249.076088 94.475406 
L 250.621225 94.475406 
L 250.621225 90.64301 
L 250.942047 90.64301 
L 250.942047 86.810614 
L 251.320108 86.810614 
L 251.320108 82.978218 
L 251.522337 82.978218 
L 251.522337 79.145822 
L 252.424036 79.145822 
L 252.468671 71.48103 
L 253.735078 71.48103 
L 253.735078 67.648634 
L 254.632241 67.648634 
L 254.632241 63.816238 
L 255.076402 63.816238 
L 255.180774 56.151446 
L 255.566202 56.151446 
L 255.566202 52.31905 
L 255.871012 52.31905 
L 255.871012 48.486653 
L 256.514209 48.486653 
L 256.514209 44.654257 
L 265.289839 44.654257 
L 265.289839 40.821861 
L 268.70806 40.821861 
L 268.70806 36.989465 
L 276.934658 36.989465 
L 276.934658 33.157069 
L 278.015315 33.157069 
L 278.015315 29.324673 
L 278.256345 29.324673 
L 278.256345 25.492277 
L 278.981796 25.492277 
L 278.981796 21.659881 
L 284.417198 21.659881 
L 284.417198 17.827485 
L 291.899055 17.827485 
L 291.899055 13.995089 
L 299.638787 13.995089 
L 299.638787 10.162693 
L 303.844799 10.162693 
L 303.844799 6.330297 
L 303.844799 6.330297 
L 460.8 6.330297 
L 460.8 6.330297 
" style="fill:none;stroke:#bf00bf;stroke-linecap:square;stroke-width:1.5;"/>
   </g>
   <g id="patch_3">
    <path d="M 0 293.76 
L 0 3.456 
" style="fill:none;stroke:#000000;stroke-linecap:square;stroke-linejoin:miter;stroke-width:0.8;"/>
   </g>
   <g id="patch_4">
    <path d="M 460.8 293.76 
L 460.8 3.456 
" style="fill:none;stroke:#000000;stroke-linecap:square;stroke-linejoin:miter;stroke-width:0.8;"/>
   </g>
   <g id="patch_5">
    <path d="M 0 293.76 
L 460.8 293.76 
" style="fill:none;stroke:#000000;stroke-linecap:square;stroke-linejoin:miter;stroke-width:0.8;"/>
   </g>
   <g id="patch_6">
    <path d="M 0 3.456 
L 460.8 3.456 
" style="fill:none;stroke:#000000;stroke-linecap:square;stroke-linejoin:miter;stroke-width:0.8;"/>
   </g>
   <g id="text_6">
    <!-- {f20-f24}, 5-D -->
    <defs>
     <path d="M 51.125 -9.28125 
L 51.125 -16.3125 
L 48.09375 -16.3125 
Q 35.9375 -16.3125 31.8125 -12.6875 
Q 27.6875 -9.078125 27.6875 1.703125 
L 27.6875 13.375 
Q 27.6875 20.75 25.046875 23.578125 
Q 22.40625 26.421875 15.484375 26.421875 
L 12.5 26.421875 
L 12.5 33.40625 
L 15.484375 33.40625 
Q 22.46875 33.40625 25.078125 36.203125 
Q 27.6875 39.015625 27.6875 46.296875 
L 27.6875 58.015625 
Q 27.6875 68.796875 31.8125 72.390625 
Q 35.9375 75.984375 48.09375 75.984375 
L 51.125 75.984375 
L 51.125 69 
L 47.796875 69 
Q 40.921875 69 38.8125 66.84375 
Q 36.71875 64.703125 36.71875 57.8125 
L 36.71875 45.703125 
Q 36.71875 38.03125 34.5 34.5625 
Q 32.28125 31.109375 26.90625 29.890625 
Q 32.328125 28.5625 34.515625 25.09375 
Q 36.71875 21.625 36.71875 14.015625 
L 36.71875 1.90625 
Q 36.71875 -4.984375 38.8125 -7.125 
Q 40.921875 -9.28125 47.796875 -9.28125 
z
" id="DejaVuSans-123"/>
     <path d="M 19.1875 8.296875 
L 53.609375 8.296875 
L 53.609375 0 
L 7.328125 0 
L 7.328125 8.296875 
Q 12.9375 14.109375 22.625 23.890625 
Q 32.328125 33.6875 34.8125 36.53125 
Q 39.546875 41.84375 41.421875 45.53125 
Q 43.3125 49.21875 43.3125 52.78125 
Q 43.3125 58.59375 39.234375 62.25 
Q 35.15625 65.921875 28.609375 65.921875 
Q 23.96875 65.921875 18.8125 64.3125 
Q 13.671875 62.703125 7.8125 59.421875 
L 7.8125 69.390625 
Q 13.765625 71.78125 18.9375 73 
Q 24.125 74.21875 28.421875 74.21875 
Q 39.75 74.21875 46.484375 68.546875 
Q 53.21875 62.890625 53.21875 53.421875 
Q 53.21875 48.921875 51.53125 44.890625 
Q 49.859375 40.875 45.40625 35.40625 
Q 44.1875 33.984375 37.640625 27.21875 
Q 31.109375 20.453125 19.1875 8.296875 
z
" id="DejaVuSans-50"/>
     <path d="M 12.5 -9.28125 
L 15.921875 -9.28125 
Q 22.75 -9.28125 24.828125 -7.171875 
Q 26.90625 -5.078125 26.90625 1.90625 
L 26.90625 14.015625 
Q 26.90625 21.625 29.09375 25.09375 
Q 31.296875 28.5625 36.71875 29.890625 
Q 31.296875 31.109375 29.09375 34.5625 
Q 26.90625 38.03125 26.90625 45.703125 
L 26.90625 57.8125 
Q 26.90625 64.75 24.828125 66.875 
Q 22.75 69 15.921875 69 
L 12.5 69 
L 12.5 75.984375 
L 15.578125 75.984375 
Q 27.734375 75.984375 31.8125 72.390625 
Q 35.890625 68.796875 35.890625 58.015625 
L 35.890625 46.296875 
Q 35.890625 39.015625 38.515625 36.203125 
Q 41.15625 33.40625 48.09375 33.40625 
L 51.125 33.40625 
L 51.125 26.421875 
L 48.09375 26.421875 
Q 41.15625 26.421875 38.515625 23.578125 
Q 35.890625 20.75 35.890625 13.375 
L 35.890625 1.703125 
Q 35.890625 -9.078125 31.8125 -12.6875 
Q 27.734375 -16.3125 15.578125 -16.3125 
L 12.5 -16.3125 
z
" id="DejaVuSans-125"/>
     <path d="M 11.71875 12.40625 
L 22.015625 12.40625 
L 22.015625 4 
L 14.015625 -11.625 
L 7.71875 -11.625 
L 11.71875 4 
z
" id="DejaVuSans-44"/>
     <path d="M 10.796875 72.90625 
L 49.515625 72.90625 
L 49.515625 64.59375 
L 19.828125 64.59375 
L 19.828125 46.734375 
Q 21.96875 47.46875 24.109375 47.828125 
Q 26.265625 48.1875 28.421875 48.1875 
Q 40.625 48.1875 47.75 41.5 
Q 54.890625 34.8125 54.890625 23.390625 
Q 54.890625 11.625 47.5625 5.09375 
Q 40.234375 -1.421875 26.90625 -1.421875 
Q 22.3125 -1.421875 17.546875 -0.640625 
Q 12.796875 0.140625 7.71875 1.703125 
L 7.71875 11.625 
Q 12.109375 9.234375 16.796875 8.0625 
Q 21.484375 6.890625 26.703125 6.890625 
Q 35.15625 6.890625 40.078125 11.328125 
Q 45.015625 15.765625 45.015625 23.390625 
Q 45.015625 31 40.078125 35.4375 
Q 35.15625 39.890625 26.703125 39.890625 
Q 22.75 39.890625 18.8125 39.015625 
Q 14.890625 38.140625 10.796875 36.28125 
z
" id="DejaVuSans-53"/>
    </defs>
    <g transform="translate(305.884 287.95392)scale(0.2 -0.2)">
     <use xlink:href="#DejaVuSans-123"/>
     <use x="63.623047" xlink:href="#DejaVuSans-102"/>
     <use x="98.828125" xlink:href="#DejaVuSans-50"/>
     <use x="162.451172" xlink:href="#DejaVuSans-48"/>
     <use x="226.074219" xlink:href="#DejaVuSans-45"/>
     <use x="262.158203" xlink:href="#DejaVuSans-102"/>
     <use x="297.363281" xlink:href="#DejaVuSans-50"/>
     <use x="360.986328" xlink:href="#DejaVuSans-52"/>
     <use x="424.609375" xlink:href="#DejaVuSans-125"/>
     <use x="488.232422" xlink:href="#DejaVuSans-44"/>
     <use x="520.019531" xlink:href="#DejaVuSans-32"/>
     <use x="551.806641" xlink:href="#DejaVuSans-53"/>
     <use x="615.429688" xlink:href="#DejaVuSans-45"/>
     <use x="651.513672" xlink:href="#DejaVuSans-68"/>
    </g>
   </g>
   <g id="text_7">
    <!-- v2.4 -->
    <defs>
     <path d="M 2.984375 54.6875 
L 12.5 54.6875 
L 29.59375 8.796875 
L 46.6875 54.6875 
L 56.203125 54.6875 
L 35.6875 0 
L 23.484375 0 
z
" id="DejaVuSans-118"/>
     <path d="M 10.6875 12.40625 
L 21 12.40625 
L 21 0 
L 10.6875 0 
z
" id="DejaVuSans-46"/>
    </defs>
    <g style="fill:#808080;" transform="translate(219.489063 288.777272)scale(0.1 -0.1)">
     <use xlink:href="#DejaVuSans-118"/>
     <use x="59.179688" xlink:href="#DejaVuSans-50"/>
     <use x="122.802734" xlink:href="#DejaVuSans-46"/>
     <use x="154.589844" xlink:href="#DejaVuSans-52"/>
    </g>
   </g>
  </g>
 </g>
 <defs>
  <clipPath id="p9bd490eb82">
   <rect height="290.304" width="460.8" x="0" y="3.456"/>
  </clipPath>
 </defs>
</svg>
