<?xml version="1.0" encoding="utf-8" standalone="no"?>
<!DOCTYPE svg PUBLIC "-//W3C//DTD SVG 1.1//EN"
  "http://www.w3.org/Graphics/SVG/1.1/DTD/svg11.dtd">
<!-- Created with matplotlib (https://matplotlib.org/) -->
<svg height="345.6pt" version="1.1" viewBox="0 0 460.8 345.6" width="460.8pt" xmlns="http://www.w3.org/2000/svg" xmlns:xlink="http://www.w3.org/1999/xlink">
 <defs>
  <style type="text/css">
*{stroke-linecap:butt;stroke-linejoin:round;}
  </style>
 </defs>
 <g id="figure_1">
  <g id="patch_1">
   <path d="M 0 345.6 
L 460.8 345.6 
L 460.8 0 
L 0 0 
z
" style="fill:#ffffff;"/>
  </g>
  <g id="axes_1">
   <g id="patch_2">
    <path d="M 0 293.76 
L 460.8 293.76 
L 460.8 3.456 
L 0 3.456 
z
" style="fill:#ffffff;"/>
   </g>
   <g id="matplotlib.axis_1">
    <g id="xtick_1">
     <g id="line2d_1">
      <path clip-path="url(#pc699757d5b)" d="M 104.034439 293.76 
L 104.034439 3.456 
" style="fill:none;stroke:#b0b0b0;stroke-linecap:square;stroke-width:0.8;"/>
     </g>
     <g id="line2d_2">
      <defs>
       <path d="M 0 0 
L 0 3.5 
" id="m293f12f807" style="stroke:#000000;stroke-width:0.8;"/>
      </defs>
      <g>
       <use style="stroke:#000000;stroke-width:0.8;" x="104.034439" xlink:href="#m293f12f807" y="293.76"/>
      </g>
     </g>
     <g id="text_1">
      <!-- -4 -->
      <defs>
       <path d="M 4.890625 31.390625 
L 31.203125 31.390625 
L 31.203125 23.390625 
L 4.890625 23.390625 
z
" id="DejaVuSans-45"/>
       <path d="M 37.796875 64.3125 
L 12.890625 25.390625 
L 37.796875 25.390625 
z
M 35.203125 72.90625 
L 47.609375 72.90625 
L 47.609375 25.390625 
L 58.015625 25.390625 
L 58.015625 17.1875 
L 47.609375 17.1875 
L 47.609375 0 
L 37.796875 0 
L 37.796875 17.1875 
L 4.890625 17.1875 
L 4.890625 26.703125 
z
" id="DejaVuSans-52"/>
      </defs>
      <g transform="translate(94.064127 315.956875)scale(0.2 -0.2)">
       <use xlink:href="#DejaVuSans-45"/>
       <use x="36.083984" xlink:href="#DejaVuSans-52"/>
      </g>
     </g>
    </g>
    <g id="xtick_2">
     <g id="line2d_3">
      <path clip-path="url(#pc699757d5b)" d="M 208.181393 293.76 
L 208.181393 3.456 
" style="fill:none;stroke:#b0b0b0;stroke-linecap:square;stroke-width:0.8;"/>
     </g>
     <g id="line2d_4">
      <g>
       <use style="stroke:#000000;stroke-width:0.8;" x="208.181393" xlink:href="#m293f12f807" y="293.76"/>
      </g>
     </g>
     <g id="text_2">
      <!-- 0 -->
      <defs>
       <path d="M 31.78125 66.40625 
Q 24.171875 66.40625 20.328125 58.90625 
Q 16.5 51.421875 16.5 36.375 
Q 16.5 21.390625 20.328125 13.890625 
Q 24.171875 6.390625 31.78125 6.390625 
Q 39.453125 6.390625 43.28125 13.890625 
Q 47.125 21.390625 47.125 36.375 
Q 47.125 51.421875 43.28125 58.90625 
Q 39.453125 66.40625 31.78125 66.40625 
z
M 31.78125 74.21875 
Q 44.046875 74.21875 50.515625 64.515625 
Q 56.984375 54.828125 56.984375 36.375 
Q 56.984375 17.96875 50.515625 8.265625 
Q 44.046875 -1.421875 31.78125 -1.421875 
Q 19.53125 -1.421875 13.0625 8.265625 
Q 6.59375 17.96875 6.59375 36.375 
Q 6.59375 54.828125 13.0625 64.515625 
Q 19.53125 74.21875 31.78125 74.21875 
z
" id="DejaVuSans-48"/>
      </defs>
      <g transform="translate(201.818893 315.956875)scale(0.2 -0.2)">
       <use xlink:href="#DejaVuSans-48"/>
      </g>
     </g>
    </g>
    <g id="xtick_3">
     <g id="line2d_5">
      <path clip-path="url(#pc699757d5b)" d="M 312.328346 293.76 
L 312.328346 3.456 
" style="fill:none;stroke:#b0b0b0;stroke-linecap:square;stroke-width:0.8;"/>
     </g>
     <g id="line2d_6">
      <g>
       <use style="stroke:#000000;stroke-width:0.8;" x="312.328346" xlink:href="#m293f12f807" y="293.76"/>
      </g>
     </g>
     <g id="text_3">
      <!-- 4 -->
      <g transform="translate(305.965846 315.956875)scale(0.2 -0.2)">
       <use xlink:href="#DejaVuSans-52"/>
      </g>
     </g>
    </g>
    <g id="xtick_4">
     <g id="line2d_7">
      <path clip-path="url(#pc699757d5b)" d="M 416.4753 293.76 
L 416.4753 3.456 
" style="fill:none;stroke:#b0b0b0;stroke-linecap:square;stroke-width:0.8;"/>
     </g>
     <g id="line2d_8">
      <g>
       <use style="stroke:#000000;stroke-width:0.8;" x="416.4753" xlink:href="#m293f12f807" y="293.76"/>
      </g>
     </g>
     <g id="text_4">
      <!-- 8 -->
      <defs>
       <path d="M 31.78125 34.625 
Q 24.75 34.625 20.71875 30.859375 
Q 16.703125 27.09375 16.703125 20.515625 
Q 16.703125 13.921875 20.71875 10.15625 
Q 24.75 6.390625 31.78125 6.390625 
Q 38.8125 6.390625 42.859375 10.171875 
Q 46.921875 13.96875 46.921875 20.515625 
Q 46.921875 27.09375 42.890625 30.859375 
Q 38.875 34.625 31.78125 34.625 
z
M 21.921875 38.8125 
Q 15.578125 40.375 12.03125 44.71875 
Q 8.5 49.078125 8.5 55.328125 
Q 8.5 64.0625 14.71875 69.140625 
Q 20.953125 74.21875 31.78125 74.21875 
Q 42.671875 74.21875 48.875 69.140625 
Q 55.078125 64.0625 55.078125 55.328125 
Q 55.078125 49.078125 51.53125 44.71875 
Q 48 40.375 41.703125 38.8125 
Q 48.828125 37.15625 52.796875 32.3125 
Q 56.78125 27.484375 56.78125 20.515625 
Q 56.78125 9.90625 50.3125 4.234375 
Q 43.84375 -1.421875 31.78125 -1.421875 
Q 19.734375 -1.421875 13.25 4.234375 
Q 6.78125 9.90625 6.78125 20.515625 
Q 6.78125 27.484375 10.78125 32.3125 
Q 14.796875 37.15625 21.921875 38.8125 
z
M 18.3125 54.390625 
Q 18.3125 48.734375 21.84375 45.5625 
Q 25.390625 42.390625 31.78125 42.390625 
Q 38.140625 42.390625 41.71875 45.5625 
Q 45.3125 48.734375 45.3125 54.390625 
Q 45.3125 60.0625 41.71875 63.234375 
Q 38.140625 66.40625 31.78125 66.40625 
Q 25.390625 66.40625 21.84375 63.234375 
Q 18.3125 60.0625 18.3125 54.390625 
z
" id="DejaVuSans-56"/>
      </defs>
      <g transform="translate(410.1128 315.956875)scale(0.2 -0.2)">
       <use xlink:href="#DejaVuSans-56"/>
      </g>
     </g>
    </g>
    <g id="text_5">
     <!-- log10 of Df -->
     <defs>
      <path d="M 9.421875 75.984375 
L 18.40625 75.984375 
L 18.40625 0 
L 9.421875 0 
z
" id="DejaVuSans-108"/>
      <path d="M 30.609375 48.390625 
Q 23.390625 48.390625 19.1875 42.75 
Q 14.984375 37.109375 14.984375 27.296875 
Q 14.984375 17.484375 19.15625 11.84375 
Q 23.34375 6.203125 30.609375 6.203125 
Q 37.796875 6.203125 41.984375 11.859375 
Q 46.1875 17.53125 46.1875 27.296875 
Q 46.1875 37.015625 41.984375 42.703125 
Q 37.796875 48.390625 30.609375 48.390625 
z
M 30.609375 56 
Q 42.328125 56 49.015625 48.375 
Q 55.71875 40.765625 55.71875 27.296875 
Q 55.71875 13.875 49.015625 6.21875 
Q 42.328125 -1.421875 30.609375 -1.421875 
Q 18.84375 -1.421875 12.171875 6.21875 
Q 5.515625 13.875 5.515625 27.296875 
Q 5.515625 40.765625 12.171875 48.375 
Q 18.84375 56 30.609375 56 
z
" id="DejaVuSans-111"/>
      <path d="M 45.40625 27.984375 
Q 45.40625 37.75 41.375 43.109375 
Q 37.359375 48.484375 30.078125 48.484375 
Q 22.859375 48.484375 18.828125 43.109375 
Q 14.796875 37.75 14.796875 27.984375 
Q 14.796875 18.265625 18.828125 12.890625 
Q 22.859375 7.515625 30.078125 7.515625 
Q 37.359375 7.515625 41.375 12.890625 
Q 45.40625 18.265625 45.40625 27.984375 
z
M 54.390625 6.78125 
Q 54.390625 -7.171875 48.1875 -13.984375 
Q 42 -20.796875 29.203125 -20.796875 
Q 24.46875 -20.796875 20.265625 -20.09375 
Q 16.0625 -19.390625 12.109375 -17.921875 
L 12.109375 -9.1875 
Q 16.0625 -11.328125 19.921875 -12.34375 
Q 23.78125 -13.375 27.78125 -13.375 
Q 36.625 -13.375 41.015625 -8.765625 
Q 45.40625 -4.15625 45.40625 5.171875 
L 45.40625 9.625 
Q 42.625 4.78125 38.28125 2.390625 
Q 33.9375 0 27.875 0 
Q 17.828125 0 11.671875 7.65625 
Q 5.515625 15.328125 5.515625 27.984375 
Q 5.515625 40.671875 11.671875 48.328125 
Q 17.828125 56 27.875 56 
Q 33.9375 56 38.28125 53.609375 
Q 42.625 51.21875 45.40625 46.390625 
L 45.40625 54.6875 
L 54.390625 54.6875 
z
" id="DejaVuSans-103"/>
      <path d="M 12.40625 8.296875 
L 28.515625 8.296875 
L 28.515625 63.921875 
L 10.984375 60.40625 
L 10.984375 69.390625 
L 28.421875 72.90625 
L 38.28125 72.90625 
L 38.28125 8.296875 
L 54.390625 8.296875 
L 54.390625 0 
L 12.40625 0 
z
" id="DejaVuSans-49"/>
      <path id="DejaVuSans-32"/>
      <path d="M 37.109375 75.984375 
L 37.109375 68.5 
L 28.515625 68.5 
Q 23.6875 68.5 21.796875 66.546875 
Q 19.921875 64.59375 19.921875 59.515625 
L 19.921875 54.6875 
L 34.71875 54.6875 
L 34.71875 47.703125 
L 19.921875 47.703125 
L 19.921875 0 
L 10.890625 0 
L 10.890625 47.703125 
L 2.296875 47.703125 
L 2.296875 54.6875 
L 10.890625 54.6875 
L 10.890625 58.5 
Q 10.890625 67.625 15.140625 71.796875 
Q 19.390625 75.984375 28.609375 75.984375 
z
" id="DejaVuSans-102"/>
      <path d="M 19.671875 64.796875 
L 19.671875 8.109375 
L 31.59375 8.109375 
Q 46.6875 8.109375 53.6875 14.9375 
Q 60.6875 21.78125 60.6875 36.53125 
Q 60.6875 51.171875 53.6875 57.984375 
Q 46.6875 64.796875 31.59375 64.796875 
z
M 9.8125 72.90625 
L 30.078125 72.90625 
Q 51.265625 72.90625 61.171875 64.09375 
Q 71.09375 55.28125 71.09375 36.53125 
Q 71.09375 17.671875 61.125 8.828125 
Q 51.171875 0 30.078125 0 
L 9.8125 0 
z
" id="DejaVuSans-68"/>
     </defs>
     <g transform="translate(175.214063 339.313125)scale(0.2 -0.2)">
      <use xlink:href="#DejaVuSans-108"/>
      <use x="27.783203" xlink:href="#DejaVuSans-111"/>
      <use x="88.964844" xlink:href="#DejaVuSans-103"/>
      <use x="152.441406" xlink:href="#DejaVuSans-49"/>
      <use x="216.064453" xlink:href="#DejaVuSans-48"/>
      <use x="279.6875" xlink:href="#DejaVuSans-32"/>
      <use x="311.474609" xlink:href="#DejaVuSans-111"/>
      <use x="372.65625" xlink:href="#DejaVuSans-102"/>
      <use x="407.861328" xlink:href="#DejaVuSans-32"/>
      <use x="439.648438" xlink:href="#DejaVuSans-68"/>
      <use x="516.650391" xlink:href="#DejaVuSans-102"/>
     </g>
    </g>
   </g>
   <g id="matplotlib.axis_2">
    <g id="ytick_1">
     <g id="line2d_9">
      <path clip-path="url(#pc699757d5b)" d="M 0 293.76 
L 460.8 293.76 
" style="fill:none;stroke:#b0b0b0;stroke-linecap:square;stroke-width:0.8;"/>
     </g>
     <g id="line2d_10">
      <defs>
       <path d="M 0 0 
L -3.5 0 
" id="m01ee9141fa" style="stroke:#000000;stroke-width:0.8;"/>
      </defs>
      <g>
       <use style="stroke:#000000;stroke-width:0.8;" x="0" xlink:href="#m01ee9141fa" y="293.76"/>
      </g>
     </g>
    </g>
    <g id="ytick_2">
     <g id="line2d_11">
      <path clip-path="url(#pc699757d5b)" d="M 0 236.274059 
L 460.8 236.274059 
" style="fill:none;stroke:#b0b0b0;stroke-linecap:square;stroke-width:0.8;"/>
     </g>
     <g id="line2d_12">
      <g>
       <use style="stroke:#000000;stroke-width:0.8;" x="0" xlink:href="#m01ee9141fa" y="236.274059"/>
      </g>
     </g>
    </g>
    <g id="ytick_3">
     <g id="line2d_13">
      <path clip-path="url(#pc699757d5b)" d="M 0 178.788119 
L 460.8 178.788119 
" style="fill:none;stroke:#b0b0b0;stroke-linecap:square;stroke-width:0.8;"/>
     </g>
     <g id="line2d_14">
      <g>
       <use style="stroke:#000000;stroke-width:0.8;" x="0" xlink:href="#m01ee9141fa" y="178.788119"/>
      </g>
     </g>
    </g>
    <g id="ytick_4">
     <g id="line2d_15">
      <path clip-path="url(#pc699757d5b)" d="M 0 121.302178 
L 460.8 121.302178 
" style="fill:none;stroke:#b0b0b0;stroke-linecap:square;stroke-width:0.8;"/>
     </g>
     <g id="line2d_16">
      <g>
       <use style="stroke:#000000;stroke-width:0.8;" x="0" xlink:href="#m01ee9141fa" y="121.302178"/>
      </g>
     </g>
    </g>
    <g id="ytick_5">
     <g id="line2d_17">
      <path clip-path="url(#pc699757d5b)" d="M 0 63.816238 
L 460.8 63.816238 
" style="fill:none;stroke:#b0b0b0;stroke-linecap:square;stroke-width:0.8;"/>
     </g>
     <g id="line2d_18">
      <g>
       <use style="stroke:#000000;stroke-width:0.8;" x="0" xlink:href="#m01ee9141fa" y="63.816238"/>
      </g>
     </g>
    </g>
    <g id="ytick_6">
     <g id="line2d_19">
      <path clip-path="url(#pc699757d5b)" d="M 0 6.330297 
L 460.8 6.330297 
" style="fill:none;stroke:#b0b0b0;stroke-linecap:square;stroke-width:0.8;"/>
     </g>
     <g id="line2d_20">
      <g>
       <use style="stroke:#000000;stroke-width:0.8;" x="0" xlink:href="#m01ee9141fa" y="6.330297"/>
      </g>
     </g>
    </g>
   </g>
   <g id="line2d_21">
    <path clip-path="url(#pc699757d5b)" d="M 208.302728 293.76 
L 208.302728 289.927604 
L 216.057888 289.927604 
L 216.057888 286.095208 
L 219.78488 286.095208 
L 219.78488 282.262812 
L 220.133104 282.262812 
L 220.133104 278.430416 
L 221.403022 278.430416 
L 221.403022 274.59802 
L 221.533401 274.59802 
L 221.533401 270.765624 
L 222.586872 270.765624 
L 222.586872 266.933228 
L 223.278292 266.933228 
L 223.278292 263.100832 
L 226.5453 263.100832 
L 226.5453 259.268436 
L 229.304411 259.268436 
L 229.304411 255.43604 
L 231.637138 255.43604 
L 231.637138 251.603644 
L 231.959904 251.603644 
L 231.959904 247.771248 
L 232.221836 247.771248 
L 232.221836 243.938851 
L 232.952203 243.938851 
L 232.952203 240.106455 
L 236.909635 240.106455 
L 236.909635 236.274059 
L 257.574808 236.274059 
L 257.574808 232.441663 
L 261.589507 232.441663 
L 261.589507 228.609267 
L 264.545663 228.609267 
L 264.545663 224.776871 
L 269.988703 224.776871 
L 269.988703 220.944475 
L 271.918087 220.944475 
L 272.010961 213.279683 
L 273.084153 213.279683 
L 273.084153 209.447287 
L 274.474747 209.447287 
L 274.474747 205.614891 
L 275.339786 205.614891 
L 275.439464 197.950099 
L 275.902115 197.950099 
L 275.962473 190.285307 
L 276.475404 190.285307 
L 276.572877 182.620515 
L 276.75799 182.620515 
L 276.75799 178.788119 
L 277.229873 178.788119 
L 277.229873 174.955723 
L 277.782679 174.955723 
L 277.782679 171.123327 
L 278.906441 171.123327 
L 278.906441 167.290931 
L 279.654323 167.290931 
L 279.654323 163.458535 
L 280.648971 163.458535 
L 280.648971 159.626139 
L 282.041057 159.626139 
L 282.118617 151.961347 
L 298.069976 151.961347 
L 298.069976 148.12895 
L 298.665149 148.12895 
L 298.665149 144.296554 
L 299.690234 144.296554 
L 299.690234 140.464158 
L 302.907444 140.464158 
L 302.907444 136.631762 
L 311.703505 136.631762 
L 311.703505 132.799366 
L 315.863548 132.799366 
L 315.863548 128.96697 
L 317.277352 128.96697 
L 317.277352 125.134574 
L 319.27287 125.134574 
L 319.27287 121.302178 
L 320.692751 121.302178 
L 320.692751 117.469782 
L 321.902156 117.469782 
L 321.902156 113.637386 
L 322.338579 113.637386 
L 322.338579 109.80499 
L 325.327236 109.80499 
L 325.385016 102.140198 
L 327.539367 102.140198 
L 327.539367 98.307802 
L 329.392624 98.307802 
L 329.477806 90.64301 
L 329.9475 90.64301 
L 329.9475 86.810614 
L 330.232841 86.810614 
L 330.232841 82.978218 
L 334.841208 82.978218 
L 334.841208 79.145822 
L 337.068179 79.145822 
L 337.068179 75.313426 
L 338.575512 75.313426 
L 338.575512 71.48103 
L 339.022107 71.48103 
L 339.022107 67.648634 
L 343.337984 67.648634 
L 343.337984 63.816238 
L 372.253172 63.816238 
L 372.253172 59.983842 
L 376.61874 59.983842 
L 376.61874 56.151446 
L 380.381477 56.151446 
L 380.381477 52.31905 
L 381.035928 52.31905 
L 381.075372 44.654257 
L 384.782592 44.654257 
L 384.782592 40.821861 
L 385.411321 40.821861 
L 385.411321 36.989465 
L 386.69437 36.989465 
L 386.69437 33.157069 
L 387.188201 33.157069 
L 387.188201 29.324673 
L 387.518193 29.324673 
L 387.518193 25.492277 
L 388.636064 25.492277 
L 388.636064 21.659881 
L 388.979521 21.659881 
L 389.05668 10.162693 
L 400.114422 10.162693 
L 400.114422 6.330297 
L 400.114422 6.330297 
L 460.8 6.330297 
L 460.8 6.330297 
" style="fill:none;stroke:#ff0000;stroke-linecap:square;stroke-width:3;"/>
   </g>
   <g id="line2d_22">
    <path clip-path="url(#pc699757d5b)" d="M 237.054788 293.76 
L 237.054788 289.927604 
L 240.348596 289.927604 
L 240.348596 286.095208 
L 241.142501 286.095208 
L 241.142501 282.262812 
L 243.624089 282.262812 
L 243.624089 278.430416 
L 245.287246 278.430416 
L 245.287246 274.59802 
L 248.744192 274.59802 
L 248.744192 270.765624 
L 248.94228 270.765624 
L 248.94228 266.933228 
L 252.385877 266.933228 
L 252.440002 259.268436 
L 252.991833 259.268436 
L 252.991833 255.43604 
L 256.462105 255.43604 
L 256.462105 251.603644 
L 258.625403 251.603644 
L 258.625403 247.771248 
L 260.276127 247.771248 
L 260.276127 243.938851 
L 264.331617 243.938851 
L 264.331617 240.106455 
L 282.805679 240.106455 
L 282.805679 236.274059 
L 284.197603 236.274059 
L 284.197603 232.441663 
L 284.372945 232.441663 
L 284.372945 228.609267 
L 284.500376 228.609267 
L 284.500376 224.776871 
L 287.019195 224.776871 
L 287.019195 220.944475 
L 288.972128 220.944475 
L 288.972128 217.112079 
L 289.246249 217.112079 
L 289.246249 213.279683 
L 290.127126 213.279683 
L 290.127126 209.447287 
L 290.443477 209.447287 
L 290.443477 205.614891 
L 290.65983 205.614891 
L 290.65983 201.782495 
L 290.834883 201.782495 
L 290.834883 197.950099 
L 292.64776 197.950099 
L 292.64776 194.117703 
L 292.996189 194.117703 
L 292.996189 190.285307 
L 295.970282 190.285307 
L 295.970282 186.452911 
L 296.430556 186.452911 
L 296.430556 182.620515 
L 298.830543 182.620515 
L 298.830543 178.788119 
L 327.539367 178.788119 
L 327.539367 174.955723 
L 329.238062 174.955723 
L 329.238062 171.123327 
L 336.535537 171.123327 
L 336.535537 167.290931 
L 342.682041 167.290931 
L 342.682041 163.458535 
L 343.767949 163.458535 
L 343.767949 159.626139 
L 345.314575 159.626139 
L 345.314575 155.793743 
L 354.325286 155.793743 
L 354.325286 151.961347 
L 355.730747 151.961347 
L 355.730747 148.12895 
L 362.63414 148.12895 
L 362.63414 144.296554 
L 364.200481 144.296554 
L 364.200481 140.464158 
L 366.099396 140.464158 
L 366.099396 136.631762 
L 366.70308 136.631762 
L 366.70308 132.799366 
L 369.802359 132.799366 
L 369.802359 128.96697 
L 370.360361 128.96697 
L 370.360361 125.134574 
L 373.366902 125.134574 
L 373.366902 121.302178 
L 373.61588 121.302178 
L 373.61588 117.469782 
L 374.536906 117.469782 
L 374.608509 109.80499 
L 375.147833 109.80499 
L 375.147833 105.972594 
L 378.310106 105.972594 
L 378.310106 102.140198 
L 380.522002 102.140198 
L 380.522002 98.307802 
L 385.741004 98.307802 
L 385.741004 94.475406 
L 387.866436 94.475406 
L 387.866436 90.64301 
L 388.150787 90.64301 
L 388.150787 86.810614 
L 388.406123 86.810614 
L 388.406123 82.978218 
L 389.78798 82.978218 
L 389.78798 79.145822 
L 394.780112 79.145822 
L 394.780112 75.313426 
L 395.503037 75.313426 
L 395.503037 71.48103 
L 396.137907 71.48103 
L 396.137907 67.648634 
L 398.085807 67.648634 
L 398.085807 63.816238 
L 400.154186 63.816238 
L 400.154186 59.983842 
L 400.393787 59.983842 
L 400.393787 56.151446 
L 404.520383 56.151446 
L 404.520383 52.31905 
L 405.911614 52.31905 
L 405.981909 44.654257 
L 409.136119 44.654257 
L 409.136119 40.821861 
L 410.4941 40.821861 
L 410.4941 36.989465 
L 411.106992 36.989465 
L 411.106992 33.157069 
L 411.632953 33.157069 
L 411.632953 29.324673 
L 418.612463 29.324673 
L 418.612463 25.492277 
L 419.591397 25.492277 
L 419.591397 21.659881 
L 420.473237 21.659881 
L 420.473237 17.827485 
L 426.116897 17.827485 
L 426.116897 13.995089 
L 437.093887 13.995089 
L 437.093887 10.162693 
L 448.756674 10.162693 
L 448.756674 6.330297 
L 448.756674 6.330297 
L 460.8 6.330297 
L 460.8 6.330297 
" style="fill:none;stroke:#00bfbf;stroke-linecap:square;stroke-width:1.5;"/>
   </g>
   <g id="line2d_23">
    <path clip-path="url(#pc699757d5b)" d="M 222.586872 293.76 
L 222.586872 289.927604 
L 225.272112 289.927604 
L 225.272112 286.095208 
L 231.828302 286.095208 
L 231.828302 282.262812 
L 232.709142 282.262812 
L 232.709142 278.430416 
L 233.29702 278.430416 
L 233.29702 274.59802 
L 234.092281 274.59802 
L 234.092281 270.765624 
L 236.40014 270.765624 
L 236.40014 266.933228 
L 237.924466 266.933228 
L 237.924466 263.100832 
L 241.142501 263.100832 
L 241.142501 259.268436 
L 241.428431 259.268436 
L 241.428431 255.43604 
L 243.624089 255.43604 
L 243.624089 251.603644 
L 249.514305 251.603644 
L 249.514305 247.771248 
L 252.440002 247.771248 
L 252.440002 243.938851 
L 252.991833 243.938851 
L 252.991833 240.106455 
L 261.53351 240.106455 
L 261.53351 236.274059 
L 275.339786 236.274059 
L 275.339786 232.441663 
L 282.805679 232.441663 
L 282.805679 228.609267 
L 283.797764 228.609267 
L 283.797764 224.776871 
L 283.987375 224.776871 
L 284.065102 217.112079 
L 284.500376 217.112079 
L 284.572004 201.782495 
L 285.561634 201.782495 
L 285.561634 197.950099 
L 286.150077 197.950099 
L 286.150077 194.117703 
L 286.903226 194.117703 
L 286.903226 190.285307 
L 287.600794 190.285307 
L 287.600794 186.452911 
L 287.729611 186.452911 
L 287.729611 182.620515 
L 289.548007 182.620515 
L 289.548007 178.788119 
L 300.359274 178.788119 
L 300.359274 174.955723 
L 302.907444 174.955723 
L 302.907444 171.123327 
L 317.468647 171.123327 
L 317.468647 167.290931 
L 327.539367 167.290931 
L 327.539367 163.458535 
L 329.238062 163.458535 
L 329.238062 159.626139 
L 334.624688 159.626139 
L 334.624688 155.793743 
L 336.535537 155.793743 
L 336.535537 151.961347 
L 337.405539 151.961347 
L 337.405539 148.12895 
L 343.563043 148.12895 
L 343.563043 144.296554 
L 343.767949 144.296554 
L 343.767949 140.464158 
L 345.314575 140.464158 
L 345.314575 136.631762 
L 346.394731 136.631762 
L 346.394731 132.799366 
L 349.367334 132.799366 
L 349.367334 128.96697 
L 354.325286 128.96697 
L 354.325286 125.134574 
L 355.713675 125.134574 
L 355.730747 117.469782 
L 360.95342 117.469782 
L 360.95342 113.637386 
L 362.997696 113.637386 
L 362.997696 109.80499 
L 363.856632 109.80499 
L 363.856632 105.972594 
L 364.158489 105.972594 
L 364.158489 102.140198 
L 367.572552 102.140198 
L 367.572552 98.307802 
L 368.894783 98.307802 
L 368.894783 94.475406 
L 369.802359 94.475406 
L 369.802359 90.64301 
L 370.360361 90.64301 
L 370.360361 86.810614 
L 371.96746 86.810614 
L 371.96746 82.978218 
L 373.61588 82.978218 
L 373.61588 79.145822 
L 374.536906 79.145822 
L 374.608509 71.48103 
L 381.940783 71.48103 
L 381.940783 67.648634 
L 387.630403 67.648634 
L 387.630403 63.816238 
L 388.979521 63.816238 
L 389.05668 56.151446 
L 389.255191 56.151446 
L 389.299889 48.486653 
L 392.136396 48.486653 
L 392.136396 44.654257 
L 395.674199 44.654257 
L 395.674199 40.821861 
L 398.351321 40.821861 
L 398.351321 36.989465 
L 400.056844 36.989465 
L 400.056844 33.157069 
L 403.32911 33.157069 
L 403.32911 29.324673 
L 404.251137 29.324673 
L 404.251137 25.492277 
L 405.981909 25.492277 
L 405.981909 21.659881 
L 407.507468 21.659881 
L 407.507468 17.827485 
L 410.107561 17.827485 
L 410.107561 13.995089 
L 413.13512 13.995089 
L 413.13512 10.162693 
L 426.116897 10.162693 
L 426.116897 6.330297 
L 426.116897 6.330297 
L 460.8 6.330297 
L 460.8 6.330297 
" style="fill:none;stroke:#bf00bf;stroke-linecap:square;stroke-width:1.5;"/>
   </g>
   <g id="line2d_24">
    <path clip-path="url(#pc699757d5b)" d="M 208.302728 293.76 
L 208.302728 289.927604 
L 219.78488 289.927604 
L 219.78488 286.095208 
L 222.586872 286.095208 
L 222.586872 282.262812 
L 225.272112 282.262812 
L 225.272112 278.430416 
L 231.334269 278.430416 
L 231.334269 274.59802 
L 231.828302 274.59802 
L 231.828302 270.765624 
L 232.520353 270.765624 
L 232.520353 266.933228 
L 233.29702 266.933228 
L 233.29702 263.100832 
L 234.092281 263.100832 
L 234.092281 259.268436 
L 235.841591 259.268436 
L 235.841591 255.43604 
L 237.231542 255.43604 
L 237.231542 251.603644 
L 237.924466 251.603644 
L 237.924466 247.771248 
L 241.428431 247.771248 
L 241.428431 243.938851 
L 243.471579 243.938851 
L 243.471579 240.106455 
L 246.540097 240.106455 
L 246.540097 236.274059 
L 275.339786 236.274059 
L 275.339786 232.441663 
L 275.9098 232.441663 
L 275.9098 228.609267 
L 276.572877 228.609267 
L 276.572877 224.776871 
L 278.395872 224.776871 
L 278.395872 220.944475 
L 282.57933 220.944475 
L 282.57933 217.112079 
L 282.765295 217.112079 
L 282.765295 213.279683 
L 282.892254 213.279683 
L 282.892254 209.447287 
L 283.716671 209.447287 
L 283.716671 205.614891 
L 283.869199 205.614891 
L 283.869199 201.782495 
L 283.985009 201.782495 
L 283.985009 197.950099 
L 284.387495 197.950099 
L 284.387495 194.117703 
L 284.502996 194.117703 
L 284.548167 186.452911 
L 285.612797 186.452911 
L 285.67197 178.788119 
L 288.473692 178.788119 
L 288.473692 174.955723 
L 297.618322 174.955723 
L 297.618322 171.123327 
L 298.665149 171.123327 
L 298.665149 167.290931 
L 302.907444 167.290931 
L 302.907444 163.458535 
L 322.338579 163.458535 
L 322.338579 159.626139 
L 327.539367 159.626139 
L 327.539367 155.793743 
L 328.10493 155.793743 
L 328.10493 151.961347 
L 329.238062 151.961347 
L 329.238062 148.12895 
L 330.642479 148.12895 
L 330.642479 144.296554 
L 331.59168 144.296554 
L 331.59168 140.464158 
L 334.624688 140.464158 
L 334.624688 136.631762 
L 336.535537 136.631762 
L 336.535537 132.799366 
L 337.405539 132.799366 
L 337.405539 128.96697 
L 337.685582 128.96697 
L 337.685582 125.134574 
L 338.228278 125.134574 
L 338.228278 121.302178 
L 343.563043 121.302178 
L 343.563043 117.469782 
L 344.795259 117.469782 
L 344.795259 113.637386 
L 346.394731 113.637386 
L 346.394731 109.80499 
L 349.367334 109.80499 
L 349.367334 105.972594 
L 353.559094 105.972594 
L 353.559094 102.140198 
L 355.713675 102.140198 
L 355.730747 94.475406 
L 356.486558 94.475406 
L 356.486558 90.64301 
L 356.807379 90.64301 
L 356.807379 86.810614 
L 358.486811 86.810614 
L 358.486811 82.978218 
L 362.59213 82.978218 
L 362.59213 79.145822 
L 367.322616 79.145822 
L 367.322616 75.313426 
L 367.572552 75.313426 
L 367.572552 71.48103 
L 373.61588 71.48103 
L 373.61588 67.648634 
L 381.216083 67.648634 
L 381.216083 63.816238 
L 388.979521 63.816238 
L 389.05668 52.31905 
L 389.255191 52.31905 
L 389.299889 44.654257 
L 392.136396 44.654257 
L 392.136396 40.821861 
L 394.892897 40.821861 
L 394.892897 36.989465 
L 395.674199 36.989465 
L 395.674199 33.157069 
L 397.945941 33.157069 
L 397.945941 29.324673 
L 398.351321 29.324673 
L 398.351321 25.492277 
L 402.25654 25.492277 
L 402.25654 21.659881 
L 402.482322 21.659881 
L 402.482322 17.827485 
L 403.32911 17.827485 
L 403.32911 13.995089 
L 403.777547 13.995089 
L 403.777547 10.162693 
L 405.981909 10.162693 
L 405.981909 6.330297 
L 405.981909 6.330297 
L 460.8 6.330297 
L 460.8 6.330297 
" style="fill:none;stroke:#000000;stroke-linecap:square;stroke-width:1.5;"/>
   </g>
   <g id="line2d_25">
    <path clip-path="url(#pc699757d5b)" d="M 208.302728 293.76 
L 208.302728 289.927604 
L 216.057888 289.927604 
L 216.057888 286.095208 
L 219.78488 286.095208 
L 219.78488 282.262812 
L 220.133104 282.262812 
L 220.133104 278.430416 
L 221.403022 278.430416 
L 221.403022 274.59802 
L 222.586872 274.59802 
L 222.586872 270.765624 
L 223.278292 270.765624 
L 223.278292 266.933228 
L 226.5453 266.933228 
L 226.5453 263.100832 
L 228.429927 263.100832 
L 228.429927 259.268436 
L 229.304411 259.268436 
L 229.304411 255.43604 
L 231.637138 255.43604 
L 231.637138 251.603644 
L 231.959904 251.603644 
L 231.959904 247.771248 
L 232.483578 247.771248 
L 232.483578 243.938851 
L 235.841591 243.938851 
L 235.841591 240.106455 
L 237.924466 240.106455 
L 237.924466 236.274059 
L 271.918087 236.274059 
L 272.010961 228.609267 
L 274.474747 228.609267 
L 274.474747 224.776871 
L 275.339786 224.776871 
L 275.339786 220.944475 
L 275.902115 220.944475 
L 275.962473 213.279683 
L 276.089921 213.279683 
L 276.089921 209.447287 
L 276.572877 209.447287 
L 276.572877 205.614891 
L 277.229873 205.614891 
L 277.229873 201.782495 
L 277.748885 201.782495 
L 277.748885 197.950099 
L 278.395872 197.950099 
L 278.395872 194.117703 
L 278.906441 194.117703 
L 278.906441 190.285307 
L 279.654323 190.285307 
L 279.654323 186.452911 
L 280.648971 186.452911 
L 280.648971 182.620515 
L 281.200559 182.620515 
L 281.200559 178.788119 
L 282.041057 178.788119 
L 282.118617 171.123327 
L 288.473692 171.123327 
L 288.473692 167.290931 
L 288.781523 167.290931 
L 288.781523 163.458535 
L 298.069976 163.458535 
L 298.069976 159.626139 
L 298.665149 159.626139 
L 298.665149 155.793743 
L 299.690234 155.793743 
L 299.690234 151.961347 
L 302.907444 151.961347 
L 302.907444 148.12895 
L 308.492553 148.12895 
L 308.492553 144.296554 
L 315.863548 144.296554 
L 315.863548 140.464158 
L 321.358791 140.464158 
L 321.358791 136.631762 
L 321.493746 136.631762 
L 321.493746 132.799366 
L 322.154043 132.799366 
L 322.154043 128.96697 
L 322.338579 128.96697 
L 322.338579 125.134574 
L 325.327236 125.134574 
L 325.385016 117.469782 
L 327.333117 117.469782 
L 327.333117 113.637386 
L 327.539367 113.637386 
L 327.539367 109.80499 
L 329.477806 109.80499 
L 329.477806 105.972594 
L 330.642479 105.972594 
L 330.642479 102.140198 
L 333.352345 102.140198 
L 333.352345 98.307802 
L 334.02065 98.307802 
L 334.02065 94.475406 
L 334.841208 94.475406 
L 334.841208 90.64301 
L 337.068179 90.64301 
L 337.068179 86.810614 
L 337.685582 86.810614 
L 337.685582 82.978218 
L 338.575512 82.978218 
L 338.575512 79.145822 
L 341.566235 79.145822 
L 341.566235 75.313426 
L 341.897542 75.313426 
L 341.897542 71.48103 
L 343.503517 71.48103 
L 343.503517 67.648634 
L 349.822316 67.648634 
L 349.822316 63.816238 
L 372.253172 63.816238 
L 372.253172 59.983842 
L 380.381477 59.983842 
L 380.381477 56.151446 
L 381.035928 56.151446 
L 381.075372 48.486653 
L 381.314221 48.486653 
L 381.314221 44.654257 
L 385.411321 44.654257 
L 385.411321 40.821861 
L 385.629839 40.821861 
L 385.629839 36.989465 
L 386.69437 36.989465 
L 386.69437 33.157069 
L 387.188201 33.157069 
L 387.188201 29.324673 
L 388.636064 29.324673 
L 388.636064 25.492277 
L 388.979521 25.492277 
L 389.05668 13.995089 
L 392.136396 13.995089 
L 392.136396 10.162693 
L 401.988686 10.162693 
L 401.988686 6.330297 
L 401.988686 6.330297 
L 460.8 6.330297 
L 460.8 6.330297 
" style="fill:none;stroke:#00bfbf;stroke-linecap:square;stroke-width:1.5;"/>
   </g>
   <g id="line2d_26">
    <path clip-path="url(#pc699757d5b)" d="M 208.302728 293.76 
L 208.302728 289.927604 
L 216.057888 289.927604 
L 216.057888 286.095208 
L 219.78488 286.095208 
L 219.78488 282.262812 
L 220.133104 282.262812 
L 220.133104 278.430416 
L 221.403022 278.430416 
L 221.403022 274.59802 
L 221.533401 274.59802 
L 221.533401 270.765624 
L 222.586872 270.765624 
L 222.586872 266.933228 
L 223.278292 266.933228 
L 223.278292 263.100832 
L 226.5453 263.100832 
L 226.5453 259.268436 
L 229.304411 259.268436 
L 229.304411 255.43604 
L 231.637138 255.43604 
L 231.637138 251.603644 
L 231.959904 251.603644 
L 231.959904 247.771248 
L 232.221836 247.771248 
L 232.221836 243.938851 
L 232.952203 243.938851 
L 232.952203 240.106455 
L 236.909635 240.106455 
L 236.909635 236.274059 
L 257.574808 236.274059 
L 257.574808 232.441663 
L 261.589507 232.441663 
L 261.589507 228.609267 
L 264.545663 228.609267 
L 264.545663 224.776871 
L 269.988703 224.776871 
L 269.988703 220.944475 
L 271.918087 220.944475 
L 272.010961 213.279683 
L 273.084153 213.279683 
L 273.084153 209.447287 
L 274.474747 209.447287 
L 274.474747 205.614891 
L 275.339786 205.614891 
L 275.439464 197.950099 
L 275.902115 197.950099 
L 275.962473 190.285307 
L 276.475404 190.285307 
L 276.572877 182.620515 
L 276.75799 182.620515 
L 276.75799 178.788119 
L 277.229873 178.788119 
L 277.229873 174.955723 
L 277.782679 174.955723 
L 277.782679 171.123327 
L 278.906441 171.123327 
L 278.906441 167.290931 
L 279.654323 167.290931 
L 279.654323 163.458535 
L 280.648971 163.458535 
L 280.648971 159.626139 
L 282.041057 159.626139 
L 282.118617 151.961347 
L 298.069976 151.961347 
L 298.069976 148.12895 
L 298.665149 148.12895 
L 298.665149 144.296554 
L 299.690234 144.296554 
L 299.690234 140.464158 
L 302.907444 140.464158 
L 302.907444 136.631762 
L 311.703505 136.631762 
L 311.703505 132.799366 
L 315.863548 132.799366 
L 315.863548 128.96697 
L 317.277352 128.96697 
L 317.277352 125.134574 
L 319.27287 125.134574 
L 319.27287 121.302178 
L 320.692751 121.302178 
L 320.692751 117.469782 
L 321.902156 117.469782 
L 321.902156 113.637386 
L 322.338579 113.637386 
L 322.338579 109.80499 
L 325.327236 109.80499 
L 325.385016 102.140198 
L 327.539367 102.140198 
L 327.539367 98.307802 
L 329.392624 98.307802 
L 329.477806 90.64301 
L 329.9475 90.64301 
L 329.9475 86.810614 
L 330.232841 86.810614 
L 330.232841 82.978218 
L 334.841208 82.978218 
L 334.841208 79.145822 
L 337.068179 79.145822 
L 337.068179 75.313426 
L 338.575512 75.313426 
L 338.575512 71.48103 
L 339.022107 71.48103 
L 339.022107 67.648634 
L 343.337984 67.648634 
L 343.337984 63.816238 
L 372.253172 63.816238 
L 372.253172 59.983842 
L 376.61874 59.983842 
L 376.61874 56.151446 
L 380.381477 56.151446 
L 380.381477 52.31905 
L 381.035928 52.31905 
L 381.075372 44.654257 
L 384.782592 44.654257 
L 384.782592 40.821861 
L 385.411321 40.821861 
L 385.411321 36.989465 
L 386.69437 36.989465 
L 386.69437 33.157069 
L 387.188201 33.157069 
L 387.188201 29.324673 
L 387.518193 29.324673 
L 387.518193 25.492277 
L 388.636064 25.492277 
L 388.636064 21.659881 
L 388.979521 21.659881 
L 389.05668 10.162693 
L 400.114422 10.162693 
L 400.114422 6.330297 
L 400.114422 6.330297 
L 460.8 6.330297 
L 460.8 6.330297 
" style="fill:none;stroke:#bf00bf;stroke-linecap:square;stroke-width:1.5;"/>
   </g>
   <g id="patch_3">
    <path d="M 0 293.76 
L 0 3.456 
" style="fill:none;stroke:#000000;stroke-linecap:square;stroke-linejoin:miter;stroke-width:0.8;"/>
   </g>
   <g id="patch_4">
    <path d="M 460.8 293.76 
L 460.8 3.456 
" style="fill:none;stroke:#000000;stroke-linecap:square;stroke-linejoin:miter;stroke-width:0.8;"/>
   </g>
   <g id="patch_5">
    <path d="M 0 293.76 
L 460.8 293.76 
" style="fill:none;stroke:#000000;stroke-linecap:square;stroke-linejoin:miter;stroke-width:0.8;"/>
   </g>
   <g id="patch_6">
    <path d="M 0 3.456 
L 460.8 3.456 
" style="fill:none;stroke:#000000;stroke-linecap:square;stroke-linejoin:miter;stroke-width:0.8;"/>
   </g>
   <g id="text_6">
    <!-- {f10-f14}, 5-D -->
    <defs>
     <path d="M 51.125 -9.28125 
L 51.125 -16.3125 
L 48.09375 -16.3125 
Q 35.9375 -16.3125 31.8125 -12.6875 
Q 27.6875 -9.078125 27.6875 1.703125 
L 27.6875 13.375 
Q 27.6875 20.75 25.046875 23.578125 
Q 22.40625 26.421875 15.484375 26.421875 
L 12.5 26.421875 
L 12.5 33.40625 
L 15.484375 33.40625 
Q 22.46875 33.40625 25.078125 36.203125 
Q 27.6875 39.015625 27.6875 46.296875 
L 27.6875 58.015625 
Q 27.6875 68.796875 31.8125 72.390625 
Q 35.9375 75.984375 48.09375 75.984375 
L 51.125 75.984375 
L 51.125 69 
L 47.796875 69 
Q 40.921875 69 38.8125 66.84375 
Q 36.71875 64.703125 36.71875 57.8125 
L 36.71875 45.703125 
Q 36.71875 38.03125 34.5 34.5625 
Q 32.28125 31.109375 26.90625 29.890625 
Q 32.328125 28.5625 34.515625 25.09375 
Q 36.71875 21.625 36.71875 14.015625 
L 36.71875 1.90625 
Q 36.71875 -4.984375 38.8125 -7.125 
Q 40.921875 -9.28125 47.796875 -9.28125 
z
" id="DejaVuSans-123"/>
     <path d="M 12.5 -9.28125 
L 15.921875 -9.28125 
Q 22.75 -9.28125 24.828125 -7.171875 
Q 26.90625 -5.078125 26.90625 1.90625 
L 26.90625 14.015625 
Q 26.90625 21.625 29.09375 25.09375 
Q 31.296875 28.5625 36.71875 29.890625 
Q 31.296875 31.109375 29.09375 34.5625 
Q 26.90625 38.03125 26.90625 45.703125 
L 26.90625 57.8125 
Q 26.90625 64.75 24.828125 66.875 
Q 22.75 69 15.921875 69 
L 12.5 69 
L 12.5 75.984375 
L 15.578125 75.984375 
Q 27.734375 75.984375 31.8125 72.390625 
Q 35.890625 68.796875 35.890625 58.015625 
L 35.890625 46.296875 
Q 35.890625 39.015625 38.515625 36.203125 
Q 41.15625 33.40625 48.09375 33.40625 
L 51.125 33.40625 
L 51.125 26.421875 
L 48.09375 26.421875 
Q 41.15625 26.421875 38.515625 23.578125 
Q 35.890625 20.75 35.890625 13.375 
L 35.890625 1.703125 
Q 35.890625 -9.078125 31.8125 -12.6875 
Q 27.734375 -16.3125 15.578125 -16.3125 
L 12.5 -16.3125 
z
" id="DejaVuSans-125"/>
     <path d="M 11.71875 12.40625 
L 22.015625 12.40625 
L 22.015625 4 
L 14.015625 -11.625 
L 7.71875 -11.625 
L 11.71875 4 
z
" id="DejaVuSans-44"/>
     <path d="M 10.796875 72.90625 
L 49.515625 72.90625 
L 49.515625 64.59375 
L 19.828125 64.59375 
L 19.828125 46.734375 
Q 21.96875 47.46875 24.109375 47.828125 
Q 26.265625 48.1875 28.421875 48.1875 
Q 40.625 48.1875 47.75 41.5 
Q 54.890625 34.8125 54.890625 23.390625 
Q 54.890625 11.625 47.5625 5.09375 
Q 40.234375 -1.421875 26.90625 -1.421875 
Q 22.3125 -1.421875 17.546875 -0.640625 
Q 12.796875 0.140625 7.71875 1.703125 
L 7.71875 11.625 
Q 12.109375 9.234375 16.796875 8.0625 
Q 21.484375 6.890625 26.703125 6.890625 
Q 35.15625 6.890625 40.078125 11.328125 
Q 45.015625 15.765625 45.015625 23.390625 
Q 45.015625 31 40.078125 35.4375 
Q 35.15625 39.890625 26.703125 39.890625 
Q 22.75 39.890625 18.8125 39.015625 
Q 14.890625 38.140625 10.796875 36.28125 
z
" id="DejaVuSans-53"/>
    </defs>
    <g transform="translate(305.884 287.95392)scale(0.2 -0.2)">
     <use xlink:href="#DejaVuSans-123"/>
     <use x="63.623047" xlink:href="#DejaVuSans-102"/>
     <use x="98.828125" xlink:href="#DejaVuSans-49"/>
     <use x="162.451172" xlink:href="#DejaVuSans-48"/>
     <use x="226.074219" xlink:href="#DejaVuSans-45"/>
     <use x="262.158203" xlink:href="#DejaVuSans-102"/>
     <use x="297.363281" xlink:href="#DejaVuSans-49"/>
     <use x="360.986328" xlink:href="#DejaVuSans-52"/>
     <use x="424.609375" xlink:href="#DejaVuSans-125"/>
     <use x="488.232422" xlink:href="#DejaVuSans-44"/>
     <use x="520.019531" xlink:href="#DejaVuSans-32"/>
     <use x="551.806641" xlink:href="#DejaVuSans-53"/>
     <use x="615.429688" xlink:href="#DejaVuSans-45"/>
     <use x="651.513672" xlink:href="#DejaVuSans-68"/>
    </g>
   </g>
   <g id="text_7">
    <!-- v2.4 -->
    <defs>
     <path d="M 2.984375 54.6875 
L 12.5 54.6875 
L 29.59375 8.796875 
L 46.6875 54.6875 
L 56.203125 54.6875 
L 35.6875 0 
L 23.484375 0 
z
" id="DejaVuSans-118"/>
     <path d="M 19.1875 8.296875 
L 53.609375 8.296875 
L 53.609375 0 
L 7.328125 0 
L 7.328125 8.296875 
Q 12.9375 14.109375 22.625 23.890625 
Q 32.328125 33.6875 34.8125 36.53125 
Q 39.546875 41.84375 41.421875 45.53125 
Q 43.3125 49.21875 43.3125 52.78125 
Q 43.3125 58.59375 39.234375 62.25 
Q 35.15625 65.921875 28.609375 65.921875 
Q 23.96875 65.921875 18.8125 64.3125 
Q 13.671875 62.703125 7.8125 59.421875 
L 7.8125 69.390625 
Q 13.765625 71.78125 18.9375 73 
Q 24.125 74.21875 28.421875 74.21875 
Q 39.75 74.21875 46.484375 68.546875 
Q 53.21875 62.890625 53.21875 53.421875 
Q 53.21875 48.921875 51.53125 44.890625 
Q 49.859375 40.875 45.40625 35.40625 
Q 44.1875 33.984375 37.640625 27.21875 
Q 31.109375 20.453125 19.1875 8.296875 
z
" id="DejaVuSans-50"/>
     <path d="M 10.6875 12.40625 
L 21 12.40625 
L 21 0 
L 10.6875 0 
z
" id="DejaVuSans-46"/>
    </defs>
    <g style="fill:#808080;" transform="translate(219.489063 288.777272)scale(0.1 -0.1)">
     <use xlink:href="#DejaVuSans-118"/>
     <use x="59.179688" xlink:href="#DejaVuSans-50"/>
     <use x="122.802734" xlink:href="#DejaVuSans-46"/>
     <use x="154.589844" xlink:href="#DejaVuSans-52"/>
    </g>
   </g>
  </g>
 </g>
 <defs>
  <clipPath id="pc699757d5b">
   <rect height="290.304" width="460.8" x="0" y="3.456"/>
  </clipPath>
 </defs>
</svg>
