<?xml version="1.0" encoding="utf-8" standalone="no"?>
<!DOCTYPE svg PUBLIC "-//W3C//DTD SVG 1.1//EN"
  "http://www.w3.org/Graphics/SVG/1.1/DTD/svg11.dtd">
<!-- Created with matplotlib (https://matplotlib.org/) -->
<svg height="345.6pt" version="1.1" viewBox="0 0 460.8 345.6" width="460.8pt" xmlns="http://www.w3.org/2000/svg" xmlns:xlink="http://www.w3.org/1999/xlink">
 <defs>
  <style type="text/css">
*{stroke-linecap:butt;stroke-linejoin:round;}
  </style>
 </defs>
 <g id="figure_1">
  <g id="patch_1">
   <path d="M 0 345.6 
L 460.8 345.6 
L 460.8 0 
L 0 0 
z
" style="fill:#ffffff;"/>
  </g>
  <g id="axes_1">
   <g id="patch_2">
    <path d="M 0 293.76 
L 460.8 293.76 
L 460.8 3.456 
L 0 3.456 
z
" style="fill:#ffffff;"/>
   </g>
   <g id="matplotlib.axis_1">
    <g id="xtick_1">
     <g id="line2d_1">
      <path clip-path="url(#p7991bc2bdb)" d="M 104.034439 293.76 
L 104.034439 3.456 
" style="fill:none;stroke:#b0b0b0;stroke-linecap:square;stroke-width:0.8;"/>
     </g>
     <g id="line2d_2">
      <defs>
       <path d="M 0 0 
L 0 3.5 
" id="m75f42b748f" style="stroke:#000000;stroke-width:0.8;"/>
      </defs>
      <g>
       <use style="stroke:#000000;stroke-width:0.8;" x="104.034439" xlink:href="#m75f42b748f" y="293.76"/>
      </g>
     </g>
     <g id="text_1">
      <!-- -4 -->
      <defs>
       <path d="M 4.890625 31.390625 
L 31.203125 31.390625 
L 31.203125 23.390625 
L 4.890625 23.390625 
z
" id="DejaVuSans-45"/>
       <path d="M 37.796875 64.3125 
L 12.890625 25.390625 
L 37.796875 25.390625 
z
M 35.203125 72.90625 
L 47.609375 72.90625 
L 47.609375 25.390625 
L 58.015625 25.390625 
L 58.015625 17.1875 
L 47.609375 17.1875 
L 47.609375 0 
L 37.796875 0 
L 37.796875 17.1875 
L 4.890625 17.1875 
L 4.890625 26.703125 
z
" id="DejaVuSans-52"/>
      </defs>
      <g transform="translate(94.064127 315.956875)scale(0.2 -0.2)">
       <use xlink:href="#DejaVuSans-45"/>
       <use x="36.083984" xlink:href="#DejaVuSans-52"/>
      </g>
     </g>
    </g>
    <g id="xtick_2">
     <g id="line2d_3">
      <path clip-path="url(#p7991bc2bdb)" d="M 208.181393 293.76 
L 208.181393 3.456 
" style="fill:none;stroke:#b0b0b0;stroke-linecap:square;stroke-width:0.8;"/>
     </g>
     <g id="line2d_4">
      <g>
       <use style="stroke:#000000;stroke-width:0.8;" x="208.181393" xlink:href="#m75f42b748f" y="293.76"/>
      </g>
     </g>
     <g id="text_2">
      <!-- 0 -->
      <defs>
       <path d="M 31.78125 66.40625 
Q 24.171875 66.40625 20.328125 58.90625 
Q 16.5 51.421875 16.5 36.375 
Q 16.5 21.390625 20.328125 13.890625 
Q 24.171875 6.390625 31.78125 6.390625 
Q 39.453125 6.390625 43.28125 13.890625 
Q 47.125 21.390625 47.125 36.375 
Q 47.125 51.421875 43.28125 58.90625 
Q 39.453125 66.40625 31.78125 66.40625 
z
M 31.78125 74.21875 
Q 44.046875 74.21875 50.515625 64.515625 
Q 56.984375 54.828125 56.984375 36.375 
Q 56.984375 17.96875 50.515625 8.265625 
Q 44.046875 -1.421875 31.78125 -1.421875 
Q 19.53125 -1.421875 13.0625 8.265625 
Q 6.59375 17.96875 6.59375 36.375 
Q 6.59375 54.828125 13.0625 64.515625 
Q 19.53125 74.21875 31.78125 74.21875 
z
" id="DejaVuSans-48"/>
      </defs>
      <g transform="translate(201.818893 315.956875)scale(0.2 -0.2)">
       <use xlink:href="#DejaVuSans-48"/>
      </g>
     </g>
    </g>
    <g id="xtick_3">
     <g id="line2d_5">
      <path clip-path="url(#p7991bc2bdb)" d="M 312.328346 293.76 
L 312.328346 3.456 
" style="fill:none;stroke:#b0b0b0;stroke-linecap:square;stroke-width:0.8;"/>
     </g>
     <g id="line2d_6">
      <g>
       <use style="stroke:#000000;stroke-width:0.8;" x="312.328346" xlink:href="#m75f42b748f" y="293.76"/>
      </g>
     </g>
     <g id="text_3">
      <!-- 4 -->
      <g transform="translate(305.965846 315.956875)scale(0.2 -0.2)">
       <use xlink:href="#DejaVuSans-52"/>
      </g>
     </g>
    </g>
    <g id="xtick_4">
     <g id="line2d_7">
      <path clip-path="url(#p7991bc2bdb)" d="M 416.4753 293.76 
L 416.4753 3.456 
" style="fill:none;stroke:#b0b0b0;stroke-linecap:square;stroke-width:0.8;"/>
     </g>
     <g id="line2d_8">
      <g>
       <use style="stroke:#000000;stroke-width:0.8;" x="416.4753" xlink:href="#m75f42b748f" y="293.76"/>
      </g>
     </g>
     <g id="text_4">
      <!-- 8 -->
      <defs>
       <path d="M 31.78125 34.625 
Q 24.75 34.625 20.71875 30.859375 
Q 16.703125 27.09375 16.703125 20.515625 
Q 16.703125 13.921875 20.71875 10.15625 
Q 24.75 6.390625 31.78125 6.390625 
Q 38.8125 6.390625 42.859375 10.171875 
Q 46.921875 13.96875 46.921875 20.515625 
Q 46.921875 27.09375 42.890625 30.859375 
Q 38.875 34.625 31.78125 34.625 
z
M 21.921875 38.8125 
Q 15.578125 40.375 12.03125 44.71875 
Q 8.5 49.078125 8.5 55.328125 
Q 8.5 64.0625 14.71875 69.140625 
Q 20.953125 74.21875 31.78125 74.21875 
Q 42.671875 74.21875 48.875 69.140625 
Q 55.078125 64.0625 55.078125 55.328125 
Q 55.078125 49.078125 51.53125 44.71875 
Q 48 40.375 41.703125 38.8125 
Q 48.828125 37.15625 52.796875 32.3125 
Q 56.78125 27.484375 56.78125 20.515625 
Q 56.78125 9.90625 50.3125 4.234375 
Q 43.84375 -1.421875 31.78125 -1.421875 
Q 19.734375 -1.421875 13.25 4.234375 
Q 6.78125 9.90625 6.78125 20.515625 
Q 6.78125 27.484375 10.78125 32.3125 
Q 14.796875 37.15625 21.921875 38.8125 
z
M 18.3125 54.390625 
Q 18.3125 48.734375 21.84375 45.5625 
Q 25.390625 42.390625 31.78125 42.390625 
Q 38.140625 42.390625 41.71875 45.5625 
Q 45.3125 48.734375 45.3125 54.390625 
Q 45.3125 60.0625 41.71875 63.234375 
Q 38.140625 66.40625 31.78125 66.40625 
Q 25.390625 66.40625 21.84375 63.234375 
Q 18.3125 60.0625 18.3125 54.390625 
z
" id="DejaVuSans-56"/>
      </defs>
      <g transform="translate(410.1128 315.956875)scale(0.2 -0.2)">
       <use xlink:href="#DejaVuSans-56"/>
      </g>
     </g>
    </g>
    <g id="text_5">
     <!-- log10 of Df -->
     <defs>
      <path d="M 9.421875 75.984375 
L 18.40625 75.984375 
L 18.40625 0 
L 9.421875 0 
z
" id="DejaVuSans-108"/>
      <path d="M 30.609375 48.390625 
Q 23.390625 48.390625 19.1875 42.75 
Q 14.984375 37.109375 14.984375 27.296875 
Q 14.984375 17.484375 19.15625 11.84375 
Q 23.34375 6.203125 30.609375 6.203125 
Q 37.796875 6.203125 41.984375 11.859375 
Q 46.1875 17.53125 46.1875 27.296875 
Q 46.1875 37.015625 41.984375 42.703125 
Q 37.796875 48.390625 30.609375 48.390625 
z
M 30.609375 56 
Q 42.328125 56 49.015625 48.375 
Q 55.71875 40.765625 55.71875 27.296875 
Q 55.71875 13.875 49.015625 6.21875 
Q 42.328125 -1.421875 30.609375 -1.421875 
Q 18.84375 -1.421875 12.171875 6.21875 
Q 5.515625 13.875 5.515625 27.296875 
Q 5.515625 40.765625 12.171875 48.375 
Q 18.84375 56 30.609375 56 
z
" id="DejaVuSans-111"/>
      <path d="M 45.40625 27.984375 
Q 45.40625 37.75 41.375 43.109375 
Q 37.359375 48.484375 30.078125 48.484375 
Q 22.859375 48.484375 18.828125 43.109375 
Q 14.796875 37.75 14.796875 27.984375 
Q 14.796875 18.265625 18.828125 12.890625 
Q 22.859375 7.515625 30.078125 7.515625 
Q 37.359375 7.515625 41.375 12.890625 
Q 45.40625 18.265625 45.40625 27.984375 
z
M 54.390625 6.78125 
Q 54.390625 -7.171875 48.1875 -13.984375 
Q 42 -20.796875 29.203125 -20.796875 
Q 24.46875 -20.796875 20.265625 -20.09375 
Q 16.0625 -19.390625 12.109375 -17.921875 
L 12.109375 -9.1875 
Q 16.0625 -11.328125 19.921875 -12.34375 
Q 23.78125 -13.375 27.78125 -13.375 
Q 36.625 -13.375 41.015625 -8.765625 
Q 45.40625 -4.15625 45.40625 5.171875 
L 45.40625 9.625 
Q 42.625 4.78125 38.28125 2.390625 
Q 33.9375 0 27.875 0 
Q 17.828125 0 11.671875 7.65625 
Q 5.515625 15.328125 5.515625 27.984375 
Q 5.515625 40.671875 11.671875 48.328125 
Q 17.828125 56 27.875 56 
Q 33.9375 56 38.28125 53.609375 
Q 42.625 51.21875 45.40625 46.390625 
L 45.40625 54.6875 
L 54.390625 54.6875 
z
" id="DejaVuSans-103"/>
      <path d="M 12.40625 8.296875 
L 28.515625 8.296875 
L 28.515625 63.921875 
L 10.984375 60.40625 
L 10.984375 69.390625 
L 28.421875 72.90625 
L 38.28125 72.90625 
L 38.28125 8.296875 
L 54.390625 8.296875 
L 54.390625 0 
L 12.40625 0 
z
" id="DejaVuSans-49"/>
      <path id="DejaVuSans-32"/>
      <path d="M 37.109375 75.984375 
L 37.109375 68.5 
L 28.515625 68.5 
Q 23.6875 68.5 21.796875 66.546875 
Q 19.921875 64.59375 19.921875 59.515625 
L 19.921875 54.6875 
L 34.71875 54.6875 
L 34.71875 47.703125 
L 19.921875 47.703125 
L 19.921875 0 
L 10.890625 0 
L 10.890625 47.703125 
L 2.296875 47.703125 
L 2.296875 54.6875 
L 10.890625 54.6875 
L 10.890625 58.5 
Q 10.890625 67.625 15.140625 71.796875 
Q 19.390625 75.984375 28.609375 75.984375 
z
" id="DejaVuSans-102"/>
      <path d="M 19.671875 64.796875 
L 19.671875 8.109375 
L 31.59375 8.109375 
Q 46.6875 8.109375 53.6875 14.9375 
Q 60.6875 21.78125 60.6875 36.53125 
Q 60.6875 51.171875 53.6875 57.984375 
Q 46.6875 64.796875 31.59375 64.796875 
z
M 9.8125 72.90625 
L 30.078125 72.90625 
Q 51.265625 72.90625 61.171875 64.09375 
Q 71.09375 55.28125 71.09375 36.53125 
Q 71.09375 17.671875 61.125 8.828125 
Q 51.171875 0 30.078125 0 
L 9.8125 0 
z
" id="DejaVuSans-68"/>
     </defs>
     <g transform="translate(175.214063 339.313125)scale(0.2 -0.2)">
      <use xlink:href="#DejaVuSans-108"/>
      <use x="27.783203" xlink:href="#DejaVuSans-111"/>
      <use x="88.964844" xlink:href="#DejaVuSans-103"/>
      <use x="152.441406" xlink:href="#DejaVuSans-49"/>
      <use x="216.064453" xlink:href="#DejaVuSans-48"/>
      <use x="279.6875" xlink:href="#DejaVuSans-32"/>
      <use x="311.474609" xlink:href="#DejaVuSans-111"/>
      <use x="372.65625" xlink:href="#DejaVuSans-102"/>
      <use x="407.861328" xlink:href="#DejaVuSans-32"/>
      <use x="439.648438" xlink:href="#DejaVuSans-68"/>
      <use x="516.650391" xlink:href="#DejaVuSans-102"/>
     </g>
    </g>
   </g>
   <g id="matplotlib.axis_2">
    <g id="ytick_1">
     <g id="line2d_9">
      <path clip-path="url(#p7991bc2bdb)" d="M 0 293.76 
L 460.8 293.76 
" style="fill:none;stroke:#b0b0b0;stroke-linecap:square;stroke-width:0.8;"/>
     </g>
     <g id="line2d_10">
      <defs>
       <path d="M 0 0 
L -3.5 0 
" id="m7ccc004da8" style="stroke:#000000;stroke-width:0.8;"/>
      </defs>
      <g>
       <use style="stroke:#000000;stroke-width:0.8;" x="0" xlink:href="#m7ccc004da8" y="293.76"/>
      </g>
     </g>
    </g>
    <g id="ytick_2">
     <g id="line2d_11">
      <path clip-path="url(#p7991bc2bdb)" d="M 0 236.274059 
L 460.8 236.274059 
" style="fill:none;stroke:#b0b0b0;stroke-linecap:square;stroke-width:0.8;"/>
     </g>
     <g id="line2d_12">
      <g>
       <use style="stroke:#000000;stroke-width:0.8;" x="0" xlink:href="#m7ccc004da8" y="236.274059"/>
      </g>
     </g>
    </g>
    <g id="ytick_3">
     <g id="line2d_13">
      <path clip-path="url(#p7991bc2bdb)" d="M 0 178.788119 
L 460.8 178.788119 
" style="fill:none;stroke:#b0b0b0;stroke-linecap:square;stroke-width:0.8;"/>
     </g>
     <g id="line2d_14">
      <g>
       <use style="stroke:#000000;stroke-width:0.8;" x="0" xlink:href="#m7ccc004da8" y="178.788119"/>
      </g>
     </g>
    </g>
    <g id="ytick_4">
     <g id="line2d_15">
      <path clip-path="url(#p7991bc2bdb)" d="M 0 121.302178 
L 460.8 121.302178 
" style="fill:none;stroke:#b0b0b0;stroke-linecap:square;stroke-width:0.8;"/>
     </g>
     <g id="line2d_16">
      <g>
       <use style="stroke:#000000;stroke-width:0.8;" x="0" xlink:href="#m7ccc004da8" y="121.302178"/>
      </g>
     </g>
    </g>
    <g id="ytick_5">
     <g id="line2d_17">
      <path clip-path="url(#p7991bc2bdb)" d="M 0 63.816238 
L 460.8 63.816238 
" style="fill:none;stroke:#b0b0b0;stroke-linecap:square;stroke-width:0.8;"/>
     </g>
     <g id="line2d_18">
      <g>
       <use style="stroke:#000000;stroke-width:0.8;" x="0" xlink:href="#m7ccc004da8" y="63.816238"/>
      </g>
     </g>
    </g>
    <g id="ytick_6">
     <g id="line2d_19">
      <path clip-path="url(#p7991bc2bdb)" d="M 0 6.330297 
L 460.8 6.330297 
" style="fill:none;stroke:#b0b0b0;stroke-linecap:square;stroke-width:0.8;"/>
     </g>
     <g id="line2d_20">
      <g>
       <use style="stroke:#000000;stroke-width:0.8;" x="0" xlink:href="#m7ccc004da8" y="6.330297"/>
      </g>
     </g>
    </g>
   </g>
   <g id="line2d_21">
    <path clip-path="url(#p7991bc2bdb)" d="M 207.890149 293.76 
L 207.890149 292.961584 
L 208.302728 292.961584 
L 208.302728 292.163168 
L 211.419542 292.163168 
L 211.419542 291.364752 
L 212.314167 291.364752 
L 212.314167 290.566337 
L 215.928568 290.566337 
L 215.928568 289.767921 
L 216.057888 289.767921 
L 216.057888 288.969505 
L 216.777472 288.969505 
L 216.777472 288.171089 
L 217.376527 288.171089 
L 217.376527 287.372673 
L 218.38013 287.372673 
L 218.38013 286.574257 
L 218.829733 286.574257 
L 218.829733 285.775842 
L 219.399197 285.775842 
L 219.399197 284.977426 
L 219.561097 284.977426 
L 219.561097 284.17901 
L 219.78488 284.17901 
L 219.78488 283.380594 
L 220.133104 283.380594 
L 220.133104 282.582178 
L 220.929928 282.582178 
L 220.929928 281.783762 
L 221.120686 281.783762 
L 221.120686 280.985347 
L 221.234994 280.985347 
L 221.234994 280.186931 
L 221.403022 280.186931 
L 221.425728 278.590099 
L 221.533401 278.590099 
L 221.544186 276.993267 
L 221.801369 276.993267 
L 221.892142 275.396436 
L 222.395033 275.396436 
L 222.502054 273.799604 
L 222.50795 273.799604 
L 222.586872 272.202772 
L 222.640394 272.202772 
L 222.640394 271.404356 
L 222.869811 271.404356 
L 222.88816 269.807525 
L 223.278292 269.807525 
L 223.278292 269.009109 
L 223.85739 269.009109 
L 223.85739 268.210693 
L 224.180462 268.210693 
L 224.180462 267.412277 
L 224.412789 267.412277 
L 224.412789 266.613861 
L 224.705437 266.613861 
L 224.70994 265.01703 
L 225.540592 265.01703 
L 225.540592 264.218614 
L 225.71443 264.218614 
L 225.820622 262.621782 
L 225.827372 262.621782 
L 225.827372 261.823366 
L 226.20082 261.823366 
L 226.278387 260.226535 
L 226.378954 260.226535 
L 226.41138 258.629703 
L 226.5453 258.629703 
L 226.65541 257.032871 
L 226.900869 257.032871 
L 226.919201 255.43604 
L 227.651245 255.43604 
L 227.687436 253.839208 
L 227.823348 253.839208 
L 227.825823 252.242376 
L 228.032664 252.242376 
L 228.039868 250.645545 
L 228.479459 250.645545 
L 228.479459 249.847129 
L 229.304411 249.847129 
L 229.360954 247.451881 
L 229.472596 247.451881 
L 229.472596 246.653465 
L 229.793634 246.653465 
L 229.793634 245.85505 
L 230.064243 245.85505 
L 230.064243 245.056634 
L 230.231724 245.056634 
L 230.231724 244.258218 
L 230.467214 244.258218 
L 230.570211 241.86297 
L 231.25103 241.86297 
L 231.25103 241.064554 
L 231.417527 241.064554 
L 231.417527 240.266139 
L 231.637138 240.266139 
L 231.637138 239.467723 
L 231.786795 239.467723 
L 231.786795 238.669307 
L 231.959904 238.669307 
L 232.01267 236.274059 
L 232.178053 236.274059 
L 232.271941 233.878812 
L 232.310691 233.878812 
L 232.310691 233.080396 
L 232.459172 233.080396 
L 232.459172 232.28198 
L 232.903436 232.28198 
L 232.952203 230.685149 
L 233.198142 230.685149 
L 233.258289 228.289901 
L 233.426104 228.289901 
L 233.494735 226.693069 
L 233.554459 226.693069 
L 233.554459 225.894653 
L 234.11374 225.894653 
L 234.186 223.499406 
L 234.554361 223.499406 
L 234.554878 221.902574 
L 234.737095 221.902574 
L 234.737095 221.104158 
L 234.971946 221.104158 
L 234.971946 220.305743 
L 235.10301 220.305743 
L 235.210118 217.910495 
L 235.234686 217.910495 
L 235.234686 217.112079 
L 235.56676 217.112079 
L 235.583377 215.515248 
L 235.728217 215.515248 
L 235.728217 214.716832 
L 235.92702 214.716832 
L 235.995157 213.12 
L 236.226692 213.12 
L 236.226692 212.321584 
L 236.909635 212.321584 
L 236.948819 210.724752 
L 237.626667 210.724752 
L 237.626667 209.926337 
L 237.85863 209.926337 
L 237.85863 209.127921 
L 237.969801 209.127921 
L 238.01457 207.531089 
L 238.170498 207.531089 
L 238.170498 206.732673 
L 238.664423 206.732673 
L 238.664423 205.934257 
L 238.881832 205.934257 
L 238.881832 205.135842 
L 239.188687 205.135842 
L 239.188687 204.337426 
L 239.615298 204.337426 
L 239.615298 203.53901 
L 240.022947 203.53901 
L 240.022947 202.740594 
L 240.783617 202.740594 
L 240.783617 201.942178 
L 241.027089 201.942178 
L 241.027089 201.143762 
L 241.286451 201.143762 
L 241.33685 199.546931 
L 242.456834 199.546931 
L 242.537159 197.151683 
L 242.855548 197.151683 
L 242.855548 196.353267 
L 243.073937 196.353267 
L 243.088654 194.756436 
L 243.334775 194.756436 
L 243.370342 191.562772 
L 243.57812 191.562772 
L 243.601953 189.965941 
L 243.757644 189.965941 
L 243.757644 189.167525 
L 244.027428 189.167525 
L 244.027428 188.369109 
L 244.517271 188.369109 
L 244.582103 186.772277 
L 244.69344 186.772277 
L 244.798477 184.37703 
L 245.065415 184.37703 
L 245.065415 183.578614 
L 245.492479 183.578614 
L 245.587388 181.183366 
L 245.768703 181.183366 
L 245.768703 180.38495 
L 246.053267 180.38495 
L 246.053267 179.586535 
L 246.246451 179.586535 
L 246.300174 177.989703 
L 246.537713 177.989703 
L 246.624014 176.392871 
L 246.929737 176.392871 
L 246.929737 175.594455 
L 247.244362 175.594455 
L 247.250052 173.997624 
L 247.482138 173.997624 
L 247.586772 171.602376 
L 247.785647 171.602376 
L 247.828886 170.005545 
L 247.911626 170.005545 
L 247.91568 168.408713 
L 248.113072 168.408713 
L 248.185723 166.811881 
L 248.357485 166.811881 
L 248.386523 165.21505 
L 248.862402 165.21505 
L 248.862402 164.416634 
L 249.159912 164.416634 
L 249.159912 163.618218 
L 249.303767 163.618218 
L 249.355743 161.22297 
L 249.424451 161.22297 
L 249.424451 160.424554 
L 250.621225 160.424554 
L 250.621225 159.626139 
L 250.942047 159.626139 
L 251.049693 158.029307 
L 251.182769 158.029307 
L 251.182769 157.230891 
L 251.320108 157.230891 
L 251.320108 156.432475 
L 251.522337 156.432475 
L 251.522337 155.634059 
L 251.772278 155.634059 
L 251.772278 154.835644 
L 252.205528 154.835644 
L 252.205528 154.037228 
L 252.424036 154.037228 
L 252.468671 152.440396 
L 252.740346 152.440396 
L 252.740346 151.64198 
L 252.951254 151.64198 
L 252.951254 150.843564 
L 253.518721 150.843564 
L 253.518721 150.045149 
L 253.735078 150.045149 
L 253.735078 149.246733 
L 254.06233 149.246733 
L 254.098462 147.649901 
L 254.295276 147.649901 
L 254.365164 146.053069 
L 254.632241 146.053069 
L 254.632241 145.254653 
L 254.830866 145.254653 
L 254.830866 144.456238 
L 255.076402 144.456238 
L 255.180774 142.859406 
L 255.266158 142.859406 
L 255.335815 140.464158 
L 255.441916 140.464158 
L 255.441916 139.665743 
L 255.566202 139.665743 
L 255.566202 138.867327 
L 255.871012 138.867327 
L 255.871012 138.068911 
L 256.015906 138.068911 
L 256.015906 137.270495 
L 256.182566 137.270495 
L 256.183018 135.673663 
L 256.527004 135.673663 
L 256.585234 133.278416 
L 257.311072 133.278416 
L 257.367107 131.681584 
L 257.440255 131.681584 
L 257.440255 130.883168 
L 257.574808 130.883168 
L 257.672157 129.286337 
L 257.707624 129.286337 
L 257.760475 127.689505 
L 257.855046 127.689505 
L 257.947365 125.294257 
L 257.991989 125.294257 
L 258.077071 123.697426 
L 258.347009 123.697426 
L 258.404599 122.100594 
L 258.466546 122.100594 
L 258.466546 121.302178 
L 258.629781 121.302178 
L 258.629781 120.503762 
L 259.105152 120.503762 
L 259.195581 118.108515 
L 259.406421 118.108515 
L 259.406421 117.310099 
L 259.672595 117.310099 
L 259.742434 114.914851 
L 259.986762 114.914851 
L 259.986762 114.116436 
L 260.208053 114.116436 
L 260.208053 113.31802 
L 260.366248 113.31802 
L 260.366248 112.519604 
L 260.500566 112.519604 
L 260.500566 111.721188 
L 261.015162 111.721188 
L 261.015162 110.922772 
L 261.402506 110.922772 
L 261.460978 109.325941 
L 261.589507 109.325941 
L 261.676802 107.729109 
L 261.742154 107.729109 
L 261.742154 106.930693 
L 261.972362 106.930693 
L 261.972362 106.132277 
L 262.308771 106.132277 
L 262.383609 104.535446 
L 262.437982 104.535446 
L 262.437982 103.73703 
L 262.867599 103.73703 
L 262.867599 102.938614 
L 263.701508 102.938614 
L 263.701508 102.140198 
L 264.545663 102.140198 
L 264.545663 101.341782 
L 264.881483 101.341782 
L 264.881483 100.543366 
L 265.289839 100.543366 
L 265.289839 99.74495 
L 267.282618 99.74495 
L 267.285518 98.148119 
L 268.316691 98.148119 
L 268.316691 97.349703 
L 268.70806 97.349703 
L 268.70806 96.551287 
L 269.499706 96.551287 
L 269.499706 95.752871 
L 269.784978 95.752871 
L 269.784978 94.954455 
L 269.988703 94.954455 
L 269.988703 94.15604 
L 270.759442 94.15604 
L 270.759442 93.357624 
L 271.918087 93.357624 
L 272.010961 91.760792 
L 272.360779 91.760792 
L 272.360779 90.962376 
L 272.69047 90.962376 
L 272.69047 90.16396 
L 273.084153 90.16396 
L 273.170045 88.567129 
L 274.474747 88.567129 
L 274.474747 87.768713 
L 274.816628 87.768713 
L 274.816628 86.970297 
L 275.339786 86.970297 
L 275.439464 85.373465 
L 275.902115 85.373465 
L 275.962473 83.776634 
L 276.282619 83.776634 
L 276.282619 82.978218 
L 276.468626 82.978218 
L 276.572877 80.58297 
L 276.676601 80.58297 
L 276.75799 78.986139 
L 276.934658 78.986139 
L 276.934658 78.187723 
L 277.229873 78.187723 
L 277.229873 77.389307 
L 277.782679 77.389307 
L 277.782679 76.590891 
L 278.015315 76.590891 
L 278.015315 75.792475 
L 278.256345 75.792475 
L 278.256345 74.994059 
L 278.906441 74.994059 
L 278.981796 73.397228 
L 279.654323 73.397228 
L 279.654323 72.598812 
L 279.831531 72.598812 
L 279.831531 71.800396 
L 280.648971 71.800396 
L 280.648971 71.00198 
L 282.041057 71.00198 
L 282.118617 69.405149 
L 282.208969 69.405149 
L 282.208969 68.606733 
L 283.485475 68.606733 
L 283.485475 67.808317 
L 283.817643 67.808317 
L 283.817643 67.009901 
L 284.417198 67.009901 
L 284.516065 65.413069 
L 285.352119 65.413069 
L 285.352119 64.614653 
L 287.220226 64.614653 
L 287.220226 63.816238 
L 287.48786 63.816238 
L 287.48786 63.017822 
L 287.849315 63.017822 
L 287.849315 62.219406 
L 291.646539 62.219406 
L 291.646539 61.42099 
L 291.899055 61.42099 
L 291.899055 60.622574 
L 293.824138 60.622574 
L 293.824138 59.824158 
L 294.233392 59.824158 
L 294.237066 58.227327 
L 295.849941 58.227327 
L 295.849941 57.428911 
L 297.85496 57.428911 
L 297.85496 56.630495 
L 298.069976 56.630495 
L 298.069976 55.832079 
L 298.665149 55.832079 
L 298.665149 55.033663 
L 299.638787 55.033663 
L 299.690234 53.436832 
L 299.864224 53.436832 
L 299.864224 52.638416 
L 301.270449 52.638416 
L 301.270449 51.84 
L 302.907444 51.84 
L 303.012001 50.243168 
L 303.210906 50.243168 
L 303.210906 49.444752 
L 303.844799 49.444752 
L 303.874977 47.847921 
L 307.238686 47.847921 
L 307.238686 47.049505 
L 308.099749 47.049505 
L 308.182937 45.452673 
L 311.703505 45.452673 
L 311.703505 44.654257 
L 315.863548 44.654257 
L 315.863548 43.855842 
L 317.05682 43.855842 
L 317.05682 43.057426 
L 317.277352 43.057426 
L 317.277352 42.25901 
L 318.972984 42.25901 
L 318.972984 41.460594 
L 319.27287 41.460594 
L 319.27287 40.662178 
L 320.692751 40.662178 
L 320.692751 39.863762 
L 321.386808 39.863762 
L 321.386808 39.065347 
L 321.902156 39.065347 
L 321.902156 38.266931 
L 322.338579 38.266931 
L 322.434745 36.670099 
L 324.686908 36.670099 
L 324.686908 35.871683 
L 325.327236 35.871683 
L 325.385016 34.274851 
L 327.03499 34.274851 
L 327.03499 33.476436 
L 327.539367 33.476436 
L 327.539367 32.67802 
L 329.392624 32.67802 
L 329.477806 31.081188 
L 329.9475 31.081188 
L 329.9475 30.282772 
L 330.232841 30.282772 
L 330.232841 29.484356 
L 332.70127 29.484356 
L 332.70127 28.685941 
L 333.172323 28.685941 
L 333.172323 27.887525 
L 334.841208 27.887525 
L 334.841208 27.089109 
L 337.068179 27.089109 
L 337.068179 26.290693 
L 337.380337 26.290693 
L 337.380337 25.492277 
L 338.575512 25.492277 
L 338.575512 24.693861 
L 338.908254 24.693861 
L 338.908254 23.895446 
L 339.022107 23.895446 
L 339.022107 23.09703 
L 339.864463 23.09703 
L 339.864463 22.298614 
L 339.9785 22.298614 
L 339.9785 21.500198 
L 341.375681 21.500198 
L 341.375681 20.701782 
L 343.327048 20.701782 
L 343.337984 19.10495 
L 346.452441 19.10495 
L 346.452441 18.306535 
L 372.253172 18.306535 
L 372.253172 17.508119 
L 376.61874 17.508119 
L 376.61874 16.709703 
L 380.381477 16.709703 
L 380.381477 15.911287 
L 381.035928 15.911287 
L 381.075372 14.314455 
L 384.782592 14.314455 
L 384.782592 13.51604 
L 385.411321 13.51604 
L 385.411321 12.717624 
L 386.69437 12.717624 
L 386.69437 11.919208 
L 387.188201 11.919208 
L 387.188201 11.120792 
L 387.518193 11.120792 
L 387.518193 10.322376 
L 388.636064 10.322376 
L 388.636064 9.52396 
L 388.979521 9.52396 
L 389.05668 7.128713 
L 400.114422 7.128713 
L 400.114422 6.330297 
L 400.114422 6.330297 
L 460.8 6.330297 
L 460.8 6.330297 
" style="fill:none;stroke:#ff0000;stroke-linecap:square;stroke-width:3;"/>
   </g>
   <g id="line2d_22">
    <path clip-path="url(#p7991bc2bdb)" d="M 227.775536 293.76 
L 227.775536 292.961584 
L 231.842345 292.961584 
L 231.842345 292.163168 
L 232.889227 292.163168 
L 232.889227 291.364752 
L 233.519101 291.364752 
L 233.519101 290.566337 
L 233.918088 290.566337 
L 233.918088 289.767921 
L 234.202129 289.767921 
L 234.202129 288.969505 
L 235.155592 288.969505 
L 235.155592 288.171089 
L 235.61048 288.171089 
L 235.61048 287.372673 
L 235.940529 287.372673 
L 235.940529 286.574257 
L 236.073624 286.574257 
L 236.073624 285.775842 
L 236.342211 285.775842 
L 236.446003 284.17901 
L 236.627088 284.17901 
L 236.627088 283.380594 
L 237.054788 283.380594 
L 237.054788 282.582178 
L 237.304653 282.582178 
L 237.304653 281.783762 
L 237.736058 281.783762 
L 237.736058 280.985347 
L 237.85863 280.985347 
L 237.85863 280.186931 
L 238.13159 280.186931 
L 238.13159 279.388515 
L 238.434375 279.388515 
L 238.434375 278.590099 
L 239.043839 278.590099 
L 239.043839 277.791683 
L 240.195053 277.791683 
L 240.195053 276.993267 
L 240.348596 276.993267 
L 240.348596 276.194851 
L 240.973778 276.194851 
L 240.973778 275.396436 
L 241.122646 275.396436 
L 241.142501 273.001188 
L 241.341379 273.001188 
L 241.341379 272.202772 
L 241.457819 272.202772 
L 241.479426 270.605941 
L 241.718023 270.605941 
L 241.804054 269.009109 
L 242.001631 269.009109 
L 242.066662 266.613861 
L 242.311699 266.613861 
L 242.311699 265.815446 
L 242.455378 265.815446 
L 242.491319 264.218614 
L 242.672599 264.218614 
L 242.672599 263.420198 
L 242.822096 263.420198 
L 242.822096 262.621782 
L 243.039958 262.621782 
L 243.039958 261.823366 
L 243.452921 261.823366 
L 243.531777 260.226535 
L 243.624089 260.226535 
L 243.69652 258.629703 
L 243.956683 258.629703 
L 243.956683 257.831287 
L 244.076485 257.831287 
L 244.076485 257.032871 
L 244.600371 257.032871 
L 244.600371 256.234455 
L 244.949004 256.234455 
L 244.949004 255.43604 
L 245.139086 255.43604 
L 245.236996 253.839208 
L 245.287246 253.839208 
L 245.337565 251.44396 
L 246.246451 251.44396 
L 246.246451 250.645545 
L 246.510582 250.645545 
L 246.510582 249.847129 
L 246.624014 249.847129 
L 246.68642 248.250297 
L 247.112563 248.250297 
L 247.112563 247.451881 
L 247.745037 247.451881 
L 247.745037 246.653465 
L 248.425146 246.653465 
L 248.425146 245.85505 
L 248.744192 245.85505 
L 248.744192 245.056634 
L 248.94228 245.056634 
L 248.94228 244.258218 
L 249.060935 244.258218 
L 249.060935 243.459802 
L 249.309373 243.459802 
L 249.376888 241.064554 
L 249.424451 241.064554 
L 249.424451 240.266139 
L 249.543177 240.266139 
L 249.543177 239.467723 
L 249.666454 239.467723 
L 249.666454 238.669307 
L 249.896633 238.669307 
L 249.896633 237.870891 
L 250.184626 237.870891 
L 250.184626 237.072475 
L 250.327802 237.072475 
L 250.327802 236.274059 
L 250.503689 236.274059 
L 250.503689 235.475644 
L 250.621225 235.475644 
L 250.715331 233.878812 
L 251.188846 233.878812 
L 251.299623 231.483564 
L 251.672755 231.483564 
L 251.672755 230.685149 
L 252.140876 230.685149 
L 252.232603 229.088317 
L 252.292954 229.088317 
L 252.385877 226.693069 
L 252.440002 226.693069 
L 252.528513 224.297822 
L 252.592827 224.297822 
L 252.678811 222.70099 
L 252.804545 222.70099 
L 252.804545 221.902574 
L 252.991833 221.902574 
L 252.991833 221.104158 
L 253.735078 221.104158 
L 253.735078 220.305743 
L 253.94478 220.305743 
L 253.94478 219.507327 
L 254.069407 219.507327 
L 254.101133 217.910495 
L 254.295624 217.910495 
L 254.295624 217.112079 
L 254.478067 217.112079 
L 254.478067 216.313663 
L 254.777882 216.313663 
L 254.854202 213.12 
L 255.052312 213.12 
L 255.052312 212.321584 
L 255.198088 212.321584 
L 255.198088 211.523168 
L 255.421426 211.523168 
L 255.504682 208.329505 
L 255.534675 208.329505 
L 255.534675 207.531089 
L 255.65908 207.531089 
L 255.75377 205.934257 
L 255.829283 205.934257 
L 255.873888 204.337426 
L 256.015906 204.337426 
L 256.091117 201.143762 
L 256.141608 201.143762 
L 256.141608 200.345347 
L 256.309007 200.345347 
L 256.393996 198.748515 
L 256.462105 198.748515 
L 256.543839 197.151683 
L 256.662807 197.151683 
L 256.733087 195.554851 
L 256.823703 195.554851 
L 256.823703 194.756436 
L 257.060506 194.756436 
L 257.169357 193.159604 
L 257.176643 193.159604 
L 257.280207 191.562772 
L 257.365262 191.562772 
L 257.453831 189.965941 
L 257.499334 189.965941 
L 257.499334 189.167525 
L 257.771867 189.167525 
L 257.771867 188.369109 
L 257.958733 188.369109 
L 258.00416 186.772277 
L 258.077071 186.772277 
L 258.077071 185.973861 
L 258.625403 185.973861 
L 258.625403 185.175446 
L 258.980606 185.175446 
L 258.980606 184.37703 
L 259.186674 184.37703 
L 259.186674 183.578614 
L 259.766781 183.578614 
L 259.766781 182.780198 
L 259.915596 182.780198 
L 259.986762 180.38495 
L 260.276127 180.38495 
L 260.352968 177.191287 
L 260.406524 177.191287 
L 260.408807 175.594455 
L 260.683477 175.594455 
L 260.783144 173.199208 
L 260.806587 173.199208 
L 260.877999 171.602376 
L 260.921424 171.602376 
L 261.018044 170.005545 
L 261.124568 170.005545 
L 261.135765 168.408713 
L 261.463586 168.408713 
L 261.562453 166.811881 
L 261.89533 166.811881 
L 261.89533 166.013465 
L 262.196196 166.013465 
L 262.196196 165.21505 
L 262.461218 165.21505 
L 262.568641 162.819802 
L 262.745828 162.819802 
L 262.745828 162.021386 
L 263.190016 162.021386 
L 263.276706 159.626139 
L 263.352468 159.626139 
L 263.352468 158.827723 
L 263.592507 158.827723 
L 263.592507 158.029307 
L 264.146635 158.029307 
L 264.15878 156.432475 
L 264.331617 156.432475 
L 264.426824 154.835644 
L 264.530351 154.835644 
L 264.557947 153.238812 
L 264.774193 153.238812 
L 264.774193 152.440396 
L 265.247148 152.440396 
L 265.273559 150.843564 
L 265.480862 150.843564 
L 265.480862 150.045149 
L 266.672391 150.045149 
L 266.672391 149.246733 
L 267.444469 149.246733 
L 267.503628 147.649901 
L 267.578721 147.649901 
L 267.597512 146.053069 
L 268.312793 146.053069 
L 268.322268 143.657822 
L 268.442608 143.657822 
L 268.442608 142.859406 
L 268.60704 142.859406 
L 268.60704 142.06099 
L 269.264357 142.06099 
L 269.264357 141.262574 
L 270.297017 141.262574 
L 270.297017 140.464158 
L 270.948382 140.464158 
L 270.948382 139.665743 
L 271.244147 139.665743 
L 271.244147 138.867327 
L 271.38304 138.867327 
L 271.446963 136.472079 
L 271.654125 136.472079 
L 271.755735 134.875248 
L 272.08876 134.875248 
L 272.196104 133.278416 
L 272.4827 133.278416 
L 272.4827 132.48 
L 272.761657 132.48 
L 272.830396 130.883168 
L 273.120382 130.883168 
L 273.120382 130.084752 
L 274.172736 130.084752 
L 274.172736 129.286337 
L 274.380602 129.286337 
L 274.380602 128.487921 
L 274.706383 128.487921 
L 274.816628 126.891089 
L 275.81782 126.891089 
L 275.81782 126.092673 
L 275.937866 126.092673 
L 275.937866 125.294257 
L 276.062516 125.294257 
L 276.062516 124.495842 
L 276.282619 124.495842 
L 276.282619 123.697426 
L 276.699759 123.697426 
L 276.791004 122.100594 
L 278.195612 122.100594 
L 278.195612 121.302178 
L 278.592639 121.302178 
L 278.592639 120.503762 
L 279.214422 120.503762 
L 279.214422 119.705347 
L 280.496855 119.705347 
L 280.496855 118.906931 
L 280.748724 118.906931 
L 280.748724 118.108515 
L 281.081079 118.108515 
L 281.081079 117.310099 
L 282.161793 117.310099 
L 282.161793 116.511683 
L 282.805679 116.511683 
L 282.805679 115.713267 
L 284.197603 115.713267 
L 284.197603 114.914851 
L 284.372945 114.914851 
L 284.372945 114.116436 
L 284.500376 114.116436 
L 284.500376 113.31802 
L 284.86551 113.31802 
L 284.86551 112.519604 
L 287.019195 112.519604 
L 287.019195 111.721188 
L 288.972128 111.721188 
L 288.972128 110.922772 
L 289.240779 110.922772 
L 289.246249 109.325941 
L 290.127126 109.325941 
L 290.127126 108.527525 
L 290.443477 108.527525 
L 290.443477 107.729109 
L 290.65983 107.729109 
L 290.65983 106.930693 
L 290.834883 106.930693 
L 290.834883 106.132277 
L 291.674986 106.132277 
L 291.674986 105.333861 
L 292.64776 105.333861 
L 292.64776 104.535446 
L 292.996189 104.535446 
L 292.996189 103.73703 
L 293.916676 103.73703 
L 293.916676 102.938614 
L 294.187596 102.938614 
L 294.187596 102.140198 
L 295.129995 102.140198 
L 295.129995 101.341782 
L 295.849941 101.341782 
L 295.849941 100.543366 
L 295.970282 100.543366 
L 295.970772 98.946535 
L 296.430556 98.946535 
L 296.430556 98.148119 
L 298.830543 98.148119 
L 298.830543 97.349703 
L 299.314614 97.349703 
L 299.314614 96.551287 
L 299.638787 96.551287 
L 299.638787 95.752871 
L 303.844799 95.752871 
L 303.863121 94.15604 
L 305.060987 94.15604 
L 305.060987 93.357624 
L 309.143463 93.357624 
L 309.143463 92.559208 
L 310.232494 92.559208 
L 310.32527 90.962376 
L 310.776712 90.962376 
L 310.776712 90.16396 
L 311.876686 90.16396 
L 311.876686 89.365545 
L 312.011332 89.365545 
L 312.011332 88.567129 
L 312.348853 88.567129 
L 312.348853 87.768713 
L 313.368899 87.768713 
L 313.368899 86.970297 
L 314.744956 86.970297 
L 314.744956 86.171881 
L 315.151941 86.171881 
L 315.151941 85.373465 
L 315.589958 85.373465 
L 315.589958 84.57505 
L 317.016981 84.57505 
L 317.016981 83.776634 
L 318.575005 83.776634 
L 318.575005 82.978218 
L 319.144605 82.978218 
L 319.144605 82.179802 
L 319.394274 82.179802 
L 319.394274 81.381386 
L 319.535936 81.381386 
L 319.535936 80.58297 
L 320.364109 80.58297 
L 320.364109 79.784554 
L 320.858297 79.784554 
L 320.858297 78.986139 
L 321.906516 78.986139 
L 321.906516 78.187723 
L 322.50906 78.187723 
L 322.548544 76.590891 
L 322.792069 76.590891 
L 322.792069 75.792475 
L 322.992495 75.792475 
L 322.992495 74.994059 
L 323.39477 74.994059 
L 323.39477 74.195644 
L 323.590459 74.195644 
L 323.590459 73.397228 
L 324.269873 73.397228 
L 324.269873 72.598812 
L 325.455608 72.598812 
L 325.455608 71.800396 
L 325.657646 71.800396 
L 325.657646 71.00198 
L 327.539367 71.00198 
L 327.539367 70.203564 
L 327.7314 70.203564 
L 327.7314 69.405149 
L 328.117179 69.405149 
L 328.117179 68.606733 
L 328.871509 68.606733 
L 328.871509 67.808317 
L 329.093439 67.808317 
L 329.093439 67.009901 
L 329.238062 67.009901 
L 329.238062 66.211485 
L 332.675852 66.211485 
L 332.675852 65.413069 
L 333.509949 65.413069 
L 333.509949 64.614653 
L 334.167585 64.614653 
L 334.184239 63.017822 
L 335.655895 63.017822 
L 335.760023 61.42099 
L 336.10511 61.42099 
L 336.10511 60.622574 
L 336.378853 60.622574 
L 336.378853 59.824158 
L 336.535537 59.824158 
L 336.535537 59.025743 
L 337.169387 59.025743 
L 337.169387 58.227327 
L 341.40288 58.227327 
L 341.40288 57.428911 
L 341.885703 57.428911 
L 341.885703 56.630495 
L 342.584666 56.630495 
L 342.682041 55.033663 
L 343.767949 55.033663 
L 343.767949 54.235248 
L 344.268707 54.235248 
L 344.268707 53.436832 
L 345.314575 53.436832 
L 345.314575 52.638416 
L 347.910391 52.638416 
L 347.910391 51.84 
L 348.557245 51.84 
L 348.557245 51.041584 
L 349.376325 51.041584 
L 349.376325 50.243168 
L 352.865495 50.243168 
L 352.865495 49.444752 
L 354.119147 49.444752 
L 354.119147 48.646337 
L 354.325286 48.646337 
L 354.325286 47.847921 
L 355.730747 47.847921 
L 355.730747 47.049505 
L 358.166342 47.049505 
L 358.166342 46.251089 
L 362.100579 46.251089 
L 362.100579 45.452673 
L 362.63414 45.452673 
L 362.63414 44.654257 
L 364.200481 44.654257 
L 364.200481 43.855842 
L 366.099396 43.855842 
L 366.099396 43.057426 
L 366.224239 43.057426 
L 366.224239 42.25901 
L 366.70308 42.25901 
L 366.70308 41.460594 
L 369.802359 41.460594 
L 369.802359 40.662178 
L 370.041732 40.662178 
L 370.041732 39.863762 
L 370.232814 39.863762 
L 370.232814 39.065347 
L 370.360361 39.065347 
L 370.360361 38.266931 
L 371.692375 38.266931 
L 371.692375 37.468515 
L 373.366902 37.468515 
L 373.366902 36.670099 
L 373.61588 36.670099 
L 373.61588 35.871683 
L 374.536906 35.871683 
L 374.608509 34.274851 
L 375.147833 34.274851 
L 375.147833 33.476436 
L 377.120529 33.476436 
L 377.120529 32.67802 
L 378.310106 32.67802 
L 378.310106 31.879604 
L 380.522002 31.879604 
L 380.522002 31.081188 
L 381.069833 31.081188 
L 381.069833 30.282772 
L 385.741004 30.282772 
L 385.741004 29.484356 
L 386.845797 29.484356 
L 386.845797 28.685941 
L 387.866436 28.685941 
L 387.866436 27.887525 
L 388.150787 27.887525 
L 388.150787 27.089109 
L 388.406123 27.089109 
L 388.406123 26.290693 
L 388.928764 26.290693 
L 388.928764 25.492277 
L 389.78798 25.492277 
L 389.78798 24.693861 
L 392.276052 24.693861 
L 392.276052 23.895446 
L 393.393763 23.895446 
L 393.393763 23.09703 
L 394.780112 23.09703 
L 394.780112 22.298614 
L 395.503037 22.298614 
L 395.503037 21.500198 
L 395.931779 21.500198 
L 395.931779 20.701782 
L 396.137907 20.701782 
L 396.137907 19.903366 
L 398.085807 19.903366 
L 398.085807 19.10495 
L 400.154186 19.10495 
L 400.154186 18.306535 
L 400.393787 18.306535 
L 400.393787 17.508119 
L 401.260201 17.508119 
L 401.260201 16.709703 
L 404.520383 16.709703 
L 404.520383 15.911287 
L 405.911614 15.911287 
L 405.981909 14.314455 
L 409.136119 14.314455 
L 409.136119 13.51604 
L 410.4941 13.51604 
L 410.4941 12.717624 
L 411.106992 12.717624 
L 411.106992 11.919208 
L 411.632953 11.919208 
L 411.632953 11.120792 
L 418.612463 11.120792 
L 418.612463 10.322376 
L 419.591397 10.322376 
L 419.591397 9.52396 
L 420.473237 9.52396 
L 420.473237 8.725545 
L 426.116897 8.725545 
L 426.116897 7.927129 
L 437.093887 7.927129 
L 437.093887 7.128713 
L 448.756674 7.128713 
L 448.756674 6.330297 
L 448.756674 6.330297 
L 460.8 6.330297 
L 460.8 6.330297 
" style="fill:none;stroke:#00bfbf;stroke-linecap:square;stroke-width:1.5;"/>
   </g>
   <g id="line2d_23">
    <path clip-path="url(#p7991bc2bdb)" d="M 220.235995 293.76 
L 220.235995 292.961584 
L 222.586872 292.961584 
L 222.586872 292.163168 
L 225.272112 292.163168 
L 225.272112 291.364752 
L 226.729711 291.364752 
L 226.729711 290.566337 
L 227.775536 290.566337 
L 227.775536 289.767921 
L 228.632936 289.767921 
L 228.632936 288.969505 
L 230.232328 288.969505 
L 230.232328 288.171089 
L 230.361868 288.171089 
L 230.361868 287.372673 
L 231.25103 287.372673 
L 231.25103 286.574257 
L 231.766539 286.574257 
L 231.842345 284.17901 
L 232.18432 284.17901 
L 232.18432 283.380594 
L 232.41409 283.380594 
L 232.41409 282.582178 
L 232.709142 282.582178 
L 232.709142 281.783762 
L 232.889227 281.783762 
L 232.889227 280.985347 
L 233.29702 280.985347 
L 233.29702 280.186931 
L 233.423806 280.186931 
L 233.519101 278.590099 
L 233.719893 278.590099 
L 233.719893 277.791683 
L 234.092281 277.791683 
L 234.092281 276.993267 
L 234.928446 276.993267 
L 234.928446 276.194851 
L 235.155592 276.194851 
L 235.16967 274.59802 
L 235.457304 274.59802 
L 235.457304 273.799604 
L 235.897525 273.799604 
L 235.940529 272.202772 
L 236.073624 272.202772 
L 236.073624 271.404356 
L 236.360111 271.404356 
L 236.446003 268.210693 
L 236.611863 268.210693 
L 236.681196 265.815446 
L 236.856415 265.815446 
L 236.948819 264.218614 
L 237.041986 264.218614 
L 237.041986 263.420198 
L 237.304653 263.420198 
L 237.304653 262.621782 
L 237.736058 262.621782 
L 237.847016 261.02495 
L 237.85863 261.02495 
L 237.924466 259.428119 
L 238.310905 259.428119 
L 238.310905 258.629703 
L 239.797607 258.629703 
L 239.797607 257.831287 
L 240.282697 257.831287 
L 240.282697 257.032871 
L 240.973778 257.032871 
L 241.067425 253.839208 
L 241.142501 253.839208 
L 241.231216 252.242376 
L 241.340784 252.242376 
L 241.428431 250.645545 
L 241.457819 250.645545 
L 241.479426 249.048713 
L 241.718023 249.048713 
L 241.718023 248.250297 
L 242.001631 248.250297 
L 242.066662 245.85505 
L 242.227971 245.85505 
L 242.311699 244.258218 
L 242.448281 244.258218 
L 242.491319 242.661386 
L 243.039958 242.661386 
L 243.039958 241.86297 
L 243.249115 241.86297 
L 243.249115 241.064554 
L 243.37559 241.064554 
L 243.452921 239.467723 
L 243.624089 239.467723 
L 243.676158 237.870891 
L 244.600371 237.870891 
L 244.600371 237.072475 
L 244.775003 237.072475 
L 244.775003 236.274059 
L 244.949004 236.274059 
L 244.949004 235.475644 
L 245.139086 235.475644 
L 245.139086 234.677228 
L 245.976962 234.677228 
L 245.976962 233.878812 
L 246.246451 233.878812 
L 246.300174 231.483564 
L 246.373681 231.483564 
L 246.373681 230.685149 
L 246.510582 230.685149 
L 246.510582 229.886733 
L 246.624014 229.886733 
L 246.722249 227.491485 
L 246.808479 227.491485 
L 246.808479 226.693069 
L 247.112563 226.693069 
L 247.112563 225.894653 
L 247.377092 225.894653 
L 247.42722 224.297822 
L 248.138943 224.297822 
L 248.157002 222.70099 
L 249.060935 222.70099 
L 249.159912 221.104158 
L 249.303038 221.104158 
L 249.376888 218.708911 
L 249.41437 218.708911 
L 249.514305 216.313663 
L 249.896633 216.313663 
L 249.896633 215.515248 
L 250.036216 215.515248 
L 250.036216 214.716832 
L 250.195918 214.716832 
L 250.195918 213.918416 
L 250.503689 213.918416 
L 250.503689 213.12 
L 250.621225 213.12 
L 250.715331 211.523168 
L 250.797211 211.523168 
L 250.797211 210.724752 
L 251.068558 210.724752 
L 251.068558 209.926337 
L 251.672755 209.926337 
L 251.672755 209.127921 
L 252.140876 209.127921 
L 252.25164 205.135842 
L 252.292954 205.135842 
L 252.364132 202.740594 
L 252.436186 202.740594 
L 252.528513 200.345347 
L 252.66989 200.345347 
L 252.740346 198.748515 
L 252.804545 198.748515 
L 252.804545 197.950099 
L 252.991833 197.950099 
L 252.991833 197.151683 
L 253.518721 197.151683 
L 253.584634 194.756436 
L 253.735078 194.756436 
L 253.735078 193.95802 
L 253.908199 193.95802 
L 253.955187 192.361188 
L 254.069407 192.361188 
L 254.069407 191.562772 
L 254.215672 191.562772 
L 254.215672 190.764356 
L 254.378691 190.764356 
L 254.378691 189.965941 
L 254.656341 189.965941 
L 254.70672 188.369109 
L 254.796842 188.369109 
L 254.83983 185.973861 
L 255.120854 185.973861 
L 255.17438 184.37703 
L 255.235868 184.37703 
L 255.235868 183.578614 
L 255.421426 183.578614 
L 255.504682 181.183366 
L 255.560967 181.183366 
L 255.626107 178.788119 
L 255.869106 178.788119 
L 255.869106 177.989703 
L 256.015906 177.989703 
L 256.090651 175.594455 
L 256.264309 175.594455 
L 256.36874 173.199208 
L 256.393996 173.199208 
L 256.499931 170.80396 
L 256.551581 170.80396 
L 256.551581 170.005545 
L 256.662807 170.005545 
L 256.662807 169.207129 
L 256.949248 169.207129 
L 256.949248 168.408713 
L 257.060506 168.408713 
L 257.060506 167.610297 
L 257.404797 167.610297 
L 257.499334 165.21505 
L 257.545659 165.21505 
L 257.583773 163.618218 
L 257.760475 163.618218 
L 257.760475 162.819802 
L 258.016359 162.819802 
L 258.077071 161.22297 
L 258.225629 161.22297 
L 258.225629 160.424554 
L 258.70137 160.424554 
L 258.70137 159.626139 
L 258.943268 159.626139 
L 258.980606 158.029307 
L 259.105152 158.029307 
L 259.182608 156.432475 
L 259.500359 156.432475 
L 259.593207 154.835644 
L 259.74371 154.835644 
L 259.802279 152.440396 
L 259.986762 152.440396 
L 259.986762 151.64198 
L 260.352968 151.64198 
L 260.408807 150.045149 
L 260.806587 150.045149 
L 260.877999 148.448317 
L 261.096396 148.448317 
L 261.135928 146.851485 
L 261.53351 146.851485 
L 261.53351 146.053069 
L 261.793005 146.053069 
L 261.793005 145.254653 
L 262.196196 145.254653 
L 262.196196 144.456238 
L 262.378113 144.456238 
L 262.461218 142.859406 
L 262.517088 142.859406 
L 262.517088 142.06099 
L 262.853694 142.06099 
L 262.853694 141.262574 
L 263.727651 141.262574 
L 263.727651 140.464158 
L 263.887117 140.464158 
L 263.887117 139.665743 
L 264.112168 139.665743 
L 264.15878 138.068911 
L 264.471459 138.068911 
L 264.471459 137.270495 
L 264.774193 137.270495 
L 264.785485 135.673663 
L 264.921759 135.673663 
L 264.921759 134.875248 
L 265.289839 134.875248 
L 265.289839 134.076832 
L 265.480862 134.076832 
L 265.480862 133.278416 
L 265.913959 133.278416 
L 265.913959 132.48 
L 266.386184 132.48 
L 266.386184 131.681584 
L 266.672391 131.681584 
L 266.672391 130.883168 
L 266.82481 130.883168 
L 266.82481 130.084752 
L 267.503628 130.084752 
L 267.503628 129.286337 
L 268.002219 129.286337 
L 268.002219 128.487921 
L 268.220093 128.487921 
L 268.315023 126.092673 
L 268.442608 126.092673 
L 268.442608 125.294257 
L 268.60704 125.294257 
L 268.60704 124.495842 
L 268.938561 124.495842 
L 268.938561 123.697426 
L 270.297017 123.697426 
L 270.297017 122.89901 
L 270.948382 122.89901 
L 270.948382 122.100594 
L 271.19751 122.100594 
L 271.244147 120.503762 
L 271.31993 120.503762 
L 271.38304 118.906931 
L 271.61074 118.906931 
L 271.654125 117.310099 
L 271.755735 117.310099 
L 271.755735 116.511683 
L 272.196104 116.511683 
L 272.196104 115.713267 
L 272.4827 115.713267 
L 272.4827 114.914851 
L 272.830396 114.914851 
L 272.926979 113.31802 
L 273.120382 113.31802 
L 273.120382 112.519604 
L 273.448729 112.519604 
L 273.448729 111.721188 
L 274.380602 111.721188 
L 274.380602 110.922772 
L 274.788517 110.922772 
L 274.816628 109.325941 
L 274.935051 109.325941 
L 274.935051 108.527525 
L 275.339786 108.527525 
L 275.339786 107.729109 
L 275.49007 107.729109 
L 275.49007 106.930693 
L 276.282619 106.930693 
L 276.282619 106.132277 
L 279.071803 106.132277 
L 279.071803 105.333861 
L 282.805679 105.333861 
L 282.805679 104.535446 
L 283.797764 104.535446 
L 283.797764 103.73703 
L 283.987375 103.73703 
L 284.065102 102.140198 
L 284.500376 102.140198 
L 284.572004 98.946535 
L 285.561634 98.946535 
L 285.561634 98.148119 
L 286.150077 98.148119 
L 286.150077 97.349703 
L 286.903226 97.349703 
L 286.903226 96.551287 
L 287.408164 96.551287 
L 287.408164 95.752871 
L 287.600794 95.752871 
L 287.600794 94.954455 
L 287.729611 94.954455 
L 287.729611 94.15604 
L 289.548007 94.15604 
L 289.548007 93.357624 
L 291.239946 93.357624 
L 291.239946 92.559208 
L 293.916676 92.559208 
L 293.916676 91.760792 
L 294.370277 91.760792 
L 294.370277 90.962376 
L 295.129995 90.962376 
L 295.129995 90.16396 
L 295.849941 90.16396 
L 295.849941 89.365545 
L 295.970772 89.365545 
L 295.970772 88.567129 
L 299.314614 88.567129 
L 299.314614 87.768713 
L 299.638787 87.768713 
L 299.638787 86.970297 
L 300.359274 86.970297 
L 300.359274 86.171881 
L 302.907444 86.171881 
L 302.907444 85.373465 
L 303.844799 85.373465 
L 303.863121 83.776634 
L 304.893429 83.776634 
L 304.893429 82.978218 
L 305.060987 82.978218 
L 305.060987 82.179802 
L 306.300853 82.179802 
L 306.300853 81.381386 
L 306.923014 81.381386 
L 306.923014 80.58297 
L 308.06969 80.58297 
L 308.06969 79.784554 
L 308.238083 79.784554 
L 308.238083 78.986139 
L 309.143463 78.986139 
L 309.151914 77.389307 
L 309.5446 77.389307 
L 309.5446 76.590891 
L 310.32527 76.590891 
L 310.32527 75.792475 
L 310.776712 75.792475 
L 310.776712 74.994059 
L 311.876686 74.994059 
L 311.876686 74.195644 
L 312.011332 74.195644 
L 312.011332 73.397228 
L 312.348853 73.397228 
L 312.348853 72.598812 
L 312.591973 72.598812 
L 312.591973 71.800396 
L 312.830176 71.800396 
L 312.830176 71.00198 
L 313.555777 71.00198 
L 313.555777 70.203564 
L 314.054564 70.203564 
L 314.054564 69.405149 
L 315.151941 69.405149 
L 315.151941 68.606733 
L 315.556214 68.606733 
L 315.589958 67.009901 
L 316.60627 67.009901 
L 316.60627 66.211485 
L 316.968627 66.211485 
L 316.968627 65.413069 
L 317.096837 65.413069 
L 317.096837 64.614653 
L 317.468647 64.614653 
L 317.468647 63.816238 
L 317.821737 63.816238 
L 317.821737 63.017822 
L 318.557602 63.017822 
L 318.557602 62.219406 
L 319.25719 62.219406 
L 319.25719 61.42099 
L 320.858297 61.42099 
L 320.858297 60.622574 
L 321.868851 60.622574 
L 321.868851 59.824158 
L 322.390218 59.824158 
L 322.390218 59.025743 
L 322.992495 59.025743 
L 322.992495 58.227327 
L 324.334888 58.227327 
L 324.334888 57.428911 
L 324.686908 57.428911 
L 324.686908 56.630495 
L 325.016499 56.630495 
L 325.016499 55.832079 
L 327.539367 55.832079 
L 327.539367 55.033663 
L 327.7314 55.033663 
L 327.7314 54.235248 
L 329.238062 54.235248 
L 329.238062 53.436832 
L 333.534637 53.436832 
L 333.534637 52.638416 
L 334.184239 52.638416 
L 334.184239 51.84 
L 334.498379 51.84 
L 334.498379 51.041584 
L 334.624688 51.041584 
L 334.624688 50.243168 
L 335.332623 50.243168 
L 335.332623 49.444752 
L 335.655895 49.444752 
L 335.655895 48.646337 
L 336.535537 48.646337 
L 336.535537 47.847921 
L 337.405539 47.847921 
L 337.405539 47.049505 
L 341.40288 47.049505 
L 341.40288 46.251089 
L 343.563043 46.251089 
L 343.563043 45.452673 
L 343.767949 45.452673 
L 343.767949 44.654257 
L 345.098152 44.654257 
L 345.098152 43.855842 
L 345.314575 43.855842 
L 345.314575 43.057426 
L 346.394731 43.057426 
L 346.394731 42.25901 
L 349.367334 42.25901 
L 349.376325 40.662178 
L 352.040907 40.662178 
L 352.040907 39.863762 
L 354.119147 39.863762 
L 354.119147 39.065347 
L 354.325286 39.065347 
L 354.325286 38.266931 
L 354.494248 38.266931 
L 354.494248 37.468515 
L 355.713675 37.468515 
L 355.730747 35.871683 
L 356.336792 35.871683 
L 356.336792 35.073267 
L 356.619664 35.073267 
L 356.619664 34.274851 
L 360.95342 34.274851 
L 360.95342 33.476436 
L 361.503383 33.476436 
L 361.503383 32.67802 
L 362.265334 32.67802 
L 362.265334 31.879604 
L 362.997696 31.879604 
L 362.997696 31.081188 
L 363.856632 31.081188 
L 363.856632 30.282772 
L 364.158489 30.282772 
L 364.158489 29.484356 
L 365.893198 29.484356 
L 365.893198 28.685941 
L 367.572552 28.685941 
L 367.572552 27.887525 
L 368.894783 27.887525 
L 368.894783 27.089109 
L 369.802359 27.089109 
L 369.802359 26.290693 
L 370.360361 26.290693 
L 370.360361 25.492277 
L 371.96746 25.492277 
L 371.96746 24.693861 
L 372.504411 24.693861 
L 372.504411 23.895446 
L 373.61588 23.895446 
L 373.61588 23.09703 
L 374.536906 23.09703 
L 374.608509 21.500198 
L 376.005043 21.500198 
L 376.005043 20.701782 
L 381.281874 20.701782 
L 381.281874 19.903366 
L 381.940783 19.903366 
L 381.940783 19.10495 
L 387.630403 19.10495 
L 387.630403 18.306535 
L 388.979521 18.306535 
L 389.05668 16.709703 
L 389.255191 16.709703 
L 389.299889 15.112871 
L 392.136396 15.112871 
L 392.136396 14.314455 
L 395.674199 14.314455 
L 395.674199 13.51604 
L 398.351321 13.51604 
L 398.351321 12.717624 
L 400.056844 12.717624 
L 400.056844 11.919208 
L 403.32911 11.919208 
L 403.32911 11.120792 
L 404.251137 11.120792 
L 404.251137 10.322376 
L 405.981909 10.322376 
L 405.981909 9.52396 
L 407.507468 9.52396 
L 407.507468 8.725545 
L 410.107561 8.725545 
L 410.107561 7.927129 
L 413.13512 7.927129 
L 413.13512 7.128713 
L 426.116897 7.128713 
L 426.116897 6.330297 
L 426.116897 6.330297 
L 460.8 6.330297 
L 460.8 6.330297 
" style="fill:none;stroke:#bf00bf;stroke-linecap:square;stroke-width:1.5;"/>
   </g>
   <g id="line2d_24">
    <path clip-path="url(#p7991bc2bdb)" d="M 208.302728 293.76 
L 208.302728 292.961584 
L 219.561097 292.961584 
L 219.561097 292.163168 
L 219.78488 292.163168 
L 219.78488 291.364752 
L 220.235995 291.364752 
L 220.235995 290.566337 
L 221.801369 290.566337 
L 221.801369 289.767921 
L 222.551461 289.767921 
L 222.586872 288.171089 
L 224.250022 288.171089 
L 224.250022 287.372673 
L 225.272112 287.372673 
L 225.272112 286.574257 
L 226.729711 286.574257 
L 226.729711 285.775842 
L 227.775536 285.775842 
L 227.775536 284.977426 
L 228.039868 284.977426 
L 228.039868 284.17901 
L 228.32786 284.17901 
L 228.32786 283.380594 
L 228.632936 283.380594 
L 228.632936 282.582178 
L 229.145729 282.582178 
L 229.145729 281.783762 
L 229.313311 281.783762 
L 229.313311 280.985347 
L 230.213108 280.985347 
L 230.232328 279.388515 
L 230.361868 279.388515 
L 230.467214 277.791683 
L 230.570211 277.791683 
L 230.570211 276.993267 
L 231.209542 276.993267 
L 231.25103 275.396436 
L 231.334269 275.396436 
L 231.334269 274.59802 
L 231.642894 274.59802 
L 231.642894 273.799604 
L 231.828302 273.799604 
L 231.828302 273.001188 
L 232.09943 273.001188 
L 232.18432 270.605941 
L 232.520353 270.605941 
L 232.520353 269.807525 
L 233.066654 269.807525 
L 233.066654 269.009109 
L 233.29702 269.009109 
L 233.29702 268.210693 
L 233.409138 268.210693 
L 233.423806 266.613861 
L 233.719893 266.613861 
L 233.719893 265.815446 
L 233.931607 265.815446 
L 233.949086 264.218614 
L 234.092281 264.218614 
L 234.092281 263.420198 
L 234.367133 263.420198 
L 234.467931 261.823366 
L 234.737095 261.823366 
L 234.737095 261.02495 
L 234.928446 261.02495 
L 234.928446 260.226535 
L 235.158314 260.226535 
L 235.16967 258.629703 
L 235.402574 258.629703 
L 235.402574 257.831287 
L 235.79912 257.831287 
L 235.841591 256.234455 
L 235.940529 256.234455 
L 235.940529 255.43604 
L 236.073624 255.43604 
L 236.073624 254.637624 
L 236.264063 254.637624 
L 236.360111 253.040792 
L 236.436405 253.040792 
L 236.446003 251.44396 
L 236.681196 251.44396 
L 236.681196 250.645545 
L 236.948819 250.645545 
L 237.041986 249.048713 
L 237.155493 249.048713 
L 237.265665 246.653465 
L 237.783388 246.653465 
L 237.85863 244.258218 
L 237.924466 244.258218 
L 237.924466 243.459802 
L 238.156599 243.459802 
L 238.156599 242.661386 
L 238.375112 242.661386 
L 238.375112 241.86297 
L 239.421096 241.86297 
L 239.421096 241.064554 
L 239.777952 241.064554 
L 239.797607 239.467723 
L 239.947795 239.467723 
L 239.947795 238.669307 
L 240.229898 238.669307 
L 240.33825 236.274059 
L 240.428238 236.274059 
L 240.428238 235.475644 
L 240.592729 235.475644 
L 240.635512 232.28198 
L 241.027089 232.28198 
L 241.027089 231.483564 
L 241.231216 231.483564 
L 241.340784 229.886733 
L 241.428431 229.886733 
L 241.465732 227.491485 
L 242.017731 227.491485 
L 242.017731 226.693069 
L 242.491319 226.693069 
L 242.588547 225.096238 
L 243.003544 225.096238 
L 243.028167 223.499406 
L 243.334775 223.499406 
L 243.37559 221.104158 
L 243.452921 221.104158 
L 243.471579 219.507327 
L 243.601953 219.507327 
L 243.610946 217.910495 
L 243.899394 217.910495 
L 243.899394 217.112079 
L 244.833467 217.112079 
L 244.833467 216.313663 
L 245.083778 216.313663 
L 245.139086 214.716832 
L 245.587388 214.716832 
L 245.587388 213.918416 
L 245.768703 213.918416 
L 245.768703 213.12 
L 245.895884 213.12 
L 245.895884 212.321584 
L 246.074786 212.321584 
L 246.135902 209.926337 
L 246.246451 209.926337 
L 246.348957 206.732673 
L 246.373681 206.732673 
L 246.373681 205.934257 
L 246.540097 205.934257 
L 246.624014 203.53901 
L 246.808479 203.53901 
L 246.808479 202.740594 
L 246.929737 202.740594 
L 246.929737 201.942178 
L 247.112563 201.942178 
L 247.112563 201.143762 
L 247.377092 201.143762 
L 247.377092 200.345347 
L 248.027613 200.345347 
L 248.027613 199.546931 
L 248.157002 199.546931 
L 248.157002 198.748515 
L 248.337976 198.748515 
L 248.386523 197.151683 
L 248.470975 197.151683 
L 248.572735 193.95802 
L 248.860383 193.95802 
L 248.862402 191.562772 
L 249.04828 191.562772 
L 249.04828 190.764356 
L 249.159912 190.764356 
L 249.159912 189.965941 
L 249.298607 189.965941 
L 249.376888 185.973861 
L 249.424451 185.973861 
L 249.424451 185.175446 
L 249.662127 185.175446 
L 249.755739 183.578614 
L 250.375003 183.578614 
L 250.375003 182.780198 
L 250.621225 182.780198 
L 250.621225 181.981782 
L 250.942047 181.981782 
L 250.992668 180.38495 
L 251.204154 180.38495 
L 251.204154 179.586535 
L 251.438032 179.586535 
L 251.438032 178.788119 
L 251.710949 178.788119 
L 251.710949 177.989703 
L 252.047103 177.989703 
L 252.047103 177.191287 
L 252.158374 177.191287 
L 252.205528 174.79604 
L 252.292954 174.79604 
L 252.364132 173.199208 
L 252.424036 173.199208 
L 252.424036 172.400792 
L 252.644052 172.400792 
L 252.740346 170.80396 
L 253.063206 170.80396 
L 253.063206 170.005545 
L 253.518721 170.005545 
L 253.518721 169.207129 
L 253.735078 169.207129 
L 253.735855 167.610297 
L 254.215672 167.610297 
L 254.215672 166.811881 
L 254.529027 166.811881 
L 254.529027 166.013465 
L 254.656341 166.013465 
L 254.656341 165.21505 
L 254.796842 165.21505 
L 254.796842 164.416634 
L 255.266158 164.416634 
L 255.335815 162.819802 
L 255.61706 162.819802 
L 255.61706 162.021386 
L 255.869106 162.021386 
L 255.92177 160.424554 
L 256.015906 160.424554 
L 256.090651 158.029307 
L 256.314432 158.029307 
L 256.314432 157.230891 
L 256.499931 157.230891 
L 256.527004 155.634059 
L 256.631493 155.634059 
L 256.662807 154.037228 
L 256.818523 154.037228 
L 256.897087 152.440396 
L 257.404797 152.440396 
L 257.440255 150.843564 
L 257.583773 150.843564 
L 257.583773 150.045149 
L 257.760475 150.045149 
L 257.760475 149.246733 
L 257.92245 149.246733 
L 257.991989 147.649901 
L 258.077071 147.649901 
L 258.077071 146.851485 
L 258.347009 146.851485 
L 258.347009 146.053069 
L 258.460626 146.053069 
L 258.460626 145.254653 
L 258.70137 145.254653 
L 258.70137 144.456238 
L 258.931833 144.456238 
L 258.942562 142.859406 
L 259.105152 142.859406 
L 259.182608 140.464158 
L 259.406421 140.464158 
L 259.406421 139.665743 
L 259.693759 139.665743 
L 259.751446 138.068911 
L 259.986762 138.068911 
L 259.986762 137.270495 
L 260.500566 137.270495 
L 260.500566 136.472079 
L 260.779321 136.472079 
L 260.779321 135.673663 
L 261.831484 135.673663 
L 261.831484 134.875248 
L 261.972362 134.875248 
L 261.972362 134.076832 
L 262.163549 134.076832 
L 262.163549 133.278416 
L 262.378113 133.278416 
L 262.480629 130.883168 
L 262.853694 130.883168 
L 262.897369 128.487921 
L 263.148314 128.487921 
L 263.148314 127.689505 
L 263.727651 127.689505 
L 263.727651 126.891089 
L 264.15878 126.891089 
L 264.15878 126.092673 
L 264.39502 126.092673 
L 264.39502 125.294257 
L 264.921759 125.294257 
L 264.921759 124.495842 
L 265.218261 124.495842 
L 265.289839 122.89901 
L 265.419088 122.89901 
L 265.480862 121.302178 
L 266.498786 121.302178 
L 266.498786 120.503762 
L 266.82481 120.503762 
L 266.82481 119.705347 
L 267.890966 119.705347 
L 267.890966 118.906931 
L 268.180148 118.906931 
L 268.220093 117.310099 
L 268.312793 117.310099 
L 268.358459 115.713267 
L 268.489453 115.713267 
L 268.579531 113.31802 
L 268.60192 113.31802 
L 268.60704 111.721188 
L 269.628929 111.721188 
L 269.628929 110.922772 
L 270.759442 110.922772 
L 270.759442 110.124356 
L 270.948382 110.124356 
L 270.986586 108.527525 
L 271.38304 108.527525 
L 271.38304 107.729109 
L 271.737904 107.729109 
L 271.737904 106.930693 
L 273.198559 106.930693 
L 273.198559 106.132277 
L 274.816628 106.132277 
L 274.816628 105.333861 
L 275.339786 105.333861 
L 275.339786 104.535446 
L 275.846753 104.535446 
L 275.9098 102.938614 
L 276.282619 102.938614 
L 276.282619 102.140198 
L 276.572877 102.140198 
L 276.572877 101.341782 
L 278.395872 101.341782 
L 278.395872 100.543366 
L 278.981796 100.543366 
L 279.071803 98.946535 
L 279.844732 98.946535 
L 279.844732 98.148119 
L 282.57933 98.148119 
L 282.57933 97.349703 
L 282.765295 97.349703 
L 282.765295 96.551287 
L 282.892254 96.551287 
L 282.892254 95.752871 
L 283.716671 95.752871 
L 283.716671 94.954455 
L 283.869199 94.954455 
L 283.869199 94.15604 
L 283.985009 94.15604 
L 283.985009 93.357624 
L 284.387495 93.357624 
L 284.387495 92.559208 
L 284.502996 92.559208 
L 284.548167 90.962376 
L 285.352119 90.962376 
L 285.352119 90.16396 
L 285.612797 90.16396 
L 285.67197 88.567129 
L 287.408164 88.567129 
L 287.48786 86.970297 
L 288.473692 86.970297 
L 288.473692 86.171881 
L 291.239946 86.171881 
L 291.239946 85.373465 
L 291.899055 85.373465 
L 291.899055 84.57505 
L 292.561462 84.57505 
L 292.561462 83.776634 
L 293.859588 83.776634 
L 293.859588 82.978218 
L 294.278983 82.978218 
L 294.278983 82.179802 
L 294.774663 82.179802 
L 294.774663 81.381386 
L 295.129995 81.381386 
L 295.129995 80.58297 
L 295.849941 80.58297 
L 295.849941 79.784554 
L 295.970772 79.784554 
L 295.970772 78.986139 
L 296.25207 78.986139 
L 296.25207 78.187723 
L 297.618322 78.187723 
L 297.618322 77.389307 
L 297.85496 77.389307 
L 297.85496 76.590891 
L 298.665149 76.590891 
L 298.665149 75.792475 
L 298.823198 75.792475 
L 298.823198 74.994059 
L 299.314614 74.994059 
L 299.314614 74.195644 
L 299.638787 74.195644 
L 299.649179 72.598812 
L 302.907444 72.598812 
L 302.907444 71.800396 
L 303.805375 71.800396 
L 303.863121 69.405149 
L 304.405769 69.405149 
L 304.405769 68.606733 
L 305.060987 68.606733 
L 305.060987 67.808317 
L 305.2786 67.808317 
L 305.2786 67.009901 
L 305.877979 67.009901 
L 305.877979 66.211485 
L 306.300853 66.211485 
L 306.300853 65.413069 
L 307.238686 65.413069 
L 307.324273 63.816238 
L 308.015698 63.816238 
L 308.015698 63.017822 
L 308.238083 63.017822 
L 308.332028 61.42099 
L 309.321933 61.42099 
L 309.321933 60.622574 
L 309.608829 60.622574 
L 309.608829 59.824158 
L 312.115146 59.824158 
L 312.115146 59.025743 
L 312.348853 59.025743 
L 312.348853 58.227327 
L 312.830176 58.227327 
L 312.830176 57.428911 
L 314.001627 57.428911 
L 314.001627 56.630495 
L 314.329014 56.630495 
L 314.329014 55.832079 
L 315.556214 55.832079 
L 315.589958 54.235248 
L 317.821737 54.235248 
L 317.821737 53.436832 
L 321.386808 53.436832 
L 321.386808 52.638416 
L 322.338579 52.638416 
L 322.338579 51.84 
L 323.961341 51.84 
L 323.961341 51.041584 
L 324.686908 51.041584 
L 324.686908 50.243168 
L 326.395792 50.243168 
L 326.395792 49.444752 
L 327.539367 49.444752 
L 327.539367 48.646337 
L 328.10493 48.646337 
L 328.10493 47.847921 
L 329.238062 47.847921 
L 329.238062 47.049505 
L 330.642479 47.049505 
L 330.642479 46.251089 
L 331.59168 46.251089 
L 331.59168 45.452673 
L 333.356754 45.452673 
L 333.356754 44.654257 
L 334.498379 44.654257 
L 334.498379 43.855842 
L 334.624688 43.855842 
L 334.624688 43.057426 
L 336.535537 43.057426 
L 336.535537 42.25901 
L 337.405539 42.25901 
L 337.405539 41.460594 
L 337.685582 41.460594 
L 337.685582 40.662178 
L 338.228278 40.662178 
L 338.228278 39.863762 
L 338.908254 39.863762 
L 338.908254 39.065347 
L 341.375681 39.065347 
L 341.40288 37.468515 
L 343.563043 37.468515 
L 343.563043 36.670099 
L 344.795259 36.670099 
L 344.795259 35.871683 
L 346.26193 35.871683 
L 346.26193 35.073267 
L 346.394731 35.073267 
L 346.394731 34.274851 
L 349.367334 34.274851 
L 349.367334 33.476436 
L 349.65682 33.476436 
L 349.65682 32.67802 
L 353.559094 32.67802 
L 353.559094 31.879604 
L 354.119147 31.879604 
L 354.119147 31.081188 
L 355.713675 31.081188 
L 355.730747 29.484356 
L 356.336792 29.484356 
L 356.336792 28.685941 
L 356.486558 28.685941 
L 356.486558 27.887525 
L 356.619664 27.887525 
L 356.619664 27.089109 
L 356.807379 27.089109 
L 356.807379 26.290693 
L 357.596483 26.290693 
L 357.596483 25.492277 
L 358.486811 25.492277 
L 358.486811 24.693861 
L 359.49989 24.693861 
L 359.49989 23.895446 
L 362.59213 23.895446 
L 362.59213 23.09703 
L 365.893198 23.09703 
L 365.893198 22.298614 
L 367.322616 22.298614 
L 367.322616 21.500198 
L 367.572552 21.500198 
L 367.572552 20.701782 
L 372.504411 20.701782 
L 372.504411 19.903366 
L 373.61588 19.903366 
L 373.61588 19.10495 
L 381.216083 19.10495 
L 381.216083 18.306535 
L 388.979521 18.306535 
L 389.05668 15.911287 
L 389.255191 15.911287 
L 389.299889 14.314455 
L 392.136396 14.314455 
L 392.136396 13.51604 
L 394.892897 13.51604 
L 394.892897 12.717624 
L 395.674199 12.717624 
L 395.674199 11.919208 
L 397.945941 11.919208 
L 397.945941 11.120792 
L 398.351321 11.120792 
L 398.351321 10.322376 
L 402.25654 10.322376 
L 402.25654 9.52396 
L 402.482322 9.52396 
L 402.482322 8.725545 
L 403.32911 8.725545 
L 403.32911 7.927129 
L 403.777547 7.927129 
L 403.777547 7.128713 
L 405.981909 7.128713 
L 405.981909 6.330297 
L 405.981909 6.330297 
L 460.8 6.330297 
L 460.8 6.330297 
" style="fill:none;stroke:#000000;stroke-linecap:square;stroke-width:1.5;"/>
   </g>
   <g id="line2d_25">
    <path clip-path="url(#p7991bc2bdb)" d="M 207.890149 293.76 
L 207.890149 292.961584 
L 208.302728 292.961584 
L 208.302728 292.163168 
L 211.419542 292.163168 
L 211.419542 291.364752 
L 216.057888 291.364752 
L 216.057888 290.566337 
L 218.829733 290.566337 
L 218.829733 289.767921 
L 219.399197 289.767921 
L 219.399197 288.969505 
L 219.561097 288.969505 
L 219.561097 288.171089 
L 219.78488 288.171089 
L 219.78488 287.372673 
L 220.133104 287.372673 
L 220.133104 286.574257 
L 221.234994 286.574257 
L 221.234994 285.775842 
L 221.403022 285.775842 
L 221.425728 284.17901 
L 221.801369 284.17901 
L 221.801369 283.380594 
L 222.551461 283.380594 
L 222.586872 281.783762 
L 222.853332 281.783762 
L 222.896183 279.388515 
L 223.278292 279.388515 
L 223.278292 278.590099 
L 223.994687 278.590099 
L 223.994687 277.791683 
L 224.180462 277.791683 
L 224.180462 276.993267 
L 224.412789 276.993267 
L 224.412789 276.194851 
L 224.864111 276.194851 
L 224.864111 275.396436 
L 225.709071 275.396436 
L 225.758087 273.799604 
L 225.820622 273.799604 
L 225.820622 273.001188 
L 226.20082 273.001188 
L 226.278387 271.404356 
L 226.378954 271.404356 
L 226.41138 269.807525 
L 226.5453 269.807525 
L 226.65541 268.210693 
L 226.729711 268.210693 
L 226.831643 266.613861 
L 226.900869 266.613861 
L 226.919201 265.01703 
L 227.01713 265.01703 
L 227.01713 264.218614 
L 227.697816 264.218614 
L 227.697816 263.420198 
L 227.825823 263.420198 
L 227.825823 262.621782 
L 228.005979 262.621782 
L 228.039868 260.226535 
L 228.32786 260.226535 
L 228.429927 258.629703 
L 228.841716 258.629703 
L 228.841716 257.831287 
L 229.304411 257.831287 
L 229.313311 256.234455 
L 229.793634 256.234455 
L 229.793634 255.43604 
L 229.979425 255.43604 
L 229.979425 254.637624 
L 230.231724 254.637624 
L 230.231724 253.839208 
L 230.467214 253.839208 
L 230.570211 252.242376 
L 231.25103 252.242376 
L 231.25103 251.44396 
L 231.637138 251.44396 
L 231.648103 249.048713 
L 231.786795 249.048713 
L 231.816819 247.451881 
L 231.959904 247.451881 
L 232.01267 245.056634 
L 232.09943 245.056634 
L 232.18432 242.661386 
L 232.271941 242.661386 
L 232.271941 241.86297 
L 232.459172 241.86297 
L 232.483578 240.266139 
L 232.903436 240.266139 
L 232.903436 239.467723 
L 233.198142 239.467723 
L 233.222273 237.870891 
L 233.494735 237.870891 
L 233.554459 236.274059 
L 234.160826 236.274059 
L 234.160826 235.475644 
L 234.554878 235.475644 
L 234.554878 234.677228 
L 234.737095 234.677228 
L 234.737095 233.878812 
L 234.971946 233.878812 
L 234.971946 233.080396 
L 235.10301 233.080396 
L 235.210118 230.685149 
L 235.664966 230.685149 
L 235.728217 229.088317 
L 235.841591 229.088317 
L 235.92702 227.491485 
L 236.226692 227.491485 
L 236.234096 225.894653 
L 236.436405 225.894653 
L 236.474461 224.297822 
L 236.948819 224.297822 
L 236.948819 223.499406 
L 237.626667 223.499406 
L 237.644091 221.902574 
L 237.85863 221.902574 
L 237.924466 220.305743 
L 238.01457 220.305743 
L 238.01457 219.507327 
L 238.170498 219.507327 
L 238.170498 218.708911 
L 238.664423 218.708911 
L 238.715783 216.313663 
L 238.881832 216.313663 
L 238.881832 215.515248 
L 239.506417 215.515248 
L 239.615298 213.918416 
L 240.012182 213.918416 
L 240.022947 212.321584 
L 240.783617 212.321584 
L 240.783617 211.523168 
L 241.027089 211.523168 
L 241.027089 210.724752 
L 241.231216 210.724752 
L 241.231216 209.926337 
L 241.5403 209.926337 
L 241.5403 209.127921 
L 242.017731 209.127921 
L 242.019892 207.531089 
L 242.136106 207.531089 
L 242.136106 206.732673 
L 242.537159 206.732673 
L 242.537159 205.934257 
L 242.855548 205.934257 
L 242.855548 205.135842 
L 242.967865 205.135842 
L 243.073937 203.53901 
L 243.334775 203.53901 
L 243.370342 201.143762 
L 243.452921 201.143762 
L 243.452921 200.345347 
L 243.601953 200.345347 
L 243.601953 199.546931 
L 243.7565 199.546931 
L 243.7565 198.748515 
L 244.505188 198.748515 
L 244.564266 197.151683 
L 244.69344 197.151683 
L 244.798477 195.554851 
L 245.077397 195.554851 
L 245.077397 194.756436 
L 245.492479 194.756436 
L 245.587388 192.361188 
L 245.768703 192.361188 
L 245.768703 191.562772 
L 246.246451 191.562772 
L 246.300174 189.965941 
L 246.445791 189.965941 
L 246.537713 188.369109 
L 246.624014 188.369109 
L 246.707365 186.772277 
L 246.867625 186.772277 
L 246.929737 185.175446 
L 247.167782 185.175446 
L 247.167782 184.37703 
L 247.333632 184.37703 
L 247.333632 183.578614 
L 247.482138 183.578614 
L 247.586772 181.981782 
L 247.785647 181.981782 
L 247.828886 180.38495 
L 247.911626 180.38495 
L 247.911626 179.586535 
L 248.157002 179.586535 
L 248.264412 177.989703 
L 248.386523 177.989703 
L 248.490749 175.594455 
L 248.706675 175.594455 
L 248.706675 174.79604 
L 248.860383 174.79604 
L 248.862402 173.199208 
L 249.159912 173.199208 
L 249.159912 172.400792 
L 249.303767 172.400792 
L 249.376888 170.005545 
L 249.424451 170.005545 
L 249.424451 169.207129 
L 249.885295 169.207129 
L 249.885295 168.408713 
L 250.080237 168.408713 
L 250.080237 167.610297 
L 250.621225 167.610297 
L 250.621225 166.811881 
L 250.942047 166.811881 
L 250.942047 166.013465 
L 251.182769 166.013465 
L 251.182769 165.21505 
L 251.438032 165.21505 
L 251.438032 164.416634 
L 251.568291 164.416634 
L 251.613682 162.819802 
L 251.772278 162.819802 
L 251.772278 162.021386 
L 251.97282 162.021386 
L 251.97282 161.22297 
L 252.205528 161.22297 
L 252.205528 160.424554 
L 252.424036 160.424554 
L 252.424036 159.626139 
L 252.740346 159.626139 
L 252.740346 158.827723 
L 252.951254 158.827723 
L 252.951254 158.029307 
L 253.518721 158.029307 
L 253.518721 157.230891 
L 253.735078 157.230891 
L 253.735078 156.432475 
L 253.891153 156.432475 
L 253.891153 155.634059 
L 254.036397 155.634059 
L 254.036397 154.835644 
L 254.295276 154.835644 
L 254.365164 153.238812 
L 254.632241 153.238812 
L 254.632241 152.440396 
L 255.076402 152.440396 
L 255.076402 151.64198 
L 255.266158 151.64198 
L 255.335815 150.045149 
L 255.827413 150.045149 
L 255.848414 148.448317 
L 256.015906 148.448317 
L 256.090651 145.254653 
L 256.183018 145.254653 
L 256.183018 144.456238 
L 256.439917 144.456238 
L 256.545062 140.464158 
L 256.585234 140.464158 
L 256.585234 139.665743 
L 257.23219 139.665743 
L 257.23219 138.867327 
L 257.440255 138.867327 
L 257.4964 136.472079 
L 257.707624 136.472079 
L 257.760475 134.875248 
L 257.947365 134.875248 
L 257.991989 133.278416 
L 258.077071 133.278416 
L 258.077071 132.48 
L 258.347009 132.48 
L 258.347009 131.681584 
L 258.501989 131.681584 
L 258.551988 130.084752 
L 258.629781 130.084752 
L 258.629781 129.286337 
L 258.749534 129.286337 
L 258.749534 128.487921 
L 258.989662 128.487921 
L 258.989662 127.689505 
L 259.105152 127.689505 
L 259.195581 125.294257 
L 259.406421 125.294257 
L 259.406421 124.495842 
L 259.564313 124.495842 
L 259.672595 122.89901 
L 259.985147 122.89901 
L 259.986762 121.302178 
L 260.208053 121.302178 
L 260.235467 119.705347 
L 260.366248 119.705347 
L 260.440623 117.310099 
L 260.500566 117.310099 
L 260.572391 115.713267 
L 261.292736 115.713267 
L 261.292736 114.914851 
L 261.460978 114.914851 
L 261.460978 114.116436 
L 261.633366 114.116436 
L 261.676802 112.519604 
L 261.972362 112.519604 
L 261.972362 111.721188 
L 262.308771 111.721188 
L 262.383609 110.124356 
L 262.437982 110.124356 
L 262.461218 108.527525 
L 262.867599 108.527525 
L 262.879063 106.930693 
L 263.847708 106.930693 
L 263.847708 106.132277 
L 265.289839 106.132277 
L 265.289839 105.333861 
L 267.282618 105.333861 
L 267.285518 103.73703 
L 268.358459 103.73703 
L 268.358459 102.938614 
L 268.70806 102.938614 
L 268.70806 102.140198 
L 269.098545 102.140198 
L 269.098545 101.341782 
L 270.759442 101.341782 
L 270.759442 100.543366 
L 271.918087 100.543366 
L 272.010961 98.946535 
L 273.170045 98.946535 
L 273.170045 98.148119 
L 274.474747 98.148119 
L 274.474747 97.349703 
L 274.816628 97.349703 
L 274.816628 96.551287 
L 275.339786 96.551287 
L 275.339786 95.752871 
L 275.846753 95.752871 
L 275.902115 94.15604 
L 275.962473 94.15604 
L 275.962473 93.357624 
L 276.089921 93.357624 
L 276.089921 92.559208 
L 276.282619 92.559208 
L 276.282619 91.760792 
L 276.468626 91.760792 
L 276.572877 90.16396 
L 276.934658 90.16396 
L 276.934658 89.365545 
L 277.229873 89.365545 
L 277.229873 88.567129 
L 277.367488 88.567129 
L 277.367488 87.768713 
L 277.748885 87.768713 
L 277.748885 86.970297 
L 278.395872 86.970297 
L 278.395872 86.171881 
L 278.906441 86.171881 
L 278.981796 84.57505 
L 279.071803 84.57505 
L 279.071803 83.776634 
L 279.654323 83.776634 
L 279.654323 82.978218 
L 279.831531 82.978218 
L 279.844732 81.381386 
L 280.648971 81.381386 
L 280.648971 80.58297 
L 281.200559 80.58297 
L 281.200559 79.784554 
L 282.041057 79.784554 
L 282.118617 78.187723 
L 284.417198 78.187723 
L 284.417198 77.389307 
L 285.352119 77.389307 
L 285.352119 76.590891 
L 287.220226 76.590891 
L 287.220226 75.792475 
L 287.408164 75.792475 
L 287.48786 74.195644 
L 287.849315 74.195644 
L 287.849315 73.397228 
L 288.473692 73.397228 
L 288.473692 72.598812 
L 288.781523 72.598812 
L 288.781523 71.800396 
L 290.559945 71.800396 
L 290.559945 71.00198 
L 291.646539 71.00198 
L 291.646539 70.203564 
L 291.899055 70.203564 
L 291.899055 69.405149 
L 292.365953 69.405149 
L 292.365953 68.606733 
L 293.824138 68.606733 
L 293.859588 67.009901 
L 294.237066 67.009901 
L 294.278983 65.413069 
L 295.849941 65.413069 
L 295.849941 64.614653 
L 297.224996 64.614653 
L 297.224996 63.816238 
L 297.85496 63.816238 
L 297.85496 63.017822 
L 298.069976 63.017822 
L 298.069976 62.219406 
L 298.665149 62.219406 
L 298.665149 61.42099 
L 298.823198 61.42099 
L 298.823198 60.622574 
L 299.638787 60.622574 
L 299.690234 59.025743 
L 299.864224 59.025743 
L 299.864224 58.227327 
L 300.442253 58.227327 
L 300.442253 57.428911 
L 301.10653 57.428911 
L 301.10653 56.630495 
L 301.270449 56.630495 
L 301.270449 55.832079 
L 302.907444 55.832079 
L 302.907444 55.033663 
L 303.210906 55.033663 
L 303.210906 54.235248 
L 303.484744 54.235248 
L 303.484744 53.436832 
L 303.844799 53.436832 
L 303.844799 52.638416 
L 304.405769 52.638416 
L 304.405769 51.84 
L 304.923041 51.84 
L 304.923041 51.041584 
L 307.238686 51.041584 
L 307.238686 50.243168 
L 308.099749 50.243168 
L 308.099749 49.444752 
L 308.238083 49.444752 
L 308.238083 48.646337 
L 308.492553 48.646337 
L 308.492553 47.847921 
L 315.863548 47.847921 
L 315.863548 47.049505 
L 318.972984 47.049505 
L 318.972984 46.251089 
L 321.358791 46.251089 
L 321.386808 44.654257 
L 321.493746 44.654257 
L 321.493746 43.855842 
L 322.154043 43.855842 
L 322.154043 43.057426 
L 322.338579 43.057426 
L 322.338579 42.25901 
L 323.961341 42.25901 
L 323.961341 41.460594 
L 324.686908 41.460594 
L 324.686908 40.662178 
L 325.327236 40.662178 
L 325.385016 39.065347 
L 327.03499 39.065347 
L 327.03499 38.266931 
L 327.333117 38.266931 
L 327.333117 37.468515 
L 327.539367 37.468515 
L 327.539367 36.670099 
L 329.477806 36.670099 
L 329.477806 35.871683 
L 330.642479 35.871683 
L 330.642479 35.073267 
L 332.70127 35.073267 
L 332.70127 34.274851 
L 333.172323 34.274851 
L 333.202682 32.67802 
L 333.352345 32.67802 
L 333.352345 31.879604 
L 334.02065 31.879604 
L 334.02065 31.081188 
L 334.498379 31.081188 
L 334.498379 30.282772 
L 334.841208 30.282772 
L 334.841208 29.484356 
L 337.068179 29.484356 
L 337.068179 28.685941 
L 337.380337 28.685941 
L 337.380337 27.887525 
L 337.685582 27.887525 
L 337.685582 27.089109 
L 338.575512 27.089109 
L 338.575512 26.290693 
L 338.908254 26.290693 
L 338.908254 25.492277 
L 339.864463 25.492277 
L 339.864463 24.693861 
L 341.375681 24.693861 
L 341.375681 23.895446 
L 341.566235 23.895446 
L 341.566235 23.09703 
L 341.897542 23.09703 
L 341.897542 22.298614 
L 343.503517 22.298614 
L 343.503517 21.500198 
L 346.609208 21.500198 
L 346.609208 20.701782 
L 349.65682 20.701782 
L 349.65682 19.903366 
L 349.822316 19.903366 
L 349.822316 19.10495 
L 354.119147 19.10495 
L 354.119147 18.306535 
L 372.253172 18.306535 
L 372.253172 17.508119 
L 380.381477 17.508119 
L 380.381477 16.709703 
L 381.035928 16.709703 
L 381.075372 15.112871 
L 381.314221 15.112871 
L 381.314221 14.314455 
L 385.411321 14.314455 
L 385.411321 13.51604 
L 385.629839 13.51604 
L 385.629839 12.717624 
L 386.69437 12.717624 
L 386.69437 11.919208 
L 387.188201 11.919208 
L 387.188201 11.120792 
L 388.636064 11.120792 
L 388.636064 10.322376 
L 388.979521 10.322376 
L 389.05668 7.927129 
L 392.136396 7.927129 
L 392.136396 7.128713 
L 401.988686 7.128713 
L 401.988686 6.330297 
L 401.988686 6.330297 
L 460.8 6.330297 
L 460.8 6.330297 
" style="fill:none;stroke:#00bfbf;stroke-linecap:square;stroke-width:1.5;"/>
   </g>
   <g id="line2d_26">
    <path clip-path="url(#p7991bc2bdb)" d="M 207.890149 293.76 
L 207.890149 292.961584 
L 208.302728 292.961584 
L 208.302728 292.163168 
L 211.419542 292.163168 
L 211.419542 291.364752 
L 212.314167 291.364752 
L 212.314167 290.566337 
L 215.928568 290.566337 
L 215.928568 289.767921 
L 216.057888 289.767921 
L 216.057888 288.969505 
L 216.777472 288.969505 
L 216.777472 288.171089 
L 217.376527 288.171089 
L 217.376527 287.372673 
L 218.38013 287.372673 
L 218.38013 286.574257 
L 218.829733 286.574257 
L 218.829733 285.775842 
L 219.399197 285.775842 
L 219.399197 284.977426 
L 219.561097 284.977426 
L 219.561097 284.17901 
L 219.78488 284.17901 
L 219.78488 283.380594 
L 220.133104 283.380594 
L 220.133104 282.582178 
L 220.929928 282.582178 
L 220.929928 281.783762 
L 221.234994 281.783762 
L 221.234994 280.985347 
L 221.403022 280.985347 
L 221.425728 279.388515 
L 221.533401 279.388515 
L 221.544186 277.791683 
L 221.801369 277.791683 
L 221.892142 276.194851 
L 222.395033 276.194851 
L 222.502054 274.59802 
L 222.50795 274.59802 
L 222.586872 273.001188 
L 222.869811 273.001188 
L 222.88816 271.404356 
L 223.278292 271.404356 
L 223.278292 270.605941 
L 223.532017 270.605941 
L 223.532017 269.807525 
L 223.85739 269.807525 
L 223.85739 269.009109 
L 224.180462 269.009109 
L 224.180462 268.210693 
L 224.412789 268.210693 
L 224.412789 267.412277 
L 224.705437 267.412277 
L 224.70994 265.815446 
L 225.540592 265.815446 
L 225.540592 265.01703 
L 225.71443 265.01703 
L 225.820622 262.621782 
L 225.827372 262.621782 
L 225.827372 261.823366 
L 226.20082 261.823366 
L 226.278387 260.226535 
L 226.378954 260.226535 
L 226.41138 258.629703 
L 226.5453 258.629703 
L 226.65541 257.032871 
L 226.900869 257.032871 
L 226.919201 255.43604 
L 227.651245 255.43604 
L 227.687436 253.839208 
L 227.823348 253.839208 
L 227.825823 252.242376 
L 228.032664 252.242376 
L 228.039868 250.645545 
L 228.479459 250.645545 
L 228.479459 249.847129 
L 229.304411 249.847129 
L 229.360954 247.451881 
L 229.472596 247.451881 
L 229.472596 246.653465 
L 229.793634 246.653465 
L 229.793634 245.85505 
L 230.064243 245.85505 
L 230.064243 245.056634 
L 230.231724 245.056634 
L 230.231724 244.258218 
L 230.467214 244.258218 
L 230.570211 241.86297 
L 231.25103 241.86297 
L 231.25103 241.064554 
L 231.417527 241.064554 
L 231.417527 240.266139 
L 231.637138 240.266139 
L 231.637138 239.467723 
L 231.786795 239.467723 
L 231.786795 238.669307 
L 231.959904 238.669307 
L 232.01267 236.274059 
L 232.178053 236.274059 
L 232.271941 233.878812 
L 232.310691 233.878812 
L 232.310691 233.080396 
L 232.459172 233.080396 
L 232.459172 232.28198 
L 232.903436 232.28198 
L 232.952203 230.685149 
L 233.198142 230.685149 
L 233.258289 228.289901 
L 233.426104 228.289901 
L 233.494735 226.693069 
L 233.554459 226.693069 
L 233.554459 225.894653 
L 234.11374 225.894653 
L 234.186 223.499406 
L 234.554361 223.499406 
L 234.554878 221.902574 
L 234.737095 221.902574 
L 234.737095 221.104158 
L 234.971946 221.104158 
L 234.971946 220.305743 
L 235.10301 220.305743 
L 235.210118 217.910495 
L 235.234686 217.910495 
L 235.234686 217.112079 
L 235.56676 217.112079 
L 235.583377 215.515248 
L 235.728217 215.515248 
L 235.728217 214.716832 
L 235.92702 214.716832 
L 235.995157 213.12 
L 236.226692 213.12 
L 236.226692 212.321584 
L 236.909635 212.321584 
L 236.948819 210.724752 
L 237.626667 210.724752 
L 237.626667 209.926337 
L 237.85863 209.926337 
L 237.85863 209.127921 
L 237.969801 209.127921 
L 238.01457 207.531089 
L 238.170498 207.531089 
L 238.170498 206.732673 
L 238.664423 206.732673 
L 238.664423 205.934257 
L 238.881832 205.934257 
L 238.881832 205.135842 
L 239.188687 205.135842 
L 239.188687 204.337426 
L 239.615298 204.337426 
L 239.615298 203.53901 
L 240.022947 203.53901 
L 240.022947 202.740594 
L 240.783617 202.740594 
L 240.783617 201.942178 
L 241.027089 201.942178 
L 241.027089 201.143762 
L 241.286451 201.143762 
L 241.33685 199.546931 
L 242.456834 199.546931 
L 242.537159 197.151683 
L 242.855548 197.151683 
L 242.855548 196.353267 
L 243.073937 196.353267 
L 243.088654 194.756436 
L 243.334775 194.756436 
L 243.370342 191.562772 
L 243.57812 191.562772 
L 243.601953 189.965941 
L 243.757644 189.965941 
L 243.757644 189.167525 
L 244.027428 189.167525 
L 244.027428 188.369109 
L 244.517271 188.369109 
L 244.582103 186.772277 
L 244.69344 186.772277 
L 244.798477 184.37703 
L 245.065415 184.37703 
L 245.065415 183.578614 
L 245.492479 183.578614 
L 245.587388 181.183366 
L 245.768703 181.183366 
L 245.768703 180.38495 
L 246.053267 180.38495 
L 246.053267 179.586535 
L 246.246451 179.586535 
L 246.300174 177.989703 
L 246.537713 177.989703 
L 246.624014 176.392871 
L 246.929737 176.392871 
L 246.929737 175.594455 
L 247.244362 175.594455 
L 247.250052 173.997624 
L 247.482138 173.997624 
L 247.586772 172.400792 
L 247.785647 172.400792 
L 247.828886 170.80396 
L 247.911626 170.80396 
L 247.91568 169.207129 
L 248.113072 169.207129 
L 248.185723 167.610297 
L 248.357485 167.610297 
L 248.386523 166.013465 
L 248.862402 166.013465 
L 248.862402 165.21505 
L 249.076088 165.21505 
L 249.159912 163.618218 
L 249.303767 163.618218 
L 249.355743 161.22297 
L 249.424451 161.22297 
L 249.424451 160.424554 
L 250.621225 160.424554 
L 250.621225 159.626139 
L 250.942047 159.626139 
L 251.049693 158.029307 
L 251.182769 158.029307 
L 251.182769 157.230891 
L 251.320108 157.230891 
L 251.320108 156.432475 
L 251.522337 156.432475 
L 251.522337 155.634059 
L 251.772278 155.634059 
L 251.772278 154.835644 
L 252.205528 154.835644 
L 252.205528 154.037228 
L 252.424036 154.037228 
L 252.468671 152.440396 
L 252.740346 152.440396 
L 252.740346 151.64198 
L 252.951254 151.64198 
L 252.951254 150.843564 
L 253.518721 150.843564 
L 253.518721 150.045149 
L 253.735078 150.045149 
L 253.735078 149.246733 
L 254.06233 149.246733 
L 254.098462 147.649901 
L 254.295276 147.649901 
L 254.365164 146.053069 
L 254.632241 146.053069 
L 254.632241 145.254653 
L 255.076402 145.254653 
L 255.180774 143.657822 
L 255.266158 143.657822 
L 255.335815 141.262574 
L 255.441916 141.262574 
L 255.441916 140.464158 
L 255.566202 140.464158 
L 255.566202 139.665743 
L 255.871012 139.665743 
L 255.871012 138.867327 
L 256.015906 138.867327 
L 256.015906 138.068911 
L 256.183018 138.068911 
L 256.183018 137.270495 
L 256.514209 137.270495 
L 256.585234 134.076832 
L 257.311072 134.076832 
L 257.367107 132.48 
L 257.440255 132.48 
L 257.4964 130.883168 
L 257.574808 130.883168 
L 257.672157 129.286337 
L 257.707624 129.286337 
L 257.760475 127.689505 
L 257.855046 127.689505 
L 257.947365 125.294257 
L 257.991989 125.294257 
L 258.077071 123.697426 
L 258.347009 123.697426 
L 258.404599 122.100594 
L 258.629781 122.100594 
L 258.629781 121.302178 
L 259.105152 121.302178 
L 259.195581 118.906931 
L 259.406421 118.906931 
L 259.406421 118.108515 
L 259.564313 118.108515 
L 259.672595 116.511683 
L 259.685491 116.511683 
L 259.742434 114.914851 
L 259.986762 114.914851 
L 259.986762 114.116436 
L 260.208053 114.116436 
L 260.208053 113.31802 
L 260.366248 113.31802 
L 260.366248 112.519604 
L 260.500566 112.519604 
L 260.500566 111.721188 
L 261.015162 111.721188 
L 261.015162 110.922772 
L 261.402506 110.922772 
L 261.460978 109.325941 
L 261.589507 109.325941 
L 261.676802 107.729109 
L 261.742154 107.729109 
L 261.742154 106.930693 
L 261.972362 106.930693 
L 261.972362 106.132277 
L 262.308771 106.132277 
L 262.383609 104.535446 
L 262.437982 104.535446 
L 262.437982 103.73703 
L 262.867599 103.73703 
L 262.867599 102.938614 
L 263.701508 102.938614 
L 263.701508 102.140198 
L 264.545663 102.140198 
L 264.545663 101.341782 
L 264.881483 101.341782 
L 264.881483 100.543366 
L 265.289839 100.543366 
L 265.289839 99.74495 
L 267.282618 99.74495 
L 267.285518 98.148119 
L 268.316691 98.148119 
L 268.316691 97.349703 
L 268.70806 97.349703 
L 268.70806 96.551287 
L 269.499706 96.551287 
L 269.499706 95.752871 
L 269.784978 95.752871 
L 269.784978 94.954455 
L 269.988703 94.954455 
L 269.988703 94.15604 
L 270.759442 94.15604 
L 270.759442 93.357624 
L 271.918087 93.357624 
L 272.010961 91.760792 
L 272.360779 91.760792 
L 272.360779 90.962376 
L 272.69047 90.962376 
L 272.69047 90.16396 
L 273.084153 90.16396 
L 273.170045 88.567129 
L 274.474747 88.567129 
L 274.474747 87.768713 
L 274.816628 87.768713 
L 274.816628 86.970297 
L 275.339786 86.970297 
L 275.439464 85.373465 
L 275.902115 85.373465 
L 275.962473 83.776634 
L 276.282619 83.776634 
L 276.282619 82.978218 
L 276.468626 82.978218 
L 276.572877 80.58297 
L 276.676601 80.58297 
L 276.75799 78.986139 
L 276.934658 78.986139 
L 276.934658 78.187723 
L 277.229873 78.187723 
L 277.229873 77.389307 
L 277.782679 77.389307 
L 277.782679 76.590891 
L 278.015315 76.590891 
L 278.015315 75.792475 
L 278.256345 75.792475 
L 278.256345 74.994059 
L 278.906441 74.994059 
L 278.981796 73.397228 
L 279.654323 73.397228 
L 279.654323 72.598812 
L 279.831531 72.598812 
L 279.831531 71.800396 
L 280.648971 71.800396 
L 280.648971 71.00198 
L 282.041057 71.00198 
L 282.118617 69.405149 
L 283.241141 69.405149 
L 283.241141 68.606733 
L 283.585121 68.606733 
L 283.585121 67.808317 
L 283.817643 67.808317 
L 283.817643 67.009901 
L 284.417198 67.009901 
L 284.516065 65.413069 
L 285.352119 65.413069 
L 285.352119 64.614653 
L 287.220226 64.614653 
L 287.220226 63.816238 
L 287.48786 63.816238 
L 287.48786 63.017822 
L 287.849315 63.017822 
L 287.849315 62.219406 
L 291.646539 62.219406 
L 291.646539 61.42099 
L 291.899055 61.42099 
L 291.899055 60.622574 
L 293.824138 60.622574 
L 293.824138 59.824158 
L 294.233392 59.824158 
L 294.237066 58.227327 
L 295.849941 58.227327 
L 295.849941 57.428911 
L 297.85496 57.428911 
L 297.85496 56.630495 
L 298.069976 56.630495 
L 298.069976 55.832079 
L 298.665149 55.832079 
L 298.665149 55.033663 
L 299.638787 55.033663 
L 299.690234 53.436832 
L 299.864224 53.436832 
L 299.864224 52.638416 
L 301.270449 52.638416 
L 301.270449 51.84 
L 302.907444 51.84 
L 303.012001 50.243168 
L 303.210906 50.243168 
L 303.210906 49.444752 
L 303.844799 49.444752 
L 303.874977 47.847921 
L 307.238686 47.847921 
L 307.238686 47.049505 
L 308.099749 47.049505 
L 308.182937 45.452673 
L 311.703505 45.452673 
L 311.703505 44.654257 
L 315.863548 44.654257 
L 315.863548 43.855842 
L 317.05682 43.855842 
L 317.05682 43.057426 
L 317.277352 43.057426 
L 317.277352 42.25901 
L 318.972984 42.25901 
L 318.972984 41.460594 
L 319.27287 41.460594 
L 319.27287 40.662178 
L 320.692751 40.662178 
L 320.692751 39.863762 
L 321.386808 39.863762 
L 321.386808 39.065347 
L 321.902156 39.065347 
L 321.902156 38.266931 
L 322.338579 38.266931 
L 322.434745 36.670099 
L 324.686908 36.670099 
L 324.686908 35.871683 
L 325.327236 35.871683 
L 325.385016 34.274851 
L 327.03499 34.274851 
L 327.03499 33.476436 
L 327.539367 33.476436 
L 327.539367 32.67802 
L 329.392624 32.67802 
L 329.477806 31.081188 
L 329.9475 31.081188 
L 329.9475 30.282772 
L 330.232841 30.282772 
L 330.232841 29.484356 
L 332.70127 29.484356 
L 332.70127 28.685941 
L 333.172323 28.685941 
L 333.172323 27.887525 
L 334.841208 27.887525 
L 334.841208 27.089109 
L 337.068179 27.089109 
L 337.068179 26.290693 
L 337.380337 26.290693 
L 337.380337 25.492277 
L 338.575512 25.492277 
L 338.575512 24.693861 
L 338.908254 24.693861 
L 338.908254 23.895446 
L 339.022107 23.895446 
L 339.022107 23.09703 
L 339.864463 23.09703 
L 339.864463 22.298614 
L 339.9785 22.298614 
L 339.9785 21.500198 
L 341.375681 21.500198 
L 341.375681 20.701782 
L 343.327048 20.701782 
L 343.337984 19.10495 
L 346.452441 19.10495 
L 346.452441 18.306535 
L 372.253172 18.306535 
L 372.253172 17.508119 
L 376.61874 17.508119 
L 376.61874 16.709703 
L 380.381477 16.709703 
L 380.381477 15.911287 
L 381.035928 15.911287 
L 381.075372 14.314455 
L 384.782592 14.314455 
L 384.782592 13.51604 
L 385.411321 13.51604 
L 385.411321 12.717624 
L 386.69437 12.717624 
L 386.69437 11.919208 
L 387.188201 11.919208 
L 387.188201 11.120792 
L 387.518193 11.120792 
L 387.518193 10.322376 
L 388.636064 10.322376 
L 388.636064 9.52396 
L 388.979521 9.52396 
L 389.05668 7.128713 
L 400.114422 7.128713 
L 400.114422 6.330297 
L 400.114422 6.330297 
L 460.8 6.330297 
L 460.8 6.330297 
" style="fill:none;stroke:#bf00bf;stroke-linecap:square;stroke-width:1.5;"/>
   </g>
   <g id="patch_3">
    <path d="M 0 293.76 
L 0 3.456 
" style="fill:none;stroke:#000000;stroke-linecap:square;stroke-linejoin:miter;stroke-width:0.8;"/>
   </g>
   <g id="patch_4">
    <path d="M 460.8 293.76 
L 460.8 3.456 
" style="fill:none;stroke:#000000;stroke-linecap:square;stroke-linejoin:miter;stroke-width:0.8;"/>
   </g>
   <g id="patch_5">
    <path d="M 0 293.76 
L 460.8 293.76 
" style="fill:none;stroke:#000000;stroke-linecap:square;stroke-linejoin:miter;stroke-width:0.8;"/>
   </g>
   <g id="patch_6">
    <path d="M 0 3.456 
L 460.8 3.456 
" style="fill:none;stroke:#000000;stroke-linecap:square;stroke-linejoin:miter;stroke-width:0.8;"/>
   </g>
   <g id="text_6">
    <!-- {f1-f24}, 5-D -->
    <defs>
     <path d="M 51.125 -9.28125 
L 51.125 -16.3125 
L 48.09375 -16.3125 
Q 35.9375 -16.3125 31.8125 -12.6875 
Q 27.6875 -9.078125 27.6875 1.703125 
L 27.6875 13.375 
Q 27.6875 20.75 25.046875 23.578125 
Q 22.40625 26.421875 15.484375 26.421875 
L 12.5 26.421875 
L 12.5 33.40625 
L 15.484375 33.40625 
Q 22.46875 33.40625 25.078125 36.203125 
Q 27.6875 39.015625 27.6875 46.296875 
L 27.6875 58.015625 
Q 27.6875 68.796875 31.8125 72.390625 
Q 35.9375 75.984375 48.09375 75.984375 
L 51.125 75.984375 
L 51.125 69 
L 47.796875 69 
Q 40.921875 69 38.8125 66.84375 
Q 36.71875 64.703125 36.71875 57.8125 
L 36.71875 45.703125 
Q 36.71875 38.03125 34.5 34.5625 
Q 32.28125 31.109375 26.90625 29.890625 
Q 32.328125 28.5625 34.515625 25.09375 
Q 36.71875 21.625 36.71875 14.015625 
L 36.71875 1.90625 
Q 36.71875 -4.984375 38.8125 -7.125 
Q 40.921875 -9.28125 47.796875 -9.28125 
z
" id="DejaVuSans-123"/>
     <path d="M 19.1875 8.296875 
L 53.609375 8.296875 
L 53.609375 0 
L 7.328125 0 
L 7.328125 8.296875 
Q 12.9375 14.109375 22.625 23.890625 
Q 32.328125 33.6875 34.8125 36.53125 
Q 39.546875 41.84375 41.421875 45.53125 
Q 43.3125 49.21875 43.3125 52.78125 
Q 43.3125 58.59375 39.234375 62.25 
Q 35.15625 65.921875 28.609375 65.921875 
Q 23.96875 65.921875 18.8125 64.3125 
Q 13.671875 62.703125 7.8125 59.421875 
L 7.8125 69.390625 
Q 13.765625 71.78125 18.9375 73 
Q 24.125 74.21875 28.421875 74.21875 
Q 39.75 74.21875 46.484375 68.546875 
Q 53.21875 62.890625 53.21875 53.421875 
Q 53.21875 48.921875 51.53125 44.890625 
Q 49.859375 40.875 45.40625 35.40625 
Q 44.1875 33.984375 37.640625 27.21875 
Q 31.109375 20.453125 19.1875 8.296875 
z
" id="DejaVuSans-50"/>
     <path d="M 12.5 -9.28125 
L 15.921875 -9.28125 
Q 22.75 -9.28125 24.828125 -7.171875 
Q 26.90625 -5.078125 26.90625 1.90625 
L 26.90625 14.015625 
Q 26.90625 21.625 29.09375 25.09375 
Q 31.296875 28.5625 36.71875 29.890625 
Q 31.296875 31.109375 29.09375 34.5625 
Q 26.90625 38.03125 26.90625 45.703125 
L 26.90625 57.8125 
Q 26.90625 64.75 24.828125 66.875 
Q 22.75 69 15.921875 69 
L 12.5 69 
L 12.5 75.984375 
L 15.578125 75.984375 
Q 27.734375 75.984375 31.8125 72.390625 
Q 35.890625 68.796875 35.890625 58.015625 
L 35.890625 46.296875 
Q 35.890625 39.015625 38.515625 36.203125 
Q 41.15625 33.40625 48.09375 33.40625 
L 51.125 33.40625 
L 51.125 26.421875 
L 48.09375 26.421875 
Q 41.15625 26.421875 38.515625 23.578125 
Q 35.890625 20.75 35.890625 13.375 
L 35.890625 1.703125 
Q 35.890625 -9.078125 31.8125 -12.6875 
Q 27.734375 -16.3125 15.578125 -16.3125 
L 12.5 -16.3125 
z
" id="DejaVuSans-125"/>
     <path d="M 11.71875 12.40625 
L 22.015625 12.40625 
L 22.015625 4 
L 14.015625 -11.625 
L 7.71875 -11.625 
L 11.71875 4 
z
" id="DejaVuSans-44"/>
     <path d="M 10.796875 72.90625 
L 49.515625 72.90625 
L 49.515625 64.59375 
L 19.828125 64.59375 
L 19.828125 46.734375 
Q 21.96875 47.46875 24.109375 47.828125 
Q 26.265625 48.1875 28.421875 48.1875 
Q 40.625 48.1875 47.75 41.5 
Q 54.890625 34.8125 54.890625 23.390625 
Q 54.890625 11.625 47.5625 5.09375 
Q 40.234375 -1.421875 26.90625 -1.421875 
Q 22.3125 -1.421875 17.546875 -0.640625 
Q 12.796875 0.140625 7.71875 1.703125 
L 7.71875 11.625 
Q 12.109375 9.234375 16.796875 8.0625 
Q 21.484375 6.890625 26.703125 6.890625 
Q 35.15625 6.890625 40.078125 11.328125 
Q 45.015625 15.765625 45.015625 23.390625 
Q 45.015625 31 40.078125 35.4375 
Q 35.15625 39.890625 26.703125 39.890625 
Q 22.75 39.890625 18.8125 39.015625 
Q 14.890625 38.140625 10.796875 36.28125 
z
" id="DejaVuSans-53"/>
    </defs>
    <g transform="translate(318.609 287.95392)scale(0.2 -0.2)">
     <use xlink:href="#DejaVuSans-123"/>
     <use x="63.623047" xlink:href="#DejaVuSans-102"/>
     <use x="98.828125" xlink:href="#DejaVuSans-49"/>
     <use x="162.451172" xlink:href="#DejaVuSans-45"/>
     <use x="198.535156" xlink:href="#DejaVuSans-102"/>
     <use x="233.740234" xlink:href="#DejaVuSans-50"/>
     <use x="297.363281" xlink:href="#DejaVuSans-52"/>
     <use x="360.986328" xlink:href="#DejaVuSans-125"/>
     <use x="424.609375" xlink:href="#DejaVuSans-44"/>
     <use x="456.396484" xlink:href="#DejaVuSans-32"/>
     <use x="488.183594" xlink:href="#DejaVuSans-53"/>
     <use x="551.806641" xlink:href="#DejaVuSans-45"/>
     <use x="587.890625" xlink:href="#DejaVuSans-68"/>
    </g>
   </g>
   <g id="text_7">
    <!-- v2.4 -->
    <defs>
     <path d="M 2.984375 54.6875 
L 12.5 54.6875 
L 29.59375 8.796875 
L 46.6875 54.6875 
L 56.203125 54.6875 
L 35.6875 0 
L 23.484375 0 
z
" id="DejaVuSans-118"/>
     <path d="M 10.6875 12.40625 
L 21 12.40625 
L 21 0 
L 10.6875 0 
z
" id="DejaVuSans-46"/>
    </defs>
    <g style="fill:#808080;" transform="translate(219.489063 288.777272)scale(0.1 -0.1)">
     <use xlink:href="#DejaVuSans-118"/>
     <use x="59.179688" xlink:href="#DejaVuSans-50"/>
     <use x="122.802734" xlink:href="#DejaVuSans-46"/>
     <use x="154.589844" xlink:href="#DejaVuSans-52"/>
    </g>
   </g>
  </g>
 </g>
 <defs>
  <clipPath id="p7991bc2bdb">
   <rect height="290.304" width="460.8" x="0" y="3.456"/>
  </clipPath>
 </defs>
</svg>
