<?xml version="1.0" encoding="utf-8" standalone="no"?>
<!DOCTYPE svg PUBLIC "-//W3C//DTD SVG 1.1//EN"
  "http://www.w3.org/Graphics/SVG/1.1/DTD/svg11.dtd">
<!-- Created with matplotlib (https://matplotlib.org/) -->
<svg height="345.6pt" version="1.1" viewBox="0 0 460.8 345.6" width="460.8pt" xmlns="http://www.w3.org/2000/svg" xmlns:xlink="http://www.w3.org/1999/xlink">
 <defs>
  <style type="text/css">
*{stroke-linecap:butt;stroke-linejoin:round;}
  </style>
 </defs>
 <g id="figure_1">
  <g id="patch_1">
   <path d="M 0 345.6 
L 460.8 345.6 
L 460.8 0 
L 0 0 
z
" style="fill:#ffffff;"/>
  </g>
  <g id="axes_1">
   <g id="patch_2">
    <path d="M 0 293.76 
L 460.8 293.76 
L 460.8 3.456 
L 0 3.456 
z
" style="fill:#ffffff;"/>
   </g>
   <g id="matplotlib.axis_1">
    <g id="xtick_1">
     <g id="line2d_1">
      <path clip-path="url(#p13843755c4)" d="M 106.304334 293.76 
L 106.304334 3.456 
" style="fill:none;stroke:#b0b0b0;stroke-linecap:square;stroke-width:0.8;"/>
     </g>
     <g id="line2d_2">
      <defs>
       <path d="M 0 0 
L 0 3.5 
" id="m207cbd3d73" style="stroke:#000000;stroke-width:0.8;"/>
      </defs>
      <g>
       <use style="stroke:#000000;stroke-width:0.8;" x="106.304334" xlink:href="#m207cbd3d73" y="293.76"/>
      </g>
     </g>
     <g id="text_1">
      <!-- -4 -->
      <defs>
       <path d="M 4.890625 31.390625 
L 31.203125 31.390625 
L 31.203125 23.390625 
L 4.890625 23.390625 
z
" id="DejaVuSans-45"/>
       <path d="M 37.796875 64.3125 
L 12.890625 25.390625 
L 37.796875 25.390625 
z
M 35.203125 72.90625 
L 47.609375 72.90625 
L 47.609375 25.390625 
L 58.015625 25.390625 
L 58.015625 17.1875 
L 47.609375 17.1875 
L 47.609375 0 
L 37.796875 0 
L 37.796875 17.1875 
L 4.890625 17.1875 
L 4.890625 26.703125 
z
" id="DejaVuSans-52"/>
      </defs>
      <g transform="translate(96.334022 315.956875)scale(0.2 -0.2)">
       <use xlink:href="#DejaVuSans-45"/>
       <use x="36.083984" xlink:href="#DejaVuSans-52"/>
      </g>
     </g>
    </g>
    <g id="xtick_2">
     <g id="line2d_3">
      <path clip-path="url(#p13843755c4)" d="M 212.723638 293.76 
L 212.723638 3.456 
" style="fill:none;stroke:#b0b0b0;stroke-linecap:square;stroke-width:0.8;"/>
     </g>
     <g id="line2d_4">
      <g>
       <use style="stroke:#000000;stroke-width:0.8;" x="212.723638" xlink:href="#m207cbd3d73" y="293.76"/>
      </g>
     </g>
     <g id="text_2">
      <!-- 0 -->
      <defs>
       <path d="M 31.78125 66.40625 
Q 24.171875 66.40625 20.328125 58.90625 
Q 16.5 51.421875 16.5 36.375 
Q 16.5 21.390625 20.328125 13.890625 
Q 24.171875 6.390625 31.78125 6.390625 
Q 39.453125 6.390625 43.28125 13.890625 
Q 47.125 21.390625 47.125 36.375 
Q 47.125 51.421875 43.28125 58.90625 
Q 39.453125 66.40625 31.78125 66.40625 
z
M 31.78125 74.21875 
Q 44.046875 74.21875 50.515625 64.515625 
Q 56.984375 54.828125 56.984375 36.375 
Q 56.984375 17.96875 50.515625 8.265625 
Q 44.046875 -1.421875 31.78125 -1.421875 
Q 19.53125 -1.421875 13.0625 8.265625 
Q 6.59375 17.96875 6.59375 36.375 
Q 6.59375 54.828125 13.0625 64.515625 
Q 19.53125 74.21875 31.78125 74.21875 
z
" id="DejaVuSans-48"/>
      </defs>
      <g transform="translate(206.361138 315.956875)scale(0.2 -0.2)">
       <use xlink:href="#DejaVuSans-48"/>
      </g>
     </g>
    </g>
    <g id="xtick_3">
     <g id="line2d_5">
      <path clip-path="url(#p13843755c4)" d="M 319.142942 293.76 
L 319.142942 3.456 
" style="fill:none;stroke:#b0b0b0;stroke-linecap:square;stroke-width:0.8;"/>
     </g>
     <g id="line2d_6">
      <g>
       <use style="stroke:#000000;stroke-width:0.8;" x="319.142942" xlink:href="#m207cbd3d73" y="293.76"/>
      </g>
     </g>
     <g id="text_3">
      <!-- 4 -->
      <g transform="translate(312.780442 315.956875)scale(0.2 -0.2)">
       <use xlink:href="#DejaVuSans-52"/>
      </g>
     </g>
    </g>
    <g id="xtick_4">
     <g id="line2d_7">
      <path clip-path="url(#p13843755c4)" d="M 425.562245 293.76 
L 425.562245 3.456 
" style="fill:none;stroke:#b0b0b0;stroke-linecap:square;stroke-width:0.8;"/>
     </g>
     <g id="line2d_8">
      <g>
       <use style="stroke:#000000;stroke-width:0.8;" x="425.562245" xlink:href="#m207cbd3d73" y="293.76"/>
      </g>
     </g>
     <g id="text_4">
      <!-- 8 -->
      <defs>
       <path d="M 31.78125 34.625 
Q 24.75 34.625 20.71875 30.859375 
Q 16.703125 27.09375 16.703125 20.515625 
Q 16.703125 13.921875 20.71875 10.15625 
Q 24.75 6.390625 31.78125 6.390625 
Q 38.8125 6.390625 42.859375 10.171875 
Q 46.921875 13.96875 46.921875 20.515625 
Q 46.921875 27.09375 42.890625 30.859375 
Q 38.875 34.625 31.78125 34.625 
z
M 21.921875 38.8125 
Q 15.578125 40.375 12.03125 44.71875 
Q 8.5 49.078125 8.5 55.328125 
Q 8.5 64.0625 14.71875 69.140625 
Q 20.953125 74.21875 31.78125 74.21875 
Q 42.671875 74.21875 48.875 69.140625 
Q 55.078125 64.0625 55.078125 55.328125 
Q 55.078125 49.078125 51.53125 44.71875 
Q 48 40.375 41.703125 38.8125 
Q 48.828125 37.15625 52.796875 32.3125 
Q 56.78125 27.484375 56.78125 20.515625 
Q 56.78125 9.90625 50.3125 4.234375 
Q 43.84375 -1.421875 31.78125 -1.421875 
Q 19.734375 -1.421875 13.25 4.234375 
Q 6.78125 9.90625 6.78125 20.515625 
Q 6.78125 27.484375 10.78125 32.3125 
Q 14.796875 37.15625 21.921875 38.8125 
z
M 18.3125 54.390625 
Q 18.3125 48.734375 21.84375 45.5625 
Q 25.390625 42.390625 31.78125 42.390625 
Q 38.140625 42.390625 41.71875 45.5625 
Q 45.3125 48.734375 45.3125 54.390625 
Q 45.3125 60.0625 41.71875 63.234375 
Q 38.140625 66.40625 31.78125 66.40625 
Q 25.390625 66.40625 21.84375 63.234375 
Q 18.3125 60.0625 18.3125 54.390625 
z
" id="DejaVuSans-56"/>
      </defs>
      <g transform="translate(419.199745 315.956875)scale(0.2 -0.2)">
       <use xlink:href="#DejaVuSans-56"/>
      </g>
     </g>
    </g>
    <g id="text_5">
     <!-- log10 of Df -->
     <defs>
      <path d="M 9.421875 75.984375 
L 18.40625 75.984375 
L 18.40625 0 
L 9.421875 0 
z
" id="DejaVuSans-108"/>
      <path d="M 30.609375 48.390625 
Q 23.390625 48.390625 19.1875 42.75 
Q 14.984375 37.109375 14.984375 27.296875 
Q 14.984375 17.484375 19.15625 11.84375 
Q 23.34375 6.203125 30.609375 6.203125 
Q 37.796875 6.203125 41.984375 11.859375 
Q 46.1875 17.53125 46.1875 27.296875 
Q 46.1875 37.015625 41.984375 42.703125 
Q 37.796875 48.390625 30.609375 48.390625 
z
M 30.609375 56 
Q 42.328125 56 49.015625 48.375 
Q 55.71875 40.765625 55.71875 27.296875 
Q 55.71875 13.875 49.015625 6.21875 
Q 42.328125 -1.421875 30.609375 -1.421875 
Q 18.84375 -1.421875 12.171875 6.21875 
Q 5.515625 13.875 5.515625 27.296875 
Q 5.515625 40.765625 12.171875 48.375 
Q 18.84375 56 30.609375 56 
z
" id="DejaVuSans-111"/>
      <path d="M 45.40625 27.984375 
Q 45.40625 37.75 41.375 43.109375 
Q 37.359375 48.484375 30.078125 48.484375 
Q 22.859375 48.484375 18.828125 43.109375 
Q 14.796875 37.75 14.796875 27.984375 
Q 14.796875 18.265625 18.828125 12.890625 
Q 22.859375 7.515625 30.078125 7.515625 
Q 37.359375 7.515625 41.375 12.890625 
Q 45.40625 18.265625 45.40625 27.984375 
z
M 54.390625 6.78125 
Q 54.390625 -7.171875 48.1875 -13.984375 
Q 42 -20.796875 29.203125 -20.796875 
Q 24.46875 -20.796875 20.265625 -20.09375 
Q 16.0625 -19.390625 12.109375 -17.921875 
L 12.109375 -9.1875 
Q 16.0625 -11.328125 19.921875 -12.34375 
Q 23.78125 -13.375 27.78125 -13.375 
Q 36.625 -13.375 41.015625 -8.765625 
Q 45.40625 -4.15625 45.40625 5.171875 
L 45.40625 9.625 
Q 42.625 4.78125 38.28125 2.390625 
Q 33.9375 0 27.875 0 
Q 17.828125 0 11.671875 7.65625 
Q 5.515625 15.328125 5.515625 27.984375 
Q 5.515625 40.671875 11.671875 48.328125 
Q 17.828125 56 27.875 56 
Q 33.9375 56 38.28125 53.609375 
Q 42.625 51.21875 45.40625 46.390625 
L 45.40625 54.6875 
L 54.390625 54.6875 
z
" id="DejaVuSans-103"/>
      <path d="M 12.40625 8.296875 
L 28.515625 8.296875 
L 28.515625 63.921875 
L 10.984375 60.40625 
L 10.984375 69.390625 
L 28.421875 72.90625 
L 38.28125 72.90625 
L 38.28125 8.296875 
L 54.390625 8.296875 
L 54.390625 0 
L 12.40625 0 
z
" id="DejaVuSans-49"/>
      <path id="DejaVuSans-32"/>
      <path d="M 37.109375 75.984375 
L 37.109375 68.5 
L 28.515625 68.5 
Q 23.6875 68.5 21.796875 66.546875 
Q 19.921875 64.59375 19.921875 59.515625 
L 19.921875 54.6875 
L 34.71875 54.6875 
L 34.71875 47.703125 
L 19.921875 47.703125 
L 19.921875 0 
L 10.890625 0 
L 10.890625 47.703125 
L 2.296875 47.703125 
L 2.296875 54.6875 
L 10.890625 54.6875 
L 10.890625 58.5 
Q 10.890625 67.625 15.140625 71.796875 
Q 19.390625 75.984375 28.609375 75.984375 
z
" id="DejaVuSans-102"/>
      <path d="M 19.671875 64.796875 
L 19.671875 8.109375 
L 31.59375 8.109375 
Q 46.6875 8.109375 53.6875 14.9375 
Q 60.6875 21.78125 60.6875 36.53125 
Q 60.6875 51.171875 53.6875 57.984375 
Q 46.6875 64.796875 31.59375 64.796875 
z
M 9.8125 72.90625 
L 30.078125 72.90625 
Q 51.265625 72.90625 61.171875 64.09375 
Q 71.09375 55.28125 71.09375 36.53125 
Q 71.09375 17.671875 61.125 8.828125 
Q 51.171875 0 30.078125 0 
L 9.8125 0 
z
" id="DejaVuSans-68"/>
     </defs>
     <g transform="translate(175.214063 339.313125)scale(0.2 -0.2)">
      <use xlink:href="#DejaVuSans-108"/>
      <use x="27.783203" xlink:href="#DejaVuSans-111"/>
      <use x="88.964844" xlink:href="#DejaVuSans-103"/>
      <use x="152.441406" xlink:href="#DejaVuSans-49"/>
      <use x="216.064453" xlink:href="#DejaVuSans-48"/>
      <use x="279.6875" xlink:href="#DejaVuSans-32"/>
      <use x="311.474609" xlink:href="#DejaVuSans-111"/>
      <use x="372.65625" xlink:href="#DejaVuSans-102"/>
      <use x="407.861328" xlink:href="#DejaVuSans-32"/>
      <use x="439.648438" xlink:href="#DejaVuSans-68"/>
      <use x="516.650391" xlink:href="#DejaVuSans-102"/>
     </g>
    </g>
   </g>
   <g id="matplotlib.axis_2">
    <g id="ytick_1">
     <g id="line2d_9">
      <path clip-path="url(#p13843755c4)" d="M 0 293.76 
L 460.8 293.76 
" style="fill:none;stroke:#b0b0b0;stroke-linecap:square;stroke-width:0.8;"/>
     </g>
     <g id="line2d_10">
      <defs>
       <path d="M 0 0 
L -3.5 0 
" id="m6d1f5a5c3e" style="stroke:#000000;stroke-width:0.8;"/>
      </defs>
      <g>
       <use style="stroke:#000000;stroke-width:0.8;" x="0" xlink:href="#m6d1f5a5c3e" y="293.76"/>
      </g>
     </g>
    </g>
    <g id="ytick_2">
     <g id="line2d_11">
      <path clip-path="url(#p13843755c4)" d="M 0 236.274059 
L 460.8 236.274059 
" style="fill:none;stroke:#b0b0b0;stroke-linecap:square;stroke-width:0.8;"/>
     </g>
     <g id="line2d_12">
      <g>
       <use style="stroke:#000000;stroke-width:0.8;" x="0" xlink:href="#m6d1f5a5c3e" y="236.274059"/>
      </g>
     </g>
    </g>
    <g id="ytick_3">
     <g id="line2d_13">
      <path clip-path="url(#p13843755c4)" d="M 0 178.788119 
L 460.8 178.788119 
" style="fill:none;stroke:#b0b0b0;stroke-linecap:square;stroke-width:0.8;"/>
     </g>
     <g id="line2d_14">
      <g>
       <use style="stroke:#000000;stroke-width:0.8;" x="0" xlink:href="#m6d1f5a5c3e" y="178.788119"/>
      </g>
     </g>
    </g>
    <g id="ytick_4">
     <g id="line2d_15">
      <path clip-path="url(#p13843755c4)" d="M 0 121.302178 
L 460.8 121.302178 
" style="fill:none;stroke:#b0b0b0;stroke-linecap:square;stroke-width:0.8;"/>
     </g>
     <g id="line2d_16">
      <g>
       <use style="stroke:#000000;stroke-width:0.8;" x="0" xlink:href="#m6d1f5a5c3e" y="121.302178"/>
      </g>
     </g>
    </g>
    <g id="ytick_5">
     <g id="line2d_17">
      <path clip-path="url(#p13843755c4)" d="M 0 63.816238 
L 460.8 63.816238 
" style="fill:none;stroke:#b0b0b0;stroke-linecap:square;stroke-width:0.8;"/>
     </g>
     <g id="line2d_18">
      <g>
       <use style="stroke:#000000;stroke-width:0.8;" x="0" xlink:href="#m6d1f5a5c3e" y="63.816238"/>
      </g>
     </g>
    </g>
    <g id="ytick_6">
     <g id="line2d_19">
      <path clip-path="url(#p13843755c4)" d="M 0 6.330297 
L 460.8 6.330297 
" style="fill:none;stroke:#b0b0b0;stroke-linecap:square;stroke-width:0.8;"/>
     </g>
     <g id="line2d_20">
      <g>
       <use style="stroke:#000000;stroke-width:0.8;" x="0" xlink:href="#m6d1f5a5c3e" y="6.330297"/>
      </g>
     </g>
    </g>
   </g>
   <g id="line2d_21">
    <path clip-path="url(#p13843755c4)" d="M 235.331687 293.76 
L 235.331687 289.927604 
L 240.529321 289.927604 
L 240.529321 286.095208 
L 240.789789 286.095208 
L 240.789789 282.262812 
L 242.185735 282.262812 
L 242.185735 278.430416 
L 242.444878 278.430416 
L 242.444878 274.59802 
L 242.652595 274.59802 
L 242.652595 270.765624 
L 242.814949 270.765624 
L 242.814949 266.933228 
L 243.084854 266.933228 
L 243.109509 259.268436 
L 243.238074 259.268436 
L 243.238074 255.43604 
L 243.422324 255.43604 
L 243.45404 243.938851 
L 243.630163 243.938851 
L 243.708629 236.274059 
L 243.893704 236.274059 
L 244.00263 224.776871 
L 244.36589 224.776871 
L 244.36589 220.944475 
L 244.599261 220.944475 
L 244.599261 217.112079 
L 245.152816 217.112079 
L 245.152816 213.279683 
L 245.334133 213.279683 
L 245.342578 205.614891 
L 245.581884 205.614891 
L 245.62065 197.950099 
L 246.646291 197.950099 
L 246.646291 194.117703 
L 247.767469 194.117703 
L 247.767469 190.285307 
L 248.212605 190.285307 
L 248.212605 186.452911 
L 248.518975 186.452911 
L 248.518975 182.620515 
L 248.695895 182.620515 
L 248.695895 178.788119 
L 249.932123 178.788119 
L 249.932123 174.955723 
L 250.655973 174.955723 
L 250.655973 171.123327 
L 250.776376 171.123327 
L 250.776376 167.290931 
L 253.748234 167.290931 
L 253.793802 155.793743 
L 253.96567 155.793743 
L 253.96567 151.961347 
L 254.180963 151.961347 
L 254.222481 144.296554 
L 254.365977 144.296554 
L 254.408586 128.96697 
L 255.17074 128.96697 
L 255.221143 121.302178 
L 255.799252 121.302178 
L 255.799252 117.469782 
L 256.124745 117.469782 
L 256.223119 109.80499 
L 256.468338 109.80499 
L 256.468338 105.972594 
L 256.768778 105.972594 
L 256.768778 102.140198 
L 257.456262 102.140198 
L 257.456262 98.307802 
L 258.713326 98.307802 
L 258.739922 90.64301 
L 259.736051 90.64301 
L 259.736051 86.810614 
L 260.469271 86.810614 
L 260.551853 79.145822 
L 261.985173 79.145822 
L 261.985173 75.313426 
L 263.716167 75.313426 
L 263.716167 71.48103 
L 265.981833 71.48103 
L 265.981833 67.648634 
L 269.796786 67.648634 
L 269.796786 63.816238 
L 283.614995 63.816238 
L 283.614995 59.983842 
L 284.393906 59.983842 
L 284.393906 56.151446 
L 285.594702 56.151446 
L 285.594702 52.31905 
L 286.373358 52.31905 
L 286.373358 48.486653 
L 287.327403 48.486653 
L 287.327403 44.654257 
L 287.541248 44.654257 
L 287.541248 40.821861 
L 288.118436 40.821861 
L 288.146396 33.157069 
L 288.41716 33.157069 
L 288.41716 29.324673 
L 288.530906 29.324673 
L 288.530906 25.492277 
L 288.89387 25.492277 
L 288.89387 21.659881 
L 290.632895 21.659881 
L 290.632895 17.827485 
L 293.390402 17.827485 
L 293.499885 10.162693 
L 293.620818 10.162693 
L 293.620818 6.330297 
L 293.620818 6.330297 
L 460.8 6.330297 
L 460.8 6.330297 
" style="fill:none;stroke:#ff0000;stroke-linecap:square;stroke-width:3;"/>
   </g>
   <g id="line2d_22">
    <path clip-path="url(#p13843755c4)" d="M 242.552644 293.76 
L 242.652595 286.095208 
L 243.31176 286.095208 
L 243.31176 282.262812 
L 243.618238 282.262812 
L 243.618238 278.430416 
L 244.285231 278.430416 
L 244.285231 274.59802 
L 244.519047 274.59802 
L 244.519047 270.765624 
L 245.581884 270.765624 
L 245.581884 266.933228 
L 247.134326 266.933228 
L 247.134326 263.100832 
L 247.253159 263.100832 
L 247.253159 259.268436 
L 247.869247 259.268436 
L 247.869247 255.43604 
L 248.22189 255.43604 
L 248.301879 247.771248 
L 248.518975 247.771248 
L 248.518975 243.938851 
L 248.695895 243.938851 
L 248.695895 240.106455 
L 249.716231 240.106455 
L 249.716231 236.274059 
L 249.839667 236.274059 
L 249.839667 232.441663 
L 250.865293 232.441663 
L 250.865293 228.609267 
L 251.167167 228.609267 
L 251.167167 224.776871 
L 251.556824 224.776871 
L 251.556824 220.944475 
L 251.927406 220.944475 
L 251.927406 217.112079 
L 252.114073 217.112079 
L 252.114073 213.279683 
L 252.715655 213.279683 
L 252.715655 209.447287 
L 253.176841 209.447287 
L 253.176841 205.614891 
L 253.438109 205.614891 
L 253.438109 201.782495 
L 254.377992 201.782495 
L 254.438797 186.452911 
L 254.76525 186.452911 
L 254.76525 182.620515 
L 255.223123 182.620515 
L 255.25753 171.123327 
L 255.471561 171.123327 
L 255.471561 167.290931 
L 256.468338 167.290931 
L 256.468338 163.458535 
L 256.599857 163.458535 
L 256.599857 159.626139 
L 258.236187 159.626139 
L 258.28617 148.12895 
L 258.76118 148.12895 
L 258.76118 144.296554 
L 258.946426 144.296554 
L 259.00517 136.631762 
L 259.243535 136.631762 
L 259.265784 128.96697 
L 259.594693 128.96697 
L 259.594693 125.134574 
L 259.796584 125.134574 
L 259.796584 121.302178 
L 260.141136 121.302178 
L 260.1731 113.637386 
L 260.469271 113.637386 
L 260.469271 109.80499 
L 260.666597 109.80499 
L 260.666597 105.972594 
L 260.93931 105.972594 
L 260.93931 102.140198 
L 261.093699 102.140198 
L 261.093699 98.307802 
L 263.364064 98.307802 
L 263.364064 94.475406 
L 263.716167 94.475406 
L 263.716167 90.64301 
L 263.977311 90.64301 
L 263.977311 86.810614 
L 264.212317 86.810614 
L 264.212317 82.978218 
L 265.706727 82.978218 
L 265.706727 79.145822 
L 267.544724 79.145822 
L 267.544724 75.313426 
L 269.645118 75.313426 
L 269.645118 71.48103 
L 271.488245 71.48103 
L 271.488245 67.648634 
L 279.580841 67.648634 
L 279.580841 63.816238 
L 283.614995 63.816238 
L 283.614995 59.983842 
L 288.530906 59.983842 
L 288.530906 56.151446 
L 288.954313 56.151446 
L 288.954313 52.31905 
L 290.323299 52.31905 
L 290.323299 48.486653 
L 290.676154 48.486653 
L 290.676154 44.654257 
L 292.243064 44.654257 
L 292.243064 40.821861 
L 293.499885 40.821861 
L 293.499885 36.989465 
L 293.700901 36.989465 
L 293.734697 29.324673 
L 293.922591 29.324673 
L 293.922591 25.492277 
L 294.124488 25.492277 
L 294.124488 21.659881 
L 295.619636 21.659881 
L 295.619636 17.827485 
L 296.410086 17.827485 
L 296.410086 13.995089 
L 297.137559 13.995089 
L 297.137559 10.162693 
L 298.471696 10.162693 
L 298.471696 6.330297 
L 298.471696 6.330297 
L 460.8 6.330297 
L 460.8 6.330297 
" style="fill:none;stroke:#00bfbf;stroke-linecap:square;stroke-width:1.5;"/>
   </g>
   <g id="line2d_23">
    <path clip-path="url(#p13843755c4)" d="M 235.331687 293.76 
L 235.331687 289.927604 
L 242.552644 289.927604 
L 242.652595 282.262812 
L 243.31176 282.262812 
L 243.31176 278.430416 
L 243.618238 278.430416 
L 243.630163 270.765624 
L 244.285231 270.765624 
L 244.285231 266.933228 
L 245.342578 266.933228 
L 245.342578 263.100832 
L 245.513642 263.100832 
L 245.581884 255.43604 
L 246.633052 255.43604 
L 246.633052 251.603644 
L 247.134326 251.603644 
L 247.134326 247.771248 
L 247.730903 247.771248 
L 247.730903 243.938851 
L 248.22189 243.938851 
L 248.301879 236.274059 
L 248.518975 236.274059 
L 248.518975 232.441663 
L 248.695895 232.441663 
L 248.695895 228.609267 
L 249.250231 228.609267 
L 249.250231 224.776871 
L 249.839667 224.776871 
L 249.839667 220.944475 
L 250.040936 220.944475 
L 250.040936 217.112079 
L 250.865293 217.112079 
L 250.896468 209.447287 
L 251.167167 209.447287 
L 251.238717 201.782495 
L 251.710886 201.782495 
L 251.810911 194.117703 
L 252.114073 194.117703 
L 252.114073 190.285307 
L 252.587011 190.285307 
L 252.587011 186.452911 
L 252.928498 186.452911 
L 252.928498 182.620515 
L 253.87078 182.620515 
L 253.87078 178.788119 
L 254.377992 178.788119 
L 254.403219 167.290931 
L 255.223123 167.290931 
L 255.25753 159.626139 
L 256.468338 159.626139 
L 256.556815 151.961347 
L 256.584556 151.961347 
L 256.584556 148.12895 
L 257.289769 148.12895 
L 257.289769 144.296554 
L 257.628302 144.296554 
L 257.628302 140.464158 
L 258.024638 140.464158 
L 258.024638 136.631762 
L 258.236187 136.631762 
L 258.28617 128.96697 
L 258.736644 128.96697 
L 258.76118 117.469782 
L 258.849741 117.469782 
L 258.849741 113.637386 
L 259.275027 113.637386 
L 259.275027 109.80499 
L 259.398499 109.80499 
L 259.398499 105.972594 
L 259.736051 105.972594 
L 259.736051 102.140198 
L 260.127661 102.140198 
L 260.1731 94.475406 
L 260.469271 94.475406 
L 260.469271 90.64301 
L 261.605067 90.64301 
L 261.605067 86.810614 
L 261.985173 86.810614 
L 261.985173 82.978218 
L 262.330631 82.978218 
L 262.330631 79.145822 
L 263.716167 79.145822 
L 263.716167 75.313426 
L 265.706727 75.313426 
L 265.706727 71.48103 
L 271.488245 71.48103 
L 271.488245 67.648634 
L 273.411377 67.648634 
L 273.411377 63.816238 
L 283.614995 63.816238 
L 283.614995 59.983842 
L 287.520862 59.983842 
L 287.520862 56.151446 
L 288.118436 56.151446 
L 288.118436 52.31905 
L 288.530906 52.31905 
L 288.56482 44.654257 
L 288.954313 44.654257 
L 288.954313 40.821861 
L 290.323299 40.821861 
L 290.323299 36.989465 
L 291.678911 36.989465 
L 291.700049 29.324673 
L 292.11506 29.324673 
L 292.11506 25.492277 
L 293.011268 25.492277 
L 293.011268 21.659881 
L 293.499885 21.659881 
L 293.499885 17.827485 
L 294.124488 17.827485 
L 294.124488 13.995089 
L 294.283843 13.995089 
L 294.283843 10.162693 
L 297.137559 10.162693 
L 297.137559 6.330297 
L 297.137559 6.330297 
L 460.8 6.330297 
L 460.8 6.330297 
" style="fill:none;stroke:#bf00bf;stroke-linecap:square;stroke-width:1.5;"/>
   </g>
   <g id="line2d_24">
    <path clip-path="url(#p13843755c4)" d="M 235.331687 293.76 
L 235.331687 289.927604 
L 240.789789 289.927604 
L 240.789789 286.095208 
L 242.045487 286.095208 
L 242.045487 282.262812 
L 242.185735 282.262812 
L 242.185735 278.430416 
L 242.444878 278.430416 
L 242.444878 274.59802 
L 242.652595 274.59802 
L 242.652595 270.765624 
L 243.422324 270.765624 
L 243.45404 263.100832 
L 243.618238 263.100832 
L 243.708629 251.603644 
L 243.893704 251.603644 
L 243.893704 247.771248 
L 245.342578 247.771248 
L 245.342578 243.938851 
L 245.513642 243.938851 
L 245.581884 236.274059 
L 247.730903 236.274059 
L 247.730903 232.441663 
L 247.963287 232.441663 
L 247.963287 228.609267 
L 248.212605 228.609267 
L 248.22189 220.944475 
L 248.518975 220.944475 
L 248.54343 213.279683 
L 248.695895 213.279683 
L 248.741105 201.782495 
L 249.250231 201.782495 
L 249.250231 197.950099 
L 249.839667 197.950099 
L 249.932123 190.285307 
L 249.970065 190.285307 
L 250.040936 182.620515 
L 250.287985 182.620515 
L 250.287985 178.788119 
L 250.776376 178.788119 
L 250.865293 171.123327 
L 253.748234 171.123327 
L 253.748234 167.290931 
L 253.96567 167.290931 
L 253.96567 163.458535 
L 254.180963 163.458535 
L 254.222481 155.793743 
L 254.383257 155.793743 
L 254.403219 148.12895 
L 254.732653 148.12895 
L 254.732653 144.296554 
L 255.160749 144.296554 
L 255.160749 140.464158 
L 255.849607 140.464158 
L 255.849607 136.631762 
L 256.124745 136.631762 
L 256.124745 132.799366 
L 256.468338 132.799366 
L 256.468338 128.96697 
L 256.83415 128.96697 
L 256.86575 121.302178 
L 256.990977 121.302178 
L 257.031862 113.637386 
L 257.456262 113.637386 
L 257.456262 109.80499 
L 257.628302 109.80499 
L 257.628302 105.972594 
L 258.032754 105.972594 
L 258.032754 102.140198 
L 258.739922 102.140198 
L 258.76118 94.475406 
L 259.736051 94.475406 
L 259.736051 90.64301 
L 260.469271 90.64301 
L 260.551853 82.978218 
L 261.030373 82.978218 
L 261.030373 79.145822 
L 261.985173 79.145822 
L 261.985173 75.313426 
L 263.716167 75.313426 
L 263.716167 71.48103 
L 265.981833 71.48103 
L 265.981833 67.648634 
L 269.796786 67.648634 
L 269.796786 63.816238 
L 283.614995 63.816238 
L 283.614995 59.983842 
L 284.393906 59.983842 
L 284.393906 56.151446 
L 286.373358 56.151446 
L 286.373358 52.31905 
L 287.520862 52.31905 
L 287.520862 48.486653 
L 287.850575 48.486653 
L 287.850575 44.654257 
L 288.118436 44.654257 
L 288.118436 40.821861 
L 288.530906 40.821861 
L 288.56482 33.157069 
L 288.89387 33.157069 
L 288.943813 25.492277 
L 289.441821 25.492277 
L 289.441821 21.659881 
L 290.645802 21.659881 
L 290.645802 17.827485 
L 293.390402 17.827485 
L 293.499885 10.162693 
L 293.620818 10.162693 
L 293.620818 6.330297 
L 293.620818 6.330297 
L 460.8 6.330297 
L 460.8 6.330297 
" style="fill:none;stroke:#000000;stroke-linecap:square;stroke-width:1.5;"/>
   </g>
   <g id="line2d_25">
    <path clip-path="url(#p13843755c4)" d="M 235.331687 293.76 
L 235.331687 289.927604 
L 240.789789 289.927604 
L 240.789789 286.095208 
L 241.408127 286.095208 
L 241.408127 282.262812 
L 242.185735 282.262812 
L 242.185735 278.430416 
L 242.444878 278.430416 
L 242.444878 274.59802 
L 242.652595 274.59802 
L 242.652595 270.765624 
L 243.109509 270.765624 
L 243.109509 266.933228 
L 243.238074 266.933228 
L 243.238074 263.100832 
L 243.422324 263.100832 
L 243.45404 251.603644 
L 243.630163 251.603644 
L 243.708629 243.938851 
L 243.893704 243.938851 
L 243.893704 240.106455 
L 244.36589 240.106455 
L 244.36589 236.274059 
L 244.599261 236.274059 
L 244.599261 232.441663 
L 245.334133 232.441663 
L 245.368598 220.944475 
L 245.513642 220.944475 
L 245.62065 209.447287 
L 246.646291 209.447287 
L 246.646291 205.614891 
L 247.962052 205.614891 
L 247.963287 197.950099 
L 248.212605 197.950099 
L 248.22189 190.285307 
L 248.518975 190.285307 
L 248.518975 186.452911 
L 248.695895 186.452911 
L 248.695895 182.620515 
L 249.932123 182.620515 
L 249.978909 174.955723 
L 250.776376 174.955723 
L 250.776376 171.123327 
L 253.748234 171.123327 
L 253.748234 167.290931 
L 253.96567 167.290931 
L 253.96567 163.458535 
L 254.128802 163.458535 
L 254.222481 151.961347 
L 254.365977 151.961347 
L 254.408586 136.631762 
L 254.732653 136.631762 
L 254.732653 132.799366 
L 255.17074 132.799366 
L 255.221143 125.134574 
L 256.124745 125.134574 
L 256.223119 117.469782 
L 256.468338 117.469782 
L 256.468338 113.637386 
L 256.768778 113.637386 
L 256.768778 109.80499 
L 256.990977 109.80499 
L 256.990977 105.972594 
L 257.193454 105.972594 
L 257.193454 102.140198 
L 257.456262 102.140198 
L 257.456262 98.307802 
L 258.713326 98.307802 
L 258.739922 90.64301 
L 259.736051 90.64301 
L 259.736051 86.810614 
L 260.469271 86.810614 
L 260.551853 79.145822 
L 261.985173 79.145822 
L 261.985173 75.313426 
L 263.716167 75.313426 
L 263.716167 71.48103 
L 265.981833 71.48103 
L 265.981833 67.648634 
L 269.796786 67.648634 
L 269.796786 63.816238 
L 283.614995 63.816238 
L 283.614995 59.983842 
L 284.393906 59.983842 
L 284.393906 56.151446 
L 285.594702 56.151446 
L 285.594702 52.31905 
L 286.373358 52.31905 
L 286.373358 48.486653 
L 287.520862 48.486653 
L 287.520862 44.654257 
L 287.850575 44.654257 
L 287.850575 40.821861 
L 288.118436 40.821861 
L 288.118436 36.989465 
L 288.41716 36.989465 
L 288.41716 33.157069 
L 288.530906 33.157069 
L 288.56482 25.492277 
L 288.89387 25.492277 
L 288.89387 21.659881 
L 290.632895 21.659881 
L 290.632895 17.827485 
L 293.390402 17.827485 
L 293.499885 10.162693 
L 293.620818 10.162693 
L 293.620818 6.330297 
L 293.620818 6.330297 
L 460.8 6.330297 
L 460.8 6.330297 
" style="fill:none;stroke:#00bfbf;stroke-linecap:square;stroke-width:1.5;"/>
   </g>
   <g id="line2d_26">
    <path clip-path="url(#p13843755c4)" d="M 235.331687 293.76 
L 235.331687 289.927604 
L 240.529321 289.927604 
L 240.529321 286.095208 
L 240.789789 286.095208 
L 240.789789 282.262812 
L 242.185735 282.262812 
L 242.185735 278.430416 
L 242.444878 278.430416 
L 242.444878 274.59802 
L 242.652595 274.59802 
L 242.652595 270.765624 
L 242.814949 270.765624 
L 242.814949 266.933228 
L 243.084854 266.933228 
L 243.109509 259.268436 
L 243.238074 259.268436 
L 243.238074 255.43604 
L 243.422324 255.43604 
L 243.45404 243.938851 
L 243.630163 243.938851 
L 243.708629 236.274059 
L 243.893704 236.274059 
L 244.00263 224.776871 
L 244.36589 224.776871 
L 244.36589 220.944475 
L 244.599261 220.944475 
L 244.599261 217.112079 
L 245.152816 217.112079 
L 245.152816 213.279683 
L 245.334133 213.279683 
L 245.342578 205.614891 
L 245.581884 205.614891 
L 245.62065 197.950099 
L 246.646291 197.950099 
L 246.646291 194.117703 
L 247.767469 194.117703 
L 247.767469 190.285307 
L 248.212605 190.285307 
L 248.212605 186.452911 
L 248.518975 186.452911 
L 248.518975 182.620515 
L 248.695895 182.620515 
L 248.695895 178.788119 
L 249.932123 178.788119 
L 249.932123 174.955723 
L 250.655973 174.955723 
L 250.655973 171.123327 
L 250.776376 171.123327 
L 250.776376 167.290931 
L 253.748234 167.290931 
L 253.793802 155.793743 
L 253.96567 155.793743 
L 253.96567 151.961347 
L 254.180963 151.961347 
L 254.222481 144.296554 
L 254.365977 144.296554 
L 254.408586 128.96697 
L 255.17074 128.96697 
L 255.221143 121.302178 
L 255.799252 121.302178 
L 255.799252 117.469782 
L 256.124745 117.469782 
L 256.223119 109.80499 
L 256.468338 109.80499 
L 256.468338 105.972594 
L 256.768778 105.972594 
L 256.768778 102.140198 
L 257.456262 102.140198 
L 257.456262 98.307802 
L 258.713326 98.307802 
L 258.739922 90.64301 
L 259.736051 90.64301 
L 259.736051 86.810614 
L 260.469271 86.810614 
L 260.551853 79.145822 
L 261.985173 79.145822 
L 261.985173 75.313426 
L 263.716167 75.313426 
L 263.716167 71.48103 
L 265.981833 71.48103 
L 265.981833 67.648634 
L 269.796786 67.648634 
L 269.796786 63.816238 
L 283.614995 63.816238 
L 283.614995 59.983842 
L 284.393906 59.983842 
L 284.393906 56.151446 
L 285.594702 56.151446 
L 285.594702 52.31905 
L 286.373358 52.31905 
L 286.373358 48.486653 
L 287.327403 48.486653 
L 287.327403 44.654257 
L 287.541248 44.654257 
L 287.541248 40.821861 
L 288.118436 40.821861 
L 288.146396 33.157069 
L 288.41716 33.157069 
L 288.41716 29.324673 
L 288.530906 29.324673 
L 288.530906 25.492277 
L 288.89387 25.492277 
L 288.89387 21.659881 
L 290.632895 21.659881 
L 290.632895 17.827485 
L 293.390402 17.827485 
L 293.499885 10.162693 
L 293.620818 10.162693 
L 293.620818 6.330297 
L 293.620818 6.330297 
L 460.8 6.330297 
L 460.8 6.330297 
" style="fill:none;stroke:#bf00bf;stroke-linecap:square;stroke-width:1.5;"/>
   </g>
   <g id="patch_3">
    <path d="M 0 293.76 
L 0 3.456 
" style="fill:none;stroke:#000000;stroke-linecap:square;stroke-linejoin:miter;stroke-width:0.8;"/>
   </g>
   <g id="patch_4">
    <path d="M 460.8 293.76 
L 460.8 3.456 
" style="fill:none;stroke:#000000;stroke-linecap:square;stroke-linejoin:miter;stroke-width:0.8;"/>
   </g>
   <g id="patch_5">
    <path d="M 0 293.76 
L 460.8 293.76 
" style="fill:none;stroke:#000000;stroke-linecap:square;stroke-linejoin:miter;stroke-width:0.8;"/>
   </g>
   <g id="patch_6">
    <path d="M 0 3.456 
L 460.8 3.456 
" style="fill:none;stroke:#000000;stroke-linecap:square;stroke-linejoin:miter;stroke-width:0.8;"/>
   </g>
   <g id="text_6">
    <!-- {f15-f19}, 20-D -->
    <defs>
     <path d="M 51.125 -9.28125 
L 51.125 -16.3125 
L 48.09375 -16.3125 
Q 35.9375 -16.3125 31.8125 -12.6875 
Q 27.6875 -9.078125 27.6875 1.703125 
L 27.6875 13.375 
Q 27.6875 20.75 25.046875 23.578125 
Q 22.40625 26.421875 15.484375 26.421875 
L 12.5 26.421875 
L 12.5 33.40625 
L 15.484375 33.40625 
Q 22.46875 33.40625 25.078125 36.203125 
Q 27.6875 39.015625 27.6875 46.296875 
L 27.6875 58.015625 
Q 27.6875 68.796875 31.8125 72.390625 
Q 35.9375 75.984375 48.09375 75.984375 
L 51.125 75.984375 
L 51.125 69 
L 47.796875 69 
Q 40.921875 69 38.8125 66.84375 
Q 36.71875 64.703125 36.71875 57.8125 
L 36.71875 45.703125 
Q 36.71875 38.03125 34.5 34.5625 
Q 32.28125 31.109375 26.90625 29.890625 
Q 32.328125 28.5625 34.515625 25.09375 
Q 36.71875 21.625 36.71875 14.015625 
L 36.71875 1.90625 
Q 36.71875 -4.984375 38.8125 -7.125 
Q 40.921875 -9.28125 47.796875 -9.28125 
z
" id="DejaVuSans-123"/>
     <path d="M 10.796875 72.90625 
L 49.515625 72.90625 
L 49.515625 64.59375 
L 19.828125 64.59375 
L 19.828125 46.734375 
Q 21.96875 47.46875 24.109375 47.828125 
Q 26.265625 48.1875 28.421875 48.1875 
Q 40.625 48.1875 47.75 41.5 
Q 54.890625 34.8125 54.890625 23.390625 
Q 54.890625 11.625 47.5625 5.09375 
Q 40.234375 -1.421875 26.90625 -1.421875 
Q 22.3125 -1.421875 17.546875 -0.640625 
Q 12.796875 0.140625 7.71875 1.703125 
L 7.71875 11.625 
Q 12.109375 9.234375 16.796875 8.0625 
Q 21.484375 6.890625 26.703125 6.890625 
Q 35.15625 6.890625 40.078125 11.328125 
Q 45.015625 15.765625 45.015625 23.390625 
Q 45.015625 31 40.078125 35.4375 
Q 35.15625 39.890625 26.703125 39.890625 
Q 22.75 39.890625 18.8125 39.015625 
Q 14.890625 38.140625 10.796875 36.28125 
z
" id="DejaVuSans-53"/>
     <path d="M 10.984375 1.515625 
L 10.984375 10.5 
Q 14.703125 8.734375 18.5 7.8125 
Q 22.3125 6.890625 25.984375 6.890625 
Q 35.75 6.890625 40.890625 13.453125 
Q 46.046875 20.015625 46.78125 33.40625 
Q 43.953125 29.203125 39.59375 26.953125 
Q 35.25 24.703125 29.984375 24.703125 
Q 19.046875 24.703125 12.671875 31.3125 
Q 6.296875 37.9375 6.296875 49.421875 
Q 6.296875 60.640625 12.9375 67.421875 
Q 19.578125 74.21875 30.609375 74.21875 
Q 43.265625 74.21875 49.921875 64.515625 
Q 56.59375 54.828125 56.59375 36.375 
Q 56.59375 19.140625 48.40625 8.859375 
Q 40.234375 -1.421875 26.421875 -1.421875 
Q 22.703125 -1.421875 18.890625 -0.6875 
Q 15.09375 0.046875 10.984375 1.515625 
z
M 30.609375 32.421875 
Q 37.25 32.421875 41.125 36.953125 
Q 45.015625 41.5 45.015625 49.421875 
Q 45.015625 57.28125 41.125 61.84375 
Q 37.25 66.40625 30.609375 66.40625 
Q 23.96875 66.40625 20.09375 61.84375 
Q 16.21875 57.28125 16.21875 49.421875 
Q 16.21875 41.5 20.09375 36.953125 
Q 23.96875 32.421875 30.609375 32.421875 
z
" id="DejaVuSans-57"/>
     <path d="M 12.5 -9.28125 
L 15.921875 -9.28125 
Q 22.75 -9.28125 24.828125 -7.171875 
Q 26.90625 -5.078125 26.90625 1.90625 
L 26.90625 14.015625 
Q 26.90625 21.625 29.09375 25.09375 
Q 31.296875 28.5625 36.71875 29.890625 
Q 31.296875 31.109375 29.09375 34.5625 
Q 26.90625 38.03125 26.90625 45.703125 
L 26.90625 57.8125 
Q 26.90625 64.75 24.828125 66.875 
Q 22.75 69 15.921875 69 
L 12.5 69 
L 12.5 75.984375 
L 15.578125 75.984375 
Q 27.734375 75.984375 31.8125 72.390625 
Q 35.890625 68.796875 35.890625 58.015625 
L 35.890625 46.296875 
Q 35.890625 39.015625 38.515625 36.203125 
Q 41.15625 33.40625 48.09375 33.40625 
L 51.125 33.40625 
L 51.125 26.421875 
L 48.09375 26.421875 
Q 41.15625 26.421875 38.515625 23.578125 
Q 35.890625 20.75 35.890625 13.375 
L 35.890625 1.703125 
Q 35.890625 -9.078125 31.8125 -12.6875 
Q 27.734375 -16.3125 15.578125 -16.3125 
L 12.5 -16.3125 
z
" id="DejaVuSans-125"/>
     <path d="M 11.71875 12.40625 
L 22.015625 12.40625 
L 22.015625 4 
L 14.015625 -11.625 
L 7.71875 -11.625 
L 11.71875 4 
z
" id="DejaVuSans-44"/>
     <path d="M 19.1875 8.296875 
L 53.609375 8.296875 
L 53.609375 0 
L 7.328125 0 
L 7.328125 8.296875 
Q 12.9375 14.109375 22.625 23.890625 
Q 32.328125 33.6875 34.8125 36.53125 
Q 39.546875 41.84375 41.421875 45.53125 
Q 43.3125 49.21875 43.3125 52.78125 
Q 43.3125 58.59375 39.234375 62.25 
Q 35.15625 65.921875 28.609375 65.921875 
Q 23.96875 65.921875 18.8125 64.3125 
Q 13.671875 62.703125 7.8125 59.421875 
L 7.8125 69.390625 
Q 13.765625 71.78125 18.9375 73 
Q 24.125 74.21875 28.421875 74.21875 
Q 39.75 74.21875 46.484375 68.546875 
Q 53.21875 62.890625 53.21875 53.421875 
Q 53.21875 48.921875 51.53125 44.890625 
Q 49.859375 40.875 45.40625 35.40625 
Q 44.1875 33.984375 37.640625 27.21875 
Q 31.109375 20.453125 19.1875 8.296875 
z
" id="DejaVuSans-50"/>
    </defs>
    <g transform="translate(293.159 287.95392)scale(0.2 -0.2)">
     <use xlink:href="#DejaVuSans-123"/>
     <use x="63.623047" xlink:href="#DejaVuSans-102"/>
     <use x="98.828125" xlink:href="#DejaVuSans-49"/>
     <use x="162.451172" xlink:href="#DejaVuSans-53"/>
     <use x="226.074219" xlink:href="#DejaVuSans-45"/>
     <use x="262.158203" xlink:href="#DejaVuSans-102"/>
     <use x="297.363281" xlink:href="#DejaVuSans-49"/>
     <use x="360.986328" xlink:href="#DejaVuSans-57"/>
     <use x="424.609375" xlink:href="#DejaVuSans-125"/>
     <use x="488.232422" xlink:href="#DejaVuSans-44"/>
     <use x="520.019531" xlink:href="#DejaVuSans-32"/>
     <use x="551.806641" xlink:href="#DejaVuSans-50"/>
     <use x="615.429688" xlink:href="#DejaVuSans-48"/>
     <use x="679.052734" xlink:href="#DejaVuSans-45"/>
     <use x="715.136719" xlink:href="#DejaVuSans-68"/>
    </g>
   </g>
   <g id="text_7">
    <!-- v2.4 -->
    <defs>
     <path d="M 2.984375 54.6875 
L 12.5 54.6875 
L 29.59375 8.796875 
L 46.6875 54.6875 
L 56.203125 54.6875 
L 35.6875 0 
L 23.484375 0 
z
" id="DejaVuSans-118"/>
     <path d="M 10.6875 12.40625 
L 21 12.40625 
L 21 0 
L 10.6875 0 
z
" id="DejaVuSans-46"/>
    </defs>
    <g style="fill:#808080;" transform="translate(219.489063 288.777272)scale(0.1 -0.1)">
     <use xlink:href="#DejaVuSans-118"/>
     <use x="59.179688" xlink:href="#DejaVuSans-50"/>
     <use x="122.802734" xlink:href="#DejaVuSans-46"/>
     <use x="154.589844" xlink:href="#DejaVuSans-52"/>
    </g>
   </g>
  </g>
 </g>
 <defs>
  <clipPath id="p13843755c4">
   <rect height="290.304" width="460.8" x="0" y="3.456"/>
  </clipPath>
 </defs>
</svg>
