<?xml version="1.0" encoding="utf-8" standalone="no"?>
<!DOCTYPE svg PUBLIC "-//W3C//DTD SVG 1.1//EN"
  "http://www.w3.org/Graphics/SVG/1.1/DTD/svg11.dtd">
<!-- Created with matplotlib (https://matplotlib.org/) -->
<svg height="345.6pt" version="1.1" viewBox="0 0 460.8 345.6" width="460.8pt" xmlns="http://www.w3.org/2000/svg" xmlns:xlink="http://www.w3.org/1999/xlink">
 <defs>
  <style type="text/css">
*{stroke-linecap:butt;stroke-linejoin:round;}
  </style>
 </defs>
 <g id="figure_1">
  <g id="patch_1">
   <path d="M 0 345.6 
L 460.8 345.6 
L 460.8 0 
L 0 0 
z
" style="fill:#ffffff;"/>
  </g>
  <g id="axes_1">
   <g id="patch_2">
    <path d="M 62.208 293.76 
L 460.8 293.76 
L 460.8 3.456 
L 62.208 3.456 
z
" style="fill:#ffffff;"/>
   </g>
   <g id="line2d_1">
    <path clip-path="url(#pbc375f1144)" d="M 306.879988 293.76 
L 306.879988 289.927604 
L 306.879988 289.927604 
L 306.879988 286.095208 
L 306.879988 286.095208 
L 306.879988 282.262812 
L 306.879988 282.262812 
L 306.879988 278.430416 
L 306.879988 278.430416 
L 306.879988 274.59802 
L 306.879988 274.59802 
L 306.879988 270.765624 
L 306.879988 270.765624 
L 306.879988 266.933228 
L 306.879988 266.933228 
L 306.879988 263.100832 
L 306.879988 263.100832 
L 306.879988 259.268436 
L 306.879988 259.268436 
L 306.879988 255.43604 
L 306.879988 255.43604 
L 306.879988 251.603644 
L 306.879988 251.603644 
L 306.879988 247.771248 
L 306.879988 247.771248 
L 306.879988 243.938851 
L 306.879988 243.938851 
L 306.879988 240.106455 
L 306.879988 240.106455 
L 306.879988 236.274059 
L 316.82467 236.274059 
L 316.82467 232.441663 
L 321.396977 232.441663 
L 321.396977 228.609267 
L 321.396977 228.609267 
L 321.396977 224.776871 
L 325.738646 224.776871 
L 325.738646 220.944475 
L 325.738646 220.944475 
L 325.738646 217.112079 
L 325.738646 217.112079 
L 325.738646 213.279683 
L 325.738646 213.279683 
L 325.738646 209.447287 
L 329.871834 209.447287 
L 329.871834 205.614891 
L 329.871834 205.614891 
L 329.871834 201.782495 
L 329.871834 201.782495 
L 329.871834 197.950099 
L 333.815647 197.950099 
L 333.815647 194.117703 
L 333.815647 194.117703 
L 333.815647 190.285307 
L 333.815647 190.285307 
L 333.815647 186.452911 
L 333.815647 186.452911 
L 333.815647 182.620515 
L 337.586682 182.620515 
L 337.586682 178.788119 
L 461.8 178.788119 
" style="fill:none;stroke:#f5deb3;stroke-linecap:square;stroke-width:1.5;"/>
   </g>
   <g id="line2d_2">
    <path clip-path="url(#pbc375f1144)" style="fill:none;stroke:#f5deb3;stroke-linecap:square;stroke-width:1.5;"/>
   </g>
   <g id="line2d_3">
    <path clip-path="url(#pbc375f1144)" d="M 273.58908 293.76 
L 273.58908 289.927604 
L 273.58908 289.927604 
L 273.58908 286.095208 
L 273.58908 286.095208 
L 273.58908 282.262812 
L 273.58908 282.262812 
L 273.58908 278.430416 
L 273.957781 278.430416 
L 273.957781 274.59802 
L 274.32491 274.59802 
L 274.32491 270.765624 
L 274.32491 270.765624 
L 274.32491 266.933228 
L 274.32491 266.933228 
L 274.32491 263.100832 
L 274.32491 263.100832 
L 274.32491 259.268436 
L 274.32491 259.268436 
L 274.32491 255.43604 
L 274.32491 255.43604 
L 274.32491 251.603644 
L 274.32491 251.603644 
L 274.32491 247.771248 
L 274.32491 247.771248 
L 274.32491 243.938851 
L 274.32491 243.938851 
L 274.32491 240.106455 
L 274.69048 240.106455 
L 274.69048 236.274059 
L 275.054504 236.274059 
L 275.054504 232.441663 
L 275.777966 232.441663 
L 275.777966 228.609267 
L 279.306802 228.609267 
L 279.306802 224.776871 
L 280.678808 224.776871 
L 280.678808 220.944475 
L 283.358916 220.944475 
L 283.358916 217.112079 
L 283.358916 217.112079 
L 283.358916 213.279683 
L 284.34283 213.279683 
L 284.34283 209.447287 
L 284.668318 209.447287 
L 284.668318 205.614891 
L 284.992581 205.614891 
L 284.992581 201.782495 
L 286.595821 201.782495 
L 286.595821 197.950099 
L 286.912918 197.950099 
L 286.912918 194.117703 
L 287.857258 194.117703 
L 287.857258 190.285307 
L 290.629676 190.285307 
L 290.629676 186.452911 
L 295.348201 186.452911 
L 295.348201 182.620515 
L 299.000266 182.620515 
L 299.000266 178.788119 
L 299.000266 178.788119 
L 299.000266 178.788119 
L 460.8 178.788119 
" style="fill:none;stroke:#f5deb3;stroke-linecap:square;stroke-width:1.5;"/>
   </g>
   <g id="line2d_4">
    <path clip-path="url(#pbc375f1144)" d="M 211.288886 293.76 
L 211.288886 289.927604 
L 212.799302 289.927604 
L 212.799302 286.095208 
L 215.016374 286.095208 
L 215.016374 282.262812 
L 217.886358 282.262812 
L 217.886358 278.430416 
L 220.663745 278.430416 
L 220.663745 274.59802 
L 230.347147 274.59802 
L 230.347147 270.765624 
L 230.347147 270.765624 
L 230.347147 266.933228 
L 230.955571 266.933228 
L 230.955571 263.100832 
L 235.098231 263.100832 
L 235.098231 259.268436 
L 235.098231 259.268436 
L 235.098231 255.43604 
L 240.14739 255.43604 
L 240.14739 251.603644 
L 245.941667 251.603644 
L 245.941667 247.771248 
L 246.95452 247.771248 
L 246.95452 243.938851 
L 248.945165 243.938851 
L 248.945165 240.106455 
L 283.358916 240.106455 
L 283.358916 236.274059 
L 439.785643 236.274059 
L 439.785643 232.441663 
L 443.663824 232.441663 
L 443.663824 228.609267 
L 444.225681 228.609267 
L 444.225681 224.776871 
L 444.885001 224.776871 
L 444.885001 220.944475 
L 445.83963 220.944475 
L 445.83963 217.112079 
L 448.059242 217.112079 
L 448.059242 213.279683 
L 448.350913 213.279683 
L 448.350913 209.447287 
L 448.496379 209.447287 
L 448.496379 205.614891 
L 448.6416 205.614891 
L 448.6416 201.782495 
L 449.171989 201.782495 
L 449.171989 197.950099 
L 449.459921 197.950099 
L 449.459921 194.117703 
L 449.555685 194.117703 
L 449.555685 190.285307 
L 451.729351 190.285307 
L 451.729351 186.452911 
L 452.101841 186.452911 
L 452.101841 182.620515 
L 452.518974 182.620515 
L 452.518974 178.788119 
L 461.8 178.788119 
" style="fill:none;stroke:#f5deb3;stroke-linecap:square;stroke-width:1.5;"/>
   </g>
   <g id="line2d_5">
    <path clip-path="url(#pbc375f1144)" style="fill:none;stroke:#f5deb3;stroke-linecap:square;stroke-width:1.5;"/>
   </g>
   <g id="line2d_6"/>
   <g id="line2d_7">
    <path clip-path="url(#pbc375f1144)" d="M 271.721512 293.76 
L 271.721512 289.927604 
L 289.408499 289.927604 
L 289.408499 286.095208 
L 290.932283 286.095208 
L 290.932283 282.262812 
L 292.132184 282.262812 
L 292.132184 278.430416 
L 292.429565 278.430416 
L 292.429565 274.59802 
L 293.315592 274.59802 
L 293.315592 270.765624 
L 294.772336 270.765624 
L 294.772336 266.933228 
L 294.772336 266.933228 
L 294.772336 263.100832 
L 295.348201 263.100832 
L 295.348201 259.268436 
L 303.030247 259.268436 
L 303.030247 255.43604 
L 305.615773 255.43604 
L 305.615773 251.603644 
L 307.878162 251.603644 
L 307.878162 247.771248 
L 310.082618 247.771248 
L 310.082618 243.938851 
L 322.241018 243.938851 
L 322.241018 240.106455 
L 322.241018 240.106455 
L 322.241018 236.274059 
L 461.8 236.274059 
" style="fill:none;stroke:#f5deb3;stroke-linecap:square;stroke-width:1.5;"/>
   </g>
   <g id="line2d_8">
    <path clip-path="url(#pbc375f1144)" d="M 0 0 
" style="fill:none;stroke:#f5deb3;stroke-linecap:square;stroke-width:1.5;"/>
   </g>
   <g id="line2d_9">
    <path clip-path="url(#pbc375f1144)" d="M 262.98585 293.76 
L 262.98585 289.927604 
L 265.862685 289.927604 
L 265.862685 286.095208 
L 271.343087 286.095208 
L 271.343087 282.262812 
L 272.846907 282.262812 
L 272.846907 278.430416 
L 273.218794 278.430416 
L 273.218794 274.59802 
L 274.32491 274.59802 
L 274.32491 270.765624 
L 276.4954 270.765624 
L 276.4954 266.933228 
L 276.851887 266.933228 
L 276.851887 263.100832 
L 278.960357 263.100832 
L 278.960357 259.268436 
L 285.637464 259.268436 
L 285.637464 255.43604 
L 287.22885 255.43604 
L 287.22885 251.603644 
L 293.315592 251.603644 
L 293.315592 247.771248 
L 295.348201 247.771248 
L 295.348201 243.938851 
L 299.000266 243.938851 
L 299.000266 240.106455 
L 301.973896 240.106455 
L 301.973896 236.274059 
L 461.8 236.274059 
" style="fill:none;stroke:#f5deb3;stroke-linecap:square;stroke-width:1.5;"/>
   </g>
   <g id="line2d_10">
    <path clip-path="url(#pbc375f1144)" d="M 328.320593 293.76 
L 328.320593 289.927604 
L 331.017192 289.927604 
L 331.017192 286.095208 
L 342.867937 286.095208 
L 342.867937 282.262812 
L 342.867937 282.262812 
L 342.867937 278.430416 
L 349.236202 278.430416 
L 349.236202 274.59802 
L 359.222727 274.59802 
L 359.222727 270.765624 
L 366.050633 270.765624 
L 366.050633 266.933228 
L 461.8 266.933228 
" style="fill:none;stroke:#f5deb3;stroke-linecap:square;stroke-width:1.5;"/>
   </g>
   <g id="line2d_11">
    <path clip-path="url(#pbc375f1144)" d="M 197.252554 293.76 
L 197.252554 289.927604 
L 210.523623 289.927604 
L 210.523623 286.095208 
L 212.799302 286.095208 
L 212.799302 282.262812 
L 214.283676 282.262812 
L 214.283676 278.430416 
L 216.463325 278.430416 
L 216.463325 274.59802 
L 218.58915 274.59802 
L 218.58915 270.765624 
L 224.014033 270.765624 
L 224.014033 266.933228 
L 229.734394 266.933228 
L 229.734394 263.100832 
L 230.347147 263.100832 
L 230.347147 259.268436 
L 233.934814 259.268436 
L 233.934814 255.43604 
L 241.230316 255.43604 
L 241.230316 251.603644 
L 248.945165 251.603644 
L 248.945165 247.771248 
L 249.435716 247.771248 
L 249.435716 243.938851 
L 264.230569 243.938851 
L 264.230569 240.106455 
L 276.851887 240.106455 
L 276.851887 236.274059 
L 424.645008 236.274059 
L 424.645008 232.441663 
L 425.85088 232.441663 
L 425.85088 228.609267 
L 427.844405 228.609267 
L 427.844405 224.776871 
L 428.028953 224.776871 
L 428.028953 220.944475 
L 430.213211 220.944475 
L 430.213211 217.112079 
L 430.691166 217.112079 
L 430.691166 213.279683 
L 432.460233 213.279683 
L 432.460233 209.447287 
L 433.273519 209.447287 
L 433.273519 205.614891 
L 433.4468 205.614891 
L 433.4468 201.782495 
L 435.160689 201.782495 
L 435.160689 197.950099 
L 435.780664 197.950099 
L 435.780664 194.117703 
L 436.228766 194.117703 
L 436.228766 190.285307 
L 437.449157 190.285307 
L 437.449157 186.452911 
L 438.923643 186.452911 
L 438.923643 182.620515 
L 440.426526 182.620515 
L 440.426526 178.788119 
L 440.426526 178.788119 
L 440.426526 178.788119 
L 460.8 178.788119 
" style="fill:none;stroke:#f5deb3;stroke-linecap:square;stroke-width:1.5;"/>
   </g>
   <g id="line2d_12">
    <path clip-path="url(#pbc375f1144)" d="M 128.108302 293.76 
L 128.108302 289.927604 
L 128.108302 289.927604 
L 128.108302 286.095208 
L 128.108302 286.095208 
L 128.108302 282.262812 
L 128.108302 282.262812 
L 128.108302 278.430416 
L 128.108302 278.430416 
L 128.108302 274.59802 
L 128.108302 274.59802 
L 128.108302 270.765624 
L 128.108302 270.765624 
L 128.108302 266.933228 
L 128.108302 266.933228 
L 128.108302 263.100832 
L 128.108302 263.100832 
L 128.108302 259.268436 
L 128.108302 259.268436 
L 128.108302 255.43604 
L 128.108302 255.43604 
L 128.108302 251.603644 
L 128.108302 251.603644 
L 128.108302 247.771248 
L 128.108302 247.771248 
L 128.108302 243.938851 
L 128.108302 243.938851 
L 128.108302 240.106455 
L 128.108302 240.106455 
L 128.108302 236.274059 
L 186.775478 236.274059 
L 186.775478 232.441663 
L 205.783442 232.441663 
L 205.783442 228.609267 
L 205.783442 228.609267 
L 205.783442 224.776871 
L 205.783442 224.776871 
L 205.783442 220.944475 
L 205.783442 220.944475 
L 205.783442 217.112079 
L 205.783442 217.112079 
L 205.783442 213.279683 
L 205.783442 213.279683 
L 205.783442 209.447287 
L 205.783442 209.447287 
L 205.783442 205.614891 
L 205.783442 205.614891 
L 205.783442 201.782495 
L 205.783442 201.782495 
L 205.783442 197.950099 
L 221.344314 197.950099 
L 221.344314 194.117703 
L 221.344314 194.117703 
L 221.344314 190.285307 
L 221.344314 190.285307 
L 221.344314 186.452911 
L 221.344314 186.452911 
L 221.344314 182.620515 
L 245.941667 182.620515 
L 245.941667 178.788119 
L 461.8 178.788119 
" style="fill:none;stroke:#f5deb3;stroke-linecap:square;stroke-width:1.5;"/>
   </g>
   <g id="line2d_13">
    <path clip-path="url(#pbc375f1144)" d="M 452.333831 293.76 
L 452.333831 289.927604 
L 452.333831 289.927604 
L 452.333831 286.095208 
L 453.712796 286.095208 
L 453.712796 282.262812 
L 453.712796 282.262812 
L 453.712796 278.430416 
L 455.78522 278.430416 
L 455.78522 274.59802 
L 456.007507 274.59802 
L 456.007507 270.765624 
L 456.007507 270.765624 
L 456.007507 266.933228 
L 456.007507 266.933228 
L 456.007507 263.100832 
L 457.198036 263.100832 
L 457.198036 259.268436 
L 460.715967 259.268436 
L 460.715967 255.43604 
L 460.715967 255.43604 
L 460.715967 251.603644 
L 460.715967 251.603644 
L 460.715967 247.771248 
L 460.883951 247.771248 
L 460.883951 243.938851 
L 460.883951 243.938851 
L 460.883951 240.106455 
L 460.883951 240.106455 
L 460.883951 236.274059 
L 460.883951 236.274059 
" style="fill:none;stroke:#f5deb3;stroke-linecap:square;stroke-width:1.5;"/>
   </g>
   <g id="line2d_14">
    <path clip-path="url(#pbc375f1144)" d="M 241.766714 293.76 
L 241.766714 289.927604 
L 244.399688 289.927604 
L 244.399688 286.095208 
L 245.941667 286.095208 
L 245.941667 282.262812 
L 247.955596 282.262812 
L 247.955596 278.430416 
L 248.451802 278.430416 
L 248.451802 274.59802 
L 248.451802 274.59802 
L 248.451802 270.765624 
L 248.945165 270.765624 
L 248.945165 266.933228 
L 249.435716 266.933228 
L 249.435716 263.100832 
L 250.408512 263.100832 
L 250.408512 259.268436 
L 250.408512 259.268436 
L 250.408512 255.43604 
L 250.408512 255.43604 
L 250.408512 251.603644 
L 250.408512 251.603644 
L 250.408512 247.771248 
L 250.890819 247.771248 
L 250.890819 243.938851 
L 251.370439 243.938851 
L 251.370439 240.106455 
L 251.370439 240.106455 
L 251.370439 236.274059 
L 372.493796 236.274059 
L 372.493796 232.441663 
L 374.233078 232.441663 
L 374.233078 228.609267 
L 376.7221 228.609267 
L 376.7221 224.776871 
L 377.60965 224.776871 
L 377.60965 220.944475 
L 378.37882 220.944475 
L 378.37882 217.112079 
L 382.438478 217.112079 
L 382.438478 213.279683 
L 382.75097 213.279683 
L 382.75097 209.447287 
L 382.95867 209.447287 
L 382.95867 205.614891 
L 383.784494 205.614891 
L 383.784494 201.782495 
L 385.008565 201.782495 
L 385.008565 197.950099 
L 385.311883 197.950099 
L 385.311883 194.117703 
L 385.513502 194.117703 
L 385.513502 190.285307 
L 387.602481 190.285307 
L 387.602481 186.452911 
L 388.190139 186.452911 
L 388.190139 182.620515 
L 388.579694 182.620515 
L 388.579694 178.788119 
L 403.609476 178.788119 
L 403.609476 174.955723 
L 408.75671 174.955723 
L 408.75671 171.123327 
L 409.369464 171.123327 
L 409.369464 167.290931 
L 411.851961 167.290931 
L 411.851961 163.458535 
L 412.516763 163.458535 
L 412.516763 159.626139 
L 413.32239 159.626139 
L 413.32239 155.793743 
L 414.696412 155.793743 
L 414.696412 151.961347 
L 416.189983 151.961347 
L 416.189983 148.12895 
L 416.822237 148.12895 
L 416.822237 144.296554 
L 420.252633 144.296554 
L 420.252633 140.464158 
L 430.929153 140.464158 
L 430.929153 136.631762 
L 434.990828 136.631762 
L 434.990828 132.799366 
L 441.062674 132.799366 
L 441.062674 128.96697 
L 461.8 128.96697 
" style="fill:none;stroke:#f5deb3;stroke-linecap:square;stroke-width:1.5;"/>
   </g>
   <g id="line2d_15"/>
   <g id="line2d_16">
    <path clip-path="url(#pbc375f1144)" d="M 0 0 
" style="fill:none;stroke:#f5deb3;stroke-linecap:square;stroke-width:1.5;"/>
   </g>
   <g id="line2d_17">
    <path clip-path="url(#pbc375f1144)" style="fill:none;stroke:#f5deb3;stroke-linecap:square;stroke-width:1.5;"/>
   </g>
   <g id="line2d_18">
    <path clip-path="url(#pbc375f1144)" d="M 128.108302 293.76 
L 128.108302 289.927604 
L 128.108302 289.927604 
L 128.108302 286.095208 
L 128.108302 286.095208 
L 128.108302 282.262812 
L 128.108302 282.262812 
L 128.108302 278.430416 
L 128.108302 278.430416 
L 128.108302 274.59802 
L 128.108302 274.59802 
L 128.108302 270.765624 
L 128.108302 270.765624 
L 128.108302 266.933228 
L 128.108302 266.933228 
L 128.108302 263.100832 
L 130.087505 263.100832 
L 130.087505 259.268436 
L 130.087505 259.268436 
L 130.087505 255.43604 
L 130.087505 255.43604 
L 130.087505 251.603644 
L 130.087505 251.603644 
L 130.087505 247.771248 
L 130.087505 247.771248 
L 130.087505 243.938851 
L 130.087505 243.938851 
L 130.087505 240.106455 
L 133.914426 240.106455 
L 133.914426 236.274059 
L 135.765928 236.274059 
L 135.765928 232.441663 
L 135.765928 232.441663 
L 135.765928 228.609267 
L 141.092877 228.609267 
L 141.092877 224.776871 
L 142.797715 224.776871 
L 142.797715 220.944475 
L 146.109336 220.944475 
L 146.109336 217.112079 
L 155.342269 217.112079 
L 155.342269 213.279683 
L 156.789219 213.279683 
L 156.789219 209.447287 
L 156.789219 209.447287 
L 156.789219 205.614891 
L 160.98964 205.614891 
L 160.98964 201.782495 
L 178.265688 201.782495 
L 178.265688 197.950099 
L 179.376562 197.950099 
L 179.376562 194.117703 
L 179.376562 194.117703 
L 179.376562 190.285307 
L 185.756631 190.285307 
L 185.756631 186.452911 
L 187.782408 186.452911 
L 187.782408 182.620515 
L 190.734407 182.620515 
L 190.734407 178.788119 
L 461.8 178.788119 
" style="fill:none;stroke:#f5deb3;stroke-linecap:square;stroke-width:1.5;"/>
   </g>
   <g id="line2d_19">
    <path clip-path="url(#pbc375f1144)" style="fill:none;stroke:#f5deb3;stroke-linecap:square;stroke-width:1.5;"/>
   </g>
   <g id="line2d_20">
    <path clip-path="url(#pbc375f1144)" d="M 237.939794 293.76 
L 237.939794 289.927604 
L 248.945165 289.927604 
L 248.945165 286.095208 
L 249.923488 286.095208 
L 249.923488 282.262812 
L 256.477094 282.262812 
L 256.477094 278.430416 
L 269.036926 278.430416 
L 269.036926 274.59802 
L 273.957781 274.59802 
L 273.957781 270.765624 
L 276.13743 270.765624 
L 276.13743 266.933228 
L 277.206904 266.933228 
L 277.206904 263.100832 
L 286.912918 263.100832 
L 286.912918 259.268436 
L 290.932283 259.268436 
L 290.932283 255.43604 
L 293.608919 255.43604 
L 293.608919 251.603644 
L 297.613899 251.603644 
L 297.613899 247.771248 
L 301.44082 247.771248 
L 301.44082 243.938851 
L 307.380522 243.938851 
L 307.380522 240.106455 
L 322.030782 240.106455 
L 322.030782 236.274059 
L 438.434948 236.274059 
L 438.434948 232.441663 
L 440.426526 232.441663 
L 440.426526 228.609267 
L 444.174755 228.609267 
L 444.174755 224.776871 
L 445.036437 224.776871 
L 445.036437 220.944475 
L 450.791015 220.944475 
L 450.791015 217.112079 
L 454.348832 217.112079 
L 454.348832 213.279683 
L 454.348832 213.279683 
L 454.348832 209.447287 
L 454.800283 209.447287 
L 454.800283 205.614891 
L 454.800283 205.614891 
L 454.800283 201.782495 
L 455.025124 201.782495 
L 455.025124 197.950099 
L 455.696144 197.950099 
L 455.696144 194.117703 
L 460.294569 194.117703 
L 460.294569 190.285307 
L 461.26072 190.285307 
L 461.26072 186.452911 
L 461.8 186.452911 
" style="fill:none;stroke:#f5deb3;stroke-linecap:square;stroke-width:1.5;"/>
   </g>
   <g id="line2d_21">
    <path clip-path="url(#pbc375f1144)" d="M 0 0 
" style="fill:none;stroke:#f5deb3;stroke-linecap:square;stroke-width:1.5;"/>
   </g>
   <g id="line2d_22">
    <path clip-path="url(#pbc375f1144)" d="M 278.612512 293.76 
L 278.612512 289.927604 
L 284.992581 289.927604 
L 284.992581 286.095208 
L 293.608919 286.095208 
L 293.608919 282.262812 
L 298.724773 282.262812 
L 298.724773 278.430416 
L 304.848235 278.430416 
L 304.848235 274.59802 
L 310.564925 274.59802 
L 310.564925 270.765624 
L 310.805068 270.765624 
L 310.805068 266.933228 
L 311.995842 266.933228 
L 311.995842 263.100832 
L 314.098589 263.100832 
L 314.098589 259.268436 
L 314.788244 259.268436 
L 314.788244 255.43604 
L 320.971832 255.43604 
L 320.971832 251.603644 
L 321.396977 251.603644 
L 321.396977 247.771248 
L 322.868663 247.771248 
L 322.868663 243.938851 
L 330.255315 243.938851 
L 330.255315 240.106455 
L 358.948986 240.106455 
L 358.948986 236.274059 
L 445.589436 236.274059 
L 445.589436 232.441663 
L 460.96782 232.441663 
L 460.96782 228.609267 
L 460.96782 228.609267 
L 460.96782 224.776871 
L 461.8 224.776871 
" style="fill:none;stroke:#f5deb3;stroke-linecap:square;stroke-width:1.5;"/>
   </g>
   <g id="line2d_23">
    <path clip-path="url(#pbc375f1144)" d="M 366.302731 293.76 
L 366.302731 289.927604 
L 380.964993 289.927604 
L 380.964993 286.095208 
L 384.092148 286.095208 
L 384.092148 282.262812 
L 385.614135 282.262812 
L 385.614135 278.430416 
L 388.190139 278.430416 
L 388.190139 274.59802 
L 392.288241 274.59802 
L 392.288241 270.765624 
L 395.575273 270.765624 
L 395.575273 266.933228 
L 414.768126 266.933228 
L 414.768126 263.100832 
L 461.8 263.100832 
" style="fill:none;stroke:#f5deb3;stroke-linecap:square;stroke-width:1.5;"/>
   </g>
   <g id="line2d_24">
    <path clip-path="url(#pbc375f1144)" d="M 459.955959 293.76 
L 459.955959 289.927604 
L 461.8 289.927604 
" style="fill:none;stroke:#f5deb3;stroke-linecap:square;stroke-width:1.5;"/>
   </g>
   <g id="line2d_25">
    <path clip-path="url(#pbc375f1144)" d="M 375.825305 293.76 
L 375.825305 289.927604 
L 381.071082 289.927604 
L 381.071082 286.095208 
L 382.124847 286.095208 
L 382.124847 282.262812 
L 383.784494 282.262812 
L 383.784494 278.430416 
L 403.282443 278.430416 
L 403.282443 274.59802 
L 405.466187 274.59802 
L 405.466187 270.765624 
L 405.944032 270.765624 
L 405.944032 266.933228 
L 412.074132 266.933228 
L 412.074132 263.100832 
L 423.810096 263.100832 
L 423.810096 259.268436 
L 431.756963 259.268436 
L 431.756963 255.43604 
L 433.562127 255.43604 
L 433.562127 251.603644 
L 441.903623 251.603644 
L 441.903623 247.771248 
L 443.252885 247.771248 
L 443.252885 243.938851 
L 448.689952 243.938851 
L 448.689952 240.106455 
L 461.8 240.106455 
" style="fill:none;stroke:#f5deb3;stroke-linecap:square;stroke-width:1.5;"/>
   </g>
   <g id="line2d_26">
    <path clip-path="url(#pbc375f1144)" d="M 440.639098 293.76 
L 440.639098 289.927604 
L 442.008167 289.927604 
L 442.008167 286.095208 
L 446.882574 286.095208 
L 446.882574 282.262812 
L 448.059242 282.262812 
L 448.059242 278.430416 
L 448.253799 278.430416 
L 448.253799 274.59802 
L 448.689952 274.59802 
L 448.689952 270.765624 
L 448.738278 270.765624 
L 448.738278 266.933228 
L 450.032912 266.933228 
L 450.032912 263.100832 
L 450.032912 263.100832 
L 450.032912 259.268436 
L 451.682677 259.268436 
L 451.682677 255.43604 
L 453.347227 255.43604 
L 453.347227 251.603644 
L 454.212933 251.603644 
L 454.212933 247.771248 
L 456.184924 247.771248 
L 456.184924 243.938851 
L 456.58278 243.938851 
L 456.58278 240.106455 
L 461.8 240.106455 
" style="fill:none;stroke:#f5deb3;stroke-linecap:square;stroke-width:1.5;"/>
   </g>
   <g id="line2d_27">
    <path clip-path="url(#pbc375f1144)" d="M 369.028159 293.76 
L 369.028159 289.927604 
L 369.028159 289.927604 
L 369.028159 286.095208 
L 375.032872 286.095208 
L 375.032872 282.262812 
L 377.499205 282.262812 
L 377.499205 278.430416 
L 380.752421 278.430416 
L 380.752421 274.59802 
L 397.52393 274.59802 
L 397.52393 270.765624 
L 406.102726 270.765624 
L 406.102726 266.933228 
L 406.181964 266.933228 
L 406.181964 263.100832 
L 406.655864 263.100832 
L 406.655864 259.268436 
L 410.280494 259.268436 
L 410.280494 255.43604 
L 416.330886 255.43604 
L 416.330886 251.603644 
L 424.77274 251.603644 
L 424.77274 247.771248 
L 431.225714 247.771248 
L 431.225714 243.938851 
L 431.874574 243.938851 
L 431.874574 240.106455 
L 438.706788 240.106455 
L 438.706788 236.274059 
L 460.715967 236.274059 
L 460.715967 232.441663 
L 461.8 232.441663 
" style="fill:none;stroke:#f5deb3;stroke-linecap:square;stroke-width:1.5;"/>
   </g>
   <g id="line2d_28">
    <path clip-path="url(#pbc375f1144)" d="M 317.714513 293.76 
L 317.714513 289.927604 
L 317.935544 289.927604 
L 317.935544 286.095208 
L 318.156009 286.095208 
L 318.156009 282.262812 
L 318.375911 282.262812 
L 318.375911 278.430416 
L 326.740887 278.430416 
L 326.740887 274.59802 
L 326.740887 274.59802 
L 326.740887 270.765624 
L 326.740887 270.765624 
L 326.740887 266.933228 
L 326.740887 266.933228 
L 326.740887 263.100832 
L 326.939943 263.100832 
L 326.939943 259.268436 
L 334.910046 259.268436 
L 334.910046 255.43604 
L 334.910046 255.43604 
L 334.910046 251.603644 
L 335.452072 251.603644 
L 335.452072 247.771248 
L 343.19779 247.771248 
L 343.19779 243.938851 
L 349.389527 243.938851 
L 349.389527 240.106455 
L 362.045653 240.106455 
L 362.045653 236.274059 
L 461.8 236.274059 
" style="fill:none;stroke:#f5deb3;stroke-linecap:square;stroke-width:1.5;"/>
   </g>
   <g id="line2d_29">
    <path clip-path="url(#pbc375f1144)" d="M 121.882105 293.76 
L 121.882105 289.927604 
L 121.882105 289.927604 
L 121.882105 286.095208 
L 121.882105 286.095208 
L 121.882105 282.262812 
L 121.882105 282.262812 
L 121.882105 278.430416 
L 121.882105 278.430416 
L 121.882105 274.59802 
L 121.882105 274.59802 
L 121.882105 270.765624 
L 124.00793 270.765624 
L 124.00793 266.933228 
L 124.00793 266.933228 
L 124.00793 263.100832 
L 124.00793 263.100832 
L 124.00793 259.268436 
L 124.00793 259.268436 
L 124.00793 255.43604 
L 124.00793 255.43604 
L 124.00793 251.603644 
L 124.00793 251.603644 
L 124.00793 247.771248 
L 124.00793 247.771248 
L 124.00793 243.938851 
L 124.00793 243.938851 
L 124.00793 240.106455 
L 124.00793 240.106455 
L 124.00793 236.274059 
L 164.994619 236.274059 
L 164.994619 232.441663 
L 164.994619 232.441663 
L 164.994619 228.609267 
L 164.994619 228.609267 
L 164.994619 224.776871 
L 308.864895 224.776871 
L 308.864895 220.944475 
L 308.864895 220.944475 
L 308.864895 217.112079 
L 308.864895 217.112079 
L 308.864895 213.279683 
L 310.082618 213.279683 
L 310.082618 209.447287 
L 310.082618 209.447287 
L 310.082618 205.614891 
L 310.082618 205.614891 
L 310.082618 201.782495 
L 311.044544 201.782495 
L 311.044544 197.950099 
L 311.044544 197.950099 
L 311.044544 194.117703 
L 311.044544 194.117703 
L 311.044544 190.285307 
L 311.521507 190.285307 
L 311.521507 186.452911 
L 311.521507 186.452911 
L 311.521507 182.620515 
L 311.521507 182.620515 
L 311.521507 178.788119 
L 311.521507 178.788119 
L 311.521507 178.788119 
L 460.8 178.788119 
" style="fill:none;stroke:#f5deb3;stroke-linecap:square;stroke-width:1.5;"/>
   </g>
   <g id="line2d_30">
    <path clip-path="url(#pbc375f1144)" d="M 311.283356 293.76 
L 311.283356 289.927604 
L 311.283356 289.927604 
L 311.283356 286.095208 
L 312.467577 286.095208 
L 312.467577 282.262812 
L 314.558973 282.262812 
L 314.558973 278.430416 
L 315.472419 278.430416 
L 315.472419 274.59802 
L 315.472419 274.59802 
L 315.472419 270.765624 
L 316.82467 270.765624 
L 316.82467 266.933228 
L 317.270741 266.933228 
L 317.270741 263.100832 
L 317.492913 263.100832 
L 317.492913 259.268436 
L 317.714513 259.268436 
L 317.714513 255.43604 
L 318.375911 255.43604 
L 318.375911 251.603644 
L 319.683656 251.603644 
L 319.683656 247.771248 
L 320.75847 247.771248 
L 320.75847 243.938851 
L 320.971832 243.938851 
L 320.971832 240.106455 
L 322.868663 240.106455 
L 322.868663 236.274059 
L 323.284564 236.274059 
L 323.284564 232.441663 
L 323.904674 232.441663 
L 323.904674 228.609267 
L 325.33446 228.609267 
L 325.33446 224.776871 
L 325.94003 224.776871 
L 325.94003 220.944475 
L 326.740887 220.944475 
L 326.740887 217.112079 
L 328.124708 217.112079 
L 328.124708 213.279683 
L 328.711031 213.279683 
L 328.711031 209.447287 
L 330.637097 209.447287 
L 330.637097 205.614891 
L 332.707157 205.614891 
L 332.707157 201.782495 
L 333.263186 201.782495 
L 333.263186 197.950099 
L 333.631887 197.950099 
L 333.631887 194.117703 
L 335.0911 194.117703 
L 335.0911 190.285307 
L 336.169505 190.285307 
L 336.169505 186.452911 
L 336.525993 186.452911 
L 336.525993 182.620515 
L 355.594346 182.620515 
L 355.594346 178.788119 
L 362.177797 178.788119 
L 362.177797 174.955723 
L 362.177797 174.955723 
L 362.177797 171.123327 
L 362.177797 171.123327 
L 362.177797 167.290931 
L 362.177797 167.290931 
L 362.177797 163.458535 
L 362.177797 163.458535 
L 362.177797 159.626139 
L 362.177797 159.626139 
L 362.177797 155.793743 
L 362.177797 155.793743 
L 362.177797 151.961347 
L 362.177797 151.961347 
L 362.177797 148.12895 
L 362.177797 148.12895 
L 362.177797 144.296554 
L 362.177797 144.296554 
L 362.177797 140.464158 
L 362.177797 140.464158 
L 362.177797 136.631762 
L 362.177797 136.631762 
L 362.177797 132.799366 
L 362.177797 132.799366 
L 362.177797 128.96697 
L 362.177797 128.96697 
L 362.177797 125.134574 
L 362.177797 125.134574 
L 362.177797 121.302178 
L 362.177797 121.302178 
L 362.177797 121.302178 
L 460.8 121.302178 
" style="fill:none;stroke:#f5deb3;stroke-linecap:square;stroke-width:1.5;"/>
   </g>
   <g id="matplotlib.axis_1">
    <g id="xtick_1">
     <g id="line2d_31">
      <path clip-path="url(#pbc375f1144)" d="M 260.441088 293.76 
L 260.441088 3.456 
" style="fill:none;stroke:#b0b0b0;stroke-linecap:square;stroke-width:0.8;"/>
     </g>
     <g id="line2d_32">
      <defs>
       <path d="M 0 0 
L 0 3.5 
" id="mb32ed67ffd" style="stroke:#000000;stroke-width:0.8;"/>
      </defs>
      <g>
       <use style="stroke:#000000;stroke-width:0.8;" x="260.441088" xlink:href="#mb32ed67ffd" y="293.76"/>
      </g>
     </g>
     <g id="text_1">
      <!-- 1 -->
      <defs>
       <path d="M 12.40625 8.296875 
L 28.515625 8.296875 
L 28.515625 63.921875 
L 10.984375 60.40625 
L 10.984375 69.390625 
L 28.421875 72.90625 
L 38.28125 72.90625 
L 38.28125 8.296875 
L 54.390625 8.296875 
L 54.390625 0 
L 12.40625 0 
z
" id="DejaVuSans-49"/>
      </defs>
      <g transform="translate(254.078588 315.956875)scale(0.2 -0.2)">
       <use xlink:href="#DejaVuSans-49"/>
      </g>
     </g>
    </g>
    <g id="xtick_2">
     <g id="line2d_33">
      <path clip-path="url(#pbc375f1144)" d="M 121.882105 293.76 
L 121.882105 3.456 
" style="fill:none;stroke:#b0b0b0;stroke-linecap:square;stroke-width:0.8;"/>
     </g>
     <g id="line2d_34">
      <defs>
       <path d="M 0 0 
L 0 2 
" id="m41aa36327f" style="stroke:#000000;stroke-width:0.6;"/>
      </defs>
      <g>
       <use style="stroke:#000000;stroke-width:0.6;" x="121.882105" xlink:href="#m41aa36327f" y="293.76"/>
      </g>
     </g>
    </g>
    <g id="xtick_3">
     <g id="line2d_35">
      <path clip-path="url(#pbc375f1144)" d="M 156.789219 293.76 
L 156.789219 3.456 
" style="fill:none;stroke:#b0b0b0;stroke-linecap:square;stroke-width:0.8;"/>
     </g>
     <g id="line2d_36">
      <g>
       <use style="stroke:#000000;stroke-width:0.6;" x="156.789219" xlink:href="#m41aa36327f" y="293.76"/>
      </g>
     </g>
    </g>
    <g id="xtick_4">
     <g id="line2d_37">
      <path clip-path="url(#pbc375f1144)" d="M 181.556211 293.76 
L 181.556211 3.456 
" style="fill:none;stroke:#b0b0b0;stroke-linecap:square;stroke-width:0.8;"/>
     </g>
     <g id="line2d_38">
      <g>
       <use style="stroke:#000000;stroke-width:0.6;" x="181.556211" xlink:href="#m41aa36327f" y="293.76"/>
      </g>
     </g>
    </g>
    <g id="xtick_5">
     <g id="line2d_39">
      <path clip-path="url(#pbc375f1144)" d="M 200.766982 293.76 
L 200.766982 3.456 
" style="fill:none;stroke:#b0b0b0;stroke-linecap:square;stroke-width:0.8;"/>
     </g>
     <g id="line2d_40">
      <g>
       <use style="stroke:#000000;stroke-width:0.6;" x="200.766982" xlink:href="#m41aa36327f" y="293.76"/>
      </g>
     </g>
    </g>
    <g id="xtick_6">
     <g id="line2d_41">
      <path clip-path="url(#pbc375f1144)" d="M 216.463325 293.76 
L 216.463325 3.456 
" style="fill:none;stroke:#b0b0b0;stroke-linecap:square;stroke-width:0.8;"/>
     </g>
     <g id="line2d_42">
      <g>
       <use style="stroke:#000000;stroke-width:0.6;" x="216.463325" xlink:href="#m41aa36327f" y="293.76"/>
      </g>
     </g>
    </g>
    <g id="xtick_7">
     <g id="line2d_43">
      <path clip-path="url(#pbc375f1144)" d="M 229.734394 293.76 
L 229.734394 3.456 
" style="fill:none;stroke:#b0b0b0;stroke-linecap:square;stroke-width:0.8;"/>
     </g>
     <g id="line2d_44">
      <g>
       <use style="stroke:#000000;stroke-width:0.6;" x="229.734394" xlink:href="#m41aa36327f" y="293.76"/>
      </g>
     </g>
    </g>
    <g id="xtick_8">
     <g id="line2d_45">
      <path clip-path="url(#pbc375f1144)" d="M 241.230316 293.76 
L 241.230316 3.456 
" style="fill:none;stroke:#b0b0b0;stroke-linecap:square;stroke-width:0.8;"/>
     </g>
     <g id="line2d_46">
      <g>
       <use style="stroke:#000000;stroke-width:0.6;" x="241.230316" xlink:href="#m41aa36327f" y="293.76"/>
      </g>
     </g>
    </g>
    <g id="xtick_9">
     <g id="line2d_47">
      <path clip-path="url(#pbc375f1144)" d="M 251.370439 293.76 
L 251.370439 3.456 
" style="fill:none;stroke:#b0b0b0;stroke-linecap:square;stroke-width:0.8;"/>
     </g>
     <g id="line2d_48">
      <g>
       <use style="stroke:#000000;stroke-width:0.6;" x="251.370439" xlink:href="#m41aa36327f" y="293.76"/>
      </g>
     </g>
    </g>
    <g id="xtick_10">
     <g id="line2d_49">
      <path clip-path="url(#pbc375f1144)" d="M 320.115193 293.76 
L 320.115193 3.456 
" style="fill:none;stroke:#b0b0b0;stroke-linecap:square;stroke-width:0.8;"/>
     </g>
     <g id="line2d_50">
      <g>
       <use style="stroke:#000000;stroke-width:0.6;" x="320.115193" xlink:href="#m41aa36327f" y="293.76"/>
      </g>
     </g>
    </g>
    <g id="xtick_11">
     <g id="line2d_51">
      <path clip-path="url(#pbc375f1144)" d="M 355.022307 293.76 
L 355.022307 3.456 
" style="fill:none;stroke:#b0b0b0;stroke-linecap:square;stroke-width:0.8;"/>
     </g>
     <g id="line2d_52">
      <g>
       <use style="stroke:#000000;stroke-width:0.6;" x="355.022307" xlink:href="#m41aa36327f" y="293.76"/>
      </g>
     </g>
    </g>
    <g id="xtick_12">
     <g id="line2d_53">
      <path clip-path="url(#pbc375f1144)" d="M 379.789298 293.76 
L 379.789298 3.456 
" style="fill:none;stroke:#b0b0b0;stroke-linecap:square;stroke-width:0.8;"/>
     </g>
     <g id="line2d_54">
      <g>
       <use style="stroke:#000000;stroke-width:0.6;" x="379.789298" xlink:href="#m41aa36327f" y="293.76"/>
      </g>
     </g>
    </g>
    <g id="xtick_13">
     <g id="line2d_55">
      <path clip-path="url(#pbc375f1144)" d="M 399.00007 293.76 
L 399.00007 3.456 
" style="fill:none;stroke:#b0b0b0;stroke-linecap:square;stroke-width:0.8;"/>
     </g>
     <g id="line2d_56">
      <g>
       <use style="stroke:#000000;stroke-width:0.6;" x="399.00007" xlink:href="#m41aa36327f" y="293.76"/>
      </g>
     </g>
    </g>
    <g id="xtick_14">
     <g id="line2d_57">
      <path clip-path="url(#pbc375f1144)" d="M 414.696412 293.76 
L 414.696412 3.456 
" style="fill:none;stroke:#b0b0b0;stroke-linecap:square;stroke-width:0.8;"/>
     </g>
     <g id="line2d_58">
      <g>
       <use style="stroke:#000000;stroke-width:0.6;" x="414.696412" xlink:href="#m41aa36327f" y="293.76"/>
      </g>
     </g>
    </g>
    <g id="xtick_15">
     <g id="line2d_59">
      <path clip-path="url(#pbc375f1144)" d="M 427.967481 293.76 
L 427.967481 3.456 
" style="fill:none;stroke:#b0b0b0;stroke-linecap:square;stroke-width:0.8;"/>
     </g>
     <g id="line2d_60">
      <g>
       <use style="stroke:#000000;stroke-width:0.6;" x="427.967481" xlink:href="#m41aa36327f" y="293.76"/>
      </g>
     </g>
    </g>
    <g id="xtick_16">
     <g id="line2d_61">
      <path clip-path="url(#pbc375f1144)" d="M 439.463404 293.76 
L 439.463404 3.456 
" style="fill:none;stroke:#b0b0b0;stroke-linecap:square;stroke-width:0.8;"/>
     </g>
     <g id="line2d_62">
      <g>
       <use style="stroke:#000000;stroke-width:0.6;" x="439.463404" xlink:href="#m41aa36327f" y="293.76"/>
      </g>
     </g>
    </g>
    <g id="xtick_17">
     <g id="line2d_63">
      <path clip-path="url(#pbc375f1144)" d="M 449.603526 293.76 
L 449.603526 3.456 
" style="fill:none;stroke:#b0b0b0;stroke-linecap:square;stroke-width:0.8;"/>
     </g>
     <g id="line2d_64">
      <g>
       <use style="stroke:#000000;stroke-width:0.6;" x="449.603526" xlink:href="#m41aa36327f" y="293.76"/>
      </g>
     </g>
    </g>
    <g id="text_2">
     <!-- log10 of FEvals / DIM -->
     <defs>
      <path d="M 9.421875 75.984375 
L 18.40625 75.984375 
L 18.40625 0 
L 9.421875 0 
z
" id="DejaVuSans-108"/>
      <path d="M 30.609375 48.390625 
Q 23.390625 48.390625 19.1875 42.75 
Q 14.984375 37.109375 14.984375 27.296875 
Q 14.984375 17.484375 19.15625 11.84375 
Q 23.34375 6.203125 30.609375 6.203125 
Q 37.796875 6.203125 41.984375 11.859375 
Q 46.1875 17.53125 46.1875 27.296875 
Q 46.1875 37.015625 41.984375 42.703125 
Q 37.796875 48.390625 30.609375 48.390625 
z
M 30.609375 56 
Q 42.328125 56 49.015625 48.375 
Q 55.71875 40.765625 55.71875 27.296875 
Q 55.71875 13.875 49.015625 6.21875 
Q 42.328125 -1.421875 30.609375 -1.421875 
Q 18.84375 -1.421875 12.171875 6.21875 
Q 5.515625 13.875 5.515625 27.296875 
Q 5.515625 40.765625 12.171875 48.375 
Q 18.84375 56 30.609375 56 
z
" id="DejaVuSans-111"/>
      <path d="M 45.40625 27.984375 
Q 45.40625 37.75 41.375 43.109375 
Q 37.359375 48.484375 30.078125 48.484375 
Q 22.859375 48.484375 18.828125 43.109375 
Q 14.796875 37.75 14.796875 27.984375 
Q 14.796875 18.265625 18.828125 12.890625 
Q 22.859375 7.515625 30.078125 7.515625 
Q 37.359375 7.515625 41.375 12.890625 
Q 45.40625 18.265625 45.40625 27.984375 
z
M 54.390625 6.78125 
Q 54.390625 -7.171875 48.1875 -13.984375 
Q 42 -20.796875 29.203125 -20.796875 
Q 24.46875 -20.796875 20.265625 -20.09375 
Q 16.0625 -19.390625 12.109375 -17.921875 
L 12.109375 -9.1875 
Q 16.0625 -11.328125 19.921875 -12.34375 
Q 23.78125 -13.375 27.78125 -13.375 
Q 36.625 -13.375 41.015625 -8.765625 
Q 45.40625 -4.15625 45.40625 5.171875 
L 45.40625 9.625 
Q 42.625 4.78125 38.28125 2.390625 
Q 33.9375 0 27.875 0 
Q 17.828125 0 11.671875 7.65625 
Q 5.515625 15.328125 5.515625 27.984375 
Q 5.515625 40.671875 11.671875 48.328125 
Q 17.828125 56 27.875 56 
Q 33.9375 56 38.28125 53.609375 
Q 42.625 51.21875 45.40625 46.390625 
L 45.40625 54.6875 
L 54.390625 54.6875 
z
" id="DejaVuSans-103"/>
      <path d="M 31.78125 66.40625 
Q 24.171875 66.40625 20.328125 58.90625 
Q 16.5 51.421875 16.5 36.375 
Q 16.5 21.390625 20.328125 13.890625 
Q 24.171875 6.390625 31.78125 6.390625 
Q 39.453125 6.390625 43.28125 13.890625 
Q 47.125 21.390625 47.125 36.375 
Q 47.125 51.421875 43.28125 58.90625 
Q 39.453125 66.40625 31.78125 66.40625 
z
M 31.78125 74.21875 
Q 44.046875 74.21875 50.515625 64.515625 
Q 56.984375 54.828125 56.984375 36.375 
Q 56.984375 17.96875 50.515625 8.265625 
Q 44.046875 -1.421875 31.78125 -1.421875 
Q 19.53125 -1.421875 13.0625 8.265625 
Q 6.59375 17.96875 6.59375 36.375 
Q 6.59375 54.828125 13.0625 64.515625 
Q 19.53125 74.21875 31.78125 74.21875 
z
" id="DejaVuSans-48"/>
      <path id="DejaVuSans-32"/>
      <path d="M 37.109375 75.984375 
L 37.109375 68.5 
L 28.515625 68.5 
Q 23.6875 68.5 21.796875 66.546875 
Q 19.921875 64.59375 19.921875 59.515625 
L 19.921875 54.6875 
L 34.71875 54.6875 
L 34.71875 47.703125 
L 19.921875 47.703125 
L 19.921875 0 
L 10.890625 0 
L 10.890625 47.703125 
L 2.296875 47.703125 
L 2.296875 54.6875 
L 10.890625 54.6875 
L 10.890625 58.5 
Q 10.890625 67.625 15.140625 71.796875 
Q 19.390625 75.984375 28.609375 75.984375 
z
" id="DejaVuSans-102"/>
      <path d="M 9.8125 72.90625 
L 51.703125 72.90625 
L 51.703125 64.59375 
L 19.671875 64.59375 
L 19.671875 43.109375 
L 48.578125 43.109375 
L 48.578125 34.8125 
L 19.671875 34.8125 
L 19.671875 0 
L 9.8125 0 
z
" id="DejaVuSans-70"/>
      <path d="M 9.8125 72.90625 
L 55.90625 72.90625 
L 55.90625 64.59375 
L 19.671875 64.59375 
L 19.671875 43.015625 
L 54.390625 43.015625 
L 54.390625 34.71875 
L 19.671875 34.71875 
L 19.671875 8.296875 
L 56.78125 8.296875 
L 56.78125 0 
L 9.8125 0 
z
" id="DejaVuSans-69"/>
      <path d="M 2.984375 54.6875 
L 12.5 54.6875 
L 29.59375 8.796875 
L 46.6875 54.6875 
L 56.203125 54.6875 
L 35.6875 0 
L 23.484375 0 
z
" id="DejaVuSans-118"/>
      <path d="M 34.28125 27.484375 
Q 23.390625 27.484375 19.1875 25 
Q 14.984375 22.515625 14.984375 16.5 
Q 14.984375 11.71875 18.140625 8.90625 
Q 21.296875 6.109375 26.703125 6.109375 
Q 34.1875 6.109375 38.703125 11.40625 
Q 43.21875 16.703125 43.21875 25.484375 
L 43.21875 27.484375 
z
M 52.203125 31.203125 
L 52.203125 0 
L 43.21875 0 
L 43.21875 8.296875 
Q 40.140625 3.328125 35.546875 0.953125 
Q 30.953125 -1.421875 24.3125 -1.421875 
Q 15.921875 -1.421875 10.953125 3.296875 
Q 6 8.015625 6 15.921875 
Q 6 25.140625 12.171875 29.828125 
Q 18.359375 34.515625 30.609375 34.515625 
L 43.21875 34.515625 
L 43.21875 35.40625 
Q 43.21875 41.609375 39.140625 45 
Q 35.0625 48.390625 27.6875 48.390625 
Q 23 48.390625 18.546875 47.265625 
Q 14.109375 46.140625 10.015625 43.890625 
L 10.015625 52.203125 
Q 14.9375 54.109375 19.578125 55.046875 
Q 24.21875 56 28.609375 56 
Q 40.484375 56 46.34375 49.84375 
Q 52.203125 43.703125 52.203125 31.203125 
z
" id="DejaVuSans-97"/>
      <path d="M 44.28125 53.078125 
L 44.28125 44.578125 
Q 40.484375 46.53125 36.375 47.5 
Q 32.28125 48.484375 27.875 48.484375 
Q 21.1875 48.484375 17.84375 46.4375 
Q 14.5 44.390625 14.5 40.28125 
Q 14.5 37.15625 16.890625 35.375 
Q 19.28125 33.59375 26.515625 31.984375 
L 29.59375 31.296875 
Q 39.15625 29.25 43.1875 25.515625 
Q 47.21875 21.78125 47.21875 15.09375 
Q 47.21875 7.46875 41.1875 3.015625 
Q 35.15625 -1.421875 24.609375 -1.421875 
Q 20.21875 -1.421875 15.453125 -0.5625 
Q 10.6875 0.296875 5.421875 2 
L 5.421875 11.28125 
Q 10.40625 8.6875 15.234375 7.390625 
Q 20.0625 6.109375 24.8125 6.109375 
Q 31.15625 6.109375 34.5625 8.28125 
Q 37.984375 10.453125 37.984375 14.40625 
Q 37.984375 18.0625 35.515625 20.015625 
Q 33.0625 21.96875 24.703125 23.78125 
L 21.578125 24.515625 
Q 13.234375 26.265625 9.515625 29.90625 
Q 5.8125 33.546875 5.8125 39.890625 
Q 5.8125 47.609375 11.28125 51.796875 
Q 16.75 56 26.8125 56 
Q 31.78125 56 36.171875 55.265625 
Q 40.578125 54.546875 44.28125 53.078125 
z
" id="DejaVuSans-115"/>
      <path d="M 25.390625 72.90625 
L 33.6875 72.90625 
L 8.296875 -9.28125 
L 0 -9.28125 
z
" id="DejaVuSans-47"/>
      <path d="M 19.671875 64.796875 
L 19.671875 8.109375 
L 31.59375 8.109375 
Q 46.6875 8.109375 53.6875 14.9375 
Q 60.6875 21.78125 60.6875 36.53125 
Q 60.6875 51.171875 53.6875 57.984375 
Q 46.6875 64.796875 31.59375 64.796875 
z
M 9.8125 72.90625 
L 30.078125 72.90625 
Q 51.265625 72.90625 61.171875 64.09375 
Q 71.09375 55.28125 71.09375 36.53125 
Q 71.09375 17.671875 61.125 8.828125 
Q 51.171875 0 30.078125 0 
L 9.8125 0 
z
" id="DejaVuSans-68"/>
      <path d="M 9.8125 72.90625 
L 19.671875 72.90625 
L 19.671875 0 
L 9.8125 0 
z
" id="DejaVuSans-73"/>
      <path d="M 9.8125 72.90625 
L 24.515625 72.90625 
L 43.109375 23.296875 
L 61.8125 72.90625 
L 76.515625 72.90625 
L 76.515625 0 
L 66.890625 0 
L 66.890625 64.015625 
L 48.09375 14.015625 
L 38.1875 14.015625 
L 19.390625 64.015625 
L 19.390625 0 
L 9.8125 0 
z
" id="DejaVuSans-77"/>
     </defs>
     <g transform="translate(156.430563 339.313125)scale(0.2 -0.2)">
      <use xlink:href="#DejaVuSans-108"/>
      <use x="27.783203" xlink:href="#DejaVuSans-111"/>
      <use x="88.964844" xlink:href="#DejaVuSans-103"/>
      <use x="152.441406" xlink:href="#DejaVuSans-49"/>
      <use x="216.064453" xlink:href="#DejaVuSans-48"/>
      <use x="279.6875" xlink:href="#DejaVuSans-32"/>
      <use x="311.474609" xlink:href="#DejaVuSans-111"/>
      <use x="372.65625" xlink:href="#DejaVuSans-102"/>
      <use x="407.861328" xlink:href="#DejaVuSans-32"/>
      <use x="439.648438" xlink:href="#DejaVuSans-70"/>
      <use x="497.167969" xlink:href="#DejaVuSans-69"/>
      <use x="560.351562" xlink:href="#DejaVuSans-118"/>
      <use x="619.53125" xlink:href="#DejaVuSans-97"/>
      <use x="680.810547" xlink:href="#DejaVuSans-108"/>
      <use x="708.59375" xlink:href="#DejaVuSans-115"/>
      <use x="760.693359" xlink:href="#DejaVuSans-32"/>
      <use x="792.480469" xlink:href="#DejaVuSans-47"/>
      <use x="826.171875" xlink:href="#DejaVuSans-32"/>
      <use x="857.958984" xlink:href="#DejaVuSans-68"/>
      <use x="934.960938" xlink:href="#DejaVuSans-73"/>
      <use x="964.453125" xlink:href="#DejaVuSans-77"/>
     </g>
    </g>
   </g>
   <g id="matplotlib.axis_2">
    <g id="ytick_1">
     <g id="line2d_65">
      <path clip-path="url(#pbc375f1144)" d="M 62.208 293.76 
L 460.8 293.76 
" style="fill:none;stroke:#b0b0b0;stroke-linecap:square;stroke-width:0.8;"/>
     </g>
     <g id="line2d_66">
      <defs>
       <path d="M 0 0 
L -3.5 0 
" id="m472ca64f8a" style="stroke:#000000;stroke-width:0.8;"/>
      </defs>
      <g>
       <use style="stroke:#000000;stroke-width:0.8;" x="62.208" xlink:href="#m472ca64f8a" y="293.76"/>
      </g>
     </g>
     <g id="text_3">
      <!-- 0.0 -->
      <defs>
       <path d="M 10.6875 12.40625 
L 21 12.40625 
L 21 0 
L 10.6875 0 
z
" id="DejaVuSans-46"/>
      </defs>
      <g transform="translate(29.763 299.83875)scale(0.16 -0.16)">
       <use xlink:href="#DejaVuSans-48"/>
       <use x="63.623047" xlink:href="#DejaVuSans-46"/>
       <use x="95.410156" xlink:href="#DejaVuSans-48"/>
      </g>
     </g>
    </g>
    <g id="ytick_2">
     <g id="line2d_67">
      <path clip-path="url(#pbc375f1144)" d="M 62.208 236.274059 
L 460.8 236.274059 
" style="fill:none;stroke:#b0b0b0;stroke-linecap:square;stroke-width:0.8;"/>
     </g>
     <g id="line2d_68">
      <g>
       <use style="stroke:#000000;stroke-width:0.8;" x="62.208" xlink:href="#m472ca64f8a" y="236.274059"/>
      </g>
     </g>
     <g id="text_4">
      <!-- 0.2 -->
      <defs>
       <path d="M 19.1875 8.296875 
L 53.609375 8.296875 
L 53.609375 0 
L 7.328125 0 
L 7.328125 8.296875 
Q 12.9375 14.109375 22.625 23.890625 
Q 32.328125 33.6875 34.8125 36.53125 
Q 39.546875 41.84375 41.421875 45.53125 
Q 43.3125 49.21875 43.3125 52.78125 
Q 43.3125 58.59375 39.234375 62.25 
Q 35.15625 65.921875 28.609375 65.921875 
Q 23.96875 65.921875 18.8125 64.3125 
Q 13.671875 62.703125 7.8125 59.421875 
L 7.8125 69.390625 
Q 13.765625 71.78125 18.9375 73 
Q 24.125 74.21875 28.421875 74.21875 
Q 39.75 74.21875 46.484375 68.546875 
Q 53.21875 62.890625 53.21875 53.421875 
Q 53.21875 48.921875 51.53125 44.890625 
Q 49.859375 40.875 45.40625 35.40625 
Q 44.1875 33.984375 37.640625 27.21875 
Q 31.109375 20.453125 19.1875 8.296875 
z
" id="DejaVuSans-50"/>
      </defs>
      <g transform="translate(29.763 242.352809)scale(0.16 -0.16)">
       <use xlink:href="#DejaVuSans-48"/>
       <use x="63.623047" xlink:href="#DejaVuSans-46"/>
       <use x="95.410156" xlink:href="#DejaVuSans-50"/>
      </g>
     </g>
    </g>
    <g id="ytick_3">
     <g id="line2d_69">
      <path clip-path="url(#pbc375f1144)" d="M 62.208 178.788119 
L 460.8 178.788119 
" style="fill:none;stroke:#b0b0b0;stroke-linecap:square;stroke-width:0.8;"/>
     </g>
     <g id="line2d_70">
      <g>
       <use style="stroke:#000000;stroke-width:0.8;" x="62.208" xlink:href="#m472ca64f8a" y="178.788119"/>
      </g>
     </g>
     <g id="text_5">
      <!-- 0.4 -->
      <defs>
       <path d="M 37.796875 64.3125 
L 12.890625 25.390625 
L 37.796875 25.390625 
z
M 35.203125 72.90625 
L 47.609375 72.90625 
L 47.609375 25.390625 
L 58.015625 25.390625 
L 58.015625 17.1875 
L 47.609375 17.1875 
L 47.609375 0 
L 37.796875 0 
L 37.796875 17.1875 
L 4.890625 17.1875 
L 4.890625 26.703125 
z
" id="DejaVuSans-52"/>
      </defs>
      <g transform="translate(29.763 184.866869)scale(0.16 -0.16)">
       <use xlink:href="#DejaVuSans-48"/>
       <use x="63.623047" xlink:href="#DejaVuSans-46"/>
       <use x="95.410156" xlink:href="#DejaVuSans-52"/>
      </g>
     </g>
    </g>
    <g id="ytick_4">
     <g id="line2d_71">
      <path clip-path="url(#pbc375f1144)" d="M 62.208 121.302178 
L 460.8 121.302178 
" style="fill:none;stroke:#b0b0b0;stroke-linecap:square;stroke-width:0.8;"/>
     </g>
     <g id="line2d_72">
      <g>
       <use style="stroke:#000000;stroke-width:0.8;" x="62.208" xlink:href="#m472ca64f8a" y="121.302178"/>
      </g>
     </g>
     <g id="text_6">
      <!-- 0.6 -->
      <defs>
       <path d="M 33.015625 40.375 
Q 26.375 40.375 22.484375 35.828125 
Q 18.609375 31.296875 18.609375 23.390625 
Q 18.609375 15.53125 22.484375 10.953125 
Q 26.375 6.390625 33.015625 6.390625 
Q 39.65625 6.390625 43.53125 10.953125 
Q 47.40625 15.53125 47.40625 23.390625 
Q 47.40625 31.296875 43.53125 35.828125 
Q 39.65625 40.375 33.015625 40.375 
z
M 52.59375 71.296875 
L 52.59375 62.3125 
Q 48.875 64.0625 45.09375 64.984375 
Q 41.3125 65.921875 37.59375 65.921875 
Q 27.828125 65.921875 22.671875 59.328125 
Q 17.53125 52.734375 16.796875 39.40625 
Q 19.671875 43.65625 24.015625 45.921875 
Q 28.375 48.1875 33.59375 48.1875 
Q 44.578125 48.1875 50.953125 41.515625 
Q 57.328125 34.859375 57.328125 23.390625 
Q 57.328125 12.15625 50.6875 5.359375 
Q 44.046875 -1.421875 33.015625 -1.421875 
Q 20.359375 -1.421875 13.671875 8.265625 
Q 6.984375 17.96875 6.984375 36.375 
Q 6.984375 53.65625 15.1875 63.9375 
Q 23.390625 74.21875 37.203125 74.21875 
Q 40.921875 74.21875 44.703125 73.484375 
Q 48.484375 72.75 52.59375 71.296875 
z
" id="DejaVuSans-54"/>
      </defs>
      <g transform="translate(29.763 127.380928)scale(0.16 -0.16)">
       <use xlink:href="#DejaVuSans-48"/>
       <use x="63.623047" xlink:href="#DejaVuSans-46"/>
       <use x="95.410156" xlink:href="#DejaVuSans-54"/>
      </g>
     </g>
    </g>
    <g id="ytick_5">
     <g id="line2d_73">
      <path clip-path="url(#pbc375f1144)" d="M 62.208 63.816238 
L 460.8 63.816238 
" style="fill:none;stroke:#b0b0b0;stroke-linecap:square;stroke-width:0.8;"/>
     </g>
     <g id="line2d_74">
      <g>
       <use style="stroke:#000000;stroke-width:0.8;" x="62.208" xlink:href="#m472ca64f8a" y="63.816238"/>
      </g>
     </g>
     <g id="text_7">
      <!-- 0.8 -->
      <defs>
       <path d="M 31.78125 34.625 
Q 24.75 34.625 20.71875 30.859375 
Q 16.703125 27.09375 16.703125 20.515625 
Q 16.703125 13.921875 20.71875 10.15625 
Q 24.75 6.390625 31.78125 6.390625 
Q 38.8125 6.390625 42.859375 10.171875 
Q 46.921875 13.96875 46.921875 20.515625 
Q 46.921875 27.09375 42.890625 30.859375 
Q 38.875 34.625 31.78125 34.625 
z
M 21.921875 38.8125 
Q 15.578125 40.375 12.03125 44.71875 
Q 8.5 49.078125 8.5 55.328125 
Q 8.5 64.0625 14.71875 69.140625 
Q 20.953125 74.21875 31.78125 74.21875 
Q 42.671875 74.21875 48.875 69.140625 
Q 55.078125 64.0625 55.078125 55.328125 
Q 55.078125 49.078125 51.53125 44.71875 
Q 48 40.375 41.703125 38.8125 
Q 48.828125 37.15625 52.796875 32.3125 
Q 56.78125 27.484375 56.78125 20.515625 
Q 56.78125 9.90625 50.3125 4.234375 
Q 43.84375 -1.421875 31.78125 -1.421875 
Q 19.734375 -1.421875 13.25 4.234375 
Q 6.78125 9.90625 6.78125 20.515625 
Q 6.78125 27.484375 10.78125 32.3125 
Q 14.796875 37.15625 21.921875 38.8125 
z
M 18.3125 54.390625 
Q 18.3125 48.734375 21.84375 45.5625 
Q 25.390625 42.390625 31.78125 42.390625 
Q 38.140625 42.390625 41.71875 45.5625 
Q 45.3125 48.734375 45.3125 54.390625 
Q 45.3125 60.0625 41.71875 63.234375 
Q 38.140625 66.40625 31.78125 66.40625 
Q 25.390625 66.40625 21.84375 63.234375 
Q 18.3125 60.0625 18.3125 54.390625 
z
" id="DejaVuSans-56"/>
      </defs>
      <g transform="translate(29.763 69.894988)scale(0.16 -0.16)">
       <use xlink:href="#DejaVuSans-48"/>
       <use x="63.623047" xlink:href="#DejaVuSans-46"/>
       <use x="95.410156" xlink:href="#DejaVuSans-56"/>
      </g>
     </g>
    </g>
    <g id="ytick_6">
     <g id="line2d_75">
      <path clip-path="url(#pbc375f1144)" d="M 62.208 6.330297 
L 460.8 6.330297 
" style="fill:none;stroke:#b0b0b0;stroke-linecap:square;stroke-width:0.8;"/>
     </g>
     <g id="line2d_76">
      <g>
       <use style="stroke:#000000;stroke-width:0.8;" x="62.208" xlink:href="#m472ca64f8a" y="6.330297"/>
      </g>
     </g>
     <g id="text_8">
      <!-- 1.0 -->
      <g transform="translate(29.763 12.409047)scale(0.16 -0.16)">
       <use xlink:href="#DejaVuSans-49"/>
       <use x="63.623047" xlink:href="#DejaVuSans-46"/>
       <use x="95.410156" xlink:href="#DejaVuSans-48"/>
      </g>
     </g>
    </g>
    <g id="text_9">
     <!-- proportion of trials -->
     <defs>
      <path d="M 18.109375 8.203125 
L 18.109375 -20.796875 
L 9.078125 -20.796875 
L 9.078125 54.6875 
L 18.109375 54.6875 
L 18.109375 46.390625 
Q 20.953125 51.265625 25.265625 53.625 
Q 29.59375 56 35.59375 56 
Q 45.5625 56 51.78125 48.09375 
Q 58.015625 40.1875 58.015625 27.296875 
Q 58.015625 14.40625 51.78125 6.484375 
Q 45.5625 -1.421875 35.59375 -1.421875 
Q 29.59375 -1.421875 25.265625 0.953125 
Q 20.953125 3.328125 18.109375 8.203125 
z
M 48.6875 27.296875 
Q 48.6875 37.203125 44.609375 42.84375 
Q 40.53125 48.484375 33.40625 48.484375 
Q 26.265625 48.484375 22.1875 42.84375 
Q 18.109375 37.203125 18.109375 27.296875 
Q 18.109375 17.390625 22.1875 11.75 
Q 26.265625 6.109375 33.40625 6.109375 
Q 40.53125 6.109375 44.609375 11.75 
Q 48.6875 17.390625 48.6875 27.296875 
z
" id="DejaVuSans-112"/>
      <path d="M 41.109375 46.296875 
Q 39.59375 47.171875 37.8125 47.578125 
Q 36.03125 48 33.890625 48 
Q 26.265625 48 22.1875 43.046875 
Q 18.109375 38.09375 18.109375 28.8125 
L 18.109375 0 
L 9.078125 0 
L 9.078125 54.6875 
L 18.109375 54.6875 
L 18.109375 46.1875 
Q 20.953125 51.171875 25.484375 53.578125 
Q 30.03125 56 36.53125 56 
Q 37.453125 56 38.578125 55.875 
Q 39.703125 55.765625 41.0625 55.515625 
z
" id="DejaVuSans-114"/>
      <path d="M 18.3125 70.21875 
L 18.3125 54.6875 
L 36.8125 54.6875 
L 36.8125 47.703125 
L 18.3125 47.703125 
L 18.3125 18.015625 
Q 18.3125 11.328125 20.140625 9.421875 
Q 21.96875 7.515625 27.59375 7.515625 
L 36.8125 7.515625 
L 36.8125 0 
L 27.59375 0 
Q 17.1875 0 13.234375 3.875 
Q 9.28125 7.765625 9.28125 18.015625 
L 9.28125 47.703125 
L 2.6875 47.703125 
L 2.6875 54.6875 
L 9.28125 54.6875 
L 9.28125 70.21875 
z
" id="DejaVuSans-116"/>
      <path d="M 9.421875 54.6875 
L 18.40625 54.6875 
L 18.40625 0 
L 9.421875 0 
z
M 9.421875 75.984375 
L 18.40625 75.984375 
L 18.40625 64.59375 
L 9.421875 64.59375 
z
" id="DejaVuSans-105"/>
      <path d="M 54.890625 33.015625 
L 54.890625 0 
L 45.90625 0 
L 45.90625 32.71875 
Q 45.90625 40.484375 42.875 44.328125 
Q 39.84375 48.1875 33.796875 48.1875 
Q 26.515625 48.1875 22.3125 43.546875 
Q 18.109375 38.921875 18.109375 30.90625 
L 18.109375 0 
L 9.078125 0 
L 9.078125 54.6875 
L 18.109375 54.6875 
L 18.109375 46.1875 
Q 21.34375 51.125 25.703125 53.5625 
Q 30.078125 56 35.796875 56 
Q 45.21875 56 50.046875 50.171875 
Q 54.890625 44.34375 54.890625 33.015625 
z
" id="DejaVuSans-110"/>
     </defs>
     <g transform="translate(21.603625 241.836125)rotate(-90)scale(0.2 -0.2)">
      <use xlink:href="#DejaVuSans-112"/>
      <use x="63.476562" xlink:href="#DejaVuSans-114"/>
      <use x="104.558594" xlink:href="#DejaVuSans-111"/>
      <use x="165.740234" xlink:href="#DejaVuSans-112"/>
      <use x="229.216797" xlink:href="#DejaVuSans-111"/>
      <use x="290.398438" xlink:href="#DejaVuSans-114"/>
      <use x="331.511719" xlink:href="#DejaVuSans-116"/>
      <use x="370.720703" xlink:href="#DejaVuSans-105"/>
      <use x="398.503906" xlink:href="#DejaVuSans-111"/>
      <use x="459.685547" xlink:href="#DejaVuSans-110"/>
      <use x="523.064453" xlink:href="#DejaVuSans-32"/>
      <use x="554.851562" xlink:href="#DejaVuSans-111"/>
      <use x="616.033203" xlink:href="#DejaVuSans-102"/>
      <use x="651.238281" xlink:href="#DejaVuSans-32"/>
      <use x="683.025391" xlink:href="#DejaVuSans-116"/>
      <use x="722.234375" xlink:href="#DejaVuSans-114"/>
      <use x="763.347656" xlink:href="#DejaVuSans-105"/>
      <use x="791.130859" xlink:href="#DejaVuSans-97"/>
      <use x="852.410156" xlink:href="#DejaVuSans-108"/>
      <use x="880.193359" xlink:href="#DejaVuSans-115"/>
     </g>
    </g>
   </g>
   <g id="line2d_77"/>
   <g id="line2d_78"/>
   <g id="line2d_79"/>
   <g id="line2d_80"/>
   <g id="line2d_81">
    <path clip-path="url(#pbc375f1144)" d="M 460.8 293.76 
L 460.8 3.456 
" style="fill:none;stroke:#000000;stroke-linecap:square;stroke-width:1.5;"/>
   </g>
   <g id="patch_3">
    <path d="M 62.208 293.76 
L 62.208 3.456 
" style="fill:none;stroke:#000000;stroke-linecap:square;stroke-linejoin:miter;stroke-width:0.8;"/>
   </g>
   <g id="patch_4">
    <path d="M 460.8 293.76 
L 460.8 3.456 
" style="fill:none;stroke:#000000;stroke-linecap:square;stroke-linejoin:miter;stroke-width:0.8;"/>
   </g>
   <g id="patch_5">
    <path d="M 62.208 293.76 
L 460.8 293.76 
" style="fill:none;stroke:#000000;stroke-linecap:square;stroke-linejoin:miter;stroke-width:0.8;"/>
   </g>
   <g id="patch_6">
    <path d="M 62.208 3.456 
L 460.8 3.456 
" style="fill:none;stroke:#000000;stroke-linecap:square;stroke-linejoin:miter;stroke-width:0.8;"/>
   </g>
   <g id="text_10">
    <!-- {f1-f5}, 20-D -->
    <defs>
     <path d="M 51.125 -9.28125 
L 51.125 -16.3125 
L 48.09375 -16.3125 
Q 35.9375 -16.3125 31.8125 -12.6875 
Q 27.6875 -9.078125 27.6875 1.703125 
L 27.6875 13.375 
Q 27.6875 20.75 25.046875 23.578125 
Q 22.40625 26.421875 15.484375 26.421875 
L 12.5 26.421875 
L 12.5 33.40625 
L 15.484375 33.40625 
Q 22.46875 33.40625 25.078125 36.203125 
Q 27.6875 39.015625 27.6875 46.296875 
L 27.6875 58.015625 
Q 27.6875 68.796875 31.8125 72.390625 
Q 35.9375 75.984375 48.09375 75.984375 
L 51.125 75.984375 
L 51.125 69 
L 47.796875 69 
Q 40.921875 69 38.8125 66.84375 
Q 36.71875 64.703125 36.71875 57.8125 
L 36.71875 45.703125 
Q 36.71875 38.03125 34.5 34.5625 
Q 32.28125 31.109375 26.90625 29.890625 
Q 32.328125 28.5625 34.515625 25.09375 
Q 36.71875 21.625 36.71875 14.015625 
L 36.71875 1.90625 
Q 36.71875 -4.984375 38.8125 -7.125 
Q 40.921875 -9.28125 47.796875 -9.28125 
z
" id="DejaVuSans-123"/>
     <path d="M 4.890625 31.390625 
L 31.203125 31.390625 
L 31.203125 23.390625 
L 4.890625 23.390625 
z
" id="DejaVuSans-45"/>
     <path d="M 10.796875 72.90625 
L 49.515625 72.90625 
L 49.515625 64.59375 
L 19.828125 64.59375 
L 19.828125 46.734375 
Q 21.96875 47.46875 24.109375 47.828125 
Q 26.265625 48.1875 28.421875 48.1875 
Q 40.625 48.1875 47.75 41.5 
Q 54.890625 34.8125 54.890625 23.390625 
Q 54.890625 11.625 47.5625 5.09375 
Q 40.234375 -1.421875 26.90625 -1.421875 
Q 22.3125 -1.421875 17.546875 -0.640625 
Q 12.796875 0.140625 7.71875 1.703125 
L 7.71875 11.625 
Q 12.109375 9.234375 16.796875 8.0625 
Q 21.484375 6.890625 26.703125 6.890625 
Q 35.15625 6.890625 40.078125 11.328125 
Q 45.015625 15.765625 45.015625 23.390625 
Q 45.015625 31 40.078125 35.4375 
Q 35.15625 39.890625 26.703125 39.890625 
Q 22.75 39.890625 18.8125 39.015625 
Q 14.890625 38.140625 10.796875 36.28125 
z
" id="DejaVuSans-53"/>
     <path d="M 12.5 -9.28125 
L 15.921875 -9.28125 
Q 22.75 -9.28125 24.828125 -7.171875 
Q 26.90625 -5.078125 26.90625 1.90625 
L 26.90625 14.015625 
Q 26.90625 21.625 29.09375 25.09375 
Q 31.296875 28.5625 36.71875 29.890625 
Q 31.296875 31.109375 29.09375 34.5625 
Q 26.90625 38.03125 26.90625 45.703125 
L 26.90625 57.8125 
Q 26.90625 64.75 24.828125 66.875 
Q 22.75 69 15.921875 69 
L 12.5 69 
L 12.5 75.984375 
L 15.578125 75.984375 
Q 27.734375 75.984375 31.8125 72.390625 
Q 35.890625 68.796875 35.890625 58.015625 
L 35.890625 46.296875 
Q 35.890625 39.015625 38.515625 36.203125 
Q 41.15625 33.40625 48.09375 33.40625 
L 51.125 33.40625 
L 51.125 26.421875 
L 48.09375 26.421875 
Q 41.15625 26.421875 38.515625 23.578125 
Q 35.890625 20.75 35.890625 13.375 
L 35.890625 1.703125 
Q 35.890625 -9.078125 31.8125 -12.6875 
Q 27.734375 -16.3125 15.578125 -16.3125 
L 12.5 -16.3125 
z
" id="DejaVuSans-125"/>
     <path d="M 11.71875 12.40625 
L 22.015625 12.40625 
L 22.015625 4 
L 14.015625 -11.625 
L 7.71875 -11.625 
L 11.71875 4 
z
" id="DejaVuSans-44"/>
    </defs>
    <g transform="translate(195.0165 24.458955)scale(0.2 -0.2)">
     <use xlink:href="#DejaVuSans-123"/>
     <use x="63.623047" xlink:href="#DejaVuSans-102"/>
     <use x="98.828125" xlink:href="#DejaVuSans-49"/>
     <use x="162.451172" xlink:href="#DejaVuSans-45"/>
     <use x="198.535156" xlink:href="#DejaVuSans-102"/>
     <use x="233.740234" xlink:href="#DejaVuSans-53"/>
     <use x="297.363281" xlink:href="#DejaVuSans-125"/>
     <use x="360.986328" xlink:href="#DejaVuSans-44"/>
     <use x="392.773438" xlink:href="#DejaVuSans-32"/>
     <use x="424.560547" xlink:href="#DejaVuSans-50"/>
     <use x="488.183594" xlink:href="#DejaVuSans-48"/>
     <use x="551.806641" xlink:href="#DejaVuSans-45"/>
     <use x="587.890625" xlink:href="#DejaVuSans-68"/>
    </g>
   </g>
   <g id="text_11">
    <!-- absolute targets -->
    <defs>
     <path d="M 48.6875 27.296875 
Q 48.6875 37.203125 44.609375 42.84375 
Q 40.53125 48.484375 33.40625 48.484375 
Q 26.265625 48.484375 22.1875 42.84375 
Q 18.109375 37.203125 18.109375 27.296875 
Q 18.109375 17.390625 22.1875 11.75 
Q 26.265625 6.109375 33.40625 6.109375 
Q 40.53125 6.109375 44.609375 11.75 
Q 48.6875 17.390625 48.6875 27.296875 
z
M 18.109375 46.390625 
Q 20.953125 51.265625 25.265625 53.625 
Q 29.59375 56 35.59375 56 
Q 45.5625 56 51.78125 48.09375 
Q 58.015625 40.1875 58.015625 27.296875 
Q 58.015625 14.40625 51.78125 6.484375 
Q 45.5625 -1.421875 35.59375 -1.421875 
Q 29.59375 -1.421875 25.265625 0.953125 
Q 20.953125 3.328125 18.109375 8.203125 
L 18.109375 0 
L 9.078125 0 
L 9.078125 75.984375 
L 18.109375 75.984375 
z
" id="DejaVuSans-98"/>
     <path d="M 8.5 21.578125 
L 8.5 54.6875 
L 17.484375 54.6875 
L 17.484375 21.921875 
Q 17.484375 14.15625 20.5 10.265625 
Q 23.53125 6.390625 29.59375 6.390625 
Q 36.859375 6.390625 41.078125 11.03125 
Q 45.3125 15.671875 45.3125 23.6875 
L 45.3125 54.6875 
L 54.296875 54.6875 
L 54.296875 0 
L 45.3125 0 
L 45.3125 8.40625 
Q 42.046875 3.421875 37.71875 1 
Q 33.40625 -1.421875 27.6875 -1.421875 
Q 18.265625 -1.421875 13.375 4.4375 
Q 8.5 10.296875 8.5 21.578125 
z
M 31.109375 56 
z
" id="DejaVuSans-117"/>
     <path d="M 56.203125 29.59375 
L 56.203125 25.203125 
L 14.890625 25.203125 
Q 15.484375 15.921875 20.484375 11.0625 
Q 25.484375 6.203125 34.421875 6.203125 
Q 39.59375 6.203125 44.453125 7.46875 
Q 49.3125 8.734375 54.109375 11.28125 
L 54.109375 2.78125 
Q 49.265625 0.734375 44.1875 -0.34375 
Q 39.109375 -1.421875 33.890625 -1.421875 
Q 20.796875 -1.421875 13.15625 6.1875 
Q 5.515625 13.8125 5.515625 26.8125 
Q 5.515625 40.234375 12.765625 48.109375 
Q 20.015625 56 32.328125 56 
Q 43.359375 56 49.78125 48.890625 
Q 56.203125 41.796875 56.203125 29.59375 
z
M 47.21875 32.234375 
Q 47.125 39.59375 43.09375 43.984375 
Q 39.0625 48.390625 32.421875 48.390625 
Q 24.90625 48.390625 20.390625 44.140625 
Q 15.875 39.890625 15.1875 32.171875 
z
" id="DejaVuSans-101"/>
    </defs>
    <g transform="translate(62.208 307.365006)scale(0.14 -0.14)">
     <use xlink:href="#DejaVuSans-97"/>
     <use x="61.279297" xlink:href="#DejaVuSans-98"/>
     <use x="124.755859" xlink:href="#DejaVuSans-115"/>
     <use x="176.855469" xlink:href="#DejaVuSans-111"/>
     <use x="238.037109" xlink:href="#DejaVuSans-108"/>
     <use x="265.820312" xlink:href="#DejaVuSans-117"/>
     <use x="329.199219" xlink:href="#DejaVuSans-116"/>
     <use x="368.408203" xlink:href="#DejaVuSans-101"/>
     <use x="429.931641" xlink:href="#DejaVuSans-32"/>
     <use x="461.71875" xlink:href="#DejaVuSans-116"/>
     <use x="500.927734" xlink:href="#DejaVuSans-97"/>
     <use x="562.207031" xlink:href="#DejaVuSans-114"/>
     <use x="603.304688" xlink:href="#DejaVuSans-103"/>
     <use x="666.78125" xlink:href="#DejaVuSans-101"/>
     <use x="728.304688" xlink:href="#DejaVuSans-116"/>
     <use x="767.513672" xlink:href="#DejaVuSans-115"/>
    </g>
   </g>
   <g id="text_12">
    <!-- v2.4 -->
    <g style="fill:#808080;" transform="translate(250.593063 288.777272)scale(0.1 -0.1)">
     <use xlink:href="#DejaVuSans-118"/>
     <use x="59.179688" xlink:href="#DejaVuSans-50"/>
     <use x="122.802734" xlink:href="#DejaVuSans-46"/>
     <use x="154.589844" xlink:href="#DejaVuSans-52"/>
    </g>
   </g>
   <g id="legend_1">
    <g id="patch_7">
     <path d="M 76.208 136.881 
L 205.429875 136.881 
Q 209.429875 136.881 209.429875 132.881 
L 209.429875 17.456 
Q 209.429875 13.456 205.429875 13.456 
L 76.208 13.456 
Q 72.208 13.456 72.208 17.456 
L 72.208 132.881 
Q 72.208 136.881 76.208 136.881 
z
" style="fill:#ffffff;opacity:0.2;stroke:#cccccc;stroke-linejoin:miter;"/>
    </g>
    <g id="line2d_82">
     <path d="M 80.208 29.652875 
L 120.208 29.652875 
" style="fill:none;stroke:#000000;stroke-linecap:square;stroke-width:1.5;"/>
    </g>
    <g id="line2d_83"/>
    <g id="text_13">
     <!-- 1: 0/5 -->
     <defs>
      <path d="M 11.71875 12.40625 
L 22.015625 12.40625 
L 22.015625 0 
L 11.71875 0 
z
M 11.71875 51.703125 
L 22.015625 51.703125 
L 22.015625 39.3125 
L 11.71875 39.3125 
z
" id="DejaVuSans-58"/>
     </defs>
     <g transform="translate(136.208 36.652875)scale(0.2 -0.2)">
      <use xlink:href="#DejaVuSans-49"/>
      <use x="63.623047" xlink:href="#DejaVuSans-58"/>
      <use x="97.314453" xlink:href="#DejaVuSans-32"/>
      <use x="129.101562" xlink:href="#DejaVuSans-48"/>
      <use x="192.724609" xlink:href="#DejaVuSans-47"/>
      <use x="226.416016" xlink:href="#DejaVuSans-53"/>
     </g>
    </g>
    <g id="line2d_84">
     <path d="M 80.208 59.009125 
L 120.208 59.009125 
" style="fill:none;stroke:#00bfbf;stroke-linecap:square;stroke-width:1.5;"/>
    </g>
    <g id="line2d_85"/>
    <g id="text_14">
     <!-- -1: 0/5 -->
     <g transform="translate(136.208 66.009125)scale(0.2 -0.2)">
      <use xlink:href="#DejaVuSans-45"/>
      <use x="36.083984" xlink:href="#DejaVuSans-49"/>
      <use x="99.707031" xlink:href="#DejaVuSans-58"/>
      <use x="133.398438" xlink:href="#DejaVuSans-32"/>
      <use x="165.185547" xlink:href="#DejaVuSans-48"/>
      <use x="228.808594" xlink:href="#DejaVuSans-47"/>
      <use x="262.5" xlink:href="#DejaVuSans-53"/>
     </g>
    </g>
    <g id="line2d_86">
     <path d="M 80.208 88.365375 
L 120.208 88.365375 
" style="fill:none;stroke:#bf00bf;stroke-linecap:square;stroke-width:1.5;"/>
    </g>
    <g id="line2d_87"/>
    <g id="text_15">
     <!-- -4: 0/5 -->
     <g transform="translate(136.208 95.365375)scale(0.2 -0.2)">
      <use xlink:href="#DejaVuSans-45"/>
      <use x="36.083984" xlink:href="#DejaVuSans-52"/>
      <use x="99.707031" xlink:href="#DejaVuSans-58"/>
      <use x="133.398438" xlink:href="#DejaVuSans-32"/>
      <use x="165.185547" xlink:href="#DejaVuSans-48"/>
      <use x="228.808594" xlink:href="#DejaVuSans-47"/>
      <use x="262.5" xlink:href="#DejaVuSans-53"/>
     </g>
    </g>
    <g id="line2d_88">
     <path d="M 80.208 117.721625 
L 120.208 117.721625 
" style="fill:none;stroke:#ff0000;stroke-linecap:square;stroke-width:3;"/>
    </g>
    <g id="line2d_89"/>
    <g id="text_16">
     <!-- -8: 0/5 -->
     <g transform="translate(136.208 124.721625)scale(0.2 -0.2)">
      <use xlink:href="#DejaVuSans-45"/>
      <use x="36.083984" xlink:href="#DejaVuSans-56"/>
      <use x="99.707031" xlink:href="#DejaVuSans-58"/>
      <use x="133.398438" xlink:href="#DejaVuSans-32"/>
      <use x="165.185547" xlink:href="#DejaVuSans-48"/>
      <use x="228.808594" xlink:href="#DejaVuSans-47"/>
      <use x="262.5" xlink:href="#DejaVuSans-53"/>
     </g>
    </g>
   </g>
  </g>
 </g>
 <defs>
  <clipPath id="pbc375f1144">
   <rect height="290.304" width="398.592" x="62.208" y="3.456"/>
  </clipPath>
 </defs>
</svg>
