<?xml version="1.0" encoding="utf-8" standalone="no"?>
<!DOCTYPE svg PUBLIC "-//W3C//DTD SVG 1.1//EN"
  "http://www.w3.org/Graphics/SVG/1.1/DTD/svg11.dtd">
<!-- Created with matplotlib (https://matplotlib.org/) -->
<svg height="345.6pt" version="1.1" viewBox="0 0 460.8 345.6" width="460.8pt" xmlns="http://www.w3.org/2000/svg" xmlns:xlink="http://www.w3.org/1999/xlink">
 <defs>
  <style type="text/css">
*{stroke-linecap:butt;stroke-linejoin:round;}
  </style>
 </defs>
 <g id="figure_1">
  <g id="patch_1">
   <path d="M 0 345.6 
L 460.8 345.6 
L 460.8 0 
L 0 0 
z
" style="fill:#ffffff;"/>
  </g>
  <g id="axes_1">
   <g id="patch_2">
    <path d="M 57.6 298.944 
L 338.688 298.944 
L 338.688 3.456 
L 57.6 3.456 
z
" style="fill:#ffffff;"/>
   </g>
   <g id="matplotlib.axis_1">
    <g id="xtick_1">
     <g id="line2d_1">
      <path clip-path="url(#pd8219e7295)" d="M 57.6 298.944 
L 57.6 3.456 
" style="fill:none;stroke:#b0b0b0;stroke-linecap:square;stroke-width:0.8;"/>
     </g>
     <g id="line2d_2">
      <defs>
       <path d="M 0 0 
L 0 3.5 
" id="m7ed82d26fb" style="stroke:#000000;stroke-width:0.8;"/>
      </defs>
      <g>
       <use style="stroke:#000000;stroke-width:0.8;" x="57.6" xlink:href="#m7ed82d26fb" y="298.944"/>
      </g>
     </g>
     <g id="text_1">
      <!-- 0 -->
      <defs>
       <path d="M 31.78125 66.40625 
Q 24.171875 66.40625 20.328125 58.90625 
Q 16.5 51.421875 16.5 36.375 
Q 16.5 21.390625 20.328125 13.890625 
Q 24.171875 6.390625 31.78125 6.390625 
Q 39.453125 6.390625 43.28125 13.890625 
Q 47.125 21.390625 47.125 36.375 
Q 47.125 51.421875 43.28125 58.90625 
Q 39.453125 66.40625 31.78125 66.40625 
z
M 31.78125 74.21875 
Q 44.046875 74.21875 50.515625 64.515625 
Q 56.984375 54.828125 56.984375 36.375 
Q 56.984375 17.96875 50.515625 8.265625 
Q 44.046875 -1.421875 31.78125 -1.421875 
Q 19.53125 -1.421875 13.0625 8.265625 
Q 6.59375 17.96875 6.59375 36.375 
Q 6.59375 54.828125 13.0625 64.515625 
Q 19.53125 74.21875 31.78125 74.21875 
z
" id="DejaVuSans-48"/>
      </defs>
      <g transform="translate(51.2375 321.140875)scale(0.2 -0.2)">
       <use xlink:href="#DejaVuSans-48"/>
      </g>
     </g>
    </g>
    <g id="xtick_2">
     <g id="line2d_3">
      <path clip-path="url(#pd8219e7295)" d="M 137.910857 298.944 
L 137.910857 3.456 
" style="fill:none;stroke:#b0b0b0;stroke-linecap:square;stroke-width:0.8;"/>
     </g>
     <g id="line2d_4">
      <g>
       <use style="stroke:#000000;stroke-width:0.8;" x="137.910857" xlink:href="#m7ed82d26fb" y="298.944"/>
      </g>
     </g>
     <g id="text_2">
      <!-- 2 -->
      <defs>
       <path d="M 19.1875 8.296875 
L 53.609375 8.296875 
L 53.609375 0 
L 7.328125 0 
L 7.328125 8.296875 
Q 12.9375 14.109375 22.625 23.890625 
Q 32.328125 33.6875 34.8125 36.53125 
Q 39.546875 41.84375 41.421875 45.53125 
Q 43.3125 49.21875 43.3125 52.78125 
Q 43.3125 58.59375 39.234375 62.25 
Q 35.15625 65.921875 28.609375 65.921875 
Q 23.96875 65.921875 18.8125 64.3125 
Q 13.671875 62.703125 7.8125 59.421875 
L 7.8125 69.390625 
Q 13.765625 71.78125 18.9375 73 
Q 24.125 74.21875 28.421875 74.21875 
Q 39.75 74.21875 46.484375 68.546875 
Q 53.21875 62.890625 53.21875 53.421875 
Q 53.21875 48.921875 51.53125 44.890625 
Q 49.859375 40.875 45.40625 35.40625 
Q 44.1875 33.984375 37.640625 27.21875 
Q 31.109375 20.453125 19.1875 8.296875 
z
" id="DejaVuSans-50"/>
      </defs>
      <g transform="translate(131.548357 321.140875)scale(0.2 -0.2)">
       <use xlink:href="#DejaVuSans-50"/>
      </g>
     </g>
    </g>
    <g id="xtick_3">
     <g id="line2d_5">
      <path clip-path="url(#pd8219e7295)" d="M 218.221714 298.944 
L 218.221714 3.456 
" style="fill:none;stroke:#b0b0b0;stroke-linecap:square;stroke-width:0.8;"/>
     </g>
     <g id="line2d_6">
      <g>
       <use style="stroke:#000000;stroke-width:0.8;" x="218.221714" xlink:href="#m7ed82d26fb" y="298.944"/>
      </g>
     </g>
     <g id="text_3">
      <!-- 4 -->
      <defs>
       <path d="M 37.796875 64.3125 
L 12.890625 25.390625 
L 37.796875 25.390625 
z
M 35.203125 72.90625 
L 47.609375 72.90625 
L 47.609375 25.390625 
L 58.015625 25.390625 
L 58.015625 17.1875 
L 47.609375 17.1875 
L 47.609375 0 
L 37.796875 0 
L 37.796875 17.1875 
L 4.890625 17.1875 
L 4.890625 26.703125 
z
" id="DejaVuSans-52"/>
      </defs>
      <g transform="translate(211.859214 321.140875)scale(0.2 -0.2)">
       <use xlink:href="#DejaVuSans-52"/>
      </g>
     </g>
    </g>
    <g id="xtick_4">
     <g id="line2d_7">
      <path clip-path="url(#pd8219e7295)" d="M 298.532571 298.944 
L 298.532571 3.456 
" style="fill:none;stroke:#b0b0b0;stroke-linecap:square;stroke-width:0.8;"/>
     </g>
     <g id="line2d_8">
      <g>
       <use style="stroke:#000000;stroke-width:0.8;" x="298.532571" xlink:href="#m7ed82d26fb" y="298.944"/>
      </g>
     </g>
     <g id="text_4">
      <!-- 6 -->
      <defs>
       <path d="M 33.015625 40.375 
Q 26.375 40.375 22.484375 35.828125 
Q 18.609375 31.296875 18.609375 23.390625 
Q 18.609375 15.53125 22.484375 10.953125 
Q 26.375 6.390625 33.015625 6.390625 
Q 39.65625 6.390625 43.53125 10.953125 
Q 47.40625 15.53125 47.40625 23.390625 
Q 47.40625 31.296875 43.53125 35.828125 
Q 39.65625 40.375 33.015625 40.375 
z
M 52.59375 71.296875 
L 52.59375 62.3125 
Q 48.875 64.0625 45.09375 64.984375 
Q 41.3125 65.921875 37.59375 65.921875 
Q 27.828125 65.921875 22.671875 59.328125 
Q 17.53125 52.734375 16.796875 39.40625 
Q 19.671875 43.65625 24.015625 45.921875 
Q 28.375 48.1875 33.59375 48.1875 
Q 44.578125 48.1875 50.953125 41.515625 
Q 57.328125 34.859375 57.328125 23.390625 
Q 57.328125 12.15625 50.6875 5.359375 
Q 44.046875 -1.421875 33.015625 -1.421875 
Q 20.359375 -1.421875 13.671875 8.265625 
Q 6.984375 17.96875 6.984375 36.375 
Q 6.984375 53.65625 15.1875 63.9375 
Q 23.390625 74.21875 37.203125 74.21875 
Q 40.921875 74.21875 44.703125 73.484375 
Q 48.484375 72.75 52.59375 71.296875 
z
" id="DejaVuSans-54"/>
      </defs>
      <g transform="translate(292.170071 321.140875)scale(0.2 -0.2)">
       <use xlink:href="#DejaVuSans-54"/>
      </g>
     </g>
    </g>
    <g id="xtick_5">
     <g id="line2d_9">
      <path clip-path="url(#pd8219e7295)" d="M 97.755429 298.944 
L 97.755429 3.456 
" style="fill:none;stroke:#b0b0b0;stroke-linecap:square;stroke-width:0.8;"/>
     </g>
     <g id="line2d_10">
      <defs>
       <path d="M 0 0 
L 0 2 
" id="m21b6a20be4" style="stroke:#000000;stroke-width:0.6;"/>
      </defs>
      <g>
       <use style="stroke:#000000;stroke-width:0.6;" x="97.755429" xlink:href="#m21b6a20be4" y="298.944"/>
      </g>
     </g>
    </g>
    <g id="xtick_6">
     <g id="line2d_11">
      <path clip-path="url(#pd8219e7295)" d="M 178.066286 298.944 
L 178.066286 3.456 
" style="fill:none;stroke:#b0b0b0;stroke-linecap:square;stroke-width:0.8;"/>
     </g>
     <g id="line2d_12">
      <g>
       <use style="stroke:#000000;stroke-width:0.6;" x="178.066286" xlink:href="#m21b6a20be4" y="298.944"/>
      </g>
     </g>
    </g>
    <g id="xtick_7">
     <g id="line2d_13">
      <path clip-path="url(#pd8219e7295)" d="M 258.377143 298.944 
L 258.377143 3.456 
" style="fill:none;stroke:#b0b0b0;stroke-linecap:square;stroke-width:0.8;"/>
     </g>
     <g id="line2d_14">
      <g>
       <use style="stroke:#000000;stroke-width:0.6;" x="258.377143" xlink:href="#m21b6a20be4" y="298.944"/>
      </g>
     </g>
    </g>
    <g id="xtick_8">
     <g id="line2d_15">
      <path clip-path="url(#pd8219e7295)" d="M 338.688 298.944 
L 338.688 3.456 
" style="fill:none;stroke:#b0b0b0;stroke-linecap:square;stroke-width:0.8;"/>
     </g>
     <g id="line2d_16">
      <g>
       <use style="stroke:#000000;stroke-width:0.6;" x="338.688" xlink:href="#m21b6a20be4" y="298.944"/>
      </g>
     </g>
    </g>
    <g id="text_5">
     <!-- log10(# f-evals / dimension) -->
     <defs>
      <path d="M 9.421875 75.984375 
L 18.40625 75.984375 
L 18.40625 0 
L 9.421875 0 
z
" id="DejaVuSans-108"/>
      <path d="M 30.609375 48.390625 
Q 23.390625 48.390625 19.1875 42.75 
Q 14.984375 37.109375 14.984375 27.296875 
Q 14.984375 17.484375 19.15625 11.84375 
Q 23.34375 6.203125 30.609375 6.203125 
Q 37.796875 6.203125 41.984375 11.859375 
Q 46.1875 17.53125 46.1875 27.296875 
Q 46.1875 37.015625 41.984375 42.703125 
Q 37.796875 48.390625 30.609375 48.390625 
z
M 30.609375 56 
Q 42.328125 56 49.015625 48.375 
Q 55.71875 40.765625 55.71875 27.296875 
Q 55.71875 13.875 49.015625 6.21875 
Q 42.328125 -1.421875 30.609375 -1.421875 
Q 18.84375 -1.421875 12.171875 6.21875 
Q 5.515625 13.875 5.515625 27.296875 
Q 5.515625 40.765625 12.171875 48.375 
Q 18.84375 56 30.609375 56 
z
" id="DejaVuSans-111"/>
      <path d="M 45.40625 27.984375 
Q 45.40625 37.75 41.375 43.109375 
Q 37.359375 48.484375 30.078125 48.484375 
Q 22.859375 48.484375 18.828125 43.109375 
Q 14.796875 37.75 14.796875 27.984375 
Q 14.796875 18.265625 18.828125 12.890625 
Q 22.859375 7.515625 30.078125 7.515625 
Q 37.359375 7.515625 41.375 12.890625 
Q 45.40625 18.265625 45.40625 27.984375 
z
M 54.390625 6.78125 
Q 54.390625 -7.171875 48.1875 -13.984375 
Q 42 -20.796875 29.203125 -20.796875 
Q 24.46875 -20.796875 20.265625 -20.09375 
Q 16.0625 -19.390625 12.109375 -17.921875 
L 12.109375 -9.1875 
Q 16.0625 -11.328125 19.921875 -12.34375 
Q 23.78125 -13.375 27.78125 -13.375 
Q 36.625 -13.375 41.015625 -8.765625 
Q 45.40625 -4.15625 45.40625 5.171875 
L 45.40625 9.625 
Q 42.625 4.78125 38.28125 2.390625 
Q 33.9375 0 27.875 0 
Q 17.828125 0 11.671875 7.65625 
Q 5.515625 15.328125 5.515625 27.984375 
Q 5.515625 40.671875 11.671875 48.328125 
Q 17.828125 56 27.875 56 
Q 33.9375 56 38.28125 53.609375 
Q 42.625 51.21875 45.40625 46.390625 
L 45.40625 54.6875 
L 54.390625 54.6875 
z
" id="DejaVuSans-103"/>
      <path d="M 12.40625 8.296875 
L 28.515625 8.296875 
L 28.515625 63.921875 
L 10.984375 60.40625 
L 10.984375 69.390625 
L 28.421875 72.90625 
L 38.28125 72.90625 
L 38.28125 8.296875 
L 54.390625 8.296875 
L 54.390625 0 
L 12.40625 0 
z
" id="DejaVuSans-49"/>
      <path d="M 31 75.875 
Q 24.46875 64.65625 21.28125 53.65625 
Q 18.109375 42.671875 18.109375 31.390625 
Q 18.109375 20.125 21.3125 9.0625 
Q 24.515625 -2 31 -13.1875 
L 23.1875 -13.1875 
Q 15.875 -1.703125 12.234375 9.375 
Q 8.59375 20.453125 8.59375 31.390625 
Q 8.59375 42.28125 12.203125 53.3125 
Q 15.828125 64.359375 23.1875 75.875 
z
" id="DejaVuSans-40"/>
      <path d="M 51.125 44 
L 36.921875 44 
L 32.8125 27.6875 
L 47.125 27.6875 
z
M 43.796875 71.78125 
L 38.71875 51.515625 
L 52.984375 51.515625 
L 58.109375 71.78125 
L 65.921875 71.78125 
L 60.890625 51.515625 
L 76.125 51.515625 
L 76.125 44 
L 58.984375 44 
L 54.984375 27.6875 
L 70.515625 27.6875 
L 70.515625 20.21875 
L 53.078125 20.21875 
L 48 0 
L 40.1875 0 
L 45.21875 20.21875 
L 30.90625 20.21875 
L 25.875 0 
L 18.015625 0 
L 23.09375 20.21875 
L 7.71875 20.21875 
L 7.71875 27.6875 
L 24.90625 27.6875 
L 29 44 
L 13.28125 44 
L 13.28125 51.515625 
L 30.90625 51.515625 
L 35.890625 71.78125 
z
" id="DejaVuSans-35"/>
      <path id="DejaVuSans-32"/>
      <path d="M 37.109375 75.984375 
L 37.109375 68.5 
L 28.515625 68.5 
Q 23.6875 68.5 21.796875 66.546875 
Q 19.921875 64.59375 19.921875 59.515625 
L 19.921875 54.6875 
L 34.71875 54.6875 
L 34.71875 47.703125 
L 19.921875 47.703125 
L 19.921875 0 
L 10.890625 0 
L 10.890625 47.703125 
L 2.296875 47.703125 
L 2.296875 54.6875 
L 10.890625 54.6875 
L 10.890625 58.5 
Q 10.890625 67.625 15.140625 71.796875 
Q 19.390625 75.984375 28.609375 75.984375 
z
" id="DejaVuSans-102"/>
      <path d="M 4.890625 31.390625 
L 31.203125 31.390625 
L 31.203125 23.390625 
L 4.890625 23.390625 
z
" id="DejaVuSans-45"/>
      <path d="M 56.203125 29.59375 
L 56.203125 25.203125 
L 14.890625 25.203125 
Q 15.484375 15.921875 20.484375 11.0625 
Q 25.484375 6.203125 34.421875 6.203125 
Q 39.59375 6.203125 44.453125 7.46875 
Q 49.3125 8.734375 54.109375 11.28125 
L 54.109375 2.78125 
Q 49.265625 0.734375 44.1875 -0.34375 
Q 39.109375 -1.421875 33.890625 -1.421875 
Q 20.796875 -1.421875 13.15625 6.1875 
Q 5.515625 13.8125 5.515625 26.8125 
Q 5.515625 40.234375 12.765625 48.109375 
Q 20.015625 56 32.328125 56 
Q 43.359375 56 49.78125 48.890625 
Q 56.203125 41.796875 56.203125 29.59375 
z
M 47.21875 32.234375 
Q 47.125 39.59375 43.09375 43.984375 
Q 39.0625 48.390625 32.421875 48.390625 
Q 24.90625 48.390625 20.390625 44.140625 
Q 15.875 39.890625 15.1875 32.171875 
z
" id="DejaVuSans-101"/>
      <path d="M 2.984375 54.6875 
L 12.5 54.6875 
L 29.59375 8.796875 
L 46.6875 54.6875 
L 56.203125 54.6875 
L 35.6875 0 
L 23.484375 0 
z
" id="DejaVuSans-118"/>
      <path d="M 34.28125 27.484375 
Q 23.390625 27.484375 19.1875 25 
Q 14.984375 22.515625 14.984375 16.5 
Q 14.984375 11.71875 18.140625 8.90625 
Q 21.296875 6.109375 26.703125 6.109375 
Q 34.1875 6.109375 38.703125 11.40625 
Q 43.21875 16.703125 43.21875 25.484375 
L 43.21875 27.484375 
z
M 52.203125 31.203125 
L 52.203125 0 
L 43.21875 0 
L 43.21875 8.296875 
Q 40.140625 3.328125 35.546875 0.953125 
Q 30.953125 -1.421875 24.3125 -1.421875 
Q 15.921875 -1.421875 10.953125 3.296875 
Q 6 8.015625 6 15.921875 
Q 6 25.140625 12.171875 29.828125 
Q 18.359375 34.515625 30.609375 34.515625 
L 43.21875 34.515625 
L 43.21875 35.40625 
Q 43.21875 41.609375 39.140625 45 
Q 35.0625 48.390625 27.6875 48.390625 
Q 23 48.390625 18.546875 47.265625 
Q 14.109375 46.140625 10.015625 43.890625 
L 10.015625 52.203125 
Q 14.9375 54.109375 19.578125 55.046875 
Q 24.21875 56 28.609375 56 
Q 40.484375 56 46.34375 49.84375 
Q 52.203125 43.703125 52.203125 31.203125 
z
" id="DejaVuSans-97"/>
      <path d="M 44.28125 53.078125 
L 44.28125 44.578125 
Q 40.484375 46.53125 36.375 47.5 
Q 32.28125 48.484375 27.875 48.484375 
Q 21.1875 48.484375 17.84375 46.4375 
Q 14.5 44.390625 14.5 40.28125 
Q 14.5 37.15625 16.890625 35.375 
Q 19.28125 33.59375 26.515625 31.984375 
L 29.59375 31.296875 
Q 39.15625 29.25 43.1875 25.515625 
Q 47.21875 21.78125 47.21875 15.09375 
Q 47.21875 7.46875 41.1875 3.015625 
Q 35.15625 -1.421875 24.609375 -1.421875 
Q 20.21875 -1.421875 15.453125 -0.5625 
Q 10.6875 0.296875 5.421875 2 
L 5.421875 11.28125 
Q 10.40625 8.6875 15.234375 7.390625 
Q 20.0625 6.109375 24.8125 6.109375 
Q 31.15625 6.109375 34.5625 8.28125 
Q 37.984375 10.453125 37.984375 14.40625 
Q 37.984375 18.0625 35.515625 20.015625 
Q 33.0625 21.96875 24.703125 23.78125 
L 21.578125 24.515625 
Q 13.234375 26.265625 9.515625 29.90625 
Q 5.8125 33.546875 5.8125 39.890625 
Q 5.8125 47.609375 11.28125 51.796875 
Q 16.75 56 26.8125 56 
Q 31.78125 56 36.171875 55.265625 
Q 40.578125 54.546875 44.28125 53.078125 
z
" id="DejaVuSans-115"/>
      <path d="M 25.390625 72.90625 
L 33.6875 72.90625 
L 8.296875 -9.28125 
L 0 -9.28125 
z
" id="DejaVuSans-47"/>
      <path d="M 45.40625 46.390625 
L 45.40625 75.984375 
L 54.390625 75.984375 
L 54.390625 0 
L 45.40625 0 
L 45.40625 8.203125 
Q 42.578125 3.328125 38.25 0.953125 
Q 33.9375 -1.421875 27.875 -1.421875 
Q 17.96875 -1.421875 11.734375 6.484375 
Q 5.515625 14.40625 5.515625 27.296875 
Q 5.515625 40.1875 11.734375 48.09375 
Q 17.96875 56 27.875 56 
Q 33.9375 56 38.25 53.625 
Q 42.578125 51.265625 45.40625 46.390625 
z
M 14.796875 27.296875 
Q 14.796875 17.390625 18.875 11.75 
Q 22.953125 6.109375 30.078125 6.109375 
Q 37.203125 6.109375 41.296875 11.75 
Q 45.40625 17.390625 45.40625 27.296875 
Q 45.40625 37.203125 41.296875 42.84375 
Q 37.203125 48.484375 30.078125 48.484375 
Q 22.953125 48.484375 18.875 42.84375 
Q 14.796875 37.203125 14.796875 27.296875 
z
" id="DejaVuSans-100"/>
      <path d="M 9.421875 54.6875 
L 18.40625 54.6875 
L 18.40625 0 
L 9.421875 0 
z
M 9.421875 75.984375 
L 18.40625 75.984375 
L 18.40625 64.59375 
L 9.421875 64.59375 
z
" id="DejaVuSans-105"/>
      <path d="M 52 44.1875 
Q 55.375 50.25 60.0625 53.125 
Q 64.75 56 71.09375 56 
Q 79.640625 56 84.28125 50.015625 
Q 88.921875 44.046875 88.921875 33.015625 
L 88.921875 0 
L 79.890625 0 
L 79.890625 32.71875 
Q 79.890625 40.578125 77.09375 44.375 
Q 74.3125 48.1875 68.609375 48.1875 
Q 61.625 48.1875 57.5625 43.546875 
Q 53.515625 38.921875 53.515625 30.90625 
L 53.515625 0 
L 44.484375 0 
L 44.484375 32.71875 
Q 44.484375 40.625 41.703125 44.40625 
Q 38.921875 48.1875 33.109375 48.1875 
Q 26.21875 48.1875 22.15625 43.53125 
Q 18.109375 38.875 18.109375 30.90625 
L 18.109375 0 
L 9.078125 0 
L 9.078125 54.6875 
L 18.109375 54.6875 
L 18.109375 46.1875 
Q 21.1875 51.21875 25.484375 53.609375 
Q 29.78125 56 35.6875 56 
Q 41.65625 56 45.828125 52.96875 
Q 50 49.953125 52 44.1875 
z
" id="DejaVuSans-109"/>
      <path d="M 54.890625 33.015625 
L 54.890625 0 
L 45.90625 0 
L 45.90625 32.71875 
Q 45.90625 40.484375 42.875 44.328125 
Q 39.84375 48.1875 33.796875 48.1875 
Q 26.515625 48.1875 22.3125 43.546875 
Q 18.109375 38.921875 18.109375 30.90625 
L 18.109375 0 
L 9.078125 0 
L 9.078125 54.6875 
L 18.109375 54.6875 
L 18.109375 46.1875 
Q 21.34375 51.125 25.703125 53.5625 
Q 30.078125 56 35.796875 56 
Q 45.21875 56 50.046875 50.171875 
Q 54.890625 44.34375 54.890625 33.015625 
z
" id="DejaVuSans-110"/>
      <path d="M 8.015625 75.875 
L 15.828125 75.875 
Q 23.140625 64.359375 26.78125 53.3125 
Q 30.421875 42.28125 30.421875 31.390625 
Q 30.421875 20.453125 26.78125 9.375 
Q 23.140625 -1.703125 15.828125 -13.1875 
L 8.015625 -13.1875 
Q 14.5 -2 17.703125 9.0625 
Q 20.90625 20.125 20.90625 31.390625 
Q 20.90625 42.671875 17.703125 53.65625 
Q 14.5 64.65625 8.015625 75.875 
z
" id="DejaVuSans-41"/>
     </defs>
     <g transform="translate(77.303219 342.217594)scale(0.17 -0.17)">
      <use xlink:href="#DejaVuSans-108"/>
      <use x="27.783203" xlink:href="#DejaVuSans-111"/>
      <use x="88.964844" xlink:href="#DejaVuSans-103"/>
      <use x="152.441406" xlink:href="#DejaVuSans-49"/>
      <use x="216.064453" xlink:href="#DejaVuSans-48"/>
      <use x="279.6875" xlink:href="#DejaVuSans-40"/>
      <use x="318.701172" xlink:href="#DejaVuSans-35"/>
      <use x="402.490234" xlink:href="#DejaVuSans-32"/>
      <use x="434.277344" xlink:href="#DejaVuSans-102"/>
      <use x="469.404297" xlink:href="#DejaVuSans-45"/>
      <use x="505.488281" xlink:href="#DejaVuSans-101"/>
      <use x="567.011719" xlink:href="#DejaVuSans-118"/>
      <use x="626.191406" xlink:href="#DejaVuSans-97"/>
      <use x="687.470703" xlink:href="#DejaVuSans-108"/>
      <use x="715.253906" xlink:href="#DejaVuSans-115"/>
      <use x="767.353516" xlink:href="#DejaVuSans-32"/>
      <use x="799.140625" xlink:href="#DejaVuSans-47"/>
      <use x="832.832031" xlink:href="#DejaVuSans-32"/>
      <use x="864.619141" xlink:href="#DejaVuSans-100"/>
      <use x="928.095703" xlink:href="#DejaVuSans-105"/>
      <use x="955.878906" xlink:href="#DejaVuSans-109"/>
      <use x="1053.291016" xlink:href="#DejaVuSans-101"/>
      <use x="1114.814453" xlink:href="#DejaVuSans-110"/>
      <use x="1178.193359" xlink:href="#DejaVuSans-115"/>
      <use x="1230.292969" xlink:href="#DejaVuSans-105"/>
      <use x="1258.076172" xlink:href="#DejaVuSans-111"/>
      <use x="1319.257812" xlink:href="#DejaVuSans-110"/>
      <use x="1382.636719" xlink:href="#DejaVuSans-41"/>
     </g>
    </g>
   </g>
   <g id="matplotlib.axis_2">
    <g id="ytick_1">
     <g id="line2d_17">
      <path clip-path="url(#pd8219e7295)" d="M 57.6 298.944 
L 338.688 298.944 
" style="fill:none;stroke:#b0b0b0;stroke-linecap:square;stroke-width:0.8;"/>
     </g>
     <g id="line2d_18">
      <defs>
       <path d="M 0 0 
L -3.5 0 
" id="mb44011ea71" style="stroke:#000000;stroke-width:0.8;"/>
      </defs>
      <g>
       <use style="stroke:#000000;stroke-width:0.8;" x="57.6" xlink:href="#mb44011ea71" y="298.944"/>
      </g>
     </g>
     <g id="text_6">
      <!-- 0.0 -->
      <defs>
       <path d="M 10.6875 12.40625 
L 21 12.40625 
L 21 0 
L 10.6875 0 
z
" id="DejaVuSans-46"/>
      </defs>
      <g transform="translate(25.155 305.02275)scale(0.16 -0.16)">
       <use xlink:href="#DejaVuSans-48"/>
       <use x="63.623047" xlink:href="#DejaVuSans-46"/>
       <use x="95.410156" xlink:href="#DejaVuSans-48"/>
      </g>
     </g>
    </g>
    <g id="ytick_2">
     <g id="line2d_19">
      <path clip-path="url(#pd8219e7295)" d="M 57.6 240.431525 
L 338.688 240.431525 
" style="fill:none;stroke:#b0b0b0;stroke-linecap:square;stroke-width:0.8;"/>
     </g>
     <g id="line2d_20">
      <g>
       <use style="stroke:#000000;stroke-width:0.8;" x="57.6" xlink:href="#mb44011ea71" y="240.431525"/>
      </g>
     </g>
     <g id="text_7">
      <!-- 0.2 -->
      <g transform="translate(25.155 246.510275)scale(0.16 -0.16)">
       <use xlink:href="#DejaVuSans-48"/>
       <use x="63.623047" xlink:href="#DejaVuSans-46"/>
       <use x="95.410156" xlink:href="#DejaVuSans-50"/>
      </g>
     </g>
    </g>
    <g id="ytick_3">
     <g id="line2d_21">
      <path clip-path="url(#pd8219e7295)" d="M 57.6 181.91905 
L 338.688 181.91905 
" style="fill:none;stroke:#b0b0b0;stroke-linecap:square;stroke-width:0.8;"/>
     </g>
     <g id="line2d_22">
      <g>
       <use style="stroke:#000000;stroke-width:0.8;" x="57.6" xlink:href="#mb44011ea71" y="181.91905"/>
      </g>
     </g>
     <g id="text_8">
      <!-- 0.4 -->
      <g transform="translate(25.155 187.9978)scale(0.16 -0.16)">
       <use xlink:href="#DejaVuSans-48"/>
       <use x="63.623047" xlink:href="#DejaVuSans-46"/>
       <use x="95.410156" xlink:href="#DejaVuSans-52"/>
      </g>
     </g>
    </g>
    <g id="ytick_4">
     <g id="line2d_23">
      <path clip-path="url(#pd8219e7295)" d="M 57.6 123.406574 
L 338.688 123.406574 
" style="fill:none;stroke:#b0b0b0;stroke-linecap:square;stroke-width:0.8;"/>
     </g>
     <g id="line2d_24">
      <g>
       <use style="stroke:#000000;stroke-width:0.8;" x="57.6" xlink:href="#mb44011ea71" y="123.406574"/>
      </g>
     </g>
     <g id="text_9">
      <!-- 0.6 -->
      <g transform="translate(25.155 129.485324)scale(0.16 -0.16)">
       <use xlink:href="#DejaVuSans-48"/>
       <use x="63.623047" xlink:href="#DejaVuSans-46"/>
       <use x="95.410156" xlink:href="#DejaVuSans-54"/>
      </g>
     </g>
    </g>
    <g id="ytick_5">
     <g id="line2d_25">
      <path clip-path="url(#pd8219e7295)" d="M 57.6 64.894099 
L 338.688 64.894099 
" style="fill:none;stroke:#b0b0b0;stroke-linecap:square;stroke-width:0.8;"/>
     </g>
     <g id="line2d_26">
      <g>
       <use style="stroke:#000000;stroke-width:0.8;" x="57.6" xlink:href="#mb44011ea71" y="64.894099"/>
      </g>
     </g>
     <g id="text_10">
      <!-- 0.8 -->
      <defs>
       <path d="M 31.78125 34.625 
Q 24.75 34.625 20.71875 30.859375 
Q 16.703125 27.09375 16.703125 20.515625 
Q 16.703125 13.921875 20.71875 10.15625 
Q 24.75 6.390625 31.78125 6.390625 
Q 38.8125 6.390625 42.859375 10.171875 
Q 46.921875 13.96875 46.921875 20.515625 
Q 46.921875 27.09375 42.890625 30.859375 
Q 38.875 34.625 31.78125 34.625 
z
M 21.921875 38.8125 
Q 15.578125 40.375 12.03125 44.71875 
Q 8.5 49.078125 8.5 55.328125 
Q 8.5 64.0625 14.71875 69.140625 
Q 20.953125 74.21875 31.78125 74.21875 
Q 42.671875 74.21875 48.875 69.140625 
Q 55.078125 64.0625 55.078125 55.328125 
Q 55.078125 49.078125 51.53125 44.71875 
Q 48 40.375 41.703125 38.8125 
Q 48.828125 37.15625 52.796875 32.3125 
Q 56.78125 27.484375 56.78125 20.515625 
Q 56.78125 9.90625 50.3125 4.234375 
Q 43.84375 -1.421875 31.78125 -1.421875 
Q 19.734375 -1.421875 13.25 4.234375 
Q 6.78125 9.90625 6.78125 20.515625 
Q 6.78125 27.484375 10.78125 32.3125 
Q 14.796875 37.15625 21.921875 38.8125 
z
M 18.3125 54.390625 
Q 18.3125 48.734375 21.84375 45.5625 
Q 25.390625 42.390625 31.78125 42.390625 
Q 38.140625 42.390625 41.71875 45.5625 
Q 45.3125 48.734375 45.3125 54.390625 
Q 45.3125 60.0625 41.71875 63.234375 
Q 38.140625 66.40625 31.78125 66.40625 
Q 25.390625 66.40625 21.84375 63.234375 
Q 18.3125 60.0625 18.3125 54.390625 
z
" id="DejaVuSans-56"/>
      </defs>
      <g transform="translate(25.155 70.972849)scale(0.16 -0.16)">
       <use xlink:href="#DejaVuSans-48"/>
       <use x="63.623047" xlink:href="#DejaVuSans-46"/>
       <use x="95.410156" xlink:href="#DejaVuSans-56"/>
      </g>
     </g>
    </g>
    <g id="ytick_6">
     <g id="line2d_27">
      <path clip-path="url(#pd8219e7295)" d="M 57.6 6.381624 
L 338.688 6.381624 
" style="fill:none;stroke:#b0b0b0;stroke-linecap:square;stroke-width:0.8;"/>
     </g>
     <g id="line2d_28">
      <g>
       <use style="stroke:#000000;stroke-width:0.8;" x="57.6" xlink:href="#mb44011ea71" y="6.381624"/>
      </g>
     </g>
     <g id="text_11">
      <!-- 1.0 -->
      <g transform="translate(25.155 12.460374)scale(0.16 -0.16)">
       <use xlink:href="#DejaVuSans-49"/>
       <use x="63.623047" xlink:href="#DejaVuSans-46"/>
       <use x="95.410156" xlink:href="#DejaVuSans-48"/>
      </g>
     </g>
    </g>
    <g id="text_12">
     <!-- Fraction of function,target pairs -->
     <defs>
      <path d="M 9.8125 72.90625 
L 51.703125 72.90625 
L 51.703125 64.59375 
L 19.671875 64.59375 
L 19.671875 43.109375 
L 48.578125 43.109375 
L 48.578125 34.8125 
L 19.671875 34.8125 
L 19.671875 0 
L 9.8125 0 
z
" id="DejaVuSans-70"/>
      <path d="M 41.109375 46.296875 
Q 39.59375 47.171875 37.8125 47.578125 
Q 36.03125 48 33.890625 48 
Q 26.265625 48 22.1875 43.046875 
Q 18.109375 38.09375 18.109375 28.8125 
L 18.109375 0 
L 9.078125 0 
L 9.078125 54.6875 
L 18.109375 54.6875 
L 18.109375 46.1875 
Q 20.953125 51.171875 25.484375 53.578125 
Q 30.03125 56 36.53125 56 
Q 37.453125 56 38.578125 55.875 
Q 39.703125 55.765625 41.0625 55.515625 
z
" id="DejaVuSans-114"/>
      <path d="M 48.78125 52.59375 
L 48.78125 44.1875 
Q 44.96875 46.296875 41.140625 47.34375 
Q 37.3125 48.390625 33.40625 48.390625 
Q 24.65625 48.390625 19.8125 42.84375 
Q 14.984375 37.3125 14.984375 27.296875 
Q 14.984375 17.28125 19.8125 11.734375 
Q 24.65625 6.203125 33.40625 6.203125 
Q 37.3125 6.203125 41.140625 7.25 
Q 44.96875 8.296875 48.78125 10.40625 
L 48.78125 2.09375 
Q 45.015625 0.34375 40.984375 -0.53125 
Q 36.96875 -1.421875 32.421875 -1.421875 
Q 20.0625 -1.421875 12.78125 6.34375 
Q 5.515625 14.109375 5.515625 27.296875 
Q 5.515625 40.671875 12.859375 48.328125 
Q 20.21875 56 33.015625 56 
Q 37.15625 56 41.109375 55.140625 
Q 45.0625 54.296875 48.78125 52.59375 
z
" id="DejaVuSans-99"/>
      <path d="M 18.3125 70.21875 
L 18.3125 54.6875 
L 36.8125 54.6875 
L 36.8125 47.703125 
L 18.3125 47.703125 
L 18.3125 18.015625 
Q 18.3125 11.328125 20.140625 9.421875 
Q 21.96875 7.515625 27.59375 7.515625 
L 36.8125 7.515625 
L 36.8125 0 
L 27.59375 0 
Q 17.1875 0 13.234375 3.875 
Q 9.28125 7.765625 9.28125 18.015625 
L 9.28125 47.703125 
L 2.6875 47.703125 
L 2.6875 54.6875 
L 9.28125 54.6875 
L 9.28125 70.21875 
z
" id="DejaVuSans-116"/>
      <path d="M 8.5 21.578125 
L 8.5 54.6875 
L 17.484375 54.6875 
L 17.484375 21.921875 
Q 17.484375 14.15625 20.5 10.265625 
Q 23.53125 6.390625 29.59375 6.390625 
Q 36.859375 6.390625 41.078125 11.03125 
Q 45.3125 15.671875 45.3125 23.6875 
L 45.3125 54.6875 
L 54.296875 54.6875 
L 54.296875 0 
L 45.3125 0 
L 45.3125 8.40625 
Q 42.046875 3.421875 37.71875 1 
Q 33.40625 -1.421875 27.6875 -1.421875 
Q 18.265625 -1.421875 13.375 4.4375 
Q 8.5 10.296875 8.5 21.578125 
z
M 31.109375 56 
z
" id="DejaVuSans-117"/>
      <path d="M 11.71875 12.40625 
L 22.015625 12.40625 
L 22.015625 4 
L 14.015625 -11.625 
L 7.71875 -11.625 
L 11.71875 4 
z
" id="DejaVuSans-44"/>
      <path d="M 18.109375 8.203125 
L 18.109375 -20.796875 
L 9.078125 -20.796875 
L 9.078125 54.6875 
L 18.109375 54.6875 
L 18.109375 46.390625 
Q 20.953125 51.265625 25.265625 53.625 
Q 29.59375 56 35.59375 56 
Q 45.5625 56 51.78125 48.09375 
Q 58.015625 40.1875 58.015625 27.296875 
Q 58.015625 14.40625 51.78125 6.484375 
Q 45.5625 -1.421875 35.59375 -1.421875 
Q 29.59375 -1.421875 25.265625 0.953125 
Q 20.953125 3.328125 18.109375 8.203125 
z
M 48.6875 27.296875 
Q 48.6875 37.203125 44.609375 42.84375 
Q 40.53125 48.484375 33.40625 48.484375 
Q 26.265625 48.484375 22.1875 42.84375 
Q 18.109375 37.203125 18.109375 27.296875 
Q 18.109375 17.390625 22.1875 11.75 
Q 26.265625 6.109375 33.40625 6.109375 
Q 40.53125 6.109375 44.609375 11.75 
Q 48.6875 17.390625 48.6875 27.296875 
z
" id="DejaVuSans-112"/>
     </defs>
     <g transform="translate(17.619531 286.339375)rotate(-90)scale(0.17 -0.17)">
      <use xlink:href="#DejaVuSans-70"/>
      <use x="57.410156" xlink:href="#DejaVuSans-114"/>
      <use x="98.523438" xlink:href="#DejaVuSans-97"/>
      <use x="159.802734" xlink:href="#DejaVuSans-99"/>
      <use x="214.783203" xlink:href="#DejaVuSans-116"/>
      <use x="253.992188" xlink:href="#DejaVuSans-105"/>
      <use x="281.775391" xlink:href="#DejaVuSans-111"/>
      <use x="342.957031" xlink:href="#DejaVuSans-110"/>
      <use x="406.335938" xlink:href="#DejaVuSans-32"/>
      <use x="438.123047" xlink:href="#DejaVuSans-111"/>
      <use x="499.304688" xlink:href="#DejaVuSans-102"/>
      <use x="534.509766" xlink:href="#DejaVuSans-32"/>
      <use x="566.296875" xlink:href="#DejaVuSans-102"/>
      <use x="601.501953" xlink:href="#DejaVuSans-117"/>
      <use x="664.880859" xlink:href="#DejaVuSans-110"/>
      <use x="728.259766" xlink:href="#DejaVuSans-99"/>
      <use x="783.240234" xlink:href="#DejaVuSans-116"/>
      <use x="822.449219" xlink:href="#DejaVuSans-105"/>
      <use x="850.232422" xlink:href="#DejaVuSans-111"/>
      <use x="911.414062" xlink:href="#DejaVuSans-110"/>
      <use x="974.792969" xlink:href="#DejaVuSans-44"/>
      <use x="1006.580078" xlink:href="#DejaVuSans-116"/>
      <use x="1045.789062" xlink:href="#DejaVuSans-97"/>
      <use x="1107.068359" xlink:href="#DejaVuSans-114"/>
      <use x="1148.166016" xlink:href="#DejaVuSans-103"/>
      <use x="1211.642578" xlink:href="#DejaVuSans-101"/>
      <use x="1273.166016" xlink:href="#DejaVuSans-116"/>
      <use x="1312.375" xlink:href="#DejaVuSans-32"/>
      <use x="1344.162109" xlink:href="#DejaVuSans-112"/>
      <use x="1407.638672" xlink:href="#DejaVuSans-97"/>
      <use x="1468.917969" xlink:href="#DejaVuSans-105"/>
      <use x="1496.701172" xlink:href="#DejaVuSans-114"/>
      <use x="1537.814453" xlink:href="#DejaVuSans-115"/>
     </g>
    </g>
   </g>
   <g id="line2d_29">
    <defs>
     <path d="M 0 1.5 
C 0.397805 1.5 0.77937 1.341951 1.06066 1.06066 
C 1.341951 0.77937 1.5 0.397805 1.5 0 
C 1.5 -0.397805 1.341951 -0.77937 1.06066 -1.06066 
C 0.77937 -1.341951 0.397805 -1.5 0 -1.5 
C -0.397805 -1.5 -0.77937 -1.341951 -1.06066 -1.06066 
C -1.341951 -0.77937 -1.5 -0.397805 -1.5 0 
C -1.5 0.397805 -1.341951 0.77937 -1.06066 1.06066 
C -0.77937 1.341951 -0.397805 1.5 0 1.5 
z
" id="m119b5c8cd6" style="stroke:#000080;"/>
    </defs>
    <g>
     <use style="fill:#000080;stroke:#000080;" x="188.655873" xlink:href="#m119b5c8cd6" y="241.578828"/>
     <use style="fill:#000080;stroke:#000080;" x="188.655873" xlink:href="#m119b5c8cd6" y="241.578828"/>
    </g>
   </g>
   <g id="line2d_30">
    <path d="M 38.440992 298.944 
L 38.440992 295.50209 
L 50.52898 295.50209 
L 50.52898 292.060179 
L 69.687988 292.060179 
L 69.687988 289.765573 
L 74.704957 289.765573 
L 74.704957 287.470966 
L 81.775977 287.470966 
L 81.775977 286.897314 
L 84.464254 286.897314 
L 84.464254 284.602707 
L 86.792945 284.602707 
L 86.792945 283.455404 
L 90.684409 283.455404 
L 90.684409 280.587145 
L 97.16421 280.587145 
L 97.16421 277.145235 
L 101.877879 277.145235 
L 101.877879 273.129673 
L 104.033617 273.129673 
L 104.033617 271.982369 
L 105.209745 271.982369 
L 105.209745 270.261414 
L 106.311539 270.261414 
L 106.311539 269.114111 
L 107.680028 269.114111 
L 107.680028 267.393156 
L 108.006005 267.393156 
L 108.006005 264.524897 
L 108.640231 264.524897 
L 108.640231 263.951245 
L 109.252198 263.951245 
L 109.252198 262.803942 
L 109.550313 262.803942 
L 109.550313 261.656638 
L 119.097192 261.656638 
L 119.097192 261.082987 
L 119.267333 261.082987 
L 119.267333 259.362031 
L 119.43583 259.362031 
L 119.43583 252.478211 
L 119.602714 252.478211 
L 119.602714 251.904559 
L 126.281824 251.904559 
L 126.281824 251.330907 
L 126.948374 251.330907 
L 126.948374 250.757256 
L 135.00812 250.757256 
L 135.00812 250.183604 
L 135.144899 250.183604 
L 135.144899 249.036301 
L 135.548916 249.036301 
L 135.548916 248.462649 
L 135.681535 248.462649 
L 135.681535 247.888997 
L 138.141844 247.888997 
L 138.141844 247.315345 
L 138.482688 247.315345 
L 138.482688 246.741694 
L 142.396639 246.741694 
L 142.396639 246.168042 
L 150.172372 246.168042 
L 150.172372 245.59439 
L 150.344189 245.59439 
L 150.344189 244.447087 
L 163.642961 244.447087 
L 163.642961 243.873435 
L 167.703739 243.873435 
L 167.703739 243.299783 
L 178.423024 243.299783 
L 178.423024 242.726132 
L 180.310483 242.726132 
L 180.310483 242.15248 
L 188.655873 242.15248 
L 188.655873 241.578828 
L 338.688 241.578828 
" style="fill:none;stroke:#000080;stroke-linecap:square;stroke-width:1.5;"/>
   </g>
   <g id="line2d_31">
    <defs>
     <path d="M 0 6 
C 1.591219 6 3.117479 5.367802 4.242641 4.242641 
C 5.367802 3.117479 6 1.591219 6 0 
C 6 -1.591219 5.367802 -3.117479 4.242641 -4.242641 
C 3.117479 -5.367802 1.591219 -6 0 -6 
C -1.591219 -6 -3.117479 -5.367802 -4.242641 -4.242641 
C -5.367802 -3.117479 -6 -1.591219 -6 0 
C -6 1.591219 -5.367802 3.117479 -4.242641 4.242641 
C -3.117479 5.367802 -1.591219 6 0 6 
z
" id="mac19722bd1" style="stroke:#000080;stroke-width:1.5;"/>
    </defs>
    <g>
     <use style="fill-opacity:0;stroke:#000080;stroke-width:1.5;" x="84.464254" xlink:href="#mac19722bd1" y="286.897314"/>
     <use style="fill-opacity:0;stroke:#000080;stroke-width:1.5;" x="119.097192" xlink:href="#mac19722bd1" y="261.082987"/>
     <use style="fill-opacity:0;stroke:#000080;stroke-width:1.5;" x="150.344189" xlink:href="#mac19722bd1" y="244.447087"/>
     <use style="fill-opacity:0;stroke:#000080;stroke-width:1.5;" x="188.655873" xlink:href="#mac19722bd1" y="242.15248"/>
     <use style="fill-opacity:0;stroke:#000080;stroke-width:1.5;" x="188.655873" xlink:href="#mac19722bd1" y="241.578828"/>
     <use style="fill-opacity:0;stroke:#000080;stroke-width:1.5;" x="338.688" xlink:href="#mac19722bd1" y="241.578828"/>
    </g>
   </g>
   <g id="line2d_32">
    <path style="fill:none;stroke:#000080;stroke-linecap:square;stroke-width:1.5;"/>
    <g/>
   </g>
   <g id="line2d_33">
    <path clip-path="url(#pd8219e7295)" d="M 140.599134 246.741694 
" style="fill:none;stroke:#000080;stroke-linecap:square;stroke-width:1.5;"/>
    <defs>
     <path d="M -12 12 
L 12 -12 
M -12 -12 
L 12 12 
" id="mfbea1e56a6" style="stroke:#000080;"/>
    </defs>
    <g clip-path="url(#pd8219e7295)">
     <use style="fill:#000080;stroke:#000080;" x="140.599134" xlink:href="#mfbea1e56a6" y="246.741694"/>
    </g>
   </g>
   <g id="line2d_34">
    <defs>
     <path d="M 0 1.5 
C 0.397805 1.5 0.77937 1.341951 1.06066 1.06066 
C 1.341951 0.77937 1.5 0.397805 1.5 0 
C 1.5 -0.397805 1.341951 -0.77937 1.06066 -1.06066 
C 0.77937 -1.341951 0.397805 -1.5 0 -1.5 
C -0.397805 -1.5 -0.77937 -1.341951 -1.06066 -1.06066 
C -1.341951 -0.77937 -1.5 -0.397805 -1.5 0 
C -1.5 0.397805 -1.341951 0.77937 -1.06066 1.06066 
C -0.77937 1.341951 -0.397805 1.5 0 1.5 
z
" id="md2373bb821" style="stroke:#ff00ff;"/>
    </defs>
    <g>
     <use style="fill:#ff00ff;stroke:#ff00ff;" x="203.980863" xlink:href="#md2373bb821" y="172.740622"/>
     <use style="fill:#ff00ff;stroke:#ff00ff;" x="203.980863" xlink:href="#md2373bb821" y="172.740622"/>
    </g>
   </g>
   <g id="line2d_35">
    <path d="M 38.440992 298.944 
L 38.440992 277.718886 
L 50.52898 277.718886 
L 50.52898 274.850628 
L 62.616969 274.850628 
L 62.616969 270.835066 
L 66.508432 270.835066 
L 66.508432 268.540459 
L 69.687988 268.540459 
L 69.687988 267.966807 
L 72.376266 267.966807 
L 72.376266 266.819504 
L 74.704957 266.819504 
L 74.704957 265.098549 
L 76.759008 265.098549 
L 76.759008 263.951245 
L 81.775977 263.951245 
L 81.775977 263.377593 
L 83.171864 263.377593 
L 83.171864 261.082987 
L 84.464254 261.082987 
L 84.464254 259.935683 
L 85.66744 259.935683 
L 85.66744 258.78838 
L 92.34655 258.78838 
L 92.34655 257.641076 
L 93.863965 257.641076 
L 93.863965 256.493773 
L 94.575872 256.493773 
L 94.575872 255.346469 
L 98.880934 255.346469 
L 98.880934 254.199166 
L 100.443706 254.199166 
L 100.443706 253.625514 
L 103.623262 253.625514 
L 103.623262 253.051863 
L 104.033617 253.051863 
L 104.033617 251.330907 
L 104.826449 251.330907 
L 104.826449 250.757256 
L 105.584798 250.757256 
L 105.584798 249.036301 
L 105.951954 249.036301 
L 105.951954 248.462649 
L 110.131676 248.462649 
L 110.131676 247.888997 
L 119.768017 247.888997 
L 119.768017 243.873435 
L 120.254726 243.873435 
L 120.254726 243.299783 
L 126.839037 243.299783 
L 126.839037 242.15248 
L 131.523818 242.15248 
L 131.523818 239.284221 
L 135.280614 239.284221 
L 135.280614 238.71057 
L 135.615352 238.71057 
L 135.615352 237.563266 
L 138.199116 237.563266 
L 138.199116 236.415963 
L 138.369812 236.415963 
L 138.369812 232.974052 
L 140.64889 232.974052 
L 140.64889 232.400401 
L 142.619936 232.400401 
L 142.619936 231.826749 
L 142.796538 231.826749 
L 142.840411 229.532142 
L 145.212864 229.532142 
L 145.212864 226.090232 
L 148.733265 226.090232 
L 148.733265 223.795625 
L 150.372662 223.795625 
L 150.372662 222.07467 
L 151.528368 222.07467 
L 151.60806 219.206411 
L 153.726778 219.206411 
L 153.820412 216.911804 
L 153.843742 216.911804 
L 153.843742 216.338153 
L 155.146121 216.338153 
L 155.146121 214.617197 
L 157.224197 214.617197 
L 157.224197 213.469894 
L 158.249784 213.469894 
L 158.249784 212.896242 
L 158.994256 212.896242 
L 158.994256 212.322591 
L 160.458086 212.322591 
L 160.458086 211.748939 
L 161.435376 211.748939 
L 161.435376 210.027984 
L 163.656248 210.027984 
L 163.656248 208.88068 
L 164.205356 208.88068 
L 164.243924 207.733377 
L 166.047915 207.733377 
L 166.047915 205.43877 
L 167.190782 205.43877 
L 167.190782 203.144163 
L 167.7773 203.144163 
L 167.7773 202.570511 
L 168.242927 202.570511 
L 168.242927 200.849556 
L 169.138466 200.849556 
L 169.138466 200.275904 
L 169.692141 200.275904 
L 169.692141 199.128601 
L 170.625141 199.128601 
L 170.625141 198.554949 
L 171.46837 198.554949 
L 171.49381 195.686691 
L 172.199614 195.686691 
L 172.199614 195.113039 
L 173.493167 195.113039 
L 173.493167 194.539387 
L 175.955464 194.539387 
L 175.955464 193.965736 
L 176.599529 193.965736 
L 176.599529 192.24478 
L 177.128882 192.24478 
L 177.128882 191.671129 
L 178.428718 191.671129 
L 178.428718 191.097477 
L 178.666222 191.097477 
L 178.683063 189.376522 
L 179.180888 189.376522 
L 179.180888 188.80287 
L 179.494339 188.80287 
L 179.494339 187.655567 
L 180.544026 187.655567 
L 180.544026 187.081915 
L 181.274884 187.081915 
L 181.274884 186.508263 
L 182.225412 186.508263 
L 182.225412 184.213656 
L 183.758849 184.213656 
L 183.758849 183.066353 
L 184.368791 183.066353 
L 184.368791 182.492701 
L 185.168281 182.492701 
L 185.168281 181.91905 
L 186.472273 181.91905 
L 186.472273 181.345398 
L 186.995632 181.345398 
L 186.995632 180.771746 
L 188.819801 180.771746 
L 188.819801 180.198094 
L 189.278104 180.198094 
L 189.278104 179.050791 
L 189.587093 179.050791 
L 189.587093 178.477139 
L 189.884801 178.477139 
L 189.884801 177.903487 
L 190.316286 177.903487 
L 190.316286 177.329836 
L 190.888488 177.329836 
L 190.888488 176.756184 
L 191.134759 176.756184 
L 191.134759 176.182532 
L 191.296121 176.182532 
L 191.296121 175.035229 
L 194.409309 175.035229 
L 194.409309 173.887925 
L 202.541954 173.887925 
L 202.541954 173.314274 
L 203.980863 173.314274 
L 203.980863 172.740622 
L 338.688 172.740622 
L 338.688 172.740622 
" style="fill:none;stroke:#ff00ff;stroke-linecap:square;stroke-width:1.5;"/>
   </g>
   <g id="line2d_36">
    <defs>
     <path d="M -0 8.485281 
L 5.091169 0 
L 0 -8.485281 
L -5.091169 -0 
z
" id="m065201cfbf" style="stroke:#ff00ff;stroke-linejoin:miter;stroke-width:1.5;"/>
    </defs>
    <g>
     <use style="fill-opacity:0;stroke:#ff00ff;stroke-linejoin:miter;stroke-width:1.5;" x="72.376266" xlink:href="#m065201cfbf" y="266.819504"/>
     <use style="fill-opacity:0;stroke:#ff00ff;stroke-linejoin:miter;stroke-width:1.5;" x="131.523818" xlink:href="#m065201cfbf" y="242.15248"/>
     <use style="fill-opacity:0;stroke:#ff00ff;stroke-linejoin:miter;stroke-width:1.5;" x="182.225412" xlink:href="#m065201cfbf" y="186.508263"/>
     <use style="fill-opacity:0;stroke:#ff00ff;stroke-linejoin:miter;stroke-width:1.5;" x="203.980863" xlink:href="#m065201cfbf" y="172.740622"/>
     <use style="fill-opacity:0;stroke:#ff00ff;stroke-linejoin:miter;stroke-width:1.5;" x="203.980863" xlink:href="#m065201cfbf" y="172.740622"/>
     <use style="fill-opacity:0;stroke:#ff00ff;stroke-linejoin:miter;stroke-width:1.5;" x="338.688" xlink:href="#m065201cfbf" y="172.740622"/>
    </g>
   </g>
   <g id="line2d_37">
    <path style="fill:none;stroke:#ff00ff;stroke-linecap:square;stroke-width:1.5;"/>
    <g/>
   </g>
   <g id="line2d_38">
    <path clip-path="url(#pd8219e7295)" d="M 140.599134 232.974052 
" style="fill:none;stroke:#ff00ff;stroke-linecap:square;stroke-width:1.5;"/>
    <defs>
     <path d="M -12 12 
L 12 -12 
M -12 -12 
L 12 12 
" id="m68812727d8" style="stroke:#ff00ff;"/>
    </defs>
    <g clip-path="url(#pd8219e7295)">
     <use style="fill:#ff00ff;stroke:#ff00ff;" x="140.599134" xlink:href="#m68812727d8" y="232.974052"/>
    </g>
   </g>
   <g id="line2d_39">
    <defs>
     <path d="M 0 1.5 
C 0.397805 1.5 0.77937 1.341951 1.06066 1.06066 
C 1.341951 0.77937 1.5 0.397805 1.5 0 
C 1.5 -0.397805 1.341951 -0.77937 1.06066 -1.06066 
C 0.77937 -1.341951 0.397805 -1.5 0 -1.5 
C -0.397805 -1.5 -0.77937 -1.341951 -1.06066 -1.06066 
C -1.341951 -0.77937 -1.5 -0.397805 -1.5 0 
C -1.5 0.397805 -1.341951 0.77937 -1.06066 1.06066 
C -0.77937 1.341951 -0.397805 1.5 0 1.5 
z
" id="m92366104d1" style="stroke:#ff7500;"/>
    </defs>
    <g>
     <use style="fill:#ff7500;stroke:#ff7500;" x="219.407608" xlink:href="#m92366104d1" y="172.740622"/>
     <use style="fill:#ff7500;stroke:#ff7500;" x="219.407608" xlink:href="#m92366104d1" y="172.740622"/>
    </g>
   </g>
   <g id="line2d_40">
    <path d="M 38.440992 298.944 
L 38.440992 286.323662 
L 50.52898 286.323662 
L 50.52898 283.455404 
L 57.6 283.455404 
L 57.6 281.160797 
L 62.616969 281.160797 
L 62.616969 279.439842 
L 66.508432 279.439842 
L 66.508432 278.292538 
L 69.687988 278.292538 
L 69.687988 276.571583 
L 72.376266 276.571583 
L 72.376266 274.850628 
L 76.759008 274.850628 
L 76.759008 273.129673 
L 80.258561 273.129673 
L 80.258561 272.556021 
L 84.464254 272.556021 
L 84.464254 271.982369 
L 85.66744 271.982369 
L 85.66744 268.540459 
L 87.850195 268.540459 
L 87.850195 266.245852 
L 88.846997 266.245852 
L 88.846997 265.6722 
L 89.78989 265.6722 
L 89.78989 265.098549 
L 91.535274 265.098549 
L 91.535274 264.524897 
L 92.34655 264.524897 
L 92.34655 261.656638 
L 93.863965 261.656638 
L 93.863965 261.082987 
L 95.918017 261.082987 
L 95.918017 259.935683 
L 98.32726 259.935683 
L 98.32726 255.920121 
L 100.934985 255.920121 
L 100.934985 255.346469 
L 105.951954 255.346469 
L 105.951954 251.904559 
L 106.66386 251.904559 
L 106.66386 250.757256 
L 107.347841 250.757256 
L 107.347841 248.462649 
L 107.680028 248.462649 
L 107.680028 247.888997 
L 109.252198 247.888997 
L 109.252198 246.741694 
L 120.093994 246.741694 
L 120.093994 246.168042 
L 126.168212 246.168042 
L 126.168212 245.020738 
L 126.3947 245.020738 
L 126.3947 244.447087 
L 131.523818 244.447087 
L 131.523818 243.299783 
L 132.019755 243.299783 
L 132.019755 241.578828 
L 135.144899 241.578828 
L 135.212889 239.284221 
L 135.482227 239.284221 
L 135.482227 236.989614 
L 138.084384 236.989614 
L 138.084384 236.415963 
L 141.33096 236.415963 
L 141.33096 234.121356 
L 141.662245 234.121356 
L 141.662245 231.826749 
L 142.07914 231.826749 
L 142.07914 231.253097 
L 142.840411 231.253097 
L 142.840411 228.95849 
L 143.014805 228.95849 
L 143.014805 228.384839 
L 146.992815 228.384839 
L 146.992815 227.811187 
L 148.919783 227.811187 
L 148.919783 224.369277 
L 150.172372 224.369277 
L 150.201126 221.501018 
L 150.31567 221.501018 
L 150.31567 219.780063 
L 153.056874 219.780063 
L 153.056874 219.206411 
L 153.226778 219.206411 
L 153.226778 218.632759 
L 153.442821 218.632759 
L 153.442821 218.059108 
L 153.843742 218.059108 
L 153.936752 215.190849 
L 156.175347 215.190849 
L 156.175347 214.043546 
L 157.339055 214.043546 
L 157.339055 213.469894 
L 158.122556 213.469894 
L 158.213527 212.322591 
L 160.005512 212.322591 
L 160.005512 211.748939 
L 160.119762 211.748939 
L 160.119762 210.601635 
L 162.159347 210.601635 
L 162.159347 210.027984 
L 162.274744 210.027984 
L 162.274744 209.454332 
L 162.992975 209.454332 
L 162.992975 208.88068 
L 163.563025 208.88068 
L 163.629664 206.012422 
L 164.960967 206.012422 
L 165.047026 204.291467 
L 166.606293 204.291467 
L 166.606293 203.717815 
L 167.255733 203.717815 
L 167.255733 202.570511 
L 167.756314 202.570511 
L 167.756314 201.423208 
L 168.972794 201.423208 
L 168.972794 199.702253 
L 170.128262 199.702253 
L 170.128262 199.128601 
L 171.047505 199.128601 
L 171.047505 198.554949 
L 172.101686 198.554949 
L 172.101686 197.981298 
L 173.088028 197.981298 
L 173.088028 197.407646 
L 173.493167 197.407646 
L 173.538444 195.686691 
L 173.852135 195.686691 
L 173.889107 193.392084 
L 174.690307 193.392084 
L 174.753684 192.24478 
L 176.267585 192.24478 
L 176.299779 190.523825 
L 177.159525 190.523825 
L 177.159525 189.950174 
L 178.14748 189.950174 
L 178.14748 189.376522 
L 178.417327 189.376522 
L 178.417327 188.80287 
L 180.063405 188.80287 
L 180.063405 188.229218 
L 180.305371 188.229218 
L 180.305371 187.081915 
L 181.510261 187.081915 
L 181.510261 186.508263 
L 182.008829 186.508263 
L 182.008829 184.787308 
L 183.10504 184.787308 
L 183.10504 184.213656 
L 183.360074 184.213656 
L 183.360074 183.640005 
L 183.560601 183.640005 
L 183.560601 183.066353 
L 184.800796 183.066353 
L 184.800796 182.492701 
L 184.985507 182.492701 
L 184.985507 180.771746 
L 185.387404 180.771746 
L 185.387404 180.198094 
L 185.906783 180.198094 
L 185.906783 179.624443 
L 187.367868 179.624443 
L 187.367868 179.050791 
L 188.671702 179.050791 
L 188.671702 177.903487 
L 195.346928 177.903487 
L 195.346928 177.329836 
L 197.911138 177.329836 
L 197.911138 176.756184 
L 201.965408 176.756184 
L 201.965408 176.182532 
L 204.819322 176.182532 
L 204.819322 175.608881 
L 207.271217 175.608881 
L 207.271217 175.035229 
L 208.733085 175.035229 
L 208.733085 174.461577 
L 210.081833 174.461577 
L 210.081833 173.887925 
L 217.180334 173.887925 
L 217.180334 173.314274 
L 219.407608 173.314274 
L 219.407608 172.740622 
L 338.688 172.740622 
L 338.688 172.740622 
" style="fill:none;stroke:#ff7500;stroke-linecap:square;stroke-width:1.5;"/>
   </g>
   <g id="line2d_41">
    <defs>
     <path d="M 0 -6 
L -1.347084 -1.854102 
L -5.706339 -1.854102 
L -2.179628 0.708204 
L -3.526712 4.854102 
L -0 2.291796 
L 3.526712 4.854102 
L 2.179628 0.708204 
L 5.706339 -1.854102 
L 1.347084 -1.854102 
z
" id="m584c2ce477" style="stroke:#ff7500;stroke-linejoin:bevel;stroke-width:1.5;"/>
    </defs>
    <g>
     <use style="fill-opacity:0;stroke:#ff7500;stroke-linejoin:bevel;stroke-width:1.5;" x="132.019755" xlink:href="#m584c2ce477" y="241.578828"/>
     <use style="fill-opacity:0;stroke:#ff7500;stroke-linejoin:bevel;stroke-width:1.5;" x="185.906783" xlink:href="#m584c2ce477" y="179.624443"/>
     <use style="fill-opacity:0;stroke:#ff7500;stroke-linejoin:bevel;stroke-width:1.5;" x="219.407608" xlink:href="#m584c2ce477" y="173.314274"/>
     <use style="fill-opacity:0;stroke:#ff7500;stroke-linejoin:bevel;stroke-width:1.5;" x="219.407608" xlink:href="#m584c2ce477" y="172.740622"/>
     <use style="fill-opacity:0;stroke:#ff7500;stroke-linejoin:bevel;stroke-width:1.5;" x="219.407608" xlink:href="#m584c2ce477" y="172.740622"/>
     <use style="fill-opacity:0;stroke:#ff7500;stroke-linejoin:bevel;stroke-width:1.5;" x="338.688" xlink:href="#m584c2ce477" y="172.740622"/>
    </g>
   </g>
   <g id="line2d_42">
    <path style="fill:none;stroke:#ff7500;stroke-linecap:square;stroke-width:1.5;"/>
    <g/>
   </g>
   <g id="line2d_43">
    <path clip-path="url(#pd8219e7295)" d="M 140.599134 236.415963 
" style="fill:none;stroke:#ff7500;stroke-linecap:square;stroke-width:1.5;"/>
    <defs>
     <path d="M -12 12 
L 12 -12 
M -12 -12 
L 12 12 
" id="m2c261484b0" style="stroke:#ff7500;"/>
    </defs>
    <g clip-path="url(#pd8219e7295)">
     <use style="fill:#ff7500;stroke:#ff7500;" x="140.599134" xlink:href="#m2c261484b0" y="236.415963"/>
    </g>
   </g>
   <g id="line2d_44">
    <defs>
     <path d="M 0 1.5 
C 0.397805 1.5 0.77937 1.341951 1.06066 1.06066 
C 1.341951 0.77937 1.5 0.397805 1.5 0 
C 1.5 -0.397805 1.341951 -0.77937 1.06066 -1.06066 
C 0.77937 -1.341951 0.397805 -1.5 0 -1.5 
C -0.397805 -1.5 -0.77937 -1.341951 -1.06066 -1.06066 
C -1.341951 -0.77937 -1.5 -0.397805 -1.5 0 
C -1.5 0.397805 -1.341951 0.77937 -1.06066 1.06066 
C -0.77937 1.341951 -0.397805 1.5 0 1.5 
z
" id="m70828386ea" style="stroke:#6495ed;"/>
    </defs>
    <g>
     <use style="fill:#6495ed;stroke:#6495ed;" x="169.128764" xlink:href="#m70828386ea" y="247.315345"/>
     <use style="fill:#6495ed;stroke:#6495ed;" x="169.128764" xlink:href="#m70828386ea" y="247.315345"/>
    </g>
   </g>
   <g id="line2d_45">
    <path d="M 38.440992 298.944 
L 38.440992 279.439842 
L 50.52898 279.439842 
L 50.52898 277.718886 
L 57.6 277.718886 
L 57.6 274.276976 
L 62.616969 274.276976 
L 62.616969 271.982369 
L 66.508432 271.982369 
L 66.508432 271.408718 
L 74.704957 271.408718 
L 74.704957 269.687762 
L 76.759008 269.687762 
L 76.759008 267.966807 
L 78.59642 267.966807 
L 78.59642 266.819504 
L 80.258561 266.819504 
L 80.258561 265.6722 
L 84.464254 265.6722 
L 84.464254 265.098549 
L 85.66744 265.098549 
L 85.66744 263.951245 
L 86.792945 263.951245 
L 86.792945 263.377593 
L 87.850195 263.377593 
L 87.850195 262.23029 
L 90.684409 262.23029 
L 90.684409 261.656638 
L 92.34655 261.656638 
L 92.34655 261.082987 
L 95.259853 261.082987 
L 95.259853 259.935683 
L 100.443706 259.935683 
L 100.443706 259.362031 
L 103.203018 259.362031 
L 103.203018 258.78838 
L 105.584798 258.78838 
L 105.584798 258.214728 
L 108.640231 258.214728 
L 108.640231 257.641076 
L 110.415248 257.641076 
L 110.415248 257.067425 
L 119.43583 257.067425 
L 119.43583 255.920121 
L 127.378995 255.920121 
L 127.378995 255.346469 
L 135.681535 255.346469 
L 135.681535 254.199166 
L 141.848763 254.199166 
L 141.848763 253.625514 
L 142.53096 253.625514 
L 142.53096 253.051863 
L 142.796538 253.051863 
L 142.796538 252.478211 
L 143.485587 252.478211 
L 143.485587 251.904559 
L 145.251067 251.904559 
L 145.251067 250.757256 
L 150.401087 250.757256 
L 150.401087 250.183604 
L 153.323128 250.183604 
L 153.323128 249.609952 
L 154.19 249.609952 
L 154.19 249.036301 
L 155.167744 249.036301 
L 155.167744 248.462649 
L 158.267884 248.462649 
L 158.267884 247.888997 
L 169.128764 247.888997 
L 169.128764 247.315345 
L 338.688 247.315345 
" style="fill:none;stroke:#6495ed;stroke-linecap:square;stroke-width:1.5;"/>
   </g>
   <g id="line2d_46">
    <defs>
     <path d="M -0 6 
L 6 -6 
L -6 -6 
z
" id="medaf3cd371" style="stroke:#6495ed;stroke-linejoin:miter;stroke-width:1.5;"/>
    </defs>
    <g>
     <use style="fill-opacity:0;stroke:#6495ed;stroke-linejoin:miter;stroke-width:1.5;" x="119.43583" xlink:href="#medaf3cd371" y="255.920121"/>
     <use style="fill-opacity:0;stroke:#6495ed;stroke-linejoin:miter;stroke-width:1.5;" x="169.128764" xlink:href="#medaf3cd371" y="247.888997"/>
     <use style="fill-opacity:0;stroke:#6495ed;stroke-linejoin:miter;stroke-width:1.5;" x="169.128764" xlink:href="#medaf3cd371" y="247.315345"/>
     <use style="fill-opacity:0;stroke:#6495ed;stroke-linejoin:miter;stroke-width:1.5;" x="169.128764" xlink:href="#medaf3cd371" y="247.315345"/>
     <use style="fill-opacity:0;stroke:#6495ed;stroke-linejoin:miter;stroke-width:1.5;" x="338.688" xlink:href="#medaf3cd371" y="247.315345"/>
    </g>
   </g>
   <g id="line2d_47">
    <path style="fill:none;stroke:#6495ed;stroke-linecap:square;stroke-width:1.5;"/>
    <g/>
   </g>
   <g id="line2d_48">
    <path clip-path="url(#pd8219e7295)" d="M 140.599134 254.199166 
" style="fill:none;stroke:#6495ed;stroke-linecap:square;stroke-width:1.5;"/>
    <defs>
     <path d="M -12 12 
L 12 -12 
M -12 -12 
L 12 12 
" id="m42e11f29d4" style="stroke:#6495ed;"/>
    </defs>
    <g clip-path="url(#pd8219e7295)">
     <use style="fill:#6495ed;stroke:#6495ed;" x="140.599134" xlink:href="#m42e11f29d4" y="254.199166"/>
    </g>
   </g>
   <g id="line2d_49">
    <defs>
     <path d="M 0 1.5 
C 0.397805 1.5 0.77937 1.341951 1.06066 1.06066 
C 1.341951 0.77937 1.5 0.397805 1.5 0 
C 1.5 -0.397805 1.341951 -0.77937 1.06066 -1.06066 
C 0.77937 -1.341951 0.397805 -1.5 0 -1.5 
C -0.397805 -1.5 -0.77937 -1.341951 -1.06066 -1.06066 
C -1.341951 -0.77937 -1.5 -0.397805 -1.5 0 
C -1.5 0.397805 -1.341951 0.77937 -1.06066 1.06066 
C -0.77937 1.341951 -0.397805 1.5 0 1.5 
z
" id="m10f3503e85" style="stroke:#ff0000;"/>
    </defs>
    <g>
     <use style="fill:#ff0000;stroke:#ff0000;" x="216.255943" xlink:href="#m10f3503e85" y="258.78838"/>
     <use style="fill:#ff0000;stroke:#ff0000;" x="216.255943" xlink:href="#m10f3503e85" y="258.78838"/>
    </g>
   </g>
   <g id="line2d_50">
    <path d="M 38.440992 298.944 
L 38.440992 288.044617 
L 50.52898 288.044617 
L 50.52898 285.176359 
L 57.6 285.176359 
L 57.6 284.602707 
L 62.616969 284.602707 
L 62.616969 284.029055 
L 69.687988 284.029055 
L 69.687988 282.881752 
L 72.376266 282.881752 
L 72.376266 282.3081 
L 74.704957 282.3081 
L 74.704957 280.587145 
L 76.759008 280.587145 
L 76.759008 280.013493 
L 81.775977 280.013493 
L 81.775977 279.439842 
L 86.792945 279.439842 
L 86.792945 278.86619 
L 95.918017 278.86619 
L 95.918017 278.292538 
L 97.755429 278.292538 
L 97.755429 277.145235 
L 102.772397 277.145235 
L 102.772397 276.571583 
L 104.826449 276.571583 
L 104.826449 275.997931 
L 107.347841 275.997931 
L 107.347841 274.850628 
L 108.948899 274.850628 
L 108.948899 274.276976 
L 119.267333 274.276976 
L 119.267333 273.703324 
L 126.053856 273.703324 
L 126.053856 271.982369 
L 126.3947 271.982369 
L 126.3947 270.835066 
L 126.729009 270.835066 
L 126.729009 270.261414 
L 131.013364 270.261414 
L 131.013364 269.687762 
L 131.185181 269.687762 
L 131.185181 269.114111 
L 134.870259 269.114111 
L 134.870259 268.540459 
L 135.482227 268.540459 
L 135.482227 267.966807 
L 138.199116 267.966807 
L 138.199116 267.393156 
L 138.313099 267.393156 
L 138.313099 266.819504 
L 143.014805 266.819504 
L 143.014805 266.245852 
L 148.54473 266.245852 
L 148.54473 265.6722 
L 151.581536 265.6722 
L 151.581536 265.098549 
L 153.936752 265.098549 
L 153.936752 264.524897 
L 157.108577 264.524897 
L 157.108577 263.951245 
L 162.159347 263.951245 
L 162.159347 263.377593 
L 162.826621 263.377593 
L 162.826621 262.803942 
L 166.572616 262.803942 
L 166.572616 262.23029 
L 170.571619 262.23029 
L 170.571619 261.656638 
L 181.733085 261.656638 
L 181.733085 261.082987 
L 184.75332 261.082987 
L 184.75332 260.509335 
L 193.338675 260.509335 
L 193.338675 259.935683 
L 202.38987 259.935683 
L 202.38987 259.362031 
L 216.255943 259.362031 
L 216.255943 258.78838 
L 338.688 258.78838 
" style="fill:none;stroke:#ff0000;stroke-linecap:square;stroke-width:1.5;"/>
   </g>
   <g id="line2d_51">
    <defs>
     <path d="M 0 -6 
L -5.196152 -3 
L -5.196152 3 
L -0 6 
L 5.196152 3 
L 5.196152 -3 
z
" id="m6e980429a2" style="stroke:#ff0000;stroke-linejoin:miter;stroke-width:1.5;"/>
    </defs>
    <g>
     <use style="fill-opacity:0;stroke:#ff0000;stroke-linejoin:miter;stroke-width:1.5;" x="108.948899" xlink:href="#m6e980429a2" y="274.276976"/>
     <use style="fill-opacity:0;stroke:#ff0000;stroke-linejoin:miter;stroke-width:1.5;" x="184.75332" xlink:href="#m6e980429a2" y="261.082987"/>
     <use style="fill-opacity:0;stroke:#ff0000;stroke-linejoin:miter;stroke-width:1.5;" x="216.255943" xlink:href="#m6e980429a2" y="259.362031"/>
     <use style="fill-opacity:0;stroke:#ff0000;stroke-linejoin:miter;stroke-width:1.5;" x="216.255943" xlink:href="#m6e980429a2" y="258.78838"/>
     <use style="fill-opacity:0;stroke:#ff0000;stroke-linejoin:miter;stroke-width:1.5;" x="216.255943" xlink:href="#m6e980429a2" y="258.78838"/>
     <use style="fill-opacity:0;stroke:#ff0000;stroke-linejoin:miter;stroke-width:1.5;" x="338.688" xlink:href="#m6e980429a2" y="258.78838"/>
    </g>
   </g>
   <g id="line2d_52">
    <path style="fill:none;stroke:#ff0000;stroke-linecap:square;stroke-width:1.5;"/>
    <g/>
   </g>
   <g id="line2d_53">
    <path clip-path="url(#pd8219e7295)" d="M 140.599134 266.819504 
" style="fill:none;stroke:#ff0000;stroke-linecap:square;stroke-width:1.5;"/>
    <defs>
     <path d="M -12 12 
L 12 -12 
M -12 -12 
L 12 12 
" id="m3cde7de1f1" style="stroke:#ff0000;"/>
    </defs>
    <g clip-path="url(#pd8219e7295)">
     <use style="fill:#ff0000;stroke:#ff0000;" x="140.599134" xlink:href="#m3cde7de1f1" y="266.819504"/>
    </g>
   </g>
   <g id="line2d_54">
    <path d="M 338.688 258.78838 
L 369.60768 293.092752 
" style="fill:none;stroke:#ff0000;stroke-linecap:square;stroke-width:1.5;"/>
    <g>
     <use style="fill-opacity:0;stroke:#ff0000;stroke-linejoin:miter;stroke-width:1.5;" x="338.688" xlink:href="#m6e980429a2" y="258.78838"/>
     <use style="fill-opacity:0;stroke:#ff0000;stroke-linejoin:miter;stroke-width:1.5;" x="369.60768" xlink:href="#m6e980429a2" y="293.092752"/>
    </g>
   </g>
   <g id="line2d_55">
    <path d="M 338.688 247.315345 
L 369.60768 222.877782 
" style="fill:none;stroke:#6495ed;stroke-linecap:square;stroke-width:1.5;"/>
    <g>
     <use style="fill-opacity:0;stroke:#6495ed;stroke-linejoin:miter;stroke-width:1.5;" x="338.688" xlink:href="#medaf3cd371" y="247.315345"/>
     <use style="fill-opacity:0;stroke:#6495ed;stroke-linejoin:miter;stroke-width:1.5;" x="369.60768" xlink:href="#medaf3cd371" y="222.877782"/>
    </g>
   </g>
   <g id="line2d_56">
    <path d="M 338.688 241.578828 
L 369.60768 152.662812 
" style="fill:none;stroke:#000080;stroke-linecap:square;stroke-width:1.5;"/>
    <g>
     <use style="fill-opacity:0;stroke:#000080;stroke-width:1.5;" x="338.688" xlink:href="#mac19722bd1" y="241.578828"/>
     <use style="fill-opacity:0;stroke:#000080;stroke-width:1.5;" x="369.60768" xlink:href="#mac19722bd1" y="152.662812"/>
    </g>
   </g>
   <g id="line2d_57">
    <path d="M 338.688 172.740622 
L 369.60768 82.447842 
" style="fill:none;stroke:#ff7500;stroke-linecap:square;stroke-width:1.5;"/>
    <g>
     <use style="fill-opacity:0;stroke:#ff7500;stroke-linejoin:bevel;stroke-width:1.5;" x="338.688" xlink:href="#m584c2ce477" y="172.740622"/>
     <use style="fill-opacity:0;stroke:#ff7500;stroke-linejoin:bevel;stroke-width:1.5;" x="369.60768" xlink:href="#m584c2ce477" y="82.447842"/>
    </g>
   </g>
   <g id="line2d_58">
    <path d="M 338.688 172.740622 
L 369.60768 12.232871 
" style="fill:none;stroke:#ff00ff;stroke-linecap:square;stroke-width:1.5;"/>
    <g>
     <use style="fill-opacity:0;stroke:#ff00ff;stroke-linejoin:miter;stroke-width:1.5;" x="338.688" xlink:href="#m065201cfbf" y="172.740622"/>
     <use style="fill-opacity:0;stroke:#ff00ff;stroke-linejoin:miter;stroke-width:1.5;" x="369.60768" xlink:href="#m065201cfbf" y="12.232871"/>
    </g>
   </g>
   <g id="line2d_59">
    <path d="M 338.688 298.944 
L 338.688 6.381624 
" style="fill:none;stroke:#000000;stroke-linecap:square;stroke-width:1.5;"/>
   </g>
   <g id="patch_3">
    <path d="M 57.6 298.944 
L 57.6 3.456 
" style="fill:none;stroke:#000000;stroke-linecap:square;stroke-linejoin:miter;stroke-width:0.8;"/>
   </g>
   <g id="patch_4">
    <path d="M 338.688 298.944 
L 338.688 3.456 
" style="fill:none;stroke:#000000;stroke-linecap:square;stroke-linejoin:miter;stroke-width:0.8;"/>
   </g>
   <g id="patch_5">
    <path d="M 57.6 298.944 
L 338.688 298.944 
" style="fill:none;stroke:#000000;stroke-linecap:square;stroke-linejoin:miter;stroke-width:0.8;"/>
   </g>
   <g id="patch_6">
    <path d="M 57.6 3.456 
L 338.688 3.456 
" style="fill:none;stroke:#000000;stroke-linecap:square;stroke-linejoin:miter;stroke-width:0.8;"/>
   </g>
   <g id="text_13">
    <!-- f24 -->
    <g transform="translate(375.22944 297.78369)scale(0.17 -0.17)">
     <use xlink:href="#DejaVuSans-102"/>
     <use x="35.205078" xlink:href="#DejaVuSans-50"/>
     <use x="98.828125" xlink:href="#DejaVuSans-52"/>
    </g>
   </g>
   <g id="text_14">
    <!-- f23 -->
    <defs>
     <path d="M 40.578125 39.3125 
Q 47.65625 37.796875 51.625 33 
Q 55.609375 28.21875 55.609375 21.1875 
Q 55.609375 10.40625 48.1875 4.484375 
Q 40.765625 -1.421875 27.09375 -1.421875 
Q 22.515625 -1.421875 17.65625 -0.515625 
Q 12.796875 0.390625 7.625 2.203125 
L 7.625 11.71875 
Q 11.71875 9.328125 16.59375 8.109375 
Q 21.484375 6.890625 26.8125 6.890625 
Q 36.078125 6.890625 40.9375 10.546875 
Q 45.796875 14.203125 45.796875 21.1875 
Q 45.796875 27.640625 41.28125 31.265625 
Q 36.765625 34.90625 28.71875 34.90625 
L 20.21875 34.90625 
L 20.21875 43.015625 
L 29.109375 43.015625 
Q 36.375 43.015625 40.234375 45.921875 
Q 44.09375 48.828125 44.09375 54.296875 
Q 44.09375 59.90625 40.109375 62.90625 
Q 36.140625 65.921875 28.71875 65.921875 
Q 24.65625 65.921875 20.015625 65.03125 
Q 15.375 64.15625 9.8125 62.3125 
L 9.8125 71.09375 
Q 15.4375 72.65625 20.34375 73.4375 
Q 25.25 74.21875 29.59375 74.21875 
Q 40.828125 74.21875 47.359375 69.109375 
Q 53.90625 64.015625 53.90625 55.328125 
Q 53.90625 49.265625 50.4375 45.09375 
Q 46.96875 40.921875 40.578125 39.3125 
z
" id="DejaVuSans-51"/>
    </defs>
    <g transform="translate(375.22944 227.56872)scale(0.17 -0.17)">
     <use xlink:href="#DejaVuSans-102"/>
     <use x="35.205078" xlink:href="#DejaVuSans-50"/>
     <use x="98.828125" xlink:href="#DejaVuSans-51"/>
    </g>
   </g>
   <g id="text_15">
    <!-- f20 -->
    <g transform="translate(375.22944 157.353749)scale(0.17 -0.17)">
     <use xlink:href="#DejaVuSans-102"/>
     <use x="35.205078" xlink:href="#DejaVuSans-50"/>
     <use x="98.828125" xlink:href="#DejaVuSans-48"/>
    </g>
   </g>
   <g id="text_16">
    <!-- f22 -->
    <g transform="translate(375.22944 87.138779)scale(0.17 -0.17)">
     <use xlink:href="#DejaVuSans-102"/>
     <use x="35.205078" xlink:href="#DejaVuSans-50"/>
     <use x="98.828125" xlink:href="#DejaVuSans-50"/>
    </g>
   </g>
   <g id="text_17">
    <!-- f21 -->
    <g transform="translate(375.22944 16.923809)scale(0.17 -0.17)">
     <use xlink:href="#DejaVuSans-102"/>
     <use x="35.205078" xlink:href="#DejaVuSans-50"/>
     <use x="98.828125" xlink:href="#DejaVuSans-49"/>
    </g>
   </g>
   <g id="text_18">
    <!-- bbob -->
    <defs>
     <path d="M 48.6875 27.296875 
Q 48.6875 37.203125 44.609375 42.84375 
Q 40.53125 48.484375 33.40625 48.484375 
Q 26.265625 48.484375 22.1875 42.84375 
Q 18.109375 37.203125 18.109375 27.296875 
Q 18.109375 17.390625 22.1875 11.75 
Q 26.265625 6.109375 33.40625 6.109375 
Q 40.53125 6.109375 44.609375 11.75 
Q 48.6875 17.390625 48.6875 27.296875 
z
M 18.109375 46.390625 
Q 20.953125 51.265625 25.265625 53.625 
Q 29.59375 56 35.59375 56 
Q 45.5625 56 51.78125 48.09375 
Q 58.015625 40.1875 58.015625 27.296875 
Q 58.015625 14.40625 51.78125 6.484375 
Q 45.5625 -1.421875 35.59375 -1.421875 
Q 29.59375 -1.421875 25.265625 0.953125 
Q 20.953125 3.328125 18.109375 8.203125 
L 18.109375 0 
L 9.078125 0 
L 9.078125 75.984375 
L 18.109375 75.984375 
z
" id="DejaVuSans-98"/>
    </defs>
    <g transform="translate(60.41088 14.161286)scale(0.102 -0.102)">
     <use xlink:href="#DejaVuSans-98"/>
     <use x="63.476562" xlink:href="#DejaVuSans-98"/>
     <use x="126.953125" xlink:href="#DejaVuSans-111"/>
     <use x="188.134766" xlink:href="#DejaVuSans-98"/>
    </g>
    <!-- Weak structure functions, 3-D -->
    <defs>
     <path d="M 3.328125 72.90625 
L 13.28125 72.90625 
L 28.609375 11.28125 
L 43.890625 72.90625 
L 54.984375 72.90625 
L 70.3125 11.28125 
L 85.59375 72.90625 
L 95.609375 72.90625 
L 77.296875 0 
L 64.890625 0 
L 49.515625 63.28125 
L 33.984375 0 
L 21.578125 0 
z
" id="DejaVuSans-87"/>
     <path d="M 9.078125 75.984375 
L 18.109375 75.984375 
L 18.109375 31.109375 
L 44.921875 54.6875 
L 56.390625 54.6875 
L 27.390625 29.109375 
L 57.625 0 
L 45.90625 0 
L 18.109375 26.703125 
L 18.109375 0 
L 9.078125 0 
z
" id="DejaVuSans-107"/>
     <path d="M 19.671875 64.796875 
L 19.671875 8.109375 
L 31.59375 8.109375 
Q 46.6875 8.109375 53.6875 14.9375 
Q 60.6875 21.78125 60.6875 36.53125 
Q 60.6875 51.171875 53.6875 57.984375 
Q 46.6875 64.796875 31.59375 64.796875 
z
M 9.8125 72.90625 
L 30.078125 72.90625 
Q 51.265625 72.90625 61.171875 64.09375 
Q 71.09375 55.28125 71.09375 36.53125 
Q 71.09375 17.671875 61.125 8.828125 
Q 51.171875 0 30.078125 0 
L 9.8125 0 
z
" id="DejaVuSans-68"/>
    </defs>
    <g transform="translate(60.41088 25.583055)scale(0.102 -0.102)">
     <use xlink:href="#DejaVuSans-87"/>
     <use x="98.798828" xlink:href="#DejaVuSans-101"/>
     <use x="160.322266" xlink:href="#DejaVuSans-97"/>
     <use x="221.601562" xlink:href="#DejaVuSans-107"/>
     <use x="279.511719" xlink:href="#DejaVuSans-32"/>
     <use x="311.298828" xlink:href="#DejaVuSans-115"/>
     <use x="363.398438" xlink:href="#DejaVuSans-116"/>
     <use x="402.607422" xlink:href="#DejaVuSans-114"/>
     <use x="443.720703" xlink:href="#DejaVuSans-117"/>
     <use x="507.099609" xlink:href="#DejaVuSans-99"/>
     <use x="562.080078" xlink:href="#DejaVuSans-116"/>
     <use x="601.289062" xlink:href="#DejaVuSans-117"/>
     <use x="664.667969" xlink:href="#DejaVuSans-114"/>
     <use x="705.75" xlink:href="#DejaVuSans-101"/>
     <use x="767.273438" xlink:href="#DejaVuSans-32"/>
     <use x="799.060547" xlink:href="#DejaVuSans-102"/>
     <use x="834.265625" xlink:href="#DejaVuSans-117"/>
     <use x="897.644531" xlink:href="#DejaVuSans-110"/>
     <use x="961.023438" xlink:href="#DejaVuSans-99"/>
     <use x="1016.003906" xlink:href="#DejaVuSans-116"/>
     <use x="1055.212891" xlink:href="#DejaVuSans-105"/>
     <use x="1082.996094" xlink:href="#DejaVuSans-111"/>
     <use x="1144.177734" xlink:href="#DejaVuSans-110"/>
     <use x="1207.556641" xlink:href="#DejaVuSans-115"/>
     <use x="1259.65625" xlink:href="#DejaVuSans-44"/>
     <use x="1291.443359" xlink:href="#DejaVuSans-32"/>
     <use x="1323.230469" xlink:href="#DejaVuSans-51"/>
     <use x="1386.853516" xlink:href="#DejaVuSans-45"/>
     <use x="1422.9375" xlink:href="#DejaVuSans-68"/>
    </g>
    <!-- 51 targets: 100..1e-08 -->
    <defs>
     <path d="M 10.796875 72.90625 
L 49.515625 72.90625 
L 49.515625 64.59375 
L 19.828125 64.59375 
L 19.828125 46.734375 
Q 21.96875 47.46875 24.109375 47.828125 
Q 26.265625 48.1875 28.421875 48.1875 
Q 40.625 48.1875 47.75 41.5 
Q 54.890625 34.8125 54.890625 23.390625 
Q 54.890625 11.625 47.5625 5.09375 
Q 40.234375 -1.421875 26.90625 -1.421875 
Q 22.3125 -1.421875 17.546875 -0.640625 
Q 12.796875 0.140625 7.71875 1.703125 
L 7.71875 11.625 
Q 12.109375 9.234375 16.796875 8.0625 
Q 21.484375 6.890625 26.703125 6.890625 
Q 35.15625 6.890625 40.078125 11.328125 
Q 45.015625 15.765625 45.015625 23.390625 
Q 45.015625 31 40.078125 35.4375 
Q 35.15625 39.890625 26.703125 39.890625 
Q 22.75 39.890625 18.8125 39.015625 
Q 14.890625 38.140625 10.796875 36.28125 
z
" id="DejaVuSans-53"/>
     <path d="M 11.71875 12.40625 
L 22.015625 12.40625 
L 22.015625 0 
L 11.71875 0 
z
M 11.71875 51.703125 
L 22.015625 51.703125 
L 22.015625 39.3125 
L 11.71875 39.3125 
z
" id="DejaVuSans-58"/>
    </defs>
    <g transform="translate(60.41088 37.004824)scale(0.102 -0.102)">
     <use xlink:href="#DejaVuSans-53"/>
     <use x="63.623047" xlink:href="#DejaVuSans-49"/>
     <use x="127.246094" xlink:href="#DejaVuSans-32"/>
     <use x="159.033203" xlink:href="#DejaVuSans-116"/>
     <use x="198.242188" xlink:href="#DejaVuSans-97"/>
     <use x="259.521484" xlink:href="#DejaVuSans-114"/>
     <use x="300.619141" xlink:href="#DejaVuSans-103"/>
     <use x="364.095703" xlink:href="#DejaVuSans-101"/>
     <use x="425.619141" xlink:href="#DejaVuSans-116"/>
     <use x="464.828125" xlink:href="#DejaVuSans-115"/>
     <use x="516.927734" xlink:href="#DejaVuSans-58"/>
     <use x="550.619141" xlink:href="#DejaVuSans-32"/>
     <use x="582.40625" xlink:href="#DejaVuSans-49"/>
     <use x="646.029297" xlink:href="#DejaVuSans-48"/>
     <use x="709.652344" xlink:href="#DejaVuSans-48"/>
     <use x="773.275391" xlink:href="#DejaVuSans-46"/>
     <use x="805.0625" xlink:href="#DejaVuSans-46"/>
     <use x="836.849609" xlink:href="#DejaVuSans-49"/>
     <use x="900.472656" xlink:href="#DejaVuSans-101"/>
     <use x="961.996094" xlink:href="#DejaVuSans-45"/>
     <use x="998.080078" xlink:href="#DejaVuSans-48"/>
     <use x="1061.703125" xlink:href="#DejaVuSans-56"/>
    </g>
    <!-- 15 instances -->
    <g transform="translate(60.41088 48.426593)scale(0.102 -0.102)">
     <use xlink:href="#DejaVuSans-49"/>
     <use x="63.623047" xlink:href="#DejaVuSans-53"/>
     <use x="127.246094" xlink:href="#DejaVuSans-32"/>
     <use x="159.033203" xlink:href="#DejaVuSans-105"/>
     <use x="186.816406" xlink:href="#DejaVuSans-110"/>
     <use x="250.195312" xlink:href="#DejaVuSans-115"/>
     <use x="302.294922" xlink:href="#DejaVuSans-116"/>
     <use x="341.503906" xlink:href="#DejaVuSans-97"/>
     <use x="402.783203" xlink:href="#DejaVuSans-110"/>
     <use x="466.162109" xlink:href="#DejaVuSans-99"/>
     <use x="521.142578" xlink:href="#DejaVuSans-101"/>
     <use x="582.666016" xlink:href="#DejaVuSans-115"/>
    </g>
   </g>
   <g id="text_19">
    <!-- v2.4 -->
    <g style="fill:#808080;" transform="translate(187.233062 293.909432)scale(0.1 -0.1)">
     <use xlink:href="#DejaVuSans-118"/>
     <use x="59.179688" xlink:href="#DejaVuSans-50"/>
     <use x="122.802734" xlink:href="#DejaVuSans-46"/>
     <use x="154.589844" xlink:href="#DejaVuSans-52"/>
    </g>
   </g>
  </g>
 </g>
 <defs>
  <clipPath id="pd8219e7295">
   <rect height="295.488" width="281.088" x="57.6" y="3.456"/>
  </clipPath>
 </defs>
</svg>
