<?xml version="1.0" encoding="utf-8" standalone="no"?>
<!DOCTYPE svg PUBLIC "-//W3C//DTD SVG 1.1//EN"
  "http://www.w3.org/Graphics/SVG/1.1/DTD/svg11.dtd">
<!-- Created with matplotlib (https://matplotlib.org/) -->
<svg height="345.6pt" version="1.1" viewBox="0 0 460.8 345.6" width="460.8pt" xmlns="http://www.w3.org/2000/svg" xmlns:xlink="http://www.w3.org/1999/xlink">
 <defs>
  <style type="text/css">
*{stroke-linecap:butt;stroke-linejoin:round;}
  </style>
 </defs>
 <g id="figure_1">
  <g id="patch_1">
   <path d="M 0 345.6 
L 460.8 345.6 
L 460.8 0 
L 0 0 
z
" style="fill:#ffffff;"/>
  </g>
  <g id="axes_1">
   <g id="patch_2">
    <path d="M 57.6 298.944 
L 338.688 298.944 
L 338.688 3.456 
L 57.6 3.456 
z
" style="fill:#ffffff;"/>
   </g>
   <g id="matplotlib.axis_1">
    <g id="xtick_1">
     <g id="line2d_1">
      <path clip-path="url(#p3b77bb83ad)" d="M 57.6 298.944 
L 57.6 3.456 
" style="fill:none;stroke:#b0b0b0;stroke-linecap:square;stroke-width:0.8;"/>
     </g>
     <g id="line2d_2">
      <defs>
       <path d="M 0 0 
L 0 3.5 
" id="mcbdfb32c81" style="stroke:#000000;stroke-width:0.8;"/>
      </defs>
      <g>
       <use style="stroke:#000000;stroke-width:0.8;" x="57.6" xlink:href="#mcbdfb32c81" y="298.944"/>
      </g>
     </g>
     <g id="text_1">
      <!-- 0 -->
      <defs>
       <path d="M 31.78125 66.40625 
Q 24.171875 66.40625 20.328125 58.90625 
Q 16.5 51.421875 16.5 36.375 
Q 16.5 21.390625 20.328125 13.890625 
Q 24.171875 6.390625 31.78125 6.390625 
Q 39.453125 6.390625 43.28125 13.890625 
Q 47.125 21.390625 47.125 36.375 
Q 47.125 51.421875 43.28125 58.90625 
Q 39.453125 66.40625 31.78125 66.40625 
z
M 31.78125 74.21875 
Q 44.046875 74.21875 50.515625 64.515625 
Q 56.984375 54.828125 56.984375 36.375 
Q 56.984375 17.96875 50.515625 8.265625 
Q 44.046875 -1.421875 31.78125 -1.421875 
Q 19.53125 -1.421875 13.0625 8.265625 
Q 6.59375 17.96875 6.59375 36.375 
Q 6.59375 54.828125 13.0625 64.515625 
Q 19.53125 74.21875 31.78125 74.21875 
z
" id="DejaVuSans-48"/>
      </defs>
      <g transform="translate(51.2375 321.140875)scale(0.2 -0.2)">
       <use xlink:href="#DejaVuSans-48"/>
      </g>
     </g>
    </g>
    <g id="xtick_2">
     <g id="line2d_3">
      <path clip-path="url(#p3b77bb83ad)" d="M 137.910857 298.944 
L 137.910857 3.456 
" style="fill:none;stroke:#b0b0b0;stroke-linecap:square;stroke-width:0.8;"/>
     </g>
     <g id="line2d_4">
      <g>
       <use style="stroke:#000000;stroke-width:0.8;" x="137.910857" xlink:href="#mcbdfb32c81" y="298.944"/>
      </g>
     </g>
     <g id="text_2">
      <!-- 2 -->
      <defs>
       <path d="M 19.1875 8.296875 
L 53.609375 8.296875 
L 53.609375 0 
L 7.328125 0 
L 7.328125 8.296875 
Q 12.9375 14.109375 22.625 23.890625 
Q 32.328125 33.6875 34.8125 36.53125 
Q 39.546875 41.84375 41.421875 45.53125 
Q 43.3125 49.21875 43.3125 52.78125 
Q 43.3125 58.59375 39.234375 62.25 
Q 35.15625 65.921875 28.609375 65.921875 
Q 23.96875 65.921875 18.8125 64.3125 
Q 13.671875 62.703125 7.8125 59.421875 
L 7.8125 69.390625 
Q 13.765625 71.78125 18.9375 73 
Q 24.125 74.21875 28.421875 74.21875 
Q 39.75 74.21875 46.484375 68.546875 
Q 53.21875 62.890625 53.21875 53.421875 
Q 53.21875 48.921875 51.53125 44.890625 
Q 49.859375 40.875 45.40625 35.40625 
Q 44.1875 33.984375 37.640625 27.21875 
Q 31.109375 20.453125 19.1875 8.296875 
z
" id="DejaVuSans-50"/>
      </defs>
      <g transform="translate(131.548357 321.140875)scale(0.2 -0.2)">
       <use xlink:href="#DejaVuSans-50"/>
      </g>
     </g>
    </g>
    <g id="xtick_3">
     <g id="line2d_5">
      <path clip-path="url(#p3b77bb83ad)" d="M 218.221714 298.944 
L 218.221714 3.456 
" style="fill:none;stroke:#b0b0b0;stroke-linecap:square;stroke-width:0.8;"/>
     </g>
     <g id="line2d_6">
      <g>
       <use style="stroke:#000000;stroke-width:0.8;" x="218.221714" xlink:href="#mcbdfb32c81" y="298.944"/>
      </g>
     </g>
     <g id="text_3">
      <!-- 4 -->
      <defs>
       <path d="M 37.796875 64.3125 
L 12.890625 25.390625 
L 37.796875 25.390625 
z
M 35.203125 72.90625 
L 47.609375 72.90625 
L 47.609375 25.390625 
L 58.015625 25.390625 
L 58.015625 17.1875 
L 47.609375 17.1875 
L 47.609375 0 
L 37.796875 0 
L 37.796875 17.1875 
L 4.890625 17.1875 
L 4.890625 26.703125 
z
" id="DejaVuSans-52"/>
      </defs>
      <g transform="translate(211.859214 321.140875)scale(0.2 -0.2)">
       <use xlink:href="#DejaVuSans-52"/>
      </g>
     </g>
    </g>
    <g id="xtick_4">
     <g id="line2d_7">
      <path clip-path="url(#p3b77bb83ad)" d="M 298.532571 298.944 
L 298.532571 3.456 
" style="fill:none;stroke:#b0b0b0;stroke-linecap:square;stroke-width:0.8;"/>
     </g>
     <g id="line2d_8">
      <g>
       <use style="stroke:#000000;stroke-width:0.8;" x="298.532571" xlink:href="#mcbdfb32c81" y="298.944"/>
      </g>
     </g>
     <g id="text_4">
      <!-- 6 -->
      <defs>
       <path d="M 33.015625 40.375 
Q 26.375 40.375 22.484375 35.828125 
Q 18.609375 31.296875 18.609375 23.390625 
Q 18.609375 15.53125 22.484375 10.953125 
Q 26.375 6.390625 33.015625 6.390625 
Q 39.65625 6.390625 43.53125 10.953125 
Q 47.40625 15.53125 47.40625 23.390625 
Q 47.40625 31.296875 43.53125 35.828125 
Q 39.65625 40.375 33.015625 40.375 
z
M 52.59375 71.296875 
L 52.59375 62.3125 
Q 48.875 64.0625 45.09375 64.984375 
Q 41.3125 65.921875 37.59375 65.921875 
Q 27.828125 65.921875 22.671875 59.328125 
Q 17.53125 52.734375 16.796875 39.40625 
Q 19.671875 43.65625 24.015625 45.921875 
Q 28.375 48.1875 33.59375 48.1875 
Q 44.578125 48.1875 50.953125 41.515625 
Q 57.328125 34.859375 57.328125 23.390625 
Q 57.328125 12.15625 50.6875 5.359375 
Q 44.046875 -1.421875 33.015625 -1.421875 
Q 20.359375 -1.421875 13.671875 8.265625 
Q 6.984375 17.96875 6.984375 36.375 
Q 6.984375 53.65625 15.1875 63.9375 
Q 23.390625 74.21875 37.203125 74.21875 
Q 40.921875 74.21875 44.703125 73.484375 
Q 48.484375 72.75 52.59375 71.296875 
z
" id="DejaVuSans-54"/>
      </defs>
      <g transform="translate(292.170071 321.140875)scale(0.2 -0.2)">
       <use xlink:href="#DejaVuSans-54"/>
      </g>
     </g>
    </g>
    <g id="xtick_5">
     <g id="line2d_9">
      <path clip-path="url(#p3b77bb83ad)" d="M 97.755429 298.944 
L 97.755429 3.456 
" style="fill:none;stroke:#b0b0b0;stroke-linecap:square;stroke-width:0.8;"/>
     </g>
     <g id="line2d_10">
      <defs>
       <path d="M 0 0 
L 0 2 
" id="mbdde9f1d4a" style="stroke:#000000;stroke-width:0.6;"/>
      </defs>
      <g>
       <use style="stroke:#000000;stroke-width:0.6;" x="97.755429" xlink:href="#mbdde9f1d4a" y="298.944"/>
      </g>
     </g>
    </g>
    <g id="xtick_6">
     <g id="line2d_11">
      <path clip-path="url(#p3b77bb83ad)" d="M 178.066286 298.944 
L 178.066286 3.456 
" style="fill:none;stroke:#b0b0b0;stroke-linecap:square;stroke-width:0.8;"/>
     </g>
     <g id="line2d_12">
      <g>
       <use style="stroke:#000000;stroke-width:0.6;" x="178.066286" xlink:href="#mbdde9f1d4a" y="298.944"/>
      </g>
     </g>
    </g>
    <g id="xtick_7">
     <g id="line2d_13">
      <path clip-path="url(#p3b77bb83ad)" d="M 258.377143 298.944 
L 258.377143 3.456 
" style="fill:none;stroke:#b0b0b0;stroke-linecap:square;stroke-width:0.8;"/>
     </g>
     <g id="line2d_14">
      <g>
       <use style="stroke:#000000;stroke-width:0.6;" x="258.377143" xlink:href="#mbdde9f1d4a" y="298.944"/>
      </g>
     </g>
    </g>
    <g id="xtick_8">
     <g id="line2d_15">
      <path clip-path="url(#p3b77bb83ad)" d="M 338.688 298.944 
L 338.688 3.456 
" style="fill:none;stroke:#b0b0b0;stroke-linecap:square;stroke-width:0.8;"/>
     </g>
     <g id="line2d_16">
      <g>
       <use style="stroke:#000000;stroke-width:0.6;" x="338.688" xlink:href="#mbdde9f1d4a" y="298.944"/>
      </g>
     </g>
    </g>
    <g id="text_5">
     <!-- log10(# f-evals / dimension) -->
     <defs>
      <path d="M 9.421875 75.984375 
L 18.40625 75.984375 
L 18.40625 0 
L 9.421875 0 
z
" id="DejaVuSans-108"/>
      <path d="M 30.609375 48.390625 
Q 23.390625 48.390625 19.1875 42.75 
Q 14.984375 37.109375 14.984375 27.296875 
Q 14.984375 17.484375 19.15625 11.84375 
Q 23.34375 6.203125 30.609375 6.203125 
Q 37.796875 6.203125 41.984375 11.859375 
Q 46.1875 17.53125 46.1875 27.296875 
Q 46.1875 37.015625 41.984375 42.703125 
Q 37.796875 48.390625 30.609375 48.390625 
z
M 30.609375 56 
Q 42.328125 56 49.015625 48.375 
Q 55.71875 40.765625 55.71875 27.296875 
Q 55.71875 13.875 49.015625 6.21875 
Q 42.328125 -1.421875 30.609375 -1.421875 
Q 18.84375 -1.421875 12.171875 6.21875 
Q 5.515625 13.875 5.515625 27.296875 
Q 5.515625 40.765625 12.171875 48.375 
Q 18.84375 56 30.609375 56 
z
" id="DejaVuSans-111"/>
      <path d="M 45.40625 27.984375 
Q 45.40625 37.75 41.375 43.109375 
Q 37.359375 48.484375 30.078125 48.484375 
Q 22.859375 48.484375 18.828125 43.109375 
Q 14.796875 37.75 14.796875 27.984375 
Q 14.796875 18.265625 18.828125 12.890625 
Q 22.859375 7.515625 30.078125 7.515625 
Q 37.359375 7.515625 41.375 12.890625 
Q 45.40625 18.265625 45.40625 27.984375 
z
M 54.390625 6.78125 
Q 54.390625 -7.171875 48.1875 -13.984375 
Q 42 -20.796875 29.203125 -20.796875 
Q 24.46875 -20.796875 20.265625 -20.09375 
Q 16.0625 -19.390625 12.109375 -17.921875 
L 12.109375 -9.1875 
Q 16.0625 -11.328125 19.921875 -12.34375 
Q 23.78125 -13.375 27.78125 -13.375 
Q 36.625 -13.375 41.015625 -8.765625 
Q 45.40625 -4.15625 45.40625 5.171875 
L 45.40625 9.625 
Q 42.625 4.78125 38.28125 2.390625 
Q 33.9375 0 27.875 0 
Q 17.828125 0 11.671875 7.65625 
Q 5.515625 15.328125 5.515625 27.984375 
Q 5.515625 40.671875 11.671875 48.328125 
Q 17.828125 56 27.875 56 
Q 33.9375 56 38.28125 53.609375 
Q 42.625 51.21875 45.40625 46.390625 
L 45.40625 54.6875 
L 54.390625 54.6875 
z
" id="DejaVuSans-103"/>
      <path d="M 12.40625 8.296875 
L 28.515625 8.296875 
L 28.515625 63.921875 
L 10.984375 60.40625 
L 10.984375 69.390625 
L 28.421875 72.90625 
L 38.28125 72.90625 
L 38.28125 8.296875 
L 54.390625 8.296875 
L 54.390625 0 
L 12.40625 0 
z
" id="DejaVuSans-49"/>
      <path d="M 31 75.875 
Q 24.46875 64.65625 21.28125 53.65625 
Q 18.109375 42.671875 18.109375 31.390625 
Q 18.109375 20.125 21.3125 9.0625 
Q 24.515625 -2 31 -13.1875 
L 23.1875 -13.1875 
Q 15.875 -1.703125 12.234375 9.375 
Q 8.59375 20.453125 8.59375 31.390625 
Q 8.59375 42.28125 12.203125 53.3125 
Q 15.828125 64.359375 23.1875 75.875 
z
" id="DejaVuSans-40"/>
      <path d="M 51.125 44 
L 36.921875 44 
L 32.8125 27.6875 
L 47.125 27.6875 
z
M 43.796875 71.78125 
L 38.71875 51.515625 
L 52.984375 51.515625 
L 58.109375 71.78125 
L 65.921875 71.78125 
L 60.890625 51.515625 
L 76.125 51.515625 
L 76.125 44 
L 58.984375 44 
L 54.984375 27.6875 
L 70.515625 27.6875 
L 70.515625 20.21875 
L 53.078125 20.21875 
L 48 0 
L 40.1875 0 
L 45.21875 20.21875 
L 30.90625 20.21875 
L 25.875 0 
L 18.015625 0 
L 23.09375 20.21875 
L 7.71875 20.21875 
L 7.71875 27.6875 
L 24.90625 27.6875 
L 29 44 
L 13.28125 44 
L 13.28125 51.515625 
L 30.90625 51.515625 
L 35.890625 71.78125 
z
" id="DejaVuSans-35"/>
      <path id="DejaVuSans-32"/>
      <path d="M 37.109375 75.984375 
L 37.109375 68.5 
L 28.515625 68.5 
Q 23.6875 68.5 21.796875 66.546875 
Q 19.921875 64.59375 19.921875 59.515625 
L 19.921875 54.6875 
L 34.71875 54.6875 
L 34.71875 47.703125 
L 19.921875 47.703125 
L 19.921875 0 
L 10.890625 0 
L 10.890625 47.703125 
L 2.296875 47.703125 
L 2.296875 54.6875 
L 10.890625 54.6875 
L 10.890625 58.5 
Q 10.890625 67.625 15.140625 71.796875 
Q 19.390625 75.984375 28.609375 75.984375 
z
" id="DejaVuSans-102"/>
      <path d="M 4.890625 31.390625 
L 31.203125 31.390625 
L 31.203125 23.390625 
L 4.890625 23.390625 
z
" id="DejaVuSans-45"/>
      <path d="M 56.203125 29.59375 
L 56.203125 25.203125 
L 14.890625 25.203125 
Q 15.484375 15.921875 20.484375 11.0625 
Q 25.484375 6.203125 34.421875 6.203125 
Q 39.59375 6.203125 44.453125 7.46875 
Q 49.3125 8.734375 54.109375 11.28125 
L 54.109375 2.78125 
Q 49.265625 0.734375 44.1875 -0.34375 
Q 39.109375 -1.421875 33.890625 -1.421875 
Q 20.796875 -1.421875 13.15625 6.1875 
Q 5.515625 13.8125 5.515625 26.8125 
Q 5.515625 40.234375 12.765625 48.109375 
Q 20.015625 56 32.328125 56 
Q 43.359375 56 49.78125 48.890625 
Q 56.203125 41.796875 56.203125 29.59375 
z
M 47.21875 32.234375 
Q 47.125 39.59375 43.09375 43.984375 
Q 39.0625 48.390625 32.421875 48.390625 
Q 24.90625 48.390625 20.390625 44.140625 
Q 15.875 39.890625 15.1875 32.171875 
z
" id="DejaVuSans-101"/>
      <path d="M 2.984375 54.6875 
L 12.5 54.6875 
L 29.59375 8.796875 
L 46.6875 54.6875 
L 56.203125 54.6875 
L 35.6875 0 
L 23.484375 0 
z
" id="DejaVuSans-118"/>
      <path d="M 34.28125 27.484375 
Q 23.390625 27.484375 19.1875 25 
Q 14.984375 22.515625 14.984375 16.5 
Q 14.984375 11.71875 18.140625 8.90625 
Q 21.296875 6.109375 26.703125 6.109375 
Q 34.1875 6.109375 38.703125 11.40625 
Q 43.21875 16.703125 43.21875 25.484375 
L 43.21875 27.484375 
z
M 52.203125 31.203125 
L 52.203125 0 
L 43.21875 0 
L 43.21875 8.296875 
Q 40.140625 3.328125 35.546875 0.953125 
Q 30.953125 -1.421875 24.3125 -1.421875 
Q 15.921875 -1.421875 10.953125 3.296875 
Q 6 8.015625 6 15.921875 
Q 6 25.140625 12.171875 29.828125 
Q 18.359375 34.515625 30.609375 34.515625 
L 43.21875 34.515625 
L 43.21875 35.40625 
Q 43.21875 41.609375 39.140625 45 
Q 35.0625 48.390625 27.6875 48.390625 
Q 23 48.390625 18.546875 47.265625 
Q 14.109375 46.140625 10.015625 43.890625 
L 10.015625 52.203125 
Q 14.9375 54.109375 19.578125 55.046875 
Q 24.21875 56 28.609375 56 
Q 40.484375 56 46.34375 49.84375 
Q 52.203125 43.703125 52.203125 31.203125 
z
" id="DejaVuSans-97"/>
      <path d="M 44.28125 53.078125 
L 44.28125 44.578125 
Q 40.484375 46.53125 36.375 47.5 
Q 32.28125 48.484375 27.875 48.484375 
Q 21.1875 48.484375 17.84375 46.4375 
Q 14.5 44.390625 14.5 40.28125 
Q 14.5 37.15625 16.890625 35.375 
Q 19.28125 33.59375 26.515625 31.984375 
L 29.59375 31.296875 
Q 39.15625 29.25 43.1875 25.515625 
Q 47.21875 21.78125 47.21875 15.09375 
Q 47.21875 7.46875 41.1875 3.015625 
Q 35.15625 -1.421875 24.609375 -1.421875 
Q 20.21875 -1.421875 15.453125 -0.5625 
Q 10.6875 0.296875 5.421875 2 
L 5.421875 11.28125 
Q 10.40625 8.6875 15.234375 7.390625 
Q 20.0625 6.109375 24.8125 6.109375 
Q 31.15625 6.109375 34.5625 8.28125 
Q 37.984375 10.453125 37.984375 14.40625 
Q 37.984375 18.0625 35.515625 20.015625 
Q 33.0625 21.96875 24.703125 23.78125 
L 21.578125 24.515625 
Q 13.234375 26.265625 9.515625 29.90625 
Q 5.8125 33.546875 5.8125 39.890625 
Q 5.8125 47.609375 11.28125 51.796875 
Q 16.75 56 26.8125 56 
Q 31.78125 56 36.171875 55.265625 
Q 40.578125 54.546875 44.28125 53.078125 
z
" id="DejaVuSans-115"/>
      <path d="M 25.390625 72.90625 
L 33.6875 72.90625 
L 8.296875 -9.28125 
L 0 -9.28125 
z
" id="DejaVuSans-47"/>
      <path d="M 45.40625 46.390625 
L 45.40625 75.984375 
L 54.390625 75.984375 
L 54.390625 0 
L 45.40625 0 
L 45.40625 8.203125 
Q 42.578125 3.328125 38.25 0.953125 
Q 33.9375 -1.421875 27.875 -1.421875 
Q 17.96875 -1.421875 11.734375 6.484375 
Q 5.515625 14.40625 5.515625 27.296875 
Q 5.515625 40.1875 11.734375 48.09375 
Q 17.96875 56 27.875 56 
Q 33.9375 56 38.25 53.625 
Q 42.578125 51.265625 45.40625 46.390625 
z
M 14.796875 27.296875 
Q 14.796875 17.390625 18.875 11.75 
Q 22.953125 6.109375 30.078125 6.109375 
Q 37.203125 6.109375 41.296875 11.75 
Q 45.40625 17.390625 45.40625 27.296875 
Q 45.40625 37.203125 41.296875 42.84375 
Q 37.203125 48.484375 30.078125 48.484375 
Q 22.953125 48.484375 18.875 42.84375 
Q 14.796875 37.203125 14.796875 27.296875 
z
" id="DejaVuSans-100"/>
      <path d="M 9.421875 54.6875 
L 18.40625 54.6875 
L 18.40625 0 
L 9.421875 0 
z
M 9.421875 75.984375 
L 18.40625 75.984375 
L 18.40625 64.59375 
L 9.421875 64.59375 
z
" id="DejaVuSans-105"/>
      <path d="M 52 44.1875 
Q 55.375 50.25 60.0625 53.125 
Q 64.75 56 71.09375 56 
Q 79.640625 56 84.28125 50.015625 
Q 88.921875 44.046875 88.921875 33.015625 
L 88.921875 0 
L 79.890625 0 
L 79.890625 32.71875 
Q 79.890625 40.578125 77.09375 44.375 
Q 74.3125 48.1875 68.609375 48.1875 
Q 61.625 48.1875 57.5625 43.546875 
Q 53.515625 38.921875 53.515625 30.90625 
L 53.515625 0 
L 44.484375 0 
L 44.484375 32.71875 
Q 44.484375 40.625 41.703125 44.40625 
Q 38.921875 48.1875 33.109375 48.1875 
Q 26.21875 48.1875 22.15625 43.53125 
Q 18.109375 38.875 18.109375 30.90625 
L 18.109375 0 
L 9.078125 0 
L 9.078125 54.6875 
L 18.109375 54.6875 
L 18.109375 46.1875 
Q 21.1875 51.21875 25.484375 53.609375 
Q 29.78125 56 35.6875 56 
Q 41.65625 56 45.828125 52.96875 
Q 50 49.953125 52 44.1875 
z
" id="DejaVuSans-109"/>
      <path d="M 54.890625 33.015625 
L 54.890625 0 
L 45.90625 0 
L 45.90625 32.71875 
Q 45.90625 40.484375 42.875 44.328125 
Q 39.84375 48.1875 33.796875 48.1875 
Q 26.515625 48.1875 22.3125 43.546875 
Q 18.109375 38.921875 18.109375 30.90625 
L 18.109375 0 
L 9.078125 0 
L 9.078125 54.6875 
L 18.109375 54.6875 
L 18.109375 46.1875 
Q 21.34375 51.125 25.703125 53.5625 
Q 30.078125 56 35.796875 56 
Q 45.21875 56 50.046875 50.171875 
Q 54.890625 44.34375 54.890625 33.015625 
z
" id="DejaVuSans-110"/>
      <path d="M 8.015625 75.875 
L 15.828125 75.875 
Q 23.140625 64.359375 26.78125 53.3125 
Q 30.421875 42.28125 30.421875 31.390625 
Q 30.421875 20.453125 26.78125 9.375 
Q 23.140625 -1.703125 15.828125 -13.1875 
L 8.015625 -13.1875 
Q 14.5 -2 17.703125 9.0625 
Q 20.90625 20.125 20.90625 31.390625 
Q 20.90625 42.671875 17.703125 53.65625 
Q 14.5 64.65625 8.015625 75.875 
z
" id="DejaVuSans-41"/>
     </defs>
     <g transform="translate(77.303219 342.217594)scale(0.17 -0.17)">
      <use xlink:href="#DejaVuSans-108"/>
      <use x="27.783203" xlink:href="#DejaVuSans-111"/>
      <use x="88.964844" xlink:href="#DejaVuSans-103"/>
      <use x="152.441406" xlink:href="#DejaVuSans-49"/>
      <use x="216.064453" xlink:href="#DejaVuSans-48"/>
      <use x="279.6875" xlink:href="#DejaVuSans-40"/>
      <use x="318.701172" xlink:href="#DejaVuSans-35"/>
      <use x="402.490234" xlink:href="#DejaVuSans-32"/>
      <use x="434.277344" xlink:href="#DejaVuSans-102"/>
      <use x="469.404297" xlink:href="#DejaVuSans-45"/>
      <use x="505.488281" xlink:href="#DejaVuSans-101"/>
      <use x="567.011719" xlink:href="#DejaVuSans-118"/>
      <use x="626.191406" xlink:href="#DejaVuSans-97"/>
      <use x="687.470703" xlink:href="#DejaVuSans-108"/>
      <use x="715.253906" xlink:href="#DejaVuSans-115"/>
      <use x="767.353516" xlink:href="#DejaVuSans-32"/>
      <use x="799.140625" xlink:href="#DejaVuSans-47"/>
      <use x="832.832031" xlink:href="#DejaVuSans-32"/>
      <use x="864.619141" xlink:href="#DejaVuSans-100"/>
      <use x="928.095703" xlink:href="#DejaVuSans-105"/>
      <use x="955.878906" xlink:href="#DejaVuSans-109"/>
      <use x="1053.291016" xlink:href="#DejaVuSans-101"/>
      <use x="1114.814453" xlink:href="#DejaVuSans-110"/>
      <use x="1178.193359" xlink:href="#DejaVuSans-115"/>
      <use x="1230.292969" xlink:href="#DejaVuSans-105"/>
      <use x="1258.076172" xlink:href="#DejaVuSans-111"/>
      <use x="1319.257812" xlink:href="#DejaVuSans-110"/>
      <use x="1382.636719" xlink:href="#DejaVuSans-41"/>
     </g>
    </g>
   </g>
   <g id="matplotlib.axis_2">
    <g id="ytick_1">
     <g id="line2d_17">
      <path clip-path="url(#p3b77bb83ad)" d="M 57.6 298.944 
L 338.688 298.944 
" style="fill:none;stroke:#b0b0b0;stroke-linecap:square;stroke-width:0.8;"/>
     </g>
     <g id="line2d_18">
      <defs>
       <path d="M 0 0 
L -3.5 0 
" id="meaaa22336e" style="stroke:#000000;stroke-width:0.8;"/>
      </defs>
      <g>
       <use style="stroke:#000000;stroke-width:0.8;" x="57.6" xlink:href="#meaaa22336e" y="298.944"/>
      </g>
     </g>
     <g id="text_6">
      <!-- 0.0 -->
      <defs>
       <path d="M 10.6875 12.40625 
L 21 12.40625 
L 21 0 
L 10.6875 0 
z
" id="DejaVuSans-46"/>
      </defs>
      <g transform="translate(25.155 305.02275)scale(0.16 -0.16)">
       <use xlink:href="#DejaVuSans-48"/>
       <use x="63.623047" xlink:href="#DejaVuSans-46"/>
       <use x="95.410156" xlink:href="#DejaVuSans-48"/>
      </g>
     </g>
    </g>
    <g id="ytick_2">
     <g id="line2d_19">
      <path clip-path="url(#p3b77bb83ad)" d="M 57.6 240.431525 
L 338.688 240.431525 
" style="fill:none;stroke:#b0b0b0;stroke-linecap:square;stroke-width:0.8;"/>
     </g>
     <g id="line2d_20">
      <g>
       <use style="stroke:#000000;stroke-width:0.8;" x="57.6" xlink:href="#meaaa22336e" y="240.431525"/>
      </g>
     </g>
     <g id="text_7">
      <!-- 0.2 -->
      <g transform="translate(25.155 246.510275)scale(0.16 -0.16)">
       <use xlink:href="#DejaVuSans-48"/>
       <use x="63.623047" xlink:href="#DejaVuSans-46"/>
       <use x="95.410156" xlink:href="#DejaVuSans-50"/>
      </g>
     </g>
    </g>
    <g id="ytick_3">
     <g id="line2d_21">
      <path clip-path="url(#p3b77bb83ad)" d="M 57.6 181.91905 
L 338.688 181.91905 
" style="fill:none;stroke:#b0b0b0;stroke-linecap:square;stroke-width:0.8;"/>
     </g>
     <g id="line2d_22">
      <g>
       <use style="stroke:#000000;stroke-width:0.8;" x="57.6" xlink:href="#meaaa22336e" y="181.91905"/>
      </g>
     </g>
     <g id="text_8">
      <!-- 0.4 -->
      <g transform="translate(25.155 187.9978)scale(0.16 -0.16)">
       <use xlink:href="#DejaVuSans-48"/>
       <use x="63.623047" xlink:href="#DejaVuSans-46"/>
       <use x="95.410156" xlink:href="#DejaVuSans-52"/>
      </g>
     </g>
    </g>
    <g id="ytick_4">
     <g id="line2d_23">
      <path clip-path="url(#p3b77bb83ad)" d="M 57.6 123.406574 
L 338.688 123.406574 
" style="fill:none;stroke:#b0b0b0;stroke-linecap:square;stroke-width:0.8;"/>
     </g>
     <g id="line2d_24">
      <g>
       <use style="stroke:#000000;stroke-width:0.8;" x="57.6" xlink:href="#meaaa22336e" y="123.406574"/>
      </g>
     </g>
     <g id="text_9">
      <!-- 0.6 -->
      <g transform="translate(25.155 129.485324)scale(0.16 -0.16)">
       <use xlink:href="#DejaVuSans-48"/>
       <use x="63.623047" xlink:href="#DejaVuSans-46"/>
       <use x="95.410156" xlink:href="#DejaVuSans-54"/>
      </g>
     </g>
    </g>
    <g id="ytick_5">
     <g id="line2d_25">
      <path clip-path="url(#p3b77bb83ad)" d="M 57.6 64.894099 
L 338.688 64.894099 
" style="fill:none;stroke:#b0b0b0;stroke-linecap:square;stroke-width:0.8;"/>
     </g>
     <g id="line2d_26">
      <g>
       <use style="stroke:#000000;stroke-width:0.8;" x="57.6" xlink:href="#meaaa22336e" y="64.894099"/>
      </g>
     </g>
     <g id="text_10">
      <!-- 0.8 -->
      <defs>
       <path d="M 31.78125 34.625 
Q 24.75 34.625 20.71875 30.859375 
Q 16.703125 27.09375 16.703125 20.515625 
Q 16.703125 13.921875 20.71875 10.15625 
Q 24.75 6.390625 31.78125 6.390625 
Q 38.8125 6.390625 42.859375 10.171875 
Q 46.921875 13.96875 46.921875 20.515625 
Q 46.921875 27.09375 42.890625 30.859375 
Q 38.875 34.625 31.78125 34.625 
z
M 21.921875 38.8125 
Q 15.578125 40.375 12.03125 44.71875 
Q 8.5 49.078125 8.5 55.328125 
Q 8.5 64.0625 14.71875 69.140625 
Q 20.953125 74.21875 31.78125 74.21875 
Q 42.671875 74.21875 48.875 69.140625 
Q 55.078125 64.0625 55.078125 55.328125 
Q 55.078125 49.078125 51.53125 44.71875 
Q 48 40.375 41.703125 38.8125 
Q 48.828125 37.15625 52.796875 32.3125 
Q 56.78125 27.484375 56.78125 20.515625 
Q 56.78125 9.90625 50.3125 4.234375 
Q 43.84375 -1.421875 31.78125 -1.421875 
Q 19.734375 -1.421875 13.25 4.234375 
Q 6.78125 9.90625 6.78125 20.515625 
Q 6.78125 27.484375 10.78125 32.3125 
Q 14.796875 37.15625 21.921875 38.8125 
z
M 18.3125 54.390625 
Q 18.3125 48.734375 21.84375 45.5625 
Q 25.390625 42.390625 31.78125 42.390625 
Q 38.140625 42.390625 41.71875 45.5625 
Q 45.3125 48.734375 45.3125 54.390625 
Q 45.3125 60.0625 41.71875 63.234375 
Q 38.140625 66.40625 31.78125 66.40625 
Q 25.390625 66.40625 21.84375 63.234375 
Q 18.3125 60.0625 18.3125 54.390625 
z
" id="DejaVuSans-56"/>
      </defs>
      <g transform="translate(25.155 70.972849)scale(0.16 -0.16)">
       <use xlink:href="#DejaVuSans-48"/>
       <use x="63.623047" xlink:href="#DejaVuSans-46"/>
       <use x="95.410156" xlink:href="#DejaVuSans-56"/>
      </g>
     </g>
    </g>
    <g id="ytick_6">
     <g id="line2d_27">
      <path clip-path="url(#p3b77bb83ad)" d="M 57.6 6.381624 
L 338.688 6.381624 
" style="fill:none;stroke:#b0b0b0;stroke-linecap:square;stroke-width:0.8;"/>
     </g>
     <g id="line2d_28">
      <g>
       <use style="stroke:#000000;stroke-width:0.8;" x="57.6" xlink:href="#meaaa22336e" y="6.381624"/>
      </g>
     </g>
     <g id="text_11">
      <!-- 1.0 -->
      <g transform="translate(25.155 12.460374)scale(0.16 -0.16)">
       <use xlink:href="#DejaVuSans-49"/>
       <use x="63.623047" xlink:href="#DejaVuSans-46"/>
       <use x="95.410156" xlink:href="#DejaVuSans-48"/>
      </g>
     </g>
    </g>
    <g id="text_12">
     <!-- Fraction of function,target pairs -->
     <defs>
      <path d="M 9.8125 72.90625 
L 51.703125 72.90625 
L 51.703125 64.59375 
L 19.671875 64.59375 
L 19.671875 43.109375 
L 48.578125 43.109375 
L 48.578125 34.8125 
L 19.671875 34.8125 
L 19.671875 0 
L 9.8125 0 
z
" id="DejaVuSans-70"/>
      <path d="M 41.109375 46.296875 
Q 39.59375 47.171875 37.8125 47.578125 
Q 36.03125 48 33.890625 48 
Q 26.265625 48 22.1875 43.046875 
Q 18.109375 38.09375 18.109375 28.8125 
L 18.109375 0 
L 9.078125 0 
L 9.078125 54.6875 
L 18.109375 54.6875 
L 18.109375 46.1875 
Q 20.953125 51.171875 25.484375 53.578125 
Q 30.03125 56 36.53125 56 
Q 37.453125 56 38.578125 55.875 
Q 39.703125 55.765625 41.0625 55.515625 
z
" id="DejaVuSans-114"/>
      <path d="M 48.78125 52.59375 
L 48.78125 44.1875 
Q 44.96875 46.296875 41.140625 47.34375 
Q 37.3125 48.390625 33.40625 48.390625 
Q 24.65625 48.390625 19.8125 42.84375 
Q 14.984375 37.3125 14.984375 27.296875 
Q 14.984375 17.28125 19.8125 11.734375 
Q 24.65625 6.203125 33.40625 6.203125 
Q 37.3125 6.203125 41.140625 7.25 
Q 44.96875 8.296875 48.78125 10.40625 
L 48.78125 2.09375 
Q 45.015625 0.34375 40.984375 -0.53125 
Q 36.96875 -1.421875 32.421875 -1.421875 
Q 20.0625 -1.421875 12.78125 6.34375 
Q 5.515625 14.109375 5.515625 27.296875 
Q 5.515625 40.671875 12.859375 48.328125 
Q 20.21875 56 33.015625 56 
Q 37.15625 56 41.109375 55.140625 
Q 45.0625 54.296875 48.78125 52.59375 
z
" id="DejaVuSans-99"/>
      <path d="M 18.3125 70.21875 
L 18.3125 54.6875 
L 36.8125 54.6875 
L 36.8125 47.703125 
L 18.3125 47.703125 
L 18.3125 18.015625 
Q 18.3125 11.328125 20.140625 9.421875 
Q 21.96875 7.515625 27.59375 7.515625 
L 36.8125 7.515625 
L 36.8125 0 
L 27.59375 0 
Q 17.1875 0 13.234375 3.875 
Q 9.28125 7.765625 9.28125 18.015625 
L 9.28125 47.703125 
L 2.6875 47.703125 
L 2.6875 54.6875 
L 9.28125 54.6875 
L 9.28125 70.21875 
z
" id="DejaVuSans-116"/>
      <path d="M 8.5 21.578125 
L 8.5 54.6875 
L 17.484375 54.6875 
L 17.484375 21.921875 
Q 17.484375 14.15625 20.5 10.265625 
Q 23.53125 6.390625 29.59375 6.390625 
Q 36.859375 6.390625 41.078125 11.03125 
Q 45.3125 15.671875 45.3125 23.6875 
L 45.3125 54.6875 
L 54.296875 54.6875 
L 54.296875 0 
L 45.3125 0 
L 45.3125 8.40625 
Q 42.046875 3.421875 37.71875 1 
Q 33.40625 -1.421875 27.6875 -1.421875 
Q 18.265625 -1.421875 13.375 4.4375 
Q 8.5 10.296875 8.5 21.578125 
z
M 31.109375 56 
z
" id="DejaVuSans-117"/>
      <path d="M 11.71875 12.40625 
L 22.015625 12.40625 
L 22.015625 4 
L 14.015625 -11.625 
L 7.71875 -11.625 
L 11.71875 4 
z
" id="DejaVuSans-44"/>
      <path d="M 18.109375 8.203125 
L 18.109375 -20.796875 
L 9.078125 -20.796875 
L 9.078125 54.6875 
L 18.109375 54.6875 
L 18.109375 46.390625 
Q 20.953125 51.265625 25.265625 53.625 
Q 29.59375 56 35.59375 56 
Q 45.5625 56 51.78125 48.09375 
Q 58.015625 40.1875 58.015625 27.296875 
Q 58.015625 14.40625 51.78125 6.484375 
Q 45.5625 -1.421875 35.59375 -1.421875 
Q 29.59375 -1.421875 25.265625 0.953125 
Q 20.953125 3.328125 18.109375 8.203125 
z
M 48.6875 27.296875 
Q 48.6875 37.203125 44.609375 42.84375 
Q 40.53125 48.484375 33.40625 48.484375 
Q 26.265625 48.484375 22.1875 42.84375 
Q 18.109375 37.203125 18.109375 27.296875 
Q 18.109375 17.390625 22.1875 11.75 
Q 26.265625 6.109375 33.40625 6.109375 
Q 40.53125 6.109375 44.609375 11.75 
Q 48.6875 17.390625 48.6875 27.296875 
z
" id="DejaVuSans-112"/>
     </defs>
     <g transform="translate(17.619531 286.339375)rotate(-90)scale(0.17 -0.17)">
      <use xlink:href="#DejaVuSans-70"/>
      <use x="57.410156" xlink:href="#DejaVuSans-114"/>
      <use x="98.523438" xlink:href="#DejaVuSans-97"/>
      <use x="159.802734" xlink:href="#DejaVuSans-99"/>
      <use x="214.783203" xlink:href="#DejaVuSans-116"/>
      <use x="253.992188" xlink:href="#DejaVuSans-105"/>
      <use x="281.775391" xlink:href="#DejaVuSans-111"/>
      <use x="342.957031" xlink:href="#DejaVuSans-110"/>
      <use x="406.335938" xlink:href="#DejaVuSans-32"/>
      <use x="438.123047" xlink:href="#DejaVuSans-111"/>
      <use x="499.304688" xlink:href="#DejaVuSans-102"/>
      <use x="534.509766" xlink:href="#DejaVuSans-32"/>
      <use x="566.296875" xlink:href="#DejaVuSans-102"/>
      <use x="601.501953" xlink:href="#DejaVuSans-117"/>
      <use x="664.880859" xlink:href="#DejaVuSans-110"/>
      <use x="728.259766" xlink:href="#DejaVuSans-99"/>
      <use x="783.240234" xlink:href="#DejaVuSans-116"/>
      <use x="822.449219" xlink:href="#DejaVuSans-105"/>
      <use x="850.232422" xlink:href="#DejaVuSans-111"/>
      <use x="911.414062" xlink:href="#DejaVuSans-110"/>
      <use x="974.792969" xlink:href="#DejaVuSans-44"/>
      <use x="1006.580078" xlink:href="#DejaVuSans-116"/>
      <use x="1045.789062" xlink:href="#DejaVuSans-97"/>
      <use x="1107.068359" xlink:href="#DejaVuSans-114"/>
      <use x="1148.166016" xlink:href="#DejaVuSans-103"/>
      <use x="1211.642578" xlink:href="#DejaVuSans-101"/>
      <use x="1273.166016" xlink:href="#DejaVuSans-116"/>
      <use x="1312.375" xlink:href="#DejaVuSans-32"/>
      <use x="1344.162109" xlink:href="#DejaVuSans-112"/>
      <use x="1407.638672" xlink:href="#DejaVuSans-97"/>
      <use x="1468.917969" xlink:href="#DejaVuSans-105"/>
      <use x="1496.701172" xlink:href="#DejaVuSans-114"/>
      <use x="1537.814453" xlink:href="#DejaVuSans-115"/>
     </g>
    </g>
   </g>
   <g id="line2d_29">
    <defs>
     <path d="M 0 1.5 
C 0.397805 1.5 0.77937 1.341951 1.06066 1.06066 
C 1.341951 0.77937 1.5 0.397805 1.5 0 
C 1.5 -0.397805 1.341951 -0.77937 1.06066 -1.06066 
C 0.77937 -1.341951 0.397805 -1.5 0 -1.5 
C -0.397805 -1.5 -0.77937 -1.341951 -1.06066 -1.06066 
C -1.341951 -0.77937 -1.5 -0.397805 -1.5 0 
C -1.5 0.397805 -1.341951 0.77937 -1.06066 1.06066 
C -0.77937 1.341951 -0.397805 1.5 0 1.5 
z
" id="ma178c1114f" style="stroke:#00bfbf;"/>
    </defs>
    <g>
     <use style="fill:#00bfbf;stroke:#00bfbf;" x="216.57892" xlink:href="#ma178c1114f" y="227.811187"/>
     <use style="fill:#00bfbf;stroke:#00bfbf;" x="216.57892" xlink:href="#ma178c1114f" y="227.811187"/>
    </g>
   </g>
   <g id="line2d_30">
    <path d="M 45.512012 298.944 
L 45.512012 288.159348 
L 57.6 288.159348 
L 57.6 285.52055 
L 64.67102 285.52055 
L 64.67102 281.963909 
L 69.687988 281.963909 
L 69.687988 280.472415 
L 73.579452 280.472415 
L 73.579452 278.292538 
L 76.759008 278.292538 
L 76.759008 277.604156 
L 79.447285 277.604156 
L 79.447285 277.030504 
L 81.775977 277.030504 
L 81.775977 276.227392 
L 83.830028 276.227392 
L 83.830028 275.768471 
L 85.66744 275.768471 
L 85.66744 274.965358 
L 87.329581 274.965358 
L 87.329581 274.621167 
L 88.846997 274.621167 
L 88.846997 274.391706 
L 90.242884 274.391706 
L 90.242884 273.703324 
L 91.535274 273.703324 
L 91.535274 273.014942 
L 92.73846 273.014942 
L 92.73846 272.670751 
L 93.863965 272.670751 
L 93.863965 272.32656 
L 94.921215 272.32656 
L 94.921215 271.982369 
L 95.918017 271.982369 
L 95.918017 271.293987 
L 96.86091 271.293987 
L 96.86091 270.949796 
L 97.755429 270.949796 
L 97.755429 270.835066 
L 98.606294 270.835066 
L 98.606294 270.720335 
L 99.41757 270.720335 
L 99.41757 270.376144 
L 100.192776 270.376144 
L 100.192776 269.573032 
L 100.934985 269.573032 
L 100.934985 269.458302 
L 101.646892 269.458302 
L 101.646892 269.114111 
L 102.330873 269.114111 
L 102.330873 268.99938 
L 103.623262 268.99938 
L 103.623262 268.540459 
L 104.23523 268.540459 
L 104.23523 267.966807 
L 105.398279 267.966807 
L 105.398279 267.852077 
L 106.48859 267.852077 
L 106.48859 267.048964 
L 107.009204 267.048964 
L 107.009204 266.934234 
L 108.483824 266.934234 
L 108.483824 266.475313 
L 108.948899 266.475313 
L 108.948899 266.360582 
L 109.843417 266.360582 
L 109.843417 266.245852 
L 110.274038 266.245852 
L 110.274038 266.016391 
L 110.694282 266.016391 
L 110.694282 265.6722 
L 111.104637 265.6722 
L 111.104637 265.55747 
L 111.505558 265.55747 
L 111.505558 264.754358 
L 112.280765 264.754358 
L 112.280765 264.524897 
L 113.022974 264.524897 
L 113.022974 264.180706 
L 113.73488 264.180706 
L 113.73488 264.065976 
L 114.418861 264.065976 
L 114.418861 263.951245 
L 114.751048 263.951245 
L 114.751048 263.492324 
L 115.077025 263.492324 
L 115.077025 263.262863 
L 115.397021 263.262863 
L 115.397021 262.34502 
L 115.711251 262.34502 
L 115.711251 262.23029 
L 116.019919 262.23029 
L 116.019919 262.11556 
L 116.621333 262.11556 
L 116.621333 261.771369 
L 117.202696 261.771369 
L 117.202696 261.656638 
L 126.168212 261.656638 
L 126.168212 261.427178 
L 126.338353 261.427178 
L 126.338353 261.082987 
L 126.50685 261.082987 
L 126.50685 260.394605 
L 126.673734 260.394605 
L 126.673734 260.165144 
L 126.839037 260.165144 
L 126.839037 260.050414 
L 127.002787 260.050414 
L 127.002787 259.362031 
L 127.165014 259.362031 
L 127.165014 259.247301 
L 127.325746 259.247301 
L 127.325746 259.132571 
L 127.642832 259.132571 
L 127.642832 259.01784 
L 127.799239 259.01784 
L 127.799239 258.90311 
L 133.124876 258.90311 
L 133.124876 258.673649 
L 133.239232 258.673649 
L 133.239232 257.870537 
L 133.800029 257.870537 
L 133.910056 256.837964 
L 134.343353 256.837964 
L 134.343353 256.493773 
L 138.084384 256.493773 
L 138.170504 255.57593 
L 138.341479 255.57593 
L 138.426341 255.117009 
L 138.510793 255.117009 
L 138.594838 254.428627 
L 138.67848 254.428627 
L 138.67848 254.313896 
L 138.927025 254.313896 
L 138.927025 254.084436 
L 142.351634 254.084436 
L 142.351634 253.969705 
L 143.964547 253.969705 
L 143.964547 253.854975 
L 144.209312 253.854975 
L 144.209312 253.625514 
L 145.212864 253.625514 
L 145.270136 253.166593 
L 145.384119 253.166593 
L 145.440832 252.937132 
L 147.769524 252.937132 
L 147.818997 252.707672 
L 148.015498 252.707672 
L 148.112924 252.24875 
L 150.129152 252.24875 
L 150.129152 251.789829 
L 150.344189 251.789829 
L 150.38688 251.101447 
L 152.130233 251.101447 
L 152.168773 249.954143 
L 152.245598 249.954143 
L 152.322086 249.495222 
L 152.360205 249.495222 
L 152.360205 248.80684 
L 152.587184 248.80684 
L 152.587184 248.692109 
L 153.959927 248.692109 
L 153.959927 248.577379 
L 154.167129 248.577379 
L 154.167129 248.347918 
L 155.135299 248.347918 
L 155.167744 248.118458 
L 155.361158 248.118458 
L 155.361158 247.888997 
L 155.773004 247.888997 
L 155.773004 247.659536 
L 157.1279 247.659536 
L 157.156845 247.200615 
L 157.272146 247.200615 
L 157.272146 246.856424 
L 158.546057 246.856424 
L 158.546057 246.626963 
L 158.67908 246.626963 
L 158.67908 246.512233 
L 159.807898 246.512233 
L 159.882266 245.823851 
L 159.956318 245.823851 
L 160.054568 245.36493 
L 161.801118 245.36493 
L 161.801118 245.250199 
L 161.955547 245.250199 
L 161.955547 244.906008 
L 163.287113 244.906008 
L 163.287113 244.791278 
L 165.120455 244.791278 
L 165.230021 243.988165 
L 166.013141 243.988165 
L 166.117256 243.758705 
L 166.151824 243.758705 
L 166.151824 243.643974 
L 166.6119 243.643974 
L 166.6119 243.414514 
L 166.7626 243.414514 
L 166.7626 243.070323 
L 166.91201 243.070323 
L 166.91201 242.840862 
L 167.687935 242.840862 
L 167.751064 242.611401 
L 168.46108 242.611401 
L 168.46108 242.496671 
L 169.186895 242.496671 
L 169.230367 241.808289 
L 170.499999 241.808289 
L 170.59394 241.578828 
L 171.250617 241.578828 
L 171.302098 241.234637 
L 171.883461 241.234637 
L 171.945501 240.775716 
L 172.482136 240.775716 
L 172.554051 240.202064 
L 175.252577 240.202064 
L 175.313947 239.398952 
L 175.817135 239.398952 
L 175.836964 239.169491 
L 176.772554 239.169491 
L 176.772554 239.054761 
L 177.199282 239.054761 
L 177.199282 238.94003 
L 177.642639 238.94003 
L 177.65157 238.366379 
L 178.44579 238.366379 
L 178.53939 237.907457 
L 178.975185 237.907457 
L 178.975185 237.792727 
L 179.744273 237.792727 
L 179.768016 237.333805 
L 180.45808 237.333805 
L 180.45808 237.219075 
L 180.930556 237.219075 
L 180.930556 236.874884 
L 181.619658 236.874884 
L 181.640982 236.530693 
L 182.661841 236.530693 
L 182.661841 236.415963 
L 183.312807 236.415963 
L 183.35149 235.957041 
L 183.852963 235.957041 
L 183.852963 235.842311 
L 184.285568 235.842311 
L 184.285568 235.727581 
L 184.564118 235.727581 
L 184.564118 235.61285 
L 184.856021 235.61285 
L 184.856021 235.153929 
L 185.402679 235.153929 
L 185.44271 234.924468 
L 186.273707 234.924468 
L 186.290039 234.580277 
L 187.58476 234.580277 
L 187.615046 234.006626 
L 188.571736 234.006626 
L 188.571736 233.891895 
L 189.065933 233.891895 
L 189.065933 233.777165 
L 189.199993 233.777165 
L 189.199993 233.662434 
L 189.519403 233.662434 
L 189.519403 233.547704 
L 189.943737 233.547704 
L 189.970194 233.088783 
L 191.025888 233.088783 
L 191.025888 232.974052 
L 191.399264 232.974052 
L 191.427657 232.744592 
L 192.021307 232.744592 
L 192.021307 232.515131 
L 192.974094 232.515131 
L 192.996333 232.05621 
L 193.539703 232.05621 
L 193.539703 231.941479 
L 193.877511 231.941479 
L 193.877511 231.597288 
L 194.205445 231.597288 
L 194.205445 231.482558 
L 194.571377 231.482558 
L 194.571377 231.367828 
L 194.736424 231.367828 
L 194.736424 230.908906 
L 194.929789 230.908906 
L 194.929789 230.794176 
L 195.574195 230.794176 
L 195.574195 230.679446 
L 196.355235 230.679446 
L 196.355235 230.335255 
L 197.085219 230.335255 
L 197.085219 229.991063 
L 198.065083 229.991063 
L 198.065083 229.876333 
L 199.793576 229.876333 
L 199.793576 229.761603 
L 200.409695 229.761603 
L 200.424217 229.532142 
L 200.889738 229.532142 
L 200.889738 229.417412 
L 202.677137 229.417412 
L 202.677137 229.302681 
L 202.875865 229.302681 
L 202.875865 229.187951 
L 203.213128 229.187951 
L 203.213128 229.073221 
L 203.721124 229.073221 
L 203.721124 228.95849 
L 204.203056 228.95849 
L 204.203056 228.84376 
L 204.683401 228.84376 
L 204.683401 228.72903 
L 205.156404 228.72903 
L 205.156404 228.499569 
L 205.774286 228.499569 
L 205.774286 228.384839 
L 206.904686 228.384839 
L 206.904686 228.270108 
L 207.316903 228.270108 
L 207.316903 228.155378 
L 209.243386 228.155378 
L 209.243386 228.040648 
L 211.633979 228.040648 
L 211.633979 227.925917 
L 216.57892 227.925917 
L 216.57892 227.811187 
L 338.688 227.811187 
L 338.688 227.811187 
" style="fill:none;stroke:#00bfbf;stroke-linecap:square;stroke-width:1.5;"/>
   </g>
   <g id="line2d_31">
    <defs>
     <path d="M -6 0 
L 6 0 
M 0 6 
L 0 -6 
" id="m0a6e00aec3" style="stroke:#00bfbf;stroke-width:1.5;"/>
    </defs>
    <g>
     <use style="fill-opacity:0;stroke:#00bfbf;stroke-width:1.5;" x="94.921215" xlink:href="#m0a6e00aec3" y="272.32656"/>
     <use style="fill-opacity:0;stroke:#00bfbf;stroke-width:1.5;" x="150.129152" xlink:href="#m0a6e00aec3" y="252.24875"/>
     <use style="fill-opacity:0;stroke:#00bfbf;stroke-width:1.5;" x="194.736424" xlink:href="#m0a6e00aec3" y="231.367828"/>
     <use style="fill-opacity:0;stroke:#00bfbf;stroke-width:1.5;" x="216.57892" xlink:href="#m0a6e00aec3" y="227.811187"/>
     <use style="fill-opacity:0;stroke:#00bfbf;stroke-width:1.5;" x="216.57892" xlink:href="#m0a6e00aec3" y="227.811187"/>
     <use style="fill-opacity:0;stroke:#00bfbf;stroke-width:1.5;" x="338.688" xlink:href="#m0a6e00aec3" y="227.811187"/>
    </g>
   </g>
   <g id="line2d_32">
    <path style="fill:none;stroke:#00bfbf;stroke-linecap:square;stroke-width:1.5;"/>
    <g/>
   </g>
   <g id="line2d_33">
    <path clip-path="url(#p3b77bb83ad)" d="M 141.80232 254.084436 
" style="fill:none;stroke:#00bfbf;stroke-linecap:square;stroke-width:1.5;"/>
    <defs>
     <path d="M -12 12 
L 12 -12 
M -12 -12 
L 12 12 
" id="m4be95e98b0" style="stroke:#00bfbf;"/>
    </defs>
    <g clip-path="url(#p3b77bb83ad)">
     <use style="fill:#00bfbf;stroke:#00bfbf;" x="141.80232" xlink:href="#m4be95e98b0" y="254.084436"/>
    </g>
   </g>
   <g id="line2d_34">
    <defs>
     <path d="M 0 1.5 
C 0.397805 1.5 0.77937 1.341951 1.06066 1.06066 
C 1.341951 0.77937 1.5 0.397805 1.5 0 
C 1.5 -0.397805 1.341951 -0.77937 1.06066 -1.06066 
C 0.77937 -1.341951 0.397805 -1.5 0 -1.5 
C -0.397805 -1.5 -0.77937 -1.341951 -1.06066 -1.06066 
C -1.341951 -0.77937 -1.5 -0.397805 -1.5 0 
C -1.5 0.397805 -1.341951 0.77937 -1.06066 1.06066 
C -0.77937 1.341951 -0.397805 1.5 0 1.5 
z
" id="m9ad26caaf7" style="stroke:#008000;"/>
    </defs>
    <g>
     <use style="fill:#008000;stroke:#008000;" x="212.497683" xlink:href="#m9ad26caaf7" y="254.199166"/>
     <use style="fill:#008000;stroke:#008000;" x="212.497683" xlink:href="#m9ad26caaf7" y="254.199166"/>
    </g>
   </g>
   <g id="line2d_35">
    <path d="M 38.440992 298.944 
L 38.440992 291.142337 
L 50.52898 291.142337 
L 50.52898 289.421381 
L 57.6 289.421381 
L 57.6 287.815157 
L 62.616969 287.815157 
L 62.616969 287.012044 
L 66.508432 287.012044 
L 66.508432 286.208932 
L 69.687988 286.208932 
L 69.687988 285.061628 
L 72.376266 285.061628 
L 72.376266 284.373246 
L 74.704957 284.373246 
L 74.704957 283.914325 
L 76.759008 283.914325 
L 76.759008 283.570134 
L 78.59642 283.570134 
L 78.59642 282.996482 
L 80.258561 282.996482 
L 80.258561 282.881752 
L 81.775977 282.881752 
L 81.775977 282.767022 
L 83.171864 282.767022 
L 83.171864 282.3081 
L 84.464254 282.3081 
L 84.464254 282.19337 
L 85.66744 282.19337 
L 85.66744 281.963909 
L 86.792945 281.963909 
L 86.792945 281.504988 
L 87.850195 281.504988 
L 87.850195 280.472415 
L 88.846997 280.472415 
L 88.846997 280.242954 
L 89.78989 280.242954 
L 89.78989 280.013493 
L 90.684409 280.013493 
L 90.684409 279.898763 
L 92.34655 279.898763 
L 92.34655 279.784033 
L 95.259853 279.784033 
L 95.259853 279.669302 
L 96.552242 279.669302 
L 96.552242 279.210381 
L 97.16421 279.210381 
L 97.16421 279.095651 
L 98.32726 279.095651 
L 98.32726 278.75146 
L 99.41757 278.75146 
L 99.41757 278.636729 
L 101.877879 278.636729 
L 101.877879 278.407268 
L 102.330873 278.407268 
L 102.330873 278.292538 
L 102.772397 278.292538 
L 102.772397 277.948347 
L 103.623262 277.948347 
L 103.623262 277.604156 
L 104.033617 277.604156 
L 104.033617 277.489426 
L 107.347841 277.489426 
L 107.347841 277.030504 
L 107.680028 277.030504 
L 107.680028 276.801044 
L 108.640231 276.801044 
L 108.640231 276.686313 
L 108.948899 276.686313 
L 108.948899 275.768471 
L 109.252198 275.768471 
L 109.252198 275.53901 
L 119.097192 275.53901 
L 119.097192 274.965358 
L 119.267333 274.965358 
L 119.267333 274.735897 
L 119.768017 274.735897 
L 119.768017 274.506437 
L 119.931767 274.506437 
L 119.931767 273.818055 
L 120.093994 273.818055 
L 120.093994 273.588594 
L 126.053856 273.588594 
L 126.053856 273.473864 
L 126.168212 273.473864 
L 126.168212 273.359133 
L 126.281824 273.359133 
L 126.281824 273.244403 
L 126.3947 273.244403 
L 126.3947 273.014942 
L 126.948374 273.014942 
L 126.948374 272.785482 
L 131.013364 272.785482 
L 131.099484 272.556021 
L 131.185181 272.556021 
L 131.185181 272.32656 
L 131.355321 272.32656 
L 131.355321 272.21183 
L 131.60746 272.21183 
L 131.690703 271.982369 
L 131.77355 271.982369 
L 131.77355 271.867639 
L 134.870259 271.867639 
L 134.939326 271.179257 
L 135.144899 271.179257 
L 135.212889 270.605605 
L 135.280614 270.605605 
L 135.280614 270.490875 
L 135.548916 270.490875 
L 135.548916 270.376144 
L 138.141844 270.376144 
L 138.141844 270.261414 
L 138.594838 270.261414 
L 138.594838 270.146684 
L 140.698504 270.146684 
L 140.79731 269.917223 
L 140.944478 269.917223 
L 140.944478 269.802493 
L 141.090414 269.802493 
L 141.090414 269.573032 
L 141.378673 269.573032 
L 141.426256 269.114111 
L 141.568232 269.114111 
L 141.568232 268.99938 
L 142.306513 268.99938 
L 142.396639 268.655189 
L 142.575505 268.655189 
L 142.575505 268.540459 
L 143.014805 268.540459 
L 143.014805 268.196268 
L 143.230373 268.196268 
L 143.230373 267.737347 
L 145.251067 267.737347 
L 145.251067 267.278425 
L 147.266916 267.278425 
L 147.266916 267.163695 
L 148.576295 267.163695 
L 148.670646 266.819504 
L 150.05688 266.819504 
L 150.085825 266.590043 
L 150.172372 266.590043 
L 150.172372 266.131122 
L 152.909913 266.131122 
L 152.909913 266.016391 
L 153.105587 266.016391 
L 153.129893 265.6722 
L 153.632638 265.6722 
L 153.632638 265.55747 
L 154.05232 265.55747 
L 154.075343 265.213279 
L 155.059358 265.213279 
L 155.167744 264.754358 
L 155.189341 264.754358 
L 155.189341 264.639627 
L 156.277034 264.639627 
L 156.337763 264.410167 
L 157.1279 264.410167 
L 157.185742 263.951245 
L 157.262567 263.951245 
L 157.262567 263.836515 
L 158.122556 263.836515 
L 158.122556 263.377593 
L 158.976895 263.377593 
L 158.976895 263.262863 
L 159.824452 263.262863 
L 159.824452 263.148133 
L 160.038232 263.148133 
L 160.087195 262.689211 
L 160.394148 262.689211 
L 160.442124 262.459751 
L 161.450455 262.459751 
L 161.465522 262.11556 
L 162.144868 262.11556 
L 162.173813 261.771369 
L 162.840544 261.771369 
L 162.951535 261.541908 
L 164.973287 261.541908 
L 165.022481 261.082987 
L 165.18141 261.082987 
L 165.18141 260.968256 
L 166.001534 260.968256 
L 166.001534 260.853526 
L 166.617505 260.853526 
L 166.662278 260.624065 
L 167.136471 260.624065 
L 167.136471 260.509335 
L 167.672117 260.509335 
L 167.703739 260.279874 
L 168.736192 260.279874 
L 168.835167 260.050414 
L 168.86475 260.050414 
L 168.86475 259.706222 
L 169.654516 259.706222 
L 169.654516 259.591492 
L 170.155732 259.591492 
L 170.155732 259.362031 
L 171.047505 259.362031 
L 171.047505 259.247301 
L 171.928978 259.247301 
L 172.011434 258.673649 
L 172.077118 258.673649 
L 172.167033 258.444189 
L 172.673253 258.444189 
L 172.673253 258.329458 
L 173.080293 258.329458 
L 173.080293 258.214728 
L 173.455346 258.214728 
L 173.455346 258.099998 
L 174.584164 258.099998 
L 174.676192 257.755807 
L 175.245745 257.755807 
L 175.245745 257.641076 
L 176.267585 257.641076 
L 176.267585 257.526346 
L 176.968661 257.526346 
L 176.968661 257.411616 
L 177.808615 257.411616 
L 177.808615 257.296885 
L 178.388818 257.296885 
L 178.388818 257.067425 
L 179.011015 257.067425 
L 179.027527 256.837964 
L 179.229898 256.837964 
L 179.229898 256.723234 
L 180.021883 256.723234 
L 180.021883 256.608503 
L 180.279789 256.608503 
L 180.279789 256.493773 
L 180.853932 256.493773 
L 180.853932 256.379043 
L 181.985629 256.379043 
L 181.985629 256.264312 
L 182.507063 256.264312 
L 182.507063 256.149582 
L 183.325711 256.149582 
L 183.325711 256.034851 
L 183.539378 256.034851 
L 183.539378 255.805391 
L 186.682796 255.805391 
L 186.682796 255.69066 
L 187.510507 255.69066 
L 187.510507 255.57593 
L 187.891892 255.57593 
L 187.891892 255.4612 
L 188.643199 255.4612 
L 188.655873 255.231739 
L 190.066859 255.231739 
L 190.066859 255.002278 
L 191.699764 255.002278 
L 191.699764 254.887548 
L 192.60678 254.887548 
L 192.60678 254.772818 
L 193.468945 254.772818 
L 193.468945 254.658087 
L 197.236916 254.658087 
L 197.236916 254.543357 
L 198.542303 254.543357 
L 198.542303 254.428627 
L 200.734357 254.428627 
L 200.734357 254.313896 
L 212.497683 254.313896 
L 212.497683 254.199166 
L 338.688 254.199166 
L 338.688 254.199166 
" style="fill:none;stroke:#008000;stroke-linecap:square;stroke-width:1.5;"/>
   </g>
   <g id="line2d_36">
    <defs>
     <path d="M -0 6 
L 6 -6 
L -6 -6 
z
" id="m908f9d4eab" style="stroke:#008000;stroke-linejoin:miter;stroke-width:1.5;"/>
    </defs>
    <g>
     <use style="fill-opacity:0;stroke:#008000;stroke-linejoin:miter;stroke-width:1.5;" x="109.252198" xlink:href="#m908f9d4eab" y="275.53901"/>
     <use style="fill-opacity:0;stroke:#008000;stroke-linejoin:miter;stroke-width:1.5;" x="190.066859" xlink:href="#m908f9d4eab" y="255.231739"/>
     <use style="fill-opacity:0;stroke:#008000;stroke-linejoin:miter;stroke-width:1.5;" x="212.497683" xlink:href="#m908f9d4eab" y="254.313896"/>
     <use style="fill-opacity:0;stroke:#008000;stroke-linejoin:miter;stroke-width:1.5;" x="212.497683" xlink:href="#m908f9d4eab" y="254.199166"/>
     <use style="fill-opacity:0;stroke:#008000;stroke-linejoin:miter;stroke-width:1.5;" x="212.497683" xlink:href="#m908f9d4eab" y="254.199166"/>
     <use style="fill-opacity:0;stroke:#008000;stroke-linejoin:miter;stroke-width:1.5;" x="338.688" xlink:href="#m908f9d4eab" y="254.199166"/>
    </g>
   </g>
   <g id="line2d_37">
    <path style="fill:none;stroke:#008000;stroke-linecap:square;stroke-width:1.5;"/>
    <g/>
   </g>
   <g id="line2d_38">
    <path clip-path="url(#p3b77bb83ad)" d="M 140.599134 270.146684 
" style="fill:none;stroke:#008000;stroke-linecap:square;stroke-width:1.5;"/>
    <defs>
     <path d="M -12 12 
L 12 -12 
M -12 -12 
L 12 12 
" id="m4feab7ac28" style="stroke:#008000;"/>
    </defs>
    <g clip-path="url(#p3b77bb83ad)">
     <use style="fill:#008000;stroke:#008000;" x="140.599134" xlink:href="#m4feab7ac28" y="270.146684"/>
    </g>
   </g>
   <g id="line2d_39">
    <defs>
     <path d="M 0 1.5 
C 0.397805 1.5 0.77937 1.341951 1.06066 1.06066 
C 1.341951 0.77937 1.5 0.397805 1.5 0 
C 1.5 -0.397805 1.341951 -0.77937 1.06066 -1.06066 
C 0.77937 -1.341951 0.397805 -1.5 0 -1.5 
C -0.397805 -1.5 -0.77937 -1.341951 -1.06066 -1.06066 
C -1.341951 -0.77937 -1.5 -0.397805 -1.5 0 
C -1.5 0.397805 -1.341951 0.77937 -1.06066 1.06066 
C -0.77937 1.341951 -0.397805 1.5 0 1.5 
z
" id="m8ee04da12f" style="stroke:#0000ff;"/>
    </defs>
    <g>
     <use style="fill:#0000ff;stroke:#0000ff;" x="212.518979" xlink:href="#m8ee04da12f" y="269.114111"/>
     <use style="fill:#0000ff;stroke:#0000ff;" x="212.518979" xlink:href="#m8ee04da12f" y="269.114111"/>
    </g>
   </g>
   <g id="line2d_40">
    <path d="M 29.53256 298.944 
L 29.53256 296.419932 
L 41.620548 296.419932 
L 41.620548 294.928438 
L 48.691568 294.928438 
L 48.691568 294.584247 
L 53.708537 294.584247 
L 53.708537 294.010595 
L 57.6 294.010595 
L 57.6 293.207483 
L 60.779557 293.207483 
L 60.779557 293.092752 
L 63.467834 293.092752 
L 63.467834 292.748561 
L 65.796525 292.748561 
L 65.796525 292.28964 
L 67.850577 292.28964 
L 67.850577 292.060179 
L 69.687988 292.060179 
L 69.687988 291.715988 
L 71.35013 291.715988 
L 71.35013 291.142337 
L 72.867545 291.142337 
L 72.867545 290.912876 
L 74.263433 290.912876 
L 74.263433 290.683415 
L 76.759008 290.683415 
L 76.759008 290.568685 
L 77.884514 290.568685 
L 77.884514 290.339224 
L 79.938565 290.339224 
L 79.938565 289.995033 
L 80.881459 289.995033 
L 80.881459 289.650842 
L 84.213325 289.650842 
L 84.213325 289.306651 
L 84.955534 289.306651 
L 84.955534 288.96246 
L 86.351421 288.96246 
L 86.351421 288.84773 
L 87.009585 288.84773 
L 87.009585 288.732999 
L 87.643811 288.732999 
L 87.643811 288.618269 
L 91.029752 288.618269 
L 91.029752 288.503539 
L 91.535274 288.503539 
L 91.535274 288.388808 
L 92.504372 288.388808 
L 92.504372 288.274078 
L 95.918017 288.274078 
L 95.918017 288.044617 
L 96.301313 288.044617 
L 96.301313 287.815157 
L 98.43941 287.815157 
L 98.43941 287.356235 
L 98.771596 287.356235 
L 98.771596 287.241505 
L 99.097574 287.241505 
L 99.097574 286.897314 
L 99.41757 286.897314 
L 99.41757 286.782584 
L 100.343767 286.782584 
L 100.343767 286.667853 
L 101.223245 286.667853 
L 101.223245 286.553123 
L 110.188761 286.553123 
L 110.188761 286.438393 
L 110.358901 286.438393 
L 110.358901 286.094202 
L 110.694282 286.094202 
L 110.694282 285.75001 
L 110.859585 285.75001 
L 110.859585 285.63528 
L 111.185562 285.63528 
L 111.185562 285.405819 
L 111.346294 285.405819 
L 111.346294 285.291089 
L 111.663381 285.291089 
L 111.663381 285.176359 
L 111.819788 285.176359 
L 111.819788 285.061628 
L 117.145424 285.061628 
L 117.145424 284.832168 
L 117.259781 284.832168 
L 117.259781 284.717437 
L 117.486268 284.717437 
L 117.486268 284.258516 
L 117.598418 284.258516 
L 117.598418 284.143786 
L 118.148599 284.143786 
L 118.256582 283.914325 
L 122.104932 283.914325 
L 122.104932 283.799595 
L 122.362027 283.799595 
L 122.44689 283.340673 
L 122.531342 283.340673 
L 122.615387 283.111213 
L 122.865118 283.111213 
L 122.865118 282.996482 
L 123.111324 282.996482 
L 123.111324 282.881752 
L 126.304457 282.881752 
L 126.372183 282.537561 
L 126.439646 282.537561 
L 126.439646 282.422831 
L 129.118302 282.422831 
L 129.118302 282.3081 
L 129.233413 282.3081 
L 129.290685 281.963909 
L 129.574256 281.963909 
L 129.574256 281.849179 
L 129.742212 281.849179 
L 129.742212 281.734448 
L 132.133473 281.734448 
L 132.133473 281.619718 
L 132.374684 281.619718 
L 132.374684 281.390257 
L 134.192921 281.390257 
L 134.192921 281.275527 
L 134.450015 281.275527 
L 134.450015 281.160797 
L 134.61933 281.160797 
L 134.61933 281.046066 
L 136.189322 281.046066 
L 136.266147 280.701875 
L 136.380754 280.701875 
L 136.456742 280.472415 
L 138.324456 280.472415 
L 138.324456 280.357684 
L 139.604677 280.357684 
L 139.604677 280.242954 
L 139.918342 280.242954 
L 139.918342 280.128224 
L 140.042245 280.128224 
L 140.042245 280.013493 
L 140.348205 280.013493 
L 140.348205 279.898763 
L 140.64889 279.898763 
L 140.738093 279.669302 
L 140.973763 279.669302 
L 140.973763 279.439842 
L 141.148448 279.439842 
L 141.177393 278.636729 
L 142.566605 278.636729 
L 142.619936 278.407268 
L 142.726112 278.407268 
L 142.726112 278.292538 
L 143.902815 278.292538 
L 144.001481 277.948347 
L 145.097753 277.948347 
L 145.097753 277.604156 
L 146.216039 277.604156 
L 146.302479 277.374695 
L 146.345539 277.374695 
L 146.345539 277.259965 
L 147.246507 277.259965 
L 147.266916 276.915774 
L 147.368603 276.915774 
L 147.368603 276.801044 
L 148.315765 276.801044 
L 148.315765 276.686313 
L 149.177602 276.686313 
L 149.286939 276.456853 
L 150.085825 276.456853 
L 150.085825 276.342122 
L 152.466496 276.342122 
L 152.466496 276.227392 
L 153.932113 276.227392 
L 154.015422 275.768471 
L 154.641235 275.768471 
L 154.641235 275.65374 
L 155.296925 275.65374 
L 155.335493 275.42428 
L 155.928852 275.42428 
L 155.928852 275.309549 
L 158.994256 275.309549 
L 158.994256 275.194819 
L 159.283369 275.194819 
L 159.283369 275.080089 
L 160.278464 275.080089 
L 160.297798 274.735897 
L 160.774311 274.735897 
L 160.774311 274.621167 
L 161.274728 274.621167 
L 161.274728 274.506437 
L 161.681046 274.506437 
L 161.689969 274.276976 
L 162.156452 274.276976 
L 162.208484 274.047515 
L 165.7041 274.047515 
L 165.7041 273.932785 
L 166.006178 273.932785 
L 166.013141 273.703324 
L 167.027338 273.703324 
L 167.027338 273.588594 
L 167.359153 273.588594 
L 167.359153 273.473864 
L 169.468969 273.473864 
L 169.474679 273.244403 
L 172.132757 273.244403 
L 172.132757 273.129673 
L 172.616138 273.129673 
L 172.620905 272.900212 
L 173.063263 272.900212 
L 173.063263 272.785482 
L 175.448206 272.785482 
L 175.448206 272.670751 
L 177.005766 272.670751 
L 177.005766 272.556021 
L 178.428718 272.556021 
L 178.428718 272.441291 
L 178.598693 272.441291 
L 178.598693 272.0971 
L 178.787119 272.0971 
L 178.787119 271.982369 
L 178.933752 271.982369 
L 178.933752 271.752909 
L 179.807517 271.752909 
L 179.807517 271.638178 
L 180.366615 271.638178 
L 180.366615 271.523448 
L 180.52788 271.523448 
L 180.52788 271.408718 
L 182.973917 271.408718 
L 182.973917 271.179257 
L 183.441416 271.179257 
L 183.441416 271.064526 
L 183.831675 271.064526 
L 183.831675 270.949796 
L 184.364741 270.949796 
L 184.364741 270.835066 
L 188.622267 270.835066 
L 188.622267 270.720335 
L 190.022987 270.720335 
L 190.022987 270.605605 
L 190.506455 270.605605 
L 190.506455 270.490875 
L 192.291834 270.490875 
L 192.291834 270.376144 
L 195.02897 270.376144 
L 195.02897 270.146684 
L 195.264728 270.146684 
L 195.264728 270.031953 
L 195.739557 270.031953 
L 195.739557 269.917223 
L 196.089245 269.917223 
L 196.089245 269.802493 
L 197.403425 269.802493 
L 197.403425 269.687762 
L 198.625474 269.687762 
L 198.625474 269.573032 
L 200.745445 269.573032 
L 200.745445 269.458302 
L 201.760447 269.458302 
L 201.760447 269.228841 
L 212.518979 269.228841 
L 212.518979 269.114111 
L 338.688 269.114111 
L 338.688 269.114111 
" style="fill:none;stroke:#0000ff;stroke-linecap:square;stroke-width:1.5;"/>
   </g>
   <g id="line2d_41">
    <defs>
     <path d="M 0 -6 
L -1.347084 -1.854102 
L -5.706339 -1.854102 
L -2.179628 0.708204 
L -3.526712 4.854102 
L -0 2.291796 
L 3.526712 4.854102 
L 2.179628 0.708204 
L 5.706339 -1.854102 
L 1.347084 -1.854102 
z
" id="m5750c59b5a" style="stroke:#0000ff;stroke-linejoin:bevel;stroke-width:1.5;"/>
    </defs>
    <g>
     <use style="fill-opacity:0;stroke:#0000ff;stroke-linejoin:bevel;stroke-width:1.5;" x="77.884514" xlink:href="#m5750c59b5a" y="290.568685"/>
     <use style="fill-opacity:0;stroke:#0000ff;stroke-linejoin:bevel;stroke-width:1.5;" x="162.208484" xlink:href="#m5750c59b5a" y="274.162246"/>
     <use style="fill-opacity:0;stroke:#0000ff;stroke-linejoin:bevel;stroke-width:1.5;" x="212.518979" xlink:href="#m5750c59b5a" y="269.228841"/>
     <use style="fill-opacity:0;stroke:#0000ff;stroke-linejoin:bevel;stroke-width:1.5;" x="212.518979" xlink:href="#m5750c59b5a" y="269.114111"/>
     <use style="fill-opacity:0;stroke:#0000ff;stroke-linejoin:bevel;stroke-width:1.5;" x="212.518979" xlink:href="#m5750c59b5a" y="269.114111"/>
     <use style="fill-opacity:0;stroke:#0000ff;stroke-linejoin:bevel;stroke-width:1.5;" x="338.688" xlink:href="#m5750c59b5a" y="269.114111"/>
    </g>
   </g>
   <g id="line2d_42">
    <path style="fill:none;stroke:#0000ff;stroke-linecap:square;stroke-width:1.5;"/>
    <g/>
   </g>
   <g id="line2d_43">
    <path clip-path="url(#p3b77bb83ad)" d="M 139.572998 280.357684 
" style="fill:none;stroke:#0000ff;stroke-linecap:square;stroke-width:1.5;"/>
    <defs>
     <path d="M -12 12 
L 12 -12 
M -12 -12 
L 12 12 
" id="mf7bf7c7f00" style="stroke:#0000ff;"/>
    </defs>
    <g clip-path="url(#p3b77bb83ad)">
     <use style="fill:#0000ff;stroke:#0000ff;" x="139.572998" xlink:href="#mf7bf7c7f00" y="280.357684"/>
    </g>
   </g>
   <g id="line2d_44">
    <defs>
     <path d="M 0 1.5 
C 0.397805 1.5 0.77937 1.341951 1.06066 1.06066 
C 1.341951 0.77937 1.5 0.397805 1.5 0 
C 1.5 -0.397805 1.341951 -0.77937 1.06066 -1.06066 
C 0.77937 -1.341951 0.397805 -1.5 0 -1.5 
C -0.397805 -1.5 -0.77937 -1.341951 -1.06066 -1.06066 
C -1.341951 -0.77937 -1.5 -0.397805 -1.5 0 
C -1.5 0.397805 -1.341951 0.77937 -1.06066 1.06066 
C -0.77937 1.341951 -0.397805 1.5 0 1.5 
z
" id="ma90452a864" style="stroke:#000000;"/>
    </defs>
    <g>
     <use style="stroke:#000000;" x="200.670224" xlink:href="#ma90452a864" y="286.323662"/>
     <use style="stroke:#000000;" x="200.670224" xlink:href="#ma90452a864" y="286.323662"/>
    </g>
   </g>
   <g id="line2d_45">
    <path d="M 17.444571 298.944 
L 17.444571 298.026157 
L 29.53256 298.026157 
L 29.53256 297.796697 
L 41.620548 297.796697 
L 41.620548 297.567236 
L 45.512012 297.567236 
L 45.512012 297.337775 
L 53.708537 297.337775 
L 53.708537 296.878854 
L 55.762588 296.878854 
L 55.762588 296.764123 
L 57.6 296.764123 
L 57.6 296.649393 
L 59.262141 296.649393 
L 59.262141 296.419932 
L 74.263433 296.419932 
L 74.263433 296.190472 
L 77.884514 296.190472 
L 77.884514 295.846281 
L 82.626842 295.846281 
L 82.626842 295.73155 
L 83.438118 295.73155 
L 83.438118 295.61682 
L 84.955534 295.61682 
L 84.955534 295.50209 
L 86.351421 295.50209 
L 86.351421 295.157899 
L 86.683608 295.157899 
L 86.683608 294.928438 
L 98.100772 294.928438 
L 98.100772 294.813708 
L 98.43941 294.813708 
L 98.43941 294.698977 
L 98.771596 294.698977 
L 98.771596 294.584247 
L 99.575392 294.584247 
L 99.575392 294.469517 
L 105.171792 294.469517 
L 105.171792 294.354786 
L 110.188761 294.354786 
L 110.188761 294.240056 
L 113.873839 294.240056 
L 113.873839 294.125326 
L 114.418861 294.125326 
L 114.418861 294.010595 
L 114.685115 294.010595 
L 114.685115 293.895865 
L 117.316679 293.895865 
L 117.316679 293.781135 
L 122.148045 293.781135 
L 122.148045 293.666404 
L 122.362027 293.666404 
L 122.362027 293.551674 
L 124.368753 293.551674 
L 124.368753 293.436944 
L 126.099688 293.436944 
L 126.099688 293.322213 
L 127.611382 293.322213 
L 127.611382 293.207483 
L 130.717333 293.207483 
L 130.717333 293.092752 
L 134.062938 293.092752 
L 134.062938 292.978022 
L 134.236034 292.978022 
L 134.236034 292.863292 
L 135.117629 292.863292 
L 135.117629 292.748561 
L 136.150782 292.748561 
L 136.150782 292.633831 
L 137.198951 292.633831 
L 137.198951 292.519101 
L 138.136107 292.519101 
L 138.136107 292.40437 
L 138.943469 292.40437 
L 138.943469 292.28964 
L 139.285267 292.28964 
L 139.285267 292.17491 
L 139.541262 292.17491 
L 139.541262 292.060179 
L 140.438956 292.060179 
L 140.438956 291.830719 
L 141.133958 291.830719 
L 141.191848 291.601258 
L 141.858037 291.601258 
L 141.858037 291.486528 
L 143.234658 291.486528 
L 143.234658 291.371797 
L 147.287301 291.371797 
L 147.287301 291.257067 
L 148.658095 291.257067 
L 148.733265 290.798146 
L 150.085825 290.798146 
L 150.085825 290.683415 
L 152.534486 290.683415 
L 152.534486 290.568685 
L 154.303908 290.568685 
L 154.303908 290.453955 
L 154.627867 290.453955 
L 154.627867 290.339224 
L 154.93278 290.339224 
L 154.93278 290.224494 
L 156.538679 290.224494 
L 156.538679 290.109764 
L 156.788581 290.109764 
L 156.788581 289.995033 
L 157.658565 289.995033 
L 157.658565 289.880303 
L 160.556731 289.880303 
L 160.556731 289.765573 
L 162.095552 289.765573 
L 162.095552 289.536112 
L 162.559939 289.536112 
L 162.559939 289.421381 
L 164.951104 289.421381 
L 164.951104 289.306651 
L 165.985272 289.306651 
L 165.985272 289.07719 
L 169.463258 289.07719 
L 169.463258 288.96246 
L 169.878129 288.96246 
L 169.878129 288.84773 
L 171.103055 288.84773 
L 171.103055 288.618269 
L 172.098413 288.618269 
L 172.098413 288.503539 
L 172.482136 288.503539 
L 172.482136 288.274078 
L 173.195195 288.274078 
L 173.195195 288.159348 
L 174.50306 288.159348 
L 174.50306 287.929887 
L 174.6182 287.929887 
L 174.6182 287.815157 
L 175.55729 287.815157 
L 175.55729 287.585696 
L 176.049688 287.585696 
L 176.049688 287.470966 
L 183.237777 287.470966 
L 183.237777 287.241505 
L 183.432444 287.241505 
L 183.432444 287.126775 
L 184.186401 287.126775 
L 184.186401 287.012044 
L 185.888232 287.012044 
L 185.888232 286.897314 
L 190.03177 286.897314 
L 190.03177 286.782584 
L 192.517157 286.782584 
L 192.517157 286.667853 
L 197.966195 286.667853 
L 197.966195 286.553123 
L 200.670224 286.553123 
L 200.670224 286.323662 
L 338.688 286.323662 
L 338.688 286.323662 
" style="fill:none;stroke:#000000;stroke-linecap:square;stroke-width:1.5;"/>
   </g>
   <g id="line2d_46">
    <defs>
     <path d="M 0 6 
C 1.591219 6 3.117479 5.367802 4.242641 4.242641 
C 5.367802 3.117479 6 1.591219 6 0 
C 6 -1.591219 5.367802 -3.117479 4.242641 -4.242641 
C 3.117479 -5.367802 1.591219 -6 0 -6 
C -1.591219 -6 -3.117479 -5.367802 -4.242641 -4.242641 
C -5.367802 -3.117479 -6 -1.591219 -6 0 
C -6 1.591219 -5.367802 3.117479 -4.242641 4.242641 
C -3.117479 5.367802 -1.591219 6 0 6 
z
" id="mbbc56f935f" style="stroke:#000000;stroke-width:1.5;"/>
    </defs>
    <g>
     <use style="fill-opacity:0;stroke:#000000;stroke-width:1.5;" x="86.683608" xlink:href="#mbbc56f935f" y="295.157899"/>
     <use style="fill-opacity:0;stroke:#000000;stroke-width:1.5;" x="165.985272" xlink:href="#mbbc56f935f" y="289.07719"/>
     <use style="fill-opacity:0;stroke:#000000;stroke-width:1.5;" x="200.670224" xlink:href="#mbbc56f935f" y="286.553123"/>
     <use style="fill-opacity:0;stroke:#000000;stroke-width:1.5;" x="200.670224" xlink:href="#mbbc56f935f" y="286.323662"/>
     <use style="fill-opacity:0;stroke:#000000;stroke-width:1.5;" x="200.670224" xlink:href="#mbbc56f935f" y="286.323662"/>
     <use style="fill-opacity:0;stroke:#000000;stroke-width:1.5;" x="338.688" xlink:href="#mbbc56f935f" y="286.323662"/>
    </g>
   </g>
   <g id="line2d_47">
    <path style="fill:none;stroke:#000000;stroke-linecap:square;stroke-width:1.5;"/>
    <g/>
   </g>
   <g id="line2d_48">
    <path clip-path="url(#p3b77bb83ad)" d="M 138.761723 292.40437 
" style="fill:none;stroke:#000000;stroke-linecap:square;stroke-width:1.5;"/>
    <defs>
     <path d="M -12 12 
L 12 -12 
M -12 -12 
L 12 12 
" id="m2e10533257" style="stroke:#000000;"/>
    </defs>
    <g clip-path="url(#p3b77bb83ad)">
     <use style="stroke:#000000;" x="138.761723" xlink:href="#m2e10533257" y="292.40437"/>
    </g>
   </g>
   <g id="line2d_49">
    <defs>
     <path d="M 0 1.5 
C 0.397805 1.5 0.77937 1.341951 1.06066 1.06066 
C 1.341951 0.77937 1.5 0.397805 1.5 0 
C 1.5 -0.397805 1.341951 -0.77937 1.06066 -1.06066 
C 0.77937 -1.341951 0.397805 -1.5 0 -1.5 
C -0.397805 -1.5 -0.77937 -1.341951 -1.06066 -1.06066 
C -1.341951 -0.77937 -1.5 -0.397805 -1.5 0 
C -1.5 0.397805 -1.341951 0.77937 -1.06066 1.06066 
C -0.77937 1.341951 -0.397805 1.5 0 1.5 
z
" id="m35a86c659c" style="stroke:#ff0000;"/>
    </defs>
    <g>
     <use style="fill:#ff0000;stroke:#ff0000;" x="205.084878" xlink:href="#m35a86c659c" y="295.50209"/>
     <use style="fill:#ff0000;stroke:#ff0000;" x="205.084878" xlink:href="#m35a86c659c" y="295.50209"/>
    </g>
   </g>
   <g id="line2d_50">
    <path d="M 58.450865 298.944 
L 58.450865 298.82927 
L 74.263433 298.82927 
L 74.263433 298.714539 
L 76.16779 298.714539 
L 76.16779 298.599809 
L 86.012784 298.599809 
L 86.012784 298.485079 
L 86.847358 298.485079 
L 86.847358 298.370348 
L 93.197415 298.370348 
L 93.197415 298.255618 
L 93.310291 298.255618 
L 93.310291 298.140888 
L 93.644601 298.140888 
L 93.644601 298.026157 
L 93.754628 298.026157 
L 93.754628 297.911427 
L 98.270913 297.911427 
L 98.270913 297.796697 
L 101.785851 297.796697 
L 101.785851 297.681966 
L 107.614095 297.681966 
L 107.614095 297.567236 
L 110.401178 297.567236 
L 110.401178 297.452506 
L 113.839203 297.452506 
L 113.839203 297.337775 
L 115.711251 297.337775 
L 115.711251 297.223045 
L 133.009765 297.223045 
L 133.009765 297.108315 
L 142.168169 297.108315 
L 142.168169 296.993584 
L 150.858013 296.993584 
L 150.858013 296.878854 
L 152.447563 296.878854 
L 152.447563 296.764123 
L 167.740033 296.764123 
L 167.740033 296.649393 
L 172.109459 296.649393 
L 172.109459 296.534663 
L 174.45915 296.534663 
L 174.45915 296.419932 
L 178.379971 296.419932 
L 178.379971 296.305202 
L 180.052775 296.305202 
L 180.052775 296.190472 
L 181.579071 296.190472 
L 181.579071 296.075741 
L 186.620439 296.075741 
L 186.620439 295.961011 
L 200.803069 295.961011 
L 200.803069 295.846281 
L 202.201451 295.846281 
L 202.201451 295.73155 
L 202.643723 295.73155 
L 202.643723 295.61682 
L 205.084878 295.61682 
L 205.084878 295.50209 
L 338.688 295.50209 
" style="fill:none;stroke:#ff0000;stroke-linecap:square;stroke-width:1.5;"/>
   </g>
   <g id="line2d_51">
    <defs>
     <path d="M -6 6 
L 6 6 
L 6 -6 
L -6 -6 
z
" id="m7b971e6449" style="stroke:#ff0000;stroke-linejoin:miter;stroke-width:1.5;"/>
    </defs>
    <g>
     <use style="fill-opacity:0;stroke:#ff0000;stroke-linejoin:miter;stroke-width:1.5;" x="150.858013" xlink:href="#m7b971e6449" y="296.993584"/>
     <use style="fill-opacity:0;stroke:#ff0000;stroke-linejoin:miter;stroke-width:1.5;" x="205.084878" xlink:href="#m7b971e6449" y="295.61682"/>
     <use style="fill-opacity:0;stroke:#ff0000;stroke-linejoin:miter;stroke-width:1.5;" x="205.084878" xlink:href="#m7b971e6449" y="295.50209"/>
     <use style="fill-opacity:0;stroke:#ff0000;stroke-linejoin:miter;stroke-width:1.5;" x="205.084878" xlink:href="#m7b971e6449" y="295.50209"/>
     <use style="fill-opacity:0;stroke:#ff0000;stroke-linejoin:miter;stroke-width:1.5;" x="338.688" xlink:href="#m7b971e6449" y="295.50209"/>
    </g>
   </g>
   <g id="line2d_52">
    <path style="fill:none;stroke:#ff0000;stroke-linecap:square;stroke-width:1.5;"/>
    <g/>
   </g>
   <g id="line2d_53">
    <path clip-path="url(#p3b77bb83ad)" d="M 138.341479 297.108315 
" style="fill:none;stroke:#ff0000;stroke-linecap:square;stroke-width:1.5;"/>
    <defs>
     <path d="M -12 12 
L 12 -12 
M -12 -12 
L 12 12 
" id="madf2bc8e6d" style="stroke:#ff0000;"/>
    </defs>
    <g clip-path="url(#p3b77bb83ad)">
     <use style="fill:#ff0000;stroke:#ff0000;" x="138.341479" xlink:href="#madf2bc8e6d" y="297.108315"/>
    </g>
   </g>
   <g id="line2d_54">
    <defs>
     <path d="M 0 1.5 
C 0.397805 1.5 0.77937 1.341951 1.06066 1.06066 
C 1.341951 0.77937 1.5 0.397805 1.5 0 
C 1.5 -0.397805 1.341951 -0.77937 1.06066 -1.06066 
C 0.77937 -1.341951 0.397805 -1.5 0 -1.5 
C -0.397805 -1.5 -0.77937 -1.341951 -1.06066 -1.06066 
C -1.341951 -0.77937 -1.5 -0.397805 -1.5 0 
C -1.5 0.397805 -1.341951 0.77937 -1.06066 1.06066 
C -0.77937 1.341951 -0.397805 1.5 0 1.5 
z
" id="mf67e59a79e" style="stroke:#bf00bf;"/>
    </defs>
    <g>
     <use style="fill:#bf00bf;stroke:#bf00bf;" x="202.801185" xlink:href="#mf67e59a79e" y="297.796697"/>
     <use style="fill:#bf00bf;stroke:#bf00bf;" x="202.801185" xlink:href="#mf67e59a79e" y="297.796697"/>
    </g>
   </g>
   <g id="line2d_55">
    <path d="M 161.376063 298.944 
L 161.376063 298.82927 
L 168.761732 298.82927 
L 168.761732 298.714539 
L 183.890779 298.714539 
L 183.890779 298.599809 
L 186.252181 298.599809 
L 186.252181 298.485079 
L 187.322882 298.485079 
L 187.322882 298.370348 
L 190.189335 298.370348 
L 190.189335 298.255618 
L 191.04889 298.255618 
L 191.04889 298.140888 
L 196.725691 298.140888 
L 196.725691 298.026157 
L 201.001394 298.026157 
L 201.001394 297.911427 
L 202.801185 297.911427 
L 202.801185 297.796697 
L 338.688 297.796697 
" style="fill:none;stroke:#bf00bf;stroke-linecap:square;stroke-width:1.5;"/>
   </g>
   <g id="line2d_56">
    <defs>
     <path d="M -0 8.485281 
L 8.485281 0 
L 0 -8.485281 
L -8.485281 -0 
z
" id="ma25308233c" style="stroke:#bf00bf;stroke-linejoin:miter;stroke-width:1.5;"/>
    </defs>
    <g>
     <use style="fill-opacity:0;stroke:#bf00bf;stroke-linejoin:miter;stroke-width:1.5;" x="202.801185" xlink:href="#ma25308233c" y="297.911427"/>
     <use style="fill-opacity:0;stroke:#bf00bf;stroke-linejoin:miter;stroke-width:1.5;" x="202.801185" xlink:href="#ma25308233c" y="297.796697"/>
     <use style="fill-opacity:0;stroke:#bf00bf;stroke-linejoin:miter;stroke-width:1.5;" x="202.801185" xlink:href="#ma25308233c" y="297.796697"/>
     <use style="fill-opacity:0;stroke:#bf00bf;stroke-linejoin:miter;stroke-width:1.5;" x="338.688" xlink:href="#ma25308233c" y="297.796697"/>
    </g>
   </g>
   <g id="line2d_57">
    <path style="fill:none;stroke:#bf00bf;stroke-linecap:square;stroke-width:1.5;"/>
    <g/>
   </g>
   <g id="line2d_58">
    <path clip-path="url(#p3b77bb83ad)" d="M 138.127497 298.944 
" style="fill:none;stroke:#bf00bf;stroke-linecap:square;stroke-width:1.5;"/>
    <defs>
     <path d="M -12 12 
L 12 -12 
M -12 -12 
L 12 12 
" id="m738dde855a" style="stroke:#bf00bf;"/>
    </defs>
    <g clip-path="url(#p3b77bb83ad)">
     <use style="fill:#bf00bf;stroke:#bf00bf;" x="138.127497" xlink:href="#m738dde855a" y="298.944"/>
    </g>
   </g>
   <g id="line2d_59">
    <path d="M 338.688 297.796697 
L 369.60768 293.092752 
" style="fill:none;stroke:#bf00bf;stroke-linecap:square;stroke-width:1.5;"/>
    <g>
     <use style="fill-opacity:0;stroke:#bf00bf;stroke-linejoin:miter;stroke-width:1.5;" x="338.688" xlink:href="#ma25308233c" y="297.796697"/>
     <use style="fill-opacity:0;stroke:#bf00bf;stroke-linejoin:miter;stroke-width:1.5;" x="369.60768" xlink:href="#ma25308233c" y="293.092752"/>
    </g>
   </g>
   <g id="line2d_60">
    <path d="M 338.688 295.50209 
L 369.60768 236.920776 
" style="fill:none;stroke:#ff0000;stroke-linecap:square;stroke-width:1.5;"/>
    <g>
     <use style="fill-opacity:0;stroke:#ff0000;stroke-linejoin:miter;stroke-width:1.5;" x="338.688" xlink:href="#m7b971e6449" y="295.50209"/>
     <use style="fill-opacity:0;stroke:#ff0000;stroke-linejoin:miter;stroke-width:1.5;" x="369.60768" xlink:href="#m7b971e6449" y="236.920776"/>
    </g>
   </g>
   <g id="line2d_61">
    <path d="M 338.688 286.323662 
L 369.60768 180.7488 
" style="fill:none;stroke:#000000;stroke-linecap:square;stroke-width:1.5;"/>
    <g>
     <use style="fill-opacity:0;stroke:#000000;stroke-width:1.5;" x="338.688" xlink:href="#mbbc56f935f" y="286.323662"/>
     <use style="fill-opacity:0;stroke:#000000;stroke-width:1.5;" x="369.60768" xlink:href="#mbbc56f935f" y="180.7488"/>
    </g>
   </g>
   <g id="line2d_62">
    <path d="M 338.688 269.114111 
L 369.60768 124.576824 
" style="fill:none;stroke:#0000ff;stroke-linecap:square;stroke-width:1.5;"/>
    <g>
     <use style="fill-opacity:0;stroke:#0000ff;stroke-linejoin:bevel;stroke-width:1.5;" x="338.688" xlink:href="#m5750c59b5a" y="269.114111"/>
     <use style="fill-opacity:0;stroke:#0000ff;stroke-linejoin:bevel;stroke-width:1.5;" x="369.60768" xlink:href="#m5750c59b5a" y="124.576824"/>
    </g>
   </g>
   <g id="line2d_63">
    <path d="M 338.688 254.199166 
L 369.60768 68.404848 
" style="fill:none;stroke:#008000;stroke-linecap:square;stroke-width:1.5;"/>
    <g>
     <use style="fill-opacity:0;stroke:#008000;stroke-linejoin:miter;stroke-width:1.5;" x="338.688" xlink:href="#m908f9d4eab" y="254.199166"/>
     <use style="fill-opacity:0;stroke:#008000;stroke-linejoin:miter;stroke-width:1.5;" x="369.60768" xlink:href="#m908f9d4eab" y="68.404848"/>
    </g>
   </g>
   <g id="line2d_64">
    <path d="M 338.688 227.811187 
L 369.60768 12.232871 
" style="fill:none;stroke:#00bfbf;stroke-linecap:square;stroke-width:1.5;"/>
    <g>
     <use style="fill-opacity:0;stroke:#00bfbf;stroke-width:1.5;" x="338.688" xlink:href="#m0a6e00aec3" y="227.811187"/>
     <use style="fill-opacity:0;stroke:#00bfbf;stroke-width:1.5;" x="369.60768" xlink:href="#m0a6e00aec3" y="12.232871"/>
    </g>
   </g>
   <g id="line2d_65">
    <path d="M 338.688 298.944 
L 338.688 6.381624 
" style="fill:none;stroke:#000000;stroke-linecap:square;stroke-width:1.5;"/>
   </g>
   <g id="patch_3">
    <path d="M 57.6 298.944 
L 57.6 3.456 
" style="fill:none;stroke:#000000;stroke-linecap:square;stroke-linejoin:miter;stroke-width:0.8;"/>
   </g>
   <g id="patch_4">
    <path d="M 338.688 298.944 
L 338.688 3.456 
" style="fill:none;stroke:#000000;stroke-linecap:square;stroke-linejoin:miter;stroke-width:0.8;"/>
   </g>
   <g id="patch_5">
    <path d="M 57.6 298.944 
L 338.688 298.944 
" style="fill:none;stroke:#000000;stroke-linecap:square;stroke-linejoin:miter;stroke-width:0.8;"/>
   </g>
   <g id="patch_6">
    <path d="M 57.6 3.456 
L 338.688 3.456 
" style="fill:none;stroke:#000000;stroke-linecap:square;stroke-linejoin:miter;stroke-width:0.8;"/>
   </g>
   <g id="text_13">
    <!-- 40-D -->
    <defs>
     <path d="M 19.671875 64.796875 
L 19.671875 8.109375 
L 31.59375 8.109375 
Q 46.6875 8.109375 53.6875 14.9375 
Q 60.6875 21.78125 60.6875 36.53125 
Q 60.6875 51.171875 53.6875 57.984375 
Q 46.6875 64.796875 31.59375 64.796875 
z
M 9.8125 72.90625 
L 30.078125 72.90625 
Q 51.265625 72.90625 61.171875 64.09375 
Q 71.09375 55.28125 71.09375 36.53125 
Q 71.09375 17.671875 61.125 8.828125 
Q 51.171875 0 30.078125 0 
L 9.8125 0 
z
" id="DejaVuSans-68"/>
    </defs>
    <g transform="translate(375.22944 297.78369)scale(0.17 -0.17)">
     <use xlink:href="#DejaVuSans-52"/>
     <use x="63.623047" xlink:href="#DejaVuSans-48"/>
     <use x="127.246094" xlink:href="#DejaVuSans-45"/>
     <use x="163.330078" xlink:href="#DejaVuSans-68"/>
    </g>
   </g>
   <g id="text_14">
    <!-- 20-D -->
    <g transform="translate(375.22944 241.611714)scale(0.17 -0.17)">
     <use xlink:href="#DejaVuSans-50"/>
     <use x="63.623047" xlink:href="#DejaVuSans-48"/>
     <use x="127.246094" xlink:href="#DejaVuSans-45"/>
     <use x="163.330078" xlink:href="#DejaVuSans-68"/>
    </g>
   </g>
   <g id="text_15">
    <!-- 10-D -->
    <g transform="translate(375.22944 185.439737)scale(0.17 -0.17)">
     <use xlink:href="#DejaVuSans-49"/>
     <use x="63.623047" xlink:href="#DejaVuSans-48"/>
     <use x="127.246094" xlink:href="#DejaVuSans-45"/>
     <use x="163.330078" xlink:href="#DejaVuSans-68"/>
    </g>
   </g>
   <g id="text_16">
    <!-- 5-D -->
    <defs>
     <path d="M 10.796875 72.90625 
L 49.515625 72.90625 
L 49.515625 64.59375 
L 19.828125 64.59375 
L 19.828125 46.734375 
Q 21.96875 47.46875 24.109375 47.828125 
Q 26.265625 48.1875 28.421875 48.1875 
Q 40.625 48.1875 47.75 41.5 
Q 54.890625 34.8125 54.890625 23.390625 
Q 54.890625 11.625 47.5625 5.09375 
Q 40.234375 -1.421875 26.90625 -1.421875 
Q 22.3125 -1.421875 17.546875 -0.640625 
Q 12.796875 0.140625 7.71875 1.703125 
L 7.71875 11.625 
Q 12.109375 9.234375 16.796875 8.0625 
Q 21.484375 6.890625 26.703125 6.890625 
Q 35.15625 6.890625 40.078125 11.328125 
Q 45.015625 15.765625 45.015625 23.390625 
Q 45.015625 31 40.078125 35.4375 
Q 35.15625 39.890625 26.703125 39.890625 
Q 22.75 39.890625 18.8125 39.015625 
Q 14.890625 38.140625 10.796875 36.28125 
z
" id="DejaVuSans-53"/>
    </defs>
    <g transform="translate(375.22944 129.267761)scale(0.17 -0.17)">
     <use xlink:href="#DejaVuSans-53"/>
     <use x="63.623047" xlink:href="#DejaVuSans-45"/>
     <use x="99.707031" xlink:href="#DejaVuSans-68"/>
    </g>
   </g>
   <g id="text_17">
    <!-- 3-D -->
    <defs>
     <path d="M 40.578125 39.3125 
Q 47.65625 37.796875 51.625 33 
Q 55.609375 28.21875 55.609375 21.1875 
Q 55.609375 10.40625 48.1875 4.484375 
Q 40.765625 -1.421875 27.09375 -1.421875 
Q 22.515625 -1.421875 17.65625 -0.515625 
Q 12.796875 0.390625 7.625 2.203125 
L 7.625 11.71875 
Q 11.71875 9.328125 16.59375 8.109375 
Q 21.484375 6.890625 26.8125 6.890625 
Q 36.078125 6.890625 40.9375 10.546875 
Q 45.796875 14.203125 45.796875 21.1875 
Q 45.796875 27.640625 41.28125 31.265625 
Q 36.765625 34.90625 28.71875 34.90625 
L 20.21875 34.90625 
L 20.21875 43.015625 
L 29.109375 43.015625 
Q 36.375 43.015625 40.234375 45.921875 
Q 44.09375 48.828125 44.09375 54.296875 
Q 44.09375 59.90625 40.109375 62.90625 
Q 36.140625 65.921875 28.71875 65.921875 
Q 24.65625 65.921875 20.015625 65.03125 
Q 15.375 64.15625 9.8125 62.3125 
L 9.8125 71.09375 
Q 15.4375 72.65625 20.34375 73.4375 
Q 25.25 74.21875 29.59375 74.21875 
Q 40.828125 74.21875 47.359375 69.109375 
Q 53.90625 64.015625 53.90625 55.328125 
Q 53.90625 49.265625 50.4375 45.09375 
Q 46.96875 40.921875 40.578125 39.3125 
z
" id="DejaVuSans-51"/>
    </defs>
    <g transform="translate(375.22944 73.095785)scale(0.17 -0.17)">
     <use xlink:href="#DejaVuSans-51"/>
     <use x="63.623047" xlink:href="#DejaVuSans-45"/>
     <use x="99.707031" xlink:href="#DejaVuSans-68"/>
    </g>
   </g>
   <g id="text_18">
    <!-- 2-D -->
    <g transform="translate(375.22944 16.923809)scale(0.17 -0.17)">
     <use xlink:href="#DejaVuSans-50"/>
     <use x="63.623047" xlink:href="#DejaVuSans-45"/>
     <use x="99.707031" xlink:href="#DejaVuSans-68"/>
    </g>
   </g>
   <g id="text_19">
    <!-- bbob f1-f5 -->
    <defs>
     <path d="M 48.6875 27.296875 
Q 48.6875 37.203125 44.609375 42.84375 
Q 40.53125 48.484375 33.40625 48.484375 
Q 26.265625 48.484375 22.1875 42.84375 
Q 18.109375 37.203125 18.109375 27.296875 
Q 18.109375 17.390625 22.1875 11.75 
Q 26.265625 6.109375 33.40625 6.109375 
Q 40.53125 6.109375 44.609375 11.75 
Q 48.6875 17.390625 48.6875 27.296875 
z
M 18.109375 46.390625 
Q 20.953125 51.265625 25.265625 53.625 
Q 29.59375 56 35.59375 56 
Q 45.5625 56 51.78125 48.09375 
Q 58.015625 40.1875 58.015625 27.296875 
Q 58.015625 14.40625 51.78125 6.484375 
Q 45.5625 -1.421875 35.59375 -1.421875 
Q 29.59375 -1.421875 25.265625 0.953125 
Q 20.953125 3.328125 18.109375 8.203125 
L 18.109375 0 
L 9.078125 0 
L 9.078125 75.984375 
L 18.109375 75.984375 
z
" id="DejaVuSans-98"/>
    </defs>
    <g transform="translate(60.41088 14.161286)scale(0.102 -0.102)">
     <use xlink:href="#DejaVuSans-98"/>
     <use x="63.476562" xlink:href="#DejaVuSans-98"/>
     <use x="126.953125" xlink:href="#DejaVuSans-111"/>
     <use x="188.134766" xlink:href="#DejaVuSans-98"/>
     <use x="251.611328" xlink:href="#DejaVuSans-32"/>
     <use x="283.398438" xlink:href="#DejaVuSans-102"/>
     <use x="318.603516" xlink:href="#DejaVuSans-49"/>
     <use x="382.226562" xlink:href="#DejaVuSans-45"/>
     <use x="418.310547" xlink:href="#DejaVuSans-102"/>
     <use x="453.515625" xlink:href="#DejaVuSans-53"/>
    </g>
    <!-- 51 targets: 100..1e-08 -->
    <defs>
     <path d="M 11.71875 12.40625 
L 22.015625 12.40625 
L 22.015625 0 
L 11.71875 0 
z
M 11.71875 51.703125 
L 22.015625 51.703125 
L 22.015625 39.3125 
L 11.71875 39.3125 
z
" id="DejaVuSans-58"/>
    </defs>
    <g transform="translate(60.41088 25.583055)scale(0.102 -0.102)">
     <use xlink:href="#DejaVuSans-53"/>
     <use x="63.623047" xlink:href="#DejaVuSans-49"/>
     <use x="127.246094" xlink:href="#DejaVuSans-32"/>
     <use x="159.033203" xlink:href="#DejaVuSans-116"/>
     <use x="198.242188" xlink:href="#DejaVuSans-97"/>
     <use x="259.521484" xlink:href="#DejaVuSans-114"/>
     <use x="300.619141" xlink:href="#DejaVuSans-103"/>
     <use x="364.095703" xlink:href="#DejaVuSans-101"/>
     <use x="425.619141" xlink:href="#DejaVuSans-116"/>
     <use x="464.828125" xlink:href="#DejaVuSans-115"/>
     <use x="516.927734" xlink:href="#DejaVuSans-58"/>
     <use x="550.619141" xlink:href="#DejaVuSans-32"/>
     <use x="582.40625" xlink:href="#DejaVuSans-49"/>
     <use x="646.029297" xlink:href="#DejaVuSans-48"/>
     <use x="709.652344" xlink:href="#DejaVuSans-48"/>
     <use x="773.275391" xlink:href="#DejaVuSans-46"/>
     <use x="805.0625" xlink:href="#DejaVuSans-46"/>
     <use x="836.849609" xlink:href="#DejaVuSans-49"/>
     <use x="900.472656" xlink:href="#DejaVuSans-101"/>
     <use x="961.996094" xlink:href="#DejaVuSans-45"/>
     <use x="998.080078" xlink:href="#DejaVuSans-48"/>
     <use x="1061.703125" xlink:href="#DejaVuSans-56"/>
    </g>
    <!-- 15 instances -->
    <g transform="translate(60.41088 37.004824)scale(0.102 -0.102)">
     <use xlink:href="#DejaVuSans-49"/>
     <use x="63.623047" xlink:href="#DejaVuSans-53"/>
     <use x="127.246094" xlink:href="#DejaVuSans-32"/>
     <use x="159.033203" xlink:href="#DejaVuSans-105"/>
     <use x="186.816406" xlink:href="#DejaVuSans-110"/>
     <use x="250.195312" xlink:href="#DejaVuSans-115"/>
     <use x="302.294922" xlink:href="#DejaVuSans-116"/>
     <use x="341.503906" xlink:href="#DejaVuSans-97"/>
     <use x="402.783203" xlink:href="#DejaVuSans-110"/>
     <use x="466.162109" xlink:href="#DejaVuSans-99"/>
     <use x="521.142578" xlink:href="#DejaVuSans-101"/>
     <use x="582.666016" xlink:href="#DejaVuSans-115"/>
    </g>
   </g>
   <g id="text_20">
    <!-- v2.4 -->
    <g style="fill:#808080;" transform="translate(187.233062 293.909432)scale(0.1 -0.1)">
     <use xlink:href="#DejaVuSans-118"/>
     <use x="59.179688" xlink:href="#DejaVuSans-50"/>
     <use x="122.802734" xlink:href="#DejaVuSans-46"/>
     <use x="154.589844" xlink:href="#DejaVuSans-52"/>
    </g>
   </g>
  </g>
 </g>
 <defs>
  <clipPath id="p3b77bb83ad">
   <rect height="295.488" width="281.088" x="57.6" y="3.456"/>
  </clipPath>
 </defs>
</svg>
