<?xml version="1.0" encoding="utf-8" standalone="no"?>
<!DOCTYPE svg PUBLIC "-//W3C//DTD SVG 1.1//EN"
  "http://www.w3.org/Graphics/SVG/1.1/DTD/svg11.dtd">
<!-- Created with matplotlib (https://matplotlib.org/) -->
<svg height="345.6pt" version="1.1" viewBox="0 0 460.8 345.6" width="460.8pt" xmlns="http://www.w3.org/2000/svg" xmlns:xlink="http://www.w3.org/1999/xlink">
 <defs>
  <style type="text/css">
*{stroke-linecap:butt;stroke-linejoin:round;}
  </style>
 </defs>
 <g id="figure_1">
  <g id="patch_1">
   <path d="M 0 345.6 
L 460.8 345.6 
L 460.8 0 
L 0 0 
z
" style="fill:#ffffff;"/>
  </g>
  <g id="axes_1">
   <g id="patch_2">
    <path d="M 57.6 298.944 
L 338.688 298.944 
L 338.688 3.456 
L 57.6 3.456 
z
" style="fill:#ffffff;"/>
   </g>
   <g id="matplotlib.axis_1">
    <g id="xtick_1">
     <g id="line2d_1">
      <path clip-path="url(#p765acfe268)" d="M 57.6 298.944 
L 57.6 3.456 
" style="fill:none;stroke:#b0b0b0;stroke-linecap:square;stroke-width:0.8;"/>
     </g>
     <g id="line2d_2">
      <defs>
       <path d="M 0 0 
L 0 3.5 
" id="mb7cefe380b" style="stroke:#000000;stroke-width:0.8;"/>
      </defs>
      <g>
       <use style="stroke:#000000;stroke-width:0.8;" x="57.6" xlink:href="#mb7cefe380b" y="298.944"/>
      </g>
     </g>
     <g id="text_1">
      <!-- 0 -->
      <defs>
       <path d="M 31.78125 66.40625 
Q 24.171875 66.40625 20.328125 58.90625 
Q 16.5 51.421875 16.5 36.375 
Q 16.5 21.390625 20.328125 13.890625 
Q 24.171875 6.390625 31.78125 6.390625 
Q 39.453125 6.390625 43.28125 13.890625 
Q 47.125 21.390625 47.125 36.375 
Q 47.125 51.421875 43.28125 58.90625 
Q 39.453125 66.40625 31.78125 66.40625 
z
M 31.78125 74.21875 
Q 44.046875 74.21875 50.515625 64.515625 
Q 56.984375 54.828125 56.984375 36.375 
Q 56.984375 17.96875 50.515625 8.265625 
Q 44.046875 -1.421875 31.78125 -1.421875 
Q 19.53125 -1.421875 13.0625 8.265625 
Q 6.59375 17.96875 6.59375 36.375 
Q 6.59375 54.828125 13.0625 64.515625 
Q 19.53125 74.21875 31.78125 74.21875 
z
" id="DejaVuSans-48"/>
      </defs>
      <g transform="translate(51.2375 321.140875)scale(0.2 -0.2)">
       <use xlink:href="#DejaVuSans-48"/>
      </g>
     </g>
    </g>
    <g id="xtick_2">
     <g id="line2d_3">
      <path clip-path="url(#p765acfe268)" d="M 137.910857 298.944 
L 137.910857 3.456 
" style="fill:none;stroke:#b0b0b0;stroke-linecap:square;stroke-width:0.8;"/>
     </g>
     <g id="line2d_4">
      <g>
       <use style="stroke:#000000;stroke-width:0.8;" x="137.910857" xlink:href="#mb7cefe380b" y="298.944"/>
      </g>
     </g>
     <g id="text_2">
      <!-- 2 -->
      <defs>
       <path d="M 19.1875 8.296875 
L 53.609375 8.296875 
L 53.609375 0 
L 7.328125 0 
L 7.328125 8.296875 
Q 12.9375 14.109375 22.625 23.890625 
Q 32.328125 33.6875 34.8125 36.53125 
Q 39.546875 41.84375 41.421875 45.53125 
Q 43.3125 49.21875 43.3125 52.78125 
Q 43.3125 58.59375 39.234375 62.25 
Q 35.15625 65.921875 28.609375 65.921875 
Q 23.96875 65.921875 18.8125 64.3125 
Q 13.671875 62.703125 7.8125 59.421875 
L 7.8125 69.390625 
Q 13.765625 71.78125 18.9375 73 
Q 24.125 74.21875 28.421875 74.21875 
Q 39.75 74.21875 46.484375 68.546875 
Q 53.21875 62.890625 53.21875 53.421875 
Q 53.21875 48.921875 51.53125 44.890625 
Q 49.859375 40.875 45.40625 35.40625 
Q 44.1875 33.984375 37.640625 27.21875 
Q 31.109375 20.453125 19.1875 8.296875 
z
" id="DejaVuSans-50"/>
      </defs>
      <g transform="translate(131.548357 321.140875)scale(0.2 -0.2)">
       <use xlink:href="#DejaVuSans-50"/>
      </g>
     </g>
    </g>
    <g id="xtick_3">
     <g id="line2d_5">
      <path clip-path="url(#p765acfe268)" d="M 218.221714 298.944 
L 218.221714 3.456 
" style="fill:none;stroke:#b0b0b0;stroke-linecap:square;stroke-width:0.8;"/>
     </g>
     <g id="line2d_6">
      <g>
       <use style="stroke:#000000;stroke-width:0.8;" x="218.221714" xlink:href="#mb7cefe380b" y="298.944"/>
      </g>
     </g>
     <g id="text_3">
      <!-- 4 -->
      <defs>
       <path d="M 37.796875 64.3125 
L 12.890625 25.390625 
L 37.796875 25.390625 
z
M 35.203125 72.90625 
L 47.609375 72.90625 
L 47.609375 25.390625 
L 58.015625 25.390625 
L 58.015625 17.1875 
L 47.609375 17.1875 
L 47.609375 0 
L 37.796875 0 
L 37.796875 17.1875 
L 4.890625 17.1875 
L 4.890625 26.703125 
z
" id="DejaVuSans-52"/>
      </defs>
      <g transform="translate(211.859214 321.140875)scale(0.2 -0.2)">
       <use xlink:href="#DejaVuSans-52"/>
      </g>
     </g>
    </g>
    <g id="xtick_4">
     <g id="line2d_7">
      <path clip-path="url(#p765acfe268)" d="M 298.532571 298.944 
L 298.532571 3.456 
" style="fill:none;stroke:#b0b0b0;stroke-linecap:square;stroke-width:0.8;"/>
     </g>
     <g id="line2d_8">
      <g>
       <use style="stroke:#000000;stroke-width:0.8;" x="298.532571" xlink:href="#mb7cefe380b" y="298.944"/>
      </g>
     </g>
     <g id="text_4">
      <!-- 6 -->
      <defs>
       <path d="M 33.015625 40.375 
Q 26.375 40.375 22.484375 35.828125 
Q 18.609375 31.296875 18.609375 23.390625 
Q 18.609375 15.53125 22.484375 10.953125 
Q 26.375 6.390625 33.015625 6.390625 
Q 39.65625 6.390625 43.53125 10.953125 
Q 47.40625 15.53125 47.40625 23.390625 
Q 47.40625 31.296875 43.53125 35.828125 
Q 39.65625 40.375 33.015625 40.375 
z
M 52.59375 71.296875 
L 52.59375 62.3125 
Q 48.875 64.0625 45.09375 64.984375 
Q 41.3125 65.921875 37.59375 65.921875 
Q 27.828125 65.921875 22.671875 59.328125 
Q 17.53125 52.734375 16.796875 39.40625 
Q 19.671875 43.65625 24.015625 45.921875 
Q 28.375 48.1875 33.59375 48.1875 
Q 44.578125 48.1875 50.953125 41.515625 
Q 57.328125 34.859375 57.328125 23.390625 
Q 57.328125 12.15625 50.6875 5.359375 
Q 44.046875 -1.421875 33.015625 -1.421875 
Q 20.359375 -1.421875 13.671875 8.265625 
Q 6.984375 17.96875 6.984375 36.375 
Q 6.984375 53.65625 15.1875 63.9375 
Q 23.390625 74.21875 37.203125 74.21875 
Q 40.921875 74.21875 44.703125 73.484375 
Q 48.484375 72.75 52.59375 71.296875 
z
" id="DejaVuSans-54"/>
      </defs>
      <g transform="translate(292.170071 321.140875)scale(0.2 -0.2)">
       <use xlink:href="#DejaVuSans-54"/>
      </g>
     </g>
    </g>
    <g id="xtick_5">
     <g id="line2d_9">
      <path clip-path="url(#p765acfe268)" d="M 97.755429 298.944 
L 97.755429 3.456 
" style="fill:none;stroke:#b0b0b0;stroke-linecap:square;stroke-width:0.8;"/>
     </g>
     <g id="line2d_10">
      <defs>
       <path d="M 0 0 
L 0 2 
" id="m25f04ba64a" style="stroke:#000000;stroke-width:0.6;"/>
      </defs>
      <g>
       <use style="stroke:#000000;stroke-width:0.6;" x="97.755429" xlink:href="#m25f04ba64a" y="298.944"/>
      </g>
     </g>
    </g>
    <g id="xtick_6">
     <g id="line2d_11">
      <path clip-path="url(#p765acfe268)" d="M 178.066286 298.944 
L 178.066286 3.456 
" style="fill:none;stroke:#b0b0b0;stroke-linecap:square;stroke-width:0.8;"/>
     </g>
     <g id="line2d_12">
      <g>
       <use style="stroke:#000000;stroke-width:0.6;" x="178.066286" xlink:href="#m25f04ba64a" y="298.944"/>
      </g>
     </g>
    </g>
    <g id="xtick_7">
     <g id="line2d_13">
      <path clip-path="url(#p765acfe268)" d="M 258.377143 298.944 
L 258.377143 3.456 
" style="fill:none;stroke:#b0b0b0;stroke-linecap:square;stroke-width:0.8;"/>
     </g>
     <g id="line2d_14">
      <g>
       <use style="stroke:#000000;stroke-width:0.6;" x="258.377143" xlink:href="#m25f04ba64a" y="298.944"/>
      </g>
     </g>
    </g>
    <g id="xtick_8">
     <g id="line2d_15">
      <path clip-path="url(#p765acfe268)" d="M 338.688 298.944 
L 338.688 3.456 
" style="fill:none;stroke:#b0b0b0;stroke-linecap:square;stroke-width:0.8;"/>
     </g>
     <g id="line2d_16">
      <g>
       <use style="stroke:#000000;stroke-width:0.6;" x="338.688" xlink:href="#m25f04ba64a" y="298.944"/>
      </g>
     </g>
    </g>
    <g id="text_5">
     <!-- log10(# f-evals / dimension) -->
     <defs>
      <path d="M 9.421875 75.984375 
L 18.40625 75.984375 
L 18.40625 0 
L 9.421875 0 
z
" id="DejaVuSans-108"/>
      <path d="M 30.609375 48.390625 
Q 23.390625 48.390625 19.1875 42.75 
Q 14.984375 37.109375 14.984375 27.296875 
Q 14.984375 17.484375 19.15625 11.84375 
Q 23.34375 6.203125 30.609375 6.203125 
Q 37.796875 6.203125 41.984375 11.859375 
Q 46.1875 17.53125 46.1875 27.296875 
Q 46.1875 37.015625 41.984375 42.703125 
Q 37.796875 48.390625 30.609375 48.390625 
z
M 30.609375 56 
Q 42.328125 56 49.015625 48.375 
Q 55.71875 40.765625 55.71875 27.296875 
Q 55.71875 13.875 49.015625 6.21875 
Q 42.328125 -1.421875 30.609375 -1.421875 
Q 18.84375 -1.421875 12.171875 6.21875 
Q 5.515625 13.875 5.515625 27.296875 
Q 5.515625 40.765625 12.171875 48.375 
Q 18.84375 56 30.609375 56 
z
" id="DejaVuSans-111"/>
      <path d="M 45.40625 27.984375 
Q 45.40625 37.75 41.375 43.109375 
Q 37.359375 48.484375 30.078125 48.484375 
Q 22.859375 48.484375 18.828125 43.109375 
Q 14.796875 37.75 14.796875 27.984375 
Q 14.796875 18.265625 18.828125 12.890625 
Q 22.859375 7.515625 30.078125 7.515625 
Q 37.359375 7.515625 41.375 12.890625 
Q 45.40625 18.265625 45.40625 27.984375 
z
M 54.390625 6.78125 
Q 54.390625 -7.171875 48.1875 -13.984375 
Q 42 -20.796875 29.203125 -20.796875 
Q 24.46875 -20.796875 20.265625 -20.09375 
Q 16.0625 -19.390625 12.109375 -17.921875 
L 12.109375 -9.1875 
Q 16.0625 -11.328125 19.921875 -12.34375 
Q 23.78125 -13.375 27.78125 -13.375 
Q 36.625 -13.375 41.015625 -8.765625 
Q 45.40625 -4.15625 45.40625 5.171875 
L 45.40625 9.625 
Q 42.625 4.78125 38.28125 2.390625 
Q 33.9375 0 27.875 0 
Q 17.828125 0 11.671875 7.65625 
Q 5.515625 15.328125 5.515625 27.984375 
Q 5.515625 40.671875 11.671875 48.328125 
Q 17.828125 56 27.875 56 
Q 33.9375 56 38.28125 53.609375 
Q 42.625 51.21875 45.40625 46.390625 
L 45.40625 54.6875 
L 54.390625 54.6875 
z
" id="DejaVuSans-103"/>
      <path d="M 12.40625 8.296875 
L 28.515625 8.296875 
L 28.515625 63.921875 
L 10.984375 60.40625 
L 10.984375 69.390625 
L 28.421875 72.90625 
L 38.28125 72.90625 
L 38.28125 8.296875 
L 54.390625 8.296875 
L 54.390625 0 
L 12.40625 0 
z
" id="DejaVuSans-49"/>
      <path d="M 31 75.875 
Q 24.46875 64.65625 21.28125 53.65625 
Q 18.109375 42.671875 18.109375 31.390625 
Q 18.109375 20.125 21.3125 9.0625 
Q 24.515625 -2 31 -13.1875 
L 23.1875 -13.1875 
Q 15.875 -1.703125 12.234375 9.375 
Q 8.59375 20.453125 8.59375 31.390625 
Q 8.59375 42.28125 12.203125 53.3125 
Q 15.828125 64.359375 23.1875 75.875 
z
" id="DejaVuSans-40"/>
      <path d="M 51.125 44 
L 36.921875 44 
L 32.8125 27.6875 
L 47.125 27.6875 
z
M 43.796875 71.78125 
L 38.71875 51.515625 
L 52.984375 51.515625 
L 58.109375 71.78125 
L 65.921875 71.78125 
L 60.890625 51.515625 
L 76.125 51.515625 
L 76.125 44 
L 58.984375 44 
L 54.984375 27.6875 
L 70.515625 27.6875 
L 70.515625 20.21875 
L 53.078125 20.21875 
L 48 0 
L 40.1875 0 
L 45.21875 20.21875 
L 30.90625 20.21875 
L 25.875 0 
L 18.015625 0 
L 23.09375 20.21875 
L 7.71875 20.21875 
L 7.71875 27.6875 
L 24.90625 27.6875 
L 29 44 
L 13.28125 44 
L 13.28125 51.515625 
L 30.90625 51.515625 
L 35.890625 71.78125 
z
" id="DejaVuSans-35"/>
      <path id="DejaVuSans-32"/>
      <path d="M 37.109375 75.984375 
L 37.109375 68.5 
L 28.515625 68.5 
Q 23.6875 68.5 21.796875 66.546875 
Q 19.921875 64.59375 19.921875 59.515625 
L 19.921875 54.6875 
L 34.71875 54.6875 
L 34.71875 47.703125 
L 19.921875 47.703125 
L 19.921875 0 
L 10.890625 0 
L 10.890625 47.703125 
L 2.296875 47.703125 
L 2.296875 54.6875 
L 10.890625 54.6875 
L 10.890625 58.5 
Q 10.890625 67.625 15.140625 71.796875 
Q 19.390625 75.984375 28.609375 75.984375 
z
" id="DejaVuSans-102"/>
      <path d="M 4.890625 31.390625 
L 31.203125 31.390625 
L 31.203125 23.390625 
L 4.890625 23.390625 
z
" id="DejaVuSans-45"/>
      <path d="M 56.203125 29.59375 
L 56.203125 25.203125 
L 14.890625 25.203125 
Q 15.484375 15.921875 20.484375 11.0625 
Q 25.484375 6.203125 34.421875 6.203125 
Q 39.59375 6.203125 44.453125 7.46875 
Q 49.3125 8.734375 54.109375 11.28125 
L 54.109375 2.78125 
Q 49.265625 0.734375 44.1875 -0.34375 
Q 39.109375 -1.421875 33.890625 -1.421875 
Q 20.796875 -1.421875 13.15625 6.1875 
Q 5.515625 13.8125 5.515625 26.8125 
Q 5.515625 40.234375 12.765625 48.109375 
Q 20.015625 56 32.328125 56 
Q 43.359375 56 49.78125 48.890625 
Q 56.203125 41.796875 56.203125 29.59375 
z
M 47.21875 32.234375 
Q 47.125 39.59375 43.09375 43.984375 
Q 39.0625 48.390625 32.421875 48.390625 
Q 24.90625 48.390625 20.390625 44.140625 
Q 15.875 39.890625 15.1875 32.171875 
z
" id="DejaVuSans-101"/>
      <path d="M 2.984375 54.6875 
L 12.5 54.6875 
L 29.59375 8.796875 
L 46.6875 54.6875 
L 56.203125 54.6875 
L 35.6875 0 
L 23.484375 0 
z
" id="DejaVuSans-118"/>
      <path d="M 34.28125 27.484375 
Q 23.390625 27.484375 19.1875 25 
Q 14.984375 22.515625 14.984375 16.5 
Q 14.984375 11.71875 18.140625 8.90625 
Q 21.296875 6.109375 26.703125 6.109375 
Q 34.1875 6.109375 38.703125 11.40625 
Q 43.21875 16.703125 43.21875 25.484375 
L 43.21875 27.484375 
z
M 52.203125 31.203125 
L 52.203125 0 
L 43.21875 0 
L 43.21875 8.296875 
Q 40.140625 3.328125 35.546875 0.953125 
Q 30.953125 -1.421875 24.3125 -1.421875 
Q 15.921875 -1.421875 10.953125 3.296875 
Q 6 8.015625 6 15.921875 
Q 6 25.140625 12.171875 29.828125 
Q 18.359375 34.515625 30.609375 34.515625 
L 43.21875 34.515625 
L 43.21875 35.40625 
Q 43.21875 41.609375 39.140625 45 
Q 35.0625 48.390625 27.6875 48.390625 
Q 23 48.390625 18.546875 47.265625 
Q 14.109375 46.140625 10.015625 43.890625 
L 10.015625 52.203125 
Q 14.9375 54.109375 19.578125 55.046875 
Q 24.21875 56 28.609375 56 
Q 40.484375 56 46.34375 49.84375 
Q 52.203125 43.703125 52.203125 31.203125 
z
" id="DejaVuSans-97"/>
      <path d="M 44.28125 53.078125 
L 44.28125 44.578125 
Q 40.484375 46.53125 36.375 47.5 
Q 32.28125 48.484375 27.875 48.484375 
Q 21.1875 48.484375 17.84375 46.4375 
Q 14.5 44.390625 14.5 40.28125 
Q 14.5 37.15625 16.890625 35.375 
Q 19.28125 33.59375 26.515625 31.984375 
L 29.59375 31.296875 
Q 39.15625 29.25 43.1875 25.515625 
Q 47.21875 21.78125 47.21875 15.09375 
Q 47.21875 7.46875 41.1875 3.015625 
Q 35.15625 -1.421875 24.609375 -1.421875 
Q 20.21875 -1.421875 15.453125 -0.5625 
Q 10.6875 0.296875 5.421875 2 
L 5.421875 11.28125 
Q 10.40625 8.6875 15.234375 7.390625 
Q 20.0625 6.109375 24.8125 6.109375 
Q 31.15625 6.109375 34.5625 8.28125 
Q 37.984375 10.453125 37.984375 14.40625 
Q 37.984375 18.0625 35.515625 20.015625 
Q 33.0625 21.96875 24.703125 23.78125 
L 21.578125 24.515625 
Q 13.234375 26.265625 9.515625 29.90625 
Q 5.8125 33.546875 5.8125 39.890625 
Q 5.8125 47.609375 11.28125 51.796875 
Q 16.75 56 26.8125 56 
Q 31.78125 56 36.171875 55.265625 
Q 40.578125 54.546875 44.28125 53.078125 
z
" id="DejaVuSans-115"/>
      <path d="M 25.390625 72.90625 
L 33.6875 72.90625 
L 8.296875 -9.28125 
L 0 -9.28125 
z
" id="DejaVuSans-47"/>
      <path d="M 45.40625 46.390625 
L 45.40625 75.984375 
L 54.390625 75.984375 
L 54.390625 0 
L 45.40625 0 
L 45.40625 8.203125 
Q 42.578125 3.328125 38.25 0.953125 
Q 33.9375 -1.421875 27.875 -1.421875 
Q 17.96875 -1.421875 11.734375 6.484375 
Q 5.515625 14.40625 5.515625 27.296875 
Q 5.515625 40.1875 11.734375 48.09375 
Q 17.96875 56 27.875 56 
Q 33.9375 56 38.25 53.625 
Q 42.578125 51.265625 45.40625 46.390625 
z
M 14.796875 27.296875 
Q 14.796875 17.390625 18.875 11.75 
Q 22.953125 6.109375 30.078125 6.109375 
Q 37.203125 6.109375 41.296875 11.75 
Q 45.40625 17.390625 45.40625 27.296875 
Q 45.40625 37.203125 41.296875 42.84375 
Q 37.203125 48.484375 30.078125 48.484375 
Q 22.953125 48.484375 18.875 42.84375 
Q 14.796875 37.203125 14.796875 27.296875 
z
" id="DejaVuSans-100"/>
      <path d="M 9.421875 54.6875 
L 18.40625 54.6875 
L 18.40625 0 
L 9.421875 0 
z
M 9.421875 75.984375 
L 18.40625 75.984375 
L 18.40625 64.59375 
L 9.421875 64.59375 
z
" id="DejaVuSans-105"/>
      <path d="M 52 44.1875 
Q 55.375 50.25 60.0625 53.125 
Q 64.75 56 71.09375 56 
Q 79.640625 56 84.28125 50.015625 
Q 88.921875 44.046875 88.921875 33.015625 
L 88.921875 0 
L 79.890625 0 
L 79.890625 32.71875 
Q 79.890625 40.578125 77.09375 44.375 
Q 74.3125 48.1875 68.609375 48.1875 
Q 61.625 48.1875 57.5625 43.546875 
Q 53.515625 38.921875 53.515625 30.90625 
L 53.515625 0 
L 44.484375 0 
L 44.484375 32.71875 
Q 44.484375 40.625 41.703125 44.40625 
Q 38.921875 48.1875 33.109375 48.1875 
Q 26.21875 48.1875 22.15625 43.53125 
Q 18.109375 38.875 18.109375 30.90625 
L 18.109375 0 
L 9.078125 0 
L 9.078125 54.6875 
L 18.109375 54.6875 
L 18.109375 46.1875 
Q 21.1875 51.21875 25.484375 53.609375 
Q 29.78125 56 35.6875 56 
Q 41.65625 56 45.828125 52.96875 
Q 50 49.953125 52 44.1875 
z
" id="DejaVuSans-109"/>
      <path d="M 54.890625 33.015625 
L 54.890625 0 
L 45.90625 0 
L 45.90625 32.71875 
Q 45.90625 40.484375 42.875 44.328125 
Q 39.84375 48.1875 33.796875 48.1875 
Q 26.515625 48.1875 22.3125 43.546875 
Q 18.109375 38.921875 18.109375 30.90625 
L 18.109375 0 
L 9.078125 0 
L 9.078125 54.6875 
L 18.109375 54.6875 
L 18.109375 46.1875 
Q 21.34375 51.125 25.703125 53.5625 
Q 30.078125 56 35.796875 56 
Q 45.21875 56 50.046875 50.171875 
Q 54.890625 44.34375 54.890625 33.015625 
z
" id="DejaVuSans-110"/>
      <path d="M 8.015625 75.875 
L 15.828125 75.875 
Q 23.140625 64.359375 26.78125 53.3125 
Q 30.421875 42.28125 30.421875 31.390625 
Q 30.421875 20.453125 26.78125 9.375 
Q 23.140625 -1.703125 15.828125 -13.1875 
L 8.015625 -13.1875 
Q 14.5 -2 17.703125 9.0625 
Q 20.90625 20.125 20.90625 31.390625 
Q 20.90625 42.671875 17.703125 53.65625 
Q 14.5 64.65625 8.015625 75.875 
z
" id="DejaVuSans-41"/>
     </defs>
     <g transform="translate(77.303219 342.217594)scale(0.17 -0.17)">
      <use xlink:href="#DejaVuSans-108"/>
      <use x="27.783203" xlink:href="#DejaVuSans-111"/>
      <use x="88.964844" xlink:href="#DejaVuSans-103"/>
      <use x="152.441406" xlink:href="#DejaVuSans-49"/>
      <use x="216.064453" xlink:href="#DejaVuSans-48"/>
      <use x="279.6875" xlink:href="#DejaVuSans-40"/>
      <use x="318.701172" xlink:href="#DejaVuSans-35"/>
      <use x="402.490234" xlink:href="#DejaVuSans-32"/>
      <use x="434.277344" xlink:href="#DejaVuSans-102"/>
      <use x="469.404297" xlink:href="#DejaVuSans-45"/>
      <use x="505.488281" xlink:href="#DejaVuSans-101"/>
      <use x="567.011719" xlink:href="#DejaVuSans-118"/>
      <use x="626.191406" xlink:href="#DejaVuSans-97"/>
      <use x="687.470703" xlink:href="#DejaVuSans-108"/>
      <use x="715.253906" xlink:href="#DejaVuSans-115"/>
      <use x="767.353516" xlink:href="#DejaVuSans-32"/>
      <use x="799.140625" xlink:href="#DejaVuSans-47"/>
      <use x="832.832031" xlink:href="#DejaVuSans-32"/>
      <use x="864.619141" xlink:href="#DejaVuSans-100"/>
      <use x="928.095703" xlink:href="#DejaVuSans-105"/>
      <use x="955.878906" xlink:href="#DejaVuSans-109"/>
      <use x="1053.291016" xlink:href="#DejaVuSans-101"/>
      <use x="1114.814453" xlink:href="#DejaVuSans-110"/>
      <use x="1178.193359" xlink:href="#DejaVuSans-115"/>
      <use x="1230.292969" xlink:href="#DejaVuSans-105"/>
      <use x="1258.076172" xlink:href="#DejaVuSans-111"/>
      <use x="1319.257812" xlink:href="#DejaVuSans-110"/>
      <use x="1382.636719" xlink:href="#DejaVuSans-41"/>
     </g>
    </g>
   </g>
   <g id="matplotlib.axis_2">
    <g id="ytick_1">
     <g id="line2d_17">
      <path clip-path="url(#p765acfe268)" d="M 57.6 298.944 
L 338.688 298.944 
" style="fill:none;stroke:#b0b0b0;stroke-linecap:square;stroke-width:0.8;"/>
     </g>
     <g id="line2d_18">
      <defs>
       <path d="M 0 0 
L -3.5 0 
" id="m0c26e85866" style="stroke:#000000;stroke-width:0.8;"/>
      </defs>
      <g>
       <use style="stroke:#000000;stroke-width:0.8;" x="57.6" xlink:href="#m0c26e85866" y="298.944"/>
      </g>
     </g>
     <g id="text_6">
      <!-- 0.0 -->
      <defs>
       <path d="M 10.6875 12.40625 
L 21 12.40625 
L 21 0 
L 10.6875 0 
z
" id="DejaVuSans-46"/>
      </defs>
      <g transform="translate(25.155 305.02275)scale(0.16 -0.16)">
       <use xlink:href="#DejaVuSans-48"/>
       <use x="63.623047" xlink:href="#DejaVuSans-46"/>
       <use x="95.410156" xlink:href="#DejaVuSans-48"/>
      </g>
     </g>
    </g>
    <g id="ytick_2">
     <g id="line2d_19">
      <path clip-path="url(#p765acfe268)" d="M 57.6 240.431525 
L 338.688 240.431525 
" style="fill:none;stroke:#b0b0b0;stroke-linecap:square;stroke-width:0.8;"/>
     </g>
     <g id="line2d_20">
      <g>
       <use style="stroke:#000000;stroke-width:0.8;" x="57.6" xlink:href="#m0c26e85866" y="240.431525"/>
      </g>
     </g>
     <g id="text_7">
      <!-- 0.2 -->
      <g transform="translate(25.155 246.510275)scale(0.16 -0.16)">
       <use xlink:href="#DejaVuSans-48"/>
       <use x="63.623047" xlink:href="#DejaVuSans-46"/>
       <use x="95.410156" xlink:href="#DejaVuSans-50"/>
      </g>
     </g>
    </g>
    <g id="ytick_3">
     <g id="line2d_21">
      <path clip-path="url(#p765acfe268)" d="M 57.6 181.91905 
L 338.688 181.91905 
" style="fill:none;stroke:#b0b0b0;stroke-linecap:square;stroke-width:0.8;"/>
     </g>
     <g id="line2d_22">
      <g>
       <use style="stroke:#000000;stroke-width:0.8;" x="57.6" xlink:href="#m0c26e85866" y="181.91905"/>
      </g>
     </g>
     <g id="text_8">
      <!-- 0.4 -->
      <g transform="translate(25.155 187.9978)scale(0.16 -0.16)">
       <use xlink:href="#DejaVuSans-48"/>
       <use x="63.623047" xlink:href="#DejaVuSans-46"/>
       <use x="95.410156" xlink:href="#DejaVuSans-52"/>
      </g>
     </g>
    </g>
    <g id="ytick_4">
     <g id="line2d_23">
      <path clip-path="url(#p765acfe268)" d="M 57.6 123.406574 
L 338.688 123.406574 
" style="fill:none;stroke:#b0b0b0;stroke-linecap:square;stroke-width:0.8;"/>
     </g>
     <g id="line2d_24">
      <g>
       <use style="stroke:#000000;stroke-width:0.8;" x="57.6" xlink:href="#m0c26e85866" y="123.406574"/>
      </g>
     </g>
     <g id="text_9">
      <!-- 0.6 -->
      <g transform="translate(25.155 129.485324)scale(0.16 -0.16)">
       <use xlink:href="#DejaVuSans-48"/>
       <use x="63.623047" xlink:href="#DejaVuSans-46"/>
       <use x="95.410156" xlink:href="#DejaVuSans-54"/>
      </g>
     </g>
    </g>
    <g id="ytick_5">
     <g id="line2d_25">
      <path clip-path="url(#p765acfe268)" d="M 57.6 64.894099 
L 338.688 64.894099 
" style="fill:none;stroke:#b0b0b0;stroke-linecap:square;stroke-width:0.8;"/>
     </g>
     <g id="line2d_26">
      <g>
       <use style="stroke:#000000;stroke-width:0.8;" x="57.6" xlink:href="#m0c26e85866" y="64.894099"/>
      </g>
     </g>
     <g id="text_10">
      <!-- 0.8 -->
      <defs>
       <path d="M 31.78125 34.625 
Q 24.75 34.625 20.71875 30.859375 
Q 16.703125 27.09375 16.703125 20.515625 
Q 16.703125 13.921875 20.71875 10.15625 
Q 24.75 6.390625 31.78125 6.390625 
Q 38.8125 6.390625 42.859375 10.171875 
Q 46.921875 13.96875 46.921875 20.515625 
Q 46.921875 27.09375 42.890625 30.859375 
Q 38.875 34.625 31.78125 34.625 
z
M 21.921875 38.8125 
Q 15.578125 40.375 12.03125 44.71875 
Q 8.5 49.078125 8.5 55.328125 
Q 8.5 64.0625 14.71875 69.140625 
Q 20.953125 74.21875 31.78125 74.21875 
Q 42.671875 74.21875 48.875 69.140625 
Q 55.078125 64.0625 55.078125 55.328125 
Q 55.078125 49.078125 51.53125 44.71875 
Q 48 40.375 41.703125 38.8125 
Q 48.828125 37.15625 52.796875 32.3125 
Q 56.78125 27.484375 56.78125 20.515625 
Q 56.78125 9.90625 50.3125 4.234375 
Q 43.84375 -1.421875 31.78125 -1.421875 
Q 19.734375 -1.421875 13.25 4.234375 
Q 6.78125 9.90625 6.78125 20.515625 
Q 6.78125 27.484375 10.78125 32.3125 
Q 14.796875 37.15625 21.921875 38.8125 
z
M 18.3125 54.390625 
Q 18.3125 48.734375 21.84375 45.5625 
Q 25.390625 42.390625 31.78125 42.390625 
Q 38.140625 42.390625 41.71875 45.5625 
Q 45.3125 48.734375 45.3125 54.390625 
Q 45.3125 60.0625 41.71875 63.234375 
Q 38.140625 66.40625 31.78125 66.40625 
Q 25.390625 66.40625 21.84375 63.234375 
Q 18.3125 60.0625 18.3125 54.390625 
z
" id="DejaVuSans-56"/>
      </defs>
      <g transform="translate(25.155 70.972849)scale(0.16 -0.16)">
       <use xlink:href="#DejaVuSans-48"/>
       <use x="63.623047" xlink:href="#DejaVuSans-46"/>
       <use x="95.410156" xlink:href="#DejaVuSans-56"/>
      </g>
     </g>
    </g>
    <g id="ytick_6">
     <g id="line2d_27">
      <path clip-path="url(#p765acfe268)" d="M 57.6 6.381624 
L 338.688 6.381624 
" style="fill:none;stroke:#b0b0b0;stroke-linecap:square;stroke-width:0.8;"/>
     </g>
     <g id="line2d_28">
      <g>
       <use style="stroke:#000000;stroke-width:0.8;" x="57.6" xlink:href="#m0c26e85866" y="6.381624"/>
      </g>
     </g>
     <g id="text_11">
      <!-- 1.0 -->
      <g transform="translate(25.155 12.460374)scale(0.16 -0.16)">
       <use xlink:href="#DejaVuSans-49"/>
       <use x="63.623047" xlink:href="#DejaVuSans-46"/>
       <use x="95.410156" xlink:href="#DejaVuSans-48"/>
      </g>
     </g>
    </g>
    <g id="text_12">
     <!-- Fraction of function,target pairs -->
     <defs>
      <path d="M 9.8125 72.90625 
L 51.703125 72.90625 
L 51.703125 64.59375 
L 19.671875 64.59375 
L 19.671875 43.109375 
L 48.578125 43.109375 
L 48.578125 34.8125 
L 19.671875 34.8125 
L 19.671875 0 
L 9.8125 0 
z
" id="DejaVuSans-70"/>
      <path d="M 41.109375 46.296875 
Q 39.59375 47.171875 37.8125 47.578125 
Q 36.03125 48 33.890625 48 
Q 26.265625 48 22.1875 43.046875 
Q 18.109375 38.09375 18.109375 28.8125 
L 18.109375 0 
L 9.078125 0 
L 9.078125 54.6875 
L 18.109375 54.6875 
L 18.109375 46.1875 
Q 20.953125 51.171875 25.484375 53.578125 
Q 30.03125 56 36.53125 56 
Q 37.453125 56 38.578125 55.875 
Q 39.703125 55.765625 41.0625 55.515625 
z
" id="DejaVuSans-114"/>
      <path d="M 48.78125 52.59375 
L 48.78125 44.1875 
Q 44.96875 46.296875 41.140625 47.34375 
Q 37.3125 48.390625 33.40625 48.390625 
Q 24.65625 48.390625 19.8125 42.84375 
Q 14.984375 37.3125 14.984375 27.296875 
Q 14.984375 17.28125 19.8125 11.734375 
Q 24.65625 6.203125 33.40625 6.203125 
Q 37.3125 6.203125 41.140625 7.25 
Q 44.96875 8.296875 48.78125 10.40625 
L 48.78125 2.09375 
Q 45.015625 0.34375 40.984375 -0.53125 
Q 36.96875 -1.421875 32.421875 -1.421875 
Q 20.0625 -1.421875 12.78125 6.34375 
Q 5.515625 14.109375 5.515625 27.296875 
Q 5.515625 40.671875 12.859375 48.328125 
Q 20.21875 56 33.015625 56 
Q 37.15625 56 41.109375 55.140625 
Q 45.0625 54.296875 48.78125 52.59375 
z
" id="DejaVuSans-99"/>
      <path d="M 18.3125 70.21875 
L 18.3125 54.6875 
L 36.8125 54.6875 
L 36.8125 47.703125 
L 18.3125 47.703125 
L 18.3125 18.015625 
Q 18.3125 11.328125 20.140625 9.421875 
Q 21.96875 7.515625 27.59375 7.515625 
L 36.8125 7.515625 
L 36.8125 0 
L 27.59375 0 
Q 17.1875 0 13.234375 3.875 
Q 9.28125 7.765625 9.28125 18.015625 
L 9.28125 47.703125 
L 2.6875 47.703125 
L 2.6875 54.6875 
L 9.28125 54.6875 
L 9.28125 70.21875 
z
" id="DejaVuSans-116"/>
      <path d="M 8.5 21.578125 
L 8.5 54.6875 
L 17.484375 54.6875 
L 17.484375 21.921875 
Q 17.484375 14.15625 20.5 10.265625 
Q 23.53125 6.390625 29.59375 6.390625 
Q 36.859375 6.390625 41.078125 11.03125 
Q 45.3125 15.671875 45.3125 23.6875 
L 45.3125 54.6875 
L 54.296875 54.6875 
L 54.296875 0 
L 45.3125 0 
L 45.3125 8.40625 
Q 42.046875 3.421875 37.71875 1 
Q 33.40625 -1.421875 27.6875 -1.421875 
Q 18.265625 -1.421875 13.375 4.4375 
Q 8.5 10.296875 8.5 21.578125 
z
M 31.109375 56 
z
" id="DejaVuSans-117"/>
      <path d="M 11.71875 12.40625 
L 22.015625 12.40625 
L 22.015625 4 
L 14.015625 -11.625 
L 7.71875 -11.625 
L 11.71875 4 
z
" id="DejaVuSans-44"/>
      <path d="M 18.109375 8.203125 
L 18.109375 -20.796875 
L 9.078125 -20.796875 
L 9.078125 54.6875 
L 18.109375 54.6875 
L 18.109375 46.390625 
Q 20.953125 51.265625 25.265625 53.625 
Q 29.59375 56 35.59375 56 
Q 45.5625 56 51.78125 48.09375 
Q 58.015625 40.1875 58.015625 27.296875 
Q 58.015625 14.40625 51.78125 6.484375 
Q 45.5625 -1.421875 35.59375 -1.421875 
Q 29.59375 -1.421875 25.265625 0.953125 
Q 20.953125 3.328125 18.109375 8.203125 
z
M 48.6875 27.296875 
Q 48.6875 37.203125 44.609375 42.84375 
Q 40.53125 48.484375 33.40625 48.484375 
Q 26.265625 48.484375 22.1875 42.84375 
Q 18.109375 37.203125 18.109375 27.296875 
Q 18.109375 17.390625 22.1875 11.75 
Q 26.265625 6.109375 33.40625 6.109375 
Q 40.53125 6.109375 44.609375 11.75 
Q 48.6875 17.390625 48.6875 27.296875 
z
" id="DejaVuSans-112"/>
     </defs>
     <g transform="translate(17.619531 286.339375)rotate(-90)scale(0.17 -0.17)">
      <use xlink:href="#DejaVuSans-70"/>
      <use x="57.410156" xlink:href="#DejaVuSans-114"/>
      <use x="98.523438" xlink:href="#DejaVuSans-97"/>
      <use x="159.802734" xlink:href="#DejaVuSans-99"/>
      <use x="214.783203" xlink:href="#DejaVuSans-116"/>
      <use x="253.992188" xlink:href="#DejaVuSans-105"/>
      <use x="281.775391" xlink:href="#DejaVuSans-111"/>
      <use x="342.957031" xlink:href="#DejaVuSans-110"/>
      <use x="406.335938" xlink:href="#DejaVuSans-32"/>
      <use x="438.123047" xlink:href="#DejaVuSans-111"/>
      <use x="499.304688" xlink:href="#DejaVuSans-102"/>
      <use x="534.509766" xlink:href="#DejaVuSans-32"/>
      <use x="566.296875" xlink:href="#DejaVuSans-102"/>
      <use x="601.501953" xlink:href="#DejaVuSans-117"/>
      <use x="664.880859" xlink:href="#DejaVuSans-110"/>
      <use x="728.259766" xlink:href="#DejaVuSans-99"/>
      <use x="783.240234" xlink:href="#DejaVuSans-116"/>
      <use x="822.449219" xlink:href="#DejaVuSans-105"/>
      <use x="850.232422" xlink:href="#DejaVuSans-111"/>
      <use x="911.414062" xlink:href="#DejaVuSans-110"/>
      <use x="974.792969" xlink:href="#DejaVuSans-44"/>
      <use x="1006.580078" xlink:href="#DejaVuSans-116"/>
      <use x="1045.789062" xlink:href="#DejaVuSans-97"/>
      <use x="1107.068359" xlink:href="#DejaVuSans-114"/>
      <use x="1148.166016" xlink:href="#DejaVuSans-103"/>
      <use x="1211.642578" xlink:href="#DejaVuSans-101"/>
      <use x="1273.166016" xlink:href="#DejaVuSans-116"/>
      <use x="1312.375" xlink:href="#DejaVuSans-32"/>
      <use x="1344.162109" xlink:href="#DejaVuSans-112"/>
      <use x="1407.638672" xlink:href="#DejaVuSans-97"/>
      <use x="1468.917969" xlink:href="#DejaVuSans-105"/>
      <use x="1496.701172" xlink:href="#DejaVuSans-114"/>
      <use x="1537.814453" xlink:href="#DejaVuSans-115"/>
     </g>
    </g>
   </g>
   <g id="line2d_29">
    <defs>
     <path d="M 0 1.5 
C 0.397805 1.5 0.77937 1.341951 1.06066 1.06066 
C 1.341951 0.77937 1.5 0.397805 1.5 0 
C 1.5 -0.397805 1.341951 -0.77937 1.06066 -1.06066 
C 0.77937 -1.341951 0.397805 -1.5 0 -1.5 
C -0.397805 -1.5 -0.77937 -1.341951 -1.06066 -1.06066 
C -1.341951 -0.77937 -1.5 -0.397805 -1.5 0 
C -1.5 0.397805 -1.341951 0.77937 -1.06066 1.06066 
C -0.77937 1.341951 -0.397805 1.5 0 1.5 
z
" id="mf4fbd4f475" style="stroke:#00bfbf;"/>
    </defs>
    <g>
     <use style="fill:#00bfbf;stroke:#00bfbf;" x="219.648428" xlink:href="#mf4fbd4f475" y="206.681682"/>
     <use style="fill:#00bfbf;stroke:#00bfbf;" x="219.648428" xlink:href="#mf4fbd4f475" y="206.681682"/>
    </g>
   </g>
   <g id="line2d_30">
    <path d="M 45.512012 298.944 
L 45.512012 288.761682 
L 57.6 288.761682 
L 57.6 285.821717 
L 64.67102 285.821717 
L 64.67102 282.260296 
L 69.687988 282.260296 
L 69.687988 280.706656 
L 73.579452 280.706656 
L 73.579452 278.818386 
L 76.759008 278.818386 
L 76.759008 277.336452 
L 79.447285 277.336452 
L 79.447285 276.42817 
L 81.775977 276.42817 
L 81.775977 275.448182 
L 83.830028 275.448182 
L 83.830028 274.87453 
L 85.66744 274.87453 
L 85.66744 273.607716 
L 87.329581 273.607716 
L 87.329581 272.866749 
L 88.846997 272.866749 
L 88.846997 272.340902 
L 90.242884 272.340902 
L 90.242884 271.647739 
L 91.535274 271.647739 
L 91.535274 270.524338 
L 92.73846 270.524338 
L 92.73846 270.070197 
L 93.863965 270.070197 
L 93.863965 269.544349 
L 94.921215 269.544349 
L 94.921215 269.018502 
L 95.918017 269.018502 
L 95.918017 268.588263 
L 96.86091 268.588263 
L 96.86091 267.799492 
L 97.755429 267.799492 
L 97.755429 267.512666 
L 98.606294 267.512666 
L 98.606294 267.130232 
L 99.41757 267.130232 
L 99.41757 266.747797 
L 100.192776 266.747797 
L 100.192776 266.413167 
L 100.934985 266.413167 
L 100.934985 266.030733 
L 101.646892 266.030733 
L 101.646892 265.576592 
L 102.330873 265.576592 
L 102.330873 265.433179 
L 102.989037 265.433179 
L 102.989037 265.050744 
L 103.623262 265.050744 
L 103.623262 264.500995 
L 104.23523 264.500995 
L 104.23523 264.142462 
L 104.826449 264.142462 
L 104.826449 263.879539 
L 105.398279 263.879539 
L 105.398279 263.521006 
L 105.951954 263.521006 
L 105.951954 263.186376 
L 106.48859 263.186376 
L 106.48859 262.851746 
L 107.009204 262.851746 
L 107.009204 262.517116 
L 107.514726 262.517116 
L 107.514726 262.301997 
L 108.006005 262.301997 
L 108.006005 262.086877 
L 108.483824 262.086877 
L 108.483824 261.800051 
L 108.948899 261.800051 
L 108.948899 261.68054 
L 109.843417 261.584932 
L 109.843417 261.274204 
L 110.274038 261.274204 
L 110.274038 261.154693 
L 110.694282 261.154693 
L 110.694282 260.796161 
L 111.104637 260.796161 
L 111.104637 260.67665 
L 111.505558 260.67665 
L 111.505558 260.437628 
L 112.280765 260.365922 
L 112.280765 259.959585 
L 112.655818 259.959585 
L 112.655818 259.624955 
L 113.022974 259.624955 
L 113.022974 259.505444 
L 113.73488 259.409836 
L 113.73488 259.12301 
L 114.418861 259.12301 
L 114.418861 258.979597 
L 114.751048 258.979597 
L 114.751048 258.405945 
L 115.077025 258.405945 
L 115.077025 257.999609 
L 115.397021 257.999609 
L 115.397021 257.641076 
L 115.711251 257.641076 
L 115.711251 257.378153 
L 116.019919 257.378153 
L 116.019919 256.947914 
L 116.323218 256.947914 
L 116.323218 256.732794 
L 116.621333 256.732794 
L 116.621333 256.159143 
L 117.202696 256.087436 
L 117.202696 255.967925 
L 118.039942 255.872317 
L 118.039942 255.633295 
L 126.168212 255.633295 
L 126.168212 255.394274 
L 126.338353 255.394274 
L 126.338353 254.772818 
L 126.50685 254.772818 
L 126.50685 254.438188 
L 126.673734 254.438188 
L 126.673734 253.984047 
L 126.839037 253.984047 
L 126.839037 253.57771 
L 127.002787 253.57771 
L 127.002787 253.075765 
L 127.165014 253.075765 
L 127.165014 252.765037 
L 127.325746 252.765037 
L 127.325746 252.621624 
L 127.642832 252.597722 
L 127.642832 252.3587 
L 127.954256 252.310896 
L 127.954256 252.239189 
L 133.124876 252.191385 
L 133.124876 251.785048 
L 133.239232 251.785048 
L 133.239232 251.450418 
L 133.352844 251.450418 
L 133.352844 251.211397 
L 133.46572 251.211397 
L 133.46572 250.661647 
L 133.57787 250.661647 
L 133.57787 250.47043 
L 133.689303 250.47043 
L 133.800029 249.777267 
L 133.910056 249.777267 
L 134.019394 249.562148 
L 134.343353 249.514344 
L 134.450015 249.323126 
L 138.084384 249.323126 
L 138.170504 248.534355 
L 138.256201 248.534355 
L 138.341479 247.602171 
L 138.510793 247.506563 
L 138.594838 247.076324 
L 138.84457 247.004617 
L 138.927025 246.909009 
L 141.941279 246.8134 
L 142.010346 246.669987 
L 142.147664 246.598281 
L 142.215919 246.311455 
L 142.486301 246.215846 
L 142.553247 246.096335 
L 142.619936 246.096335 
L 142.686372 245.92902 
L 142.752555 245.92902 
L 142.818488 245.713901 
L 143.144465 245.618292 
L 143.208936 245.522684 
L 143.590833 245.427075 
L 143.653678 245.331467 
L 143.840863 245.283662 
L 143.902815 245.188054 
L 144.087359 245.140249 
L 144.148442 244.972934 
L 144.390658 244.949032 
L 144.390658 244.805619 
L 144.510517 244.805619 
L 144.570138 244.614402 
L 144.806606 244.542695 
L 144.865226 244.327576 
L 145.097753 244.25587 
L 145.155404 244.088554 
L 145.270136 244.016848 
L 145.327221 243.801729 
L 145.384119 243.801729 
L 145.440832 243.443196 
L 145.497361 243.443196 
L 145.497361 243.084664 
L 147.769524 242.989055 
L 147.86833 242.415404 
L 147.917524 242.415404 
L 148.015498 241.626632 
L 148.209809 241.578828 
L 148.258051 241.48322 
L 150.129152 241.387611 
L 150.215485 240.813959 
L 150.344189 240.718351 
L 150.38688 240.479329 
L 152.130233 240.455427 
L 152.207228 239.929579 
L 152.245598 239.929579 
L 152.322086 239.37983 
L 152.436193 239.284221 
L 152.511852 239.236417 
L 154.063835 239.164711 
L 154.167129 238.614961 
L 154.303908 238.543255 
L 154.371897 238.447646 
L 155.070227 238.352037 
L 155.135299 238.184722 
L 155.425155 238.089114 
L 155.488919 237.969603 
L 155.647315 237.921798 
L 155.710272 237.778386 
L 155.773004 237.778386 
L 155.86668 237.133027 
L 157.1279 237.061321 
L 157.214591 236.702789 
L 157.272146 236.60718 
L 157.272146 236.415963 
L 158.546057 236.344256 
L 158.652556 236.033528 
L 158.67908 236.033528 
L 158.705563 235.842311 
L 158.811096 235.842311 
L 158.811096 235.7228 
L 159.807898 235.7228 
L 159.906985 234.599399 
L 159.956318 234.575497 
L 159.980933 234.408182 
L 161.077205 234.38428 
L 161.12334 233.858432 
L 161.578106 233.762824 
L 161.667653 233.571606 
L 161.756743 233.4999 
L 161.867469 233.28478 
L 161.999419 233.236976 
L 162.065021 233.069661 
L 162.19549 232.974052 
L 162.281931 232.543814 
L 163.246367 232.448205 
L 163.287113 232.065771 
L 164.19892 231.994064 
L 164.295217 231.73114 
L 164.390984 231.707238 
L 164.390984 231.587727 
L 165.120455 231.587727 
L 165.230021 230.822858 
L 166.065276 230.775054 
L 166.117256 230.51213 
L 166.442913 230.440424 
L 166.510705 230.344815 
L 166.662278 230.320913 
L 166.7626 230.1775 
L 166.795913 230.129696 
L 166.878918 229.914577 
L 166.945039 229.866772 
L 166.978005 229.532142 
L 167.719528 229.460436 
L 167.813965 229.293121 
L 168.46108 229.269218 
L 168.566635 228.910686 
L 169.186895 228.862882 
L 169.27373 228.384839 
L 169.939378 228.360937 
L 169.953269 228.002404 
L 170.419074 227.906796 
L 170.51345 227.73948 
L 170.634045 227.667774 
L 170.674059 227.261437 
L 171.263501 227.189731 
L 171.302098 226.807296 
L 171.883461 226.759492 
L 171.945501 226.568275 
L 172.482136 226.472666 
L 172.566008 225.922917 
L 173.118935 225.827308 
L 173.118935 225.659993 
L 173.417442 225.564384 
L 173.508272 225.468776 
L 173.654869 225.373167 
L 173.722116 225.038537 
L 174.218366 224.942928 
L 174.272644 224.680005 
L 174.774759 224.584396 
L 174.84832 224.488787 
L 175.252577 224.488787 
L 175.303734 223.867331 
L 175.797284 223.795625 
L 175.836964 223.556603 
L 176.131719 223.484897 
L 176.190077 223.269778 
L 176.277249 223.198071 
L 176.315853 222.887343 
L 176.753762 222.863441 
L 176.810078 222.720028 
L 177.226752 222.696126 
L 177.290683 222.481006 
L 177.66942 222.433202 
L 177.696161 222.146376 
L 178.10983 222.146376 
L 178.118525 221.907355 
L 178.411629 221.85955 
L 178.522409 221.692235 
L 178.573302 221.596627 
L 178.573302 221.453214 
L 178.958624 221.357605 
L 179.008261 221.261997 
L 179.744273 221.166388 
L 179.775924 220.807856 
L 180.159048 220.807856 
L 180.2131 220.616638 
L 180.556629 220.52103 
L 180.594385 220.329812 
L 180.930556 220.234204 
L 180.930556 220.210302 
L 181.619658 220.114693 
L 181.66228 219.708356 
L 181.992593 219.708356 
L 181.999553 219.421531 
L 182.234569 219.325922 
L 182.289409 219.230313 
L 182.364534 219.134705 
L 182.364534 218.96739 
L 182.681928 218.871781 
L 182.715356 218.776172 
L 183.312807 218.680564 
L 183.357928 218.393738 
L 183.651569 218.393738 
L 183.651569 218.274227 
L 183.871725 218.202521 
L 183.977663 218.059108 
L 184.273356 217.963499 
L 184.279463 217.915695 
L 184.856021 217.867891 
L 184.891431 217.604967 
L 185.166347 217.604967 
L 185.172149 217.365945 
L 185.368293 217.294239 
L 185.476949 217.126924 
L 186.004772 217.031315 
L 186.021357 216.983511 
L 186.290039 216.959609 
L 186.306355 216.696685 
L 186.560002 216.696685 
L 186.608155 216.409859 
L 186.846944 216.31425 
L 186.846944 216.266446 
L 187.361046 216.19474 
L 187.361046 216.146935 
L 187.59991 216.123033 
L 187.615046 215.955718 
L 187.855453 215.860109 
L 187.855453 215.740599 
L 188.023758 215.668892 
L 188.117109 215.477675 
L 188.804105 215.382066 
L 188.832347 215.095241 
L 189.056649 215.023534 
L 189.056649 214.927925 
L 189.232199 214.832317 
L 189.301011 214.6411 
L 189.943737 214.569393 
L 189.95697 214.378176 
L 190.327801 214.306469 
L 190.409625 214.186959 
L 191.025888 214.115252 
L 191.038326 214.043546 
L 191.338267 213.947937 
L 191.44791 213.828426 
L 192.021307 213.732818 
L 192.044795 213.565503 
L 192.610567 213.493796 
L 192.610567 213.445992 
L 192.985217 213.374285 
L 192.985217 213.302579 
L 193.279248 213.20697 
L 193.366499 213.063557 
L 193.888073 212.967949 
L 193.888073 212.87234 
L 194.066652 212.800634 
L 194.167387 212.728927 
L 194.736424 212.633319 
L 194.746479 212.466003 
L 194.916522 212.394297 
L 195.012479 212.274786 
L 195.397568 212.179178 
L 195.407249 212.131373 
L 195.564606 212.059667 
L 195.574195 211.940156 
L 195.723725 211.940156 
L 195.83425 211.748939 
L 196.336894 211.65333 
L 196.346067 211.533819 
L 196.576853 211.438211 
L 196.661115 211.246994 
L 197.094007 211.199189 
L 197.094007 211.127483 
L 197.390185 211.031874 
L 197.395943 210.960168 
L 197.811183 210.912363 
L 197.811183 210.840657 
L 197.953934 210.76895 
L 198.048456 210.673342 
L 198.361696 210.577733 
L 198.386187 210.529929 
L 198.500028 210.506027 
L 198.500028 210.410418 
L 198.900642 210.31481 
L 198.900642 210.290907 
L 199.162694 210.267005 
L 199.162694 210.171397 
L 199.926023 210.075788 
L 200.012941 209.956277 
L 200.416957 209.860669 
L 200.416957 209.741158 
L 200.666884 209.645549 
L 200.776296 209.597745 
L 201.12838 209.526038 
L 201.12838 209.478234 
L 201.587033 209.43043 
L 201.587033 209.310919 
L 201.923276 209.21531 
L 201.923276 209.191408 
L 202.255337 209.0958 
L 202.342251 209.000191 
L 202.852727 208.904582 
L 202.903172 208.785072 
L 203.311818 208.713365 
L 203.393635 208.641659 
L 203.814997 208.593854 
L 203.92223 208.498246 
L 204.306 208.450441 
L 204.410265 208.307029 
L 205.611526 208.235322 
L 205.70293 208.115811 
L 206.574553 208.020203 
L 206.574553 207.996301 
L 207.0509 207.900692 
L 207.064132 207.852888 
L 207.803792 207.757279 
L 207.805377 207.66167 
L 208.578654 207.566062 
L 208.631627 207.518257 
L 209.962294 207.422649 
L 209.962294 207.398747 
L 211.626344 207.303138 
L 211.626344 207.279236 
L 212.858356 207.183627 
L 212.958871 207.088019 
L 214.3357 206.99241 
L 214.3357 206.968508 
L 215.135382 206.872899 
L 215.135382 206.848997 
L 218.611454 206.753388 
L 218.611454 206.729486 
L 338.688 206.681682 
L 338.688 206.681682 
" style="fill:none;stroke:#00bfbf;stroke-linecap:square;stroke-width:1.5;"/>
   </g>
   <g id="line2d_31">
    <defs>
     <path d="M -6 0 
L 6 0 
M 0 6 
L 0 -6 
" id="m2a0d2da27f" style="stroke:#00bfbf;stroke-width:1.5;"/>
    </defs>
    <g>
     <use style="fill-opacity:0;stroke:#00bfbf;stroke-width:1.5;" x="73.579452" xlink:href="#m2a0d2da27f" y="278.818386"/>
     <use style="fill-opacity:0;stroke:#00bfbf;stroke-width:1.5;" x="118.039942" xlink:href="#m2a0d2da27f" y="255.872317"/>
     <use style="fill-opacity:0;stroke:#00bfbf;stroke-width:1.5;" x="184.279463" xlink:href="#m2a0d2da27f" y="217.939597"/>
     <use style="fill-opacity:0;stroke:#00bfbf;stroke-width:1.5;" x="219.648428" xlink:href="#m2a0d2da27f" y="206.705584"/>
     <use style="fill-opacity:0;stroke:#00bfbf;stroke-width:1.5;" x="219.648428" xlink:href="#m2a0d2da27f" y="206.681682"/>
     <use style="fill-opacity:0;stroke:#00bfbf;stroke-width:1.5;" x="338.688" xlink:href="#m2a0d2da27f" y="206.681682"/>
    </g>
   </g>
   <g id="line2d_32">
    <path style="fill:none;stroke:#00bfbf;stroke-linecap:square;stroke-width:1.5;"/>
    <g/>
   </g>
   <g id="line2d_33">
    <path clip-path="url(#p765acfe268)" d="M 141.80232 246.8134 
" style="fill:none;stroke:#00bfbf;stroke-linecap:square;stroke-width:1.5;"/>
    <defs>
     <path d="M -12 12 
L 12 -12 
M -12 -12 
L 12 12 
" id="mb77109029e" style="stroke:#00bfbf;"/>
    </defs>
    <g clip-path="url(#p765acfe268)">
     <use style="fill:#00bfbf;stroke:#00bfbf;" x="141.80232" xlink:href="#mb77109029e" y="246.8134"/>
    </g>
   </g>
   <g id="line2d_34">
    <defs>
     <path d="M 0 1.5 
C 0.397805 1.5 0.77937 1.341951 1.06066 1.06066 
C 1.341951 0.77937 1.5 0.397805 1.5 0 
C 1.5 -0.397805 1.341951 -0.77937 1.06066 -1.06066 
C 0.77937 -1.341951 0.397805 -1.5 0 -1.5 
C -0.397805 -1.5 -0.77937 -1.341951 -1.06066 -1.06066 
C -1.341951 -0.77937 -1.5 -0.397805 -1.5 0 
C -1.5 0.397805 -1.341951 0.77937 -1.06066 1.06066 
C -0.77937 1.341951 -0.397805 1.5 0 1.5 
z
" id="mc2b47bb8f7" style="stroke:#008000;"/>
    </defs>
    <g>
     <use style="fill:#008000;stroke:#008000;" x="218.430314" xlink:href="#mc2b47bb8f7" y="239.427634"/>
     <use style="fill:#008000;stroke:#008000;" x="218.430314" xlink:href="#mc2b47bb8f7" y="239.427634"/>
    </g>
   </g>
   <g id="line2d_35">
    <path d="M 38.440992 298.944 
L 38.440992 291.725549 
L 50.52898 291.725549 
L 50.52898 289.311432 
L 57.6 289.311432 
L 57.6 287.781694 
L 62.616969 287.781694 
L 62.616969 286.538782 
L 66.508432 286.538782 
L 66.508432 285.821717 
L 69.687988 285.821717 
L 69.687988 284.865631 
L 72.376266 284.865631 
L 72.376266 284.363685 
L 74.704957 284.363685 
L 74.704957 283.407599 
L 76.759008 283.407599 
L 76.759008 282.594926 
L 78.59642 282.594926 
L 78.59642 282.116883 
L 80.258561 282.116883 
L 80.258561 281.806155 
L 81.775977 281.806155 
L 81.775977 281.614938 
L 83.171864 281.614938 
L 83.171864 281.136895 
L 84.464254 281.136895 
L 84.464254 280.706656 
L 85.66744 280.706656 
L 85.66744 280.252515 
L 86.792945 280.252515 
L 86.792945 279.798374 
L 87.850195 279.798374 
L 87.850195 279.176918 
L 88.846997 279.176918 
L 88.846997 279.033505 
L 89.78989 279.033505 
L 89.78989 278.722777 
L 90.684409 278.722777 
L 90.684409 278.388147 
L 92.34655 278.364245 
L 92.34655 277.934006 
L 93.863965 277.862299 
L 93.863965 277.718886 
L 94.575872 277.718886 
L 94.575872 277.599376 
L 95.259853 277.599376 
L 95.259853 277.479865 
L 95.918017 277.479865 
L 95.918017 277.288648 
L 96.552242 277.288648 
L 96.552242 277.121333 
L 97.16421 277.121333 
L 97.16421 276.786702 
L 97.755429 276.786702 
L 97.755429 276.643289 
L 98.32726 276.643289 
L 98.32726 276.189149 
L 99.938184 276.09354 
L 99.938184 276.069638 
L 100.934985 276.021833 
L 100.934985 275.878421 
L 101.877879 275.830616 
L 101.877879 275.567692 
L 102.772397 275.472084 
L 102.772397 275.376475 
L 103.203018 275.376475 
L 103.203018 275.20916 
L 104.033617 275.137454 
L 104.033617 274.970139 
L 104.826449 274.922334 
L 104.826449 274.802824 
L 105.584798 274.707215 
L 105.584798 274.611606 
L 105.951954 274.611606 
L 105.951954 274.468193 
L 106.311539 274.468193 
L 106.311539 274.20527 
L 107.347841 274.181368 
L 107.347841 273.798933 
L 107.680028 273.798933 
L 107.680028 273.536009 
L 108.006005 273.536009 
L 108.006005 273.249183 
L 108.640231 273.225281 
L 108.640231 272.98626 
L 108.948899 272.98626 
L 108.948899 272.675532 
L 109.252198 272.675532 
L 109.252198 272.316999 
L 109.550313 272.316999 
L 109.550313 271.838956 
L 110.415248 271.76725 
L 110.415248 271.623837 
L 119.097192 271.55213 
L 119.097192 271.337011 
L 119.267333 271.337011 
L 119.267333 271.09799 
L 119.43583 271.09799 
L 119.43583 270.739457 
L 119.768017 270.643849 
L 119.768017 270.404827 
L 119.931767 270.404827 
L 119.931767 269.99849 
L 120.093994 269.99849 
L 120.093994 269.759469 
L 120.254726 269.759469 
L 120.254726 269.496545 
L 120.571812 269.448741 
L 120.571812 269.353132 
L 126.053856 269.32923 
L 126.053856 269.090209 
L 126.168212 269.090209 
L 126.168212 268.875089 
L 126.281824 268.875089 
L 126.281824 268.492655 
L 126.3947 268.492655 
L 126.3947 268.11022 
L 126.50685 268.11022 
L 126.50685 267.847296 
L 126.618283 267.847296 
L 126.729009 267.201938 
L 126.948374 267.130232 
L 127.05703 266.986819 
L 127.378995 266.89121 
L 127.378995 266.819504 
L 131.013364 266.819504 
L 131.099484 266.317559 
L 131.185181 266.317559 
L 131.270459 265.88732 
L 131.439773 265.791711 
L 131.523818 265.218059 
L 131.690703 265.122451 
L 131.77355 265.00294 
L 131.856005 265.00294 
L 131.938072 264.859527 
L 132.019755 264.859527 
L 132.019755 264.740016 
L 134.939326 264.644408 
L 135.00812 264.33368 
L 135.144899 264.285875 
L 135.212889 263.99905 
L 135.280614 263.99905 
L 135.348078 263.592713 
L 135.482227 263.568811 
L 135.548916 263.305887 
L 135.681535 263.258083 
L 135.681535 263.186376 
L 138.084384 263.11467 
L 138.141844 262.923453 
L 138.199116 262.923453 
L 138.256201 262.588822 
L 138.369812 262.56492 
L 138.369812 262.397605 
L 138.594838 262.349801 
L 138.594838 262.278094 
L 140.698504 262.182486 
L 140.698504 262.158584 
L 140.89556 262.062975 
L 140.993259 261.991268 
L 141.33096 261.919562 
L 141.426256 261.704443 
L 141.662245 261.656638 
L 141.709062 261.537128 
L 141.987354 261.465421 
L 142.07914 261.154693 
L 142.619936 261.059084 
L 142.619936 260.987378 
L 142.927826 260.891769 
L 143.014805 260.748356 
L 143.101352 260.67665 
L 143.187472 260.509335 
L 143.230373 260.509335 
L 143.31586 260.174705 
L 145.059213 260.1269 
L 145.136208 259.911781 
L 145.212864 259.887879 
L 145.289185 259.577151 
L 146.923612 259.481542 
L 147.027314 259.170814 
L 147.096109 259.099108 
L 147.164632 258.907891 
L 148.54473 258.836184 
L 148.639252 258.45375 
L 148.670646 258.45375 
L 148.76449 257.999609 
L 148.919783 257.927902 
L 148.919783 257.832294 
L 150.114722 257.760587 
L 150.201126 257.378153 
L 150.258492 257.282544 
L 150.344189 256.971816 
L 151.475037 256.924012 
L 151.554972 256.589381 
L 151.713753 256.493773 
L 151.76636 256.398164 
L 152.885298 256.302556 
L 152.909913 256.159143 
L 153.081247 256.063534 
L 153.178403 255.967925 
L 153.442821 255.872317 
L 153.49047 255.824513 
L 153.726778 255.80061 
L 153.820412 255.657197 
L 153.867041 255.561589 
L 153.959927 255.418176 
L 154.075343 255.322567 
L 154.075343 255.298665 
L 155.146121 255.250861 
L 155.189341 254.868426 
L 156.134506 254.820622 
L 156.236431 254.294775 
L 157.108577 254.199166 
L 157.20498 253.673319 
L 157.243392 253.57771 
L 157.339055 253.482101 
L 158.122556 253.386493 
L 158.213527 253.004058 
L 158.959517 252.932352 
L 159.063529 252.502113 
L 159.906985 252.430407 
L 160.005512 252.310896 
L 160.119762 252.215287 
L 160.217098 252.143581 
L 160.297798 252.047972 
L 160.297798 252.02407 
L 160.680044 251.928461 
L 160.680044 251.880657 
L 161.435376 251.856755 
L 161.450455 251.713342 
L 162.144868 251.641635 
L 162.173813 251.47432 
L 162.840544 251.402614 
L 162.951535 251.163592 
L 163.50953 251.091886 
L 163.603039 250.80506 
L 164.166702 250.709451 
L 164.243924 250.279213 
L 164.960967 250.183604 
L 165.047026 250.064093 
L 165.157053 249.992387 
L 165.217881 249.92068 
L 166.047915 249.848974 
L 166.059491 249.705561 
L 167.125588 249.657757 
L 167.223287 249.514344 
L 167.703739 249.418735 
L 167.787784 249.155811 
L 168.212269 249.060203 
L 168.242927 248.988496 
L 168.9532 248.892888 
L 168.972794 248.749475 
L 169.138466 248.677768 
L 169.225542 248.558257 
L 169.710923 248.462649 
L 169.710923 248.438747 
L 170.14658 248.36704 
L 170.14658 248.319236 
L 170.625141 248.223627 
L 170.634045 248.151921 
L 171.047505 248.056312 
L 171.116915 247.888997 
L 171.451389 247.865095 
L 171.49381 247.554367 
L 172.288901 247.458758 
L 172.288901 247.36315 
L 173.080293 247.267541 
L 173.111214 247.171932 
L 173.493167 247.100226 
L 173.538444 247.004617 
L 173.889107 246.909009 
L 173.889107 246.885107 
L 174.211117 246.8134 
L 174.261802 246.646085 
L 174.753684 246.550476 
L 174.753684 246.526574 
L 175.273058 246.430966 
L 175.273058 246.383161 
L 175.948902 246.287553 
L 175.994786 246.14414 
L 176.267585 246.096335 
L 176.28047 245.952923 
L 176.586878 245.881216 
L 176.599529 245.737803 
L 177.042792 245.642195 
L 177.042792 245.59439 
L 177.802715 245.522684 
L 177.820411 245.427075 
L 178.112729 245.331467 
L 178.14748 245.188054 
L 178.400227 245.140249 
L 178.417327 245.020738 
L 178.683063 244.949032 
L 178.683063 244.853423 
L 179.076969 244.757815 
L 179.153601 244.71001 
L 180.001085 244.614402 
L 180.053034 244.518793 
L 180.295143 244.423185 
L 180.305371 244.327576 
L 180.564187 244.231967 
L 180.564187 244.208065 
L 181.510261 244.160261 
L 181.54839 244.016848 
L 181.985629 243.945142 
L 182.008829 243.873435 
L 182.21625 243.801729 
L 182.243721 243.658316 
L 183.312807 243.562707 
L 183.360074 243.467098 
L 183.560601 243.37149 
L 183.560601 243.323685 
L 184.15691 243.228077 
L 184.1733 243.180273 
L 184.977686 243.084664 
L 184.977686 243.060762 
L 185.914197 242.989055 
L 185.914197 242.917349 
L 186.124201 242.82174 
L 186.131524 242.750034 
L 186.465092 242.654425 
L 186.472273 242.582719 
L 187.361046 242.48711 
L 187.361046 242.463208 
L 187.891892 242.391501 
L 187.891892 242.343697 
L 188.649537 242.248089 
L 188.671702 242.15248 
L 189.436312 242.056871 
L 189.436312 242.032969 
L 189.875943 241.937361 
L 189.884801 241.841752 
L 190.882914 241.746143 
L 190.888488 241.650535 
L 191.429008 241.578828 
L 191.429008 241.531024 
L 192.495314 241.435415 
L 192.495314 241.411513 
L 194.177775 241.315904 
L 194.177775 241.292002 
L 194.404753 241.220296 
L 194.409309 241.124687 
L 195.086018 241.029079 
L 195.086018 241.005176 
L 195.930519 240.909568 
L 195.934693 240.861764 
L 196.841309 240.766155 
L 196.841309 240.742253 
L 197.712537 240.670546 
L 197.712537 240.622742 
L 199.246589 240.527133 
L 199.246589 240.503231 
L 200.33852 240.407623 
L 200.414537 240.359818 
L 201.955069 240.26421 
L 201.965408 240.216405 
L 204.074006 240.120797 
L 204.074006 240.096895 
L 205.244102 240.001286 
L 205.307607 239.929579 
L 207.206835 239.857873 
L 207.206835 239.810069 
L 209.465693 239.71446 
L 209.465693 239.690558 
L 212.776333 239.594949 
L 212.776333 239.571047 
L 217.176014 239.475439 
L 217.176014 239.451536 
L 338.688 239.427634 
L 338.688 239.427634 
" style="fill:none;stroke:#008000;stroke-linecap:square;stroke-width:1.5;"/>
   </g>
   <g id="line2d_36">
    <defs>
     <path d="M -0 6 
L 6 -6 
L -6 -6 
z
" id="m33bfaef8ea" style="stroke:#008000;stroke-linejoin:miter;stroke-width:1.5;"/>
    </defs>
    <g>
     <use style="fill-opacity:0;stroke:#008000;stroke-linejoin:miter;stroke-width:1.5;" x="92.34655" xlink:href="#m33bfaef8ea" y="278.364245"/>
     <use style="fill-opacity:0;stroke:#008000;stroke-linejoin:miter;stroke-width:1.5;" x="151.76636" xlink:href="#m33bfaef8ea" y="256.398164"/>
     <use style="fill-opacity:0;stroke:#008000;stroke-linejoin:miter;stroke-width:1.5;" x="207.640869" xlink:href="#m33bfaef8ea" y="239.762264"/>
     <use style="fill-opacity:0;stroke:#008000;stroke-linejoin:miter;stroke-width:1.5;" x="218.430314" xlink:href="#m33bfaef8ea" y="239.427634"/>
     <use style="fill-opacity:0;stroke:#008000;stroke-linejoin:miter;stroke-width:1.5;" x="218.430314" xlink:href="#m33bfaef8ea" y="239.427634"/>
     <use style="fill-opacity:0;stroke:#008000;stroke-linejoin:miter;stroke-width:1.5;" x="338.688" xlink:href="#m33bfaef8ea" y="239.427634"/>
    </g>
   </g>
   <g id="line2d_37">
    <path style="fill:none;stroke:#008000;stroke-linecap:square;stroke-width:1.5;"/>
    <g/>
   </g>
   <g id="line2d_38">
    <path clip-path="url(#p765acfe268)" d="M 140.599134 262.23029 
" style="fill:none;stroke:#008000;stroke-linecap:square;stroke-width:1.5;"/>
    <defs>
     <path d="M -12 12 
L 12 -12 
M -12 -12 
L 12 12 
" id="m49b515682b" style="stroke:#008000;"/>
    </defs>
    <g clip-path="url(#p765acfe268)">
     <use style="fill:#008000;stroke:#008000;" x="140.599134" xlink:href="#m49b515682b" y="262.23029"/>
    </g>
   </g>
   <g id="line2d_39">
    <defs>
     <path d="M 0 1.5 
C 0.397805 1.5 0.77937 1.341951 1.06066 1.06066 
C 1.341951 0.77937 1.5 0.397805 1.5 0 
C 1.5 -0.397805 1.341951 -0.77937 1.06066 -1.06066 
C 0.77937 -1.341951 0.397805 -1.5 0 -1.5 
C -0.397805 -1.5 -0.77937 -1.341951 -1.06066 -1.06066 
C -1.341951 -0.77937 -1.5 -0.397805 -1.5 0 
C -1.5 0.397805 -1.341951 0.77937 -1.06066 1.06066 
C -0.77937 1.341951 -0.397805 1.5 0 1.5 
z
" id="m2e289a007c" style="stroke:#0000ff;"/>
    </defs>
    <g>
     <use style="fill:#0000ff;stroke:#0000ff;" x="216.36763" xlink:href="#m2e289a007c" y="260.700552"/>
     <use style="fill:#0000ff;stroke:#0000ff;" x="216.36763" xlink:href="#m2e289a007c" y="260.700552"/>
    </g>
   </g>
   <g id="line2d_40">
    <path d="M 29.53256 298.944 
L 29.53256 294.61771 
L 41.620548 294.61771 
L 41.620548 292.801146 
L 48.691568 292.801146 
L 48.691568 292.012375 
L 53.708537 292.012375 
L 53.708537 291.247506 
L 57.6 291.247506 
L 57.6 290.769463 
L 60.779557 290.769463 
L 60.779557 290.219713 
L 63.467834 290.219713 
L 63.467834 289.885083 
L 65.796525 289.885083 
L 65.796525 289.383138 
L 67.850577 289.383138 
L 67.850577 289.144116 
L 69.687988 289.144116 
L 69.687988 288.928997 
L 71.35013 288.928997 
L 71.35013 288.498758 
L 72.867545 288.498758 
L 72.867545 288.044617 
L 74.263433 288.044617 
L 74.263433 287.877302 
L 75.555822 287.877302 
L 75.555822 287.757791 
L 76.759008 287.757791 
L 76.759008 287.542672 
L 78.941764 287.447063 
L 78.941764 287.279748 
L 79.938565 287.279748 
L 79.938565 287.040727 
L 80.881459 287.040727 
L 80.881459 286.801705 
L 81.775977 286.801705 
L 81.775977 286.610488 
L 82.626842 286.610488 
L 82.626842 286.443173 
L 83.438118 286.443173 
L 83.438118 286.29976 
L 84.213325 286.29976 
L 84.213325 286.084641 
L 84.955534 286.084641 
L 84.955534 285.96513 
L 85.66744 285.96513 
L 85.66744 285.821717 
L 86.351421 285.821717 
L 86.351421 285.702206 
L 87.009585 285.702206 
L 87.009585 285.558793 
L 88.846997 285.463185 
L 88.846997 285.41538 
L 89.418828 285.41538 
L 89.418828 285.29587 
L 91.029752 285.224163 
L 91.029752 285.104652 
L 91.535274 285.104652 
L 91.535274 284.937337 
L 92.504372 284.865631 
L 92.504372 284.770022 
L 93.863965 284.698316 
L 93.863965 284.650511 
L 95.125186 284.554903 
L 95.125186 284.531001 
L 95.918017 284.459294 
L 95.918017 284.363685 
L 96.676366 284.268077 
L 96.676366 284.244175 
L 98.43941 284.220273 
L 98.43941 283.837838 
L 98.771596 283.837838 
L 98.771596 283.574914 
L 99.097574 283.574914 
L 99.097574 283.335893 
L 99.41757 283.335893 
L 99.41757 283.216382 
L 99.731799 283.216382 
L 99.731799 283.049067 
L 100.040467 283.049067 
L 100.040467 282.786143 
L 100.343767 282.786143 
L 100.343767 282.499317 
L 101.785851 282.403709 
L 101.785851 282.355904 
L 110.188761 282.355904 
L 110.188761 281.97347 
L 110.358901 281.97347 
L 110.358901 281.806155 
L 110.527398 281.806155 
L 110.527398 281.567133 
L 110.694282 281.567133 
L 110.694282 281.42372 
L 110.859585 281.42372 
L 110.859585 281.256405 
L 111.023335 281.256405 
L 111.023335 281.136895 
L 111.185562 281.136895 
L 111.185562 280.993482 
L 111.346294 280.993482 
L 111.346294 280.850069 
L 117.145424 280.802264 
L 117.145424 280.634949 
L 117.259781 280.634949 
L 117.259781 280.467634 
L 117.373392 280.467634 
L 117.373392 280.348123 
L 117.486268 280.348123 
L 117.486268 280.109102 
L 117.598418 280.109102 
L 117.598418 279.989591 
L 117.709852 279.989591 
L 117.820578 279.726667 
L 118.148599 279.654961 
L 118.256582 279.487646 
L 122.104932 279.487646 
L 122.191052 279.248624 
L 122.276749 279.248624 
L 122.362027 278.818386 
L 122.615387 278.746679 
L 122.699028 278.244734 
L 122.947573 278.173027 
L 122.947573 278.125223 
L 126.030894 278.029614 
L 126.099688 277.694984 
L 126.168212 277.694984 
L 126.236468 277.455963 
L 126.439646 277.360354 
L 126.50685 277.31255 
L 126.70692 277.240843 
L 126.70692 277.193039 
L 129.118302 277.193039 
L 129.175952 276.810605 
L 129.233413 276.810605 
L 129.290685 276.619387 
L 129.574256 276.523779 
L 129.630422 276.452072 
L 131.839545 276.356464 
L 131.938072 276.189149 
L 132.084827 276.09354 
L 132.133473 275.926225 
L 132.374684 275.830616 
L 132.374684 275.782812 
L 134.149701 275.711105 
L 134.192921 275.567692 
L 134.364738 275.472084 
L 134.450015 275.376475 
L 134.61933 275.280867 
L 134.61933 275.233062 
L 136.227776 275.185258 
L 136.266147 275.065747 
L 136.494612 274.970139 
L 136.494612 274.826726 
L 138.01518 274.731117 
L 138.118883 274.587704 
L 138.290362 274.492096 
L 138.392446 274.420389 
L 139.980403 274.32478 
L 139.980403 274.300878 
L 140.348205 274.20527 
L 140.348205 274.157465 
L 141.148448 274.085759 
L 141.20629 273.894542 
L 142.566605 273.822835 
L 142.646541 273.65552 
L 143.828447 273.559911 
L 143.927534 273.296988 
L 145.074639 273.225281 
L 145.166911 272.795043 
L 145.189903 272.795043 
L 145.258697 272.579923 
L 146.216039 272.508217 
L 146.324022 272.269195 
L 147.246507 272.173586 
L 147.307662 271.958467 
L 148.200145 271.886761 
L 148.296548 271.695543 
L 148.392421 271.599935 
L 148.411533 271.528228 
L 149.177602 271.456522 
L 149.286939 271.289207 
L 150.137805 271.193598 
L 150.206871 271.050185 
L 150.94908 270.954577 
L 151.015013 270.858968 
L 151.865879 270.763359 
L 151.959639 270.619946 
L 152.481628 270.524338 
L 152.587184 270.452631 
L 153.265382 270.357023 
L 153.337534 270.165805 
L 154.001564 270.070197 
L 154.043103 270.022393 
L 154.641235 269.926784 
L 154.694607 269.544349 
L 155.916435 269.448741 
L 155.953659 269.377034 
L 156.586556 269.281426 
L 156.634302 269.233621 
L 157.15106 269.161915 
L 157.220355 269.018502 
L 157.731474 268.922893 
L 157.77619 268.827285 
L 158.271501 268.731676 
L 158.271501 268.683872 
L 159.056614 268.588263 
L 159.066985 268.540459 
L 160.746084 268.44485 
L 160.811875 268.229731 
L 161.283861 268.134122 
L 161.283861 268.11022 
L 161.689969 268.038514 
L 161.743409 267.895101 
L 162.576903 267.799492 
L 162.602318 267.656079 
L 163.883215 267.560471 
L 163.946031 267.488764 
L 164.584735 267.393156 
L 164.584735 267.369253 
L 165.302685 267.297547 
L 165.331666 267.130232 
L 166.020101 267.034623 
L 166.020101 267.010721 
L 166.398707 266.915112 
L 166.398707 266.89121 
L 167.027338 266.795602 
L 167.06015 266.676091 
L 168.035449 266.580482 
L 168.035449 266.55658 
L 168.894283 266.484874 
L 168.917874 266.269754 
L 169.204297 266.198048 
L 169.215888 266.102439 
L 170.337772 266.030733 
L 170.348634 265.959026 
L 171.861073 265.863418 
L 171.890917 265.624396 
L 172.395445 265.528787 
L 172.395445 265.480983 
L 173.067909 265.385374 
L 173.09576 265.313668 
L 174.408678 265.218059 
L 174.430173 265.122451 
L 175.268964 265.026842 
L 175.285335 264.979038 
L 175.484643 264.883429 
L 175.484643 264.859527 
L 176.631116 264.787821 
L 176.646257 264.692212 
L 177.390674 264.596603 
L 177.390674 264.572701 
L 178.425302 264.477093 
L 178.425302 264.45319 
L 178.956967 264.357582 
L 178.956967 264.33368 
L 179.269007 264.285875 
L 179.269007 264.214169 
L 180.366615 264.142462 
L 180.378838 263.975147 
L 181.263273 263.879539 
L 181.263273 263.831734 
L 181.971695 263.736126 
L 181.982843 263.592713 
L 182.525979 263.497104 
L 182.525979 263.4493 
L 182.952845 263.353691 
L 182.952845 263.329789 
L 183.441416 263.281985 
L 183.451664 263.11467 
L 184.065663 263.019061 
L 184.082962 262.947355 
L 184.912642 262.851746 
L 184.912642 262.827844 
L 186.063302 262.732235 
L 186.063302 262.684431 
L 187.340566 262.588822 
L 187.340566 262.56492 
L 188.517228 262.469312 
L 188.517228 262.445409 
L 189.816184 262.349801 
L 189.903092 262.278094 
L 191.026718 262.206388 
L 191.026718 262.158584 
L 191.502877 262.062975 
L 191.502877 262.039073 
L 192.704987 261.943464 
L 192.704987 261.919562 
L 193.777208 261.823953 
L 193.777208 261.800051 
L 195.590802 261.704443 
L 195.653255 261.632736 
L 197.582032 261.537128 
L 197.635487 261.489323 
L 199.671738 261.393715 
L 199.671738 261.34591 
L 200.745445 261.274204 
L 200.748295 261.202497 
L 202.507063 261.106889 
L 202.507063 261.082987 
L 204.774133 260.987378 
L 204.774133 260.963476 
L 206.854559 260.867867 
L 206.920696 260.820063 
L 216.36763 260.724454 
L 216.36763 260.700552 
L 338.688 260.700552 
L 338.688 260.700552 
" style="fill:none;stroke:#0000ff;stroke-linecap:square;stroke-width:1.5;"/>
   </g>
   <g id="line2d_41">
    <defs>
     <path d="M 0 -6 
L -1.347084 -1.854102 
L -5.706339 -1.854102 
L -2.179628 0.708204 
L -3.526712 4.854102 
L -0 2.291796 
L 3.526712 4.854102 
L 2.179628 0.708204 
L 5.706339 -1.854102 
L 1.347084 -1.854102 
z
" id="mf7675f3bf9" style="stroke:#0000ff;stroke-linejoin:bevel;stroke-width:1.5;"/>
    </defs>
    <g>
     <use style="fill-opacity:0;stroke:#0000ff;stroke-linejoin:bevel;stroke-width:1.5;" x="63.467834" xlink:href="#mf7675f3bf9" y="289.885083"/>
     <use style="fill-opacity:0;stroke:#0000ff;stroke-linejoin:bevel;stroke-width:1.5;" x="136.494612" xlink:href="#mf7675f3bf9" y="274.970139"/>
     <use style="fill-opacity:0;stroke:#0000ff;stroke-linejoin:bevel;stroke-width:1.5;" x="185.153575" xlink:href="#mf7675f3bf9" y="262.803942"/>
     <use style="fill-opacity:0;stroke:#0000ff;stroke-linejoin:bevel;stroke-width:1.5;" x="216.36763" xlink:href="#mf7675f3bf9" y="260.724454"/>
     <use style="fill-opacity:0;stroke:#0000ff;stroke-linejoin:bevel;stroke-width:1.5;" x="216.36763" xlink:href="#mf7675f3bf9" y="260.700552"/>
     <use style="fill-opacity:0;stroke:#0000ff;stroke-linejoin:bevel;stroke-width:1.5;" x="338.688" xlink:href="#mf7675f3bf9" y="260.700552"/>
    </g>
   </g>
   <g id="line2d_42">
    <path style="fill:none;stroke:#0000ff;stroke-linecap:square;stroke-width:1.5;"/>
    <g/>
   </g>
   <g id="line2d_43">
    <path clip-path="url(#p765acfe268)" d="M 139.572998 274.420389 
" style="fill:none;stroke:#0000ff;stroke-linecap:square;stroke-width:1.5;"/>
    <defs>
     <path d="M -12 12 
L 12 -12 
M -12 -12 
L 12 12 
" id="m78dfd53c9e" style="stroke:#0000ff;"/>
    </defs>
    <g clip-path="url(#p765acfe268)">
     <use style="fill:#0000ff;stroke:#0000ff;" x="139.572998" xlink:href="#m78dfd53c9e" y="274.420389"/>
    </g>
   </g>
   <g id="line2d_44">
    <defs>
     <path d="M 0 1.5 
C 0.397805 1.5 0.77937 1.341951 1.06066 1.06066 
C 1.341951 0.77937 1.5 0.397805 1.5 0 
C 1.5 -0.397805 1.341951 -0.77937 1.06066 -1.06066 
C 0.77937 -1.341951 0.397805 -1.5 0 -1.5 
C -0.397805 -1.5 -0.77937 -1.341951 -1.06066 -1.06066 
C -1.341951 -0.77937 -1.5 -0.397805 -1.5 0 
C -1.5 0.397805 -1.341951 0.77937 -1.06066 1.06066 
C -0.77937 1.341951 -0.397805 1.5 0 1.5 
z
" id="mbdee447466" style="stroke:#000000;"/>
    </defs>
    <g>
     <use style="stroke:#000000;" x="211.511675" xlink:href="#mbdee447466" y="275.997931"/>
     <use style="stroke:#000000;" x="211.511675" xlink:href="#mbdee447466" y="275.997931"/>
    </g>
   </g>
   <g id="line2d_45">
    <path d="M 17.444571 298.944 
L 17.444571 295.406481 
L 29.53256 295.406481 
L 29.53256 294.808927 
L 36.60358 294.808927 
L 36.60358 294.498199 
L 41.620548 294.498199 
L 41.620548 294.020156 
L 45.512012 294.020156 
L 45.512012 293.685526 
L 48.691568 293.685526 
L 48.691568 293.518211 
L 51.379845 293.518211 
L 51.379845 293.279189 
L 53.708537 293.279189 
L 53.708537 292.968461 
L 57.6 292.920657 
L 57.6 292.825048 
L 60.779557 292.753342 
L 60.779557 292.681635 
L 62.175444 292.681635 
L 62.175444 292.51432 
L 63.467834 292.51432 
L 63.467834 292.39481 
L 65.796525 292.370907 
L 65.796525 292.275299 
L 66.853775 292.275299 
L 66.853775 292.155788 
L 68.79347 292.131886 
L 68.79347 292.036277 
L 71.35013 291.988473 
L 71.35013 291.868962 
L 73.579452 291.821158 
L 73.579452 291.749451 
L 74.921597 291.677745 
L 74.921597 291.582136 
L 77.884514 291.486528 
L 77.884514 291.319213 
L 80.881459 291.223604 
L 80.881459 291.199702 
L 83.037197 291.104093 
L 83.037197 291.080191 
L 84.213325 291.032387 
L 84.213325 290.96068 
L 85.315119 290.865072 
L 85.315119 290.841169 
L 86.351421 290.817267 
L 86.351421 290.673854 
L 87.009585 290.578246 
L 87.009585 290.434833 
L 87.952479 290.339224 
L 87.952479 290.29142 
L 89.972502 290.195811 
L 89.972502 290.171909 
L 98.100772 290.171909 
L 98.100772 289.980692 
L 98.43941 289.908985 
L 98.43941 289.74167 
L 98.771596 289.693866 
L 98.771596 289.574355 
L 99.097574 289.526551 
L 99.097574 289.454844 
L 99.575392 289.359236 
L 99.575392 289.311432 
L 105.171792 289.215823 
L 105.171792 289.144116 
L 105.621863 289.048508 
L 105.732589 288.73778 
L 110.016944 288.689976 
L 110.103064 288.498758 
L 110.188761 288.498758 
L 110.188761 288.331443 
L 110.358901 288.331443 
L 110.443353 288.044617 
L 110.694282 287.949009 
L 110.694282 287.925107 
L 114.0117 287.829498 
L 114.0117 287.805596 
L 114.552496 287.709987 
L 114.618932 287.662183 
L 117.145424 287.590476 
L 117.202696 287.351455 
L 117.316679 287.303651 
L 117.316679 287.136335 
L 119.80089 287.040727 
L 119.850084 286.992923 
L 120.238719 286.897314 
L 120.286695 286.84951 
L 122.148045 286.801705 
L 122.233953 286.706097 
L 122.362027 286.63439 
L 122.40451 286.538782 
L 124.254646 286.467075 
L 124.330801 286.371467 
L 125.961828 286.323662 
L 126.065325 286.156347 
L 126.270496 286.084641 
L 126.304457 285.96513 
L 129.06046 285.869521 
L 129.147151 285.821717 
L 130.585116 285.726108 
L 130.585116 285.702206 
L 133.009765 285.606598 
L 133.009765 285.582695 
L 134.062938 285.510989 
L 134.106373 285.41538 
L 135.117629 285.319772 
L 135.138086 285.248065 
L 135.300881 285.200261 
L 135.300881 285.128554 
L 137.071324 285.032946 
L 137.071324 285.009044 
L 138.101642 284.913435 
L 138.153314 284.817826 
L 139.220677 284.722218 
L 139.236847 284.674414 
L 140.378508 284.578805 
L 140.469102 284.459294 
L 141.162927 284.41149 
L 141.20629 284.19637 
L 141.858037 284.124664 
L 141.885829 284.029055 
L 142.566605 283.933447 
L 142.593291 283.885642 
L 143.196061 283.885642 
L 143.196061 283.766132 
L 143.952218 283.694425 
L 143.952218 283.646621 
L 145.097753 283.551012 
L 145.097753 283.52711 
L 145.699363 283.431501 
L 145.699363 283.383697 
L 146.78088 283.288089 
L 146.78088 283.264186 
L 147.749695 283.168578 
L 147.769524 283.096871 
L 148.752007 283.025165 
L 148.752007 282.977361 
L 150.103169 282.881752 
L 150.111834 282.810045 
L 150.957336 282.714437 
L 150.957336 282.690535 
L 151.716387 282.594926 
L 151.716387 282.571024 
L 152.114793 282.475415 
L 152.114793 282.403709 
L 152.855715 282.3081 
L 152.885298 282.260296 
L 153.207444 282.260296 
L 153.229193 281.997372 
L 154.303908 281.901764 
L 154.303908 281.877861 
L 154.93278 281.782253 
L 154.998366 281.686644 
L 156.236431 281.591036 
L 156.248622 281.543231 
L 157.145273 281.447623 
L 157.15106 281.375916 
L 158.217157 281.280308 
L 158.217157 281.256405 
L 159.015067 281.160797 
L 159.0618 281.017384 
L 159.567767 280.921775 
L 159.567767 280.897873 
L 160.273627 280.802264 
L 160.273627 280.778362 
L 160.774311 280.682754 
L 160.774311 280.658851 
L 161.694428 280.563243 
L 161.694428 280.539341 
L 162.741445 280.443732 
L 162.754039 280.395928 
L 163.776697 280.300319 
L 163.776697 280.276417 
L 164.554485 280.180808 
L 164.562052 280.133004 
L 165.135103 280.037395 
L 165.135103 280.013493 
L 166.189769 279.917885 
L 166.189769 279.893983 
L 166.537748 279.798374 
L 166.537748 279.774472 
L 167.820242 279.678863 
L 167.820242 279.654961 
L 168.433833 279.583255 
L 168.433833 279.53545 
L 169.308343 279.439842 
L 169.308343 279.415939 
L 170.440691 279.320331 
L 170.440691 279.272526 
L 171.224819 279.20082 
L 171.224819 279.153016 
L 172.230511 279.057407 
L 172.242691 279.009603 
L 173.639141 278.913994 
L 173.748942 278.842288 
L 174.628823 278.746679 
L 174.628823 278.722777 
L 175.759504 278.627168 
L 175.759504 278.603266 
L 177.270615 278.507658 
L 177.368906 278.435951 
L 178.07326 278.340342 
L 178.090684 278.268636 
L 178.772052 278.173027 
L 178.772052 278.149125 
L 180.277741 278.053517 
L 180.357442 278.005712 
L 181.482565 277.934006 
L 181.482565 277.886202 
L 182.715356 277.790593 
L 182.715356 277.766691 
L 183.381088 277.671082 
L 183.381088 277.64718 
L 185.316587 277.551571 
L 185.316587 277.527669 
L 186.75182 277.432061 
L 186.75182 277.408158 
L 188.656506 277.31255 
L 188.656506 277.288648 
L 190.033526 277.193039 
L 190.033526 277.169137 
L 191.17291 277.073528 
L 191.17291 277.049626 
L 192.21375 276.954017 
L 192.21375 276.930115 
L 193.979342 276.834507 
L 193.979342 276.786702 
L 196.085521 276.691094 
L 196.085521 276.667192 
L 197.969538 276.571583 
L 197.969538 276.547681 
L 199.30671 276.452072 
L 199.30671 276.42817 
L 202.46493 276.332561 
L 202.46493 276.308659 
L 203.726731 276.236953 
L 203.726731 276.189149 
L 207.940487 276.09354 
L 207.940487 276.069638 
L 338.688 275.997931 
L 338.688 275.997931 
" style="fill:none;stroke:#000000;stroke-linecap:square;stroke-width:1.5;"/>
   </g>
   <g id="line2d_46">
    <defs>
     <path d="M 0 6 
C 1.591219 6 3.117479 5.367802 4.242641 4.242641 
C 5.367802 3.117479 6 1.591219 6 0 
C 6 -1.591219 5.367802 -3.117479 4.242641 -4.242641 
C 3.117479 -5.367802 1.591219 -6 0 -6 
C -1.591219 -6 -3.117479 -5.367802 -4.242641 -4.242641 
C -5.367802 -3.117479 -6 -1.591219 -6 0 
C -6 1.591219 -5.367802 3.117479 -4.242641 4.242641 
C -3.117479 5.367802 -1.591219 6 0 6 
z
" id="m94feeb84ff" style="stroke:#000000;stroke-width:1.5;"/>
    </defs>
    <g>
     <use style="fill-opacity:0;stroke:#000000;stroke-width:1.5;" x="141.982752" xlink:href="#m94feeb84ff" y="284.029055"/>
     <use style="fill-opacity:0;stroke:#000000;stroke-width:1.5;" x="202.46493" xlink:href="#m94feeb84ff" y="276.332561"/>
     <use style="fill-opacity:0;stroke:#000000;stroke-width:1.5;" x="211.511675" xlink:href="#m94feeb84ff" y="275.997931"/>
     <use style="fill-opacity:0;stroke:#000000;stroke-width:1.5;" x="211.511675" xlink:href="#m94feeb84ff" y="275.997931"/>
     <use style="fill-opacity:0;stroke:#000000;stroke-width:1.5;" x="338.688" xlink:href="#m94feeb84ff" y="275.997931"/>
    </g>
   </g>
   <g id="line2d_47">
    <path style="fill:none;stroke:#000000;stroke-linecap:square;stroke-width:1.5;"/>
    <g/>
   </g>
   <g id="line2d_48">
    <path clip-path="url(#p765acfe268)" d="M 138.761723 284.817826 
" style="fill:none;stroke:#000000;stroke-linecap:square;stroke-width:1.5;"/>
    <defs>
     <path d="M -12 12 
L 12 -12 
M -12 -12 
L 12 12 
" id="ma9ebd72b26" style="stroke:#000000;"/>
    </defs>
    <g clip-path="url(#p765acfe268)">
     <use style="stroke:#000000;" x="138.761723" xlink:href="#ma9ebd72b26" y="284.817826"/>
    </g>
   </g>
   <g id="line2d_49">
    <defs>
     <path d="M 0 1.5 
C 0.397805 1.5 0.77937 1.341951 1.06066 1.06066 
C 1.341951 0.77937 1.5 0.397805 1.5 0 
C 1.5 -0.397805 1.341951 -0.77937 1.06066 -1.06066 
C 0.77937 -1.341951 0.397805 -1.5 0 -1.5 
C -0.397805 -1.5 -0.77937 -1.341951 -1.06066 -1.06066 
C -1.341951 -0.77937 -1.5 -0.397805 -1.5 0 
C -1.5 0.397805 -1.341951 0.77937 -1.06066 1.06066 
C -0.77937 1.341951 -0.397805 1.5 0 1.5 
z
" id="m8e9747fbf3" style="stroke:#ff0000;"/>
    </defs>
    <g>
     <use style="fill:#ff0000;stroke:#ff0000;" x="204.306775" xlink:href="#m8e9747fbf3" y="285.797815"/>
     <use style="fill:#ff0000;stroke:#ff0000;" x="204.306775" xlink:href="#m8e9747fbf3" y="285.797815"/>
    </g>
   </g>
   <g id="line2d_50">
    <path d="M 5.356583 298.944 
L 5.356583 296.027937 
L 17.444571 296.027937 
L 17.444571 295.382579 
L 24.515591 295.382579 
L 24.515591 295.047949 
L 33.424023 294.976242 
L 33.424023 294.761123 
L 36.60358 294.761123 
L 36.60358 294.641612 
L 43.6746 294.569906 
L 43.6746 294.426493 
L 47.174153 294.378688 
L 47.174153 294.306982 
L 52.583031 294.211373 
L 52.583031 294.091863 
L 56.705482 294.020156 
L 56.705482 293.924547 
L 60.037348 293.828939 
L 60.037348 293.781135 
L 66.333161 293.685526 
L 66.333161 293.637722 
L 68.79347 293.542113 
L 68.79347 293.518211 
L 71.74204 293.422602 
L 71.74204 293.3987 
L 74.263433 293.303091 
L 74.263433 293.06407 
L 74.921597 292.968461 
L 74.921597 292.896755 
L 76.16779 292.84895 
L 76.16779 292.777244 
L 86.012784 292.705538 
L 86.012784 292.609929 
L 86.351421 292.586027 
L 86.351421 292.490418 
L 86.683608 292.442614 
L 86.683608 292.347005 
L 87.798828 292.251397 
L 87.798828 292.203592 
L 93.422441 292.131886 
L 93.422441 292.060179 
L 97.928955 291.964571 
L 98.015075 291.892864 
L 98.523051 291.797256 
L 98.523051 291.749451 
L 102.464508 291.653843 
L 102.464508 291.629941 
L 107.614095 291.534332 
L 107.614095 291.462626 
L 110.401178 291.367017 
L 110.401178 291.319213 
L 115.460322 291.247506 
L 115.460322 291.199702 
L 115.711251 291.199702 
L 115.711251 291.080191 
L 119.677294 290.984582 
L 119.677294 290.96068 
L 123.233135 290.865072 
L 123.233135 290.841169 
L 126.70692 290.745561 
L 126.78961 290.697757 
L 128.45625 290.602148 
L 128.45625 290.554344 
L 131.108073 290.458735 
L 131.108073 290.434833 
L 132.951923 290.339224 
L 133.0559 290.219713 
L 135.691441 290.124105 
L 135.721125 290.052398 
L 137.071324 289.95679 
L 137.135254 289.908985 
L 140.819464 289.813377 
L 140.819464 289.789475 
L 142.553247 289.717768 
L 142.553247 289.598257 
L 145.022521 289.502649 
L 145.022521 289.478747 
L 147.185137 289.383138 
L 147.236294 289.311432 
L 148.686322 289.215823 
L 148.686322 289.191921 
L 149.575199 289.096312 
L 149.575199 289.048508 
L 151.877626 288.952899 
L 151.877626 288.928997 
L 152.662192 288.881193 
L 152.662192 288.809486 
L 154.24249 288.761682 
L 154.269814 288.666073 
L 155.910223 288.570465 
L 155.910223 288.546563 
L 159.020266 288.450954 
L 159.020266 288.40315 
L 161.781163 288.307541 
L 161.891735 288.235835 
L 162.223631 288.140226 
L 162.223631 288.116324 
L 164.527973 288.020715 
L 164.527973 287.996813 
L 166.174256 287.901204 
L 166.174256 287.829498 
L 168.112771 287.757791 
L 168.192825 287.662183 
L 169.308343 287.566574 
L 169.308343 287.542672 
L 170.364915 287.494868 
L 170.364915 287.423161 
L 173.110827 287.327553 
L 173.180201 287.279748 
L 175.19099 287.208042 
L 175.19099 287.160238 
L 176.520945 287.064629 
L 176.52285 287.016825 
L 178.372261 286.921216 
L 178.373975 286.84951 
L 180.04577 286.753901 
L 180.047327 286.706097 
L 182.069005 286.610488 
L 182.069005 286.586586 
L 184.275799 286.490977 
L 184.275799 286.467075 
L 186.406095 286.371467 
L 186.406095 286.347564 
L 189.558244 286.251956 
L 189.558244 286.228054 
L 194.565285 286.132445 
L 194.565285 286.108543 
L 200.213425 286.012934 
L 200.310862 285.96513 
L 203.90698 285.869521 
L 203.90698 285.845619 
L 338.688 285.797815 
L 338.688 285.797815 
" style="fill:none;stroke:#ff0000;stroke-linecap:square;stroke-width:1.5;"/>
   </g>
   <g id="line2d_51">
    <defs>
     <path d="M -6 6 
L 6 6 
L 6 -6 
L -6 -6 
z
" id="m642fc8c0ed" style="stroke:#ff0000;stroke-linejoin:miter;stroke-width:1.5;"/>
    </defs>
    <g>
     <use style="fill-opacity:0;stroke:#ff0000;stroke-linejoin:miter;stroke-width:1.5;" x="98.771596" xlink:href="#m642fc8c0ed" y="291.725549"/>
     <use style="fill-opacity:0;stroke:#ff0000;stroke-linejoin:miter;stroke-width:1.5;" x="197.951704" xlink:href="#m642fc8c0ed" y="286.108543"/>
     <use style="fill-opacity:0;stroke:#ff0000;stroke-linejoin:miter;stroke-width:1.5;" x="204.306775" xlink:href="#m642fc8c0ed" y="285.821717"/>
     <use style="fill-opacity:0;stroke:#ff0000;stroke-linejoin:miter;stroke-width:1.5;" x="204.306775" xlink:href="#m642fc8c0ed" y="285.797815"/>
     <use style="fill-opacity:0;stroke:#ff0000;stroke-linejoin:miter;stroke-width:1.5;" x="204.306775" xlink:href="#m642fc8c0ed" y="285.797815"/>
     <use style="fill-opacity:0;stroke:#ff0000;stroke-linejoin:miter;stroke-width:1.5;" x="338.688" xlink:href="#m642fc8c0ed" y="285.797815"/>
    </g>
   </g>
   <g id="line2d_52">
    <path style="fill:none;stroke:#ff0000;stroke-linecap:square;stroke-width:1.5;"/>
    <g/>
   </g>
   <g id="line2d_53">
    <path clip-path="url(#p765acfe268)" d="M 138.341479 289.908985 
" style="fill:none;stroke:#ff0000;stroke-linecap:square;stroke-width:1.5;"/>
    <defs>
     <path d="M -12 12 
L 12 -12 
M -12 -12 
L 12 12 
" id="m26deb037b0" style="stroke:#ff0000;"/>
    </defs>
    <g clip-path="url(#p765acfe268)">
     <use style="fill:#ff0000;stroke:#ff0000;" x="138.341479" xlink:href="#m26deb037b0" y="289.908985"/>
    </g>
   </g>
   <g id="line2d_54">
    <defs>
     <path d="M 0 1.5 
C 0.397805 1.5 0.77937 1.341951 1.06066 1.06066 
C 1.341951 0.77937 1.5 0.397805 1.5 0 
C 1.5 -0.397805 1.341951 -0.77937 1.06066 -1.06066 
C 0.77937 -1.341951 0.397805 -1.5 0 -1.5 
C -0.397805 -1.5 -0.77937 -1.341951 -1.06066 -1.06066 
C -1.341951 -0.77937 -1.5 -0.397805 -1.5 0 
C -1.5 0.397805 -1.341951 0.77937 -1.06066 1.06066 
C -0.77937 1.341951 -0.397805 1.5 0 1.5 
z
" id="m76a80177c5" style="stroke:#bf00bf;"/>
    </defs>
    <g>
     <use style="fill:#bf00bf;stroke:#bf00bf;" x="214.713542" xlink:href="#m76a80177c5" y="290.339224"/>
     <use style="fill:#bf00bf;stroke:#bf00bf;" x="214.713542" xlink:href="#m76a80177c5" y="290.339224"/>
    </g>
   </g>
   <g id="line2d_55">
    <path d="M -1 296.123546 
L 5.356583 296.123546 
L 5.356583 295.83672 
L 17.444571 295.765013 
L 17.444571 295.573796 
L 24.515591 295.50209 
L 24.515591 295.430383 
L 27.203868 295.430383 
L 27.203868 295.28697 
L 31.586611 295.239166 
L 31.586611 295.143557 
L 36.60358 295.047949 
L 36.60358 295.024047 
L 39.291857 294.976242 
L 39.291857 294.880634 
L 42.677798 294.785025 
L 42.677798 294.761123 
L 48.691568 294.689416 
L 48.691568 294.641612 
L 56.240407 294.569906 
L 56.240407 294.522101 
L 60.037348 294.426493 
L 60.037348 294.402591 
L 62.175444 294.378688 
L 62.175444 294.259178 
L 62.833608 294.235275 
L 62.833608 294.091863 
L 63.776502 294.044058 
L 63.776502 293.972352 
L 73.924795 293.876743 
L 73.924795 293.781135 
L 74.595619 293.709428 
L 74.595619 293.661624 
L 75.710839 293.566015 
L 75.710839 293.542113 
L 81.222303 293.446504 
L 81.222303 293.422602 
L 85.927087 293.326994 
L 86.012784 293.279189 
L 90.108217 293.183581 
L 90.108217 293.159679 
L 93.083804 293.06407 
L 93.083804 293.040168 
L 95.820862 292.944559 
L 95.820862 292.920657 
L 102.12848 292.825048 
L 102.12848 292.801146 
L 108.856871 292.705538 
L 108.856871 292.681635 
L 113.96013 292.586027 
L 113.96013 292.562125 
L 118.390628 292.466516 
L 118.390628 292.442614 
L 121.974949 292.347005 
L 121.974949 292.323103 
L 124.082074 292.227494 
L 124.082074 292.203592 
L 129.096633 292.107984 
L 129.096633 292.084082 
L 133.527491 291.988473 
L 133.527491 291.964571 
L 135.636889 291.868962 
L 135.636889 291.84506 
L 140.172934 291.749451 
L 140.172934 291.725549 
L 146.278211 291.629941 
L 146.278211 291.606038 
L 155.250207 291.51043 
L 155.250207 291.486528 
L 158.268788 291.390919 
L 158.268788 291.367017 
L 164.724901 291.271408 
L 164.724901 291.247506 
L 170.627367 291.151897 
L 170.627367 291.127995 
L 177.290683 291.032387 
L 177.290683 291.008485 
L 181.447405 290.912876 
L 181.447405 290.888974 
L 185.341885 290.817267 
L 185.341885 290.769463 
L 186.959888 290.673854 
L 186.959888 290.649952 
L 191.04889 290.554344 
L 191.04889 290.530441 
L 198.994253 290.434833 
L 198.994253 290.410931 
L 338.688 290.339224 
L 338.688 290.339224 
" style="fill:none;stroke:#bf00bf;stroke-linecap:square;stroke-width:1.5;"/>
   </g>
   <g id="line2d_56">
    <defs>
     <path d="M -0 8.485281 
L 8.485281 0 
L 0 -8.485281 
L -8.485281 -0 
z
" id="m5d608bfce2" style="stroke:#bf00bf;stroke-linejoin:miter;stroke-width:1.5;"/>
    </defs>
    <g>
     <use style="fill-opacity:0;stroke:#bf00bf;stroke-linejoin:miter;stroke-width:1.5;" x="108.856871" xlink:href="#m5d608bfce2" y="292.681635"/>
     <use style="fill-opacity:0;stroke:#bf00bf;stroke-linejoin:miter;stroke-width:1.5;" x="173.878578" xlink:href="#m5d608bfce2" y="291.080191"/>
     <use style="fill-opacity:0;stroke:#bf00bf;stroke-linejoin:miter;stroke-width:1.5;" x="214.713542" xlink:href="#m5d608bfce2" y="290.363126"/>
     <use style="fill-opacity:0;stroke:#bf00bf;stroke-linejoin:miter;stroke-width:1.5;" x="214.713542" xlink:href="#m5d608bfce2" y="290.339224"/>
     <use style="fill-opacity:0;stroke:#bf00bf;stroke-linejoin:miter;stroke-width:1.5;" x="214.713542" xlink:href="#m5d608bfce2" y="290.339224"/>
     <use style="fill-opacity:0;stroke:#bf00bf;stroke-linejoin:miter;stroke-width:1.5;" x="338.688" xlink:href="#m5d608bfce2" y="290.339224"/>
    </g>
   </g>
   <g id="line2d_57">
    <path style="fill:none;stroke:#bf00bf;stroke-linecap:square;stroke-width:1.5;"/>
    <g/>
   </g>
   <g id="line2d_58">
    <path clip-path="url(#p765acfe268)" d="M 138.127497 291.797256 
" style="fill:none;stroke:#bf00bf;stroke-linecap:square;stroke-width:1.5;"/>
    <defs>
     <path d="M -12 12 
L 12 -12 
M -12 -12 
L 12 12 
" id="mf6fd8e187c" style="stroke:#bf00bf;"/>
    </defs>
    <g clip-path="url(#p765acfe268)">
     <use style="fill:#bf00bf;stroke:#bf00bf;" x="138.127497" xlink:href="#mf6fd8e187c" y="291.797256"/>
    </g>
   </g>
   <g id="line2d_59">
    <path d="M 338.688 290.339224 
L 369.60768 293.092752 
" style="fill:none;stroke:#bf00bf;stroke-linecap:square;stroke-width:1.5;"/>
    <g>
     <use style="fill-opacity:0;stroke:#bf00bf;stroke-linejoin:miter;stroke-width:1.5;" x="338.688" xlink:href="#m5d608bfce2" y="290.339224"/>
     <use style="fill-opacity:0;stroke:#bf00bf;stroke-linejoin:miter;stroke-width:1.5;" x="369.60768" xlink:href="#m5d608bfce2" y="293.092752"/>
    </g>
   </g>
   <g id="line2d_60">
    <path d="M 338.688 285.797815 
L 369.60768 236.920776 
" style="fill:none;stroke:#ff0000;stroke-linecap:square;stroke-width:1.5;"/>
    <g>
     <use style="fill-opacity:0;stroke:#ff0000;stroke-linejoin:miter;stroke-width:1.5;" x="338.688" xlink:href="#m642fc8c0ed" y="285.797815"/>
     <use style="fill-opacity:0;stroke:#ff0000;stroke-linejoin:miter;stroke-width:1.5;" x="369.60768" xlink:href="#m642fc8c0ed" y="236.920776"/>
    </g>
   </g>
   <g id="line2d_61">
    <path d="M 338.688 275.997931 
L 369.60768 180.7488 
" style="fill:none;stroke:#000000;stroke-linecap:square;stroke-width:1.5;"/>
    <g>
     <use style="fill-opacity:0;stroke:#000000;stroke-width:1.5;" x="338.688" xlink:href="#m94feeb84ff" y="275.997931"/>
     <use style="fill-opacity:0;stroke:#000000;stroke-width:1.5;" x="369.60768" xlink:href="#m94feeb84ff" y="180.7488"/>
    </g>
   </g>
   <g id="line2d_62">
    <path d="M 338.688 260.700552 
L 369.60768 124.576824 
" style="fill:none;stroke:#0000ff;stroke-linecap:square;stroke-width:1.5;"/>
    <g>
     <use style="fill-opacity:0;stroke:#0000ff;stroke-linejoin:bevel;stroke-width:1.5;" x="338.688" xlink:href="#mf7675f3bf9" y="260.700552"/>
     <use style="fill-opacity:0;stroke:#0000ff;stroke-linejoin:bevel;stroke-width:1.5;" x="369.60768" xlink:href="#mf7675f3bf9" y="124.576824"/>
    </g>
   </g>
   <g id="line2d_63">
    <path d="M 338.688 239.427634 
L 369.60768 68.404848 
" style="fill:none;stroke:#008000;stroke-linecap:square;stroke-width:1.5;"/>
    <g>
     <use style="fill-opacity:0;stroke:#008000;stroke-linejoin:miter;stroke-width:1.5;" x="338.688" xlink:href="#m33bfaef8ea" y="239.427634"/>
     <use style="fill-opacity:0;stroke:#008000;stroke-linejoin:miter;stroke-width:1.5;" x="369.60768" xlink:href="#m33bfaef8ea" y="68.404848"/>
    </g>
   </g>
   <g id="line2d_64">
    <path d="M 338.688 206.681682 
L 369.60768 12.232871 
" style="fill:none;stroke:#00bfbf;stroke-linecap:square;stroke-width:1.5;"/>
    <g>
     <use style="fill-opacity:0;stroke:#00bfbf;stroke-width:1.5;" x="338.688" xlink:href="#m2a0d2da27f" y="206.681682"/>
     <use style="fill-opacity:0;stroke:#00bfbf;stroke-width:1.5;" x="369.60768" xlink:href="#m2a0d2da27f" y="12.232871"/>
    </g>
   </g>
   <g id="line2d_65">
    <path d="M 338.688 298.944 
L 338.688 6.381624 
" style="fill:none;stroke:#000000;stroke-linecap:square;stroke-width:1.5;"/>
   </g>
   <g id="patch_3">
    <path d="M 57.6 298.944 
L 57.6 3.456 
" style="fill:none;stroke:#000000;stroke-linecap:square;stroke-linejoin:miter;stroke-width:0.8;"/>
   </g>
   <g id="patch_4">
    <path d="M 338.688 298.944 
L 338.688 3.456 
" style="fill:none;stroke:#000000;stroke-linecap:square;stroke-linejoin:miter;stroke-width:0.8;"/>
   </g>
   <g id="patch_5">
    <path d="M 57.6 298.944 
L 338.688 298.944 
" style="fill:none;stroke:#000000;stroke-linecap:square;stroke-linejoin:miter;stroke-width:0.8;"/>
   </g>
   <g id="patch_6">
    <path d="M 57.6 3.456 
L 338.688 3.456 
" style="fill:none;stroke:#000000;stroke-linecap:square;stroke-linejoin:miter;stroke-width:0.8;"/>
   </g>
   <g id="text_13">
    <!-- 40-D -->
    <defs>
     <path d="M 19.671875 64.796875 
L 19.671875 8.109375 
L 31.59375 8.109375 
Q 46.6875 8.109375 53.6875 14.9375 
Q 60.6875 21.78125 60.6875 36.53125 
Q 60.6875 51.171875 53.6875 57.984375 
Q 46.6875 64.796875 31.59375 64.796875 
z
M 9.8125 72.90625 
L 30.078125 72.90625 
Q 51.265625 72.90625 61.171875 64.09375 
Q 71.09375 55.28125 71.09375 36.53125 
Q 71.09375 17.671875 61.125 8.828125 
Q 51.171875 0 30.078125 0 
L 9.8125 0 
z
" id="DejaVuSans-68"/>
    </defs>
    <g transform="translate(375.22944 297.78369)scale(0.17 -0.17)">
     <use xlink:href="#DejaVuSans-52"/>
     <use x="63.623047" xlink:href="#DejaVuSans-48"/>
     <use x="127.246094" xlink:href="#DejaVuSans-45"/>
     <use x="163.330078" xlink:href="#DejaVuSans-68"/>
    </g>
   </g>
   <g id="text_14">
    <!-- 20-D -->
    <g transform="translate(375.22944 241.611714)scale(0.17 -0.17)">
     <use xlink:href="#DejaVuSans-50"/>
     <use x="63.623047" xlink:href="#DejaVuSans-48"/>
     <use x="127.246094" xlink:href="#DejaVuSans-45"/>
     <use x="163.330078" xlink:href="#DejaVuSans-68"/>
    </g>
   </g>
   <g id="text_15">
    <!-- 10-D -->
    <g transform="translate(375.22944 185.439737)scale(0.17 -0.17)">
     <use xlink:href="#DejaVuSans-49"/>
     <use x="63.623047" xlink:href="#DejaVuSans-48"/>
     <use x="127.246094" xlink:href="#DejaVuSans-45"/>
     <use x="163.330078" xlink:href="#DejaVuSans-68"/>
    </g>
   </g>
   <g id="text_16">
    <!-- 5-D -->
    <defs>
     <path d="M 10.796875 72.90625 
L 49.515625 72.90625 
L 49.515625 64.59375 
L 19.828125 64.59375 
L 19.828125 46.734375 
Q 21.96875 47.46875 24.109375 47.828125 
Q 26.265625 48.1875 28.421875 48.1875 
Q 40.625 48.1875 47.75 41.5 
Q 54.890625 34.8125 54.890625 23.390625 
Q 54.890625 11.625 47.5625 5.09375 
Q 40.234375 -1.421875 26.90625 -1.421875 
Q 22.3125 -1.421875 17.546875 -0.640625 
Q 12.796875 0.140625 7.71875 1.703125 
L 7.71875 11.625 
Q 12.109375 9.234375 16.796875 8.0625 
Q 21.484375 6.890625 26.703125 6.890625 
Q 35.15625 6.890625 40.078125 11.328125 
Q 45.015625 15.765625 45.015625 23.390625 
Q 45.015625 31 40.078125 35.4375 
Q 35.15625 39.890625 26.703125 39.890625 
Q 22.75 39.890625 18.8125 39.015625 
Q 14.890625 38.140625 10.796875 36.28125 
z
" id="DejaVuSans-53"/>
    </defs>
    <g transform="translate(375.22944 129.267761)scale(0.17 -0.17)">
     <use xlink:href="#DejaVuSans-53"/>
     <use x="63.623047" xlink:href="#DejaVuSans-45"/>
     <use x="99.707031" xlink:href="#DejaVuSans-68"/>
    </g>
   </g>
   <g id="text_17">
    <!-- 3-D -->
    <defs>
     <path d="M 40.578125 39.3125 
Q 47.65625 37.796875 51.625 33 
Q 55.609375 28.21875 55.609375 21.1875 
Q 55.609375 10.40625 48.1875 4.484375 
Q 40.765625 -1.421875 27.09375 -1.421875 
Q 22.515625 -1.421875 17.65625 -0.515625 
Q 12.796875 0.390625 7.625 2.203125 
L 7.625 11.71875 
Q 11.71875 9.328125 16.59375 8.109375 
Q 21.484375 6.890625 26.8125 6.890625 
Q 36.078125 6.890625 40.9375 10.546875 
Q 45.796875 14.203125 45.796875 21.1875 
Q 45.796875 27.640625 41.28125 31.265625 
Q 36.765625 34.90625 28.71875 34.90625 
L 20.21875 34.90625 
L 20.21875 43.015625 
L 29.109375 43.015625 
Q 36.375 43.015625 40.234375 45.921875 
Q 44.09375 48.828125 44.09375 54.296875 
Q 44.09375 59.90625 40.109375 62.90625 
Q 36.140625 65.921875 28.71875 65.921875 
Q 24.65625 65.921875 20.015625 65.03125 
Q 15.375 64.15625 9.8125 62.3125 
L 9.8125 71.09375 
Q 15.4375 72.65625 20.34375 73.4375 
Q 25.25 74.21875 29.59375 74.21875 
Q 40.828125 74.21875 47.359375 69.109375 
Q 53.90625 64.015625 53.90625 55.328125 
Q 53.90625 49.265625 50.4375 45.09375 
Q 46.96875 40.921875 40.578125 39.3125 
z
" id="DejaVuSans-51"/>
    </defs>
    <g transform="translate(375.22944 73.095785)scale(0.17 -0.17)">
     <use xlink:href="#DejaVuSans-51"/>
     <use x="63.623047" xlink:href="#DejaVuSans-45"/>
     <use x="99.707031" xlink:href="#DejaVuSans-68"/>
    </g>
   </g>
   <g id="text_18">
    <!-- 2-D -->
    <g transform="translate(375.22944 16.923809)scale(0.17 -0.17)">
     <use xlink:href="#DejaVuSans-50"/>
     <use x="63.623047" xlink:href="#DejaVuSans-45"/>
     <use x="99.707031" xlink:href="#DejaVuSans-68"/>
    </g>
   </g>
   <g id="text_19">
    <!-- bbob f1-f24 -->
    <defs>
     <path d="M 48.6875 27.296875 
Q 48.6875 37.203125 44.609375 42.84375 
Q 40.53125 48.484375 33.40625 48.484375 
Q 26.265625 48.484375 22.1875 42.84375 
Q 18.109375 37.203125 18.109375 27.296875 
Q 18.109375 17.390625 22.1875 11.75 
Q 26.265625 6.109375 33.40625 6.109375 
Q 40.53125 6.109375 44.609375 11.75 
Q 48.6875 17.390625 48.6875 27.296875 
z
M 18.109375 46.390625 
Q 20.953125 51.265625 25.265625 53.625 
Q 29.59375 56 35.59375 56 
Q 45.5625 56 51.78125 48.09375 
Q 58.015625 40.1875 58.015625 27.296875 
Q 58.015625 14.40625 51.78125 6.484375 
Q 45.5625 -1.421875 35.59375 -1.421875 
Q 29.59375 -1.421875 25.265625 0.953125 
Q 20.953125 3.328125 18.109375 8.203125 
L 18.109375 0 
L 9.078125 0 
L 9.078125 75.984375 
L 18.109375 75.984375 
z
" id="DejaVuSans-98"/>
    </defs>
    <g transform="translate(60.41088 14.161286)scale(0.102 -0.102)">
     <use xlink:href="#DejaVuSans-98"/>
     <use x="63.476562" xlink:href="#DejaVuSans-98"/>
     <use x="126.953125" xlink:href="#DejaVuSans-111"/>
     <use x="188.134766" xlink:href="#DejaVuSans-98"/>
     <use x="251.611328" xlink:href="#DejaVuSans-32"/>
     <use x="283.398438" xlink:href="#DejaVuSans-102"/>
     <use x="318.603516" xlink:href="#DejaVuSans-49"/>
     <use x="382.226562" xlink:href="#DejaVuSans-45"/>
     <use x="418.310547" xlink:href="#DejaVuSans-102"/>
     <use x="453.515625" xlink:href="#DejaVuSans-50"/>
     <use x="517.138672" xlink:href="#DejaVuSans-52"/>
    </g>
    <!-- 51 targets: 100..1e-08 -->
    <defs>
     <path d="M 11.71875 12.40625 
L 22.015625 12.40625 
L 22.015625 0 
L 11.71875 0 
z
M 11.71875 51.703125 
L 22.015625 51.703125 
L 22.015625 39.3125 
L 11.71875 39.3125 
z
" id="DejaVuSans-58"/>
    </defs>
    <g transform="translate(60.41088 25.583055)scale(0.102 -0.102)">
     <use xlink:href="#DejaVuSans-53"/>
     <use x="63.623047" xlink:href="#DejaVuSans-49"/>
     <use x="127.246094" xlink:href="#DejaVuSans-32"/>
     <use x="159.033203" xlink:href="#DejaVuSans-116"/>
     <use x="198.242188" xlink:href="#DejaVuSans-97"/>
     <use x="259.521484" xlink:href="#DejaVuSans-114"/>
     <use x="300.619141" xlink:href="#DejaVuSans-103"/>
     <use x="364.095703" xlink:href="#DejaVuSans-101"/>
     <use x="425.619141" xlink:href="#DejaVuSans-116"/>
     <use x="464.828125" xlink:href="#DejaVuSans-115"/>
     <use x="516.927734" xlink:href="#DejaVuSans-58"/>
     <use x="550.619141" xlink:href="#DejaVuSans-32"/>
     <use x="582.40625" xlink:href="#DejaVuSans-49"/>
     <use x="646.029297" xlink:href="#DejaVuSans-48"/>
     <use x="709.652344" xlink:href="#DejaVuSans-48"/>
     <use x="773.275391" xlink:href="#DejaVuSans-46"/>
     <use x="805.0625" xlink:href="#DejaVuSans-46"/>
     <use x="836.849609" xlink:href="#DejaVuSans-49"/>
     <use x="900.472656" xlink:href="#DejaVuSans-101"/>
     <use x="961.996094" xlink:href="#DejaVuSans-45"/>
     <use x="998.080078" xlink:href="#DejaVuSans-48"/>
     <use x="1061.703125" xlink:href="#DejaVuSans-56"/>
    </g>
    <!-- 15 instances -->
    <g transform="translate(60.41088 37.004824)scale(0.102 -0.102)">
     <use xlink:href="#DejaVuSans-49"/>
     <use x="63.623047" xlink:href="#DejaVuSans-53"/>
     <use x="127.246094" xlink:href="#DejaVuSans-32"/>
     <use x="159.033203" xlink:href="#DejaVuSans-105"/>
     <use x="186.816406" xlink:href="#DejaVuSans-110"/>
     <use x="250.195312" xlink:href="#DejaVuSans-115"/>
     <use x="302.294922" xlink:href="#DejaVuSans-116"/>
     <use x="341.503906" xlink:href="#DejaVuSans-97"/>
     <use x="402.783203" xlink:href="#DejaVuSans-110"/>
     <use x="466.162109" xlink:href="#DejaVuSans-99"/>
     <use x="521.142578" xlink:href="#DejaVuSans-101"/>
     <use x="582.666016" xlink:href="#DejaVuSans-115"/>
    </g>
   </g>
   <g id="text_20">
    <!-- v2.4 -->
    <g style="fill:#808080;" transform="translate(187.233062 293.909432)scale(0.1 -0.1)">
     <use xlink:href="#DejaVuSans-118"/>
     <use x="59.179688" xlink:href="#DejaVuSans-50"/>
     <use x="122.802734" xlink:href="#DejaVuSans-46"/>
     <use x="154.589844" xlink:href="#DejaVuSans-52"/>
    </g>
   </g>
  </g>
 </g>
 <defs>
  <clipPath id="p765acfe268">
   <rect height="295.488" width="281.088" x="57.6" y="3.456"/>
  </clipPath>
 </defs>
</svg>
